<svg width="500" height="500" viewBox="0 0 500 500" fill="none" xmlns="http://www.w3.org/2000/svg">
<path fill-rule="evenodd" clip-rule="evenodd" d="M255 97.7713C251.123 104.871 246.289 111.205 240.5 116.771C240.017 117.719 239.851 118.719 240 119.771C239.333 119.771 239 119.438 239 118.771C233.31 95.9668 228.476 72.9668 224.5 49.7713C221.987 40.2286 225.487 35.7286 235 36.2713C238.167 38.1046 240.667 40.6046 242.5 43.7713C246.705 61.9133 250.871 79.9133 255 97.7713Z" fill="#B17A67"/>
<path fill-rule="evenodd" clip-rule="evenodd" d="M296 108.772C289.988 114.451 282.988 118.618 275 121.272C271.766 124.02 268.432 126.52 265 128.772C258.035 131.197 251.035 131.197 244 128.772C241.316 126.401 239.982 123.401 240 119.772C239.851 118.72 240.017 117.72 240.5 116.772C246.289 111.206 251.123 104.872 255 97.7715C264.794 80.1491 279.127 67.6491 298 60.2715C301.667 59.6048 305.333 59.6048 309 60.2715C312.584 61.9353 314.251 64.7686 314 68.7715C312.524 74.0108 311.358 79.3441 310.5 84.7715C306.409 93.2978 301.576 101.298 296 108.772Z" fill="#8BC24A"/>
<path fill-rule="evenodd" clip-rule="evenodd" d="M409 235.772C408.126 238.349 407.126 240.849 406 243.272C406.34 245.783 407.34 247.95 409 249.772C406.902 267.837 402.735 285.504 396.5 302.772C389.674 315.423 383.674 328.423 378.5 341.772C369.192 359.082 356.359 373.249 340 384.272C337.016 385.543 334.016 386.71 331 387.772C329.195 383.785 326.195 382.285 322 383.272C319.612 385.133 316.946 386.466 314 387.272C311.834 388.95 310.501 391.117 310 393.772C295.165 393.188 280.999 389.855 267.5 383.772C256.653 393.945 243.819 399.945 229 401.772C224.66 398.833 220.66 399.166 217 402.772C212.162 402.851 207.496 402.017 203 400.272C189.658 395.768 176.658 390.434 164 384.272C150.084 373.691 138.251 361.191 128.5 346.772C120.056 332.212 111.889 317.546 104 302.772C113.606 302.239 122.94 300.406 132 297.272C136.744 294.674 138.078 290.841 136 285.772C134.648 284.376 132.981 283.709 131 283.772C119.802 288.192 108.135 289.859 96 288.772C94.5271 283.543 93.3604 278.209 92.5 272.772C91.8333 251.105 91.8333 229.439 92.5 207.772C100.851 188.408 109.184 169.075 117.5 149.772C127.296 130.32 142.796 117.82 164 112.272C168.369 111.43 172.703 110.43 177 109.272C191.363 109.032 205.696 109.698 220 111.272C226.963 112.313 233.297 114.813 239 118.772C239 119.439 239.333 119.772 240 119.772C239.982 123.401 241.316 126.401 244 128.772C248.83 134.633 254.83 136.133 262 133.272C263.641 132.143 264.641 130.643 265 128.772C268.432 126.52 271.766 124.02 275 121.272C282.988 118.618 289.988 114.451 296 108.772C300.015 107.377 304.015 105.877 308 104.272C313.333 103.605 318.667 103.605 324 104.272C339.539 108.335 354.206 114.335 368 122.272C375.703 127.361 381.869 133.861 386.5 141.772C390.374 155.396 395.041 168.729 400.5 181.772C403.174 193.797 405.84 205.797 408.5 217.772C408.999 223.763 409.166 229.763 409 235.772Z" fill="#F34336"/>
<path fill-rule="evenodd" clip-rule="evenodd" d="M244 128.771C251.035 131.196 258.035 131.196 265 128.771C264.641 130.642 263.641 132.142 262 133.271C254.83 136.132 248.83 134.632 244 128.771Z" fill="#B27965"/>
<path fill-rule="evenodd" clip-rule="evenodd" d="M150 233.771C153.099 237.511 157.099 238.678 162 237.271C166.534 233.072 170.701 228.572 174.5 223.771C173.655 238.238 178.155 250.738 188 261.271C208.086 273.472 225.92 270.639 241.5 252.771C243.786 246.57 246.453 240.57 249.5 234.771C250.781 227.728 249.781 221.061 246.5 214.771C242.262 210.958 239.596 206.292 238.5 200.771C234.886 195.208 229.719 192.041 223 191.271C214 190.604 205 190.604 196 191.271C176.259 197.869 161.259 210.036 151 227.771C156.257 200.776 172.257 183.943 199 177.271C203.372 176.85 207.705 176.183 212 175.271C231.64 166.209 252.306 161.876 274 162.271C298.156 157.503 322.489 156.503 347 159.271C383.537 173.523 395.37 199.356 382.5 236.771C368.842 268.753 344.675 286.586 310 290.271C283.746 292.987 257.413 295.32 231 297.271C210.443 302.62 190.776 300.287 172 290.271C161.144 283.411 154.644 273.578 152.5 260.771C150.399 251.895 149.566 242.895 150 233.771Z" fill="#FCFBFB"/>
<path fill-rule="evenodd" clip-rule="evenodd" d="M409 249.772C407.34 247.95 406.34 245.783 406 243.272C407.126 240.849 408.126 238.349 409 235.772C418.55 231.661 427.55 226.494 436 220.272C442.541 213.4 448.707 206.233 454.5 198.772C452.257 193.091 450.09 187.257 448 181.272C449.798 174.035 453.798 172.368 460 176.272C464.213 181.19 467.546 186.69 470 192.772C474.943 193.064 479.943 193.23 485 193.272C489 196.939 489 200.605 485 204.272C477.693 207.272 470.36 207.439 463 204.772C458.122 215.995 451.122 225.828 442 234.272C434 239.605 426 244.939 418 250.272C414.945 250.906 411.945 250.74 409 249.772Z" fill="#070606"/>
<path fill-rule="evenodd" clip-rule="evenodd" d="M304 176.772C321.904 176.755 339.571 178.921 357 183.272C364.995 187.852 373.162 192.019 381.5 195.772C383.123 200.968 381.29 203.968 376 204.772C368.818 204.899 362.318 202.899 356.5 198.772C356.056 202.229 356.556 205.562 358 208.772C355.6 220.137 352.1 231.137 347.5 241.772C343.16 245.281 338.993 248.948 335 252.772C323.85 254.42 312.85 253.92 302 251.272C294.768 248.373 289.935 243.206 287.5 235.772C280.329 218.66 281.662 202.327 291.5 186.772C295.879 183.544 300.045 180.211 304 176.772Z" fill="#040404"/>
<path fill-rule="evenodd" clip-rule="evenodd" d="M304.001 187.772C309.241 186.81 313.408 188.477 316.501 192.772C316.834 199.455 316.5 206.122 315.501 212.772C314.287 214.321 312.787 215.487 311.001 216.272C307.334 216.939 303.668 216.939 300.001 216.272C297.501 213.105 295.001 209.939 292.501 206.772C291.849 203.678 292.183 200.678 293.501 197.772C297.502 194.937 301.002 191.604 304.001 187.772Z" fill="#F9F9F9"/>
<path fill-rule="evenodd" clip-rule="evenodd" d="M150 233.772C150.017 231.707 150.35 229.707 151 227.772C161.259 210.037 176.259 197.87 196 191.272C205 190.605 214 190.605 223 191.272C229.719 192.042 234.886 195.209 238.5 200.772C239.596 206.293 242.262 210.959 246.5 214.772C249.781 221.062 250.781 227.729 249.5 234.772C246.453 240.571 243.786 246.571 241.5 252.772C225.92 270.64 208.086 273.473 188 261.272C178.155 250.739 173.655 238.239 174.5 223.772C170.701 228.573 166.534 233.073 162 237.272C157.099 238.679 153.099 237.512 150 233.772Z" fill="#030303"/>
<path fill-rule="evenodd" clip-rule="evenodd" d="M219 201.771C227.709 201.979 232.376 206.479 233 215.271C233.061 224.676 228.728 230.843 220 233.771C212.751 231.857 208.751 227.191 208 219.771C208.658 211.763 212.325 205.763 219 201.771Z" fill="#F6F6F6"/>
<path fill-rule="evenodd" clip-rule="evenodd" d="M96 288.772C108.135 289.859 119.802 288.192 131 283.772C132.981 283.709 134.648 284.376 136 285.772C138.078 290.841 136.744 294.674 132 297.272C122.94 300.406 113.606 302.239 104 302.772C94.4123 301.876 85.079 299.709 76 296.272C67.4971 291.188 59.1637 285.855 51 280.272C45.6864 276.79 41.0198 272.623 37 267.772C31.8367 271.103 26.3367 273.77 20.5 275.772C18.518 275.282 16.8513 274.282 15.5 272.772C14.2557 269.294 13.0891 265.794 12 262.272C12.1983 258.871 13.8649 256.538 17 255.272C22 254.939 27 254.605 32 254.272C32.8333 253.439 33.6667 252.605 34.5 251.772C36.11 246.165 37.4434 240.498 38.5 234.772C42.1146 229.849 46.1146 229.516 50.5 233.772C51.1667 238.439 51.1667 243.105 50.5 247.772C49.7654 251.85 49.0987 255.85 48.5 259.772C62.1003 273.153 77.9337 282.819 96 288.772Z" fill="#080606"/>
<path fill-rule="evenodd" clip-rule="evenodd" d="M292 260.772C296.408 260.138 299.408 261.805 301 265.772C299.01 273.257 295.343 279.757 290 285.272C286.428 286.677 282.761 287.01 279 286.272C273.259 283.694 267.426 281.527 261.5 279.772C259.125 275.77 259.959 272.604 264 270.272C266.333 269.605 268.667 269.605 271 270.272C275.11 272.503 279.443 273.836 284 274.272C286.804 269.827 289.471 265.327 292 260.772Z" fill="#0B0B0B"/>
<path fill-rule="evenodd" clip-rule="evenodd" d="M331 387.771C331.349 390.734 330.349 393.067 328 394.771C327.667 397.438 327.333 400.104 327 402.771C327.998 413.087 328.665 423.42 329 433.771C340.16 431.78 349.66 434.78 357.5 442.771C358.657 446.617 357.491 449.45 354 451.271C345.34 450.844 336.674 450.51 328 450.271C324.092 455.983 319.926 456.149 315.5 450.771C313.439 431.764 311.606 412.764 310 393.771C310.501 391.116 311.834 388.949 314 387.271C316.946 386.465 319.612 385.132 322 383.271C326.195 382.284 329.195 383.784 331 387.771Z" fill="#060505"/>
<path fill-rule="evenodd" clip-rule="evenodd" d="M229 401.772C229.394 403.239 229.727 404.739 230 406.272C229.229 408.543 228.229 410.71 227 412.772C227.943 421.404 228.276 430.07 228 438.772C232.67 439.493 237.337 440.326 242 441.272C243.431 441.737 244.597 442.571 245.5 443.772C245.944 446.883 247.277 449.549 249.5 451.772C250.835 458.779 248.001 462.779 241 463.772C233.546 461.924 226.046 461.591 218.5 462.772C215.083 462.697 212.75 461.031 211.5 457.772C210.717 441.415 211.05 425.082 212.5 408.772C213.888 406.57 215.388 404.57 217 402.772C220.66 399.166 224.66 398.833 229 401.772Z" fill="#060606"/>
</svg>
