<svg width="500" height="500" viewBox="0 0 500 500" fill="none" xmlns="http://www.w3.org/2000/svg">
<path fill-rule="evenodd" clip-rule="evenodd" d="M266.001 367.062C263.041 367.699 260.041 368.199 257.001 368.562C254.741 372.241 251.911 375.407 248.501 378.062C248.021 379.01 247.851 380.01 248.001 381.062C244.891 380.913 241.891 381.413 239.001 382.562C237.051 384.296 236.051 386.463 236.001 389.062C234.571 389.141 233.241 388.808 232.001 388.062C230.321 392.63 227.981 396.797 225.001 400.562C226.071 401.414 227.071 402.247 228.001 403.062C226.441 403.043 224.941 402.71 223.501 402.062C220.101 404.26 216.441 405.927 212.501 407.062C207.021 406.251 203.361 403.251 201.501 398.062C195.201 407.678 187.031 409.511 177.001 403.562C174.521 400.818 171.521 398.818 168.001 397.562C166.541 395.817 165.211 393.984 164.001 392.062C156.301 395.409 149.461 394.076 143.501 388.062C141.741 384.598 140.571 380.932 140.001 377.062C133.991 381.451 127.821 381.784 121.501 378.062C118.241 373.487 117.241 368.487 118.501 363.062C108.331 360.728 103.161 354.395 103.001 344.062C94.7307 342.988 91.4007 338.488 93.0007 330.562C90.1607 326.298 90.4907 322.298 94.0007 318.562C85.2007 311.383 83.7007 302.883 89.5007 293.062C91.5707 291.11 93.7407 289.277 96.0007 287.562C84.3207 285.556 79.1507 278.723 80.5007 267.062C82.2407 263.321 84.7407 260.154 88.0007 257.562C92.8607 253.867 97.8607 250.367 103.001 247.062C93.9407 242.404 90.7707 235.071 93.5007 225.062C96.2707 216.791 101.441 210.457 109.001 206.062C107.801 200.783 107.301 195.45 107.501 190.062C109.671 185.049 112.841 180.716 117.001 177.062C110.931 169.477 110.431 161.477 115.501 153.062C117.941 150.593 120.771 148.76 124.001 147.562C129.231 147.13 134.231 147.797 139.001 149.562C134.601 143.326 134.101 136.826 137.501 130.062C141.391 125.832 145.561 121.999 150.001 118.562C156.371 117.885 162.701 117.051 169.001 116.062C168.571 108.079 171.911 102.246 179.001 98.5617C187.261 97.1917 195.601 96.6917 204.001 97.0617C201.981 89.9467 202.811 83.2802 206.501 77.0617C210.811 72.7371 215.981 71.2371 222.001 72.5617C225.781 74.6737 229.281 77.1737 232.501 80.0617C236.621 66.2626 245.781 60.0959 260.001 61.5617C266.791 64.3735 270.621 69.5401 271.501 77.0617C281.611 69.2671 292.451 68.1004 304.001 73.5617C307.881 76.8254 310.051 80.992 310.501 86.0617C315.091 83.876 319.921 82.376 325.001 81.5617C338.351 81.0661 345.681 87.5657 347.001 101.062C365.781 95.7107 376.951 102.711 380.501 122.062C392.831 118.012 400.831 122.345 404.501 135.062C405.011 145.073 405.681 155.073 406.501 165.062C416.271 166.83 420.771 172.663 420.001 182.562C419.641 191.483 416.971 199.65 412.001 207.062C413.361 208.59 414.531 210.257 415.501 212.062C415.911 215.828 416.741 219.495 418.001 223.062C417.301 226.003 416.301 228.837 415.001 231.562C418.561 236.995 418.901 242.662 416.001 248.562C417.011 258.553 413.341 266.553 405.001 272.562C402.481 273.903 399.811 274.736 397.001 275.062C396.741 279.002 395.581 282.669 393.501 286.062C388.351 290.228 383.191 294.395 378.001 298.562C373.751 300.91 369.921 300.41 366.501 297.062C361.691 306.781 354.031 310.114 343.501 307.062C332.671 316.75 321.341 317.417 309.501 309.062C307.821 312.761 305.321 315.928 302.001 318.562C294.021 320.494 286.361 323.16 279.001 326.562C276.951 329.155 274.781 331.655 272.501 334.062C272.171 341.062 271.831 348.062 271.501 355.062C270.851 358.369 269.181 361.035 266.501 363.062C266.011 364.355 265.841 365.689 266.001 367.062Z" fill="#FFC108"/>
<path fill-rule="evenodd" clip-rule="evenodd" d="M271.999 156.062C290.509 155.369 308.839 156.869 326.999 160.562C362.669 168.744 377.839 190.911 372.499 227.062C368.569 247.664 356.399 260.498 335.999 265.562C314.259 266.52 292.589 268.353 270.999 271.062C257.559 270.89 244.229 269.723 230.999 267.562C206.659 259.057 195.159 241.891 196.499 216.062C197.659 210.734 199.659 205.734 202.499 201.062C207.209 196.019 211.549 190.685 215.499 185.062C223.419 175.471 233.259 168.637 244.999 164.562C253.889 160.984 262.889 158.151 271.999 156.062Z" fill="#FDFCFC"/>
<path fill-rule="evenodd" clip-rule="evenodd" d="M312 179.062C331.83 178.195 350.33 182.529 367.5 192.062C368.24 194.003 368.08 195.836 367 197.562C360.81 198.878 355.15 197.711 350 194.062C349.67 194.395 349.33 194.729 349 195.062C350.18 197.425 350.84 199.925 351 202.562C349.77 209.237 347.94 215.737 345.5 222.062C337.35 234.174 326.18 237.674 312 232.562C304.12 228.995 299.62 222.828 298.5 214.062C296.98 204.617 298.32 195.617 302.5 187.062C305.86 184.531 309.02 181.864 312 179.062Z" fill="#040404"/>
<path fill-rule="evenodd" clip-rule="evenodd" d="M312.001 187.062C315.791 186.376 318.951 187.376 321.501 190.062C322.001 194.77 321.661 199.437 320.501 204.062C313.961 210.031 308.631 209.031 304.501 201.062C303.831 198.729 303.831 196.395 304.501 194.062C307.401 192.051 309.901 189.718 312.001 187.062Z" fill="#F6F6F6"/>
<path fill-rule="evenodd" clip-rule="evenodd" d="M234.001 189.061C240.671 188.895 247.341 189.061 254.001 189.561C260.091 190.651 263.921 194.151 265.501 200.061C274.691 210.121 275.361 220.787 267.501 232.061C260.191 242.959 250.021 247.126 237.001 244.561C223.981 237.701 217.821 226.868 218.501 212.061C215.391 217.004 211.231 220.67 206.001 223.061C204.471 223.032 203.301 222.365 202.501 221.061C201.831 218.728 201.831 216.394 202.501 214.061C206.281 206.613 211.781 200.779 219.001 196.561C224.091 194.015 229.091 191.515 234.001 189.061Z" fill="#040404"/>
<path fill-rule="evenodd" clip-rule="evenodd" d="M250 197.062C256.57 196.792 260.23 199.958 261 206.562C260.89 213.262 257.72 217.762 251.5 220.062C242.67 216.018 240.67 209.685 245.5 201.062C246.9 199.492 248.4 198.158 250 197.062Z" fill="#F5F5F5"/>
<path fill-rule="evenodd" clip-rule="evenodd" d="M303 240.061C306.38 239.449 308.71 240.615 310 243.561C308.25 249.061 305.25 253.727 301 257.561C298.67 258.228 296.33 258.228 294 257.561C289.96 255.618 285.79 254.118 281.5 253.061C280.6 250.536 281.1 248.369 283 246.561C287.95 247.427 292.95 248.093 298 248.561C300.06 245.947 301.72 243.114 303 240.061Z" fill="#0C0C0C"/>
<path fill-rule="evenodd" clip-rule="evenodd" d="M228 403.061C227.07 402.246 226.07 401.413 225 400.561C227.98 396.796 230.32 392.629 232 388.061C233.24 388.807 234.57 389.14 236 389.061C236.05 386.462 237.05 384.295 239 382.561C241.89 381.412 244.89 380.912 248 381.061C247.85 380.009 248.02 379.009 248.5 378.061C251.91 375.406 254.74 372.24 257 368.561C260.04 368.198 263.04 367.698 266 367.061C285.65 366.015 305.32 365.848 325 366.561C330.66 368.39 332.49 372.224 330.5 378.061C329.72 379.847 328.55 381.347 327 382.561C320.29 384.964 313.62 387.464 307 390.061C312.62 392.323 318.28 394.49 324 396.561C330.25 401.075 330.58 406.075 325 411.561C317.49 413.594 309.82 414.594 302 414.561C305.92 417.812 309.09 421.645 311.5 426.061C313.21 434.517 309.71 438.517 301 438.061C281.8 436.676 265.8 428.843 253 414.561C247.83 411.476 242.83 408.142 238 404.561C234.65 404.106 231.31 403.606 228 403.061Z" fill="#FF5722"/>
</svg>
