<svg width="500" height="500" viewBox="0 0 500 500" fill="none" xmlns="http://www.w3.org/2000/svg">
<path fill-rule="evenodd" clip-rule="evenodd" d="M311.999 53.062C326.409 52.012 337.909 57.352 346.499 69.062C357.209 87.492 364.879 107.162 369.499 128.062C392.929 174.442 401.929 223.442 396.499 275.062C386.129 323.262 357.289 354.262 309.999 368.062C309.669 368.892 309.329 369.732 308.999 370.562C312.299 380.122 315.799 389.622 319.499 399.062C321.129 401.692 323.129 404.022 325.499 406.062C329.079 399.482 334.249 394.652 340.999 391.562C352.039 390.932 357.709 396.262 357.999 407.562C357.929 410.152 357.429 412.652 356.499 415.062C352.769 419.792 349.439 424.792 346.499 430.062C330.799 447.812 318.469 445.812 309.499 424.062C304.419 419.982 300.419 414.982 297.499 409.062C293.499 398.392 289.499 387.732 285.499 377.062C284.999 374.752 284.839 372.422 284.999 370.062C273.399 372.212 261.729 374.052 249.999 375.562C240.009 376.062 230.009 376.232 219.999 376.062C220.159 378.752 219.999 381.412 219.499 384.062C214.419 394.532 212.749 405.532 214.499 417.062C218.449 418.822 222.619 420.322 226.999 421.562C233.569 425.222 235.739 430.722 233.499 438.062C231.579 441.642 228.749 444.142 224.999 445.562C218.399 447.062 211.729 447.392 204.999 446.562C199.049 444.232 193.049 441.902 186.999 439.562C185.399 437.632 184.229 435.462 183.499 433.062C184.229 411.992 186.059 390.992 188.999 370.062C171.469 364.802 155.469 356.632 140.999 345.562C117.269 318.252 104.439 286.412 102.499 250.062C101.829 231.392 101.829 212.732 102.499 194.062C103.389 166.362 112.729 142.032 130.499 121.062C132.399 105.502 140.229 94.002 153.999 86.562C159.969 80.252 165.969 73.922 171.999 67.562C184.999 61.012 198.329 60.352 211.999 65.562C230.409 73.812 244.079 86.972 252.999 105.062C264.339 78.232 284.009 60.902 311.999 53.062Z" fill="#8BC34A"/>
<path fill-rule="evenodd" clip-rule="evenodd" d="M320.999 77.0624C323.539 76.6624 325.709 77.3324 327.499 79.0624C328.759 88.3924 324.589 92.2324 314.999 90.5624C313.019 88.0624 312.519 85.2324 313.499 82.0624C315.669 79.7424 318.169 78.0724 320.999 77.0624Z" fill="#040602"/>
<path fill-rule="evenodd" clip-rule="evenodd" d="M192.999 84.0621C199.329 83.2321 202.159 85.8921 201.499 92.0621C199.399 98.0321 195.229 100.202 188.999 98.5621C185.729 96.1821 184.559 93.0221 185.499 89.0621C188.239 87.6621 190.739 85.9921 192.999 84.0621Z" fill="#030501"/>
<path fill-rule="evenodd" clip-rule="evenodd" d="M309.999 122.063C315.209 121.933 316.869 124.263 314.999 129.063C310.179 133.313 304.849 136.813 298.999 139.563C277.749 142.603 256.419 145.103 234.999 147.063C228.009 146.443 221.009 145.943 213.999 145.563C206.259 143.383 198.589 141.043 190.999 138.563C188.849 136.493 188.519 134.153 189.999 131.563C191.329 131.393 192.669 131.233 193.999 131.063C214.199 137.573 234.859 139.413 255.999 136.563C269.309 134.733 282.639 133.063 295.999 131.563C301.119 128.923 305.779 125.753 309.999 122.063Z" fill="#F04936"/>
<path fill-rule="evenodd" clip-rule="evenodd" d="M358.999 234.062C352.819 230.062 346.479 226.222 339.999 222.562C331.559 220.632 323.219 218.302 314.999 215.562C299.609 212.322 288.779 217.822 282.499 232.062C278.669 244.982 279.339 257.642 284.499 270.062C288.219 274.112 292.719 276.942 297.999 278.562C304.209 279.512 310.379 280.682 316.499 282.062C322.349 278.802 327.689 274.802 332.499 270.062C335.779 263.182 338.779 256.182 341.499 249.062C341.829 245.062 342.169 241.062 342.499 237.062C347.599 241.112 353.429 243.452 359.999 244.062C359.609 257.152 357.109 269.812 352.499 282.062C346.499 292.072 338.999 300.902 329.999 308.562C296.689 325.392 261.689 330.392 224.999 323.562C187.459 314.002 169.129 289.832 169.999 251.062C172.919 251.102 175.589 250.272 177.999 248.562C180.849 245.542 183.849 242.712 186.999 240.062C187.329 240.392 187.669 240.732 187.999 241.062C184.259 259.282 190.599 272.782 206.999 281.562C212.669 282.232 218.329 282.232 223.999 281.562C228.959 279.412 233.629 276.752 237.999 273.562C242.199 267.642 246.029 261.472 249.499 255.062C250.759 246.852 248.759 239.522 243.499 233.062C243.059 225.612 239.229 220.782 231.999 218.562C223.119 215.572 214.119 214.912 204.999 216.562C193.289 219.172 182.959 224.342 173.999 232.062C177.419 218.752 185.079 208.582 196.999 201.562C232.199 182.412 269.199 177.752 307.999 187.562C324.549 191.252 338.379 199.412 349.499 212.062C354.509 218.602 357.679 225.932 358.999 234.062Z" fill="#FDFDFC"/>
<path fill-rule="evenodd" clip-rule="evenodd" d="M358.999 234.062C363.529 235.792 364.699 238.792 362.499 243.062C361.829 243.812 360.999 244.152 359.999 244.062C353.429 243.452 347.599 241.112 342.499 237.062C342.169 241.062 341.829 245.062 341.499 249.062C338.779 256.182 335.779 263.182 332.499 270.062C327.689 274.802 322.349 278.802 316.499 282.062C310.379 280.682 304.209 279.512 297.999 278.562C292.719 276.942 288.219 274.112 284.499 270.062C279.339 257.642 278.669 244.982 282.499 232.062C288.779 217.822 299.609 212.322 314.999 215.562C323.219 218.302 331.559 220.632 339.999 222.562C346.479 226.222 352.819 230.062 358.999 234.062Z" fill="#040404"/>
<path fill-rule="evenodd" clip-rule="evenodd" d="M169.999 251.062C169.039 250.612 168.209 249.942 167.499 249.062C166.829 246.392 166.829 243.732 167.499 241.062C169.909 238.162 172.079 235.162 173.999 232.062C182.959 224.342 193.289 219.172 204.999 216.562C214.119 214.912 223.119 215.572 231.999 218.562C239.229 220.782 243.059 225.612 243.499 233.062C248.759 239.522 250.759 246.852 249.499 255.062C246.029 261.472 242.199 267.642 237.999 273.562C233.629 276.752 228.959 279.412 223.999 281.562C218.329 282.232 212.669 282.232 206.999 281.562C190.599 272.782 184.259 259.282 187.999 241.062C187.669 240.732 187.329 240.392 186.999 240.062C183.849 242.712 180.849 245.542 177.999 248.562C175.589 250.272 172.919 251.102 169.999 251.062Z" fill="#040504"/>
<path fill-rule="evenodd" clip-rule="evenodd" d="M298.999 223.061C305.419 222.821 309.089 225.821 309.999 232.061C308.659 235.881 307.829 239.881 307.499 244.061C303.019 248.491 298.019 249.161 292.499 246.061C290.329 243.051 288.829 239.711 287.999 236.061C288.259 233.531 289.099 231.201 290.499 229.061C293.909 227.791 296.749 225.791 298.999 223.061Z" fill="#F4F4F4"/>
<path fill-rule="evenodd" clip-rule="evenodd" d="M224.999 227.063C232.579 226.483 236.579 229.983 236.999 237.563C236.249 245.613 232.079 250.783 224.499 253.063C214.069 247.813 212.399 240.473 219.499 231.063C220.999 229.093 222.829 227.763 224.999 227.063Z" fill="#F6F6F6"/>
<path fill-rule="evenodd" clip-rule="evenodd" d="M281.999 284.062C289.439 284.412 290.939 287.742 286.499 294.062C284.039 297.522 281.199 300.692 277.999 303.562C269.329 303.822 261.499 301.322 254.499 296.062C253.689 289.562 256.519 287.392 262.999 289.562C266.149 291.222 269.319 292.722 272.499 294.062C273.329 293.732 274.169 293.392 274.999 293.062C277.109 289.812 279.439 286.812 281.999 284.062Z" fill="#0B0B0B"/>
</svg>
