<svg width="500" height="500" viewBox="0 0 500 500" fill="none" xmlns="http://www.w3.org/2000/svg">
<path fill-rule="evenodd" clip-rule="evenodd" d="M389.999 127.062C385.316 125.222 380.982 122.722 376.999 119.562C361.19 116.902 350.856 108.072 345.999 93.0615C345.458 81.4415 350.958 75.4415 362.499 75.0615C381.161 74.9815 398.328 79.8215 413.999 89.5615C421.279 96.5115 427.445 104.342 432.499 113.062C433.181 127.212 426.348 133.882 411.999 133.062C408.999 132.892 405.999 132.732 402.999 132.562C398.644 130.712 394.311 128.882 389.999 127.062Z" fill="#B07A67"/>
<path fill-rule="evenodd" clip-rule="evenodd" d="M345.999 93.0613C350.856 108.071 361.19 116.901 376.999 119.561C380.982 122.721 385.316 125.221 389.999 127.061C400.238 143.871 410.738 160.531 421.499 177.061C428.546 191.491 435.88 205.821 443.499 220.061C445.852 231.661 446.685 243.331 445.999 255.061C444.332 254.061 442.999 252.731 441.999 251.061C441.063 256.321 441.896 261.321 444.499 266.061C445.166 273.731 445.166 281.391 444.499 289.061C438.409 315.571 426.742 339.241 409.499 360.061C395.966 373.261 382.133 386.091 367.999 398.561C338.208 420.131 304.875 428.791 267.999 424.561C253.126 421.451 239.126 416.121 225.999 408.561C210.389 403.741 194.723 399.071 178.999 394.561C169.508 390.311 160.174 385.811 150.999 381.061C144.617 383.071 138.284 385.241 131.999 387.561C121.999 388.231 111.999 388.231 101.999 387.561C88.3147 383.221 74.6481 378.891 60.9995 374.561C51.2185 364.061 51.8852 354.401 62.9995 345.561C65.9398 344.411 68.9398 343.411 71.9995 342.561C87.996 342.061 103.996 341.891 119.999 342.061C116.6 321.171 116.1 300.171 118.499 279.061C119.973 274.471 121.14 269.801 121.999 265.061C121.666 264.061 121.332 263.061 120.999 262.061C119.685 262.871 118.518 263.871 117.499 265.061C117.739 254.101 118.072 243.101 118.499 232.061C122.287 215.591 127.62 199.591 134.499 184.061C134.845 182.341 135.345 180.681 135.999 179.061C135.875 178.451 135.542 178.121 134.999 178.061C153.637 161.821 167.637 142.151 176.999 119.061C181.397 116.831 185.397 114.001 188.999 110.561C191.595 109.421 194.262 108.591 196.999 108.061C196.78 109.241 197.113 110.241 197.999 111.061C214.533 100.961 231.2 91.1313 247.999 81.5613C262.553 76.3513 277.553 74.6813 292.999 76.5613C311.649 79.1713 329.316 84.6713 345.999 93.0613Z" fill="#FEDB82"/>
<path fill-rule="evenodd" clip-rule="evenodd" d="M247 97.0612C255.279 95.5612 262.446 97.5612 268.5 103.061C269.663 109.571 267.996 115.241 263.5 120.061C256.029 128.551 247.195 135.051 237 139.561C234 140.231 231 140.231 228 139.561C225.509 136.071 222.675 132.901 219.5 130.061C217.218 124.761 218.384 120.261 223 116.561C226.163 114.141 229.496 111.981 233 110.061C236.432 104.291 241.099 99.9612 247 97.0612Z" fill="#B17A66"/>
<path fill-rule="evenodd" clip-rule="evenodd" d="M306 98.0613C307.699 97.9013 309.366 98.0713 311 98.5613C320.942 105.311 319.942 110.141 308 113.061C304.503 111.931 302.836 109.431 303 105.561C303.321 102.761 304.321 100.261 306 98.0613Z" fill="#110F09"/>
<path fill-rule="evenodd" clip-rule="evenodd" d="M177 119.061C167.638 142.151 153.638 161.821 135 178.061C129.399 182.691 123.066 186.031 116 188.061C101.66 186.711 96.16 179.041 99.5003 165.061C101.36 154.471 105.36 144.811 111.5 136.061C111.834 133.391 112.167 130.731 112.5 128.061C124.505 115.401 138.671 105.901 155 99.5609C169.776 97.8409 177.109 104.341 177 119.061Z" fill="#B07A67"/>
<path fill-rule="evenodd" clip-rule="evenodd" d="M242 105.062C246.003 105.532 249.169 107.532 251.5 111.062C252.273 118.632 249.107 121.462 242 119.562C238.107 114.592 238.107 109.752 242 105.062Z" fill="#0C0806"/>
<path fill-rule="evenodd" clip-rule="evenodd" d="M301.001 120.062C301.117 124.662 299.45 128.502 296.001 131.562C301.772 133.842 307.772 135.502 314.001 136.562C317.172 140.702 316.172 143.202 311.001 144.062C303.551 142.882 296.218 141.212 289.001 139.062C284.997 142.562 281.331 146.402 278.001 150.562C274.157 153.082 270.324 155.582 266.501 158.062C262.991 156.902 261.657 154.572 262.501 151.062C270.766 146.302 277.599 139.962 283.001 132.062C281.352 129.912 279.519 127.912 277.501 126.062C277.004 123.752 276.838 121.422 277.001 119.062C282.63 116.152 288.63 114.152 295.001 113.062C299.151 113.542 301.151 115.882 301.001 120.062Z" fill="#0A0705"/>
<path fill-rule="evenodd" clip-rule="evenodd" d="M277 119.062C276.837 121.422 277.003 123.752 277.5 126.062C279.518 127.912 281.351 129.912 283 132.062C277.598 139.962 270.765 146.302 262.5 151.062C261.656 154.572 262.99 156.902 266.5 158.062C270.323 155.582 274.156 153.082 278 150.562C281.33 146.402 284.996 142.562 289 139.062C296.217 141.212 303.55 142.882 311 144.062C316.171 143.202 317.171 140.702 314 136.562C307.771 135.502 301.771 133.842 296 131.562C299.449 128.502 301.116 124.662 301 120.062C312.486 122.052 321.653 127.722 328.5 137.062C329.972 142.642 328.805 147.472 325 151.562C318.461 154.182 312.127 157.182 306 160.562C294.972 164.462 283.639 165.792 272 164.562C258.183 162.092 252.35 153.932 254.5 140.062C259.16 129.992 266.66 122.992 277 119.062Z" fill="#B07A66"/>
<path fill-rule="evenodd" clip-rule="evenodd" d="M404.999 242.061C396.678 237.611 388.012 233.771 378.999 230.561C367.094 228.651 355.094 227.151 342.999 226.061C337.351 225.891 332.017 227.061 326.999 229.561C322.475 233.421 318.641 237.921 315.499 243.061C309.097 260.111 310.097 276.781 318.499 293.061C322.954 299.541 329.121 303.381 336.999 304.561C345.666 305.231 354.332 305.231 362.999 304.561C367.499 300.731 371.999 296.891 376.499 293.061C381.623 282.071 385.123 270.571 386.999 258.561C386.642 255.661 385.976 252.821 384.999 250.061C385.332 249.391 385.666 248.731 385.999 248.061C392.616 252.431 399.949 254.431 407.999 254.061C410.662 264.471 410.162 274.801 406.499 285.061C401.756 302.211 394.089 317.881 383.499 332.061C366.705 349.381 346.539 360.881 322.999 366.561C293.101 373.541 263.101 373.871 232.999 367.561C221.464 361.351 210.464 354.351 199.999 346.561C181.563 331.551 173.897 312.381 176.999 289.061C180.148 289.351 183.148 288.851 185.999 287.561C190.514 283.351 194.681 278.851 198.499 274.061C198.832 279.391 199.166 284.731 199.499 290.061C202.226 296.511 205.226 302.851 208.499 309.061C224.22 323.891 241.054 325.051 258.999 312.561C266.928 304.871 272.428 295.701 275.499 285.061C276.967 273.471 273.3 263.801 264.499 256.061C263.535 248.761 259.369 244.261 251.999 242.561C241.41 239.731 230.743 239.401 219.999 241.561C207.055 246.361 195.388 253.191 184.999 262.061C189.737 245.481 198.737 231.651 211.999 220.561C222.666 212.891 233.332 205.231 243.999 197.561C257.432 189.671 271.765 184.341 286.999 181.561C294.696 180.991 302.363 181.321 309.999 182.561C325.852 186.201 341.852 189.201 357.999 191.561C384.582 198.311 400.249 215.141 404.999 242.061Z" fill="#FDFDFC"/>
<path fill-rule="evenodd" clip-rule="evenodd" d="M405 242.061C410.591 243.151 412.758 246.491 411.5 252.061C410.684 253.381 409.517 254.051 408 254.061C399.95 254.431 392.617 252.431 386 248.061C385.667 248.731 385.333 249.391 385 250.061C385.977 252.821 386.643 255.661 387 258.561C385.124 270.571 381.624 282.071 376.5 293.061C372 296.891 367.5 300.731 363 304.561C354.333 305.231 345.667 305.231 337 304.561C329.122 303.381 322.955 299.541 318.5 293.061C310.098 276.781 309.098 260.111 315.5 243.061C318.642 237.921 322.476 233.421 327 229.561C332.018 227.061 337.352 225.891 343 226.061C355.095 227.151 367.095 228.651 379 230.561C388.013 233.771 396.679 237.611 405 242.061Z" fill="#040404"/>
<path fill-rule="evenodd" clip-rule="evenodd" d="M333 237.062C338.374 236.502 342.541 238.502 345.5 243.062C345.898 249.422 345.565 255.752 344.5 262.062C343 263.562 341.5 265.062 340 266.562C335.667 267.232 331.333 267.232 327 266.562C325.276 263.432 323.11 260.602 320.5 258.062C319.663 254.272 319.996 250.602 321.5 247.062C325.526 243.862 329.359 240.532 333 237.062Z" fill="#F5F5F5"/>
<path fill-rule="evenodd" clip-rule="evenodd" d="M177 289.062C174.994 285.362 174.494 281.362 175.5 277.062C178.496 271.912 181.662 266.912 185 262.062C195.389 253.192 207.056 246.362 220 241.562C230.744 239.402 241.411 239.732 252 242.562C259.37 244.262 263.536 248.762 264.5 256.062C273.301 263.802 276.968 273.472 275.5 285.062C272.429 295.702 266.929 304.872 259 312.562C241.055 325.052 224.221 323.892 208.5 309.062C205.227 302.852 202.227 296.512 199.5 290.062C199.167 284.732 198.833 279.392 198.5 274.062C194.682 278.852 190.515 283.352 186 287.562C183.149 288.852 180.149 289.352 177 289.062Z" fill="#040404"/>
<path fill-rule="evenodd" clip-rule="evenodd" d="M244 252.061C253.515 251.911 258.515 256.571 259 266.061C258.116 270.521 256.616 274.851 254.5 279.061C245.217 286.971 238.217 285.311 233.5 274.061C233.333 272.561 233.167 271.061 233 269.561C233.571 261.671 237.238 255.841 244 252.061Z" fill="#F5F5F5"/>
<path fill-rule="evenodd" clip-rule="evenodd" d="M319.999 313.062C324.407 312.432 327.407 314.092 328.999 318.062C326.525 326.202 322.192 333.032 315.999 338.562C312.332 339.232 308.666 339.232 304.999 338.562C300.12 336.492 295.12 334.822 289.999 333.562C286.014 330.182 286.014 326.852 289.999 323.562C292.999 322.892 295.999 322.892 298.999 323.562C303.063 326.282 307.396 327.122 311.999 326.062C314.426 321.532 317.093 317.202 319.999 313.062Z" fill="#0B0B0B"/>
</svg>
