<svg width="500" height="500" viewBox="0 0 500 500" fill="none" xmlns="http://www.w3.org/2000/svg">
<path fill-rule="evenodd" clip-rule="evenodd" d="M272 174.062C270.212 174.352 268.545 174.012 267 173.062C264.032 167.602 260.866 162.262 257.5 157.062C255.818 149.682 253.152 142.682 249.5 136.062C243.756 128.502 238.256 120.832 233 113.062C242.226 102.362 253.559 94.5318 267 89.5618C278.249 84.0318 290.082 80.5318 302.5 79.0618C309.95 79.2218 317.116 80.7218 324 83.5618C333 84.2318 342 84.2318 351 83.5618C361.001 80.6718 370.667 77.0118 380 72.5618C385.5 67.0618 391 61.5618 396.5 56.0618C396.454 44.1218 402.287 39.6218 414 42.5618C415.786 43.3418 417.286 44.5118 418.5 46.0618C422.564 56.2518 426.231 66.5918 429.5 77.0618C433.08 89.2318 429.414 98.5718 418.5 105.062C416.088 109.482 412.922 113.312 409 116.562C395.122 128.982 379.122 137.642 361 142.562C356.333 143.232 351.667 143.232 347 142.562C339.834 140.002 332.501 138.172 325 137.062C314.967 139.032 304.967 141.202 295 143.562C290.533 147.032 286.367 150.862 282.5 155.062C282.572 160.322 281.572 165.322 279.5 170.062C277.617 172.582 275.117 173.922 272 174.062Z" fill="#FBFCFC"/>
<path fill-rule="evenodd" clip-rule="evenodd" d="M402.001 73.0613C407.176 72.0713 409.01 74.0713 407.501 79.0613C405.576 80.4413 403.742 81.9413 402.001 83.5613C405.57 87.8613 408.237 92.7013 410.001 98.0613C408.284 102.021 405.618 102.851 402.001 100.561C398.14 97.0013 395.14 92.8313 393.001 88.0613C391.001 89.7313 389.001 91.3913 387.001 93.0613C386.919 95.8913 386.753 98.8913 386.501 102.061C385.866 103.531 385.032 104.861 384.001 106.061C387.309 107.721 390.643 109.391 394.001 111.061C395.204 113.991 394.204 115.991 391.001 117.061C386.566 115.011 381.899 113.851 377.001 113.561C375.144 112.381 374.144 110.711 374.001 108.561C375.382 105.501 377.215 102.661 379.501 100.061C379.643 96.2013 377.643 94.2013 373.501 94.0613C371.131 94.1613 369.298 95.1613 368.001 97.0613C371.069 104.601 373.736 112.271 376.001 120.061C375.994 123.571 374.328 125.071 371.001 124.561C367.294 117.981 363.46 111.481 359.501 105.061C357.622 101.691 357.622 98.3613 359.501 95.0613C365.735 86.5813 373.402 84.9113 382.501 90.0613C383.532 87.0213 385.366 84.5213 388.001 82.5613C393.253 80.1113 397.92 76.9513 402.001 73.0613Z" fill="#7DFFF7"/>
<path fill-rule="evenodd" clip-rule="evenodd" d="M233.001 113.062C238.257 120.832 243.757 128.502 249.501 136.062C253.153 142.682 255.819 149.682 257.501 157.062C260.867 162.262 264.033 167.602 267.001 173.062C268.546 174.012 270.213 174.352 272.001 174.062C270.892 174.852 269.559 175.352 268.001 175.562C274.674 195.072 282.841 213.902 292.501 232.062C303.559 244.452 316.393 254.622 331.001 262.562C342.085 272.642 352.918 283.142 363.501 294.062C367.463 299.612 369.629 305.782 370.001 312.562C371.648 329.492 367.481 344.652 357.501 358.062C348.887 366.452 339.054 372.952 328.001 377.562C307.413 382.382 286.746 386.882 266.001 391.062C262.846 391.552 259.846 392.222 257.001 393.062C232.233 395.102 207.566 397.932 183.001 401.562C181.076 407.102 180.409 412.932 181.001 419.062C180.012 413.582 179.679 407.922 180.001 402.062C175.001 402.062 170.001 402.062 165.001 402.062C165.001 404.062 165.001 406.062 165.001 408.062C164.033 405.952 163.699 403.622 164.001 401.062C137.088 400.032 111.754 393.202 88.0006 380.562C77.1936 370.782 70.6936 358.622 68.5006 344.062C67.6396 325.172 71.9726 307.502 81.5006 291.062C92.0746 278.242 102.408 265.242 112.501 252.062C118.013 242.372 123.013 232.372 127.501 222.062C137.305 194.652 146.305 166.982 154.501 139.062C158.493 129.762 162.493 120.432 166.501 111.062C175.627 98.9415 187.627 91.2715 202.501 88.0615C211.028 88.5815 216.694 92.9115 219.501 101.062C223.575 105.642 228.075 109.642 233.001 113.062Z" fill="#9D9D9D"/>
<path fill-rule="evenodd" clip-rule="evenodd" d="M344.001 94.0615C346.658 93.7215 348.991 94.3915 351.001 96.0615C355.047 105.321 358.381 114.821 361.001 124.561C359.238 129.541 356.738 130.041 353.501 126.061C352.657 122.351 351.657 118.681 350.501 115.061C348.738 116.501 346.738 117.501 344.501 118.061C344.211 120.511 343.545 122.851 342.501 125.061C340.834 126.391 339.168 126.391 337.501 125.061C336.664 122.721 335.33 120.721 333.501 119.061C333.052 116.471 334.052 114.471 336.501 113.061C335.843 105.251 338.343 98.9215 344.001 94.0615Z" fill="#83FFF7"/>
<path fill-rule="evenodd" clip-rule="evenodd" d="M314 98.062C319.011 97.892 324.011 98.062 329 98.562C331.86 102.282 330.86 104.782 326 106.062C325.435 113.042 325.269 120.042 325.5 127.062C323.388 129.482 321.388 129.482 319.5 127.062C318.503 120.092 318.003 113.092 318 106.062C313.889 106.082 309.889 106.752 306 108.062C303.125 106.432 302.458 104.102 304 101.062C307.397 99.842 310.73 98.842 314 98.062Z" fill="#7EFFF7"/>
<path fill-rule="evenodd" clip-rule="evenodd" d="M292.001 101.062C294.688 100.902 297.355 101.062 300.001 101.562C301.334 103.562 301.334 105.562 300.001 107.562C297.171 108.432 294.504 109.602 292.001 111.062C292.655 112.682 293.155 114.342 293.501 116.062C297.087 113.842 300.92 112.672 305.001 112.562C305.794 113.652 306.461 114.812 307.001 116.062C303.511 118.972 299.845 121.642 296.001 124.062C296.21 124.652 296.544 125.152 297.001 125.562C299.668 125.892 302.334 126.232 305.001 126.562C307.103 128.292 307.436 130.292 306.001 132.562C299.492 134.322 293.992 132.822 289.501 128.062C286.281 120.052 284.781 111.892 285.001 103.562C287.505 102.862 289.838 102.032 292.001 101.062Z" fill="#7DFFF7"/>
<path fill-rule="evenodd" clip-rule="evenodd" d="M263.001 109.062C269.232 107.922 273.399 110.252 275.501 116.062C275.834 119.392 276.168 122.732 276.501 126.062C280.464 127.162 284.298 128.662 288.001 130.562C290.819 133.462 290.485 135.962 287.001 138.062C281.738 134.752 276.072 133.252 270.001 133.562C272.52 137.412 273.686 141.572 273.501 146.062C272.762 147.132 271.762 147.802 270.501 148.062C264.021 141.132 259.021 133.132 255.501 124.062C254.309 117.112 256.809 112.112 263.001 109.062Z" fill="#7DFFF7"/>
<path fill-rule="evenodd" clip-rule="evenodd" d="M264 117.062C268.713 117.032 270.213 119.362 268.5 124.062C268.086 124.522 267.586 124.852 267 125.062C265.667 123.062 264.333 121.062 263 119.062C263.363 118.382 263.696 117.712 264 117.062Z" fill="#F2FFFE"/>
<path fill-rule="evenodd" clip-rule="evenodd" d="M298 291.062C291.456 288.042 284.789 285.202 278 282.562C271.888 282.192 265.888 281.192 260 279.562C242.388 275.202 231.221 281.702 226.5 299.062C222.211 329.102 235.044 342.272 265 338.562C268.833 334.732 272.667 330.892 276.5 327.062C278.5 321.062 280.5 315.062 282.5 309.062C283.274 304.752 282.774 300.582 281 296.562C281.333 296.062 281.667 295.562 282 295.062C287.833 298.992 294.166 300.322 301 299.062C302.293 300.402 303.126 302.072 303.5 304.062C304.348 312.482 303.848 320.812 302 329.062C305.303 341.332 301.636 350.832 291 357.562C282.939 362.582 274.272 366.252 265 368.562C238.074 373.852 210.907 377.352 183.5 379.062C167.997 379.312 153.831 375.142 141 366.562C135.549 361.162 132.049 354.662 130.5 347.062C129.078 340.122 128.245 333.122 128 326.062C129.422 325.852 130.755 325.352 132 324.562C134.463 321.102 137.296 317.932 140.5 315.062C140.095 318.682 140.095 322.352 140.5 326.062C142.56 331.182 144.893 336.182 147.5 341.062C159.805 353.492 172.972 354.332 187 343.562C192.233 337.932 196.066 331.432 198.5 324.062C199.8 315.322 197.133 307.992 190.5 302.062C189.383 295.612 185.549 291.782 179 290.562C167.809 287.732 157.142 289.062 147 294.562C141.514 297.892 136.18 301.392 131 305.062C135.935 292.522 142.435 280.862 150.5 270.062C157.234 264.342 164.734 259.842 173 256.562C189.966 250.112 207.466 245.942 225.5 244.062C231.036 244.632 236.536 245.472 242 246.562C254.626 252.542 267.292 258.542 280 264.562C282.795 266.352 285.295 268.522 287.5 271.062C291.106 277.742 294.606 284.412 298 291.062Z" fill="#FCFCFC"/>
<path fill-rule="evenodd" clip-rule="evenodd" d="M297.999 291.062C301.742 292.702 302.742 295.372 300.999 299.062C294.165 300.322 287.832 298.992 281.999 295.062C281.666 295.562 281.332 296.062 280.999 296.562C282.773 300.582 283.273 304.752 282.499 309.062C280.499 315.062 278.499 321.062 276.499 327.062C272.666 330.892 268.832 334.732 264.999 338.562C235.043 342.272 222.21 329.102 226.499 299.062C231.22 281.702 242.387 275.202 259.999 279.562C265.887 281.192 271.887 282.192 277.999 282.562C284.788 285.202 291.455 288.042 297.999 291.062Z" fill="#040404"/>
<path fill-rule="evenodd" clip-rule="evenodd" d="M242.001 287.062C246.389 286.502 249.556 288.172 251.501 292.062C251.833 296.752 251.499 301.422 250.501 306.062C247.193 309.892 243.027 311.052 238.001 309.562C236.168 307.062 234.334 304.562 232.501 302.062C231.776 299.182 232.276 296.522 234.001 294.062C236.713 291.682 239.379 289.342 242.001 287.062Z" fill="#F5F5F5"/>
<path fill-rule="evenodd" clip-rule="evenodd" d="M128.001 326.062C126.334 326.062 124.668 326.062 123.001 326.062C122.836 322.712 123.003 319.382 123.501 316.062C126.011 312.362 128.511 308.702 131.001 305.062C136.181 301.392 141.515 297.892 147.001 294.562C157.143 289.062 167.81 287.732 179.001 290.562C185.55 291.782 189.384 295.612 190.501 302.062C197.134 307.992 199.801 315.322 198.501 324.062C196.067 331.432 192.234 337.932 187.001 343.562C172.973 354.332 159.806 353.492 147.501 341.062C144.894 336.182 142.561 331.182 140.501 326.062C140.096 322.352 140.096 318.682 140.501 315.062C137.297 317.932 134.464 321.102 132.001 324.562C130.756 325.352 129.423 325.852 128.001 326.062Z" fill="#050505"/>
<path fill-rule="evenodd" clip-rule="evenodd" d="M175 298.062C181.658 298.722 185.325 302.392 186 309.062C185.758 317.802 181.425 322.302 173 322.562C163.51 313.642 164.177 305.482 175 298.062Z" fill="#F4F4F4"/>
<path fill-rule="evenodd" clip-rule="evenodd" d="M232.001 345.062C235.699 344.242 238.032 345.572 239.001 349.062C236.893 354.442 233.893 359.282 230.001 363.562C226.668 364.232 223.334 364.232 220.001 363.562C216.853 361.962 213.52 360.962 210.001 360.562C206.569 358.192 206.236 355.532 209.001 352.562C214.788 352.612 220.455 353.282 226.001 354.562C228.137 351.452 230.137 348.282 232.001 345.062Z" fill="#0B0B0B"/>
<path fill-rule="evenodd" clip-rule="evenodd" d="M266 391.062C266.232 403.812 267.232 416.482 269 429.062C276.628 427.352 283.962 428.192 291 431.562C295.378 434.622 296.045 438.292 293 442.562C284.311 447.512 274.978 450.352 265 451.062C256.817 450.932 254.817 447.262 259 440.062C257.458 437.682 256.791 435.012 257 432.062C257.419 419.082 257.419 406.082 257 393.062C259.845 392.222 262.845 391.552 266 391.062Z" fill="#F9F9F9"/>
<path fill-rule="evenodd" clip-rule="evenodd" d="M181 419.062C181.626 427.082 182.126 435.082 182.5 443.062C180.508 448.202 178.675 453.372 177 458.562C174.172 459.532 171.838 458.862 170 456.562C162.05 455.322 154.384 453.322 147 450.562C143.522 447.852 143.189 444.852 146 441.562C151.941 440.442 157.941 439.612 164 439.062C164.999 428.752 165.332 418.412 165 408.062C165 406.062 165 404.062 165 402.062C170 402.062 175 402.062 180 402.062C179.678 407.922 180.011 413.582 181 419.062Z" fill="#F9F9F9"/>
</svg>
