<svg width="500" height="500" viewBox="0 0 500 500" fill="none" xmlns="http://www.w3.org/2000/svg">
<path d="M279.999 33.561C292.679 28.1711 304.679 29.5113 315.999 37.561C322.629 43.3509 328.299 49.8512 332.999 57.061C339.209 50.351 344.869 43.181 349.999 35.561C352.329 34.8911 354.669 34.8912 356.999 35.561C359.499 37.8909 362.159 40.0511 364.999 42.061C366.039 44.331 366.209 46.6611 365.499 49.061C364.169 51.061 362.829 53.061 361.499 55.061L337.499 79.061C337.649 85.381 336.479 91.3811 333.999 97.061C327.469 93.7713 321.629 94.7711 316.499 100.061C315.039 99.751 313.869 99.0909 312.999 98.061C317.329 92.541 316.989 87.371 311.999 82.561C302.739 80.4611 293.409 78.801 283.999 77.561C276.789 70.6011 272.629 62.1009 271.499 52.061C269.859 43.8313 272.699 37.671 279.999 33.561ZM312 66.062C307.52 54.832 299.52 50.492 288 53.062C292.24 58.792 297.57 63.292 304 66.562C306.73 67.382 309.39 67.2119 312 66.062Z" fill="#4EB052"/>
<path fill-rule="evenodd" clip-rule="evenodd" d="M313 98.0615C313.87 99.0915 315.04 99.7515 316.5 100.062C321.63 94.7715 327.47 93.7715 334 97.0615C332.18 100.362 330.68 103.692 329.5 107.062C336.17 111.212 343.01 115.212 350 119.062C354.07 137.842 353.41 156.502 348 175.062C349.92 178.222 352.59 180.722 356 182.562C363.91 189.602 368.41 198.432 369.5 209.062C369.83 228.402 369.5 247.732 368.5 267.062C367.42 274.812 365.92 282.472 364 290.062C364.04 290.982 364.38 291.642 365 292.062C360.48 294.912 355.98 297.912 351.5 301.062C351.55 305.532 352.55 309.872 354.5 314.062C355.49 314.632 356.33 315.292 357 316.062C356 316.032 355.34 316.532 355 317.562C351.93 326.992 349.1 336.492 346.5 346.062C346 353.052 345.83 360.052 346 367.062C339.26 373.792 331.26 378.462 322 381.062C319.72 378.322 318.38 375.162 318 371.562C318.73 362.742 319.23 353.912 319.5 345.062C321.7 335.962 324.2 326.962 327 318.062C326.88 317.452 326.54 317.122 326 317.062C346.09 297.362 351.76 274.032 343 247.062C343.17 234.392 343 221.722 342.5 209.062C342.17 208.062 341.83 207.062 341.5 206.062C336.83 202.062 332.17 198.062 327.5 194.062C321.94 186.952 319.94 178.952 321.5 170.062C325.61 157.032 326.94 143.702 325.5 130.062C324.28 125.942 322.28 122.282 319.5 119.062C311.62 123.762 303.78 128.592 296 133.562C288 141.412 280.83 149.912 274.5 159.062C273.75 160.202 273.92 161.202 275 162.062C292.84 169.902 296.51 181.902 286 198.062C280.54 196.072 274.87 194.902 269 194.562C260.49 194.392 252.16 193.892 244 193.062C248.68 193.232 253.35 193.062 258 192.562C259.53 190.532 260.86 188.362 262 186.062C259.37 183.742 256.37 181.912 253 180.562C243.39 172.652 241.56 163.152 247.5 152.062C256.08 137.072 266.92 123.902 280 112.562C274.77 109.282 269.1 107.112 263 106.062C249.48 108.492 237.14 113.662 226 121.562C227.2 122.462 228.03 123.632 228.5 125.062C229.17 129.062 229.17 133.062 228.5 137.062C226.92 141.232 224.58 144.902 221.5 148.062C212.46 157.432 203.8 167.102 195.5 177.062C193.5 179.392 193.5 181.732 195.5 184.062C196 187.712 196.17 191.382 196 195.062C183.86 198.962 173.52 205.632 165 215.062C165.44 207.552 166.77 200.212 169 193.062C169.03 190.132 168.2 187.462 166.5 185.062C165.83 181.392 165.83 177.732 166.5 174.062C169.25 168.892 172.25 163.892 175.5 159.062C183.01 150.692 190.51 142.352 198 134.062C190.2 122.072 192.2 111.902 204 103.562C209.57 100.282 214.9 96.7815 220 93.0615C225.92 90.3315 232.26 89.0015 239 89.0615C249.9 90.9315 260.9 92.0915 272 92.5615C285.5 96.4115 299.16 98.2415 313 98.0615Z" fill="#3C8B3F"/>
<path fill-rule="evenodd" clip-rule="evenodd" d="M220 93.0615C214.9 96.7815 209.57 100.282 204 103.562C192.2 111.902 190.2 122.072 198 134.062C190.51 142.352 183.01 150.692 175.5 159.062C172.25 163.892 169.25 168.892 166.5 174.062C165.83 177.732 165.83 181.392 166.5 185.062C168.2 187.462 169.03 190.132 169 193.062C166.77 200.212 165.44 207.552 165 215.062C153.98 226.762 146.31 240.422 142 256.062C137.38 260.042 135.88 265.042 137.5 271.062C138.21 271.942 139.04 272.612 140 273.062C141.4 285.262 145.73 296.262 153 306.062C153.74 322.262 156.91 337.922 162.5 353.062C163.95 357.962 164.78 362.962 165 368.062C157 362.722 149.34 356.892 142 350.562C136.06 344.522 131.23 337.682 127.5 330.062C123.13 319.122 119.3 308.122 116 297.062C114.27 291.382 112.44 285.712 110.5 280.062C110 276.052 109.5 272.052 109 268.062C109.59 255.732 110.09 243.402 110.5 231.062C113.15 220.222 114.82 209.222 115.5 198.062C119.23 183.542 124.89 169.872 132.5 157.062C138.59 146.642 146.42 137.802 156 130.562C168.61 122.282 180.94 113.622 193 104.562C201.79 100.162 210.79 96.3315 220 93.0615Z" fill="#4DAF51"/>
<path fill-rule="evenodd" clip-rule="evenodd" d="M244 193.062C231.67 192.212 219.34 192.052 207 192.562C203.28 193.242 199.61 194.072 196 195.062C196.17 191.382 196 187.712 195.5 184.062C193.5 181.732 193.5 179.392 195.5 177.062C203.8 167.102 212.46 157.432 221.5 148.062C224.58 144.902 226.92 141.232 228.5 137.062C229.17 133.062 229.17 129.062 228.5 125.062C228.03 123.632 227.2 122.462 226 121.562C237.14 113.662 249.48 108.492 263 106.062C269.1 107.112 274.77 109.282 280 112.562C266.92 123.902 256.08 137.072 247.5 152.062C241.56 163.152 243.39 172.652 253 180.562C256.37 181.912 259.37 183.742 262 186.062C260.86 188.362 259.53 190.532 258 192.562C253.35 193.062 248.68 193.232 244 193.062Z" fill="#4CAE50"/>
<path fill-rule="evenodd" clip-rule="evenodd" d="M343 247.062C334.02 229.322 321.02 215.152 304 204.562C298.17 201.892 292.17 199.732 286 198.062C296.51 181.902 292.84 169.902 275 162.062C273.92 161.202 273.75 160.202 274.5 159.062C280.83 149.912 288 141.412 296 133.562C303.78 128.592 311.62 123.762 319.5 119.062C322.28 122.282 324.28 125.942 325.5 130.062C326.94 143.702 325.61 157.032 321.5 170.062C319.94 178.952 321.94 186.952 327.5 194.062C332.17 198.062 336.83 202.062 341.5 206.062C341.83 207.062 342.17 208.062 342.5 209.062C343 221.722 343.17 234.392 343 247.062Z" fill="#4CAE50"/>
<path fill-rule="evenodd" clip-rule="evenodd" d="M350 119.062C358.11 124.212 365.61 130.212 372.5 137.062C380.25 147.552 387.25 158.552 393.5 170.062C395.94 175.492 397.61 181.162 398.5 187.062C400.58 202.672 401.74 218.332 402 234.062C397.77 232.332 393.94 229.992 390.5 227.062C387.33 227.562 385.5 229.392 385 232.562C385.97 237.122 387.97 241.122 391 244.562C395.11 246.952 399.45 248.782 404 250.062C401.83 253.062 399.67 256.062 397.5 259.062C385.77 269.292 374.93 280.292 365 292.062C364.38 291.642 364.04 290.982 364 290.062C365.92 282.472 367.42 274.812 368.5 267.062C369.5 247.732 369.83 228.402 369.5 209.062C368.41 198.432 363.91 189.602 356 182.562C352.59 180.722 349.92 178.222 348 175.062C353.41 156.502 354.07 137.842 350 119.062Z" fill="#4DAE50"/>
<path fill-rule="evenodd" clip-rule="evenodd" d="M244 193.062C252.16 193.892 260.49 194.392 269 194.562C274.87 194.902 280.54 196.072 286 198.062C292.17 199.732 298.17 201.892 304 204.562C321.02 215.152 334.02 229.322 343 247.062C351.76 274.032 346.09 297.362 326 317.062C311.27 328.422 294.6 335.422 276 338.062C266.69 338.882 257.36 339.212 248 339.062C233.63 339.412 219.3 338.912 205 337.562C197.17 336.482 189.84 333.982 183 330.062C170.93 324.662 160.93 316.662 153 306.062C145.73 296.262 141.4 285.262 140 273.062C142.92 273.102 145.59 272.272 148 270.562C151.18 267.212 154.52 264.042 158 261.062C158.33 261.392 158.67 261.732 159 262.062C155.47 280.692 162.13 294.522 179 303.562C194.66 306.572 207.16 301.732 216.5 289.062C218.58 284.572 220.91 280.232 223.5 276.062C225.24 266.882 222.91 258.882 216.5 252.062C215.42 242.982 210.25 237.812 201 236.562C177.68 232.392 158.01 238.892 142 256.062C146.31 240.422 153.98 226.762 165 215.062C173.52 205.632 183.86 198.962 196 195.062C199.61 194.072 203.28 193.242 207 192.562C219.34 192.052 231.67 192.212 244 193.062Z" fill="#FCFDFC"/>
<path fill-rule="evenodd" clip-rule="evenodd" d="M109.001 268.062C109.501 272.052 110.001 276.052 110.501 280.062C112.441 285.712 114.271 291.382 116.001 297.062C114.211 298.182 112.211 298.352 110.001 297.562C93.4608 281.482 83.4608 261.982 80.0008 239.062C75.9908 239.232 71.9908 239.062 68.0008 238.562C65.3008 234.572 65.6308 230.742 69.0008 227.062C78.1708 227.392 86.8408 225.222 95.0008 220.562C101.551 220.112 104.221 223.112 103.001 229.562C100.481 231.992 97.4808 233.662 94.0008 234.562C93.4808 235.122 93.1408 235.792 93.0008 236.562C96.9108 247.892 102.251 258.392 109.001 268.062Z" fill="#050505"/>
<path fill-rule="evenodd" clip-rule="evenodd" d="M402 234.062C404.33 235.892 406.99 237.222 410 238.062C415.87 234.962 421.54 231.632 427 228.062C433.51 230.762 434.68 235.092 430.5 241.062C425.86 245.222 420.86 248.882 415.5 252.062C413.74 257.662 411.41 263.002 408.5 268.062C404.48 273.572 400.31 278.912 396 284.062C389.8 291.252 383.47 298.412 377 305.562C371.16 310.672 364.5 314.172 357 316.062C356.33 315.292 355.49 314.632 354.5 314.062C352.55 309.872 351.55 305.532 351.5 301.062C355.98 297.912 360.48 294.912 365 292.062C374.93 280.292 385.77 269.292 397.5 259.062C399.67 256.062 401.83 253.062 404 250.062C399.45 248.782 395.11 246.952 391 244.562C387.97 241.122 385.97 237.122 385 232.562C385.5 229.392 387.33 227.562 390.5 227.062C393.94 229.992 397.77 232.332 402 234.062Z" fill="#030503"/>
<path fill-rule="evenodd" clip-rule="evenodd" d="M275 231.061C279.68 230.891 284.35 231.061 289 231.561C300.09 234.271 311.09 237.271 322 240.561C328.14 245.361 334.81 249.361 342 252.561C344.22 257.171 342.89 260.001 338 261.061C331.72 260.251 326.06 257.921 321 254.061C321.37 259.071 320.87 264.071 319.5 269.061C317.03 275.471 314.36 281.811 311.5 288.061C306.43 293.501 300.6 297.831 294 301.061C264.94 301.841 252.11 287.841 255.5 259.061C256.85 252.691 259.18 246.691 262.5 241.061C266.83 237.831 270.99 234.491 275 231.061Z" fill="#050505"/>
<path fill-rule="evenodd" clip-rule="evenodd" d="M140 273.061C139.04 272.611 138.21 271.941 137.5 271.061C135.88 265.041 137.38 260.041 142 256.061C158.01 238.891 177.68 232.391 201 236.561C210.25 237.811 215.42 242.981 216.5 252.061C222.91 258.881 225.24 266.881 223.5 276.061C220.91 280.231 218.58 284.571 216.5 289.061C207.16 301.731 194.66 306.571 179 303.561C162.13 294.521 155.47 280.691 159 262.061C158.67 261.731 158.33 261.391 158 261.061C154.52 264.041 151.18 267.211 148 270.561C145.59 272.271 142.92 273.101 140 273.061Z" fill="#050505"/>
<path fill-rule="evenodd" clip-rule="evenodd" d="M276 240.062C280.12 240.042 283.29 241.702 285.5 245.062C285.91 250.752 285.57 256.422 284.5 262.062C280.41 265.862 275.58 267.032 270 265.562C266.68 262.392 264.35 258.562 263 254.062C263.55 251.952 264.39 249.952 265.5 248.062C269.16 245.492 272.66 242.832 276 240.062Z" fill="#F4F4F4"/>
<path fill-rule="evenodd" clip-rule="evenodd" d="M198 246.062C205.68 246.072 209.68 249.902 210 257.562C209.84 265.952 205.84 271.452 198 274.062C191.86 272.092 188.52 267.922 188 261.562C188.69 254.582 192.03 249.422 198 246.062Z" fill="#F6F6F6"/>
<path fill-rule="evenodd" clip-rule="evenodd" d="M395.999 284.062C389.589 308.872 378.429 331.202 362.499 351.062C357.789 357.272 352.289 362.602 345.999 367.062C345.829 360.052 345.999 353.052 346.499 346.062C349.099 336.492 351.929 326.992 354.999 317.562C355.339 316.532 355.999 316.032 356.999 316.062C364.499 314.172 371.159 310.672 376.999 305.562C383.469 298.412 389.799 291.252 395.999 284.062Z" fill="#4DAE50"/>
<path fill-rule="evenodd" clip-rule="evenodd" d="M259 304.062C264.49 303.522 266.65 305.852 265.5 311.062C262.74 317.152 258.57 321.982 253 325.562C249.77 325.802 246.6 325.302 243.5 324.062C239.11 322.032 234.78 320.032 230.5 318.062C229.18 311.052 232.01 308.552 239 310.562C242.75 313.122 246.75 314.462 251 314.562C253.55 310.942 256.22 307.442 259 304.062Z" fill="#0C0C0C"/>
<path fill-rule="evenodd" clip-rule="evenodd" d="M153 306.062C160.93 316.662 170.93 324.662 183 330.062C186.45 340.862 189.12 351.862 191 363.062C191.09 370.642 187.43 375.302 180 377.062C174.49 374.812 169.49 371.812 165 368.062C164.78 362.962 163.95 357.962 162.5 353.062C156.91 337.922 153.74 322.262 153 306.062Z" fill="#3D8B40"/>
<path fill-rule="evenodd" clip-rule="evenodd" d="M326 317.062C326.54 317.122 326.88 317.452 327 318.062C324.2 326.962 321.7 335.962 319.5 345.062C319.23 353.912 318.73 362.742 318 371.562C318.38 375.162 319.72 378.322 322 381.062C319.86 382.212 317.86 383.552 316 385.062C310.96 385.412 306.29 386.742 302 389.062C282.52 395.362 262.52 398.692 242 399.062C236.22 399.162 230.56 398.492 225 397.062C218.43 395.872 212.09 393.872 206 391.062C199.48 387.822 192.81 384.652 186 381.562C183.75 380.282 181.75 378.782 180 377.062C187.43 375.302 191.09 370.642 191 363.062C189.12 351.862 186.45 340.862 183 330.062C189.84 333.982 197.17 336.482 205 337.562C219.3 338.912 233.63 339.412 248 339.062C249.88 343.542 250.38 348.212 249.5 353.062C247.79 358.822 245.79 364.492 243.5 370.062C241.89 380.152 246.06 385.822 256 387.062C261.59 387.192 265.75 384.852 268.5 380.062C270.65 373.792 272.65 367.452 274.5 361.062C275.71 353.442 276.21 345.772 276 338.062C294.6 335.422 311.27 328.422 326 317.062Z" fill="#4CAE50"/>
<path fill-rule="evenodd" clip-rule="evenodd" d="M276 338.062C276.21 345.772 275.71 353.442 274.5 361.062C272.65 367.452 270.65 373.792 268.5 380.062C265.75 384.852 261.59 387.192 256 387.062C246.06 385.822 241.89 380.152 243.5 370.062C245.79 364.492 247.79 358.822 249.5 353.062C250.38 348.212 249.88 343.542 248 339.062C257.36 339.212 266.69 338.882 276 338.062Z" fill="#3C8B3F"/>
<path fill-rule="evenodd" clip-rule="evenodd" d="M315.999 385.062C319.339 402.252 321.839 419.582 323.499 437.062C326.489 444.242 326.659 451.412 323.999 458.562C319.669 458.402 316.339 460.072 313.999 463.562C306.259 466.362 298.599 466.362 290.999 463.562C283.739 456.522 284.739 450.852 293.999 446.562C299.659 446.062 305.319 445.892 310.999 446.062C308.169 430.392 305.329 414.722 302.499 399.062C301.999 395.742 301.829 392.412 301.999 389.062C306.289 386.742 310.959 385.412 315.999 385.062Z" fill="#060606"/>
<path fill-rule="evenodd" clip-rule="evenodd" d="M205.999 391.062C212.089 393.872 218.429 395.872 224.999 397.062C225.599 404.562 226.259 412.062 226.999 419.562C226.759 421.582 226.429 423.582 225.999 425.562C227.169 436.702 227.669 447.872 227.499 459.062C226.379 461.812 224.879 464.312 222.999 466.562C215.629 469.782 207.969 470.782 199.999 469.562C192.069 465.912 191.069 460.912 196.999 454.562C202.569 451.312 208.569 449.812 214.999 450.062C212.799 430.262 209.799 410.592 205.999 391.062Z" fill="#050505"/>
</svg>
