<svg width="500" height="500" viewBox="0 0 500 500" fill="none" xmlns="http://www.w3.org/2000/svg">
<path d="M273 18.0615C296.69 14.1215 315.86 21.4515 330.5 40.0615C335.25 50.1515 341.58 59.1516 349.5 67.0615C357.34 76.4115 362.18 87.0816 364 99.0615C361.4 119.091 358.57 139.092 355.5 159.062C352.73 183.361 352.4 207.702 354.5 232.062C356.72 247.681 358.56 263.352 360 279.062C367.47 281.372 375.13 282.532 383 282.562C401.37 289.832 404.87 301.662 393.5 318.062C390.67 321.731 387.83 325.392 385 329.062C390.64 331.882 395.97 335.212 401 339.062C402.76 340.752 403.26 342.752 402.5 345.062C393.69 351.981 385.19 351.641 377 344.062C380.43 360.261 375.77 373.762 363 384.562C349.34 393.732 335.34 402.392 321 410.562C317.19 412.332 313.19 413.172 309 413.062C309.72 430.051 312.39 446.712 317 463.062C324.45 459.782 332.12 459.282 340 461.562C345.09 465.122 346.09 469.452 343 474.562C335.14 476.862 327.14 477.862 319 477.562C314.43 475.972 310.1 473.972 306 471.562C303.49 467.392 301.66 462.891 300.5 458.062C296.55 444.572 293.38 430.911 291 417.062C270.56 420.032 250.23 419.702 230 416.062C229.63 433.251 229.63 450.412 230 467.562C229.98 470.941 229.15 474.112 227.5 477.062C224.67 478.431 222 478.101 219.5 476.062C216.63 479.021 213.13 480.862 209 481.562C203.7 482.712 198.37 483.042 193 482.562C187.07 481.322 184.23 477.821 184.5 472.062C186.67 468.552 189.84 466.382 194 465.562C200.63 464.402 207.29 463.562 214 463.062C214.17 450.062 214 437.061 213.5 424.062C212.97 419.322 212.14 414.651 211 410.062C200.8 406.722 190.47 403.882 180 401.562C175.15 395.142 169.15 390.142 162 386.562C159.61 383.832 157.61 380.831 156 377.562C152.53 377.242 149.69 375.741 147.5 373.062C145.83 369.362 144.16 365.691 142.5 362.062C138.75 365.191 134.58 367.692 130 369.562C125.95 370.122 122.78 368.621 120.5 365.062C120.14 361.702 121.31 358.872 124 356.562C127.84 354.142 131.51 351.471 135 348.562C125.9 345.182 116.9 341.512 108 337.562C103.35 334.752 100.01 330.921 98 326.062C101.23 318.642 105.9 312.142 112 306.562C118.51 303.142 125.18 299.972 132 297.062C132.54 293.772 133.71 290.771 135.5 288.062C135.08 261.322 133.41 234.661 130.5 208.062C129.83 198.732 129.83 189.391 130.5 180.062C134.27 157.462 137.6 134.801 140.5 112.062C142 98.7116 148.34 88.3815 159.5 81.0615C160.57 71.7616 165.07 64.5915 173 59.5615C182.27 54.0915 191.94 49.4315 202 45.5615C209.48 40.1015 217.48 35.4315 226 31.5615C241.48 25.9415 257.15 21.4415 273 18.0615ZM137 313.062C128.8 316.502 121.14 321.002 114 326.562C122.1 331.212 130.77 334.372 140 336.062C139.38 328.212 138.38 320.552 137 313.062ZM365 295.062C367.04 304.892 369.54 314.562 372.5 324.062C379.67 316.392 384.17 307.392 386 297.062C378.99 296.462 371.99 295.792 365 295.062Z" fill="#020201"/>
<path fill-rule="evenodd" clip-rule="evenodd" d="M274 53.0618C271.58 57.7118 269.91 62.7118 269 68.0618C267.95 71.2918 267.29 74.6218 267 78.0618C263.75 89.8318 261.58 101.832 260.5 114.062C260.05 117.642 258.55 120.642 256 123.062C245.83 127.802 239.49 124.802 237 114.062C237.2 100.752 239.2 87.7518 243 75.0618C244.2 67.9418 245.86 60.9418 248 54.0618C251.41 42.0818 257.74 31.9218 267 23.5618C277.05 20.1118 283.05 23.6118 285 34.0618C284.74 36.5918 283.9 38.9218 282.5 41.0618C279.06 44.6618 276.23 48.6618 274 53.0618Z" fill="#FD5722"/>
<path fill-rule="evenodd" clip-rule="evenodd" d="M322 45.061C319.16 45.731 316.66 47.071 314.5 49.061C310.84 56.691 307.17 64.361 303.5 72.061C298.36 78.691 293.86 85.691 290 93.061C282.62 100.481 278.46 109.481 277.5 120.061C276.46 120.931 275.62 121.931 275 123.061C268.64 127.001 262.3 127.001 256 123.061C258.55 120.641 260.05 117.641 260.5 114.061C261.58 101.831 263.75 89.831 267 78.061C269.68 75.371 272.02 72.371 274 69.061C277.81 64.911 280.81 60.251 283 55.061C287.06 49.971 290.89 44.641 294.5 39.061C297.75 35.141 301.58 31.971 306 29.561C318.53 27.591 323.86 32.761 322 45.061Z" fill="#FDE93B"/>
<path fill-rule="evenodd" clip-rule="evenodd" d="M322 45.0615C332.48 45.9915 336.64 51.6615 334.5 62.0615C332.64 71.9415 330.14 81.6015 327 91.0615C325.06 95.4415 322.73 99.6115 320 103.562C316.9 106.032 313.4 107.532 309.5 108.062C305.78 113.172 303.45 118.832 302.5 125.062C298.93 130.922 293.77 133.092 287 131.562C282.9 129.642 280.57 126.472 280 122.062C279.69 117.192 280.53 112.522 282.5 108.062C285.03 103.012 287.53 98.0115 290 93.0615C293.86 85.6915 298.36 78.6915 303.5 72.0615C307.17 64.3615 310.84 56.6915 314.5 49.0615C316.66 47.0715 319.16 45.7315 322 45.0615Z" fill="#4DAF50"/>
<path fill-rule="evenodd" clip-rule="evenodd" d="M274 53.0615C277.23 53.2415 280.23 53.9015 283 55.0615C280.81 60.2515 277.81 64.9115 274 69.0615C272.28 68.9315 270.62 68.6015 269 68.0615C269.91 62.7115 271.58 57.7115 274 53.0615Z" fill="#FCF9F5"/>
<path fill-rule="evenodd" clip-rule="evenodd" d="M248.001 54.0615C245.861 60.9415 244.201 67.9415 243.001 75.0615C233.801 79.4315 228.131 86.6015 226.001 96.5615C226.761 104.262 230.431 110.092 237.001 114.062C239.491 124.802 245.831 127.802 256.001 123.062C262.301 127.002 268.641 127.002 275.001 123.062C276.621 122.522 278.281 122.192 280.001 122.062C280.571 126.472 282.901 129.642 287.001 131.562C293.771 133.092 298.931 130.922 302.501 125.062C303.451 118.832 305.781 113.172 309.501 108.062C313.401 107.532 316.901 106.032 320.001 103.562C322.731 99.6115 325.061 95.4415 327.001 91.0615C334.491 109.932 330.491 126.102 315.001 139.562C310.821 142.652 306.151 144.652 301.001 145.562C290.001 146.232 279.001 146.232 268.001 145.562C253.551 142.962 239.221 139.962 225.001 136.562C209.361 125.922 196.861 112.422 187.501 96.0615C186.831 94.7315 186.831 93.3915 187.501 92.0615C193.991 84.6115 200.821 77.4415 208.001 70.5615C213.241 67.5015 218.911 65.8315 225.001 65.5615C231.851 60.1315 239.521 56.3015 248.001 54.0615Z" fill="#FCFCFB"/>
<path fill-rule="evenodd" clip-rule="evenodd" d="M269 68.0615C270.62 68.6015 272.28 68.9315 274 69.0615C272.02 72.3715 269.68 75.3715 267 78.0615C267.29 74.6215 267.95 71.2915 269 68.0615Z" fill="#B57D65"/>
<path fill-rule="evenodd" clip-rule="evenodd" d="M243 75.0615C239.2 87.7515 237.2 100.752 237 114.062C230.43 110.092 226.76 104.262 226 96.5615C228.13 86.6015 233.8 79.4315 243 75.0615Z" fill="#B37B68"/>
<path fill-rule="evenodd" clip-rule="evenodd" d="M290 93.0615C287.53 98.0115 285.03 103.012 282.5 108.062C280.53 112.522 279.69 117.192 280 122.062C278.28 122.192 276.62 122.522 275 123.062C275.62 121.932 276.46 120.932 277.5 120.062C278.46 109.482 282.62 100.482 290 93.0615Z" fill="#AE8165"/>
<path fill-rule="evenodd" clip-rule="evenodd" d="M247 242.061C253.71 242.011 260.37 242.511 267 243.561C276.32 246.551 285.66 249.551 295 252.561C299.99 254.721 304.66 257.391 309 260.561C315.53 267.431 322.36 273.931 329.5 280.061C331.59 283.231 333.42 286.571 335 290.061C334.67 290.391 334.33 290.731 334 291.061C329.46 288.031 324.8 285.191 320 282.561C312.28 280.771 304.62 278.771 297 276.561C283.63 275.181 274.8 281.011 270.5 294.061C269.83 300.391 269.83 306.731 270.5 313.061C271.99 322.551 277.49 328.051 287 329.561C292.31 330.561 297.65 330.891 303 330.561C306.59 327.851 310.09 325.011 313.5 322.061C316.89 315.281 319.73 308.281 322 301.061C320.96 298.791 320.79 296.461 321.5 294.061C323.08 295.601 324.91 296.771 327 297.561C329.99 297.891 332.82 298.721 335.5 300.061C336.27 299.921 336.94 299.581 337.5 299.061C345.39 319.681 340.89 336.851 324 350.561C308.36 361.441 291.02 367.781 272 369.561C262.99 369.961 253.99 370.461 245 371.061C233.39 369.101 221.73 367.601 210 366.561C201.05 363.841 193.55 359.011 187.5 352.061C184.86 348.491 183.2 344.491 182.5 340.061C181.45 329.711 181.28 319.381 182 309.061C185.94 306.621 189.44 303.621 192.5 300.061C191.12 312.151 194.96 322.311 204 330.561C222.28 337.681 235.45 332.181 243.5 314.061C245.5 309.391 245.5 304.731 243.5 300.061C241.01 295.921 239.01 291.591 237.5 287.061C235.56 284.451 233.06 282.621 230 281.561C217.04 277.191 204.71 278.531 193 285.561C188.44 287.911 184.61 291.081 181.5 295.061C181.98 290.071 183.65 285.411 186.5 281.061C200.64 258.581 220.81 245.581 247 242.061Z" fill="#FCFCFC"/>
<path fill-rule="evenodd" clip-rule="evenodd" d="M284 284.062C287.79 283.372 290.95 284.372 293.5 287.062C294 291.772 293.66 296.432 292.5 301.062C285.59 305.982 280.25 304.642 276.5 297.062C275.79 294.592 276.13 292.262 277.5 290.062C279.84 288.162 282 286.162 284 284.062Z" fill="#F5F5F5"/>
<path fill-rule="evenodd" clip-rule="evenodd" d="M224 288.061C230.7 287.601 234.03 290.761 234 297.561C233.16 303.761 229.82 307.931 224 310.061C215.36 305.911 213.86 299.911 219.5 292.061C220.9 290.491 222.4 289.161 224 288.061Z" fill="#F6F6F6"/>
<path fill-rule="evenodd" clip-rule="evenodd" d="M271.999 334.061C275.359 333.431 277.359 334.771 277.999 338.061C276.359 343.161 273.359 347.321 268.999 350.561C266.999 351.231 264.999 351.231 262.999 350.561C259.429 348.941 255.769 347.611 251.999 346.561C247.669 342.701 248.339 340.201 253.999 339.061C257.799 339.991 261.459 341.331 264.999 343.061C267.709 340.351 270.039 337.351 271.999 334.061Z" fill="#0A0A0A"/>
</svg>
