<svg width="500" height="500" viewBox="0 0 500 500" fill="none" xmlns="http://www.w3.org/2000/svg">
<path fill-rule="evenodd" clip-rule="evenodd" d="M277.999 53.0615C269.559 52.9715 261.229 53.8015 252.999 55.5615C247.649 59.2415 244.319 64.2415 242.999 70.5615C243.389 72.3815 243.719 74.2215 243.999 76.0615C242.489 82.1115 241.489 88.2815 240.999 94.5615C245.269 117.172 258.609 130.832 280.999 135.562C299.849 138.932 316.849 134.932 331.999 123.562C341.529 112.852 343.689 100.682 338.499 87.0615C336.719 83.6215 334.559 80.4515 331.999 77.5615C325.069 72.2715 317.739 67.7715 309.999 64.0615C318.149 66.3915 326.149 69.2215 333.999 72.5615C345.499 78.9715 357.499 84.3115 369.999 88.5615C392.129 102.022 410.299 119.522 424.499 141.062C430.829 152.392 435.489 164.392 438.499 177.062C440.299 201.332 432.469 221.832 414.999 238.562C408.759 242.982 402.429 247.152 395.999 251.062C388.799 253.532 381.469 255.702 373.999 257.562C348.939 259.712 324.279 257.712 299.999 251.562C281.129 249.812 262.459 246.812 243.999 242.562C229.849 240.522 215.679 238.692 201.499 237.062C194.229 237.262 187.399 239.092 180.999 242.562C162.279 257.762 140.939 266.592 116.999 269.062C97.129 272.612 80.629 266.942 67.499 252.062C60.889 236.992 59.229 221.322 62.499 205.062C65.949 192.042 70.949 179.712 77.499 168.062C87.479 156.102 96.479 143.432 104.499 130.062C116.659 115.902 129.489 102.402 142.999 89.5615C165.519 76.9715 188.849 65.9715 212.999 56.5615C226.979 51.9015 241.319 49.5615 255.999 49.5615C257.879 49.7815 259.549 50.4415 260.999 51.5615C266.849 51.7315 272.509 52.2315 277.999 53.0615Z" fill="#FF9737"/>
<path fill-rule="evenodd" clip-rule="evenodd" d="M278 53.0613C289.43 54.4413 300.09 58.1013 310 64.0613C317.74 67.7713 325.07 72.2713 332 77.5613C334.56 80.4513 336.72 83.6213 338.5 87.0613C343.69 100.681 341.53 112.851 332 123.561C316.85 134.931 299.85 138.931 281 135.561C258.61 130.831 245.27 117.171 241 94.5613C241.49 88.2813 242.49 82.1113 244 76.0613C243.72 74.2213 243.39 72.3813 243 70.5613C244.32 64.2413 247.65 59.2413 253 55.5613C261.23 53.8013 269.56 52.9713 278 53.0613Z" fill="#FFEA3B"/>
<path fill-rule="evenodd" clip-rule="evenodd" d="M146 94.061C151.01 93.891 156.01 94.061 161 94.561C168.27 97.571 172.27 103.071 173 111.061C172.21 116.271 170.71 121.271 168.5 126.061C159.69 139.831 148.53 151.331 135 160.561C125.07 166.161 115.4 172.161 106 178.561C94.8602 178.751 90.0202 173.251 91.5002 162.061C101.24 139.581 115.57 120.581 134.5 105.061C137 99.911 140.83 96.251 146 94.061Z" fill="#FFEA3A"/>
<path fill-rule="evenodd" clip-rule="evenodd" d="M411 148.061C417.9 147.431 423.07 150.091 426.5 156.061C426.91 162.381 428.08 168.551 430 174.561C429.3 181.381 428.8 188.211 428.5 195.061C425.58 199.981 421.92 204.311 417.5 208.061C411.58 224.981 399.74 235.141 382 238.561C362.62 242.761 343.62 241.431 325 234.561C312.63 228.521 304.13 219.021 299.5 206.061C298.09 199.421 299.43 193.421 303.5 188.061C314.59 177.261 327.42 169.091 342 163.561C365.01 157.891 388.01 152.721 411 148.061Z" fill="#FFEA3A"/>
<path fill-rule="evenodd" clip-rule="evenodd" d="M218 150.062C226.13 149.712 234.13 150.552 242 152.562C258.88 161.522 263.71 175.022 256.5 193.062C250.11 201.672 241.61 206.842 231 208.562C215.76 211.682 201.09 210.022 187 203.562C174.58 195.362 171.41 184.522 177.5 171.062C180.37 167.862 183.54 165.022 187 162.562C197.66 158.832 207.99 154.662 218 150.062Z" fill="#FFEA3A"/>
<path fill-rule="evenodd" clip-rule="evenodd" d="M128 205.062C148.29 204.512 154.46 213.512 146.5 232.062C133.5 249.842 116.66 255.342 95.9998 248.562C89.9698 241.792 89.4698 234.622 94.4998 227.062C98.2498 221.972 102.75 217.472 108 213.562C114.56 210.212 121.23 207.382 128 205.062Z" fill="#FFEA3A"/>
<path fill-rule="evenodd" clip-rule="evenodd" d="M396 251.062C404.42 283.182 407.25 315.842 404.5 349.062C403.72 369.202 398.72 388.202 389.5 406.062C380.04 421.502 366.54 431.672 349 436.562C323.93 442.492 298.6 446.832 273 449.562C246.94 450.652 221.27 447.992 196 441.562C169.83 432.402 148.67 416.562 132.5 394.062C130.25 390.552 128.25 386.892 126.5 383.062C122.69 364.362 118.69 345.692 114.5 327.062C113.23 307.602 114.07 288.272 117 269.062C140.94 266.592 162.28 257.762 181 242.562C187.4 239.092 194.23 237.262 201.5 237.062C215.68 238.692 229.85 240.522 244 242.562C262.46 246.812 281.13 249.812 300 251.562C324.28 257.712 348.94 259.712 374 257.562C381.47 255.702 388.8 253.532 396 251.062Z" fill="#FEF38D"/>
<path fill-rule="evenodd" clip-rule="evenodd" d="M356 306.062C353.15 304.062 350.15 302.222 347 300.562C333.68 297.372 320.18 295.202 306.5 294.062C302.09 293.802 297.93 294.632 294 296.562C281.24 307.502 276.41 321.342 279.5 338.062C280.81 344.982 283.48 351.322 287.5 357.062C292.42 361.602 298.25 364.102 305 364.562C311.67 365.232 318.33 365.232 325 364.562C330.88 360.352 335.71 355.182 339.5 349.062C342.5 340.892 345 332.552 347 324.062C345.65 320.722 345.32 317.382 346 314.062C350.88 317.172 356.22 318.842 362 319.062C362.71 319.962 363.71 320.302 365 320.062C367.35 332.702 367.52 345.372 365.5 358.062C362.62 367.972 357.12 376.142 349 382.562C323.47 400.012 295.47 410.672 265 414.562C230.53 420.512 201.03 411.012 176.5 386.062C169.07 375.102 165.57 363.102 166 350.062C170.14 345.842 174.31 341.512 178.5 337.062C178.83 342.062 179.17 347.062 179.5 352.062C189.34 379.572 206.84 386.072 232 371.562C239.57 364.532 244.73 356.032 247.5 346.062C247.83 336.372 244.5 328.042 237.5 321.062C235.38 312.712 229.88 308.212 221 307.562C214 306.892 207 306.892 200 307.562C192.28 309.922 184.94 313.092 178 317.062C182.95 307.932 189.28 299.762 197 292.562C235.14 262.172 276.8 256.512 322 275.562C336.04 282.772 347.37 292.932 356 306.062Z" fill="#FDFDFC"/>
<path fill-rule="evenodd" clip-rule="evenodd" d="M356 306.061C360.37 307.661 364.54 309.661 368.5 312.061C369.67 317.401 367.5 319.731 362 319.061C356.22 318.841 350.88 317.171 346 314.061C345.32 317.381 345.65 320.721 347 324.061C345 332.551 342.5 340.891 339.5 349.061C335.71 355.181 330.88 360.351 325 364.561C318.33 365.231 311.67 365.231 305 364.561C298.25 364.101 292.42 361.601 287.5 357.061C283.48 351.321 280.81 344.981 279.5 338.061C276.41 321.341 281.24 307.501 294 296.561C297.93 294.631 302.09 293.801 306.5 294.061C320.18 295.201 333.68 297.371 347 300.561C350.15 302.221 353.15 304.061 356 306.061Z" fill="#040403"/>
<path fill-rule="evenodd" clip-rule="evenodd" d="M298 304.061C303.31 303.301 307.15 305.301 309.5 310.061C309.69 315.401 309.35 320.731 308.5 326.061C304.8 330.831 299.97 332.331 294 330.561C291.1 327.701 288.6 324.531 286.5 321.061C285.76 317.781 286.42 314.781 288.5 312.061C292.18 309.871 295.34 307.211 298 304.061Z" fill="#F4F4F4"/>
<path fill-rule="evenodd" clip-rule="evenodd" d="M166.001 350.062C163.381 350.332 160.881 350.002 158.501 349.062C157.831 345.392 157.831 341.732 158.501 338.062C160.801 334.262 163.301 330.592 166.001 327.062C170.071 323.712 174.071 320.372 178.001 317.062C184.941 313.092 192.281 309.922 200.001 307.562C207.001 306.892 214.001 306.892 221.001 307.562C229.881 308.212 235.381 312.712 237.501 321.062C244.501 328.042 247.831 336.372 247.501 346.062C244.731 356.032 239.571 364.532 232.001 371.562C206.841 386.072 189.341 379.572 179.501 352.062C179.171 347.062 178.831 342.062 178.501 337.062C174.311 341.512 170.141 345.842 166.001 350.062Z" fill="#040404"/>
<path fill-rule="evenodd" clip-rule="evenodd" d="M218.999 317.062C227.089 317.322 231.419 321.482 231.999 329.562C231.829 333.732 230.669 337.562 228.499 341.062C222.759 347.652 217.089 347.652 211.499 341.062C209.799 338.662 208.969 335.992 208.999 333.062C209.829 326.042 213.169 320.712 218.999 317.062Z" fill="#F5F5F5"/>
<path fill-rule="evenodd" clip-rule="evenodd" d="M285.999 372.062C290.659 370.902 293.319 372.572 293.999 377.062C292.439 383.362 289.439 388.862 284.999 393.562C281.129 395.082 277.129 395.412 272.999 394.562C268.089 392.702 263.259 390.872 258.499 389.062C256.379 381.852 259.209 379.012 266.999 380.562C270.989 383.402 275.319 384.232 279.999 383.062C282.029 379.382 284.029 375.712 285.999 372.062Z" fill="#0E0E0E"/>
</svg>
