<svg width="500" height="500" viewBox="0 0 500 500" fill="none" xmlns="http://www.w3.org/2000/svg">
<path fill-rule="evenodd" clip-rule="evenodd" d="M360 107.061C360.17 114.731 360 122.401 359.5 130.061C355.93 124.201 350.77 122.031 344 123.561C337.17 127.141 330.51 130.971 324 135.061C325.84 128.241 323.51 123.411 317 120.561C299.67 119.891 282.33 119.891 265 120.561C262.46 121.651 259.79 122.321 257 122.561C255.45 123.771 254.28 125.271 253.5 127.061C253.3 134.231 254.13 141.231 256 148.061C250.3 148.931 244.64 149.931 239 151.061C239.38 143.971 238.88 136.971 237.5 130.061C235.63 127.851 233.46 126.021 231 124.561C213.4 126.261 195.74 127.591 178 128.561C168.03 128.181 162.69 132.851 162 142.561C162.65 148.041 163.15 153.541 163.5 159.061C165.57 163.701 169.07 165.201 174 163.561C175.5 162.731 176.67 161.561 177.5 160.061C178 154.401 178.17 148.741 178 143.061C193.69 141.911 209.36 140.581 225 139.061C224.68 144.251 225.01 149.251 226 154.061C214.55 157.151 203.22 160.991 192 165.561C185.1 167.281 178.1 168.281 171 168.561C167.23 169.431 163.56 170.591 160 172.061C157.66 169.211 154.99 166.371 152 163.561C146.9 161.491 141.9 161.661 137 164.061C138.11 137.371 139.45 110.701 141 84.0612C140.83 77.0612 140.67 70.0612 140.5 63.0612C138.18 57.9812 138.85 53.3112 142.5 49.0612C145.39 46.5012 148.56 44.3412 152 42.5612C191.65 42.3012 231.31 42.3012 271 42.5612C294.67 44.4612 318.33 46.4612 342 48.5612C348.41 51.8712 352.58 57.0312 354.5 64.0612C358.34 78.1412 360.18 92.4712 360 107.061Z" fill="#B17A67"/>
<path fill-rule="evenodd" clip-rule="evenodd" d="M182.001 63.0615C198.821 63.4115 215.491 65.2515 232.001 68.5615C239.241 72.2115 241.741 78.0515 239.501 86.0615C238.751 93.2215 236.581 99.8915 233.001 106.062C231.471 107.422 229.801 108.592 228.001 109.562C208.991 110.452 189.991 111.122 171.001 111.562C167.591 107.772 165.751 103.272 165.501 98.0615C164.051 87.8215 165.221 77.9915 169.001 68.5615C173.241 66.2115 177.571 64.3815 182.001 63.0615Z" fill="#9D6C5B"/>
<path fill-rule="evenodd" clip-rule="evenodd" d="M303 64.0615C328.61 60.8615 336.77 71.5315 327.5 96.0615C325.55 98.4515 323.05 99.9515 320 100.562C304.26 100.922 288.6 102.082 273 104.062C262.12 105.332 255.62 100.672 253.5 90.0615C253.26 84.9715 253.1 79.9715 253 75.0615C253.44 72.3515 254.77 70.1815 257 68.5615C272.41 66.3015 287.75 64.8015 303 64.0615Z" fill="#9C6B5B"/>
<path fill-rule="evenodd" clip-rule="evenodd" d="M324 135.062C301.45 139.822 278.79 144.152 256 148.062C254.13 141.232 253.3 134.232 253.5 127.062C254.28 125.272 255.45 123.772 257 122.562C259.79 122.322 262.46 121.652 265 120.562C282.33 119.892 299.67 119.892 317 120.562C323.51 123.412 325.84 128.242 324 135.062Z" fill="#9D6C5B"/>
<path fill-rule="evenodd" clip-rule="evenodd" d="M360 107.062C360.99 115.882 361.33 124.882 361 134.062C372.81 136.422 375.98 143.082 370.5 154.062C367.8 157.102 364.8 159.762 361.5 162.062C361 166.382 360.83 170.712 361 175.062C359.83 171.052 357.33 168.052 353.5 166.062C351.68 167.212 349.84 168.382 348 169.562C339.11 171.962 330.11 173.962 321 175.562C319.67 176.562 318.33 177.562 317 178.562C313.11 179.302 309.45 180.632 306 182.562C294.43 191.642 282.77 200.472 271 209.062C255.44 207.742 240.44 210.242 226 216.562C210.31 222.132 196.31 230.302 184 241.062C183.21 241.962 182.21 242.632 181 243.062C180.63 240.612 179.13 239.612 176.5 240.062C172.42 240.522 168.92 242.182 166 245.062C165 243.732 164 242.392 163 241.062C157.25 248.892 151.75 256.892 146.5 265.062C142.98 268.802 139.48 272.472 136 276.062C119.48 282.732 110.98 277.062 110.5 259.062C105.73 255.412 103.23 250.582 103 244.562C107.18 225.692 112.68 207.192 119.5 189.062C123.4 179.222 129.23 170.892 137 164.062C141.9 161.662 146.9 161.492 152 163.562C154.99 166.372 157.66 169.212 160 172.062C163.56 170.592 167.23 169.432 171 168.562C178.1 168.282 185.1 167.282 192 165.562C203.22 160.992 214.55 157.152 226 154.062C230.55 153.502 234.88 152.502 239 151.062C244.64 149.932 250.3 148.932 256 148.062C278.79 144.152 301.45 139.822 324 135.062C330.51 130.972 337.17 127.142 344 123.562C350.77 122.032 355.93 124.202 359.5 130.062C360 122.402 360.17 114.732 360 107.062Z" fill="#9E9D9D"/>
<path fill-rule="evenodd" clip-rule="evenodd" d="M239 151.062C234.88 152.502 230.55 153.502 226 154.062C225.01 149.252 224.68 144.252 225 139.062C209.36 140.582 193.69 141.912 178 143.062C178.17 148.742 178 154.402 177.5 160.062C176.67 161.562 175.5 162.732 174 163.562C169.07 165.202 165.57 163.702 163.5 159.062C163.15 153.542 162.65 148.042 162 142.562C162.69 132.852 168.03 128.182 178 128.562C195.74 127.592 213.4 126.262 231 124.562C233.46 126.022 235.63 127.852 237.5 130.062C238.88 136.972 239.38 143.972 239 151.062Z" fill="#996959"/>
<path fill-rule="evenodd" clip-rule="evenodd" d="M361 175.062C362.77 182.272 363.94 189.612 364.5 197.062C366.53 230.392 368.36 263.722 370 297.062C367.45 300.432 367.45 303.772 370 307.062C370 311.732 370 316.392 370 321.062C363.55 320.142 357.21 318.642 351 316.562C342.06 312.202 333.06 308.372 324 305.062C335.17 291.692 338.84 276.362 335 259.062C335.25 256.702 334.58 254.702 333 253.062C322.18 224.952 301.51 210.282 271 209.062C282.77 200.472 294.43 191.642 306 182.562C309.45 180.632 313.11 179.302 317 178.562C318.33 177.562 319.67 176.562 321 175.562C330.11 173.962 339.11 171.962 348 169.562C349.84 168.382 351.68 167.212 353.5 166.062C357.33 168.052 359.83 171.052 361 175.062Z" fill="#F34437"/>
<path fill-rule="evenodd" clip-rule="evenodd" d="M271 209.062C301.51 210.282 322.18 224.952 333 253.062C326.22 249.452 319.55 245.622 313 241.562C305.12 239.162 297.12 237.162 289 235.562C274.52 234.672 265.69 241.502 262.5 256.062C258.06 281.792 268.89 294.452 295 294.062C294.67 296.872 293.84 299.542 292.5 302.062C289.74 303.542 287.07 305.212 284.5 307.062C283.5 310.362 283.17 313.692 283.5 317.062C285.23 318.142 287.06 318.302 289 317.562C293.16 315.652 297.16 313.482 301 311.062C304.6 313.362 308.27 315.362 312 317.062C306.25 322.942 299.25 326.772 291 328.562C286.05 329.562 281.05 330.222 276 330.562C256.33 331.232 236.67 331.232 217 330.562C209.44 329.542 202.44 327.042 196 323.062C198.83 318.342 202.83 317.012 208 319.062C211.16 318.822 214.16 317.982 217 316.562C219.12 315.042 219.45 313.202 218 311.062C213.38 309.602 208.72 308.102 204 306.562C200.44 303.332 196.6 300.492 192.5 298.062C185.78 303.082 185.61 308.252 192 313.562C190.76 314.352 189.42 314.852 188 315.062C184.78 310.332 180.94 305.992 176.5 302.062C168.62 291.712 165.78 280.042 168 267.062C173.42 265.172 177.92 261.832 181.5 257.062C180.19 261.902 179.85 266.902 180.5 272.062C187.52 294.332 201.36 300.162 222 289.562C227.58 284.272 232.08 278.102 235.5 271.062C236.17 268.062 236.17 265.062 235.5 262.062C232.86 256.452 230.52 250.792 228.5 245.062C227 243.562 225.5 242.062 224 240.562C210.56 234.412 197.22 234.572 184 241.062C196.31 230.302 210.31 222.132 226 216.562C240.44 210.242 255.44 207.742 271 209.062Z" fill="#FCFCFB"/>
<path fill-rule="evenodd" clip-rule="evenodd" d="M332.999 253.061C334.579 254.701 335.249 256.701 334.999 259.061C331.589 261.171 327.919 261.331 323.999 259.561C321.669 258.061 319.329 256.561 316.999 255.061C315.829 257.541 315.829 260.041 316.999 262.561C314.519 270.021 311.349 277.191 307.499 284.061C305.299 286.601 302.799 288.771 299.999 290.561C303.989 293.031 306.659 296.531 307.999 301.061C313.179 303.031 318.509 304.361 323.999 305.061C333.059 308.371 342.059 312.201 350.999 316.561C357.209 318.641 363.549 320.141 369.999 321.061C373.019 321.221 376.019 321.061 378.999 320.561C381.669 318.231 381.669 315.891 378.999 313.561C376.119 311.171 373.119 309.011 369.999 307.061C367.449 303.771 367.449 300.431 369.999 297.061C375.519 295.611 380.519 296.781 384.999 300.561C390.779 305.471 394.779 311.471 396.999 318.561C396.649 323.251 394.319 326.581 389.999 328.561C383.179 330.921 376.179 332.421 368.999 333.061C349.919 328.151 330.919 322.811 311.999 317.061C308.269 315.361 304.599 313.361 300.999 311.061C297.159 313.481 293.159 315.651 288.999 317.561C287.059 318.301 285.229 318.141 283.499 317.061C283.169 313.691 283.499 310.361 284.499 307.061C287.069 305.211 289.739 303.541 292.499 302.061C293.839 299.541 294.669 296.871 294.999 294.061C268.889 294.451 258.059 281.791 262.499 256.061C265.689 241.501 274.519 234.671 288.999 235.561C297.119 237.161 305.119 239.161 312.999 241.561C319.549 245.621 326.219 249.451 332.999 253.061Z" fill="#050505"/>
<path fill-rule="evenodd" clip-rule="evenodd" d="M167.999 267.062C166.669 267.062 165.329 267.062 163.999 267.062C163.829 263.712 163.999 260.382 164.499 257.062C168.649 250.742 174.149 246.072 180.999 243.062C182.209 242.632 183.209 241.962 183.999 241.062C197.219 234.572 210.559 234.412 223.999 240.562C225.499 242.062 226.999 243.562 228.499 245.062C230.519 250.792 232.859 256.452 235.499 262.062C236.169 265.062 236.169 268.062 235.499 271.062C232.079 278.102 227.579 284.272 221.999 289.562C201.359 300.162 187.519 294.332 180.499 272.062C179.849 266.902 180.189 261.902 181.499 257.062C177.919 261.832 173.419 265.172 167.999 267.062Z" fill="#050505"/>
<path fill-rule="evenodd" clip-rule="evenodd" d="M181 243.062C174.15 246.072 168.65 250.742 164.5 257.062C164 260.382 163.83 263.712 164 267.062C165.33 267.062 166.67 267.062 168 267.062C165.78 280.042 168.62 291.712 176.5 302.062C180.94 305.992 184.78 310.332 188 315.062C173.53 326.002 157.19 332.672 139 335.062C138.18 325.072 137.51 315.072 137 305.062C141.83 303.922 142.83 301.422 140 297.562C138.71 297.072 137.37 296.902 136 297.062C136 290.062 136 283.062 136 276.062C139.48 272.472 142.98 268.802 146.5 265.062C151.75 256.892 157.25 248.892 163 241.062C164 242.392 165 243.732 166 245.062C168.92 242.182 172.42 240.522 176.5 240.062C179.13 239.612 180.63 240.612 181 243.062Z" fill="#F24437"/>
<path fill-rule="evenodd" clip-rule="evenodd" d="M278 243.062C281.69 242.532 284.86 243.532 287.5 246.062C287.91 251.092 287.58 256.092 286.5 261.062C279.11 266.142 273.44 264.812 269.5 257.062C268.75 254.262 269.08 251.592 270.5 249.062C273.15 247.142 275.65 245.142 278 243.062Z" fill="#F5F5F5"/>
<path fill-rule="evenodd" clip-rule="evenodd" d="M213.999 246.062C220.569 245.792 224.239 248.962 224.999 255.562C224.059 262.632 220.229 267.132 213.499 269.062C208.339 267.562 205.839 264.062 205.999 258.562C206.539 252.962 209.209 248.802 213.999 246.062Z" fill="#F6F6F6"/>
<path fill-rule="evenodd" clip-rule="evenodd" d="M335 259.062C338.84 276.362 335.17 291.692 324 305.062C318.51 304.362 313.18 303.032 308 301.062C306.66 296.532 303.99 293.032 300 290.562C302.8 288.772 305.3 286.602 307.5 284.062C311.35 277.192 314.52 270.022 317 262.562C315.83 260.042 315.83 257.542 317 255.062C319.33 256.562 321.67 258.062 324 259.562C327.92 261.332 331.59 261.172 335 259.062Z" fill="#FBFAFA"/>
<path fill-rule="evenodd" clip-rule="evenodd" d="M264 296.061C267.36 295.431 269.36 296.771 270 300.061C267.78 305.321 264.44 309.821 260 313.561C252.32 313.471 245.49 310.971 239.5 306.061C239.2 302.851 240.7 300.851 244 300.061C248.23 302.191 252.56 303.691 257 304.561C259.23 301.561 261.57 298.731 264 296.061Z" fill="#0D0D0D"/>
<path fill-rule="evenodd" clip-rule="evenodd" d="M136 297.062C137.37 296.902 138.71 297.072 140 297.562C142.83 301.422 141.83 303.922 137 305.062C124.27 308.842 116.27 317.172 113 330.062C112.73 332.962 114.06 334.462 117 334.562C124.32 336.242 131.65 336.412 139 335.062C157.19 332.672 173.53 326.002 188 315.062C189.42 314.852 190.76 314.352 192 313.562C185.61 308.252 185.78 303.082 192.5 298.062C196.6 300.492 200.44 303.332 204 306.562C208.72 308.102 213.38 309.602 218 311.062C219.45 313.202 219.12 315.042 217 316.562C214.16 317.982 211.16 318.822 208 319.062C202.83 317.012 198.83 318.342 196 323.062C179.82 335.982 161.49 344.312 141 348.062C133.85 348.262 126.68 348.592 119.5 349.062C114.02 348.822 109.68 346.492 106.5 342.062C101.91 333.772 101.91 325.432 106.5 317.062C111.83 308.062 119.33 301.562 129 297.562C131.31 297.062 133.64 296.902 136 297.062Z" fill="#080605"/>
<path fill-rule="evenodd" clip-rule="evenodd" d="M312 317.062C330.92 322.812 349.92 328.152 369 333.062C369.32 346.932 364.66 358.762 355 368.562C351.55 370.492 347.89 371.822 344 372.562C328.15 375.512 312.15 377.352 296 378.062C291.33 378.062 286.67 378.062 282 378.062C263.35 377.042 244.68 376.372 226 376.062C221.67 376.062 217.33 376.062 213 376.062C194.16 373.322 175.16 370.822 156 368.562C146.24 365.222 141.24 358.392 141 348.062C161.49 344.312 179.82 335.982 196 323.062C202.44 327.042 209.44 329.542 217 330.562C236.67 331.232 256.33 331.232 276 330.562C281.05 330.222 286.05 329.562 291 328.562C299.25 326.772 306.25 322.942 312 317.062Z" fill="#F34336"/>
<path fill-rule="evenodd" clip-rule="evenodd" d="M213.001 376.062C217.331 376.062 221.671 376.062 226.001 376.062C225.701 396.512 227.031 416.842 230.001 437.062C229.341 440.372 228.841 443.702 228.501 447.062C226.131 449.862 223.291 450.532 220.001 449.062C216.331 452.462 212.001 454.622 207.001 455.562C201.301 457.322 195.631 457.322 190.001 455.562C185.431 453.022 183.931 449.192 185.501 444.062C193.731 435.282 203.901 431.952 216.001 434.062C215.361 414.712 214.361 395.372 213.001 376.062Z" fill="#060606"/>
<path fill-rule="evenodd" clip-rule="evenodd" d="M281.999 378.062C286.669 378.062 291.329 378.062 295.999 378.062C294.899 392.712 293.899 407.382 292.999 422.062C293.329 425.392 293.669 428.732 293.999 432.062C300.429 430.832 306.759 431.332 312.999 433.562C319.859 436.932 321.529 441.932 317.999 448.562C313.869 451.162 309.369 452.322 304.499 452.062C297.739 450.812 290.909 449.982 283.999 449.562C283.499 449.062 282.999 448.562 282.499 448.062C281.999 424.732 281.829 401.402 281.999 378.062Z" fill="#080808"/>
</svg>
