<svg width="500" height="500" viewBox="0 0 500 500" fill="none" xmlns="http://www.w3.org/2000/svg">
<path fill-rule="evenodd" clip-rule="evenodd" d="M319 214.062C311.93 215.92 304.93 218.253 298 221.062C295.21 208.847 290.37 197.514 283.5 187.062C279.26 175.656 274.26 164.656 268.5 154.062C260.41 131.868 251.74 109.868 242.5 88.0616C234.57 106.589 225.57 124.589 215.5 142.062C214.31 151.685 211.98 161.018 208.5 170.062C207.48 172.249 205.98 173.916 204 175.062C198.33 175.737 194 173.737 191 169.062C188.8 164.979 187.97 160.646 188.5 156.062C193.2 134.901 200.2 114.568 209.5 95.0616C213.47 88.9237 217.64 82.9237 222 77.0616C219.17 76.7283 216.33 76.3949 213.5 76.0616C203.26 76.5532 193.09 77.5532 183 79.0616C177.51 79.1969 172.18 78.3635 167 76.5616C164.17 75.0616 162 72.8949 160.5 70.0616C160.21 64.9395 159.38 59.9395 158 55.0616C157.85 50.5285 159.85 47.3618 164 45.5616C174.04 45.0659 184.04 45.5659 194 47.0616C202.68 45.76 211.34 44.26 220 42.5616C246.95 44.4768 272.62 39.8101 297 28.5616C308.66 18.6158 316.83 21.1158 321.5 36.0616C323.67 46.8938 319.51 54.0604 309 57.5616C300.23 61.0032 291.23 63.6699 282 65.5616C277.72 67.1969 273.72 69.1969 270 71.5616C274.34 87.9442 278.18 104.445 281.5 121.062C288.11 138.212 295.11 155.212 302.5 172.062C307.32 182.379 312.66 192.379 318.5 202.062C320.17 206.052 320.34 210.052 319 214.062Z" fill="#8BC34B"/>
<path fill-rule="evenodd" clip-rule="evenodd" d="M191 169.062C194 173.737 198.33 175.737 204 175.062C217.88 188.802 227.71 205.135 233.5 224.062C238.88 249.253 232.21 270.586 213.5 288.062C193.58 306.434 170.08 316.767 143 319.062C143.3 318.412 143.64 317.745 144 317.062C140.2 316.465 136.53 315.465 133 314.062C131.65 315.086 130.31 316.086 129 317.062C119.34 313.25 110.84 307.584 103.5 300.062C100.18 295.095 97.6803 289.761 96.0003 284.062C96.2103 281.111 95.5503 278.444 94.0003 276.062C79.2603 197.471 111.6 161.805 191 169.062Z" fill="#F44436"/>
<path fill-rule="evenodd" clip-rule="evenodd" d="M201.999 234.062C201.439 230.332 199.779 227.165 196.999 224.562C189.339 218.005 180.669 216.005 170.999 218.562C167.519 222.724 164.849 227.39 162.999 232.562C164.989 241.559 170.489 246.725 179.499 248.062C182.989 247.818 185.989 246.485 188.499 244.062C191.009 240.037 192.679 235.703 193.499 231.062C194.999 232.562 196.499 234.062 197.999 235.562C199.429 236.141 200.759 235.974 201.999 235.062C199.719 244.186 194.049 250.353 184.999 253.562C173.029 259.661 160.359 261.661 146.999 259.562C140.689 258.121 134.349 256.788 127.999 255.562C113.949 248.592 108.619 237.425 111.999 222.062C115.379 222.102 118.709 221.769 121.999 221.062C121.179 238.444 128.849 244.611 144.999 239.562C150.799 232.23 151.469 224.396 146.999 216.062C145.519 215.082 144.189 213.915 142.999 212.562C132.669 211.389 122.999 213.223 113.999 218.062C115.029 215.19 116.689 212.69 118.999 210.562C127.219 206.621 135.549 202.954 143.999 199.562C164.799 195.831 182.629 201.331 197.499 216.062C202.049 221.503 203.549 227.503 201.999 234.062Z" fill="#FCF9F9"/>
<path fill-rule="evenodd" clip-rule="evenodd" d="M112 222.062C111.73 220.182 112.4 218.849 114 218.062C123 213.223 132.67 211.389 143 212.562C144.19 213.915 145.52 215.082 147 216.062C151.47 224.396 150.8 232.23 145 239.562C128.85 244.611 121.18 238.444 122 221.062C118.71 221.769 115.38 222.102 112 222.062Z" fill="#080808"/>
<path fill-rule="evenodd" clip-rule="evenodd" d="M319 214.062C362.83 211.392 400.33 225.392 431.5 256.062C442.62 271.703 447.79 289.203 447 308.562C446.64 318.105 445.8 327.605 444.5 337.062C444.08 338.234 443.41 339.234 442.5 340.062C442.54 352.944 439.04 364.61 432 375.062C431.72 367.853 432.22 360.853 433.5 354.062C430.06 351.829 426.39 351.495 422.5 353.062C422.4 367.127 421.57 381.127 420 395.062C415.42 401.801 409.42 406.967 402 410.562C391.33 414.452 380.33 416.618 369 417.062C365.67 417.062 362.33 417.062 359 417.062C339.7 418.122 320.7 416.455 302 412.062C302 411.062 302 410.062 302 409.062C299.02 408.491 296.19 407.491 293.5 406.062C293.12 406.618 292.62 406.951 292 407.062C286.36 405.237 281.03 402.737 276 399.562C266.74 391.793 257.07 384.626 247 378.062C247.45 368.289 246.95 358.623 245.5 349.062C242.91 347.58 240.57 347.914 238.5 350.062C236.27 354.749 235.43 359.749 236 365.062C230.17 358.076 227.17 349.909 227 340.562C230.59 323.56 233.09 306.393 234.5 289.062C240.93 258.969 258.09 237.469 286 224.562C289.93 223.085 293.93 221.918 298 221.062C304.93 218.253 311.93 215.92 319 214.062Z" fill="#F34336"/>
<path fill-rule="evenodd" clip-rule="evenodd" d="M139.001 216.062C146.701 217.169 148.361 220.669 144.001 226.562C139.631 228.049 137.291 226.549 137.001 222.062C136.861 219.721 137.531 217.721 139.001 216.062Z" fill="#EFEFEF"/>
<path fill-rule="evenodd" clip-rule="evenodd" d="M202 234.061C202 234.394 202 234.728 202 235.061C200.76 235.973 199.43 236.14 198 235.561C196.5 234.061 195 232.561 193.5 231.061C192.68 235.702 191.01 240.036 188.5 244.061C185.99 246.484 182.99 247.817 179.5 248.061C170.49 246.724 164.99 241.558 163 232.561C164.85 227.389 167.52 222.723 171 218.561C180.67 216.004 189.34 218.004 197 224.561C199.78 227.164 201.44 230.331 202 234.061Z" fill="#090909"/>
<path fill-rule="evenodd" clip-rule="evenodd" d="M172 222.061C176.88 221.435 179.54 223.602 180 228.561C177.69 235.228 174.52 235.728 170.5 230.061C169.78 227.154 170.28 224.487 172 222.061Z" fill="#F2F2F2"/>
<path fill-rule="evenodd" clip-rule="evenodd" d="M144 245.062C145.05 244.913 146.05 245.079 147 245.562C148.18 247.458 149.68 248.958 151.5 250.062C153.55 248.771 155.72 248.271 158 248.562C159.02 249.611 159.18 250.778 158.5 252.062C149.94 257.364 145.1 255.031 144 245.062Z" fill="#131313"/>
<path fill-rule="evenodd" clip-rule="evenodd" d="M408 292.062C403.51 289.318 398.85 286.818 394 284.562C388.67 283.231 383.34 281.897 378 280.562C364.1 277.766 355.27 283.266 351.5 297.062C350.02 306.342 351.86 314.842 357 322.562C377.75 333.105 390.92 326.939 396.5 304.062C396.82 301.022 396.82 298.022 396.5 295.062C400.83 298.186 405.66 299.853 411 300.062C416.7 315.804 414.36 330.304 404 343.562C391.5 351.44 377.83 355.773 363 356.562C352.28 356.747 341.61 357.58 331 359.062C321.73 357.548 312.4 356.714 303 356.562C271.78 349.907 260.45 331.407 269 301.062C273.12 289 280.12 278.833 290 270.562C296.5 267.148 302.83 263.481 309 259.562C331.76 253.352 354.43 253.685 377 260.562C387.12 265.366 396.28 271.533 404.5 279.062C405.67 283.402 406.84 287.735 408 292.062Z" fill="#FDFBFB"/>
<path fill-rule="evenodd" clip-rule="evenodd" d="M93.9996 276.062C95.5496 278.444 96.2096 281.111 95.9996 284.062C91.3796 284.781 86.7196 285.281 81.9996 285.562C76.8896 287.535 71.7196 289.368 66.4996 291.062C65.0296 290.659 63.6896 289.992 62.4996 289.062C59.2496 283.554 56.2496 277.887 53.4996 272.062C52.1596 268.036 53.3296 265.036 56.9996 263.062C61.5996 267.162 65.2596 271.995 67.9996 277.562C70.9996 278.229 73.9996 278.229 76.9996 277.562C82.6196 275.508 88.2796 275.008 93.9996 276.062Z" fill="#090808"/>
<path fill-rule="evenodd" clip-rule="evenodd" d="M408 292.061C409.35 293.162 410.85 294.162 412.5 295.061C413.11 297.056 412.61 298.723 411 300.061C405.66 299.852 400.83 298.185 396.5 295.061C396.82 298.021 396.82 301.021 396.5 304.061C390.92 326.938 377.75 333.104 357 322.561C351.86 314.841 350.02 306.341 351.5 297.061C355.27 283.265 364.1 277.765 378 280.561C383.34 281.896 388.67 283.23 394 284.561C398.85 286.817 403.51 289.317 408 292.061Z" fill="#040404"/>
<path fill-rule="evenodd" clip-rule="evenodd" d="M269 301.062C281.29 285.095 297.29 279.595 317 284.562C319.09 285.354 320.92 286.521 322.5 288.062C323.69 292.775 325.69 297.109 328.5 301.062C329.25 318.817 320.75 328.817 303 331.062C292.85 329.077 286.35 323.077 283.5 313.062C282.97 308.653 282.97 304.319 283.5 300.062C281.33 302.229 279.17 304.395 277 306.562C274.49 307.814 271.82 308.314 269 308.062C269 305.729 269 303.395 269 301.062Z" fill="#050505"/>
<path fill-rule="evenodd" clip-rule="evenodd" d="M365 286.062C369.7 285.431 372.36 287.431 373 292.062C372.5 295.062 372 298.062 371.5 301.062C368.54 304.178 365.04 304.845 361 303.062C359.41 300.655 358.08 298.155 357 295.562C357.13 293.935 357.63 292.435 358.5 291.062C360.83 289.496 362.99 287.83 365 286.062Z" fill="#F5F5F5"/>
<path fill-rule="evenodd" clip-rule="evenodd" d="M311 290.062C316.28 289.844 319.28 292.344 320 297.562C319.25 303.255 316.25 307.089 311 309.062C303.8 305.92 302.3 300.92 306.5 294.062C307.9 292.492 309.4 291.158 311 290.062Z" fill="#F7F7F7"/>
<path fill-rule="evenodd" clip-rule="evenodd" d="M129 317.062C130.31 316.086 131.65 315.086 133 314.062C136.53 315.465 140.2 316.465 144 317.062C143.64 317.745 143.3 318.412 143 319.062C142.21 320.356 141.21 321.523 140 322.562C135.01 324.723 130.34 327.39 126 330.562C119.28 335.138 111.94 337.472 104 337.562C99.4699 333.363 95.2999 328.863 91.4999 324.062C89.3399 320.697 89.5099 317.53 91.9999 314.562C93.3299 313.895 94.6699 313.895 95.9999 314.562C101.78 318.339 106.95 322.839 111.5 328.062C118.3 325.734 124.13 322.067 129 317.062Z" fill="#090808"/>
<path fill-rule="evenodd" clip-rule="evenodd" d="M353 331.062C354.7 330.902 356.37 331.068 358 331.562C358.52 332.123 358.86 332.79 359 333.562C357.11 338.448 354.11 342.448 350 345.562C344.14 345.058 338.64 343.224 333.5 340.062C332.67 336.748 334 335.081 337.5 335.062C340.8 335.625 343.96 336.625 347 338.062C349.7 336.337 351.7 334.003 353 331.062Z" fill="#0E0E0E"/>
<path fill-rule="evenodd" clip-rule="evenodd" d="M247 378.062C248.51 387.436 250.34 396.769 252.5 406.062C257.93 407.498 262.27 410.498 265.5 415.062C266.92 419.07 265.58 421.403 261.5 422.062C257.95 421.601 254.78 420.268 252 418.062C249.3 419.413 246.97 421.246 245 423.562C242.07 424.339 239.24 424.172 236.5 423.062C236.1 417.854 237.93 413.52 242 410.062C238.44 395.27 236.44 380.27 236 365.062C235.43 359.749 236.27 354.749 238.5 350.062C240.57 347.914 242.91 347.58 245.5 349.062C246.95 358.623 247.45 368.289 247 378.062Z" fill="#060505"/>
<path fill-rule="evenodd" clip-rule="evenodd" d="M432.001 375.062C430.551 390.035 429.721 405.035 429.501 420.062C434.271 423.271 436.601 427.604 436.501 433.062C435.541 434.456 434.211 435.123 432.501 435.062C429.021 432.924 425.521 430.757 422.001 428.562C417.411 428.545 412.911 428.379 408.501 428.062C407.831 426.395 407.831 424.729 408.501 423.062C411.191 420.868 414.031 418.868 417.001 417.062C419.301 409.917 420.301 402.584 420.001 395.062C421.571 381.127 422.401 367.127 422.501 353.062C426.391 351.495 430.061 351.829 433.501 354.062C432.221 360.853 431.721 367.853 432.001 375.062Z" fill="#060504"/>
<path fill-rule="evenodd" clip-rule="evenodd" d="M302 412.062C301.94 423.777 301.44 435.444 300.5 447.062C303.17 449.062 305.83 451.062 308.5 453.062C310.66 457.081 310.49 460.915 308 464.562C305.38 466.367 302.71 466.367 300 464.562C295.74 461.517 291.58 458.35 287.5 455.062C286.52 452.602 285.69 450.102 285 447.562C288.21 436.316 289.71 424.816 289.5 413.062C290.62 411.155 291.46 409.155 292 407.062C292.62 406.951 293.12 406.618 293.5 406.062C296.19 407.491 299.02 408.491 302 409.062C302 410.062 302 411.062 302 412.062Z" fill="#080808"/>
<path fill-rule="evenodd" clip-rule="evenodd" d="M359 417.062C362.33 417.062 365.67 417.062 369 417.062C371.51 419.424 373.01 422.424 373.5 426.062C375.82 437.147 377.65 448.314 379 459.562C378.12 468.939 373.12 474.773 364 477.062C359.59 476.578 357.92 474.078 359 469.562C358.54 464.642 360.38 460.809 364.5 458.062C364.67 456.062 364.83 454.062 365 452.062C362.9 440.437 360.9 428.77 359 417.062Z" fill="#060606"/>
</svg>
