<svg width="500" height="500" viewBox="0 0 500 500" fill="none" xmlns="http://www.w3.org/2000/svg">
<path fill-rule="evenodd" clip-rule="evenodd" d="M230 123.062C226 123.062 222 123.062 218 123.062C216.9 104.512 207.23 97.0118 189 100.562C182.06 103.172 175.89 107.012 170.5 112.062C166.74 117.492 163.4 123.152 160.5 129.062C156.74 134.242 152.74 139.242 148.5 144.062C142.14 153.902 135.64 163.572 129 173.062C127.21 168.142 124.87 163.472 122 159.062C130.81 144.402 140.64 130.402 151.5 117.062C157.54 100.142 168.37 87.3118 184 78.5618C203.54 76.0818 218.04 83.5818 227.5 101.062C230.88 108.122 231.72 115.462 230 123.062Z" fill="#050504"/>
<path fill-rule="evenodd" clip-rule="evenodd" d="M218 123.062C222 123.062 226 123.062 230 123.062C238.78 130.312 247.45 137.812 256 145.562C261.41 149.292 267.07 152.632 273 155.562C293.97 161.412 315.31 165.412 337 167.562C358.46 173.122 379.46 180.122 400 188.562C425.88 201.802 442.05 222.632 448.5 251.062C450.12 257.992 451.29 264.992 452 272.062C449.47 287.302 447.64 302.632 446.5 318.062C433.11 370.452 399.95 401.952 347 412.562C328.37 416.792 309.54 419.632 290.5 421.062C267.03 418.572 243.86 414.402 221 408.562C197.71 401.342 178.21 388.512 162.5 370.062C153.33 354.562 147.33 337.902 144.5 320.062C144.84 273.382 154.5 228.712 173.5 186.062C178.37 174.002 184.03 162.332 190.5 151.062C198.5 140.562 207.67 131.222 218 123.062Z" fill="#8BC34A"/>
<path fill-rule="evenodd" clip-rule="evenodd" d="M122.001 159.062C124.871 163.472 127.211 168.142 129.001 173.062C131.811 195.932 122.141 210.762 100.001 217.562C91.8305 218.392 83.6705 219.232 75.5005 220.062C63.0405 219.602 55.3705 213.272 52.5005 201.062C49.1205 197.782 48.1205 193.782 49.5005 189.062C55.3905 171.512 66.5605 158.672 83.0005 150.562C97.8005 145.692 110.801 148.522 122.001 159.062Z" fill="#8BC34A"/>
<path fill-rule="evenodd" clip-rule="evenodd" d="M408 262.061C401.67 258.241 395 255.081 388 252.561C380.25 251.711 372.59 250.371 365 248.561C356.56 247.621 348.23 247.961 340 249.561C337.13 252.761 333.96 255.601 330.5 258.061C321.91 275.041 321.91 292.041 330.5 309.061C335.29 315.541 341.79 319.041 350 319.561C357 320.231 364 320.231 371 319.561C376.5 315.391 381.33 310.561 385.5 305.061C388.12 297.481 390.45 289.821 392.5 282.061C393.27 277.751 392.77 273.581 391 269.561C391.33 269.061 391.67 268.561 392 268.061C398.85 271.671 406.18 273.341 414 273.061C414.03 301.121 404.7 325.621 386 346.561C381.67 350.061 377.01 353.061 372 355.561C358.22 360.281 344.56 365.281 331 370.561C317.3 373.431 303.47 375.271 289.5 376.061C277.4 376.241 265.9 373.741 255 368.561C244.66 362.391 234.66 355.721 225 348.561C212.21 336.821 204.88 322.321 203 305.061C205.49 305.261 207.82 304.761 210 303.561C213.55 299.301 217.22 295.131 221 291.061C220.59 297.061 221.09 303.061 222.5 309.061C224.98 314.151 227.64 319.151 230.5 324.061C234.42 326.771 238.26 329.601 242 332.561C259.71 337.321 273.88 332.151 284.5 317.061C285.93 312.441 287.93 308.101 290.5 304.061C292.49 297.971 292.16 291.971 289.5 286.061C285.17 281.421 282.17 276.081 280.5 270.061C276.96 265.041 272.12 262.201 266 261.561C254.75 260.191 243.75 261.191 233 264.561C225.13 268.441 217.8 273.101 211 278.561C208.29 281.191 205.96 284.021 204 287.061C212.19 260.531 228.85 241.361 254 229.561C272.86 223.411 292.2 221.411 312 223.561C326.98 226.341 341.98 229.001 357 231.561C369.45 236.951 381.79 242.621 394 248.561C399.85 251.911 404.52 256.411 408 262.061Z" fill="#FCFCFC"/>
<path fill-rule="evenodd" clip-rule="evenodd" d="M408 262.062C415.45 263.112 417.45 266.782 414 273.062C406.18 273.342 398.85 271.672 392 268.062C391.67 268.562 391.33 269.062 391 269.562C392.77 273.582 393.27 277.752 392.5 282.062C390.45 289.822 388.12 297.482 385.5 305.062C381.33 310.562 376.5 315.392 371 319.562C364 320.232 357 320.232 350 319.562C341.79 319.042 335.29 315.542 330.5 309.062C321.91 292.042 321.91 275.042 330.5 258.062C333.96 255.602 337.13 252.762 340 249.562C348.23 247.962 356.56 247.622 365 248.562C372.59 250.372 380.25 251.712 388 252.562C395 255.082 401.67 258.242 408 262.062Z" fill="#030303"/>
<path fill-rule="evenodd" clip-rule="evenodd" d="M343 258.061C347.63 257.261 351.46 258.591 354.5 262.061C355.17 268.061 355.17 274.061 354.5 280.061C350.45 284.881 345.28 286.381 339 284.561C336.1 281.701 333.6 278.531 331.5 275.061C330.76 271.781 331.42 268.781 333.5 266.061C337.09 263.791 340.26 261.121 343 258.061Z" fill="#F5F5F5"/>
<path fill-rule="evenodd" clip-rule="evenodd" d="M203 305.062C202 305.152 201.17 304.812 200.5 304.062C199.08 297.772 200.24 292.102 204 287.062C205.96 284.022 208.29 281.192 211 278.562C217.8 273.102 225.13 268.442 233 264.562C243.75 261.192 254.75 260.192 266 261.562C272.12 262.202 276.96 265.042 280.5 270.062C282.17 276.082 285.17 281.422 289.5 286.062C292.16 291.972 292.49 297.972 290.5 304.062C287.93 308.102 285.93 312.442 284.5 317.062C273.88 332.152 259.71 337.322 242 332.562C238.26 329.602 234.42 326.772 230.5 324.062C227.64 319.152 224.98 314.152 222.5 309.062C221.09 303.062 220.59 297.062 221 291.062C217.22 295.132 213.55 299.302 210 303.562C207.82 304.762 205.49 305.262 203 305.062Z" fill="#040404"/>
<path fill-rule="evenodd" clip-rule="evenodd" d="M263 271.062C273.31 272.662 277.48 278.662 275.5 289.062C273.51 295.062 269.51 299.062 263.5 301.062C256.8 299.032 252.97 294.532 252 287.562C252.74 280.012 256.4 274.512 263 271.062Z" fill="#F5F5F5"/>
<path fill-rule="evenodd" clip-rule="evenodd" d="M332 327.062C336.23 326.302 338.9 327.972 340 332.062C337.47 338.612 333.81 344.452 329 349.562C325.46 351.062 321.79 351.402 318 350.562C313.85 348.622 309.52 347.292 305 346.562C301.49 343.512 301.16 340.182 304 336.562C309.39 335.532 314.39 336.532 319 339.562C320.67 340.232 322.33 340.232 324 339.562C326.55 335.282 329.22 331.112 332 327.062Z" fill="#0B0B0B"/>
</svg>
