<svg width="500" height="500" viewBox="0 0 500 500" fill="none" xmlns="http://www.w3.org/2000/svg">
<path fill-rule="evenodd" clip-rule="evenodd" d="M299 208.061C300.22 211.941 302.55 214.941 306 217.061C306.61 217.951 306.94 218.951 307 220.061C304.18 219.811 301.51 220.311 299 221.561C292.83 231.721 284.17 239.051 273 243.561C265.85 246.351 258.52 248.511 251 250.061C244.72 247.661 238.39 247.821 232 250.561C224.75 258.561 226.08 264.731 236 269.061C234.24 270.021 232.24 270.351 230 270.061C220.27 260.341 210.94 250.341 202 240.061C204.63 236.931 207.46 233.931 210.5 231.061C211.22 228.441 210.22 226.771 207.5 226.061C205.69 226.641 203.86 227.141 202 227.561C200.84 229.891 199.17 231.721 197 233.061C174.86 198.531 168.36 161.191 177.5 121.061C181.46 110.101 188.63 101.931 199 96.5612C213.86 77.2812 232.86 63.6212 256 55.5612C287.61 52.3812 318.61 55.3812 349 64.5612C358.23 68.4512 364.73 74.9512 368.5 84.0612C376.81 89.9912 382.14 97.9912 384.5 108.061C387.11 130.811 379.28 148.981 361 162.561C357.83 164.311 354.83 166.311 352 168.561C338.69 173.971 325.02 178.311 311 181.561C296.48 185.601 292.48 194.441 299 208.061Z" fill="#FE9C9C"/>
<path fill-rule="evenodd" clip-rule="evenodd" d="M362 90.0615C351.71 87.6515 341.38 87.4915 331 89.5615C321.92 100.442 321.92 111.442 331 122.562C337.47 125.532 344.14 125.862 351 123.562C353.59 120.652 355.75 117.482 357.5 114.062C359.04 108.072 359.37 102.072 358.5 96.0615C361.33 97.7515 364.16 98.4115 367 98.0615C368.83 105.962 369.33 113.962 368.5 122.062C367.38 128.472 364.54 133.972 360 138.562C354.82 141.982 349.82 145.652 345 149.562C329.2 157.422 312.53 160.082 295 157.562C279 151.762 270.66 140.262 270 123.062C270.57 121.592 271.41 120.252 272.5 119.062C274.88 135.152 283.71 140.982 299 136.562C312.18 124.832 312.18 113.162 299 101.562C292.59 99.7915 286.26 100.122 280 102.562C275.51 105.562 271.17 108.722 267 112.062C267.21 95.1515 275.21 83.6515 291 77.5615C312.6 66.9615 333.6 67.9615 354 80.5615C357.28 83.3315 359.94 86.4915 362 90.0615Z" fill="#FDFCFC"/>
<path fill-rule="evenodd" clip-rule="evenodd" d="M361.999 90.0612C364.039 91.5012 366.369 92.5012 368.999 93.0612C370.589 95.7312 369.919 97.4012 366.999 98.0612C364.159 98.4112 361.329 97.7512 358.499 96.0612C359.369 102.071 359.039 108.071 357.499 114.061C355.749 117.481 353.589 120.651 350.999 123.561C344.139 125.861 337.469 125.531 330.999 122.561C321.919 111.441 321.919 100.441 330.999 89.5612C341.379 87.4912 351.709 87.6512 361.999 90.0612Z" fill="#060606"/>
<path fill-rule="evenodd" clip-rule="evenodd" d="M332 94.0616C334.03 93.9016 336.03 94.0616 338 94.5616C340.96 99.2216 340.62 103.562 337 107.562C330.83 108.062 328 105.232 328.5 99.0616C329.89 97.5116 331.05 95.8516 332 94.0616Z" fill="#F3F3F3"/>
<path fill-rule="evenodd" clip-rule="evenodd" d="M270 123.062C266.77 128.222 264.1 128.052 262 122.562C263.54 118.972 265.21 115.472 267 112.062C271.17 108.722 275.51 105.562 280 102.562C286.26 100.122 292.59 99.7915 299 101.562C312.18 113.162 312.18 124.832 299 136.562C283.71 140.982 274.88 135.152 272.5 119.062C271.41 120.252 270.57 121.592 270 123.062Z" fill="#070606"/>
<path fill-rule="evenodd" clip-rule="evenodd" d="M292 106.062C299.01 105.692 301.51 109.022 299.5 116.062C294.78 122.792 290.95 122.122 288 114.062C288.45 110.892 289.78 108.222 292 106.062Z" fill="#F5F5F5"/>
<path fill-rule="evenodd" clip-rule="evenodd" d="M331.001 130.061C333.451 129.571 335.121 130.401 336.001 132.561C334.721 135.951 333.061 139.111 331.001 142.061C329.891 142.581 328.731 142.921 327.501 143.061C324.031 142.151 320.531 141.481 317.001 141.061C316.791 139.421 317.121 137.921 318.001 136.561C321.331 136.561 324.671 136.561 328.001 136.561C329.291 134.511 330.291 132.341 331.001 130.061Z" fill="#0E0E0E"/>
<path fill-rule="evenodd" clip-rule="evenodd" d="M188 164.062C194.12 163.492 198.46 165.992 201 171.562C217.69 179.672 235.36 183.502 254 183.062C261.02 182.372 268.02 181.872 275 181.562C280.99 183.702 283.15 187.872 281.5 194.062C280.33 196.562 278.5 198.392 276 199.562C255.23 203.022 234.56 202.362 214 197.562C203.47 194.292 193.8 189.462 185 183.062C179.07 175.542 180.07 169.212 188 164.062Z" fill="#FE8F8D"/>
<path fill-rule="evenodd" clip-rule="evenodd" d="M334 236.061C331.02 235.231 328.35 233.901 326 232.061C326 228.881 325 226.051 323 223.561C317.96 219.711 312.3 217.541 306 217.061C302.55 214.941 300.22 211.941 299 208.061C301.34 206.171 304 205.671 307 206.561C314.74 210.761 322.74 214.431 331 217.561C334.33 220.051 336.67 223.221 338 227.061C336.93 230.201 335.6 233.201 334 236.061Z" fill="#0A0909"/>
<path fill-rule="evenodd" clip-rule="evenodd" d="M307 220.062C309.41 221.262 311.41 222.932 313 225.062C314.83 230.712 313.67 235.712 309.5 240.062C289.86 260.562 265.69 270.232 237 269.062C236.67 269.062 236.33 269.062 236 269.062C226.08 264.732 224.75 258.562 232 250.562C238.39 247.822 244.72 247.662 251 250.062C258.52 248.512 265.85 246.352 273 243.562C284.17 239.052 292.83 231.722 299 221.562C301.51 220.312 304.18 219.812 307 220.062Z" fill="#FD8F8D"/>
<path fill-rule="evenodd" clip-rule="evenodd" d="M202 240.062C196.48 247.782 193.65 256.442 193.5 266.062C196.44 268.682 199.94 270.182 204 270.562C212.74 271.362 221.41 271.202 230 270.062C232.24 270.352 234.24 270.022 236 269.062C236.33 269.062 236.67 269.062 237 269.062C241.04 270.502 244.54 272.842 247.5 276.062C248 279.042 248.16 282.042 248 285.062C247.19 292.042 243.52 296.702 237 299.062C233.95 298.372 231.95 296.542 231 293.562C232.48 289.772 233.81 285.942 235 282.062C227.37 281.792 219.71 281.632 212 281.562C204.84 279.272 197.5 277.942 190 277.562C184.31 275.202 181.64 270.862 182 264.562C183.4 252.262 188.4 241.762 197 233.062C199.17 231.722 200.84 229.892 202 227.562C203.86 227.142 205.69 226.642 207.5 226.062C210.22 226.772 211.22 228.442 210.5 231.062C207.46 233.932 204.63 236.932 202 240.062Z" fill="#080707"/>
<path fill-rule="evenodd" clip-rule="evenodd" d="M254 320.062C255.89 315.272 256.89 310.272 257 305.062C259.28 304.172 261.62 304.002 264 304.562C267.61 306.502 270.94 308.842 274 311.562C278.27 313.102 282.61 314.432 287 315.562C310.36 316.932 333.36 314.602 356 308.562C359.12 306.022 361.78 303.022 364 299.562C374.44 296.342 379.28 300.172 378.5 311.062C375.33 318.232 370.17 323.392 363 326.562C339.74 332.932 316.07 335.932 292 335.562C277.44 334.772 264.77 329.602 254 320.062Z" fill="#FE8F8D"/>
<path fill-rule="evenodd" clip-rule="evenodd" d="M312.999 225.062C317.199 227.662 321.529 229.992 325.999 232.062C328.349 233.902 331.019 235.232 333.999 236.062C345.679 245.242 355.839 255.902 364.499 268.062C371.569 281.862 377.229 296.192 381.499 311.062C382.799 330.822 377.799 348.822 366.499 365.062C359.839 374.872 352.339 384.042 343.999 392.562C337.679 397.722 331.019 402.392 323.999 406.562C300.769 418.842 276.769 429.512 251.999 438.562C246.169 440.662 240.169 441.992 233.999 442.562C190.679 451.892 154.179 440.392 124.499 408.062C112.969 392.622 110.969 375.962 118.499 358.062C125.189 341.712 136.349 329.542 151.999 321.562C162.289 320.582 172.289 321.422 181.999 324.062C173.469 323.072 167.969 326.742 165.499 335.062C153.749 371.152 158.419 404.812 179.499 436.062C184.779 440.262 189.779 439.932 194.499 435.062C195.959 432.192 196.289 429.192 195.499 426.062C177.939 400.402 173.939 372.732 183.499 343.062C190.649 336.882 190.809 330.552 183.999 324.062C196.539 326.492 209.209 327.832 221.999 328.062C219.079 332.942 218.249 338.282 219.499 344.062C226.279 365.062 234.609 385.392 244.499 405.062C249.839 414.482 257.669 417.982 267.999 415.562C274.269 410.572 274.599 405.232 268.999 399.562C264.569 399.172 261.409 397.012 259.499 393.062C249.649 373.172 241.979 352.502 236.499 331.062C234.649 328.522 232.149 327.522 228.999 328.062C233.949 327.302 238.949 326.132 243.999 324.562C247.759 323.712 251.099 322.212 253.999 320.062C264.769 329.602 277.439 334.772 291.999 335.562C316.069 335.932 339.739 332.932 362.999 326.562C370.169 323.392 375.329 318.232 378.499 311.062C379.279 300.172 374.439 296.342 363.999 299.562C361.779 303.022 359.119 306.022 355.999 308.562C333.359 314.602 310.359 316.932 286.999 315.562C282.609 314.432 278.269 313.102 273.999 311.562C270.939 308.842 267.609 306.502 263.999 304.562C261.619 304.002 259.279 304.172 256.999 305.062C257.349 299.582 256.679 294.252 254.999 289.062C252.479 287.972 250.139 286.632 247.999 285.062C248.159 282.042 247.999 279.042 247.499 276.062C244.539 272.842 241.039 270.502 236.999 269.062C265.689 270.232 289.859 260.562 309.499 240.062C313.669 235.712 314.829 230.712 312.999 225.062Z" fill="#FE9C9C"/>
<path fill-rule="evenodd" clip-rule="evenodd" d="M182 324.061C182.67 324.061 183.33 324.061 184 324.061C190.81 330.551 190.65 336.881 183.5 343.061C173.94 372.731 177.94 400.401 195.5 426.061C196.29 429.191 195.96 432.191 194.5 435.061C189.78 439.931 184.78 440.261 179.5 436.061C158.42 404.811 153.75 371.151 165.5 335.061C167.97 326.741 173.47 323.071 182 324.061Z" fill="#FE8F8D"/>
<path fill-rule="evenodd" clip-rule="evenodd" d="M222.001 328.061C224.331 328.061 226.671 328.061 229.001 328.061C232.151 327.521 234.651 328.521 236.501 331.061C241.981 352.501 249.651 373.171 259.501 393.061C261.411 397.011 264.571 399.171 269.001 399.561C274.601 405.231 274.271 410.571 268.001 415.561C257.671 417.981 249.841 414.481 244.501 405.061C234.611 385.391 226.281 365.061 219.501 344.061C218.251 338.281 219.081 332.941 222.001 328.061Z" fill="#FE8F8D"/>
</svg>
