<svg width="500" height="500" viewBox="0 0 500 500" fill="none" xmlns="http://www.w3.org/2000/svg">
<path fill-rule="evenodd" clip-rule="evenodd" d="M265 109.062C260.09 116.312 253.76 117.812 246 113.562C244.08 112.142 242.74 110.312 242 108.062C241.32 109.162 240.66 110.162 240 111.062C239.94 110.522 239.61 110.182 239 110.062C231.06 116.572 223.22 116.572 215.5 110.062C211.87 104.172 212.37 98.6717 217 93.5617C220.26 91.8817 223.59 90.3817 227 89.0617C216.76 79.0317 215.26 67.6917 222.5 55.0617C227.88 50.3617 234.05 49.0317 241 51.0617C242.49 41.8117 247.82 38.3117 257 40.5617C259.67 41.5617 262.01 43.0617 264 45.0617C270.32 39.9617 277.32 38.7917 285 41.5617C292.01 46.5517 293.84 53.0517 290.5 61.0617C287.47 65.8017 283.97 70.1317 280 74.0617C280.68 77.7017 281.18 81.3617 281.5 85.0617C287.61 90.2717 289.28 96.6017 286.5 104.062C280.78 110.352 273.94 111.692 266 108.062C265.39 108.182 265.06 108.522 265 109.062Z" fill="#FEFEFE"/>
<path fill-rule="evenodd" clip-rule="evenodd" d="M256 59.0618C267.37 58.5918 272.2 63.9218 270.5 75.0618C268.5 80.5818 265.67 85.5818 262 90.0618C252.86 96.5418 245.69 94.8818 240.5 85.0618C239.33 72.4418 244.49 63.7718 256 59.0618Z" fill="#FFC10E"/>
<path fill-rule="evenodd" clip-rule="evenodd" d="M265 109.062C265.18 116.462 266.01 123.802 267.5 131.062C272.05 139.602 277.38 147.602 283.5 155.062C290.96 157.102 298.12 159.942 305 163.562C315.9 170.172 326.9 176.512 338 182.562C345.45 190.282 351.28 199.112 355.5 209.062C360.63 221.102 364.96 233.442 368.5 246.062C369.17 272.062 369.17 298.062 368.5 324.062C368.07 333.362 364.57 341.202 358 347.562C344.06 361.202 328.06 371.872 310 379.562C316.14 384.692 321.97 390.192 327.5 396.062C332.81 402.332 334.14 409.332 331.5 417.062C326.92 422.622 321.09 424.452 314 422.562C309.63 421.292 305.8 419.132 302.5 416.062C303.61 424.682 305.44 433.182 308 441.562C307.29 451.442 301.95 456.942 292 458.062C287.2 457.092 283.7 454.422 281.5 450.062C278.97 443.472 276.64 436.802 274.5 430.062C274.81 440.382 272.31 449.882 267 458.562C255.16 464.072 247.66 460.572 244.5 448.062C243.88 438.392 243.21 428.722 242.5 419.062C237.11 427.682 229.61 430.512 220 427.562C214.28 422.722 212.44 416.552 214.5 409.062C217.12 401.822 220.29 394.822 224 388.062C210.03 382.482 195.69 377.982 181 374.562C178.16 372.642 175.16 370.972 172 369.562C136.24 331.352 123.74 286.522 134.5 235.062C135.89 231.272 137.56 227.612 139.5 224.062C145.83 214.062 152.17 204.062 158.5 194.062C171.72 181.032 186.88 170.862 204 163.562C206.5 161.062 209 158.562 211.5 156.062C217.68 147.032 224.35 138.372 231.5 130.062C234.89 123.942 237.73 117.612 240 111.062C240.66 110.162 241.32 109.162 242 108.062C242.74 110.312 244.08 112.142 246 113.562C253.76 117.812 260.09 116.312 265 109.062Z" fill="#F34336"/>
<path fill-rule="evenodd" clip-rule="evenodd" d="M341 280.062C335.4 277.602 329.73 275.102 324 272.562C317.89 272.192 311.89 271.192 306 269.562C290.46 265.572 280.29 271.072 275.5 286.062C272.51 297.762 274.17 308.762 280.5 319.062C289.67 325.562 299.84 327.732 311 325.562C315.21 322.052 319.04 318.222 322.5 314.062C324.16 309.072 325.83 304.072 327.5 299.062C327.79 294.272 327.96 289.612 328 285.062C333.01 287.592 338.35 288.922 344 289.062C344.21 315.152 333.54 335.312 312 349.562C286.85 366.212 259.52 371.212 230 364.562C215.69 358.902 202.36 351.572 190 342.562C180.81 333.332 176.14 322.162 176 309.062C176.29 313.492 178.62 314.992 183 313.562C186.6 310.242 190.1 306.742 193.5 303.062C192.47 317.172 197.97 328.002 210 335.562C228.66 339.152 241.16 331.982 247.5 314.062C249.65 308.582 249.31 303.242 246.5 298.062C242.41 293.222 238.91 288.052 236 282.562C220.8 276.662 206.46 278.322 193 287.562C185.37 292.022 179.7 298.192 176 306.062C175.51 282.182 185.85 265.012 207 254.562C215.67 250.062 224.67 246.392 234 243.562C247.8 241.632 261.63 240.132 275.5 239.062C294.56 237.972 311.39 243.472 326 255.562C332.47 262.862 337.47 271.022 341 280.062Z" fill="#FDFCFC"/>
<path fill-rule="evenodd" clip-rule="evenodd" d="M341 280.062C346.16 281.902 347.16 284.902 344 289.062C338.35 288.922 333.01 287.592 328 285.062C327.96 289.612 327.79 294.272 327.5 299.062C325.83 304.072 324.16 309.072 322.5 314.062C319.04 318.222 315.21 322.052 311 325.562C299.84 327.732 289.67 325.562 280.5 319.062C274.17 308.762 272.51 297.762 275.5 286.062C280.29 271.072 290.46 265.572 306 269.562C311.89 271.192 317.89 272.192 324 272.562C329.73 275.102 335.4 277.602 341 280.062Z" fill="#050505"/>
<path fill-rule="evenodd" clip-rule="evenodd" d="M289 277.061C293.09 276.261 296.26 277.601 298.5 281.061C298.83 285.751 298.5 290.421 297.5 295.061C296.67 295.891 295.83 296.731 295 297.561C291.68 298.061 288.35 298.231 285 298.061C282.78 295.301 281.11 292.131 280 288.561C280.13 286.931 280.63 285.431 281.5 284.061C284.4 282.051 286.9 279.721 289 277.061Z" fill="#F7F7F7"/>
<path fill-rule="evenodd" clip-rule="evenodd" d="M176 309.062C176 308.062 176 307.062 176 306.062C179.7 298.192 185.37 292.022 193 287.562C206.46 278.322 220.8 276.662 236 282.562C238.91 288.052 242.41 293.222 246.5 298.062C249.31 303.242 249.65 308.582 247.5 314.062C241.16 331.982 228.66 339.152 210 335.562C197.97 328.002 192.47 317.172 193.5 303.062C190.1 306.742 186.6 310.242 183 313.562C178.62 314.992 176.29 313.492 176 309.062Z" fill="#050505"/>
<path fill-rule="evenodd" clip-rule="evenodd" d="M225 288.061C232.21 287.101 235.88 290.271 236 297.561C236.07 304.381 232.9 308.881 226.5 311.061C217.67 307.021 215.67 300.681 220.5 292.061C221.9 290.491 223.4 289.161 225 288.061Z" fill="#F7F7F7"/>
<path fill-rule="evenodd" clip-rule="evenodd" d="M280 331.061C283.42 330.431 285.42 331.761 286 335.061C284.9 341.101 281.9 345.931 277 349.561C275 350.231 273 350.231 271 349.561C266.51 347.891 262.01 346.391 257.5 345.061C256.58 342.501 257.08 340.331 259 338.561C264.05 338.921 269.05 339.581 274 340.561C276.14 337.451 278.14 334.281 280 331.061Z" fill="#0B0B0B"/>
</svg>
