<svg width="500" height="500" viewBox="0 0 500 500" fill="none" xmlns="http://www.w3.org/2000/svg">
<path fill-rule="evenodd" clip-rule="evenodd" d="M241.999 36.0615C257.089 36.0715 272.089 37.2315 286.999 39.5615C302.079 44.1915 314.579 52.6915 324.499 65.0615C331.149 72.3915 336.149 80.7215 339.499 90.0615C340.169 101.062 340.169 112.062 339.499 123.062C338.769 131.672 335.769 139.332 330.499 146.062C316.999 158.232 303.499 170.392 289.999 182.562C285.349 188.032 281.849 194.192 279.499 201.062C278.209 213.392 276.879 225.722 275.499 238.062C274.429 243.372 271.929 247.872 267.999 251.562C255.669 262.452 241.339 267.112 224.999 265.562C217.769 262.662 212.939 257.492 210.499 250.062C195.889 215.572 202.889 186.242 231.499 162.062C238.499 152.062 245.499 142.062 252.499 132.062C254.469 128.292 256.299 124.452 257.999 120.562C257.419 117.642 255.749 115.642 252.999 114.562C244.489 112.252 236.149 112.582 227.999 115.562C224.199 118.362 220.699 121.522 217.499 125.062C212.179 136.032 205.679 146.202 197.999 155.562C196.329 156.562 194.669 157.562 192.999 158.562C187.869 159.432 182.869 160.772 177.999 162.562C170.059 164.142 162.719 162.812 155.999 158.562C152.519 153.092 148.359 148.252 143.499 144.062C140.519 134.552 140.189 124.882 142.499 115.062C145.769 102.202 150.429 89.8615 156.499 78.0615C161.559 69.9415 168.399 63.7815 176.999 59.5615C186.669 54.5615 196.329 49.5615 205.999 44.5615C217.689 39.8015 229.689 36.9715 241.999 36.0615Z" fill="#FDFDFD"/>
<path fill-rule="evenodd" clip-rule="evenodd" d="M239 282.061C245.01 281.891 251.01 282.061 257 282.561C266.55 284.471 276.22 285.801 286 286.561C319.89 297.121 339.39 319.951 344.5 355.061C349.57 360.871 353.91 367.211 357.5 374.061C359.72 377.841 361.39 381.841 362.5 386.061C365.53 386.181 368.7 386.341 372 386.561C376.82 390.161 377.15 394.161 373 398.561C366.67 399.051 362 402.051 359 407.561C355.64 408.851 353.64 407.851 353 404.561C354.02 401.351 355.19 398.181 356.5 395.061C357.17 393.731 357.17 392.391 356.5 391.061C352.33 384.041 347.66 377.381 342.5 371.061C334.5 389.391 321 401.891 302 408.561C296.01 410.171 290.01 411.671 284 413.061C286.42 423.991 288.42 434.991 290 446.061C294.01 445.891 298.01 446.061 302 446.561C307.7 451.751 307.03 456.081 300 459.561C294.81 461.381 289.48 462.541 284 463.061C281.29 462.621 279.12 461.291 277.5 459.061C274.8 444.521 273.63 429.851 274 415.061C259.73 416.801 245.4 417.471 231 417.061C230.83 426.401 231 435.731 231.5 445.061C233.09 446.981 233.26 448.981 232 451.061C230.3 452.631 228.97 454.461 228 456.561C222.17 459.851 215.84 461.181 209 460.561C199.67 456.231 199.67 451.891 209 447.561C212.92 446.091 216.92 444.921 221 444.061C220.02 434.001 218.69 424.001 217 414.061C190.89 405.121 172.72 387.781 162.5 362.061C155.74 368.761 149.58 375.931 144 383.561C145.5 385.061 147 386.561 148.5 388.061C149.66 391.371 148.5 393.371 145 394.061C143.56 393.261 142.06 392.591 140.5 392.061C136.38 394.521 132.04 396.521 127.5 398.061C124.76 398.151 123.59 396.811 124 394.061C124.43 390.521 125.93 387.521 128.5 385.061C130.84 384.431 133.01 383.431 135 382.061C137.31 376.771 140.15 371.771 143.5 367.061C149.17 361.061 154.83 355.061 160.5 349.061C161.87 332.821 168.7 319.321 181 308.561C198.04 294.611 217.38 285.771 239 282.061Z" fill="#FBFBFB"/>
<path fill-rule="evenodd" clip-rule="evenodd" d="M281 319.062C292.11 319.712 303.11 321.212 314 323.562C319.97 327.112 326.14 330.272 332.5 333.062C333.09 334.462 332.93 335.792 332 337.062C325.64 338.952 319.81 337.952 314.5 334.062C316 345.402 313.67 356.062 307.5 366.062C298.92 373.182 289.09 375.012 278 371.562C275.25 370.442 272.75 368.942 270.5 367.062C263.91 355.122 262.91 342.782 267.5 330.062C271.06 324.982 275.56 321.312 281 319.062Z" fill="#050505"/>
<path fill-rule="evenodd" clip-rule="evenodd" d="M278 327.061C282.18 326.261 285.35 327.601 287.5 331.061C287.74 335.411 287.4 339.741 286.5 344.061C283.24 346.991 279.41 347.821 275 346.561C273.88 344.441 272.38 342.601 270.5 341.061C269.75 338.261 270.08 335.591 271.5 333.061C274.16 331.561 276.33 329.561 278 327.061Z" fill="#F5F5F5"/>
<path fill-rule="evenodd" clip-rule="evenodd" d="M203.999 329.061C209.339 328.891 214.679 329.061 219.999 329.561C223.249 329.811 226.249 330.811 228.999 332.561C233.189 339.111 237.019 345.941 240.499 353.061C239.979 367.271 233.149 377.101 219.999 382.561C205.309 385.631 195.139 380.131 189.499 366.061C188.589 363.821 188.089 361.481 187.999 359.061C188.509 356.371 188.679 353.711 188.499 351.061C185.699 354.861 182.539 358.361 178.999 361.561C172.419 363.151 170.259 360.651 172.499 354.061C176.819 345.461 183.319 338.961 191.999 334.561C195.979 332.411 199.979 330.581 203.999 329.061Z" fill="#050505"/>
<path fill-rule="evenodd" clip-rule="evenodd" d="M218 337.062C224.33 336.722 228 339.722 229 346.062C228.21 351.992 225.21 356.322 220 359.062C210.33 355.082 208.5 348.752 214.5 340.062C216.02 339.402 217.19 338.402 218 337.062Z" fill="#F6F6F6"/>
<path fill-rule="evenodd" clip-rule="evenodd" d="M271 378.061C273.85 377.911 275.52 379.251 276 382.061C274.48 387.261 271.82 391.761 268 395.561C265.33 396.231 262.67 396.231 260 395.561C256.04 394.181 252.21 392.681 248.5 391.061C248.01 385.571 250.51 383.731 256 385.561C258.34 386.401 260.67 387.231 263 388.061C263.67 387.731 264.33 387.391 265 387.061C266.78 383.821 268.78 380.821 271 378.061Z" fill="#0A0A0A"/>
</svg>
