<svg width="500" height="500" viewBox="0 0 500 500" fill="none" xmlns="http://www.w3.org/2000/svg">
<path fill-rule="evenodd" clip-rule="evenodd" d="M216 34.061C231.67 33.891 247.34 34.061 263 34.561C267.65 36.061 272.31 36.231 277 35.061C286.22 34.921 293.39 38.591 298.5 46.061C309.18 66.801 312.85 88.801 309.5 112.061C306.63 124.291 304.3 136.621 302.5 149.061C300.39 168.431 298.05 187.761 295.5 207.061C293.52 222.531 286.68 235.361 275 245.561C272.78 246.841 270.45 247.841 268 248.561C251.7 250.101 235.37 250.431 219 249.561C209.68 247.571 203.52 242.071 200.5 233.061C198.13 211.951 192.13 191.951 182.5 173.061C179.68 163.441 177.01 153.781 174.5 144.061C171.21 120.281 168.38 96.441 166 72.561C165.93 64.591 167.76 57.091 171.5 50.061C177.96 42.731 186.13 39.561 196 40.561C202.74 38.261 209.4 36.091 216 34.061Z" fill="#F44336"/>
<path fill-rule="evenodd" clip-rule="evenodd" d="M327 383.06C325.99 375.58 323.65 368.41 320 361.56C316.58 360.91 315.25 362.41 316 366.06C318.51 373.85 319.51 381.85 319 390.06C315.02 393.05 310.69 395.551 306 397.561C293.74 401.121 281.74 405.291 270 410.061C267.67 410.731 265.33 411.391 263 412.061C254.99 411.831 246.99 411.501 239 411.061C236.2 409.921 233.2 409.761 230 410.561C229.44 410.941 229.11 411.441 229 412.061C219.77 411.641 211.1 409.301 203 405.061C209.41 400.981 214.41 395.65 218 389.06C221.24 388.65 224.24 387.65 227 386.06C234.59 387.61 242.25 388.11 250 387.56C258.98 385.81 267.98 384.15 277 382.56C298.88 374.55 309.88 359.05 310 336.06C311.51 333.43 310.84 331.43 308 330.06C307.66 327.04 306.49 324.38 304.5 322.06C298.67 316.23 292.83 310.39 287 304.56C273.44 295.94 258.78 293.6 243 297.56C232.85 300.5 222.85 303.83 213 307.56C205.7 313.37 201.04 320.87 199 330.06C193.76 333.65 191.09 338.65 191 345.06C193 345.06 195 345.06 197 345.06C197.69 353.31 199.53 361.31 202.5 369.06C203.81 372.18 205.64 374.85 208 377.06C207.88 380.33 208.38 383.33 209.5 386.06C204.99 390.75 199.82 394.411 194 397.061C189.18 391.421 184.85 385.42 181 379.06C182.84 376 183.34 372.66 182.5 369.06C179.93 367.64 178.09 368.31 177 371.06C165.66 345.34 168.16 321.01 184.5 298.06C193.95 285.27 205.78 275.44 220 268.56C235.2 262.94 250.53 262.61 266 267.56C277.28 272.76 288.62 277.76 300 282.56C329.41 304.22 340.91 333.06 334.5 369.06C333.21 374.45 330.71 379.12 327 383.06Z" fill="#F34437"/>
<path fill-rule="evenodd" clip-rule="evenodd" d="M308 330.062C304.9 329.342 302.24 327.842 300 325.562C290.66 321.822 280.99 320.162 271 320.562C265.34 322.892 261.84 327.062 260.5 333.062C256.95 352.842 265.11 361.672 285 359.562C291.76 355.222 295.93 349.052 297.5 341.062C297.71 338.232 297.88 335.562 298 333.062C301.78 335.672 305.78 336.672 310 336.062C309.88 359.052 298.88 374.552 277 382.562C267.98 384.152 258.98 385.812 250 387.562C242.25 388.112 234.59 387.612 227 386.062C227.81 384.722 228.98 383.722 230.5 383.062C230.99 381.772 231.16 380.432 231 379.062C225.99 379.232 220.99 379.062 216 378.562C214.5 377.072 213.66 375.242 213.5 373.062C209.76 371.532 207.93 372.862 208 377.062C205.64 374.852 203.81 372.182 202.5 369.062C199.53 361.312 197.69 353.312 197 345.062C202.5 337.012 204.66 338.342 203.5 349.062C207.43 360.312 215.26 364.812 227 362.562C234.94 358.612 239.94 352.282 242 343.562C240.57 338.532 238.73 333.702 236.5 329.062C234.96 327.182 233.12 325.682 231 324.562C225.07 323.092 219.07 322.762 213 323.562C208.16 325.482 203.49 327.652 199 330.062C201.04 320.872 205.7 313.372 213 307.562C222.85 303.832 232.85 300.502 243 297.562C258.78 293.602 273.44 295.942 287 304.562C292.83 310.392 298.67 316.232 304.5 322.062C306.49 324.382 307.66 327.042 308 330.062Z" fill="#FDFBFB"/>
<path fill-rule="evenodd" clip-rule="evenodd" d="M308 330.061C310.84 331.431 311.51 333.431 310 336.061C305.78 336.671 301.78 335.671 298 333.061C297.88 335.561 297.71 338.231 297.5 341.061C295.93 349.051 291.76 355.221 285 359.561C265.11 361.671 256.95 352.841 260.5 333.061C261.84 327.061 265.34 322.891 271 320.561C280.99 320.161 290.66 321.821 300 325.561C302.24 327.841 304.9 329.341 308 330.061Z" fill="#050505"/>
<path fill-rule="evenodd" clip-rule="evenodd" d="M197 345.061C195 345.061 193 345.061 191 345.061C191.09 338.651 193.76 333.651 199 330.061C203.49 327.651 208.16 325.481 213 323.561C219.07 322.761 225.07 323.091 231 324.561C233.12 325.681 234.96 327.181 236.5 329.061C238.73 333.701 240.57 338.531 242 343.561C239.94 352.281 234.94 358.611 227 362.561C215.26 364.811 207.43 360.311 203.5 349.061C204.66 338.341 202.5 337.011 197 345.061Z" fill="#060505"/>
<path fill-rule="evenodd" clip-rule="evenodd" d="M271 325.061C273.82 324.641 275.99 325.641 277.5 328.061C278.06 332.241 277.23 336.071 275 339.561C267.54 340.851 264.37 337.691 265.5 330.061C267.69 328.731 269.52 327.061 271 325.061Z" fill="#F5F5F5"/>
<path fill-rule="evenodd" clip-rule="evenodd" d="M226 329.062C234.56 331.262 236.06 335.922 230.5 343.062C224.92 346.382 221.42 344.712 220 338.062C221.28 334.482 223.28 331.482 226 329.062Z" fill="#F2F2F2"/>
<path fill-rule="evenodd" clip-rule="evenodd" d="M327 383.06C328.53 393.65 329.36 404.32 329.5 415.06C335.65 426.25 333.15 428.75 322 422.56C317.58 422.14 313.25 421.31 309 420.06C306.22 417.22 306.55 414.72 310 412.56C312.98 412.06 315.98 411.9 319 412.06C320.04 404.57 320.04 397.23 319 390.06C319.51 381.85 318.51 373.85 316 366.06C315.25 362.41 316.58 360.91 320 361.56C323.65 368.41 325.99 375.58 327 383.06Z" fill="#0A0808"/>
<path fill-rule="evenodd" clip-rule="evenodd" d="M261.001 363.062C262.671 363.062 264.331 363.062 266.001 363.062C265.901 369.282 262.901 373.282 257.001 375.062C253.581 374.192 250.251 373.022 247.001 371.562C244.311 368.752 244.981 366.912 249.001 366.062C251.911 367.532 254.911 368.372 258.001 368.562C259.261 366.822 260.261 364.992 261.001 363.062Z" fill="#0C0C0C"/>
<path fill-rule="evenodd" clip-rule="evenodd" d="M181.001 379.061C178.291 384.151 175.791 389.481 173.501 395.061C173.001 398.041 172.841 401.041 173.001 404.061C181.071 404.631 188.071 402.301 194.001 397.061C199.821 394.411 204.991 390.751 209.501 386.061C208.381 383.331 207.881 380.331 208.001 377.061C207.931 372.861 209.761 371.531 213.501 373.061C213.661 375.241 214.501 377.071 216.001 378.561C220.991 379.061 225.991 379.231 231.001 379.061C231.161 380.431 230.991 381.771 230.501 383.061C228.981 383.721 227.811 384.721 227.001 386.061C224.241 387.651 221.241 388.651 218.001 389.061C214.411 395.651 209.411 400.981 203.001 405.061C195.631 409.081 187.961 412.581 180.001 415.561C172.761 417.861 167.601 415.691 164.501 409.061C163.411 401.451 164.411 394.111 167.501 387.061C170.431 381.531 173.591 376.201 177.001 371.061C178.091 368.311 179.931 367.641 182.501 369.061C183.341 372.661 182.841 376.001 181.001 379.061Z" fill="#090706"/>
<path fill-rule="evenodd" clip-rule="evenodd" d="M239 411.061C240.81 428.141 239.98 445.141 236.5 462.061C235.3 464.591 233.3 465.931 230.5 466.061C225.4 465.851 220.23 465.681 215 465.561C210.97 461.341 211.3 457.341 216 453.561C220.37 452.671 224.53 453.171 228.5 455.061C229.53 440.701 229.7 426.371 229 412.061C229.11 411.441 229.44 410.941 230 410.561C233.2 409.761 236.2 409.921 239 411.061Z" fill="#090909"/>
<path fill-rule="evenodd" clip-rule="evenodd" d="M269.999 410.062C270.589 411.332 271.089 412.662 271.499 414.062C272.179 427.062 272.679 440.062 272.999 453.062C276.079 452.362 279.079 451.362 281.999 450.062C286.289 450.362 289.289 452.362 290.999 456.062C290.969 457.592 290.299 458.762 288.999 459.562C282.309 463.352 275.479 463.852 268.499 461.062C267.139 452.282 265.139 443.622 262.499 435.062C261.699 427.312 261.869 419.652 262.999 412.062C265.329 411.392 267.669 410.732 269.999 410.062Z" fill="#090909"/>
</svg>
