<svg width="500" height="500" viewBox="0 0 500 500" fill="none" xmlns="http://www.w3.org/2000/svg">
<path fill-rule="evenodd" clip-rule="evenodd" d="M265 113.061C258.93 110.261 252.59 108.261 246 107.061C244.48 117.161 238.81 120.661 229 117.561C226.14 114.671 223.64 111.501 221.5 108.061C219.9 113.091 217.4 117.591 214 121.561C211.29 123.471 208.29 124.301 205 124.061C197.79 121.121 190.79 117.621 184 113.561C179.8 106.451 176.8 98.7915 175 90.5615C176.7 81.6915 182.03 76.8615 191 76.0615C189.2 65.2915 193.53 58.9515 204 57.0615C203.19 44.3615 208.86 39.5215 221 42.5615C223.61 44.5015 225.44 47.0015 226.5 50.0615C230.06 40.2115 236.56 37.3815 246 41.5615C248.28 43.9615 249.62 46.7915 250 50.0615C260.36 49.9215 264.86 54.9215 263.5 65.0615C261.07 71.0915 258.23 76.9315 255 82.5615C262.97 85.8715 269.8 90.7115 275.5 97.0615C276.97 105.741 273.47 111.071 265 113.061Z" fill="#FE8E3D"/>
<path fill-rule="evenodd" clip-rule="evenodd" d="M265 113.062C266.42 115.572 268.09 117.902 270 120.062C243.05 140.042 213.38 155.042 181 165.062C187.22 150.272 195.22 136.602 205 124.062C208.29 124.302 211.29 123.472 214 121.562C217.4 117.592 219.9 113.092 221.5 108.062C223.64 111.502 226.14 114.672 229 117.562C238.81 120.662 244.48 117.162 246 107.062C252.59 108.262 258.93 110.262 265 113.062Z" fill="#4358DD"/>
<path fill-rule="evenodd" clip-rule="evenodd" d="M283 139.062C257.13 156.672 229.46 171.172 200 182.562C189.21 186.512 178.21 189.672 167 192.062C171.3 182.802 175.97 173.802 181 165.062C213.38 155.042 243.05 140.042 270 120.062C270.62 119.952 271.12 119.622 271.5 119.062C274.57 126.212 278.41 132.882 283 139.062Z" fill="#FD8D3D"/>
<path fill-rule="evenodd" clip-rule="evenodd" d="M283 139.062C289.75 148.902 296.75 158.562 304 168.062C278.43 188.102 251.09 205.602 222 220.562C196.33 232.732 169.33 239.892 141 242.062C150.18 225.702 158.85 209.042 167 192.062C178.21 189.672 189.21 186.512 200 182.562C229.46 171.172 257.13 156.672 283 139.062Z" fill="#4158DE"/>
<path fill-rule="evenodd" clip-rule="evenodd" d="M304 168.062C309.34 173.402 314.34 179.072 319 185.062C297.94 200.122 276.6 214.792 255 229.062C240.97 229.282 226.97 230.112 213 231.562C194.47 235.662 179.8 245.492 169 261.062C156.7 262.772 144.37 264.102 132 265.062C133.65 256.782 136.65 249.112 141 242.062C169.33 239.892 196.33 232.732 222 220.562C251.09 205.602 278.43 188.102 304 168.062Z" fill="#FD8D3E"/>
<path fill-rule="evenodd" clip-rule="evenodd" d="M319 185.062C324.72 192.152 330.22 199.482 335.5 207.062C338.53 211.122 341.03 215.452 343 220.062C330.68 229.222 318.01 237.892 305 246.062C298.37 242.082 291.37 238.582 284 235.562C274.46 232.592 264.8 230.432 255 229.062C276.6 214.792 297.94 200.122 319 185.062Z" fill="#4258DE"/>
<path fill-rule="evenodd" clip-rule="evenodd" d="M125 289.062C125.38 291.262 124.71 292.922 123 294.062C117.78 291.022 112.94 287.352 108.5 283.062C99.3898 268.492 92.7198 252.822 88.4998 236.062C85.7598 235.282 82.9298 234.782 79.9998 234.562C76.4998 232.062 76.1598 229.232 78.9998 226.062C83.5698 224.742 88.2298 224.082 92.9998 224.062C92.8398 221.012 93.5098 218.182 94.9998 215.562C101.02 215.022 103.19 217.862 101.5 224.062C100.38 226.812 98.8798 229.312 96.9998 231.562C97.9198 231.932 98.7498 232.432 99.4998 233.062C100.74 242.342 103.07 251.342 106.5 260.062C112.71 269.842 118.87 279.502 125 289.062Z" fill="#080808"/>
<path fill-rule="evenodd" clip-rule="evenodd" d="M343 220.062C347.7 226.122 351.36 232.792 354 240.062C341.84 248.642 329.51 256.972 317 265.062C313.24 258.532 309.24 252.202 305 246.062C318.01 237.892 330.68 229.222 343 220.062Z" fill="#FD8D3E"/>
<path fill-rule="evenodd" clip-rule="evenodd" d="M378 296.062C373.87 297.962 369.87 300.132 366 302.562C361.4 303.852 356.74 304.682 352 305.062C352.07 302.012 353.07 299.342 355 297.062C361.5 293.642 367.84 289.982 374 286.062C381.13 280.832 386.63 274.172 390.5 266.062C395.83 259.392 401.17 252.732 406.5 246.062C407.25 244.922 407.08 243.922 406 243.062C398.45 239.822 396.45 234.652 400 227.562C402.67 226.892 405.33 226.892 408 227.562C409.18 230.072 411.01 231.912 413.5 233.062C420.63 229.232 423.63 231.232 422.5 239.062C420.65 242.402 417.82 243.732 414 243.062C408.19 265.032 396.19 282.702 378 296.062Z" fill="#070606"/>
<path fill-rule="evenodd" clip-rule="evenodd" d="M254.999 229.062C264.799 230.432 274.459 232.592 283.999 235.562C291.369 238.582 298.369 242.082 304.999 246.062C309.239 252.202 313.239 258.532 316.999 265.062C319.269 269.862 320.929 274.862 321.999 280.062C316.459 276.692 310.789 273.522 304.999 270.562C296.339 268.562 287.669 266.562 278.999 264.562C266.139 263.392 257.309 268.892 252.499 281.062C244.289 311.532 255.789 326.362 286.999 325.562C291.259 322.182 295.429 318.682 299.499 315.062C302.109 309.512 304.439 303.842 306.499 298.062C307.969 293.392 308.469 288.722 307.999 284.062C313.089 287.522 318.759 289.192 324.999 289.062C325.309 299.862 324.309 310.532 321.999 321.062C312.749 345.802 295.089 360.632 268.999 365.562C256.629 365.852 244.299 366.682 231.999 368.062C228.009 367.542 224.009 367.202 219.999 367.062C197.349 362.242 177.679 351.902 160.999 336.062C155.799 330.002 152.469 323.002 150.999 315.062C150.139 311.132 149.809 307.132 149.999 303.062C152.729 303.302 155.059 302.462 156.999 300.562C159.499 298.062 161.999 295.562 164.499 293.062C163.229 303.222 165.559 312.552 171.499 321.062C178.779 329.652 187.939 332.482 198.999 329.562C210.539 325.022 218.369 316.852 222.499 305.062C223.939 297.062 221.939 290.062 216.499 284.062C216.379 278.662 213.879 274.822 208.999 272.562C195.359 267.382 182.019 268.052 168.999 274.562C165.759 276.652 162.429 278.482 158.999 280.062C161.029 273.002 164.359 266.672 168.999 261.062C179.799 245.492 194.469 235.662 212.999 231.562C226.969 230.112 240.969 229.282 254.999 229.062Z" fill="#FDFCFD"/>
<path fill-rule="evenodd" clip-rule="evenodd" d="M354 240.062C361.82 251.702 367.49 264.372 371 278.062C365.67 284.392 360.33 290.732 355 297.062C345.12 306.612 334.12 314.612 322 321.062C324.31 310.532 325.31 299.862 325 289.062C326.52 288.372 327.52 287.202 328 285.562C326.79 282.852 324.79 281.022 322 280.062C320.93 274.862 319.27 269.862 317 265.062C329.51 256.972 341.84 248.642 354 240.062Z" fill="#4258DE"/>
<path fill-rule="evenodd" clip-rule="evenodd" d="M169 261.062C164.36 266.672 161.03 273.002 159 280.062C154.32 283.582 150.48 287.912 147.5 293.062C146.83 296.062 146.83 299.062 147.5 302.062C148.17 302.812 149 303.152 150 303.062C149.81 307.132 150.14 311.132 151 315.062C139.67 315.062 128.33 315.062 117 315.062C119 308.062 121 301.062 123 294.062C124.71 292.922 125.38 291.262 125 289.062C126.42 280.702 128.75 272.702 132 265.062C144.37 264.102 156.7 262.772 169 261.062Z" fill="#4359DD"/>
<path fill-rule="evenodd" clip-rule="evenodd" d="M322 280.061C324.79 281.021 326.79 282.851 328 285.561C327.52 287.201 326.52 288.371 325 289.061C318.76 289.191 313.09 287.521 308 284.061C308.47 288.721 307.97 293.391 306.5 298.061C304.44 303.841 302.11 309.511 299.5 315.061C295.43 318.681 291.26 322.181 287 325.561C255.79 326.361 244.29 311.531 252.5 281.061C257.31 268.891 266.14 263.391 279 264.561C287.67 266.561 296.34 268.561 305 270.561C310.79 273.521 316.46 276.691 322 280.061Z" fill="#050505"/>
<path fill-rule="evenodd" clip-rule="evenodd" d="M150.001 303.061C149.001 303.151 148.171 302.811 147.501 302.061C146.831 299.061 146.831 296.061 147.501 293.061C150.481 287.911 154.321 283.581 159.001 280.061C162.431 278.481 165.761 276.651 169.001 274.561C182.021 268.051 195.361 267.381 209.001 272.561C213.881 274.821 216.381 278.661 216.501 284.061C221.941 290.061 223.941 297.061 222.501 305.061C218.371 316.851 210.541 325.021 199.001 329.561C187.941 332.481 178.781 329.651 171.501 321.061C165.561 312.551 163.231 303.221 164.501 293.061C162.001 295.561 159.501 298.061 157.001 300.561C155.061 302.461 152.731 303.301 150.001 303.061Z" fill="#050505"/>
<path fill-rule="evenodd" clip-rule="evenodd" d="M267 273.062C270.79 272.372 273.95 273.372 276.5 276.062C276.98 281.432 276.65 286.762 275.5 292.062C274.67 292.892 273.83 293.732 273 294.562C269.67 295.232 266.33 295.232 263 294.562C261.33 291.962 259.5 289.462 257.5 287.062C256.79 284.592 257.13 282.262 258.5 280.062C261.13 277.352 263.96 275.022 267 273.062Z" fill="#F6F6F6"/>
<path fill-rule="evenodd" clip-rule="evenodd" d="M199 279.061C206.56 278.451 210.56 281.951 211 289.561C210.45 296.931 206.62 301.431 199.5 303.061C190.39 298.471 188.72 291.801 194.5 283.061C195.9 281.491 197.4 280.161 199 279.061Z" fill="#F6F6F6"/>
<path fill-rule="evenodd" clip-rule="evenodd" d="M371 278.062C372.37 280.502 373.37 283.162 374 286.062C367.84 289.982 361.5 293.642 355 297.062C360.33 290.732 365.67 284.392 371 278.062Z" fill="#F0883E"/>
<path fill-rule="evenodd" clip-rule="evenodd" d="M378 296.062C378.86 297.982 379.53 299.982 380 302.062C366.23 318.012 350.23 331.172 332 341.562C308.28 354.422 284.28 366.752 260 378.562C246.19 383.182 232.19 387.182 218 390.562C214.03 391.602 210.37 393.102 207 395.062C206 395.062 205 395.062 204 395.062C192.09 390.292 179.76 387.122 167 385.562C167.23 385.162 167.56 384.992 168 385.062C179.25 381.592 190.25 377.422 201 372.562C207.21 370.212 213.54 368.382 220 367.062C224.01 367.202 228.01 367.542 232 368.062C244.3 366.682 256.63 365.852 269 365.562C295.09 360.632 312.75 345.802 322 321.062C334.12 314.612 345.12 306.612 355 297.062C353.07 299.342 352.07 302.012 352 305.062C356.74 304.682 361.4 303.852 366 302.562C369.87 300.132 373.87 297.962 378 296.062Z" fill="#FC8E3E"/>
<path fill-rule="evenodd" clip-rule="evenodd" d="M380 302.062C387.96 315.262 392.96 329.592 395 345.062C394.83 353.072 391.17 358.902 384 362.562C379.12 365.172 374.12 367.502 369 369.562C360.79 379.452 351.12 387.452 340 393.562C333.17 396.172 326.17 398.172 319 399.562C307.18 400.422 295.51 401.262 284 402.062C281 402.062 278 402.062 275 402.062C254.81 402.022 234.81 400.352 215 397.062C212.07 396.992 209.41 396.332 207 395.062C210.37 393.102 214.03 391.602 218 390.562C232.19 387.182 246.19 383.182 260 378.562C284.28 366.752 308.28 354.422 332 341.562C350.23 331.172 366.23 318.012 380 302.062Z" fill="#4158DE"/>
<path fill-rule="evenodd" clip-rule="evenodd" d="M117 315.062C128.33 315.062 139.67 315.062 151 315.062C152.47 323.002 155.8 330.002 161 336.062C144.7 337.022 128.37 337.352 112 337.062C113.04 329.562 114.71 322.232 117 315.062Z" fill="#FD8E3D"/>
<path fill-rule="evenodd" clip-rule="evenodd" d="M254 329.062C260.03 329.562 261.53 332.562 258.5 338.062C256.36 341.502 253.86 344.672 251 347.562C248 348.232 245 348.232 242 347.562C237.96 345.352 233.8 343.522 229.5 342.062C227.91 335.482 230.41 333.322 237 335.562C240.27 337.252 243.6 338.252 247 338.562C249.46 335.452 251.8 332.292 254 329.062Z" fill="#090909"/>
<path fill-rule="evenodd" clip-rule="evenodd" d="M161.001 336.062C177.681 351.902 197.351 362.242 220.001 367.062C213.541 368.382 207.211 370.212 201.001 372.562C190.251 377.422 179.251 381.592 168.001 385.062C158.061 382.892 148.061 380.392 138.001 377.562C128.061 372.952 119.231 366.782 111.501 359.062C107.641 351.752 107.811 344.412 112.001 337.062C128.371 337.352 144.701 337.022 161.001 336.062Z" fill="#4258DE"/>
<path fill-rule="evenodd" clip-rule="evenodd" d="M204 395.062C205 395.062 206 395.062 207 395.062C209.41 396.332 212.07 396.992 215 397.062C215.13 415.602 215.96 433.932 217.5 452.062C213.42 454.692 209.25 457.192 205 459.562C201 460.232 197 460.232 193 459.562C190.51 456.932 190.35 454.102 192.5 451.062C196.55 448.602 200.88 446.932 205.5 446.062C206.48 428.982 205.98 411.982 204 395.062Z" fill="#090909"/>
<path fill-rule="evenodd" clip-rule="evenodd" d="M275 402.062C278 402.062 281 402.062 284 402.062C286.72 416.342 289.06 430.672 291 445.062C297.08 444.462 301.74 446.632 305 451.562C300.35 459.222 293.68 461.562 285 458.562C283.21 457.782 281.71 456.612 280.5 455.062C280.12 437.232 278.28 419.562 275 402.062Z" fill="#040404"/>
</svg>
