<svg width="500" height="500" viewBox="0 0 500 500" fill="none" xmlns="http://www.w3.org/2000/svg">
<path fill-rule="evenodd" clip-rule="evenodd" d="M400 300.062C400.29 303.542 399.29 306.882 397 310.062C389.45 308.092 382.45 309.262 376 313.562C374.78 315.002 374.11 316.662 374 318.562C374.58 320.702 374.91 322.862 375 325.062C373.67 325.062 372.33 325.062 371 325.062C366.59 324.032 362.26 322.692 358 321.062C352.45 327.812 347.61 335.142 343.5 343.062C336.8 350.922 329.63 358.262 322 365.062C311.08 373.322 299.41 380.322 287 386.062C255.4 392.002 223.73 392.342 192 387.062C181.1 384.042 170.1 380.882 159 377.562C152.06 374.862 145.39 371.702 139 368.062C129.59 361.582 120.76 354.252 112.5 346.062C106.13 337.312 100.79 327.982 96.5002 318.062C88.7302 323.952 80.0602 327.952 70.5002 330.062C58.1902 329.422 52.8502 323.092 54.5002 311.062C62.5002 294.072 72.5002 278.412 84.5002 264.062C84.8702 247.322 86.2002 230.652 88.5002 214.062C91.9302 201.562 94.6002 188.892 96.5002 176.062C102.92 153.352 114.76 134.182 132 118.562C154.14 103.062 178.81 94.0615 206 91.5615C223.06 91.3015 240.06 90.1415 257 88.0615C293.3 88.5415 324.97 100.712 352 124.562C383.31 159.762 393.48 200.592 382.5 247.062C381.51 255.822 380.01 264.482 378 273.062C378.17 274.062 378.33 275.062 378.5 276.062C382.53 280.432 386.87 284.432 391.5 288.062C394.97 291.682 397.8 295.682 400 300.062Z" fill="#010101"/>
<path fill-rule="evenodd" clip-rule="evenodd" d="M268 155.062C267.78 152.882 268.62 151.212 270.5 150.062C271.04 144.092 268.2 141.092 262 141.062C261.58 140.342 260.92 139.842 260 139.562C251.13 138.702 242.8 140.202 235 144.062C228.43 145.552 221.77 146.722 215 147.562C211.81 148.592 210.47 150.752 211 154.062C203.98 148.022 200.81 140.352 201.5 131.062C206.47 119.832 214.97 116.002 227 119.562C232.75 121.272 238.08 123.772 243 127.062C246.3 125.002 249.3 122.502 252 119.562C257.03 116.542 262.37 114.372 268 113.062C280.3 114.852 285.46 121.852 283.5 134.062C280.27 142.522 275.11 149.522 268 155.062Z" fill="#F9F9F8"/>
<path fill-rule="evenodd" clip-rule="evenodd" d="M267 123.061C273.43 122.651 275.27 125.321 272.5 131.061C267.69 135.561 264.19 134.731 262 128.561C262.49 125.571 264.16 123.741 267 123.061Z" fill="#0E0E0E"/>
<path fill-rule="evenodd" clip-rule="evenodd" d="M220 127.061C223.6 126.501 225.6 128.001 226 131.561C225.25 136.991 222.25 139.321 217 138.561C214.52 133.971 215.52 130.131 220 127.061Z" fill="#121212"/>
<path fill-rule="evenodd" clip-rule="evenodd" d="M262 141.061C261.21 141.341 260.54 141.841 260 142.561C251.64 142.851 243.31 143.351 235 144.061C242.8 140.201 251.13 138.701 260 139.561C260.92 139.841 261.58 140.341 262 141.061Z" fill="#FFEA4D"/>
<path fill-rule="evenodd" clip-rule="evenodd" d="M262 141.062C268.2 141.092 271.04 144.092 270.5 150.062C268.62 151.212 267.78 152.882 268 155.062C261.98 163.822 253.81 169.492 243.5 172.062C238.03 170.612 232.53 169.112 227 167.562C223 164.892 219 162.232 215 159.562C213.06 158.132 211.73 156.292 211 154.062C210.47 150.752 211.81 148.592 215 147.562C221.77 146.722 228.43 145.552 235 144.062C243.31 143.352 251.64 142.852 260 142.562C260.54 141.842 261.21 141.342 262 141.062Z" fill="#FDC10C"/>
<path fill-rule="evenodd" clip-rule="evenodd" d="M238 199.062C261.07 197.952 283.4 201.452 305 209.562C340.38 226.532 350.55 253.372 335.5 290.062C331.13 297.442 325.63 303.942 319 309.562C302.34 324.732 283.34 336.062 262 343.562C248.44 346.012 234.77 346.682 221 345.562C208.15 342.462 195.48 338.802 183 334.562C174.78 329.352 167.45 323.012 161 315.562C152.75 310.592 147.25 303.422 144.5 294.062C143.89 280.892 145.22 267.892 148.5 255.062C149.5 253.062 150.5 251.062 151.5 249.062C159.01 240.882 166.18 232.382 173 223.562C184.95 214.242 198.29 207.572 213 203.562C221.46 202.022 229.79 200.522 238 199.062Z" fill="#FCFCFC"/>
<path fill-rule="evenodd" clip-rule="evenodd" d="M273 237.061C278.34 236.891 283.68 237.061 289 237.561C297.5 240.481 306.17 242.811 315 244.561C321 248.901 327.33 252.731 334 256.061C336.47 259.511 335.64 262.171 331.5 264.061C328.52 262.641 325.35 261.811 322 261.561C319.33 260.561 316.99 259.061 315 257.061C314.81 260.971 314.64 264.971 314.5 269.061C312.03 278.171 307.86 286.341 302 293.561C298.98 295.071 296.31 297.071 294 299.561C263.32 302.211 250.82 288.381 256.5 258.061C258.68 248.321 264.18 241.321 273 237.061Z" fill="#040404"/>
<path fill-rule="evenodd" clip-rule="evenodd" d="M184 240.062C194.4 239.092 204.4 240.592 214 244.562C218.12 247.302 220.29 251.132 220.5 256.062C225.94 262.062 227.94 269.062 226.5 277.062C219.74 297.162 205.91 305.662 185 302.562C174.58 297.242 168.41 288.742 166.5 277.062C166.14 272.692 166.14 268.362 166.5 264.062C162.63 269.102 157.8 272.772 152 275.062C150.47 275.032 149.3 274.362 148.5 273.062C147.68 269.602 148.02 266.262 149.5 263.062C152.3 259.262 155.46 255.762 159 252.562C166.9 247.332 175.23 243.162 184 240.062Z" fill="#050505"/>
<path fill-rule="evenodd" clip-rule="evenodd" d="M274 245.061C280.03 244.431 283.36 247.091 284 253.061C282.66 256.931 281.83 260.931 281.5 265.061C277.45 269.571 272.78 270.231 267.5 267.061C266.98 264.541 265.65 262.541 263.5 261.061C262.71 257.931 263.04 254.931 264.5 252.061C267.92 249.991 271.08 247.661 274 245.061Z" fill="#F4F4F4"/>
<path fill-rule="evenodd" clip-rule="evenodd" d="M203 250.062C209.91 250.132 213.91 253.632 215 260.562C214.28 264.832 212.61 268.662 210 272.062C200.29 277.892 194.96 275.062 194 263.562C195.13 257.782 198.13 253.282 203 250.062Z" fill="#F5F5F5"/>
<path fill-rule="evenodd" clip-rule="evenodd" d="M371 325.061C372.33 325.061 373.67 325.061 375 325.061C374.91 322.861 374.58 320.701 374 318.561C374.11 316.661 374.78 315.001 376 313.561C382.45 309.261 389.45 308.091 397 310.061C399.29 306.881 400.29 303.541 400 300.061C401 300.151 401.83 299.811 402.5 299.061C403.85 292.681 406.18 286.681 409.5 281.061C411.76 279.131 414.26 277.631 417 276.561C428.22 273.971 437.39 277.131 444.5 286.061C447.58 293.951 446.08 300.791 440 306.561C429.62 312.351 418.79 317.191 407.5 321.061C406.38 325.511 404.38 329.511 401.5 333.061C401.43 344.011 396.27 347.171 386 342.561C381.44 338.281 378.28 333.121 376.5 327.061C374.55 326.451 372.72 325.781 371 325.061Z" fill="#9D9D9D"/>
<path fill-rule="evenodd" clip-rule="evenodd" d="M423 288.061C428.71 287.431 430.71 289.761 429 295.061C421.79 296.861 419.79 294.531 423 288.061Z" fill="#090909"/>
<path fill-rule="evenodd" clip-rule="evenodd" d="M258 304.062C260.03 303.902 262.03 304.062 264 304.562C265.33 307.932 264.83 311.092 262.5 314.062C260.37 317.192 257.87 320.022 255 322.562C252.33 323.232 249.67 323.232 247 322.562C242.77 320.612 238.43 318.942 234 317.562C230.58 312.692 231.75 309.862 237.5 309.062C241.92 310.022 246.09 311.682 250 314.062C253.14 311.102 255.81 307.772 258 304.062Z" fill="#0A0A0A"/>
<path fill-rule="evenodd" clip-rule="evenodd" d="M322 365.062C331.16 367.062 339.33 371.062 346.5 377.062C352.28 384.772 352.44 392.602 347 400.562C327.67 409.032 309.67 406.702 293 393.562C290.38 391.452 288.38 388.952 287 386.062C299.41 380.322 311.08 373.322 322 365.062Z" fill="#FDC00C"/>
<path fill-rule="evenodd" clip-rule="evenodd" d="M139 368.062C145.39 371.702 152.06 374.862 159 377.562C170.1 380.882 181.1 384.042 192 387.062C190.21 389.362 188.21 391.522 186 393.562C169.43 401.702 152.1 407.702 134 411.562C117.52 411.472 112.36 403.642 118.5 388.062C123.24 379.152 130.07 372.492 139 368.062Z" fill="#FDC00B"/>
</svg>
