<svg width="500" height="500" viewBox="0 0 500 500" fill="none" xmlns="http://www.w3.org/2000/svg">
<path fill-rule="evenodd" clip-rule="evenodd" d="M308 171.061C305.94 175.946 302.28 178.78 297 179.561C292.33 180.228 287.67 180.228 283 179.561C278.78 178.2 274.61 176.7 270.5 175.061C265.39 178.211 259.89 179.377 254 178.561C253.47 177.869 252.81 177.369 252 177.061C246.68 180.931 240.85 181.931 234.5 180.061C232.57 181.692 230.74 183.526 229 185.561C221.88 188.502 217.22 186.335 215 179.061C214.67 174.072 212.51 170.072 208.5 167.061C202.06 155.066 196.39 142.732 191.5 130.061C181.56 103.077 171.73 76.077 162 49.0614C163.59 41.5989 167.92 39.4322 175 42.5614C179.63 48.5404 183.46 55.0404 186.5 62.0614C192.2 61.7911 196.87 63.7911 200.5 68.0614C203.84 76.5801 206.67 85.2467 209 94.0614C212.06 93.7172 215.06 93.0505 218 92.0614C211.81 76.9833 206.31 61.65 201.5 46.0614C198.17 40.7281 194.83 35.3947 191.5 30.0614C189.51 18.712 194.01 14.212 205 16.5614C213.91 26.1987 220.41 37.3654 224.5 50.0614C228.9 62.6056 232.9 75.2722 236.5 88.0614C238.58 94.6391 241.25 100.972 244.5 107.061C244.13 92.2306 243.3 77.3973 242 62.5614C241.98 57.9931 242.48 53.4931 243.5 49.0614C244.12 47.4453 245.12 46.1119 246.5 45.0614C246.83 39.3947 247.17 33.7281 247.5 28.0614C250.95 20.835 255.95 19.5016 262.5 24.0614C263.83 57.0681 266.17 90.0681 269.5 123.061C275.48 97.4473 282.48 72.1139 290.5 47.0614C294 40.5537 297.5 34.0537 301 27.5614C305.21 25.292 309.05 25.792 312.5 29.0614C314.36 34.0185 314.36 39.0185 312.5 44.0614C310.17 50.3947 307.83 56.7281 305.5 63.0614C302.33 83.5537 298.67 103.887 294.5 124.061C297.75 119.227 300.75 114.227 303.5 109.061C306.56 100.615 309.89 92.282 313.5 84.0614C316.41 80.0976 320.07 78.4309 324.5 79.0614C331.34 67.3776 337.68 55.3776 343.5 43.0614C348.45 38.8847 353.12 39.2181 357.5 44.0614C358.17 46.7281 358.17 49.3947 357.5 52.0614C355.83 55.3947 354.17 58.7281 352.5 62.0614C351.47 68.8547 349.8 75.5214 347.5 82.0614C333.84 111.549 320.67 141.215 308 171.061Z" fill="#4BAD4F"/>
<path fill-rule="evenodd" clip-rule="evenodd" d="M308 171.062C310.99 171.56 313.99 172.06 317 172.562C330.04 180.748 343.37 188.415 357 195.562C362.74 200.515 368.57 205.348 374.5 210.062C380.82 222.33 384.82 235.33 386.5 249.062C389.77 271.066 389.77 293.066 386.5 315.062C385.67 317.562 384.83 320.062 384 322.562C391.85 344.872 393.68 367.706 389.5 391.062C388.81 391.587 388.31 392.254 388 393.062C392.21 397.158 394.55 402.158 395 408.062C395.21 412.564 393.21 414.397 389 413.562C387.05 410.276 384.72 407.276 382 404.562C376.95 403.353 371.95 402.02 367 400.562C365.57 398.295 365.9 396.295 368 394.562C371.69 394.142 375.36 393.642 379 393.062C382.1 375.917 381.6 358.917 377.5 342.062C375.96 346.518 374.13 350.851 372 355.062C370.65 356.512 368.98 357.179 367 357.062C362.99 357.228 358.99 357.061 355 356.562C349.27 352.03 342.94 348.53 336 346.062C322.06 351.804 308.39 351.304 295 344.562C290.96 341.541 286.62 339.041 282 337.062C275.89 339.283 269.89 341.783 264 344.562C258.97 346.277 253.81 347.11 248.5 347.062C235.24 344.643 221.9 342.643 208.5 341.062C186.96 342.514 165.46 342.181 144 340.062C139.98 333.327 137.48 325.994 136.5 318.062C131.5 325.062 126.5 332.062 121.5 339.062C120.87 344.776 121.2 350.443 122.5 356.062C127.03 359.519 132.19 361.519 138 362.062C143.3 361.218 148.63 360.885 154 361.062C160.26 360.539 165.76 362.205 170.5 366.062C170.82 370.279 169.99 374.279 168 378.062C165.89 382.744 162.89 386.911 159 390.562C156.13 392.019 153.13 392.352 150 391.562C148.9 389.064 149.07 386.564 150.5 384.062C152.33 380.895 154.17 377.729 156 374.562C97.4701 370.899 89.6401 348.399 132.5 307.062C125.34 267.233 135.84 233.066 164 204.562C170.94 200.622 177.6 196.289 184 191.562C193.94 186.252 204.27 182.086 215 179.062C217.22 186.336 221.88 188.503 229 185.562C230.74 183.527 232.57 181.693 234.5 180.062C240.85 181.932 246.68 180.932 252 177.062C252.81 177.37 253.47 177.87 254 178.562C259.89 179.378 265.39 178.212 270.5 175.062C274.61 176.701 278.78 178.201 283 179.562C287.67 180.229 292.33 180.229 297 179.562C302.28 178.781 305.94 175.947 308 171.062Z" fill="#9B27AF"/>
<path fill-rule="evenodd" clip-rule="evenodd" d="M244.999 217.062C266.049 218.657 287.049 220.824 307.999 223.562C323.449 226.035 334.619 234.202 341.499 248.062C342.399 252.1 344.069 255.767 346.499 259.062C350.829 274.57 347.329 288.07 335.999 299.562C325.719 305.217 314.719 308.55 302.999 309.562C267.939 310.421 232.939 309.421 197.999 306.562C184.879 302.164 178.879 292.997 179.999 279.062C179.109 253.32 190.439 235.486 213.999 225.562C224.309 222.143 234.639 219.309 244.999 217.062Z" fill="#FCFBFC"/>
<path fill-rule="evenodd" clip-rule="evenodd" d="M286 235.061C291.01 234.895 296.01 235.062 301 235.561C307.25 237.52 313.59 239.186 320 240.561C326.6 244.013 332.6 248.18 338 253.061C337.16 255.066 335.66 256.066 333.5 256.061C328.67 255.936 324.5 254.269 321 251.061C321.06 262.683 317.06 272.849 309 281.561C306.18 282.899 303.52 284.399 301 286.061C278.09 285.98 268.93 274.647 273.5 252.061C275.27 244.465 279.44 238.798 286 235.061Z" fill="#030303"/>
<path fill-rule="evenodd" clip-rule="evenodd" d="M215.001 237.062C224.121 236.162 232.781 237.662 241.001 241.562C243.331 247.583 246.161 253.416 249.501 259.062C249.111 268.677 245.281 276.844 238.001 283.562C220.021 293.321 207.851 288.488 201.501 269.062C200.971 264.653 200.971 260.319 201.501 256.062C198.631 259.266 195.461 262.099 192.001 264.562C190.061 265.305 188.231 265.138 186.501 264.062C185.831 261.729 185.831 259.395 186.501 257.062C189.001 253.895 191.501 250.729 194.001 247.562C200.551 243 207.551 239.5 215.001 237.062Z" fill="#040404"/>
<path fill-rule="evenodd" clip-rule="evenodd" d="M287 241.062C290.77 240.384 293.61 241.718 295.5 245.062C295.83 249.089 295.5 253.089 294.5 257.062C291.59 259.956 288.09 260.789 284 259.562C279.86 256.777 278.36 252.944 279.5 248.062C281.94 245.606 284.44 243.272 287 241.062Z" fill="#F1F1F1"/>
<path fill-rule="evenodd" clip-rule="evenodd" d="M231 245.062C240.63 247.949 242.46 253.615 236.5 262.062C229.38 267.769 224.88 265.935 223 256.562C223.86 251.299 226.53 247.466 231 245.062Z" fill="#F6F6F6"/>
<path fill-rule="evenodd" clip-rule="evenodd" d="M275 288.061C277.81 287.964 279.81 289.13 281 291.561C279.08 296.06 276.42 300.06 273 303.561C270.33 304.228 267.67 304.228 265 303.561C261.65 301.633 258.15 300.133 254.5 299.061C253.76 297.12 253.92 295.287 255 293.561C260.06 293.932 265.06 294.598 270 295.561C271.8 293.118 273.47 290.618 275 288.061Z" fill="#0D0D0D"/>
<path fill-rule="evenodd" clip-rule="evenodd" d="M144 340.062C146.53 347.461 149.87 354.461 154 361.062C148.63 360.885 143.3 361.218 138 362.062C132.19 361.519 127.03 359.519 122.5 356.062C121.2 350.443 120.87 344.776 121.5 339.062C126.5 332.062 131.5 325.062 136.5 318.062C137.48 325.994 139.98 333.327 144 340.062Z" fill="#040204"/>
<path fill-rule="evenodd" clip-rule="evenodd" d="M367 357.062C364.78 361.834 362.28 366.5 359.5 371.062C347.28 384.616 334.45 397.449 321 409.562C313.19 414.03 305.35 418.53 297.5 423.062C297 437.725 296.83 452.392 297 467.062C299.96 466.501 302.8 465.501 305.5 464.062C308.42 465.317 311.09 466.984 313.5 469.062C314.4 471.587 313.9 473.754 312 475.562C304.28 478.517 296.44 481.017 288.5 483.062C285.75 481.573 283.42 479.573 281.5 477.062C281 461.732 280.83 446.399 281 431.062C277.31 431.738 273.98 433.238 271 435.562C268.67 435.729 266.33 435.895 264 436.062C253.56 434.6 243.23 432.6 233 430.062C232.63 441.061 232.29 452.061 232 463.062C240.16 462.89 246.33 466.223 250.5 473.062C251.4 475.587 250.9 477.754 249 479.562C246 480.229 243 480.229 240 479.562C234.74 478.177 229.41 477.177 224 476.562C220.89 472.882 218.72 468.715 217.5 464.062C217.17 449.062 216.83 434.062 216.5 419.062C211.94 415.502 207.1 412.335 202 409.562C198.64 403.872 193.97 399.539 188 396.562C181.16 390.557 174.5 384.391 168 378.062C169.99 374.279 170.82 370.279 170.5 366.062C165.76 362.205 160.26 360.539 154 361.062C149.87 354.461 146.53 347.461 144 340.062C165.46 342.181 186.96 342.514 208.5 341.062C221.9 342.643 235.24 344.643 248.5 347.062C253.81 347.11 258.97 346.277 264 344.562C269.89 341.783 275.89 339.283 282 337.062C286.62 339.041 290.96 341.541 295 344.562C308.39 351.304 322.06 351.804 336 346.062C342.94 348.53 349.27 352.03 355 356.562C358.99 357.061 362.99 357.228 367 357.062Z" fill="#FDFDFD"/>
</svg>
