<svg width="500" height="500" viewBox="0 0 500 500" fill="none" xmlns="http://www.w3.org/2000/svg">
<path fill-rule="evenodd" clip-rule="evenodd" d="M323 74.0612C333.011 72.1512 341.177 75.1512 347.5 83.0612C354.213 96.1612 359.547 109.831 363.5 124.061C364.167 129.391 364.167 134.731 363.5 140.061C361.614 145.921 360.281 151.921 359.5 158.061C357.679 164.691 355.179 171.031 352 177.061C354.153 183.281 355.987 189.621 357.5 196.061C359.072 207.451 361.072 218.791 363.5 230.061C365.618 250.091 365.451 270.091 363 290.061C371.015 290.851 378.681 289.691 386 286.561C390.527 281.671 394.693 276.501 398.5 271.061C401.636 262.791 405.302 254.791 409.5 247.061C418.497 235.181 429.33 233.021 442 240.561C452.43 251.301 454.93 263.801 449.5 278.061C444.315 290.251 436.482 300.411 426 308.561C412.959 318.421 398.959 326.751 384 333.561C369.905 337.721 355.572 339.061 341 337.561C336.112 343.691 330.778 349.361 325 354.561C308.073 367.691 289.407 377.691 269 384.561C267.195 386.961 264.862 388.631 262 389.561C241.811 395.921 221.144 398.251 200 396.561C183.343 394.861 166.676 393.191 150 391.561C128.042 384.351 107.042 375.021 87.0003 363.561C74.2049 354.431 64.7049 342.591 58.5003 328.061C50.4211 307.711 46.9211 286.541 48.0003 264.561C47.5008 240.061 50.0008 215.891 55.5003 192.061C57.5612 185.211 60.3945 178.711 64.0003 172.561C59.9401 165.261 57.7735 157.431 57.5003 149.061C57.0395 133.411 59.0395 118.081 63.5003 103.061C69.3036 95.9212 75.1369 88.7512 81.0003 81.5612C84.9515 78.4712 89.4513 76.9712 94.5003 77.0612C110.785 78.0512 126.285 81.8812 141 88.5612C151.494 93.9712 161.827 99.6412 172 105.561C174.667 106.231 177.333 106.231 180 105.561C183.844 103.971 187.844 102.971 192 102.561C216.771 100.011 240.605 103.511 263.5 113.061C279.655 94.4012 299.488 81.4012 323 74.0612Z" fill="#010101"/>
<path fill-rule="evenodd" clip-rule="evenodd" d="M196 191.061C219.834 189.171 243.167 191.671 266 198.561C282.714 204.331 297.214 213.491 309.5 226.061C311.754 229.571 313.754 233.231 315.5 237.061C316.173 242.081 317.84 246.751 320.5 251.061C321.868 254.301 322.201 257.631 321.5 261.061C313.055 255.611 304.888 249.781 297 243.561C287.677 240.231 278.343 236.901 269 233.561C261.702 230.981 254.369 230.651 247 232.561C235.604 239.141 228.437 248.971 225.5 262.061C223.427 274.501 225.427 286.171 231.5 297.061C241.52 304.241 252.687 308.571 265 310.061C269.638 306.741 274.638 303.901 280 301.561C281.833 299.731 283.667 297.891 285.5 296.061C290.012 288.371 294.012 280.371 297.5 272.061C297.137 268.031 297.304 264.031 298 260.061C304.141 266.981 311.808 270.151 321 269.561C321.626 268.811 322.126 267.981 322.5 267.061C320.952 291.991 310.119 311.821 290 326.561C279.664 333.401 268.997 339.731 258 345.561C241.083 350.861 223.75 352.861 206 351.561C167.891 352.421 135.058 339.921 107.5 314.061C102.427 307.181 99.0943 299.521 97.5003 291.061C97.1063 281.011 97.6063 271.011 99.0003 261.061C101.82 261.311 104.486 260.811 107 259.561C111.182 256.631 115.182 253.471 119 250.061C119.333 250.561 119.667 251.061 120 251.561C118.137 255.511 117.137 259.681 117 264.061C117.667 277.231 123 288.061 133 296.561C151.877 305.301 168.044 301.801 181.5 286.061C183.444 282.451 185.777 279.121 188.5 276.061C192.563 265.371 191.23 255.371 184.5 246.061C184.722 241.241 183.222 237.071 180 233.561C160.904 222.141 141.238 221.141 121 230.561C117.621 232.301 114.288 234.131 111 236.061C110.667 235.731 110.333 235.391 110 235.061C120.774 218.991 135.108 207.161 153 199.561C158.333 197.891 163.667 196.231 169 194.561C178.224 193.901 187.224 192.731 196 191.061Z" fill="#FCFCFC"/>
<path fill-rule="evenodd" clip-rule="evenodd" d="M162 239.062C175.697 238.532 180.197 244.862 175.5 258.062C172.05 265.552 166.217 268.712 158 267.562C152.447 262.942 150.614 257.112 152.5 250.062C154.814 245.582 157.98 241.922 162 239.062Z" fill="#F7F7F7"/>
<path fill-rule="evenodd" clip-rule="evenodd" d="M249.001 241.062C256.053 240.402 260.386 243.402 262.001 250.062C260.371 254.982 259.038 259.982 258.001 265.062C252.398 269.922 246.565 270.262 240.501 266.062C239.6 263.492 238.267 261.162 236.501 259.062C235.461 255.032 236.127 251.362 238.501 248.062C242.378 246.172 245.878 243.842 249.001 241.062Z" fill="#F6F6F6"/>
<path fill-rule="evenodd" clip-rule="evenodd" d="M224 309.061C229.826 308.721 232.326 311.381 231.5 317.061C228.045 322.851 223.545 327.681 218 331.561C214.572 332.261 211.238 331.931 208 330.561C202.884 327.251 197.717 324.091 192.5 321.061C191.359 313.551 194.526 311.051 202 313.561C205.93 317.541 210.596 319.541 216 319.561C218.883 316.181 221.549 312.681 224 309.061Z" fill="#0A0A0A"/>
<path fill-rule="evenodd" clip-rule="evenodd" d="M314.001 415.062C311.542 410.752 310.542 406.082 311.001 401.062C314.257 390.042 319.923 380.542 328.001 372.562C331.271 371.572 334.604 370.732 338.001 370.062C335.204 362.972 337.204 357.812 344.001 354.562C347.796 353.722 351.462 354.062 355.001 355.562C361.341 360.052 364.174 366.212 363.501 374.062C367.141 363.732 374.308 359.232 385.001 360.562C385.834 361.392 386.668 362.232 387.501 363.062C388.208 371.532 386.375 379.362 382.001 386.562C383.123 389.972 383.29 393.472 382.501 397.062C370.14 424.192 349.973 432.352 322.001 421.562C319.17 419.562 316.504 417.392 314.001 415.062Z" fill="#617D8A"/>
<path fill-rule="evenodd" clip-rule="evenodd" d="M348 375.062C355.83 376.392 356.997 380.052 351.5 386.062C347.697 389.132 344.864 388.472 343 384.062C344.514 380.962 346.181 377.962 348 375.062Z" fill="#090C0D"/>
<path fill-rule="evenodd" clip-rule="evenodd" d="M369 381.061C372.149 380.771 375.149 381.271 378 382.561C379.482 385.151 379.148 387.491 377 389.561C368.336 391.741 365.669 388.911 369 381.061Z" fill="#070A0B"/>
<path fill-rule="evenodd" clip-rule="evenodd" d="M311.001 401.062C310.542 406.082 311.542 410.752 314.001 415.062C308.518 417.842 302.851 420.342 297.001 422.562C285.497 425.882 274.997 424.052 265.501 417.062C264.605 414.532 265.105 412.372 267.001 410.562C280.262 408.382 293.595 406.042 307.001 403.562C308.194 402.472 309.528 401.632 311.001 401.062Z" fill="#FDB1AF"/>
</svg>
