<svg width="500" height="500" viewBox="0 0 500 500" fill="none" xmlns="http://www.w3.org/2000/svg">
<path fill-rule="evenodd" clip-rule="evenodd" d="M271 267.061C271.83 266.231 272.66 266.561 273.5 268.061C280.59 278.571 287.92 288.901 295.5 299.061C302.01 317.261 309.67 334.921 318.5 352.061C325.3 361.501 332.47 370.671 340 379.561C345.66 383.791 351.99 385.121 359 383.561C361.61 378.841 364.11 374.001 366.5 369.061C368.43 365.681 370.93 362.841 374 360.561C382.95 359.481 391.95 358.641 401 358.061C403.84 352.731 403.34 347.731 399.5 343.061C398.45 337.441 397.78 331.781 397.5 326.061C396.56 322.571 395.22 319.231 393.5 316.061C375.04 286.921 353.54 260.081 329 235.561C325 232.891 321 230.231 317 227.561C316.25 226.891 315.91 226.061 316 225.061C325.62 222.261 332.96 216.591 338 208.061C342.45 210.791 347.12 213.291 352 215.561C363.58 219.211 375.25 222.551 387 225.561C393.35 225.851 399.69 226.351 406 227.061C410.89 226.531 415.06 224.531 418.5 221.061C434.83 190.241 426.33 170.081 393 160.561C384.43 158.751 375.76 157.581 367 157.061C384.51 150.051 397.34 138.051 405.5 121.061C411.97 115.791 416.13 109.121 418 101.061C415.73 91.9614 409.9 86.9614 400.5 86.0614C382.59 90.2714 365.75 97.1014 350 106.561C341.55 113.631 335.71 122.461 332.5 133.061C331.49 133.901 330.32 134.231 329 134.061C326.72 128.781 323.06 124.781 318 122.061C318.21 120.641 318.71 119.301 319.5 118.061C326.43 111.131 331.77 103.131 335.5 94.0614C352.8 77.4914 372.96 65.6614 396 58.5614C407.34 56.6214 418.68 56.6214 430 58.5614C433.94 60.4514 437.44 62.9514 440.5 66.0614C445.28 71.5214 449.28 77.5214 452.5 84.0614C455.14 94.4214 454.14 104.421 449.5 114.061C443.84 126.731 436.67 138.401 428 149.061C452.85 163.101 463.02 184.441 458.5 213.061C450.12 240.771 432.62 260.271 406 271.561C395.39 271.801 385.73 268.801 377 262.561C362.09 251.651 347.75 239.981 334 227.561C333.02 226.971 332.35 227.301 332 228.561C333.82 231.721 335.65 234.881 337.5 238.061C358.56 257.221 377.89 277.891 395.5 300.061C399.83 307.391 404.17 314.731 408.5 322.061C414.83 328.391 421.17 334.731 427.5 341.061C435.94 351.661 437.11 362.991 431 375.061C417.93 375.351 407.1 380.351 398.5 390.061C392.74 395.821 387.74 402.151 383.5 409.061C381.24 415.531 378.4 421.701 375 427.561C369.11 430.141 363.11 430.471 357 428.561C350.76 426.441 344.76 423.781 339 420.561C329.08 409.571 321.58 397.071 316.5 383.061C308.11 357.271 297.77 332.271 285.5 308.061C280.76 294.331 275.92 280.671 271 267.061Z" fill="#F44337"/>
<path fill-rule="evenodd" clip-rule="evenodd" d="M338 208.062C340.49 203.752 342.99 199.422 345.5 195.062C350.84 182.342 349.68 170.342 342 159.062C342.7 154.782 341.03 152.122 337 151.062C337.44 151.132 337.77 150.962 338 150.562C333.22 146.052 330.22 140.552 329 134.062C330.32 134.232 331.49 133.902 332.5 133.062C335.71 122.462 341.55 113.632 350 106.562C365.75 97.1015 382.59 90.2715 400.5 86.0615C409.9 86.9615 415.73 91.9615 418 101.062C416.13 109.122 411.97 115.792 405.5 121.062C397.34 138.052 384.51 150.052 367 157.062C375.76 157.582 384.43 158.752 393 160.562C426.33 170.082 434.83 190.242 418.5 221.062C415.06 224.532 410.89 226.532 406 227.062C399.69 226.352 393.35 225.852 387 225.562C375.25 222.552 363.58 219.212 352 215.562C347.12 213.292 342.45 210.792 338 208.062Z" fill="#F67167"/>
<path fill-rule="evenodd" clip-rule="evenodd" d="M188.999 130.061C183.239 134.481 178.579 139.811 174.999 146.061C172.499 144.651 169.839 143.481 166.999 142.561C157.389 129.241 144.389 123.901 127.999 126.561C122.289 127.571 117.119 129.741 112.499 133.061C104.119 129.951 96.4594 131.291 89.4994 137.061C80.8094 152.321 83.8094 164.981 98.4994 175.061C106.059 187.601 117.229 194.771 131.999 196.561C120.369 207.661 113.369 221.161 110.999 237.061C110.879 242.271 112.709 246.601 116.499 250.061C122.209 268.511 133.709 273.671 150.999 265.561C153.329 263.891 155.669 262.231 157.999 260.561C168.979 250.091 179.309 239.251 188.999 228.061C195.509 232.891 202.509 236.891 209.999 240.061C209.419 243.671 207.579 246.671 204.499 249.061C203.639 250.651 202.969 252.311 202.499 254.061C199.799 268.211 196.459 282.211 192.499 296.061C191.139 306.691 190.139 317.361 189.499 328.061C184.319 346.041 180.159 364.201 176.999 382.561C177.489 386.221 178.829 389.551 180.999 392.561C189.589 391.351 198.259 390.181 206.999 389.061C218.629 388.701 226.959 393.701 231.999 404.061C234.669 405.391 237.329 405.391 239.999 404.061C241.669 400.211 242.839 396.211 243.499 392.061C245.129 375.341 247.129 358.671 249.499 342.061C252.759 335.281 255.429 328.281 257.499 321.061C262.359 302.321 266.199 283.651 268.999 265.061C269.119 271.811 269.949 278.481 271.499 285.061C272.169 302.731 272.169 320.391 271.499 338.061C268.509 362.031 265.839 386.031 263.499 410.061C262.249 419.231 260.249 428.231 257.499 437.061C253.729 439.431 249.729 441.431 245.499 443.061C240.429 440.271 235.589 437.111 230.999 433.561C209.989 423.761 187.989 420.421 164.999 423.561C161.309 420.871 158.809 417.371 157.499 413.061C156.559 405.401 156.219 397.741 156.499 390.061C163.929 359.501 170.929 328.841 177.499 298.061C179.739 290.351 181.739 282.691 183.499 275.061C171.139 291.111 155.309 301.941 135.999 307.561C89.9294 309.631 73.4294 288.461 86.4994 244.061C91.0994 233.691 96.5994 223.861 102.999 214.561C56.9794 208.331 36.4794 182.171 41.4994 136.061C49.6994 96.8713 72.8694 84.0313 110.999 97.5613C134.439 105.501 158.109 112.671 181.999 119.061C185.589 121.911 187.929 125.581 188.999 130.061Z" fill="#F44336"/>
<path fill-rule="evenodd" clip-rule="evenodd" d="M317.999 122.062C323.059 124.782 326.719 128.782 328.999 134.062C330.219 140.552 333.219 146.052 337.999 150.562C337.769 150.962 337.439 151.132 336.999 151.062C330.429 147.942 323.759 145.112 316.999 142.562C308.499 141.392 299.999 140.232 291.499 139.062C279.269 140.282 271.599 146.952 268.499 159.062C266.519 171.292 269.019 182.462 275.999 192.562C285.409 197.612 295.409 199.282 305.999 197.562C310.209 194.052 314.039 190.222 317.499 186.062C320.169 178.882 322.339 171.542 323.999 164.062C323.489 161.682 322.819 159.342 321.999 157.062C322.499 156.732 322.999 156.392 323.499 156.062C329.369 159.182 335.539 160.182 341.999 159.062C349.679 170.342 350.839 182.342 345.499 195.062C342.989 199.422 340.489 203.752 337.999 208.062C332.959 216.592 325.619 222.262 315.999 225.062C298.239 231.262 280.239 236.762 261.999 241.562C248.739 243.732 235.399 244.402 221.999 243.562C217.869 242.702 213.869 241.532 209.999 240.062C202.509 236.892 195.509 232.892 188.999 228.062C184.889 224.452 181.729 220.112 179.499 215.062C176.299 205.542 173.799 195.882 171.999 186.062C173.759 185.492 175.419 184.652 176.999 183.562C179.129 180.432 181.629 177.602 184.499 175.062C184.829 179.062 185.169 183.062 185.499 187.062C192.409 207.432 205.909 213.602 225.999 205.562C234.929 198.712 240.259 189.712 241.999 178.562C241.169 172.082 238.339 166.582 233.499 162.062C232.149 154.722 227.649 150.892 219.999 150.562C199.909 148.612 183.579 155.442 170.999 171.062C170.309 162.362 171.639 154.032 174.999 146.062C178.579 139.812 183.239 134.482 188.999 130.062C202.759 119.192 218.419 112.692 235.999 110.562C258.889 109.442 281.559 111.112 303.999 115.562C308.819 117.442 313.489 119.612 317.999 122.062Z" fill="#FDFCFC"/>
<path fill-rule="evenodd" clip-rule="evenodd" d="M174.999 146.062C171.639 154.032 170.309 162.362 170.999 171.062C168.719 173.802 167.379 176.962 166.999 180.562C166.769 184.162 168.439 186.002 171.999 186.062C173.799 195.882 176.299 205.542 179.499 215.062C181.729 220.112 184.889 224.452 188.999 228.062C179.309 239.252 168.979 250.092 157.999 260.562C155.669 262.232 153.329 263.892 150.999 265.562C133.709 273.672 122.209 268.512 116.499 250.062C112.709 246.602 110.879 242.272 110.999 237.062C113.369 221.162 120.369 207.662 131.999 196.562C117.229 194.772 106.059 187.602 98.4992 175.062C83.8092 164.982 80.8092 152.322 89.4992 137.062C96.4592 131.292 104.119 129.952 112.499 133.062C117.119 129.742 122.289 127.572 127.999 126.562C144.389 123.902 157.389 129.242 166.999 142.562C169.839 143.482 172.499 144.652 174.999 146.062Z" fill="#F67167"/>
<path fill-rule="evenodd" clip-rule="evenodd" d="M337 151.062C341.03 152.122 342.7 154.782 342 159.062C335.54 160.182 329.37 159.182 323.5 156.062C323 156.392 322.5 156.732 322 157.062C322.82 159.342 323.49 161.682 324 164.062C322.34 171.542 320.17 178.882 317.5 186.062C314.04 190.222 310.21 194.052 306 197.562C295.41 199.282 285.41 197.612 276 192.562C269.02 182.462 266.52 171.292 268.5 159.062C271.6 146.952 279.27 140.282 291.5 139.062C300 140.232 308.5 141.392 317 142.562C323.76 145.112 330.43 147.942 337 151.062Z" fill="#050505"/>
<path fill-rule="evenodd" clip-rule="evenodd" d="M283 148.062C286.79 147.372 289.95 148.372 292.5 151.062C293.17 156.062 293.17 161.062 292.5 166.062C289.05 169.962 284.89 170.962 280 169.062C278.05 166.832 276.21 164.502 274.5 162.062C273.79 159.592 274.13 157.262 275.5 155.062C278.22 152.832 280.72 150.502 283 148.062Z" fill="#F5F5F5"/>
<path fill-rule="evenodd" clip-rule="evenodd" d="M172 186.061C168.44 186.001 166.77 184.161 167 180.561C167.38 176.961 168.72 173.801 171 171.061C183.58 155.441 199.91 148.611 220 150.561C227.65 150.891 232.15 154.721 233.5 162.061C238.34 166.581 241.17 172.081 242 178.561C240.26 189.711 234.93 198.711 226 205.561C205.91 213.601 192.41 207.431 185.5 187.061C185.17 183.061 184.83 179.061 184.5 175.061C181.63 177.601 179.13 180.431 177 183.561C175.42 184.651 173.76 185.491 172 186.061Z" fill="#050404"/>
<path fill-rule="evenodd" clip-rule="evenodd" d="M217 159.061C224.95 157.701 228.95 161.031 229 169.061C228.81 177.781 224.48 181.951 216 181.561C207.96 173.701 208.29 166.201 217 159.061Z" fill="#F6F6F6"/>
<path fill-rule="evenodd" clip-rule="evenodd" d="M274.999 203.062C277.979 203.202 279.979 204.702 280.999 207.562C279.199 213.022 276.199 217.692 271.999 221.562C270.769 222.342 269.439 222.842 267.999 223.062C261.849 221.722 256.019 219.722 250.499 217.062C249.359 214.032 250.189 211.872 252.999 210.562C258.099 211.152 263.099 212.152 267.999 213.562C270.199 209.882 272.529 206.382 274.999 203.062Z" fill="#0F0F0F"/>
<path fill-rule="evenodd" clip-rule="evenodd" d="M316 225.062C315.91 226.062 316.25 226.892 317 227.562C321 230.232 325 232.892 329 235.562C353.54 260.082 375.04 286.922 393.5 316.062C395.22 319.232 396.56 322.572 397.5 326.062C397.78 331.782 398.45 337.442 399.5 343.062C403.34 347.732 403.84 352.732 401 358.062C391.95 358.642 382.95 359.482 374 360.562C370.93 362.842 368.43 365.682 366.5 369.062C364.11 374.002 361.61 378.842 359 383.562C351.99 385.122 345.66 383.792 340 379.562C332.47 370.672 325.3 361.502 318.5 352.062C309.67 334.922 302.01 317.262 295.5 299.062C287.92 288.902 280.59 278.572 273.5 268.062C272.66 266.562 271.83 266.232 271 267.062C270.23 266.302 269.73 265.302 269.5 264.062C269.1 264.292 268.93 264.622 269 265.062C266.2 283.652 262.36 302.322 257.5 321.062C255.43 328.282 252.76 335.282 249.5 342.062C247.13 358.672 245.13 375.342 243.5 392.062C242.84 396.212 241.67 400.212 240 404.062C237.33 405.392 234.67 405.392 232 404.062C226.96 393.702 218.63 388.702 207 389.062C198.26 390.182 189.59 391.352 181 392.562C178.83 389.552 177.49 386.222 177 382.562C180.16 364.202 184.32 346.042 189.5 328.062C190.14 317.362 191.14 306.692 192.5 296.062C196.46 282.212 199.8 268.212 202.5 254.062C202.97 252.312 203.64 250.652 204.5 249.062C207.58 246.672 209.42 243.672 210 240.062C213.87 241.532 217.87 242.702 222 243.562C235.4 244.402 248.74 243.732 262 241.562C280.24 236.762 298.24 231.262 316 225.062Z" fill="#F67167"/>
</svg>
