<svg width="500" height="500" viewBox="0 0 500 500" fill="none" xmlns="http://www.w3.org/2000/svg">
<path fill-rule="evenodd" clip-rule="evenodd" d="M315.001 327.061C311.021 330.051 306.691 332.551 302.001 334.561C300.901 335.331 300.901 336.161 302.001 337.061C294.391 342.191 286.061 345.691 277.001 347.561C237.861 350.831 200.531 344.001 165.001 327.061C161.701 324.741 158.371 322.411 155.001 320.061C141.781 310.311 132.451 297.641 127.001 282.061C118.811 285.361 110.481 288.191 102.001 290.561C93.9912 299.091 86.8212 308.261 80.5012 318.061C75.3512 324.881 68.5212 327.721 60.0012 326.561C56.1712 325.391 53.6712 322.891 52.5012 319.061C51.6512 314.931 51.9812 310.931 53.5012 307.061C67.4312 291.141 80.5912 274.641 93.0012 257.561C94.6712 256.561 96.3312 255.561 98.0012 254.561C107.261 251.761 116.591 249.261 126.001 247.061C124.341 237.481 123.341 227.811 123.001 218.061C114.931 216.941 106.931 215.781 99.0012 214.561C81.9012 231.981 61.9012 244.981 39.0012 253.561C27.3612 254.921 21.8612 249.751 22.5012 238.061C25.9512 232.271 30.4512 227.441 36.0012 223.561C44.6712 217.561 53.3312 211.561 62.0012 205.561C70.7012 197.201 79.0312 188.531 87.0012 179.561C96.2112 176.061 105.211 176.731 114.001 181.561C119.951 182.571 125.621 181.731 131.001 179.061C131.771 176.131 132.771 173.301 134.001 170.561C122.951 163.681 113.281 155.181 105.001 145.061C95.6212 153.271 85.2812 160.101 74.0012 165.561C69.0312 167.801 63.8712 169.301 58.5012 170.061C47.3612 168.121 43.7012 161.791 47.5012 151.061C59.1212 142.111 71.2912 133.941 84.0012 126.561C89.1812 121.041 95.1812 116.701 102.001 113.561C107.041 112.681 111.711 113.681 116.001 116.561C126.981 125.701 138.641 133.871 151.001 141.061C157.531 133.371 164.861 126.531 173.001 120.561C187.011 112.051 202.011 106.051 218.001 102.561C227.001 101.891 236.001 101.891 245.001 102.561C283.051 110.091 316.391 126.921 345.001 153.061C351.831 149.481 358.501 145.651 365.001 141.561C377.161 136.071 389.161 130.411 401.001 124.561C403.331 123.891 405.671 123.891 408.001 124.561C414.181 127.821 420.511 130.821 427.001 133.561C433.201 133.571 439.201 134.571 445.001 136.561C450.221 141.481 451.391 147.311 448.501 154.061C443.631 159.241 437.631 161.241 430.501 160.061C419.311 158.791 408.151 157.631 397.001 156.561C391.331 158.891 385.671 161.231 380.001 163.561C373.791 168.171 367.121 172.001 360.001 175.061C364.371 183.531 366.701 192.531 367.001 202.061C384.201 198.011 401.201 193.181 418.001 187.561C424.951 185.991 430.781 187.821 435.501 193.061C442.171 203.731 448.831 214.391 455.501 225.061C460.951 231.521 467.291 236.851 474.501 241.061C480.381 256.191 475.211 263.021 459.001 261.561C454.061 258.951 449.401 255.951 445.001 252.561C438.141 244.331 431.641 235.831 425.501 227.061C424.061 225.111 422.231 223.781 420.001 223.061C403.921 227.841 387.581 231.011 371.001 232.561C369.421 231.851 367.921 231.021 366.501 230.061C365.221 238.061 364.061 246.061 363.001 254.061C371.611 253.441 379.941 254.601 388.001 257.561C391.131 259.691 393.961 262.191 396.501 265.061C405.331 276.711 413.661 288.711 421.501 301.061C424.491 310.091 421.661 316.591 413.001 320.561C405.921 322.441 400.421 320.271 396.501 314.061C391.751 303.061 384.921 293.561 376.001 285.561C369.111 281.941 361.771 281.111 354.001 283.061C344.551 300.851 331.551 315.511 315.001 327.061Z" fill="#020101"/>
<path fill-rule="evenodd" clip-rule="evenodd" d="M224 160.062C231.79 160.812 233.46 164.312 229 170.562C222.5 172.062 220 169.562 221.5 163.062C222.54 162.192 223.38 161.192 224 160.062Z" fill="#E73F33"/>
<path fill-rule="evenodd" clip-rule="evenodd" d="M192 169.062C203.63 168.832 206.63 173.662 201 183.562C191.81 186.212 187.31 182.712 187.5 173.062C188.9 171.492 190.4 170.162 192 169.062Z" fill="#EE4135"/>
<path fill-rule="evenodd" clip-rule="evenodd" d="M298 169.062C304.49 168.192 306.99 170.862 305.5 177.062C300.5 181.452 297 180.452 295 174.062C295.59 172.142 296.59 170.472 298 169.062Z" fill="#E94033"/>
<path fill-rule="evenodd" clip-rule="evenodd" d="M318 188.061C321.35 187.891 324.68 188.061 328 188.561C331.36 191.591 331.86 195.091 329.5 199.061C322.58 202.681 317.75 200.851 315 193.561C315.36 191.371 316.36 189.531 318 188.061Z" fill="#EC4134"/>
<path fill-rule="evenodd" clip-rule="evenodd" d="M231.001 191.062C238.381 190.872 245.711 191.372 253.001 192.562C267.171 194.702 281.171 197.702 295.001 201.562C302.741 203.842 309.241 208.012 314.501 214.062C319.591 221.902 324.921 229.572 330.501 237.062C332.341 240.572 333.341 244.242 333.501 248.062C327.001 243.562 320.501 239.062 314.001 234.562C306.921 232.522 299.921 230.192 293.001 227.562C279.291 224.672 269.791 229.832 264.501 243.062C256.651 267.912 265.651 281.242 291.501 283.062C297.101 281.092 302.101 278.092 306.501 274.062C310.331 267.732 313.501 261.062 316.001 254.062C314.121 247.232 315.451 246.072 320.001 250.562C323.441 251.542 326.771 252.712 330.001 254.062C332.131 253.512 333.631 252.172 334.501 250.062C332.661 276.852 319.161 295.352 294.001 305.562C270.831 314.872 246.831 318.202 222.001 315.562C213.261 313.032 205.591 308.692 199.001 302.562C183.211 296.102 173.041 284.602 168.501 268.062C167.071 260.442 166.741 252.772 167.501 245.062C168.011 250.902 170.841 252.402 176.001 249.562C179.151 247.252 182.151 244.752 185.001 242.062C185.331 242.392 185.671 242.732 186.001 243.062C184.511 245.852 183.851 248.852 184.001 252.062C186.821 275.962 199.481 283.802 222.001 275.562C232.791 268.502 237.621 258.662 236.501 246.062C233.811 242.072 232.151 237.732 231.501 233.062C229.191 228.982 225.691 226.482 221.001 225.562C206.131 221.112 192.131 223.112 179.001 231.562C174.951 234.492 171.451 237.992 168.501 242.062C169.541 234.302 172.541 227.302 177.501 221.062C190.671 202.562 208.501 192.562 231.001 191.062Z" fill="#FBFBFB"/>
<path fill-rule="evenodd" clip-rule="evenodd" d="M217 233.061C223.51 232.571 226.84 235.571 227 242.061C226.72 246.781 224.72 250.621 221 253.561C213.72 255.811 209.72 252.981 209 245.061C210.16 240.071 212.83 236.071 217 233.061Z" fill="#F6F6F6"/>
<path fill-rule="evenodd" clip-rule="evenodd" d="M279 234.062C284.89 232.992 288.22 235.322 289 241.062C287.88 244.302 287.05 247.642 286.5 251.062C282.42 254.592 278.09 254.932 273.5 252.062C272.07 249.482 270.9 246.812 270 244.062C269.94 242.082 270.6 240.412 272 239.062C274.31 237.212 276.64 235.542 279 234.062Z" fill="#F6F6F6"/>
<path fill-rule="evenodd" clip-rule="evenodd" d="M262 284.061C267.18 283.071 269.01 285.071 267.5 290.061C265.33 294.891 261.83 298.391 257 300.561C254.95 300.881 252.95 300.551 251 299.561C247.22 297.251 243.38 295.091 239.5 293.061C238.24 287.481 240.41 285.651 246 287.561C248.93 288.941 251.76 290.441 254.5 292.061C257.68 290.041 260.18 287.371 262 284.061Z" fill="#0C0C0C"/>
<path fill-rule="evenodd" clip-rule="evenodd" d="M154.999 320.062C158.369 322.412 161.699 324.742 164.999 327.062C156.029 338.152 148.699 350.322 142.999 363.562C147.479 364.432 151.819 365.762 155.999 367.562C159.559 369.842 161.059 373.012 160.499 377.062C159.319 378.922 157.649 379.922 155.499 380.062C150.119 377.862 144.619 377.692 138.999 379.562C134.089 382.422 129.089 385.082 123.999 387.562C114.779 387.932 112.619 384.092 117.499 376.062C122.499 372.392 126.829 368.062 130.499 363.062C134.549 346.292 142.709 331.962 154.999 320.062Z" fill="#FEFCFA"/>
<path fill-rule="evenodd" clip-rule="evenodd" d="M314.999 327.062C320.059 337.942 323.889 349.272 326.499 361.062C326.999 367.082 326.829 373.082 325.999 379.062C334.139 378.532 340.139 381.862 343.999 389.062C343.369 390.822 342.369 392.322 340.999 393.562C335.809 392.312 330.469 391.982 324.999 392.562C319.159 394.062 313.329 395.562 307.499 397.062C301.789 396.672 299.789 393.672 301.499 388.062C303.799 386.132 305.639 383.802 306.999 381.062C308.569 380.252 310.239 379.922 311.999 380.062C313.539 364.572 310.209 350.232 301.999 337.062C300.899 336.162 300.899 335.332 301.999 334.562C306.689 332.552 311.019 330.052 314.999 327.062Z" fill="#FDFCFA"/>
</svg>
