<svg width="500" height="500" viewBox="0 0 500 500" fill="none" xmlns="http://www.w3.org/2000/svg">
<path fill-rule="evenodd" clip-rule="evenodd" d="M244 72.0621C256.16 70.8821 267.83 72.7221 279 77.5621C299.31 78.0521 317.31 84.5521 333 97.0621C337.36 94.0121 340.53 90.0121 342.5 85.0621C349.74 75.1821 359.24 71.6821 371 74.5621C383.57 79.0921 394.4 86.2621 403.5 96.0621C421.17 126.392 418 154.392 394 180.062C402.58 203.892 403.08 227.892 395.5 252.062C390.94 264.432 385.6 276.432 379.5 288.062C373.67 296.562 366.5 303.732 358 309.562C344.22 315.922 330.55 322.252 317 328.562C329.14 337.042 337.97 348.212 343.5 362.062C345.04 371.792 341.21 378.292 332 381.562C327.33 382.232 322.67 382.232 318 381.562C313.67 379.552 309.33 377.882 305 376.562C305.63 377.312 306.13 378.142 306.5 379.062C307.17 388.732 307.17 398.392 306.5 408.062C300.91 422.612 291.41 425.942 278 418.062C277.02 416.582 275.85 415.252 274.5 414.062C270.71 406.552 267.38 398.882 264.5 391.062C263.76 402.272 260.43 412.602 254.5 422.062C244.76 431.342 235.09 431.342 225.5 422.062C223.97 419.142 222.64 416.142 221.5 413.062C220.48 401.752 219.64 390.422 219 379.062C212.29 382.582 205.29 385.252 198 387.062C184.68 385.102 179.18 377.432 181.5 364.062C184.6 352.142 190.43 341.812 199 333.062C198.41 331.762 197.41 330.932 196 330.562C136.59 313.912 108.42 274.742 111.5 213.062C113.01 204.652 114.84 196.312 117 188.062C97.22 184.782 86.72 173.112 85.5 153.062C84.04 128.422 92.21 107.592 110 90.5621C124.12 79.9421 138.79 79.2821 154 88.5621C157.51 91.4121 161.01 94.2421 164.5 97.0621C187.72 78.1521 214.22 69.8221 244 72.0621Z" fill="#FEFEFE"/>
<path fill-rule="evenodd" clip-rule="evenodd" d="M298 94.0615C301.27 94.4415 304.1 95.7815 306.5 98.0615C306.99 103.552 304.49 105.392 299 103.562C294.03 100.872 293.7 97.7015 298 94.0615Z" fill="#0B0B0B"/>
<path fill-rule="evenodd" clip-rule="evenodd" d="M252 96.0622C254.84 97.4422 257.34 99.4422 259.5 102.062C259.69 105.102 259.02 107.772 257.5 110.062C261.29 116.662 265.79 122.662 271 128.062C269.98 133.322 267.32 134.322 263 131.062C259.51 126.092 256.01 121.092 252.5 116.062C248.14 121.912 243.64 127.582 239 133.062C234.64 136.312 231.97 135.312 231 130.062C234.59 125.292 238.42 120.632 242.5 116.062C243.23 113.692 244.07 111.362 245 109.062C241.42 108.612 238.25 107.282 235.5 105.062C234.83 103.732 234.83 102.392 235.5 101.062C237.02 100.402 238.19 99.4022 239 98.0622C239.11 97.4422 239.44 96.9422 240 96.5622C244.08 95.5622 248.08 95.4022 252 96.0622Z" fill="#0A0A0C"/>
<path fill-rule="evenodd" clip-rule="evenodd" d="M252 96.0622C265.75 93.9022 276.25 98.5722 283.5 110.062C284.54 114.092 283.87 117.762 281.5 121.062C278.39 124.012 274.89 126.342 271 128.062C265.79 122.662 261.29 116.662 257.5 110.062C259.02 107.772 259.69 105.102 259.5 102.062C257.34 99.4422 254.84 97.4422 252 96.0622Z" fill="#BAC2F1"/>
<path fill-rule="evenodd" clip-rule="evenodd" d="M194 98.0615C200.23 97.4715 203.39 100.142 203.5 106.062C197.96 109.212 194.12 107.712 192 101.562C192.36 100.132 193.03 98.9615 194 98.0615Z" fill="#0A0A0A"/>
<path fill-rule="evenodd" clip-rule="evenodd" d="M239 98.0615C238.19 99.4015 237.02 100.402 235.5 101.062C234.83 102.392 234.83 103.732 235.5 105.062C238.25 107.282 241.42 108.612 245 109.062C244.07 111.362 243.23 113.692 242.5 116.062C238.42 120.632 234.59 125.292 231 130.062C220.61 127.952 216.11 121.612 217.5 111.062C222.52 103.222 229.68 98.8815 239 98.0615Z" fill="#BBC3F2"/>
<path fill-rule="evenodd" clip-rule="evenodd" d="M316 109.062C320.33 110.112 324.66 110.282 329 109.562C332.51 111.472 333.68 114.302 332.5 118.062C326.33 122.402 319.5 124.232 312 123.562C307.32 117.192 308.65 112.352 316 109.062Z" fill="#FBBDB8"/>
<path fill-rule="evenodd" clip-rule="evenodd" d="M169 113.063C171.69 112.903 174.35 113.063 177 113.563C182.01 114.203 186.51 116.033 190.5 119.063C191.49 124.243 189.32 126.913 184 127.063C178.01 126.423 172.01 125.923 166 125.563C161.58 120.163 162.58 115.993 169 113.063Z" fill="#FBBEB9"/>
<path fill-rule="evenodd" clip-rule="evenodd" d="M263 131.062C255.16 133.702 247.16 134.372 239 133.062C243.64 127.582 248.14 121.912 252.5 116.062C256.01 121.092 259.51 126.092 263 131.062Z" fill="#B8C0EE"/>
<path fill-rule="evenodd" clip-rule="evenodd" d="M341 227.062C333.54 223.492 326.2 219.662 319 215.562C311.01 213.572 303.01 211.572 295 209.562C290.33 208.892 285.67 208.892 281 209.562C269.91 216.392 264.25 226.392 264 239.562C264.12 245.592 265.29 251.422 267.5 257.062C268.56 260.122 270.39 262.622 273 264.562C281.59 268.462 290.59 270.622 300 271.062C305.33 267.232 310.17 262.892 314.5 258.062C317.23 251.872 319.56 245.542 321.5 239.062C321.61 235.382 321.61 231.722 321.5 228.062C327.1 232.782 333.44 234.442 340.5 233.062C340.99 231.432 341.16 229.762 341 228.062C343.19 229.382 344.69 231.382 345.5 234.062C353.89 257.222 348.05 275.722 328 289.562C310.82 299.652 292.49 306.652 273 310.562C261.76 311.782 250.76 310.782 240 307.562C212.23 307.432 189.4 296.932 171.5 276.062C165.33 267.382 161.83 257.722 161 247.062C164.05 248.452 167.05 248.282 170 246.562C172.83 243.732 175.67 240.892 178.5 238.062C178.14 242.362 178.14 246.692 178.5 251.062C184.45 272.622 197.95 279.782 219 272.562C221.67 270.562 224.33 268.562 227 266.562C230.28 261.172 233.45 255.672 236.5 250.062C237.94 242.062 235.94 235.062 230.5 229.062C229.29 220.852 224.45 216.352 216 215.562C195.81 212.332 178.81 218.162 165 233.062C169.1 219.062 177.43 208.232 190 200.562C208.19 190.142 227.52 182.472 248 177.562C288.68 176.232 319.68 192.732 341 227.062Z" fill="#B8E7F0"/>
<path fill-rule="evenodd" clip-rule="evenodd" d="M341 227.062C341 227.392 341 227.732 341 228.062C341.16 229.762 340.99 231.432 340.5 233.062C333.44 234.442 327.1 232.782 321.5 228.062C321.61 231.722 321.61 235.382 321.5 239.062C319.56 245.542 317.23 251.872 314.5 258.062C310.17 262.892 305.33 267.232 300 271.062C290.59 270.622 281.59 268.462 273 264.562C270.39 262.622 268.56 260.122 267.5 257.062C265.29 251.422 264.12 245.592 264 239.562C264.25 226.392 269.91 216.392 281 209.562C285.67 208.892 290.33 208.892 295 209.562C303.01 211.572 311.01 213.572 319 215.562C326.2 219.662 333.54 223.492 341 227.062Z" fill="#040505"/>
<path fill-rule="evenodd" clip-rule="evenodd" d="M161 247.062C160.1 241.642 161.44 236.982 165 233.062C178.81 218.162 195.81 212.332 216 215.562C224.45 216.352 229.29 220.852 230.5 229.062C235.94 235.062 237.94 242.062 236.5 250.062C233.45 255.672 230.28 261.172 227 266.562C224.33 268.562 221.67 270.562 219 272.562C197.95 279.782 184.45 272.622 178.5 251.062C178.14 246.692 178.14 242.362 178.5 238.062C175.67 240.892 172.83 243.732 170 246.562C167.05 248.282 164.05 248.452 161 247.062Z" fill="#040505"/>
<path fill-rule="evenodd" clip-rule="evenodd" d="M280 218.062C284.1 217.332 287.6 218.332 290.5 221.062C290.98 226.432 290.65 231.762 289.5 237.062C285.82 239.922 281.65 240.752 277 239.562C275.33 236.962 273.5 234.462 271.5 232.062C270.79 229.592 271.13 227.262 272.5 225.062C274.98 222.592 277.48 220.262 280 218.062Z" fill="#F6F6F6"/>
<path fill-rule="evenodd" clip-rule="evenodd" d="M213 224.062C220.56 223.452 224.56 226.952 225 234.562C224.45 241.932 220.62 246.432 213.5 248.062C208.29 246.342 205.46 242.672 205 237.062C205.92 231.542 208.58 227.212 213 224.062Z" fill="#F6F6F6"/>
<path fill-rule="evenodd" clip-rule="evenodd" d="M268 274.061C271.4 273.591 273.73 274.931 275 278.061C272.64 283.581 269.31 288.411 265 292.561C262 293.231 259 293.231 256 292.561C251.96 290.351 247.8 288.521 243.5 287.061C242.74 284.791 242.91 282.621 244 280.561C246.67 279.891 249.33 279.891 252 280.561C254.38 281.911 256.88 283.081 259.5 284.061C263.03 281.351 265.86 278.021 268 274.061Z" fill="#090B0B"/>
</svg>
