<svg width="500" height="500" viewBox="0 0 500 500" fill="none" xmlns="http://www.w3.org/2000/svg">
<path fill-rule="evenodd" clip-rule="evenodd" d="M373 369.062C376.1 368.992 379.43 368.822 383 368.562C385.67 365.562 385.67 362.562 383 359.562C379.7 358.562 376.37 358.232 373 358.562C369.91 360.772 369.24 363.602 371 367.062C367.05 364.862 363.05 362.862 359 361.062C363.25 359.972 364.75 357.312 363.5 353.062C358.98 349.662 354.32 349.332 349.5 352.062C349.27 354.352 349.11 356.352 349 358.062C344.94 356.762 340.94 355.592 337 354.562C343.97 360.532 350.64 366.862 357 373.562C364.9 376.922 370.73 382.422 374.5 390.062C375.34 393.852 375 397.522 373.5 401.062C370.29 403.572 367.46 406.402 365 409.562C360.56 412.462 355.9 412.792 351 410.562C332.77 390.342 312.11 373.002 289 358.562C288 357.892 287 357.892 286 358.562C287.67 369.232 291.5 379.062 297.5 388.062C302.41 393.542 307.07 399.212 311.5 405.062C315.55 412.932 317.55 421.272 317.5 430.062C309.11 447.112 297.78 449.442 283.5 437.062C270.34 415.572 256 394.902 240.5 375.062C240.36 380.162 240.19 385.162 240 390.062C230.07 383.192 224.4 385.862 223 398.062C223.49 404.372 226.83 406.532 233 404.562C235.39 402.612 236.89 400.112 237.5 397.062C238.17 396.312 239 395.972 240 396.062C242.67 402.732 245.33 409.392 248 416.062C239.54 412.022 235.37 414.692 235.5 424.062C239.04 430.362 244.04 432.022 250.5 429.062C250.99 427.432 251.16 425.762 251 424.062C254.37 430.552 256.04 437.552 256 445.062C251.43 443.322 247.26 443.982 243.5 447.062C242.72 455.102 246.22 457.772 254 455.062C252.49 461.732 248.33 465.402 241.5 466.062C236.83 465.052 232.33 463.552 228 461.562C220.5 452.392 214.66 442.222 210.5 431.062C203.97 409.082 198.97 386.752 195.5 364.062C192.16 371.412 187.83 378.082 182.5 384.062C176.75 389.652 170.58 394.652 164 399.062C163.97 396.692 163.8 394.022 163.5 391.062C160.53 388.572 157.36 388.402 154 390.562C151.37 392.842 149.37 395.512 148 398.562C148.94 402.332 151.27 404.502 155 405.062C142.68 409.222 130.34 413.392 118 417.562C99.8004 419.712 83.1404 415.712 68.0004 405.562C59.3204 398.372 55.4804 389.202 56.5004 378.062C57.5604 375.002 59.3904 372.502 62.0004 370.562C76.1104 365.472 90.4404 364.472 105 367.562C111.41 371.632 118.08 375.292 125 378.562C131.66 380.012 138.33 381.012 145 381.562C147.77 379.182 149.94 376.342 151.5 373.062C155.27 361.072 159.44 349.242 164 337.562C161.16 324.692 156.99 312.192 151.5 300.062C148.84 291.412 146.17 282.742 143.5 274.062C140.59 254.172 139.42 234.172 140 214.062C131.25 217.262 122.59 220.762 114 224.562C101.47 228.212 93.6404 223.712 90.5004 211.062C85.8804 185.292 87.5404 159.962 95.5004 135.062C101.7 118.122 107.7 101.122 113.5 84.0615C121.34 68.2215 131.51 54.0515 144 41.5615C146.5 40.4815 148.83 39.1515 151 37.5615C163.39 36.9015 175.72 35.7315 188 34.0615C222.07 41.8415 251.57 57.8415 276.5 82.0615C278.25 85.2315 280.25 88.2315 282.5 91.0615C290.17 98.3915 297.83 105.732 305.5 113.062C317.49 127.692 314.99 138.852 298 146.562C294.63 148.112 291.13 149.282 287.5 150.062C286.24 150.412 285.91 151.082 286.5 152.062C304.68 175.582 324.34 197.912 345.5 219.062C350.13 225.982 353.96 233.322 357 241.062C364.97 235.592 372.81 229.922 380.5 224.062C383.33 219.062 386.17 214.062 389 209.062C386.09 201.852 386.59 194.852 390.5 188.062C400.03 177.862 411.19 170.032 424 164.562C432.19 161.972 438.03 164.472 441.5 172.062C442.17 181.062 442.17 190.062 441.5 199.062C441.13 217.772 431.63 226.272 413 224.562C408.55 229.622 404.72 235.122 401.5 241.062C394.33 248.232 387.17 255.392 380 262.562C376.17 265.312 372.17 267.812 368 270.062C374.04 277.262 381.37 282.762 390 286.562C405.15 292.182 420.48 297.182 436 301.562C440.59 305.652 443.09 310.812 443.5 317.062C443.82 326.922 438.98 332.252 429 333.062C420.31 332.222 411.98 330.062 404 326.562C386.54 325.202 369.21 322.862 352 319.562C348.67 318.892 345.33 318.892 342 319.562C353.39 324.802 365.06 329.472 377 333.562C385.73 338.962 393.9 345.122 401.5 352.062C407.34 360.562 409.67 369.902 408.5 380.062C404.23 388.952 397.73 391.112 389 386.562C386.89 385.422 385.06 383.922 383.5 382.062C380.52 377.252 377.02 372.922 373 369.062Z" fill="#FE8383"/>
<path fill-rule="evenodd" clip-rule="evenodd" d="M185.001 296.062C183.551 265.462 195.211 240.962 220.001 222.562C250.831 205.332 281.161 205.992 311.001 224.562C325.641 238.572 329.141 255.072 321.501 274.062C316.901 281.602 312.571 289.262 308.501 297.062C300.171 305.312 290.341 311.152 279.001 314.562C265.611 318.022 252.281 321.692 239.001 325.562C222.611 328.092 207.771 324.592 194.501 315.062C189.741 309.532 186.571 303.202 185.001 296.062Z" fill="#FDFCFC"/>
<path fill-rule="evenodd" clip-rule="evenodd" d="M289.999 230.061C298.099 229.921 306.099 230.751 313.999 232.561C316.669 234.561 316.669 236.561 313.999 238.561C309.379 240.221 304.709 240.561 299.999 239.561C301.169 241.391 302.329 243.231 303.499 245.061C304.169 251.731 304.169 258.391 303.499 265.061C301.769 268.851 299.769 272.521 297.499 276.061C290.009 279.291 282.169 280.461 273.999 279.561C262.579 271.331 257.749 260.161 259.499 246.061C261.369 242.871 263.199 239.711 264.999 236.561C273.079 232.971 281.409 230.801 289.999 230.061Z" fill="#050505"/>
<path fill-rule="evenodd" clip-rule="evenodd" d="M269 241.062C276.44 241.692 279.77 245.852 279 253.562C278.09 257.462 275.59 259.632 271.5 260.062C266.66 259.222 263.82 256.382 263 251.562C264.35 247.692 266.35 244.192 269 241.062Z" fill="#F4F4F4"/>
<path fill-rule="evenodd" clip-rule="evenodd" d="M375 242.062C382.37 240.952 385.54 243.952 384.5 251.062C379.95 254.212 375.62 254.212 371.5 251.062C370.16 246.952 371.33 243.952 375 242.062Z" fill="#FFC6C6"/>
<path fill-rule="evenodd" clip-rule="evenodd" d="M185 296.061C187.39 279.491 196.39 267.991 212 261.561C217.26 260.121 222.6 259.791 228 260.561C232.32 264.821 236.82 268.991 241.5 273.061C245.39 284.761 243.22 295.261 235 304.561C216.42 313.271 204.09 307.771 198 288.061C196.13 292.191 193.79 296.021 191 299.561C189.56 300.341 188.22 300.171 187 299.061C186.56 297.821 185.89 296.821 185 296.061Z" fill="#050505"/>
<path fill-rule="evenodd" clip-rule="evenodd" d="M221 266.062C225.39 265.502 228.56 267.172 230.5 271.062C231.73 276.042 230.89 280.542 228 284.562C217.64 284.852 214.14 280.022 217.5 270.062C218.19 268.212 219.36 266.882 221 266.062Z" fill="#F6F6F6"/>
<path fill-rule="evenodd" clip-rule="evenodd" d="M275.001 288.061C276.701 287.901 278.371 288.071 280.001 288.561C280.961 294.391 279.631 299.721 276.001 304.561C271.281 304.781 266.611 305.281 262.001 306.061C257.661 304.721 257.001 302.381 260.001 299.061C264.201 298.421 268.371 297.761 272.501 297.061C272.701 293.841 273.531 290.841 275.001 288.061Z" fill="#0E0E0E"/>
<path fill-rule="evenodd" clip-rule="evenodd" d="M359 361.061C355.34 360.841 352 359.841 349 358.061C349.11 356.351 349.27 354.351 349.5 352.061C354.32 349.331 358.98 349.661 363.5 353.061C364.75 357.311 363.25 359.971 359 361.061Z" fill="#FEC5C6"/>
<path fill-rule="evenodd" clip-rule="evenodd" d="M372.999 369.062C371.999 368.732 371.329 368.062 370.999 367.062C369.239 363.602 369.909 360.772 372.999 358.562C376.369 358.232 379.699 358.562 382.999 359.562C385.669 362.562 385.669 365.562 382.999 368.562C379.429 368.822 376.099 368.992 372.999 369.062Z" fill="#FEC6C6"/>
<path fill-rule="evenodd" clip-rule="evenodd" d="M176 372.062C183.25 372.122 185.25 375.282 182 381.562C178.28 383.622 174.78 383.452 171.5 381.062C170.36 376.672 171.86 373.672 176 372.062Z" fill="#FFC5C5"/>
<path fill-rule="evenodd" clip-rule="evenodd" d="M240 390.062C238.67 392.062 238.67 394.062 240 396.062C239 395.972 238.17 396.312 237.5 397.062C236.89 400.112 235.39 402.612 233 404.562C226.83 406.532 223.49 404.372 223 398.062C224.4 385.862 230.07 383.192 240 390.062Z" fill="#FEC6C6"/>
<path fill-rule="evenodd" clip-rule="evenodd" d="M164 399.061C161.21 401.291 158.21 403.291 155 405.061C151.27 404.501 148.94 402.331 148 398.561C149.37 395.511 151.37 392.841 154 390.561C157.36 388.401 160.53 388.571 163.5 391.061C163.8 394.021 163.97 396.691 164 399.061Z" fill="#FEC4C4"/>
<path fill-rule="evenodd" clip-rule="evenodd" d="M120 398.062C126.81 398.052 129.31 401.382 127.5 408.062C124.17 412.062 120.83 412.062 117.5 408.062C116.36 404.142 117.19 400.812 120 398.062Z" fill="#FFC4C4"/>
<path fill-rule="evenodd" clip-rule="evenodd" d="M248.001 416.061C249.771 418.351 250.771 421.021 251.001 424.061C251.161 425.761 250.991 427.431 250.501 429.061C244.041 432.021 239.041 430.361 235.501 424.061C235.371 414.691 239.541 412.021 248.001 416.061Z" fill="#FEC6C6"/>
<path fill-rule="evenodd" clip-rule="evenodd" d="M255.999 445.061C255.749 448.601 255.079 451.931 253.999 455.061C246.219 457.771 242.719 455.101 243.499 447.061C247.259 443.981 251.429 443.321 255.999 445.061Z" fill="#FEC6C6"/>
</svg>
