<svg width="500" height="500" viewBox="0 0 500 500" fill="none" xmlns="http://www.w3.org/2000/svg">
<path fill-rule="evenodd" clip-rule="evenodd" d="M377 291.061C378.62 280.591 380.28 270.091 382 259.561C380.66 242.351 375.82 226.181 367.5 211.061C352.71 184.941 332.54 164.101 307 148.561C287.28 139.041 266.62 132.371 245 128.561C238 128.231 231 127.891 224 127.561C216.71 124.201 209.04 122.701 201 123.061C194.97 123.161 188.97 123.661 183 124.561C169.32 128.121 155.65 131.791 142 135.561C133.53 141.201 125.86 147.701 119 155.061C121 150.551 124 146.721 128 143.561C147.84 129.731 165.84 113.731 182 95.5614C200.8 84.4914 220.13 74.4914 240 65.5614C247.03 63.4214 254.2 61.9214 261.5 61.0614C274.81 60.7014 280.81 67.0414 279.5 80.0614C278.66 82.4014 277.33 84.4014 275.5 86.0614C275 89.0414 274.84 92.0414 275 95.0614C288.59 88.7714 302.59 83.2714 317 78.5614C324.31 77.0814 331.64 75.7514 339 74.5614C350.27 73.1514 361.27 74.1514 372 77.5614C378.65 80.8714 383.15 86.0414 385.5 93.0614C385.77 99.1514 386.6 105.151 388 111.061C387.34 115.381 385.84 119.381 383.5 123.061C381.67 131.791 380 140.451 378.5 149.061C384.19 142.891 391.03 141.391 399 144.561C403.74 147.871 406.57 152.371 407.5 158.061C413.72 200.331 407.72 241.001 389.5 280.061C387.14 283.431 383.97 285.601 380 286.561C378.72 287.971 377.72 289.471 377 291.061Z" fill="#B17A67"/>
<path fill-rule="evenodd" clip-rule="evenodd" d="M376.999 291.061C376.529 302.671 372.689 313.001 365.499 322.061C349.029 340.061 330.199 354.721 308.999 366.061C301.089 369.471 293.089 372.471 284.999 375.061C278.939 376.591 272.939 378.421 266.999 380.561C257.449 382.871 247.789 383.541 237.999 382.561C228.589 381.181 219.259 379.341 209.999 377.061C201.839 374.691 193.509 373.361 184.999 373.061C177.289 372.771 169.949 370.931 162.999 367.561C150.729 360.971 139.899 352.471 130.499 342.061C119.259 324.921 109.599 306.921 101.499 288.061C97.0695 271.261 93.4095 254.261 90.4995 237.061C87.6395 217.201 90.9795 198.531 100.499 181.061C105.779 171.641 111.949 162.971 118.999 155.061C125.859 147.701 133.529 141.201 141.999 135.561C155.649 131.791 169.319 128.121 182.999 124.561C188.969 123.661 194.969 123.161 200.999 123.061C209.039 122.701 216.709 124.201 223.999 127.561C230.999 127.891 237.999 128.231 244.999 128.561C266.619 132.371 287.279 139.041 306.999 148.561C332.539 164.101 352.709 184.941 367.499 211.061C375.819 226.181 380.659 242.351 381.999 259.561C380.279 270.091 378.619 280.591 376.999 291.061Z" fill="#F3D7AC"/>
<path fill-rule="evenodd" clip-rule="evenodd" d="M230.999 173.061C223.609 171.201 217.279 167.531 211.999 162.061C213.089 158.451 213.259 154.791 212.499 151.061C211.749 150.431 210.919 149.931 209.999 149.561C204.359 149.691 198.699 150.021 192.999 150.561C189.259 156.581 190.929 160.081 197.999 161.061C198.589 165.521 197.259 169.191 193.999 172.061C191.029 169.241 188.529 165.901 186.499 162.061C183.799 148.421 189.469 141.751 203.499 142.061C210.709 141.901 217.539 143.401 223.999 146.561C231.039 149.841 234.039 155.341 232.999 163.061C233.179 166.631 232.509 169.961 230.999 173.061Z" fill="#D9B682"/>
<path fill-rule="evenodd" clip-rule="evenodd" d="M248.001 142.062C255.131 142.352 256.801 145.522 253.001 151.562C244.911 151.652 243.241 148.482 248.001 142.062Z" fill="#11100D"/>
<path fill-rule="evenodd" clip-rule="evenodd" d="M160.999 149.061C166.499 148.391 168.669 150.721 167.499 156.061C164.139 160.061 161.139 159.731 158.499 155.061C157.959 152.481 158.789 150.481 160.999 149.061Z" fill="#100E0C"/>
<path fill-rule="evenodd" clip-rule="evenodd" d="M231 173.062C238.13 173.352 239.8 176.522 236 182.562C231.57 183.352 227.24 183.022 223 181.562C217.29 179.172 212.13 176.002 207.5 172.062C203.81 176.092 200.48 180.422 197.5 185.062C192.98 188.222 190.14 187.052 189 181.562C190.03 178.042 191.69 174.872 194 172.062C197.26 169.192 198.59 165.522 198 161.062C190.93 160.082 189.26 156.582 193 150.562C198.7 150.022 204.36 149.692 210 149.562C210.92 149.932 211.75 150.432 212.5 151.062C213.26 154.792 213.09 158.452 212 162.062C217.28 167.532 223.61 171.202 231 173.062Z" fill="#080705"/>
<path fill-rule="evenodd" clip-rule="evenodd" d="M329.001 268.061C322.521 264.991 316.521 261.151 311.001 256.561C301.551 254.301 292.221 251.631 283.001 248.561C277.381 247.261 271.711 246.931 266.001 247.561C262.261 250.521 258.421 253.351 254.501 256.061C247.371 266.651 245.041 278.321 247.501 291.061C249.871 304.761 258.041 312.261 272.001 313.561C276.681 314.271 281.341 314.601 286.001 314.561C290.771 311.421 295.271 307.921 299.501 304.061C303.661 296.741 306.991 289.081 309.501 281.061C309.421 277.331 309.591 273.661 310.001 270.061C315.111 273.751 320.771 276.081 327.001 277.061C328.921 276.471 330.591 275.471 332.001 274.061C337.351 296.511 331.021 315.011 313.001 329.561C290.961 343.021 266.961 350.681 241.001 352.561C221.331 354.261 201.991 352.601 183.001 347.561C167.851 340.551 154.681 330.721 143.501 318.061C132.471 302.791 128.801 285.791 132.501 267.061C137.451 242.781 151.611 226.611 175.001 218.561C188.341 216.301 201.681 213.971 215.001 211.561C229.671 210.891 244.331 210.891 259.001 211.561C266.061 212.761 272.731 215.091 279.001 218.561C289.311 226.721 299.981 234.381 311.001 241.561C318.811 249.201 324.811 258.031 329.001 268.061Z" fill="#FDFDFD"/>
<path fill-rule="evenodd" clip-rule="evenodd" d="M329 268.062C331.48 269.252 332.48 271.252 332 274.062C330.59 275.472 328.92 276.472 327 277.062C320.77 276.082 315.11 273.752 310 270.062C309.59 273.662 309.42 277.332 309.5 281.062C306.99 289.082 303.66 296.742 299.5 304.062C295.27 307.922 290.77 311.422 286 314.562C281.34 314.602 276.68 314.272 272 313.562C258.04 312.262 249.87 304.762 247.5 291.062C245.04 278.322 247.37 266.652 254.5 256.062C258.42 253.352 262.26 250.522 266 247.562C271.71 246.932 277.38 247.262 283 248.562C292.22 251.632 301.55 254.302 311 256.562C316.52 261.152 322.52 264.992 329 268.062Z" fill="#050505"/>
<path fill-rule="evenodd" clip-rule="evenodd" d="M174 249.061C184.99 248.511 195.32 250.671 205 255.561C208.21 258.291 209.71 261.791 209.5 266.061C215.47 272.631 217.8 280.301 216.5 289.061C211.7 301.521 203.2 310.361 191 315.561C181.42 318.381 172.76 316.711 165 310.561C158.39 304.841 154.22 297.681 152.5 289.061C151.68 284.421 152.18 279.921 154 275.561C153.67 275.061 153.33 274.561 153 274.061C149.52 277.041 146.18 280.211 143 283.561C134.31 287.121 131.14 284.281 133.5 275.061C136.67 271.231 139.83 267.391 143 263.561C152.55 256.881 162.88 252.051 174 249.061Z" fill="#050505"/>
<path fill-rule="evenodd" clip-rule="evenodd" d="M266 256.062C270.72 255.302 274.22 256.972 276.5 261.062C276.49 266.432 275.83 271.772 274.5 277.062C270.38 281.382 265.55 282.212 260 279.562C258.93 276.822 257.43 274.322 255.5 272.062C254.75 269.262 255.08 266.592 256.5 264.062C259.65 261.262 262.81 258.592 266 256.062Z" fill="#F6F6F6"/>
<path fill-rule="evenodd" clip-rule="evenodd" d="M192.001 260.062C199.141 260.202 203.141 263.872 204.001 271.062C203.081 279.082 198.921 284.412 191.501 287.062C189.091 286.862 187.091 285.862 185.501 284.062C179.971 274.052 182.141 266.052 192.001 260.062Z" fill="#F6F6F6"/>
<path fill-rule="evenodd" clip-rule="evenodd" d="M250 317.062C255.52 317.122 257.36 319.792 255.5 325.062C252.69 329.862 249.19 334.032 245 337.562C241.57 338.262 238.24 337.932 235 336.562C231.22 334.342 227.22 332.672 223 331.562C219.58 326.692 220.75 323.862 226.5 323.062C230.84 323.392 234.68 324.892 238 327.562C239.33 328.232 240.67 328.232 242 327.562C244.57 323.902 247.23 320.402 250 317.062Z" fill="#0C0C0C"/>
<path fill-rule="evenodd" clip-rule="evenodd" d="M309 366.062C309.67 383.412 310.67 400.742 312 418.062C311.09 432.142 303.59 439.142 289.5 439.062C282.68 438.412 275.84 437.912 269 437.562C261.2 433.142 259.37 426.972 263.5 419.062C271.05 412.462 279.88 409.792 290 411.062C289.94 398.822 288.27 386.822 285 375.062C293.09 372.472 301.09 369.472 309 366.062Z" fill="#B27C69"/>
<path fill-rule="evenodd" clip-rule="evenodd" d="M185 373.062C193.51 373.362 201.84 374.692 210 377.062C212.55 389.422 214.22 401.922 215 414.562C211.41 431.562 200.74 439.062 183 437.062C174.47 437.792 167.3 435.132 161.5 429.062C158.53 422.352 160.03 416.852 166 412.562C172.12 408.902 178.78 407.072 186 407.062C185.32 395.742 184.99 384.412 185 373.062Z" fill="#B27B68"/>
</svg>
