<svg width="500" height="500" viewBox="0 0 500 500" fill="none" xmlns="http://www.w3.org/2000/svg">
<path fill-rule="evenodd" clip-rule="evenodd" d="M115 259.061C125 239.061 134.5 218.721 143.5 198.061C149.01 194.881 152.68 190.211 154.5 184.061C158.55 179.681 162.21 175.011 165.5 170.061C167.21 156.271 161.05 149.601 147 150.061C158.99 137.391 173.33 128.221 190 122.561C217.33 113.251 244.67 113.091 272 122.061C269.99 124.751 268.49 127.751 267.5 131.061C259.74 136.811 253.41 143.811 248.5 152.061C245.17 166.061 250.67 172.901 265 172.561C271.25 169.851 276.75 166.011 281.5 161.061C285.67 164.751 290.51 165.921 296 164.561C302.07 161.161 307.57 156.991 312.5 152.061C319.03 157.361 325.53 157.361 332 152.061C338.48 144.411 345.15 136.911 352 129.561C358.54 123.511 365.21 117.681 372 112.061C365.15 110.051 359.32 106.381 354.5 101.061C348.14 83.7614 353.64 77.9314 371 83.5614C378.43 87.4914 384.43 92.9914 389 100.061C394.41 101.781 399.24 100.781 403.5 97.0614C403.56 92.3214 404.4 87.6614 406 83.0614C407.96 80.0214 410.29 77.1914 413 74.5614C418.44 73.6314 422.27 75.7914 424.5 81.0614C425.02 84.5814 424.69 87.9114 423.5 91.0614C428.52 92.8214 433.35 94.9814 438 97.5614C444.8 103.361 451.3 109.531 457.5 116.061C467.37 132.141 464.2 144.971 448 154.561C437.19 156.301 426.53 158.631 416 161.561C410.5 162.491 405.17 161.991 400 160.061C387.37 178.241 376.54 197.571 367.5 218.061C367.17 226.231 367.33 234.391 368 242.561C367.8 249.751 367.3 256.911 366.5 264.061C360.94 289.691 348.78 311.521 330 329.561C320 338.391 308.67 344.891 296 349.061C297.51 361.111 299.34 373.111 301.5 385.061C308.08 381.721 314.92 381.221 322 383.561C328.77 389.671 329.6 396.501 324.5 404.061C320.92 406.931 317.09 409.431 313 411.561C310.44 415.031 307.44 418.031 304 420.561C285.21 425.111 274.71 417.941 272.5 399.061C270.69 386.101 269.02 373.101 267.5 360.061C267.19 359.251 266.69 358.591 266 358.061C248.82 361.771 232.16 360.101 216 353.061C211.75 367.471 208.75 382.141 207 397.061C212.34 396.891 217.68 397.061 223 397.561C231.27 400.611 234.44 406.441 232.5 415.061C230.49 420.401 226.66 423.561 221 424.561C210.33 425.231 199.67 425.231 189 424.561C180.26 421.751 176.26 415.751 177 406.561C179.91 391.691 181.91 376.691 183 361.561C182.73 354.991 181.89 348.491 180.5 342.061C166.33 335.221 152.5 327.721 139 319.561C134.06 314.851 130.22 309.351 127.5 303.061C125.07 294.211 122.07 285.541 118.5 277.061C118.07 270.781 116.9 264.781 115 259.061Z" fill="#B17A67"/>
<path fill-rule="evenodd" clip-rule="evenodd" d="M406 83.0615C404.4 87.6615 403.56 92.3215 403.5 97.0615C399.24 100.782 394.41 101.782 389 100.062C384.43 92.9915 378.43 87.4915 371 83.5615C353.64 77.9315 348.14 83.7615 354.5 101.062C359.32 106.382 365.15 110.052 372 112.062C365.21 117.682 358.54 123.512 352 129.562C345.15 136.912 338.48 144.412 332 152.062C325.53 157.362 319.03 157.362 312.5 152.062C307.57 156.992 302.07 161.162 296 164.562C290.51 165.922 285.67 164.752 281.5 161.062C276.75 166.012 271.25 169.852 265 172.562C250.67 172.902 245.17 166.062 248.5 152.062C253.41 143.812 259.74 136.812 267.5 131.062C268.49 127.752 269.99 124.752 272 122.062C290.29 105.082 311.63 93.5815 336 87.5615C341.67 85.2315 347.33 82.8915 353 80.5615C366.13 78.4315 379.3 76.6015 392.5 75.0615C398.66 75.0815 403.16 77.7415 406 83.0615Z" fill="#845140"/>
<path fill-rule="evenodd" clip-rule="evenodd" d="M415.001 106.062C422.791 106.362 424.961 110.032 421.501 117.062C418.321 121.232 414.651 121.902 410.501 119.062C409.831 116.732 409.831 114.392 410.501 112.062C412.251 110.212 413.751 108.212 415.001 106.062Z" fill="#070504"/>
<path fill-rule="evenodd" clip-rule="evenodd" d="M147.001 150.061C161.051 149.601 167.211 156.271 165.501 170.061C162.211 175.011 158.551 179.681 154.501 184.061C152.681 190.211 149.011 194.881 143.501 198.061C134.501 218.721 125.001 239.061 115.001 259.061C104.661 279.921 92.6606 299.751 79.0006 318.561C72.1806 322.441 66.0106 321.601 60.5006 316.061C55.9606 307.371 55.1306 298.371 58.0006 289.061C46.8406 288.101 42.5106 282.101 45.0006 271.061C36.7906 265.741 34.9606 258.741 39.5006 250.061C55.4406 231.441 71.4406 212.781 87.5006 194.061C98.4006 182.491 109.901 171.661 122.001 161.561C127.101 158.681 132.431 156.341 138.001 154.561C140.481 151.891 143.481 150.391 147.001 150.061Z" fill="#845140"/>
<path fill-rule="evenodd" clip-rule="evenodd" d="M329 233.062C325.45 231.022 321.79 229.192 318 227.562C306.44 225.052 294.78 223.712 283 223.562C273.7 226.862 267.87 233.362 265.5 243.062C263.52 255.292 266.02 266.462 273 276.562C282.41 281.612 292.41 283.282 303 281.562C307.21 278.052 311.04 274.222 314.5 270.062C317.17 262.882 319.34 255.542 321 248.062C320.49 245.682 319.82 243.342 319 241.062C319.5 240.732 320 240.392 320.5 240.062C325.01 242.402 329.85 243.732 335 244.062C340.2 259.952 337.7 274.622 327.5 288.062C295.07 323.082 255.9 333.242 210 318.562C184.54 312.272 170.21 296.102 167 270.062C169.73 270.302 172.06 269.462 174 267.562C176.13 264.432 178.63 261.602 181.5 259.062C181.83 263.062 182.17 267.062 182.5 271.062C189.41 291.432 202.91 297.602 223 289.562C231.93 282.712 237.26 273.712 239 262.562C238.17 256.082 235.34 250.582 230.5 246.062C229.15 238.722 224.65 234.892 217 234.562C196.39 232.702 179.72 239.872 167 256.062C170.61 239.952 178.61 226.452 191 215.562C199.67 208.232 209.01 201.892 219 196.562C252.02 186.682 283.02 191.012 312 209.562C319.8 216.422 325.47 224.262 329 233.062Z" fill="#FCFCFC"/>
<path fill-rule="evenodd" clip-rule="evenodd" d="M329 233.062C332.18 234.572 335.35 236.242 338.5 238.062C339.89 241.782 338.73 243.782 335 244.062C329.85 243.732 325.01 242.402 320.5 240.062C320 240.392 319.5 240.732 319 241.062C319.82 243.342 320.49 245.682 321 248.062C319.34 255.542 317.17 262.882 314.5 270.062C311.04 274.222 307.21 278.052 303 281.562C292.41 283.282 282.41 281.612 273 276.562C266.02 266.462 263.52 255.292 265.5 243.062C267.87 233.362 273.7 226.862 283 223.562C294.78 223.712 306.44 225.052 318 227.562C321.79 229.192 325.45 231.022 329 233.062Z" fill="#050505"/>
<path fill-rule="evenodd" clip-rule="evenodd" d="M280 232.062C283.79 231.372 286.95 232.372 289.5 235.062C290.17 240.062 290.17 245.062 289.5 250.062C286.05 253.962 281.89 254.962 277 253.062C275.05 250.832 273.21 248.502 271.5 246.062C270.79 243.592 271.13 241.262 272.5 239.062C275.22 236.832 277.72 234.502 280 232.062Z" fill="#F5F5F5"/>
<path fill-rule="evenodd" clip-rule="evenodd" d="M166.999 270.062C166.379 269.952 165.879 269.622 165.499 269.062C164.559 264.472 165.059 260.142 166.999 256.062C179.719 239.872 196.389 232.702 216.999 234.562C224.649 234.892 229.149 238.722 230.499 246.062C235.339 250.582 238.169 256.082 238.999 262.562C237.259 273.712 231.929 282.712 222.999 289.562C202.909 297.602 189.409 291.432 182.499 271.062C182.169 267.062 181.829 263.062 181.499 259.062C178.629 261.602 176.129 264.432 173.999 267.562C172.059 269.462 169.729 270.302 166.999 270.062Z" fill="#040404"/>
<path fill-rule="evenodd" clip-rule="evenodd" d="M214 243.061C221.95 241.701 225.95 245.031 226 253.061C225.81 261.781 221.48 265.951 213 265.561C204.96 257.701 205.29 250.201 214 243.061Z" fill="#F6F6F6"/>
<path fill-rule="evenodd" clip-rule="evenodd" d="M272 287.062C274.98 287.202 276.98 288.702 278 291.562C276.2 297.022 273.2 301.692 269 305.562C267.77 306.342 266.44 306.842 265 307.062C258.85 305.722 253.02 303.722 247.5 301.062C246.36 298.032 247.19 295.872 250 294.562C255.1 295.152 260.1 296.152 265 297.562C267.2 293.882 269.53 290.382 272 287.062Z" fill="#0F0F0F"/>
</svg>
