<svg width="500" height="500" viewBox="0 0 500 500" fill="none" xmlns="http://www.w3.org/2000/svg">
<path fill-rule="evenodd" clip-rule="evenodd" d="M395.001 307.061C390.191 305.161 385.531 302.991 381.001 300.561C377.641 299.421 375.641 300.591 375.001 304.061C375.401 305.761 375.901 307.421 376.501 309.061C379.341 311.151 382.171 313.151 385.001 315.061C378.011 320.721 371.341 326.721 365.001 333.061C360.061 334.651 355.061 336.151 350.001 337.561C347.111 340.471 346.271 343.971 347.501 348.061C352.411 355.481 359.241 359.811 368.001 361.061C369.471 364.011 370.971 367.011 372.501 370.061C375.101 382.721 370.271 390.551 358.001 393.561C347.121 394.151 336.461 395.311 326.001 397.061C321.711 397.851 317.381 398.191 313.001 398.061C295.001 399.781 277.001 401.621 259.001 403.561C250.401 404.341 242.061 405.841 234.001 408.061C229.241 407.791 224.571 408.121 220.001 409.061C210.731 410.721 201.401 411.221 192.001 410.561C173.821 407.071 165.661 396.241 167.501 378.061C169.161 374.071 171.331 370.401 174.001 367.061C174.741 367.191 175.411 367.021 176.001 366.561C179.551 362.681 182.721 358.511 185.501 354.061C186.171 350.731 186.171 347.391 185.501 344.061C183.761 342.671 181.761 342.001 179.501 342.061C176.031 342.721 172.531 343.061 169.001 343.061C155.661 337.061 143.001 330.061 131.001 322.061C132.571 318.981 134.741 316.311 137.501 314.061C137.931 309.751 136.771 305.921 134.001 302.561C131.861 301.931 129.861 302.261 128.001 303.561C124.501 306.231 121.171 309.061 118.001 312.061C106.721 305.161 96.2206 297.161 86.5006 288.061C75.9706 276.001 68.3006 262.341 63.5006 247.061C61.2606 240.241 61.5906 233.581 64.5006 227.061C69.8706 217.531 77.3706 210.191 87.0006 205.061C74.0006 181.391 67.8306 156.061 68.5006 129.061C71.6206 121.111 74.6206 113.111 77.5006 105.061C83.5506 95.0312 92.3806 88.8712 104.001 86.5612C111.561 80.9912 119.901 79.6512 129.001 82.5612C137.761 87.6912 146.261 93.1912 154.501 99.0612C155.931 86.9212 158.261 74.9212 161.501 63.0612C168.601 42.6812 182.931 32.6812 204.501 33.0612C214.121 32.9112 222.951 35.4112 231.001 40.5612C236.791 44.6812 242.291 49.1812 247.501 54.0612C250.511 58.0812 253.011 62.4112 255.001 67.0612C259.331 56.2312 266.661 48.0712 277.001 42.5612C292.421 36.8712 308.091 35.8712 324.001 39.5612C338.721 45.2812 349.221 55.4512 355.501 70.0612C358.511 79.7712 361.681 89.4412 365.001 99.0612C370.701 96.2112 376.361 93.3812 382.001 90.5612C393.321 87.7212 403.651 89.7212 413.001 96.5612C431.231 108.511 439.061 125.351 436.501 147.061C433.401 157.261 429.741 167.261 425.501 177.061C423.331 186.741 421.171 196.411 419.001 206.061C425.191 208.421 430.031 212.421 433.501 218.061C434.141 225.761 433.811 233.431 432.501 241.061C428.621 252.951 424.281 264.621 419.501 276.061C412.641 287.421 404.481 297.751 395.001 307.061Z" fill="#FE9797"/>
<path fill-rule="evenodd" clip-rule="evenodd" d="M277 212.062C268.32 210.952 259.65 210.952 251 212.062C248.02 194.462 245.19 176.792 242.5 159.062C241.3 142.052 239.97 125.052 238.5 108.062C233.73 102.752 233.9 97.5818 239 92.5618C248.35 91.5518 254.19 95.7218 256.5 105.062C257.21 123.772 258.55 142.442 260.5 161.062C263.01 177.782 265.85 194.452 269 211.062C271.89 210.752 274.55 211.092 277 212.062Z" fill="#E49999"/>
<path fill-rule="evenodd" clip-rule="evenodd" d="M337 239.061C331.64 234.701 326.31 230.361 321 226.061C322.72 224.201 323.88 221.861 324.5 219.061C332.12 184.711 337.79 150.041 341.5 115.061C347.14 109.551 352.47 109.881 357.5 116.061C354.78 157.731 347.94 198.731 337 239.061Z" fill="#E49999"/>
<path fill-rule="evenodd" clip-rule="evenodd" d="M202 230.062C196.2 233.802 190.53 237.802 185 242.062C179.07 211.652 168.57 182.992 153.5 156.062C149.33 146.542 146.16 136.702 144 126.562C144.2 122.162 146.2 118.832 150 116.562C153.33 115.892 156.67 115.892 160 116.562C161.55 117.772 162.72 119.272 163.5 121.062C163.92 124.872 163.58 128.542 162.5 132.062C169.32 147.912 176.65 163.572 184.5 179.062C190.71 195.032 195.71 211.362 199.5 228.062C199.92 229.322 200.75 229.982 202 230.062Z" fill="#E49999"/>
<path fill-rule="evenodd" clip-rule="evenodd" d="M277 212.062C293.17 212.352 307.84 217.022 321 226.062C326.31 230.362 331.64 234.702 337 239.062C343.09 246.162 348.42 253.822 353 262.062C354.19 263.522 354.19 264.852 353 266.062C346.34 263.072 340.01 259.572 334 255.562C325.92 253.872 317.92 251.872 310 249.562C295.66 246.882 285.83 252.382 280.5 266.062C273.06 295.942 284.56 310.102 315 308.562C322.28 304.612 327.45 298.782 330.5 291.062C334.11 283.662 335.61 275.992 335 268.062C339.54 271.102 344.54 272.772 350 273.062C351.85 273.222 353.19 272.552 354 271.062C355.12 277.742 354.45 284.412 352 291.062C341.84 309.552 328.18 324.882 311 337.062C294.69 346.722 277.02 350.552 258 348.562C248.63 346.062 239.3 343.562 230 341.062C219.01 339.732 209.01 335.892 200 329.562C193.69 323.162 187.53 316.662 181.5 310.062C178.26 305.512 176.1 300.512 175 295.062C174.06 286.782 173.73 278.452 174 270.062C176.27 263.102 178.43 256.102 180.5 249.062C182.01 246.702 183.51 244.372 185 242.062C190.53 237.802 196.2 233.802 202 230.062C217.32 221.292 233.66 215.292 251 212.062C259.65 210.952 268.32 210.952 277 212.062Z" fill="#FDFCFC"/>
<path fill-rule="evenodd" clip-rule="evenodd" d="M352 291.061C354.45 284.411 355.12 277.741 354 271.061C354.13 269.271 353.8 267.601 353 266.061C354.19 264.851 354.19 263.521 353 262.061C366.06 246.821 379.73 231.991 394 217.561C403.66 215.561 407.83 219.391 406.5 229.061C399.53 238.201 391.69 246.531 383 254.061C372.39 266.351 362.06 278.681 352 291.061Z" fill="#E49999"/>
<path fill-rule="evenodd" clip-rule="evenodd" d="M174 270.061C173.73 278.451 174.06 286.781 175 295.061C164.04 285.931 153.87 275.931 144.5 265.061C137.21 255.441 129.54 246.101 121.5 237.061C118.72 231.521 119.89 227.021 125 223.561C128.13 222.771 131.13 223.101 134 224.561C141.55 233.101 148.71 241.941 155.5 251.061C161.17 257.901 167.34 264.231 174 270.061Z" fill="#E49999"/>
<path fill-rule="evenodd" clip-rule="evenodd" d="M353.001 266.062C353.801 267.602 354.131 269.272 354.001 271.062C353.191 272.552 351.851 273.222 350.001 273.062C344.541 272.772 339.541 271.102 335.001 268.062C335.611 275.992 334.111 283.662 330.501 291.062C327.451 298.782 322.281 304.612 315.001 308.562C284.561 310.102 273.061 295.942 280.501 266.062C285.831 252.382 295.661 246.882 310.001 249.562C317.921 251.872 325.921 253.872 334.001 255.562C340.011 259.572 346.341 263.072 353.001 266.062Z" fill="#040404"/>
<path fill-rule="evenodd" clip-rule="evenodd" d="M210.999 254.062C221.089 253.122 230.759 254.622 239.999 258.562C243.299 260.832 244.799 264.002 244.499 268.062C251.219 274.542 253.219 282.202 250.499 291.062C242.579 310.112 228.739 316.942 208.999 311.562C201.309 306.352 196.479 299.192 194.499 290.062C194.039 285.682 194.039 281.342 194.499 277.062C191.669 279.892 188.829 282.732 185.999 285.562C183.149 286.852 180.149 287.352 176.999 287.062C176.829 283.712 176.999 280.382 177.499 277.062C179.999 273.892 182.499 270.732 184.999 267.562C193.039 261.712 201.699 257.212 210.999 254.062Z" fill="#040404"/>
<path fill-rule="evenodd" clip-rule="evenodd" d="M295 257.061C299.14 256.261 302.31 257.601 304.5 261.061C304.91 266.091 304.58 271.091 303.5 276.061C299.82 278.921 295.65 279.751 291 278.561C288.41 275.801 286.41 272.631 285 269.061C285.55 266.951 286.39 264.951 287.5 263.061C290.65 261.851 293.15 259.851 295 257.061Z" fill="#F5F5F5"/>
<path fill-rule="evenodd" clip-rule="evenodd" d="M229 263.062C235.43 263.652 239.09 267.152 240 273.562C239.01 276.722 237.84 279.892 236.5 283.062C227.49 289.612 221.99 287.272 220 276.062C220.8 270.102 223.8 265.772 229 263.062Z" fill="#F4F4F4"/>
<path fill-rule="evenodd" clip-rule="evenodd" d="M395 307.062C399.15 309.012 403.15 311.352 407 314.062C410.64 320.792 409.31 326.292 403 330.562C392.74 337.592 381.41 341.762 369 343.062C370.81 346.412 372.48 349.912 374 353.562C373.61 357.442 371.61 359.942 368 361.062C359.24 359.812 352.41 355.482 347.5 348.062C346.27 343.972 347.11 340.472 350 337.562C355.06 336.152 360.06 334.652 365 333.062C375.46 331.002 385.12 327.002 394 321.062C395.21 320.292 395.21 319.452 394 318.562C391.17 316.902 388.17 315.732 385 315.062C382.17 313.152 379.34 311.152 376.5 309.062C375.9 307.422 375.4 305.762 375 304.062C375.64 300.592 377.64 299.422 381 300.562C385.53 302.992 390.19 305.162 395 307.062Z" fill="#060506"/>
<path fill-rule="evenodd" clip-rule="evenodd" d="M131.001 322.062C125.291 326.602 120.461 331.932 116.501 338.062C116.001 340.032 115.841 342.032 116.001 344.062C133.861 346.692 151.531 346.362 169.001 343.062C172.531 343.062 176.031 342.722 179.501 342.062C181.761 342.002 183.761 342.672 185.501 344.062C186.171 347.392 186.171 350.732 185.501 354.062C182.721 358.512 179.551 362.682 176.001 366.562C175.411 367.022 174.741 367.192 174.001 367.062C165.841 366.452 163.511 362.622 167.001 355.562C154.521 356.292 142.021 357.122 129.501 358.062C122.191 358.172 115.021 357.342 108.001 355.562C106.501 354.062 105.001 352.562 103.501 351.062C102.831 345.732 102.831 340.392 103.501 335.062C106.831 326.392 111.661 318.722 118.001 312.062C121.171 309.062 124.501 306.232 128.001 303.562C129.861 302.262 131.861 301.932 134.001 302.562C136.771 305.922 137.931 309.752 137.501 314.062C134.741 316.312 132.571 318.982 131.001 322.062Z" fill="#050405"/>
<path fill-rule="evenodd" clip-rule="evenodd" d="M281 313.062C283.03 312.902 285.03 313.062 287 313.562C288.07 314.302 288.74 315.302 289 316.562C286.87 322.172 283.54 326.832 279 330.562C270.98 331.132 263.81 328.962 257.5 324.062C256.83 320.392 258.33 318.392 262 318.062C266.61 319.772 271.28 320.942 276 321.562C278.07 318.922 279.73 316.082 281 313.062Z" fill="#0C0C0C"/>
<path fill-rule="evenodd" clip-rule="evenodd" d="M310.999 337.062C317.119 338.402 323.459 339.232 329.999 339.562C334.369 340.832 338.199 342.992 341.499 346.062C344.539 355.012 341.369 359.512 331.999 359.562C329.669 358.562 327.329 357.562 324.999 356.562C309.979 355.082 294.979 353.412 279.999 351.562C254.799 349.742 232.469 356.742 212.999 372.562C203.549 375.442 199.049 371.942 199.499 362.062C200.459 360.982 201.289 359.812 201.999 358.562C211.289 352.402 220.619 346.562 229.999 341.062C239.299 343.562 248.629 346.062 257.999 348.562C277.019 350.552 294.689 346.722 310.999 337.062Z" fill="#E49999"/>
<path fill-rule="evenodd" clip-rule="evenodd" d="M326 397.062C330.66 412.702 333.66 428.702 335 445.062C341.7 443.112 347.87 444.112 353.5 448.062C356 451.912 355.16 454.742 351 456.562C344.18 457.492 337.34 458.322 330.5 459.062C323.94 459.502 319.94 456.502 318.5 450.062C317.03 432.662 315.2 415.332 313 398.062C317.38 398.192 321.71 397.852 326 397.062Z" fill="#050608"/>
<path fill-rule="evenodd" clip-rule="evenodd" d="M234 408.062C236.95 425.192 236.45 442.192 232.5 459.062C230.64 461.232 228.47 461.572 226 460.062C216.9 465.312 207.23 467.152 197 465.562C195.6 464.502 194.6 463.172 194 461.562C196.04 454.022 201.04 450.022 209 449.562C212.97 448.732 216.97 448.232 221 448.062C221.21 435.042 220.88 422.042 220 409.062C224.57 408.122 229.24 407.792 234 408.062Z" fill="#06080A"/>
</svg>
