<svg width="500" height="500" viewBox="0 0 500 500" fill="none" xmlns="http://www.w3.org/2000/svg">
<path fill-rule="evenodd" clip-rule="evenodd" d="M185 161.061C194.36 161.041 199.69 156.371 201 147.061C200.55 144.171 199.55 141.501 198 139.061C202.82 139.721 206.65 142.051 209.5 146.061C213.59 150.991 217.09 156.321 220 162.061C239.26 162.651 258.6 162.981 278 163.061C278.25 154.861 279.59 146.861 282 139.061C287.79 145.291 294.45 146.461 302 142.561C305.95 138.361 306.95 133.521 305 128.061C306.5 129.851 307.16 132.021 307 134.561C305.08 142.161 303.41 149.821 302 157.561C303.72 161.531 304.39 165.701 304 170.061C330.82 176.701 349.99 192.701 361.5 218.061C366.74 211.911 371.24 205.241 375 198.061C370.35 189.331 367.52 180.001 366.5 170.061C362.91 150.411 364.91 131.411 372.5 113.061C377.33 105.561 383.5 99.3909 391 94.5609C394.57 90.7409 397.9 86.7409 401 82.5609C408.57 78.7609 414.4 80.5909 418.5 88.0609C416.95 99.6909 415.62 111.361 414.5 123.061C420.17 115.061 425.83 107.061 431.5 99.0609C436.04 92.4909 442.21 89.6509 450 90.5609C453.04 91.5909 455.54 93.4209 457.5 96.0609C464.92 121.421 462.92 146.091 451.5 170.061C444.47 180.091 435.3 187.591 424 192.561C420.63 196.261 416.97 199.601 413 202.561C408.02 204.691 403.02 205.691 398 205.561C396.83 206.731 395.67 207.891 394.5 209.061C392.35 215.601 389.69 221.931 386.5 228.061C381.27 233.291 376.1 238.461 371 243.561C373.97 255.471 377.14 267.301 380.5 279.061C380.67 282.561 380.83 286.061 381 289.561C378.82 300.571 377.65 311.741 377.5 323.061C376.1 326.771 374.6 330.431 373 334.061C377.55 336.171 382.22 338.001 387 339.561C390.09 343.321 393.75 346.321 398 348.561C408.13 357.361 407.13 364.191 395 369.061C387.53 366.161 380.86 361.991 375 356.561C367.27 356.421 359.61 356.421 352 356.561C344.76 361.461 337.26 365.961 329.5 370.061C330.92 379.941 331.59 389.941 331.5 400.061C326.47 406.241 321.14 406.571 315.5 401.061C312.62 393.411 309.95 385.751 307.5 378.061C297.04 382.051 286.21 384.551 275 385.561C256.68 387.301 238.34 387.461 220 386.061C219.25 395.401 217.08 404.401 213.5 413.061C210.58 418.581 206.08 420.421 200 418.561C196.45 415.971 194.62 412.471 194.5 408.061C194.13 399.941 194.96 391.941 197 384.061C189.24 382.701 181.57 381.201 174 379.561C165.3 386.601 157.63 394.601 151 403.561C143.06 406.921 138.06 404.421 136 396.061C137.86 389.291 140.03 382.621 142.5 376.061C146.92 370.421 152.42 366.091 159 363.061C146.05 338.711 140.38 312.711 142 285.061C142.61 277.641 143.44 270.301 144.5 263.061C137.5 254.061 130.5 245.061 123.5 236.061C119.73 239.991 115.06 241.991 109.5 242.061C99.2405 242.541 90.0705 239.711 82.0005 233.561C70.4605 221.021 59.2905 208.191 48.5005 195.061C39.9905 182.681 36.3205 169.011 37.5005 154.061C38.5405 151.811 39.7105 149.651 41.0005 147.561C46.3305 145.231 51.6705 142.891 57.0005 140.561C63.9505 138.291 70.6105 138.961 77.0005 142.561C82.4605 146.351 87.6205 150.511 92.5005 155.061C92.7405 146.431 94.4105 138.101 97.5005 130.061C102.6 124.251 108.77 122.751 116 125.561C146.76 146.591 158.59 175.421 151.5 212.061C149.76 216.771 147.93 221.431 146 226.061C147.92 229.561 150.08 232.901 152.5 236.061C154.33 225.571 157.67 215.571 162.5 206.061C167.88 198.021 175.04 192.181 184 188.561C187.84 183.891 191.84 179.391 196 175.061C195.26 173.021 194.43 171.021 193.5 169.061C190.77 166.161 187.94 163.491 185 161.061Z" fill="#F34336"/>
<path fill-rule="evenodd" clip-rule="evenodd" d="M292 115.061C288.35 120.201 288.18 125.531 291.5 131.061C295.26 133.921 298.26 133.251 300.5 129.061C301.69 123.931 300.86 119.261 298 115.061C299.52 115.071 300.68 115.741 301.5 117.061C303.36 120.511 304.52 124.181 305 128.061C306.95 133.521 305.95 138.361 302 142.561C294.45 146.461 287.79 145.291 282 139.061C278.11 130.251 279.44 122.421 286 115.561C288.07 114.021 290.07 113.851 292 115.061Z" fill="#0A0707"/>
<path fill-rule="evenodd" clip-rule="evenodd" d="M298.001 115.061C300.861 119.261 301.691 123.931 300.501 129.061C298.261 133.251 295.261 133.921 291.501 131.061C288.181 125.531 288.351 120.201 292.001 115.061C294.001 113.731 296.001 113.731 298.001 115.061Z" fill="#F7F7F7"/>
<path fill-rule="evenodd" clip-rule="evenodd" d="M190.999 132.062C188.209 132.012 186.369 133.352 185.499 136.062C184.049 141.732 185.719 146.062 190.499 149.062C192.479 148.572 194.149 147.572 195.499 146.062C195.999 143.412 196.159 140.752 195.999 138.062C196.669 138.392 197.329 138.732 197.999 139.062C199.549 141.502 200.549 144.172 200.999 147.062C199.689 156.372 194.359 161.042 184.999 161.062C180.159 160.392 176.989 157.722 175.499 153.062C173.189 146.542 173.519 140.212 176.499 134.062C180.969 129.732 185.799 129.062 190.999 132.062Z" fill="#090505"/>
<path fill-rule="evenodd" clip-rule="evenodd" d="M191 132.061C193.38 133.451 195.05 135.451 196 138.061C196.16 140.751 196 143.411 195.5 146.061C194.15 147.571 192.48 148.571 190.5 149.061C185.72 146.061 184.05 141.731 185.5 136.061C186.37 133.351 188.21 132.011 191 132.061Z" fill="#F7F7F7"/>
<path fill-rule="evenodd" clip-rule="evenodd" d="M352.001 276.062C357.891 290.332 357.061 304.332 349.501 318.062C330.751 342.082 306.251 357.252 276.001 363.562C251.871 365.192 229.201 360.192 208.001 348.562C178.941 331.382 171.111 307.212 184.501 276.062C193.751 263.472 204.921 252.972 218.001 244.562C230.801 235.232 245.141 229.732 261.001 228.062C289.601 228.652 315.261 237.482 338.001 254.562C344.821 260.372 349.481 267.532 352.001 276.062Z" fill="#FDFCFC"/>
<path fill-rule="evenodd" clip-rule="evenodd" d="M352 276.061C352.82 279.761 351.49 282.091 348 283.061C342.44 282.941 337.44 281.271 333 278.061C332.67 278.391 332.33 278.731 332 279.061C333.28 281.571 333.95 284.241 334 287.061C332.48 293.801 330.64 300.461 328.5 307.061C319.55 320.291 307.38 323.791 292 317.561C284.75 313.591 280.59 307.431 279.5 299.061C277.67 288.721 279.34 279.051 284.5 270.061C287.67 267.561 290.83 265.061 294 262.561C305.44 262.241 316.77 263.241 328 265.561C336.13 268.891 344.13 272.391 352 276.061Z" fill="#040404"/>
<path fill-rule="evenodd" clip-rule="evenodd" d="M295.001 270.06C298.991 269.8 301.831 271.47 303.501 275.06C303.831 279.75 303.501 284.42 302.501 289.06C301.671 289.89 300.831 290.73 300.001 291.56C296.681 292.06 293.351 292.23 290.001 292.06C288.811 289.65 287.311 287.32 285.501 285.06C284.831 283.06 284.831 281.06 285.501 279.06C288.511 275.88 291.681 272.88 295.001 270.06Z" fill="#F6F6F6"/>
<path fill-rule="evenodd" clip-rule="evenodd" d="M212.001 273.061C219.341 272.891 226.671 273.061 234.001 273.561C236.451 274.281 238.781 275.281 241.001 276.561C244.761 283.011 248.591 289.511 252.501 296.061C252.541 317.021 242.211 329.021 221.501 332.061C210.351 329.981 202.681 323.651 198.501 313.061C197.331 307.811 196.661 302.481 196.501 297.061C194.021 300.511 191.191 303.681 188.001 306.561C185.541 308.191 183.041 308.361 180.501 307.061C179.831 304.061 179.831 301.061 180.501 298.061C183.951 290.951 189.111 285.451 196.001 281.561C201.271 278.431 206.601 275.591 212.001 273.061Z" fill="#050505"/>
<path fill-rule="evenodd" clip-rule="evenodd" d="M230 281.062C236.52 281.412 239.85 284.912 240 291.562C240.07 298.382 236.9 302.882 230.5 305.062C221.6 300.652 219.6 293.992 224.5 285.062C226.31 283.582 228.15 282.252 230 281.062Z" fill="#F6F6F6"/>
<path fill-rule="evenodd" clip-rule="evenodd" d="M284 326.061C286.03 325.901 288.03 326.061 290 326.561C290.56 333.151 288.22 338.821 283 343.561C281.77 344.341 280.44 344.841 279 345.061C272.85 343.721 267.02 341.721 261.5 339.061C260.33 335.061 261.83 333.061 266 333.061C270.39 334.041 274.72 334.871 279 335.561C280.82 332.421 282.49 329.251 284 326.061Z" fill="#0A0A0A"/>
</svg>
