<svg width="500" height="500" viewBox="0 0 500 500" fill="none" xmlns="http://www.w3.org/2000/svg">
<path fill-rule="evenodd" clip-rule="evenodd" d="M372 205.062C367.81 205.842 363.47 206.512 359 207.062C359.2 189.642 356.7 172.642 351.5 156.062C347.26 147.152 340.26 142.152 330.5 141.062C321.9 142.992 316.57 148.332 314.5 157.062C310.55 175.022 308.39 193.182 308 211.562C309.46 232.802 311.62 253.962 314.5 275.062C315.5 278.722 317.34 281.892 320 284.562C327.41 286.082 334.57 288.252 341.5 291.062C347.5 290.732 351.5 287.732 353.5 282.062C354.75 269.012 356.25 256.012 358 243.062C360.67 243.062 363.33 243.062 366 243.062C363.57 257.112 360.73 271.112 357.5 285.062C352.06 300.772 341.56 311.612 326 317.562C311.03 322.292 295.7 324.952 280 325.562C278.88 325.812 277.88 326.312 277 327.062C277.62 330.012 277.96 333.012 278 336.062C276.83 352.042 276 368.042 275.5 384.062C275.13 384.982 274.63 385.812 274 386.562C265.77 388.162 257.44 388.502 249 387.562C238.86 384.962 236.53 379.292 242 370.562C247.35 366.652 253.35 365.152 260 366.062C259.36 353.392 258.7 340.722 258 328.062C243.36 329.262 228.86 328.262 214.5 325.062C214 325.392 213.5 325.732 213 326.062C215.76 340.502 215.42 354.832 212 369.062C213.69 377.572 210.03 382.412 201 383.562C192.58 384.972 184.58 383.802 177 380.062C171.71 374.932 171.71 369.762 177 364.562C182.06 362.132 187.39 360.962 193 361.062C192.54 348.062 192.04 335.062 191.5 322.062C190.19 320.992 188.69 320.322 187 320.062C178.81 320.842 171.15 319.012 164 314.562C143.86 299.112 131.19 278.942 126 254.062C125 254.062 124 254.062 123 254.062C123.97 253.162 124.64 251.992 125 250.562C124.53 238.482 123.2 226.652 121 215.062C120.55 205.052 119.89 195.052 119 185.062C119.3 164.972 125.64 147.142 138 131.562C142.11 129.672 146.44 128.672 151 128.562C160.59 124.362 170.25 120.362 180 116.562C194.24 115.292 208.41 113.462 222.5 111.062C254.44 113.502 286.27 116.662 318 120.562C325.43 121.332 331.43 124.662 336 130.562C340.49 132.642 344.83 134.972 349 137.562C356.49 145.992 361.32 155.832 363.5 167.062C365.46 179.682 366.96 192.342 368 205.062C369.33 205.062 370.67 205.062 372 205.062Z" fill="#B07966"/>
<path fill-rule="evenodd" clip-rule="evenodd" d="M359 207.062C346.75 207.832 339.42 214.172 337 226.062C339.53 237.172 346.53 242.842 358 243.062C356.25 256.012 354.75 269.012 353.5 282.062C351.5 287.732 347.5 290.732 341.5 291.062C334.57 288.252 327.41 286.082 320 284.562C317.34 281.892 315.5 278.722 314.5 275.062C311.62 253.962 309.46 232.802 308 211.562C308.39 193.182 310.55 175.022 314.5 157.062C316.57 148.332 321.9 142.992 330.5 141.062C340.26 142.152 347.26 147.152 351.5 156.062C356.7 172.642 359.2 189.642 359 207.062Z" fill="#DB5647"/>
<path fill-rule="evenodd" clip-rule="evenodd" d="M366 243.061C363.33 243.061 360.67 243.061 358 243.061C346.53 242.841 339.53 237.171 337 226.061C339.42 214.171 346.75 207.831 359 207.061C363.47 206.511 367.81 205.841 372 205.061C387 204.111 402 203.111 417 202.061C422.83 193.811 430.5 187.981 440 184.561C454.16 182.551 461.49 188.711 462 203.061C460.45 215.321 454.45 224.821 444 231.561C451.27 234.271 457.1 238.771 461.5 245.061C463.74 258.851 457.74 265.851 443.5 266.061C438.14 265.761 432.98 264.601 428 262.561C423.63 259.371 418.96 256.711 414 254.561C409.99 251.361 407.99 247.201 408 242.061C394.01 242.791 380.01 243.131 366 243.061Z" fill="#FCFCFC"/>
<path fill-rule="evenodd" clip-rule="evenodd" d="M295 237.062C289.84 234.652 285.18 231.482 281 227.562C271.13 223.722 260.97 220.882 250.5 219.062C241.43 220.792 235.43 226.122 232.5 235.062C226.39 257.522 234.89 269.192 258 270.062C262.72 268.282 266.89 265.612 270.5 262.062C272.83 257.392 275.17 252.732 277.5 248.062C278.95 244.402 279.45 240.732 279 237.062C283.71 241.072 289.04 242.402 295 241.062C295.52 244.452 296.36 247.782 297.5 251.062C297.82 259.102 295.49 266.442 290.5 273.062C281.13 285.742 268.63 293.572 253 296.562C231.47 302.922 209.8 303.582 188 298.562C176.19 294.912 166.35 288.412 158.5 279.062C156.97 276.142 155.64 273.142 154.5 270.062C153.2 261.452 152.7 252.782 153 244.062C155.62 241.782 158.29 239.442 161 237.062C161.91 238.352 161.74 239.682 160.5 241.062C159.88 252.212 164.04 261.042 173 267.562C192.03 271.542 204.03 264.042 209 245.062C206.75 238.242 204.25 231.582 201.5 225.062C193.46 219.782 184.62 217.952 175 219.562C166.54 221.462 158.87 224.962 152 230.062C152.76 222.802 155.6 216.462 160.5 211.062C167.26 206.962 173.43 202.132 179 196.562C183.62 193.422 188.62 191.082 194 189.562C211.08 186.242 227.75 187.572 244 193.562C261.5 199.412 276.67 208.912 289.5 222.062C293.02 226.452 294.85 231.452 295 237.062Z" fill="#FCFCFC"/>
<path fill-rule="evenodd" clip-rule="evenodd" d="M121 215.062C123.2 226.652 124.53 238.482 125 250.562C124.64 251.992 123.97 253.162 123 254.062C115.76 255.642 108.42 256.812 101 257.562C96.7302 261.832 93.2302 266.672 90.5002 272.062C81.4102 284.202 69.5802 288.372 55.0002 284.562C46.8602 280.122 43.7002 273.282 45.5002 264.062C47.6402 255.582 52.4702 249.082 60.0002 244.562C44.8902 236.502 37.3902 224.002 37.5002 207.062C40.1302 201.172 44.6302 197.832 51.0002 197.062C56.6802 197.362 62.0102 198.862 67.0002 201.562C73.6102 205.842 79.9502 210.512 86.0002 215.562C97.6802 216.202 109.35 216.032 121 215.062Z" fill="#FCFCFC"/>
<path fill-rule="evenodd" clip-rule="evenodd" d="M153 244.062C146.42 246.282 144.25 243.942 146.5 237.062C148.93 235.142 150.76 232.802 152 230.062C158.87 224.962 166.54 221.462 175 219.562C184.62 217.952 193.46 219.782 201.5 225.062C204.25 231.582 206.75 238.242 209 245.062C204.03 264.042 192.03 271.542 173 267.562C164.04 261.042 159.88 252.212 160.5 241.062C161.74 239.682 161.91 238.352 161 237.062C158.29 239.442 155.62 241.782 153 244.062Z" fill="#050505"/>
<path fill-rule="evenodd" clip-rule="evenodd" d="M295 237.062C295 238.392 295 239.732 295 241.062C289.04 242.402 283.71 241.072 279 237.062C279.45 240.732 278.95 244.402 277.5 248.062C275.17 252.732 272.83 257.392 270.5 262.062C266.89 265.612 262.72 268.282 258 270.062C234.89 269.192 226.39 257.522 232.5 235.062C235.43 226.122 241.43 220.792 250.5 219.062C260.97 220.882 271.13 223.722 281 227.562C285.18 231.482 289.84 234.652 295 237.062Z" fill="#050505"/>
<path fill-rule="evenodd" clip-rule="evenodd" d="M246.001 226.062C250.931 225.502 253.601 227.662 254.001 232.562C252.921 246.082 247.761 248.242 238.501 239.062C237.831 236.732 237.831 234.392 238.501 232.062C240.981 229.922 243.481 227.922 246.001 226.062Z" fill="#F7F7F7"/>
<path fill-rule="evenodd" clip-rule="evenodd" d="M189 228.061C195.38 226.611 198.71 229.111 199 235.561C198.75 241.931 195.59 245.761 189.5 247.061C185.12 246.001 182.95 243.171 183 238.561C183.61 234.181 185.61 230.681 189 228.061Z" fill="#F7F7F7"/>
<path fill-rule="evenodd" clip-rule="evenodd" d="M233.001 271.062C235.541 271.272 237.211 272.602 238.001 275.062C235.911 279.982 232.581 283.812 228.001 286.562C225.591 287.042 223.251 286.712 221.001 285.562C217.881 283.592 214.721 281.752 211.501 280.062C210.911 276.972 212.251 275.312 215.501 275.062C218.321 275.552 220.821 276.722 223.001 278.562C224.331 279.232 225.671 279.232 227.001 278.562C228.861 275.872 230.861 273.372 233.001 271.062Z" fill="#0D0D0D"/>
</svg>
