<svg width="500" height="500" viewBox="0 0 500 500" fill="none" xmlns="http://www.w3.org/2000/svg">
<path fill-rule="evenodd" clip-rule="evenodd" d="M336 119.061C334.81 119.921 333.65 120.921 332.5 122.061C329.16 128.761 325.83 135.431 322.5 142.061C315.13 149.001 306.96 154.831 298 159.561C287.09 163.751 276.09 167.751 265 171.561C249.09 175.451 233.43 180.121 218 185.561C206.19 188.991 194.19 191.661 182 193.561C165.93 195.391 150.27 193.721 135 188.561C132.04 186.601 129.37 184.271 127 181.561C124.49 180.311 121.82 179.811 119 180.061C114.27 165.091 112.1 149.761 112.5 134.061C114.93 121.201 119.59 109.201 126.5 98.0613C134.55 84.6813 143.39 71.8413 153 59.5613C178.56 38.5913 207.56 31.9213 240 39.5613C260.38 44.5813 280.05 51.5813 299 60.5613C303.13 63.6913 306.97 67.1913 310.5 71.0613C319.44 83.2713 327.11 96.2713 333.5 110.061C334.64 112.991 335.48 115.991 336 119.061Z" fill="#93F1FE"/>
<path fill-rule="evenodd" clip-rule="evenodd" d="M228 63.0615C225 63.0615 222 63.0615 219 63.0615C221.13 62.2515 223.46 61.7515 226 61.5615C220.09 54.3415 221.76 49.3415 231 46.5615C234.94 45.4115 238.94 44.5815 243 44.0615C254.8 46.4615 266.13 50.2915 277 55.5615C282.12 59.0115 286.95 62.8515 291.5 67.0615C294.03 74.1615 291.53 77.6615 284 77.5615C278 73.5615 272 69.5615 266 65.5615C258.29 62.4315 250.46 59.9315 242.5 58.0615C237.33 59.0815 232.49 60.7515 228 63.0615Z" fill="#ACF4FF"/>
<path fill-rule="evenodd" clip-rule="evenodd" d="M219 63.0612C222 63.0612 225 63.0612 228 63.0612C246.6 62.5912 262.93 68.2612 277 80.0612C270.74 79.2512 264.57 77.9212 258.5 76.0612C251.02 76.7712 243.52 77.2712 236 77.5612C228.92 78.0112 224.08 81.5112 221.5 88.0612C217.7 99.5312 219.36 110.191 226.5 120.061C228.44 122.671 230.94 124.501 234 125.561C256.08 128.991 266.74 119.491 266 97.0612C266.39 93.1412 265.39 89.6412 263 86.5612C265.7 86.5112 268.37 87.0112 271 88.0612C273.65 87.4512 276.31 86.9512 279 86.5612C279.84 85.5512 280.17 84.3812 280 83.0612C290.76 91.8412 294.93 103.181 292.5 117.061C289.41 127.491 283.25 135.661 274 141.561C265.95 147.581 257.29 152.581 248 156.561C226.47 164.321 204.31 168.821 181.5 170.061C160.6 172.291 145.93 163.951 137.5 145.061C136.06 139.801 135.73 134.461 136.5 129.061C139.33 114.901 146.16 103.061 157 93.5612C164.84 88.1412 172.51 82.4712 180 76.5612C192.06 69.1912 205.06 64.6912 219 63.0612Z" fill="#FCFDFD"/>
<path fill-rule="evenodd" clip-rule="evenodd" d="M277 80.0615C278.19 80.8315 279.19 81.8315 280 83.0615C280.17 84.3815 279.84 85.5515 279 86.5615C276.31 86.9515 273.65 87.4515 271 88.0615C268.37 87.0115 265.7 86.5115 263 86.5615C265.39 89.6415 266.39 93.1415 266 97.0615C266.74 119.492 256.08 128.992 234 125.562C230.94 124.502 228.44 122.672 226.5 120.062C219.36 110.192 217.7 99.5315 221.5 88.0615C224.08 81.5115 228.92 78.0115 236 77.5615C243.52 77.2715 251.02 76.7715 258.5 76.0615C264.57 77.9215 270.74 79.2515 277 80.0615Z" fill="#050505"/>
<path fill-rule="evenodd" clip-rule="evenodd" d="M230.999 85.0614C235.529 84.7414 238.369 86.7414 239.499 91.0614C242.329 101.061 238.829 105.061 228.999 103.061C224.549 101.151 223.049 97.8214 224.499 93.0614C226.899 90.5914 229.069 87.9214 230.999 85.0614Z" fill="#F5F5F5"/>
<path fill-rule="evenodd" clip-rule="evenodd" d="M172 99.0617C177.61 98.4717 182.94 99.3017 188 101.562C190.45 105.582 193.62 109.082 197.5 112.062C199.26 115.012 200.43 118.182 201 121.562C199.85 137.542 191.52 147.042 176 150.062C170.25 148.982 165.08 146.642 160.5 143.062C155.66 138.052 153 132.052 152.5 125.062C150.33 127.392 148.67 130.062 147.5 133.062C142.66 138.892 139.49 138.062 138 130.562C144.14 114.252 155.47 103.752 172 99.0617Z" fill="#050505"/>
<path fill-rule="evenodd" clip-rule="evenodd" d="M179 105.062C187.62 107.042 190.45 112.382 187.5 121.062C183.57 127.302 179.24 127.632 174.5 122.062C171.43 115.022 172.93 109.352 179 105.062Z" fill="#F4F4F4"/>
<path fill-rule="evenodd" clip-rule="evenodd" d="M402 202.061C391.55 214.671 378.88 224.511 364 231.561C355.02 241.721 345.02 250.551 334 258.061C325.6 263.791 316.93 269.121 308 274.061C289.04 279.371 270.38 285.541 252 292.561C243.51 295.181 234.84 296.851 226 297.561C222.37 300.211 218.37 302.041 214 303.061C206.28 304.571 198.61 306.241 191 308.061C191.13 307.181 190.8 306.521 190 306.061C181.4 307.441 172.73 308.441 164 309.061C146.33 308.791 128.67 308.451 111 308.061C106.42 308.771 102.75 307.271 99.9997 303.561C89.6397 300.981 81.7997 295.141 76.4997 286.061C73.6597 278.831 73.3297 271.501 75.4997 264.061C81.8597 253.001 86.8597 241.341 90.4997 229.061C98.6497 214.281 105.48 199.111 111 183.561C113.32 181.571 115.98 180.401 119 180.061C121.82 179.811 124.49 180.311 127 181.561C129.37 184.271 132.04 186.601 135 188.561C150.27 193.721 165.93 195.391 182 193.561C194.19 191.661 206.19 188.991 218 185.561C233.43 180.121 249.09 175.451 265 171.561C276.09 167.751 287.09 163.751 298 159.561C306.96 154.831 315.13 149.001 322.5 142.061C325.83 135.431 329.16 128.761 332.5 122.061C333.65 120.921 334.81 119.921 336 119.061C339.58 117.971 343.24 117.801 347 118.561C357.33 121.891 367 126.561 376 132.561C390.7 136.461 404.7 142.131 418 149.561C427.44 158.211 427.27 166.711 417.5 175.061C413.34 184.701 408.17 193.701 402 202.061Z" fill="#607D8B"/>
<path fill-rule="evenodd" clip-rule="evenodd" d="M233.001 133.062C235.771 133.192 237.111 134.692 237.001 137.562C235.241 151.082 227.901 155.082 215.001 149.562C212.331 147.562 212.331 145.562 215.001 143.562C219.421 143.382 223.761 143.212 228.001 143.062C228.551 139.002 230.221 135.662 233.001 133.062Z" fill="#0A0A0A"/>
<path fill-rule="evenodd" clip-rule="evenodd" d="M349 168.062C360.95 167.962 365.12 173.632 361.5 185.062C359.96 186.942 358.12 188.442 356 189.562C351.29 190.062 346.63 189.722 342 188.562C337.19 185.432 336.02 181.262 338.5 176.062C341.48 172.512 344.98 169.852 349 168.062Z" fill="#7FAF5B"/>
<path fill-rule="evenodd" clip-rule="evenodd" d="M402 202.062C409.03 226.242 402.03 244.742 381 257.562C369.07 263.772 356.41 265.772 343 263.562C341.35 262.952 339.68 262.452 338 262.062C336.2 261.172 334.87 259.832 334 258.062C345.02 250.552 355.02 241.722 364 231.562C378.88 224.512 391.55 214.672 402 202.062Z" fill="#FEEA3C"/>
<path fill-rule="evenodd" clip-rule="evenodd" d="M278 212.062C294.53 211.452 298.36 218.122 289.5 232.062C284.05 238.142 278.38 238.482 272.5 233.062C271.69 231.142 271.19 229.142 271 227.062C271.5 221.062 273.84 216.062 278 212.062Z" fill="#7FB05B"/>
<path fill-rule="evenodd" clip-rule="evenodd" d="M206.999 237.061C220.289 236.171 224.459 241.841 219.499 254.061C214.969 260.581 208.799 263.081 200.999 261.561C192.509 255.071 191.839 247.741 198.999 239.561C201.749 238.621 204.419 237.781 206.999 237.061Z" fill="#7FAF5B"/>
<path fill-rule="evenodd" clip-rule="evenodd" d="M134 237.062C143.49 237.052 147.32 241.722 145.5 251.062C143.8 256.962 140.3 261.462 135 264.562C127.71 267.942 122.88 265.782 120.5 258.062C118.85 252.182 120.35 247.352 125 243.562C127.92 241.112 130.92 238.952 134 237.062Z" fill="#7FB05A"/>
<path fill-rule="evenodd" clip-rule="evenodd" d="M334 258.062C334.87 259.832 336.2 261.172 338 262.062C337.56 261.992 337.23 262.162 337 262.562C357.69 289.922 381.19 314.752 407.5 337.062C413.17 345.752 414.5 355.082 411.5 365.062C407.31 377.122 401.31 388.122 393.5 398.062C385.97 405.262 378.8 412.762 372 420.562C352 433.862 331 445.532 309 455.562C290.85 462.962 272.18 464.792 253 461.062C242.87 463.042 232.7 463.372 222.5 462.062C218.85 463.912 215.02 464.412 211 463.562C207.33 461.232 203.67 458.892 200 456.562C191.14 458.212 184.97 455.052 181.5 447.062C179.98 428.092 179.64 409.092 180.5 390.062C183.08 368.432 185.25 346.772 187 325.062C187 322.202 186.66 319.542 186 317.062C187.95 314.152 189.62 311.152 191 308.062C198.61 306.242 206.28 304.572 214 303.062C219.23 309.182 225.9 313.012 234 314.562C255.72 318.322 275.39 313.652 293 300.562C300.46 293.152 305.46 284.322 308 274.062C316.93 269.122 325.6 263.792 334 258.062Z" fill="#DBECC7"/>
<path fill-rule="evenodd" clip-rule="evenodd" d="M308 274.062C305.46 284.322 300.46 293.152 293 300.562C275.39 313.652 255.72 318.322 234 314.562C225.9 313.012 219.23 309.182 214 303.062C218.37 302.042 222.37 300.212 226 297.562C234.84 296.852 243.51 295.182 252 292.562C270.38 285.542 289.04 279.372 308 274.062Z" fill="#FDEA3D"/>
<path fill-rule="evenodd" clip-rule="evenodd" d="M191 308.062C189.62 311.152 187.95 314.152 186 317.062C181.53 321.702 177.2 326.532 173 331.562C147.35 345.612 127.18 340.112 112.5 315.062C111.52 312.822 111.02 310.492 111 308.062C128.67 308.452 146.33 308.792 164 309.062C172.73 308.442 181.4 307.442 190 306.062C190.8 306.522 191.13 307.182 191 308.062Z" fill="#FDEA3E"/>
<path fill-rule="evenodd" clip-rule="evenodd" d="M316.001 334.061C325.531 332.411 332.701 335.741 337.501 344.061C337.771 355.141 332.271 361.301 321.001 362.561C320.001 363.561 319.001 364.561 318.001 365.561C323.251 366.731 328.581 367.401 334.001 367.561C336.061 374.831 333.231 377.671 325.501 376.061C320.241 375.801 315.081 375.301 310.001 374.561C309.541 374.971 309.211 375.471 309.001 376.061C311.011 383.251 311.511 390.581 310.501 398.061C306.651 401.111 303.651 400.441 301.501 396.061C301.001 392.411 300.831 388.741 301.001 385.061C297.711 384.821 294.711 385.651 292.001 387.561C288.511 388.561 285.341 388.061 282.501 386.061C281.831 384.391 281.831 382.731 282.501 381.061C287.441 378.191 292.611 375.691 298.001 373.561C299.001 372.561 300.001 371.561 301.001 370.561C297.501 367.731 294.001 364.891 290.501 362.061C289.331 356.561 291.501 354.391 297.001 355.561C300.191 358.251 303.531 360.751 307.001 363.061C309.151 361.411 311.151 359.581 313.001 357.561C304.491 354.391 302.321 348.891 306.501 341.061C309.321 338.081 312.491 335.751 316.001 334.061Z" fill="#FEFEFD"/>
</svg>
