<svg width="500" height="500" viewBox="0 0 500 500" fill="none" xmlns="http://www.w3.org/2000/svg">
<path fill-rule="evenodd" clip-rule="evenodd" d="M148 380.062C145.27 376.332 141.94 373.332 138 371.062C138.11 370.442 138.44 369.942 139 369.562C133.11 362.002 127.61 354.172 122.5 346.062C107.34 306.792 103.68 266.462 111.5 225.062C113.43 217.262 115.77 209.602 118.5 202.062C119.17 198.062 119.17 194.062 118.5 190.062C97.4901 174.362 87.4901 153.362 88.5001 127.062C90.9701 121.572 95.1401 118.072 101 116.562C117.61 114.412 134.28 113.412 151 113.562C160.38 117.242 170.04 119.912 180 121.562C186.7 124.332 193.2 127.492 199.5 131.062C215.55 116.212 234.55 108.542 256.5 108.062C277.25 109.072 297.25 113.412 316.5 121.062C323.34 114.562 330.5 108.392 338 102.562C349.31 96.4021 360.98 91.0721 373 86.5621C386.03 83.0321 398.03 85.0321 409 92.5621C415.27 97.2721 417.44 103.442 415.5 111.062C413.89 119.562 410.89 127.562 406.5 135.062C399.67 143.232 392.83 151.392 386 159.562C400.8 168.372 411.3 180.872 417.5 197.062C422.94 217.832 427.28 238.832 430.5 260.062C433.58 291.702 425.91 320.362 407.5 346.062C395.02 364.552 378.85 378.722 359 388.562C347.92 392.502 336.59 395.502 325 397.562C262.67 424.562 203.67 418.732 148 380.062Z" fill="#FEC0C0"/>
<path fill-rule="evenodd" clip-rule="evenodd" d="M311 131.063C316.5 130.203 321.33 131.533 325.5 135.063C326.17 136.393 326.17 137.733 325.5 139.063C321.84 140.063 318.18 141.063 314.5 142.063C308.17 141.913 306 138.913 308 133.063C309.24 132.623 310.24 131.953 311 131.063Z" fill="#0C0808"/>
<path fill-rule="evenodd" clip-rule="evenodd" d="M255.001 132.062C274.611 130.452 291.111 136.792 304.501 151.062C310.121 164.532 305.961 173.362 292.001 177.562C281.861 178.432 271.861 180.092 262.001 182.562C255.001 183.232 248.001 183.232 241.001 182.562C228.131 179.322 222.961 171.162 225.501 158.062C227.571 153.092 230.741 148.922 235.001 145.562C242.361 141.742 249.031 137.242 255.001 132.062Z" fill="#F99B98"/>
<path fill-rule="evenodd" clip-rule="evenodd" d="M202 144.062C206.55 143.482 210.38 144.822 213.5 148.062C212 155.832 207.5 157.992 200 154.562C198.61 153.602 197.94 152.272 198 150.562C198.34 147.732 199.68 145.562 202 144.062Z" fill="#0B0808"/>
<path fill-rule="evenodd" clip-rule="evenodd" d="M387.999 264.062C379.249 260.492 370.579 256.662 361.999 252.562C353.939 251.652 345.939 250.322 337.999 248.562C329.999 247.892 321.999 247.892 313.999 248.562C312.669 249.232 311.329 249.892 309.999 250.562C305.479 254.422 301.639 258.922 298.499 264.062C291.739 280.862 292.739 297.202 301.499 313.062C306.939 319.872 314.109 323.702 322.999 324.562C330.359 325.392 337.689 325.222 344.999 324.062C348.509 320.382 352.349 317.052 356.499 314.062C364.609 299.962 368.109 284.962 366.999 269.062C374.339 273.982 382.339 275.642 390.999 274.062C393.759 284.632 393.599 295.302 390.499 306.062C378.809 333.422 359.309 353.252 331.999 365.562C311.379 373.042 290.379 379.042 268.999 383.562C262.669 384.232 256.329 384.232 249.999 383.562C240.799 381.122 231.459 379.452 221.999 378.562C203.149 372.362 187.649 361.522 175.499 346.062C169.049 334.562 166.219 322.222 166.999 309.062C169.679 308.892 172.009 307.892 173.999 306.062C177.359 302.372 180.699 298.702 183.999 295.062C184.829 300.032 185.329 305.032 185.499 310.062C194.169 336.982 211.669 345.482 237.999 335.562C242.849 331.702 247.349 327.542 251.499 323.062C253.789 316.862 256.449 310.862 259.499 305.062C261.499 294.072 258.169 285.072 249.499 278.062C248.719 270.362 244.559 265.532 236.999 263.562C221.269 258.982 206.269 260.652 191.999 268.562C185.959 271.912 180.289 275.742 174.999 280.062C178.779 270.692 184.449 262.522 191.999 255.562C231.019 224.342 275.359 213.012 324.999 221.562C342.279 226.202 358.279 233.532 372.999 243.562C379.399 249.452 384.399 256.282 387.999 264.062Z" fill="#FDFDFD"/>
<path fill-rule="evenodd" clip-rule="evenodd" d="M388.001 264.062C391.961 266.442 392.961 269.782 391.001 274.062C382.341 275.642 374.341 273.982 367.001 269.062C368.111 284.962 364.611 299.962 356.501 314.062C352.351 317.052 348.511 320.382 345.001 324.062C337.691 325.222 330.361 325.392 323.001 324.562C314.111 323.702 306.941 319.872 301.501 313.062C292.741 297.202 291.741 280.862 298.501 264.062C301.641 258.922 305.481 254.422 310.001 250.562C311.331 249.892 312.671 249.232 314.001 248.562C322.001 247.892 330.001 247.892 338.001 248.562C345.941 250.322 353.941 251.652 362.001 252.562C370.581 256.662 379.251 260.492 388.001 264.062Z" fill="#040404"/>
<path fill-rule="evenodd" clip-rule="evenodd" d="M316 258.062C323.45 258.102 327.45 261.762 328 269.062C327.54 273.732 327.04 278.402 326.5 283.062C322.36 287.772 317.19 289.272 311 287.562C309.1 284.192 306.6 281.362 303.5 279.062C301.46 274.772 301.96 270.772 305 267.062C309 264.382 312.67 261.382 316 258.062Z" fill="#F4F4F4"/>
<path fill-rule="evenodd" clip-rule="evenodd" d="M167.001 309.062C165.111 309.262 163.611 308.602 162.501 307.062C161.831 303.392 161.831 299.732 162.501 296.062C165.961 290.112 170.131 284.782 175.001 280.062C180.291 275.742 185.961 271.912 192.001 268.562C206.271 260.652 221.271 258.982 237.001 263.562C244.561 265.532 248.721 270.362 249.501 278.062C258.171 285.072 261.501 294.072 259.501 305.062C256.451 310.862 253.791 316.862 251.501 323.062C247.351 327.542 242.851 331.702 238.001 335.562C211.671 345.482 194.171 336.982 185.501 310.062C185.331 305.032 184.831 300.032 184.001 295.062C180.701 298.702 177.361 302.372 174.001 306.062C172.011 307.892 169.681 308.892 167.001 309.062Z" fill="#050505"/>
<path fill-rule="evenodd" clip-rule="evenodd" d="M228 273.062C237.29 272.532 242.29 276.862 243 286.062C243.06 295.662 238.56 301.662 229.5 304.062C222.62 302.002 218.78 297.332 218 290.062C218.86 282.862 222.2 277.202 228 273.062Z" fill="#F7F7F7"/>
<path fill-rule="evenodd" clip-rule="evenodd" d="M303 332.062C307.46 331.362 310.13 333.202 311 337.562C308.96 344.312 305.63 350.312 301 355.562C298.99 356.822 296.82 357.652 294.5 358.062C287.66 356.222 280.83 354.392 274 352.562C270 348.892 270 345.232 274 341.562C276.33 340.892 278.67 340.892 281 341.562C285.39 344.312 290.06 345.482 295 345.062C297.43 340.532 300.09 336.202 303 332.062Z" fill="#0C0C0C"/>
<path d="M93.5 353.061C99.2699 346.981 106.11 345.481 114 348.561C121.9 356.891 124.57 366.731 122 378.061C128.58 378.431 133.92 376.101 138 371.061C141.94 373.331 145.27 376.331 148 380.061C139.96 388.691 129.96 392.521 118 391.561C106.95 407.151 92.95 410.151 76 400.561C71.71 397.611 69.04 393.611 68 388.561C69.56 382.351 73.2201 380.681 79 383.561C83.85 391.471 90.85 394.141 100 391.561C101.08 390.601 102.25 389.771 103.5 389.061C104.17 388.391 104.17 387.731 103.5 387.061C90.8201 378.341 87.49 367.011 93.5 353.061ZM105 360.061C103.25 361.721 102.75 363.721 103.5 366.061C108.71 376.741 110.38 375.741 108.5 363.061C108.08 361.131 106.91 360.131 105 360.061Z" fill="#D98C87"/>
</svg>
