<svg width="500" height="500" viewBox="0 0 500 500" fill="none" xmlns="http://www.w3.org/2000/svg">
<path fill-rule="evenodd" clip-rule="evenodd" d="M247 54.0615C258.2 67.8015 265.7 83.4715 269.5 101.062C269.99 107.412 270.65 113.752 271.5 120.062C276.9 131.792 284.24 133.122 293.5 124.062C296.8 115.702 297.8 107.032 296.5 98.0615C294.28 88.6315 291.78 79.3015 289 70.0615C316.93 78.5915 339.43 94.5915 356.5 118.062C387.35 165.492 396.18 216.832 383 272.062C381.33 278.732 379.67 285.392 378 292.062C370.49 310.082 360.66 326.752 348.5 342.062C333.52 357.542 316.02 369.212 296 377.062C292.25 378.422 288.58 379.752 285 381.062C265.33 384.712 245.66 384.552 226 380.562C217.67 380.062 209.34 379.892 201 380.062C197 380.062 193 380.062 189 380.062C163.41 374.262 139.41 364.602 117 351.062C128.44 327.992 121.77 320.492 96.9999 328.562C93.5799 329.312 90.2399 329.142 86.9999 328.062C84.6399 325.372 82.2999 322.702 79.9999 320.062C83.1499 306.432 88.9799 294.102 97.4999 283.062C98.7899 279.702 97.7899 277.702 94.4999 277.062C92.3499 277.862 90.1799 278.692 87.9999 279.562C80.8899 286.652 74.8899 294.492 69.9999 303.062C63.7399 284.992 60.7399 266.322 60.9999 247.062C63.1599 229.112 64.6599 211.112 65.4999 193.062C67.4199 167.342 75.7499 144.002 90.4999 123.062C99.7799 112.332 109.61 102.162 120 92.5615C130.93 87.2215 141.26 81.0515 151 74.0615C155.85 84.4315 159.02 95.4315 160.5 107.062C163.83 117.062 167.17 127.062 170.5 137.062C176.15 146.582 183.81 148.582 193.5 143.062C198.55 135.822 200.22 127.822 198.5 119.062C193.75 104.152 189.42 89.1515 185.5 74.0615C183.05 69.4915 180.88 64.8315 179 60.0615C185.63 58.5015 192.3 57.0015 199 55.5615C210.49 55.5315 221.83 54.3615 233 52.0615C237.63 53.0515 242.29 53.7215 247 54.0615Z" fill="#FEEA3B"/>
<path fill-rule="evenodd" clip-rule="evenodd" d="M289 70.0615C291.78 79.3015 294.28 88.6315 296.5 98.0615C297.8 107.032 296.8 115.702 293.5 124.062C284.24 133.122 276.9 131.792 271.5 120.062C270.65 113.752 269.99 107.412 269.5 101.062C265.7 83.4715 258.2 67.8015 247 54.0615C245.94 52.9815 245.94 51.9815 247 51.0615C260.04 55.0715 273.04 59.2415 286 63.5615C286.91 65.7815 287.91 67.9515 289 70.0615Z" fill="#030301"/>
<path fill-rule="evenodd" clip-rule="evenodd" d="M179 60.0615C180.88 64.8315 183.05 69.4915 185.5 74.0615C189.42 89.1515 193.75 104.152 198.5 119.062C200.22 127.822 198.55 135.822 193.5 143.062C183.81 148.582 176.15 146.582 170.5 137.062C167.17 127.062 163.83 117.062 160.5 107.062C159.02 95.4315 155.85 84.4315 151 74.0615C150.78 72.8815 151.11 71.8815 152 71.0615C160.04 66.7715 168.2 62.7715 176.5 59.0615C177.4 59.3015 178.24 59.6415 179 60.0615Z" fill="#030301"/>
<path fill-rule="evenodd" clip-rule="evenodd" d="M330 102.062C334.45 102.722 336.12 105.392 335 110.062C333.58 120.882 331.42 131.552 328.5 142.062C321.07 151.492 312.9 160.332 304 168.562C270.06 188.882 233.4 197.212 194 193.562C169.41 190.042 145.74 183.382 123 173.562C121.58 169.812 119.08 166.982 115.5 165.062C109.96 157.982 105.46 150.312 102 142.062C102.6 139.312 104.26 138.482 107 139.562C112.23 152.702 120.56 163.372 132 171.562C144.93 175.712 157.93 179.712 171 183.562C192.79 187.892 214.79 189.222 237 187.562C260.63 182.742 282.63 174.072 303 161.562C311 153.902 317.83 145.402 323.5 136.062C326.89 124.932 329.06 113.602 330 102.062Z" fill="#0C0B02"/>
<path fill-rule="evenodd" clip-rule="evenodd" d="M337 235.062C332.01 232.222 326.67 230.062 321 228.562C312.06 227.142 303.06 225.812 294 224.562C286.27 223.162 278.94 224.162 272 227.562C259.45 238.532 254.62 252.362 257.5 269.062C258.61 279.112 262.77 287.612 270 294.562C273.49 296.352 277.16 297.682 281 298.562C288.35 298.832 295.69 299.332 303 300.062C308.54 296.692 313.71 292.692 318.5 288.062C325.83 274.432 328.83 260.092 327.5 245.062C333.33 249.192 339.83 251.192 347 251.062C351.28 271.522 349.11 291.182 340.5 310.062C333.06 320.212 323.23 327.042 311 330.562C299.91 333.442 289.25 337.442 279 342.562C248.75 353.372 217.75 356.372 186 351.562C170.56 346.132 158.73 336.292 150.5 322.062C147.58 314.632 143.92 307.632 139.5 301.062C137.22 295.592 135.72 289.922 135 284.062C140.96 279.942 146.13 274.942 150.5 269.062C150.67 272.382 150.51 275.712 150 279.062C150.11 282.132 150.61 285.132 151.5 288.062C154.36 292.972 157.02 297.972 159.5 303.062C178.87 319.762 197.21 318.422 214.5 299.062C217.31 292.282 220.31 285.612 223.5 279.062C224.26 268.572 220.59 259.902 212.5 253.062C211.01 244.572 205.84 239.742 197 238.562C180.75 235.522 165.75 238.522 152 247.562C147.17 250.892 142.51 254.392 138 258.062C140.02 251.692 142.85 245.692 146.5 240.062C173.58 209.352 207.75 196.522 249 201.562C259.24 198.622 269.58 198.292 280 200.562C294.09 204.922 307.76 210.262 321 216.562C327.17 222.102 332.5 228.272 337 235.062Z" fill="#FDFDFC"/>
<path fill-rule="evenodd" clip-rule="evenodd" d="M337 235.062C342.19 237.912 347.35 240.912 352.5 244.062C353.14 248.262 351.3 250.602 347 251.062C339.83 251.192 333.33 249.192 327.5 245.062C328.83 260.092 325.83 274.432 318.5 288.062C313.71 292.692 308.54 296.692 303 300.062C295.69 299.332 288.35 298.832 281 298.562C277.16 297.682 273.49 296.352 270 294.562C262.77 287.612 258.61 279.112 257.5 269.062C254.62 252.362 259.45 238.532 272 227.562C278.94 224.162 286.27 223.162 294 224.562C303.06 225.812 312.06 227.142 321 228.562C326.67 230.062 332.01 232.222 337 235.062Z" fill="#040404"/>
<path fill-rule="evenodd" clip-rule="evenodd" d="M378 292.061C379.67 285.391 381.33 278.731 383 272.061C388.7 269.201 394.04 265.701 399 261.561C401.83 258.381 404.17 254.881 406 251.061C396.38 246.031 394.71 239.201 401 230.561C403.47 229.851 405.8 230.191 408 231.561C410.77 235.081 413.77 238.421 417 241.561C423.37 241.211 429.7 240.541 436 239.561C438.38 242.661 439.05 245.991 438 249.561C431.68 252.421 425.01 253.761 418 253.561C414.56 261.101 409.9 267.771 404 273.561C395.48 279.981 386.81 286.151 378 292.061Z" fill="#090808"/>
<path fill-rule="evenodd" clip-rule="evenodd" d="M277 235.062C282.7 234.002 286.87 236.002 289.5 241.062C289.91 246.752 289.57 252.422 288.5 258.062C284.09 262.912 278.59 264.412 272 262.562C269.87 259.762 267.71 256.922 265.5 254.062C264.68 250.602 265.02 247.262 266.5 244.062C270.16 241.162 273.66 238.162 277 235.062Z" fill="#F5F5F5"/>
<path fill-rule="evenodd" clip-rule="evenodd" d="M135 284.062C132.71 284.322 130.54 283.982 128.5 283.062C127.83 279.062 127.83 275.062 128.5 271.062C131.69 266.662 134.85 262.332 138 258.062C142.51 254.392 147.17 250.892 152 247.562C165.75 238.522 180.75 235.522 197 238.562C205.84 239.742 211.01 244.572 212.5 253.062C220.59 259.902 224.26 268.572 223.5 279.062C220.31 285.612 217.31 292.282 214.5 299.062C197.21 318.422 178.87 319.762 159.5 303.062C157.02 297.972 154.36 292.972 151.5 288.062C150.61 285.132 150.11 282.132 150 279.062C150.51 275.712 150.67 272.382 150.5 269.062C146.13 274.942 140.96 279.942 135 284.062Z" fill="#040404"/>
<path fill-rule="evenodd" clip-rule="evenodd" d="M193 249.061C201.6 248.851 206.26 253.021 207 261.561C206.98 270.731 202.82 276.891 194.5 280.061C187.28 277.671 183.11 272.671 182 265.061C183.24 257.881 186.9 252.541 193 249.061Z" fill="#F6F6F6"/>
<path fill-rule="evenodd" clip-rule="evenodd" d="M80 320.062C79.57 325.212 81.9 327.882 87 328.062C90.24 329.142 93.58 329.312 97 328.562C121.77 320.492 128.44 327.992 117 351.062C114.44 353.672 111.78 356.172 109 358.562C103.48 360.372 100.81 358.372 101 352.562C101.83 348.572 103.16 344.742 105 341.062C96.4 341.022 87.73 340.852 79 340.562C75.95 339.952 73.45 338.452 71.5 336.062C68.9 330.702 66.73 325.202 65 319.562C65.37 316.702 65.87 313.872 66.5 311.062C68.34 308.692 69.51 306.032 70 303.062C74.89 294.492 80.89 286.652 88 279.562C90.18 278.692 92.35 277.862 94.5 277.062C97.79 277.702 98.79 279.702 97.5 283.062C88.98 294.102 83.15 306.432 80 320.062Z" fill="#070604"/>
<path fill-rule="evenodd" clip-rule="evenodd" d="M265 307.062C269.44 306.262 272.11 307.932 273 312.062C271.24 319.422 267.58 325.582 262 330.562C257.73 332.252 253.39 332.252 249 330.562C245.18 328.652 241.18 327.322 237 326.562C233.01 323.182 233.01 319.852 237 316.562C242.27 316.022 247.27 317.022 252 319.562C253.67 320.232 255.33 320.232 257 319.562C259.55 315.282 262.22 311.112 265 307.062Z" fill="#0A0A0A"/>
<path fill-rule="evenodd" clip-rule="evenodd" d="M296 377.062C296.72 377.482 297.22 378.142 297.5 379.062C299.57 392.052 301.57 405.052 303.5 418.062C305.23 421.922 306.57 425.922 307.5 430.062C312.01 424.162 317.85 421.002 325 420.562C332.65 425.702 332.65 431.032 325 436.562C321.5 439.142 317.84 441.482 314 443.562C309.32 444.272 304.66 444.602 300 444.562C299.37 443.812 298.87 442.982 298.5 442.062C296.36 432.922 293.7 423.922 290.5 415.062C289.32 403.602 287.48 392.272 285 381.062C288.58 379.752 292.25 378.422 296 377.062Z" fill="#070707"/>
<path fill-rule="evenodd" clip-rule="evenodd" d="M189 380.062C193 380.062 197 380.062 201 380.062C201.93 397.042 202.6 414.042 203 431.062C205.99 430.432 208.99 430.262 212 430.562C215.59 432.912 219.42 434.752 223.5 436.062C224.24 438.002 224.08 439.832 223 441.562C209.75 453.142 196.92 452.642 184.5 440.062C184.17 439.062 183.83 438.062 183.5 437.062C184.47 428.742 185.81 420.402 187.5 412.062C188.6 401.422 189.1 390.752 189 380.062Z" fill="#070707"/>
</svg>
