<svg width="500" height="500" viewBox="0 0 500 500" fill="none" xmlns="http://www.w3.org/2000/svg">
<path fill-rule="evenodd" clip-rule="evenodd" d="M378 302.062C374.27 300.241 371.1 300.908 368.5 304.062C368.91 307.111 368.74 310.111 368 313.062C359.49 325.411 350.49 337.411 341 349.062C341.13 349.938 340.8 350.605 340 351.062C335.22 350.187 331.06 351.52 327.5 355.062C327.42 358.839 327.25 362.506 327 366.062C319.48 372.314 311.81 378.314 304 384.062C301.2 385.328 298.2 386.161 295 386.562C293.68 387.378 293.01 388.545 293 390.062C287.82 393.733 282.49 397.233 277 400.562C266.45 403.007 256.12 402.34 246 398.562C240.31 395.383 234.64 392.217 229 389.062C227.22 385.289 224.22 383.623 220 384.062C215.69 380.76 211.36 377.426 207 374.062C205.82 372.874 205.82 371.707 207 370.562C203.19 367.915 199.85 364.749 197 361.062C194.31 360.302 191.65 359.635 189 359.062C183.19 354.093 177.19 349.259 171 344.562C163.13 335.19 154.46 326.69 145 319.062C141.51 316.133 138.17 312.967 135 309.562C134.05 309.079 133.05 308.913 132 309.062C123.27 297.937 114.77 286.604 106.5 275.062C100.25 263.554 93.2502 252.554 85.5002 242.062C78.1202 226.968 70.4502 211.968 62.5002 197.062C57.5202 175.872 56.8502 154.538 60.5002 133.062C66.1302 112.81 74.4702 93.8096 85.5002 76.0616C91.0702 69.0234 97.9002 63.5234 106 59.5616C116.3 53.7396 127.3 50.2396 139 49.0616C151.97 49.9701 164.64 52.4701 177 56.5616C192.59 62.0924 208.26 67.4257 224 72.5616C230.61 75.201 236.95 78.3677 243 82.0616C250.09 69.4669 259.76 59.3003 272 51.5616C297.63 37.5022 324.96 32.1689 354 35.5616C376.31 40.8552 394.81 52.3552 409.5 70.0616C422.9 87.1858 432.9 106.186 439.5 127.062C443.39 161.921 439.72 195.921 428.5 229.062C416.5 248.395 404.5 267.729 392.5 287.062C388.16 292.565 383.33 297.565 378 302.062Z" fill="#F44336"/>
<path fill-rule="evenodd" clip-rule="evenodd" d="M271 196.062C286.34 195.895 301.67 196.062 317 196.562C330.12 198.674 342.78 202.341 355 207.562C373.13 220.882 378.63 238.382 371.5 260.062C361.56 286.667 343.06 304.501 316 313.562C279.54 320.39 242.87 321.724 206 317.562C190.94 312.802 176.27 307.136 162 300.562C148.3 288.603 144.13 273.769 149.5 256.062C154.93 237.966 166.1 224.8 183 216.562C211.5 205.698 240.83 198.865 271 196.062Z" fill="#FDFCFC"/>
<path fill-rule="evenodd" clip-rule="evenodd" d="M297.999 213.062C312.569 213.841 326.909 216.008 340.999 219.562C347.109 223.95 353.779 227.283 360.999 229.562C363.219 234.173 361.889 237.007 356.999 238.062C350.609 237.521 344.609 235.854 338.999 233.062C339.499 236.083 340.169 239.083 340.999 242.062C339.539 249.938 337.369 257.605 334.499 265.062C333.199 268.836 331.029 272.003 327.999 274.562C324.879 276.444 322.209 278.777 319.999 281.562C310.209 281.809 300.539 280.809 290.999 278.562C282.269 273.288 277.429 265.455 276.499 255.062C274.749 244.142 276.409 233.809 281.499 224.062C286.169 218.846 291.669 215.18 297.999 213.062Z" fill="#040404"/>
<path fill-rule="evenodd" clip-rule="evenodd" d="M294 223.061C299.31 222.301 303.15 224.301 305.5 229.061C305.61 234.061 305.28 239.061 304.5 244.061C300.8 248.833 295.97 250.333 290 248.561C287.87 245.758 285.71 242.925 283.5 240.061C282.7 236.85 283.2 233.85 285 231.061C288.37 228.686 291.37 226.019 294 223.061Z" fill="#F3F3F3"/>
<path fill-rule="evenodd" clip-rule="evenodd" d="M200.001 226.061C207.341 225.895 214.671 226.061 222.001 226.561C230.091 227.813 234.921 232.313 236.501 240.061C243.141 246.337 246.141 254.003 245.501 263.061C242.691 276.517 235.191 286.351 223.001 292.561C216.171 294.883 209.171 295.549 202.001 294.561C188.761 288.153 181.101 277.653 179.001 263.061C179.641 260.058 179.801 257.058 179.501 254.061C176.031 258.528 172.201 262.694 168.001 266.561C165.541 268.192 163.041 268.358 160.501 267.061C159.501 263.76 159.171 260.427 159.501 257.061C164.281 247.281 171.451 239.781 181.001 234.561C187.171 231.14 193.501 228.307 200.001 226.061Z" fill="#040404"/>
<path fill-rule="evenodd" clip-rule="evenodd" d="M218 236.062C228.13 236.633 232.3 241.967 230.5 252.062C228.71 257.788 225.05 261.788 219.5 264.062C212.88 262.276 209.38 257.942 209 251.062C209.25 244.235 212.25 239.235 218 236.062Z" fill="#F6F6F6"/>
<path fill-rule="evenodd" clip-rule="evenodd" d="M283 288.061C287.23 287.303 289.9 288.97 291 293.061C288.66 298.567 285.66 303.734 282 308.561C277.79 310.095 273.46 310.428 269 309.561C264.49 307.548 259.99 305.714 255.5 304.061C254.46 300.925 255.29 298.425 258 296.561C264.04 297.353 270.04 298.353 276 299.561C278.47 295.783 280.8 291.95 283 288.061Z" fill="#0D0D0D"/>
<path fill-rule="evenodd" clip-rule="evenodd" d="M378 302.061C384.53 307.462 388.36 314.462 389.5 323.061C390.88 330.464 389.88 337.464 386.5 344.061C381.59 347.932 376.43 351.432 371 354.561C362.34 358.168 353.67 361.668 345 365.061C347.09 368.234 348.92 371.567 350.5 375.061C352.19 381.266 350.02 384.099 344 383.561C337.21 379.818 332.37 374.318 329.5 367.061C328.83 366.309 328 365.975 327 366.061C327.25 362.505 327.42 358.838 327.5 355.061C331.06 351.519 335.22 350.186 340 351.061C340.8 350.604 341.13 349.937 341 349.061C351.51 347.668 361.51 344.668 371 340.061C371.65 330.936 370.65 321.936 368 313.061C368.74 310.11 368.91 307.11 368.5 304.061C371.1 300.907 374.27 300.24 378 302.061Z" fill="#060505"/>
<path fill-rule="evenodd" clip-rule="evenodd" d="M132.001 309.062C133.051 308.913 134.051 309.079 135.001 309.562C138.171 312.967 141.511 316.133 145.001 319.062C146.501 327.048 148.001 335.048 149.501 343.062C153.951 350.493 160.451 355.326 169.001 357.562C175.611 358.772 182.281 359.272 189.001 359.062C191.651 359.635 194.311 360.302 197.001 361.062C199.851 364.749 203.191 367.915 207.001 370.562C205.821 371.707 205.821 372.874 207.001 374.062C204.481 382.583 199.821 389.75 193.001 395.562C189.671 396.229 186.331 396.229 183.001 395.562C181.021 393.065 180.521 390.231 181.501 387.062C184.131 382.264 186.971 377.597 190.001 373.062C157.911 373.948 137.751 358.948 129.501 328.062C127.651 322.51 126.991 316.843 127.501 311.062C128.611 309.525 130.111 308.859 132.001 309.062Z" fill="#060505"/>
<path fill-rule="evenodd" clip-rule="evenodd" d="M368 313.062C370.65 321.937 371.65 330.937 371 340.062C361.51 344.669 351.51 347.669 341 349.062C350.49 337.411 359.49 325.411 368 313.062Z" fill="#F9F6F6"/>
<path fill-rule="evenodd" clip-rule="evenodd" d="M145 319.062C154.46 326.69 163.13 335.19 171 344.562C177.19 349.259 183.19 354.093 189 359.062C182.28 359.272 175.61 358.772 169 357.562C160.45 355.326 153.95 350.493 149.5 343.062C148 335.048 146.5 327.048 145 319.062Z" fill="#FBF9F8"/>
<path fill-rule="evenodd" clip-rule="evenodd" d="M220 384.062C224.22 383.623 227.22 385.289 229 389.062C230.96 391.747 232.46 394.747 233.5 398.062C235.04 409.228 237.37 420.228 240.5 431.062C242.46 440.4 242.46 449.733 240.5 459.062C238.77 461.179 236.6 462.679 234 463.562C227.13 465.717 220.13 466.384 213 465.562C207.41 462.283 206.74 458.283 211 453.562C215.68 452.327 220.35 451.16 225 450.062C223.63 433.685 221.79 417.352 219.5 401.062C218.52 397.771 217.35 394.605 216 391.562C216.43 388.539 217.76 386.039 220 384.062Z" fill="#060606"/>
<path fill-rule="evenodd" clip-rule="evenodd" d="M304 384.062C306.25 384.777 308.09 386.11 309.5 388.062C310.71 405.811 312.55 423.478 315 441.062C322.01 440.896 329.01 441.062 336 441.562C341.55 443.092 343.72 446.592 342.5 452.062C340.7 453.879 338.53 455.046 336 455.562C329 456.229 322 456.229 315 455.562C311.72 455.506 308.72 454.673 306 453.062C297.25 432.977 292.92 411.977 293 390.062C293.01 388.545 293.68 387.378 295 386.562C298.2 386.161 301.2 385.328 304 384.062Z" fill="#050505"/>
</svg>
