<svg width="500" height="500" viewBox="0 0 500 500" fill="none" xmlns="http://www.w3.org/2000/svg">
<path fill-rule="evenodd" clip-rule="evenodd" d="M99.9991 305.062C99.8391 302.702 99.9991 300.372 100.499 298.062C102.729 289.282 105.229 280.612 107.999 272.062C111.509 264.202 115.179 256.362 118.999 248.562C113.299 242.132 111.459 234.632 113.499 226.062C121.749 211.472 131.919 198.302 143.999 186.562C139.019 186.892 134.019 186.892 128.999 186.562C118.709 180.902 116.209 172.742 121.499 162.062C132.379 151.182 143.879 141.012 155.999 131.562C168.579 124.762 181.909 120.262 195.999 118.062C194.049 108.142 197.379 100.642 205.999 95.5621C217.769 89.8721 230.109 85.8721 242.999 83.5621C255.639 81.7621 268.309 80.1021 280.999 78.5621C295.109 77.4421 309.109 78.1021 322.999 80.5621C331.239 83.7021 335.239 89.7021 334.999 98.5621C350.999 107.232 367.659 114.232 384.999 119.562C394.049 125.592 403.379 131.262 412.999 136.562C418.219 140.402 420.379 145.562 419.499 152.062C426.969 156.202 432.309 162.202 435.499 170.062C436.789 180.472 432.629 187.802 422.999 192.062C430.689 201.252 438.189 210.582 445.499 220.062C449.399 225.522 451.899 231.522 452.999 238.062C452.329 247.402 447.329 252.402 437.999 253.062C441.369 266.792 444.369 280.622 446.999 294.562C446.489 302.242 442.489 307.072 434.999 309.062C434.119 323.422 432.949 337.752 431.499 352.062C429.399 358.692 424.899 362.362 417.999 363.062C412.169 362.752 407.669 360.082 404.499 355.062C401.459 361.972 397.289 368.142 391.999 373.562C386.829 375.692 381.829 375.522 376.999 373.062C374.239 380.572 372.079 388.242 370.499 396.062C365.069 410.092 356.239 412.752 343.999 404.062C340.019 408.552 335.349 412.052 329.999 414.562C326.999 415.232 323.999 415.232 320.999 414.562C317.499 412.392 314.669 409.562 312.499 406.062C304.109 413.392 295.609 413.722 286.999 407.062C284.679 409.692 282.849 412.692 281.499 416.062C275.769 422.142 268.929 423.642 260.999 420.562C257.069 416.532 254.899 411.702 254.499 406.062C249.519 413.472 242.689 416.302 233.999 414.562C228.989 411.372 225.819 406.872 224.499 401.062C215.769 405.192 208.939 403.192 203.999 395.062C200.829 394.332 197.829 393.162 194.999 391.562C185.019 381.262 176.189 370.092 168.499 358.062C159.429 372.742 149.099 373.742 137.499 361.062C132.409 348.182 128.909 334.852 126.999 321.062C115.039 326.002 106.209 322.662 100.499 311.062C99.9991 309.092 99.8391 307.092 99.9991 305.062Z" fill="#B17A67"/>
<path fill-rule="evenodd" clip-rule="evenodd" d="M258.999 118.062C272.669 117.892 286.339 118.062 299.999 118.562C309.479 119.832 318.479 122.502 326.999 126.562C329.709 128.932 332.039 131.602 333.999 134.562C341.729 136.922 348.729 140.592 354.999 145.562C363.169 152.392 370.669 159.892 377.499 168.062C389.019 183.252 399.349 199.252 408.499 216.062C412.809 225.982 414.809 236.312 414.499 247.062C408.499 300.332 382.999 341.162 337.999 369.562C327.789 375.502 316.789 378.832 304.999 379.562C284.339 382.712 264.009 381.372 243.999 375.562C231.529 370.992 219.529 365.322 207.999 358.562C194.119 346.382 181.279 333.212 169.499 319.062C165.109 312.952 161.779 306.282 159.499 299.062C157.109 288.022 155.609 276.852 154.999 265.562C155.549 256.342 156.549 247.172 157.999 238.062C155.579 223.992 157.749 210.652 164.499 198.062C173.119 185.782 182.119 173.782 191.499 162.062C199.899 145.662 212.739 134.162 229.999 127.562C239.379 123.042 249.049 119.882 258.999 118.062Z" fill="#FEC00B"/>
<path fill-rule="evenodd" clip-rule="evenodd" d="M310.999 125.062C314.609 124.772 318.109 125.102 321.499 126.062C325.279 134.372 322.779 138.202 313.999 137.562C307.659 134.382 306.659 130.212 310.999 125.062Z" fill="#0B0700"/>
<path fill-rule="evenodd" clip-rule="evenodd" d="M226.999 130.062C235.749 130.742 238.089 134.912 233.999 142.562C230.739 143.342 227.569 143.182 224.499 142.062C224.189 140.792 223.689 139.632 222.999 138.562C224.259 135.642 225.599 132.812 226.999 130.062Z" fill="#060400"/>
<path fill-rule="evenodd" clip-rule="evenodd" d="M268.999 135.062C282.499 133.712 295.499 135.542 307.999 140.562C315.949 148.492 315.949 156.492 307.999 164.562C294.929 171.832 280.929 175.662 265.999 176.062C254.459 176.712 245.959 172.042 240.499 162.062C238.229 153.332 241.069 146.832 248.999 142.562C255.389 138.942 262.049 136.442 268.999 135.062Z" fill="#FDE08A"/>
<path fill-rule="evenodd" clip-rule="evenodd" d="M278.999 139.062C285.489 137.392 288.319 139.732 287.499 146.062C285.319 147.232 283.149 148.402 280.999 149.562C284.589 151.942 288.089 154.442 291.499 157.062C292.159 162.062 289.999 163.892 284.999 162.562C282.229 161.092 279.729 159.262 277.499 157.062C275.669 159.562 273.829 162.062 271.999 164.562C266.999 165.222 265.169 163.062 266.499 158.062C267.749 155.232 269.249 152.562 270.999 150.062C266.639 149.542 264.799 147.212 265.499 143.062C266.669 141.672 268.169 140.832 269.999 140.562C273.189 140.382 276.189 139.882 278.999 139.062Z" fill="#0D0B07"/>
<path fill-rule="evenodd" clip-rule="evenodd" d="M331.999 140.062C338.849 139.422 342.349 142.422 342.499 149.062C336.599 152.702 330.099 154.202 322.999 153.562C321.179 152.092 320.679 150.262 321.499 148.062C325.469 145.912 328.969 143.252 331.999 140.062Z" fill="#FA8D1A"/>
<path fill-rule="evenodd" clip-rule="evenodd" d="M208.999 147.062C213.189 147.292 216.689 148.962 219.499 152.062C220.399 154.592 219.899 156.752 217.999 158.562C213.269 159.562 208.769 159.062 204.499 157.062C203.829 155.062 203.829 153.062 204.499 151.062C206.489 150.232 207.989 148.902 208.999 147.062Z" fill="#FA8D1A"/>
<path fill-rule="evenodd" clip-rule="evenodd" d="M182.999 279.062C186.569 280.512 189.899 280.012 192.999 277.562C195.869 274.362 199.039 271.522 202.499 269.062C202.059 274.362 202.059 279.692 202.499 285.062C207.049 305.292 219.549 314.122 239.999 311.562C252.809 306.752 261.639 297.922 266.499 285.062C268.309 276.362 266.309 268.702 260.499 262.062C259.089 252.652 253.589 247.152 243.999 245.562C221.039 241.602 201.709 248.102 185.999 265.062C190.109 252.022 197.779 241.522 208.999 233.562C214.839 229.142 221.179 225.472 227.999 222.562C236.899 219.442 245.559 215.782 253.999 211.562C258.239 210.152 262.569 209.152 266.999 208.562C290.179 207.802 313.179 209.472 335.999 213.562C371.059 225.492 387.219 249.992 384.499 287.062C381.249 300.712 374.089 311.882 362.999 320.562C352.599 327.952 341.939 334.952 330.999 341.562C302.109 355.552 272.449 357.552 241.999 347.562C229.229 343.842 217.229 338.512 205.999 331.562C189.179 318.082 181.509 300.582 182.999 279.062Z" fill="#FDFDFC"/>
<path fill-rule="evenodd" clip-rule="evenodd" d="M317.999 243.062C323.389 242.972 328.719 243.472 333.999 244.562C342.929 247.432 351.929 250.092 360.999 252.562C368.499 257.392 375.999 262.232 383.499 267.062C384.519 271.012 383.019 273.342 378.999 274.062C372.649 273.292 366.989 270.952 361.999 267.062C361.479 270.342 361.309 273.672 361.499 277.062C358.989 285.082 355.659 292.742 351.499 300.062C347.159 304.482 342.329 308.322 336.999 311.562C303.769 312.312 291.269 296.482 299.499 264.062C301.499 260.062 303.499 256.062 305.499 252.062C309.819 249.162 313.989 246.162 317.999 243.062Z" fill="#040404"/>
<path fill-rule="evenodd" clip-rule="evenodd" d="M182.999 279.062C181.079 273.742 182.079 269.072 185.999 265.062C201.709 248.102 221.039 241.602 243.999 245.562C253.589 247.152 259.089 252.652 260.499 262.062C266.309 268.702 268.309 276.362 266.499 285.062C261.639 297.922 252.809 306.752 239.999 311.562C219.549 314.122 207.049 305.292 202.499 285.062C202.059 279.692 202.059 274.362 202.499 269.062C199.039 271.522 195.869 274.362 192.999 277.562C189.899 280.012 186.569 280.512 182.999 279.062Z" fill="#040404"/>
<path fill-rule="evenodd" clip-rule="evenodd" d="M317.999 252.062C324.609 251.842 328.279 255.012 328.999 261.562C327.619 265.202 326.779 269.032 326.499 273.062C322.659 278.232 317.829 279.392 311.999 276.562C310.699 273.702 308.869 271.202 306.499 269.062C305.709 265.932 306.039 262.932 307.499 260.062C311.009 257.302 314.509 254.632 317.999 252.062Z" fill="#F3F3F3"/>
<path fill-rule="evenodd" clip-rule="evenodd" d="M241.999 255.062C252.909 256.542 256.409 262.542 252.499 273.062C248.219 282.242 242.219 283.912 234.499 278.062C232.199 274.342 231.529 270.342 232.499 266.062C234.089 263.892 235.419 261.562 236.499 259.062C238.479 257.812 240.309 256.482 241.999 255.062Z" fill="#F6F6F6"/>
<path fill-rule="evenodd" clip-rule="evenodd" d="M107.999 272.062C105.229 280.612 102.729 289.282 100.499 298.062C99.9989 300.372 99.8389 302.702 99.9989 305.062C95.2789 302.522 90.9489 299.362 86.9989 295.562C80.3289 294.892 73.6689 294.232 66.9989 293.562C53.3089 290.892 46.8089 282.722 47.4989 269.062C51.2089 260.622 57.7089 256.282 66.9989 256.062C75.3389 256.982 83.3389 259.152 90.9989 262.562C96.1489 266.802 101.809 269.962 107.999 272.062Z" fill="#FEC10E"/>
<path fill-rule="evenodd" clip-rule="evenodd" d="M299.999 314.062C303.719 313.782 306.059 315.452 306.999 319.062C304.309 325.252 300.309 330.422 294.999 334.562C291.569 335.262 288.239 334.932 284.999 333.562C281.219 331.342 277.219 329.672 272.999 328.562C269.769 323.982 270.769 320.812 275.999 319.062C281.329 321.242 286.669 323.082 291.999 324.562C294.549 320.942 297.219 317.442 299.999 314.062Z" fill="#0B0B0B"/>
</svg>
