<svg width="500" height="500" viewBox="0 0 500 500" fill="none" xmlns="http://www.w3.org/2000/svg">
<path fill-rule="evenodd" clip-rule="evenodd" d="M101 354.062C104.346 348.202 108.68 343.032 114 338.562C118.916 335.852 123.749 333.022 128.5 330.062C129.333 324.892 127.167 322.732 122 323.562C111.453 328.102 102.62 334.932 95.4995 344.062C90.8325 351.392 86.1662 358.732 81.4995 366.062C78.6971 379.742 74.3638 380.402 68.4995 368.062C66.2102 358.862 65.5436 349.522 66.4995 340.062C71.3878 331.022 77.2211 322.682 83.9995 315.062C85.4463 314.432 86.1129 313.262 85.9995 311.562C82.4385 293.752 79.7718 275.752 77.9995 257.562C79.4646 237.422 80.298 217.252 80.4995 197.062C82.782 171.292 90.4485 147.292 103.5 125.062C112.008 110.232 123.175 97.7315 137 87.5615C151.333 79.8915 165.667 72.2315 180 64.5615C201.304 59.0215 222.971 56.0215 245 55.5615C269.311 58.4415 292.644 64.7815 315 74.5615C328.934 81.8315 341.101 91.3315 351.5 103.062C366.236 123.952 374.57 147.282 376.5 173.062C375.755 205.542 374.922 238.042 374 270.562C374.984 289.872 377.151 309.042 380.5 328.062C381.618 331.422 383.118 334.582 385 337.562C391.06 339.422 396.726 342.092 402 345.562C406.667 346.232 411.333 346.232 416 345.562C427.051 340.532 436.217 342.702 443.5 352.062C445.823 362.092 442.823 370.092 434.5 376.062C433.141 380.092 430.641 383.262 427 385.562C413.603 392.922 400.27 400.262 387 407.562C366.876 412.932 347.543 420.272 329 429.562C313.627 435.412 297.96 440.412 282 444.562C255.792 445.302 229.792 443.302 204 438.562C179.119 431.502 155.786 421.162 134 407.562C125.094 398.982 117.26 389.482 110.5 379.062C107.789 370.542 104.622 362.212 101 354.062Z" fill="#FEFEFE"/>
<path fill-rule="evenodd" clip-rule="evenodd" d="M192.999 145.061C222.48 141.021 249.48 147.181 273.999 163.561C305.358 173.831 321.524 195.331 322.499 228.061C318.277 243.021 309.777 254.851 296.999 263.561C286.267 270.591 274.934 276.591 262.999 281.561C247.628 286.591 232.294 291.591 216.999 296.561C206.353 297.891 195.686 298.561 184.999 298.561C173.591 296.611 162.591 293.281 151.999 288.561C144.332 282.231 136.666 275.891 128.999 269.561C121.881 263.441 116.714 255.941 113.499 247.061C110.227 238.841 107.227 230.511 104.499 222.061C103.832 217.061 103.832 212.061 104.499 207.061C106.872 200.331 109.206 193.671 111.499 187.061C125.171 169.391 142.671 157.221 163.999 150.561C173.859 149.001 183.526 147.171 192.999 145.061Z" fill="#A0A0A0"/>
<path fill-rule="evenodd" clip-rule="evenodd" d="M306.999 206.061C301.155 201.721 295.155 197.561 288.999 193.561C279.754 190.371 270.421 187.371 260.999 184.561C256.389 183.271 251.722 182.941 246.999 183.561C230.241 193.081 223.408 207.581 226.499 227.061C227.562 237.111 232.728 243.941 241.999 247.561C249.212 249.831 256.546 251.161 263.999 251.561C269.79 248.581 274.956 244.751 279.499 240.061C283.36 233.671 286.693 227.011 289.499 220.061C289.674 216.351 290.174 212.681 290.999 209.061C295.758 213.611 301.424 216.271 307.999 217.061C309.916 216.811 311.25 215.811 311.999 214.061C314.688 219.991 314.522 225.991 311.499 232.061C307.697 241.181 301.864 248.681 293.999 254.561C287.735 257.831 281.735 261.501 275.999 265.561C269.485 268.741 262.818 271.741 255.999 274.561C242.186 279.341 228.186 283.681 213.999 287.561C193.391 291.361 173.724 288.691 154.999 279.561C148.626 273.521 141.959 267.851 134.999 262.561C128.473 257.041 123.973 250.211 121.499 242.061C118.832 234.731 116.166 227.391 113.499 220.061C112.698 217.191 112.865 214.531 113.999 212.061C116.819 212.311 119.485 211.811 121.999 210.561C125.499 207.731 128.999 204.891 132.499 202.061C131.21 207.601 130.877 213.271 131.499 219.061C136.963 243.211 151.463 251.381 174.999 243.561C178.777 241.451 182.277 238.951 185.499 236.061C189.263 230.631 192.596 224.971 195.499 219.061C196.907 211.621 195.24 204.951 190.499 199.061C189.668 189.551 184.501 183.721 174.999 181.561C153.845 176.121 135.179 180.621 118.999 195.061C118.456 195.001 118.123 194.671 117.999 194.061C128.831 179.741 142.498 168.901 158.999 161.561C180.233 155.571 201.9 153.241 223.999 154.561C230.855 154.941 237.522 156.271 243.999 158.561C259.122 165.621 274.122 172.951 288.999 180.561C298.065 186.791 304.732 194.961 308.999 205.061C308.542 205.861 307.875 206.191 306.999 206.061Z" fill="#FCFCFC"/>
<path fill-rule="evenodd" clip-rule="evenodd" d="M114 212.062C110.287 204.892 111.954 199.232 119 195.062C135.18 180.622 153.846 176.122 175 181.562C184.502 183.722 189.669 189.552 190.5 199.062C195.241 204.952 196.908 211.622 195.5 219.062C192.597 224.972 189.264 230.632 185.5 236.062C182.278 238.952 178.778 241.452 175 243.562C151.464 251.382 136.964 243.212 131.5 219.062C130.878 213.272 131.211 207.602 132.5 202.062C129 204.892 125.5 207.732 122 210.562C119.486 211.812 116.82 212.312 114 212.062Z" fill="#040404"/>
<path fill-rule="evenodd" clip-rule="evenodd" d="M307 206.061C310.297 207.691 311.964 210.361 312 214.061C311.251 215.811 309.917 216.811 308 217.061C301.425 216.271 295.759 213.611 291 209.061C290.175 212.681 289.675 216.351 289.5 220.061C286.694 227.011 283.361 233.671 279.5 240.061C274.957 244.751 269.791 248.581 264 251.561C256.547 251.161 249.213 249.831 242 247.561C232.729 243.941 227.563 237.111 226.5 227.061C223.409 207.581 230.242 193.081 247 183.561C251.723 182.941 256.39 183.271 261 184.561C270.422 187.371 279.755 190.371 289 193.561C295.156 197.561 301.156 201.721 307 206.061Z" fill="#040404"/>
<path fill-rule="evenodd" clip-rule="evenodd" d="M170.999 191.062C178.663 190.722 182.996 194.392 183.999 202.062C182.564 210.292 177.897 215.622 169.999 218.062C160.264 212.372 158.764 205.032 165.499 196.062C167.229 194.162 169.062 192.492 170.999 191.062Z" fill="#F5F5F5"/>
<path fill-rule="evenodd" clip-rule="evenodd" d="M247 192.062C253.664 191.542 257.331 194.542 258 201.062C256.664 204.882 255.831 208.882 255.5 213.062C250.885 217.532 245.719 218.202 240 215.062C238.105 211.672 236.438 208.172 235 204.562C235.125 202.932 235.625 201.432 236.5 200.062C240.007 197.302 243.507 194.632 247 192.062Z" fill="#F4F4F4"/>
<path fill-rule="evenodd" clip-rule="evenodd" d="M225 253.061C230.996 251.891 233.496 254.231 232.5 260.061C229 264.891 224.833 269.061 220 272.561C216.455 273.131 213.122 272.461 210 270.561C205.984 267.701 201.817 265.201 197.5 263.061C196.458 258.811 198.125 256.481 202.5 256.061C207.283 257.781 211.949 259.781 216.5 262.061C220.175 259.881 223.008 256.881 225 253.061Z" fill="#0C0C0C"/>
<path fill-rule="evenodd" clip-rule="evenodd" d="M84 315.061C77.2216 322.681 71.3883 331.021 66.5 340.061C65.5441 349.521 66.2107 358.861 68.5 368.061C74.3643 380.401 78.6976 379.741 81.5 366.061C86.1667 358.731 90.833 351.391 95.5 344.061C102.62 334.931 111.453 328.101 122 323.561C127.167 322.731 129.333 324.891 128.5 330.061C123.749 333.021 118.916 335.851 114 338.561C108.68 343.031 104.346 348.201 101 354.061C94.395 362.521 89.228 371.861 85.5 382.061C80.264 387.531 74.4306 388.361 68 384.561C59.721 373.551 55.721 361.051 56 347.061C56.4662 341.901 57.6329 336.901 59.5 332.061C64.9513 324.271 70.7846 316.771 77 309.561C81.8376 308.231 84.171 310.071 84 315.061Z" fill="#A09F9E"/>
<path fill-rule="evenodd" clip-rule="evenodd" d="M264.001 316.061C269.453 314.691 271.953 316.691 271.501 322.061C267.266 329.301 261.932 335.631 255.501 341.061C246.596 352.901 243.262 366.231 245.501 381.061C247.138 385.201 249.971 388.201 254.001 390.061C254.979 389.581 255.812 388.921 256.501 388.061C258.949 377.371 262.949 367.371 268.501 358.061C276.001 351.891 282.834 345.061 289.001 337.561C297.28 335.751 299.113 338.581 294.501 346.061C287.447 353.111 280.447 360.111 273.501 367.061C269.584 375.811 266.251 384.811 263.501 394.061C257.829 400.121 251.663 400.621 245.001 395.561C236.439 387.541 233.272 377.711 235.501 366.061C239.03 348.331 247.697 333.671 261.501 322.061C262.074 319.921 262.907 317.921 264.001 316.061Z" fill="#A0A0A0"/>
</svg>
