<svg width="500" height="500" viewBox="0 0 500 500" fill="none" xmlns="http://www.w3.org/2000/svg">
<path fill-rule="evenodd" clip-rule="evenodd" d="M329 251.061C327.692 254.961 326.692 258.961 326 263.061C322.873 276.611 319.04 289.941 314.5 303.061C312.916 307.231 310.582 310.901 307.5 314.061C303.808 316.921 300.308 319.921 297 323.061C291.645 325.071 286.979 328.071 283 332.061C269.026 341.051 254.026 347.881 238 352.561C228.88 352.881 219.88 352.051 211 350.061C208.186 348.491 205.186 347.161 202 346.061C189.932 339.521 177.932 332.691 166 325.561C157.046 315.791 148.713 305.621 141 295.061C139.515 288.741 136.515 283.411 132 279.061C122.956 262.971 116.123 245.971 111.5 228.061C104.99 181.411 119.157 142.411 154 111.061C151.589 114.881 149.423 118.881 147.5 123.061C145.464 139.511 152.63 148.181 169 149.061C186.335 149.011 200.835 142.681 212.5 130.061C221.416 117.191 219.25 106.691 206 98.5614C198.635 97.1214 191.302 96.6214 184 97.0614C192.283 95.5714 200.783 94.9114 209.5 95.0614C218.129 94.7414 226.629 95.5814 235 97.5614C246.269 100.791 257.269 104.791 268 109.561C276.663 114.221 284.163 120.381 290.5 128.061C301.818 140.681 311.151 154.681 318.5 170.061C321.114 177.851 322.447 185.851 322.5 194.061C324.922 198.061 326.589 202.401 327.5 207.061C327.562 218.311 328.396 229.481 330 240.561C329.696 244.071 329.363 247.571 329 251.061Z" fill="#8BC34A"/>
<path fill-rule="evenodd" clip-rule="evenodd" d="M184 97.0617C191.302 96.6217 198.635 97.1217 206 98.5617C219.25 106.692 221.416 117.192 212.5 130.062C200.835 142.682 186.335 149.012 169 149.062C152.63 148.182 145.464 139.512 147.5 123.062C149.423 118.882 151.589 114.882 154 111.062C161.654 101.612 171.654 96.9417 184 97.0617Z" fill="#E15839"/>
<path fill-rule="evenodd" clip-rule="evenodd" d="M417 233.062C414.304 238.122 411.971 243.452 410 249.062C407.099 255.092 404.766 261.422 403 268.062C401.891 268.002 400.891 267.672 400 267.062C399.126 266.032 397.959 265.372 396.5 265.062C393.08 265.522 389.914 265.522 387 265.062C388.667 260.392 390.333 255.732 392 251.062C394.508 244.882 396.841 238.542 399 232.062C401.829 226.412 403.996 220.412 405.5 214.062C407.489 212.242 409.323 210.242 411 208.062C410.791 207.472 410.457 206.972 410 206.562C418.375 184.112 427.542 161.942 437.5 140.062C438.967 147.342 439.301 154.672 438.5 162.062C431.489 185.772 424.322 209.442 417 233.062Z" fill="#EE9F58"/>
<path fill-rule="evenodd" clip-rule="evenodd" d="M288 232.062C284.83 231.482 281.663 230.812 278.5 230.062C269.937 231.272 261.437 232.772 253 234.562C247.001 238.392 244.001 243.892 244 251.062C245.724 273.302 257.057 280.802 278 273.562C280.537 270.652 282.704 267.492 284.5 264.062C285.167 257.392 285.167 250.732 284.5 244.062C283.865 242.592 283.031 241.262 282 240.062C285.911 240.292 289.911 239.962 294 239.062C296.006 244.902 298.506 250.562 301.5 256.062C303.016 272.532 296.849 285.362 283 294.562C268.228 303.782 252.561 311.112 236 316.562C210.538 322.502 192.871 313.662 183 290.062C184.324 287.412 185.658 284.742 187 282.062C190.268 296.492 199.268 302.992 214 301.562C224.485 296.452 229.819 287.952 230 276.062C229.464 273.622 228.631 271.282 227.5 269.062C222.981 265.542 218.815 261.712 215 257.562C205.819 256.072 197.486 258.072 190 263.562C187.464 266.262 184.797 268.762 182 271.062C182.416 263.312 184.916 256.312 189.5 250.062C195.333 244.892 200.833 239.392 206 233.562C214.731 227.422 224.398 223.422 235 221.562C244.942 219.842 254.942 219.172 265 219.562C274.819 220.132 282.486 224.302 288 232.062Z" fill="#FBFCFB"/>
<path fill-rule="evenodd" clip-rule="evenodd" d="M288 232.062C291.72 232.072 294.72 233.402 297 236.062C296.312 237.412 295.312 238.412 294 239.062C289.911 239.962 285.911 240.292 282 240.062C283.031 241.262 283.865 242.592 284.5 244.062C285.167 250.732 285.167 257.392 284.5 264.062C282.704 267.492 280.537 270.652 278 273.562C257.057 280.802 245.724 273.302 244 251.062C244.001 243.892 247.001 238.392 253 234.562C261.437 232.772 269.937 231.272 278.5 230.062C281.663 230.812 284.83 231.482 288 232.062Z" fill="#050505"/>
<path fill-rule="evenodd" clip-rule="evenodd" d="M399 232.062C396.841 238.542 394.508 244.882 392 251.062C371.876 256.692 351.543 261.692 331 266.062C328.808 265.802 327.141 264.802 326 263.062C326.692 258.962 327.692 254.962 329 251.062C345.443 248.302 361.943 245.302 378.5 242.062C380.078 243.112 381.578 243.112 383 242.062C381.313 238.662 381.98 235.822 385 233.562C389.536 232.182 394.203 231.682 399 232.062Z" fill="#090909"/>
<path fill-rule="evenodd" clip-rule="evenodd" d="M417 233.062C418.293 234.862 419.793 236.522 421.5 238.062C422.167 240.062 422.167 242.062 421.5 244.062C417.719 245.872 413.885 247.532 410 249.062C411.971 243.452 414.304 238.122 417 233.062Z" fill="#0F0D0B"/>
<path fill-rule="evenodd" clip-rule="evenodd" d="M253 241.061C255.865 240.611 258.365 241.281 260.5 243.061C261.397 246.051 262.231 249.051 263 252.061C259.217 258.881 254.55 259.541 249 254.061C247.956 251.791 247.789 249.461 248.5 247.061C250.252 245.211 251.752 243.211 253 241.061Z" fill="#F4F4F4"/>
<path fill-rule="evenodd" clip-rule="evenodd" d="M183 290.062C181.794 292.702 179.794 293.532 177 292.562C176.041 290.852 175.375 289.022 175 287.062C176.277 281.182 178.611 275.852 182 271.062C184.797 268.762 187.464 266.262 190 263.562C197.486 258.072 205.819 256.072 215 257.562C218.815 261.712 222.981 265.542 227.5 269.062C228.631 271.282 229.464 273.622 230 276.062C229.819 287.952 224.485 296.452 214 301.562C199.268 302.992 190.268 296.492 187 282.062C185.658 284.742 184.324 287.412 183 290.062Z" fill="#050505"/>
<path fill-rule="evenodd" clip-rule="evenodd" d="M209 262.062C216.899 263.492 219.733 268.152 217.5 276.062C211.599 281.882 207.099 280.882 204 273.062C204.078 268.582 205.745 264.912 209 262.062Z" fill="#F4F4F4"/>
<path fill-rule="evenodd" clip-rule="evenodd" d="M387 265.062C389.914 265.522 393.08 265.522 396.5 265.062C397.959 265.372 399.126 266.032 400 267.062C397.313 266.902 394.646 267.062 392 267.562C389.609 270.842 387.609 274.342 386 278.062C384.45 279.002 382.784 279.672 381 280.062C382.611 275.832 383.944 271.502 385 267.062C385.667 266.392 386.333 265.732 387 265.062Z" fill="#BC8C82"/>
<path fill-rule="evenodd" clip-rule="evenodd" d="M385 267.062C383.944 271.502 382.611 275.832 381 280.062C377.692 280.392 375.025 281.892 373 284.562C375.544 286.332 375.544 288.172 373 290.062C373.333 290.732 373.667 291.392 374 292.062C370.949 295.442 367.949 298.772 365 302.062C366.524 298.362 368.69 295.022 371.5 292.062C371.97 287.212 371.637 282.542 370.5 278.062C375.094 274.022 379.927 270.352 385 267.062Z" fill="#C7CDF5"/>
<path fill-rule="evenodd" clip-rule="evenodd" d="M132.001 279.061C136.516 283.411 139.516 288.741 141.001 295.061C138.528 298.361 135.528 301.201 132.001 303.561C129.668 303.891 127.334 304.231 125.001 304.561C119.28 309.281 113.28 313.611 107.001 317.561C102.469 322.431 97.6348 326.931 92.5008 331.061C90.8368 336.351 90.5038 341.691 91.5008 347.061C89.8628 350.471 87.3628 351.471 84.0008 350.061C79.7108 338.931 71.8778 331.931 60.5008 329.061C59.5808 326.251 60.4138 324.091 63.0008 322.561C74.0948 322.961 84.0948 319.961 93.0008 313.561C100.001 307.891 107.001 302.231 114.001 296.561C119.045 291.181 123.712 285.521 128.001 279.561C129.294 279.071 130.628 278.901 132.001 279.061Z" fill="#050605"/>
<path fill-rule="evenodd" clip-rule="evenodd" d="M400 267.062C400.891 267.672 401.891 268.002 403 268.062C403 268.392 403 268.732 403 269.062C401.29 271.022 400.957 273.192 402 275.562C398.45 279.442 395.283 283.612 392.5 288.062C390.821 295.082 388.321 301.742 385 308.062C387.224 315.582 385.057 321.252 378.5 325.062C375.721 324.342 373.054 323.342 370.5 322.062C370.112 322.992 369.445 323.652 368.5 324.062C366.834 323.212 365.334 322.212 364 321.062C364 320.392 364 319.732 364 319.062C367.139 315.232 370.973 312.232 375.5 310.062C376.057 307.952 376.891 305.952 378 304.062C377.569 303.272 377.235 302.432 377 301.562C378.053 298.352 379.719 295.512 382 293.062C381.791 292.472 381.457 291.972 381 291.562C382.48 287.002 384.147 282.502 386 278.062C387.609 274.342 389.609 270.842 392 267.562C394.646 267.062 397.313 266.902 400 267.062Z" fill="#6F6BBF"/>
<path fill-rule="evenodd" clip-rule="evenodd" d="M259 283.061C261.988 282.711 263.321 284.051 263 287.061C262.655 291.291 261.321 295.131 259 298.561C253.416 299.371 247.916 299.201 242.5 298.061C241.789 296.191 242.289 294.691 244 293.561C247.667 293.231 251.333 292.891 255 292.561C255.535 288.981 256.869 285.811 259 283.061Z" fill="#0B0B0B"/>
<path fill-rule="evenodd" clip-rule="evenodd" d="M385.999 278.062C384.146 282.502 382.479 287.002 380.999 291.562C381.456 291.972 381.79 292.472 381.999 293.062C379.718 295.512 378.052 298.352 376.999 301.562C377.234 302.432 377.568 303.272 377.999 304.062C376.89 305.952 376.056 307.952 375.499 310.062C370.972 312.232 367.138 315.232 363.999 319.062C362.901 317.962 362.734 316.632 363.499 315.062C370.398 303.932 376.231 292.262 380.999 280.062C382.783 279.672 384.449 279.002 385.999 278.062Z" fill="#8373AC"/>
<path fill-rule="evenodd" clip-rule="evenodd" d="M381 280.062C376.232 292.262 370.399 303.932 363.5 315.062C362.735 316.632 362.902 317.962 364 319.062C364 319.732 364 320.392 364 321.062C361.61 320.882 360.61 319.542 361 317.062C361.179 314.372 362.179 312.042 364 310.062C363.191 308.492 362.857 306.822 363 305.062C363.432 303.852 364.099 302.852 365 302.062C367.949 298.772 370.949 295.442 374 292.062C373.667 291.392 373.333 290.732 373 290.062C375.544 288.172 375.544 286.332 373 284.562C375.025 281.892 377.692 280.392 381 280.062Z" fill="#919DEB"/>
<path fill-rule="evenodd" clip-rule="evenodd" d="M403 269.062C404.691 272.212 405.191 275.542 404.5 279.062C403.02 282.632 401.687 286.302 400.5 290.062C399.144 290.942 397.644 291.272 396 291.062C395.822 298.632 393.155 305.132 388 310.562C390.618 315.182 390.452 319.682 387.5 324.062C383.149 326.592 379.316 329.762 376 333.562C369.791 334.802 367.791 332.472 370 326.562C367.72 326.332 365.72 325.492 364 324.062C361.798 325.342 359.632 325.342 357.5 324.062C357.262 319.712 357.595 315.382 358.5 311.062C359.292 308.452 360.792 306.452 363 305.062C362.857 306.822 363.191 308.492 364 310.062C362.179 312.042 361.179 314.372 361 317.062C360.61 319.542 361.61 320.882 364 321.062C365.334 322.212 366.834 323.212 368.5 324.062C369.445 323.652 370.112 322.992 370.5 322.062C373.054 323.342 375.721 324.342 378.5 325.062C385.057 321.252 387.224 315.582 385 308.062C388.321 301.742 390.821 295.082 392.5 288.062C395.283 283.612 398.45 279.442 402 275.562C400.957 273.192 401.29 271.022 403 269.062Z" fill="#C1C4EC"/>
<path fill-rule="evenodd" clip-rule="evenodd" d="M297 323.061C305.673 322.891 314.34 323.061 323 323.561C329.8 325.191 334.134 329.361 336 336.061C335.555 342.011 334.055 347.681 331.5 353.061C322.9 365.781 312.4 376.611 300 385.561C303.623 386.671 307.29 387.671 311 388.561C316.843 391.441 317.509 395.271 313 400.061C304.944 401.531 296.944 401.361 289 399.561C287.556 398.431 286.89 396.931 287 395.061C288.23 392.221 288.23 389.381 287 386.561C287.167 385.731 287.333 384.891 287.5 384.061C301.741 371.001 313.908 356.331 324 340.061C322.105 337.281 319.439 335.781 316 335.561C305.667 335.231 295.333 334.891 285 334.561C284.119 333.851 283.453 333.021 283 332.061C286.979 328.071 291.645 325.071 297 323.061Z" fill="#070707"/>
<path fill-rule="evenodd" clip-rule="evenodd" d="M202 346.062C205.186 347.162 208.186 348.492 211 350.062C200.432 364.632 188.099 377.632 174 389.062C180.874 391.182 187.041 394.512 192.5 399.062C193.308 401.142 193.141 403.142 192 405.062C180.833 406.742 169.833 405.902 159 402.562C157.72 400.432 157.72 398.262 159 396.062C158.134 394.132 157.467 392.132 157 390.062C158.903 386.592 161.07 383.262 163.5 380.062C164.991 378.562 166.824 377.722 169 377.562C175.764 369.372 182.764 361.372 190 353.562C193.557 350.292 197.557 347.792 202 346.062Z" fill="#070707"/>
</svg>
