<svg width="500" height="500" viewBox="0 0 500 500" fill="none" xmlns="http://www.w3.org/2000/svg">
<path fill-rule="evenodd" clip-rule="evenodd" d="M399.001 160.061C390.351 159.001 381.681 158.831 373.001 159.561C364.691 149.071 355.021 140.241 344.001 133.061C342.151 127.881 341.651 122.541 342.501 117.061C348.301 108.691 355.801 106.851 365.001 111.561C370.821 116.361 375.321 122.201 378.501 129.061C383.171 122.731 384.501 115.731 382.501 108.061C385.131 100.771 390.291 97.6013 398.001 98.5613C403.131 101.211 407.631 104.711 411.501 109.061C416.201 103.001 419.861 96.3413 422.501 89.0613C428.321 78.9713 436.821 76.1313 448.001 80.5613C451.771 82.0013 454.611 84.5013 456.501 88.0613C458.761 92.4113 460.091 97.0813 460.501 102.061C465.221 123.231 458.721 139.731 441.001 151.561C433.331 152.341 426.001 154.341 419.001 157.561C412.391 158.891 405.721 159.721 399.001 160.061Z" fill="#F9C18E"/>
<path fill-rule="evenodd" clip-rule="evenodd" d="M157 144.062C151.61 152.182 147.27 160.852 144 170.062C140 170.392 136 170.732 132 171.062C115.33 172.232 98.6703 173.062 82.0003 173.562C50.5103 162.102 36.0103 139.602 38.5003 106.062C38.8103 97.4415 42.3103 90.4415 49.0003 85.0615C58.9103 80.6315 66.7403 82.9715 72.5003 92.0615C75.7803 101.172 78.1103 110.502 79.5003 120.062C84.6703 113.562 89.8303 107.062 95.0003 100.562C105.74 96.8015 112.08 100.462 114 111.562C111.44 119.532 110.6 127.702 111.5 136.062C112.08 139.812 114.25 141.482 118 141.062C116.67 131.502 119.67 123.672 127 117.562C135.65 114.802 141.82 117.632 145.5 126.062C146.57 132.042 147.4 138.042 148 144.062C151 144.062 154 144.062 157 144.062Z" fill="#FAC18E"/>
<path fill-rule="evenodd" clip-rule="evenodd" d="M343.999 133.062C355.019 140.242 364.689 149.072 372.999 159.562C381.679 158.832 390.349 159.002 398.999 160.062C415.249 165.262 420.089 175.932 413.499 192.062C407.989 198.912 401.319 204.252 393.499 208.062C393.419 238.262 388.419 267.592 378.499 296.062C369.759 314.712 356.929 329.882 339.999 341.562C331.499 346.282 322.499 349.612 312.999 351.562C311.979 352.082 311.319 352.912 310.999 354.062C313.199 365.972 314.699 377.972 315.499 390.062C322.949 391.322 329.279 394.652 334.499 400.062C338.949 409.042 336.779 415.872 327.999 420.562C319.249 422.622 310.589 422.292 301.999 419.562C293.499 415.382 288.329 408.542 286.499 399.062C287.119 385.002 286.289 371.002 283.999 357.062C271.579 360.532 258.909 362.202 245.999 362.062C245.709 371.832 244.709 381.502 242.999 391.062C252.869 390.082 260.369 393.752 265.499 402.062C268.039 410.362 265.539 416.532 257.999 420.562C249.329 421.232 240.669 421.232 231.999 420.562C223.599 419.462 218.099 414.962 215.499 407.062C214.609 391.072 214.109 375.072 213.999 359.062C202.759 357.702 192.429 353.872 182.999 347.562C176.999 342.892 170.999 338.232 164.999 333.562C158.739 327.302 153.239 320.472 148.499 313.062C143.599 305.592 138.929 297.932 134.499 290.062C132.679 285.122 131.009 280.122 129.499 275.062C127.029 263.162 125.029 251.162 123.499 239.062C122.999 232.402 122.829 225.732 122.999 219.062C120.309 219.222 117.649 219.062 114.999 218.562C110.779 216.622 106.439 214.952 101.999 213.562C92.8293 204.652 92.6693 195.492 101.499 186.062C103.669 183.892 105.829 181.732 107.999 179.562C115.849 176.102 123.849 173.272 131.999 171.062C135.999 170.732 139.999 170.392 143.999 170.062C147.269 160.852 151.609 152.182 156.999 144.062C162.469 138.422 167.799 132.592 172.999 126.562C185.339 116.392 198.679 107.722 212.999 100.562C221.709 98.5321 230.379 98.7021 238.999 101.062C248.699 99.6321 258.359 99.8021 267.999 101.562C294.199 110.162 319.529 120.662 343.999 133.062Z" fill="#B17A67"/>
<path fill-rule="evenodd" clip-rule="evenodd" d="M291 118.061C294.35 117.891 297.68 118.061 301 118.561C304.03 122.741 303.03 125.741 298 127.561C293.4 128.471 290.4 126.641 289 122.061C289.25 120.491 289.92 119.151 291 118.061Z" fill="#0B0706"/>
<path fill-rule="evenodd" clip-rule="evenodd" d="M201 118.062C208.98 116.262 212.81 119.262 212.5 127.062C205.53 133.012 200.7 131.512 198 122.562C198.06 120.352 199.06 118.852 201 118.062Z" fill="#0A0605"/>
<path fill-rule="evenodd" clip-rule="evenodd" d="M239 124.061C250.34 123.891 261.67 124.061 273 124.561C289.04 125.531 295.21 133.691 291.5 149.061C290.03 151.831 288.2 154.331 286 156.561C270.03 167.221 252.7 169.891 234 164.561C218.24 159.551 213.41 149.381 219.5 134.061C225.18 128.971 231.68 125.641 239 124.061Z" fill="#8A5F47"/>
<path fill-rule="evenodd" clip-rule="evenodd" d="M401 176.062C410.53 175.802 413.7 180.132 410.5 189.062C406.9 194.662 402.06 198.832 396 201.562C385.93 203.282 381.76 199.112 383.5 189.062C388.63 183.602 394.47 179.262 401 176.062Z" fill="#CB847D"/>
<path fill-rule="evenodd" clip-rule="evenodd" d="M349.999 236.061C343.799 232.721 337.469 229.551 330.999 226.561C322.949 225.101 314.949 223.431 306.999 221.561C291.729 218.491 281.569 224.321 276.499 239.061C273.219 252.141 274.879 264.481 281.499 276.061C285.519 279.951 290.349 282.111 295.999 282.561C302.009 283.231 308.009 283.561 313.999 283.561C316.309 281.071 318.979 279.071 321.999 277.561C324.609 275.621 326.439 273.121 327.499 270.061C330.599 263.111 333.099 255.941 334.999 248.561C330.889 240.001 332.559 238.331 339.999 243.561C344.309 244.301 348.649 244.801 352.999 245.061C357.809 274.441 347.479 296.941 321.999 312.561C313.829 317.311 305.159 320.981 295.999 323.561C273.649 329.061 250.979 331.401 227.999 330.561C225.329 329.891 222.669 329.231 219.999 328.561C208.869 322.491 197.869 316.161 186.999 309.561C162.319 287.141 157.819 261.311 173.499 232.061C181.709 222.381 191.209 214.211 201.999 207.561C212.779 200.841 224.109 195.171 235.999 190.561C255.349 185.191 274.349 186.191 292.999 193.561C306.609 199.431 319.609 206.431 331.999 214.561C340.009 220.111 346.009 227.271 349.999 236.061Z" fill="#FCFCFC"/>
<path fill-rule="evenodd" clip-rule="evenodd" d="M109 193.061C119.54 192.251 128.04 195.921 134.5 204.061C135.97 212.421 132.47 216.761 124 217.061C117.68 216.761 111.68 215.261 106 212.561C98.6205 204.661 99.6205 198.161 109 193.061Z" fill="#CB847D"/>
<path fill-rule="evenodd" clip-rule="evenodd" d="M350 236.062C355.17 237.772 356.17 240.772 353 245.062C348.65 244.802 344.31 244.302 340 243.562C332.56 238.332 330.89 240.002 335 248.562C333.1 255.942 330.6 263.112 327.5 270.062C326.44 273.122 324.61 275.622 322 277.562C318.98 279.072 316.31 281.072 314 283.562C308.01 283.562 302.01 283.232 296 282.562C290.35 282.112 285.52 279.952 281.5 276.062C274.88 264.482 273.22 252.142 276.5 239.062C281.57 224.322 291.73 218.492 307 221.562C314.95 223.432 322.95 225.102 331 226.562C337.47 229.552 343.8 232.722 350 236.062Z" fill="#040404"/>
<path fill-rule="evenodd" clip-rule="evenodd" d="M206.001 228.061C215.391 227.401 224.391 228.901 233.001 232.561C236.561 234.771 238.391 237.941 238.501 242.061C245.071 248.781 247.411 256.781 245.501 266.061C242.971 269.781 240.971 273.781 239.501 278.061C225.971 294.231 210.801 296.061 194.001 283.561C187.311 274.721 184.311 264.881 185.001 254.061C181.811 256.411 179.151 259.251 177.001 262.561C168.001 267.031 164.831 264.191 167.501 254.061C177.041 240.541 189.871 231.871 206.001 228.061Z" fill="#040404"/>
<path fill-rule="evenodd" clip-rule="evenodd" d="M291.001 230.061C296.241 228.831 300.081 230.501 302.501 235.061C302.671 239.731 302.331 244.401 301.501 249.061C297.761 252.821 293.261 253.991 288.001 252.561C286.521 250.121 284.691 247.951 282.501 246.061C281.651 242.521 282.151 239.181 284.001 236.061C286.961 234.751 289.301 232.751 291.001 230.061Z" fill="#F4F4F4"/>
<path fill-rule="evenodd" clip-rule="evenodd" d="M222 238.062C229.09 237.982 232.75 241.482 233 248.562C232.86 258.042 228.19 262.712 219 262.562C212.42 257.122 211.25 250.622 215.5 243.062C217.47 241.012 219.63 239.342 222 238.062Z" fill="#F7F7F7"/>
<path fill-rule="evenodd" clip-rule="evenodd" d="M279 289.062C281.03 288.902 283.03 289.062 285 289.562C285.46 296.672 282.79 302.672 277 307.562C275.63 308.432 274.13 308.932 272.5 309.062C266.38 307.332 260.38 305.332 254.5 303.062C252.07 298.262 253.57 295.592 259 295.062C263.61 296.772 268.28 297.942 273 298.562C275.14 295.452 277.14 292.282 279 289.062Z" fill="#0B0B0B"/>
</svg>
