<svg width="500" height="500" viewBox="0 0 500 500" fill="none" xmlns="http://www.w3.org/2000/svg">
<path fill-rule="evenodd" clip-rule="evenodd" d="M257 90.062C250.99 90.632 244.99 91.302 239 92.062C237.08 85.362 238.08 79.192 242 73.562C246.96 70.952 250.79 72.122 253.5 77.062C254.46 81.532 255.63 85.862 257 90.062Z" fill="#F9B485"/>
<path fill-rule="evenodd" clip-rule="evenodd" d="M257 90.0629C268.35 89.9029 278.35 93.4029 287 100.563C293.26 106.593 298.43 113.423 302.5 121.063C302.67 123.563 302.83 126.063 303 128.563C301.26 136.623 300.26 144.793 300 153.063C285.41 149.043 270.58 146.373 255.5 145.063C238.05 144.613 221.55 148.273 206 156.063C205.32 155.703 204.65 155.363 204 155.063C198.75 143.593 198.91 132.253 204.5 121.063C208.58 116.583 211.91 111.583 214.5 106.063C221.34 98.9029 229.5 94.2329 239 92.0629C244.99 91.3029 250.99 90.6329 257 90.0629Z" fill="#8BC24A"/>
<path fill-rule="evenodd" clip-rule="evenodd" d="M229.999 115.062C234.989 114.892 236.829 117.222 235.499 122.062C233.299 127.292 229.459 129.452 223.999 128.562C221.399 126.242 220.569 123.412 221.499 120.062C224.179 117.972 227.019 116.312 229.999 115.062Z" fill="#060903"/>
<path fill-rule="evenodd" clip-rule="evenodd" d="M272 116.063C279.48 114.053 282.65 116.723 281.5 124.063C279 126.043 276.17 126.543 273 125.563C269.46 122.693 269.12 119.523 272 116.063Z" fill="#0D1006"/>
<path fill-rule="evenodd" clip-rule="evenodd" d="M300 153.061C309.36 155.581 317.36 160.411 324 167.561C338.8 174.861 350.13 185.701 358 200.061C364.55 217.131 369.89 234.461 374 252.061C376.53 276.131 373.53 299.461 365 322.061C360.39 334.171 352.39 343.341 341 349.561C341.56 349.941 341.89 350.441 342 351.061C338.19 353.471 334.19 355.641 330 357.561C324.64 358.731 319.64 360.561 315 363.061C310.88 363.661 306.88 364.661 303 366.061C280.84 373.041 258.17 375.711 235 374.061C230.63 373.461 226.3 372.791 222 372.061C215.77 371.201 209.77 369.541 204 367.061C204.47 365.361 204.47 363.861 204 362.561C192.35 356.401 182.01 348.571 173 339.061C162.99 328.551 153.49 317.551 144.5 306.061C137.32 293.351 134.16 279.681 135 265.061C136.19 264.591 136.86 263.591 137 262.061C138.98 246.471 142.98 231.471 149 217.061C158.74 196.161 172.41 178.331 190 163.561C194.6 160.441 199.26 157.601 204 155.061C204.65 155.361 205.32 155.701 206 156.061C221.55 148.271 238.05 144.611 255.5 145.061C270.58 146.371 285.41 149.041 300 153.061Z" fill="#4CAF50"/>
<path fill-rule="evenodd" clip-rule="evenodd" d="M374 252.062C369.89 234.462 364.55 217.132 358 200.062C362.93 193.122 369.6 189.122 378 188.062C385.84 188.722 391.34 192.722 394.5 200.062C395.36 206.152 395.03 212.152 393.5 218.062C388.36 230.322 381.86 241.662 374 252.062Z" fill="#8BC34A"/>
<path fill-rule="evenodd" clip-rule="evenodd" d="M149 217.062C142.98 231.472 138.98 246.472 137 262.062C136.86 263.592 136.19 264.592 135 265.062C115.97 257.532 106.14 243.532 105.5 223.062C107.33 217.232 111.17 213.392 117 211.562C123.05 210.902 129.05 211.232 135 212.562C139.41 214.932 144.07 216.432 149 217.062Z" fill="#8BC34A"/>
<path fill-rule="evenodd" clip-rule="evenodd" d="M347 257.061C342 253.901 336.66 251.401 331 249.561C319.5 246.531 307.84 245.531 296 246.561C286.21 252.631 281.55 261.471 282 273.061C282.91 297.051 295.24 306.381 319 301.061C322.68 297.881 326.18 294.551 329.5 291.061C332.07 284.011 334.24 276.841 336 269.561C335.41 267.361 334.74 265.201 334 263.061C334.5 262.731 335 262.391 335.5 262.061C340.07 264.361 344.9 265.691 350 266.061C350.43 278.441 347.26 289.771 340.5 300.061C337.91 312.411 331.08 321.581 320 327.561C304.96 336.741 288.63 341.401 271 341.561C249 344.301 229 339.301 211 326.561C199.74 316.551 194.07 304.051 194 289.061C196.49 286.091 198.99 283.091 201.5 280.061C201.83 283.731 202.17 287.391 202.5 291.061C204.69 295.271 206.69 299.611 208.5 304.061C223.3 316.631 237.3 315.631 250.5 301.061C253.39 295.451 255.56 289.621 257 283.561C256.25 277.561 253.75 272.391 249.5 268.061C248.79 262.341 245.62 258.841 240 257.561C233.07 256.051 226.07 255.721 219 256.561C210.73 259.361 203.07 263.191 196 268.061C201.17 244.721 214.84 228.551 237 219.561C255.52 212.341 274.52 211.001 294 215.561C306.7 218.121 318.7 222.461 330 228.561C339.62 235.621 345.29 245.121 347 257.061Z" fill="#FCFCFC"/>
<path fill-rule="evenodd" clip-rule="evenodd" d="M347 257.063C350.23 257.513 352.57 259.173 354 262.063C353.31 264.083 351.98 265.423 350 266.063C344.9 265.693 340.07 264.363 335.5 262.063C335 262.393 334.5 262.733 334 263.063C334.74 265.203 335.41 267.363 336 269.563C334.24 276.843 332.07 284.013 329.5 291.063C326.18 294.553 322.68 297.883 319 301.063C295.24 306.383 282.91 297.053 282 273.063C281.55 261.473 286.21 252.633 296 246.563C307.84 245.533 319.5 246.533 331 249.563C336.66 251.403 342 253.903 347 257.063Z" fill="#040404"/>
<path fill-rule="evenodd" clip-rule="evenodd" d="M296 254.062C299.79 253.372 302.95 254.372 305.5 257.062C306.17 261.732 306.17 266.392 305.5 271.062C298.65 277.082 292.98 276.082 288.5 268.062C287.75 265.262 288.08 262.592 289.5 260.062C292.16 258.562 294.33 256.562 296 254.062Z" fill="#F7F7F7"/>
<path fill-rule="evenodd" clip-rule="evenodd" d="M194 289.062C191.43 290.122 188.76 290.282 186 289.562C184.53 285.532 185.03 281.692 187.5 278.062C190.11 274.472 192.95 271.142 196 268.062C203.07 263.192 210.73 259.362 219 256.562C226.07 255.722 233.07 256.052 240 257.562C245.62 258.842 248.79 262.342 249.5 268.062C253.75 272.392 256.25 277.562 257 283.562C255.56 289.622 253.39 295.452 250.5 301.062C237.3 315.632 223.3 316.632 208.5 304.062C206.69 299.612 204.69 295.272 202.5 291.062C202.17 287.392 201.83 283.732 201.5 280.062C198.99 283.092 196.49 286.092 194 289.062Z" fill="#040404"/>
<path fill-rule="evenodd" clip-rule="evenodd" d="M234 264.062C240.8 263.862 244.47 267.192 245 274.062C244.32 280.812 240.82 285.142 234.5 287.062C229.3 285.352 226.47 281.682 226 276.062C227.29 273.932 228.12 271.602 228.5 269.062C230.23 267.162 232.06 265.492 234 264.062Z" fill="#F4F4F4"/>
<path fill-rule="evenodd" clip-rule="evenodd" d="M288 307.062C291.6 306.502 293.6 308.002 294 311.562C292.58 316.652 289.92 320.982 286 324.562C283.47 325.982 280.8 326.312 278 325.562C273.96 323.622 269.79 322.122 265.5 321.062C264.6 318.532 265.1 316.372 267 314.562C272.05 314.922 277.05 315.582 282 316.562C284.14 313.452 286.14 310.282 288 307.062Z" fill="#0E0E0E"/>
<path fill-rule="evenodd" clip-rule="evenodd" d="M365 322.062C371.16 329.692 376.32 338.022 380.5 347.062C382.81 356.602 379.97 364.102 372 369.562C367.47 371.752 363.14 371.422 359 368.562C353.1 362.832 347.44 357.002 342 351.062C341.89 350.442 341.56 349.942 341 349.562C352.39 343.342 360.39 334.172 365 322.062Z" fill="#8BC34A"/>
<path fill-rule="evenodd" clip-rule="evenodd" d="M173 339.062C182.01 348.572 192.35 356.402 204 362.562C204.47 363.862 204.47 365.362 204 367.062C200.86 372.002 197.69 377.002 194.5 382.062C185.41 393.112 175.74 393.782 165.5 384.062C163.55 377.072 163.55 370.072 165.5 363.062C168.31 355.142 170.81 347.142 173 339.062Z" fill="#8BC34A"/>
<path fill-rule="evenodd" clip-rule="evenodd" d="M315 363.062C315.56 378.372 316.56 393.702 318 409.062C323.18 407.542 328.18 408.042 333 410.562C337.78 413.632 338.11 416.962 334 420.562C327.67 421.232 321.33 421.232 315 420.562C312.82 420.402 310.99 419.562 309.5 418.062C308.15 400.612 305.99 383.282 303 366.062C306.88 364.662 310.88 363.662 315 363.062Z" fill="#080806"/>
<path fill-rule="evenodd" clip-rule="evenodd" d="M222.001 372.062C226.301 372.792 230.631 373.462 235.001 374.062C237.371 386.282 238.871 398.612 239.501 411.062C244.471 411.582 249.301 412.742 254.001 414.562C258.441 419.152 257.771 422.812 252.001 425.562C245.711 426.832 239.371 427.172 233.001 426.562C228.441 424.632 225.941 421.132 225.501 416.062C222.681 401.532 221.511 386.872 222.001 372.062Z" fill="#060604"/>
</svg>
