<svg width="500" height="500" viewBox="0 0 500 500" fill="none" xmlns="http://www.w3.org/2000/svg">
<path fill-rule="evenodd" clip-rule="evenodd" d="M231 94.0611C250.05 91.9111 263.38 99.5811 271 117.061C280.3 111.741 290.3 108.901 301 108.561C317.26 105.091 330.76 109.591 341.5 122.061C344.75 126.891 347.75 131.891 350.5 137.061C358.47 144.021 364.47 152.351 368.5 162.061C370.48 165.041 372.82 167.711 375.5 170.061C387.61 167.601 399.78 167.431 412 169.561C425.27 175.991 430.1 186.491 426.5 201.061C422.59 209.771 419.59 218.771 417.5 228.061C410.24 242.911 403.24 257.911 396.5 273.061C392.11 293.161 396.11 311.491 408.5 328.061C414.66 342.321 412.66 355.321 402.5 367.061C397.24 372.331 391.4 376.831 385 380.561C371.39 385.431 357.73 390.101 344 394.561C330.82 397.801 317.49 400.131 304 401.561C257.52 407.211 210.85 408.541 164 405.561C158.54 405.191 153.21 404.191 148 402.561C129.55 393.841 111.89 383.841 95.0002 372.561C82.7802 362.951 75.6102 350.451 73.5002 335.061C71.4802 315.531 74.4802 296.861 82.5002 279.061C88.7602 267.551 94.7602 255.881 100.5 244.061C108.65 221.631 107.65 199.631 97.5002 178.061C93.5502 164.981 92.2202 151.651 93.5002 138.061C105.47 112.481 123.63 106.651 148 120.561C154.74 125.501 160.9 131.001 166.5 137.061C171.97 134.281 177.47 131.441 183 128.561C196.97 114.071 212.97 102.571 231 94.0611Z" fill="#CE93D8"/>
<path fill-rule="evenodd" clip-rule="evenodd" d="M225 115.062C232.13 115.352 233.8 118.522 230 124.562C225.43 126.212 222.77 124.712 222 120.062C222.59 118.142 223.59 116.472 225 115.062Z" fill="#09060A"/>
<path fill-rule="evenodd" clip-rule="evenodd" d="M305.999 127.061C313.719 126.431 315.719 129.431 311.999 136.061C306.199 137.421 303.699 135.091 304.499 129.061C305.219 128.521 305.719 127.851 305.999 127.061Z" fill="#090609"/>
<path fill-rule="evenodd" clip-rule="evenodd" d="M206 151.061C208.36 150.901 210.69 151.061 213 151.561C218.12 154.341 223.45 156.671 229 158.561C258.38 167.181 288.38 170.841 319 169.561C326.29 167.741 333.62 166.241 341 165.061C341.21 166.701 340.88 168.201 340 169.561C324.42 174.741 308.42 176.411 292 174.561C267.65 173.781 243.98 169.451 221 161.561C216.41 159.301 211.74 157.141 207 155.061C206.07 153.871 205.74 152.541 206 151.061Z" fill="#DE7193"/>
<path fill-rule="evenodd" clip-rule="evenodd" d="M135 282.06C140.65 279.58 145.65 276.08 150 271.56C150.83 270.87 151.5 271.04 152 272.06C147.27 285.16 148.77 297.49 156.5 309.06C165.39 320.17 176.89 324 191 320.56C205.07 315.49 214.9 305.99 220.5 292.06C222.22 283.35 220.55 275.35 215.5 268.06C215.14 259.51 210.97 253.68 203 250.56C193.66 246.81 183.99 245.14 174 245.56C162.73 247.87 152.06 251.71 142 257.06C153.24 239.66 168.58 227.16 188 219.56C228.65 206.5 268.32 208.83 307 226.56C323.34 234.57 336.18 246.4 345.5 262.06C360.53 300.97 350.36 331.47 315 353.56C295.57 364.48 274.91 371.81 253 375.56C231.2 376.46 209.53 375.13 188 371.56C166.98 365.53 151.82 352.7 142.5 333.06C134.06 316.91 131.56 299.91 135 282.06Z" fill="#FDFDFD"/>
<path fill-rule="evenodd" clip-rule="evenodd" d="M135.001 282.06C132.711 282.32 130.541 281.98 128.501 281.06C127.831 277.73 127.831 274.39 128.501 271.06C132.531 265.86 137.031 261.2 142.001 257.06C152.061 251.71 162.731 247.87 174.001 245.56C183.991 245.14 193.661 246.81 203.001 250.56C210.971 253.68 215.141 259.51 215.501 268.06C220.551 275.35 222.221 283.35 220.501 292.06C214.901 305.99 205.071 315.49 191.001 320.56C176.891 324 165.391 320.17 156.501 309.06C148.771 297.49 147.271 285.16 152.001 272.06C151.501 271.04 150.831 270.87 150.001 271.56C145.651 276.08 140.651 279.58 135.001 282.06Z" fill="#040404"/>
<path fill-rule="evenodd" clip-rule="evenodd" d="M279 251.061C285.44 251.021 291.78 251.861 298 253.561C307.34 256.901 316.68 260.231 326 263.561C333.53 269.251 341.19 274.751 349 280.061C351.45 282.561 351.62 285.221 349.5 288.061C340.8 289.071 333.3 286.411 327 280.061C325.23 295.431 319.23 308.931 309 320.561C303.83 322.641 299.17 325.471 295 329.061C283.95 327.551 273.62 324.051 264 318.561C259.09 314.181 256.26 308.681 255.5 302.061C252.68 286.531 256.02 272.531 265.5 260.061C269.98 256.911 274.48 253.911 279 251.061Z" fill="#040404"/>
<path fill-rule="evenodd" clip-rule="evenodd" d="M192.001 260.061C205.071 259.301 209.901 265.301 206.501 278.061C204.831 280.391 203.171 282.731 201.501 285.061C190.651 291.891 184.491 288.891 183.001 276.061C182.981 273.601 183.481 271.261 184.501 269.061C186.541 265.621 189.041 262.621 192.001 260.061Z" fill="#F6F6F6"/>
<path fill-rule="evenodd" clip-rule="evenodd" d="M278 261.061C281.63 260.721 284.96 261.551 288 263.561C289.55 265.381 290.21 267.551 290 270.061C288.88 274.641 288.05 279.311 287.5 284.061C282.12 289.901 276.12 290.561 269.5 286.061C267.78 282.501 266.28 278.831 265 275.061C265.35 272.031 266.51 269.371 268.5 267.061C272.27 265.881 275.43 263.881 278 261.061Z" fill="#F5F5F5"/>
<path fill-rule="evenodd" clip-rule="evenodd" d="M253.999 329.061C260.499 328.061 262.999 330.731 261.499 337.061C257.669 342.231 253.169 346.731 247.999 350.561C245.669 351.231 243.329 351.231 240.999 350.561C234.679 347.151 228.509 343.651 222.499 340.061C222.249 332.341 225.749 330.181 232.999 333.561C236.669 335.731 240.329 337.891 243.999 340.061C247.559 336.591 250.899 332.931 253.999 329.061Z" fill="#0B0B0B"/>
</svg>
