<svg width="500" height="500" viewBox="0 0 500 500" fill="none" xmlns="http://www.w3.org/2000/svg">
<path fill-rule="evenodd" clip-rule="evenodd" d="M396.001 289.061C394.571 295.521 392.401 301.851 389.501 308.061C387.861 337.001 376.361 361.001 355.001 380.061C319.411 412.641 277.411 426.141 229.001 420.561C204.731 414.261 182.401 403.921 162.001 389.561C140.571 370.211 126.741 346.381 120.501 318.061C114.081 288.501 113.411 258.831 118.501 229.061C122.391 214.601 129.391 201.931 139.501 191.061C146.121 184.261 153.121 177.931 160.501 172.061C156.531 147.551 160.201 124.221 171.501 102.061C176.271 94.2912 182.101 87.4612 189.001 81.5612C199.021 76.6812 207.191 78.8512 213.501 88.0612C216.341 92.7312 218.341 97.7312 219.501 103.061C219.531 116.411 219.201 129.741 218.501 143.061C228.961 141.291 239.461 139.451 250.001 137.561C263.021 136.871 276.021 137.041 289.001 138.061C282.711 122.481 283.881 107.481 292.501 93.0612C302.631 81.5112 314.131 80.0112 327.001 88.5612C336.331 97.0512 342.171 107.551 344.501 120.061C346.411 130.301 347.411 140.631 347.501 151.061C349.391 160.391 351.061 169.731 352.501 179.061C365.551 193.491 376.881 209.161 386.501 226.061C397.431 245.861 400.601 266.861 396.001 289.061Z" fill="#FEFEFE"/>
<path fill-rule="evenodd" clip-rule="evenodd" d="M189.999 102.061C192.539 101.661 194.709 102.331 196.499 104.061C198.159 108.891 199.329 113.891 199.999 119.061C198.409 128.851 196.239 138.521 193.499 148.061C191.829 150.391 190.169 152.731 188.499 155.061C183.449 158.511 180.449 157.181 179.499 151.061C177.109 133.291 180.609 116.951 189.999 102.061Z" fill="#E4E0E0"/>
<path fill-rule="evenodd" clip-rule="evenodd" d="M312 102.062C316.39 101.502 319.56 103.172 321.5 107.062C323.22 114.852 324.72 122.682 326 130.562C324.8 136.342 323.97 142.172 323.5 148.062C318.44 152.642 314.78 151.642 312.5 145.062C309.35 134.402 306.85 123.572 305 112.562C306.74 108.542 309.08 105.042 312 102.062Z" fill="#E4E0E0"/>
<path fill-rule="evenodd" clip-rule="evenodd" d="M287.999 160.062C295.499 159.362 297.499 162.202 293.999 168.562C286.719 169.492 284.719 166.662 287.999 160.062Z" fill="#FAA6A0"/>
<path fill-rule="evenodd" clip-rule="evenodd" d="M223 161.062C229.1 162.592 230.6 166.262 227.5 172.062C225.35 174.002 222.85 174.502 220 173.562C217.57 168.672 218.57 164.502 223 161.062Z" fill="#FAA69F"/>
<path fill-rule="evenodd" clip-rule="evenodd" d="M266 184.062C263.63 189.242 259.96 190.242 255 187.062C249.51 184.422 246.18 180.092 245 174.062C246.5 170.392 249.17 167.892 253 166.562C259.77 166.212 265.6 168.382 270.5 173.062C271.17 174.392 271.17 175.732 270.5 177.062C268.78 179.282 267.28 181.612 266 184.062Z" fill="#FDB3F1"/>
<path fill-rule="evenodd" clip-rule="evenodd" d="M265.999 184.062C265.909 185.062 266.249 185.892 266.999 186.562C276.189 192.522 286.189 195.182 296.999 194.562C305.249 192.382 313.579 191.052 321.999 190.562C323.749 194.502 322.419 196.842 317.999 197.562C311.239 198.462 304.569 199.802 297.999 201.562C293.329 202.232 288.669 202.232 283.999 201.562C276.209 199.082 268.709 195.922 261.499 192.062C256.689 198.202 251.189 203.702 244.999 208.562C230.019 213.142 215.019 212.972 199.999 208.062C199.109 205.482 198.769 202.812 198.999 200.062C205.289 201.532 211.619 203.032 217.999 204.562C234.829 207.802 247.159 201.972 254.999 187.062C259.959 190.242 263.629 189.242 265.999 184.062Z" fill="#E7E7E7"/>
<path fill-rule="evenodd" clip-rule="evenodd" d="M341 292.061C335.48 288.721 329.81 285.551 324 282.561C316.02 280.581 308.02 278.581 300 276.561C279.97 273.351 268.14 281.851 264.5 302.061C263.01 312.751 265.01 322.751 270.5 332.061C275.36 336.801 281.19 339.631 288 340.561C293.34 341.291 298.67 341.631 304 341.561C306.98 338.731 310.32 336.401 314 334.561C319 327.731 322.83 320.231 325.5 312.061C326.87 307.071 327.37 302.071 327 297.061C332.92 301.451 339.59 303.451 347 303.061C354.33 330.911 344.99 351.071 319 363.561C309.06 367.481 298.72 369.481 288 369.561C277.04 373.421 265.71 375.421 254 375.561C240.33 376.231 226.67 376.231 213 375.561C195.9 374.091 181.07 367.591 168.5 356.061C163.85 350.421 160.51 344.091 158.5 337.061C157.83 329.491 156.67 322.161 155 315.061C157.49 315.261 159.82 314.761 162 313.561C165.18 310.211 168.52 307.041 172 304.061C172.33 304.391 172.67 304.731 173 305.061C171.15 309.231 170.65 313.561 171.5 318.061C174.11 333.671 183.11 343.011 198.5 346.061C210.68 345.801 220.35 340.801 227.5 331.061C229.58 326.571 231.91 322.231 234.5 318.061C235.73 309.311 233.39 301.641 227.5 295.061C226.61 288.161 222.78 283.661 216 281.561C197.69 276.321 181.02 279.491 166 291.061C171.94 279.631 180.94 271.461 193 266.561C229.41 254.131 266.08 253.131 303 263.561C318.1 269.931 330.77 279.431 341 292.061Z" fill="#FDB9B9"/>
<path fill-rule="evenodd" clip-rule="evenodd" d="M341.001 292.061C343.021 293.491 345.191 294.831 347.501 296.061C348.201 298.491 348.041 300.821 347.001 303.061C339.591 303.451 332.921 301.451 327.001 297.061C327.371 302.071 326.871 307.071 325.501 312.061C322.831 320.231 319.001 327.731 314.001 334.561C310.321 336.401 306.981 338.731 304.001 341.561C298.671 341.631 293.341 341.291 288.001 340.561C281.191 339.631 275.361 336.801 270.501 332.061C265.011 322.751 263.011 312.751 264.501 302.061C268.141 281.851 279.971 273.351 300.001 276.561C308.021 278.581 316.021 280.581 324.001 282.561C329.811 285.551 335.481 288.721 341.001 292.061Z" fill="#040303"/>
<path fill-rule="evenodd" clip-rule="evenodd" d="M155.001 315.061C154.001 315.151 153.171 314.811 152.501 314.061C151.831 311.061 151.831 308.061 152.501 305.061C155.881 299.271 160.381 294.611 166.001 291.061C181.021 279.491 197.691 276.321 216.001 281.561C222.781 283.661 226.611 288.161 227.501 295.061C233.391 301.641 235.731 309.311 234.501 318.061C231.911 322.231 229.581 326.571 227.501 331.061C220.351 340.801 210.681 345.801 198.501 346.061C183.111 343.011 174.111 333.671 171.501 318.061C170.651 313.561 171.151 309.231 173.001 305.061C172.671 304.731 172.331 304.391 172.001 304.061C168.521 307.041 165.181 310.211 162.001 313.561C159.821 314.761 157.491 315.261 155.001 315.061Z" fill="#040404"/>
<path fill-rule="evenodd" clip-rule="evenodd" d="M284.001 284.061C290.311 283.551 293.651 286.381 294.001 292.561C293.541 296.731 293.041 300.901 292.501 305.061C288.301 309.271 283.471 310.111 278.001 307.561C277.151 305.201 275.651 303.361 273.501 302.061C271.461 298.231 271.801 294.561 274.501 291.061C278.001 289.071 281.171 286.741 284.001 284.061Z" fill="#F4F4F4"/>
<path fill-rule="evenodd" clip-rule="evenodd" d="M209 290.061C216.98 289.371 221.32 293.041 222 301.061C221.12 308.851 216.95 313.851 209.5 316.061C203.74 314.241 200.57 310.241 200 304.061C201.18 298.151 204.18 293.481 209 290.061Z" fill="#F4F4F4"/>
<path fill-rule="evenodd" clip-rule="evenodd" d="M396 289.062C405.04 290.992 414.38 292.832 424 294.562C438.91 300.852 447.74 312.022 450.5 328.062C453.19 346.322 448.85 362.652 437.5 377.062C428.12 388.772 416.29 396.942 402 401.562C388.16 401.982 375.49 398.312 364 390.562C361.14 386.872 358.14 383.372 355 380.062C376.36 361.002 387.86 337.002 389.5 308.062C392.4 301.852 394.57 295.522 396 289.062Z" fill="#E4DFDF"/>
<path fill-rule="evenodd" clip-rule="evenodd" d="M97.9998 333.062C97.6398 334.932 96.6398 336.432 94.9998 337.562C91.8298 339.282 88.4898 340.622 84.9998 341.562C88.3598 343.592 88.6898 345.932 85.9998 348.562C82.9598 348.882 79.9598 348.882 76.9998 348.562C75.8798 349.602 74.5398 350.272 72.9998 350.562C74.4198 352.482 74.0798 353.982 71.9998 355.062C70.6298 355.222 69.2898 355.052 67.9998 354.562C60.2398 346.902 54.0798 338.072 49.4998 328.062C48.3298 323.892 49.8298 322.392 53.9998 323.562C55.5498 324.772 56.7198 326.272 57.4998 328.062C61.3298 326.302 64.3298 327.302 66.4998 331.062C65.2598 324.832 64.5998 318.502 64.4998 312.062C67.3798 310.532 69.7098 311.202 71.4998 314.062C72.6298 312.352 74.1298 311.852 75.9998 312.562C78.4598 314.972 80.2898 317.802 81.4998 321.062C81.8298 319.062 82.1698 317.062 82.4998 315.062C83.5798 313.172 84.9098 312.832 86.4998 314.062C86.3398 311.752 86.3398 309.422 86.4998 307.062C88.4998 304.392 90.4998 304.392 92.4998 307.062C95.1498 315.562 96.9798 324.222 97.9998 333.062Z" fill="#8DC24B"/>
<path fill-rule="evenodd" clip-rule="evenodd" d="M97.9991 333.062C101.609 333.362 104.939 334.532 107.999 336.562C111.499 340.062 114.999 343.562 118.499 347.062C124.779 356.602 131.779 365.602 139.499 374.062C140.629 376.942 141.289 379.942 141.499 383.062C147.269 386.722 148.429 391.562 144.999 397.562C141.949 399.732 138.619 400.402 134.999 399.562C126.299 396.532 118.299 392.202 110.999 386.562C95.8591 382.412 83.0291 374.572 72.4991 363.062C71.9991 360.412 71.8391 357.752 71.9991 355.062C74.0791 353.982 74.4191 352.482 72.9991 350.562C74.5391 350.272 75.8791 349.602 76.9991 348.562C79.9591 348.882 82.9591 348.882 85.9991 348.562C88.6891 345.932 88.3591 343.592 84.9991 341.562C88.4891 340.622 91.8291 339.282 94.9991 337.562C96.6391 336.432 97.6391 334.932 97.9991 333.062Z" fill="#FEB750"/>
<path fill-rule="evenodd" clip-rule="evenodd" d="M267.999 345.061C271.719 344.781 274.059 346.451 274.999 350.061C272.559 356.441 268.559 361.601 262.999 365.561C259.909 366.211 256.909 365.881 253.999 364.561C249.499 362.231 244.999 360.061 240.499 358.061C239.109 353.281 240.939 350.951 245.999 351.061C250.649 352.901 255.319 354.401 259.999 355.561C262.879 352.181 265.549 348.681 267.999 345.061Z" fill="#0C0909"/>
</svg>
