<svg width="500" height="500" viewBox="0 0 500 500" fill="none" xmlns="http://www.w3.org/2000/svg">
<path fill-rule="evenodd" clip-rule="evenodd" d="M290 68.0614C289.49 72.3114 290.49 76.1514 293 79.5614C295.75 80.6814 298.25 82.1814 300.5 84.0614C304.92 78.8314 309.25 78.8314 313.5 84.0614C314.17 85.7314 314.17 87.3914 313.5 89.0614C310.99 91.2414 308.82 93.7414 307 96.5614C305.3 97.5214 303.47 98.0214 301.5 98.0614C296.07 96.0114 290.73 93.6814 285.5 91.0614C277.14 93.3714 268.64 94.8714 260 95.5614C265 98.3914 270 101.231 275 104.061C277.72 101.451 280.89 99.7814 284.5 99.0614C291.25 100.611 292.75 104.441 289 110.561C283.92 115.441 277.92 117.441 271 116.561C264.16 112.641 257.16 108.971 250 105.561C245.36 102.921 242.19 99.0914 240.5 94.0614C236.38 90.2514 233.71 85.5914 232.5 80.0614C231.21 75.8314 230.71 71.5014 231 67.0614C232.73 61.3814 234.56 55.7114 236.5 50.0614C240.9 42.1714 246.73 41.0014 254 46.5614C256.12 48.2914 257.62 50.4614 258.5 53.0614C264.45 38.8014 272.45 37.4714 282.5 49.0614C285.55 55.1614 288.05 61.4914 290 68.0614Z" fill="#8BC24A"/>
<path fill-rule="evenodd" clip-rule="evenodd" d="M272 53.0609C273.75 52.9809 274.75 53.8109 275 55.5609C274.23 57.3309 273.06 58.8309 271.5 60.0609C269.77 57.7009 269.93 55.3609 272 53.0609Z" fill="#080C04"/>
<path fill-rule="evenodd" clip-rule="evenodd" d="M246 55.0609C247.75 54.9809 248.75 55.8109 249 57.5609C248.21 59.5209 246.87 61.0209 245 62.0609C243.78 61.6709 243.11 60.8409 243 59.5609C243.81 57.9209 244.81 56.4209 246 55.0609Z" fill="#101508"/>
<path fill-rule="evenodd" clip-rule="evenodd" d="M273 66.0615C275.19 66.0715 276.02 67.0715 275.5 69.0615C269.67 74.7315 262.83 76.3915 255 74.0615C255 72.7315 255 71.3915 255 70.0615C259.35 70.2315 263.68 70.0615 268 69.5615C269.85 68.5315 271.51 67.3615 273 66.0615Z" fill="#EB5137"/>
<path fill-rule="evenodd" clip-rule="evenodd" d="M231 67.0616C230.71 71.5016 231.21 75.8316 232.5 80.0616C233.71 85.5916 236.38 90.2516 240.5 94.0616C242.19 99.0916 245.36 102.922 250 105.562C257.16 108.972 264.16 112.642 271 116.562C277.92 117.442 283.92 115.442 289 110.562C292.75 104.442 291.25 100.612 284.5 99.0616C280.89 99.7816 277.72 101.452 275 104.062C270 101.232 265 98.3916 260 95.5616C268.64 94.8716 277.14 93.3716 285.5 91.0616C290.73 93.6816 296.07 96.0116 301.5 98.0616C303.47 98.0216 305.3 97.5216 307 96.5616C308.82 93.7416 310.99 91.2416 313.5 89.0616C314.17 87.3916 314.17 85.7316 313.5 84.0616C309.25 78.8316 304.92 78.8316 300.5 84.0616C298.25 82.1816 295.75 80.6816 293 79.5616C290.49 76.1516 289.49 72.3116 290 68.0616C304.99 72.0616 319.99 76.2316 335 80.5616C361.44 90.9316 378.6 109.762 386.5 137.062C399.6 156.022 405.6 177.022 404.5 200.062C400.59 218.622 390.09 231.782 373 239.562C364.64 243.072 355.97 245.242 347 246.062C337.28 245.102 327.95 242.602 319 238.562C283.21 232.922 247.21 230.592 211 231.562C196.04 233.172 181.04 234.002 166 234.062C120.42 234.642 96.92 212.312 95.5 167.062C95.91 164.332 96.58 161.662 97.5 159.062C103.75 146.902 110.75 135.232 118.5 124.062C129.76 114.682 140.93 105.182 152 95.5616C157.01 92.0516 162.34 89.0516 168 86.5616C187.48 81.6116 206.48 75.2716 225 67.5616C226.97 67.0616 228.97 66.9016 231 67.0616Z" fill="#F44336"/>
<path fill-rule="evenodd" clip-rule="evenodd" d="M159.001 118.062C169.191 118.072 176.361 122.742 180.501 132.062C182.261 155.972 171.421 170.472 148.001 175.562C135.231 175.802 127.401 169.632 124.501 157.062C123.581 144.472 127.421 133.642 136.001 124.562C138.921 123.032 141.921 121.702 145.001 120.562C149.961 120.532 154.621 119.702 159.001 118.062Z" fill="#FFFDFC"/>
<path fill-rule="evenodd" clip-rule="evenodd" d="M344 129.061C354.69 127.571 363.53 130.901 370.5 139.061C377.7 147.461 382.2 157.131 384 168.061C382.26 182.941 373.93 189.111 359 186.561C353.63 182.201 347.97 178.201 342 174.561C329.39 164.751 326.22 152.581 332.5 138.061C335.66 134.051 339.49 131.051 344 129.061Z" fill="#FFFDFD"/>
<path fill-rule="evenodd" clip-rule="evenodd" d="M250 164.062C269.53 161.432 279.03 169.772 278.5 189.062C277.45 200.432 271.61 207.932 261 211.562C258 212.232 255 212.232 252 211.562C247.38 208.462 242.38 206.132 237 204.562C226.46 196.972 224.29 187.472 230.5 176.062C235.75 169.862 242.25 165.862 250 164.062Z" fill="#FFFCFC"/>
<path fill-rule="evenodd" clip-rule="evenodd" d="M347 246.061C349.08 251.991 352.25 257.321 356.5 262.061C367.77 280.261 376.6 299.591 383 320.061C372.71 314.931 367.54 317.931 367.5 329.061C374.92 333.691 382.42 338.191 390 342.561C391.52 343.911 392.85 345.411 394 347.061C387.57 357.491 378.9 365.491 368 371.061C366.19 375.101 366.85 378.441 370 381.061C366.14 385.081 361.81 388.581 357 391.561C342.09 400.021 326.42 406.191 310 410.061C305.63 410.031 301.3 410.361 297 411.061C295.54 410.401 293.87 410.071 292 410.061C279.36 411.481 266.69 412.481 254 413.061C250.3 413.111 246.64 413.451 243 414.061C225.69 414.231 209.69 409.731 195 400.561C185.08 393.431 175.75 385.601 167 377.061C169.52 375.201 172.02 373.201 174.5 371.061C177.56 365.101 175.73 361.601 169 360.561C168.24 359.051 167.24 357.711 166 356.561C158.51 353.991 151.85 350.161 146 345.061C151.6 335.531 157.43 326.191 163.5 317.061C163.68 310.951 161.18 309.611 156 313.061C160.84 294.391 168.67 277.061 179.5 261.061C182.34 252.541 185.17 244.041 188 235.561C180.49 235.391 173.16 234.891 166 234.061C181.04 234.001 196.04 233.171 211 231.561C247.21 230.591 283.21 232.921 319 238.561C327.95 242.601 337.28 245.101 347 246.061Z" fill="#FEE5C1"/>
<path fill-rule="evenodd" clip-rule="evenodd" d="M342 311.062C340.04 309.072 337.7 307.572 335 306.562C324.29 302.602 313.29 299.772 302 298.062C296.08 299.112 290.92 301.782 286.5 306.062C278.36 318.352 277.02 331.352 282.5 345.062C286.29 350.512 291.46 354.012 298 355.562C303.04 356.412 308.04 357.082 313 357.562C316.5 354.982 320.16 352.642 324 350.562C331.09 341.222 334.93 330.722 335.5 319.062C339.07 321.862 342.91 323.862 347 325.062C346.61 349.682 335.27 367.182 313 377.562C308.1 379.842 303.1 381.842 298 383.562C282.98 384.842 267.98 386.342 253 388.062C229.43 388.852 209.93 380.522 194.5 363.062C187.57 352.022 184.74 340.022 186 327.062C190.51 325.062 194.34 322.062 197.5 318.062C196.13 326.662 197.13 334.992 200.5 343.062C209.82 356.722 221.99 359.892 237 352.562C243.95 347.502 249.12 341.002 252.5 333.062C253.91 325.622 252.24 318.952 247.5 313.062C247.44 308.012 245.27 304.172 241 301.562C225.59 295.012 210.59 295.842 196 304.062C209.4 283.682 228.4 272.522 253 270.562C274.7 268.622 295.36 272.292 315 281.562C327.01 288.732 336.01 298.562 342 311.062Z" fill="#FDFDFC"/>
<path fill-rule="evenodd" clip-rule="evenodd" d="M186.001 327.061C184.031 327.301 182.201 326.971 180.501 326.061C179.831 323.391 179.831 320.731 180.501 318.061C184.621 312.101 189.781 307.441 196.001 304.061C210.591 295.841 225.591 295.011 241.001 301.561C245.271 304.171 247.441 308.011 247.501 313.061C252.241 318.951 253.911 325.621 252.501 333.061C249.121 341.001 243.951 347.501 237.001 352.561C221.991 359.891 209.821 356.721 200.501 343.061C197.131 334.991 196.131 326.661 197.501 318.061C194.341 322.061 190.511 325.061 186.001 327.061Z" fill="#040404"/>
<path fill-rule="evenodd" clip-rule="evenodd" d="M342 311.062C346.01 314.162 350.18 317.162 354.5 320.062C354.31 325.082 351.81 326.742 347 325.062C342.91 323.862 339.07 321.862 335.5 319.062C334.93 330.722 331.09 341.222 324 350.562C320.16 352.642 316.5 354.982 313 357.562C308.04 357.082 303.04 356.412 298 355.562C291.46 354.012 286.29 350.512 282.5 345.062C277.02 331.352 278.36 318.352 286.5 306.062C290.92 301.782 296.08 299.112 302 298.062C313.29 299.772 324.29 302.602 335 306.562C337.7 307.572 340.04 309.072 342 311.062Z" fill="#050505"/>
<path fill-rule="evenodd" clip-rule="evenodd" d="M297 306.061C302.79 305.361 306.13 307.861 307 313.561C305.69 316.871 304.86 320.371 304.5 324.061C300.74 328.481 296.41 329.141 291.5 326.061C289.74 323.151 288.24 320.151 287 317.061C287.12 314.771 287.96 312.771 289.5 311.061C292.32 309.741 294.82 308.081 297 306.061Z" fill="#F4F4F4"/>
<path fill-rule="evenodd" clip-rule="evenodd" d="M232 307.062C238.09 307.322 241.42 310.482 242 316.562C241.6 324.002 237.94 328.842 231 331.062C229.31 330.802 227.81 330.132 226.5 329.062C220.58 319.732 222.41 312.402 232 307.062Z" fill="#F4F4F4"/>
<path fill-rule="evenodd" clip-rule="evenodd" d="M167 377.062C162.21 380.122 157.37 380.452 152.5 378.062C151.83 376.392 151.83 374.732 152.5 373.062C154.85 370.882 157.02 368.542 159 366.062C151.55 364.002 144.55 360.832 138 356.562C132.03 348.742 131.53 340.572 136.5 332.062C142.84 325.552 149.34 319.222 156 313.062C161.18 309.612 163.68 310.952 163.5 317.062C157.43 326.192 151.6 335.532 146 345.062C151.85 350.162 158.51 353.992 166 356.562C167.24 357.712 168.24 359.052 169 360.562C175.73 361.602 177.56 365.102 174.5 371.062C172.02 373.202 169.52 375.202 167 377.062Z" fill="#070606"/>
<path fill-rule="evenodd" clip-rule="evenodd" d="M383 320.062C387.31 324.192 391.81 328.192 396.5 332.062C398 335.722 400 339.062 402.5 342.062C403.17 344.392 403.17 346.732 402.5 349.062C396.94 357.462 390.44 365.132 383 372.062C388.05 376.512 389.05 381.682 386 387.562C384.14 388.862 382.14 389.192 380 388.562C376.79 385.842 373.46 383.342 370 381.062C366.85 378.442 366.19 375.102 368 371.062C378.9 365.492 387.57 357.492 394 347.062C392.85 345.412 391.52 343.912 390 342.562C382.42 338.192 374.92 333.692 367.5 329.062C367.54 317.932 372.71 314.932 383 320.062Z" fill="#070706"/>
<path fill-rule="evenodd" clip-rule="evenodd" d="M281 359.061C284.36 358.431 286.36 359.771 287 363.061C285.05 368.521 281.72 373.021 277 376.561C274.67 377.231 272.33 377.231 270 376.561C265.55 374.251 261.05 372.081 256.5 370.061C255.33 364.561 257.5 362.391 263 363.561C266.49 365.831 270.16 367.161 274 367.561C276.22 364.601 278.56 361.771 281 359.061Z" fill="#0C0C0C"/>
<path fill-rule="evenodd" clip-rule="evenodd" d="M310 410.061C312.66 419.541 314.5 429.211 315.5 439.061C320.5 434.931 326 433.771 332 435.561C334.37 438.501 334.54 441.661 332.5 445.061C327.54 450.951 321.37 454.951 314 457.061C311.74 455.651 309.57 453.981 307.5 452.061C303.84 438.411 300.34 424.741 297 411.061C301.3 410.361 305.63 410.031 310 410.061Z" fill="#070707"/>
<path fill-rule="evenodd" clip-rule="evenodd" d="M254 413.062C253.59 425.752 252.76 438.422 251.5 451.062C244.64 458.702 236.48 460.202 227 455.562C222.83 454.082 221.33 451.242 222.5 447.062C223.67 445.672 225.17 444.832 227 444.562C232.58 443.752 238.08 443.922 243.5 445.062C243.07 434.792 242.91 424.452 243 414.062C246.64 413.452 250.3 413.112 254 413.062Z" fill="#090909"/>
</svg>
