<svg width="500" height="500" viewBox="0 0 500 500" fill="none" xmlns="http://www.w3.org/2000/svg">
<path fill-rule="evenodd" clip-rule="evenodd" d="M173 122.062C169.55 131.182 166.72 140.512 164.5 150.062C163.83 155.392 163.83 160.732 164.5 166.062C168.1 177.342 175.26 180.172 186 174.562C187.55 173.352 188.72 171.852 189.5 170.062C190.49 151.442 194.99 133.772 203 117.062C206.02 117.222 209.02 117.062 212 116.562C222.99 112.162 234.32 111.002 246 113.062C238.58 130.672 235.75 149.002 237.5 168.062C242.23 176.172 248.73 178.012 257 173.562C258.88 172.022 260.38 170.182 261.5 168.062C262.54 157.712 263.88 147.382 265.5 137.062C267.47 129.642 270.3 122.642 274 116.062C275.95 116.882 277.95 117.052 280 116.562C283.37 112.862 287.03 109.522 291 106.562C299.87 101.622 308.87 96.9615 318 92.5615C328.26 87.7715 336.76 89.9415 343.5 99.0615C356.46 114.762 363.62 132.762 365 153.062C349.39 152.802 334.05 154.632 319 158.562C316.01 161.752 316.67 163.582 321 164.062C331.76 160.862 342.76 159.522 354 160.062C357.33 160.062 360.67 160.062 364 160.062C364 162.062 364 164.062 364 166.062C363.91 171.682 362.24 176.682 359 181.062C346.23 179.152 333.57 176.822 321 174.062C320.76 176.032 321.09 177.862 322 179.562C332.48 182.402 342.81 185.242 353 188.062C353 189.062 353 190.062 353 191.062C355.55 191.122 357.05 192.452 357.5 195.062C358.7 198.332 359.7 201.672 360.5 205.062C366.31 215.672 371.31 226.672 375.5 238.062C377.5 254.032 378.17 270.032 377.5 286.062C386.37 287.682 394.87 290.522 403 294.562C410.37 295.252 417.71 294.912 425 293.562C430.14 288.822 435.81 284.822 442 281.562C458.31 279.532 465.81 286.702 464.5 303.062C460.84 320.392 450.34 330.562 433 333.562C423.3 334.262 413.63 333.932 404 332.562C392.09 328.922 380.09 325.922 368 323.562C361.74 345.082 350.41 363.412 334 378.562C327.06 383.872 319.39 387.872 311 390.562C293.59 395.162 276.59 400.822 260 407.562C247.9 409.772 235.73 411.602 223.5 413.062C194.31 411.562 166.81 404.062 141 390.562C131.28 383.842 122.44 376.012 114.5 367.062C105.17 353.732 95.8301 340.392 86.5001 327.062C76.7901 305.442 73.1201 282.772 75.5001 259.062C78.9301 239.162 83.4301 219.492 89.0001 200.062C87.0701 197.202 85.4101 194.202 84.0001 191.062C87.2701 188.422 90.9401 186.252 95.0001 184.562C97.5901 183.032 98.4201 180.872 97.5001 178.062C96.4501 177.042 95.2801 176.882 94.0001 177.562C89.9701 180.402 85.6401 182.572 81.0001 184.062C78.9201 178.592 77.5901 172.932 77.0001 167.062C86.2601 165.462 95.5901 164.462 105 164.062C106.09 159.322 104.26 157.322 99.5001 158.062C91.6601 159.112 83.8301 160.112 76.0001 161.062C75.5701 147.632 77.7401 134.632 82.5001 122.062C86.5801 113.572 90.9101 105.242 95.5001 97.0615C102.74 88.4715 111.9 85.6315 123 88.5615C140 93.3915 154 102.732 165 116.562C167.08 118.202 169.41 119.372 172 120.062C172.8 120.522 173.13 121.182 173 122.062Z" fill="#FDE93C"/>
<path fill-rule="evenodd" clip-rule="evenodd" d="M245.999 113.062C255.249 114.722 264.589 115.722 273.999 116.062C270.299 122.642 267.469 129.642 265.499 137.062C263.879 147.382 262.539 157.712 261.499 168.062C260.379 170.182 258.879 172.022 256.999 173.562C248.729 178.012 242.229 176.172 237.499 168.062C235.749 149.002 238.579 130.672 245.999 113.062Z" fill="#040301"/>
<path fill-rule="evenodd" clip-rule="evenodd" d="M203.001 117.062C194.991 133.772 190.491 151.442 189.501 170.062C188.721 171.852 187.551 173.352 186.001 174.562C175.261 180.172 168.101 177.342 164.501 166.062C163.831 160.732 163.831 155.392 164.501 150.062C166.721 140.512 169.551 131.182 173.001 122.062C182.131 118.402 191.631 115.732 201.501 114.062C202.331 114.232 203.171 114.392 204.001 114.562C203.251 115.232 202.911 116.062 203.001 117.062Z" fill="#030301"/>
<path fill-rule="evenodd" clip-rule="evenodd" d="M365 153.061C372.05 153.421 379.05 154.251 386 155.561C387.93 159.971 386.43 161.801 381.5 161.061C376 160.351 370.5 159.681 365 159.061C361.13 158.751 357.46 159.081 354 160.061C342.76 159.521 331.76 160.861 321 164.061C316.67 163.581 316.01 161.751 319 158.561C334.05 154.631 349.39 152.801 365 153.061Z" fill="#090806"/>
<path fill-rule="evenodd" clip-rule="evenodd" d="M77.0003 167.061C63.1903 168.551 50.1903 172.551 38.0003 179.061C34.0103 177.171 34.0103 175.001 38.0003 172.561C50.0403 166.831 62.7003 162.991 76.0003 161.061C83.8303 160.111 91.6603 159.111 99.5003 158.061C104.26 157.321 106.09 159.321 105 164.061C95.5903 164.461 86.2603 165.461 77.0003 167.061Z" fill="#08070A"/>
<path fill-rule="evenodd" clip-rule="evenodd" d="M354 160.062C357.46 159.082 361.13 158.752 365 159.062C365.3 161.622 364.97 163.952 364 166.062C364 164.062 364 162.062 364 160.062C360.67 160.062 357.33 160.062 354 160.062Z" fill="#9F9443"/>
<path fill-rule="evenodd" clip-rule="evenodd" d="M359 181.062C367.55 184.422 376.22 187.922 385 191.562C386.51 194.342 385.68 196.182 382.5 197.062C373.72 193.172 364.72 189.842 355.5 187.062C354.6 187.302 353.76 187.642 353 188.062C342.81 185.242 332.48 182.402 322 179.562C321.09 177.862 320.76 176.032 321 174.062C333.57 176.822 346.23 179.152 359 181.062Z" fill="#0C0A0A"/>
<path fill-rule="evenodd" clip-rule="evenodd" d="M84 191.061C80.14 191.991 76.47 193.491 73 195.561C68.94 199.341 64.27 201.671 59 202.561C56.48 200.371 56.82 198.371 60 196.561C67.06 192.371 74.06 188.201 81 184.061C85.64 182.571 89.97 180.401 94 177.561C95.28 176.881 96.45 177.041 97.5 178.061C98.42 180.871 97.59 183.031 95 184.561C90.94 186.251 87.27 188.421 84 191.061Z" fill="#0A080B"/>
<path fill-rule="evenodd" clip-rule="evenodd" d="M214.001 182.062C216.031 181.902 218.031 182.062 220.001 182.562C237.561 194.342 256.891 200.342 278.001 200.562C290.901 198.672 303.571 195.832 316.001 192.062C319.901 192.442 320.901 194.442 319.001 198.062C304.701 202.792 290.031 206.122 275.001 208.062C254.131 207.102 235.131 200.772 218.001 189.062C214.191 194.712 209.521 199.542 204.001 203.562C190.551 211.602 176.051 216.432 160.501 218.062C151.721 217.582 143.551 215.082 136.001 210.562C130.261 205.612 124.431 200.772 118.501 196.062C117.571 191.482 119.401 189.982 124.001 191.562C130.771 197.672 138.111 203.002 146.001 207.562C156.911 211.732 167.911 211.732 179.001 207.562C187.311 204.072 195.311 200.072 203.001 195.562C207.641 191.772 211.301 187.272 214.001 182.062Z" fill="#0D0B03"/>
<path fill-rule="evenodd" clip-rule="evenodd" d="M326 271.062C322.68 269.672 319.35 268.172 316 266.562C306.89 264.702 297.89 262.372 289 259.562C281.61 257.812 274.27 257.812 267 259.562C253.1 268.522 246.43 281.362 247 298.062C245.84 319.052 255.5 331.212 276 334.562C289.81 337.262 300.97 332.762 309.5 321.062C312.78 314.182 315.78 307.182 318.5 300.062C319.77 294.742 320.27 289.412 320 284.062C323.79 286.622 327.79 288.622 332 290.062C335.11 307.972 330.61 323.642 318.5 337.062C308.54 349.282 296.37 358.442 282 364.562C266.97 371.582 251.3 376.582 235 379.562C229 380.232 223 380.232 217 379.562C195.23 376.132 175.23 368.472 157 356.562C148 348.902 140.5 340.072 134.5 330.062C130.5 320.152 129 309.812 130 299.062C132.96 295.602 136.13 292.262 139.5 289.062C138.21 294.592 137.88 300.252 138.5 306.062C140.55 310.882 142.22 315.882 143.5 321.062C153.84 337.842 168.34 342.672 187 335.562C191.76 332.762 196.26 329.602 200.5 326.062C203.83 320.732 207.17 315.392 210.5 310.062C212.02 304.482 212.35 298.812 211.5 293.062C209.44 288.602 207.1 284.272 204.5 280.062C204.58 274.722 202.42 270.562 198 267.562C180.39 259.132 162.72 258.972 145 267.062C150.8 262.092 156.14 256.592 161 250.562C190.09 232.422 221.76 224.092 256 225.562C270.35 231.072 284.68 236.742 299 242.562C311.3 249.022 320.3 258.522 326 271.062Z" fill="#FDFDFC"/>
<path fill-rule="evenodd" clip-rule="evenodd" d="M326 271.062C326.79 272.352 327.79 273.522 329 274.562C334.45 277.362 339.62 280.532 344.5 284.062C345.77 287.732 344.6 290.232 341 291.562C337.92 291.702 334.92 291.202 332 290.062C327.79 288.622 323.79 286.622 320 284.062C320.27 289.412 319.77 294.742 318.5 300.062C315.78 307.182 312.78 314.182 309.5 321.062C300.97 332.762 289.81 337.262 276 334.562C255.5 331.212 245.84 319.052 247 298.062C246.43 281.362 253.1 268.522 267 259.562C274.27 257.812 281.61 257.812 289 259.562C297.89 262.372 306.89 264.702 316 266.562C319.35 268.172 322.68 269.672 326 271.062Z" fill="#040404"/>
<path fill-rule="evenodd" clip-rule="evenodd" d="M130 299.062C118.54 306.722 114.04 303.722 116.5 290.062C120.33 285.562 124.17 281.062 128 276.562C133.69 273.382 139.36 270.212 145 267.062C162.72 258.972 180.39 259.132 198 267.562C202.42 270.562 204.58 274.722 204.5 280.062C207.1 284.272 209.44 288.602 211.5 293.062C212.35 298.812 212.02 304.482 210.5 310.062C207.17 315.392 203.83 320.732 200.5 326.062C196.26 329.602 191.76 332.762 187 335.562C168.34 342.672 153.84 337.842 143.5 321.062C142.22 315.882 140.55 310.882 138.5 306.062C137.88 300.252 138.21 294.592 139.5 289.062C136.13 292.262 132.96 295.602 130 299.062Z" fill="#050504"/>
<path fill-rule="evenodd" clip-rule="evenodd" d="M270 268.062C277.56 267.652 281.56 271.152 282 278.562C280.64 282.882 279.81 287.382 279.5 292.062C274.05 297.852 268.05 298.522 261.5 294.062C258.98 290.712 257.14 287.052 256 283.062C256.08 281.262 256.58 279.592 257.5 278.062C261.67 274.642 265.84 271.302 270 268.062Z" fill="#F5F5F5"/>
<path fill-rule="evenodd" clip-rule="evenodd" d="M182 274.062C194.3 273.872 199.13 279.872 196.5 292.062C195.22 294.842 193.72 297.512 192 300.062C180.51 306.982 173.84 303.652 172 290.062C173.32 283.422 176.65 278.092 182 274.062Z" fill="#F6F6F6"/>
<path fill-rule="evenodd" clip-rule="evenodd" d="M250 339.061C257.06 338.291 259.56 341.291 257.5 348.061C254.38 353.811 250.21 358.651 245 362.561C242.33 363.231 239.67 363.231 237 362.561C231.86 359.991 226.53 357.991 221 356.561C218.21 354.351 217.38 351.521 218.5 348.061C219.76 345.971 221.59 344.971 224 345.061C228.54 346.331 232.88 348.161 237 350.561C238.67 351.231 240.33 351.231 242 350.561C244.8 346.781 247.47 342.951 250 339.061Z" fill="#0C0C0C"/>
</svg>
