<svg width="500" height="500" viewBox="0 0 500 500" fill="none" xmlns="http://www.w3.org/2000/svg">
<path fill-rule="evenodd" clip-rule="evenodd" d="M300.999 401.062C296.999 401.062 292.999 401.062 288.999 401.062C264.259 401.382 239.589 401.052 214.999 400.062C210.669 400.062 206.329 400.062 201.999 400.062C195.989 400.232 189.989 400.062 183.999 399.562C173.439 395.922 162.769 392.592 151.999 389.562C147.079 386.182 142.239 382.682 137.499 379.062C132.169 371.732 126.829 364.392 121.499 357.062C120.859 350.962 119.859 344.962 118.499 339.062C116.189 269.712 116.519 200.372 119.499 131.062C123.009 127.052 124.509 122.382 123.999 117.062C123.749 111.512 123.089 106.012 121.999 100.562C128.819 85.0921 137.319 70.5921 147.499 57.0621C153.189 51.7121 159.689 47.5421 166.999 44.5621C201.999 43.8921 236.999 43.8921 271.999 44.5621C292.849 48.9821 313.849 52.6521 334.999 55.5621C345.079 61.0221 354.909 66.8521 364.499 73.0621C367.199 76.2121 368.529 79.8721 368.499 84.0621C371.269 112.792 374.599 141.462 378.499 170.062C380.569 208.222 382.399 246.382 383.999 284.562C378.859 316.252 372.699 347.752 365.499 379.062C361.569 382.442 357.739 385.942 353.999 389.562C339.539 392.722 325.209 396.392 310.999 400.562C307.679 401.062 304.349 401.232 300.999 401.062Z" fill="#D2D2D2"/>
<path fill-rule="evenodd" clip-rule="evenodd" d="M233 92.0615C259.97 93.7015 286.97 94.8615 314 95.5615C325.14 96.4015 336.14 98.0715 347 100.562C347.71 101.812 348.54 102.982 349.5 104.062C350.91 115.342 351.91 126.672 352.5 138.062C358.04 162.122 360.54 186.452 360 211.062C358.38 212.712 357.21 214.712 356.5 217.062C347.67 224.562 338.83 232.062 330 239.562C314.21 244.212 298.04 246.712 281.5 247.062C248.72 244.112 215.89 241.952 183 240.562C175.92 238.862 168.92 236.862 162 234.562C156.91 232.602 152.41 229.772 148.5 226.062C146.88 222.232 145.88 218.232 145.5 214.062C144.34 203.092 143.5 192.092 143 181.062C144.59 157.742 146.09 134.402 147.5 111.062C148.14 109.262 149.3 107.922 151 107.062C151.38 100.852 154.71 97.3515 161 96.5615C166.62 95.3015 172.29 94.3015 178 93.5615C196.5 93.3915 214.84 92.8915 233 92.0615Z" fill="#9E9E9E"/>
<path fill-rule="evenodd" clip-rule="evenodd" d="M320 149.062C310.83 145.602 301.49 142.432 292 139.562C278.04 136.522 268.54 141.692 263.5 155.062C259.27 167.582 261.11 179.082 269 189.562C292.43 200.922 307.6 193.752 314.5 168.062C314.68 164.612 314.84 161.282 315 158.062C317.68 159.752 320.35 161.422 323 163.062C323.92 183.442 324.08 203.772 323.5 224.062C322.33 225.232 321.17 226.392 320 227.562C308.96 229.132 297.96 230.632 287 232.062C262.75 230.882 238.42 230.042 214 229.562C206.36 228.372 198.69 227.372 191 226.562C189.25 226.092 187.59 225.422 186 224.562C183.79 221.642 181.95 218.472 180.5 215.062C180.16 210.452 178.66 206.282 176 202.562C176.07 190.402 176.4 178.232 177 166.062C178.63 163.932 180.46 161.932 182.5 160.062C180.46 170.242 182.46 179.572 188.5 188.062C196.55 196.072 206.05 198.232 217 194.562C219.67 192.892 222.33 191.232 225 189.562C228.2 185.992 231.03 182.162 233.5 178.062C235.9 173.332 236.57 168.332 235.5 163.062C232.59 157.912 230.25 152.572 228.5 147.062C225.87 144.332 222.71 142.502 219 141.562C212.77 139.692 206.44 139.022 200 139.562C191.84 141.672 184.17 144.832 177 149.062C176.78 138.982 177.45 128.982 179 119.062C177.52 116.312 178.19 114.152 181 112.562C183.22 111.282 185.55 110.282 188 109.562C205.33 108.572 222.66 107.742 240 107.062C250.79 109.012 261.62 109.352 272.5 108.062C285.7 109.262 298.87 110.762 312 112.562C315.96 114.522 318.46 117.692 319.5 122.062C319.93 129.062 320.43 136.062 321 143.062C321 145.262 320.66 147.262 320 149.062Z" fill="#98C38D"/>
<path fill-rule="evenodd" clip-rule="evenodd" d="M177 166.063C175.3 166.253 173.97 167.083 173 168.563C170.69 169.063 168.36 169.223 166 169.063C165.84 166.043 166 163.043 166.5 160.063C169.53 155.873 173.03 152.203 177 149.063C184.17 144.833 191.84 141.673 200 139.563C206.44 139.023 212.77 139.693 219 141.563C222.71 142.503 225.87 144.333 228.5 147.063C230.25 152.573 232.59 157.913 235.5 163.063C236.57 168.333 235.9 173.333 233.5 178.063C231.03 182.163 228.2 185.993 225 189.563C222.33 191.233 219.67 192.893 217 194.563C206.05 198.233 196.55 196.073 188.5 188.063C182.46 179.573 180.46 170.243 182.5 160.063C180.46 161.933 178.63 163.933 177 166.063Z" fill="#040404"/>
<path fill-rule="evenodd" clip-rule="evenodd" d="M320.001 149.062C323.661 152.652 327.821 155.652 332.501 158.062C333.241 160.002 333.081 161.832 332.001 163.562C328.991 163.862 325.991 163.692 323.001 163.062C320.351 161.422 317.681 159.752 315.001 158.062C314.841 161.282 314.681 164.612 314.501 168.062C307.601 193.752 292.431 200.922 269.001 189.562C261.111 179.082 259.271 167.582 263.501 155.062C268.541 141.692 278.041 136.522 292.001 139.562C301.491 142.432 310.831 145.602 320.001 149.062Z" fill="#040403"/>
<path fill-rule="evenodd" clip-rule="evenodd" d="M278 146.062C283.89 145.312 286.89 147.812 287 153.562C286.66 157.082 286.16 160.582 285.5 164.062C276.49 169.842 270.99 167.502 269 157.062C269.17 155.732 269.33 154.392 269.5 153.062C272.21 150.462 275.04 148.132 278 146.062Z" fill="#F5F5F5"/>
<path fill-rule="evenodd" clip-rule="evenodd" d="M215 149.062C221.72 148.672 225.05 151.842 225 158.562C224.66 165.432 221.16 169.602 214.5 171.062C209.56 169.612 207.06 166.282 207 161.062C207.7 155.652 210.36 151.652 215 149.062Z" fill="#F6F6F6"/>
<path fill-rule="evenodd" clip-rule="evenodd" d="M263 198.061C264.7 197.901 266.37 198.071 268 198.561C269.46 202.511 268.63 206.011 265.5 209.061C263.67 210.891 261.83 212.731 260 214.561C257.67 215.231 255.33 215.231 253 214.561C248.98 212.301 244.82 210.471 240.5 209.061C238.67 202.891 240.83 200.731 247 202.561C250.36 205.271 254.03 206.101 258 205.061C259.43 202.521 261.1 200.191 263 198.061Z" fill="#080908"/>
<path fill-rule="evenodd" clip-rule="evenodd" d="M160 247.062C168.66 247.892 177.32 248.732 186 249.562C186.63 250.312 187.13 251.142 187.5 252.062C191.13 250.152 194.96 249.322 199 249.562C199.5 250.062 200 250.562 200.5 251.062C201.17 259.732 201.17 268.392 200.5 277.062C199.17 278.392 197.83 278.392 196.5 277.062C195.25 274.552 194.75 271.882 195 269.062C191.98 268.902 188.98 269.062 186 269.562C184.33 271.892 182.67 274.232 181 276.562C178.91 277.122 177.58 276.282 177 274.062C179.18 267.372 182.18 261.042 186 255.062C185.5 254.732 185 254.392 184.5 254.062C181.99 255.432 179.32 256.432 176.5 257.062C172.6 262.632 169.1 268.462 166 274.562C163.65 274.422 161.32 273.922 159 273.062C158.59 269.962 159.76 267.632 162.5 266.062C164.86 262.672 166.69 259.012 168 255.062C162.26 255.322 159.59 252.652 160 247.062Z" fill="#6673B9"/>
<path fill-rule="evenodd" clip-rule="evenodd" d="M210.001 251.062C219.411 250.642 223.911 254.972 223.501 264.062C222.151 265.252 220.981 266.582 220.001 268.062C221.471 270.162 222.801 272.332 224.001 274.562C223.551 276.182 222.551 277.352 221.001 278.062C218.181 275.492 215.181 273.152 212.001 271.062C211.011 273.332 210.181 275.672 209.501 278.062C208.171 279.392 206.831 279.392 205.501 278.062C204.831 274.392 204.831 270.732 205.501 267.062C207.521 261.832 209.021 256.492 210.001 251.062Z" fill="#6974BA"/>
<path fill-rule="evenodd" clip-rule="evenodd" d="M228 253.062C233.68 252.892 239.34 253.062 245 253.562C252.09 258.132 251.42 260.962 243 262.062C241.14 266.992 239.47 271.992 238 277.062C231.42 279.222 229.25 276.882 231.5 270.062C232.52 267.452 233.35 264.792 234 262.062C231.98 260.202 229.81 258.542 227.5 257.062C226.92 255.632 227.09 254.302 228 253.062Z" fill="#6673B9"/>
<path fill-rule="evenodd" clip-rule="evenodd" d="M328 277.062C335.52 276.742 340.69 280.072 343.5 287.062C345.99 296.312 342.82 302.482 334 305.562C319.49 307.952 313.66 302.112 316.5 288.062C319.57 283.492 323.4 279.822 328 277.062Z" fill="#EB5B5B"/>
<path fill-rule="evenodd" clip-rule="evenodd" d="M175 293.062C184.12 292.512 188.78 296.842 189 306.062C194.73 305.452 199.9 306.782 204.5 310.062C206.75 314.822 205.91 318.992 202 322.562C198.12 324.032 194.12 324.862 190 325.062C189.91 330.012 188.74 334.672 186.5 339.062C184.77 340.302 182.94 341.302 181 342.062C172.09 340.472 168.09 335.142 169 326.062C159.99 328.062 154.32 324.732 152 316.062C152.15 312.932 153.48 310.432 156 308.562C159.99 308.062 163.99 307.892 168 308.062C167.37 301.492 169.71 296.492 175 293.062Z" fill="#5A5A5A"/>
<path fill-rule="evenodd" clip-rule="evenodd" d="M288.001 302.062C302.871 300.782 308.701 307.452 305.501 322.062C305.181 325.532 303.681 328.372 301.001 330.562C280.591 336.822 273.431 329.652 279.501 309.062C281.941 306.112 284.771 303.772 288.001 302.062Z" fill="#EB5C5B"/>
<path fill-rule="evenodd" clip-rule="evenodd" d="M228 348.062C232.48 348.382 233.98 350.722 232.5 355.062C229.07 359.482 226.07 364.152 223.5 369.062C219.69 372.152 217.19 371.322 216 366.562C217.84 358.912 221.84 352.742 228 348.062Z" fill="#9F9F9F"/>
<path fill-rule="evenodd" clip-rule="evenodd" d="M259 350.062C263.99 349.892 265.83 352.222 264.5 357.062C261.44 363.122 257.27 368.292 252 372.562C247 373.222 245.17 371.062 246.5 366.062C249.97 360.072 254.14 354.742 259 350.062Z" fill="#9F9F9F"/>
<path fill-rule="evenodd" clip-rule="evenodd" d="M202 400.062C206.33 400.062 210.67 400.062 215 400.062C216.77 415.322 217.27 430.652 216.5 446.062C212.09 448.132 207.92 450.632 204 453.562C198.37 454.762 192.7 455.092 187 454.562C179.44 451.562 178.1 446.902 183 440.562C189.86 437.982 196.86 437.482 204 439.062C202.42 426.122 201.75 413.122 202 400.062Z" fill="#030403"/>
<path fill-rule="evenodd" clip-rule="evenodd" d="M289 401.062C293 401.062 297 401.062 301 401.062C302.66 412.952 303.33 424.952 303 437.062C308.01 436.892 313.01 437.062 318 437.562C324.48 440.172 326.48 444.502 324 450.562C318.48 451.572 312.98 452.742 307.5 454.062C306.06 454.002 304.73 453.672 303.5 453.062C300.66 456.592 297.49 456.932 294 454.062C293.6 436.282 291.93 418.612 289 401.062Z" fill="#030403"/>
</svg>
