<svg width="500" height="500" viewBox="0 0 500 500" fill="none" xmlns="http://www.w3.org/2000/svg">
<path fill-rule="evenodd" clip-rule="evenodd" d="M289 95.0619C285.84 95.5419 282.84 96.5419 280 98.0619C277.87 87.3019 273.2 77.8019 266 69.5619C251.06 65.2719 237.06 67.2719 224 75.5619C218.81 81.7519 213.31 87.5819 207.5 93.0619C204.75 96.2819 203.25 99.9519 203 104.062C200.72 103.112 198.72 101.782 197 100.062C198 100.062 199 100.062 200 100.062C203.92 88.4019 210.25 78.2319 219 69.5619C246.73 50.5319 268.9 55.7019 285.5 85.0619C286.97 88.3019 288.14 91.6419 289 95.0619Z" fill="#EBD873"/>
<path fill-rule="evenodd" clip-rule="evenodd" d="M280 98.0616C276.51 100.982 272.51 103.142 268 104.562C261.2 105.252 254.53 106.582 248 108.562C234.57 109.572 221.24 108.902 208 106.562C206.31 105.712 204.64 104.882 203 104.062C203.25 99.9516 204.75 96.2816 207.5 93.0616C213.31 87.5816 218.81 81.7516 224 75.5616C237.06 67.2716 251.06 65.2716 266 69.5616C273.2 77.8016 277.87 87.3016 280 98.0616Z" fill="#FEE565"/>
<path fill-rule="evenodd" clip-rule="evenodd" d="M289.001 95.0615C290.711 96.2015 291.381 97.8615 291.001 100.062C283.811 103.822 276.481 107.322 269.001 110.562C262.211 111.262 255.541 112.592 249.001 114.562C236.301 115.322 223.641 114.992 211.001 113.562C204.341 112.062 198.341 109.232 193.001 105.062C191.831 103.392 191.831 101.732 193.001 100.062C194.331 98.7315 195.671 98.7315 197.001 100.062C198.721 101.782 200.721 103.112 203.001 104.062C204.641 104.882 206.311 105.712 208.001 106.562C221.241 108.902 234.571 109.572 248.001 108.562C254.531 106.582 261.201 105.252 268.001 104.562C272.511 103.142 276.511 100.982 280.001 98.0615C282.841 96.5415 285.841 95.5415 289.001 95.0615Z" fill="#53B051"/>
<path fill-rule="evenodd" clip-rule="evenodd" d="M193 100.061C191.83 101.731 191.83 103.391 193 105.061C198.34 109.231 204.34 112.061 211 113.561C223.64 114.991 236.3 115.321 249 114.561C255.54 112.591 262.21 111.261 269 110.561C276.48 107.321 283.81 103.821 291 100.061C314.84 101.731 336.84 108.901 357 121.561C365.9 122.661 372.23 127.161 376 135.061C374.36 142.721 373.19 150.721 372.5 159.061C369.67 153.391 366.33 148.061 362.5 143.061C358.2 137.391 354.54 137.721 351.5 144.061C349.29 151.851 346.79 159.511 344 167.061C339.17 163.051 335.67 158.051 333.5 152.061C330.08 148.191 326.75 148.191 323.5 152.061C319.83 158.061 316.17 164.061 312.5 170.061C308.11 162.331 302.94 155.171 297 148.561C294.15 147.621 291.65 148.121 289.5 150.061C285.89 157.611 282.56 165.281 279.5 173.061C275.01 166.081 271.01 158.751 267.5 151.061C264.18 147.451 260.52 147.121 256.5 150.061C252.08 157.231 247.41 164.231 242.5 171.061C239.99 164.711 237.32 158.381 234.5 152.061C230.19 147.891 226.19 148.221 222.5 153.061C219.48 159.791 215.48 165.791 210.5 171.061C206.02 162.101 201.02 153.431 195.5 145.061C192.87 142.571 190.04 142.411 187 144.561C181.1 151.531 176.6 159.361 173.5 168.061C170.04 160.331 167.37 152.331 165.5 144.061C162.79 137.721 158.62 136.551 153 140.561C145.98 145.931 140.81 152.761 137.5 161.061C133.51 151.761 129.51 142.431 125.5 133.061C124.05 131.101 122.22 129.761 120 129.061C137.12 114.001 157.12 104.501 180 100.561C184.32 100.061 188.65 99.891 193 100.061Z" fill="#F1DB6C"/>
<path fill-rule="evenodd" clip-rule="evenodd" d="M193 120.062C203.59 122.542 214.26 124.712 225 126.562C241.93 128.112 258.59 126.772 275 122.562C280.19 120.472 284.86 117.642 289 114.062C290 113.972 290.83 114.312 291.5 115.062C294.19 119.112 296.36 123.452 298 128.062C299.85 129.322 301.69 129.322 303.5 128.062C304.17 125.732 304.17 123.392 303.5 121.062C301.06 116.292 298.23 111.792 295 107.562C306.02 106.842 316.68 108.512 327 112.562C337.08 118.142 347.75 122.142 359 124.562C364.25 125.712 365.58 128.382 363 132.562C361 133.562 359 134.562 357 135.562C306.79 147.242 256.13 149.242 205 141.562C196.16 139.142 187.16 137.482 178 136.562C166.99 136.132 155.99 135.462 145 134.562C139.23 133.192 133.9 130.862 129 127.562C141.68 123.552 154.34 119.552 167 115.562C174.84 112.552 182.51 109.052 190 105.062C190.33 105.392 190.67 105.732 191 106.062C186.89 113.552 184.73 121.552 184.5 130.062C187.13 132.752 189.47 132.422 191.5 129.062C192 126.052 192.5 123.052 193 120.062Z" fill="#FEE565"/>
<path fill-rule="evenodd" clip-rule="evenodd" d="M289 114.062C284.86 117.642 280.19 120.472 275 122.562C258.59 126.772 241.93 128.112 225 126.562C214.26 124.712 203.59 122.542 193 120.062C189.53 119.452 188.53 117.622 190 114.562C191.33 114.392 192.67 114.232 194 114.062C213.64 119.512 233.64 121.682 254 120.562C260.47 119.872 266.8 118.532 273 116.562C278.36 114.222 283.36 111.382 288 108.062C291.51 109.462 291.85 111.462 289 114.062Z" fill="#54B150"/>
<path fill-rule="evenodd" clip-rule="evenodd" d="M120 129.062C122.22 129.762 124.05 131.102 125.5 133.062C129.51 142.432 133.51 151.762 137.5 161.062C140.81 152.762 145.98 145.932 153 140.562C158.62 136.552 162.79 137.722 165.5 144.062C167.37 152.332 170.04 160.332 173.5 168.062C176.6 159.362 181.1 151.532 187 144.562C190.04 142.412 192.87 142.572 195.5 145.062C201.02 153.432 206.02 162.102 210.5 171.062C215.48 165.792 219.48 159.792 222.5 153.062C226.19 148.222 230.19 147.892 234.5 152.062C237.32 158.382 239.99 164.712 242.5 171.062C247.41 164.232 252.08 157.232 256.5 150.062C260.52 147.122 264.18 147.452 267.5 151.062C271.01 158.752 275.01 166.082 279.5 173.062C282.56 165.282 285.89 157.612 289.5 150.062C291.65 148.122 294.15 147.622 297 148.562C302.94 155.172 308.11 162.332 312.5 170.062C316.17 164.062 319.83 158.062 323.5 152.062C326.75 148.192 330.08 148.192 333.5 152.062C335.67 158.052 339.17 163.052 344 167.062C346.79 159.512 349.29 151.852 351.5 144.062C354.54 137.722 358.2 137.392 362.5 143.062C366.33 148.062 369.67 153.392 372.5 159.062C373.19 150.722 374.36 142.722 376 135.062C379.49 136.002 380.82 138.342 380 142.062C380.17 147.402 380 152.742 379.5 158.062C379.07 162.522 377.57 166.522 375 170.062C373.52 170.322 372.19 169.992 371 169.062C367.27 161.262 362.77 153.922 357.5 147.062C354.84 155.012 352.17 163.012 349.5 171.062C348.46 171.932 347.62 172.932 347 174.062C345.33 174.062 343.67 174.062 342 174.062C336.24 169.122 331.74 163.122 328.5 156.062C324.17 163.212 319.67 170.212 315 177.062C313.05 178.202 311.05 178.202 309 177.062C304.77 169.172 299.77 161.842 294 155.062C290.65 162.422 287.32 169.752 284 177.062C281.28 179.332 278.28 179.672 275 178.062C275 177.392 274.67 177.062 274 177.062C270.06 169.282 265.9 161.622 261.5 154.062C256.32 161.762 251.16 169.422 246 177.062C243.67 178.392 241.33 178.392 239 177.062C235.12 170.932 232.28 164.262 230.5 157.062C230.09 156.602 229.59 156.272 229 156.062C225.35 160.692 222.18 165.692 219.5 171.062C217.44 173.292 215.27 175.292 213 177.062C211.33 177.062 209.67 177.062 208 177.062C207.33 176.292 206.49 175.632 205.5 175.062C201.68 166.072 196.84 157.742 191 150.062C189.04 151.312 187.54 152.972 186.5 155.062C183.27 161.962 179.77 168.632 176 175.062C174.67 175.062 173.33 175.062 172 175.062C171.33 175.062 170.67 175.062 170 175.062C165.09 165.162 161.25 154.822 158.5 144.062C151.01 149.362 145.67 156.362 142.5 165.062C141.44 167.222 139.94 168.892 138 170.062C137 170.062 136 170.062 135 170.062C134.38 168.932 133.54 167.932 132.5 167.062C129.16 158.382 125.83 149.722 122.5 141.062C121.56 137.962 119.73 135.632 117 134.062C116.77 131.632 117.77 129.962 120 129.062Z" fill="#FE5C24"/>
<path fill-rule="evenodd" clip-rule="evenodd" d="M117 134.062C119.73 135.632 121.56 137.962 122.5 141.062C125.83 149.722 129.16 158.382 132.5 167.062C133.54 167.932 134.38 168.932 135 170.062C132.7 169.502 130.37 169.002 128 168.562C124.22 165.352 119.89 163.182 115 162.062C114.67 160.392 114.33 158.732 114 157.062C116.06 149.542 117.06 141.872 117 134.062Z" fill="#EFD970"/>
<path fill-rule="evenodd" clip-rule="evenodd" d="M170 175.062C161.28 174.842 152.61 174.012 144 172.562C141.65 172.322 139.65 171.492 138 170.062C139.94 168.892 141.44 167.222 142.5 165.062C145.67 156.362 151.01 149.362 158.5 144.062C161.25 154.822 165.09 165.162 170 175.062Z" fill="#FBE267"/>
<path fill-rule="evenodd" clip-rule="evenodd" d="M380 142.062C381.1 143.842 381.93 145.842 382.5 148.062C383.17 153.062 383.17 158.062 382.5 163.062C381.42 166.982 378.92 169.312 375 170.062C377.57 166.522 379.07 162.522 379.5 158.062C380 152.742 380.17 147.402 380 142.062Z" fill="#F1DA73"/>
<path fill-rule="evenodd" clip-rule="evenodd" d="M208 177.062C197.34 176.292 186.68 175.622 176 175.062C179.77 168.632 183.27 161.962 186.5 155.062C187.54 152.972 189.04 151.312 191 150.062C196.84 157.742 201.68 166.072 205.5 175.062C206.49 175.632 207.33 176.292 208 177.062Z" fill="#FAE066"/>
<path fill-rule="evenodd" clip-rule="evenodd" d="M274 177.062C264.67 177.062 255.33 177.062 246 177.062C251.16 169.422 256.32 161.762 261.5 154.062C265.9 161.622 270.06 169.282 274 177.062Z" fill="#F9DF67"/>
<path fill-rule="evenodd" clip-rule="evenodd" d="M239 177.062C230.33 177.062 221.67 177.062 213 177.062C215.27 175.292 217.44 173.292 219.5 171.062C222.18 165.692 225.35 160.692 229 156.062C229.59 156.272 230.09 156.602 230.5 157.062C232.28 164.262 235.12 170.932 239 177.062Z" fill="#FADF66"/>
<path fill-rule="evenodd" clip-rule="evenodd" d="M375 170.062C365.93 172.172 356.6 173.512 347 174.062C347.62 172.932 348.46 171.932 349.5 171.062C352.17 163.012 354.84 155.012 357.5 147.062C362.77 153.922 367.27 161.262 371 169.062C372.19 169.992 373.52 170.322 375 170.062Z" fill="#F3DB6C"/>
<path fill-rule="evenodd" clip-rule="evenodd" d="M342 174.062C336.05 175.392 330.05 176.392 324 177.062C321 177.062 318 177.062 315 177.062C319.67 170.212 324.17 163.212 328.5 156.062C331.74 163.122 336.24 169.122 342 174.062Z" fill="#F2DA6B"/>
<path fill-rule="evenodd" clip-rule="evenodd" d="M309 177.062C300.67 177.062 292.33 177.062 284 177.062C287.32 169.752 290.65 162.422 294 155.062C299.77 161.842 304.77 169.172 309 177.062Z" fill="#F0DA6B"/>
<path fill-rule="evenodd" clip-rule="evenodd" d="M284 177.062C292.33 177.062 300.67 177.062 309 177.062C311.05 178.202 313.05 178.202 315 177.062C318 177.062 321 177.062 324 177.062C327.57 188.122 329.91 199.452 331 211.062C330.71 213.302 331.04 215.302 332 217.062C333.27 236.372 333.94 255.702 334 275.062C333.13 277.282 332.8 279.612 333 282.062C332.42 287.732 332.26 293.392 332.5 299.062C349.33 291.452 366.83 286.282 385 283.562C395.21 286.772 401.71 293.612 404.5 304.062C407.63 312.652 410.47 321.322 413 330.062C412.39 330.952 412.06 331.952 412 333.062C411 333.392 410.33 334.062 410 335.062C406.93 336.362 405.93 338.362 407 341.062C407.07 342.522 406.73 343.852 406 345.062C401.97 334.512 396.97 324.342 391 314.562C396.71 312.602 399.37 308.932 399 303.562C394.97 304.512 391.47 306.682 388.5 310.062C384.33 305.232 380.17 300.392 376 295.562C374.47 294.642 372.8 294.142 371 294.062C359.07 297.522 348.07 302.862 338 310.062C335.13 313.472 335.8 316.142 340 318.062C349.18 312.972 358.51 308.142 368 303.562C369.33 302.892 370.67 302.892 372 303.562C384.26 317.832 393.09 333.992 398.5 352.062C398.88 357.752 398.88 363.422 398.5 369.062C400.69 371.402 403.19 371.732 406 370.062C407.36 372.772 407.2 375.442 405.5 378.062C401.73 383.362 396.9 387.362 391 390.062C385.48 390.962 381.65 388.962 379.5 384.062C378.5 381.392 377.5 378.732 376.5 376.062C375.61 362.402 373.11 349.072 369 336.062C368.33 335.732 367.67 335.392 367 335.062C354.58 338.532 342.25 342.202 330 346.062C330 354.062 330 362.062 330 370.062C326.76 371.192 323.43 372.032 320 372.562C318.46 375.972 319.63 377.812 323.5 378.062C325.91 378.082 328.08 377.412 330 376.062C330 382.062 330 388.062 330 394.062C330 396.062 330 398.062 330 400.062C330.66 406.122 329.5 411.792 326.5 417.062C320.26 423.972 313.43 430.132 306 435.562C287.64 437.282 269.31 439.452 251 442.062C231.25 441.892 211.92 439.052 193 433.562C188.93 431.832 185.1 429.662 181.5 427.062C173.02 414.432 169.52 400.432 171 385.062C171 383.392 171 381.732 171 380.062C169.82 372.672 168.32 365.342 166.5 358.062C161.15 356.852 155.98 357.522 151 360.062C148.75 360.692 146.75 361.692 145 363.062C128.44 366.432 111.77 366.932 95 364.562C92.54 363.102 90.37 361.272 88.5 359.062C84.47 351.352 81.31 343.352 79 335.062C79.24 332.662 78.57 330.662 77 329.062C75.28 320.662 73.94 312.322 73 304.062C73 302.392 73 300.732 73 299.062C73.59 290.832 74.43 282.502 75.5 274.062C78.7 270.062 82.2 266.392 86 263.062C88.44 261.662 90.78 259.992 93 258.062C99.1 261.992 104.77 266.492 110 271.562C115.63 274.522 121.63 276.022 128 276.062C127.27 288.402 126.77 300.732 126.5 313.062C137.8 311.802 148.97 309.632 160 306.562C160.83 302.132 160.83 297.632 160 293.062C160.29 290.822 159.96 288.822 159 287.062C158.67 266.992 159.67 246.992 162 227.062C162 225.062 162 223.062 162 221.062C163.18 212.142 164.51 203.142 166 194.062C166.65 192.122 166.98 190.122 167 188.062C168 185.392 169 182.732 170 180.062C174.64 178.732 179.3 178.732 184 180.062C184.59 223.082 185.59 266.082 187 309.062C180 312.222 175.33 317.392 173 324.562C172.96 327.082 174.13 328.582 176.5 329.062C179.47 327.582 182.3 325.912 185 324.062C185.49 347.882 195.49 366.382 215 379.562C223.03 384.232 231.7 386.732 241 387.062C269.88 385.212 292.05 372.212 307.5 348.062C310.5 340.362 311.67 332.362 311 324.062C312.87 324.572 314.7 325.242 316.5 326.062C320.97 323.962 321.13 321.462 317 318.562C313.22 317.352 310.22 315.182 308 312.062C303.03 299.252 294.36 289.752 282 283.562C268.57 277.872 254.57 275.372 240 276.062C238.28 273.902 237.45 271.242 237.5 268.062C236.43 239.072 235.93 210.072 236 181.062C249.1 181.162 262.1 180.162 275 178.062C278.28 179.672 281.28 179.332 284 177.062Z" fill="#89C049"/>
<path fill-rule="evenodd" clip-rule="evenodd" d="M172 175.062C173.33 175.062 174.67 175.062 176 175.062C186.68 175.622 197.34 176.292 208 177.062C209.67 177.062 211.33 177.062 213 177.062C221.67 177.062 230.33 177.062 239 177.062C241.33 178.392 243.67 178.392 246 177.062C255.33 177.062 264.67 177.062 274 177.062C274.67 177.062 275 177.392 275 178.062C262.1 180.162 249.1 181.162 236 181.062C235.93 210.072 236.43 239.072 237.5 268.062C237.45 271.242 238.28 273.902 240 276.062C236.53 277.082 232.86 277.752 229 278.062C228.27 245.732 227.94 213.402 228 181.062C216.65 181.192 205.31 180.852 194 180.062C192.7 219.722 193.03 259.392 195 299.062C194.1 301.952 192.77 304.622 191 307.062C189.67 307.732 188.33 308.392 187 309.062C185.59 266.082 184.59 223.082 184 180.062C179.3 178.732 174.64 178.732 170 180.062C170.39 178.282 171.06 176.612 172 175.062Z" fill="#80B147"/>
<path fill-rule="evenodd" clip-rule="evenodd" d="M229 278.062C222.98 280.242 216.98 282.742 211 285.562C205.21 289.522 199.87 294.022 195 299.062C193.03 259.392 192.7 219.722 194 180.062C205.31 180.852 216.65 181.192 228 181.062C227.94 213.402 228.27 245.732 229 278.062Z" fill="#8AC24A"/>
<path fill-rule="evenodd" clip-rule="evenodd" d="M167 188.061C166.98 190.121 166.65 192.121 166 194.061C160.8 192.791 156.13 190.461 152 187.061C151.05 185.511 150.71 183.851 151 182.061C152.7 181.901 154.37 182.071 156 182.561C159.41 184.931 163.08 186.761 167 188.061Z" fill="#ABABAA"/>
<path fill-rule="evenodd" clip-rule="evenodd" d="M332 217.062C331.04 215.302 330.71 213.302 331 211.062C334.67 208.842 338.67 207.842 343 208.062C343.29 209.852 342.95 211.512 342 213.062C338.56 214.212 335.22 215.542 332 217.062Z" fill="#ABABAA"/>
<path fill-rule="evenodd" clip-rule="evenodd" d="M70.9998 213.062C71.1298 213.942 70.7998 214.602 69.9998 215.062C68.6098 213.922 67.2798 213.922 65.9998 215.062C66.7498 216.302 67.0798 217.632 66.9998 219.062C61.1198 218.772 58.6198 221.432 59.4998 227.062C60.8798 229.312 62.3798 231.482 63.9998 233.562C60.9698 234.102 57.9698 234.772 54.9998 235.562C53.9298 236.302 53.2598 237.302 52.9998 238.562C54.3998 242.032 56.0698 245.372 57.9998 248.562C45.7598 246.142 42.9298 250.312 49.4998 261.062C50.3698 263.772 52.2098 265.112 54.9998 265.062C54.9198 263.632 55.2498 262.302 55.9998 261.062C53.2798 258.462 52.6098 255.462 53.9998 252.062C56.3598 253.382 58.6998 253.382 60.9998 252.062C58.4798 256.772 56.8098 261.772 55.9998 267.062C51.8998 266.682 48.2298 265.182 44.9998 262.562C26.0298 247.132 26.3698 232.132 45.9998 217.562C53.8798 213.712 62.2198 212.212 70.9998 213.062Z" fill="#FE5923"/>
<path fill-rule="evenodd" clip-rule="evenodd" d="M162 221.062C162 223.062 162 225.062 162 227.062C156.62 225.882 151.29 224.382 146 222.562C144.23 219.452 145.06 217.622 148.5 217.062C152.98 218.562 157.48 219.892 162 221.062Z" fill="#ACACAC"/>
<path fill-rule="evenodd" clip-rule="evenodd" d="M71.0002 213.062C71.6702 213.062 72.3302 213.062 73.0002 213.062C74.4602 215.692 76.1302 218.192 78.0002 220.562C77.3502 222.002 77.0202 223.502 77.0002 225.062C75.3602 225.082 74.0202 224.412 73.0002 223.062C69.7402 223.982 66.4102 224.312 63.0002 224.062C64.1402 228.872 66.8102 232.532 71.0002 235.062C70.3302 236.062 69.6702 237.062 69.0002 238.062C65.3602 238.672 61.7002 239.012 58.0002 239.062C57.8402 240.432 58.0102 241.772 58.5002 243.062C59.9402 244.952 61.1102 246.952 62.0002 249.062C61.9402 250.172 61.6102 251.172 61.0002 252.062C58.7002 253.382 56.3602 253.382 54.0002 252.062C52.6102 255.462 53.2802 258.462 56.0002 261.062C55.2502 262.302 54.9202 263.632 55.0002 265.062C52.2102 265.112 50.3702 263.772 49.5002 261.062C42.9302 250.312 45.7602 246.142 58.0002 248.562C56.0702 245.372 54.4002 242.032 53.0002 238.562C53.2602 237.302 53.9302 236.302 55.0002 235.562C57.9702 234.772 60.9702 234.102 64.0002 233.562C62.3802 231.482 60.8802 229.312 59.5002 227.062C58.6202 221.432 61.1202 218.772 67.0002 219.062C67.0802 217.632 66.7502 216.302 66.0002 215.062C67.2802 213.922 68.6102 213.922 70.0002 215.062C70.8002 214.602 71.1302 213.942 71.0002 213.062Z" fill="#FEBB08"/>
<path fill-rule="evenodd" clip-rule="evenodd" d="M83 218.062C84.33 218.062 85 218.732 85 220.062C85.16 221.432 84.99 222.772 84.5 224.062C75.18 235.032 68.18 247.362 63.5 261.062C62.47 263.802 60.97 266.132 59 268.062C57.61 269.372 56.61 269.042 56 267.062C56.81 261.772 58.48 256.772 61 252.062C61.61 251.172 61.94 250.172 62 249.062C64.69 245.682 67.03 242.022 69 238.062C69.67 237.062 70.33 236.062 71 235.062C75 229.392 79 223.732 83 218.062Z" fill="#57AB4E"/>
<path fill-rule="evenodd" clip-rule="evenodd" d="M85 220.062C87.63 222.642 89.8 225.642 91.5 229.062C93.9 235.342 96.4 241.512 99 247.562C107.11 255.452 116.77 260.452 128 262.562C133.33 267.232 133.33 271.732 128 276.062C121.63 276.022 115.63 274.522 110 271.562C104.77 266.492 99.1 261.992 93 258.062C90.78 259.992 88.44 261.662 86 263.062C77.46 267.112 68.46 268.782 59 268.062C60.97 266.132 62.47 263.802 63.5 261.062C68.18 247.362 75.18 235.032 84.5 224.062C84.99 222.772 85.16 221.432 85 220.062Z" fill="#FD5823"/>
<path fill-rule="evenodd" clip-rule="evenodd" d="M73 213.062C76.79 213.852 80.12 215.522 83 218.062C79 223.732 75 229.392 71 235.062C66.81 232.532 64.14 228.872 63 224.062C66.41 224.312 69.74 223.982 73 223.062C74.02 224.412 75.36 225.082 77 225.062C77.02 223.502 77.35 222.002 78 220.562C76.13 218.192 74.46 215.692 73 213.062Z" fill="#FC5D23"/>
<path fill-rule="evenodd" clip-rule="evenodd" d="M68.9997 238.062C67.0297 242.022 64.6897 245.682 61.9997 249.062C61.1097 246.952 59.9397 244.952 58.4997 243.062C58.0097 241.772 57.8397 240.432 57.9997 239.062C61.6997 239.012 65.3597 238.672 68.9997 238.062Z" fill="#FA5D22"/>
<path fill-rule="evenodd" clip-rule="evenodd" d="M333 282.062C332.8 279.612 333.13 277.282 334 275.062C337.55 274.722 341.05 274.052 344.5 273.062C347.65 274.862 347.81 277.022 345 279.562C341.01 280.502 337.01 281.342 333 282.062Z" fill="#ADAEAC"/>
<path fill-rule="evenodd" clip-rule="evenodd" d="M240 276.062C254.57 275.372 268.57 277.872 282 283.562C294.36 289.752 303.03 299.252 308 312.062C300.77 309.482 293.44 306.982 286 304.562C272.68 300.532 263.52 305.032 258.5 318.062C252.62 341.832 261.79 353.332 286 352.562C289.43 350.762 292.59 348.602 295.5 346.062C298.44 340.512 301.11 334.852 303.5 329.062C303.82 326.022 303.82 323.022 303.5 320.062C305.66 322.052 308.16 323.392 311 324.062C311.67 332.362 310.5 340.362 307.5 348.062C292.05 372.212 269.88 385.212 241 387.062C231.7 386.732 223.03 384.232 215 379.562C195.49 366.382 185.49 347.882 185 324.062C185.62 322.932 186.46 321.932 187.5 321.062C186.01 332.932 189.85 342.762 199 350.562C210.52 354.772 220.35 352.272 228.5 343.062C229.67 340.062 231.33 337.392 233.5 335.062C234.87 331.822 235.2 328.492 234.5 325.062C232.52 320.782 230.86 316.452 229.5 312.062C227.19 307.982 223.69 305.482 219 304.562C209.32 302.042 199.99 302.872 191 307.062C192.77 304.622 194.1 301.952 195 299.062C199.87 294.022 205.21 289.522 211 285.562C216.98 282.742 222.98 280.242 229 278.062C232.86 277.752 236.53 277.082 240 276.062Z" fill="#FCFCFB"/>
<path fill-rule="evenodd" clip-rule="evenodd" d="M159 287.062C159.96 288.822 160.29 290.822 160 293.062C155.49 294.132 151.16 293.462 147 291.062C145.32 288.092 146.16 286.422 149.5 286.062C152.62 286.822 155.79 287.152 159 287.062Z" fill="#ACADAB"/>
<path fill-rule="evenodd" clip-rule="evenodd" d="M406 345.062C404.73 353.412 404.73 361.752 406 370.062C403.19 371.732 400.69 371.402 398.5 369.062C398.88 363.422 398.88 357.752 398.5 352.062C393.09 333.992 384.26 317.832 372 303.562C370.67 302.892 369.33 302.892 368 303.562C358.51 308.142 349.18 312.972 340 318.062C335.8 316.142 335.13 313.472 338 310.062C348.07 302.862 359.07 297.522 371 294.062C372.8 294.142 374.47 294.642 376 295.562C380.17 300.392 384.33 305.232 388.5 310.062C391.47 306.682 394.97 304.512 399 303.562C399.37 308.932 396.71 312.602 391 314.562C396.97 324.342 401.97 334.512 406 345.062Z" fill="#7BAD42"/>
<path fill-rule="evenodd" clip-rule="evenodd" d="M73 299.062C73 300.732 73 302.392 73 304.062C68.58 304.902 64.25 304.062 60 301.562C58.49 298.782 59.32 296.942 62.5 296.062C66.03 297.382 69.53 298.382 73 299.062Z" fill="#B0B0B0"/>
<path fill-rule="evenodd" clip-rule="evenodd" d="M185 324.062C182.3 325.912 179.47 327.582 176.5 329.062C174.13 328.582 172.96 327.082 173 324.562C175.33 317.392 180 312.222 187 309.062C188.33 308.392 189.67 307.732 191 307.062C199.99 302.872 209.32 302.042 219 304.562C223.69 305.482 227.19 307.982 229.5 312.062C230.86 316.452 232.52 320.782 234.5 325.062C235.2 328.492 234.87 331.822 233.5 335.062C231.33 337.392 229.67 340.062 228.5 343.062C220.35 352.272 210.52 354.772 199 350.562C189.85 342.762 186.01 332.932 187.5 321.062C186.46 321.932 185.62 322.932 185 324.062Z" fill="#050505"/>
<path fill-rule="evenodd" clip-rule="evenodd" d="M308 312.062C310.22 315.182 313.22 317.352 317 318.562C321.13 321.462 320.97 323.962 316.5 326.062C314.7 325.242 312.87 324.572 311 324.062C308.16 323.392 305.66 322.052 303.5 320.062C303.82 323.022 303.82 326.022 303.5 329.062C301.11 334.852 298.44 340.512 295.5 346.062C292.59 348.602 289.43 350.762 286 352.562C261.79 353.332 252.62 341.832 258.5 318.062C263.52 305.032 272.68 300.532 286 304.562C293.44 306.982 300.77 309.482 308 312.062Z" fill="#050504"/>
<path fill-rule="evenodd" clip-rule="evenodd" d="M271 310.062C275.96 308.882 278.96 310.712 280 315.562C278.84 319.002 277.84 322.502 277 326.062C269.56 329.672 264.89 327.342 263 319.062C263.22 317.622 263.72 316.292 264.5 315.062C266.57 313.122 268.74 311.462 271 310.062Z" fill="#F5F5F5"/>
<path fill-rule="evenodd" clip-rule="evenodd" d="M217 311.062C222.42 311.482 225.08 314.482 225 320.062C224.83 321.392 224.67 322.732 224.5 324.062C217.85 333.932 212.68 333.272 209 322.062C209.98 317.062 212.65 313.392 217 311.062Z" fill="#F6F6F6"/>
<path fill-rule="evenodd" clip-rule="evenodd" d="M466 355.062C465 355.152 464.17 354.812 463.5 354.062C461.99 343.002 456.83 340.672 448 347.062C448.15 343.972 447.81 340.802 447 337.562C443.63 335.732 440.29 335.892 437 338.062C436.71 334.372 435.37 331.202 433 328.562C428.56 328.112 424.22 327.282 420 326.062C434.95 314.962 449.45 315.622 463.5 328.062C469.41 336.732 470.25 345.732 466 355.062Z" fill="#FF5924"/>
<path fill-rule="evenodd" clip-rule="evenodd" d="M420 326.062C424.22 327.282 428.56 328.112 433 328.562C435.37 331.202 436.71 334.372 437 338.062C440.29 335.892 443.63 335.732 447 337.562C447.81 340.802 448.15 343.972 448 347.062C456.83 340.672 461.99 343.002 463.5 354.062C464.17 354.812 465 355.152 466 355.062C466.16 356.432 465.99 357.772 465.5 359.062C463.52 361.462 461.35 363.462 459 365.062C458.67 364.392 458.33 363.732 458 363.062C460.61 361.332 460.28 359.832 457 358.562C458.1 357.792 458.1 356.962 457 356.062C457.6 355.822 457.93 355.322 458 354.562C456.34 347.992 453.34 347.492 449 353.062C446.64 351.032 444.31 349.032 442 347.062C442.86 344.662 442.86 342.332 442 340.062C439.56 341.622 436.89 342.282 434 342.062C432.1 341.762 430.43 341.102 429 340.062C430.64 338.362 431.64 336.192 432 333.562C425.19 334.192 418.52 334.032 412 333.062C412.06 331.952 412.39 330.952 413 330.062C415.33 328.732 417.67 327.392 420 326.062Z" fill="#FDBC0C"/>
<path fill-rule="evenodd" clip-rule="evenodd" d="M77.0002 329.062C78.5702 330.662 79.2402 332.662 79.0002 335.062C74.8902 336.952 70.8902 339.112 67.0002 341.562C62.3302 342.562 61.0002 340.892 63.0002 336.562C67.5602 333.782 72.2302 331.282 77.0002 329.062Z" fill="#ABACAA"/>
<path fill-rule="evenodd" clip-rule="evenodd" d="M412 333.062C418.52 334.032 425.19 334.192 432 333.562C431.64 336.192 430.64 338.362 429 340.062C423.04 337.022 416.71 335.362 410 335.062C410.33 334.062 411 333.392 412 333.062Z" fill="#FA6521"/>
<path fill-rule="evenodd" clip-rule="evenodd" d="M410 335.062C416.71 335.362 423.04 337.022 429 340.062C430.43 341.102 432.1 341.762 434 342.062C436.32 344.222 438.99 345.892 442 347.062C444.31 349.032 446.64 351.032 449 353.062C451.6 353.752 454.27 354.752 457 356.062C458.1 356.962 458.1 357.792 457 358.562C460.28 359.832 460.61 361.332 458 363.062C445.38 356.942 433.38 349.782 422 341.562C417.8 340.522 413.63 339.352 409.5 338.062C407.75 338.312 406.92 339.312 407 341.062C405.93 338.362 406.93 336.362 410 335.062Z" fill="#56AB4D"/>
<path fill-rule="evenodd" clip-rule="evenodd" d="M457.999 363.062C458.329 363.732 458.669 364.392 458.999 365.062C448.849 375.062 436.509 379.902 421.999 379.562C416.529 384.882 411.689 390.712 407.499 397.062C403.679 400.732 399.179 402.232 393.999 401.562C388.839 398.752 387.839 394.912 390.999 390.062C396.899 387.362 401.729 383.362 405.499 378.062C407.199 375.442 407.359 372.772 405.999 370.062C404.729 361.752 404.729 353.412 405.999 345.062C406.729 343.852 407.069 342.522 406.999 341.062C406.919 339.312 407.749 338.312 409.499 338.062C413.629 339.352 417.799 340.522 421.999 341.562C433.379 349.782 445.379 356.942 457.999 363.062Z" fill="#FD5923"/>
<path fill-rule="evenodd" clip-rule="evenodd" d="M442 347.062C438.99 345.892 436.32 344.222 434 342.062C436.89 342.282 439.56 341.622 442 340.062C442.86 342.332 442.86 344.662 442 347.062Z" fill="#FA5D21"/>
<path fill-rule="evenodd" clip-rule="evenodd" d="M457 356.061C454.27 354.751 451.6 353.751 449 353.061C453.34 347.491 456.34 347.991 458 354.561C457.93 355.321 457.6 355.821 457 356.061Z" fill="#F95C22"/>
<path fill-rule="evenodd" clip-rule="evenodd" d="M258.001 355.062C262.571 354.642 264.071 356.642 262.501 361.062C260.331 364.562 257.501 367.392 254.001 369.562C251.591 370.042 249.251 369.712 247.001 368.562C243.881 366.592 240.721 364.752 237.501 363.062C236.911 359.972 238.251 358.312 241.501 358.062C244.321 358.552 246.821 359.722 249.001 361.562C250.331 362.232 251.671 362.232 253.001 361.562C254.551 359.272 256.221 357.112 258.001 355.062Z" fill="#0C0C0C"/>
<path fill-rule="evenodd" clip-rule="evenodd" d="M151 360.062C151.22 363.002 151.88 365.832 153 368.562C152.64 371.902 150.97 372.742 148 371.062C146.99 368.372 145.99 365.712 145 363.062C146.75 361.692 148.75 360.692 151 360.062Z" fill="#ABABAA"/>
<path fill-rule="evenodd" clip-rule="evenodd" d="M330 370.062C330 372.062 330 374.062 330 376.062C328.08 377.412 325.91 378.082 323.5 378.062C319.63 377.812 318.46 375.972 320 372.562C323.43 372.032 326.76 371.192 330 370.062Z" fill="#5E8432"/>
<path fill-rule="evenodd" clip-rule="evenodd" d="M171 380.062C171 381.732 171 383.392 171 385.062C167.97 389.092 163.97 391.422 159 392.062C158.84 390.362 159.01 388.692 159.5 387.062C162.8 383.552 166.63 381.222 171 380.062Z" fill="#ACACAC"/>
<path fill-rule="evenodd" clip-rule="evenodd" d="M330 394.062C334.06 394.572 338.06 395.402 342 396.562C343.51 399.342 342.68 401.182 339.5 402.062C336.33 401.342 333.16 400.672 330 400.062C330 398.062 330 396.062 330 394.062Z" fill="#AAABA9"/>
</svg>
