<svg width="500" height="500" viewBox="0 0 500 500" fill="none" xmlns="http://www.w3.org/2000/svg">
<path fill-rule="evenodd" clip-rule="evenodd" d="M376 223.061C374.54 222.101 373.21 220.941 372 219.561C369.22 218.781 366.72 219.281 364.5 221.061C335.93 208.761 306.1 201.601 275 199.561C271.42 197.371 267.76 195.371 264 193.561C257.97 183.041 248.97 176.711 237 174.561C224.71 172.551 213.38 174.881 203 181.561C195.05 187.341 188.72 194.511 184 203.061C175.16 205.871 166.16 208.371 157 210.561C148.16 214.171 139.5 218.171 131 222.561C123.73 224.101 116.73 226.431 110 229.561C101.14 234.821 92.47 240.321 84 246.061C86.88 228.211 92.38 211.211 100.5 195.061C100.08 188.761 100.08 182.421 100.5 176.061C105.93 156.301 112.26 136.961 119.5 118.061C122.39 112.781 125.89 107.951 130 103.561C135.49 100.651 141.16 100.311 147 102.561C154.68 105.741 161.35 110.401 167 116.561C170.94 119.521 175.11 122.021 179.5 124.061C184.54 122.171 189.71 120.671 195 119.561C211.36 119.271 227.7 118.431 244 117.061C250.79 117.591 257.46 119.091 264 121.561C266.65 122.061 269.31 122.221 272 122.061C273.95 113.801 276.79 105.801 280.5 98.0613C290.75 88.4313 300.58 88.9313 310 99.5613C313.25 99.8113 316.25 100.811 319 102.561C322.88 106.771 326.38 111.271 329.5 116.061C342.03 141.121 354.03 166.451 365.5 192.061C370.1 202.031 373.6 212.361 376 223.061Z" fill="#FECC7F"/>
<path fill-rule="evenodd" clip-rule="evenodd" d="M293 106.062C295.82 105.812 298.49 106.312 301 107.562C306.87 113.092 312.37 118.922 317.5 125.062C319.91 129.572 321.91 134.242 323.5 139.062C324.77 145.182 322.27 148.182 316 148.062C311.86 146.662 307.52 145.832 303 145.562C296.17 140.732 289.33 135.892 282.5 131.062C282.14 121.112 285.64 112.782 293 106.062Z" fill="#FFF6E6"/>
<path fill-rule="evenodd" clip-rule="evenodd" d="M140.999 117.062C150.919 120.452 159.079 126.452 165.499 135.062C166.329 139.262 164.829 142.422 160.999 144.562C153.359 148.712 146.029 153.382 138.999 158.562C135.129 160.082 131.129 160.412 126.999 159.562C125.469 157.912 124.799 155.912 124.999 153.562C126.579 139.642 131.909 127.472 140.999 117.062Z" fill="#FFF5E6"/>
<path fill-rule="evenodd" clip-rule="evenodd" d="M249 134.062C254.31 134.202 256.48 136.872 255.5 142.062C252.32 145.572 248.82 148.732 245 151.562C239.4 152.472 236.73 149.972 237 144.062C237.08 142.262 237.58 140.592 238.5 139.062C241.82 136.872 245.32 135.202 249 134.062Z" fill="#FFF4E3"/>
<path fill-rule="evenodd" clip-rule="evenodd" d="M199 136.062C203.98 136.442 208.48 138.112 212.5 141.062C213.17 142.732 213.17 144.392 212.5 146.062C203.83 156.222 197.83 154.892 194.5 142.062C195.83 139.902 197.33 137.902 199 136.062Z" fill="#FFF5E4"/>
<path fill-rule="evenodd" clip-rule="evenodd" d="M253 158.061C258.18 157.071 260.01 159.071 258.5 164.061C256.36 167.711 253.19 169.381 249 169.061C248.33 166.741 248.17 164.411 248.5 162.061C250.17 160.831 251.67 159.491 253 158.061Z" fill="#130F0A"/>
<path fill-rule="evenodd" clip-rule="evenodd" d="M191 162.061C197.99 161.211 200.32 164.041 198 170.561C189.34 173.061 187 170.231 191 162.061Z" fill="#18130D"/>
<path fill-rule="evenodd" clip-rule="evenodd" d="M284 170.061C288.72 169.111 292.56 170.451 295.5 174.061C295.94 177.301 294.44 179.131 291 179.561C285.88 180.451 280.88 180.111 276 178.561C273.88 177.041 273.55 175.201 275 173.061C277.92 171.611 280.92 170.611 284 170.061Z" fill="#FB9B65"/>
<path fill-rule="evenodd" clip-rule="evenodd" d="M376 223.061C377.52 235.131 379.19 247.301 381 259.561C380.27 267.921 379.94 276.251 380 284.561C380.14 285.861 380.81 286.691 382 287.061C379.37 304.951 375.7 322.621 371 340.061C369.04 346.151 366.37 351.991 363 357.561C364.41 360.491 364.25 363.321 362.5 366.061C358.5 372.541 353.67 378.371 348 383.561C340.94 387.421 333.6 390.761 326 393.561C313.18 396.971 300.51 400.971 288 405.561C270.02 410.181 252.02 410.511 234 406.561C208.18 406.491 182.51 404.491 157 400.561C147 394.891 137 389.231 127 383.561C109.38 368.791 95.21 351.291 84.5 331.061C80.25 318.931 77.75 306.431 77 293.561C77.39 278.281 78.89 263.121 81.5 248.061C82.49 247.491 83.33 246.831 84 246.061C92.47 240.321 101.14 234.821 110 229.561C116.73 226.431 123.73 224.101 131 222.561C139.5 218.171 148.16 214.171 157 210.561C166.16 208.371 175.16 205.871 184 203.061C188.72 194.511 195.05 187.341 203 181.561C213.38 174.881 224.71 172.551 237 174.561C248.97 176.711 257.97 183.041 264 193.561C267.76 195.371 271.42 197.371 275 199.561C306.1 201.601 335.93 208.761 364.5 221.061C366.72 219.281 369.22 218.781 372 219.561C373.21 220.941 374.54 222.101 376 223.061Z" fill="#FEF6E8"/>
<path fill-rule="evenodd" clip-rule="evenodd" d="M156 177.062C160.72 177.072 165.38 177.572 170 178.562C171.91 178.972 172.91 180.132 173 182.062C171.43 184.782 169.1 186.622 166 187.562C161.67 188.232 157.33 188.232 153 187.562C151.18 186.092 150.68 184.262 151.5 182.062C153.47 180.782 154.97 179.112 156 177.062Z" fill="#FB9B65"/>
<path fill-rule="evenodd" clip-rule="evenodd" d="M223 178.062C226.43 177.672 229.6 178.332 232.5 180.062C233.59 183.142 232.76 185.472 230 187.062C233.62 189.352 236.96 192.012 240 195.062C242.09 199.582 240.75 201.412 236 200.562C233.42 198.022 230.59 195.862 227.5 194.062C224.7 196.532 222.2 199.372 220 202.562C218.37 203.052 216.7 203.222 215 203.062C214.62 196.982 216.62 191.812 221 187.562C215.42 188.502 213.25 186.332 214.5 181.062C217.52 180.372 220.36 179.372 223 178.062Z" fill="#0F0E0E"/>
<path fill-rule="evenodd" clip-rule="evenodd" d="M330 274.062C326.42 270.992 322.42 268.492 318 266.562C307.96 263.772 297.96 260.772 288 257.562C276.01 254.532 265.84 257.362 257.5 266.062C245.03 284.852 244.86 303.682 257 322.562C267.56 329.782 279.23 332.782 292 331.562C295.96 328.902 299.96 326.232 304 323.562C313.9 311.352 318.9 297.522 319 282.062C323.8 286.632 329.46 289.292 336 290.062C344.09 308.152 342.26 325.152 330.5 341.062C322.35 351.542 312.19 359.382 300 364.562C278.65 373.492 256.32 377.662 233 377.062C211.68 377.152 191.01 373.652 171 366.562C156.27 359.162 144.77 348.332 136.5 334.062C135.5 331.062 134.5 328.062 133.5 325.062C131.68 315.482 130.51 305.812 130 296.062C134.94 292.302 139.77 288.302 144.5 284.062C143.37 289.292 143.03 294.622 143.5 300.062C145.37 306.522 147.7 312.852 150.5 319.062C164.11 333.912 179.61 336.082 197 325.562C199.78 323.752 202.28 321.582 204.5 319.062C207.58 313.232 210.91 307.562 214.5 302.062C216.44 292.222 214.11 283.552 207.5 276.062C207.56 270.132 205.06 265.632 200 262.562C180.9 254.462 162.24 255.292 144 265.062C153.53 252.042 165.87 242.542 181 236.562C192.16 232.602 203.49 229.272 215 226.562C231.93 226.012 248.6 228.012 265 232.562C269.23 233.672 273.23 235.342 277 237.562C294.84 240.842 310.34 248.672 323.5 261.062C326.74 264.872 328.9 269.202 330 274.062Z" fill="#FBF5B4"/>
<path fill-rule="evenodd" clip-rule="evenodd" d="M371 340.062C375.7 322.622 379.37 304.952 382 287.062C384.09 287.002 385.59 286.002 386.5 284.062C387.61 274.862 389.61 265.862 392.5 257.062C394.41 253.552 397.24 252.382 401 253.562C413.88 257.122 420.71 265.622 421.5 279.062C424.4 296.332 419.9 311.162 408 323.562C402.82 327.062 397.16 329.402 391 330.562C385.22 335.552 378.55 338.712 371 340.062Z" fill="#FFCC7F"/>
<path fill-rule="evenodd" clip-rule="evenodd" d="M330 274.062C333.72 277.262 337.89 279.922 342.5 282.062C344.17 287.892 342 290.562 336 290.062C329.46 289.292 323.8 286.632 319 282.062C318.9 297.522 313.9 311.352 304 323.562C299.96 326.232 295.96 328.902 292 331.562C279.23 332.782 267.56 329.782 257 322.562C244.86 303.682 245.03 284.852 257.5 266.062C265.84 257.362 276.01 254.532 288 257.562C297.96 260.772 307.96 263.772 318 266.562C322.42 268.492 326.42 270.992 330 274.062Z" fill="#040403"/>
<path fill-rule="evenodd" clip-rule="evenodd" d="M130.001 296.061C127.141 296.511 124.641 295.841 122.501 294.061C121.831 291.061 121.831 288.061 122.501 285.061C127.951 276.441 135.121 269.771 144.001 265.061C162.241 255.291 180.901 254.461 200.001 262.561C205.061 265.631 207.561 270.131 207.501 276.061C214.111 283.551 216.441 292.221 214.501 302.061C210.911 307.561 207.581 313.231 204.501 319.061C202.281 321.581 199.781 323.751 197.001 325.561C179.611 336.081 164.111 333.911 150.501 319.061C147.701 312.851 145.371 306.521 143.501 300.061C143.031 294.621 143.371 289.291 144.501 284.061C139.771 288.301 134.941 292.301 130.001 296.061Z" fill="#040403"/>
<path fill-rule="evenodd" clip-rule="evenodd" d="M271 266.061C278.26 265.671 282.26 269.001 283 276.061C281.6 280.201 280.77 284.541 280.5 289.061C275.63 294.421 269.96 295.421 263.5 292.061C262.26 289.151 260.59 286.481 258.5 284.061C257.71 280.931 258.04 277.931 259.5 275.061C263.31 271.921 267.15 268.921 271 266.061Z" fill="#F4F4F4"/>
<path fill-rule="evenodd" clip-rule="evenodd" d="M186 270.062C198.47 269.972 202.97 275.972 199.5 288.062C197.73 290.162 196.4 292.492 195.5 295.062C184.49 301.812 177.99 298.642 176 285.562C177.78 279.342 181.12 274.172 186 270.062Z" fill="#F6F6F6"/>
<path fill-rule="evenodd" clip-rule="evenodd" d="M250 335.062C256.5 334.062 259 336.732 257.5 343.062C253.99 348.902 249.49 353.732 244 357.562C241.24 358.142 238.58 357.812 236 356.562C230.35 353.822 224.85 350.992 219.5 348.062C218.44 343.122 220.44 340.452 225.5 340.062C229.83 341.362 234 343.192 238 345.562C239.33 346.232 240.67 346.232 242 345.562C244.88 342.182 247.55 338.682 250 335.062Z" fill="#0C0C0A"/>
</svg>
