<svg width="500" height="500" viewBox="0 0 500 500" fill="none" xmlns="http://www.w3.org/2000/svg">
<path fill-rule="evenodd" clip-rule="evenodd" d="M265 273.061C257.03 274.061 249.03 274.721 241 275.061C229.34 275.781 217.67 275.951 206 275.561C193.69 273.031 181.35 270.701 169 268.561C159.38 265.091 150.72 260.091 143 253.561C128.48 240.051 116.65 224.551 107.5 207.061C102.14 182.851 106.47 160.521 120.5 140.061C125.83 132.731 131.17 125.391 136.5 118.061C151.08 104.151 166.24 90.9812 182 78.5612C198.89 70.9512 215.89 63.6112 233 56.5612C255.53 55.1612 277.53 57.8212 299 64.5612C304.61 67.8412 309.94 71.5012 315 75.5612C340.8 85.8912 361.3 102.721 376.5 126.061C386.23 140.861 393.23 156.861 397.5 174.061C398.44 186.421 396.77 198.421 392.5 210.061C385.93 222.701 377.76 234.201 368 244.561C356.37 250.661 344.37 256.001 332 260.561C309.52 264.691 287.19 268.861 265 273.061Z" fill="#FF5722"/>
<path fill-rule="evenodd" clip-rule="evenodd" d="M238 95.0615C249.69 95.0615 261.35 95.5615 273 96.5615C292.8 101.822 311.13 110.152 328 121.562C344.15 136.042 355.65 153.542 362.5 174.062C364.46 184.562 362.46 194.222 356.5 203.062C352.64 207.912 348.48 212.412 344 216.562C336.67 221.232 329.33 225.892 322 230.562C313.76 234.182 305.42 237.522 297 240.562C265.49 245.052 233.82 247.052 202 246.562C190.76 243.772 180.43 239.112 171 232.562C163.26 225.612 155.43 218.782 147.5 212.062C140.62 202.322 138.62 191.662 141.5 180.062C147.91 151.072 163.41 128.242 188 111.562C196.34 106.672 205.34 104.002 215 103.562C222.49 100.012 230.16 97.1815 238 95.0615Z" fill="#FEEA3B"/>
<path fill-rule="evenodd" clip-rule="evenodd" d="M312 147.062C304.33 145.342 296.66 143.512 289 141.562C283.55 140.662 278.22 141.002 273 142.562C263.89 150.192 260.06 160.022 261.5 172.062C262.01 183.562 267.84 190.402 279 192.562C291.58 195.522 300.74 191.022 306.5 179.062C310.09 172.052 311.42 164.722 310.5 157.062C313.4 159.092 316.56 160.432 320 161.062C329.74 179.072 326.07 193.572 309 204.562C277.68 222.132 244.34 227.132 209 219.562C192.76 215.652 182.92 205.482 179.5 189.062C179 184.412 178.83 179.742 179 175.062C181.98 172.752 184.65 170.082 187 167.062C187.12 170.612 187.29 174.282 187.5 178.062C193.62 198.212 206.12 203.712 225 194.562C230.34 190.552 234.17 185.382 236.5 179.062C239.33 171.032 237.66 164.032 231.5 158.062C230.93 152.812 228.09 149.312 223 147.562C211.52 144.712 200.52 145.882 190 151.062C202.68 134.882 219.35 125.722 240 123.562C252.7 122.712 265.37 123.052 278 124.562C291.98 128.362 303.31 135.862 312 147.062Z" fill="#FDFCFC"/>
<path fill-rule="evenodd" clip-rule="evenodd" d="M312 147.061C316.78 150.661 321.95 153.661 327.5 156.061C327.93 161.771 325.43 163.441 320 161.061C316.56 160.431 313.4 159.091 310.5 157.061C311.42 164.721 310.09 172.051 306.5 179.061C300.74 191.021 291.58 195.521 279 192.561C267.84 190.401 262.01 183.561 261.5 172.061C260.06 160.021 263.89 150.191 273 142.561C278.22 141.001 283.55 140.661 289 141.561C296.66 143.511 304.33 145.341 312 147.061Z" fill="#040404"/>
<path fill-rule="evenodd" clip-rule="evenodd" d="M179 175.062C176.83 176.332 174.66 176.332 172.5 175.062C171.78 167.982 174.28 162.152 180 157.562C183.49 155.562 186.82 153.402 190 151.062C200.52 145.882 211.52 144.712 223 147.562C228.09 149.312 230.93 152.812 231.5 158.062C237.66 164.032 239.33 171.032 236.5 179.062C234.17 185.382 230.34 190.552 225 194.562C206.12 203.712 193.62 198.212 187.5 178.062C187.29 174.282 187.12 170.612 187 167.062C184.65 170.082 181.98 172.752 179 175.062Z" fill="#050505"/>
<path fill-rule="evenodd" clip-rule="evenodd" d="M276 148.062C281.51 147.302 284.51 149.642 285 155.062C285.16 160.062 283.49 164.232 280 167.562C277.67 168.232 275.33 168.232 273 167.562C270.77 164.842 268.77 162.012 267 159.062C267.55 156.952 268.39 154.952 269.5 153.062C271.85 151.532 274.02 149.862 276 148.062Z" fill="#F1F1F1"/>
<path fill-rule="evenodd" clip-rule="evenodd" d="M218 154.062C223.99 154.052 226.99 157.052 227 163.062C226.95 166.502 225.78 169.502 223.5 172.062C215.97 176.932 211.47 174.762 210 165.562C210.86 160.302 213.53 156.462 218 154.062Z" fill="#F6F6F6"/>
<path fill-rule="evenodd" clip-rule="evenodd" d="M265 197.061C268.07 196.481 270.07 197.651 271 200.561C268.99 205.571 265.99 209.911 262 213.561C255.28 213.621 249.11 211.791 243.5 208.061C242.43 204.461 243.76 202.461 247.5 202.061C251.28 203.721 255.11 204.881 259 205.561C261.22 202.851 263.22 200.011 265 197.061Z" fill="#0F0F0F"/>
<path fill-rule="evenodd" clip-rule="evenodd" d="M265 273.062C268.12 302.662 270.62 332.332 272.5 362.062C290.11 346.122 309.61 332.962 331 322.562C337.57 320.252 344.24 318.252 351 316.562C369.99 316.102 388.66 318.432 407 323.562C411.11 326.372 414.94 329.542 418.5 333.062C419 337.382 419.17 341.712 419 346.062C416.9 350.172 415.07 354.502 413.5 359.062C411.98 373.842 406.14 386.502 396 397.062C379.2 410.342 361.2 421.842 342 431.562C333.84 434.842 325.51 437.502 317 439.562C302.35 441.232 287.68 442.732 273 444.062C270.24 441.972 267.24 440.302 264 439.062C253.7 443.052 243.04 444.722 232 444.062C216.71 441.172 201.37 438.342 186 435.562C172.89 432.082 160.23 427.412 148 421.562C128.87 411.502 109.87 401.162 91.0003 390.562C83.1403 383.012 79.6403 373.852 80.5003 363.062C82.5403 360.852 84.7003 358.852 87.0003 357.062C95.3103 353.642 102.98 349.312 110 344.062C123.46 338.742 137.13 333.912 151 329.562C160.32 327.892 169.66 327.732 179 329.062C185.07 332.742 191.73 334.412 199 334.062C217.1 338.832 233.1 347.492 247 360.062C247.61 342.332 246.61 324.662 244 307.062C243.75 299.352 243.08 291.692 242 284.062C242.24 280.952 241.9 277.952 241 275.062C249.03 274.722 257.03 274.062 265 273.062Z" fill="#6FBA4C"/>
<path fill-rule="evenodd" clip-rule="evenodd" d="M359 337.061C364.68 336.891 370.34 337.061 376 337.561C364.17 343.401 352.83 350.061 342 357.561C322.33 373.891 302.67 390.231 283 406.561C283.47 388.581 290.8 372.911 305 359.561C321.93 349.201 339.93 341.701 359 337.061Z" fill="#8AC24A"/>
<path fill-rule="evenodd" clip-rule="evenodd" d="M145 339.061C155.2 338.491 165.2 339.661 175 342.561C194.47 349.621 212.47 359.291 229 371.561C235.14 376.841 239.8 383.181 243 390.561C242.67 391.061 242.33 391.561 242 392.061C229.88 384.521 216.88 379.021 203 375.561C183.39 371.161 164.06 365.821 145 359.561C134.38 357.851 123.71 356.521 113 355.561C122.21 347.121 132.88 341.621 145 339.061Z" fill="#8AC24A"/>
<path fill-rule="evenodd" clip-rule="evenodd" d="M401 346.061C403.42 345.751 405.76 346.091 408 347.061C404.42 355.221 399.59 362.551 393.5 369.061C380.33 379.561 367.17 390.061 354 400.561C344.24 405.771 334.24 410.441 324 414.561C315.46 416.881 306.8 417.881 298 417.561C316.15 401.991 334.48 386.661 353 371.561C360.67 367.391 368.01 362.731 375 357.561C383.81 353.801 392.48 349.971 401 346.061Z" fill="#8AC24A"/>
<path fill-rule="evenodd" clip-rule="evenodd" d="M105 375.061C117.26 374.271 129.59 375.101 142 377.561C166.67 384.561 191.33 391.561 216 398.561C228.34 405.401 241.01 411.571 254 417.061C254.87 420.101 255.87 423.101 257 426.061C246.68 427.231 236.35 427.391 226 426.561C200.93 422.691 176.93 415.361 154 404.561C142.98 398.051 131.65 392.051 120 386.561C114.97 382.721 109.97 378.881 105 375.061Z" fill="#8AC24A"/>
</svg>
