<svg width="500" height="500" viewBox="0 0 500 500" fill="none" xmlns="http://www.w3.org/2000/svg">
<path fill-rule="evenodd" clip-rule="evenodd" d="M408 292.061C406.45 291.121 404.78 290.451 403 290.061C401.99 275.011 400.49 260.011 398.5 245.061C396.84 225.741 396.68 206.401 398 187.061C397.69 177.011 396.85 167.011 395.5 157.061C386.87 166.681 376.37 173.511 364 177.561C343.88 184.301 323.55 190.301 303 195.561C290.42 198.041 277.75 199.871 265 201.061C245.94 200.351 226.94 198.851 208 196.561C191.29 192.441 175.95 185.441 162 175.561C159.5 173.061 157 170.561 154.5 168.061C155.38 180.181 155.88 192.341 156 204.561C150.81 246.001 153.65 286.841 164.5 327.061C168.47 343.021 177.64 354.851 192 362.561C216.24 376.941 242.24 381.271 270 375.561C307.64 372.241 345.3 369.071 383 366.061C379.57 369.291 375.57 371.791 371 373.561C352.23 376.171 333.57 378.341 315 380.061C314.33 380.061 313.67 380.061 313 380.061C296.05 381.561 279.05 382.391 262 382.561C257.85 382.631 254.52 384.301 252 387.561C242.61 388.411 233.28 388.081 224 386.561C211.16 383.281 198.83 378.611 187 372.561C178.74 363.901 170.57 355.071 162.5 346.061C156.87 332.341 152.37 318.341 149 304.061C151.18 301.711 153.18 299.211 155 296.561C153.08 293.471 150.41 291.311 147 290.061C146.9 272.311 145.9 254.641 144 237.061C145.54 205.541 145.21 174.041 143 142.561C143.6 138.181 144.93 134.021 147 130.061C152.82 124.071 158.49 117.901 164 111.561C176.87 102.961 189.2 93.6211 201 83.5611C216.22 75.5911 232.22 69.5911 249 65.5611C269.42 64.9011 289.75 65.9011 310 68.5611C310.83 69.4711 311.83 70.1411 313 70.5611C329.72 71.3211 345.39 75.6611 360 83.5611C376.51 93.7911 389.51 107.291 399 124.061C400.13 124.821 401.29 125.491 402.5 126.061C405.21 138.231 406.88 150.571 407.5 163.061C408.32 191.421 407.82 219.761 406 248.061C406.4 262.741 407.07 277.411 408 292.061Z" fill="#CFCFCF"/>
<path fill-rule="evenodd" clip-rule="evenodd" d="M251 76.0615C265.68 76.1215 280.35 76.6215 295 77.5615C309.53 81.1915 324.19 84.1915 339 86.5615C353.42 91.3515 366.25 98.8515 377.5 109.062C383 116.562 388.5 124.062 394 131.562C392.34 136.632 390.84 141.802 389.5 147.062C383.48 154.742 375.98 160.582 367 164.562C338.2 174.592 308.87 182.592 279 188.562C257.65 189.712 236.32 189.042 215 186.562C190.06 182.522 169.9 170.692 154.5 151.062C151.15 139.962 153.15 129.962 160.5 121.062C166.73 113.832 173.9 107.662 182 102.562C197.83 95.9515 213.5 88.9515 229 81.5615C236.46 79.7715 243.8 77.9315 251 76.0615Z" fill="#FEFEFE"/>
<path fill-rule="evenodd" clip-rule="evenodd" d="M403 290.062C401.02 290.042 400.02 291.042 400 293.062C401.62 296.632 402.96 300.302 404 304.062C404.37 314.452 403.87 324.782 402.5 335.062C399.27 342.532 395.77 349.862 392 357.062C389.36 360.372 386.36 363.372 383 366.062C345.3 369.072 307.64 372.242 270 375.562C242.24 381.272 216.24 376.942 192 362.562C177.64 354.852 168.47 343.022 164.5 327.062C153.65 286.842 150.81 246.002 156 204.562C155.88 192.342 155.38 180.182 154.5 168.062C157 170.562 159.5 173.062 162 175.562C175.95 185.442 191.29 192.442 208 196.562C226.94 198.852 245.94 200.352 265 201.062C277.75 199.872 290.42 198.042 303 195.562C323.55 190.302 343.88 184.302 364 177.562C376.37 173.512 386.87 166.682 395.5 157.062C396.85 167.012 397.69 177.012 398 187.062C396.68 206.402 396.84 225.742 398.5 245.062C400.49 260.012 401.99 275.012 403 290.062Z" fill="#FEFEFE"/>
<path fill-rule="evenodd" clip-rule="evenodd" d="M271 226.061C289.4 224.421 307.23 226.761 324.5 233.061C326.65 232.311 328.82 232.141 331 232.561C341.48 243.371 352.31 253.871 363.5 264.061C384.36 296.811 377.2 321.651 342 338.561C317.66 344.121 293 346.951 268 347.061C249.91 345.311 232.58 340.811 216 333.561C206.91 326.471 200.07 317.631 195.5 307.061C194.64 281.611 203.14 259.781 221 241.561C229.37 236.211 238.37 232.211 248 229.561C255.78 228.141 263.44 226.971 271 226.061Z" fill="#CFCFCF"/>
<path fill-rule="evenodd" clip-rule="evenodd" d="M355 273.061C350.48 270.061 345.82 267.221 341 264.561C333.67 262.561 326.34 260.561 319 258.561C305.47 257.431 296.97 263.601 293.5 277.061C291.92 286.541 293.25 295.541 297.5 304.061C319.71 318.141 334.71 312.471 342.5 287.061C342.68 283.681 343.18 280.341 344 277.061C348.42 280.421 353.42 282.081 359 282.061C361.74 283.861 363.24 286.531 363.5 290.061C365.53 299.121 363.53 307.121 357.5 314.061C352.12 320.991 345.29 325.831 337 328.561C313.76 333.531 290.26 336.031 266.5 336.061C249.52 333.781 233.36 328.941 218 321.561C213.35 316.251 209.52 310.411 206.5 304.061C205.54 297.881 206.04 291.881 208 286.061C211.58 283.821 214.92 281.151 218 278.061C218.02 282.941 218.19 287.941 218.5 293.061C223.55 309.501 234.38 315.341 251 310.561C259 306.101 264.83 299.601 268.5 291.061C269.27 286.971 268.93 282.971 267.5 279.061C264.73 275.521 263.07 271.521 262.5 267.061C261.33 265.231 259.83 263.731 258 262.561C243.91 256.071 230.25 256.901 217 265.061C222.11 254.151 230.78 246.651 243 242.561C261.66 237.391 280.66 235.721 300 237.561C310.38 239.751 320.38 243.091 330 247.561C338.39 256.291 347.06 264.621 356 272.561C355.77 272.961 355.44 273.131 355 273.061Z" fill="#FCFCFC"/>
<path fill-rule="evenodd" clip-rule="evenodd" d="M208 286.062C202.43 286.812 200.6 284.472 202.5 279.062C205.91 272.822 210.74 268.152 217 265.062C230.25 256.902 243.91 256.072 258 262.562C259.83 263.732 261.33 265.232 262.5 267.062C263.07 271.522 264.73 275.522 267.5 279.062C268.93 282.972 269.27 286.972 268.5 291.062C264.83 299.602 259 306.102 251 310.562C234.38 315.342 223.55 309.502 218.5 293.062C218.19 287.942 218.02 282.942 218 278.062C214.92 281.152 211.58 283.822 208 286.062Z" fill="#040404"/>
<path fill-rule="evenodd" clip-rule="evenodd" d="M355 273.062C356.85 274.252 358.69 275.582 360.5 277.062C361.11 279.062 360.61 280.722 359 282.062C353.42 282.082 348.42 280.422 344 277.062C343.18 280.342 342.68 283.682 342.5 287.062C334.71 312.472 319.71 318.142 297.5 304.062C293.25 295.542 291.92 286.542 293.5 277.062C296.97 263.602 305.47 257.432 319 258.562C326.34 260.562 333.67 262.562 341 264.562C345.82 267.222 350.48 270.062 355 273.062Z" fill="#040404"/>
<path fill-rule="evenodd" clip-rule="evenodd" d="M308 265.061C313.58 264.331 316.58 266.661 317 272.061C316.61 275.411 316.11 278.741 315.5 282.061C307.12 287.621 301.95 285.461 300 275.561C300.04 273.591 300.54 271.761 301.5 270.061C304.19 268.981 306.35 267.311 308 265.061Z" fill="#F5F5F5"/>
<path fill-rule="evenodd" clip-rule="evenodd" d="M248 268.061C254.69 266.911 258.35 269.741 259 276.561C257.71 282.681 254.21 286.841 248.5 289.061C240.32 284.661 238.99 278.661 244.5 271.061C245.65 269.921 246.81 268.921 248 268.061Z" fill="#F5F5F5"/>
<path fill-rule="evenodd" clip-rule="evenodd" d="M147 290.062C150.41 291.312 153.08 293.472 155 296.562C153.18 299.212 151.18 301.712 149 304.062C143.11 311.172 138.78 319.172 136 328.062C132.82 325.972 129.49 325.642 126 327.062C126.53 324.322 127.36 321.662 128.5 319.062C132.71 311.962 136.38 304.632 139.5 297.062C141.47 294.162 143.97 291.822 147 290.062Z" fill="#080709"/>
<path fill-rule="evenodd" clip-rule="evenodd" d="M403 290.062C404.78 290.452 406.45 291.122 408 292.062C410.66 295.372 412.83 299.042 414.5 303.062C421.2 320.192 425.87 337.862 428.5 356.062C433.66 360.972 435.33 366.972 433.5 374.062C425.79 378.362 422.12 376.032 422.5 367.062C422.08 365.892 421.41 364.892 420.5 364.062C417.84 368.392 414.5 369.062 410.5 366.062C409.83 364.732 409.83 363.392 410.5 362.062C412.47 359.602 414.31 357.102 416 354.562C414.57 344.592 412.57 334.752 410 325.062C408.45 317.842 406.45 310.842 404 304.062C402.96 300.302 401.62 296.632 400 293.062C400.02 291.042 401.02 290.042 403 290.062Z" fill="#060608"/>
<path fill-rule="evenodd" clip-rule="evenodd" d="M294 314.06C297.36 313.43 299.36 314.77 300 318.06C297.93 322.63 294.93 326.47 291 329.56C288.67 330.23 286.33 330.23 284 329.56C280.17 327.56 276.34 325.73 272.5 324.06C271.24 318.48 273.41 316.65 279 318.56C282.24 321.14 285.74 321.97 289.5 321.06C291.01 318.7 292.51 316.37 294 314.06Z" fill="#0B0B0B"/>
<path fill-rule="evenodd" clip-rule="evenodd" d="M126 327.061C129.49 325.641 132.82 325.971 136 328.061C138.56 329.831 140.89 331.831 143 334.061C138.66 333.411 134.83 334.411 131.5 337.061C128.94 335.611 126.44 335.271 124 336.061C122.15 335.781 120.82 336.451 120 338.061C121.99 342.191 124.49 345.861 127.5 349.061C129.48 348.661 130.98 347.661 132 346.061C137.19 345.601 141.86 343.941 146 341.061C143.51 348.681 138.68 354.351 131.5 358.061C131.96 360.091 132.8 362.091 134 364.061C133.4 366.421 132.4 368.581 131 370.561C126.05 373.851 121.38 377.511 117 381.561C110.12 386.531 102.45 388.861 94 388.561C78.65 376.151 68.98 360.481 65 341.561C68.13 334.941 72.79 329.771 79 326.061C80.07 326.811 80.24 327.811 79.5 329.061C78.06 330.431 76.39 331.431 74.5 332.061C74.01 333.691 73.84 335.361 74 337.061C69.53 341.491 70.2 344.991 76 347.561C81.73 348.661 87.06 347.661 92 344.561C97.58 339.481 102.58 333.981 107 328.061C106.91 326.131 105.91 324.971 104 324.561C100.95 323.931 97.95 324.091 95 325.061C93.03 323.741 91.03 323.741 89 325.061C88.07 324.201 87.41 323.201 87 322.061C93.43 319.461 100.1 318.631 107 319.561C111.29 321.291 113.79 324.461 114.5 329.061C115.19 329.921 116.02 330.581 117 331.061C119.66 328.951 122.66 327.621 126 327.061Z" fill="#F24437"/>
<path fill-rule="evenodd" clip-rule="evenodd" d="M86.9997 322.062C87.4097 323.202 88.0697 324.202 88.9997 325.062C91.0297 323.742 93.0297 323.742 94.9997 325.062C96.7897 327.792 97.2897 330.792 96.4997 334.062C94.3497 336.002 91.8497 336.502 88.9997 335.562C88.3097 334.492 87.8097 333.332 87.4997 332.062C86.1497 335.592 84.6497 339.092 82.9997 342.562C81.6697 343.232 80.3297 343.232 78.9997 342.562C77.1997 340.752 75.5297 338.912 73.9997 337.062C73.8397 335.362 74.0097 333.692 74.4997 332.062C76.3897 331.432 78.0597 330.432 79.4997 329.062C80.2397 327.812 80.0697 326.812 78.9997 326.062C77.7097 324.532 77.7097 322.862 78.9997 321.062C79.7897 320.632 80.6297 320.302 81.4997 320.062C83.2997 320.882 85.1297 321.552 86.9997 322.062Z" fill="#FBF9F7"/>
<path fill-rule="evenodd" clip-rule="evenodd" d="M74.0003 337.061C75.5303 338.911 77.2003 340.751 79.0003 342.561C80.3303 343.231 81.6703 343.231 83.0003 342.561C84.6503 339.091 86.1503 335.591 87.5003 332.061C87.8103 333.331 88.3103 334.491 89.0003 335.561C91.8503 336.501 94.3503 336.001 96.5003 334.061C97.2903 330.791 96.7903 327.791 95.0003 325.061C97.9503 324.091 100.95 323.931 104 324.561C105.91 324.971 106.91 326.131 107 328.061C102.58 333.981 97.5803 339.481 92.0003 344.561C87.0603 347.661 81.7303 348.661 76.0003 347.561C70.2003 344.991 69.5303 341.491 74.0003 337.061Z" fill="#905D15"/>
<path fill-rule="evenodd" clip-rule="evenodd" d="M143 334.06C145.33 335.74 146.33 338.07 146 341.06C141.86 343.94 137.19 345.6 132 346.06C130.36 346.27 128.86 345.94 127.5 345.06C126.86 341.8 125.7 338.8 124 336.06C126.44 335.27 128.94 335.61 131.5 337.06C134.83 334.41 138.66 333.41 143 334.06Z" fill="#0D0403"/>
<path fill-rule="evenodd" clip-rule="evenodd" d="M404 304.062C406.45 310.842 408.45 317.842 410 325.062C407.14 337.452 401.14 348.112 392 357.062C395.77 349.862 399.27 342.532 402.5 335.062C403.87 324.782 404.37 314.452 404 304.062Z" fill="#BEC2D3"/>
<path fill-rule="evenodd" clip-rule="evenodd" d="M313 380.061C313.67 380.061 314.33 380.061 315 380.061C317.49 379.891 319.33 380.891 320.5 383.061C323.2 394.921 324.7 406.921 325 419.061C328.02 418.901 331.02 419.061 334 419.561C339.52 421.761 340.52 425.431 337 430.561C332.33 431.231 327.67 431.231 323 430.561C318.56 430.431 315.73 428.261 314.5 424.061C313.75 411.521 312.59 399.021 311 386.561C311.16 384.111 311.82 381.941 313 380.061Z" fill="#050607"/>
<path fill-rule="evenodd" clip-rule="evenodd" d="M264 383.062C267.14 383.362 269.31 385.032 270.5 388.062C271.45 401.412 272.12 414.752 272.5 428.062C268.73 432.992 263.73 434.992 257.5 434.062C253.91 434.092 250.41 433.592 247 432.562C244.19 429.272 244.52 426.272 248 423.562C253.37 422.882 258.7 423.052 264 424.062C262.75 411.042 261.58 398.042 260.5 385.062C261.8 384.482 262.97 383.812 264 383.062Z" fill="#050507"/>
</svg>
