<svg width="500" height="500" viewBox="0 0 500 500" fill="none" xmlns="http://www.w3.org/2000/svg">
<path fill-rule="evenodd" clip-rule="evenodd" d="M172 127.061C166.63 122.922 161.46 123.255 156.5 128.061C156.02 129.009 155.85 130.009 156 131.061C143.83 133.41 131.49 134.41 119 134.061C110.29 134.104 101.63 133.604 93.0002 132.561C85.6702 128.737 83.1702 122.904 85.5002 115.061C88.0902 112.018 91.2602 109.851 95.0002 108.561C110.64 104.951 126.14 105.451 141.5 110.061C143.95 109.068 146.45 108.901 149 109.561C150.62 111.641 152.12 113.807 153.5 116.061C165.38 100.862 180.21 89.3623 198 81.5614C201.6 80.2849 205.26 79.9515 209 80.5614C211.37 82.3046 212.7 84.638 213 87.5614C208.93 101.335 200.93 112.335 189 120.561C183.23 122.581 177.57 124.747 172 127.061Z" fill="#BEF1EE"/>
<path fill-rule="evenodd" clip-rule="evenodd" d="M172 127.061C174.49 142.052 177.16 157.052 180 172.061C178.7 173.703 177.36 175.37 176 177.061C173.33 179.728 170.67 179.728 168 177.061C168 176.394 167.67 176.061 167 176.061C166 173.389 165 170.723 164 168.061C163.27 162.476 161.94 157.143 160 152.061C159.59 144.85 158.26 137.85 156 131.061C155.85 130.009 156.02 129.009 156.5 128.061C161.46 123.255 166.63 122.922 172 127.061Z" fill="#050405"/>
<path fill-rule="evenodd" clip-rule="evenodd" d="M382 307.062C381.83 309.423 381.49 311.756 381 314.062C372.81 317.634 364.47 321.134 356 324.562C344.56 330.949 332.89 336.782 321 342.062C326.6 335.368 326.1 329.034 319.5 323.062C319.45 317.448 318.29 312.115 316 307.062C327.92 294.815 332.75 280.149 330.5 263.062C328.46 255.206 325.96 247.539 323 240.062C325.06 239.346 327.22 238.679 329.5 238.062C330.17 236.062 330.17 234.062 329.5 232.062C324.69 230.923 319.86 229.923 315 229.062C301.9 217.008 286.57 208.841 269 204.562C260.3 203.225 251.64 202.059 243 201.062C235.38 188.596 226.38 177.096 216 166.562C211.36 164.027 207.53 164.861 204.5 169.062C202.48 167.865 200.65 166.532 199 165.062C210.41 161.126 222.07 157.959 234 155.562C240.43 155.084 246.77 155.75 253 157.562C278.85 166.759 302.85 179.426 325 195.562C332.5 204.395 340.67 212.562 349.5 220.062C355.36 226.938 360.02 234.605 363.5 243.062C370.66 261.375 376.66 280.042 381.5 299.062C382 301.708 382.16 304.375 382 307.062Z" fill="#4158DE"/>
<path fill-rule="evenodd" clip-rule="evenodd" d="M160 152.062C161.94 157.144 163.27 162.477 164 168.062C161.75 163.081 160.42 157.748 160 152.062Z" fill="#852F94"/>
<path fill-rule="evenodd" clip-rule="evenodd" d="M199 165.062C200.65 166.532 202.48 167.865 204.5 169.062C207.53 164.861 211.36 164.027 216 166.562C226.38 177.096 235.38 188.596 243 201.062C229.59 202.261 217.59 207.094 207 215.562C202.05 221.352 196.38 226.185 190 230.062C183.27 211.262 173.94 193.929 162 178.062C163.43 177.025 165.1 176.358 167 176.062C167.67 176.062 168 176.395 168 177.062C168.59 181.824 171.09 183.158 175.5 181.062C175.99 179.769 176.16 178.435 176 177.062C177.36 175.371 178.7 173.704 180 172.062C182.57 173.037 185.23 173.704 188 174.062C187.6 171.518 188.27 169.351 190 167.562C192.93 166.417 195.93 165.584 199 165.062Z" fill="#4DAE51"/>
<path fill-rule="evenodd" clip-rule="evenodd" d="M162 178.062C173.94 193.929 183.27 211.262 190 230.062C181.48 240.443 174.31 251.776 168.5 264.062C164.61 274.965 164.11 285.965 167 297.062C166.24 299.518 165.57 302.018 165 304.562C165.69 307.102 166.52 309.602 167.5 312.062C169.62 313.167 171.79 313.167 174 312.062C184.98 328.691 200.32 339.024 220 343.062C220.24 355.121 219.57 367.121 218 379.062C218.72 383.114 221.05 385.447 225 386.062C220.82 389.017 216.15 391.017 211 392.062C198.08 394.032 186.08 398.366 175 405.062C171.23 406.117 167.56 407.45 164 409.062C158.18 409.98 152.85 411.98 148 415.062C146.1 415.358 144.43 416.025 143 417.062C135.33 417.228 127.66 417.062 120 416.562C118.55 415.46 117.22 414.293 116 413.062C112.51 407.263 112.18 401.263 115 395.062C113.79 331.501 119.29 268.501 131.5 206.062C132.37 200.296 135.2 195.962 140 193.062C143.75 190.318 146.75 186.985 149 183.062C153.03 180.825 157.37 179.158 162 178.062Z" fill="#F34336"/>
<path fill-rule="evenodd" clip-rule="evenodd" d="M168 177.062C170.67 179.729 173.33 179.729 176 177.062C176.16 178.435 175.99 179.769 175.5 181.062C171.09 183.158 168.59 181.824 168 177.062Z" fill="#8E339F"/>
<path fill-rule="evenodd" clip-rule="evenodd" d="M126 191.062C130.87 191.252 135.54 191.918 140 193.062C135.2 195.962 132.37 200.296 131.5 206.062C119.29 268.501 113.79 331.501 115 395.062C112.18 401.263 112.51 407.263 116 413.062C115.25 414.093 114.58 415.26 114 416.562C104 417.229 94 417.229 84 416.562C77.03 412.983 69.7 410.317 62 408.562C59.4 407.679 57.23 406.179 55.5 404.062C55.43 381.527 54.6 359.027 53 336.562C55.72 311.735 60.22 287.235 66.5 263.062C72.68 252.712 78.34 242.046 83.5 231.062C90.22 222.002 96.56 212.669 102.5 203.062C108.92 196.27 116.75 192.27 126 191.062Z" fill="#FEC008"/>
<path fill-rule="evenodd" clip-rule="evenodd" d="M243 201.062C251.64 202.059 260.3 203.225 269 204.562C286.57 208.841 301.9 217.008 315 229.062C300.05 227.724 285.38 229.224 271 233.562C268.4 234.445 266.23 235.945 264.5 238.062C255.12 256.763 258.29 273.263 274 287.562C277.38 289.522 281.05 290.355 285 290.062C292.45 289.354 299.79 288.021 307 286.062C309.47 281.126 311.97 276.126 314.5 271.062C315.17 263.062 315.17 255.062 314.5 247.062C313.45 244.8 312.29 242.633 311 240.562C311.33 240.062 311.67 239.562 312 239.062C315.59 239.988 319.26 240.321 323 240.062C325.96 247.539 328.46 255.206 330.5 263.062C332.75 280.149 327.92 294.815 316 307.062C306.67 318.193 295.01 326.026 281 330.562C263 346.313 242.67 350.48 220 343.062C200.32 339.024 184.98 328.691 174 312.062C176.78 307.259 179.28 302.259 181.5 297.062C182.57 301.93 184.23 306.596 186.5 311.062C189.37 313.599 191.87 316.432 194 319.562C212.89 329.931 227.06 325.431 236.5 306.062C242.86 291.215 239.36 279.549 226 271.062C224.37 266.937 221.37 264.437 217 263.562C206.09 262.791 196.09 265.457 187 271.562C178.11 278.581 171.45 287.081 167 297.062C164.11 285.965 164.61 274.965 168.5 264.062C174.31 251.776 181.48 240.443 190 230.062C196.38 226.185 202.05 221.352 207 215.562C217.59 207.094 229.59 202.261 243 201.062Z" fill="#FCFCFC"/>
<path fill-rule="evenodd" clip-rule="evenodd" d="M315 229.062C319.86 229.923 324.69 230.923 329.5 232.062C330.17 234.062 330.17 236.062 329.5 238.062C327.22 238.679 325.06 239.346 323 240.062C319.26 240.321 315.59 239.988 312 239.062C311.67 239.562 311.33 240.062 311 240.562C312.29 242.633 313.45 244.8 314.5 247.062C315.17 255.062 315.17 263.062 314.5 271.062C311.97 276.126 309.47 281.126 307 286.062C299.79 288.021 292.45 289.354 285 290.062C281.05 290.355 277.38 289.522 274 287.562C258.29 273.263 255.12 256.763 264.5 238.062C266.23 235.945 268.4 234.445 271 233.562C285.38 229.224 300.05 227.724 315 229.062Z" fill="#040404"/>
<path fill-rule="evenodd" clip-rule="evenodd" d="M272 241.062C275.93 240.609 279.09 241.942 281.5 245.062C282.7 248.792 283.53 252.625 284 256.562C282.95 261.939 279.62 264.773 274 265.062C271.14 263.155 268.31 261.155 265.5 259.062C264.08 256.532 263.75 253.865 264.5 251.062C266.91 247.616 269.41 244.282 272 241.062Z" fill="#F3F3F3"/>
<path fill-rule="evenodd" clip-rule="evenodd" d="M174 312.061C171.79 313.166 169.62 313.166 167.5 312.061C166.52 309.601 165.69 307.101 165 304.561C165.57 302.017 166.24 299.517 167 297.061C171.45 287.08 178.11 278.58 187 271.561C196.09 265.456 206.09 262.79 217 263.561C221.37 264.436 224.37 266.936 226 271.061C239.36 279.548 242.86 291.214 236.5 306.061C227.06 325.43 212.89 329.93 194 319.561C191.87 316.431 189.37 313.598 186.5 311.061C184.23 306.595 182.57 301.929 181.5 297.061C179.28 302.258 176.78 307.258 174 312.061Z" fill="#040404"/>
<path fill-rule="evenodd" clip-rule="evenodd" d="M211 271.062C217 270.815 221.17 273.482 223.5 279.062C224.39 284.978 222.89 290.145 219 294.562C207.2 294.73 202.7 288.897 205.5 277.062C206.86 274.539 208.69 272.539 211 271.062Z" fill="#F5F5F5"/>
<path fill-rule="evenodd" clip-rule="evenodd" d="M278.999 299.062C282.979 298.868 284.979 300.701 284.999 304.562C284.189 309.617 282.689 314.45 280.499 319.062C279.749 319.688 278.919 320.188 277.999 320.562C271.329 321.229 264.669 321.229 257.999 320.562C256.669 318.229 256.669 315.895 257.999 313.562C263.469 312.47 268.969 311.636 274.499 311.062C274.789 306.505 276.289 302.505 278.999 299.062Z" fill="#0D0D0D"/>
<path fill-rule="evenodd" clip-rule="evenodd" d="M376 396.061C354.92 400.145 333.92 403.812 313 407.061C293.18 407.345 273.51 409.179 254 412.561C238.35 413.516 222.68 414.183 207 414.561C197.12 416.325 187.28 418.159 177.5 420.061C166.03 418.706 154.53 417.706 143 417.061C144.43 416.024 146.1 415.357 148 415.061C153.63 413.632 158.96 411.632 164 409.061C167.56 407.449 171.23 406.116 175 405.061C187.36 401.499 199.36 397.166 211 392.061C216.15 391.016 220.82 389.016 225 386.061C234.49 381.95 244.16 378.116 254 374.561C265.51 368.638 277.18 362.971 289 357.561C290.91 356.361 292.24 354.694 293 352.561C302.49 349.359 311.83 345.859 321 342.061C332.89 336.781 344.56 330.948 356 324.561C364.47 321.133 372.81 317.633 381 314.061C389.03 312.274 397.03 310.274 405 308.061C421.19 303.515 434.36 307.848 444.5 321.061C450.05 334.143 448.72 346.476 440.5 358.061C436.92 362.214 433.59 366.547 430.5 371.061C422.98 378.919 414.15 384.753 404 388.561C394.65 391.065 385.31 393.565 376 396.061Z" fill="#9C28B0"/>
<path fill-rule="evenodd" clip-rule="evenodd" d="M316 307.062C318.29 312.115 319.45 317.448 319.5 323.062C326.1 329.034 326.6 335.368 321 342.062C311.83 345.86 302.49 349.36 293 352.562C292.24 354.695 290.91 356.362 289 357.562C277.18 362.972 265.51 368.639 254 374.562C244.16 378.117 234.49 381.951 225 386.062C221.05 385.447 218.72 383.114 218 379.062C219.57 367.121 220.24 355.121 220 343.062C242.67 350.48 263 346.313 281 330.562C295.01 326.026 306.67 318.193 316 307.062Z" fill="#4EAE51"/>
<path fill-rule="evenodd" clip-rule="evenodd" d="M78.0002 383.062C78.7302 384.44 79.4002 385.94 80.0002 387.562C79.0502 388.045 78.0502 388.211 77.0002 388.062C76.8702 386.27 77.2002 384.604 78.0002 383.062Z" fill="#A8A090"/>
<path fill-rule="evenodd" clip-rule="evenodd" d="M211 392.062C199.36 397.167 187.36 401.5 175 405.062C186.08 398.366 198.08 394.032 211 392.062Z" fill="#A59296"/>
<path fill-rule="evenodd" clip-rule="evenodd" d="M164 409.062C158.96 411.633 153.63 413.633 148 415.062C152.85 411.98 158.18 409.98 164 409.062Z" fill="#AF818C"/>
</svg>
