<svg width="500" height="500" viewBox="0 0 500 500" fill="none" xmlns="http://www.w3.org/2000/svg">
<path fill-rule="evenodd" clip-rule="evenodd" d="M255.999 104.062C256.669 104.062 256.999 104.392 256.999 105.062C260.349 110.732 260.849 116.732 258.499 123.062C257.069 127.092 255.229 130.922 252.999 134.562C250.009 135.412 248.679 134.242 248.999 131.062C250.619 125.772 251.789 120.432 252.499 115.062C250.119 118.852 248.119 122.852 246.499 127.062C244.309 129.102 241.809 130.432 238.999 131.062C240.269 125.562 241.769 120.222 243.499 115.062C240.489 117.412 237.489 119.742 234.499 122.062C232.429 121.492 231.259 120.162 230.999 118.062C237.419 109.972 245.749 105.312 255.999 104.062Z" fill="#3C2104"/>
<path fill-rule="evenodd" clip-rule="evenodd" d="M154.999 105.062C157.689 104.902 160.349 105.062 162.999 105.562C170.219 107.662 176.219 111.492 180.999 117.062C181.079 118.812 180.249 119.812 178.499 120.062C173.679 117.242 168.839 114.412 163.999 111.562C161.969 110.882 159.969 110.552 157.999 110.562C161.529 114.092 165.029 117.592 168.499 121.062C169.169 122.732 169.169 124.392 168.499 126.062C167.939 126.582 167.269 126.922 166.499 127.062C162.509 124.412 159.179 121.072 156.499 117.062C156.329 117.392 156.169 117.732 155.999 118.062C157.929 122.502 160.099 126.832 162.499 131.062C162.989 132.352 163.159 133.692 162.999 135.062C160.849 135.192 158.849 134.692 156.999 133.562C155.799 131.542 154.469 129.712 152.999 128.062C151.099 121.882 150.099 115.552 149.999 109.062C151.439 107.502 153.109 106.162 154.999 105.062Z" fill="#3E2204"/>
<path fill-rule="evenodd" clip-rule="evenodd" d="M255.999 104.061C245.749 105.311 237.419 109.971 230.999 118.061C226.229 120.981 221.569 124.151 216.999 127.561C214.449 130.601 212.119 133.771 209.999 137.061C207.709 138.181 205.539 139.521 203.499 141.061C199.459 138.621 195.289 136.621 190.999 135.061C193.749 135.371 196.409 135.041 198.999 134.061C194.249 126.971 188.249 121.301 180.999 117.061C176.219 111.491 170.219 107.661 162.999 105.561C160.349 105.061 157.689 104.901 154.999 105.061C156.589 103.331 158.589 102.161 160.999 101.561C179.899 99.8014 195.229 106.301 206.999 121.061C214.379 111.181 223.709 103.681 234.999 98.5614C243.459 95.3214 250.459 97.1514 255.999 104.061Z" fill="#A25E13"/>
<path fill-rule="evenodd" clip-rule="evenodd" d="M235.999 101.062C239.879 100.642 243.539 101.142 246.999 102.562C230.499 110.242 216.499 121.072 204.999 135.062C202.249 130.142 198.919 125.642 194.999 121.562C189.669 117.562 184.329 113.562 178.999 109.562C175.779 107.922 172.449 106.592 168.999 105.562C172.669 104.892 176.329 104.892 179.999 105.562C188.489 109.802 195.829 115.462 201.999 122.562C205.669 123.232 209.329 123.232 212.999 122.562C216.329 117.892 219.669 113.232 222.999 108.562C227.429 106.022 231.759 103.522 235.999 101.062Z" fill="#F78E16"/>
<path fill-rule="evenodd" clip-rule="evenodd" d="M180.999 117.062C188.249 121.302 194.249 126.972 198.999 134.062C196.409 135.042 193.749 135.372 190.999 135.062C180.889 134.082 173.559 138.082 168.999 147.062C161.119 144.682 155.619 139.682 152.499 132.062C151.739 130.492 151.899 129.162 152.999 128.062C154.469 129.712 155.799 131.542 156.999 133.562C158.849 134.692 160.849 135.192 162.999 135.062C163.159 133.692 162.989 132.352 162.499 131.062C160.099 126.832 157.929 122.502 155.999 118.062C156.169 117.732 156.329 117.392 156.499 117.062C159.179 121.072 162.509 124.412 166.499 127.062C167.269 126.922 167.939 126.582 168.499 126.062C169.169 124.392 169.169 122.732 168.499 121.062C165.029 117.592 161.529 114.092 157.999 110.562C159.969 110.552 161.969 110.882 163.999 111.562C168.839 114.412 173.679 117.242 178.499 120.062C180.249 119.812 181.079 118.812 180.999 117.062Z" fill="#F78615"/>
<path fill-rule="evenodd" clip-rule="evenodd" d="M248.999 131.062C248.459 133.602 247.129 135.772 244.999 137.562C242.039 139.522 239.369 141.852 236.999 144.562C236.049 145.042 235.049 145.212 233.999 145.062C229.669 140.892 224.669 137.732 218.999 135.562C215.819 134.962 212.819 135.462 209.999 137.062C212.119 133.772 214.449 130.602 216.999 127.562C221.569 124.152 226.229 120.982 230.999 118.062C231.259 120.162 232.429 121.492 234.499 122.062C237.489 119.742 240.489 117.412 243.499 115.062C241.769 120.222 240.269 125.562 238.999 131.062C241.809 130.432 244.309 129.102 246.499 127.062C248.119 122.852 250.119 118.852 252.499 115.062C251.789 120.432 250.619 125.772 248.999 131.062Z" fill="#F98717"/>
<path fill-rule="evenodd" clip-rule="evenodd" d="M137.999 140.062C135.769 143.452 132.769 145.952 128.999 147.562C127.059 148.992 125.729 150.832 124.999 153.062C122.999 153.732 120.999 154.392 118.999 155.062C119.169 156.382 118.839 157.552 117.999 158.562C110.189 160.872 103.519 165.032 97.9988 171.062C100.059 167.492 102.719 164.332 105.999 161.562C100.219 161.482 94.7188 160.312 89.4988 158.062C89.0088 156.432 88.8388 154.762 88.9988 153.062C95.0188 153.322 101.019 153.492 106.999 153.562C103.389 152.422 100.049 150.752 96.9988 148.562C94.7688 146.942 93.4388 144.772 92.9988 142.062C92.9288 140.292 93.7688 139.292 95.4988 139.062C101.079 142.102 106.579 144.932 111.999 147.562C107.709 142.822 105.869 137.322 106.499 131.062C109.759 130.012 112.419 131.012 114.499 134.062C117.279 138.512 120.449 142.682 123.999 146.562C124.999 147.232 125.999 147.232 126.999 146.562C130.389 143.872 134.059 141.702 137.999 140.062Z" fill="#43413F"/>
<path fill-rule="evenodd" clip-rule="evenodd" d="M149.999 109.062C150.099 115.552 151.099 121.882 152.999 128.062C151.899 129.162 151.739 130.492 152.499 132.062C155.619 139.682 161.119 144.682 168.999 147.062C168.609 148.842 167.939 150.512 166.999 152.062C166.669 152.062 166.329 152.062 165.999 152.062C160.109 148.512 154.769 144.172 149.999 139.062C140.809 142.482 132.469 147.152 124.999 153.062C125.729 150.832 127.059 148.992 128.999 147.562C132.769 145.952 135.769 143.452 137.999 140.062C140.589 137.942 143.589 136.602 146.999 136.062C148.879 135.482 149.879 134.152 149.999 132.062C147.409 126.022 146.409 119.692 146.999 113.062C148.009 111.692 149.009 110.362 149.999 109.062Z" fill="#925113"/>
<path fill-rule="evenodd" clip-rule="evenodd" d="M256.999 105.062C259.249 105.482 260.749 106.812 261.499 109.062C262.979 117.982 261.809 126.482 257.999 134.562C258.139 135.332 258.479 136.002 258.999 136.562C260.629 137.052 262.299 137.222 263.999 137.062C270.249 140.252 276.579 143.252 282.999 146.062C273.539 143.212 263.879 141.542 253.999 141.062C253.999 139.732 253.999 138.392 253.999 137.062C252.949 136.912 251.949 137.082 250.999 137.562C247.519 141.132 243.859 144.462 239.999 147.562C239.049 148.042 238.049 148.212 236.999 148.062C237.329 151.392 237.669 154.732 237.999 158.062C243.429 157.722 248.759 158.222 253.999 159.562C255.309 162.162 255.309 164.662 253.999 167.062C253.359 163.572 251.359 161.072 247.999 159.562C243.949 158.872 239.949 159.032 235.999 160.062C236.479 154.832 235.819 149.832 233.999 145.062C235.049 145.212 236.049 145.042 236.999 144.562C239.369 141.852 242.039 139.522 244.999 137.562C247.129 135.772 248.459 133.602 248.999 131.062C248.679 134.242 250.009 135.412 252.999 134.562C255.229 130.922 257.069 127.092 258.499 123.062C260.849 116.732 260.349 110.732 256.999 105.062Z" fill="#9F5711"/>
<path fill-rule="evenodd" clip-rule="evenodd" d="M282.999 146.062C284.329 146.392 285.669 146.732 286.999 147.062C287.919 149.332 288.759 151.662 289.499 154.062C291.399 155.582 293.559 156.242 295.999 156.062C294.469 159.122 294.809 161.952 296.999 164.562C294.419 167.082 294.419 169.582 296.999 172.062C292.609 174.882 291.949 178.382 294.999 182.562C297.049 182.882 299.049 182.552 300.999 181.562C303.869 179.482 306.199 176.982 307.999 174.062C310.089 175.332 312.249 176.332 314.499 177.062C315.869 176.722 317.029 176.052 317.999 175.062C322.319 179.552 326.489 184.222 330.499 189.062C330.559 190.942 330.059 192.772 328.999 194.562C330.429 199.462 329.259 203.632 325.499 207.062C326.259 209.982 325.599 212.312 323.499 214.062C322.279 221.522 324.939 223.522 331.499 220.062C335.049 222.132 338.709 222.132 342.499 220.062C344.389 222.802 346.889 224.472 349.999 225.062C351.529 232.302 352.199 239.632 351.999 247.062C344.269 244.122 340.929 246.792 341.999 255.062C339.309 254.902 336.649 255.062 333.999 255.562C331.459 258.442 328.619 260.942 325.499 263.062C325.009 264.692 324.839 266.362 324.999 268.062C328.309 268.502 331.309 267.832 333.999 266.062C334.129 269.992 335.799 272.992 338.999 275.062C337.709 277.932 337.709 280.762 338.999 283.562C342.099 284.492 344.429 283.492 345.999 280.562C346.949 280.082 347.949 279.912 348.999 280.062C349.169 284.412 348.999 288.742 348.499 293.062C346.779 307.232 344.279 321.072 340.999 334.562C342.489 336.442 344.489 337.442 346.999 337.562C345.519 340.152 345.849 342.492 347.999 344.562C350.329 344.892 352.669 345.232 354.999 345.562C353.249 349.502 354.579 351.842 358.999 352.562C359.629 356.752 361.799 357.922 365.499 356.062C366.149 354.322 365.979 352.662 364.999 351.062C367.509 348.692 367.509 346.362 364.999 344.062C367.999 342.212 370.839 340.212 373.499 338.062C377.679 339.902 380.179 343.072 380.999 347.562C384.199 347.802 386.859 346.632 388.999 344.062C389.209 348.112 391.209 349.612 394.999 348.562C396.819 345.172 395.819 343.172 391.999 342.562C394.559 341.502 396.229 339.662 396.999 337.062C396.719 334.782 395.389 333.612 392.999 333.562C396.919 331.142 398.919 327.642 398.999 323.062C400.649 321.912 402.149 320.582 403.499 319.062C404.209 319.942 405.039 320.612 405.999 321.062C407.809 321.072 409.479 320.572 410.999 319.562C414.909 315.812 419.249 312.652 423.999 310.062C425.019 310.562 425.189 311.232 424.499 312.062C419.909 317.132 416.409 322.792 413.999 329.062C415.699 329.222 417.369 329.052 418.999 328.562C423.659 324.732 427.999 320.562 431.999 316.062C432.329 316.392 432.669 316.732 432.999 317.062C430.669 322.382 427.839 327.382 424.499 332.062C423.999 334.032 423.839 336.032 423.999 338.062C426.909 337.982 429.569 337.152 431.999 335.562C435.139 331.782 437.639 327.612 439.499 323.062C440.149 329.282 438.649 334.952 434.999 340.062C436.889 342.412 437.219 345.082 435.999 348.062C436.999 348.062 437.999 348.062 438.999 348.062C433.239 356.812 425.239 362.472 414.999 365.062C399.129 367.892 383.129 368.722 366.999 367.562C355.379 365.412 344.379 361.582 333.999 356.062C315.159 362.822 297.499 372.322 280.999 384.562C276.359 387.052 271.699 389.222 266.999 391.062C264.349 390.972 262.009 391.642 259.999 393.062C252.739 394.552 245.409 395.722 237.999 396.562C223.439 396.662 208.939 397.502 194.499 399.062C184.949 398.662 175.449 397.832 165.999 396.562C154.169 393.522 142.499 390.022 130.999 386.062C130.009 386.232 129.339 385.902 128.999 385.062C122.539 381.292 115.869 377.792 108.999 374.562C102.219 368.012 94.8891 362.172 86.9991 357.062C84.4391 352.282 81.6091 347.622 78.4991 343.062C74.7791 330.292 69.4491 318.292 62.4991 307.062C61.5191 304.822 61.0191 302.492 60.9991 300.062C62.3191 300.232 63.4891 299.902 64.4991 299.062C66.3591 292.922 67.6891 286.582 68.4991 280.062C68.7691 282.912 69.5991 285.582 70.9991 288.062C72.5491 289.012 74.2091 289.352 75.9991 289.062C75.4591 285.912 76.4591 283.412 78.9991 281.562C80.4491 282.732 82.1091 283.902 83.9991 285.062C85.5291 285.032 86.6991 284.362 87.4991 283.062C88.1591 278.992 87.8191 274.992 86.4991 271.062C84.5091 268.722 82.0091 267.392 78.9991 267.062C78.8791 263.412 77.2091 260.582 73.9991 258.562C72.9991 257.892 71.9991 257.892 70.9991 258.562C69.7091 259.972 68.5491 261.472 67.4991 263.062C66.5591 259.572 65.2191 256.232 63.4991 253.062C61.7091 251.332 59.5391 250.662 56.9991 251.062C55.9391 243.612 57.5991 236.942 61.9991 231.062C64.5391 233.662 67.0391 233.662 69.4991 231.062C70.8891 232.792 72.5591 234.122 74.4991 235.062C77.1091 233.212 79.2691 230.882 80.9991 228.062C86.8391 234.042 88.9991 232.702 87.4991 224.062C85.0491 222.682 84.5491 220.852 85.9991 218.562C84.9291 216.852 83.5991 215.352 81.9991 214.062C85.4591 208.992 85.4591 203.832 81.9991 198.562C84.7291 193.322 88.0691 188.492 91.9991 184.062C93.3691 185.272 94.8691 186.272 96.4991 187.062C98.7691 185.852 100.599 184.192 101.999 182.062C103.109 183.172 104.439 183.842 105.999 184.062C108.459 183.002 110.789 181.662 112.999 180.062C116.069 186.152 119.569 186.492 123.499 181.062C124.219 179.452 124.049 177.952 122.999 176.562C120.599 176.192 118.269 176.192 115.999 176.562C118.499 174.742 120.169 172.412 120.999 169.562C120.449 168.012 119.779 166.512 118.999 165.062C120.999 161.042 122.999 157.042 124.999 153.062C132.469 147.152 140.809 142.482 149.999 139.062C154.769 144.172 160.109 148.512 165.999 152.062C165.999 154.392 165.999 156.732 165.999 159.062C156.999 156.052 149.499 158.052 143.499 165.062C143.119 166.762 143.279 168.422 143.999 170.062C145.669 175.402 149.339 177.402 154.999 176.062C155.369 183.942 159.369 189.112 166.999 191.562C178.679 192.912 190.009 191.752 200.999 188.062C205.739 189.932 210.399 192.092 214.999 194.562C220.799 195.782 226.139 194.782 230.999 191.562C235.699 187.192 239.199 182.032 241.499 176.062C247.489 175.572 251.659 172.572 253.999 167.062C255.309 164.662 255.309 162.162 253.999 159.562C248.759 158.222 243.429 157.722 237.999 158.062C237.669 154.732 237.329 151.392 236.999 148.062C238.049 148.212 239.049 148.042 239.999 147.562C243.859 144.462 247.519 141.132 250.999 137.562C251.949 137.082 252.949 136.912 253.999 137.062C253.999 138.392 253.999 139.732 253.999 141.062C263.879 141.542 273.539 143.212 282.999 146.062Z" fill="#FC8414"/>
<path fill-rule="evenodd" clip-rule="evenodd" d="M232.999 162.062C227.589 170.422 220.259 172.752 210.999 169.062C210.669 169.062 210.329 169.062 209.999 169.062C208.159 166.972 205.829 165.642 202.999 165.062C202.439 157.872 203.279 150.872 205.499 144.062C217.009 138.152 226.349 140.492 233.499 151.062C234.179 154.782 234.009 158.452 232.999 162.062Z" fill="#FAFAFA"/>
<path fill-rule="evenodd" clip-rule="evenodd" d="M190.999 135.062C195.289 136.622 199.459 138.622 203.499 141.062C205.539 139.522 207.709 138.182 209.999 137.062C212.819 135.462 215.819 134.962 218.999 135.562C224.669 137.732 229.669 140.892 233.999 145.062C235.819 149.832 236.479 154.832 235.999 160.062C234.999 160.732 233.999 161.392 232.999 162.062C234.009 158.452 234.179 154.782 233.499 151.062C226.349 140.492 217.009 138.152 205.499 144.062C203.279 150.872 202.439 157.872 202.999 165.062C200.669 165.062 198.329 165.062 195.999 165.062C197.789 158.242 199.449 151.242 200.999 144.062C198.799 139.642 195.129 137.972 189.999 139.062C175.189 140.052 168.359 148.052 169.499 163.062C172.109 166.782 175.609 169.112 179.999 170.062C185.259 168.972 190.259 167.312 194.999 165.062C192.899 167.142 192.559 169.482 193.999 172.062C192.469 171.992 191.469 172.652 190.999 174.062C186.349 174.562 181.679 174.892 176.999 175.062C174.039 170.772 170.709 166.772 166.999 163.062C166.999 159.392 166.999 155.732 166.999 152.062C167.939 150.512 168.609 148.842 168.999 147.062C173.559 138.082 180.889 134.082 190.999 135.062Z" fill="#8E8985"/>
<path fill-rule="evenodd" clip-rule="evenodd" d="M195.999 165.061C195.669 165.061 195.329 165.061 194.999 165.061C190.259 167.311 185.259 168.971 179.999 170.061C175.609 169.111 172.109 166.781 169.499 163.061C168.359 148.051 175.189 140.051 189.999 139.061C195.129 137.971 198.799 139.641 200.999 144.061C199.449 151.241 197.789 158.241 195.999 165.061Z" fill="#FAFAFA"/>
<path fill-rule="evenodd" clip-rule="evenodd" d="M326.999 179.062C324.629 176.192 321.629 174.352 317.999 173.562C312.639 167.862 306.969 162.532 300.999 157.562C299.479 156.552 297.809 156.052 295.999 156.062C293.559 156.242 291.399 155.582 289.499 154.062C288.759 151.662 287.919 149.332 286.999 147.062C287.929 145.992 288.269 144.662 287.999 143.062C288.519 139.342 289.349 135.672 290.499 132.062C292.649 126.902 296.489 124.732 301.999 125.562C302.559 126.282 302.889 127.122 302.999 128.062C300.759 131.812 297.929 135.142 294.499 138.062C293.829 139.392 293.829 140.732 294.499 142.062C298.999 135.392 305.169 132.392 312.999 133.062C312.889 135.342 312.059 137.342 310.499 139.062C306.579 141.772 302.739 144.602 298.999 147.562C306.109 145.632 313.439 144.802 320.999 145.062C321.239 147.032 320.909 148.862 319.999 150.562C315.059 152.382 310.059 154.052 304.999 155.562C311.779 161.332 318.279 167.502 324.499 174.062C325.589 175.642 326.429 177.302 326.999 179.062Z" fill="#403832"/>
<path fill-rule="evenodd" clip-rule="evenodd" d="M179.999 155.062C187.299 156.982 187.799 159.982 181.499 164.062C177.469 161.722 176.969 158.722 179.999 155.062Z" fill="#171717"/>
<path fill-rule="evenodd" clip-rule="evenodd" d="M216.999 156.062C222.989 156.222 224.319 158.722 220.999 163.562C214.899 163.712 213.569 161.212 216.999 156.062Z" fill="#0D0D0D"/>
<path fill-rule="evenodd" clip-rule="evenodd" d="M165.999 152.062C166.329 152.062 166.669 152.062 166.999 152.062C166.999 155.732 166.999 159.392 166.999 163.062C166.999 164.062 166.999 165.062 166.999 166.062C164.899 165.152 162.899 163.982 160.999 162.562C154.549 160.512 150.219 162.672 147.999 169.062C148.689 170.082 149.359 171.082 149.999 172.062C147.639 172.312 145.639 171.642 143.999 170.062C143.279 168.422 143.119 166.762 143.499 165.062C149.499 158.052 156.999 156.052 165.999 159.062C165.999 156.732 165.999 154.392 165.999 152.062Z" fill="#948021"/>
<path fill-rule="evenodd" clip-rule="evenodd" d="M166.999 166.062C168.179 169.362 170.179 172.202 172.999 174.562C174.289 175.052 175.629 175.222 176.999 175.062C181.679 174.892 186.349 174.562 190.999 174.062C197.359 179.132 203.689 179.132 209.999 174.062C218.399 176.292 226.069 174.952 232.999 170.062C234.009 167.232 235.679 164.732 237.999 162.562C241.999 161.892 245.999 161.892 249.999 162.562C250.239 165.122 249.239 167.462 246.999 169.562C243.839 169.572 241.009 170.402 238.499 172.062C236.239 179.312 232.069 185.152 225.999 189.562C222.329 190.232 218.669 190.232 214.999 189.562C210.169 186.402 204.999 183.902 199.499 182.062C190.119 187.592 179.949 189.422 168.999 187.562C160.219 184.732 157.219 178.892 159.999 170.062C156.619 170.522 153.289 171.192 149.999 172.062C149.359 171.082 148.689 170.082 147.999 169.062C150.219 162.672 154.549 160.512 160.999 162.562C162.899 163.982 164.899 165.152 166.999 166.062Z" fill="#FAE63E"/>
<path fill-rule="evenodd" clip-rule="evenodd" d="M194.999 165.062C195.329 165.062 195.669 165.062 195.999 165.062C198.329 165.062 200.669 165.062 202.999 165.062C205.829 165.642 208.159 166.972 209.999 169.062C208.999 169.062 207.999 169.062 206.999 169.062C206.999 170.392 206.999 171.732 206.999 173.062C202.439 175.892 198.109 175.552 193.999 172.062C192.559 169.482 192.899 167.142 194.999 165.062Z" fill="#A37490"/>
<path fill-rule="evenodd" clip-rule="evenodd" d="M232.999 162.062C232.999 163.732 232.999 165.392 232.999 167.062C227.119 173.472 220.119 175.132 211.999 172.062C211.109 171.242 210.779 170.242 210.999 169.062C220.259 172.752 227.589 170.422 232.999 162.062Z" fill="#868481"/>
<path fill-rule="evenodd" clip-rule="evenodd" d="M232.999 167.062C232.999 168.062 232.999 169.062 232.999 170.062C226.069 174.952 218.399 176.292 209.999 174.062C209.289 173.162 208.289 172.822 206.999 173.062C206.999 171.732 206.999 170.392 206.999 169.062C207.999 169.062 208.999 169.062 209.999 169.062C210.329 169.062 210.669 169.062 210.999 169.062C210.779 170.242 211.109 171.242 211.999 172.062C220.119 175.132 227.119 173.472 232.999 167.062Z" fill="#553E1B"/>
<path fill-rule="evenodd" clip-rule="evenodd" d="M166.999 163.062C170.709 166.772 174.039 170.772 176.999 175.062C175.629 175.222 174.289 175.052 172.999 174.562C170.179 172.202 168.179 169.362 166.999 166.062C166.999 165.062 166.999 164.062 166.999 163.062Z" fill="#5C3B12"/>
<path fill-rule="evenodd" clip-rule="evenodd" d="M253.999 167.061C251.659 172.571 247.489 175.571 241.499 176.061C239.199 182.031 235.699 187.191 230.999 191.561C226.139 194.781 220.799 195.781 214.999 194.561C210.399 192.091 205.739 189.931 200.999 188.061C190.009 191.751 178.679 192.911 166.999 191.561C159.369 189.111 155.369 183.941 154.999 176.061C149.339 177.401 145.669 175.401 143.999 170.061C145.639 171.641 147.639 172.311 149.999 172.061C153.289 171.191 156.619 170.521 159.999 170.061C157.219 178.891 160.219 184.731 168.999 187.561C179.949 189.421 190.119 187.591 199.499 182.061C204.999 183.901 210.169 186.401 214.999 189.561C218.669 190.231 222.329 190.231 225.999 189.561C232.069 185.151 236.239 179.311 238.499 172.061C241.009 170.401 243.839 169.571 246.999 169.561C249.239 167.461 250.239 165.121 249.999 162.561C245.999 161.891 241.999 161.891 237.999 162.561C235.679 164.731 234.009 167.231 232.999 170.061C232.999 169.061 232.999 168.061 232.999 167.061C232.999 165.391 232.999 163.731 232.999 162.061C233.999 161.391 234.999 160.731 235.999 160.061C239.949 159.031 243.949 158.871 247.999 159.561C251.359 161.071 253.359 163.571 253.999 167.061Z" fill="#95610F"/>
<path fill-rule="evenodd" clip-rule="evenodd" d="M193.999 172.062C198.109 175.552 202.439 175.892 206.999 173.062C208.289 172.822 209.289 173.162 209.999 174.062C203.689 179.132 197.359 179.132 190.999 174.062C191.469 172.652 192.469 171.992 193.999 172.062Z" fill="#8F7E26"/>
<path fill-rule="evenodd" clip-rule="evenodd" d="M124.999 153.062C122.999 157.042 120.999 161.042 118.999 165.062C119.779 166.512 120.449 168.012 120.999 169.562C120.169 172.412 118.499 174.742 115.999 176.562C118.269 176.192 120.599 176.192 122.999 176.562C124.049 177.952 124.219 179.452 123.499 181.062C119.569 186.492 116.069 186.152 112.999 180.062C110.789 181.662 108.459 183.002 105.999 184.062C104.439 183.842 103.109 183.172 101.999 182.062C100.599 184.192 98.7688 185.852 96.4988 187.062C94.8688 186.272 93.3688 185.272 91.9988 184.062C88.0688 188.492 84.7288 193.322 81.9988 198.562C85.4588 203.832 85.4588 208.992 81.9988 214.062C83.5988 215.352 84.9288 216.852 85.9988 218.562C84.5488 220.852 85.0488 222.682 87.4988 224.062C88.9988 232.702 86.8388 234.042 80.9988 228.062C79.2688 230.882 77.1088 233.212 74.4988 235.062C72.5588 234.122 70.8888 232.792 69.4988 231.062C67.0388 233.662 64.5388 233.662 61.9988 231.062C57.5988 236.942 55.9388 243.612 56.9988 251.062C59.5388 250.662 61.7088 251.332 63.4988 253.062C65.2188 256.232 66.5588 259.572 67.4988 263.062C68.5488 261.472 69.7088 259.972 70.9988 258.562C71.9988 257.892 72.9988 257.892 73.9988 258.562C77.2088 260.582 78.8788 263.412 78.9988 267.062C82.0088 267.392 84.5088 268.722 86.4988 271.062C87.8188 274.992 88.1588 278.992 87.4988 283.062C86.6988 284.362 85.5288 285.032 83.9988 285.062C82.1088 283.902 80.4488 282.732 78.9988 281.562C76.4588 283.412 75.4588 285.912 75.9988 289.062C74.2088 289.352 72.5488 289.012 70.9988 288.062C69.5988 285.582 68.7688 282.912 68.4988 280.062C67.6888 286.582 66.3588 292.922 64.4988 299.062C63.4888 299.902 62.3188 300.232 60.9988 300.062C61.0188 302.492 61.5188 304.822 62.4988 307.062C69.4488 318.292 74.7788 330.292 78.4988 343.062C81.6088 347.622 84.4388 352.282 86.9988 357.062C83.6688 354.562 80.8288 351.562 78.4988 348.062C75.2788 342.412 72.4488 336.752 69.9988 331.062C67.3188 325.702 64.6488 320.362 61.9988 315.062C60.1588 301.982 57.9888 288.982 55.4988 276.062C54.0288 263.732 53.8588 251.402 54.9988 239.062C60.7488 227.902 66.7488 216.902 72.9988 206.062C72.8288 205.072 73.1588 204.402 73.9988 204.062C78.9088 197.242 83.5788 190.242 87.9988 183.062C90.2088 178.182 93.5388 174.182 97.9988 171.062C103.519 165.032 110.189 160.872 117.999 158.562C118.839 157.552 119.169 156.382 118.999 155.062C120.999 154.392 122.999 153.732 124.999 153.062Z" fill="#86470D"/>
<path fill-rule="evenodd" clip-rule="evenodd" d="M340.999 195.062C346.509 201.752 350.179 209.422 351.999 218.062C351.999 220.062 351.999 222.062 351.999 224.062C350.819 224.282 349.819 223.952 348.999 223.062C346.029 211.452 340.699 201.122 332.999 192.062C333.329 191.732 333.669 191.392 333.999 191.062C336.229 192.672 338.559 194.002 340.999 195.062Z" fill="#54351B"/>
<path fill-rule="evenodd" clip-rule="evenodd" d="M186.999 214.062C222.469 211.102 255.809 217.932 286.999 234.562C318.889 259.392 325.049 289.562 305.499 325.062C292.119 338.442 276.289 347.602 257.999 352.562C244.729 355.762 231.389 358.762 217.999 361.562C190.829 364.512 164.499 361.182 138.999 351.562C123.599 343.492 111.429 331.992 102.499 317.062C98.6094 306.712 97.2694 296.042 98.4994 285.062C100.749 276.462 103.749 268.132 107.499 260.062C110.999 255.232 115.169 251.062 119.999 247.562C134.599 237.292 149.929 228.292 165.999 220.562C173.019 218.052 180.019 215.892 186.999 214.062Z" fill="#FDFCFB"/>
<path fill-rule="evenodd" clip-rule="evenodd" d="M243.999 249.061C249.009 248.891 254.009 249.061 258.999 249.561C268.729 252.081 278.399 254.741 287.999 257.561C295.749 262.521 303.579 267.351 311.499 272.061C312.909 276.111 311.579 278.441 307.499 279.061C300.489 279.221 294.489 276.891 289.499 272.061C289.389 275.741 289.389 279.401 289.499 283.061C286.529 293.331 282.029 302.831 275.999 311.561C272.049 313.841 268.389 316.511 264.999 319.561C254.509 320.101 244.509 318.101 234.999 313.561C229.379 309.511 225.879 304.011 224.499 297.061C220.939 282.971 223.269 269.971 231.499 258.061C235.859 255.151 240.019 252.151 243.999 249.061Z" fill="#050505"/>
<path fill-rule="evenodd" clip-rule="evenodd" d="M144.999 252.061C156.039 251.101 166.709 252.601 176.999 256.561C181.679 259.421 184.179 263.591 184.499 269.061C192.249 277.711 193.919 287.371 189.499 298.061C185.159 307.271 178.659 314.441 169.999 319.561C146.679 326.921 131.849 318.761 125.499 295.061C125.039 289.361 125.039 283.691 125.499 278.061C121.989 281.901 118.159 285.401 113.999 288.561C111.209 290.221 108.379 290.391 105.499 289.061C104.829 285.391 104.829 281.731 105.499 278.061C112.279 267.961 121.439 260.801 132.999 256.561C137.069 254.931 141.069 253.431 144.999 252.061Z" fill="#040404"/>
<path fill-rule="evenodd" clip-rule="evenodd" d="M243.999 258.061C250.419 257.821 254.089 260.821 254.999 267.061C253.839 271.671 252.839 276.331 251.999 281.061C247.789 284.221 243.119 284.881 237.999 283.061C237.089 280.641 235.589 278.641 233.499 277.061C231.299 272.821 231.629 268.821 234.499 265.061C237.999 263.071 241.169 260.741 243.999 258.061Z" fill="#F7F7F7"/>
<path fill-rule="evenodd" clip-rule="evenodd" d="M165.999 263.062C177.229 264.842 180.729 271.172 176.499 282.062C171.669 292.022 165.339 293.352 157.499 286.062C156.159 283.722 155.329 281.222 154.999 278.562C156.349 271.662 160.019 266.492 165.999 263.062Z" fill="#F5F5F5"/>
<path fill-rule="evenodd" clip-rule="evenodd" d="M433 304.062C433.33 304.062 433.67 304.062 434 304.062C436 306.732 438.33 309.062 441 311.062C443.34 317.242 444.67 323.742 445 330.562C444.85 334.502 444.18 338.332 443 342.062C442.16 344.412 440.83 346.412 439 348.062C438 348.062 437 348.062 436 348.062C437.22 345.082 436.89 342.412 435 340.062C438.65 334.952 440.15 329.282 439.5 323.062C437.64 327.612 435.14 331.782 432 335.562C429.57 337.152 426.91 337.982 424 338.062C423.84 336.032 424 334.032 424.5 332.062C427.84 327.382 430.67 322.382 433 317.062C432.67 316.732 432.33 316.392 432 316.062C428 320.562 423.66 324.732 419 328.562C417.37 329.052 415.7 329.222 414 329.062C416.41 322.792 419.91 317.132 424.5 312.062C425.19 311.232 425.02 310.562 424 310.062C419.25 312.652 414.91 315.812 411 319.562C409.48 320.572 407.81 321.072 406 321.062C405.84 319.032 406 317.032 406.5 315.062C410.57 311.482 414.73 308.152 419 305.062C423.46 303.282 428.13 302.952 433 304.062Z" fill="#3E1F05"/>
<path fill-rule="evenodd" clip-rule="evenodd" d="M225.999 323.062C230.149 322.292 232.819 323.792 233.999 327.562C231.499 334.212 227.499 339.882 221.999 344.562C218.569 345.262 215.239 344.932 211.999 343.562C207.019 341.152 202.179 338.652 197.499 336.062C196.159 331.232 197.999 328.902 202.999 329.062C207.109 329.452 210.779 330.952 213.999 333.562C215.669 334.232 217.329 334.232 218.999 333.562C221.219 329.952 223.549 326.452 225.999 323.062Z" fill="#0C0C0C"/>
<path fill-rule="evenodd" clip-rule="evenodd" d="M295.999 156.062C297.809 156.052 299.479 156.552 300.999 157.562C306.969 162.532 312.639 167.862 317.999 173.562C321.629 174.352 324.629 176.192 326.999 179.062C332.129 183.982 336.789 189.312 340.999 195.062C338.559 194.002 336.229 192.672 333.999 191.062C333.669 191.392 333.329 191.732 332.999 192.062C340.699 201.122 346.029 211.452 348.999 223.062C349.819 223.952 350.819 224.282 351.999 224.062C351.999 222.062 351.999 220.062 351.999 218.062C354.089 219.902 355.419 222.232 355.999 225.062C356.939 236.712 357.099 248.382 356.499 260.062C353.859 275.992 352.029 291.992 350.999 308.062C349.039 315.942 347.709 323.942 346.999 332.062C347.109 332.682 347.439 333.182 347.999 333.562C357.219 335.792 366.549 336.462 375.999 335.562C381.909 334.112 386.579 330.952 389.999 326.062C391.739 322.812 394.079 319.982 396.999 317.562C401.009 313.902 405.339 310.732 409.999 308.062C412.909 306.772 415.909 305.772 418.999 305.062C414.729 308.152 410.569 311.482 406.499 315.062C405.999 317.032 405.839 319.032 405.999 321.062C405.039 320.612 404.209 319.942 403.499 319.062C402.149 320.582 400.649 321.912 398.999 323.062C398.919 327.642 396.919 331.142 392.999 333.562C395.389 333.612 396.719 334.782 396.999 337.062C396.229 339.662 394.559 341.502 391.999 342.562C395.819 343.172 396.819 345.172 394.999 348.562C391.209 349.612 389.209 348.112 388.999 344.062C386.859 346.632 384.199 347.802 380.999 347.562C380.179 343.072 377.679 339.902 373.499 338.062C370.839 340.212 367.999 342.212 364.999 344.062C367.509 346.362 367.509 348.692 364.999 351.062C365.979 352.662 366.149 354.322 365.499 356.062C361.799 357.922 359.629 356.752 358.999 352.562C354.579 351.842 353.249 349.502 354.999 345.562C352.669 345.232 350.329 344.892 347.999 344.562C345.849 342.492 345.519 340.152 346.999 337.562C344.489 337.442 342.489 336.442 340.999 334.562C344.279 321.072 346.779 307.232 348.499 293.062C348.999 288.742 349.169 284.412 348.999 280.062C347.949 279.912 346.949 280.082 345.999 280.562C344.429 283.492 342.099 284.492 338.999 283.562C337.709 280.762 337.709 277.932 338.999 275.062C335.799 272.992 334.129 269.992 333.999 266.062C331.309 267.832 328.309 268.502 324.999 268.062C324.839 266.362 325.009 264.692 325.499 263.062C328.619 260.942 331.459 258.442 333.999 255.562C336.649 255.062 339.309 254.902 341.999 255.062C340.929 246.792 344.269 244.122 351.999 247.062C352.199 239.632 351.529 232.302 349.999 225.062C346.889 224.472 344.389 222.802 342.499 220.062C338.709 222.132 335.049 222.132 331.499 220.062C324.939 223.522 322.279 221.522 323.499 214.062C325.599 212.312 326.259 209.982 325.499 207.062C329.259 203.632 330.429 199.462 328.999 194.562C330.059 192.772 330.559 190.942 330.499 189.062C326.489 184.222 322.319 179.552 317.999 175.062C317.029 176.052 315.869 176.722 314.499 177.062C312.249 176.332 310.089 175.332 307.999 174.062C306.199 176.982 303.869 179.482 300.999 181.562C299.049 182.552 297.049 182.882 294.999 182.562C291.949 178.382 292.609 174.882 296.999 172.062C294.419 169.582 294.419 167.082 296.999 164.562C294.809 161.952 294.469 159.122 295.999 156.062Z" fill="#8D490B"/>
<path fill-rule="evenodd" clip-rule="evenodd" d="M414.999 365.062C414.439 366.352 413.439 367.182 411.999 367.562C407.309 368.382 402.979 369.882 398.999 372.062C397.999 372.062 396.999 372.062 395.999 372.062C373.359 372.832 352.029 368.172 331.999 358.062C328.569 361.312 324.899 364.482 320.999 367.562C318.789 368.602 316.449 369.272 313.999 369.562C313.329 370.562 312.669 371.562 311.999 372.562C303.899 378.102 295.229 382.602 285.999 386.062C279.749 387.922 273.419 389.582 266.999 391.062C271.699 389.222 276.359 387.052 280.999 384.562C297.499 372.322 315.159 362.822 333.999 356.062C344.379 361.582 355.379 365.412 366.999 367.562C383.129 368.722 399.129 367.892 414.999 365.062Z" fill="#924F10"/>
<path fill-rule="evenodd" clip-rule="evenodd" d="M86.999 357.062C94.889 362.172 102.219 368.012 108.999 374.562C115.869 377.792 122.539 381.292 128.999 385.062C125.359 384.232 121.699 383.572 117.999 383.062C113.649 380.902 109.649 378.062 105.999 374.562C104.709 374.072 103.369 373.902 101.999 374.062C98.399 372.132 95.399 369.462 92.999 366.062C90.999 363.062 88.999 360.062 86.999 357.062Z" fill="#8A4F19"/>
<path fill-rule="evenodd" clip-rule="evenodd" d="M130.999 386.062C142.499 390.022 154.169 393.522 165.999 396.562C175.449 397.832 184.949 398.662 194.499 399.062C208.939 397.502 223.439 396.662 237.999 396.562C245.409 395.722 252.739 394.552 259.999 393.062C257.219 394.492 254.219 395.662 250.999 396.562C238.199 398.442 225.529 400.272 212.999 402.062C203.689 402.882 194.359 403.212 184.999 403.062C182.039 402.402 179.039 402.072 175.999 402.062C164.469 398.502 152.799 395.002 140.999 391.562C137.679 389.432 134.349 387.602 130.999 386.062Z" fill="#8C4C12"/>
</svg>
