<svg width="500" height="500" viewBox="0 0 500 500" fill="none" xmlns="http://www.w3.org/2000/svg">
<path fill-rule="evenodd" clip-rule="evenodd" d="M344 99.0618C329.838 100.392 325.838 107.392 332 120.062C324.102 115.822 315.769 112.652 307 110.562C298.971 109.202 291.305 110.202 284 113.562C279.833 117.732 275.667 121.892 271.5 126.062C266.317 134.502 261.817 143.162 258 152.062C255.717 148.602 253.217 145.272 250.5 142.062C241.333 134.232 232.833 125.732 225 116.562C220 112.232 215 107.892 210 103.562C201.822 98.2018 193.822 92.7018 186 87.0618C201.762 82.6918 217.096 76.8618 232 69.5618C242.93 66.9818 253.597 63.6418 264 59.5618C285.933 54.4818 306.266 58.1518 325 70.5618C332.708 79.1418 339.041 88.6418 344 99.0618Z" fill="#9EBFFE"/>
<path fill-rule="evenodd" clip-rule="evenodd" d="M186 87.0615C193.822 92.7015 201.822 98.2015 210 103.562C215 107.892 220 112.232 225 116.562C232.833 125.732 241.333 134.232 250.5 142.062C253.217 145.272 255.717 148.602 258 152.062C259.461 160.562 256.461 166.732 249 170.562C247.707 171.052 246.373 171.222 245 171.062C236.417 168.752 229.417 163.922 224 156.562C204.462 145.372 186.629 131.872 170.5 116.062C167.563 112.192 165.729 107.852 165 103.062C167.963 92.4315 174.963 87.1015 186 87.0615Z" fill="#FEFEFE"/>
<path fill-rule="evenodd" clip-rule="evenodd" d="M344.001 99.0615C347.069 99.5815 350.069 100.422 353.001 101.562C355.501 105.392 358.668 108.562 362.501 111.062C363.592 121.552 358.925 127.552 348.501 129.062C344.236 128.352 340.069 127.182 336.001 125.562C334.524 123.752 333.191 121.912 332.001 120.062C325.839 107.392 329.839 100.392 344.001 99.0615Z" fill="#FCFCFD"/>
<path fill-rule="evenodd" clip-rule="evenodd" d="M165 103.062C165.729 107.852 167.563 112.192 170.5 116.062C186.629 131.872 204.462 145.372 224 156.562C229.417 163.922 236.417 168.752 245 171.062C237.736 212.352 250.07 246.522 282 273.562C292 281.562 302 289.562 312 297.562C329.178 310.622 348.511 315.952 370 313.562C386.459 311.802 402.459 308.142 418 302.562C422.487 301.182 425.987 302.352 428.5 306.062C429.167 311.062 429.167 316.062 428.5 321.062C416.244 354.422 396.078 381.922 368 403.562C343.055 420.202 316.055 432.202 287 439.562C274.754 441.822 262.42 442.482 250 441.562C216.168 433.652 183.501 422.312 152 407.562C135.31 398.462 120.81 386.622 108.5 372.062C98.5156 356.422 89.8485 340.092 82.4996 323.062C73.1002 294.802 69.1002 265.802 70.4996 236.062C74.0452 218.882 78.3785 201.882 83.4996 185.062C91.4183 172.222 99.0846 159.222 106.5 146.062C112.312 139.922 118.478 134.082 125 128.562C137.681 119.052 151.015 110.552 165 103.062Z" fill="#FEFA91"/>
<path fill-rule="evenodd" clip-rule="evenodd" d="M325 187.061C327.403 186.951 329.236 187.951 330.5 190.061C332.597 196.221 333.43 202.551 333 209.061C337.346 208.891 341.679 209.061 346 209.561C350.232 211.001 350.899 213.331 348 216.561C344.054 217.871 340.388 219.701 337 222.061C336.708 227.001 336.542 232.001 336.5 237.061C336 237.561 335.5 238.061 335 238.561C332.256 238.541 329.589 237.871 327 236.561C324.484 233.881 321.817 231.381 319 229.061C313.872 231.691 308.872 234.531 304 237.561C299.167 238.061 297 235.891 297.5 231.061C300.015 227.221 302.515 223.381 305 219.561C301.832 215.721 298.332 212.221 294.5 209.061C294.054 206.151 294.721 203.481 296.5 201.061C298.564 199.971 300.731 199.801 303 200.561C306.757 202.521 310.59 204.351 314.5 206.061C316.964 199.131 320.464 192.801 325 187.061Z" fill="#FAE73D"/>
<path fill-rule="evenodd" clip-rule="evenodd" d="M236.001 239.062C229.914 237.192 223.914 235.022 218.001 232.562C210.466 232.022 202.966 231.192 195.501 230.062C181.228 231.512 174.061 239.512 174.001 254.062C173.954 263.432 176.954 271.592 183.001 278.562C185.458 280.122 188.125 281.122 191.001 281.562C197.001 282.232 203.001 282.232 209.001 281.562C210.931 278.512 213.431 276.012 216.501 274.062C221.562 264.122 223.228 253.782 221.501 243.062C226.318 245.832 231.485 246.662 237.001 245.562C237.838 244.552 238.171 243.382 238.001 242.062C247.345 267.852 241.678 290.022 221.001 308.562C213.164 313.312 205.497 318.312 198.001 323.562C182.369 332.032 165.702 335.032 148.001 332.562C138.225 329.142 128.559 325.472 119.001 321.562C106.476 313.702 97.642 302.872 92.501 289.062C92.0027 285.742 91.836 282.412 92.001 279.062C95.9938 276.062 99.327 272.402 102.001 268.062C102.09 277.062 105.09 284.892 111.001 291.562C124.324 300.182 136.157 298.352 146.501 286.062C150.6 279.222 152.267 271.892 151.501 264.062C148.571 259.862 145.904 255.532 143.501 251.062C141.54 248.422 139.04 246.592 136.001 245.562C125.336 243.642 115.336 245.312 106.001 250.562C102.459 252.832 99.126 255.332 96.001 258.062C95.4295 242.162 100.763 228.662 112.001 217.562C118.641 211.572 125.974 206.572 134.001 202.562C151.607 195.702 169.607 194.372 188.001 198.562C204.732 205.172 218.898 215.342 230.501 229.062C232.563 232.282 234.397 235.622 236.001 239.062Z" fill="#FDFDFC"/>
<path fill-rule="evenodd" clip-rule="evenodd" d="M236 239.062C237.406 239.532 238.073 240.532 238 242.062C238.17 243.382 237.837 244.552 237 245.562C231.484 246.662 226.317 245.832 221.5 243.062C223.227 253.782 221.561 264.122 216.5 274.062C213.43 276.012 210.93 278.512 209 281.562C203 282.232 197 282.232 191 281.562C188.124 281.122 185.457 280.122 183 278.562C176.953 271.592 173.953 263.432 174 254.062C174.06 239.512 181.227 231.512 195.5 230.062C202.965 231.192 210.465 232.022 218 232.562C223.913 235.022 229.913 237.192 236 239.062Z" fill="#050505"/>
<path fill-rule="evenodd" clip-rule="evenodd" d="M187.001 238.061C190.994 237.801 193.827 239.471 195.501 243.061C196.168 246.731 196.168 250.391 195.501 254.061C192.899 257.771 189.399 258.941 185.001 257.561C183.307 255.621 181.474 253.791 179.501 252.061C178.776 249.181 179.276 246.521 181.001 244.061C183.355 242.371 185.355 240.371 187.001 238.061Z" fill="#F3F3F3"/>
<path fill-rule="evenodd" clip-rule="evenodd" d="M92 279.061C90.6779 279.231 89.5113 278.901 88.5 278.061C87.796 276.281 87.296 274.451 87 272.561C88.8592 267.011 91.8592 262.171 96 258.061C99.125 255.331 102.458 252.831 106 250.561C115.335 245.311 125.335 243.641 136 245.561C139.039 246.591 141.539 248.421 143.5 251.061C145.903 255.531 148.57 259.861 151.5 264.061C152.266 271.891 150.599 279.221 146.5 286.061C136.156 298.351 124.323 300.181 111 291.561C105.089 284.891 102.089 277.061 102 268.061C99.326 272.401 95.9928 276.061 92 279.061Z" fill="#040404"/>
<path fill-rule="evenodd" clip-rule="evenodd" d="M129.999 252.061C136.292 251.671 139.959 254.671 140.999 261.061C140.831 267.311 137.831 271.311 131.999 273.061C124.114 270.211 121.947 264.881 125.499 257.061C126.692 255.061 128.192 253.401 129.999 252.061Z" fill="#F4F4F4"/>
<path fill-rule="evenodd" clip-rule="evenodd" d="M182 288.062C185.071 287.482 187.071 288.652 188 291.562C186.706 296.482 184.373 300.822 181 304.562C179.771 305.342 178.438 305.842 177 306.062C171.592 304.872 166.425 303.202 161.5 301.062C160.789 299.192 161.289 297.692 163 296.562C167.788 296.082 172.455 296.412 177 297.562C178.77 294.392 180.437 291.222 182 288.062Z" fill="#0D0D0D"/>
</svg>
