<svg width="500" height="500" viewBox="0 0 500 500" fill="none" xmlns="http://www.w3.org/2000/svg">
<path fill-rule="evenodd" clip-rule="evenodd" d="M322 88.0617C303.652 80.5517 284.985 73.7217 266 67.5617C256.05 66.2317 246.05 65.7317 236 66.0617C268.037 60.2417 296.704 67.5717 322 88.0617Z" fill="#AE241E"/>
<path fill-rule="evenodd" clip-rule="evenodd" d="M237.001 76.0611C257.307 87.5511 277.64 99.0511 298.001 110.561C307.822 116.891 317.489 123.391 327.001 130.061C331.661 134.721 336.661 139.051 342.001 143.061C344.661 141.861 347.328 141.861 350.001 143.061C353.916 145.641 356.249 149.301 357.001 154.061C360.061 155.831 362.561 158.171 364.501 161.061C375.043 180.021 384.043 199.681 391.501 220.061C397.7 232.341 403.7 244.681 409.501 257.061C410.13 260.611 410.963 264.111 412.001 267.561C411.795 268.931 411.461 270.261 411.001 271.561C414.494 277.121 413.327 281.281 407.501 284.061C405.875 283.271 404.375 282.271 403.001 281.061C402.671 284.991 402.504 288.991 402.501 293.061C400.328 295.201 397.828 295.531 395.001 294.061C395.355 299.761 392.688 301.601 387.001 299.561C386.457 298.841 385.79 298.341 385.001 298.061C382.839 292.091 380.672 286.091 378.501 280.061C376.433 278.161 374.6 276.161 373.001 274.061C369.409 266.711 366.576 259.041 364.501 251.061C357.328 220.701 349.995 190.371 342.501 160.061C338.754 157.911 336.92 154.581 337.001 150.061C333.606 146.661 329.939 143.661 326.001 141.061C323.23 138.171 320.23 135.501 317.001 133.061C307.2 126.321 297.2 119.821 287.001 113.561C268.172 103.311 249.506 92.8111 231.001 82.0611C230.309 91.0911 229.642 100.091 229.001 109.061C228.476 109.751 227.809 110.251 227.001 110.561C223.334 111.231 219.668 111.231 216.001 110.561C214.46 108.981 213.293 107.151 212.501 105.061C211.337 97.1011 210.837 89.1011 211.001 81.0611C211.815 78.9311 212.315 76.6011 212.501 74.0611C215.345 72.6311 218.179 71.1311 221.001 69.5611C223.001 68.8911 225.001 68.8911 227.001 69.5611C229.885 72.5011 233.218 74.6611 237.001 76.0611Z" fill="#030101"/>
<path fill-rule="evenodd" clip-rule="evenodd" d="M326 141.062C329.938 143.662 333.605 146.662 337 150.062C336.919 154.582 338.753 157.912 342.5 160.062C349.994 190.372 357.327 220.702 364.5 251.062C366.575 259.042 369.408 266.712 373 274.062C373.844 280.772 375.011 287.442 376.5 294.062C377.856 301.172 376.856 307.842 373.5 314.062C368.652 318.612 364.152 323.442 360 328.562C336.698 340.882 313.365 353.212 290 365.562C275.577 372.242 260.41 375.742 244.5 376.062C222.763 375.482 201.263 372.982 180 368.562C168.092 363.042 155.759 358.702 143 355.562C127.846 348.482 112.846 341.152 98.0002 333.562C99.4442 332.432 100.11 330.932 100 329.062C96.5032 312.772 96.3362 296.432 99.5002 280.062C99.8332 266.062 100.167 252.062 100.5 238.062C104.954 207.572 107.454 176.912 108 146.062C112.571 148.972 117.571 150.812 123 151.562C142.606 153.972 162.272 155.472 182 156.062C203.678 155.192 225.345 154.032 247 152.562C273.613 149.772 299.946 145.932 326 141.062Z" fill="#AB1010"/>
<path fill-rule="evenodd" clip-rule="evenodd" d="M326.001 237.061C321.348 233.731 316.348 230.901 311.001 228.561C302.618 226.771 294.285 224.771 286.001 222.561C280.714 221.301 275.381 220.961 270.001 221.561C260.21 226.021 254.044 233.521 251.501 244.061C249.658 255.971 251.324 267.301 256.501 278.061C259.06 281.091 262.227 283.261 266.001 284.561C273.267 287.201 280.767 288.701 288.501 289.061C295.056 285.511 300.722 280.841 305.501 275.061C308.445 268.171 311.112 261.171 313.501 254.061C313.424 250.331 313.591 246.661 314.001 243.061C318.842 247.261 324.509 249.261 331.001 249.061C335.739 271.011 329.406 289.181 312.001 303.561C309.001 305.891 306.001 308.231 303.001 310.561C272.047 324.051 239.714 329.711 206.001 327.561C172.868 326.091 151.368 309.591 141.501 278.061C141.002 272.741 140.835 267.401 141.001 262.061C143.156 262.191 145.156 261.691 147.001 260.561C150.183 257.211 153.516 254.041 157.001 251.061C157.334 251.391 157.668 251.731 158.001 252.061C156.149 256.231 155.649 260.561 156.501 265.061C159.898 280.461 169.232 289.791 184.501 293.061C196.059 292.831 205.392 288.171 212.501 279.061C214.928 273.871 217.595 268.871 220.501 264.061C221.59 255.661 219.256 248.321 213.501 242.061C212.879 233.771 208.379 228.931 200.001 227.561C184.81 223.201 170.477 225.201 157.001 233.561C152.796 236.161 148.796 238.991 145.001 242.061C148.244 233.441 153.577 226.271 161.001 220.561C199.816 195.371 241.482 189.371 286.001 202.561C303.239 209.641 316.572 221.141 326.001 237.061Z" fill="#FCFCFC"/>
<path fill-rule="evenodd" clip-rule="evenodd" d="M326 237.061C328.723 238.841 331.557 240.511 334.5 242.061C335.81 245.841 334.643 248.181 331 249.061C324.508 249.261 318.841 247.261 314 243.061C313.59 246.661 313.423 250.331 313.5 254.061C311.111 261.171 308.444 268.171 305.5 275.061C300.721 280.841 295.055 285.511 288.5 289.061C280.766 288.701 273.266 287.201 266 284.561C262.226 283.261 259.059 281.091 256.5 278.061C251.323 267.301 249.657 255.971 251.5 244.061C254.043 233.521 260.209 226.021 270 221.561C275.38 220.961 280.713 221.301 286 222.561C294.284 224.771 302.617 226.771 311 228.561C316.347 230.901 321.347 233.731 326 237.061Z" fill="#040404"/>
<path fill-rule="evenodd" clip-rule="evenodd" d="M141 262.061C139.678 262.231 138.511 261.901 137.5 261.061C136.833 258.061 136.833 255.061 137.5 252.061C140.248 248.831 142.748 245.491 145 242.061C148.795 238.991 152.795 236.161 157 233.561C170.476 225.201 184.809 223.201 200 227.561C208.378 228.931 212.878 233.771 213.5 242.061C219.255 248.321 221.589 255.661 220.5 264.061C217.594 268.871 214.927 273.871 212.5 279.061C205.391 288.171 196.058 292.831 184.5 293.061C169.231 289.791 159.897 280.461 156.5 265.061C155.648 260.561 156.148 256.231 158 252.061C157.667 251.731 157.333 251.391 157 251.061C153.515 254.041 150.182 257.211 147 260.561C145.155 261.691 143.155 262.191 141 262.061Z" fill="#050505"/>
<path fill-rule="evenodd" clip-rule="evenodd" d="M270 230.062C274.921 229.602 278.421 231.602 280.5 236.062C280.494 241.102 279.828 246.102 278.5 251.062C274.84 254.932 270.34 256.092 265 254.562C260.755 250.912 258.588 246.412 258.5 241.062C259.167 239.732 259.833 238.392 260.5 237.062C264.001 235.072 267.168 232.742 270 230.062Z" fill="#F3F3F3"/>
<path fill-rule="evenodd" clip-rule="evenodd" d="M196.001 236.062C203.519 236.082 207.185 239.912 207.001 247.562C206.945 255.812 202.945 260.982 195.001 263.062C187.426 259.912 184.593 254.242 186.501 246.062C188.523 241.542 191.69 238.212 196.001 236.062Z" fill="#F6F6F6"/>
<path fill-rule="evenodd" clip-rule="evenodd" d="M236.001 66.0613C246.051 65.7313 256.051 66.2313 266.001 67.5613C284.986 73.7213 303.653 80.5513 322.001 88.0613C330.86 94.7513 337.694 103.081 342.501 113.061C344.783 123.131 347.283 133.131 350.001 143.061C347.328 141.861 344.661 141.861 342.001 143.061C336.661 139.051 331.661 134.721 327.001 130.061C328.968 130.301 330.802 129.971 332.501 129.061C333.819 126.151 334.153 123.151 333.501 120.061C328.001 103.891 317.168 93.0613 301.001 87.5613C287.642 83.2113 274.309 78.8813 261.001 74.5613C254.001 73.8913 247.001 73.8913 240.001 74.5613C238.764 74.7913 237.764 75.2913 237.001 76.0613C233.218 74.6613 229.885 72.5013 227.001 69.5613C225.001 68.8913 223.001 68.8913 221.001 69.5613C218.179 71.1313 215.345 72.6313 212.501 74.0613C212.315 76.6013 211.815 78.9313 211.001 81.0613C210.71 79.9113 209.877 79.2413 208.501 79.0613C196.994 80.1213 185.828 82.6213 175.001 86.5613C158.745 95.1613 142.745 104.161 127.001 113.561C120.866 118.691 115.032 124.191 109.501 130.061C108.638 135.901 111.138 139.731 117.001 141.561C145.427 147.001 174.093 149.001 203.001 147.561C219.64 145.981 236.307 144.641 253.001 143.561C272.578 140.471 292.244 137.801 312.001 135.561C313.992 135.191 315.659 134.351 317.001 133.061C320.23 135.501 323.23 138.171 326.001 141.061C299.947 145.931 273.614 149.771 247.001 152.561C225.346 154.031 203.679 155.191 182.001 156.061C162.273 155.471 142.607 153.971 123.001 151.561C117.572 150.811 112.572 148.971 108.001 146.061C107.455 176.911 104.955 207.571 100.501 238.061C100.168 252.061 99.8337 266.061 99.5007 280.061C96.3367 296.431 96.5037 312.771 100.001 329.061C100.111 330.931 99.4447 332.431 98.0007 333.561C112.847 341.151 127.847 348.481 143.001 355.561C155.76 358.701 168.093 363.041 180.001 368.561C201.264 372.981 222.764 375.481 244.501 376.061C260.411 375.741 275.578 372.241 290.001 365.561C313.366 353.211 336.699 340.881 360.001 328.561C364.153 323.441 368.653 318.611 373.501 314.061C376.857 307.841 377.857 301.171 376.501 294.061C375.012 287.441 373.845 280.771 373.001 274.061C374.6 276.161 376.433 278.161 378.501 280.061C380.672 286.091 382.839 292.091 385.001 298.061C385.051 301.751 385.385 305.411 386.001 309.061C385.907 311.481 385.407 313.821 384.501 316.061C375.694 324.201 366.86 332.371 358.001 340.561C335.853 354.321 312.52 365.491 288.001 374.061C283.332 374.651 278.998 375.981 275.001 378.061C257.645 382.401 239.978 385.071 222.001 386.061C214.306 385.191 206.639 384.191 199.001 383.061C194.232 382.491 189.565 381.491 185.001 380.061C171.426 372.951 157.093 367.451 142.001 363.561C127.439 356.831 113.439 349.161 100.001 340.561C88.7647 331.441 84.4307 319.601 87.0007 305.061C87.7687 304.301 88.2687 303.301 88.5007 302.061C89.2947 296.251 89.7947 290.421 90.0007 284.561C89.2107 272.741 88.8777 260.911 89.0007 249.061C90.8787 237.751 92.7127 226.411 94.5007 215.061C95.9617 194.481 98.1277 173.981 101.001 153.561C100.567 150.931 99.7337 148.431 98.5007 146.061C97.8907 134.271 101.557 123.931 109.501 115.061C121.11 102.121 134.944 92.2913 151.001 85.5613C178.618 76.0713 206.951 69.5713 236.001 66.0613Z" fill="#89100F"/>
<path fill-rule="evenodd" clip-rule="evenodd" d="M211 81.0615C210.836 89.1015 211.336 97.1015 212.5 105.062C213.292 107.152 214.459 108.982 216 110.562C219.667 111.232 223.333 111.232 227 110.562C227.808 110.252 228.475 109.752 229 109.062C229.641 100.092 230.308 91.0915 231 82.0615C249.505 92.8115 268.171 103.312 287 113.562C297.199 119.822 307.199 126.322 317 133.062C315.658 134.352 313.991 135.192 312 135.562C292.243 137.802 272.577 140.472 253 143.562C236.306 144.642 219.639 145.982 203 147.562C174.092 149.002 145.426 147.002 117 141.562C111.137 139.732 108.637 135.902 109.5 130.062C115.031 124.192 120.865 118.692 127 113.562C142.744 104.162 158.744 95.1615 175 86.5615C185.827 82.6215 196.993 80.1215 208.5 79.0615C209.876 79.2415 210.709 79.9115 211 81.0615Z" fill="#AB0F0F"/>
<path fill-rule="evenodd" clip-rule="evenodd" d="M327 130.062C317.488 123.392 307.821 116.892 298 110.562C277.639 99.0521 257.306 87.5521 237 76.0621C237.763 75.2921 238.763 74.7921 240 74.5621C247 73.8921 254 73.8921 261 74.5621C274.308 78.8821 287.641 83.2121 301 87.5621C317.167 93.0621 328 103.892 333.5 120.062C334.152 123.152 333.818 126.152 332.5 129.062C330.801 129.972 328.967 130.302 327 130.062Z" fill="#A90F0F"/>
<path fill-rule="evenodd" clip-rule="evenodd" d="M254 292.061C259.5 291.391 261.667 293.721 260.5 299.061C258.108 304.791 254.274 309.291 249 312.561C245.906 313.211 242.906 312.881 240 311.561C235.404 309.461 230.904 307.301 226.5 305.061C225.501 300.701 227.168 298.371 231.5 298.061C236.245 299.431 240.912 301.101 245.5 303.061C248.817 299.761 251.65 296.091 254 292.061Z" fill="#0B0B0B"/>
<path fill-rule="evenodd" clip-rule="evenodd" d="M288 374.062C289.716 388.342 291.382 402.672 293 417.062C299.873 415.172 306.873 414.672 314 415.562C315.896 417.372 316.396 419.532 315.5 422.062C306.884 429.152 297.051 432.652 286 432.562C283.812 428.322 282.312 423.822 281.5 419.062C279.595 405.332 277.428 391.662 275 378.062C278.997 375.982 283.331 374.652 288 374.062Z" fill="#070606"/>
<path fill-rule="evenodd" clip-rule="evenodd" d="M185 380.062C189.564 381.492 194.231 382.492 199 383.062C198.438 395.722 197.938 408.392 197.5 421.062C197.24 424.812 196.573 428.482 195.5 432.062C193.102 433.422 190.602 434.582 188 435.562C180.611 436.362 173.277 436.032 166 434.562C160.191 431.512 159.525 427.512 164 422.562C171.079 422.452 178.079 421.782 185 420.562C184.696 407.142 184.696 393.642 185 380.062Z" fill="#070606"/>
</svg>
