<svg width="500" height="500" viewBox="0 0 500 500" fill="none" xmlns="http://www.w3.org/2000/svg">
<path fill-rule="evenodd" clip-rule="evenodd" d="M248 60.061C254.01 59.891 260.01 60.061 266 60.561C299.45 67.001 324.95 84.841 342.5 114.061C345.62 120.101 347.96 126.431 349.5 133.061C353.33 152.691 356.99 172.361 360.5 192.061C362.37 210.401 363.54 228.741 364 247.061C371.52 243.371 378.35 238.701 384.5 233.061C384.13 230.641 382.8 228.641 380.5 227.061C378.68 217.901 381.85 215.401 390 219.561C391.52 221.441 392.52 223.611 393 226.061C395.64 227.181 398.3 227.181 401 226.061C406.15 228.571 406.15 231.411 401 234.561C398.35 235.061 395.69 235.221 393 235.061C393.01 236.871 392.51 238.541 391.5 240.061C383.31 248.921 373.98 256.251 363.5 262.061C364.17 291.381 364.84 320.721 365.5 350.061C367.98 363.831 369.82 377.661 371 391.561C372.44 403.311 369.44 413.641 362 422.561C350.4 428.881 338.07 433.211 325 435.561C310.3 436.631 295.63 437.961 281 439.561C246.47 442.911 212.8 439.241 180 428.561C167.81 421.721 160.98 411.221 159.5 397.061C152.31 385.001 147.64 372.001 145.5 358.061C143.92 347.761 142.59 337.431 141.5 327.061C141.33 305.721 140.83 284.391 140 263.061C133.08 258.971 126.58 254.311 120.5 249.061C115.83 243.061 111.67 236.731 108 230.061C102.36 231.741 98.36 229.911 96 224.561C96.32 222.911 97.32 221.911 99 221.561C104.54 221.051 108.88 218.381 112 213.561C115.75 212.811 118.09 214.311 119 218.061C118.43 221.031 117.43 223.871 116 226.561C124.21 235.441 133.04 243.611 142.5 251.061C144.58 225.411 146.25 199.751 147.5 174.061C150.94 160.211 153.6 146.211 155.5 132.061C163.86 98.701 184.36 76.531 217 65.561C227.35 63.031 237.68 61.201 248 60.061Z" fill="#010101"/>
<path fill-rule="evenodd" clip-rule="evenodd" d="M243 105.061C269.79 103.381 292.29 112.381 310.5 132.061C332.14 160.311 330.64 187.481 306 213.561C281.6 235.471 253.27 243.131 221 236.561C200.1 229.331 186.27 215.161 179.5 194.061C172.88 161.911 183.38 137.081 211 119.561C221.38 113.871 232.05 109.031 243 105.061Z" fill="#FCFBFC"/>
<path fill-rule="evenodd" clip-rule="evenodd" d="M224 148.061C217.67 146.731 211.33 146.731 205 148.061C205.68 139.451 208.18 131.451 212.5 124.061C215.92 118.861 219.26 118.861 222.5 124.061C222.85 130.621 223.69 137.121 225 143.561C224.73 145.091 224.39 146.591 224 148.061Z" fill="#BC91F2"/>
<path fill-rule="evenodd" clip-rule="evenodd" d="M295 149.061C289.48 147.261 283.81 146.261 278 146.061C277.65 138.161 278.82 130.491 281.5 123.061C283.31 121.161 285.47 120.661 288 121.561C296.07 129.351 298.41 138.521 295 149.061Z" fill="#BD92F3"/>
<path fill-rule="evenodd" clip-rule="evenodd" d="M278 146.062C283.81 146.262 289.48 147.262 295 149.062C299 150.242 303 151.742 307 153.562C310.16 156.642 313.83 158.982 318 160.562C319.77 163.672 318.94 165.502 315.5 166.062C310.91 165.752 306.91 164.082 303.5 161.062C303.86 170.692 301.03 179.362 295 187.062C291.76 188.932 288.59 190.932 285.5 193.062C281.95 192.432 278.45 191.762 275 191.062C267.88 189.932 263.38 185.932 261.5 179.062C258.71 169.452 260.04 160.452 265.5 152.062C268.71 148.042 272.88 146.042 278 146.062Z" fill="#040404"/>
<path fill-rule="evenodd" clip-rule="evenodd" d="M224 148.061C227.25 148.531 230.08 149.861 232.5 152.061C233.69 156.771 235.69 161.111 238.5 165.061C239.41 178.241 233.91 187.571 222 193.061C216.55 194.571 211.22 194.241 206 192.061C203.7 189.261 201.2 186.601 198.5 184.061C197.7 181.321 196.7 178.651 195.5 176.061C195.07 172.011 195.07 168.011 195.5 164.061C192.09 168.681 187.59 171.021 182 171.061C181.71 167.911 182.21 164.911 183.5 162.061C189.28 155.251 196.44 150.591 205 148.061C211.33 146.731 217.67 146.731 224 148.061Z" fill="#050505"/>
<path fill-rule="evenodd" clip-rule="evenodd" d="M273 152.06C278.05 151.22 280.71 153.22 281 158.06C281.65 166.95 277.82 170.28 269.5 168.06C267.63 166.04 266.47 163.71 266 161.06C266.17 160.06 266.33 159.06 266.5 158.06C268.84 156.16 271 154.16 273 152.06Z" fill="#F6F6F6"/>
<path fill-rule="evenodd" clip-rule="evenodd" d="M221 155.06C226.92 154.15 229.92 156.65 230 162.56C229.86 168 227.2 171.5 222 173.06C214.27 169.22 213.1 163.89 218.5 157.06C219.49 156.49 220.33 155.83 221 155.06Z" fill="#F5F5F5"/>
<path fill-rule="evenodd" clip-rule="evenodd" d="M295 187.062C295.86 188.092 296.52 189.262 297 190.562C294.56 196.202 292.73 202.042 291.5 208.062C287.89 210.832 284.56 210.502 281.5 207.062C278.48 202.032 276.32 196.702 275 191.062C278.45 191.762 281.95 192.432 285.5 193.062C288.59 190.932 291.76 188.932 295 187.062Z" fill="#BB90F2"/>
<path fill-rule="evenodd" clip-rule="evenodd" d="M206 192.062C211.22 194.242 216.55 194.572 222 193.062C222.94 199.702 223.11 206.372 222.5 213.062C220.63 214.232 218.8 214.072 217 212.562C211.3 208.042 206.97 202.542 204 196.062C204.25 194.492 204.92 193.152 206 192.062Z" fill="#BD92F3"/>
<path fill-rule="evenodd" clip-rule="evenodd" d="M261.001 195.061C262.701 194.901 264.371 195.071 266.001 195.561C266.521 196.121 266.861 196.791 267.001 197.561C265.321 201.921 262.651 205.581 259.001 208.561C252.911 208.601 247.411 206.771 242.501 203.061C241.841 200.211 243.011 198.541 246.001 198.061C249.331 199.391 252.661 200.721 256.001 202.061C258.051 200.011 259.711 197.681 261.001 195.061Z" fill="#0E0E0E"/>
<path fill-rule="evenodd" clip-rule="evenodd" d="M303 303.06C301.82 310.44 297.82 312.94 291 310.56C288.79 308.52 286.79 306.36 285 304.06C291.06 302.14 297.06 301.81 303 303.06Z" fill="#F7F4F4"/>
<path fill-rule="evenodd" clip-rule="evenodd" d="M302.999 303.062C312.899 304.462 318.729 310.122 320.499 320.062C321.409 330.842 317.909 339.842 309.999 347.062C308.679 344.872 306.679 343.372 303.999 342.562C293.909 339.872 283.909 336.872 273.999 333.562C260.019 331.782 246.019 331.782 231.999 333.562C225.789 335.332 219.789 337.672 213.999 340.562C209.459 343.602 205.789 347.442 202.999 352.062C189.839 342.772 186.339 330.772 192.499 316.062C196.149 310.322 201.319 307.322 207.999 307.062C207.489 316.062 211.489 319.232 219.999 316.562C222.539 314.192 224.869 311.692 226.999 309.062C246.699 311.432 266.029 309.772 284.999 304.062C286.789 306.362 288.789 308.522 290.999 310.562C297.819 312.942 301.819 310.442 302.999 303.062Z" fill="#8D2525"/>
<path fill-rule="evenodd" clip-rule="evenodd" d="M208 307.062C214.53 307.262 220.86 307.922 227 309.062C224.87 311.692 222.54 314.192 220 316.562C211.49 319.232 207.49 316.062 208 307.062Z" fill="#F6F3F3"/>
<path fill-rule="evenodd" clip-rule="evenodd" d="M310 347.061C287.12 365.281 261.12 371.441 232 365.561C225.98 363.541 219.98 361.541 214 359.561C209.92 357.531 206.25 355.031 203 352.061C205.79 347.441 209.46 343.601 214 340.561C219.79 337.671 225.79 335.331 232 333.561C246.02 331.781 260.02 331.781 274 333.561C283.91 336.871 293.91 339.871 304 342.561C306.68 343.371 308.68 344.871 310 347.061Z" fill="#E1859B"/>
</svg>
