<svg width="500" height="500" viewBox="0 0 500 500" fill="none" xmlns="http://www.w3.org/2000/svg">
<path fill-rule="evenodd" clip-rule="evenodd" d="M388 263.062C383.95 265.612 379.79 267.942 375.5 270.062C374.18 275.572 376.34 278.242 382 278.062C368.26 304.802 348.92 326.472 324 343.062C318.87 345.462 313.87 348.132 309 351.062C300.64 355.742 291.64 358.402 282 359.062C271.68 358.402 261.35 358.242 251 358.562C242.22 357.172 233.56 355.342 225 353.062C220.68 351.732 216.35 350.402 212 349.062C198.96 343.432 185.63 338.262 172 333.562C164.33 329.232 156.67 324.892 149 320.562C135.81 307.352 127.48 291.522 124 273.062C128.16 272.952 131.66 271.282 134.5 268.062C135.44 265.212 134.94 262.712 133 260.562C129.01 260.062 125.01 259.892 121 260.062C117.61 249.862 116.27 239.362 117 228.562C117.05 202.972 122.22 178.472 132.5 155.062C139.47 142.762 147.97 131.592 158 121.562C181.1 103.012 207.1 90.3415 236 83.5615C239.5 83.3915 243 83.2315 246.5 83.0615C261.92 84.8615 277.42 86.3615 293 87.5615C311.05 93.2515 327.72 101.592 343 112.562C355.64 126.202 367.14 140.702 377.5 156.062C383.37 169.672 388.04 183.672 391.5 198.062C394.26 219.962 393.1 241.632 388 263.062Z" fill="#4050DB"/>
<path fill-rule="evenodd" clip-rule="evenodd" d="M229.999 94.0616C240.529 93.7616 244.699 98.7616 242.499 109.062C239.779 112.122 237.439 115.452 235.499 119.062C229.459 124.282 222.629 125.452 214.999 122.562C210.519 118.472 209.359 113.642 211.499 108.062C216.439 101.602 222.599 96.9416 229.999 94.0616Z" fill="#1A205A"/>
<path fill-rule="evenodd" clip-rule="evenodd" d="M183 118.061C192.95 116.191 197.78 120.191 197.5 130.061C195.58 142.431 188.42 148.261 176 147.561C169.43 143.901 167.26 138.401 169.5 131.061C171.95 124.441 176.45 120.111 183 118.061Z" fill="#1A2059"/>
<path fill-rule="evenodd" clip-rule="evenodd" d="M219.001 143.062C224.731 142.462 230.071 143.622 235.001 146.562C241.451 157.562 238.781 165.892 227.001 171.562C213.221 173.782 207.391 167.952 209.501 154.062C211.131 148.942 214.291 145.282 219.001 143.062Z" fill="#1A2059"/>
<path fill-rule="evenodd" clip-rule="evenodd" d="M354 228.062C347.51 224.322 340.85 220.822 334 217.562C326.29 215.772 318.62 213.772 311 211.562C296.38 208.852 286.21 214.352 280.5 228.062C276.7 240.622 277.37 252.952 282.5 265.062C286.65 270.392 292.15 273.562 299 274.562C304.42 274.922 309.76 275.752 315 277.062C320.11 273.422 324.94 269.422 329.5 265.062C333.64 257.272 336.81 249.112 339 240.562C337.98 237.772 337.82 234.942 338.5 232.062C343.51 235.792 349.01 238.122 355 239.062C355.99 261.242 347.33 278.412 329 290.562C319.62 297.252 309.62 302.922 299 307.562C277.16 314.532 254.82 317.202 232 315.562C197.81 310.042 176.31 290.542 167.5 257.062C166.69 252.872 166.85 248.872 168 245.062C167.79 246.702 168.12 248.202 169 249.562C171.33 250.232 173.67 250.232 176 249.562C180.13 246.432 183.97 242.932 187.5 239.062C185.73 249.292 187.39 258.962 192.5 268.062C206.12 282.802 220.95 283.972 237 271.562C241.74 265.572 245.58 259.072 248.5 252.062C249.56 243.652 247.23 236.322 241.5 230.062C241.38 224.662 238.88 220.822 234 218.562C207.62 210.862 185.95 217.692 169 239.062C177.7 207.862 198.03 189.362 230 183.562C268.35 178.562 304.01 185.892 337 205.562C344.83 211.542 350.5 219.042 354 228.062Z" fill="#FCFCFC"/>
<path fill-rule="evenodd" clip-rule="evenodd" d="M382 278.062C376.34 278.242 374.18 275.572 375.5 270.062C379.79 267.942 383.95 265.612 388 263.062C405.31 255.262 417.14 242.592 423.5 225.062C421.17 222.062 418.83 219.062 416.5 216.062C415.8 211.912 417.64 209.582 422 209.062C424.44 210.332 426.78 211.832 429 213.562C430.67 213.732 432.33 213.892 434 214.062C438.18 213.432 442.18 212.602 446 211.562C447.9 213.372 448.4 215.532 447.5 218.062C445.28 220.002 443.62 222.332 442.5 225.062C440.75 227.312 438.59 228.982 436 230.062C425.83 254.902 407.83 270.902 382 278.062Z" fill="#060607"/>
<path fill-rule="evenodd" clip-rule="evenodd" d="M354 228.062C355.1 229.122 356.43 229.952 358 230.562C361.09 234.692 360.09 237.522 355 239.062C349.01 238.122 343.51 235.792 338.5 232.062C337.82 234.942 337.98 237.772 339 240.562C336.81 249.112 333.64 257.272 329.5 265.062C324.94 269.422 320.11 273.422 315 277.062C309.76 275.752 304.42 274.922 299 274.562C292.15 273.562 286.65 270.392 282.5 265.062C277.37 252.952 276.7 240.622 280.5 228.062C286.21 214.352 296.38 208.852 311 211.562C318.62 213.772 326.29 215.772 334 217.562C340.85 220.822 347.51 224.322 354 228.062Z" fill="#040404"/>
<path fill-rule="evenodd" clip-rule="evenodd" d="M168.001 245.062C167.831 242.942 168.161 240.942 169.001 239.062C185.951 217.692 207.621 210.862 234.001 218.562C238.881 220.822 241.381 224.662 241.501 230.062C247.231 236.322 249.561 243.652 248.501 252.062C245.581 259.072 241.741 265.572 237.001 271.562C220.951 283.972 206.121 282.802 192.501 268.062C187.391 258.962 185.731 249.292 187.501 239.062C183.971 242.932 180.131 246.432 176.001 249.562C173.671 250.232 171.331 250.232 169.001 249.562C168.121 248.202 167.791 246.702 168.001 245.062Z" fill="#040404"/>
<path fill-rule="evenodd" clip-rule="evenodd" d="M295 220.061C300.14 218.991 303.97 220.651 306.5 225.061C306.49 230.101 305.83 235.101 304.5 240.061C301.19 243.891 297.03 245.051 292 243.561C289.83 240.731 287.67 237.891 285.5 235.061C284.76 231.781 285.42 228.781 287.5 226.061C290.71 224.881 293.21 222.881 295 220.061Z" fill="#F5F5F5"/>
<path fill-rule="evenodd" clip-rule="evenodd" d="M225 225.062C231.43 225.652 235.09 229.152 236 235.562C235.68 239.872 234.18 243.702 231.5 247.062C226.11 252.662 221.11 252.332 216.5 246.062C213.8 236.802 216.63 229.802 225 225.062Z" fill="#F6F6F6"/>
<path fill-rule="evenodd" clip-rule="evenodd" d="M121 260.062C125.01 259.892 129.01 260.062 133 260.562C134.94 262.712 135.44 265.212 134.5 268.062C131.66 271.282 128.16 272.952 124 273.062C114.52 273.622 105.19 272.792 96 270.562C89.79 268.182 83.46 266.182 77 264.562C74.52 262.922 72.19 261.082 70 259.062C62.93 262.652 57.26 261.152 53 254.562C53.94 252.622 55.27 250.952 57 249.562C60.33 249.232 63.67 248.892 67 248.562C68.6 245.292 69.43 241.792 69.5 238.062C70.22 237.502 71.06 237.172 72 237.062C74.94 238.172 77.11 240.172 78.5 243.062C78.19 246.112 78.35 249.112 79 252.062C85.44 257.012 92.77 259.512 101 259.562C107.66 260.062 114.33 260.232 121 260.062Z" fill="#050506"/>
<path fill-rule="evenodd" clip-rule="evenodd" d="M280 280.062C282.03 279.902 284.03 280.062 286 280.562C287.3 281.362 287.97 282.532 288 284.062C285.45 289.982 281.79 295.142 277 299.562C274.67 300.232 272.33 300.232 270 299.562C264.56 297.422 259.4 294.922 254.5 292.062C253.01 287.732 254.51 285.392 259 285.062C262.87 285.992 266.54 287.492 270 289.562C271.33 290.232 272.67 290.232 274 289.562C276.14 286.452 278.14 283.282 280 280.062Z" fill="#0C0C0C"/>
<path fill-rule="evenodd" clip-rule="evenodd" d="M324 343.062C324.38 358.812 325.71 374.482 328 390.062C338.61 382.812 345.95 385.142 350 397.062C349.65 399.262 348.65 401.092 347 402.562C338.76 407.802 329.92 409.302 320.5 407.062C317.89 394.342 314.89 381.682 311.5 369.062C310.25 363.112 309.41 357.112 309 351.062C313.87 348.132 318.87 345.462 324 343.062Z" fill="#060606"/>
<path fill-rule="evenodd" clip-rule="evenodd" d="M211.999 349.062C216.349 350.402 220.679 351.732 224.999 353.062C224.999 367.392 224.999 381.732 224.999 396.062C229.379 396.142 233.709 396.642 237.999 397.562C244.119 400.442 245.619 404.942 242.499 411.062C241.599 412.262 240.429 413.092 238.999 413.562C234.019 414.532 229.019 415.372 223.999 416.062C219.769 415.262 215.929 413.602 212.499 411.062C211.999 390.402 211.829 369.732 211.999 349.062Z" fill="#0A0A0A"/>
</svg>
