<svg width="500" height="500" viewBox="0 0 500 500" fill="none" xmlns="http://www.w3.org/2000/svg">
<path fill-rule="evenodd" clip-rule="evenodd" d="M301.999 122.061C295.999 126.041 289.329 128.201 281.999 128.561C254.989 128.921 227.989 129.421 200.999 130.061C195.749 114.111 194.249 97.7809 196.499 81.0609C198.219 72.4409 202.389 65.2809 208.999 59.5609C227.299 43.4709 248.299 38.4709 271.999 44.5609C290.959 51.5209 301.789 65.0209 304.499 85.0609C305.479 97.6609 304.649 110.001 301.999 122.061Z" fill="#FEFEFE"/>
<path fill-rule="evenodd" clip-rule="evenodd" d="M302 122.062C300.67 129.732 300.67 137.392 302 145.062C289.3 150.732 275.97 153.902 262 154.562C243.06 156.012 224.39 154.512 206 150.062C205 150.062 204 150.062 203 150.062C202.7 143.352 202.03 136.682 201 130.062C227.99 129.422 254.99 128.922 282 128.562C289.33 128.202 296 126.042 302 122.062Z" fill="#F5675D"/>
<path fill-rule="evenodd" clip-rule="evenodd" d="M302 145.062C302 150.732 302 156.392 302 162.062C283.14 169.652 263.47 172.152 243 169.562C230.14 167.702 217.47 165.532 205 163.062C205.94 158.822 206.27 154.492 206 150.062C224.39 154.512 243.06 156.012 262 154.562C275.97 153.902 289.3 150.732 302 145.062Z" fill="#FEFCFC"/>
<path fill-rule="evenodd" clip-rule="evenodd" d="M302 162.062C304.63 169.832 307.29 177.832 310 186.062C309.54 186.862 308.88 187.192 308 187.062C294.85 192.122 281.19 194.962 267 195.562C249.33 196.232 231.67 196.232 214 195.562C207.94 194.582 201.94 193.412 196 192.062C195.4 191.822 195.07 191.322 195 190.562C198.7 181.282 202.03 172.112 205 163.062C217.47 165.532 230.14 167.702 243 169.562C263.47 172.152 283.14 169.652 302 162.062Z" fill="#F4665C"/>
<path fill-rule="evenodd" clip-rule="evenodd" d="M308 187.062C312.49 199.712 318.32 211.712 325.5 223.062C330.12 235.642 335.79 247.642 342.5 259.062C349.17 272.742 353.84 287.072 356.5 302.062C357 305.712 357.17 309.382 357 313.062C348.73 309.682 346.9 312.012 351.5 320.062C353.54 321.932 355.37 323.932 357 326.062C356.59 337.032 354.59 347.702 351 358.062C349.04 360.522 346.87 362.862 344.5 365.062C343.52 367.302 343.02 369.632 343 372.062C338.62 379.942 332.95 386.782 326 392.562C313.7 399.052 300.7 403.212 287 405.062C283.1 405.992 279.1 406.322 275 406.062C261.44 408.422 247.78 409.422 234 409.062C230.41 407.862 226.74 406.862 223 406.062C211.12 401.462 199.46 396.292 188 390.562C164.66 371.722 151.32 347.222 148 317.062C150.67 314.062 150.67 311.062 148 308.062C152.31 280.622 161.48 254.952 175.5 231.062C185.48 219.782 192.31 206.782 196 192.062C201.94 193.412 207.94 194.582 214 195.562C231.67 196.232 249.33 196.232 267 195.562C281.19 194.962 294.85 192.122 308 187.062Z" fill="#FEFEFE"/>
<path fill-rule="evenodd" clip-rule="evenodd" d="M314 287.062C304.03 284.032 293.87 281.692 283.5 280.062C282 280.232 280.5 280.392 279 280.562C276.33 282.232 273.67 283.892 271 285.562C263.47 296.542 261.97 308.382 266.5 321.062C270.18 327.162 275.68 330.662 283 331.562C292.32 333.572 299.82 330.742 305.5 323.062C310.53 314.992 312.86 306.332 312.5 297.062C314.66 299.052 317.16 300.392 320 301.062C328.03 317.582 326.03 332.752 314 346.562C303.26 353.142 291.59 357.142 279 358.562C261.62 359.322 244.28 358.652 227 356.562C218.09 354.592 209.75 351.262 202 346.562C194.74 341.632 189.24 335.132 185.5 327.062C183.8 321.832 182.63 316.502 182 311.062C185.59 308.982 188.75 306.312 191.5 303.062C190.09 311.622 191.76 319.622 196.5 327.062C206.96 336.772 218.13 337.612 230 329.562C236.4 323.272 239.9 315.772 240.5 307.062C238.24 302.192 236.24 297.192 234.5 292.062C232.94 288.832 230.44 286.662 227 285.562C220.43 283.762 213.76 283.102 207 283.562C199.93 285.602 193.27 288.432 187 292.062C190.1 287.122 194.1 282.962 199 279.562C217.23 266.752 237.56 260.252 260 260.062C272.75 261.782 285.41 263.942 298 266.562C304.39 272.712 310.06 279.382 315 286.562C314.77 286.962 314.44 287.132 314 287.062Z" fill="#FCFCFC"/>
<path fill-rule="evenodd" clip-rule="evenodd" d="M314 287.062C317.71 290.092 321.71 292.752 326 295.062C328.41 296.242 329.41 298.242 329 301.062C326.06 302.152 323.06 302.152 320 301.062C317.16 300.392 314.66 299.052 312.5 297.062C312.86 306.332 310.53 314.992 305.5 323.062C299.82 330.742 292.32 333.572 283 331.562C275.68 330.662 270.18 327.162 266.5 321.062C261.97 308.382 263.47 296.542 271 285.562C273.67 283.892 276.33 282.232 279 280.562C280.5 280.392 282 280.232 283.5 280.062C293.87 281.692 304.03 284.032 314 287.062Z" fill="#050505"/>
<path fill-rule="evenodd" clip-rule="evenodd" d="M182 311.061C180.37 312.371 178.7 312.371 177 311.061C175.85 308.801 175.69 306.461 176.5 304.061C179.15 299.251 182.65 295.251 187 292.061C193.27 288.431 199.93 285.601 207 283.561C213.76 283.101 220.43 283.761 227 285.561C230.44 286.661 232.94 288.831 234.5 292.061C236.24 297.191 238.24 302.191 240.5 307.061C239.9 315.771 236.4 323.271 230 329.561C218.13 337.611 206.96 336.771 196.5 327.061C191.76 319.621 190.09 311.621 191.5 303.061C188.75 306.311 185.59 308.981 182 311.061Z" fill="#050505"/>
<path fill-rule="evenodd" clip-rule="evenodd" d="M279 287.062C284.41 286.642 287.08 289.142 287 294.562C287.32 304.262 282.99 307.932 274 305.562C270.08 301.952 269.25 297.792 271.5 293.062C274.19 291.202 276.69 289.202 279 287.062Z" fill="#F3F3F3"/>
<path fill-rule="evenodd" clip-rule="evenodd" d="M220 292.062C226.81 290.952 230.14 293.782 230 300.562C230.2 307.042 227.2 310.872 221 312.062C216.3 311.022 213.63 308.022 213 303.062C214.43 298.692 216.76 295.022 220 292.062Z" fill="#F4F4F4"/>
<path fill-rule="evenodd" clip-rule="evenodd" d="M326 295.062C321.71 292.752 317.71 290.092 314 287.062C314.44 287.132 314.77 286.962 315 286.562C310.06 279.382 304.39 272.712 298 266.562C285.41 263.942 272.75 261.782 260 260.062C237.56 260.252 217.23 266.752 199 279.562C194.1 282.962 190.1 287.122 187 292.062C182.65 295.252 179.15 299.252 176.5 304.062C175.69 306.462 175.85 308.802 177 311.062C178.7 312.372 180.37 312.372 182 311.062C182.63 316.502 183.8 321.832 185.5 327.062C189.24 335.132 194.74 341.632 202 346.562C209.75 351.262 218.09 354.592 227 356.562C244.28 358.652 261.62 359.322 279 358.562C291.59 357.142 303.26 353.142 314 346.562C326.03 332.752 328.03 317.582 320 301.062C323.06 302.152 326.06 302.152 329 301.062C338.2 337.492 324.2 358.652 287 364.562C265.97 366.702 244.97 366.372 224 363.562C209.82 359.722 197.32 352.892 186.5 343.062C174.38 326.342 172.05 308.342 179.5 289.062C191.46 274.822 206.29 264.652 224 258.562C235.07 255.152 246.4 253.312 258 253.062C272.47 254.362 286.81 256.532 301 259.562C308.95 266.512 315.79 274.342 321.5 283.062C323.3 286.982 324.8 290.982 326 295.062Z" fill="#BBBBBB"/>
<path fill-rule="evenodd" clip-rule="evenodd" d="M148 308.062C150.67 311.062 150.67 314.062 148 317.062C128.23 339.932 133.06 355.602 162.5 364.062C163.04 373.312 159.21 379.982 151 384.062C147.22 383.122 145.72 380.792 146.5 377.062C148.09 374.222 149.92 371.552 152 369.062C138.18 364.572 129.51 355.242 126 341.062C128.57 328.852 134.23 318.352 143 309.562C144.52 308.552 146.19 308.052 148 308.062Z" fill="#020208"/>
<path fill-rule="evenodd" clip-rule="evenodd" d="M357 313.062C363.45 320.352 368.95 328.352 373.5 337.062C374.17 339.392 374.17 341.732 373.5 344.062C368.39 353.502 361.56 361.332 353 367.562C354.09 370.312 355.59 372.812 357.5 375.062C358.32 377.792 358.15 380.452 357 383.062C354.92 384.322 352.92 384.152 351 382.562C347.46 379.622 344.8 376.122 343 372.062C343.02 369.632 343.52 367.302 344.5 365.062C346.87 362.862 349.04 360.522 351 358.062C358.38 350.972 362.21 342.302 362.5 332.062C361.17 329.562 359.34 327.562 357 326.062C355.37 323.932 353.54 321.932 351.5 320.062C346.9 312.012 348.73 309.682 357 313.062Z" fill="#030307"/>
<path fill-rule="evenodd" clip-rule="evenodd" d="M357 326.062C359.34 327.562 361.17 329.562 362.5 332.062C362.21 342.302 358.38 350.972 351 358.062C354.59 347.702 356.59 337.032 357 326.062Z" fill="#364EE3"/>
<path fill-rule="evenodd" clip-rule="evenodd" d="M266 335.061C269.36 334.431 271.36 335.771 272 339.061C269.96 343.291 267.3 347.121 264 350.561C257.13 351.211 250.96 349.381 245.5 345.061C244.78 343.451 244.95 341.951 246 340.561C251.18 340.341 256.18 341.011 261 342.561C262.89 340.181 264.56 337.681 266 335.061Z" fill="#0B0B0B"/>
<path fill-rule="evenodd" clip-rule="evenodd" d="M287 405.062C286.47 416.552 287.47 427.882 290 439.062C294.01 438.892 298.01 439.062 302 439.562C305.14 440.862 307.47 443.032 309 446.062C308.41 447.362 307.41 448.192 306 448.562C298.51 450.572 291.01 451.072 283.5 450.062C280.7 435.312 277.87 420.642 275 406.062C279.1 406.322 283.1 405.992 287 405.062Z" fill="#010105"/>
<path fill-rule="evenodd" clip-rule="evenodd" d="M222.999 406.062C226.739 406.862 230.409 407.862 233.999 409.062C235.149 422.992 235.309 436.992 234.499 451.062C233.569 454.952 231.069 457.122 226.999 457.562C222.189 458.342 217.529 457.842 212.999 456.062C210.099 452.172 210.759 449.002 214.999 446.562C218.989 446.062 222.989 445.892 226.999 446.062C226.659 436.642 225.659 427.312 223.999 418.062C224.069 415.192 224.409 412.352 224.999 409.562C224.519 408.262 223.859 407.092 222.999 406.062Z" fill="#030208"/>
</svg>
