<svg width="500" height="500" viewBox="0 0 500 500" fill="none" xmlns="http://www.w3.org/2000/svg">
<path fill-rule="evenodd" clip-rule="evenodd" d="M243 75.061C241 100.361 239.67 125.691 239 151.061C227.52 151.761 216.18 153.431 205 156.061C207.45 138.261 202.95 122.591 191.5 109.061C186.44 103.831 181.27 98.831 176 94.061C177.22 92.111 178.88 90.611 181 89.561C193.82 82.291 207.49 77.621 222 75.561C228.99 75.061 235.99 74.891 243 75.061Z" fill="#FE871A"/>
<path fill-rule="evenodd" clip-rule="evenodd" d="M243 75.0617C246.21 74.7517 249.21 75.0817 252 76.0617C248.97 100.912 247.63 125.912 248 151.062C245 151.062 242 151.062 239 151.062C239.67 125.692 241 100.362 243 75.0617Z" fill="#703B0B"/>
<path fill-rule="evenodd" clip-rule="evenodd" d="M252 76.0615C270.17 76.2415 288.17 78.0715 306 81.5615C310.73 83.3015 315.4 85.1415 320 87.0615C308.95 107.532 301.29 129.202 297 152.062C296.67 152.062 296.33 152.062 296 152.062C280.01 151.332 264.01 151.002 248 151.062C247.63 125.912 248.97 100.912 252 76.0615Z" fill="#FD8619"/>
<path fill-rule="evenodd" clip-rule="evenodd" d="M320 87.0615C323.01 88.2315 325.68 89.9015 328 92.0615C317.21 110.762 309.54 130.762 305 152.062C302.33 152.062 299.67 152.062 297 152.062C301.29 129.202 308.95 107.532 320 87.0615Z" fill="#703B0C"/>
<path fill-rule="evenodd" clip-rule="evenodd" d="M328 92.0615C339.23 96.9415 349.07 103.942 357.5 113.062C368.92 127.552 378.59 143.222 386.5 160.062C387.98 163.992 389.14 167.992 390 172.062C362.78 160.992 334.45 154.662 305 153.062C305 152.732 305 152.392 305 152.062C309.54 130.762 317.21 110.762 328 92.0615Z" fill="#FD861A"/>
<path fill-rule="evenodd" clip-rule="evenodd" d="M176 94.0615C181.27 98.8315 186.44 103.832 191.5 109.062C202.95 122.592 207.45 138.262 205 156.062C216.18 153.432 227.52 151.762 239 151.062C239 153.732 239 156.392 239 159.062C241.67 159.062 244.33 159.062 247 159.062C247 171.062 247 183.062 247 195.062C244.22 194.842 241.55 195.172 239 196.062C239 184.062 239 172.062 239 160.062C227.12 160.322 215.46 161.982 204 165.062C204 162.392 204 159.732 204 157.062C201.29 157.142 198.63 157.472 196 158.062C198.93 142.102 195.43 127.762 185.5 115.062C180.1 109.152 174.26 103.822 168 99.0615C170.32 96.9015 172.99 95.2315 176 94.0615Z" fill="#703B0B"/>
<path fill-rule="evenodd" clip-rule="evenodd" d="M168 99.0615C174.26 103.822 180.1 109.152 185.5 115.062C195.43 127.762 198.93 142.102 196 158.062C178.2 162.052 160.53 166.552 143 171.562C129.75 176.512 117.42 183.012 106 191.062C107.1 186.392 108.27 181.732 109.5 177.062C113.62 168.712 116.95 160.042 119.5 151.062C126.99 135.902 137.15 122.732 150 111.562C154.95 108.272 159.62 104.612 164 100.562C165.24 99.7715 166.58 99.2715 168 99.0615Z" fill="#FE871A"/>
<path fill-rule="evenodd" clip-rule="evenodd" d="M239 151.062C242 151.062 245 151.062 248 151.062C248 153.732 248 156.392 248 159.062C247.67 159.062 247.33 159.062 247 159.062C244.33 159.062 241.67 159.062 239 159.062C239 156.392 239 153.732 239 151.062Z" fill="#321A05"/>
<path fill-rule="evenodd" clip-rule="evenodd" d="M296 152.062C296.33 152.062 296.67 152.062 297 152.062C299.67 152.062 302.33 152.062 305 152.062C305 152.392 305 152.732 305 153.062C304.92 155.772 304.59 158.432 304 161.062C303.67 161.062 303.33 161.062 303 161.062C300.67 161.062 298.33 161.062 296 161.062C296 158.062 296 155.062 296 152.062Z" fill="#341B05"/>
<path fill-rule="evenodd" clip-rule="evenodd" d="M305 153.062C334.45 154.662 362.78 160.992 390 172.062C391.76 175.412 392.76 179.082 393 183.062C364.84 170.162 335.17 162.822 304 161.062C304.59 158.432 304.92 155.772 305 153.062Z" fill="#713C0C"/>
<path fill-rule="evenodd" clip-rule="evenodd" d="M204 165.062C203.33 165.062 203 165.392 203 166.062C200.58 165.852 198.25 166.192 196 167.062C194.86 164.062 194.86 161.062 196 158.062C198.63 157.472 201.29 157.142 204 157.062C204 159.732 204 162.392 204 165.062Z" fill="#311A05"/>
<path fill-rule="evenodd" clip-rule="evenodd" d="M195.999 158.062C194.859 161.062 194.859 164.062 195.999 167.062C198.249 166.192 200.579 165.852 202.999 166.062C201.439 181.082 197.439 195.412 190.999 209.062C185.869 211.462 180.869 214.122 175.999 217.062C184.059 204.382 189.899 190.712 193.499 176.062C193.999 173.412 194.159 170.752 193.999 168.062C160.969 171.732 130.969 183.072 103.999 202.062C103.929 198.142 104.599 194.472 105.999 191.062C117.419 183.012 129.749 176.512 142.999 171.562C160.529 166.552 178.199 162.052 195.999 158.062Z" fill="#713C0C"/>
<path fill-rule="evenodd" clip-rule="evenodd" d="M247 159.062C247.33 159.062 247.67 159.062 248 159.062C263.67 159.102 279.34 159.442 295 160.062C292.72 172.232 294.22 183.902 299.5 195.062C303.96 199.672 307.79 204.672 311 210.062C290.83 200.352 269.49 195.352 247 195.062C247 183.062 247 171.062 247 159.062Z" fill="#FC861A"/>
<path fill-rule="evenodd" clip-rule="evenodd" d="M239 196.062C227.79 199.072 216.46 201.572 205 203.562C200.11 204.912 195.44 206.742 191 209.062C197.44 195.412 201.44 181.082 203 166.062C203 165.392 203.33 165.062 204 165.062C215.46 161.982 227.12 160.322 239 160.062C239 172.062 239 184.062 239 196.062Z" fill="#FD8619"/>
<path fill-rule="evenodd" clip-rule="evenodd" d="M248 151.062C264.01 151.002 280.01 151.332 296 152.062C296 155.062 296 158.062 296 161.062C298.33 161.062 300.67 161.062 303 161.062C302.83 168.072 303 175.072 303.5 182.062C304.17 184.062 304.83 186.062 305.5 188.062C317.75 203.592 329.25 219.592 340 236.062C331.55 225.942 321.88 217.272 311 210.062C307.79 204.672 303.96 199.672 299.5 195.062C294.22 183.902 292.72 172.232 295 160.062C279.34 159.442 263.67 159.102 248 159.062C248 156.392 248 153.732 248 151.062Z" fill="#723C0D"/>
<path fill-rule="evenodd" clip-rule="evenodd" d="M302.999 161.062C303.329 161.062 303.669 161.062 303.999 161.062C335.169 162.822 364.839 170.162 392.999 183.062C395.669 190.812 397.829 198.812 399.499 207.062C400.169 220.732 400.169 234.392 399.499 248.062C398.169 252.062 396.829 256.062 395.499 260.062C389.259 272.222 382.759 284.222 375.999 296.062C375.659 296.902 374.989 297.232 373.999 297.062C367.979 279.692 359.309 263.692 347.999 249.062C347.809 245.872 346.149 243.872 342.999 243.062C341.739 240.872 340.739 238.542 339.999 236.062C329.249 219.592 317.749 203.592 305.499 188.062C304.829 186.062 304.169 184.062 303.499 182.062C302.999 175.072 302.829 168.072 302.999 161.062Z" fill="#FE8619"/>
<path fill-rule="evenodd" clip-rule="evenodd" d="M176 217.062C164.84 223.722 157.84 233.382 155 246.062C153.04 248.362 152.04 251.022 152 254.062C142.82 271.142 138.82 289.472 140 309.062C134.85 302.782 130.19 296.112 126 289.062C121.67 282.392 117.33 275.732 113 269.062C107.73 259.742 104.56 249.742 103.5 239.062C102.75 226.702 102.92 214.372 104 202.062C130.97 183.072 160.97 171.732 194 168.062C194.16 170.752 194 173.412 193.5 176.062C189.9 190.712 184.06 204.382 176 217.062Z" fill="#FE8619"/>
<path fill-rule="evenodd" clip-rule="evenodd" d="M247 195.061C269.49 195.351 290.83 200.351 311 210.061C321.88 217.271 331.55 225.941 340 236.061C340.74 238.541 341.74 240.871 343 243.061C337.84 240.651 333.18 237.481 329 233.561C319.34 230.561 309.67 227.561 300 224.561C294.7 223.411 289.37 223.081 284 223.561C270.45 230.641 263.78 241.971 264 257.561C262.64 274.841 270.3 285.171 287 288.561C292.33 289.411 297.66 289.751 303 289.561C307.79 286.441 312.29 282.941 316.5 279.061C318.97 273.311 321.64 267.641 324.5 262.061C325.44 256.751 326.28 251.421 327 246.061C332.67 250.581 339 252.581 346 252.061C346.72 252.481 347.22 253.141 347.5 254.061C348 257.381 348.17 260.711 348 264.061C342.46 295.111 324.46 314.941 294 323.561C279.78 326.871 265.44 329.371 251 331.061C248.33 331.061 245.67 331.061 243 331.061C232.36 330.951 222.03 329.121 212 325.561C203.08 321.371 194.08 317.371 185 313.561C177.12 306.681 168.95 300.181 160.5 294.061C156.4 288.571 153.57 282.571 152 276.061C151.23 270.741 151.07 265.411 151.5 260.061C151.88 259.501 152.38 259.171 153 259.061C155.24 260.101 157.57 260.261 160 259.561C164.15 256.251 168.15 252.751 172 249.061C173.07 250.751 172.9 252.411 171.5 254.061C170.83 257.731 170.83 261.391 171.5 265.061C173.16 272.051 176.32 278.211 181 283.561C184.15 286.711 187.82 289.051 192 290.561C212.39 292.851 226.22 284.351 233.5 265.061C234.17 260.731 234.17 256.391 233.5 252.061C230.15 246.741 227.82 241.081 226.5 235.061C221.75 229.251 215.58 226.081 208 225.561C199.51 224.491 191.17 225.161 183 227.561C172.05 231.521 162.72 237.681 155 246.061C157.84 233.381 164.84 223.721 176 217.061C180.87 214.121 185.87 211.461 191 209.061C195.44 206.741 200.11 204.911 205 203.561C216.46 201.571 227.79 199.071 239 196.061C241.55 195.171 244.22 194.841 247 195.061Z" fill="#FDFCFB"/>
<path fill-rule="evenodd" clip-rule="evenodd" d="M113.001 269.062C117.331 275.732 121.671 282.392 126.001 289.062C121.311 288.722 116.971 287.222 113.001 284.562C99.2007 274.902 86.0307 264.402 73.5007 253.062C70.0907 248.572 66.9207 243.902 64.0007 239.062C58.2507 238.542 53.4107 236.202 49.5007 232.062C47.2607 228.442 48.0907 225.612 52.0007 223.562C61.6807 223.012 71.3507 222.682 81.0007 222.562C82.0807 224.292 82.2407 226.122 81.5007 228.062C78.7907 230.942 75.9607 233.602 73.0007 236.062C76.4307 242.322 81.1007 247.492 87.0007 251.562C95.2107 258.162 103.871 263.992 113.001 269.062Z" fill="#0A0A09"/>
<path fill-rule="evenodd" clip-rule="evenodd" d="M342.999 243.062C346.149 243.872 347.809 245.872 347.999 249.062C347.329 250.062 346.669 251.062 345.999 252.062C338.999 252.582 332.669 250.582 326.999 246.062C326.279 251.422 325.439 256.752 324.499 262.062C321.639 267.642 318.969 273.312 316.499 279.062C312.289 282.942 307.789 286.442 302.999 289.562C297.659 289.752 292.329 289.412 286.999 288.562C270.299 285.172 262.639 274.842 263.999 257.562C263.779 241.972 270.449 230.642 283.999 223.562C289.369 223.082 294.699 223.412 299.999 224.562C309.669 227.562 319.339 230.562 328.999 233.562C333.179 237.482 337.839 240.652 342.999 243.062Z" fill="#040404"/>
<path fill-rule="evenodd" clip-rule="evenodd" d="M153 259.061C152.2 257.521 151.87 255.851 152 254.061C152.04 251.021 153.04 248.361 155 246.061C162.72 237.681 172.05 231.521 183 227.561C191.17 225.161 199.51 224.491 208 225.561C215.58 226.081 221.75 229.251 226.5 235.061C227.82 241.081 230.15 246.741 233.5 252.061C234.17 256.391 234.17 260.731 233.5 265.061C226.22 284.351 212.39 292.851 192 290.561C187.82 289.051 184.15 286.711 181 283.561C176.32 278.211 173.16 272.051 171.5 265.061C170.83 261.391 170.83 257.731 171.5 254.061C172.9 252.411 173.07 250.751 172 249.061C168.15 252.751 164.15 256.251 160 259.561C157.57 260.261 155.24 260.101 153 259.061Z" fill="#040404"/>
<path fill-rule="evenodd" clip-rule="evenodd" d="M283 232.061C289.73 231.081 293.39 233.911 294 240.561C292.71 244.611 291.87 248.781 291.5 253.061C286.78 257.931 281.78 258.261 276.5 254.061C273.93 251.601 272.43 248.601 272 245.061C272.08 243.261 272.58 241.591 273.5 240.061C276.82 237.481 279.99 234.811 283 232.061Z" fill="#F4F4F4"/>
<path fill-rule="evenodd" clip-rule="evenodd" d="M209 236.062C216.97 235.362 221.3 239.022 222 247.062C221.07 250.932 219.57 254.602 217.5 258.062C207.73 264.602 201.9 261.932 200 250.062C201.51 244.362 204.51 239.692 209 236.062Z" fill="#F5F5F5"/>
<path fill-rule="evenodd" clip-rule="evenodd" d="M366 310.061C363.97 308.311 363.64 306.311 365 304.061C367.8 301.421 370.8 299.081 374 297.061C374.99 297.231 375.66 296.901 376 296.061C377.37 296.221 378.71 296.051 380 295.561C387.01 291.051 394.35 287.051 402 283.561C409.39 279.501 416.22 274.671 422.5 269.061C421.52 265.391 420.18 261.731 418.5 258.061C417.73 255.461 417.9 252.961 419 250.561C426.49 247.921 430.33 250.421 430.5 258.061C431.25 258.691 432.08 259.191 433 259.561C438.67 259.891 444.33 260.231 450 260.561C452.85 264.161 452.19 267.161 448 269.561C443.53 271.951 438.86 273.781 434 275.061C428.44 281.171 422.11 286.341 415 290.561C400.78 297.171 386.45 303.501 372 309.561C370.03 310.061 368.03 310.221 366 310.061Z" fill="#080707"/>
<path fill-rule="evenodd" clip-rule="evenodd" d="M348 249.062C359.31 263.692 367.98 279.692 374 297.062C370.8 299.082 367.8 301.422 365 304.062C362.62 289.302 356.95 275.972 348 264.062C348.17 260.712 348 257.382 347.5 254.062C347.22 253.142 346.72 252.482 346 252.062C346.67 251.062 347.33 250.062 348 249.062Z" fill="#703B0B"/>
<path fill-rule="evenodd" clip-rule="evenodd" d="M152 254.062C151.87 255.852 152.2 257.522 153 259.062C152.38 259.172 151.88 259.502 151.5 260.062C151.07 265.412 151.23 270.742 152 276.062C148.08 290.502 147.08 305.162 149 320.062C144.87 317.272 141.87 313.602 140 309.062C138.82 289.472 142.82 271.142 152 254.062Z" fill="#713D0F"/>
<path fill-rule="evenodd" clip-rule="evenodd" d="M348 264.062C356.95 275.972 362.62 289.302 365 304.062C363.64 306.312 363.97 308.312 366 310.062C354.47 330.592 337.47 344.592 315 352.062C311.96 352.902 308.96 353.902 306 355.062C288.43 360.282 270.43 362.952 252 363.062C251.81 352.392 251.48 341.722 251 331.062C265.44 329.372 279.78 326.872 294 323.562C324.46 314.942 342.46 295.112 348 264.062Z" fill="#FE871B"/>
<path fill-rule="evenodd" clip-rule="evenodd" d="M152 276.062C153.57 282.572 156.4 288.572 160.5 294.062C168.95 300.182 177.12 306.682 185 313.562C194.08 317.372 203.08 321.372 212 325.562C222.03 329.122 232.36 330.952 243 331.062C243.45 341.392 243.78 351.722 244 362.062C233.74 360.362 223.41 359.022 213 358.062C209.7 357.282 206.37 356.282 203 355.062C196.03 351.572 189.03 348.072 182 344.562C171.33 335.902 160.33 327.732 149 320.062C147.08 305.162 148.08 290.502 152 276.062Z" fill="#FD871B"/>
<path fill-rule="evenodd" clip-rule="evenodd" d="M266 293.061C271.5 292.391 273.67 294.721 272.5 300.061C269.69 304.861 266.19 309.031 262 312.561C253.74 312.521 246.24 310.021 239.5 305.061C238.01 300.731 239.51 298.391 244 298.061C247.9 299.011 251.57 300.511 255 302.561C256.33 303.231 257.67 303.231 259 302.561C261.46 299.451 263.8 296.291 266 293.061Z" fill="#0A0A0A"/>
<path fill-rule="evenodd" clip-rule="evenodd" d="M243 331.062C245.67 331.062 248.33 331.062 251 331.062C251.48 341.722 251.81 352.392 252 363.062C249.29 362.982 246.63 362.652 244 362.062C243.78 351.722 243.45 341.392 243 331.062Z" fill="#6F3C0E"/>
<path fill-rule="evenodd" clip-rule="evenodd" d="M314.999 352.062C314.939 369.402 315.269 386.742 315.999 404.062C320.959 403.062 325.959 402.902 330.999 403.562C336.009 406.652 336.339 410.312 331.999 414.562C326.699 417.542 321.029 419.382 314.999 420.062C313.129 420.172 311.629 419.502 310.499 418.062C307.919 411.712 306.579 405.042 306.499 398.062C305.999 383.732 305.829 369.402 305.999 355.062C308.959 353.902 311.959 352.902 314.999 352.062Z" fill="#070706"/>
<path fill-rule="evenodd" clip-rule="evenodd" d="M203 355.062C206.37 356.282 209.7 357.282 213 358.062C212.72 377.122 213.22 396.122 214.5 415.062C206.89 422.712 197.72 425.542 187 423.562C183.44 421.512 180.78 418.672 179 415.062C179.77 412.462 181.44 410.622 184 409.562C190.61 408.232 197.28 407.402 204 407.062C203.2 389.742 202.87 372.412 203 355.062Z" fill="#050505"/>
</svg>
