<svg width="500" height="500" viewBox="0 0 500 500" fill="none" xmlns="http://www.w3.org/2000/svg">
<path fill-rule="evenodd" clip-rule="evenodd" d="M315.999 156.062C314.669 156.062 313.329 156.062 311.999 156.062C307.719 153.582 303.059 152.422 297.999 152.562C287.149 159.402 277.489 167.732 268.999 177.562C256.219 186.922 241.889 190.592 225.999 188.562C216.209 184.942 210.209 178.112 207.999 168.062C194.199 167.132 180.529 165.292 166.999 162.562C164.189 161.652 161.519 160.492 158.999 159.062C153.569 149.182 152.739 138.852 156.499 128.062C163.229 110.742 173.729 96.2415 187.999 84.5615C194.589 80.0015 201.929 77.5015 209.999 77.0615C229.199 78.2015 247.529 82.7015 264.999 90.5615C274.149 97.5415 281.149 106.202 285.999 116.562C292.979 117.392 299.979 118.062 306.999 118.562C319.559 121.132 327.559 128.462 330.999 140.562C329.879 149.512 324.879 154.682 315.999 156.062Z" fill="#364ABA"/>
<path fill-rule="evenodd" clip-rule="evenodd" d="M214 85.0615C228.89 85.6315 243.23 88.8015 257 94.5615C261.17 96.1415 264.84 98.4815 268 101.562C272 106.562 276 111.562 280 116.562C272.92 119.942 265.92 123.602 259 127.562C245 137.232 231 146.892 217 156.562C207.34 157.062 197.67 157.232 188 157.062C186.63 139.152 189.13 121.822 195.5 105.062C196.5 102.732 198.17 101.062 200.5 100.062C201.22 98.4515 201.05 96.9515 200 95.5615C208.3 96.6015 212.96 93.1015 214 85.0615Z" fill="#4058DE"/>
<path fill-rule="evenodd" clip-rule="evenodd" d="M192 90.0615C193.96 92.0515 196.3 93.5515 199 94.5615C195.94 95.6215 193.44 97.4515 191.5 100.062C189.3 105.652 187.3 111.322 185.5 117.062C183.37 130.322 181.87 143.652 181 157.062C175.7 155.792 170.37 154.622 165 153.562C162.51 152.432 161.51 150.432 162 147.562C164.24 139.512 166.07 131.352 167.5 123.062C174.34 111.052 182.51 100.052 192 90.0615Z" fill="#3F57DE"/>
<path fill-rule="evenodd" clip-rule="evenodd" d="M227 102.061C235.55 101.101 239.05 104.771 237.5 113.061C237.13 115.561 236.29 117.891 235 120.061C236.5 120.391 238 120.731 239.5 121.061C243.58 119.941 247.75 119.271 252 119.061C251.94 122.291 250.27 124.121 247 124.561C240.99 126.121 234.99 126.451 229 125.561C227.79 128.601 226.96 131.761 226.5 135.061C224.56 136.421 222.9 136.091 221.5 134.061C221.17 128.731 220.83 123.391 220.5 118.061C217.19 120.541 214.02 123.211 211 126.061C209.45 124.791 208.45 123.131 208 121.061C211.69 117.211 215.19 113.211 218.5 109.061C220.94 106.111 223.77 103.771 227 102.061Z" fill="#F6F7FD"/>
<path fill-rule="evenodd" clip-rule="evenodd" d="M231 107.062C232.19 107.432 232.86 108.262 233 109.562C231.89 112.622 230.39 115.452 228.5 118.062C227.66 116.212 226.83 114.382 226 112.562C227.87 110.862 229.54 109.022 231 107.062Z" fill="#485EE0"/>
<path fill-rule="evenodd" clip-rule="evenodd" d="M281.999 122.062C290.239 123.562 298.569 124.722 306.999 125.562C315.829 128.302 322.829 133.472 327.999 141.062C327.339 147.552 323.839 151.212 317.499 152.062C311.719 151.572 306.219 150.072 300.999 147.562C293.119 147.662 286.119 150.332 279.999 155.562C273.699 160.862 267.699 166.532 261.999 172.562C256.169 175.642 250.499 178.972 244.999 182.562C238.719 183.982 232.389 184.322 225.999 183.562C217.239 178.862 214.579 171.862 217.999 162.562C233.009 153.052 247.679 143.052 261.999 132.562C268.629 128.752 275.299 125.252 281.999 122.062Z" fill="#3F57DE"/>
<path fill-rule="evenodd" clip-rule="evenodd" d="M408 251.062C402.03 251.862 397.7 254.862 395 260.062C395.38 261.942 396.38 263.442 398 264.562C401.03 265.062 404.03 264.892 407 264.062C408.13 266.192 408.3 268.522 407.5 271.062C404.66 269.882 401.83 270.052 399 271.562C395.83 273.262 392.83 275.092 390 277.062C389 275.062 388 273.062 387 271.062C386.67 268.392 386.33 265.732 386 263.062C379.84 239.072 375.67 214.742 373.5 190.062C372.31 182.292 370.64 174.622 368.5 167.062C367.32 158.422 366.99 149.752 367.5 141.062C373.47 132.072 381.64 129.242 392 132.562C397.2 134.772 400.7 138.602 402.5 144.062C406.82 179.552 408.65 215.222 408 251.062Z" fill="#FBCD89"/>
<path fill-rule="evenodd" clip-rule="evenodd" d="M312 156.061C311.34 158.031 310.67 160.031 310 162.061C307.11 162.271 304.11 162.441 301 162.561C298.33 164.891 298.33 167.231 301 169.561C303.68 169.811 306.01 170.811 308 172.561C306.63 177.291 305.63 182.121 305 187.061C301.49 186.551 298.33 187.221 295.5 189.061C294.5 194.891 297 197.231 303 196.061C302.2 202.041 301.54 208.041 301 214.061C297.98 213.901 294.98 214.061 292 214.561C288.57 216.931 288.23 219.591 291 222.561C293.65 223.061 296.31 223.221 299 223.061C299 227.731 299 232.391 299 237.061C263.26 222.241 226.93 221.081 190 233.561C186.62 235.251 183.62 237.411 181 240.061C180.34 237.421 179.67 234.761 179 232.061C184 231.561 185.83 228.901 184.5 224.061C181.76 222.831 179.1 221.501 176.5 220.061C174.39 211.361 172.23 202.691 170 194.061C175.84 195.041 178.67 192.711 178.5 187.061C178 186.561 177.5 186.061 177 185.561C173.35 185.061 169.68 184.891 166 185.061C163.29 176.631 160.29 168.301 157 160.061C157.34 159.221 158.01 158.891 159 159.061C161.52 160.491 164.19 161.651 167 162.561C180.53 165.291 194.2 167.131 208 168.061C210.21 178.111 216.21 184.941 226 188.561C241.89 190.591 256.22 186.921 269 177.561C277.49 167.731 287.15 159.401 298 152.561C303.06 152.421 307.72 153.581 312 156.061Z" fill="#FDFDFD"/>
<path fill-rule="evenodd" clip-rule="evenodd" d="M320 161.062C325.59 169.162 331.42 177.162 337.5 185.062C340.88 191.192 343.88 197.522 346.5 204.062C350.93 221.552 354.6 239.222 357.5 257.062C358.17 265.802 357.67 274.462 356 283.062C349.64 283.492 348.64 285.832 353 290.062C347.84 313.432 335.51 331.762 316 345.062C314.85 341.472 313.85 337.812 313 334.062C315.14 332.312 316.81 330.142 318 327.562C316.72 323.752 314.06 322.252 310 323.062C310 321.062 310 319.062 310 317.062C314.26 311.552 317.76 305.552 320.5 299.062C322.37 290.172 323.21 281.172 323 272.062C324.29 272.302 325.29 271.962 326 271.062C327.88 269.902 328.38 268.232 327.5 266.062C325.02 264.252 322.52 262.582 320 261.062C318.17 252.722 313.83 246.052 307 241.062C307 235.042 307.34 229.042 308 223.062C310.62 223.332 313.12 223.002 315.5 222.062C316.83 217.222 314.99 214.892 310 215.062C309.86 209.612 310.53 204.282 312 199.062C314.66 198.302 317.32 197.632 320 197.062C322.26 191.312 320.26 188.652 314 189.062C313.98 185.002 314.48 181.002 315.5 177.062C323.02 175.132 323.86 171.632 318 166.562C318.45 164.532 319.12 162.702 320 161.062Z" fill="#FEFDFD"/>
<path fill-rule="evenodd" clip-rule="evenodd" d="M150 168.062C153.52 174.102 156.19 180.602 158 187.562C155.86 189.702 153.69 191.872 151.5 194.062C149.59 199.652 151.42 201.822 157 200.562C158.19 199.212 159.52 198.042 161 197.062C164.56 205.412 166.89 214.072 168 223.062C163.34 223.052 160 225.052 158 229.062C158.03 230.592 158.7 231.762 160 232.562C163.21 233.362 166.21 232.862 169 231.062C170.31 232.472 171.14 234.142 171.5 236.062C172.65 241.362 172.98 246.692 172.5 252.062C170.33 253.152 168.33 254.482 166.5 256.062C165.56 258.552 166.06 260.552 168 262.062C166.59 266.642 165.59 271.302 165 276.062C164.7 278.622 165.03 280.952 166 283.062C167.77 292.792 170.77 302.132 175 311.062C168.01 310.892 166.35 313.722 170 319.562C171.29 320.052 172.63 320.222 174 320.062C173.82 325.282 173.16 330.452 172 335.562C170.48 337.592 169.15 339.752 168 342.062C170.12 345.562 170.45 349.232 169 353.062C147.51 334.752 132.51 312.082 124 285.062C128.46 287.242 131.12 285.912 132 281.062C131.52 280.082 130.86 279.252 130 278.562C125.93 276.822 121.93 274.982 118 273.062C114.96 256.242 115.8 239.572 120.5 223.062C124.91 210.172 129.91 197.502 135.5 185.062C139.82 178.912 144.66 173.242 150 168.062Z" fill="#FEFDFD"/>
<path fill-rule="evenodd" clip-rule="evenodd" d="M157 160.062C160.29 168.302 163.29 176.632 166 185.062C169.68 184.892 173.35 185.062 177 185.562C177.5 186.062 178 186.562 178.5 187.062C178.67 192.712 175.84 195.042 170 194.062C172.23 202.692 174.39 211.362 176.5 220.062C179.1 221.502 181.76 222.832 184.5 224.062C185.83 228.902 184 231.562 179 232.062C179.67 234.762 180.34 237.422 181 240.062C177.17 247.732 172.84 255.062 168 262.062C166.06 260.552 165.56 258.552 166.5 256.062C168.33 254.482 170.33 253.152 172.5 252.062C172.98 246.692 172.65 241.362 171.5 236.062C171.14 234.142 170.31 232.472 169 231.062C166.21 232.862 163.21 233.362 160 232.562C158.7 231.762 158.03 230.592 158 229.062C160 225.052 163.34 223.052 168 223.062C166.89 214.072 164.56 205.412 161 197.062C159.52 198.042 158.19 199.212 157 200.562C151.42 201.822 149.59 199.652 151.5 194.062C153.69 191.872 155.86 189.702 158 187.562C156.19 180.602 153.52 174.102 150 168.062C148.78 163.542 150.45 160.202 155 158.062C155.68 158.802 156.35 159.472 157 160.062Z" fill="#F45C50"/>
<path fill-rule="evenodd" clip-rule="evenodd" d="M312.001 156.062C313.331 156.062 314.671 156.062 316.001 156.062C317.331 157.732 318.671 159.392 320.001 161.062C319.121 162.702 318.451 164.532 318.001 166.562C323.861 171.632 323.021 175.132 315.501 177.062C314.481 181.002 313.981 185.002 314.001 189.062C320.261 188.652 322.261 191.312 320.001 197.062C317.321 197.632 314.661 198.302 312.001 199.062C310.531 204.282 309.861 209.612 310.001 215.062C314.991 214.892 316.831 217.222 315.501 222.062C313.121 223.002 310.621 223.332 308.001 223.062C307.341 229.042 307.001 235.042 307.001 241.062C304.561 239.292 301.891 237.962 299.001 237.062C299.001 232.392 299.001 227.732 299.001 223.062C296.311 223.222 293.651 223.062 291.001 222.562C288.231 219.592 288.571 216.932 292.001 214.562C294.981 214.062 297.981 213.902 301.001 214.062C301.541 208.042 302.201 202.042 303.001 196.062C297.001 197.232 294.501 194.892 295.501 189.062C298.331 187.222 301.491 186.552 305.001 187.062C305.631 182.122 306.631 177.292 308.001 172.562C306.011 170.812 303.681 169.812 301.001 169.562C298.331 167.232 298.331 164.892 301.001 162.562C304.111 162.442 307.111 162.272 310.001 162.062C310.671 160.032 311.341 158.032 312.001 156.062Z" fill="#F55B4F"/>
<path fill-rule="evenodd" clip-rule="evenodd" d="M299 237.061C301.89 237.961 304.56 239.291 307 241.061C313.83 246.051 318.17 252.721 320 261.061C317.06 259.251 314.06 257.421 311 255.561C300.89 252.281 290.56 250.121 280 249.061C276.88 248.991 273.88 249.491 271 250.561C256.92 263.641 254.42 278.801 263.5 296.061C271.81 302.851 281.31 305.351 292 303.561C297.5 300.731 301.67 296.561 304.5 291.061C306.44 286.841 308.11 282.501 309.5 278.061C309.75 273.941 309.91 269.941 310 266.061C314.66 269.621 319.99 271.291 326 271.061C325.29 271.961 324.29 272.301 323 272.061C323.21 281.171 322.37 290.171 320.5 299.061C317.76 305.551 314.26 311.551 310 317.061C307.59 319.481 304.93 321.481 302 323.061C288.18 327.391 274.18 331.221 260 334.561C245.08 336.891 230.08 337.561 215 336.561C202.84 334.311 192.18 329.151 183 321.061C180.68 317.411 178.02 314.081 175 311.061C170.77 302.131 167.77 292.791 166 283.061C168.38 284.391 170.71 284.221 173 282.561C175.83 279.731 178.67 276.891 181.5 274.061C180.14 282.951 181.8 291.281 186.5 299.061C200.66 312.141 214.32 311.481 227.5 297.061C229.52 293.031 231.52 289.031 233.5 285.061C234.68 277.751 232.68 271.421 227.5 266.061C227.39 261.941 225.56 258.771 222 256.561C198.28 249.431 179.28 255.931 165 276.061C165.59 271.301 166.59 266.641 168 262.061C172.84 255.061 177.17 247.731 181 240.061C183.62 237.411 186.62 235.251 190 233.561C226.93 221.081 263.26 222.241 299 237.061Z" fill="#7E9CD3"/>
<path fill-rule="evenodd" clip-rule="evenodd" d="M118.001 273.061C121.931 274.981 125.931 276.821 130.001 278.561C130.861 279.251 131.521 280.081 132.001 281.061C131.121 285.911 128.461 287.241 124.001 285.061C113.661 280.571 104.491 274.241 96.5007 266.061C94.0907 263.501 92.4207 260.501 91.5007 257.061C83.0807 259.961 79.5807 257.131 81.0007 248.561C85.7007 250.261 89.5407 249.091 92.5007 245.061C92.9407 242.181 93.9407 239.521 95.5007 237.061C98.9307 235.941 101.091 237.281 102.001 241.061C102.161 246.421 101.661 251.761 100.501 257.061C105.251 263.651 111.091 268.981 118.001 273.061Z" fill="#050507"/>
<path fill-rule="evenodd" clip-rule="evenodd" d="M320 261.062C322.52 262.582 325.02 264.252 327.5 266.062C328.38 268.232 327.88 269.902 326 271.062C319.99 271.292 314.66 269.622 310 266.062C309.91 269.942 309.75 273.942 309.5 278.062C308.11 282.502 306.44 286.842 304.5 291.062C301.67 296.562 297.5 300.732 292 303.562C281.31 305.352 271.81 302.852 263.5 296.062C254.42 278.802 256.92 263.642 271 250.562C273.88 249.492 276.88 248.992 280 249.062C290.56 250.122 300.89 252.282 311 255.562C314.06 257.422 317.06 259.252 320 261.062Z" fill="#030304"/>
<path fill-rule="evenodd" clip-rule="evenodd" d="M408 251.062C412.79 251.682 414.62 254.352 413.5 259.062C412.13 260.602 410.63 261.932 409 263.062C408.01 262.892 407.34 263.222 407 264.062C404.03 264.892 401.03 265.062 398 264.562C396.38 263.442 395.38 261.942 395 260.062C397.7 254.862 402.03 251.862 408 251.062Z" fill="#080705"/>
<path fill-rule="evenodd" clip-rule="evenodd" d="M166 283.062C165.03 280.952 164.7 278.622 165 276.062C179.28 255.932 198.28 249.432 222 256.562C225.56 258.772 227.39 261.942 227.5 266.062C232.68 271.422 234.68 277.752 233.5 285.062C231.52 289.032 229.52 293.032 227.5 297.062C214.32 311.482 200.66 312.142 186.5 299.062C181.8 291.282 180.14 282.952 181.5 274.062C178.67 276.892 175.83 279.732 173 282.562C170.71 284.222 168.38 284.392 166 283.062Z" fill="#030304"/>
<path fill-rule="evenodd" clip-rule="evenodd" d="M274 256.062C279.32 255.892 282.32 258.392 283 263.562C283.21 268.732 281.55 273.072 278 276.562C272.89 278.132 269.06 276.632 266.5 272.062C264.5 268.732 264.5 265.392 266.5 262.062C269.19 260.202 271.69 258.202 274 256.062Z" fill="#F4F4F4"/>
<path fill-rule="evenodd" clip-rule="evenodd" d="M212 262.061C218.96 261.041 222.63 264.041 223 271.061C222.3 277.491 218.96 281.821 213 284.061C207.97 282.701 205.31 279.371 205 274.061C205.83 269.061 208.16 265.061 212 262.061Z" fill="#F5F5F5"/>
<path fill-rule="evenodd" clip-rule="evenodd" d="M386 263.062C386.33 265.732 386.67 268.392 387 271.062C379.38 281.112 369.55 287.782 357.5 291.062C355.91 290.952 354.41 290.622 353 290.062C348.64 285.832 349.64 283.492 356 283.062C366.65 277.402 376.65 270.732 386 263.062Z" fill="#050507"/>
<path fill-rule="evenodd" clip-rule="evenodd" d="M407 264.062C407.34 263.222 408.01 262.892 409 263.062C409.01 270.462 409.68 277.792 411 285.062C407.74 286.022 404.74 287.522 402 289.562C399.93 290.252 397.93 290.082 396 289.062C394.42 290.022 392.76 290.682 391 291.062C391.75 286.412 391.42 281.742 390 277.062C392.83 275.092 395.83 273.262 399 271.562C401.83 270.052 404.66 269.882 407.5 271.062C408.3 268.522 408.13 266.192 407 264.062Z" fill="#E5E3E2"/>
<path fill-rule="evenodd" clip-rule="evenodd" d="M411.001 285.062C421.621 291.862 421.621 298.692 411.001 305.562C405.761 309.542 400.101 310.542 394.001 308.562C388.561 303.592 387.561 297.762 391.001 291.062C392.761 290.682 394.421 290.022 396.001 289.062C397.931 290.082 399.931 290.252 402.001 289.562C404.741 287.522 407.741 286.022 411.001 285.062Z" fill="#FACD8A"/>
<path fill-rule="evenodd" clip-rule="evenodd" d="M262 307.062C264.77 307.162 266.77 308.492 268 311.062C265.71 315.482 263.04 319.652 260 323.562C257.8 324.932 255.47 325.272 253 324.562C248.53 322.572 244.03 320.742 239.5 319.062C238.76 317.122 238.92 315.292 240 313.562C245.44 313.622 250.77 314.292 256 315.562C258.22 312.852 260.22 310.012 262 307.062Z" fill="#08090B"/>
<path fill-rule="evenodd" clip-rule="evenodd" d="M175 311.061C178.02 314.081 180.68 317.411 183 321.061C182.24 327.051 181.57 333.051 181 339.061C185.01 338.251 187.68 339.751 189 343.561C186.86 347.441 183.52 348.941 179 348.061C178.17 351.701 177.51 355.361 177 359.061C173.41 358.121 170.74 356.121 169 353.061C170.45 349.231 170.12 345.561 168 342.061C169.15 339.751 170.48 337.591 172 335.561C173.16 330.451 173.82 325.281 174 320.061C172.63 320.221 171.29 320.051 170 319.561C166.35 313.721 168.01 310.891 175 311.061Z" fill="#F45B4F"/>
<path fill-rule="evenodd" clip-rule="evenodd" d="M183 321.062C192.18 329.152 202.84 334.312 215 336.562C230.08 337.562 245.08 336.892 260 334.562C274.18 331.222 288.18 327.392 302 323.062C302 324.062 302 325.062 302 326.062C298.75 325.982 295.92 326.982 293.5 329.062C292.68 331.262 293.18 333.092 295 334.562C298.11 334.682 301.11 334.852 304 335.062C305.87 340.682 307.54 346.352 309 352.062C298.38 358.162 287.38 363.492 276 368.062C274.12 367.792 272.79 368.462 272 370.062C266.98 371.062 261.98 372.232 257 373.562C245.99 373.102 234.99 373.272 224 374.062C224.16 372.032 224 370.032 223.5 368.062C222.78 367.502 221.94 367.172 221 367.062C218.72 368.342 216.72 370.012 215 372.062C201.6 369.882 188.93 365.542 177 359.062C177.51 355.362 178.17 351.702 179 348.062C183.52 348.942 186.86 347.442 189 343.562C187.68 339.752 185.01 338.252 181 339.062C181.57 333.052 182.24 327.052 183 321.062Z" fill="#FDFDFD"/>
<path fill-rule="evenodd" clip-rule="evenodd" d="M310.001 317.062C310.001 319.062 310.001 321.062 310.001 323.062C314.061 322.252 316.721 323.752 318.001 327.562C316.811 330.142 315.141 332.312 313.001 334.062C313.851 337.812 314.851 341.472 316.001 345.062C315.291 348.932 312.961 351.262 309.001 352.062C307.541 346.352 305.871 340.682 304.001 335.062C301.111 334.852 298.111 334.682 295.001 334.562C293.181 333.092 292.681 331.262 293.501 329.062C295.921 326.982 298.751 325.982 302.001 326.062C302.001 325.062 302.001 324.062 302.001 323.062C304.931 321.482 307.591 319.482 310.001 317.062Z" fill="#F45D51"/>
<path fill-rule="evenodd" clip-rule="evenodd" d="M224 374.062C224.07 383.732 224.41 393.402 225 403.062C225.1 407.512 224.6 411.842 223.5 416.062C218.04 418.622 212.38 420.622 206.5 422.062C202.59 422.152 200.09 420.322 199 416.562C199.28 414.672 200.28 413.342 202 412.562C207.1 410.252 212.43 409.082 218 409.062C216.53 396.772 215.53 384.432 215 372.062C216.72 370.012 218.72 368.342 221 367.062C221.94 367.172 222.78 367.502 223.5 368.062C224 370.032 224.16 372.032 224 374.062Z" fill="#06070A"/>
<path fill-rule="evenodd" clip-rule="evenodd" d="M276 368.061C278.53 370.291 279.86 373.121 280 376.561C279.09 386.371 278.76 396.201 279 406.061C284.24 404.341 289.24 404.841 294 407.561C296.85 410.661 296.52 413.321 293 415.561C287.97 415.831 282.97 416.331 278 417.061C275.8 416.711 273.97 415.711 272.5 414.061C271.49 399.321 271.32 384.661 272 370.061C272.79 368.461 274.12 367.791 276 368.061Z" fill="#08090C"/>
</svg>
