<svg width="500" height="500" viewBox="0 0 500 500" fill="none" xmlns="http://www.w3.org/2000/svg">
<path fill-rule="evenodd" clip-rule="evenodd" d="M264 86.0614C261.05 88.8314 257.55 90.5014 253.5 91.0614C250.64 90.0114 247.8 89.8414 245 90.5614C243.72 89.1514 242.72 87.6514 242 86.0614C235.6 81.2714 232.44 74.9414 232.5 67.0614C235.57 65.9414 238.74 65.7814 242 66.5614C243.95 68.6314 245.79 70.8014 247.5 73.0614C247.09 64.8214 249.93 57.9814 256 52.5614C262.09 49.4914 265.42 51.3214 266 58.0614C265.05 63.3514 263.72 68.5114 262 73.5614C265.48 72.1414 268.81 70.1414 272 67.5614C274 67.0614 276 66.5614 278 66.0614C280.57 66.4614 281.9 67.9614 282 70.5614C281.67 72.7314 280.67 74.5714 279 76.0614C273.8 79.1614 268.8 82.4914 264 86.0614Z" fill="#060606"/>
<path fill-rule="evenodd" clip-rule="evenodd" d="M242.001 86.0615C242.721 87.6515 243.721 89.1515 245.001 90.5615C247.801 89.8415 250.641 90.0115 253.501 91.0615C257.551 90.5015 261.051 88.8315 264.001 86.0615C280.921 90.7115 297.921 95.5415 315.001 100.562C321.701 104.242 328.371 107.912 335.001 111.562C340.551 117.772 346.711 123.272 353.501 128.062C357.991 133.042 361.991 138.372 365.501 144.062C371.431 154.692 377.431 165.352 383.501 176.062C388.561 191.292 392.401 206.792 395.001 222.562C409.341 217.942 421.341 209.602 431.001 197.562C435.801 192.992 441.461 190.992 448.001 191.562C465.571 196.212 469.741 206.372 460.501 222.062C456.821 226.902 452.661 231.242 448.001 235.062C458.881 245.832 458.541 256.332 447.001 266.562C440.711 270.532 434.211 274.032 427.501 277.062C428.601 298.472 418.431 310.132 397.001 312.062C394.421 311.702 391.921 311.032 389.501 310.062C379.871 330.702 366.711 348.872 350.001 364.562C338.611 371.912 326.271 376.912 313.001 379.562C312.121 380.922 311.791 382.422 312.001 384.062C311.071 382.992 310.731 381.662 311.001 380.062C306.191 380.242 301.861 381.572 298.001 384.062C294.681 384.892 291.351 385.722 288.001 386.562C262.611 387.592 237.281 387.092 212.001 385.062C205.751 383.922 199.421 382.592 193.001 381.062C187.141 378.492 181.141 375.992 175.001 373.562C163.151 364.802 151.491 355.802 140.001 346.562C128.891 336.162 120.391 324.002 114.501 310.062C104.651 318.772 93.8205 320.272 82.0005 314.562C74.8005 308.622 72.4705 301.122 75.0005 292.062C64.6605 292.112 54.9905 289.612 46.0005 284.562C35.7305 273.212 37.0705 263.372 50.0005 255.062C43.8205 248.052 38.6605 240.392 34.5005 232.062C33.8305 226.392 33.8305 220.732 34.5005 215.062C39.7605 201.532 48.5905 198.372 61.0005 205.562C71.0505 217.092 83.3805 225.262 98.0005 230.062C99.4005 222.462 100.231 214.802 100.501 207.062C103.561 198.902 105.891 190.572 107.501 182.062C115.231 166.182 124.731 151.512 136.001 138.062C140.131 133.832 144.801 130.332 150.001 127.562C154.981 122.252 160.311 117.252 166.001 112.562C178.121 105.412 190.781 99.4115 204.001 94.5615C216.931 91.6515 229.591 88.8215 242.001 86.0615Z" fill="#504D73"/>
<path fill-rule="evenodd" clip-rule="evenodd" d="M202 119.062C195 118.232 192.5 121.232 194.5 128.062C198.1 131.652 201.93 131.982 206 129.062C206.76 131.712 206.26 134.382 204.5 137.062C201.65 139.922 198.32 141.922 194.5 143.062C183.79 141.692 179.13 135.692 180.5 125.062C184.19 120.042 189.19 117.042 195.5 116.062C198.17 116.222 200.34 117.222 202 119.062Z" fill="#030304"/>
<path fill-rule="evenodd" clip-rule="evenodd" d="M202.001 119.062C206.871 120.902 208.211 124.242 206.001 129.062C201.931 131.982 198.101 131.652 194.501 128.062C192.501 121.232 195.001 118.232 202.001 119.062Z" fill="#F0F0F1"/>
<path fill-rule="evenodd" clip-rule="evenodd" d="M292.001 121.061C284.121 124.281 283.121 128.781 289.001 134.561C292.531 135.221 295.361 134.051 297.501 131.061C298.091 127.831 297.591 124.831 296.001 122.061C296.831 121.231 297.661 121.561 298.501 123.061C302.241 128.681 302.901 134.681 300.501 141.061C297.221 146.671 292.391 148.501 286.001 146.561C277.911 143.801 275.081 138.301 277.501 130.061C280.001 126.891 282.501 123.731 285.001 120.561C287.541 119.761 289.871 119.931 292.001 121.061Z" fill="#050507"/>
<path fill-rule="evenodd" clip-rule="evenodd" d="M291.999 121.062C293.459 120.992 294.789 121.332 295.999 122.062C297.589 124.832 298.089 127.832 297.499 131.062C295.359 134.052 292.529 135.222 288.999 134.562C283.119 128.782 284.119 124.282 291.999 121.062Z" fill="#F1F1F1"/>
<path fill-rule="evenodd" clip-rule="evenodd" d="M246 136.062C248.69 135.902 251.35 136.062 254 136.562C260.74 147.162 259.4 156.832 250 165.562C243 168.472 237.17 166.972 232.5 161.062C227.73 163.362 222.89 165.532 218 167.562C210 168.562 208 165.562 212 158.562C219.18 153.472 226.18 148.142 233 142.562C237.27 140.092 241.6 137.932 246 136.062Z" fill="#020103"/>
<path fill-rule="evenodd" clip-rule="evenodd" d="M338.999 243.062C336.359 240.742 333.359 238.902 329.999 237.562C320.679 234.902 311.349 232.242 301.999 229.562C295.889 228.652 289.889 228.982 283.999 230.562C280.039 232.792 276.539 235.632 273.499 239.062C265.129 253.392 263.799 268.392 269.499 284.062C274.379 291.932 281.549 296.432 290.999 297.562C296.329 298.412 301.659 298.752 306.999 298.562C312.289 295.332 317.119 291.502 321.499 287.062C325.659 279.742 328.989 272.082 331.499 264.062C331.209 260.352 331.379 256.692 331.999 253.062C334.329 254.562 336.669 256.062 338.999 257.562C341.979 257.662 344.649 258.492 346.999 260.062C348.759 270.602 347.929 280.932 344.499 291.062C338.559 312.002 325.059 325.172 303.999 330.562C273.389 337.622 242.389 339.962 210.999 337.562C187.029 334.342 168.859 322.512 156.499 302.062C153.399 289.782 153.229 277.452 155.999 265.062C160.289 261.942 164.459 258.612 168.499 255.062C166.639 266.012 168.299 276.342 173.499 286.062C185.259 300.202 199.429 303.032 215.999 294.562C225.719 287.282 232.049 277.782 234.999 266.062C234.169 259.072 231.669 252.742 227.499 247.062C226.419 237.982 221.249 232.812 211.999 231.562C201.969 228.402 191.969 228.402 181.999 231.562C177.639 233.412 173.309 235.242 168.999 237.062C168.559 237.132 168.229 236.962 167.999 236.562C178.309 226.582 189.979 218.582 202.999 212.562C211.909 211.082 220.569 208.742 228.999 205.562C240.679 204.552 252.349 204.052 263.999 204.062C277.769 203.512 290.769 206.352 302.999 212.562C309.499 215.972 315.829 219.642 321.999 223.562C328.639 229.362 334.309 235.862 338.999 243.062Z" fill="#FCFCFC"/>
<path fill-rule="evenodd" clip-rule="evenodd" d="M155.999 265.061C153.699 266.381 151.359 266.381 148.999 265.061C147.839 261.781 147.679 258.441 148.499 255.061C153.989 247.391 160.829 241.391 168.999 237.061C173.309 235.241 177.639 233.411 181.999 231.561C191.969 228.401 201.969 228.401 211.999 231.561C221.249 232.811 226.419 237.981 227.499 247.061C231.669 252.741 234.169 259.071 234.999 266.061C232.049 277.781 225.719 287.281 215.999 294.561C199.429 303.031 185.259 300.201 173.499 286.061C168.299 276.341 166.639 266.011 168.499 255.061C164.459 258.611 160.289 261.941 155.999 265.061Z" fill="#040404"/>
<path fill-rule="evenodd" clip-rule="evenodd" d="M339.001 243.062C343.101 246.622 347.771 249.452 353.001 251.562C356.111 257.822 354.111 260.662 347.001 260.062C344.651 258.492 341.981 257.662 339.001 257.562C336.671 256.062 334.331 254.562 332.001 253.062C331.381 256.692 331.211 260.352 331.501 264.062C328.991 272.082 325.661 279.742 321.501 287.062C317.121 291.502 312.291 295.332 307.001 298.562C301.661 298.752 296.331 298.412 291.001 297.562C281.551 296.432 274.381 291.932 269.501 284.062C263.801 268.392 265.131 253.392 273.501 239.062C276.541 235.632 280.041 232.792 284.001 230.562C289.891 228.982 295.891 228.652 302.001 229.562C311.351 232.242 320.681 234.902 330.001 237.562C333.361 238.902 336.361 240.742 339.001 243.062Z" fill="#030303"/>
<path fill-rule="evenodd" clip-rule="evenodd" d="M286 238.061C292.92 237.331 296.92 240.331 298 247.061C296.75 251.281 295.92 255.621 295.5 260.061C286.83 266.561 280.16 264.891 275.5 255.061C273.78 248.141 276.28 243.641 283 241.561C284.21 240.521 285.21 239.351 286 238.061Z" fill="#F4F4F4"/>
<path fill-rule="evenodd" clip-rule="evenodd" d="M209 241.062C219.22 242.132 223.06 247.802 220.5 258.062C218.29 263.922 214.12 267.592 208 269.062C202.04 266.822 198.7 262.492 198 256.062C199.5 249.372 203.16 244.372 209 241.062Z" fill="#F5F5F5"/>
<path fill-rule="evenodd" clip-rule="evenodd" d="M267 302.062C269.03 301.902 271.03 302.062 273 302.562C274.39 303.522 275.06 304.852 275 306.562C272.7 313.162 268.7 318.492 263 322.562C259.57 323.262 256.24 322.932 253 321.562C249.38 318.922 245.38 317.082 241 316.062C239.16 314.032 238.66 311.702 239.5 309.062C240.8 307.582 242.47 306.912 244.5 307.062C248.58 307.852 252.42 309.352 256 311.562C257.76 312.362 259.43 312.192 261 311.062C263.26 308.202 265.26 305.202 267 302.062Z" fill="#090909"/>
<path fill-rule="evenodd" clip-rule="evenodd" d="M312 384.062C312.2 393.662 313.87 402.992 317 412.062C325.6 412.942 332.77 416.612 338.5 423.062C340.31 428.582 338.31 431.252 332.5 431.062C328.31 430.692 324.31 429.692 320.5 428.062C321.02 433.832 319.18 438.662 315 442.562C310.8 445.222 307.63 444.392 305.5 440.062C305.17 437.062 304.83 434.062 304.5 431.062C299.95 433.332 295.29 435.332 290.5 437.062C283.64 435.522 281.81 431.682 285 425.562C289.93 421.472 295.26 417.972 301 415.062C301.33 414.232 301.67 413.392 302 412.562C299.65 403.212 298.31 393.712 298 384.062C301.86 381.572 306.19 380.242 311 380.062C310.73 381.662 311.07 382.992 312 384.062Z" fill="#060606"/>
<path fill-rule="evenodd" clip-rule="evenodd" d="M193 381.062C199.42 382.592 205.75 383.922 212 385.062C213.55 396.132 213.22 407.132 211 418.062C216.23 419.452 220.9 421.952 225 425.562C231.33 432.702 229.66 436.862 220 438.062C217.11 437.282 214.44 435.952 212 434.062C211.17 438.022 210.67 442.022 210.5 446.062C208.64 448.772 206.14 449.602 203 448.562C197.93 444.252 195.76 438.752 196.5 432.062C192.6 434.962 188.43 437.462 184 439.562C176.17 440.082 174.34 436.922 178.5 430.062C183.05 425.032 188.55 421.362 195 419.062C195.4 406.412 194.73 393.742 193 381.062Z" fill="#090909"/>
</svg>
