<svg width="500" height="500" viewBox="0 0 500 500" fill="none" xmlns="http://www.w3.org/2000/svg">
<path fill-rule="evenodd" clip-rule="evenodd" d="M301 51.0612C309.22 49.7412 316.55 51.5812 323 56.5612C337.12 69.5712 344.29 85.7412 344.5 105.061C345.75 108.641 346.75 112.311 347.5 116.061C348.14 132.391 348.81 148.731 349.5 165.061C358.06 174.511 365.4 184.851 371.5 196.061C384.52 226.851 388.85 258.851 384.5 292.061C382.7 298.471 380.7 304.801 378.5 311.061C373.25 319.231 368.25 327.561 363.5 336.061C345.04 354.541 323.21 367.211 298 374.061C302.89 381.891 306.72 390.231 309.5 399.061C311.95 408.981 308.79 416.481 300 421.561C295.43 422.641 291.26 421.801 287.5 419.061C287.46 422.531 287.62 426.031 288 429.561C288.38 441.001 283.05 447.831 272 450.061C263.83 447.571 258.17 442.231 255 434.061C250.44 442.481 243.44 446.311 234 445.561C228.32 440.541 225.32 434.211 225 426.561C226.21 421.391 226.21 416.221 225 411.061C217.34 414.101 210.5 412.771 204.5 407.061C201.91 398.931 202.91 391.271 207.5 384.061C210.33 379.891 213.17 375.731 216 371.561C207.23 368.821 198.23 366.821 189 365.561C182.11 363.451 175.44 360.781 169 357.561C154.37 348.501 141.21 337.661 129.5 325.061C112.03 285.831 110.03 245.831 123.5 205.061C129.57 194.991 137.07 186.161 146 178.561C144.36 152.431 143.86 126.271 144.5 100.061C146.25 79.7112 155.75 64.2112 173 53.5612C177.43 52.7712 181.76 53.1012 186 54.5612C190 56.8912 194 59.2312 198 61.5612C201.59 64.4812 204.42 67.9812 206.5 72.0612C212.21 87.2412 215.88 102.911 217.5 119.061C218.36 122.851 219.52 126.521 221 130.061C235.93 128.301 250.93 127.301 266 127.061C263.97 111.801 265.14 96.8012 269.5 82.0612C275.96 67.4312 286.46 57.0912 301 51.0612Z" fill="#35407B"/>
<path fill-rule="evenodd" clip-rule="evenodd" d="M372 228.061C342.98 225.391 313.98 222.231 285 218.561C273 217.891 261 217.891 249 218.561C228.7 220.921 208.37 222.921 188 224.561C172.12 227.991 156.12 230.991 140 233.561C134.47 234.501 129.14 236.001 124 238.061C125.22 227.401 127.72 217.061 131.5 207.061C135.96 200.941 140.79 195.101 146 189.561C149.05 187.371 152.39 185.701 156 184.561C158.41 180.911 157.74 177.741 154 175.061C152.83 162.561 152.83 150.061 154 137.561C151.91 123.061 151.74 108.561 153.5 94.0615C155.93 80.9815 162.43 70.4815 173 62.5615C174.7 61.6015 176.53 61.1015 178.5 61.0615C185.7 63.1615 192.04 66.8314 197.5 72.0615C200.9 80.9314 203.9 89.9315 206.5 99.0615C207.74 110.861 209.74 122.531 212.5 134.061C215.24 137.541 218.91 138.881 223.5 138.061C239.27 136.091 255.1 134.931 271 134.561C273.24 132.571 274.24 130.071 274 127.061C270.71 108.341 273.55 90.6715 282.5 74.0615C299.9 53.1214 315.57 54.1215 329.5 77.0615C331.56 81.2415 333.23 85.5715 334.5 90.0615C340.01 116.771 342.01 143.771 340.5 171.061C342.6 172.551 344.93 173.551 347.5 174.061C360.47 189.101 368.97 206.431 373 226.061C372.64 226.741 372.3 227.411 372 228.061Z" fill="#5466C3"/>
<path fill-rule="evenodd" clip-rule="evenodd" d="M372 228.062C374.01 230.232 375.18 232.892 375.5 236.062C378.76 256.082 378.76 276.082 375.5 296.062C370.49 308.742 364.15 320.742 356.5 332.062C350.87 335.972 345.7 340.472 341 345.562C332.33 350.562 323.67 355.562 315 360.562C308.03 362.052 301.37 364.222 295 367.062C292.8 366.682 291.14 367.352 290 369.062C288.48 369.752 287.48 370.922 287 372.562C294.42 382.072 299.42 392.732 302 404.562C302.41 409.602 300.24 412.772 295.5 414.062C291.51 412.752 288.01 410.582 285 407.562C282.73 406.802 280.56 406.972 278.5 408.062C279.08 417.042 279.41 426.042 279.5 435.062C275.92 443.512 271.25 444.182 265.5 437.062C262.62 431.432 261.29 425.432 261.5 419.062C259.86 413.802 256.86 412.802 252.5 416.062C250.76 422.292 248.42 428.292 245.5 434.062C243.11 436.512 240.28 437.682 237 437.562C234.43 433.632 233.1 429.302 233 424.562C233.58 419.222 234.25 413.882 235 408.562C235.23 404.152 233.23 401.652 229 401.062C224.88 402.542 220.71 403.872 216.5 405.062C214.47 405.212 212.8 404.542 211.5 403.062C210.81 393.112 214.47 385.112 222.5 379.062C224.62 374.932 225.62 370.602 225.5 366.062C222.74 364.762 219.91 363.602 217 362.562C200.69 361.632 185.35 357.302 171 349.562C161.67 342.562 152.33 335.562 143 328.562C140.17 325.062 137.33 321.562 134.5 318.062C124.44 292.252 120.94 265.582 124 238.062C129.14 236.002 134.47 234.502 140 233.562C156.12 230.992 172.12 227.992 188 224.562C208.37 222.922 228.7 220.922 249 218.562C261 217.892 273 217.892 285 218.562C313.98 222.232 342.98 225.392 372 228.062Z" fill="#FDF877"/>
<path fill-rule="evenodd" clip-rule="evenodd" d="M336.001 280.062C333.431 290.002 327.431 297.172 318.001 301.562C316.681 302.382 316.011 303.542 316.001 305.062C304.821 305.302 294.151 303.142 284.001 298.562C278.381 294.512 274.881 289.012 273.501 282.062C269.941 267.852 271.941 254.522 279.501 242.062C283.581 238.772 287.741 235.612 292.001 232.562C297.671 231.892 303.331 231.892 309.001 232.562C318.271 235.212 327.611 237.542 337.001 239.562C345.141 244.472 353.471 249.132 362.001 253.562C365.381 258.342 364.221 261.182 358.501 262.062C351.411 262.092 345.241 259.762 340.001 255.062C339.241 258.242 339.571 261.402 341.001 264.562C339.561 269.832 337.891 274.992 336.001 280.062Z" fill="#040403"/>
<path fill-rule="evenodd" clip-rule="evenodd" d="M211.001 308.061C207.261 308.301 203.601 308.971 200.001 310.061C195.751 309.711 191.751 308.541 188.001 306.561C183.881 303.411 180.051 299.911 176.501 296.061C174.741 291.921 172.911 287.921 171.001 284.061C170.061 277.321 169.731 270.651 170.001 264.061C166.181 267.381 162.521 270.881 159.001 274.561C155.881 276.251 152.711 276.411 149.501 275.061C148.831 271.391 148.831 267.731 149.501 264.061C160.201 249.781 174.371 240.611 192.001 236.561C203.911 235.461 215.241 237.461 226.001 242.561C229.641 245.531 231.481 249.371 231.501 254.061C238.211 261.161 240.551 269.491 238.501 279.061C234.251 293.471 225.081 303.141 211.001 308.061Z" fill="#040403"/>
<path fill-rule="evenodd" clip-rule="evenodd" d="M292 242.061C299.47 240.771 303.47 243.771 304 251.061C303.58 255.401 303.08 259.741 302.5 264.061C297.4 269.821 291.73 270.491 285.5 266.061C282.77 263.101 280.93 259.601 280 255.561C280.33 253.081 281.33 250.911 283 249.061C286.25 246.951 289.25 244.621 292 242.061Z" fill="#F4F4F4"/>
<path fill-rule="evenodd" clip-rule="evenodd" d="M212 248.062C222.42 248.862 226.59 254.522 224.5 265.062C222.4 271.492 218.07 275.492 211.5 277.062C209.09 276.862 207.09 275.862 205.5 274.062C198.7 263.292 200.87 254.632 212 248.062Z" fill="#F5F5F5"/>
<path fill-rule="evenodd" clip-rule="evenodd" d="M336 280.062C336.08 281.312 336.74 282.142 338 282.562C352.26 283.622 357.1 290.792 352.5 304.062C347.75 308.602 342.09 310.932 335.5 311.062C330.99 310.682 326.49 310.182 322 309.562C319.39 308.772 317.39 307.272 316 305.062C316.01 303.542 316.68 302.382 318 301.562C327.43 297.172 333.43 290.002 336 280.062Z" fill="#FBCB66"/>
<path fill-rule="evenodd" clip-rule="evenodd" d="M171 284.062C172.91 287.922 174.74 291.922 176.5 296.062C180.05 299.912 183.88 303.412 188 306.562C191.75 308.542 195.75 309.712 200 310.062C203.6 308.972 207.26 308.302 211 308.062C206.29 310.222 201.63 312.722 197 315.562C188.31 318.592 179.31 319.592 170 318.562C158.75 312.532 155.91 303.702 161.5 292.062C164.72 289.242 167.88 286.572 171 284.062Z" fill="#FACB67"/>
<path fill-rule="evenodd" clip-rule="evenodd" d="M274.999 309.061C279.089 308.221 282.089 309.551 283.999 313.061C281.369 320.181 277.039 326.021 270.999 330.561C267.999 331.231 264.999 331.231 261.999 330.561C257.439 328.431 252.769 326.601 247.999 325.061C243.339 319.701 244.509 316.371 251.499 315.061C255.579 315.851 259.419 317.351 262.999 319.561C264.669 320.231 266.329 320.231 267.999 319.561C270.219 315.951 272.549 312.451 274.999 309.061Z" fill="#0D0D09"/>
<path fill-rule="evenodd" clip-rule="evenodd" d="M295 367.061C295.15 368.111 294.98 369.111 294.5 370.061C293.14 369.181 291.64 368.851 290 369.061C291.14 367.351 292.8 366.681 295 367.061Z" fill="#E0E1E5"/>
</svg>
