<svg width="500" height="500" viewBox="0 0 500 500" fill="none" xmlns="http://www.w3.org/2000/svg">
<path fill-rule="evenodd" clip-rule="evenodd" d="M220 128.061C216.37 128.811 212.71 129.471 209 130.061C209.11 129.441 209.44 128.941 210 128.561C200.86 118.481 197.36 106.641 199.5 93.061C204.89 74.781 216.39 61.951 234 54.561C259.75 45.071 284.09 47.731 307 62.561C314.65 72.391 316.15 83.221 311.5 95.061C308.09 104.731 302.59 112.901 295 119.561C275.98 129.531 257.98 128.201 241 115.561C233.5 109.061 230 100.891 230.5 91.061C239.34 73.391 253.51 66.561 273 70.561C285.83 79.371 287.33 89.871 277.5 102.061C272.25 109.281 265.75 110.781 258 106.561C255.55 102.171 255.38 97.671 257.5 93.061C261.76 89.981 264.59 90.981 266 96.061C265.62 97.941 264.62 99.441 263 100.561C266.56 102.791 269.39 101.961 271.5 98.061C278.83 90.961 278.67 84.121 271 77.561C256.36 74.301 245.19 79.131 237.5 92.061C237.07 99.101 239.57 104.941 245 109.561C251.13 115.041 258.3 118.211 266.5 119.061C273.4 118.271 280.23 117.101 287 115.561C291.08 113.481 294.58 110.651 297.5 107.061C300.2 101.711 302.87 96.371 305.5 91.061C309.26 80.871 307.1 72.371 299 65.561C271.35 51.431 245.02 53.431 220 71.561C206.35 84.341 202.85 99.501 209.5 117.061C212.53 121.251 216.03 124.921 220 128.061Z" fill="#414871"/>
<path fill-rule="evenodd" clip-rule="evenodd" d="M276 412.062C268.14 415.732 259.8 417.062 251 416.062C250 416.062 249 416.062 248 416.062C243.52 415.482 239.52 413.822 236 411.062C228.16 405.382 222.33 398.052 218.5 389.062C217.51 384.442 217.01 379.782 217 375.062C216.33 370.732 215.67 366.392 215 362.062C215 360.062 215 358.062 215 356.062C212.31 356.222 209.65 356.062 207 355.562C198.68 352.292 190.35 349.122 182 346.062C174.84 343.812 168.17 340.482 162 336.062C147.71 325.602 135.54 312.932 125.5 298.062C121.11 286.882 117.11 275.542 113.5 264.062C112.93 253.042 113.27 242.042 114.5 231.062C117.75 219.482 120.75 207.812 123.5 196.062C132.88 178.152 145.05 162.322 160 148.562C163.51 146.312 167.17 144.312 171 142.562C183.58 138.082 196.25 133.922 209 130.062C212.71 129.472 216.37 128.812 220 128.062C225.95 127.002 231.95 126.342 238 126.062C251.95 127.782 265.95 128.942 280 129.562C304.11 133.042 326.44 141.042 347 153.562C353.82 161.352 360.99 168.852 368.5 176.062C382.68 196.592 388.85 219.422 387 244.562C387.18 252.182 386.34 259.682 384.5 267.062C378.17 287.722 370.17 307.722 360.5 327.062C347.26 341.432 331.43 351.932 313 358.562C308.18 362.542 303.52 366.712 299 371.062C298.43 385.982 292.76 398.482 282 408.562C279.77 409.502 277.77 410.672 276 412.062Z" fill="#384079"/>
<path fill-rule="evenodd" clip-rule="evenodd" d="M245 133.061C256.55 135.261 268.21 136.421 280 136.561C301.68 139.911 322.01 146.911 341 157.561C349.48 165.701 357.64 174.201 365.5 183.061C369.17 191.061 372.83 199.061 376.5 207.061C382.94 235.071 380.94 262.401 370.5 289.061C365.42 300.881 360.09 312.541 354.5 324.061C345.12 333.331 334.62 340.991 323 347.061C322.26 347.191 321.59 347.021 321 346.561C322.02 344.021 323.19 341.521 324.5 339.061C327.13 337.431 329.46 335.431 331.5 333.061C332.62 329.501 331.29 327.501 327.5 327.061C323.73 329.201 319.9 331.201 316 333.061C313.27 331.011 310.27 330.181 307 330.561C304.3 333.641 304.64 336.481 308 339.061C309.89 340.171 311.89 341.001 314 341.561C310.45 345.601 307.12 349.771 304 354.061C300.28 353.761 296.78 354.421 293.5 356.061C291.93 361.041 290.1 365.881 288 370.561C287.92 373.321 289.26 374.481 292 374.061C289.24 399.271 275.24 411.101 250 409.561C246.75 409.311 243.75 408.311 241 406.561C234.01 401.911 228.84 395.741 225.5 388.061C223.73 378.141 222.39 368.141 221.5 358.061C219.77 355.721 218.11 353.381 216.5 351.061C213.23 349.461 209.73 348.631 206 348.561C196.44 343.451 186.44 339.451 176 336.561C175.67 336.231 175.33 335.891 175 335.561C177.6 334.581 180.1 333.421 182.5 332.061C183.32 329.861 182.82 328.031 181 326.561C177.33 326.231 173.67 325.891 170 325.561C168.09 323.801 166.09 322.301 164 321.061C161.73 321.491 160.23 322.821 159.5 325.061C129.41 302.161 116.41 271.831 120.5 234.061C124.21 221.831 127.55 209.491 130.5 197.061C134.67 189.391 139.33 182.051 144.5 175.061C151.07 169.161 156.91 162.661 162 155.561C172.87 148.881 184.54 144.051 197 141.061C198.95 144.971 200.95 148.971 203 153.061C194.3 161.701 191.97 171.871 196 183.561C194.28 185.431 193.28 187.601 193 190.061C194.86 190.101 196.19 189.271 197 187.561C198 186.891 199 186.891 200 187.561C200.83 189.641 200.83 191.811 200 194.061C203.05 194.641 205.05 193.471 206 190.561C206.95 190.081 207.95 189.911 209 190.061C209 191.391 209 192.731 209 194.061C212.14 194.011 213.8 192.351 214 189.061C217.64 187.251 220.47 184.591 222.5 181.061C223.99 175.801 225.15 170.471 226 165.061C225.45 161.071 224.12 157.401 222 154.061C223.9 149.941 226.06 145.941 228.5 142.061C233.25 141.251 238.08 140.751 243 140.561C245.67 138.561 245.67 136.561 243 134.561C239.33 134.231 235.67 133.891 232 133.561C236.32 133.061 240.65 132.891 245 133.061Z" fill="#FD9A3F"/>
<path fill-rule="evenodd" clip-rule="evenodd" d="M219 136.061C220.78 137.161 222.78 137.991 225 138.561C225.52 139.121 225.86 139.791 226 140.561C224.18 143.721 222.35 146.881 220.5 150.061C219.04 151.311 217.54 151.311 216 150.061C215.04 146.421 215.04 142.751 216 139.061C215 139.061 214 139.061 213 139.061C212.33 142.391 211.67 145.731 211 149.061C209.02 148.941 207.35 149.611 206 151.061C203.55 147.381 201.89 143.381 201 139.061C206.8 137.031 212.8 136.031 219 136.061Z" fill="#F59741"/>
<path fill-rule="evenodd" clip-rule="evenodd" d="M245 133.061C240.65 132.891 236.32 133.061 232 133.561C235.67 133.891 239.33 134.231 243 134.561C245.67 136.561 245.67 138.561 243 140.561C238.08 140.751 233.25 141.251 228.5 142.061C226.06 145.941 223.9 149.941 222 154.061C224.12 157.401 225.45 161.071 226 165.061C225.15 170.471 223.99 175.801 222.5 181.061C220.47 184.591 217.64 187.251 214 189.061C213.8 192.351 212.14 194.011 209 194.061C209 192.731 209 191.391 209 190.061C207.95 189.911 206.95 190.081 206 190.561C205.05 193.471 203.05 194.641 200 194.061C200.83 191.811 200.83 189.641 200 187.561C199 186.891 198 186.891 197 187.561C196.19 189.271 194.86 190.101 193 190.061C193.28 187.601 194.28 185.431 196 183.561C191.97 171.871 194.3 161.701 203 153.061C200.95 148.971 198.95 144.971 197 141.061C198.17 140.221 199.5 139.551 201 139.061C201.89 143.381 203.55 147.381 206 151.061C207.35 149.611 209.02 148.941 211 149.061C211.67 145.731 212.33 142.391 213 139.061C214 139.061 215 139.061 216 139.061C215.04 142.751 215.04 146.421 216 150.061C217.54 151.311 219.04 151.311 220.5 150.061C222.35 146.881 224.18 143.721 226 140.561C225.86 139.791 225.52 139.121 225 138.561C222.78 137.991 220.78 137.161 219 136.061C222.87 134.711 226.87 133.551 231 132.561C235.85 131.741 240.52 131.911 245 133.061Z" fill="#43476E"/>
<path fill-rule="evenodd" clip-rule="evenodd" d="M268.999 139.061C269.999 138.971 270.829 139.311 271.499 140.061C272.679 143.781 274.009 147.441 275.499 151.061C276.829 152.391 278.169 152.391 279.499 151.061C280.019 147.641 280.849 144.311 281.999 141.061C283.879 139.901 284.879 140.571 284.999 143.061C284.329 146.061 283.669 149.061 282.999 152.061C282.949 153.561 283.619 154.561 284.999 155.061C287.119 153.111 288.619 150.781 289.499 148.061C290.509 147.221 291.679 146.891 292.999 147.061C292.239 150.591 290.909 153.921 288.999 157.061C294.139 165.881 294.299 174.881 289.499 184.061C287.719 185.851 285.889 187.521 283.999 189.061C284.809 190.631 285.139 192.301 284.999 194.061C282.159 192.781 279.159 192.121 275.999 192.061C275.999 193.391 275.999 194.731 275.999 196.061C274.679 196.231 273.509 195.901 272.499 195.061C272.369 192.561 271.369 190.561 269.499 189.061C268.419 190.231 267.579 191.561 266.999 193.061C266.179 193.951 265.179 194.281 263.999 194.061C264.299 191.301 265.299 188.801 266.999 186.561C264.849 184.091 263.349 181.261 262.499 178.061C259.769 167.581 262.599 159.081 270.999 152.561C269.839 148.131 269.179 143.631 268.999 139.061Z" fill="#42476E"/>
<path fill-rule="evenodd" clip-rule="evenodd" d="M209 154.061C210.62 153.921 211.79 154.591 212.5 156.061C212.83 159.391 213.17 162.731 213.5 166.061C215.8 167.901 217.97 169.731 220 171.561C219.86 172.331 219.52 173.001 219 173.561C216.82 173.721 214.99 174.561 213.5 176.061C212.49 179.121 211.32 182.121 210 185.061C208.49 186.311 206.99 186.311 205.5 185.061C205.32 181.601 204.65 178.271 203.5 175.061C201.19 173.361 199.36 171.361 198 169.061C203.36 165.351 207.03 160.351 209 154.061Z" fill="#F7F8F9"/>
<path fill-rule="evenodd" clip-rule="evenodd" d="M276 157.062C277.05 156.912 278.05 157.082 279 157.562C280.44 163.422 284.1 167.092 290 168.562C290.52 169.122 290.86 169.792 291 170.562C289.23 172.392 287.07 173.552 284.5 174.062C281.59 177.552 280.09 181.552 280 186.062C278.67 186.062 277.33 186.062 276 186.062C275.06 182.852 273.56 179.852 271.5 177.062C268.7 175.922 266.53 174.082 265 171.562C265.14 170.792 265.48 170.122 266 169.562C273.02 168.352 276.36 164.182 276 157.062Z" fill="#F7F7F9"/>
<path fill-rule="evenodd" clip-rule="evenodd" d="M258 194.061C247.82 189.431 238.16 190.101 229 196.061C224.65 192.831 223.15 188.501 224.5 183.061C226.01 180.681 228.18 179.681 231 180.061C240.01 181.151 249.01 181.311 258 180.561C259.51 182.031 260.17 183.871 260 186.061C259.91 188.901 259.24 191.561 258 194.061Z" fill="#C34442"/>
<path fill-rule="evenodd" clip-rule="evenodd" d="M258 194.061C252.61 201.221 245.61 203.061 237 199.561C234.13 198.621 231.46 197.451 229 196.061C238.16 190.101 247.82 189.431 258 194.061Z" fill="#FDA3BA"/>
<path fill-rule="evenodd" clip-rule="evenodd" d="M341 250.061C336.07 246.321 330.74 243.151 325 240.561C316.96 238.441 308.96 236.101 301 233.561C284.82 229.741 273.65 235.571 267.5 251.061C263.75 263.631 264.42 275.971 269.5 288.061C274 292.901 279.5 296.061 286 297.561C291.07 297.991 296.07 298.821 301 300.061C307.07 297.271 312.57 293.611 317.5 289.061C321.38 281.961 324.71 274.631 327.5 267.061C327.64 262.971 327.81 258.971 328 255.061C332.55 259.331 337.88 262.001 344 263.061C345.71 300.171 328.37 322.011 292 328.561C266.28 330.811 240.62 330.481 215 327.561C201.06 324.361 188.06 319.031 176 311.561C163.37 299.421 157.03 284.591 157 267.061C162.76 264.751 167.59 261.081 171.5 256.061C171.35 259.391 170.85 262.721 170 266.061C170.61 281.131 177.61 291.961 191 298.561C205.39 301.541 217.23 297.371 226.5 286.061C229.17 281.391 231.83 276.731 234.5 272.061C235.76 263.851 233.76 256.521 228.5 250.061C228.13 243.011 224.63 238.181 218 235.561C203.67 230.301 189.67 230.971 176 237.561C171.12 239.831 166.45 242.331 162 245.061C176.44 221.841 197.44 209.011 225 206.561C245.39 205.691 265.72 206.361 286 208.561C305.05 213.331 321.22 222.831 334.5 237.061C337.74 240.871 339.9 245.201 341 250.061Z" fill="#FDFCFC"/>
<path fill-rule="evenodd" clip-rule="evenodd" d="M157.001 267.062C154.781 267.382 152.941 266.722 151.501 265.062C150.831 262.392 150.831 259.732 151.501 257.062C154.841 252.892 158.341 248.892 162.001 245.062C166.451 242.332 171.121 239.832 176.001 237.562C189.671 230.972 203.671 230.302 218.001 235.562C224.631 238.182 228.131 243.012 228.501 250.062C233.761 256.522 235.761 263.852 234.501 272.062C231.831 276.732 229.171 281.392 226.501 286.062C217.231 297.372 205.391 301.542 191.001 298.562C177.611 291.962 170.611 281.132 170.001 266.062C170.851 262.722 171.351 259.392 171.501 256.062C167.591 261.082 162.761 264.752 157.001 267.062Z" fill="#050505"/>
<path fill-rule="evenodd" clip-rule="evenodd" d="M341 250.061C342.93 252.031 345.26 253.531 348 254.561C351.17 259.391 349.83 262.231 344 263.061C337.88 262.001 332.55 259.331 328 255.061C327.81 258.971 327.64 262.971 327.5 267.061C324.71 274.631 321.38 281.961 317.5 289.061C312.57 293.611 307.07 297.271 301 300.061C296.07 298.821 291.07 297.991 286 297.561C279.5 296.061 274 292.901 269.5 288.061C264.42 275.971 263.75 263.631 267.5 251.061C273.65 235.571 284.82 229.741 301 233.561C308.96 236.101 316.96 238.441 325 240.561C330.74 243.151 336.07 246.321 341 250.061Z" fill="#030303"/>
<path fill-rule="evenodd" clip-rule="evenodd" d="M284 241.061C290.7 240.281 294.7 243.111 296 249.561C294.71 253.611 293.87 257.781 293.5 262.061C283.07 269.101 276.23 266.441 273 254.061C273.08 252.261 273.58 250.591 274.5 249.061C277.82 246.481 280.99 243.811 284 241.061Z" fill="#F2F2F2"/>
<path fill-rule="evenodd" clip-rule="evenodd" d="M208.999 244.062C220.709 244.112 224.539 249.782 220.499 261.062C218.389 265.952 214.729 268.952 209.499 270.062C205.699 269.592 203.029 267.592 201.499 264.062C199.309 255.712 201.809 249.052 208.999 244.062Z" fill="#F6F6F6"/>
<path fill-rule="evenodd" clip-rule="evenodd" d="M266 302.062C270.06 301.252 272.72 302.752 274 306.562C271.09 312.462 267.09 317.462 262 321.562C259.33 322.232 256.67 322.232 254 321.562C248.56 319.092 243.39 316.262 238.5 313.062C237.66 308.732 239.49 306.732 244 307.062C248.14 307.472 251.81 308.972 255 311.562C256.33 312.232 257.67 312.232 259 311.562C261.55 308.522 263.88 305.352 266 302.062Z" fill="#0B0B0B"/>
<path fill-rule="evenodd" clip-rule="evenodd" d="M323 347.062C316.83 349.562 310.5 351.902 304 354.062C307.12 349.772 310.45 345.602 314 341.562C311.89 341.002 309.89 340.172 308 339.062C304.64 336.482 304.3 333.642 307 330.562C310.27 330.182 313.27 331.012 316 333.062C319.9 331.202 323.73 329.202 327.5 327.062C331.29 327.502 332.62 329.502 331.5 333.062C329.46 335.432 327.13 337.432 324.5 339.062C323.19 341.522 322.02 344.022 321 346.562C321.59 347.022 322.26 347.192 323 347.062Z" fill="#41456D"/>
<path fill-rule="evenodd" clip-rule="evenodd" d="M162 336.062C168.17 340.482 174.84 343.812 182 346.062C181.56 345.992 181.23 346.162 181 346.562C191.17 354.342 202.5 359.502 215 362.062C215.67 366.392 216.33 370.732 217 375.062C216.1 374.352 215.76 373.352 216 372.062C207.29 373.282 199.29 371.442 192 366.562C183.23 360.422 174.73 353.922 166.5 347.062C164.43 343.582 162.93 339.922 162 336.062Z" fill="#3F4770"/>
<path fill-rule="evenodd" clip-rule="evenodd" d="M182 346.061C190.35 349.121 198.68 352.291 207 355.561C209.65 356.061 212.31 356.221 215 356.061C215 358.061 215 360.061 215 362.061C202.5 359.501 191.17 354.341 181 346.561C181.23 346.161 181.56 345.991 182 346.061Z" fill="#EFF0F4"/>
<path fill-rule="evenodd" clip-rule="evenodd" d="M236 411.062C239.52 413.822 243.52 415.482 248 416.062C248.81 424.722 248.98 433.382 248.5 442.062C246.76 443.882 245.26 445.882 244 448.062C235.75 449.782 227.42 450.282 219 449.562C215.93 442.702 218.27 438.372 226 436.562C230.32 436.062 234.65 435.892 239 436.062C239.17 431.712 239 427.382 238.5 423.062C237.35 419.112 236.52 415.112 236 411.062Z" fill="#3F4770"/>
<path fill-rule="evenodd" clip-rule="evenodd" d="M276 412.062C275.8 421.762 276.3 431.432 277.5 441.062C280.68 437.722 284.52 436.552 289 437.562C291.7 439.302 294.54 440.802 297.5 442.062C297.88 444.132 297.05 445.632 295 446.562C291.11 448.202 287.11 449.532 283 450.562C272.94 453.112 267.11 449.282 265.5 439.062C264.2 431.792 263.7 424.462 264 417.062C259.47 417.382 255.13 417.042 251 416.062C259.8 417.062 268.14 415.732 276 412.062Z" fill="#3F4770"/>
</svg>
