<svg width="500" height="500" viewBox="0 0 500 500" fill="none" xmlns="http://www.w3.org/2000/svg">
<path fill-rule="evenodd" clip-rule="evenodd" d="M280 429.061C272.95 424.351 267.29 418.351 263 411.061C261.18 407.281 260.18 403.281 260 399.061C258.67 399.061 257.33 399.061 256 399.061C251.53 398.471 247.53 399.141 244 401.061C238.41 409.701 231.74 417.531 224 424.561C216 429.331 207.67 430.171 199 427.061C192.88 421.951 186.21 417.611 179 414.061C173.19 407.791 168.36 400.791 164.5 393.061C163.03 392.291 161.53 391.631 160 391.061C149.86 387.691 139.53 384.691 129 382.061C114.27 377.501 103.77 368.171 97.5 354.061C94.54 346.201 92.2 338.201 90.5 330.061C90.22 316.691 89.39 303.361 88 290.061C91.04 268.931 94.88 247.931 99.5 227.061C98.78 200.711 99.45 174.371 101.5 148.061C107.29 125.621 118.79 106.781 136 91.5611C142.71 88.2111 148.71 83.8711 154 78.5611C158.62 75.4611 163.62 73.1311 169 71.5611C194.41 69.1911 219.74 69.8611 245 73.5611C255.43 76.9411 265.76 80.6111 276 84.5611C296.84 96.0711 316.01 109.901 333.5 126.061C337.36 133.141 340.52 140.471 343 148.061C358.45 147.441 373.78 148.271 389 150.561C397.48 153.031 404.31 157.861 409.5 165.061C413.1 171.821 412.43 178.151 407.5 184.061C403.89 186.951 400.06 189.451 396 191.561C400.95 195.111 402.12 199.611 399.5 205.061C391.26 212.431 381.76 217.601 371 220.561C367 222.221 363.34 224.391 360 227.061C358.77 237.411 358.94 247.741 360.5 258.061C362.71 288.041 360.71 317.711 354.5 347.061C349.78 361.111 341.28 372.281 329 380.561C325.74 382.031 322.41 383.191 319 384.061C317.96 404.311 308.63 419.471 291 429.561C287.28 430.241 283.61 430.071 280 429.061Z" fill="#364079"/>
<path fill-rule="evenodd" clip-rule="evenodd" d="M177 78.0606C198.78 77.3106 220.45 78.4806 242 81.5606C252.1 84.4806 262.1 87.8206 272 91.5606C292.46 102.351 310.96 115.851 327.5 132.061C330.26 137.241 332.76 142.581 335 148.061C333.63 149.501 332.13 150.831 330.5 152.061C329.91 153.461 330.07 154.791 331 156.061C345.98 156.301 360.98 156.471 376 156.561C382.23 157.401 388.23 159.071 394 161.561C407.32 172.271 405.66 179.941 389 184.561C380.01 185.361 371.01 186.031 362 186.561C358.88 187.041 356.04 188.211 353.5 190.061C352.68 192.261 353.18 194.091 355 195.561C364.67 195.891 374.33 196.231 384 196.561C387.3 197.051 390.3 198.211 393 200.061C391.37 201.551 389.71 203.051 388 204.561C377.53 208.961 367.19 213.631 357 218.561C354.07 220.821 351.9 223.661 350.5 227.061C351.45 251.011 352.29 275.011 353 299.061C351.42 313.401 349.59 327.731 347.5 342.061C345.78 347.171 343.78 352.171 341.5 357.061C335.47 365.761 327.63 372.261 318 376.561C310.44 379.841 302.77 382.841 295 385.561C261.86 390.541 228.53 391.541 195 388.561C187.82 387.171 180.82 385.171 174 382.561C170.46 381.841 166.96 382.011 163.5 383.061C153 380.281 142.5 377.451 132 374.561C122.95 371.471 115.45 366.301 109.5 359.061C103.38 349.251 99.7099 338.581 98.4999 327.061C97.2599 310.071 96.9299 293.071 97.4999 276.061C101.65 260.251 104.99 244.251 107.5 228.061C107.83 205.391 108.17 182.731 108.5 160.061C111.39 138.771 119.89 119.931 134 103.561C143.02 97.7206 151.69 91.3806 160 84.5606C165.39 81.3106 171.05 79.1406 177 78.0606Z" fill="#8AC24A"/>
<path fill-rule="evenodd" clip-rule="evenodd" d="M263 106.062C278.96 108.382 282.46 116.382 273.5 130.062C266.76 137.532 259.76 137.862 252.5 131.062C248.12 119.372 251.62 111.032 263 106.062Z" fill="#333E78"/>
<path fill-rule="evenodd" clip-rule="evenodd" d="M187 167.061C183.02 164.741 179.68 161.741 177 158.061C173.04 138.181 180.71 131.011 200 136.561C206.37 142.521 207.54 149.351 203.5 157.061C201.16 159.771 198.99 162.601 197 165.561C193.81 166.881 190.48 167.381 187 167.061Z" fill="#333E78"/>
<path fill-rule="evenodd" clip-rule="evenodd" d="M177 158.062C179.68 161.742 183.02 164.742 187 167.062C188.09 180.642 183.75 192.142 174 201.562C163.26 207.382 153.76 205.882 145.5 197.062C142.23 190.272 139.73 183.272 138 176.062C138.09 173.642 138.59 171.302 139.5 169.062C144.37 162.522 150.21 157.022 157 152.562C162.67 150.562 168.33 150.562 174 152.562C174.49 154.772 175.49 156.602 177 158.062Z" fill="#C0D543"/>
<path fill-rule="evenodd" clip-rule="evenodd" d="M323 269.06C320.05 267.59 317.05 266.09 314 264.56C306.02 262.58 298.02 260.58 290 258.56C272.76 256.77 262.59 264.6 259.5 282.06C256.77 308.33 268.6 320.5 295 318.56C298.06 315.84 301.39 313.5 305 311.56C312.71 301.43 316.54 290.27 316.5 278.06C318.4 279.1 320.23 280.26 322 281.56C324.21 281.75 326.21 282.25 328 283.06C330.5 305.56 322.5 323.39 304 336.56C272.96 355.72 239.63 360.72 204 351.56C176.49 342.22 162.16 323.06 161 294.06C166.45 292.13 170.95 288.79 174.5 284.06C174.11 288.69 174.11 293.36 174.5 298.06C182.28 321.87 197.11 327.7 219 315.56C224.29 310.14 228.46 303.97 231.5 297.06C233.29 288.97 231.29 281.97 225.5 276.06C225.05 269.93 221.88 265.76 216 263.56C196.84 258 179.84 261.84 165 275.06C174.71 251.52 191.71 235.69 216 227.56C255.86 221.24 290.03 232.4 318.5 261.06C320.27 263.59 321.77 266.26 323 269.06Z" fill="#FCFCFC"/>
<path fill-rule="evenodd" clip-rule="evenodd" d="M323 269.061C327.01 272.161 331.18 275.161 335.5 278.061C335.93 283.771 333.43 285.441 328 283.061C326.21 282.251 324.21 281.751 322 281.561C320.23 280.261 318.4 279.101 316.5 278.061C316.54 290.271 312.71 301.431 305 311.561C301.39 313.501 298.06 315.841 295 318.561C268.6 320.501 256.77 308.331 259.5 282.061C262.59 264.601 272.76 256.771 290 258.561C298.02 260.581 306.02 262.581 314 264.561C317.05 266.091 320.05 267.591 323 269.061Z" fill="#040404"/>
<path fill-rule="evenodd" clip-rule="evenodd" d="M157.001 285.06C156.841 287.75 157.001 290.41 157.501 293.06C157.881 293.62 158.381 293.95 159.001 294.06C157.241 304.4 152.241 312.9 144.001 319.56C133.291 326.14 125.791 323.64 121.501 312.06C118.071 293.92 121.231 277.09 131.001 261.56C134.371 260.35 136.701 261.35 138.001 264.56C130.181 277.99 127.011 292.49 128.501 308.06C131.031 316.27 135.361 317.27 141.501 311.06C144.221 308 146.561 304.67 148.501 301.06C149.941 296.07 151.271 291.07 152.501 286.06C153.861 285.18 155.361 284.85 157.001 285.06Z" fill="#354077"/>
<path fill-rule="evenodd" clip-rule="evenodd" d="M161 294.062C160.33 294.062 159.67 294.062 159 294.062C158.38 293.952 157.88 293.622 157.5 293.062C157 290.412 156.84 287.752 157 285.062C159.32 281.412 161.98 278.082 165 275.062C179.84 261.842 196.84 258.002 216 263.562C221.88 265.762 225.05 269.932 225.5 276.062C231.29 281.972 233.29 288.972 231.5 297.062C228.46 303.972 224.29 310.142 219 315.562C197.11 327.702 182.28 321.872 174.5 298.062C174.11 293.362 174.11 288.692 174.5 284.062C170.95 288.792 166.45 292.132 161 294.062Z" fill="#040404"/>
<path fill-rule="evenodd" clip-rule="evenodd" d="M276 266.061C282.43 265.091 286.09 267.761 287 274.061C285.74 277.611 284.91 281.281 284.5 285.061C281.04 289.301 276.88 290.131 272 287.561C269.37 284.771 267.37 281.601 266 278.061C266.55 275.951 267.39 273.951 268.5 272.061C271.65 270.851 274.15 268.851 276 266.061Z" fill="#F2F2F2"/>
<path fill-rule="evenodd" clip-rule="evenodd" d="M209 271.061C216.45 270.181 220.12 273.511 220 281.061C219.66 288.441 215.99 293.101 209 295.061C207.31 294.801 205.81 294.131 204.5 293.061C198.86 284.161 200.36 276.831 209 271.061Z" fill="#F7F7F7"/>
<path fill-rule="evenodd" clip-rule="evenodd" d="M262 322.061C267.57 321.311 269.4 323.651 267.5 329.061C265.05 333.841 261.55 337.681 257 340.561C255.67 341.231 254.33 341.231 253 340.561C247.87 338.241 242.7 336.071 237.5 334.061C236.51 328.061 239.01 325.891 245 327.561C248.44 329.731 252.11 330.731 256 330.561C257.89 327.611 259.89 324.781 262 322.061Z" fill="#0B0B0B"/>
<path fill-rule="evenodd" clip-rule="evenodd" d="M129 382.062C139.53 384.692 149.86 387.692 160 391.062C152.8 391.122 145.8 389.952 139 387.562C135.15 386.472 131.82 384.642 129 382.062Z" fill="#8CBF56"/>
<path fill-rule="evenodd" clip-rule="evenodd" d="M308 389.062C309 389.062 310 389.062 311 389.062C308.56 400.772 302.89 410.612 294 418.562C289.6 422.712 284.93 423.042 280 419.562C272.96 413.642 268.96 406.142 268 397.062C281.95 396.742 295.28 394.072 308 389.062Z" fill="#89BF4B"/>
<path fill-rule="evenodd" clip-rule="evenodd" d="M173 392.062C173.06 391.522 173.39 391.182 174 391.062C179.91 393.202 185.91 395.042 192 396.562C206.42 396.552 220.75 397.552 235 399.562C230.81 405.592 226.14 411.262 221 416.562C215.46 420.752 209.46 421.752 203 419.562C196.27 414.502 189.27 409.832 182 405.562C178.85 401.082 175.85 396.582 173 392.062Z" fill="#88BF4B"/>
<path fill-rule="evenodd" clip-rule="evenodd" d="M256 399.061C253.18 400.741 250.01 401.741 246.5 402.061C245.43 402.031 244.6 401.701 244 401.061C247.53 399.141 251.53 398.471 256 399.061Z" fill="#8EC352"/>
<path fill-rule="evenodd" clip-rule="evenodd" d="M179 414.062C186.21 417.612 192.88 421.952 199 427.062C191.25 424.292 184.58 419.962 179 414.062Z" fill="#8EBD5D"/>
<path fill-rule="evenodd" clip-rule="evenodd" d="M263 411.062C267.29 418.352 272.95 424.352 280 429.062C270.21 426.942 264.54 420.942 263 411.062Z" fill="#8CBB5C"/>
</svg>
