<svg width="500" height="500" viewBox="0 0 500 500" fill="none" xmlns="http://www.w3.org/2000/svg">
<path fill-rule="evenodd" clip-rule="evenodd" d="M274 64.0616C271.51 66.5916 269.01 69.2616 266.5 72.0616C265.57 74.0216 264.74 76.0216 264 78.0616C262.81 78.9916 261.48 79.3216 260 79.0616C260.18 82.6816 259.51 86.0216 258 89.0616C257.74 85.4916 255.74 84.1616 252 85.0616C252.55 83.2316 252.55 81.5616 252 80.0616C245.62 82.0016 240.12 85.3316 235.5 90.0616C234.4 88.1016 233.9 85.9316 234 83.5616C234.48 79.4016 234.81 75.2316 235 71.0616C237.69 70.9016 240.35 71.0616 243 71.5616C245.28 73.5216 247.78 75.0216 250.5 76.0616C254.97 74.2316 255.14 71.7316 251 68.5616C246.65 64.3916 241.65 63.2316 236 65.0616C239.87 59.4116 245.21 57.5816 252 59.5616C253.47 60.2016 254.8 61.0316 256 62.0616C262.59 58.8316 268.59 59.5016 274 64.0616Z" fill="#FF8761"/>
<path fill-rule="evenodd" clip-rule="evenodd" d="M321 80.0609C322.67 81.3909 324.33 82.7309 326 84.0609C326.16 86.7509 326 89.4109 325.5 92.0609C324.11 93.1109 322.61 93.2809 321 92.5609C319.48 89.4909 318.15 86.3209 317 83.0609C317.22 80.6409 318.55 79.6409 321 80.0609Z" fill="#FFC1AD"/>
<path fill-rule="evenodd" clip-rule="evenodd" d="M274 64.0615C279.91 70.1515 281.25 77.1515 278 85.0615C278.53 85.7515 279.19 86.2515 280 86.5615C277.02 89.3115 273.69 90.3115 270 89.5615C267.09 90.6815 265.09 92.6815 264 95.5615C258.82 96.7115 254.65 99.5515 251.5 104.062C251.17 103.392 250.83 102.732 250.5 102.062C246.81 105.792 242.31 107.462 237 107.062C232.27 107.502 228.44 105.842 225.5 102.062C221.89 120.632 210.72 127.802 192 123.562C186.41 120.282 181.08 116.782 176 113.062C176 115.732 176 118.392 176 121.062C165.31 116.172 155.98 118.172 148 127.062C148.33 113.442 155.33 105.772 169 104.062C170.39 104.182 171.73 104.512 173 105.062C174.16 93.4015 179.83 84.7315 190 79.0615C192.12 78.8915 194.12 79.2215 196 80.0615C194.87 82.0315 195.2 83.8615 197 85.5615C205.96 84.5115 211.8 88.3415 214.5 97.0615C217.61 98.8315 219.44 98.0015 220 94.5615C217.94 85.3315 212.28 80.1715 203 79.0615C209.23 76.9115 214.73 78.2515 219.5 83.0615C221.38 73.6815 226.88 67.6815 236 65.0615C235.16 66.9415 234.83 68.9415 235 71.0615C234.81 75.2315 234.48 79.4015 234 83.5615C233.9 85.9315 234.4 88.1015 235.5 90.0615C240.12 85.3315 245.62 82.0015 252 80.0615C252.55 81.5615 252.55 83.2315 252 85.0615C249.92 90.1515 251.58 91.9815 257 90.5615C257.56 90.1815 257.89 89.6815 258 89.0615C259.51 86.0215 260.18 82.6815 260 79.0615C261.48 79.3215 262.81 78.9915 264 78.0615C264.74 76.0215 265.57 74.0215 266.5 72.0615C269.01 69.2615 271.51 66.5915 274 64.0615Z" fill="#FF7448"/>
<path fill-rule="evenodd" clip-rule="evenodd" d="M203 79.0614C212.28 80.1714 217.94 85.3314 220 94.5614C219.44 98.0014 217.61 98.8314 214.5 97.0614C211.8 88.3414 205.96 84.5114 197 85.5614C195.2 83.8614 194.87 82.0314 196 80.0614C198.22 79.1914 200.55 78.8614 203 79.0614Z" fill="#FFBEAA"/>
<path fill-rule="evenodd" clip-rule="evenodd" d="M252 85.0614C255.74 84.1614 257.74 85.4914 258 89.0614C257.89 89.6814 257.56 90.1814 257 90.5614C251.58 91.9814 249.92 90.1514 252 85.0614Z" fill="#FFC5B3"/>
<path fill-rule="evenodd" clip-rule="evenodd" d="M285 137.062C284.51 138.032 284.01 139.032 283.5 140.062C279.76 138.932 275.92 138.772 272 139.562C277.78 145.342 282.78 150.342 287 154.562C285.77 155.342 284.77 156.342 284 157.562C285.37 162.152 287.87 165.982 291.5 169.062C294.13 182.452 289.3 186.612 277 181.562C268.77 173.612 266.77 175.112 271 186.062C266.43 188.422 261.6 190.092 256.5 191.062C252.32 190.472 248.66 188.802 245.5 186.062C245.53 184.142 246.36 182.482 248 181.062C250.66 182.672 252.49 182.012 253.5 179.062C255.55 173.482 256.05 167.812 255 162.062C259.22 160.662 263.55 159.662 268 159.062C269.35 156.952 269.02 155.122 267 153.562C264.69 153.062 262.36 152.902 260 153.062C258.21 152.252 256.21 151.752 254 151.562C258.72 147.982 264.06 145.982 270 145.562C268.04 144.612 266.38 143.272 265 141.562C261.8 141.462 258.8 140.792 256 139.562C257.21 138.522 258.21 137.352 259 136.062C260.76 135.012 261.42 133.342 261 131.062C261.06 130.522 261.39 130.182 262 130.062C267.17 133.862 272.51 134.032 278 130.562C279.71 129.432 280.21 127.932 279.5 126.062C274.01 120.492 267.51 118.662 260 120.562C258.14 116.632 255.47 113.472 252 111.062C260.01 110.562 266.18 106.892 270.5 100.062C271.57 100.752 272.73 101.252 274 101.562C276.34 107.232 280.51 110.732 286.5 112.062C288.45 118.882 286.61 124.382 281 128.562C282.45 131.442 283.78 134.272 285 137.062Z" fill="#FF7144"/>
<path fill-rule="evenodd" clip-rule="evenodd" d="M215 101.061C220.71 100.241 222.04 102.071 219 106.561C214.23 107.371 212.89 105.541 215 101.061Z" fill="#FFBCA7"/>
<path fill-rule="evenodd" clip-rule="evenodd" d="M321 80.0615C318.55 79.6415 317.22 80.6415 317 83.0615C318.15 86.3215 319.48 89.4915 321 92.5615C322.61 93.2815 324.11 93.1115 325.5 92.0615C326 89.4115 326.16 86.7515 326 84.0615C327.95 85.2815 329.45 86.9415 330.5 89.0615C330.9 88.8315 331.07 88.5015 331 88.0615C332.32 92.4615 332.32 96.9615 331 101.561C351.17 104.081 357.17 114.581 349 133.061C348.33 134.061 347.67 135.061 347 136.061C347.15 135.011 346.98 134.011 346.5 133.061C339.66 140.151 332.32 140.811 324.5 135.061C324.33 135.391 324.17 135.731 324 136.061C326.22 139.351 327.39 143.021 327.5 147.061C338.11 142.541 345.61 145.541 350 156.061C349 156.731 348 157.391 347 158.061C345.79 154.631 344.29 151.301 342.5 148.061C340.83 146.731 339.17 146.731 337.5 148.061C338.44 153.321 339.44 158.651 340.5 164.061C341.61 165.601 343.11 166.261 345 166.061C344.38 168.311 343.04 169.981 341 171.061C336.7 168.971 334.7 170.301 335 175.061C325.62 178.041 318.95 175.041 315 166.061C316.43 163.131 318.43 160.631 321 158.561C319.54 158.141 319.04 157.301 319.5 156.061C324.12 155.121 325.96 152.451 325 148.061C319.28 150.941 315.61 155.441 314 161.561C312.44 161.881 311.27 162.711 310.5 164.061C310.12 163.501 309.62 163.171 309 163.061C307.72 159.911 305.39 157.911 302 157.061C298.02 150.271 298.02 143.441 302 136.561C301.18 134.131 300.84 131.631 301 129.061C297.17 129.361 294.17 131.191 292 134.561C289.85 135.971 287.52 136.801 285 137.061C288.62 124.911 296.29 121.071 308 125.561C312.02 131.611 313.02 130.941 311 123.561C310.88 120.971 311.54 118.641 313 116.561C309.71 116.931 306.37 117.431 303 118.061C302.65 115.691 302.48 113.361 302.5 111.061C303.17 111.731 303.83 112.391 304.5 113.061C304.83 106.391 305.17 99.7315 305.5 93.0615C312.6 83.8815 311.43 82.2215 302 88.0615C297 85.5615 291.67 84.3915 286 84.5615C287.66 82.7315 289.66 81.4015 292 80.5615C300.2 78.3515 308.53 77.6815 317 78.5615C318.56 78.7715 319.89 79.2715 321 80.0615Z" fill="#FE794E"/>
<path fill-rule="evenodd" clip-rule="evenodd" d="M336 108.062C343.53 109.222 347.53 113.722 348 121.562C348.74 126.492 346.91 127.992 342.5 126.062C342.53 120.462 340.2 116.132 335.5 113.062C334.86 111.292 335.03 109.632 336 108.062Z" fill="#FFC7B5"/>
<path fill-rule="evenodd" clip-rule="evenodd" d="M176 121.061C180.35 123.421 184.69 126.081 189 129.061C188 131.061 187 133.061 186 135.061C187.24 135.841 188.24 136.841 189 138.061C187.31 140.791 185.64 143.461 184 146.061C182.87 144.251 182.2 142.251 182 140.061C186.15 135.391 185.82 130.891 181 126.561C175.17 123.051 169 121.891 162.5 123.061C162.01 124.351 161.84 125.691 162 127.061C161.04 128.521 159.88 129.851 158.5 131.061C156.54 135.711 154.54 140.371 152.5 145.061C151.61 148.961 152.11 152.631 154 156.061C150.17 156.311 146.84 155.141 144 152.561C141.44 149.021 139.77 145.191 139 141.061C142.44 137.341 146.78 135.171 152 134.561C150.01 132.401 148.67 129.901 148 127.061C155.98 118.171 165.31 116.171 176 121.061Z" fill="#FF855E"/>
<path fill-rule="evenodd" clip-rule="evenodd" d="M182 140.061C180.48 140.051 179.32 139.381 178.5 138.061C178.41 135.551 177.57 133.391 176 131.561C171.4 129.751 166.74 128.251 162 127.061C161.84 125.691 162.01 124.351 162.5 123.061C169 121.891 175.17 123.051 181 126.561C185.82 130.891 186.15 135.391 182 140.061Z" fill="#FFCCBC"/>
<path fill-rule="evenodd" clip-rule="evenodd" d="M229 127.062C232.59 131.022 233.92 135.522 233 140.562C231.24 141.362 229.57 141.192 228 140.062C226.64 132.692 222.31 129.692 215 131.062C212.38 129.362 212.38 127.532 215 125.562C219.94 123.462 224.61 123.962 229 127.062Z" fill="#FFC1AD"/>
<path fill-rule="evenodd" clip-rule="evenodd" d="M162 127.062C166.74 128.252 171.4 129.752 176 131.562C177.57 133.392 178.41 135.552 178.5 138.062C179.32 139.382 180.48 140.052 182 140.062C182.2 142.252 182.87 144.252 184 146.062C184.09 147.062 183.75 147.892 183 148.562C181 148.892 179 149.232 177 149.562C170.49 155.482 162.83 157.642 154 156.062C152.11 152.632 151.61 148.962 152.5 145.062C154.54 140.372 156.54 135.712 158.5 131.062C159.88 129.852 161.04 128.522 162 127.062Z" fill="#FF9878"/>
<path fill-rule="evenodd" clip-rule="evenodd" d="M331.001 88.0615C331.071 88.5015 330.901 88.8315 330.501 89.0615C329.451 86.9415 327.951 85.2815 326.001 84.0615C324.331 82.7315 322.671 81.3915 321.001 80.0615C319.891 79.2715 318.561 78.7715 317.001 78.5615C308.531 77.6815 300.201 78.3515 292.001 80.5615C289.661 81.4015 287.661 82.7315 286.001 84.5615C291.671 84.3915 297.001 85.5615 302.001 88.0615C311.431 82.2215 312.601 83.8815 305.501 93.0615C305.171 99.7315 304.831 106.391 304.501 113.061C303.831 112.391 303.171 111.731 302.501 111.061C302.481 113.361 302.651 115.691 303.001 118.061C306.371 117.431 309.711 116.931 313.001 116.561C311.541 118.641 310.881 120.971 311.001 123.561C313.021 130.941 312.021 131.611 308.001 125.561C296.291 121.071 288.621 124.911 285.001 137.061C283.781 134.271 282.451 131.441 281.001 128.561C286.611 124.381 288.451 118.881 286.501 112.061C280.511 110.731 276.341 107.231 274.001 101.561C272.731 101.251 271.571 100.751 270.501 100.061C266.181 106.891 260.011 110.561 252.001 111.061C250.951 110.911 249.951 111.081 249.001 111.561C255.851 114.751 258.181 119.921 256.001 127.061C254.291 126.681 253.291 125.681 253.001 124.061C255.501 121.441 255.171 118.941 252.001 116.561C247.311 112.931 242.151 111.761 236.501 113.061C235.831 114.731 235.831 116.391 236.501 118.061C241.711 118.641 246.211 120.641 250.001 124.061C250.591 124.711 251.261 125.381 252.001 126.061C250.671 128.061 249.001 129.731 247.001 131.061C246.071 129.871 245.741 128.541 246.001 127.061C241.141 126.771 236.801 125.111 233.001 122.061C230.891 123.161 229.561 124.831 229.001 127.061C224.611 123.961 219.941 123.461 215.001 125.561C212.381 127.531 212.381 129.361 215.001 131.061C217.061 131.781 219.221 132.441 221.501 133.061C223.651 137.001 225.481 141.001 227.001 145.061C225.431 148.991 226.771 150.831 231.001 150.561C231.881 149.851 232.551 149.021 233.001 148.061C238.061 148.051 243.061 147.891 248.001 147.561C246.731 149.601 247.061 151.441 249.001 153.061C247.761 153.841 246.761 154.841 246.001 156.061C247.371 157.151 248.531 156.821 249.501 155.061C250.491 156.731 251.321 158.401 252.001 160.061C252.471 161.471 253.471 162.131 255.001 162.061C256.051 167.811 255.551 173.481 253.501 179.061C252.491 182.011 250.661 182.671 248.001 181.061C246.361 182.481 245.531 184.141 245.501 186.061C248.661 188.801 252.321 190.471 256.501 191.061C261.601 190.091 266.431 188.421 271.001 186.061C271.361 187.931 272.361 189.431 274.001 190.561C276.401 192.081 278.731 193.581 281.001 195.061C278.221 194.751 275.721 193.751 273.501 192.061C269.611 194.941 265.441 197.441 261.001 199.561C250.811 202.001 242.471 199.161 236.001 191.061C233.201 192.701 230.531 194.531 228.001 196.561C221.901 196.581 216.061 197.751 210.501 200.061C205.141 199.631 200.641 197.471 197.001 193.561C188.421 191.991 180.421 193.321 173.001 197.561C170.621 198.121 168.281 197.951 166.001 197.061C173.251 195.781 179.921 192.781 186.001 188.061C187.701 188.221 189.371 188.051 191.001 187.561C191.751 186.891 192.091 186.061 192.001 185.061C194.331 188.741 197.661 191.241 202.001 192.561C208.001 192.651 214.001 192.321 220.001 191.561C225.401 189.951 228.901 186.451 230.501 181.061C231.211 176.381 231.541 171.721 231.501 167.061C229.981 167.721 228.811 168.721 228.001 170.061C225.211 169.481 223.551 170.481 223.001 173.061C219.961 174.831 216.621 175.991 213.001 176.561C211.831 177.731 210.671 178.891 209.501 180.061C209.301 177.661 208.141 175.991 206.001 175.061C205.031 173.161 204.701 171.161 205.001 169.061C206.671 169.061 208.331 169.061 210.001 169.061C210.001 168.061 210.001 167.061 210.001 166.061C211.001 166.061 212.001 166.061 213.001 166.061C215.851 166.481 218.521 167.481 221.001 169.061C224.701 168.261 225.701 166.261 224.001 163.061C225.241 161.591 226.241 159.921 227.001 158.061C226.121 157.311 225.121 156.811 224.001 156.561C212.111 154.531 201.951 157.701 193.501 166.061C192.291 169.101 190.791 171.771 189.001 174.061C183.741 167.371 176.911 164.701 168.501 166.061C167.831 167.731 167.831 169.391 168.501 171.061C172.541 172.091 176.371 173.421 180.001 175.061C177.521 176.731 174.691 177.731 171.501 178.061C165.421 176.351 159.421 174.351 153.501 172.061C152.201 172.541 151.031 173.201 150.001 174.061C147.941 173.871 145.941 173.371 144.001 172.561C142.131 170.521 140.131 168.691 138.001 167.061C134.481 159.861 134.151 152.521 137.001 145.061C137.231 143.501 137.901 142.161 139.001 141.061C139.771 145.191 141.441 149.021 144.001 152.561C146.841 155.141 150.171 156.311 154.001 156.061C162.831 157.641 170.491 155.481 177.001 149.561C179.001 149.231 181.001 148.891 183.001 148.561C183.751 147.891 184.091 147.061 184.001 146.061C185.641 143.461 187.311 140.791 189.001 138.061C188.241 136.841 187.241 135.841 186.001 135.061C187.001 133.061 188.001 131.061 189.001 129.061C184.691 126.081 180.351 123.421 176.001 121.061C176.001 118.391 176.001 115.731 176.001 113.061C181.081 116.781 186.411 120.281 192.001 123.561C210.721 127.801 221.891 120.631 225.501 102.061C228.441 105.841 232.271 107.501 237.001 107.061C242.311 107.461 246.811 105.791 250.501 102.061C250.831 102.731 251.171 103.391 251.501 104.061C254.651 99.5515 258.821 96.7115 264.001 95.5615C265.091 92.6815 267.091 90.6815 270.001 89.5615C273.691 90.3115 277.021 89.3115 280.001 86.5615C279.191 86.2515 278.531 85.7515 278.001 85.0615C281.251 77.1515 279.911 70.1515 274.001 64.0615C268.591 59.5015 262.591 58.8315 256.001 62.0615C254.801 61.0315 253.471 60.2015 252.001 59.5615C245.211 57.5815 239.871 59.4115 236.001 65.0615C226.881 67.6815 221.381 73.6815 219.501 83.0615C214.731 78.2515 209.231 76.9115 203.001 79.0615C200.551 78.8615 198.221 79.1915 196.001 80.0615C194.121 79.2215 192.121 78.8915 190.001 79.0615C195.551 72.3915 202.051 71.3915 209.501 76.0615C214.011 57.0515 225.851 49.5515 245.001 53.5615C249.381 56.4715 254.051 58.6415 259.001 60.0615C267.741 55.5515 275.911 56.5515 283.501 63.0615C294.551 59.3315 303.051 62.5015 309.001 72.5615C313.861 72.7515 318.521 73.7515 323.001 75.5615C326.561 79.1915 329.231 83.3615 331.001 88.0615Z" fill="#FF6B3C"/>
<path fill-rule="evenodd" clip-rule="evenodd" d="M253 124.061C252 124.061 251 124.061 250 124.061C246.21 120.641 241.71 118.641 236.5 118.061C235.83 116.391 235.83 114.731 236.5 113.061C242.15 111.761 247.31 112.931 252 116.561C255.17 118.941 255.5 121.441 253 124.061Z" fill="#FFBDA8"/>
<path fill-rule="evenodd" clip-rule="evenodd" d="M293.999 101.061C298.619 99.9712 300.459 101.631 299.499 106.061C294.579 107.641 292.749 105.981 293.999 101.061Z" fill="#FFB8A1"/>
<path fill-rule="evenodd" clip-rule="evenodd" d="M284.999 87.0615C288.109 87.6515 290.609 89.3215 292.499 92.0615C292.999 95.5615 291.499 97.0615 287.999 96.5615C286.499 95.0615 284.999 93.5615 283.499 92.0615C282.889 90.0615 283.389 88.4015 284.999 87.0615Z" fill="#FFBBA6"/>
<path fill-rule="evenodd" clip-rule="evenodd" d="M235 71.0611C234.83 68.9411 235.16 66.9411 236 65.0611C241.65 63.2311 246.65 64.3911 251 68.5611C255.14 71.7311 254.97 74.2311 250.5 76.0611C247.78 75.0211 245.28 73.5211 243 71.5611C240.35 71.0611 237.69 70.9011 235 71.0611Z" fill="#FFC8B8"/>
<path fill-rule="evenodd" clip-rule="evenodd" d="M261 131.062C261.42 133.342 260.76 135.012 259 136.062C255.43 136.152 254.26 134.492 255.5 131.062C257.33 129.812 259.16 129.812 261 131.062Z" fill="#FFC8B7"/>
<path fill-rule="evenodd" clip-rule="evenodd" d="M309 132.062C318.05 134.032 322.05 139.532 321 148.562C319.67 149.232 318.33 149.232 317 148.562C315.54 143.442 312.37 139.942 307.5 138.062C306.76 135.692 307.26 133.692 309 132.062Z" fill="#FFC2AE"/>
<path fill-rule="evenodd" clip-rule="evenodd" d="M347 136.062C346.28 137.702 346.12 139.362 346.5 141.062C353.8 144.312 357.63 149.972 358 158.062C356.62 163.152 353.95 167.492 350 171.062C350.73 166.142 350.73 161.142 350 156.062C345.61 145.542 338.11 142.542 327.5 147.062C327.39 143.022 326.22 139.352 324 136.062C324.17 135.732 324.33 135.392 324.5 135.062C332.32 140.812 339.66 140.152 346.5 133.062C346.98 134.012 347.15 135.012 347 136.062Z" fill="#FC6535"/>
<path fill-rule="evenodd" clip-rule="evenodd" d="M252 111.062C255.47 113.472 258.14 116.632 260 120.562C267.51 118.662 274.01 120.492 279.5 126.062C280.21 127.932 279.71 129.432 278 130.562C272.51 134.032 267.17 133.862 262 130.062C261.39 130.182 261.06 130.522 261 131.062C259.16 129.812 257.33 129.812 255.5 131.062C254.26 134.492 255.43 136.152 259 136.062C258.21 137.352 257.21 138.522 256 139.562C258.8 140.792 261.8 141.462 265 141.562C266.38 143.272 268.04 144.612 270 145.562C264.06 145.982 258.72 147.982 254 151.562C256.21 151.752 258.21 152.252 260 153.062C257.64 153.742 255.31 154.572 253 155.562C252.12 156.922 251.79 158.422 252 160.062C251.32 158.402 250.49 156.732 249.5 155.062C248.53 156.822 247.37 157.152 246 156.062C246.76 154.842 247.76 153.842 249 153.062C247.06 151.442 246.73 149.602 248 147.562C243.06 147.892 238.06 148.052 233 148.062C232.28 144.382 230.28 143.382 227 145.062C225.48 141.002 223.65 137.002 221.5 133.062C219.22 132.442 217.06 131.782 215 131.062C222.31 129.692 226.64 132.692 228 140.062C229.57 141.192 231.24 141.362 233 140.562C233.92 135.522 232.59 131.022 229 127.062C229.56 124.832 230.89 123.162 233 122.062C236.8 125.112 241.14 126.772 246 127.062C245.74 128.542 246.07 129.872 247 131.062C249 129.732 250.67 128.062 252 126.062C251.26 125.382 250.59 124.712 250 124.062C251 124.062 252 124.062 253 124.062C253.29 125.682 254.29 126.682 256 127.062C258.18 119.922 255.85 114.752 249 111.562C249.95 111.082 250.95 110.912 252 111.062Z" fill="#FF7E55"/>
<path fill-rule="evenodd" clip-rule="evenodd" d="M233 148.061C232.55 149.021 231.88 149.851 231 150.561C226.77 150.831 225.43 148.991 227 145.061C230.28 143.381 232.28 144.381 233 148.061Z" fill="#FFBCA7"/>
<path fill-rule="evenodd" clip-rule="evenodd" d="M346.999 158.061C347.389 161.071 346.729 163.741 344.999 166.061C343.109 166.261 341.609 165.601 340.499 164.061C339.439 158.651 338.439 153.321 337.499 148.061C339.169 146.731 340.829 146.731 342.499 148.061C344.289 151.301 345.789 154.631 346.999 158.061Z" fill="#FFC2AE"/>
<path fill-rule="evenodd" clip-rule="evenodd" d="M260.001 153.062C262.361 152.902 264.691 153.062 267.001 153.562C269.021 155.122 269.351 156.952 268.001 159.062C263.551 159.662 259.221 160.662 255.001 162.062C253.471 162.132 252.471 161.472 252.001 160.062C251.791 158.422 252.121 156.922 253.001 155.562C255.311 154.572 257.641 153.742 260.001 153.062Z" fill="#FFC0AC"/>
<path fill-rule="evenodd" clip-rule="evenodd" d="M224 163.062C225.7 166.262 224.7 168.262 221 169.062C218.52 167.482 215.85 166.482 213 166.062C210.65 164.882 208.32 165.212 206 167.062C201.66 163.242 202.33 160.402 208 158.562C213.87 158.192 219.21 159.692 224 163.062Z" fill="#FFC0AC"/>
<path fill-rule="evenodd" clip-rule="evenodd" d="M358 158.062C363.36 168.582 361.7 177.752 353 185.562C345.25 190.262 336.91 193.592 328 195.562C311.34 197.352 295.01 200.682 279 205.562C266.75 208.142 254.42 208.642 242 207.062C221.49 210.172 201.16 209.342 181 204.562C173.96 201.102 166.63 198.442 159 196.562C154.3 194.212 149.64 191.882 145 189.562C138.79 183.302 136.46 175.802 138 167.062C140.13 168.692 142.13 170.522 144 172.562C145.94 173.372 147.94 173.872 150 174.062C150.76 174.832 151.76 175.332 153 175.562C148.73 187.852 153.06 195.012 166 197.062C168.28 197.952 170.62 198.122 173 197.562C180.42 193.322 188.42 191.992 197 193.562C200.64 197.472 205.14 199.632 210.5 200.062C216.06 197.752 221.9 196.582 228 196.562C230.53 194.532 233.2 192.702 236 191.062C242.47 199.162 250.81 202.002 261 199.562C265.44 197.442 269.61 194.942 273.5 192.062C275.72 193.752 278.22 194.752 281 195.062C284.07 197.512 287.4 197.682 291 195.562C297.42 192.602 303.09 188.772 308 184.062C311.6 187.162 315.6 189.662 320 191.562C324.85 192.722 329.18 191.882 333 189.062C339.21 186.002 343.04 181.002 344.5 174.062C346.56 173.332 348.39 172.332 350 171.062C353.95 167.492 356.62 163.152 358 158.062Z" fill="#FBF8F7"/>
<path fill-rule="evenodd" clip-rule="evenodd" d="M189 174.062C190.83 177.302 190.16 179.642 187 181.062C184.68 179.162 182.35 177.162 180 175.062C176.37 173.422 172.54 172.092 168.5 171.062C167.83 169.392 167.83 167.732 168.5 166.062C176.91 164.702 183.74 167.372 189 174.062Z" fill="#FFC2AE"/>
<path fill-rule="evenodd" clip-rule="evenodd" d="M302 157.062C299.64 156.902 297.31 157.062 295 157.562C292.33 159.562 292.33 161.562 295 163.562C297.33 163.892 299.67 164.232 302 164.562C305.5 169.482 307.84 168.982 309 163.062C309.62 163.172 310.12 163.502 310.5 164.062C311.27 162.712 312.44 161.882 314 161.562C315.61 155.442 319.28 150.942 325 148.062C325.96 152.452 324.12 155.122 319.5 156.062C319.04 157.302 319.54 158.142 321 158.562C318.43 160.632 316.43 163.132 315 166.062C318.95 175.042 325.62 178.042 335 175.062C339.98 178.072 341.98 176.742 341 171.062C343.04 169.982 344.38 168.312 345 166.062C346.73 163.742 347.39 161.072 347 158.062C348 157.392 349 156.732 350 156.062C350.73 161.142 350.73 166.142 350 171.062C348.39 172.332 346.56 173.332 344.5 174.062C343.04 181.002 339.21 186.002 333 189.062C333.15 188.012 332.98 187.012 332.5 186.062C321.79 189.792 314.95 186.292 312 175.562C312.7 172.732 312.87 169.902 312.5 167.062C311.4 172.772 309.9 178.442 308 184.062C303.09 188.772 297.42 192.602 291 195.562C287.4 197.682 284.07 197.512 281 195.062C278.73 193.582 276.4 192.082 274 190.562C272.36 189.432 271.36 187.932 271 186.062C266.77 175.112 268.77 173.612 277 181.562C289.3 186.612 294.13 182.452 291.5 169.062C287.87 165.982 285.37 162.152 284 157.562C284.77 156.342 285.77 155.342 287 154.562C282.78 150.342 277.78 145.342 272 139.562C275.92 138.772 279.76 138.932 283.5 140.062C284.01 139.032 284.51 138.032 285 137.062C287.52 136.802 289.85 135.972 292 134.562C294.17 131.192 297.17 129.362 301 129.062C300.84 131.632 301.18 134.132 302 136.562C298.02 143.442 298.02 150.272 302 157.062Z" fill="#FF8761"/>
<path fill-rule="evenodd" clip-rule="evenodd" d="M302 157.062C305.39 157.912 307.72 159.912 309 163.062C307.84 168.982 305.5 169.482 302 164.562C299.67 164.232 297.33 163.892 295 163.562C292.33 161.562 292.33 159.562 295 157.562C297.31 157.062 299.64 156.902 302 157.062Z" fill="#FFCEBF"/>
<path fill-rule="evenodd" clip-rule="evenodd" d="M341 171.062C341.98 176.742 339.98 178.072 335 175.062C334.7 170.302 336.7 168.972 341 171.062Z" fill="#FFC0AC"/>
<path d="M349 133.062C364.59 140.152 376.09 151.492 383.5 167.062C385.81 176.012 387.81 185.012 389.5 194.062C390.19 207.452 391.53 220.782 393.5 234.062C394 243.052 394.17 252.052 394 261.062C405.52 263.422 414.02 269.762 419.5 280.062C419.87 285.832 419.2 291.502 417.5 297.062C411.34 304.212 404.18 310.042 396 314.562C400.63 317.472 404.8 320.972 408.5 325.062C410.65 327.461 410.48 329.622 408 331.562C403.49 333.692 399.16 333.352 395 330.562C393.16 328.022 390.99 325.852 388.5 324.062C385.54 331.892 382.87 339.892 380.5 348.062C376.5 358.662 369 365.492 358 368.562C341.15 374.122 323.82 376.952 306 377.062C307.84 393.012 309.17 409.012 310 425.062C316.09 425.182 322.09 426.012 328 427.562C331.38 428.592 332.54 430.762 331.5 434.062C326.39 439.432 320.05 441.762 312.5 441.062C303.05 442.612 298.05 438.612 297.5 429.062C296.72 420.372 295.72 411.702 294.5 403.062C292.43 395.352 290.26 387.682 288 380.062C279.61 380.792 271.28 381.962 263 383.562C248.99 383.732 234.99 384.232 221 385.062C218.58 404.092 216.08 423.092 213.5 442.062C211.74 444.832 209.24 446.332 206 446.562C201.67 447.232 197.33 447.232 193 446.562C186.06 445.222 184.23 441.392 187.5 435.062C192.39 431.542 197.89 430.212 204 431.062C203.83 414.382 204.17 397.712 205 381.062C198.86 381.202 192.86 380.372 187 378.562C167.54 371.162 148.87 362.162 131 351.562C123.27 344.072 118.77 334.902 117.5 324.062C115.13 330.651 110.63 333.651 104 333.062C102.26 330.742 100.92 328.242 99.9998 325.562C101.77 322.952 103.77 320.452 106 318.062C99.5398 315.522 93.2098 312.682 86.9998 309.562C78.5398 300.862 77.7098 291.362 84.4998 281.062C91.3098 272.752 99.4798 266.082 109 261.062C109.33 260.232 109.67 259.392 110 258.562C108.85 231.412 108.69 204.252 109.5 177.062C113.09 170.212 117.43 163.872 122.5 158.062C126.93 153.132 131.76 148.792 137 145.062C134.15 152.522 134.48 159.862 138 167.062C136.46 175.802 138.79 183.302 145 189.562L159 196.562C166.63 198.442 173.96 201.102 181 204.562C201.16 209.342 221.49 210.172 242 207.062C254.42 208.642 266.75 208.142 279 205.562C295.01 200.682 311.34 197.352 328 195.562C336.91 193.592 345.25 190.262 353 185.562C361.7 177.752 363.36 168.582 358 158.062C357.63 149.972 353.8 144.312 346.5 141.062C346.12 139.362 346.28 137.702 347 136.062C347.67 135.062 348.33 134.062 349 133.062ZM110 273.062C103.73 279.502 97.5598 286.172 91.4998 293.062C89.5398 295.412 89.0398 297.912 89.9998 300.562C97.8098 305.121 106.14 306.292 115 304.062C112.42 293.752 110.76 283.422 110 273.062ZM395 274.062C395.04 282.772 394.88 291.442 394.5 300.062C401.09 296.972 406.25 292.312 410 286.062C406.7 279.912 401.7 275.912 395 274.062Z" fill="#020201"/>
<path fill-rule="evenodd" clip-rule="evenodd" d="M333 189.062C329.18 191.882 324.85 192.722 320 191.562C315.6 189.662 311.6 187.162 308 184.062C309.9 178.442 311.4 172.772 312.5 167.062C312.87 169.902 312.7 172.732 312 175.562C314.95 186.292 321.79 189.792 332.5 186.062C332.98 187.012 333.15 188.012 333 189.062Z" fill="#FF6B3B"/>
<path fill-rule="evenodd" clip-rule="evenodd" d="M224 163.062C219.21 159.692 213.87 158.192 208 158.562C202.33 160.402 201.66 163.242 206 167.062C208.32 165.212 210.65 164.882 213 166.062C212 166.062 211 166.062 210 166.062C210 167.062 210 168.062 210 169.062C208.33 169.062 206.67 169.062 205 169.062C204.7 171.162 205.03 173.162 206 175.062C208.14 175.992 209.3 177.662 209.5 180.062C210.67 178.892 211.83 177.732 213 176.562C216.62 175.992 219.96 174.832 223 173.062C224.99 178.112 227.32 178.282 230 173.562C229.52 172.262 228.86 171.092 228 170.062C228.81 168.722 229.98 167.722 231.5 167.062C231.54 171.722 231.21 176.382 230.5 181.062C228.9 186.452 225.4 189.952 220 191.562C214 192.322 208 192.652 202 192.562C197.66 191.242 194.33 188.742 192 185.062C189.95 181.122 187.62 181.122 185 185.062C185.63 185.982 185.96 186.982 186 188.062C179.92 192.782 173.25 195.782 166 197.062C153.06 195.012 148.73 187.852 153 175.562C151.76 175.332 150.76 174.832 150 174.062C151.03 173.202 152.2 172.542 153.5 172.062C159.42 174.352 165.42 176.352 171.5 178.062C174.69 177.732 177.52 176.732 180 175.062C182.35 177.162 184.68 179.162 187 181.062C190.16 179.642 190.83 177.302 189 174.062C190.79 171.772 192.29 169.102 193.5 166.062C201.95 157.702 212.11 154.532 224 156.562C225.12 156.812 226.12 157.312 227 158.062C226.24 159.922 225.24 161.592 224 163.062Z" fill="#FF825A"/>
<path fill-rule="evenodd" clip-rule="evenodd" d="M228 170.061C228.86 171.091 229.52 172.261 230 173.561C227.32 178.281 224.99 178.111 223 173.061C223.55 170.481 225.21 169.481 228 170.061Z" fill="#FFBDA7"/>
<path fill-rule="evenodd" clip-rule="evenodd" d="M192 185.061C192.09 186.061 191.75 186.891 191 187.561C189.37 188.051 187.7 188.221 186 188.061C185.96 186.981 185.63 185.981 185 185.061C187.62 181.121 189.95 181.121 192 185.061Z" fill="#FFBCA8"/>
<path fill-rule="evenodd" clip-rule="evenodd" d="M233 243.062C262.55 242.072 291.22 246.572 319 256.562C323.26 258.492 327.26 260.832 331 263.562C336.85 270.082 343.35 275.912 350.5 281.062C354.32 286.532 355.66 292.532 354.5 299.062C348.4 323.832 332.9 339.332 308 345.562C295.57 347.422 283.24 349.752 271 352.562C249.03 354.132 227.03 354.472 205 353.562C168.13 348.682 154.3 328.182 163.5 292.062C165.03 282.502 169.53 274.672 177 268.562C194.11 256.502 212.77 248.002 233 243.062Z" fill="#FBFBFB"/>
<path fill-rule="evenodd" clip-rule="evenodd" d="M285.999 264.062C299.709 265.132 313.039 267.962 325.999 272.562C331.669 276.732 337.669 280.402 343.999 283.562C345.699 287.332 344.529 289.832 340.499 291.062C334.679 290.132 329.509 287.802 324.999 284.062C325.119 296.852 321.119 308.352 312.999 318.562C309.829 320.312 306.829 322.312 303.999 324.562C275.909 326.802 264.079 313.972 268.499 286.062C270.869 275.872 276.709 268.532 285.999 264.062Z" fill="#040404"/>
<path fill-rule="evenodd" clip-rule="evenodd" d="M201 266.062C210.76 265.852 220.09 267.692 229 271.562C230.17 272.732 231.33 273.892 232.5 275.062C234.86 281.452 237.53 287.792 240.5 294.062C241.17 296.732 241.17 299.392 240.5 302.062C236.81 311.612 230.64 319.112 222 324.562C200.89 331.132 187.72 323.632 182.5 302.062C181.69 297.902 182.19 293.902 184 290.062C183.67 289.732 183.33 289.392 183 289.062C179.85 291.712 176.85 294.542 174 297.562C171.21 299.222 168.38 299.392 165.5 298.062C164.68 294.602 165.02 291.262 166.5 288.062C169.3 284.262 172.46 280.762 176 277.562C184.16 273.142 192.5 269.312 201 266.062Z" fill="#050505"/>
<path fill-rule="evenodd" clip-rule="evenodd" d="M286 272.062C291.8 272.032 294.8 274.862 295 280.562C296 292.242 291 296.582 280 293.562C277.88 290.782 276.21 287.782 275 284.562C275.41 282.242 276.24 280.072 277.5 278.062C280.79 276.592 283.62 274.592 286 272.062Z" fill="#F3F3F3"/>
<path fill-rule="evenodd" clip-rule="evenodd" d="M217.001 277.061C224.071 276.291 228.071 279.451 229.001 286.561C227.891 293.641 224.061 298.471 217.501 301.061C208.391 296.291 206.721 289.621 212.501 281.061C213.901 279.491 215.401 278.161 217.001 277.061Z" fill="#F7F7F7"/>
<path fill-rule="evenodd" clip-rule="evenodd" d="M270 328.061C275 327.231 277.17 329.231 276.5 334.061C273.68 339.251 269.84 343.411 265 346.561C262.59 347.041 260.25 346.711 258 345.561C254.88 343.671 251.55 342.331 248 341.561C243.5 337.061 244.33 334.221 250.5 333.061C253.51 333.731 256.35 334.891 259 336.561C260.67 337.231 262.33 337.231 264 336.561C266.22 333.851 268.22 331.011 270 328.061Z" fill="#0C0C0C"/>
</svg>
