<svg width="500" height="500" viewBox="0 0 500 500" fill="none" xmlns="http://www.w3.org/2000/svg">
<path fill-rule="evenodd" clip-rule="evenodd" d="M218 84.0617C214.59 87.6117 210.59 90.4417 206 92.5617C197.67 96.2317 189.33 99.8917 181 103.562C157.54 120.692 137.04 140.852 119.5 164.062C113.97 171.792 109.47 180.122 106 189.062C106.74 189.742 107.41 190.412 108 191.062C102.33 191.062 96.67 191.062 91 191.062C93.28 183.072 96.44 175.402 100.5 168.062C120.07 138.992 143.9 113.992 172 93.0617C186.45 86.2417 201.78 83.2417 218 84.0617Z" fill="#FFC685"/>
<path fill-rule="evenodd" clip-rule="evenodd" d="M281 87.0614C252.1 99.0114 224.76 113.841 199 131.561C175.08 148.311 155.08 168.811 139 193.061C128.68 192.191 118.35 191.531 108 191.061C107.41 190.411 106.74 189.741 106 189.061C109.47 180.121 113.97 171.791 119.5 164.061C137.04 140.851 157.54 120.691 181 103.561C189.33 99.8914 197.67 96.2314 206 92.5614C210.59 90.4414 214.59 87.6114 218 84.0614C226.63 82.9814 235.3 82.8214 244 83.5614C256.21 85.9614 268.54 87.1214 281 87.0614Z" fill="#FFAE4F"/>
<path fill-rule="evenodd" clip-rule="evenodd" d="M281 87.0615C292.38 87.2615 303.38 88.9215 314 92.0615C310.98 91.9015 307.98 92.0615 305 92.5615C262.16 107.802 223.16 129.472 188 157.562C175.89 168.662 164.89 180.662 155 193.562C156.24 193.792 157.24 194.292 158 195.062C151.67 194.392 145.33 193.732 139 193.062C155.08 168.812 175.08 148.312 199 131.562C224.76 113.842 252.1 99.0115 281 87.0615Z" fill="#FFC685"/>
<path fill-rule="evenodd" clip-rule="evenodd" d="M314 92.0616C325.21 95.1516 336.54 97.8216 348 100.062C347.88 101.152 347.21 101.812 346 102.062C331.91 105.272 318.58 110.442 306 117.562C280 132.562 254 147.562 228 162.562C210.63 172.782 195.63 185.612 183 201.062C174.61 199.212 166.28 197.212 158 195.062C157.24 194.292 156.24 193.792 155 193.562C164.89 180.662 175.89 168.662 188 157.562C223.16 129.472 262.16 107.802 305 92.5616C307.98 92.0616 310.98 91.9016 314 92.0616Z" fill="#FFAE4F"/>
<path fill-rule="evenodd" clip-rule="evenodd" d="M172 93.0615C143.9 113.992 120.07 138.992 100.5 168.062C96.44 175.402 93.28 183.072 91 191.062C89.79 191.792 88.46 192.132 87 192.062C82.11 193.632 77.11 194.132 72 193.562C70.18 192.902 68.84 191.732 68 190.062C68.95 183.822 70.78 177.822 73.5 172.062C81.92 154.882 91.08 138.222 101 122.062C110.27 115.752 119.94 109.922 130 104.562C143.76 99.7915 157.76 95.9515 172 93.0615Z" fill="#FFAE4F"/>
<path fill-rule="evenodd" clip-rule="evenodd" d="M348 100.062C357.19 103.822 366.19 107.822 375 112.062C352.16 112.942 330.82 119.102 311 130.562C281.84 147.312 252.84 164.312 224 181.562C213.88 188.182 205.21 196.352 198 206.062C192.86 204.572 187.86 202.902 183 201.062C195.63 185.612 210.63 172.782 228 162.562C254 147.562 280 132.562 306 117.562C318.58 110.442 331.91 105.272 346 102.062C347.21 101.812 347.88 101.152 348 100.062Z" fill="#FFC685"/>
<path fill-rule="evenodd" clip-rule="evenodd" d="M375 112.062C380.09 113.772 384.76 116.272 389 119.562C395.41 125.082 401.74 130.582 408 136.062C364.14 147.512 322.47 164.352 283 186.562C266.78 196.332 253.11 208.832 242 224.062C227.78 216.952 213.11 210.952 198 206.062C205.21 196.352 213.88 188.182 224 181.562C252.84 164.312 281.84 147.312 311 130.562C330.82 119.102 352.16 112.942 375 112.062Z" fill="#FFAE4F"/>
<path fill-rule="evenodd" clip-rule="evenodd" d="M101 122.062C91.0798 138.222 81.9198 154.882 73.4998 172.062C70.7798 177.822 68.9498 183.822 67.9998 190.062C64.7998 171.272 68.2998 153.602 78.4998 137.062C82.9998 133.232 87.4998 129.392 91.9998 125.562C95.0198 124.382 98.0198 123.212 101 122.062Z" fill="#FFC685"/>
<path fill-rule="evenodd" clip-rule="evenodd" d="M408 136.062C412.33 139.732 416.33 143.732 420 148.062C372.9 158.592 328.57 176.092 287 200.562C274.9 208.332 264.4 217.832 255.5 229.062C254.37 230.912 253.87 232.912 254 235.062C249.54 231.842 245.54 228.172 242 224.062C253.11 208.832 266.78 196.332 283 186.562C322.47 164.352 364.14 147.512 408 136.062Z" fill="#FFC685"/>
<path fill-rule="evenodd" clip-rule="evenodd" d="M420.001 148.062C424.211 153.932 427.541 160.272 430.001 167.062C385.571 178.112 345.571 197.942 310.001 226.562C300.331 234.892 291.331 243.892 283.001 253.562C282.051 254.042 281.051 254.212 280.001 254.062C271.691 247.242 263.021 240.902 254.001 235.062C253.871 232.912 254.371 230.912 255.501 229.062C264.401 217.832 274.901 208.332 287.001 200.562C328.571 176.092 372.901 158.592 420.001 148.062Z" fill="#FFAE4F"/>
<path fill-rule="evenodd" clip-rule="evenodd" d="M430 167.062C432.04 171.502 433.7 176.172 435 181.062C379.34 193.382 332.34 220.382 294 262.062C289.55 258.932 284.88 256.262 280 254.062C281.05 254.212 282.05 254.042 283 253.562C291.33 243.892 300.33 234.892 310 226.562C345.57 197.942 385.57 178.112 430 167.062Z" fill="#FFC685"/>
<path fill-rule="evenodd" clip-rule="evenodd" d="M435 181.062C438.92 192.122 439.92 203.462 438 215.062C422.05 224.202 405.38 232.032 388 238.562C380 242.892 372 247.232 364 251.562C356.79 257.272 350.46 263.772 345 271.062C336.42 273.412 327.75 273.582 319 271.562C310.24 269.462 301.9 266.292 294 262.062C332.34 220.382 379.34 193.382 435 181.062Z" fill="#FFAE4F"/>
<path fill-rule="evenodd" clip-rule="evenodd" d="M91 191.062C96.67 191.062 102.33 191.062 108 191.062C118.35 191.532 128.68 192.192 139 193.062C145.33 193.732 151.67 194.392 158 195.062C166.28 197.212 174.61 199.212 183 201.062C187.86 202.902 192.86 204.572 198 206.062C213.11 210.952 227.78 216.952 242 224.062C245.54 228.172 249.54 231.842 254 235.062C263.02 240.902 271.69 247.242 280 254.062C284.88 256.262 289.55 258.932 294 262.062C301.9 266.292 310.24 269.462 319 271.562C327.75 273.582 336.42 273.412 345 271.062C349.03 270.892 353.03 270.392 357 269.562C379.43 260.792 401.43 251.132 423 240.562C427.97 236.752 431.64 231.922 434 226.062C435.31 230.242 435.31 234.582 434 239.062C433.27 240.752 432.27 242.252 431 243.562C435.97 246.532 439.47 250.702 441.5 256.062C442.17 262.732 442.17 269.392 441.5 276.062C441.1 280.192 439.6 283.852 437 287.062C440.59 291.832 441.76 297.172 440.5 303.062C438.49 309.642 435.65 315.802 432 321.562C430.13 322.932 428.13 324.092 426 325.062C422.88 334.822 417.22 342.652 409 348.562C403.91 350.742 398.57 351.572 393 351.062C390.09 359.132 384.42 364.302 376 366.562C370.34 367.062 364.68 367.232 359 367.062C357.82 350.662 355.99 334.332 353.5 318.062C351.22 314.522 348.55 314.192 345.5 317.062C343.66 320.312 342.82 323.812 343 327.562C346.44 344.882 348.11 362.382 348 380.062C337.63 386.882 326.63 387.882 315 383.062C309.48 398.152 299.15 402.982 284 397.562C279.19 394.742 275.02 391.242 271.5 387.062C254.91 398.702 242.74 395.032 235 376.062C233.11 377.172 231.11 378.002 229 378.562C222.68 379.062 216.34 379.232 210 379.062C208.22 378.672 206.55 378.002 205 377.062C202.49 372.692 199.99 368.362 197.5 364.062C193.79 367.102 189.63 369.262 185 370.562C177.54 372.732 171.7 370.572 167.5 364.062C165.27 358.832 162.6 353.832 159.5 349.062C152.06 355.202 143.89 356.542 135 353.062C132.29 350.692 129.96 348.022 128 345.062C125.11 342.332 122.78 339.172 121 335.562C114.92 335.422 108.92 334.762 103 333.562C97.43 329.492 92.76 324.662 89 319.062C87.48 313.882 86.65 308.552 86.5 303.062C84.17 301.562 82.01 299.892 80 298.062C72.4 286.002 72.06 273.672 79 261.062C75.59 255.902 73.59 250.242 73 244.062C73.01 240.042 74.17 236.372 76.5 233.062C79.72 230.182 82.55 227.012 85 223.562C80.81 212.802 81.48 202.302 87 192.062C88.46 192.132 89.79 191.792 91 191.062Z" fill="#FEFDFD"/>
<path fill-rule="evenodd" clip-rule="evenodd" d="M438 215.062C437.06 218.882 435.73 222.552 434 226.062C431.64 231.922 427.97 236.752 423 240.562C401.43 251.132 379.43 260.792 357 269.562C353.03 270.392 349.03 270.892 345 271.062C350.46 263.772 356.79 257.272 364 251.562C372 247.232 380 242.892 388 238.562C405.38 232.032 422.05 224.202 438 215.062Z" fill="#FFC786"/>
<path fill-rule="evenodd" clip-rule="evenodd" d="M121 289.061C110.28 279.911 106.28 268.251 109 254.061C109.64 249.121 111.64 244.781 115 241.061C114.67 240.731 114.33 240.391 114 240.061C108.78 243.091 103.28 245.421 97.5 247.061C94.34 246.911 92.18 245.411 91 242.561C91.74 238.411 93.74 235.081 97 232.561C103.43 227.421 110.76 224.421 119 223.561C135.64 220.441 150.97 223.441 165 232.561C168.59 235.481 171.42 238.981 173.5 243.061C174.33 251.961 174.67 260.961 174.5 270.061C173.47 274.281 171.31 277.781 168 280.561C164.33 283.561 160.67 286.561 157 289.561C144.83 295.691 132.83 295.521 121 289.061Z" fill="#040404"/>
<path fill-rule="evenodd" clip-rule="evenodd" d="M151 241.062C166.02 240.412 169.85 246.752 162.5 260.062C147.76 271.122 141.09 267.462 142.5 249.062C145.83 246.892 148.67 244.232 151 241.062Z" fill="#F7F7F7"/>
<path fill-rule="evenodd" clip-rule="evenodd" d="M257 313.061C254.54 315.021 252.2 317.191 250 319.561C245.71 321.541 241.38 323.041 237 324.061C235.24 324.441 233.58 325.101 232 326.061C221.93 322.281 213.09 316.611 205.5 309.061C198.69 288.791 203.52 271.631 220 257.561C231.39 251.081 242.39 251.751 253 259.561C259.73 264.621 266.73 269.291 274 273.561C279.79 281.021 285.96 288.191 292.5 295.061C293.49 301.061 290.99 303.231 285 301.561C279.54 298.261 274.87 294.101 271 289.061C269.85 292.311 269.02 295.641 268.5 299.061C265.21 304.181 261.38 308.851 257 313.061Z" fill="#040404"/>
<path fill-rule="evenodd" clip-rule="evenodd" d="M109 254.062C106.28 268.252 110.28 279.912 121 289.062C114.74 293.182 108.74 292.682 103 287.562C99.0799 284.312 95.9099 280.482 93.4999 276.062C91.5099 264.552 96.3399 259.882 108 262.062C107.69 259.172 108.03 256.512 109 254.062Z" fill="#F7D0CD"/>
<path fill-rule="evenodd" clip-rule="evenodd" d="M229 262.062C238.16 261.052 241.99 265.052 240.5 274.062C237.67 276.892 235.67 280.222 234.5 284.062C229.31 288.032 224.31 287.692 219.5 283.062C218.82 279.392 217.65 275.892 216 272.562C216.3 269.642 217.63 267.302 220 265.562C222.85 263.772 225.85 262.602 229 262.062Z" fill="#F6F6F6"/>
<path fill-rule="evenodd" clip-rule="evenodd" d="M79.9997 298.062C82.0097 299.892 84.1697 301.562 86.4997 303.062C86.6497 308.552 87.4797 313.882 88.9997 319.062C89.8497 323.382 90.3497 327.722 90.4997 332.062C89.3697 334.632 87.3697 335.962 84.4997 336.062C76.3297 333.192 67.9897 331.192 59.4997 330.062C58.1197 326.082 59.2897 323.252 62.9997 321.562C67.8597 320.032 72.8597 319.202 77.9997 319.062C77.8397 311.962 78.5097 304.962 79.9997 298.062Z" fill="#080706"/>
<path fill-rule="evenodd" clip-rule="evenodd" d="M166 313.062C168.81 313.392 171.48 314.222 174 315.562C176.88 318.782 180.05 321.612 183.5 324.062C186.93 322.302 190.1 320.132 193 317.562C198.99 315.892 201.49 318.062 200.5 324.062C195.01 330.392 188.18 333.892 180 334.562C174.83 330.062 169.67 325.562 164.5 321.062C163.61 318.062 164.11 315.402 166 313.062Z" fill="#0A0A0A"/>
<path fill-rule="evenodd" clip-rule="evenodd" d="M257 313.061C263.54 312.401 269.04 314.401 273.5 319.061C276.23 325.121 274.73 329.951 269 333.561C260.14 337.841 251.31 338.001 242.5 334.061C240.49 331.021 239.66 327.691 240 324.061C239 324.061 238 324.061 237 324.061C241.38 323.041 245.71 321.541 250 319.561C252.2 317.191 254.54 315.021 257 313.061Z" fill="#FAD2CF"/>
<path fill-rule="evenodd" clip-rule="evenodd" d="M358.999 367.061C358.999 373.731 358.999 380.391 358.999 387.061C368.289 389.441 369.949 394.281 363.999 401.561C361.119 402.241 358.289 402.081 355.499 401.061C351.719 403.201 347.889 405.201 343.999 407.061C339.319 406.231 337.149 403.561 337.499 399.061C340.609 393.951 344.439 389.451 348.999 385.561C348.269 383.791 347.929 381.961 347.999 380.061C348.109 362.381 346.439 344.881 342.999 327.561C342.819 323.811 343.659 320.311 345.499 317.061C348.549 314.191 351.219 314.521 353.499 318.061C355.989 334.331 357.819 350.661 358.999 367.061Z" fill="#090807"/>
<path fill-rule="evenodd" clip-rule="evenodd" d="M127.999 345.062C129.959 348.022 132.289 350.692 134.999 353.062C127.929 357.292 121.269 362.122 114.999 367.562C108.329 370.232 101.669 372.892 94.9994 375.562C85.3594 376.902 77.5294 373.742 71.4994 366.062C69.4094 361.682 69.5794 357.522 71.9994 353.562C73.9994 352.892 75.9994 352.892 77.9994 353.562C81.6994 355.752 85.0294 358.412 87.9994 361.562C91.7394 362.172 95.3994 361.842 98.9994 360.562C107.539 353.292 117.209 348.122 127.999 345.062Z" fill="#060505"/>
<path fill-rule="evenodd" clip-rule="evenodd" d="M204.999 377.062C206.549 378.002 208.219 378.672 209.999 379.062C212.809 379.882 215.809 380.382 218.999 380.562C214.949 384.282 210.619 387.612 205.999 390.562C197.229 399.452 188.229 408.112 178.999 416.562C170.009 417.652 162.839 414.482 157.499 407.062C155.169 402.202 155.669 397.702 158.999 393.562C160.999 392.892 162.999 392.892 164.999 393.562C168.519 396.582 172.189 399.422 175.999 402.062C185.429 393.502 195.099 385.172 204.999 377.062Z" fill="#060504"/>
</svg>
