<svg width="500" height="500" viewBox="0 0 500 500" fill="none" xmlns="http://www.w3.org/2000/svg">
<path d="M111.351 67.5635C125.371 67.4235 132.211 74.4236 131.851 88.5635C144.271 97.0234 157.101 104.854 170.351 112.063C178.751 117.123 186.581 122.964 193.851 129.563C195.291 132.213 196.121 135.054 196.351 138.063C194.331 143.783 194.001 149.614 195.351 155.563C207.691 151.634 220.361 149.634 233.351 149.563C255.331 150.873 277.331 151.703 299.351 152.063C302.281 153.013 305.281 153.513 308.351 153.563C308.181 148.224 308.351 142.883 308.851 137.563C311.611 132.084 316.111 128.924 322.351 128.063C337.501 115.984 353.831 105.643 371.351 97.0635C369.371 87.0237 373.041 79.6834 382.351 75.0635C393.241 73.5935 400.411 78.0937 403.851 88.5635C406.201 97.6735 403.701 105.003 396.351 110.563C396.021 111.733 395.681 112.894 395.351 114.063C393.151 131.553 391.321 149.054 389.851 166.563C388.071 170.673 385.241 173.843 381.351 176.063C371.901 180.283 362.901 185.284 354.351 191.063C359.541 195.583 364.041 200.754 367.851 206.563C372.841 217.873 378.841 228.544 385.851 238.563C390.901 256.543 393.901 274.884 394.851 293.563C401.661 300.523 407.991 307.854 413.851 315.563C416.111 323.913 413.611 330.753 406.351 336.063C401.051 339.553 395.381 342.393 389.351 344.563C391.711 347.083 393.871 349.754 395.851 352.563C397.861 359.553 395.361 362.383 388.351 361.063C384.901 358.584 381.731 355.753 378.851 352.563C377.971 349.804 376.971 347.143 375.851 344.563C366.561 354.193 356.391 362.693 345.351 370.063C335.601 375.463 325.601 380.464 315.351 385.063C309.391 386.553 303.391 387.723 297.351 388.563C297.941 398.213 298.611 407.884 299.351 417.563C304.351 416.164 309.021 416.994 313.351 420.063C316.251 423.293 315.581 425.623 311.351 427.063C303.701 428.943 296.031 428.943 288.351 427.063L285.851 424.563C286.661 412.904 286.491 401.233 285.351 389.563C266.301 389.993 247.301 389.323 228.351 387.563C228.521 399.903 228.351 412.234 227.851 424.563C226.241 427.303 224.071 429.463 221.351 431.063C215.681 431.733 210.021 431.733 204.351 431.063C197.531 428.174 196.871 424.513 202.351 420.063C207.001 419.563 211.671 419.393 216.351 419.563C216.541 408.204 216.211 396.873 215.351 385.563C180.571 382.513 151.911 367.843 129.351 341.563C125.751 346.663 121.081 350.493 115.351 353.063C105.771 355.153 102.601 351.653 105.851 342.563C109.021 340.064 112.181 337.563 115.351 335.063C102.631 334.783 92.4606 329.623 84.8506 319.563C84.0108 315.944 84.6807 312.613 86.8506 309.563C95.4606 302.783 103.631 295.453 111.351 287.563C111.681 272.404 114.521 257.733 119.851 243.563C126.351 226.884 134.191 210.883 143.351 195.563C137.211 194.573 131.211 193.073 125.351 191.063C122.451 188.824 120.281 185.993 118.851 182.563C118.551 169.544 117.891 156.543 116.851 143.563C114.261 128.944 112.091 114.273 110.351 99.5635C96.7209 96.8134 92.5607 89.1434 97.8506 76.5635C102.591 73.8335 107.091 70.8334 111.351 67.5635ZM393.351 306.563C391.861 317.213 388.521 327.213 383.351 336.563L384.351 337.563C389.461 334.964 394.461 332.133 399.351 329.063C401.851 327.723 403.851 325.893 405.351 323.563C402.571 316.994 398.571 311.323 393.351 306.563ZM110.351 300.563C105.191 304.563 100.851 309.404 97.3506 315.063C99.1206 317.453 101.461 319.123 104.351 320.063C109.341 321.893 114.341 323.724 119.351 325.563C119.681 325.394 120.021 325.233 120.351 325.063C116.571 317.994 114.071 310.493 112.851 302.563C112.431 301.304 111.601 300.643 110.351 300.563Z" fill="#020101"/>
<path fill-rule="evenodd" clip-rule="evenodd" d="M243.349 181.563C260.879 178.963 270.049 186.293 270.849 203.563C268.989 206.333 266.659 208.673 263.849 210.563C263.749 213.963 262.919 217.133 261.349 220.063C261.019 220.233 260.679 220.393 260.349 220.563C259.299 216.953 258.469 213.283 257.849 209.563C256.849 208.233 255.849 208.233 254.849 209.563C254.349 213.883 254.179 218.213 254.349 222.563C252.679 222.563 251.019 222.563 249.349 222.563C249.639 218.623 249.309 214.793 248.349 211.063C247.399 210.443 246.569 210.613 245.849 211.563C245.669 214.943 245.169 218.283 244.349 221.563C240.449 220.333 238.449 217.663 238.349 213.563C233.289 212.003 230.119 208.663 228.849 203.563C226.969 191.633 231.799 184.293 243.349 181.563Z" fill="#F69BE2"/>
<path fill-rule="evenodd" clip-rule="evenodd" d="M236.35 189.563C242.34 189.723 243.67 192.223 240.35 197.063C235.48 196.773 234.15 194.273 236.35 189.563Z" fill="#160F14"/>
<path fill-rule="evenodd" clip-rule="evenodd" d="M258.35 191.564C264.4 191.004 265.74 193.174 262.35 198.064C257.42 198.494 256.09 196.324 258.35 191.564Z" fill="#0F090E"/>
<path fill-rule="evenodd" clip-rule="evenodd" d="M205.35 228.563C212.58 229.173 218.92 232.013 224.35 237.063C232.75 241.593 241.41 245.593 250.35 249.063C253.02 249.733 255.68 249.733 258.35 249.063C269.03 243.733 279.03 237.393 288.35 230.063C293.66 228.123 298.99 228.123 304.35 230.063C323.09 236.813 337.59 248.643 347.85 265.563C354.94 277.963 357.27 291.303 354.85 305.563C351.36 334.683 335.52 353.523 307.35 362.063C268.43 372.593 229.76 371.923 191.35 360.063C178.88 355.913 169.05 348.413 161.85 337.563C159.46 331.113 156.79 324.783 153.85 318.563C150.8 308.693 150.13 298.693 151.85 288.563C157.11 278.383 162.11 268.053 166.85 257.563C171.3 249.443 177.47 242.943 185.35 238.063C192.23 235.123 198.9 231.953 205.35 228.563Z" fill="#FBFBFB"/>
<path fill-rule="evenodd" clip-rule="evenodd" d="M284.35 262.563C289.69 262.393 295.03 262.563 300.35 263.063C308.55 265.683 316.88 267.683 325.35 269.063C333.02 273.393 340.68 277.733 348.35 282.063C351.64 286.433 350.64 289.273 345.35 290.563C339.18 289.583 333.51 287.243 328.35 283.563C328.02 283.893 327.68 284.233 327.35 284.563C328.14 287.193 328.81 289.853 329.35 292.563C326.89 302.483 323.06 311.813 317.85 320.563C313.93 323.273 310.09 326.103 306.35 329.063C297.11 329.463 288.11 328.133 279.35 325.063C273.02 322.263 269.19 317.433 267.85 310.563C264.22 296.243 266.22 282.913 273.85 270.563C277.82 268.413 281.32 265.753 284.35 262.563Z" fill="#040404"/>
<path fill-rule="evenodd" clip-rule="evenodd" d="M192.35 267.563C202.74 266.673 212.74 268.173 222.35 272.063C226.47 274.803 228.64 278.633 228.85 283.563C234.58 289.823 236.91 297.153 235.85 305.563C232.84 313.083 228.67 319.913 223.35 326.063C212.32 334.733 200.32 336.403 187.35 331.063C185.15 328.523 182.65 326.353 179.85 324.563C176.59 318.853 173.92 312.853 171.85 306.563C171.37 301.773 171.7 297.113 172.85 292.563C168.98 296.763 164.82 300.593 160.35 304.063C157.95 304.773 155.62 304.603 153.35 303.563C152.2 300.613 152.03 297.613 152.85 294.563C155.32 290.463 158.15 286.633 161.35 283.063C170.76 275.883 181.09 270.713 192.35 267.563Z" fill="#050505"/>
<path fill-rule="evenodd" clip-rule="evenodd" d="M284.35 271.563C291.14 270.603 294.81 273.433 295.35 280.063C294.89 284.233 294.39 288.403 293.85 292.563C289.65 296.773 284.82 297.613 279.35 295.063C278.5 292.703 277 290.863 274.85 289.563C272.81 285.733 273.15 282.063 275.85 278.563C279.09 276.663 281.92 274.333 284.35 271.563Z" fill="#F5F5F5"/>
<path fill-rule="evenodd" clip-rule="evenodd" d="M209.35 278.563C221.38 278.923 225.22 284.923 220.85 296.563C217.96 302.093 213.46 304.593 207.35 304.063C198.97 294.913 199.64 286.413 209.35 278.563Z" fill="#F8F8F8"/>
<path fill-rule="evenodd" clip-rule="evenodd" d="M269.35 333.563C273.22 332.833 275.88 334.173 277.35 337.563C274.98 342.773 271.98 347.603 268.35 352.063C266.34 353.323 264.17 354.153 261.85 354.563C255.46 352.713 249.29 350.383 243.35 347.563C241.49 340.593 244.16 338.093 251.35 340.063C254.56 341.833 257.9 343.333 261.35 344.563C264.26 341.083 266.93 337.413 269.35 333.563Z" fill="#0C0C0C"/>
</svg>
