<svg width="500" height="500" viewBox="0 0 500 500" fill="none" xmlns="http://www.w3.org/2000/svg">
<path d="M196.5 41.0615C208.74 37.3615 219.24 40.1915 228 49.5615C235.37 50.8215 242.37 53.1515 249 56.5615C268.14 71.8515 282.47 90.6816 292 113.062C298.77 115.002 302.44 119.502 303 126.562C310.41 132.372 314.07 140.042 314 149.562C313.36 155.831 311.69 161.832 309 167.562C311.42 171.321 312.58 175.482 312.5 180.062C317.5 183.732 321.83 188.062 325.5 193.062C331.18 202.431 336.85 211.762 342.5 221.062C343.29 224.191 342.96 227.192 341.5 230.062C337.97 233.931 334.13 237.432 330 240.562C325.26 242.682 320.76 245.182 316.5 248.062C317.14 260.091 311.64 267.592 300 270.562C294.52 278.541 287.85 285.372 280 291.062C278.84 298.711 278.67 306.372 279.5 314.062C290.58 318.132 298.91 325.462 304.5 336.062C311.6 348.461 314.6 361.792 313.5 376.062C317.87 374.882 322.03 373.222 326 371.062C327.33 371.732 328.33 372.732 329 374.062C323.57 377.542 317.57 379.882 311 381.062C305.56 404.181 291.56 419.852 269 428.062C267.42 436.651 266.75 445.322 267 454.062C269.69 453.902 272.35 454.062 275 454.562C276.33 455.892 276.33 457.232 275 458.562C270.48 460.971 266.48 460.471 263 457.062V429.062C260.76 428.772 258.76 429.102 257 430.062C252.16 430.272 247.33 430.602 242.5 431.062C234.32 430.112 226.15 429.112 218 428.062C218.33 437.751 218 447.422 217 457.062C213.13 460.201 208.8 460.861 204 459.062C203.11 458.242 202.78 457.241 203 456.062C206.05 455.652 209.05 454.982 212 454.062C213.33 444.732 213.33 435.391 212 426.062C188.1 418.502 172.1 402.831 164 379.062C158.92 384.642 154.42 390.642 150.5 397.062C150.06 399.871 150.56 402.532 152 405.062C151.67 405.731 151.33 406.392 151 407.062C147.35 405.912 143.69 405.912 140 407.062C140.44 403.942 142.11 401.602 145 400.062C148.97 390.122 154.47 381.122 161.5 373.062C160.43 363.302 161.09 353.631 163.5 344.062C166.17 339.392 168.83 334.731 171.5 330.062L183.5 318.062C184.93 316.342 185.77 314.341 186 312.062C185.66 291.382 185.16 270.711 184.5 250.062C183.15 241.682 181.65 233.351 180 225.062C173.07 225.512 168.24 222.511 165.5 216.062C164.68 212.602 165.02 209.261 166.5 206.062C169.18 203.212 172.02 200.542 175 198.062C173.46 192.772 172.12 187.431 171 182.062C169.63 182.222 168.29 182.052 167 181.562C161.81 177.872 157.48 173.371 154 168.062C153.67 168.561 153.33 169.062 153 169.562C154.59 176.431 156.26 183.262 158 190.062C156.68 190.232 155.51 189.901 154.5 189.062C152.51 181.432 150.68 173.761 149 166.062C149.6 163.312 151.26 162.482 154 163.562C158.15 168.681 162.65 173.512 167.5 178.062C166.12 173.272 164.12 168.611 161.5 164.062C157.69 151.172 154.36 138.171 151.5 125.062C150.83 116.392 150.83 107.731 151.5 99.0615C152.66 92.9016 155 87.2415 158.5 82.0615C158.55 75.1216 159.89 68.4515 162.5 62.0615L175 49.5615C182.23 46.8015 189.39 43.9715 196.5 41.0615ZM185 49.5615C184.41 49.1017 183.74 48.9315 183 49.0615C179.76 50.3515 176.76 52.1916 174 54.5615C166.38 59.9814 162.71 67.1517 163 76.0615C167.04 71.0216 171.71 66.6915 177 63.0615C178.24 57.6717 180.91 53.1715 185 49.5615ZM199 51.0615C196.47 48.6916 193.47 47.6916 190 48.0615C187.67 50.5615 185.5 53.2315 183.5 56.0615C182.26 57.4415 182.09 58.7715 183 60.0615C188.04 56.5416 193.37 53.5415 199 51.0615ZM204 42.0615C201.6 42.6915 199.26 43.6915 197 45.0615C199.56 46.8315 201.89 48.8315 204 51.0615C210.25 49.7215 216.58 48.8915 223 48.5615C217.26 44.7115 210.93 42.5415 204 42.0615Z" fill="#161614"/>
<path fill-rule="evenodd" clip-rule="evenodd" d="M214 52.0616C226.48 51.7916 238.15 54.6216 249 60.5616C256.53 68.0916 264.03 75.5916 271.5 83.0616C278.03 92.1116 283.53 101.782 288 112.062C286.65 113.082 285.98 114.422 286 116.062C292.44 115.442 296.77 118.112 299 124.062C298.67 124.392 298.33 124.732 298 125.062C280.4 116.652 265.9 120.312 254.5 136.062C254.02 137.012 253.85 138.012 254 139.062C233.12 128.402 215.96 132.742 202.5 152.062C196.6 168.352 200.1 182.182 213 193.562C226.05 199.892 238.71 199.222 251 191.562C256.65 187.752 260.99 182.922 264 177.062C274.81 172.412 285.98 168.742 297.5 166.062C305.56 166.782 309.23 171.122 308.5 179.062C304.88 182.682 300.71 185.512 296 187.562C278.77 193.532 261.44 199.202 244 204.562C220.53 217.002 209.69 236.502 211.5 263.062C224.07 292.432 245.57 302.432 276 293.062C275.72 300.272 276.05 307.442 277 314.562C280.56 317.472 284.56 319.812 289 321.562C313.63 346.722 316.63 374.222 298 404.062C291.73 410.842 284.73 416.672 277 421.562C266.01 425.352 254.68 427.522 243 428.062C230.78 427.082 218.78 424.912 207 421.562C191.3 414.192 179.13 403.022 170.5 388.062C164.19 372.572 163.53 356.912 168.5 341.062C174.44 332.452 181.11 324.452 188.5 317.062C188.67 316.062 188.83 315.062 189 314.062C188.21 296.402 188.04 278.742 188.5 261.062C187.83 248.872 186 236.872 183 225.062C184.67 225.062 186.33 225.062 188 225.062C188 224.062 188 223.062 188 222.062C183.32 222.232 178.65 222.062 174 221.562C166.22 215.232 166.22 208.902 174 202.562C178.97 201.222 183.97 200.722 189 201.062C188.52 200.082 187.86 199.252 187 198.562C183.49 198.582 180.32 197.752 177.5 196.062C176.1 189.532 174.1 183.192 171.5 177.062C170.62 172.232 171.12 167.562 173 163.062C176.42 168.232 179.59 173.562 182.5 179.062C183.52 180.252 184.69 181.252 186 182.062C186.33 181.392 186.67 180.732 187 180.062C182.68 172.762 178.35 165.432 174 158.062C172.85 156.832 171.68 156.832 170.5 158.062C169.62 161.442 168.62 164.782 167.5 168.062C162.72 155.702 158.72 143.042 155.5 130.062C152.93 116.522 153.6 103.192 157.5 90.0616C158.47 88.2616 159.64 86.5916 161 85.0616C162.33 86.7316 163.67 88.3916 165 90.0616C165.33 89.3916 165.67 88.7316 166 88.0616C164.21 85.3116 163.71 82.3116 164.5 79.0616C168.54 74.8516 172.71 70.8516 177 67.0616C177.49 71.7016 179.32 75.7016 182.5 79.0616C183.19 78.5316 183.69 77.8716 184 77.0616C181.28 73.0016 180.61 68.6616 182 64.0616C191.93 57.0516 202.6 53.0516 214 52.0616Z" fill="#FBE83A"/>
<path fill-rule="evenodd" clip-rule="evenodd" d="M275 124.062C289.07 122.242 300.24 126.912 308.5 138.062C312.56 147.602 311.39 156.262 305 164.062C299.63 162.702 294.29 162.862 289 164.562C280.91 167.142 273.08 170.312 265.5 174.062C266.34 169.402 266 164.732 264.5 160.062C261.83 155.392 259.17 150.732 256.5 146.062C255.66 142.442 256.33 139.112 258.5 136.062C262.83 130.192 268.33 126.192 275 124.062Z" fill="#FAFAFA"/>
<path fill-rule="evenodd" clip-rule="evenodd" d="M226 137.062C233.19 136.502 240.19 137.342 247 139.562C253.83 147.042 259 155.542 262.5 165.062C262.88 169.852 262.21 174.512 260.5 179.062C252.3 188.662 241.96 193.992 229.5 195.062C217.2 194.112 208.86 187.772 204.5 176.062C200.24 161.382 204.4 149.882 217 141.562C220.09 140.012 223.09 138.512 226 137.062Z" fill="#FAFAFA"/>
<path fill-rule="evenodd" clip-rule="evenodd" d="M284 147.062C290.05 146.502 291.39 148.672 288 153.562C281.84 154.442 280.51 152.272 284 147.062Z" fill="#0E0E0E"/>
<path fill-rule="evenodd" clip-rule="evenodd" d="M221 164.062C224.92 165.452 225.92 168.122 224 172.062C220.69 173.822 218.36 172.992 217 169.562C218.15 167.582 219.48 165.752 221 164.062Z" fill="#252525"/>
<path fill-rule="evenodd" clip-rule="evenodd" d="M309 182.062C311.1 182.972 313.1 184.142 315 185.562C322.71 194.942 329.21 205.112 334.5 216.062C341.12 221.502 341.28 227.002 335 232.562C322.25 241.102 308.58 247.772 294 252.562C287.16 252.602 280.49 253.602 274 255.562C266.33 256.232 258.67 256.232 251 255.562C248.29 253.812 245.29 252.812 242 252.562C240.9 250.882 241.23 249.382 243 248.062C242.5 247.732 242 247.392 241.5 247.062C237.94 248.952 235.44 251.792 234 255.562C234.13 256.622 234.63 257.452 235.5 258.062C236.28 256.832 237.28 255.832 238.5 255.062C242 256.232 245.5 257.392 249 258.562C271.06 260.342 292.4 257.502 313 250.062C312.58 259.662 307.58 265.492 298 267.562C281.24 295.312 258.91 300.982 231 284.562C223.41 278.532 217.91 271.032 214.5 262.062C212.2 252.242 213.53 242.912 218.5 234.062C222.54 226.022 228.04 219.192 235 213.562C239.17 210.972 243.51 208.642 248 206.562C263.07 202.092 278.07 197.422 293 192.562C299.26 190.282 304.59 186.782 309 182.062Z" fill="#C5A069"/>
<path fill-rule="evenodd" clip-rule="evenodd" d="M178 205.062C182.63 204.262 186.46 205.592 189.5 209.062C189.98 210.012 190.15 211.012 190 212.062C187.6 212.172 185.76 211.172 184.5 209.062C181.86 211.062 180.36 213.732 180 217.062C177.37 214.642 177.37 212.142 180 209.562C178.45 209.232 177.12 209.732 176 211.062C175.19 210.752 174.53 210.252 174 209.562C175.54 208.192 176.87 206.692 178 205.062Z" fill="#201D0B"/>
<path fill-rule="evenodd" clip-rule="evenodd" d="M291 359.062C284.6 354.982 277.6 352.142 270 350.562C260.4 346.632 253.24 349.132 248.5 358.062C247.04 363.662 246.71 369.322 247.5 375.062C248.79 382.022 252.96 385.852 260 386.562C266.71 388.292 272.21 386.462 276.5 381.062C280.19 375.542 282.69 369.542 284 363.062C286.86 364.522 289.86 365.522 293 366.062C293.33 371.162 292.83 376.162 291.5 381.062C286.81 389.422 280.98 396.922 274 403.562C263.86 408.152 253.19 410.322 242 410.062C230.45 410.022 219.12 408.522 208 405.562C200.17 401.732 194.33 395.892 190.5 388.062C188.34 382.092 186.51 376.092 185 370.062C187.56 368.192 190.06 366.192 192.5 364.062C191.36 373.192 194.52 380.692 202 386.562C214.56 389.712 223.4 385.212 228.5 373.062C229.17 370.062 229.17 367.062 228.5 364.062C226.38 361.422 225.04 358.422 224.5 355.062C222.92 353.522 221.09 352.352 219 351.562C208.3 348.572 198.3 350.072 189 356.062C189.47 352.502 190.63 349.172 192.5 346.062C217.6 323.982 244.77 321.142 274 337.562C281.71 343.162 287.38 350.332 291 359.062Z" fill="#FBFBF9"/>
<path fill-rule="evenodd" clip-rule="evenodd" d="M291 359.062C292.82 360.052 294.16 361.552 295 363.562C294.86 364.862 294.19 365.692 293 366.062C289.86 365.522 286.86 364.522 284 363.062C282.69 369.542 280.19 375.542 276.5 381.062C272.21 386.462 266.71 388.292 260 386.562C252.96 385.852 248.79 382.022 247.5 375.062C246.71 369.322 247.04 363.662 248.5 358.062C253.24 349.132 260.4 346.632 270 350.562C277.6 352.142 284.6 354.982 291 359.062Z" fill="#080808"/>
<path fill-rule="evenodd" clip-rule="evenodd" d="M185 370.062C181.27 369.782 180.11 367.782 181.5 364.062C183.5 360.892 186 358.232 189 356.062C198.3 350.072 208.3 348.572 219 351.562C221.09 352.352 222.92 353.522 224.5 355.062C225.04 358.422 226.38 361.422 228.5 364.062C229.17 367.062 229.17 370.062 228.5 373.062C223.4 385.212 214.56 389.712 202 386.562C194.52 380.692 191.36 373.192 192.5 364.062C190.06 366.192 187.56 368.192 185 370.062Z" fill="#0A0908"/>
<path fill-rule="evenodd" clip-rule="evenodd" d="M257 354.061C263.05 353.611 265.22 356.281 263.5 362.061C263.05 367.501 260.22 369.331 255 367.561C253.6 365.551 252.26 363.551 251 361.561C251.17 360.731 251.33 359.891 251.5 359.061C253.31 357.261 255.15 355.591 257 354.061Z" fill="#EDEDED"/>
<path fill-rule="evenodd" clip-rule="evenodd" d="M214 356.062C222.31 356.882 224.14 360.882 219.5 368.062C214.34 372.562 210.84 371.392 209 364.562C210.02 361.352 211.69 358.522 214 356.062Z" fill="#EDEDED"/>
<path fill-rule="evenodd" clip-rule="evenodd" d="M329 374.062C328.33 372.732 327.33 371.732 326 371.062C320.71 354.672 326.71 345.672 344 344.062C357.62 347.772 362.12 356.442 357.5 370.062C353.95 376.142 348.62 378.812 341.5 378.062C336.7 378.572 332.53 377.232 329 374.062Z" fill="#F7E08F"/>
<path fill-rule="evenodd" clip-rule="evenodd" d="M338 347.061C339.37 346.901 340.71 347.071 342 347.561C339.86 348.301 339.69 349.141 341.5 350.061C346.4 345.901 350.73 346.571 354.5 352.061C357.11 359.931 355.94 367.091 351 373.561C349.28 373.911 347.62 374.411 346 375.061C345.83 374.161 345.5 373.161 345 372.061C343.65 373.081 342.65 374.411 342 376.061C337.67 375.391 333.67 373.891 330 371.561C330.46 371.151 330.79 370.651 331 370.061C329.83 368.391 328.5 366.891 327 365.561C326.54 364.261 326.21 362.931 326 361.561C327.21 358.511 328.04 355.341 328.5 352.061C329.94 351.301 331.44 350.631 333 350.061C333.67 351.391 334.33 352.731 335 354.061C336.26 352.211 336.26 350.371 335 348.561C336.24 348.331 337.24 347.831 338 347.061Z" fill="#F787BD"/>
<path fill-rule="evenodd" clip-rule="evenodd" d="M342 363.062C340.86 361.352 339.2 360.682 337 361.062C337.06 358.842 338.23 357.842 340.5 358.062C342.21 358.002 343.54 358.672 344.5 360.062C344.75 358.942 345.25 357.942 346 357.062C347.55 360.862 346.21 362.862 342 363.062Z" fill="#AFCBF2"/>
<path fill-rule="evenodd" clip-rule="evenodd" d="M337 361.061C339.2 360.681 340.86 361.351 342 363.061C343.57 366.991 342.23 368.831 338 368.561C335.79 366.321 335.45 363.821 337 361.061Z" fill="#191517"/>
<path fill-rule="evenodd" clip-rule="evenodd" d="M331 357.062C332.59 357.192 333.92 357.852 335 359.062C332.67 360.502 331.33 359.832 331 357.062Z" fill="#FFE74E"/>
<path fill-rule="evenodd" clip-rule="evenodd" d="M346 350.062C348.39 351.432 348.05 352.762 345 354.062C344.67 353.732 344.33 353.392 344 353.062C344.69 352.042 345.36 351.042 346 350.062Z" fill="#FCE04D"/>
<path fill-rule="evenodd" clip-rule="evenodd" d="M247 389.061C249.45 388.571 251.12 389.401 252 391.561C250.2 395.661 247.37 398.821 243.5 401.061C239.83 399.971 236.33 398.471 233 396.561C232.12 395.201 231.79 393.701 232 392.061C235.92 391.631 239.42 392.631 242.5 395.061C244.25 393.211 245.75 391.211 247 389.061Z" fill="#141414"/>
</svg>
