<svg width="500" height="500" viewBox="0 0 500 500" fill="none" xmlns="http://www.w3.org/2000/svg">
<path fill-rule="evenodd" clip-rule="evenodd" d="M398 128.062C387.03 124.062 376.03 124.062 365 128.062C363.04 124.302 360.71 120.802 358 117.562C351.49 115.032 344.82 114.032 338 114.562C335.05 108.492 331.71 102.652 328 97.0615C330.81 93.0915 334.48 89.9315 339 87.5615C347.11 82.6715 355.78 79.1715 365 77.0615C372.94 78.8615 379.94 82.5315 386 88.0615C395.08 99.9715 399.08 113.312 398 128.062Z" fill="#FEFDFD"/>
<path fill-rule="evenodd" clip-rule="evenodd" d="M285 99.0614C281.75 106.291 278.58 113.631 275.5 121.061C273.64 127.771 272.47 134.601 272 141.561C272.87 153.101 279.04 159.261 290.5 160.061C299.82 159.001 308.82 156.661 317.5 153.061C320.15 159.201 324.32 164.031 330 167.561C336.03 167.731 342.03 168.231 348 169.061C353.81 179.371 361.81 187.541 372 193.561C376.67 194.231 381.33 194.231 386 193.561C390.42 191.631 394.42 189.131 398 186.061C399.55 189.331 401.38 192.661 403.5 196.061C405.24 202.271 406.4 208.611 407 215.061C399.77 216.451 392.77 218.621 386 221.561C383.38 223.421 382.55 225.921 383.5 229.061C384.39 229.641 385.39 229.971 386.5 230.061C390.52 229.041 394.35 227.541 398 225.561C400.93 224.611 403.93 224.111 407 224.061C407.99 230.201 408.32 236.541 408 243.061C400.99 242.891 393.99 243.061 387 243.561C383.43 245.741 383.1 248.401 386 251.561C392.81 250.931 399.48 251.091 406 252.061C406.32 258.251 405.99 264.251 405 270.061C397.88 268.831 390.71 267.831 383.5 267.061C379.17 268.001 378 270.501 380 274.561C387.62 275.981 395.29 277.151 403 278.061C398.21 291.271 392.38 303.941 385.5 316.061C373.67 325.891 361.83 335.731 350 345.561C342.39 349.281 334.89 353.111 327.5 357.061C327 370.391 326.83 383.721 327 397.061C333.03 396.531 338.7 397.691 344 400.561C349.03 404.461 350.2 409.291 347.5 415.061C345.86 417.371 343.7 418.871 341 419.561C331.08 421.551 321.08 422.221 311 421.561C307.94 420.501 305.44 418.671 303.5 416.061C302.22 412.091 300.89 408.091 299.5 404.061C298.87 390.941 297.37 377.941 295 365.061C277.42 367.031 259.75 367.531 242 366.561C235.54 364.361 228.87 363.531 222 364.061C222.17 375.401 222 386.731 221.5 398.061C221.45 405.001 220.11 411.671 217.5 418.061C215.86 420.371 213.7 421.871 211 422.561C200.62 423.431 190.28 423.101 180 421.561C168.83 419.231 166.17 413.231 172 403.561C175.26 402.811 177.92 401.141 180 398.561C185.59 397.271 191.26 396.771 197 397.061C196.66 384.351 195.66 371.681 194 359.061C171.36 350.661 151.19 338.331 133.5 322.061C121.06 305.851 111.23 288.181 104 269.061C107.92 268.291 111.92 267.791 116 267.561C119.65 261.741 117.99 258.901 111 259.061C107.98 259.331 104.98 259.661 102 260.061C99.9102 254.001 98.5702 247.671 98.0002 241.061C103.01 241.231 108.01 241.061 113 240.561C115.67 238.231 115.67 235.891 113 233.561C107.69 232.731 102.36 232.231 97.0002 232.061C97.0002 225.391 97.0002 218.731 97.0002 212.061C105.36 213.011 113.03 215.851 120 220.561C125.17 222.061 127 220.231 125.5 215.061C118.66 209.391 110.83 205.721 102 204.061C100.93 203.131 99.6002 202.791 98.0002 203.061C97.8302 199.051 98.0002 195.051 98.5002 191.061C100.14 186.091 102.64 181.591 106 177.561C97.9702 158.201 94.8102 138.031 96.5002 117.061C98.8402 110.431 101.17 103.761 103.5 97.0614C111.02 86.4614 121.18 82.9614 134 86.5614C143.64 89.3314 153.3 92.0014 163 94.5614C168.29 97.4514 173.13 100.951 177.5 105.061C187.67 100.561 198.17 97.0614 209 94.5614C234.1 93.2714 259.1 94.2714 284 97.5614C284.56 97.9414 284.89 98.4414 285 99.0614Z" fill="#FEFEFE"/>
<path fill-rule="evenodd" clip-rule="evenodd" d="M328 97.0618C331.71 102.652 335.05 108.492 338 114.562C344.82 114.032 351.49 115.032 358 117.562C360.71 120.802 363.04 124.302 365 128.062C376.03 124.062 387.03 124.062 398 128.062C408.44 132.772 413.11 140.932 412 152.562C412.15 165.762 407.48 176.932 398 186.062C394.42 189.132 390.42 191.632 386 193.562C381.33 194.232 376.67 194.232 372 193.562C361.81 187.542 353.81 179.372 348 169.062C342.03 168.232 336.03 167.732 330 167.562C324.32 164.032 320.15 159.202 317.5 153.062C308.82 156.662 299.82 159.002 290.5 160.062C279.04 159.262 272.87 153.102 272 141.562C272.47 134.602 273.64 127.772 275.5 121.062C278.58 113.632 281.75 106.292 285 99.0618C288.1 95.4618 291.43 91.9618 295 88.5618C302.18 85.6218 309.52 85.2918 317 87.5618C320.83 90.5618 324.5 93.7318 328 97.0618Z" fill="#C93A3A"/>
<path fill-rule="evenodd" clip-rule="evenodd" d="M303 94.0613C306.77 93.8213 310.44 94.3213 314 95.5613C321.33 101.881 326.66 109.551 330 118.561C329.21 120.551 327.71 121.711 325.5 122.061C317.75 116.541 309.58 115.711 301 119.561C295.97 127.261 297.64 133.261 306 137.561C310.01 138.901 314.01 140.231 318 141.561C312.58 146.431 306.25 149.431 299 150.561C294.33 151.231 289.67 151.231 285 150.561C281.73 148.021 280.4 144.691 281 140.561C282.54 126.921 286.71 114.091 293.5 102.061C296.29 98.7513 299.46 96.0813 303 94.0613Z" fill="#FD4545"/>
<path fill-rule="evenodd" clip-rule="evenodd" d="M341 123.061C344.35 122.891 347.68 123.061 351 123.561C355.06 125.641 356.06 128.801 354 133.061C357.13 141.911 355.8 150.081 350 157.561C330.63 164.191 323.13 157.361 327.5 137.061C328.5 134.731 329.5 132.391 330.5 130.061C333.81 127.331 337.31 125.001 341 123.061Z" fill="#FD4545"/>
<path fill-rule="evenodd" clip-rule="evenodd" d="M376 133.062C404.05 133.802 411.55 146.802 398.5 172.062C394.07 179.522 387.74 184.182 379.5 186.062C374.68 185.732 370.51 183.902 367 180.562C362.23 175.792 358.23 170.462 355 164.562C355.53 163.872 356.19 163.372 357 163.062C364.55 168.722 371.71 168.382 378.5 162.062C382.13 156.822 381.63 151.982 377 147.562C373.55 145.502 369.88 144.002 366 143.062C364.73 140.872 364.73 138.702 366 136.562C369.53 135.612 372.86 134.452 376 133.062Z" fill="#FD4545"/>
<path fill-rule="evenodd" clip-rule="evenodd" d="M183 166.062C193.59 167.742 195.75 173.072 189.5 182.062C182.31 186.882 178.48 184.882 178 176.062C177.91 171.822 179.58 168.492 183 166.062Z" fill="#0B0B0B"/>
<path fill-rule="evenodd" clip-rule="evenodd" d="M312 168.062C322.53 167.762 326.7 172.762 324.5 183.062C321.55 186.842 317.71 188.002 313 186.562C307.48 183.642 305.64 179.142 307.5 173.062C308.52 170.872 310.02 169.212 312 168.062Z" fill="#070707"/>
<path fill-rule="evenodd" clip-rule="evenodd" d="M248 174.062C252.62 173.552 256.95 174.392 261 176.562C265.48 181.822 264.48 185.822 258 188.562C251.67 189.232 245.33 189.232 239 188.562C236.51 185.932 236.35 183.102 238.5 180.062C241.69 177.992 244.85 175.992 248 174.062Z" fill="#FFEB41"/>
<path fill-rule="evenodd" clip-rule="evenodd" d="M102 204.062C110.83 205.722 118.66 209.392 125.5 215.062C127 220.232 125.17 222.062 120 220.562C113.03 215.852 105.36 213.012 96.9999 212.062C85.3299 210.952 73.6699 210.782 61.9999 211.562C59.8299 209.702 59.4899 207.532 60.9999 205.062C67.5099 203.132 74.1799 202.132 80.9999 202.062C88.0299 202.482 95.0299 203.152 102 204.062Z" fill="#0C0B0A"/>
<path fill-rule="evenodd" clip-rule="evenodd" d="M340 252.062C336.64 249.712 332.97 247.882 329 246.562C320.96 244.442 312.96 242.102 305 239.562C298.46 237.442 292.13 237.772 286 240.562C283.08 242.612 280.24 244.772 277.5 247.062C267.32 262.502 266.32 278.502 274.5 295.062C278.11 299.282 282.61 302.112 288 303.562C294.64 305.062 301.31 306.062 308 306.562C311.66 303.402 315.66 300.732 320 298.562C325.3 290.702 329.46 282.202 332.5 273.062C332.71 269.282 332.88 265.612 333 262.062C338.38 266.922 344.72 269.252 352 269.062C351.29 269.962 350.29 270.302 349 270.062C350.71 284.432 347.21 297.432 338.5 309.062C319.48 332.912 294.64 344.582 264 344.062C250.33 343.652 236.66 343.152 223 342.562C204.11 339.672 188.61 330.832 176.5 316.062C164.99 304.022 158.82 289.692 158 273.062C160.03 273.222 162.03 273.062 164 272.562C167.81 269.582 171.48 266.412 175 263.062C175.06 268.632 175.22 274.302 175.5 280.062C180.58 300.492 193.42 308.652 214 304.562C230.58 297.422 238.74 284.922 238.5 267.062C237.28 262.942 235.28 259.282 232.5 256.062C232.17 253.732 231.83 251.392 231.5 249.062C225.26 242.192 217.42 238.692 208 238.562C194.88 237.542 182.88 240.712 172 248.062C183.33 229.222 200 218.722 222 216.562C234.33 216.072 246.67 215.572 259 215.062C289.02 215.122 314.86 225.452 336.5 246.062C337.92 247.962 339.09 249.962 340 252.062Z" fill="#FDD2BD"/>
<path fill-rule="evenodd" clip-rule="evenodd" d="M407.001 215.061C416.721 214.701 426.391 215.201 436.001 216.561C440.351 220.331 439.851 223.171 434.501 225.061C425.261 222.891 416.101 222.561 407.001 224.061C403.931 224.111 400.931 224.611 398.001 225.561C394.351 227.541 390.521 229.041 386.501 230.061C385.391 229.971 384.391 229.641 383.501 229.061C382.551 225.921 383.381 223.421 386.001 221.561C392.771 218.621 399.771 216.451 407.001 215.061Z" fill="#0A0908"/>
<path fill-rule="evenodd" clip-rule="evenodd" d="M97.0001 232.061C102.36 232.231 107.69 232.731 113 233.561C115.67 235.891 115.67 238.231 113 240.561C108.01 241.061 103.01 241.231 98.0001 241.061C90.9901 241.231 83.9901 241.061 77.0001 240.561C75.2801 237.471 75.9501 235.141 79.0001 233.561C84.9301 232.321 90.9301 231.821 97.0001 232.061Z" fill="#0F0E0D"/>
<path fill-rule="evenodd" clip-rule="evenodd" d="M158 273.062C157.35 272.762 156.68 272.422 156 272.062C154.85 269.112 154.68 266.112 155.5 263.062C159.22 258.802 163.05 254.632 167 250.562C168.69 249.712 170.36 248.882 172 248.062C182.88 240.712 194.88 237.542 208 238.562C217.42 238.692 225.26 242.192 231.5 249.062C231.83 251.392 232.17 253.732 232.5 256.062C235.28 259.282 237.28 262.942 238.5 267.062C238.74 284.922 230.58 297.422 214 304.562C193.42 308.652 180.58 300.492 175.5 280.062C175.22 274.302 175.06 268.632 175 263.062C171.48 266.412 167.81 269.582 164 272.562C162.03 273.062 160.03 273.222 158 273.062Z" fill="#040404"/>
<path fill-rule="evenodd" clip-rule="evenodd" d="M340 252.062C344.68 255.832 349.51 259.492 354.5 263.062C355.47 265.852 354.64 267.852 352 269.062C344.72 269.252 338.38 266.922 333 262.062C332.88 265.612 332.71 269.282 332.5 273.062C329.46 282.202 325.3 290.702 320 298.562C315.66 300.732 311.66 303.402 308 306.562C301.31 306.062 294.64 305.062 288 303.562C282.61 302.112 278.11 299.282 274.5 295.062C266.32 278.502 267.32 262.502 277.5 247.062C280.24 244.772 283.08 242.612 286 240.562C292.13 237.772 298.46 237.442 305 239.562C312.96 242.102 320.96 244.442 329 246.562C332.97 247.882 336.64 249.712 340 252.062Z" fill="#050404"/>
<path fill-rule="evenodd" clip-rule="evenodd" d="M407.999 243.061C412.079 243.911 416.079 245.081 419.999 246.561C421.889 250.291 420.889 252.791 416.999 254.061C413.369 253.131 409.699 252.471 405.999 252.061C399.479 251.091 392.809 250.931 385.999 251.561C383.099 248.401 383.429 245.741 386.999 243.561C393.989 243.061 400.989 242.891 407.999 243.061Z" fill="#0A0909"/>
<path fill-rule="evenodd" clip-rule="evenodd" d="M290 247.061C294.21 246.781 297.38 248.451 299.5 252.061C299.79 257.821 299.13 263.491 297.5 269.061C293.48 271.951 288.98 272.791 284 271.561C282.7 268.701 280.87 266.201 278.5 264.061C277.03 258.831 278.53 254.661 283 251.561C285.76 250.621 288.09 249.121 290 247.061Z" fill="#F7F7F7"/>
<path fill-rule="evenodd" clip-rule="evenodd" d="M214 250.062C224.35 250.372 228.18 255.702 225.5 266.062C222.87 273.352 217.71 276.522 210 275.562C201.21 265.462 202.54 256.962 214 250.062Z" fill="#F6F6F6"/>
<path fill-rule="evenodd" clip-rule="evenodd" d="M104 269.062C94.7498 270.642 85.7498 273.142 76.9998 276.562C71.8298 278.062 69.9998 276.232 71.4998 271.062C75.5998 268.132 80.0998 265.972 84.9998 264.562C90.9098 263.492 96.5798 261.992 102 260.062C104.98 259.662 107.98 259.332 111 259.062C117.99 258.902 119.65 261.742 116 267.562C111.92 267.792 107.92 268.292 104 269.062Z" fill="#0E0D0C"/>
<path fill-rule="evenodd" clip-rule="evenodd" d="M405.001 270.062C410.931 272.092 416.931 274.262 423.001 276.562C428.401 280.222 428.071 283.062 422.001 285.062C415.761 282.532 409.431 280.202 403.001 278.062C395.291 277.152 387.621 275.982 380.001 274.562C378.001 270.502 379.171 268.002 383.501 267.062C390.711 267.832 397.881 268.832 405.001 270.062Z" fill="#0B0A09"/>
<path fill-rule="evenodd" clip-rule="evenodd" d="M270 309.062C272.03 308.902 274.03 309.062 276 309.562C277.39 310.522 278.06 311.852 278 313.562C275.82 319.562 272.15 324.562 267 328.562C264.33 329.232 261.67 329.232 259 328.562C253.87 325.912 248.7 323.412 243.5 321.062C242 314.562 244.5 312.062 251 313.562C254.28 315.782 257.78 317.622 261.5 319.062C265.51 316.692 268.34 313.362 270 309.062Z" fill="#0A0908"/>
</svg>
