<svg width="500" height="500" viewBox="0 0 500 500" fill="none" xmlns="http://www.w3.org/2000/svg">
<path fill-rule="evenodd" clip-rule="evenodd" d="M445.999 281.062C447.278 285.462 446.945 289.802 444.999 294.062C443.814 300.592 440.481 305.762 434.999 309.562C423.388 316.962 410.721 319.962 396.999 318.562C389.078 315.432 381.078 312.602 372.999 310.062C365.241 311.912 357.575 314.082 349.999 316.562C349.219 317.632 349.386 318.802 350.499 320.062C354.332 323.892 358.166 327.732 361.999 331.562C368.297 333.022 374.63 334.352 380.999 335.562C383.569 338.182 383.569 340.842 380.999 343.562C377.953 343.252 374.953 343.412 371.999 344.062C374.252 346.842 374.918 349.842 373.999 353.062C372.425 354.192 370.758 354.362 368.999 353.562C367.14 352.002 365.64 350.172 364.499 348.062C363.338 351.882 361.505 355.382 358.999 358.562C355.946 359.632 353.946 358.632 352.999 355.562C355.504 350.912 356.17 346.082 354.999 341.062C347.574 337.602 340.741 333.272 334.499 328.062C325.891 332.372 317.391 336.872 308.999 341.562C303.583 342.542 298.25 343.712 292.999 345.062C292.879 343.972 292.212 343.312 290.999 343.062C287.799 343.222 285.132 344.222 282.999 346.062C264.595 346.582 246.262 345.912 227.999 344.062C224.804 342.472 221.304 341.472 217.499 341.062C216.734 341.132 216.234 341.462 215.999 342.062C203.904 338.372 191.904 334.372 179.999 330.062C172.999 333.892 165.999 337.732 158.999 341.562C152.345 344.822 145.345 346.162 137.999 345.562C133.773 342.702 129.273 340.532 124.499 339.062C121.235 339.642 118.402 341.142 115.999 343.562C114.332 344.232 112.666 344.232 110.999 343.562C109.92 340.662 110.253 337.832 111.999 335.062C108.759 334.002 105.592 334.332 102.499 336.062C98.5785 334.462 98.0785 332.132 100.999 329.062C104.831 326.312 108.831 323.812 112.999 321.562C109.917 320.152 107.084 318.322 104.499 316.062C103.779 314.452 103.945 312.952 104.999 311.562C106.999 310.892 108.999 310.892 110.999 311.562C116.516 313.732 122.182 315.402 127.999 316.562C132.899 321.462 137.732 326.292 142.499 331.062C147.783 327.612 152.616 323.612 156.999 319.062C149.72 315.242 142.054 312.072 133.999 309.562C113.785 300.302 95.4517 288.302 78.9989 273.562C73.7884 268.022 68.9551 262.182 64.4989 256.062C57.656 244.382 51.3227 232.382 45.4989 220.062C41.3472 207.792 37.3472 195.462 33.4989 183.062C31.2106 170.252 31.8773 157.582 35.4989 145.062C39.5019 135.052 43.5019 125.052 47.4989 115.062C49.6375 111.622 52.1375 108.452 54.9989 105.562C57.598 104.792 60.098 104.962 62.4989 106.062C62.0367 127.382 62.0367 148.722 62.4989 170.062C65.0576 186.352 72.2243 200.182 83.9989 211.562C95.5211 218.822 107.855 224.162 120.999 227.562C135.23 228.592 148.896 226.252 161.999 220.562C155.531 217.662 148.865 217.332 141.999 219.562C139.18 222.132 136.18 224.472 132.999 226.562C130.999 227.232 128.999 227.232 126.999 226.562C125.486 223.642 125.819 220.982 127.999 218.562C125.059 217.412 122.059 216.412 118.999 215.562C116.505 213.142 116.505 210.802 118.999 208.562C122.013 208.432 125.013 208.432 127.999 208.562C126.166 206.732 124.332 204.892 122.499 203.062C121.835 198.062 124.001 196.232 128.999 197.562C132.166 200.062 135.332 202.562 138.499 205.062C144.081 202.522 149.581 199.852 154.999 197.062C163.836 201.052 172.336 205.722 180.499 211.062C184.713 207.182 189.213 203.682 193.999 200.562C210.101 192.012 227.101 186.012 244.999 182.562C266.082 179.352 286.748 181.022 306.999 187.562C311.991 189.722 316.658 192.392 320.999 195.562C329.295 202.192 337.295 209.192 344.999 216.562C351.681 216.532 358.347 216.032 364.999 215.062C366.448 208.612 370.115 203.952 375.999 201.062C379.606 201.122 381.939 202.792 382.999 206.062C381.222 208.772 379.555 211.612 377.999 214.562C380.689 215.332 383.355 216.162 385.999 217.062C387.279 219.262 387.279 221.432 385.999 223.562C382.946 223.742 379.946 224.242 376.999 225.062C381.014 227.242 382.347 230.412 380.999 234.562C379.666 235.232 378.332 235.232 376.999 234.562C372.792 232.302 368.792 229.802 364.999 227.062C361.774 227.742 358.774 228.912 355.999 230.562C360.149 239.702 365.482 248.032 371.999 255.562C375.332 256.392 378.666 257.232 381.999 258.062C386.361 256.992 390.694 255.832 394.999 254.562C402.755 254.212 410.422 254.052 417.999 254.062C427.639 257.522 435.806 263.192 442.499 271.062C443.973 274.322 445.139 277.652 445.999 281.062Z" fill="#4DAF50"/>
<path fill-rule="evenodd" clip-rule="evenodd" d="M337 250.062C333.866 247.652 330.532 245.492 327 243.562C320.175 242.482 313.508 240.812 307 238.562C292.169 235.732 282.669 241.562 278.5 256.062C274.098 281.322 284.598 292.822 310 290.562C315.5 287.732 319.667 283.562 322.5 278.062C326.429 270.692 328.262 263.022 328 255.062C331.77 257.532 335.77 259.202 340 260.062C341.794 287.082 330.461 306.242 306 317.562C280.349 326.482 254.349 327.482 228 320.562C203.572 312.982 190.572 296.482 189 271.062C191.155 271.192 193.155 270.692 195 269.562C197.5 267.062 200 264.562 202.5 262.062C201.432 273.862 205.265 283.702 214 291.562C231.911 298.362 244.744 292.862 252.5 275.062C255.329 267.032 253.662 260.032 247.5 254.062C246.775 247.252 242.942 243.422 236 242.562C217.48 239.332 202.146 244.832 190 259.062C191.991 251.882 195.158 245.222 199.5 239.062C206.418 232.142 213.918 225.972 222 220.562C249.076 208.712 276.409 208.042 304 218.562C318.515 225.582 329.515 236.082 337 250.062Z" fill="#FCFCFC"/>
<path fill-rule="evenodd" clip-rule="evenodd" d="M337 250.062C339.552 251.252 342.052 252.592 344.5 254.062C345.487 257.912 343.987 259.912 340 260.062C335.77 259.202 331.77 257.532 328 255.062C328.262 263.022 326.429 270.692 322.5 278.062C319.667 283.562 315.5 287.732 310 290.562C284.598 292.822 274.098 281.322 278.5 256.062C282.669 241.562 292.169 235.732 307 238.562C313.508 240.812 320.175 242.482 327 243.562C330.532 245.492 333.866 247.652 337 250.062Z" fill="#040404"/>
<path fill-rule="evenodd" clip-rule="evenodd" d="M189.001 271.061C186.289 266.981 186.622 262.981 190.001 259.061C202.147 244.831 217.481 239.331 236.001 242.561C242.943 243.421 246.776 247.251 247.501 254.061C253.663 260.031 255.33 267.031 252.501 275.061C244.745 292.861 231.912 298.361 214.001 291.561C205.266 283.701 201.433 273.861 202.501 262.061C200.001 264.561 197.501 267.061 195.001 269.561C193.156 270.691 191.156 271.191 189.001 271.061Z" fill="#040404"/>
<path fill-rule="evenodd" clip-rule="evenodd" d="M292.001 245.061C297.923 243.841 300.923 246.171 301.001 252.061C300.609 255.411 300.109 258.741 299.501 262.061C294.078 266.491 289.411 265.821 285.501 260.061C283.365 256.571 283.532 253.231 286.001 250.061C288.442 248.851 290.442 247.181 292.001 245.061Z" fill="#F5F5F5"/>
<path fill-rule="evenodd" clip-rule="evenodd" d="M233 250.061C239.461 249.521 242.794 252.521 243 259.061C242.436 265.221 239.269 269.221 233.5 271.061C228.795 269.681 226.295 266.521 226 261.561C226.586 256.601 228.92 252.771 233 250.061Z" fill="#F7F7F7"/>
<path fill-rule="evenodd" clip-rule="evenodd" d="M416 269.062C423.854 269.362 425.521 272.532 421 278.562C416.525 281.282 413.525 280.282 412 275.562C412.705 273.022 414.039 270.852 416 269.062Z" fill="#060D05"/>
<path fill-rule="evenodd" clip-rule="evenodd" d="M446 281.061C452.009 280.891 458.009 281.061 464 281.561C468 283.561 468 285.561 464 287.561C457.841 290.311 451.507 292.481 445 294.061C446.946 289.801 447.279 285.461 446 281.061Z" fill="#FDB6B5"/>
<path fill-rule="evenodd" clip-rule="evenodd" d="M281.001 294.062C285.477 294.382 286.977 296.722 285.501 301.062C283.469 304.972 280.635 308.132 277.001 310.562C275.001 311.232 273.001 311.232 271.001 310.562C267.455 308.772 263.788 307.272 260.001 306.062C256.899 302.042 257.899 299.712 263.001 299.062C266.756 300.102 270.422 301.442 274.001 303.062C276.573 300.252 278.907 297.252 281.001 294.062Z" fill="#0E0E0E"/>
<path fill-rule="evenodd" clip-rule="evenodd" d="M415 296.062C423.003 296.372 424.67 299.712 420 306.062C417.2 308.462 414.2 308.632 411 306.562C409.696 305.762 409.029 304.592 409 303.062C410.302 300.092 412.302 297.762 415 296.062Z" fill="#060D05"/>
<path fill-rule="evenodd" clip-rule="evenodd" d="M216 342.062C216.235 341.462 216.735 341.132 217.5 341.062C221.305 341.472 224.805 342.472 228 344.062C228 345.732 228 347.392 228 349.062C227.005 359.882 226.672 370.882 227 382.062C228.667 382.062 230.333 382.062 232 382.062C235.236 383.092 238.402 384.422 241.5 386.062C242.542 389.362 241.375 391.532 238 392.562C232.492 392.982 226.992 393.482 221.5 394.062C219.148 394.262 217.148 393.592 215.5 392.062C216.133 380.452 216.633 368.792 217 357.062C216.999 351.882 216.666 346.882 216 342.062Z" fill="#060605"/>
<path fill-rule="evenodd" clip-rule="evenodd" d="M293 345.062C292.869 357.112 293.536 369.112 295 381.062C299.346 380.892 303.679 381.062 308 381.562C310.765 384.532 310.432 387.192 307 389.562C301.448 391.412 295.781 392.072 290 391.562C289.167 390.732 288.333 389.892 287.5 389.062C285.914 374.712 284.414 360.382 283 346.062C285.133 344.222 287.8 343.222 291 343.062C292.213 343.312 292.88 343.972 293 345.062Z" fill="#080807"/>
</svg>
