<svg width="500" height="500" viewBox="0 0 500 500" fill="none" xmlns="http://www.w3.org/2000/svg">
<path fill-rule="evenodd" clip-rule="evenodd" d="M294.001 141.061C292.673 144.811 290.007 145.981 286.001 144.561C285.249 143.891 284.915 143.061 285.001 142.061C284.82 127.431 289.82 114.931 300.001 104.561C309.243 97.2512 318.409 97.4212 327.501 105.061C331.207 110.381 331.874 116.041 329.501 122.061C325.403 126.671 320.736 127.671 315.501 125.061C314.399 120.151 316.399 117.491 321.501 117.061C321.403 109.571 317.57 106.731 310.001 108.561C299.24 116.651 293.906 127.491 294.001 141.061Z" fill="#0A0A09"/>
<path fill-rule="evenodd" clip-rule="evenodd" d="M363 149.061C362.082 151.381 360.748 153.551 359 155.561C351.913 156.121 350.246 153.281 354 147.061C356.425 135.591 361.758 125.761 370 117.561C377.716 114.671 385.382 115.001 393 118.561C403.653 125.941 403.653 133.271 393 140.561C389.604 142.601 386.438 142.431 383.5 140.061C382.221 135.331 384.055 132.831 389 132.561C391.841 129.401 391.174 127.071 387 125.561C383.378 124.451 379.711 124.121 376 124.561C369.127 131.321 364.794 139.491 363 149.061Z" fill="#090909"/>
<path fill-rule="evenodd" clip-rule="evenodd" d="M265.999 144.061C260.862 146.771 255.529 149.111 249.999 151.061C248.386 147.821 245.719 146.321 241.999 146.561C238.691 142.451 234.358 140.451 228.999 140.561C220.729 138.951 213.062 140.281 205.999 144.561C201.098 149.631 200.931 154.801 205.499 160.061C212.358 165.741 220.192 169.071 228.999 170.061C219.037 185.651 211.537 202.321 206.499 220.061C204.636 236.531 207.803 251.871 215.999 266.061C209.032 257.321 200.365 255.151 189.999 259.561C184.698 265.521 183.532 272.361 186.499 280.061C188.702 285.301 191.535 290.141 194.999 294.561C198.538 296.061 202.204 296.401 205.999 295.561C215.168 290.391 219.502 282.551 218.999 272.061C223.712 278.951 229.045 285.451 234.999 291.561C246.935 298.031 258.935 304.191 270.999 310.061C258.456 312.291 245.789 314.121 232.999 315.561C183.732 318.571 135.065 314.731 86.9988 304.061C83.8748 301.841 81.7078 298.841 80.4988 295.061C77.3548 282.231 76.3548 269.231 77.4988 256.061C79.4458 242.661 81.7788 229.321 84.4988 216.061C97.1638 189.721 115.331 167.891 138.999 150.561C164.727 135.551 192.394 129.881 221.999 133.561C230.972 135.091 239.972 136.421 248.999 137.561C254.436 140.281 260.102 142.441 265.999 144.061Z" fill="#F24336"/>
<path fill-rule="evenodd" clip-rule="evenodd" d="M250 151.061C242.078 156.311 235.078 162.651 229 170.061C220.193 169.071 212.359 165.741 205.5 160.061C200.932 154.801 201.099 149.631 206 144.561C213.063 140.281 220.73 138.951 229 140.561C234.359 140.451 238.692 142.451 242 146.561C245.72 146.321 248.387 147.821 250 151.061Z" fill="#050101"/>
<path fill-rule="evenodd" clip-rule="evenodd" d="M294 141.061C314.305 140.411 334.305 142.411 354 147.061C350.246 153.281 351.913 156.121 359 155.561C360.748 153.551 362.082 151.381 363 149.061C381.258 159.451 397.758 172.451 412.5 188.061C424.957 214.791 426.291 242.121 416.5 270.061C405.995 292.571 388.829 307.071 365 313.561C351.642 315.201 338.308 316.701 325 318.061C313.55 316.211 301.883 315.051 290 314.561C283.626 313.161 277.293 311.661 271 310.061C258.936 304.191 246.936 298.031 235 291.561C229.046 285.451 223.713 278.951 219 272.061C218 270.061 217 268.061 216 266.061C207.804 251.871 204.637 236.531 206.5 220.061C211.538 202.321 219.038 185.651 229 170.061C235.078 162.651 242.078 156.311 250 151.061C255.53 149.111 260.863 146.771 266 144.061C272.29 143.021 278.623 142.351 285 142.061C284.914 143.061 285.248 143.891 286 144.561C290.006 145.981 292.672 144.811 294 141.061Z" fill="#727171"/>
<path fill-rule="evenodd" clip-rule="evenodd" d="M403.001 229.061C398.836 225.061 394.503 221.231 390.001 217.561C382.91 214.521 375.91 211.181 369.001 207.561C352.507 202.891 341.34 208.731 335.501 225.061C328.432 248.641 337.099 261.311 361.501 263.061C367.61 262.471 372.944 260.141 377.501 256.061C381.565 250.321 385.231 244.321 388.501 238.061C387.667 229.781 389.5 228.621 394.001 234.561C396.968 236.211 399.968 237.711 403.001 239.061C402.938 244.311 401.771 249.311 399.501 254.061C377.38 286.231 346.88 298.731 308.001 291.561C286.654 288.471 268.154 279.631 252.501 265.061C246.578 257.301 242.578 248.631 240.501 239.061C240.001 231.401 239.835 223.731 240.001 216.061C245.894 216.011 250.894 213.851 255.001 209.561C255.833 208.871 256.499 209.041 257.001 210.061C251.158 223.171 253.158 235.001 263.001 245.561C274.147 251.741 285.147 251.411 296.001 244.561C299.851 241.011 303.351 237.181 306.501 233.061C307.712 230.011 308.546 226.841 309.001 223.561C306.882 217.541 305.382 211.371 304.501 205.061C300.062 198.581 293.896 194.751 286.001 193.561C273.1 191.371 260.767 193.201 249.001 199.061C258.002 180.651 273.002 169.151 294.001 164.561C323.799 160.181 351.133 166.181 376.001 182.561C389.55 195.501 398.55 211.001 403.001 229.061Z" fill="#FCFCFC"/>
<path fill-rule="evenodd" clip-rule="evenodd" d="M157 173.061C169.811 172.201 176.144 178.201 176 191.061C175.325 200.581 171.325 208.411 164 214.561C147.901 218.131 141.067 211.631 143.5 195.061C145.833 189.391 148.167 183.731 150.5 178.061C152.465 176.011 154.632 174.341 157 173.061Z" fill="#040100"/>
<path fill-rule="evenodd" clip-rule="evenodd" d="M240 216.061C237.526 213.371 237.359 210.371 239.5 207.061C242.645 204.261 245.812 201.591 249 199.061C260.766 193.201 273.099 191.371 286 193.561C293.895 194.751 300.061 198.581 304.5 205.061C305.381 211.371 306.881 217.541 309 223.561C308.545 226.841 307.711 230.011 306.5 233.061C303.35 237.181 299.85 241.011 296 244.561C285.146 251.411 274.146 251.741 263 245.561C253.157 235.001 251.157 223.171 257 210.061C256.498 209.041 255.832 208.871 255 209.561C250.893 213.851 245.893 216.011 240 216.061Z" fill="#050505"/>
<path fill-rule="evenodd" clip-rule="evenodd" d="M289 204.061C295.75 203.641 299.083 206.811 299 213.561C298.25 220.811 294.25 224.981 287 226.061C282.408 224.761 280.075 221.591 280 216.561C281.244 211.151 284.244 206.981 289 204.061Z" fill="#F6F6F6"/>
<path fill-rule="evenodd" clip-rule="evenodd" d="M403.001 229.061C405.551 230.461 407.218 232.621 408.001 235.561C407.294 238.101 405.628 239.271 403.001 239.061C399.968 237.711 396.968 236.211 394.001 234.561C389.5 228.621 387.667 229.781 388.501 238.061C385.231 244.321 381.565 250.321 377.501 256.061C372.944 260.141 367.61 262.471 361.501 263.061C337.099 261.311 328.432 248.641 335.501 225.061C341.34 208.731 352.507 202.891 369.001 207.561C375.91 211.181 382.91 214.521 390.001 217.561C394.503 221.231 398.836 225.061 403.001 229.061Z" fill="#050505"/>
<path fill-rule="evenodd" clip-rule="evenodd" d="M354 212.061C359.281 211.841 362.281 214.341 363 219.561C361.646 223.441 360.146 227.271 358.5 231.061C354.633 234.691 350.633 234.691 346.5 231.061C344.93 228.421 343.763 225.581 343 222.561C343.295 219.641 344.629 217.301 347 215.561C349.942 215.421 352.276 214.251 354 212.061Z" fill="#F5F5F5"/>
<path fill-rule="evenodd" clip-rule="evenodd" d="M105.999 250.061C118.446 249.041 128.946 253.041 137.499 262.061C139.292 266.111 139.292 270.111 137.499 274.061C126.93 287.381 116.263 287.381 105.499 274.061C99.4969 265.731 99.6639 257.731 105.999 250.061Z" fill="#040000"/>
<path fill-rule="evenodd" clip-rule="evenodd" d="M216.001 266.061C217.001 268.061 218.001 270.061 219.001 272.061C219.504 282.551 215.17 290.391 206.001 295.561C202.206 296.401 198.54 296.061 195.001 294.561C191.537 290.141 188.704 285.301 186.501 280.061C183.534 272.361 184.7 265.521 190.001 259.561C200.367 255.151 209.034 257.321 216.001 266.061Z" fill="#050100"/>
<path fill-rule="evenodd" clip-rule="evenodd" d="M308 262.061C310.064 262.251 312.064 262.751 314 263.561C316.574 265.801 319.408 267.641 322.5 269.061C325.284 267.281 327.784 265.111 330 262.561C333.356 261.531 335.356 262.701 336 266.061C332.881 271.841 328.215 275.841 322 278.061C316.727 275.301 311.561 272.301 306.5 269.061C305.685 266.361 306.185 264.031 308 262.061Z" fill="#0B0B0B"/>
<path fill-rule="evenodd" clip-rule="evenodd" d="M87 304.061C135.066 314.731 183.733 318.571 233 315.561C245.79 314.121 258.457 312.291 271 310.061C277.293 311.661 283.626 313.161 290 314.561C301.883 315.051 313.55 316.211 325 318.061C324.428 319.821 323.594 321.481 322.5 323.061C318.125 327.601 313.625 331.941 309 336.061C314.287 347.131 320.953 357.301 329 366.561C332.116 364.681 335.45 362.841 339 361.061C341.197 361.411 343.03 362.411 344.5 364.061C345.167 367.061 345.167 370.061 344.5 373.061C342.333 375.891 340.167 378.731 338 381.561C335.134 383.021 332.134 383.351 329 382.561C322.27 377.841 316.104 372.341 310.5 366.061C306.397 358.851 302.563 351.521 299 344.061C297.426 342.931 295.759 342.761 294 343.561C289.353 346.191 284.687 348.861 280 351.561C276.979 352.411 273.979 353.241 271 354.061C272 364.731 273 375.391 274 386.061C278.93 385.761 283.763 386.091 288.5 387.061C290.206 390.521 290.372 394.021 289 397.561C282.307 401.231 275.474 401.731 268.5 399.061C267.256 395.581 265.256 392.581 262.5 390.061C260.341 378.821 258.841 367.491 258 356.061C242.985 355.731 227.985 356.061 213 357.061C215.29 366.671 217.29 376.331 219 386.061C221.85 385.921 224.683 385.591 227.5 385.061C232.813 384.701 234.813 387.031 233.5 392.061C228.77 398.771 222.27 401.941 214 401.561C206.871 396.141 202.705 388.971 201.5 380.061C199.877 371.781 198.711 363.451 198 355.061C191.325 355.231 184.658 355.061 178 354.561C173.109 352.701 168.109 351.701 163 351.561C159.709 356.311 156.542 361.141 153.5 366.061C153.001 370.381 152.834 374.711 153 379.061C155.064 379.251 157.064 379.751 159 380.561C161.707 381.691 164.207 383.191 166.5 385.061C168.279 387.481 168.946 390.151 168.5 393.061C167.318 394.921 165.651 395.921 163.5 396.061C157.978 394.301 152.478 392.471 147 390.561C144.924 387.981 142.257 386.311 139 385.561C137.143 384.381 136.143 382.711 136 380.561C138.258 376.051 139.424 371.221 139.5 366.061C142.096 358.591 145.263 351.431 149 344.561C134.789 337.291 120.456 330.291 106 323.561C98.122 318.521 91.788 312.021 87 304.061Z" fill="#040303"/>
</svg>
