<svg width="500" height="500" viewBox="0 0 500 500" fill="none" xmlns="http://www.w3.org/2000/svg">
<path fill-rule="evenodd" clip-rule="evenodd" d="M288 145.061C286.33 146.731 284.67 148.391 283 150.061C276.93 154.471 270.1 156.811 262.5 157.061C251.69 156.701 241.02 155.361 230.5 153.061C220.98 154.891 211.48 155.221 202 154.061C200 152.391 198 150.731 196 149.061C193.88 141.821 196.54 137.321 204 135.561C207.35 135.011 210.69 135.181 214 136.061C215.57 136.081 216.9 135.581 218 134.561C216.46 130.981 214.79 127.481 213 124.061C215.8 117.071 219.64 116.401 224.5 122.061C225.11 125.971 226.27 129.631 228 133.061C239.31 126.351 251.47 122.351 264.5 121.061C275.76 121.681 283.76 127.011 288.5 137.061C289.1 139.781 288.93 142.451 288 145.061Z" fill="#413FB9"/>
<path fill-rule="evenodd" clip-rule="evenodd" d="M288.001 145.061C296.381 148.421 304.381 152.591 312.001 157.561C318.151 162.801 324.481 167.801 331.001 172.561C344.071 175.691 357.071 179.031 370.001 182.561C383.031 186.921 391.201 195.761 394.501 209.061C398.311 211.111 401.981 213.441 405.501 216.061C412.501 227.061 419.501 238.061 426.501 249.061C427.251 254.051 427.921 259.051 428.501 264.061C432.241 269.541 434.901 275.541 436.501 282.061C438.731 294.851 440.561 307.681 442.001 320.561C442.841 343.201 434.511 361.531 417.001 375.561C407.611 383.481 399.111 382.651 391.501 373.061C388.021 368.641 385.691 363.641 384.501 358.061C381.431 359.181 378.261 359.341 375.001 358.561C366.881 355.091 359.721 350.261 353.501 344.061C352.091 340.241 350.421 336.581 348.501 333.061C346.991 335.441 344.821 336.441 342.001 336.061C326.201 333.151 311.531 327.491 298.001 319.061C293.081 321.021 288.081 322.691 283.001 324.061C280.691 324.551 278.361 324.891 276.001 325.061C256.611 326.661 237.281 326.331 218.001 324.061C214.981 323.861 211.981 323.521 209.001 323.061C206.481 322.181 203.811 321.341 201.001 320.561C197.901 318.591 194.731 316.761 191.501 315.061C183.971 321.251 176.131 327.081 168.001 332.561C161.111 336.241 154.611 335.741 148.501 331.061C143.001 339.231 136.171 346.061 128.001 351.561C125.761 352.541 123.431 353.041 121.001 353.061C122.411 367.821 115.741 374.981 101.001 374.561C82.4111 369.641 69.9111 358.141 63.5011 340.061C53.1811 317.171 55.1811 295.501 69.5011 275.061C68.9711 265.091 68.9711 255.091 69.5011 245.061C72.0311 233.161 78.2011 223.661 88.0011 216.561C96.0311 213.491 104.031 210.331 112.001 207.061C113.761 201.471 116.591 196.471 120.501 192.061C126.881 186.181 133.381 180.511 140.001 175.061C151.691 169.661 163.691 165.161 176.001 161.561C181.551 155.621 188.211 151.451 196.001 149.061C198.001 150.731 200.001 152.391 202.001 154.061C196.581 155.711 191.241 157.881 186.001 160.561C177.541 169.321 172.711 179.821 171.501 192.061C171.001 200.051 170.831 208.051 171.001 216.061C170.671 217.391 170.331 218.731 170.001 220.061C169.001 222.061 168.001 224.061 167.001 226.061C166.331 227.061 165.671 228.061 165.001 229.061C164.831 216.061 165.001 203.061 165.501 190.061C167.381 183.221 168.881 176.551 170.001 170.061C159.401 173.541 149.061 177.711 139.001 182.561C120.171 195.071 113.011 212.571 117.501 235.061C120.221 245.641 122.551 256.311 124.501 267.061C128.421 276.091 131.421 285.421 133.501 295.061C137.221 302.231 140.551 309.561 143.501 317.061C152.151 330.081 162.651 331.581 175.001 321.561C179.561 317.761 183.891 313.761 188.001 309.561C184.951 305.421 182.451 300.921 180.501 296.061C176.431 285.921 172.931 275.581 170.001 265.061C172.651 266.701 175.321 268.371 178.001 270.061C182.251 280.961 186.411 291.961 190.501 303.061C195.031 310.411 201.531 314.911 210.001 316.561C234.921 320.841 259.921 321.181 285.001 317.561C288.711 316.621 291.871 314.791 294.501 312.061C300.351 297.041 306.181 282.041 312.001 267.061C319.621 258.941 322.791 249.281 321.501 238.061C320.341 233.781 319.511 229.441 319.001 225.061C321.621 226.421 323.281 225.591 324.001 222.561C323.981 220.731 323.311 219.231 322.001 218.061C322.781 203.721 323.281 189.391 323.501 175.061C311.801 163.801 298.301 155.461 283.001 150.061C284.671 148.391 286.331 146.731 288.001 145.061Z" fill="#CD733D"/>
<path fill-rule="evenodd" clip-rule="evenodd" d="M283 150.061C298.3 155.461 311.8 163.801 323.5 175.061C323.28 189.391 322.78 203.721 322 218.061C317.52 216.901 313.86 214.571 311 211.061C304.69 201.881 296.35 195.051 286 190.561C270.56 184.581 254.56 181.411 238 181.061C210.29 182.851 187.95 194.511 171 216.061C170.83 208.051 171 200.051 171.5 192.061C172.71 179.821 177.54 169.321 186 160.561C191.24 157.881 196.58 155.711 202 154.061C211.48 155.221 220.98 154.891 230.5 153.061C241.02 155.361 251.69 156.701 262.5 157.061C270.1 156.811 276.93 154.471 283 150.061Z" fill="#F1B239"/>
<path fill-rule="evenodd" clip-rule="evenodd" d="M164.999 229.061C159.769 242.061 161.429 254.061 169.999 265.061C172.929 275.581 176.429 285.921 180.499 296.061C182.449 300.921 184.949 305.421 187.999 309.561C183.889 313.761 179.559 317.761 174.999 321.561C162.649 331.581 152.149 330.081 143.499 317.061C140.549 309.561 137.219 302.231 133.499 295.061C131.419 285.421 128.419 276.091 124.499 267.061C122.549 256.311 120.219 245.641 117.499 235.061C113.009 212.571 120.169 195.071 138.999 182.561C149.059 177.711 159.399 173.541 169.999 170.061C168.879 176.551 167.379 183.221 165.499 190.061C164.999 203.061 164.829 216.061 164.999 229.061Z" fill="#F1B238"/>
<path fill-rule="evenodd" clip-rule="evenodd" d="M330 180.061C346.66 182.061 362.66 186.561 378 193.561C385.63 200.321 389.3 208.821 389 219.061C388.49 225.441 387.66 231.771 386.5 238.061C381.46 256.471 376.13 274.801 370.5 293.061C364.6 305.291 356.77 316.121 347 325.561C343.84 326.441 340.84 327.611 338 329.061C327.25 326.351 316.92 322.521 307 317.561C304.43 315.491 302.43 312.991 301 310.061C308.62 294.161 315.12 277.821 320.5 261.061C326.26 234.351 329.43 207.351 330 180.061Z" fill="#F1B238"/>
<path fill-rule="evenodd" clip-rule="evenodd" d="M311 211.061C302.74 208.411 294.41 205.911 286 203.561C273.3 200.611 264.47 205.111 259.5 217.061C255.93 227.331 256.59 237.331 261.5 247.061C272.74 256.571 284.57 257.401 297 249.561C303.67 240.901 307.17 231.061 307.5 220.061C310.81 222.971 314.65 224.631 319 225.061C319.51 229.441 320.34 233.781 321.5 238.061C322.79 249.281 319.62 258.941 312 267.061C303.89 272.601 294.89 276.101 285 277.561C248.71 282.991 213.05 280.491 178 270.061C175.32 268.371 172.65 266.701 170 265.061C161.43 254.061 159.77 242.061 165 229.061C165.67 228.061 166.33 227.061 167 226.061C166.79 232.151 169.45 233.651 175 230.561C177.54 227.691 180.37 225.191 183.5 223.061C180.61 238.411 186.11 249.571 200 256.561C218.44 257.671 229.44 249.171 233 231.061C233.03 225.641 231.19 220.971 227.5 217.061C227.03 210.551 223.53 206.721 217 205.561C198.8 202.241 183.14 207.071 170 220.061C170.33 218.731 170.67 217.391 171 216.061C187.95 194.511 210.29 182.851 238 181.061C254.56 181.411 270.56 184.581 286 190.561C296.35 195.051 304.69 201.881 311 211.061Z" fill="#FCFCFB"/>
<path fill-rule="evenodd" clip-rule="evenodd" d="M310.999 211.061C313.859 214.571 317.519 216.901 321.999 218.061C323.309 219.231 323.979 220.731 323.999 222.561C323.279 225.591 321.619 226.421 318.999 225.061C314.649 224.631 310.809 222.971 307.499 220.061C307.169 231.061 303.669 240.901 296.999 249.561C284.569 257.401 272.739 256.571 261.499 247.061C256.589 237.331 255.929 227.331 259.499 217.061C264.469 205.111 273.299 200.611 285.999 203.561C294.409 205.911 302.739 208.411 310.999 211.061Z" fill="#050404"/>
<path fill-rule="evenodd" clip-rule="evenodd" d="M167 226.061C168 224.061 169 222.061 170 220.061C183.14 207.071 198.8 202.241 217 205.561C223.53 206.721 227.03 210.551 227.5 217.061C231.19 220.971 233.03 225.641 233 231.061C229.44 249.171 218.44 257.671 200 256.561C186.11 249.571 180.61 238.411 183.5 223.061C180.37 225.191 177.54 227.691 175 230.561C169.45 233.651 166.79 232.151 167 226.061Z" fill="#040404"/>
<path fill-rule="evenodd" clip-rule="evenodd" d="M273.001 209.061C278.411 208.641 281.081 211.141 281.001 216.561C280.551 219.741 280.051 222.901 279.501 226.061C275.771 229.611 271.771 229.941 267.501 227.061C264.301 224.041 263.301 220.371 264.501 216.061C267.501 213.831 270.331 211.491 273.001 209.061Z" fill="#F5F5F5"/>
<path fill-rule="evenodd" clip-rule="evenodd" d="M213.001 213.061C219.221 212.451 222.561 215.281 223.001 221.561C222.311 227.651 219.151 231.821 213.501 234.061C205.631 230.361 203.961 224.691 208.501 217.061C209.901 215.491 211.401 214.161 213.001 213.061Z" fill="#F7F7F7"/>
<path fill-rule="evenodd" clip-rule="evenodd" d="M108.001 215.061C109.001 215.061 110.001 215.061 111.001 215.061C110.831 222.401 111.001 229.731 111.501 237.061C113.991 247.351 116.321 257.681 118.501 268.061C122.501 277.401 125.501 287.071 127.501 297.061C131.351 304.941 135.021 312.941 138.501 321.061C139.811 323.201 141.311 325.201 143.001 327.061C137.151 333.081 131.481 339.241 126.001 345.561C122.291 346.561 118.961 345.891 116.001 343.561C101.921 329.241 90.4212 313.071 81.5012 295.061C75.7812 276.761 74.4412 258.091 77.5012 239.061C80.2312 233.001 84.4012 228.161 90.0012 224.561C96.2512 221.601 102.251 218.441 108.001 215.061Z" fill="#F1B239"/>
<path fill-rule="evenodd" clip-rule="evenodd" d="M395 217.061C405.17 226.731 413.67 237.731 420.5 250.061C421.6 261.901 420.6 273.571 417.5 285.061C411.5 301.061 405.5 317.061 399.5 333.061C394.8 341.761 388.13 348.431 379.5 353.061C365.85 349.911 357.35 341.581 354 328.061C362.98 318.101 370.48 307.101 376.5 295.061C382.04 276.771 387.38 258.441 392.5 240.061C394.38 232.501 395.21 224.841 395 217.061Z" fill="#F1B239"/>
<path fill-rule="evenodd" clip-rule="evenodd" d="M140 258.061C142.22 257.741 144.06 258.401 145.5 260.061C149.36 276.761 155.69 292.431 164.5 307.061C167.41 304.131 170.74 303.461 174.5 305.061C175.17 306.391 175.17 307.731 174.5 309.061C171.31 313.241 167.81 317.081 164 320.561C162.13 321.271 160.63 320.771 159.5 319.061C159.25 316.361 159.25 313.691 159.5 311.061C154.26 306.241 150.26 300.571 147.5 294.061C143.21 283.791 140.38 273.121 139 262.061C139.12 260.641 139.46 259.301 140 258.061Z" fill="#0C0802"/>
<path fill-rule="evenodd" clip-rule="evenodd" d="M258.999 258.061C262.069 257.481 264.069 258.651 264.999 261.561C263.169 266.401 260.169 270.401 255.999 273.561C249.339 273.661 243.169 271.831 237.499 268.061C236.429 265.011 237.429 263.011 240.499 262.061C243.639 262.551 246.479 263.721 248.999 265.561C250.669 266.231 252.329 266.231 253.999 265.561C255.799 263.121 257.469 260.621 258.999 258.061Z" fill="#0C0C0C"/>
<path fill-rule="evenodd" clip-rule="evenodd" d="M331 266.061C332.08 266.101 333.08 266.431 334 267.061C334.75 282.821 330.75 297.321 322 310.561C323.54 312.161 324.04 313.991 323.5 316.061C322.69 318.231 321.36 319.901 319.5 321.061C316.24 318.101 313.07 314.931 310 311.561C306.18 310.951 305.18 308.951 307 305.561C310.75 305.471 314.42 305.301 318 305.061C323.82 294.431 327.32 283.101 328.5 271.061C328.87 269.111 329.7 267.441 331 266.061Z" fill="#0A0702"/>
<path fill-rule="evenodd" clip-rule="evenodd" d="M312 267.061C306.18 282.041 300.35 297.041 294.5 312.061C291.87 314.791 288.71 316.621 285 317.561C259.92 321.181 234.92 320.841 210 316.561C201.53 314.911 195.03 310.411 190.5 303.061C186.41 291.961 182.25 280.961 178 270.061C213.05 280.491 248.71 282.991 285 277.561C294.89 276.101 303.89 272.601 312 267.061Z" fill="#F1B239"/>
<path fill-rule="evenodd" clip-rule="evenodd" d="M426 274.061C427.64 275.311 428.8 276.981 429.5 279.061C431.87 291.861 434.04 304.701 436 317.561C435.89 333.801 431.39 348.631 422.5 362.061C417.28 367.791 411.11 372.121 404 375.061C402.56 374.841 401.23 374.341 400 373.561C394 368.391 391.16 361.891 391.5 354.061C396.55 348.011 401.22 341.671 405.5 335.061C411.5 319.061 417.5 303.061 423.5 287.061C424.4 282.731 425.23 278.391 426 274.061Z" fill="#F1B239"/>
<path fill-rule="evenodd" clip-rule="evenodd" d="M71 285.061C80.71 310.781 95.71 333.111 116 352.061C114.6 356.271 113.76 360.601 113.5 365.061C108.84 369.131 103.67 369.961 98 367.561C90.74 363.681 83.91 359.181 77.5 354.061C69.39 341.011 64.56 326.841 63 311.561C63.36 301.981 66.03 293.151 71 285.061Z" fill="#F1B239"/>
<path fill-rule="evenodd" clip-rule="evenodd" d="M209 323.061C211.98 323.521 214.98 323.861 218 324.061C220.71 338.211 220.54 352.211 217.5 366.061C211.67 368.921 205.5 369.761 199 368.561C195.4 367.231 194.23 364.731 195.5 361.061C199.64 358.471 203.97 356.471 208.5 355.061C209 344.401 209.17 333.731 209 323.061Z" fill="#0B0B0B"/>
<path fill-rule="evenodd" clip-rule="evenodd" d="M283 324.061C285.53 333.891 287.37 343.891 288.5 354.061C291.57 352.941 294.74 352.781 298 353.561C302.37 355.541 303.04 358.371 300 362.061C295.31 364.441 290.31 365.781 285 366.061C282.73 365.631 281.23 364.301 280.5 362.061C278.56 349.771 277.06 337.441 276 325.061C278.36 324.891 280.69 324.551 283 324.061Z" fill="#080808"/>
</svg>
