<svg width="500" height="500" viewBox="0 0 500 500" fill="none" xmlns="http://www.w3.org/2000/svg">
<path fill-rule="evenodd" clip-rule="evenodd" d="M284 129.062C273.37 135.642 261.7 138.642 249 138.062C235.37 139.242 223.03 135.902 212 128.062C208.18 125.742 205.68 122.402 204.5 118.062C204.37 109.812 203.53 101.642 202 93.5617C203.16 82.5617 209.16 75.7317 220 73.0617C220.71 66.9517 221.88 60.9517 223.5 55.0617C225.8 52.6317 228.64 51.6317 232 52.0617C233.56 43.1417 236.06 34.4717 239.5 26.0617C243.12 23.2217 246.45 23.5517 249.5 27.0617C252.07 34.9317 253.9 42.9317 255 51.0617C259.01 51.1217 262.18 52.7917 264.5 56.0617C264.55 60.5917 265.38 64.9317 267 69.0617C274.59 71.4317 281.09 75.4317 286.5 81.0617C289.76 94.6117 290.43 108.282 288.5 122.062C287.6 124.792 286.1 127.132 284 129.062Z" fill="#2A8D44"/>
<path fill-rule="evenodd" clip-rule="evenodd" d="M243 29.0615C245.11 29.9215 246.28 31.5915 246.5 34.0615C248.61 40.0015 249.61 46.0015 249.5 52.0615C251.93 54.7715 254.93 56.4415 258.5 57.0615C259.33 64.0815 259.16 71.0815 258 78.0615C252.71 78.9115 247.38 79.5715 242 80.0615C227.23 79.1915 222.56 71.8615 228 58.0615C229.57 57.2515 231.24 56.9215 233 57.0615C233 55.7315 233 54.3915 233 53.0615C234.32 53.2315 235.49 52.9015 236.5 52.0615C238.57 44.3515 240.74 36.6815 243 29.0615Z" fill="#4BAE4F"/>
<path fill-rule="evenodd" clip-rule="evenodd" d="M265.001 74.0615C269.351 75.7915 273.681 77.6215 278.001 79.5615C280.551 83.6415 279.881 87.3015 276.001 90.5615C273.141 91.9615 270.141 92.9615 267.001 93.5615C252.681 94.7515 238.351 95.0815 224.001 94.5615C205.021 90.0115 204.521 84.5115 222.501 78.0615C226.561 80.3415 230.731 82.5115 235.001 84.5615C242.391 85.3615 249.721 85.0315 257.001 83.5615C262.411 82.6615 265.071 79.4915 265.001 74.0615Z" fill="#4BAE4F"/>
<path fill-rule="evenodd" clip-rule="evenodd" d="M282 91.0615C282.62 91.1715 283.12 91.5015 283.5 92.0615C285.28 102.082 285.28 112.082 283.5 122.062C280.79 125.662 277.29 128.162 273 129.562C253.75 136.052 235.08 134.722 217 125.562C212.24 123.142 209.41 119.302 208.5 114.062C208.27 107.862 207.77 101.692 207 95.5615C207.33 95.0615 207.67 94.5615 208 94.0615C216.43 98.4215 225.43 100.422 235 100.062C246 99.5615 257 99.0615 268 98.5615C273.85 98.0215 278.52 95.5215 282 91.0615Z" fill="#48A84D"/>
<path fill-rule="evenodd" clip-rule="evenodd" d="M212 128.062C223.03 135.902 235.37 139.242 249 138.062C261.7 138.642 273.37 135.642 284 129.062C286.06 136.482 287.56 144.152 288.5 152.062C294.38 155.092 300.21 158.252 306 161.562C310.71 166.332 315.88 170.492 321.5 174.062C327.58 181.882 332.92 190.222 337.5 199.062C341.27 208.472 344.27 218.142 346.5 228.062C346.62 262.102 347.78 296.102 350 330.062C348.98 333.352 349.65 336.352 352 339.062C351.71 349.212 351.71 359.542 352 370.062C349.49 373.072 347.49 376.412 346 380.062C346.99 382.052 347.99 384.052 349 386.062C342.83 403.092 332.83 417.592 319 429.562C310.51 431.602 302.17 433.772 294 436.062C290.32 436.282 286.65 436.622 283 437.062C274.56 437.272 266.23 436.442 258 434.562C247.01 434.062 236.01 433.892 225 434.062C221.33 434.062 217.67 434.062 214 434.062C196.6 432.942 182.43 425.612 171.5 412.062C164.73 403.792 158.56 395.132 153 386.062C165.8 382.012 178.47 377.352 191 372.062C194.31 374.722 197.98 376.892 202 378.562C208.72 380.022 215.39 381.692 222 383.562C238.33 384.232 254.67 384.232 271 383.562C287.16 383.712 302.16 379.712 316 371.562C321.49 365.122 324.65 357.622 325.5 349.062C326.47 341.242 325.97 333.572 324 326.062C325.35 323.772 325.01 321.772 323 320.062C321.29 314.972 318.79 310.312 315.5 306.062C290.13 282.262 260.3 273.432 226 279.562C206.79 284.442 192.63 295.612 183.5 313.062C182.36 315.992 181.52 318.992 181 322.062C180.11 324.612 179.78 327.282 180 330.062C178.3 342.832 179.96 355.172 185 367.062C173.47 373.352 161.14 377.012 148 378.062C147.07 370.782 146.74 363.452 147 356.062C148.85 353.362 150.52 350.532 152 347.562C150.43 345.222 148.76 343.062 147 341.062C149.22 303.762 151.06 266.432 152.5 229.062C153.45 216.622 155.12 204.292 157.5 192.062C158.31 189.112 159.64 186.452 161.5 184.062C167.33 177.562 173.17 171.062 179 164.562C186.24 159.022 193.74 153.862 201.5 149.062C204.17 145.062 206.83 141.062 209.5 137.062C211.05 134.252 211.88 131.252 212 128.062Z" fill="#C91A19"/>
<path fill-rule="evenodd" clip-rule="evenodd" d="M322.001 211.061C318.501 210.691 315.501 211.691 313.001 214.061C310.321 206.871 307.161 199.871 303.501 193.061C297.031 187.591 290.861 181.761 285.001 175.561C278.311 173.001 272.481 169.171 267.501 164.061C265.111 158.281 264.441 152.281 265.501 146.061C267.711 143.851 270.211 143.521 273.001 145.061C275.241 149.441 276.741 154.111 277.501 159.061C281.891 161.751 286.391 164.251 291.001 166.561C299.171 174.061 307.331 181.561 315.501 189.061C318.341 192.731 320.671 196.731 322.501 201.061C323.161 204.451 322.991 207.781 322.001 211.061Z" fill="#DF7979"/>
<path fill-rule="evenodd" clip-rule="evenodd" d="M166.001 208.062C167.641 207.852 169.141 208.182 170.501 209.062C170.831 212.062 171.171 215.062 171.501 218.062C172.511 218.902 173.681 219.232 175.001 219.062C174.841 216.702 175.001 214.372 175.501 212.062C177.171 210.732 178.831 210.732 180.501 212.062C180.001 218.712 180.001 225.382 180.501 232.062C179.171 233.392 177.831 233.392 176.501 232.062C175.161 229.542 174.331 226.872 174.001 224.062C172.681 223.892 171.511 224.222 170.501 225.062C170.181 228.102 170.181 231.102 170.501 234.062C168.831 236.732 167.171 236.732 165.501 234.062C164.721 225.352 164.891 216.682 166.001 208.062Z" fill="#FCE3E3"/>
<path fill-rule="evenodd" clip-rule="evenodd" d="M208 209.062C216.2 209.192 217.04 211.862 210.5 217.062C210.17 222.392 209.83 227.732 209.5 233.062C207.83 234.392 206.17 234.392 204.5 233.062C203.81 227.362 203.98 221.692 205 216.062C201.91 218.012 199.58 217.352 198 214.062C198.48 213.082 199.14 212.252 200 211.562C202.81 210.782 205.48 209.942 208 209.062Z" fill="#FCDFDF"/>
<path fill-rule="evenodd" clip-rule="evenodd" d="M255.999 210.062C258.359 209.902 260.689 210.062 262.999 210.562C264.829 211.062 265.999 212.232 266.499 214.062C269.049 219.762 269.879 225.592 268.999 231.562C267.709 232.052 266.369 232.222 264.999 232.062C265.879 225.522 263.549 223.692 257.999 226.562C257.049 228.522 255.709 230.182 253.999 231.562C253.049 232.182 252.219 232.012 251.499 231.062C250.639 223.502 252.139 216.502 255.999 210.062Z" fill="#FDE1E1"/>
<path fill-rule="evenodd" clip-rule="evenodd" d="M322 211.062C323.19 211.432 323.86 212.262 324 213.562C316.48 220.692 317.31 222.192 326.5 218.062C330.18 219.212 330.68 221.052 328 223.562C325.63 224.292 323.3 225.132 321 226.062C320.11 226.882 319.78 227.882 320 229.062C322.94 228.842 325.77 228.182 328.5 227.062C330.16 226.952 331.33 227.612 332 229.062C327.85 234.332 322.85 235.672 317 233.062C315.57 231.342 314.73 229.342 314.5 227.062C314.21 222.682 313.71 218.342 313 214.062C315.5 211.692 318.5 210.692 322 211.062Z" fill="#FCE3E2"/>
<path fill-rule="evenodd" clip-rule="evenodd" d="M238.999 211.062C243.099 210.792 247.099 211.292 250.999 212.562C251.879 213.922 252.209 215.422 251.999 217.062C247.619 216.732 243.279 217.072 238.999 218.062C244.619 223.192 244.289 227.692 237.999 231.562C235.329 232.232 232.669 232.232 229.999 231.562C227.909 230.612 227.569 229.272 228.999 227.562C232.119 227.352 235.119 226.692 237.999 225.562C231.279 220.232 231.609 215.402 238.999 211.062Z" fill="#FCE1E0"/>
<path fill-rule="evenodd" clip-rule="evenodd" d="M190 212.062C191.89 211.862 193.39 212.522 194.5 214.062C198.45 218.552 199.45 223.552 197.5 229.062C193.52 233.202 189.85 232.872 186.5 228.062C184.5 223.392 184.5 218.732 186.5 214.062C187.8 213.482 188.97 212.812 190 212.062Z" fill="#FCE2E2"/>
<path fill-rule="evenodd" clip-rule="evenodd" d="M272 212.062C273.64 211.852 275.14 212.182 276.5 213.062C277.38 216.352 278.05 219.682 278.5 223.062C281.15 228.422 282.98 228.092 284 222.062C283.23 219.412 283.07 216.742 283.5 214.062C285.17 211.392 286.83 211.392 288.5 214.062C289.17 218.062 289.17 222.062 288.5 226.062C287.66 231.572 284.5 233.732 279 232.562C273.05 226.912 270.72 220.072 272 212.062Z" fill="#FCE1E0"/>
<path fill-rule="evenodd" clip-rule="evenodd" d="M298.001 213.061C303.301 212.541 305.641 214.701 305.001 219.561C303.291 219.761 301.631 219.761 300.001 219.561C298.401 223.491 299.731 225.991 304.001 227.061C306.261 225.911 308.591 225.411 311.001 225.561C312.461 228.641 311.461 230.641 308.001 231.561C297.551 233.111 293.051 228.611 294.501 218.061C295.501 216.241 296.661 214.571 298.001 213.061Z" fill="#FCE2E1"/>
<path fill-rule="evenodd" clip-rule="evenodd" d="M190 219.062C191.25 219.142 192.08 219.802 192.5 221.062C193.3 222.822 193.13 224.492 192 226.062C190.33 224.052 189.66 221.722 190 219.062Z" fill="#D23E36"/>
<path fill-rule="evenodd" clip-rule="evenodd" d="M186 242.062C187.89 241.862 189.39 242.522 190.5 244.062C191.67 247.062 192.84 250.062 194 253.062C197.57 250.612 201.07 250.612 204.5 253.062C205.3 254.822 205.13 256.492 204 258.062C201.52 260.042 199.18 262.212 197 264.562C202.07 265.802 204.07 268.962 203 274.062C198.94 274.042 194.94 274.542 191 275.562C189.7 279.122 188.2 282.622 186.5 286.062C184.17 288.732 181.83 288.732 179.5 286.062C179 283.412 178.84 280.752 179 278.062C175.81 278.652 172.81 279.822 170 281.562C167.4 282.332 164.9 282.162 162.5 281.062C161.83 279.392 161.83 277.732 162.5 276.062C165.39 273.512 167.89 270.682 170 267.562C166.58 265.092 163.42 262.252 160.5 259.062C159.78 252.952 162.28 251.452 168 254.562C171.33 255.232 174.67 255.232 178 254.562C179.57 249.562 182.24 245.392 186 242.062Z" fill="#FCE2E2"/>
<path fill-rule="evenodd" clip-rule="evenodd" d="M306.001 247.061C313.341 246.891 320.671 247.061 328.001 247.561C328.831 248.391 329.671 249.231 330.501 250.061C331.001 261.051 331.171 272.051 331.001 283.061C329.141 283.021 327.811 283.851 327.001 285.561C326.001 286.231 325.001 286.231 324.001 285.561C315.871 275.761 307.371 266.261 298.501 257.061C297.831 254.731 297.831 252.391 298.501 250.061C301.071 248.971 303.571 247.971 306.001 247.061Z" fill="#FDE3E3"/>
<path fill-rule="evenodd" clip-rule="evenodd" d="M186 250.062C187.43 252.162 188.6 254.492 189.5 257.062C190.67 258.452 192.17 259.292 194 259.562C190.18 262.902 190.18 266.072 194 269.062C188.55 269.012 185.38 271.682 184.5 277.062C184.03 275.632 183.2 274.462 182 273.562C178.62 273.192 175.29 273.192 172 273.562C177.32 269.512 177.32 265.512 172 261.562C175.33 260.892 178.67 260.232 182 259.562C183.24 256.342 184.57 253.172 186 250.062Z" fill="#CB2320"/>
<path fill-rule="evenodd" clip-rule="evenodd" d="M319 252.062C321.33 252.062 323.67 252.062 326 252.062C326.17 261.072 326 270.072 325.5 279.062C318.71 270.602 311.54 262.432 304 254.562C309.01 253.452 314.01 252.612 319 252.062Z" fill="#CA201E"/>
<path fill-rule="evenodd" clip-rule="evenodd" d="M323 320.062C317.57 317.152 312.24 313.982 307 310.562C300.95 309.102 294.95 307.432 289 305.562C281 303.522 274.17 305.352 268.5 311.062C261.56 322.882 261.22 334.882 267.5 347.062C288.43 358.972 302.09 353.312 308.5 330.062C308.75 326.892 308.92 323.892 309 321.062C313.31 324.602 318.31 326.262 324 326.062C325.97 333.572 326.47 341.242 325.5 349.062C324.65 357.622 321.49 365.122 316 371.562C302.16 379.712 287.16 383.712 271 383.562C254.67 384.232 238.33 384.232 222 383.562C215.39 381.692 208.72 380.022 202 378.562C197.98 376.892 194.31 374.722 191 372.062C195.19 366.602 200.19 365.432 206 368.562C212.07 369.912 214.4 367.742 213 362.062C211.71 361.462 210.37 360.962 209 360.562C205.7 355.242 201.04 353.242 195 354.562C194.23 357.002 194.06 359.502 194.5 362.062C191.39 363.872 188.22 365.532 185 367.062C179.96 355.172 178.3 342.832 180 330.062C181.57 331.032 183.23 331.202 185 330.562C188.17 328.062 191.33 325.562 194.5 323.062C192.88 334.412 196.38 343.912 205 351.562C214.26 355.512 222.93 354.512 231 348.562C234.2 344.992 237.03 341.162 239.5 337.062C240.37 334.982 240.87 332.812 241 330.562C239.24 324.212 237.07 318.042 234.5 312.062C229.89 307.742 224.39 305.582 218 305.562C202.95 305.182 190.62 310.682 181 322.062C181.52 318.992 182.36 315.992 183.5 313.062C192.63 295.612 206.79 284.442 226 279.562C260.3 273.432 290.13 282.262 315.5 306.062C318.79 310.312 321.29 314.972 323 320.062Z" fill="#FDFBFB"/>
<path fill-rule="evenodd" clip-rule="evenodd" d="M180 330.061C179.78 327.281 180.11 324.611 181 322.061C190.62 310.681 202.95 305.181 218 305.561C224.39 305.581 229.89 307.741 234.5 312.061C237.07 318.041 239.24 324.211 241 330.561C240.87 332.811 240.37 334.981 239.5 337.061C237.03 341.161 234.2 344.991 231 348.561C222.93 354.511 214.26 355.511 205 351.561C196.38 343.911 192.88 334.411 194.5 323.061C191.33 325.561 188.17 328.061 185 330.561C183.23 331.201 181.57 331.031 180 330.061Z" fill="#050505"/>
<path fill-rule="evenodd" clip-rule="evenodd" d="M323 320.062C325.01 321.772 325.35 323.772 324 326.062C318.31 326.262 313.31 324.602 309 321.062C308.92 323.892 308.75 326.892 308.5 330.062C302.09 353.312 288.43 358.972 267.5 347.062C261.22 334.882 261.56 322.882 268.5 311.062C274.17 305.352 281 303.522 289 305.562C294.95 307.432 300.95 309.102 307 310.562C312.24 313.982 317.57 317.152 323 320.062Z" fill="#050404"/>
<path fill-rule="evenodd" clip-rule="evenodd" d="M276.999 311.062C281.929 310.502 284.599 312.662 284.999 317.562C285.639 326.762 281.639 330.262 272.999 328.062C269.019 324.662 268.189 320.662 270.499 316.062C272.929 314.672 275.099 313.002 276.999 311.062Z" fill="#F6F6F6"/>
<path fill-rule="evenodd" clip-rule="evenodd" d="M223 313.062C230.57 314.202 233.07 318.542 230.5 326.062C224.12 335.782 218.95 335.112 215 324.062C216.46 319.442 219.13 315.772 223 313.062Z" fill="#F4F4F4"/>
<path fill-rule="evenodd" clip-rule="evenodd" d="M349 386.062C347.99 384.052 346.99 382.052 346 380.062C347.49 376.412 349.49 373.072 352 370.062C355.81 364.812 360.15 359.972 365 355.562C361.72 349.132 357.39 343.632 352 339.062C349.65 336.352 348.98 333.352 350 330.062C351.69 328.872 353.36 329.042 355 330.562C361.29 335.642 366.79 341.472 371.5 348.062C372.96 350.932 373.29 353.932 372.5 357.062C366.64 363.622 361.14 370.452 356 377.562C363.03 379.572 366.53 384.072 366.5 391.062C359.98 392.242 354.14 390.572 349 386.062Z" fill="#090808"/>
<path fill-rule="evenodd" clip-rule="evenodd" d="M147 341.061C148.76 343.061 150.43 345.221 152 347.561C150.52 350.531 148.85 353.361 147 356.061C141.69 361.181 138.02 367.351 136 374.561C136.32 376.211 137.32 377.211 139 377.561C141.98 378.061 144.98 378.221 148 378.061C161.14 377.011 173.47 373.351 185 367.061C188.22 365.531 191.39 363.871 194.5 362.061C194.06 359.501 194.23 357.001 195 354.561C201.04 353.241 205.7 355.241 209 360.561C210.37 360.961 211.71 361.461 213 362.061C214.4 367.741 212.07 369.911 206 368.561C200.19 365.431 195.19 366.601 191 372.061C178.47 377.351 165.8 382.011 153 386.061C146.75 387.621 140.42 388.121 134 387.561C130.92 386.771 128.75 384.941 127.5 382.061C127.35 375.721 127.68 369.391 128.5 363.061C132.83 356.731 137.17 350.391 141.5 344.061C142.76 341.951 144.6 340.951 147 341.061Z" fill="#090707"/>
<path fill-rule="evenodd" clip-rule="evenodd" d="M352.001 339.062C357.391 343.632 361.721 349.132 365.001 355.562C360.151 359.972 355.811 364.812 352.001 370.062C351.711 359.542 351.711 349.212 352.001 339.062Z" fill="#F6F5F5"/>
<path fill-rule="evenodd" clip-rule="evenodd" d="M264.001 356.062C268.571 355.642 270.071 357.642 268.501 362.062C266.331 365.562 263.501 368.392 260.001 370.562C254.551 369.762 249.391 367.932 244.501 365.062C243.681 362.862 244.181 361.032 246.001 359.562C249.771 360.092 253.431 361.262 257.001 363.062C260.331 361.732 262.661 359.402 264.001 356.062Z" fill="#0C0C0C"/>
<path fill-rule="evenodd" clip-rule="evenodd" d="M147 356.062C146.74 363.452 147.07 370.782 148 378.062C144.98 378.222 141.98 378.062 139 377.562C137.32 377.212 136.32 376.212 136 374.562C138.02 367.352 141.69 361.182 147 356.062Z" fill="#F7F2F1"/>
<path fill-rule="evenodd" clip-rule="evenodd" d="M193 384.062C194.67 384.062 196.33 384.062 198 384.062C198.38 387.352 197.05 389.682 194 391.062C196.39 394.672 198.39 398.512 200 402.562C199.77 404.292 198.77 405.132 197 405.062C194.02 401.142 191.02 397.142 188 393.062C183.11 396.122 181.11 394.962 182 389.562C185.9 388.002 189.57 386.162 193 384.062Z" fill="#FCDFDF"/>
<path fill-rule="evenodd" clip-rule="evenodd" d="M304.999 386.062C306.889 385.862 308.389 386.522 309.499 388.062C310.769 390.992 312.439 393.662 314.499 396.062C316.569 393.912 318.909 393.582 321.499 395.062C321.999 398.402 320.499 400.062 316.999 400.062C317.699 403.132 318.699 406.132 319.999 409.062C318.709 411.132 317.049 411.462 314.999 410.062C311.749 403.242 308.249 396.572 304.499 390.062C303.919 388.632 304.089 387.302 304.999 386.062Z" fill="#FDE4E4"/>
<path fill-rule="evenodd" clip-rule="evenodd" d="M209 394.062C214.96 393.502 220.12 395.172 224.5 399.062C224.62 404.792 221.78 407.452 216 407.062C215.84 408.432 216.01 409.772 216.5 411.062C218.54 411.382 220.71 411.542 223 411.562C224.02 412.612 224.18 413.782 223.5 415.062C219.76 417.652 216.1 417.652 212.5 415.062C211.52 411.622 210.35 408.292 209 405.062C209.11 404.122 209.44 403.282 210 402.562C217.95 400.782 217.62 399.782 209 399.562C207.75 397.732 207.75 395.902 209 394.062Z" fill="#FCE1E0"/>
<path fill-rule="evenodd" clip-rule="evenodd" d="M230 397.062C233.85 397.052 235.69 399.052 235.5 403.062C236.42 408.052 236.75 413.052 236.5 418.062C235.17 419.392 233.83 419.392 232.5 418.062C231.7 411.812 230.53 405.642 229 399.562C229.24 398.662 229.58 397.822 230 397.062Z" fill="#FDE5E5"/>
<path fill-rule="evenodd" clip-rule="evenodd" d="M180.001 398.062C181.371 397.902 182.711 398.072 184.001 398.562C188.001 401.562 192.001 404.562 196.001 407.562C197.871 411.202 196.871 412.872 193.001 412.562C189.141 409.202 185.141 406.042 181.001 403.062C180.051 401.512 179.711 399.852 180.001 398.062Z" fill="#FCE0E0"/>
<path fill-rule="evenodd" clip-rule="evenodd" d="M247.001 399.061C251.271 398.761 255.431 399.101 259.501 400.061C261.271 403.601 260.771 406.941 258.001 410.061C254.091 410.621 253.421 412.121 256.001 414.561C257.681 414.951 259.351 414.791 261.001 414.061C264.961 415.721 264.961 417.561 261.001 419.561C254.001 421.711 250.001 419.211 249.001 412.061C245.821 412.381 244.651 411.051 245.501 408.061C248.571 406.701 251.741 405.531 255.001 404.561C252.021 404.061 249.021 403.901 246.001 404.061C245.871 402.271 246.201 400.601 247.001 399.061Z" fill="#FCE3E3"/>
<path fill-rule="evenodd" clip-rule="evenodd" d="M268 400.061C269.48 399.801 270.81 400.131 272 401.061C273.08 403.291 273.74 405.621 274 408.061C276.33 408.061 278.67 408.061 281 408.061C281.26 409.541 280.93 410.871 280 412.061C278.44 412.631 276.94 413.301 275.5 414.061C275.17 416.731 274.83 419.391 274.5 422.061C273.01 423.311 271.51 423.311 270 422.061C268.98 414.781 268.31 407.451 268 400.061Z" fill="#FCE2E1"/>
<path fill-rule="evenodd" clip-rule="evenodd" d="M286 393.062C288.63 393.662 291.29 394.162 294 394.562C296.67 396.232 296.67 397.892 294 399.562C296.4 399.752 298.73 400.252 301 401.062C301.93 403.052 302.09 405.052 301.5 407.062C303.43 408.662 305.6 409.832 308 410.562C309.02 411.612 309.18 412.782 308.5 414.062C306.77 415.142 304.94 415.302 303 414.562C301.83 413.482 300.5 412.642 299 412.062C297.18 413.372 295.52 414.872 294 416.562C290.41 417.172 289.25 415.672 290.5 412.062C291.67 410.392 292.83 408.732 294 407.062C291.47 406.352 288.97 405.682 286.5 405.062C285.36 401.192 286.86 399.362 291 399.562C288.94 399.252 286.94 398.752 285 398.062C283.82 396.092 284.15 394.432 286 393.062Z" fill="#FCE0E0"/>
<path fill-rule="evenodd" clip-rule="evenodd" d="M214.001 434.062C217.671 434.062 221.331 434.062 225.001 434.062C224.831 447.132 224.001 460.132 222.501 473.062C215.591 475.782 208.421 476.942 201.001 476.562C193.081 472.822 193.081 468.822 201.001 464.562C205.651 464.062 210.321 463.892 215.001 464.062C214.331 454.072 214.001 444.072 214.001 434.062Z" fill="#070505"/>
<path fill-rule="evenodd" clip-rule="evenodd" d="M294 436.062C293.83 443.402 294 450.732 294.5 458.062C294.69 460.142 295.19 462.142 296 464.062C300.61 462.952 305.28 462.782 310 463.562C312.63 466.762 312.3 469.762 309 472.562C303.25 475.172 297.25 476.172 291 475.562C289.14 474.002 287.64 472.172 286.5 470.062C285.4 459.052 284.23 448.052 283 437.062C286.65 436.622 290.32 436.282 294 436.062Z" fill="#070707"/>
</svg>
