<svg width="500" height="500" viewBox="0 0 500 500" fill="none" xmlns="http://www.w3.org/2000/svg">
<path fill-rule="evenodd" clip-rule="evenodd" d="M388.999 204.061C388.049 209.631 387.709 215.301 387.999 221.061C378.949 214.181 370.949 215.511 363.999 225.061C362.099 226.031 360.099 226.361 357.999 226.061C348.669 203.231 332.669 186.731 309.999 176.561C294.769 173.001 279.769 168.671 264.999 163.561C250.659 162.991 236.319 163.151 221.999 164.061C220.819 164.281 219.819 163.951 218.999 163.061C226.459 153.161 234.629 143.831 243.499 135.061C245.149 130.421 243.649 127.751 238.999 127.061C235.459 127.491 232.459 128.991 229.999 131.561C225.499 136.061 220.999 140.561 216.499 145.061C212.739 150.551 210.739 156.551 210.499 163.061C211.219 163.601 211.719 164.271 211.999 165.061C199.889 166.411 188.219 169.411 176.999 174.061C175.969 173.661 175.809 173.001 176.499 172.061C185.339 161.711 195.509 153.041 206.999 146.061C209.159 140.701 207.319 137.701 201.499 137.061C197.069 137.691 193.239 139.531 189.999 142.561C182.139 151.421 173.979 159.921 165.499 168.061C164.919 171.761 165.089 175.431 165.999 179.061C145.099 190.461 128.599 206.461 116.499 227.061C114.099 232.921 112.099 238.921 110.499 245.061C110.059 259.771 110.729 274.431 112.499 289.061C114.749 302.391 121.249 313.231 131.999 321.561C153.539 335.871 177.209 344.871 202.999 348.561C254.289 356.241 300.959 345.241 342.999 315.561C352.199 306.681 359.029 296.181 363.499 284.061C365.449 278.221 366.279 272.221 365.999 266.061C368.199 265.971 370.359 265.641 372.499 265.061C379.559 269.501 386.059 268.841 391.999 263.061C393.589 267.241 395.919 270.901 398.999 274.061C393.629 277.601 387.629 278.931 380.999 278.061C378.859 285.301 376.029 292.301 372.499 299.061C367.409 306.901 362.079 314.571 356.499 322.061C355.799 333.651 353.799 344.981 350.499 356.061C341.859 370.831 330.019 373.991 314.999 365.561C312.819 363.211 310.479 361.041 307.999 359.061C299.079 362.881 289.739 364.711 279.999 364.561C264.039 369.491 247.699 371.821 230.999 371.561C205.969 396.691 183.469 394.521 163.499 365.061C161.719 361.841 160.219 358.511 158.999 355.061C145.489 349.151 133.159 341.481 121.999 332.061C114.859 337.371 107.859 342.871 100.999 348.561C88.259 355.051 75.919 354.391 63.999 346.561C61.209 343.481 59.039 339.981 57.499 336.061C53.389 314.721 57.219 295.051 68.999 277.061C52.139 269.371 39.309 257.371 30.499 241.061C29.999 219.041 40.839 208.201 62.999 208.561C78.939 211.651 93.779 217.481 107.499 226.061C111.339 217.031 116.679 209.031 123.499 202.061C123.519 195.691 125.519 190.031 129.499 185.061C149.309 160.911 172.479 140.741 198.999 124.561C224.219 112.311 250.549 108.651 277.999 113.561C283.049 117.271 286.549 122.111 288.499 128.061C290.879 136.951 292.709 145.951 293.999 155.061C305.879 156.961 316.879 161.131 326.999 167.561C342.179 179.321 357.179 191.321 371.999 203.561C377.619 202.841 383.289 203.011 388.999 204.061Z" fill="#D5D5D5"/>
<path fill-rule="evenodd" clip-rule="evenodd" d="M222 164.062C218.88 165.042 215.54 165.372 212 165.062C211.72 164.272 211.22 163.602 210.5 163.062C210.74 156.552 212.74 150.552 216.5 145.062C221 140.562 225.5 136.062 230 131.562C232.46 128.992 235.46 127.492 239 127.062C243.65 127.752 245.15 130.422 243.5 135.062C234.63 143.832 226.46 153.162 219 163.062C219.82 163.952 220.82 164.282 222 164.062Z" fill="#BCBCBC"/>
<path fill-rule="evenodd" clip-rule="evenodd" d="M176.999 174.062C173.519 175.972 169.849 177.632 165.999 179.062C165.089 175.432 164.919 171.762 165.499 168.062C173.979 159.922 182.139 151.422 189.999 142.562C193.239 139.532 197.069 137.692 201.499 137.062C207.319 137.702 209.159 140.702 206.999 146.062C195.509 153.042 185.339 161.712 176.499 172.062C175.809 173.002 175.969 173.662 176.999 174.062Z" fill="#BCBCBC"/>
<path fill-rule="evenodd" clip-rule="evenodd" d="M399 274.062C395.92 270.902 393.59 267.242 392 263.062C388.69 249.282 387.36 235.282 388 221.062C387.71 215.302 388.05 209.632 389 204.062C391.15 201.812 393.82 200.312 397 199.562C415.2 199.252 433.37 198.422 451.5 197.062C457.26 199.542 460.92 203.882 462.5 210.062C466.96 222.692 468.96 235.692 468.5 249.062C467.68 253.222 465.51 256.392 462 258.562C445.19 263.142 428.52 268.142 412 273.562C407.6 274.492 403.27 274.662 399 274.062Z" fill="#CA2827"/>
<path fill-rule="evenodd" clip-rule="evenodd" d="M439 206.062C439.54 206.122 439.88 206.452 440 207.062C435.23 220.042 435.39 233.042 440.5 246.062C441.94 249.162 443.77 252.002 446 254.562C432.47 258.242 418.97 262.072 405.5 266.062C403.84 265.882 402.51 265.222 401.5 264.062C399.66 258.862 398.33 253.522 397.5 248.062C396.45 234.212 396.95 220.542 399 207.062C412.51 207.392 425.84 207.062 439 206.062Z" fill="#F34235"/>
<path fill-rule="evenodd" clip-rule="evenodd" d="M449.999 206.062C452.279 208.332 454.109 210.992 455.499 214.062C457.979 224.112 459.809 234.282 460.999 244.562C459.659 252.112 456.159 252.952 450.499 247.062C443.469 233.362 443.299 219.702 449.999 206.062Z" fill="#F34235"/>
<path fill-rule="evenodd" clip-rule="evenodd" d="M388 221.062C387.36 235.282 388.69 249.282 392 263.062C386.06 268.842 379.56 269.502 372.5 265.062C370.36 265.642 368.2 265.972 366 266.062C366.28 272.222 365.45 278.222 363.5 284.062C359.03 296.182 352.2 306.682 343 315.562C300.96 345.242 254.29 356.242 203 348.562C177.21 344.872 153.54 335.872 132 321.562C121.25 313.232 114.75 302.392 112.5 289.062C110.73 274.432 110.06 259.772 110.5 245.062C112.1 238.922 114.1 232.922 116.5 227.062C128.6 206.462 145.1 190.462 166 179.062C169.85 177.632 173.52 175.972 177 174.062C188.22 169.412 199.89 166.412 212 165.062C215.54 165.372 218.88 165.042 222 164.062C236.32 163.152 250.66 162.992 265 163.562C279.77 168.672 294.77 173.002 310 176.562C332.67 186.732 348.67 203.232 358 226.062C360.1 226.362 362.1 226.032 364 225.062C370.95 215.512 378.95 214.182 388 221.062Z" fill="#6E5142"/>
<path fill-rule="evenodd" clip-rule="evenodd" d="M262 190.061C265.11 189.821 268.11 190.161 271 191.061C269.76 194.071 269.93 197.071 271.5 200.061C275.66 203.221 279.49 206.721 283 210.561C287.13 211.411 291.13 211.081 295 209.561C296.91 205.911 299.41 202.741 302.5 200.061C316.35 203.571 328.52 210.071 339 219.561C347.38 237.011 348.22 254.841 341.5 273.061C333.57 280.571 327.9 289.571 324.5 300.061C315.08 308.821 304.58 315.991 293 321.561C290.5 322.391 288 323.231 285.5 324.061C284.38 322.491 282.88 321.491 281 321.061C277.55 323.331 274.22 325.831 271 328.561C265.33 329.091 259.66 329.591 254 330.061C254 327.061 254 324.061 254 321.061C263.31 315.251 270.81 307.581 276.5 298.061C278.16 295.231 279.33 292.231 280 289.061C280.62 288.951 281.12 288.621 281.5 288.061C284.97 297.001 289.47 305.331 295 313.061C298.31 314.811 299.98 313.811 300 310.061C295.02 299.081 290.85 287.751 287.5 276.061C285.96 267.631 285.12 259.131 285 250.561C285.5 241.361 286 232.201 286.5 223.061C282.78 220.081 280.45 221.081 279.5 226.061C278.95 232.271 278.11 238.431 277 244.561C278.25 250.881 278.25 257.051 277 263.061C266.38 246.241 251.04 236.741 231 234.561C213.99 231.711 197.32 233.041 181 238.561C166.21 245.511 156.21 256.681 151 272.061C149.33 275.071 148.66 278.401 149 282.061C148.57 288.571 149.4 294.901 151.5 301.061C154.74 307.131 158.9 312.461 164 317.061C155.21 313.281 146.88 308.621 139 303.061C133.07 288.291 129.9 272.961 129.5 257.061C133.94 248.481 139.11 240.481 145 233.061C149.55 238.681 155.55 240.851 163 239.561C184.86 227.101 208.19 218.271 233 213.061C243.05 214.921 252.71 213.751 262 209.561C267.2 203.091 267.2 196.591 262 190.061Z" fill="#4F2007"/>
<path fill-rule="evenodd" clip-rule="evenodd" d="M261 190.061C261.33 190.061 261.67 190.061 262 190.061C267.2 196.591 267.2 203.091 262 209.561C252.71 213.751 243.05 214.921 233 213.061C208.19 218.271 184.86 227.101 163 239.561C155.55 240.851 149.55 238.681 145 233.061C145 232.731 145 232.391 145 232.061C152.27 225.421 159.94 219.251 168 213.561C178.33 208.061 188.33 202.061 198 195.561C205.8 192.741 213.8 190.741 222 189.561C235.05 188.761 248.05 188.931 261 190.061Z" fill="#714C37"/>
<path fill-rule="evenodd" clip-rule="evenodd" d="M271 191.062C273.34 185.562 277.5 182.562 283.5 182.062C288.51 183.482 293.34 185.322 298 187.562C301.86 190.112 303.36 193.612 302.5 198.062C301.94 198.582 301.27 198.922 300.5 199.062C290.86 195.662 281.03 192.992 271 191.062Z" fill="#897366"/>
<path fill-rule="evenodd" clip-rule="evenodd" d="M260.999 190.061C248.049 188.931 235.049 188.761 221.999 189.561C213.799 190.741 205.799 192.741 197.999 195.561C188.329 202.061 178.329 208.061 167.999 213.561C159.939 219.251 152.269 225.421 144.999 232.061C143.869 229.591 143.699 226.931 144.499 224.061C146.889 219.011 150.059 214.511 153.999 210.561C160.629 205.601 166.959 200.271 172.999 194.561C180.509 190.301 188.179 186.301 195.999 182.561C212.759 177.891 229.759 176.891 246.999 179.561C251.879 182.831 256.549 186.331 260.999 190.061Z" fill="#8A7367"/>
<path fill-rule="evenodd" clip-rule="evenodd" d="M280 289.062C281.07 283.782 281.23 278.452 280.5 273.062C280.12 272.502 279.62 272.172 279 272.062C280.33 270.732 280.33 269.392 279 268.062C278.61 266.282 277.94 264.612 277 263.062C278.25 257.052 278.25 250.882 277 244.562C278.11 238.432 278.95 232.272 279.5 226.062C280.45 221.082 282.78 220.082 286.5 223.062C286 232.202 285.5 241.362 285 250.562C285.12 259.132 285.96 267.632 287.5 276.062C290.85 287.752 295.02 299.082 300 310.062C299.98 313.812 298.31 314.812 295 313.062C289.47 305.332 284.97 297.002 281.5 288.062C281.12 288.622 280.62 288.952 280 289.062Z" fill="#704B35"/>
<path fill-rule="evenodd" clip-rule="evenodd" d="M316 224.062C335.33 225.082 343.49 235.082 340.5 254.062C333.76 265.642 323.92 269.802 311 266.562C302.65 262.352 298.65 255.522 299 246.062C298.73 239.432 301.06 233.932 306 229.562C309.27 227.432 312.6 225.602 316 224.062Z" fill="#704A35"/>
<path fill-rule="evenodd" clip-rule="evenodd" d="M62 227.062C74.39 226.302 86.06 228.802 97 234.562C100.87 236.722 102.37 239.892 101.5 244.062C100.72 245.782 99.39 246.782 97.5 247.062C91.53 246.112 85.7 244.612 80 242.562C73.99 242.032 67.99 241.362 62 240.562C54 235.812 54 231.312 62 227.062Z" fill="#BCBCBC"/>
<path fill-rule="evenodd" clip-rule="evenodd" d="M314.001 232.061C321.731 231.941 328.231 234.611 333.501 240.061C337.301 250.141 333.961 256.471 323.501 259.061C306.511 255.261 303.341 246.261 314.001 232.061Z" fill="#54260F"/>
<path fill-rule="evenodd" clip-rule="evenodd" d="M276.999 263.061C277.939 264.611 278.609 266.281 278.999 268.061C273.539 265.491 268.199 262.661 262.999 259.561C257.689 258.241 252.349 256.911 246.999 255.561C231.589 254.131 223.919 261.301 223.999 277.061C224.779 295.301 234.109 302.131 251.999 297.561C254.249 296.181 256.419 294.681 258.499 293.061C263.119 285.561 265.449 277.561 265.499 269.061C269.679 272.191 274.179 273.191 278.999 272.061C279.619 272.171 280.119 272.501 280.499 273.061C281.229 278.451 281.069 283.781 279.999 289.061C279.329 292.231 278.159 295.231 276.499 298.061C270.809 307.581 263.309 315.251 253.999 321.061C247.069 324.461 239.739 326.631 231.999 327.561C214.849 328.861 197.849 327.861 180.999 324.561C175.049 322.581 169.379 320.081 163.999 317.061C158.899 312.461 154.739 307.131 151.499 301.061C149.399 294.901 148.569 288.571 148.999 282.061C151.039 283.341 153.039 283.171 154.999 281.561C157.169 279.391 159.329 277.231 161.499 275.061C159.529 289.901 165.699 299.241 179.999 303.061C195.439 301.131 203.269 292.461 203.499 277.061C200.959 272.891 198.959 268.561 197.499 264.061C195.549 261.671 193.049 260.171 189.999 259.561C174.789 256.831 161.789 261.001 150.999 272.061C156.209 256.681 166.209 245.511 180.999 238.561C197.319 233.041 213.989 231.711 230.999 234.561C251.039 236.741 266.379 246.241 276.999 263.061Z" fill="#FCFBFB"/>
<path fill-rule="evenodd" clip-rule="evenodd" d="M278.999 268.062C280.329 269.392 280.329 270.732 278.999 272.062C274.179 273.192 269.679 272.192 265.499 269.062C265.449 277.562 263.119 285.562 258.499 293.062C256.419 294.682 254.249 296.182 251.999 297.562C234.109 302.132 224.779 295.302 223.999 277.062C223.919 261.302 231.589 254.132 246.999 255.562C252.349 256.912 257.689 258.242 262.999 259.562C268.199 262.662 273.539 265.492 278.999 268.062Z" fill="#060606"/>
<path fill-rule="evenodd" clip-rule="evenodd" d="M149 282.062C148.66 278.402 149.33 275.072 151 272.062C161.79 261.002 174.79 256.832 190 259.562C193.05 260.172 195.55 261.672 197.5 264.062C198.96 268.562 200.96 272.892 203.5 277.062C203.27 292.462 195.44 301.132 180 303.062C165.7 299.242 159.53 289.902 161.5 275.062C159.33 277.232 157.17 279.392 155 281.562C153.04 283.172 151.04 283.342 149 282.062Z" fill="#050505"/>
<path fill-rule="evenodd" clip-rule="evenodd" d="M236 261.061C242.53 260.801 244.7 263.801 242.5 270.061C242.37 276.511 239.2 278.681 233 276.561C227.13 270.051 228.13 264.891 236 261.061Z" fill="#F8F8F8"/>
<path fill-rule="evenodd" clip-rule="evenodd" d="M186.999 265.062C191.949 265.342 194.609 268.012 194.999 273.062C194.689 278.372 192.029 281.702 186.999 283.062C180.369 279.592 179.199 274.592 183.499 268.062C184.649 266.922 185.809 265.922 186.999 265.062Z" fill="#F5F5F5"/>
<path fill-rule="evenodd" clip-rule="evenodd" d="M226 302.062C228.41 301.802 230.08 302.802 231 305.062C229.24 310.302 225.91 313.972 221 316.062C216.65 314.802 212.49 313.142 208.5 311.062C207.34 307.992 208.34 306.332 211.5 306.062C214.88 307.682 218.38 308.512 222 308.562C223.22 306.282 224.55 304.122 226 302.062Z" fill="#0D0D0D"/>
<path fill-rule="evenodd" clip-rule="evenodd" d="M171 344.062C174.64 344.712 177.97 346.212 181 348.562C184.63 353.192 188.63 357.532 193 361.562C194.67 362.232 196.33 362.232 198 361.562C200.86 360.162 203.86 359.162 207 358.562C209.28 356.602 211.78 355.102 214.5 354.062C218.55 354.772 220.22 357.102 219.5 361.062C212.81 367.692 204.64 371.362 195 372.062C192.58 371.972 190.24 371.472 188 370.562C181.86 364.082 175.36 357.922 168.5 352.062C167.52 348.742 168.36 346.082 171 344.062Z" fill="#BCBCBC"/>
</svg>
