<svg width="500" height="500" viewBox="0 0 500 500" fill="none" xmlns="http://www.w3.org/2000/svg">
<path fill-rule="evenodd" clip-rule="evenodd" d="M293.001 98.0617C285.141 99.6717 277.141 100.502 269.001 100.562C253.671 101.232 238.331 101.232 223.001 100.562C215.621 100.002 208.621 98.1717 202.001 95.0617C200.011 93.1017 198.511 90.7617 197.501 88.0617C194.011 75.2717 192.341 62.2717 192.501 49.0617C197.131 39.4817 204.631 33.3217 215.001 30.5617C235.101 24.3017 255.101 24.6417 275.001 31.5617C280.771 34.1917 285.941 37.6917 290.501 42.0617C295.151 55.5117 298.321 69.3517 300.001 83.5617C299.921 86.8017 299.421 89.9617 298.501 93.0617C297.451 95.6217 295.611 97.2817 293.001 98.0617Z" fill="#D13C30"/>
<path fill-rule="evenodd" clip-rule="evenodd" d="M236.001 32.0621C252.591 31.2121 267.921 35.0421 282.001 43.5621C283.071 44.3021 283.741 45.3021 284.001 46.5621C278.891 51.4521 272.891 54.7821 266.001 56.5621C247.231 60.1421 228.571 59.8021 210.001 55.5621C202.451 53.0421 201.121 48.7021 206.001 42.5621C215.391 36.9321 225.391 33.4321 236.001 32.0621Z" fill="#F34235"/>
<path fill-rule="evenodd" clip-rule="evenodd" d="M285 54.0613C286 54.0313 286.66 54.5313 287 55.5613C290.89 66.7613 292.72 78.2613 292.5 90.0613C289.02 92.1313 285.19 93.1313 281 93.0613C279.75 81.4113 279.75 69.7413 281 58.0613C282.69 57.0413 284.02 55.7113 285 54.0613Z" fill="#F24235"/>
<path fill-rule="evenodd" clip-rule="evenodd" d="M270 62.0615C271 62.0615 272 62.0615 273 62.0615C272.79 72.7515 273.12 83.4215 274 94.0615C270.67 94.0615 267.33 94.0615 264 94.0615C263.44 84.0715 263.11 74.0715 263 64.0615C265.57 63.8415 267.9 63.1715 270 62.0615Z" fill="#F34235"/>
<path fill-rule="evenodd" clip-rule="evenodd" d="M228 66.0615C232 66.0615 236 66.0615 240 66.0615C242.1 75.3115 243.77 84.6415 245 94.0615C241.67 94.0615 238.33 94.0615 235 94.0615C232.98 84.6515 230.65 75.3115 228 66.0615Z" fill="#F34235"/>
<path fill-rule="evenodd" clip-rule="evenodd" d="M202 95.0615C208.62 98.1715 215.62 100.002 223 100.562C238.33 101.232 253.67 101.232 269 100.562C277.14 100.502 285.14 99.6715 293 98.0615C294.23 99.2815 295.4 100.612 296.5 102.062C303.23 128.732 309.56 155.402 315.5 182.062C323.83 202.052 331.16 222.392 337.5 243.062C337.83 246.062 338.17 249.062 338.5 252.062C343.23 267.052 346.89 282.382 349.5 298.062C353.74 310.442 356.91 323.112 359 336.062C357.27 334.322 355.27 332.992 353 332.062C351.1 332.292 349.77 333.292 349 335.062C353.01 341.072 356.51 347.402 359.5 354.062C362.71 364.432 362.71 374.762 359.5 385.062C358.45 386.652 357.29 388.152 356 389.562C353.25 390.682 350.75 392.182 348.5 394.062C348.01 396.112 348.18 398.112 349 400.062C339.19 410.032 328.86 419.532 318 428.562C308.3 433.732 297.97 436.572 287 437.062C284.67 437.062 282.33 437.062 280 437.062C270.16 437.152 260.33 437.492 250.5 438.062C242.18 438.202 234.01 437.202 226 435.062C223.64 434.892 221.31 434.552 219 434.062C206.61 432.532 194.94 428.702 184 422.562C176.28 415.522 167.95 409.192 159 403.562C157.13 401.862 155.46 400.022 154 398.062C154.93 395.452 155.1 392.782 154.5 390.062C151.45 389.002 148.62 387.672 146 386.062C142.95 375.282 141.29 364.282 141 353.062C143.49 349.072 145.16 344.742 146 340.062C146.42 335.652 144.42 333.982 140 335.062C144.04 315.442 147.88 295.772 151.5 276.062C153.57 265.792 156.57 255.792 160.5 246.062C163.69 227.772 167.02 209.442 170.5 191.062C175.77 174.172 180.77 157.172 185.5 140.062C191.31 125.142 196.81 110.142 202 95.0615Z" fill="#FEEDB0"/>
<path fill-rule="evenodd" clip-rule="evenodd" d="M247 148.062C248.87 148.422 250.37 149.422 251.5 151.062C253 157.562 256.16 163.062 261 167.562C268.92 170.992 276.59 174.992 284 179.562C286.21 182.482 288.05 185.652 289.5 189.062C292.68 200.942 295.34 212.942 297.5 225.062C302.13 228.692 306.47 232.692 310.5 237.062C311.69 241.272 310.86 244.942 308 248.062C304 250.562 299.66 252.232 295 253.062C294.14 267.632 286.48 275.472 272 276.562C255.35 278.892 238.68 279.232 222 277.562C214.12 276.542 207.62 273.042 202.5 267.062C200.04 262.312 197.21 257.812 194 253.562C178.65 250.772 175.99 243.442 186 231.562C187.94 230.752 189.94 230.252 192 230.062C189.66 208.912 197 192.072 214 179.562C220.41 175.492 227.08 171.832 234 168.562C240.22 163.962 243.72 157.792 244.5 150.062C245.49 149.492 246.33 148.832 247 148.062Z" fill="#F54E3C"/>
<path fill-rule="evenodd" clip-rule="evenodd" d="M248.001 153.062C250.451 160.702 254.781 167.202 261.001 172.562C266.411 175.012 271.571 177.852 276.501 181.062C276.181 186.342 273.351 188.182 268.001 186.562C265.961 184.852 264.291 182.852 263.001 180.562C262.051 180.082 261.051 179.912 260.001 180.062C259.181 189.732 254.181 193.232 245.001 190.562C249.401 186.062 248.731 182.562 243.001 180.062C241.121 180.442 239.621 181.442 238.501 183.062C238.431 185.612 237.601 187.772 236.001 189.562C230.481 190.662 225.321 189.832 220.501 187.062C220.041 182.482 221.881 178.982 226.001 176.562C238.001 173.062 245.341 165.222 248.001 153.062Z" fill="#FEEBAE"/>
<path fill-rule="evenodd" clip-rule="evenodd" d="M281.001 183.062C283.551 185.142 285.381 187.802 286.501 191.062C289.351 202.632 291.681 214.292 293.501 226.062C297.481 230.372 301.811 234.372 306.501 238.062C307.441 240.912 306.941 243.412 305.001 245.562C300.721 247.172 296.551 249.002 292.501 251.062C291.521 258.372 288.351 264.542 283.001 269.562C279.541 271.302 275.881 272.302 272.001 272.562C255.021 274.982 238.021 275.312 221.001 273.562C216.281 272.362 211.941 270.362 208.001 267.562C204.051 261.282 199.721 255.282 195.001 249.562C191.011 249.672 187.511 248.502 184.501 246.062C183.561 242.772 184.061 239.772 186.001 237.062C188.871 234.882 192.041 233.212 195.501 232.062C192.941 212.212 199.441 196.212 215.001 184.062C216.551 189.122 219.891 192.282 225.001 193.562C230.341 194.442 235.501 193.942 240.501 192.062C246.491 197.092 252.661 197.262 259.001 192.562C260.991 191.242 262.151 189.412 262.501 187.062C268.241 192.322 273.911 192.322 279.501 187.062C279.911 185.662 280.411 184.332 281.001 183.062Z" fill="#FEEDAF"/>
<path fill-rule="evenodd" clip-rule="evenodd" d="M271 225.061C275.19 224.961 276.53 226.801 275 230.561C270.23 231.371 268.89 229.541 271 225.061Z" fill="#F55541"/>
<path fill-rule="evenodd" clip-rule="evenodd" d="M220 228.062C223.64 227.302 225.14 228.632 224.5 232.062C219.92 233.972 218.42 232.642 220 228.062Z" fill="#F44839"/>
<path fill-rule="evenodd" clip-rule="evenodd" d="M237.999 237.062C241.899 239.082 246.059 240.422 250.499 241.062C254.089 240.942 257.419 239.942 260.499 238.062C263.089 239.252 263.589 241.082 261.999 243.562C253.199 248.552 244.699 248.052 236.499 242.062C235.889 240.062 236.389 238.402 237.999 237.062Z" fill="#F44A3A"/>
<path fill-rule="evenodd" clip-rule="evenodd" d="M328 345.062C321.65 342.212 315.65 338.712 310 334.562C302.94 332.762 295.94 330.762 289 328.562C277.2 326.042 268.7 330.212 263.5 341.062C261.09 348.212 260.43 355.542 261.5 363.062C263.14 372.972 268.98 378.472 279 379.562C288.09 381.772 295.92 379.602 302.5 373.062C307.77 364.762 310.93 355.762 312 346.062C316.64 349.842 321.8 351.182 327.5 350.062C327.99 348.772 328.16 347.432 328 346.062C330.29 359.982 328.13 373.312 321.5 386.062C314.92 393.102 307.09 398.272 298 401.562C267.26 409.132 236.26 410.132 205 404.562C192.74 402.352 184.24 395.522 179.5 384.062C175.05 375.202 172.55 365.872 172 356.062C174.49 356.262 176.82 355.762 179 354.562C181.18 352.212 183.52 350.042 186 348.062C184.97 356.422 186.47 364.422 190.5 372.062C201.16 384.192 213 385.352 226 375.562C232.83 369.112 236.33 361.282 236.5 352.062C233.99 347.232 231.99 342.232 230.5 337.062C226.85 332.322 222.02 329.822 216 329.562C201.76 327.522 189.09 331.022 178 340.062C180.9 320.992 191.57 308.492 210 302.562C221.86 299.332 233.86 296.832 246 295.062C266.2 297.032 285.2 302.862 303 312.562C315.57 320.212 323.9 331.052 328 345.062Z" fill="#FDFDFC"/>
<path fill-rule="evenodd" clip-rule="evenodd" d="M172.001 356.061C171.381 355.951 170.881 355.621 170.501 355.061C169.831 353.061 169.831 351.061 170.501 349.061C172.861 345.871 175.361 342.871 178.001 340.061C189.091 331.021 201.761 327.521 216.001 329.561C222.021 329.821 226.851 332.321 230.501 337.061C231.991 342.231 233.991 347.231 236.501 352.061C236.331 361.281 232.831 369.111 226.001 375.561C213.001 385.351 201.161 384.191 190.501 372.061C186.471 364.421 184.971 356.421 186.001 348.061C183.521 350.041 181.181 352.211 179.001 354.561C176.821 355.761 174.491 356.261 172.001 356.061Z" fill="#050505"/>
<path fill-rule="evenodd" clip-rule="evenodd" d="M328 345.062C328 345.392 328 345.732 328 346.062C328.16 347.432 327.99 348.772 327.5 350.062C321.8 351.182 316.64 349.842 312 346.062C310.93 355.762 307.77 364.762 302.5 373.062C295.92 379.602 288.09 381.772 279 379.562C268.98 378.472 263.14 372.972 261.5 363.062C260.43 355.542 261.09 348.212 263.5 341.062C268.7 330.212 277.2 326.042 289 328.562C295.94 330.762 302.94 332.762 310 334.562C315.65 338.712 321.65 342.212 328 345.062Z" fill="#040404"/>
<path fill-rule="evenodd" clip-rule="evenodd" d="M359 336.062C374.56 356.012 374.89 376.342 360 397.062C362.34 400.062 363.18 403.392 362.5 407.062C356.88 407.352 352.38 405.022 349 400.062C348.18 398.112 348.01 396.112 348.5 394.062C350.75 392.182 353.25 390.682 356 389.562C357.29 388.152 358.45 386.652 359.5 385.062C362.71 374.762 362.71 364.432 359.5 354.062C356.51 347.402 353.01 341.072 349 335.062C349.77 333.292 351.1 332.292 353 332.062C355.27 332.992 357.27 334.322 359 336.062Z" fill="#0A0A09"/>
<path fill-rule="evenodd" clip-rule="evenodd" d="M140 335.061C144.42 333.981 146.42 335.651 146 340.061C145.16 344.741 143.49 349.071 141 353.061C136.21 359.161 134.71 366.161 136.5 374.061C139.15 378.531 142.32 382.531 146 386.061C148.62 387.671 151.45 389.001 154.5 390.061C155.1 392.781 154.93 395.451 154 398.061C151.86 400.361 149.53 402.531 147 404.561C141.64 407.451 139.14 405.951 139.5 400.061C141.52 398.211 143.35 396.211 145 394.061C130.69 386.661 125.52 375.001 129.5 359.061C131.95 350.521 135.45 342.521 140 335.061Z" fill="#090908"/>
<path fill-rule="evenodd" clip-rule="evenodd" d="M274.999 335.061C278.789 334.371 281.949 335.371 284.499 338.061C284.919 342.431 284.589 346.761 283.499 351.061C280.239 353.991 276.409 354.821 271.999 353.561C270.859 351.101 269.359 348.941 267.499 347.061C266.869 344.921 267.199 342.921 268.499 341.061C270.839 339.161 272.999 337.161 274.999 335.061Z" fill="#F4F4F4"/>
<path fill-rule="evenodd" clip-rule="evenodd" d="M217 337.062C222.81 337.202 226.15 340.202 227 346.062C226.48 352.822 222.98 356.822 216.5 358.062C211.81 356.702 209.31 353.532 209 348.562C210.33 343.732 212.99 339.892 217 337.062Z" fill="#F4F4F4"/>
<path fill-rule="evenodd" clip-rule="evenodd" d="M141 353.062C141.29 364.282 142.95 375.282 146 386.062C142.32 382.532 139.15 378.532 136.5 374.062C134.71 366.162 136.21 359.162 141 353.062Z" fill="#F7F7F4"/>
<path fill-rule="evenodd" clip-rule="evenodd" d="M263.001 383.062C265.851 382.912 267.521 384.252 268.001 387.062C265.961 391.292 263.301 395.122 260.001 398.562C257.331 399.232 254.671 399.232 252.001 398.562C247.851 396.752 244.021 394.592 240.501 392.062C239.841 389.212 241.011 387.542 244.001 387.062C247.191 387.732 250.191 388.902 253.001 390.562C254.331 391.232 255.671 391.232 257.001 390.562C258.831 387.902 260.831 385.402 263.001 383.062Z" fill="#0E0E0E"/>
<path fill-rule="evenodd" clip-rule="evenodd" d="M219.001 434.062C221.311 434.552 223.641 434.892 226.001 435.062C226.771 444.242 227.771 453.402 229.001 462.562C228.631 465.422 228.131 468.252 227.501 471.062C220.961 474.742 214.131 475.582 207.001 473.562C204.331 471.562 204.331 469.562 207.001 467.562C211.671 467.022 216.341 466.522 221.001 466.062C219.981 455.432 219.321 444.762 219.001 434.062Z" fill="#0B0B0B"/>
<path fill-rule="evenodd" clip-rule="evenodd" d="M279.999 437.062C282.329 437.062 284.669 437.062 286.999 437.062C287.319 444.922 288.649 452.592 290.999 460.062C295.349 458.812 299.689 458.982 303.999 460.562C307.339 462.552 307.669 464.882 304.999 467.562C300.029 468.582 295.029 469.412 289.999 470.062C287.639 469.462 285.479 468.462 283.499 467.062C280.699 457.252 279.529 447.252 279.999 437.062Z" fill="#090909"/>
</svg>
