<svg width="500" height="500" viewBox="0 0 500 500" fill="none" xmlns="http://www.w3.org/2000/svg">
<path fill-rule="evenodd" clip-rule="evenodd" d="M289 142.061C285.56 140.511 282.23 138.671 279 136.561C273.94 135.611 268.94 134.441 264 133.061C269.05 126.411 270.55 119.081 268.5 111.061C265.79 107.531 262.29 106.361 258 107.561C250.07 110.501 243.57 115.331 238.5 122.061C234.03 116.591 229.2 111.431 224 106.561C217.43 103.211 210.76 100.381 204 98.061C204.5 80.081 213.17 68.251 230 62.561C275.69 59.091 295.69 80.251 290 126.061C289.92 131.431 289.59 136.761 289 142.061Z" fill="#FEE93B"/>
<path fill-rule="evenodd" clip-rule="evenodd" d="M204 98.061C210.76 100.381 217.43 103.211 224 106.561C229.2 111.431 234.03 116.591 238.5 122.061C243.57 115.331 250.07 110.501 258 107.561C262.29 106.361 265.79 107.531 268.5 111.061C270.55 119.081 269.05 126.411 264 133.061C268.94 134.441 273.94 135.611 279 136.561C282.23 138.671 285.56 140.511 289 142.061C289.33 143.061 290 143.731 291 144.061C296.81 147.471 302.81 150.641 309 153.561C312.68 157.021 317.02 159.351 322 160.561C327.54 164.161 332.87 167.991 338 172.061C353.21 187.821 362.55 206.491 366 228.061C365.49 230.951 366.16 233.281 368 235.061C353.53 238.711 345.03 248.041 342.5 263.061C342.17 274.061 341.83 285.061 341.5 296.061C340.27 306.721 339.1 317.391 338 328.061C338.07 336.141 339.73 343.811 343 351.061C332.44 359.511 320.77 366.181 308 371.061C302.98 372.401 297.98 373.731 293 375.061C265.84 381.721 238.5 382.381 211 377.061C205.34 374.941 199.67 372.611 194 370.061C180.54 365.841 168.87 358.841 159 349.061C162.09 342.941 163.43 336.441 163 329.561C161.51 305.391 160.01 281.221 158.5 257.061C157.44 250.341 154.27 244.841 149 240.561C143.61 236.621 137.94 233.451 132 231.061C133 231.061 134 231.061 135 231.061C135 230.061 135 229.061 135 228.061C139.24 218.091 142.41 207.761 144.5 197.061C147.43 189.521 151.59 182.861 157 177.061C168.58 161.431 183.58 150.431 202 144.061C202.67 143.731 203.33 143.391 204 143.061C208.75 142.041 213.42 140.711 218 139.061C213.01 134.401 208.01 129.731 203 125.061C199.2 119.831 196.87 114.001 196 107.561C195.63 101.771 198.3 98.601 204 98.061Z" fill="#B45D1E"/>
<path fill-rule="evenodd" clip-rule="evenodd" d="M202 144.061C183.58 150.431 168.58 161.431 157 177.061C147.91 170.631 138.58 164.631 129 159.061C122.35 149.421 119.52 138.751 120.5 127.061C122.13 119.431 126.63 114.261 134 111.561C146.77 107.511 159.1 108.511 171 114.561C183.47 122.201 193.81 132.041 202 144.061Z" fill="#FEEA3A"/>
<path fill-rule="evenodd" clip-rule="evenodd" d="M366 159.061C362.9 161.601 359.23 163.101 355 163.561C349.23 166.311 343.56 169.141 338 172.061C332.87 167.991 327.54 164.161 322 160.561C317.02 159.351 312.68 157.021 309 153.561C302.81 150.641 296.81 147.471 291 144.061C294.44 138.791 298.77 134.291 304 130.561C315.02 123.551 326.69 117.881 339 113.561C364.68 111.241 374.84 122.741 369.5 148.061C368.22 151.731 367.06 155.391 366 159.061Z" fill="#FEEA3A"/>
<path fill-rule="evenodd" clip-rule="evenodd" d="M203 125.061C208.01 129.731 213.01 134.401 218 139.061C213.42 140.711 208.75 142.041 204 143.061C203.91 137.041 203.57 131.041 203 125.061Z" fill="#FBE53A"/>
<path fill-rule="evenodd" clip-rule="evenodd" d="M224 150.061C229.52 150.121 231.36 152.791 229.5 158.061C226.5 162.471 222.66 163.641 218 161.561C216.91 159.501 216.74 157.331 217.5 155.061C219.83 153.491 221.99 151.831 224 150.061Z" fill="#090301"/>
<path fill-rule="evenodd" clip-rule="evenodd" d="M129 159.061C138.58 164.631 147.91 170.631 157 177.061C151.59 182.861 147.43 189.521 144.5 197.061C142.41 207.761 139.24 218.091 135 228.061C124.67 225.961 114.33 223.791 104 221.561C97.3399 221.061 90.6699 220.891 83.9999 221.061C70.7299 212.561 61.2299 200.901 55.4999 186.061C54.2999 175.581 58.1299 167.411 66.9999 161.561C87.2299 149.921 107.9 149.091 129 159.061Z" fill="#FEC007"/>
<path fill-rule="evenodd" clip-rule="evenodd" d="M263 151.061C270.34 150.771 272.34 153.771 269 160.061C261.81 164.001 258.31 162.001 258.5 154.061C259.91 152.781 261.41 151.781 263 151.061Z" fill="#0B0401"/>
<path fill-rule="evenodd" clip-rule="evenodd" d="M416 211.061C398.73 215.151 382.07 220.821 366 228.061C362.55 206.491 353.21 187.821 338 172.061C343.56 169.141 349.23 166.311 355 163.561C359.23 163.101 362.9 161.601 366 159.061C366.42 159.681 367.08 160.021 368 160.061C372.74 158.711 377.57 158.041 382.5 158.061C391.24 159.781 400.07 160.951 409 161.561C430.98 167.131 436.48 179.961 425.5 200.061C422.5 203.891 419.33 207.561 416 211.061Z" fill="#FEC007"/>
<path fill-rule="evenodd" clip-rule="evenodd" d="M280 160.061C284.85 159.931 289.52 160.761 294 162.561C297.54 170.861 294.71 175.031 285.5 175.061C279.83 175.231 276.33 172.561 275 167.061C275.56 163.851 277.23 161.511 280 160.061Z" fill="#C65523"/>
<path fill-rule="evenodd" clip-rule="evenodd" d="M263.001 177.061C260.031 182.351 256.371 187.021 252.001 191.061C249.181 191.311 246.511 190.811 244.001 189.561C241.241 186.131 237.911 183.471 234.001 181.561C230.941 176.901 231.941 173.241 237.001 170.561C244.181 168.291 251.511 167.621 259.001 168.561C262.341 170.411 263.671 173.241 263.001 177.061Z" fill="#FCE639"/>
<path fill-rule="evenodd" clip-rule="evenodd" d="M262.999 177.061C276.669 183.551 278.499 192.551 268.499 204.061C264.899 208.281 260.399 209.781 254.999 208.561C253.799 207.661 252.969 206.491 252.499 205.061C251.999 200.411 251.829 195.741 251.999 191.061C256.369 187.021 260.029 182.351 262.999 177.061Z" fill="#C3390A"/>
<path fill-rule="evenodd" clip-rule="evenodd" d="M415.999 211.061C427.589 210.651 435.919 215.651 440.999 226.061C455.229 235.631 456.729 246.971 445.499 260.061C438.629 267.451 430.789 273.451 421.999 278.061C413.959 274.711 405.619 272.381 396.999 271.061C397.689 260.301 394.859 250.631 388.499 242.061C382.749 236.641 375.909 234.311 367.999 235.061C366.159 233.281 365.489 230.951 365.999 228.061C382.069 220.821 398.729 215.151 415.999 211.061Z" fill="#FE6D04"/>
<path fill-rule="evenodd" clip-rule="evenodd" d="M83.9995 221.061C90.6695 220.891 97.3395 221.061 103.999 221.561C114.329 223.791 124.669 225.961 134.999 228.061C134.999 229.061 134.999 230.061 134.999 231.061C133.999 231.061 132.999 231.061 131.999 231.061C123.489 228.401 116.649 230.731 111.499 238.061C105.519 249.301 102.689 261.301 102.999 274.061C94.2195 274.751 85.5595 276.081 76.9995 278.061C70.7595 274.601 64.4295 271.101 57.9995 267.561C45.5095 258.191 43.6695 247.021 52.4995 234.061C61.5095 226.311 72.0095 221.981 83.9995 221.061Z" fill="#FE6D04"/>
<path fill-rule="evenodd" clip-rule="evenodd" d="M337 275.061C331.52 271.821 326.19 268.321 321 264.561C313.23 262.511 305.57 260.171 298 257.561C288.51 255.221 280.35 257.381 273.5 264.061C264.71 277.161 263.71 290.831 270.5 305.061C279.5 313.171 290 316.001 302 313.561C306.44 311.121 310.27 307.951 313.5 304.061C315.83 298.731 318.17 293.391 320.5 288.061C320.83 284.061 321.17 280.061 321.5 276.061C325.79 279.861 330.79 282.191 336.5 283.061C337.4 282.821 338.24 282.481 339 282.061C339.3 301.641 332.3 318.141 318 331.561C306.55 339.151 293.88 343.151 280 343.561C253.89 346.091 227.89 345.421 202 341.561C195.37 338.921 188.71 336.251 182 333.561C174.58 327.811 170.08 320.311 168.5 311.061C167.33 303.561 166.17 296.061 165 288.561C166.09 279.551 169.26 271.391 174.5 264.061C182.04 254.861 190.54 246.691 200 239.561C225.48 227.911 252.15 223.911 280 227.561C283.09 228.271 286.09 229.271 289 230.561C299.67 236.891 310.33 243.231 321 249.561C329.44 256.161 334.78 264.661 337 275.061Z" fill="#FCFCFB"/>
<path fill-rule="evenodd" clip-rule="evenodd" d="M131.999 231.061C137.939 233.451 143.609 236.621 148.999 240.561C154.269 244.841 157.439 250.341 158.499 257.061C160.009 281.221 161.509 305.391 162.999 329.561C163.429 336.441 162.089 342.941 158.999 349.061C148.709 358.391 138.369 358.391 127.999 349.061C116.439 331.221 108.269 311.881 103.499 291.061C102.999 285.401 102.829 279.741 102.999 274.061C102.689 261.301 105.519 249.301 111.499 238.061C116.649 230.731 123.489 228.401 131.999 231.061Z" fill="#843C24"/>
<path fill-rule="evenodd" clip-rule="evenodd" d="M368 235.061C375.91 234.311 382.75 236.641 388.5 242.061C394.86 250.631 397.69 260.301 397 271.061C396.79 281.911 395.29 292.581 392.5 303.061C388.53 315.831 383.69 328.161 378 340.061C372.68 345.821 367.01 351.321 361 356.561C353.62 359.051 347.62 357.221 343 351.061C339.73 343.811 338.07 336.141 338 328.061C339.1 317.391 340.27 306.721 341.5 296.061C341.83 285.061 342.17 274.061 342.5 263.061C345.03 248.041 353.53 238.711 368 235.061Z" fill="#843C24"/>
<path fill-rule="evenodd" clip-rule="evenodd" d="M201 257.061C210.72 256.441 220.06 257.941 229 261.561C230.17 262.731 231.33 263.891 232.5 265.061C234.52 270.791 236.86 276.451 239.5 282.061C239.63 296.911 232.79 307.411 219 313.561C206.92 317.251 197.09 314.081 189.5 304.061C187.16 298.551 185.33 292.891 184 287.061C184.84 283.711 185.34 280.381 185.5 277.061C181.91 282.001 177.24 285.341 171.5 287.061C170.39 286.971 169.39 286.641 168.5 286.061C167.68 282.601 168.02 279.261 169.5 276.061C178.13 266.501 188.63 260.171 201 257.061Z" fill="#040404"/>
<path fill-rule="evenodd" clip-rule="evenodd" d="M336.999 275.061C339.989 276.701 340.659 279.041 338.999 282.061C338.239 282.481 337.399 282.821 336.499 283.061C330.789 282.191 325.789 279.861 321.499 276.061C321.169 280.061 320.829 284.061 320.499 288.061C318.169 293.391 315.829 298.731 313.499 304.061C310.269 307.951 306.439 311.121 301.999 313.561C289.999 316.001 279.499 313.171 270.499 305.061C263.709 290.831 264.709 277.161 273.499 264.061C280.349 257.381 288.509 255.221 297.999 257.561C305.569 260.171 313.229 262.511 320.999 264.561C326.189 268.321 331.519 271.821 336.999 275.061Z" fill="#040404"/>
<path fill-rule="evenodd" clip-rule="evenodd" d="M284 264.061C289.32 263.891 292.32 266.391 293 271.561C291.79 275.291 290.96 279.121 290.5 283.061C286.46 286.681 282.12 287.011 277.5 284.061C275.83 281.411 274.67 278.571 274 275.561C274.04 273.591 274.54 271.761 275.5 270.061C278.49 268.161 281.32 266.161 284 264.061Z" fill="#F5F5F5"/>
<path fill-rule="evenodd" clip-rule="evenodd" d="M218 267.061C224.97 266.031 228.64 269.031 229 276.061C228.81 285.421 224.14 289.591 215 288.561C207.78 280.341 208.78 273.181 218 267.061Z" fill="#F7F7F7"/>
<path fill-rule="evenodd" clip-rule="evenodd" d="M397 271.061C405.62 272.381 413.96 274.711 422 278.061C430.64 283.201 437.48 290.201 442.5 299.061C445.93 311.681 442.43 321.851 432 329.561C426.89 332.451 421.56 334.781 416 336.561C403.34 337.871 390.67 339.041 378 340.061C383.69 328.161 388.53 315.831 392.5 303.061C395.29 292.581 396.79 281.911 397 271.061Z" fill="#B91614"/>
<path fill-rule="evenodd" clip-rule="evenodd" d="M103 274.061C102.83 279.741 103 285.401 103.5 291.061C108.27 311.881 116.44 331.221 128 349.061C114.97 350.501 101.97 350.341 88.9999 348.561C58.4499 340.301 48.2899 321.141 58.4999 291.061C63.1899 284.521 69.3599 280.191 76.9999 278.061C85.5599 276.081 94.2199 274.751 103 274.061Z" fill="#B91514"/>
<path fill-rule="evenodd" clip-rule="evenodd" d="M268 317.061C271.36 316.431 273.36 317.771 274 321.061C272.05 326.521 268.72 331.021 264 334.561C261.79 335.191 259.62 335.021 257.5 334.061C253.11 332.031 248.78 330.031 244.5 328.061C243.76 326.121 243.92 324.291 245 322.561C249.78 321.531 254.11 322.531 258 325.561C259.33 326.231 260.67 326.231 262 325.561C264.22 322.851 266.22 320.011 268 317.061Z" fill="#0B0B0B"/>
<path fill-rule="evenodd" clip-rule="evenodd" d="M194 370.061C199.67 372.611 205.34 374.941 211 377.061C208.93 385.971 209.93 394.471 214 402.561C220.58 404.761 225.41 408.921 228.5 415.061C229.63 419.761 227.8 422.431 223 423.061C219.8 422.791 217.13 421.461 215 419.061C214.3 423.431 213.46 427.761 212.5 432.061C210.73 434.331 208.57 436.001 206 437.061C204.12 436.681 202.62 435.681 201.5 434.061C201.17 429.391 200.83 424.731 200.5 420.061C196.71 427.201 190.87 430.361 183 429.561C180.58 427.561 179.74 425.061 180.5 422.061C184.37 415.181 189.37 409.181 195.5 404.061C195.27 392.741 194.77 381.411 194 370.061Z" fill="#FE5822"/>
<path fill-rule="evenodd" clip-rule="evenodd" d="M308 371.061C309.82 380.361 312.16 389.531 315 398.561C319.48 401.301 323.81 404.301 328 407.561C330.63 410.351 332.63 413.521 334 417.061C332.63 421.641 329.63 423.141 325 421.561C323.1 419.151 320.76 417.321 318 416.061C317.78 420.661 317.61 425.321 317.5 430.061C316.42 434.681 313.59 436.181 309 434.561C304.62 429.661 302.79 423.831 303.5 417.061C299.26 420.601 294.76 423.761 290 426.561C283.27 426.471 281.44 423.301 284.5 417.061C288.29 413.151 292.29 409.491 296.5 406.061C296.67 405.391 296.83 404.731 297 404.061C295.63 394.391 294.3 384.721 293 375.061C297.98 373.731 302.98 372.401 308 371.061Z" fill="#FE5822"/>
</svg>
