<svg width="500" height="500" viewBox="0 0 500 500" fill="none" xmlns="http://www.w3.org/2000/svg">
<path fill-rule="evenodd" clip-rule="evenodd" d="M315 378.062C311.67 378.062 308.33 378.062 305 378.062C300.85 375.822 296.52 373.662 292 371.562C290.1 370.112 288.43 368.452 287 366.562C276.16 366.552 265.33 367.052 254.5 368.062C252.27 368.002 250.11 367.662 248 367.062C242.21 372.522 235.88 377.192 229 381.062C226.07 381.862 223.07 382.192 220 382.062C212.8 374.042 206.3 365.372 200.5 356.062C198.33 353.892 196.17 351.732 194 349.562C186.04 347.322 178.37 344.322 171 340.562C163.81 334.802 156.81 328.802 150 322.562C148.33 321.892 146.67 321.892 145 322.562C132.83 327.612 120.16 329.272 107 327.562C104.09 325.652 102.42 322.982 102 319.562C106.38 301.592 105.88 283.762 100.5 266.062C97.1699 237.382 98.8299 209.042 105.5 181.062C108.32 174.082 111.65 167.422 115.5 161.062C120.83 143.572 130.33 128.742 144 116.562C148.17 113.642 152.5 110.982 157 108.562C162.21 106.922 167.54 105.922 173 105.562C183.57 95.2818 196.24 89.2818 211 87.5618C232.8 84.4518 254.64 84.2818 276.5 87.0618C278 86.7318 279.5 86.3918 281 86.0618C285.67 74.5618 294 67.0618 306 63.5618C332.89 57.8618 355.39 65.3618 373.5 86.0618C375.79 89.0218 377.13 92.3518 377.5 96.0618C385.3 106.812 388.64 118.812 387.5 132.062C386.43 134.802 384.93 137.302 383 139.562C394.88 158.062 401.21 178.402 402 200.562C401.54 215.752 400.7 230.922 399.5 246.062C396.54 258.752 393.2 271.422 389.5 284.062C380.82 300.392 369.48 314.732 355.5 327.062C349.89 335.332 343.56 343.002 336.5 350.062C330.75 359.232 324.75 368.232 318.5 377.062C317.49 377.902 316.32 378.232 315 378.062Z" fill="#607D8A"/>
<path fill-rule="evenodd" clip-rule="evenodd" d="M371 99.062C361.63 102.122 358.3 108.462 361 118.062C362.33 118.062 363.67 118.062 365 118.062C364.29 118.962 363.29 119.302 362 119.062C365.28 125.672 370.28 130.672 377 134.062C376.63 135.252 375.8 135.922 374.5 136.062C372.7 135.062 370.87 134.562 369 134.562C369.88 135.272 370.55 136.102 371 137.062C370.76 137.662 370.26 137.992 369.5 138.062C364.02 130.492 358.18 130.152 352 137.062C347.88 133.912 343.38 131.582 338.5 130.062C335.44 129.782 333.44 131.122 332.5 134.062C327.67 130.232 323.17 126.072 319 121.562C316.69 121.062 314.36 120.902 312 121.062C312.77 114.922 310.11 111.922 304 112.062C304.2 110.172 303.54 108.672 302 107.562C300.04 106.612 298.38 105.272 297 103.562C291.35 103.572 288.85 100.742 289.5 95.062C288.84 93.582 288 92.242 287 91.062C291.58 78.672 300.58 71.502 314 69.562C337.37 66.552 355.7 74.552 369 93.562C368.33 94.232 367.67 94.892 367 95.562C368.53 96.592 369.86 97.762 371 99.062Z" fill="#9B9B9C"/>
<path fill-rule="evenodd" clip-rule="evenodd" d="M332.999 86.0622C337.099 85.7922 341.099 86.2922 344.999 87.5622C350.119 96.1922 347.789 102.192 337.999 105.562C331.759 107.022 327.259 104.862 324.499 99.0622C324.309 92.7722 327.149 88.4422 332.999 86.0622Z" fill="#CDCDCD"/>
<path fill-rule="evenodd" clip-rule="evenodd" d="M333.999 87.0619C337.259 86.8619 339.929 88.0319 341.999 90.5619C336.709 92.5719 336.709 94.7419 341.999 97.0619C338.519 101.952 334.689 102.282 330.499 98.0619C329.379 93.6419 330.549 89.9719 333.999 87.0619Z" fill="#0F0F0F"/>
<path fill-rule="evenodd" clip-rule="evenodd" d="M243 92.062C240.19 94.812 239.36 98.142 240.5 102.062C244.53 104.672 247.03 108.332 248 113.062C250.7 114.262 252.53 116.262 253.5 119.062C255.7 119.962 257.87 120.962 260 122.062C254.27 131.042 256.6 136.382 267 138.062C267.81 139.372 268.81 140.542 270 141.562C273.32 142.062 276.65 142.232 280 142.062C279.83 145.742 280 149.412 280.5 153.062C282.55 156.852 285.72 158.022 290 156.562C291.08 155.602 292.25 154.772 293.5 154.062C294.71 155.612 296.21 156.782 298 157.562C301.97 158.412 305.97 159.082 310 159.562C312.86 160.492 315.19 162.162 317 164.562C319.67 165.132 322.33 165.632 325 166.062C324.99 167.872 325.49 169.542 326.5 171.062C333.37 179.382 339.7 179.052 345.5 170.062C345.7 178.102 349.53 180.772 357 178.062C358.53 179.752 359.86 181.592 361 183.562C366.87 184.082 372.54 183.242 378 181.062C379 181.732 380 182.392 381 183.062C380.75 188.132 383.08 191.132 388 192.062C389.67 191.892 391 191.232 392 190.062C396.31 208.382 395.81 226.722 390.5 245.062C386.74 259.242 382.41 273.242 377.5 287.062C370.4 299.832 361.4 311.172 350.5 321.062C344.3 330.932 336.97 339.932 328.5 348.062C324.24 356.742 318.4 364.242 311 370.562C302.71 369.962 296.05 366.302 291 359.562C275.99 359.992 260.99 359.822 246 359.062C242.24 358.652 240.07 360.322 239.5 364.062C235.23 368.842 230.06 372.172 224 374.062C221.2 372.832 219.03 370.832 217.5 368.062C212.01 360.572 207.18 352.742 203 344.562C193.05 341.692 183.38 338.022 174 333.562C166.27 326.162 158.27 319.162 150 312.562C141.34 314.712 132.67 317.382 124 320.562C120.01 321.062 116.01 321.232 112 321.062C111.71 319.272 112.05 317.612 113 316.062C126.72 307.842 137.55 296.842 145.5 283.062C146.75 280.482 147.08 277.822 146.5 275.062C145.78 274.112 144.95 273.942 144 274.562C141.78 279.442 138.78 283.782 135 287.562C128.13 291.352 121.13 294.852 114 298.062C113.03 289.812 111.69 281.652 110 273.562C123.62 265.612 135.79 255.782 146.5 244.062C151.08 237.232 155.42 230.232 159.5 223.062C161.73 217.232 162.39 211.232 161.5 205.062C160.26 203.142 158.76 202.812 157 204.062C150.78 215.352 143.44 225.852 135 235.562C126.52 241.702 117.36 246.542 107.5 250.062C106.22 229.932 107.22 209.932 110.5 190.062C117.19 174.712 123.86 159.382 130.5 144.062C137.29 133.602 145.79 124.772 156 117.562C160.93 114.622 166.27 113.462 172 114.062C180.03 117.022 187.69 120.862 195 125.562C198.26 128.152 200.76 131.322 202.5 135.062C207.34 143.742 211.34 152.742 214.5 162.062C216.37 172.982 217.2 183.982 217 195.062C218.33 195.062 219.67 195.062 221 195.062C208.4 200.952 197.24 208.952 187.5 219.062C182.38 226.622 179.22 234.622 178 243.062C173.72 247.302 173.05 251.972 176 257.062C174.35 260.802 173.85 264.802 174.5 269.062C178.44 292.332 191.27 308.492 213 317.562C225.03 322.532 237.53 325.362 250.5 326.062C269.7 324.912 288.86 323.412 308 321.562C329.5 316.402 343.66 303.242 350.5 282.062C354.71 271.472 356.54 260.472 356 249.062C361.52 248.522 362.85 246.022 360 241.562C357.51 240.142 355.17 238.642 353 237.062C348.93 228.112 343.27 220.272 336 213.562C320.32 203.382 303.65 195.382 286 189.562C270.01 187.842 254.01 187.842 238 189.562C235.3 190.402 232.63 191.232 230 192.062C230.16 189.042 230 186.042 229.5 183.062C226.87 174.142 224.54 165.142 222.5 156.062C218.96 145.982 214.62 136.312 209.5 127.062C204.19 119.742 197.69 113.912 190 109.562C187.38 108.742 184.72 108.242 182 108.062C189.37 101.542 198.04 97.382 208 95.562C219.62 93.902 231.29 92.732 243 92.062Z" fill="#9D9D9D"/>
<path fill-rule="evenodd" clip-rule="evenodd" d="M243 92.062C249.97 92.852 256.97 93.182 264 93.062C264.64 94.042 265.31 95.042 266 96.062C268.67 96.602 270.83 97.932 272.5 100.062C274.62 106.552 275.79 113.222 276 120.062C281.86 120.062 284.86 123.062 285 129.062C292.41 125.952 296.41 128.282 297 136.062C302.1 136.282 307.1 137.112 312 138.562C314.42 140.072 315.42 142.242 315 145.062C318.81 144.092 322.31 142.432 325.5 140.062C330.66 141.892 332.82 145.392 332 150.562C333.87 151.542 335.87 152.042 338 152.062C341.34 151.212 344.67 150.712 348 150.562C351.5 153.062 355 155.562 358.5 158.062C363.35 156.752 368.18 156.752 373 158.062C374.28 154.102 376.95 152.102 381 152.062C385.6 164.442 389.26 177.112 392 190.062C391 191.232 389.67 191.892 388 192.062C383.08 191.132 380.75 188.132 381 183.062C380 182.392 379 181.732 378 181.062C372.54 183.242 366.87 184.082 361 183.562C359.86 181.592 358.53 179.752 357 178.062C349.53 180.772 345.7 178.102 345.5 170.062C339.7 179.052 333.37 179.382 326.5 171.062C325.49 169.542 324.99 167.872 325 166.062C322.33 165.632 319.67 165.132 317 164.562C315.19 162.162 312.86 160.492 310 159.562C305.97 159.082 301.97 158.412 298 157.562C296.21 156.782 294.71 155.612 293.5 154.062C292.25 154.772 291.08 155.602 290 156.562C285.72 158.022 282.55 156.852 280.5 153.062C280 149.412 279.83 145.742 280 142.062C276.65 142.232 273.32 142.062 270 141.562C268.81 140.542 267.81 139.372 267 138.062C256.6 136.382 254.27 131.042 260 122.062C257.87 120.962 255.7 119.962 253.5 119.062C252.53 116.262 250.7 114.262 248 113.062C247.03 108.332 244.53 104.672 240.5 102.062C239.36 98.142 240.19 94.812 243 92.062Z" fill="#9985A4"/>
<path fill-rule="evenodd" clip-rule="evenodd" d="M287 91.062C288 92.242 288.84 93.582 289.5 95.062C288.85 100.742 291.35 103.572 297 103.562C298.38 105.272 300.04 106.612 302 107.562C303.54 108.672 304.2 110.172 304 112.062C310.11 111.922 312.77 114.922 312 121.062C314.36 120.902 316.69 121.062 319 121.562C323.17 126.072 327.67 130.232 332.5 134.062C333.44 131.122 335.44 129.782 338.5 130.062C343.38 131.582 347.88 133.912 352 137.062C358.18 130.152 364.02 130.492 369.5 138.062C370.26 137.992 370.76 137.662 371 137.062C372.32 136.892 373.49 137.222 374.5 138.062C376.4 142.862 378.57 147.532 381 152.062C376.95 152.102 374.28 154.102 373 158.062C368.18 156.752 363.35 156.752 358.5 158.062C355 155.562 351.5 153.062 348 150.562C344.67 150.712 341.34 151.212 338 152.062C335.87 152.042 333.87 151.542 332 150.562C332.82 145.392 330.66 141.892 325.5 140.062C322.31 142.432 318.81 144.092 315 145.062C315.42 142.242 314.42 140.072 312 138.562C307.1 137.112 302.1 136.282 297 136.062C296.41 128.282 292.41 125.952 285 129.062C284.86 123.062 281.86 120.062 276 120.062C275.79 113.222 274.62 106.552 272.5 100.062C270.83 97.932 268.67 96.602 266 96.062C265.31 95.042 264.64 94.042 264 93.062C270.98 94.082 277.98 94.582 285 94.562C285.58 93.262 286.25 92.092 287 91.062Z" fill="#82A8B0"/>
<path fill-rule="evenodd" clip-rule="evenodd" d="M371 99.062C372.88 101.802 374.54 104.802 376 108.062C375.64 108.742 375.3 109.412 375 110.062C373.17 114.562 369.83 117.222 365 118.062C363.67 118.062 362.33 118.062 361 118.062C358.3 108.462 361.63 102.122 371 99.062Z" fill="#F9FAFA"/>
<path fill-rule="evenodd" clip-rule="evenodd" d="M182 108.062C184.72 108.242 187.38 108.742 190 109.562C197.69 113.912 204.19 119.742 209.5 127.062C214.62 136.312 218.96 145.982 222.5 156.062C224.54 165.142 226.87 174.142 229.5 183.062C230 186.042 230.16 189.042 230 192.062C226.93 192.862 223.93 193.862 221 195.062C219.67 195.062 218.33 195.062 217 195.062C217.2 183.982 216.37 172.982 214.5 162.062C211.34 152.742 207.34 143.742 202.5 135.062C200.76 131.322 198.26 128.152 195 125.562C187.69 120.862 180.03 117.022 172 114.062C172.45 113.102 173.12 112.272 174 111.562C176.62 110.092 179.29 108.922 182 108.062Z" fill="#818282"/>
<path fill-rule="evenodd" clip-rule="evenodd" d="M375 110.062C382.12 117.292 382.79 125.292 377 134.062C370.28 130.672 365.28 125.672 362 119.062C363.29 119.302 364.29 118.962 365 118.062C369.83 117.222 373.17 114.562 375 110.062Z" fill="#5A5A5A"/>
<path fill-rule="evenodd" clip-rule="evenodd" d="M353 237.062C349.3 235.542 345.96 233.372 343 230.562C333.67 227.892 324.34 225.232 315 222.562C304.5 219.832 295.66 222.332 288.5 230.062C282.28 240.582 280.28 251.912 282.5 264.062C283.74 269.032 285.9 273.532 289 277.562C315.74 290.832 332.91 283.002 340.5 254.062C340.82 249.892 340.99 245.892 341 242.062C345.4 245.732 350.4 248.072 356 249.062C356.54 260.472 354.71 271.472 350.5 282.062C343.66 303.242 329.5 316.402 308 321.562C288.86 323.412 269.7 324.912 250.5 326.062C237.53 325.362 225.03 322.532 213 317.562C191.27 308.492 178.44 292.332 174.5 269.062C173.85 264.802 174.35 260.802 176 257.062C178.49 257.262 180.82 256.762 183 255.562C186.2 252.022 189.7 248.862 193.5 246.062C192.35 250.612 192.02 255.272 192.5 260.062C194.16 264.682 195.83 269.352 197.5 274.062C209.81 289.252 223.97 291.082 240 279.562C245.07 274.022 249.24 267.852 252.5 261.062C253.17 257.732 253.17 254.392 252.5 251.062C249.32 244.902 246.66 238.572 244.5 232.062C241.72 228.752 238.22 226.592 234 225.562C211.92 220.782 193.26 226.612 178 243.062C179.22 234.622 182.38 226.622 187.5 219.062C197.24 208.952 208.4 200.952 221 195.062C223.93 193.862 226.93 192.862 230 192.062C232.63 191.232 235.3 190.402 238 189.562C254.01 187.842 270.01 187.842 286 189.562C303.65 195.382 320.32 203.382 336 213.562C343.27 220.272 348.93 228.112 353 237.062Z" fill="#FCFCFC"/>
<path fill-rule="evenodd" clip-rule="evenodd" d="M352.999 237.062C355.169 238.642 357.509 240.142 359.999 241.562C362.849 246.022 361.519 248.522 355.999 249.062C350.399 248.072 345.399 245.732 340.999 242.062C340.989 245.892 340.819 249.892 340.499 254.062C332.909 283.002 315.739 290.832 288.999 277.562C285.899 273.532 283.739 269.032 282.499 264.062C280.279 251.912 282.279 240.582 288.499 230.062C295.659 222.332 304.499 219.832 314.999 222.562C324.339 225.232 333.669 227.892 342.999 230.562C345.959 233.372 349.299 235.542 352.999 237.062Z" fill="#030303"/>
<path fill-rule="evenodd" clip-rule="evenodd" d="M176.001 257.062C173.051 251.972 173.721 247.302 178.001 243.062C193.261 226.612 211.921 220.782 234.001 225.562C238.221 226.592 241.721 228.752 244.501 232.062C246.661 238.572 249.321 244.902 252.501 251.062C253.171 254.392 253.171 257.732 252.501 261.062C249.241 267.852 245.071 274.022 240.001 279.562C223.971 291.082 209.811 289.252 197.501 274.062C195.831 269.352 194.161 264.682 192.501 260.062C192.021 255.272 192.351 250.612 193.501 246.062C189.701 248.862 186.201 252.022 183.001 255.562C180.821 256.762 178.491 257.262 176.001 257.062Z" fill="#040404"/>
<path fill-rule="evenodd" clip-rule="evenodd" d="M299 230.062C303.45 229.182 306.95 230.512 309.5 234.062C309.91 239.092 309.58 244.092 308.5 249.062C304.84 252.932 300.34 254.092 295 252.562C293.38 249.882 291.55 247.382 289.5 245.062C288.75 242.262 289.08 239.592 290.5 237.062C293.24 234.462 296.07 232.132 299 230.062Z" fill="#F4F4F4"/>
<path fill-rule="evenodd" clip-rule="evenodd" d="M229 234.062C236.32 233.382 240.32 236.712 241 244.062C240.07 251.622 236.07 256.622 229 259.062C223.12 257.322 220.12 253.322 220 247.062C220.79 243.432 222.29 240.092 224.5 237.062C225.91 235.782 227.41 234.782 229 234.062Z" fill="#F5F5F5"/>
<path fill-rule="evenodd" clip-rule="evenodd" d="M284.001 288.062C289.081 287.742 290.911 290.072 289.501 295.062C287.061 299.502 283.891 303.332 280.001 306.562C277.331 307.232 274.671 307.232 272.001 306.562C267.501 304.232 263.001 302.062 258.501 300.062C256.911 293.482 259.411 291.322 266.001 293.562C269.111 295.202 272.271 296.702 275.501 298.062C278.851 295.212 281.681 291.882 284.001 288.062Z" fill="#0A0A0A"/>
<path fill-rule="evenodd" clip-rule="evenodd" d="M305.001 378.062C308.331 378.062 311.671 378.062 315.001 378.062C313.301 389.702 312.961 401.372 314.001 413.062C319.611 416.182 324.451 420.182 328.501 425.062C328.991 426.352 329.161 427.692 329.001 429.062C326.331 428.632 323.671 428.132 321.001 427.562C318.801 425.862 316.471 424.362 314.001 423.062C313.281 427.092 312.441 431.092 311.501 435.062C309.171 439.062 306.831 439.062 304.501 435.062C303.881 431.342 303.051 427.672 302.001 424.062C298.021 426.102 293.851 427.772 289.501 429.062C287.311 428.502 286.651 427.172 287.501 425.062C291.911 419.822 297.081 415.482 303.001 412.062C303.331 411.232 303.671 410.392 304.001 409.562C302.721 398.882 303.051 388.382 305.001 378.062Z" fill="#F9AAAA"/>
<path fill-rule="evenodd" clip-rule="evenodd" d="M229 381.062C228.67 390.752 229 400.422 230 410.062C234.81 412.552 238.97 415.892 242.5 420.062C243.63 421.912 244.13 423.912 244 426.062C239.04 425.142 234.7 422.812 231 419.062C229.68 423.632 228.84 428.302 228.5 433.062C228.15 434.742 227.15 435.742 225.5 436.062C223.24 434.222 221.07 432.392 219 430.562C219.56 427.242 220.56 424.082 222 421.062C221.67 420.732 221.33 420.392 221 420.062C217.09 423.932 212.59 426.932 207.5 429.062C204.39 427.762 203.39 425.432 204.5 422.062C207.99 417.412 212.49 414.082 218 412.062C219.17 402.092 219.84 392.092 220 382.062C223.07 382.192 226.07 381.862 229 381.062Z" fill="#F9AAAA"/>
</svg>
