<svg width="500" height="500" viewBox="0 0 500 500" fill="none" xmlns="http://www.w3.org/2000/svg">
<path fill-rule="evenodd" clip-rule="evenodd" d="M276 282.062C272.12 283.362 268.12 284.032 264 284.062C255.07 283.472 246.4 284.142 238 286.062C235.48 284.242 232.48 283.242 229 283.062C214.75 278.432 201.41 271.932 189 263.562C177.66 252.712 169.49 239.882 164.5 225.062C163.39 217.752 163.06 210.422 163.5 203.062C167.48 181.782 175.81 162.442 188.5 145.062C189.92 138.542 191.42 132.042 193 125.562C192.08 116.772 190.08 108.272 187 100.062C178.44 101.322 171.1 98.982 165 93.062C164.87 92.322 165.04 91.652 165.5 91.062C174.85 85.822 175.35 79.992 167 73.562C163.91 73.312 160.91 73.812 158 75.062C157.58 65.072 161.92 57.902 171 53.562C182.04 50.922 192.7 51.922 203 56.562C210.39 63.852 215.89 72.352 219.5 82.062C226.43 101.222 231.26 120.882 234 141.062C243.63 139.822 253.3 139.322 263 139.562C267.55 142.412 272.55 143.742 278 143.562C284.05 146.032 290.38 146.702 297 145.562C306.12 138.152 316.45 134.492 328 134.562C332.84 136.382 335.67 139.882 336.5 145.062C337.84 151.992 338.34 158.992 338 166.062C345.1 166.322 349.26 169.992 350.5 177.062C353.46 192.392 349.96 205.892 340 217.562C346.95 227.402 346.45 236.902 338.5 246.062C333.97 250.932 329.13 255.432 324 259.562C308.71 268.712 292.71 276.212 276 282.062Z" fill="#FEA2C3"/>
<path fill-rule="evenodd" clip-rule="evenodd" d="M181 73.062C185.49 72.702 187.15 74.532 186 78.562C184.37 79.052 182.7 79.222 181 79.062C181 77.062 181 75.062 181 73.062Z" fill="#0F090B"/>
<path fill-rule="evenodd" clip-rule="evenodd" d="M165.001 93.062C163.671 94.732 162.331 96.392 161.001 98.062C161.881 94.072 160.551 91.242 157.001 89.562C154.241 88.842 151.571 89.002 149.001 90.062C148.871 87.912 149.371 85.912 150.501 84.062C152.831 80.892 155.331 77.892 158.001 75.062C160.911 73.812 163.911 73.312 167.001 73.562C175.351 79.992 174.851 85.822 165.501 91.062C165.041 91.652 164.871 92.322 165.001 93.062Z" fill="#FDE776"/>
<path fill-rule="evenodd" clip-rule="evenodd" d="M194 75.0621C201 74.2321 203.5 77.2321 201.5 84.0621C199.06 86.1821 196.39 87.8521 193.5 89.0621C190.19 88.7521 188.69 86.9121 189 83.5621C189.17 82.3921 189.33 81.2321 189.5 80.0621C191.21 78.5221 192.71 76.8621 194 75.0621Z" fill="#FC8497"/>
<path fill-rule="evenodd" clip-rule="evenodd" d="M161 98.062C159.57 99.392 158.23 100.892 157 102.562C150.27 105.672 147.27 103.502 148 96.062C148 93.862 148.34 91.862 149 90.062C151.57 89.002 154.24 88.842 157 89.562C160.55 91.242 161.88 94.072 161 98.062Z" fill="#877C40"/>
<path fill-rule="evenodd" clip-rule="evenodd" d="M269 186.062C269.47 187.472 270.47 188.132 272 188.062C281.48 192.702 289.32 199.372 295.5 208.062C296.43 210.022 297.26 212.022 298 214.062C297.54 214.862 296.88 215.192 296 215.062C293.38 212.412 290.38 210.252 287 208.562C282.66 208.222 278.66 206.882 275 204.562C264.58 201.302 257.41 204.802 253.5 215.062C249.18 233.402 256.34 241.902 275 240.562C276.67 239.562 278.33 238.562 280 237.562C284.92 231.952 287.59 225.452 288 218.062C290.71 219.072 293.38 220.072 296 221.062C296.71 221.962 297.71 222.302 299 222.062C298.71 243.812 288.05 257.312 267 262.562C252.33 264.542 237.66 264.542 223 262.562C203.82 255.242 193.82 241.402 193 221.062C194.56 218.942 196.56 217.272 199 216.062C198.28 222.442 199.78 228.442 203.5 234.062C211.75 241.892 220.25 242.062 229 234.562C237.1 224.272 236.77 214.272 228 204.562C217.21 200.632 206.87 201.472 197 207.062C211.41 189.902 230.07 181.562 253 182.062C258.68 182.152 264.01 183.482 269 186.062Z" fill="#FCFAFB"/>
<path fill-rule="evenodd" clip-rule="evenodd" d="M272 188.062C270.47 188.132 269.47 187.472 269 186.062C285.66 173.392 303.32 162.232 322 152.562C328.42 153.012 331.42 156.672 331 163.562C330.21 170.612 328.21 177.282 325 183.562C332.21 182.672 337.71 185.172 341.5 191.062C342.17 193.732 342.17 196.392 341.5 199.062C334.39 213.942 326.73 228.602 318.5 243.062C313.59 248.642 308.09 253.472 302 257.562C298.39 258.812 296.89 257.652 297.5 254.062C303.76 249.802 309.43 244.802 314.5 239.062C321.52 225.682 328.52 212.352 335.5 199.062C336.62 189.872 332.79 187.032 324 190.562C319.66 192.732 315.66 195.402 312 198.562C308.41 199.172 307.25 197.672 308.5 194.062C320.07 185.262 325.4 173.592 324.5 159.062C322.26 158.392 320.09 158.892 318 160.562C304.13 168.442 290.79 177.112 278 186.562C276.15 187.692 274.15 188.192 272 188.062Z" fill="#FF8DB6"/>
<path fill-rule="evenodd" clip-rule="evenodd" d="M193 221.062C188.82 221.722 187.32 220.052 188.5 216.062C190.83 212.562 193.67 209.562 197 207.062C206.87 201.472 217.21 200.632 228 204.562C236.77 214.272 237.1 224.272 229 234.562C220.25 242.062 211.75 241.892 203.5 234.062C199.78 228.442 198.28 222.442 199 216.062C196.56 217.272 194.56 218.942 193 221.062Z" fill="#0D0D0D"/>
<path fill-rule="evenodd" clip-rule="evenodd" d="M296 215.062C298.13 215.692 299.79 217.022 301 219.062C299.83 220.782 298.16 221.442 296 221.062C293.38 220.072 290.71 219.072 288 218.062C287.59 225.452 284.92 231.952 280 237.562C278.33 238.562 276.67 239.562 275 240.562C256.34 241.902 249.18 233.402 253.5 215.062C257.41 204.802 264.58 201.302 275 204.562C278.66 206.882 282.66 208.222 287 208.562C290.38 210.252 293.38 212.412 296 215.062Z" fill="#0C0C0C"/>
<path fill-rule="evenodd" clip-rule="evenodd" d="M264.001 208.062C267.841 207.572 269.841 209.232 270.001 213.062C270.591 219.982 267.591 222.812 261.001 221.562C255.471 215.762 256.471 211.262 264.001 208.062Z" fill="#ECECEC"/>
<path fill-rule="evenodd" clip-rule="evenodd" d="M222 208.062C228.5 209.402 230.34 213.062 227.5 219.062C222.35 224.862 218.51 224.192 216 217.062C216.76 213.192 218.76 210.192 222 208.062Z" fill="#EBEBEB"/>
<path fill-rule="evenodd" clip-rule="evenodd" d="M252.001 243.062C256.661 242.532 257.821 244.202 255.501 248.062C253.411 250.662 250.911 252.662 248.001 254.062C244.551 252.842 241.221 251.342 238.001 249.562C237.121 248.202 236.791 246.702 237.001 245.062C240.781 245.032 244.281 246.032 247.501 248.062C249.451 246.842 250.951 245.172 252.001 243.062Z" fill="#161616"/>
<path fill-rule="evenodd" clip-rule="evenodd" d="M276.001 282.062C274.911 298.042 274.741 314.042 275.501 330.062C276.621 331.512 277.281 333.182 277.501 335.062C286.731 340.432 295.571 346.432 304.001 353.062C309.281 351.942 314.611 351.782 320.001 352.562C321.621 353.682 322.621 355.182 323.001 357.062C321.341 359.562 319.171 361.562 316.501 363.062C315.701 366.752 314.531 370.252 313.001 373.562C310.791 374.192 308.621 374.022 306.501 373.062C304.681 374.162 303.181 375.662 302.001 377.562C299.931 378.252 297.931 378.082 296.001 377.062C294.991 373.602 294.991 370.102 296.001 366.562C296.151 364.532 295.481 362.862 294.001 361.562C289.171 358.982 284.501 356.142 280.001 353.062C279.031 355.302 278.691 357.642 279.001 360.062C284.851 359.192 287.351 361.522 286.501 367.062C284.171 369.392 281.831 371.732 279.501 374.062C278.251 390.382 277.581 406.722 277.501 423.062C277.771 424.662 278.271 426.162 279.001 427.562C282.231 428.872 285.561 429.872 289.001 430.562C291.671 432.562 291.671 434.562 289.001 436.562C284.251 437.182 279.581 438.182 275.001 439.562C273.641 441.502 272.801 443.672 272.501 446.062C271.761 447.132 270.761 447.802 269.501 448.062C266.451 446.152 263.951 443.652 262.001 440.562C259.121 439.882 256.291 440.042 253.501 441.062C250.431 440.112 249.431 438.112 250.501 435.062C253.581 432.272 257.081 430.102 261.001 428.562C262.851 426.882 264.521 425.042 266.001 423.062C266.261 407.432 266.261 391.762 266.001 376.062C261.581 376.142 259.251 373.972 259.001 369.562C258.941 365.062 260.781 361.562 264.501 359.062C265.171 354.732 265.171 350.392 264.501 346.062C252.631 340.712 241.461 334.212 231.001 326.562C227.331 324.732 223.671 322.892 220.001 321.062C215.661 322.982 212.161 321.982 209.501 318.062C208.831 314.062 208.831 310.062 209.501 306.062C212.341 302.982 215.681 300.642 219.501 299.062C222.921 293.822 226.091 288.492 229.001 283.062C232.481 283.242 235.481 284.242 238.001 286.062C235.511 291.032 233.011 296.032 230.501 301.062C229.131 304.302 228.801 307.632 229.501 311.062C239.891 319.342 251.391 325.672 264.001 330.062C264.001 314.732 264.001 299.392 264.001 284.062C268.121 284.032 272.121 283.362 276.001 282.062Z" fill="#FF6A56"/>
</svg>
