<svg width="500" height="500" viewBox="0 0 500 500" fill="none" xmlns="http://www.w3.org/2000/svg">
<path fill-rule="evenodd" clip-rule="evenodd" d="M336 346.062C345.57 337.832 353.23 328.172 359 317.062C359.07 318.972 360.07 320.142 362 320.562C368.33 321.232 374.67 321.232 381 320.562C390.16 317.802 399.49 315.802 409 314.562C419.41 310.912 422.58 304.072 418.5 294.062C414.41 291.642 410.57 288.812 407 285.562C401.04 284.322 395.04 283.992 389 284.562C387.83 284.982 386.83 285.652 386 286.562C377.35 287.782 369.01 289.282 361 291.062C358.76 279.602 352.76 270.602 343 264.062C348.35 254.832 349.35 245.162 346 235.062C356.26 232.082 366.6 229.242 377 226.562C382.54 224.122 388.21 221.792 394 219.562C403.41 211.352 406.25 201.522 402.5 190.062C400.86 187.752 398.7 186.252 396 185.562C388.63 184.052 381.29 184.052 374 185.562C362.19 190.722 350.85 196.722 340 203.562C336.83 205.562 334.17 208.062 332 211.062C328.64 208.692 325.31 206.362 322 204.062C335.27 193.302 348.44 182.302 361.5 171.062C366.05 164.922 367.05 158.252 364.5 151.062C363.5 150.062 362.5 149.062 361.5 148.062C361.1 148.292 360.93 148.622 361 149.062C359.15 147.552 357.15 146.212 355 145.062C354.99 143.542 354.32 142.382 353 141.562C350.75 140.412 348.41 140.082 346 140.562C334.22 149.342 323.38 159.182 313.5 170.062C309.73 176.312 306.23 182.642 303 189.062C298.25 182.972 292.58 177.972 286 174.062C289.43 174.012 292.43 172.852 295 170.562C300.21 164.012 306.54 159.012 314 155.562C319.61 146.882 321.44 137.382 319.5 127.062C313.24 118.882 306.07 118.052 298 124.562C292.2 124.712 287.37 126.882 283.5 131.062C275.33 143.082 271.5 156.412 272 171.062C274.24 170.772 276.24 171.102 278 172.062C275 172.062 272 172.062 269 172.062C266.87 167.142 264.2 162.472 261 158.062C264.54 148.642 268.38 139.312 272.5 130.062C273.39 124.902 274.22 119.742 275 114.562C272.93 106.992 271.26 99.3216 270 91.5616C259.46 86.1116 251.63 88.6116 246.5 99.0616C244.82 107.492 242.82 115.822 240.5 124.062C239.62 133.122 239.95 142.122 241.5 151.062C241.98 150.112 242.15 149.112 242 148.062C242.95 149.482 243.28 151.152 243 153.062C237.81 154.322 233.15 156.652 229 160.062C228.68 154.722 228.18 149.382 227.5 144.062C224.98 136.942 223.31 129.612 222.5 122.062C220.55 118.752 217.71 117.252 214 117.562C213.44 117.942 213.11 118.442 213 119.062C208.89 117.422 205.23 118.082 202 121.062C198.69 120.532 196.53 121.872 195.5 125.062C194.27 134.022 195.27 142.682 198.5 151.062C203.22 157.612 207.72 164.282 212 171.062C206.4 174.332 201.4 178.332 197 183.062C193.26 172.142 187.59 162.312 180 153.562C173.21 148.912 165.87 147.912 158 150.562C155.79 152.072 153.96 153.902 152.5 156.062C151.83 161.732 151.83 167.392 152.5 173.062C156.22 184.182 161.72 194.182 169 203.062C165.2 205.132 161.53 207.462 158 210.062C156.71 208.722 155.87 207.052 155.5 205.062C150.9 200.742 146.4 196.242 142 191.562C139.26 189.522 136.26 188.022 133 187.062C130.27 186.032 127.6 186.032 125 187.062C124.25 185.992 123.25 185.822 122 186.562C114.49 192.782 112.99 200.282 117.5 209.062C124 216.892 130.5 224.732 137 232.562C140.99 234.222 144.66 236.392 148 239.062C148.95 244.492 150.29 249.822 152 255.062C151.96 255.982 151.62 256.642 151 257.062C140.45 242.452 126.45 232.782 109 228.062C106.47 228.322 104.14 229.162 102 230.562C99.05 233.972 96.21 237.472 93.5 241.062C92.43 245.422 93.09 249.422 95.5 253.062C95.98 252.112 96.15 251.112 96 250.062C97.15 253.892 99.48 256.892 103 259.062C110.96 267.542 120.63 273.212 132 276.062C130.7 280.622 130.04 285.292 130 290.062C125.52 288.122 120.85 286.792 116 286.062C116 287.062 116 288.062 116 289.062C115.33 289.062 115 288.732 115 288.062C113.96 282.512 110.62 279.012 105 277.562C97.45 275.592 91.95 278.092 88.5 285.062C86.68 298.082 92.18 306.082 105 309.062C109.3 312.012 113.97 314.512 119 316.562C126.61 318.162 134.28 319.332 142 320.062C148 326.062 154.34 331.732 161 337.062C163.75 340.872 166.75 344.542 170 348.062C147.9 343.622 126.23 337.452 105 329.562C93.14 324.382 82.3 317.542 72.5 309.062C68.34 303.422 65.84 297.092 65 290.062C65.6 281.702 69.6 275.532 77 271.562C81.64 268.842 86.64 267.012 92 266.062C84.08 259.632 78.24 251.632 74.5 242.062C73.09 236.032 74.43 230.692 78.5 226.062C84.65 217.722 92.82 213.052 103 212.062C100.6 205.922 98.77 199.592 97.5 193.062C96.82 179.392 103.32 171.222 117 168.562C120.65 168.062 124.32 167.892 128 168.062C129.45 152.362 137.11 140.532 151 132.562C160.2 129.832 169.54 129.332 179 131.062C179.9 120.772 183.9 111.932 191 104.562C203.56 96.9416 215.23 98.2716 226 108.562C227.95 110.632 229.79 112.802 231.5 115.062C231.88 107.552 233.21 100.222 235.5 93.0616C241.75 76.8416 253.25 71.3416 270 76.5616C273.77 77.8616 276.94 80.0316 279.5 83.0616C284.04 91.7616 287.87 100.762 291 110.062C300.94 103.852 311.6 102.352 323 105.562C325.8 107.352 328.3 109.522 330.5 112.062C331.24 119.742 332.07 127.412 333 135.062C339.23 130.832 345.89 130.002 353 132.562C362.09 135.852 369.92 141.022 376.5 148.062C381.69 155.322 383.36 163.322 381.5 172.062C392.57 169.642 401.57 172.972 408.5 182.062C416.14 196.352 416.98 211.022 411 226.062C431.42 228.232 438.92 239.232 433.5 259.062C430.1 265.132 425.93 270.632 421 275.562C434.52 280.102 438.69 288.932 433.5 302.062C417.18 321.482 396.35 332.982 371 336.562C363.51 338.832 356.18 341.502 349 344.562C344.65 345.022 340.32 345.522 336 346.062Z" fill="#4DAF51"/>
<path fill-rule="evenodd" clip-rule="evenodd" d="M261 158.061C258.57 156.811 256.23 155.311 254 153.561C257.63 152.771 259.63 150.601 260 147.061C257.33 141.061 257.33 135.061 260 129.061C263.03 127.191 265.2 124.521 266.5 121.061C268 114.461 268.33 107.791 267.5 101.061C262.99 94.8114 257.99 94.4814 252.5 100.061C251.71 101.301 251.21 102.641 251 104.061C249.15 105.591 248.15 107.591 248 110.061C245.61 111.891 244.61 114.391 245 117.561C244.61 121.291 245.95 124.121 249 126.061C248.04 131.971 247.71 137.971 248 144.061C247.65 148.981 246.65 148.811 245 143.561C241.17 143.051 240.17 144.551 242 148.061C242.15 149.111 241.98 150.111 241.5 151.061C239.95 142.121 239.62 133.121 240.5 124.061C242.82 115.821 244.82 107.491 246.5 99.0614C251.63 88.6114 259.46 86.1114 270 91.5614C271.26 99.3214 272.93 106.991 275 114.561C274.22 119.741 273.39 124.901 272.5 130.061C268.38 139.311 264.54 148.641 261 158.061Z" fill="#88C24D"/>
<path fill-rule="evenodd" clip-rule="evenodd" d="M265 113.062C261.9 111.642 258.74 110.302 255.5 109.062C252.5 110.382 251 112.722 251 116.062C249.15 114.532 248.15 112.532 248 110.062C248.15 107.592 249.15 105.592 251 104.062C255.65 100.202 260.32 100.362 265 104.562C267.64 107.512 267.64 110.342 265 113.062Z" fill="#42ACCF"/>
<path fill-rule="evenodd" clip-rule="evenodd" d="M265 113.062C265.14 120.762 261.47 123.932 254 122.562C253.43 120.132 252.43 117.962 251 116.062C251 112.722 252.5 110.382 255.5 109.062C258.74 110.302 261.9 111.642 265 113.062Z" fill="#070F0F"/>
<path fill-rule="evenodd" clip-rule="evenodd" d="M229 160.061C228 161.391 227 162.731 226 164.061C222.6 158.241 219.93 151.901 218 145.061C219.1 142.011 219.77 138.841 220 135.561C220.16 133.021 219.5 130.851 218 129.061C217.46 127.441 217.13 125.781 217 124.061C216.42 121.811 215.09 120.141 213 119.061C213.11 118.441 213.44 117.941 214 117.561C217.71 117.251 220.55 118.751 222.5 122.061C223.31 129.611 224.98 136.941 227.5 144.061C228.18 149.381 228.68 154.721 229 160.061Z" fill="#88C24C"/>
<path fill-rule="evenodd" clip-rule="evenodd" d="M260 129.062C255.89 129.442 252.23 128.442 249 126.062C245.95 124.122 244.61 121.292 245 117.562C244.61 114.392 245.61 111.892 248 110.062C248.15 112.532 249.15 114.532 251 116.062C252.43 117.962 253.43 120.132 254 122.562C261.47 123.932 265.14 120.762 265 113.062C267.64 110.342 267.64 107.512 265 104.562C260.32 100.362 255.65 100.202 251 104.062C251.21 102.642 251.71 101.302 252.5 100.062C257.99 94.4816 262.99 94.8116 267.5 101.062C268.33 107.792 268 114.462 266.5 121.062C265.2 124.522 263.03 127.192 260 129.062Z" fill="#69DECD"/>
<path fill-rule="evenodd" clip-rule="evenodd" d="M286 174.061C283.33 173.391 280.67 172.731 278 172.061C276.24 171.101 274.24 170.771 272 171.061C271.5 156.411 275.33 143.081 283.5 131.061C287.37 126.881 292.2 124.711 298 124.561C306.07 118.051 313.24 118.881 319.5 127.061C321.44 137.381 319.61 146.881 314 155.561C306.54 159.011 300.21 164.011 295 170.561C292.43 172.851 289.43 174.011 286 174.061Z" fill="#89C24B"/>
<path fill-rule="evenodd" clip-rule="evenodd" d="M202 121.061C198.55 128.901 198.72 136.571 202.5 144.061C203.95 146.021 205.78 147.361 208 148.061C208.9 148.721 209.9 149.381 211 150.061C213.82 156.551 216.82 162.881 220 169.061C217.51 170.331 214.84 171.001 212 171.061C207.72 164.281 203.22 157.611 198.5 151.061C195.27 142.681 194.27 134.021 195.5 125.061C196.53 121.871 198.69 120.531 202 121.061Z" fill="#89C24B"/>
<path fill-rule="evenodd" clip-rule="evenodd" d="M216.999 124.061C217.129 125.781 217.459 127.441 217.999 129.061C218.479 132.351 217.479 135.011 214.999 137.061C213.759 135.351 213.089 133.351 212.999 131.061C208.459 130.321 205.459 131.991 203.999 136.061C201.159 131.741 201.829 127.741 205.999 124.061C209.699 122.731 213.359 122.731 216.999 124.061Z" fill="#41A9CC"/>
<path fill-rule="evenodd" clip-rule="evenodd" d="M299 127.062C302.53 128.502 306.2 129.672 310 130.562C313.02 138.612 310.19 143.782 301.5 146.062C300.6 145.822 299.76 145.482 299 145.062C300.5 143.382 302.33 142.052 304.5 141.062C305 135.562 302.5 133.062 297 133.562C295.57 135.612 294.57 137.772 294 140.062C294 137.392 294 134.732 294 132.062C295 129.732 296.67 128.062 299 127.062Z" fill="#41A9CB"/>
<path fill-rule="evenodd" clip-rule="evenodd" d="M249 126.062C252.23 128.442 255.89 129.442 260 129.062C257.33 135.062 257.33 141.062 260 147.062C258.03 146.822 256.2 147.152 254.5 148.062C254.05 144.372 254.22 140.712 255 137.062C253.95 136.912 252.95 137.082 252 137.562C250.57 139.732 249.23 141.902 248 144.062C247.71 137.972 248.04 131.972 249 126.062Z" fill="#B1D490"/>
<path fill-rule="evenodd" clip-rule="evenodd" d="M213 119.062C215.09 120.142 216.42 121.812 217 124.062C213.36 122.732 209.7 122.732 206 124.062C201.83 127.742 201.16 131.742 204 136.062C203.83 137.382 204.16 138.552 205 139.562C207.97 141.892 211.13 142.392 214.5 141.062C214.99 139.772 215.16 138.432 215 137.062C217.48 135.012 218.48 132.352 218 129.062C219.5 130.852 220.16 133.022 220 135.562C219.77 138.842 219.1 142.012 218 145.062C215.27 147.702 211.93 148.702 208 148.062C205.78 147.362 203.95 146.022 202.5 144.062C198.72 136.572 198.55 128.902 202 121.062C205.23 118.082 208.89 117.422 213 119.062Z" fill="#59DBC8"/>
<path fill-rule="evenodd" clip-rule="evenodd" d="M215 137.062C215.16 138.432 214.99 139.772 214.5 141.062C211.13 142.392 207.97 141.892 205 139.562C204.16 138.552 203.83 137.382 204 136.062C205.46 131.992 208.46 130.322 213 131.062C213.09 133.352 213.76 135.352 215 137.062Z" fill="#080E0E"/>
<path fill-rule="evenodd" clip-rule="evenodd" d="M260 147.062C259.63 150.602 257.63 152.772 254 153.562C256.23 155.312 258.57 156.812 261 158.062C264.2 162.472 266.87 167.142 269 172.062C277.94 189.322 284.11 207.652 287.5 227.062C301.24 237.112 314.24 248.112 326.5 260.062C337.94 276.762 341.6 295.092 337.5 315.062C335.63 322.082 333.63 329.082 331.5 336.062C328.06 343.292 323.9 349.952 319 356.062C309.8 364.472 300.47 372.642 291 380.562C287.47 381.902 283.81 382.402 280 382.062C279 382.062 278 382.062 277 382.062C274.15 381.242 271.48 379.912 269 378.062C259.12 379.452 249.29 379.112 239.5 377.062C234.5 379.492 229.34 381.152 224 382.062C220.46 382.252 217.13 381.582 214 380.062C208.24 377.672 203.91 373.672 201 368.062C190.12 362.162 179.78 355.502 170 348.062C166.75 344.542 163.75 340.872 161 337.062C151.73 318.242 149.57 298.582 154.5 278.062C159.32 270.082 163.32 261.752 166.5 253.062C174.12 240.772 184.29 231.272 197 224.562C202.16 222.642 207.5 221.482 213 221.062C212.75 208.812 215.25 197.142 220.5 186.062C221.34 180.342 222.17 174.682 223 169.062C223.75 167.232 224.75 165.562 226 164.062C227 162.732 228 161.392 229 160.062C233.15 156.652 237.81 154.322 243 153.062C243.28 151.152 242.95 149.482 242 148.062C240.17 144.552 241.17 143.052 245 143.562C246.65 148.812 247.65 148.982 248 144.062C249.23 141.902 250.57 139.732 252 137.562C252.95 137.082 253.95 136.912 255 137.062C254.22 140.712 254.05 144.372 254.5 148.062C256.2 147.152 258.03 146.822 260 147.062Z" fill="#4058DE"/>
<path fill-rule="evenodd" clip-rule="evenodd" d="M355 145.062C349.53 145.292 344.53 146.962 340 150.062C339.55 155.372 338.22 160.372 336 165.062C329.08 173.882 321.91 182.552 314.5 191.062C314.02 192.012 313.85 193.012 314 194.062C315.81 194.072 317.48 193.572 319 192.562C325.87 185.862 332.54 179.022 339 172.062C348.41 172.522 355.41 168.522 360 160.062C360.61 159.172 360.94 158.172 361 157.062C362.27 154.502 362.27 151.832 361 149.062C360.93 148.622 361.1 148.292 361.5 148.062C362.5 149.062 363.5 150.062 364.5 151.062C367.05 158.252 366.05 164.922 361.5 171.062C348.44 182.302 335.27 193.302 322 204.062C317.08 202.682 312.08 201.682 307 201.062C306.27 196.862 304.93 192.862 303 189.062C306.23 182.642 309.73 176.312 313.5 170.062C323.38 159.182 334.22 149.342 346 140.562C348.41 140.082 350.75 140.412 353 141.562C354.32 142.382 354.99 143.542 355 145.062Z" fill="#89C24B"/>
<path fill-rule="evenodd" clip-rule="evenodd" d="M291 156.062C289.33 155.062 288 153.732 287 152.062C286.58 144.312 288.92 137.642 294 132.062C294 134.732 294 137.392 294 140.062C294 143.392 295.67 145.062 299 145.062C299.76 145.482 300.6 145.822 301.5 146.062C310.19 143.782 313.02 138.612 310 130.562C306.2 129.672 302.53 128.502 299 127.062C316.44 123.572 320.28 129.572 310.5 145.062C307.63 147.602 305.13 150.432 303 153.562C299.29 155.692 295.29 156.532 291 156.062Z" fill="#57DDCA"/>
<path fill-rule="evenodd" clip-rule="evenodd" d="M299 145.062C295.67 145.062 294 143.392 294 140.062C294.57 137.772 295.57 135.612 297 133.562C302.5 133.062 305 135.562 304.5 141.062C302.33 142.052 300.5 143.382 299 145.062Z" fill="#070E0F"/>
<path fill-rule="evenodd" clip-rule="evenodd" d="M361 157.062C360.94 158.172 360.61 159.172 360 160.062C357.62 161.922 354.95 163.252 352 164.062C353.09 161.142 353.59 158.142 353.5 155.062C351.69 152.522 349.19 151.522 346 152.062C347.68 149.552 349.85 147.552 352.5 146.062C357.03 148.432 359.87 152.092 361 157.062Z" fill="#41ABCE"/>
<path fill-rule="evenodd" clip-rule="evenodd" d="M218 145.062C219.93 151.902 222.6 158.242 226 164.062C224.75 165.562 223.75 167.232 223 169.062C222 169.062 221 169.062 220 169.062C216.82 162.882 213.82 156.552 211 150.062C209.9 149.382 208.9 148.722 208 148.062C211.93 148.702 215.27 147.702 218 145.062Z" fill="#B4D98F"/>
<path fill-rule="evenodd" clip-rule="evenodd" d="M197.001 183.062C194.121 188.032 192.461 193.362 192.001 199.062C191.001 199.062 190.001 199.062 189.001 199.062C186.391 190.902 183.391 182.902 180.001 175.062C184.871 164.842 182.201 157.002 172.001 151.562C162.221 150.342 156.881 154.672 156.001 164.562C157.801 171.182 161.801 175.682 168.001 178.062C172.591 184.922 176.931 191.922 181.001 199.062C176.801 199.832 172.801 201.162 169.001 203.062C161.721 194.182 156.221 184.182 152.501 173.062C151.831 167.392 151.831 161.732 152.501 156.062C153.961 153.902 155.791 152.072 158.001 150.562C165.871 147.912 173.211 148.912 180.001 153.562C187.591 162.312 193.261 172.142 197.001 183.062Z" fill="#89C24B"/>
<path fill-rule="evenodd" clip-rule="evenodd" d="M180 175.061C176.49 177.671 172.49 178.671 168 178.061C161.8 175.681 157.8 171.181 156 164.561C156.88 154.671 162.22 150.341 172 151.561C182.2 157.001 184.87 164.841 180 175.061Z" fill="#55DCC9"/>
<path fill-rule="evenodd" clip-rule="evenodd" d="M287 152.062C288 153.732 289.33 155.062 291 156.062C288.28 161.522 284.28 165.362 279 167.562C278.53 161.002 281.2 155.832 287 152.062Z" fill="#B5DA8D"/>
<path fill-rule="evenodd" clip-rule="evenodd" d="M346.001 152.061C349.191 151.521 351.691 152.521 353.501 155.061C353.591 158.141 353.091 161.141 352.001 164.061C348.421 163.251 345.251 161.581 342.501 159.061C341.681 155.721 342.841 153.391 346.001 152.061Z" fill="#080F11"/>
<path fill-rule="evenodd" clip-rule="evenodd" d="M176 167.061C176.2 165.171 175.54 163.671 174 162.561C166 160.051 163 162.891 165 171.061C163.71 170.501 162.88 169.501 162.5 168.061C160.69 157.531 164.69 153.861 174.5 157.061C176.36 160.411 176.86 163.741 176 167.061Z" fill="#40A8C9"/>
<path fill-rule="evenodd" clip-rule="evenodd" d="M233 159.062C241.65 160.492 242.15 163.492 234.5 168.062C230.36 165.792 229.86 162.792 233 159.062Z" fill="#090814"/>
<path fill-rule="evenodd" clip-rule="evenodd" d="M254 160.062C256.33 160.062 258.67 160.062 261 160.062C262.11 166.762 259.95 167.762 254.5 163.062C254.02 162.112 253.85 161.112 254 160.062Z" fill="#070611"/>
<path fill-rule="evenodd" clip-rule="evenodd" d="M355 145.062C357.15 146.212 359.15 147.552 361 149.062C362.27 151.832 362.27 154.502 361 157.062C359.87 152.092 357.03 148.432 352.5 146.062C349.85 147.552 347.68 149.552 346 152.062C342.84 153.392 341.68 155.722 342.5 159.062C345.25 161.582 348.42 163.252 352 164.062C354.95 163.252 357.62 161.922 360 160.062C355.41 168.522 348.41 172.522 339 172.062C336.67 170.382 335.67 168.052 336 165.062C338.22 160.372 339.55 155.372 340 150.062C344.53 146.962 349.53 145.292 355 145.062Z" fill="#6BDECE"/>
<path fill-rule="evenodd" clip-rule="evenodd" d="M176 167.062C174.86 172.472 171.53 174.642 166 173.562C165.25 172.892 164.91 172.062 165 171.062C163 162.892 166 160.052 174 162.562C175.54 163.672 176.2 165.172 176 167.062Z" fill="#040909"/>
<path fill-rule="evenodd" clip-rule="evenodd" d="M336 165.062C335.67 168.052 336.67 170.382 339 172.062C332.54 179.022 325.87 185.862 319 192.562C317.48 193.572 315.81 194.072 314 194.062C313.85 193.012 314.02 192.012 314.5 191.062C321.91 182.552 329.08 173.882 336 165.062Z" fill="#B5D98D"/>
<path fill-rule="evenodd" clip-rule="evenodd" d="M220 169.062C221 169.062 222 169.062 223 169.062C222.17 174.682 221.34 180.342 220.5 186.062C215.25 197.142 212.75 208.812 213 221.062C207.5 221.482 202.16 222.642 197 224.562C184.29 231.272 174.12 240.772 166.5 253.062C163.32 261.752 159.32 270.082 154.5 278.062C149.57 298.582 151.73 318.242 161 337.062C154.34 331.732 148 326.062 142 320.062C138.26 316.252 135.26 311.922 133 307.062C132.33 305.062 131.67 303.062 131 301.062C130.16 297.462 129.82 293.792 130 290.062C130.04 285.292 130.7 280.622 132 276.062C133.4 272.942 135.06 269.942 137 267.062C139.02 265.362 141.02 263.702 143 262.062C145.67 260.392 148.33 258.732 151 257.062C151.62 256.642 151.96 255.982 152 255.062C150.29 249.822 148.95 244.492 148 239.062C147.91 234.022 148.25 229.022 149 224.062C150.24 221.912 151.24 219.582 152 217.062C154.23 214.952 156.23 212.622 158 210.062C161.53 207.462 165.2 205.132 169 203.062C172.8 201.162 176.8 199.832 181 199.062C183.67 199.062 186.33 199.062 189 199.062C190 199.062 191 199.062 192 199.062C192.46 193.362 194.12 188.032 197 183.062C201.4 178.332 206.4 174.332 212 171.062C214.84 171.002 217.51 170.332 220 169.062Z" fill="#148181"/>
<path fill-rule="evenodd" clip-rule="evenodd" d="M245 169.062C247.36 168.902 249.69 169.062 252 169.562C253.39 170.522 254.06 171.852 254 173.562C251.74 178.102 250.58 182.942 250.5 188.062C249.94 188.582 249.27 188.922 248.5 189.062C244.77 183.652 240.61 178.492 236 173.562C236.14 172.792 236.48 172.122 237 171.562C239.96 171.282 242.62 170.452 245 169.062Z" fill="#F7E642"/>
<path fill-rule="evenodd" clip-rule="evenodd" d="M269 172.062C272 172.062 275 172.062 278 172.062C280.67 172.732 283.33 173.392 286 174.062C292.58 177.972 298.25 182.972 303 189.062C304.93 192.862 306.27 196.862 307 201.062C312.08 201.682 317.08 202.682 322 204.062C325.31 206.362 328.64 208.692 332 211.062C334.91 214.552 337.58 218.222 340 222.062C341.35 224.102 342.68 226.102 344 228.062C344.67 230.392 345.33 232.732 346 235.062C349.35 245.162 348.35 254.832 343 264.062C352.76 270.602 358.76 279.602 361 291.062C361.61 294.702 361.95 298.362 362 302.062C362 304.392 362 306.732 362 309.062C360.63 311.502 359.63 314.162 359 317.062C353.23 328.172 345.57 337.832 336 346.062C330.82 350.252 325.15 353.582 319 356.062C323.9 349.952 328.06 343.292 331.5 336.062C333.63 329.082 335.63 322.082 337.5 315.062C341.6 295.092 337.94 276.762 326.5 260.062C314.24 248.112 301.24 237.112 287.5 227.062C284.11 207.652 277.94 189.322 269 172.062Z" fill="#148181"/>
<path fill-rule="evenodd" clip-rule="evenodd" d="M180 175.062C183.39 182.902 186.39 190.902 189 199.062C186.33 199.062 183.67 199.062 181 199.062C176.93 191.922 172.59 184.922 168 178.062C172.49 178.672 176.49 177.672 180 175.062Z" fill="#B5D98E"/>
<path fill-rule="evenodd" clip-rule="evenodd" d="M346 235.062C345.33 232.732 344.67 230.392 344 228.062C352.19 221.212 361.19 215.552 371 211.062C374.51 216.202 379.17 217.372 385 214.562C389.42 212.152 393.25 208.982 396.5 205.062C397.17 202.732 397.17 200.392 396.5 198.062C384.68 187.352 375.18 189.022 368 203.062C358.1 208.642 348.77 214.972 340 222.062C337.58 218.222 334.91 214.552 332 211.062C334.17 208.062 336.83 205.562 340 203.562C350.85 196.722 362.19 190.722 374 185.562C381.29 184.052 388.63 184.052 396 185.562C398.7 186.252 400.86 187.752 402.5 190.062C406.25 201.522 403.41 211.352 394 219.562C388.21 221.792 382.54 224.122 377 226.562C366.6 229.242 356.26 232.082 346 235.062Z" fill="#89C24B"/>
<path fill-rule="evenodd" clip-rule="evenodd" d="M125 187.061C122.75 187.481 121.25 188.811 120.5 191.061C119.26 195.341 118.92 199.671 119.5 204.061C122.88 208.981 126.38 213.821 130 218.561C133.57 219.411 136.91 218.911 140 217.061C142.71 219.781 145.71 222.111 149 224.061C148.25 229.021 147.91 234.021 148 239.061C144.66 236.391 140.99 234.221 137 232.561C130.5 224.731 124 216.891 117.5 209.061C112.99 200.281 114.49 192.781 122 186.561C123.25 185.821 124.25 185.991 125 187.061Z" fill="#89C24C"/>
<path fill-rule="evenodd" clip-rule="evenodd" d="M133 187.062C136.26 188.022 139.26 189.522 142 191.562C146.4 196.242 150.9 200.742 155.5 205.062C155.87 207.052 156.71 208.722 158 210.062C156.23 212.622 154.23 214.952 152 217.062C149.38 213.102 146.38 209.442 143 206.062C143.16 203.702 143 201.372 142.5 199.062C140.39 197.182 139.06 194.852 138.5 192.062C136.69 190.262 134.85 188.592 133 187.062Z" fill="#88C24C"/>
<path fill-rule="evenodd" clip-rule="evenodd" d="M371 211.062C368.52 209.012 367.52 206.352 368 203.062C375.18 189.022 384.68 187.352 396.5 198.062C397.17 200.392 397.17 202.732 396.5 205.062C393.25 208.982 389.42 212.152 385 214.562C379.17 217.372 374.51 216.202 371 211.062Z" fill="#52DCC9"/>
<path fill-rule="evenodd" clip-rule="evenodd" d="M377 207.062C384.77 208.292 387.11 205.462 384 198.562C382.37 198.072 380.7 197.902 379 198.062C379.65 195.972 381.15 194.972 383.5 195.062C392.41 198.532 393.24 203.362 386 209.562C383.67 210.232 381.33 210.232 379 209.562C378.12 208.852 377.45 208.022 377 207.062Z" fill="#40AACC"/>
<path fill-rule="evenodd" clip-rule="evenodd" d="M379 198.062C380.7 197.902 382.37 198.072 384 198.562C387.11 205.462 384.77 208.292 377 207.062C373.74 205.432 373.24 203.102 375.5 200.062C376.32 198.742 377.48 198.072 379 198.062Z" fill="#070E0F"/>
<path fill-rule="evenodd" clip-rule="evenodd" d="M368 203.062C367.52 206.352 368.52 209.012 371 211.062C361.19 215.552 352.19 221.212 344 228.062C342.68 226.102 341.35 224.102 340 222.062C348.77 214.972 358.1 208.642 368 203.062Z" fill="#B5DA8E"/>
<path fill-rule="evenodd" clip-rule="evenodd" d="M143 206.062C146.38 209.442 149.38 213.102 152 217.062C151.24 219.582 150.24 221.912 149 224.062C145.71 222.112 142.71 219.782 140 217.062C142.38 213.802 143.38 210.132 143 206.062Z" fill="#B6DA8F"/>
<path fill-rule="evenodd" clip-rule="evenodd" d="M132.999 187.062C134.849 188.592 136.689 190.262 138.499 192.062C139.059 194.852 140.389 197.182 142.499 199.062C142.999 201.372 143.159 203.702 142.999 206.062C143.379 210.132 142.379 213.802 139.999 217.062C136.909 218.912 133.569 219.412 129.999 218.562C126.379 213.822 122.879 208.982 119.499 204.062C118.919 199.672 119.259 195.342 120.499 191.062C121.249 188.812 122.749 187.482 124.999 187.062C127.599 186.032 130.269 186.032 132.999 187.062Z" fill="#59DCCA"/>
<path fill-rule="evenodd" clip-rule="evenodd" d="M138 200.062C138.6 205.542 136.27 208.872 131 210.062C125.29 209.182 123.79 206.182 126.5 201.062C130.1 197.502 133.93 197.172 138 200.062Z" fill="#070E10"/>
<path fill-rule="evenodd" clip-rule="evenodd" d="M138 200.062C133.93 197.172 130.1 197.502 126.5 201.062C123.79 206.182 125.29 209.182 131 210.062C128.19 211.732 126.02 211.062 124.5 208.062C124.21 205.672 123.71 203.342 123 201.062C124.54 198.472 126.21 195.972 128 193.562C133.54 192.262 136.87 194.432 138 200.062Z" fill="#41ACCD"/>
<path fill-rule="evenodd" clip-rule="evenodd" d="M151 257.062C148.33 258.732 145.67 260.392 143 262.062C135.14 257.872 127.8 252.872 121 247.062C120.87 238.442 116.71 233.112 108.5 231.062C99.3697 234.042 95.1997 240.382 95.9997 250.062C96.1497 251.112 95.9797 252.112 95.4997 253.062C93.0897 249.422 92.4297 245.422 93.4997 241.062C96.2097 237.472 99.0497 233.972 102 230.562C104.14 229.162 106.47 228.322 109 228.062C126.45 232.782 140.45 242.452 151 257.062Z" fill="#89C24B"/>
<path fill-rule="evenodd" clip-rule="evenodd" d="M121 247.062C120.41 251.912 118.08 255.582 114 258.062C110.4 258.902 106.73 259.242 103 259.062C99.4799 256.892 97.1499 253.892 95.9999 250.062C95.1999 240.382 99.3699 234.042 108.5 231.062C116.71 233.112 120.87 238.442 121 247.062Z" fill="#50DBC8"/>
<path fill-rule="evenodd" clip-rule="evenodd" d="M115 242.061C112.05 241.781 109.22 242.121 106.5 243.061C105.83 246.061 105.83 249.061 106.5 252.061C108.38 254.141 110.55 254.471 113 253.061C114.6 250.251 115.6 247.251 116 244.061C118.68 248.211 118.01 252.041 114 255.561C104.93 256.941 101.09 253.111 102.5 244.061C106.06 235.941 110.22 235.271 115 242.061Z" fill="#4CACCC"/>
<path fill-rule="evenodd" clip-rule="evenodd" d="M416 239.062C413.64 238.902 411.31 239.062 409 239.562C408.44 239.942 408.11 240.442 408 241.062C407 241.062 406 241.062 405 241.062C397.35 240.702 392.35 244.032 390 251.062C379.14 253.562 368.14 255.232 357 256.062C357 257.062 357 258.062 357 259.062C358.96 259.692 360.96 260.362 363 261.062C372.16 258.572 381.49 257.572 391 258.062C394.94 264.112 400.27 265.612 407 262.562C409.95 259.662 413.28 257.322 417 255.562C418.94 254.132 420.27 252.292 421 250.062C421.8 248.612 422.3 246.942 422.5 245.062C423.61 250.172 422.61 254.842 419.5 259.062C415.09 262.852 410.26 266.022 405 268.562C391.51 269.932 378.01 270.432 364.5 270.062C359.12 269.602 354.46 267.602 350.5 264.062C349.79 261.592 350.13 259.262 351.5 257.062C363.99 247.222 378.16 241.062 394 238.562C399.85 238.232 405.68 237.732 411.5 237.062C413.51 236.872 415.01 237.532 416 239.062Z" fill="#89C24B"/>
<path fill-rule="evenodd" clip-rule="evenodd" d="M115.001 242.061C115.331 242.731 115.671 243.391 116.001 244.061C115.601 247.251 114.601 250.251 113.001 253.061C110.551 254.471 108.381 254.141 106.501 252.061C105.831 249.061 105.831 246.061 106.501 243.061C109.221 242.121 112.051 241.781 115.001 242.061Z" fill="#070C0F"/>
<path fill-rule="evenodd" clip-rule="evenodd" d="M121 247.062C127.8 252.872 135.14 257.872 143 262.062C141.02 263.702 139.02 265.362 137 267.062C129.49 263.812 121.82 260.812 114 258.062C118.08 255.582 120.41 251.912 121 247.062Z" fill="#B6D98E"/>
<path fill-rule="evenodd" clip-rule="evenodd" d="M313.999 287.062C318.009 304.162 313.679 318.992 300.999 331.562C263.999 353.412 226.999 353.412 189.999 331.562C177.279 320.562 172.939 307.062 176.999 291.062C176.409 297.002 178.739 298.502 183.999 295.562C186.169 293.392 188.329 291.232 190.499 289.062C190.169 293.032 190.169 297.032 190.499 301.062C196.869 319.202 208.369 323.362 224.999 313.562C231.779 307.482 234.609 299.982 233.499 291.062C231.009 286.922 229.009 282.592 227.499 278.062C225.919 276.522 224.089 275.352 221.999 274.562C204.589 270.532 189.929 275.032 177.999 288.062C185.559 270.582 198.559 259.082 216.999 253.562C251.489 241.812 281.489 248.982 306.999 275.062C310.189 278.582 312.519 282.582 313.999 287.062Z" fill="#FBFBFC"/>
<path fill-rule="evenodd" clip-rule="evenodd" d="M390 251.062C389.8 253.512 390.13 255.842 391 258.062C381.49 257.572 372.16 258.572 363 261.062C360.96 260.362 358.96 259.692 357 259.062C357 258.062 357 257.062 357 256.062C368.14 255.232 379.14 253.562 390 251.062Z" fill="#B5D98C"/>
<path fill-rule="evenodd" clip-rule="evenodd" d="M416 239.062C417.33 240.492 418.83 241.832 420.5 243.062C421 245.372 421.16 247.702 421 250.062C420.27 252.292 418.94 254.132 417 255.562C413.28 257.322 409.95 259.662 407 262.562C400.27 265.612 394.94 264.112 391 258.062C390.13 255.842 389.8 253.512 390 251.062C392.35 244.032 397.35 240.702 405 241.062C403.81 241.832 402.81 242.832 402 244.062C395.95 243.612 393.78 246.282 395.5 252.062C399.01 256.742 403.51 258.412 409 257.062C417.73 254.562 419.06 250.062 413 243.562C411.42 242.472 409.76 241.632 408 241.062C408.11 240.442 408.44 239.942 409 239.562C411.31 239.062 413.64 238.902 416 239.062Z" fill="#53D8C4"/>
<path fill-rule="evenodd" clip-rule="evenodd" d="M402 244.061C404.34 246.391 407.01 248.391 410 250.061C411.17 252.571 410.84 254.901 409 257.061C403.51 258.411 399.01 256.741 395.5 252.061C393.78 246.281 395.95 243.611 402 244.061Z" fill="#030808"/>
<path fill-rule="evenodd" clip-rule="evenodd" d="M405 241.062C406 241.062 407 241.062 408 241.062C409.76 241.632 411.42 242.472 413 243.562C419.06 250.062 417.73 254.562 409 257.062C410.84 254.902 411.17 252.572 410 250.062C407.01 248.392 404.34 246.392 402 244.062C402.81 242.832 403.81 241.832 405 241.062Z" fill="#40A9CC"/>
<path fill-rule="evenodd" clip-rule="evenodd" d="M114 258.062C121.82 260.812 129.49 263.812 137 267.062C135.06 269.942 133.4 272.942 132 276.062C120.63 273.212 110.96 267.542 103 259.062C106.73 259.242 110.4 258.902 114 258.062Z" fill="#89C24B"/>
<path fill-rule="evenodd" clip-rule="evenodd" d="M177 291.061C176.76 289.771 177.1 288.771 178 288.061C189.93 275.031 204.59 270.531 222 274.561C224.09 275.351 225.92 276.521 227.5 278.061C229.01 282.591 231.01 286.921 233.5 291.061C234.61 299.981 231.78 307.481 225 313.561C208.37 323.361 196.87 319.201 190.5 301.061C190.17 297.031 190.17 293.031 190.5 289.061C188.33 291.231 186.17 293.391 184 295.561C178.74 298.501 176.41 297.001 177 291.061Z" fill="#040404"/>
<path fill-rule="evenodd" clip-rule="evenodd" d="M314 287.062C314.21 289.692 313.04 291.352 310.5 292.062C306.24 291.342 302.4 289.682 299 287.062C298.64 295.522 296.14 303.522 291.5 311.062C280.92 318.952 270.25 318.952 259.5 311.062C251.64 296.042 254.14 283.212 267 272.562C271.67 271.892 276.33 271.892 281 272.562C286.58 274.512 292.24 276.182 298 277.562C303.22 280.952 308.55 284.122 314 287.062Z" fill="#050505"/>
<path fill-rule="evenodd" clip-rule="evenodd" d="M115 288.061C113.67 288.061 112.33 288.061 111 288.061C108.65 282.221 104.32 280.051 97.9995 281.561C91.5295 286.221 90.3595 292.051 94.4995 299.061C99.9195 303.431 105.75 304.101 112 301.061C111.78 305.611 109.45 308.281 105 309.061C92.1795 306.081 86.6795 298.081 88.4995 285.061C91.9495 278.091 97.4495 275.591 105 277.561C110.62 279.011 113.96 282.511 115 288.061Z" fill="#45D9C5"/>
<path fill-rule="evenodd" clip-rule="evenodd" d="M268 278.062C273 276.802 275.67 278.632 276 283.562C275.63 286.422 275.13 289.252 274.5 292.062C271.82 295.392 268.65 295.892 265 293.562C260.97 290.392 260.13 286.562 262.5 282.062C264.67 281.072 266.5 279.742 268 278.062Z" fill="#F6F6F6"/>
<path fill-rule="evenodd" clip-rule="evenodd" d="M217 280.062C222.66 279.722 225.32 282.382 225 288.062C225.02 293.682 222.36 297.352 217 299.062C209.51 295.102 208.34 289.762 213.5 283.062C214.65 281.922 215.81 280.922 217 280.062Z" fill="#F3F3F3"/>
<path fill-rule="evenodd" clip-rule="evenodd" d="M111 288.061C112.33 288.061 113.67 288.061 115 288.061C115 288.731 115.33 289.061 116 289.061C116 289.731 116 290.391 116 291.061C116.29 294.311 115.63 297.311 114 300.061C113.33 300.391 112.67 300.731 112 301.061C105.75 304.101 99.9196 303.431 94.4996 299.061C90.3596 292.051 91.5296 286.221 97.9996 281.561C104.32 280.051 108.65 282.221 111 288.061Z" fill="#4BADCD"/>
<path fill-rule="evenodd" clip-rule="evenodd" d="M359 317.061C359.63 314.161 360.63 311.501 362 309.061C370.37 307.501 378.71 305.831 387 304.061C387.78 306.671 389.44 308.511 392 309.561C403.49 311.761 409.99 307.261 411.5 296.061C411.12 294.621 410.29 293.621 409 293.061C407.38 292.521 405.72 292.191 404 292.061C397.87 288.661 392.53 289.661 388 295.061C387.35 294.761 386.68 294.421 386 294.061C378.19 297.341 370.19 300.011 362 302.061C361.95 298.361 361.61 294.701 361 291.061C369.01 289.281 377.35 287.781 386 286.561C386.83 285.651 387.83 284.981 389 284.561C395.04 283.991 401.04 284.321 407 285.561C410.57 288.811 414.41 291.641 418.5 294.061C422.58 304.071 419.41 310.911 409 314.561C399.49 315.801 390.16 317.801 381 320.561C374.67 321.231 368.33 321.231 362 320.561C360.07 320.141 359.07 318.971 359 317.061Z" fill="#89C24B"/>
<path fill-rule="evenodd" clip-rule="evenodd" d="M111 288.062C114.72 296.182 112.06 299.682 103 298.562C100.13 297.172 98.7996 294.832 98.9996 291.562C98.6296 287.782 100.3 285.622 104 285.062C106.47 285.802 108.8 286.802 111 288.062Z" fill="#030608"/>
<path fill-rule="evenodd" clip-rule="evenodd" d="M130 290.062C129.82 293.792 130.16 297.462 131 301.062C124.85 299.212 119.85 295.882 116 291.062C116 290.392 116 289.732 116 289.062C116 288.062 116 287.062 116 286.062C120.85 286.792 125.52 288.122 130 290.062Z" fill="#8AC24B"/>
<path fill-rule="evenodd" clip-rule="evenodd" d="M404 292.061C405.72 292.191 407.38 292.521 409 293.061C410.51 300.721 407.51 305.391 400 307.061C397.81 306.801 396.14 305.801 395 304.061C397.81 303.431 400.31 302.101 402.5 300.061C403.17 298.731 403.17 297.391 402.5 296.061C400.85 295.161 399.35 294.161 398 293.061C399.88 292.221 401.88 291.891 404 292.061Z" fill="#40A8CB"/>
<path fill-rule="evenodd" clip-rule="evenodd" d="M116 291.062C119.85 295.882 124.85 299.212 131 301.062C131.67 303.062 132.33 305.062 133 307.062C126.24 305.702 119.9 303.362 114 300.062C115.63 297.312 116.29 294.312 116 291.062Z" fill="#B3D98F"/>
<path fill-rule="evenodd" clip-rule="evenodd" d="M388 295.062C387.2 297.992 386.87 300.992 387 304.062C378.71 305.832 370.37 307.502 362 309.062C362 306.732 362 304.392 362 302.062C370.19 300.012 378.19 297.342 386 294.062C386.68 294.422 387.35 294.762 388 295.062Z" fill="#B6DA8E"/>
<path fill-rule="evenodd" clip-rule="evenodd" d="M114 300.062C119.9 303.362 126.24 305.702 133 307.062C135.26 311.922 138.26 316.252 142 320.062C134.28 319.332 126.61 318.162 119 316.562C113.97 314.512 109.3 312.012 105 309.062C109.45 308.282 111.78 305.612 112 301.062C112.67 300.732 113.33 300.392 114 300.062Z" fill="#89C24B"/>
<path fill-rule="evenodd" clip-rule="evenodd" d="M404 292.062C401.88 291.892 399.88 292.222 398 293.062C392.11 292.782 389.61 295.452 390.5 301.062C391.63 302.702 393.13 303.702 395 304.062C396.14 305.802 397.81 306.802 400 307.062C407.51 305.392 410.51 300.722 409 293.062C410.29 293.622 411.12 294.622 411.5 296.062C409.99 307.262 403.49 311.762 392 309.562C389.44 308.512 387.78 306.672 387 304.062C386.87 300.992 387.2 297.992 388 295.062C392.53 289.662 397.87 288.662 404 292.062Z" fill="#4DD8C4"/>
<path fill-rule="evenodd" clip-rule="evenodd" d="M397.999 293.061C399.349 294.161 400.849 295.161 402.499 296.061C403.169 297.391 403.169 298.731 402.499 300.061C400.309 302.101 397.809 303.431 394.999 304.061C393.129 303.701 391.629 302.701 390.499 301.061C389.609 295.451 392.109 292.781 397.999 293.061Z" fill="#04090A"/>
<path fill-rule="evenodd" clip-rule="evenodd" d="M257 320.062C259.46 319.792 261.12 320.792 262 323.062C260.18 327.192 257.52 330.692 254 333.562C252.33 334.232 250.67 334.232 249 333.562C245.65 331.632 242.15 330.132 238.5 329.062C236.92 324.462 238.42 322.632 243 323.562C245.44 324.862 247.94 326.032 250.5 327.062C253.12 325.182 255.28 322.842 257 320.062Z" fill="#0D0D0D"/>
<path fill-rule="evenodd" clip-rule="evenodd" d="M214 380.062C217.13 381.582 220.46 382.252 224 382.062C225.61 389.402 226.78 397.062 227.5 405.062C231.75 407.942 235.92 410.942 240 414.062C241.33 416.062 241.33 418.062 240 420.062C238.89 420.582 237.73 420.922 236.5 421.062C233.29 420.182 230.29 418.852 227.5 417.062C225.19 419.002 223.36 421.332 222 424.062C219.53 425.572 217.36 425.232 215.5 423.062C215.34 420.562 215.18 418.232 215 416.062C211.69 419.552 207.69 421.052 203 420.562C201.7 419.762 201.03 418.592 201 417.062C203.44 411.972 207.44 408.632 213 407.062C213.52 397.902 213.85 388.902 214 380.062Z" fill="#FDEA41"/>
<path fill-rule="evenodd" clip-rule="evenodd" d="M277 382.062C278 382.062 279 382.062 280 382.062C282.11 383.032 284.44 383.362 287 383.062C287.96 389.822 289.46 396.492 291.5 403.062C296.45 406.352 301.12 410.012 305.5 414.062C306.52 418.012 305.02 420.342 301 421.062C297.43 419.492 294.09 417.492 291 415.062C289.17 417.062 287.51 419.232 286 421.562C281.34 422.752 278.68 420.912 278 416.062C275.59 418.482 272.92 420.482 270 422.062C266.35 421.072 265.19 418.742 266.5 415.062C270.39 410.172 274.56 405.672 279 401.562C278.33 395.832 277.33 390.172 276 384.562C276.03 383.492 276.36 382.662 277 382.062Z" fill="#FDEA41"/>
</svg>
