<svg width="500" height="500" viewBox="0 0 500 500" fill="none" xmlns="http://www.w3.org/2000/svg">
<path fill-rule="evenodd" clip-rule="evenodd" d="M264 127.062C260.05 130.002 255.72 130.662 251 129.062C243.88 125.132 241.38 119.132 243.5 111.062C244.55 104.672 248.22 101.012 254.5 100.062C259.07 101.692 263.57 103.532 268 105.562C273.9 113.972 272.56 121.142 264 127.062Z" fill="#F44638"/>
<path fill-rule="evenodd" clip-rule="evenodd" d="M264 127.062C265.82 137.702 268.32 148.372 271.5 159.062C272 162.712 272.17 166.382 272 170.062C283.02 171.312 294.02 172.312 305 173.062C330.73 193.872 342.23 220.872 339.5 254.062C331.93 283.642 312.93 297.972 282.5 297.062C267 296.422 251.5 295.922 236 295.562C217.22 294.672 201.05 287.842 187.5 275.062C173.79 257.832 169.79 238.502 175.5 217.062C181.68 190.712 197.85 174.712 224 169.062C229.92 167.822 235.92 166.822 242 166.062C246.38 154.032 249.38 141.702 251 129.062C255.72 130.662 260.05 130.002 264 127.062Z" fill="#FDEA3E"/>
<path fill-rule="evenodd" clip-rule="evenodd" d="M224 169.062C197.85 174.712 181.68 190.712 175.5 217.062C169.79 238.502 173.79 257.832 187.5 275.062C201.05 287.842 217.22 294.672 236 295.562C251.5 295.922 267 296.422 282.5 297.062C312.93 297.972 331.93 283.642 339.5 254.062C342.23 220.872 330.73 193.872 305 173.062C317.29 174.382 329.63 175.222 342 175.562C348.27 177.372 354.6 178.872 361 180.062C364.45 212.292 366.45 244.632 367 277.062C368.29 276.822 369.29 277.162 370 278.062C368.02 277.942 366.35 278.612 365 280.062C354.01 299.222 338.68 313.722 319 323.562C315.5 323.662 312.17 322.832 309 321.062C304.42 322.432 302.92 325.432 304.5 330.062C308.31 331.202 310.81 333.702 312 337.562C319.45 340.842 323.45 338.512 324 330.562C327.12 329.502 330.12 328.172 333 326.562C344.46 318.272 354.79 308.772 364 298.062C362.72 314.072 361.22 330.072 359.5 346.062C358.65 347.752 357.82 349.422 357 351.062C337.73 353.152 318.39 354.152 299 354.062C295.67 354.392 292.33 354.732 289 355.062C267.34 353.882 245.67 353.882 224 355.062C220 355.062 216 355.062 212 355.062C194.67 354.252 177.34 353.422 160 352.562C154.68 351.282 149.35 350.122 144 349.062C144 334.392 144 319.732 144 305.062C150.53 314.592 159.03 321.922 169.5 327.062C170.62 331.802 173.12 335.632 177 338.562C180.14 339.602 182.64 338.772 184.5 336.062C186.03 330.312 187.86 324.642 190 319.062C189.72 316.952 188.56 315.622 186.5 315.062C183.28 317.002 179.94 318.672 176.5 320.062C172.34 318.902 168.51 317.072 165 314.562C156.62 306.032 149.62 296.532 144 286.062C146 248.082 149.33 210.082 154 172.062C155.59 171.412 157.25 170.912 159 170.562C180.67 170.232 202.34 169.732 224 169.062Z" fill="#8BC24A"/>
<path fill-rule="evenodd" clip-rule="evenodd" d="M154 172.061C149.33 210.081 146 248.081 144 286.061C142.14 280.241 140.97 274.241 140.5 268.061C139.24 265.761 137.4 264.931 135 265.561C133.25 267.891 132.25 270.551 132 273.561C132.75 277.081 133.59 280.581 134.5 284.061C137.68 291.081 140.85 298.081 144 305.061C144 319.731 144 334.391 144 349.061C133.34 348.141 123 346.141 113 343.061C113.82 338.911 114.32 334.581 114.5 330.061C114.83 307.061 115.17 284.061 115.5 261.061C119.25 239.501 122.25 217.841 124.5 196.061C126.11 189.421 127.61 182.751 129 176.061C128.96 175.141 128.62 174.481 128 174.061C128.76 173.291 129.76 172.791 131 172.561C138.66 172.061 146.33 171.891 154 172.061Z" fill="#ADE354"/>
<path fill-rule="evenodd" clip-rule="evenodd" d="M127.999 174.062C128.619 174.482 128.959 175.142 128.999 176.062C127.609 182.752 126.109 189.422 124.499 196.062C122.249 217.842 119.249 239.502 115.499 261.062C115.169 284.062 114.829 307.062 114.499 330.062C114.319 334.582 113.819 338.912 112.999 343.062C106.369 341.502 99.6993 340.002 92.9993 338.562C91.1793 338.362 89.8493 337.532 88.9993 336.062C87.9093 314.412 87.7493 292.742 88.4993 271.062C92.3393 243.362 96.1693 215.692 99.9993 188.062C108.739 182.362 118.069 177.692 127.999 174.062Z" fill="#62DB4E"/>
<path fill-rule="evenodd" clip-rule="evenodd" d="M325 220.061C323.54 219.101 322.21 217.941 321 216.561C313.88 213.841 306.88 210.841 300 207.561C286.06 202.951 276.22 207.451 270.5 221.061C263.59 242.591 271.25 254.591 293.5 257.061C304.61 254.621 311.94 247.951 315.5 237.061C316.41 233.421 317.25 229.751 318 226.061C321.1 228.601 324.43 230.601 328 232.061C332.2 253.651 325.2 270.491 307 282.561C299.07 285.191 290.9 286.351 282.5 286.061C267 285.451 251.5 284.951 236 284.561C198.25 281.001 181.25 260.501 185 223.061C189.48 221.581 193.48 219.251 197 216.061C197.33 216.561 197.67 217.061 198 217.561C195.08 229.311 198.08 239.311 207 247.561C227.13 253.491 240.13 246.321 246 226.061C245.02 221.601 243.35 217.441 241 213.561C242.02 212.511 242.18 211.341 241.5 210.061C237.46 203.711 231.63 200.211 224 199.561C212.17 198.441 201.17 200.941 191 207.061C194.3 197.261 200.63 190.091 210 185.561C225.08 179.101 240.74 176.441 257 177.561C271.05 179.751 285.05 181.421 299 182.561C309.12 190.661 316.95 200.501 322.5 212.061C323.64 214.661 324.47 217.321 325 220.061Z" fill="#FDFDFC"/>
<path fill-rule="evenodd" clip-rule="evenodd" d="M361 180.062C369.99 180.812 378.66 182.812 387 186.062C388.02 213.262 389.69 240.432 392 267.562C390.99 294.812 387.33 321.642 381 348.062C373.09 349.712 365.09 350.712 357 351.062C357.82 349.422 358.65 347.752 359.5 346.062C361.22 330.072 362.72 314.072 364 298.062C367.12 292.652 370.12 287.152 373 281.562C372.52 279.922 371.52 278.752 370 278.062C369.29 277.162 368.29 276.822 367 277.062C366.45 244.632 364.45 212.292 361 180.062Z" fill="#ADE354"/>
<path fill-rule="evenodd" clip-rule="evenodd" d="M387 186.062C396.67 189.902 406.01 194.232 415 199.062C415.32 220.402 415.49 241.732 415.5 263.062C412.55 288.772 409.38 314.432 406 340.062C398.54 345.022 390.2 347.682 381 348.062C387.33 321.642 390.99 294.812 392 267.562C389.69 240.432 388.02 213.262 387 186.062Z" fill="#62DB4E"/>
<path fill-rule="evenodd" clip-rule="evenodd" d="M99.9999 188.062C96.1699 215.692 92.3399 243.362 88.4999 271.062C87.7499 292.742 87.9099 314.412 88.9999 336.062C75.4199 328.982 65.5899 318.322 59.4999 304.062C57.9099 294.292 55.9099 284.632 53.4999 275.062C52.0399 259.482 54.3699 244.482 60.4999 230.062C64.9299 222.192 69.5999 214.532 74.4999 207.062C81.7699 198.942 90.2699 192.612 99.9999 188.062Z" fill="#4DAF50"/>
<path fill-rule="evenodd" clip-rule="evenodd" d="M185 223.062C182.32 221.522 181.48 219.192 182.5 216.062C184.83 212.562 187.67 209.562 191 207.062C201.17 200.942 212.17 198.442 224 199.562C231.63 200.212 237.46 203.712 241.5 210.062C242.18 211.342 242.02 212.512 241 213.562C243.35 217.442 245.02 221.602 246 226.062C240.13 246.322 227.13 253.492 207 247.562C198.08 239.312 195.08 229.312 198 217.562C197.67 217.062 197.33 216.562 197 216.062C193.48 219.252 189.48 221.582 185 223.062Z" fill="#050505"/>
<path fill-rule="evenodd" clip-rule="evenodd" d="M415 199.062C417.81 199.392 420.48 200.222 423 201.562C430.13 206.352 436.29 212.192 441.5 219.062C447.61 240.392 448.44 261.892 444 283.562C445.07 287.682 445.24 291.852 444.5 296.062C439.43 312.382 430.26 325.882 417 336.562C413.47 338.192 409.8 339.362 406 340.062C409.38 314.432 412.55 288.772 415.5 263.062C415.49 241.732 415.32 220.402 415 199.062Z" fill="#4DAF50"/>
<path fill-rule="evenodd" clip-rule="evenodd" d="M325.001 220.062C327.641 222.532 330.481 224.862 333.501 227.062C334.461 231.492 332.621 233.152 328.001 232.062C324.431 230.602 321.101 228.602 318.001 226.062C317.251 229.752 316.411 233.422 315.501 237.062C311.941 247.952 304.611 254.622 293.501 257.062C271.251 254.592 263.591 242.592 270.501 221.062C276.221 207.452 286.061 202.952 300.001 207.562C306.881 210.842 313.881 213.842 321.001 216.562C322.211 217.942 323.541 219.102 325.001 220.062Z" fill="#050505"/>
<path fill-rule="evenodd" clip-rule="evenodd" d="M226 209.061C232.71 207.941 236.38 210.771 237 217.561C235.44 223.201 231.94 227.031 226.5 229.061C220.52 226.701 218.52 222.371 220.5 216.061C222.17 213.561 224 211.231 226 209.061Z" fill="#F6F6F6"/>
<path fill-rule="evenodd" clip-rule="evenodd" d="M284 212.062C289.44 211.012 292.44 213.182 293 218.562C292.32 221.762 291.49 224.922 290.5 228.062C287.14 231.652 283.47 231.982 279.5 229.062C278.3 226.542 277.13 224.042 276 221.562C276.13 219.932 276.63 218.432 277.5 217.062C279.57 215.122 281.74 213.462 284 212.062Z" fill="#F7F7F7"/>
<path fill-rule="evenodd" clip-rule="evenodd" d="M267 257.062C270 256.892 272 258.232 273 261.062C270.52 265.372 267.19 268.872 263 271.562C261.33 272.232 259.67 272.232 258 271.562C254.49 269.312 250.83 267.312 247 265.562C244.11 262.392 244.78 260.222 249 259.062C252.82 260.472 256.48 262.142 260 264.062C262.99 262.452 265.32 260.122 267 257.062Z" fill="#0E0E0E"/>
<path fill-rule="evenodd" clip-rule="evenodd" d="M144 286.062C149.62 296.532 156.62 306.032 165 314.562C168.51 317.072 172.34 318.902 176.5 320.062C179.94 318.672 183.28 317.002 186.5 315.062C188.56 315.622 189.72 316.952 190 319.062C187.86 324.642 186.03 330.312 184.5 336.062C182.64 338.772 180.14 339.602 177 338.562C173.12 335.632 170.62 331.802 169.5 327.062C159.03 321.922 150.53 314.592 144 305.062C140.85 298.082 137.68 291.082 134.5 284.062C133.59 280.582 132.75 277.082 132 273.562C132.25 270.552 133.25 267.892 135 265.562C137.4 264.932 139.24 265.762 140.5 268.062C140.97 274.242 142.14 280.242 144 286.062Z" fill="#040602"/>
<path fill-rule="evenodd" clip-rule="evenodd" d="M370 278.062C371.52 278.752 372.52 279.922 373 281.562C370.12 287.152 367.12 292.652 364 298.062C354.79 308.772 344.46 318.272 333 326.562C330.12 328.172 327.12 329.502 324 330.562C323.45 338.512 319.45 340.842 312 337.562C310.81 333.702 308.31 331.202 304.5 330.062C302.92 325.432 304.42 322.432 309 321.062C312.17 322.832 315.5 323.662 319 323.562C338.68 313.722 354.01 299.222 365 280.062C366.35 278.612 368.02 277.942 370 278.062Z" fill="#050802"/>
<path fill-rule="evenodd" clip-rule="evenodd" d="M212 355.062C216 355.062 220 355.062 224 355.062C223.77 364.752 224.11 374.422 225 384.062C224.55 387.732 224.05 391.402 223.5 395.062C221.86 397.372 219.7 398.872 217 399.562C211.67 400.232 206.33 400.232 201 399.562C194.89 398.472 192.39 394.972 193.5 389.062C194.71 387.512 196.21 386.342 198 385.562C203.04 384.902 208.04 385.062 213 386.062C212.37 375.742 212.03 365.412 212 355.062Z" fill="#9C29B0"/>
<path fill-rule="evenodd" clip-rule="evenodd" d="M299 354.062C299.92 364.772 300.25 375.432 300 386.062C304.61 384.952 309.28 384.782 314 385.562C316.01 386.242 317.35 387.572 318 389.562C317.04 392.452 315.71 395.122 314 397.562C307.44 399.192 300.78 399.852 294 399.562C293.37 398.812 292.87 397.982 292.5 397.062C290.51 383.172 289.34 369.172 289 355.062C292.33 354.732 295.67 354.392 299 354.062Z" fill="#9C2AB0"/>
</svg>
