<svg width="500" height="500" viewBox="0 0 500 500" fill="none" xmlns="http://www.w3.org/2000/svg">
<path fill-rule="evenodd" clip-rule="evenodd" d="M238 74.0613C273.22 70.0113 305.89 77.1813 336 95.5613C348.22 106.771 359.38 118.941 369.5 132.061C380.35 150.281 388.69 169.611 394.5 190.061C396.25 204.681 397.41 219.351 398 234.061C396.73 243.361 396.23 252.701 396.5 262.061C403.41 280.091 407.57 298.751 409 318.061C416.38 318.931 419.88 322.931 419.5 330.061C418.03 331.711 416.2 332.711 414 333.061C410.18 331.141 406.18 329.811 402 329.061C398.46 329.491 394.96 330.151 391.5 331.061C388.18 330.431 386.85 328.431 387.5 325.061C389.19 321.871 391.69 319.531 395 318.061C396.17 312.041 396 306.041 394.5 300.061C391.96 292.771 389.63 285.441 387.5 278.061C379.48 296.741 367.65 312.581 352 325.561C342.5 331.811 332.83 337.811 323 343.561C323.63 344.311 324.13 345.141 324.5 346.061C325.07 366.521 326.9 386.861 330 407.061C336.54 405.151 343.21 404.321 350 404.561C355.7 407.391 356.37 411.061 352 415.561C345.75 419.601 338.92 422.101 331.5 423.061C327.76 422.041 324.09 420.701 320.5 419.061C319.83 417.731 319.17 416.391 318.5 415.061C316.27 393.001 313.6 371.001 310.5 349.061C309.78 348.501 308.94 348.171 308 348.061C283.15 357.251 257.49 361.091 231 359.561C225.24 359.481 219.74 358.311 214.5 356.061C215.14 360.311 215.64 364.641 216 369.061C215.83 372.081 215.5 375.081 215 378.061C216.01 391.161 217.67 404.161 220 417.061C219.64 419.591 218.3 421.431 216 422.561C208.07 427.701 199.74 428.371 191 424.561C186.25 421.331 184.42 416.831 185.5 411.061C186 410.561 186.5 410.061 187 409.561C191.99 409.061 196.99 408.891 202 409.061C202.94 389.821 201.44 370.821 197.5 352.061C189.12 347.961 180.96 343.461 173 338.561C162.71 330.601 152.71 322.271 143 313.561C132.52 302.751 124.02 290.591 117.5 277.061C111.15 290.761 105.65 304.761 101 319.061C106.33 320.221 110 323.381 112 328.561C111.74 329.821 111.07 330.821 110 331.561C104.98 332.221 99.9803 332.061 95.0003 331.061C91.2403 332.111 87.5703 333.441 84.0003 335.061C79.7203 333.221 78.8903 330.221 81.5003 326.061C83.5003 324.061 85.5003 322.061 87.5003 320.061C90.6903 301.971 96.3603 284.641 104.5 268.061C106.5 265.391 108.5 262.731 110.5 260.061C109.96 250.571 109.13 241.071 108 231.561C104.53 173.181 126.53 127.181 174 93.5613C181.1 89.6813 188.43 86.3513 196 83.5613C209.93 79.5413 223.93 76.3813 238 74.0613Z" fill="#FDFDFE"/>
<path fill-rule="evenodd" clip-rule="evenodd" d="M280.001 89.0615C299.531 89.1815 316.531 95.6815 331.001 108.562C366.071 140.702 384.071 180.702 385.001 228.562C383.591 260.612 371.261 287.612 348.001 309.562C334.651 320.902 319.991 330.242 304.001 337.562C293.031 340.352 282.031 343.022 271.001 345.562C256.341 347.462 241.681 347.462 227.001 345.562C217.291 343.702 208.631 339.702 201.001 333.562C195.831 327.732 190.671 321.892 185.501 316.062C173.781 291.622 175.111 267.962 189.501 245.062C199.511 230.632 213.341 222.132 231.001 219.562C239.591 217.282 248.251 216.782 257.001 218.062C265.911 216.772 274.581 214.602 283.001 211.562C298.521 200.362 309.021 185.532 314.501 167.062C317.001 152.492 314.671 138.832 307.501 126.062C302.471 116.372 295.971 107.872 288.001 100.562C284.211 98.5815 280.381 96.7515 276.501 95.0615C275.421 91.6515 276.591 89.6515 280.001 89.0615Z" fill="#9072BC"/>
<path fill-rule="evenodd" clip-rule="evenodd" d="M293 140.061C290.97 138.381 288.64 137.211 286 136.561C261.57 130.321 253.4 139.161 261.5 163.061C267.3 166.751 273.46 167.591 280 165.561C286.21 159.261 289.04 151.761 288.5 143.061C290.55 144.491 292.71 145.491 295 146.061C299.71 173.501 288.71 190.671 262 197.561C241.69 200.241 225.19 193.741 212.5 178.061C209.04 172.501 206.87 166.501 206 160.061C208.34 158.561 210.17 156.561 211.5 154.061C213.9 172.091 222.9 176.761 238.5 168.061C242.21 163.321 243.54 157.981 242.5 152.061C240.58 149.221 238.91 146.221 237.5 143.061C231.59 139.801 225.42 139.301 219 141.561C214.79 143.501 210.79 145.661 207 148.061C209.22 133.331 216.56 121.831 229 113.561C245.5 104.671 261.83 105.011 278 114.561C284.68 122.081 289.68 130.581 293 140.061Z" fill="#9072BB"/>
<path fill-rule="evenodd" clip-rule="evenodd" d="M293 140.062C295.67 140.392 297.67 141.732 299 144.062C298.18 145.672 296.85 146.342 295 146.062C292.71 145.492 290.55 144.492 288.5 143.062C289.04 151.762 286.21 159.262 280 165.562C273.46 167.592 267.3 166.752 261.5 163.062C253.4 139.162 261.57 130.322 286 136.562C288.64 137.212 290.97 138.382 293 140.062Z" fill="#040405"/>
<path fill-rule="evenodd" clip-rule="evenodd" d="M266.001 139.062C268.221 138.742 270.061 139.402 271.501 141.062C273.981 148.732 271.481 151.732 264.001 150.062C261.281 148.242 260.611 145.902 262.001 143.062C263.691 142.042 265.021 140.712 266.001 139.062Z" fill="#F0F0F0"/>
<path fill-rule="evenodd" clip-rule="evenodd" d="M206 160.062C205 160.062 204 160.062 203 160.062C202.64 155.462 203.97 151.462 207 148.062C210.79 145.662 214.79 143.502 219 141.562C225.42 139.302 231.59 139.802 237.5 143.062C238.91 146.222 240.58 149.222 242.5 152.062C243.54 157.982 242.21 163.322 238.5 168.062C222.9 176.762 213.9 172.092 211.5 154.062C210.17 156.562 208.34 158.562 206 160.062Z" fill="#040405"/>
<path fill-rule="evenodd" clip-rule="evenodd" d="M230 145.062C234.08 144.642 236.08 146.472 236 150.562C235.39 158.232 232.22 159.732 226.5 155.062C225.7 150.992 226.87 147.662 230 145.062Z" fill="#F6F6F6"/>
<path fill-rule="evenodd" clip-rule="evenodd" d="M260.999 170.061C262.849 169.781 264.179 170.451 264.999 172.061C261.759 180.751 256.259 182.421 248.499 177.061C248.039 174.851 249.039 173.851 251.499 174.061C253.649 174.331 255.649 175.001 257.499 176.061C258.929 174.201 260.099 172.201 260.999 170.061Z" fill="#070609"/>
<path fill-rule="evenodd" clip-rule="evenodd" d="M287.999 281.062C279.949 275.322 270.949 272.492 260.999 272.562C252.789 277.852 249.629 285.352 251.499 295.062C252.019 297.592 253.179 299.762 254.999 301.562C268.569 309.372 278.069 305.872 283.499 291.062C283.829 289.392 284.169 287.732 284.499 286.062C286.239 287.322 288.069 288.322 289.999 289.062C289.869 296.702 288.369 304.042 285.499 311.062C265.919 333.672 243.419 337.172 217.999 321.562C213.169 316.732 208.329 311.892 203.499 307.062C200.889 302.182 198.559 297.182 196.499 292.062C195.999 288.742 195.829 285.412 195.999 282.062C199.149 280.482 202.149 278.982 204.999 277.562C201.609 286.662 203.939 293.992 211.999 299.562C226.239 301.962 234.079 296.122 235.499 282.062C234.119 278.102 232.619 274.272 230.999 270.562C226.479 268.062 221.649 266.562 216.499 266.062C211.169 266.892 206.009 268.232 200.999 270.062C208.399 252.192 221.899 243.192 241.499 243.062C261.499 243.892 276.499 252.892 286.499 270.062C288.209 273.792 288.709 277.462 287.999 281.062Z" fill="#FCFCFC"/>
<path fill-rule="evenodd" clip-rule="evenodd" d="M195.999 282.062C194.059 280.552 193.559 278.552 194.499 276.062C196.559 273.832 198.729 271.832 200.999 270.062C206.009 268.232 211.169 266.892 216.499 266.062C221.649 266.562 226.479 268.062 230.999 270.562C232.619 274.272 234.119 278.102 235.499 282.062C234.079 296.122 226.239 301.962 211.999 299.562C203.939 293.992 201.609 286.662 204.999 277.562C202.149 278.982 199.149 280.482 195.999 282.062Z" fill="#050505"/>
<path fill-rule="evenodd" clip-rule="evenodd" d="M288 281.061C289.93 282.711 291.93 284.371 294 286.061C294.93 287.251 295.26 288.581 295 290.061C293.21 290.191 291.54 289.861 290 289.061C288.07 288.321 286.24 287.321 284.5 286.061C284.17 287.731 283.83 289.391 283.5 291.061C278.07 305.871 268.57 309.371 255 301.561C253.18 299.761 252.02 297.591 251.5 295.061C249.63 285.351 252.79 277.851 261 272.561C270.95 272.491 279.95 275.321 288 281.061Z" fill="#060606"/>
<path fill-rule="evenodd" clip-rule="evenodd" d="M223 273.062C229.75 273.552 231.58 276.892 228.5 283.062C223.43 287.752 220.27 286.752 219 280.062C219.47 277.252 220.81 274.922 223 273.062Z" fill="#F6F6F6"/>
<path fill-rule="evenodd" clip-rule="evenodd" d="M262 276.061C265.6 275.501 267.6 277.001 268 280.561C267.2 282.711 266.37 284.881 265.5 287.061C260.56 289.321 257.39 287.821 256 282.561C256.9 279.301 258.9 277.131 262 276.061Z" fill="#F5F5F5"/>
<path fill-rule="evenodd" clip-rule="evenodd" d="M249 306.062C250.33 306.062 251.67 306.062 253 306.062C251.4 314.822 246.73 316.992 239 312.562C237.44 311.622 236.11 310.452 235 309.062C235.67 307.612 236.84 306.952 238.5 307.062C240.77 307.832 242.94 308.832 245 310.062C247.22 309.642 248.55 308.312 249 306.062Z" fill="#0E0E0E"/>
</svg>
