<svg width="500" height="500" viewBox="0 0 500 500" fill="none" xmlns="http://www.w3.org/2000/svg">
<path fill-rule="evenodd" clip-rule="evenodd" d="M343 173.061C342.55 174.021 341.88 174.851 341 175.561C306.07 181.611 270.9 184.441 235.5 184.061C220.35 182.321 205.18 180.821 190 179.561C178.12 175.431 166.12 171.601 154 168.061C150.71 156.911 149.71 145.571 151 134.061C145.43 134.041 140.1 132.871 135 130.561C123.54 124.441 113.21 116.771 104 107.561C98.0402 108.031 92.0402 108.031 86.0002 107.561C81.3102 104.871 80.9702 101.871 85.0002 98.561C90.0502 97.501 95.0502 96.171 100 94.561C101.65 92.071 103.82 90.231 106.5 89.061C115.26 90.061 117.42 94.561 113 102.561C124.2 112.501 137.2 119.331 152 123.061C156.7 106.181 166.04 92.341 180 81.561C196.4 72.651 213.74 66.311 232 62.561C262.79 58.981 291.46 64.981 318 80.561C326.54 87.431 334.04 95.261 340.5 104.061C345.67 113.751 348.17 124.081 348 135.061C354.94 133.101 361.6 130.271 368 126.561C374.75 119.801 382.09 113.801 390 108.561C384.14 106.731 381.64 102.901 382.5 97.061C385 95.081 387.83 94.581 391 95.561C394.79 97.201 398.46 99.031 402 101.061C404.13 100.161 406.13 98.991 408 97.561C415 96.231 418.17 99.071 417.5 106.061C415.77 108.181 413.6 109.681 411 110.561C406.33 111.561 401.67 112.561 397 113.561C388.33 120.891 379.67 128.231 371 135.561C364.12 138.841 357.12 141.841 350 144.561C349.95 154.611 347.61 164.111 343 173.061Z" fill="#FCFCFC"/>
<path fill-rule="evenodd" clip-rule="evenodd" d="M304 131.061C301.71 135.021 298.71 138.351 295 141.061C270.57 146.801 259.74 137.131 262.5 112.061C265.54 99.4809 273.37 93.6509 286 94.5609C293.34 96.5609 300.67 98.5609 308 100.561C313.02 103.591 318.02 106.591 323 109.561C325.67 112.411 325 114.251 321 115.061C316.23 114.831 312.06 113.161 308.5 110.061C307.87 112.271 308.04 114.441 309 116.561C307.42 121.471 305.75 126.301 304 131.061Z" fill="#050505"/>
<path fill-rule="evenodd" clip-rule="evenodd" d="M205.999 145.061C199.489 141.021 195.149 135.351 192.999 128.061C192.109 123.661 191.779 119.331 191.999 115.061C189.519 117.041 187.179 119.211 184.999 121.561C182.879 123.141 180.709 123.311 178.499 122.061C177.709 118.931 178.039 115.931 179.499 113.061C194.129 96.6111 211.469 92.6111 231.499 101.061C232.989 106.131 235.319 110.801 238.499 115.061C239.159 117.361 239.659 119.691 239.999 122.061C235.319 139.721 223.979 147.391 205.999 145.061Z" fill="#050505"/>
<path fill-rule="evenodd" clip-rule="evenodd" d="M275 101.061C278.51 100.441 281.35 101.441 283.5 104.061C284.48 109.501 283.31 114.341 280 118.561C274.41 120.351 270.57 118.511 268.5 113.061C267.79 110.591 268.13 108.261 269.5 106.061C271.69 104.731 273.52 103.061 275 101.061Z" fill="#F7F7F7"/>
<path fill-rule="evenodd" clip-rule="evenodd" d="M221.001 104.061C226.751 103.981 229.751 106.811 230.001 112.561C229.261 118.231 226.261 122.071 221.001 124.061C213.681 120.521 212.181 115.191 216.501 108.061C217.901 106.491 219.401 105.161 221.001 104.061Z" fill="#F5F5F5"/>
<path fill-rule="evenodd" clip-rule="evenodd" d="M193 128.061C195.15 135.351 199.49 141.021 206 145.061C203.55 148.711 200.05 150.711 195.5 151.061C189.92 150.281 184.42 149.111 179 147.561C173.47 144.361 169.8 139.691 168 133.561C169.76 127.421 173.92 124.581 180.5 125.061C184.91 125.141 189.07 126.141 193 128.061Z" fill="#FDE0DE"/>
<path fill-rule="evenodd" clip-rule="evenodd" d="M295 141.061C298.71 138.351 301.71 135.021 304 131.061C310.96 127.651 318.3 126.491 326 127.561C332.36 132.331 333.53 138.161 329.5 145.061C327.56 147.671 325.06 149.501 322 150.561C314.79 151.671 307.79 151.011 301 148.561C298.38 146.451 296.38 143.951 295 141.061Z" fill="#FDE0DE"/>
<path fill-rule="evenodd" clip-rule="evenodd" d="M264 146.061C266.85 145.911 268.52 147.251 269 150.061C267.29 153.941 264.96 157.441 262 160.561C255.13 161.211 248.96 159.381 243.5 155.061C242.84 152.211 244.01 150.541 247 150.061C249.78 150.951 252.45 152.121 255 153.561C256.33 154.231 257.67 154.231 259 153.561C260.8 151.121 262.47 148.621 264 146.061Z" fill="#0E0E0E"/>
<path fill-rule="evenodd" clip-rule="evenodd" d="M154 168.061C166.12 171.601 178.12 175.431 190 179.561C205.18 180.821 220.35 182.321 235.5 184.061C270.9 184.441 306.07 181.611 341 175.561C341.88 174.851 342.55 174.021 343 173.061C346.17 173.401 348.34 175.071 349.5 178.061C351.75 191.441 352.92 204.941 353 218.561C352.25 234.061 351.58 249.561 351 265.061C352.01 291.721 352.18 318.391 351.5 345.061C350.24 359.011 349.57 373.011 349.5 387.061C347.86 393.831 345.03 400.001 341 405.561C337.85 407.161 334.52 408.161 331 408.561C325.01 409.061 319.01 409.231 313 409.061C309.6 409.221 306.26 408.881 303 408.061C295.07 406.711 287.07 405.871 279 405.561C275.17 404.391 272.67 401.891 271.5 398.061C269.5 390.061 267.5 382.061 265.5 374.061C261.82 343.321 257.49 312.651 252.5 282.061C246.04 314.061 243.04 346.401 243.5 379.061C242.17 384.391 240.83 389.731 239.5 395.061C230.71 404.201 219.87 408.531 207 408.061C203 408.061 199 408.061 195 408.061C185.35 409.611 177.18 406.951 170.5 400.061C164.11 388.901 160.11 376.901 158.5 364.061C154.47 334.961 153.97 305.791 157 276.561C155.6 255.071 154.44 233.571 153.5 212.061C152.45 200.501 150.95 189.001 149 177.561C149.14 174.661 149.64 171.831 150.5 169.061C151.51 168.221 152.68 167.891 154 168.061Z" fill="#3B7ECE"/>
<path fill-rule="evenodd" clip-rule="evenodd" d="M247 191.061C247.66 194.791 249.66 197.791 253 200.061C258.7 197.981 259.37 194.981 255 191.061C261.47 190.971 268.14 190.811 275 190.561C298.08 188.521 321.08 185.681 344 182.061C344.97 186.621 344.97 191.121 344 195.561C336.5 197.971 328.83 199.631 321 200.561C285.31 200.571 249.64 201.401 214 203.061C205.28 202.711 196.61 201.881 188 200.561C178.16 196.171 168.16 192.171 158 188.561C156.55 184.551 155.88 180.381 156 176.061C169.24 180.181 182.58 184.011 196 187.561C213.17 188.581 230.17 189.741 247 191.061Z" fill="#4A92FD"/>
<path fill-rule="evenodd" clip-rule="evenodd" d="M255 191.061C259.37 194.981 258.7 197.981 253 200.061C249.66 197.791 247.66 194.791 247 191.061C249.67 189.731 252.33 189.731 255 191.061Z" fill="#F8BF19"/>
<path fill-rule="evenodd" clip-rule="evenodd" d="M158 196.061C167.42 199.271 176.76 202.771 186 206.561C191.64 207.521 197.31 208.351 203 209.061C196.07 222.821 185.41 232.651 171 238.561C167.73 239.711 164.4 240.541 161 241.061C160.74 225.981 159.74 210.981 158 196.061Z" fill="#4A92FE"/>
<path fill-rule="evenodd" clip-rule="evenodd" d="M342.999 202.061C343.999 202.061 344.999 202.061 345.999 202.061C346.169 214.061 345.999 226.061 345.499 238.061C345.249 239.181 344.749 240.181 343.999 241.061C332.259 238.611 322.429 232.941 314.499 224.061C311.419 219.021 310.589 213.681 311.999 208.061C322.649 207.011 332.979 205.011 342.999 202.061Z" fill="#4A92FE"/>
<path fill-rule="evenodd" clip-rule="evenodd" d="M263 208.061C276.8 207.071 290.8 207.071 305 208.061C304.07 221.361 309.4 231.531 321 238.561C328.92 242.031 336.92 245.201 345 248.061C344.55 254.051 344.21 260.051 344 266.061C345.19 291.721 345.69 317.391 345.5 343.061C344.44 358.041 343.44 373.041 342.5 388.061C341.33 392.561 339.5 396.721 337 400.561C324.74 402.171 312.4 402.501 300 401.561C292.71 400.801 285.54 399.631 278.5 398.061C271.61 373.181 267.28 347.841 265.5 322.061C262.24 303.101 259.24 284.101 256.5 265.061C253.11 260.871 250.45 261.211 248.5 266.061C240.35 303.931 236.35 342.271 236.5 381.061C235.75 386.631 233.58 391.471 230 395.561C225.03 398.521 219.7 400.521 214 401.561C202.97 402.231 191.97 401.891 181 400.561C179.11 398.371 176.94 396.541 174.5 395.061C165.4 371.101 160.9 346.271 161 320.561C161.49 305.391 162.16 290.221 163 275.061C162.93 266.671 162.27 258.341 161 250.061C161.11 249.121 161.44 248.281 162 247.561C179.96 243.261 194.46 233.761 205.5 219.061C207.37 215.951 208.53 212.621 209 209.061C219.34 208.911 229.67 208.581 240 208.061C242.26 220.951 243.42 233.951 243.5 247.061C246.28 249.701 249.45 251.701 253 253.061C256.03 252.191 257.87 250.191 258.5 247.061C259.84 237.331 261.51 227.671 263.5 218.061C264.31 214.531 264.14 211.201 263 208.061Z" fill="#4A92FE"/>
<path fill-rule="evenodd" clip-rule="evenodd" d="M246 207.061C250.35 206.891 254.68 207.061 259 207.561C255.87 219.841 253.87 232.341 253 245.061C251.68 245.231 250.51 244.901 249.5 244.061C249.54 231.591 248.37 219.261 246 207.061Z" fill="#4A92FC"/>
<path fill-rule="evenodd" clip-rule="evenodd" d="M195 408.061C199 408.061 203 408.061 207 408.061C207.2 415.881 208.03 423.541 209.5 431.061C202.4 437.541 194.24 439.711 185 437.561C181.25 436.191 178.59 433.691 177 430.061C178.56 427.271 180.9 425.441 184 424.561C187.65 424.061 191.32 423.891 195 424.061C195 418.731 195 413.391 195 408.061Z" fill="#F7F7F8"/>
<path fill-rule="evenodd" clip-rule="evenodd" d="M303 408.061C306.26 408.881 309.6 409.221 313 409.061C312.78 414.831 312.78 420.491 313 426.061C320.28 423.441 327.45 423.771 334.5 427.061C336.08 432.161 334.25 435.321 329 436.561C323.15 438.681 317.15 439.341 311 438.561C309.13 437.061 307.3 435.561 305.5 434.061C303.21 425.641 302.37 416.971 303 408.061Z" fill="#F9F9F9"/>
</svg>
