<svg width="500" height="500" viewBox="0 0 500 500" fill="none" xmlns="http://www.w3.org/2000/svg">
<path fill-rule="evenodd" clip-rule="evenodd" d="M300 151.062C289.86 153.862 282.36 159.862 277.5 169.062C276.35 171.952 275.85 174.952 276 178.062C272.36 178.082 270.03 176.422 269 173.062C270.48 173.322 271.81 172.992 273 172.062C273.68 169.672 274.51 167.342 275.5 165.062C279.5 160.392 283.5 155.732 287.5 151.062C293.79 146.442 299.79 141.442 305.5 136.062C312.46 127.432 319.79 119.102 327.5 111.062C339.17 100.732 350.17 89.7315 360.5 78.0615C365.38 70.1815 371.38 63.1815 378.5 57.0615C380.88 60.6515 383.38 64.1515 386 67.5615C374.59 76.1215 365.59 86.6215 359 99.0615C339.02 115.202 319.19 131.542 299.5 148.062C299.03 149.142 299.2 150.142 300 151.062Z" fill="#FEE6A7"/>
<path fill-rule="evenodd" clip-rule="evenodd" d="M252.001 97.0614C252.001 102.391 252.001 107.731 252.001 113.061C251.091 124.661 250.421 136.321 250.001 148.061C247.981 146.361 245.981 144.701 244.001 143.061C245.501 126.081 246.331 109.081 246.501 92.0614C245.931 87.7114 245.261 83.3814 244.501 79.0614C242.671 77.4914 240.511 76.6514 238.001 76.5614C224.501 76.1314 211.001 75.6314 197.501 75.0614C193.671 75.3914 189.831 75.7314 186.001 76.0614C183.141 95.1414 183.481 114.141 187.001 133.061C184.941 133.081 182.941 133.411 181.001 134.061C179.491 124.821 178.831 115.491 179.001 106.061C179.211 95.7214 179.541 85.3914 180.001 75.0614C180.571 73.5314 181.231 72.0314 182.001 70.5614C202.351 69.8914 222.681 70.2214 243.001 71.5614C246.071 72.3014 248.241 74.1314 249.501 77.0614C251.311 83.6114 252.151 90.2714 252.001 97.0614Z" fill="#0E3907"/>
<path fill-rule="evenodd" clip-rule="evenodd" d="M244 143.062C235.67 138.232 226.67 135.392 217 134.562C207.02 132.762 197.02 132.262 187 133.062C183.48 114.142 183.14 95.1415 186 76.0615C189.83 75.7315 193.67 75.3915 197.5 75.0615C211 75.6315 224.5 76.1315 238 76.5615C240.51 76.6515 242.67 77.4915 244.5 79.0615C245.26 83.3815 245.93 87.7115 246.5 92.0615C246.33 109.082 245.5 126.082 244 143.062Z" fill="#156907"/>
<path fill-rule="evenodd" clip-rule="evenodd" d="M366 120.062C360.97 122.912 356.31 126.242 352 130.062C343.59 136.262 335.59 142.932 328 150.062C327.67 150.062 327.33 150.062 327 150.062C326.09 148.822 325.92 147.492 326.5 146.062C348.54 126.802 371.38 108.642 395 91.5615C394.1 88.6815 393.1 85.8515 392 83.0615C382.01 90.3915 371.68 97.2215 361 103.562C342.14 118.922 323.48 134.422 305 150.062C303.38 150.602 301.72 150.932 300 151.062C299.2 150.142 299.03 149.142 299.5 148.062C319.19 131.542 339.02 115.202 359 99.0615C365.59 86.6215 374.59 76.1215 386 67.5615C383.38 64.1515 380.88 60.6515 378.5 57.0615C371.38 63.1815 365.38 70.1815 360.5 78.0615C350.17 89.7315 339.17 100.732 327.5 111.062C319.79 119.102 312.46 127.432 305.5 136.062C299.79 141.442 293.79 146.442 287.5 151.062C283.5 155.732 279.5 160.392 275.5 165.062C274.51 167.342 273.68 169.672 273 172.062C271.81 172.992 270.48 173.322 269 173.062C267.89 171.612 267.72 169.952 268.5 168.062C273.26 163.142 277.43 157.802 281 152.062C291.38 141.352 301.72 130.682 312 120.062C316.77 117.132 320.77 113.292 324 108.562C323.08 108.282 322.42 107.782 322 107.062C326 106.592 329.17 104.592 331.5 101.062C349.6 80.2915 368.43 60.1215 388 40.5615C392.03 36.8715 396.7 34.8715 402 34.5615C405.14 35.8315 406.8 38.1615 407 41.5615C406.2 45.6615 404.7 49.4915 402.5 53.0615C391.49 69.4115 378.33 83.9115 363 96.5615C379.82 85.7915 396.49 74.4515 413 62.5615C424.17 61.4615 427.67 65.9615 423.5 76.0615C418.97 80.9315 414.13 85.4315 409 89.5615C394.21 99.2015 379.88 109.372 366 120.062Z" fill="#EDCE9A"/>
<path fill-rule="evenodd" clip-rule="evenodd" d="M327 150.062C319.65 148.812 312.31 148.812 305 150.062C323.48 134.422 342.14 118.922 361 103.562C371.68 97.2215 382.01 90.3915 392 83.0615C393.1 85.8515 394.1 88.6815 395 91.5615C371.38 108.642 348.54 126.802 326.5 146.062C325.92 147.492 326.09 148.822 327 150.062Z" fill="#FEE6A7"/>
<path fill-rule="evenodd" clip-rule="evenodd" d="M177.001 92.0615C178.251 93.9015 178.251 95.7315 177.001 97.5615C166.321 98.8115 155.991 101.482 146.001 105.562C142.671 106.892 139.671 108.722 137.001 111.062C136.021 112.662 135.851 114.322 136.501 116.062C139.071 125.722 142.241 135.052 146.001 144.062C144.301 145.752 142.301 147.092 140.001 148.062C138.701 142.512 137.041 137.182 135.001 132.062C133.991 128.622 132.991 125.292 132.001 122.062C128.871 116.082 129.541 110.582 134.001 105.562C141.511 101.642 149.181 97.9715 157.001 94.5615C163.511 92.5215 170.181 91.6815 177.001 92.0615Z" fill="#103C09"/>
<path fill-rule="evenodd" clip-rule="evenodd" d="M180 75.0615C179.54 85.3915 179.21 95.7215 179 106.062C178.83 115.492 179.49 124.822 181 134.062C168.7 135.382 157.04 138.722 146 144.062C142.24 135.052 139.07 125.722 136.5 116.062C135.85 114.322 136.02 112.662 137 111.062C139.67 108.722 142.67 106.892 146 105.562C155.99 101.482 166.32 98.8115 177 97.5615C178.25 95.7315 178.25 93.9015 177 92.0615C177.83 87.2415 178.33 82.2415 178.5 77.0615C178.78 76.1415 179.28 75.4815 180 75.0615Z" fill="#156907"/>
<path fill-rule="evenodd" clip-rule="evenodd" d="M252 97.0615C275.49 99.3015 298.82 102.632 322 107.062C322.42 107.782 323.08 108.282 324 108.562C320.77 113.292 316.77 117.132 312 120.062C292.26 115.652 272.26 113.312 252 113.062C252 107.732 252 102.392 252 97.0615Z" fill="#080404"/>
<path fill-rule="evenodd" clip-rule="evenodd" d="M252 113.062C272.26 113.312 292.26 115.652 312 120.062C301.72 130.682 291.38 141.352 281 152.062C271.14 150.132 261.14 149.132 251 149.062C250.33 149.062 250 148.732 250 148.062C250.42 136.322 251.09 124.662 252 113.062Z" fill="#F34336"/>
<path fill-rule="evenodd" clip-rule="evenodd" d="M366 120.062C388.06 131.292 404.23 148.292 414.5 171.062C416.42 175.572 417.76 180.242 418.5 185.062C419 196.742 418.67 208.412 417.5 220.062C415.76 232.072 413.76 244.072 411.5 256.062C403.72 278.612 394.05 300.282 382.5 321.062C378.67 326.062 374.83 331.062 371 336.062C372.33 336.392 373.67 336.732 375 337.062C379.99 336.282 384.99 335.622 390 335.062C390.4 330.822 392.57 327.822 396.5 326.062C397.97 326.462 399.31 327.132 400.5 328.062C400.74 330.322 401.24 332.492 402 334.562C406.28 333.692 410.61 333.032 415 332.562C416.76 336.392 415.76 339.392 412 341.562C410 342.562 408 343.562 406 344.562C398.92 345.002 391.92 346.002 385 347.562C377 347.892 369 348.232 361 348.562C359.17 351.062 357.33 353.562 355.5 356.062C345.6 364.032 336.26 372.702 327.5 382.062C333.81 393.312 330.65 401.142 318 405.562C312.11 407.582 306.11 409.082 300 410.062C299.43 419.402 298.76 428.732 298 438.062C298.33 441.392 298.67 444.732 299 448.062C304.02 446.762 309.02 446.932 314 448.562C316.27 450.332 317.94 452.492 319 455.062C318.91 456.992 317.91 458.152 316 458.562C309.62 459.252 303.28 458.922 297 457.562C290.28 453.452 287.61 447.452 289 439.562C289.67 430.072 290 420.572 290 411.062C276.29 411.032 262.62 411.702 249 413.062C237.63 412.792 226.3 412.122 215 411.062C214.03 421.882 214.03 432.712 215 443.562C215.12 448.842 214.62 454.002 213.5 459.062C208.19 461.052 202.86 463.052 197.5 465.062C182.91 463.202 182.41 459.362 196 453.562C198.98 452.862 201.98 452.362 205 452.062C204.95 437.702 204.28 423.362 203 409.062C189.93 409.022 177.93 405.522 167 398.562C161.64 394.682 159.47 389.512 160.5 383.062C161.17 381.732 162.17 380.732 163.5 380.062C164.17 379.062 164.17 378.062 163.5 377.062C154.22 366.652 145.05 356.152 136 345.562C122.82 346.062 110.66 342.892 99.5 336.062C95.17 339.282 90.33 340.452 85 339.562C81.52 336.852 81.19 333.852 84 330.562C87.36 328.882 90.7 327.212 94 325.562C97.02 319.412 100.52 318.912 104.5 324.062C105.09 325.462 104.93 326.792 104 328.062C105 328.892 106 329.732 107 330.562C111.11 331.592 115.11 332.922 119 334.562C121.73 335.382 124.39 335.212 127 334.062C120.24 324.122 114.07 313.792 108.5 303.062C91.75 266.812 80.25 228.982 74 189.562C77.21 173.632 84.05 159.462 94.5 147.062C106.28 137.592 118.78 129.262 132 122.062C132.99 125.292 133.99 128.622 135 132.062C114.84 143.722 99.67 160.062 89.5 181.062C88.02 183.832 87.86 186.492 89 189.062C87.8 193.672 88.63 198.002 91.5 202.062C98.07 209.302 105.24 215.802 113 221.562C119.41 224.032 125.75 226.702 132 229.562C148 234.562 164 239.562 180 244.562C222.33 249.202 264.66 249.202 307 244.562C315.85 243.302 324.52 241.302 333 238.562C346.31 231.742 359.98 225.742 374 220.562C383.83 216.232 392.33 210.062 399.5 202.062C401.41 196.832 402.91 191.502 404 186.062C404.49 166.872 396.49 152.372 380 142.562C371.05 137.522 361.71 133.352 352 130.062C356.31 126.242 360.97 122.912 366 120.062Z" fill="#020101"/>
<path fill-rule="evenodd" clip-rule="evenodd" d="M352 130.062C361.71 133.352 371.05 137.522 380 142.562C396.49 152.372 404.49 166.872 404 186.062C398.07 179.312 391.07 173.812 383 169.562C370.54 165.572 357.87 162.402 345 160.062C340.06 155.422 334.39 152.092 328 150.062C335.59 142.932 343.59 136.262 352 130.062Z" fill="#F24436"/>
<path fill-rule="evenodd" clip-rule="evenodd" d="M244 143.062C245.98 144.702 247.98 146.362 250 148.062C250 148.732 250.33 149.062 251 149.062C261.96 161.142 265.13 175.142 260.5 191.062C257.97 197.732 254.47 203.732 250 209.062C250.71 205.702 249.54 203.362 246.5 202.062C246.23 199.312 245.73 196.642 245 194.062C259.12 175.052 255.78 159.552 235 147.562C206.1 137.782 177.76 139.112 150 151.562C140.17 157.392 132.33 165.232 126.5 175.062C120.21 186.292 122.38 195.462 133 202.562C144.95 204.332 156.95 205.672 169 206.562C180.41 209.202 191.41 212.702 202 217.062C198.93 224.352 201.27 227.352 209 226.062C209.13 227.782 209.46 229.442 210 231.062C199.07 231.682 188.74 229.522 179 224.562C175 222.232 171 219.892 167 217.562C152.91 217.702 139.58 214.702 127 208.562C117.5 201.732 113.67 192.572 115.5 181.062C117.24 176.332 119.08 171.662 121 167.062C127 160.392 133.33 154.062 140 148.062C142.3 147.092 144.3 145.752 146 144.062C157.04 138.722 168.7 135.382 181 134.062C182.94 133.412 184.94 133.082 187 133.062C197.02 132.262 207.02 132.762 217 134.562C226.67 135.392 235.67 138.232 244 143.062Z" fill="#C36C6B"/>
<path fill-rule="evenodd" clip-rule="evenodd" d="M135 132.062C137.04 137.182 138.7 142.512 140 148.062C133.33 154.062 127 160.392 121 167.062C107.5 170.462 96.83 177.802 89 189.062C87.86 186.492 88.02 183.832 89.5 181.062C99.67 160.062 114.84 143.722 135 132.062Z" fill="#F04335"/>
<path fill-rule="evenodd" clip-rule="evenodd" d="M245 194.062C242.84 192.222 240.51 191.892 238 193.062C236.67 190.072 234.67 187.742 232 186.062C240.25 183.972 244.08 178.632 243.5 170.062C239.64 158.202 231.81 150.372 220 146.562C209.67 145.682 199.34 145.342 189 145.562C182.43 150.042 182.43 154.702 189 159.562C197.67 162.452 206 166.122 214 170.562C219 174.552 222.84 179.392 225.5 185.062C226.17 185.812 227 186.152 228 186.062C227.25 187.812 225.92 188.812 224 189.062C221.17 187.632 218.17 186.962 215 187.062C211.31 178.542 205.64 171.712 198 166.562C193.63 164.272 189.63 164.772 186 168.062C182.07 173.772 176.74 177.602 170 179.562C164.33 179.892 158.67 180.232 153 180.562C149.21 182.612 148.04 185.782 149.5 190.062C152.65 193.232 156.49 195.062 161 195.562C169.33 195.892 177.67 196.232 186 196.562C190.86 198.082 194.52 201.082 197 205.562C197.95 206.042 198.95 206.212 200 206.062C196.92 210.402 197.92 213.742 203 216.062C202.88 216.672 202.54 217.002 202 217.062C191.41 212.702 180.41 209.202 169 206.562C156.95 205.672 144.95 204.332 133 202.562C122.38 195.462 120.21 186.292 126.5 175.062C132.33 165.232 140.17 157.392 150 151.562C177.76 139.112 206.1 137.782 235 147.562C255.78 159.552 259.12 175.052 245 194.062Z" fill="#E9C1B3"/>
<path fill-rule="evenodd" clip-rule="evenodd" d="M232 186.062C230.67 186.062 229.33 186.062 228 186.062C227 186.152 226.17 185.812 225.5 185.062C222.84 179.392 219 174.552 214 170.562C206 166.122 197.67 162.452 189 159.562C182.43 154.702 182.43 150.042 189 145.562C199.34 145.342 209.67 145.682 220 146.562C231.81 150.372 239.64 158.202 243.5 170.062C244.08 178.632 240.25 183.972 232 186.062Z" fill="#DFABA0"/>
<path fill-rule="evenodd" clip-rule="evenodd" d="M327 150.062C327.33 150.062 327.67 150.062 328 150.062C334.39 152.092 340.06 155.422 345 160.062C352.16 167.062 358 175.062 362.5 184.062C365.78 194.562 362.61 202.392 353 207.562C342.88 210.512 332.55 212.012 322 212.062C320.33 212.062 318.67 212.062 317 212.062C315.06 211.412 313.06 211.082 311 211.062C309.37 209.242 307.37 207.912 305 207.062C303.46 207.012 302.46 207.682 302 209.062C301.33 209.062 300.67 209.062 300 209.062C299.3 203.382 296.64 202.042 292 205.062C290.5 203.812 288.83 202.812 287 202.062C287 201.392 286.67 201.062 286 201.062C280.33 194.362 276.99 186.692 276 178.062C275.85 174.952 276.35 171.952 277.5 169.062C282.36 159.862 289.86 153.862 300 151.062C301.72 150.932 303.38 150.602 305 150.062C312.31 148.812 319.65 148.812 327 150.062Z" fill="#FEFDFC"/>
<path fill-rule="evenodd" clip-rule="evenodd" d="M307 158.061C321.78 156.941 331.12 163.441 335 177.561C334.86 182.511 332.86 186.511 329 189.561C319.63 194.511 309.96 195.511 300 192.561C284.9 177.311 287.23 165.811 307 158.061Z" fill="#FFEB3D"/>
<path fill-rule="evenodd" clip-rule="evenodd" d="M215.001 187.062C213.691 188.712 212.361 190.372 211.001 192.062C201.141 191.712 198.801 195.552 204.001 203.562C202.811 204.652 201.471 205.492 200.001 206.062C198.951 206.212 197.951 206.042 197.001 205.562C194.521 201.082 190.861 198.082 186.001 196.562C177.671 196.232 169.331 195.892 161.001 195.562C156.491 195.062 152.651 193.232 149.501 190.062C148.041 185.782 149.211 182.612 153.001 180.562C158.671 180.232 164.331 179.892 170.001 179.562C176.741 177.602 182.071 173.772 186.001 168.062C189.631 164.772 193.631 164.272 198.001 166.562C205.641 171.712 211.311 178.542 215.001 187.062Z" fill="#DFABA0"/>
<path fill-rule="evenodd" clip-rule="evenodd" d="M251.001 149.062C261.141 149.132 271.141 150.132 281.001 152.062C277.431 157.802 273.261 163.142 268.501 168.062C267.721 169.952 267.891 171.612 269.001 173.062C270.031 176.422 272.361 178.082 276.001 178.062C276.991 186.692 280.331 194.362 286.001 201.062C281.521 201.362 280.191 203.532 282.001 207.562C278.911 211.682 279.571 215.012 284.001 217.562C280.251 220.812 279.411 224.642 281.501 229.062C290.431 232.122 294.091 229.122 292.501 220.062C290.851 218.842 289.021 218.012 287.001 217.562C288.981 215.062 289.481 212.232 288.501 209.062C285.651 208.132 285.491 206.632 288.001 204.562C287.251 203.892 286.911 203.062 287.001 202.062C288.831 202.812 290.501 203.812 292.001 205.062C289.611 211.172 291.611 213.342 298.001 211.562C298.881 210.852 299.551 210.022 300.001 209.062C300.671 209.062 301.331 209.062 302.001 209.062C302.891 214.152 305.721 216.152 310.501 215.062C310.991 213.772 311.161 212.432 311.001 211.062C313.061 211.082 315.061 211.412 317.001 212.062C315.311 218.102 317.151 219.442 322.501 216.062C322.691 214.742 322.531 213.412 322.001 212.062C332.551 212.012 342.881 210.512 353.001 207.562C362.611 202.392 365.781 194.562 362.501 184.062C358.001 175.062 352.161 167.062 345.001 160.062C357.871 162.402 370.541 165.572 383.001 169.562C391.071 173.812 398.071 179.312 404.001 186.062C402.911 191.502 401.411 196.832 399.501 202.062C392.331 210.062 383.831 216.232 374.001 220.562C359.981 225.742 346.311 231.742 333.001 238.562C324.521 241.302 315.851 243.302 307.001 244.562C264.661 249.202 222.331 249.202 180.001 244.562C164.001 239.562 148.001 234.562 132.001 229.562C125.751 226.702 119.411 224.032 113.001 221.562C105.241 215.802 98.0705 209.302 91.5005 202.062C88.6305 198.002 87.8005 193.672 89.0005 189.062C96.8305 177.802 107.501 170.462 121.001 167.062C119.081 171.662 117.241 176.332 115.501 181.062C113.671 192.572 117.501 201.732 127.001 208.562C139.581 214.702 152.911 217.702 167.001 217.562C171.001 219.892 175.001 222.232 179.001 224.562C188.741 229.522 199.071 231.682 210.001 231.062C213.041 233.342 216.381 233.672 220.001 232.062C222.661 233.062 225.331 234.062 228.001 235.062C231.161 234.402 233.661 232.742 235.501 230.062C241.651 231.982 244.981 229.642 245.501 223.062C252.231 220.612 253.401 216.612 249.001 211.062C249.361 210.382 249.701 209.712 250.001 209.062C254.471 203.732 257.971 197.732 260.501 191.062C265.131 175.142 261.961 161.142 251.001 149.062Z" fill="#EFAF38"/>
<path fill-rule="evenodd" clip-rule="evenodd" d="M228 186.062C229.33 186.062 230.67 186.062 232 186.062C234.67 187.742 236.67 190.072 238 193.062C240.51 191.892 242.84 192.222 245 194.062C245.73 196.642 246.23 199.312 246.5 202.062C249.54 203.362 250.71 205.702 250 209.062C249.7 209.712 249.36 210.382 249 211.062C253.4 216.612 252.23 220.612 245.5 223.062C244.98 229.642 241.65 231.982 235.5 230.062C233.66 232.742 231.16 234.402 228 235.062C225.33 234.062 222.66 233.062 220 232.062C216.38 233.672 213.04 233.342 210 231.062C209.46 229.442 209.13 227.782 209 226.062C201.27 227.352 198.93 224.352 202 217.062C202.54 217.002 202.88 216.672 203 216.062C197.92 213.742 196.92 210.402 200 206.062C201.47 205.492 202.81 204.652 204 203.562C198.8 195.552 201.14 191.712 211 192.062C212.36 190.372 213.69 188.712 215 187.062C218.17 186.962 221.17 187.632 224 189.062C225.92 188.812 227.25 187.812 228 186.062Z" fill="#FEFCFB"/>
<path fill-rule="evenodd" clip-rule="evenodd" d="M217 194.062C227.99 194.472 236.49 199.132 242.5 208.062C243.49 219.422 238.32 225.752 227 227.062C215.33 226.062 211.5 220.062 215.5 209.062C219.29 205.762 223.46 205.262 228 207.562C230.48 209.502 230.65 211.662 228.5 214.062C227.06 215.722 225.22 216.382 223 216.062C223.2 213.922 224.2 212.262 226 211.062C218.42 208.582 215.92 211.252 218.5 219.062C219.33 220.562 220.5 221.732 222 222.562C233.32 224.892 238.82 220.392 238.5 209.062C233.46 202.012 226.63 198.512 218 198.562C216.43 199.642 214.77 200.472 213 201.062C212.33 200.732 211.67 200.392 211 200.062C212.71 197.682 214.71 195.682 217 194.062Z" fill="#FCC6C2"/>
<path fill-rule="evenodd" clip-rule="evenodd" d="M269 203.061C275.57 201.981 277.73 204.651 275.5 211.061C272.17 215.061 268.83 215.061 265.5 211.061C264.83 209.731 264.83 208.391 265.5 207.061C266.88 205.851 268.04 204.521 269 203.061Z" fill="#51AE4F"/>
<path fill-rule="evenodd" clip-rule="evenodd" d="M300 209.061C299.55 210.021 298.88 210.851 298 211.561C291.61 213.341 289.61 211.171 292 205.061C296.64 202.041 299.3 203.381 300 209.061Z" fill="#52B052"/>
<path fill-rule="evenodd" clip-rule="evenodd" d="M311 211.062C311.16 212.432 310.99 213.772 310.5 215.062C305.72 216.152 302.89 214.152 302 209.062C302.46 207.682 303.46 207.012 305 207.062C307.37 207.912 309.37 209.242 311 211.062Z" fill="#57B053"/>
<path fill-rule="evenodd" clip-rule="evenodd" d="M317 212.062C318.67 212.062 320.33 212.062 322 212.062C322.53 213.412 322.69 214.742 322.5 216.062C317.15 219.442 315.31 218.102 317 212.062Z" fill="#55AE4F"/>
<path fill-rule="evenodd" clip-rule="evenodd" d="M297 213.062C301.72 213.842 303.39 216.502 302 221.062C295.88 223.442 293.71 221.442 295.5 215.062C296.22 214.522 296.72 213.852 297 213.062Z" fill="#56AE4E"/>
<path fill-rule="evenodd" clip-rule="evenodd" d="M267 217.062C271.05 217.402 275.05 218.072 279 219.062C280.13 221.822 279.13 223.652 276 224.562C271.17 226.032 267.51 224.702 265 220.562C265.48 219.262 266.14 218.092 267 217.062Z" fill="#59AF4E"/>
<path fill-rule="evenodd" clip-rule="evenodd" d="M286 201.062C286.67 201.062 287 201.392 287 202.062C286.91 203.062 287.25 203.892 288 204.562C285.49 206.632 285.65 208.132 288.5 209.062C289.48 212.232 288.98 215.062 287 217.562C289.02 218.012 290.85 218.842 292.5 220.062C294.09 229.122 290.43 232.122 281.5 229.062C279.41 224.642 280.25 220.812 284 217.562C279.57 215.012 278.91 211.682 282 207.562C280.19 203.532 281.52 201.362 286 201.062Z" fill="#52AF4F"/>
<path fill-rule="evenodd" clip-rule="evenodd" d="M304 220.062C307.02 219.902 310.02 220.062 313 220.562C314.71 221.692 315.21 223.192 314.5 225.062C313.48 225.912 312.64 226.912 312 228.062C313.37 229.502 314.87 230.832 316.5 232.062C317.21 233.932 316.71 235.432 315 236.562C311.44 236.622 307.94 236.122 304.5 235.062C304.2 231.032 303.7 227.032 303 223.062C303.19 221.982 303.52 220.982 304 220.062Z" fill="#53AF4F"/>
<path fill-rule="evenodd" clip-rule="evenodd" d="M325 220.062C331.3 220.342 332.47 223.002 328.5 228.062C325.39 229.832 323.56 229.002 323 225.562C323.26 223.552 323.92 221.722 325 220.062Z" fill="#54AF4F"/>
<path fill-rule="evenodd" clip-rule="evenodd" d="M261 225.062C267.29 224.862 269.63 227.692 268 233.562C264.04 236.012 260.54 235.512 257.5 232.062C256.83 231.062 256.83 230.062 257.5 229.062C258.6 227.612 259.77 226.282 261 225.062Z" fill="#57AF4E"/>
<path fill-rule="evenodd" clip-rule="evenodd" d="M294 231.062C296.03 230.902 298.03 231.062 300 231.562C301.79 235.472 300.46 237.812 296 238.562C294 239.232 292 239.232 290 238.562C288.46 234.582 289.8 232.082 294 231.062Z" fill="#53AE4F"/>
<path fill-rule="evenodd" clip-rule="evenodd" d="M274 231.062C276.36 230.902 278.69 231.062 281 231.562C283.08 233.442 283.41 235.612 282 238.062C279.06 239.132 276.06 239.302 273 238.562C270.21 235.582 270.54 233.082 274 231.062Z" fill="#59AF4E"/>
<path fill-rule="evenodd" clip-rule="evenodd" d="M240 279.061C266.93 275.911 290.1 283.571 309.5 302.061C323.93 320.361 323.43 338.191 308 355.561C300.89 361.451 292.89 365.781 284 368.561C252.16 378.811 221.16 376.811 191 362.561C169.74 344.941 167.57 325.101 184.5 303.061C199.66 287.391 218.16 279.391 240 279.061Z" fill="#FBFBFB"/>
<path fill-rule="evenodd" clip-rule="evenodd" d="M205.999 303.062C213.699 302.832 221.039 304.332 227.999 307.562C230.349 312.762 232.849 317.932 235.499 323.062C236.299 332.662 232.799 340.492 224.999 346.562C205.729 354.922 194.389 348.582 190.999 327.562C191.359 325.302 192.029 323.132 192.999 321.062C192.669 320.732 192.329 320.392 191.999 320.062C189.519 322.042 187.179 324.212 184.999 326.562C178.939 329.502 176.769 327.672 178.499 321.062C182.099 314.832 187.269 310.332 193.999 307.562C198.069 305.932 202.069 304.432 205.999 303.062Z" fill="#050505"/>
<path fill-rule="evenodd" clip-rule="evenodd" d="M272 303.062C282.75 303.832 293.08 306.332 303 310.562C306.46 314.012 310.46 316.682 315 318.562C317.76 321.132 317.43 323.302 314 325.062C309.54 324.492 305.54 322.832 302 320.062C301.67 328.232 299.17 335.902 294.5 343.062C288.79 349.702 281.62 351.862 273 349.562C260.06 345.512 254.9 336.672 257.5 323.062C259.2 313.942 264.03 307.282 272 303.062Z" fill="#050505"/>
<path fill-rule="evenodd" clip-rule="evenodd" d="M270 310.062C272.36 309.902 274.69 310.062 277 310.562C279.27 314.892 279.43 319.392 277.5 324.062C274.94 326.912 271.77 327.742 268 326.562C266.62 324.632 265.12 322.802 263.5 321.062C262.87 318.922 263.2 316.922 264.5 315.062C266.31 313.262 268.15 311.592 270 310.062Z" fill="#F3F3F3"/>
<path fill-rule="evenodd" clip-rule="evenodd" d="M219 311.062C223.99 311.392 226.66 314.052 227 319.062C226.99 324.762 224.33 328.432 219 330.062C211.8 326.922 210.3 321.922 214.5 315.062C215.9 313.492 217.4 312.162 219 311.062Z" fill="#F5F5F5"/>
<path fill-rule="evenodd" clip-rule="evenodd" d="M258 353.062C259.67 353.062 261.33 353.062 263 353.062C263.25 356.892 262.08 360.222 259.5 363.062C257.88 365.292 255.71 366.622 253 367.062C248.16 365.722 243.66 363.722 239.5 361.062C238.57 356.482 240.4 354.982 245 356.562C247.33 357.732 249.67 358.892 252 360.062C254.71 358.292 256.71 355.962 258 353.062Z" fill="#0E0E0E"/>
</svg>
