<svg width="500" height="500" viewBox="0 0 500 500" fill="none" xmlns="http://www.w3.org/2000/svg">
<path fill-rule="evenodd" clip-rule="evenodd" d="M220 37.0615C273.34 37.6315 326.68 38.7915 380 40.5615C389.09 41.8215 398.09 43.4915 407 45.5615C409.39 47.5115 410.89 50.0115 411.5 53.0615C412.31 58.3715 412.98 63.7115 413.5 69.0615C415.54 103.452 418.2 137.792 421.5 172.062C422.7 205.442 423.53 238.782 424 272.062C427.69 272.742 431.02 274.242 434 276.562C452.58 288.962 458.41 305.802 451.5 327.062C447.57 333.262 443.9 339.602 440.5 346.062C439.55 358.622 437.39 370.952 434 383.062C441.76 383.152 448.93 385.152 455.5 389.062C455.75 391.742 456.75 394.072 458.5 396.062C459.06 412.462 456.73 428.462 451.5 444.062C448.6 451.292 443.43 456.122 436 458.562C422.99 460.482 409.99 460.482 397 458.562C384.65 455.362 380.48 447.532 384.5 435.062C386.39 418.952 392.39 404.622 402.5 392.062C409.42 386.682 417.26 383.682 426 383.062C429.47 369.922 431.97 356.582 433.5 343.062C435.5 337.712 438.5 333.052 442.5 329.062C451.65 308.832 446.82 292.992 428 281.562C426.37 281.072 424.7 280.902 423 281.062C423.5 286.402 423.67 291.732 423.5 297.062C414.04 308.522 403.87 319.362 393 329.562C392 329.892 391 330.232 390 330.562C385.42 335.822 380.75 340.982 376 346.062C379.67 347.902 382.5 350.562 384.5 354.062C385.01 359.192 384.34 364.192 382.5 369.062C373.3 389.132 363.3 408.802 352.5 428.062C348.17 435.062 343.83 442.062 339.5 449.062C336.96 451.932 334.13 454.432 331 456.562C299.4 459.382 267.74 461.212 236 462.062C183.67 460.212 131.34 458.382 78.9996 456.562C68.7096 455.122 58.3796 454.122 47.9996 453.562C44.8396 452.082 42.9996 449.582 42.4996 446.062C41.8296 443.392 41.8296 440.732 42.4996 438.062C49.0796 422.542 57.9196 408.542 68.9996 396.062C62.8996 392.582 57.3996 388.252 52.4996 383.062C48.8696 376.492 49.1996 370.162 53.4996 364.062C60.0896 357.372 66.9196 351.042 73.9996 345.062C65.0596 339.552 64.7296 333.382 72.9996 326.562C75.4596 325.002 78.1196 324.002 80.9996 323.562C99.3696 321.532 117.7 321.702 136 324.062C137.27 321.872 137.27 319.702 136 317.562C126.39 317.872 117.89 315.042 110.5 309.062C109.3 306.472 108.3 303.802 107.5 301.062C105.33 267.352 102.66 233.682 99.4996 200.062C98.3996 165.732 97.7396 131.392 97.4996 97.0615C100.38 93.8715 103.55 91.0415 107 88.5615C123.94 77.2815 140.61 65.6215 157 53.5615C164.47 48.9915 172.14 44.6515 180 40.5615C193.45 39.1415 206.78 37.9715 220 37.0615Z" fill="#867E64"/>
<path fill-rule="evenodd" clip-rule="evenodd" d="M202 45.0617C264.04 44.4017 326.04 45.5617 388 48.5617C390.46 49.7817 393.13 50.4417 396 50.5617C385.25 55.6417 375.92 62.6417 368 71.5617C355.79 80.1717 344.12 89.5117 333 99.5617C296.68 98.9517 260.35 99.1117 224 100.062C191.33 99.5517 158.67 99.0517 126 98.5617C120.27 98.3517 114.6 97.6817 109 96.5617C132.85 79.0517 157.52 62.7217 183 47.5617C189.58 47.4817 195.91 46.6517 202 45.0617Z" fill="#D6CDAC"/>
<path fill-rule="evenodd" clip-rule="evenodd" d="M403 55.0615C404.83 59.6415 405.99 64.6415 406.5 70.0615C408.62 102.412 410.96 134.742 413.5 167.062C414.81 192.722 415.14 218.382 414.5 244.062C400.51 257.662 386.35 271.162 372 284.562C363.59 291.512 355.09 298.352 346.5 305.062C344.54 297.022 343.37 288.862 343 280.562C343.24 248.742 343.41 216.912 343.5 185.062C342.45 165.402 341.45 145.732 340.5 126.062C340.22 119.322 339.38 112.652 338 106.062C347.84 96.4015 358.5 87.5715 370 79.5615C379.64 69.4215 390.64 61.2615 403 55.0615Z" fill="#D6CDAC"/>
<path fill-rule="evenodd" clip-rule="evenodd" d="M105 104.062C149.98 105.782 194.98 107.122 240 108.062C269.98 105.572 299.98 105.412 330 107.562C331.52 112.232 332.35 117.062 332.5 122.062C334.15 144.052 335.48 166.052 336.5 188.062C337.4 206.792 336.9 225.452 335 244.062C335.53 265.422 336.53 286.762 338 308.062C310.66 307.892 283.33 308.062 256 308.562C251.92 308.792 247.92 309.462 244 310.562C205.33 311.222 166.66 310.892 128 309.562C122.75 308.692 118.58 306.192 115.5 302.062C109.09 238.402 105.26 174.562 104 110.562C104.29 108.372 104.62 106.212 105 104.062Z" fill="#D5CCAB"/>
<path fill-rule="evenodd" clip-rule="evenodd" d="M239 127.061C257.67 126.891 276.34 127.061 295 127.561C308.16 130.751 314.66 139.251 314.5 153.061C315.89 177.051 316.23 201.051 315.5 225.061C314.8 234.761 309.63 240.261 300 241.561C256.16 241.721 212.33 241.891 168.5 242.061C158 241.671 147.5 241.171 137 240.561C133.11 238.341 130.28 235.171 128.5 231.061C127.31 221.441 126.64 211.781 126.5 202.061C126.26 185.051 125.76 168.051 125 151.061C125.42 146.721 125.92 142.381 126.5 138.061C128.54 132.681 132.37 129.521 138 128.561C171.84 128.391 205.5 127.891 239 127.061Z" fill="#3C3C3C"/>
<path fill-rule="evenodd" clip-rule="evenodd" d="M200 149.062C220 149.352 240 149.852 260 150.562C271.19 153.282 281.03 158.452 289.5 166.062C302.55 186.252 298.71 202.422 278 214.562C270.31 218.152 262.31 220.822 254 222.562C228.25 224.952 202.58 224.282 177 220.562C145.57 217.192 135.4 200.692 146.5 171.062C152.03 162.212 159.86 156.372 170 153.562C180.15 152.012 190.15 150.512 200 149.062Z" fill="#F8F8F8"/>
<path fill-rule="evenodd" clip-rule="evenodd" d="M240 158.062C250.75 158.832 261.09 161.332 271 165.562C274.06 168.282 277.39 170.622 281 172.562C283.87 175.092 283.54 176.932 280 178.062C275.45 177.932 271.62 176.262 268.5 173.062C268 175.092 268.17 177.092 269 179.062C266.83 186.232 263.5 192.732 259 198.562C249.05 203.742 239.55 202.912 230.5 196.062C223.22 180.512 226.39 167.842 240 158.062Z" fill="#050505"/>
<path fill-rule="evenodd" clip-rule="evenodd" d="M175 159.062C183.33 158.312 191.33 159.482 199 162.562C201.09 166.742 203.26 170.902 205.5 175.062C207.71 179.922 207.38 184.582 204.5 189.062C199 200.062 190.16 204.562 178 202.562C166.69 196.102 162.52 186.602 165.5 174.062C162.1 177.132 158.44 179.792 154.5 182.062C153.73 181.922 153.06 181.582 152.5 181.062C151.83 178.732 151.83 176.392 152.5 174.062C158.84 167.152 166.34 162.152 175 159.062Z" fill="#050505"/>
<path fill-rule="evenodd" clip-rule="evenodd" d="M240 164.062C244.18 163.912 246.52 165.912 247 170.062C246.56 172.742 246.06 175.412 245.5 178.062C242.86 181.512 239.7 182.012 236 179.562C232.55 176.542 231.71 173.042 233.5 169.062C235.83 167.492 237.99 165.832 240 164.062Z" fill="#F4F4F4"/>
<path fill-rule="evenodd" clip-rule="evenodd" d="M190 166.061C195.41 165.641 198.08 168.141 198 173.561C197.86 179.021 195.19 182.521 190 184.061C183.5 180.441 182.34 175.441 186.5 169.061C187.65 167.921 188.81 166.921 190 166.061Z" fill="#F5F5F5"/>
<path fill-rule="evenodd" clip-rule="evenodd" d="M228 205.062C230.45 204.572 232.12 205.402 233 207.562C231.91 210.312 230.41 212.812 228.5 215.062C226.18 217.662 223.35 218.492 220 217.562C216.88 215.922 213.71 214.422 210.5 213.062C209.34 209.992 210.34 208.332 213.5 208.062C216.72 208.952 219.72 210.292 222.5 212.062C224.34 209.702 226.18 207.362 228 205.062Z" fill="#0C0C0C"/>
<path fill-rule="evenodd" clip-rule="evenodd" d="M130 253.062C173.83 252.852 217.66 253.522 261.5 255.062C279.97 252.892 298.47 252.562 317 254.062C317 255.392 317 256.732 317 258.062C298.3 256.512 279.64 256.842 261 259.062C220.01 257.802 179.01 256.972 138 256.562C134.95 256.382 131.95 255.882 129 255.062C129.36 254.382 129.7 253.712 130 253.062Z" fill="#B5AD8E"/>
<path fill-rule="evenodd" clip-rule="evenodd" d="M415 254.062C415.9 267.262 416.4 280.592 416.5 294.062C411.03 300.532 405.2 306.702 399 312.562C390.68 320.542 382.01 328.212 373 335.562C370.21 338.632 367.55 341.802 365 345.062C363.5 330.692 362.67 316.362 362.5 302.062C374.63 292.272 386.46 282.102 398 271.562C403.87 265.862 409.54 260.022 415 254.062Z" fill="#A39975"/>
<path fill-rule="evenodd" clip-rule="evenodd" d="M129 266.062C192.34 266.432 255.67 267.102 319 268.062C318.79 268.652 318.46 269.152 318 269.562C258.16 270.362 198.33 270.202 138.5 269.062C134.43 268.912 130.6 269.582 127 271.062C126.89 269.052 127.56 267.382 129 266.062Z" fill="#B2AA8B"/>
<path fill-rule="evenodd" clip-rule="evenodd" d="M316 277.062C318.33 277.062 320.67 277.062 323 277.062C323 278.062 323 279.062 323 280.062C288.15 280.722 253.32 281.722 218.5 283.062C187.99 282.622 157.49 281.952 127 281.062C127 280.062 127 279.062 127 278.062C162.85 277.862 198.68 278.532 234.5 280.062C261.79 278.562 288.96 277.562 316 277.062Z" fill="#B4AB8D"/>
<path fill-rule="evenodd" clip-rule="evenodd" d="M285 286.061C289.41 285.581 293.58 286.251 297.5 288.061C298.12 289.011 297.95 289.841 297 290.561C267.69 292.411 238.36 293.071 209 292.561C207.34 291.121 206.68 289.281 207 287.061C233.15 289.091 259.15 288.761 285 286.061Z" fill="#968F79"/>
<path fill-rule="evenodd" clip-rule="evenodd" d="M354 307.062C355.98 319.682 356.65 332.682 356 346.062C327.67 346.602 299.34 347.102 271 347.562C261.76 347.882 252.59 348.712 243.5 350.062C239.58 350.112 235.75 349.612 232 348.562C203.97 348.342 175.97 347.502 148 346.062C144.64 336.722 143.31 327.052 144 317.062C180.02 319.882 216.02 319.722 252 316.562C282.33 316.232 312.67 315.892 343 315.562C347.42 313.682 351.09 310.852 354 307.062Z" fill="#665F44"/>
<path fill-rule="evenodd" clip-rule="evenodd" d="M85.0001 330.061C102.41 329.531 119.74 330.201 137 332.061C138 336.731 139 341.401 140 346.061C129.66 345.891 119.33 346.061 109 346.561C106.89 346.921 104.89 347.591 103 348.561C93.1101 362.191 83.1101 375.691 73.0001 389.061C68.0701 386.681 63.5701 383.681 59.5001 380.061C58.0201 376.861 57.6801 373.521 58.5001 370.061C65.8101 362.421 73.4801 355.081 81.5001 348.061C82.1701 346.061 82.1701 344.061 81.5001 342.061C79.2301 339.841 77.0701 337.501 75.0001 335.061C77.9901 332.621 81.3201 330.961 85.0001 330.061Z" fill="#3C3B3B"/>
<path fill-rule="evenodd" clip-rule="evenodd" d="M131 353.062C168.19 354.202 205.36 355.532 242.5 357.062C261.97 355.542 281.47 354.542 301 354.062C325.66 354.302 350.32 354.472 375 354.562C376.18 355.742 376.85 357.242 377 359.062C376.54 363.262 375.38 367.262 373.5 371.062C366.87 384.312 359.87 397.312 352.5 410.062C346.65 423.932 339.15 436.762 330 448.562C297.79 451.652 265.46 453.822 233 455.062C183.38 452.102 133.71 450.272 84.0004 449.562C72.6604 448.442 61.3304 447.272 50.0004 446.062C48.8304 443.362 49.0004 440.692 50.5004 438.062C54.5004 430.732 58.5004 423.392 62.5004 416.062C78.2804 396.012 93.4404 375.512 108 354.562C115.84 354.392 123.51 353.892 131 353.062Z" fill="#D5CCAB"/>
<path fill-rule="evenodd" clip-rule="evenodd" d="M111 356.062C113.35 356.402 115.69 356.902 118 357.562C152.84 359.042 187.67 360.542 222.5 362.062C250.17 361.452 277.83 360.792 305.5 360.062C326.33 361.202 347.17 361.372 368 360.562C369.33 363.932 368.83 367.092 366.5 370.062C365.12 372.312 363.62 374.482 362 376.562C361.05 377.042 360.05 377.212 359 377.062C359 376.062 359 375.062 359 374.062C325.15 373.822 291.31 374.492 257.5 376.062C228.5 374.822 199.5 373.492 170.5 372.062C165.13 372.102 159.8 372.432 154.5 373.062C138.37 372.252 122.2 371.752 106 371.562C104.18 370.092 103.68 368.262 104.5 366.062C106.54 362.552 108.71 359.212 111 356.062Z" fill="#BBB294"/>
<path fill-rule="evenodd" clip-rule="evenodd" d="M328 383.061C333.68 382.891 339.34 383.061 345 383.561C346.3 384.361 346.97 385.531 347 387.061C339.89 402.271 333.06 417.601 326.5 433.061C326 433.561 325.5 434.061 325 434.561C311.67 435.231 298.33 435.231 285 434.561C283.91 432.501 283.74 430.331 284.5 428.061C289.5 414.391 295.84 401.391 303.5 389.061C305.18 386.861 307.18 386.191 309.5 387.061C315.73 385.631 321.9 384.301 328 383.061Z" fill="#C2B99A"/>
<path fill-rule="evenodd" clip-rule="evenodd" d="M424 390.062C433.04 389.322 441.71 390.652 450 394.062C452.35 410.132 450.52 425.792 444.5 441.062C442.24 446.322 438.41 449.822 433 451.562C420.27 453.672 407.6 453.332 395 450.562C394.47 449.872 393.81 449.372 393 449.062C390.73 429.202 396.07 411.702 409 396.562C413.64 393.302 418.64 391.132 424 390.062Z" fill="#D1C8A8"/>
<path fill-rule="evenodd" clip-rule="evenodd" d="M114 379.062C134.1 379.242 154.1 380.742 174 383.562C188.65 384.602 203.32 385.102 218 385.062C217.36 386.042 216.69 387.042 216 388.062C220.97 388.892 225.97 389.392 231 389.562C227.44 394.182 225.11 399.352 224 405.062C233.72 405.022 243.38 405.692 253 407.062C251.94 410.182 250.61 413.182 249 416.062C250.33 417.392 251.67 417.392 253 416.062C254.2 412.822 255.54 409.652 257 406.562C260.38 405.742 263.72 405.902 267 407.062C265.38 410.212 264.38 413.552 264 417.062C268.18 416.752 272.18 417.422 276 419.062C274.7 421.992 273.7 424.992 273 428.062C268.97 427.352 264.97 426.852 261 426.562C259.7 429.992 258.54 433.492 257.5 437.062C253.65 438.012 249.82 437.682 246 436.062C247.62 432.552 248.62 428.882 249 425.062C244.33 425.062 239.67 425.062 235 425.062C235 426.062 235 427.062 235 428.062C238.28 427.782 241.44 428.112 244.5 429.062C243.77 431.582 243.27 434.252 243 437.062C239.33 437.062 235.67 437.062 232 437.062C231.72 434.292 232.39 431.792 234 429.562C232.39 428.842 230.89 429.012 229.5 430.062C229 432.372 228.84 434.702 229 437.062C224.33 437.062 219.67 437.062 215 437.062C216.33 433.062 217.67 429.062 219 425.062C207 425.062 195 425.062 183 425.062C183.3 421.982 184.3 419.152 186 416.562C191.03 416.392 196.03 415.892 201 415.062C201.21 414.472 201.54 413.972 202 413.562C197.3 413.392 192.63 412.892 188 412.062C189.43 409.622 190.76 407.122 192 404.562C198.36 404.392 204.69 403.892 211 403.062C211.33 402.392 211.67 401.732 212 401.062C199.9 400.642 187.9 399.642 176 398.062C173.58 398.282 172.58 399.612 173 402.062C178.01 402.312 183.01 402.642 188 403.062C187.85 409.422 184.68 412.422 178.5 412.062C169.91 411.692 161.41 410.692 153 409.062C154.75 406.562 156.25 403.892 157.5 401.062C158.25 400.432 159.08 399.932 160 399.562C159.16 398.552 158.83 397.382 159 396.062C153.93 395.972 148.93 395.302 144 394.062C145.05 391.132 146.71 388.632 149 386.562C147.57 386.092 146.4 385.262 145.5 384.062C143.47 387.272 141.63 390.602 140 394.062C130.99 395.342 121.99 395.342 113 394.062C112.33 393.732 111.67 393.392 111 393.062C113.59 390.392 115.25 387.222 116 383.562C115.98 381.732 115.31 380.232 114 379.062Z" fill="#C6BD9D"/>
<path fill-rule="evenodd" clip-rule="evenodd" d="M114 379.061C115.31 380.231 115.98 381.731 116 383.561C115.25 387.221 113.59 390.391 111 393.061C111.67 393.391 112.33 393.731 113 394.061C121.99 395.341 130.99 395.341 140 394.061C141.63 390.601 143.47 387.271 145.5 384.061C146.4 385.261 147.57 386.091 149 386.561C146.71 388.631 145.05 391.131 144 394.061C148.93 395.301 153.93 395.971 159 396.061C158.83 397.381 159.16 398.551 160 399.561C159.08 399.931 158.25 400.431 157.5 401.061C156.25 403.891 154.75 406.561 153 409.061C161.41 410.691 169.91 411.691 178.5 412.061C184.68 412.421 187.85 409.421 188 403.061C183.01 402.641 178.01 402.311 173 402.061C172.58 399.611 173.58 398.281 176 398.061C187.9 399.641 199.9 400.641 212 401.061C211.67 401.731 211.33 402.391 211 403.061C204.69 403.891 198.36 404.391 192 404.561C190.76 407.121 189.43 409.621 188 412.061C192.63 412.891 197.3 413.391 202 413.561C201.54 413.971 201.21 414.471 201 415.061C196.03 415.891 191.03 416.391 186 416.561C184.3 419.151 183.3 421.981 183 425.061C195 425.061 207 425.061 219 425.061C217.67 429.061 216.33 433.061 215 437.061C219.67 437.061 224.33 437.061 229 437.061C228.84 434.701 229 432.371 229.5 430.061C230.89 429.011 232.39 428.841 234 429.561C232.39 431.791 231.72 434.291 232 437.061C235.67 437.061 239.33 437.061 243 437.061C243.27 434.251 243.77 431.581 244.5 429.061C241.44 428.111 238.28 427.781 235 428.061C235 427.061 235 426.061 235 425.061C239.67 425.061 244.33 425.061 249 425.061C248.62 428.881 247.62 432.551 246 436.061C249.82 437.681 253.65 438.011 257.5 437.061C258.54 433.491 259.7 429.991 261 426.561C264.97 426.851 268.97 427.351 273 428.061C273.7 424.991 274.7 421.991 276 419.061C272.18 417.421 268.18 416.751 264 417.061C264.38 413.551 265.38 410.211 267 407.061C263.72 405.901 260.38 405.741 257 406.561C255.54 409.651 254.2 412.821 253 416.061C251.67 417.391 250.33 417.391 249 416.061C250.61 413.181 251.94 410.181 253 407.061C243.38 405.691 233.72 405.021 224 405.061C225.11 399.351 227.44 394.181 231 389.561C225.97 389.391 220.97 388.891 216 388.061C216.69 387.041 217.36 386.041 218 385.061C232.53 385.891 247.03 385.891 261.5 385.061C270.63 385.851 279.8 386.351 289 386.561C289.5 387.061 290 387.561 290.5 388.061C288.94 395.431 286.94 402.761 284.5 410.061C279.56 419.561 275.39 429.391 272 439.561C244.94 439.551 218.11 440.381 191.5 442.061C164.18 437.801 136.68 435.801 109 436.061C93.6697 436.771 78.3397 437.101 62.9997 437.061C62.8397 435.361 63.0097 433.691 63.4997 432.061C75.3997 417.261 86.0697 401.591 95.4997 385.061C95.8297 383.061 96.1697 381.061 96.4997 379.061C102.28 377.901 108.11 377.901 114 379.061Z" fill="#BAB293"/>
<path fill-rule="evenodd" clip-rule="evenodd" d="M124 398.062C134.04 398.152 144.04 398.812 154 400.062C151.69 404.342 149.69 408.672 148 413.062C159.3 414.222 170.63 414.892 182 415.062C180.81 419.492 179.48 423.822 178 428.062C184.04 427.732 190.04 428.062 196 429.062C194.13 431.792 193.13 434.792 193 438.062C182.59 437.712 172.25 436.542 162 434.562C155.68 434.062 149.34 433.892 143 434.062C143.28 431.442 143.95 428.942 145 426.562C151.68 426.092 158.35 426.252 165 427.062C165 426.062 165 425.062 165 424.062C153.56 423.552 142.23 422.212 131 420.062C132.44 415.852 134.44 411.852 137 408.062C131.71 407.072 126.37 406.732 121 407.062C121.71 403.972 122.71 400.972 124 398.062Z" fill="#CAC1A1"/>
</svg>
