<svg width="500" height="500" viewBox="0 0 500 500" fill="none" xmlns="http://www.w3.org/2000/svg">
<path fill-rule="evenodd" clip-rule="evenodd" d="M196 170.061C194.64 171.751 193.3 173.421 192 175.061C187.05 166.381 183.55 157.041 181.5 147.061C180.7 136.451 183.37 126.781 189.5 118.061C190.17 112.731 190.17 107.391 189.5 102.061C188 99.231 185.83 97.061 183 95.561C174.78 91.691 166.12 89.861 157 90.061C142.79 91.301 128.79 93.801 115 97.561C111.67 98.231 108.33 98.231 105 97.561C89.7104 91.751 75.3704 84.081 62.0004 74.561C57.7104 73.361 54.2104 74.531 51.5004 78.061C50.9704 84.621 52.6404 90.621 56.5004 96.061C63.2504 103.121 70.0804 109.951 77.0004 116.561C84.5104 120.821 92.1804 124.821 100 128.561C109.18 131.031 118.52 132.531 128 133.061C128.21 134.701 127.88 136.201 127 137.561C115.98 138.221 105.32 136.561 95.0004 132.561C87.5404 128.591 80.2004 124.431 73.0004 120.061C71.1204 135.301 76.9604 146.641 90.5004 154.061C107.76 161.831 125.1 161.831 142.5 154.061C145 155.061 145.5 156.731 144 159.061C132.09 163.991 119.75 165.991 107 165.061C111.86 183.331 123.52 189.501 142 183.561C147.23 181.331 152.23 178.661 157 175.561C161.16 174.391 162.49 175.721 161 179.561C156.17 182.391 151.33 185.231 146.5 188.061C143.99 193.201 145.16 197.371 150 200.561C161.28 199.821 172.28 197.661 183 194.061C182.83 196.421 182.49 198.751 182 201.061C174.91 202.081 167.91 203.581 161 205.561C156.67 206.231 152.33 206.231 148 205.561C142.06 202.111 139.39 196.941 140 190.061C117.96 194.731 105.3 186.061 102 164.061C76.2104 157.821 64.7104 141.491 67.5004 115.061C59.3204 108.221 52.6504 100.221 47.5004 91.061C42.1304 75.751 47.6304 68.251 64.0004 68.561C72.8004 75.351 82.1304 81.351 92.0004 86.561C100.83 90.951 110.17 92.611 120 91.561C127.62 89.321 135.28 87.321 143 85.561C153.37 84.791 163.7 85.131 174 86.561C192.8 90.891 199.3 102.391 193.5 121.061C184.49 137.961 185.32 154.291 196 170.061Z" fill="#E9EAEB"/>
<path fill-rule="evenodd" clip-rule="evenodd" d="M192 175.061C188.7 181.321 185.7 187.651 183 194.061C172.28 197.661 161.28 199.821 150 200.561C145.16 197.371 143.99 193.201 146.5 188.061C151.33 185.231 156.17 182.391 161 179.561C162.49 175.721 161.16 174.391 157 175.561C152.23 178.661 147.23 181.331 142 183.561C123.52 189.501 111.86 183.331 107 165.061C119.75 165.991 132.09 163.991 144 159.061C145.5 156.731 145 155.061 142.5 154.061C125.1 161.831 107.76 161.831 90.5001 154.061C76.9601 146.641 71.1201 135.301 73.0001 120.061C80.2001 124.431 87.5401 128.591 95.0001 132.561C105.32 136.561 115.98 138.221 127 137.561C127.88 136.201 128.21 134.701 128 133.061C118.52 132.531 109.18 131.031 100 128.561C92.1801 124.821 84.5101 120.821 77.0001 116.561C70.0801 109.951 63.2501 103.121 56.5001 96.0608C52.6401 90.6208 50.9701 84.6208 51.5001 78.0608C54.2101 74.5308 57.7101 73.3608 62.0001 74.5608C75.3701 84.0808 89.7101 91.7508 105 97.5608C108.33 98.2308 111.67 98.2308 115 97.5608C128.79 93.8008 142.79 91.3008 157 90.0608C166.12 89.8608 174.78 91.6908 183 95.5608C185.83 97.0608 188 99.2308 189.5 102.061C190.17 107.391 190.17 112.731 189.5 118.061C183.37 126.781 180.7 136.451 181.5 147.061C183.55 157.041 187.05 166.381 192 175.061Z" fill="#FEFEFE"/>
<path fill-rule="evenodd" clip-rule="evenodd" d="M320 209.061C319.87 207.341 319.54 205.681 319 204.061C325.67 204.231 332.34 204.061 339 203.561C342.98 202.471 346.15 200.311 348.5 197.061C349.26 194.791 349.09 192.621 348 190.561C340.28 190.461 332.78 189.301 325.5 187.061C324.82 185.781 324.98 184.611 326 183.561C340.91 184.971 355.57 183.641 370 179.561C375.89 178.131 379.89 174.631 382 169.061C381.5 168.731 381 168.391 380.5 168.061C372.7 169.181 364.87 169.351 357 168.561C354.33 166.891 354.33 165.231 357 163.561C367.15 164.801 377.15 163.801 387 160.561C397.61 156.261 407.61 150.921 417 144.561C422.77 140.831 426.44 135.671 428 129.061C427.59 126.431 426.09 124.771 423.5 124.061C411.39 129.701 399.23 135.201 387 140.561C379.71 141.971 372.38 142.311 365 141.561C363.67 139.891 363.67 138.231 365 136.561C371.33 136.231 377.67 135.891 384 135.561C398.68 129.891 412.68 122.891 426 114.561C430.95 109.151 435.78 103.651 440.5 98.061C441.79 92.891 440.63 88.391 437 84.561C434.67 83.891 432.33 83.891 430 84.561C422.67 88.891 415.33 93.231 408 97.561C396.58 101.531 384.91 102.201 373 99.561C358.46 96.721 343.79 95.391 329 95.561C331.86 95.741 334.53 96.241 337 97.061C329.86 96.091 323.53 97.761 318 102.061C317.6 101.031 316.94 100.871 316 101.561C306.33 110.591 304.83 120.751 311.5 132.061C312.05 140.421 311.72 148.751 310.5 157.061C309.18 162.571 307.01 167.571 304 172.061C302.67 171.391 301.67 170.391 301 169.061C304.34 159.861 306.34 150.361 307 140.561C306.34 134.561 304.84 128.721 302.5 123.061C302.15 106.401 309.98 95.571 326 90.561C330.17 90.391 334.33 90.231 338.5 90.061C351.42 90.721 364.25 92.221 377 94.561C388.42 96.211 399.42 94.881 410 90.561C416.5 86.811 422.84 82.811 429 78.561C436.78 77.031 442.28 79.871 445.5 87.061C447 94.931 445.67 102.271 441.5 109.061C437.2 112.621 433.03 116.291 429 120.061C432.29 122.761 433.96 126.261 434 130.561C432.57 134.241 430.74 137.741 428.5 141.061C417.15 152.061 403.98 160.231 389 165.561C388.03 171.851 385.03 176.851 380 180.561C371.99 185.401 363.33 187.901 354 188.061C355.3 194.891 353.64 200.731 349 205.561C339.62 208.611 329.96 209.781 320 209.061Z" fill="#E9EAEB"/>
<path fill-rule="evenodd" clip-rule="evenodd" d="M319 204.061C316.29 198.631 314.12 192.961 312.5 187.061C310.16 181.711 307.33 176.711 304 172.061C307.01 167.571 309.18 162.571 310.5 157.061C311.72 148.751 312.05 140.421 311.5 132.061C304.83 120.751 306.33 110.591 316 101.561C316.94 100.871 317.6 101.031 318 102.061C310.15 114.891 312.82 125.061 326 132.561C336.88 135.011 343.71 130.841 346.5 120.061C346.98 116.651 346.98 113.321 346.5 110.061C348.97 114.061 352.47 116.061 357 116.061C357.45 111.331 355.79 107.501 352 104.561C347.19 101.491 342.19 98.9911 337 97.0611C334.53 96.2411 331.86 95.7411 329 95.5611C343.79 95.3911 358.46 96.7211 373 99.5611C384.91 102.201 396.58 101.531 408 97.5611C415.33 93.2311 422.67 88.8911 430 84.5611C432.33 83.8911 434.67 83.8911 437 84.5611C440.63 88.3911 441.79 92.8911 440.5 98.0611C435.78 103.651 430.95 109.151 426 114.561C412.68 122.891 398.68 129.891 384 135.561C377.67 135.891 371.33 136.231 365 136.561C363.67 138.231 363.67 139.891 365 141.561C372.38 142.311 379.71 141.971 387 140.561C399.23 135.201 411.39 129.701 423.5 124.061C426.09 124.771 427.59 126.431 428 129.061C426.44 135.671 422.77 140.831 417 144.561C407.61 150.921 397.61 156.261 387 160.561C377.15 163.801 367.15 164.801 357 163.561C354.33 165.231 354.33 166.891 357 168.561C364.87 169.351 372.7 169.181 380.5 168.061C381 168.391 381.5 168.731 382 169.061C379.89 174.631 375.89 178.131 370 179.561C355.57 183.641 340.91 184.971 326 183.561C324.98 184.611 324.82 185.781 325.5 187.061C332.78 189.301 340.28 190.461 348 190.561C349.09 192.621 349.26 194.791 348.5 197.061C346.15 200.311 342.98 202.471 339 203.561C332.34 204.061 325.67 204.231 319 204.061Z" fill="#FEFEFE"/>
<path fill-rule="evenodd" clip-rule="evenodd" d="M243 85.061C245 85.061 247 85.061 249 85.061C249.65 95.721 249.81 106.391 249.5 117.061C247.83 118.391 246.17 118.391 244.5 117.061C242.86 106.361 242.36 95.691 243 85.061Z" fill="#F9FCBE"/>
<path fill-rule="evenodd" clip-rule="evenodd" d="M160 94.0611C166.61 93.5511 172.78 94.8811 178.5 98.0611C180.53 102.611 182.36 107.281 184 112.061C179.73 127.701 170.4 132.201 156 125.561C151.8 120.151 149.97 113.981 150.5 107.061C148.17 110.591 145 112.591 141 113.061C140.44 107.691 142.44 103.521 147 100.561C151.43 98.3511 155.76 96.1811 160 94.0611Z" fill="#060606"/>
<path fill-rule="evenodd" clip-rule="evenodd" d="M267 97.0612C270.07 96.4812 272.07 97.6512 273 100.561C270.84 107.051 268.67 113.551 266.5 120.061C264.77 121.141 262.94 121.301 261 120.561C260.48 120.001 260.14 119.331 260 118.561C262.42 111.391 264.75 104.221 267 97.0612Z" fill="#FAFDBD"/>
<path fill-rule="evenodd" clip-rule="evenodd" d="M337 97.0608C342.19 98.9908 347.19 101.491 352 104.561C355.79 107.501 357.45 111.331 357 116.061C352.47 116.061 348.97 114.061 346.5 110.061C346.98 113.321 346.98 116.651 346.5 120.061C343.71 130.841 336.88 135.011 326 132.561C312.82 125.061 310.15 114.891 318 102.061C323.53 97.7608 329.86 96.0908 337 97.0608Z" fill="#070707"/>
<path fill-rule="evenodd" clip-rule="evenodd" d="M222 98.0612C223.89 97.8612 225.39 98.5212 226.5 100.061C230.02 105.931 231.85 112.101 232 118.561C228.7 119.601 226.53 118.441 225.5 115.061C224.72 110.261 222.89 105.931 220 102.061C220.25 100.491 220.92 99.1512 222 98.0612Z" fill="#F9FCBE"/>
<path fill-rule="evenodd" clip-rule="evenodd" d="M170 100.061C174.25 99.5113 176.59 101.351 177 105.561C176.62 109.851 174.45 112.691 170.5 114.061C167.65 113.051 166.15 111.051 166 108.061C166.3 104.791 167.63 102.131 170 100.061Z" fill="#F4F4F4"/>
<path fill-rule="evenodd" clip-rule="evenodd" d="M323 103.061C329.33 103.361 332.16 106.701 331.5 113.061C326.94 118.751 323.27 118.081 320.5 111.061C319.89 107.951 320.72 105.281 323 103.061Z" fill="#F3F3F3"/>
<path fill-rule="evenodd" clip-rule="evenodd" d="M209 115.061C213.56 115.111 217.06 117.111 219.5 121.061C220.67 125.231 219.17 126.731 215 125.561C211 123.091 209 119.591 209 115.061Z" fill="#FAFDBD"/>
<path fill-rule="evenodd" clip-rule="evenodd" d="M280 115.061C284.18 114.401 285.68 116.071 284.5 120.061C282.33 122.891 280.17 125.731 278 128.561C273.42 129.491 271.92 127.661 273.5 123.061C275.91 120.551 278.08 117.881 280 115.061Z" fill="#F9FCBE"/>
<path fill-rule="evenodd" clip-rule="evenodd" d="M282 155.061C279.1 157.331 276.1 159.331 273 161.061C263.82 165.661 253.99 167.661 243.5 167.061C235.41 167.591 227.57 166.421 220 163.561C217.92 162.861 216.25 161.701 215 160.061C213.92 157.971 212.25 156.641 210 156.061C206.42 147.961 208.09 141.131 215 135.561C231.09 127.851 247.75 126.181 265 130.561C268.67 132.891 272.33 135.231 276 137.561C280.57 142.401 282.57 148.231 282 155.061Z" fill="#FDEB45"/>
<path fill-rule="evenodd" clip-rule="evenodd" d="M239 138.061C246.4 137.761 253.73 138.261 261 139.561C264.28 142.421 267.78 144.921 271.5 147.061C271.99 148.351 272.16 149.691 272 151.061C266.58 152.601 261.25 154.431 256 156.561C246.27 157.451 236.61 157.121 227 155.561C224.02 154.241 221.19 152.741 218.5 151.061C217.38 147.601 218.21 144.771 221 142.561C227.19 141.341 233.19 139.841 239 138.061Z" fill="#C4EFFC"/>
<path fill-rule="evenodd" clip-rule="evenodd" d="M282 155.061C288.41 159.451 294.74 164.121 301 169.061C301.67 170.391 302.67 171.391 304 172.061C307.33 176.711 310.16 181.711 312.5 187.061C314.12 192.961 316.29 198.631 319 204.061C319.54 205.681 319.87 207.341 320 209.061C321.43 218.041 321.76 227.041 321 236.061C320.04 237.861 319.38 239.861 319 242.061C315.68 249.371 312.35 256.701 309 264.061C306.28 267.111 303.62 270.111 301 273.061C299.7 274.701 298.36 276.371 297 278.061C294.03 279.711 291.36 281.711 289 284.061C287.35 284.221 286.01 284.891 285 286.061C279.54 287.311 274.2 288.641 269 290.061C267 290.061 265 290.061 263 290.061C253.3 291.371 243.64 291.371 234 290.061C231.88 290.231 229.88 289.901 228 289.061C224.83 288.391 221.83 287.221 219 285.561C216.83 282.981 214.16 281.141 211 280.061C209.6 278.671 207.93 277.671 206 277.061C203.61 273.701 200.61 271.031 197 269.061C195.77 268.251 194.77 267.251 194 266.061C191.18 261.091 188.35 256.091 185.5 251.061C184.68 245.761 183.18 240.761 181 236.061C181.17 233.941 180.84 231.941 180 230.061C179.64 220.301 180.3 210.641 182 201.061C182.49 198.751 182.83 196.421 183 194.061C185.7 187.651 188.7 181.321 192 175.061C193.3 173.421 194.64 171.751 196 170.061C200.95 165.781 205.61 161.111 210 156.061C212.25 156.641 213.92 157.971 215 160.061C208.2 167.581 201.37 175.251 194.5 183.061C190.75 192.051 188.25 201.381 187 211.061C187 213.391 187 215.731 187 218.061C188.33 218.061 189.67 218.061 191 218.061C189.93 218.991 188.6 219.331 187 219.061C186.57 228.691 188.07 238.031 191.5 247.061C192.89 252.241 195.22 256.901 198.5 261.061C206.42 268.321 214.92 274.821 224 280.561C231.75 283.351 239.75 284.521 248 284.061C258.78 283.951 269.45 282.791 280 280.561C287.03 277.861 292.53 273.361 296.5 267.061C298.46 266.111 300.12 264.771 301.5 263.061C311.84 248.691 316.01 232.691 314 215.061C314.47 212.201 313.47 210.201 311 209.061C311.88 209.191 312.54 208.861 313 208.061C308.95 189.561 299.28 175.061 284 164.561C280.44 162.951 276.77 161.781 273 161.061C276.1 159.331 279.1 157.331 282 155.061Z" fill="#B8F2FE"/>
<path fill-rule="evenodd" clip-rule="evenodd" d="M215 160.061C216.25 161.701 217.92 162.861 220 163.561C227.57 166.421 235.41 167.591 243.5 167.061C253.99 167.661 263.82 165.661 273 161.061C276.77 161.781 280.44 162.951 284 164.561C299.28 175.061 308.95 189.561 313 208.061C312.54 208.861 311.88 209.191 311 209.061C306.9 206.811 302.9 204.311 299 201.561C293.93 200.531 288.93 199.201 284 197.561C272.29 194.241 264.46 198.411 260.5 210.061C255.92 230.801 264.08 240.301 285 238.561C287.75 237.441 290.25 235.941 292.5 234.061C297.36 227.151 300.03 219.481 300.5 211.061C304.46 214.671 308.96 216.001 314 215.061C316.01 232.691 311.84 248.691 301.5 263.061C300.12 264.771 298.46 266.111 296.5 267.061C292.53 273.361 287.03 277.861 280 280.561C269.45 282.791 258.78 283.951 248 284.061C239.75 284.521 231.75 283.351 224 280.561C214.92 274.821 206.42 268.321 198.5 261.061C195.22 256.901 192.89 252.241 191.5 247.061C188.07 238.031 186.57 228.691 187 219.061C188.6 219.331 189.93 218.991 191 218.061C194.25 216.321 197.08 213.981 199.5 211.061C197.3 222.791 201.13 231.951 211 238.561C225.04 240.951 234.54 235.451 239.5 222.061C240.17 219.391 240.17 216.731 239.5 214.061C237.28 210.281 235.61 206.281 234.5 202.061C222.54 194.291 210.38 194.121 198 201.561C193.85 204.221 190.18 207.381 187 211.061C188.25 201.381 190.75 192.051 194.5 183.061C201.37 175.251 208.2 167.581 215 160.061Z" fill="#FDFBFB"/>
<path fill-rule="evenodd" clip-rule="evenodd" d="M191 218.061C189.67 218.061 188.33 218.061 187 218.061C187 215.731 187 213.391 187 211.061C190.18 207.381 193.85 204.221 198 201.561C210.38 194.121 222.54 194.291 234.5 202.061C235.61 206.281 237.28 210.281 239.5 214.061C240.17 216.731 240.17 219.391 239.5 222.061C234.54 235.451 225.04 240.951 211 238.561C201.13 231.951 197.3 222.791 199.5 211.061C197.08 213.981 194.25 216.321 191 218.061Z" fill="#070707"/>
<path fill-rule="evenodd" clip-rule="evenodd" d="M311 209.061C313.47 210.201 314.47 212.201 314 215.061C308.96 216.001 304.46 214.671 300.5 211.061C300.03 219.481 297.36 227.151 292.5 234.061C290.25 235.941 287.75 237.441 285 238.561C264.08 240.301 255.92 230.801 260.5 210.061C264.46 198.411 272.29 194.241 284 197.561C288.93 199.201 293.93 200.531 299 201.561C302.9 204.311 306.9 206.811 311 209.061Z" fill="#070707"/>
<path fill-rule="evenodd" clip-rule="evenodd" d="M271 202.061C276 200.801 278.67 202.631 279 207.561C278.78 210.501 278.11 213.341 277 216.061C274.37 218.191 271.54 218.531 268.5 217.061C263.45 211.121 264.29 206.121 271 202.061Z" fill="#F2F2F2"/>
<path fill-rule="evenodd" clip-rule="evenodd" d="M222 204.061C229.83 203.051 232.99 206.391 231.5 214.061C229.56 219.021 226.06 220.851 221 219.561C216.97 214.201 217.3 209.031 222 204.061Z" fill="#F3F3F3"/>
<path fill-rule="evenodd" clip-rule="evenodd" d="M180 230.061C180.84 231.941 181.17 233.941 181 236.061C174.56 234.751 168.23 232.921 162 230.561C156.16 227.141 150.5 223.481 145 219.561C140.19 217.981 135.36 216.481 130.5 215.061C129.74 215.131 129.24 215.461 129 216.061C126 216.061 123 216.061 120 216.061C122.47 215.241 125.14 214.741 128 214.561C123.59 213.861 119.26 214.201 115 215.561C107.92 219.971 101.42 225.131 95.5001 231.061C84.3401 254.561 66.5001 270.721 42.0001 279.561C40.2901 281.071 38.6301 282.571 37.0001 284.061C40.0901 287.981 44.0901 290.481 49.0001 291.561C56.1501 292.471 63.1501 291.801 70.0001 289.561C77.4401 286.671 84.4401 283.011 91.0001 278.561C95.3701 273.861 100.03 269.531 105 265.561C106.63 265.071 108.3 264.901 110 265.061C103.45 276.091 94.1101 284.261 82.0001 289.561C78.1701 292.871 77.0101 297.031 78.5001 302.061C82.0901 304.021 85.9301 304.521 90.0001 303.561C95.5401 302.121 100.88 300.121 106 297.561C115.36 290.641 124.19 283.141 132.5 275.061C134.82 275.971 135.49 277.641 134.5 280.061C128.12 284.591 123.95 290.591 122 298.061C122.67 300.061 124 301.391 126 302.061C143.98 298.921 156.98 289.091 165 272.561C167.42 271.571 169.09 272.241 170 274.561C168.56 277.261 167.56 280.101 167 283.061C170.48 283.381 173.81 282.881 177 281.561C183.46 277.271 189.13 272.101 194 266.061C194.77 267.251 195.77 268.251 197 269.061C195.04 273.541 192.04 277.371 188 280.561C183.22 284.871 177.72 287.701 171.5 289.061C168.6 288.701 165.76 288.041 163 287.061C156.84 292.391 150.5 297.551 144 302.561C136.33 306.821 128.33 307.821 120 305.561C117.78 302.811 116.45 299.641 116 296.061C106.11 305.191 94.4501 309.691 81.0001 309.561C74.0701 307.221 71.0701 302.381 72.0001 295.061C62.3601 297.111 52.6901 297.281 43.0001 295.561C39.5601 293.781 36.3901 291.621 33.5001 289.061C30.7201 283.521 31.8901 279.021 37.0001 275.561C61.3501 267.541 79.1801 252.041 90.5001 229.061C97.5201 220.991 105.68 214.491 115 209.561C125.36 208.171 135.36 209.501 145 213.561C155.37 221.741 167.03 227.241 180 230.061Z" fill="#E9EAEB"/>
<path fill-rule="evenodd" clip-rule="evenodd" d="M297 278.061C298.36 276.371 299.7 274.701 301 273.061C304.55 280.441 310.22 285.601 318 288.561C323.06 289.861 326.73 288.191 329 283.561C325.71 278.151 323.71 272.311 323 266.061C324.67 266.061 326.33 266.061 328 266.061C329.79 274.471 333.79 281.641 340 287.561C349.18 296.401 360.02 302.241 372.5 305.061C373.94 305.001 375.27 304.671 376.5 304.061C377.96 301.191 378.29 298.191 377.5 295.061C372.14 288.021 367.14 280.691 362.5 273.061C361.32 269.071 362.82 267.401 367 268.061C366.84 269.431 367.01 270.771 367.5 272.061C374.6 282.391 382.77 291.891 392 300.561C400.11 305.211 408.77 308.371 418 310.061C423.12 308.891 424.29 305.891 421.5 301.061C412.19 292.421 402.86 283.751 393.5 275.061C393.01 273.771 392.84 272.431 393 271.061C394.37 270.901 395.71 271.071 397 271.561C405.46 280.281 415.13 287.281 426 292.561C434.6 294.221 443.26 294.891 452 294.561C455.6 294.411 458.93 293.411 462 291.561C463.76 287.731 462.76 284.731 459 282.561C445.58 277.021 433.24 269.681 422 260.561C412.71 248.931 403.04 237.601 393 226.561C391.26 225.111 389.59 224.941 388 226.061C380.64 219.051 371.97 216.721 362 219.061C361.76 218.461 361.26 218.131 360.5 218.061C357.99 219.241 355.49 220.411 353 221.561C342.1 229.171 330.77 236.011 319 242.061C319.38 239.861 320.04 237.861 321 236.061C330.09 231.001 338.75 225.171 347 218.561C352.33 215.891 357.67 213.231 363 210.561C369.88 209.461 376.55 210.131 383 212.561C389.5 217.731 396 222.891 402.5 228.061C410.96 238.851 419.79 249.351 429 259.561C433.28 262.181 437.28 265.181 441 268.561C448.69 271.121 456.03 274.461 463 278.561C472.17 288.581 470.17 295.581 457 299.561C447.43 300.391 437.93 299.891 428.5 298.061C427.67 298.391 426.83 298.731 426 299.061C430.35 304.771 429.69 309.941 424 314.561C408.89 315.361 395.55 310.861 384 301.061C382.83 307.231 379.17 310.561 373 311.061C357 308.061 343.66 300.391 333 288.061C328.97 294.161 323.47 296.161 316.5 294.061C308.62 290.341 302.12 285.011 297 278.061Z" fill="#E9EAEB"/>
<path fill-rule="evenodd" clip-rule="evenodd" d="M120 216.061C107.52 221.691 101.02 231.351 100.5 245.061C101.57 246.841 103.07 247.341 105 246.561C106.24 243.441 107.41 240.271 108.5 237.061C112.94 249.981 121.44 253.811 134 248.561C141.64 240.861 142.97 232.201 138 222.561C134.58 220.861 131.58 218.691 129 216.061C129.24 215.461 129.74 215.131 130.5 215.061C135.36 216.481 140.19 217.981 145 219.561C150.5 223.481 156.16 227.141 162 230.561C168.23 232.921 174.56 234.751 181 236.061C183.18 240.761 184.68 245.761 185.5 251.061C188.35 256.091 191.18 261.091 194 266.061C189.13 272.101 183.46 277.271 177 281.561C173.81 282.881 170.48 283.381 167 283.061C167.56 280.101 168.56 277.261 170 274.561C169.09 272.241 167.42 271.571 165 272.561C156.98 289.091 143.98 298.921 126 302.061C124 301.391 122.67 300.061 122 298.061C123.95 290.591 128.12 284.591 134.5 280.061C135.49 277.641 134.82 275.971 132.5 275.061C124.19 283.141 115.36 290.641 106 297.561C100.88 300.121 95.54 302.121 90 303.561C85.93 304.521 82.09 304.021 78.5 302.061C77.01 297.031 78.17 292.871 82 289.561C94.11 284.261 103.45 276.091 110 265.061C108.3 264.901 106.63 265.071 105 265.561C100.03 269.531 95.37 273.861 91 278.561C84.44 283.011 77.44 286.671 70 289.561C63.15 291.801 56.15 292.471 49 291.561C44.09 290.481 40.09 287.981 37 284.061C38.63 282.571 40.29 281.071 42 279.561C66.5 270.721 84.34 254.561 95.5 231.061C101.42 225.131 107.92 219.971 115 215.561C119.26 214.201 123.59 213.861 128 214.561C125.14 214.741 122.47 215.241 120 216.061Z" fill="#FEFEFE"/>
<path fill-rule="evenodd" clip-rule="evenodd" d="M120 216.061C123 216.061 126 216.061 129 216.061C131.58 218.691 134.58 220.861 138 222.561C142.97 232.201 141.64 240.861 134 248.561C121.44 253.811 112.94 249.981 108.5 237.061C107.41 240.271 106.24 243.441 105 246.561C103.07 247.341 101.57 246.841 100.5 245.061C101.02 231.351 107.52 221.691 120 216.061Z" fill="#050505"/>
<path fill-rule="evenodd" clip-rule="evenodd" d="M362 219.061C349.28 229.691 348.95 240.861 361 252.561C375.38 257.221 384.21 252.051 387.5 237.061C388.71 240.321 390.54 243.151 393 245.561C395.83 245.981 397.16 244.651 397 241.561C395.92 235.231 392.92 230.061 388 226.061C389.59 224.941 391.26 225.111 393 226.561C403.04 237.601 412.71 248.931 422 260.561C433.24 269.681 445.58 277.021 459 282.561C462.76 284.731 463.76 287.731 462 291.561C458.93 293.411 455.6 294.411 452 294.561C443.26 294.891 434.6 294.221 426 292.561C415.13 287.281 405.46 280.281 397 271.561C395.71 271.071 394.37 270.901 393 271.061C392.84 272.431 393.01 273.771 393.5 275.061C402.86 283.751 412.19 292.421 421.5 301.061C424.29 305.891 423.12 308.891 418 310.061C408.77 308.371 400.11 305.211 392 300.561C382.77 291.891 374.6 282.391 367.5 272.061C367.01 270.771 366.84 269.431 367 268.061C362.82 267.401 361.32 269.071 362.5 273.061C367.14 280.691 372.14 288.021 377.5 295.061C378.29 298.191 377.96 301.191 376.5 304.061C375.27 304.671 373.94 305.001 372.5 305.061C360.02 302.241 349.18 296.401 340 287.561C333.79 281.641 329.79 274.471 328 266.061C326.33 266.061 324.67 266.061 323 266.061C323.71 272.311 325.71 278.151 329 283.561C326.73 288.191 323.06 289.861 318 288.561C310.22 285.601 304.55 280.441 301 273.061C303.62 270.111 306.28 267.111 309 264.061C312.35 256.701 315.68 249.371 319 242.061C330.77 236.011 342.1 229.171 353 221.561C355.49 220.411 357.99 219.241 360.5 218.061C361.26 218.131 361.76 218.461 362 219.061Z" fill="#FEFEFE"/>
<path fill-rule="evenodd" clip-rule="evenodd" d="M388 226.061C392.92 230.061 395.92 235.231 397 241.561C397.16 244.651 395.83 245.981 393 245.561C390.54 243.151 388.71 240.321 387.5 237.061C384.21 252.051 375.38 257.221 361 252.561C348.95 240.861 349.28 229.691 362 219.061C371.97 216.721 380.64 219.051 388 226.061Z" fill="#050505"/>
<path fill-rule="evenodd" clip-rule="evenodd" d="M123 220.061C129.59 220.151 132.42 223.491 131.5 230.061C128.77 235.071 125.43 235.401 121.5 231.061C120.51 227.091 121.01 223.421 123 220.061Z" fill="#F0F0F0"/>
<path fill-rule="evenodd" clip-rule="evenodd" d="M365 222.061C370.16 222.391 372.83 225.221 373 230.561C371.67 235.941 368.5 237.771 363.5 236.061C359.8 230.881 360.3 226.211 365 222.061Z" fill="#F3F3F3"/>
<path fill-rule="evenodd" clip-rule="evenodd" d="M261 241.061C263.45 240.641 264.78 241.641 265 244.061C260.32 255.491 253.15 257.151 243.5 249.061C242.33 244.891 243.83 243.391 248 244.561C250.26 245.611 252.43 246.771 254.5 248.061C257.12 246.181 259.28 243.841 261 241.061Z" fill="#111111"/>
<path fill-rule="evenodd" clip-rule="evenodd" d="M206 277.061C207.93 277.671 209.6 278.671 211 280.061C207.26 285.971 202.93 291.471 198 296.561C192.26 300.271 186.26 303.101 180 305.061C163.48 299.661 154.81 305.661 154 323.061C153.95 328.821 155.28 334.151 158 339.061C157.14 338.101 156.47 338.101 156 339.061C165.1 353.141 172.6 368.141 178.5 384.061C181.56 393.041 181.73 402.041 179 411.061C178.94 417.791 181.61 422.951 187 426.561C189.14 427.191 191.14 426.861 193 425.561C198.58 417.651 201.25 408.811 201 399.061C200.99 388.161 198.99 377.661 195 367.561C195.23 365.831 196.23 364.991 198 365.061C199.93 365.151 201.09 366.151 201.5 368.061C204.15 376.921 206.15 385.921 207.5 395.061C213.57 386.361 215.9 376.701 214.5 366.061C213.1 358.041 210.6 350.371 207 343.061C208.47 340.901 210.3 340.571 212.5 342.061C214.48 346.521 216.31 351.021 218 355.561C220.65 355.421 222.32 353.921 223 351.061C223.29 336.561 219.96 322.891 213 310.061C213.72 306.711 215.38 306.211 218 308.561C219.37 311.141 220.87 313.641 222.5 316.061C227.52 313.021 230.02 308.521 230 302.561C228.47 298.191 227.81 293.691 228 289.061C229.88 289.901 231.88 290.231 234 290.061C235 296.701 235.16 303.371 234.5 310.061C231.87 315.511 228.37 320.171 224 324.061C225.2 329.151 226.7 334.151 228.5 339.061C229.65 345.751 228.65 352.081 225.5 358.061C223.83 359.391 222.17 360.731 220.5 362.061C221.49 374.451 219.16 386.111 213.5 397.061C211.76 399.301 209.59 400.971 207 402.061C206.23 413.551 201.9 423.381 194 431.561C186.14 433.881 180.3 431.381 176.5 424.061C173.7 415.561 173.2 406.901 175 398.061C174.97 392.931 174.13 387.931 172.5 383.061C166.05 366.811 158.05 351.481 148.5 337.061C142.6 323.251 144.1 310.411 153 298.561C156.17 297.101 159.5 296.271 163 296.061C171.34 297.321 179.68 297.321 188 296.061C196.1 291.631 202.1 285.301 206 277.061Z" fill="#EAEBEC"/>
<path fill-rule="evenodd" clip-rule="evenodd" d="M211 280.061C214.16 281.141 216.83 282.981 219 285.561C221.83 287.221 224.83 288.391 228 289.061C227.81 293.691 228.47 298.191 230 302.561C230.02 308.521 227.52 313.021 222.5 316.061C220.87 313.641 219.37 311.141 218 308.561C215.38 306.211 213.72 306.711 213 310.061C219.96 322.891 223.29 336.561 223 351.061C222.32 353.921 220.65 355.421 218 355.561C216.31 351.021 214.48 346.521 212.5 342.061C210.3 340.571 208.47 340.901 207 343.061C210.6 350.371 213.1 358.041 214.5 366.061C215.9 376.701 213.57 386.361 207.5 395.061C206.15 385.921 204.15 376.921 201.5 368.061C201.09 366.151 199.93 365.151 198 365.061C196.23 364.991 195.23 365.831 195 367.561C198.99 377.661 200.99 388.161 201 399.061C201.25 408.811 198.58 417.651 193 425.561C191.14 426.861 189.14 427.191 187 426.561C181.61 422.951 178.94 417.791 179 411.061C181.73 402.041 181.56 393.041 178.5 384.061C172.6 368.141 165.1 353.141 156 339.061C156.47 338.101 157.14 338.101 158 339.061C159.39 340.171 160.89 341.171 162.5 342.061C164.45 338.711 164.28 335.381 162 332.061C162.33 331.731 162.67 331.391 163 331.061C171.68 336.011 179.18 334.671 185.5 327.061C186.78 323.461 187.11 319.801 186.5 316.061C184.94 312.011 182.77 308.341 180 305.061C186.26 303.101 192.26 300.271 198 296.561C202.93 291.471 207.26 285.971 211 280.061Z" fill="#FEFEFE"/>
<path fill-rule="evenodd" clip-rule="evenodd" d="M289 284.061C293.91 291.791 300.91 296.621 310 298.561C319.81 298.581 329.48 299.581 339 301.561C342.85 304.411 345.35 308.251 346.5 313.061C347.15 319.841 346.48 326.511 344.5 333.061C339.1 346.861 333.43 360.531 327.5 374.061C326.83 379.391 326.83 384.731 327.5 390.061C329.17 396.391 330.83 402.731 332.5 409.061C333.17 413.391 333.17 417.731 332.5 422.061C327.36 432.561 320.36 433.891 311.5 426.061C305.91 418.891 301.91 410.891 299.5 402.061C294.81 408.261 289.81 408.591 284.5 403.061C283.02 398.941 281.35 394.941 279.5 391.061C278.69 383.151 278.85 375.311 280 367.561C273.76 365.651 269.93 361.491 268.5 355.061C267.4 345.851 268.24 336.851 271 328.061C266.14 326.371 262.64 323.031 260.5 318.061C259.33 308.511 260.16 299.171 263 290.061C265 290.061 267 290.061 269 290.061C265.75 298.081 264.58 306.421 265.5 315.061C266.5 317.061 267.5 319.061 268.5 321.061C270.38 323.141 272.55 323.471 275 322.061C276.19 317.221 278.85 313.551 283 311.061C284.38 311.561 285.05 312.561 285 314.061C280.86 321.391 277.36 329.051 274.5 337.061C272.33 344.181 272.66 351.181 275.5 358.061C276.77 360.621 278.6 361.291 281 360.061C282.26 352.451 284.42 345.121 287.5 338.061C290.03 335.191 291.87 335.521 293 339.061C287.14 354.191 284.31 369.861 284.5 386.061C284.71 392.361 287.04 397.691 291.5 402.061C293.87 400.021 295.87 397.691 297.5 395.061C297.01 380.781 298.68 366.781 302.5 353.061C305.36 350.121 307.19 350.621 308 354.561C301.86 372.721 301.69 390.881 307.5 409.061C310.04 414.321 313.21 419.151 317 423.561C324.09 426.171 327.76 423.511 328 415.561C326.67 408.251 324.84 401.081 322.5 394.061C320.21 385.271 320.55 376.601 323.5 368.061C327.36 359.691 331.19 351.351 335 343.061C334.54 342.261 333.88 341.931 333 342.061C338.77 337.001 341.44 330.501 341 322.561C340.13 305.831 331.79 300.001 316 305.061C308.81 303.651 301.81 301.321 295 298.061C290.52 294.921 287.19 290.921 285 286.061C286.01 284.891 287.35 284.221 289 284.061Z" fill="#E9EAEB"/>
<path fill-rule="evenodd" clip-rule="evenodd" d="M285 286.061C287.19 290.921 290.52 294.921 295 298.061C301.81 301.321 308.81 303.651 316 305.061C308.7 310.801 306.53 318.141 309.5 327.061C315.91 334.681 323.41 336.011 332 331.061C332.33 331.391 332.67 331.731 333 332.061C330.95 334.791 330.12 337.791 330.5 341.061C331.17 341.811 332 342.151 333 342.061C333.88 341.931 334.54 342.261 335 343.061C331.19 351.351 327.36 359.691 323.5 368.061C320.55 376.601 320.21 385.271 322.5 394.061C324.84 401.081 326.67 408.251 328 415.561C327.76 423.511 324.09 426.171 317 423.561C313.21 419.151 310.04 414.321 307.5 409.061C301.69 390.881 301.86 372.721 308 354.561C307.19 350.621 305.36 350.121 302.5 353.061C298.68 366.781 297.01 380.781 297.5 395.061C295.87 397.691 293.87 400.021 291.5 402.061C287.04 397.691 284.71 392.361 284.5 386.061C284.31 369.861 287.14 354.191 293 339.061C291.87 335.521 290.03 335.191 287.5 338.061C284.42 345.121 282.26 352.451 281 360.061C278.6 361.291 276.77 360.621 275.5 358.061C272.66 351.181 272.33 344.181 274.5 337.061C277.36 329.051 280.86 321.391 285 314.061C285.05 312.561 284.38 311.561 283 311.061C278.85 313.551 276.19 317.221 275 322.061C272.55 323.471 270.38 323.141 268.5 321.061C267.5 319.061 266.5 317.061 265.5 315.061C264.58 306.421 265.75 298.081 269 290.061C274.2 288.641 279.54 287.311 285 286.061Z" fill="#FEFEFE"/>
<path fill-rule="evenodd" clip-rule="evenodd" d="M180 305.061C182.77 308.341 184.94 312.011 186.5 316.061C187.11 319.801 186.78 323.461 185.5 327.061C179.18 334.671 171.68 336.011 163 331.061C162.67 331.391 162.33 331.731 162 332.061C164.28 335.381 164.45 338.711 162.5 342.061C160.89 341.171 159.39 340.171 158 339.061C155.28 334.151 153.95 328.821 154 323.061C154.81 305.661 163.48 299.661 180 305.061Z" fill="#080808"/>
<path fill-rule="evenodd" clip-rule="evenodd" d="M333 342.061C332 342.151 331.17 341.811 330.5 341.061C330.12 337.791 330.95 334.791 333 332.061C332.67 331.731 332.33 331.391 332 331.061C323.41 336.011 315.91 334.681 309.5 327.061C306.53 318.141 308.7 310.801 316 305.061C331.79 300.001 340.13 305.831 341 322.561C341.44 330.501 338.77 337.001 333 342.061Z" fill="#070707"/>
<path fill-rule="evenodd" clip-rule="evenodd" d="M164 308.061C171.33 306.891 174.49 309.891 173.5 317.061C169.62 319.781 166.29 319.111 163.5 315.061C162.8 312.631 162.96 310.301 164 308.061Z" fill="#F6F6F6"/>
<path fill-rule="evenodd" clip-rule="evenodd" d="M325 308.061C330.49 306.741 332.99 308.741 332.5 314.061C330.73 316.331 328.57 318.001 326 319.061C322.7 318.931 321.03 317.261 321 314.061C321.58 311.491 322.91 309.491 325 308.061Z" fill="#F2F2F2"/>
</svg>
