<svg width="500" height="500" viewBox="0 0 500 500" fill="none" xmlns="http://www.w3.org/2000/svg">
<path fill-rule="evenodd" clip-rule="evenodd" d="M199.694 48C201.291 50.8188 201.791 53.8188 201.194 57C199.133 59.628 196.633 60.2946 193.694 59C191.868 63.0182 188.868 64.5182 184.694 63.5C179.488 58.7831 177.821 53.1164 179.694 46.5C174.754 42.0681 170.421 37.2347 166.694 32C159.763 22.363 161.763 15.1964 172.694 10.5C174.694 9.83333 176.694 9.83333 178.694 10.5C181.489 12.2932 183.989 14.4598 186.194 17C190.967 23.5436 194.967 30.5436 198.194 38C198.804 41.3273 199.304 44.6606 199.694 48Z" fill="#50B050"/>
<path fill-rule="evenodd" clip-rule="evenodd" d="M166.693 32C170.42 37.2347 174.753 42.0681 179.693 46.5C177.82 53.1164 179.487 58.7831 184.693 63.5C188.867 64.5182 191.867 63.0182 193.693 59C196.632 60.2946 199.132 59.628 201.193 57C201.79 53.8188 201.29 50.8188 199.693 48C201.863 49.3382 203.529 51.1716 204.693 53.5C217.765 53.6848 230.765 54.6848 243.693 56.5C261.369 56.903 279.036 56.903 296.693 56.5C307.778 57.6256 317.278 62.1256 325.193 70C341.241 92.0478 361.074 109.881 384.693 123.5C393.096 129.119 395.596 136.619 392.193 146C386.777 152.277 380.277 153.61 372.693 150C361.824 147.66 350.824 145.827 339.693 144.5C320.033 144.85 300.366 144.85 280.693 144.5C269.422 143.185 258.755 140.018 248.693 135C248.36 135.333 248.026 135.667 247.693 136C253.814 146.583 257.981 157.916 260.193 170C260.913 184.689 260.579 199.356 259.193 214C258.116 216.078 256.95 218.078 255.693 220C249.985 221.886 243.985 222.553 237.693 222C233.753 217.631 230.419 212.797 227.693 207.5C223.508 207.528 219.841 206.195 216.693 203.5C198.86 188.333 182.36 171.833 167.193 154C164.108 149.5 161.275 144.833 158.693 140C152.317 145.719 146.15 151.719 140.193 158C128.193 172 116.193 186 104.193 200C93.1334 218.22 82.3004 236.554 71.6934 255C67.7314 263.269 61.3984 265.769 52.6934 262.5C50.3834 260.863 48.8834 258.696 48.1934 256C48.8234 246.893 49.6574 237.727 50.6934 228.5C45.8314 203.621 48.3314 179.454 58.1934 156C67.9514 135.308 81.4514 117.475 98.6934 102.5C110.417 93.7769 122.417 85.4435 134.693 77.5C144.521 72.0814 154.855 68.0814 165.693 65.5C168.778 63.5404 171.945 61.7071 175.193 60C175.86 58.6667 175.86 57.3333 175.193 56C172.808 49.5615 170.141 43.2282 167.193 37C166.699 35.3659 166.533 33.6992 166.693 32Z" fill="#8BC24A"/>
<path fill-rule="evenodd" clip-rule="evenodd" d="M372.693 150C384.571 168.17 390.238 188.17 389.693 210C388.866 235.965 384.533 261.299 376.693 286C374.422 287.766 372.256 289.766 370.193 292C369.502 295.521 370.002 298.855 371.693 302C366.255 314.402 361.422 327.069 357.193 340C347.707 357.828 335.541 373.662 320.693 387.5C314.142 392.268 307.475 396.768 300.693 401C300.41 400.211 299.91 399.544 299.193 399C295.026 401.833 290.86 404.667 286.693 407.5C285.941 408.171 285.607 409.004 285.693 410C268.222 419.57 249.556 423.07 229.693 420.5C221.766 417.691 213.766 415.191 205.693 413C201.518 405.412 195.185 402.412 186.693 404C152.798 386.439 126.798 360.773 108.693 327C111.743 319.063 109.077 314.729 100.693 314C92.0334 296.677 82.8664 279.677 73.1934 263C72.3714 260.383 71.8714 257.716 71.6934 255C82.3004 236.554 93.1334 218.22 104.193 200C116.193 186 128.193 172 140.193 158C146.15 151.719 152.317 145.719 158.693 140C161.275 144.833 164.108 149.5 167.193 154C182.36 171.833 198.86 188.333 216.693 203.5C219.841 206.195 223.508 207.528 227.693 207.5C230.419 212.797 233.753 217.631 237.693 222C199.402 225.395 168.236 242.061 144.193 272C137.292 284.168 136.959 296.502 143.193 309C151.464 324.61 163.964 335.11 180.693 340.5C188.976 341.583 197.31 342.083 205.693 342C245.849 344.063 285.182 339.563 323.693 328.5C340.051 321.288 349.218 308.788 351.193 291C357.282 260.13 345.448 239.963 315.693 230.5C313.261 227.02 309.928 225.02 305.693 224.5C288.827 223.55 272.16 222.05 255.693 220C256.95 218.078 258.116 216.078 259.193 214C260.579 199.356 260.913 184.689 260.193 170C257.981 157.916 253.814 146.583 247.693 136C248.026 135.667 248.36 135.333 248.693 135C258.755 140.018 269.422 143.185 280.693 144.5C300.366 144.85 320.033 144.85 339.693 144.5C350.824 145.827 361.824 147.66 372.693 150Z" fill="#F34336"/>
<path fill-rule="evenodd" clip-rule="evenodd" d="M283.692 183C287.153 182.646 289.653 183.979 291.192 187C291.859 191.667 291.859 196.333 291.192 201C289.445 204.921 286.611 205.921 282.692 204C278.538 196.739 278.872 189.739 283.692 183Z" fill="#FEE83A"/>
<path fill-rule="evenodd" clip-rule="evenodd" d="M351.693 187C357.383 186.523 361.05 189.023 362.693 194.5C360.577 198.014 359.077 201.847 358.193 206C354.899 208.811 351.899 208.478 349.193 205C347.975 200.045 347.642 195.045 348.193 190C349.711 189.337 350.878 188.337 351.693 187Z" fill="#FEEA3A"/>
<path fill-rule="evenodd" clip-rule="evenodd" d="M189.693 189C197.804 189 201.137 193.167 199.693 201.5C200.274 207.586 197.608 210.253 191.693 209.5C188.938 205.071 185.772 200.904 182.193 197C181.451 191.243 183.951 188.577 189.693 189Z" fill="#FEEA3B"/>
<path fill-rule="evenodd" clip-rule="evenodd" d="M131.694 193C133.393 192.84 135.06 193.006 136.694 193.5C138.742 196.203 140.576 199.036 142.194 202C143.389 207.951 141.222 211.951 135.694 214C132.506 213.644 130.339 211.977 129.194 209C128.527 204.667 128.527 200.333 129.194 196C130.239 195.127 131.072 194.127 131.694 193Z" fill="#FEE83A"/>
<path fill-rule="evenodd" clip-rule="evenodd" d="M255.692 220C272.159 222.05 288.826 223.55 305.692 224.5C309.927 225.02 313.26 227.02 315.692 230.5C345.447 239.963 357.281 260.13 351.192 291C349.217 308.788 340.05 321.288 323.692 328.5C285.181 339.563 245.848 344.063 205.692 342C197.309 342.083 188.975 341.583 180.692 340.5C163.963 335.11 151.463 324.61 143.192 309C136.958 296.502 137.291 284.168 144.192 272C168.235 242.061 199.401 225.395 237.692 222C243.984 222.553 249.984 221.886 255.692 220Z" fill="#FCFAFA"/>
<path fill-rule="evenodd" clip-rule="evenodd" d="M283.693 232C301.983 230.324 318.983 234.157 334.693 243.5C341.707 248.557 342.374 254.224 336.693 260.5C331.191 261.917 326.858 260.25 323.693 255.5C322.316 254.259 320.983 254.092 319.693 255C329.11 271.335 326.776 285.835 312.693 298.5C298.881 306.243 284.881 306.243 270.693 298.5C262.179 287.724 260.512 275.891 265.693 263C264.072 260.876 262.239 258.876 260.193 257C258.82 254.805 258.487 252.471 259.193 250C265.572 241.438 273.739 235.438 283.693 232Z" fill="#040404"/>
<path fill-rule="evenodd" clip-rule="evenodd" d="M371.693 302C370.002 298.855 369.502 295.521 370.193 292C372.256 289.766 374.422 287.766 376.693 286C386.638 282.028 395.638 276.528 403.693 269.5C408.693 266.667 413.693 263.833 418.693 261C419.522 255.698 420.022 250.364 420.193 245C426.097 238.25 431.764 238.584 437.193 246C439.015 254.151 443.515 260.318 450.693 264.5C455.249 264.609 459.582 265.609 463.693 267.5C467.693 271.833 467.693 276.167 463.693 280.5C453.889 282.969 444.889 281.135 436.693 275C435.211 276.983 433.544 278.816 431.693 280.5C418.36 286.5 405.026 292.5 391.693 298.5C388.824 300.248 386.157 302.248 383.693 304.5C379.297 305.468 375.297 304.635 371.693 302Z" fill="#050505"/>
<path fill-rule="evenodd" clip-rule="evenodd" d="M180.693 251C186.369 250.834 192.036 251.001 197.693 251.5C202.969 253.807 207.969 256.473 212.693 259.5C214.899 261.709 215.233 264.209 213.693 267C221.325 274.456 223.825 283.456 221.193 294C215.743 312.12 203.577 320.953 184.693 320.5C170.847 313.643 164.013 302.476 164.193 287C161.305 292.276 157.805 297.109 153.693 301.5C142.965 303.437 139.465 299.271 143.193 289C149.542 278.314 157.042 268.48 165.693 259.5C170.506 256.1 175.506 253.267 180.693 251Z" fill="#040404"/>
<path fill-rule="evenodd" clip-rule="evenodd" d="M101.693 251C107.787 251.656 110.454 255.156 109.693 261.5C109.012 267.351 105.679 270.851 99.6934 272C96.5674 271.208 94.9014 269.208 94.6934 266C96.0544 262.867 96.8874 259.533 97.1934 256C98.2184 253.813 99.7184 252.146 101.693 251Z" fill="#FEE73A"/>
<path fill-rule="evenodd" clip-rule="evenodd" d="M280.693 252C293.329 252.504 296.163 258.171 289.193 269C283.801 274.602 278.801 274.268 274.193 268C273.356 264.205 273.689 260.539 275.193 257C277.384 255.667 279.217 254 280.693 252Z" fill="#F4F4F4"/>
<path fill-rule="evenodd" clip-rule="evenodd" d="M191.692 267C196.318 266.2 200.152 267.534 203.192 271C204.026 275.661 204.36 280.328 204.192 285C200.3 291.457 195.134 292.624 188.692 288.5C187.491 287.597 186.657 286.431 186.192 285C184.84 277.85 186.673 271.85 191.692 267Z" fill="#F5F5F5"/>
<path fill-rule="evenodd" clip-rule="evenodd" d="M100.693 314C109.077 314.729 111.743 319.063 108.693 327C107.053 327.82 105.386 328.653 103.693 329.5C87.6824 330.405 71.6824 331.405 55.6934 332.5C53.4204 338.44 49.4204 342.773 43.6934 345.5C34.1824 346.312 31.0164 342.146 34.1934 333C38.8494 329.143 41.0154 324.143 40.6934 318C39.8144 314.688 39.6474 311.355 40.1934 308C41.9044 305.544 43.2374 302.877 44.1934 300C47.3614 295.967 51.1944 295.133 55.6934 297.5C60.6704 302.292 62.6704 308.125 61.6934 315C74.7134 315.187 87.7134 314.854 100.693 314Z" fill="#070606"/>
<path fill-rule="evenodd" clip-rule="evenodd" d="M227.693 315C230.05 314.837 232.383 315.003 234.693 315.5C239.264 317.634 243.931 319.467 248.693 321C253.144 318.562 257.811 316.562 262.693 315C267.754 316.561 269.588 319.894 268.193 325C264.906 330.567 260.072 334.067 253.693 335.5C250.026 336.167 246.36 336.167 242.693 335.5C237.921 332.91 232.921 330.91 227.693 329.5C222.367 324.499 222.367 319.665 227.693 315Z" fill="#080808"/>
<path fill-rule="evenodd" clip-rule="evenodd" d="M291.694 359C298.658 359.46 301.824 363.127 301.194 370C297.387 373.452 293.387 373.785 289.194 371C286.89 366.355 287.723 362.355 291.694 359Z" fill="#FEE63A"/>
<path fill-rule="evenodd" clip-rule="evenodd" d="M175.693 361C185.395 361.527 189.895 366.527 189.193 376C187.329 378.707 184.829 379.541 181.693 378.5C177.145 376.642 172.978 374.142 169.193 371C167.032 364.977 169.199 361.644 175.693 361Z" fill="#FEE93A"/>
<path fill-rule="evenodd" clip-rule="evenodd" d="M300.694 401C301.724 423.968 302.724 446.968 303.694 470C309.991 468.961 316.324 468.794 322.694 469.5C328.311 473.365 329.145 478.198 325.194 484C318.1 490.2 310.433 491.2 302.194 487C297.34 488.873 293.007 488.206 289.194 485C287.066 460.104 285.899 435.104 285.694 410C285.608 409.004 285.942 408.171 286.694 407.5C290.861 404.667 295.027 401.833 299.194 399C299.911 399.544 300.411 400.211 300.694 401Z" fill="#050505"/>
<path fill-rule="evenodd" clip-rule="evenodd" d="M205.694 413C206.189 414.982 206.689 416.982 207.194 419C208.281 437.765 207.615 456.431 205.194 475C203.451 479.543 200.118 481.876 195.194 482C188.718 481.266 182.218 480.766 175.694 480.5C170.099 478.146 168.266 473.979 170.194 468C171.027 467.167 171.861 466.333 172.694 465.5C178.61 465.31 184.443 464.81 190.194 464C191.106 445.925 191.439 427.925 191.194 410C189.067 408.386 187.567 406.386 186.694 404C195.186 402.412 201.519 405.412 205.694 413Z" fill="#090808"/>
</svg>
