<svg width="500" height="500" viewBox="0 0 500 500" fill="none" xmlns="http://www.w3.org/2000/svg">
<path fill-rule="evenodd" clip-rule="evenodd" d="M336 404.062C334.05 403.239 332.05 403.072 330 403.562C328.85 405.681 327.35 407.515 325.5 409.062C325.01 410.355 324.84 411.689 325 413.062C324.23 412.299 323.73 411.299 323.5 410.062C315.8 414.407 307.63 417.574 299 419.562C281.22 422.324 263.55 424.824 246 427.062C241.39 424.361 236.39 423.195 231 423.562C230.53 425.291 229.53 426.457 228 427.062C208.73 422.931 189.4 418.431 170 413.562C156.91 408.502 145.24 401.336 135 392.062C140.73 387.824 145.23 382.491 148.5 376.062C148.71 372.449 147.71 369.116 145.5 366.062C129.33 356.393 119.16 342.393 115 324.062C115.17 322.395 115.33 320.729 115.5 319.062C120.48 308.456 124.48 297.456 127.5 286.062C129.47 282.102 132.13 278.769 135.5 276.062C136.17 273.729 136.17 271.395 135.5 269.062C134.37 267.351 132.87 266.851 131 267.562C120.97 274.596 113.47 283.762 108.5 295.062C105.97 301.664 103.63 308.331 101.5 315.062C99.1503 327.983 101.81 339.649 109.5 350.062C113.67 354.229 117.83 358.395 122 362.562C126.5 365.647 131.17 368.48 136 371.062C132.7 374.718 128.7 377.384 124 379.062C120.51 374.091 117.01 369.091 113.5 364.062C106.83 352.062 100.17 340.062 93.5003 328.062C88.8003 317.185 87.1303 305.851 88.5003 294.062C90.6103 265.617 98.6103 238.95 112.5 214.062C118.44 204.455 124.78 195.122 131.5 186.062C134 171.382 136.67 156.715 139.5 142.062C139.41 124.711 141.74 107.711 146.5 91.0616C152.42 78.9641 157.75 66.6307 162.5 54.0616C164.33 50.8949 166.83 48.3949 170 46.5616C182.07 40.1884 194.74 35.5217 208 32.5616C240.75 29.3763 271.08 36.3763 299 53.5616C305.46 58.352 311.63 63.5187 317.5 69.0616C324.34 79.4168 331.68 89.4168 339.5 99.0616C342.67 103.403 345.34 108.07 347.5 113.062C352.2 126.838 357.87 140.172 364.5 153.062C369.86 173.125 377.19 192.458 386.5 211.062C388.16 216.384 389.83 221.717 391.5 227.062C405.77 249.207 412.77 273.541 412.5 300.062C414.09 316.521 410.76 331.854 402.5 346.062C393.47 363.089 380.97 376.923 365 387.562C355.27 393.089 345.6 398.589 336 404.062Z" fill="#185729"/>
<path fill-rule="evenodd" clip-rule="evenodd" d="M225 54.0618C239.92 53.2792 254.25 55.7792 268 61.5618C278.18 67.1504 288.51 72.4837 299 77.5618C307.03 84.9235 313.53 93.4235 318.5 103.062C329.34 125.071 339.34 147.404 348.5 170.062C351.7 185.1 356.04 199.766 361.5 214.062C367.25 222.572 373.25 230.905 379.5 239.062C384.62 250.548 389.29 262.214 393.5 274.062C395.24 281.653 395.91 289.32 395.5 297.062C381.06 343.504 350.89 375.004 305 391.562C298.15 393.542 291.15 394.875 284 395.562C272.21 399.654 260.21 402.987 248 405.562C229.05 408.964 211.71 405.297 196 394.562C187.14 386.704 178.64 378.538 170.5 370.062C163.01 354.955 158.68 338.955 157.5 322.062C156.37 295.639 157.37 269.306 160.5 243.062C164.61 223.389 169.95 204.056 176.5 185.062C182.51 162.686 183.68 140.019 180 117.062C180.32 100.76 184.82 85.7601 193.5 72.0618C201.92 62.2739 212.42 56.2739 225 54.0618Z" fill="#8AC249"/>
<path fill-rule="evenodd" clip-rule="evenodd" d="M260 188.061C267.01 187.895 274.01 188.061 281 188.561C294.31 188.999 306.64 192.665 318 199.561C321.37 202.596 324.37 205.929 327 209.561C330.33 211.894 333.67 214.228 337 216.561C360.79 245.138 366.29 276.972 353.5 312.061C348.49 322.567 341.66 331.733 333 339.561C321.12 347.334 308.79 354.334 296 360.561C277.81 368.54 260.15 367.54 243 357.561C218.73 344.201 203.23 324.035 196.5 297.061C187.01 262.548 195.18 233.048 221 208.561C228.01 204.726 234.67 200.392 241 195.561C247.1 192.146 253.43 189.646 260 188.061Z" fill="#B17A67"/>
<path fill-rule="evenodd" clip-rule="evenodd" d="M346 256.062C341.2 255.075 336.54 253.575 332 251.562C325.82 251.239 319.65 250.739 313.5 250.062C297.38 251.195 290.38 259.862 292.5 276.062C295.96 294.854 306.79 300.854 325 294.062C327.69 291.208 330.19 288.208 332.5 285.062C333.04 282.033 333.71 279.033 334.5 276.062C334.81 270.94 334.98 265.94 335 261.062C339.59 263.166 344.25 263.499 349 262.062C352.39 277.676 350.22 292.676 342.5 307.062C333.54 319.004 321.71 326.504 307 329.562C288.81 334.655 270.47 335.322 252 331.562C240.02 325.32 229.18 317.487 219.5 308.062C217.42 304.669 216.26 301.002 216 297.062C217.7 297.222 219.37 297.056 221 296.562C223.5 293.395 226 290.229 228.5 287.062C228.98 303.88 237.48 312.047 254 311.562C269.01 306.218 274.84 295.718 271.5 280.062C267.92 276.158 264.75 271.991 262 267.562C252.39 263.89 243.05 264.556 234 269.562C226.75 274.308 220.75 280.141 216 287.062C214.17 271.548 219.84 259.382 233 250.562C240.26 246.962 247.26 242.962 254 238.562C276.42 228.463 299.42 226.796 323 233.562C333.82 237.883 341.49 245.383 346 256.062Z" fill="#FCFCFC"/>
<path fill-rule="evenodd" clip-rule="evenodd" d="M346 256.062C348.47 257.204 349.47 259.204 349 262.062C344.25 263.499 339.59 263.166 335 261.062C334.98 265.94 334.81 270.94 334.5 276.062C333.71 279.033 333.04 282.033 332.5 285.062C330.19 288.208 327.69 291.208 325 294.062C306.79 300.854 295.96 294.854 292.5 276.062C290.38 259.862 297.38 251.195 313.5 250.062C319.65 250.739 325.82 251.239 332 251.562C336.54 253.575 341.2 255.075 346 256.062Z" fill="#050505"/>
<path fill-rule="evenodd" clip-rule="evenodd" d="M302 258.062C305.19 257.582 308.02 258.248 310.5 260.062C311.17 264.062 311.17 268.062 310.5 272.062C305.96 276.165 301.63 275.832 297.5 271.062C296.83 268.395 296.83 265.729 297.5 263.062C299.89 262.172 301.39 260.505 302 258.062Z" fill="#F8F8F8"/>
<path fill-rule="evenodd" clip-rule="evenodd" d="M216 297.062C214.79 293.71 214.79 290.376 216 287.062C220.75 280.141 226.75 274.308 234 269.562C243.05 264.556 252.39 263.89 262 267.562C264.75 271.991 267.92 276.158 271.5 280.062C274.84 295.718 269.01 306.218 254 311.562C237.48 312.047 228.98 303.88 228.5 287.062C226 290.229 223.5 293.395 221 296.562C219.37 297.056 217.7 297.222 216 297.062Z" fill="#050505"/>
<path fill-rule="evenodd" clip-rule="evenodd" d="M135 392.061C127.91 395.67 121.75 394.67 116.5 389.061C116.01 383.692 118.51 380.358 124 379.061C128.7 377.383 132.7 374.717 136 371.061C131.17 368.479 126.5 365.646 122 362.561C117.83 358.394 113.67 354.228 109.5 350.061C101.81 339.648 99.1503 327.982 101.5 315.061C103.63 308.33 105.97 301.663 108.5 295.061C113.47 283.761 120.97 274.595 131 267.561C132.87 266.85 134.37 267.35 135.5 269.061C136.17 271.394 136.17 273.728 135.5 276.061C132.13 278.768 129.47 282.101 127.5 286.061C124.48 297.455 120.48 308.455 115.5 319.061C115.33 320.728 115.17 322.394 115 324.061C119.16 342.392 129.33 356.392 145.5 366.061C147.71 369.115 148.71 372.448 148.5 376.061C145.23 382.49 140.73 387.823 135 392.061Z" fill="#010201"/>
<path fill-rule="evenodd" clip-rule="evenodd" d="M252 272.061C260.58 271.496 263.74 275.496 261.5 284.061C260.09 288.852 256.92 290.685 252 289.561C246.93 283.784 246.93 277.951 252 272.061Z" fill="#F7F7F7"/>
<path fill-rule="evenodd" clip-rule="evenodd" d="M300 302.061C303.07 301.486 305.07 302.652 306 305.561C304.52 309.532 302.52 313.199 300 316.561C298.47 317.484 296.8 317.984 295 318.061C290.57 317.285 286.41 315.951 282.5 314.061C281.79 312.194 282.29 310.694 284 309.561C288.05 309.579 292.05 309.912 296 310.561C297.75 307.898 299.08 305.064 300 302.061Z" fill="#0F0F0F"/>
<path fill-rule="evenodd" clip-rule="evenodd" d="M336 404.061C344.78 410.291 354.11 415.791 364 420.561C369.27 419.917 374.61 419.25 380 418.561C381.17 416.506 382.84 415.839 385 416.561C386.52 419.63 387.85 422.797 389 426.061C388.97 427.59 388.3 428.757 387 429.561C381.28 430.473 375.78 431.973 370.5 434.061C366.67 433.23 362.84 432.397 359 431.561C350.12 426.955 341.12 422.622 332 418.561C329.23 417.19 326.9 415.357 325 413.061C324.84 411.688 325.01 410.354 325.5 409.061C327.35 407.514 328.85 405.68 330 403.561C332.05 403.071 334.05 403.238 336 404.061Z" fill="#080808"/>
<path fill-rule="evenodd" clip-rule="evenodd" d="M246 427.062C262.07 436.517 278.24 445.85 294.5 455.062C298.79 452.503 303.29 450.336 308 448.562C315.18 447.744 318.18 450.744 317 457.562C309.99 461.901 302.66 465.401 295 468.062C293.67 467.895 292.33 467.729 291 467.562C270.74 454.989 249.74 443.656 228 433.562C225.37 431.269 225.37 429.102 228 427.062C229.53 426.457 230.53 425.291 231 423.562C236.39 423.195 241.39 424.361 246 427.062Z" fill="#070707"/>
</svg>
