<svg width="500" height="500" viewBox="0 0 500 500" fill="none" xmlns="http://www.w3.org/2000/svg">
<path fill-rule="evenodd" clip-rule="evenodd" d="M286.001 39.0612C295.141 38.5712 304.141 39.4012 313.001 41.5612C327.061 48.2512 339.721 56.9212 351.001 67.5612C361.041 78.8112 369.211 91.3112 375.501 105.061C403.091 130.981 425.761 160.651 443.501 194.061C452.311 220.331 455.651 247.331 453.501 275.061C451.741 291.351 450.401 307.691 449.501 324.061C448.401 335.801 445.731 347.131 441.501 358.061C434.661 371.071 426.321 383.071 416.501 394.061C407.671 401.891 399.171 410.061 391.001 418.561C384.781 422.511 379.111 427.181 374.001 432.561C359.591 440.761 344.251 446.761 328.001 450.561C315.941 453.241 303.941 456.241 292.001 459.561C273.171 460.171 254.341 460.671 235.501 461.061C220.281 461.201 205.111 460.371 190.001 458.561C182.251 457.021 174.921 454.351 168.001 450.561C157.801 444.621 147.461 438.961 137.001 433.561C128.591 427.271 120.091 421.101 111.501 415.061C103.881 404.441 95.8814 394.111 87.5014 384.061C71.3114 358.021 58.6514 330.351 49.5014 301.061C45.1714 280.151 44.8414 259.151 48.5014 238.061C55.4414 211.251 64.7714 185.251 76.5014 160.061C96.7914 132.101 121.291 108.601 150.001 89.5612C171.231 78.7912 193.561 71.1212 217.001 66.5612C229.161 65.4412 241.161 66.2812 253.001 69.0612C254.251 68.5212 255.411 67.8512 256.501 67.0612C261.491 56.4012 268.991 47.9012 279.001 41.5612C281.501 40.8612 283.841 40.0312 286.001 39.0612Z" fill="#4CAE4F"/>
<path fill-rule="evenodd" clip-rule="evenodd" d="M381.001 123.061C378.381 125.961 376.551 129.291 375.501 133.061C370.461 163.111 379.961 187.281 404.001 205.561C416.441 213.781 429.441 220.281 443.001 225.061C443.771 230.361 444.111 235.691 444.001 241.061C433.621 246.501 424.451 253.501 416.501 262.061C408.361 277.191 403.521 293.361 402.001 310.561C402.041 314.131 402.541 317.631 403.501 321.061C409.211 337.391 416.711 352.721 426.001 367.061C423.081 371.991 419.751 376.651 416.001 381.061C393.071 372.001 371.741 374.831 352.001 389.561C335.121 403.491 326.451 421.321 326.001 443.061C319.551 443.991 313.221 445.331 307.001 447.061C301.321 436.871 293.321 428.711 283.001 422.561C270.171 414.151 256.171 411.151 241.001 413.561C233.421 415.551 225.761 417.211 218.001 418.561C207.331 423.231 196.671 427.891 186.001 432.561C181.791 436.271 177.461 439.771 173.001 443.061C167.661 440.391 162.331 437.721 157.001 435.061C157.921 406.071 147.251 382.231 125.001 363.561C110.391 354.071 94.391 348.241 77.001 346.061C72.711 340.411 69.711 334.071 68.001 327.061C71.391 325.941 74.221 323.941 76.501 321.061C85.861 308.661 91.531 294.661 93.501 279.061C97.951 258.511 94.951 239.181 84.501 221.061C81.671 218.231 78.831 215.391 76.001 212.561C73.241 210.611 70.241 209.441 67.001 209.061C69.461 202.571 71.461 195.911 73.001 189.061C88.951 191.571 103.621 188.401 117.001 179.561C141.671 163.571 151.171 141.071 145.501 112.061C144.941 109.671 143.771 107.671 142.001 106.061C148.151 100.911 154.811 96.5811 162.001 93.0611C163.671 97.5711 166.671 101.071 171.001 103.561C189.091 110.041 207.421 111.041 226.001 106.561C233.811 103.681 241.481 100.511 249.001 97.0611C250.931 96.7911 252.261 95.7911 253.001 94.0611C255.561 92.1911 258.061 90.1911 260.501 88.0611C263.531 92.7911 267.031 97.1211 271.001 101.061C270.091 103.161 268.921 105.161 267.501 107.061C266.661 109.381 266.331 111.711 266.501 114.061C269.561 115.691 271.231 114.691 271.501 111.061C272.951 109.101 274.781 107.761 277.001 107.061C283.791 111.341 290.451 115.841 297.001 120.561C254.731 121.321 215.731 132.981 180.001 155.561C141.601 184.011 121.601 222.341 120.001 270.561C124.071 295.611 131.071 319.781 141.001 343.061C136.291 349.211 137.621 353.541 145.001 356.061C147.101 355.581 149.101 354.921 151.001 354.061C174.601 379.861 203.931 394.531 239.001 398.061C243.331 398.061 247.671 398.061 252.001 398.061C269.711 396.031 287.041 392.191 304.001 386.561C309.521 383.971 314.861 381.131 320.001 378.061C322.011 378.171 323.681 377.501 325.001 376.061C381.011 341.781 400.671 292.451 384.001 228.061C385.291 226.261 386.791 224.601 388.501 223.061C391.421 219.611 391.581 216.111 389.001 212.561C385.171 211.581 381.841 212.421 379.001 215.061C370.191 194.751 356.521 178.591 338.001 166.561C317.591 161.371 297.251 155.711 277.001 149.561C273.041 147.331 269.541 144.491 266.501 141.061C263.581 135.701 265.081 132.201 271.001 130.561C283.171 130.691 295.171 129.351 307.001 126.561C310.481 123.851 310.811 120.851 308.001 117.561C298.061 111.281 288.391 104.621 279.001 97.5611C273.011 91.2511 268.011 84.2511 264.001 76.5611C267.151 61.7411 276.151 52.4111 291.001 48.5611C298.191 47.5111 305.191 48.1711 312.001 50.5611C337.291 61.8511 355.121 80.3511 365.501 106.061C369.791 112.521 374.961 118.191 381.001 123.061Z" fill="#8AC24A"/>
<path fill-rule="evenodd" clip-rule="evenodd" d="M254.001 80.0609C249.541 84.8109 247.881 90.4809 249.001 97.0609C241.481 100.511 233.811 103.681 226.001 106.561C207.421 111.041 189.091 110.041 171.001 103.561C166.671 101.071 163.671 97.5709 162.001 93.0609C175.361 87.3909 189.031 82.2309 203.001 77.5609C218.031 74.6509 233.031 74.6509 248.001 77.5609C249.991 78.5009 251.991 79.3309 254.001 80.0609Z" fill="#6AB84D"/>
<path fill-rule="evenodd" clip-rule="evenodd" d="M253.001 94.061C252.261 95.791 250.931 96.791 249.001 97.061C247.881 90.481 249.541 84.811 254.001 80.061C255.001 80.151 255.831 79.811 256.501 79.061C258.061 81.001 259.221 83.171 260.001 85.561C257.171 87.981 254.831 90.811 253.001 94.061Z" fill="#F7FBF7"/>
<path fill-rule="evenodd" clip-rule="evenodd" d="M322.002 84.061C331.692 82.991 334.692 86.821 331.002 95.561C322.442 99.351 318.612 96.511 319.502 87.061C320.202 85.871 321.032 84.871 322.002 84.061Z" fill="#080C04"/>
<path fill-rule="evenodd" clip-rule="evenodd" d="M271.001 101.061C274.001 102.061 276.001 104.061 277.001 107.061C274.781 107.761 272.951 109.101 271.501 111.061C271.231 114.691 269.561 115.691 266.501 114.061C266.331 111.711 266.661 109.381 267.501 107.061C268.921 105.161 270.091 103.161 271.001 101.061Z" fill="#F4F9F0"/>
<path fill-rule="evenodd" clip-rule="evenodd" d="M142.001 106.061C143.771 107.671 144.941 109.671 145.501 112.061C151.171 141.071 141.671 163.571 117.001 179.561C103.621 188.401 88.951 191.571 73.001 189.061C84.071 162.151 100.741 139.321 123.001 120.561C129.211 115.511 135.541 110.681 142.001 106.061Z" fill="#6AB84C"/>
<path fill-rule="evenodd" clip-rule="evenodd" d="M381.001 123.061C388.661 129.891 395.831 137.221 402.501 145.061C416.901 165.141 429.231 186.471 439.501 209.061C440.671 214.411 441.841 219.751 443.001 225.061C429.441 220.281 416.441 213.781 404.001 205.561C379.961 187.281 370.461 163.111 375.501 133.061C376.551 129.291 378.381 125.961 381.001 123.061Z" fill="#6AB84C"/>
<path fill-rule="evenodd" clip-rule="evenodd" d="M365.001 211.061C355.531 211.031 351.701 215.701 353.501 225.061C354.281 227.641 355.781 229.641 358.001 231.061C354.661 241.571 348.161 249.571 338.501 255.061C328.721 237.611 315.221 223.781 298.001 213.561C293.601 211.191 288.931 209.691 284.001 209.061C287.631 201.311 284.971 197.311 276.001 197.061C273.571 197.451 271.231 198.111 269.001 199.061C267.341 196.471 265.681 193.811 264.001 191.061C259.441 181.121 251.771 176.291 241.001 176.561C236.101 178.461 232.931 181.961 231.501 187.061C223.121 175.751 216.121 176.421 210.501 189.061C209.511 192.711 208.671 196.371 208.001 200.061C207.101 202.951 206.761 205.951 207.001 209.061C202.521 209.311 197.861 209.481 193.001 209.561C185.861 215.501 186.531 220.331 195.001 224.061C188.861 230.351 183.691 237.351 179.501 245.061C176.441 252.251 173.771 259.581 171.501 267.061C169.861 277.381 169.531 287.711 170.501 298.061C163.261 302.631 156.591 307.971 150.501 314.061C147.791 318.141 145.631 322.471 144.001 327.061C135.831 307.561 130.831 287.231 129.001 266.061C129.171 261.391 129.331 256.731 129.501 252.061C134.981 221.591 148.481 195.431 170.001 173.561C178.671 167.231 187.331 160.891 196.001 154.561C209.561 148.951 223.221 143.621 237.001 138.561C243.151 136.271 249.481 134.771 256.001 134.061C257.331 144.221 262.331 152.051 271.001 157.561C285.821 163.481 301.151 167.481 317.001 169.561C330.881 172.911 342.711 179.751 352.501 190.061C356.891 196.951 361.061 203.951 365.001 211.061Z" fill="#235623"/>
<path fill-rule="evenodd" clip-rule="evenodd" d="M264.001 191.061C249.651 193.751 235.311 196.591 221.001 199.561C216.681 200.061 212.351 200.231 208.001 200.061C208.671 196.371 209.511 192.711 210.501 189.061C216.121 176.421 223.121 175.751 231.501 187.061C232.931 181.961 236.101 178.461 241.001 176.561C251.771 176.291 259.441 181.121 264.001 191.061Z" fill="#AE7965"/>
<path fill-rule="evenodd" clip-rule="evenodd" d="M264.001 191.061C265.681 193.811 267.341 196.471 269.001 199.061C266.681 201.851 263.681 203.691 260.001 204.561C248.701 206.441 237.531 208.941 226.501 212.061C220.011 210.881 213.511 209.881 207.001 209.061C206.761 205.951 207.101 202.951 208.001 200.061C212.351 200.231 216.681 200.061 221.001 199.561C235.311 196.591 249.651 193.751 264.001 191.061Z" fill="#7D5649"/>
<path fill-rule="evenodd" clip-rule="evenodd" d="M284.001 209.061C273.101 215.421 261.441 219.921 249.001 222.561C233.811 225.711 218.481 227.041 203.001 226.561C200.121 226.291 197.451 225.451 195.001 224.061C186.531 220.331 185.861 215.501 193.001 209.561C197.861 209.481 202.521 209.311 207.001 209.061C213.511 209.881 220.011 210.881 226.501 212.061C237.531 208.941 248.701 206.441 260.001 204.561C263.681 203.691 266.681 201.851 269.001 199.061C271.231 198.111 273.571 197.451 276.001 197.061C284.971 197.311 287.631 201.311 284.001 209.061Z" fill="#B07A67"/>
<path fill-rule="evenodd" clip-rule="evenodd" d="M67.001 209.061C70.241 209.441 73.241 210.611 76.001 212.561C78.831 215.391 81.671 218.231 84.501 221.061C94.951 239.181 97.951 258.511 93.501 279.061C91.531 294.661 85.861 308.661 76.501 321.061C74.221 323.941 71.391 325.941 68.001 327.061C66.431 323.531 64.931 319.871 63.501 316.061C59.951 300.341 57.451 284.501 56.001 268.561C57.511 248.331 61.181 228.501 67.001 209.061Z" fill="#6AB84C"/>
<path fill-rule="evenodd" clip-rule="evenodd" d="M284.001 209.061C288.931 209.691 293.601 211.191 298.001 213.561C315.221 223.781 328.721 237.611 338.501 255.061C348.161 249.571 354.661 241.571 358.001 231.061C355.781 229.641 354.281 227.641 353.501 225.061C351.701 215.701 355.531 211.031 365.001 211.061C366.651 214.201 368.821 216.871 371.501 219.061C374.281 218.091 376.781 216.751 379.001 215.061C381.841 212.421 385.171 211.581 389.001 212.561C391.581 216.111 391.421 219.611 388.501 223.061C386.791 224.601 385.291 226.261 384.001 228.061C381.231 230.161 378.231 231.831 375.001 233.061C367.661 241.891 360.661 251.051 354.001 260.561C349.481 263.791 344.481 265.961 339.001 267.061C338.891 286.571 332.061 303.241 318.501 317.061C312.691 323.721 306.191 329.381 299.001 334.061C299.641 336.671 300.801 339.001 302.501 341.061C307.871 346.091 312.871 351.431 317.501 357.061C319.811 350.321 324.311 347.991 331.001 350.061C332.261 351.591 333.261 353.261 334.001 355.061C335.041 357.301 335.201 359.631 334.501 362.061C331.091 366.631 327.921 371.291 325.001 376.061C323.681 377.501 322.011 378.171 320.001 378.061C316.171 376.911 313.171 374.571 311.001 371.061C306.741 365.301 301.911 359.971 296.501 355.061C292.091 349.651 288.091 343.991 284.501 338.061C269.181 341.661 253.681 344.001 238.001 345.061C240.131 356.631 241.631 368.301 242.501 380.061C250.941 376.861 257.101 379.191 261.001 387.061C261.131 389.211 260.631 391.211 259.501 393.061C257.071 395.011 254.571 396.681 252.001 398.061C247.671 398.061 243.331 398.061 239.001 398.061C233.801 396.851 231.131 393.521 231.001 388.061C228.541 374.841 226.711 361.511 225.501 348.061C224.641 346.471 223.971 344.811 223.501 343.061C216.021 339.901 208.521 336.731 201.001 333.561C192.631 326.861 185.291 319.191 179.001 310.561C176.601 309.851 174.271 310.021 172.001 311.061C165.931 317.231 161.431 324.231 158.501 332.061C162.641 334.591 163.971 338.251 162.501 343.061C161.491 345.761 159.991 348.101 158.001 350.061C155.831 351.651 153.501 352.981 151.001 354.061C149.101 354.921 147.101 355.581 145.001 356.061C137.621 353.541 136.291 349.211 141.001 343.061C142.001 341.071 142.001 338.911 141.001 336.561C142.311 333.511 143.311 330.341 144.001 327.061C145.631 322.471 147.791 318.141 150.501 314.061C156.591 307.971 163.261 302.631 170.501 298.061C169.531 287.711 169.861 277.381 171.501 267.061C173.771 259.581 176.441 252.251 179.501 245.061C183.691 237.351 188.861 230.351 195.001 224.061C197.451 225.451 200.121 226.291 203.001 226.561C218.481 227.041 233.811 225.711 249.001 222.561C261.441 219.921 273.101 215.421 284.001 209.061Z" fill="#FCFCFC"/>
<path fill-rule="evenodd" clip-rule="evenodd" d="M384.001 228.061C400.671 292.451 381.011 341.781 325.001 376.061C327.921 371.291 331.091 366.631 334.501 362.061C335.201 359.631 335.041 357.301 334.001 355.061C340.561 352.191 346.391 348.191 351.501 343.061C359.401 334.261 366.071 324.601 371.501 314.061C378.531 292.181 380.861 269.851 378.501 247.061C377.641 242.301 376.481 237.631 375.001 233.061C378.231 231.831 381.231 230.161 384.001 228.061Z" fill="#4DAE4F"/>
<path fill-rule="evenodd" clip-rule="evenodd" d="M375.001 233.061C376.481 237.631 377.641 242.301 378.501 247.061C380.861 269.851 378.531 292.181 371.501 314.061C366.071 324.601 359.401 334.261 351.501 343.061C346.391 348.191 340.561 352.191 334.001 355.061C333.261 353.261 332.261 351.591 331.001 350.061C324.311 347.991 319.811 350.321 317.501 357.061C312.871 351.431 307.871 346.091 302.501 341.061C300.801 339.001 299.641 336.671 299.001 334.061C306.191 329.381 312.691 323.721 318.501 317.061C332.061 303.241 338.891 286.571 339.001 267.061C344.481 265.961 349.481 263.791 354.001 260.561C360.661 251.051 367.661 241.891 375.001 233.061Z" fill="#235623"/>
<path fill-rule="evenodd" clip-rule="evenodd" d="M313.001 263.061C311.361 269.131 309.201 275.131 306.501 281.061C302.891 285.111 298.391 287.451 293.001 288.061C274.481 289.551 265.151 280.881 265.001 262.061C266.221 243.671 275.881 235.831 294.001 238.561C300.381 239.361 306.711 240.361 313.001 241.561C317.431 244.111 322.101 246.111 327.001 247.561C330.001 250.721 329.501 252.891 325.501 254.061C321.151 254.511 316.991 253.511 313.001 251.061C312.641 254.961 312.641 258.961 313.001 263.061Z" fill="#040404"/>
<path fill-rule="evenodd" clip-rule="evenodd" d="M444.001 241.061C444.461 248.881 444.791 256.721 445.001 264.561C443.761 283.721 442.591 302.881 441.501 322.061C440.461 330.111 439.121 338.111 437.501 346.061C434.161 353.411 430.331 360.411 426.001 367.061C416.711 352.721 409.211 337.391 403.501 321.061C402.541 317.631 402.041 314.131 402.001 310.561C403.521 293.361 408.361 277.191 416.501 262.061C424.451 253.501 433.621 246.501 444.001 241.061Z" fill="#6AB84C"/>
<path fill-rule="evenodd" clip-rule="evenodd" d="M279.001 245.061C285.001 245.731 287.671 249.061 287.001 255.061C287.181 262.711 283.511 265.881 276.001 264.561C273.031 262.421 271.031 259.591 270.001 256.061C271.921 251.481 274.921 247.811 279.001 245.061Z" fill="#F0F0F0"/>
<path fill-rule="evenodd" clip-rule="evenodd" d="M225.001 300.061C215.561 303.531 207.391 301.531 200.501 294.061C199.231 291.171 197.731 288.501 196.001 286.061C194.601 281.881 193.771 277.551 193.501 273.061C191.041 276.521 188.201 279.691 185.001 282.561C179.501 283.121 177.671 280.621 179.501 275.061C190.441 256.341 206.611 248.501 228.001 251.561C232.311 252.861 234.811 255.701 235.501 260.061C239.991 263.881 242.491 268.711 243.001 274.561C242.261 286.921 236.261 295.421 225.001 300.061Z" fill="#050505"/>
<path fill-rule="evenodd" clip-rule="evenodd" d="M223.001 257.061C232.261 259.771 234.421 265.441 229.501 274.061C226.491 278.461 222.831 279.131 218.501 276.061C213.951 268.441 215.451 262.111 223.001 257.061Z" fill="#F4F4F4"/>
<path fill-rule="evenodd" clip-rule="evenodd" d="M313.001 263.061C316.701 263.021 320.701 263.191 325.001 263.561C332.281 267.291 334.781 273.121 332.501 281.061C325.101 295.681 313.601 300.851 298.001 296.561C294.901 294.531 293.241 291.701 293.001 288.061C298.391 287.451 302.891 285.111 306.501 281.061C309.201 275.131 311.361 269.131 313.001 263.061Z" fill="#FDE1ED"/>
<path fill-rule="evenodd" clip-rule="evenodd" d="M196.001 286.061C197.731 288.501 199.231 291.171 200.501 294.061C207.391 301.531 215.561 303.531 225.001 300.061C225.921 307.311 222.921 312.141 216.001 314.561C206.401 317.081 197.071 316.411 188.001 312.561C178.971 306.671 177.641 299.341 184.001 290.561C187.701 288.211 191.701 286.711 196.001 286.061Z" fill="#FDE1ED"/>
<path fill-rule="evenodd" clip-rule="evenodd" d="M272.001 294.061C275.071 293.481 277.071 294.651 278.001 297.561C276.341 302.551 273.681 306.881 270.001 310.561C263.981 310.451 258.151 309.281 252.501 307.061C251.641 304.811 252.141 302.981 254.001 301.561C257.891 301.321 261.721 301.821 265.501 303.061C268.611 300.871 270.781 297.871 272.001 294.061Z" fill="#0D0D0D"/>
<path fill-rule="evenodd" clip-rule="evenodd" d="M231.001 388.061C216.941 385.321 203.611 380.481 191.001 373.561C179.621 366.211 168.621 358.371 158.001 350.061C159.991 348.101 161.491 345.761 162.501 343.061C163.971 338.251 162.641 334.591 158.501 332.061C161.431 324.231 165.931 317.231 172.001 311.061C174.271 310.021 176.601 309.851 179.001 310.561C185.291 319.191 192.631 326.861 201.001 333.561C208.521 336.731 216.021 339.901 223.501 343.061C223.971 344.811 224.641 346.471 225.501 348.061C226.711 361.511 228.541 374.841 231.001 388.061Z" fill="#245624"/>
<path fill-rule="evenodd" clip-rule="evenodd" d="M311.001 371.061C300.501 374.391 290.161 378.231 280.001 382.561C273.731 384.381 267.401 385.881 261.001 387.061C257.101 379.191 250.941 376.861 242.501 380.061C241.631 368.301 240.131 356.631 238.001 345.061C253.681 344.001 269.181 341.661 284.501 338.061C288.091 343.991 292.091 349.651 296.501 355.061C301.911 359.971 306.741 365.301 311.001 371.061Z" fill="#245724"/>
<path fill-rule="evenodd" clip-rule="evenodd" d="M77.001 346.061C94.391 348.241 110.391 354.071 125.001 363.561C147.251 382.231 157.921 406.071 157.001 435.061C143.091 427.521 129.921 418.861 117.501 409.061C109.201 398.081 100.861 387.081 92.501 376.061C86.531 366.451 81.361 356.451 77.001 346.061Z" fill="#6AB84C"/>
<path fill-rule="evenodd" clip-rule="evenodd" d="M158.001 350.061C168.621 358.371 179.621 366.211 191.001 373.561C203.611 380.481 216.941 385.321 231.001 388.061C231.131 393.521 233.801 396.851 239.001 398.061C203.931 394.531 174.601 379.861 151.001 354.061C153.501 352.981 155.831 351.651 158.001 350.061Z" fill="#4DAE50"/>
<path fill-rule="evenodd" clip-rule="evenodd" d="M311.001 371.061C313.171 374.571 316.171 376.911 320.001 378.061C314.861 381.131 309.521 383.971 304.001 386.561C287.041 392.191 269.711 396.031 252.001 398.061C254.571 396.681 257.071 395.011 259.501 393.061C260.631 391.211 261.131 389.211 261.001 387.061C267.401 385.881 273.731 384.381 280.001 382.561C290.161 378.231 300.501 374.391 311.001 371.061Z" fill="#4DAE50"/>
<path fill-rule="evenodd" clip-rule="evenodd" d="M416.001 381.061C407.231 390.001 398.561 399.171 390.001 408.561C382.091 413.801 374.751 419.801 368.001 426.561C364.491 428.811 360.831 430.811 357.001 432.561C346.631 436.231 336.301 439.731 326.001 443.061C326.451 421.321 335.121 403.491 352.001 389.561C371.741 374.831 393.071 372.001 416.001 381.061Z" fill="#6AB84C"/>
<path fill-rule="evenodd" clip-rule="evenodd" d="M307.001 447.061C302.631 447.811 298.301 448.981 294.001 450.561C260.981 453.161 227.981 453.161 195.001 450.561C187.111 449.321 179.781 446.821 173.001 443.061C177.461 439.771 181.791 436.271 186.001 432.561C196.671 427.891 207.331 423.231 218.001 418.561C225.761 417.211 233.421 415.551 241.001 413.561C256.171 411.151 270.171 414.151 283.001 422.561C293.321 428.711 301.321 436.871 307.001 447.061Z" fill="#69B84C"/>
</svg>
