<svg width="500" height="500" viewBox="0 0 500 500" fill="none" xmlns="http://www.w3.org/2000/svg">
<path fill-rule="evenodd" clip-rule="evenodd" d="M251 22.0613C252.699 21.9013 254.366 22.0713 256 22.5613C256.597 23.6213 256.93 24.7913 257 26.0613C255.174 31.7213 253.34 37.3813 251.5 43.0613C250.833 46.0613 250.833 49.0613 251.5 52.0613C255.421 57.9913 260.088 63.3213 265.5 68.0613C270.099 74.9913 270.099 81.9913 265.5 89.0613C262.833 93.0613 259.5 96.3913 255.5 99.0613C252.973 102.781 250.973 106.781 249.5 111.061C246.034 112.821 243.867 111.821 243 108.061C243.653 103.751 245.153 99.7513 247.5 96.0613C251.5 92.0613 255.5 88.0613 259.5 84.0613C261.784 79.7913 261.45 75.7913 258.5 72.0613C252.37 66.9413 247.37 60.9413 243.5 54.0613C242.596 42.6013 245.096 31.9413 251 22.0613Z" fill="#CEE5B2"/>
<path fill-rule="evenodd" clip-rule="evenodd" d="M187.999 41.0609C190.824 40.6409 192.99 41.6409 194.499 44.0609C200.268 56.0309 204.435 68.5309 206.999 81.5609C207.352 84.7609 206.352 87.4309 203.999 89.5609C198.28 91.7409 192.947 94.5709 187.999 98.0609C186.06 109.361 187.06 120.361 190.999 131.061C189.492 135.401 186.992 136.061 183.499 133.061C178.7 120.221 178.033 107.221 181.499 94.0609C185.932 88.9209 191.432 85.4209 197.999 83.5609C198.58 82.6709 198.914 81.6709 198.999 80.5609C196.156 69.3709 192.322 58.5409 187.499 48.0609C186.796 45.6309 186.962 43.3009 187.999 41.0609Z" fill="#CEE5B2"/>
<path fill-rule="evenodd" clip-rule="evenodd" d="M318.001 59.0609C321.365 58.4309 323.365 59.7709 324.001 63.0609C321.785 67.4509 318.952 71.4509 315.501 75.0609C311.676 80.3409 311.01 86.0109 313.501 92.0609C319.399 99.6109 322.899 108.111 324.001 117.561C322.894 123.821 321.394 129.991 319.501 136.061C317.731 137.981 315.564 138.481 313.001 137.561C312.404 136.501 312.071 135.331 312.001 134.061C313.98 127.821 315.147 121.491 315.501 115.061C314.289 107.861 311.289 101.521 306.501 96.0609C302.743 87.3709 303.41 79.0309 308.501 71.0609C311.882 67.1809 315.048 63.1809 318.001 59.0609Z" fill="#CEE5B3"/>
<path fill-rule="evenodd" clip-rule="evenodd" d="M361 411.061C361 402.731 361 394.391 361 386.061C367.559 385.021 372.726 381.691 376.5 376.061C384.493 362.851 386.159 348.851 381.5 334.061C373.379 312.151 362.379 291.821 348.5 273.061C335.161 259.711 320.661 247.881 305 237.561C298.5 229.731 292 221.891 285.5 214.061C276.351 200.081 270.851 184.751 269 168.061C266.292 171.081 262.959 173.081 259 174.061C255.292 172.671 252.959 170.011 252 166.061C251.111 168.841 249.944 171.511 248.5 174.061C244.939 176.721 241.439 176.561 238 173.561C234.551 171.081 231.384 168.251 228.5 165.061C228.993 187.581 222.327 207.581 208.5 225.061C205.299 228.601 201.799 231.761 198 234.561C189.578 238.811 180.912 242.481 172 245.561C161.541 253.681 151.374 262.181 141.5 271.061C135.167 280.731 128.833 290.391 122.5 300.061C115.741 318.211 114.074 336.881 117.5 356.061C119.675 364.751 123.675 372.411 129.5 379.061C129.778 378.141 130.278 377.481 131 377.061C131.466 383.051 131.799 389.051 132 395.061C130.037 393.601 128.204 391.931 126.5 390.061C122.833 385.061 119.167 380.061 115.5 375.061C104.743 348.931 104.409 322.591 114.5 296.061C123.129 281.431 133.296 267.931 145 255.561C152.619 250.281 159.952 244.611 167 238.561C175 235.231 183 231.891 191 228.561C194.958 226.331 198.458 223.491 201.5 220.061C209.534 209.991 214.868 198.661 217.5 186.061C217.933 176.261 219.266 166.601 221.5 157.061C222.304 155.761 223.471 155.091 225 155.061C227.319 155.621 229.653 156.121 232 156.561C235.217 160.081 238.717 163.241 242.5 166.061C243.752 158.791 247.918 155.291 255 155.561C257.57 157.631 259.57 160.131 261 163.061C264.498 159.811 268.498 157.971 273 157.561C274.38 159.491 275.88 161.321 277.5 163.061C281.322 197.881 298.156 224.381 328 242.561C335.74 249.511 343.573 256.341 351.5 263.061C367.499 283.381 380.165 305.711 389.5 330.061C395.432 348.051 393.432 365.051 383.5 381.061C379.633 385.261 375.467 389.091 371 392.561C368.149 393.851 365.149 394.351 362 394.061C362.322 399.921 361.989 405.581 361 411.061Z" fill="#CCB6A4"/>
<path fill-rule="evenodd" clip-rule="evenodd" d="M361 386.061C359.879 381.091 358.212 376.261 356 371.561C354.601 370.971 353.268 371.131 352 372.061C351.034 373.961 350.701 375.961 351 378.061C353.89 390.231 350.557 400.061 341 407.561C335.594 410.601 329.927 413.101 324 415.061C315.889 411.151 309.056 412.481 303.5 419.061C296.48 432.331 285.313 439.171 270 439.561C256.153 440.791 242.486 439.791 229 436.561C224.382 433.611 220.048 430.281 216 426.561C214.707 426.071 213.373 425.901 212 426.061C212.14 424.441 211.473 423.271 210 422.561C200.021 423.021 190.021 423.021 180 422.561C179.084 422.281 178.418 421.781 178 421.061C190.537 412.861 201.87 403.191 212 392.061C240.324 396.881 267.991 394.051 295 383.561C302.158 380.151 309.158 376.481 316 372.561C328.648 360.001 332.148 345.171 326.5 328.061C324.644 325.001 322.811 322.001 321 319.061C324.817 318.031 325.817 315.691 324 312.061C318.502 309.151 313.168 305.981 308 302.561C303.785 301.711 299.785 300.541 296 299.061C297.373 299.221 298.707 299.051 300 298.561C288.796 291.241 276.463 286.911 263 285.561C241.405 285.431 220.072 287.761 199 292.561C189.918 295.601 181.918 300.431 175 307.061C175.209 305.641 175.709 304.301 176.5 303.061C188.461 288.761 200.795 274.761 213.5 261.061C218.531 254.341 222.531 247.001 225.5 239.061C225.545 234.741 223.879 234.071 220.5 237.061C218.446 243.571 215.446 249.571 211.5 255.061C197.833 270.731 184.167 286.391 170.5 302.061C159.927 315.541 152.26 330.541 147.5 347.061C143.407 364.411 145.24 381.081 153 397.061C149.024 397.721 145.358 396.721 142 394.061C141.625 388.631 140.792 383.301 139.5 378.061C136.915 375.821 134.082 375.491 131 377.061C130.278 377.481 129.778 378.141 129.5 379.061C123.675 372.411 119.675 364.751 117.5 356.061C114.074 336.881 115.741 318.211 122.5 300.061C128.833 290.391 135.167 280.731 141.5 271.061C151.374 262.181 161.541 253.681 172 245.561C180.912 242.481 189.578 238.811 198 234.561C201.799 231.761 205.299 228.601 208.5 225.061C222.327 207.581 228.993 187.581 228.5 165.061C231.384 168.251 234.551 171.081 238 173.561C241.439 176.561 244.939 176.721 248.5 174.061C249.944 171.511 251.111 168.841 252 166.061C252.959 170.011 255.292 172.671 259 174.061C262.959 173.081 266.292 171.081 269 168.061C270.851 184.751 276.351 200.081 285.5 214.061C292 221.891 298.5 229.731 305 237.561C320.661 247.881 335.161 259.711 348.5 273.061C362.379 291.821 373.379 312.151 381.5 334.061C386.159 348.851 384.493 362.851 376.5 376.061C372.726 381.691 367.559 385.021 361 386.061Z" fill="#F1E8D4"/>
<path fill-rule="evenodd" clip-rule="evenodd" d="M175 307.061C167.745 313.231 162.745 320.901 160 330.061C157.423 332.871 155.59 336.201 154.5 340.061C153.799 344.531 152.633 348.861 151 353.061C149.835 360.371 149.669 367.701 150.5 375.061C155.507 388.991 160.341 402.661 165 416.061C161.757 417.531 158.257 418.531 154.5 419.061C153.735 418.991 153.235 418.661 153 418.061C153.739 418.191 154.406 418.021 155 417.561C152.621 414.301 150.621 410.801 149 407.061C145.255 404.111 143.588 404.771 144 409.061C142.611 404.291 141.944 399.291 142 394.061C145.358 396.721 149.024 397.721 153 397.061C145.24 381.081 143.407 364.411 147.5 347.061C152.26 330.541 159.927 315.541 170.5 302.061C184.167 286.391 197.833 270.731 211.5 255.061C215.446 249.571 218.446 243.571 220.5 237.061C223.879 234.071 225.545 234.741 225.5 239.061C222.531 247.001 218.531 254.341 213.5 261.061C200.795 274.761 188.461 288.761 176.5 303.061C175.709 304.301 175.209 305.641 175 307.061Z" fill="#DDCDBA"/>
<path fill-rule="evenodd" clip-rule="evenodd" d="M296 299.061C288.19 296.471 280.19 295.641 272 296.561C261.978 302.431 256.978 311.261 257 323.061C258.584 344.451 269.918 352.621 291 347.561C299.446 342.861 304.612 335.701 306.5 326.061C307.903 321.691 308.403 317.351 308 313.061C311.958 316.041 316.292 318.041 321 319.061C322.811 322.001 324.644 325.001 326.5 328.061C332.148 345.171 328.648 360.001 316 372.561C309.158 376.481 302.158 380.151 295 383.561C267.991 394.051 240.324 396.881 212 392.061C213.735 387.501 217.069 385.001 222 384.561C225.868 382.401 227.368 379.231 226.5 375.061C225.383 373.441 223.883 372.441 222 372.061C219.338 373.411 216.505 374.081 213.5 374.061C210.485 373.921 207.651 373.421 205 372.561C203.175 374.031 202.675 375.861 203.5 378.061C205.333 379.891 207.167 381.731 209 383.561C207.502 386.221 205.502 388.391 203 390.061C171.938 381.911 157.605 361.911 160 330.061C162.745 320.901 167.745 313.231 175 307.061C181.918 300.431 189.918 295.601 199 292.561C220.072 287.761 241.405 285.431 263 285.561C276.463 286.911 288.796 291.241 300 298.561C298.707 299.051 297.373 299.221 296 299.061Z" fill="#FCFCFC"/>
<path fill-rule="evenodd" clip-rule="evenodd" d="M296 299.061C299.785 300.541 303.785 301.711 308 302.561C313.168 305.981 318.502 309.151 324 312.061C325.817 315.691 324.817 318.031 321 319.061C316.292 318.041 311.958 316.041 308 313.061C308.403 317.351 307.903 321.691 306.5 326.061C304.612 335.701 299.446 342.861 291 347.561C269.918 352.621 258.584 344.451 257 323.061C256.978 311.261 261.978 302.431 272 296.561C280.19 295.641 288.19 296.471 296 299.061Z" fill="#060606"/>
<path fill-rule="evenodd" clip-rule="evenodd" d="M196.001 299.061C204.949 298.401 213.615 299.571 222.001 302.561C225.556 304.771 227.389 307.941 227.501 312.061C234.827 321.351 234.827 330.691 227.501 340.061C220.196 350.471 210.363 354.301 198.001 351.561C189.634 347.691 184.467 341.191 182.501 332.061C182.147 327.221 181.981 322.561 182.001 318.061C178.793 321.441 175.459 324.601 172.001 327.561C170.06 328.301 168.227 328.141 166.501 327.061C166.053 319.791 168.886 313.951 175.001 309.561C181.728 305.381 188.728 301.881 196.001 299.061Z" fill="#050505"/>
<path fill-rule="evenodd" clip-rule="evenodd" d="M272 303.061C275.414 302.631 278.248 303.631 280.5 306.061C280.996 310.771 280.662 315.431 279.5 320.061C276.941 322.911 273.774 323.741 270 322.561C264.033 319.171 262.533 314.331 265.5 308.061C268.062 306.831 270.228 305.171 272 303.061Z" fill="#F4F4F4"/>
<path fill-rule="evenodd" clip-rule="evenodd" d="M212.001 307.061C218.338 306.731 222.005 309.731 223.001 316.061C221.89 322.341 218.39 326.671 212.501 329.061C204.216 324.381 202.882 318.051 208.501 310.061C209.646 308.921 210.813 307.921 212.001 307.061Z" fill="#F2F2F2"/>
<path fill-rule="evenodd" clip-rule="evenodd" d="M160 330.061C157.605 361.911 171.938 381.911 203 390.061C195.179 398.971 186.179 406.471 176 412.561C172.479 414.231 168.813 415.401 165 416.061C160.341 402.661 155.507 388.991 150.5 375.061C149.669 367.701 149.835 360.371 151 353.061C152.633 348.861 153.799 344.531 154.5 340.061C155.59 336.201 157.423 332.871 160 330.061Z" fill="#F0E8D5"/>
<path fill-rule="evenodd" clip-rule="evenodd" d="M258.999 353.061C260.698 352.901 262.365 353.071 263.999 353.561C264.588 360.041 261.921 365.041 255.999 368.561C249.684 368.321 243.851 366.491 238.499 363.061C236.999 357.891 238.832 356.061 243.999 357.561C246.832 358.731 249.666 359.891 252.499 361.061C255.366 359.011 257.533 356.341 258.999 353.061Z" fill="#0A0A0A"/>
<path fill-rule="evenodd" clip-rule="evenodd" d="M361 386.061C361 394.391 361 402.731 361 411.061C361.266 415.131 360.933 419.131 360 423.061C362.972 425.811 365.805 428.811 368.5 432.061C369.598 436.071 368.765 439.571 366 442.561C364.667 443.231 363.333 443.231 362 442.561C359.096 437.321 354.762 433.981 349 432.561C344.672 428.051 345.672 425.211 352 424.061C352.842 418.771 353.176 413.441 353 408.061C352.464 397.901 351.798 387.901 351 378.061C350.701 375.961 351.034 373.961 352 372.061C353.268 371.131 354.601 370.971 356 371.561C358.212 376.261 359.879 381.091 361 386.061Z" fill="#0E0D0D"/>
<path fill-rule="evenodd" clip-rule="evenodd" d="M212 392.061C201.87 403.191 190.537 412.861 178 421.061C173.857 423.901 169.523 426.231 165 428.061C154.625 431.291 146.125 428.621 139.5 420.061C138.361 416.451 136.694 413.111 134.5 410.061C133.744 405.001 132.911 400.001 132 395.061C131.799 389.051 131.466 383.051 131 377.061C134.082 375.491 136.915 375.821 139.5 378.061C140.792 383.301 141.625 388.631 142 394.061C141.944 399.291 142.611 404.291 144 409.061C145.369 413.761 148.369 416.761 153 418.061C153.235 418.661 153.735 418.991 154.5 419.061C158.257 418.531 161.757 417.531 165 416.061C168.813 415.401 172.479 414.231 176 412.561C186.179 406.471 195.179 398.971 203 390.061C205.502 388.391 207.502 386.221 209 383.561C207.167 381.731 205.333 379.891 203.5 378.061C202.675 375.861 203.175 374.031 205 372.561C207.651 373.421 210.485 373.921 213.5 374.061C216.505 374.081 219.338 373.411 222 372.061C223.883 372.441 225.383 373.441 226.5 375.061C227.368 379.231 225.868 382.401 222 384.561C217.069 385.001 213.735 387.501 212 392.061Z" fill="#0A0A09"/>
<path fill-rule="evenodd" clip-rule="evenodd" d="M351 378.061C351.798 387.901 352.464 397.901 353 408.061C342.403 418.701 329.737 424.361 315 425.061C314.185 424.131 313.352 423.131 312.5 422.061C309.954 425.421 308.121 429.091 307 433.061C306.383 432.951 305.883 432.621 305.5 432.061C302.667 434.891 299.833 437.731 297 440.561C284.269 446.951 270.769 449.781 256.5 449.061C243.624 449.851 231.458 447.351 220 441.561C217.504 439.891 215.171 438.061 213 436.061C210.811 432.321 207.478 430.651 203 431.061C203.313 434.601 202.979 437.941 202 441.061C202 438.061 202 435.061 202 432.061C189.396 432.821 177.063 431.481 165 428.061C169.523 426.231 173.857 423.901 178 421.061C178.418 421.781 179.084 422.281 180 422.561C190.021 423.021 200.021 423.021 210 422.561C211.473 423.271 212.14 424.441 212 426.061C213.373 425.901 214.707 426.071 216 426.561C220.048 430.281 224.382 433.611 229 436.561C242.486 439.791 256.153 440.791 270 439.561C285.313 439.171 296.48 432.331 303.5 419.061C309.056 412.481 315.889 411.151 324 415.061C329.927 413.101 335.594 410.601 341 407.561C350.557 400.061 353.89 390.231 351 378.061Z" fill="#CBB6A3"/>
<path fill-rule="evenodd" clip-rule="evenodd" d="M153 418.061C148.369 416.761 145.369 413.761 144 409.061C143.588 404.771 145.255 404.111 149 407.061C150.621 410.801 152.621 414.301 155 417.561C154.406 418.021 153.739 418.191 153 418.061Z" fill="#F5F3F2"/>
<path fill-rule="evenodd" clip-rule="evenodd" d="M315 425.061C316.46 429.281 317.627 433.611 318.5 438.061C318.768 447.461 319.601 456.791 321 466.061C326.181 465.841 331.014 466.841 335.5 469.061C336.64 472.091 335.806 474.251 333 475.561C328.848 476.491 324.681 477.321 320.5 478.061C317.859 477.661 315.526 476.661 313.5 475.061C311.473 471.351 310.973 467.521 312 463.561C310.17 453.421 308.504 443.251 307 433.061C308.121 429.091 309.954 425.421 312.5 422.061C313.352 423.131 314.185 424.131 315 425.061Z" fill="#0C0C0C"/>
<path fill-rule="evenodd" clip-rule="evenodd" d="M213.001 436.061C211.14 447.981 209.973 459.981 209.501 472.061C207.922 473.601 206.088 474.771 204.001 475.561C199.334 476.231 194.668 476.231 190.001 475.561C187.122 473.891 186.289 471.391 187.501 468.061C191.487 465.861 195.653 465.531 200.001 467.061C201.75 458.491 202.417 449.831 202.001 441.061C202.98 437.941 203.314 434.601 203.001 431.061C207.479 430.651 210.812 432.321 213.001 436.061Z" fill="#0B0B0B"/>
</svg>
