<svg width="500" height="500" viewBox="0 0 500 500" fill="none" xmlns="http://www.w3.org/2000/svg">
<path fill-rule="evenodd" clip-rule="evenodd" d="M226 56.0615C227.23 65.0215 225.897 65.3515 222 57.0615C217.665 50.5615 212.165 45.2315 205.5 41.0615C204.899 39.5915 205.399 38.5915 207 38.0615C214.669 42.7315 221.002 48.7315 226 56.0615Z" fill="#583A10"/>
<path fill-rule="evenodd" clip-rule="evenodd" d="M226 56.0618C234.218 54.4018 240.384 57.0618 244.5 64.0618C244.995 66.0318 245.162 68.0318 245 70.0618C242.703 81.5218 235.703 86.6818 224 85.5618C220.214 83.9318 216.547 82.1018 213 80.0618C208.746 69.4818 211.746 61.8218 222 57.0618C225.897 65.3518 227.23 65.0218 226 56.0618Z" fill="#F4493B"/>
<path fill-rule="evenodd" clip-rule="evenodd" d="M245 70.0615C265.858 68.7415 283.691 75.4115 298.5 90.0615C300.899 93.9915 300.399 97.3315 297 100.062C296.184 101.702 294.85 102.872 293 103.562C287.479 104.212 281.979 104.052 276.5 103.062C273.551 103.122 271.051 104.122 269 106.062C267.377 104.782 265.71 103.452 264 102.062C263.317 102.422 262.65 102.762 262 103.062C263.361 105.092 265.027 106.752 267 108.062C260.93 110.752 254.93 110.252 249 106.562C247.333 105.892 245.667 105.892 244 106.562C239.7 109.862 235.7 113.522 232 117.562C227.369 121.132 222.369 121.792 217 119.562C214.204 116.452 211.538 113.282 209 110.062C203.675 112.392 198.675 115.222 194 118.562C192.366 119.052 190.699 119.222 189 119.062C185.01 112.742 185.177 106.412 189.5 100.062C196.076 91.8615 203.91 85.2015 213 80.0615C216.547 82.1015 220.214 83.9315 224 85.5615C235.703 86.6815 242.703 81.5215 245 70.0615Z" fill="#FDFCFC"/>
<path fill-rule="evenodd" clip-rule="evenodd" d="M256 71.0615C257.832 71.7015 258.165 72.7015 257 74.0615C249.44 75.1115 249.106 74.1115 256 71.0615Z" fill="#9F31B2"/>
<path fill-rule="evenodd" clip-rule="evenodd" d="M258 75.0615C259 75.0615 260 75.0615 261 75.0615C261 77.7315 261 80.3915 261 83.0615C260 83.0615 259 83.0615 258 83.0615C258 80.3915 258 77.7315 258 75.0615Z" fill="#F54D40"/>
<path fill-rule="evenodd" clip-rule="evenodd" d="M274 78.0615C275.871 78.4215 277.371 79.4215 278.5 81.0615C279.063 82.2815 278.73 83.2815 277.5 84.0615C275.235 82.6415 274.069 80.6415 274 78.0615Z" fill="#596AE2"/>
<path fill-rule="evenodd" clip-rule="evenodd" d="M244 78.0615C244.978 78.3715 245.645 79.0415 246 80.0615C244.743 82.2415 243.243 84.2415 241.5 86.0615C240.808 85.5315 240.308 84.8715 240 84.0615C240.967 81.7715 242.3 79.7715 244 78.0615Z" fill="#54B257"/>
<path fill-rule="evenodd" clip-rule="evenodd" d="M275 86.0615C278.672 87.0315 278.672 88.5315 275 90.5615C273.226 92.3215 271.559 92.3215 270 90.5615C272.118 89.5115 273.784 88.0115 275 86.0615Z" fill="#F44A3D"/>
<path fill-rule="evenodd" clip-rule="evenodd" d="M249 86.0615C250.886 86.9215 252.72 87.9215 254.5 89.0615C255.249 90.2015 255.083 91.2015 254 92.0615C250.967 91.0815 249.3 89.0815 249 86.0615Z" fill="#485DE0"/>
<path fill-rule="evenodd" clip-rule="evenodd" d="M212 85.0615C214.596 86.6215 217.263 88.2915 220 90.0615C221.187 91.3815 220.854 92.3815 219 93.0615C215.266 91.5715 212.932 88.9115 212 85.0615Z" fill="#FFEC4D"/>
<path fill-rule="evenodd" clip-rule="evenodd" d="M284.999 91.0615C285.995 90.9715 286.828 91.3115 287.499 92.0615C288.307 94.1415 288.14 96.1415 286.999 98.0615C286.413 97.8515 285.913 97.5215 285.499 97.0615C285.004 95.0915 284.837 93.0915 284.999 91.0615Z" fill="#FFEB41"/>
<path fill-rule="evenodd" clip-rule="evenodd" d="M198.999 100.062C198.161 99.7215 197.827 99.0515 197.999 98.0615C201.091 97.0215 204.091 95.6815 206.999 94.0615C207.807 94.3715 208.474 94.8715 208.999 95.5615C206.019 97.8815 202.686 99.3815 198.999 100.062Z" fill="#F34A40"/>
<path fill-rule="evenodd" clip-rule="evenodd" d="M225 91.0615C227.798 92.2715 229.965 94.2715 231.5 97.0615C232.063 98.2815 231.73 99.2815 230.5 100.062C227.622 97.6315 225.788 94.6315 225 91.0615Z" fill="#A237B4"/>
<path fill-rule="evenodd" clip-rule="evenodd" d="M278 93.0615C279.175 92.8415 280.175 93.1715 281 94.0615C280.077 96.4815 278.577 98.4815 276.5 100.062C276 99.5615 275.5 99.0615 275 98.5615C276.258 96.8215 277.258 94.9915 278 93.0615Z" fill="#57B35A"/>
<path fill-rule="evenodd" clip-rule="evenodd" d="M238 93.0615C241.45 94.3015 242.45 96.6315 241 100.062C239.044 98.2115 238.044 95.8815 238 93.0615Z" fill="#5BB55D"/>
<path fill-rule="evenodd" clip-rule="evenodd" d="M215 95.0615C216.585 95.5615 217.085 96.5615 216.5 98.0615C214.461 100.432 212.128 102.432 209.5 104.062C208.808 103.532 208.308 102.872 208 102.062C210.688 100.042 213.021 97.7115 215 95.0615Z" fill="#495EE0"/>
<path fill-rule="evenodd" clip-rule="evenodd" d="M251.999 96.0614C253.477 95.8014 254.81 96.1314 255.999 97.0614C252.754 99.7914 249.254 101.131 245.499 101.061C244.811 100.231 244.978 99.5614 245.999 99.0614C248.103 98.0414 250.103 97.0414 251.999 96.0614Z" fill="#FFEC4F"/>
<path fill-rule="evenodd" clip-rule="evenodd" d="M262 103.062C260.825 103.282 259.825 102.952 259 102.062C260.311 99.4215 261.978 97.0915 264 95.0615C264.333 95.5615 264.667 96.0615 265 96.5615C264.109 98.8415 263.109 101.012 262 103.062Z" fill="#A238B5"/>
<path fill-rule="evenodd" clip-rule="evenodd" d="M198 98.0615C197.828 99.0515 198.162 99.7215 199 100.062C199.146 102.502 198.313 103.172 196.5 102.062C195.667 100.392 194.833 98.7315 194 97.0615C194.5 96.7315 195 96.3915 195.5 96.0615C196.511 96.6215 197.344 97.2815 198 98.0615Z" fill="#A43DB6"/>
<path fill-rule="evenodd" clip-rule="evenodd" d="M297.001 100.062C305.35 113.442 309.683 128.112 310.001 144.062C306.43 144.912 304.764 147.242 305.001 151.062C306.334 151.062 307.668 151.062 309.001 151.062C307.746 158.832 304.746 165.832 300.001 172.062C302.583 176.202 302.25 180.202 299.001 184.062C294.027 186.722 289.027 186.722 284.001 184.062C276.061 190.822 268.228 190.492 260.501 183.062C253.631 189.982 247.464 189.312 242.001 181.062C235.425 190.782 228.091 191.452 220.001 183.062C212.399 187.292 205.066 186.952 198.001 182.062C196.868 179.292 195.868 176.462 195.001 173.562C195.242 171.582 195.909 169.742 197.001 168.062C195.57 165.522 193.904 163.192 192.001 161.062C195.573 160.872 198.573 159.542 201.001 157.062C200.501 155.682 199.501 155.012 198.001 155.062C195.479 156.322 192.812 156.992 190.001 157.062C187.713 149.912 186.38 142.572 186.001 135.062C185.764 129.372 186.764 124.042 189.001 119.062C190.7 119.222 192.367 119.052 194.001 118.562C198.676 115.222 203.676 112.392 209.001 110.062C211.539 113.282 214.205 116.452 217.001 119.562C222.37 121.792 227.37 121.132 232.001 117.562C235.701 113.522 239.701 109.862 244.001 106.562C245.668 105.892 247.334 105.892 249.001 106.562C254.931 110.252 260.931 110.752 267.001 108.062C268.334 108.062 269.001 107.392 269.001 106.062C271.052 104.122 273.552 103.122 276.501 103.062C281.98 104.052 287.48 104.212 293.001 103.562C294.851 102.872 296.185 101.702 297.001 100.062Z" fill="#FEC7D8"/>
<path fill-rule="evenodd" clip-rule="evenodd" d="M226 102.062C227.333 102.062 228.667 102.062 230 102.062C230 103.062 230 104.062 230 105.062C226.904 105.492 223.904 105.992 221 106.562C220.543 106.152 220.209 105.652 220 105.062C222.094 104.042 224.094 103.042 226 102.062Z" fill="#F54E40"/>
<path fill-rule="evenodd" clip-rule="evenodd" d="M192 106.062C194 106.062 196 106.062 198 106.062C198 107.062 198 108.062 198 109.062C196 109.062 194 109.062 192 109.062C192 108.062 192 107.062 192 106.062Z" fill="#FFEA3B"/>
<path fill-rule="evenodd" clip-rule="evenodd" d="M269 106.062C269 107.392 268.333 108.062 267 108.062C265.027 106.752 263.361 105.092 262 103.062C262.65 102.762 263.317 102.422 264 102.062C265.71 103.452 267.377 104.782 269 106.062Z" fill="#485EE0"/>
<path fill-rule="evenodd" clip-rule="evenodd" d="M215 109.062C218.823 110.172 220.49 112.502 220 116.062C217.11 114.522 215.443 112.182 215 109.062Z" fill="#55B258"/>
<path fill-rule="evenodd" clip-rule="evenodd" d="M309 151.062C307.667 151.062 306.333 151.062 305 151.062C304.763 147.242 306.429 144.912 310 144.062C317.556 141.362 324.056 137.032 329.5 131.062C328.877 128.272 328.044 125.442 327 122.562C326.888 120.902 327.554 119.732 329 119.062C330.776 121.102 332.443 123.262 334 125.562C336.667 125.892 339.333 126.232 342 126.562C343.36 128.502 343.027 130.162 341 131.562C338.667 131.892 336.333 132.232 334 132.562C328.048 142.022 319.715 148.192 309 151.062Z" fill="#0A0B0C"/>
<path fill-rule="evenodd" clip-rule="evenodd" d="M272.001 129.062C265.812 129.412 262.312 132.752 261.501 139.062C260.205 152.442 266.038 157.602 279.001 154.562C284.01 149.882 286.51 144.052 286.501 137.062C287.831 138.142 289.331 138.812 291.001 139.062C294.803 144.592 294.97 150.262 291.501 156.062C283.708 164.112 274.208 168.942 263.001 170.562C247.739 173.542 233.406 171.202 220.001 163.562C215.313 158.752 213.979 153.252 216.001 147.062C219.286 147.292 221.786 145.962 223.501 143.062C224.235 156.512 230.735 161.012 243.001 156.562C250.653 149.462 250.986 141.962 244.001 134.062C242.178 132.812 240.178 132.152 238.001 132.062C249.205 129.072 260.538 128.072 272.001 129.062Z" fill="#FCFBFB"/>
<path fill-rule="evenodd" clip-rule="evenodd" d="M271.999 129.062C280.913 129.192 288.58 132.192 294.999 138.062C293.81 138.992 292.477 139.322 290.999 139.062C289.329 138.812 287.829 138.142 286.499 137.062C286.508 144.052 284.008 149.882 278.999 154.562C266.036 157.602 260.203 152.442 261.499 139.062C262.31 132.752 265.81 129.412 271.999 129.062Z" fill="#080708"/>
<path fill-rule="evenodd" clip-rule="evenodd" d="M238.001 132.062C240.178 132.152 242.178 132.812 244.001 134.062C250.986 141.962 250.653 149.462 243.001 156.562C230.735 161.012 224.235 156.512 223.501 143.062C221.786 145.962 219.286 147.292 216.001 147.062C215.942 143.012 217.609 139.852 221.001 137.562C225.983 133.622 231.65 131.792 238.001 132.062Z" fill="#060606"/>
<path fill-rule="evenodd" clip-rule="evenodd" d="M268 133.062C270.761 132.472 272.427 133.472 273 136.062C272.5 138.062 272 140.062 271.5 142.062C267.605 143.712 265.105 142.382 264 138.062C264.66 135.752 265.993 134.082 268 133.062Z" fill="#F0F0F0"/>
<path fill-rule="evenodd" clip-rule="evenodd" d="M239 136.062C243.929 137.382 245.096 140.382 242.5 145.062C238.748 147.882 236.248 146.882 235 142.062C235.437 139.342 236.77 137.342 239 136.062Z" fill="#F4F4F4"/>
<path fill-rule="evenodd" clip-rule="evenodd" d="M189.999 157.062C192.81 156.992 195.477 156.322 197.999 155.062C199.499 155.012 200.499 155.682 200.999 157.062C198.571 159.542 195.571 160.872 191.999 161.062C182.517 162.112 174.184 159.612 166.999 153.562C164.6 152.852 162.267 153.022 159.999 154.062C157.726 153.182 156.726 151.522 156.999 149.062C158.698 149.222 160.365 149.052 161.999 148.562C163.845 146.002 166.012 143.832 168.499 142.062C171.572 144.132 171.738 146.632 168.999 149.562C174.815 155.232 181.815 157.732 189.999 157.062Z" fill="#0A0B0C"/>
<path fill-rule="evenodd" clip-rule="evenodd" d="M263 158.062C264 158.062 265 158.062 266 158.062C263.63 167.072 258.964 168.402 252 162.062C254.982 161.232 257.982 161.062 261 161.562C261.805 160.452 262.472 159.282 263 158.062Z" fill="#0D0D0D"/>
<path fill-rule="evenodd" clip-rule="evenodd" d="M298.999 184.062C301.153 189.042 303.32 194.042 305.499 199.062C307.862 207.582 308.528 216.252 307.499 225.062C306.104 230.182 303.937 234.842 300.999 239.062C298.744 234.742 296.077 230.572 292.999 226.562C291.387 225.842 289.887 226.012 288.499 227.062C291.445 232.552 294.278 238.222 296.999 244.062C293.825 248.272 293.159 252.942 294.999 258.062C294.888 260.272 294.221 262.272 292.999 264.062C288.753 267.592 284.253 267.922 279.499 265.062C276.988 271.222 272.488 273.382 265.999 271.562C262.587 270.112 259.42 268.272 256.499 266.062C250.323 276.332 243.49 276.672 235.999 267.062C228.348 272.972 221.681 271.972 215.999 264.062C209.091 268.522 202.091 268.862 194.999 265.062C192.628 262.562 191.628 259.562 191.999 256.062C196.905 253.492 201.238 250.162 204.999 246.062C209.86 248.182 214.86 250.012 219.999 251.562C229.666 252.232 239.332 252.232 248.999 251.562C261.768 248.142 269.101 239.972 270.999 227.062C270.839 225.362 271.005 223.692 271.499 222.062C273.183 223.912 275.016 225.582 276.999 227.062C278.883 225.872 279.383 224.202 278.499 222.062C274.046 215.442 267.879 211.442 259.999 210.062C255.784 207.122 251.117 204.962 245.999 203.562C236.417 201.522 226.75 200.852 216.999 201.562C213.999 202.562 210.999 203.562 207.999 204.562C204.904 205.502 202.57 207.332 200.999 210.062C199.27 210.802 198.27 212.132 197.999 214.062C195.606 217.412 194.606 221.242 194.999 225.562C194.931 229.562 195.598 233.392 196.999 237.062C197.461 239.322 198.461 241.322 199.999 243.062C199.311 244.412 198.311 245.412 196.999 246.062C194.284 243.352 191.95 240.352 189.999 237.062C189.332 235.062 188.666 233.062 187.999 231.062C180.094 212.362 183.427 196.022 197.999 182.062C205.064 186.952 212.397 187.292 219.999 183.062C228.089 191.452 235.423 190.782 241.999 181.062C247.462 189.312 253.629 189.982 260.499 183.062C268.226 190.492 276.059 190.822 283.999 184.062C289.025 186.722 294.025 186.722 298.999 184.062Z" fill="#FEFBE2"/>
<path fill-rule="evenodd" clip-rule="evenodd" d="M259.999 210.062C252.751 209.142 247.917 212.142 245.499 219.062C243.882 226.512 246.382 232.352 252.999 236.562C261.837 238.972 267.837 235.812 270.999 227.062C269.101 239.972 261.768 248.142 248.999 251.562C239.332 252.232 229.666 252.232 219.999 251.562C214.86 250.012 209.86 248.182 204.999 246.062C207.13 245.252 209.463 244.752 211.999 244.562C213.21 243.452 213.21 242.282 211.999 241.062C207.263 240.372 202.929 238.702 198.999 236.062C198.316 236.422 197.649 236.762 196.999 237.062C195.598 233.392 194.931 229.562 194.999 225.562C194.606 221.242 195.606 217.412 197.999 214.062C200.967 214.242 203.967 214.242 206.999 214.062C206.401 219.342 207.568 224.342 210.499 229.062C216.633 233.042 222.799 233.042 228.999 229.062C233.5 221.072 232.833 213.572 226.999 206.562C223.46 205.062 219.794 204.722 215.999 205.562C210.775 206.432 205.775 207.932 200.999 210.062C202.57 207.332 204.904 205.502 207.999 204.562C210.999 203.562 213.999 202.562 216.999 201.562C226.75 200.852 236.417 201.522 245.999 203.562C251.117 204.962 255.784 207.122 259.999 210.062Z" fill="#FBFBFB"/>
<path fill-rule="evenodd" clip-rule="evenodd" d="M198 214.062C198.271 212.132 199.271 210.802 201 210.062C205.776 207.932 210.776 206.432 216 205.562C219.795 204.722 223.461 205.062 227 206.562C232.834 213.572 233.501 221.072 229 229.062C222.8 233.042 216.634 233.042 210.5 229.062C207.569 224.342 206.402 219.342 207 214.062C203.968 214.242 200.968 214.242 198 214.062Z" fill="#090909"/>
<path fill-rule="evenodd" clip-rule="evenodd" d="M221.999 209.062C228.857 209.712 230.524 212.882 226.999 218.562C221.992 219.902 219.659 217.902 219.999 212.562C220.477 211.262 221.144 210.092 221.999 209.062Z" fill="#F2F2F2"/>
<path fill-rule="evenodd" clip-rule="evenodd" d="M260 210.061C267.88 211.441 274.047 215.441 278.5 222.061C279.384 224.201 278.884 225.871 277 227.061C275.017 225.581 273.184 223.911 271.5 222.061C271.006 223.691 270.84 225.361 271 227.061C267.838 235.811 261.838 238.971 253 236.561C246.383 232.351 243.883 226.511 245.5 219.061C247.918 212.141 252.752 209.141 260 210.061Z" fill="#0A0A0A"/>
<path fill-rule="evenodd" clip-rule="evenodd" d="M253.001 214.062C257.847 215.072 259.681 218.072 258.501 223.062C255.013 226.022 252.346 225.352 250.501 221.062C249.663 218.082 250.496 215.752 253.001 214.062Z" fill="#EFEFEF"/>
<path fill-rule="evenodd" clip-rule="evenodd" d="M301 239.062C302.495 245.042 303.995 251.042 305.5 257.062C307.326 258.742 309.492 259.912 312 260.562C312.951 261.282 313.117 262.112 312.5 263.062C309.089 263.852 305.589 264.352 302 264.562C300.534 265.202 299.2 266.032 298 267.062C296.217 266.212 295.717 264.882 296.5 263.062C298.592 261.712 300.092 259.872 301 257.562C300.133 252.802 298.799 248.302 297 244.062C294.279 238.222 291.446 232.552 288.5 227.062C289.888 226.012 291.388 225.842 293 226.562C296.078 230.572 298.745 234.742 301 239.062Z" fill="#0E0F0F"/>
<path fill-rule="evenodd" clip-rule="evenodd" d="M188 231.062C188.667 233.062 189.333 235.062 190 237.062C187.766 241.442 186.766 246.102 187 251.062C191.231 251.162 194.565 249.492 197 246.062C198.312 245.412 199.312 244.412 200 243.062C198.462 241.322 197.462 239.322 197 237.062C197.65 236.762 198.317 236.422 199 236.062C202.93 238.702 207.264 240.372 212 241.062C213.211 242.282 213.211 243.452 212 244.562C209.464 244.752 207.131 245.252 205 246.062C201.239 250.162 196.906 253.492 192 256.062C185.984 256.712 182.651 254.042 182 248.062C183.557 242.122 185.557 236.462 188 231.062Z" fill="#0E0F0F"/>
<path fill-rule="evenodd" clip-rule="evenodd" d="M227.001 235.062C228.176 234.842 229.176 235.172 230.001 236.062C230.527 237.792 231.527 239.122 233.001 240.062C235.23 238.982 237.564 238.322 240.001 238.062C240.001 239.392 240.001 240.732 240.001 242.062C236.803 243.492 233.469 243.992 230.001 243.562C227.33 241.102 226.33 238.272 227.001 235.062Z" fill="#181818"/>
<path fill-rule="evenodd" clip-rule="evenodd" d="M190 237.062C191.951 240.352 194.285 243.352 197 246.062C194.565 249.492 191.231 251.162 187 251.062C186.766 246.102 187.766 241.442 190 237.062Z" fill="#B6E3EC"/>
<path fill-rule="evenodd" clip-rule="evenodd" d="M293 264.062C300.828 276.212 304.828 289.552 305 304.062C304.027 306.512 303.694 309.172 304 312.062C304.558 317.082 305.225 322.082 306 327.062C306.239 332.062 304.239 335.722 300 338.062C295.107 339.832 290.607 339.172 286.5 336.062C283.064 343.202 277.897 344.702 271 340.562C269.451 339.352 268.285 337.852 267.5 336.062C260.847 344.152 253.181 345.482 244.5 340.062C236.303 348.882 227.636 349.222 218.5 341.062C216.035 342.212 213.535 343.212 211 344.062C214.119 341.872 214.619 339.212 212.5 336.062C208.746 334.642 205.08 332.972 201.5 331.062C200.202 323.782 201.702 317.122 206 311.062C203.052 309.942 200.886 310.942 199.5 314.062C195.861 320.112 195.195 326.452 197.5 333.062C200.07 335.432 202.904 337.432 206 339.062C203.462 341.242 203.462 343.242 206 345.062C204.111 346.302 202.111 346.302 200 345.062C190.416 340.882 188.749 334.542 195 326.062C184.413 311.882 181.58 296.212 186.5 279.062C188.606 273.832 191.439 269.162 195 265.062C202.092 268.862 209.092 268.522 216 264.062C221.682 271.972 228.349 272.972 236 267.062C243.491 276.672 250.324 276.332 256.5 266.062C259.421 268.272 262.588 270.112 266 271.562C272.489 273.382 276.989 271.222 279.5 265.062C284.254 267.922 288.754 267.592 293 264.062Z" fill="#B17A67"/>
<path fill-rule="evenodd" clip-rule="evenodd" d="M287 290.061C268.82 283.751 261.653 290.081 265.5 309.061C269.689 313.651 274.855 315.151 281 313.561C283.5 312.391 285.333 310.561 286.5 308.061C288.327 304.281 289.327 300.281 289.5 296.061C290.613 296.871 291.779 297.531 293 298.061C294.981 306.281 292.648 313.111 286 318.561C267.188 329.991 247.854 330.991 228 321.561C221.657 317.361 219.323 311.531 221 304.061C222.629 302.931 224.129 301.601 225.5 300.061C225.532 312.101 231.365 317.271 243 315.561C253.144 308.991 254.477 300.991 247 291.561C240.216 288.161 233.549 288.331 227 292.061C229.756 289.171 233.089 287.001 237 285.561C252.905 277.931 268.572 278.261 284 286.561C285.21 287.601 286.21 288.771 287 290.061Z" fill="#FAF9F9"/>
<path fill-rule="evenodd" clip-rule="evenodd" d="M287 290.062C290.3 291.672 293.633 293.332 297 295.062C297.886 295.882 298.219 296.882 298 298.062C296.333 298.062 294.667 298.062 293 298.062C291.779 297.532 290.613 296.872 289.5 296.062C289.327 300.282 288.327 304.282 286.5 308.062C285.333 310.562 283.5 312.392 281 313.562C274.855 315.152 269.689 313.652 265.5 309.062C261.653 290.082 268.82 283.752 287 290.062Z" fill="#070707"/>
<path fill-rule="evenodd" clip-rule="evenodd" d="M221 304.061C220 304.061 219 304.061 218 304.061C218.711 298.351 221.711 294.351 227 292.061C233.549 288.331 240.216 288.161 247 291.561C254.477 300.991 253.144 308.991 243 315.561C231.365 317.271 225.532 312.101 225.5 300.061C224.129 301.601 222.629 302.931 221 304.061Z" fill="#070707"/>
<path fill-rule="evenodd" clip-rule="evenodd" d="M271 291.062C274.024 290.732 275.691 292.072 276 295.062C276.055 300.362 273.722 302.022 269 300.062C268.117 299.012 267.45 297.852 267 296.562C267.796 294.272 269.129 292.442 271 291.062Z" fill="#F4F4F4"/>
<path fill-rule="evenodd" clip-rule="evenodd" d="M239.999 294.061C245.566 293.311 247.399 295.651 245.499 301.061C243.603 304.511 241.269 304.841 238.499 302.061C237.781 299.151 238.281 296.491 239.999 294.061Z" fill="#F5F5F5"/>
<path fill-rule="evenodd" clip-rule="evenodd" d="M305 304.062C308.988 309.042 311.655 314.712 313 321.062C311.967 326.172 309.967 330.832 307 335.062C308.429 336.892 308.929 338.892 308.5 341.062C305.267 342.372 302.433 341.712 300 339.062C300 338.732 300 338.392 300 338.062C304.239 335.722 306.239 332.062 306 327.062C308.466 323.312 308.633 319.312 306.5 315.062C306.123 313.622 305.29 312.622 304 312.062C303.694 309.172 304.027 306.512 305 304.062Z" fill="#0B0C0D"/>
<path fill-rule="evenodd" clip-rule="evenodd" d="M211 344.061C209.383 344.601 207.716 344.931 206 345.061C203.462 343.241 203.462 341.241 206 339.061C202.904 337.431 200.07 335.431 197.5 333.061C195.195 326.451 195.861 320.111 199.5 314.061C200.886 310.941 203.052 309.941 206 311.061C201.702 317.121 200.202 323.781 201.5 331.061C205.08 332.971 208.746 334.641 212.5 336.061C214.619 339.211 214.119 341.871 211 344.061Z" fill="#090604"/>
<path fill-rule="evenodd" clip-rule="evenodd" d="M265 316.062C266 316.062 267 316.062 268 316.062C268.236 318.792 267.403 321.122 265.5 323.062C260.977 324.782 257.143 323.782 254 320.062C256.982 319.232 259.982 319.062 263 319.562C263.805 318.452 264.472 317.282 265 316.062Z" fill="#101010"/>
<path fill-rule="evenodd" clip-rule="evenodd" d="M304 312.062C305.29 312.622 306.123 313.622 306.5 315.062C308.633 319.312 308.466 323.312 306 327.062C305.225 322.082 304.558 317.082 304 312.062Z" fill="#A8D0D8"/>
<path fill-rule="evenodd" clip-rule="evenodd" d="M300 338.062C300 338.392 300 338.732 300 339.062C298.151 348.462 295.984 357.792 293.5 367.062C284.779 392.172 275.779 417.172 266.5 442.062C263.705 449.492 259.538 455.992 254 461.562C249.271 462.562 244.771 462.062 240.5 460.062C231.46 442.942 224.794 424.942 220.5 406.062C211.367 386.492 204.534 366.162 200 345.062C202.111 346.302 204.111 346.302 206 345.062C207.716 344.932 209.383 344.602 211 344.062C213.535 343.212 216.035 342.212 218.5 341.062C227.636 349.222 236.303 348.882 244.5 340.062C253.181 345.482 260.847 344.152 267.5 336.062C268.285 337.852 269.451 339.352 271 340.562C277.897 344.702 283.064 343.202 286.5 336.062C290.607 339.172 295.107 339.832 300 338.062Z" fill="#D8B98A"/>
</svg>
