<svg width="500" height="500" viewBox="0 0 500 500" fill="none" xmlns="http://www.w3.org/2000/svg">
<path fill-rule="evenodd" clip-rule="evenodd" d="M404 238.062C390.54 224.772 378.38 210.442 367.5 195.062C366.77 207.832 364.11 220.172 359.5 232.062C356.76 236.342 353.43 237.012 349.5 234.062C349 229.742 348.83 225.412 349 221.062C349.46 215.952 348.46 211.292 346 207.062C344.93 197.352 341.76 188.352 336.5 180.062C335.01 178.562 333.18 177.722 331 177.562C305.02 176.032 279.02 175.692 253 176.562C247.28 176.842 241.62 177.512 236 178.562C230.81 185.782 226.81 193.612 224 202.062C222.1 205.082 220.77 208.412 220 212.062C218.28 220.712 216.45 229.382 214.5 238.062C212.63 243.102 209.63 244.102 205.5 241.062C201.69 228.952 198.69 216.622 196.5 204.062C185.47 214.262 174.63 224.592 164 235.062C158.42 240.142 152.42 244.642 146 248.562C136.09 249.982 131.92 245.812 133.5 236.062C139.61 223.722 144.95 211.052 149.5 198.062C153.13 188.282 158.63 179.782 166 172.562C149.33 160.572 136.33 145.572 127 127.562C127.3 124.642 128.63 122.302 131 120.562C140 119.892 149 119.892 158 120.562C176.83 124.002 195.5 128.172 214 133.062C214.54 131.042 214.04 129.042 212.5 127.062C205.25 114.892 198.25 102.562 191.5 90.0615C189.06 79.1715 193.22 75.0015 204 77.5615C209.88 78.9715 215.55 80.9715 221 83.5615C238.09 93.5215 255.25 103.352 272.5 113.062C280.51 104.822 289.34 97.6515 299 91.5615C309.67 84.5615 320.33 77.5615 331 70.5615C335.36 67.6915 340.03 65.5215 345 64.0615C350.28 64.5115 352.95 67.3415 353 72.5615C349.55 95.0915 344.55 117.252 338 139.062C339.22 140.172 340.56 140.342 342 139.562C364.2 131.942 386.2 123.942 408 115.562C416.29 113.612 419.79 116.772 418.5 125.062C413.21 138.962 407.38 152.632 401 166.062C413.68 187.422 421.84 210.422 425.5 235.062C427.09 237.732 428.25 240.572 429 243.562C428.89 245.462 428.22 247.122 427 248.562C424.33 249.232 421.67 249.232 419 248.562C413.97 245.052 408.97 241.552 404 238.062Z" fill="#FEEA3B"/>
<path fill-rule="evenodd" clip-rule="evenodd" d="M346 207.061C344.34 201.231 340.68 197.061 335 194.561C304.12 189.471 273.12 188.811 242 192.561C235.42 194.801 229.59 198.301 224.5 203.061C224.1 202.831 223.93 202.501 224 202.061C226.81 193.611 230.81 185.781 236 178.561C241.62 177.511 247.28 176.841 253 176.561C279.02 175.691 305.02 176.031 331 177.561C333.18 177.721 335.01 178.561 336.5 180.061C341.76 188.351 344.93 197.351 346 207.061Z" fill="#49559D"/>
<path fill-rule="evenodd" clip-rule="evenodd" d="M346 207.061C348.46 211.291 349.46 215.951 349 221.061C347.28 227.761 345.11 234.431 342.5 241.061C340.7 242.881 338.53 244.041 336 244.561C302.66 245.901 269.33 246.901 236 247.561C228.76 245.991 223.6 241.831 220.5 235.061C220.38 227.211 220.22 219.541 220 212.061C220.77 208.411 222.1 205.081 224 202.061C223.93 202.501 224.1 202.831 224.5 203.061C229.59 198.301 235.42 194.801 242 192.561C273.12 188.811 304.12 189.471 335 194.561C340.68 197.061 344.34 201.231 346 207.061Z" fill="#C1C1C2"/>
<path fill-rule="evenodd" clip-rule="evenodd" d="M404 238.062C404.62 243.852 404.96 249.682 405 255.562C404.99 261.112 404.33 266.272 403 271.062C392.76 266.982 382.1 265.312 371 266.062C361.69 265.122 352.35 264.292 343 263.562C302.32 262.762 261.66 263.092 221 264.562C211.56 265.182 202.23 266.342 193 268.062C186.99 268.732 180.99 269.562 175 270.562C171.48 272.662 167.82 274.162 164 275.062C162.69 272.822 162.02 270.152 162 267.062C162.53 256.372 163.2 245.712 164 235.062C174.63 224.592 185.47 214.262 196.5 204.062C198.69 216.622 201.69 228.952 205.5 241.062C209.63 244.102 212.63 243.102 214.5 238.062C216.45 229.382 218.28 220.712 220 212.062C220.22 219.542 220.38 227.212 220.5 235.062C223.6 241.832 228.76 245.992 236 247.562C269.33 246.902 302.66 245.902 336 244.562C338.53 244.042 340.7 242.882 342.5 241.062C345.11 234.432 347.28 227.762 349 221.062C348.83 225.412 349 229.742 349.5 234.062C353.43 237.012 356.76 236.342 359.5 232.062C364.11 220.172 366.77 207.832 367.5 195.062C378.38 210.442 390.54 224.772 404 238.062Z" fill="#49559E"/>
<path fill-rule="evenodd" clip-rule="evenodd" d="M298.999 201.061C300.979 201.041 301.979 202.041 301.999 204.061C300.129 206.671 297.799 208.841 294.999 210.561C291.169 212.601 287.499 212.261 283.999 209.561C278.869 209.211 275.029 211.381 272.499 216.061C269.699 227.581 273.859 232.081 284.999 229.561C288.629 227.311 289.789 224.141 288.499 220.061C286.639 217.891 284.469 217.551 281.999 219.061C280.269 221.411 279.599 224.081 279.999 227.061C275.719 226.181 274.219 223.511 275.499 219.061C281.599 211.081 287.599 211.081 293.499 219.061C294.529 223.841 293.529 228.171 290.499 232.061C261.299 249.811 253.969 243.481 268.499 213.061C270.929 209.431 274.089 206.591 277.999 204.561C282.429 203.921 286.599 204.751 290.499 207.061C293.779 205.601 296.609 203.601 298.999 201.061Z" fill="#A0A0A0"/>
<path fill-rule="evenodd" clip-rule="evenodd" d="M371 266.062C370.84 267.762 371.01 269.432 371.5 271.062C376.33 277.732 379.83 285.062 382 293.062C374 289.062 366.33 284.562 359 279.562C351 277.232 343 274.892 335 272.562C324.26 269.872 315.09 272.372 307.5 280.062C299.17 294.002 297.83 308.662 303.5 324.062C307.7 330.252 313.53 334.082 321 335.562C334.12 339.202 344.62 335.702 352.5 325.062C356.08 317.732 359.25 310.232 362 302.562C360.81 299.712 360.81 296.882 362 294.062C367.85 298.552 374.35 300.552 381.5 300.062C382.51 298.542 383.01 296.872 383 295.062C384.57 298.592 386.07 302.252 387.5 306.062C389.06 316.312 391.56 326.312 395 336.062C393.39 338.942 392.06 341.942 391 345.062C387.98 348.082 385.32 351.412 383 355.062C380.57 358.002 377.9 360.832 375 363.562C366.56 366.282 358.23 369.282 350 372.562C343.38 373.852 336.71 374.682 330 375.062C327.29 375.142 324.63 375.472 322 376.062C300.68 376.862 279.34 377.192 258 377.062C254.88 376.082 251.54 375.752 248 376.062C235.3 375.452 222.96 372.952 211 368.562C198.83 362.982 188.83 354.822 181 344.062C179.75 342.562 178.75 340.892 178 339.062C175.81 334.482 173.81 329.812 172 325.062C179.26 307.782 186.43 290.452 193.5 273.062C194.14 271.292 193.97 269.632 193 268.062C202.23 266.342 211.56 265.182 221 264.562C261.66 263.092 302.32 262.762 343 263.562C352.35 264.292 361.69 265.122 371 266.062Z" fill="#FAFAFA"/>
<path fill-rule="evenodd" clip-rule="evenodd" d="M371 266.062C382.1 265.312 392.76 266.982 403 271.062C404.31 280.002 404.97 289.162 405 298.562C405.39 313.402 405.56 328.232 405.5 343.062C404.24 345.622 402.41 346.282 400 345.062C398.04 342.132 396.37 339.132 395 336.062C391.56 326.312 389.06 316.312 387.5 306.062C386.07 302.252 384.57 298.592 383 295.062C382.67 294.392 382.33 293.732 382 293.062C379.83 285.062 376.33 277.732 371.5 271.062C371.01 269.432 370.84 267.762 371 266.062Z" fill="#FDEA3C"/>
<path fill-rule="evenodd" clip-rule="evenodd" d="M192.999 268.062C193.969 269.632 194.139 271.292 193.499 273.062C186.429 290.452 179.259 307.782 171.999 325.062C169.369 330.332 166.699 335.662 163.999 341.062C163.669 341.062 163.329 341.062 162.999 341.062C160.109 341.342 158.609 340.012 158.499 337.062C157.669 317.312 158.669 297.642 161.499 278.062C162.199 276.872 163.029 275.872 163.999 275.062C167.819 274.162 171.479 272.662 174.999 270.562C180.989 269.562 186.989 268.732 192.999 268.062Z" fill="#FEEA3C"/>
<path fill-rule="evenodd" clip-rule="evenodd" d="M382.001 293.061C382.331 293.731 382.671 294.391 383.001 295.061C383.011 296.871 382.511 298.541 381.501 300.061C374.351 300.551 367.851 298.551 362.001 294.061C360.811 296.881 360.811 299.711 362.001 302.561C359.251 310.231 356.081 317.731 352.501 325.061C344.621 335.701 334.121 339.201 321.001 335.561C313.531 334.081 307.701 330.251 303.501 324.061C297.831 308.661 299.171 294.001 307.501 280.061C315.091 272.371 324.261 269.871 335.001 272.561C343.001 274.891 351.001 277.231 359.001 279.561C366.331 284.561 374.001 289.061 382.001 293.061Z" fill="#040404"/>
<path fill-rule="evenodd" clip-rule="evenodd" d="M225.999 272.061C237.579 271.431 248.579 273.601 258.999 278.561C262.209 281.291 263.709 284.791 263.499 289.061C265.749 292.571 267.749 296.231 269.499 300.061C269.369 317.001 261.539 329.161 245.999 336.561C224.569 340.491 211.739 331.661 207.499 310.061C206.589 305.361 207.089 300.861 208.999 296.561C207.219 296.601 205.549 297.271 203.999 298.561C201.629 301.271 198.959 303.601 195.999 305.561C188.419 307.481 185.919 304.651 188.499 297.061C194.049 287.861 201.879 281.361 211.999 277.561C216.809 275.801 221.469 273.961 225.999 272.061Z" fill="#050505"/>
<path fill-rule="evenodd" clip-rule="evenodd" d="M117.999 280.062C120.099 281.932 121.439 284.272 121.999 287.062C105.099 277.922 92.269 281.922 83.499 299.062C82.209 304.652 81.709 310.322 81.999 316.062C77.069 310.182 75.909 303.512 78.499 296.062C80.499 292.732 82.499 289.392 84.499 286.062C87.899 283.152 91.399 280.482 94.999 278.062C100.539 276.272 106.199 275.772 111.999 276.562C114.229 277.502 116.229 278.672 117.999 280.062Z" fill="#BEDCFB"/>
<path fill-rule="evenodd" clip-rule="evenodd" d="M319 280.062C321.03 279.902 323.03 280.062 325 280.562C326.5 282.062 328 283.562 329.5 285.062C329.49 290.102 328.83 295.102 327.5 300.062C323.84 303.932 319.34 305.092 314 303.562C312.38 300.882 310.55 298.382 308.5 296.062C307.71 292.932 308.04 289.932 309.5 287.062C312.92 284.992 316.08 282.662 319 280.062Z" fill="#F5F5F5"/>
<path fill-rule="evenodd" clip-rule="evenodd" d="M245.001 283.061C252.601 282.501 256.601 286.001 257.001 293.561C257.061 298.041 255.561 301.871 252.501 305.061C247.761 310.301 243.091 310.301 238.501 305.061C236.091 301.421 235.431 297.421 236.501 293.061C238.451 288.951 241.281 285.611 245.001 283.061Z" fill="#F6F6F6"/>
<path fill-rule="evenodd" clip-rule="evenodd" d="M122 287.062C124.01 293.742 126.01 300.412 128 307.062C127.81 311.282 126.81 315.282 125 319.062C122.7 321.702 120.36 324.372 118 327.062C114.32 328.122 110.65 329.292 107 330.562C101.56 331.732 96.5598 330.732 91.9998 327.562C88.7798 323.512 85.4498 319.682 81.9998 316.062C81.7098 310.322 82.2098 304.652 83.4998 299.062C92.2698 281.922 105.1 277.922 122 287.062Z" fill="#C5E6FD"/>
<path fill-rule="evenodd" clip-rule="evenodd" d="M118 280.062C124.83 281.392 129.33 285.392 131.5 292.062C132.32 300.962 130.82 309.462 127 317.562C126.66 318.592 126 319.092 125 319.062C126.81 315.282 127.81 311.282 128 307.062C126.01 300.412 124.01 293.742 122 287.062C121.44 284.272 120.1 281.932 118 280.062Z" fill="#CB9C87"/>
<path fill-rule="evenodd" clip-rule="evenodd" d="M95 278.062C91.4 280.482 87.9 283.152 84.5 286.062C82.5 289.392 80.5 292.732 78.5 296.062C75.91 303.512 77.07 310.182 82 316.062C85.45 319.682 88.78 323.512 92 327.562C96.56 330.732 101.56 331.732 107 330.562C110.65 329.292 114.32 328.122 118 327.062C106.62 337.222 94.62 337.722 82 328.562C70.89 316.932 68.39 303.762 74.5 289.062C79.71 282.372 86.55 278.702 95 278.062Z" fill="#D1A895"/>
<path fill-rule="evenodd" clip-rule="evenodd" d="M163 341.062C163.33 341.062 163.67 341.062 164 341.062C168.57 339.752 173.23 339.092 178 339.062C178.75 340.892 179.75 342.562 181 344.062C168.45 350.602 155.12 353.102 141 351.562C136.46 349.682 132.46 347.012 129 343.562C125.41 343.162 121.91 343.662 118.5 345.062C116.1 344.522 113.77 343.852 111.5 343.062C110.78 341.452 110.95 339.952 112 338.562C116.86 337.472 121.52 335.802 126 333.562C127.27 330.362 129.27 327.692 132 325.562C135.36 324.532 137.36 325.702 138 329.062C137.48 330.942 136.81 332.782 136 334.562C136.26 335.822 136.93 336.822 138 337.562C146.02 341.922 154.36 343.092 163 341.062Z" fill="#070402"/>
<path fill-rule="evenodd" clip-rule="evenodd" d="M172 325.062C173.81 329.812 175.81 334.482 178 339.062C173.23 339.092 168.57 339.752 164 341.062C166.7 335.662 169.37 330.332 172 325.062Z" fill="#DB9549"/>
<path fill-rule="evenodd" clip-rule="evenodd" d="M301.001 340.061C306.501 339.391 308.671 341.721 307.501 347.061C304.691 351.861 301.191 356.031 297.001 359.561C293.911 360.211 290.911 359.881 288.001 358.561C284.221 356.341 280.221 354.671 276.001 353.561C272.671 349.031 273.671 346.191 279.001 345.061C283.151 345.501 286.821 347.001 290.001 349.561C291.761 350.361 293.431 350.191 295.001 349.061C297.261 346.201 299.261 343.201 301.001 340.061Z" fill="#0C0C0C"/>
<path fill-rule="evenodd" clip-rule="evenodd" d="M391 345.062C393.06 353.742 395.23 362.402 397.5 371.062C397.34 381.252 398.51 391.252 401 401.062C405.45 402.642 407.61 405.642 407.5 410.062C406.54 411.452 405.21 412.122 403.5 412.062C400.25 410.772 396.92 409.772 393.5 409.062C389.99 409.452 386.65 410.452 383.5 412.062C380.28 409.022 380.44 405.852 384 402.562C388.02 401.882 389.68 399.552 389 395.562C388.51 381.792 386.51 368.292 383 355.062C385.32 351.412 387.98 348.082 391 345.062Z" fill="#090502"/>
<path fill-rule="evenodd" clip-rule="evenodd" d="M248.001 376.062C251.541 375.752 254.881 376.082 258.001 377.062C258.731 379.642 259.231 382.312 259.501 385.062C260.171 400.062 260.171 415.062 259.501 430.062C253.321 434.312 246.491 435.812 239.001 434.562C233.741 431.082 233.741 427.412 239.001 423.562C241.931 423.342 244.761 422.842 247.501 422.062C249.141 406.682 249.311 391.352 248.001 376.062Z" fill="#0D0804"/>
<path fill-rule="evenodd" clip-rule="evenodd" d="M330 375.062C330.21 376.482 330.71 377.822 331.5 379.062C332.44 391.752 332.6 404.422 332 417.062C337.45 416.342 342.28 417.672 346.5 421.062C347.83 427.072 345.33 430.242 339 430.562C333.29 431.612 328.12 430.442 323.5 427.062C321.5 424.392 321.5 421.732 323.5 419.062C323.67 414.562 323.83 410.062 324 405.562C323.72 395.692 323.05 385.862 322 376.062C324.63 375.472 327.29 375.142 330 375.062Z" fill="#090603"/>
</svg>
