<svg width="500" height="500" viewBox="0 0 500 500" fill="none" xmlns="http://www.w3.org/2000/svg">
<path fill-rule="evenodd" clip-rule="evenodd" d="M318 264.062C321.95 226.482 309.28 195.982 280 172.562C267.57 165.842 254.57 160.512 241 156.562C202.15 147.062 168.98 156.562 141.5 185.062C137.84 189.392 135 194.232 133 199.562C127.43 203.842 121.43 207.342 115 210.062C121.7 180.492 135.37 154.662 156 132.562C174.57 123.832 193.57 116.172 213 109.562C226.17 106.392 239.5 105.392 253 106.562C258.83 108.502 264.49 110.842 270 113.562C282 122.232 294.67 129.902 308 136.562C324.57 147.792 340.57 159.792 356 172.562C378.95 187.552 403.95 192.552 431 187.562C433 188.892 435 190.232 437 191.562C446.89 193.922 455.39 198.762 462.5 206.062C463.19 208.282 464.03 210.452 465 212.562C464.02 214.222 463.02 215.882 462 217.562C455.76 216.272 449.43 215.602 443 215.562C438.31 216.432 433.64 217.432 429 218.562C421.72 224.172 413.72 228.502 405 231.562C381.92 236.642 358.59 238.972 335 238.562C334.08 238.932 333.25 239.432 332.5 240.062C328.9 248.962 324.06 256.962 318 264.062Z" fill="#4DAF4F"/>
<path fill-rule="evenodd" clip-rule="evenodd" d="M318 264.062C318.13 276.042 317.79 288.042 317 300.062C307.31 299.942 297.65 300.272 288 301.062C287.18 291.992 287.18 282.992 288 274.062C290.76 274.652 292.43 273.652 293 271.062C292.37 268.772 291.04 267.112 289 266.062C288.98 261.972 289.15 257.972 289.5 254.062C275.74 251.012 264.07 244.352 254.5 234.062C251.56 229.842 248.4 225.842 245 222.062C233.83 238.552 218.49 249.212 199 254.062C189.86 247.192 179.53 244.692 168 246.562C156.57 249.012 147.41 254.852 140.5 264.062C139.8 266.492 139.96 268.822 141 271.062C142.17 274.712 143.33 278.382 144.5 282.062C145 286.052 145.17 290.052 145 294.062C144.23 294.822 143.73 295.822 143.5 297.062C143 303.722 142.83 310.392 143 317.062C143.26 320.932 142.59 324.602 141 328.062C139.88 335.852 135.88 337.852 129 334.062C126.36 331.762 123.69 329.422 121 327.062C116.43 317.382 113.43 307.222 112 296.562C113.08 288.542 114.75 280.712 117 273.062C102.56 275.112 97.73 269.112 102.5 255.062C105.86 249.672 109.69 244.672 114 240.062C116.83 238.062 119.17 235.562 121 232.562C117.68 232.062 114.35 231.892 111 232.062C102.82 230.352 98.99 225.352 99.5 217.062C100.67 215.892 101.83 214.732 103 213.562C107.03 212.392 111.03 211.222 115 210.062C121.43 207.342 127.43 203.842 133 199.562C135 194.232 137.84 189.392 141.5 185.062C168.98 156.562 202.15 147.062 241 156.562C254.57 160.512 267.57 165.842 280 172.562C309.28 195.982 321.95 226.482 318 264.062Z" fill="#FEEA3D"/>
<path fill-rule="evenodd" clip-rule="evenodd" d="M83.9996 314.062C76.7196 315.942 69.3796 317.612 61.9996 319.062C56.5696 296.112 51.0696 273.112 45.4996 250.062C41.9596 239.122 38.6296 228.122 35.4996 217.062C34.8296 213.392 34.8296 209.732 35.4996 206.062C37.3896 201.182 38.7296 196.182 39.4996 191.062C40.4496 188.772 41.6096 186.612 42.9996 184.562C47.2096 183.542 50.8796 184.542 53.9996 187.562C59.2696 192.822 63.7696 198.662 67.4996 205.062C76.1996 240.922 81.6996 277.252 83.9996 314.062Z" fill="#C2C1C1"/>
<path fill-rule="evenodd" clip-rule="evenodd" d="M288.999 266.062C285.539 263.782 282.209 261.282 278.999 258.562C268.759 253.872 258.099 250.702 246.999 249.062C237.459 251.442 231.289 257.442 228.499 267.062C227.449 275.222 228.119 283.222 230.499 291.062C235.159 296.312 240.989 299.312 247.999 300.062C250.849 311.182 258.179 315.852 269.999 314.062C270.569 321.012 269.899 327.682 267.999 334.062C261.519 335.622 255.189 337.282 248.999 339.062C245.849 338.982 243.179 339.982 240.999 342.062C226.979 343.232 212.979 343.232 198.999 342.062C194.829 342.232 190.829 341.562 186.999 340.062C180.949 337.122 174.619 334.622 167.999 332.562C161.519 328.902 155.179 325.062 148.999 321.062C147.009 319.732 145.009 318.402 142.999 317.062C142.829 310.392 142.999 303.722 143.499 297.062C143.729 295.822 144.229 294.822 144.999 294.062C143.839 300.392 143.839 306.732 144.999 313.062C147.309 315.042 149.979 316.042 152.999 316.062C158.249 314.752 163.579 313.922 168.999 313.562C176.569 312.662 180.069 308.502 179.499 301.062C177.669 299.492 175.509 298.652 172.999 298.562C176.529 298.382 179.859 297.882 182.999 297.062C192.849 294.042 199.689 287.712 203.499 278.062C204.909 271.422 203.569 265.422 199.499 260.062C198.999 258.092 198.839 256.092 198.999 254.062C218.489 249.212 233.829 238.552 244.999 222.062C248.399 225.842 251.559 229.842 254.499 234.062C264.069 244.352 275.739 251.012 289.499 254.062C289.149 257.972 288.979 261.972 288.999 266.062Z" fill="#FDFDFC"/>
<path fill-rule="evenodd" clip-rule="evenodd" d="M110.999 232.062C114.349 231.892 117.679 232.062 120.999 232.562C119.169 235.562 116.829 238.062 113.999 240.062C111.329 238.172 110.329 235.502 110.999 232.062Z" fill="#56AE4C"/>
<path fill-rule="evenodd" clip-rule="evenodd" d="M199 254.062C198.84 256.092 199 258.092 199.5 260.062C203.57 265.422 204.91 271.422 203.5 278.062C199.69 287.712 192.85 294.042 183 297.062C167.84 298.742 158.67 292.072 155.5 277.062C154.55 272.532 155.05 268.202 157 264.062C156.67 263.732 156.33 263.392 156 263.062C151.91 267.602 146.91 270.272 141 271.062C139.96 268.822 139.8 266.492 140.5 264.062C147.41 254.852 156.57 249.012 168 246.562C179.53 244.692 189.86 247.192 199 254.062Z" fill="#040403"/>
<path fill-rule="evenodd" clip-rule="evenodd" d="M288.999 266.062C291.039 267.112 292.369 268.772 292.999 271.062C292.429 273.652 290.759 274.652 287.999 274.062C283.889 272.972 280.219 270.972 276.999 268.062C276.099 279.132 271.769 288.632 263.999 296.562C259.109 299.622 253.769 300.792 247.999 300.062C240.989 299.312 235.159 296.312 230.499 291.062C228.119 283.222 227.449 275.222 228.499 267.062C231.289 257.442 237.459 251.442 246.999 249.062C258.099 250.702 268.759 253.872 278.999 258.562C282.209 261.282 285.539 263.782 288.999 266.062Z" fill="#040404"/>
<path fill-rule="evenodd" clip-rule="evenodd" d="M185 255.062C193.14 255.042 196.31 259.042 194.5 267.062C192.8 271.842 189.46 274.512 184.5 275.062C180.55 273.682 178.38 270.852 178 266.562C178.95 261.822 181.28 257.992 185 255.062Z" fill="#F6F6F6"/>
<path fill-rule="evenodd" clip-rule="evenodd" d="M243 256.062C248.2 254.942 251.2 256.942 252 262.062C250.88 265.302 250.05 268.642 249.5 272.062C243.82 276.282 239.15 275.282 235.5 269.062C234.71 265.932 235.04 262.932 236.5 260.062C238.81 258.832 240.98 257.492 243 256.062Z" fill="#F6F6F6"/>
<path fill-rule="evenodd" clip-rule="evenodd" d="M288 274.062C287.18 282.992 287.18 291.992 288 301.062C279.23 301.492 273.23 305.832 270 314.062C258.18 315.852 250.85 311.182 248 300.062C253.77 300.792 259.11 299.622 264 296.562C271.77 288.632 276.1 279.132 277 268.062C280.22 270.972 283.89 272.972 288 274.062Z" fill="#FBE6F0"/>
<path fill-rule="evenodd" clip-rule="evenodd" d="M183 297.062C179.86 297.882 176.53 298.382 173 298.562C175.51 298.652 177.67 299.492 179.5 301.062C180.07 308.502 176.57 312.662 169 313.562C163.58 313.922 158.25 314.752 153 316.062C149.98 316.042 147.31 315.042 145 313.062C143.84 306.732 143.84 300.392 145 294.062C145.17 290.052 145 286.052 144.5 282.062C143.33 278.382 142.17 274.712 141 271.062C146.91 270.272 151.91 267.602 156 263.062C156.33 263.392 156.67 263.732 157 264.062C155.05 268.202 154.55 272.532 155.5 277.062C158.67 292.072 167.84 298.742 183 297.062Z" fill="#FCE6F0"/>
<path fill-rule="evenodd" clip-rule="evenodd" d="M317 300.062C325.66 300.542 334.33 301.042 343 301.562C355.35 303.912 362.18 311.412 363.5 324.062C366.17 341.712 361.84 357.382 350.5 371.062C345.03 375.532 339.87 380.362 335 385.562C326.65 391.752 317.31 393.752 307 391.562C291.55 385.442 280.72 374.612 274.5 359.062C271.98 350.552 269.81 342.222 268 334.062C269.9 327.682 270.57 321.012 270 314.062C273.23 305.832 279.23 301.492 288 301.062C297.65 300.272 307.31 299.942 317 300.062Z" fill="#C9C8C6"/>
<path fill-rule="evenodd" clip-rule="evenodd" d="M227 302.062C230.07 301.482 232.07 302.652 233 305.562C230.71 309.852 227.71 313.512 224 316.562C217.42 316.532 211.59 314.362 206.5 310.062C205.26 306.652 206.43 304.992 210 305.062C213.03 305.412 215.69 306.572 218 308.562C222.44 308.652 225.44 306.482 227 302.062Z" fill="#0B0B0B"/>
<path fill-rule="evenodd" clip-rule="evenodd" d="M292.001 307.062C309.491 306.762 326.821 307.922 344.001 310.562C355.461 318.032 359.301 328.532 355.501 342.062C349.651 362.572 336.821 376.742 317.001 384.562C311.811 385.802 307.141 384.802 303.001 381.562C290.371 370.142 282.541 355.972 279.501 339.062C278.831 331.392 278.831 323.732 279.501 316.062C281.901 314.782 283.741 312.952 285.001 310.562C287.431 309.352 289.761 308.182 292.001 307.062Z" fill="#B07A66"/>
<path fill-rule="evenodd" clip-rule="evenodd" d="M100.999 331.062C98.3194 336.062 94.9794 336.392 90.9994 332.062C89.4294 328.672 86.7594 327.332 82.9994 328.062C82.7594 329.352 83.0994 330.352 83.9994 331.062C83.6894 334.602 84.0194 337.942 84.9994 341.062C84.8394 343.422 84.9994 345.752 85.4994 348.062C88.5294 348.652 91.1994 349.992 93.4994 352.062C94.2694 354.662 94.0994 357.162 92.9994 359.562C84.5094 362.182 75.8494 363.522 66.9994 363.562C64.1794 359.462 64.5094 355.632 67.9994 352.062C71.6794 352.832 74.1794 351.502 75.4994 348.062C75.4694 342.742 75.1394 337.412 74.4994 332.062C68.7994 326.012 65.2994 327.012 63.9994 335.062C61.9694 338.092 59.2994 340.422 55.9994 342.062C48.1194 339.202 45.9494 333.872 49.4994 326.062C50.3294 325.232 51.1694 324.392 51.9994 323.562C55.5394 322.282 58.8794 320.782 61.9994 319.062C69.3794 317.612 76.7194 315.942 83.9994 314.062C87.7894 312.402 91.7894 311.902 95.9994 312.562C98.1194 314.292 99.6194 316.462 100.499 319.062C100.999 323.052 101.169 327.052 100.999 331.062Z" fill="#5865DF"/>
<path fill-rule="evenodd" clip-rule="evenodd" d="M316.001 314.062C317.051 313.912 318.051 314.082 319.001 314.562C321.171 317.392 323.331 320.232 325.501 323.062C326.311 325.142 326.141 327.142 325.001 329.062C319.471 328.422 313.971 327.752 308.501 327.062C307.831 326.062 307.831 325.062 308.501 324.062C311.261 320.852 313.761 317.512 316.001 314.062Z" fill="#FBE741"/>
<path fill-rule="evenodd" clip-rule="evenodd" d="M143 317.062C145.01 318.402 147.01 319.732 149 321.062C147.31 325.122 144.64 327.462 141 328.062C142.59 324.602 143.26 320.932 143 317.062Z" fill="#12100E"/>
<path fill-rule="evenodd" clip-rule="evenodd" d="M121.001 327.062C123.691 329.422 126.361 331.762 129.001 334.062C123.571 336.032 117.911 337.532 112.001 338.562C102.991 339.352 93.9911 340.182 85.0011 341.062C84.0211 337.942 83.6911 334.602 84.0011 331.062C86.2211 331.932 88.5511 332.262 91.0011 332.062C94.9811 336.392 98.3211 336.062 101.001 331.062C107.731 330.042 114.401 328.712 121.001 327.062Z" fill="#090707"/>
<path fill-rule="evenodd" clip-rule="evenodd" d="M68 352.062C65.93 346.582 64.6 340.922 64 335.062C65.3 327.012 68.8 326.012 74.5 332.062C75.14 337.412 75.47 342.742 75.5 348.062C74.18 351.502 71.68 352.832 68 352.062Z" fill="#05040B"/>
<path fill-rule="evenodd" clip-rule="evenodd" d="M90.9995 332.062C88.5495 332.262 86.2195 331.932 83.9995 331.062C83.0995 330.352 82.7595 329.352 82.9995 328.062C86.7595 327.332 89.4295 328.672 90.9995 332.062Z" fill="#A8948A"/>
<path fill-rule="evenodd" clip-rule="evenodd" d="M304 329.062C305.48 328.802 306.81 329.132 308 330.062C311.23 333.602 313.56 337.602 315 342.062C309 342.062 303 342.062 297 342.062C296.84 340.692 297.01 339.352 297.5 338.062C299.91 335.162 302.08 332.162 304 329.062Z" fill="#FDEB3F"/>
<path fill-rule="evenodd" clip-rule="evenodd" d="M328.001 329.062C329.481 328.802 330.811 329.132 332.001 330.062C334.701 333.592 337.201 337.262 339.501 341.062C340.121 342.012 339.951 342.842 339.001 343.562C332.421 344.372 325.921 344.202 319.501 343.062C318.831 342.062 318.831 341.062 319.501 340.062C322.831 336.722 325.661 333.062 328.001 329.062Z" fill="#FAE542"/>
<path fill-rule="evenodd" clip-rule="evenodd" d="M249 339.062C253.04 350.912 256.04 363.242 258 376.062C262.85 375.932 267.52 376.762 272 378.562C276.39 383.932 275.39 388.262 269 391.562C263.42 393.082 257.75 393.412 252 392.562C247.07 386.782 245.23 380.282 246.5 373.062C243.77 362.892 241.94 352.552 241 342.062C243.18 339.982 245.85 338.982 249 339.062Z" fill="#060404"/>
<path fill-rule="evenodd" clip-rule="evenodd" d="M187.001 340.062C190.831 341.562 194.831 342.232 199.001 342.062C199.031 354.082 199.531 366.082 200.501 378.062C202.801 379.902 203.471 382.232 202.501 385.062C199.871 387.792 196.711 389.622 193.001 390.562C188.331 391.232 183.671 391.232 179.001 390.562C174.101 387.742 173.771 384.402 178.001 380.562C181.711 379.162 185.371 377.662 189.001 376.062C189.331 374.392 189.671 372.732 190.001 371.062C188.721 360.752 187.721 350.412 187.001 340.062Z" fill="#030202"/>
<path fill-rule="evenodd" clip-rule="evenodd" d="M312.001 347.062C314.221 346.742 316.061 347.402 317.501 349.062C316.991 351.942 317.151 354.782 318.001 357.562C319.671 358.232 321.331 358.232 323.001 357.562C325.621 351.322 330.291 349.322 337.001 351.562C338.921 353.742 339.081 356.242 337.501 359.062C336.111 363.292 333.271 365.962 329.001 367.062C327.691 366.252 326.521 365.252 325.501 364.062C325.001 364.562 324.501 365.062 324.001 365.562C325.771 368.262 327.101 371.092 328.001 374.062C326.001 374.392 324.001 374.732 322.001 375.062C321.741 372.622 321.081 370.292 320.001 368.062C318.811 367.132 317.481 366.802 316.001 367.062C316.171 371.412 316.001 375.742 315.501 380.062C314.771 381.722 313.611 382.222 312.001 381.562C311.361 376.782 310.691 371.942 310.001 367.062C307.311 368.922 305.141 371.252 303.501 374.062C302.201 373.002 301.041 371.832 300.001 370.562C301.331 368.562 302.671 366.562 304.001 364.562C303.671 364.062 303.331 363.562 303.001 363.062C301.311 364.822 299.311 365.322 297.001 364.562C292.951 360.182 291.281 355.182 292.001 349.562C295.331 348.892 298.671 348.892 302.001 349.562C303.621 351.732 304.451 354.232 304.501 357.062C306.981 359.382 309.311 359.042 311.501 356.062C310.921 353.012 311.091 350.012 312.001 347.062Z" fill="#CDCAC9"/>
</svg>
