<svg width="500" height="500" viewBox="0 0 500 500" fill="none" xmlns="http://www.w3.org/2000/svg">
<path fill-rule="evenodd" clip-rule="evenodd" d="M319 116.061C314.93 122.631 309.93 128.471 304 133.561C297.45 137.111 290.45 138.611 283 138.061C283.24 136.771 282.9 135.771 282 135.061C280.51 127.581 277.84 120.581 274 114.061C275.38 111.171 277.38 108.671 280 106.561C286.96 101.281 294.63 97.2812 303 94.5612C309.6 93.0612 316.27 92.7312 323 93.5612C325.52 94.4412 327.52 95.9412 329 98.0612C324.64 103.431 321.31 109.431 319 116.061Z" fill="#8BC24A"/>
<path fill-rule="evenodd" clip-rule="evenodd" d="M256 105.061C246.54 113.391 241.87 124.061 242 137.061C241.44 142.901 243.77 147.061 249 149.561C260.77 151.361 271.6 149.201 281.5 143.061C282 140.411 282.16 137.751 282 135.061C282.9 135.771 283.24 136.771 283 138.061C290.45 138.611 297.45 137.111 304 133.561C309.93 128.471 314.93 122.631 319 116.061C333.26 122.141 346.09 130.471 357.5 141.061C361.13 147.401 362.29 154.061 361 161.061C358.88 165.011 355.88 168.181 352 170.561C346.22 173.171 340.22 175.171 334 176.561C308.75 177.481 283.58 179.321 258.5 182.061C233.32 182.561 209.15 178.061 186 168.561C178.17 164.731 172.33 158.891 168.5 151.061C168 149.041 167.5 147.041 167 145.061C172.3 132.321 181.3 123.151 194 117.561C204.05 113.861 214.05 110.191 224 106.561C234.63 105.281 245.29 104.781 256 105.061Z" fill="#B17A67"/>
<path fill-rule="evenodd" clip-rule="evenodd" d="M256.001 105.061C258.361 104.901 260.691 105.061 263.001 105.561C267.111 107.841 270.781 110.681 274.001 114.061C277.841 120.581 280.511 127.581 282.001 135.061C282.161 137.751 282.001 140.411 281.501 143.061C271.601 149.201 260.771 151.361 249.001 149.561C243.771 147.061 241.441 142.901 242.001 137.061C241.871 124.061 246.541 113.391 256.001 105.061Z" fill="#DB1F61"/>
<path fill-rule="evenodd" clip-rule="evenodd" d="M166.999 145.061C167.499 147.041 167.999 149.041 168.499 151.061C172.329 158.891 178.169 164.731 185.999 168.561C209.149 178.061 233.319 182.561 258.499 182.061C283.579 179.321 308.749 177.481 333.999 176.561C340.219 175.171 346.219 173.171 351.999 170.561C355.879 168.181 358.879 165.011 360.999 161.061C362.809 162.951 363.979 165.281 364.499 168.061C367.039 178.951 369.869 189.621 372.999 200.061C373.549 212.891 375.209 225.561 377.999 238.061C380.179 247.421 382.679 256.751 385.499 266.061C386.169 273.061 386.169 280.061 385.499 287.061C383.779 292.011 380.949 296.171 376.999 299.561C370.379 303.711 363.709 306.881 356.999 309.061C361.669 294.551 364.999 279.711 366.999 264.561C366.959 262.801 366.619 261.131 365.999 259.561C362.469 259.071 359.309 259.901 356.499 262.061C355.039 275.781 353.369 289.451 351.499 303.061C349.699 307.301 348.199 311.641 346.999 316.061C317.839 323.981 288.169 328.981 257.999 331.061C248.559 330.711 239.229 329.551 229.999 327.561C219.559 324.041 208.889 321.371 197.999 319.561C187.859 316.361 177.859 312.861 167.999 309.061C166.079 299.141 164.419 289.141 162.999 279.061C163.969 271.741 164.139 264.411 163.499 257.061C158.689 252.561 155.189 253.391 152.999 259.561C153.929 273.111 155.269 286.611 156.999 300.061C148.149 296.091 140.649 289.761 134.499 281.061C131.619 269.151 132.949 257.821 138.499 247.061C138.859 244.021 139.359 241.021 139.999 238.061C140.779 223.101 143.109 208.441 146.999 194.061C149.779 176.881 155.609 160.881 164.499 146.061C165.169 145.311 165.999 144.971 166.999 145.061Z" fill="#FEF3BC"/>
<path fill-rule="evenodd" clip-rule="evenodd" d="M146.999 194.061C143.109 208.441 140.779 223.101 139.999 238.061C125.849 245.891 113.019 255.561 101.499 267.061C91.6591 277.411 89.6591 289.081 95.4991 302.061C102.399 310.621 108.899 319.461 114.999 328.561C105.239 342.411 107.569 353.741 121.999 362.561C128.649 364.511 135.319 364.511 141.999 362.561C153.459 357.411 165.289 353.571 177.499 351.061C191.629 352.951 205.469 356.121 218.999 360.561C237.969 362.421 256.969 363.091 275.999 362.561C308.879 359.521 341.219 353.521 372.999 344.561C380.399 341.781 386.899 337.611 392.499 332.061C397.459 325.431 402.789 319.101 408.499 313.061C415.589 300.271 418.589 286.601 417.499 272.061C416.359 268.451 414.689 265.111 412.499 262.061C405.909 255.471 398.749 249.641 390.999 244.561C387.189 241.321 382.859 239.161 377.999 238.061C375.209 225.561 373.549 212.891 372.999 200.061C379.089 202.611 385.089 205.441 390.999 208.561C406.549 218.111 421.549 228.451 435.999 239.561C443.239 245.871 448.069 253.701 450.499 263.061C454.799 267.901 457.469 273.561 458.499 280.061C458.939 300.561 453.599 319.561 442.499 337.061C433.999 346.561 425.169 355.721 415.999 364.561C406.829 370.981 397.159 376.651 386.999 381.561C361.469 389.731 335.469 396.071 308.999 400.561C240.969 413.261 174.639 407.261 109.999 382.561C96.6691 375.901 83.9991 368.231 71.9991 359.561C62.3091 350.881 55.4791 340.381 51.4991 328.061C43.4291 318.861 40.4291 308.191 42.4991 296.061C45.6291 282.471 50.9591 269.811 58.4991 258.061C67.9791 245.951 77.8091 234.121 87.9991 222.561C100.779 212.831 114.779 205.171 129.999 199.561C135.479 197.241 141.139 195.401 146.999 194.061Z" fill="#FEFEFE"/>
<path fill-rule="evenodd" clip-rule="evenodd" d="M186.001 241.061C185.251 246.631 187.591 248.461 193.001 246.561C195.521 243.881 198.181 241.381 201.001 239.061C199.211 252.481 204.211 262.651 216.001 269.561C236.371 270.851 246.871 261.351 247.501 241.061C244.261 236.351 241.761 231.351 240.001 226.061C234.741 221.981 228.741 220.311 222.001 221.061C219.001 221.231 216.001 221.391 213.001 221.561C209.741 223.031 206.411 224.191 203.001 225.061C208.501 221.141 214.501 217.981 221.001 215.561C233.281 212.501 245.621 209.841 258.001 207.561C286.031 205.351 310.861 213.181 332.501 231.061C339.201 240.091 340.871 250.091 337.501 261.061C330.961 271.921 321.461 278.751 309.001 281.561C278.511 290.541 247.511 292.871 216.001 288.561C199.811 285.581 188.311 276.741 181.501 262.061C180.831 257.731 180.831 253.391 181.501 249.061C182.251 245.881 183.751 243.211 186.001 241.061Z" fill="#FCFCFB"/>
<path fill-rule="evenodd" clip-rule="evenodd" d="M282.999 218.061C287.349 217.891 291.679 218.061 295.999 218.561C302.669 220.231 309.329 221.891 315.999 223.561C320.869 226.591 325.869 229.431 330.999 232.061C334.029 235.121 333.529 237.121 329.499 238.061C324.559 237.881 320.219 236.211 316.499 233.061C315.939 235.431 316.099 237.761 316.999 240.061C315.059 246.611 312.559 252.951 309.499 259.061C303.439 265.741 295.939 267.911 286.999 265.561C279.919 265.111 275.079 261.611 272.499 255.061C267.259 240.021 270.759 227.691 282.999 218.061Z" fill="#050505"/>
<path fill-rule="evenodd" clip-rule="evenodd" d="M186 241.061C190.41 234.321 196.07 228.981 203 225.061C206.41 224.191 209.74 223.031 213 221.561C216 221.391 219 221.231 222 221.061C228.74 220.311 234.74 221.981 240 226.061C241.76 231.351 244.26 236.351 247.5 241.061C246.87 261.351 236.37 270.851 216 269.561C204.21 262.651 199.21 252.481 201 239.061C198.18 241.381 195.52 243.881 193 246.561C187.59 248.461 185.25 246.631 186 241.061Z" fill="#050505"/>
<path fill-rule="evenodd" clip-rule="evenodd" d="M284.001 224.061C287.151 223.521 289.651 224.521 291.501 227.061C292.221 232.241 291.391 237.071 289.001 241.561C280.111 243.591 275.941 240.091 276.501 231.061C278.941 228.601 281.441 226.271 284.001 224.061Z" fill="#F5F5F5"/>
<path fill-rule="evenodd" clip-rule="evenodd" d="M229.999 228.061C235.229 228.451 237.889 231.291 237.999 236.561C237.889 242.731 234.889 246.571 228.999 248.061C221.189 243.871 220.019 238.211 225.499 231.061C227.149 230.161 228.649 229.161 229.999 228.061Z" fill="#F5F5F5"/>
<path fill-rule="evenodd" clip-rule="evenodd" d="M139.999 238.061C139.359 241.021 138.859 244.021 138.499 247.061C132.949 257.821 131.619 269.151 134.499 281.061C140.649 289.761 148.149 296.091 156.999 300.061C159.549 310.021 162.879 319.861 166.999 329.561C166.319 333.651 165.319 337.651 163.999 341.561C163.939 343.271 164.609 344.601 165.999 345.561C172.109 348.741 175.279 346.911 175.499 340.061C179.139 337.101 181.979 333.601 183.999 329.561C182.509 324.131 178.839 321.631 172.999 322.061C169.969 318.261 168.299 313.931 167.999 309.061C177.859 312.861 187.859 316.361 197.999 319.561C208.889 321.371 219.559 324.041 229.999 327.561C239.229 329.551 248.559 330.711 257.999 331.061C288.169 328.981 317.839 323.981 346.999 316.061C346.539 321.351 343.869 324.851 338.999 326.561C337.559 327.691 336.889 329.191 336.999 331.061C340.089 335.341 342.589 340.011 344.499 345.061C344.989 346.691 345.159 348.361 344.999 350.061C349.179 350.711 352.019 349.051 353.499 345.061C354.859 340.801 355.199 336.471 354.499 332.061C352.709 330.781 351.549 329.121 350.999 327.061C352.499 320.771 354.499 314.771 356.999 309.061C363.709 306.881 370.379 303.711 376.999 299.561C380.949 296.171 383.779 292.011 385.499 287.061C386.169 280.061 386.169 273.061 385.499 266.061C382.679 256.751 380.179 247.421 377.999 238.061C382.859 239.161 387.189 241.321 390.999 244.561C398.749 249.641 405.909 255.471 412.499 262.061C414.689 265.111 416.359 268.451 417.499 272.061C418.589 286.601 415.589 300.271 408.499 313.061C402.789 319.101 397.459 325.431 392.499 332.061C386.899 337.611 380.399 341.781 372.999 344.561C341.219 353.521 308.879 359.521 275.999 362.561C256.969 363.091 237.969 362.421 218.999 360.561C205.469 356.121 191.629 352.951 177.499 351.061C165.289 353.571 153.459 357.411 141.999 362.561C135.319 364.511 128.649 364.511 121.999 362.561C107.569 353.741 105.239 342.411 114.999 328.561C108.899 319.461 102.399 310.621 95.499 302.061C89.659 289.081 91.659 277.411 101.499 267.061C113.019 255.561 125.849 245.891 139.999 238.061Z" fill="#E6BAAA"/>
<path fill-rule="evenodd" clip-rule="evenodd" d="M168 309.061C168.3 313.931 169.97 318.261 173 322.061C178.84 321.631 182.51 324.131 184 329.561C181.98 333.601 179.14 337.101 175.5 340.061C175.28 346.911 172.11 348.741 166 345.561C164.61 344.601 163.94 343.271 164 341.561C165.32 337.651 166.32 333.651 167 329.561C162.88 319.861 159.55 310.021 157 300.061C155.27 286.611 153.93 273.111 153 259.561C155.19 253.391 158.69 252.561 163.5 257.061C164.14 264.411 163.97 271.741 163 279.061C164.42 289.141 166.08 299.141 168 309.061Z" fill="#0B0908"/>
<path fill-rule="evenodd" clip-rule="evenodd" d="M357 309.061C354.5 314.771 352.5 320.771 351 327.061C351.55 329.121 352.71 330.781 354.5 332.061C355.2 336.471 354.86 340.801 353.5 345.061C352.02 349.051 349.18 350.711 345 350.061C345.16 348.361 344.99 346.691 344.5 345.061C342.59 340.011 340.09 335.341 337 331.061C336.89 329.191 337.56 327.691 339 326.561C343.87 324.851 346.54 321.351 347 316.061C348.2 311.641 349.7 307.301 351.5 303.061C353.37 289.451 355.04 275.781 356.5 262.061C359.31 259.901 362.47 259.071 366 259.561C366.62 261.131 366.96 262.801 367 264.561C365 279.711 361.67 294.551 357 309.061Z" fill="#090806"/>
<path fill-rule="evenodd" clip-rule="evenodd" d="M272.001 270.061C273.701 269.901 275.371 270.071 277.001 270.561C277.191 276.181 274.861 280.851 270.001 284.561C263.641 284.551 257.801 282.721 252.501 279.061C251.911 275.971 253.251 274.311 256.501 274.061C259.831 274.971 262.991 276.311 266.001 278.061C268.981 276.091 270.981 273.421 272.001 270.061Z" fill="#0E0E0E"/>
</svg>
