<svg width="500" height="500" viewBox="0 0 500 500" fill="none" xmlns="http://www.w3.org/2000/svg">
<path fill-rule="evenodd" clip-rule="evenodd" d="M260 98.0614C267.42 105.651 274.75 113.481 282 121.561C283.9 122.981 285.9 124.151 288 125.061C291.33 129.061 295 132.731 299 136.061C299 137.391 299 138.731 299 140.061C301.36 139.811 303.36 140.481 305 142.061C305 167.731 305 193.391 305 219.061C302.04 221.621 299.54 224.621 297.5 228.061C294.11 231.951 290.28 235.291 286 238.061C284.72 239.521 284.72 240.851 286 242.061C286.67 242.061 287 242.391 287 243.061C288.9 247.031 291.23 250.701 294 254.061C296.3 255.851 298.46 257.851 300.5 260.061C299.97 266.221 300.14 272.221 301 278.061C300.83 285.401 301 292.731 301.5 300.061C302.17 300.811 303 301.151 304 301.061C306.38 301.911 308.38 303.241 310 305.061C314.29 309.041 319.29 311.701 325 313.061C330.89 316.181 337.22 317.341 344 316.561C347.82 312.891 350.82 313.391 353 318.061C352.34 320.011 352.01 322.011 352 324.061C350.95 328.541 349.28 332.871 347 337.061C344.74 338.331 342.74 338.001 341 336.061C341 332.391 341 328.731 341 325.061C331.6 325.091 323.1 322.431 315.5 317.061C311.83 316.001 308.33 314.671 305 313.061C304.21 311.461 302.88 310.791 301 311.061C301.17 316.401 301 321.741 300.5 327.061C297.5 328.891 295 331.231 293 334.061C288.74 335.351 285.4 337.851 283 341.561C286.37 347.131 289.04 352.971 291 359.061C293.16 363.601 295.32 368.261 297.5 373.061C299.19 376.251 301.69 378.591 305 380.061C306.11 385.501 305.11 390.501 302 395.061C300.23 397.331 298.23 399.501 296 401.561C291.77 402.831 289.1 401.331 288 397.061C288.66 395.111 288.99 393.111 289 391.061C291.86 387.991 293.02 384.331 292.5 380.061C289.47 375.041 286.47 370.041 283.5 365.061C281.03 358.781 278.86 352.451 277 346.061C271.37 347.891 266.7 351.221 263 356.061C260.15 358.071 257.15 359.901 254 361.561C249.01 361.651 244.01 361.481 239 361.061C239.17 359.741 238.84 358.571 238 357.561C232.25 356.151 227.91 352.811 225 347.561C223.89 346.921 222.72 346.421 221.5 346.061C216 349.401 212.17 354.071 210 360.061C206.4 363.261 204.4 367.261 204 372.061C200.84 374.941 199.01 378.601 198.5 383.061C195.77 389.781 190.94 392.121 184 390.061C179.29 386.521 175.46 382.181 172.5 377.061C171.75 373.641 171.92 370.301 173 367.061C179.24 365.611 183.08 368.281 184.5 375.061C185.61 376.891 187.11 377.721 189 377.561C191.01 370.871 194.51 365.041 199.5 360.061C199.86 357.951 200.53 355.951 201.5 354.061C205.2 350.521 208.7 346.861 212 343.061C214.53 341.231 214.2 339.561 211 338.061C206.27 333.161 201.1 328.831 195.5 325.061C194.2 319.141 193.7 313.141 194 307.061C183.31 311.501 173.81 317.831 165.5 326.061C165.08 329.751 164.58 333.421 164 337.061C161 339.731 158 339.731 155 337.061C155.16 334.701 155 332.371 154.5 330.061C152.17 327.731 149.83 325.391 147.5 323.061C146.3 318.601 147.96 315.931 152.5 315.061C155.75 315.451 158.75 316.451 161.5 318.061C163.14 317.251 164.64 316.251 166 315.061C170.57 312.831 174.57 309.831 178 306.061C182.83 302.811 187.83 299.811 193 297.061C193.62 296.951 194.12 296.621 194.5 296.061C194.75 283.371 195.25 270.701 196 258.061C196.33 258.061 196.67 258.061 197 258.061C200.03 250.181 205.19 243.851 212.5 239.061C217.29 234.371 217.12 230.041 212 226.061C209.29 223.341 206.29 221.011 203 219.061C202.38 212.081 201.88 205.081 201.5 198.061C201.29 196.501 200.79 195.171 200 194.061C200.28 192.151 199.95 190.481 199 189.061C199 178.061 199 167.061 199 156.061C200.32 146.431 202.66 137.101 206 128.061C207 127.731 207.67 127.061 208 126.061C222.2 116.181 236.86 107.181 252 99.0614C254.6 98.2914 257.26 97.9614 260 98.0614Z" fill="#0E0F11"/>
<path fill-rule="evenodd" clip-rule="evenodd" d="M256 108.062C250.37 110.502 245.37 114.002 241 118.562C239.35 119.172 237.68 119.672 236 120.062C241.15 115.762 246.48 111.592 252 107.562C253.57 106.802 254.9 106.962 256 108.062Z" fill="#838689"/>
<path fill-rule="evenodd" clip-rule="evenodd" d="M255.999 108.062C270.069 120.472 283.399 133.472 295.999 147.062C295.999 150.062 295.999 153.062 295.999 156.062C283.329 156.062 270.669 156.062 257.999 156.062C258.309 150.192 258.309 144.532 257.999 139.062C256.879 138.402 255.549 138.072 253.999 138.062C251.389 138.002 249.059 138.672 246.999 140.062C245.319 145.132 244.659 150.462 244.999 156.062C233.999 156.062 222.999 156.062 211.999 156.062C211.999 152.392 211.999 148.732 211.999 145.062C211.829 141.052 211.999 137.052 212.499 133.062C220.309 128.582 228.139 124.242 235.999 120.062C237.679 119.672 239.349 119.172 240.999 118.562C245.369 114.002 250.369 110.502 255.999 108.062Z" fill="#DDDDD8"/>
<path fill-rule="evenodd" clip-rule="evenodd" d="M246.999 140.062C247.649 152.772 246.979 165.112 244.999 177.062C244.999 170.732 244.999 164.392 244.999 158.062C233.669 158.062 222.329 158.062 210.999 158.062C210.679 153.532 211.019 149.192 211.999 145.062C211.999 148.732 211.999 152.392 211.999 156.062C222.999 156.062 233.999 156.062 244.999 156.062C244.659 150.462 245.319 145.132 246.999 140.062Z" fill="#A2A3A2"/>
<path fill-rule="evenodd" clip-rule="evenodd" d="M258 139.062C258.31 144.532 258.31 150.192 258 156.062C270.67 156.062 283.33 156.062 296 156.062C296 153.062 296 150.062 296 147.062C296.73 166.732 297.4 186.572 298 206.562C297.99 208.592 297.66 210.432 297 212.062C296.07 204.082 295.4 196.082 295 188.062C283 188.062 271 188.062 259 188.062C259 195.392 259 202.732 259 210.062C257.67 199.252 257 188.082 257 176.562C257.04 164.042 257.37 151.542 258 139.062Z" fill="#A1A3A2"/>
<path fill-rule="evenodd" clip-rule="evenodd" d="M210.999 158.062C222.329 158.062 233.669 158.062 244.999 158.062C244.999 164.392 244.999 170.732 244.999 177.062C244.999 178.732 244.999 180.392 244.999 182.062C244.269 183.442 243.599 184.942 242.999 186.562C232.669 187.232 222.329 187.232 211.999 186.562C211.019 178.812 210.679 170.982 210.999 163.062C210.999 161.392 210.999 159.732 210.999 158.062Z" fill="#E8E8E1"/>
<path fill-rule="evenodd" clip-rule="evenodd" d="M286 157.062C289.28 156.782 292.44 157.112 295.5 158.062C296 167.392 296.17 176.722 296 186.062C283.67 186.062 271.33 186.062 259 186.062C259 176.732 259 167.392 259 158.062C268.18 158.392 277.18 158.052 286 157.062Z" fill="#E5E5DF"/>
<path fill-rule="evenodd" clip-rule="evenodd" d="M297 212.062C291.36 218.872 285.19 225.202 278.5 231.062C271.41 224.482 264.91 217.482 259 210.062C259 202.732 259 195.392 259 188.062C271 188.062 283 188.062 295 188.062C295.4 196.082 296.07 204.082 297 212.062Z" fill="#DFDFD9"/>
<path fill-rule="evenodd" clip-rule="evenodd" d="M211 163.062C210.68 170.982 211.02 178.812 212 186.562C222.33 187.232 232.67 187.232 243 186.562C243.6 184.942 244.27 183.442 245 182.062C245.02 191.432 244.85 200.762 244.5 210.062C248.55 213.602 252.05 217.602 255 222.062C253.87 221.442 252.87 220.602 252 219.562C245.62 218.872 239.28 219.202 233 220.562C236.13 220.682 237.3 222.182 236.5 225.062C234.48 221.452 232.32 221.282 230 224.562C232.77 226.232 235.44 228.232 238 230.562C236.3 230.062 234.63 230.232 233 231.062C231.92 231.922 231.75 232.922 232.5 234.062C236.94 237.992 240.77 242.322 244 247.062C231.75 236.832 221.42 225.162 213 212.062C212.28 211.642 211.78 210.982 211.5 210.062C209.97 194.242 209.8 178.582 211 163.062Z" fill="#CFCFCA"/>
<path fill-rule="evenodd" clip-rule="evenodd" d="M213.001 212.062C212.191 204.422 211.851 196.762 212.001 189.062C222.331 189.062 232.671 189.062 243.001 189.062C242.761 194.052 242.761 198.882 243.001 203.562C243.061 205.272 242.391 206.602 241.001 207.562C238.981 208.232 237.321 209.402 236.001 211.062C232.881 208.552 229.711 208.552 226.501 211.062C226.171 210.732 225.831 210.392 225.501 210.062C222.131 214.092 217.961 214.752 213.001 212.062Z" fill="#E6E6DE"/>
<path fill-rule="evenodd" clip-rule="evenodd" d="M248.999 251.062C255.039 250.732 261.039 251.062 266.999 252.062C265.389 252.802 263.729 252.972 261.999 252.562C262.949 253.282 263.119 254.112 262.499 255.062C260.969 257.122 258.969 258.462 256.499 259.062C254.789 262.522 254.629 266.022 255.999 269.562C264.479 270.112 272.149 272.782 278.999 277.562C281.979 278.062 284.979 278.222 287.999 278.062C288.169 273.712 287.999 269.382 287.499 265.062C285.369 263.452 283.869 261.452 282.999 259.062C284.959 260.522 286.799 262.192 288.499 264.062C288.719 274.112 289.219 284.112 289.999 294.062C287.919 290.252 285.419 286.592 282.499 283.062C276.419 276.922 269.079 273.252 260.499 272.062C248.369 273.362 236.539 275.862 224.999 279.562C219.579 282.982 214.739 287.152 210.499 292.062C209.759 293.312 209.929 294.312 210.999 295.062C209.669 296.732 208.329 298.392 206.999 300.062C206.009 295.592 205.679 290.922 205.999 286.062C205.639 276.002 206.139 266.002 207.499 256.062C212.539 250.852 217.709 245.852 222.999 241.062C228.089 243.652 231.589 247.652 233.499 253.062C236.809 255.542 239.979 258.212 242.999 261.062C243.989 265.012 244.319 269.012 243.999 273.062C247.249 272.662 250.409 271.992 253.499 271.062C254.089 263.812 252.589 257.152 248.999 251.062Z" fill="#CDCDCA"/>
<path fill-rule="evenodd" clip-rule="evenodd" d="M255 222.062C263.69 229.232 270.19 237.902 274.5 248.062C278.31 251.032 281.14 254.692 283 259.062C283.87 261.452 285.37 263.452 287.5 265.062C288 269.382 288.17 273.712 288 278.062C284.98 278.222 281.98 278.062 279 277.562C272.15 272.782 264.48 270.112 256 269.562C254.63 266.022 254.79 262.522 256.5 259.062C258.97 258.462 260.97 257.122 262.5 255.062C263.12 254.112 262.95 253.282 262 252.562C263.73 252.972 265.39 252.802 267 252.062C261.04 251.062 255.04 250.732 249 251.062C246.75 250.482 245.08 249.152 244 247.062C240.77 242.322 236.94 237.992 232.5 234.062C231.75 232.922 231.92 231.922 233 231.062C234.63 230.232 236.3 230.062 238 230.562C235.44 228.232 232.77 226.232 230 224.562C232.32 221.282 234.48 221.452 236.5 225.062C237.3 222.182 236.13 220.682 233 220.562C239.28 219.202 245.62 218.872 252 219.562C252.87 220.602 253.87 221.442 255 222.062Z" fill="#DEDDD7"/>
<path fill-rule="evenodd" clip-rule="evenodd" d="M290 294.062C290.33 295.062 291 295.732 292 296.062C292 297.062 292 298.062 292 299.062C288.64 297.882 285.64 296.042 283 293.562C279.22 292.972 275.56 291.972 272 290.562C264.67 289.312 259.5 292.152 256.5 299.062C254 313.892 260.17 320.062 275 317.562C280.21 312.972 283.21 307.142 284 300.062C286.88 302.202 289.88 302.872 293 302.062C293.72 302.482 294.22 303.142 294.5 304.062C295 307.042 295.16 310.042 295 313.062C295 313.392 295 313.732 295 314.062C292.86 317.052 290.86 320.222 289 323.562C281.14 326.832 273.14 329.502 265 331.562C250.48 334.932 236.15 334.262 222 329.562C217.26 325.312 211.93 322.142 206 320.062C205.14 319.032 204.48 317.862 204 316.562C205.49 312.442 206.49 308.282 207 304.062C210.36 303.472 213.36 302.302 216 300.562C213.69 310.792 217.69 316.622 228 318.062C234.92 317.322 239.76 313.652 242.5 307.062C243.17 305.392 243.17 303.732 242.5 302.062C240.94 299.602 239.94 296.942 239.5 294.062C235.66 290.852 231.16 289.182 226 289.062C220.63 290.252 215.63 292.252 211 295.062C209.93 294.312 209.76 293.312 210.5 292.062C214.74 287.152 219.58 282.982 225 279.562C236.54 275.862 248.37 273.362 260.5 272.062C269.08 273.252 276.42 276.922 282.5 283.062C285.42 286.592 287.92 290.252 290 294.062Z" fill="#F8F9F9"/>
<path fill-rule="evenodd" clip-rule="evenodd" d="M207 304.062C207 302.732 207 301.392 207 300.062C208.33 298.392 209.67 296.732 211 295.062C215.63 292.252 220.63 290.252 226 289.062C231.16 289.182 235.66 290.852 239.5 294.062C239.94 296.942 240.94 299.602 242.5 302.062C243.17 303.732 243.17 305.392 242.5 307.062C239.76 313.652 234.92 317.322 228 318.062C217.69 316.622 213.69 310.792 216 300.562C213.36 302.302 210.36 303.472 207 304.062Z" fill="#070707"/>
<path fill-rule="evenodd" clip-rule="evenodd" d="M292 299.061C292.61 299.951 292.94 300.951 293 302.061C289.88 302.871 286.88 302.201 284 300.061C283.21 307.141 280.21 312.971 275 317.561C260.17 320.061 254 313.891 256.5 299.061C259.5 292.151 264.67 289.311 272 290.561C275.56 291.971 279.22 292.971 283 293.561C285.64 296.041 288.64 297.881 292 299.061Z" fill="#080808"/>
<path fill-rule="evenodd" clip-rule="evenodd" d="M263.999 294.062C267.989 293.382 269.659 295.052 268.999 299.062C268.429 303.822 265.929 305.152 261.499 303.062C259.079 299.082 259.909 296.082 263.999 294.062Z" fill="#F5F5F5"/>
<path fill-rule="evenodd" clip-rule="evenodd" d="M231.999 294.062C235.319 294.052 236.989 295.722 236.999 299.062C236.859 304.352 234.359 306.352 229.499 305.062C227.099 300.552 227.929 296.882 231.999 294.062Z" fill="#EEEEEE"/>
<path fill-rule="evenodd" clip-rule="evenodd" d="M292 296.062C295.82 301.282 296.82 306.952 295 313.062C295.16 310.042 295 307.042 294.5 304.062C294.22 303.142 293.72 302.482 293 302.062C292.94 300.952 292.61 299.952 292 299.062C292 298.062 292 297.062 292 296.062Z" fill="#7A7A7A"/>
<path fill-rule="evenodd" clip-rule="evenodd" d="M206 286.062C205.68 290.922 206.01 295.592 207 300.062C207 301.392 207 302.732 207 304.062C206.49 308.282 205.49 312.442 204 316.562C204.48 317.862 205.14 319.032 206 320.062C205 320.152 204.17 319.812 203.5 319.062C203.33 317.732 203.17 316.392 203 315.062C203.37 305.172 204.37 295.502 206 286.062Z" fill="#898C8F"/>
<path fill-rule="evenodd" clip-rule="evenodd" d="M295 314.062C293.61 322.282 288.95 327.442 281 329.562C276.54 333.162 271.54 335.832 266 337.562C258.31 341.752 251.14 346.582 244.5 352.062C243.67 351.732 242.83 351.392 242 351.062C239.36 347.282 236.36 343.782 233 340.562C223.57 334.192 214.57 327.362 206 320.062C211.93 322.142 217.26 325.312 222 329.562C236.15 334.262 250.48 334.932 265 331.562C273.14 329.502 281.14 326.832 289 323.562C290.86 320.222 292.86 317.052 295 314.062Z" fill="#C8C9C7"/>
<path fill-rule="evenodd" clip-rule="evenodd" d="M256 320.061C257.85 319.781 259.18 320.451 260 322.061C258.67 325.391 256.33 327.731 253 329.061C249.77 327.621 246.77 325.951 244 324.061C244.5 322.681 245.5 322.011 247 322.061C248.88 322.581 250.72 323.251 252.5 324.061C254.36 323.361 255.52 322.021 256 320.061Z" fill="#161616"/>
</svg>
