<svg width="500" height="500" viewBox="0 0 500 500" fill="none" xmlns="http://www.w3.org/2000/svg">
<path fill-rule="evenodd" clip-rule="evenodd" d="M332 151.062C333.88 154.152 335.21 157.492 336 161.062C341.82 177.572 342.49 194.242 338 211.062C333.88 221.422 327.21 229.922 318 236.562C312.02 238.052 306.35 240.382 301 243.562C291.16 246.182 281.49 249.182 272 252.562C265.37 253.552 258.71 254.052 252 254.062C232.96 252.332 213.96 250.162 195 247.562C181.6 245.442 170.43 239.272 161.5 229.062C158.42 220.992 155.26 212.992 152 205.062C152.26 201.292 151.92 197.622 151 194.062C151.67 191.062 152.33 188.062 153 185.062C154.37 174.862 157.37 165.192 162 156.062C164.14 153.752 166.14 151.252 168 148.562C167.77 148.162 167.44 147.992 167 148.062C175.08 141.162 183.08 133.992 191 126.562C200.02 122.052 208.35 116.552 216 110.062C221.02 104.212 226.52 98.8815 232.5 94.0615C233.33 85.0615 238.17 80.3915 247 80.0615C259.59 80.9415 268.09 87.2715 272.5 99.0615C282.19 109.142 292.36 118.642 303 127.562C315.39 132.082 325.06 139.912 332 151.062Z" fill="#DACCB9"/>
<path fill-rule="evenodd" clip-rule="evenodd" d="M244 89.0615C254.67 88.9815 261.83 93.9815 265.5 104.061C276.37 114.601 287.53 124.761 299 134.561C312.57 138.471 322.07 146.971 327.5 160.061C334.05 177.471 334.72 195.141 329.5 213.061C328.63 217.371 326.13 219.871 322 220.561C320.57 222.741 318.9 224.741 317 226.561C289.84 242.871 260.51 248.871 229 244.561C213.05 242.981 197.39 240.311 182 236.561C177.21 233.441 172.71 229.941 168.5 226.061C163.2 215.891 160.03 205.051 159 193.561C161.3 186.631 162.8 179.471 163.5 172.061C174 149.561 190.5 133.061 213 122.561C224.9 112.831 235.23 101.661 244 89.0615Z" fill="#FDF4E9"/>
<path fill-rule="evenodd" clip-rule="evenodd" d="M226.001 147.061C243.861 145.481 261.191 147.651 278.001 153.561C289.861 159.091 298.691 167.591 304.501 179.061C305.831 185.011 306.161 191.011 305.501 197.061C303.371 200.791 302.031 204.791 301.501 209.061C294.371 215.541 286.211 220.381 277.001 223.561C266.781 223.931 256.621 224.761 246.501 226.061C236.571 225.221 226.731 223.721 217.001 221.561C207.391 217.421 198.051 212.751 189.001 207.561C186.741 204.981 184.911 202.141 183.501 199.061C179.571 180.451 185.401 165.951 201.001 155.561C209.321 152.151 217.661 149.321 226.001 147.061Z" fill="#DACDBB"/>
<path fill-rule="evenodd" clip-rule="evenodd" d="M167 148.062C167.44 147.992 167.77 148.162 168 148.562C166.14 151.252 164.14 153.752 162 156.062C141.86 160.802 123.53 169.302 107 181.562C102.51 185.132 98.51 189.132 95 193.562C99.12 200.022 104.29 205.522 110.5 210.062C117.44 205.502 123.94 200.332 130 194.562C137.22 190.282 144.89 187.112 153 185.062C152.33 188.062 151.67 191.062 151 194.062C149.3 193.902 147.63 194.072 146 194.562C145.17 196.382 144.34 198.212 143.5 200.062C136.45 206.612 129.95 213.612 124 221.062C126.43 223.122 129.1 224.282 132 224.562C138.54 217.862 145.2 211.362 152 205.062C155.26 212.992 158.42 220.992 161.5 229.062C170.43 239.272 181.6 245.442 195 247.562C213.96 250.162 232.96 252.332 252 254.062C258.71 254.052 265.37 253.552 272 252.562C281.49 249.182 291.16 246.182 301 243.562C306.35 240.382 312.02 238.052 318 236.562C327.21 229.922 333.88 221.422 338 211.062C342.22 206.992 346.22 202.662 350 198.062C347.71 196.332 345.21 195.002 342.5 194.062C342 191.412 341.84 188.752 342 186.062C344.98 186.882 347.98 187.712 351 188.562C365.25 195.822 379.59 202.982 394 210.062C403.28 204.262 404.28 197.432 397 189.562C379.93 173.252 359.59 163.752 336 161.062C335.21 157.492 333.88 154.152 332 151.062C343.77 153.782 355.43 156.952 367 160.562C383.38 167.602 397.54 177.762 409.5 191.062C414.93 198.452 417.77 206.782 418 216.062C422.92 218.812 427.42 222.152 431.5 226.062C433.57 260.722 433.91 295.392 432.5 330.062C432.41 338.162 430.08 345.492 425.5 352.062C412.77 367.132 397.93 379.632 381 389.562C334.85 414.352 285.52 424.352 233 419.562C223.41 417.772 213.74 416.442 204 415.562C175.8 409.002 148.47 399.672 122 387.562C102.41 377.012 85.91 362.842 72.5 345.062C70.5 327.212 68.33 309.372 66 291.562C66.8 272.082 67.3 252.582 67.5 233.062C70.34 224.042 75.17 216.372 82 210.062C82.83 205.762 83.33 201.432 83.5 197.062C91.38 184.852 101.55 175.012 114 167.562C130.53 157.852 148.2 151.352 167 148.062Z" fill="#ECA066"/>
<path fill-rule="evenodd" clip-rule="evenodd" d="M296.001 175.062C285.741 168.162 274.401 164.992 262.001 165.562C251.321 173.752 249.151 183.922 255.501 196.062C263.991 203.512 272.661 203.852 281.501 197.062C284.891 191.062 287.391 184.732 289.001 178.062C291.471 179.562 294.141 180.562 297.001 181.062C297.711 181.962 298.711 182.302 300.001 182.062C300.871 186.372 301.031 190.702 300.501 195.062C298.831 199.062 297.171 203.062 295.501 207.062C289.921 210.942 284.081 214.442 278.001 217.562C259.601 219.872 241.271 219.542 223.001 216.562C212.481 212.722 202.321 208.222 192.501 203.062C189.361 197.522 188.201 191.522 189.001 185.062C190.291 185.302 191.291 184.962 192.001 184.062C194.391 183.192 196.391 181.692 198.001 179.562C198.831 178.872 199.501 179.042 200.001 180.062C198.601 189.032 201.601 196.202 209.001 201.562C225.511 203.702 234.011 196.542 234.501 180.062C232.091 176.742 230.421 173.082 229.501 169.062C217.981 163.342 206.811 164.012 196.001 171.062C194.971 170.662 194.811 170.002 195.501 169.062C202.621 159.582 212.121 154.422 224.001 153.562C241.031 150.762 257.701 152.092 274.001 157.562C283.031 161.442 290.361 167.272 296.001 175.062Z" fill="#F8F7F7"/>
<path fill-rule="evenodd" clip-rule="evenodd" d="M162 156.062C157.37 165.192 154.37 174.862 153 185.062C144.89 187.112 137.22 190.282 130 194.562C123.94 200.332 117.44 205.502 110.5 210.062C104.29 205.522 99.12 200.022 95 193.562C98.51 189.132 102.51 185.132 107 181.562C123.53 169.302 141.86 160.802 162 156.062Z" fill="#FED380"/>
<path fill-rule="evenodd" clip-rule="evenodd" d="M336 161.062C359.59 163.752 379.93 173.252 397 189.562C404.28 197.432 403.28 204.262 394 210.062C379.59 202.982 365.25 195.822 351 188.562C347.98 187.712 344.98 186.882 342 186.062C341.84 188.752 342 191.412 342.5 194.062C345.21 195.002 347.71 196.332 350 198.062C346.22 202.662 342.22 206.992 338 211.062C342.49 194.242 341.82 177.572 336 161.062Z" fill="#FED280"/>
<path fill-rule="evenodd" clip-rule="evenodd" d="M192 184.061C190.67 184.061 189.33 184.061 188 184.061C188.37 178.321 191.04 173.991 196 171.061C206.81 164.011 217.98 163.341 229.5 169.061C230.42 173.081 232.09 176.741 234.5 180.061C234.01 196.541 225.51 203.701 209 201.561C201.6 196.201 198.6 189.031 200 180.061C199.5 179.041 198.83 178.871 198 179.561C196.39 181.691 194.39 183.191 192 184.061Z" fill="#080807"/>
<path fill-rule="evenodd" clip-rule="evenodd" d="M296.001 175.062C296.761 175.952 297.761 176.622 299.001 177.062C299.931 178.252 300.261 179.582 300.001 181.062C299.001 181.062 298.001 181.062 297.001 181.062C294.141 180.562 291.471 179.562 289.001 178.062C287.391 184.732 284.891 191.062 281.501 197.062C272.661 203.852 263.991 203.512 255.501 196.062C249.151 183.922 251.321 173.752 262.001 165.562C274.401 164.992 285.741 168.162 296.001 175.062Z" fill="#0A0A0A"/>
<path fill-rule="evenodd" clip-rule="evenodd" d="M261.999 170.062C264.289 169.802 266.459 170.142 268.499 171.062C269.169 174.392 269.169 177.732 268.499 181.062C260.699 185.262 257.029 182.932 257.499 174.062C259.169 172.832 260.669 171.492 261.999 170.062Z" fill="#F2F2F2"/>
<path fill-rule="evenodd" clip-rule="evenodd" d="M221 171.062C225.42 170.982 227.75 173.152 228 177.562C227.66 182.082 225.33 184.912 221 186.062C217.64 185.202 215.97 183.032 216 179.562C216.03 175.672 217.69 172.832 221 171.062Z" fill="#EEEEEE"/>
<path fill-rule="evenodd" clip-rule="evenodd" d="M151 194.062C151.92 197.622 152.26 201.292 152 205.062C145.2 211.362 138.54 217.862 132 224.562C129.1 224.282 126.43 223.122 124 221.062C129.95 213.612 136.45 206.612 143.5 200.062C144.34 198.212 145.17 196.382 146 194.562C147.63 194.072 149.3 193.902 151 194.062Z" fill="#F7BE76"/>
<path fill-rule="evenodd" clip-rule="evenodd" d="M360 203.062C362.73 204.142 365.56 205.142 368.5 206.062C369.76 206.412 370.09 207.082 369.5 208.062C358.89 219.092 348.39 230.262 338 241.562C333.49 242.562 329.16 244.062 325 246.062C323.98 245.562 323.81 244.892 324.5 244.062C336.34 230.362 348.17 216.702 360 203.062Z" fill="#F7BE75"/>
<path fill-rule="evenodd" clip-rule="evenodd" d="M253.001 204.062C255.131 203.712 256.471 204.542 257.001 206.562C253.231 215.862 247.231 217.532 239.001 211.562C238.121 210.202 237.791 208.702 238.001 207.062C241.671 206.892 245.001 207.892 248.001 210.062C250.141 208.442 251.811 206.442 253.001 204.062Z" fill="#0F0F0F"/>
<path fill-rule="evenodd" clip-rule="evenodd" d="M90.9992 204.062C104.189 214.732 117.849 224.892 131.999 234.562C133.669 234.892 135.329 235.232 136.999 235.562C151.169 242.832 165.499 249.492 179.999 255.562C191.249 258.642 202.579 261.312 213.999 263.562C226.219 264.892 238.379 266.392 250.499 268.062C253.449 266.652 256.619 265.812 259.999 265.562C307.369 264.232 350.699 250.562 389.999 224.562C396.509 219.222 402.509 213.382 407.999 207.062C408.779 208.292 409.279 209.622 409.499 211.062C409.759 218.252 410.259 225.422 410.999 232.562C410.639 234.592 409.809 236.432 408.499 238.062C403.149 242.802 397.989 247.632 392.999 252.562C380.429 259.462 368.089 266.802 355.999 274.562C336.899 280.452 317.559 285.452 297.999 289.562C269.689 291.532 241.359 292.202 212.999 291.562C175.999 285.472 141.999 271.802 110.999 250.562C106.709 246.092 102.039 242.092 96.9992 238.562C95.4992 236.392 93.9992 234.232 92.4992 232.062C91.2192 222.772 90.7192 213.442 90.9992 204.062Z" fill="#FED380"/>
<path fill-rule="evenodd" clip-rule="evenodd" d="M81.9999 223.062C82.2499 228.042 83.7499 232.712 86.4999 237.062C100.94 252.352 117.44 264.852 136 274.562C154.4 283.142 173.4 290.142 193 295.562C207.07 299.462 221.4 300.962 236 300.062C288.46 302.492 337.8 291.662 384 267.562C395.4 260.162 405.57 251.332 414.5 241.062C416.68 235.972 417.51 230.632 417 225.062C418.32 224.892 419.49 225.222 420.5 226.062C424.41 234.382 423.41 242.042 417.5 249.062C402.51 265.052 385.01 277.552 365 286.562C340.69 296.992 315.35 303.992 289 307.562C257.54 311.512 226.21 310.842 195 305.562C184.25 302.872 173.59 299.872 163 296.562C160.31 294.132 157.31 292.132 154 290.562C126.31 282.492 103.14 267.662 84.4999 246.062C78.2599 238.972 77.4199 231.302 81.9999 223.062Z" fill="#FED280"/>
<path fill-rule="evenodd" clip-rule="evenodd" d="M73 247.062C81.74 253.332 89.74 260.502 97 268.562C112.97 280.662 130.31 290.332 149 297.562C180.39 310.512 213.06 317.352 247 318.062C277.99 316.892 308.66 313.062 339 306.562C356.8 298.622 374.47 290.292 392 281.562C404.06 274.002 414.39 264.502 423 253.062C425.44 281.072 425.44 309.072 423 337.062C413.61 351.622 401.94 364.122 388 374.562C379.85 378.132 372.18 382.472 365 387.562C356.06 391.032 347.4 395.032 339 399.562C324.87 401.592 310.87 404.262 297 407.562C275.39 409.842 253.72 410.502 232 409.562C218.08 406.482 204.08 403.812 190 401.562C168.64 395.942 147.64 388.772 127 380.062C115.23 372.452 103.89 364.282 93 355.562C87.56 349.852 82.73 343.682 78.5 337.062C75.56 311.162 74.23 285.162 74.5 259.062C74.11 255.032 73.61 251.032 73 247.062Z" fill="#FED380"/>
</svg>
