<svg width="500" height="500" viewBox="0 0 500 500" fill="none" xmlns="http://www.w3.org/2000/svg">
<path fill-rule="evenodd" clip-rule="evenodd" d="M423.999 424.061C410.329 423.891 396.659 424.061 382.999 424.561C379.139 424.741 375.479 425.241 371.999 426.061C331.999 426.391 291.839 427.061 251.499 428.061C201.989 427.441 152.489 426.281 102.999 424.561C93.9187 424.831 85.2587 423.161 76.9987 419.561C70.3687 414.151 69.1987 407.651 73.4987 400.061C74.7687 397.131 76.4387 394.461 78.4987 392.061C85.6887 374.021 93.6887 356.351 102.499 339.061C106.669 321.551 112.999 304.881 121.499 289.061C123.669 285.561 126.499 282.731 129.999 280.561C139.149 280.051 148.149 279.551 156.999 279.061C166.749 242.411 177.579 206.081 189.499 170.061C196.249 151.211 203.589 132.541 211.499 114.061C216.729 105.361 221.399 96.3609 225.499 87.0609C230.589 81.0909 236.429 75.9209 242.999 71.5609C252.319 70.8609 261.319 72.1909 269.999 75.5609C275.659 80.8909 280.159 87.0509 283.499 94.0609C288.169 106.741 292.829 119.401 297.499 132.061C300.889 145.231 304.889 158.231 309.499 171.061C315.149 185.351 320.819 199.681 326.499 214.061C329.989 226.201 333.659 238.201 337.499 250.061C340.449 261.651 342.949 273.311 344.999 285.061C353.339 284.891 361.669 285.061 369.999 285.561C378.159 287.731 384.659 292.231 389.499 299.061C402.499 330.391 415.499 361.731 428.499 393.061C430.739 402.851 430.399 412.521 427.499 422.061C426.389 422.871 425.219 423.531 423.999 424.061Z" fill="#FC5722"/>
<path fill-rule="evenodd" clip-rule="evenodd" d="M246 83.0609C259.42 80.8509 268.26 86.1909 272.5 99.0609C276.91 111.541 281.58 123.881 286.5 136.061C289.03 147.641 292.36 158.971 296.5 170.061C305.94 192.281 314.27 214.951 321.5 238.061C322.5 251.411 325.83 264.081 331.5 276.061C332.74 283.081 334.07 290.081 335.5 297.061C341.57 313.261 347.23 329.591 352.5 346.061C353.43 351.501 351.27 355.331 346 357.561C330.84 364.281 315.18 369.611 299 373.561C266.91 375.891 234.91 374.891 203 370.561C187.89 368.121 173.89 362.781 161 354.561C158.82 352.541 156.82 350.381 155 348.061C159.26 314.871 167.09 282.541 178.5 251.061C184.66 225.081 192.66 199.741 202.5 175.061C204.83 166.741 207.16 158.401 209.5 150.061C216.56 132.581 224.23 115.251 232.5 98.0609C236.15 92.2409 240.65 87.2409 246 83.0609Z" fill="#FF852F"/>
<path fill-rule="evenodd" clip-rule="evenodd" d="M321 299.061C315.55 296.121 310.22 292.951 305 289.561C299 287.561 293 285.561 287 283.561C274.92 281.521 266.76 286.361 262.5 298.061C257.47 321.031 266.64 331.531 290 329.561C297.32 325.461 302.15 319.291 304.5 311.061C305.41 307.421 306.25 303.751 307 300.061C310.66 302.161 314.5 303.821 318.5 305.061C319.8 304.581 320.97 303.921 322 303.061C325.24 308.731 325.74 314.731 323.5 321.061C314.8 342.181 298.96 353.681 276 355.561C255.59 356.671 235.26 356.011 215 353.561C197.74 349.961 185.57 340.131 178.5 324.061C177.39 315.391 178.22 307.061 181 299.061C191.46 270.571 211.96 256.901 242.5 258.061C270.06 254.581 293.73 262.251 313.5 281.061C317.39 286.501 319.89 292.501 321 299.061Z" fill="#FDFBFA"/>
<path fill-rule="evenodd" clip-rule="evenodd" d="M181 299.061C193.05 284.321 208.39 279.491 227 284.561C230.06 285.621 232.56 287.451 234.5 290.061C236.34 295.741 238.18 301.411 240 307.061C235.43 324.141 224.43 331.311 207 328.561C200.12 324.681 195.96 318.851 194.5 311.061C194.07 307.011 194.07 303.011 194.5 299.061C190.96 303.481 186.46 305.811 181 306.061C181 303.731 181 301.391 181 299.061Z" fill="#060606"/>
<path fill-rule="evenodd" clip-rule="evenodd" d="M321 299.061C321.73 300.271 322.07 301.601 322 303.061C320.97 303.921 319.8 304.581 318.5 305.061C314.5 303.821 310.66 302.161 307 300.061C306.25 303.751 305.41 307.421 304.5 311.061C302.15 319.291 297.32 325.461 290 329.561C266.64 331.531 257.47 321.031 262.5 298.061C266.76 286.361 274.92 281.521 287 283.561C293 285.561 299 287.561 305 289.561C310.22 292.951 315.55 296.121 321 299.061Z" fill="#060606"/>
<path fill-rule="evenodd" clip-rule="evenodd" d="M275 289.061C279.7 288.431 282.36 290.431 283 295.061C282.5 298.061 282 301.061 281.5 304.061C274.05 308.931 269.22 306.931 267 298.061C267.22 296.621 267.72 295.291 268.5 294.061C270.83 292.491 272.99 290.831 275 289.061Z" fill="#F1F1F1"/>
<path fill-rule="evenodd" clip-rule="evenodd" d="M222 290.061C227.47 289.861 230.47 292.531 231 298.061C230.14 303.811 226.97 307.481 221.5 309.061C217.57 307.741 215.4 304.911 215 300.561C216.23 296.251 218.56 292.751 222 290.061Z" fill="#F0F0F0"/>
<path fill-rule="evenodd" clip-rule="evenodd" d="M147 291.061C149 291.061 151 291.061 153 291.061C152.33 296.071 151.5 301.071 150.5 306.061C143.44 320.941 140.77 336.601 142.5 353.061C143.9 356.461 146.07 359.301 149 361.561C164.7 372.401 182.03 379.401 201 382.561C233.89 387.241 266.89 388.241 300 385.561C321.26 380.831 341.59 373.491 361 363.561C364.11 360.921 366.11 357.591 367 353.561C361.42 334.661 355.75 315.821 350 297.061C356.67 296.891 363.34 297.061 370 297.561C374.45 299.671 377.95 302.841 380.5 307.061C393.09 337.241 405.42 367.571 417.5 398.061C418 402.711 418.17 407.381 418 412.061C403.01 412.771 388.01 413.441 373 414.061C337.34 412.871 301.67 412.871 266 414.061C255.95 414.161 245.95 413.661 236 412.561C187.67 412.231 139.33 411.891 91 411.561C88.38 410.741 85.72 410.241 83 410.061C92.9 387.271 103.06 364.601 113.5 342.061C118.33 326.731 124 311.731 130.5 297.061C131.55 295.471 132.71 293.971 134 292.561C138.52 292.381 142.85 291.881 147 291.061Z" fill="#FF852E"/>
<path fill-rule="evenodd" clip-rule="evenodd" d="M261.999 332.061C264.729 331.761 266.399 332.921 266.999 335.561C264.819 343.441 259.819 346.771 251.999 345.561C248.809 343.691 245.649 341.861 242.499 340.061C241.779 337.441 242.779 335.771 245.499 335.061C248.289 335.651 250.789 336.821 252.999 338.561C257.439 338.651 260.439 336.481 261.999 332.061Z" fill="#121212"/>
<path fill-rule="evenodd" clip-rule="evenodd" d="M424 424.061C406.84 425.051 389.5 425.711 372 426.061C375.48 425.241 379.14 424.741 383 424.561C396.66 424.061 410.33 423.891 424 424.061Z" fill="#8D4B36"/>
</svg>
