<svg width="500" height="500" viewBox="0 0 500 500" fill="none" xmlns="http://www.w3.org/2000/svg">
<path fill-rule="evenodd" clip-rule="evenodd" d="M250.999 130.062C251.623 130.479 251.956 131.146 251.999 132.062C249 137.204 249.333 142.038 252.999 146.562C255.558 148.367 258.224 148.534 260.999 147.062C265.618 150.02 269.951 149.686 273.999 146.062C274.847 142.653 276.347 139.653 278.499 137.062C283.52 142.387 288.52 142.387 293.499 137.062C294.555 131.893 293.722 127.06 290.999 122.562C294.109 120.457 296.942 117.957 299.499 115.062C300.982 108.697 298.482 105.031 291.999 104.062C289.555 104.784 287.221 105.784 284.999 107.062C284.915 103.844 286.082 100.844 288.499 98.0616C289.271 91.0006 286.105 87.6666 278.999 88.0616C292.799 72.4376 309.799 61.9376 329.999 56.5616C346.42 54.6386 362.42 56.3056 377.999 61.5616C392.598 67.8606 406.598 75.1936 419.999 83.5616C437.689 101.294 443.522 122.461 437.499 147.062C434.939 158.304 431.606 169.304 427.499 180.062C425.611 185.507 422.944 190.507 419.499 195.062C396.612 219.929 368.446 235.595 334.999 242.062C337.693 246.116 339.86 250.45 341.499 255.062C344.038 264.575 345.704 274.242 346.499 284.062C347.166 302.062 347.166 320.062 346.499 338.062C341.725 365.782 328.558 388.615 306.999 406.562C295.939 414.62 284.606 422.287 272.999 429.562C267.494 432.286 261.827 434.619 255.999 436.562C239.406 439.575 222.74 442.075 205.999 444.062C180.478 441.858 155.478 437.024 130.999 429.562C116.728 421.954 103.561 412.787 91.499 402.062C88.3931 396.752 86.0598 391.085 84.499 385.062C80.5885 365.325 73.9219 346.659 64.499 329.062C60.6387 318.373 59.3054 307.373 60.499 296.062C65.3411 274.874 69.3411 253.541 72.499 232.062C82.8742 204.359 101.041 183.525 126.999 169.562C151.609 160.986 176.942 157.652 202.999 159.562C211.623 160.693 220.289 161.36 228.999 161.562C233.47 162.799 236.803 165.465 238.999 169.562C243.523 170.985 248.023 172.485 252.499 174.062C252.999 173.729 253.499 173.395 253.999 173.062C247.631 159.059 246.631 144.726 250.999 130.062Z" fill="#4158DF"/>
<path fill-rule="evenodd" clip-rule="evenodd" d="M374 87.0612C405.743 85.8392 418.243 100.839 411.5 132.061C406.505 147.908 397.672 161.075 385 171.561C373.247 181.166 359.914 184.499 345 181.561C336.292 179.121 330.459 173.621 327.5 165.061C326.699 157.672 327.033 150.338 328.5 143.061C335.003 127.524 343.003 112.858 352.5 99.0612C358.507 92.8112 365.674 88.8112 374 87.0612Z" fill="#FAFBFC"/>
<path fill-rule="evenodd" clip-rule="evenodd" d="M278.999 88.0617C286.105 87.6667 289.271 91.0007 288.499 98.0617C286.082 100.844 284.915 103.844 284.999 107.062C287.221 105.784 289.555 104.784 291.999 104.062C298.482 105.031 300.982 108.697 299.499 115.062C296.942 117.957 294.109 120.457 290.999 122.562C293.722 127.06 294.555 131.893 293.499 137.062C288.52 142.387 283.52 142.387 278.499 137.062C276.347 139.653 274.847 142.653 273.999 146.062C269.951 149.686 265.618 150.02 260.999 147.062C258.224 148.534 255.558 148.367 252.999 146.562C249.333 142.038 249 137.204 251.999 132.062C251.956 131.146 251.623 130.479 250.999 130.062C252.874 121.931 256.374 114.597 261.499 108.062C266.825 100.906 272.658 94.2387 278.999 88.0617Z" fill="#25337E"/>
<path fill-rule="evenodd" clip-rule="evenodd" d="M384 90.0615C385.333 90.0615 386.667 90.0615 388 90.0615C387.357 94.3345 385.024 97.3345 381 99.0615C386.228 101.453 390.395 105.119 393.5 110.062C396.314 120.765 392.481 128.098 382 132.062C370.936 131.317 364.269 125.65 362 115.062C362.052 111.625 363.219 108.625 365.5 106.062C369.036 102.861 372.203 99.3605 375 95.5615C378.398 94.2045 381.398 92.3715 384 90.0615Z" fill="#070707"/>
<path fill-rule="evenodd" clip-rule="evenodd" d="M367 112.062C375.108 111.959 377.775 115.459 375 122.562C366.774 123.665 364.107 120.165 367 112.062Z" fill="#F5F5F5"/>
<path fill-rule="evenodd" clip-rule="evenodd" d="M389 134.062C393.585 134.478 395.919 137.144 396 142.062C395.833 143.062 395.667 144.062 395.5 145.062C392.856 146.872 390.356 148.872 388 151.062C386.854 150.417 385.854 149.584 385 148.562C386.167 146.062 388 144.229 390.5 143.062C390.355 140.048 389.855 137.048 389 134.062Z" fill="#0F0F0F"/>
<path fill-rule="evenodd" clip-rule="evenodd" d="M352 141.062C355.035 141.974 358.035 141.974 361 141.062C369.658 143.349 374.325 149.016 375 158.062C374.512 166.885 369.846 171.885 361 173.062C356.817 172.662 352.984 171.329 349.5 169.062C349.312 171.038 349.479 173.038 350 175.062C349.623 179.497 347.79 180.164 344.5 177.062C337.936 163.01 340.436 151.01 352 141.062Z" fill="#060606"/>
<path fill-rule="evenodd" clip-rule="evenodd" d="M353 145.062C360.375 145.029 363.375 148.529 362 155.562C355.957 158.039 352.29 156.039 351 149.562C351.019 147.729 351.685 146.229 353 145.062Z" fill="#EFEFEF"/>
<path fill-rule="evenodd" clip-rule="evenodd" d="M179.999 160.062C192.984 158.732 199.65 164.399 199.999 177.062C210.042 180.478 214.542 187.478 213.499 198.062C209.8 202.834 204.966 204.334 198.999 202.562C191.978 201.06 184.978 199.56 177.999 198.062C178.896 202.702 179.063 207.368 178.499 212.062C175.58 217.587 171.08 219.42 164.999 217.562C162.753 216.305 161.42 214.472 160.999 212.062C158.118 212.836 155.451 214.169 152.999 216.062C148.78 221.449 143.78 225.949 137.999 229.562C129.006 230.234 125.173 226.067 126.499 217.062C127.529 214.715 128.196 212.381 128.499 210.062C120.477 209.949 113.81 206.949 108.499 201.062C107.832 198.729 107.832 196.395 108.499 194.062C109.869 190.571 111.369 187.237 112.999 184.062C119.274 181.323 125.941 179.49 132.999 178.562C136.701 177.881 140.368 178.047 143.999 179.062C146.508 177.726 149.175 176.892 151.999 176.562C152.756 175.05 153.756 173.716 154.999 172.562C159.286 169.507 163.453 166.341 167.499 163.062C171.689 161.666 175.856 160.666 179.999 160.062Z" fill="#24327E"/>
<path fill-rule="evenodd" clip-rule="evenodd" d="M209 252.061C223.862 251.244 238.528 252.411 253 255.561C272.164 262.405 288.997 272.905 303.5 287.061C310.063 295.654 313.063 305.32 312.5 316.061C308.842 329.384 303.508 342.051 296.5 354.061C288.94 366.095 278.774 375.262 266 381.561C236.948 397.143 205.948 403.476 173 400.561C133.676 395.397 113.343 372.897 112 333.061C112.05 326.528 113.216 320.194 115.5 314.061C121.742 302.079 129.575 291.245 139 281.561C146.667 275.894 154.333 270.228 162 264.561C177.33 258.647 192.997 254.48 209 252.061Z" fill="#FBFCFD"/>
<path fill-rule="evenodd" clip-rule="evenodd" d="M244 285.062C255.021 285.054 266.021 285.554 277 286.562C285.195 289.737 293.361 292.903 301.5 296.062C302.325 298.263 301.825 300.096 300 301.562C295.333 302.229 290.667 302.229 286 301.562C284.079 301.202 282.412 300.368 281 299.062C280.667 299.562 280.333 300.062 280 300.562C281.876 303.643 282.876 306.976 283 310.562C281.626 341.307 266.292 352.64 237 344.562C228.19 336.434 223.524 326.268 223 314.062C222.89 298.888 229.89 289.222 244 285.062Z" fill="#060606"/>
<path fill-rule="evenodd" clip-rule="evenodd" d="M238 295.061C242.016 294.461 245.516 295.461 248.5 298.061C249.167 303.728 249.167 309.394 248.5 315.061C245.45 318.691 241.617 319.858 237 318.561C234.167 316.394 231.667 313.894 229.5 311.061C228.916 308.304 229.25 305.638 230.5 303.061C233.544 300.852 236.044 298.186 238 295.061Z" fill="#F4F4F4"/>
<path fill-rule="evenodd" clip-rule="evenodd" d="M158.999 305.062C164.675 304.896 170.342 305.063 175.999 305.562C177.745 306.033 179.412 306.7 180.999 307.562C184.808 313.57 189.308 319.07 194.499 324.062C197.376 328.351 198.376 333.018 197.499 338.062C195.635 348.293 190.802 356.793 182.999 363.562C162.773 373.865 147.94 368.699 138.499 348.062C137.629 343.738 136.796 339.404 135.999 335.062C133.026 339.502 129.693 343.669 125.999 347.562C120.004 349.241 117.338 346.907 117.999 340.562C120.658 332.25 125.325 325.25 131.999 319.562C140.002 312.692 149.002 307.859 158.999 305.062Z" fill="#060606"/>
<path fill-rule="evenodd" clip-rule="evenodd" d="M170.001 314.062C182.619 315.623 186.119 322.289 180.501 334.062C173.443 341.433 167.776 340.433 163.501 331.062C162.19 323.912 164.357 318.245 170.001 314.062Z" fill="#F5F5F5"/>
<path fill-rule="evenodd" clip-rule="evenodd" d="M235.001 355.062C238.483 354.63 240.816 355.963 242.001 359.062C240.53 364.652 238.196 369.819 235.001 374.562C226.472 376.894 218.305 376.06 210.501 372.062C209.605 369.537 210.105 367.37 212.001 365.562C217.721 365.476 223.387 365.81 229.001 366.562C230.616 362.497 232.616 358.664 235.001 355.062Z" fill="#0D0D0D"/>
</svg>
