<svg width="500" height="500" viewBox="0 0 500 500" fill="none" xmlns="http://www.w3.org/2000/svg">
<path fill-rule="evenodd" clip-rule="evenodd" d="M372 28.0613C375.68 27.2913 378.18 28.6213 379.5 32.0613C382.46 40.3013 385.8 48.3013 389.5 56.0613C390 63.5613 386.5 67.0613 379 66.5613C376.4 64.2413 375.57 61.4113 376.5 58.0613C378.36 56.2013 380.19 54.3713 382 52.5613C380.3 45.8313 377.63 39.6613 374 34.0613C370.59 34.9113 367.59 36.4113 365 38.5613C366.79 43.9213 368.95 49.0913 371.5 54.0613C371.95 58.9913 369.78 62.4913 365 64.5613C362.73 65.3213 360.56 65.1513 358.5 64.0613C356.68 58.5813 358.18 54.5813 363 52.0613C363.67 45.8813 362.34 40.0513 359 34.5613C359.52 33.6113 360.19 32.7813 361 32.0613C364.87 30.9713 368.54 29.6413 372 28.0613Z" fill="#2D2D2D"/>
<path fill-rule="evenodd" clip-rule="evenodd" d="M347 83.0618C345.04 84.5218 343.2 86.1918 341.5 88.0618C339.37 101.802 341.37 114.802 347.5 127.062C349.96 130.212 353.13 132.212 357 133.062C355.93 135.532 354.6 137.862 353 140.062C346.35 142.162 341.18 140.162 337.5 134.062C329.13 117.172 326.63 99.5018 330 81.0618C331 80.7318 331.67 80.0618 332 79.0618C330.32 69.8818 325.98 61.7118 319 54.5618C294.89 40.2118 271.22 40.8718 248 56.5618C242.29 61.8218 237.96 67.9918 235 75.0618C231.71 79.5218 228.21 83.8518 224.5 88.0618C218.36 103.992 212.52 119.992 207 136.062C201.26 133.992 197.6 129.992 196 124.062C200.11 115.262 203.61 105.922 206.5 96.0618C208.92 90.2018 212.09 84.8718 216 80.0618C217.85 79.4718 219.69 78.8018 221.5 78.0618C234.38 48.6018 257.05 33.9418 289.5 34.0618C302.31 35.5518 314.14 39.7218 325 46.5618C334.2 56.4618 340.7 67.9618 344.5 81.0618C345.21 81.9418 346.04 82.6118 347 83.0618Z" fill="#595958"/>
<path fill-rule="evenodd" clip-rule="evenodd" d="M146 38.0614C148.4 37.9514 150.24 38.9514 151.5 41.0614C152.14 45.6814 154.31 49.3414 158 52.0614C152.69 53.7414 148.69 52.0814 146 47.0614C144.19 52.9814 142.69 58.9814 141.5 65.0614C136.82 70.0814 131.32 71.2514 125 68.5614C120.48 62.1814 121.48 56.8514 128 52.5614C131.39 51.8114 134.73 51.9714 138 53.0614C140.3 47.8214 142.96 42.8214 146 38.0614Z" fill="#2A2A2A"/>
<path fill-rule="evenodd" clip-rule="evenodd" d="M332 79.0615C328.93 75.4815 325.59 71.9815 322 68.5615C291.2 49.9815 262.2 52.1415 235 75.0615C237.96 67.9915 242.29 61.8215 248 56.5615C271.22 40.8715 294.89 40.2115 319 54.5615C325.98 61.7115 330.32 69.8815 332 79.0615Z" fill="#F9F6F6"/>
<path fill-rule="evenodd" clip-rule="evenodd" d="M332 79.0615C331.67 80.0615 331 80.7315 330 81.0615C319.84 71.4615 307.84 64.9615 294 61.5615C267.3 58.5615 245.8 67.7315 229.5 89.0615C222.21 107.522 215.21 126.192 208.5 145.062C207.56 148.672 207.06 152.342 207 156.062C205.21 155.932 203.54 156.262 202 157.062C202.06 153.342 202.56 149.672 203.5 146.062C204.97 142.802 206.13 139.472 207 136.062C212.52 119.992 218.36 103.992 224.5 88.0615C228.21 83.8515 231.71 79.5215 235 75.0615C262.2 52.1415 291.2 49.9815 322 68.5615C325.59 71.9815 328.93 75.4815 332 79.0615Z" fill="#CF472F"/>
<path fill-rule="evenodd" clip-rule="evenodd" d="M161 79.0615C162.67 79.0615 164.33 79.0615 166 79.0615C166.03 84.5115 168.7 87.1815 174 87.0615C172.25 92.9515 169.09 93.6215 164.5 89.0615C163.03 93.7915 161.37 98.4615 159.5 103.062C149.78 108.992 145.44 106.332 146.5 95.0615C147 94.5615 147.5 94.0615 148 93.5615C151.32 93.0615 154.65 92.8915 158 93.0615C158.37 88.2515 159.37 83.5815 161 79.0615Z" fill="#2C2C2C"/>
<path fill-rule="evenodd" clip-rule="evenodd" d="M215.999 80.0617C212.089 84.8717 208.919 90.2017 206.499 96.0617C203.609 105.922 200.109 115.262 195.999 124.062C193.939 122.152 192.439 119.822 191.499 117.062C190.089 104.862 193.259 94.0217 200.999 84.5617C203.399 82.5017 206.069 80.8317 208.999 79.5617C211.429 78.8617 213.759 79.0217 215.999 80.0617Z" fill="#51AF54"/>
<path fill-rule="evenodd" clip-rule="evenodd" d="M347 83.0613C359.78 81.7013 368.28 87.0313 372.5 99.0613C374.42 108.071 374.42 117.071 372.5 126.061C367.82 129.661 362.65 131.991 357 133.061C353.13 132.211 349.96 130.211 347.5 127.061C341.37 114.801 339.37 101.801 341.5 88.0613C343.2 86.1913 345.04 84.5213 347 83.0613Z" fill="#4DAE51"/>
<path fill-rule="evenodd" clip-rule="evenodd" d="M323 129.062C319.57 127.482 316.24 125.652 313 123.562C306.62 122.552 300.29 121.382 294 120.062C286.68 120.862 281.85 124.862 279.5 132.062C277.56 141.122 279.72 148.962 286 155.562C289.9 156.832 293.9 157.332 298 157.062C298.59 159.422 299.59 161.582 301 163.562C299.9 165.382 298.4 166.882 296.5 168.062C295.83 169.732 295.83 171.392 296.5 173.062C300.42 174.932 304.26 176.602 308 178.062C300.67 181.312 293 183.482 285 184.562C271.33 185.232 257.67 185.232 244 184.562C227.08 181.622 218.42 171.452 218 154.062C218.22 150.712 218.56 147.372 219 144.062C220.96 141.602 223.13 139.262 225.5 137.062C225.13 140.352 225.13 143.682 225.5 147.062C230.63 161.042 239.79 164.542 253 157.562C256.74 154.022 259.57 149.852 261.5 145.062C262.08 142.302 261.75 139.642 260.5 137.062C258.3 133.702 256.46 130.202 255 126.562C248.74 123.202 242.08 122.202 235 123.562C231.97 124.842 228.97 126.012 226 127.062C234.59 111.802 247.59 103.462 265 102.062C286.91 99.7817 305.08 106.782 319.5 123.062C320.92 124.962 322.09 126.962 323 129.062Z" fill="#FCFAF9"/>
<path fill-rule="evenodd" clip-rule="evenodd" d="M219 144.061C217.33 144.061 215.67 144.061 214 144.061C213.84 142.031 214 140.031 214.5 138.061C217.57 133.491 221.4 129.821 226 127.061C228.97 126.011 231.97 124.841 235 123.561C242.08 122.201 248.74 123.201 255 126.561C256.46 130.201 258.3 133.701 260.5 137.061C261.75 139.641 262.08 142.301 261.5 145.061C259.57 149.851 256.74 154.021 253 157.561C239.79 164.541 230.63 161.041 225.5 147.061C225.13 143.681 225.13 140.351 225.5 137.061C223.13 139.261 220.96 141.601 219 144.061Z" fill="#080807"/>
<path fill-rule="evenodd" clip-rule="evenodd" d="M182.999 182.061C180.729 186.991 178.059 191.661 174.999 196.061C175.149 195.011 174.979 194.011 174.499 193.061C166.559 184.111 157.719 176.281 147.999 169.561C144.659 167.641 141.159 166.141 137.499 165.061C132.739 166.311 127.909 166.981 122.999 167.061C122.849 166.011 123.019 165.011 123.499 164.061C125.299 163.251 126.799 162.081 127.999 160.561C124.959 157.191 121.289 154.521 116.999 152.561C113.639 150.531 113.309 148.191 115.999 145.561C125.359 143.761 134.029 145.431 141.999 150.561C144.369 152.601 146.369 154.931 147.999 157.561C159.549 165.951 171.209 174.111 182.999 182.061Z" fill="#F25735"/>
<path fill-rule="evenodd" clip-rule="evenodd" d="M186 178.061C185.47 179.791 184.47 181.121 183 182.061C171.21 174.111 159.55 165.951 148 157.561C146.37 154.931 144.37 152.601 142 150.561C134.03 145.431 125.36 143.761 116 145.561C113.31 148.191 113.64 150.531 117 152.561C121.29 154.521 124.96 157.191 128 160.561C126.8 162.081 125.3 163.251 123.5 164.061C123.02 165.011 122.85 166.011 123 167.061C127.91 166.981 132.74 166.311 137.5 165.061C141.16 166.141 144.66 167.641 148 169.561C157.72 176.281 166.56 184.111 174.5 193.061C174.98 194.011 175.15 195.011 175 196.061C174.57 197.271 173.9 198.271 173 199.061C164.08 188.301 153.74 179.141 142 171.561C134.65 171.221 127.32 170.561 120 169.561C118.5 166.191 118.84 163.031 121 160.061C117.7 157.931 114.53 155.591 111.5 153.061C109.03 143.691 112.86 139.691 123 141.061C128.66 140.721 133.99 141.891 139 144.561C151 153.561 163 162.561 175 171.561C178.72 173.751 182.39 175.921 186 178.061Z" fill="#D0472F"/>
<path fill-rule="evenodd" clip-rule="evenodd" d="M356 156.061C360.61 157.501 363.78 160.501 365.5 165.061C368.89 172.411 371.39 180.071 373 188.061C365.7 180.431 357.7 173.761 349 168.061C350.38 164.681 350.05 161.341 348 158.061C350.38 156.511 353.05 155.851 356 156.061Z" fill="#FDBF65"/>
<path fill-rule="evenodd" clip-rule="evenodd" d="M207 156.062C210.94 156.832 213.44 159.172 214.5 163.062C214.96 193.072 214.46 223.072 213 253.062C214.21 290.042 218.37 326.712 225.5 363.062C232.39 378.402 234.72 394.402 232.5 411.062C231.71 413.202 230.21 414.542 228 415.062C225.67 415.062 223.33 415.062 221 415.062C218.61 413.672 216.94 411.672 216 409.062C213.18 400.912 210.68 392.572 208.5 384.062C204.44 363.452 200.78 342.782 197.5 322.062C195.63 287.912 194.13 253.742 193 219.562C194.15 201.742 194.82 183.912 195 166.062C194.76 163.332 195.6 161.002 197.5 159.062C198.61 157.522 200.11 156.862 202 157.062C203.54 156.262 205.21 155.932 207 156.062Z" fill="#4EAE50"/>
<path fill-rule="evenodd" clip-rule="evenodd" d="M348 158.062C350.05 161.342 350.38 164.682 349 168.062C344.59 165.192 340.59 161.862 337 158.062C340.52 156.942 344.18 156.942 348 158.062Z" fill="#59A94E"/>
<path fill-rule="evenodd" clip-rule="evenodd" d="M280.999 160.061C283.449 159.641 284.779 160.641 284.999 163.061C280.949 173.171 274.449 174.831 265.499 168.061C264.819 166.781 264.979 165.611 265.999 164.561C269.309 164.021 272.479 164.521 275.499 166.061C278.179 164.881 280.009 162.881 280.999 160.061Z" fill="#161616"/>
<path fill-rule="evenodd" clip-rule="evenodd" d="M330 81.0615C326.63 99.5015 329.13 117.172 337.5 134.062C341.18 140.162 346.35 142.162 353 140.062C354.74 145.212 355.74 150.552 356 156.062C353.05 155.852 350.38 156.512 348 158.062C344.18 156.942 340.52 156.942 337 158.062C334.24 157.822 332.07 156.482 330.5 154.062C330.32 150.532 329.82 147.202 329 144.062C329.1 140.872 328.43 137.872 327 135.062C327.26 133.582 326.93 132.252 326 131.062C324.76 130.622 323.76 129.952 323 129.062C322.09 126.962 320.92 124.961 319.5 123.061C305.08 106.781 286.91 99.7815 265 102.061C247.59 103.461 234.59 111.802 226 127.062C221.4 129.822 217.57 133.492 214.5 138.062C214 140.032 213.84 142.032 214 144.062C215.67 144.062 217.33 144.062 219 144.062C218.56 147.372 218.22 150.712 218 154.062C218.42 171.451 227.08 181.622 244 184.562C257.67 185.232 271.33 185.232 285 184.562C293 183.482 300.67 181.312 308 178.062C314.1 176.752 320.1 176.752 326 178.062C322.86 193.052 321.2 208.211 321 223.561C323.65 272.731 323.48 321.901 320.5 371.061C319.77 377.971 318.11 384.641 315.5 391.061C314.83 396.391 314.83 401.731 315.5 407.061C317.17 409.561 319 411.891 321 414.061C321.04 424.321 322.54 434.321 325.5 444.061C329.42 448.251 332.59 452.911 335 458.061C334.56 460.771 333.23 462.941 331 464.561C319.91 465.541 308.91 465.041 298 463.061C297.83 457.491 299.66 452.491 303.5 448.061C304.46 445.491 304.96 442.821 305 440.061C304.1 433.591 302.6 427.261 300.5 421.061C299.67 420.061 298.83 419.061 298 418.061C294.22 419.891 290.22 420.891 286 421.061C274.79 420.141 263.79 418.471 253 416.061C252.06 416.171 251.22 416.501 250.5 417.061C249.03 429.031 248.69 441.031 249.5 453.061C252.26 455.901 253.26 459.231 252.5 463.061C242.66 465.101 232.66 466.441 222.5 467.061C212.38 467.641 209.71 463.641 214.5 455.061C217.17 451.731 219.83 448.391 222.5 445.061C224.19 436.811 225.36 428.471 226 420.061C226.22 418.111 226.89 416.441 228 415.061C230.21 414.541 231.71 413.201 232.5 411.061C234.72 394.401 232.39 378.401 225.5 363.061C218.37 326.711 214.21 290.041 213 253.061C214.46 223.071 214.96 193.072 214.5 163.062C213.44 159.172 210.94 156.832 207 156.062C207.06 152.342 207.56 148.672 208.5 145.062C215.21 126.191 222.21 107.521 229.5 89.0615C245.8 67.7315 267.3 58.5615 294 61.5615C307.84 64.9615 319.84 71.4615 330 81.0615Z" fill="#F35836"/>
<path fill-rule="evenodd" clip-rule="evenodd" d="M327 135.062C328.43 137.872 329.1 140.872 329 144.062C329 146.732 329 149.392 329 152.062C324.64 151.052 320.64 149.222 317 146.562C315.37 146.072 313.7 145.902 312 146.062C313.9 141.422 314.9 136.752 315 132.062C318.54 134.682 322.54 135.682 327 135.062Z" fill="#F8F3F2"/>
<path fill-rule="evenodd" clip-rule="evenodd" d="M246 129.062C250.93 128.502 253.6 130.662 254 135.562C253.66 140.082 251.33 142.912 247 144.062C242.32 142.332 240.82 138.992 242.5 134.062C243.5 132.242 244.66 130.572 246 129.062Z" fill="#F1F1F1"/>
<path fill-rule="evenodd" clip-rule="evenodd" d="M323.001 129.062C323.761 129.952 324.761 130.622 326.001 131.062C326.931 132.252 327.261 133.582 327.001 135.062C322.541 135.682 318.541 134.682 315.001 132.062C314.901 136.752 313.901 141.422 312.001 146.062C304.961 146.892 300.301 150.562 298.001 157.062C293.901 157.332 289.901 156.832 286.001 155.562C279.721 148.962 277.561 141.122 279.501 132.062C281.851 124.862 286.681 120.862 294.001 120.062C300.291 121.382 306.621 122.552 313.001 123.562C316.241 125.652 319.571 127.482 323.001 129.062Z" fill="#070707"/>
<path fill-rule="evenodd" clip-rule="evenodd" d="M289 125.061C292.05 124.421 294.21 125.421 295.5 128.061C296.37 139.561 292.37 141.901 283.5 135.061C282.87 132.921 283.2 130.921 284.5 129.061C286.17 127.831 287.67 126.491 289 125.061Z" fill="#EEEEEE"/>
<path fill-rule="evenodd" clip-rule="evenodd" d="M195 166.062C194.82 183.912 194.15 201.742 193 219.562C194.13 253.742 195.63 287.912 197.5 322.062C200.78 342.782 204.44 363.452 208.5 384.062C210.68 392.572 213.18 400.912 216 409.062C210.67 410.232 205.34 410.062 200 408.562C195.53 405.092 191.37 401.262 187.5 397.062C181.29 383.972 175.62 370.632 170.5 357.062C167.98 344.842 166.31 332.512 165.5 320.062C162.48 279.872 165.32 240.212 174 201.062C173.64 200.382 173.3 199.712 173 199.062C173.9 198.272 174.57 197.272 175 196.062C178.06 191.662 180.73 186.992 183 182.062C184.47 181.122 185.47 179.792 186 178.062C188.26 173.472 191.26 169.472 195 166.062Z" fill="#FDC063"/>
<path fill-rule="evenodd" clip-rule="evenodd" d="M326.001 178.062C328.281 178.172 330.281 179.002 332.001 180.562C337.071 185.082 342.071 189.582 347.001 194.062C345.341 206.002 344.171 218.002 343.501 230.062C342.771 270.062 342.101 310.062 341.501 350.062C338.641 370.162 335.471 390.162 332.001 410.062C331.001 411.732 329.671 413.062 328.001 414.062C325.671 414.062 323.331 414.062 321.001 414.062C319.001 411.892 317.171 409.562 315.501 407.062C314.831 401.732 314.831 396.392 315.501 391.062C318.111 384.642 319.771 377.972 320.501 371.062C323.481 321.902 323.651 272.732 321.001 223.562C321.201 208.212 322.861 193.052 326.001 178.062Z" fill="#50AE4F"/>
<path fill-rule="evenodd" clip-rule="evenodd" d="M329.001 144.062C329.821 147.202 330.321 150.532 330.501 154.062C332.071 156.482 334.241 157.822 337.001 158.062C340.591 161.862 344.591 165.192 349.001 168.062C357.701 173.762 365.701 180.432 373.001 188.062C374.931 190.502 377.101 192.832 379.501 195.062C380.191 198.592 379.691 201.922 378.001 205.062C374.141 207.882 369.811 208.722 365.001 207.562C358.791 203.292 352.791 198.792 347.001 194.062C342.071 189.582 337.071 185.082 332.001 180.562C330.281 179.002 328.281 178.172 326.001 178.062C320.101 176.752 314.101 176.752 308.001 178.062C304.261 176.602 300.421 174.932 296.501 173.062C295.831 171.392 295.831 169.732 296.501 168.062C298.401 166.882 299.901 165.382 301.001 163.562C299.591 161.582 298.591 159.422 298.001 157.062C300.301 150.562 304.961 146.892 312.001 146.062C313.701 145.902 315.371 146.072 317.001 146.562C320.641 149.222 324.641 151.052 329.001 152.062C329.001 149.392 329.001 146.732 329.001 144.062Z" fill="#D0472E"/>
<path fill-rule="evenodd" clip-rule="evenodd" d="M308 151.061C311.77 150.821 315.44 151.321 319 152.561C326.28 157.511 333.28 162.841 340 168.561C352.67 175.971 363.83 185.131 373.5 196.061C376.06 200.611 374.73 202.941 369.5 203.061C367.53 203.021 365.7 202.521 364 201.561C353.26 194.181 343.26 185.851 334 176.561C331.33 175.231 328.67 173.891 326 172.561C317.67 172.061 309.34 171.891 301 172.061C300.83 170.741 301.16 169.571 302 168.561C306.14 168.761 307.64 166.931 306.5 163.061C305.33 161.391 304.17 159.731 303 158.061C304.43 155.521 306.1 153.191 308 151.061Z" fill="#F25734"/>
<path fill-rule="evenodd" clip-rule="evenodd" d="M347 194.062C352.79 198.792 358.79 203.292 365 207.562C369.81 208.722 374.14 207.882 378 205.062C379.34 213.832 380.01 222.672 380 231.562C378.44 267.372 377.27 303.202 376.5 339.062C374.94 352.212 372.6 365.212 369.5 378.062C362.95 392.442 352.45 402.942 338 409.562C336.03 410.062 334.03 410.222 332 410.062C335.47 390.162 338.64 370.162 341.5 350.062C342.1 310.062 342.77 270.062 343.5 230.062C344.17 218.002 345.34 206.002 347 194.062Z" fill="#FEC063"/>
<path fill-rule="evenodd" clip-rule="evenodd" d="M244 229.062C249.83 228.722 252.33 231.382 251.5 237.062C246.34 241.212 243.34 246.542 242.5 253.062C241.83 257.062 241.83 261.062 242.5 265.062C246.99 268.642 251.66 271.972 256.5 275.062C262.34 284.272 262.34 293.602 256.5 303.062C252.83 306.732 249.17 310.392 245.5 314.062C243.57 318.702 243.57 323.372 245.5 328.062C264.54 341.472 266.04 356.632 250 373.562C243.36 376.932 240.19 375.102 240.5 368.062C245.38 364.512 248.72 359.842 250.5 354.062C251.17 352.062 251.17 350.062 250.5 348.062C246.14 342.712 241.48 337.712 236.5 333.062C232.3 325.552 231.97 317.892 235.5 310.062C239.47 305.092 243.8 300.432 248.5 296.062C251.89 291.002 251.72 286.162 248 281.562C236.87 278.132 231.54 270.632 232 259.062C231.16 247.032 235.16 237.032 244 229.062Z" fill="#FE0703"/>
<path fill-rule="evenodd" clip-rule="evenodd" d="M279.001 238.061C283.341 237.081 285.671 238.751 286.001 243.061C284.431 247.151 282.601 251.151 280.501 255.061C279.831 257.731 279.831 260.391 280.501 263.061C295.411 273.251 299.411 286.921 292.501 304.061C285.331 311.551 284.001 319.881 288.501 329.061C292.221 333.111 295.551 337.441 298.501 342.061C300.031 346.271 300.371 350.601 299.501 355.061C297.721 360.631 295.381 365.961 292.501 371.061C289.461 374.001 285.961 374.661 282.001 373.061C281.481 371.951 281.141 370.791 281.001 369.561C283.471 366.391 285.641 362.891 287.501 359.061C289.411 355.251 290.081 351.251 289.501 347.061C285.831 342.061 282.171 337.061 278.501 332.061C276.761 328.691 275.591 325.191 275.001 321.561C275.531 315.921 276.691 310.421 278.501 305.061C281.271 302.961 283.271 300.291 284.501 297.061C285.171 291.731 285.171 286.391 284.501 281.061C267.261 268.601 265.421 254.271 279.001 238.061Z" fill="#FEE73A"/>
<path fill-rule="evenodd" clip-rule="evenodd" d="M321 414.062C323.33 414.062 325.67 414.062 328 414.062C325.57 427.682 328.74 439.682 337.5 450.062C342.94 463.642 338.27 470.642 323.5 471.062C314.68 470.362 305.85 469.862 297 469.562C291.56 467.452 289.72 463.622 291.5 458.062C295.11 452.172 297.61 445.832 299 439.062C298 434.392 297 429.722 296 425.062C282.37 425.142 268.71 424.142 255 422.062C253.94 431.702 253.77 441.372 254.5 451.062C259.31 457.392 259.15 463.562 254 469.562C242.39 471.282 230.73 472.282 219 472.562C207.79 470.702 204.29 464.532 208.5 454.062C210.78 450.112 213.45 446.452 216.5 443.062C219.46 433.982 220.96 424.642 221 415.062C223.33 415.062 225.67 415.062 228 415.062C226.89 416.442 226.22 418.112 226 420.062C225.36 428.472 224.19 436.812 222.5 445.062C219.83 448.392 217.17 451.732 214.5 455.062C209.71 463.642 212.38 467.642 222.5 467.062C232.66 466.442 242.66 465.102 252.5 463.062C253.26 459.232 252.26 455.902 249.5 453.062C248.69 441.032 249.03 429.032 250.5 417.062C251.22 416.502 252.06 416.172 253 416.062C263.79 418.472 274.79 420.142 286 421.062C290.22 420.892 294.22 419.892 298 418.062C298.83 419.062 299.67 420.062 300.5 421.062C302.6 427.262 304.1 433.592 305 440.062C304.96 442.822 304.46 445.492 303.5 448.062C299.66 452.492 297.83 457.492 298 463.062C308.91 465.042 319.91 465.542 331 464.562C333.23 462.942 334.56 460.772 335 458.062C332.59 452.912 329.42 448.252 325.5 444.062C322.54 434.322 321.04 424.322 321 414.062Z" fill="#D14931"/>
</svg>
