<svg width="500" height="500" viewBox="0 0 500 500" fill="none" xmlns="http://www.w3.org/2000/svg">
<path fill-rule="evenodd" clip-rule="evenodd" d="M445 350.062C443.71 349.022 443.71 347.852 445 346.562C441.94 346.102 438.94 346.442 436 347.562C429.97 350.592 424.8 354.762 420.5 360.062C419.83 362.732 419.83 365.392 420.5 368.062C422.61 371.292 424.45 374.622 426 378.062C427.26 401.102 419.93 420.942 404 437.562C399.01 439.722 394.34 442.392 390 445.562C373.47 446.452 357.14 445.122 341 441.562C331.48 437.312 322.48 432.312 314 426.562C308.7 422.262 303.7 417.592 299 412.562C293.81 408.532 288.47 404.702 283 401.062C281.72 409.712 280.56 418.372 279.5 427.062C278.83 428.392 278.17 429.732 277.5 431.062C257.08 451.362 232.58 460.532 204 458.562C185.23 451.842 167.9 442.512 152 430.562C138.14 416.152 125.47 400.812 114 384.562C107 384.232 100 383.892 93 383.562C90.58 381.992 89.24 379.822 89 377.062C90.23 376.412 90.89 375.242 91 373.562C90.83 372.392 90.67 371.232 90.5 370.062C82.44 354.992 72.44 341.332 60.5 329.062C59.2 329.202 58.37 329.872 58 331.062C57 331.062 56 331.062 55 331.062C54.62 326.262 55.12 321.602 56.5 317.062C67.9 301.002 82.4 288.502 100 279.562C114.37 268.032 128.37 256.032 142 243.562C146.99 239.752 152.65 238.092 159 238.562C167.54 226.342 177.21 215.012 188 204.562C189.67 203.732 191.33 202.892 193 202.062C197.84 175.722 204.01 149.722 211.5 124.062C215.31 105.822 218.64 87.4916 221.5 69.0616C224.85 58.8616 230.35 50.0316 238 42.5616C243.47 41.2716 247.97 42.7716 251.5 47.0616C255.28 52.2816 258.28 57.9516 260.5 64.0616C276.98 105.502 290.65 147.832 301.5 191.062C307.17 198.062 313.5 204.392 320.5 210.062C325.05 218.602 330.38 226.602 336.5 234.062C340.67 241.732 344.83 249.392 349 257.062C364.83 261.482 379.5 268.312 393 277.562C414.01 292.562 433.17 309.732 450.5 329.062C456.34 338.022 454.5 345.022 445 350.062Z" fill="#0372F8"/>
<path fill-rule="evenodd" clip-rule="evenodd" d="M320.001 247.062C306.441 240.632 292.101 237.802 277.001 238.562C266.071 246.672 262.241 257.512 265.501 271.062C268.971 283.992 277.471 289.662 291.001 288.062C289.821 300.052 295.161 304.882 307.001 302.562C318.361 298.672 323.191 290.842 321.501 279.062C319.011 274.312 315.181 271.642 310.001 271.062C310.921 267.222 311.921 263.392 313.001 259.562C312.051 257.332 312.051 255.162 313.001 253.062C316.561 255.842 320.561 257.512 325.001 258.062C328.941 274.092 327.111 289.432 319.501 304.062C314.831 310.062 309.001 314.562 302.001 317.562C280.021 321.502 258.021 325.332 236.001 329.062C216.841 327.702 199.841 321.032 185.001 309.062C180.921 303.902 177.091 298.572 173.501 293.062C172.831 288.392 172.831 283.732 173.501 279.062C175.181 273.982 176.681 268.982 178.001 264.062C178.001 266.732 178.001 269.392 178.001 272.062C180.031 272.222 182.031 272.062 184.001 271.562C186.831 268.732 189.671 265.892 192.501 263.062C192.551 268.952 193.381 274.612 195.001 280.062C181.981 282.432 178.141 289.772 183.501 302.062C191.521 312.342 201.021 313.842 212.001 306.562C216.901 303.602 218.571 299.432 217.001 294.062C232.941 290.952 241.111 281.292 241.501 265.062C240.331 261.222 238.331 257.892 235.501 255.062C234.831 249.382 231.661 245.882 226.001 244.562C209.411 240.922 195.081 245.092 183.001 257.062C187.421 247.052 194.091 238.892 203.001 232.562C233.471 214.032 265.471 211.032 299.001 223.562C307.511 230.122 314.511 237.952 320.001 247.062Z" fill="#F9FAFB"/>
<path fill-rule="evenodd" clip-rule="evenodd" d="M320 247.062C322.66 248.812 325.49 250.482 328.5 252.062C329.61 255.522 328.44 257.522 325 258.062C320.56 257.512 316.56 255.842 313 253.062C312.05 255.162 312.05 257.332 313 259.562C311.92 263.392 310.92 267.222 310 271.062C307.12 280.612 300.79 286.272 291 288.062C277.47 289.662 268.97 283.992 265.5 271.062C262.24 257.512 266.07 246.672 277 238.562C292.1 237.802 306.44 240.632 320 247.062Z" fill="#060607"/>
<path fill-rule="evenodd" clip-rule="evenodd" d="M217 294.062C213.19 294.402 209.53 293.902 206 292.562C201.01 289.412 197.34 285.252 195 280.062C193.38 274.612 192.55 268.952 192.5 263.062C189.67 265.892 186.83 268.732 184 271.562C182.03 272.062 180.03 272.222 178 272.062C178 269.392 178 266.732 178 264.062C179.43 261.512 181.1 259.182 183 257.062C195.08 245.092 209.41 240.922 226 244.562C231.66 245.882 234.83 249.382 235.5 255.062C238.33 257.892 240.33 261.222 241.5 265.062C241.11 281.292 232.94 290.952 217 294.062Z" fill="#060606"/>
<path fill-rule="evenodd" clip-rule="evenodd" d="M278.001 245.061C282.991 243.911 285.991 245.741 287.001 250.561C286.501 254.061 286.001 257.561 285.501 261.061C282.321 263.081 278.821 263.581 275.001 262.561C273.881 260.441 272.381 258.601 270.501 257.061C269.951 254.141 270.621 251.471 272.501 249.061C274.961 248.531 276.801 247.191 278.001 245.061Z" fill="#F7F7F7"/>
<path fill-rule="evenodd" clip-rule="evenodd" d="M221 251.062C227.22 250.452 230.56 253.282 231 259.562C231.06 266.002 228.06 269.832 222 271.062C217.35 270.232 215.01 267.402 215 262.562C215.07 257.582 217.07 253.752 221 251.062Z" fill="#F4F4F4"/>
<path fill-rule="evenodd" clip-rule="evenodd" d="M310 271.062C315.18 271.642 319.01 274.312 321.5 279.062C323.19 290.842 318.36 298.672 307 302.562C295.16 304.882 289.82 300.052 291 288.062C300.79 286.272 307.12 280.612 310 271.062Z" fill="#FBD5D6"/>
<path fill-rule="evenodd" clip-rule="evenodd" d="M195 280.062C197.34 285.252 201.01 289.412 206 292.562C209.53 293.902 213.19 294.402 217 294.062C218.57 299.432 216.9 303.602 212 306.562C201.02 313.842 191.52 312.342 183.5 302.062C178.14 289.772 181.98 282.432 195 280.062Z" fill="#FCD6D7"/>
<path fill-rule="evenodd" clip-rule="evenodd" d="M269 292.062C271.63 291.852 273.29 293.022 274 295.562C272.13 300.092 269.47 304.092 266 307.562C263.33 308.232 260.67 308.232 258 307.562C254.43 306.062 250.93 304.562 247.5 303.062C246.43 299.462 247.76 297.462 251.5 297.062C255.19 298.852 259.03 300.022 263 300.562C264.9 297.572 266.9 294.742 269 292.062Z" fill="#121212"/>
<path fill-rule="evenodd" clip-rule="evenodd" d="M89.0005 377.062C79.6805 380.672 70.0105 381.832 60.0005 380.562C53.6605 378.892 49.1605 375.052 46.5005 369.062C45.8305 363.062 45.8305 357.062 46.5005 351.062C49.7605 343.992 53.5905 337.322 58.0005 331.062C58.3705 329.872 59.2005 329.202 60.5005 329.062C72.4405 341.332 82.4405 354.992 90.5005 370.062C90.6705 371.232 90.8305 372.392 91.0005 373.562C90.8905 375.242 90.2305 376.412 89.0005 377.062Z" fill="#D0B285"/>
<path fill-rule="evenodd" clip-rule="evenodd" d="M445.001 350.062C443.551 362.642 437.711 372.642 427.501 380.062C427.221 379.142 426.721 378.482 426.001 378.062C424.451 374.622 422.611 371.292 420.501 368.062C419.831 365.392 419.831 362.732 420.501 360.062C424.801 354.762 429.971 350.592 436.001 347.562C438.941 346.442 441.941 346.102 445.001 346.562C443.711 347.852 443.711 349.022 445.001 350.062Z" fill="#BA988B"/>
<path fill-rule="evenodd" clip-rule="evenodd" d="M366.001 429.062C360.631 429.172 355.301 428.832 350.001 428.062C346.941 427.762 344.441 426.432 342.501 424.062C341.001 420.402 339.001 417.062 336.501 414.062C335.401 408.332 336.401 403.002 339.501 398.062C349.221 384.132 362.561 376.462 379.501 375.062C391.791 374.372 400.121 379.702 404.501 391.062C403.521 406.382 396.361 417.882 383.001 425.562C377.081 425.682 371.421 426.842 366.001 429.062Z" fill="#D0B184"/>
<path fill-rule="evenodd" clip-rule="evenodd" d="M216 376.062C223.84 375.532 231.5 376.362 239 378.562C243.78 382.272 246.95 387.112 248.5 393.062C249.89 403.462 248.56 413.462 244.5 423.062C240.61 426.952 236.78 430.782 233 434.562C222.02 438.692 210.69 440.362 199 439.562C194.33 435.902 190.83 431.402 188.5 426.062C182.54 400.902 191.71 384.232 216 376.062Z" fill="#D0B285"/>
<path fill-rule="evenodd" clip-rule="evenodd" d="M350 428.062C355.3 428.832 360.63 429.172 366 429.062C364.03 429.722 361.86 430.062 359.5 430.062C356.02 430.232 352.86 429.572 350 428.062Z" fill="#5988BB"/>
</svg>
