<svg width="500" height="500" viewBox="0 0 500 500" fill="none" xmlns="http://www.w3.org/2000/svg">
<path fill-rule="evenodd" clip-rule="evenodd" d="M349.001 271.062C347.721 272.462 346.061 273.122 344.001 273.062C311.421 262.382 277.921 256.042 243.501 254.062C216.401 255.682 189.901 260.512 164.001 268.562C156.631 271.582 149.631 275.082 143.001 279.062C142.041 278.612 141.211 277.942 140.501 277.062C139.831 274.062 139.831 271.062 140.501 268.062C154.921 230.892 171.251 194.552 189.501 159.062C189.881 154.912 190.881 150.912 192.501 147.062C198.211 136.602 203.541 125.942 208.501 115.062C218.051 93.9615 227.051 72.6215 235.501 51.0615C238.321 43.9015 243.321 39.2315 250.501 37.0615C254.591 38.1215 257.921 40.4515 260.501 44.0615C270.191 58.1215 277.191 73.4515 281.501 90.0615C286.971 103.482 292.641 116.812 298.501 130.062C304.641 150.012 311.641 169.682 319.501 189.062C323.591 195.312 326.921 201.972 329.501 209.062C336.751 228.802 343.581 248.642 350.001 268.562C349.761 269.462 349.421 270.302 349.001 271.062Z" fill="#070707"/>
<path fill-rule="evenodd" clip-rule="evenodd" d="M248 46.0615C250.8 47.2715 252.96 49.2715 254.5 52.0615C263.34 65.5615 269.67 80.2315 273.5 96.0615C278.64 108.482 283.97 120.812 289.5 133.062C295.69 156.422 304.35 178.752 315.5 200.062C322.61 220.072 330.11 239.902 338 259.562C337.67 260.062 337.33 260.562 337 261.062C297.28 248.212 256.62 243.382 215 246.562C202.33 249.232 189.66 251.892 177 254.562C169.01 256.502 161.35 259.332 154 263.062C153.67 262.732 153.33 262.392 153 262.062C166.81 228.102 181.98 194.772 198.5 162.062C198.85 158.982 199.51 155.982 200.5 153.062C217.45 117.832 233.28 82.1715 248 46.0615Z" fill="#FBFBFB"/>
<path fill-rule="evenodd" clip-rule="evenodd" d="M221 211.062C223.22 210.742 225.06 211.402 226.5 213.062C227.91 220.892 226.41 228.062 222 234.562C215.18 239.022 210.34 237.522 207.5 230.062C205.53 224.872 204.87 219.532 205.5 214.062C207.77 212.632 209.77 212.962 211.5 215.062C212.38 218.352 213.05 221.682 213.5 225.062C214.05 229.182 215.72 229.842 218.5 227.062C218.83 222.392 219.17 217.732 219.5 213.062C220.22 212.522 220.72 211.852 221 211.062Z" fill="#101010"/>
<path fill-rule="evenodd" clip-rule="evenodd" d="M258 210.062C260.85 209.912 262.52 211.252 263 214.062C262.62 219.912 261.45 225.582 259.5 231.062C257.59 234.572 254.76 235.742 251 234.562C247.48 231.002 244.31 227.172 241.5 223.062C241.05 225.712 240.21 228.212 239 230.562C237.06 231.302 235.23 231.142 233.5 230.062C232.69 223.812 232.86 217.642 234 211.562C235.67 210.892 237.33 210.892 239 211.562C244.9 215.172 249.56 220.002 253 226.062C254.62 221.932 255.45 217.592 255.5 213.062C256.54 212.192 257.38 211.192 258 210.062Z" fill="#0C0C0C"/>
<path fill-rule="evenodd" clip-rule="evenodd" d="M186 211.062C197.07 210.972 201.91 216.302 200.5 227.062C197.72 234.782 192.55 240.282 185 243.562C182.67 244.232 180.33 244.232 178 243.562C177.44 242.842 177.11 242.002 177 241.062C177.77 233.422 178.27 225.762 178.5 218.062C181.01 215.692 183.51 213.362 186 211.062Z" fill="#0B0B0B"/>
<path fill-rule="evenodd" clip-rule="evenodd" d="M278.001 213.061C285.551 211.881 289.721 214.881 290.501 222.061C289.371 223.771 287.871 224.271 286.001 223.561C284.281 220.181 281.951 219.521 279.001 221.561C277.051 223.001 275.721 224.831 275.001 227.061C275.321 228.211 275.981 229.041 277.001 229.561C280.671 229.891 284.331 230.231 288.001 230.561C289.431 232.831 289.101 234.831 287.001 236.561C279.941 238.311 273.771 236.811 268.501 232.061C267.831 228.731 267.831 225.391 268.501 222.061C271.181 218.481 274.351 215.481 278.001 213.061Z" fill="#0D0D0D"/>
<path fill-rule="evenodd" clip-rule="evenodd" d="M305 216.062C308.99 216.562 312.99 217.062 317 217.562C320.33 222.602 318.83 225.102 312.5 225.062C310.94 224.962 309.44 224.622 308 224.062C307 224.392 306.33 225.062 306 226.062C309.28 226.882 312.62 227.382 316 227.562C318.67 229.892 318.67 232.232 316 234.562C311.68 235.062 307.35 235.232 303 235.062C303 236.732 303 238.392 303 240.062C307.38 240.142 311.71 240.642 316 241.562C317.33 243.562 317.33 245.562 316 247.562C297.87 250.442 291.7 243.272 297.5 226.062C298.78 223.842 299.78 221.512 300.5 219.062C301.91 217.782 303.41 216.782 305 216.062Z" fill="#121212"/>
<path fill-rule="evenodd" clip-rule="evenodd" d="M188 219.062C191.07 218.482 193.07 219.652 194 222.562C192.63 227.152 190.13 230.982 186.5 234.062C185.68 228.892 186.18 223.892 188 219.062Z" fill="#EBEBEB"/>
<path fill-rule="evenodd" clip-rule="evenodd" d="M349 271.062C358.5 284.412 365.67 299.072 370.5 315.062C372.48 327.412 372.31 339.752 370 352.062C372.21 369.692 372.54 387.352 371 405.062C373.92 406.652 376.92 408.152 380 409.562C382.76 412.552 383.6 416.052 382.5 420.062C381.32 421.922 379.65 422.922 377.5 423.062C374.2 422.432 371.37 420.932 369 418.562C363.35 418.762 357.68 418.762 352 418.562C348.4 417.232 347.23 414.732 348.5 411.062C351.09 409.352 353.59 407.522 356 405.562C357.29 405.072 358.63 404.902 360 405.062C360.08 394.532 358.75 384.202 356 374.062C346.77 383.792 336.77 392.632 326 400.562C323.02 401.832 320.02 403.002 317 404.062C315.71 389.602 314.05 375.262 312 361.062C318.98 356.172 323.81 349.502 326.5 341.062C328.03 337.472 329.36 333.802 330.5 330.062C330.5 325.992 330.67 321.992 331 318.062C336.14 323.042 342.31 325.712 349.5 326.062C353.76 326.142 355.42 324.142 354.5 320.062C346 314.232 337.5 308.392 329 302.562C319.93 300.202 310.93 297.532 302 294.562C296.02 293.562 290.02 293.232 284 293.562C274.31 298.252 267.81 305.752 264.5 316.062C261.75 328.732 262.75 341.062 267.5 353.062C276.2 361.652 286.7 365.652 299 365.062C305.63 365.242 305.63 365.742 299 366.562C298.38 368.132 298.04 369.802 298 371.562C299.29 384.762 300.29 397.932 301 411.062C298.55 412.032 295.89 412.372 293 412.062C292.91 418.072 292.57 424.072 292 430.062C292.01 434.832 292.68 439.492 294 444.062C298.02 442.842 302.02 443.012 306 444.562C308.67 446.232 311.33 447.892 314 449.562C319.33 453.562 319.33 457.562 314 461.562C305.03 462.892 296.03 463.222 287 462.562C286.5 462.062 286 461.562 285.5 461.062C279.99 446.632 277.49 431.632 278 416.062C260.61 419.702 243.28 419.702 226 416.062C226.03 425.982 225.86 435.982 225.5 446.062C224.97 450.942 223.47 455.442 221 459.562C210.89 462.742 200.89 462.742 191 459.562C186.23 456.542 185.9 453.212 190 449.562C197.49 447.432 205.16 446.592 213 447.062C211.53 435.792 210.86 424.462 211 413.062C202.35 410.902 194.02 407.902 186 404.062C184 391.102 183.67 378.102 185 365.062C182.95 365.402 181.95 365.072 182 364.062C197.27 366.802 210.11 362.472 220.5 351.062C223.25 345.892 226.25 340.892 229.5 336.062C231.06 326.612 228.72 318.282 222.5 311.062C222.81 306.462 221.31 302.632 218 299.562C205.46 292.652 192.13 290.652 178 293.562C162.53 297.362 150.03 305.532 140.5 318.062C137.25 328.132 140.42 331.292 150 327.562C153.81 324.582 157.48 321.412 161 318.062C161.33 318.562 161.67 319.062 162 319.562C160.33 324.622 159.83 329.792 160.5 335.062C162.54 339.532 164.2 344.202 165.5 349.062C167.83 352.232 170.33 355.232 173 358.062C171.68 357.892 170.51 358.222 169.5 359.062C169 370.722 168.83 382.392 169 394.062C159.25 385.652 150.59 376.322 143 366.062C142.22 367.292 141.72 368.622 141.5 370.062C140.67 380.082 140.83 390.082 142 400.062C149.09 403.272 152.59 408.602 152.5 416.062C151.32 417.922 149.65 418.922 147.5 419.062C143.51 418.152 140.01 416.312 137 413.562C134 412.892 131 412.892 128 413.562C124.65 417.912 121.15 418.082 117.5 414.062C116.58 407.572 119.08 402.912 125 400.062C123.68 378.482 125.51 357.142 130.5 336.062C128.86 315.732 133.03 296.732 143 279.062C149.63 275.082 156.63 271.582 164 268.562C189.9 260.512 216.4 255.682 243.5 254.062C277.92 256.042 311.42 262.382 344 273.062C346.06 273.122 347.72 272.462 349 271.062Z" fill="#FCFCFC"/>
<path fill-rule="evenodd" clip-rule="evenodd" d="M182 364.062C179.55 361.282 176.55 359.282 173 358.062C170.33 355.232 167.83 352.232 165.5 349.062C164.2 344.202 162.54 339.532 160.5 335.062C159.83 329.792 160.33 324.622 162 319.562C161.67 319.062 161.33 318.562 161 318.062C157.48 321.412 153.81 324.582 150 327.562C140.42 331.292 137.25 328.132 140.5 318.062C150.03 305.532 162.53 297.362 178 293.562C192.13 290.652 205.46 292.652 218 299.562C221.31 302.632 222.81 306.462 222.5 311.062C228.72 318.282 231.06 326.612 229.5 336.062C226.25 340.892 223.25 345.892 220.5 351.062C210.11 362.472 197.27 366.802 182 364.062Z" fill="#050505"/>
<path fill-rule="evenodd" clip-rule="evenodd" d="M312 361.062C307.66 362.752 303.33 364.082 299 365.062C286.7 365.652 276.2 361.652 267.5 353.062C262.75 341.062 261.75 328.732 264.5 316.062C267.81 305.752 274.31 298.252 284 293.562C290.02 293.232 296.02 293.562 302 294.562C310.93 297.532 319.93 300.202 329 302.562C337.5 308.392 346 314.232 354.5 320.062C355.42 324.142 353.76 326.142 349.5 326.062C342.31 325.712 336.14 323.042 331 318.062C330.67 321.992 330.5 325.992 330.5 330.062C329.36 333.802 328.03 337.472 326.5 341.062C323.81 349.502 318.98 356.172 312 361.062Z" fill="#040404"/>
<path fill-rule="evenodd" clip-rule="evenodd" d="M283 303.062C287.95 302.192 292.11 303.522 295.5 307.062C296.09 313.212 295.43 319.212 293.5 325.062C288.61 329.342 283.11 330.172 277 327.562C275.93 324.822 274.43 322.322 272.5 320.062C271.71 316.932 272.04 313.932 273.5 311.062C276.27 307.782 279.44 305.122 283 303.062Z" fill="#F6F6F6"/>
<path fill-rule="evenodd" clip-rule="evenodd" d="M202.001 305.062C213.981 304.562 218.481 310.222 215.501 322.062C213.161 328.062 208.831 331.732 202.501 333.062C198.351 332.252 195.351 329.912 193.501 326.062C191.851 317.222 194.681 310.222 202.001 305.062Z" fill="#F7F7F7"/>
<path fill-rule="evenodd" clip-rule="evenodd" d="M172.999 358.061C176.549 359.281 179.549 361.281 181.999 364.061C181.949 365.071 182.949 365.401 184.999 365.061C183.669 378.101 183.999 391.101 185.999 404.061C183.579 403.531 181.239 402.701 178.999 401.561C175.769 398.811 172.429 396.311 168.999 394.061C168.829 382.391 168.999 370.721 169.499 359.061C170.509 358.221 171.679 357.891 172.999 358.061Z" fill="#DAEBFD"/>
<path fill-rule="evenodd" clip-rule="evenodd" d="M312 361.062C314.05 375.262 315.71 389.602 317 404.062C313.24 406.492 309.24 408.662 305 410.562C303.71 411.052 302.37 411.222 301 411.062C300.29 397.932 299.29 384.762 298 371.562C298.04 369.802 298.38 368.132 299 366.562C305.63 365.742 305.63 365.242 299 365.062C303.33 364.082 307.66 362.752 312 361.062Z" fill="#DAEBFD"/>
<path fill-rule="evenodd" clip-rule="evenodd" d="M265 368.062C269.82 368.052 271.99 370.382 271.5 375.062C268.38 380.812 264.21 385.652 259 389.562C255.24 390.302 251.57 389.962 248 388.562C243.51 385.902 239.01 383.402 234.5 381.062C232.83 375.072 235 372.572 241 373.562C245.01 375.792 249.18 377.622 253.5 379.062C254.33 378.892 255.17 378.732 256 378.562C258.9 374.902 261.9 371.402 265 368.062Z" fill="#0E0E0E"/>
</svg>
