<svg width="500" height="500" viewBox="0 0 500 500" fill="none" xmlns="http://www.w3.org/2000/svg">
<path fill-rule="evenodd" clip-rule="evenodd" d="M254.001 247.062C254.001 249.392 254.001 251.732 254.001 254.062C254.391 280.802 255.891 307.472 258.501 334.062C258.721 355.402 259.221 376.742 260.001 398.062C259.441 403.722 258.941 409.392 258.501 415.062C257.171 417.222 255.671 419.222 254.001 421.062C251.651 422.222 249.311 423.222 247.001 424.062C243.001 424.062 239.001 424.062 235.001 424.062C232.841 422.482 230.501 421.142 228.001 420.062C220.721 410.692 217.721 400.032 219.001 388.062C219.211 360.632 220.871 333.302 224.001 306.062C227.991 301.442 227.991 296.772 224.001 292.062C224.821 289.252 225.321 286.252 225.501 283.062C226.001 273.072 226.171 263.072 226.001 253.062C228.521 250.922 228.521 248.922 226.001 247.062C226.171 233.062 226.001 219.062 225.501 205.062C210.141 200.372 200.141 190.372 195.501 175.062C193.221 163.982 190.551 152.982 187.501 142.062C186.831 131.392 186.831 120.732 187.501 110.062C189.071 94.8719 192.731 80.2119 198.501 66.0619C206.731 54.1619 217.561 45.6619 231.001 40.5619C253.421 37.1919 271.251 44.6919 284.501 63.0619C288.171 69.0619 291.831 75.0619 295.501 81.0619C301.571 101.462 302.571 122.132 298.501 143.062C296.661 150.772 294.661 158.442 292.501 166.062C288.191 176.522 282.021 185.692 274.001 193.562C267.661 198.952 260.331 202.122 252.001 203.062C251.831 214.732 252.001 226.402 252.501 238.062C252.681 241.252 253.181 244.252 254.001 247.062Z" fill="#DBA76A"/>
<path fill-rule="evenodd" clip-rule="evenodd" d="M274 152.062C269.41 149.152 264.41 146.982 259 145.562C252.16 143.722 247.66 146.222 245.5 153.062C243.21 165.022 248.05 170.192 260 168.562C264.88 164.992 267.88 160.162 269 154.062C271.23 155.142 273.56 155.802 276 156.062C278.07 169.092 272.74 177.262 260 180.562C247.98 181.182 235.98 180.852 224 179.562C214.76 176.982 207.92 171.482 203.5 163.062C202.71 160.852 202.88 158.852 204 157.062C206.43 156.982 208.43 155.982 210 154.062C210.43 159.352 212.43 163.852 216 167.562C224.09 170.432 229.92 167.932 233.5 160.062C234.7 150.262 230.37 144.932 220.5 144.062C216.44 144.912 212.6 146.252 209 148.062C213.7 143.372 219.36 140.212 226 138.562C239.76 137.152 253.09 138.812 266 143.562C269.55 145.612 272.21 148.442 274 152.062Z" fill="#FAF9F7"/>
<path fill-rule="evenodd" clip-rule="evenodd" d="M204 157.062C203.87 152.982 205.54 149.982 209 148.062C212.6 146.252 216.44 144.912 220.5 144.062C230.37 144.932 234.7 150.262 233.5 160.062C229.92 167.932 224.09 170.432 216 167.562C212.43 163.852 210.43 159.352 210 154.062C208.43 155.982 206.43 156.982 204 157.062Z" fill="#0F0F0F"/>
<path fill-rule="evenodd" clip-rule="evenodd" d="M274 152.062C275.31 153.032 275.97 154.362 276 156.062C273.56 155.802 271.23 155.142 269 154.062C267.88 160.162 264.88 164.992 260 168.562C248.05 170.192 243.21 165.022 245.5 153.062C247.66 146.222 252.16 143.722 259 145.562C264.41 146.982 269.41 149.152 274 152.062Z" fill="#0C0C0C"/>
<path fill-rule="evenodd" clip-rule="evenodd" d="M224 149.062C228.71 149.032 230.21 151.362 228.5 156.062C225.01 159.152 222.84 158.482 222 154.062C221.94 152.052 222.6 150.382 224 149.062Z" fill="#F3F3F3"/>
<path fill-rule="evenodd" clip-rule="evenodd" d="M252 148.062C254.45 147.642 255.78 148.642 256 151.062C254.43 158.292 251.77 158.792 248 152.562C248.84 150.552 250.18 149.052 252 148.062Z" fill="#F3F3F3"/>
<path fill-rule="evenodd" clip-rule="evenodd" d="M245 170.062C246 170.062 247 170.062 248 170.062C245.63 178.272 241.3 179.272 235 173.062C237.46 171.922 239.79 172.252 242 174.062C243.48 173.092 244.48 171.762 245 170.062Z" fill="#151515"/>
<path fill-rule="evenodd" clip-rule="evenodd" d="M254 254.062C254 251.732 254 249.392 254 247.062C266.81 246.272 279.14 243.442 291 238.562C292.67 237.392 294.33 236.232 296 235.062C293.78 233.192 292.45 230.852 292 228.062C291.72 225.942 292.55 224.602 294.5 224.062C297.55 225.952 300.72 227.622 304 229.062C306.37 228.462 308.54 227.462 310.5 226.062C314.33 227.532 314.83 229.702 312 232.562C309.33 233.562 306.67 234.562 304 235.562C290.18 249.302 273.51 255.472 254 254.062Z" fill="#101010"/>
<path fill-rule="evenodd" clip-rule="evenodd" d="M225.999 247.062C228.519 248.922 228.519 250.922 225.999 253.062C216.069 261.482 207.399 270.982 199.999 281.562C199.849 283.752 200.849 285.082 202.999 285.562C210.049 287.902 217.049 290.072 223.999 292.062C227.989 296.772 227.989 301.442 223.999 306.062C221.499 307.472 218.839 308.642 215.999 309.562C212.489 310.402 210.159 309.072 208.999 305.562C210.529 302.662 212.199 299.832 213.999 297.062C205.539 294.912 198.369 290.582 192.499 284.062C190.319 280.152 190.649 276.482 193.499 273.062C203.019 264.172 212.849 255.672 222.999 247.562C223.949 247.082 224.949 246.912 225.999 247.062Z" fill="#0C0B0B"/>
<path fill-rule="evenodd" clip-rule="evenodd" d="M228 420.062C230.5 421.142 232.84 422.482 235 424.062C235 434.292 234.83 444.632 234.5 455.062C231.13 460.412 226.3 462.242 220 460.562C217.51 458.322 217.51 455.982 220 453.562C222.71 451.652 225.71 450.822 229 451.062C228.07 440.772 227.74 430.432 228 420.062Z" fill="#111010"/>
<path fill-rule="evenodd" clip-rule="evenodd" d="M254 421.062C253.67 430.752 254 440.422 255 450.062C257.94 450.802 260.94 451.302 264 451.562C266.69 454.192 266.36 456.532 263 458.562C256.61 460.502 251.78 458.672 248.5 453.062C248.03 443.392 247.53 433.722 247 424.062C249.31 423.222 251.65 422.222 254 421.062Z" fill="#111010"/>
</svg>
