<svg width="500" height="500" viewBox="0 0 500 500" fill="none" xmlns="http://www.w3.org/2000/svg">
<path fill-rule="evenodd" clip-rule="evenodd" d="M370 328.062C369.24 322.152 368.24 316.152 367 310.062C376.24 301.102 386.58 293.602 398 287.562C399.12 286.492 400.12 285.322 401 284.062C400.1 238.592 400.1 193.092 401 147.562C401.27 135.972 400.44 124.472 398.5 113.062C397.83 111.732 397.17 110.392 396.5 109.062C395.78 108.112 394.95 107.942 394 108.562C385.71 114.512 377.71 120.852 370 127.562C360.99 132.732 352.32 138.402 344 144.562C333.02 149.722 322.35 155.382 312 161.562C311.76 178.832 311.43 196.162 311 213.562C313.85 232.662 316.02 251.832 317.5 271.062C318.24 286.742 318.07 302.402 317 318.062C318.33 326.052 319.66 334.052 321 342.062C325.33 339.892 329.67 337.732 334 335.562C340.33 330.732 346.99 326.402 354 322.562C356.58 321.482 358.25 319.652 359 317.062C360.72 322.462 361.72 328.132 362 334.062C361.34 333.162 360.68 332.162 360 331.062C352.27 334.982 345.27 339.812 339 345.562C332.12 349.172 325.12 352.502 318 355.562C304.9 355.692 291.9 356.532 279 358.062C275.38 357.172 271.72 357.502 268 359.062C267.23 358.412 266.23 358.082 265 358.062C239.41 361.212 213.74 361.872 188 360.062C183.33 360.062 178.67 360.062 174 360.062C153.63 360.122 136.13 353.122 121.5 339.062C120.5 337.062 119.5 335.062 118.5 333.062C116.66 324.272 114.83 315.602 113 307.062C113.94 298.782 114.27 290.452 114 282.062C113.89 238.052 114.39 194.052 115.5 150.062C122.37 141.522 130.2 134.022 139 127.562C145.03 124.882 150.36 121.212 155 116.562C162.21 113.272 169.21 109.602 176 105.562C191.46 100.162 206.12 93.1615 220 84.5615C223.16 82.9815 226.49 81.9815 230 81.5615C250 81.9915 270 82.8215 290 84.0615C303.34 83.5215 316.67 83.1815 330 83.0615C346.67 84.2815 363.33 85.4515 380 86.5615C398.71 89.7515 408.88 100.912 410.5 120.062C411.43 125.692 411.93 131.352 412 137.062C411.19 156.222 410.53 175.392 410 194.562C411.16 224.392 411.66 254.222 411.5 284.062C410 289.582 406.84 294.082 402 297.562C390.07 303.822 379.57 311.982 370.5 322.062C370 324.032 369.84 326.032 370 328.062Z" fill="#76C7EA"/>
<path fill-rule="evenodd" clip-rule="evenodd" d="M231.001 92.0615C269.301 93.6015 307.631 94.4315 346.001 94.5615C358.331 95.3315 370.661 95.9915 383.001 96.5615C384.831 97.3115 386.501 98.3115 388.001 99.5615C377.951 107.942 367.621 115.942 357.001 123.562C339.201 134.302 321.201 144.802 303.001 155.062C288.541 154.272 274.041 153.602 259.501 153.062C254.421 152.882 249.581 153.712 245.001 155.562C208.991 156.082 172.991 155.752 137.001 154.562C134.651 154.122 132.321 153.622 130.001 153.062C128.571 152.832 128.071 152.162 128.501 151.062C144.371 136.532 161.871 124.362 181.001 114.562C186.591 112.362 192.261 110.362 198.001 108.562C208.541 101.952 219.541 96.4515 231.001 92.0615Z" fill="#C9EEFE"/>
<path fill-rule="evenodd" clip-rule="evenodd" d="M367 310.061C364.62 298.191 361.45 286.531 357.5 275.061C354.08 267.311 350.58 267.151 347 274.561C350.44 286.211 354.27 297.711 358.5 309.061C359 311.711 359.16 314.371 359 317.061C358.25 319.651 356.58 321.481 354 322.561C346.99 326.401 340.33 330.731 334 335.561C329.67 337.731 325.33 339.891 321 342.061C319.66 334.051 318.33 326.051 317 318.061C318.07 302.401 318.24 286.741 317.5 271.061C316.02 251.831 313.85 232.661 311 213.561C311.43 196.161 311.76 178.831 312 161.561C322.35 155.381 333.02 149.721 344 144.561C352.32 138.401 360.99 132.731 370 127.561C377.71 120.851 385.71 114.511 394 108.561C394.95 107.941 395.78 108.111 396.5 109.061C397.17 110.391 397.83 111.731 398.5 113.061C400.44 124.471 401.27 135.971 401 147.561C400.1 193.091 400.1 238.591 401 284.061C400.12 285.321 399.12 286.491 398 287.561C386.58 293.601 376.24 301.101 367 310.061Z" fill="#C8EEFE"/>
<path fill-rule="evenodd" clip-rule="evenodd" d="M126 163.061C128.49 162.861 130.82 163.361 133 164.561C169.99 165.751 206.99 166.091 244 165.561C249.49 164.641 254.99 163.811 260.5 163.061C273.67 163.801 286.84 164.631 300 165.561C300.92 175.481 301.58 185.481 302 195.561C301.09 205.721 300.92 215.891 301.5 226.061C307.32 256.451 309.15 287.111 307 318.061C308.29 327.361 309.29 336.691 310 346.061C297.66 345.891 285.33 346.061 273 346.561C262.41 348.371 251.75 349.371 241 349.561C216.33 350.231 191.67 350.231 167 349.561C155.42 348.271 145.08 343.941 136 336.561C134.24 336.361 132.58 335.861 131 335.061C126.63 324.891 124.46 314.231 124.5 303.061C123.76 256.381 124.26 209.711 126 163.061Z" fill="#C8EEFE"/>
<path fill-rule="evenodd" clip-rule="evenodd" d="M281 171.062C289.56 173.802 294.06 179.802 294.5 189.062C294.03 203.572 294.19 218.072 295 232.562C294.67 236.732 294.33 240.892 294 245.062C292.33 246.392 290.67 246.392 289 245.062C288.19 243.142 287.69 241.142 287.5 239.062C287.3 220.372 286.63 201.712 285.5 183.062C283.5 181.062 281.5 179.062 279.5 177.062C278.75 174.722 279.25 172.722 281 171.062Z" fill="#E4F6FF"/>
<path fill-rule="evenodd" clip-rule="evenodd" d="M141 172.062C147.39 171.872 153.72 172.372 160 173.562C162.67 176.242 162.34 178.572 159 180.562C154.1 180.172 149.27 180.342 144.5 181.062C143.5 184.392 142.5 187.732 141.5 191.062C141.17 201.062 140.83 211.062 140.5 221.062C137.87 223.752 135.53 223.422 133.5 220.062C132.48 207.302 133.14 194.632 135.5 182.062C137.09 178.542 138.93 175.212 141 172.062Z" fill="#E3F6FF"/>
<path fill-rule="evenodd" clip-rule="evenodd" d="M275 261.062C272.21 259.452 269.55 257.612 267 255.562C261.56 254.202 256.23 252.532 251 250.562C229.23 245.722 219.07 254.562 220.5 277.062C221.09 287.652 226.59 293.822 237 295.562C250.8 297.402 259.63 291.572 263.5 278.062C264.33 275.562 265.17 273.062 266 270.562C264.89 268.682 264.89 266.842 266 265.062C270.49 268.762 275.49 270.102 281 269.062C282.06 270.162 282.89 271.492 283.5 273.062C285.64 286.282 281.48 297.122 271 305.562C255.7 314.922 239.04 319.092 221 318.062C207.02 316.902 193.02 316.062 179 315.562C159.56 312.122 146.39 301.292 139.5 283.062C138.7 279.862 138.86 276.862 140 274.062C142.15 274.192 144.15 273.692 146 272.562C148.18 270.212 150.52 268.042 153 266.062C152.03 274.052 153.53 281.722 157.5 289.062C167.26 298.632 177.76 299.462 189 291.562C196.52 285.012 199.36 276.852 197.5 267.062C194.88 263.792 193.22 260.122 192.5 256.062C190.56 253.452 188.06 251.622 185 250.562C168.18 246.662 153.85 250.832 142 263.062C140.9 261.962 140.74 260.632 141.5 259.062C151.5 243.472 165.67 233.972 184 230.562C202.34 227.302 220.68 227.302 239 230.562C257.57 233.132 270.24 243.132 277 260.562C276.41 261.022 275.74 261.192 275 261.062Z" fill="#FBFCFC"/>
<path fill-rule="evenodd" clip-rule="evenodd" d="M139.999 274.062C138.259 269.902 138.929 266.242 141.999 263.062C153.849 250.832 168.179 246.662 184.999 250.562C188.059 251.622 190.559 253.452 192.499 256.062C193.219 260.122 194.879 263.792 197.499 267.062C199.359 276.852 196.519 285.012 188.999 291.562C177.759 299.462 167.259 298.632 157.499 289.062C153.529 281.722 152.029 274.052 152.999 266.062C150.519 268.042 148.179 270.212 145.999 272.562C144.149 273.692 142.149 274.192 139.999 274.062Z" fill="#050505"/>
<path fill-rule="evenodd" clip-rule="evenodd" d="M274.999 261.062C276.439 262.292 278.099 263.292 279.999 264.062C280.949 265.612 281.289 267.272 280.999 269.062C275.489 270.102 270.489 268.762 265.999 265.062C264.889 266.842 264.889 268.682 265.999 270.562C265.169 273.062 264.329 275.562 263.499 278.062C259.629 291.572 250.799 297.402 236.999 295.562C226.589 293.822 221.089 287.652 220.499 277.062C219.069 254.562 229.229 245.722 250.999 250.562C256.229 252.532 261.559 254.202 266.999 255.562C269.549 257.612 272.209 259.452 274.999 261.062Z" fill="#070707"/>
<path fill-rule="evenodd" clip-rule="evenodd" d="M233 255.061C236.19 254.581 239.02 255.251 241.5 257.061C241.92 261.431 241.59 265.761 240.5 270.061C234.2 273.791 229.53 272.461 226.5 266.061C225.87 263.921 226.2 261.921 227.5 260.061C229.31 258.261 231.15 256.591 233 255.061Z" fill="#F3F3F3"/>
<path fill-rule="evenodd" clip-rule="evenodd" d="M180 257.061C186.13 256.281 189.13 258.951 189 265.061C189.06 271.281 186.06 274.951 180 276.061C175.92 274.761 173.92 271.921 174 267.561C174.61 263.181 176.61 259.681 180 257.061Z" fill="#F5F5F5"/>
<path fill-rule="evenodd" clip-rule="evenodd" d="M367 310.062C368.24 316.152 369.24 322.152 370 328.062C370.28 336.402 370.62 344.732 371 353.062C375.27 353.292 379.27 354.462 383 356.562C385.67 358.892 385.67 361.232 383 363.562C373.7 363.372 364.36 363.042 355 362.562C350.97 359.252 351.31 356.252 356 353.562C358.41 351.852 361.08 351.022 364 351.062C363.57 345.322 362.9 339.652 362 334.062C361.72 328.132 360.72 322.462 359 317.062C359.16 314.372 359 311.712 358.5 309.062C354.27 297.712 350.44 286.212 347 274.562C350.58 267.152 354.08 267.312 357.5 275.062C361.45 286.532 364.62 298.192 367 310.062Z" fill="#090A0B"/>
<path fill-rule="evenodd" clip-rule="evenodd" d="M114 282.062C114.27 290.452 113.94 298.782 113 307.062C110.43 317.082 107.76 327.082 105 337.062C108.63 339.212 112.3 341.382 116 343.562C117.85 347.312 116.68 349.472 112.5 350.062C107.83 348.732 103.17 347.392 98.5002 346.062C95.3302 346.982 92.1702 347.482 89.0002 347.562C86.5202 345.622 86.3502 343.462 88.5002 341.062C90.9002 338.782 93.7302 337.442 97.0002 337.062C95.5102 332.342 95.6702 327.682 97.5002 323.062C102.5 309.082 108 295.412 114 282.062Z" fill="#0D0E0E"/>
<path fill-rule="evenodd" clip-rule="evenodd" d="M221 299.062C222.7 298.902 224.37 299.072 226 299.562C226.52 300.122 226.86 300.792 227 301.562C225.32 305.922 222.65 309.582 219 312.562C217 313.232 215 313.232 213 312.562C209.65 310.632 206.15 309.132 202.5 308.062C201 302.892 202.83 301.062 208 302.562C210.37 303.742 212.7 304.912 215 306.062C217.68 304.422 219.68 302.092 221 299.062Z" fill="#0F0F0F"/>
<path fill-rule="evenodd" clip-rule="evenodd" d="M279.001 358.062C272.181 369.662 264.351 380.662 255.501 391.062C251.201 399.492 246.041 407.332 240.001 414.562C231.161 420.062 223.331 418.892 216.501 411.062C213.541 405.612 215.041 402.272 221.001 401.062C225.551 402.132 229.881 403.802 234.001 406.062C244.581 389.822 255.921 374.152 268.001 359.062C271.721 357.502 275.381 357.172 279.001 358.062Z" fill="#090909"/>
<path fill-rule="evenodd" clip-rule="evenodd" d="M174 360.062C178.67 360.062 183.33 360.062 188 360.062C174.27 374.292 161.1 388.952 148.5 404.062C138.06 407.182 130.73 403.512 126.5 393.062C124.4 384.162 127.56 381.332 136 384.562C138.59 387.862 141.59 390.192 145 391.562C148.8 388.762 152.3 385.602 155.5 382.062C160.96 374.142 167.13 366.812 174 360.062Z" fill="#080808"/>
</svg>
