<svg width="500" height="500" viewBox="0 0 500 500" fill="none" xmlns="http://www.w3.org/2000/svg">
<path fill-rule="evenodd" clip-rule="evenodd" d="M222 37.0615C236.42 37.6015 250.09 41.1015 263 47.5615C269.37 53.6015 276.04 59.2715 283 64.5615C302.95 89.2815 320.78 115.452 336.5 143.062C340.49 141.232 344.16 138.902 347.5 136.062C347.25 131.752 347.25 127.412 347.5 123.062C350.42 117.542 354.92 115.702 361 117.562C362.84 118.742 364.68 119.912 366.5 121.062C368.99 119.242 371.49 117.412 374 115.562C397.13 112.352 403.63 121.182 393.5 142.062C386.99 149.072 379.49 154.742 371 159.062C365.64 163.752 359.98 168.082 354 172.062C353.67 173.062 353.33 174.062 353 175.062C359.6 192.652 365.44 210.652 370.5 229.062C371.41 233.352 372.08 237.692 372.5 242.062C371.66 264.042 370.99 286.042 370.5 308.062C366.58 324.232 359.25 338.562 348.5 351.062C333.59 366.772 315.76 377.772 295 384.062C293.84 389.702 293.67 395.362 294.5 401.062C295.08 402.562 295.92 403.892 297 405.062C306.84 397.092 316.67 397.092 326.5 405.062C331.71 418.312 329.21 429.812 319 439.562C313.26 443.622 307.26 447.292 301 450.562C295.06 451.972 289.06 452.302 283 451.562C279.6 450.162 276.76 447.992 274.5 445.062C266.16 429.892 259.66 414.052 255 397.562C245.67 397.062 236.34 396.892 227 397.062C231.1 415.142 230.93 433.142 226.5 451.062C225.1 454.462 222.93 457.302 220 459.562C205.81 463.222 191.47 463.892 177 461.562C170.87 457.212 168.21 451.212 169 443.562C169.59 429.732 176.92 422.902 191 423.062C191.45 411.952 190.61 400.952 188.5 390.062C154.62 381.122 127.95 362.122 108.5 333.062C106.81 326.962 104.81 320.962 102.5 315.062C99.8299 277.622 102.49 240.622 110.5 204.062C113.3 196.522 115.63 188.852 117.5 181.062C131.02 150.172 144.36 119.172 157.5 88.0615C173.12 63.5115 194.62 46.5115 222 37.0615Z" fill="#802DA5"/>
<path fill-rule="evenodd" clip-rule="evenodd" d="M251.999 58.0614C248.189 57.7214 244.529 58.2214 240.999 59.5614C239.569 61.8314 239.899 63.8314 241.999 65.5614C246.999 65.8914 251.999 66.2314 256.999 66.5614C260.899 67.9414 264.899 69.1114 268.999 70.0614C269.129 68.2714 268.799 66.6014 267.999 65.0614C267.869 64.1814 268.199 63.5214 268.999 63.0614C271.489 65.1414 274.159 66.9714 276.999 68.5614C297.599 94.2114 315.939 121.381 331.999 150.061C334.999 151.041 337.999 150.871 340.999 149.561C345.769 146.421 350.269 142.921 354.499 139.061C354.439 134.141 354.599 129.311 354.999 124.561C356.329 123.891 357.669 123.891 358.999 124.561C360.189 127.821 362.019 130.651 364.499 133.061C366.129 132.681 367.629 132.021 368.999 131.061C370.429 128.131 372.429 125.631 374.999 123.561C390.629 119.221 394.789 124.061 387.499 138.061C383.569 141.441 379.739 144.941 375.999 148.561C365.219 154.361 354.719 160.531 344.499 167.061C343.739 175.201 345.739 182.531 350.499 189.061C356.919 206.401 361.919 224.061 365.499 242.061C365.619 265.451 364.619 288.781 362.499 312.061C357.779 321.841 352.779 331.511 347.499 341.061C337.329 351.741 326.169 361.071 313.999 369.061C305.379 372.101 296.879 375.431 288.499 379.061C286.589 388.391 286.589 397.721 288.499 407.061C290.399 409.191 291.569 411.691 291.999 414.561C297.179 414.111 301.509 411.771 304.999 407.561C307.369 406.331 309.869 405.491 312.499 405.061C315.149 406.361 317.819 407.701 320.499 409.061C321.899 416.791 320.899 424.121 317.499 431.061C311.169 435.391 304.839 439.721 298.499 444.061C291.349 446.471 285.189 445.141 279.999 440.061C271.989 423.891 264.989 407.391 258.999 390.561C247.549 389.411 236.049 388.571 224.499 388.061C223.389 388.151 222.389 388.481 221.499 389.061C218.179 394.801 218.179 400.461 221.499 406.061C223.959 420.921 223.289 435.591 219.499 450.061C215.809 453.621 211.309 455.451 205.999 455.561C196.919 456.471 187.919 456.141 178.999 454.561C175.599 448.721 175.099 442.551 177.499 436.061C179.729 433.861 182.229 432.031 184.999 430.561C189.359 430.451 193.519 429.621 197.499 428.061C197.899 413.361 197.399 398.701 195.999 384.061C187.339 382.961 179.009 380.801 170.999 377.561C161.989 371.881 152.989 366.221 143.999 360.561C136.469 353.031 128.969 345.531 121.499 338.061C116.139 330.341 112.139 322.011 109.499 313.061C108.739 283.631 110.079 254.301 113.499 225.061C116.649 209.471 120.979 194.131 126.499 179.061C133.979 163.091 140.649 146.761 146.499 130.061C152.029 117.791 157.359 105.461 162.499 93.0614C167.549 87.0114 172.219 80.6714 176.499 74.0614C187.939 62.9514 200.769 53.7914 214.999 46.5614C224.779 44.2714 234.439 44.6014 243.999 47.5614C247.699 49.6814 251.699 51.0114 255.999 51.5614C258.959 53.5214 261.629 55.8514 263.999 58.5614C260.059 58.2914 256.059 58.1314 251.999 58.0614Z" fill="#9B28B0"/>
<path fill-rule="evenodd" clip-rule="evenodd" d="M252 58.0617C254.87 58.8917 257.87 59.7217 261 60.5617C263.23 62.3117 265.57 63.8117 268 65.0617C268.8 66.6017 269.13 68.2717 269 70.0617C264.9 69.1117 260.9 67.9417 257 66.5617C252 66.2317 247 65.8917 242 65.5617C239.9 63.8317 239.57 61.8317 241 59.5617C244.53 58.2217 248.19 57.7217 252 58.0617Z" fill="#050006"/>
<path fill-rule="evenodd" clip-rule="evenodd" d="M202 60.0614C209.5 59.3614 211.5 62.2014 208 68.5614C200.57 69.9414 193.57 72.4414 187 76.0614C185.12 74.8714 184.62 73.2014 185.5 71.0614C190.16 65.8614 195.66 62.1914 202 60.0614Z" fill="#080109"/>
<path fill-rule="evenodd" clip-rule="evenodd" d="M242 71.0616C256.62 69.2616 263.12 75.5916 261.5 90.0616C260.72 91.8516 259.55 93.3516 258 94.5616C249.6 97.5416 242.1 96.0416 235.5 90.0616C233.06 81.8716 235.23 75.5416 242 71.0616Z" fill="#130E14"/>
<path fill-rule="evenodd" clip-rule="evenodd" d="M199.999 75.0614C208.839 74.0614 215.339 77.3914 219.499 85.0614C218.419 98.8814 210.919 104.381 196.999 101.561C191.439 97.0714 189.609 91.2414 191.499 84.0614C193.859 80.5314 196.699 77.5314 199.999 75.0614Z" fill="#150E15"/>
<path fill-rule="evenodd" clip-rule="evenodd" d="M243 74.0616C247.58 73.6716 251.91 74.5116 256 76.5616C257.71 77.6916 258.21 79.1916 257.5 81.0616C252.06 76.8816 246.23 76.2116 240 79.0616C238.98 78.5616 238.81 77.8916 239.5 77.0616C240.65 75.9216 241.81 74.9216 243 74.0616Z" fill="#752383"/>
<path fill-rule="evenodd" clip-rule="evenodd" d="M251 82.0614C251.75 80.9914 252.75 80.8214 254 81.5614C261.65 89.2714 259.98 92.9314 249 92.5614C253.31 89.5314 253.98 86.0314 251 82.0614Z" fill="#EBE8EB"/>
<path fill-rule="evenodd" clip-rule="evenodd" d="M243 80.0614C243.74 79.9314 244.41 80.1014 245 80.5614C241.24 82.7314 240.24 85.7314 242 89.5614C240.72 90.2414 239.55 90.0814 238.5 89.0614C237.55 84.8414 239.05 81.8414 243 80.0614Z" fill="#D8D8D8"/>
<path fill-rule="evenodd" clip-rule="evenodd" d="M201 78.0616C204.02 77.9016 207.02 78.0616 210 78.5616C210.81 78.8716 211.47 79.3716 212 80.0616C209.05 80.8816 206.05 81.3816 203 81.5616C199.8 84.4316 196.96 87.6016 194.5 91.0616C193.98 85.4316 196.15 81.0916 201 78.0616Z" fill="#832693"/>
<path fill-rule="evenodd" clip-rule="evenodd" d="M244 83.0615C245 83.0615 246 83.0615 247 83.0615C247 84.3915 247 85.7315 247 87.0615C246 87.0615 245 87.0615 244 87.0615C244 85.7315 244 84.3915 244 83.0615Z" fill="#BCBCBC"/>
<path fill-rule="evenodd" clip-rule="evenodd" d="M204 84.0614C209.29 83.0814 213.62 84.5814 217 88.5614C216.87 89.6214 216.37 90.4514 215.5 91.0614C214.47 87.6914 212.14 85.6914 208.5 85.0614C202.97 86.6614 201.64 90.0014 204.5 95.0614C206.33 96.6314 208.49 97.4714 211 97.5614C210.67 97.8914 210.33 98.2314 210 98.5614C206 99.2314 202 99.2314 198 98.5614C196.98 98.0414 196.32 97.2114 196 96.0614C198.17 91.7314 200.83 87.7314 204 84.0614Z" fill="#D9D9D9"/>
<path fill-rule="evenodd" clip-rule="evenodd" d="M209 87.0615C211.41 87.2515 212.41 88.5915 212 91.0615C210.67 91.0615 209.33 91.0615 208 91.0615C207.93 89.6015 208.27 88.2715 209 87.0615Z" fill="#E1E1E1"/>
<path fill-rule="evenodd" clip-rule="evenodd" d="M267.001 102.062C268.051 101.912 269.051 102.082 270.001 102.562C272.851 106.412 276.021 109.912 279.501 113.062C280.671 117.232 279.171 118.732 275.001 117.562C273.811 116.212 272.481 115.042 271.001 114.062C249.601 131.702 225.601 136.202 199.001 127.562C197.161 126.382 195.321 125.212 193.501 124.062C191.051 127.962 187.721 129.292 183.501 128.062C182.831 126.732 182.831 125.392 183.501 124.062C186.931 119.992 189.431 115.492 191.001 110.562C192.611 109.842 194.111 110.012 195.501 111.062C195.731 113.652 196.231 116.152 197.001 118.562C202.671 119.232 208.331 119.232 214.001 118.562C219.021 115.532 224.021 112.532 229.001 109.562C231.331 108.892 233.671 108.892 236.001 109.562C246.131 114.362 255.961 113.862 265.501 108.062C265.821 105.972 266.321 103.972 267.001 102.062Z" fill="#0B020A"/>
<path fill-rule="evenodd" clip-rule="evenodd" d="M239 115.062C243.65 115.732 245.15 118.402 243.5 123.062C239.67 126.722 235.01 128.382 229.5 128.062C222.88 128.462 220.38 125.632 222 119.562C225.33 119.562 228.67 119.562 232 119.562C234.4 118.042 236.73 116.542 239 115.062Z" fill="#E64135"/>
<path fill-rule="evenodd" clip-rule="evenodd" d="M261 129.062C263.48 130.262 263.48 131.762 261 133.562C252.03 138.722 242.37 141.222 232 141.062C224.63 140.472 217.3 139.642 210 138.562C209.16 137.552 208.83 136.382 209 135.062C220.79 137.962 232.79 138.802 245 137.562C249.82 135.862 254.49 133.862 259 131.562C259.88 130.852 260.55 130.022 261 129.062Z" fill="#110312"/>
<path fill-rule="evenodd" clip-rule="evenodd" d="M161 150.062C163.03 149.902 165.03 150.062 167 150.562C173.75 161.812 182.42 171.312 193 179.062C200.47 179.492 206.64 182.492 211.5 188.062C213.08 193.662 211.58 198.162 207 201.562C214.66 209.092 214.66 216.422 207 223.562C201.4 225.022 195.74 225.352 190 224.562C186.45 222.622 182.79 220.952 179 219.562C162.3 204.802 150.97 186.802 145 165.562C145.7 162.042 147.7 161.202 151 163.062C156.17 180.102 165 195.102 177.5 208.062C181.07 211.312 184.91 214.142 189 216.562C194.32 217.062 199.66 217.232 205 217.062C205.76 211.652 203.92 207.312 199.5 204.062C196.44 197.962 198.28 194.632 205 194.062C205.11 191.662 204.11 189.822 202 188.562C198.67 188.232 195.33 187.892 192 187.562C180.16 178.882 170.16 168.382 162 156.062C161.03 154.162 160.7 152.162 161 150.062Z" fill="#8027A5"/>
<path fill-rule="evenodd" clip-rule="evenodd" d="M332 278.061C326.22 274.781 320.55 271.281 315 267.561C307.22 265.631 299.55 263.301 292 260.561C274.35 257.981 263.52 265.481 259.5 283.061C258.46 292.881 260.13 302.211 264.5 311.061C273.75 318.381 284.25 320.881 296 318.561C300.11 316.111 303.95 313.281 307.5 310.061C310.44 303.841 313.11 297.511 315.5 291.061C315.83 287.391 316.17 283.731 316.5 280.061C318.67 281.561 320.83 283.061 323 284.561C325.54 284.701 327.88 285.371 330 286.561C332.34 287.311 334.34 286.811 336 285.061C337.49 302.441 331.49 316.601 318 327.561C301.42 340.981 282.42 348.311 261 349.561C239.04 351.061 217.38 349.401 196 344.561C173.63 337.521 159.46 322.691 153.5 300.061C152.23 291.421 153.23 283.091 156.5 275.061C164.28 259.611 175.78 247.781 191 239.561C214.79 228.401 239.79 224.741 266 228.561C296.1 232.351 318.26 247.521 332.5 274.061C333.26 275.631 333.1 276.961 332 278.061Z" fill="#FCFBFC"/>
<path fill-rule="evenodd" clip-rule="evenodd" d="M332.001 278.062C334.981 279.392 336.311 281.722 336.001 285.062C334.341 286.812 332.341 287.312 330.001 286.562C327.881 285.372 325.541 284.702 323.001 284.562C320.831 283.062 318.671 281.562 316.501 280.062C316.171 283.732 315.831 287.392 315.501 291.062C313.111 297.512 310.441 303.842 307.501 310.062C303.951 313.282 300.111 316.112 296.001 318.562C284.251 320.882 273.751 318.382 264.501 311.062C260.131 302.212 258.461 292.882 259.501 283.062C263.521 265.482 274.351 257.982 292.001 260.562C299.551 263.302 307.221 265.632 315.001 267.562C320.551 271.282 326.221 274.782 332.001 278.062Z" fill="#050505"/>
<path fill-rule="evenodd" clip-rule="evenodd" d="M193.001 260.062C202.801 259.642 212.131 261.472 221.001 265.562C224.211 268.292 225.711 271.792 225.501 276.062C231.121 281.602 233.121 288.272 231.501 296.062C228.801 300.752 226.131 305.412 223.501 310.062C214.571 319.622 203.731 322.782 191.001 319.562C178.651 311.862 173.151 300.692 174.501 286.062C175.741 284.682 175.911 283.352 175.001 282.062C171.811 285.082 168.481 287.912 165.001 290.562C162.541 292.192 160.041 292.362 157.501 291.062C156.831 288.062 156.831 285.062 157.501 282.062C163.021 273.712 170.521 267.882 180.001 264.562C184.431 262.992 188.761 261.492 193.001 260.062Z" fill="#060606"/>
<path fill-rule="evenodd" clip-rule="evenodd" d="M276 268.061C280.02 267.461 283.52 268.461 286.5 271.061C286.97 276.561 286.3 281.901 284.5 287.061C277.39 291.901 271.72 290.571 267.5 283.061C266.71 279.931 267.04 276.931 268.5 274.061C271.15 272.141 273.65 270.141 276 268.061Z" fill="#F5F5F5"/>
<path fill-rule="evenodd" clip-rule="evenodd" d="M210 270.062C218.64 271.302 221.8 276.302 219.5 285.062C217.29 291.622 212.79 294.452 206 293.562C200.02 287.512 199.52 281.012 204.5 274.062C206.31 272.582 208.15 271.252 210 270.062Z" fill="#F6F6F6"/>
<path fill-rule="evenodd" clip-rule="evenodd" d="M261 323.062C266.18 322.072 268.01 324.072 266.5 329.062C264.06 333.502 260.89 337.332 257 340.562C254.67 341.232 252.33 341.232 250 340.562C245.5 338.232 241 336.062 236.5 334.062C235.17 329.062 237 326.902 242 327.562C245.6 328.952 249.1 330.452 252.5 332.062C253.61 331.972 254.61 331.642 255.5 331.062C257.1 328.192 258.93 325.522 261 323.062Z" fill="#0C0C0C"/>
</svg>
