<svg width="500" height="500" viewBox="0 0 500 500" fill="none" xmlns="http://www.w3.org/2000/svg">
<path fill-rule="evenodd" clip-rule="evenodd" d="M277 91.0621C253.48 99.8221 229.81 108.662 206 117.562C201.26 119.682 196.76 122.182 192.5 125.062C190.64 130.022 190.64 135.022 192.5 140.062C199.54 156.302 206.7 172.472 214 188.562C216.87 190.022 219.87 190.352 223 189.562C252.59 176.242 282.26 163.082 312 150.062C313.15 147.452 313.32 144.792 312.5 142.062C309.22 134.502 306.22 126.842 303.5 119.062C299.8 112.982 296.63 106.652 294 100.062C301.64 108.532 309.14 117.202 316.5 126.062C320.83 133.362 323.99 141.032 326 149.062C337.84 157.482 349.5 166.152 361 175.062C363.59 177.382 366.26 179.712 369 182.062C370.15 184.672 370.32 187.332 369.5 190.062C368.98 191.082 368.15 191.742 367 192.062C360.69 188.742 354.02 186.242 347 184.562C339.82 183.502 333.16 184.662 327 188.062C312.99 192.902 301.33 201.072 292 212.562C264.97 234.322 235.97 237.322 205 221.562C199.36 216.832 193.19 212.992 186.5 210.062C167.41 217.862 147.91 224.362 128 229.562C122.74 230.932 117.41 231.762 112 232.062C107.71 231.322 104.54 228.992 102.5 225.062C99.2697 215.512 95.7697 206.182 91.9997 197.062C90.5997 185.222 91.5997 173.552 94.9997 162.062C95.9997 158.732 96.9997 155.392 97.9997 152.062C103.74 141.612 110.74 131.942 119 123.062C132.63 111.912 146.96 101.742 162 92.5621C162.73 91.1621 163.23 89.6621 163.5 88.0621C170.17 81.6221 177.83 80.2921 186.5 84.0621C196.78 80.9221 207.28 79.7621 218 80.5621C238.35 80.5221 258.02 84.0221 277 91.0621Z" fill="#020101"/>
<path fill-rule="evenodd" clip-rule="evenodd" d="M277 91.062C285.43 89.112 291.1 92.112 294 100.062C296.63 106.652 299.8 112.982 303.5 119.062C306.22 126.842 309.22 134.502 312.5 142.062C313.32 144.792 313.15 147.452 312 150.062C282.26 163.082 252.59 176.242 223 189.562C219.87 190.352 216.87 190.022 214 188.562C206.7 172.472 199.54 156.302 192.5 140.062C190.64 135.022 190.64 130.022 192.5 125.062C196.76 122.182 201.26 119.682 206 117.562C229.81 108.662 253.48 99.822 277 91.062Z" fill="#DC4137"/>
<path fill-rule="evenodd" clip-rule="evenodd" d="M281 152.062C281.44 156.892 283.44 157.892 287 155.062C285.89 153.352 286.56 152.682 289 153.062C289 154.062 289 155.062 289 156.062C282.93 159.172 276.59 161.842 270 164.062C270.68 162.382 272.02 161.722 274 162.062C274.45 159.552 273.78 157.552 272 156.062C274.4 153.592 277.4 152.252 281 152.062Z" fill="#322422"/>
<path fill-rule="evenodd" clip-rule="evenodd" d="M290.999 156.062C290.999 153.392 290.999 150.732 290.999 148.062C294.339 146.722 296.669 144.392 297.999 141.062C294.419 128.412 289.089 116.582 281.999 105.562C278.519 105.102 275.189 105.602 271.999 107.062C272.159 105.362 271.989 103.692 271.499 102.062C269.619 100.632 268.119 100.962 266.999 103.062C267.679 104.422 268.349 105.752 268.999 107.062C268.109 107.672 267.109 108.002 265.999 108.062C264.339 106.822 263.169 105.152 262.499 103.062C261.929 106.402 260.759 106.742 258.999 104.062C258.669 104.232 258.329 104.392 257.999 104.562C259.139 106.342 260.139 108.172 260.999 110.062C260.329 110.062 259.669 110.062 258.999 110.062C257.919 110.122 256.919 109.622 255.999 108.562C256.949 107.262 256.949 106.092 255.999 105.062C254.429 106.272 253.599 107.942 253.499 110.062C250.099 106.222 248.269 107.222 247.999 113.062C240.549 106.742 238.209 108.082 240.999 117.062C238.919 117.532 236.919 118.202 234.999 119.062C233.859 116.722 233.699 114.392 234.499 112.062C232.229 113.522 229.729 114.352 226.999 114.562C225.749 116.772 225.919 118.942 227.499 121.062C228.269 119.712 229.439 118.882 230.999 118.562C229.789 117.672 229.789 116.832 230.999 116.062C232.419 116.562 233.089 117.562 232.999 119.062C231.149 121.132 228.819 122.462 225.999 123.062C225.749 119.602 224.079 117.772 220.999 117.562C218.839 118.472 216.839 119.642 214.999 121.062C216.489 122.462 217.489 124.132 217.999 126.062C216.329 126.732 214.669 127.392 212.999 128.062C210.369 127.122 210.369 125.952 212.999 124.562C211.999 124.232 210.999 123.892 209.999 123.562C213.779 121.852 213.779 121.182 209.999 121.562C208.649 122.332 207.819 123.502 207.499 125.062C203.659 123.572 202.329 124.902 203.499 129.062C203.919 130.322 204.749 130.982 205.999 131.062C204.359 132.352 203.859 134.022 204.499 136.062C209.199 148.232 214.199 160.232 219.499 172.062C222.139 175.512 225.299 176.012 228.999 173.562C242.789 166.462 257.119 160.632 271.999 156.062C273.459 160.262 272.459 160.932 268.999 158.062C266.829 157.992 266.499 158.662 267.999 160.062C266.229 161.612 264.399 161.952 262.499 161.062C262.219 162.972 263.049 164.312 264.999 165.062C262.359 167.282 259.359 168.952 255.999 170.062C254.719 171.492 253.049 172.162 250.999 172.062C251.159 165.842 249.159 164.842 244.999 169.062C245.959 170.642 246.619 172.302 246.999 174.062C246.659 174.902 245.989 175.232 244.999 175.062C245.669 170.832 243.999 169.002 239.999 169.562C237.789 171.332 235.459 172.832 232.999 174.062C233.759 175.922 234.759 177.592 235.999 179.062C231.699 181.822 227.029 183.982 221.999 185.562C220.029 186.062 218.029 186.222 215.999 186.062C210.399 170.862 204.239 155.862 197.499 141.062C195.539 136.552 194.869 131.892 195.499 127.062C196.329 126.232 197.169 125.392 197.999 124.562C222.379 114.042 247.379 105.212 272.999 98.0619C272.099 100.662 272.769 102.992 274.999 105.062C275.779 103.832 276.279 102.502 276.499 101.062C279.429 105.332 281.259 105.002 281.999 100.062C280.949 100.212 279.949 100.042 278.999 99.5619C280.199 98.9119 280.199 98.4119 278.999 98.0619C277.369 99.1019 275.699 99.1019 273.999 98.0619C279.599 94.1319 284.769 94.4619 289.499 99.0619C293.719 110.392 298.719 121.392 304.499 132.062C305.799 136.952 307.299 141.792 308.999 146.562C306.679 148.912 304.019 150.912 300.999 152.562C297.459 153.242 294.129 154.412 290.999 156.062Z" fill="#1C1514"/>
<path fill-rule="evenodd" clip-rule="evenodd" d="M276 154.062C277.33 154.062 278.67 154.062 280 154.062C279.73 156.012 280.39 157.512 282 158.562C277.45 161.112 275.45 159.612 276 154.062Z" fill="#C5C7C5"/>
<path fill-rule="evenodd" clip-rule="evenodd" d="M206 153.062C209.41 152.942 210.74 154.612 210 158.062C206.59 158.182 205.26 156.512 206 153.062Z" fill="#E0E0E0"/>
<path fill-rule="evenodd" clip-rule="evenodd" d="M291 148.062C291 150.732 291 153.392 291 156.062C290.33 156.062 289.67 156.062 289 156.062C289 155.062 289 154.062 289 153.062C286.56 152.682 285.89 153.352 287 155.062C283.44 157.892 281.44 156.892 281 152.062C283.83 149.652 287.16 148.322 291 148.062Z" fill="#9C8D8C"/>
<path fill-rule="evenodd" clip-rule="evenodd" d="M290.999 148.062C287.159 148.322 283.829 149.652 280.999 152.062C277.399 152.252 274.399 153.592 271.999 156.062C257.119 160.632 242.789 166.462 228.999 173.562C225.299 176.012 222.139 175.512 219.499 172.062C214.199 160.232 209.199 148.232 204.499 136.062C203.859 134.022 204.359 132.352 205.999 131.062C208.449 130.332 210.789 129.332 212.999 128.062C214.669 127.392 216.329 126.732 217.999 126.062C218.329 126.062 218.669 126.062 218.999 126.062C221.489 125.242 223.819 124.242 225.999 123.062C228.819 122.462 231.149 121.132 232.999 119.062C233.669 119.062 234.329 119.062 234.999 119.062C236.919 118.202 238.919 117.532 240.999 117.062C247.389 115.182 253.389 112.842 258.999 110.062C259.669 110.062 260.329 110.062 260.999 110.062C262.279 108.592 263.949 107.932 265.999 108.062C267.109 108.002 268.109 107.672 268.999 107.062C269.999 107.062 270.999 107.062 271.999 107.062C275.189 105.602 278.519 105.102 281.999 105.562C289.089 116.582 294.419 128.412 297.999 141.062C296.669 144.392 294.339 146.722 290.999 148.062Z" fill="#E4443C"/>
<path fill-rule="evenodd" clip-rule="evenodd" d="M258 156.062C255.62 157.922 252.95 159.252 250 160.062C250.87 158.292 252.2 156.952 254 156.062C255.54 155.212 256.87 155.212 258 156.062Z" fill="#D0BD49"/>
<path fill-rule="evenodd" clip-rule="evenodd" d="M241 123.062C242.15 126.332 242.65 129.662 242.5 133.062C241.53 134.822 240.37 135.152 239 134.062C237.98 130.962 236.81 127.962 235.5 125.062C229.76 131.292 229.59 137.622 235 144.062C237.98 146.302 240.98 146.472 244 144.562C239.49 144.052 235.99 141.892 233.5 138.062C232.81 137.232 232.98 136.562 234 136.062C236.41 138.482 239.08 140.482 242 142.062C244.7 138.632 247.7 138.302 251 141.062C250.87 141.802 251.04 142.472 251.5 143.062C251.92 141.892 252.59 140.892 253.5 140.062C253.64 141.822 253.14 143.482 252 145.062C255.13 148.172 257.8 151.502 260 155.062C259.66 155.902 258.99 156.232 258 156.062C256.87 155.212 255.54 155.212 254 156.062C252.2 156.952 250.87 158.292 250 160.062C250 160.732 249.67 161.062 249 161.062C249.09 160.062 248.75 159.232 248 158.562C242.59 157.812 240.09 154.642 240.5 149.062C236.02 147.002 232.35 144.002 229.5 140.062C228.41 135.042 229.24 130.372 232 126.062C231.88 125.452 231.54 125.122 231 125.062C233.57 123.772 236.24 122.442 239 121.062C239.68 121.802 240.35 122.472 241 123.062Z" fill="#262115"/>
<path fill-rule="evenodd" clip-rule="evenodd" d="M254 156.062C252.01 156.392 250.01 156.722 248 157.062C246.43 157.082 245.1 156.582 244 155.562C248.22 155.582 252.06 154.412 255.5 152.062C255.8 153.632 255.3 154.962 254 156.062Z" fill="#D8CE4C"/>
<path fill-rule="evenodd" clip-rule="evenodd" d="M250 150.062C251.7 149.902 253.37 150.072 255 150.562C251.2 152.692 247.2 153.192 243 152.062C245.47 151.392 247.8 150.732 250 150.062Z" fill="#D4C946"/>
<path fill-rule="evenodd" clip-rule="evenodd" d="M242 147.062C245.73 146.742 249.39 147.072 253 148.062C251.17 148.392 249.33 148.732 247.5 149.062C245.2 149.012 243.37 148.352 242 147.062Z" fill="#E1D64B"/>
<path fill-rule="evenodd" clip-rule="evenodd" d="M276 149.062C274.2 150.022 272.2 150.682 270 151.062C268.72 150.172 268.72 149.172 270 148.062C271.67 147.392 273.33 146.732 275 146.062C275.89 146.882 276.22 147.882 276 149.062Z" fill="#1B1615"/>
<path fill-rule="evenodd" clip-rule="evenodd" d="M202 146.062C203.48 145.802 204.81 146.132 206 147.062C204.04 149.752 202.7 149.422 202 146.062Z" fill="#C6C5C7"/>
<path fill-rule="evenodd" clip-rule="evenodd" d="M281 147.062C280.11 147.672 279.11 148.002 278 148.062C276.64 145.762 277.31 144.092 280 143.062C280.93 144.252 281.26 145.582 281 147.062Z" fill="#231E1F"/>
<path fill-rule="evenodd" clip-rule="evenodd" d="M246 140.062C249.22 140.582 250.22 142.252 249 145.062C246.74 144.142 245.74 142.472 246 140.062Z" fill="#DCD548"/>
<path fill-rule="evenodd" clip-rule="evenodd" d="M259 134.062C259.88 133.932 260.54 134.262 261 135.062C258.32 137.622 258.82 139.622 262.5 141.062C264.26 140.582 265.93 139.922 267.5 139.062C270.65 140.982 270.81 143.152 268 145.562C270.55 146.172 272.88 145.672 275 144.062C273.65 140.452 274.32 140.122 277 143.062C278.17 142.642 279.17 141.972 280 141.062C278.87 139.942 278.2 138.602 278 137.062C279.61 137.502 280.78 138.502 281.5 140.062C282 142.372 282.16 144.702 282 147.062C281.67 147.062 281.33 147.062 281 147.062C281.26 145.582 280.93 144.252 280 143.062C277.31 144.092 276.64 145.762 278 148.062C277.66 148.902 276.99 149.232 276 149.062C276.22 147.882 275.89 146.882 275 146.062C273.33 146.732 271.67 147.392 270 148.062C268.72 149.172 268.72 150.172 270 151.062C267.11 153.292 263.78 154.632 260 155.062C257.8 151.502 255.13 148.172 252 145.062C253.14 143.482 253.64 141.822 253.5 140.062C252.59 140.892 251.92 141.892 251.5 143.062C251.04 142.472 250.87 141.802 251 141.062C252.87 137.802 255.53 135.462 259 134.062Z" fill="#DDDDDC"/>
<path fill-rule="evenodd" clip-rule="evenodd" d="M245 121.062C246.24 125.222 248.24 128.882 251 132.062C253.5 128.912 253.5 125.582 251 122.062C254.66 121.122 257.66 122.282 260 125.562C258.71 126.052 257.37 126.222 256 126.062C255.52 129.352 256.52 132.012 259 134.062C255.53 135.462 252.87 137.802 251 141.062C247.7 138.302 244.7 138.632 242 142.062C239.08 140.482 236.41 138.482 234 136.062C232.98 136.562 232.81 137.232 233.5 138.062C235.99 141.892 239.49 144.052 244 144.562C240.98 146.472 237.98 146.302 235 144.062C229.59 137.622 229.76 131.292 235.5 125.062C236.81 127.962 237.98 130.962 239 134.062C240.37 135.152 241.53 134.822 242.5 133.062C242.65 129.662 242.15 126.332 241 123.062C241.68 121.382 243.02 120.722 245 121.062Z" fill="#F0E143"/>
<path fill-rule="evenodd" clip-rule="evenodd" d="M231 125.062C231.54 125.122 231.88 125.452 232 126.062C229.24 130.372 228.41 135.042 229.5 140.062C232.35 144.002 236.02 147.002 240.5 149.062C240.09 154.642 242.59 157.812 248 158.562C248.75 159.232 249.09 160.062 249 161.062C240.78 164.302 232.62 167.632 224.5 171.062C223.73 170.922 223.06 170.582 222.5 170.062C218.05 158.672 213.22 147.502 208 136.562C208.84 134.792 210.17 133.462 212 132.562C218.32 129.962 224.65 127.462 231 125.062Z" fill="#5265F5"/>
<path fill-rule="evenodd" clip-rule="evenodd" d="M229 153.062C230.68 154.312 232.01 155.972 233 158.062C231.67 159.872 230.67 161.872 230 164.062C228.38 162.242 226.38 160.912 224 160.062C224.85 158.152 225.18 156.152 225 154.062C226.6 154.332 227.93 153.992 229 153.062Z" fill="#DEE2F9"/>
<path fill-rule="evenodd" clip-rule="evenodd" d="M234 150.062C235 150.062 236 150.062 237 150.062C237 151.062 237 152.062 237 153.062C236 153.062 235 153.062 234 153.062C234 152.062 234 151.062 234 150.062Z" fill="#C7D1FA"/>
<path fill-rule="evenodd" clip-rule="evenodd" d="M226 145.062C227.67 145.062 229.33 145.062 231 145.062C231.15 148.722 229.65 149.722 226.5 148.062C226.02 147.112 225.85 146.112 226 145.062Z" fill="#E4E8FC"/>
<path fill-rule="evenodd" clip-rule="evenodd" d="M213 128.062C210.79 129.332 208.45 130.332 206 131.062C204.75 130.982 203.92 130.322 203.5 129.062C202.33 124.902 203.66 123.572 207.5 125.062C207.82 123.502 208.65 122.332 210 121.562C213.78 121.182 213.78 121.852 210 123.562C211 123.892 212 124.232 213 124.562C210.37 125.952 210.37 127.122 213 128.062Z" fill="#949392"/>
<path fill-rule="evenodd" clip-rule="evenodd" d="M226 123.062C223.82 124.242 221.49 125.242 219 126.062C219.14 124.302 218.81 122.632 218 121.062C218.82 120.172 219.82 119.842 221 120.062C220.84 121.432 221.01 122.772 221.5 124.062C222.58 121.782 224.08 121.442 226 123.062Z" fill="#472E2D"/>
<path fill-rule="evenodd" clip-rule="evenodd" d="M293 119.062C294.33 119.062 295.67 119.062 297 119.062C296.61 123.302 294.95 123.962 292 121.062C292.36 120.382 292.7 119.712 293 119.062Z" fill="#E4E3E3"/>
<path fill-rule="evenodd" clip-rule="evenodd" d="M251 119.062C256.35 119.752 260.35 122.422 263 127.062C268.31 127.152 272.98 128.822 277 132.062C277.95 133.612 278.29 135.272 278 137.062C278.2 138.602 278.87 139.942 280 141.062C279.17 141.972 278.17 142.642 277 143.062C274.32 140.122 273.65 140.452 275 144.062C272.88 145.672 270.55 146.172 268 145.562C270.81 143.152 270.65 140.982 267.5 139.062C265.93 139.922 264.26 140.582 262.5 141.062C258.82 139.622 258.32 137.622 261 135.062C260.54 134.262 259.88 133.932 259 134.062C256.52 132.012 255.52 129.352 256 126.062C257.37 126.222 258.71 126.052 260 125.562C257.66 122.282 254.66 121.122 251 122.062C253.5 125.582 253.5 128.912 251 132.062C248.24 128.882 246.24 125.222 245 121.062C246.42 119.252 248.42 118.592 251 119.062Z" fill="#17150F"/>
<path fill-rule="evenodd" clip-rule="evenodd" d="M275 134.062C277.4 135.392 277.4 137.052 275 139.062C274.45 137.562 274.45 135.892 275 134.062Z" fill="#B4AA47"/>
<path fill-rule="evenodd" clip-rule="evenodd" d="M269 129.062C270.66 130.512 271.5 132.512 271.5 135.062C271.72 133.622 272.22 132.292 273 131.062C273.92 134.192 273.42 137.192 271.5 140.062C271.17 139.062 270.83 138.062 270.5 137.062C270.17 137.392 269.83 137.732 269.5 138.062C269 135.082 268.84 132.082 269 129.062Z" fill="#8D8438"/>
<path fill-rule="evenodd" clip-rule="evenodd" d="M264 130.062C265.25 130.892 265.91 132.232 266 134.062C265.21 139.172 264.21 139.172 263 134.062C263.12 132.642 263.46 131.302 264 130.062Z" fill="#E4D74D"/>
<path fill-rule="evenodd" clip-rule="evenodd" d="M257 128.062C260.43 127.812 261.43 129.142 260 132.062C258.21 131.282 257.21 129.942 257 128.062Z" fill="#E1D84E"/>
<path fill-rule="evenodd" clip-rule="evenodd" d="M226 123.062C224.08 121.442 222.58 121.782 221.5 124.062C221.01 122.772 220.84 121.432 221 120.062C219.82 119.842 218.82 120.172 218 121.062C218.81 122.632 219.14 124.302 219 126.062C218.67 126.062 218.33 126.062 218 126.062C217.49 124.132 216.49 122.462 215 121.062C216.84 119.642 218.84 118.472 221 117.562C224.08 117.772 225.75 119.602 226 123.062Z" fill="#CBCBCA"/>
<path fill-rule="evenodd" clip-rule="evenodd" d="M234.999 119.062C234.329 119.062 233.669 119.062 232.999 119.062C233.089 117.562 232.419 116.562 230.999 116.062C229.789 116.832 229.789 117.672 230.999 118.562C229.439 118.882 228.269 119.712 227.499 121.062C225.919 118.942 225.749 116.772 226.999 114.562C229.729 114.352 232.229 113.522 234.499 112.062C233.699 114.392 233.859 116.722 234.999 119.062Z" fill="#BFBFBF"/>
<path fill-rule="evenodd" clip-rule="evenodd" d="M289 112.062C290 112.062 291 112.062 292 112.062C292 113.062 292 114.062 292 115.062C291 115.062 290 115.062 289 115.062C289 114.062 289 113.062 289 112.062Z" fill="#C3C3C4"/>
<path fill-rule="evenodd" clip-rule="evenodd" d="M258.999 110.062C253.389 112.842 247.389 115.182 240.999 117.062C238.209 108.082 240.549 106.742 247.999 113.062C248.269 107.222 250.099 106.222 253.499 110.062C253.599 107.942 254.429 106.272 255.999 105.062C256.949 106.092 256.949 107.262 255.999 108.562C256.919 109.622 257.919 110.122 258.999 110.062Z" fill="#C6C1C0"/>
<path fill-rule="evenodd" clip-rule="evenodd" d="M282 147.062C282.16 144.702 282 142.372 281.5 140.062C280.78 138.502 279.61 137.502 278 137.062C278.29 135.272 277.95 133.612 277 132.062C272.98 128.822 268.31 127.152 263 127.062C260.35 122.422 256.35 119.752 251 119.062C255.59 116.902 260.26 114.732 265 112.562C269.5 110.502 274.17 109.502 279 109.562C281.21 111.432 283.04 113.602 284.5 116.062C287.62 123.592 290.46 131.262 293 139.062C292.93 140.332 292.6 141.502 292 142.562C288.72 144.372 285.39 145.872 282 147.062Z" fill="#5865F1"/>
<path fill-rule="evenodd" clip-rule="evenodd" d="M270.999 113.062C272.669 113.062 274.329 113.062 275.999 113.062C275.749 115.392 276.409 117.392 277.999 119.062C271.449 122.182 269.109 120.182 270.999 113.062Z" fill="#EDF0FA"/>
<path fill-rule="evenodd" clip-rule="evenodd" d="M266 108.062C263.95 107.932 262.28 108.592 261 110.062C260.14 108.172 259.14 106.342 258 104.562C258.33 104.392 258.67 104.232 259 104.062C260.76 106.742 261.93 106.402 262.5 103.062C263.17 105.152 264.34 106.822 266 108.062Z" fill="#DADADB"/>
<path fill-rule="evenodd" clip-rule="evenodd" d="M272 107.062C271 107.062 270 107.062 269 107.062C268.35 105.752 267.68 104.422 267 103.062C268.12 100.962 269.62 100.632 271.5 102.062C271.99 103.692 272.16 105.362 272 107.062Z" fill="#D0CECF"/>
<path fill-rule="evenodd" clip-rule="evenodd" d="M273 98.062C273.33 98.062 273.67 98.062 274 98.062C275.7 99.102 277.37 99.102 279 98.062C280.2 98.412 280.2 98.912 279 99.562C279.95 100.042 280.95 100.212 282 100.062C281.26 105.002 279.43 105.332 276.5 101.062C276.28 102.502 275.78 103.832 275 105.062C272.77 102.992 272.1 100.662 273 98.062Z" fill="#B6B5B6"/>
<path fill-rule="evenodd" clip-rule="evenodd" d="M272 156.062C273.78 157.552 274.45 159.552 274 162.062C272.02 161.722 270.68 162.382 270 164.062C268.28 164.192 266.62 164.522 265 165.062C263.05 164.312 262.22 162.972 262.5 161.062C264.4 161.952 266.23 161.612 268 160.062C266.5 158.662 266.83 157.992 269 158.062C272.46 160.932 273.46 160.262 272 156.062Z" fill="#B1AFAF"/>
<path fill-rule="evenodd" clip-rule="evenodd" d="M210.999 163.062C214.459 163.232 214.789 164.232 211.999 166.062C211.109 165.242 210.779 164.242 210.999 163.062Z" fill="#ECEEED"/>
<path d="M326.999 188.062C327.959 188.512 328.789 189.183 329.499 190.062C335.419 203.562 342.079 216.563 349.499 229.062C352.249 239.982 354.589 250.983 356.499 262.062C357.609 270.112 356.769 277.953 353.999 285.562C355.139 287.612 356.799 288.272 358.999 287.562C363.489 285.483 367.829 283.152 371.999 280.562C375.419 276.893 377.579 272.722 378.499 268.062C371.499 262.423 369.499 255.422 372.499 247.062C380.269 242.903 385.439 244.903 387.999 253.062C390.949 255.662 393.949 255.492 396.999 252.562C404.529 251.433 408.359 254.593 408.499 262.062C405.969 267.932 401.639 271.593 395.499 273.062C394.359 276.672 392.689 280.013 390.499 283.062C384.369 290.202 377.869 297.033 370.999 303.562C362.039 304.892 353.039 306.063 343.999 307.062C336.589 319.302 327.259 329.803 315.999 338.562C305.509 343.302 295.179 348.303 284.999 353.562C286.529 366.012 288.029 378.513 289.499 391.062C295.399 392.583 300.399 395.583 304.499 400.062C305.169 401.392 305.169 402.733 304.499 404.062C304.269 409.292 301.599 412.293 296.499 413.062C291.009 411.233 285.509 409.402 279.999 407.562C275.269 404.603 272.099 400.442 270.499 395.062C269.959 383.063 269.459 371.062 268.999 359.062C258.609 361.002 248.109 362.002 237.499 362.062C228.829 362.102 220.329 361.432 211.999 360.062C213.459 373.022 214.459 386.023 214.999 399.062C220.619 400.293 225.449 402.953 229.499 407.062C230.839 411.692 229.669 415.353 225.999 418.062C223.369 418.652 220.709 418.983 217.999 419.062C207.089 420.022 198.589 416.022 192.499 407.062C191.519 403.783 192.349 401.112 194.999 399.062C195.329 396.893 195.669 394.732 195.999 392.562C194.899 380.693 193.569 368.862 191.999 357.062C179.549 353.083 167.219 348.582 154.999 343.562C150.399 341.353 146.229 338.512 142.499 335.062C141.899 338.202 140.899 341.203 139.499 344.062C136.329 347.892 133.169 351.733 129.999 355.562C126.549 356.592 123.219 357.923 119.999 359.562C114.719 360.292 111.719 357.962 110.999 352.562C111.789 349.313 113.129 346.312 114.999 343.562C110.349 342.233 105.679 340.902 100.999 339.562L92.4991 331.062C90.6691 325.783 90.5092 320.452 91.9991 315.062C96.099 302.453 102.099 290.782 109.999 280.062C110.909 264.073 111.579 248.072 111.999 232.062C117.409 231.763 122.739 230.932 127.999 229.562C147.909 224.363 167.409 217.862 186.499 210.062C193.189 212.992 199.359 216.833 204.999 221.562C235.969 237.322 264.969 234.322 291.999 212.562C301.329 201.073 312.989 192.903 326.999 188.062ZM115 302.062C111.2 309.282 109.37 316.943 109.5 325.062C117.19 326.962 125.03 327.792 133 327.562C126.36 319.433 120.36 310.932 115 302.062Z" fill="#FCFBFB"/>
<path fill-rule="evenodd" clip-rule="evenodd" d="M256 170.062C252.72 169.532 251.39 167.532 252 164.062C256.78 163.732 258.11 165.732 256 170.062Z" fill="#B8B6B7"/>
<path fill-rule="evenodd" clip-rule="evenodd" d="M245 175.062C242.12 176.672 239.12 178.002 236 179.062C234.76 177.592 233.76 175.922 233 174.062C235.46 172.832 237.79 171.332 240 169.562C244 169.002 245.67 170.832 245 175.062Z" fill="#8F8E8D"/>
<path fill-rule="evenodd" clip-rule="evenodd" d="M251 172.062C250.21 173.662 248.88 174.332 247 174.062C246.62 172.302 245.96 170.642 245 169.062C249.16 164.842 251.16 165.842 251 172.062Z" fill="#A3A19F"/>
<path fill-rule="evenodd" clip-rule="evenodd" d="M306.999 298.062C304.289 299.412 301.629 300.752 298.999 302.062C288.189 303.122 277.859 301.622 267.999 297.562C260.609 291.942 256.439 284.442 255.499 275.062C252.219 259.472 256.059 245.972 266.999 234.562C269.859 233.632 272.189 231.962 273.999 229.562C281.329 228.892 288.669 228.892 295.999 229.562C306.469 233.162 317.139 236.162 327.999 238.562C334.679 243.912 341.839 248.412 349.499 252.062C350.699 256.522 349.039 259.192 344.499 260.062C341.219 258.592 337.719 257.752 333.999 257.562C330.729 255.422 327.399 253.592 323.999 252.062C324.359 255.122 325.029 258.122 325.999 261.062C323.589 271.112 320.089 280.782 315.499 290.062C312.959 293.072 310.129 295.742 306.999 298.062Z" fill="#040404"/>
<path fill-rule="evenodd" clip-rule="evenodd" d="M169.999 233.062C182.519 231.782 194.519 233.612 205.999 238.562C210.419 241.562 212.579 245.722 212.499 251.062C218.929 258.252 221.599 266.582 220.499 276.062C217.229 281.602 214.229 287.272 211.499 293.062C200.819 305.952 187.319 310.452 170.999 306.562C155.089 297.892 147.589 284.392 148.499 266.062C148.899 264.692 149.399 263.352 149.999 262.062C149.669 261.732 149.329 261.392 148.999 261.062C144.819 265.082 140.479 268.912 135.999 272.562C133.409 274.252 130.749 274.412 127.999 273.062C126.839 269.442 126.669 265.772 127.499 262.062C133.429 252.792 141.259 245.632 150.999 240.562C157.199 237.552 163.529 235.052 169.999 233.062Z" fill="#040404"/>
<path fill-rule="evenodd" clip-rule="evenodd" d="M276 238.062C280.88 237.422 284.72 239.092 287.5 243.062C288.07 249.102 287.74 255.102 286.5 261.062C282.45 265.882 277.28 267.382 271 265.562C269.19 262.432 267.02 259.592 264.5 257.062C263.31 252.412 264.14 248.242 267 244.562C270.46 242.922 273.46 240.752 276 238.062Z" fill="#F5F5F5"/>
<path fill-rule="evenodd" clip-rule="evenodd" d="M190.999 245.062C202.749 244.652 207.589 250.322 205.499 262.062C203.319 268.752 198.819 273.082 191.999 275.062C180.069 269.372 177.909 261.042 185.499 250.062C187.229 248.162 189.059 246.492 190.999 245.062Z" fill="#F4F4F4"/>
<path fill-rule="evenodd" clip-rule="evenodd" d="M299 302.062C301.63 300.752 304.29 299.412 307 298.062C310.58 296.662 314.24 295.492 318 294.562C323.33 293.892 328.67 293.892 334 294.562C334.04 299.432 336.04 303.262 340 306.062C331.83 318.302 320.49 322.462 306 318.562C299.74 314.532 298.41 309.202 302 302.562C301.05 302.082 300.05 301.912 299 302.062Z" fill="#FEE2ED"/>
<path fill-rule="evenodd" clip-rule="evenodd" d="M141 303.062C153.85 302.402 165.85 305.232 177 311.562C182.61 317.282 182.28 322.612 176 327.562C164.49 333.172 152.83 333.502 141 328.562C139.17 326.732 137.33 324.892 135.5 323.062C134.83 317.732 134.83 312.392 135.5 307.062C137.31 305.582 139.15 304.252 141 303.062Z" fill="#FFE3EE"/>
<path fill-rule="evenodd" clip-rule="evenodd" d="M258 308.062C264.5 307.062 267 309.732 265.5 316.062C262.77 322.122 258.6 326.962 253 330.562C249.6 331.112 246.27 330.772 243 329.562C238.72 327.582 234.39 325.922 230 324.562C225.35 319.332 226.35 315.832 233 314.062C238.55 316.512 244.22 318.352 250 319.562C253.28 316.122 255.94 312.292 258 308.062Z" fill="#0C0C0C"/>
</svg>
