<svg width="500" height="500" viewBox="0 0 500 500" fill="none" xmlns="http://www.w3.org/2000/svg">
<path fill-rule="evenodd" clip-rule="evenodd" d="M237 68.0611C242.35 67.4211 244.52 69.7611 243.5 75.0611C240.07 78.8311 236.4 82.1711 232.5 85.0611C230.29 84.7111 228.79 83.5511 228 81.5611C229.16 75.7111 232.16 71.2111 237 68.0611Z" fill="#C3FBFF"/>
<path fill-rule="evenodd" clip-rule="evenodd" d="M202 75.0609C204.82 74.6409 206.99 75.6409 208.5 78.0609C214.95 85.3909 216.61 93.7309 213.5 103.061C212.81 103.921 211.98 104.581 211 105.061C208.08 100.961 204.92 96.9609 201.5 93.0609C198.03 86.9409 198.2 80.9409 202 75.0609Z" fill="#C3FBFF"/>
<path fill-rule="evenodd" clip-rule="evenodd" d="M163 79.0608C166.15 78.7708 169.15 79.2708 172 80.5608C174.83 82.7308 177.33 85.2308 179.5 88.0608C180.41 90.4808 179.58 91.8108 177 92.0608C171.98 89.3908 166.64 87.5508 161 86.5608C159.95 85.1708 159.78 83.6708 160.5 82.0608C161.54 81.1908 162.38 80.1908 163 79.0608Z" fill="#C4FBFF"/>
<path fill-rule="evenodd" clip-rule="evenodd" d="M233 98.0612C236.02 97.9012 239.02 98.0612 242 98.5612C243.08 100.291 243.24 102.121 242.5 104.061C237.2 109.301 231.03 110.801 224 108.561C222.95 107.171 222.78 105.671 223.5 104.061C226.65 101.911 229.81 99.9112 233 98.0612Z" fill="#C3FBFF"/>
<path fill-rule="evenodd" clip-rule="evenodd" d="M216 158.061C215.05 159.481 214.72 161.151 215 163.061C210.09 162.761 205.09 162.591 200 162.561C198.64 160.621 198.97 158.961 201 157.561C199.37 157.071 197.7 156.901 196 157.061C197.76 156.101 199.76 155.771 202 156.061C202.92 147.411 203.09 138.741 202.5 130.061C197.55 126.771 192.88 123.111 188.5 119.061C184 107.561 187.5 104.061 199 108.561C202.93 112.661 206.93 116.491 211 120.061C212.73 118.331 214.73 117.001 217 116.061C221.03 117.261 224.53 119.261 227.5 122.061C228.02 123.851 227.69 125.521 226.5 127.061C223.8 130.261 220.63 132.931 217 135.061C216 142.701 215.67 150.361 216 158.061Z" fill="#C2FAFF"/>
<path fill-rule="evenodd" clip-rule="evenodd" d="M196 157.061C197.7 156.901 199.37 157.071 201 157.561C198.97 158.961 198.64 160.621 200 162.561C205.09 162.591 210.09 162.761 215 163.061C214.72 161.151 215.05 159.481 216 158.061C240.4 161.471 262.4 170.641 282 185.561C299.01 200.561 313.84 217.401 326.5 236.061C334.26 250.351 340.26 265.351 344.5 281.061C350.11 294.951 356.78 308.281 364.5 321.061C368.75 325.591 373.58 329.261 379 332.061C382.44 331.191 385.77 330.021 389 328.561C381.35 318.291 378.19 306.791 379.5 294.061C382.71 281.021 390.87 273.351 404 271.061C412.62 272.181 418.46 276.851 421.5 285.061C423.98 295.591 425.48 306.261 426 317.061C435.81 314.291 445.81 313.461 456 314.561C468.73 319.521 472.56 328.351 467.5 341.061C461.19 349.021 453.02 354.181 443 356.561C435.33 356.891 427.67 357.231 420 357.561C416.71 363.181 412.38 367.851 407 371.561C395.16 379.311 383.49 387.311 372 395.561C361.42 400.351 350.76 404.851 340 409.061C328.71 400.741 317.04 392.911 305 385.561C288.52 377.691 271.52 371.191 254 366.061C253.02 366.541 252.19 367.201 251.5 368.061C247.62 378.151 242.95 387.821 237.5 397.061C232.13 403.781 225.63 408.941 218 412.561C212.54 413.401 207.37 412.571 202.5 410.061C201.25 407.481 200.92 404.821 201.5 402.061C205.12 396.771 209.12 391.771 213.5 387.061C216.93 378.431 220.93 370.101 225.5 362.061C226.21 360.191 225.71 358.691 224 357.561C215.3 356.411 206.64 355.081 198 353.561C188.98 352.841 179.98 353.011 171 354.061C165.65 353.341 160.32 352.501 155 351.561C130.97 350.381 106.97 348.881 83 347.061C83.15 348.111 82.98 349.111 82.5 350.061C80.88 350.661 79.38 351.331 78 352.061C68.51 353.021 59.84 350.851 52 345.561C45.76 339.991 40.26 333.821 35.5 327.061C33.31 322.831 31.81 318.331 31 313.561C31.6 307.361 34.26 302.361 39 298.561C41 297.891 43 297.891 45 298.561C49.16 307.051 54.5 314.721 61 321.561C64.17 323.651 67.51 325.481 71 327.061C69.67 294.221 74.17 262.221 84.5 231.061C101.51 194.391 129.68 171.221 169 161.561C177.79 158.841 186.79 157.341 196 157.061Z" fill="#6CD3FE"/>
<path fill-rule="evenodd" clip-rule="evenodd" d="M137 187.061C140.6 186.501 142.6 188.001 143 191.561C142.5 196.621 139.83 198.621 135 197.561C133.7 196.761 133.03 195.591 133 194.061C134.08 191.571 135.41 189.241 137 187.061Z" fill="#0D1316"/>
<path fill-rule="evenodd" clip-rule="evenodd" d="M228 190.061C231.36 189.631 234.2 190.631 236.5 193.061C236.99 198.551 234.49 200.391 229 198.561C225.49 196.031 225.15 193.201 228 190.061Z" fill="#0B1215"/>
<path fill-rule="evenodd" clip-rule="evenodd" d="M159 201.061C163.66 203.561 168.66 205.391 174 206.561C185.59 207.081 197.09 206.251 208.5 204.061C211.78 204.261 212.62 205.761 211 208.561C197.83 211.541 184.49 212.541 171 211.561C167.28 210.381 163.62 209.051 160 207.561C157.82 205.661 157.48 203.501 159 201.061Z" fill="#090F11"/>
<path fill-rule="evenodd" clip-rule="evenodd" d="M97.9996 272.061C102.86 272.131 106.86 270.301 110 266.561C111.38 265.321 112.71 265.151 114 266.061C112.3 269.011 111.3 272.171 111 275.561C114.79 302.121 128.79 309.791 153 298.561C158.36 293.541 162.53 287.711 165.5 281.061C166.15 274.841 164.65 269.171 161 264.061C161.84 258.901 159.84 255.071 155 252.561C145.93 247.551 136.26 245.891 126 247.561C120.24 249.251 114.58 251.081 109 253.061C126.89 233.151 149.23 225.651 176 230.561C187.08 231.361 198.08 232.691 209 234.561C225.79 242.121 241.46 251.451 256 262.561C269.39 275.341 271.55 289.841 262.5 306.061C246.06 329.611 223.4 340.611 194.5 339.061C178.23 339.101 162.07 337.931 146 335.561C132.2 332.421 120.7 325.581 111.5 315.061C106.76 307.311 102.43 299.311 98.4996 291.061C98.1496 284.581 97.9796 278.251 97.9996 272.061Z" fill="#FCFCFD"/>
<path fill-rule="evenodd" clip-rule="evenodd" d="M97.9996 272.061C97.3796 271.951 96.8796 271.621 96.4996 271.061C95.8296 268.731 95.8296 266.391 96.4996 264.061C100.27 259.781 104.43 256.121 109 253.061C114.58 251.081 120.24 249.251 126 247.561C136.26 245.891 145.93 247.551 155 252.561C159.84 255.071 161.84 258.901 161 264.061C164.65 269.171 166.15 274.841 165.5 281.061C162.53 287.711 158.36 293.541 153 298.561C128.79 309.791 114.79 302.121 111 275.561C111.3 272.171 112.3 269.011 114 266.061C112.71 265.151 111.38 265.321 110 266.561C106.86 270.301 102.86 272.131 97.9996 272.061Z" fill="#050506"/>
<path fill-rule="evenodd" clip-rule="evenodd" d="M209 256.061C213.38 256.141 217.71 256.641 222 257.561C230 260.891 238 264.231 246 267.561C251.21 272.441 256.71 276.941 262.5 281.061C263.33 285.561 261.5 287.391 257 286.561C254.77 285.411 252.44 284.411 250 283.561C248.48 281.871 246.82 280.371 245 279.061C244.18 282.341 243.68 285.681 243.5 289.061C240.42 294.891 237.09 300.561 233.5 306.061C221.97 314.771 210.13 314.931 198 306.561C195.79 304.691 193.96 302.521 192.5 300.061C186.72 280.861 192.22 266.191 209 256.061Z" fill="#040404"/>
<path fill-rule="evenodd" clip-rule="evenodd" d="M146 258.061C154.48 258.331 157.65 262.661 155.5 271.061C153.63 276.261 149.97 279.261 144.5 280.061C137.35 277.211 135.35 272.211 138.5 265.061C140.24 261.811 142.74 259.481 146 258.061Z" fill="#F4F4F4"/>
<path fill-rule="evenodd" clip-rule="evenodd" d="M209 263.061C214.58 262.331 217.58 264.661 218 270.061C217.18 273.711 216.34 277.381 215.5 281.061C206.76 286.111 201.26 283.611 199 273.561C199.13 271.931 199.63 270.431 200.5 269.061C203.47 267.131 206.31 265.131 209 263.061Z" fill="#F5F5F5"/>
<path fill-rule="evenodd" clip-rule="evenodd" d="M188 313.061C193.18 312.071 195.01 314.071 193.5 319.061C190.93 323.261 187.43 326.431 183 328.561C181.67 329.231 180.33 329.231 179 328.561C174.05 325.841 169.22 323.011 164.5 320.061C163.68 317.861 164.18 316.031 166 314.561C168.41 314.081 170.75 314.411 173 315.561C175.22 317.291 177.56 318.791 180 320.061C183.28 318.451 185.94 316.121 188 313.061Z" fill="#0F0F0F"/>
<path fill-rule="evenodd" clip-rule="evenodd" d="M340 409.061C332.76 412.311 325.43 415.481 318 418.561C307.18 422.351 296.18 425.681 285 428.561C249.68 433.601 214.35 433.941 179 429.561C158.38 424.421 138.72 416.761 120 406.561C110.23 398.801 101.07 390.301 92.5 381.061C88.56 372.841 84.89 364.511 81.5 356.061C81 354.021 79.84 352.681 78 352.061C79.38 351.331 80.88 350.661 82.5 350.061C82.98 349.111 83.15 348.111 83 347.061C106.97 348.881 130.97 350.381 155 351.561C160.32 352.501 165.65 353.341 171 354.061C179.98 353.011 188.98 352.841 198 353.561C206.64 355.081 215.3 356.411 224 357.561C225.71 358.691 226.21 360.191 225.5 362.061C220.93 370.101 216.93 378.431 213.5 387.061C209.12 391.771 205.12 396.771 201.5 402.061C200.92 404.821 201.25 407.481 202.5 410.061C207.37 412.571 212.54 413.401 218 412.561C225.63 408.941 232.13 403.781 237.5 397.061C242.95 387.821 247.62 378.151 251.5 368.061C252.19 367.201 253.02 366.541 254 366.061C271.52 371.191 288.52 377.691 305 385.561C317.04 392.911 328.71 400.741 340 409.061Z" fill="#9DE1F4"/>
</svg>
