<svg width="500" height="500" viewBox="0 0 500 500" fill="none" xmlns="http://www.w3.org/2000/svg">
<path fill-rule="evenodd" clip-rule="evenodd" d="M307 86.0615C298.84 86.8915 290.51 87.3915 282 87.5615C282.33 87.8915 282.67 88.2315 283 88.5615C251.68 88.1515 220.35 87.9815 189 88.0615C228.16 87.0415 267.5 86.3715 307 86.0615Z" fill="#65C284"/>
<path fill-rule="evenodd" clip-rule="evenodd" d="M460 345.062C454.68 344.582 449.34 344.252 444 344.062C444.17 337.392 444 330.722 443.5 324.062C435.91 315.302 426.41 311.302 415 312.062C414.18 309.112 413.68 306.112 413.5 303.062C411.46 301.352 409.79 299.352 408.5 297.062C405.23 296.432 402.06 295.762 399 295.062C401.89 292.012 405.22 289.512 409 287.562C415.99 287.062 422.99 286.892 430 287.062C430.83 273.092 431.49 259.092 432 245.062C429.9 215.102 428.56 185.102 428 155.062C400.14 159.872 387.14 148.202 389 120.062C383.56 118.942 378.06 118.272 372.5 118.062C352.01 118.802 331.51 119.302 311 119.562C305.79 120.942 300.45 121.772 295 122.062C231.64 121.242 168.31 120.742 105 120.562C103.92 121.522 102.75 122.352 101.5 123.062C101.98 139.532 94.8104 151.032 80.0004 157.562C75.1404 158.252 70.3004 158.092 65.5004 157.062C63.7904 157.002 62.4604 157.672 61.5004 159.062C58.9204 179.182 59.5804 199.182 63.5004 219.062C64.5104 241.092 65.6804 263.092 67.0004 285.062C71.6804 284.892 76.3504 285.062 81.0004 285.562C84.6504 287.052 88.3104 288.552 92.0004 290.062C92.6604 296.062 94.4904 301.722 97.5004 307.062C98.1704 308.062 98.1704 309.062 97.5004 310.062C93.8704 312.952 90.3704 315.952 87.0004 319.062C82.0104 317.162 77.0104 315.332 72.0004 313.562C62.5104 312.222 58.5104 316.382 60.0004 326.062C59.9004 329.562 60.5704 332.892 62.0004 336.062C58.0104 339.722 54.0104 343.392 50.0004 347.062C43.2404 343.132 38.4104 337.462 35.5004 330.062C34.6204 322.972 33.2904 315.972 31.5004 309.062C28.5504 249.762 27.5504 190.432 28.5004 131.062C29.4104 121.342 30.4104 111.682 31.5004 102.062C34.0904 98.8015 37.2604 96.3015 41.0004 94.5615C46.8204 92.3215 52.8204 90.6515 59.0004 89.5615C102.34 89.2915 145.67 88.7915 189 88.0615C220.35 87.9815 251.68 88.1515 283 88.5615C282.67 88.2315 282.33 87.8915 282 87.5615C290.51 87.3915 298.84 86.8915 307 86.0615C321.16 85.7215 335.33 85.3915 349.5 85.0615C377.66 86.4215 405.82 87.5915 434 88.5615C437.96 89.6515 441.96 90.6515 446 91.5615C448.6 92.4415 450.77 93.9415 452.5 96.0615C459.21 108.542 462.88 121.872 463.5 136.062C464.07 159.732 463.91 183.402 463 207.062C463.97 226.902 464.97 246.732 466 266.562C464.05 291.022 462.55 315.522 461.5 340.062C460.23 341.462 459.73 343.132 460 345.062Z" fill="#2DB05F"/>
<path fill-rule="evenodd" clip-rule="evenodd" d="M399 295.062C388.42 293.652 378.75 295.822 370 301.562C367.83 304.392 365.67 307.232 363.5 310.062C363.44 313.712 363.6 317.372 364 321.062C330.67 321.232 297.33 321.062 264 320.562C249.75 319.242 235.58 317.402 221.5 315.062C202.31 315.922 183.14 316.922 164 318.062C155.65 308.722 145.32 302.722 133 300.062C133.88 296.822 134.88 293.652 136 290.562C136.41 287.982 135.41 286.322 133 285.562C124.14 285.342 115.31 285.842 106.5 287.062C102.3 286.732 98.1295 286.572 93.9995 286.562C92.6795 287.382 92.0095 288.542 91.9995 290.062C88.3095 288.552 84.6495 287.052 80.9995 285.562C76.3495 285.062 71.6795 284.892 66.9995 285.062C65.6795 263.092 64.5095 241.092 63.4995 219.062C59.5795 199.182 58.9195 179.182 61.4995 159.062C62.4595 157.672 63.7895 157.002 65.4995 157.062C70.2995 158.092 75.1395 158.252 79.9995 157.562C94.8095 151.032 101.98 139.532 101.5 123.062C102.75 122.352 103.92 121.522 105 120.562C168.31 120.742 231.64 121.242 295 122.062C300.45 121.772 305.79 120.942 311 119.562C331.51 119.302 352.01 118.802 372.5 118.062C378.06 118.272 383.56 118.942 389 120.062C387.14 148.202 400.14 159.872 428 155.062C428.56 185.102 429.9 215.102 432 245.062C431.49 259.092 430.83 273.092 430 287.062C422.99 286.892 415.99 287.062 409 287.562C405.22 289.512 401.89 292.012 399 295.062Z" fill="#90EA5D"/>
<path fill-rule="evenodd" clip-rule="evenodd" d="M245 149.061C266.64 147.111 284.81 154.111 299.5 170.061C323.51 197.071 326.51 226.401 308.5 258.061C296.27 273.311 281.43 285.141 264 293.561C255.57 294.271 247.24 293.601 239 291.561C231.13 288.281 223.13 285.611 215 283.561C197.61 276.501 186.11 264.001 180.5 246.061C175.93 231.641 174.93 216.971 177.5 202.061C179.45 195.501 182.45 189.501 186.5 184.061C191.03 179.861 195.2 175.361 199 170.561C202.06 167.841 205.39 165.501 209 163.561C221 158.381 233 153.551 245 149.061Z" fill="#2EB05F"/>
<path fill-rule="evenodd" clip-rule="evenodd" d="M302 205.061C293.3 201.631 284.3 198.971 275 197.061C266.46 198.431 261.3 203.431 259.5 212.061C256.48 231.371 264.65 239.871 284 237.561C286.77 236.091 289.27 234.261 291.5 232.061C294.85 225.701 297.35 219.041 299 212.061C301.68 214.141 304.68 215.481 308 216.061C306.71 221.951 305.88 227.951 305.5 234.061C302.3 241.601 296.8 246.761 289 249.561C265.14 257.521 240.81 259.191 216 254.561C210.57 250.801 204.91 247.461 199 244.561C191.55 237.721 188.88 229.221 191 219.061C192.37 219.221 193.71 219.051 195 218.561C201.54 210.751 203.71 211.911 201.5 222.061C207.01 239.401 217.51 243.231 233 233.561C238.01 228.281 240.51 222.111 240.5 215.061C238.02 211.771 236.36 208.101 235.5 204.061C232.63 201.101 229.13 199.261 225 198.561C213.58 196.651 203.58 199.481 195 207.061C196.43 203.801 198.76 201.301 202 199.561C208.45 197.081 214.78 194.411 221 191.561C234.84 188.621 248.84 187.621 263 188.561C272.98 191.561 282.98 194.561 293 197.561C296.77 199.171 299.77 201.671 302 205.061Z" fill="#F9FBFA"/>
<path fill-rule="evenodd" clip-rule="evenodd" d="M191 219.062C189.87 216.932 189.7 214.602 190.5 212.062C192.02 210.322 193.52 208.652 195 207.062C203.58 199.482 213.58 196.652 225 198.562C229.13 199.262 232.63 201.102 235.5 204.062C236.36 208.102 238.02 211.772 240.5 215.062C240.51 222.112 238.01 228.282 233 233.562C217.51 243.232 207.01 239.402 201.5 222.062C203.71 211.912 201.54 210.752 195 218.562C193.71 219.052 192.37 219.222 191 219.062Z" fill="#080808"/>
<path fill-rule="evenodd" clip-rule="evenodd" d="M302 205.062C304.33 207.652 307.16 209.652 310.5 211.062C311.58 213.822 310.74 215.492 308 216.062C304.68 215.482 301.68 214.142 299 212.062C297.35 219.042 294.85 225.702 291.5 232.062C289.27 234.262 286.77 236.092 284 237.562C264.65 239.872 256.48 231.372 259.5 212.062C261.3 203.432 266.46 198.432 275 197.062C284.3 198.972 293.3 201.632 302 205.062Z" fill="#090A0A"/>
<path fill-rule="evenodd" clip-rule="evenodd" d="M270 203.062C277.78 202.632 280.11 206.132 277 213.562C275.36 217.692 272.36 219.022 268 217.562C262.45 211.932 263.11 207.092 270 203.062Z" fill="#EEEEEE"/>
<path fill-rule="evenodd" clip-rule="evenodd" d="M224 205.061C229.39 203.961 232.39 206.121 233 211.561C232.08 216.251 229.41 219.421 225 221.061C221.71 219.661 219.71 217.161 219 213.561C220.02 210.351 221.69 207.521 224 205.061Z" fill="#F0F0F0"/>
<path fill-rule="evenodd" clip-rule="evenodd" d="M109 204.061C127.73 202.951 135.9 211.621 133.5 230.061C130.4 236.491 125.9 241.661 120 245.561C106.93 247.941 98.4304 242.781 94.5004 230.061C93.6304 225.601 93.9704 221.271 95.5004 217.061C99.2404 211.821 103.74 207.491 109 204.061Z" fill="#2CB05F"/>
<path fill-rule="evenodd" clip-rule="evenodd" d="M368 205.061C385.55 203.131 394.38 210.791 394.5 228.061C392.67 233.891 388.83 237.731 383 239.561C363.65 244.201 354.81 236.701 356.5 217.061C359.19 211.871 363.02 207.871 368 205.061Z" fill="#2DB05F"/>
<path fill-rule="evenodd" clip-rule="evenodd" d="M260 240.062C262.41 239.802 264.08 240.802 265 243.062C262.91 246.772 260.24 249.942 257 252.562C254.95 252.882 252.95 252.552 251 251.562C248.48 250.062 245.98 248.562 243.5 247.062C242.56 244.332 243.56 243.002 246.5 243.062C249.03 244.322 251.69 245.322 254.5 246.062C257.18 244.882 259.01 242.882 260 240.062Z" fill="#161616"/>
<path fill-rule="evenodd" clip-rule="evenodd" d="M164 318.062C166.68 325.762 170.18 333.102 174.5 340.062C174.68 343.922 175.18 347.582 176 351.062C175.49 357.762 174.66 364.422 173.5 371.062C163.41 399.272 143.75 409.612 114.5 402.062C103.38 404.052 92.2196 405.722 80.9996 407.062C63.9396 406.102 51.7696 397.762 44.4996 382.062C43.8296 377.062 43.8296 372.062 44.4996 367.062C46.8196 360.462 48.6496 353.792 49.9996 347.062C54.0096 343.392 58.0096 339.722 61.9996 336.062C60.5696 332.892 59.8996 329.562 59.9996 326.062C58.5096 316.382 62.5096 312.222 71.9996 313.562C77.0096 315.332 82.0096 317.162 86.9996 319.062C90.3696 315.952 93.8696 312.952 97.4996 310.062C98.1696 309.062 98.1696 308.062 97.4996 307.062C94.4896 301.722 92.6596 296.062 91.9996 290.062C92.0096 288.542 92.6796 287.382 93.9996 286.562C98.1296 286.572 102.3 286.732 106.5 287.062C115.31 285.842 124.14 285.342 133 285.562C135.41 286.322 136.41 287.982 136 290.562C134.88 293.652 133.88 296.822 133 300.062C145.32 302.722 155.65 308.722 164 318.062Z" fill="#B98C0A"/>
<path fill-rule="evenodd" clip-rule="evenodd" d="M120 294.062C121.67 294.062 123.33 294.062 125 294.062C124.57 297.582 123.07 300.582 120.5 303.062C119.19 306.742 120.35 309.072 124 310.062C128.3 309.022 132.63 308.852 137 309.562C140.51 311.812 144.17 313.812 148 315.562C150.37 318.272 153.04 320.602 156 322.562C158.24 329.212 161.41 335.382 165.5 341.062C167.01 347.992 167.34 354.992 166.5 362.062C163.64 370.122 159.97 377.792 155.5 385.062C151.95 388.282 148.11 391.112 144 393.562C136.31 394.392 128.65 394.222 121 393.062C123.71 388.472 125.71 383.642 127 378.562C128.94 377.822 130.77 377.982 132.5 379.062C133.42 382.342 134.59 385.502 136 388.562C137.87 389.272 139.37 388.772 140.5 387.062C140.97 383.622 140.47 380.282 139 377.062C145.9 372.582 148.4 366.252 146.5 358.062C145 355.232 142.83 353.062 140 351.562C136.01 351.062 132.01 350.892 128 351.062C127 345.732 126 340.392 125 335.062C127.32 335.922 129.65 336.422 132 336.562C133.62 333.352 132.96 330.692 130 328.562C127.35 328.062 124.69 327.902 122 328.062C121.62 324.792 120.28 321.962 118 319.562C116.39 318.842 114.89 319.012 113.5 320.062C114.14 323.622 114.97 327.292 116 331.062C114.06 334.172 111.89 337.172 109.5 340.062C108.49 341.582 107.99 343.252 108 345.062C103.9 344.282 100.56 342.282 98 339.062C100.55 335.082 101.38 330.752 100.5 326.062C99.33 324.892 98.17 323.732 97 322.562C100.5 319.732 104 316.892 107.5 314.062C108.08 311.912 108.58 309.742 109 307.562C106.09 304.282 103.76 300.442 102 296.062C108.15 295.392 114.15 294.732 120 294.062Z" fill="#E1C265"/>
<path fill-rule="evenodd" clip-rule="evenodd" d="M399 295.062C402.06 295.762 405.23 296.432 408.5 297.062C409.79 299.352 411.46 301.352 413.5 303.062C413.68 306.112 414.18 309.112 415 312.062C426.41 311.302 435.91 315.302 443.5 324.062C444 330.722 444.17 337.392 444 344.062C449.34 344.252 454.68 344.582 460 345.062C463.94 345.342 467.44 346.682 470.5 349.062C471.17 358.392 471.17 367.732 470.5 377.062C468.64 384.272 467.64 391.602 467.5 399.062C460.34 406.892 451.5 409.232 441 406.062C431.49 417.132 421.16 417.802 410 408.062C403.59 411.162 396.75 412.492 389.5 412.062C382.92 413.272 377.42 411.442 373 406.562C372 406.392 371 406.232 370 406.062C354 414.452 341.5 410.782 332.5 395.062C331.83 391.732 331.17 388.392 330.5 385.062C330.21 374.372 329.71 363.712 329 353.062C327.42 349.552 326.92 345.882 327.5 342.062C331.04 337.542 335.54 334.372 341 332.562C348.38 331.762 355.72 331.932 363 333.062C363.99 329.112 364.32 325.112 364 321.062C363.6 317.372 363.44 313.712 363.5 310.062C365.67 307.232 367.83 304.392 370 301.562C378.75 295.822 388.42 293.652 399 295.062Z" fill="#ECB30A"/>
<path fill-rule="evenodd" clip-rule="evenodd" d="M384 302.061C390.4 301.801 396.73 302.301 403 303.561C406.14 304.481 407.14 306.311 406 309.061C402.84 310.721 399.51 311.891 396 312.561C387.67 313.061 379.34 313.231 371 313.061C370.89 310.661 371.89 308.821 374 307.561C377.05 305.061 380.38 303.221 384 302.061Z" fill="#FEE644"/>
<path fill-rule="evenodd" clip-rule="evenodd" d="M364 321.062C364.32 325.112 363.99 329.112 363 333.062C355.72 331.932 348.38 331.762 341 332.562C335.54 334.372 331.04 337.542 327.5 342.062C326.92 345.882 327.42 349.552 329 353.062C314.66 352.812 300.33 352.482 286 352.062C282.2 350.042 278.2 349.712 274 351.062C256.61 351.502 239.27 350.842 222 349.062C220.45 347.922 218.62 347.262 216.5 347.062C214.51 347.132 213.01 347.802 212 349.062C199.87 348.592 187.87 349.252 176 351.062C175.18 347.582 174.68 343.922 174.5 340.062C170.18 333.102 166.68 325.762 164 318.062C183.14 316.922 202.31 315.922 221.5 315.062C235.58 317.402 249.75 319.242 264 320.562C297.33 321.062 330.67 321.232 364 321.062Z" fill="#2DB05E"/>
<path fill-rule="evenodd" clip-rule="evenodd" d="M404 317.062C405 317.062 406 317.062 407 317.062C407.29 318.852 406.95 320.512 406 322.062C396.83 326.362 387.17 327.862 377 326.562C373.66 325.442 371.66 323.272 371 320.062C380.34 320.232 389.67 320.062 399 319.562C400.99 319.192 402.66 318.352 404 317.062Z" fill="#FDE341"/>
<path fill-rule="evenodd" clip-rule="evenodd" d="M418 318.062C425.54 318.662 431.87 321.662 437 327.062C435.37 331.042 432.37 332.712 428 332.062C423.6 332.132 419.6 330.962 416 328.562C414.61 327.602 413.94 326.272 414 324.562C415.51 322.542 416.84 320.372 418 318.062Z" fill="#FEE543"/>
<path fill-rule="evenodd" clip-rule="evenodd" d="M68.9996 322.062C76.8096 324.492 84.4796 327.492 91.9996 331.062C88.6796 335.192 87.5096 339.852 88.4996 345.062C94.2296 349.182 100.4 352.682 107 355.562C120.26 366.772 121.26 378.772 110 391.562C99.2096 396.222 87.8696 398.382 75.9996 398.062C75.8396 395.702 75.9996 393.372 76.4996 391.062C92.9296 386.512 94.2596 379.182 80.4996 369.062C79.6896 366.662 79.8496 364.322 80.9996 362.062C83.9896 363.672 85.9896 362.842 86.9996 359.562C85.8896 357.452 84.3896 355.612 82.4996 354.062C82.1696 351.392 81.8296 348.732 81.4996 346.062C79.4996 344.732 77.4996 344.732 75.4996 346.062C74.9996 348.712 74.8396 351.372 74.9996 354.062C67.5996 355.802 63.2696 360.462 61.9996 368.062C61.9096 370.472 62.9096 372.302 64.9996 373.562C67.3996 373.752 69.7296 374.252 71.9996 375.062C71.4296 377.742 70.7596 380.402 69.9996 383.062C68.5996 380.932 66.7696 379.272 64.4996 378.062C61.4296 379.012 60.4296 381.012 61.4996 384.062C63.5696 386.632 66.0696 388.632 68.9996 390.062C70.3296 392.062 70.3296 394.062 68.9996 396.062C62.6396 391.872 57.4796 386.542 53.4996 380.062C52.8296 376.062 52.8296 372.062 53.4996 368.062C55.8496 363.002 57.1796 357.672 57.4996 352.062C60.0896 350.012 62.5896 347.842 64.9996 345.562C73.9196 343.732 75.4196 339.232 69.4996 332.062C68.9996 328.742 68.8296 325.412 68.9996 322.062Z" fill="#E1C265"/>
<path fill-rule="evenodd" clip-rule="evenodd" d="M405 330.062C405.97 332.172 406.3 334.502 406 337.062C395.49 339.762 384.83 340.602 374 339.562C370.12 337.812 369.12 334.982 371 331.062C375.3 333.462 379.97 334.462 385 334.062C392.03 333.962 398.7 332.632 405 330.062Z" fill="#FDE543"/>
<path fill-rule="evenodd" clip-rule="evenodd" d="M415 336.062C417.68 336.792 420.35 337.622 423 338.562C427.84 338.912 432.5 339.082 437 339.062C431.6 343.872 425.26 345.372 418 343.562C416.44 342.622 415.11 341.452 414 340.062C414.75 338.822 415.08 337.492 415 336.062Z" fill="#FDE442"/>
<path fill-rule="evenodd" clip-rule="evenodd" d="M342 339.062C348.67 339.062 355.33 339.062 362 339.062C361.81 342.542 360.81 345.712 359 348.562C355.26 350.472 351.42 351.972 347.5 353.062C342.84 352.742 338.84 351.072 335.5 348.062C334.7 346.302 334.87 344.632 336 343.062C338.07 341.702 340.07 340.372 342 339.062Z" fill="#FEE543"/>
<path fill-rule="evenodd" clip-rule="evenodd" d="M117 340.062C118.43 340.442 119.26 341.442 119.5 343.062C120.54 346.322 121.04 349.652 121 353.062C115.2 352.752 113.03 349.752 114.5 344.062C115.98 343.092 116.81 341.762 117 340.062Z" fill="#E1C163"/>
<path fill-rule="evenodd" clip-rule="evenodd" d="M402 344.062C403.33 344.062 404.67 344.062 406 344.062C406.64 347.112 405.64 349.272 403 350.562C397.15 352.312 391.15 353.142 385 353.062C377.4 354.772 372.4 352.102 370 345.062C380.87 347.912 391.54 347.582 402 344.062Z" fill="#FDE340"/>
<path fill-rule="evenodd" clip-rule="evenodd" d="M222 349.062C221.83 353.412 222 357.742 222.5 362.062C226.95 374.012 227.62 386.012 224.5 398.062C222.91 399.862 220.91 400.862 218.5 401.062C211.99 400.352 205.49 399.512 199 398.562C197.38 397.442 196.38 395.942 196 394.062C197.06 391.492 198.73 389.332 201 387.562C205.65 387.062 210.32 386.892 215 387.062C214.59 374.332 213.59 361.672 212 349.062C213.01 347.802 214.51 347.132 216.5 347.062C218.62 347.262 220.45 347.922 222 349.062Z" fill="#0B0C0C"/>
<path fill-rule="evenodd" clip-rule="evenodd" d="M286 352.062C283.87 363.302 283.54 374.632 285 386.062C289.68 385.892 294.35 386.062 299 386.562C301.89 389.572 303.39 393.072 303.5 397.062C303 397.562 302.5 398.062 302 398.562C295 399.302 288 399.642 281 399.562C277.57 396.192 275.74 392.022 275.5 387.062C275 375.062 274.5 363.062 274 351.062C278.2 349.712 282.2 350.042 286 352.062Z" fill="#0A0A0A"/>
<path fill-rule="evenodd" clip-rule="evenodd" d="M435 348.062C435.88 347.932 436.54 348.262 437 349.062C434.01 354.542 429.34 357.372 423 357.562C418.11 359.252 415.11 357.582 414 352.562C414.11 351.282 414.78 350.452 416 350.062C421.61 351.182 427.28 351.352 433 350.562C433.88 349.852 434.55 349.022 435 348.062Z" fill="#FDE442"/>
<path fill-rule="evenodd" clip-rule="evenodd" d="M445 351.062C451.04 351.402 457.04 352.072 463 353.062C463.26 355.352 462.92 357.522 462 359.562C456.19 361.622 450.19 362.452 444 362.062C443.74 358.292 444.08 354.622 445 351.062Z" fill="#FEE543"/>
<path fill-rule="evenodd" clip-rule="evenodd" d="M131 357.062C138.33 355.892 141.49 358.892 140.5 366.062C139.15 367.582 137.65 368.912 136 370.062C133.5 366.062 131.83 361.722 131 357.062Z" fill="#E1C163"/>
<path fill-rule="evenodd" clip-rule="evenodd" d="M362 354.062C363.84 354.762 364.34 356.102 363.5 358.062C355.68 365.962 347.18 366.962 338 361.062C337.11 360.242 336.78 359.242 337 358.062C342.64 359.022 348.31 359.192 354 358.562C357.13 357.702 359.8 356.202 362 354.062Z" fill="#FDE442"/>
<path fill-rule="evenodd" clip-rule="evenodd" d="M404 357.062C405.09 357.182 405.75 357.852 406 359.062C403.24 364.112 398.91 366.612 393 366.562C385.42 368.022 378.42 366.682 372 362.562C370.75 361.072 370.75 359.572 372 358.062C382.86 360.822 393.53 360.492 404 357.062Z" fill="#FEE543"/>
<path fill-rule="evenodd" clip-rule="evenodd" d="M430 362.061C432.48 361.611 434.48 362.281 436 364.061C431.7 366.541 427.37 369.041 423 371.561C416.07 372.461 413.07 369.621 414 363.061C419.56 364.521 424.89 364.191 430 362.061Z" fill="#FDE341"/>
<path fill-rule="evenodd" clip-rule="evenodd" d="M362 367.062C363.19 367.532 363.86 368.532 364 370.062C363.83 371.062 363.67 372.062 363.5 373.062C356.54 378.992 348.71 380.492 340 377.562C337.04 375.292 336.37 372.462 338 369.062C343.29 371.922 348.96 372.762 355 371.562C357.74 370.532 360.07 369.032 362 367.062Z" fill="#FDE543"/>
<path fill-rule="evenodd" clip-rule="evenodd" d="M461 366.062C462 366.062 463 366.062 464 366.062C464.97 370.932 462.97 373.092 458 372.562C457 373.562 456 374.562 455 375.562C451.01 376.062 447.01 376.232 443 376.062C442.69 373.312 443.02 370.652 444 368.062C450.04 369.692 455.71 369.022 461 366.062Z" fill="#FDE543"/>
<path fill-rule="evenodd" clip-rule="evenodd" d="M371 370.062C382.3 375.392 393.64 375.392 405 370.062C405.97 372.302 406.31 374.642 406 377.062C402.98 377.402 400.32 378.572 398 380.562C392 381.232 386 381.232 380 380.562C377.25 379.442 374.75 377.942 372.5 376.062C371.37 374.212 370.87 372.212 371 370.062Z" fill="#FDE442"/>
<path fill-rule="evenodd" clip-rule="evenodd" d="M459 380.062C460.33 380.062 461.67 380.062 463 380.062C463 381.392 463 382.732 463 384.062C459.13 384.742 455.79 386.572 453 389.562C448.93 390.522 445.09 390.022 441.5 388.062C441 386.092 440.84 384.092 441 382.062C445.96 383.062 450.96 383.222 456 382.562C457.44 382.182 458.44 381.352 459 380.062Z" fill="#FCE240"/>
<path fill-rule="evenodd" clip-rule="evenodd" d="M365 380.062C366.25 380.892 366.91 382.232 367 384.062C366.83 385.392 366.67 386.732 366.5 388.062C364.32 389.232 362.15 390.402 360 391.562C353.67 392.232 347.33 392.232 341 391.562C338.58 390.052 337.58 387.882 338 385.062C347.87 387.532 356.87 385.862 365 380.062Z" fill="#FDE341"/>
<path fill-rule="evenodd" clip-rule="evenodd" d="M404 384.062C405 384.062 406 384.062 407 384.062C407.29 385.852 406.95 387.512 406 389.062C396.91 393.872 387.25 395.032 377 392.562C374.3 390.982 373.63 388.822 375 386.062C382.54 388.032 390.21 388.532 398 387.562C400.23 386.622 402.23 385.452 404 384.062Z" fill="#FDE442"/>
<path fill-rule="evenodd" clip-rule="evenodd" d="M432 387.062C433.81 388.482 434.47 390.482 434 393.062C427.82 394.982 421.49 395.482 415 394.562C414.54 394.152 414.21 393.652 414 393.062C418.3 392.232 422.63 391.732 427 391.562C429.12 390.512 430.78 389.012 432 387.062Z" fill="#FEE745"/>
<path fill-rule="evenodd" clip-rule="evenodd" d="M404 398.062C406.89 398.562 407.56 400.062 406 402.562C398.17 404.882 390.17 405.552 382 404.562C379.67 402.892 377.33 401.232 375 399.562C379.15 399.422 383.32 399.582 387.5 400.062C393.2 399.812 398.7 399.142 404 398.062Z" fill="#FDE341"/>
</svg>
