<svg width="500" height="500" viewBox="0 0 500 500" fill="none" xmlns="http://www.w3.org/2000/svg">
<path fill-rule="evenodd" clip-rule="evenodd" d="M242 82.0615C239.853 87.2365 239.353 92.5695 240.5 98.0615C239.438 99.4605 238.105 100.461 236.5 101.062C234.573 99.7005 232.406 98.8675 230 98.5615C228.613 96.5165 227.446 94.3495 226.5 92.0615C227.287 87.4895 227.787 82.8235 228 78.0615C228.331 74.7365 228.664 71.4025 229 68.0615C228.118 59.7215 227.618 51.3875 227.5 43.0615C229.376 40.1955 232.042 38.5295 235.5 38.0615C238.863 39.6275 242.363 40.7935 246 41.5615C247.5 42.3945 248.667 43.5615 249.5 45.0615C250.167 48.7285 250.167 52.3945 249.5 56.0615C246.693 64.6465 244.193 73.3135 242 82.0615Z" fill="#B17B68"/>
<path fill-rule="evenodd" clip-rule="evenodd" d="M385 234.062C378.968 237.121 373.135 240.454 367.5 244.062C368.843 246.803 370.343 249.636 372 252.562C375.447 252.754 378.78 252.087 382 250.562C386.833 247.873 391.5 245.04 396 242.062C398.556 251.541 394.889 257.207 385 259.062C382.283 264.285 378.616 268.785 374 272.562C374.145 273.334 374.478 274.001 375 274.562C380.212 275.579 384.045 278.413 386.5 283.062C386.416 287.441 386.582 291.774 387 296.062C386.403 300.494 384.07 303.661 380 305.562C375.117 306.634 370.45 308.301 366 310.562C360.292 315.939 354.292 320.939 348 325.562C353.878 329.772 358.711 334.939 362.5 341.062C365.448 351.319 361.615 357.486 351 359.562C342.331 361.229 333.664 362.896 325 364.562C324.829 373.076 322.995 381.243 319.5 389.062C314.825 391.518 310.658 394.684 307 398.562C304 399.229 301 399.229 298 398.562C291.803 393.531 286.136 388.031 281 382.062C275.737 376.039 272.737 377.039 272 385.062C268.074 392.156 262.574 397.822 255.5 402.062C250.758 412.996 243.591 414.829 234 407.562C227.761 401.88 223.094 395.38 220 388.062C219.094 385.648 217.428 384.815 215 385.562C213.742 387.303 212.742 389.136 212 391.062C208.629 396.614 204.629 401.781 200 406.562C195.475 407.122 191.475 408.789 188 411.562C179.437 412.683 174.604 408.85 173.5 400.062C173.167 396.729 172.833 393.395 172.5 390.062C167.716 384.606 163.716 378.606 160.5 372.062C160.635 368.808 160.469 365.642 160 362.562C159 361.895 158 361.895 157 362.562C148.521 370.472 138.521 374.472 127 374.562C121.908 371.545 119.574 367.045 120 361.062C120.252 355.967 121.086 350.967 122.5 346.062C123.167 339.729 123.167 333.395 122.5 327.062C121.5 326.062 120.5 325.062 119.5 324.062C111.522 326.607 104.022 330.107 96.9998 334.562C93.3778 335.668 89.7108 336.001 85.9998 335.562C83.8398 334.566 82.1728 333.066 80.9998 331.062C82.9258 324.536 85.4258 318.203 88.4998 312.062C92.0528 306.791 95.2188 301.291 97.9998 295.562C97.5598 291.953 95.5598 290.453 91.9998 291.062C92.7118 288.634 93.7118 286.301 94.9998 284.062C91.2458 281.752 87.2458 279.919 82.9998 278.562C78.4438 278.453 74.1108 277.453 69.9998 275.562C64.1008 267.995 64.9338 261.161 72.4998 255.062C77.5968 241.7 85.0968 229.867 94.9998 219.562C88.6238 213.703 81.2898 209.37 72.9998 206.562C70.2918 204.146 68.6248 201.146 67.9998 197.562C68.6638 193.418 69.1638 189.251 69.4998 185.062C70.9998 182.229 73.1668 180.062 75.9998 178.562C86.2788 174.398 96.6128 170.898 107 168.062C102.268 163.5 98.1018 158.5 94.4998 153.062C87.5138 136.725 93.0138 128.058 111 127.062C114.231 127.417 117.398 128.083 120.5 129.062C121.607 128.977 122.607 128.643 123.5 128.062C124.269 123.384 125.102 118.717 126 114.062C123.173 106.322 123.339 98.6556 126.5 91.0616C129.464 87.5126 133.297 85.6796 138 85.5616C141.086 82.5446 144.752 81.5446 149 82.5616C158.278 87.1626 166.445 93.3296 173.5 101.062C183.114 90.6296 191.614 79.4636 199 67.5616C204.045 67.0106 209.045 67.3436 214 68.5616C218.548 71.9496 223.214 75.1166 228 78.0616C227.787 82.8236 227.287 87.4896 226.5 92.0616C227.446 94.3496 228.613 96.5166 230 98.5616C232.406 98.8676 234.573 99.7006 236.5 101.062C238.105 100.461 239.438 99.4606 240.5 98.0616C239.353 92.5696 239.853 87.2366 242 82.0616C249.436 77.1396 256.769 71.9726 264 66.5616C274.937 58.0266 284.104 59.5266 291.5 71.0616C294.938 79.0416 297.771 87.2086 300 95.5616C313.301 95.4556 326.634 96.1216 340 97.5616C344.107 98.8116 347.607 100.979 350.5 104.062C351.922 106.592 352.255 109.259 351.5 112.062C348.886 118.881 346.053 125.714 343 132.562C348.013 136.07 353.347 139.07 359 141.562C368.611 141.183 373.778 145.683 374.5 155.062C380.452 160.675 380.285 166.175 374 171.562C372.108 172.535 370.108 173.202 368 173.562C365.593 176.3 363.593 179.3 362 182.562C370.443 187.959 378.776 193.626 387 199.562C394.899 206.192 394.899 212.859 387 219.562C381.106 222.343 375.106 224.843 369 227.062C374.4 229.411 379.734 231.745 385 234.062Z" fill="#AEDC2D"/>
<path fill-rule="evenodd" clip-rule="evenodd" d="M230 178.062C246.01 178.176 262.01 178.676 278 179.562C296.494 186.398 312.661 196.898 326.5 211.062C340.907 231.112 342.907 252.445 332.5 275.062C326.237 284.659 318.07 292.159 308 297.562C295.643 305.014 282.309 309.681 268 311.562C254.405 313.766 240.738 315.266 227 316.062C191.054 316.871 164.221 301.871 146.5 271.062C141.934 259.379 141.934 247.713 146.5 236.062C155.361 217.198 168.528 202.031 186 190.562C200.076 183.88 214.742 179.714 230 178.062Z" fill="#FDFDFC"/>
<path fill-rule="evenodd" clip-rule="evenodd" d="M396 242.062C391.5 245.04 386.833 247.873 382 250.562C378.78 252.087 375.447 252.754 372 252.562C370.343 249.636 368.843 246.803 367.5 244.062C373.135 240.454 378.968 237.121 385 234.062C400.392 224.84 410.726 211.673 416 194.562C413.754 192.175 411.588 189.675 409.5 187.062C408.76 184.386 408.427 181.72 408.5 179.062C410.226 177.986 412.059 177.819 414 178.562C417.292 180.791 420.792 182.625 424.5 184.062C425.333 183.895 426.167 183.729 427 183.562C428.285 181.139 430.118 179.306 432.5 178.062C440.09 177.962 442.423 181.295 439.5 188.062C435.378 192.452 430.711 196.119 425.5 199.062C418.632 215.475 408.799 229.809 396 242.062Z" fill="#070706"/>
<path fill-rule="evenodd" clip-rule="evenodd" d="M269.999 216.062C284.617 215.848 298.95 217.681 312.999 221.562C318.962 225.127 325.129 228.294 331.499 231.062C332.813 234.743 331.646 237.076 327.999 238.062C322.11 238.001 316.776 236.335 311.999 233.062C313.04 244.928 310.54 256.261 304.499 267.062C301.298 270.598 297.798 273.765 293.999 276.562C268.153 282.002 254.819 271.668 253.999 245.562C253.752 232.546 259.086 222.713 269.999 216.062Z" fill="#040404"/>
<path fill-rule="evenodd" clip-rule="evenodd" d="M269 225.062C273.723 224.115 277.556 225.448 280.5 229.062C280.75 234.076 280.416 239.076 279.5 244.062C276.192 247.889 272.026 249.056 267 247.562C265.513 245.077 263.679 242.91 261.5 241.062C260.833 238.395 260.833 235.729 261.5 233.062C264.329 230.725 266.829 228.058 269 225.062Z" fill="#F4F4F4"/>
<path fill-rule="evenodd" clip-rule="evenodd" d="M185 227.062C191.342 226.896 197.675 227.062 204 227.562C211.967 228.202 216.801 232.368 218.5 240.062C228.52 250.209 229.52 261.209 221.5 273.062C213.789 286.311 202.289 291.478 187 288.562C181.269 285.79 176.435 281.956 172.5 277.062C171.107 273.276 169.441 269.61 167.5 266.062C167.167 261.729 166.833 257.395 166.5 253.062C163.703 256.861 160.536 260.361 157 263.562C154.746 265.213 152.412 265.38 150 264.062C148.843 260.778 148.676 257.444 149.5 254.062C153.282 246.614 158.782 240.78 166 236.562C172.147 232.822 178.48 229.655 185 227.062Z" fill="#050505"/>
<path fill-rule="evenodd" clip-rule="evenodd" d="M202.001 236.062C209.087 235.982 212.754 239.482 213.001 246.562C212.996 255.56 208.663 260.227 200.001 260.562C190.519 251.607 191.186 243.44 202.001 236.062Z" fill="#F5F5F5"/>
<path fill-rule="evenodd" clip-rule="evenodd" d="M261 283.062C264.599 282.5 266.599 284 267 287.562C265.534 293.495 262.534 298.495 258 302.562C249.831 303.167 242.331 301.333 235.5 297.062C234.782 293.103 236.449 290.77 240.5 290.062C243.73 291.028 246.897 292.195 250 293.562C251.333 294.229 252.667 294.229 254 293.562C256.22 289.947 258.553 286.447 261 283.062Z" fill="#0B0B0B"/>
<path fill-rule="evenodd" clip-rule="evenodd" d="M92.0004 291.062C95.5604 290.453 97.5604 291.953 98.0004 295.562C95.2194 301.291 92.0534 306.791 88.5004 312.062C85.4264 318.203 82.9264 324.536 81.0004 331.062C78.5924 337.108 76.2594 343.274 74.0004 349.562C78.3264 349.469 82.6594 349.469 87.0004 349.562C90.4934 351.04 90.8264 353.04 88.0004 355.562C78.4284 358.016 70.4284 363.016 64.0004 370.562C61.0224 371.422 59.6884 370.255 60.0004 367.062C60.6834 363.363 62.1834 360.03 64.5004 357.062C65.9214 348.791 66.9214 340.458 67.5004 332.062C68.6374 323.125 71.9704 315.125 77.5004 308.062C81.8674 301.992 86.7004 296.326 92.0004 291.062Z" fill="#070706"/>
<path fill-rule="evenodd" clip-rule="evenodd" d="M281 382.062C284.598 398.778 289.598 415.111 296 431.062C296.333 431.395 296.667 431.729 297 432.062C301.115 427.667 306.115 425.5 312 425.562C314.084 427.063 315.417 429.063 316 431.562C313.281 440.34 307.948 447.007 300 451.562C298.053 452.553 296.053 452.887 294 452.562C291.46 450.357 289.293 447.857 287.5 445.062C285.168 438.407 282.835 431.74 280.5 425.062C278.473 411.421 275.64 398.087 272 385.062C272.737 377.039 275.737 376.039 281 382.062Z" fill="#050505"/>
<path fill-rule="evenodd" clip-rule="evenodd" d="M220 388.062C220.166 392.076 219.999 396.076 219.5 400.062C214.061 420.274 206.395 439.607 196.5 458.062C194.826 461.815 191.993 463.315 188 462.562C180.217 458.446 174.05 452.612 169.5 445.062C169.099 438.479 172.265 435.979 179 437.562C183.628 439.543 187.961 442.043 192 445.062C194.574 439.579 197.408 434.246 200.5 429.062C204.041 416.216 207.874 403.549 212 391.062C212.742 389.136 213.742 387.303 215 385.562C217.428 384.815 219.094 385.648 220 388.062Z" fill="#060606"/>
</svg>
