<svg width="500" height="500" viewBox="0 0 500 500" fill="none" xmlns="http://www.w3.org/2000/svg">
<path fill-rule="evenodd" clip-rule="evenodd" d="M377 325.062C371.819 314.522 367.819 303.522 365 292.062C356.73 290.462 348.397 289.292 340 288.562C321.572 281.852 305.239 271.852 291 258.562C275.239 249.412 259.573 240.082 244 230.562C235.087 226.272 226.087 222.272 217 218.562C204.102 214.372 191.102 210.372 178 206.562C165.354 205.592 152.687 205.092 140 205.062C119.668 205.792 99.3339 205.962 78.9999 205.562C75.064 204.592 71.3973 203.092 67.9999 201.062C63.6968 197.592 59.8634 193.592 56.4999 189.062C49.4297 173.752 49.4297 158.412 56.4999 143.062C62.884 133.672 70.384 125.172 78.9999 117.562C88.3827 109.842 98.0489 102.512 108 95.5617C113.891 91.4517 120.224 88.1117 127 85.5617C174.214 71.4917 220.881 73.1617 267 90.5617C289.645 99.3817 310.645 111.052 330 125.562C336.587 132.842 343.92 139.172 352 144.562C362.617 155.972 373.117 167.472 383.5 179.062C395.253 197.162 402.753 216.822 406 238.062C413.493 240.472 420.493 243.972 427 248.562C435.181 254.412 442.348 261.242 448.5 269.062C451.563 274.932 454.23 280.932 456.5 287.062C459.785 298.442 456.619 307.272 447 313.562C437.905 314.352 429.571 312.182 422 307.062C424.402 319.992 421.568 331.652 413.5 342.062C406.359 348.022 398.859 348.522 391 343.562C385.948 337.592 381.282 331.432 377 325.062Z" fill="#FE814B"/>
<path fill-rule="evenodd" clip-rule="evenodd" d="M191 89.0615C199.007 88.8915 207.007 89.0615 215 89.5615C224.395 91.6215 233.728 93.7915 243 96.0615C243.199 99.5015 242.699 102.831 241.5 106.061C238.086 112.561 234.419 118.891 230.5 125.061C225.509 128.811 220.009 131.311 214 132.561C210.177 136.181 210.011 140.011 213.5 144.061C223.798 150.301 230.464 159.301 233.5 171.061C236.809 183.351 236.642 195.521 233 207.561C232.667 208.061 232.333 208.561 232 209.061C220.711 205.241 209.711 200.741 199 195.561C195.009 194.921 191.009 194.421 187 194.061C188.471 185.501 189.471 176.831 190 168.061C187.759 156.141 182.759 145.471 175 136.061C179.991 130.081 184.491 123.741 188.5 117.061C191.435 107.741 190.269 99.0815 185 91.0615C187.131 90.3915 189.131 89.7215 191 89.0615Z" fill="#FE9C71"/>
<path fill-rule="evenodd" clip-rule="evenodd" d="M170 92.0615C171.333 92.0615 172.667 92.0615 174 92.0615C181.922 110.732 176.922 124.892 159 134.562C155.107 138.312 155.107 141.972 159 145.562C163.115 148.012 166.948 150.842 170.5 154.062C175.536 163.202 177.869 172.872 177.5 183.062C176.455 186.002 175.621 189.002 175 192.062C163.274 193.492 151.607 193.162 140 191.062C145.178 177.512 143.678 164.852 135.5 153.062C132.6 150.162 129.767 147.332 127 144.562C134.238 130.832 133.238 117.832 124 105.562C129.637 102.362 135.637 100.032 142 98.5615C151.678 96.9715 161.011 94.8015 170 92.0615Z" fill="#FE9B70"/>
<path fill-rule="evenodd" clip-rule="evenodd" d="M257 102.062C277.356 106.782 295.356 115.942 311 129.562C304.616 134.942 297.95 139.942 291 144.562C285.402 145.762 279.735 146.762 274 147.562C271.21 149.772 270.377 152.602 271.5 156.062C285.082 172.812 290.082 191.812 286.5 213.062C282.643 220.782 276.976 226.782 269.5 231.062C261.183 225.732 252.85 220.402 244.5 215.062C244.187 205.562 244.354 196.062 245 186.562C245.627 173.022 243.127 160.192 237.5 148.062C235.372 144.932 232.872 142.102 230 139.562C237.049 135.852 242.883 130.682 247.5 124.062C251.281 116.852 254.448 109.512 257 102.062Z" fill="#FE9C71"/>
<path fill-rule="evenodd" clip-rule="evenodd" d="M112 111.062C114.411 110.702 115.911 111.702 116.5 114.062C117.376 122.792 117.042 131.462 115.5 140.062C109.564 148.302 111.398 154.802 121 159.562C126.982 168.132 129.149 177.632 127.5 188.062C127.035 189.492 126.201 190.662 125 191.562C110.348 193.162 96.0143 191.822 82.0003 187.562C64.3658 179.322 59.8658 166.492 68.5003 149.062C81.9586 135.102 96.4583 122.432 112 111.062Z" fill="#FE9A6F"/>
<path fill-rule="evenodd" clip-rule="evenodd" d="M321 136.062C324.475 137.972 327.809 140.132 331 142.562C340.177 150.902 349.177 159.402 358 168.062C356.184 169.372 354.517 170.872 353 172.562C345.382 173.932 337.715 174.932 330 175.562C328.104 177.372 327.604 179.532 328.5 182.062C334.674 198.472 334.34 214.812 327.5 231.062C324.724 241.982 318.224 249.652 308 254.062C298.498 248.482 289.165 242.642 280 236.562C283.833 234.062 287 230.892 289.5 227.062C298.541 210.982 300.541 193.982 295.5 176.062C293.889 169.792 291.722 163.792 289 158.062C301.333 153.222 312 145.892 321 136.062Z" fill="#FE9B71"/>
<path fill-rule="evenodd" clip-rule="evenodd" d="M68 201.062C71.3974 203.092 75.0641 204.592 79 205.562C99.334 205.962 119.668 205.792 140 205.062C152.687 205.092 165.354 205.592 178 206.562C191.102 210.372 204.102 214.372 217 218.562C226.087 222.272 235.087 226.272 244 230.562C259.573 240.082 275.239 249.412 291 258.562C305.239 271.852 321.572 281.852 340 288.562C348.397 289.292 356.73 290.462 365 292.062C367.819 303.522 371.819 314.522 377 325.062C377.086 326.062 376.752 326.892 376 327.562C373.653 328.272 371.653 329.442 370 331.062C374.367 335.402 375.2 340.402 372.5 346.062C368.757 349.182 364.924 352.182 361 355.062C363.122 362.732 361.789 369.732 357 376.062C354.863 377.432 352.53 378.432 350 379.062C345.853 389.132 338.52 392.802 328 390.062C323.652 393.622 318.652 395.622 313 396.062C313.054 374.162 310.887 352.492 306.5 331.062C303.824 329.992 301.491 330.652 299.5 333.062C298.586 335.222 297.419 337.222 296 339.062C301.861 357.752 304.527 376.752 304 396.062C302.585 395.272 301.085 394.602 299.5 394.062C291.615 399.232 283.115 400.402 274 397.562C269.903 395.642 267.57 392.472 267 388.062C262.224 389.042 257.39 389.712 252.5 390.062C247.342 389.542 242.175 389.212 237 389.062C232.36 389.822 228.36 388.662 225 385.562C222.69 385.062 220.357 384.902 218 385.062C212.696 383.592 208.696 380.432 206 375.562C202.367 375.982 198.7 376.652 195 377.562C183.019 380.242 174.686 376.072 170 365.062C162.367 368.112 155.034 367.612 148 363.562C146.667 361.892 145.333 360.232 144 358.562C142.027 358.062 140.027 357.902 138 358.062C133.547 357.832 129.88 356.002 127 352.562C126.052 352.082 125.052 351.912 124 352.062C120.888 348.962 118.222 345.632 116 342.062C109.13 345.312 102.796 344.472 97 339.562C91.52 334.622 88.854 328.462 89 321.062C80.6509 322.062 74.9842 318.732 72 311.062C72.1775 309.872 72.5109 308.702 73 307.562C70.9965 304.692 68.6632 302.192 66 300.062C63.1137 297.082 61.7803 293.412 62 289.062C62.3965 284.932 63.3965 280.932 65 277.062C62.0687 272.692 60.4021 267.862 60 262.562C60.3422 257.042 62.6756 252.542 67 249.062C60.7579 240.092 60.4246 230.922 66 221.562C64.1889 214.382 64.8556 207.542 68 201.062Z" fill="#FDFDFD"/>
<path fill-rule="evenodd" clip-rule="evenodd" d="M364 178.062C365.871 178.422 367.371 179.422 368.5 181.062C375.228 190.792 381.562 200.792 387.5 211.062C387.837 214.422 388.337 217.752 389 221.062C387.739 223.552 385.739 225.392 383 226.562C377.782 227.472 372.782 226.972 368 225.062C366.126 224.952 364.626 225.622 363.5 227.062C363.331 233.052 363.497 239.052 364 245.062C364.052 249.152 363.552 253.152 362.5 257.062C360.866 260.042 359.2 263.042 357.5 266.062C354.081 269.312 350.247 271.982 346 274.062C336.968 270.512 328.634 265.842 321 260.062C331.212 249.312 338.045 236.642 341.5 222.062C342.941 210.692 343.441 199.362 343 188.062C349.214 185.272 355.548 182.772 362 180.562C362.881 179.852 363.547 179.022 364 178.062Z" fill="#FE9B71"/>
<path fill-rule="evenodd" clip-rule="evenodd" d="M133 291.061C119.842 289.421 111.342 282.091 107.5 269.061C107 262.741 106.834 256.401 107 250.061C108.213 245.971 110.213 242.301 113 239.061C112.135 237.981 111.135 237.811 110 238.561C104.378 242.111 98.378 243.771 92 243.561C90.696 242.761 90.029 241.591 90 240.061C90.5 238.061 91 236.061 91.5 234.061C98.967 227.081 107.8 222.911 118 221.561C138.581 217.961 155.748 223.791 169.5 239.061C170.203 242.271 170.036 245.441 169 248.561C171.768 256.781 171.601 264.951 168.5 273.061C162.827 279.731 155.994 284.901 148 288.561C143.125 290.201 138.125 291.031 133 291.061Z" fill="#040404"/>
<path fill-rule="evenodd" clip-rule="evenodd" d="M391 234.062C391.722 234.482 392.222 235.142 392.5 236.062C393.175 241.092 394.008 246.092 395 251.062C393.902 256.702 392.068 262.032 389.5 267.062C382.581 271.432 375.081 274.602 367 276.562C364.598 277.372 362.265 277.212 360 276.062C368.302 267.792 373.135 257.792 374.5 246.062C374.998 243.082 375.165 240.082 375 237.062C380.004 236.672 385.004 236.172 390 235.562C390.556 235.182 390.889 234.682 391 234.062Z" fill="#FD9568"/>
<path fill-rule="evenodd" clip-rule="evenodd" d="M149.001 238.061C153.045 237.521 156.712 238.351 160.001 240.561C164.455 253.151 160.122 260.981 147.001 264.061C141.394 262.211 138.727 258.211 139.001 252.061C139.168 250.391 139.334 248.731 139.501 247.061C142.563 243.831 145.73 240.831 149.001 238.061Z" fill="#F5F5F5"/>
<path fill-rule="evenodd" clip-rule="evenodd" d="M254 307.062C250.12 311.112 245.787 314.612 241 317.562C233.679 320.442 226.346 320.612 219 318.062C210.132 314.362 203.299 308.362 198.5 300.062C195.848 279.652 203.015 263.822 220 252.562C223.477 251.902 226.977 251.402 230.5 251.062C236.317 251.882 241.817 253.722 247 256.562C254.059 261.952 261.393 266.952 269 271.562C274.459 278.692 280.292 285.522 286.5 292.062C287 296.892 284.833 299.062 280 298.562C274.63 295.702 270.297 291.702 267 286.562C266.052 286.082 265.052 285.912 264 286.062C264.165 289.082 263.998 292.082 263.5 295.062C260.119 298.942 256.953 302.942 254 307.062Z" fill="#050505"/>
<path fill-rule="evenodd" clip-rule="evenodd" d="M107 250.062C106.834 256.402 107 262.742 107.5 269.062C111.342 282.092 119.842 289.422 133 291.062C129.976 292.562 127.31 294.732 125 297.562C111.566 301.752 99.7328 298.922 89.4998 289.062C87.2427 284.882 85.2427 280.542 83.4998 276.062C81.1285 267.642 83.9618 261.802 91.9998 258.562C96.7038 257.912 101.371 258.082 106 259.062C105.69 255.852 106.023 252.852 107 250.062Z" fill="#FBE0E0"/>
<path fill-rule="evenodd" clip-rule="evenodd" d="M225 259.061C233.707 258.601 237.207 262.601 235.5 271.061C233.5 274.391 231.5 277.731 229.5 281.061C223.943 285.261 218.943 284.591 214.5 279.061C214.101 275.871 213.268 272.871 212 270.061C213.147 263.421 217.147 260.261 224 260.561C224.556 260.181 224.889 259.681 225 259.061Z" fill="#F5F5F5"/>
<path fill-rule="evenodd" clip-rule="evenodd" d="M65.9997 300.062C68.6629 302.192 70.9962 304.692 72.9997 307.562C72.5106 308.702 72.1772 309.872 71.9997 311.062C70.0217 314.202 68.6883 317.702 67.9997 321.562C70.6554 324.212 70.6554 326.872 67.9997 329.562C60.5421 332.672 52.8754 334.672 44.9997 335.562C43.2885 334.432 42.7885 332.932 43.4997 331.062C47.6725 326.982 52.3392 323.652 57.4997 321.062C59.6524 314.792 61.6524 308.452 63.4997 302.062C63.9166 300.802 64.7499 300.142 65.9997 300.062Z" fill="#0B0908"/>
<path fill-rule="evenodd" clip-rule="evenodd" d="M253.999 307.062C258.799 309.112 263.799 311.282 268.999 313.562C270.548 314.772 271.714 316.272 272.499 318.062C274.848 330.702 270.014 339.202 257.999 343.562C245.927 344.982 234.26 343.652 222.999 339.562C215.314 333.552 213.981 326.392 218.999 318.062C226.345 320.612 233.678 320.442 240.999 317.562C245.786 314.612 250.119 311.112 253.999 307.062Z" fill="#FDE2E2"/>
<path fill-rule="evenodd" clip-rule="evenodd" d="M162 310.062C164.82 309.812 167.486 310.312 170 311.562C172.92 314.992 176.253 317.822 180 320.062C183.465 318.162 186.798 315.992 190 313.562C194.833 313.062 197 315.232 196.5 320.062C192.554 324.002 188.054 327.172 183 329.562C180.667 330.232 178.333 330.232 176 329.562C169.44 325.502 164.107 320.332 160 314.062C160.252 312.492 160.918 311.152 162 310.062Z" fill="#0E0E0E"/>
<path fill-rule="evenodd" clip-rule="evenodd" d="M313 396.062C312.635 401.522 311.635 406.852 310 412.062C317.65 413.172 319.65 417.002 316 423.562C307.838 422.242 299.672 421.742 291.5 422.062C289.585 413.642 292.918 409.972 301.5 411.062C302.66 406.112 303.493 401.112 304 396.062C304.527 376.752 301.861 357.752 296 339.062C297.419 337.222 298.586 335.222 299.5 333.062C301.491 330.652 303.824 329.992 306.5 331.062C310.887 352.492 313.054 374.162 313 396.062Z" fill="#0C0B0A"/>
<path fill-rule="evenodd" clip-rule="evenodd" d="M124 352.062C125.052 351.912 126.052 352.082 127 352.562C129.88 356.002 133.547 357.832 138 358.062C124.926 368.592 109.926 374.752 93 376.562C80.5224 383.782 72.0224 380.612 67.5 367.062C66.5441 362.992 67.0441 359.152 69 355.562C71.4712 354.852 73.8046 355.192 76 356.562C79.3676 360.462 82.3676 364.632 85 369.062C98.43 364.172 111.43 358.512 124 352.062Z" fill="#080606"/>
<path fill-rule="evenodd" clip-rule="evenodd" d="M218 385.062C220.357 384.902 222.69 385.062 225 385.562C228.36 388.662 232.36 389.822 237 389.062C229.774 393.342 222.107 397.172 214 400.562C207.865 406.032 201.199 410.702 194 414.562C188.685 415.902 184.352 414.402 181 410.062C176.634 406.342 174.8 401.672 175.5 396.062C177.316 391.902 180.149 391.062 184 393.562C186.692 396.122 189.025 398.952 191 402.062C200.286 396.762 209.286 391.092 218 385.062Z" fill="#0A0807"/>
</svg>
