<svg width="500" height="500" viewBox="0 0 500 500" fill="none" xmlns="http://www.w3.org/2000/svg">
<path fill-rule="evenodd" clip-rule="evenodd" d="M287 323.062C285.49 321.832 283.99 321.832 282.5 323.062C279.396 330.472 277.062 338.142 275.5 346.062C273.151 350.762 270.818 355.422 268.5 360.062C265.585 351.892 262.752 343.722 260 335.562C258.133 334.852 256.633 335.352 255.5 337.062C253.921 340.552 252.087 343.892 250 347.062C246.993 337.542 243.493 328.212 239.5 319.062C238.718 316.482 237.218 314.482 235 313.062C233.598 313.432 232.598 314.262 232 315.562C228.817 328.092 224.65 340.252 219.5 352.062C219.036 351.472 218.869 350.802 219 350.062C219.167 327.392 219 304.722 218.5 282.062C213.991 250.692 206.658 220.022 196.5 190.062C185.225 172.452 173.558 155.122 161.5 138.062C158.083 132.492 156.75 126.492 157.5 120.062C161.054 115.112 165.554 113.942 171 116.562C174.941 121.192 179.607 124.862 185 127.562C192.537 136.762 201.037 144.932 210.5 152.062C208.605 123.012 205.938 94.012 202.5 65.062C198.939 56.922 196.772 48.422 196 39.562C196.697 32.852 200.363 28.522 207 26.562C220.294 21.762 233.961 20.762 248 23.562C253.659 24.562 257.493 27.722 259.5 33.062C261.479 40.272 262.813 47.602 263.5 55.062C263.648 81.212 265.648 107.212 269.5 133.062C269.833 143.392 270.167 153.732 270.5 164.062C274.538 156.642 278.205 148.972 281.5 141.062C286.631 126.202 291.298 111.202 295.5 96.062C296.561 93.002 298.394 90.502 301 88.562C312.598 87.842 323.932 89.172 335 92.562C337.117 94.292 338.617 96.462 339.5 99.062C339.79 104.182 340.623 109.182 342 114.062C341.694 117.092 341.194 120.092 340.5 123.062C334.442 138.182 328.109 153.182 321.5 168.062C318.351 180.022 314.351 191.692 309.5 203.062C303.149 217.762 296.816 232.422 290.5 247.062C288.788 272.372 287.621 297.702 287 323.062Z" fill="#4CAF50"/>
<path fill-rule="evenodd" clip-rule="evenodd" d="M287.001 323.062C286.835 331.072 287.001 339.072 287.501 347.062C289.929 368.512 292.429 389.852 295.001 411.062C295.511 420.202 294.845 429.202 293.001 438.062C291.677 442.522 289.011 446.022 285.001 448.562C278.867 449.472 272.867 450.312 267.001 451.062C266.001 451.062 265.001 451.062 264.001 451.062C255.201 451.422 246.535 450.762 238.001 449.062C235.28 448.602 232.613 447.932 230.001 447.062C226.604 445.032 222.937 443.532 219.001 442.562C215.265 439.902 212.932 436.402 212.001 432.062C211.241 425.762 210.908 419.422 211.001 413.062C211.803 405.142 212.303 397.142 212.501 389.062C215.123 375.992 217.29 362.992 219.001 350.062C218.87 350.802 219.037 351.472 219.501 352.062C224.651 340.252 228.818 328.092 232.001 315.562C232.599 314.262 233.599 313.432 235.001 313.062C237.219 314.482 238.719 316.482 239.501 319.062C243.494 328.212 246.994 337.542 250.001 347.062C252.088 343.892 253.922 340.552 255.501 337.062C256.634 335.352 258.134 334.852 260.001 335.562C262.753 343.722 265.586 351.892 268.501 360.062C270.819 355.422 273.152 350.762 275.501 346.062C277.063 338.142 279.397 330.472 282.501 323.062C283.991 321.832 285.491 321.832 287.001 323.062Z" fill="#DDFEDF"/>
<path fill-rule="evenodd" clip-rule="evenodd" d="M288 406.062C283.584 400.852 277.917 397.682 271 396.562C265.007 395.222 260.84 397.392 258.5 403.062C256.332 415.892 261.498 420.732 274 417.562C277.237 413.922 279.57 409.762 281 405.062C282.95 405.932 284.95 406.602 287 407.062C282.198 424.342 270.698 433.342 252.5 434.062C239.54 433.082 229.206 427.422 221.5 417.062C220.804 413.952 219.638 411.122 218 408.562C218.228 408.162 218.562 407.992 219 408.062C221.289 406.552 223.623 405.392 226 404.562C223.871 412.592 226.871 417.432 235 419.062C247.273 415.772 249.94 408.772 243 398.062C236.144 395.262 229.478 395.592 223 399.062C228.239 393.182 234.906 388.342 243 384.562C251.69 384.052 260.356 384.382 269 385.562C279.643 389.012 285.976 395.852 288 406.062Z" fill="#FAFAFA"/>
<path fill-rule="evenodd" clip-rule="evenodd" d="M218.999 408.062C218.087 406.822 217.92 405.492 218.499 404.062C220.206 402.522 221.706 400.862 222.999 399.062C229.477 395.592 236.143 395.262 242.999 398.062C249.939 408.772 247.272 415.772 234.999 419.062C226.87 417.432 223.87 412.592 225.999 404.562C223.622 405.392 221.288 406.552 218.999 408.062Z" fill="#0A0A0A"/>
<path fill-rule="evenodd" clip-rule="evenodd" d="M288 406.062C287.333 406.062 287 406.392 287 407.062C284.95 406.602 282.95 405.932 281 405.062C279.57 409.762 277.237 413.922 274 417.562C261.498 420.732 256.332 415.892 258.5 403.062C260.84 397.392 265.007 395.222 271 396.562C277.917 397.682 283.584 400.852 288 406.062Z" fill="#0D0D0D"/>
<path fill-rule="evenodd" clip-rule="evenodd" d="M237.001 400.062C240.365 399.432 242.365 400.772 243.001 404.062C242.387 406.512 240.887 408.172 238.501 409.062C234.362 406.812 233.862 403.812 237.001 400.062Z" fill="#EBEBEB"/>
<path fill-rule="evenodd" clip-rule="evenodd" d="M264 399.062C267.234 398.802 268.568 400.302 268 403.562C267.197 408.162 265.031 408.992 261.5 406.062C261.333 405.232 261.167 404.392 261 403.562C261.508 401.672 262.508 400.172 264 399.062Z" fill="#ECECEC"/>
<path fill-rule="evenodd" clip-rule="evenodd" d="M211 413.062C210.907 419.422 211.24 425.762 212 432.062C209.925 436.722 208.592 441.722 208 447.062C208.483 450.382 210.316 452.722 213.5 454.062C214.793 457.422 213.793 459.422 210.5 460.062C208.5 459.392 206.5 458.732 204.5 458.062C201.361 458.992 198.194 459.152 195 458.562C193.289 457.432 192.789 455.932 193.5 454.062C195.386 451.322 197.886 449.652 201 449.062C200.834 445.052 201.001 441.052 201.5 437.062C203.833 430.062 206.167 423.062 208.5 416.062C208.877 414.622 209.71 413.622 211 413.062Z" fill="#0B0D0F"/>
<path fill-rule="evenodd" clip-rule="evenodd" d="M295 411.062C295.768 411.822 296.268 412.822 296.5 414.062C298.361 427.342 299.695 440.672 300.5 454.062C304.003 457.222 303.836 459.892 300 462.062C295.897 460.702 291.731 459.702 287.5 459.062C286.833 458.062 286.833 457.062 287.5 456.062C292.385 451.172 294.219 445.172 293 438.062C294.844 429.202 295.51 420.202 295 411.062Z" fill="#111415"/>
<path fill-rule="evenodd" clip-rule="evenodd" d="M258 420.062C260.594 422.292 260.26 424.462 257 426.562C253.36 427.072 250.36 425.912 248 423.062C250.459 421.922 252.793 422.252 255 424.062C256.484 423.092 257.484 421.762 258 420.062Z" fill="#141414"/>
<path fill-rule="evenodd" clip-rule="evenodd" d="M230 447.062C232.612 447.932 235.279 448.602 238 449.062C237.605 458.142 236.605 467.142 235 476.062C229.78 478.122 224.447 478.452 219 477.062C217.652 474.952 217.985 473.122 220 471.562C222.982 471.062 225.982 470.902 229 471.062C229.144 463.052 229.477 455.052 230 447.062Z" fill="#06080A"/>
<path fill-rule="evenodd" clip-rule="evenodd" d="M264 451.062C265 451.062 266 451.062 267 451.062C268.667 451.062 270.333 451.062 272 451.062C272.349 457.402 272.849 463.732 273.5 470.062C276.302 470.892 279.135 471.722 282 472.562C283.076 476.822 281.243 478.662 276.5 478.062C272.168 478.232 268.835 476.562 266.5 473.062C265.336 465.772 264.503 458.432 264 451.062Z" fill="#050709"/>
</svg>
