<svg width="500" height="500" viewBox="0 0 500 500" fill="none" xmlns="http://www.w3.org/2000/svg">
<path fill-rule="evenodd" clip-rule="evenodd" d="M185.999 106.062C171.109 119.452 156.949 133.782 143.499 149.062C142.829 150.392 142.829 151.732 143.499 153.062C146.749 157.222 149.749 161.552 152.499 166.062C153.319 167.382 154.479 168.052 155.999 168.062C154.569 169.942 152.899 170.612 150.999 170.062C147.719 164.942 144.219 159.942 140.499 155.062C138.309 150.532 138.639 146.202 141.499 142.062C147.229 136.502 152.729 130.832 157.999 125.062C160.999 122.732 163.669 120.062 165.999 117.062C169.769 112.792 173.769 108.622 177.999 104.562C180.329 103.892 182.669 103.892 184.999 104.562C185.559 104.942 185.889 105.442 185.999 106.062Z" fill="#747272"/>
<path fill-rule="evenodd" clip-rule="evenodd" d="M186 106.062C188.25 106.642 189.92 107.972 191 110.062C185.68 116.552 179.51 122.212 172.5 127.062C171.83 128.392 171.17 129.732 170.5 131.062C163.43 137.462 157.09 144.462 151.5 152.062C153.09 156.582 155.26 160.912 158 165.062C157.57 166.272 156.9 167.272 156 168.062C154.48 168.052 153.32 167.382 152.5 166.062C149.75 161.552 146.75 157.222 143.5 153.062C142.83 151.732 142.83 150.392 143.5 149.062C156.95 133.782 171.11 119.452 186 106.062Z" fill="#F86B6B"/>
<path fill-rule="evenodd" clip-rule="evenodd" d="M191 110.062C195.23 114.842 199.23 119.842 203 125.062C199.27 126.762 195.6 128.762 192 131.062C190.28 128.142 187.94 126.312 185 125.562C176.5 134.062 168 142.562 159.5 151.062C158.83 152.062 158.83 153.062 159.5 154.062C161.06 155.292 162.23 156.792 163 158.562C161.48 160.902 159.82 163.072 158 165.062C155.26 160.912 153.09 156.582 151.5 152.062C157.09 144.462 163.43 137.462 170.5 131.062C171.17 129.732 171.83 128.392 172.5 127.062C179.51 122.212 185.68 116.552 191 110.062Z" fill="#6C6B6B"/>
<path fill-rule="evenodd" clip-rule="evenodd" d="M331 111.062C341.05 123.302 350.22 136.302 358.5 150.062C361.73 151.912 363.07 154.582 362.5 158.062C357.71 163.012 353.54 168.342 350 174.062C348.96 172.632 348.3 170.962 348 169.062C350.06 164.832 352.72 161.002 356 157.562C348.53 141.592 338.19 127.752 325 116.062C326.41 113.652 328.41 111.982 331 111.062Z" fill="#F76B6B"/>
<path fill-rule="evenodd" clip-rule="evenodd" d="M166.001 117.062C163.671 120.062 161.001 122.732 158.001 125.062C138.221 117.592 121.391 121.922 107.501 138.062C103.061 145.052 100.391 152.722 99.5008 161.062C98.9408 191.562 99.1108 222.062 100.001 252.562C100.071 264.092 99.5708 275.592 98.5008 287.062C95.7908 304.992 92.1208 322.662 87.5008 340.062C81.6708 353.362 74.8408 366.022 67.0008 378.062C67.3308 378.392 67.6708 378.732 68.0008 379.062C73.3308 376.062 78.6708 373.062 84.0008 370.062C82.6808 376.002 79.6808 381.332 75.0008 386.062C102.591 381.322 120.431 365.322 128.501 338.062C132.261 321.042 135.101 303.872 137.001 286.562C136.891 284.882 136.231 283.712 135.001 283.062C136.451 282.262 138.121 281.762 140.001 281.562C140.561 280.842 140.891 280.002 141.001 279.062C136.321 259.342 134.821 239.342 136.501 219.062C136.831 216.052 137.671 213.222 139.001 210.562C138.771 210.162 138.441 209.992 138.001 210.062C139.551 208.672 139.221 208.002 137.001 208.062C129.691 211.592 122.031 212.752 114.001 211.562C112.921 209.832 112.761 208.002 113.501 206.062C126.431 195.802 138.761 184.802 150.501 173.062C150.981 172.112 151.151 171.112 151.001 170.062C152.901 170.612 154.571 169.942 156.001 168.062C156.901 167.272 157.571 166.272 158.001 165.062C159.821 163.072 161.481 160.902 163.001 158.562C162.231 156.792 161.061 155.292 159.501 154.062C158.831 153.062 158.831 152.062 159.501 151.062C168.001 142.562 176.501 134.062 185.001 125.562C187.941 126.312 190.281 128.142 192.001 131.062C195.601 128.762 199.271 126.762 203.001 125.062C219.321 116.752 236.661 113.592 255.001 115.562C275.061 117.912 294.391 122.742 313.001 130.062C314.421 132.642 316.591 134.312 319.501 135.062C322.791 133.272 325.961 131.272 329.001 129.062C336.471 137.322 342.971 146.322 348.501 156.062C349.171 157.732 349.171 159.392 348.501 161.062C345.531 163.712 345.361 166.382 348.001 169.062C348.301 170.962 348.961 172.632 350.001 174.062C350.301 176.022 351.301 177.352 353.001 178.062C353.511 184.512 355.341 190.852 358.501 197.062C359.591 204.102 360.751 211.102 362.001 218.062C363.601 217.792 364.931 218.132 366.001 219.062C365.001 219.062 364.001 219.062 363.001 219.062C364.361 230.692 364.861 242.362 364.501 254.062C362.911 266.182 360.741 278.182 358.001 290.062C359.601 289.792 360.931 290.132 362.001 291.062C361.001 291.062 360.001 291.062 359.001 291.062C358.891 294.812 359.391 298.472 360.501 302.062C369.261 323.592 380.591 343.592 394.501 362.062C401.191 368.252 408.021 374.252 415.001 380.062C415.331 379.732 415.671 379.392 416.001 379.062C414.091 374.822 412.091 370.652 410.001 366.562C410.131 365.502 410.631 364.672 411.501 364.062C418.361 372.432 426.531 379.102 436.001 384.062C436.331 383.732 436.671 383.392 437.001 383.062C429.651 372.702 424.151 361.362 420.501 349.062C414.791 323.702 411.121 298.042 409.501 272.062C409.171 237.392 408.831 202.732 408.501 168.062C406.971 151.512 398.801 139.342 384.001 131.562C374.041 130.262 364.041 129.762 354.001 130.062C351.001 127.732 348.331 125.062 346.001 122.062C374.371 114.782 396.541 123.122 412.501 147.062C414.801 154.252 416.461 161.582 417.501 169.062C416.921 205.072 417.261 241.072 418.501 277.062C420.491 306.362 425.831 335.032 434.501 363.062C437.651 369.362 441.321 375.362 445.501 381.062C450.081 392.802 446.251 396.302 434.001 391.562C430.901 389.592 427.731 387.762 424.501 386.062C420.261 389.772 415.761 389.932 411.001 386.562C407.051 384.282 403.391 381.612 400.001 378.562C379.081 357.562 363.581 333.062 353.501 305.062C352.501 303.732 351.501 302.392 350.501 301.062C343.451 314.002 335.281 326.172 326.001 337.562C324.711 338.052 323.371 338.222 322.001 338.062C322.951 332.352 324.121 326.692 325.501 321.062C326.001 315.402 326.171 309.742 326.001 304.062C326.951 299.152 327.281 294.152 327.001 289.062C328.061 283.152 328.721 277.152 329.001 271.062C328.941 264.042 329.271 257.042 330.001 250.062C332.031 250.222 334.031 250.062 336.001 249.562C336.881 248.202 337.211 246.702 337.001 245.062C337.641 245.662 337.971 246.492 338.001 247.562C337.201 268.132 336.371 288.632 335.501 309.062C341.311 300.442 346.311 291.442 350.501 282.062C353.721 267.432 355.381 252.772 355.501 238.062C353.081 208.452 344.081 181.122 328.501 156.062C324.701 151.262 320.531 146.762 316.001 142.562C310.631 139.552 305.301 136.552 300.001 133.562C287.011 130.572 274.011 127.572 261.001 124.562C243.891 123.202 227.221 125.202 211.001 130.562C203.161 135.982 195.491 141.652 188.001 147.562C176.331 159.892 164.671 172.232 153.001 184.562C145.281 190.622 137.281 196.282 129.001 201.562C128.161 202.572 127.831 203.742 128.001 205.062C137.081 201.692 146.081 198.022 155.001 194.062C155.331 194.562 155.671 195.062 156.001 195.562C147.821 209.272 143.821 224.112 144.001 240.062C142.711 271.322 153.871 296.992 177.501 317.062C171.671 302.892 167.001 288.222 163.501 273.062C162.851 262.372 163.181 251.702 164.501 241.062C169.571 221.772 176.901 203.442 186.501 186.062C192.531 176.332 200.701 169.332 211.001 165.062C209.791 157.302 211.461 150.302 216.001 144.062C216.821 143.172 217.821 142.842 219.001 143.062C218.831 159.082 219.331 175.082 220.501 191.062C221.971 195.802 223.641 200.472 225.501 205.062C231.751 213.982 238.751 222.312 246.501 230.062C245.651 215.752 245.991 201.422 247.501 187.062C248.641 177.782 253.141 170.782 261.001 166.062C262.591 166.572 263.751 167.572 264.501 169.062C269.171 179.062 273.831 189.062 278.501 199.062C280.961 202.522 283.801 205.692 287.001 208.562C300.921 218.152 315.081 227.322 329.501 236.062C330.001 233.082 330.161 230.082 330.001 227.062C332.221 226.742 334.061 227.402 335.501 229.062C336.751 233.982 337.251 238.982 337.001 244.062C329.951 240.512 323.291 236.352 317.001 231.562C308.191 229.122 299.521 226.622 291.001 224.062C292.051 224.212 293.051 224.042 294.001 223.562C286.861 219.242 280.361 214.072 274.501 208.062C268.701 198.802 263.701 189.132 259.501 179.062C257.971 180.782 256.971 182.782 256.501 185.062C255.061 199.372 254.731 213.702 255.501 228.062C258.481 233.542 258.651 239.042 256.001 244.562C253.671 245.232 251.331 245.232 249.001 244.562C237.351 234.252 227.181 222.752 218.501 210.062C213.271 198.662 210.601 186.662 210.501 174.062C203.501 178.392 197.831 184.062 193.501 191.062C186.131 203.962 180.301 217.462 176.001 231.562C176.231 231.962 176.561 232.132 177.001 232.062C172.701 235.532 168.861 239.532 165.501 244.062C164.831 246.732 164.831 249.392 165.501 252.062C167.201 252.972 169.031 253.302 171.001 253.062C170.831 259.072 171.001 265.072 171.501 271.062C173.341 277.752 175.171 284.412 177.001 291.062C178.151 295.352 179.811 299.352 182.001 303.062C185.241 313.942 189.741 324.282 195.501 334.062C196.181 335.342 196.021 336.512 195.001 337.562C191.871 338.352 188.871 338.022 186.001 336.562C175.811 327.372 165.981 317.872 156.501 308.062C152.831 302.392 149.171 296.732 145.501 291.062C142.701 310.222 139.041 329.222 134.501 348.062C121.831 377.422 99.6608 393.592 68.0008 396.562C65.4708 393.992 64.3108 390.822 64.5008 387.062C61.4308 388.182 58.2608 388.342 55.0008 387.562C52.5108 384.932 52.3508 382.102 54.5008 379.062C69.8008 361.132 79.8008 340.462 84.5008 317.062C85.9908 306.292 87.9908 295.622 90.5008 285.062C90.6108 244.062 90.6108 203.062 90.5008 162.062C93.2408 136.672 106.741 120.502 131.001 113.562C140.701 112.912 150.361 113.252 160.001 114.562C162.141 115.132 164.141 115.972 166.001 117.062Z" fill="#84C5CA"/>
<path fill-rule="evenodd" clip-rule="evenodd" d="M325 116.062C338.19 127.752 348.53 141.592 356 157.562C352.72 161.002 350.06 164.832 348 169.062C345.36 166.382 345.53 163.712 348.5 161.062C349.17 159.392 349.17 157.732 348.5 156.062C342.97 146.322 336.47 137.322 329 129.062C325.96 131.272 322.79 133.272 319.5 135.062C316.59 134.312 314.42 132.642 313 130.062C315.97 124.432 319.97 119.772 325 116.062Z" fill="#6B6A6A"/>
<path fill-rule="evenodd" clip-rule="evenodd" d="M346 122.062C348.33 125.062 351 127.732 354 130.062C359.52 137.752 364.85 145.582 370 153.562C364.52 161.872 358.85 170.042 353 178.062C351.3 177.352 350.3 176.022 350 174.062C353.54 168.342 357.71 163.012 362.5 158.062C363.07 154.582 361.73 151.912 358.5 150.062C350.22 136.302 341.05 123.302 331 111.062C332.28 108.652 333.94 108.482 336 110.562C339.2 114.592 342.53 118.422 346 122.062Z" fill="#737272"/>
<path fill-rule="evenodd" clip-rule="evenodd" d="M158 125.062C152.73 130.832 147.23 136.502 141.5 142.062C138.64 146.202 138.31 150.532 140.5 155.062C144.22 159.942 147.72 164.942 151 170.062C151.15 171.112 150.98 172.112 150.5 173.062C138.76 184.802 126.43 195.802 113.5 206.062C112.76 208.002 112.92 209.832 114 211.562C122.03 212.752 129.69 211.592 137 208.062C139.22 208.002 139.55 208.672 138 210.062C131.79 212.942 126.46 216.942 122 222.062C120.52 223.652 119.02 225.322 117.5 227.062C115.57 246.452 118.07 265.122 125 283.062C128.2 284.262 131.53 284.262 135 283.062C136.23 283.712 136.89 284.882 137 286.562C135.1 303.872 132.26 321.042 128.5 338.062C120.43 365.322 102.59 381.322 75 386.062C79.68 381.332 82.68 376.002 84 370.062C78.67 373.062 73.33 376.062 68 379.062C67.67 378.732 67.33 378.392 67 378.062C74.84 366.022 81.67 353.362 87.5 340.062C92.12 322.662 95.79 304.992 98.5 287.062C99.57 275.592 100.07 264.092 100 252.562C99.11 222.062 98.94 191.562 99.5 161.062C100.39 152.722 103.06 145.052 107.5 138.062C121.39 121.922 138.22 117.592 158 125.062Z" fill="#8DDBE6"/>
<path fill-rule="evenodd" clip-rule="evenodd" d="M336.999 245.062C336.999 244.732 336.999 244.392 336.999 244.062C337.249 238.982 336.749 233.982 335.499 229.062C334.059 227.402 332.219 226.742 329.999 227.062C330.159 230.082 329.999 233.082 329.499 236.062C315.079 227.322 300.919 218.152 286.999 208.562C283.799 205.692 280.959 202.522 278.499 199.062C273.829 189.062 269.169 179.062 264.499 169.062C263.749 167.572 262.589 166.572 260.999 166.062C253.139 170.782 248.639 177.782 247.499 187.062C245.989 201.422 245.649 215.752 246.499 230.062C238.749 222.312 231.749 213.982 225.499 205.062C223.639 200.472 221.969 195.802 220.499 191.062C219.329 175.082 218.829 159.082 218.999 143.062C217.819 142.842 216.819 143.172 215.999 144.062C211.459 150.302 209.789 157.302 210.999 165.062C200.699 169.332 192.529 176.332 186.499 186.062C176.899 203.442 169.569 221.772 164.499 241.062C163.179 251.702 162.849 262.372 163.499 273.062C166.999 288.222 171.669 302.892 177.499 317.062C153.869 296.992 142.709 271.322 143.999 240.062C143.819 224.112 147.819 209.272 155.999 195.562C155.669 195.062 155.329 194.562 154.999 194.062C146.079 198.022 137.079 201.692 127.999 205.062C127.829 203.742 128.159 202.572 128.999 201.562C137.279 196.282 145.279 190.622 152.999 184.562C164.669 172.232 176.329 159.892 187.999 147.562C195.489 141.652 203.159 135.982 210.999 130.562C227.219 125.202 243.889 123.202 260.999 124.562C274.009 127.572 287.009 130.572 299.999 133.562C305.299 136.552 310.629 139.552 315.999 142.562C320.529 146.762 324.699 151.262 328.499 156.062C344.079 181.122 353.079 208.452 355.499 238.062C355.379 252.772 353.719 267.432 350.499 282.062C346.309 291.442 341.309 300.442 335.499 309.062C336.369 288.632 337.199 268.132 337.999 247.562C337.969 246.492 337.639 245.662 336.999 245.062Z" fill="#8CDBE6"/>
<path fill-rule="evenodd" clip-rule="evenodd" d="M354 130.062C364.04 129.762 374.04 130.262 384 131.562C398.8 139.342 406.97 151.512 408.5 168.062C408.83 202.732 409.17 237.392 409.5 272.062C411.12 298.042 414.79 323.702 420.5 349.062C424.15 361.362 429.65 372.702 437 383.062C436.67 383.392 436.33 383.732 436 384.062C426.53 379.102 418.36 372.432 411.5 364.062C410.63 364.672 410.13 365.502 410 366.562C412.09 370.652 414.09 374.822 416 379.062C415.67 379.392 415.33 379.732 415 380.062C408.02 374.252 401.19 368.252 394.5 362.062C380.59 343.592 369.26 323.592 360.5 302.062C359.39 298.472 358.89 294.812 359 291.062C360 291.062 361 291.062 362 291.062C365.08 290.942 367.74 289.942 370 288.062C372.06 285.632 373.89 282.972 375.5 280.062C378.8 263.212 379.8 246.212 378.5 229.062C378.12 228.502 377.62 228.172 377 228.062C374.79 223.182 371.13 220.182 366 219.062C364.93 218.132 363.6 217.792 362 218.062C360.75 211.102 359.59 204.102 358.5 197.062C355.34 190.852 353.51 184.512 353 178.062C358.85 170.042 364.52 161.872 370 153.562C364.85 145.582 359.52 137.752 354 130.062Z" fill="#8DDBE6"/>
<path fill-rule="evenodd" clip-rule="evenodd" d="M291 224.062C277.39 223.482 268.56 229.812 264.5 243.062C263.1 253.042 264.1 262.702 267.5 272.062C272.86 277.462 279.36 280.462 287 281.062C287.71 281.962 288.71 282.302 290 282.062C290.59 285.172 292.26 287.672 295 289.562C297.73 291.952 300.73 293.952 304 295.562C312.48 296.352 320.15 294.182 327 289.062C327.28 294.152 326.95 299.152 326 304.062C314.44 309.302 302.44 312.632 290 314.062C287.76 313.772 285.76 314.102 284 315.062C265.67 316.292 247.34 316.292 229 315.062C224.67 315.062 220.33 315.062 216 315.062C210.25 314.342 204.58 313.182 199 311.562C193.28 308.702 187.61 305.862 182 303.062C179.81 299.352 178.15 295.352 177 291.062C186.21 298.672 195.71 299.002 205.5 292.062C207.4 288.642 208.24 284.972 208 281.062C216.84 280.722 224.01 277.052 229.5 270.062C231.58 266.222 233.92 262.562 236.5 259.062C237.17 255.062 237.17 251.062 236.5 247.062C233.07 242.202 230.74 236.872 229.5 231.062C227.27 228.862 224.77 227.032 222 225.562C210.5 222.032 199.17 222.362 188 226.562C184.31 228.412 180.64 230.242 177 232.062C176.56 232.132 176.23 231.962 176 231.562C180.3 217.462 186.13 203.962 193.5 191.062C197.83 184.062 203.5 178.392 210.5 174.062C210.6 186.662 213.27 198.662 218.5 210.062C227.18 222.752 237.35 234.252 249 244.562C251.33 245.232 253.67 245.232 256 244.562C258.65 239.042 258.48 233.542 255.5 228.062C254.73 213.702 255.06 199.372 256.5 185.062C256.97 182.782 257.97 180.782 259.5 179.062C263.7 189.132 268.7 198.802 274.5 208.062C280.36 214.072 286.86 219.242 294 223.562C293.05 224.042 292.05 224.212 291 224.062Z" fill="#FCFCFC"/>
<path fill-rule="evenodd" clip-rule="evenodd" d="M138 210.062C138.44 209.992 138.77 210.162 139 210.562C137.67 213.222 136.83 216.052 136.5 219.062C134.82 239.342 136.32 259.342 141 279.062C140.89 280.002 140.56 280.842 140 281.562C138.12 281.762 136.45 282.262 135 283.062C131.53 284.262 128.2 284.262 125 283.062C126.67 283.062 128.33 283.062 130 283.062C126.04 263.942 123.88 244.602 123.5 225.062C123.27 223.822 122.77 222.822 122 222.062C126.46 216.942 131.79 212.942 138 210.062Z" fill="#727272"/>
<path fill-rule="evenodd" clip-rule="evenodd" d="M366 219.062C371.13 220.182 374.79 223.182 377 228.062C376.04 228.512 375.21 229.182 374.5 230.062C373.98 248.932 371.81 267.602 368 286.062C368.25 287.272 368.91 287.942 370 288.062C367.74 289.942 365.08 290.942 362 291.062C360.93 290.132 359.6 289.792 358 290.062C360.74 278.182 362.91 266.182 364.5 254.062C364.86 242.362 364.36 230.692 363 219.062C364 219.062 365 219.062 366 219.062Z" fill="#727272"/>
<path fill-rule="evenodd" clip-rule="evenodd" d="M208 281.062C203.5 281.062 199.16 280.232 195 278.562C191.83 275.392 188.67 272.232 185.5 269.062C184.75 265.142 183.42 261.472 181.5 258.062C180.85 252.902 181.19 247.902 182.5 243.062C178.47 246.262 174.64 249.592 171 253.062C169.03 253.302 167.2 252.972 165.5 252.062C164.83 249.392 164.83 246.732 165.5 244.062C168.86 239.532 172.7 235.532 177 232.062C180.64 230.242 184.31 228.412 188 226.562C199.17 222.362 210.5 222.032 222 225.562C224.77 227.032 227.27 228.862 229.5 231.062C230.74 236.872 233.07 242.202 236.5 247.062C237.17 251.062 237.17 255.062 236.5 259.062C233.92 262.562 231.58 266.222 229.5 270.062C224.01 277.052 216.84 280.722 208 281.062Z" fill="#050505"/>
<path fill-rule="evenodd" clip-rule="evenodd" d="M291.001 224.062C299.521 226.622 308.191 229.122 317.001 231.562C323.291 236.352 329.951 240.512 337.001 244.062C337.001 244.392 337.001 244.732 337.001 245.062C337.211 246.702 336.881 248.202 336.001 249.562C334.031 250.062 332.031 250.222 330.001 250.062C325.941 249.062 322.281 247.062 319.001 244.062C318.351 247.012 318.191 250.012 318.501 253.062C316.641 257.442 314.801 261.782 313.001 266.062C308.001 277.232 299.331 282.232 287.001 281.062C279.361 280.462 272.861 277.462 267.501 272.062C264.101 262.702 263.101 253.042 264.501 243.062C268.561 229.812 277.391 223.482 291.001 224.062Z" fill="#040404"/>
<path fill-rule="evenodd" clip-rule="evenodd" d="M122 222.062C122.77 222.822 123.27 223.822 123.5 225.062C123.88 244.602 126.04 263.942 130 283.062C128.33 283.062 126.67 283.062 125 283.062C118.07 265.122 115.57 246.452 117.5 227.062C119.02 225.322 120.52 223.652 122 222.062Z" fill="#F86C6B"/>
<path fill-rule="evenodd" clip-rule="evenodd" d="M377 228.062C377.62 228.172 378.12 228.502 378.5 229.062C379.8 246.212 378.8 263.212 375.5 280.062C373.89 282.972 372.06 285.632 370 288.062C368.91 287.942 368.25 287.272 368 286.062C371.81 267.602 373.98 248.932 374.5 230.062C375.21 229.182 376.04 228.512 377 228.062Z" fill="#F76D6D"/>
<path fill-rule="evenodd" clip-rule="evenodd" d="M281 231.062C286.52 230.912 289.52 233.582 290 239.062C290.73 250.682 285.73 254.682 275 251.062C270.41 246.442 269.91 241.442 273.5 236.062C276.32 234.742 278.82 233.082 281 231.062Z" fill="#F2F2F2"/>
<path fill-rule="evenodd" clip-rule="evenodd" d="M215 233.062C224.49 233.002 227.99 237.672 225.5 247.062C222.55 254.382 217.55 256.712 210.5 254.062C204.92 245.542 206.42 238.542 215 233.062Z" fill="#F4F4F4"/>
<path fill-rule="evenodd" clip-rule="evenodd" d="M330 250.062C329.27 257.042 328.94 264.042 329 271.062C323.48 269.272 318.15 267.602 313 266.062C314.8 261.782 316.64 257.442 318.5 253.062C318.19 250.012 318.35 247.012 319 244.062C322.28 247.062 325.94 249.062 330 250.062Z" fill="#F9F9F9"/>
<path fill-rule="evenodd" clip-rule="evenodd" d="M208 281.062C208.24 284.972 207.4 288.642 205.5 292.062C195.71 299.002 186.21 298.672 177 291.062C175.17 284.412 173.34 277.752 171.5 271.062C171 265.072 170.83 259.072 171 253.062C174.64 249.592 178.47 246.262 182.5 243.062C181.19 247.902 180.85 252.902 181.5 258.062C183.42 261.472 184.75 265.142 185.5 269.062C188.67 272.232 191.83 275.392 195 278.562C199.16 280.232 203.5 281.062 208 281.062Z" fill="#FBDDDD"/>
<path fill-rule="evenodd" clip-rule="evenodd" d="M313 266.062C318.15 267.602 323.48 269.272 329 271.062C328.72 277.152 328.06 283.152 327 289.062C320.15 294.182 312.48 296.352 304 295.562C300.73 293.952 297.73 291.952 295 289.562C292.26 287.672 290.59 285.172 290 282.062C288.71 282.302 287.71 281.962 287 281.062C299.33 282.232 308 277.232 313 266.062Z" fill="#FCD9D9"/>
<path fill-rule="evenodd" clip-rule="evenodd" d="M265 284.062C269.5 283.722 271.33 285.722 270.5 290.062C267.8 294.642 264.3 298.472 260 301.562C257.24 302.142 254.58 301.812 252 300.562C248.22 298.252 244.38 296.092 240.5 294.062C239.43 290.462 240.76 288.462 244.5 288.062C247.99 288.892 251.15 290.392 254 292.562C255.33 293.232 256.67 293.232 258 292.562C260.22 289.602 262.56 286.772 265 284.062Z" fill="#111111"/>
<path fill-rule="evenodd" clip-rule="evenodd" d="M290 314.062C292.29 313.802 294.46 314.142 296.5 315.062C296.82 325.742 297.32 336.412 298 347.062C301.96 346.122 305.96 345.952 310 346.562C314.37 348.752 315.04 351.752 312 355.562C306.63 357.002 301.3 358.502 296 360.062C293.29 359.622 291.12 358.292 289.5 356.062C287.27 342.482 285.44 328.812 284 315.062C285.76 314.102 287.76 313.772 290 314.062Z" fill="#040506"/>
<path fill-rule="evenodd" clip-rule="evenodd" d="M216.001 315.062C220.331 315.062 224.671 315.062 229.001 315.062C229.661 329.332 228.161 343.332 224.501 357.062C222.541 359.702 220.041 361.532 217.001 362.562C212.331 363.232 207.671 363.232 203.001 362.562C199.321 361.242 197.821 358.742 198.501 355.062C203.331 350.422 209.171 348.762 216.001 350.062C216.001 338.392 216.001 326.732 216.001 315.062Z" fill="#060709"/>
</svg>
