<svg width="500" height="500" viewBox="0 0 500 500" fill="none" xmlns="http://www.w3.org/2000/svg">
<path fill-rule="evenodd" clip-rule="evenodd" d="M296 110.061C293.29 112.811 291.63 116.141 291 120.061C290.28 120.481 289.78 121.141 289.5 122.061C289.17 126.731 288.83 131.391 288.5 136.061C286.34 138.641 284.17 138.641 282 136.061C280.84 131.091 280.67 126.091 281.5 121.061C281.78 120.141 282.28 119.481 283 119.061C284.48 114.881 286.48 110.881 289 107.061C305.29 84.0714 325.29 64.9014 349 49.5614C352.52 48.4414 354.35 49.6114 354.5 53.0614C336.98 65.9014 320.65 80.2414 305.5 96.0614C302.09 100.631 298.92 105.291 296 110.061Z" fill="#5E3008"/>
<path fill-rule="evenodd" clip-rule="evenodd" d="M207.001 108.062C210.131 112.512 212.801 117.182 215.001 122.062C216.151 124.372 217.321 126.702 218.501 129.062C220.511 136.732 218.181 138.732 211.501 135.062C210.461 131.092 208.961 127.432 207.001 124.062C205.181 119.082 202.841 114.412 200.001 110.062C187.191 86.4315 167.861 70.6015 142.001 62.5615C140.001 61.2315 138.001 59.8915 136.001 58.5615C134.321 55.4515 135.151 53.2815 138.501 52.0615C147.421 56.0315 156.251 60.2015 165.001 64.5615C182.931 75.3215 196.931 89.8215 207.001 108.062Z" fill="#5D2F06"/>
<path fill-rule="evenodd" clip-rule="evenodd" d="M289 107.062C286.48 110.882 284.48 114.882 283 119.062C283.03 118.062 282.53 117.402 281.5 117.062C267.65 112.092 253.48 110.932 239 113.562C231.55 115.932 224.05 118.102 216.5 120.062C215.47 120.402 214.97 121.062 215 122.062C212.8 117.182 210.13 112.512 207 108.062C217.5 105.032 228.17 102.532 239 100.562C248.33 99.8916 257.67 99.8916 267 100.562C274.32 102.832 281.66 105.002 289 107.062Z" fill="#89460A"/>
<path fill-rule="evenodd" clip-rule="evenodd" d="M296 110.062C320.25 118.262 340.42 132.262 356.5 152.062C362.75 162.902 368.75 173.902 374.5 185.062C381.72 211.232 384.05 237.902 381.5 265.062C381.29 279.832 380.12 294.502 378 309.062C372.62 297.312 366.46 285.982 359.5 275.062C357.1 272.492 354.6 270.162 352 268.062C352.8 258.022 353.8 247.852 355 237.562C353.68 226.432 352.84 215.272 352.5 204.062C345.85 182.112 336.52 161.442 324.5 142.062C315.03 132.082 303.87 124.752 291 120.062C291.63 116.142 293.29 112.812 296 110.062Z" fill="#89470B"/>
<path fill-rule="evenodd" clip-rule="evenodd" d="M200 110.062C202.84 114.412 205.18 119.082 207 124.062C204.24 124.942 201.57 126.112 199 127.562C191.86 133.632 184.19 138.972 176 143.562C167.7 151.522 160.53 160.362 154.5 170.062C146.62 194.032 143.12 218.702 144 244.062C144.08 250.752 144.42 257.422 145 264.062C143.3 263.902 141.63 264.072 140 264.562C130.08 279.222 123.08 295.062 119 312.062C118.99 303.322 118.16 294.652 116.5 286.062C115.16 258.302 116.16 230.632 119.5 203.062C125.35 183.822 133.68 165.822 144.5 149.062C158.94 133.292 176.1 121.462 196 113.562C197.82 112.822 199.15 111.652 200 110.062Z" fill="#89460A"/>
<path fill-rule="evenodd" clip-rule="evenodd" d="M283 119.061C282.28 119.481 281.78 120.141 281.5 121.061C280.67 126.091 280.84 131.091 282 136.061C284.17 138.641 286.34 138.641 288.5 136.061C288.83 131.391 289.17 126.731 289.5 122.061C289.78 121.141 290.28 120.481 291 120.061C303.87 124.751 315.03 132.081 324.5 142.061C336.52 161.441 345.85 182.111 352.5 204.061C352.84 215.271 353.68 226.431 355 237.561C353.8 247.851 352.8 258.021 352 268.061C349.8 267.681 348.14 268.351 347 270.061C335.57 274.001 323.9 277.171 312 279.561C291.63 283.281 271.13 286.111 250.5 288.061C216.55 286.651 183.71 280.151 152 268.561C150.39 267.841 148.89 268.011 147.5 269.061C147.27 267.821 146.77 266.821 146 266.061C145.67 265.391 145.33 264.731 145 264.061C144.42 257.421 144.08 250.751 144 244.061C143.12 218.701 146.62 194.031 154.5 170.061C160.53 160.361 167.7 151.521 176 143.561C184.19 138.971 191.86 133.631 199 127.561C201.57 126.111 204.24 124.941 207 124.061C208.96 127.431 210.46 131.091 211.5 135.061C218.18 138.731 220.51 136.731 218.5 129.061C217.32 126.701 216.15 124.371 215 122.061C214.97 121.061 215.47 120.401 216.5 120.061C224.05 118.101 231.55 115.931 239 113.561C253.48 110.931 267.65 112.091 281.5 117.061C282.53 117.401 283.03 118.061 283 119.061Z" fill="#FECE96"/>
<path fill-rule="evenodd" clip-rule="evenodd" d="M327 185.062C322.15 181.722 317.15 178.562 312 175.562C304.92 173.852 297.92 171.852 291 169.562C281.75 167.172 273.92 169.342 267.5 176.062C259.53 188.992 258.87 202.322 265.5 216.062C276.6 225.172 288.44 226.342 301 219.562C309.37 210.602 313.7 200.102 314 188.062C318.91 191.182 324.24 193.182 330 194.062C333.44 213.332 328.1 229.492 314 242.562C302.37 250.052 289.71 254.212 276 255.062C251.3 253.862 226.63 252.362 202 250.562C190.19 250.072 180.69 245.242 173.5 236.062C165.46 224.352 163.29 211.682 167 198.062C169.82 198.312 172.49 197.812 175 196.562C177.52 193.882 180.18 191.382 183 189.062C183.91 190.352 183.74 191.682 182.5 193.062C181.46 205.052 185.63 214.882 195 222.562C206.4 227.202 216.73 225.532 226 217.562C229.29 212.812 232.46 207.982 235.5 203.062C236.17 200.062 236.17 197.062 235.5 194.062C232.99 189.232 230.99 184.232 229.5 179.062C226.5 174.632 222.33 171.802 217 170.562C198.84 167.312 183.17 172.142 170 185.062C178.69 165.222 193.69 152.722 215 147.562C234.81 142.902 254.81 141.902 275 144.562C293.6 148.112 309.1 156.942 321.5 171.062C324.73 175.192 326.56 179.852 327 185.062Z" fill="#FDFCFC"/>
<path fill-rule="evenodd" clip-rule="evenodd" d="M326.999 185.062C332.169 186.772 333.169 189.772 329.999 194.062C324.239 193.182 318.909 191.182 313.999 188.062C313.699 200.102 309.369 210.602 300.999 219.562C288.439 226.342 276.599 225.172 265.499 216.062C258.869 202.322 259.529 188.992 267.499 176.062C273.919 169.342 281.749 167.172 290.999 169.562C297.919 171.852 304.919 173.852 311.999 175.562C317.149 178.562 322.149 181.722 326.999 185.062Z" fill="#050505"/>
<path fill-rule="evenodd" clip-rule="evenodd" d="M166.999 198.061C165.139 193.061 166.139 188.721 169.999 185.061C183.169 172.141 198.839 167.311 216.999 170.561C222.329 171.801 226.499 174.631 229.499 179.061C230.989 184.231 232.989 189.231 235.499 194.061C236.169 197.061 236.169 200.061 235.499 203.061C232.459 207.981 229.289 212.811 225.999 217.561C216.729 225.531 206.399 227.201 194.999 222.561C185.629 214.881 181.459 205.051 182.499 193.061C183.739 191.681 183.909 190.351 182.999 189.061C180.179 191.381 177.519 193.881 174.999 196.561C172.489 197.811 169.819 198.311 166.999 198.061Z" fill="#060606"/>
<path fill-rule="evenodd" clip-rule="evenodd" d="M277 176.062C282.92 175.152 285.92 177.652 286 183.562C286.31 188.762 284.64 193.092 281 196.562C277.83 197.542 275 197.042 272.5 195.062C271.55 193.102 270.21 191.442 268.5 190.062C267.75 187.262 268.08 184.592 269.5 182.062C272.15 180.142 274.65 178.142 277 176.062Z" fill="#F5F5F5"/>
<path fill-rule="evenodd" clip-rule="evenodd" d="M214 179.061C220.73 177.961 224.4 180.791 225 187.561C224.49 194.421 220.99 198.921 214.5 201.061C209.52 199.581 207.02 196.241 207 191.061C207.48 185.911 209.82 181.911 214 179.061Z" fill="#F6F6F6"/>
<path fill-rule="evenodd" clip-rule="evenodd" d="M263 227.061C267.71 227.031 269.21 229.361 267.5 234.061C265.04 237.521 262.2 240.691 259 243.561C255.94 244.021 252.94 243.681 250 242.561C246.64 240.361 243.14 238.521 239.5 237.061C238.43 233.461 239.76 231.461 243.5 231.061C247.5 232.311 251.33 233.971 255 236.061C257.9 233.261 260.57 230.261 263 227.061Z" fill="#0E0E0E"/>
<path fill-rule="evenodd" clip-rule="evenodd" d="M145 264.062C145.33 264.732 145.67 265.392 146 266.062C146 267.732 146 269.392 146 271.062C143.94 274.172 142.11 277.502 140.5 281.062C135.36 294.822 130.03 308.482 124.5 322.062C123.8 325.492 124.13 328.822 125.5 332.062C127.89 334.952 130.06 337.952 132 341.062C131.75 342.632 131.08 343.972 130 345.062C127.97 345.222 125.97 345.062 124 344.562C122.72 342.142 120.88 340.302 118.5 339.062C114.75 340.812 111.58 343.312 109 346.562C105.76 347.002 103.93 345.502 103.5 342.062C102.83 340.392 102.83 338.732 103.5 337.062C106.24 332.792 110.08 330.462 115 330.062C115.7 323.912 117.04 317.912 119 312.062C123.08 295.062 130.08 279.222 140 264.562C141.63 264.072 143.3 263.902 145 264.062Z" fill="#090705"/>
<path fill-rule="evenodd" clip-rule="evenodd" d="M146 266.062C146.77 266.822 147.27 267.822 147.5 269.062C148.89 268.012 150.39 267.842 152 268.562C183.71 280.152 216.55 286.652 250.5 288.062C271.13 286.112 291.63 283.282 312 279.562C323.9 277.172 335.57 274.002 347 270.062C346.84 271.762 347.01 273.432 347.5 275.062C350.77 278.612 353.27 282.612 355 287.062C353.99 289.772 352.99 292.442 352 295.062C352 294.062 352 293.062 352 292.062C324.67 299.752 296.84 304.422 268.5 306.062C239.5 306.342 210.67 304.512 182 300.562C171.49 297.102 160.83 293.932 150 291.062C149.2 291.522 148.87 292.182 149 293.062C146.76 286.032 145.76 278.702 146 271.062C146 269.392 146 267.732 146 266.062Z" fill="#E5B286"/>
<path fill-rule="evenodd" clip-rule="evenodd" d="M352 268.062C354.6 270.162 357.1 272.492 359.5 275.062C366.46 285.982 372.62 297.312 378 309.062C381.54 317.812 385.37 326.482 389.5 335.062C389.83 338.062 390.17 341.062 390.5 344.062C392.59 345.352 394.75 346.522 397 347.562C398.76 355.962 395.76 358.122 388 354.062C386.46 355.952 384.79 357.782 383 359.562C380.28 361.712 377.78 361.542 375.5 359.062C374.83 356.062 374.83 353.062 375.5 350.062C377.27 347.522 378.77 344.852 380 342.062C378.83 337.882 377.5 333.882 376 330.062C370.31 315.012 363.31 300.682 355 287.062C353.27 282.612 350.77 278.612 347.5 275.062C347.01 273.432 346.84 271.762 347 270.062C348.14 268.352 349.8 267.682 352 268.062Z" fill="#090706"/>
<path fill-rule="evenodd" clip-rule="evenodd" d="M145.999 271.062C145.759 278.702 146.759 286.032 148.999 293.062C149.559 300.942 150.889 308.612 152.999 316.062C150.559 314.542 148.399 314.882 146.499 317.062C144.399 323.932 142.899 330.932 141.999 338.062C142.389 346.512 145.719 353.512 151.999 359.062C151.769 364.482 150.269 369.482 147.499 374.062C146.779 375.012 145.949 375.182 144.999 374.562C139.799 364.852 134.799 355.022 129.999 345.062C131.079 343.972 131.749 342.632 131.999 341.062C130.059 337.952 127.889 334.952 125.499 332.062C124.129 328.822 123.799 325.492 124.499 322.062C130.029 308.482 135.359 294.822 140.499 281.062C142.109 277.502 143.939 274.172 145.999 271.062Z" fill="#87450A"/>
<path fill-rule="evenodd" clip-rule="evenodd" d="M352 295.062C351.85 299.082 351.52 303.082 351 307.062C349.29 308.202 348.62 309.862 349 312.062C347.71 311.822 346.71 312.162 346 313.062C335.32 318.232 324.32 322.732 313 326.562C307.76 328.042 302.42 328.872 297 329.062C293.53 323.482 288.53 321.652 282 323.562C280.55 326.342 280.88 328.842 283 331.062C281.19 332.762 278.86 333.592 276 333.562C263.79 333.792 251.62 334.622 239.5 336.062C232.63 335.602 225.8 334.942 219 334.062C219 332.392 219 330.732 219 329.062C220.91 324.132 219.24 321.972 214 322.562C210.42 325.642 207.42 329.142 205 333.062C187.8 329.362 170.8 325.022 154 320.062C154.24 318.772 153.9 317.772 153 317.062C153 316.732 153 316.392 153 316.062C150.89 308.612 149.56 300.942 149 293.062C148.87 292.182 149.2 291.522 150 291.062C160.83 293.932 171.49 297.102 182 300.562C210.67 304.512 239.5 306.342 268.5 306.062C296.84 304.422 324.67 299.752 352 292.062C352 293.062 352 294.062 352 295.062Z" fill="#FDCE96"/>
<path fill-rule="evenodd" clip-rule="evenodd" d="M355 287.062C363.31 300.682 370.31 315.012 376 330.062C373.66 336.062 372.16 342.402 371.5 349.062C367.26 361.202 362.76 373.202 358 385.062C356.36 385.272 354.86 384.942 353.5 384.062C353.39 375.842 352.55 367.842 351 360.062C354.74 359.082 358.24 357.422 361.5 355.062C363.66 344.272 362.99 333.612 359.5 323.062C357.26 318.582 355.59 313.922 354.5 309.062C353.68 307.742 352.52 307.072 351 307.062C351.52 303.082 351.85 299.082 352 295.062C352.99 292.442 353.99 289.772 355 287.062Z" fill="#88460A"/>
<path fill-rule="evenodd" clip-rule="evenodd" d="M351 307.062C352.52 307.072 353.68 307.742 354.5 309.062C355.59 313.922 357.26 318.582 359.5 323.062C362.99 333.612 363.66 344.272 361.5 355.062C358.24 357.422 354.74 359.082 351 360.062C344.15 361.842 337.15 362.512 330 362.062C329.33 362.062 328.67 362.062 328 362.062C314.86 359.832 304.2 353.492 296 343.062C293.52 345.042 291.18 347.212 289 349.562C285.73 350.542 283.06 349.712 281 347.062C280.99 345.252 281.49 343.582 282.5 342.062C288.31 338.512 288.48 334.852 283 331.062C280.88 328.842 280.55 326.342 282 323.562C288.53 321.652 293.53 323.482 297 329.062C303.24 340.382 312.57 348.212 325 352.562C330.52 353.382 335.85 353.212 341 352.062C343.98 352.382 346.31 351.382 348 349.062C348.62 348.952 349.12 348.622 349.5 348.062C351.5 339.132 351 330.472 348 322.062C347.33 319.062 346.67 316.062 346 313.062C346.71 312.162 347.71 311.822 349 312.062C348.62 309.862 349.29 308.202 351 307.062Z" fill="#0A0705"/>
<path fill-rule="evenodd" clip-rule="evenodd" d="M346 313.062C346.67 316.062 347.33 319.062 348 322.062C346.67 327.382 345.33 332.712 344 338.062C340.16 341.892 337.82 346.552 337 352.062C338.33 352.062 339.67 352.062 341 352.062C335.85 353.212 330.52 353.382 325 352.562C312.57 348.212 303.24 340.382 297 329.062C302.42 328.872 307.76 328.042 313 326.562C324.32 322.732 335.32 318.232 346 313.062Z" fill="#EAB88A"/>
<path fill-rule="evenodd" clip-rule="evenodd" d="M153 316.061C153 316.391 153 316.731 153 317.061C151.28 326.981 150.78 336.981 151.5 347.061C151.92 348.991 153.09 349.991 155 350.061C167.85 352.961 180.19 351.131 192 344.561C196.53 340.861 200.86 337.031 205 333.061C207.42 329.141 210.42 325.641 214 322.561C219.24 321.971 220.91 324.131 219 329.061C218.03 331.171 217.7 333.501 218 336.061C221.34 336.221 224.17 337.551 226.5 340.061C227.24 342.001 227.08 343.831 226 345.561C223.67 346.231 221.33 346.231 219 345.561C213.35 340.531 208.35 341.031 204 347.061C193.94 354.081 182.94 358.741 171 361.061C170.11 361.671 169.11 362.001 168 362.061C162.28 362.731 156.95 361.731 152 359.061C145.72 353.511 142.39 346.511 142 338.061C142.9 330.931 144.4 323.931 146.5 317.061C148.4 314.881 150.56 314.541 153 316.061Z" fill="#090705"/>
<path fill-rule="evenodd" clip-rule="evenodd" d="M154 320.062C170.8 325.022 187.8 329.362 205 333.062C200.86 337.032 196.53 340.862 192 344.562C180.19 351.132 167.85 352.962 155 350.062C155.69 346.482 156.69 342.982 158 339.562C155.75 333.262 154.42 326.762 154 320.062Z" fill="#E8B88B"/>
<path fill-rule="evenodd" clip-rule="evenodd" d="M153 317.062C153.9 317.772 154.24 318.772 154 320.062C154.42 326.762 155.75 333.262 158 339.562C156.69 342.982 155.69 346.482 155 350.062C153.09 349.992 151.92 348.992 151.5 347.062C150.78 336.982 151.28 326.982 153 317.062Z" fill="#85450B"/>
<path fill-rule="evenodd" clip-rule="evenodd" d="M219 329.062C219 330.732 219 332.392 219 334.062C225.8 334.942 232.63 335.602 239.5 336.062C251.62 334.622 263.79 333.792 276 333.562C278.86 333.592 281.19 332.762 283 331.062C288.48 334.852 288.31 338.512 282.5 342.062C281.49 343.582 280.99 345.252 281 347.062C267.17 347.772 253.34 348.772 239.5 350.062C227.62 349.342 215.78 348.342 204 347.062C208.35 341.032 213.35 340.532 219 345.562C221.33 346.232 223.67 346.232 226 345.562C227.08 343.832 227.24 342.002 226.5 340.062C224.17 337.552 221.34 336.222 218 336.062C217.7 333.502 218.03 331.172 219 329.062Z" fill="#E3B186"/>
<path fill-rule="evenodd" clip-rule="evenodd" d="M348 322.062C351 330.472 351.5 339.132 349.5 348.062C349.12 348.622 348.62 348.952 348 349.062C347.04 345.182 345.71 341.512 344 338.062C345.33 332.712 346.67 327.382 348 322.062Z" fill="#88470D"/>
<path fill-rule="evenodd" clip-rule="evenodd" d="M344 338.062C345.71 341.512 347.04 345.182 348 349.062C346.31 351.382 343.98 352.382 341 352.062C339.67 352.062 338.33 352.062 337 352.062C337.82 346.552 340.16 341.892 344 338.062Z" fill="#F8F4F1"/>
<path fill-rule="evenodd" clip-rule="evenodd" d="M328 362.062C321.31 363.682 314.65 365.842 308 368.562C288.91 371.682 269.74 373.852 250.5 375.062C234.25 374.842 218.08 373.682 202 371.562C196.94 369.872 191.94 367.872 187 365.562C183.33 365.232 179.67 364.892 176 364.562C173.74 364.012 172.07 362.842 171 361.062C182.94 358.742 193.94 354.082 204 347.062C215.78 348.342 227.62 349.342 239.5 350.062C253.34 348.772 267.17 347.772 281 347.062C283.06 349.712 285.73 350.542 289 349.562C291.18 347.212 293.52 345.042 296 343.062C304.2 353.492 314.86 359.832 328 362.062Z" fill="#FDCE96"/>
<path fill-rule="evenodd" clip-rule="evenodd" d="M171 361.062C172.07 362.842 173.74 364.012 176 364.562C179.67 364.892 183.33 365.232 187 365.562C191.94 367.872 196.94 369.872 202 371.562C218.08 373.682 234.25 374.842 250.5 375.062C269.74 373.852 288.91 371.682 308 368.562C314.65 365.842 321.31 363.682 328 362.062C328.67 362.062 329.33 362.062 330 362.062C324.29 372.772 315.95 380.772 305 386.062C294.69 388.892 284.35 391.392 274 393.562C258.64 394.302 243.31 393.962 228 392.562C215.01 390.492 202.01 388.662 189 387.062C184.83 385.412 181.33 382.742 178.5 379.062C174.48 373.672 170.98 368.012 168 362.062C169.11 362.002 170.11 361.672 171 361.062Z" fill="#E5B287"/>
<path fill-rule="evenodd" clip-rule="evenodd" d="M305 386.062C303.04 387.382 301.04 388.712 299 390.062C294.76 392.682 290.43 395.012 286 397.062C274.1 400.402 261.93 401.732 249.5 401.062C240.1 401.562 230.93 400.562 222 398.062C216.78 396.882 211.45 395.882 206 395.062C199.98 393.222 194.31 390.552 189 387.062C202.01 388.662 215.01 390.492 228 392.562C243.31 393.962 258.64 394.302 274 393.562C284.35 391.392 294.69 388.892 305 386.062Z" fill="#FCCD96"/>
<path fill-rule="evenodd" clip-rule="evenodd" d="M299.001 390.062C299.471 404.822 298.801 419.492 297.001 434.062C302.341 433.892 307.681 434.062 313.001 434.562C316.081 436.272 317.251 438.772 316.501 442.062C312.051 448.782 305.711 451.782 297.501 451.062C293.361 450.622 289.531 449.292 286.001 447.062C285.591 430.412 285.591 413.752 286.001 397.062C290.431 395.012 294.761 392.682 299.001 390.062Z" fill="#070706"/>
<path fill-rule="evenodd" clip-rule="evenodd" d="M206.001 395.062C211.451 395.882 216.781 396.882 222.001 398.062C222.051 413.872 220.721 429.542 218.001 445.062C210.521 450.312 202.191 452.142 193.001 450.562C186.491 448.682 184.321 444.512 186.501 438.062C187.671 436.672 189.171 435.832 191.001 435.562C195.991 435.062 200.991 434.892 206.001 435.062C204.701 421.682 204.701 408.352 206.001 395.062Z" fill="#090908"/>
</svg>
