<svg width="500" height="500" viewBox="0 0 500 500" fill="none" xmlns="http://www.w3.org/2000/svg">
<path fill-rule="evenodd" clip-rule="evenodd" d="M360 287.062C356.25 283.692 351.92 281.692 347 281.062C348.42 280.112 350.09 279.782 352 280.062C359.08 251.402 364.41 222.402 368 193.062C333.27 196.682 298.43 199.352 263.5 201.062C237.04 198.952 210.54 197.792 184 197.562C175.58 194.732 166.91 193.402 158 193.562C149.48 191.632 141.14 189.132 133 186.062C135.21 210.952 139.71 235.622 146.5 260.062C149.41 278.072 152.41 296.072 155.5 314.062C156.28 321.382 156.94 328.722 157.5 336.062C160.81 348.252 163.47 360.592 165.5 373.062C167.34 375.742 169.84 377.572 173 378.562C181.61 380.712 190.28 382.542 199 384.062C197.73 375.402 196.39 366.732 195 358.062C195.04 357.142 195.38 356.482 196 356.062C198.83 357.222 201.49 358.552 204 360.062C205.18 369.102 206.68 378.102 208.5 387.062C214.84 388.892 221.34 389.892 228 390.062C228 380.732 228 371.392 228 362.062C230.33 362.062 232.67 362.062 235 362.062C235.33 362.062 235.67 362.062 236 362.062C236 371.392 236 380.732 236 390.062C247.68 390.162 259.35 389.832 271 389.062C271.04 379.712 271.37 370.382 272 361.062C273.29 361.302 274.29 360.962 275 360.062C275.67 360.062 276.33 360.062 277 360.062C278 360.062 279 360.062 280 360.062C280 369.062 280 378.062 280 387.062C290.28 385.972 300.28 383.632 310 380.062C311 367.742 311.33 355.412 311 343.062C313.7 340.032 316.36 337.032 319 334.062C318.79 348.212 319.12 362.552 320 377.062C328.56 368.942 333.73 358.942 335.5 347.062C337.5 335.732 339.5 324.392 341.5 313.062C345.43 305.872 347.6 298.212 348 290.062C351.3 294.372 354.64 298.702 358 303.062C356.61 305.522 355.44 308.192 354.5 311.062C353.3 317.152 351.8 323.152 350 329.062C350.12 329.672 350.46 330.002 351 330.062C349.43 333.142 347.26 335.812 344.5 338.062C343.56 342.622 344.06 346.952 346 351.062C344.33 357.252 342.83 363.582 341.5 370.062C339.37 374.152 336.87 377.982 334 381.562C321.59 388.832 308.26 393.672 294 396.062L272.5 399.062C266.34 399.792 260.17 400.462 254 401.062C242.67 400.282 231.34 399.612 220 399.062L208 396.062C192.11 394.052 176.78 390.222 162 384.562C158.63 382.202 156.46 379.032 155.5 375.062C152.61 365.682 150.11 356.342 148 347.062C148.52 345.982 148.85 344.822 149 343.562C147.93 339.442 147.1 335.272 146.5 331.062C145.51 330.492 144.67 329.832 144 329.062C144.65 328.112 144.99 326.942 145 325.562C144.09 316.422 142.42 307.582 140 299.062C139.81 294.192 139.14 289.522 138 285.062C138.52 283.982 138.85 282.822 139 281.562C136.03 264.202 132.2 247.032 127.5 230.062C125.79 214.222 123.29 198.552 120 183.062C112.88 181.442 108.04 177.112 105.5 170.062C101.12 158.842 98.79 147.172 98.5 135.062C99.75 125.742 104.25 118.242 112 112.562C126.17 100.382 141.83 90.7115 159 83.5615C172.99 78.7915 187.32 75.4515 202 73.5615C202.79 70.4815 203.29 67.3215 203.5 64.0615C204.33 63.2315 205.17 62.3915 206 61.5615C212.31 59.9015 218.64 58.2415 225 56.5615C240.67 54.6915 256.33 53.0215 272 51.5615C279.33 55.0015 283.66 60.8315 285 69.0615C325.34 75.3315 361.67 90.8315 394 115.562C396.29 118.302 398.45 121.142 400.5 124.062C402.72 145.502 399.05 165.832 389.5 185.062C386.67 188.642 383.01 190.642 378.5 191.062C374.15 217.482 369.49 243.822 364.5 270.062C362.52 275.642 361.02 281.312 360 287.062Z" fill="#828282"/>
<path fill-rule="evenodd" clip-rule="evenodd" d="M256.001 59.0614C261.931 58.7514 267.761 59.0914 273.501 60.0614C274.631 66.6514 276.631 72.9814 279.501 79.0614C280.411 84.0214 280.911 89.0214 281.001 94.0614C277.391 94.3514 273.891 94.0214 270.501 93.0614C268.341 86.0714 265.511 79.4114 262.001 73.0614C257.701 71.9014 253.371 71.7314 249.001 72.5614C241.171 75.1014 233.171 76.7714 225.001 77.5614C223.121 79.1014 221.621 80.9414 220.501 83.0614C219.131 89.3314 218.131 95.6614 217.501 102.061C214.211 104.871 211.211 104.541 208.501 101.061C208.421 90.3614 209.091 79.7014 210.501 69.0614C211.331 68.2314 212.171 67.3914 213.001 66.5614C227.281 63.1814 241.611 60.6814 256.001 59.0614Z" fill="#9D9D9D"/>
<path fill-rule="evenodd" clip-rule="evenodd" d="M254 80.0614C255.48 79.8014 256.81 80.1314 258 81.0614C259.01 87.5014 261.18 93.5014 264.5 99.0614C272.46 104.301 280.46 104.301 288.5 99.0614C290.33 93.0314 290.17 87.0314 288 81.0614C293.36 79.8614 298.69 80.0314 304 81.5614C319.41 87.1514 334.75 93.1514 350 99.5614C363.44 106.811 376.27 114.981 388.5 124.061C388.99 125.351 389.16 126.691 389 128.061C384.39 129.331 379.72 130.501 375 131.561C367.47 137.161 359.14 140.831 350 142.561C330.99 145.481 311.99 148.481 293 151.561C269.99 152.341 246.99 153.011 224 153.561C206.43 150.191 188.77 147.191 171 144.561C154.68 138.741 138.02 134.071 121 130.561C118.66 129.391 116.32 128.221 114 127.061C119.54 120.681 125.54 114.851 132 109.561C138.61 105.281 144.95 100.611 151 95.5614C161.16 91.6214 171.49 88.2814 182 85.5614C188.2 83.6714 194.53 82.8414 201 83.0614C200.83 89.7314 201 96.4014 201.5 103.061C206.79 112.381 214.12 114.381 223.5 109.061C226.38 103.431 227.71 97.4314 227.5 91.0614C227.59 88.5514 228.43 86.3914 230 84.5614C238.36 84.2314 246.36 82.7314 254 80.0614Z" fill="#9D9D9D"/>
<path fill-rule="evenodd" clip-rule="evenodd" d="M390 134.062C391.28 135.252 391.94 136.922 392 139.062C391.71 149.252 390.21 159.252 387.5 169.062C385.99 173.592 383.82 177.762 381 181.562C367.25 185.052 353.25 186.722 339 186.562C332.88 186.912 326.88 187.912 321 189.562C301.97 189.992 282.97 190.832 264 192.062C236.99 191.172 209.99 190.002 183 188.562C161.3 185.482 139.96 180.482 119 173.562C115.01 170.572 112.18 166.742 110.5 162.062C108.72 153.132 107.56 144.132 107 135.062C114.41 137.262 121.74 139.762 129 142.562C142.58 144.882 155.92 148.212 169 152.562C189.87 156.062 210.7 159.562 231.5 163.062C252 161.802 272.5 160.632 293 159.562C307.29 157.342 321.62 155.682 336 154.562C345.33 152.232 354.67 149.892 364 147.562C372.32 142.232 380.99 137.732 390 134.062Z" fill="#9D9D9D"/>
<path fill-rule="evenodd" clip-rule="evenodd" d="M347 281.062C345.62 281.522 344.95 282.522 345 284.062C345.48 286.362 346.48 288.362 348 290.062C347.6 298.212 345.43 305.872 341.5 313.062C339.5 324.392 337.5 335.732 335.5 347.062C333.73 358.942 328.56 368.942 320 377.062C319.12 362.552 318.79 348.212 319 334.062C322.03 328.652 324.53 322.992 326.5 317.062C327 310.742 327.17 304.402 327 298.062C332.66 298.882 334.32 296.712 332 291.562C329.26 290.532 326.93 289.032 325 287.062C329.01 265.612 330.51 243.942 329.5 222.062C328.74 219.362 327.57 216.862 326 214.562C320.02 213.532 318.18 215.702 320.5 221.062C320.67 226.392 320.83 231.732 321 237.062C320.42 252.412 319.42 267.412 318 282.062C317.01 282.232 316.34 281.902 316 281.062C317.03 280.662 317.19 280.002 316.5 279.062C300.62 265.382 282.12 258.212 261 257.562C239.18 256.152 217.51 257.152 196 260.562C184.53 265.542 176.53 273.372 172 284.062C168.67 287.562 165.5 291.232 162.5 295.062C160.46 300.752 162.3 303.412 168 303.062C169.52 311.122 171.35 319.122 173.5 327.062C176.82 340.192 184.32 349.862 196 356.062C195.38 356.482 195.04 357.142 195 358.062C196.39 366.732 197.73 375.402 199 384.062C190.28 382.542 181.61 380.712 173 378.562C169.84 377.572 167.34 375.742 165.5 373.062C163.47 360.592 160.81 348.252 157.5 336.062C156.94 328.722 156.28 321.382 155.5 314.062C152.41 296.072 149.41 278.072 146.5 260.062C139.71 235.622 135.21 210.952 133 186.062C141.14 189.132 149.48 191.632 158 193.562C166.91 193.402 175.58 194.732 184 197.562C210.54 197.792 237.04 198.952 263.5 201.062C298.43 199.352 333.27 196.682 368 193.062C364.41 222.402 359.08 251.402 352 280.062C350.09 279.782 348.42 280.112 347 281.062Z" fill="#9C9C9C"/>
<path fill-rule="evenodd" clip-rule="evenodd" d="M325 287.062C322.38 285.772 320.05 284.112 318 282.062C319.42 267.412 320.42 252.412 321 237.062C320.83 231.732 320.67 226.392 320.5 221.062C318.18 215.702 320.02 213.532 326 214.562C327.57 216.862 328.74 219.362 329.5 222.062C330.51 243.942 329.01 265.612 325 287.062Z" fill="#828282"/>
<path fill-rule="evenodd" clip-rule="evenodd" d="M316 281.062C307.55 279.002 299.21 276.502 291 273.562C273.59 270.942 263.42 278.442 260.5 296.062C258.05 322.282 269.88 333.112 296 328.562C299.44 326.422 302.61 323.922 305.5 321.062C311.23 312.042 314.4 302.382 315 292.062C318.48 295.132 322.48 297.132 327 298.062C327.17 304.402 327 310.742 326.5 317.062C324.53 322.992 322.03 328.652 319 334.062C316.36 337.032 313.7 340.032 311 343.062C300.94 351.422 289.61 357.092 277 360.062C276.33 360.062 275.67 360.062 275 360.062C262.08 361.832 249.08 362.492 236 362.062C235.67 362.062 235.33 362.062 235 362.062C224.82 361.272 214.49 360.602 204 360.062C201.49 358.552 198.83 357.222 196 356.062C184.32 349.862 176.82 340.192 173.5 327.062C171.35 319.122 169.52 311.122 168 303.062C171.94 300.462 175.6 297.462 179 294.062C179.02 298.942 179.19 303.942 179.5 309.062C181.16 313.022 182.83 317.022 184.5 321.062C198.59 334.182 212.59 333.852 226.5 320.062C228.43 315.802 230.77 311.802 233.5 308.062C234.17 304.392 234.17 300.732 233.5 297.062C230.07 292.202 227.74 286.872 226.5 281.062C220.88 276.412 214.38 273.912 207 273.562C203 272.892 199 272.892 195 273.562C186.8 276.002 179.13 279.502 172 284.062C176.53 273.372 184.53 265.542 196 260.562C217.51 257.152 239.18 256.152 261 257.562C282.12 258.212 300.62 265.382 316.5 279.062C317.19 280.002 317.03 280.662 316 281.062Z" fill="#FBFBFB"/>
<path fill-rule="evenodd" clip-rule="evenodd" d="M316.001 281.061C316.341 281.901 317.011 282.231 318.001 282.061C320.051 284.111 322.381 285.771 325.001 287.061C326.931 289.031 329.261 290.531 332.001 291.561C334.321 296.711 332.661 298.881 327.001 298.061C322.481 297.131 318.481 295.131 315.001 292.061C314.401 302.381 311.231 312.041 305.501 321.061C302.611 323.921 299.441 326.421 296.001 328.561C269.881 333.111 258.051 322.281 260.501 296.061C263.421 278.441 273.591 270.941 291.001 273.561C299.211 276.501 307.551 279.001 316.001 281.061Z" fill="#050505"/>
<path fill-rule="evenodd" clip-rule="evenodd" d="M168 303.062C162.3 303.412 160.46 300.752 162.5 295.062C165.5 291.232 168.67 287.562 172 284.062C179.13 279.502 186.8 276.002 195 273.562C199 272.892 203 272.892 207 273.562C214.38 273.912 220.88 276.412 226.5 281.062C227.74 286.872 230.07 292.202 233.5 297.062C234.17 300.732 234.17 304.392 233.5 308.062C230.77 311.802 228.43 315.802 226.5 320.062C212.59 333.852 198.59 334.182 184.5 321.062C182.83 317.022 181.16 313.022 179.5 309.062C179.19 303.942 179.02 298.942 179 294.062C175.6 297.462 171.94 300.462 168 303.062Z" fill="#050505"/>
<path fill-rule="evenodd" clip-rule="evenodd" d="M277 280.061C280.36 279.631 283.2 280.631 285.5 283.061C286.05 288.101 285.72 293.101 284.5 298.061C283.67 298.891 282.83 299.731 282 300.561C278.67 301.231 275.33 301.231 272 300.561C271.31 297.861 269.81 295.701 267.5 294.061C266.79 291.591 267.13 289.261 268.5 287.061C271.13 284.351 273.96 282.021 277 280.061Z" fill="#F4F4F4"/>
<path fill-rule="evenodd" clip-rule="evenodd" d="M347.001 281.062C351.921 281.692 356.251 283.692 360.001 287.062C366.901 293.482 372.071 301.152 375.501 310.062C376.721 315.832 375.721 321.162 372.501 326.062C367.871 330.542 362.871 334.542 357.501 338.062C356.871 340.202 357.201 342.202 358.501 344.062C360.501 346.062 362.501 348.062 364.501 350.062C367.221 358.012 364.391 360.842 356.001 358.562C352.221 356.612 348.891 354.112 346.001 351.062C344.061 346.952 343.561 342.622 344.501 338.062C347.261 335.812 349.431 333.142 351.001 330.062C354.961 327.272 358.791 324.272 362.501 321.062C363.331 314.412 361.831 308.412 358.001 303.062C354.641 298.702 351.301 294.372 348.001 290.062C346.481 288.362 345.481 286.362 345.001 284.062C344.951 282.522 345.621 281.522 347.001 281.062Z" fill="#070707"/>
<path fill-rule="evenodd" clip-rule="evenodd" d="M212 283.062C221.49 283.002 224.99 287.672 222.5 297.062C214.73 309.732 208.56 309.062 204 295.062C205.18 290.012 207.85 286.012 212 283.062Z" fill="#F2F2F2"/>
<path fill-rule="evenodd" clip-rule="evenodd" d="M138 285.062C139.14 289.522 139.81 294.192 140 299.062C132.46 304.832 125.8 311.502 120 319.062C121.11 320.452 122.44 321.622 124 322.562C130.6 325.032 137.27 327.202 144 329.062C144.67 329.832 145.51 330.492 146.5 331.062C147.1 335.272 147.93 339.442 149 343.562C148.85 344.822 148.52 345.982 148 347.062C145.19 350.702 141.86 353.862 138 356.562C132 357.552 129.83 355.052 131.5 349.062C133.29 344.972 135.46 341.132 138 337.562C130.65 334.532 123.31 331.202 116 327.562C112.23 325.462 109.56 322.462 108 318.562C110.18 313.702 113.02 309.202 116.5 305.062C123.56 298.282 130.73 291.612 138 285.062Z" fill="#0A0A0A"/>
<path fill-rule="evenodd" clip-rule="evenodd" d="M261 333.062C264.7 332.242 267.03 333.572 268 337.062C265.59 341.972 262.25 346.142 258 349.562C254.6 350.112 251.27 349.772 248 348.562C244.88 346.592 241.72 344.752 238.5 343.062C237.11 339.362 238.27 337.362 242 337.062C246.33 338.312 250.5 339.972 254.5 342.062C257.18 339.352 259.34 336.352 261 333.062Z" fill="#0F0F0F"/>
<path fill-rule="evenodd" clip-rule="evenodd" d="M311 343.062C311.33 355.412 311 367.742 310 380.062C300.28 383.632 290.28 385.972 280 387.062C280 378.062 280 369.062 280 360.062C279 360.062 278 360.062 277 360.062C289.61 357.092 300.94 351.422 311 343.062Z" fill="#9E9E9E"/>
<path fill-rule="evenodd" clip-rule="evenodd" d="M204 360.062C214.49 360.602 224.82 361.272 235 362.062C232.67 362.062 230.33 362.062 228 362.062C228 371.392 228 380.732 228 390.062C221.34 389.892 214.84 388.892 208.5 387.062C206.68 378.102 205.18 369.102 204 360.062Z" fill="#9D9D9D"/>
<path fill-rule="evenodd" clip-rule="evenodd" d="M275 360.062C274.29 360.962 273.29 361.302 272 361.062C271.37 370.382 271.04 379.712 271 389.062C259.35 389.832 247.68 390.162 236 390.062C236 380.732 236 371.392 236 362.062C249.08 362.492 262.08 361.832 275 360.062Z" fill="#9D9D9D"/>
<path fill-rule="evenodd" clip-rule="evenodd" d="M219 405.062C219.17 415.732 219 426.402 218.5 437.062C217.39 438.602 215.89 439.262 214 439.062C214.4 441.602 213.73 443.772 212 445.562C205.22 446.482 198.56 446.152 192 444.562C188.11 440.972 188.11 437.312 192 433.562C197.32 433.062 202.66 432.892 208 433.062C208 427.062 208 421.062 208 415.062C208.99 408.922 209.32 402.582 209 396.062C212.02 395.902 215.02 396.062 218 396.562C218.94 399.282 219.28 402.112 219 405.062Z" fill="#0D0D0D"/>
<path fill-rule="evenodd" clip-rule="evenodd" d="M292 398.062C292.85 410.042 293.51 422.042 294 434.062C300.18 433.102 305.68 434.442 310.5 438.062C311.17 439.732 311.17 441.392 310.5 443.062C308.25 444.942 305.75 446.442 303 447.562C298 448.232 293 448.232 288 447.562C285.88 445.832 284.38 443.662 283.5 441.062C282 427.752 280.84 414.422 280 401.062C280 400.062 280 399.062 280 398.062C283.17 398.162 286.17 397.492 289 396.062C290.24 396.502 291.24 397.172 292 398.062Z" fill="#0D0D0D"/>
</svg>
