<svg width="500" height="500" viewBox="0 0 500 500" fill="none" xmlns="http://www.w3.org/2000/svg">
<path fill-rule="evenodd" clip-rule="evenodd" d="M237 111.062C243.47 111.032 247.47 114.192 249 120.562C255 120.892 261 121.232 267 121.562C275.19 122.422 282.02 125.922 287.5 132.062C288.4 134.362 289.23 136.702 290 139.062C310.47 147.302 330.14 157.132 349 168.562C358.56 175.522 367.56 183.182 376 191.562C385.83 196.972 395.5 202.642 405 208.562C418.23 212.192 430.9 217.192 443 223.562C456.96 236.982 461.46 253.142 456.5 272.062C448.7 300.372 430.2 313.542 401 311.562C394.97 309.672 389.47 306.832 384.5 303.062C383.11 315.612 379.11 327.282 372.5 338.062C365.64 345.922 358.48 353.422 351 360.562C333.31 371.092 314.31 378.752 294 383.562C281.49 385.312 268.99 387.152 256.5 389.062C244.17 387.762 231.83 387.762 219.5 389.062C198.25 388.072 178.42 382.242 160 371.562C147.56 363.122 135.73 353.952 124.5 344.062C116.28 331.152 111.11 317.152 109 302.062C103.91 302.312 98.91 303.142 94 304.562C75.19 308.832 59.69 303.662 47.5 289.062C43.76 283.332 41.93 277.002 42 270.062C42.87 263.242 44.37 256.582 46.5 250.062C47.73 246.502 49.39 243.172 51.5 240.062C62.54 224.792 77.04 214.292 95 208.562C106.01 203.732 116.01 197.392 125 189.562C134.7 180.202 144.03 170.532 153 160.562C162.5 154.642 172.17 148.972 182 143.562C189.69 142.422 197.35 141.092 205 139.562C206.53 136.592 207.7 133.432 208.5 130.062C215.1 123.972 222.93 120.802 232 120.562C232.75 118.832 233.25 116.992 233.5 115.062C234.88 113.852 236.04 112.522 237 111.062Z" fill="#9B4402"/>
<path fill-rule="evenodd" clip-rule="evenodd" d="M284 147.062C305.13 154.132 325.13 163.632 344 175.562C353 183.232 362 190.892 371 198.562C390.83 210.832 411.83 220.162 434 226.562C440.72 231.932 445.88 238.432 449.5 246.062C450.57 251.702 450.91 257.372 450.5 263.062C447.01 276.552 440.17 288.052 430 297.562C425.71 300.182 421.21 302.352 416.5 304.062C402.55 305.422 391.55 300.422 383.5 289.062C382.64 281.532 380.98 274.202 378.5 267.062C369.26 247.002 357.43 228.672 343 212.062C336.85 206.492 330.52 201.162 324 196.062C322.87 197.632 322.7 199.302 323.5 201.062C344.09 223.222 360.42 248.222 372.5 276.062C376.52 293.072 375.52 309.742 369.5 326.062C359.36 341.882 345.86 353.712 329 361.562C318.73 365.872 308.39 369.872 298 373.562C266.65 380.302 234.99 381.962 203 378.562C184.93 373.882 167.93 366.882 152 357.562C125.36 336.922 114.2 309.752 118.5 276.062C122.95 261.382 128.95 247.382 136.5 234.062C144.17 223.732 151.83 213.392 159.5 203.062C159.98 202.112 160.15 201.112 160 200.062C157.85 199.932 155.85 200.432 154 201.562C139.54 216.292 127.37 232.792 117.5 251.062C112.76 265.042 109.42 279.372 107.5 294.062C106.78 293.502 105.94 293.172 105 293.062C94.8504 296.022 84.5204 297.182 74.0004 296.562C65.5704 292.122 58.4104 286.292 52.5004 279.062C50.0104 270.332 51.0104 262.002 55.5004 254.062C66.5104 235.052 82.3404 221.882 103 214.562C114.2 208.802 124.53 201.802 134 193.562C142.64 183.922 151.64 174.592 161 165.562C169 160.892 177 156.232 185 151.562C191.13 150.482 197.29 149.652 203.5 149.062C207.63 151.842 211.79 154.672 216 157.562C220.63 159.482 225.47 160.312 230.5 160.062C243.08 159.702 255.58 158.532 268 156.562C274.88 155.632 280.21 152.472 284 147.062Z" fill="#FEFBBE"/>
<path fill-rule="evenodd" clip-rule="evenodd" d="M282.001 169.062C287.661 168.242 289.321 170.412 287.001 175.562C281.681 176.292 280.021 174.122 282.001 169.062Z" fill="#242424"/>
<path fill-rule="evenodd" clip-rule="evenodd" d="M199 171.062C204.99 171.222 206.32 173.722 203 178.562C196.9 178.712 195.57 176.212 199 171.062Z" fill="#2A2A29"/>
<path fill-rule="evenodd" clip-rule="evenodd" d="M242 175.061C249.61 173.501 251.78 176.161 248.5 183.061C246.04 185.011 244.2 187.341 243 190.061C242.99 192.151 243.65 193.991 245 195.561C250.03 197.661 254.87 197.501 259.5 195.061C259.83 192.391 260.17 189.731 260.5 187.061C261.83 185.731 263.17 185.731 264.5 187.061C265.15 199.511 259.32 204.011 247 200.561C244.33 199.561 241.99 198.061 240 196.061C234.95 198.681 229.62 199.511 224 198.561C219.7 195.571 219.03 192.071 222 188.061C223.55 189.891 224.55 192.061 225 194.561C239.74 196.371 242.74 191.541 234 180.061C236.2 177.501 238.87 175.831 242 175.061Z" fill="#292828"/>
<path fill-rule="evenodd" clip-rule="evenodd" d="M322.999 259.061C312.949 256.551 302.949 253.711 292.999 250.561C279.529 248.681 269.689 253.851 263.499 266.061C258.549 279.201 258.879 292.201 264.499 305.061C274.439 314.591 286.279 318.091 299.999 315.561C304.599 313.351 308.769 310.511 312.499 307.061C316.459 299.471 320.129 291.811 323.499 284.061C323.209 280.351 323.379 276.691 323.999 273.061C329.059 277.811 335.059 280.471 341.999 281.061C343.089 288.011 343.259 295.011 342.499 302.061C339.309 308.641 336.309 315.311 333.499 322.061C331.669 323.891 329.829 325.731 327.999 327.561C313.349 334.721 298.349 341.051 282.999 346.561C258.439 349.771 233.769 350.771 208.999 349.561C196.369 346.581 184.369 341.921 172.999 335.561C169.249 331.141 164.919 327.481 159.999 324.561C157.229 315.501 154.729 306.331 152.499 297.061C151.999 292.411 151.829 287.741 151.999 283.061C156.619 279.451 161.289 275.781 165.999 272.061C166.329 272.391 166.669 272.731 166.999 273.061C164.899 275.851 163.899 279.021 163.999 282.561C164.849 296.931 171.509 307.601 183.999 314.561C198.449 317.961 210.619 314.131 220.499 303.061C222.769 298.461 225.439 294.131 228.499 290.061C230.579 281.281 228.579 273.611 222.499 267.061C222.499 263.371 221.499 260.031 219.499 257.061C210.879 250.871 201.209 248.201 190.499 249.061C185.869 249.001 181.369 249.671 176.999 251.061C178.909 249.001 181.239 247.501 183.999 246.561C192.819 245.401 201.489 243.401 209.999 240.561C232.649 237.461 255.319 237.301 277.999 240.061C288.839 237.381 298.839 239.211 307.999 245.561C311.399 249.601 315.739 251.431 320.999 251.061C321.059 253.901 321.729 256.571 322.999 259.061Z" fill="#F9F9F9"/>
<path fill-rule="evenodd" clip-rule="evenodd" d="M152.001 283.061C149.461 283.461 147.291 282.791 145.501 281.061C144.831 278.391 144.831 275.731 145.501 273.061C153.451 262.161 163.951 254.831 177.001 251.061C181.371 249.671 185.871 249.001 190.501 249.061C201.211 248.201 210.881 250.871 219.501 257.061C221.501 260.031 222.501 263.371 222.501 267.061C228.581 273.611 230.581 281.281 228.501 290.061C225.441 294.131 222.771 298.461 220.501 303.061C210.621 314.131 198.451 317.961 184.001 314.561C171.511 307.601 164.851 296.931 164.001 282.561C163.901 279.021 164.901 275.851 167.001 273.061C166.671 272.731 166.331 272.391 166.001 272.061C161.291 275.781 156.621 279.451 152.001 283.061Z" fill="#050505"/>
<path fill-rule="evenodd" clip-rule="evenodd" d="M323.001 259.062C330.351 264.492 337.851 269.832 345.501 275.062C345.891 277.862 344.721 279.862 342.001 281.062C335.061 280.472 329.061 277.812 324.001 273.062C323.381 276.692 323.211 280.352 323.501 284.062C320.131 291.812 316.461 299.472 312.501 307.062C308.771 310.512 304.601 313.352 300.001 315.562C286.281 318.092 274.441 314.592 264.501 305.062C258.881 292.202 258.551 279.202 263.501 266.062C269.691 253.852 279.531 248.682 293.001 250.562C302.951 253.712 312.951 256.552 323.001 259.062Z" fill="#050505"/>
<path fill-rule="evenodd" clip-rule="evenodd" d="M279 259.062C288.21 258.102 292.04 262.102 290.5 271.062C289.51 282.352 283.68 285.852 273 281.562C271.93 278.822 270.43 276.322 268.5 274.062C267.56 270.682 268.23 267.682 270.5 265.062C273.62 263.322 276.45 261.322 279 259.062Z" fill="#F3F3F3"/>
<path fill-rule="evenodd" clip-rule="evenodd" d="M204 260.062C214.7 260.742 218.53 266.402 215.5 277.062C206.41 291.172 199.24 290.342 194 274.562C195.72 268.612 199.06 263.782 204 260.062Z" fill="#F4F4F4"/>
<path fill-rule="evenodd" clip-rule="evenodd" d="M261 319.061C266.5 318.391 268.67 320.721 267.5 326.061C264.71 331.181 260.88 335.351 256 338.561C252.6 339.111 249.27 338.771 246 337.561C242 334.981 237.83 332.811 233.5 331.061C232.01 326.731 233.51 324.391 238 324.061C242.12 324.491 245.79 325.991 249 328.561C250.67 329.231 252.33 329.231 254 328.561C256.55 325.521 258.88 322.351 261 319.061Z" fill="#0B0B0B"/>
</svg>
