<svg width="500" height="500" viewBox="0 0 500 500" fill="none" xmlns="http://www.w3.org/2000/svg">
<path fill-rule="evenodd" clip-rule="evenodd" d="M262 72.0616C263 72.7316 264 73.3916 265 74.0616C263.67 74.0616 262.33 74.0616 261 74.0616C261 75.0616 261 76.0616 261 77.0616C259.57 76.9816 258.24 77.3116 257 78.0616C255.85 80.3216 255.69 82.6616 256.5 85.0616C258.06 86.0816 259.22 87.4116 260 89.0616C259.46 90.4216 259.29 91.7616 259.5 93.0616C261.17 94.0616 262.5 95.3916 263.5 97.0616C263.74 100.902 264.57 104.572 266 108.062C256.93 94.9416 246.77 93.9416 235.5 105.062C234.32 109.802 232.49 114.132 230 118.062C230.66 113.902 230.99 109.902 231 106.062C228.65 105.552 225.99 105.212 223 105.062C223.24 101.982 222.91 98.9816 222 96.0616C223.38 95.0116 224.38 93.6816 225 92.0616C222.75 89.8216 221.42 87.1616 221 84.0616C224.69 84.3816 227.36 82.8816 229 79.5616C233.54 77.9916 237.54 75.6616 241 72.5616C247.96 70.7916 254.96 70.6216 262 72.0616Z" fill="#98F9F3"/>
<path fill-rule="evenodd" clip-rule="evenodd" d="M265.999 108.062C271.819 120.822 270.989 133.152 263.499 145.062C260.979 148.782 258.479 152.452 255.999 156.062C254.019 157.702 252.019 159.372 249.999 161.062C236.579 149.892 229.919 135.562 229.999 118.062C232.489 114.132 234.319 109.802 235.499 105.062C246.769 93.9415 256.929 94.9415 265.999 108.062Z" fill="#030505"/>
<path fill-rule="evenodd" clip-rule="evenodd" d="M262 72.0614C254.96 70.6214 247.96 70.7914 241 72.5614C237.54 75.6614 233.54 77.9914 229 79.5614C227.36 82.8814 224.69 84.3814 221 84.0614C221.42 87.1614 222.75 89.8214 225 92.0614C224.38 93.6814 223.38 95.0114 222 96.0614C222.91 98.9814 223.24 101.981 223 105.061C225.99 105.211 228.65 105.551 231 106.061C230.99 109.901 230.66 113.901 230 118.061C229.92 135.561 236.58 149.891 250 161.061C252.02 159.371 254.02 157.701 256 156.061C256.02 161.321 253.35 163.991 248 164.061C245.81 163.971 243.81 163.301 242 162.061C241.11 162.881 240.78 163.881 241 165.061C242.32 164.891 243.49 165.221 244.5 166.061C245.34 168.401 246.17 170.731 247 173.061C246.78 174.621 246.11 175.951 245 177.061C245.68 181.021 245.68 184.861 245 188.561C247 190.231 249 191.891 251 193.561C249.76 194.251 249.76 194.751 251 195.061C246.24 197.941 241.24 200.611 236 203.061C234.5 203.151 233.5 202.481 233 201.061C235.71 196.641 235.54 192.311 232.5 188.061C232.17 184.391 231.83 180.731 231.5 177.061C225.15 171.361 221.15 164.361 219.5 156.061C216.09 152.331 214.09 148.001 213.5 143.061C211.83 141.391 210.17 139.731 208.5 138.061C207.5 131.241 206.67 124.411 206 117.561C208.24 109.451 210.24 101.291 212 93.0614C223.52 73.7614 240.18 66.7614 262 72.0614Z" fill="#A8F4F6"/>
<path fill-rule="evenodd" clip-rule="evenodd" d="M265 74.0615C279.91 79.3115 289.24 89.6415 293 105.062C290.48 102.542 287.98 102.542 285.5 105.062C284.08 103.222 282.91 101.222 282 99.0615C283.32 107.092 280.99 113.922 275 119.562C276.14 128.652 276.64 137.822 276.5 147.062C273.46 149.732 270.62 152.562 268 155.562C268.67 155.892 269.33 156.232 270 156.562C270.28 159.172 270.28 161.842 270 164.562C271.55 164.892 272.88 164.392 274 163.062C274.33 163.732 274.67 164.392 275 165.062C273.21 167.442 272.21 170.112 272 173.062C273.33 173.062 274.67 173.062 276 173.062C274.3 174.772 272.97 176.772 272 179.062C280.64 186.222 290.31 191.552 301 195.062C298.81 196.362 296.47 196.362 294 195.062C290.45 192.182 286.45 190.182 282 189.062C280.53 189.942 279.7 191.272 279.5 193.062C276.84 194.132 274.68 195.802 273 198.062C273.67 199.062 274.33 200.062 275 201.062C274.58 202.892 274.58 204.892 275 207.062C273.1 206.462 271.44 206.462 270 207.062C264.52 203.482 259.19 199.652 254 195.562C253.05 195.082 252.05 194.912 251 195.062C249.76 194.752 249.76 194.252 251 193.562C249 191.892 247 190.232 245 188.562C245.68 184.862 245.68 181.022 245 177.062C246.11 175.952 246.78 174.622 247 173.062C246.17 170.732 245.34 168.402 244.5 166.062C243.49 165.222 242.32 164.892 241 165.062C240.78 163.882 241.11 162.882 242 162.062C243.81 163.302 245.81 163.972 248 164.062C253.35 163.992 256.02 161.322 256 156.062C258.48 152.452 260.98 148.782 263.5 145.062C270.99 133.152 271.82 120.822 266 108.062C264.57 104.572 263.74 100.902 263.5 97.0615C262.5 95.3915 261.17 94.0615 259.5 93.0615C259.29 91.7615 259.46 90.4215 260 89.0615C259.22 87.4115 258.06 86.0815 256.5 85.0615C255.69 82.6615 255.85 80.3215 257 78.0615C258.24 77.3115 259.57 76.9815 261 77.0615C261 76.0615 261 75.0615 261 74.0615C262.33 74.0615 263.67 74.0615 265 74.0615Z" fill="#7CF7E0"/>
<path fill-rule="evenodd" clip-rule="evenodd" d="M185 165.061C186.65 166.991 188.31 168.991 190 171.061C194.19 178.641 197.19 186.641 199 195.061C200.56 195.041 202.06 194.711 203.5 194.061C209.49 190.321 215.65 186.981 222 184.061C221.43 185.821 220.59 187.481 219.5 189.061C219.09 188.601 218.59 188.271 218 188.061C216.81 189.411 215.48 190.581 214 191.561C216.14 192.871 218.14 194.371 220 196.061C221.76 200.701 224.43 204.701 228 208.061C220.82 212.151 213.49 215.981 206 219.561C204.86 220.711 203.86 221.871 203 223.061C203 222.061 203 221.061 203 220.061C201.11 219.861 199.61 220.521 198.5 222.061C190.72 217.251 182.55 212.251 174 207.061C174.61 202.451 174.61 197.781 174 193.061C172.54 193.131 171.21 192.791 170 192.061C165.07 180.131 156.74 171.461 145 166.061C138.79 164.051 132.45 162.051 126 160.061C123.97 162.411 121.64 163.081 119 162.061C117.76 162.601 116.59 163.261 115.5 164.061C114.17 162.561 112.67 161.231 111 160.061C108.77 156.901 107.11 153.401 106 149.561C106.37 147.321 107.37 146.821 109 148.061C112.1 146.431 114.93 144.431 117.5 142.061C121.17 142.731 124.83 143.391 128.5 144.061C132.85 141.001 137.68 139.671 143 140.061C143 141.061 143 142.061 143 143.061C146.63 142.761 150.3 143.261 154 144.561C158.33 148.291 163.33 150.791 169 152.061C170.67 153.451 172 155.281 173 157.561C177.1 160.001 181.1 162.501 185 165.061Z" fill="#DFD4FA"/>
<path fill-rule="evenodd" clip-rule="evenodd" d="M293 105.062C294.15 105.352 294.82 106.182 295 107.562C299.11 125.142 296.61 141.642 287.5 157.062C284.19 162.852 280.36 168.192 276 173.062C274.67 173.062 273.33 173.062 272 173.062C272.21 170.112 273.21 167.442 275 165.062C274.67 164.392 274.33 163.732 274 163.062C272.88 164.392 271.55 164.892 270 164.562C270.28 161.842 270.28 159.172 270 156.562C269.33 156.232 268.67 155.892 268 155.562C270.62 152.562 273.46 149.732 276.5 147.062C276.64 137.822 276.14 128.652 275 119.562C280.99 113.922 283.32 107.092 282 99.0615C282.91 101.222 284.08 103.222 285.5 105.062C287.98 102.542 290.48 102.542 293 105.062Z" fill="#6EF4D5"/>
<path fill-rule="evenodd" clip-rule="evenodd" d="M211.999 93.0615C210.239 101.292 208.239 109.452 205.999 117.562C206.669 124.412 207.499 131.242 208.499 138.062C210.169 139.732 211.829 141.392 213.499 143.062C214.089 148.002 216.089 152.332 219.499 156.062C221.149 164.362 225.149 171.362 231.499 177.062C231.829 180.732 232.169 184.392 232.499 188.062C235.539 192.312 235.709 196.642 232.999 201.062C233.499 202.482 234.499 203.152 235.999 203.062C233.709 205.212 231.039 206.882 227.999 208.062C224.429 204.702 221.759 200.702 219.999 196.062C218.139 194.372 216.139 192.872 213.999 191.562C215.479 190.582 216.809 189.412 217.999 188.062C218.589 188.272 219.089 188.602 219.499 189.062C220.589 187.482 221.429 185.822 221.999 184.062C224.899 182.352 226.739 180.022 227.499 177.062C207.689 158.182 200.019 135.182 204.499 108.062C205.979 102.442 208.479 97.4415 211.999 93.0615Z" fill="#B6E2ED"/>
<path fill-rule="evenodd" clip-rule="evenodd" d="M145 166.061C156.74 171.461 165.07 180.131 170 192.061C171.32 196.041 172.65 200.041 174 204.061C173.52 205.041 172.86 205.871 172 206.561C161.05 209.221 150.05 209.561 139 207.561C127.88 203.771 120.38 196.271 116.5 185.061C114.32 176.581 117.15 170.421 125 166.561C131.62 164.781 138.29 164.621 145 166.061Z" fill="#070607"/>
<path fill-rule="evenodd" clip-rule="evenodd" d="M371.001 165.062C375.161 167.072 379.001 169.742 382.501 173.062C384.641 191.632 376.471 203.132 358.001 207.562C347.771 209.992 337.771 209.322 328.001 205.562C327.061 202.762 327.221 199.932 328.501 197.062C329.921 193.302 331.421 189.632 333.001 186.062C341.311 171.242 353.971 164.242 371.001 165.062Z" fill="#020604"/>
<path fill-rule="evenodd" clip-rule="evenodd" d="M407 165.062C404.14 163.132 401.14 161.462 398 160.062C397.33 158.062 396.67 156.062 396 154.062C394.33 149.562 391.17 146.562 386.5 145.062C380.28 145.482 374.12 144.822 368 143.062C368.22 144.242 367.89 145.242 367 146.062C363.25 147.292 359.58 148.622 356 150.062C358.53 151.302 360.53 153.132 362 155.562C361.21 157.192 360.21 158.692 359 160.062C354.47 160.432 350.14 161.432 346 163.062C344.66 161.562 342.99 160.892 341 161.062C341.15 162.112 340.98 163.112 340.5 164.062C337.45 165.532 334.62 167.362 332 169.562C330.19 172.202 328.19 174.702 326 177.062C326.55 178.892 327.39 180.562 328.5 182.062C329.41 180.122 330.91 179.122 333 179.062C332.87 176.642 332.71 174.312 332.5 172.062C333.17 172.732 333.83 173.392 334.5 174.062C335.45 171.972 336.79 171.632 338.5 173.062C343.71 170.312 348.88 167.482 354 164.562C359.85 163.742 365.52 163.912 371 165.062C353.97 164.242 341.31 171.242 333 186.062C330.84 187.892 329.34 190.222 328.5 193.062C327.87 191.032 326.7 189.362 325 188.062C323.33 190.562 321.49 192.892 319.5 195.062C318.5 192.332 316.67 190.662 314 190.062C314.46 193.042 314.8 196.042 315 199.062C313.11 199.262 311.61 198.602 310.5 197.062C309.19 199.452 308.19 199.452 307.5 197.062C306.38 203.412 302.55 207.242 296 208.562C295.67 210.232 295.33 211.892 295 213.562C293.48 214.572 291.81 215.072 290 215.062C290.15 216.112 289.98 217.112 289.5 218.062C288.52 216.792 287.69 216.792 287 218.062C281.16 214.642 275.5 210.982 270 207.062C271.44 206.462 273.1 206.462 275 207.062C274.58 204.892 274.58 202.892 275 201.062C274.33 200.062 273.67 199.062 273 198.062C274.68 195.802 276.84 194.132 279.5 193.062C279.7 191.272 280.53 189.942 282 189.062C286.45 190.182 290.45 192.182 294 195.062C296.47 196.362 298.81 196.362 301 195.062C307.17 165.392 324.83 146.562 354 138.562C375.4 135.022 392.57 141.852 405.5 159.062C406 161.082 406.5 163.082 407 165.062Z" fill="#3BEDB6"/>
<path fill-rule="evenodd" clip-rule="evenodd" d="M251 195.062C252.05 194.912 253.05 195.082 254 195.562C259.19 199.652 264.52 203.482 270 207.062C275.5 210.982 281.16 214.642 287 218.062C290.25 219.602 293.42 221.272 296.5 223.062C297 228.382 297.17 233.722 297 239.062C287.91 234.312 278.24 232.142 268 232.562C261.18 236.372 258.18 242.202 259 250.062C258.52 261.422 264.02 267.082 275.5 267.062C284.75 265.812 290.08 260.482 291.5 251.062C291.83 248.392 292.17 245.732 292.5 243.062C293.77 244.442 295.27 245.442 297 246.062C297 247.732 297 249.392 297 251.062C296.18 259.032 295.84 267.032 296 275.062C293.33 278.392 290 280.722 286 282.062C281.72 283.532 277.72 285.532 274 288.062C271.17 288.642 268.84 289.972 267 292.062C263.79 293.832 260.79 295.832 258 298.062C255.05 299.202 252.39 300.872 250 303.062C246.32 300.372 242.65 297.702 239 295.062C233.15 290.972 226.82 287.632 220 285.062C215.71 282.642 211.04 280.802 206 279.562C204.79 278.522 203.79 277.352 203 276.062C203.97 267.482 204.3 258.812 204 250.062C207.92 244.372 209.25 244.702 208 251.062C210.79 267.792 219.79 272.292 235 264.562C244.18 254.942 244.18 245.282 235 235.562C229.19 233.242 223.19 232.582 217 233.562C212.49 235.122 208.15 236.952 204 239.062C204.32 234.862 203.98 230.862 203 227.062C203 225.732 203 224.392 203 223.062C203.86 221.872 204.86 220.712 206 219.562C213.49 215.982 220.82 212.152 228 208.062C231.04 206.882 233.71 205.212 236 203.062C241.24 200.612 246.24 197.942 251 195.062Z" fill="#FCFBFA"/>
<path fill-rule="evenodd" clip-rule="evenodd" d="M396 154.062C392.82 151.812 389.82 152.312 387 155.562C383.82 156.272 380.82 156.602 378 156.562C377.14 157.252 376.48 158.082 376 159.062C377.67 160.652 379.67 161.312 382 161.062C381.72 163.522 380.72 165.692 379 167.562C384.62 168.482 387.62 171.812 388 177.562C387 179.232 386 180.892 385 182.562C386.08 183.932 386.91 185.432 387.5 187.062C388.04 185.292 388.87 184.962 390 186.062C387.89 189.832 386.39 193.832 385.5 198.062C385.17 197.062 384.83 196.062 384.5 195.062C383.5 194.732 382.5 194.392 381.5 194.062C381.01 195.692 380.84 197.362 381 199.062C379.95 198.912 378.95 199.082 378 199.562C374.69 203.222 370.69 205.892 366 207.562C352.59 210.822 339.26 210.822 326 207.562C325.19 207.252 324.53 206.752 324 206.062C325.53 203.322 324.86 201.322 322 200.062C316.73 205.132 310.56 209.132 303.5 212.062C302.73 211.922 302.06 211.582 301.5 211.062C301.16 213.602 300.66 216.102 300 218.562C301.65 220.972 300.99 222.142 298 222.062C298 228.062 298 234.062 298 240.062C297.33 240.062 297 239.732 297 239.062C297.17 233.722 297 228.382 296.5 223.062C293.42 221.272 290.25 219.602 287 218.062C287.69 216.792 288.52 216.792 289.5 218.062C289.98 217.112 290.15 216.112 290 215.062C291.81 215.072 293.48 214.572 295 213.562C295.33 211.892 295.67 210.232 296 208.562C302.55 207.242 306.38 203.412 307.5 197.062C308.19 199.452 309.19 199.452 310.5 197.062C311.61 198.602 313.11 199.262 315 199.062C314.8 196.042 314.46 193.042 314 190.062C316.67 190.662 318.5 192.332 319.5 195.062C321.49 192.892 323.33 190.562 325 188.062C326.7 189.362 327.87 191.032 328.5 193.062C329.34 190.222 330.84 187.892 333 186.062C331.42 189.632 329.92 193.302 328.5 197.062C327.22 199.932 327.06 202.762 328 205.562C337.77 209.322 347.77 209.992 358 207.562C376.47 203.132 384.64 191.632 382.5 173.062C379 169.742 375.16 167.072 371 165.062C365.52 163.912 359.85 163.742 354 164.562C348.88 167.482 343.71 170.312 338.5 173.062C336.79 171.632 335.45 171.972 334.5 174.062C333.83 173.392 333.17 172.732 332.5 172.062C332.71 174.312 332.87 176.642 333 179.062C330.91 179.122 329.41 180.122 328.5 182.062C327.39 180.562 326.55 178.892 326 177.062C328.19 174.702 330.19 172.202 332 169.562C334.62 167.362 337.45 165.532 340.5 164.062C340.98 163.112 341.15 162.112 341 161.062C342.99 160.892 344.66 161.562 346 163.062C350.14 161.432 354.47 160.432 359 160.062C360.21 158.692 361.21 157.192 362 155.562C360.53 153.132 358.53 151.302 356 150.062C359.58 148.622 363.25 147.292 367 146.062C367.89 145.242 368.22 144.242 368 143.062C374.12 144.822 380.28 145.482 386.5 145.062C391.17 146.562 394.33 149.562 396 154.062Z" fill="#27E9A7"/>
<path fill-rule="evenodd" clip-rule="evenodd" d="M185 165.061C181.1 162.501 177.1 160.001 173 157.561C172 155.281 170.67 153.451 169 152.061C163.33 150.791 158.33 148.291 154 144.561C150.3 143.261 146.63 142.761 143 143.061C143 142.061 143 141.061 143 140.061C137.68 139.671 132.85 141.001 128.5 144.061C124.83 143.391 121.17 142.731 117.5 142.061C114.93 144.431 112.1 146.431 109 148.061C107.37 146.821 106.37 147.321 106 149.561C107.11 153.401 108.77 156.901 111 160.061C112.67 161.231 114.17 162.561 115.5 164.061C116.59 163.261 117.76 162.601 119 162.061C121.64 163.081 123.97 162.411 126 160.061C132.45 162.051 138.79 164.051 145 166.061C138.29 164.621 131.62 164.781 125 166.561C117.15 170.421 114.32 176.581 116.5 185.061C120.38 196.271 127.88 203.771 139 207.561C150.05 209.561 161.05 209.221 172 206.561C172.86 205.871 173.52 205.041 174 204.061C172.65 200.041 171.32 196.041 170 192.061C171.21 192.791 172.54 193.131 174 193.061C174.61 197.781 174.61 202.451 174 207.061C182.55 212.251 190.72 217.251 198.5 222.061C199.61 220.521 201.11 219.861 203 220.061C203 221.061 203 222.061 203 223.061C203 224.391 203 225.731 203 227.061C203.16 229.751 202.33 232.081 200.5 234.061C188.01 232.511 176.01 228.851 164.5 223.061C161.76 226.901 159.6 226.741 158 222.561C151 222.231 144 221.891 137 221.561C133.32 219.311 129.32 217.971 125 217.561C124.16 216.551 123.83 215.381 124 214.061C119.67 213.011 117.5 214.681 117.5 219.061C116.49 218.221 115.32 217.891 114 218.061C114.16 215.371 114 212.711 113.5 210.061C111.22 207.851 108.55 206.181 105.5 205.061C104.21 205.511 103.05 206.181 102 207.061C99.6002 204.151 98.2702 204.481 98.0002 208.061C86.7602 191.121 86.2602 173.781 96.5002 156.061C109.21 140.811 125.38 134.971 145 138.561C149.5 140.281 154.16 141.611 159 142.561C169.65 147.711 178.32 155.211 185 165.061Z" fill="#E6CFDF"/>
<path fill-rule="evenodd" clip-rule="evenodd" d="M203 227.062C203.98 230.862 204.32 234.862 204 239.062C202.33 241.392 200.33 243.392 198 245.062C198 244.062 198 243.062 198 242.062C193.09 242.132 188.43 242.472 184 243.062C183.25 242.182 182.75 241.182 182.5 240.062C182.03 241.812 181.36 243.472 180.5 245.062C180.33 251.242 179.83 257.242 179 263.062C179 253.062 179 243.062 179 233.062C176.76 232.772 174.76 233.102 173 234.062C160 235.322 147 235.322 134 234.062C118.35 230.412 106.35 221.742 98 208.062C98.27 204.482 99.6 204.152 102 207.062C103.05 206.182 104.21 205.512 105.5 205.062C108.55 206.182 111.22 207.852 113.5 210.062C114 212.712 114.16 215.372 114 218.062C115.32 217.892 116.49 218.222 117.5 219.062C117.5 214.682 119.67 213.012 124 214.062C123.83 215.382 124.16 216.552 125 217.562C129.32 217.972 133.32 219.312 137 221.562C144 221.892 151 222.232 158 222.562C159.6 226.742 161.76 226.902 164.5 223.062C176.01 228.852 188.01 232.512 200.5 234.062C202.33 232.082 203.16 229.752 203 227.062Z" fill="#EDCFD4"/>
<path fill-rule="evenodd" clip-rule="evenodd" d="M396 154.061C396.67 156.061 397.33 158.061 398 160.061C401.14 161.461 404.14 163.131 407 165.061C407.67 166.061 408.33 167.061 409 168.061C410.44 178.121 410.11 188.121 408 198.061C398.2 217.801 382.53 230.131 361 235.061C356.18 235.601 351.35 235.931 346.5 236.061C338.05 235.021 329.55 234.021 321 233.061C321 243.391 321 253.731 321 264.061C320.18 259.911 319.68 255.581 319.5 251.061C318.73 249.711 317.56 248.881 316 248.561C316.33 248.231 316.67 247.891 317 247.561C312.83 247.601 308.66 248.101 304.5 249.061C302.42 248.541 300.42 247.881 298.5 247.061C298.29 248.621 297.79 249.951 297 251.061C297 249.391 297 247.731 297 246.061C298.56 246.081 300.06 246.411 301.5 247.061C303 246.891 303.83 246.061 304 244.561C302.42 242.481 300.42 240.981 298 240.061C298 234.061 298 228.061 298 222.061C300.99 222.141 301.65 220.971 300 218.561C300.66 216.101 301.16 213.601 301.5 211.061C302.06 211.581 302.73 211.921 303.5 212.061C310.56 209.131 316.73 205.131 322 200.061C324.86 201.321 325.53 203.321 324 206.061C324.53 206.751 325.19 207.251 326 207.561C339.26 210.821 352.59 210.821 366 207.561C370.69 205.891 374.69 203.221 378 199.561C378.95 199.081 379.95 198.911 381 199.061C380.84 197.361 381.01 195.691 381.5 194.061C382.5 194.391 383.5 194.731 384.5 195.061C384.83 196.061 385.17 197.061 385.5 198.061C386.39 193.831 387.89 189.831 390 186.061C388.87 184.961 388.04 185.291 387.5 187.061C386.91 185.431 386.08 183.931 385 182.561C386 180.891 387 179.231 388 177.561C387.62 171.811 384.62 168.481 379 167.561C380.72 165.691 381.72 163.521 382 161.061C379.67 161.311 377.67 160.651 376 159.061C376.48 158.081 377.14 157.251 378 156.561C380.82 156.601 383.82 156.271 387 155.561C389.82 152.311 392.82 151.811 396 154.061Z" fill="#20E994"/>
<path fill-rule="evenodd" clip-rule="evenodd" d="M297.001 239.061C297.001 239.731 297.331 240.061 298.001 240.061C300.421 240.981 302.421 242.481 304.001 244.561C303.831 246.061 303.001 246.891 301.501 247.061C300.061 246.411 298.561 246.081 297.001 246.061C295.271 245.441 293.771 244.441 292.501 243.061C292.171 245.731 291.831 248.391 291.501 251.061C290.081 260.481 284.751 265.811 275.501 267.061C264.021 267.081 258.521 261.421 259.001 250.061C258.181 242.201 261.181 236.371 268.001 232.561C278.241 232.141 287.911 234.311 297.001 239.061Z" fill="#060606"/>
<path fill-rule="evenodd" clip-rule="evenodd" d="M204 250.062C197.87 253.612 195.87 251.942 198 245.062C200.33 243.392 202.33 241.392 204 239.062C208.15 236.952 212.49 235.122 217 233.562C223.19 232.582 229.19 233.242 235 235.562C244.18 245.282 244.18 254.942 235 264.562C219.79 272.292 210.79 267.792 208 251.062C209.25 244.702 207.92 244.372 204 250.062Z" fill="#060606"/>
<path fill-rule="evenodd" clip-rule="evenodd" d="M134 234.062C147 235.322 160 235.322 173 234.062C166.4 235.552 159.56 236.222 152.5 236.062C146.09 236.272 139.92 235.602 134 234.062Z" fill="#847276"/>
<path fill-rule="evenodd" clip-rule="evenodd" d="M269 236.062C272.2 236.262 274.2 237.922 275 241.062C275.07 245.622 273.07 248.622 269 250.062C264.42 248.662 262.59 245.662 263.5 241.062C265.31 239.262 267.15 237.592 269 236.062Z" fill="#EFEFEF"/>
<path fill-rule="evenodd" clip-rule="evenodd" d="M228.001 239.062C232.781 238.172 235.121 240.172 235.001 245.062C234.491 249.092 232.321 251.762 228.501 253.062C221.451 248.682 221.281 244.022 228.001 239.062Z" fill="#F2F2F2"/>
<path fill-rule="evenodd" clip-rule="evenodd" d="M198 245.062C195.87 251.942 197.87 253.612 204 250.062C204.3 258.812 203.97 267.482 203 276.062C201.65 278.732 199.65 279.732 197 279.062C195.71 279.662 194.37 280.162 193 280.562C188.03 284.372 182.7 287.532 177 290.062C176.65 293.172 176.15 296.502 175.5 300.062C173.47 302.922 171.3 305.582 169 308.062C169.72 305.222 170.89 302.552 172.5 300.062C173 297.752 173.16 295.422 173 293.062C161.79 289.842 150.46 289.342 139 291.562C131.09 294.472 124.59 299.312 119.5 306.062C117.12 310.782 115.96 315.782 116 321.062C114.86 318.262 114.7 315.262 115.5 312.062C117.7 308.252 119.03 304.252 119.5 300.062C118.58 298.802 117.74 297.472 117 296.062C114.01 297.702 113.34 300.042 115 303.062C114.69 303.872 114.19 304.532 113.5 305.062C113 302.012 111.5 301.012 109 302.062C107.66 300.562 105.99 299.892 104 300.062C104 298.062 104 296.062 104 294.062C102.68 294.232 101.51 293.902 100.5 293.062C100.17 294.062 99.83 295.062 99.5 296.062C99.17 295.732 98.83 295.392 98.5 295.062C97.14 300.022 95.98 305.022 95 310.062C93.35 311.342 92.19 313.012 91.5 315.062C91.18 320.402 91.35 325.732 92 331.062C91.33 329.732 90.67 328.392 90 327.062C90.46 313.342 93.79 300.342 100 288.062C112.89 270.622 130.22 262.282 152 263.062C161.2 262.712 170.2 263.712 179 266.062C179 265.062 179 264.062 179 263.062C179.83 257.242 180.33 251.242 180.5 245.062C181.36 243.472 182.03 241.812 182.5 240.062C182.75 241.182 183.25 242.182 184 243.062C188.43 242.472 193.09 242.132 198 242.062C198 243.062 198 244.062 198 245.062Z" fill="#F8C7A9"/>
<path fill-rule="evenodd" clip-rule="evenodd" d="M259.999 269.062C262.129 268.712 263.469 269.542 263.999 271.562C262.249 274.392 260.249 277.052 257.999 279.562C253.509 279.752 249.349 278.582 245.499 276.062C244.589 273.642 245.419 272.312 247.999 272.062C250.439 272.782 252.779 273.782 254.999 275.062C256.659 273.072 258.329 271.072 259.999 269.062Z" fill="#121212"/>
<path fill-rule="evenodd" clip-rule="evenodd" d="M384 273.062C382.89 273.002 381.89 272.672 381 272.062C373.12 268.502 364.79 266.002 356 264.562C347.31 263.852 338.64 264.022 330 265.062C330.11 264.442 330.44 263.942 331 263.562C344.85 262.392 358.51 263.392 372 266.562C375.97 269.042 379.97 271.212 384 273.062Z" fill="#66A262"/>
<path fill-rule="evenodd" clip-rule="evenodd" d="M320.999 264.062C321.119 265.152 321.789 265.812 322.999 266.062C325.279 265.342 327.619 265.002 329.999 265.062C338.639 264.022 347.309 263.852 355.999 264.562C364.789 266.002 373.119 268.502 380.999 272.062C383.179 275.222 385.509 278.392 387.999 281.562C391.239 281.792 393.739 283.292 395.499 286.062C397.199 291.072 399.699 295.572 402.999 299.562C400.419 301.682 400.419 303.852 402.999 306.062C403.669 304.732 404.329 303.392 404.999 302.062C405.679 302.802 406.349 303.472 406.999 304.062C407.729 308.602 406.729 312.602 403.999 316.062C401.249 314.272 398.419 312.602 395.499 311.062C393.829 311.732 392.169 312.392 390.499 313.062C391.479 314.842 391.149 316.512 389.499 318.062C387.969 313.282 386.139 308.622 383.999 304.062C384.649 302.112 383.649 301.112 380.999 301.062C375.919 299.082 372.249 295.582 369.999 290.562C362.789 288.632 355.459 287.792 347.999 288.062C344.529 286.792 340.869 285.792 336.999 285.062C336.209 281.322 333.869 279.492 329.999 279.562C330.829 278.652 331.829 277.982 332.999 277.562C329.329 277.232 325.669 276.892 321.999 276.562C321.089 274.862 320.759 273.032 320.999 271.062C314.719 270.762 308.549 269.762 302.499 268.062C300.679 268.502 298.839 268.842 296.999 269.062C296.999 271.062 296.999 273.062 296.999 275.062C296.669 275.062 296.329 275.062 295.999 275.062C295.839 267.032 296.179 259.032 296.999 251.062C297.789 249.952 298.289 248.622 298.499 247.062C300.419 247.882 302.419 248.542 304.499 249.062C308.659 248.102 312.829 247.602 316.999 247.562C316.669 247.892 316.329 248.232 315.999 248.562C317.559 248.882 318.729 249.712 319.499 251.062C319.679 255.582 320.179 259.912 320.999 264.062Z" fill="#95F873"/>
<path fill-rule="evenodd" clip-rule="evenodd" d="M348 288.062C343.32 287.892 338.65 288.062 334 288.562C331.12 289.862 328.12 290.702 325 291.062C325 292.062 325 293.062 325 294.062C321.93 293.242 321.59 292.082 324 290.562C314.89 285.632 305.89 280.462 297 275.062C297 273.062 297 271.062 297 269.062C298.84 268.842 300.68 268.502 302.5 268.062C308.55 269.762 314.72 270.762 321 271.062C320.76 273.032 321.09 274.862 322 276.562C325.67 276.892 329.33 277.232 333 277.562C331.83 277.982 330.83 278.652 330 279.562C333.87 279.492 336.21 281.322 337 285.062C340.87 285.792 344.53 286.792 348 288.062Z" fill="#B9FB69"/>
<path fill-rule="evenodd" clip-rule="evenodd" d="M203.001 276.062C203.791 277.352 204.791 278.522 206.001 279.562C211.041 280.802 215.711 282.642 220.001 285.062C219.561 284.992 219.231 285.162 219.001 285.562C219.671 285.892 220.331 286.232 221.001 286.562C217.951 287.192 214.951 287.032 212.001 286.062C205.561 283.292 201.231 285.462 199.001 292.562C194.151 292.962 190.821 295.302 189.001 299.562C186.691 300.062 184.361 300.222 182.001 300.062C182.501 303.242 181.671 305.912 179.501 308.062C178.671 306.152 177.511 305.822 176.001 307.062C176.211 307.652 176.541 308.152 177.001 308.562C170.811 307.752 168.471 310.422 170.001 316.562C168.281 316.912 166.621 317.412 165.001 318.062C163.751 319.572 163.751 321.072 165.001 322.562C163.371 323.052 161.701 323.222 160.001 323.062C159.361 326.552 157.361 329.052 154.001 330.562C154.331 330.892 154.671 331.232 155.001 331.562C150.951 332.422 147.281 334.092 144.001 336.562C144.331 336.892 144.671 337.232 145.001 337.562C144.411 339.072 143.741 340.572 143.001 342.062C139.481 342.932 136.151 344.272 133.001 346.062C128.861 344.852 124.861 345.852 121.001 349.062C122.021 350.412 123.021 351.752 124.001 353.062C120.621 353.292 117.621 354.292 115.001 356.062C115.001 355.062 115.001 354.062 115.001 353.062C111.761 353.152 108.761 352.482 106.001 351.062C106.221 349.882 105.891 348.882 105.001 348.062C100.061 346.792 99.7205 344.792 104.001 342.062C102.841 340.612 101.341 339.612 99.5005 339.062C98.8305 337.732 98.8305 336.392 99.5005 335.062C100.501 335.392 101.501 335.732 102.501 336.062C103.191 335.532 103.691 334.872 104.001 334.062C107.091 333.322 110.091 332.322 113.001 331.062C117.721 332.762 122.381 334.432 127.001 336.062C131.671 335.602 136.341 335.102 141.001 334.562C143.351 334.322 145.351 333.492 147.001 332.062C156.691 326.372 164.021 318.372 169.001 308.062C171.301 305.582 173.471 302.922 175.501 300.062C176.151 296.502 176.651 293.172 177.001 290.062C182.701 287.532 188.031 284.372 193.001 280.562C194.371 280.162 195.711 279.662 197.001 279.062C199.651 279.732 201.651 278.732 203.001 276.062Z" fill="#FBBB82"/>
<path fill-rule="evenodd" clip-rule="evenodd" d="M347.999 288.061C355.459 287.791 362.789 288.631 369.999 290.561C372.249 295.581 375.919 299.081 380.999 301.061C384.499 310.631 384.839 320.301 381.999 330.061C380.459 330.861 378.789 331.191 376.999 331.061C383.669 323.691 384.829 315.361 380.499 306.061C365.559 290.091 347.729 285.751 326.999 293.061C326.999 294.731 326.999 296.391 326.999 298.061C325.319 297.381 324.659 296.041 324.999 294.061C324.999 293.061 324.999 292.061 324.999 291.061C328.119 290.701 331.119 289.861 333.999 288.561C338.649 288.061 343.319 287.891 347.999 288.061Z" fill="#ACDC6E"/>
<path fill-rule="evenodd" clip-rule="evenodd" d="M168.999 308.062C164.019 318.372 156.689 326.372 146.999 332.062C139.699 334.292 132.369 334.462 124.999 332.562C121.049 329.452 118.049 325.622 115.999 321.062C115.959 315.782 117.119 310.782 119.499 306.062C124.589 299.312 131.089 294.472 138.999 291.562C150.459 289.342 161.789 289.842 172.999 293.062C173.159 295.422 172.999 297.752 172.499 300.062C170.889 302.552 169.719 305.222 168.999 308.062Z" fill="#060404"/>
<path fill-rule="evenodd" clip-rule="evenodd" d="M377 331.061C365.68 335.761 355.01 334.591 345 327.561C336.51 319.241 330.51 309.411 327 298.061C327 296.391 327 294.731 327 293.061C347.73 285.751 365.56 290.091 380.5 306.061C384.83 315.361 383.67 323.691 377 331.061Z" fill="#050502"/>
<path fill-rule="evenodd" clip-rule="evenodd" d="M100 288.062C93.7903 300.342 90.4603 313.342 90.0003 327.062C87.1903 312.482 90.5303 299.482 100 288.062Z" fill="#B49584"/>
<path fill-rule="evenodd" clip-rule="evenodd" d="M381 272.062C381.89 272.672 382.89 273.002 384 273.062C403.08 284.662 411.91 301.662 410.5 324.062C410.22 324.982 409.72 325.642 409 326.062C409 325.062 409 324.062 409 323.062C409.17 317.382 409 311.722 408.5 306.062C408.22 305.142 407.72 304.482 407 304.062C406.35 303.472 405.68 302.802 405 302.062C404.33 303.392 403.67 304.732 403 306.062C400.42 303.852 400.42 301.682 403 299.562C399.7 295.572 397.2 291.072 395.5 286.062C393.74 283.292 391.24 281.792 388 281.562C385.51 278.392 383.18 275.222 381 272.062Z" fill="#92D36C"/>
<path fill-rule="evenodd" clip-rule="evenodd" d="M220 285.062C226.82 287.632 233.15 290.972 239 295.062C236.13 296.192 233.13 296.862 230 297.062C230 296.062 230 295.062 230 294.062C227.14 293.622 224.8 294.462 223 296.562C224.56 297.542 226.23 298.372 228 299.062C226.89 300.452 225.56 301.622 224 302.562C224.52 303.122 224.86 303.792 225 304.562C223.81 306.452 222.81 308.452 222 310.562C227.97 312.662 230.14 316.832 228.5 323.062C227.44 324.832 226.27 326.502 225 328.062C225.03 329.592 225.7 330.762 227 331.562C223.67 332.232 222.5 331.062 223.5 328.062C222.46 329.272 221.29 330.272 220 331.062C221.92 327.962 224.09 324.962 226.5 322.062C227.17 321.062 227.17 320.062 226.5 319.062C220.72 315.262 214.89 311.592 209 308.062C207.26 303.502 203.93 301.002 199 300.562C206.11 298.822 209.78 295.152 210 289.562C210.48 288.262 211.14 287.092 212 286.062C214.95 287.032 217.95 287.192 221 286.562C220.33 286.232 219.67 285.892 219 285.562C219.23 285.162 219.56 284.992 220 285.062Z" fill="#F7A756"/>
<path fill-rule="evenodd" clip-rule="evenodd" d="M296 275.062C296.33 275.062 296.67 275.062 297 275.062C305.89 280.462 314.89 285.632 324 290.562C321.59 292.082 321.93 293.242 325 294.062C324.66 296.042 325.32 297.382 327 298.062C330.51 309.412 336.51 319.242 345 327.562C355.01 334.592 365.68 335.762 377 331.062C378.79 331.192 380.46 330.862 382 330.062C383.93 329.022 385.93 328.522 388 328.562C390.5 331.732 393.33 334.562 396.5 337.062C396.83 338.732 397.17 340.392 397.5 342.062C402.94 336.492 406.77 330.162 409 323.062C409 324.062 409 325.062 409 326.062C409.28 327.972 408.95 329.642 408 331.062C404.43 336.602 400.6 341.942 396.5 347.062C394.56 348.422 392.39 349.262 390 349.562C390.84 350.572 391.17 351.742 391 353.062C388 353.062 385 353.062 382 353.062C382 354.062 382 355.062 382 356.062C376.37 357.272 370.7 358.272 365 359.062C358.83 359.102 353.16 357.772 348 355.062C352.96 353.172 352.96 352.172 348 352.062C348.16 350.032 348 348.032 347.5 346.062C343.35 340.752 338.18 336.752 332 334.062C331.26 332.652 330.42 331.322 329.5 330.062C329.17 330.392 328.83 330.732 328.5 331.062C326.16 328.392 324.33 325.392 323 322.062C320.89 320.622 318.56 319.952 316 320.062C316.33 316.952 315.16 314.622 312.5 313.062C311.3 310.472 310.3 307.802 309.5 305.062C308.35 306.022 307.35 305.682 306.5 304.062C305.82 299.862 303.48 296.862 299.5 295.062C297.35 289.862 293.68 287.192 288.5 287.062C287.06 285.662 286.23 283.992 286 282.062C290 280.722 293.33 278.392 296 275.062Z" fill="#E1EF57"/>
<path fill-rule="evenodd" clip-rule="evenodd" d="M115.999 321.062C118.049 325.622 121.049 329.452 124.999 332.562C132.369 334.462 139.699 334.292 146.999 332.062C145.349 333.492 143.349 334.322 140.999 334.562C136.339 335.102 131.669 335.602 126.999 336.062C122.379 334.432 117.719 332.762 112.999 331.062C110.089 332.322 107.089 333.322 103.999 334.062C103.689 334.872 103.189 335.532 102.499 336.062C101.499 335.732 100.499 335.392 99.4989 335.062C98.8289 336.392 98.8289 337.732 99.4989 339.062C101.339 339.612 102.839 340.612 103.999 342.062C99.7189 344.792 100.059 346.792 104.999 348.062C105.889 348.882 106.219 349.882 105.999 351.062C108.759 352.482 111.759 353.152 114.999 353.062C114.999 354.062 114.999 355.062 114.999 356.062C117.619 354.292 120.619 353.292 123.999 353.062C125.769 354.522 127.439 356.192 128.999 358.062C135.309 359.222 141.639 359.392 147.999 358.562C147.669 358.232 147.329 357.892 146.999 357.562C154.099 356.292 160.769 354.132 166.999 351.062C152.449 361.032 136.449 363.862 118.999 359.562C105.289 354.352 96.2889 344.852 91.9989 331.062C91.3489 325.732 91.1789 320.402 91.4989 315.062C92.1889 313.012 93.3489 311.342 94.9989 310.062C95.9789 305.022 97.1389 300.022 98.4989 295.062C98.8289 295.392 99.1689 295.732 99.4989 296.062C99.8289 295.062 100.169 294.062 100.499 293.062C101.509 293.902 102.679 294.232 103.999 294.062C103.999 296.062 103.999 298.062 103.999 300.062C105.989 299.892 107.659 300.562 108.999 302.062C111.499 301.012 112.999 302.012 113.499 305.062C114.189 304.532 114.689 303.872 114.999 303.062C113.339 300.042 114.009 297.702 116.999 296.062C117.739 297.472 118.579 298.802 119.499 300.062C119.029 304.252 117.699 308.252 115.499 312.062C114.699 315.262 114.859 318.262 115.999 321.062Z" fill="#F4BC90"/>
<path fill-rule="evenodd" clip-rule="evenodd" d="M381 301.062C383.65 301.112 384.65 302.112 384 304.062C386.14 308.622 387.97 313.282 389.5 318.062C391.15 316.512 391.48 314.842 390.5 313.062C392.17 312.392 393.83 311.732 395.5 311.062C398.42 312.602 401.25 314.272 404 316.062C406.73 312.602 407.73 308.602 407 304.062C407.72 304.482 408.22 305.142 408.5 306.062C409 311.722 409.17 317.382 409 323.062C406.77 330.162 402.94 336.492 397.5 342.062C397.17 340.392 396.83 338.732 396.5 337.062C393.33 334.562 390.5 331.732 388 328.562C385.93 328.522 383.93 329.022 382 330.062C384.84 320.302 384.5 310.632 381 301.062Z" fill="#C3FB68"/>
<path fill-rule="evenodd" clip-rule="evenodd" d="M286 282.062C286.23 283.992 287.06 285.662 288.5 287.062C293.68 287.192 297.35 289.862 299.5 295.062C303.48 296.862 305.82 299.862 306.5 304.062C307.35 305.682 308.35 306.022 309.5 305.062C310.3 307.802 311.3 310.472 312.5 313.062C315.16 314.622 316.33 316.952 316 320.062C318.56 319.952 320.89 320.622 323 322.062C324.33 325.392 326.16 328.392 328.5 331.062C328.83 330.732 329.17 330.392 329.5 330.062C330.42 331.322 331.26 332.652 332 334.062C338.18 336.752 343.35 340.752 347.5 346.062C348 348.032 348.16 350.032 348 352.062C352.96 352.172 352.96 353.172 348 355.062C344.61 355.502 341.61 354.662 339 352.562C339.33 352.232 339.67 351.892 340 351.562C339.05 351.082 338.05 350.912 337 351.062C337 350.062 337 349.062 337 348.062C334.67 348.062 332.33 348.062 330 348.062C329.74 344.122 328.58 340.452 326.5 337.062C322.72 335.802 319.38 333.802 316.5 331.062C315 327.912 313.5 324.742 312 321.562C310.71 321.072 309.37 320.902 308 321.062C308.34 317.252 307.84 313.592 306.5 310.062C306.17 310.392 305.83 310.732 305.5 311.062C304.16 308.542 303.33 305.872 303 303.062C299.6 302.742 296.27 303.072 293 304.062C290.65 305.752 288.32 307.422 286 309.062C284.82 307.562 283.16 306.562 281 306.062C280.32 299.212 276.99 294.042 271 290.562C272.44 290.182 273.44 289.352 274 288.062C277.72 285.532 281.72 283.532 286 282.062Z" fill="#E7E14D"/>
<path fill-rule="evenodd" clip-rule="evenodd" d="M212 286.062C211.14 287.092 210.48 288.262 210 289.562C209.78 295.152 206.11 298.822 199 300.562C203.93 301.002 207.26 303.502 209 308.062C206.89 307.172 204.89 306.002 203 304.562C201.37 304.072 199.7 303.902 198 304.062C197.78 308.962 196.61 313.622 194.5 318.062C189.18 329.192 182.01 339.022 173 347.562C171.1 348.982 169.1 350.152 167 351.062C160.77 354.132 154.1 356.292 147 357.562C147.33 357.892 147.67 358.232 148 358.562C141.64 359.392 135.31 359.222 129 358.062C127.44 356.192 125.77 354.522 124 353.062C123.02 351.752 122.02 350.412 121 349.062C124.86 345.852 128.86 344.852 133 346.062C136.15 344.272 139.48 342.932 143 342.062C143.74 340.572 144.41 339.072 145 337.562C144.67 337.232 144.33 336.892 144 336.562C147.28 334.092 150.95 332.422 155 331.562C154.67 331.232 154.33 330.892 154 330.562C157.36 329.052 159.36 326.552 160 323.062C161.7 323.222 163.37 323.052 165 322.562C163.75 321.072 163.75 319.572 165 318.062C166.62 317.412 168.28 316.912 170 316.562C168.47 310.422 170.81 307.752 177 308.562C176.54 308.152 176.21 307.652 176 307.062C177.51 305.822 178.67 306.152 179.5 308.062C181.67 305.912 182.5 303.242 182 300.062C184.36 300.222 186.69 300.062 189 299.562C190.82 295.302 194.15 292.962 199 292.562C201.23 285.462 205.56 283.292 212 286.062Z" fill="#FAB370"/>
<path fill-rule="evenodd" clip-rule="evenodd" d="M348 355.061C353.16 357.771 358.83 359.101 365 359.061C370.7 358.271 376.37 357.271 382 356.061C382 355.061 382 354.061 382 353.061C385 353.061 388 353.061 391 353.061C391.17 351.741 390.84 350.571 390 349.561C392.39 349.261 394.56 348.421 396.5 347.061C400.6 341.941 404.43 336.601 408 331.061C407.35 336.021 405.35 340.351 402 344.061C396.29 350.941 389.29 356.101 381 359.561C348.14 365.031 323.81 353.191 308 324.061C305.93 317.591 303.59 311.251 301 305.061C299.78 303.951 298.44 303.781 297 304.561C291.79 307.661 286.46 310.501 281 313.061C281.73 311.851 282.07 310.521 282 309.061C283.33 309.061 284.67 309.061 286 309.061C288.32 307.421 290.65 305.751 293 304.061C296.27 303.071 299.6 302.741 303 303.061C303.33 305.871 304.16 308.541 305.5 311.061C305.83 310.731 306.17 310.391 306.5 310.061C307.84 313.591 308.34 317.251 308 321.061C309.37 320.901 310.71 321.071 312 321.561C313.5 324.741 315 327.911 316.5 331.061C319.38 333.801 322.72 335.801 326.5 337.061C328.58 340.451 329.74 344.121 330 348.061C332.33 348.061 334.67 348.061 337 348.061C337 349.061 337 350.061 337 351.061C338.05 350.911 339.05 351.081 340 351.561C339.67 351.891 339.33 352.231 339 352.561C341.61 354.661 344.61 355.501 348 355.061Z" fill="#D4CD57"/>
<path fill-rule="evenodd" clip-rule="evenodd" d="M263 351.062C264.16 356.052 265.99 360.712 268.5 365.062C270.33 375.432 268.67 385.102 263.5 394.062C258.5 400.422 252 402.752 244 401.062C228.15 387.012 225.65 370.672 236.5 352.062C237.83 349.902 239.33 347.902 241 346.062C243.55 343.022 246.55 340.352 250 338.062C254.69 342.082 259.02 346.412 263 351.062Z" fill="#060301"/>
<path fill-rule="evenodd" clip-rule="evenodd" d="M267 292.062C265.84 293.742 264.84 295.582 264 297.562C265.96 306.572 268.29 315.402 271 324.062C269.95 323.912 268.95 324.082 268 324.562C269.11 326.132 270.45 327.462 272 328.562C270.36 330.512 268.86 330.342 267.5 328.062C267.93 330.852 269.6 332.852 272.5 334.062C274.08 331.572 275.58 331.732 277 334.562C276.67 334.892 276.33 335.232 276 335.562C277.37 338.272 278.2 341.112 278.5 344.062C283.97 345.682 286.14 349.182 285 354.562C287.67 356.282 287.34 357.452 284 358.062C283.03 359.952 282.36 361.952 282 364.062C282.25 368.742 282.91 373.582 284 378.562C282.68 381.122 282.85 383.622 284.5 386.062C284.83 385.392 285.17 384.732 285.5 384.062C288.58 386.302 290.08 389.302 290 393.062C289 393.062 288 393.062 287 393.062C286.75 396.662 285.75 400.002 284 403.062C286.93 406.352 286.26 408.692 282 410.062C281.41 409.852 280.91 409.522 280.5 409.062C280.01 410.692 279.84 412.362 280 414.062C277.6 413.822 275.6 414.492 274 416.062C272.32 416.742 271.66 418.082 272 420.062C270 420.062 268 420.062 266 420.062C265.26 413.442 266.92 407.612 271 402.562C269.83 402.142 268.83 401.472 268 400.562C267.84 398.972 268.51 397.472 270 396.062C267.51 390.592 268.01 385.262 271.5 380.062C272.17 375.732 272.17 371.392 271.5 367.062C269.58 363.652 268.25 359.982 267.5 356.062C265.52 354.742 264.02 353.072 263 351.062C259.02 346.412 254.69 342.082 250 338.062C246.55 340.352 243.55 343.022 241 346.062C241 343.732 241 341.392 241 339.062C242.32 338.892 243.49 339.222 244.5 340.062C244.98 339.112 245.15 338.112 245 337.062C248.02 336.972 250.69 335.972 253 334.062C253.98 334.542 254.81 335.202 255.5 336.062C255.48 333.322 254.81 330.652 253.5 328.062C251.67 329.402 250.51 328.902 250 326.562C250.53 324.542 251.87 323.712 254 324.062C253.98 319.292 253.32 314.632 252 310.062C253.81 305.942 255.81 301.942 258 298.062C260.79 295.832 263.79 293.832 267 292.062Z" fill="#F7AA26"/>
<path fill-rule="evenodd" clip-rule="evenodd" d="M274 288.062C273.44 289.352 272.44 290.182 271 290.562C276.99 294.042 280.32 299.212 281 306.062C283.16 306.562 284.82 307.562 286 309.062C284.67 309.062 283.33 309.062 282 309.062C282.07 310.522 281.73 311.852 281 313.062C277.76 314.982 274.76 317.312 272 320.062C278.32 327.372 284.15 335.032 289.5 343.062C290.78 347.272 292.28 351.272 294 355.062C296.26 367.462 296.1 379.792 293.5 392.062C292.06 396.032 290.06 399.702 287.5 403.062C287.01 404.352 286.84 405.692 287 407.062C285.15 410.072 282.81 412.742 280 415.062C278 416.062 276 417.062 274 418.062C274 417.392 274 416.732 274 416.062C275.6 414.492 277.6 413.822 280 414.062C279.84 412.362 280.01 410.692 280.5 409.062C280.91 409.522 281.41 409.852 282 410.062C286.26 408.692 286.93 406.352 284 403.062C285.75 400.002 286.75 396.662 287 393.062C288 393.062 289 393.062 290 393.062C290.08 389.302 288.58 386.302 285.5 384.062C285.17 384.732 284.83 385.392 284.5 386.062C282.85 383.622 282.68 381.122 284 378.562C282.91 373.582 282.25 368.742 282 364.062C282.36 361.952 283.03 359.952 284 358.062C287.34 357.452 287.67 356.282 285 354.562C286.14 349.182 283.97 345.682 278.5 344.062C278.2 341.112 277.37 338.272 276 335.562C276.33 335.232 276.67 334.892 277 334.562C275.58 331.732 274.08 331.572 272.5 334.062C269.6 332.852 267.93 330.852 267.5 328.062C268.86 330.342 270.36 330.512 272 328.562C270.45 327.462 269.11 326.132 268 324.562C268.95 324.082 269.95 323.912 271 324.062C268.29 315.402 265.96 306.572 264 297.562C264.84 295.582 265.84 293.742 267 292.062C268.84 289.972 271.17 288.642 274 288.062Z" fill="#EEB735"/>
<path fill-rule="evenodd" clip-rule="evenodd" d="M239 295.061C242.65 297.701 246.32 300.371 250 303.061C252.39 300.871 255.05 299.201 258 298.061C255.81 301.941 253.81 305.941 252 310.061C253.32 314.631 253.98 319.291 254 324.061C251.87 323.711 250.53 324.541 250 326.561C250.51 328.901 251.67 329.401 253.5 328.061C254.81 330.651 255.48 333.321 255.5 336.061C254.81 335.201 253.98 334.541 253 334.061C250.69 335.971 248.02 336.971 245 337.061C245.15 338.111 244.98 339.111 244.5 340.061C243.49 339.221 242.32 338.891 241 339.061C241 341.391 241 343.731 241 346.061C239.33 347.901 237.83 349.901 236.5 352.061C225.65 370.671 228.15 387.011 244 401.061C244.42 401.781 245.08 402.281 246 402.561C249.67 403.231 253.33 403.231 257 402.561C258.83 400.061 261 397.891 263.5 396.061C263.83 396.731 264.17 397.391 264.5 398.061C265.4 394.791 267.23 394.131 270 396.061C268.51 397.471 267.84 398.971 268 400.561C268.83 401.471 269.83 402.141 271 402.561C266.92 407.611 265.26 413.441 266 420.061C268 420.061 270 420.061 272 420.061C271.66 418.081 272.32 416.741 274 416.061C274 416.731 274 417.391 274 418.061C273.59 419.201 272.93 420.201 272 421.061C258.7 427.201 245.03 427.701 231 422.561C228.41 420.551 226.41 418.051 225 415.061C225.21 414.471 225.54 413.971 226 413.561C224.33 413.231 222.67 412.891 221 412.561C223.04 410.371 224.37 407.871 225 405.061C223.1 405.131 221.27 404.791 219.5 404.061C218.21 406.571 216.37 407.241 214 406.061C211.57 400.871 208.91 395.871 206 391.061C205.94 389.951 205.61 388.951 205 388.061C203.86 378.071 203.86 368.071 205 358.061C207.69 347.681 212.69 338.681 220 331.061C221.29 330.271 222.46 329.271 223.5 328.061C222.5 331.061 223.67 332.231 227 331.561C225.7 330.761 225.03 329.591 225 328.061C226.27 326.501 227.44 324.831 228.5 323.061C230.14 316.831 227.97 312.661 222 310.561C222.81 308.451 223.81 306.451 225 304.561C224.86 303.791 224.52 303.121 224 302.561C225.56 301.621 226.89 300.451 228 299.061C226.23 298.371 224.56 297.541 223 296.561C224.8 294.461 227.14 293.621 230 294.061C230 295.061 230 296.061 230 297.061C233.13 296.861 236.13 296.191 239 295.061Z" fill="#FA992A"/>
<path fill-rule="evenodd" clip-rule="evenodd" d="M205 358.062C203.86 368.072 203.86 378.072 205 388.062C204.23 387.302 203.73 386.302 203.5 385.062C203.33 381.392 203.17 377.732 203 374.062C202.82 368.472 203.48 363.142 205 358.062Z" fill="#7A522E"/>
<path fill-rule="evenodd" clip-rule="evenodd" d="M294 355.062C298.02 368.622 297.86 382.282 293.5 396.062C291.82 400.102 289.65 403.762 287 407.062C286.84 405.692 287.01 404.352 287.5 403.062C290.06 399.702 292.06 396.032 293.5 392.062C296.1 379.792 296.26 367.462 294 355.062Z" fill="#936F30"/>
<path fill-rule="evenodd" clip-rule="evenodd" d="M263 351.062C264.02 353.072 265.52 354.742 267.5 356.062C268.25 359.982 269.58 363.652 271.5 367.062C272.17 371.392 272.17 375.732 271.5 380.062C268.01 385.262 267.51 390.592 270 396.062C267.23 394.132 265.4 394.792 264.5 398.062C264.17 397.392 263.83 396.732 263.5 396.062C261 397.892 258.83 400.062 257 402.562C253.33 403.232 249.67 403.232 246 402.562C245.08 402.282 244.42 401.782 244 401.062C252 402.752 258.5 400.422 263.5 394.062C268.67 385.102 270.33 375.432 268.5 365.062C265.99 360.712 264.16 356.052 263 351.062Z" fill="#C68631"/>
<path fill-rule="evenodd" clip-rule="evenodd" d="M206 391.062C208.91 395.872 211.57 400.872 214 406.062C216.37 407.242 218.21 406.572 219.5 404.062C221.27 404.792 223.1 405.132 225 405.062C224.37 407.872 223.04 410.372 221 412.562C222.67 412.892 224.33 413.232 226 413.562C225.54 413.972 225.21 414.472 225 415.062C226.41 418.052 228.41 420.552 231 422.562C245.03 427.702 258.7 427.202 272 421.062C272.93 420.202 273.59 419.202 274 418.062C276 417.062 278 416.062 280 415.062C268.7 427.562 254.7 431.732 238 427.562C220.96 421.002 210.3 408.832 206 391.062Z" fill="#D88730"/>
</svg>
