<svg width="500" height="500" viewBox="0 0 500 500" fill="none" xmlns="http://www.w3.org/2000/svg">
<path fill-rule="evenodd" clip-rule="evenodd" d="M339 43.0616C331.55 43.7516 324.22 45.0816 317 47.0616C317.11 46.4416 317.44 45.9416 318 45.5616C325 43.0216 332 42.1816 339 43.0616Z" fill="#F0AF7C"/>
<path fill-rule="evenodd" clip-rule="evenodd" d="M317 47.0617C324.22 45.0817 331.55 43.7517 339 43.0617C352.59 43.3317 364.09 48.3317 373.5 58.0617C376.6 63.2717 379.93 68.2717 383.5 73.0617C384.85 80.3517 385.19 87.6917 384.5 95.0617C381.21 103.642 377.38 111.972 373 120.062C376.13 124.512 377.97 129.512 378.5 135.062C383.65 164.812 389.32 194.472 395.5 224.062C402.93 251.792 411.6 279.122 421.5 306.062C428.01 331.082 438.34 354.412 452.5 376.062C456.43 386.842 457.09 397.842 454.5 409.062C451.65 418.422 447.98 427.422 443.5 436.062C440.54 438.792 437.04 440.292 433 440.562C430.38 444.842 427.38 448.842 424 452.562C420.36 453.882 418.03 452.712 417 449.062C413.2 454.422 408.2 457.262 402 457.562C401.39 456.692 400.56 456.192 399.5 456.062C392.11 460.142 387.28 458.142 385 450.062C381.77 454.412 377.94 455.072 373.5 452.062C372.7 449.342 371.54 446.842 370 444.562C367.47 445.192 364.97 445.032 362.5 444.062C360.96 437.812 360.63 431.482 361.5 425.062C366.17 413.062 370.83 401.062 375.5 389.062C376.34 365.042 376.01 341.042 374.5 317.062C368.68 282.142 363.51 247.142 359 212.062C358.67 211.062 358.33 210.062 358 209.062C357.67 209.232 357.33 209.392 357 209.562C352.76 214.962 348.76 220.462 345 226.062C340.16 230.962 334.66 231.962 328.5 229.062C327.86 227.292 328.03 225.632 329 224.062C333 213.752 334.66 203.092 334 192.062C330.63 194.082 327.3 196.082 324 198.062C318.35 196.922 316.18 193.592 317.5 188.062C320.02 184.712 321.85 181.052 323 177.062C322.18 176.172 321.18 175.842 320 176.062C318.89 173.382 318.89 170.722 320 168.062C325.06 172.702 330.89 174.372 337.5 173.062C338.24 171.122 338.08 169.292 337 167.562C330.74 164.292 324.74 160.622 319 156.562C311.93 154.862 304.93 152.862 298 150.562C293.99 150.062 289.99 149.562 286 149.062C285.86 147.302 286.19 145.632 287 144.062C286.54 143.262 285.88 142.932 285 143.062C285.71 142.162 286.71 141.822 288 142.062C288.23 137.012 287.23 132.352 285 128.062C285.36 125.652 284.36 124.152 282 123.562C277 122.892 272 122.892 267 123.562C263.02 126.462 258.85 128.962 254.5 131.062C248.05 130.082 242.89 126.922 239 121.562C237.11 120.452 235.11 119.612 233 119.062C227.27 119.802 223.27 122.802 221 128.062C220 128.032 219.34 128.532 219 129.562C218.1 132.342 217.43 135.172 217 138.062C217.3 139.672 217.97 141.012 219 142.062C217.13 144.202 216.46 146.862 217 150.062C198.39 149.092 183.23 155.762 171.5 170.062C170.83 172.732 170.83 175.392 171.5 178.062C171.88 178.622 172.38 178.952 173 179.062C172.2 189.152 174.2 198.492 179 207.062C179 207.392 179 207.732 179 208.062C179.24 211.172 178.9 214.172 178 217.062C176.87 219.362 175.03 220.692 172.5 221.062C169.32 220.392 166.49 219.052 164 217.062C159.01 211.772 155.01 205.772 152 199.062C143.89 224.772 137.72 251.102 133.5 278.062C124.3 302.822 120.63 328.482 122.5 355.062C127.95 373.212 132.62 391.542 136.5 410.062C137.32 417.202 136.65 424.202 134.5 431.062C131.36 434.752 127.53 435.922 123 434.562C121.61 440.142 118.28 441.972 113 440.062C110.29 443.492 107.29 443.832 104 441.062C102.59 443.132 101.26 445.292 100 447.562C96.21 447.842 92.54 447.182 89 445.562C86.98 442.372 85.31 442.702 84 446.562C74.54 445.302 67.54 440.302 63 431.562C60.07 432.022 57.07 432.022 54 431.562C49.45 426.512 46.45 420.672 45 414.062C45 406.062 45 398.062 45 390.062C47.51 373.042 52.34 356.702 59.5 341.062C60.35 331.702 63.69 323.362 69.5 316.062C75.61 301.172 82.28 286.502 89.5 272.062C95.25 251.052 101.92 230.392 109.5 210.062C110.47 205.042 111.3 200.042 112 195.062C114.12 187.612 115.79 179.942 117 172.062C121.34 154.722 125.34 137.382 129 120.062C128.69 116.232 126.86 113.232 123.5 111.062C121.83 105.732 120.17 100.392 118.5 95.0617C118.04 85.3317 118.71 75.6617 120.5 66.0617C123.54 61.6117 126.21 56.9517 128.5 52.0617C136.1 44.6917 145.26 41.0317 156 41.0617C169.65 41.3317 181.99 45.5017 193 53.5617C196.26 57.2617 198.6 61.4317 200 66.0617C207.65 63.9117 215.32 61.7417 223 59.5617C249.99 58.5317 276.65 60.7017 303 66.0617C302.84 64.6917 303.01 63.3517 303.5 62.0617C307.55 56.6117 312.05 51.6117 317 47.0617Z" fill="#FEEA3E"/>
<path fill-rule="evenodd" clip-rule="evenodd" d="M148 58.0614C160.4 55.6714 170.9 59.0014 179.5 68.0614C181.83 71.3814 183 75.0514 183 79.0614C171.43 80.8014 163.6 87.1314 159.5 98.0614C155.69 104.131 150.53 105.631 144 102.561C139.22 98.8314 136.05 94.0014 134.5 88.0614C132.26 74.8814 136.76 64.8814 148 58.0614Z" fill="#F24535"/>
<path fill-rule="evenodd" clip-rule="evenodd" d="M336 59.0614C345.69 58.9914 354.52 61.6614 362.5 67.0614C369.83 75.0214 370.83 83.6814 365.5 93.0614C358.53 100.051 350.53 105.381 341.5 109.061C339.85 108.741 338.85 107.741 338.5 106.061C339.07 91.4614 332.24 82.4614 318 79.0614C319 67.6314 325 60.9614 336 59.0614Z" fill="#F24635"/>
<path fill-rule="evenodd" clip-rule="evenodd" d="M153 61.0616C160.82 61.0516 167.66 63.7216 173.5 69.0616C174 79.3316 171.17 80.5016 165 72.5616C161.36 69.9016 157.36 68.0716 153 67.0616C153 65.0616 153 63.0616 153 61.0616Z" fill="#FB958D"/>
<path fill-rule="evenodd" clip-rule="evenodd" d="M349 66.0615C360.44 68.2315 365.61 75.2315 364.5 87.0615C362.63 92.1015 359.63 93.1015 355.5 90.0615C355.31 83.1615 352.98 77.1615 348.5 72.0615C347.82 69.9615 347.99 67.9615 349 66.0615Z" fill="#FB968E"/>
<path fill-rule="evenodd" clip-rule="evenodd" d="M285 128.062C273.56 130.282 263.23 134.942 254 142.062C252.46 141.262 250.79 140.932 249 141.062C244.73 138.592 240.39 136.092 236 133.562C230.79 131.992 225.79 130.162 221 128.062C223.27 122.802 227.27 119.802 233 119.062C235.11 119.612 237.11 120.452 239 121.562C242.89 126.922 248.05 130.082 254.5 131.062C258.85 128.962 263.02 126.462 267 123.562C272 122.892 277 122.892 282 123.562C284.36 124.152 285.36 125.652 285 128.062Z" fill="#FFFDF5"/>
<path fill-rule="evenodd" clip-rule="evenodd" d="M221 128.061C225.79 130.161 230.79 131.991 236 133.561C240.39 136.091 244.73 138.591 249 141.061C246.97 145.991 246.64 150.991 248 156.061C244.67 154.921 241.67 153.091 239 150.561C232.18 147.981 225.52 145.151 219 142.061C217.97 141.011 217.3 139.671 217 138.061C217.43 135.171 218.1 132.341 219 129.561C219.34 128.531 220 128.031 221 128.061Z" fill="#FDC218"/>
<path fill-rule="evenodd" clip-rule="evenodd" d="M285 128.062C287.23 132.352 288.23 137.012 288 142.062C286.71 141.822 285.71 142.162 285 143.062C281.45 143.122 278.12 143.952 275 145.562C269.47 148.492 264.14 151.652 259 155.062C259.76 152.422 259.93 149.752 259.5 147.062C257.77 145.162 255.94 143.492 254 142.062C263.23 134.942 273.56 130.282 285 128.062Z" fill="#FDC118"/>
<path fill-rule="evenodd" clip-rule="evenodd" d="M219 142.062C225.52 145.152 232.18 147.982 239 150.562C241.67 153.092 244.67 154.922 248 156.062C251.94 158.902 255.61 158.572 259 155.062C264.14 151.652 269.47 148.492 275 145.562C278.12 143.952 281.45 143.122 285 143.062C285.88 142.932 286.54 143.262 287 144.062C286.19 145.632 285.86 147.302 286 149.062C284.19 149.052 282.52 149.552 281 150.562C268.9 159.302 264.4 171.132 267.5 186.062C269.64 196.722 276.14 202.722 287 204.062C288.79 204.872 290.79 205.372 293 205.562C292.31 210.552 293.97 214.892 298 218.562C302.74 219.292 307.41 218.952 312 217.562C316.67 214.562 321.33 211.562 326 208.562C328.67 206.232 328.67 203.892 326 201.562C324.28 201.212 322.62 200.712 321 200.062C318.55 197.532 315.89 195.532 313 194.062C315.72 188.242 318.05 182.242 320 176.062C321.18 175.842 322.18 176.172 323 177.062C321.85 181.052 320.02 184.712 317.5 188.062C316.18 193.592 318.35 196.922 324 198.062C327.3 196.082 330.63 194.082 334 192.062C334.66 203.092 333 213.752 329 224.062C323.09 226.022 317.42 228.522 312 231.562C304.41 233.542 296.74 235.042 289 236.062C283.13 233.702 277.13 233.532 271 235.562C267.77 237.672 264.44 239.512 261 241.062C252.91 241.322 244.91 240.652 237 239.062C229.74 234.662 221.74 232.992 213 234.062C204.33 231.632 196 228.132 188 223.562C185.37 221.932 183.04 219.932 181 217.562C180.05 217.082 179.05 216.912 178 217.062C178.9 214.172 179.24 211.172 179 208.062C183.07 214.762 189.07 217.762 197 217.062C205.55 217.972 210.55 214.312 212 206.062C228.67 204.222 238.33 195.062 241 178.562C241.13 172.962 239.3 168.122 235.5 164.062C235.4 158.282 232.56 154.452 227 152.562C223.66 151.622 220.32 150.782 217 150.062C216.46 146.862 217.13 144.202 219 142.062Z" fill="#FCFBFA"/>
<path fill-rule="evenodd" clip-rule="evenodd" d="M249 141.062C250.79 140.932 252.46 141.262 254 142.062C255.94 143.492 257.77 145.162 259.5 147.062C259.93 149.752 259.76 152.422 259 155.062C255.61 158.572 251.94 158.902 248 156.062C246.64 150.992 246.97 145.992 249 141.062Z" fill="#FB5D23"/>
<path fill-rule="evenodd" clip-rule="evenodd" d="M217.001 150.062C220.321 150.782 223.661 151.622 227.001 152.562C232.561 154.452 235.401 158.282 235.501 164.062C239.301 168.122 241.131 172.962 241.001 178.562C238.331 195.062 228.671 204.222 212.001 206.062C203.051 205.432 196.051 201.432 191.001 194.062C190.571 189.662 189.241 185.662 187.001 182.062C186.911 178.252 187.581 174.592 189.001 171.062C188.671 170.732 188.331 170.392 188.001 170.062C184.951 172.782 181.951 175.442 179.001 178.062C177.121 178.902 175.121 179.232 173.001 179.062C172.381 178.952 171.881 178.622 171.501 178.062C170.831 175.392 170.831 172.732 171.501 170.062C183.231 155.762 198.391 149.092 217.001 150.062Z" fill="#060504"/>
<path fill-rule="evenodd" clip-rule="evenodd" d="M286 149.062C289.99 149.562 293.99 150.062 298 150.562C304.93 152.862 311.93 154.862 319 156.562C324.74 160.622 330.74 164.292 337 167.562C338.08 169.292 338.24 171.122 337.5 173.062C330.89 174.372 325.06 172.702 320 168.062C318.89 170.722 318.89 173.382 320 176.062C318.05 182.242 315.72 188.242 313 194.062C306.62 202.912 297.95 206.242 287 204.062C276.14 202.722 269.64 196.722 267.5 186.062C264.4 171.132 268.9 159.302 281 150.562C282.52 149.552 284.19 149.052 286 149.062Z" fill="#040403"/>
<path fill-rule="evenodd" clip-rule="evenodd" d="M283 156.061C288.89 155.311 291.89 157.811 292 163.561C291.66 167.081 291.16 170.581 290.5 174.061C281.57 179.841 276.07 177.501 274 167.061C274.08 165.261 274.58 163.591 275.5 162.061C278.34 160.401 280.84 158.401 283 156.061Z" fill="#F4F4F4"/>
<path fill-rule="evenodd" clip-rule="evenodd" d="M220 159.062C229.13 159.392 232.3 164.062 229.5 173.062C227.97 177.732 224.8 180.402 220 181.062C214.99 179.762 212.33 176.432 212 171.062C213.18 166.012 215.85 162.012 220 159.062Z" fill="#F6F6F6"/>
<path fill-rule="evenodd" clip-rule="evenodd" d="M187 182.062C185.9 183.162 184.57 183.322 183 182.562C182.14 180.542 180.81 179.042 179 178.062C181.95 175.442 184.95 172.782 188 170.062C188.33 170.392 188.67 170.732 189 171.062C187.58 174.592 186.91 178.252 187 182.062Z" fill="#F7E853"/>
<path fill-rule="evenodd" clip-rule="evenodd" d="M117 172.062C115.79 179.942 114.12 187.612 112 195.062C112.5 187.012 114.17 179.352 117 172.062Z" fill="#F2B57A"/>
<path fill-rule="evenodd" clip-rule="evenodd" d="M179 178.062C180.81 179.042 182.14 180.542 183 182.562C184.57 183.322 185.9 183.162 187 182.062C189.24 185.662 190.57 189.662 191 194.062C181.54 193.192 177.54 197.532 179 207.062C174.2 198.492 172.2 189.152 173 179.062C175.12 179.232 177.12 178.902 179 178.062Z" fill="#FBFAF6"/>
<path fill-rule="evenodd" clip-rule="evenodd" d="M191 194.062C196.05 201.432 203.05 205.432 212 206.062C210.55 214.312 205.55 217.972 197 217.062C189.07 217.762 183.07 214.762 179 208.062C179 207.732 179 207.392 179 207.062C177.54 197.532 181.54 193.192 191 194.062Z" fill="#FCD8D9"/>
<path fill-rule="evenodd" clip-rule="evenodd" d="M313 194.062C315.89 195.532 318.55 197.532 321 200.062C322.62 200.712 324.28 201.212 326 201.562C328.67 203.892 328.67 206.232 326 208.562C321.33 211.562 316.67 214.562 312 217.562C307.41 218.952 302.74 219.292 298 218.562C293.97 214.892 292.31 210.552 293 205.562C290.79 205.372 288.79 204.872 287 204.062C297.95 206.242 306.62 202.912 313 194.062Z" fill="#FBD6D7"/>
<path fill-rule="evenodd" clip-rule="evenodd" d="M268 208.062C273.18 207.072 275.01 209.072 273.5 214.062C271.39 218.512 268.22 222.012 264 224.562C261.24 225.142 258.58 224.812 256 223.562C252.64 221.362 249.14 219.522 245.5 218.062C244.43 214.462 245.76 212.462 249.5 212.062C253.5 213.312 257.33 214.972 261 217.062C263.71 214.352 266.04 211.352 268 208.062Z" fill="#0D0D0D"/>
<path fill-rule="evenodd" clip-rule="evenodd" d="M164 217.062C166.49 219.052 169.32 220.392 172.5 221.062C175.03 220.692 176.87 219.362 178 217.062C179.05 216.912 180.05 217.082 181 217.562C183.04 219.932 185.37 221.932 188 223.562C196 228.132 204.33 231.632 213 234.062C210.73 235.832 208.56 237.832 206.5 240.062C205.52 245.352 205.02 250.692 205 256.062C188.69 251.902 173.36 245.572 159 237.062C159.19 229.782 160.86 223.122 164 217.062Z" fill="#4358DD"/>
<path fill-rule="evenodd" clip-rule="evenodd" d="M329 224.062C328.03 225.632 327.86 227.292 328.5 229.062C334.66 231.962 340.16 230.962 345 226.062C346.65 233.162 347.65 240.502 348 248.062C332.78 254.472 317.11 259.472 301 263.062C301.08 252.232 297.08 243.232 289 236.062C296.74 235.042 304.41 233.542 312 231.562C317.42 228.522 323.09 226.022 329 224.062Z" fill="#4558DD"/>
<path fill-rule="evenodd" clip-rule="evenodd" d="M213 234.062C221.74 232.992 229.74 234.662 237 239.062C242.39 240.922 247.39 243.592 252 247.062C255.54 245.792 258.54 243.792 261 241.062C264.44 239.512 267.77 237.672 271 235.562C277.13 233.532 283.13 233.702 289 236.062C297.08 243.232 301.08 252.232 301 263.062C299.8 265.982 298.8 268.982 298 272.062C297.06 273.612 296.39 275.282 296 277.062C293.76 279.132 293.1 281.472 294 284.062C295.52 285.782 296.52 287.782 297 290.062C302.13 301.132 298.8 307.802 287 310.062C286 310.062 285 310.062 284 310.062C279.76 323.172 272.93 324.512 263.5 314.062C260.41 307.542 257.07 301.202 253.5 295.062C250.03 305.842 244.2 315.002 236 322.562C227.35 322.902 223.01 318.732 223 310.062C221.28 310.192 219.62 310.522 218 311.062C209.44 308.382 206.61 302.722 209.5 294.062C210.68 291.692 211.85 289.362 213 287.062C212.81 285.982 212.48 284.982 212 284.062C211.91 281.772 211.24 279.772 210 278.062C209.39 275.232 208.39 272.572 207 270.062C207.31 266.852 206.98 263.852 206 261.062C206.13 259.272 205.8 257.602 205 256.062C205.02 250.692 205.52 245.352 206.5 240.062C208.56 237.832 210.73 235.832 213 234.062Z" fill="#C60605"/>
<path fill-rule="evenodd" clip-rule="evenodd" d="M159 237.062C173.36 245.572 188.69 251.902 205 256.062C205.8 257.602 206.13 259.272 206 261.062C206 262.062 206 263.062 206 264.062C203.23 264.142 200.56 263.642 198 262.562C184.52 256.322 171.18 249.822 158 243.062C157.71 240.822 158.04 238.822 159 237.062Z" fill="#F3F3FC"/>
<path fill-rule="evenodd" clip-rule="evenodd" d="M244 252.062C234.72 260.902 234.72 269.562 244 278.062C236.64 281.602 228.97 282.932 221 282.062C214.16 271.012 212.16 259.012 215 246.062C215.38 244.182 216.38 242.682 218 241.562C221.67 240.892 225.33 240.892 229 241.562C234.42 244.592 239.42 248.092 244 252.062Z" fill="#F34135"/>
<path fill-rule="evenodd" clip-rule="evenodd" d="M264 273.062C267.47 265.122 266.13 258.122 260 252.062C264.46 246.652 270.13 242.992 277 241.062C292.29 243.172 297.45 251.512 292.5 266.062C289.69 272.532 285.19 277.362 279 280.562C273.69 281.572 269.02 280.242 265 276.562C264.16 275.552 263.83 274.382 264 273.062Z" fill="#F34234"/>
<path fill-rule="evenodd" clip-rule="evenodd" d="M237 239.062C244.91 240.652 252.91 241.322 261 241.062C258.54 243.792 255.54 245.792 252 247.062C247.39 243.592 242.39 240.922 237 239.062Z" fill="#5F51C5"/>
<path fill-rule="evenodd" clip-rule="evenodd" d="M157 247.062C172.12 257.952 188.78 265.622 207 270.062C208.39 272.572 209.39 275.232 210 278.062C198.26 274.542 186.59 270.382 175 265.562C167.85 262.492 161.18 258.652 155 254.062C154.91 251.412 155.58 249.072 157 247.062Z" fill="#F3F3FB"/>
<path fill-rule="evenodd" clip-rule="evenodd" d="M348 248.062C350.65 250.662 350.65 253.322 348 256.062C331.6 262.272 314.93 267.612 298 272.062C298.8 268.982 299.8 265.982 301 263.062C317.11 259.472 332.78 254.472 348 248.062Z" fill="#F5F4FB"/>
<path fill-rule="evenodd" clip-rule="evenodd" d="M260 252.062C266.13 258.122 267.47 265.122 264 273.062C261.44 275.782 258.44 277.952 255 279.562C251.14 280.322 247.48 279.822 244 278.062C234.72 269.562 234.72 260.902 244 252.062C246.76 250.792 249.59 249.792 252.5 249.062C255.42 249.112 257.92 250.112 260 252.062Z" fill="#FEC832"/>
<path fill-rule="evenodd" clip-rule="evenodd" d="M348 256.062C349.76 257.112 350.42 258.782 350 261.062C344.29 263.992 338.29 266.492 332 268.562C319.97 271.402 307.97 274.242 296 277.062C296.39 275.282 297.06 273.612 298 272.062C314.93 267.612 331.6 262.272 348 256.062Z" fill="#485ADA"/>
<path fill-rule="evenodd" clip-rule="evenodd" d="M158 243.062C171.18 249.822 184.52 256.322 198 262.562C200.56 263.642 203.23 264.142 206 264.062C206 263.062 206 262.062 206 261.062C206.98 263.852 207.31 266.852 207 270.062C188.78 265.622 172.12 257.952 157 247.062C156.73 245.462 157.07 244.132 158 243.062Z" fill="#4C5BD9"/>
<path fill-rule="evenodd" clip-rule="evenodd" d="M350 261.062C351.57 262.662 352.24 264.662 352 267.062C344.11 270.842 336.11 274.342 328 277.562C316.79 280.442 305.46 282.602 294 284.062C293.1 281.472 293.76 279.132 296 277.062C307.97 274.242 319.97 271.402 332 268.562C338.29 266.492 344.29 263.992 350 261.062Z" fill="#F4F5FC"/>
<path fill-rule="evenodd" clip-rule="evenodd" d="M155 254.062C161.18 258.652 167.85 262.492 175 265.562C186.59 270.382 198.26 274.542 210 278.062C211.24 279.772 211.91 281.772 212 284.062C208.62 284.102 205.29 283.772 202 283.062C188.41 279.912 175.41 275.082 163 268.562C160.54 265.402 157.71 262.572 154.5 260.062C153.71 257.852 153.88 255.852 155 254.062Z" fill="#4B58D8"/>
<path fill-rule="evenodd" clip-rule="evenodd" d="M352 267.062C352.26 268.542 351.93 269.872 351 271.062C338.98 278.792 325.98 283.622 312 285.562C308.59 287.072 305.26 288.572 302 290.062C300.33 290.062 298.67 290.062 297 290.062C296.52 287.782 295.52 285.782 294 284.062C305.46 282.602 316.79 280.442 328 277.562C336.11 274.342 344.11 270.842 352 267.062Z" fill="#4858D8"/>
<path fill-rule="evenodd" clip-rule="evenodd" d="M202 283.062C205.29 283.772 208.62 284.102 212 284.062C212.48 284.982 212.81 285.982 213 287.062C211.85 289.362 210.68 291.692 209.5 294.062C206.61 302.722 209.44 308.382 218 311.062C218.37 314.942 219.37 318.612 221 322.062C220.64 325.252 218.98 327.412 216 328.562C209 330.562 202 330.562 195 328.562C191 323.892 191 319.232 195 314.562C198.65 314.062 202.32 313.892 206 314.062C204.83 303.702 203.49 293.372 202 283.062Z" fill="#0A0304"/>
<path fill-rule="evenodd" clip-rule="evenodd" d="M258 282.062C263.39 283.582 268.73 285.412 274 287.562C278.67 287.892 283.33 288.232 288 288.562C292.27 291.592 293.11 295.432 290.5 300.062C289.44 300.662 288.27 300.992 287 301.062C283.83 299.502 280.5 298.672 277 298.562C276.44 299.282 276.11 300.122 276 301.062C277.79 303.812 278.29 306.812 277.5 310.062C275.62 312.262 273.46 312.422 271 310.562C265.98 301.342 261.65 291.842 258 282.062Z" fill="#F34135"/>
<path fill-rule="evenodd" clip-rule="evenodd" d="M247 282.062C248.09 282.182 248.75 282.852 249 284.062C246.21 295.302 241.05 305.302 233.5 314.062C232.61 315.272 231.77 315.272 231 314.062C228.25 310.802 228.41 307.802 231.5 305.062C231.99 303.432 232.16 301.762 232 300.062C228.52 300.792 225.19 302.132 222 304.062C217.44 301.942 216.78 298.942 220 295.062C229.46 291.502 238.46 287.162 247 282.062Z" fill="#F34034"/>
<path fill-rule="evenodd" clip-rule="evenodd" d="M297 290.062C298.67 290.062 300.33 290.062 302 290.062C300.21 298.602 299.54 307.272 300 316.062C304.4 316.472 308.24 318.142 311.5 321.062C312.79 325.232 311.62 328.402 308 330.562C288.29 336.012 281.29 329.182 287 310.062C298.8 307.802 302.13 301.132 297 290.062Z" fill="#12080C"/>
<path fill-rule="evenodd" clip-rule="evenodd" d="M45 390.062C45 398.062 45 406.062 45 414.062C43.84 411.302 43.18 408.302 43 405.062C43.43 399.882 44.1 394.882 45 390.062Z" fill="#F3BA76"/>
</svg>
