<svg width="500" height="500" viewBox="0 0 500 500" fill="none" xmlns="http://www.w3.org/2000/svg">
<path fill-rule="evenodd" clip-rule="evenodd" d="M251 90.0613C250.81 91.7573 249.98 93.0903 248.5 94.0613C248.24 99.4243 247.74 104.758 247 110.061C247.35 111.41 247.68 112.744 248 114.061C240.98 115.717 235.98 113.384 233 107.061C227.71 85.6773 226.54 64.0103 229.5 42.0613C235.71 33.7673 241.05 34.4343 245.5 44.0613C246.5 47.0613 247.5 50.0613 248.5 53.0613C249.36 65.4523 250.2 77.7853 251 90.0613Z" fill="#B17B67"/>
<path fill-rule="evenodd" clip-rule="evenodd" d="M293 85.0611C283.49 94.0711 273.49 102.571 263 110.561C258.28 113.63 253.28 114.797 248 114.061C247.68 112.744 247.35 111.41 247 110.061C247.74 104.758 248.24 99.4241 248.5 94.0611C249.98 93.0901 250.81 91.7571 251 90.0611C258.34 79.5381 266.68 69.7051 276 60.5611C282.27 55.8041 289.27 53.4711 297 53.5611C300.41 55.8061 301.74 58.9731 301 63.0611C300.02 71.0211 297.35 78.3551 293 85.0611Z" fill="#4DAF51"/>
<path fill-rule="evenodd" clip-rule="evenodd" d="M293.001 85.0611C297.351 84.8951 301.681 85.0621 306.001 85.5611C318.011 89.6761 330.011 94.0091 342.001 98.5611C347.981 103.552 354.321 108.052 361.001 112.061C377.391 143.606 388.221 176.939 393.501 212.061C395.831 216.875 397.661 221.875 399.001 227.061C398.541 231.758 398.371 236.424 398.501 241.061C399.321 242.384 400.481 243.05 402.001 243.061C404.751 289.395 388.421 327.562 353.001 357.561C336.241 369.606 317.571 376.606 297.001 378.561C291.981 381.17 286.981 383.67 282.001 386.061C275.951 386.74 269.951 387.74 264.001 389.061C254.491 389.626 245.821 387.292 238.001 382.061C239.051 382.21 240.051 382.044 241.001 381.561C255.601 368.019 267.261 352.352 276.001 334.561C273.231 328.761 270.071 328.594 266.501 334.061C258.811 349.091 248.811 362.425 236.501 374.061C234.391 376.932 234.561 379.598 237.001 382.061C231.141 379.871 226.471 381.371 223.001 386.561C219.391 387.7 216.051 389.367 213.001 391.561C210.001 391.894 207.001 392.228 204.001 392.561C203.331 393.228 202.671 393.894 202.001 394.561C197.961 395.168 193.961 395.001 190.001 394.061C184.641 393.612 179.301 392.945 174.001 392.061C157.431 386.804 142.101 378.971 128.001 368.561C119.721 361.283 112.551 353.117 106.501 344.061C102.121 339.626 97.2907 335.793 92.0007 332.561C88.1307 329.027 84.6307 325.194 81.5007 321.061C74.9207 306.633 67.5807 292.633 59.5007 279.061C53.5907 264.619 51.2607 249.619 52.5007 234.061C54.5907 226.17 56.2607 218.17 57.5007 210.061C58.5407 206.738 60.0407 203.738 62.0007 201.061C65.2607 203.522 68.9307 205.189 73.0007 206.061C72.6807 213.953 73.8407 221.619 76.5007 229.061C82.5807 242.055 90.7507 253.555 101.001 263.561C105.381 267.243 110.381 268.91 116.001 268.561C117.291 265.436 117.291 262.27 116.001 259.061C96.6507 247.523 85.4807 230.523 82.5007 208.061C82.0007 207.561 81.5007 207.061 81.0007 206.561C86.6207 205.618 91.2907 202.952 95.0007 198.561C100.441 198.116 102.271 195.282 100.501 190.061C98.7107 188.127 96.7107 186.46 94.5007 185.061C91.0107 187.212 87.5107 189.379 84.0007 191.561C76.7607 195.07 71.7607 193.237 69.0007 186.061C74.5507 176.926 79.0507 167.26 82.5007 157.061C86.4507 150.782 90.7807 144.782 95.5007 139.061C103.931 128.625 113.101 118.792 123.001 109.561C142.881 96.5411 164.721 89.3741 188.501 88.0611C204.411 89.1011 217.581 95.6011 228.001 107.561C229.611 107.542 231.271 107.376 233.001 107.061C235.981 113.384 240.981 115.717 248.001 114.061C253.281 114.797 258.281 113.63 263.001 110.561C273.491 102.571 283.491 94.0711 293.001 85.0611Z" fill="#FEA09F"/>
<path fill-rule="evenodd" clip-rule="evenodd" d="M362.001 219.062C352.821 214.303 343.481 209.803 334.001 205.562C326.251 204.709 318.591 203.375 311.001 201.562C303.331 200.895 295.671 200.895 288.001 201.562C275.601 209.366 269.601 220.699 270.001 235.562C269.641 247.151 272.981 257.485 280.001 266.562C284.741 270.049 290.081 272.049 296.001 272.562C303.001 273.229 310.001 273.229 317.001 272.562C322.501 268.395 327.331 263.562 331.501 258.062C334.121 250.486 336.451 242.819 338.501 235.062C339.271 230.75 338.771 226.584 337.001 222.562C337.331 222.062 337.671 221.562 338.001 221.062C344.851 224.836 352.181 226.336 360.001 225.562C360.811 224.449 361.471 223.283 362.001 222.062C363.141 225.538 363.311 229.204 362.501 233.062C360.991 245.434 359.321 257.767 357.501 270.062C348.711 294.891 331.541 310.724 306.001 317.562C269.711 326.834 233.041 328.834 196.001 323.562C179.401 319.352 165.901 310.518 155.501 297.062C152.011 288.752 148.011 280.752 143.501 273.062C133.061 238.696 143.231 212.529 174.001 194.562C188.431 187.347 203.101 180.681 218.001 174.562C223.841 172.282 229.841 170.615 236.001 169.562C265.751 167.87 295.081 170.537 324.001 177.562C344.191 184.582 356.861 198.415 362.001 219.062Z" fill="#FDFCFC"/>
<path fill-rule="evenodd" clip-rule="evenodd" d="M402 243.062C400.48 243.051 399.32 242.385 398.5 241.062C398.37 236.425 398.54 231.759 399 227.062C401.25 223.308 404.08 219.974 407.5 217.062C411.84 210.394 414.34 203.061 415 195.062C413.62 191.292 411.95 187.625 410 184.062C411.64 178.92 414.64 174.753 419 171.562C426.39 171.631 429.55 175.465 428.5 183.062C429.45 188.78 432.62 190.78 438 189.062C448.35 189.634 449.69 193.468 442 200.562C437.11 203.147 431.95 204.647 426.5 205.062C422.67 214.061 417.33 222.061 410.5 229.062C407.93 233.976 405.1 238.643 402 243.062Z" fill="#060606"/>
<path fill-rule="evenodd" clip-rule="evenodd" d="M62.001 201.062C56.361 195.78 56.691 190.947 63.001 186.562C64.971 186.067 66.971 185.9 69.001 186.062C71.761 193.238 76.761 195.071 84.001 191.562C87.511 189.38 91.011 187.213 94.501 185.062C96.711 186.461 98.711 188.128 100.501 190.062C102.271 195.283 100.441 198.117 95.001 198.562C91.291 202.953 86.621 205.619 81.001 206.562C81.501 207.062 82.001 207.562 82.501 208.062C85.481 230.524 96.651 247.524 116.001 259.062C117.291 262.271 117.291 265.437 116.001 268.562C110.381 268.911 105.381 267.244 101.001 263.562C90.751 253.556 82.581 242.056 76.501 229.062C73.841 221.62 72.681 213.954 73.001 206.062C68.931 205.19 65.261 203.523 62.001 201.062Z" fill="#070404"/>
<path fill-rule="evenodd" clip-rule="evenodd" d="M362.001 219.062C362.001 220.062 362.001 221.062 362.001 222.062C361.471 223.283 360.811 224.449 360.001 225.562C352.181 226.336 344.851 224.836 338.001 221.062C337.671 221.562 337.331 222.062 337.001 222.562C338.771 226.584 339.271 230.75 338.501 235.062C336.451 242.819 334.121 250.486 331.501 258.062C327.331 263.562 322.501 268.395 317.001 272.562C310.001 273.229 303.001 273.229 296.001 272.562C290.081 272.049 284.741 270.049 280.001 266.562C272.981 257.485 269.641 247.151 270.001 235.562C269.601 220.699 275.601 209.366 288.001 201.562C295.671 200.895 303.331 200.895 311.001 201.562C318.591 203.375 326.251 204.709 334.001 205.562C343.481 209.803 352.821 214.303 362.001 219.062Z" fill="#040404"/>
<path fill-rule="evenodd" clip-rule="evenodd" d="M289 211.061C293.63 210.261 297.46 211.595 300.5 215.061C301.17 221.061 301.17 227.061 300.5 233.061C296.45 237.877 291.28 239.377 285 237.561C282.1 234.699 279.6 231.532 277.5 228.061C276.76 224.778 277.42 221.778 279.5 219.061C283.09 216.788 286.26 214.122 289 211.061Z" fill="#F5F5F5"/>
<path fill-rule="evenodd" clip-rule="evenodd" d="M189 214.062C196.67 213.896 204.34 214.062 212 214.562C220.35 215.584 225.51 220.084 227.5 228.062C232.4 233.201 235.74 239.201 237.5 246.062C238.17 248.729 238.17 251.395 237.5 254.062C234.54 266.016 228.04 275.516 218 282.562C209.09 287.321 199.76 288.654 190 286.562C185.5 283.395 181 280.229 176.5 277.062C173.64 272.152 170.98 267.152 168.5 262.062C167.09 256.062 166.59 250.062 167 244.062C163.22 248.135 159.55 252.302 156 256.562C152.88 258.249 149.71 258.416 146.5 257.062C145.83 253.395 145.83 249.729 146.5 246.062C151.28 236.282 158.45 228.782 168 223.562C174.6 219.26 181.6 216.093 189 214.062Z" fill="#040404"/>
<path fill-rule="evenodd" clip-rule="evenodd" d="M209 224.062C219.31 225.661 223.48 231.661 221.5 242.062C219.51 248.059 215.51 252.059 209.5 254.062C202.8 252.03 198.97 247.53 198 240.562C198.74 233.016 202.4 227.516 209 224.062Z" fill="#F5F5F5"/>
<path fill-rule="evenodd" clip-rule="evenodd" d="M277.999 280.061C282.229 279.303 284.899 280.97 285.999 285.061C283.469 291.614 279.809 297.448 274.999 302.561C271.459 304.065 267.789 304.398 263.999 303.561C259.849 301.624 255.519 300.29 250.999 299.561C247.489 296.513 247.159 293.18 249.999 289.561C255.389 288.528 260.389 289.528 264.999 292.561C266.669 293.228 268.329 293.228 269.999 292.561C272.549 288.281 275.219 284.115 277.999 280.061Z" fill="#0B0B0B"/>
<path fill-rule="evenodd" clip-rule="evenodd" d="M238 382.061C237.67 382.061 237.33 382.061 237 382.061C234.56 379.598 234.39 376.932 236.5 374.061C248.81 362.425 258.81 349.091 266.5 334.061C270.07 328.594 273.23 328.761 276 334.561C267.26 352.352 255.6 368.019 241 381.561C240.05 382.044 239.05 382.21 238 382.061Z" fill="#FF9187"/>
<path fill-rule="evenodd" clip-rule="evenodd" d="M282 386.062C281.27 404.435 279.94 422.768 278 441.062C283.65 440.175 289.31 440.008 295 440.562C303.16 449.544 301.16 454.877 289 456.562C283.33 457.229 277.67 457.229 272 456.562C270.21 455.777 268.71 454.611 267.5 453.062C266.19 431.732 265.02 410.399 264 389.062C269.95 387.741 275.95 386.741 282 386.062Z" fill="#060606"/>
<path fill-rule="evenodd" clip-rule="evenodd" d="M173.999 392.062C179.299 392.946 184.639 393.613 189.999 394.062C191.529 399.753 192.199 405.587 191.999 411.562C191.489 421.603 190.489 431.603 188.999 441.562C189.329 443.729 189.669 445.895 189.999 448.062C195.889 445.464 201.889 444.964 207.999 446.562C210.479 448.846 210.649 451.346 208.499 454.062C201.779 459.526 194.109 462.859 185.499 464.062C183.459 461.857 180.959 460.357 177.999 459.562C175.879 457.831 174.379 455.664 173.499 453.062C172.839 437.197 173.339 421.363 174.999 405.562C174.729 401.05 174.399 396.55 173.999 392.062Z" fill="#070707"/>
</svg>
