<svg width="500" height="500" viewBox="0 0 500 500" fill="none" xmlns="http://www.w3.org/2000/svg">
<path fill-rule="evenodd" clip-rule="evenodd" d="M399.999 296.062C397.499 297.732 395.499 299.902 393.999 302.562C380.259 307.642 366.259 311.812 351.999 315.062C358.279 306.382 361.449 296.712 361.499 286.062C359.279 283.942 356.779 283.612 353.999 285.062C350.149 298.432 343.489 310.092 333.999 320.062C309.869 324.202 285.539 326.202 260.999 326.062C235.669 325.552 210.329 325.052 184.999 324.562C178.879 323.032 172.879 321.202 166.999 319.062C162.799 309.462 159.799 299.462 157.999 289.062C153.999 285.962 150.829 286.632 148.499 291.062C147.829 294.392 147.829 297.732 148.499 301.062C149.779 305.382 150.939 309.722 151.999 314.062C139.519 309.822 127.849 303.992 116.999 296.562C111.849 293.242 107.189 289.412 102.999 285.062C102.759 281.772 103.589 278.772 105.499 276.062C141.589 208.362 181.259 143.022 224.499 80.0615C235.349 73.2715 247.179 68.9415 259.999 67.0615C276.579 75.3015 290.419 86.9615 301.499 102.062C318.399 136.202 336.069 169.872 354.499 203.062C370.219 233.842 385.389 264.842 399.999 296.062Z" fill="#F24336"/>
<path fill-rule="evenodd" clip-rule="evenodd" d="M226 111.062C231.22 110.502 234.56 112.662 236 117.562C234.4 124.592 231.57 131.092 227.5 137.062C221.93 141.812 218.09 140.812 216 134.062C216.23 130.802 217.23 127.802 219 125.062C218.1 122.762 217.94 120.432 218.5 118.062C220.9 115.492 223.4 113.162 226 111.062Z" fill="#0A0201"/>
<path fill-rule="evenodd" clip-rule="evenodd" d="M262 142.062C267.65 142.522 271.48 145.522 273.5 151.062C275.53 155.332 276.69 159.832 277 164.562C276.97 170.662 273.97 172.662 268 170.562C263.76 165.922 261.26 160.422 260.5 154.062C259.49 149.762 259.99 145.762 262 142.062Z" fill="#0A0101"/>
<path fill-rule="evenodd" clip-rule="evenodd" d="M204.001 169.061C210.981 168.831 213.481 172.161 211.501 179.061C208.211 186.151 204.041 192.651 199.001 198.561C187.911 201.461 184.741 197.631 189.501 187.061C192.071 179.011 196.911 173.011 204.001 169.061Z" fill="#090100"/>
<path fill-rule="evenodd" clip-rule="evenodd" d="M307 172.062C308.7 171.902 310.37 172.072 312 172.562C318.98 179.522 323.31 187.852 325 197.562C324.25 202.992 321.25 205.322 316 204.562C312.45 200.682 309.28 196.512 306.5 192.062C304.4 185.192 304.57 178.532 307 172.062Z" fill="#0C0201"/>
<path fill-rule="evenodd" clip-rule="evenodd" d="M245 200.061C239.91 199.781 234.91 200.111 230 201.061C229.32 192.901 232.99 189.401 241 190.561C244.46 192.801 245.8 195.971 245 200.061Z" fill="#100706"/>
<path fill-rule="evenodd" clip-rule="evenodd" d="M245 200.062C279.26 200.082 308.42 212.082 332.5 236.062C335.27 239.952 337.77 243.952 340 248.062C333.5 243.752 326.83 239.582 320 235.562C313.04 233.242 306.04 230.912 299 228.562C281.54 224.722 270.37 231.552 265.5 249.062C264.24 258.332 265.24 267.332 268.5 276.062C276.4 284.692 286.23 288.192 298 286.562C303.03 284.962 307.53 282.462 311.5 279.062C316.22 271.782 319.72 263.942 322 255.562C320.98 253.012 320.98 250.512 322 248.062C326.39 252.172 331.56 254.842 337.5 256.062C339.8 255.592 341.3 254.252 342 252.062C348.91 269.282 345.57 284.452 332 297.562C310.54 310.432 287.21 316.932 262 317.062C234.39 319.372 208.39 314.202 184 301.562C175.15 296.702 170.31 289.202 169.5 279.062C164.16 271.812 162.66 263.812 165 255.062C167.15 255.192 169.15 254.692 171 253.562C174.15 251.252 177.15 248.752 180 246.062C178.94 255.402 180.44 264.402 184.5 273.062C194.83 285.972 207.33 288.472 222 280.562C224.8 278.772 227.3 276.602 229.5 274.062C230.76 270.542 232.76 267.542 235.5 265.062C238.26 256.832 237.26 249.162 232.5 242.062C232.06 234.612 228.23 229.782 221 227.562C209.19 223.922 197.52 224.262 186 228.562C181.15 230.822 176.48 233.322 172 236.062C176.05 229.172 181.39 223.332 188 218.562C201.22 210.782 215.22 204.942 230 201.062C234.91 200.112 239.91 199.782 245 200.062Z" fill="#FCFBFB"/>
<path fill-rule="evenodd" clip-rule="evenodd" d="M165.001 255.062C164.381 254.952 163.881 254.622 163.501 254.062C162.831 251.062 162.831 248.062 163.501 245.062C166.571 242.162 169.401 239.162 172.001 236.062C176.481 233.322 181.151 230.822 186.001 228.562C197.521 224.262 209.191 223.922 221.001 227.562C228.231 229.782 232.061 234.612 232.501 242.062C237.261 249.162 238.261 256.832 235.501 265.062C232.761 267.542 230.761 270.542 229.501 274.062C227.301 276.602 224.801 278.772 222.001 280.562C207.331 288.472 194.831 285.972 184.501 273.062C180.441 264.402 178.941 255.402 180.001 246.062C177.151 248.752 174.151 251.252 171.001 253.562C169.151 254.692 167.151 255.192 165.001 255.062Z" fill="#050505"/>
<path fill-rule="evenodd" clip-rule="evenodd" d="M340 248.061C341.1 249.161 341.77 250.501 342 252.061C341.3 254.251 339.8 255.591 337.5 256.061C331.56 254.841 326.39 252.171 322 248.061C320.98 250.511 320.98 253.011 322 255.561C319.72 263.941 316.22 271.781 311.5 279.061C307.53 282.461 303.03 284.961 298 286.561C286.23 288.191 276.4 284.691 268.5 276.061C265.24 267.331 264.24 258.331 265.5 249.061C270.37 231.551 281.54 224.721 299 228.561C306.04 230.911 313.04 233.241 320 235.561C326.83 239.581 333.5 243.751 340 248.061Z" fill="#050505"/>
<path fill-rule="evenodd" clip-rule="evenodd" d="M215 235.062C225.78 236.072 228.95 241.742 224.5 252.062C222.4 256.112 219.07 258.452 214.5 259.062C207.65 256.362 205.32 251.362 207.5 244.062C209.14 240.262 211.64 237.262 215 235.062Z" fill="#F5F5F5"/>
<path fill-rule="evenodd" clip-rule="evenodd" d="M282 235.062C284.36 234.902 286.69 235.062 289 235.562C290.83 236.062 292 237.232 292.5 239.062C293.17 243.212 292.67 247.212 291 251.062C288.93 256.692 284.93 258.522 279 256.562C276.82 254.762 274.99 252.592 273.5 250.062C272.71 246.932 273.04 243.932 274.5 241.062C277.15 239.142 279.65 237.142 282 235.062Z" fill="#F5F5F5"/>
<path fill-rule="evenodd" clip-rule="evenodd" d="M352 315.061C344.38 325.291 336.04 334.951 327 344.061C324.74 346.761 323.4 349.931 323 353.561C324.63 356.851 325.13 360.351 324.5 364.061C321.69 369.191 317.85 370.191 313 367.061C311.52 365.081 309.85 363.241 308 361.561C301.79 359.821 295.79 357.491 290 354.561C288.64 352.981 287.97 351.141 288 349.061C288.79 347.771 289.79 346.601 291 345.561C296.75 345.161 302.42 345.501 308 346.561C317.48 338.581 326.15 329.741 334 320.061C343.49 310.091 350.15 298.431 354 285.061C356.78 283.611 359.28 283.941 361.5 286.061C361.45 296.711 358.28 306.381 352 315.061Z" fill="#060503"/>
<path fill-rule="evenodd" clip-rule="evenodd" d="M103 285.062C107.19 289.412 111.85 293.242 117 296.562C127.85 303.992 139.52 309.822 152 314.062C156.22 324.172 161.22 333.832 167 343.062C150.2 337.332 133.86 330.492 118 322.562C110.71 316.932 103.71 310.932 97 304.562C94.92 302.862 92.59 301.692 90 301.062C93.33 295.082 97.16 289.412 101.5 284.062C101.88 284.622 102.38 284.952 103 285.062Z" fill="#CEFCC1"/>
<path fill-rule="evenodd" clip-rule="evenodd" d="M167.001 319.061C170.331 329.581 176.331 338.421 185.001 345.561C189.531 344.411 194.201 344.081 199.001 344.561C202.071 345.471 204.411 347.301 206.001 350.061C206.421 352.881 205.421 355.051 203.001 356.561C199.471 358.271 195.801 359.601 192.001 360.561C189.331 363.231 186.671 365.891 184.001 368.561C176.181 370.731 172.681 367.891 173.501 360.061C175.331 358.231 177.161 356.401 179.001 354.561C175.151 350.551 171.151 346.711 167.001 343.061C161.221 333.831 156.221 324.171 152.001 314.061C150.941 309.721 149.781 305.381 148.501 301.061C147.831 297.731 147.831 294.391 148.501 291.061C150.831 286.631 154.001 285.961 158.001 289.061C159.801 299.461 162.801 309.461 167.001 319.061Z" fill="#050502"/>
<path fill-rule="evenodd" clip-rule="evenodd" d="M266 289.062C268.98 289.202 270.98 290.702 272 293.562C269.27 298.702 265.6 303.032 261 306.562C253.34 306.492 246.51 303.992 240.5 299.062C239.5 295.222 241 293.222 245 293.062C248.54 293.492 251.54 294.992 254 297.562C255.67 298.232 257.33 298.232 259 297.562C261.17 294.562 263.5 291.732 266 289.062Z" fill="#0C0C0C"/>
<path fill-rule="evenodd" clip-rule="evenodd" d="M400 296.062C403.2 302.462 406.7 308.792 410.5 315.062C410.82 317.152 411.32 319.152 412 321.062C404.13 324.162 396.13 326.992 388 329.562C367.84 334.292 347.84 339.462 328 345.062C327.39 344.942 327.06 344.602 327 344.062C336.04 334.952 344.38 325.292 352 315.062C366.26 311.812 380.26 307.642 394 302.562C395.5 299.902 397.5 297.732 400 296.062Z" fill="#CFFCC2"/>
<path fill-rule="evenodd" clip-rule="evenodd" d="M90.0005 301.062C92.5905 301.692 94.9205 302.862 97.0005 304.562C103.711 310.932 110.711 316.932 118.001 322.562C133.861 330.492 150.201 337.332 167.001 343.062C171.151 346.712 175.151 350.552 179.001 354.562C177.161 356.402 175.331 358.232 173.501 360.062C172.681 367.892 176.181 370.732 184.001 368.562C186.671 365.892 189.331 363.232 192.001 360.562C195.801 359.602 199.471 358.272 203.001 356.562C205.421 355.052 206.421 352.882 206.001 350.062C233.411 350.382 260.741 350.052 288.001 349.062C287.971 351.142 288.641 352.982 290.001 354.562C295.791 357.492 301.791 359.822 308.001 361.562C309.851 363.242 311.521 365.082 313.001 367.062C317.851 370.192 321.691 369.192 324.501 364.062C325.131 360.352 324.631 356.852 323.001 353.562C323.401 349.932 324.741 346.762 327.001 344.062C327.061 344.602 327.391 344.942 328.001 345.062C347.841 339.462 367.841 334.292 388.001 329.562C396.131 326.992 404.131 324.162 412.001 321.062C413.271 327.932 414.601 334.932 416.001 342.062C414.411 347.012 412.911 352.012 411.501 357.062C409.731 357.862 408.231 359.032 407.001 360.562C390.531 366.162 373.871 371.162 357.001 375.562C339.321 376.372 321.651 377.372 304.001 378.562C302.441 378.772 301.111 379.272 300.001 380.062C295.981 380.212 291.981 380.542 288.001 381.062C271.841 383.442 255.671 385.772 239.501 388.062C230.281 387.462 221.111 386.462 212.001 385.062C206.581 384.752 201.251 384.092 196.001 383.062C184.021 381.782 172.021 380.622 160.001 379.562C155.001 377.892 150.001 376.232 145.001 374.562C131.491 366.972 117.831 359.642 104.001 352.562C97.0805 345.642 90.9105 338.142 85.5005 330.062C84.8305 322.392 84.8305 314.732 85.5005 307.062C87.6005 305.472 89.1005 303.472 90.0005 301.062Z" fill="#4DAF50"/>
<path fill-rule="evenodd" clip-rule="evenodd" d="M167 319.062C172.88 321.202 178.88 323.032 185 324.562C210.33 325.052 235.67 325.552 261 326.062C285.54 326.202 309.87 324.202 334 320.062C326.15 329.742 317.48 338.582 308 346.562C302.42 345.502 296.75 345.162 291 345.562C289.79 346.602 288.79 347.772 288 349.062C260.74 350.052 233.41 350.382 206 350.062C204.41 347.302 202.07 345.472 199 344.562C194.2 344.082 189.53 344.412 185 345.562C176.33 338.422 170.33 329.582 167 319.062Z" fill="#CFFBC0"/>
<path fill-rule="evenodd" clip-rule="evenodd" d="M300 380.062C299.83 389.402 300 398.732 300.5 408.062C300.7 409.822 301.2 411.482 302 413.062C306.8 410.852 311.8 410.012 317 410.562C324.11 413.772 325.77 418.772 322 425.562C317.44 427.672 312.77 429.512 308 431.062C306.81 430.802 305.64 430.472 304.5 430.062C301.38 430.922 298.21 431.582 295 432.062C292.59 432.152 290.76 431.152 289.5 429.062C288.18 413.092 287.68 397.092 288 381.062C291.98 380.542 295.98 380.212 300 380.062Z" fill="#0A0B0A"/>
<path fill-rule="evenodd" clip-rule="evenodd" d="M196 383.062C201.25 384.092 206.58 384.752 212 385.062C211.31 395.052 210.64 405.052 210 415.062C216.67 414.892 223.34 415.062 230 415.562C233.64 418.322 233.97 421.482 231 425.062C228.67 426.562 226.33 428.062 224 429.562C216.33 430.232 208.67 430.232 201 429.562C198.47 426.992 197.31 423.822 197.5 420.062C197.05 407.722 196.55 395.392 196 383.062Z" fill="#040504"/>
</svg>
