<svg width="500" height="500" viewBox="0 0 500 500" fill="none" xmlns="http://www.w3.org/2000/svg">
<path fill-rule="evenodd" clip-rule="evenodd" d="M358 203.061C357 202.731 356.33 202.061 356 201.061C355.69 198.311 356.02 195.651 357 193.061C369.9 180.051 370.23 166.711 358 153.061C358.16 151.361 357.99 149.691 357.5 148.061C351.62 138.851 343.79 131.691 334 126.561C321.11 120.951 308.11 115.621 295 110.561C285.1 107.991 275.1 106.161 265 105.061C254.66 103.001 244.66 99.8411 235 95.5611C228.67 94.2311 222.34 93.0611 216 92.0611C218.13 91.2511 220.46 90.7511 223 90.5611C236.9 89.2111 250.57 90.2111 264 93.5611C284.26 93.0411 303.26 97.3811 321 106.561C332.97 106.781 344.31 109.451 355 114.561C365.88 123.771 373.05 135.271 376.5 149.061C377.33 155.061 378.17 161.061 379 167.061C375.59 176.641 372.42 186.311 369.5 196.061C366.63 200.071 362.8 202.411 358 203.061Z" fill="#D5AC80"/>
<path fill-rule="evenodd" clip-rule="evenodd" d="M216 92.061C216.09 93.061 215.75 93.891 215 94.561C203.85 99.721 193.18 105.721 183 112.561C181.71 113.051 180.37 113.221 179 113.061C163.53 114.381 149.2 119.221 136 127.561C126.04 134.341 119.71 143.511 117 155.061C117 155.731 116.67 156.061 116 156.061C116.5 152.341 115.66 149.011 113.5 146.061C111.77 138.431 113.27 131.601 118 125.561C127.97 118.081 138.97 112.411 151 108.561C159.53 103.311 168.87 100.311 179 99.561C180.72 98.031 182.72 97.031 185 96.561C189.67 96.231 194.33 95.891 199 95.561C204.36 93.351 210.03 92.181 216 92.061Z" fill="#D5AC7F"/>
<path fill-rule="evenodd" clip-rule="evenodd" d="M265 105.061C275.1 106.161 285.1 107.991 295 110.561C308.11 115.621 321.11 120.951 334 126.561C343.79 131.691 351.62 138.851 357.5 148.061C357.99 149.691 358.16 151.361 358 153.061C359.11 163.341 355.45 171.501 347 177.561C333.85 184.351 319.85 188.011 305 188.561C293.36 189.591 281.69 190.251 270 190.561C259.15 193.241 248.15 194.741 237 195.061C236.89 192.181 235.73 189.841 233.5 188.061C226.21 182.961 218.04 180.121 209 179.561C202.08 173.291 195.58 173.791 189.5 181.061C187.11 184.731 185.61 188.731 185 193.061C185 193.731 184.67 194.061 184 194.061C174.33 194.231 164.66 194.061 155 193.561C151.11 193.451 147.44 192.621 144 191.061C145.33 185.441 146.16 179.771 146.5 174.061C139.08 170.101 131.58 166.271 124 162.561C121.43 160.161 119.1 157.661 117 155.061C119.71 143.511 126.04 134.341 136 127.561C149.2 119.221 163.53 114.381 179 113.061C178.36 114.041 177.69 115.041 177 116.061C177.66 124.261 177.99 132.431 178 140.561C196.38 146.301 214.38 152.971 232 160.561C236 161.231 240 161.231 244 160.561C254.18 149.701 266.01 141.201 279.5 135.061C280.17 130.731 280.17 126.391 279.5 122.061C278.35 118.851 277.68 115.521 277.5 112.061C273.38 109.431 269.22 107.101 265 105.061Z" fill="#B9712B"/>
<path fill-rule="evenodd" clip-rule="evenodd" d="M216 92.061C222.34 93.061 228.67 94.231 235 95.561C244.66 99.841 254.66 103.001 265 105.061C269.22 107.101 273.38 109.431 277.5 112.061C277.68 115.521 278.35 118.851 279.5 122.061C280.17 126.391 280.17 130.731 279.5 135.061C266.01 141.201 254.18 149.701 244 160.561C240 161.231 236 161.231 232 160.561C214.38 152.971 196.38 146.301 178 140.561C177.99 132.431 177.66 124.261 177 116.061C177.69 115.041 178.36 114.041 179 113.061C180.37 113.221 181.71 113.051 183 112.561C193.18 105.721 203.85 99.721 215 94.561C215.75 93.891 216.09 93.061 216 92.061Z" fill="#FDC930"/>
<path fill-rule="evenodd" clip-rule="evenodd" d="M182.999 122.061C187.709 122.911 192.379 124.071 196.999 125.561C208.909 132.011 220.909 138.181 232.999 144.061C233.989 147.331 234.319 150.661 233.999 154.061C232.299 154.221 230.629 154.051 228.999 153.561C214.769 146.931 200.109 141.261 184.999 136.561C184.369 135.811 183.869 134.981 183.499 134.061C182.999 130.071 182.829 126.071 182.999 122.061Z" fill="#F7E902"/>
<path fill-rule="evenodd" clip-rule="evenodd" d="M268 118.061C269 118.061 270 118.061 271 118.061C271.33 123.101 270.99 128.101 270 133.061C260.33 139.731 250.67 146.391 241 153.061C241.13 148.421 240.96 143.761 240.5 139.061C249.57 131.811 258.73 124.811 268 118.061Z" fill="#F7E902"/>
<path fill-rule="evenodd" clip-rule="evenodd" d="M215 100.061C232.8 101.011 249.47 105.671 265 114.061C255.86 120.131 246.86 126.471 238 133.061C236.08 134.201 234.08 134.371 232 133.561C216.81 127.591 201.48 121.931 186 116.561C195.11 110.011 204.78 104.511 215 100.061Z" fill="#F7EA01"/>
<path fill-rule="evenodd" clip-rule="evenodd" d="M117.001 155.061C119.101 157.661 121.431 160.161 124.001 162.561C131.581 166.271 139.081 170.101 146.501 174.061C146.161 179.771 145.331 185.441 144.001 191.061C134.081 189.481 125.581 185.151 118.501 178.061C115.381 171.781 114.221 165.111 115.001 158.061C114.831 157.071 115.161 156.401 116.001 156.061C116.671 156.061 117.001 155.731 117.001 155.061Z" fill="#C7864C"/>
<path fill-rule="evenodd" clip-rule="evenodd" d="M115 158.061C114.22 165.111 115.38 171.781 118.5 178.061C125.58 185.151 134.08 189.481 144 191.061C143.12 204.131 147.79 214.631 158 222.561C157.41 223.021 156.74 223.191 156 223.061C147.66 218.221 139.33 213.391 131 208.561C128.69 208.061 126.36 207.901 124 208.061C110.7 198.691 107.2 186.351 113.5 171.061C113.68 166.541 114.18 162.211 115 158.061Z" fill="#FDDC9C"/>
<path fill-rule="evenodd" clip-rule="evenodd" d="M237 195.061C232.67 195.061 228.33 195.061 224 195.061C211.07 193.361 198.07 192.691 185 193.061C185.61 188.731 187.11 184.731 189.5 181.061C195.58 173.791 202.08 173.291 209 179.561C218.04 180.121 226.21 182.961 233.5 188.061C235.73 189.841 236.89 192.181 237 195.061Z" fill="#C6854B"/>
<path fill-rule="evenodd" clip-rule="evenodd" d="M358 153.061C370.23 166.711 369.9 180.051 357 193.061C356.02 195.651 355.69 198.311 356 201.061C352.33 201.061 348.67 201.061 345 201.061C347.13 200.251 349.46 199.751 352 199.561C346.75 197.471 343.42 193.641 342 188.061C340.46 190.441 339.79 193.111 340 196.061C340.04 198.511 340.71 200.511 342 202.061C342 202.731 341.67 203.061 341 203.061C322.99 207.631 304.66 210.461 286 211.561C272.86 214.791 259.53 217.291 246 219.061C245.67 219.061 245.33 219.061 245 219.061C245.64 210.541 243.31 203.041 238 196.561C233.15 196.391 228.48 195.891 224 195.061C228.33 195.061 232.67 195.061 237 195.061C248.15 194.741 259.15 193.241 270 190.561C281.69 190.251 293.36 189.591 305 188.561C319.85 188.011 333.85 184.351 347 177.561C355.45 171.501 359.11 163.341 358 153.061Z" fill="#D8A057"/>
<path fill-rule="evenodd" clip-rule="evenodd" d="M345 201.061C343.89 201.121 342.89 201.451 342 202.061C340.71 200.511 340.04 198.511 340 196.061C339.79 193.111 340.46 190.441 342 188.061C343.42 193.641 346.75 197.471 352 199.561C349.46 199.751 347.13 200.251 345 201.061Z" fill="#FCDA99"/>
<path fill-rule="evenodd" clip-rule="evenodd" d="M144 191.061C147.44 192.621 151.11 193.451 155 193.561C164.66 194.061 174.33 194.231 184 194.061C185.91 206.081 181.91 215.581 172 222.561C173.63 223.051 175.3 223.221 177 223.061C170 224.391 163 224.391 156 223.061C156.74 223.191 157.41 223.021 158 222.561C147.79 214.631 143.12 204.131 144 191.061Z" fill="#D9A157"/>
<path fill-rule="evenodd" clip-rule="evenodd" d="M185 193.061C198.07 192.691 211.07 193.361 224 195.061C228.48 195.891 233.15 196.391 238 196.561C243.31 203.041 245.64 210.541 245 219.061C242.37 219.661 239.71 220.161 237 220.561C216.96 220.901 196.96 221.741 177 223.061C175.3 223.221 173.63 223.051 172 222.561C181.91 215.581 185.91 206.081 184 194.061C184.67 194.061 185 193.731 185 193.061Z" fill="#FDDB9B"/>
<path fill-rule="evenodd" clip-rule="evenodd" d="M345 201.061C348.67 201.061 352.33 201.061 356 201.061C356.33 202.061 357 202.731 358 203.061C361.31 207.201 365.14 210.861 369.5 214.061C370.29 215.301 370.79 216.641 371 218.061C371.82 228.911 367.16 236.411 357 240.561C350.81 243.191 344.47 245.361 338 247.061C339.71 244.521 341.21 241.851 342.5 239.061C343.13 226.961 342.63 214.961 341 203.061C341.67 203.061 342 202.731 342 202.061C342.89 201.451 343.89 201.121 345 201.061Z" fill="#C6864C"/>
<path fill-rule="evenodd" clip-rule="evenodd" d="M341 203.061C342.63 214.961 343.13 226.961 342.5 239.061C341.21 241.851 339.71 244.521 338 247.061C335.55 248.341 333.22 249.841 331 251.561C325.24 251.871 319.57 252.701 314 254.061C307.82 255.651 301.49 256.481 295 256.561C293.69 257.541 292.69 258.711 292 260.061C292.07 258.601 291.73 257.271 291 256.061C286.45 242.341 277.11 233.511 263 229.561C257.53 229.321 252.2 228.481 247 227.061C246.67 224.391 246.33 221.731 246 219.061C259.53 217.291 272.86 214.791 286 211.561C304.66 210.461 322.99 207.631 341 203.061Z" fill="#BA722D"/>
<path fill-rule="evenodd" clip-rule="evenodd" d="M124 208.061C126.36 207.901 128.69 208.061 131 208.561C139.33 213.391 147.66 218.221 156 223.061C163 224.391 170 224.391 177 223.061C196.96 221.741 216.96 220.901 237 220.561C239.71 220.161 242.37 219.661 245 219.061C245.33 219.061 245.67 219.061 246 219.061C246.33 221.731 246.67 224.391 247 227.061C230.34 226.341 213.67 226.171 197 226.561C187.53 229.051 178.53 232.721 170 237.561C166.35 240.881 163.02 244.541 160 248.561C160.23 248.961 160.56 249.131 161 249.061C158.06 251.491 155.23 254.161 152.5 257.061C151.25 259.571 150.75 262.241 151 265.061C140.55 263.011 130.55 259.511 121 254.561C116.47 251.201 112.47 247.361 109 243.061C103.33 230.241 105.99 219.401 117 210.561C119.15 209.151 121.48 208.321 124 208.061Z" fill="#C6864D"/>
<path fill-rule="evenodd" clip-rule="evenodd" d="M247 227.061C252.2 228.481 257.53 229.321 263 229.561C277.11 233.511 286.45 242.341 291 256.061C285.48 252.721 279.81 249.551 274 246.561C268.58 245.201 263.24 243.541 258 241.561C244.97 239.161 236.47 244.331 232.5 257.061C230.9 265.911 232.24 274.251 236.5 282.061C257.12 293.731 270.45 288.061 276.5 265.061C276.55 262.281 276.72 259.621 277 257.061C281.11 260.251 285.77 261.921 291 262.061C292.06 263.161 292.89 264.491 293.5 266.061C294 270.051 294.17 274.051 294 278.061C292.81 282.781 290.81 287.111 288 291.061C277.61 300.921 265.28 307.091 251 309.561C231.29 311.621 211.63 311.291 192 308.561C178.98 306.801 167.48 301.641 157.5 293.061C156.17 291.061 154.83 289.061 153.5 287.061C152.18 283.871 151.68 280.541 152 277.061C152.65 274.731 153.32 272.401 154 270.061C153.88 268.641 153.54 267.301 153 266.061C157.95 264.821 162.11 262.161 165.5 258.061C164.03 266.151 165.36 273.821 169.5 281.061C180.04 291.001 191.04 291.341 202.5 282.061C204.25 278.891 206.25 275.891 208.5 273.061C209.96 268.821 210.29 264.491 209.5 260.061C206.4 255.511 203.9 250.671 202 245.561C187.62 238.661 173.96 239.831 161 249.061C160.56 249.131 160.23 248.961 160 248.561C163.02 244.541 166.35 240.881 170 237.561C178.53 232.721 187.53 229.051 197 226.561C213.67 226.171 230.34 226.341 247 227.061Z" fill="#FCFBFA"/>
<path fill-rule="evenodd" clip-rule="evenodd" d="M371 218.061C374.19 228.131 374.69 238.461 372.5 249.061C369.47 255.311 364.64 259.311 358 261.061C353.79 260.901 349.63 261.231 345.5 262.061C334.81 265.271 323.97 267.941 313 270.061C313.77 264.761 314.11 259.431 314 254.061C319.57 252.701 325.24 251.871 331 251.561C333.22 249.841 335.55 248.341 338 247.061C344.47 245.361 350.81 243.191 357 240.561C367.16 236.411 371.82 228.911 371 218.061Z" fill="#FDDB9B"/>
<path fill-rule="evenodd" clip-rule="evenodd" d="M291 256.061C291.73 257.271 292.07 258.601 292 260.061C291.67 260.731 291.33 261.391 291 262.061C285.77 261.921 281.11 260.251 277 257.061C276.72 259.621 276.55 262.281 276.5 265.061C270.45 288.061 257.12 293.731 236.5 282.061C232.24 274.251 230.9 265.911 232.5 257.061C236.47 244.331 244.97 239.161 258 241.561C263.24 243.541 268.58 245.201 274 246.561C279.81 249.551 285.48 252.721 291 256.061Z" fill="#060606"/>
<path fill-rule="evenodd" clip-rule="evenodd" d="M153 266.061C152.33 265.731 151.67 265.391 151 265.061C150.75 262.241 151.25 259.571 152.5 257.061C155.23 254.161 158.06 251.491 161 249.061C173.96 239.831 187.62 238.661 202 245.561C203.9 250.671 206.4 255.511 209.5 260.061C210.29 264.491 209.96 268.821 208.5 273.061C206.25 275.891 204.25 278.891 202.5 282.061C191.04 291.341 180.04 291.001 169.5 281.061C165.36 273.821 164.03 266.151 165.5 258.061C162.11 262.161 157.95 264.821 153 266.061Z" fill="#060606"/>
<path fill-rule="evenodd" clip-rule="evenodd" d="M245 247.061C250.21 246.321 253.21 248.491 254 253.561C252.67 256.191 251.84 259.021 251.5 262.061C248.45 265.571 245.12 265.901 241.5 263.061C239.63 261.041 238.47 258.711 238 256.061C238.17 255.061 238.33 254.061 238.5 253.061C240.84 251.161 243 249.161 245 247.061Z" fill="#F3F3F3"/>
<path fill-rule="evenodd" clip-rule="evenodd" d="M109 243.061C112.47 247.361 116.47 251.201 121 254.561C130.55 259.511 140.55 263.011 151 265.061C151.67 265.391 152.33 265.731 153 266.061C153.54 267.301 153.88 268.641 154 270.061C153.32 272.401 152.65 274.731 152 277.061C145.21 274.251 138.55 274.581 132 278.061C130.8 274.731 128.47 272.231 125 270.561C121.52 266.111 117.68 261.941 113.5 258.061C110.91 253.381 109.41 248.381 109 243.061Z" fill="#FDDC9C"/>
<path fill-rule="evenodd" clip-rule="evenodd" d="M192 249.061C197.52 248.911 200.52 251.581 201 257.061C200.6 262.871 197.6 266.541 192 268.061C186.37 265.951 184.54 261.951 186.5 256.061C187.87 253.291 189.7 250.961 192 249.061Z" fill="#F5F5F5"/>
<path fill-rule="evenodd" clip-rule="evenodd" d="M314 254.061C314.11 259.431 313.77 264.761 313 270.061C311.71 269.821 310.71 270.161 310 271.061C305.04 271.991 300.04 272.651 295 273.061C295.28 274.971 294.95 276.641 294 278.061C294.17 274.051 294 270.051 293.5 266.061C292.89 264.491 292.06 263.161 291 262.061C291.33 261.391 291.67 260.731 292 260.061C292.69 258.711 293.69 257.541 295 256.561C301.49 256.481 307.82 255.651 314 254.061Z" fill="#D8A058"/>
<path fill-rule="evenodd" clip-rule="evenodd" d="M358 261.061C362.85 264.411 367.85 267.571 373 270.561C374.94 271.991 376.27 273.831 377 276.061C375.92 279.691 375.92 283.361 377 287.061C376.94 288.171 376.61 289.171 376 290.061C373.59 297.341 368.92 302.841 362 306.561C350.61 311.961 338.61 315.131 326 316.061C327.93 303.641 324.76 292.641 316.5 283.061C316.17 278.921 315.34 274.921 314 271.061C312.67 271.061 311.33 271.061 310 271.061C310.71 270.161 311.71 269.821 313 270.061C323.97 267.941 334.81 265.271 345.5 262.061C349.63 261.231 353.79 260.901 358 261.061Z" fill="#C7864C"/>
<path fill-rule="evenodd" clip-rule="evenodd" d="M310 271.061C311.33 271.061 312.67 271.061 314 271.061C315.34 274.921 316.17 278.921 316.5 283.061C324.76 292.641 327.93 303.641 326 316.061C325.33 316.391 324.67 316.731 324 317.061C313.33 319.071 302.66 321.071 292 323.061C287.06 312.951 285.73 302.281 288 291.061C290.81 287.111 292.81 282.781 294 278.061C294.95 276.641 295.28 274.971 295 273.061C300.04 272.651 305.04 271.991 310 271.061Z" fill="#B9712C"/>
<path fill-rule="evenodd" clip-rule="evenodd" d="M132.001 278.061C131.151 281.581 129.151 284.241 126.001 286.061C111.671 289.891 98.6706 296.391 87.0006 305.561C80.2306 311.271 76.9006 318.601 77.0006 327.561C77.6706 331.761 78.5106 335.931 79.5006 340.061C82.4706 344.531 85.6406 348.871 89.0006 353.061C93.1506 356.711 97.1506 360.541 101.001 364.561C122.221 375.791 144.561 384.121 168.001 389.561C198.911 393.421 229.911 395.921 261.001 397.061C288.441 397.201 315.771 395.701 343.001 392.561C354.881 388.821 366.881 385.491 379.001 382.561C387.161 377.481 395.821 373.481 405.001 370.561C417.851 359.971 423.691 346.471 422.501 330.061C415.841 313.731 404.671 301.571 389.001 293.561C385.501 290.731 382.001 287.891 378.501 285.061C378.221 285.981 377.721 286.641 377.001 287.061C375.921 283.361 375.921 279.691 377.001 276.061C379.761 274.581 382.421 274.751 385.001 276.561C393.821 283.141 402.821 289.471 412.001 295.561C420.681 304.081 427.521 313.921 432.501 325.061C434.051 331.981 434.381 338.981 433.501 346.061C430.401 353.601 426.731 360.931 422.501 368.061C414.271 375.251 405.771 382.091 397.001 388.561C373.831 395.611 350.501 402.281 327.001 408.561C281.341 410.451 235.671 410.121 190.001 407.561C173.761 404.281 157.431 401.941 141.001 400.561C127.371 393.631 113.711 386.631 100.001 379.561C96.6706 377.231 93.3306 374.891 90.0006 372.561C84.5206 365.081 78.3506 358.241 71.5006 352.061C70.8306 345.741 69.1706 339.741 66.5006 334.061C64.3206 318.251 69.4906 305.421 82.0006 295.561C95.8006 284.861 111.131 277.861 128.001 274.561C129.451 275.661 130.781 276.831 132.001 278.061Z" fill="#DFDFDF"/>
<path fill-rule="evenodd" clip-rule="evenodd" d="M152 277.061C151.68 280.541 152.18 283.871 153.5 287.061C154.83 289.061 156.17 291.061 157.5 293.061C167.48 301.641 178.98 306.801 192 308.561C211.63 311.291 231.29 311.621 251 309.561C265.28 307.091 277.61 300.921 288 291.061C285.73 302.281 287.06 312.951 292 323.061C291.33 323.061 291 323.391 291 324.061C259.59 329.451 227.93 331.951 196 331.561C176.7 327.731 157.37 324.231 138 321.061C135.59 319.861 133.59 318.191 132 316.061C132.16 314.031 132 312.031 131.5 310.061C129.74 308.171 128.24 306.171 127 304.061C124.86 298.161 124.52 292.161 126 286.061C129.15 284.241 131.15 281.581 132 278.061C138.55 274.581 145.21 274.251 152 277.061Z" fill="#C7874D"/>
<path fill-rule="evenodd" clip-rule="evenodd" d="M126 286.061C124.52 292.161 124.86 298.161 127 304.061C127.04 305.141 127.37 306.141 128 307.061C118.57 310.321 111.4 316.321 106.5 325.061C105.76 328.341 106.42 331.341 108.5 334.061C123.7 351.571 142.87 361.731 166 364.561C198.37 370.351 231.04 373.011 264 372.561C294.07 369.171 324.07 365.171 354 360.561C365.97 358.021 376.97 353.351 387 346.561C393.4 341.291 395.23 334.791 392.5 327.061C390.09 322.641 386.92 318.811 383 315.561C377.01 313.891 374.51 316.061 375.5 322.061C377.83 325.061 380.17 328.061 382.5 331.061C383.17 332.391 383.17 333.731 382.5 335.061C376.83 341.651 369.66 345.821 361 347.561C347.36 350.511 333.7 353.171 320 355.561C305.48 355.731 291.15 357.401 277 360.561C231.55 363.991 186.88 359.661 143 347.561C133.65 342.871 125.48 336.701 118.5 329.061C118.23 326.281 119.4 324.111 122 322.561C125.57 320.621 128.9 318.451 132 316.061C133.59 318.191 135.59 319.861 138 321.061C149.45 337.961 165.45 347.461 186 349.561C220.8 350.151 255.46 348.821 290 345.561C318.07 342.091 344.24 333.261 368.5 319.061C373.54 313.651 376.37 307.321 377 300.061C376.78 296.711 376.44 293.371 376 290.061C376.61 289.171 376.94 288.171 377 287.061C377.72 286.641 378.22 285.981 378.5 285.061C382 287.891 385.5 290.731 389 293.561C404.67 301.571 415.84 313.731 422.5 330.061C423.69 346.471 417.85 359.971 405 370.561C395.82 373.481 387.16 377.481 379 382.561C366.88 385.491 354.88 388.821 343 392.561C315.77 395.701 288.44 397.201 261 397.061C229.91 395.921 198.91 393.421 168 389.561C144.56 384.121 122.22 375.791 101 364.561C97.1502 360.541 93.1502 356.711 89.0002 353.061C85.6402 348.871 82.4702 344.531 79.5002 340.061C78.5102 335.931 77.6702 331.761 77.0002 327.561C76.9002 318.601 80.2302 311.271 87.0002 305.561C98.6702 296.391 111.67 289.891 126 286.061Z" fill="#FEFEFE"/>
<path fill-rule="evenodd" clip-rule="evenodd" d="M233 291.061C235.76 290.471 237.43 291.471 238 294.061C236.29 298.271 233.63 301.771 230 304.561C228.33 305.231 226.67 305.231 225 304.561C221.17 302.561 217.34 300.731 213.5 299.061C212.84 296.211 214.01 294.541 217 294.061C220.71 295.581 224.37 296.741 228 297.561C229.55 295.271 231.22 293.111 233 291.061Z" fill="#0C0C0C"/>
<path fill-rule="evenodd" clip-rule="evenodd" d="M376 290.061C376.44 293.371 376.78 296.711 377 300.061C376.37 307.321 373.54 313.651 368.5 319.061C344.24 333.261 318.07 342.091 290 345.561C255.46 348.821 220.8 350.151 186 349.561C165.45 347.461 149.45 337.961 138 321.061C157.37 324.231 176.7 327.731 196 331.561C227.93 331.951 259.59 329.451 291 324.061C293.72 326.281 296.39 328.781 299 331.561C301.95 332.371 304.61 333.701 307 335.561C312.11 336.641 316.27 335.141 319.5 331.061C321.31 326.461 322.81 321.791 324 317.061C324.67 316.731 325.33 316.391 326 316.061C338.61 315.131 350.61 311.961 362 306.561C368.92 302.841 373.59 297.341 376 290.061Z" fill="#FEDC9D"/>
<path fill-rule="evenodd" clip-rule="evenodd" d="M127 304.061C128.24 306.171 129.74 308.171 131.5 310.061C132 312.031 132.16 314.031 132 316.061C128.9 318.451 125.57 320.621 122 322.561C119.4 324.111 118.23 326.281 118.5 329.061C125.48 336.701 133.65 342.871 143 347.561C186.88 359.661 231.55 363.991 277 360.561C291.15 357.401 305.48 355.731 320 355.561C333.7 353.171 347.36 350.511 361 347.561C369.66 345.821 376.83 341.651 382.5 335.061C383.17 333.731 383.17 332.391 382.5 331.061C380.17 328.061 377.83 325.061 375.5 322.061C374.51 316.061 377.01 313.891 383 315.561C386.92 318.811 390.09 322.641 392.5 327.061C395.23 334.791 393.4 341.291 387 346.561C376.97 353.351 365.97 358.021 354 360.561C324.07 365.171 294.07 369.171 264 372.561C231.04 373.011 198.37 370.351 166 364.561C142.87 361.731 123.7 351.571 108.5 334.061C106.42 331.341 105.76 328.341 106.5 325.061C111.4 316.321 118.57 310.321 128 307.061C127.37 306.141 127.04 305.141 127 304.061Z" fill="#DFDFDF"/>
<path fill-rule="evenodd" clip-rule="evenodd" d="M324 317.061C322.81 321.791 321.31 326.461 319.5 331.061C316.27 335.141 312.11 336.641 307 335.561C304.61 333.701 301.95 332.371 299 331.561C296.39 328.781 293.72 326.281 291 324.061C291 323.391 291.33 323.061 292 323.061C302.66 321.071 313.33 319.071 324 317.061Z" fill="#D9A158"/>
</svg>
