<svg width="500" height="500" viewBox="0 0 500 500" fill="none" xmlns="http://www.w3.org/2000/svg">
<path fill-rule="evenodd" clip-rule="evenodd" d="M299 149.062C301.1 152.932 303.43 156.602 306 160.062C305.46 160.122 305.12 160.452 305 161.062C308.65 167.362 311.98 173.702 315 180.062C314.04 181.822 313.71 183.822 314 186.062C320.19 185.742 326.19 186.072 332 187.062C326 187.062 320 187.062 314 187.062C313.87 189.112 314.53 190.782 316 192.062C314.67 192.062 313.33 192.062 312 192.062C311.85 193.112 312.02 194.112 312.5 195.062C316.27 196.942 317.61 199.942 316.5 204.062C312.26 210.802 306.43 215.472 299 218.062C302.64 206.732 303.98 195.062 303 183.062C305.92 182.402 306.59 180.732 305 178.062C302.72 177.422 300.72 176.422 299 175.062C299.88 175.192 300.54 174.862 301 174.062C294.28 157.192 282.95 144.692 267 136.562C246.79 132.342 228.79 136.672 213 149.562C191.74 167.972 186.9 190.132 198.5 216.062C198.83 215.062 199.17 214.062 199.5 213.062C202.46 209.422 205.63 206.092 209 203.062C213.93 213.022 221.6 216.022 232 212.062C231.35 222.872 225.52 228.542 214.5 229.062C210.3 228.132 206.64 226.132 203.5 223.062C204.66 228.162 207.49 232.322 212 235.562C213.96 236.512 215.62 237.852 217 239.562C218.63 240.052 220.3 240.222 222 240.062C213.55 241.862 204.88 242.362 196 241.562C193.98 238.382 193.48 234.882 194.5 231.062C196.09 228.222 197.92 225.552 200 223.062C196.41 220.372 193.41 221.042 191 225.062C189.76 220.572 187.93 216.242 185.5 212.062C185.02 208.032 184.35 204.032 183.5 200.062C179.75 201.052 175.92 201.722 172 202.062C175.3 200.652 178.8 199.652 182.5 199.062C183.31 194.872 183.15 190.872 182 187.062C182.28 186.272 182.78 185.602 183.5 185.062C183.01 174.372 186.17 165.042 193 157.062C196.03 153.372 199.36 150.032 203 147.062C220.97 131.352 241.97 124.522 266 126.562C279.43 130.602 290.43 138.102 299 149.062Z" fill="#E5C9C4"/>
<path fill-rule="evenodd" clip-rule="evenodd" d="M299 175.062C289.06 171.162 278.73 169.662 268 170.562C260.98 176.462 258.48 183.962 260.5 193.062C261.14 199.192 264.31 203.352 270 205.562C277.32 207.152 283.82 205.652 289.5 201.062C293.31 194.462 295.15 187.462 295 180.062C297.69 181.312 300.36 182.312 303 183.062C303.98 195.062 302.64 206.732 299 218.062C297.3 220.002 295.13 221.332 292.5 222.062C290.62 220.552 288.45 219.882 286 220.062C286.7 223.452 286.7 226.782 286 230.062C286.02 232.082 287.02 233.082 289 233.062C286.5 236.392 283.5 239.232 280 241.562C269.01 245.612 257.67 248.112 246 249.062C240.52 248.542 235.19 247.382 230 245.562C230.56 245.182 230.89 244.682 231 244.062C236.19 243.302 241.35 242.972 246.5 243.062C247.17 242.392 247.17 241.732 246.5 241.062C244.06 239.002 242.22 236.502 241 233.562C238.01 232.712 236.68 233.882 237 237.062C231.96 237.852 226.96 238.852 222 240.062C220.3 240.222 218.63 240.052 217 239.562C215.62 237.852 213.96 236.512 212 235.562C207.49 232.322 204.66 228.162 203.5 223.062C206.64 226.132 210.3 228.132 214.5 229.062C225.52 228.542 231.35 222.872 232 212.062C239.53 206.672 243.03 199.332 242.5 190.062C240.06 187.512 238.39 184.512 237.5 181.062C235.77 178.942 233.6 177.442 231 176.562C215.32 174.902 203.66 180.902 196 194.562C196.65 196.002 196.98 197.502 197 199.062C198.37 199.222 199.71 199.052 201 198.562C203.05 195.972 205.22 193.472 207.5 191.062C207.89 192.742 207.73 194.412 207 196.062C207.67 198.412 208.34 200.742 209 203.062C205.63 206.092 202.46 209.422 199.5 213.062C199.17 214.062 198.83 215.062 198.5 216.062C186.9 190.132 191.74 167.972 213 149.562C228.79 136.672 246.79 132.342 267 136.562C282.95 144.692 294.28 157.192 301 174.062C300.54 174.862 299.88 175.192 299 175.062Z" fill="#FAF8F8"/>
<path fill-rule="evenodd" clip-rule="evenodd" d="M203 147.062C199.36 150.032 196.03 153.372 193 157.062C190.28 156.962 187.61 157.292 185 158.062C170.73 150.082 155.39 146.582 139 147.562C122.07 152.502 110.24 163.002 103.5 179.062C102.34 182.682 101.34 186.352 100.5 190.062C95.7703 197.132 91.4303 204.472 87.5003 212.062C86.1803 218.082 87.6803 223.252 92.0003 227.562C95.5303 229.112 99.0303 230.612 102.5 232.062C105.62 238.142 109.12 243.982 113 249.562C115.23 250.122 117.23 251.122 119 252.562C121.21 253.352 123.21 253.182 125 252.062C136.96 253.032 147.62 257.372 157 265.062C155.9 266.162 155.74 267.492 156.5 269.062C161.06 276.342 166.23 283.182 172 289.562C180.23 291.202 188.56 292.362 197 293.062C200.46 297.812 203.79 302.642 207 307.562C210.08 309.332 213.41 310.502 217 311.062C221.67 309.232 226.33 307.392 231 305.562C235.05 301.182 238.71 296.512 242 291.562C246.11 288.172 250.78 285.842 256 284.562C275.67 280.512 295.67 278.852 316 279.562C329.56 275.042 342.56 269.382 355 262.562C363.74 253.492 373.41 245.492 384 238.562C399.01 233.912 413.34 227.912 427 220.562C440.72 203.282 437.06 191.282 416 184.562C405.02 183.522 394.02 182.852 383 182.562C370.66 180.642 358.32 178.642 346 176.562C343.55 174.682 341.55 172.352 340 169.562C329.34 164.172 318.01 161.002 306 160.062C303.43 156.602 301.1 152.932 299 149.062C307.46 149.772 315.46 152.102 323 156.062C323.67 155.732 324.33 155.392 325 155.062C330.74 157.972 336.07 161.472 341 165.562C361.11 170.112 381.44 173.112 402 174.562C414.87 179.262 427.87 180.092 441 177.062C444.84 176.812 448.17 177.982 451 180.562C453.63 184.642 456.13 188.812 458.5 193.062C460.13 200.302 457.97 206.132 452 210.562C445.46 215.282 439.79 220.952 435 227.562C425.78 233.512 417.78 240.852 411 249.562C411.56 249.942 411.89 250.442 412 251.062C409.17 250.982 406.51 250.312 404 249.062C401.97 248.902 399.97 249.062 398 249.562C397.44 249.942 397.11 250.442 397 251.062C396.67 251.062 396.33 251.062 396 251.062C366.24 260.782 338.57 274.442 313 292.062C308.32 293.742 305.99 297.082 306 302.062C298.06 303.652 290.39 306.152 283 309.562C266.74 316.362 250.74 323.692 235 331.562C227.36 332.712 219.69 333.052 212 332.562C209.3 327.842 205.8 327.012 201.5 330.062C197.66 327.542 193.82 325.042 190 322.562C173.61 322.652 158.61 318.322 145 309.562C135.81 301.042 128.14 291.382 122 280.562C108.56 275.992 96.7203 268.822 86.5003 259.062C84.3303 253.442 82.8303 247.782 82.0003 242.062C81.2603 234.602 79.7603 227.272 77.5003 220.062C74.6503 204.332 77.6503 189.992 86.5003 177.062C89.2903 173.672 92.6203 171.012 96.5003 169.062C100.33 164.562 103.33 159.562 105.5 154.062C112.62 148.922 120.12 144.422 128 140.562C141.69 138.232 155.02 139.562 168 144.562C179.78 144.532 191.44 145.372 203 147.062Z" fill="#676767"/>
<path fill-rule="evenodd" clip-rule="evenodd" d="M193.001 157.062C186.171 165.042 183.011 174.372 183.501 185.062C182.781 185.602 182.281 186.272 182.001 187.062C179.941 191.062 176.611 193.562 172.001 194.562C165.871 201.462 158.201 205.462 149.001 206.562C142.231 211.372 135.731 216.532 129.501 222.062C127.241 227.512 124.241 232.512 120.501 237.062C119.101 243.012 120.601 248.012 125.001 252.062C123.211 253.182 121.211 253.352 119.001 252.562C117.231 251.122 115.231 250.122 113.001 249.562C109.121 243.982 105.621 238.142 102.501 232.062C99.0305 230.612 95.5305 229.112 92.0005 227.562C87.6805 223.252 86.1805 218.082 87.5005 212.062C91.4305 204.472 95.7705 197.132 100.501 190.062C101.341 186.352 102.341 182.682 103.501 179.062C110.241 163.002 122.071 152.502 139.001 147.562C155.391 146.582 170.731 150.082 185.001 158.062C187.611 157.292 190.281 156.962 193.001 157.062Z" fill="#E2E0D9"/>
<path fill-rule="evenodd" clip-rule="evenodd" d="M298.999 175.062C300.719 176.422 302.719 177.422 304.999 178.062C306.589 180.732 305.919 182.402 302.999 183.062C300.359 182.312 297.689 181.312 294.999 180.062C295.149 187.462 293.309 194.462 289.499 201.062C283.819 205.652 277.319 207.152 269.999 205.562C264.309 203.352 261.139 199.192 260.499 193.062C258.479 183.962 260.979 176.462 267.999 170.562C278.729 169.662 289.059 171.162 298.999 175.062Z" fill="#060606"/>
<path fill-rule="evenodd" clip-rule="evenodd" d="M269 175.062C271.54 174.662 273.71 175.332 275.5 177.062C276.06 181.242 275.23 185.072 273 188.562C266.34 188.902 263.51 185.732 264.5 179.062C266.49 178.232 267.99 176.902 269 175.062Z" fill="#F2F2F2"/>
<path fill-rule="evenodd" clip-rule="evenodd" d="M232 212.062C221.6 216.022 213.93 213.022 209 203.062C208.34 200.742 207.67 198.412 207 196.062C207.73 194.412 207.89 192.742 207.5 191.062C205.22 193.472 203.05 195.972 201 198.562C199.71 199.052 198.37 199.222 197 199.062C196.98 197.502 196.65 196.002 196 194.562C203.66 180.902 215.32 174.902 231 176.562C233.6 177.442 235.77 178.942 237.5 181.062C238.39 184.512 240.06 187.512 242.5 190.062C243.03 199.332 239.53 206.672 232 212.062Z" fill="#0A0909"/>
<path fill-rule="evenodd" clip-rule="evenodd" d="M227 182.062C234.97 182.552 237.13 186.552 233.5 194.062C228.08 198.542 224.58 197.212 223 190.062C223.39 186.862 224.73 184.192 227 182.062Z" fill="#F2F2F2"/>
<path fill-rule="evenodd" clip-rule="evenodd" d="M315 180.062C316.92 180.352 318.59 181.192 320 182.562C336.34 181.652 352.68 181.982 369 183.562C371.8 184.182 374.14 185.342 376 187.062C361.47 188.352 346.81 188.352 332 187.062C326.19 186.072 320.19 185.742 314 186.062C313.71 183.822 314.04 181.822 315 180.062Z" fill="#3A3936"/>
<path fill-rule="evenodd" clip-rule="evenodd" d="M394 192.062C393.22 196.162 394.38 199.492 397.5 202.062C398.54 207.002 397.87 211.672 395.5 216.062C390.77 220.962 385.94 225.622 381 230.062C376.21 233.012 371.55 236.172 367 239.562C361.31 241.402 355.98 243.902 351 247.062C349.48 245.832 347.82 245.832 346 247.062C333.46 254.492 320.8 261.662 308 268.562C298.01 270.132 288.01 270.462 278 269.562C261.81 274.142 245.48 278.472 229 282.562C223.33 283.232 217.67 283.232 212 282.562C211.33 281.892 210.67 281.232 210 280.562C191.23 280.082 174.56 274.082 160 262.562C141.44 244.312 141.77 226.312 161 208.562C164.52 206.112 168.19 203.952 172 202.062C175.92 201.722 179.75 201.052 183.5 200.062C184.35 204.032 185.02 208.032 185.5 212.062C187.93 216.242 189.76 220.572 191 225.062C188.17 229.982 187.33 235.322 188.5 241.062C191.56 244.472 195.4 246.472 200 247.062C211 248.212 221.33 251.712 231 257.562C253.56 262.202 273.89 257.532 292 243.562C296.5 238.392 301 233.232 305.5 228.062C307.24 225.252 308.41 222.252 309 219.062C318.66 214.412 322.49 206.752 320.5 196.062C319.29 194.382 317.79 193.042 316 192.062C314.53 190.782 313.87 189.112 314 187.062C320 187.062 326 187.062 332 187.062C346.81 188.352 361.47 188.352 376 187.062C377.38 185.952 379.05 185.282 381 185.062C384.35 185.452 387.68 185.952 391 186.562C391.73 188.622 392.73 190.452 394 192.062Z" fill="#F3DACB"/>
<path fill-rule="evenodd" clip-rule="evenodd" d="M306.001 160.062C318.011 161.002 329.341 164.172 340.001 169.562C341.551 172.352 343.551 174.682 346.001 176.562C358.321 178.642 370.661 180.642 383.001 182.562C394.021 182.852 405.021 183.522 416.001 184.562C437.061 191.282 440.721 203.282 427.001 220.562C413.341 227.912 399.011 233.912 384.001 238.562C373.411 245.492 363.741 253.492 355.001 262.562C342.561 269.382 329.561 275.042 316.001 279.562C295.671 278.852 275.671 280.512 256.001 284.562C250.781 285.842 246.111 288.172 242.001 291.562C238.711 296.512 235.051 301.182 231.001 305.562C226.331 307.392 221.671 309.232 217.001 311.062C213.411 310.502 210.081 309.332 207.001 307.562C203.791 302.642 200.461 297.812 197.001 293.062C188.561 292.362 180.231 291.202 172.001 289.562C166.231 283.182 161.061 276.342 156.501 269.062C155.741 267.492 155.901 266.162 157.001 265.062C163.461 271.022 169.801 277.192 176.001 283.562C177.331 284.232 178.671 284.892 180.001 285.562C187.271 286.742 194.601 287.412 202.001 287.562C204.001 289.232 206.001 290.892 208.001 292.562C213.951 293.892 219.951 294.222 226.001 293.562C239.421 287.642 253.091 282.312 267.001 277.562C283.991 276.932 300.661 274.262 317.001 269.562C328.841 262.812 340.181 255.312 351.001 247.062C355.981 243.902 361.311 241.402 367.001 239.562C371.551 236.172 376.211 233.012 381.001 230.062C388.531 230.532 394.531 227.532 399.001 221.062C410.061 216.932 413.561 209.262 409.501 198.062C405.231 193.802 400.061 191.802 394.001 192.062C392.731 190.452 391.731 188.622 391.001 186.562C387.681 185.952 384.351 185.452 381.001 185.062C379.051 185.282 377.381 185.952 376.001 187.062C374.141 185.342 371.801 184.182 369.001 183.562C352.681 181.982 336.341 181.652 320.001 182.562C318.591 181.192 316.921 180.352 315.001 180.062C311.981 173.702 308.651 167.362 305.001 161.062C305.121 160.452 305.461 160.122 306.001 160.062Z" fill="#E0DED7"/>
<path fill-rule="evenodd" clip-rule="evenodd" d="M316 192.062C317.79 193.042 319.29 194.382 320.5 196.062C322.49 206.752 318.66 214.412 309 219.062C301.16 222.292 294.49 226.962 289 233.062C287.02 233.082 286.02 232.082 286 230.062C286.7 226.782 286.7 223.452 286 220.062C288.45 219.882 290.62 220.552 292.5 222.062C295.13 221.332 297.3 220.002 299 218.062C306.43 215.472 312.26 210.802 316.5 204.062C317.61 199.942 316.27 196.942 312.5 195.062C312.02 194.112 311.85 193.112 312 192.062C313.33 192.062 314.67 192.062 316 192.062Z" fill="#0F0D0D"/>
<path fill-rule="evenodd" clip-rule="evenodd" d="M394 192.062C400.06 191.802 405.23 193.802 409.5 198.062C413.56 209.262 410.06 216.932 399 221.062C394.53 227.532 388.53 230.532 381 230.062C385.94 225.622 390.77 220.962 395.5 216.062C397.87 211.672 398.54 207.002 397.5 202.062C394.38 199.492 393.22 196.162 394 192.062Z" fill="#383635"/>
<path fill-rule="evenodd" clip-rule="evenodd" d="M182 187.062C183.15 190.872 183.31 194.872 182.5 199.062C178.8 199.652 175.3 200.652 172 202.062C168.19 203.952 164.52 206.112 161 208.562C141.77 226.312 141.44 244.312 160 262.562C174.56 274.082 191.23 280.082 210 280.562C210.67 281.232 211.33 281.892 212 282.562C217.67 283.232 223.33 283.232 229 282.562C245.48 278.472 261.81 274.142 278 269.562C288.01 270.462 298.01 270.132 308 268.562C320.8 261.662 333.46 254.492 346 247.062C347.82 245.832 349.48 245.832 351 247.062C340.18 255.312 328.84 262.812 317 269.562C300.66 274.262 283.99 276.932 267 277.562C253.09 282.312 239.42 287.642 226 293.562C219.95 294.222 213.95 293.892 208 292.562C206 290.892 204 289.232 202 287.562C194.6 287.412 187.27 286.742 180 285.562C178.67 284.892 177.33 284.232 176 283.562C169.8 277.192 163.46 271.022 157 265.062C147.62 257.372 136.96 253.032 125 252.062C120.6 248.012 119.1 243.012 120.5 237.062C124.24 232.512 127.24 227.512 129.5 222.062C135.73 216.532 142.23 211.372 149 206.562C158.2 205.462 165.87 201.462 172 194.562C176.61 193.562 179.94 191.062 182 187.062Z" fill="#363534"/>
<path fill-rule="evenodd" clip-rule="evenodd" d="M263.001 210.062C265.451 209.572 267.121 210.402 268.001 212.562C264.101 223.132 257.601 224.972 248.501 218.062C248.321 215.732 249.481 214.402 252.001 214.062C257.581 217.692 261.241 216.352 263.001 210.062Z" fill="#181818"/>
<path fill-rule="evenodd" clip-rule="evenodd" d="M222 240.062C226.96 238.852 231.96 237.852 237 237.062C236.68 233.882 238.01 232.712 241 233.562C242.22 236.502 244.06 239.002 246.5 241.062C247.17 241.732 247.17 242.392 246.5 243.062C241.35 242.972 236.19 243.302 231 244.062C220.77 246.042 210.43 247.042 200 247.062C195.4 246.472 191.56 244.472 188.5 241.062C187.33 235.322 188.17 229.982 191 225.062C193.41 221.042 196.41 220.372 200 223.062C197.92 225.552 196.09 228.222 194.5 231.062C193.48 234.882 193.98 238.382 196 241.562C204.88 242.362 213.55 241.862 222 240.062Z" fill="#0E0D0D"/>
<path fill-rule="evenodd" clip-rule="evenodd" d="M309 219.062C308.41 222.252 307.24 225.252 305.5 228.062C301 233.232 296.5 238.392 292 243.562C273.89 257.532 253.56 262.202 231 257.562C221.33 251.712 211 248.212 200 247.062C210.43 247.042 220.77 246.042 231 244.062C230.89 244.682 230.56 245.182 230 245.562C235.19 247.382 240.52 248.542 246 249.062C257.67 248.112 269.01 245.612 280 241.562C283.5 239.232 286.5 236.392 289 233.062C294.49 226.962 301.16 222.292 309 219.062Z" fill="#E4C7C2"/>
<path fill-rule="evenodd" clip-rule="evenodd" d="M81.9997 242.062C82.8297 247.782 84.3297 253.442 86.4997 259.062C96.7197 268.822 108.56 275.992 122 280.562C128.14 291.382 135.81 301.042 145 309.562C158.61 318.322 173.61 322.652 190 322.562C193.82 325.042 197.66 327.542 201.5 330.062C205.8 327.012 209.3 327.842 212 332.562C219.69 333.052 227.36 332.712 235 331.562C250.74 323.692 266.74 316.362 283 309.562C290.39 306.152 298.06 303.652 306 302.062C309.48 305.002 311.98 308.672 313.5 313.062C321.89 322.832 332.06 330.002 344 334.562C362.92 336.042 380.59 332.042 397 322.562C402.58 317.652 407.41 312.152 411.5 306.062C417.02 289.072 418.69 271.742 416.5 254.062C415.78 253.522 415.28 252.852 415 252.062C417.77 251.982 420.44 252.482 423 253.562C429.67 257.562 436.33 261.562 443 265.562C457.76 275.272 462.93 288.772 458.5 306.062C455.71 318.472 448.88 327.972 438 334.562C419.34 343.722 400.34 352.062 381 359.562C370.76 362.302 360.43 364.642 350 366.562C315.93 367.572 281.93 369.572 248 372.562C226.99 373.202 205.99 372.872 185 371.562C168.76 368.802 152.43 366.802 136 365.562C117.59 361.292 100.59 353.962 84.9997 343.562C82.6697 341.232 80.3297 338.892 77.9997 336.562C66.8397 331.232 56.9997 324.062 48.4997 315.062C41.2997 301.862 38.6397 287.862 40.4997 273.062C42.5497 267.462 45.7097 262.622 49.9997 258.562C60.5997 252.762 71.2697 247.262 81.9997 242.062Z" fill="#FAFAFA"/>
<path fill-rule="evenodd" clip-rule="evenodd" d="M404 249.062C406.51 250.312 409.17 250.982 412 251.062C413.11 251.122 414.11 251.452 415 252.062C415.28 252.852 415.78 253.522 416.5 254.062C418.69 271.742 417.02 289.072 411.5 306.062C407.41 312.152 402.58 317.652 397 322.562C380.59 332.042 362.92 336.042 344 334.562C332.06 330.002 321.89 322.832 313.5 313.062C311.98 308.672 309.48 305.002 306 302.062C305.99 297.082 308.32 293.742 313 292.062C312.89 297.002 314.89 300.832 319 303.562C328.43 310.112 338.76 314.772 350 317.562C371.5 320.292 388.33 312.792 400.5 295.062C402.67 287.372 405.01 279.702 407.5 272.062C407.82 267.542 408.32 263.042 409 258.562C408.58 256.382 408.08 254.212 407.5 252.062C405.98 251.402 404.81 250.402 404 249.062Z" fill="#FECB33"/>
<path fill-rule="evenodd" clip-rule="evenodd" d="M404 249.062C404.81 250.402 405.98 251.402 407.5 252.062C408.08 254.212 408.58 256.382 409 258.562C408.32 263.042 407.82 267.542 407.5 272.062C405.01 279.702 402.67 287.372 400.5 295.062C388.33 312.792 371.5 320.292 350 317.562C338.76 314.772 328.43 310.112 319 303.562C314.89 300.832 312.89 297.002 313 292.062C338.57 274.442 366.24 260.782 396 251.062C393.74 254.692 390.4 256.532 386 256.562C383.16 258.312 382.49 260.652 384 263.562C387.95 264.882 391.95 265.552 396 265.562C400.59 261.832 402.26 257.162 401 251.562C399.71 251.072 398.37 250.902 397 251.062C397.11 250.442 397.44 249.942 398 249.562C399.97 249.062 401.97 248.902 404 249.062Z" fill="#FAF9F0"/>
<path fill-rule="evenodd" clip-rule="evenodd" d="M396 251.062C396.33 251.062 396.67 251.062 397 251.062C398.37 250.902 399.71 251.072 401 251.562C402.26 257.162 400.59 261.832 396 265.562C391.95 265.552 387.95 264.882 384 263.562C382.49 260.652 383.16 258.312 386 256.562C390.4 256.532 393.74 254.692 396 251.062Z" fill="#F7EB16"/>
<path fill-rule="evenodd" clip-rule="evenodd" d="M371 263.062C379.8 264.832 388.47 267.002 397 269.562C399.68 275.742 399.52 281.912 396.5 288.062C391.55 292.172 386.71 292.002 382 287.562C378.81 284.372 375.64 281.202 372.5 278.062C371.83 278.732 371.83 279.392 372.5 280.062C376.74 285.242 381.4 289.912 386.5 294.062C387.17 296.062 387.17 298.062 386.5 300.062C381.64 306.132 375.47 309.792 368 311.062C366.73 310.992 365.56 310.662 364.5 310.062C362.64 299.092 360.14 288.262 357 277.562C358.43 265.972 362.26 265.142 368.5 275.062C368.5 271.732 368.5 268.392 368.5 265.062C369.49 264.492 370.33 263.832 371 263.062Z" fill="#F7EB14"/>
<path fill-rule="evenodd" clip-rule="evenodd" d="M348 275.062C353.04 274.592 355.87 276.922 356.5 282.062C358.35 290.832 360.52 299.502 363 308.062C362.78 310.622 361.44 312.282 359 313.062C355.39 312.302 351.72 311.802 348 311.562C345.03 310.802 342.53 309.302 340.5 307.062C340.78 297.192 342.44 287.522 345.5 278.062C346.54 277.192 347.38 276.192 348 275.062Z" fill="#F7EB14"/>
<path fill-rule="evenodd" clip-rule="evenodd" d="M337 279.062C339.85 278.912 341.52 280.252 342 283.062C340.5 290.092 339 297.092 337.5 304.062C333.76 305.192 329.92 305.352 326 304.562C323.54 302.852 320.88 301.522 318 300.562C316.53 298.162 315.7 295.662 315.5 293.062C322.3 287.742 329.47 283.082 337 279.062Z" fill="#F7EB13"/>
</svg>
