<svg width="500" height="500" viewBox="0 0 500 500" fill="none" xmlns="http://www.w3.org/2000/svg">
<path fill-rule="evenodd" clip-rule="evenodd" d="M122 63.0621C128.91 62.7821 134.91 64.9521 140 69.5621C144.6 74.1621 148.44 79.3321 151.5 85.0621C154.17 87.7221 157.34 89.5621 161 90.5621C164.04 94.6921 163.04 97.6921 158 99.5621C146.58 99.7721 137.41 95.2721 130.5 86.0621C131.79 99.9621 132.12 113.962 131.5 128.062C128.36 135.202 123.19 140.372 116 143.562C102.89 147.672 94.89 143.012 92 129.562C94.36 116.032 102.36 109.872 116 111.062C115.83 97.7221 116 84.3921 116.5 71.0621C118.55 68.5121 120.39 65.8521 122 63.0621Z" fill="#4BB2FD"/>
<path fill-rule="evenodd" clip-rule="evenodd" d="M347 333.062C339.38 326.502 333.71 318.502 330 309.062C328.12 302.592 325.95 296.262 323.5 290.062C322.36 283.442 321.86 276.772 322 270.062C322.98 266.602 323.31 262.932 323 259.062C324.77 244.512 331.44 232.852 343 224.062C337.41 215.632 331.24 207.632 324.5 200.062C313.09 195.422 301.93 190.252 291 184.562C265.61 178.302 239.94 177.302 214 181.562C196.06 185.842 181.56 195.342 170.5 210.062C161.54 221.652 155.54 234.652 152.5 249.062C151.7 252.262 151.86 255.262 153 258.062C151.37 260.192 149.54 262.192 147.5 264.062C146.72 267.322 146.88 270.492 148 273.562C149.63 274.052 151.3 274.222 153 274.062C154.39 288.532 157.39 302.532 162 316.062C163.41 319.882 165.08 323.542 167 327.062C163.2 333.402 157.86 334.902 151 331.562C136.99 319.712 129.16 304.542 127.5 286.062C126.65 270.002 127.31 254.002 129.5 238.062C132.35 227.892 138.18 220.062 147 214.562C150.33 214.232 153.67 213.892 157 213.562C166.39 194.512 179.72 178.842 197 166.562C220.01 153.492 244.68 149.152 271 153.562C279.37 154.972 287.7 156.632 296 158.562C305.78 163.122 315.78 167.122 326 170.562C338.97 176.862 349.47 186.032 357.5 198.062C361.9 204.132 365.9 210.462 369.5 217.062C383.33 224.562 393.33 235.562 399.5 250.062C406.93 264.682 408.93 280.012 405.5 296.062C397.24 313.662 384.74 327.492 368 337.562C360.14 339.352 353.14 337.852 347 333.062Z" fill="#515151"/>
<path fill-rule="evenodd" clip-rule="evenodd" d="M114 158.062C116.22 157.742 118.06 158.402 119.5 160.062C119.84 168.082 120.34 176.082 121 184.062C124.02 183.902 127.02 184.062 130 184.562C132.83 186.732 135.67 188.892 138.5 191.062C138.68 197.202 136.84 202.702 133 207.562C130.47 208.462 128.31 207.962 126.5 206.062C125.96 202.692 126.12 199.362 127 196.062C124.97 196.222 122.97 196.062 121 195.562C118.14 193.732 115.64 191.562 113.5 189.062C112.34 182.122 111.5 175.122 111 168.062C111.25 164.412 112.25 161.082 114 158.062Z" fill="#050607"/>
<path fill-rule="evenodd" clip-rule="evenodd" d="M323.001 259.062C319.421 255.992 315.421 253.492 311.001 251.562C303.391 249.252 295.731 246.912 288.001 244.562C269.471 240.892 257.971 248.392 253.501 267.062C252.231 276.782 253.561 286.112 257.501 295.062C262.831 300.642 269.331 303.972 277.001 305.062C279.401 324.942 290.401 332.442 310.001 327.562C313.961 325.572 317.961 323.572 322.001 321.562C326.111 318.132 328.781 313.972 330.001 309.062C333.711 318.502 339.381 326.502 347.001 333.062C344.821 336.402 341.821 338.902 338.001 340.562C329.191 344.972 320.191 348.802 311.001 352.062C310.671 353.062 310.331 354.062 310.001 355.062C315.071 371.262 319.571 387.602 323.501 404.062C325.451 416.342 320.951 425.172 310.001 430.562C304.671 432.232 299.331 433.892 294.001 435.562C280.561 437.422 269.401 433.262 260.501 423.062C258.201 415.412 260.361 409.582 267.001 405.562C275.661 405.062 284.331 404.892 293.001 405.062C292.231 394.322 289.731 383.982 285.501 374.062C284.561 369.402 283.721 364.732 283.001 360.062C270.421 362.122 257.751 363.462 245.001 364.062C242.051 372.622 238.551 380.962 234.501 389.062C232.501 395.732 230.501 402.392 228.501 409.062C226.901 414.092 224.401 418.592 221.001 422.562C217.061 424.542 212.891 425.712 208.501 426.062C202.161 424.182 195.661 423.022 189.001 422.562C174.021 419.272 167.191 410.112 168.501 395.062C171.231 389.652 175.561 386.652 181.501 386.062C188.361 388.152 195.191 389.982 202.001 391.562C206.521 379.842 211.861 368.512 218.001 357.562C198.451 351.462 181.451 341.292 167.001 327.062C165.081 323.542 163.411 319.882 162.001 316.062C161.871 315.322 162.041 314.652 162.501 314.062C168.001 318.232 173.501 322.392 179.001 326.562C186.661 329.052 193.991 328.382 201.001 324.562C203.831 321.062 206.671 317.562 209.501 314.062C210.521 309.432 210.021 305.102 208.001 301.062C216.491 294.402 222.161 285.902 225.001 275.562C224.911 269.222 222.741 263.722 218.501 259.062C217.301 249.532 211.801 244.362 202.001 243.562C183.191 240.312 166.861 245.142 153.001 258.062C151.861 255.262 151.701 252.262 152.501 249.062C155.541 234.652 161.541 221.652 170.501 210.062C181.561 195.342 196.061 185.842 214.001 181.562C239.941 177.302 265.611 178.302 291.001 184.562C301.931 190.252 313.091 195.422 324.501 200.062C331.241 207.632 337.411 215.632 343.001 224.062C331.441 232.852 324.771 244.512 323.001 259.062Z" fill="#FDFDFD"/>
<path fill-rule="evenodd" clip-rule="evenodd" d="M208 301.062C182.87 309.982 168.2 301.152 164 274.562C164.76 271.032 165.26 267.532 165.5 264.062C161.46 267.612 157.29 270.942 153 274.062C151.3 274.222 149.63 274.052 148 273.562C146.88 270.492 146.72 267.322 147.5 264.062C149.54 262.192 151.37 260.192 153 258.062C166.86 245.142 183.19 240.312 202 243.562C211.8 244.362 217.3 249.532 218.5 259.062C222.74 263.722 224.91 269.222 225 275.562C222.16 285.902 216.49 294.402 208 301.062Z" fill="#040404"/>
<path fill-rule="evenodd" clip-rule="evenodd" d="M323 259.062C323.31 262.932 322.98 266.602 322 270.062C318.78 268.852 315.78 267.182 313 265.062C312.4 278.692 307.4 290.532 298 300.562C291.66 304.692 284.66 306.192 277 305.062C269.33 303.972 262.83 300.642 257.5 295.062C253.56 286.112 252.23 276.782 253.5 267.062C257.97 248.392 269.47 240.892 288 244.562C295.73 246.912 303.39 249.252 311 251.562C315.42 253.492 319.42 255.992 323 259.062Z" fill="#040404"/>
<path fill-rule="evenodd" clip-rule="evenodd" d="M272 251.062C280.2 251.092 283.36 255.092 281.5 263.062C281.17 272.722 276.34 276.222 267 273.562C262.54 270.132 260.7 265.632 261.5 260.062C262.41 259.232 263.08 258.232 263.5 257.062C266.77 255.612 269.6 253.612 272 251.062Z" fill="#F6F6F6"/>
<path fill-rule="evenodd" clip-rule="evenodd" d="M201 253.062C210.96 253.202 214.8 258.202 212.5 268.062C211.17 270.062 209.83 272.062 208.5 274.062C199.1 280.282 193.6 277.612 192 266.062C193.28 260.492 196.28 256.162 201 253.062Z" fill="#F4F4F4"/>
<path fill-rule="evenodd" clip-rule="evenodd" d="M208 301.062C210.02 305.102 210.52 309.432 209.5 314.062C206.67 317.562 203.83 321.062 201 324.562C193.99 328.382 186.66 329.052 179 326.562C173.5 322.392 168 318.232 162.5 314.062C162.04 314.652 161.87 315.322 162 316.062C157.39 302.532 154.39 288.532 153 274.062C157.29 270.942 161.46 267.612 165.5 264.062C165.26 267.532 164.76 271.032 164 274.562C168.2 301.152 182.87 309.982 208 301.062Z" fill="#FCECEC"/>
<path fill-rule="evenodd" clip-rule="evenodd" d="M322 270.062C321.86 276.772 322.36 283.442 323.5 290.062C325.95 296.262 328.12 302.592 330 309.062C328.78 313.972 326.11 318.132 322 321.562C317.96 323.572 313.96 325.572 310 327.562C290.4 332.442 279.4 324.942 277 305.062C284.66 306.192 291.66 304.692 298 300.562C307.4 290.532 312.4 278.692 313 265.062C315.78 267.182 318.78 268.852 322 270.062Z" fill="#FCEBEB"/>
<path fill-rule="evenodd" clip-rule="evenodd" d="M255.001 308.062C259.501 307.722 261.331 309.722 260.501 314.062C258.051 319.142 254.551 323.312 250.001 326.562C247.671 327.232 245.331 327.232 243.001 326.562C238.021 324.152 233.181 321.652 228.501 319.062C226.931 314.662 228.431 312.662 233.001 313.062C237.631 313.872 241.961 315.542 246.001 318.062C249.471 315.112 252.471 311.782 255.001 308.062Z" fill="#0D0D0D"/>
</svg>
