<svg width="500" height="500" viewBox="0 0 500 500" fill="none" xmlns="http://www.w3.org/2000/svg">
<path fill-rule="evenodd" clip-rule="evenodd" d="M384.999 194.061C381.669 185.591 377.829 177.261 373.499 169.061C356.819 150.361 337.319 135.531 314.999 124.561C283.619 115.141 251.619 112.471 218.999 116.561C205.249 118.821 191.589 121.491 177.999 124.561C158.799 132.491 140.139 141.491 121.999 151.561C114.659 159.911 108.489 169.071 103.499 179.061C102.999 175.741 102.829 172.411 102.999 169.061C106.819 157.071 114.159 147.911 124.999 141.561C136.769 134.791 148.769 128.461 160.999 122.561C170.659 119.561 180.329 116.561 189.999 113.561C231.259 105.781 271.929 108.111 311.999 120.561C336.939 131.281 359.109 146.111 378.499 165.061C380.169 167.731 381.829 170.391 383.499 173.061C384.079 177.051 385.409 180.711 387.499 184.061C388.159 187.751 387.319 191.081 384.999 194.061Z" fill="#FEF0E9"/>
<path fill-rule="evenodd" clip-rule="evenodd" d="M384.999 194.061C384.999 194.391 384.999 194.731 384.999 195.061C380.639 199.251 375.639 202.421 369.999 204.561C348.429 210.941 326.769 216.941 304.999 222.561C288.869 223.651 272.869 224.481 256.999 225.061C245.999 223.821 234.999 223.821 223.999 225.061C225.449 224.261 227.119 223.761 228.999 223.561C213.689 222.221 198.359 222.221 182.999 223.561C178.399 225.831 174.069 228.501 169.999 231.561C160.479 236.481 153.479 233.981 148.999 224.061C142.349 231.721 134.019 234.891 123.999 233.561C118.699 230.461 115.199 225.961 113.499 220.061C113.169 214.061 112.829 208.061 112.499 202.061C107.899 195.531 104.399 188.531 101.999 181.061C101.679 176.861 102.019 172.861 102.999 169.061C102.829 172.411 102.999 175.741 103.499 179.061C108.489 169.071 114.659 159.911 121.999 151.561C140.139 141.491 158.799 132.491 177.999 124.561C191.589 121.491 205.249 118.821 218.999 116.561C251.619 112.471 283.619 115.141 314.999 124.561C337.319 135.531 356.819 150.361 373.499 169.061C377.829 177.261 381.669 185.591 384.999 194.061Z" fill="#F6E6D4"/>
<path fill-rule="evenodd" clip-rule="evenodd" d="M281.001 138.061C274.251 135.151 267.091 133.811 259.501 134.061C235.761 137.251 211.931 140.081 188.001 142.561C171.881 145.841 156.211 150.511 141.001 156.561C138.501 159.061 136.001 161.561 133.501 164.061C132.291 168.901 133.451 173.071 137.001 176.561C143.341 181.231 150.341 184.561 158.001 186.561C171.511 190.021 185.171 192.691 199.001 194.561C220.651 195.761 242.321 196.261 264.001 196.061C286.141 197.661 308.141 195.831 330.001 190.561C334.361 188.711 338.691 186.881 343.001 185.061C346.201 183.711 347.361 181.371 346.501 178.061C332.931 164.191 316.431 156.031 297.001 153.561C259.441 149.361 222.441 152.031 186.001 161.561C182.841 162.971 179.841 164.641 177.001 166.561C192.001 170.061 207.001 173.391 222.001 176.561C238.641 178.081 255.301 178.411 272.001 177.561C273.121 177.311 274.121 176.811 275.001 176.061C267.541 172.081 259.541 169.751 251.001 169.061C242.691 170.281 234.361 170.781 226.001 170.561C220.791 166.701 220.791 163.031 226.001 159.561C237.031 158.821 248.031 158.991 259.001 160.061C262.801 161.201 266.801 162.031 271.001 162.561C278.081 164.591 283.411 168.751 287.001 175.061C286.421 181.151 283.091 184.981 277.001 186.561C257.011 188.421 237.011 188.421 217.001 186.561C202.741 182.931 188.411 179.601 174.001 176.561C163.791 172.391 162.461 166.391 170.001 158.561C178.661 152.961 187.991 149.461 198.001 148.061C231.411 141.771 265.081 140.271 299.001 143.561C314.101 146.151 328.101 151.481 341.001 159.561C346.191 163.751 351.021 168.251 355.501 173.061C356.841 176.591 357.341 180.251 357.001 184.061C355.231 187.341 352.891 190.171 350.001 192.561C335.801 199.541 320.801 203.871 305.001 205.561C295.691 206.441 286.351 206.941 277.001 207.061C249.991 206.401 222.991 205.561 196.001 204.561C181.171 202.171 166.511 199.171 152.001 195.561C144.201 192.491 136.871 188.661 130.001 184.061C118.451 168.571 121.111 156.071 138.001 146.561C154.041 141.021 170.381 136.351 187.001 132.561C211.011 129.611 235.011 126.781 259.001 124.061C271.131 123.871 282.801 126.031 294.001 130.561C296.531 133.151 296.531 135.811 294.001 138.561C289.641 139.091 285.311 138.931 281.001 138.061Z" fill="#B27C69"/>
<path fill-rule="evenodd" clip-rule="evenodd" d="M281 138.061C262.66 138.121 244.32 138.621 226 139.561C216.1 140.921 206.77 143.751 198 148.061C187.99 149.461 178.66 152.961 170 158.561C162.46 166.391 163.79 172.391 174 176.561C188.41 179.601 202.74 182.931 217 186.561C237.01 188.421 257.01 188.421 277 186.561C283.09 184.981 286.42 181.151 287 175.061C293.18 177.761 296.01 182.431 295.5 189.061C294.45 190.651 293.29 192.151 292 193.561C282.77 195.001 273.43 195.831 264 196.061C242.32 196.261 220.65 195.761 199 194.561C185.17 192.691 171.51 190.021 158 186.561C150.34 184.561 143.34 181.231 137 176.561C133.45 173.071 132.29 168.901 133.5 164.061C136 161.561 138.5 159.061 141 156.561C156.21 150.511 171.88 145.841 188 142.561C211.93 140.081 235.76 137.251 259.5 134.061C267.09 133.811 274.25 135.151 281 138.061Z" fill="#EAD8CF"/>
<path fill-rule="evenodd" clip-rule="evenodd" d="M343 185.061C330.57 170.511 314.57 163.341 295 163.561C283.18 159.221 271.18 158.051 259 160.061C248.03 158.991 237.03 158.821 226 159.561C220.79 163.031 220.79 166.701 226 170.561C234.36 170.781 242.69 170.281 251 169.061C259.54 169.751 267.54 172.081 275 176.061C274.12 176.811 273.12 177.311 272 177.561C255.3 178.411 238.64 178.081 222 176.561C207 173.391 192 170.061 177 166.561C179.84 164.641 182.84 162.971 186 161.561C222.44 152.031 259.44 149.361 297 153.561C316.43 156.031 332.93 164.191 346.5 178.061C347.36 181.371 346.2 183.711 343 185.061Z" fill="#EAD8CF"/>
<path fill-rule="evenodd" clip-rule="evenodd" d="M343 185.061C338.69 186.881 334.36 188.711 330 190.561C308.14 195.831 286.14 197.661 264 196.061C273.43 195.831 282.77 195.001 292 193.561C293.29 192.151 294.45 190.651 295.5 189.061C296.01 182.431 293.18 177.761 287 175.061C283.41 168.751 278.08 164.591 271 162.561C266.8 162.031 262.8 161.201 259 160.061C271.18 158.051 283.18 159.221 295 163.561C314.57 163.341 330.57 170.511 343 185.061Z" fill="#F7E6D4"/>
<path fill-rule="evenodd" clip-rule="evenodd" d="M130 184.061C136.87 188.661 144.2 192.491 152 195.561C166.51 199.171 181.17 202.171 196 204.561C222.99 205.561 249.99 206.401 277 207.061C286.35 206.941 295.69 206.441 305 205.561C320.8 203.871 335.8 199.541 350 192.561C352.89 190.171 355.23 187.341 357 184.061C360.31 188.671 360.81 193.671 358.5 199.061C353.26 203.031 347.43 205.871 341 207.561C325.22 208.231 309.55 209.901 294 212.561C261.33 214.521 228.67 214.521 196 212.561C182.92 211.401 169.92 209.401 157 206.561C147.35 204.131 139.18 199.301 132.5 192.061C131.16 189.541 130.33 186.871 130 184.061Z" fill="#E6D4CE"/>
<path fill-rule="evenodd" clip-rule="evenodd" d="M102 181.061C104.4 188.531 107.9 195.531 112.5 202.061C112.83 208.061 113.17 214.061 113.5 220.061C115.2 225.961 118.7 230.461 124 233.561C134.02 234.891 142.35 231.721 149 224.061C153.48 233.981 160.48 236.481 170 231.561C174.07 228.501 178.4 225.831 183 223.561C198.36 222.221 213.69 222.221 229 223.561C227.12 223.761 225.45 224.261 224 225.061C215.27 224.671 206.94 226.001 199 229.061C182.05 229.951 167.88 236.621 156.5 249.061C156 251.711 155.84 254.371 156 257.061C146.65 274.021 148.32 289.851 161 304.561C168.59 309.541 176.92 312.211 186 312.561C220.77 323.861 256.1 325.861 292 318.561C305.83 315.561 317.66 309.061 327.5 299.061C334.48 288.671 336.64 277.331 334 265.061C336.02 263.341 336.35 261.341 335 259.061C329.04 255.431 323.71 251.101 319 246.061C314.62 241.021 309.28 237.191 303 234.561C288.17 228.851 272.83 225.681 257 225.061C272.87 224.481 288.87 223.651 305 222.561C326.77 216.941 348.43 210.941 370 204.561C375.64 202.421 380.64 199.251 385 195.061C391.57 212.791 394.57 231.121 394 250.061C393.16 253.081 391.66 255.741 389.5 258.061C384.83 262.061 380.17 266.061 375.5 270.061C374.72 272.991 374.89 275.821 376 278.561C377.67 279.231 379.33 279.231 381 278.561C383.22 276.841 385.55 275.341 388 274.061C387.37 290.821 380.7 304.651 368 315.561C356.98 322.071 345.65 328.071 334 333.561C328.75 334.731 323.42 335.401 318 335.561C307.02 340.301 295.68 343.471 284 345.061C280 345.061 276 345.061 272 345.061C249.31 344.601 226.65 343.931 204 343.061C199.23 341.491 194.23 340.491 189 340.061C155.09 340.691 126.93 328.351 104.5 303.061C102.83 300.391 101.17 297.731 99.5 295.061C97.26 283.311 94.76 271.641 92 260.061C95.74 266.321 99.74 272.491 104 278.561C108.66 279.751 111.32 277.911 112 273.061C106 260.071 100 247.071 94 234.061C95.27 232.841 96.43 231.501 97.5 230.061C98.17 226.731 98.17 223.391 97.5 220.061C95.71 218.331 93.54 217.661 91 218.061C92.03 217.011 92.7 215.671 93 214.061C90.1 204.321 92.27 195.991 99.5 189.061C100.04 186.271 100.88 183.601 102 181.061Z" fill="#E6B377"/>
<path fill-rule="evenodd" clip-rule="evenodd" d="M388.001 274.061C385.551 275.341 383.221 276.841 381.001 278.561C379.331 279.231 377.671 279.231 376.001 278.561C374.891 275.821 374.721 272.991 375.501 270.061C380.171 266.061 384.831 262.061 389.501 258.061C391.661 255.741 393.161 253.081 394.001 250.061C395.911 247.281 398.071 244.611 400.501 242.061C403.301 236.321 406.461 230.821 410.001 225.561C405.791 221.011 401.951 216.181 398.501 211.061C398.191 204.021 401.361 202.191 408.001 205.561C410.671 208.231 413.331 210.891 416.001 213.561C420.411 214.361 424.411 213.361 428.001 210.561C433.321 210.221 435.491 212.721 434.501 218.061C430.471 222.431 426.131 226.431 421.501 230.061C417.771 239.191 412.771 247.521 406.501 255.061C399.461 260.601 393.291 266.931 388.001 274.061Z" fill="#090706"/>
<path fill-rule="evenodd" clip-rule="evenodd" d="M91 218.061C93.54 217.661 95.71 218.331 97.5 220.061C98.17 223.391 98.17 226.731 97.5 230.061C96.43 231.501 95.27 232.841 94 234.061C100 247.071 106 260.071 112 273.061C111.32 277.911 108.66 279.751 104 278.561C99.74 272.491 95.74 266.321 92 260.061C88.48 252.841 85.15 245.511 82 238.061C70.33 236.901 64.5 230.561 64.5 219.061C65.39 218.481 66.39 218.151 67.5 218.061C72.98 220.141 78.31 222.471 83.5 225.061C85.99 222.801 88.49 220.461 91 218.061Z" fill="#080604"/>
<path fill-rule="evenodd" clip-rule="evenodd" d="M256.999 225.061C272.829 225.681 288.169 228.851 302.999 234.561C309.279 237.191 314.619 241.021 318.999 246.061C310.249 243.191 301.579 240.021 292.999 236.561C276.359 232.571 265.189 238.731 259.499 255.061C253.409 282.961 264.579 296.131 292.999 294.561C297.949 292.841 302.109 290.011 305.499 286.061C308.749 280.551 311.749 274.881 314.499 269.061C314.999 265.411 315.169 261.741 314.999 258.061C316.049 257.911 317.049 258.081 317.999 258.561C319.379 260.271 321.039 261.611 322.999 262.561C326.619 263.701 330.289 264.531 333.999 265.061C336.639 277.331 334.479 288.671 327.499 299.061C317.659 309.061 305.829 315.561 291.999 318.561C256.099 325.861 220.769 323.861 185.999 312.561C176.919 312.211 168.589 309.541 160.999 304.561C148.319 289.851 146.649 274.021 155.999 257.061C158.239 258.101 160.569 258.261 162.999 257.561C167.109 255.111 170.949 252.281 174.499 249.061C171.449 260.411 173.119 271.071 179.499 281.061C186.539 289.041 195.379 291.871 205.999 289.561C216.629 285.941 224.459 279.101 229.499 269.061C232.289 260.581 230.789 252.921 224.999 246.061C225.949 242.411 224.949 239.251 221.999 236.561C214.749 232.671 207.079 230.171 198.999 229.061C206.939 226.001 215.269 224.671 223.999 225.061C234.999 223.821 245.999 223.821 256.999 225.061Z" fill="#FCF8F8"/>
<path fill-rule="evenodd" clip-rule="evenodd" d="M199 229.061C207.08 230.171 214.75 232.671 222 236.561C224.95 239.251 225.95 242.411 225 246.061C230.79 252.921 232.29 260.581 229.5 269.061C224.46 279.101 216.63 285.941 206 289.561C195.38 291.871 186.54 289.041 179.5 281.061C173.12 271.071 171.45 260.411 174.5 249.061C170.95 252.281 167.11 255.111 163 257.561C160.57 258.261 158.24 258.101 156 257.061C155.84 254.371 156 251.711 156.5 249.061C167.88 236.621 182.05 229.951 199 229.061Z" fill="#040404"/>
<path fill-rule="evenodd" clip-rule="evenodd" d="M319 246.061C323.71 251.101 329.04 255.431 335 259.061C336.35 261.341 336.02 263.341 334 265.061C330.29 264.531 326.62 263.701 323 262.561C321.04 261.611 319.38 260.271 318 258.561C317.05 258.081 316.05 257.911 315 258.061C315.17 261.741 315 265.411 314.5 269.061C311.75 274.881 308.75 280.551 305.5 286.061C302.11 290.011 297.95 292.841 293 294.561C264.58 296.131 253.41 282.961 259.5 255.061C265.19 238.731 276.36 232.571 293 236.561C301.58 240.021 310.25 243.191 319 246.061Z" fill="#040404"/>
<path fill-rule="evenodd" clip-rule="evenodd" d="M207 241.061C217.16 239.721 221.33 244.051 219.5 254.061C217.65 259.751 213.82 263.081 208 264.061C200.12 261.241 197.95 255.911 201.5 248.061C203.17 245.561 205 243.231 207 241.061Z" fill="#F6F6F6"/>
<path fill-rule="evenodd" clip-rule="evenodd" d="M277 242.061C283.03 241.431 286.36 244.091 287 250.061C285.74 253.611 284.91 257.281 284.5 261.061C280.57 265.461 276.07 266.131 271 263.061C268.67 260.241 267.01 257.071 266 253.561C266.36 251.531 267.19 249.691 268.5 248.061C271.62 246.321 274.45 244.321 277 242.061Z" fill="#F1F1F1"/>
<path fill-rule="evenodd" clip-rule="evenodd" d="M257 297.061C260.39 296.351 262.72 297.521 264 300.561C261.74 306.071 258.08 310.401 253 313.561C250.67 314.231 248.33 314.231 246 313.561C241.55 310.921 237.05 308.421 232.5 306.061C231.17 301.061 233 298.901 238 299.561C241.7 301.411 245.37 303.241 249 305.061C252.55 303.311 255.22 300.641 257 297.061Z" fill="#0C0C0C"/>
<path fill-rule="evenodd" clip-rule="evenodd" d="M188.999 340.061C194.229 340.491 199.229 341.491 203.999 343.061C204.169 353.071 203.999 363.071 203.499 373.061C203.349 381.211 199.179 385.381 190.999 385.561C185.329 386.231 179.669 386.231 173.999 385.561C171.409 384.031 170.579 381.871 171.499 379.061C176.439 375.591 181.769 372.921 187.499 371.061C187.669 360.551 188.169 350.221 188.999 340.061Z" fill="#080605"/>
<path fill-rule="evenodd" clip-rule="evenodd" d="M272 345.061C276 345.061 280 345.061 284 345.061C286.07 355.271 287.07 365.601 287 376.061C293.63 375.011 300.3 374.851 307 375.561C311.61 376.681 313.11 379.521 311.5 384.061C306.93 389.441 301.1 391.441 294 390.061C290.67 389.891 287.33 389.731 284 389.561C281.64 388.971 280.64 387.471 281 385.061C277.58 384.131 275.75 381.791 275.5 378.061C274.31 367.061 273.14 356.061 272 345.061Z" fill="#080605"/>
</svg>
