<svg width="500" height="500" viewBox="0 0 500 500" fill="none" xmlns="http://www.w3.org/2000/svg">
<path fill-rule="evenodd" clip-rule="evenodd" d="M286 120.062C284.75 122.572 284.08 125.232 284 128.062C280.08 132.702 275.08 135.872 269 137.562C254.62 139.532 240.29 139.192 226 136.562C219 132.752 213.33 127.582 209 121.062C208.27 119.852 207.93 118.522 208 117.062C207.99 114.522 207.66 112.022 207 109.562C209.12 100.742 213.79 93.4119 221 87.5619C232.14 84.2019 243.48 82.5319 255 82.5619C264.17 84.8119 272.17 89.1419 279 95.5619C284.79 102.652 287.12 110.812 286 120.062Z" fill="#B2B3B3"/>
<path fill-rule="evenodd" clip-rule="evenodd" d="M238 92.062C244.67 91.892 251.34 92.062 258 92.562C265.01 95.902 271.18 100.402 276.5 106.062C278.06 119.862 271.89 128.032 258 130.562C243.5 132.852 230.67 129.352 219.5 120.062C213.1 109.292 215.26 100.792 226 94.562C230.07 93.532 234.07 92.702 238 92.062Z" fill="#FDFEFE"/>
<path fill-rule="evenodd" clip-rule="evenodd" d="M208 117.062C207.93 118.522 208.27 119.852 209 121.062C207.98 122.762 206.48 124.092 204.5 125.062C190.6 132.092 176.77 139.262 163 146.562C159.83 148.562 157.17 151.062 155 154.062C150.77 154.672 146.77 156.172 143 158.562C127.34 170.082 116.17 184.912 109.5 203.062C109.03 208.742 109.2 214.412 110 220.062C110.5 224.822 109.83 229.322 108 233.562C108.98 249.362 109.31 265.192 109 281.062C107.4 280.792 106.07 281.132 105 282.062C103.17 282.812 101.5 283.812 99.9998 285.062C96.3698 257.142 97.5398 229.472 103.5 202.062C108.58 184.762 118.08 170.262 132 158.562C152.8 140.822 176.13 127.152 202 117.562C203.97 117.062 205.97 116.902 208 117.062Z" fill="#73B6FC"/>
<path fill-rule="evenodd" clip-rule="evenodd" d="M286 120.062C301 125.722 315 133.222 328 142.562C329.36 144.142 330.03 145.982 330 148.062C327.32 149.822 324.32 150.822 321 151.062C317.57 148.812 314.23 146.312 311 143.562C303.01 139.002 294.67 135.002 286 131.562C284.68 130.742 284.01 129.582 284 128.062C284.08 125.232 284.75 122.572 286 120.062Z" fill="#73B6FC"/>
<path fill-rule="evenodd" clip-rule="evenodd" d="M209 121.062C213.33 127.582 219 132.752 226 136.562C240.29 139.192 254.62 139.532 269 137.562C275.08 135.872 280.08 132.702 284 128.062C284.01 129.582 284.68 130.742 286 131.562C294.67 135.002 303.01 139.002 311 143.562C314.23 146.312 317.57 148.812 321 151.062C315.6 153.962 311.77 158.302 309.5 164.062C307.23 172.192 307.56 180.192 310.5 188.062C315.59 203.152 325.09 214.652 339 222.562C354.09 227.242 365.09 222.742 372 209.062C376.19 234.702 381.53 260.032 388 285.062C376.14 283.182 368.47 288.182 365 300.062C362.58 322.132 366.75 342.802 377.5 362.062C379.92 373.572 385.42 383.242 394 391.062C382.65 395.842 373.48 392.842 366.5 382.062C363.27 374.502 359.61 367.172 355.5 360.062C354.63 354.672 353.63 349.342 352.5 344.062C352.17 328.392 351.83 312.732 351.5 297.062C349.07 273.552 341.07 252.222 327.5 233.062C315.17 222.402 302 212.902 288 204.562C267.58 197.412 246.58 194.412 225 195.562C201.44 200.832 180.94 211.672 163.5 228.062C159.83 233.392 156.17 238.732 152.5 244.062C148.65 256.982 146.15 270.142 145 283.562C148 313.972 148.5 344.472 146.5 375.062C142.04 383.142 137.21 390.982 132 398.562C124.1 401.822 116.1 402.652 108 401.062C119.12 391.382 125.28 379.052 126.5 364.062C126.91 352.182 127.75 340.342 129 328.562C128.83 324.392 128.67 320.232 128.5 316.062C127.83 315.392 127.17 314.732 126.5 314.062C125.95 302.122 121.45 291.962 113 283.562C110.49 282.312 107.82 281.812 105 282.062C106.07 281.132 107.4 280.792 109 281.062C109.31 265.192 108.98 249.362 108 233.562C109.83 229.322 110.5 224.822 110 220.062C111.64 227.202 115.97 232.042 123 234.562C129.67 235.232 136.33 235.232 143 234.562C145.33 232.392 148 230.732 151 229.562C161.16 219.752 169.32 208.592 175.5 196.062C177.89 186.892 178.56 177.562 177.5 168.062C172.75 158.942 165.25 154.272 155 154.062C157.17 151.062 159.83 148.562 163 146.562C176.77 139.262 190.6 132.092 204.5 125.062C206.48 124.092 207.98 122.762 209 121.062Z" fill="#9ABEF5"/>
<path fill-rule="evenodd" clip-rule="evenodd" d="M330 148.062C336.92 148.622 343.58 150.462 350 153.562C361.42 163.922 369.08 176.422 373 191.062C372.01 196.872 371.68 202.872 372 209.062C365.09 222.742 354.09 227.242 339 222.562C325.09 214.652 315.59 203.152 310.5 188.062C307.56 180.192 307.23 172.192 309.5 164.062C311.77 158.302 315.6 153.962 321 151.062C324.32 150.822 327.32 149.822 330 148.062Z" fill="#B3B3B4"/>
<path fill-rule="evenodd" clip-rule="evenodd" d="M155 154.062C165.25 154.272 172.75 158.942 177.5 168.062C178.56 177.562 177.89 186.892 175.5 196.062C169.32 208.592 161.16 219.752 151 229.562C148 230.732 145.33 232.392 143 234.562C136.33 235.232 129.67 235.232 123 234.562C115.97 232.042 111.64 227.202 110 220.062C109.2 214.412 109.03 208.742 109.5 203.062C116.17 184.912 127.34 170.082 143 158.562C146.77 156.172 150.77 154.672 155 154.062Z" fill="#B2B2B3"/>
<path fill-rule="evenodd" clip-rule="evenodd" d="M326.999 156.062C333.539 155.412 339.539 156.912 344.999 160.562C359.449 172.932 365.279 188.432 362.499 207.062C360.369 212.882 356.199 215.212 349.999 214.062C346.579 214.082 343.239 213.582 339.999 212.562C322.389 201.852 315.229 186.352 318.499 166.062C320.479 161.922 323.309 158.592 326.999 156.062Z" fill="#FDFDFD"/>
<path fill-rule="evenodd" clip-rule="evenodd" d="M149 163.062C156.46 161.502 162.62 163.502 167.5 169.062C169.09 175.952 169.42 182.952 168.5 190.062C163.18 200.032 157.35 209.692 151 219.062C146.81 222.422 142.47 225.592 138 228.562C131.12 229.162 124.96 227.322 119.5 223.062C115.78 213.142 116.45 203.472 121.5 194.062C128.38 181.572 137.55 171.242 149 163.062Z" fill="#FDFDFD"/>
<path fill-rule="evenodd" clip-rule="evenodd" d="M394 391.062C397.95 391.832 401.95 392.172 406 392.062C400.21 399.622 392.54 402.792 383 401.562C378.72 400.072 374.39 398.742 370 397.562C358.54 387.492 351.04 374.992 347.5 360.062C346.05 346.252 344.88 332.422 344 318.562C347.53 282.312 336.2 251.642 310 226.562C295.03 216.242 278.7 208.912 261 204.562C240.93 201.022 221.6 203.352 203 211.562C195.5 216.482 187.83 221.142 180 225.562C172.67 232.752 166.17 240.582 160.5 249.062C158.11 255.882 156.44 262.882 155.5 270.062C155.69 302.732 156.02 335.402 156.5 368.062C154.77 382.022 148.94 393.852 139 403.562C136.16 405.482 133.16 407.152 130 408.562C121.91 409.072 113.91 408.402 106 406.562C103.81 405.152 102.15 403.312 101 401.062C103.33 401.062 105.67 401.062 108 401.062C116.1 402.652 124.1 401.822 132 398.562C137.21 390.982 142.04 383.142 146.5 375.062C148.5 344.472 148 313.972 145 283.562C146.15 270.142 148.65 256.982 152.5 244.062C156.17 238.732 159.83 233.392 163.5 228.062C180.94 211.672 201.44 200.832 225 195.562C246.58 194.412 267.58 197.412 288 204.562C302 212.902 315.17 222.402 327.5 233.062C341.07 252.222 349.07 273.552 351.5 297.062C351.83 312.732 352.17 328.392 352.5 344.062C353.63 349.342 354.63 354.672 355.5 360.062C359.61 367.172 363.27 374.502 366.5 382.062C373.48 392.842 382.65 395.842 394 391.062Z" fill="#F9FCFD"/>
<path fill-rule="evenodd" clip-rule="evenodd" d="M373 191.062C378.36 199.132 382.52 207.802 385.5 217.062C390.71 241.192 394.88 265.522 398 290.062C394.31 288.982 390.98 287.322 388 285.062C381.53 260.032 376.19 234.702 372 209.062C371.68 202.872 372.01 196.872 373 191.062Z" fill="#73B6FC"/>
<path fill-rule="evenodd" clip-rule="evenodd" d="M406 392.062C408.67 390.392 411.33 388.732 414 387.062C409.75 403.372 399.09 410.542 382 408.562C376.21 406.742 370.54 404.742 365 402.562C353.36 391.762 344.86 378.932 339.5 364.062C338.82 350.002 337.49 336.002 335.5 322.062C329.05 327.542 321.88 331.872 314 335.062C319.69 340.942 321.52 347.942 319.5 356.062C316.98 361.252 312.82 364.422 307 365.562C301.34 366.062 295.68 366.232 290 366.062C282.78 365.752 275.78 364.422 269 362.062C262.97 359.642 256.81 357.312 250.5 355.062C244.3 356.732 238.47 359.062 233 362.062C229.37 362.842 226.04 364.342 223 366.562C218.1 368.252 213.1 369.422 208 370.062C196.5 370.732 187.34 366.402 180.5 357.062C179.09 350.222 180.26 343.892 184 338.062C178.1 335.872 172.1 333.872 166 332.062C165.23 346.702 164.73 361.372 164.5 376.062C162.04 387.472 157.54 397.972 151 407.562C145.26 411.432 139.26 414.762 133 417.562C126.33 418.232 119.67 418.232 113 417.562C100.72 416.442 93.39 409.942 91 398.062C92.66 396.312 94.66 395.812 97 396.562C98.23 398.232 99.57 399.732 101 401.062C102.15 403.312 103.81 405.152 106 406.562C113.91 408.402 121.91 409.072 130 408.562C133.16 407.152 136.16 405.482 139 403.562C148.94 393.852 154.77 382.022 156.5 368.062C156.02 335.402 155.69 302.732 155.5 270.062C156.44 262.882 158.11 255.882 160.5 249.062C166.17 240.582 172.67 232.752 180 225.562C187.83 221.142 195.5 216.482 203 211.562C221.6 203.352 240.93 201.022 261 204.562C278.7 208.912 295.03 216.242 310 226.562C336.2 251.642 347.53 282.312 344 318.562C344.88 332.422 346.05 346.252 347.5 360.062C351.04 374.992 358.54 387.492 370 397.562C374.39 398.742 378.72 400.072 383 401.562C392.54 402.792 400.21 399.622 406 392.062Z" fill="#74B6FB"/>
<path fill-rule="evenodd" clip-rule="evenodd" d="M323 254.062C317.3 251.202 311.96 247.702 307 243.562C300.33 241.232 293.67 238.892 287 236.562C271.46 232.752 261.63 238.582 257.5 254.062C254.95 263.802 256.45 272.802 262 281.062C266.2 284.162 270.87 286.162 276 287.062C279.48 287.882 283.14 288.382 287 288.562C284.35 289.062 281.69 289.222 279 289.062C280.47 299.532 286.47 305.192 297 306.062C294.4 308.372 291.4 310.202 288 311.562C281.95 313.242 275.95 315.242 270 317.562C248.8 317.982 227.8 315.982 207 311.562C201.81 309.882 196.81 307.722 192 305.062C203.95 304.442 210.28 298.112 211 286.062C206.99 286.232 202.99 286.062 199 285.562C202.86 285.382 206.52 284.882 210 284.062C224.8 279.442 231.96 269.442 231.5 254.062C228.67 249.402 226.67 244.402 225.5 239.062C223.77 236.942 221.6 235.442 219 234.562C210.55 231.002 201.89 230.342 193 232.562C187.54 234.462 182.21 236.622 177 239.062C180.17 235.062 183.83 231.562 188 228.562C196.67 223.892 205.33 219.232 214 214.562C223.97 210.462 234.31 209.132 245 210.562C255.92 213.142 266.92 215.482 278 217.562C296.53 225.482 311.53 237.642 323 254.062Z" fill="#FBFCFC"/>
<path fill-rule="evenodd" clip-rule="evenodd" d="M230 218.062C237.39 220.262 240.39 225.092 239 232.562C229.57 233.802 225.4 229.632 226.5 220.062C227.8 219.482 228.97 218.812 230 218.062Z" fill="#B2B2B2"/>
<path fill-rule="evenodd" clip-rule="evenodd" d="M258 219.062C260.36 218.902 262.69 219.062 265 219.562C265.86 220.252 266.52 221.082 267 222.062C264.91 225.772 262.24 228.942 259 231.562C257.37 232.052 255.7 232.222 254 232.062C253.03 226.882 254.37 222.542 258 219.062Z" fill="#B2B2B2"/>
<path fill-rule="evenodd" clip-rule="evenodd" d="M209.999 284.062C205.319 284.232 200.649 284.062 195.999 283.562C183.519 275.132 179.019 263.632 182.499 249.062C179.699 250.852 177.199 253.022 174.999 255.562C172.489 256.812 169.819 257.312 166.999 257.062C166.759 253.772 167.589 250.772 169.499 248.062C172.009 245.032 174.509 242.032 176.999 239.062C182.209 236.622 187.539 234.462 192.999 232.562C201.889 230.342 210.549 231.002 218.999 234.562C221.599 235.442 223.769 236.942 225.499 239.062C226.669 244.402 228.669 249.402 231.499 254.062C231.959 269.442 224.799 279.442 209.999 284.062Z" fill="#050505"/>
<path fill-rule="evenodd" clip-rule="evenodd" d="M323 254.062C323.33 254.732 323.67 255.392 324 256.062C324.07 257.522 323.73 258.852 323 260.062C316.98 260.432 311.65 258.432 307 254.062C306.67 265.502 302.34 275.342 294 283.562C288.43 286.702 282.43 287.862 276 287.062C270.87 286.162 266.2 284.162 262 281.062C256.45 272.802 254.95 263.802 257.5 254.062C261.63 238.582 271.46 232.752 287 236.562C293.67 238.892 300.33 241.232 307 243.562C311.96 247.702 317.3 251.202 323 254.062Z" fill="#040404"/>
<path fill-rule="evenodd" clip-rule="evenodd" d="M212.999 240.062C217.689 239.922 219.859 242.262 219.499 247.062C221.679 247.912 223.179 249.412 223.999 251.562C221.689 253.822 219.189 255.992 216.499 258.062C216.189 261.442 214.359 262.772 210.999 262.062C211.689 256.532 209.359 253.702 203.999 253.562C202.669 252.232 202.669 250.892 203.999 249.562C206.399 248.772 208.569 247.602 210.499 246.062C210.739 243.752 211.569 241.752 212.999 240.062Z" fill="#F3F3F3"/>
<path fill-rule="evenodd" clip-rule="evenodd" d="M272 241.062C275.69 241.192 277.69 243.192 278 247.062C284.48 249.752 284.48 251.912 278 253.562C276.07 256.502 274.07 259.332 272 262.062C270.37 260.502 269.54 258.502 269.5 256.062C268.1 254.032 266.44 253.702 264.5 255.062C262.78 253.362 262.61 251.522 264 249.562C268.78 248.742 271.45 245.902 272 241.062Z" fill="#F2F2F2"/>
<path fill-rule="evenodd" clip-rule="evenodd" d="M210 284.062C206.52 284.882 202.86 285.382 199 285.562C202.99 286.062 206.99 286.232 211 286.062C210.28 298.112 203.95 304.442 192 305.062C176.71 300.762 166.71 291.102 162 276.062C163.04 269.522 164.71 263.192 167 257.062C169.82 257.312 172.49 256.812 175 255.562C177.2 253.022 179.7 250.852 182.5 249.062C179.02 263.632 183.52 275.132 196 283.562C200.65 284.062 205.32 284.232 210 284.062Z" fill="#FCE9E8"/>
<path fill-rule="evenodd" clip-rule="evenodd" d="M323 260.062C324.09 260.182 324.75 260.852 325 262.062C325.44 263.702 325.77 265.372 326 267.062C323.42 274.292 320.92 281.622 318.5 289.062C316.7 292.492 314.54 295.652 312 298.562C306.92 301.102 301.92 303.602 297 306.062C286.47 305.192 280.47 299.532 279 289.062C281.69 289.222 284.35 289.062 287 288.562C283.14 288.382 279.48 287.882 276 287.062C282.43 287.862 288.43 286.702 294 283.562C302.34 275.342 306.67 265.502 307 254.062C311.65 258.432 316.98 260.432 323 260.062Z" fill="#FBE9E8"/>
<path fill-rule="evenodd" clip-rule="evenodd" d="M324 256.062C326.33 262.002 328.66 268.002 331 274.062C330.25 286.382 325.59 296.882 317 305.562C309.76 309.132 302.76 313.132 296 317.562C286.92 319.662 278.25 322.662 270 326.562C245.7 326.202 221.7 323.202 198 317.562C189.57 313.752 181.24 309.752 173 305.562C168.81 302.532 165.14 299.032 162 295.062C162 288.732 162 282.392 162 276.062C166.71 291.102 176.71 300.762 192 305.062C196.81 307.722 201.81 309.882 207 311.562C227.8 315.982 248.8 317.982 270 317.562C275.95 315.242 281.95 313.242 288 311.562C291.4 310.202 294.4 308.372 297 306.062C301.92 303.602 306.92 301.102 312 298.562C314.54 295.652 316.7 292.492 318.5 289.062C320.92 281.622 323.42 274.292 326 267.062C325.77 265.372 325.44 263.702 325 262.062C324.75 260.852 324.09 260.182 323 260.062C323.73 258.852 324.07 257.522 324 256.062Z" fill="#B3B3B4"/>
<path fill-rule="evenodd" clip-rule="evenodd" d="M331 274.062C332.43 278.202 333.59 282.532 334.5 287.062C335.17 296.062 335.17 305.062 334.5 314.062C324.67 320.312 314.67 326.312 304.5 332.062C307.9 337.202 311.07 342.702 314 348.562C312.1 352.792 309.1 356.132 305 358.562C296.28 359.402 287.61 359.072 279 357.562C269.24 354.212 259.58 350.712 250 347.062C239.17 352.392 228.17 357.222 217 361.562C209.12 362.702 201.46 362.032 194 359.562C187.7 357.132 185.54 352.632 187.5 346.062C189.17 343.392 190.83 340.732 192.5 338.062C193.17 336.732 193.17 335.392 192.5 334.062C185.29 331.952 178.12 329.782 171 327.562C168.91 326.772 167.08 325.602 165.5 324.062C163.47 314.532 162.3 304.862 162 295.062C165.14 299.032 168.81 302.532 173 305.562C181.24 309.752 189.57 313.752 198 317.562C221.7 323.202 245.7 326.202 270 326.562C278.25 322.662 286.92 319.662 296 317.562C302.76 313.132 309.76 309.132 317 305.562C325.59 296.882 330.25 286.382 331 274.062Z" fill="#9ABEF5"/>
<path fill-rule="evenodd" clip-rule="evenodd" d="M105 282.062C107.82 281.812 110.49 282.312 113 283.562C121.45 291.962 125.95 302.122 126.5 314.062C127.17 314.732 127.83 315.392 128.5 316.062C128.67 320.232 128.83 324.392 129 328.562C127.75 340.342 126.91 352.182 126.5 364.062C125.28 379.052 119.12 391.382 108 401.062C105.67 401.062 103.33 401.062 101 401.062C99.57 399.732 98.23 398.232 97 396.562C94.66 395.812 92.66 396.312 91 398.062C86.29 393.692 82.79 388.352 80.5 382.062C79.18 375.622 78.34 369.122 78 362.562C78.63 351.732 79.13 340.902 79.5 330.062C79.89 326.342 80.56 322.672 81.5 319.062C84.25 311.242 87.25 303.582 90.5 296.062C92.78 291.612 95.95 287.942 100 285.062C101.5 283.812 103.17 282.812 105 282.062Z" fill="#B3B3B4"/>
<path fill-rule="evenodd" clip-rule="evenodd" d="M388.001 285.062C390.981 287.322 394.311 288.982 398.001 290.062C403.011 293.912 407.181 298.582 410.501 304.062C419.571 323.682 423.571 344.352 422.501 366.062C420.841 371.342 419.181 376.682 417.501 382.062C416.501 383.882 415.341 385.552 414.001 387.062C411.331 388.732 408.671 390.392 406.001 392.062C401.951 392.172 397.951 391.832 394.001 391.062C385.421 383.242 379.921 373.572 377.501 362.062C366.751 342.802 362.581 322.132 365.001 300.062C368.471 288.182 376.141 283.182 388.001 285.062Z" fill="#B3B4B4"/>
<path fill-rule="evenodd" clip-rule="evenodd" d="M256 289.062C260.5 288.722 262.33 290.722 261.5 295.062C259 298.892 255.83 302.062 252 304.562C249.24 305.142 246.58 304.812 244 303.562C240.88 301.592 237.72 299.752 234.5 298.062C233.43 295.012 234.43 293.012 237.5 292.062C241 292.892 244.17 294.392 247 296.562C251.25 295.832 254.25 293.332 256 289.062Z" fill="#101010"/>
<path fill-rule="evenodd" clip-rule="evenodd" d="M105 292.062C108.39 291.752 110.89 293.082 112.5 296.062C120.36 321.592 122.02 347.592 117.5 374.062C114.62 380.352 110.45 385.522 105 389.562C96.3396 392.422 90.5096 389.592 87.4996 381.062C83.4996 351.982 87.8396 324.312 100.5 298.062C102.25 296.212 103.75 294.212 105 292.062Z" fill="#FDFDFD"/>
<path fill-rule="evenodd" clip-rule="evenodd" d="M379 293.062C386.83 294.682 393.33 298.682 398.5 305.062C400.13 307.692 402.13 310.022 404.5 312.062C405.42 316.702 407.09 321.032 409.5 325.062C411.44 336.392 413.28 347.722 415 359.062C414.76 366.622 412.76 373.622 409 380.062C402.71 382.012 397.55 380.342 393.5 375.062C384.54 354.522 378.21 333.192 374.5 311.062C372.83 304.162 374.33 298.162 379 293.062Z" fill="#FEFEFE"/>
<path fill-rule="evenodd" clip-rule="evenodd" d="M233 362.062C234.2 371.252 234.03 380.592 232.5 390.062C230.74 393.032 228.24 395.202 225 396.562C212.85 400.382 200.52 401.042 188 398.562C179.05 396.472 175.22 390.972 176.5 382.062C179.71 377.872 183.88 375.372 189 374.562C195.28 373.372 201.61 372.872 208 373.062C208 372.062 208 371.062 208 370.062C213.1 369.422 218.1 368.252 223 366.562C226.04 364.342 229.37 362.842 233 362.062Z" fill="#FDFEFE"/>
<path fill-rule="evenodd" clip-rule="evenodd" d="M269 362.062C275.78 364.422 282.78 365.752 290 366.062C292.45 367.032 295.11 367.372 298 367.062C298 368.732 298 370.392 298 372.062C309.13 369.052 318.63 371.722 326.5 380.062C327.29 383.192 326.96 386.192 325.5 389.062C319.86 395.632 312.7 399.132 304 399.562C297 400.232 290 400.232 283 399.562C278.15 397.692 275.32 394.192 274.5 389.062C272.25 380.152 270.42 371.152 269 362.062Z" fill="#FDFEFE"/>
</svg>
