<svg width="500" height="500" viewBox="0 0 500 500" fill="none" xmlns="http://www.w3.org/2000/svg">
<path fill-rule="evenodd" clip-rule="evenodd" d="M297 371.062C309.07 365.862 320.74 359.862 332 353.062C336.21 350.972 339.55 347.972 342 344.062C345.59 341.982 348.75 339.312 351.5 336.062C367.55 293.552 356.72 259.712 319 234.562C306.51 226.502 293.17 220.172 279 215.562C258.01 211.512 237.34 212.852 217 219.562C201.37 224.212 187.03 231.212 174 240.562C163.63 250.922 154.8 262.422 147.5 275.062C146.19 278.292 145.19 281.622 144.5 285.062C143.83 295.062 143.83 305.062 144.5 315.062C147.44 322.632 151.61 329.302 157 335.062C158 336.732 159.33 338.062 161 339.062C165.06 343.272 169.73 346.772 175 349.562C184.27 354.372 193.61 358.872 203 363.062C202.97 367.182 202.3 371.182 201 375.062C200.07 376.132 199.73 377.462 200 379.062C183.66 378.052 167.32 376.882 151 375.562C139.03 373.102 127.03 370.772 115 368.562C90.6199 360.642 81.1199 344.142 86.4999 319.062C88.2799 300.702 90.2799 282.372 92.4999 264.062C96.2899 241.982 100.29 219.982 104.5 198.062C108.42 183.382 113.42 169.052 119.5 155.062C124.58 146.562 129.92 138.222 135.5 130.062C160.16 106.812 188.99 90.9821 222 82.5621C240 81.8921 258 81.8921 276 82.5621C287.12 84.9121 298.12 87.5821 309 90.5621C344.96 105.862 370.13 131.692 384.5 168.062C393.81 216.602 402.48 265.262 410.5 314.062C412.96 328.632 414.13 343.292 414 358.062C392.43 364.042 370.77 369.872 349 375.562C331.64 375.992 314.47 377.832 297.5 381.062C297 377.742 296.83 374.412 297 371.062Z" fill="#333333"/>
<path fill-rule="evenodd" clip-rule="evenodd" d="M239 145.062C276.6 141.772 310.6 150.942 341 172.562C342.55 173.772 343.72 175.272 344.5 177.062C347.6 187.932 351.27 198.592 355.5 209.062C356.88 217.912 358.38 226.742 360 235.562C359.67 236.732 359.33 237.892 359 239.062C348.06 230.612 336.73 222.782 325 215.562C312.85 211.292 300.85 206.622 289 201.562C264.19 196.822 239.53 197.492 215 203.562C194.55 210.932 174.55 219.262 155 228.562C149.41 232.612 143.91 236.772 138.5 241.062C141.76 219.832 147.43 199.162 155.5 179.062C156.71 175.802 158.54 172.972 161 170.562C177.24 163.702 193.58 157.032 210 150.562C219.82 148.702 229.49 146.872 239 145.062Z" fill="#FDFDFD"/>
<path fill-rule="evenodd" clip-rule="evenodd" d="M342 344.062C326.74 348.882 311.41 353.712 296 358.562C286 359.232 276 359.232 266 358.562C262.88 358.082 260.04 356.912 257.5 355.062C255.66 347.112 255.66 339.112 257.5 331.062C260.02 327.042 262.02 327.372 263.5 332.062C265.5 337.402 267.5 342.742 269.5 348.062C290.58 348.002 310.75 343.502 330 334.562C331.44 334.182 332.44 333.352 333 332.062C345.6 329.532 351.43 321.872 350.5 309.062C348.21 302.962 344.38 298.132 339 294.562C333.45 293.362 328.28 294.202 323.5 297.062C323.1 296.832 322.93 296.502 323 296.062C324.86 291.832 326.52 287.492 328 283.062C326.88 280.362 326.88 277.702 328 275.062C330.8 276.702 333.47 278.532 336 280.562C339.23 280.762 342.23 281.592 345 283.062C349.93 280.562 350.26 277.392 346 273.562C339.6 268.832 332.94 264.502 326 260.562C318 257.902 310 255.232 302 252.562C296.35 251.632 290.68 251.302 285 251.562C274.59 256.512 268.09 264.682 265.5 276.062C260.78 304.172 272.61 317.832 301 317.062C302.33 317.062 303.67 317.062 305 317.062C306.19 327.252 311.85 332.582 322 333.062C307.48 338.442 292.48 341.772 277 343.062C275.33 342.732 273.67 342.392 272 342.062C270.57 338.162 269.57 334.162 269 330.062C271.74 327.702 272.57 324.702 271.5 321.062C268.01 319.332 265.18 320.002 263 323.062C259.53 322.432 256.7 323.432 254.5 326.062C253.64 323.652 251.98 322.322 249.5 322.062C246.15 322.512 242.98 323.172 240 324.062C237.73 326.362 237.4 329.032 239 332.062C237.72 338.672 233.72 342.012 227 342.062C218.33 339.392 209.66 336.722 201 334.062C205.61 329.052 207.61 323.052 207 316.062C204.11 316.372 201.45 316.032 199 315.062C210.27 315.182 219.43 310.842 226.5 302.062C228.77 297.462 231.44 293.132 234.5 289.062C235.98 280.492 233.98 272.822 228.5 266.062C227.43 256.992 222.26 251.822 213 250.562C189.89 246.262 170.39 252.762 154.5 270.062C152.82 273.642 152.66 277.312 154 281.062C157.23 282.342 160.23 281.842 163 279.562C166.48 276.912 169.81 274.082 173 271.062C173.33 271.392 173.67 271.732 174 272.062C172.09 275.302 171.09 278.802 171 282.562C171.7 287.152 172.7 291.652 174 296.062C174.13 296.802 173.96 297.472 173.5 298.062C173.11 297.132 172.45 296.472 171.5 296.062C164.71 296.852 160.38 300.522 158.5 307.062C157.83 311.062 157.83 315.062 158.5 319.062C162.54 321.682 166.71 324.012 171 326.062C189.06 335.142 207.9 342.142 227.5 347.062C230.43 347.042 233.26 346.542 236 345.562C240.38 340.292 244.38 334.792 248 329.062C249.85 330.752 250.85 332.922 251 335.562C250.04 341.712 249.21 347.882 248.5 354.062C248 354.562 247.5 355.062 247 355.562C241.46 357.432 235.79 358.102 230 357.562C206.58 351.172 183.75 343.342 161.5 334.062C160.06 334.712 158.56 335.042 157 335.062C151.61 329.302 147.44 322.632 144.5 315.062C143.83 305.062 143.83 295.062 144.5 285.062C145.19 281.622 146.19 278.292 147.5 275.062C154.8 262.422 163.63 250.922 174 240.562C187.03 231.212 201.37 224.212 217 219.562C237.34 212.852 258.01 211.512 279 215.562C293.17 220.172 306.51 226.502 319 234.562C356.72 259.712 367.55 293.552 351.5 336.062C348.75 339.312 345.59 341.982 342 344.062Z" fill="#FBFBFB"/>
<path fill-rule="evenodd" clip-rule="evenodd" d="M199 315.062C186.92 313.652 178.59 307.312 174 296.062C172.7 291.652 171.7 287.152 171 282.562C171.09 278.802 172.09 275.302 174 272.062C173.67 271.732 173.33 271.392 173 271.062C169.81 274.082 166.48 276.912 163 279.562C160.23 281.842 157.23 282.342 154 281.062C152.66 277.312 152.82 273.642 154.5 270.062C170.39 252.762 189.89 246.262 213 250.562C222.26 251.822 227.43 256.992 228.5 266.062C233.98 272.822 235.98 280.492 234.5 289.062C231.44 293.132 228.77 297.462 226.5 302.062C219.43 310.842 210.27 315.182 199 315.062Z" fill="#040404"/>
<path fill-rule="evenodd" clip-rule="evenodd" d="M323 296.062C320.4 301.082 317.4 305.912 314 310.562C309.84 313.312 305.51 315.472 301 317.062C272.61 317.832 260.78 304.172 265.5 276.062C268.09 264.682 274.59 256.512 285 251.562C290.68 251.302 296.35 251.632 302 252.562C310 255.232 318 257.902 326 260.562C332.94 264.502 339.6 268.832 346 273.562C350.26 277.392 349.93 280.562 345 283.062C342.23 281.592 339.23 280.762 336 280.562C333.47 278.532 330.8 276.702 328 275.062C326.88 277.702 326.88 280.362 328 283.062C326.52 287.492 324.86 291.832 323 296.062Z" fill="#040404"/>
<path fill-rule="evenodd" clip-rule="evenodd" d="M284 260.062C289.14 258.992 292.97 260.652 295.5 265.062C295.79 270.162 295.12 275.162 293.5 280.062C289.3 284.272 284.47 285.112 279 282.562C277.68 280.272 276.18 278.112 274.5 276.062C273.83 273.392 273.83 270.732 274.5 268.062C277.27 264.782 280.44 262.122 284 260.062Z" fill="#F6F6F6"/>
<path fill-rule="evenodd" clip-rule="evenodd" d="M211 260.062C221.57 261.222 225.07 266.892 221.5 277.062C218.58 283.342 213.75 286.172 207 285.562C199.59 278.902 199.09 271.742 205.5 264.062C207.31 262.582 209.15 261.252 211 260.062Z" fill="#F6F6F6"/>
<path fill-rule="evenodd" clip-rule="evenodd" d="M333 332.062C329.23 331.802 325.56 332.142 322 333.062C311.85 332.582 306.19 327.252 305 317.062C303.67 317.062 302.33 317.062 301 317.062C305.51 315.472 309.84 313.312 314 310.562C317.4 305.912 320.4 301.082 323 296.062C322.93 296.502 323.1 296.832 323.5 297.062C328.28 294.202 333.45 293.362 339 294.562C344.38 298.132 348.21 302.962 350.5 309.062C351.43 321.872 345.6 329.532 333 332.062Z" fill="#FDE6E6"/>
<path fill-rule="evenodd" clip-rule="evenodd" d="M174 296.062C178.59 307.312 186.92 313.652 199 315.062C201.45 316.032 204.11 316.372 207 316.062C207.61 323.052 205.61 329.052 201 334.062C191.2 329.822 181.2 326.162 171 323.062C171 324.062 171 325.062 171 326.062C166.71 324.012 162.54 321.682 158.5 319.062C157.83 315.062 157.83 311.062 158.5 307.062C160.38 300.522 164.71 296.852 171.5 296.062C172.45 296.472 173.11 297.132 173.5 298.062C173.96 297.472 174.13 296.802 174 296.062Z" fill="#FCE5E5"/>
<path fill-rule="evenodd" clip-rule="evenodd" d="M269 330.062C267.24 327.542 265.24 325.212 263 323.062C265.18 320.002 268.01 319.332 271.5 321.062C272.57 324.702 271.74 327.702 269 330.062Z" fill="#0D0D0D"/>
<path fill-rule="evenodd" clip-rule="evenodd" d="M263 323.062C265.24 325.212 267.24 327.542 269 330.062C269.57 334.162 270.57 338.162 272 342.062C273.67 342.392 275.33 342.732 277 343.062C292.48 341.772 307.48 338.442 322 333.062C325.56 332.142 329.23 331.802 333 332.062C332.44 333.352 331.44 334.182 330 334.562C310.75 343.502 290.58 348.002 269.5 348.062C267.5 342.742 265.5 337.402 263.5 332.062C262.02 327.372 260.02 327.042 257.5 331.062C255.66 339.112 255.66 347.112 257.5 355.062C260.04 356.912 262.88 358.082 266 358.562C276 359.232 286 359.232 296 358.562C311.41 353.712 326.74 348.882 342 344.062C339.55 347.972 336.21 350.972 332 353.062C331.76 352.462 331.26 352.132 330.5 352.062C324.28 353.732 318.45 356.232 313 359.562C298.69 363.912 284.03 365.242 269 363.562C263.26 362.922 257.76 361.422 252.5 359.062C250.17 361.332 247.34 362.502 244 362.562C229.85 363.182 216.18 360.842 203 355.562C188.86 350.362 174.86 344.862 161 339.062C159.33 338.062 158 336.732 157 335.062C158.56 335.042 160.06 334.712 161.5 334.062C183.75 343.342 206.58 351.172 230 357.562C235.79 358.102 241.46 357.432 247 355.562C247.5 355.062 248 354.562 248.5 354.062C249.21 347.882 250.04 341.712 251 335.562C250.85 332.922 249.85 330.752 248 329.062C244.38 334.792 240.38 340.292 236 345.562C233.26 346.542 230.43 347.042 227.5 347.062C207.9 342.142 189.06 335.142 171 326.062C171 325.062 171 324.062 171 323.062C181.2 326.162 191.2 329.822 201 334.062C209.66 336.722 218.33 339.392 227 342.062C233.72 342.012 237.72 338.672 239 332.062C240.86 329.542 242.86 327.042 245 324.562C243.37 324.072 241.7 323.902 240 324.062C242.98 323.172 246.15 322.512 249.5 322.062C251.98 322.322 253.64 323.652 254.5 326.062C256.7 323.432 259.53 322.432 263 323.062Z" fill="#A1A1A1"/>
<path fill-rule="evenodd" clip-rule="evenodd" d="M240 324.062C241.7 323.902 243.37 324.072 245 324.562C242.86 327.042 240.86 329.542 239 332.062C237.4 329.032 237.73 326.362 240 324.062Z" fill="#121212"/>
<path fill-rule="evenodd" clip-rule="evenodd" d="M161 339.062C174.86 344.862 188.86 350.362 203 355.562C216.18 360.842 229.85 363.182 244 362.562C247.34 362.502 250.17 361.332 252.5 359.062C257.76 361.422 263.26 362.922 269 363.562C284.03 365.242 298.69 363.912 313 359.562C318.45 356.232 324.28 353.732 330.5 352.062C331.26 352.132 331.76 352.462 332 353.062C320.74 359.862 309.07 365.862 297 371.062C296.01 378.212 295.68 385.542 296 393.062C301.4 392.872 306.73 393.372 312 394.562C315.87 398.222 317.03 402.722 315.5 408.062C313.4 411.032 310.57 412.862 307 413.562C297.76 415.642 288.43 416.312 279 415.562C276.5 414.392 274.67 412.562 273.5 410.062C273 400.732 272.83 391.402 273 382.062C273.98 378.262 274.32 374.262 274 370.062C265.62 369.682 257.29 368.842 249 367.562C242 366.892 235 366.892 228 367.562C226.03 372.492 225.03 377.652 225 383.062C223.82 387.302 223.15 391.642 223 396.062C227.35 395.892 231.68 396.062 236 396.562C244.75 400.882 246.08 406.882 240 414.562C226.86 419.432 213.86 419.092 201 413.562C200.5 413.062 200 412.562 199.5 412.062C198.79 399.672 199.29 387.342 201 375.062C202.3 371.182 202.97 367.182 203 363.062C193.61 358.872 184.27 354.372 175 349.562C169.73 346.772 165.06 343.272 161 339.062Z" fill="#FBFBFB"/>
<path fill-rule="evenodd" clip-rule="evenodd" d="M273 382.062C257 382.502 241 382.832 225 383.062C225.03 377.652 226.03 372.492 228 367.562C235 366.892 242 366.892 249 367.562C257.29 368.842 265.62 369.682 274 370.062C274.32 374.262 273.98 378.262 273 382.062Z" fill="#363636"/>
</svg>
