<svg width="500" height="500" viewBox="0 0 500 500" fill="none" xmlns="http://www.w3.org/2000/svg">
<path fill-rule="evenodd" clip-rule="evenodd" d="M336 79.0621C336.2 80.9521 335.54 82.4521 334 83.5621C332.12 83.7821 330.45 84.4421 329 85.5621C326.06 86.2721 323.4 85.7721 321 84.0621C320.42 82.6321 319.58 81.3021 318.5 80.0621C316.92 73.9821 315.75 67.8121 315 61.5621C315.47 54.2921 318.14 47.9521 323 42.5621C325.33 41.8921 327.67 41.8921 330 42.5621C330.99 46.5621 332.49 50.4021 334.5 54.0621C334.79 62.4221 335.29 70.7521 336 79.0621Z" fill="#818181"/>
<path fill-rule="evenodd" clip-rule="evenodd" d="M388 91.0619C386.21 93.0219 384.04 94.3519 381.5 95.0619C380.67 94.8919 379.83 94.7319 379 94.5619C376.79 92.1619 374.46 89.9919 372 88.0619C371.6 74.7719 374.94 62.6019 382 51.5619C387.12 50.0219 390.29 51.8519 391.5 57.0619C393.2 66.3419 393.86 75.6719 393.5 85.0619C392.14 87.5819 390.31 89.5819 388 91.0619Z" fill="#828181"/>
<path fill-rule="evenodd" clip-rule="evenodd" d="M336 79.062C339.35 78.892 342.68 79.062 346 79.562C354.65 82.552 363.32 85.382 372 88.062C374.46 89.992 376.79 92.162 379 94.562C379.83 94.732 380.67 94.892 381.5 95.062C384.04 94.352 386.21 93.022 388 91.062C393.7 93.262 397.54 97.262 399.5 103.062C408.7 110.132 413.03 119.462 412.5 131.062C417.44 136.362 418.94 142.362 417 149.062C415.08 140.472 410.41 133.802 403 129.062C404.56 123.122 402.23 120.962 396 122.562C395.44 122.942 395.11 123.442 395 124.062C394.2 125.512 393.7 127.182 393.5 129.062C390.76 130.172 387.93 130.342 385 129.562C382.23 128.432 379.73 126.932 377.5 125.062C367.22 128.992 356.89 128.992 346.5 125.062C343.37 127.852 340.2 130.692 337 133.562C332.7 136.212 328.03 137.382 323 137.062C319.94 150.062 323.61 160.562 334 168.562C341.17 171.112 348.17 174.112 355 177.562C364.29 178.792 373.63 179.292 383 179.062C382.75 181.882 383.25 184.552 384.5 187.062C385.55 188.082 386.72 188.242 388 187.562C391.71 182.962 395.05 178.132 398 173.062C398.67 173.062 399.33 173.062 400 173.062C395.44 186.622 386.11 194.292 372 196.062C371.79 206.442 366.96 213.772 357.5 218.062C356.31 223.982 354.14 229.482 351 234.562C354.43 237.992 357.93 241.492 361.5 245.062C368.12 253.282 370.46 262.612 368.5 273.062C367.32 279.612 365.15 285.782 362 291.562C365.5 300.052 366.67 308.882 365.5 318.062C363.12 325.542 359.79 332.542 355.5 339.062C351 344.062 345.5 347.062 339 348.062C338.27 363.692 331.6 376.192 319 385.562C316.12 386.862 313.12 387.702 310 388.062C310.17 391.742 310 395.412 309.5 399.062C307.2 402.862 304.7 406.532 302 410.062C307.85 415.972 309.52 422.972 307 431.062C305.85 432.712 304.52 434.212 303 435.562C298.86 436.402 294.86 437.232 291 438.062C284.08 444.712 277.08 444.712 270 438.062C265.44 440.252 260.78 440.582 256 439.062C250.82 435.372 247.65 430.372 246.5 424.062C245.88 419.582 246.72 415.422 249 411.562C248.48 407.042 247.82 402.542 247 398.062C245.33 396.732 243.67 395.392 242 394.062C234.86 398.622 232.7 404.962 235.5 413.062C232.82 419.752 229.65 426.092 226 432.062C220.65 434.512 214.99 435.672 209 435.562C201.76 439.552 195.43 438.382 190 432.062C186 433.322 182 433.322 178 432.062C173.73 428.622 169.9 424.622 166.5 420.062C165.83 417.062 165.83 414.062 166.5 411.062C167.58 408.312 168.75 405.652 170 403.062C168.99 401.012 168.32 398.842 168 396.562C168.4 393.392 168.73 390.232 169 387.062C145.96 388.852 134.12 378.192 133.5 355.062C114.32 348.852 104.65 335.512 104.5 315.062C105.2 307.832 108.36 302.002 114 297.562C105.93 287.452 103.1 275.952 105.5 263.062C106.29 258.202 108.12 253.862 111 250.062C112.74 243.242 115.57 236.912 119.5 231.062C120 228.082 120.16 225.082 120 222.062C127.27 212.422 136.94 206.922 149 205.562C159.45 188.432 174.28 182.932 193.5 189.062C198.36 185.212 203.53 181.712 209 178.562C219.88 175.522 229.88 177.182 239 183.562C244.34 184.682 249.67 185.852 255 187.062C261.46 183.162 268.46 180.492 276 179.062C268.19 162.222 271.19 147.722 285 135.562C279.75 127.362 278.59 118.522 281.5 109.062C288.8 94.332 300.63 87.162 317 87.562C317.88 85.842 319.22 84.672 321 84.062C323.4 85.772 326.06 86.272 329 85.562C330.45 84.442 332.12 83.782 334 83.562C335.54 82.452 336.2 80.952 336 79.062Z" fill="#FEEDC0"/>
<path fill-rule="evenodd" clip-rule="evenodd" d="M403 129.062C396.96 132.852 394.29 131.182 395 124.062C395.11 123.442 395.44 122.942 396 122.562C402.23 120.962 404.56 123.122 403 129.062Z" fill="#282826"/>
<path fill-rule="evenodd" clip-rule="evenodd" d="M395 124.062C394.29 131.182 396.96 132.852 403 129.062C410.41 133.802 415.08 140.472 417 149.062C417.39 153.642 416.55 157.972 414.5 162.062C410.05 166.362 405.22 170.022 400 173.062C399.33 173.062 398.67 173.062 398 173.062C400.18 170.032 401.85 166.692 403 163.062C406.41 166.152 408.41 165.482 409 161.062C409.8 160.142 409.97 159.142 409.5 158.062C407.03 157.462 405.03 156.122 403.5 154.062C402.96 150.692 403.12 147.362 404 144.062C402.36 143.852 400.86 144.182 399.5 145.062C399.32 148.442 398.82 151.782 398 155.062C396.09 155.932 394.25 156.932 392.5 158.062C390.7 153.912 389.53 149.582 389 145.062C389.29 142.992 390.45 141.662 392.5 141.062C393.11 139.322 392.45 138.322 390.5 138.062C387.73 139.102 384.89 139.932 382 140.562C380.46 141.672 379.8 143.172 380 145.062C381.67 145.062 383.33 145.062 385 145.062C385.73 149.692 386.06 154.362 386 159.062C383.97 159.222 381.97 159.062 380 158.562C378 155.072 375 153.572 371 154.062C371 155.732 371 157.392 371 159.062C373.08 159.032 374.92 159.702 376.5 161.062C377.14 164.702 376.64 168.202 375 171.562C375.91 174.432 377.41 174.602 379.5 172.062C380.07 169.392 380.57 166.732 381 164.062C382.33 164.062 383.67 164.062 385 164.062C383.35 168.902 382.68 173.902 383 179.062C373.63 179.292 364.29 178.792 355 177.562C348.17 174.112 341.17 171.112 334 168.562C323.61 160.562 319.94 150.062 323 137.062C328.03 137.382 332.7 136.212 337 133.562C340.2 130.692 343.37 127.852 346.5 125.062C356.89 128.992 367.22 128.992 377.5 125.062C379.73 126.932 382.23 128.432 385 129.562C387.93 130.342 390.76 130.172 393.5 129.062C393.7 127.182 394.2 125.512 395 124.062Z" fill="#7F7F7F"/>
<path fill-rule="evenodd" clip-rule="evenodd" d="M358 132.062C360.69 131.902 363.35 132.062 366 132.562C368.94 137.392 367.94 141.392 363 144.562C361.06 145.302 359.23 145.142 357.5 144.062C356.74 139.972 356.9 135.972 358 132.062Z" fill="#272727"/>
<path fill-rule="evenodd" clip-rule="evenodd" d="M409 161.062C406.77 160.112 404.43 159.452 402 159.062C396.23 160.452 390.57 162.112 385 164.062C383.67 164.062 382.33 164.062 381 164.062C380.57 166.732 380.07 169.392 379.5 172.062C377.41 174.602 375.91 174.432 375 171.562C376.64 168.202 377.14 164.702 376.5 161.062C374.92 159.702 373.08 159.032 371 159.062C371 157.392 371 155.732 371 154.062C375 153.572 378 155.072 380 158.562C381.97 159.062 383.97 159.222 386 159.062C386.06 154.362 385.73 149.692 385 145.062C383.33 145.062 381.67 145.062 380 145.062C379.8 143.172 380.46 141.672 382 140.562C384.89 139.932 387.73 139.102 390.5 138.062C392.45 138.322 393.11 139.322 392.5 141.062C390.45 141.662 389.29 142.992 389 145.062C389.53 149.582 390.7 153.912 392.5 158.062C394.25 156.932 396.09 155.932 398 155.062C398.82 151.782 399.32 148.442 399.5 145.062C400.86 144.182 402.36 143.852 404 144.062C403.12 147.362 402.96 150.692 403.5 154.062C405.03 156.122 407.03 157.462 409.5 158.062C409.97 159.142 409.8 160.142 409 161.062Z" fill="#282827"/>
<path fill-rule="evenodd" clip-rule="evenodd" d="M409 161.062C408.41 165.482 406.41 166.152 403 163.062C401.85 166.692 400.18 170.032 398 173.062C395.05 178.132 391.71 182.962 388 187.562C386.72 188.242 385.55 188.082 384.5 187.062C383.25 184.552 382.75 181.882 383 179.062C382.68 173.902 383.35 168.902 385 164.062C390.57 162.112 396.23 160.452 402 159.062C404.43 159.452 406.77 160.112 409 161.062Z" fill="#5F9C32"/>
<path fill-rule="evenodd" clip-rule="evenodd" d="M120 222.062C120.16 225.082 120 228.082 119.5 231.062C115.57 236.912 112.74 243.242 111 250.062C106.14 252.342 101.14 252.512 95.9997 250.562C91.1697 247.062 86.9997 242.892 83.4997 238.062C81.2697 232.872 81.6097 227.872 84.4997 223.062C84.8297 219.062 85.1697 215.062 85.4997 211.062C87.2897 209.332 89.4597 208.662 91.9997 209.062C92.5697 201.662 96.5697 198.492 104 199.562C104.8 201.332 105.97 202.832 107.5 204.062C110.71 202.442 113.37 203.102 115.5 206.062C117.85 211.112 119.35 216.442 120 222.062Z" fill="#818180"/>
<path fill-rule="evenodd" clip-rule="evenodd" d="M316 302.062C310.88 298.782 305.88 295.282 301 291.562C291.23 287.302 281.06 284.472 270.5 283.062C265.64 284.322 261.31 286.662 257.5 290.062C250.03 301.512 249.03 313.512 254.5 326.062C262.11 333.712 271.28 336.542 282 334.562C285.91 332.682 289.41 330.182 292.5 327.062C294.85 322.362 297.18 317.702 299.5 313.062C300.8 309.412 301.3 305.752 301 302.062C305.21 306.032 310.21 308.372 316 309.062C321.41 333.702 311.74 349.532 287 356.562C268.49 359.962 249.82 360.962 231 359.562C223.67 359.232 216.33 358.892 209 358.562C204.51 356.752 199.85 355.752 195 355.562C185.92 351.522 177.26 346.692 169 341.062C160.43 331.392 157.26 320.052 159.5 307.062C159.7 305.242 160.53 303.912 162 303.062C162.11 303.682 162.44 304.182 163 304.562C165 305.232 167 305.232 169 304.562C172.17 302.062 175.33 299.562 178.5 297.062C175.58 309.862 179.08 320.702 189 329.562C206.19 334.882 218.69 329.382 226.5 313.062C227.17 309.392 227.17 305.732 226.5 302.062C224 298.072 222.34 293.732 221.5 289.062C219.19 284.982 215.69 282.482 211 281.562C193.99 277.732 178.99 281.572 166 293.062C178.35 276.882 194.02 265.052 213 257.562C223.58 256.332 233.91 257.332 244 260.562C250.4 260.742 256.73 261.412 263 262.562C269.85 265.822 276.85 268.822 284 271.562C290.51 276.322 297.51 280.322 305 283.562C310.63 288.672 314.3 294.832 316 302.062Z" fill="#FCFCFC"/>
<path fill-rule="evenodd" clip-rule="evenodd" d="M162 303.062C161.91 299.152 163.24 295.822 166 293.062C178.99 281.572 193.99 277.732 211 281.562C215.69 282.482 219.19 284.982 221.5 289.062C222.34 293.732 224 298.072 226.5 302.062C227.17 305.732 227.17 309.392 226.5 313.062C218.69 329.382 206.19 334.882 189 329.562C179.08 320.702 175.58 309.862 178.5 297.062C175.33 299.562 172.17 302.062 169 304.562C167 305.232 165 305.232 163 304.562C162.44 304.182 162.11 303.682 162 303.062Z" fill="#050505"/>
<path fill-rule="evenodd" clip-rule="evenodd" d="M316 302.062C318.55 304.262 318.55 306.602 316 309.062C310.21 308.372 305.21 306.032 301 302.062C301.3 305.752 300.8 309.412 299.5 313.062C297.18 317.702 294.85 322.362 292.5 327.062C289.41 330.182 285.91 332.682 282 334.562C271.28 336.542 262.11 333.712 254.5 326.062C249.03 313.512 250.03 301.512 257.5 290.062C261.31 286.662 265.64 284.322 270.5 283.062C281.06 284.472 291.23 287.302 301 291.562C305.88 295.282 310.88 298.782 316 302.062Z" fill="#040404"/>
<path fill-rule="evenodd" clip-rule="evenodd" d="M208 289.062C214.46 288.522 217.79 291.522 218 298.062C216.58 303.912 213.08 307.912 207.5 310.062C203.38 308.502 201.21 305.502 201 301.062C201.3 295.782 203.63 291.782 208 289.062Z" fill="#F5F5F5"/>
<path fill-rule="evenodd" clip-rule="evenodd" d="M266 290.062C270.18 289.262 273.35 290.602 275.5 294.062C275.49 298.112 274.82 302.112 273.5 306.062C266.86 311.022 261.86 309.692 258.5 302.062C257.79 299.592 258.13 297.262 259.5 295.062C261.83 293.492 263.99 291.832 266 290.062Z" fill="#F4F4F4"/>
<path fill-rule="evenodd" clip-rule="evenodd" d="M251 337.062C255.57 336.642 257.07 338.642 255.5 343.062C253.37 346.192 250.87 349.022 248 351.562C241.02 351.832 234.85 349.662 229.5 345.062C228.26 341.652 229.43 339.992 233 340.062C236.03 340.412 238.69 341.572 241 343.562C242.67 344.232 244.33 344.232 246 343.562C247.5 341.232 249.17 339.072 251 337.062Z" fill="#0A0A0A"/>
<path fill-rule="evenodd" clip-rule="evenodd" d="M178 432.062C182 433.322 186 433.322 190 432.062C195.43 438.382 201.76 439.552 209 435.562C214.99 435.672 220.65 434.512 226 432.062C226.34 443.212 221.34 450.712 211 454.562C203.3 455.132 195.64 454.802 188 453.562C181.3 447.992 177.97 440.822 178 432.062Z" fill="#818180"/>
<path fill-rule="evenodd" clip-rule="evenodd" d="M291 438.062C292 438.062 293 438.062 294 438.062C297.19 450.052 292.53 456.212 280 456.562C274.33 457.232 268.67 457.232 263 456.562C262.17 455.732 261.33 454.892 260.5 454.062C258.72 449.132 257.22 444.132 256 439.062C260.78 440.582 265.44 440.252 270 438.062C277.08 444.712 284.08 444.712 291 438.062Z" fill="#818180"/>
</svg>
