<svg width="500" height="500" viewBox="0 0 500 500" fill="none" xmlns="http://www.w3.org/2000/svg">
<path fill-rule="evenodd" clip-rule="evenodd" d="M413 257.062C409.562 259.992 406.229 263.162 403 266.562C401.755 267.352 400.422 267.852 399 268.062C402.805 255.512 406.305 242.842 409.5 230.062C410.084 227.302 409.75 224.642 408.5 222.062C406.774 220.982 404.941 220.822 403 221.562C398.911 223.692 395.077 226.192 391.5 229.062C388.848 234.832 387.014 240.832 386 247.062C382.425 259.222 377.425 270.892 371 282.062C361.985 282.102 359.652 286.102 364 294.062C359.031 299.872 354.197 305.872 349.5 312.062C347.44 314.852 345.94 317.852 345 321.062C349.692 320.642 354.025 319.142 358 316.562C367.069 310.832 375.569 304.332 383.5 297.062C385.516 293.862 387.349 290.532 389 287.062C394.494 283.482 400.161 280.142 406 277.062C400.112 294.502 390.445 309.502 377 322.062C366.233 328.832 355.233 335.172 344 341.062C338.794 342.022 333.794 343.362 329 345.062C324.666 345.952 320.333 346.952 316 348.062C306.08 349.602 296.08 350.442 286 350.562C285.084 350.842 284.418 351.342 284 352.062C252.953 353.582 221.953 353.242 191 351.062C186.45 350.072 181.783 349.072 177 348.062C165.963 346.772 155.296 344.102 145 340.062C141.837 337.642 138.504 335.482 135 333.562C131.164 328.562 126.83 324.062 122 320.062C112.693 309.782 105.693 298.112 101 285.062C106.25 287.372 111.583 289.372 117 291.062C124.988 306.212 135.988 318.712 150 328.562C155.143 329.622 160.143 331.122 165 333.062C165.333 332.892 165.667 332.732 166 332.562C158.11 320.842 150.444 309.012 143 297.062C147.476 296.742 148.976 294.402 147.5 290.062C147 289.562 146.5 289.062 146 288.562C142.913 288.302 139.913 287.802 137 287.062C134.586 278.902 131.086 271.232 126.5 264.062C123.194 254.312 120.027 244.642 117 235.062C117.43 231.702 116.43 228.862 114 226.562C109.333 223.562 104.667 220.562 99.9997 217.562C91.4267 215.312 88.5927 218.472 91.4997 227.062C96.0267 243.272 101.527 259.102 108 274.562C107.664 275.592 106.997 276.092 106 276.062C101.076 273.792 96.4087 271.132 91.9997 268.062C88.5037 254.742 85.0037 241.412 81.4997 228.062C79.4147 221.212 79.7477 214.542 82.4997 208.062C83.3327 207.232 84.1667 206.392 84.9997 205.562C91.1307 204.292 96.7977 205.292 102 208.562C106.282 209.722 110.616 210.552 115 211.062C114.679 203.002 115.179 195.002 116.5 187.062C118.209 184.172 120.709 182.842 124 183.062C127.387 183.522 130.72 184.192 134 185.062C135.047 175.102 137.213 165.432 140.5 156.062C143.226 150.672 146.726 145.832 151 141.562C153.53 140.142 156.197 139.812 159 140.562C173.398 146.302 186.231 154.462 197.5 165.062C206.695 150.522 216.695 136.522 227.5 123.062C234.372 116.522 241.539 110.352 249 104.562C252.906 103.132 256.906 102.792 261 103.562C264.656 106.722 268.656 109.392 273 111.562C284.591 123.572 294.091 137.072 301.5 152.062C304.596 159.252 307.93 166.252 311.5 173.062C319.745 168.522 327.578 163.352 335 157.562C341.284 155.322 347.617 154.992 354 156.562C358.577 160.882 361.744 166.052 363.5 172.062C366.066 179.922 367.899 187.922 369 196.062C373.027 195.612 377.027 194.942 381 194.062C382.438 194.282 383.771 194.782 385 195.562C389.09 201.052 391.756 207.212 393 214.062C399.209 210.022 405.875 207.852 413 207.562C414.735 209.752 415.902 212.252 416.5 215.062C417.825 229.312 416.658 243.312 413 257.062Z" fill="#FD73A7"/>
<path fill-rule="evenodd" clip-rule="evenodd" d="M290 198.062C286.519 185.162 283.353 172.162 280.5 159.062C275.806 150.842 270.973 142.682 266 134.562C261.635 133.892 257.302 133.052 253 132.062C250.588 131.972 248.755 132.972 247.5 135.062C244.669 140.042 241.335 144.712 237.5 149.062C234.003 156.062 230.003 162.722 225.5 169.062C223.416 175.732 220.583 182.062 217 188.062C214.187 184.462 211.353 180.802 208.5 177.062C216.264 154.422 229.431 135.262 248 119.562C249.953 117.932 252.12 116.762 254.5 116.062C258.377 117.412 262.21 118.912 266 120.562C281.593 138.492 293.427 158.662 301.5 181.062C302.167 182.732 302.167 184.392 301.5 186.062C298.164 190.562 294.331 194.562 290 198.062Z" fill="#FEACCC"/>
<path fill-rule="evenodd" clip-rule="evenodd" d="M290 198.062C286.676 202.702 283.343 207.362 280 212.062C275.209 206.772 270.209 201.602 265 196.562C261.851 194.902 258.684 193.402 255.5 192.062C250.253 193.312 245.419 195.472 241 198.562C237.144 201.922 233.144 205.082 229 208.062C224.489 201.712 220.489 195.042 217 188.062C220.583 182.062 223.416 175.732 225.5 169.062C230.003 162.722 234.003 156.062 237.5 149.062C241.335 144.712 244.669 140.042 247.5 135.062C248.755 132.972 250.588 131.972 253 132.062C257.302 133.052 261.635 133.892 266 134.562C270.973 142.682 275.806 150.842 280.5 159.062C283.353 172.162 286.519 185.162 290 198.062Z" fill="#FECCDF"/>
<path fill-rule="evenodd" clip-rule="evenodd" d="M149.999 156.062C150.999 156.062 151.999 156.062 152.999 156.062C154.218 159.802 155.718 163.472 157.499 167.062C161.415 185.472 167.748 203.132 176.499 220.062C177.166 221.392 177.166 222.732 176.499 224.062C173.607 221.502 170.44 219.342 166.999 217.562C161.121 211.012 154.621 205.182 147.499 200.062C145.584 185.282 146.417 170.612 149.999 156.062Z" fill="#FEAACB"/>
<path fill-rule="evenodd" clip-rule="evenodd" d="M204 191.062C202.734 190.472 201.401 189.972 200 189.562C194.595 183.482 188.595 178.152 182 173.562C176.671 171.742 174.004 173.572 174 179.062C170.83 172.702 168.164 166.042 166 159.062C180.144 164.662 191.977 173.662 201.5 186.062C202.594 187.642 203.428 189.302 204 191.062Z" fill="#FEABCC"/>
<path fill-rule="evenodd" clip-rule="evenodd" d="M204 191.061C205.97 193.211 207.803 195.541 209.5 198.061C212.939 203.941 216.105 209.941 219 216.061C212.296 223.271 206.129 230.931 200.5 239.061C190.794 219.441 181.96 199.441 174 179.061C174.004 173.571 176.671 171.741 182 173.561C188.595 178.151 194.595 183.481 200 189.561C201.401 189.971 202.734 190.471 204 191.061Z" fill="#FECBDF"/>
<path fill-rule="evenodd" clip-rule="evenodd" d="M353 174.062C355.146 179.112 356.646 184.452 357.5 190.062C358.167 194.392 358.167 198.732 357.5 203.062C350.938 205.192 344.771 208.192 339 212.062C337.886 210.842 337.719 209.502 338.5 208.062C342.41 200.442 345.41 192.442 347.5 184.062C348.869 180.432 350.703 177.102 353 174.062Z" fill="#FEA9CB"/>
<path fill-rule="evenodd" clip-rule="evenodd" d="M335 172.062C336.333 172.062 337.667 172.062 339 172.062C336.058 184.502 331.892 196.502 326.5 208.062C319.873 218.972 312.04 228.972 303 238.062C302.175 238.952 301.175 239.282 300 239.062C297.918 232.602 294.085 227.272 288.5 223.062C287.833 222.062 287.833 221.062 288.5 220.062C301.824 201.902 317.324 185.902 335 172.062Z" fill="#FFC9DE"/>
<path fill-rule="evenodd" clip-rule="evenodd" d="M170 236.062C163.483 233.472 157.149 230.302 151 226.562C148.7 225.902 146.367 225.402 144 225.062C140.238 224.992 138.238 226.822 138 230.562C138.956 236.712 139.789 242.882 140.5 249.062C144.385 258.252 147.218 267.922 149 278.062C137.003 258.042 129.503 236.372 126.5 213.062C125.671 208.032 125.838 203.032 127 198.062C141.379 210.782 155.712 223.442 170 236.062Z" fill="#FEACCD"/>
<path fill-rule="evenodd" clip-rule="evenodd" d="M291 251.062C284.965 249.802 278.965 248.472 273 247.062C267.772 238.342 260.272 232.342 250.5 229.062C247.872 230.392 245.038 231.222 242 231.562C236.042 237.702 230.709 244.202 226 251.062C221.35 252.392 216.683 253.722 212 255.062C212.284 251.712 213.45 248.712 215.5 246.062C224.589 234.302 234.422 223.132 245 212.562C248.247 211.102 251.58 209.932 255 209.062C259.503 211.052 263.336 214.052 266.5 218.062C273.342 230.072 281.509 241.072 291 251.062Z" fill="#FDACCC"/>
<path fill-rule="evenodd" clip-rule="evenodd" d="M357 278.062C359.12 270.572 360.453 262.902 361 255.062C361.733 248.932 360.066 243.592 356 239.062C353.054 237.912 350.054 237.742 347 238.562C339.997 244.892 331.997 249.552 323 252.562C319.302 254.752 315.968 257.412 313 260.562C312.052 261.042 311.052 261.212 310 261.062C308.27 260.532 306.936 259.532 306 258.062C321.107 242.832 338.44 230.332 358 220.562C362.788 216.172 368.455 213.332 375 212.062C375.333 213.062 375.667 214.062 376 215.062C373.097 230.582 369.597 245.912 365.5 261.062C363.497 267.302 360.664 272.962 357 278.062Z" fill="#FEACCC"/>
<path fill-rule="evenodd" clip-rule="evenodd" d="M117 235.062C114.66 233.722 112.327 232.382 110 231.062C105.176 231.392 102.509 233.892 102 238.562C105.291 252.212 109.291 265.712 114 279.062C110.958 278.832 108.292 277.832 106 276.062C106.997 276.092 107.664 275.592 108 274.562C101.527 259.102 96.0265 243.272 91.4995 227.062C88.5925 218.472 91.4265 215.312 99.9995 217.562C104.667 220.562 109.333 223.562 114 226.562C116.43 228.862 117.43 231.702 117 235.062Z" fill="#FDACCC"/>
<path fill-rule="evenodd" clip-rule="evenodd" d="M399 268.061C398.333 268.391 397.667 268.731 397 269.061C398.847 260.831 399.347 252.501 398.5 244.061C396.789 240.981 394.289 239.811 391 240.561C389.087 242.631 387.42 244.791 386 247.061C387.014 240.831 388.848 234.831 391.5 229.061C395.077 226.191 398.911 223.691 403 221.561C404.941 220.821 406.774 220.981 408.5 222.061C409.75 224.641 410.084 227.301 409.5 230.061C406.305 242.841 402.805 255.511 399 268.061Z" fill="#FEACCC"/>
<path fill-rule="evenodd" clip-rule="evenodd" d="M170 236.062C180.334 244.072 190.001 252.732 199 262.062C197 263.392 195 264.732 193 266.062C189.889 268.122 186.556 269.952 183 271.562C179.833 274.732 176.667 277.892 173.5 281.062C171.268 287.472 173.435 290.142 180 289.062C179.964 296.432 180.464 303.762 181.5 311.062C186.167 318.392 190.833 325.732 195.5 333.062C200.237 335.182 204.737 337.512 209 340.062C195.244 339.432 183.744 334.092 174.5 324.062C163.119 310.302 154.619 294.962 149 278.062C147.218 267.922 144.385 258.252 140.5 249.062C139.789 242.882 138.956 236.712 138 230.562C138.238 226.822 140.238 224.992 144 225.062C146.367 225.402 148.7 225.902 151 226.562C157.149 230.302 163.483 233.472 170 236.062Z" fill="#FECCDF"/>
<path fill-rule="evenodd" clip-rule="evenodd" d="M273 247.062C265.035 245.992 257.035 245.822 249 246.562C241.392 248.382 233.726 249.882 226 251.062C230.709 244.202 236.042 237.702 242 231.562C245.038 231.222 247.872 230.392 250.5 229.062C260.272 232.342 267.772 238.342 273 247.062Z" fill="#FECDE0"/>
<path fill-rule="evenodd" clip-rule="evenodd" d="M117 235.062C120.027 244.642 123.194 254.312 126.5 264.062C131.086 271.232 134.586 278.902 137 287.062C128.772 285.982 121.105 283.322 114 279.062C109.291 265.712 105.291 252.212 102 238.562C102.509 233.892 105.176 231.392 110 231.062C112.327 232.382 114.66 233.722 117 235.062Z" fill="#FDCADE"/>
<path fill-rule="evenodd" clip-rule="evenodd" d="M405.999 277.062C400.16 280.142 394.493 283.482 388.999 287.062C383.086 289.472 377.086 291.642 370.999 293.562C368.689 294.062 366.356 294.222 363.999 294.062C359.651 286.102 361.984 282.102 370.999 282.062C380.442 279.212 389.108 274.872 396.999 269.062C397.666 268.732 398.332 268.392 398.999 268.062C400.421 267.852 401.754 267.352 402.999 266.562C406.228 263.162 409.561 259.992 412.999 257.062C417.255 254.672 421.089 251.672 424.499 248.062C423.722 243.912 422.222 239.912 419.999 236.062C421.475 231.852 424.141 231.022 427.999 233.562C430.903 239.192 435.57 241.692 441.999 241.062C444.834 244.232 444.501 247.062 440.999 249.562C438.666 249.892 436.332 250.232 433.999 250.562C430.999 254.232 427.999 257.892 424.999 261.562C418.477 266.592 412.143 271.762 405.999 277.062Z" fill="#292828"/>
<path fill-rule="evenodd" clip-rule="evenodd" d="M357 278.061C349.634 292.421 339.634 304.751 327 315.061C327.437 310.291 328.937 305.951 331.5 302.061C331.998 299.081 332.165 296.081 332 293.061C336.568 293.481 338.068 291.481 336.5 287.061C330.914 284.301 326.081 280.631 322 276.061C321.428 274.301 320.594 272.641 319.5 271.061C316.129 267.861 312.962 264.521 310 261.061C311.052 261.211 312.052 261.041 313 260.561C315.968 257.411 319.302 254.751 323 252.561C331.997 249.551 339.997 244.891 347 238.561C350.054 237.741 353.054 237.911 356 239.061C360.066 243.591 361.733 248.931 361 255.061C360.453 262.901 359.12 270.571 357 278.061Z" fill="#FECCDF"/>
<path fill-rule="evenodd" clip-rule="evenodd" d="M397 269.062C389.109 274.872 380.443 279.212 371 282.062C377.425 270.892 382.425 259.222 386 247.062C387.42 244.792 389.087 242.632 391 240.562C394.289 239.812 396.789 240.982 398.5 244.062C399.347 252.502 398.847 260.832 397 269.062Z" fill="#FDCADE"/>
<path fill-rule="evenodd" clip-rule="evenodd" d="M273 247.061C278.965 248.471 284.965 249.801 291 251.061C295.78 253.611 300.78 255.951 306 258.061C306.936 259.531 308.27 260.531 310 261.061C312.962 264.521 316.129 267.861 319.5 271.061C320.594 272.641 321.428 274.301 322 276.061C312.159 272.391 302.159 269.221 292 266.561C283.253 266.051 276.42 269.551 271.5 277.061C265.578 289.021 265.578 301.021 271.5 313.061C283.181 322.401 295.347 323.231 308 315.561C314.61 307.171 318.61 297.671 320 287.061C323.63 289.911 327.63 291.911 332 293.061C332.165 296.081 331.998 299.081 331.5 302.061C328.937 305.951 327.437 310.291 327 315.061C323.791 317.791 321.291 321.121 319.5 325.061C300.409 341.181 278.242 348.511 253 347.061C242.312 347.001 231.645 346.501 221 345.561C216.975 343.721 212.975 341.891 209 340.061C204.737 337.511 200.237 335.181 195.5 333.061C190.833 325.731 186.167 318.391 181.5 311.061C180.464 303.761 179.964 296.431 180 289.061C182.929 286.581 185.929 284.081 189 281.561C189.832 280.871 190.498 281.041 191 282.061C187.7 292.181 189.367 301.511 196 310.061C204.74 318.911 214.74 320.411 226 314.561C228.5 312.731 231 310.891 233.5 309.061C235.671 304.721 238.337 300.721 241.5 297.061C243.019 290.381 241.686 284.381 237.5 279.061C236.988 271.211 232.821 266.371 225 264.561C220.4 264.091 215.9 263.261 211.5 262.061C205.102 262.491 198.935 263.821 193 266.061C195 264.731 197 263.391 199 262.061C203.059 259.361 207.393 257.031 212 255.061C216.683 253.721 221.35 252.391 226 251.061C233.726 249.881 241.392 248.381 249 246.561C257.035 245.821 265.035 245.991 273 247.061Z" fill="#F9F8F8"/>
<path fill-rule="evenodd" clip-rule="evenodd" d="M92 268.061C96.409 271.131 101.076 273.791 106 276.061C108.292 277.831 110.958 278.831 114 279.061C121.105 283.321 128.772 285.981 137 287.061C139.913 287.801 142.913 288.301 146 288.561C146.5 289.061 147 289.561 147.5 290.061C148.976 294.401 147.476 296.741 143 297.061C133.987 296.501 125.32 294.501 117 291.061C111.583 289.371 106.25 287.371 101 285.061C91.549 279.581 82.715 273.251 74.5 266.061C70.002 269.801 64.835 270.971 59 269.561C57.056 267.411 56.556 264.911 57.5 262.061C60.762 260.871 63.762 259.211 66.5 257.061C67.039 254.031 67.706 251.031 68.5 248.061C71.762 245.481 75.095 245.481 78.5 248.061C78.833 252.061 79.167 256.061 79.5 260.061C83.55 262.951 87.717 265.621 92 268.061Z" fill="#2A2929"/>
<path fill-rule="evenodd" clip-rule="evenodd" d="M180 289.062C173.435 290.142 171.268 287.472 173.5 281.062C176.667 277.892 179.833 274.732 183 271.562C186.556 269.952 189.889 268.122 193 266.062C198.935 263.822 205.102 262.492 211.5 262.062C215.9 263.262 220.4 264.092 225 264.562C232.821 266.372 236.988 271.212 237.5 279.062C241.686 284.382 243.019 290.382 241.5 297.062C238.337 300.722 235.671 304.722 233.5 309.062C231 310.892 228.5 312.732 226 314.562C214.74 320.412 204.74 318.912 196 310.062C189.367 301.512 187.7 292.182 191 282.062C190.498 281.042 189.832 280.872 189 281.562C185.929 284.082 182.929 286.582 180 289.062Z" fill="#080808"/>
<path fill-rule="evenodd" clip-rule="evenodd" d="M322 276.061C326.081 280.631 330.914 284.301 336.5 287.061C338.068 291.481 336.568 293.481 332 293.061C327.63 291.911 323.63 289.911 320 287.061C318.61 297.671 314.61 307.171 308 315.561C295.347 323.231 283.181 322.401 271.5 313.061C265.578 301.021 265.578 289.021 271.5 277.061C276.42 269.551 283.253 266.051 292 266.561C302.159 269.221 312.159 272.391 322 276.061Z" fill="#060606"/>
<path fill-rule="evenodd" clip-rule="evenodd" d="M219.999 273.062C226.989 271.402 230.989 274.062 231.999 281.062C230.91 287.952 227.077 292.282 220.499 294.062C218.788 294.122 217.455 293.452 216.499 292.062C212.402 284.772 213.569 278.442 219.999 273.062Z" fill="#F5F5F5"/>
<path fill-rule="evenodd" clip-rule="evenodd" d="M282.999 273.061C287.093 272.261 290.26 273.601 292.499 277.061C292.787 281.511 292.121 285.841 290.499 290.061C287.242 292.991 283.408 293.821 278.999 292.561C277.68 290.271 276.18 288.111 274.499 286.061C273.793 283.591 274.126 281.261 275.499 279.061C278.15 277.141 280.65 275.141 282.999 273.061Z" fill="#F3F3F3"/>
<path fill-rule="evenodd" clip-rule="evenodd" d="M389 287.062C387.349 290.532 385.516 293.862 383.5 297.062C375.569 304.332 367.069 310.832 358 316.562C354.025 319.142 349.692 320.642 345 321.062C345.94 317.852 347.44 314.852 349.5 312.062C354.197 305.872 359.031 299.872 364 294.062C366.357 294.222 368.69 294.062 371 293.562C377.087 291.642 383.087 289.472 389 287.062Z" fill="#FDC9DE"/>
<path fill-rule="evenodd" clip-rule="evenodd" d="M117 291.062C125.32 294.502 133.987 296.502 143 297.062C150.444 309.012 158.11 320.842 166 332.562C165.667 332.732 165.333 332.892 165 333.062C160.143 331.122 155.143 329.622 150 328.562C135.988 318.712 124.988 306.212 117 291.062Z" fill="#FEC3DA"/>
<path fill-rule="evenodd" clip-rule="evenodd" d="M290 395.061C254.66 395.241 219.326 394.901 184 394.061C183.211 393.781 182.544 393.281 182 392.561C175.675 392.061 169.342 391.891 163 392.061C163.706 385.871 165.206 379.871 167.5 374.061C167.999 370.411 168.165 366.741 168 363.061C162.686 362.551 158.02 364.051 154 367.561C150.667 368.561 147.333 369.561 144 370.561C138.694 374.221 133.027 377.381 127 380.061C115.823 374.391 106.99 366.051 100.5 355.061C95.8676 336.181 103.035 324.521 122 320.061C126.83 324.061 131.164 328.561 135 333.561C138.504 335.481 141.837 337.641 145 340.061C155.296 344.101 165.963 346.771 177 348.061C181.238 350.521 185.904 351.521 191 351.061C221.953 353.241 252.953 353.581 284 352.061C294.345 351.461 304.678 350.631 315 349.561C315.556 349.181 315.889 348.681 316 348.061C320.333 346.951 324.666 345.951 329 345.061C334.411 344.921 339.411 343.581 344 341.061C355.233 335.171 366.233 328.831 377 322.061C379.725 320.851 382.059 319.011 384 316.561C388.293 315.361 391.793 316.531 394.5 320.061C396.833 323.391 399.167 326.731 401.5 330.061C402.167 334.061 402.167 338.061 401.5 342.061C400.167 346.731 398.833 351.391 397.5 356.061C391.121 365.841 382.621 373.171 372 378.061C364.668 381.331 357.335 384.501 350 387.561C335.546 389.341 321.213 391.671 307 394.561C301.343 395.061 295.676 395.231 290 395.061Z" fill="#49EC87"/>
<path fill-rule="evenodd" clip-rule="evenodd" d="M266 323.062C271.175 322.072 273.009 324.072 271.5 329.062C269 332.892 265.833 336.062 262 338.562C259.243 339.142 256.577 338.812 254 337.562C251.129 335.632 248.129 333.962 245 332.562C242.054 329.072 242.888 326.902 247.5 326.062C251.602 327.442 255.602 329.112 259.5 331.062C262.234 328.832 264.401 326.162 266 323.062Z" fill="#0C0C0C"/>
<path fill-rule="evenodd" clip-rule="evenodd" d="M344 341.062C339.411 343.582 334.411 344.922 329 345.062C333.794 343.362 338.794 342.022 344 341.062Z" fill="#A3B196"/>
<path fill-rule="evenodd" clip-rule="evenodd" d="M177 348.062C181.783 349.072 186.45 350.072 191 351.062C185.904 351.522 181.238 350.522 177 348.062Z" fill="#ADA997"/>
<path fill-rule="evenodd" clip-rule="evenodd" d="M316 348.062C315.889 348.682 315.556 349.182 315 349.562C304.678 350.632 294.345 351.462 284 352.062C284.418 351.342 285.084 350.842 286 350.562C296.08 350.442 306.08 349.602 316 348.062Z" fill="#94BC94"/>
<path fill-rule="evenodd" clip-rule="evenodd" d="M184 394.062C219.326 394.902 254.66 395.242 290 395.062C254.629 397.912 219.296 397.582 184 394.062Z" fill="#74EFAB"/>
</svg>
