<svg width="500" height="500" viewBox="0 0 500 500" fill="none" xmlns="http://www.w3.org/2000/svg">
<path fill-rule="evenodd" clip-rule="evenodd" d="M328.999 266.061C326.829 262.951 324.499 259.781 321.999 256.561C320.329 255.891 318.669 255.891 316.999 256.561C316.109 258.631 315.439 260.801 314.999 263.061C317.909 271.281 321.239 279.281 324.999 287.061C324.999 288.731 324.999 290.391 324.999 292.061C323.329 292.061 321.669 292.061 319.999 292.061C321.279 296.401 322.279 300.741 322.999 305.061C322.269 306.271 321.929 307.601 321.999 309.061C321.019 312.861 320.679 316.861 320.999 321.061C318.649 321.021 317.319 322.181 316.999 324.561C318.179 327.071 319.349 329.571 320.499 332.061C320.999 338.051 321.169 344.051 320.999 350.061C320.689 352.811 321.019 355.471 321.999 358.061C337.329 362.641 351.159 369.971 363.499 380.061C366.189 386.381 365.019 391.881 359.999 396.561C358.629 397.431 357.129 397.931 355.499 398.061C352.369 396.981 349.199 395.981 345.999 395.061C345.669 395.391 345.329 395.731 344.999 396.061C344.479 400.681 344.319 405.341 344.499 410.061C342.709 412.861 340.539 415.361 337.999 417.561C333.949 417.551 329.949 416.881 325.999 415.561C324.499 414.391 322.999 413.231 321.499 412.061C322.439 415.591 323.439 419.251 324.499 423.061C326.239 431.321 322.899 435.321 314.499 435.061C308.389 434.681 303.059 432.341 298.499 428.061C293.429 422.251 289.089 415.911 285.499 409.061C282.999 404.501 281.499 399.671 280.999 394.561C260.059 386.931 240.399 376.931 221.999 364.561C216.089 359.161 210.759 353.321 205.999 347.061C205.029 346.161 204.359 344.991 203.999 343.561C204.579 341.421 204.909 339.261 204.999 337.061C202.669 336.811 200.669 337.471 198.999 339.061C198.079 338.431 197.079 338.101 195.999 338.061C192.249 333.651 188.909 328.981 185.999 324.061C186.839 320.401 187.339 316.731 187.499 313.061C185.379 311.951 183.209 311.951 180.999 313.061C174.349 301.431 169.679 289.101 166.999 276.061C168.099 271.201 170.259 266.871 173.499 263.061C174.789 259.701 173.789 257.701 170.499 257.061C168.079 258.191 165.579 259.191 162.999 260.061C160.789 254.291 159.789 248.291 159.999 242.061C157.849 242.191 155.849 241.691 153.999 240.561C143.789 232.351 134.949 222.851 127.499 212.061C119.049 215.831 110.209 217.001 100.999 215.561C90.6093 209.171 80.7693 202.001 71.4993 194.061C62.6193 175.491 61.6193 156.491 68.4993 137.061C73.7893 125.251 82.7893 118.251 95.4993 116.061C99.3793 117.421 103.219 118.921 106.999 120.561C113.759 133.241 117.759 146.741 118.999 161.061C121.409 161.421 122.909 160.421 123.499 158.061C124.969 147.511 126.469 137.011 127.999 126.561C129.789 126.041 131.459 126.371 132.999 127.561C144.959 136.061 149.959 147.721 147.999 162.561C148.469 175.331 146.139 187.491 140.999 199.061C144.349 208.081 149.349 216.081 155.999 223.061C156.409 213.751 156.579 204.421 156.499 195.061C159.419 180.551 165.089 167.221 173.499 155.061C178.239 149.651 183.569 144.981 189.499 141.061C188.329 134.821 187.999 128.491 188.499 122.061C189.499 119.391 190.999 117.051 192.999 115.061C197.349 111.541 201.189 107.541 204.499 103.061C204.829 91.3911 205.169 79.7311 205.499 68.0611C209.229 64.5111 213.229 64.1811 217.499 67.0611C218.169 79.0611 218.169 91.0611 217.499 103.061C214.479 112.081 209.149 119.411 201.499 125.061C200.059 132.711 202.889 134.881 209.999 131.561C218.539 129.291 226.869 126.291 234.999 122.561C250.369 121.461 265.029 124.131 278.999 130.561C284.249 130.931 286.419 128.431 285.499 123.061C281.079 119.631 277.749 115.301 275.499 110.061C274.929 106.101 273.599 102.441 271.499 99.0611C271.029 94.2211 270.529 89.3911 269.999 84.5611C270.219 79.1111 272.559 74.7811 276.999 71.5611C282.269 70.3511 285.269 72.3511 285.999 77.5611C284.999 80.5611 283.999 83.5611 282.999 86.5611C283.819 93.6711 285.649 100.511 288.499 107.061C292.539 110.761 296.199 114.761 299.499 119.061C300.799 126.311 298.969 132.651 293.999 138.061C302.289 145.181 310.459 152.511 318.499 160.061C324.059 166.631 328.389 173.961 331.499 182.061C334.759 192.851 337.089 203.851 338.499 215.061C342.829 211.391 347.169 207.731 351.499 204.061C351.199 198.591 350.699 193.091 349.999 187.561C350.549 181.401 351.049 175.231 351.499 169.061C354.009 159.201 359.179 151.031 366.999 144.561C371.399 143.321 375.059 140.991 377.999 137.561C379.579 138.871 381.579 139.701 383.999 140.061C382.829 150.051 381.999 160.051 381.499 170.061C382.829 171.391 384.169 171.391 385.499 170.061C392.159 159.411 399.329 149.081 406.999 139.061C409.669 137.801 412.339 136.971 414.999 136.561C419.169 140.061 423.329 143.561 427.499 147.061C429.249 150.231 431.249 153.231 433.499 156.061C434.409 161.881 435.239 167.721 435.999 173.561C432.589 181.471 429.749 189.631 427.499 198.061C425.789 202.431 423.289 206.271 419.999 209.561C408.079 216.321 395.409 219.991 381.999 220.561C381.329 219.891 380.669 219.231 379.999 218.561C372.689 218.471 365.689 217.471 358.999 215.561C358.049 217.521 356.709 219.181 354.999 220.561C347.249 225.141 339.919 230.311 332.999 236.061C331.499 246.021 330.169 256.021 328.999 266.061Z" fill="#FC3736"/>
<path fill-rule="evenodd" clip-rule="evenodd" d="M285 136.061C291.74 137.141 292.74 140.311 288 145.561C285.67 146.231 283.33 146.231 281 145.561C279.7 144.761 279.03 143.591 279 142.061C280.69 139.711 282.69 137.711 285 136.061Z" fill="#3B2523"/>
<path fill-rule="evenodd" clip-rule="evenodd" d="M197 138.061C200.02 137.901 203.02 138.061 206 138.561C207.46 141.641 206.46 143.641 203 144.561C200.33 145.231 197.67 145.231 195 144.561C194.48 144.001 194.14 143.331 194 142.561C194.81 140.921 195.81 139.421 197 138.061Z" fill="#352322"/>
<path fill-rule="evenodd" clip-rule="evenodd" d="M306.001 199.061C303.361 196.741 300.361 194.901 297.001 193.561C292.401 193.101 288.071 191.761 284.001 189.561C268.261 184.621 258.091 190.121 253.501 206.061C250.881 227.101 260.051 236.601 281.001 234.561C285.741 233.441 289.571 230.941 292.501 227.061C294.501 222.391 296.501 217.731 298.501 213.061C298.831 210.061 299.171 207.061 299.501 204.061C302.711 206.831 306.211 208.831 310.001 210.061C309.721 217.981 308.221 225.651 305.501 233.061C297.751 243.521 287.581 250.351 275.001 253.561C264.661 255.501 254.331 257.341 244.001 259.061C234.721 257.041 225.391 255.201 216.001 253.561C206.081 248.931 196.411 243.771 187.001 238.061C183.431 232.801 180.591 227.141 178.501 221.061C178.051 217.371 178.221 213.711 179.001 210.061C180.671 207.561 182.841 205.561 185.501 204.061C185.071 208.011 185.071 212.011 185.501 216.061C191.021 234.621 202.521 239.451 220.001 230.561C224.331 226.731 227.831 222.231 230.501 217.061C231.171 213.391 231.171 209.731 230.501 206.061C228.321 202.691 226.981 199.031 226.501 195.061C220.531 188.951 213.201 186.281 204.501 187.061C197.601 187.271 191.101 188.941 185.001 192.061C211.431 168.471 241.431 162.971 275.001 175.561C281.131 178.941 287.461 181.941 294.001 184.561C299.691 188.071 303.691 192.901 306.001 199.061Z" fill="#F9F7F7"/>
<path fill-rule="evenodd" clip-rule="evenodd" d="M178.999 210.061C172.489 212.821 169.989 210.821 171.499 204.061C174.929 198.801 179.429 194.801 184.999 192.061C191.099 188.941 197.599 187.271 204.499 187.061C213.199 186.281 220.529 188.951 226.499 195.061C226.979 199.031 228.319 202.691 230.499 206.061C231.169 209.731 231.169 213.391 230.499 217.061C227.829 222.231 224.329 226.731 219.999 230.561C202.519 239.451 191.019 234.621 185.499 216.061C185.069 212.011 185.069 208.011 185.499 204.061C182.839 205.561 180.669 207.561 178.999 210.061Z" fill="#070505"/>
<path fill-rule="evenodd" clip-rule="evenodd" d="M306.001 199.061C308.681 201.161 311.511 203.161 314.501 205.061C315.001 208.401 313.501 210.061 310.001 210.061C306.211 208.831 302.711 206.831 299.501 204.061C299.171 207.061 298.831 210.061 298.501 213.061C296.501 217.731 294.501 222.391 292.501 227.061C289.571 230.941 285.741 233.441 281.001 234.561C260.051 236.601 250.881 227.101 253.501 206.061C258.091 190.121 268.261 184.621 284.001 189.561C288.071 191.761 292.401 193.101 297.001 193.561C300.361 194.901 303.361 196.741 306.001 199.061Z" fill="#070606"/>
<path fill-rule="evenodd" clip-rule="evenodd" d="M267 194.061C273.83 193.391 276.66 196.391 275.5 203.061C274.58 205.681 273.41 208.181 272 210.561C269.33 211.231 266.67 211.231 264 210.561C259.89 207.051 259.05 202.881 261.5 198.061C263.67 197.071 265.5 195.741 267 194.061Z" fill="#F7F7F7"/>
<path fill-rule="evenodd" clip-rule="evenodd" d="M213 195.061C219.13 194.281 222.13 196.951 222 203.061C221.58 208.811 218.58 212.481 213 214.061C208.92 212.761 206.92 209.921 207 205.561C207.35 201.011 209.35 197.511 213 195.061Z" fill="#F6F6F6"/>
<path fill-rule="evenodd" clip-rule="evenodd" d="M254.999 237.061C258.729 237.341 259.889 239.341 258.499 243.061C256.369 246.191 253.869 249.021 250.999 251.561C244.819 251.221 239.319 249.061 234.499 245.061C233.729 241.831 235.059 240.501 238.499 241.061C241.779 241.941 244.949 243.281 247.999 245.061C250.329 242.401 252.659 239.741 254.999 237.061Z" fill="#0C0C0C"/>
<path fill-rule="evenodd" clip-rule="evenodd" d="M329 266.061C331.39 272.401 333.89 278.731 336.5 285.061C336.83 288.061 337.17 291.061 337.5 294.061C340.05 298.711 341.55 303.711 342 309.061C346.8 307.371 350.63 308.701 353.5 313.061C353.99 319.081 351.15 322.081 345 322.061C342.32 319.291 339.15 318.621 335.5 320.061C335.02 321.011 334.85 322.011 335 323.061C332.96 325.291 330.63 325.621 328 324.061C327.33 324.061 327 323.731 327 323.061C326.03 321.491 325.86 319.831 326.5 318.061C327.83 315.901 329.33 313.901 331 312.061C331.34 306.461 330.68 301.131 329 296.061C328.51 293.741 327.51 291.741 326 290.061C326.24 288.771 325.9 287.771 325 287.061C321.24 279.281 317.91 271.281 315 263.061C315.44 260.801 316.11 258.631 317 256.561C318.67 255.891 320.33 255.891 322 256.561C324.5 259.781 326.83 262.951 329 266.061Z" fill="#262526"/>
<path fill-rule="evenodd" clip-rule="evenodd" d="M166.999 276.061C165.709 276.621 164.879 277.621 164.499 279.061C163.499 283.061 162.499 287.061 161.499 291.061C161.469 298.021 160.639 304.851 158.999 311.561C161.109 313.401 162.949 315.561 164.499 318.061C165.819 320.971 166.149 323.971 165.499 327.061C164.109 328.111 162.609 328.281 160.999 327.561C159.139 324.701 156.969 322.201 154.499 320.061C151.719 321.361 148.889 322.531 145.999 323.561C144.059 324.301 142.229 324.141 140.499 323.061C140.059 315.961 143.229 310.961 149.999 308.061C150.829 302.761 151.329 297.421 151.499 292.061C155.249 281.311 159.079 270.641 162.999 260.061C165.579 259.191 168.079 258.191 170.499 257.061C173.789 257.701 174.789 259.701 173.499 263.061C170.259 266.871 168.099 271.201 166.999 276.061Z" fill="#252526"/>
<path fill-rule="evenodd" clip-rule="evenodd" d="M325 287.061C325.9 287.771 326.24 288.771 326 290.061C325.84 291.761 326.01 293.431 326.5 295.061C327.17 295.811 328 296.151 329 296.061C330.68 301.131 331.34 306.461 331 312.061C328.96 309.021 326.29 306.681 323 305.061C322.28 300.741 321.28 296.401 320 292.061C321.67 292.061 323.33 292.061 325 292.061C325 290.391 325 288.731 325 287.061Z" fill="#C73131"/>
<path fill-rule="evenodd" clip-rule="evenodd" d="M186.001 324.061C185.171 332.221 184.671 340.551 184.501 349.061C182.291 350.311 180.121 350.141 178.001 348.561C176.831 346.731 175.671 344.891 174.501 343.061C173.581 332.321 175.741 322.321 181.001 313.061C183.211 311.951 185.381 311.951 187.501 313.061C187.341 316.731 186.841 320.401 186.001 324.061Z" fill="#CA3030"/>
<path fill-rule="evenodd" clip-rule="evenodd" d="M322 309.061C321.83 313.071 322 317.071 322.5 321.061C323.83 322.141 325.33 322.811 327 323.061C327 323.731 327.33 324.061 328 324.061C334.7 331.471 338.7 340.131 340 350.061C338.63 350.221 337.29 350.051 336 349.561C331.38 344.151 326.88 338.651 322.5 333.061C322.33 338.911 321.83 344.571 321 350.061C321.17 344.051 321 338.051 320.5 332.061C319.35 329.571 318.18 327.071 317 324.561C317.32 322.181 318.65 321.021 321 321.061C320.68 316.861 321.02 312.861 322 309.061Z" fill="#CB2E2F"/>
<path fill-rule="evenodd" clip-rule="evenodd" d="M345 322.061C344.86 325.391 343.36 327.721 340.5 329.061C339.39 328.971 338.39 328.641 337.5 328.061C336.74 326.251 335.91 324.581 335 323.061C334.85 322.011 335.02 321.011 335.5 320.061C339.15 318.621 342.32 319.291 345 322.061Z" fill="#C52D2D"/>
<path fill-rule="evenodd" clip-rule="evenodd" d="M206 347.061C204.2 353.661 203.36 360.661 203.5 368.061C202.63 370.951 200.8 372.121 198 371.561C195.1 367.931 193.77 363.761 194 359.061C194.19 352.791 195.52 346.791 198 341.061C197.31 340.041 196.64 339.041 196 338.061C197.08 338.101 198.08 338.431 199 339.061C200.67 337.471 202.67 336.811 205 337.061C204.91 339.261 204.58 341.421 204 343.561C204.36 344.991 205.03 346.161 206 347.061Z" fill="#C82F2F"/>
</svg>
