<svg width="500" height="500" viewBox="0 0 500 500" fill="none" xmlns="http://www.w3.org/2000/svg">
<path fill-rule="evenodd" clip-rule="evenodd" d="M439 229.062C436.8 235.132 433.8 240.792 430 246.062C429.02 242.942 428.69 239.602 429 236.062C428.89 227.472 427.39 219.142 424.5 211.062C421.02 204.092 417.52 197.092 414 190.062C412.56 188.612 410.89 187.612 409 187.062C405.42 180.982 400.42 176.482 394 173.562C392.37 173.072 390.7 172.902 389 173.062C385.72 170.282 382.05 168.122 378 166.562C355.07 160.322 331.74 158.322 308 160.562C305.79 160.732 303.79 161.402 302 162.562C289.33 162.892 276.67 163.232 264 163.562C262.29 164.692 261.79 166.192 262.5 168.062C265.95 170.642 268.12 173.982 269 178.062C264.67 178.062 260.33 178.062 256 178.062C253.88 177.892 251.88 178.222 250 179.062C237.09 183.842 223.76 185.672 210 184.562C207.47 184.052 205.31 182.882 203.5 181.062C202.73 181.202 202.06 181.542 201.5 182.062C200.95 184.982 201.62 187.652 203.5 190.062C211.4 198.592 220.9 204.422 232 207.562C226.99 208.142 221.99 208.812 217 209.562C195.22 209.762 173.55 210.922 152 213.062C145.74 211.502 139.41 211.002 133 211.562C131.07 216.032 132.07 219.692 136 222.562C142.87 226.502 149.87 230.162 157 233.562C151.84 234.562 146.68 235.392 141.5 236.062C133.41 234.402 125.24 233.902 117 234.562C115.06 236.462 112.73 237.302 110 237.062C109.84 239.092 110 241.092 110.5 243.062C110.89 243.992 111.55 244.652 112.5 245.062C122.07 247.642 131.57 250.472 141 253.562C152.65 259.722 164.99 263.892 178 266.062C189.51 264.462 200.84 265.302 212 268.562C207.38 269.522 202.71 270.182 198 270.562C196.01 272.312 193.68 273.312 191 273.562C183.67 273.892 176.33 274.232 169 274.562C167.7 275.362 167.03 276.532 167 278.062C169.16 280.392 171.16 282.892 173 285.562C192.67 291.562 212.67 296.562 233 300.562C233.33 300.892 233.67 301.232 234 301.562C227.08 305.942 220.25 310.442 213.5 315.062C211.35 317.782 211.52 320.282 214 322.562C230.66 322.132 247.32 322.132 264 322.562C282.71 328.312 301.71 333.312 321 337.562C339.23 341.552 357.23 340.882 375 335.562C385.04 330.162 395.04 324.832 405 319.562C406.62 318.262 407.96 316.762 409 315.062C408.46 313.702 408.29 312.362 408.5 311.062C412.3 307.112 415.46 302.782 418 298.062C420.83 292.772 423.67 287.432 426.5 282.062C427.72 276.462 428.22 270.792 428 265.062C432.32 262.412 435.98 259.072 439 255.062C438.92 267.982 437.08 280.642 433.5 293.062C431.44 297.522 429.1 301.852 426.5 306.062C418.66 313.902 411.16 322.072 404 330.562C400.61 333.612 396.95 336.282 393 338.562C386.17 340.842 379.51 343.502 373 346.562C354.68 350.792 336.01 352.122 317 350.562C297.14 346.312 277.48 341.312 258 335.562C245.76 334.842 233.76 332.842 222 329.562C210.98 329.182 199.98 328.512 189 327.562C185.47 324.852 184.3 321.352 185.5 317.062C189.03 311.862 193.86 308.692 200 307.562C192.12 305.132 184.12 303.132 176 301.562C161.28 299.852 146.62 297.852 132 295.562C125.87 294.152 123.7 290.312 125.5 284.062C128 281.562 130.5 279.062 133 276.562C138.8 273.902 144.8 271.742 151 270.062C116.55 253.042 80.21 247.042 42 252.062C34.41 252.302 31.25 248.642 32.5 241.062C37.08 237.022 42.25 233.852 48 231.562C54.37 229.722 60.7 227.722 67 225.562C78.33 225.632 89.66 225.632 101 225.562C96.16 222.642 91.16 219.972 86 217.562C72.98 203.922 75.82 196.762 94.5 196.062C105.31 196.772 116.15 196.772 127 196.062C147.03 197.142 167.03 198.312 187 199.562C178.5 193.472 169.5 188.142 160 183.562C157.1 180.402 157.43 177.742 161 175.562C172.08 174.042 183.08 172.042 194 169.562C203.01 169.062 212.01 169.232 221 170.062C229.81 169.632 238.48 168.302 247 166.062C242.62 160.822 243.29 156.322 249 152.562C257.67 152.022 266.34 152.192 275 153.062C292.42 150.682 309.92 149.022 327.5 148.062C337.78 148.192 347.95 149.362 358 151.562C364.41 154.202 371.08 155.862 378 156.562C414.06 167.452 434.39 191.622 439 229.062Z" fill="#FE923E"/>
<path fill-rule="evenodd" clip-rule="evenodd" d="M389 173.061C383.42 173.021 378.42 171.191 374 167.561C335.15 158.811 301.65 168.311 273.5 196.061C271.44 198.461 269.77 201.131 268.5 204.061C268.01 202.771 267.84 201.431 268 200.061C268.8 197.881 270.3 196.211 272.5 195.061C275.12 189.911 276.45 184.571 276.5 179.061C275.03 177.241 273.2 176.741 271 177.561C266.24 187.351 261.24 187.521 256 178.061C260.33 178.061 264.67 178.061 269 178.061C268.12 173.981 265.95 170.641 262.5 168.061C261.79 166.191 262.29 164.691 264 163.561C276.67 163.231 289.33 162.891 302 162.561C303.79 161.401 305.79 160.731 308 160.561C331.74 158.321 355.07 160.321 378 166.561C382.05 168.121 385.72 170.281 389 173.061Z" fill="#FBC835"/>
<path fill-rule="evenodd" clip-rule="evenodd" d="M268 200.062C266.9 206.962 266.07 213.962 265.5 221.062C267.52 234.092 271.52 246.422 277.5 258.062C278.17 261.062 278.17 264.062 277.5 267.062C273.9 269.912 270.9 269.252 268.5 265.062C264.86 254.972 261.36 244.972 258 235.062C254.96 222.702 254.3 210.202 256 197.562C252.76 194.992 250.26 191.822 248.5 188.062C247.71 184.822 248.21 181.822 250 179.062C251.88 178.222 253.88 177.892 256 178.062C261.24 187.522 266.24 187.352 271 177.562C273.2 176.742 275.03 177.242 276.5 179.062C276.45 184.572 275.12 189.912 272.5 195.062C270.3 196.212 268.8 197.882 268 200.062Z" fill="#282724"/>
<path fill-rule="evenodd" clip-rule="evenodd" d="M439 255.062C435.98 259.072 432.32 262.412 428 265.062C426.11 265.262 424.61 264.602 423.5 263.062C423.06 260.712 422.56 258.382 422 256.062C423.93 252.132 426.6 248.802 430 246.062C433.8 240.792 436.8 235.132 439 229.062C444.64 219.182 447.47 208.512 447.5 197.062C442.12 192.972 440.12 187.642 441.5 181.062C442.97 179.242 444.8 178.742 447 179.562C449.17 182.782 451.67 185.612 454.5 188.062C456.99 186.912 458.82 185.072 460 182.562C463.68 181.252 466.01 182.412 467 186.062C465.83 189.732 463.66 192.732 460.5 195.062C457.39 216.552 450.23 236.552 439 255.062Z" fill="#292828"/>
<path fill-rule="evenodd" clip-rule="evenodd" d="M249.999 179.062C248.209 181.822 247.709 184.822 248.499 188.062C250.259 191.822 252.759 194.992 255.999 197.562C254.299 210.202 254.959 222.702 257.999 235.062C254.139 263.982 260.979 289.982 278.499 313.062C283.999 317.232 289.499 321.392 294.999 325.562C303.299 327.822 311.629 330.162 319.999 332.562C323.859 333.212 327.699 333.042 331.499 332.062C335.009 333.492 338.669 334.152 342.499 334.062C352.989 332.152 363.489 330.312 373.999 328.562C377.089 327.142 379.089 324.802 379.999 321.562C393.099 314.262 405.769 306.432 417.999 298.062C415.459 302.782 412.299 307.112 408.499 311.062C408.289 312.362 408.459 313.702 408.999 315.062C407.959 316.762 406.619 318.262 404.999 319.562C395.039 324.832 385.039 330.162 374.999 335.562C357.229 340.882 339.229 341.552 320.999 337.562C301.709 333.312 282.709 328.312 263.999 322.562C247.319 322.132 230.659 322.132 213.999 322.562C211.519 320.282 211.349 317.782 213.499 315.062C220.249 310.442 227.079 305.942 233.999 301.562C233.669 301.232 233.329 300.892 232.999 300.562C212.669 296.562 192.669 291.562 172.999 285.562C171.159 282.892 169.159 280.392 166.999 278.062C167.029 276.532 167.699 275.362 168.999 274.562C176.329 274.232 183.669 273.892 190.999 273.562C193.679 273.312 196.009 272.312 197.999 270.562C202.709 270.182 207.379 269.522 211.999 268.562C200.839 265.302 189.509 264.462 177.999 266.062C164.989 263.892 152.649 259.722 140.999 253.562C131.569 250.472 122.069 247.642 112.499 245.062C111.549 244.652 110.889 243.992 110.499 243.062C109.999 241.092 109.839 239.092 109.999 237.062C112.729 237.302 115.059 236.462 116.999 234.562C125.239 233.902 133.409 234.402 141.499 236.062C146.679 235.392 151.839 234.562 156.999 233.562C149.869 230.162 142.869 226.502 135.999 222.562C132.069 219.692 131.069 216.032 132.999 211.562C139.409 211.002 145.739 211.502 151.999 213.062C173.549 210.922 195.219 209.762 216.999 209.562C221.989 208.812 226.989 208.142 231.999 207.562C220.899 204.422 211.399 198.592 203.499 190.062C201.619 187.652 200.949 184.982 201.499 182.062C202.059 181.542 202.729 181.202 203.499 181.062C205.309 182.882 207.469 184.052 209.999 184.562C223.759 185.672 237.089 183.842 249.999 179.062Z" fill="#FEC932"/>
<path fill-rule="evenodd" clip-rule="evenodd" d="M409 187.062C410.89 187.612 412.56 188.612 414 190.062C417.52 197.092 421.02 204.092 424.5 211.062C427.39 219.142 428.89 227.472 429 236.062C427.69 230.482 426.19 224.812 424.5 219.062C419.6 208.252 414.43 197.592 409 187.062Z" fill="#FBC43A"/>
<path fill-rule="evenodd" clip-rule="evenodd" d="M389 173.061C390.7 172.901 392.37 173.071 394 173.561C400.42 176.481 405.42 180.981 409 187.061C414.43 197.591 419.6 208.251 424.5 219.061C426.19 224.811 427.69 230.481 429 236.061C428.69 239.601 429.02 242.941 430 246.061C426.6 248.801 423.93 252.131 422 256.061C422.56 258.381 423.06 260.711 423.5 263.061C424.61 264.601 426.11 265.261 428 265.061C428.22 270.791 427.72 276.461 426.5 282.061C423.67 287.431 420.83 292.771 418 298.061C405.77 306.431 393.1 314.261 380 321.561C379.09 324.801 377.09 327.141 374 328.561C363.49 330.311 352.99 332.151 342.5 334.061C338.67 334.151 335.01 333.491 331.5 332.061C327.7 333.041 323.86 333.211 320 332.561C311.63 330.161 303.3 327.821 295 325.561C289.5 321.391 284 317.231 278.5 313.061C260.98 289.981 254.14 263.981 258 235.061C261.36 244.971 264.86 254.971 268.5 265.061C270.9 269.251 273.9 269.911 277.5 267.061C278.17 264.061 278.17 261.061 277.5 258.061C271.52 246.421 267.52 234.091 265.5 221.061C266.07 213.961 266.9 206.961 268 200.061C267.84 201.431 268.01 202.771 268.5 204.061C269.77 201.131 271.44 198.461 273.5 196.061C301.65 168.311 335.15 158.811 374 167.561C378.42 171.191 383.42 173.021 389 173.061Z" fill="#959594"/>
<path fill-rule="evenodd" clip-rule="evenodd" d="M289.999 259.062C288.719 256.952 288.219 254.622 288.499 252.062C290.769 248.522 293.269 245.182 295.999 242.062C301.349 238.382 307.009 235.222 312.999 232.562C319.399 231.742 325.739 232.082 331.999 233.562C333.579 234.272 335.079 235.102 336.499 236.062C338.309 240.362 340.649 244.362 343.499 248.062C344.719 264.932 336.879 274.602 319.999 277.062C310.009 274.572 303.839 268.232 301.499 258.062C301.249 255.362 301.249 252.692 301.499 250.062C298.959 252.262 296.789 254.762 294.999 257.562C293.479 258.572 291.809 259.072 289.999 259.062Z" fill="#060606"/>
<path fill-rule="evenodd" clip-rule="evenodd" d="M327 238.062C335.31 240.432 337.14 245.432 332.5 253.062C325.99 257.732 321.83 256.072 320 248.062C320.88 243.612 323.21 240.282 327 238.062Z" fill="#F2F2F2"/>
<path fill-rule="evenodd" clip-rule="evenodd" d="M396.999 226.062C400.209 226.842 403.549 227.682 406.999 228.562C410.719 231.092 414.719 233.092 418.999 234.562C420.229 236.052 420.229 237.552 418.999 239.062C414.089 239.692 409.589 238.692 405.499 236.062C406.329 244.462 404.659 252.462 400.499 260.062C391.859 268.882 382.029 270.382 370.999 264.562C363.119 254.182 361.959 243.012 367.499 231.062C373.479 224.292 380.979 222.132 389.999 224.562C392.369 225.002 394.699 225.502 396.999 226.062Z" fill="#070706"/>
<path fill-rule="evenodd" clip-rule="evenodd" d="M375.001 230.061C378.151 229.521 380.651 230.521 382.501 233.061C383.171 236.731 383.171 240.391 382.501 244.061C377.371 248.521 373.031 247.851 369.501 242.061C368.831 240.061 368.831 238.061 369.501 236.061C371.541 234.191 373.371 232.191 375.001 230.061Z" fill="#F2F2F2"/>
<path fill-rule="evenodd" clip-rule="evenodd" d="M397 226.061C394.7 225.501 392.37 225.001 390 224.561C380.98 222.131 373.48 224.291 367.5 231.061C361.96 243.011 363.12 254.181 371 264.561C382.03 270.381 391.86 268.881 400.5 260.061C404.66 252.461 406.33 244.461 405.5 236.061C409.59 238.691 414.09 239.691 419 239.061C419.62 239.171 420.12 239.501 420.5 240.061C420.72 247.401 420.39 254.731 419.5 262.061C416.79 269.771 411.62 275.271 404 278.561C384.55 285.321 364.55 289.491 344 291.061C327.73 290.691 312.73 286.191 299 277.561C293.03 272.831 290.03 266.661 290 259.061C291.81 259.071 293.48 258.571 295 257.561C296.79 254.761 298.96 252.261 301.5 250.061C301.25 252.691 301.25 255.361 301.5 258.061C303.84 268.231 310.01 274.571 320 277.061C336.88 274.601 344.72 264.931 343.5 248.061C340.65 244.361 338.31 240.361 336.5 236.061C335.08 235.101 333.58 234.271 332 233.561C325.74 232.081 319.4 231.741 313 232.561C307.01 235.221 301.35 238.381 296 242.061C295.56 242.131 295.23 241.961 295 241.561C298.25 236.301 302.25 231.641 307 227.561C312.67 224.731 318 221.391 323 217.561C327.03 215.051 331.36 213.381 336 212.561C359.32 209.061 380.99 213.391 401 225.561C399.71 226.051 398.37 226.221 397 226.061Z" fill="#FBFBF9"/>
<path fill-rule="evenodd" clip-rule="evenodd" d="M369 272.062C371.74 271.642 373.08 272.802 373 275.562C371.58 283.672 366.91 287.002 359 285.562C356.71 284.742 354.38 284.072 352 283.562C351.09 281.862 350.76 280.032 351 278.062C355.46 278.152 359.79 278.652 364 279.562C365.8 277.122 367.47 274.622 369 272.062Z" fill="#0C0C0C"/>
</svg>
