<svg width="500" height="500" viewBox="0 0 500 500" fill="none" xmlns="http://www.w3.org/2000/svg">
<path fill-rule="evenodd" clip-rule="evenodd" d="M354 183.061C348.17 188.061 342.84 193.561 338 199.561C337.41 200.021 336.74 200.191 336 200.061C335.72 189.641 334.72 179.311 333 169.061C334.65 167.901 336.48 167.231 338.5 167.061C340.98 167.891 343.48 168.061 346 167.561C347.5 164.731 346.67 162.901 343.5 162.061C339.67 161.121 336 160.791 332.5 161.061C331.05 152.801 329.22 144.641 327 136.561C327.43 135.131 328.26 133.961 329.5 133.061C330.17 132.061 330.17 131.061 329.5 130.061C327.83 129.391 326.17 128.731 324.5 128.061C320.52 116.441 314.86 105.781 307.5 96.0611C307.18 91.2611 304.85 89.9311 300.5 92.0611C299.81 94.1311 299.98 96.1311 301 98.0611C297.05 99.2711 293.05 100.271 289 101.061C286.06 92.4311 285.39 83.6011 287 74.5611C285.19 70.0711 283.02 69.9111 280.5 74.0611C279.77 83.4711 280.27 92.8011 282 102.061C274.34 103.141 266.68 104.141 259 105.061C260.87 94.1111 262.04 83.1111 262.5 72.0611C261.19 69.9011 259.52 69.5711 257.5 71.0611C256.05 82.4611 254.55 94.1311 253 106.061C244.69 106.801 236.35 107.131 228 107.061C228.49 95.9411 231.15 85.4411 236 75.5611C234.53 71.7311 232.36 71.2311 229.5 74.0611C225.28 84.6511 222.78 95.6511 222 107.061C214.7 107.861 207.36 108.201 200 108.061C201.53 100.341 204.19 93.0011 208 86.0611C207.07 83.6111 205.41 82.7811 203 83.5611C198.74 90.1611 195.74 97.3311 194 105.061C193.67 105.391 193.33 105.731 193 106.061C189.15 102.401 185.49 102.401 182 106.061C185.49 108.311 188.82 110.811 192 113.561C189.78 120.621 187.94 127.791 186.5 135.061C184.63 136.231 182.8 136.071 181 134.561C178.96 132.191 176.63 130.191 174 128.561C168.52 127.371 166.52 129.371 168 134.561C169.28 135.241 170.45 135.081 171.5 134.061C174.93 138.691 179.43 141.691 185 143.061C183.44 149.711 181.94 156.381 180.5 163.061C180.17 163.391 179.83 163.731 179.5 164.061C173.68 162.801 167.85 161.461 162 160.061C158.48 160.611 157.48 162.441 159 165.561C165.99 167.391 172.99 169.061 180 170.561C178.13 177.001 177.46 183.501 178 190.061C176.96 192.301 176.8 194.631 177.5 197.061C178.86 197.941 180.36 198.271 182 198.061C179.43 204.791 178.43 211.791 179 219.061C171.98 206.181 163.15 194.511 152.5 184.061C151.32 180.061 149.16 176.721 146 174.061C147.7 172.221 149.36 170.391 151 168.561C145.16 157.121 147.66 147.951 158.5 141.061C158 135.781 158 130.441 158.5 125.061C160.45 120.781 163.45 117.451 167.5 115.061C166.61 106.051 169.78 98.8911 177 93.5611C180.04 91.5511 183.37 90.7211 187 91.0611C186.82 76.9011 193.82 68.9011 208 67.0611C212.72 57.7011 220.38 53.5311 231 54.5611C236.38 49.4611 242.71 47.7911 250 49.5611C252.55 51.0011 255.22 52.1711 258 53.0611C272.11 48.4911 282.78 52.6511 290 65.5611C302.82 66.0611 310.32 72.5611 312.5 85.0611C321.79 90.2911 326.45 98.2911 326.5 109.061C333.63 114.661 336.97 122.001 336.5 131.061C345.91 137.881 349.08 146.881 346 158.061C349.05 161.811 351.89 165.811 354.5 170.061C355.13 174.431 354.96 178.761 354 183.061Z" fill="#FED237"/>
<path fill-rule="evenodd" clip-rule="evenodd" d="M336 200.061C331.34 206.051 326.34 211.721 321 217.061C320.84 210.911 319.84 204.911 318 199.061C322.01 199.551 323.84 197.881 323.5 194.061C317.87 190.921 312.71 187.251 308 183.061C303.13 175.281 296.13 170.451 287 168.561C277.31 167.061 267.65 165.391 258 163.561C242.9 162.451 228.24 164.451 214 169.561C211.11 170.831 208.44 172.331 206 174.061C194.77 176.331 185.44 181.671 178 190.061C177.46 183.501 178.13 177.001 180 170.561C172.99 169.061 165.99 167.391 159 165.561C157.48 162.441 158.48 160.611 162 160.061C167.85 161.461 173.68 162.801 179.5 164.061C179.83 163.731 180.17 163.391 180.5 163.061C181.94 156.381 183.44 149.711 185 143.061C179.43 141.691 174.93 138.691 171.5 134.061C170.45 135.081 169.28 135.241 168 134.561C166.52 129.371 168.52 127.371 174 128.561C176.63 130.191 178.96 132.191 181 134.561C182.8 136.071 184.63 136.231 186.5 135.061C187.94 127.791 189.78 120.621 192 113.561C188.82 110.811 185.49 108.311 182 106.061C185.49 102.401 189.15 102.401 193 106.061C193.33 105.731 193.67 105.391 194 105.061C195.74 97.3312 198.74 90.1612 203 83.5612C205.41 82.7812 207.07 83.6112 208 86.0612C204.19 93.0012 201.53 100.341 200 108.061C207.36 108.201 214.7 107.861 222 107.061C222.78 95.6512 225.28 84.6512 229.5 74.0612C232.36 71.2312 234.53 71.7312 236 75.5612C231.15 85.4412 228.49 95.9412 228 107.061C236.35 107.131 244.69 106.801 253 106.061C254.55 94.1312 256.05 82.4612 257.5 71.0612C259.52 69.5712 261.19 69.9012 262.5 72.0612C262.04 83.1112 260.87 94.1112 259 105.061C266.68 104.141 274.34 103.141 282 102.061C280.27 92.8012 279.77 83.4712 280.5 74.0612C283.02 69.9112 285.19 70.0712 287 74.5612C285.39 83.6012 286.06 92.4312 289 101.061C293.05 100.271 297.05 99.2712 301 98.0612C299.98 96.1312 299.81 94.1312 300.5 92.0612C304.85 89.9312 307.18 91.2612 307.5 96.0612C314.86 105.781 320.52 116.441 324.5 128.061C326.17 128.731 327.83 129.391 329.5 130.061C330.17 131.061 330.17 132.061 329.5 133.061C328.26 133.961 327.43 135.131 327 136.561C329.22 144.641 331.05 152.801 332.5 161.061C336 160.791 339.67 161.121 343.5 162.061C346.67 162.901 347.5 164.731 346 167.561C343.48 168.061 340.98 167.891 338.5 167.061C336.48 167.231 334.65 167.901 333 169.061C334.72 179.311 335.72 189.641 336 200.061Z" fill="#FECF33"/>
<path fill-rule="evenodd" clip-rule="evenodd" d="M308.001 183.061C301.201 181.401 294.531 179.241 288.001 176.561C274.441 174.271 265.601 179.771 261.501 193.061C258.171 216.061 268.001 226.231 291.001 223.561C294.741 221.821 297.911 219.321 300.501 216.061C305.171 208.901 307.671 201.231 308.001 193.061C311.141 195.621 314.471 197.621 318.001 199.061C319.841 204.911 320.841 210.911 321.001 217.061C315.691 223.211 310.521 229.541 305.501 236.061C303.321 239.751 301.161 243.421 299.001 247.061C296.281 249.031 293.281 250.531 290.001 251.561C280.801 253.601 271.801 256.271 263.001 259.561C251.741 261.461 240.411 262.301 229.001 262.061C229.411 257.841 231.751 255.341 236.001 254.561C239.481 251.791 240.981 248.291 240.501 244.061C239.541 242.671 238.211 242.001 236.501 242.061C233.201 242.891 229.861 243.551 226.501 244.061C223.211 242.431 219.711 241.931 216.001 242.561C213.011 247.141 213.511 251.301 217.501 255.061C218.281 256.951 218.111 258.611 217.001 260.061C211.291 260.161 205.961 258.821 201.001 256.061C197.941 254.651 195.771 252.311 194.501 249.061C189.561 238.851 184.401 228.851 179.001 219.061C178.431 211.791 179.431 204.791 182.001 198.061C185.621 195.611 189.121 192.941 192.501 190.061C192.351 193.051 191.851 196.051 191.001 199.061C192.061 203.421 193.231 207.751 194.501 212.061C197.651 215.541 201.151 218.711 205.001 221.561C222.881 224.291 234.211 216.961 239.001 199.561C237.241 193.211 235.071 187.041 232.501 181.061C230.771 178.941 228.601 177.441 226.001 176.561C219.471 174.621 212.801 173.781 206.001 174.061C208.441 172.331 211.111 170.831 214.001 169.561C228.241 164.451 242.901 162.451 258.001 163.561C267.651 165.391 277.311 167.061 287.001 168.561C296.131 170.451 303.131 175.281 308.001 183.061Z" fill="#FCFBFA"/>
<path fill-rule="evenodd" clip-rule="evenodd" d="M146 174.061C149.16 176.721 151.32 180.061 152.5 184.061C163.15 194.511 171.98 206.181 179 219.061C184.4 228.851 189.56 238.851 194.5 249.061C195.77 252.311 197.94 254.651 201 256.061C202.57 260.881 204.91 265.211 208 269.061C200.45 277.511 191.45 284.011 181 288.561C177.67 289.231 174.33 289.231 171 288.561C168.37 286.411 165.37 285.081 162 284.561C159.97 281.881 157.31 280.211 154 279.561C150.74 276.971 148.24 273.801 146.5 270.061C143.83 267.391 141.17 267.391 138.5 270.061C137.83 272.731 137.83 275.391 138.5 278.061C148.17 287.811 159 295.971 171 302.561C178.6 303.601 185.6 301.941 192 297.561C199.46 291.931 206.46 285.761 213 279.061C222.16 298.701 231.32 318.371 240.5 338.061C242.5 344.731 244.5 351.391 246.5 358.061C259.74 318.931 277.24 281.931 299 247.061C301.16 243.421 303.32 239.751 305.5 236.061C310.52 229.541 315.69 223.211 321 217.061C326.34 211.721 331.34 206.051 336 200.061C336.74 200.191 337.41 200.021 338 199.561C342.84 193.561 348.17 188.061 354 183.061C383.18 162.001 396.02 169.671 392.5 206.061C386.47 238.851 377.97 270.851 367 302.061C365.95 287.501 363.45 273.171 359.5 259.061C358.54 257.671 357.21 257.001 355.5 257.061C351.86 257.321 348.53 258.321 345.5 260.061C344.83 261.731 344.83 263.391 345.5 265.061C347.39 266.591 348.39 268.591 348.5 271.061C352.85 288.811 355.35 306.811 356 325.061C347.08 339.161 336.42 352.001 324 363.561C318.16 367.251 312.49 371.081 307 375.061C302.31 376.241 297.98 378.241 294 381.061C293.07 382.251 292.74 383.581 293 385.061C289.35 386.551 285.69 388.051 282 389.561C279 389.891 276 390.231 273 390.561C270.04 399.111 266.87 407.611 263.5 416.061C257.66 422.121 250.49 424.791 242 424.061C237.83 424.411 234.66 422.741 232.5 419.061C231.91 411.371 231.24 403.701 230.5 396.061C224.29 391.961 217.45 389.291 210 388.061C210 386.731 210 385.391 210 384.061C206.06 383.591 202.39 382.261 199 380.061C198.2 380.521 197.87 381.181 198 382.061C186.74 377.971 177.24 371.311 169.5 362.061C166.54 358.091 163.2 354.431 159.5 351.061C154.75 343.221 149.75 335.561 144.5 328.061C140.4 321.101 137.07 313.761 134.5 306.061C128.71 285.841 122.38 265.841 115.5 246.061C112.57 231.431 109.9 216.761 107.5 202.061C106.67 195.061 106.33 188.061 106.5 181.061C109.33 175.561 113.5 171.391 119 168.561C121.33 167.891 123.67 167.891 126 168.561C132.72 170.231 139.39 172.071 146 174.061Z" fill="#75BE4B"/>
<path fill-rule="evenodd" clip-rule="evenodd" d="M206 174.061C212.8 173.781 219.47 174.621 226 176.561C228.6 177.441 230.77 178.941 232.5 181.061C235.07 187.041 237.24 193.211 239 199.561C234.21 216.961 222.88 224.291 205 221.561C201.15 218.711 197.65 215.541 194.5 212.061C193.23 207.751 192.06 203.421 191 199.061C191.85 196.051 192.35 193.051 192.5 190.061C189.12 192.941 185.62 195.611 182 198.061C180.36 198.271 178.86 197.941 177.5 197.061C176.8 194.631 176.96 192.301 178 190.061C185.44 181.671 194.77 176.331 206 174.061Z" fill="#070606"/>
<path fill-rule="evenodd" clip-rule="evenodd" d="M308.001 183.061C312.711 187.251 317.871 190.921 323.501 194.061C323.841 197.881 322.011 199.551 318.001 199.061C314.471 197.621 311.141 195.621 308.001 193.061C307.671 201.231 305.171 208.901 300.501 216.061C297.911 219.321 294.741 221.821 291.001 223.561C268.001 226.231 258.171 216.061 261.501 193.061C265.601 179.771 274.441 174.271 288.001 176.561C294.531 179.241 301.201 181.401 308.001 183.061Z" fill="#050505"/>
<path fill-rule="evenodd" clip-rule="evenodd" d="M221 182.061C225.99 182.391 228.66 185.051 229 190.061C228.95 193.501 227.78 196.501 225.5 199.061C218.19 203.101 214.03 200.941 213 192.561C214.14 187.731 216.81 184.231 221 182.061Z" fill="#F5F5F5"/>
<path fill-rule="evenodd" clip-rule="evenodd" d="M275 182.061C280.2 180.941 283.2 182.941 284 188.061C282.88 191.301 282.05 194.641 281.5 198.061C273.59 202.341 268.76 200.011 267 191.061C267.59 189.291 268.42 187.631 269.5 186.061C271.96 185.531 273.8 184.191 275 182.061Z" fill="#F2F2F2"/>
<path fill-rule="evenodd" clip-rule="evenodd" d="M261.001 226.061C264.071 225.481 266.071 226.651 267.001 229.561C264.771 233.801 261.771 237.461 258.001 240.561C256.331 241.231 254.671 241.231 253.001 240.561C249.211 238.581 245.381 236.751 241.501 235.061C240.001 229.891 241.831 228.061 247.001 229.561C253.301 234.991 257.961 233.821 261.001 226.061Z" fill="#131313"/>
<path fill-rule="evenodd" clip-rule="evenodd" d="M229.001 262.061C224.361 268.301 219.031 273.971 213.001 279.061C206.461 285.761 199.461 291.931 192.001 297.561C185.601 301.941 178.601 303.601 171.001 302.561C159.001 295.971 148.171 287.811 138.501 278.061C137.831 275.391 137.831 272.731 138.501 270.061C141.171 267.391 143.831 267.391 146.501 270.061C148.241 273.801 150.741 276.971 154.001 279.561C157.311 280.211 159.971 281.881 162.001 284.561C165.371 285.081 168.371 286.411 171.001 288.561C174.331 289.231 177.671 289.231 181.001 288.561C191.451 284.011 200.451 277.511 208.001 269.061C211.331 266.391 214.331 263.391 217.001 260.061C218.111 258.611 218.281 256.951 217.501 255.061C213.511 251.301 213.011 247.141 216.001 242.561C219.711 241.931 223.211 242.431 226.501 244.061C229.861 243.551 233.201 242.891 236.501 242.061C238.211 242.001 239.541 242.671 240.501 244.061C240.981 248.291 239.481 251.791 236.001 254.561C231.751 255.341 229.411 257.841 229.001 262.061Z" fill="#262625"/>
<path fill-rule="evenodd" clip-rule="evenodd" d="M367.001 302.061C367.491 314.721 367.991 327.391 368.501 340.061C376.681 341.861 378.851 346.361 375.001 353.561C373.331 354.231 371.671 354.231 370.001 353.561C369.231 351.511 367.901 350.011 366.001 349.061C361.211 350.111 357.541 352.611 355.001 356.561C350.171 357.061 348.001 354.891 348.501 350.061C350.671 345.721 353.341 341.721 356.501 338.061C357.311 333.541 357.151 329.211 356.001 325.061C355.351 306.811 352.851 288.811 348.501 271.061C348.391 268.591 347.391 266.591 345.501 265.061C344.831 263.391 344.831 261.731 345.501 260.061C348.531 258.321 351.861 257.321 355.501 257.061C357.211 257.001 358.541 257.671 359.501 259.061C363.451 273.171 365.951 287.501 367.001 302.061Z" fill="#252525"/>
<path fill-rule="evenodd" clip-rule="evenodd" d="M201 256.061C205.96 258.821 211.29 260.161 217 260.061C214.33 263.391 211.33 266.391 208 269.061C204.91 265.211 202.57 260.881 201 256.061Z" fill="#FBCE34"/>
<path fill-rule="evenodd" clip-rule="evenodd" d="M299 247.061C277.24 281.931 259.74 318.931 246.5 358.061C244.5 351.391 242.5 344.731 240.5 338.061C231.32 318.371 222.16 298.701 213 279.061C219.03 273.971 224.36 268.301 229 262.061C240.41 262.301 251.74 261.461 263 259.561C271.8 256.271 280.8 253.601 290 251.561C293.28 250.531 296.28 249.031 299 247.061Z" fill="#FED034"/>
<path fill-rule="evenodd" clip-rule="evenodd" d="M307 375.061C306.67 392.741 307 410.411 308 428.061C311.61 426.971 315.27 426.801 319 427.561C320.99 429.311 323.32 430.311 326 430.561C330.66 435.931 329.66 439.931 323 442.561C316 443.231 309 443.231 302 442.561C299.88 441.441 298.04 439.941 296.5 438.061C295.5 433.731 294.5 429.391 293.5 425.061C293 411.731 292.83 398.401 293 385.061C292.74 383.581 293.07 382.251 294 381.061C297.98 378.241 302.31 376.241 307 375.061Z" fill="#272727"/>
<path fill-rule="evenodd" clip-rule="evenodd" d="M210.001 388.061C209.831 393.071 210.001 398.071 210.501 403.061C211.721 407.601 212.721 412.271 213.501 417.061C214.451 426.831 214.111 436.491 212.501 446.061C209.991 448.121 207.161 449.621 204.001 450.561C196.931 451.401 189.931 451.071 183.001 449.561C179.491 447.651 178.321 444.821 179.501 441.061C185.211 435.611 192.041 433.611 200.001 435.061C198.441 417.441 197.771 399.781 198.001 382.061C197.871 381.181 198.201 380.521 199.001 380.061C202.391 382.261 206.061 383.591 210.001 384.061C210.001 385.391 210.001 386.731 210.001 388.061Z" fill="#252525"/>
</svg>
