<svg width="500" height="500" viewBox="0 0 500 500" fill="none" xmlns="http://www.w3.org/2000/svg">
<path fill-rule="evenodd" clip-rule="evenodd" d="M214.001 41.0615C226.371 42.0915 234.371 48.5915 238.001 60.5615C250.351 61.3215 262.691 62.3215 275.001 63.5615C281.791 66.0515 288.621 68.5515 295.501 71.0615C304.071 57.3215 315.901 53.1515 331.001 58.5615C334.741 60.3015 337.911 62.8015 340.501 66.0615C348.271 76.2715 353.941 87.6015 357.501 100.062C359.291 107.892 357.791 114.892 353.001 121.062C370.051 171.332 381.551 223.002 387.501 276.062C389.001 294.372 389.331 312.702 388.501 331.062C386.751 336.972 385.421 342.972 384.501 349.062C377.521 368.682 368.191 387.012 356.501 404.062C348.621 410.622 340.781 417.122 333.001 423.562C318.131 441.732 299.131 453.402 276.001 458.562C267.901 459.452 261.071 456.952 255.501 451.062C253.751 449.072 252.751 446.742 252.501 444.062C252.001 438.072 251.831 432.072 252.001 426.062C237.911 423.542 223.911 420.702 210.001 417.562C200.691 415.462 191.691 412.292 183.001 408.062C173.091 415.522 162.421 421.682 151.001 426.562C123.111 435.682 109.941 425.512 111.501 396.062C117.321 384.742 124.151 374.082 132.001 364.062C130.621 346.432 129.451 328.762 128.501 311.062C127.831 303.392 127.831 295.732 128.501 288.062C130.491 273.432 132.161 258.772 133.501 244.062C134.951 237.062 136.781 230.232 139.001 223.562C120.051 200.182 114.221 173.682 121.501 144.062C125.761 130.392 132.091 117.732 140.501 106.062C155.431 91.2915 171.931 78.6215 190.001 68.0615C190.311 58.2715 194.651 50.7715 203.001 45.5615C207.001 44.5015 210.661 43.0015 214.001 41.0615Z" fill="#B9673A"/>
<path fill-rule="evenodd" clip-rule="evenodd" d="M220 68.0615C237.04 68.6515 254.04 69.8215 271 71.5615C277.62 73.8615 284.29 76.2015 291 78.5615C293.8 80.3515 296.3 82.5215 298.5 85.0615C302.09 90.5615 305.42 96.2315 308.5 102.062C311.97 106.532 315.8 110.692 320 114.562C324.65 117.232 329.65 118.892 335 119.562C335.76 121.072 336.76 122.412 338 123.562C340.59 123.792 343.09 124.292 345.5 125.062C346.68 130.012 347.68 135.012 348.5 140.062C354.93 156.762 360.59 173.762 365.5 191.062C370.75 223.622 375.75 256.292 380.5 289.062C384.53 316.682 380.53 343.012 368.5 368.062C364.5 375.392 360.5 382.732 356.5 390.062C353.05 392.842 350.38 396.172 348.5 400.062C337.7 409.192 327.2 418.692 317 428.562C309.78 433.292 302.45 437.792 295 442.062C293.68 438.092 291.85 434.422 289.5 431.062C286.33 429.232 283.83 426.732 282 423.562C276.08 421.772 270.08 420.272 264 419.062C267.3 410.572 272.46 403.232 279.5 397.062C279.66 392.582 277.5 391.082 273 392.562C266.01 398.372 260.35 405.212 256 413.062C252.75 415.422 249.09 416.422 245 416.062C231.02 413.572 217.02 411.072 203 408.562C194.23 404.442 185.23 400.782 176 397.562C173.33 394.232 170.67 390.892 168 387.562C166 386.892 164 386.892 162 387.562C160.49 388.402 159.99 389.562 160.5 391.062C163.1 395.492 166.26 399.492 170 403.062C169.46 404.312 168.79 405.472 168 406.562C162.54 409.122 157.21 411.962 152 415.062C145.85 404.072 137.69 394.742 127.5 387.062C128.21 383.612 129.55 380.282 131.5 377.062C134.99 372.902 138.49 368.732 142 364.562C141.64 363.342 141.14 362.172 140.5 361.062C140.39 346.972 139.22 332.972 137 319.062C138.14 314.462 138.98 309.792 139.5 305.062C149.83 314.532 157.83 312.862 163.5 300.062C164.58 295.142 165.08 290.142 165 285.062C164.82 276.332 163.98 267.662 162.5 259.062C160.17 256.392 157.83 256.392 155.5 259.062C155.33 261.062 155.17 263.062 155 265.062C156.23 273.352 156.9 281.682 157 290.062C152.52 292.652 147.69 294.652 142.5 296.062C139.57 293.882 137.91 290.882 137.5 287.062C136.83 280.732 136.83 274.392 137.5 268.062C137.61 265.592 138.61 263.592 140.5 262.062C140.83 256.732 141.17 251.392 141.5 246.062C142.76 240.902 143.93 235.732 145 230.562C147 229.892 149 229.892 151 230.562C181.94 243.352 213.94 247.182 247 242.062C247.54 238.702 246.2 236.702 243 236.062C224.3 237.442 205.64 236.942 187 234.562C183.94 233.922 180.94 233.082 178 232.062C185.65 230.072 192.98 227.242 200 223.562C207.73 218.482 212.23 211.322 213.5 202.062C213.57 195.552 214.57 189.222 216.5 183.062C217.8 173.112 216.8 163.452 213.5 154.062C209.85 148.112 206.02 142.282 202 136.562C194.26 131.692 186.26 127.362 178 123.562C168.73 122.012 159.4 121.672 150 122.562C145.88 125.512 141.88 128.672 138 132.062C137.67 131.562 137.33 131.062 137 130.562C138.53 127.042 140.03 123.542 141.5 120.062C148.51 110.802 156.34 102.302 165 94.5615C175.29 88.5915 185.29 82.2615 195 75.5615C203.87 74.0415 212.2 71.5415 220 68.0615Z" fill="#D89D6C"/>
<path fill-rule="evenodd" clip-rule="evenodd" d="M278 108.062C286.08 106.822 293.41 108.482 300 113.062C302.02 117.332 300.68 119.672 296 120.062C292.72 118.612 289.22 117.942 285.5 118.062C280.66 118.692 275.83 118.852 271 118.562C269.91 116.502 269.74 114.332 270.5 112.062C272.76 110.062 275.26 108.732 278 108.062Z" fill="#282726"/>
<path fill-rule="evenodd" clip-rule="evenodd" d="M141 144.062C143.43 144.082 145.76 144.582 148 145.562C150.52 148.242 153.18 150.742 156 153.062C161.23 148.602 167.23 146.432 174 146.562C176.67 148.892 176.67 151.232 174 153.562C168.76 154.262 164.26 156.432 160.5 160.062C160.09 165.752 160.43 171.422 161.5 177.062C164.75 190.362 167.59 203.692 170 217.062C167.64 221.802 164.8 222.132 161.5 218.062C160.83 216.732 160.17 215.392 159.5 214.062C158.14 194.572 154.47 175.572 148.5 157.062C145.5 154.732 142.5 152.392 139.5 150.062C138.75 147.722 139.25 145.722 141 144.062Z" fill="#2C2826"/>
<path fill-rule="evenodd" clip-rule="evenodd" d="M277.001 323.061C262.121 327.531 255.791 321.861 258.001 306.061C258.821 303.591 259.321 300.921 259.501 298.061C264.141 290.401 266.971 282.061 268.001 273.061C269.321 272.891 270.491 273.221 271.501 274.061C271.671 275.891 271.831 277.731 272.001 279.561C270.731 287.151 269.061 294.651 267.001 302.061C271.301 307.571 276.961 309.741 284.001 308.561C290.001 301.231 296.001 293.891 302.001 286.561C307.891 286.181 309.391 288.681 306.501 294.061C300.041 302.191 293.211 310.021 286.001 317.561C282.941 319.421 279.941 321.251 277.001 323.061Z" fill="#B76538"/>
<path fill-rule="evenodd" clip-rule="evenodd" d="M258 306.062C255.79 321.862 262.12 327.532 277 323.062C279.39 323.782 280.89 325.452 281.5 328.062C283.47 332.522 284.31 337.192 284 342.062C279.54 338.102 275.2 333.932 271 329.562C265.21 326.832 259.54 323.832 254 320.562C242.14 316.512 233.64 320.342 228.5 332.062C221.93 350.662 228.43 361.332 248 364.062C260.19 360.002 267.53 351.672 270 339.062C272.86 342.802 276.53 345.462 281 347.062C281.92 346.432 282.92 346.102 284 346.062C280.11 369.452 266.28 381.782 242.5 383.062C216.45 385.032 192.95 378.532 172 363.562C159.28 352.552 153.94 338.722 156 322.062C159.98 320.232 163.98 318.732 168 317.562C167.29 318.812 166.46 319.982 165.5 321.062C162.37 333.292 166.21 342.462 177 348.562C190.17 351.182 200 346.682 206.5 335.062C207.17 331.392 207.17 327.732 206.5 324.062C205.37 321.182 204.71 318.182 204.5 315.062C203.72 313.272 202.55 311.772 201 310.562C187.91 303.772 174.58 303.272 161 309.062C166 299.572 173.67 293.072 184 289.562C209.8 284.562 234.13 288.392 257 301.062C257.95 302.612 258.29 304.272 258 306.062Z" fill="#FCFBF9"/>
<path fill-rule="evenodd" clip-rule="evenodd" d="M156.001 322.062C155.001 322.152 154.171 321.812 153.501 321.062C152.831 319.392 152.831 317.732 153.501 316.062C155.841 313.552 158.341 311.222 161.001 309.062C174.581 303.272 187.911 303.772 201.001 310.562C202.551 311.772 203.721 313.272 204.501 315.062C204.711 318.182 205.371 321.182 206.501 324.062C207.171 327.732 207.171 331.392 206.501 335.062C200.001 346.682 190.171 351.182 177.001 348.562C166.211 342.462 162.371 333.292 165.501 321.062C166.461 319.982 167.291 318.812 168.001 317.562C163.981 318.732 159.981 320.232 156.001 322.062Z" fill="#070707"/>
<path fill-rule="evenodd" clip-rule="evenodd" d="M190.999 315.061C198.279 313.841 201.439 316.841 200.499 324.061C198.109 329.811 193.939 331.981 187.999 330.561C184.649 324.501 185.649 319.341 190.999 315.061Z" fill="#F6F6F6"/>
<path fill-rule="evenodd" clip-rule="evenodd" d="M284 342.061C284 343.391 284 344.731 284 346.061C282.92 346.101 281.92 346.431 281 347.061C276.53 345.461 272.86 342.801 270 339.061C267.53 351.671 260.19 360.001 248 364.061C228.43 361.331 221.93 350.661 228.5 332.061C233.64 320.341 242.14 316.511 254 320.561C259.54 323.831 265.21 326.831 271 329.561C275.2 333.931 279.54 338.101 284 342.061Z" fill="#070707"/>
<path fill-rule="evenodd" clip-rule="evenodd" d="M242 324.062C246.46 323.362 249.13 325.202 250 329.562C248.72 332.292 247.55 335.132 246.5 338.062C239.43 341.612 235.26 339.442 234 331.562C235.27 327.462 237.93 324.962 242 324.062Z" fill="#F2F2F2"/>
<path fill-rule="evenodd" clip-rule="evenodd" d="M204.999 360.062C209.089 361.272 212.749 363.272 215.999 366.062C218.669 364.392 221.329 362.732 223.999 361.062C225.999 361.062 226.999 362.062 226.999 364.062C224.739 368.702 221.069 371.702 215.999 373.062C211.279 371.282 207.109 368.612 203.499 365.062C202.889 363.062 203.389 361.402 204.999 360.062Z" fill="#111111"/>
</svg>
