<svg width="500" height="500" viewBox="0 0 500 500" fill="none" xmlns="http://www.w3.org/2000/svg">
<path fill-rule="evenodd" clip-rule="evenodd" d="M273 159.062C270.07 161.362 266.74 162.862 263 163.562C247 164.232 231 164.232 215 163.562C212.29 163.162 209.63 162.662 207 162.062C191.08 162.432 175.41 160.772 160 157.062C156.48 156.382 153.98 154.382 152.5 151.062C147.55 139.662 151.05 133.002 163 131.062C166.98 131.552 170.65 132.892 174 135.062C174.28 128.062 176.45 121.722 180.5 116.062C195.42 98.5318 213.92 93.3718 236 100.562C246.38 110.492 252.05 122.662 253 137.062C258.97 136.092 264.97 135.922 271 136.562C274.65 138.702 276.65 141.872 277 146.062C276.91 150.862 275.58 155.192 273 159.062Z" fill="#404040"/>
<path fill-rule="evenodd" clip-rule="evenodd" d="M366 192.062C364.67 192.062 363.33 192.062 362 192.062C357.56 191.982 353.22 192.652 349 194.062C348.06 193.952 347.22 193.622 346.5 193.062C346.54 191.282 347.21 189.612 348.5 188.062C350.93 187.532 352.76 186.202 354 184.062C353.41 182.762 352.41 181.932 351 181.562C346.07 181.352 342.24 179.182 339.5 175.062C335.69 168.432 332.69 161.432 330.5 154.062C330.32 141.332 330.98 128.662 332.5 116.062C336.9 109.772 342.73 105.272 350 102.562C370.06 95.3519 387.22 99.8519 401.5 116.062C407.25 125.022 408.58 134.692 405.5 145.062C404.3 151.982 402.3 158.652 399.5 165.062C397.67 168.232 395.17 170.732 392 172.562C387.11 174.452 382.44 176.792 378 179.562C374.03 180.562 370.03 181.392 366 182.062C365.67 182.392 365.33 182.732 365 183.062C368.22 184.472 371.55 185.472 375 186.062C375.21 187.702 374.88 189.202 374 190.562C371.38 191.382 368.72 191.882 366 192.062Z" fill="#FE3636"/>
<path fill-rule="evenodd" clip-rule="evenodd" d="M382 111.062C383.37 110.902 384.71 111.072 386 111.562C389.29 115.642 392.45 119.802 395.5 124.062C397.23 127.322 397.39 130.652 396 134.062C391.81 135.832 389.31 134.502 388.5 130.062C383.63 125.962 380.63 120.962 379.5 115.062C380.16 113.582 381 112.242 382 111.062Z" fill="#FCF5F5"/>
<path fill-rule="evenodd" clip-rule="evenodd" d="M229 122.062C235.87 123.032 242.71 124.372 249.5 126.062C250.11 131.042 250.94 135.882 252 140.562C252.33 143.232 251.33 145.232 249 146.562C245.45 148.152 241.95 149.652 238.5 151.062C234.41 150.682 230.24 150.512 226 150.562C222.22 146.802 220.38 142.302 220.5 137.062C224.32 134.422 225.98 130.762 225.5 126.062C226.88 124.852 228.04 123.522 229 122.062Z" fill="#F9F8F7"/>
<path fill-rule="evenodd" clip-rule="evenodd" d="M234 129.062C243.44 129.952 245.6 134.622 240.5 143.062C234.46 147.632 230.29 146.292 228 139.062C228.08 137.262 228.58 135.592 229.5 134.062C231.21 132.522 232.71 130.862 234 129.062Z" fill="#FFCB34"/>
<path fill-rule="evenodd" clip-rule="evenodd" d="M390 141.062C395.99 140.542 397.99 143.042 396 148.562C388.75 149.832 386.75 147.332 390 141.062Z" fill="#FCF5F5"/>
<path fill-rule="evenodd" clip-rule="evenodd" d="M160.001 157.062C175.411 160.772 191.081 162.432 207.001 162.062C204.531 169.422 206.201 175.582 212.001 180.562C205.621 186.012 204.621 192.172 209.001 199.062C206.581 200.972 204.251 203.142 202.001 205.562C196.521 209.292 191.521 208.792 187.001 204.062C183.771 206.582 180.111 207.912 176.001 208.062C174.921 208.022 173.921 207.692 173.001 207.062C170.931 208.752 168.931 210.412 167.001 212.062C163.601 211.742 160.271 212.072 157.001 213.062C154.041 219.642 150.541 225.972 146.501 232.062C144.141 234.652 141.311 236.322 138.001 237.062C137.951 240.132 137.451 243.132 136.501 246.062C134.611 249.262 132.771 252.432 131.001 255.562C132.441 258.362 133.941 261.192 135.501 264.062C136.351 268.102 135.851 271.932 134.001 275.562C135.621 276.682 136.621 278.182 137.001 280.062C131.201 284.472 125.531 289.142 120.001 294.062C117.101 289.982 113.941 285.982 110.501 282.062C109.501 278.062 108.501 274.062 107.501 270.062C104.931 269.162 102.601 267.832 100.501 266.062C97.7405 262.302 95.4005 258.302 93.5005 254.062C92.8305 250.732 92.8305 247.392 93.5005 244.062C95.0305 240.162 97.2005 236.662 100.001 233.562C93.1005 219.892 96.6005 210.392 110.501 205.062C110.001 201.472 110.001 197.802 110.501 194.062C113.211 190.542 114.871 186.542 115.501 182.062C117.001 180.562 118.501 179.062 120.001 177.562C126.861 175.822 133.861 174.982 141.001 175.062C143.151 166.262 148.811 161.262 158.001 160.062C158.691 159.042 159.361 158.042 160.001 157.062Z" fill="#FE7FAE"/>
<path fill-rule="evenodd" clip-rule="evenodd" d="M273 159.062C281.56 159.322 286.22 163.652 287 172.062C289.92 172.102 292.59 171.272 295 169.562C302.98 168.042 307.65 171.212 309 179.062C318.19 179.772 322.03 184.772 320.5 194.062C326.24 199.532 328.57 206.202 327.5 214.062C326.69 218.642 325.19 222.972 323 227.062C324.86 231.412 327.69 235.082 331.5 238.062C334.26 246.372 332.09 253.042 325 258.062C330.33 268.252 328.33 276.752 319 283.562C317.37 284.052 315.7 284.222 314 284.062C314.16 285.762 313.99 287.432 313.5 289.062C311.44 291.292 309.27 293.292 307 295.062C303.98 295.222 300.98 295.062 298 294.562C297.45 291.472 296.28 288.642 294.5 286.062C293.83 282.732 293.83 279.392 294.5 276.062C295.84 272.892 297.01 269.722 298 266.562C297.04 263.292 296.37 259.962 296 256.562C297.45 252.602 298.12 248.432 298 244.062C289.74 243.942 285.41 239.772 285 231.562C284.88 228.972 285.54 226.642 287 224.562C279.35 224.082 274.35 220.252 272 213.062C269.98 212.392 268.32 211.222 267 209.562C264.09 209.852 261.09 210.022 258 210.062C256.89 210.002 255.89 209.672 255 209.062C250.5 206.912 246.5 203.912 243 200.062C238.46 202.122 234.13 204.622 230 207.562C226.54 208.382 223.2 208.042 220 206.562C219.21 205.472 218.54 204.312 218 203.062C214.62 202.462 211.62 201.132 209 199.062C204.62 192.172 205.62 186.012 212 180.562C206.2 175.582 204.53 169.422 207 162.062C209.63 162.662 212.29 163.162 215 163.562C231 164.232 247 164.232 263 163.562C266.74 162.862 270.07 161.362 273 159.062Z" fill="#FEDB74"/>
<path fill-rule="evenodd" clip-rule="evenodd" d="M176 208.062C180.02 215.132 182.02 222.802 182 231.062C173.75 231.382 165.58 231.042 157.5 230.062C156.98 228.272 157.31 226.602 158.5 225.062C161.56 220.842 164.39 216.512 167 212.062C168.93 210.412 170.93 208.752 173 207.062C173.92 207.692 174.92 208.022 176 208.062Z" fill="#3696FE"/>
<path fill-rule="evenodd" clip-rule="evenodd" d="M362 192.062C363.33 192.062 364.67 192.062 366 192.062C365.82 199.882 364.65 207.552 362.5 215.062C358.2 224.642 353.54 233.972 348.5 243.062C348.17 251.392 347.83 259.732 347.5 268.062C345.38 275.982 343.54 283.982 342 292.062C342 294.392 342 296.732 342 299.062C342.74 302.532 343.41 306.032 344 309.562C343.22 312.492 342.22 315.332 341 318.062C339.67 318.062 338.33 318.062 337 318.062C337.42 314.492 338.08 310.992 339 307.562C338.77 305.032 338.44 302.532 338 300.062C338 296.732 338 293.392 338 290.062C339.6 283.102 341.1 276.102 342.5 269.062C343.52 259.752 344.18 250.422 344.5 241.062C350.4 230.352 355.74 219.352 360.5 208.062C360.82 202.692 361.32 197.362 362 192.062Z" fill="#262626"/>
<path fill-rule="evenodd" clip-rule="evenodd" d="M209 199.062C211.62 201.132 214.62 202.462 218 203.062C218.54 204.312 219.21 205.472 220 206.562C223.2 208.042 226.54 208.382 230 207.562C234.13 204.622 238.46 202.122 243 200.062C246.5 203.912 250.5 206.912 255 209.062C252.04 215.512 249.38 222.172 247 229.062C247.07 230.332 247.4 231.502 248 232.562C254.87 234.582 261.71 236.742 268.5 239.062C270.76 239.302 271.93 238.302 272 236.062C268.22 228.172 264.72 220.172 261.5 212.062C260.2 211.482 259.03 210.812 258 210.062C261.09 210.022 264.09 209.852 267 209.562C268.32 211.222 269.98 212.392 272 213.062C274.35 220.252 279.35 224.082 287 224.562C285.54 226.642 284.88 228.972 285 231.562C285.41 239.772 289.74 243.942 298 244.062C298.12 248.432 297.45 252.602 296 256.562C296.37 259.962 297.04 263.292 298 266.562C297.01 269.722 295.84 272.892 294.5 276.062C293.83 279.392 293.83 282.732 294.5 286.062C296.28 288.642 297.45 291.472 298 294.562C300.98 295.062 303.98 295.222 307 295.062C314.62 296.502 321.96 295.502 329 292.062C329.33 291.732 329.67 291.392 330 291.062C327.2 287.512 327.54 284.512 331 282.062C332.99 285.062 335.32 287.732 338 290.062C338 293.392 338 296.732 338 300.062C334.06 300.322 330.39 301.482 327 303.562C321.72 304.652 316.39 305.152 311 305.062C309.74 305.022 308.74 305.522 308 306.562C309.31 310.362 309.31 314.202 308 318.062C310.11 321.162 309.77 324.162 307 327.062C303.84 328.642 300.51 329.642 297 330.062C297.37 323.552 295.87 317.552 292.5 312.062C291.65 308.522 292.15 305.182 294 302.062C293.69 301.252 293.19 300.592 292.5 300.062C290.16 302.232 288.99 304.892 289 308.062C290.2 312.802 291.7 317.472 293.5 322.062C294.17 325.062 294.17 328.062 293.5 331.062C291.51 333.222 289.34 335.222 287 337.062C284.08 335.642 282.58 333.312 282.5 330.062C282.17 324.392 281.83 318.732 281.5 313.062C278.19 309.232 274.03 308.072 269 309.562C266.41 314.682 266.58 319.852 269.5 325.062C270.17 331.392 270.17 337.732 269.5 344.062C268.19 346.872 266.03 347.702 263 346.562C259.63 344.202 257.46 341.032 256.5 337.062C256.17 329.732 255.83 322.392 255.5 315.062C249.24 308.472 242.91 308.472 236.5 315.062C235.04 319.302 234.71 323.632 235.5 328.062C239.52 333.812 241.19 340.152 240.5 347.062C239.37 348.502 237.87 349.172 236 349.062C233.99 348.722 231.99 348.392 230 348.062C230.17 339.052 230 330.052 229.5 321.062C227.49 312.602 222.99 310.932 216 316.062C214.89 317.952 214.06 319.952 213.5 322.062C215.02 331.302 215.69 340.642 215.5 350.062C210.72 352.052 206.72 351.052 203.5 347.062C203.82 336.402 203.82 325.742 203.5 315.062C202.38 312.272 200.38 310.602 197.5 310.062C185.74 311.922 181.24 318.752 184 330.562C184.04 334.932 184.38 339.262 185 343.562C183.67 346.072 181.67 347.902 179 349.062C175.49 347.382 172.82 344.882 171 341.562C172.02 335.162 173.86 328.992 176.5 323.062C176.87 318.712 177.37 314.382 178 310.062C177.87 307.612 176.87 305.612 175 304.062C175.88 301.302 177.05 298.632 178.5 296.062C179.17 294.732 179.17 293.392 178.5 292.062C172.28 290.402 165.95 289.072 159.5 288.062C158 288.232 157.17 289.062 157 290.562C158.55 293.282 159.89 296.122 161 299.062C163.55 300.162 165.88 301.502 168 303.062C166.15 304.252 164.31 305.582 162.5 307.062C162.42 316.832 161.42 326.502 159.5 336.062C158.19 338.872 156.03 339.702 153 338.562C148.62 334.302 145.95 329.132 145 323.062C147.35 316.872 150.18 310.872 153.5 305.062C155.4 297.492 152.57 293.822 145 294.062C143.84 291.372 142 289.042 139.5 287.062C138.81 287.592 138.31 288.252 138 289.062C139.15 290.712 140.48 292.212 142 293.562C140.5 295.062 139 296.562 137.5 298.062C137.63 307.382 137.79 316.712 138 326.062C132.03 326.602 127.53 324.262 124.5 319.062C124.19 316.652 123.36 314.492 122 312.562C122.98 310.902 123.98 309.242 125 307.562C123 308.372 121.33 309.872 120 312.062C117.5 313.732 115.5 315.902 114 318.562C118.3 320.352 120.3 323.512 120 328.062C115.65 327.562 111.32 326.892 107 326.062C104.01 326.532 101.01 326.862 97.9996 327.062C97.6996 324.962 98.0296 322.962 98.9996 321.062C101.69 320.562 103.85 319.222 105.5 317.062C109.84 309.032 114.68 301.362 120 294.062C125.53 289.142 131.2 284.472 137 280.062C136.62 278.182 135.62 276.682 134 275.562C135.85 271.932 136.35 268.102 135.5 264.062C133.94 261.192 132.44 258.362 131 255.562C132.77 252.432 134.61 249.262 136.5 246.062C137.45 243.132 137.95 240.132 138 237.062C141.31 236.322 144.14 234.652 146.5 232.062C150.54 225.972 154.04 219.642 157 213.062C160.27 212.072 163.6 211.742 167 212.062C164.39 216.512 161.56 220.842 158.5 225.062C157.31 226.602 156.98 228.272 157.5 230.062C165.58 231.042 173.75 231.382 182 231.062C182.02 222.802 180.02 215.132 176 208.062C180.11 207.912 183.77 206.582 187 204.062C191.52 208.792 196.52 209.292 202 205.562C204.25 203.142 206.58 200.972 209 199.062Z" fill="#F9F9F9"/>
<path fill-rule="evenodd" clip-rule="evenodd" d="M238 288.062C235.84 286.482 233.5 285.142 231 284.062C229.81 282.372 229.98 280.702 231.5 279.062C232.17 275.732 232.17 272.392 231.5 269.062C230.14 265.902 228.3 263.232 226 261.062C227.52 248.652 234.19 240.652 246 237.062C249.66 237.642 253.32 238.142 257 238.562C263.65 241.112 270.31 243.442 277 245.562C282.75 249.852 288.58 254.022 294.5 258.062C295.57 261.112 294.57 263.112 291.5 264.062C286.31 263.122 281.81 260.782 278 257.062C277.05 268.452 272.72 278.282 265 286.562C256.34 292.032 247.34 292.532 238 288.062Z" fill="#060505"/>
<path fill-rule="evenodd" clip-rule="evenodd" d="M242 244.062C247.33 243.232 250.66 245.402 252 250.562C250.69 253.932 249.85 257.432 249.5 261.062C246.11 264.092 242.28 264.762 238 263.062C236.08 260.322 234.42 257.492 233 254.562C233.13 252.932 233.63 251.432 234.5 250.062C237.15 248.142 239.65 246.142 242 244.062Z" fill="#F1F1F1"/>
<path fill-rule="evenodd" clip-rule="evenodd" d="M202.001 262.062C202.151 263.112 201.981 264.112 201.501 265.062C196.981 268.722 194.481 273.392 194.001 279.062C184.161 287.452 173.161 289.292 161.001 284.562C155.071 280.192 151.571 274.362 150.501 267.062C150.011 262.012 150.011 257.012 150.501 252.062C148.041 253.522 145.871 255.352 144.001 257.562C136.461 262.372 133.291 260.532 134.501 252.062C148.771 235.972 166.271 230.802 187.001 236.562C189.751 237.682 192.251 239.182 194.501 241.062C196.971 248.022 199.471 255.022 202.001 262.062Z" fill="#050404"/>
<path fill-rule="evenodd" clip-rule="evenodd" d="M181.999 243.062C187.859 243.252 191.189 246.252 191.999 252.062C190.869 258.352 187.369 262.682 181.499 265.062C174.929 262.592 172.599 257.922 174.499 251.062C176.529 247.872 179.029 245.202 181.999 243.062Z" fill="#F3F3F3"/>
<path fill-rule="evenodd" clip-rule="evenodd" d="M255 209.062C255.89 209.672 256.89 210.002 258 210.062C259.03 210.812 260.2 211.482 261.5 212.062C264.72 220.172 268.22 228.172 272 236.062C271.93 238.302 270.76 239.302 268.5 239.062C261.71 236.742 254.87 234.582 248 232.562C247.4 231.502 247.07 230.332 247 229.062C249.38 222.172 252.04 215.512 255 209.062Z" fill="#3897FE"/>
<path fill-rule="evenodd" clip-rule="evenodd" d="M226 261.062C228.3 263.232 230.14 265.902 231.5 269.062C232.17 272.392 232.17 275.732 231.5 279.062C229.98 280.702 229.81 282.372 231 284.062C229.43 285.432 228.6 287.102 228.5 289.062C231.56 288.112 234.72 287.782 238 288.062C240.15 290.682 240.99 293.682 240.5 297.062C235.52 309.032 226.68 313.532 214 310.562C208.73 309.372 204.23 306.872 200.5 303.062C199.5 299.572 200 296.402 202 293.562C197.37 289.802 194.7 284.972 194 279.062C194.48 273.392 196.98 268.722 201.5 265.062C201.98 264.112 202.15 263.112 202 262.062C209.76 257.162 217.76 256.832 226 261.062Z" fill="#FD3837"/>
<path fill-rule="evenodd" clip-rule="evenodd" d="M205 265.062C206 265.062 207 265.062 208 265.062C208.15 266.112 207.98 267.112 207.5 268.062C205.09 269.972 203.25 272.302 202 275.062C200.78 274.672 200.11 273.842 200 272.562C201.09 269.642 202.76 267.142 205 265.062Z" fill="#FEE7E6"/>
<path fill-rule="evenodd" clip-rule="evenodd" d="M231 284.062C233.5 285.142 235.84 286.482 238 288.062C234.72 287.782 231.56 288.112 228.5 289.062C228.6 287.102 229.43 285.432 231 284.062Z" fill="#EEE8E8"/>
<path fill-rule="evenodd" clip-rule="evenodd" d="M175 304.062C172.55 304.262 170.22 303.932 168 303.062C165.88 301.502 163.55 300.162 161 299.062C159.89 296.122 158.55 293.282 157 290.562C157.17 289.062 158 288.232 159.5 288.062C165.95 289.072 172.28 290.402 178.5 292.062C179.17 293.392 179.17 294.732 178.5 296.062C177.05 298.632 175.88 301.302 175 304.062Z" fill="#3896FE"/>
<path fill-rule="evenodd" clip-rule="evenodd" d="M342 292.062C344.03 291.902 346.03 292.062 348 292.562C349 294.652 348.33 296.322 346 297.562C344.76 298.352 343.42 298.852 342 299.062C342 296.732 342 294.392 342 292.062Z" fill="#F3F7F7"/>
<path fill-rule="evenodd" clip-rule="evenodd" d="M225 293.062C227.03 292.902 229.03 293.062 231 293.562C231.56 294.282 231.89 295.122 232 296.062C229.99 300.582 226.99 304.422 223 307.562C220.67 308.232 218.33 308.232 216 307.562C211.75 305.522 207.59 303.352 203.5 301.062C202.67 296.562 204.5 294.732 209 295.562C212.49 297.832 216.16 299.162 220 299.562C222.27 297.802 223.93 295.642 225 293.062Z" fill="#100808"/>
<path fill-rule="evenodd" clip-rule="evenodd" d="M260 291.062C261.89 290.862 263.39 291.522 264.5 293.062C264.99 298.592 263.83 303.752 261 308.562C258.69 309.222 256.35 309.722 254 310.062C251.91 304.542 249.24 299.212 246 294.062C246.21 293.472 246.54 292.972 247 292.562C249.86 292.012 252.69 292.172 255.5 293.062C257.38 293.042 258.88 292.372 260 291.062Z" fill="#3997FE"/>
<path fill-rule="evenodd" clip-rule="evenodd" d="M217 295.062C220.6 295.242 220.6 296.242 217 298.062C214.45 297.012 214.45 296.012 217 295.062Z" fill="#FEE6E5"/>
<path fill-rule="evenodd" clip-rule="evenodd" d="M169 345.062C167.9 343.962 166.56 343.292 165 343.062C163.33 342.392 161.67 341.732 160 341.062C161.97 338.792 163.13 336.132 163.5 333.062C163.67 324.712 164.17 316.372 165 308.062C167.54 305.622 170.21 305.452 173 307.562C174.24 309.432 174.91 311.602 175 314.062C173.56 321.882 171.39 329.552 168.5 337.062C167.9 339.782 168.07 342.452 169 345.062Z" fill="#F7F6F6"/>
<path fill-rule="evenodd" clip-rule="evenodd" d="M284 339.062C280.63 342.412 276.63 344.752 272 346.062C273.09 339.112 273.26 332.112 272.5 325.062C270.33 321.012 269.49 316.682 270 312.062C273.19 311.582 276.02 312.252 278.5 314.062C278.79 320.772 279.46 327.432 280.5 334.062C281.5 335.882 282.66 337.552 284 339.062Z" fill="#F9FAFA"/>
<path fill-rule="evenodd" clip-rule="evenodd" d="M311 305.062C311.43 310.742 311.6 316.402 311.5 322.062C311.19 324.872 309.69 326.542 307 327.062C309.77 324.162 310.11 321.162 308 318.062C309.31 314.202 309.31 310.362 308 306.562C308.74 305.522 309.74 305.022 311 305.062Z" fill="#9E9D9D"/>
<path fill-rule="evenodd" clip-rule="evenodd" d="M228 351.062C222.78 353.862 217.45 354.532 212 353.062C215.66 353.922 217.83 352.592 218.5 349.062C219.17 345.062 219.17 341.062 218.5 337.062C215.98 331.142 215.65 325.142 217.5 319.062C222.3 314.442 225.3 315.442 226.5 322.062C226.72 331.772 227.22 341.442 228 351.062Z" fill="#F9F9F9"/>
<path fill-rule="evenodd" clip-rule="evenodd" d="M168 303.062C170.22 303.932 172.55 304.262 175 304.062C176.87 305.612 177.87 307.612 178 310.062C177.37 314.382 176.87 318.712 176.5 323.062C173.86 328.992 172.02 335.162 171 341.562C172.82 344.882 175.49 347.382 179 349.062C181.67 347.902 183.67 346.072 185 343.562C184.38 339.262 184.04 334.932 184 330.562C181.24 318.752 185.74 311.922 197.5 310.062C200.38 310.602 202.38 312.272 203.5 315.062C203.82 325.742 203.82 336.402 203.5 347.062C206.72 351.052 210.72 352.052 215.5 350.062C215.69 340.642 215.02 331.302 213.5 322.062C214.06 319.952 214.89 317.952 216 316.062C222.99 310.932 227.49 312.602 229.5 321.062C230 330.052 230.17 339.052 230 348.062C231.99 348.392 233.99 348.722 236 349.062C237.87 349.172 239.37 348.502 240.5 347.062C241.19 340.152 239.52 333.812 235.5 328.062C234.71 323.632 235.04 319.302 236.5 315.062C242.91 308.472 249.24 308.472 255.5 315.062C255.83 322.392 256.17 329.732 256.5 337.062C257.46 341.032 259.63 344.202 263 346.562C266.03 347.702 268.19 346.872 269.5 344.062C270.17 337.732 270.17 331.392 269.5 325.062C266.58 319.852 266.41 314.682 269 309.562C274.03 308.072 278.19 309.232 281.5 313.062C281.83 318.732 282.17 324.392 282.5 330.062C282.58 333.312 284.08 335.642 287 337.062C289.34 335.222 291.51 333.222 293.5 331.062C294.17 328.062 294.17 325.062 293.5 322.062C291.7 317.472 290.2 312.802 289 308.062C288.99 304.892 290.16 302.232 292.5 300.062C293.19 300.592 293.69 301.252 294 302.062C292.15 305.182 291.65 308.522 292.5 312.062C295.87 317.552 297.37 323.552 297 330.062C295.35 334.752 292.35 338.082 288 340.062C286.65 339.712 285.32 339.382 284 339.062C282.66 337.552 281.5 335.882 280.5 334.062C279.46 327.432 278.79 320.772 278.5 314.062C276.02 312.252 273.19 311.582 270 312.062C269.49 316.682 270.33 321.012 272.5 325.062C273.26 332.112 273.09 339.112 272 346.062C271.1 346.852 270.43 347.852 270 349.062C265.29 350.852 261.29 349.852 258 346.062C255.85 343.822 254.35 341.152 253.5 338.062C253.17 330.732 252.83 323.392 252.5 316.062C248.24 312.142 243.91 312.142 239.5 316.062C238.49 318.092 237.99 320.262 238 322.562C239.67 328.412 241.5 334.242 243.5 340.062C244.46 343.712 243.96 347.042 242 350.062C239.44 351.482 236.77 352.482 234 353.062C231.64 353.312 229.64 352.642 228 351.062C227.22 341.442 226.72 331.772 226.5 322.062C225.3 315.442 222.3 314.442 217.5 319.062C215.65 325.142 215.98 331.142 218.5 337.062C219.17 341.062 219.17 345.062 218.5 349.062C217.83 352.592 215.66 353.922 212 353.062C209.97 353.222 207.97 353.062 206 352.562C204.42 351.472 202.76 350.632 201 350.062C201 349.732 201 349.392 201 349.062C200.75 337.782 200.58 326.442 200.5 315.062C199.7 313.762 198.53 313.092 197 313.062C193.04 313.952 189.87 315.952 187.5 319.062C187.41 327.732 187.41 336.402 187.5 345.062C186.14 347.582 184.31 349.582 182 351.062C181.19 352.832 179.85 353.332 178 352.562C174.23 350.952 171.23 348.452 169 345.062C168.07 342.452 167.9 339.782 168.5 337.062C171.39 329.552 173.56 321.882 175 314.062C174.91 311.602 174.24 309.432 173 307.562C170.21 305.452 167.54 305.622 165 308.062C164.17 316.372 163.67 324.712 163.5 333.062C163.13 336.132 161.97 338.792 160 341.062C154.28 342.962 149.78 341.292 146.5 336.062C145.31 333.672 144.14 331.342 143 329.062C142.43 320.092 144.93 312.092 150.5 305.062C152.42 297.482 149.59 294.982 142 297.562C141.17 298.392 140.33 299.232 139.5 300.062C140.7 308.622 141.2 317.292 141 326.062C140.55 327.022 139.88 327.852 139 328.562C130.84 329.742 125.01 326.572 121.5 319.062C120.3 316.882 119.8 314.552 120 312.062C121.33 309.872 123 308.372 125 307.562C123.98 309.242 122.98 310.902 122 312.562C123.36 314.492 124.19 316.652 124.5 319.062C127.53 324.262 132.03 326.602 138 326.062C137.79 316.712 137.63 307.382 137.5 298.062C139 296.562 140.5 295.062 142 293.562C140.48 292.212 139.15 290.712 138 289.062C138.31 288.252 138.81 287.592 139.5 287.062C142 289.042 143.84 291.372 145 294.062C152.57 293.822 155.4 297.492 153.5 305.062C150.18 310.872 147.35 316.872 145 323.062C145.95 329.132 148.62 334.302 153 338.562C156.03 339.702 158.19 338.872 159.5 336.062C161.42 326.502 162.42 316.832 162.5 307.062C164.31 305.582 166.15 304.252 168 303.062Z" fill="#9F9F9F"/>
<path fill-rule="evenodd" clip-rule="evenodd" d="M258 346.062C253.12 348.952 247.79 350.282 242 350.062C243.96 347.042 244.46 343.712 243.5 340.062C241.5 334.242 239.67 328.412 238 322.562C237.99 320.262 238.49 318.092 239.5 316.062C243.91 312.142 248.24 312.142 252.5 316.062C252.83 323.392 253.17 330.732 253.5 338.062C254.35 341.152 255.85 343.822 258 346.062Z" fill="#FAFAFA"/>
<path fill-rule="evenodd" clip-rule="evenodd" d="M201 349.062C199.46 348.862 198.12 348.192 197 347.062C192.43 349.772 187.43 351.112 182 351.062C184.31 349.582 186.14 347.582 187.5 345.062C187.41 336.402 187.41 327.732 187.5 319.062C189.87 315.952 193.04 313.952 197 313.062C198.53 313.092 199.7 313.762 200.5 315.062C200.58 326.442 200.75 337.782 201 349.062Z" fill="#FBFAFA"/>
<path fill-rule="evenodd" clip-rule="evenodd" d="M143 329.062C142.33 328.062 141.67 327.062 141 326.062C141.2 317.292 140.7 308.622 139.5 300.062C140.33 299.232 141.17 298.392 142 297.562C149.59 294.982 152.42 297.482 150.5 305.062C144.93 312.092 142.43 320.092 143 329.062Z" fill="#F6F6F6"/>
<path fill-rule="evenodd" clip-rule="evenodd" d="M258 346.062C261.29 349.852 265.29 350.852 270 349.062C270.17 351.182 269.84 353.182 269 355.062C263.15 357.322 257.48 360.152 252 363.562C250.46 364.672 249.8 366.172 250 368.062C253.68 368.232 257.35 368.062 261 367.562C266.2 366.112 271.2 364.442 276 362.562C274.18 368.292 272.85 374.122 272 380.062C273.18 380.282 274.18 379.952 275 379.062C275.73 376.452 276.23 373.782 276.5 371.062C277.11 369.492 277.94 368.162 279 367.062C279.29 368.212 280.12 368.882 281.5 369.062C284.9 368.262 288.24 367.262 291.5 366.062C293.52 366.232 295.35 366.902 297 368.062C294.41 369.602 291.91 371.272 289.5 373.062C288.91 374.042 289.24 374.712 290.5 375.062C298.95 370.222 307.95 366.552 317.5 364.062C318.33 364.392 319.17 364.732 320 365.062C315.67 368.232 311.33 371.392 307 374.562C307.53 375.252 308.19 375.752 309 376.062C313.29 373.242 317.62 370.412 322 367.562C323.64 366.432 324.64 364.932 325 363.062C327.97 364.222 330.64 365.882 333 368.062C336.68 372.762 339.85 377.762 342.5 383.062C343.75 388.652 341.92 392.822 337 395.562C312.13 396.462 287.3 395.962 262.5 394.062C255.39 395.592 248.22 396.092 241 395.562C236.61 393.972 234.28 390.802 234 386.062C235.54 379.012 236.54 371.842 237 364.562C235.61 360.832 234.61 357.002 234 353.062C236.77 352.482 239.44 351.482 242 350.062C247.79 350.282 253.12 348.952 258 346.062Z" fill="#FE3736"/>
<path fill-rule="evenodd" clip-rule="evenodd" d="M300 356.062C296.63 356.232 293.29 356.732 290 357.562C289.12 358.922 288.79 360.422 289 362.062C293.92 360.922 298.59 359.262 303 357.062C305.71 356.982 308.37 356.652 311 356.062C311 357.062 311 358.062 311 359.062C308.5 359.542 306.16 360.542 304 362.062C300.87 361.142 297.87 361.642 295 363.562C297.09 364.592 299.25 365.422 301.5 366.062C306.48 364.462 311.31 362.792 316 361.062C317.9 361.132 319.73 360.792 321.5 360.062C323.14 360.542 324.31 361.542 325 363.062C324.64 364.932 323.64 366.432 322 367.562C317.62 370.412 313.29 373.242 309 376.062C308.19 375.752 307.53 375.252 307 374.562C311.33 371.392 315.67 368.232 320 365.062C319.17 364.732 318.33 364.392 317.5 364.062C307.95 366.552 298.95 370.222 290.5 375.062C289.24 374.712 288.91 374.042 289.5 373.062C291.91 371.272 294.41 369.602 297 368.062C295.35 366.902 293.52 366.232 291.5 366.062C288.24 367.262 284.9 368.262 281.5 369.062C280.12 368.882 279.29 368.212 279 367.062C277.94 368.162 277.11 369.492 276.5 371.062C276.23 373.782 275.73 376.452 275 379.062C274.18 379.952 273.18 380.282 272 380.062C272.85 374.122 274.18 368.292 276 362.562C271.2 364.442 266.2 366.112 261 367.562C257.35 368.062 253.68 368.232 250 368.062C249.8 366.172 250.46 364.672 252 363.562C257.48 360.152 263.15 357.322 269 355.062C272.7 355.282 276.37 355.452 280 355.562C279.42 354.132 279.42 352.472 280 350.562C285.38 347.822 291.05 345.992 297 345.062C304.33 344.532 306.83 347.532 304.5 354.062C302.88 354.662 301.38 355.332 300 356.062Z" fill="#FDDB73"/>
<path fill-rule="evenodd" clip-rule="evenodd" d="M293 348.062C296.02 347.902 299.02 348.062 302 348.562C303.33 349.892 303.33 351.232 302 352.562C297.49 353.402 292.99 354.232 288.5 355.062C286.22 355.002 284.39 354.162 283 352.562C286.32 350.732 289.65 349.232 293 348.062Z" fill="#27BDD0"/>
<path fill-rule="evenodd" clip-rule="evenodd" d="M300.001 356.062C300.891 356.672 301.891 357.002 303.001 357.062C298.591 359.262 293.921 360.922 289.001 362.062C288.791 360.422 289.121 358.922 290.001 357.562C293.291 356.732 296.631 356.232 300.001 356.062Z" fill="#FE4037"/>
<path fill-rule="evenodd" clip-rule="evenodd" d="M153 358.062C150.18 361.252 147.18 361.582 144 359.062C147.02 358.862 150.02 358.522 153 358.062Z" fill="#F43E38"/>
<path fill-rule="evenodd" clip-rule="evenodd" d="M268 358.062C270.36 357.902 272.69 358.062 275 358.562C269.33 362.792 262.99 364.792 256 364.562C259.93 362.102 263.93 359.932 268 358.062Z" fill="#FF4739"/>
<path fill-rule="evenodd" clip-rule="evenodd" d="M311 359.062C312.53 359.872 314.19 360.542 316 361.062C311.31 362.792 306.48 364.462 301.5 366.062C299.25 365.422 297.09 364.592 295 363.562C297.87 361.642 300.87 361.142 304 362.062C306.16 360.542 308.5 359.542 311 359.062Z" fill="#FE3D37"/>
<path fill-rule="evenodd" clip-rule="evenodd" d="M279 367.062C279.54 363.512 281.54 361.182 285 360.062C286.45 361.412 287.12 363.082 287 365.062C284.33 365.732 281.67 366.392 279 367.062Z" fill="#FF4438"/>
<path fill-rule="evenodd" clip-rule="evenodd" d="M165 343.062C166.56 343.292 167.9 343.962 169 345.062C171.23 348.452 174.23 350.952 178 352.562C179.85 353.332 181.19 352.832 182 351.062C187.43 351.112 192.43 349.772 197 347.062C198.12 348.192 199.46 348.862 201 349.062C201 349.392 201 349.732 201 350.062C205.32 359.652 206.16 369.652 203.5 380.062C201.31 388.582 195.81 393.082 187 393.562C163.33 395.032 139.83 397.872 116.5 402.062C107.37 401.772 102.21 397.102 101 388.062C102.18 375.852 108.51 367.682 120 363.562C126.93 361.942 133.93 360.772 141 360.062C141.62 361.902 142.96 363.062 145 363.562C143.05 365.632 140.71 366.302 138 365.562C136.26 363.502 134.26 363.002 132 364.062C133.63 365.552 135.29 367.052 137 368.562C135.83 370.612 134.16 371.282 132 370.562C128.98 367.032 125.31 365.872 121 367.062C124.73 368.632 128.07 370.792 131 373.562C125.59 376.252 122.76 380.422 122.5 386.062C123.19 386.922 124.02 387.582 125 388.062C125.26 386.222 125.42 384.222 125.5 382.062C127.67 379.892 129.83 377.732 132 375.562C134.31 376.152 136.48 377.322 138.5 379.062C139 378.732 139.5 378.392 140 378.062C138.85 376.412 137.52 374.912 136 373.562C137.32 371.902 138.98 370.732 141 370.062C143.77 371.532 146.61 372.862 149.5 374.062C150.76 373.712 151.09 373.042 150.5 372.062C148.07 370.932 145.91 369.432 144 367.562C145.17 366.482 146.5 365.642 148 365.062C151.16 366.472 154.16 368.142 157 370.062C158.08 369.202 158.25 368.202 157.5 367.062C155.25 365.852 153.08 364.522 151 363.062C152.06 361.862 153.39 361.202 155 361.062C159.54 362.802 163.21 361.632 166 357.562C170.01 356.462 173.51 357.302 176.5 360.062C179.83 365.372 182 371.042 183 377.062C181.63 377.222 180.29 377.052 179 376.562C174.54 371.452 170.2 366.282 166 361.062C165.67 361.562 165.33 362.062 165 362.562C168.26 368.412 172.26 373.752 177 378.562C184.42 381.482 187.25 378.982 185.5 371.062C183.44 366.602 181.1 362.272 178.5 358.062C177.6 356.862 176.43 356.032 175 355.562C170.81 355.382 166.81 354.882 163 354.062C164.91 350.882 165.58 347.212 165 343.062Z" fill="#FE3836"/>
<path fill-rule="evenodd" clip-rule="evenodd" d="M163 354.062C166.81 354.882 170.81 355.382 175 355.562C176.43 356.032 177.6 356.862 178.5 358.062C181.1 362.272 183.44 366.602 185.5 371.062C187.25 378.982 184.42 381.482 177 378.562C172.26 373.752 168.26 368.412 165 362.562C165.33 362.062 165.67 361.562 166 361.062C170.2 366.282 174.54 371.452 179 376.562C180.29 377.052 181.63 377.222 183 377.062C182 371.042 179.83 365.372 176.5 360.062C173.51 357.302 170.01 356.462 166 357.562C163.21 361.632 159.54 362.802 155 361.062C153.39 361.202 152.06 361.862 151 363.062C153.08 364.522 155.25 365.852 157.5 367.062C158.25 368.202 158.08 369.202 157 370.062C154.16 368.142 151.16 366.472 148 365.062C146.5 365.642 145.17 366.482 144 367.562C145.91 369.432 148.07 370.932 150.5 372.062C151.09 373.042 150.76 373.712 149.5 374.062C146.61 372.862 143.77 371.532 141 370.062C138.98 370.732 137.32 371.902 136 373.562C137.52 374.912 138.85 376.412 140 378.062C139.5 378.392 139 378.732 138.5 379.062C136.48 377.322 134.31 376.152 132 375.562C129.83 377.732 127.67 379.892 125.5 382.062C125.42 384.222 125.26 386.222 125 388.062C124.02 387.582 123.19 386.922 122.5 386.062C122.76 380.422 125.59 376.252 131 373.562C128.07 370.792 124.73 368.632 121 367.062C125.31 365.872 128.98 367.032 132 370.562C134.16 371.282 135.83 370.612 137 368.562C135.29 367.052 133.63 365.552 132 364.062C134.26 363.002 136.26 363.502 138 365.562C140.71 366.302 143.05 365.632 145 363.562C142.96 363.062 141.62 361.902 141 360.062C141.71 359.162 142.71 358.822 144 359.062C147.18 361.582 150.18 361.252 153 358.062C153.97 357.572 154.97 357.072 156 356.562C151.68 356.722 147.34 357.222 143 358.062C138.09 358.452 134.76 356.452 133 352.062C134.59 348.742 137.25 346.582 141 345.562C147.98 343.922 154.15 345.422 159.5 350.062C159.99 351.352 160.16 352.692 160 354.062C161 354.062 162 354.062 163 354.062Z" fill="#FDDB73"/>
<path fill-rule="evenodd" clip-rule="evenodd" d="M141 348.062C144.68 347.892 148.35 348.062 152 348.562C154.58 349.342 156.58 350.842 158 353.062C151.75 354.732 145.42 355.232 139 354.562C137.59 354.192 136.59 353.362 136 352.062C137.51 350.482 139.18 349.142 141 348.062Z" fill="#2EBDCF"/>
<path fill-rule="evenodd" clip-rule="evenodd" d="M161 363.062C162 362.972 162.83 363.312 163.5 364.062C163.76 378.202 157.76 388.872 145.5 396.062C144.24 395.712 143.91 395.042 144.5 394.062C155.8 386.802 161.3 376.462 161 363.062Z" fill="#FFDA73"/>
</svg>
