<svg width="500" height="500" viewBox="0 0 500 500" fill="none" xmlns="http://www.w3.org/2000/svg">
<path fill-rule="evenodd" clip-rule="evenodd" d="M380 175.062C370.14 175.353 360.48 176.686 351 179.062C353.05 168.063 352.05 157.396 348 147.062C349.41 145.257 349.91 143.257 349.5 141.062C346.98 138.735 344.14 137.069 341 136.062C327.37 118.411 309.37 108.911 287 107.562C275.67 107.229 264.33 106.895 253 106.562C243.45 103.675 233.79 103.342 224 105.562C205.77 111.511 188.77 119.844 173 130.562C162.71 138.983 157.04 149.816 156 163.062C154.73 167.094 154.73 171.094 156 175.062C155.1 175.771 154.76 176.771 155 178.062C144.21 178.187 133.55 177.187 123 175.062C113.76 172.279 105.1 168.112 96.9997 162.562C88.5597 154.415 85.2297 144.581 86.9997 133.062C89.0297 123.312 92.5297 113.979 97.4997 105.062C107.23 96.0015 118.06 88.5015 130 82.5615C140.65 77.0675 151.65 72.4015 163 68.5615C195.59 60.9965 228.59 56.4965 262 55.0615C282.57 55.5415 302.9 58.0415 323 62.5615C329.49 64.5015 335.82 66.8345 342 69.5615C353.59 77.2715 365.09 85.1045 376.5 93.0615C378.17 95.3945 379.83 97.7285 381.5 100.062C390.53 108.758 399.2 117.758 407.5 127.062C412.88 143.273 409.05 157.107 396 168.562C391.27 171.028 386.27 172.695 381 173.562C380.44 173.945 380.11 174.445 380 175.062Z" fill="#D1AA7D"/>
<path fill-rule="evenodd" clip-rule="evenodd" d="M222.999 70.0615C227.869 72.0515 232.869 73.8855 237.999 75.5615C242.349 79.3345 241.849 82.1675 236.499 84.0615C230.639 83.2065 225.139 81.3735 219.999 78.5615C218.199 74.7035 219.199 71.8705 222.999 70.0615Z" fill="#FBE640"/>
<path fill-rule="evenodd" clip-rule="evenodd" d="M332.999 87.0616C340.049 86.9446 343.549 90.2786 343.499 97.0616C339.859 99.3016 336.529 98.6346 333.499 95.0616C331.799 92.4426 331.639 89.7756 332.999 87.0616Z" fill="#FBE63F"/>
<path fill-rule="evenodd" clip-rule="evenodd" d="M341 136.062C336.14 133.384 331.14 130.884 326 128.562C318.57 127.744 311.24 126.41 304 124.562C284.68 119.8 272.51 126.966 267.5 146.062C263.06 179.124 277.23 193.124 310 188.062C313.62 184.939 317.12 181.606 320.5 178.062C323.76 170.61 326.43 162.943 328.5 155.062C329.04 151.119 328.54 147.286 327 143.562C327.33 143.062 327.67 142.562 328 142.062C334.18 145.567 340.85 147.233 348 147.062C352.05 157.396 353.05 168.063 351 179.062C349.8 187.988 346.47 195.988 341 203.062C335.05 209.54 327.72 213.707 319 215.562C296.96 216.565 274.96 218.232 253 220.562C227.25 222.372 202.25 218.872 178 210.062C166.81 204.697 159.31 196.03 155.5 184.062C155 182.089 154.84 180.089 155 178.062C154.76 176.771 155.1 175.771 156 175.062C158.71 176.425 161.38 176.258 164 174.562C167.38 170.634 170.88 166.801 174.5 163.062C173.5 168.105 173.84 173.105 175.5 178.062C183.31 200.55 198.14 207.05 220 197.562C230.35 190.188 236.35 180.188 238 167.562C237.35 160.099 234.19 153.933 228.5 149.062C227.3 142.165 223.14 137.998 216 136.562C190.76 133.687 170.76 142.521 156 163.062C157.04 149.816 162.71 138.983 173 130.562C188.77 119.844 205.77 111.511 224 105.562C233.79 103.342 243.45 103.675 253 106.562C264.33 106.895 275.67 107.229 287 107.562C309.37 108.911 327.37 118.411 341 136.062Z" fill="#FCFCFB"/>
<path fill-rule="evenodd" clip-rule="evenodd" d="M145 106.061C150.07 105.091 153.41 106.924 155 111.561C152.74 115.968 149.07 118.801 144 120.061C141.33 119.394 139.67 117.728 139 115.061C140.21 111.523 142.21 108.523 145 106.061Z" fill="#FBE640"/>
<path fill-rule="evenodd" clip-rule="evenodd" d="M341 136.062C344.14 137.069 346.98 138.735 349.5 141.062C349.91 143.257 349.41 145.257 348 147.062C340.85 147.233 334.18 145.567 328 142.062C327.67 142.562 327.33 143.062 327 143.562C328.54 147.286 329.04 151.119 328.5 155.062C326.43 162.943 323.76 170.61 320.5 178.062C317.12 181.606 313.62 184.939 310 188.062C277.23 193.124 263.06 179.124 267.5 146.062C272.51 126.966 284.68 119.8 304 124.562C311.24 126.41 318.57 127.744 326 128.562C331.14 130.884 336.14 133.384 341 136.062Z" fill="#040404"/>
<path fill-rule="evenodd" clip-rule="evenodd" d="M284.001 133.061C288.301 132.357 291.801 133.691 294.501 137.061C294.911 142.754 294.571 148.42 293.501 154.061C290.191 157.888 286.031 159.055 281.001 157.561C275.131 153.98 272.961 148.814 274.501 142.061C278.071 139.383 281.241 136.383 284.001 133.061Z" fill="#F6F6F6"/>
<path fill-rule="evenodd" clip-rule="evenodd" d="M374 134.062C379.76 134.584 381.76 137.584 380 143.062C377.64 144.433 375.31 145.767 373 147.062C370.43 146.663 369.1 145.163 369 142.562C369.64 139.099 371.3 136.266 374 134.062Z" fill="#FBE63F"/>
<path fill-rule="evenodd" clip-rule="evenodd" d="M156.001 175.062C154.731 171.094 154.731 167.094 156.001 163.062C170.761 142.521 190.761 133.687 216.001 136.562C223.141 137.998 227.301 142.165 228.501 149.062C234.191 153.933 237.351 160.099 238.001 167.562C236.351 180.188 230.351 190.188 220.001 197.562C198.141 207.05 183.311 200.55 175.501 178.062C173.841 173.105 173.501 168.105 174.501 163.062C170.881 166.801 167.381 170.634 164.001 174.562C161.381 176.258 158.711 176.425 156.001 175.062Z" fill="#040404"/>
<path fill-rule="evenodd" clip-rule="evenodd" d="M212 145.062C219.37 145.272 223.37 149.106 224 156.562C223.54 164.399 219.7 169.565 212.5 172.062C205.93 170.314 202.43 165.981 202 159.062C203.42 156.151 204.58 153.151 205.5 150.062C207.47 148.012 209.63 146.345 212 145.062Z" fill="#F4F4F4"/>
<path fill-rule="evenodd" clip-rule="evenodd" d="M414.001 239.062C414.341 233.068 412.341 228.068 408.001 224.062C426.751 223.873 445.411 222.707 464.001 220.562C457.551 211.773 450.711 203.273 443.501 195.062C437.651 188.731 431.151 183.231 424.001 178.562C420.901 179.3 418.571 181.3 417.001 184.562C422.331 188.229 422.331 191.895 417.001 195.562C409.811 196.395 405.311 193.228 403.501 186.062C401.251 176.818 403.751 169.318 411.001 163.562C415.431 162.771 419.761 163.105 424.001 164.562C428.501 168.317 433.501 171.317 439.001 173.562C446.541 182.766 455.041 190.933 464.501 198.062C469.631 204.186 473.461 211.02 476.001 218.562C476.071 223.895 474.071 228.228 470.001 231.562C465.501 232.524 461.161 233.857 457.001 235.562C442.671 236.895 428.341 238.061 414.001 239.062Z" fill="#060605"/>
<path fill-rule="evenodd" clip-rule="evenodd" d="M84.9999 238.062C83.7499 242.472 82.4199 246.805 80.9999 251.062C64.0299 250.427 47.3699 247.927 30.9999 243.562C24.8599 236.399 23.3599 228.232 26.4999 219.062C27.9699 214.783 29.9699 210.783 32.4999 207.062C37.4699 201.093 42.7999 195.427 48.4999 190.062C51.8599 185.532 55.0299 180.865 57.9999 176.062C60.4699 174.493 63.1299 173.493 65.9999 173.062C75.4099 171.907 82.5799 175.24 87.4999 183.062C88.9899 190.9 86.4899 197.067 79.9999 201.562C76.5799 202.455 73.4199 201.955 70.4999 200.062C69.8999 196.654 68.5599 193.654 66.4999 191.062C60.3299 201.406 53.6599 211.406 46.4999 221.062C45.1399 224.62 43.6399 228.12 41.9999 231.562C42.1399 232.334 42.4799 233.001 42.9999 233.562C44.3299 233.895 45.6699 234.229 46.9999 234.562C59.6699 236.072 72.3399 237.239 84.9999 238.062Z" fill="#040404"/>
<path fill-rule="evenodd" clip-rule="evenodd" d="M123 175.062C133.55 177.187 144.21 178.187 155 178.062C154.84 180.089 155 182.089 155.5 184.062C159.31 196.03 166.81 204.697 178 210.062C168.77 211.119 159.77 213.286 151 216.562C144.68 217.212 138.35 217.712 132 218.062C128.24 218.099 124.58 217.599 121 216.562C117.51 214.566 114.18 212.399 111 210.062C104.86 204.78 102.36 198.113 103.5 190.062C104.56 187 106.39 184.5 109 182.562C113.56 179.782 118.23 177.282 123 175.062Z" fill="#B17B67"/>
<path fill-rule="evenodd" clip-rule="evenodd" d="M380 175.062C397.2 179.104 400.53 188.104 390 202.062C387.79 202.41 385.79 203.243 384 204.562C369.63 205.147 355.3 204.647 341 203.062C346.47 195.988 349.8 187.988 351 179.062C360.48 176.686 370.14 175.353 380 175.062Z" fill="#B27B67"/>
<path fill-rule="evenodd" clip-rule="evenodd" d="M274.001 195.061C277.721 194.784 280.061 196.451 281.001 200.061C279.151 205.927 276.151 211.094 272.001 215.561C269.471 216.983 266.801 217.316 264.001 216.561C258.521 214.977 253.181 213.144 248.001 211.061C246.141 204.091 248.811 201.591 256.001 203.561C259.501 205.493 263.161 206.493 267.001 206.561C269.471 202.783 271.801 198.95 274.001 195.061Z" fill="#0D0D0D"/>
<path fill-rule="evenodd" clip-rule="evenodd" d="M390.001 202.062C389.571 205.158 389.071 208.158 388.501 211.062C395.951 214.018 402.451 218.351 408.001 224.062C412.341 228.068 414.341 233.068 414.001 239.062C412.331 244.062 409.001 247.395 404.001 249.062C402.541 248.995 401.211 249.328 400.001 250.062C391.421 246.766 383.751 241.933 377.001 235.562C373.881 234.503 370.881 233.17 368.001 231.562C339.061 229.203 310.061 228.203 281.001 228.562C276.471 229.015 272.141 230.182 268.001 232.062C267.801 238.677 267.631 245.343 267.501 252.062C266.321 254.422 265.151 256.755 264.001 259.062C257.601 263.008 251.271 263.008 245.001 259.062C238.071 249.085 230.071 239.918 221.001 231.562C200.271 229.265 179.601 229.599 159.001 232.562C148.331 235.562 137.671 238.562 127.001 241.562C119.921 245.472 113.921 250.638 109.001 257.062C106.361 260.036 103.701 263.036 101.001 266.062C91.8408 271.597 85.0008 269.597 80.5008 260.062C79.7608 256.97 79.9308 253.97 81.0008 251.062C82.4208 246.805 83.7508 242.472 85.0008 238.062C91.2108 226.519 99.8708 217.186 111.001 210.062C114.181 212.399 117.511 214.566 121.001 216.562C124.581 217.599 128.241 218.099 132.001 218.062C138.351 217.712 144.681 217.212 151.001 216.562C159.771 213.286 168.771 211.119 178.001 210.062C202.251 218.872 227.251 222.372 253.001 220.562C274.961 218.232 296.961 216.565 319.001 215.562C327.721 213.707 335.051 209.54 341.001 203.062C355.301 204.647 369.631 205.147 384.001 204.562C385.791 203.243 387.791 202.41 390.001 202.062Z" fill="#FEC00B"/>
<path fill-rule="evenodd" clip-rule="evenodd" d="M400 250.061C397.31 253.743 393.65 255.91 389 256.561C368.49 257.329 347.99 257.162 327.5 256.061C306.37 257.864 285.2 258.864 264 259.061C265.15 256.754 266.32 254.421 267.5 252.061C267.63 245.342 267.8 238.676 268 232.061C272.14 230.181 276.47 229.014 281 228.561C310.06 228.202 339.06 229.202 368 231.561C370.88 233.169 373.88 234.502 377 235.561C383.75 241.932 391.42 246.765 400 250.061Z" fill="#F34535"/>
<path fill-rule="evenodd" clip-rule="evenodd" d="M245 259.061C234.06 259.404 223.39 257.904 213 254.561C199.98 253.992 186.98 253.159 174 252.061C157.77 252.657 142.11 255.823 127 261.561C123 262.228 119 262.228 115 261.561C112.39 260.769 110.39 259.269 109 257.061C113.92 250.637 119.92 245.471 127 241.561C137.67 238.561 148.33 235.561 159 232.561C179.6 229.598 200.27 229.264 221 231.561C230.07 239.917 238.07 249.084 245 259.061Z" fill="#F34635"/>
<path fill-rule="evenodd" clip-rule="evenodd" d="M404 249.061C406.59 253.673 406.59 258.339 404 263.061C405.93 266.834 408.1 270.501 410.5 274.061C411.97 281.148 410.47 287.481 406 293.061C398.98 296.487 392.64 295.653 387 290.561C377.53 290.515 369.03 287.682 361.5 282.061C358.1 292.013 351.26 295.513 341 292.561C335.84 289.062 330.17 286.728 324 285.561C316.03 283.043 307.86 281.543 299.5 281.061C298 281.394 296.5 281.728 295 282.061C290.16 294.303 281.83 297.303 270 291.061C265.7 292.103 261.37 292.27 257 291.561C245.77 288.79 234.43 286.624 223 285.061C223.4 296.159 218.07 301.326 207 300.561C199.83 295.867 192.16 292.367 184 290.061C177.9 293.333 172.57 297.5 168 302.561C161.35 304.568 156.18 302.734 152.5 297.061C151.4 293.145 150.73 289.145 150.5 285.061C143.62 284.431 136.79 285.264 130 287.561C124.71 291.181 119.71 295.181 115 299.561C112.76 300.697 110.42 301.531 108 302.061C97.8 301.019 93.3 295.352 94.5 285.061C96.5 281.728 98.5 278.394 100.5 275.061C101 272.079 101.16 269.079 101 266.061C103.7 263.035 106.36 260.035 109 257.061C110.39 259.269 112.39 260.769 115 261.561C119 262.228 123 262.228 127 261.561C142.11 255.823 157.77 252.657 174 252.061C186.98 253.159 199.98 253.992 213 254.561C223.39 257.904 234.06 259.404 245 259.061C251.27 263.007 257.6 263.007 264 259.061C285.2 258.864 306.37 257.864 327.5 256.061C347.99 257.162 368.49 257.329 389 256.561C393.65 255.91 397.31 253.743 400 250.061C401.21 249.327 402.54 248.994 404 249.061Z" fill="#8BC24A"/>
<path fill-rule="evenodd" clip-rule="evenodd" d="M406 293.062C405.69 304.041 400.03 310.374 389 312.062C381.36 313.169 373.69 314.169 366 315.062C358.35 314.131 350.68 313.964 343 314.562C313.95 319.543 284.79 320.376 255.5 317.062C243.69 318.246 231.86 319.079 220 319.562C191.99 319.799 163.99 320.299 136 321.062C131.5 321.181 127.17 320.514 123 319.062C114.06 316.79 109.06 311.123 108 302.062C110.42 301.532 112.76 300.698 115 299.562C119.71 295.182 124.71 291.182 130 287.562C136.79 285.265 143.62 284.432 150.5 285.062C150.73 289.146 151.4 293.146 152.5 297.062C156.18 302.735 161.35 304.569 168 302.562C172.57 297.501 177.9 293.334 184 290.062C192.16 292.368 199.83 295.868 207 300.562C218.07 301.327 223.4 296.16 223 285.062C234.43 286.625 245.77 288.791 257 291.562C261.37 292.271 265.7 292.104 270 291.062C281.83 297.304 290.16 294.304 295 282.062C296.5 281.729 298 281.395 299.5 281.062C307.86 281.544 316.03 283.044 324 285.562C330.17 286.729 335.84 289.063 341 292.562C351.26 295.514 358.1 292.014 361.5 282.062C369.03 287.683 377.53 290.516 387 290.562C392.64 295.654 398.98 296.488 406 293.062Z" fill="#B17A67"/>
<path fill-rule="evenodd" clip-rule="evenodd" d="M389.001 312.062C396.451 321.286 396.951 330.952 390.501 341.062C381.011 353.232 368.511 360.399 353.001 362.562C340.261 366.343 327.261 368.51 314.001 369.062C307.671 369.062 301.331 369.062 295.001 369.062C265.481 366.592 236.151 366.592 207.001 369.062C202.101 367.762 197.101 367.762 192.001 369.062C172.841 368.84 153.511 368.673 134.001 368.562C125.931 366.433 119.431 361.933 114.501 355.062C111.511 347.89 111.181 340.556 113.501 333.062C116.131 327.949 119.301 323.282 123.001 319.062C127.171 320.514 131.501 321.181 136.001 321.062C163.991 320.299 191.991 319.799 220.001 319.562C231.861 319.079 243.691 318.246 255.501 317.062C284.791 320.376 313.951 319.543 343.001 314.562C350.681 313.964 358.351 314.131 366.001 315.062C373.691 314.169 381.361 313.169 389.001 312.062Z" fill="#D0A97D"/>
<path fill-rule="evenodd" clip-rule="evenodd" d="M207.001 369.061C202.631 378.477 198.801 388.144 195.501 398.061C193.621 407.799 191.621 417.465 189.501 427.061C186.741 429.792 185.071 433.125 184.501 437.061C174.131 442.586 163.631 443.086 153.001 438.561C148.831 434.255 149.161 430.255 154.001 426.561C159.911 425.943 165.751 425.109 171.501 424.061C177.841 405.533 184.681 387.2 192.001 369.061C197.101 367.761 202.101 367.761 207.001 369.061Z" fill="#050505"/>
<path fill-rule="evenodd" clip-rule="evenodd" d="M295 369.062C301.33 369.062 307.67 369.062 314 369.062C316.93 379.692 320.77 390.025 325.5 400.062C327.16 408.053 328.66 416.053 330 424.062C336.34 423.896 342.68 424.062 349 424.562C356.58 428.764 356.92 433.764 350 439.562C341.49 443.691 332.49 445.358 323 444.562C321.35 440.742 320.02 436.742 319 432.562C319.83 430.084 320 427.584 319.5 425.062C316.26 417.921 313.59 410.588 311.5 403.062C305.73 391.856 300.23 380.522 295 369.062Z" fill="#060606"/>
</svg>
