<svg width="500" height="500" viewBox="0 0 500 500" fill="none" xmlns="http://www.w3.org/2000/svg">
<path fill-rule="evenodd" clip-rule="evenodd" d="M368 296.062C366.35 297.532 364.52 298.862 362.5 300.062C361.83 302.062 361.17 304.062 360.5 306.062C357.17 309.402 354.34 313.062 352 317.062C349.77 322.332 346.44 326.832 342 330.562C337.46 331.082 335.46 328.912 336 324.062C335.44 316.912 334.78 309.912 334 303.062C333.24 298.412 332.57 293.742 332 289.062C334.01 289.172 335.68 288.502 337 287.062C340 297.732 341.83 308.732 342.5 320.062C346.59 313.552 350.92 307.222 355.5 301.062C356.59 298.522 357.26 295.852 357.5 293.062C358.17 292.392 358.83 291.732 359.5 291.062C360.96 279.322 362.96 267.652 365.5 256.062C366.17 244.732 366.17 233.392 365.5 222.062C361.92 210.512 355.92 200.512 347.5 192.062C337.63 182.522 327.47 173.362 317 164.562C299.41 152.972 280.07 146.472 259 145.062C242.29 145.612 225.62 146.782 209 148.562C188.98 154.672 170.65 164.002 154 176.562C149.64 181.502 145.14 186.332 140.5 191.062C140.17 192.392 139.83 193.732 139.5 195.062C135.02 198.672 132.02 203.332 130.5 209.062C127.29 218.342 125.13 227.842 124 237.562C126.2 250.272 127.7 263.112 128.5 276.062C130.35 282.452 132.35 288.792 134.5 295.062C137.91 301.562 141.58 307.892 145.5 314.062C147.5 316.062 149.5 318.062 151.5 320.062C150.19 298.742 152.19 277.742 157.5 257.062C163.05 254.782 164.88 256.442 163 262.062C163.77 263.962 164.77 265.622 166 267.062C161.7 270.532 157.86 274.532 154.5 279.062C153.83 281.392 153.83 283.732 154.5 286.062C155.61 287.602 157.11 288.262 159 288.062C159.17 298.732 159 309.402 158.5 320.062C156.45 322.272 156.61 324.272 159 326.062C159 327.062 159 328.062 159 329.062C155.03 327.792 151.03 326.452 147 325.062C144.3 322.032 141.64 319.032 139 316.062C139.15 315.012 138.98 314.012 138.5 313.062C136.18 311.092 134.35 308.762 133 306.062C116.01 312.892 103.34 324.392 95 340.562C95.54 341.282 96.21 341.782 97 342.062C96.46 345.212 97.46 347.712 100 349.562C105.01 349.952 110.01 349.782 115 349.062C114.58 352.572 113.58 355.902 112 359.062C109.38 362.262 107.71 365.922 107 370.062C112.46 369.852 117.62 368.522 122.5 366.062C125.37 366.162 127.37 367.492 128.5 370.062C129 374.052 129.17 378.052 129 382.062C145.93 376.302 158.43 365.302 166.5 349.062C169.4 347.012 171.24 344.352 172 341.062C174.2 341.162 176.2 341.832 178 343.062C171.11 355.802 162.44 367.302 152 377.562C144.31 383.752 135.65 387.082 126 387.562C125.17 386.732 124.33 385.892 123.5 385.062C123 381.072 122.83 377.072 123 373.062C100.91 380.642 95.58 374.312 107 354.062C102.89 351.782 98.56 349.942 94 348.562C91.27 346.682 89.6 344.182 89 341.062C90.69 335.362 93.19 330.022 96.5 325.062C105.63 314.592 116.47 306.422 129 300.562C123.93 282.092 120.43 263.252 118.5 244.062C117.63 243.452 117.13 242.622 117 241.562C118.49 227.832 121.15 214.332 125 201.062C118.38 195.612 111.88 189.942 105.5 184.062C101.31 177.152 97.31 170.152 93.5 163.062C91.7 155.812 91.03 148.482 91.5 141.062C93.19 137.352 96.02 136.182 100 137.562C102.6 138.702 105.26 139.532 108 140.062C107.83 133.052 108 126.052 108.5 119.062C110.03 116.472 112.19 115.642 115 116.562C119.84 120.482 125.17 123.652 131 126.062C131.83 120.762 132.33 115.422 132.5 110.062C133.23 107.822 134.73 106.492 137 106.062C152.48 110.382 165.65 118.382 176.5 130.062C179.99 136.922 183.66 143.592 187.5 150.062C196.25 147.002 205.08 144.162 214 141.562C237.05 139.262 260.05 139.592 283 142.562C293.19 145.662 302.86 149.832 312 155.062C321.75 137.142 335.42 122.982 353 112.562C355.93 111.242 358.93 110.582 362 110.562C362.83 111.392 363.67 112.232 364.5 113.062C364.67 118.422 365.17 123.762 366 129.062C371.09 125.312 376.76 123.472 383 123.562C383.83 124.392 384.67 125.232 385.5 126.062C386.79 132.132 387.29 138.132 387 144.062C391.68 142.872 396.34 142.032 401 141.562C405.36 143.262 407.03 146.422 406 151.062C405.22 155.742 404.05 160.402 402.5 165.062C395.17 178.052 386.01 189.552 375 199.562C371.11 200.612 367.45 202.112 364 204.062C367.31 209.512 370.15 215.172 372.5 221.062C373.24 234.092 372.9 247.092 371.5 260.062C369.03 269.282 367.19 278.612 366 288.062C366.17 290.392 366.33 292.732 366.5 295.062C366.88 295.622 367.38 295.952 368 296.062Z" fill="#37CF72"/>
<path fill-rule="evenodd" clip-rule="evenodd" d="M139 113.062C160.42 118.482 174.42 131.812 181 153.062C160.79 162.582 143.96 176.252 130.5 194.062C128.71 193.222 126.88 193.052 125 193.562C119.83 189.062 114.67 184.562 109.5 180.062C106.16 174.022 102.83 168.022 99.5 162.062C98.01 155.812 97.18 149.472 97 143.062C99.52 143.322 101.85 144.152 104 145.562C107.26 146.342 110.43 146.182 113.5 145.062C113.83 137.732 114.17 130.392 114.5 123.062C119.42 126.602 124.58 129.772 130 132.562C134.73 133.842 137.23 132.012 137.5 127.062C137.78 122.342 138.28 117.682 139 113.062Z" fill="#7BE880"/>
<path fill-rule="evenodd" clip-rule="evenodd" d="M358 116.062C359.3 117.962 359.97 120.292 360 123.062C359.13 128.642 359.13 134.142 360 139.562C361 140.232 362 140.232 363 139.562C367.32 134.062 372.98 130.562 380 129.062C380.35 136.942 380.68 144.782 381 152.562C386.82 149.682 393.16 147.852 400 147.062C400.23 152.252 399.39 157.252 397.5 162.062C390.57 174.072 382.07 184.912 372 194.562C369.55 195.282 367.22 196.282 365 197.562C363.33 198.232 361.67 198.232 360 197.562C347.63 184.522 334.63 172.192 321 160.562C319.61 159.602 318.94 158.272 319 156.562C321.02 152.012 323.19 147.512 325.5 143.062C335.12 132.362 345.95 123.362 358 116.062Z" fill="#7BE880"/>
<path fill-rule="evenodd" clip-rule="evenodd" d="M337 287.062C337.16 285.692 336.99 284.352 336.5 283.062C333.9 280.682 331.07 278.682 328 277.062C327.61 275.382 327.11 273.712 326.5 272.062C325.78 272.602 325.28 273.272 325 274.062C319.64 270.052 313.64 267.382 307 266.062C305.77 251.552 301.44 238.052 294 225.562C292.28 225.212 290.62 224.712 289 224.062C287.51 229.952 286.67 235.952 286.5 242.062C284.42 248.542 281.59 254.542 278 260.062C276.67 260.392 275.33 260.732 274 261.062C267.79 245.642 261.29 230.312 254.5 215.062C250.95 213.062 247.78 210.722 245 208.062C243.12 208.442 241.62 209.442 240.5 211.062C231.17 226.722 223.17 243.052 216.5 260.062C212.03 256.002 209.03 251.002 207.5 245.062C204.66 237.332 203.33 229.332 203.5 221.062C202.36 217.642 200.69 217.312 198.5 220.062C194.22 233.292 189.38 246.292 184 259.062C177.76 261.182 171.76 263.842 166 267.062C164.77 265.622 163.77 263.962 163 262.062C164.88 256.442 163.05 254.782 157.5 257.062C152.19 277.742 150.19 298.742 151.5 320.062C149.5 318.062 147.5 316.062 145.5 314.062C141.58 307.892 137.91 301.562 134.5 295.062C132.35 288.792 130.35 282.452 128.5 276.062C127.7 263.112 126.2 250.272 124 237.562C125.13 227.842 127.29 218.342 130.5 209.062C132.02 203.332 135.02 198.672 139.5 195.062C139.83 193.732 140.17 192.392 140.5 191.062C145.14 186.332 149.64 181.502 154 176.562C170.65 164.002 188.98 154.672 209 148.562C225.62 146.782 242.29 145.612 259 145.062C280.07 146.472 299.41 152.972 317 164.562C327.47 173.362 337.63 182.522 347.5 192.062C355.92 200.512 361.92 210.512 365.5 222.062C366.17 233.392 366.17 244.732 365.5 256.062C362.96 267.652 360.96 279.322 359.5 291.062C358.83 291.732 358.17 292.392 357.5 293.062C357.26 295.852 356.59 298.522 355.5 301.062C350.92 307.222 346.59 313.552 342.5 320.062C341.83 308.732 340 297.732 337 287.062Z" fill="#7BE880"/>
<path fill-rule="evenodd" clip-rule="evenodd" d="M274 261.062C272.56 262.622 270.89 263.962 269 265.062C262.79 249.642 256.29 234.312 249.5 219.062C248.51 217.622 247.18 216.622 245.5 216.062C235.27 231.192 227.77 247.532 223 265.062C217.9 261.362 212.24 259.032 206 258.062C203.79 251.932 201.29 245.932 198.5 240.062C195.99 245.752 193.49 251.422 191 257.062C188.84 257.972 186.51 258.632 184 259.062C189.38 246.292 194.22 233.292 198.5 220.062C200.69 217.312 202.36 217.642 203.5 221.062C203.33 229.332 204.66 237.332 207.5 245.062C209.03 251.002 212.03 256.002 216.5 260.062C223.17 243.052 231.17 226.722 240.5 211.062C241.62 209.442 243.12 208.442 245 208.062C247.78 210.722 250.95 213.062 254.5 215.062C261.29 230.312 267.79 245.642 274 261.062Z" fill="#38CF73"/>
<path fill-rule="evenodd" clip-rule="evenodd" d="M269 265.062C259.12 276.322 256.29 289.322 260.5 304.062C261.44 307.772 263.27 310.932 266 313.562C271.26 316.812 276.92 318.982 283 320.062C282.29 320.962 281.29 321.302 280 321.062C282.27 332.152 289.1 337.482 300.5 337.062C322.71 336.352 333.87 325.022 334 303.062C334.78 309.912 335.44 316.912 336 324.062C333.92 326.632 332.59 329.632 332 333.062C330.1 333.302 328.76 334.302 328 336.062C319.88 341.002 311.88 346.172 304 351.562C296.67 352.842 289.33 354.002 282 355.062C281.73 361.142 281.73 367.142 282 373.062C290.1 373.862 296.93 377.192 302.5 383.062C303.17 385.062 303.17 387.062 302.5 389.062C298.69 393.422 294.19 394.922 289 393.562C282.54 393.482 276.21 392.652 270 391.062C269.19 388.602 268.19 386.272 267 384.062C267.5 374.762 266.5 365.592 264 356.562C260.32 357.462 256.49 357.962 252.5 358.062C243.72 356.662 234.88 355.662 226 355.062C225.34 365.822 224.18 376.492 222.5 387.062C220.21 389.622 217.37 391.292 214 392.062C208.87 391.322 203.71 391.322 198.5 392.062C193.49 392.782 189.15 391.452 185.5 388.062C184.2 386.202 183.87 384.202 184.5 382.062C190.43 376.252 197.6 373.252 206 373.062C206 365.732 206 358.392 206 351.062C198.95 349.882 191.95 348.382 185 346.562C182.36 345.912 180.03 344.742 178 343.062C176.2 341.832 174.2 341.162 172 341.062C168 336.732 164 332.392 160 328.062C162.73 330.942 166.06 333.112 170 334.562C178.37 335.182 186.7 334.852 195 333.562C203.65 331.422 207.98 325.922 208 317.062C211.47 315.492 214.8 313.662 218 311.562C222.77 306.512 226.94 301.012 230.5 295.062C231.17 291.392 231.17 287.732 230.5 284.062C226.84 278.082 224.34 271.752 223 265.062C227.77 247.532 235.27 231.192 245.5 216.062C247.18 216.622 248.51 217.622 249.5 219.062C256.29 234.312 262.79 249.642 269 265.062Z" fill="#FAFBFA"/>
<path fill-rule="evenodd" clip-rule="evenodd" d="M307 266.062C304.48 265.302 302.15 264.302 300 263.062C298.15 254.982 295.98 246.982 293.5 239.062C291.69 246.332 289.19 253.332 286 260.062C283.33 260.062 280.67 260.062 278 260.062C281.59 254.542 284.42 248.542 286.5 242.062C286.67 235.952 287.51 229.952 289 224.062C290.62 224.712 292.28 225.212 294 225.562C301.44 238.052 305.77 251.552 307 266.062Z" fill="#3BCF72"/>
<path fill-rule="evenodd" clip-rule="evenodd" d="M206 258.062C201.05 257.232 196.05 256.902 191 257.062C193.49 251.422 195.99 245.752 198.5 240.062C201.29 245.932 203.79 251.932 206 258.062Z" fill="#F6FAF7"/>
<path fill-rule="evenodd" clip-rule="evenodd" d="M300 263.062C295.41 261.752 290.74 260.752 286 260.062C289.19 253.332 291.69 246.332 293.5 239.062C295.98 246.982 298.15 254.982 300 263.062Z" fill="#F2F7F3"/>
<path fill-rule="evenodd" clip-rule="evenodd" d="M191.001 257.062C196.051 256.902 201.051 257.232 206.001 258.062C212.241 259.032 217.901 261.362 223.001 265.062C224.341 271.752 226.841 278.082 230.501 284.062C231.171 287.732 231.171 291.392 230.501 295.062C226.941 301.012 222.771 306.512 218.001 311.562C214.801 313.662 211.471 315.492 208.001 317.062C192.181 321.402 181.021 316.072 174.501 301.062C172.721 295.872 171.881 290.542 172.001 285.062C171.981 282.962 172.641 281.132 174.001 279.562C173.671 279.062 173.331 278.562 173.001 278.062C170.651 279.752 168.651 281.752 167.001 284.062C164.581 285.802 161.911 287.132 159.001 288.062C157.111 288.262 155.611 287.602 154.501 286.062C153.831 283.732 153.831 281.392 154.501 279.062C157.861 274.532 161.701 270.532 166.001 267.062C171.761 263.842 177.761 261.182 184.001 259.062C186.511 258.632 188.841 257.972 191.001 257.062Z" fill="#050505"/>
<path fill-rule="evenodd" clip-rule="evenodd" d="M277.999 260.062C280.669 260.062 283.329 260.062 285.999 260.062C290.739 260.752 295.409 261.752 299.999 263.062C302.149 264.302 304.479 265.302 306.999 266.062C313.639 267.382 319.639 270.052 324.999 274.062C325.669 275.392 326.669 276.392 327.999 277.062C331.069 278.682 333.899 280.682 336.499 283.062C336.989 284.352 337.159 285.692 336.999 287.062C335.679 288.502 334.009 289.172 331.999 289.062C327.879 287.702 323.879 286.032 319.999 284.062C319.349 282.752 318.349 281.752 316.999 281.062C315.709 282.862 315.709 284.532 316.999 286.062C315.169 295.372 311.669 304.032 306.499 312.062C299.929 318.462 292.099 321.132 282.999 320.062C276.919 318.982 271.259 316.812 265.999 313.562C263.269 310.932 261.439 307.772 260.499 304.062C256.289 289.322 259.119 276.322 268.999 265.062C270.889 263.962 272.559 262.622 273.999 261.062C275.329 260.732 276.669 260.392 277.999 260.062Z" fill="#040404"/>
<path fill-rule="evenodd" clip-rule="evenodd" d="M276.001 268.061C280.021 267.461 283.521 268.461 286.501 271.061C287.091 276.551 286.421 281.881 284.501 287.061C281.161 289.881 277.331 290.711 273.001 289.561C270.821 287.761 268.991 285.591 267.501 283.061C266.831 280.391 266.831 277.731 267.501 275.061C270.241 272.461 273.071 270.131 276.001 268.061Z" fill="#F8F8F8"/>
<path fill-rule="evenodd" clip-rule="evenodd" d="M208 268.062C215.26 267.162 218.93 270.322 219 277.562C218.49 285.062 214.66 289.902 207.5 292.062C198.49 287.702 196.83 281.372 202.5 273.062C204.23 271.162 206.06 269.492 208 268.062Z" fill="#F6F6F6"/>
<path fill-rule="evenodd" clip-rule="evenodd" d="M328 277.062C326.67 276.392 325.67 275.392 325 274.062C325.28 273.272 325.78 272.602 326.5 272.062C327.11 273.712 327.61 275.382 328 277.062Z" fill="#E7F0EB"/>
<path fill-rule="evenodd" clip-rule="evenodd" d="M396 287.061C394.33 287.901 393.16 289.241 392.5 291.061C392.06 293.411 391.56 295.741 391 298.061C392.08 300.551 393.41 302.881 395 305.061C394.2 310.891 391.7 311.551 387.5 307.061C387 304.751 386.84 302.421 387 300.061C387 295.391 387 290.731 387 286.061C387.22 284.881 386.89 283.881 386 283.061C382.27 287.421 379.6 286.921 378 281.561C378.09 280.451 378.42 279.451 379 278.561C372.73 277.061 371.73 274.061 376 269.561C381.12 268.141 381.12 267.141 376 266.561C372.48 261.481 373.82 258.811 380 258.561C376.99 255.641 376.66 252.641 379 249.561C383.28 249.531 386.61 251.371 389 255.061C394.08 247.991 398.08 248.661 401 257.061C406.79 255.191 409.29 257.191 408.5 263.061C407.09 264.351 405.59 265.511 404 266.561C409.21 268.711 411.21 272.371 410 277.561C408.03 278.061 406.03 278.221 404 278.061C404.52 284.051 402.02 286.051 396.5 284.061C396.02 285.011 395.85 286.011 396 287.061Z" fill="#43D374"/>
<path fill-rule="evenodd" clip-rule="evenodd" d="M172 285.062C170.92 285.102 169.92 285.432 169 286.062C168.32 285.322 167.65 284.652 167 284.062C168.65 281.752 170.65 279.752 173 278.062C173.33 278.562 173.67 279.062 174 279.562C172.64 281.132 171.98 282.962 172 285.062Z" fill="#48CB75"/>
<path fill-rule="evenodd" clip-rule="evenodd" d="M320.001 284.062C319.531 285.472 318.531 286.132 317.001 286.062C315.711 284.532 315.711 282.862 317.001 281.062C318.351 281.752 319.351 282.752 320.001 284.062Z" fill="#40BF70"/>
<path fill-rule="evenodd" clip-rule="evenodd" d="M167 284.062C167.65 284.652 168.32 285.322 169 286.062C169.92 285.432 170.92 285.102 172 285.062C171.88 290.542 172.72 295.872 174.5 301.062C181.02 316.072 192.18 321.402 208 317.062C207.98 325.922 203.65 331.422 195 333.562C186.7 334.852 178.37 335.182 170 334.562C166.06 333.112 162.73 330.942 160 328.062C160.17 327.072 159.84 326.402 159 326.062C156.61 324.272 156.45 322.272 158.5 320.062C159 309.402 159.17 298.732 159 288.062C161.91 287.132 164.58 285.802 167 284.062Z" fill="#FCE2E2"/>
<path fill-rule="evenodd" clip-rule="evenodd" d="M320 284.062C323.88 286.032 327.88 287.702 332 289.062C332.57 293.742 333.24 298.412 334 303.062C333.87 325.022 322.71 336.352 300.5 337.062C289.1 337.482 282.27 332.152 280 321.062C281.29 321.302 282.29 320.962 283 320.062C292.1 321.132 299.93 318.462 306.5 312.062C311.67 304.032 315.17 295.372 317 286.062C318.53 286.132 319.53 285.472 320 284.062Z" fill="#FDE3E3"/>
<path fill-rule="evenodd" clip-rule="evenodd" d="M387 286.062C387 290.732 387 295.392 387 300.062C384.96 301.412 382.96 302.742 381 304.062C379.22 304.452 377.55 305.122 376 306.062C368.43 310.622 360.43 314.282 352 317.062C354.34 313.062 357.17 309.402 360.5 306.062C361.17 304.062 361.83 302.062 362.5 300.062C364.52 298.862 366.35 297.532 368 296.062C374.81 293.572 381.15 290.232 387 286.062Z" fill="#F8FBF8"/>
<path fill-rule="evenodd" clip-rule="evenodd" d="M396 287.061C400.98 286.371 403.98 288.371 405 293.061C404.27 296.411 403.44 299.751 402.5 303.061C400.41 305.711 397.91 306.371 395 305.061C393.41 302.881 392.08 300.551 391 298.061C391.56 295.741 392.06 293.411 392.5 291.061C393.16 289.241 394.33 287.901 396 287.061Z" fill="#F8FBF9"/>
<path fill-rule="evenodd" clip-rule="evenodd" d="M381 304.062C390.66 309.812 397.83 317.812 402.5 328.062C408.43 332.372 410.59 338.032 409 345.062C407.59 345.802 406.26 346.642 405 347.562C400.26 349.002 395.59 349.502 391 349.062C394.47 358.012 392.8 365.842 386 372.562C384.33 373.232 382.67 373.232 381 372.562C378.11 370.002 374.94 367.842 371.5 366.062C371.17 370.732 370.83 375.392 370.5 380.062C369.24 382.362 367.4 383.192 365 382.562C361.79 380.712 358.46 379.042 355 377.562C351.72 373.502 347.89 370.002 343.5 367.062C338.66 360.702 334.32 354.032 330.5 347.062C329.82 343.342 328.99 339.672 328 336.062C328.76 334.302 330.1 333.302 332 333.062C333 332.972 333.83 333.312 334.5 334.062C334.35 339.482 336.01 344.152 339.5 348.062C341.58 354.632 345.08 360.302 350 365.062C354.39 368.782 359.05 372.112 364 375.062C364.33 373.562 364.67 372.062 365 370.562C364.47 365.772 363.47 361.112 362 356.562C361.6 352.622 363.27 351.292 367 352.562C369.71 354.932 372.04 357.602 374 360.562C377.33 361.892 380.33 363.722 383 366.062C383.98 365.582 384.81 364.922 385.5 364.062C386.17 359.732 386.17 355.392 385.5 351.062C384.34 348.582 382.84 346.422 381 344.562C381.89 341.912 383.55 340.082 386 339.062C390.88 342.782 396.22 343.612 402 341.562C402.88 340.202 403.21 338.702 403 337.062C402 337.062 401 337.062 400 337.062C400.13 334.912 399.63 332.912 398.5 331.062C394.25 327.482 390.75 323.312 388 318.562C384.76 315.642 381.26 313.142 377.5 311.062C377.15 309.312 376.65 307.652 376 306.062C377.55 305.122 379.22 304.452 381 304.062Z" fill="#36CF72"/>
<path fill-rule="evenodd" clip-rule="evenodd" d="M139 316.062C130.21 323.012 121.54 330.182 113 337.562C109.03 338.412 105.03 339.082 101 339.562C99.18 339.762 97.85 340.592 97 342.062C96.21 341.782 95.54 341.282 95 340.562C103.34 324.392 116.01 312.892 133 306.062C134.35 308.762 136.18 311.092 138.5 313.062C138.98 314.012 139.15 315.012 139 316.062Z" fill="#7CE981"/>
<path fill-rule="evenodd" clip-rule="evenodd" d="M376 306.062C376.65 307.652 377.15 309.312 377.5 311.062C381.26 313.142 384.76 315.642 388 318.562C390.75 323.312 394.25 327.482 398.5 331.062C399.63 332.912 400.13 334.912 400 337.062C401 337.062 402 337.062 403 337.062C403.21 338.702 402.88 340.202 402 341.562C396.22 343.612 390.88 342.782 386 339.062C383.55 340.082 381.89 341.912 381 344.562C382.84 346.422 384.34 348.582 385.5 351.062C386.17 355.392 386.17 359.732 385.5 364.062C384.81 364.922 383.98 365.582 383 366.062C380.33 363.722 377.33 361.892 374 360.562C372.04 357.602 369.71 354.932 367 352.562C363.27 351.292 361.6 352.622 362 356.562C363.47 361.112 364.47 365.772 365 370.562C364.67 372.062 364.33 373.562 364 375.062C359.05 372.112 354.39 368.782 350 365.062C345.08 360.302 341.58 354.632 339.5 348.062C336.01 344.152 334.35 339.482 334.5 334.062C333.83 333.312 333 332.972 332 333.062C332.59 329.632 333.92 326.632 336 324.062C335.46 328.912 337.46 331.082 342 330.562C346.44 326.832 349.77 322.332 352 317.062C360.43 314.282 368.43 310.622 376 306.062Z" fill="#7CE981"/>
<path fill-rule="evenodd" clip-rule="evenodd" d="M138.999 316.062C141.639 319.032 144.299 322.032 146.999 325.062C135.919 331.972 128.419 341.642 124.499 354.062C121.519 358.552 117.359 360.212 111.999 359.062C113.579 355.902 114.579 352.572 114.999 349.062C110.009 349.782 105.009 349.952 99.9994 349.562C97.4594 347.712 96.4594 345.212 96.9994 342.062C97.8494 340.592 99.1794 339.762 100.999 339.562C105.029 339.082 109.029 338.412 112.999 337.562C121.539 330.182 130.209 323.012 138.999 316.062Z" fill="#F9FBF9"/>
<path fill-rule="evenodd" clip-rule="evenodd" d="M259 323.062C262.39 322.352 264.72 323.522 266 326.562C263.45 332.442 259.45 337.112 254 340.562C252.33 341.232 250.67 341.232 249 340.562C243.56 338.092 238.39 335.262 233.5 332.062C232.38 328.502 233.71 326.502 237.5 326.062C242.18 327.652 246.68 329.652 251 332.062C253.9 329.262 256.57 326.262 259 323.062Z" fill="#0C0C0C"/>
<path fill-rule="evenodd" clip-rule="evenodd" d="M147 325.062C151.03 326.452 155.03 327.792 159 329.062C159 328.062 159 327.062 159 326.062C159.84 326.402 160.17 327.072 160 328.062C164 332.392 168 336.732 172 341.062C171.24 344.352 169.4 347.012 166.5 349.062C158.43 365.302 145.93 376.302 129 382.062C129.17 378.052 129 374.052 128.5 370.062C127.37 367.492 125.37 366.162 122.5 366.062C117.62 368.522 112.46 369.852 107 370.062C107.71 365.922 109.38 362.262 112 359.062C117.36 360.212 121.52 358.552 124.5 354.062C128.42 341.642 135.92 331.972 147 325.062Z" fill="#7CE881"/>
</svg>
