<svg width="500" height="500" viewBox="0 0 500 500" fill="none" xmlns="http://www.w3.org/2000/svg">
<path fill-rule="evenodd" clip-rule="evenodd" d="M274 105.062C266.67 106.392 259.67 108.732 253 112.062C238.34 105.702 223.01 103.532 207 105.562C203.97 107.072 200.97 108.572 198 110.062C193.26 106.662 188.26 103.662 183 101.062C193 97.2421 203 93.0721 213 88.5621C218.69 88.1521 224.36 88.4921 230 89.5621C245 94.1321 259.66 99.3021 274 105.062Z" fill="#FF7042"/>
<path fill-rule="evenodd" clip-rule="evenodd" d="M183 101.062C188.26 103.662 193.26 106.662 198 110.062C199.01 112.442 200.85 113.442 203.5 113.062C216.09 108.982 228.59 109.152 241 113.562C242.29 114.972 243.45 116.472 244.5 118.062C247.1 115.682 249.93 113.682 253 112.062C259.67 108.732 266.67 106.392 274 105.062C285.32 102.902 296.65 100.732 308 98.562C317.34 96.662 325.17 99.162 331.5 106.062C334.67 114.072 335.84 122.402 335 131.062C335 135.732 335 140.392 335 145.062C334.17 152.552 333.67 160.222 333.5 168.062C332.36 170.992 331.52 173.992 331 177.062C329.79 189.322 324.12 198.822 314 205.562C311.07 206.702 308.07 207.542 305 208.062C293.07 207.632 281.74 204.962 271 200.062C268.33 199.062 265.67 198.062 263 197.062C256.95 192.202 250.45 187.862 243.5 184.062C234.75 186.972 225.75 188.642 216.5 189.062C209.2 189.732 202.53 188.072 196.5 184.062C189.03 188.372 181.86 193.042 175 198.062C174.67 198.062 174.33 198.062 174 198.062C159.17 203.222 144.5 208.562 130 214.062C125.24 212.812 121.41 210.152 118.5 206.062C115.27 197.832 111.77 189.832 108 182.062C106.48 176.582 104.64 171.252 102.5 166.062C102.38 157.732 102.55 149.402 103 141.062C106.02 124.522 112.69 109.692 123 96.562C127.57 93.612 132.57 91.772 138 91.062C153.58 92.042 168.58 95.372 183 101.062Z" fill="#E21521"/>
<path fill-rule="evenodd" clip-rule="evenodd" d="M136 100.062C152.17 101.452 167.84 105.282 183 111.562C186.37 115.322 190.21 118.492 194.5 121.062C194 136.382 194 151.712 194.5 167.062C194.85 168.782 195.35 170.442 196 172.062C187.47 177.762 178.8 183.262 170 188.562C157.12 193.632 144.28 198.462 131.5 203.062C128.83 203.392 126.83 202.392 125.5 200.062C122.68 190.092 119.02 180.422 114.5 171.062C110.63 149.392 113.63 128.732 123.5 109.062C126.85 104.662 131.01 101.662 136 100.062Z" fill="#FE3636"/>
<path fill-rule="evenodd" clip-rule="evenodd" d="M253 112.062C249.93 113.682 247.1 115.682 244.5 118.062C243.45 116.472 242.29 114.972 241 113.562C228.59 109.152 216.09 108.982 203.5 113.062C200.85 113.442 199.01 112.442 198 110.062C200.97 108.572 203.97 107.072 207 105.562C223.01 103.532 238.34 105.702 253 112.062Z" fill="#FECD30"/>
<path fill-rule="evenodd" clip-rule="evenodd" d="M313 106.062C317.76 105.842 321.93 107.172 325.5 110.062C325.7 127.402 325.36 144.732 324.5 162.062C322.83 169.402 321.16 176.732 319.5 184.062C316.97 190.252 312.81 194.752 307 197.562C292.52 197.742 278.85 194.402 266 187.562C260.09 183.022 253.93 178.862 247.5 175.062C251.78 158.842 251.95 142.512 248 126.062C249.05 126.212 250.05 126.042 251 125.562C256.38 120.532 262.72 117.202 270 115.562C284.72 113.442 299.06 110.282 313 106.062Z" fill="#FE3535"/>
<path fill-rule="evenodd" clip-rule="evenodd" d="M219.001 119.062C224.271 119.942 229.611 120.942 235.001 122.062C235.981 123.542 237.151 124.872 238.501 126.062C241.421 139.662 241.751 153.332 239.501 167.062C237.221 169.622 236.051 172.622 236.001 176.062C231.551 176.712 227.221 177.882 223.001 179.562C219.331 180.232 215.671 180.232 212.001 179.562C211.801 176.242 210.131 174.072 207.001 173.062C205.921 171.892 205.081 170.562 204.501 169.062C203.831 156.062 203.831 143.062 204.501 130.062C205.261 127.362 206.431 124.862 208.001 122.562C211.831 121.532 215.501 120.362 219.001 119.062Z" fill="#FE3636"/>
<path fill-rule="evenodd" clip-rule="evenodd" d="M335 131.062C345.37 134.742 355.03 139.742 364 146.062C364.93 147.672 365.76 149.342 366.5 151.062C369.33 172.982 370.66 194.982 370.5 217.062C369.88 218.682 368.88 220.012 367.5 221.062C367 235.062 366.83 249.062 367 263.062C365.7 267.832 365.7 272.492 367 277.062C366.44 293.062 365.94 309.062 365.5 325.062C364.18 328.362 362.35 331.362 360 334.062C355.96 337.122 351.96 340.122 348 343.062C344.02 345.712 340.35 348.712 337 352.062C328.36 357.382 319.69 362.722 311 368.062C310.98 361.702 311.31 355.372 312 349.062C316.07 347.532 320.07 345.702 324 343.562C332.92 336.852 341.76 330.012 350.5 323.062C351.35 319.092 352.02 315.092 352.5 311.062C353 297.062 353.17 283.062 353 269.062C353.8 267.522 354.13 265.852 354 264.062C354.17 253.722 354 243.392 353.5 233.062C353.28 231.622 352.78 230.292 352 229.062C344.46 232.992 336.8 236.662 329 240.062C321.79 237.852 314.45 237.522 307 239.062C306.16 237.182 305.83 235.182 306 233.062C306.77 233.822 307.27 234.822 307.5 236.062C317.33 230.902 327.49 226.402 338 222.562C345 219.562 351.5 215.722 357.5 211.062C357.75 198.012 357.75 185.012 357.5 172.062C354.66 170.062 351.49 169.562 348 170.562C344.43 171.682 341.1 173.352 338 175.562C335.76 176.542 333.43 177.042 331 177.062C331.52 173.992 332.36 170.992 333.5 168.062C333.67 160.222 334.17 152.552 335 145.062C335 140.392 335 135.732 335 131.062Z" fill="#FE7043"/>
<path fill-rule="evenodd" clip-rule="evenodd" d="M103 141.062C102.55 149.402 102.38 157.732 102.5 166.062C104.64 171.252 106.48 176.582 108 182.062C102.15 180.222 96.98 177.222 92.5 173.062C90.83 186.562 90.67 200.062 92 213.562C103.99 220.562 116.32 227.062 129 233.062C129.95 231.512 130.29 229.852 130 228.062C130.99 235.882 131.33 243.882 131 252.062C120.11 246.872 109.11 241.872 98 237.062C97.35 266.502 98.85 295.832 102.5 325.062C110.72 332.442 119.89 338.442 130 343.062C130.68 342.702 131.35 342.362 132 342.062C131.66 348.242 130.99 354.242 130 360.062C119.02 353.662 108.02 347.162 97 340.562C93.19 335.442 90.02 329.942 87.5 324.062C85.87 289.062 84.2 254.062 82.5 219.062C80.2 214.752 77.87 210.412 75.5 206.062C76 188.582 78 171.252 81.5 154.062C88.28 149.092 95.45 144.752 103 141.062Z" fill="#FE7042"/>
<path fill-rule="evenodd" clip-rule="evenodd" d="M334.999 145.062C340.109 147.122 344.769 149.952 348.999 153.562C344.869 156.712 340.369 159.212 335.499 161.062C334.999 155.742 334.829 150.402 334.999 145.062Z" fill="#FFCD30"/>
<path fill-rule="evenodd" clip-rule="evenodd" d="M306 233.062C305.38 224.742 305.04 216.412 305 208.062C308.07 207.542 311.07 206.702 314 205.562C324.12 198.822 329.79 189.322 331 177.062C333.43 177.042 335.76 176.542 338 175.562C341.1 173.352 344.43 171.682 348 170.562C351.49 169.562 354.66 170.062 357.5 172.062C357.75 185.012 357.75 198.012 357.5 211.062C351.5 215.722 345 219.562 338 222.562C327.49 226.402 317.33 230.902 307.5 236.062C307.27 234.822 306.77 233.822 306 233.062Z" fill="#FECB30"/>
<path fill-rule="evenodd" clip-rule="evenodd" d="M108 182.062C111.77 189.832 115.27 197.832 118.5 206.062C121.41 210.152 125.24 212.812 130 214.062C130 218.732 130 223.392 130 228.062C130.29 229.852 129.95 231.512 129 233.062C116.32 227.062 103.99 220.562 91.9999 213.562C90.6699 200.062 90.8299 186.562 92.4999 173.062C96.9799 177.222 102.15 180.222 108 182.062Z" fill="#FECB30"/>
<path fill-rule="evenodd" clip-rule="evenodd" d="M263 197.062C249.23 205.362 235.07 213.032 220.5 220.062C217.96 219.372 215.46 218.542 213 217.562C200.19 211.322 187.52 204.822 175 198.062C181.86 193.042 189.03 188.372 196.5 184.062C202.53 188.072 209.2 189.732 216.5 189.062C225.75 188.642 234.75 186.972 243.5 184.062C250.45 187.862 256.95 192.202 263 197.062Z" fill="#FECB30"/>
<path fill-rule="evenodd" clip-rule="evenodd" d="M262.999 197.062C265.669 198.062 268.329 199.062 270.999 200.062C271.889 202.612 272.219 205.282 271.999 208.062C258.039 216.542 243.369 223.712 227.999 229.562C227.169 230.392 226.329 231.232 225.499 232.062C225.819 247.072 226.649 262.072 227.999 277.062C237.359 272.052 246.689 267.052 255.999 262.062C248.369 268.652 242.699 276.652 238.999 286.062C235.299 288.022 231.469 289.682 227.499 291.062C226.359 297.512 225.529 304.012 224.999 310.562C225.909 332.072 227.079 353.572 228.499 375.062C229.479 379.782 230.639 384.452 231.999 389.062C237.199 387.362 242.529 386.192 247.999 385.562C256.839 380.642 265.839 375.972 274.999 371.562C277.989 369.592 280.659 367.432 282.999 365.062C283.769 365.822 284.269 366.822 284.499 368.062C284.999 373.052 285.169 378.052 284.999 383.062C279.589 385.772 274.249 388.432 268.999 391.062C262.799 393.162 256.799 395.832 250.999 399.062C250.199 399.522 249.869 400.182 249.999 401.062C239.309 406.302 227.969 408.472 215.999 407.562C206.269 402.362 196.269 397.702 185.999 393.562C178.429 388.952 171.099 384.122 163.999 379.062C163.209 365.072 162.879 351.072 162.999 337.062C163.829 345.552 164.329 354.222 164.499 363.062C181.329 372.472 197.999 382.142 214.499 392.062C214.329 365.072 213.999 338.072 213.499 311.062C213.309 303.812 212.809 296.652 211.999 289.562C194.839 281.452 177.499 273.612 159.999 266.062C159.999 273.732 159.999 281.392 159.999 289.062C158.669 271.062 158.669 253.062 159.999 235.062C159.669 239.772 160.009 244.442 160.999 249.062C172.209 254.832 183.539 260.332 194.999 265.562C199.699 269.752 205.029 272.922 210.999 275.062C211.799 273.482 212.299 271.822 212.499 270.062C213.169 259.392 213.169 248.732 212.499 238.062C211.099 233.772 208.599 230.272 204.999 227.562C190.899 220.512 176.569 214.012 161.999 208.062C162.309 211.932 161.979 215.602 160.999 219.062C160.829 214.052 160.999 209.052 161.499 204.062C166.039 202.712 170.199 200.712 173.999 198.062C174.329 198.062 174.669 198.062 174.999 198.062C187.519 204.822 200.189 211.322 212.999 217.562C215.459 218.542 217.959 219.372 220.499 220.062C235.069 213.032 249.229 205.362 262.999 197.062Z" fill="#FE7042"/>
<path fill-rule="evenodd" clip-rule="evenodd" d="M271 200.062C281.74 204.962 293.07 207.632 305 208.062C305.04 216.412 305.38 224.742 306 233.062C305.83 235.182 306.16 237.182 307 239.062C297.01 241.172 287.34 244.502 278 249.062C278.48 236.242 277.32 223.572 274.5 211.062C273.65 209.992 272.81 208.992 272 208.062C272.22 205.282 271.89 202.612 271 200.062Z" fill="#FF3835"/>
<path fill-rule="evenodd" clip-rule="evenodd" d="M174 198.062C170.2 200.712 166.04 202.712 161.5 204.062C161 209.052 160.83 214.052 161 219.062C161.03 224.422 160.69 229.762 160 235.062C158.67 253.062 158.67 271.062 160 289.062C160.92 305.072 161.92 321.072 163 337.062C162.88 351.072 163.21 365.072 164 379.062C155.37 376.732 147.7 372.732 141 367.062C140.83 362.052 141 357.052 141.5 352.062C144.32 341.102 146.99 330.102 149.5 319.062C150.88 318.012 151.88 316.682 152.5 315.062C153.31 311.062 153.64 307.062 153.5 303.062C152.7 301.762 151.53 301.092 150 301.062C147.38 302.282 144.88 303.622 142.5 305.062C139.49 316.262 135.99 327.262 132 338.062C131.58 309.392 131.25 280.732 131 252.062C131.33 243.882 130.99 235.882 130 228.062C130 223.392 130 218.732 130 214.062C144.5 208.562 159.17 203.222 174 198.062Z" fill="#FD3635"/>
<path fill-rule="evenodd" clip-rule="evenodd" d="M367 277.062C365.7 272.492 365.7 267.832 367 263.062C380.1 253.012 390.77 240.852 399 226.562C392.74 221.872 389.24 215.712 388.5 208.062C390.31 206.162 392.47 205.662 395 206.562C398.94 208.172 401.94 210.842 404 214.562C407.24 215.932 410.57 216.262 414 215.562C416.62 213.292 419.62 212.622 423 213.562C425.7 217.092 425.37 220.432 422 223.562C417.91 225.762 413.57 227.262 409 228.062C400.36 246.192 388.69 262.032 374 275.562C371.76 276.542 369.43 277.042 367 277.062Z" fill="#242424"/>
<path fill-rule="evenodd" clip-rule="evenodd" d="M160 235.062C160.69 229.762 161.03 224.422 161 219.062C161.98 215.602 162.31 211.932 162 208.062C176.57 214.012 190.9 220.512 205 227.562C208.6 230.272 211.1 233.772 212.5 238.062C213.17 248.732 213.17 259.392 212.5 270.062C212.3 271.822 211.8 273.482 211 275.062C205.03 272.922 199.7 269.752 195 265.562C183.54 260.332 172.21 254.832 161 249.062C160.01 244.442 159.67 239.772 160 235.062Z" fill="#FFCB30"/>
<path fill-rule="evenodd" clip-rule="evenodd" d="M272 208.062C272.81 208.992 273.65 209.992 274.5 211.062C277.32 223.572 278.48 236.242 278 249.062C270.34 252.892 263 257.222 256 262.062C246.69 267.052 237.36 272.052 228 277.062C226.65 262.072 225.82 247.072 225.5 232.062C226.33 231.232 227.17 230.392 228 229.562C243.37 223.712 258.04 216.542 272 208.062Z" fill="#FFCA30"/>
<path fill-rule="evenodd" clip-rule="evenodd" d="M354 264.062C351 263.392 348 262.732 345 262.062C343.13 252.192 337.79 244.862 329 240.062C336.8 236.662 344.46 232.992 352 229.062C352.78 230.292 353.28 231.622 353.5 233.062C354 243.392 354.17 253.722 354 264.062Z" fill="#FECA31"/>
<path fill-rule="evenodd" clip-rule="evenodd" d="M131 252.062C131.25 280.732 131.58 309.392 132 338.062C132 339.392 132 340.732 132 342.062C131.35 342.362 130.68 342.702 130 343.062C119.89 338.442 110.72 332.442 102.5 325.062C98.8499 295.832 97.3499 266.502 97.9999 237.062C109.11 241.872 120.11 246.872 131 252.062Z" fill="#FFCA30"/>
<path fill-rule="evenodd" clip-rule="evenodd" d="M329 240.062C337.79 244.862 343.13 252.192 345 262.062C332.63 259.282 320.3 259.452 308 262.562C299.42 270.942 297.59 280.772 302.5 292.062C306.64 303.212 314.47 307.052 326 303.562C333.3 302.262 338.13 298.102 340.5 291.062C341.63 285.092 341.96 279.092 341.5 273.062C340.42 271.892 339.58 270.562 339 269.062C341.82 268.822 344.82 268.822 348 269.062C350.32 299.432 338.32 321.772 312 336.062C302.21 340.542 292.21 344.212 282 347.062C273.66 347.232 265.33 347.062 257 346.562C247.34 344.232 240.84 338.392 237.5 329.062C237.21 323.512 236.05 318.172 234 313.062C235.82 310.092 237.66 307.092 239.5 304.062C240.91 314.462 246.41 321.632 256 325.562C271.66 326.902 280.49 319.742 282.5 304.062C283.48 296.352 280.48 290.692 273.5 287.062C273 283.892 271.17 282.062 268 281.562C256.27 279.532 246.27 282.702 238 291.062C238.54 289.442 238.87 287.782 239 286.062C242.7 276.652 248.37 268.652 256 262.062C263 257.222 270.34 252.892 278 249.062C287.34 244.502 297.01 241.172 307 239.062C314.45 237.522 321.79 237.852 329 240.062Z" fill="#FAF9F8"/>
<path fill-rule="evenodd" clip-rule="evenodd" d="M345 262.062C348 262.732 351 263.392 354 264.062C354.13 265.852 353.8 267.522 353 269.062C351.33 269.062 349.67 269.062 348 269.062C344.82 268.822 341.82 268.822 339 269.062C339.58 270.562 340.42 271.892 341.5 273.062C341.96 279.092 341.63 285.092 340.5 291.062C338.13 298.102 333.3 302.262 326 303.562C314.47 307.052 306.64 303.212 302.5 292.062C297.59 280.772 299.42 270.942 308 262.562C320.3 259.452 332.63 259.282 345 262.062Z" fill="#060606"/>
<path fill-rule="evenodd" clip-rule="evenodd" d="M163 337.062C161.92 321.072 160.92 305.072 160 289.062C160 281.392 160 273.732 160 266.062C177.5 273.612 194.84 281.452 212 289.562C212.81 296.652 213.31 303.812 213.5 311.062C214 338.072 214.33 365.072 214.5 392.062C198 382.142 181.33 372.472 164.5 363.062C164.33 354.222 163.83 345.552 163 337.062Z" fill="#FFCB30"/>
<path fill-rule="evenodd" clip-rule="evenodd" d="M309.001 268.062C312.991 267.182 315.821 268.512 317.501 272.062C318.171 275.392 318.171 278.732 317.501 282.062C312.951 286.142 308.621 285.812 304.501 281.062C303.831 278.732 303.831 276.392 304.501 274.062C306.251 272.212 307.751 270.212 309.001 268.062Z" fill="#F3F3F3"/>
<path fill-rule="evenodd" clip-rule="evenodd" d="M348 269.062C349.67 269.062 351.33 269.062 353 269.062C353.17 283.062 353 297.062 352.5 311.062C352.02 315.092 351.35 319.092 350.5 323.062C341.76 330.012 332.92 336.852 324 343.562C320.07 345.702 316.07 347.532 312 349.062C312 344.732 312 340.392 312 336.062C338.32 321.772 350.32 299.432 348 269.062Z" fill="#FECB30"/>
<path fill-rule="evenodd" clip-rule="evenodd" d="M234 313.062C229.23 316.182 226.9 314.682 227 308.562C228.78 301.502 232.44 295.662 238 291.062C246.27 282.702 256.27 279.532 268 281.562C271.17 282.062 273 283.892 273.5 287.062C280.48 290.692 283.48 296.352 282.5 304.062C280.49 319.742 271.66 326.902 256 325.562C246.41 321.632 240.91 314.462 239.5 304.062C237.66 307.092 235.82 310.092 234 313.062Z" fill="#060606"/>
<path fill-rule="evenodd" clip-rule="evenodd" d="M263.001 286.062C271.281 287.952 273.781 292.952 270.501 301.062C266.291 306.252 262.291 305.912 258.501 300.062C257.831 297.062 257.831 294.062 258.501 291.062C259.691 289.062 261.191 287.402 263.001 286.062Z" fill="#F1F1F1"/>
<path fill-rule="evenodd" clip-rule="evenodd" d="M141 367.062C138.26 376.132 137.59 385.462 139 395.062C146.79 397.932 148.96 402.932 145.5 410.062C141.19 411.672 137.69 410.502 135 406.562C133.83 406.392 132.67 406.232 131.5 406.062C125.69 407.062 119.85 407.232 114 406.562C113.57 398.452 117.57 393.622 126 392.062C126.16 381.242 127.5 370.572 130 360.062C130.99 354.242 131.66 348.242 132 342.062C132 340.732 132 339.392 132 338.062C135.99 327.262 139.49 316.262 142.5 305.062C144.88 303.622 147.38 302.282 150 301.062C151.53 301.092 152.7 301.762 153.5 303.062C153.64 307.062 153.31 311.062 152.5 315.062C151.88 316.682 150.88 318.012 149.5 319.062C146.99 330.102 144.32 341.102 141.5 352.062C141 357.052 140.83 362.052 141 367.062Z" fill="#252525"/>
<path fill-rule="evenodd" clip-rule="evenodd" d="M311 311.062C313.76 310.472 315.43 311.472 316 314.062C313.79 327.622 306.62 330.952 294.5 324.062C293.99 322.562 294.49 321.402 296 320.562C300.04 320.392 304.04 319.892 308 319.062C308.7 316.252 309.7 313.582 311 311.062Z" fill="#111111"/>
<path fill-rule="evenodd" clip-rule="evenodd" d="M239 286.062C238.87 287.782 238.54 289.442 238 291.062C232.44 295.662 228.78 301.502 227 308.562C226.9 314.682 229.23 316.182 234 313.062C236.05 318.172 237.21 323.512 237.5 329.062C240.84 338.392 247.34 344.232 257 346.562C265.33 347.062 273.66 347.232 282 347.062C282 353.082 282.34 359.082 283 365.062C280.66 367.432 277.99 369.592 275 371.562C265.84 375.972 256.84 380.642 248 385.562C242.53 386.192 237.2 387.362 232 389.062C230.64 384.452 229.48 379.782 228.5 375.062C227.08 353.572 225.91 332.072 225 310.562C225.53 304.012 226.36 297.512 227.5 291.062C231.47 289.682 235.3 288.022 239 286.062Z" fill="#FECB30"/>
<path fill-rule="evenodd" clip-rule="evenodd" d="M337 352.062C340.35 348.712 344.02 345.712 348 343.062C360.35 343.392 372.68 343.062 385 342.062C388.74 335.982 393.74 331.312 400 328.062C404.03 328.952 406.37 331.452 407 335.562C405.2 342.152 401.87 347.822 397 352.562C394.26 353.542 391.43 354.042 388.5 354.062C376.33 353.092 364.16 352.092 352 351.062C347.77 350.842 343.77 351.512 340 353.062C338.92 352.872 337.92 352.542 337 352.062Z" fill="#232323"/>
<path fill-rule="evenodd" clip-rule="evenodd" d="M312 336.062C312 340.392 312 344.732 312 349.062C311.31 355.372 310.98 361.702 311 368.062C304.63 371.582 298.63 375.752 293 380.562C290.48 381.902 287.81 382.732 285 383.062C285.17 378.052 285 373.052 284.5 368.062C284.27 366.822 283.77 365.822 283 365.062C282.34 359.082 282 353.082 282 347.062C292.21 344.212 302.21 340.542 312 336.062Z" fill="#FF3735"/>
<path fill-rule="evenodd" clip-rule="evenodd" d="M250 401.062C249.87 400.182 250.2 399.522 251 399.062C256.8 395.832 262.8 393.162 269 391.062C282.54 392.042 296.04 393.372 309.5 395.062C315.27 390.952 320.11 385.782 324 379.562C327.57 378.762 330.74 379.592 333.5 382.062C333.41 392.502 329.25 401.002 321 407.562C317.7 408.102 314.54 407.602 311.5 406.062C308.73 407.572 306.23 407.242 304 405.062C302.89 405.582 301.73 405.922 300.5 406.062C296.74 404.702 292.91 403.532 289 402.562C275.99 402.162 262.99 401.662 250 401.062Z" fill="#252525"/>
</svg>
