<svg width="500" height="500" viewBox="0 0 500 500" fill="none" xmlns="http://www.w3.org/2000/svg">
<path fill-rule="evenodd" clip-rule="evenodd" d="M283.434 117.562C276.924 120.152 270.594 123.312 264.434 127.062C243.614 142.972 222.614 158.642 201.434 174.062C178.784 187.952 154.784 198.952 129.434 207.062C118.974 208.772 108.644 208.942 98.4336 207.562C101.044 198.562 104.544 189.892 108.934 181.562C113.934 175.232 118.934 168.892 123.934 162.562C133.484 153.382 143.314 144.542 153.434 136.062C164.764 130.062 176.104 124.062 187.434 118.062C205.694 113.342 224.194 110.172 242.934 108.562C256.994 108.972 270.494 111.972 283.434 117.562Z" fill="#B28657"/>
<path fill-rule="evenodd" clip-rule="evenodd" d="M283.434 117.562C289.434 119.332 295.434 121.162 301.434 123.062C307.074 128.212 313.074 132.882 319.434 137.062C323.684 140.802 327.344 144.972 330.434 149.562C322.004 154.142 313.674 158.972 305.434 164.062C301.714 166.422 297.714 167.922 293.434 168.562C273.794 166.122 254.124 165.622 234.434 167.062C222.124 171.052 210.454 176.392 199.434 183.062C185.454 193.532 175.794 207.032 170.434 223.562C145.294 232.862 119.294 237.862 92.4336 238.562C92.6636 227.762 94.6636 217.432 98.4336 207.562C108.644 208.942 118.974 208.772 129.434 207.062C154.784 198.952 178.784 187.952 201.434 174.062C222.614 158.642 243.614 142.972 264.434 127.062C270.594 123.312 276.924 120.152 283.434 117.562Z" fill="#D4A267"/>
<path fill-rule="evenodd" clip-rule="evenodd" d="M330.434 149.562C333.114 152.252 335.454 155.252 337.434 158.562C328.224 164.332 319.224 170.332 310.434 176.562C305.074 173.112 299.404 170.452 293.434 168.562C297.714 167.922 301.714 166.422 305.434 164.062C313.674 158.972 322.004 154.142 330.434 149.562Z" fill="#FDE5A5"/>
<path fill-rule="evenodd" clip-rule="evenodd" d="M337.434 158.562C339.584 160.822 341.754 163.152 343.934 165.562C348.014 171.462 351.854 177.462 355.434 183.562C355.424 185.082 354.754 186.242 353.434 187.062C347.924 191.082 342.584 195.252 337.434 199.562C329.814 190.252 320.814 182.592 310.434 176.562C319.224 170.332 328.224 164.332 337.434 158.562Z" fill="#D4A267"/>
<path fill-rule="evenodd" clip-rule="evenodd" d="M293.433 168.561C299.403 170.451 305.073 173.111 310.433 176.561C320.813 182.591 329.813 190.251 337.433 199.561C339.433 202.891 341.433 206.231 343.433 209.561C338.903 207.221 334.233 205.051 329.433 203.061C316.223 200.191 302.893 198.861 289.433 199.061C274.383 210.221 270.223 224.721 276.933 242.561C278.633 248.931 282.473 253.431 288.433 256.061C295.363 257.571 302.363 257.901 309.433 257.061C313.983 256.121 317.983 254.121 321.433 251.061C323.553 249.331 325.053 247.161 325.933 244.561C327.603 239.561 329.263 234.561 330.933 229.561C331.583 224.861 331.413 220.191 330.433 215.561C335.533 217.721 340.873 219.051 346.433 219.561C348.693 231.701 347.193 243.371 341.933 254.561C334.703 268.281 324.873 279.621 312.433 288.561C302.963 292.161 293.293 295.161 283.433 297.561C259.203 303.381 235.873 301.051 213.433 290.561C206.793 287.241 200.463 283.411 194.433 279.061C188.963 273.591 183.463 268.091 177.933 262.561C174.613 257.591 172.113 252.261 170.433 246.561C170.433 245.891 170.433 245.231 170.433 244.561C173.483 245.951 176.483 245.781 179.433 244.061C181.893 240.601 184.733 237.431 187.933 234.561C188.263 238.561 188.603 242.561 188.933 246.561C197.043 269.871 211.873 275.701 233.433 264.061C241.003 256.921 245.673 248.251 247.433 238.061C246.393 231.671 243.553 226.171 238.933 221.561C237.723 215.191 233.893 211.351 227.433 210.061C203.883 206.921 185.383 215.091 171.933 234.561C170.683 237.071 170.183 239.741 170.433 242.561C169.163 236.361 169.163 230.021 170.433 223.561C175.793 207.031 185.453 193.531 199.433 183.061C210.453 176.391 222.123 171.051 234.433 167.061C254.123 165.621 273.793 166.121 293.433 168.561Z" fill="#FAF9F9"/>
<path fill-rule="evenodd" clip-rule="evenodd" d="M355.434 183.562C359.174 187.362 362.174 191.702 364.434 196.562C366.304 201.662 368.474 206.662 370.934 211.562C371.604 212.312 372.434 212.652 373.434 212.562C376.044 219.652 377.374 226.982 377.434 234.562C376.834 243.572 376.164 252.572 375.434 261.562C355.544 273.002 334.544 282.002 312.434 288.562C324.874 279.622 334.704 268.282 341.934 254.562C347.194 243.372 348.694 231.702 346.434 219.562C350.424 219.412 351.924 217.412 350.934 213.562C348.424 212.062 345.924 210.722 343.434 209.562C341.434 206.232 339.434 202.892 337.434 199.562C342.584 195.252 347.924 191.082 353.434 187.062C354.754 186.242 355.424 185.082 355.434 183.562Z" fill="#ECB67B"/>
<path fill-rule="evenodd" clip-rule="evenodd" d="M343.434 209.562C345.924 210.722 348.424 212.062 350.934 213.562C351.924 217.412 350.424 219.412 346.434 219.562C340.874 219.052 335.534 217.722 330.434 215.562C331.414 220.192 331.584 224.862 330.934 229.562C329.264 234.562 327.604 239.562 325.934 244.562C325.054 247.162 323.554 249.332 321.434 251.062C317.984 254.122 313.984 256.122 309.434 257.062C302.364 257.902 295.364 257.572 288.434 256.062C282.474 253.432 278.634 248.932 276.934 242.562C270.224 224.722 274.384 210.222 289.434 199.062C302.894 198.862 316.224 200.192 329.434 203.062C334.234 205.052 338.904 207.222 343.434 209.562Z" fill="#040404"/>
<path fill-rule="evenodd" clip-rule="evenodd" d="M364.434 196.561C381.204 196.051 397.544 198.551 413.434 204.061C419.264 207.121 425.264 209.781 431.434 212.061C437.434 216.381 441.434 222.051 443.434 229.061C442.844 235.501 440.674 241.341 436.934 246.561C429.464 255.371 421.294 263.531 412.434 271.061C398.624 279.041 384.624 286.541 370.434 293.561C341.794 303.391 313.134 313.221 284.434 323.061C278.524 324.771 272.524 325.931 266.434 326.561C257.764 327.951 249.094 329.451 240.434 331.061C222.854 336.201 205.184 340.871 187.434 345.061C169.444 346.061 151.444 346.561 133.434 346.561C114.944 346.951 96.6141 345.451 78.4341 342.061C59.7141 336.791 53.5541 324.961 59.9341 306.561C64.1841 292.641 72.0241 281.141 83.4341 272.061C85.3941 271.111 87.0541 269.771 88.4341 268.061C89.7241 267.571 91.0641 267.401 92.4341 267.561C92.4341 267.891 92.4341 268.231 92.4341 268.561C91.7441 274.951 92.7441 281.281 95.4341 287.561C95.0741 288.241 94.7341 288.911 94.4341 289.561C89.1341 294.361 83.9741 299.361 78.9341 304.561C77.6641 309.041 75.9941 313.371 73.9341 317.561C73.2641 319.231 73.2641 320.891 73.9341 322.561C76.7041 324.821 79.8741 326.321 83.4341 327.061C93.4241 327.561 103.424 327.731 113.434 327.561C116.774 329.321 120.444 330.321 124.434 330.561C164.064 325.471 203.404 318.631 242.434 310.061C256.364 306.361 270.034 302.191 283.434 297.561C293.294 295.161 302.964 292.161 312.434 288.561C334.544 282.001 355.544 273.001 375.434 261.561C390.754 254.731 404.924 246.071 417.934 235.561C419.864 226.491 416.364 220.661 407.434 218.061C402.424 216.391 397.424 214.721 392.434 213.061C386.114 212.561 379.774 212.391 373.434 212.561C372.434 212.651 371.604 212.311 370.934 211.561C368.474 206.661 366.304 201.661 364.434 196.561Z" fill="#76563F"/>
<path fill-rule="evenodd" clip-rule="evenodd" d="M290.433 206.561C294.363 206.111 297.523 207.441 299.933 210.561C300.263 215.911 299.933 221.251 298.933 226.561C295.253 229.421 291.083 230.251 286.433 229.061C285.253 226.371 283.413 224.211 280.933 222.561C280.183 219.761 280.513 217.091 281.933 214.561C285.293 212.361 288.123 209.701 290.433 206.561Z" fill="#F5F5F5"/>
<path fill-rule="evenodd" clip-rule="evenodd" d="M170.434 244.562C170.434 243.892 170.434 243.232 170.434 242.562C170.184 239.742 170.684 237.072 171.934 234.562C185.384 215.092 203.884 206.922 227.434 210.062C233.894 211.352 237.724 215.192 238.934 221.562C243.554 226.172 246.394 231.672 247.434 238.062C245.674 248.252 241.004 256.922 233.434 264.062C211.874 275.702 197.044 269.872 188.934 246.562C188.604 242.562 188.264 238.562 187.934 234.562C184.734 237.432 181.894 240.602 179.434 244.062C176.484 245.782 173.484 245.952 170.434 244.562Z" fill="#050505"/>
<path fill-rule="evenodd" clip-rule="evenodd" d="M223.434 217.562C230.284 218.242 233.944 222.082 234.434 229.062C233.634 235.922 229.974 240.422 223.434 242.562C217.854 240.982 214.854 237.312 214.434 231.562C214.944 225.192 217.944 220.522 223.434 217.562Z" fill="#F3F3F3"/>
<path fill-rule="evenodd" clip-rule="evenodd" d="M170.434 223.562C169.164 230.022 169.164 236.362 170.434 242.562C170.434 243.232 170.434 243.892 170.434 244.562C170.434 245.232 170.434 245.892 170.434 246.562C153.314 255.322 135.654 262.822 117.434 269.062C111.324 269.792 105.324 269.292 99.4336 267.562C97.1836 268.432 94.8536 268.772 92.4336 268.562C92.4336 268.232 92.4336 267.892 92.4336 267.562C92.4336 257.892 92.4336 248.232 92.4336 238.562C119.294 237.862 145.294 232.862 170.434 223.562Z" fill="#FDE5A5"/>
<path fill-rule="evenodd" clip-rule="evenodd" d="M170.434 246.562C172.114 252.262 174.614 257.592 177.934 262.562C183.464 268.092 188.964 273.592 194.434 279.062C200.464 283.412 206.794 287.242 213.434 290.562C205.734 293.402 197.734 295.562 189.434 297.062C168.764 297.512 148.094 298.182 127.434 299.062C118.524 302.012 109.524 304.512 100.434 306.562C98.4339 300.892 96.4339 295.232 94.4339 289.562C94.7339 288.912 95.0739 288.242 95.4339 287.562C92.7439 281.282 91.7439 274.952 92.4339 268.562C94.8539 268.772 97.1839 268.432 99.4339 267.562C105.324 269.292 111.324 269.792 117.434 269.062C135.654 262.822 153.314 255.322 170.434 246.562Z" fill="#D4A267"/>
<path fill-rule="evenodd" clip-rule="evenodd" d="M281.434 263.562C284.414 263.702 286.414 265.202 287.434 268.062C285.534 273.202 282.864 277.872 279.434 282.062C276.234 283.542 272.894 283.882 269.434 283.062C264.934 281.012 260.434 279.182 255.934 277.562C255.114 275.362 255.614 273.532 257.434 272.062C263.144 272.412 268.804 273.082 274.434 274.062C276.654 270.452 278.984 266.952 281.434 263.562Z" fill="#0D0D0D"/>
<path fill-rule="evenodd" clip-rule="evenodd" d="M213.434 290.562C235.874 301.052 259.204 303.382 283.434 297.562C270.034 302.192 256.364 306.362 242.434 310.062C203.404 318.632 164.064 325.472 124.434 330.562C120.444 330.322 116.774 329.322 113.434 327.562C107.854 321.322 103.524 314.322 100.434 306.562C109.524 304.512 118.524 302.012 127.434 299.062C148.094 298.182 168.764 297.512 189.434 297.062C197.734 295.562 205.734 293.402 213.434 290.562Z" fill="#ECB67A"/>
<path fill-rule="evenodd" clip-rule="evenodd" d="M370.434 293.562C366.204 305.042 360.204 315.382 352.434 324.562C324.574 337.662 296.574 350.492 268.434 363.062C255.944 369.142 243.614 375.472 231.434 382.062C228.594 383.452 226.264 385.282 224.434 387.562C210.264 384.792 196.264 381.792 182.434 378.562C185.844 377.692 189.174 376.532 192.434 375.062C215.114 355.882 239.784 339.722 266.434 326.562C272.524 325.932 278.524 324.772 284.434 323.062C313.134 313.222 341.794 303.392 370.434 293.562Z" fill="#FDE5A5"/>
<path fill-rule="evenodd" clip-rule="evenodd" d="M352.434 324.562C344.134 337.372 334.134 348.872 322.434 359.062C309.024 367.462 295.364 375.462 281.434 383.062C271.254 385.652 261.084 388.152 250.934 390.562C242.144 389.162 233.314 388.162 224.434 387.562C226.264 385.282 228.594 383.452 231.434 382.062C243.614 375.472 255.944 369.142 268.434 363.062C296.574 350.492 324.574 337.662 352.434 324.562Z" fill="#B28657"/>
<path fill-rule="evenodd" clip-rule="evenodd" d="M266.434 326.562C239.784 339.722 215.114 355.882 192.434 375.062C189.174 376.532 185.844 377.692 182.434 378.562C175.534 378.122 169.204 375.952 163.434 372.062C152.944 364.072 142.944 355.572 133.434 346.562C151.444 346.562 169.444 346.062 187.434 345.062C205.184 340.872 222.854 336.202 240.434 331.062C249.094 329.452 257.764 327.952 266.434 326.562Z" fill="#ECB67A"/>
</svg>
