<svg width="500" height="500" viewBox="0 0 500 500" fill="none" xmlns="http://www.w3.org/2000/svg">
<path fill-rule="evenodd" clip-rule="evenodd" d="M324 117.062C335.72 117.302 347.38 118.142 359 119.562C368.69 124.592 378.35 129.592 388 134.562C406.47 147.392 419.31 164.552 426.5 186.062C435.77 215.452 438.44 245.452 434.5 276.062C431.65 290.742 426.32 304.412 418.5 317.062C404.19 335.052 386.69 348.882 366 358.562C346.92 361.692 327.76 363.852 308.5 365.062C302.67 364.892 296.83 364.732 291 364.562C274.84 358.632 258.68 352.472 242.5 346.062C228.49 357.062 213.66 366.892 198 375.562C189.1 379.412 179.76 381.412 170 381.562C157.81 382.742 145.81 381.742 134 378.562C125.06 375.592 116.06 372.922 107 370.562C98.07 366.642 90.57 360.802 84.5 353.062C76.16 344.052 70.16 333.722 66.5 322.062C65.56 309.042 64.89 296.042 64.5 283.062C73.53 267.032 85.69 253.872 101 243.562C123.15 233.402 146.15 225.402 170 219.562C176.37 219.272 182.7 218.772 189 218.062C189.47 211.932 190.64 205.932 192.5 200.062C203.82 173.942 220.99 152.442 244 135.562C256.03 131.712 267.7 127.042 279 121.562C294.09 119.432 309.09 117.932 324 117.062Z" fill="#AB7923"/>
<path fill-rule="evenodd" clip-rule="evenodd" d="M258 153.061C264.43 151.911 269.93 153.571 274.5 158.061C276.22 164.371 274.72 169.871 270 174.561C265.46 174.631 261.3 175.801 257.5 178.061C250.3 175.141 247.96 169.811 250.5 162.061C252.83 158.891 255.33 155.891 258 153.061Z" fill="#7A5545"/>
<path fill-rule="evenodd" clip-rule="evenodd" d="M221 166.061C224.4 165.741 227.73 166.071 231 167.061C240.69 174.061 241.35 181.901 233 190.561C221.84 198.471 215.51 195.801 214 182.561C213.52 175.811 215.86 170.311 221 166.061Z" fill="#7A5545"/>
<path fill-rule="evenodd" clip-rule="evenodd" d="M252 190.061C263.92 188.801 268.42 193.801 265.5 205.061C263.79 207.521 262.46 210.181 261.5 213.061C257.77 216.131 253.6 216.801 249 215.061C246.64 212.541 244.48 209.871 242.5 207.061C241.03 198.661 244.2 192.991 252 190.061Z" fill="#7A5545"/>
<path fill-rule="evenodd" clip-rule="evenodd" d="M397 247.061C383.3 241.361 368.96 239.191 354 240.561C350.46 243.401 347.29 246.571 344.5 250.061C340.66 261.671 341.33 273.001 346.5 284.061C350.89 289.421 356.56 292.091 363.5 292.061C374.57 293.321 382.57 288.981 387.5 279.061C388.83 274.391 390.17 269.731 391.5 265.061C391.59 261.311 391.76 257.641 392 254.061C393.74 255.601 395.74 256.601 398 257.061C403.43 260.641 405.43 265.811 404 272.561C405.04 293.831 396.04 309.161 377 318.561C349.46 330.341 321.13 332.341 292 324.561C268.88 318.951 255.88 304.451 253 281.061C254.37 281.221 255.71 281.051 257 280.561C259.88 277.851 262.54 275.021 265 272.061C265.49 280.051 267.99 287.381 272.5 294.061C282.25 303.561 293.08 304.721 305 297.561C310.77 292.521 314.94 286.351 317.5 279.061C318.84 271.401 316.51 265.071 310.5 260.061C308.65 253.361 304.15 249.861 297 249.561C280.75 248.021 267.09 253.191 256 265.061C255.89 254.411 259.89 245.251 268 237.561C275.66 231.731 283.66 226.401 292 221.561C318.33 214.231 344.66 214.231 371 221.561C381.96 227.861 390.96 236.191 398 246.561C397.77 246.961 397.44 247.131 397 247.061Z" fill="#F9F8F7"/>
<path fill-rule="evenodd" clip-rule="evenodd" d="M397 247.061C399.94 249.221 403.27 250.721 407 251.561C410 254.721 409.5 256.891 405.5 258.061C403.04 257.401 400.54 257.071 398 257.061C395.74 256.601 393.74 255.601 392 254.061C391.76 257.641 391.59 261.311 391.5 265.061C390.17 269.731 388.83 274.391 387.5 279.061C382.57 288.981 374.57 293.321 363.5 292.061C356.56 292.091 350.89 289.421 346.5 284.061C341.33 273.001 340.66 261.671 344.5 250.061C347.29 246.571 350.46 243.401 354 240.561C368.96 239.191 383.3 241.361 397 247.061Z" fill="#050505"/>
<path fill-rule="evenodd" clip-rule="evenodd" d="M189.001 230.062C190.001 230.062 191.001 230.062 192.001 230.062C190.551 253.952 194.221 276.952 203.001 299.062C191.931 298.972 180.931 299.812 170.001 301.562C154.671 302.232 139.331 302.232 124.001 301.562C112.881 300.112 102.211 297.112 92.0005 292.562C89.1705 289.732 86.3305 286.892 83.5005 284.062C82.8305 282.392 82.8305 280.732 83.5005 279.062C95.4105 268.172 108.241 258.342 122.001 249.562C127.761 246.342 133.761 243.682 140.001 241.562C156.241 236.752 172.571 232.922 189.001 230.062Z" fill="#F9F9F7"/>
<path fill-rule="evenodd" clip-rule="evenodd" d="M355 247.061C359.09 246.261 362.26 247.601 364.5 251.061C364.74 255.411 364.4 259.741 363.5 264.061C360.59 266.951 357.09 267.791 353 266.561C351.17 264.731 349.33 262.891 347.5 261.061C346.75 258.261 347.08 255.591 348.5 253.061C351.16 251.561 353.33 249.561 355 247.061Z" fill="#F0F0F0"/>
<path fill-rule="evenodd" clip-rule="evenodd" d="M253 281.061C252 281.151 251.17 280.811 250.5 280.061C249.83 277.731 249.83 275.391 250.5 273.061C252.1 270.191 253.93 267.521 256 265.061C267.09 253.191 280.75 248.021 297 249.561C304.15 249.861 308.65 253.361 310.5 260.061C316.51 265.071 318.84 271.401 317.5 279.061C314.94 286.351 310.77 292.521 305 297.561C293.08 304.721 282.25 303.561 272.5 294.061C267.99 287.381 265.49 280.051 265 272.061C262.54 275.021 259.88 277.851 257 280.561C255.71 281.051 254.37 281.221 253 281.061Z" fill="#070707"/>
<path fill-rule="evenodd" clip-rule="evenodd" d="M295 257.062C304.15 256.722 307.65 261.052 305.5 270.062C303.67 275.922 299.84 278.422 294 277.562C287.22 270.392 287.56 263.552 295 257.062Z" fill="#F5F5F5"/>
<path fill-rule="evenodd" clip-rule="evenodd" d="M347 297.061C350.36 296.431 352.36 297.771 353 301.061C351.22 305.781 348.55 309.951 345 313.561C337.81 314.871 331.31 313.371 325.5 309.061C324.79 307.191 325.29 305.691 327 304.561C332 304.891 337 305.231 342 305.561C343.57 302.671 345.24 299.831 347 297.061Z" fill="#121212"/>
<path fill-rule="evenodd" clip-rule="evenodd" d="M188 336.061C180.02 330.131 171.02 326.471 161 325.061C152.42 326.851 148.09 332.181 148 341.061C147.89 350.951 152.89 355.951 163 356.061C166.45 355.421 169.62 354.091 172.5 352.061C175.64 347.121 177.64 341.791 178.5 336.061C181.14 338.591 184.31 339.591 188 339.061C188.97 347.331 186.31 354.501 180 360.561C157.66 373.161 135.33 373.161 113 360.561C105.09 355.201 99.75 348.031 97 339.061C99.24 338.171 101.24 336.841 103 335.061C103.68 339.861 104.85 344.531 106.5 349.061C116.51 357.821 125.17 356.491 132.5 345.061C133.31 343.141 133.81 341.141 134 339.061C131.07 325.581 122.74 320.751 109 324.561C104.82 326.481 100.82 328.651 97 331.061C99.16 325.411 103.16 321.571 109 319.561C113.58 319.001 117.92 317.661 122 315.561C140.62 315.491 158.95 318.161 177 323.561C181.96 326.681 185.62 330.841 188 336.061Z" fill="#F6F5F3"/>
<path fill-rule="evenodd" clip-rule="evenodd" d="M97 339.062C95.85 338.772 95.18 337.942 95 336.562C95.26 334.552 95.92 332.722 97 331.062C100.82 328.652 104.82 326.482 109 324.562C122.74 320.752 131.07 325.582 134 339.062C133.81 341.142 133.31 343.142 132.5 345.062C125.17 356.492 116.51 357.822 106.5 349.062C104.85 344.532 103.68 339.862 103 335.062C101.24 336.842 99.24 338.172 97 339.062Z" fill="#090909"/>
<path fill-rule="evenodd" clip-rule="evenodd" d="M188 336.062C188 337.062 188 338.062 188 339.062C184.31 339.592 181.14 338.592 178.5 336.062C177.64 341.792 175.64 347.122 172.5 352.062C169.62 354.092 166.45 355.422 163 356.062C152.89 355.952 147.89 350.952 148 341.062C148.09 332.182 152.42 326.852 161 325.062C171.02 326.472 180.02 330.132 188 336.062Z" fill="#0A0A0A"/>
<path fill-rule="evenodd" clip-rule="evenodd" d="M157 329.062C159.22 328.742 161.06 329.402 162.5 331.062C162.88 334.032 162.38 336.872 161 339.562C155.21 341.082 152.37 338.922 152.5 333.062C153.9 331.492 155.4 330.162 157 329.062Z" fill="#F0F0F0"/>
<path fill-rule="evenodd" clip-rule="evenodd" d="M121 329.062C128.19 329.412 129.86 332.752 126 339.062C121.66 342.312 118.99 341.312 118 336.062C118.19 333.342 119.19 331.012 121 329.062Z" fill="#EFEFEF"/>
<path fill-rule="evenodd" clip-rule="evenodd" d="M148 357.061C149.85 356.781 151.18 357.451 152 359.061C147.44 367.711 141.77 368.371 135 361.061C135.5 359.681 136.5 359.011 138 359.061C140.27 359.531 142.27 360.531 144 362.061C146.05 360.951 147.39 359.281 148 357.061Z" fill="#141414"/>
</svg>
