<svg width="500" height="500" viewBox="0 0 500 500" fill="none" xmlns="http://www.w3.org/2000/svg">
<path fill-rule="evenodd" clip-rule="evenodd" d="M372 357.061C372.08 361.461 371.58 365.791 370.5 370.061C368.46 372.801 366.96 375.801 366 379.061C363.82 380.851 361.32 382.191 358.5 383.061C355.42 382.811 353.92 381.141 354 378.061C356.52 373.021 357.85 367.691 358 362.061C355.68 362.731 353.35 362.891 351 362.561C349.68 361.741 349.01 360.581 349 359.061C350.7 354.541 354.03 352.871 359 354.061C360.6 346.951 360.27 339.952 358 333.062C355.46 336.982 352.79 340.812 350 344.562C333.65 352.782 316.32 356.611 298 356.061C297.05 370.151 295.55 384.151 293.5 398.061C288.12 397.431 282.78 398.091 277.5 400.061C274.57 399.791 271.74 399.121 269 398.061C266.03 392.971 267.37 389.301 273 387.061C276.67 387.061 280.33 387.061 284 387.061C284 383.731 284 380.391 284 377.061C284 369.731 284 362.391 284 355.061C266.69 354.121 249.36 353.781 232 354.061C232.44 361.381 232.77 368.721 233 376.061C236.34 387.921 232.01 394.091 220 394.561C216.33 395.231 212.67 395.231 209 394.561C205.32 393.241 203.82 390.741 204.5 387.061C208.83 381.111 214.66 378.781 222 380.061C220.72 371.091 219.72 362.091 219 353.061C204.01 351.341 189.01 349.511 174 347.561C167.95 347.121 163.45 344.292 160.5 339.062C159.13 333.292 156.8 327.962 153.5 323.062C149.41 310.622 145.91 297.952 143 285.062C134.65 286.192 126.32 286.192 118 285.062C122.07 301.302 116.4 305.802 101 298.562C100.02 290.812 99.6799 282.982 99.9999 275.062C89.3299 275.642 78.6699 275.812 67.9999 275.562C64.1999 271.472 63.0299 266.642 64.4999 261.062C64.9999 260.562 65.4999 260.062 65.9999 259.562C69.4999 259.062 72.9999 258.562 76.4999 258.062C89.3399 258.772 102.17 259.602 115 260.562C115.83 261.392 116.67 262.232 117.5 263.062C117.92 266.752 118.42 270.422 119 274.062C126.01 275.132 133.01 275.132 140 274.062C139.17 271.402 138.33 268.732 137.5 266.062C136.95 254.562 136.45 243.062 136 231.562C136.74 221.352 137.9 211.182 139.5 201.062C142.01 185.712 146.67 171.042 153.5 157.062C167.25 137.312 183.75 120.142 203 105.562C210.97 100.742 219.3 96.7415 228 93.5615C250.09 88.8115 272.09 89.1415 294 94.5615C319 102.732 341.67 115.062 362 131.562C376.39 149.852 383.89 170.682 384.5 194.062C383.78 198.962 382.44 203.622 380.5 208.062C379.59 211.142 377.76 213.472 375 215.062C371.12 247.552 367.46 280.052 364 312.562C368.67 326.402 370.17 340.561 368.5 355.061C369.61 355.871 370.78 356.531 372 357.061Z" fill="#050505"/>
<path fill-rule="evenodd" clip-rule="evenodd" d="M261 99.0616C264.02 98.9016 267.02 99.0616 270 99.5616C263.33 107.882 259.16 117.382 257.5 128.062C254.73 146.972 252.9 165.972 252 185.062C242.01 184.512 232.01 184.012 222 183.562C220.87 178.812 220.7 173.982 221.5 169.062C225.07 147.682 231.07 127.022 239.5 107.062C241.87 106.192 243.37 104.522 244 102.062C249.84 101.252 255.51 100.252 261 99.0616Z" fill="#3F3F3F"/>
<path fill-rule="evenodd" clip-rule="evenodd" d="M275 99.0615C283.95 100.992 292.62 103.822 301 107.562C300.17 108.392 299.33 109.232 298.5 110.062C298.33 116.892 298.17 123.732 298 130.562C299.05 151.052 299.72 171.552 300 192.062C286.54 188.612 272.88 186.282 259 185.062C258.87 165.332 260.37 145.662 263.5 126.062C265.17 121.062 266.83 116.062 268.5 111.062C269.44 108.162 271.11 105.832 273.5 104.062C274.51 102.542 275.01 100.872 275 99.0615Z" fill="#3F3F3F"/>
<path fill-rule="evenodd" clip-rule="evenodd" d="M227 102.062C230.02 101.902 233.02 102.062 236 102.562C223.81 128.332 217.14 155.502 216 184.062C192.48 184.162 173.31 193.162 158.5 211.062C155.85 216.362 153.18 221.702 150.5 227.062C149.46 234.722 149.96 242.222 152 249.562C151.02 251.062 150.02 252.562 149 254.062C155.8 279.922 161.96 305.922 167.5 332.062C165.77 328.272 163.77 324.602 161.5 321.062C155.9 303.262 150.9 285.262 146.5 267.062C145.33 250.742 145 234.412 145.5 218.062C148.12 204.782 150.79 191.452 153.5 178.062C153.75 188.132 152.92 198.132 151 208.062C150.8 213.152 152.63 214.152 156.5 211.062C158.91 194.082 160.58 177.082 161.5 160.062C171.71 145.842 183.38 132.842 196.5 121.062C190.36 134.022 184.7 147.352 179.5 161.062C178.83 168.732 178.83 176.392 179.5 184.062C180.9 185.752 182.73 186.422 185 186.062C184.5 178.722 184.33 171.392 184.5 164.062C190.21 147.312 197.54 131.312 206.5 116.062C208.23 113.942 210.4 112.442 213 111.562C216.51 106.522 221.18 103.362 227 102.062Z" fill="#3F3F3F"/>
<path fill-rule="evenodd" clip-rule="evenodd" d="M305 109.062C311.28 110.362 317.28 112.532 323 115.562C327.01 117.572 330.68 120.072 334 123.062C333.77 146.622 335.93 169.952 340.5 193.062C341.46 203.382 341.79 213.722 341.5 224.062C340.59 218.862 338.43 214.362 335 210.562C329.23 206.742 323.57 202.742 318 198.562C314.3 196.212 310.3 194.712 306 194.062C305.31 174.232 304.64 154.402 304 134.562C304.03 126.012 304.36 117.512 305 109.062Z" fill="#3F3F3F"/>
<path fill-rule="evenodd" clip-rule="evenodd" d="M340 128.062C356.52 136.092 367.02 149.092 371.5 167.062C374.03 173.862 375.86 180.862 377 188.062C376.56 194.012 375.06 199.682 372.5 205.062C370.76 195.682 368.76 186.352 366.5 177.062C363.6 171.592 360.93 165.922 358.5 160.062C356.21 156.982 354.04 153.812 352 150.562C349.02 150.062 346.02 149.902 343 150.062C344.76 155.562 347.59 160.562 351.5 165.062C356.59 176.432 360.59 188.102 363.5 200.062C365 213.692 365.34 227.362 364.5 241.062C361.77 259.682 359.44 278.342 357.5 297.062C354.97 291.142 352.64 285.142 350.5 279.062C349.81 278.202 348.98 277.542 348 277.062C346.97 265.742 346.14 254.412 345.5 243.062C342.39 238.312 341.22 232.982 342 227.062C343.67 227.062 345.33 227.062 347 227.062C347.59 203.522 345.43 180.192 340.5 157.062C340 147.402 339.83 137.732 340 128.062Z" fill="#3F3F3F"/>
<path fill-rule="evenodd" clip-rule="evenodd" d="M212 192.062C230.01 192.062 248.01 192.562 266 193.562C279.27 196.602 292.6 199.262 306 201.562C314.29 205.622 321.79 210.782 328.5 217.062C332.69 224.862 334.03 233.192 332.5 242.062C330.02 247.692 327.02 253.022 323.5 258.062C315.5 264.692 306.33 266.862 296 264.562C282.08 262.432 268.08 260.932 254 260.062C237.26 261.612 220.43 262.612 203.5 263.062C185.96 265.782 171.63 260.442 160.5 247.062C158.96 240.812 158.63 234.482 159.5 228.062C163.53 218.812 169.36 210.982 177 204.562C187.81 197.682 199.48 193.512 212 192.062Z" fill="#F7F7F7"/>
<path fill-rule="evenodd" clip-rule="evenodd" d="M201 206.062C209.69 205.702 218.03 207.202 226 210.562C226.83 211.392 227.67 212.232 228.5 213.062C229.55 218.122 231.55 222.782 234.5 227.062C235.37 231.522 235.03 235.852 233.5 240.062C226.27 253.762 215.11 258.922 200 255.562C190.08 249.022 185.58 239.852 186.5 228.062C187.74 226.682 187.91 225.352 187 224.062C184.09 227.142 180.76 229.642 177 231.562C175.39 232.282 173.89 232.112 172.5 231.062C171.83 228.732 171.83 226.392 172.5 224.062C174.63 220.932 177.13 218.102 180 215.562C186.7 211.502 193.7 208.342 201 206.062Z" fill="#050505"/>
<path fill-rule="evenodd" clip-rule="evenodd" d="M273 207.061C277.35 206.891 281.68 207.061 286 207.561C292.14 210.161 298.48 212.161 305 213.561C310.33 216.891 315.67 220.231 321 223.561C325.14 226.441 324.81 228.611 320 230.061C314.91 229.321 310.25 227.821 306 225.561C307.27 229.071 307.1 232.571 305.5 236.061C298.83 257.051 285.67 262.551 266 252.561C264.17 251.391 262.67 249.891 261.5 248.061C257.56 236.661 258.23 225.661 263.5 215.061C266.27 211.781 269.44 209.111 273 207.061Z" fill="#060606"/>
<path fill-rule="evenodd" clip-rule="evenodd" d="M272 214.062C274.36 213.902 276.69 214.062 279 214.562C280.17 215.062 281 215.892 281.5 217.062C281.83 221.092 281.5 225.092 280.5 229.062C274.32 233.802 269.32 232.802 265.5 226.062C264.83 224.062 264.83 222.062 265.5 220.062C267.56 217.832 269.73 215.832 272 214.062Z" fill="#F5F5F5"/>
<path fill-rule="evenodd" clip-rule="evenodd" d="M216 215.062C225.84 216.062 228.34 221.062 223.5 230.062C216.33 237.562 211.5 236.232 209 226.062C209.59 221.192 211.93 217.532 216 215.062Z" fill="#F5F5F5"/>
<path fill-rule="evenodd" clip-rule="evenodd" d="M339 252.062C339.79 253.172 340.29 254.502 340.5 256.062C341 260.712 341.17 265.382 341 270.062C337.68 270.052 336.01 271.722 336 275.062C336.74 279.862 338.57 284.202 341.5 288.062C342.88 308.222 338.72 327.052 329 344.562C320.83 345.862 312.66 347.032 304.5 348.062C291.12 346.962 277.78 345.962 264.5 345.062C261.32 321.662 259.15 298.162 258 274.562C258.45 270.512 256.78 268.842 253 269.562C253.58 295.082 255.58 320.582 259 346.062C251.33 346.232 243.66 346.062 236 345.562C232.84 339.452 230.68 332.952 229.5 326.062C226.18 308.202 224.02 290.202 223 272.062C221.33 272.062 219.67 272.062 218 272.062C218.84 289.492 220.68 306.822 223.5 324.062C224.71 330.912 226.55 337.582 229 344.062C228.17 344.392 227.33 344.732 226.5 345.062C217.26 344.562 208.09 343.562 199 342.062C190.48 321.282 185.98 299.612 185.5 277.062C183.56 275.702 181.9 276.032 180.5 278.062C180.88 299.682 184.72 320.682 192 341.062C186.96 340.972 181.96 340.472 177 339.562C176.05 337.602 174.71 335.942 173 334.562C173.56 333.842 173.89 333.002 174 332.062C167.9 306.482 161.56 280.982 155 255.562C155.67 254.892 156.33 254.892 157 255.562C157.95 257.522 159.29 259.182 161 260.562C178.76 270.472 197.76 273.802 218 270.562C230.71 270.192 243.37 269.352 256 268.062C271.58 270.272 287.25 271.932 303 273.062C310.41 272.682 317.41 270.852 324 267.562C327.74 264.602 331.58 261.772 335.5 259.062C336.69 256.672 337.86 254.342 339 252.062Z" fill="#3F3F3F"/>
<path fill-rule="evenodd" clip-rule="evenodd" d="M295 276.061C296.32 275.891 297.49 276.221 298.5 277.061C300 291.081 301.67 305.081 303.5 319.061C304.17 328.061 304.17 337.061 303.5 346.061C302.14 346.941 300.64 347.271 299 347.061C298.8 325.411 296.8 303.911 293 282.561C292.84 280.061 293.51 277.891 295 276.061Z" fill="#030303"/>
<path fill-rule="evenodd" clip-rule="evenodd" d="M347 301.062C349.62 306.392 351.78 312.052 353.5 318.062C354.17 320.062 354.17 322.062 353.5 324.062C352.01 328.372 350.01 332.372 347.5 336.062C344.72 338.102 341.72 339.772 338.5 341.062C340.8 332.822 343.13 324.492 345.5 316.062C346.55 311.112 347.05 306.112 347 301.062Z" fill="#3F3F3F"/>
<path fill-rule="evenodd" clip-rule="evenodd" d="M366 379.062C366.96 375.802 368.46 372.802 370.5 370.062C371.58 365.792 372.08 361.462 372 357.062C384.48 353.462 397.14 351.632 410 351.562C421.97 356.202 429.8 364.702 433.5 377.062C437.28 387.482 435.45 396.642 428 404.562C420.63 407.842 412.96 409.512 405 409.562C393.12 401.352 382.12 392.022 372 381.562C370.09 380.442 368.09 379.602 366 379.062Z" fill="#E1B537"/>
<path fill-rule="evenodd" clip-rule="evenodd" d="M349 359.061C349.01 360.581 349.68 361.741 351 362.561C353.35 362.891 355.68 362.731 358 362.061C357.85 367.691 356.52 373.021 354 378.061C352.06 381.751 349.73 385.251 347 388.561C345.24 389.361 343.57 389.191 342 388.061C341.78 383.461 341.61 378.801 341.5 374.061C331.36 368.101 330.53 361.271 339 353.561C341.98 353.181 343.98 354.511 345 357.561C346.4 357.971 347.73 358.471 349 359.061Z" fill="#E0B537"/>
<path fill-rule="evenodd" clip-rule="evenodd" d="M394 361.061C398 360.391 399.67 362.061 399 366.061C397.52 365.801 396.19 366.131 395 367.061C396.72 369.781 399.05 371.781 402 373.061C409.49 369.041 414.16 371.211 416 379.561C415.59 382.461 414.59 385.131 413 387.561C414.02 390.771 415.69 393.611 418 396.061C417.33 397.391 416.33 398.391 415 399.061C413.1 396.941 411.43 394.611 410 392.061C407.6 394.761 404.6 396.091 401 396.061C400.84 394.691 401.01 393.351 401.5 392.061C404.38 391.351 406.55 389.681 408 387.061C406.23 384.501 404.23 382.171 402 380.061C398.79 385.501 394.95 386.171 390.5 382.061C389.29 377.511 388.62 372.841 388.5 368.061C385.94 367.341 384.78 365.671 385 363.061C387.44 362.881 389.6 363.541 391.5 365.061C392.16 363.581 393 362.241 394 361.061Z" fill="#CA9622"/>
<path fill-rule="evenodd" clip-rule="evenodd" d="M284 377.062C284 380.392 284 383.732 284 387.062C280.33 387.062 276.67 387.062 273 387.062C276.12 386.082 279.46 385.752 283 386.062C282.69 382.852 283.02 379.852 284 377.062Z" fill="#767676"/>
</svg>
