<svg width="500" height="500" viewBox="0 0 500 500" fill="none" xmlns="http://www.w3.org/2000/svg">
<path fill-rule="evenodd" clip-rule="evenodd" d="M321 81.0613C322.49 91.6753 322.99 102.342 322.5 113.061C318.83 117.061 315.17 117.061 311.5 113.061C310.35 104.746 309.35 96.4123 308.5 88.0613C308.47 73.9673 307.8 59.9673 306.5 46.0613C296.86 43.2293 287.03 42.5623 277 44.0613C275.69 45.4733 274.86 47.1403 274.5 49.0613C273.41 65.3753 272.74 81.7083 272.5 98.0613C270 100.039 267.17 100.539 264 99.5613C261.96 98.3253 260.79 96.4923 260.5 94.0613C260 80.3983 259.83 66.7323 260 53.0613C245.65 51.5623 231.32 51.7283 217 53.5613C215.57 54.0263 214.4 54.8603 213.5 56.0613C209.22 73.8113 206.88 91.8113 206.5 110.061C199.78 115.155 195.78 113.488 194.5 105.061C189.44 94.6023 184.1 84.2693 178.5 74.0613C175.67 70.5613 172.83 67.0613 170 63.5613C158.64 61.6793 148.81 64.8453 140.5 73.0613C140.33 74.2283 140.17 75.3943 140 76.5613C142.13 83.9403 143.63 91.4403 144.5 99.0613C146.44 102.609 148.11 106.275 149.5 110.061C150.87 122.131 154.53 133.464 160.5 144.061C161.9 145.631 163.4 146.965 165 148.061C163.66 151.399 162.33 154.732 161 158.061C157.3 157.557 154.13 155.891 151.5 153.061C152.47 157.339 153.14 161.672 153.5 166.061C149.03 171.673 145.03 171.339 141.5 165.061C139.63 160.243 138.63 155.243 138.5 150.061C137.47 146.611 136.14 143.278 134.5 140.061C129.14 132.866 123.97 125.533 119 118.061C118.17 117.146 117.17 116.48 116 116.061C110.3 118.327 104.8 120.994 99.4996 124.061C101.22 136.285 104.22 148.285 108.5 160.061C118.3 177.995 127.3 196.328 135.5 215.061C136.17 216.728 136.17 218.394 135.5 220.061C133.56 221.815 131.73 223.482 130 225.061C122.75 214.23 115.75 203.23 109 192.061C101.51 180.423 94.0096 168.756 86.4996 157.061C76.7396 142.051 77.8996 128.218 89.9996 115.561C97.2696 110.325 105.27 108.825 114 111.061C115.92 103.964 120.26 98.7983 127 95.5613C121.05 85.6573 121.72 76.3243 129 67.5613C131.15 66.1503 133.48 65.3163 136 65.0613C135.99 57.9183 139.32 53.0853 146 50.5613C154.59 48.9853 163.26 48.6513 172 49.5613C182.49 52.7913 187.49 59.9583 187 71.0613C190 70.3943 193 69.7283 196 69.0613C195.15 55.6103 201.15 46.7773 214 42.5613C229.28 40.1543 243.78 42.3203 257.5 49.0613C257.73 34.1733 265.23 28.0063 280 30.5613C289.51 32.9963 299.18 34.6623 309 35.5613C316.81 38.6603 320.48 44.4933 320 53.0613C318.89 63.3823 318.39 73.7153 318.5 84.0613C318.88 82.6193 319.71 81.6193 321 81.0613Z" fill="#F0B31B"/>
<path fill-rule="evenodd" clip-rule="evenodd" d="M321 81.0613C326.28 75.9933 332.61 72.8263 340 71.5613C347.59 69.2183 355.26 68.7183 363 70.0613C360.59 72.9993 358.75 76.3323 357.5 80.0613C355.54 96.0093 354.54 112.009 354.5 128.061C356.95 133.424 360.62 134.424 365.5 131.061C367.08 123.849 367.91 116.516 368 109.061C374.97 108.165 381.97 108.165 389 109.061C387.97 126.768 386.47 144.435 384.5 162.061C382.46 172.33 380.79 182.663 379.5 193.061C376.89 198.614 374.56 204.28 372.5 210.061C371.78 212.822 371.94 215.488 373 218.061C364.54 224.01 356.21 230.177 348 236.561C333.1 242.971 317.77 247.971 302 251.561C269.29 252.133 236.62 251.133 204 248.561C190.06 245.441 176.39 241.441 163 236.561C153.7 234.803 144.36 233.136 135 231.561C132.97 229.673 131.31 227.507 130 225.061C131.73 223.482 133.56 221.815 135.5 220.061C136.17 218.394 136.17 216.728 135.5 215.061C127.3 196.328 118.3 177.995 108.5 160.061C104.22 148.285 101.22 136.285 99.5 124.061C104.8 120.994 110.3 118.327 116 116.061C117.17 116.48 118.17 117.146 119 118.061C123.97 125.533 129.14 132.866 134.5 140.061C136.14 143.278 137.47 146.611 138.5 150.061C138.63 155.243 139.63 160.243 141.5 165.061C145.03 171.339 149.03 171.673 153.5 166.061C153.14 161.672 152.47 157.339 151.5 153.061C154.13 155.891 157.3 157.557 161 158.061C160.13 160.673 159.46 163.34 159 166.061C156.27 169.829 153.77 173.829 151.5 178.061C150.83 180.728 150.83 183.394 151.5 186.061C152.61 187.598 154.11 188.264 156 188.061C159.29 203.486 167.62 215.319 181 223.561C198.44 232.699 216.94 238.199 236.5 240.061C259.86 239.169 283.02 236.669 306 232.561C320.71 229.625 332.88 222.458 342.5 211.061C348.28 202.513 353.28 193.513 357.5 184.061C358.97 176.784 359.3 169.45 358.5 162.061C358.11 159.457 357.28 157.123 356 155.061C356.35 151.749 355.02 149.416 352 148.061C348.62 141.838 343.95 136.671 338 132.561C292.92 101.069 245.58 97.0693 196 120.561C183.13 126.975 172.8 136.142 165 148.061C163.4 146.965 161.9 145.631 160.5 144.061C154.53 133.464 150.87 122.131 149.5 110.061C148.11 106.275 146.44 102.609 144.5 99.0613C143.63 91.4403 142.13 83.9403 140 76.5613C140.17 75.3943 140.33 74.2283 140.5 73.0613C148.81 64.8453 158.64 61.6793 170 63.5613C172.83 67.0613 175.67 70.5613 178.5 74.0613C184.1 84.2693 189.44 94.6023 194.5 105.061C195.78 113.488 199.78 115.155 206.5 110.061C206.88 91.8113 209.22 73.8113 213.5 56.0613C214.4 54.8603 215.57 54.0263 217 53.5613C231.32 51.7283 245.65 51.5623 260 53.0613C259.83 66.7323 260 80.3983 260.5 94.0613C260.79 96.4923 261.96 98.3253 264 99.5613C267.17 100.539 270 100.039 272.5 98.0613C272.74 81.7083 273.41 65.3753 274.5 49.0613C274.86 47.1403 275.69 45.4733 277 44.0613C287.03 42.5623 296.86 43.2293 306.5 46.0613C307.8 59.9673 308.47 73.9673 308.5 88.0613C309.35 96.4123 310.35 104.746 311.5 113.061C315.17 117.061 318.83 117.061 322.5 113.061C322.99 102.342 322.49 91.6753 321 81.0613Z" fill="#FEC00A"/>
<path fill-rule="evenodd" clip-rule="evenodd" d="M363 70.0615C366.34 71.9005 368.84 74.5675 370.5 78.0615C370.01 86.0595 369.17 94.0595 368 102.062C397.97 95.2075 407.47 106.208 396.5 135.062C396 144.056 395.83 153.056 396 162.062C392.67 177.847 389.84 193.847 387.5 210.062C382.34 212.066 377.51 214.732 373 218.062C371.94 215.489 371.78 212.823 372.5 210.062C374.56 204.281 376.89 198.615 379.5 193.062C380.79 182.664 382.46 172.331 384.5 162.062C386.47 144.436 387.97 126.769 389 109.062C381.97 108.166 374.97 108.166 368 109.062C367.91 116.517 367.08 123.85 365.5 131.062C360.62 134.425 356.95 133.425 354.5 128.062C354.54 112.01 355.54 96.0095 357.5 80.0615C358.75 76.3325 360.59 72.9995 363 70.0615Z" fill="#EEB11D"/>
<path fill-rule="evenodd" clip-rule="evenodd" d="M352 148.061C344.76 145.444 337.76 142.277 331 138.561C323.27 137.614 315.6 136.281 308 134.561C286.89 129.668 274.05 137.835 269.5 159.061C267.52 170.796 269.52 181.796 275.5 192.061C278.74 196.77 283.24 199.603 289 200.561C305.4 206.332 318.23 202.165 327.5 188.061C330.3 179.482 332.8 170.816 335 162.061C334.33 159.728 333.67 157.394 333 155.061C333.33 154.394 333.67 153.728 334 153.061C340.1 156.829 346.77 158.329 354 157.561C354.88 156.853 355.55 156.019 356 155.061C357.28 157.123 358.11 159.457 358.5 162.061C359.3 169.45 358.97 176.784 357.5 184.061C353.28 193.513 348.28 202.513 342.5 211.061C332.88 222.458 320.71 229.625 306 232.561C283.02 236.669 259.86 239.169 236.5 240.061C216.94 238.199 198.44 232.699 181 223.561C167.62 215.319 159.29 203.486 156 188.061C157.81 188.07 159.48 187.57 161 186.561C164.85 183.012 168.35 179.178 171.5 175.061C171.83 180.061 172.17 185.061 172.5 190.061C175.11 196.22 178.27 202.053 182 207.561C196.77 218.802 211.44 218.469 226 206.561C227.95 204.487 229.79 202.32 231.5 200.061C234.18 193.557 236.68 187.057 239 180.561C238.16 172.379 234.66 165.546 228.5 160.061C228.4 154.282 225.56 150.449 220 148.561C202.88 143.349 186.88 145.682 172 155.561C167.64 159.069 163.3 162.569 159 166.061C159.46 163.34 160.13 160.673 161 158.061C162.33 154.732 163.66 151.399 165 148.061C172.8 136.142 183.13 126.975 196 120.561C245.58 97.0694 292.92 101.069 338 132.561C343.95 136.671 348.62 141.838 352 148.061Z" fill="#FDFCFB"/>
<path fill-rule="evenodd" clip-rule="evenodd" d="M352 148.061C355.02 149.416 356.35 151.749 356 155.061C355.55 156.019 354.88 156.853 354 157.561C346.77 158.329 340.1 156.829 334 153.061C333.67 153.728 333.33 154.394 333 155.061C333.67 157.394 334.33 159.728 335 162.061C332.8 170.816 330.3 179.482 327.5 188.061C318.23 202.165 305.4 206.332 289 200.561C283.24 199.603 278.74 196.77 275.5 192.061C269.52 181.796 267.52 170.796 269.5 159.061C274.05 137.835 286.89 129.668 308 134.561C315.6 136.281 323.27 137.614 331 138.561C337.76 142.277 344.76 145.444 352 148.061Z" fill="#040404"/>
<path fill-rule="evenodd" clip-rule="evenodd" d="M288 143.061C292.45 142.703 295.95 144.369 298.5 148.061C298.76 153.741 298.43 159.407 297.5 165.061C296.33 166.228 295.17 167.394 294 168.561C290.33 169.228 286.67 169.228 283 168.561C280.83 165.728 278.67 162.894 276.5 160.061C275.76 156.778 276.42 153.778 278.5 151.061C281.86 148.53 285.02 145.863 288 143.061Z" fill="#F6F6F6"/>
<path fill-rule="evenodd" clip-rule="evenodd" d="M156.001 188.062C154.111 188.265 152.611 187.599 151.501 186.062C150.831 183.395 150.831 180.729 151.501 178.062C153.771 173.83 156.271 169.83 159.001 166.062C163.301 162.57 167.641 159.07 172.001 155.562C186.881 145.683 202.881 143.35 220.001 148.562C225.561 150.45 228.401 154.283 228.501 160.062C234.661 165.547 238.161 172.38 239.001 180.562C236.681 187.058 234.181 193.558 231.501 200.062C229.791 202.321 227.951 204.488 226.001 206.562C211.441 218.47 196.771 218.803 182.001 207.562C178.271 202.054 175.111 196.221 172.501 190.062C172.171 185.062 171.831 180.062 171.501 175.062C168.351 179.179 164.851 183.013 161.001 186.562C159.481 187.571 157.811 188.071 156.001 188.062Z" fill="#040404"/>
<path fill-rule="evenodd" clip-rule="evenodd" d="M211 156.062C218.85 156.249 223.19 160.249 224 168.062C223.79 176.626 219.62 181.959 211.5 184.062C205.13 182.354 201.63 178.187 201 171.562C201.46 164.454 204.8 159.287 211 156.062Z" fill="#F3F3F3"/>
<path fill-rule="evenodd" clip-rule="evenodd" d="M396 162.062C399.57 163.849 403.24 165.683 407 167.562C407.76 169.003 408.43 170.503 409 172.062C412.16 173.279 415.16 174.779 418 176.562C420.14 179.177 421.14 182.177 421 185.562C418.96 194.495 416.46 203.328 413.5 212.062C412.98 228.068 412.31 244.068 411.5 260.062C410.29 264.855 408.79 269.522 407 274.062C404.3 272.207 401.47 270.541 398.5 269.062C394.6 269.88 392.93 272.213 393.5 276.062C396.53 280.124 399.03 284.457 401 289.062C396.23 297.381 393.23 306.381 392 316.062C386.15 320.589 380.31 325.256 374.5 330.062C372.85 333.526 371.68 337.193 371 341.062C371.19 343.139 371.69 345.139 372.5 347.062C374.56 349.296 376.73 351.296 379 353.062C371.87 365.3 364.71 377.634 357.5 390.062C354.37 394.195 350.87 398.028 347 401.562C334.8 406.319 322.13 408.819 309 409.062C305.63 406.514 302.29 406.514 299 409.062C290.28 409.071 281.61 409.737 273 411.062C263.33 410.348 253.66 409.681 244 409.062C243.78 405.675 241.95 403.675 238.5 403.062C236.18 404.547 234.02 406.214 232 408.062C219.3 406.129 206.64 403.962 194 401.562C187.82 400.045 182.65 396.879 178.5 392.062C171.56 379.973 164.06 368.306 156 357.062C157.73 352.892 158.23 348.559 157.5 344.062C154.89 340.986 151.72 340.319 148 342.062C147.1 338.588 145.43 335.588 143 333.062C137.97 322.661 132.63 312.328 127 302.062C129.49 296.43 131.49 290.597 133 284.562C132.45 280.907 131.12 277.573 129 274.562C122.78 273.151 119.44 275.651 119 282.062C113.68 273.445 107.85 265.112 101.5 257.062C97.8299 249.729 94.1699 242.395 90.4999 235.062C87.4599 227.306 85.2899 219.306 83.9999 211.062C83.8899 209.188 84.5599 207.688 85.9999 206.562C93.5499 201.504 101.22 196.671 109 192.062C115.75 203.231 122.75 214.231 130 225.062C131.31 227.508 132.97 229.674 135 231.562C144.36 233.137 153.7 234.804 163 236.562C176.39 241.442 190.06 245.442 204 248.562C236.62 251.134 269.29 252.134 302 251.562C317.77 247.972 333.1 242.972 348 236.562C356.21 230.178 364.54 224.011 373 218.062C377.51 214.732 382.34 212.066 387.5 210.062C389.84 193.847 392.67 177.847 396 162.062Z" fill="#F34336"/>
<path fill-rule="evenodd" clip-rule="evenodd" d="M276.001 209.062C278.031 208.9 280.031 209.067 282.001 209.562C283.391 210.518 284.061 211.851 284.001 213.562C282.261 219.625 279.261 224.959 275.001 229.562C273.111 230.674 271.111 231.508 269.001 232.062C262.441 230.195 255.941 228.195 249.501 226.062C246.751 220.885 248.251 217.885 254.001 217.062C258.961 218.72 263.961 219.887 269.001 220.562C271.471 216.784 273.801 212.951 276.001 209.062Z" fill="#0D0D0D"/>
<path fill-rule="evenodd" clip-rule="evenodd" d="M407 274.062C411.15 280.314 414.65 286.981 417.5 294.062C418.17 296.729 418.17 299.395 417.5 302.062C411.77 315.124 403.1 325.791 391.5 334.062C391.02 335.01 390.85 336.01 391 337.062C393.7 337.028 396.2 337.695 398.5 339.062C401.02 348.931 397.36 354.264 387.5 355.062C384.43 355.081 381.59 354.415 379 353.062C376.73 351.296 374.56 349.296 372.5 347.062C371.69 345.139 371.19 343.139 371 341.062C371.68 337.193 372.85 333.526 374.5 330.062C380.31 325.256 386.15 320.589 392 316.062C404.36 310.209 407.36 301.209 401 289.062C399.03 284.457 396.53 280.124 393.5 276.062C392.93 272.213 394.6 269.88 398.5 269.062C401.47 270.541 404.3 272.207 407 274.062Z" fill="#070404"/>
<path fill-rule="evenodd" clip-rule="evenodd" d="M127 302.061C121.45 308.541 119.95 315.875 122.5 324.061C128.51 328.898 135.34 331.898 143 333.061C145.43 335.587 147.1 338.587 148 342.061C151.72 340.318 154.89 340.985 157.5 344.061C158.23 348.558 157.73 352.891 156 357.061C153.01 360.062 150.34 363.396 148 367.061C143.64 368.799 139.3 368.966 135 367.561C133.78 366.123 133.11 364.456 133 362.561C134.07 358.245 135.57 354.078 137.5 350.061C138.17 348.728 138.17 347.394 137.5 346.061C130.96 344.132 124.46 341.965 118 339.561C108.11 330.719 105.28 319.885 109.5 307.061C113.13 298.874 116.29 290.541 119 282.061C119.44 275.65 122.78 273.15 129 274.561C131.12 277.572 132.45 280.906 133 284.561C131.49 290.596 129.49 296.429 127 302.061Z" fill="#070606"/>
<path fill-rule="evenodd" clip-rule="evenodd" d="M215 284.062C218.77 285.331 222.43 286.831 226 288.562C228.79 290.772 229.62 293.606 228.5 297.062C226.93 301.203 224.6 304.87 221.5 308.062C218.87 321.111 221.04 333.278 228 344.562C237.9 345.707 245.73 342.207 251.5 334.062C254.1 329.856 256.44 325.523 258.5 321.062C263.32 317.247 267.98 317.58 272.5 322.062C274.5 330.237 278.67 337.07 285 342.562C300.24 349.817 310.07 345.317 314.5 329.062C317.1 316.606 316.27 304.439 312 292.562C313.25 285.661 317.25 283.328 324 285.562C331.38 293.359 335.05 302.692 335 313.562C337.11 337.67 326.45 352.67 303 358.562C287.58 360.701 275.24 355.534 266 343.062C249.64 368.92 231.14 370.587 210.5 348.062C195.44 325.511 196.94 304.177 215 284.062Z" fill="#FEE83A"/>
<path fill-rule="evenodd" clip-rule="evenodd" d="M401 289.062C407.36 301.209 404.36 310.209 392 316.062C393.23 306.381 396.23 297.381 401 289.062Z" fill="#F8F1F0"/>
<path fill-rule="evenodd" clip-rule="evenodd" d="M126.999 302.062C132.629 312.328 137.969 322.661 142.999 333.062C135.339 331.899 128.509 328.899 122.499 324.062C119.949 315.876 121.449 308.542 126.999 302.062Z" fill="#F9F7F6"/>
<path fill-rule="evenodd" clip-rule="evenodd" d="M244.001 409.062C243.751 420.251 244.081 431.418 245.001 442.562C245.241 444.91 244.411 446.744 242.501 448.062C242.001 452.752 241.331 457.419 240.501 462.062C238.551 464.456 236.051 465.956 233.001 466.562C228.201 467.599 223.371 468.432 218.501 469.062C212.211 466.603 211.371 462.77 216.001 457.562C220.631 454.574 225.631 452.74 231.001 452.062C230.211 442.519 229.211 433.019 228.001 423.562C227.221 417.718 228.561 412.551 232.001 408.062C234.021 406.214 236.181 404.547 238.501 403.062C241.951 403.675 243.781 405.675 244.001 409.062Z" fill="#090808"/>
<path fill-rule="evenodd" clip-rule="evenodd" d="M309 409.061C309.67 409.828 310.51 410.495 311.5 411.061C313.33 423.002 314.66 435.002 315.5 447.061C321.56 444.11 327.22 444.776 332.5 449.061C334.28 452.166 336.12 455.166 338 458.061C337.57 460.327 336.24 461.827 334 462.561C323.3 463.019 312.64 463.352 302 463.561C300.49 462.21 299.49 460.543 299 458.561C298.68 442.037 298.68 425.537 299 409.061C302.29 406.513 305.63 406.513 309 409.061Z" fill="#050505"/>
</svg>
