<svg width="500" height="500" viewBox="0 0 500 500" fill="none" xmlns="http://www.w3.org/2000/svg">
<path fill-rule="evenodd" clip-rule="evenodd" d="M421.999 54.0614C424.539 53.6614 426.709 54.3314 428.499 56.0614C429.099 59.2214 428.599 62.2214 426.999 65.0614C427.639 66.2114 428.479 67.2114 429.499 68.0614C434.099 63.4614 439.269 59.6214 444.999 56.5614C449.499 55.7314 451.329 57.5614 450.499 62.0614C447.839 63.3114 446.009 65.3114 444.999 68.0614C447.869 70.2114 448.539 72.8714 446.999 76.0614C448.209 77.4314 449.209 78.9314 449.999 80.5614C448.719 83.9514 447.059 87.1114 444.999 90.0614C446.759 91.7514 447.259 93.7514 446.499 96.0614C444.999 97.5614 443.499 99.0614 441.999 100.561C443.019 101.611 443.179 102.781 442.499 104.061C441.079 105.981 439.249 107.321 436.999 108.061C438.499 110.391 440.329 112.391 442.499 114.061C443.259 116.371 442.759 118.371 440.999 120.061C433.939 120.841 426.939 122.011 419.999 123.561C409.389 130.381 398.049 132.221 385.999 129.061C381.389 129.041 376.889 129.711 372.499 131.061C371.629 130.821 370.789 130.491 369.999 130.061C365.699 132.521 361.539 132.521 357.499 130.061C356.829 129.061 356.829 128.061 357.499 127.061C365.369 114.651 371.039 101.321 374.499 87.0614C377.399 82.9414 380.069 78.6114 382.499 74.0614C387.389 70.1714 391.889 66.0014 395.999 61.5614C399.749 61.7814 402.749 60.4514 404.999 57.5614C409.989 56.0514 411.989 57.8814 410.999 63.0614C417.349 63.3814 421.009 60.3814 421.999 54.0614Z" fill="#13BCD4"/>
<path fill-rule="evenodd" clip-rule="evenodd" d="M368 229.062C367.69 230.302 367.19 230.302 366.5 229.062C365.79 227.482 364.96 225.982 364 224.562C361 223.892 358 223.892 355 224.562C350.17 229.392 345.33 234.232 340.5 239.062C343.05 254.972 345.38 270.972 347.5 287.062C354.93 278.962 361.6 270.302 367.5 261.062C369.43 255.402 370.6 249.562 371 243.562C371.02 239.292 370.02 235.292 368 231.562C368.59 231.102 369.26 230.932 370 231.062C370.65 231.362 371.32 231.702 372 232.062C373.96 230.812 375.46 229.152 376.5 227.062C377.73 227.842 378.06 228.842 377.5 230.062C375.06 231.992 373.23 234.322 372 237.062C372.21 239.452 373.55 240.452 376 240.062C377.87 240.172 379.37 239.502 380.5 238.062C381.12 245.592 380.12 252.922 377.5 260.062C371.8 273.082 363.8 284.412 353.5 294.062C354.5 316.072 354.17 338.072 352.5 360.062C347.9 375.122 344.9 390.452 343.5 406.062C353.12 411.642 357.12 419.972 355.5 431.062C347.79 442.172 337.12 446.502 323.5 444.062C317.28 444.102 311.11 443.602 305 442.562C300.58 439.602 296.08 436.772 291.5 434.062C288.44 426.882 285.77 419.552 283.5 412.062C281.78 410.572 280.62 408.742 280 406.562C269.67 405.892 259.33 405.892 249 406.562C248.24 408.002 247.57 409.502 247 411.062C250.22 413.602 253.39 416.262 256.5 419.062C261.67 426.872 260.51 433.702 253 439.562C222.97 452.072 197.13 446.242 175.5 422.062C168.27 409.612 162.11 396.612 157 383.062C120.7 371.662 86.8597 355.322 55.4997 334.062C53.9897 331.042 51.9897 328.372 49.4997 326.062C49.2897 317.782 53.4597 314.112 61.9997 315.062C65.0697 308.502 68.7397 302.332 72.9997 296.562C74.9997 295.892 76.9997 295.892 78.9997 296.562C83.0897 301.992 87.0897 307.492 90.9997 313.062C95.8097 307.082 100.81 301.252 106 295.562C109.61 295.352 112.95 296.352 116 298.562C118.13 302.322 120.63 305.822 123.5 309.062C126.5 302.392 130.67 296.562 136 291.562C138 290.892 140 290.892 142 291.562C143.5 293.062 145 294.562 146.5 296.062C147.5 290.922 148.33 285.752 149 280.562C143.96 275.622 138.8 270.782 133.5 266.062C131.05 262.362 131.55 259.202 135 256.562C140.69 255.722 146.36 254.722 152 253.562C153.24 252.412 154.24 251.072 155 249.562C151.17 244.732 147.01 240.232 142.5 236.062C140.61 232.862 138.77 229.692 137 226.562C137.54 223.682 139.21 221.682 142 220.562C149.06 220.472 155.9 219.302 162.5 217.062C163.17 215.732 163.17 214.392 162.5 213.062C154.81 205.722 148.31 197.552 143 188.562C143.68 186.042 145.01 183.872 147 182.062C155.47 180.182 163.3 176.852 170.5 172.062C171.17 170.392 171.17 168.732 170.5 167.062C164.37 161.772 159.2 155.772 155 149.062C155.72 146.832 157.05 145.002 159 143.562C165.86 141.732 172.86 140.572 180 140.062C180.62 137.852 181.62 135.852 183 134.062C178.44 127.632 175.61 120.632 174.5 113.062C177.12 111.522 179.96 110.362 183 109.562C188.33 109.232 193.67 108.892 199 108.562C206.75 101.492 215.75 99.1615 226 101.562C232.15 91.0915 237.65 80.2515 242.5 69.0615C245.44 63.5715 249.11 62.9015 253.5 67.0615C254.81 76.0115 255.31 85.0115 255 94.0615C262.63 94.1015 269.46 96.4415 275.5 101.062C277.98 97.8915 281.15 96.7215 285 97.5615C286.39 98.5215 287.06 99.8515 287 101.562C284.82 106.352 285.99 109.852 290.5 112.062C300.54 106.362 311.21 102.702 322.5 101.062C333.65 101.532 341.65 106.862 346.5 117.062C347.17 119.062 347.17 121.062 346.5 123.062C340.2 134.172 333.03 144.672 325 154.562C331.01 154.062 337.01 153.232 343 152.062C361.12 151.662 367.62 159.992 362.5 177.062C357.14 188.762 349.81 199.092 340.5 208.062C338.53 211.532 336.36 214.862 334 218.062C334.58 221.412 335.92 224.412 338 227.062C343.67 223.232 349.33 219.392 355 215.562C356.67 214.892 358.33 214.892 360 215.562C357.13 218.402 357.46 220.732 361 222.562C365.57 224.212 368.23 222.712 369 218.062C369.33 218.562 369.67 219.062 370 219.562C368.42 222.532 367.76 225.702 368 229.062Z" fill="#021051"/>
<path fill-rule="evenodd" clip-rule="evenodd" d="M407 69.0616C410.02 68.9016 413.02 69.0616 416 69.5616C417.54 70.6716 418.2 72.1716 418 74.0616C421.02 74.2216 424.02 74.0616 427 73.5616C428.87 72.1316 430.87 70.9616 433 70.0616C436.54 71.1916 436.87 73.0316 434 75.5616C421.77 80.4316 422.1 82.1016 435 80.5616C436.53 83.1816 437.53 86.0116 438 89.0616C435.34 93.7216 432.67 98.3916 430 103.062C430.77 107.272 429.77 111.102 427 114.562C410.02 118.332 393.02 122.002 376 125.562C372.67 126.232 369.33 126.232 366 125.562C365.48 125.002 365.14 124.332 365 123.562C367.2 119.932 368.04 116.092 367.5 112.062C370.13 110.432 372.46 108.432 374.5 106.062C374.58 100.402 375.92 95.0616 378.5 90.0616C382.31 85.3216 386.48 80.8216 391 76.5616C394.8 76.3316 397.13 74.3316 398 70.5616C400.25 69.7016 402.08 70.2016 403.5 72.0616C405.02 71.4016 406.19 70.4016 407 69.0616Z" fill="#32EAD2"/>
<path fill-rule="evenodd" clip-rule="evenodd" d="M412.001 76.0617C414.761 75.4717 416.431 76.4717 417.001 79.0617C416.531 82.3217 415.191 85.1617 413.001 87.5617C415.251 87.1317 417.581 86.6317 420.001 86.0617C423.731 86.3617 424.891 88.3617 423.501 92.0617C422.151 93.5817 420.651 94.9117 419.001 96.0617C420.331 97.3917 420.331 98.7317 419.001 100.062C420.131 100.822 421.291 101.492 422.501 102.062C423.171 102.732 423.171 103.392 422.501 104.062C408.861 109.042 395.191 114.042 381.501 119.062C375.661 119.232 373.661 116.562 375.501 111.062C377.331 109.232 379.171 107.392 381.001 105.562C379.981 104.512 379.821 103.342 380.501 102.062C382.171 99.7317 383.831 97.3917 385.501 95.0617C390.351 91.2017 394.851 87.0417 399.001 82.5617C402.291 81.9717 403.791 83.4717 403.501 87.0617C406.341 83.3617 409.181 79.7017 412.001 76.0617Z" fill="#F9FCFB"/>
<path fill-rule="evenodd" clip-rule="evenodd" d="M256 105.062C260.32 104.942 264.49 105.612 268.5 107.062C268.59 110.022 267.26 112.362 264.5 114.062C260.84 118.422 261.34 122.252 266 125.562C270.33 126.232 274.67 126.232 279 125.562C280.76 123.052 282.43 120.552 284 118.062C286.69 119.442 289.53 120.442 292.5 121.062C297.34 119.562 301.84 117.392 306 114.562C311.53 112.582 317.19 111.582 323 111.562C322.05 113.992 322.05 116.492 323 119.062C318.71 118.592 314.71 119.432 311 121.562C309.21 124.992 310.05 127.492 313.5 129.062C316.96 128.342 320.46 127.842 324 127.562C325.66 126.122 326.32 124.282 326 122.062C327.97 122.302 329.8 121.972 331.5 121.062C331.74 118.252 331.4 115.592 330.5 113.062C334.08 115.942 335.75 119.612 335.5 124.062C326.65 137.082 317.32 149.752 307.5 162.062C305.57 164.592 304.23 167.262 303.5 170.062C318.77 167.462 333.93 164.462 349 161.062C354.71 161.762 357.04 165.102 356 171.062C354.97 178.982 350.8 184.982 343.5 189.062C337.23 197.832 330.4 206.162 323 214.062C334.54 249.452 341.21 285.782 343 323.062C343.12 347.432 339.62 371.102 332.5 394.062C332.2 398.092 331.7 402.092 331 406.062C331.11 407.002 331.44 407.842 332 408.562C337.36 410.912 341.86 414.412 345.5 419.062C346.17 422.732 346.17 426.392 345.5 430.062C345 430.562 344.5 431.062 344 431.562C333.7 432.992 323.37 433.332 313 432.562C307.53 431.162 302.7 428.662 298.5 425.062C294.62 415.322 290.79 405.652 287 396.062C272.66 395.892 258.33 396.062 244 396.562C238.96 402.142 235.63 408.642 234 416.062C238.71 419.172 243.55 422.172 248.5 425.062C250.39 430.602 248.56 434.102 243 435.562C236.33 436.232 229.67 436.232 223 435.562C216.77 434.002 210.43 433.002 204 432.562C198.56 429.452 193.39 425.952 188.5 422.062C183.83 413.392 179.17 404.732 174.5 396.062C172.41 388.212 169.57 380.712 166 373.562C157.05 371.072 148.05 368.742 139 366.562C124.35 359.072 109.35 352.402 94 346.562C83.2 339.992 72.53 333.162 62 326.062C63.41 324.752 65.08 323.922 67 323.562C84.67 323.232 102.33 322.892 120 322.562C131.59 319.612 143.26 317.112 155 315.062C156.51 307.032 158.34 299.032 160.5 291.062C164.33 255.192 169.66 219.522 176.5 184.062C178.92 173.912 181.59 163.912 184.5 154.062C188.58 144.492 192.24 134.822 195.5 125.062C207.15 108.102 221.31 105.602 238 117.562C243.74 118.352 249.4 118.022 255 116.562C257.34 112.992 257.67 109.152 256 105.062Z" fill="#00346D"/>
<path fill-rule="evenodd" clip-rule="evenodd" d="M260 136.062C255.73 135.072 251.39 134.402 247 134.062C244.9 132.952 242.57 132.282 240 132.062C236.21 130.642 232.21 129.642 228 129.062C222.54 126.812 222.7 125.142 228.5 124.062C236.34 124.812 244.17 125.642 252 126.562C256.01 127.652 259.84 129.152 263.5 131.062C265.87 134.282 265.2 136.612 261.5 138.062C261.22 137.142 260.72 136.482 260 136.062Z" fill="#091152"/>
<path fill-rule="evenodd" clip-rule="evenodd" d="M228 129.062C232.21 129.642 236.21 130.642 240 132.062C238.07 135.452 237.74 138.952 239 142.562C245.84 143.892 248.5 141.052 247 134.062C251.39 134.402 255.73 135.072 260 136.062C255.51 145.142 248.17 148.642 238 146.562C233.55 144.452 230.05 141.282 227.5 137.062C225.79 134.652 224.96 131.982 225 129.062C226 129.062 227 129.062 228 129.062Z" fill="#F5C832"/>
<path fill-rule="evenodd" clip-rule="evenodd" d="M240 132.062C242.57 132.282 244.9 132.952 247 134.062C248.5 141.052 245.84 143.892 239 142.562C237.74 138.952 238.07 135.452 240 132.062Z" fill="#FD3736"/>
<path fill-rule="evenodd" clip-rule="evenodd" d="M368 229.062C369 229.392 369.67 230.062 370 231.062C369.26 230.932 368.59 231.102 368 231.562C370.02 235.292 371.02 239.292 371 243.562C370.6 249.562 369.43 255.402 367.5 261.062C361.6 270.302 354.93 278.962 347.5 287.062C345.38 270.972 343.05 254.972 340.5 239.062C345.33 234.232 350.17 229.392 355 224.562C358 223.892 361 223.892 364 224.562C364.96 225.982 365.79 227.482 366.5 229.062C367.19 230.302 367.69 230.302 368 229.062Z" fill="#00346D"/>
<path fill-rule="evenodd" clip-rule="evenodd" d="M248 244.062C247.8 242.522 247.13 241.182 246 240.062C247.35 238.042 249.02 236.372 251 235.062C254.62 232.582 258.62 231.252 263 231.062C262.89 233.342 262.06 235.342 260.5 237.062C257.33 238.892 254.83 241.392 253 244.562C251.23 245.202 249.57 245.032 248 244.062Z" fill="#C8C8C9"/>
<path fill-rule="evenodd" clip-rule="evenodd" d="M251 235.062C249.02 236.372 247.35 238.042 246 240.062C247.13 241.182 247.8 242.522 248 244.062C241.77 245.002 235.77 246.832 230 249.562C226.17 252.982 221.84 255.652 217 257.562C213 260.892 209 264.232 205 267.562C199.42 268.822 197.59 266.652 199.5 261.062C213.31 246.402 230.14 237.402 250 234.062C250.61 234.182 250.94 234.522 251 235.062Z" fill="#001052"/>
<path fill-rule="evenodd" clip-rule="evenodd" d="M265 238.061C266.79 237.771 268.45 238.111 270 239.061C267.85 241.331 266.35 244.001 265.5 247.061C262.63 251.401 259.13 252.071 255 249.061C253.92 248.201 253.75 247.201 254.5 246.061C257.8 243.011 261.3 240.341 265 238.061Z" fill="#CBCBCB"/>
<path fill-rule="evenodd" clip-rule="evenodd" d="M269 259.062C266.35 261.342 263.35 261.672 260 260.062C259.66 257.402 260.33 255.072 262 253.062C265.8 250.012 270.14 248.352 275 248.062C273.75 252.132 271.75 255.802 269 259.062Z" fill="#C8C8CA"/>
<path fill-rule="evenodd" clip-rule="evenodd" d="M269 259.062C269.54 259.122 269.88 259.452 270 260.062C264.04 270.292 256.88 279.632 248.5 288.062C248.02 289.012 247.85 290.012 248 291.062C237.86 295.632 228.19 300.962 219 307.062C230.95 292.942 243.45 279.272 256.5 266.062C257.92 264.162 259.09 262.162 260 260.062C263.35 261.672 266.35 261.342 269 259.062Z" fill="#000F51"/>
<path fill-rule="evenodd" clip-rule="evenodd" d="M327 323.061C323.84 320.751 320.5 318.581 317 316.561C311.59 315.091 306.26 313.421 301 311.561C289.79 308.731 282.29 312.891 278.5 324.061C277.17 331.761 278.17 339.091 281.5 346.061C297.31 355.861 308.65 352.191 315.5 335.061C316.54 331.811 317.2 328.471 317.5 325.061C320.31 328.141 323.81 329.811 328 330.061C327.6 345.431 320.93 357.261 308 365.561C281.13 379.121 254.13 379.451 227 366.561C220.99 360.701 215.82 354.201 211.5 347.061C209.69 341.191 208.86 335.191 209 329.061C210.81 329.071 212.48 328.571 214 327.561C215.52 325.871 217.18 324.371 219 323.061C217.69 333.291 221.02 341.791 229 348.561C236.56 351.201 243.56 350.201 250 345.561C255.73 340.561 258.56 334.401 258.5 327.061C256.34 323.721 255 320.061 254.5 316.061C252.56 313.451 250.06 311.621 247 310.561C234.79 307.281 223.46 309.111 213 316.061C215.03 313.041 217.03 310.041 219 307.061C228.19 300.961 237.86 295.631 248 291.061C268.75 283.891 288.41 286.061 307 297.561C311.21 301.441 315.71 304.941 320.5 308.061C323.35 312.771 325.51 317.771 327 323.061Z" fill="#F7F7F8"/>
<path fill-rule="evenodd" clip-rule="evenodd" d="M209 329.062C207.81 328.592 207.14 327.592 207 326.062C207.17 325.062 207.33 324.062 207.5 323.062C209.17 320.562 211 318.232 213 316.062C223.46 309.112 234.79 307.282 247 310.562C250.06 311.622 252.56 313.452 254.5 316.062C255 320.062 256.34 323.722 258.5 327.062C258.56 334.402 255.73 340.562 250 345.562C243.56 350.202 236.56 351.202 229 348.562C221.02 341.792 217.69 333.292 219 323.062C217.18 324.372 215.52 325.872 214 327.562C212.48 328.572 210.81 329.072 209 329.062Z" fill="#060606"/>
<path fill-rule="evenodd" clip-rule="evenodd" d="M327 323.061C328.82 324.051 330.16 325.551 331 327.561C330.37 328.871 329.37 329.701 328 330.061C323.81 329.811 320.31 328.141 317.5 325.061C317.2 328.471 316.54 331.811 315.5 335.061C308.65 352.191 297.31 355.861 281.5 346.061C278.17 339.091 277.17 331.761 278.5 324.061C282.29 312.891 289.79 308.731 301 311.561C306.26 313.421 311.59 315.091 317 316.561C320.5 318.581 323.84 320.751 327 323.061Z" fill="#060606"/>
<path fill-rule="evenodd" clip-rule="evenodd" d="M289 316.061C291.86 315.611 294.36 316.281 296.5 318.061C297.42 322.871 296.26 327.031 293 330.561C291 331.231 289 331.231 287 330.561C286.2 328.791 285.03 327.291 283.5 326.061C282.83 324.391 282.83 322.731 283.5 321.061C285.31 319.261 287.15 317.591 289 316.061Z" fill="#F2F2F2"/>
<path fill-rule="evenodd" clip-rule="evenodd" d="M242 316.061C247.63 315.031 250.63 317.361 251 323.061C250.41 327.901 247.75 330.901 243 332.061C239.36 330.921 237.36 328.421 237 324.561C238.02 321.351 239.69 318.521 242 316.061Z" fill="#F3F3F3"/>
<path fill-rule="evenodd" clip-rule="evenodd" d="M278 353.061C280.45 352.641 281.78 353.641 282 356.061C280.1 362.821 275.76 365.661 269 364.561C266.37 362.661 263.54 361.161 260.5 360.061C259.78 357.441 260.78 355.771 263.5 355.061C265.89 355.841 268.06 357.001 270 358.561C271.33 359.231 272.67 359.231 274 358.561C275.16 356.571 276.5 354.731 278 353.061Z" fill="#121212"/>
</svg>
