<svg width="500" height="500" viewBox="0 0 500 500" fill="none" xmlns="http://www.w3.org/2000/svg">
<path fill-rule="evenodd" clip-rule="evenodd" d="M314 108.062C310.137 108.792 306.303 109.792 302.5 111.062C301.598 110.822 300.765 110.482 300 110.062C306.635 101.152 309.635 91.1515 309 80.0615C305.214 76.8315 300.881 74.6715 296 73.5615C275.339 72.5615 254.672 72.2315 234 72.5615C231.62 74.3215 229.12 74.4815 226.5 73.0615C225.672 77.4315 225.839 81.7615 227 86.0615C234.572 83.2915 241.572 84.4615 248 89.5615C256.003 96.0615 262.336 103.892 267 113.062C269.664 121.702 269.664 130.372 267 139.062C260.333 150.392 251.333 159.392 240 166.062C234.567 167.752 229.233 169.412 224 171.062C216.438 171.652 209.438 169.982 203 166.062C197.909 161.912 193.743 156.912 190.5 151.062C190.167 151.392 189.833 151.732 189.5 152.062C179.049 171.302 169.382 190.962 160.5 211.062C157.199 221.932 154.365 232.932 152 244.062C151.278 244.482 150.778 245.142 150.5 246.062C147.502 272.012 147.168 298.012 149.5 324.062C150.12 329.042 151.287 333.872 153 338.562C153.061 340.272 152.394 341.602 151 342.562C147.831 343.542 144.997 343.042 142.5 341.062C138.833 332.392 135.167 323.732 131.5 315.062C128.39 296.072 125.39 277.072 122.5 258.062C120.859 228.972 123.526 200.312 130.5 172.062C135.08 162.662 139.08 152.992 142.5 143.062C148.101 132.472 154.101 122.132 160.5 112.062C165.946 106.612 171.446 101.112 177 95.5615C183.388 91.7015 190.054 88.3715 197 85.5615C203.587 84.1015 209.587 85.2715 215 89.0615C215.333 88.7315 215.667 88.3915 216 88.0615C213.859 81.8815 213.026 75.5515 213.5 69.0615C216 67.2315 218.5 65.3915 221 63.5615C238.319 62.0615 255.652 60.7315 273 59.5615C287.916 60.5415 302.25 63.8715 316 69.5615C316.833 70.3915 317.667 71.2315 318.5 72.0615C319.976 76.6415 320.31 81.3015 319.5 86.0615C318.173 93.5415 316.339 100.872 314 108.062Z" fill="#686868"/>
<path fill-rule="evenodd" clip-rule="evenodd" d="M299.999 110.062C289.18 112.672 278.18 113.672 266.999 113.062C262.335 103.892 256.002 96.0616 247.999 89.5616C241.571 84.4616 234.571 83.2916 226.999 86.0616C225.838 81.7616 225.671 77.4316 226.499 73.0616C229.119 74.4816 231.619 74.3216 233.999 72.5616C254.671 72.2316 275.338 72.5616 295.999 73.5616C300.88 74.6716 305.213 76.8316 308.999 80.0616C309.634 91.1516 306.634 101.152 299.999 110.062Z" fill="#8D8D8D"/>
<path fill-rule="evenodd" clip-rule="evenodd" d="M198 93.0616C201.018 92.9016 204.018 93.0616 207 93.5616C207.457 93.9716 207.791 94.4716 208 95.0616C199.034 99.5316 192.201 106.192 187.5 115.062C186.423 119.812 185.923 124.642 186 129.562C185.763 136.632 186.596 143.462 188.5 150.062C161.22 185.892 144.887 226.222 139.5 271.062C138.713 279.472 139.213 287.802 141 296.062C140.808 298.142 140.308 300.142 139.5 302.062C138.167 300.732 136.833 299.392 135.5 298.062C134.046 287.722 132.546 277.382 131 267.062C132.254 247.072 133.421 227.072 134.5 207.062C138.424 187.032 143.758 167.362 150.5 148.062C154.946 141.502 158.613 134.502 161.5 127.062C167 120.232 172.5 113.392 178 106.562C181.91 104.652 185.244 101.992 188 98.5616C191.588 96.9416 194.921 95.1016 198 93.0616Z" fill="#8D8D8D"/>
<path fill-rule="evenodd" clip-rule="evenodd" d="M254 111.062C246.303 112.362 238.636 112.362 231 111.062C232.581 105.792 231.915 100.792 229 96.0616C233.671 93.2216 238.005 93.7216 242 97.5616C246.579 101.632 250.579 106.132 254 111.062Z" fill="#8D8D8D"/>
<path fill-rule="evenodd" clip-rule="evenodd" d="M224 112.062C214.681 119.052 206.681 127.382 200 137.062C198.483 137.072 197.316 137.742 196.5 139.062C191.875 120.922 198.375 109.252 216 104.062C217.333 104.392 218.667 104.732 220 105.062C221.092 107.582 222.426 109.922 224 112.062Z" fill="#8D8D8D"/>
<path fill-rule="evenodd" clip-rule="evenodd" d="M314 108.062C318.509 109.722 322.009 112.722 324.5 117.062C327.087 121.822 329.087 126.822 330.5 132.062C338.119 142.962 344.452 154.632 349.5 167.062C354.201 171.432 358.534 176.092 362.5 181.062C368.157 194.372 372.824 208.032 376.5 222.062C379.195 246.372 379.528 270.702 377.5 295.062C376.141 298.972 375.308 302.972 375 307.062C374.232 306.302 373.732 305.302 373.5 304.062C370.272 313.902 367.772 323.902 366 334.062C364.003 339.392 362.003 344.722 360 350.062C358.812 350.922 357.645 351.922 356.5 353.062C355.218 357.402 354.051 361.732 353 366.062C348.121 375.472 342.454 384.472 336 393.062C329.406 396.382 322.406 398.052 315 398.062C314.88 396.972 314.213 396.312 313 396.062C309.819 396.672 306.652 397.342 303.5 398.062C302.47 398.402 301.97 399.062 302 400.062C287.585 399.652 273.252 400.322 259 402.062C256.947 400.872 254.613 400.202 252 400.062C249.804 400.062 247.804 400.402 246 401.062C228.812 398.052 214.146 390.212 202 377.562C199.63 375.322 196.964 373.822 194 373.062C196.027 373.222 198.027 373.062 200 372.562C202.198 369.542 204.531 366.702 207 364.062C212.771 369.332 218.438 374.832 224 380.562C225.377 381.802 226.71 381.972 228 381.062C222.918 371.902 219.252 362.242 217 352.062C215.356 352.272 213.856 351.942 212.5 351.062C212.268 352.302 211.768 353.302 211 354.062C211.322 351.842 210.655 350.002 209 348.562C203.684 347.062 198.351 346.892 193 348.062C189.303 346.992 185.636 345.832 182 344.562C180.924 342.832 180.757 341.002 181.5 339.062C183.289 335.822 184.789 332.492 186 329.062C194.827 332.972 203.827 336.632 213 340.062C211.572 332.452 209.405 325.122 206.5 318.062C206.327 314.022 205.827 310.022 205 306.062C202.016 305.292 199.016 304.622 196 304.062C197.667 300.742 199.834 297.742 202.5 295.062C203.079 293.632 202.912 292.302 202 291.062C202.624 290.642 202.957 289.982 203 289.062C201.621 279.112 200.621 269.112 200 259.062C189.586 254.592 178.919 250.922 168 248.062C167.799 259.142 168.632 270.142 170.5 281.062C173 282.232 174.833 284.062 176 286.562C181.73 287.972 187.397 289.472 193 291.062C188.974 293.122 186.974 296.452 187 301.062C182.626 298.632 177.959 297.472 173 297.562C174.811 304.342 177.144 310.842 180 317.062C176.739 324.172 174.073 331.512 172 339.062C169.232 333.622 166.732 327.952 164.5 322.062C162.45 310.912 159.784 299.912 156.5 289.062C154.094 274.142 152.594 259.142 152 244.062C154.365 232.932 157.199 221.932 160.5 211.062C169.382 190.962 179.049 171.302 189.5 152.062C189.833 151.732 190.167 151.392 190.5 151.062C193.743 156.912 197.909 161.912 203 166.062C199.769 170.802 195.936 175.132 191.5 179.062C190.833 180.062 190.833 181.062 191.5 182.062C198.184 185.962 205.184 189.292 212.5 192.062C217.175 185.552 221.009 178.552 224 171.062C229.233 169.412 234.567 167.752 240 166.062C237.112 175.962 232.445 184.962 226 193.062C228.382 194.632 231.049 195.462 234 195.562C244.995 196.062 255.995 196.232 267 196.062C266.465 191.382 265.799 186.722 265 182.062C265.686 167.722 266.353 153.392 267 139.062C269.664 130.372 269.664 121.702 267 113.062C278.181 113.672 289.181 112.672 300 110.062C300.765 110.482 301.598 110.822 302.5 111.062C306.303 109.792 310.137 108.792 314 108.062Z" fill="#37582D"/>
<path fill-rule="evenodd" clip-rule="evenodd" d="M231 111.062C238.636 112.362 246.303 112.362 254 111.062C260.035 119.702 260.535 128.702 255.5 138.062C249.13 147.612 240.63 154.282 230 158.062C233.268 147.422 237.602 137.252 243 127.562C239.096 126.272 235.429 124.442 232 122.062C229.009 125.222 226.175 128.552 223.5 132.062C219.16 140.752 214.327 149.082 209 157.062C203.596 153.312 199.596 148.312 197 142.062C197.76 140.202 198.76 138.532 200 137.062C206.681 127.382 214.681 119.052 224 112.062C226.403 112.112 228.736 111.782 231 111.062Z" fill="#3A5A2E"/>
<path fill-rule="evenodd" clip-rule="evenodd" d="M230 158.062C222.773 162.372 215.773 162.032 209 157.062C214.327 149.082 219.16 140.752 223.5 132.062C226.175 128.552 229.009 125.222 232 122.062C235.429 124.442 239.096 126.272 243 127.562C237.602 137.252 233.268 147.422 230 158.062Z" fill="#6D7C46"/>
<path fill-rule="evenodd" clip-rule="evenodd" d="M305 125.061C308.399 123.741 311.899 123.741 315.5 125.061C321.36 140.441 328.027 155.441 335.5 170.061C342.356 176.401 346.856 184.071 349 193.061C342.702 194.271 336.369 195.271 330 196.061C329.598 191.651 328.765 187.311 327.5 183.061C318.69 164.111 311.19 144.781 305 125.061Z" fill="#6D7C45"/>
<path fill-rule="evenodd" clip-rule="evenodd" d="M290 126.062C292 126.062 294 126.062 296 126.062C296.922 133.832 298.422 141.502 300.5 149.062C306.687 164.452 312.187 180.122 317 196.062C308.028 197.002 299.028 197.672 290 198.062C285.884 198.162 281.884 197.662 278 196.562C279.335 178.762 279.002 160.932 277 143.062C278.68 137.942 279.347 132.612 279 127.062C282.871 127.372 286.538 127.042 290 126.062Z" fill="#6D7C45"/>
<path fill-rule="evenodd" clip-rule="evenodd" d="M267 139.062C266.353 153.392 265.686 167.722 265 182.062C265.799 186.722 266.465 191.382 267 196.062C255.995 196.232 244.995 196.062 234 195.562C231.049 195.462 228.382 194.632 226 193.062C232.445 184.962 237.112 175.962 240 166.062C251.333 159.392 260.333 150.392 267 139.062Z" fill="#6D7C45"/>
<path fill-rule="evenodd" clip-rule="evenodd" d="M203 166.062C209.438 169.982 216.438 171.652 224 171.062C221.009 178.552 217.175 185.552 212.5 192.062C205.184 189.292 198.184 185.962 191.5 182.062C190.833 181.062 190.833 180.062 191.5 179.062C195.936 175.132 199.769 170.802 203 166.062Z" fill="#6D7D45"/>
<path fill-rule="evenodd" clip-rule="evenodd" d="M183 193.062C188.901 195.642 194.901 198.142 201 200.562C203.932 201.512 206.932 202.012 210 202.062C206.384 217.192 204.051 232.532 203 248.062C194.077 245.142 185.077 242.312 176 239.562C174.214 238.782 172.714 237.612 171.5 236.062C172.568 221.022 176.401 206.682 183 193.062Z" fill="#6D7C45"/>
<path fill-rule="evenodd" clip-rule="evenodd" d="M268.001 233.062C256.528 238.302 246.195 245.302 237.001 254.062C229.836 253.152 222.503 252.482 215.001 252.062C214.835 247.052 215.002 242.052 215.501 237.062C218.373 226.542 220.539 215.872 222.001 205.062C236.863 207.722 251.863 208.722 267.001 208.062C266.675 216.582 267.008 224.912 268.001 233.062Z" fill="#6D7C45"/>
<path fill-rule="evenodd" clip-rule="evenodd" d="M339 244.062C336.746 243.442 335.079 242.102 334 240.062C333.695 229.042 333.028 218.042 332 207.062C339.263 206.492 346.429 205.492 353.5 204.062C359.44 215.032 361.94 226.702 361 239.062C353.825 241.492 346.492 243.162 339 244.062Z" fill="#6D7C45"/>
<path fill-rule="evenodd" clip-rule="evenodd" d="M323 234.062C313.267 231.842 303.434 230.172 293.5 229.062C287.94 229.332 282.44 229.992 277 231.062C277 223.732 277 216.392 277 209.062C291.992 209.692 306.992 210.032 322 210.062C322.599 218.052 322.932 226.052 323 234.062Z" fill="#6E7D46"/>
<path fill-rule="evenodd" clip-rule="evenodd" d="M323 234.062C326.499 236.312 330.165 238.312 334 240.062C335.079 242.102 336.746 243.442 339 244.062C340.951 247.352 343.285 250.352 346 253.062C347.1 254.162 347.767 255.502 348 257.062C336.868 252.202 325.201 250.032 313 250.562C306.675 253.362 302.841 258.192 301.5 265.062C299.834 274.222 301.334 282.722 306 290.562C317.036 297.052 327.536 296.552 337.5 289.062C342.319 281.292 344.653 272.952 344.5 264.062C346.657 266.052 349.157 267.392 352 268.062C352.173 274.502 351.506 280.832 350 287.062C348.599 290.262 347.599 293.602 347 297.062C346.232 297.822 345.732 298.822 345.5 300.062C340.732 305.332 335.566 310.002 330 314.062C326 315.732 322 317.392 318 319.062C303.916 322.572 289.583 323.912 275 323.062C272.667 323.062 270.333 323.062 268 323.062C256.702 320.242 247.035 314.582 239 306.062C236.333 303.062 233.667 300.062 231 297.062C227.29 290.922 225.623 284.262 226 277.062C229.25 275.322 232.084 272.982 234.5 270.062C234.041 277.592 235.707 284.592 239.5 291.062C249.456 301.152 259.956 301.652 271 292.562C273.873 288.982 276.373 285.152 278.5 281.062C280.077 274.622 278.744 268.952 274.5 264.062C274.688 260.332 273.188 257.492 270 255.562C264.343 253.562 258.51 252.392 252.5 252.062C245.962 252.962 239.795 254.962 234 258.062C235 256.732 236 255.392 237 254.062C246.194 245.302 256.527 238.302 268 233.062C271.227 232.882 274.227 232.222 277 231.062C282.44 229.992 287.94 229.332 293.5 229.062C303.434 230.172 313.267 231.842 323 234.062Z" fill="#F9F9F8"/>
<path fill-rule="evenodd" clip-rule="evenodd" d="M202 291.062C199 291.062 196 291.062 193 291.062C187.397 289.472 181.73 287.972 176 286.562C174.833 284.062 173 282.232 170.5 281.062C168.632 270.142 167.799 259.142 168 248.062C178.919 250.922 189.586 254.592 200 259.062C200.621 269.112 201.621 279.112 203 289.062C202.957 289.982 202.624 290.642 202 291.062Z" fill="#6D7C45"/>
<path fill-rule="evenodd" clip-rule="evenodd" d="M348 257.061C351.552 259.761 355.386 262.091 359.5 264.061C360.211 265.931 359.711 267.431 358 268.561C356.012 268.741 354.012 268.571 352 268.061C349.157 267.391 346.657 266.051 344.5 264.061C344.653 272.951 342.319 281.291 337.5 289.061C327.536 296.551 317.036 297.051 306 290.561C301.334 282.721 299.834 274.221 301.5 265.061C302.841 258.191 306.675 253.361 313 250.561C325.201 250.031 336.868 252.201 348 257.061Z" fill="#040404"/>
<path fill-rule="evenodd" clip-rule="evenodd" d="M226 277.062C224.333 277.062 222.667 277.062 221 277.062C220.837 274.702 221.003 272.372 221.5 270.062C223.342 267.702 225.175 265.362 227 263.062C229.547 261.632 231.881 259.962 234 258.062C239.795 254.962 245.962 252.962 252.5 252.062C258.51 252.392 264.343 253.562 270 255.562C273.188 257.492 274.688 260.332 274.5 264.062C278.744 268.952 280.077 274.622 278.5 281.062C276.373 285.152 273.873 288.982 271 292.562C259.956 301.652 249.456 301.152 239.5 291.062C235.707 284.592 234.041 277.592 234.5 270.062C232.084 272.982 229.25 275.322 226 277.062Z" fill="#050505"/>
<path fill-rule="evenodd" clip-rule="evenodd" d="M313 256.062C317.963 254.882 320.963 256.712 322 261.562C322.383 271.682 318.049 274.852 309 271.062C306.46 268.522 305.626 265.522 306.5 262.062C308.835 260.162 311.002 258.162 313 256.062Z" fill="#F0F0F0"/>
<path fill-rule="evenodd" clip-rule="evenodd" d="M261 260.062C266.875 259.102 269.875 261.602 270 267.562C269.868 273.352 267.035 276.852 261.5 278.062C257.353 277.072 255.187 274.412 255 270.062C255.498 265.722 257.498 262.382 261 260.062Z" fill="#F6F6F6"/>
<path fill-rule="evenodd" clip-rule="evenodd" d="M227 263.062C225.175 265.362 223.342 267.702 221.5 270.062C221.003 272.372 220.837 274.702 221 277.062C222.667 277.062 224.333 277.062 226 277.062C225.623 284.262 227.29 290.922 231 297.062C225.738 297.362 220.572 297.032 215.5 296.062C213.472 284.862 212.639 273.532 213 262.062C217.667 262.392 222.333 262.732 227 263.062Z" fill="#6C7B46"/>
<path fill-rule="evenodd" clip-rule="evenodd" d="M350 287.062C351.506 280.832 352.173 274.502 352 268.062C354.012 268.572 356.012 268.742 358 268.562C359.711 267.432 360.211 265.932 359.5 264.062C355.386 262.092 351.552 259.762 348 257.062C347.767 255.502 347.1 254.162 346 253.062C351.762 253.122 357.429 252.462 363 251.062C363.167 262.072 363 273.072 362.5 284.062C358.481 285.612 354.315 286.612 350 287.062Z" fill="#6C7B45"/>
<path fill-rule="evenodd" clip-rule="evenodd" d="M192.999 291.062C195.999 291.062 198.999 291.062 201.999 291.062C202.911 292.302 203.078 293.632 202.499 295.062C199.833 297.742 197.666 300.742 195.999 304.062C191.521 311.812 188.188 320.142 185.999 329.062C184.788 332.492 183.288 335.822 181.499 339.062C180.756 341.002 180.923 342.832 181.999 344.562C185.635 345.832 189.302 346.992 192.999 348.062C198.35 346.892 203.683 347.062 208.999 348.562C210.654 350.002 211.321 351.842 210.999 354.062C210.217 357.622 208.883 360.962 206.999 364.062C204.53 366.702 202.197 369.542 199.999 372.562C198.026 373.062 196.026 373.222 193.999 373.062C193.382 372.952 192.882 372.622 192.499 372.062C192.004 370.092 191.837 368.092 191.999 366.062C194.359 363.692 196.359 361.032 197.999 358.062C193.716 357.072 189.383 356.732 184.999 357.062C175.329 355.042 170.995 349.042 171.999 339.062C174.072 331.512 176.738 324.172 179.999 317.062C182.335 311.722 184.668 306.392 186.999 301.062C186.973 296.452 188.973 293.122 192.999 291.062Z" fill="#252524"/>
<path fill-rule="evenodd" clip-rule="evenodd" d="M187 301.061C184.669 306.391 182.336 311.722 180 317.062C177.144 310.842 174.811 304.341 173 297.561C177.959 297.471 182.626 298.631 187 301.061Z" fill="#6D7C45"/>
<path fill-rule="evenodd" clip-rule="evenodd" d="M330 314.062C335.566 310.002 340.732 305.332 345.5 300.062C345.732 298.822 346.232 297.822 347 297.062C350.618 298.192 354.285 297.862 358 296.062C358.333 296.562 358.667 297.062 359 297.562C356.156 304.462 354.323 311.632 353.5 319.062C351.129 324.632 348.629 330.132 346 335.562C339.226 336.752 332.559 338.252 326 340.062C327.207 331.362 328.54 322.692 330 314.062Z" fill="#6D7C45"/>
<path fill-rule="evenodd" clip-rule="evenodd" d="M302 299.062C303.699 298.902 305.366 299.072 307 299.562C307.522 300.122 307.855 300.792 308 301.562C306.318 305.922 303.651 309.582 300 312.562C294.809 312.282 289.809 310.952 285 308.562C284.094 306.862 283.761 305.032 284 303.062C288.514 302.632 292.681 303.632 296.5 306.062C299.288 304.492 301.121 302.152 302 299.062Z" fill="#0C0C0C"/>
<path fill-rule="evenodd" clip-rule="evenodd" d="M196 304.062C199.016 304.622 202.016 305.292 205 306.062C205.827 310.022 206.327 314.022 206.5 318.062C209.405 325.122 211.572 332.452 213 340.062C203.827 336.632 194.827 332.972 186 329.062C188.189 320.142 191.522 311.812 196 304.062Z" fill="#6D7C45"/>
<path fill-rule="evenodd" clip-rule="evenodd" d="M239 306.062C247.035 314.582 256.702 320.242 268 323.062C267.006 332.212 266.673 341.552 267 351.062C252.69 350.532 238.69 348.202 225 344.062C221.8 331.862 219.133 319.532 217 307.062C224.519 307.382 231.852 307.052 239 306.062Z" fill="#6D7C45"/>
<path fill-rule="evenodd" clip-rule="evenodd" d="M375 307.062C375.809 321.392 375.976 335.722 375.5 350.062C372.112 353.942 368.946 357.942 366 362.062C366.548 364.122 367.714 365.782 369.5 367.062C371.322 373.902 368.822 376.402 362 374.562C357.79 372.852 354.79 370.012 353 366.062C354.051 361.732 355.218 357.402 356.5 353.062C357.645 351.922 358.812 350.922 360 350.062C363.416 347.572 365.583 344.232 366.5 340.062C367.289 337.852 367.122 335.852 366 334.062C367.772 323.902 370.272 313.902 373.5 304.062C373.732 305.302 374.232 306.302 375 307.062Z" fill="#272727"/>
<path fill-rule="evenodd" clip-rule="evenodd" d="M318 319.062C317.093 327.412 316.093 335.742 315 344.062C302.629 347.992 289.962 350.322 277 351.062C277.597 341.462 276.931 332.132 275 323.062C289.583 323.912 303.916 322.572 318 319.062Z" fill="#6D7C45"/>
<path fill-rule="evenodd" clip-rule="evenodd" d="M366 334.062C367.122 335.852 367.289 337.852 366.5 340.062C365.583 344.232 363.416 347.572 360 350.062C362.003 344.722 364.003 339.392 366 334.062Z" fill="#CED1CE"/>
<path fill-rule="evenodd" clip-rule="evenodd" d="M337 348.062C338.333 348.062 339.667 348.062 341 348.062C338.591 359.702 332.925 369.542 324 377.562C321.598 378.372 319.265 378.212 317 377.062C319.477 369.152 321.644 361.152 323.5 353.062C327.811 350.702 332.311 349.032 337 348.062Z" fill="#6D7C45"/>
<path fill-rule="evenodd" clip-rule="evenodd" d="M207 364.062C208.884 360.962 210.218 357.622 211 354.062C211.768 353.302 212.268 352.302 212.5 351.062C213.856 351.942 215.356 352.272 217 352.062C219.252 362.242 222.918 371.902 228 381.062C226.71 381.972 225.377 381.802 224 380.562C218.438 374.832 212.771 369.332 207 364.062Z" fill="#6D7C45"/>
<path fill-rule="evenodd" clip-rule="evenodd" d="M229 356.062C241.158 358.962 253.491 360.792 266 361.562C266.834 370.042 267.834 378.542 269 387.062C259.95 386.822 250.95 385.982 242 384.562C236.167 375.732 231.834 366.232 229 356.062Z" fill="#6D7C45"/>
<path fill-rule="evenodd" clip-rule="evenodd" d="M185 357.062C189.384 356.732 193.717 357.072 198 358.062C196.36 361.032 194.36 363.692 192 366.062C189.315 363.372 186.982 360.372 185 357.062Z" fill="#36562D"/>
<path fill-rule="evenodd" clip-rule="evenodd" d="M308 356.061C309.478 355.801 310.811 356.131 312 357.061C309.809 365.161 307.309 373.161 304.5 381.061C297.431 382.991 290.264 384.661 283 386.061C281.506 385.851 280.339 385.181 279.5 384.061C277.918 376.481 277.085 368.811 277 361.061C287.813 361.521 298.146 359.851 308 356.061Z" fill="#6D7C45"/>
<path fill-rule="evenodd" clip-rule="evenodd" d="M315 398.062C313.678 406.902 313.678 415.902 315 425.062C319.04 423.732 323.04 423.902 327 425.562C330.827 428.472 330.827 431.472 327 434.562C319.419 437.722 311.752 437.892 304 435.062C303.186 423.432 302.519 411.762 302 400.062C301.97 399.062 302.47 398.402 303.5 398.062C306.652 397.342 309.819 396.672 313 396.062C314.213 396.312 314.88 396.972 315 398.062Z" fill="#282828"/>
<path fill-rule="evenodd" clip-rule="evenodd" d="M259 402.062C259 410.062 259 418.062 259 426.062C263.122 426.712 266.955 428.042 270.5 430.062C272.552 433.022 272.386 435.852 270 438.562C264.447 440.132 258.781 440.462 253 439.562C250.867 437.662 248.367 436.492 245.5 436.062C245.499 424.402 245.666 412.732 246 401.062C247.804 400.402 249.804 400.062 252 400.062C254.613 400.202 256.947 400.872 259 402.062Z" fill="#262626"/>
</svg>
