<svg width="500" height="500" viewBox="0 0 500 500" fill="none" xmlns="http://www.w3.org/2000/svg">
<path fill-rule="evenodd" clip-rule="evenodd" d="M220.999 87.061C224.349 86.891 227.682 87.061 230.999 87.561C232.303 88.361 232.97 89.531 232.999 91.061C229.268 98.191 225.268 105.191 220.999 112.061C222.573 113.191 224.24 113.361 225.999 112.561C236.907 107.941 247.907 103.601 258.999 99.561C265.827 97.741 268.993 100.241 268.499 107.061C264.875 112.141 261.375 117.311 257.999 122.561C268.332 127.391 278.666 132.231 288.999 137.061C291.007 131.531 292.507 125.871 293.499 120.061C297.294 114.241 302.127 113.411 307.999 117.561C310.666 118.231 313.332 118.231 315.999 117.561C327.151 112.821 337.485 106.821 346.999 99.561C350.103 93.171 355.103 90.841 361.999 92.561C362.596 93.621 362.929 94.791 362.999 96.061C360.921 107.691 359.254 119.351 357.999 131.061C366.934 129.691 375.934 128.861 384.999 128.561C396.258 126.141 407.591 124.311 418.999 123.061C425.879 122.321 432.046 123.991 437.499 128.061C437.664 130.241 436.831 132.071 434.999 133.561C417.148 146.091 400.981 160.591 386.499 177.061C384.1 182.821 382.267 188.651 380.999 194.561C374.27 193.551 367.603 191.881 360.999 189.561C355.686 188.561 350.353 188.231 344.999 188.561C354.167 199.561 364.501 209.391 375.999 218.061C381.192 216.801 386.192 214.971 390.999 212.561C395.462 211.361 398.129 213.021 398.999 217.561C396.999 222.561 396.166 227.721 396.499 233.061C399.334 234.481 402.001 236.141 404.499 238.061C409.285 235.301 414.119 232.471 418.999 229.561C421.2 228.741 423.033 229.241 424.499 231.061C424.872 236.751 425.372 242.421 425.999 248.061C428.743 248.761 431.41 248.761 433.999 248.061C435.068 245.021 436.234 242.021 437.499 239.061C440.771 234.161 444.438 233.821 448.499 238.061C450.981 244.061 454.647 249.061 459.499 253.061C461.252 256.781 461.252 260.451 459.499 264.061C454.365 270.201 448.865 276.031 442.999 281.561C428.277 292.611 413.277 303.281 397.999 313.561C378.395 322.031 359.061 331.031 339.999 340.561C324.898 345.651 309.565 349.821 293.999 353.061C294.148 366.551 295.481 379.881 297.999 393.061C298.404 401.951 294.57 407.951 286.499 411.061C284.607 410.781 283.274 409.781 282.499 408.061C281.247 401.551 282.413 395.551 285.999 390.061C284.391 384.181 282.224 378.511 279.499 373.061C278.083 368.151 277.25 363.151 276.999 358.061C271.911 358.311 266.911 359.141 261.999 360.561C255.571 360.871 249.238 361.031 242.999 361.061C246.519 374.711 246.685 388.381 243.499 402.061C242.512 410.621 238.012 413.781 229.999 411.561C227.319 403.721 228.319 396.221 232.999 389.061C229.977 379.291 226.81 369.621 223.499 360.061C222.812 357.991 222.979 355.991 223.999 354.061C213.633 347.551 203.299 341.051 192.999 334.561C169.387 311.821 158.054 283.991 158.999 251.061C154.027 254.881 150.86 259.881 149.499 266.061C142.318 272.001 137.318 270.331 134.499 261.061C133.168 251.381 136.335 243.551 143.999 237.561C149.62 235.471 154.786 232.641 159.499 229.061C162.627 221.141 165.46 213.141 167.999 205.061C162.605 202.531 157.272 199.691 151.999 196.561C147.832 192.391 143.666 188.231 139.499 184.061C134.834 173.071 134.834 162.071 139.499 151.061C147.542 138.681 157.375 127.851 168.999 118.561C176.666 112.891 184.332 107.231 191.999 101.561C202.005 97.221 211.672 92.391 220.999 87.061Z" fill="#BA131C"/>
<path fill-rule="evenodd" clip-rule="evenodd" d="M351 120.061C350.935 116.561 349.601 116.061 347 118.561C337.822 124.981 328.822 131.651 320 138.561C312.941 139.781 309.275 143.951 309 151.061C305.037 148.431 301.371 145.431 298 142.061C298.589 138.091 299.922 134.431 302 131.061C322.225 126.861 339.725 117.531 354.5 103.061C353.39 108.781 352.224 114.441 351 120.061Z" fill="#D74F4B"/>
<path fill-rule="evenodd" clip-rule="evenodd" d="M313 338.061C312.838 319.411 308.004 302.081 298.5 286.061C290.265 273.821 281.265 262.161 271.5 251.061C268.39 248.921 265.223 246.921 262 245.061C267.195 243.261 268.195 240.101 265 235.561C260.395 235.261 255.895 234.421 251.5 233.061C248.63 233.651 245.797 234.321 243 235.061C223.164 223.471 201.831 219.631 179 223.561C175.458 225.831 172.125 228.331 169 231.061C169.849 222.951 172.016 215.291 175.5 208.061C176.167 205.061 176.167 202.061 175.5 199.061C170.547 196.521 165.38 194.351 160 192.561C157.167 190.391 154.333 188.231 151.5 186.061C150.406 184.481 149.572 182.821 149 181.061C151.59 181.691 153.923 182.861 156 184.561C159.333 185.231 162.667 185.231 166 184.561C168.605 182.631 168.605 180.801 166 179.061C160.335 182.281 155.669 181.111 152 175.561C150.572 174.981 149.238 175.151 148 176.061C146.271 171.891 145.771 167.561 146.5 163.061C148.833 157.731 151.167 152.391 153.5 147.061C165.096 135.141 178.929 126.971 195 122.561C200 121.891 205 121.891 210 122.561C198.864 131.911 199.864 139.911 213 146.561C219.984 148.971 226.651 148.301 233 144.561C237.326 139.261 242.326 134.601 248 130.561C250 129.891 252 129.891 254 130.561C262.667 134.561 271.333 138.561 280 142.561C286.995 147.731 294.328 152.391 302 156.561C306.865 161.761 312.032 166.591 317.5 171.061C329.943 184.841 342.443 198.681 355 212.561C360.667 217.561 366.333 222.561 372 227.561C381.89 233.451 391.223 240.121 400 247.561C415.231 257.641 431.898 262.641 450 262.561C427.103 280.791 403.103 297.451 378 312.561C357.066 323.141 335.4 331.641 313 338.061Z" fill="#D64F4B"/>
<path fill-rule="evenodd" clip-rule="evenodd" d="M407 142.061C388.938 144.441 370.938 147.271 353 150.561C349 153.231 345.667 156.561 343 160.561C339.296 163.411 335.296 165.751 331 167.561C330.163 168.571 329.83 169.741 330 171.061C326.127 168.371 323.294 165.041 321.5 161.061C331.477 157.331 339.977 151.491 347 143.561C367.793 139.711 388.793 136.541 410 134.061C412 134.231 414 134.391 416 134.561C414.065 138.331 411.065 140.831 407 142.061Z" fill="#D74F4B"/>
<path fill-rule="evenodd" clip-rule="evenodd" d="M351 120.061C350.015 123.641 349.348 127.301 349 131.061C345.659 130.551 342.326 130.391 339 130.561C337.569 131.031 336.403 131.861 335.5 133.061C332.455 137.321 329.288 141.481 326 145.561C320.975 147.161 316.475 149.661 312.5 153.061C311.197 152.581 310.031 151.921 309 151.061C309.275 143.951 312.941 139.781 320 138.561C328.822 131.651 337.822 124.981 347 118.561C349.601 116.061 350.935 116.561 351 120.061Z" fill="#FEBE44"/>
<path fill-rule="evenodd" clip-rule="evenodd" d="M185 153.061C185.336 157.561 183.336 159.391 179 158.561C177.556 157.431 176.89 155.931 177 154.061C177.34 152.051 177.673 150.051 178 148.061C182.754 146.111 185.087 147.771 185 153.061Z" fill="#F4F3F3"/>
<path fill-rule="evenodd" clip-rule="evenodd" d="M177.999 148.061C177.672 150.051 177.339 152.051 176.999 154.061C176.889 155.931 177.555 157.431 178.999 158.561C183.335 159.391 185.335 157.561 184.999 153.061C188.035 161.531 185.035 165.691 175.999 165.561C171.455 160.761 170.955 155.591 174.499 150.061C175.315 148.741 176.482 148.071 177.999 148.061Z" fill="#160D0C"/>
<path fill-rule="evenodd" clip-rule="evenodd" d="M407 142.061C400.625 147.021 394.458 152.351 388.5 158.061C383.741 166.581 378.241 174.581 372 182.061C370.761 181.621 369.761 180.951 369 180.061C370.752 180.141 371.752 179.311 372 177.561C371.339 175.101 370.839 172.601 370.5 170.061C367.207 163.771 363.207 158.111 358.5 153.061C357.22 153.171 356.387 153.841 356 155.061C359.5 160.731 363 166.391 366.5 172.061C366.895 174.771 367.395 177.431 368 180.061C362.842 177.651 357.509 175.491 352 173.561C345.204 172.931 338.538 173.261 332 174.561C331.415 173.261 330.749 172.091 330 171.061C329.83 169.741 330.163 168.571 331 167.561C335.296 165.751 339.296 163.411 343 160.561C345.667 156.561 349 153.231 353 150.561C370.938 147.271 388.938 144.441 407 142.061Z" fill="#FEB84C"/>
<path fill-rule="evenodd" clip-rule="evenodd" d="M369 180.061C368.667 180.061 368.333 180.061 368 180.061C367.395 177.431 366.895 174.771 366.5 172.061C363 166.391 359.5 160.731 356 155.061C356.387 153.841 357.22 153.171 358.5 153.061C363.207 158.111 367.207 163.771 370.5 170.061C370.839 172.601 371.339 175.101 372 177.561C371.752 179.311 370.752 180.141 369 180.061Z" fill="#FFCA31"/>
<path fill-rule="evenodd" clip-rule="evenodd" d="M66 157.061C70.188 156.651 73.521 158.151 76 161.561C86.093 161.681 96.093 162.681 106 164.561C112.084 168.301 118.417 171.631 125 174.561C132.893 181.161 135.393 189.321 132.5 199.061C128.76 202.871 125.76 207.201 123.5 212.061C113.752 221.091 102.252 224.921 89 223.561C82.647 219.861 76.313 216.191 70 212.561C66.149 212.021 62.315 212.191 58.5 213.061C49.496 213.731 45.829 209.731 47.5 201.061C48.798 200.001 49.965 198.831 51 197.561C48.55 194.111 45.717 190.941 42.5 188.061C39.967 184.361 38.634 180.361 38.5 176.061C40.572 171.421 44.072 169.921 49 171.561C53.536 177.311 58.869 178.311 65 174.561C59.37 168.161 59.704 162.321 66 157.061Z" fill="#FF3837"/>
<path fill-rule="evenodd" clip-rule="evenodd" d="M189 163.061C193.132 163.451 197.132 164.451 201 166.061C203.926 170.041 202.926 172.871 198 174.561C194.239 175.301 190.572 174.961 187 173.561C183.902 169.221 184.569 165.721 189 163.061Z" fill="#E77C8C"/>
<path fill-rule="evenodd" clip-rule="evenodd" d="M149 181.061C146.81 179.811 146.477 178.151 148 176.061C149.238 175.151 150.572 174.981 152 175.561C155.669 181.111 160.335 182.281 166 179.061C168.605 180.801 168.605 182.631 166 184.561C162.667 185.231 159.333 185.231 156 184.561C153.923 182.861 151.59 181.691 149 181.061Z" fill="#130605"/>
<path fill-rule="evenodd" clip-rule="evenodd" d="M120 200.061C115.497 201.061 111.33 202.721 107.5 205.061C100.193 202.731 92.693 201.561 85 201.561C79.837 200.031 75.504 197.361 72 193.561C73.983 189.261 76.65 188.921 80 192.561C81.634 193.051 83.301 193.221 85 193.061C84.83 191.741 85.163 190.571 86 189.561C88.547 188.901 91.047 189.071 93.5 190.061C94.559 189.931 95.392 189.431 96 188.561C93.398 187.581 90.898 186.421 88.5 185.061C88.006 183.431 87.84 181.761 88 180.061C91.855 181.201 95.855 181.861 100 182.061C104.153 182.431 107.82 181.431 111 179.061C113.238 178.021 115.571 177.861 118 178.561C125.584 182.131 128.084 187.961 125.5 196.061C124.068 198.001 122.235 199.331 120 200.061Z" fill="#F7E902"/>
<path fill-rule="evenodd" clip-rule="evenodd" d="M111.001 179.061C107.821 181.431 104.154 182.431 100.001 182.061C95.8558 181.861 91.8558 181.201 88.0008 180.061C87.8408 181.761 88.0068 183.431 88.5008 185.061C90.8988 186.421 93.3988 187.581 96.0008 188.561C95.3928 189.431 94.5598 189.931 93.5008 190.061C91.0478 189.071 88.5478 188.901 86.0008 189.561C85.1638 190.571 84.8308 191.741 85.0008 193.061C83.3018 193.221 81.6348 193.051 80.0008 192.561C76.6508 188.921 73.9838 189.261 72.0008 193.561C75.5048 197.361 79.8378 200.031 85.0008 201.561C92.6938 201.561 100.194 202.731 107.501 205.061C111.331 202.721 115.498 201.061 120.001 200.061C113.222 209.721 103.889 213.221 92.0008 210.561C82.5908 208.521 73.9238 204.851 66.0008 199.561C63.2328 195.991 60.3998 192.491 57.5008 189.061C57.0598 183.361 59.5598 181.691 65.0008 184.061C67.0008 185.731 69.0008 187.391 71.0008 189.061C73.1808 187.471 75.5138 186.141 78.0008 185.061C76.1978 180.521 75.3638 175.861 75.5008 171.061C79.7468 168.051 83.2468 168.881 86.0008 173.561C94.5998 174.261 102.933 176.091 111.001 179.061Z" fill="#FE7043"/>
<path fill-rule="evenodd" clip-rule="evenodd" d="M261.999 245.061C251.253 250.721 247.086 259.721 249.499 272.061C248.652 273.751 247.819 275.421 246.999 277.061C244.348 278.051 241.682 279.051 238.999 280.061C235.418 279.481 233.085 277.481 231.999 274.061C230.473 270.791 229.807 267.291 229.999 263.561C228.307 251.121 232.64 241.621 242.999 235.061C245.796 234.321 248.629 233.651 251.499 233.061C255.894 234.421 260.394 235.261 264.999 235.561C268.194 240.101 267.194 243.261 261.999 245.061Z" fill="#BB141C"/>
<path fill-rule="evenodd" clip-rule="evenodd" d="M243.001 235.061C232.642 241.621 228.309 251.121 230.001 263.561C229.809 267.291 230.475 270.791 232.001 274.061C224.081 275.171 216.081 276.001 208.001 276.561C199.203 278.761 192.536 283.591 188.001 291.061C184.201 293.521 181.534 296.861 180.001 301.061C167.91 279.171 164.243 255.841 169.001 231.061C172.126 228.331 175.459 225.831 179.001 223.561C201.832 219.631 223.165 223.471 243.001 235.061Z" fill="#FEB74E"/>
<path fill-rule="evenodd" clip-rule="evenodd" d="M232 233.061C233.373 232.901 234.707 233.071 236 233.561C237.333 234.561 237.333 235.561 236 236.561C224.892 242.671 213.559 248.331 202 253.561C191.22 256.861 180.22 258.201 169 257.561C168.12 256.201 167.786 254.701 168 253.061C184.256 254.101 199.589 250.931 214 243.561C219.931 239.771 225.931 236.271 232 233.061Z" fill="#FFCA31"/>
<path fill-rule="evenodd" clip-rule="evenodd" d="M232 274.061C233.086 277.481 235.419 279.481 239 280.061C241.683 279.051 244.349 278.051 247 277.061C255.91 277.191 263.243 280.521 269 287.061C263.519 285.901 258.019 284.901 252.5 284.061C245.148 284.091 240.482 287.761 238.5 295.061C236.223 311.781 243.389 318.621 260 315.561C262.124 314.441 263.957 312.941 265.5 311.061C268.031 305.971 269.865 300.631 271 295.061C273.385 296.221 275.719 297.221 278 298.061C279.997 303.681 280.33 309.341 279 315.061C275.764 317.841 272.764 320.841 270 324.061C263.558 329.111 256.225 332.281 248 333.561C239.333 334.231 230.667 334.231 222 333.561C215.322 332.811 208.989 330.971 203 328.061C193.909 321.641 186.575 313.641 181 304.061C182.052 304.211 183.052 304.041 184 303.561C185.85 301.541 187.85 299.711 190 298.061C189.384 306.661 192.717 313.491 200 318.561C210.165 320.391 217.332 316.561 221.5 307.061C222.922 304.531 223.255 301.861 222.5 299.061C220.639 296.671 219.306 294.011 218.5 291.061C217.667 289.561 216.5 288.391 215 287.561C205.374 284.701 196.374 285.861 188 291.061C192.535 283.591 199.202 278.761 208 276.561C216.08 276.001 224.08 275.171 232 274.061Z" fill="#F8F7F6"/>
<path fill-rule="evenodd" clip-rule="evenodd" d="M269.001 287.061C272.556 289.761 276.39 292.091 280.501 294.061C281.411 296.501 280.577 297.841 278.001 298.061C275.72 297.221 273.386 296.221 271.001 295.061C269.866 300.631 268.032 305.971 265.501 311.061C263.958 312.941 262.125 314.441 260.001 315.561C243.39 318.621 236.224 311.781 238.501 295.061C240.483 287.761 245.149 284.091 252.501 284.061C258.02 284.901 263.52 285.901 269.001 287.061Z" fill="#070707"/>
<path fill-rule="evenodd" clip-rule="evenodd" d="M181 304.061C180.39 303.171 180.057 302.171 180 301.061C181.533 296.861 184.2 293.521 188 291.061C196.374 285.861 205.374 284.701 215 287.561C216.5 288.391 217.667 289.561 218.5 291.061C219.306 294.011 220.639 296.671 222.5 299.061C223.255 301.861 222.922 304.531 221.5 307.061C217.332 316.561 210.165 320.391 200 318.561C192.717 313.491 189.384 306.661 190 298.061C187.85 299.711 185.85 301.541 184 303.561C183.052 304.041 182.052 304.211 181 304.061Z" fill="#080807"/>
<path fill-rule="evenodd" clip-rule="evenodd" d="M247 288.061C249.222 287.741 251.056 288.401 252.5 290.061C255.008 297.531 252.508 300.701 245 299.561C242.293 297.701 241.459 295.201 242.5 292.061C244.167 290.831 245.667 289.491 247 288.061Z" fill="#F2F2F2"/>
<path fill-rule="evenodd" clip-rule="evenodd" d="M209 291.061C215.695 291.441 217.528 294.771 214.5 301.061C209.999 305.481 206.832 304.641 205 298.561C205.444 295.501 206.777 293.001 209 291.061Z" fill="#F3F3F3"/>
<path fill-rule="evenodd" clip-rule="evenodd" d="M270 324.061C272.764 320.841 275.764 317.841 279 315.061C286.368 311.201 293.368 306.701 300 301.561C302.634 300.641 303.801 301.471 303.5 304.061C293.321 312.401 282.154 319.071 270 324.061Z" fill="#FFCA32"/>
<path fill-rule="evenodd" clip-rule="evenodd" d="M262 245.061C265.223 246.921 268.39 248.921 271.5 251.061C281.265 262.161 290.265 273.821 298.5 286.061C308.004 302.081 312.838 319.411 313 338.061C297.868 342.181 282.534 346.011 267 349.561C254.335 351.041 242.001 349.701 230 345.561C223.158 341.641 216.158 337.971 209 334.561C206.794 332.521 204.794 330.361 203 328.061C208.989 330.971 215.322 332.811 222 333.561C230.667 334.231 239.333 334.231 248 333.561C256.225 332.281 263.558 329.111 270 324.061C282.154 319.071 293.321 312.401 303.5 304.061C303.801 301.471 302.634 300.641 300 301.561C293.368 306.701 286.368 311.201 279 315.061C280.33 309.341 279.997 303.681 278 298.061C280.576 297.841 281.41 296.501 280.5 294.061C276.389 292.091 272.555 289.761 269 287.061C263.243 280.521 255.91 277.191 247 277.061C247.82 275.421 248.653 273.751 249.5 272.061C247.087 259.721 251.254 250.721 262 245.061Z" fill="#FEB84D"/>
<path fill-rule="evenodd" clip-rule="evenodd" d="M239 319.061C240.333 319.061 241.667 319.061 243 319.061C242.643 325.591 239.31 328.761 233 328.561C230.85 327.151 228.516 326.321 226 326.061C226 324.731 226 323.391 226 322.061C229.173 321.961 232.173 322.631 235 324.061C237.08 322.981 238.413 321.311 239 319.061Z" fill="#0D0D0D"/>
</svg>
