<svg width="500" height="500" viewBox="0 0 500 500" fill="none" xmlns="http://www.w3.org/2000/svg">
<path fill-rule="evenodd" clip-rule="evenodd" d="M272 53.0614C272.17 58.0614 269.83 61.2314 265 62.5614C254.33 62.9514 243.66 63.4514 233 64.0614C225.51 64.1614 218.35 62.8314 211.5 60.0614C210.82 57.6714 209.99 55.3314 209 53.0614C207.62 53.5614 206.95 54.5614 207 56.0614C208.69 62.5914 213.02 65.7614 220 65.5614C223.96 66.3914 227.96 66.8914 232 67.0614C242.99 66.3814 253.99 65.8814 265 65.5614C269.83 64.2114 273.17 61.3714 275 57.0614C275.28 57.8514 275.78 58.5214 276.5 59.0614C277.21 65.7214 277.71 72.3814 278 79.0614C274.76 79.1514 271.76 78.4814 269 77.0614C269.49 79.5114 268.66 81.1814 266.5 82.0614C265.17 80.5614 263.67 79.2314 262 78.0614C260.55 79.4114 259.88 81.0814 260 83.0614C258.63 83.2214 257.29 83.0514 256 82.5614C252.69 77.8414 249.69 78.0014 247 83.0614C245.21 81.6814 243.21 80.6814 241 80.0614C239.67 81.3914 238.33 82.7314 237 84.0614C235.02 82.5814 233.18 80.9114 231.5 79.0614C226.8 83.3914 222.8 82.7214 219.5 77.0614C214.67 81.6214 211.51 80.6214 210 74.0614C208.49 75.6414 206.82 76.9814 205 78.0614C204.38 77.9514 203.88 77.6214 203.5 77.0614C202.42 68.2214 203.09 59.5514 205.5 51.0614C213.34 41.6714 223.34 38.0014 235.5 40.0614C246.69 39.0314 257.19 41.2014 267 46.5614C269.04 48.4914 270.71 50.6514 272 53.0614Z" fill="#FC3736"/>
<path fill-rule="evenodd" clip-rule="evenodd" d="M272.001 53.0615C273.471 54.0015 274.471 55.3315 275.001 57.0615C273.171 61.3715 269.831 64.2115 265.001 65.5615C253.991 65.8815 242.991 66.3815 232.001 67.0615C227.961 66.8915 223.961 66.3915 220.001 65.5615C213.021 65.7615 208.691 62.5915 207.001 56.0615C206.951 54.5615 207.621 53.5615 209.001 53.0615C209.991 55.3315 210.821 57.6715 211.501 60.0615C218.351 62.8315 225.511 64.1615 233.001 64.0615C243.661 63.4515 254.331 62.9515 265.001 62.5615C269.831 61.2315 272.171 58.0615 272.001 53.0615Z" fill="#BB101A"/>
<path fill-rule="evenodd" clip-rule="evenodd" d="M278 79.0615C277.41 79.7115 276.74 80.3815 276 81.0615C281.99 98.7115 288.82 116.042 296.5 133.062C301.22 151.882 307.55 170.222 315.5 188.062C319.05 202.852 322.21 217.692 325 232.562C324.97 233.632 324.64 234.462 324 235.062C320.14 233.432 316.14 232.092 312 231.062C310.58 230.112 308.91 229.782 307 230.062C301.94 213.252 297.44 196.252 293.5 179.062C288.49 167.352 283.49 155.682 278.5 144.062C276.89 143.172 275.39 142.172 274 141.062C271.55 140.092 268.89 139.752 266 140.062C259 140.452 252 140.792 245 141.062C241.36 141.672 237.7 142.012 234 142.062C227.15 141.742 220.48 142.072 214 143.062C212.3 142.902 210.63 143.072 209 143.562C207.11 145.942 205.44 148.442 204 151.062C201.94 152.972 200.44 155.302 199.5 158.062C192.01 182.682 184.85 207.352 178 232.062C174.79 231.752 171.79 232.082 169 233.062C164.82 234.772 160.82 236.772 157 239.062C155.93 237.852 155.26 236.352 155 234.562C156.58 226.742 158.08 218.912 159.5 211.062C166.79 190.532 174.45 170.192 182.5 150.062C186.25 128.692 192.92 108.352 202.5 89.0615C203.49 85.4115 204.33 81.7515 205 78.0615C206.82 76.9815 208.49 75.6415 210 74.0615C211.51 80.6215 214.67 81.6215 219.5 77.0615C222.8 82.7215 226.8 83.3915 231.5 79.0615C233.18 80.9115 235.02 82.5815 237 84.0615C238.33 82.7315 239.67 81.3915 241 80.0615C243.21 80.6815 245.21 81.6815 247 83.0615C249.69 78.0015 252.69 77.8415 256 82.5615C257.29 83.0515 258.63 83.2215 260 83.0615C259.88 81.0815 260.55 79.4115 262 78.0615C263.67 79.2315 265.17 80.5615 266.5 82.0615C268.66 81.1815 269.49 79.5115 269 77.0615C271.76 78.4815 274.76 79.1515 278 79.0615Z" fill="#DCE6E5"/>
<path fill-rule="evenodd" clip-rule="evenodd" d="M266 140.062C268.02 153.492 270.68 166.832 274 180.062C273.96 180.982 273.62 181.642 273 182.062C263.15 177.212 252.81 174.552 242 174.062C242 163.392 242 152.732 242 142.062C243.29 142.302 244.29 141.962 245 141.062C252 140.792 259 140.452 266 140.062Z" fill="#7A3A0B"/>
<path fill-rule="evenodd" clip-rule="evenodd" d="M266 140.061C268.89 139.751 271.55 140.091 274 141.061C273.38 141.481 273.04 142.141 273 143.061C275.89 158.291 279.56 173.291 284 188.061C280.14 186.301 276.47 184.301 273 182.061C273.62 181.641 273.96 180.981 274 180.061C270.68 166.831 268.02 153.491 266 140.061Z" fill="#8C6242"/>
<path fill-rule="evenodd" clip-rule="evenodd" d="M245 141.062C244.29 141.962 243.29 142.302 242 142.062C242 152.732 242 163.392 242 174.062C239.33 174.062 236.67 174.062 234 174.062C234 163.392 234 152.732 234 142.062C237.7 142.012 241.36 141.672 245 141.062Z" fill="#8A603E"/>
<path fill-rule="evenodd" clip-rule="evenodd" d="M214 143.062C212.69 157.032 210.69 170.872 208 184.562C208.23 184.962 208.56 185.132 209 185.062C205.36 187.692 201.69 190.362 198 193.062C200.17 179.382 202.5 165.712 205 152.062C204.88 151.452 204.54 151.122 204 151.062C205.44 148.442 207.11 145.942 209 143.562C210.63 143.072 212.3 142.902 214 143.062Z" fill="#8B6140"/>
<path fill-rule="evenodd" clip-rule="evenodd" d="M234 142.061C234 152.731 234 163.391 234 174.061C232.21 174.871 230.21 175.371 228 175.561C221.61 178.751 215.28 181.921 209 185.061C208.56 185.131 208.23 184.961 208 184.561C210.69 170.871 212.69 157.031 214 143.061C220.48 142.071 227.15 141.741 234 142.061Z" fill="#7A3A0B"/>
<path fill-rule="evenodd" clip-rule="evenodd" d="M274 141.062C275.39 142.172 276.89 143.172 278.5 144.062C283.49 155.682 288.49 167.352 293.5 179.062C297.44 196.252 301.94 213.252 307 230.062C308.91 229.782 310.58 230.112 312 231.062C310.21 230.772 308.55 231.112 307 232.062C308.48 236.602 309.15 241.272 309 246.062C301.41 249.062 293.41 250.892 285 251.562C263.83 252.072 242.67 252.572 221.5 253.062C206.2 253.212 191.03 252.212 176 250.062C175.29 249.162 174.29 248.822 173 249.062C173.31 243.452 174.65 238.122 177 233.062C174.33 233.062 171.67 233.062 169 233.062C171.79 232.082 174.79 231.752 178 232.062C184.85 207.352 192.01 182.682 199.5 158.062C200.44 155.302 201.94 152.972 204 151.062C204.54 151.122 204.88 151.452 205 152.062C202.5 165.712 200.17 179.382 198 193.062C198 193.392 198 193.732 198 194.062C194.05 196.182 190.88 199.182 188.5 203.062C187.83 204.732 187.83 206.392 188.5 208.062C189.17 208.812 190 209.152 191 209.062C190.59 214.252 191.26 219.252 193 224.062C191.5 231.052 190.33 238.052 189.5 245.062C192.17 247.732 194.83 247.732 197.5 245.062C197.77 240.482 198.6 236.152 200 232.062C217.94 242.542 237.28 246.382 258 243.562C265.41 242.422 272.41 240.092 279 236.562C282.25 233.812 284.92 230.652 287 227.062C289.06 231.702 291.22 236.372 293.5 241.062C295.23 243.162 297.23 243.492 299.5 242.062C297.09 231.932 294.92 221.602 293 211.062C293 209.392 293 207.732 293 206.062C294.33 206.062 295.67 206.062 297 206.062C297.15 205.012 296.98 204.012 296.5 203.062C294.69 201.582 292.85 200.252 291 199.062C290.57 194.592 288.23 190.932 284 188.062C279.56 173.292 275.89 158.292 273 143.062C273.04 142.142 273.38 141.482 274 141.062Z" fill="#7B3A0D"/>
<path fill-rule="evenodd" clip-rule="evenodd" d="M290.999 199.062C292.849 200.252 294.689 201.582 296.499 203.062C296.979 204.012 297.149 205.012 296.999 206.062C295.669 206.062 294.329 206.062 292.999 206.062C290.469 205.512 288.139 204.512 285.999 203.062C284.619 209.822 282.119 216.152 278.499 222.062C270.009 227.532 261.669 227.202 253.499 221.062C247.269 208.992 249.439 198.822 259.999 190.562C263.329 189.892 266.669 189.892 269.999 190.562C274.549 192.302 279.219 193.632 283.999 194.562C286.699 195.572 289.039 197.072 290.999 199.062Z" fill="#080808"/>
<path fill-rule="evenodd" clip-rule="evenodd" d="M260 195.061C266.17 193.731 268.34 196.071 266.5 202.061C266.05 207.501 263.22 209.331 258 207.561C253.58 202.511 254.24 198.351 260 195.061Z" fill="#F4F4F4"/>
<path fill-rule="evenodd" clip-rule="evenodd" d="M191.001 209.062C190.001 209.152 189.171 208.812 188.501 208.062C187.831 206.392 187.831 204.732 188.501 203.062C190.881 199.182 194.051 196.182 198.001 194.062C207.891 188.952 217.891 188.792 228.001 193.562C229.311 197.642 231.151 201.472 233.501 205.062C232.331 221.892 223.501 228.392 207.001 224.562C200.051 219.072 197.711 212.072 200.001 203.562C199.331 202.892 198.671 202.892 198.001 203.562C196.081 205.992 193.741 207.822 191.001 209.062Z" fill="#070707"/>
<path fill-rule="evenodd" clip-rule="evenodd" d="M219 196.062C223.89 195.452 226.56 197.612 227 202.562C226.21 206.642 223.87 209.472 220 211.062C217.1 209.592 215.43 207.262 215 204.062C215.79 201.142 217.13 198.472 219 196.062Z" fill="#F1F1F1"/>
<path fill-rule="evenodd" clip-rule="evenodd" d="M234 174.062C236.67 174.062 239.33 174.062 242 174.062C252.81 174.552 263.15 177.212 273 182.062C276.47 184.302 280.14 186.302 284 188.062C288.23 190.932 290.57 194.592 291 199.062C289.04 197.072 286.7 195.572 284 194.562C279.22 193.632 274.55 192.302 270 190.562C266.67 189.892 263.33 189.892 260 190.562C249.44 198.822 247.27 208.992 253.5 221.062C261.67 227.202 270.01 227.532 278.5 222.062C282.12 216.152 284.62 209.822 286 203.062C288.14 204.512 290.47 205.512 293 206.062C293 207.732 293 209.392 293 211.062C291.93 216.642 289.93 221.982 287 227.062C284.92 230.652 282.25 233.812 279 236.562C272.41 240.092 265.41 242.422 258 243.562C237.28 246.382 217.94 242.542 200 232.062C196.95 230.012 194.62 227.342 193 224.062C191.26 219.252 190.59 214.252 191 209.062C193.74 207.822 196.08 205.992 198 203.562C198.67 202.892 199.33 202.892 200 203.562C197.71 212.072 200.05 219.072 207 224.562C223.5 228.392 232.33 221.892 233.5 205.062C231.15 201.472 229.31 197.642 228 193.562C217.89 188.792 207.89 188.952 198 194.062C198 193.732 198 193.392 198 193.062C201.69 190.362 205.36 187.692 209 185.062C215.28 181.922 221.61 178.752 228 175.562C230.21 175.372 232.21 174.872 234 174.062Z" fill="#F8F7F6"/>
<path fill-rule="evenodd" clip-rule="evenodd" d="M293 211.062C294.92 221.602 297.09 231.932 299.5 242.062C297.23 243.492 295.23 243.162 293.5 241.062C291.22 236.372 289.06 231.702 287 227.062C289.93 221.982 291.93 216.642 293 211.062Z" fill="#8C6241"/>
<path fill-rule="evenodd" clip-rule="evenodd" d="M251 228.062C253.13 227.712 254.47 228.542 255 230.562C250.96 240.172 244.79 241.672 236.5 235.062C235.56 232.332 236.56 231.002 239.5 231.062C242.07 231.512 244.4 232.512 246.5 234.062C248.6 232.472 250.1 230.472 251 228.062Z" fill="#101010"/>
<path fill-rule="evenodd" clip-rule="evenodd" d="M193 224.062C194.62 227.342 196.95 230.012 200 232.062C198.6 236.152 197.77 240.482 197.5 245.062C194.83 247.732 192.17 247.732 189.5 245.062C190.33 238.052 191.5 231.052 193 224.062Z" fill="#8B6140"/>
<path fill-rule="evenodd" clip-rule="evenodd" d="M312 231.061C316.14 232.091 320.14 233.431 324 235.061C325.67 237.041 326.33 239.371 326 242.061C320.42 243.641 314.75 244.981 309 246.061C309.15 241.271 308.48 236.601 307 232.061C308.55 231.111 310.21 230.771 312 231.061Z" fill="#B9101A"/>
<path fill-rule="evenodd" clip-rule="evenodd" d="M169 233.062C171.67 233.062 174.33 233.062 177 233.062C174.65 238.122 173.31 243.452 173 249.062C174.29 248.822 175.29 249.162 176 250.062C172.34 249.612 168.67 249.112 165 248.562C161.76 246.772 158.43 245.272 155 244.062C154.87 242.012 155.53 240.342 157 239.062C160.82 236.772 164.82 234.772 169 233.062Z" fill="#B81219"/>
<path fill-rule="evenodd" clip-rule="evenodd" d="M326 242.062C328.27 243.752 328.6 245.922 327 248.562C318.27 252.562 309.27 255.562 300 257.562C258.65 260.902 217.32 260.572 176 256.562C169.38 255.042 162.71 253.712 156 252.562C154.93 251.822 154.26 250.822 154 249.562C154.73 247.792 155.07 245.962 155 244.062C158.43 245.272 161.76 246.772 165 248.562C168.67 249.112 172.34 249.612 176 250.062C191.03 252.212 206.2 253.212 221.5 253.062C242.67 252.572 263.83 252.072 285 251.562C293.41 250.892 301.41 249.062 309 246.062C314.75 244.982 320.42 243.642 326 242.062Z" fill="#FB3A37"/>
<path fill-rule="evenodd" clip-rule="evenodd" d="M328.001 275.062C325.061 276.362 322.731 278.362 321.001 281.062C320.951 282.562 321.621 283.562 323.001 284.062C324.121 282.932 325.461 282.262 327.001 282.062C327.241 290.812 326.581 299.482 325.001 308.062C320.811 308.512 316.811 309.682 313.001 311.562C276.411 315.362 239.741 316.022 203.001 313.562C187.971 311.392 172.971 308.892 158.001 306.062C155.891 298.722 154.231 291.392 153.001 284.062C153.001 281.392 153.001 278.732 153.001 276.062C152.671 269.032 153.001 262.032 154.001 255.062C165.881 257.962 177.881 260.132 190.001 261.562C225.011 264.572 260.011 264.572 295.001 261.562C306.371 260.402 317.031 257.232 327.001 252.062C328.001 259.702 328.331 267.362 328.001 275.062Z" fill="#FC3836"/>
<path fill-rule="evenodd" clip-rule="evenodd" d="M327.001 282.062C325.461 282.262 324.121 282.932 323.001 284.062C321.621 283.562 320.951 282.562 321.001 281.062C322.731 278.362 325.061 276.362 328.001 275.062C341.021 269.062 351.351 260.062 359.001 248.062C357.351 246.912 355.851 245.582 354.501 244.062C353.761 242.122 353.921 240.292 355.001 238.562C356.001 237.892 357.001 237.892 358.001 238.562C358.901 240.962 360.561 242.462 363.001 243.062C365.471 242.142 367.801 241.312 370.001 240.562C370.801 244.942 368.801 247.102 364.001 247.062C362.061 254.432 358.391 260.932 353.001 266.562C345.401 273.532 336.731 278.692 327.001 282.062Z" fill="#232323"/>
<path fill-rule="evenodd" clip-rule="evenodd" d="M180.001 268.062C183.951 268.762 187.951 269.262 192.001 269.562C197.731 275.282 197.061 280.282 190.001 284.562C187.171 285.812 184.501 287.312 182.001 289.062C184.921 296.302 190.251 299.302 198.001 298.062C197.191 288.912 201.021 282.912 209.501 280.062C210.941 280.122 212.271 280.452 213.501 281.062C214.171 283.392 214.171 285.732 213.501 288.062C211.391 290.632 209.051 292.962 206.501 295.062C206.021 296.012 205.851 297.012 206.001 298.062C210.791 297.672 214.791 295.672 218.001 292.062C218.731 288.312 219.731 284.642 221.001 281.062C219.081 280.252 217.081 279.752 215.001 279.562C214.051 278.842 213.881 278.012 214.501 277.062C216.891 276.422 219.391 276.422 222.001 277.062C221.681 273.392 223.351 271.722 227.001 272.062C227.001 273.732 227.001 275.392 227.001 277.062C229.421 276.752 231.761 277.092 234.001 278.062C231.191 279.352 228.361 280.692 225.501 282.062C224.081 286.992 223.751 291.992 224.501 297.062C224.851 298.742 225.851 299.742 227.501 300.062C229.161 299.082 230.821 298.082 232.501 297.062C233.771 292.692 235.931 288.862 239.001 285.562C241.671 284.892 244.331 284.892 247.001 285.562C247.651 288.752 248.481 291.922 249.501 295.062C254.421 297.322 257.591 295.822 259.001 290.562C253.141 288.422 252.471 285.092 257.001 280.562C261.771 279.152 264.101 280.992 264.001 286.062C266.451 284.172 269.121 282.832 272.001 282.062C271.491 287.082 270.831 292.082 270.001 297.062C277.581 297.152 282.251 293.482 284.001 286.062C282.771 285.282 281.441 284.782 280.001 284.562C279.051 283.842 278.881 283.012 279.501 282.062C285.681 281.092 289.181 277.422 290.001 271.062C290.821 270.172 291.821 269.842 293.001 270.062C293.211 272.482 292.871 274.812 292.001 277.062C294.661 277.822 297.321 278.492 300.001 279.062C300.891 279.882 301.221 280.882 301.001 282.062C292.021 279.192 287.681 282.352 288.001 291.562C288.001 294.152 289.001 296.152 291.001 297.562C294.691 298.012 298.351 297.842 302.001 297.062C301.941 299.612 300.611 301.112 298.001 301.562C295.001 302.232 292.001 302.232 289.001 301.562C286.521 299.922 284.191 298.082 282.001 296.062C281.121 297.322 280.121 298.492 279.001 299.562C266.571 305.292 262.571 301.792 267.001 289.062C265.441 288.212 263.941 288.552 262.501 290.062C260.821 293.942 258.321 297.112 255.001 299.562C251.711 300.502 248.711 300.002 246.001 298.062C242.961 303.132 238.961 304.132 234.001 301.062C227.081 306.102 221.921 304.772 218.501 297.062C212.881 303.152 206.381 304.492 199.001 301.062C188.421 304.852 181.251 301.522 177.501 291.062C176.111 290.012 174.611 289.842 173.001 290.562C170.161 294.232 167.161 297.732 164.001 301.062C162.121 299.872 161.621 298.202 162.501 296.062C166.751 289.222 171.251 282.552 176.001 276.062C175.671 275.732 175.331 275.392 175.001 275.062C172.891 276.202 170.731 277.202 168.501 278.062C165.381 276.972 165.211 275.472 168.001 273.562C172.301 272.192 176.301 270.362 180.001 268.062Z" fill="#FCEEEE"/>
<path fill-rule="evenodd" clip-rule="evenodd" d="M182 273.062C184.69 272.902 187.35 273.062 190 273.562C191.16 276.282 190.49 278.612 188 280.562C184.88 281.432 181.88 282.602 179 284.062C178.67 283.562 178.33 283.062 178 282.562C179.25 279.292 180.58 276.132 182 273.062Z" fill="#FA3835"/>
<path fill-rule="evenodd" clip-rule="evenodd" d="M153 276.062C153 278.732 153 281.392 153 284.062C148.65 292.072 143.32 299.412 137 306.062C138.25 308.022 139.91 309.522 142 310.562C148.42 313.612 155.08 315.772 162 317.062C163.31 318.032 163.97 319.362 164 321.062C160.26 326.242 155.26 329.072 149 329.562C147.42 326.082 148.42 323.412 152 321.562C145.83 319.282 139.83 316.622 134 313.562C129.79 310.882 128.95 307.382 131.5 303.062C137.85 293.232 145.02 284.232 153 276.062Z" fill="#222323"/>
<path fill-rule="evenodd" clip-rule="evenodd" d="M209.999 284.062C211.069 284.812 211.239 285.812 210.499 287.062C209.169 288.392 207.829 289.732 206.499 291.062C205.679 287.722 206.839 285.392 209.999 284.062Z" fill="#F53D35"/>
<path fill-rule="evenodd" clip-rule="evenodd" d="M241.999 288.062C244.599 292.312 243.599 295.982 238.999 299.062C238.469 295.082 239.469 291.422 241.999 288.062Z" fill="#F8423A"/>
<path fill-rule="evenodd" clip-rule="evenodd" d="M323 315.062C317.37 316.492 312.04 318.492 307 321.062C282.99 321.642 258.99 322.642 235 324.062C222.92 323.622 210.92 322.452 199 320.562C191.67 320.062 184.34 319.892 177 320.062C176.89 319.442 176.56 318.942 176 318.562C171.4 317.092 166.74 315.932 162 315.062C161.35 313.752 160.68 312.422 160 311.062C160.67 310.732 161.33 310.392 162 310.062C178.97 313.092 195.97 315.592 213 317.562C247.08 318.912 281.08 317.912 315 314.562C317.78 312.302 320.78 311.802 324 313.062C323.64 313.742 323.3 314.412 323 315.062Z" fill="#F83A37"/>
<path fill-rule="evenodd" clip-rule="evenodd" d="M162 315.062C166.74 315.932 171.4 317.092 176 318.562C176.56 318.942 176.89 319.442 177 320.062C178.14 324.982 179.97 329.652 182.5 334.062C183.17 337.732 183.17 341.392 182.5 345.062C179.92 349.792 177.92 354.792 176.5 360.062C173.13 374.522 169.96 389.022 167 403.562C167.32 413.732 171.98 420.892 181 425.062C183.8 426.962 186.8 428.632 190 430.062C194.58 432.962 199.58 434.792 205 435.562C215.56 437.712 226.23 438.882 237 439.062C241.33 440.392 245.67 440.392 250 439.062C257.01 439.232 264.01 439.062 271 438.562C279.75 435.542 288.75 433.542 298 432.562C307.5 427.062 315 419.562 320.5 410.062C321.29 401.682 320.95 393.352 319.5 385.062C314.36 370.652 309.03 356.322 303.5 342.062C303.22 334.842 304.39 327.842 307 321.062C312.04 318.492 317.37 316.492 323 315.062C323.54 315.122 323.88 315.452 324 316.062C322.7 322.702 321.03 329.202 319 335.562C328.54 360.652 332.71 386.482 331.5 413.062C327.35 424.192 321.52 434.362 314 443.562C309 446.562 304 449.562 299 452.562C292.59 454.412 286.26 456.412 280 458.562C259.33 459.412 238.67 459.742 218 459.562C213.02 459.152 208.35 457.822 204 455.562C194.03 455.572 185.36 452.242 178 445.562C172.2 440.762 166.7 435.592 161.5 430.062C156.1 420.192 152.93 409.692 152 398.562C152.87 387.732 153.7 376.902 154.5 366.062C157.75 352.642 161.59 339.482 166 326.562C165.8 324.452 165.13 322.622 164 321.062C163.97 319.362 163.31 318.032 162 317.062C163.01 316.622 163.01 315.962 162 315.062Z" fill="#DEE7E6"/>
<path fill-rule="evenodd" clip-rule="evenodd" d="M190 430.062C186.8 428.632 183.8 426.962 181 425.062C180.94 420.692 181.11 416.032 181.5 411.062C184.13 392.852 187.79 374.852 192.5 357.062C193.03 345.382 192.86 333.722 192 322.062C200.56 323.312 204.23 328.312 203 337.062C199.93 363.442 195.26 389.612 189 415.562C190.4 420.432 190.74 425.262 190 430.062Z" fill="#8B6241"/>
<path fill-rule="evenodd" clip-rule="evenodd" d="M177 320.061C184.34 319.891 191.67 320.061 199 320.561C210.92 322.451 222.92 323.621 235 324.061C258.99 322.641 282.99 321.641 307 321.061C304.39 327.841 303.22 334.841 303.5 342.061C309.03 356.321 314.36 370.651 319.5 385.061C320.95 393.351 321.29 401.681 320.5 410.061C315 419.561 307.5 427.061 298 432.561C288.75 433.541 279.75 435.541 271 438.561C264.01 439.061 257.01 439.231 250 439.061C249.56 439.131 249.23 438.961 249 438.561C250.77 436.591 251.77 434.261 252 431.561C246.11 397.671 242.94 363.501 242.5 329.061C239.04 326.481 236.21 327.151 234 331.061C234.57 335.151 234.57 339.321 234 343.561C235.22 374.151 237.39 404.651 240.5 435.061C242.27 435.861 243.77 437.031 245 438.561C242.35 439.061 239.69 439.221 237 439.061C226.23 438.881 215.56 437.711 205 435.561C199.58 434.791 194.58 432.961 190 430.061C190.74 425.261 190.4 420.431 189 415.561C195.26 389.611 199.93 363.441 203 337.061C204.23 328.311 200.56 323.311 192 322.061C192.86 333.721 193.03 345.381 192.5 357.061C187.79 374.851 184.13 392.851 181.5 411.061C181.11 416.031 180.94 420.691 181 425.061C171.98 420.891 167.32 413.731 167 403.561C169.96 389.021 173.13 374.521 176.5 360.061C177.92 354.791 179.92 349.791 182.5 345.061C183.17 341.391 183.17 337.731 182.5 334.061C179.97 329.651 178.14 324.981 177 320.061Z" fill="#7A3A0A"/>
<path fill-rule="evenodd" clip-rule="evenodd" d="M286 324.062C288.63 324.652 291.29 324.982 294 325.062C294.41 330.602 293.58 335.932 291.5 341.062C290.87 358.272 292.53 375.272 296.5 392.062C299.01 401.942 301.51 411.782 304 421.562C302.99 425.902 300.49 427.062 296.5 425.062C287.71 395.662 283.04 365.662 282.5 335.062C283.35 331.212 284.51 327.542 286 324.062Z" fill="#8B6241"/>
<path fill-rule="evenodd" clip-rule="evenodd" d="M250 439.062C245.67 440.392 241.33 440.392 237 439.062C239.69 439.222 242.35 439.062 245 438.562C243.77 437.032 242.27 435.862 240.5 435.062C237.39 404.652 235.22 374.152 234 343.562C234.57 339.322 234.57 335.152 234 331.062C236.21 327.152 239.04 326.482 242.5 329.062C242.94 363.502 246.11 397.672 252 431.562C251.77 434.262 250.77 436.592 249 438.562C249.23 438.962 249.56 439.132 250 439.062Z" fill="#8B6140"/>
</svg>
