<svg width="500" height="500" viewBox="0 0 500 500" fill="none" xmlns="http://www.w3.org/2000/svg">
<path fill-rule="evenodd" clip-rule="evenodd" d="M279.001 331.062C275.491 331.462 272.161 332.132 269.001 333.062C255.041 334.362 241.041 334.362 227.001 333.062C222.101 332.352 217.101 331.682 212.001 331.062C195.161 328.022 179.161 322.522 164.001 314.562C158.581 311.142 153.741 306.972 149.501 302.062C141.981 317.252 132.481 331.082 121.001 343.562C105.021 353.332 87.6908 357.332 69.0008 355.562C46.2508 346.912 36.0908 330.412 38.5008 306.062C41.5508 297.612 45.8908 289.952 51.5008 283.062C64.8008 271.432 77.8008 259.432 90.5008 247.062C111.801 221.112 132.141 194.452 151.501 167.062C156.631 160.922 162.131 155.092 168.001 149.562C172.971 146.722 177.971 146.562 183.001 149.062C188.231 145.992 193.561 143.162 199.001 140.562C213.111 136.762 227.441 134.262 242.001 133.062C262.191 133.672 281.861 137.172 301.001 143.562C307.401 146.802 313.401 150.632 319.001 155.062C326.241 155.042 332.911 156.872 339.001 160.562C356.591 181.492 374.931 201.822 394.001 221.562C404.791 229.682 416.131 237.012 428.001 243.562C438.591 250.822 447.091 259.982 453.501 271.062C465.101 290.862 465.431 310.862 454.501 331.062C450.611 334.952 446.781 338.782 443.001 342.562C427.151 347.992 411.151 348.322 395.001 343.562C373.941 329.642 358.941 310.812 350.001 287.062C339.841 305.372 324.841 318.202 305.001 325.562C296.411 327.682 287.741 329.522 279.001 331.062Z" fill="#76BEFE"/>
<path fill-rule="evenodd" clip-rule="evenodd" d="M236 139.061C259.3 138.881 281.63 143.381 303 152.561C311.18 158.151 319.18 163.981 327 170.061C327.81 167.791 328.31 165.461 328.5 163.061C337.94 168.631 346.28 175.631 353.5 184.061C363.53 198.761 375.03 212.261 388 224.561C399.72 233.281 411.72 241.621 424 249.561C435.97 257.871 445.47 268.371 452.5 281.061C454.15 287.471 455.32 293.971 456 300.561C455.94 314.211 450.94 325.551 441 334.561C427.82 340.781 414.15 341.781 400 337.561C387.62 329.521 376.79 319.681 367.5 308.061C362.97 298.141 358.64 288.141 354.5 278.061C356.42 271.261 357.75 264.261 358.5 257.061C359.83 244.881 358 233.211 353 222.061C351.45 221.111 349.79 220.771 348 221.061C356.09 248.611 351.59 273.941 334.5 297.061C321.47 310.661 305.64 319.161 287 322.561C274.02 323.981 261.02 325.151 248 326.061C222.78 326.921 198.78 322.081 176 311.561C159.82 303.371 150.66 290.201 148.5 272.061C147.31 253.941 148.14 235.941 151 218.061C148.6 217.951 146.76 218.951 145.5 221.061C143.21 226.881 141.55 232.881 140.5 239.061C139.83 249.731 139.83 260.391 140.5 271.061C142.19 278.461 143.85 285.801 145.5 293.061C138.72 309.131 129.55 323.631 118 336.561C103.56 346.761 87.5598 350.431 69.9998 347.561C63.4098 344.351 57.2498 340.521 51.4998 336.061C42.8098 324.321 42.1398 311.991 49.4998 299.061C52.1698 295.061 54.8298 291.061 57.4998 287.061C71.0798 275.151 84.4198 262.821 97.4998 250.061C117.14 226.111 135.8 201.441 153.5 176.061C158.93 168.631 165.09 161.801 172 155.561C177.65 154.571 178.15 155.411 173.5 158.061C171.01 160.971 170.67 163.971 172.5 167.061C183.68 156.551 196.51 148.721 211 143.561C219.49 142.041 227.82 140.541 236 139.061Z" fill="#FBFBFB"/>
<path fill-rule="evenodd" clip-rule="evenodd" d="M196 157.062C202.64 156.372 205.64 159.372 205 166.062C204.74 169.872 203.9 173.542 202.5 177.062C194.94 183.532 191.1 181.702 191 171.562C190.83 166.072 192.5 161.242 196 157.062Z" fill="#9BEBFE"/>
<path fill-rule="evenodd" clip-rule="evenodd" d="M292 159.062C295.96 158.632 299.13 159.962 301.5 163.062C302.17 167.732 302.17 172.392 301.5 177.062C296.82 183.872 292.49 183.542 288.5 176.062C287.08 169.732 288.24 164.062 292 159.062Z" fill="#9BEBFE"/>
<path fill-rule="evenodd" clip-rule="evenodd" d="M262.999 171.062C267.849 171.082 270.179 173.582 269.999 178.562C270.169 183.392 267.829 186.062 262.999 186.562C259.999 187.232 256.999 187.232 253.999 186.562C252.349 184.902 250.349 184.072 247.999 184.062C245.019 185.112 242.019 186.282 238.999 187.562C233.939 188.572 229.109 188.072 224.499 186.062C221.559 182.682 221.229 179.012 223.499 175.062C225.169 173.732 226.829 173.732 228.499 175.062C228.829 177.412 228.669 179.742 227.999 182.062C231.679 182.232 235.349 182.062 238.999 181.562C241.709 179.692 244.709 178.862 247.999 179.062C253.199 180.532 258.529 181.192 263.999 181.062C264.279 178.272 263.609 175.772 261.999 173.562C262.239 172.662 262.579 171.822 262.999 171.062Z" fill="#7ABFFE"/>
<path fill-rule="evenodd" clip-rule="evenodd" d="M175.001 178.062C178.051 178.602 181.051 179.432 184.001 180.562C185.731 181.952 187.061 183.622 188.001 185.562C187.741 186.822 187.071 187.822 186.001 188.562C179.461 190.542 172.791 191.212 166.001 190.562C161.101 187.742 160.771 184.402 165.001 180.562C168.451 179.682 171.791 178.842 175.001 178.062Z" fill="#FEE3EE"/>
<path fill-rule="evenodd" clip-rule="evenodd" d="M324.999 247.061C325.809 247.991 326.649 248.991 327.499 250.061C332.249 267.821 327.409 282.321 312.999 293.561C291.359 308.641 267.359 314.971 240.999 312.561C216.579 311.651 194.749 303.811 175.499 289.061C165.029 271.521 165.029 253.851 175.499 236.061C185.799 223.161 198.959 214.661 214.999 210.561C238.679 205.981 262.349 205.981 285.999 210.561C305.369 216.101 318.369 228.261 324.999 247.061Z" fill="#CCCCCC"/>
<path fill-rule="evenodd" clip-rule="evenodd" d="M175.001 259.061C174.001 259.151 173.171 258.811 172.501 258.061C171.831 255.391 171.831 252.731 172.501 250.061C175.571 245.491 179.401 241.821 184.001 239.061C192.311 233.901 201.311 231.401 211.001 231.561C218.191 231.731 224.361 234.231 229.501 239.061C230.671 243.731 232.671 248.061 235.501 252.061C235.671 270.891 226.331 281.231 207.501 283.061C196.781 281.031 190.121 274.691 187.501 264.061C187.151 259.221 186.981 254.561 187.001 250.061C184.181 252.381 181.521 254.881 179.001 257.561C177.761 258.351 176.421 258.851 175.001 259.061Z" fill="#050505"/>
<path fill-rule="evenodd" clip-rule="evenodd" d="M216 240.062C222.22 239.452 225.56 242.282 226 248.562C225.29 254.512 222.12 258.352 216.5 260.062C212.03 258.752 209.53 255.752 209 251.062C210.09 246.532 212.42 242.872 216 240.062Z" fill="#F6F6F6"/>
<path fill-rule="evenodd" clip-rule="evenodd" d="M312.001 238.062C315.771 241.792 320.111 244.792 325.001 247.062C325.671 251.062 324.001 252.732 320.001 252.062C315.981 251.222 312.321 249.552 309.001 247.062C308.271 256.402 305.441 265.072 300.501 273.062C293.381 279.852 284.881 282.012 275.001 279.562C271.141 278.382 267.641 276.552 264.501 274.062C258.581 262.022 258.581 250.022 264.501 238.062C270.161 230.412 277.661 227.912 287.001 230.562C295.461 232.752 303.791 235.252 312.001 238.062Z" fill="#050505"/>
<path fill-rule="evenodd" clip-rule="evenodd" d="M273 237.061C276.79 236.371 279.95 237.371 282.5 240.061C282.83 244.091 282.5 248.091 281.5 252.061C278.24 254.991 274.41 255.821 270 254.561C263.93 247.451 264.93 241.621 273 237.061Z" fill="#F6F6F6"/>
<path fill-rule="evenodd" clip-rule="evenodd" d="M312 238.062C303.79 235.252 295.46 232.752 287 230.562C277.66 227.912 270.16 230.412 264.5 238.062C258.58 250.022 258.58 262.022 264.5 274.062C267.64 276.552 271.14 278.382 275 279.562C284.88 282.012 293.38 279.852 300.5 273.062C305.44 265.072 308.27 256.402 309 247.062C312.32 249.552 315.98 251.222 320 252.062C320.17 258.732 320 265.402 319.5 272.062C318.85 275.532 317.35 278.532 315 281.062C304.4 290.202 292.4 297.032 279 301.562C261.74 303.952 244.41 304.622 227 303.562C208.2 300.242 192.03 292.082 178.5 279.062C176.36 272.582 175.2 265.912 175 259.062C176.42 258.852 177.76 258.352 179 257.562C181.52 254.882 184.18 252.382 187 250.062C186.98 254.562 187.15 259.222 187.5 264.062C190.12 274.692 196.78 281.032 207.5 283.062C226.33 281.232 235.67 270.892 235.5 252.062C232.67 248.062 230.67 243.732 229.5 239.062C224.36 234.232 218.19 231.732 211 231.562C201.31 231.402 192.31 233.902 184 239.062C183.56 239.132 183.23 238.962 183 238.562C188.62 232.422 195.28 227.752 203 224.562C233.43 213.982 264.09 213.312 295 222.562C298 225.062 301.34 227.062 305 228.562C308.58 231.392 310.92 234.562 312 238.062Z" fill="#F8F8F8"/>
<path fill-rule="evenodd" clip-rule="evenodd" d="M261 284.062C262.7 283.902 264.37 284.072 266 284.562C266.56 285.282 266.89 286.122 267 287.062C264.74 295.522 259.4 299.362 251 298.562C247.39 296.842 243.89 295.012 240.5 293.062C239.26 289.652 240.43 287.992 244 288.062C248.1 289.372 252.1 290.542 256 291.562C257.89 289.182 259.56 286.682 261 284.062Z" fill="#0D0D0D"/>
<path fill-rule="evenodd" clip-rule="evenodd" d="M279 331.062C280 332.242 280.84 333.582 281.5 335.062C282 340.382 282.17 345.722 282 351.062C285.73 349.952 289.56 349.292 293.5 349.062C301.14 348.362 304.14 351.692 302.5 359.062C301.39 361.372 299.56 362.872 297 363.562C290.33 364.232 283.67 364.232 277 363.562C275.12 362.022 273.62 360.182 272.5 358.062C269.54 349.982 268.38 341.652 269 333.062C272.16 332.132 275.49 331.462 279 331.062Z" fill="#FAFBFC"/>
<path fill-rule="evenodd" clip-rule="evenodd" d="M211.999 331.062C217.099 331.682 222.099 332.352 226.999 333.062C226.619 342.852 225.449 352.522 223.499 362.062C221.419 363.682 219.249 365.182 216.999 366.562C210.219 367.482 203.559 367.152 196.999 365.562C193.389 362.242 193.059 358.582 195.999 354.562C201.209 353.082 206.539 352.242 211.999 352.062C211.999 345.062 211.999 338.062 211.999 331.062Z" fill="#FBFBFC"/>
</svg>
