<svg width="500" height="500" viewBox="0 0 500 500" fill="none" xmlns="http://www.w3.org/2000/svg">
<path fill-rule="evenodd" clip-rule="evenodd" d="M316.999 132.062C313.669 131.782 310.669 132.442 307.999 134.062C302.649 135.122 297.319 136.292 291.999 137.562C272.669 138.232 253.329 138.232 233.999 137.562C225.109 135.692 216.109 134.692 206.999 134.562C200.169 133.222 193.499 131.392 186.999 129.062C184.599 129.112 182.259 128.782 179.999 128.062C177.379 127.532 174.879 126.532 172.499 125.062C169.649 114.812 169.319 104.482 171.499 94.0615C174.749 86.5215 180.249 81.3515 187.999 78.5615C207.859 75.5315 227.859 73.7015 247.999 73.0615C263.599 74.9915 279.269 77.1615 294.999 79.5615C305.139 82.4115 314.469 86.7415 322.999 92.5615C325.769 94.3215 327.269 96.8215 327.499 100.062C328.169 107.732 328.169 115.392 327.499 123.062C325.849 128.292 322.349 131.292 316.999 132.062Z" fill="#4E7D40"/>
<path fill-rule="evenodd" clip-rule="evenodd" d="M248 84.0613C252.97 88.2013 257.47 92.8613 261.5 98.0613C262.95 100.631 264.12 103.301 265 106.061C253.92 106.371 242.92 106.041 232 105.061C226.27 99.7913 221.6 93.6213 218 86.5613C218.24 85.6613 218.58 84.8213 219 84.0613C228.57 82.7413 238.24 82.7413 248 84.0613Z" fill="#E5E5E5"/>
<path fill-rule="evenodd" clip-rule="evenodd" d="M248 84.0614C265.65 83.7214 282.99 85.8914 300 90.5614C304.25 92.1914 308.25 94.1914 312 96.5614C307.47 100.741 302.14 103.411 296 104.561C289.41 105.031 282.91 105.871 276.5 107.061C272.64 106.881 268.81 106.551 265 106.061C264.12 103.301 262.95 100.631 261.5 98.0614C257.47 92.8614 252.97 88.2014 248 84.0614Z" fill="#2CAA5E"/>
<path fill-rule="evenodd" clip-rule="evenodd" d="M218.999 84.0615C218.579 84.8215 218.239 85.6615 217.999 86.5615C221.599 93.6215 226.269 99.7915 231.999 105.062C220.989 105.062 209.989 104.562 198.999 103.562C192.999 101.912 187.169 99.7415 181.499 97.0615C181.179 95.6515 181.519 94.3215 182.499 93.0615C185.329 90.8915 188.169 88.7315 190.999 86.5615C200.319 85.4915 209.649 84.6615 218.999 84.0615Z" fill="#2CAA5D"/>
<path fill-rule="evenodd" clip-rule="evenodd" d="M316.999 103.062C318.619 104.152 319.449 105.822 319.499 108.062C320.329 112.762 320.159 117.432 318.999 122.062C309.689 124.222 300.359 126.392 290.999 128.562C271.999 129.232 252.999 129.232 233.999 128.562C225.109 126.632 216.109 125.632 206.999 125.562C199.079 123.102 191.079 120.932 182.999 119.062C179.219 115.482 178.219 111.152 179.999 106.062C186.779 110.052 194.119 112.222 201.999 112.562C224.969 115.002 247.969 116.832 270.999 118.062C279.559 116.242 288.229 114.742 296.999 113.562C302.329 111.562 307.669 109.562 312.999 107.562C314.539 106.192 315.869 104.692 316.999 103.062Z" fill="#2CAA5D"/>
<path fill-rule="evenodd" clip-rule="evenodd" d="M180 128.062C182.26 128.782 184.6 129.112 187 129.062C179.21 150.972 170.04 172.312 159.5 193.062C153.13 213.292 146.63 233.462 140 253.562C142.98 256.572 146.65 258.232 151 258.562C167.94 262.502 185.1 265.342 202.5 267.062C224.32 266.302 246.16 265.802 268 265.562C271.98 263.892 275.98 262.722 280 262.062C281 262.062 282 262.062 283 262.062C302.02 259.492 320.69 255.832 339 251.062C340.54 250.862 341.88 250.192 343 249.062C344.7 250.372 346.37 250.372 348 249.062C347.93 249.502 348.1 249.832 348.5 250.062C352.16 248.052 356 246.552 360 245.562C356.67 234.072 351.84 223.242 345.5 213.062C342.6 217.052 341.77 216.882 343 212.562C342.49 210.732 341.66 210.572 340.5 212.062C339.56 209.212 340.06 206.712 342 204.562C331.43 182.252 321.26 159.752 311.5 137.062C311.08 135.132 309.91 134.132 308 134.062C310.67 132.442 313.67 131.782 317 132.062C318 131.972 318.83 132.312 319.5 133.062C331 160.392 344.33 186.722 359.5 212.062C363.11 219.612 366.44 227.282 369.5 235.062C371.94 236.592 373.94 238.592 375.5 241.062C378.56 248.912 381.23 256.912 383.5 265.062C384.34 272.132 384.01 279.132 382.5 286.062C379.76 293.072 376.42 299.742 372.5 306.062C361.78 334.502 350.78 362.842 339.5 391.062C335.53 398.522 331.37 405.862 327 413.062C325.16 414.482 323.16 415.652 321 416.562C313.45 418.702 305.78 420.372 298 421.562C271.49 423.132 244.99 424.632 218.5 426.062C206.22 425.402 194.06 423.902 182 421.562C180.22 417.562 177.72 414.062 174.5 411.062C164.09 389.902 153.42 368.902 142.5 348.062C137.22 336.512 132.22 324.842 127.5 313.062C125.01 309.292 122.35 305.632 119.5 302.062C118.95 292.312 117.78 282.642 116 273.062C116.1 267.782 117.27 262.782 119.5 258.062C123.39 256.182 126.72 253.512 129.5 250.062C135.04 230.782 141.37 211.782 148.5 193.062C158.32 173.752 167.32 154.082 175.5 134.062C176.31 131.382 177.81 129.382 180 128.062Z" fill="#E1ECBD"/>
<path fill-rule="evenodd" clip-rule="evenodd" d="M187 129.062C193.5 131.392 200.17 133.222 207 134.562C216.11 134.692 225.11 135.692 234 137.562C253.33 138.232 272.67 138.232 292 137.562C297.32 136.292 302.65 135.122 308 134.062C309.91 134.132 311.08 135.132 311.5 137.062C321.26 159.752 331.43 182.252 342 204.562C340.06 206.712 339.56 209.212 340.5 212.062C341.66 210.572 342.49 210.732 343 212.562C341.77 216.882 342.6 217.052 345.5 213.062C351.84 223.242 356.67 234.072 360 245.562C356 246.552 352.16 248.052 348.5 250.062C348.1 249.832 347.93 249.502 348 249.062C348.57 245.352 349.9 242.022 352 239.062C349.28 234.302 346.61 229.472 344 224.562C333.34 222.222 328.84 226.392 330.5 237.062C331.69 239.182 332.36 241.522 332.5 244.062C333.51 244.902 334.68 245.232 336 245.062C335.52 247.872 336.52 249.872 339 251.062C320.69 255.832 302.02 259.492 283 262.062C283.91 260.822 284.08 259.492 283.5 258.062C281.33 257.312 279.16 256.472 277 255.562C278.5 253.392 278 251.892 275.5 251.062C272.36 253.632 269.03 255.972 265.5 258.062C262.86 262.502 264.02 264.332 269 263.562C272.19 259.492 275.86 258.992 280 262.062C275.98 262.722 271.98 263.892 268 265.562C246.16 265.802 224.32 266.302 202.5 267.062C185.1 265.342 167.94 262.502 151 258.562C146.65 258.232 142.98 256.572 140 253.562C146.63 233.462 153.13 213.292 159.5 193.062C170.04 172.312 179.21 150.972 187 129.062Z" fill="#FCFBBE"/>
<path fill-rule="evenodd" clip-rule="evenodd" d="M199 200.062C207.69 200.122 210.36 204.122 207 212.062C209.74 214.462 210.74 217.292 210 220.562C208.37 221.052 206.7 221.222 205 221.062C205.33 216.142 202.99 214.142 198 215.062C198 213.732 198 212.392 198 211.062C201.82 210.472 203.48 208.142 203 204.062C199.69 203.532 197.53 204.872 196.5 208.062C195.83 212.222 196.33 216.222 198 220.062C193.42 220.432 191.08 218.272 191 213.562C191.76 207.862 194.43 203.362 199 200.062Z" fill="#FF453D"/>
<path fill-rule="evenodd" clip-rule="evenodd" d="M253 208.061C256.4 207.741 259.73 208.071 263 209.061C260.67 209.731 258.33 210.391 256 211.061C257.55 212.011 259.21 212.351 261 212.061C261 213.061 261 214.061 261 215.061C259.3 214.901 257.63 215.071 256 215.561C258.73 215.741 261.39 216.241 264 217.061C263.79 217.651 263.46 218.151 263 218.561C259.68 219.061 256.35 219.231 253 219.061C253 215.391 253 211.731 253 208.061Z" fill="#3CAF63"/>
<path fill-rule="evenodd" clip-rule="evenodd" d="M330 207.062C332.29 207.922 334.62 208.082 337 207.562C337.43 210.192 338.43 212.522 340 214.562C335.92 215.292 331.59 215.952 327 216.562C326.5 217.062 326 217.562 325.5 218.062C325.63 215.072 325.63 212.072 325.5 209.062C324.69 210.522 323.86 210.852 323 210.062C324.12 207.962 325.62 207.632 327.5 209.062C328.24 211.002 328.08 212.832 327 214.562C327.95 215.042 328.95 215.212 330 215.062C330 212.392 330 209.732 330 207.062Z" fill="#65BE74"/>
<path fill-rule="evenodd" clip-rule="evenodd" d="M315 213.062C315.18 214.592 315.51 216.262 316 218.062C313.68 220.992 312.18 220.652 311.5 217.062C311.02 218.012 310.85 219.012 311 220.062C309.67 220.062 308.33 220.062 307 220.062C306.84 218.362 307.01 216.692 307.5 215.062C307.83 215.732 308.17 216.392 308.5 217.062C310.71 215.672 312.87 214.342 315 213.062Z" fill="#71C37A"/>
<path fill-rule="evenodd" clip-rule="evenodd" d="M216 206.062C219.33 206.062 222.67 206.062 226 206.062C226.73 212.002 224.07 215.342 218 216.062C218.5 216.392 219 216.732 219.5 217.062C222.27 215.872 225.1 214.872 228 214.062C228.39 211.352 229.39 209.022 231 207.062C232.35 208.082 233.35 209.412 234 211.062C237.06 209.312 240.4 208.312 244 208.062C244.12 210.042 243.45 211.712 242 213.062C242.83 214.012 242.99 215.012 242.5 216.062C240.67 216.662 238.84 217.332 237 218.062C239.22 218.622 241.55 218.622 244 218.062C243.84 215.012 244.51 212.182 246 209.562C246.95 208.942 247.78 209.112 248.5 210.062C248.99 211.352 249.16 212.692 249 214.062C252.72 215.082 252.56 216.422 248.5 218.062C248 220.032 247.84 222.032 248 224.062C245.59 224.422 244.09 223.422 243.5 221.062C240.81 222.272 237.98 222.942 235 223.062C234.78 220.172 233.95 217.502 232.5 215.062C232 217.032 231.84 219.032 232 221.062C230.67 221.062 229.33 221.062 228 221.062C228.16 219.692 227.99 218.352 227.5 217.062C224.96 218.082 222.46 219.252 220 220.562C218.06 221.302 216.23 221.142 214.5 220.062C213.83 217.732 213.83 215.392 214.5 213.062C217.08 212.292 219.58 211.292 222 210.062C218.98 209.612 215.98 209.272 213 209.062C213.84 207.832 214.84 206.832 216 206.062Z" fill="#41B065"/>
<path fill-rule="evenodd" clip-rule="evenodd" d="M252 221.062C256.33 221.062 260.67 221.062 265 221.062C265.17 222.382 264.84 223.552 264 224.562C259.68 225.062 255.35 225.232 251 225.062C250.93 223.602 251.27 222.272 252 221.062Z" fill="#3CAF63"/>
<path fill-rule="evenodd" clip-rule="evenodd" d="M156 225.062C157 225.062 158 225.062 159 225.062C158.91 229.522 158.41 233.852 157.5 238.062C160.44 236.342 163.61 235.342 167 235.062C166.72 231.782 167.05 228.622 168 225.562C171.24 225.122 173.07 226.622 173.5 230.062C175.26 239.362 172.43 246.862 165 252.562C151.82 254.712 146.99 249.212 150.5 236.062C151.3 231.812 153.13 228.142 156 225.062Z" fill="#32AC5F"/>
<path fill-rule="evenodd" clip-rule="evenodd" d="M179 227.061C180.32 226.891 181.49 227.221 182.5 228.061C182.45 231.361 182.29 234.691 182 238.061C184 238.391 186 238.731 188 239.061C188.07 244.381 185.41 246.381 180 245.061C180.51 248.571 179.84 251.731 178 254.561C175.15 255.221 173.48 254.051 173 251.061C175.02 242.961 177.02 234.961 179 227.061Z" fill="#36AD61"/>
<path fill-rule="evenodd" clip-rule="evenodd" d="M283 231.062C284.64 230.852 286.14 231.182 287.5 232.062C287.68 234.792 288.18 237.452 289 240.062C292.55 237.262 295.55 237.602 298 241.062C295.89 244.282 292.89 245.612 289 245.062C289.16 247.752 289 250.412 288.5 253.062C286.83 254.392 285.17 254.392 283.5 253.062C281.88 245.702 281.72 238.362 283 231.062Z" fill="#34AC60"/>
<path fill-rule="evenodd" clip-rule="evenodd" d="M194 232.062C195.89 231.862 197.39 232.522 198.5 234.062C198.6 239.722 198.43 245.382 198 251.062C201.07 250.742 204.07 251.082 207 252.062C208.45 254.202 208.12 256.042 206 257.562C201.36 258.562 196.69 258.892 192 258.562C191.5 258.062 191 257.562 190.5 257.062C189.06 248.282 190.23 239.952 194 232.062Z" fill="#38AE61"/>
<path fill-rule="evenodd" clip-rule="evenodd" d="M265 233.061C277.82 231.921 282.49 237.421 279 249.561C274.78 250.141 270.61 250.971 266.5 252.061C263.65 249.021 262.49 245.361 263 241.061C262.79 238.071 263.46 235.411 265 233.061Z" fill="#35AD61"/>
<path fill-rule="evenodd" clip-rule="evenodd" d="M247.001 235.061C248.321 234.891 249.491 235.221 250.501 236.061C251.001 239.381 251.171 242.711 251.001 246.061C253.361 245.901 255.691 246.061 258.001 246.561C258.851 250.891 256.851 253.061 252.001 253.061C252.511 256.401 252.671 259.731 252.501 263.061C249.091 264.781 246.761 263.781 245.501 260.061C244.831 252.391 244.831 244.731 245.501 237.061C246.221 236.521 246.721 235.851 247.001 235.061Z" fill="#35AD60"/>
<path fill-rule="evenodd" clip-rule="evenodd" d="M212 236.062C213.64 235.852 215.14 236.182 216.5 237.062C217 239.712 217.16 242.372 217 245.062C222 245.622 223 247.792 220 251.562C218.37 252.052 216.7 252.222 215 252.062C215.16 255.082 215 258.082 214.5 261.062C212.83 263.732 211.17 263.732 209.5 261.062C209.2 252.572 210.03 244.232 212 236.062Z" fill="#3BAE62"/>
<path fill-rule="evenodd" clip-rule="evenodd" d="M228.001 237.061C229.321 236.891 230.491 237.221 231.501 238.061C231.671 242.761 232.171 247.431 233.001 252.061C235.941 250.991 238.941 250.821 242.001 251.561C244.671 253.561 244.671 255.561 242.001 257.561C237.971 257.861 233.971 258.361 230.001 259.061C228.471 259.031 227.301 258.361 226.501 257.061C225.831 251.061 225.831 245.061 226.501 239.061C227.221 238.521 227.721 237.851 228.001 237.061Z" fill="#34AD60"/>
<path fill-rule="evenodd" clip-rule="evenodd" d="M270 239.061C271.85 238.781 273.18 239.451 274 241.061C273.19 242.631 272.86 244.301 273 246.061C272 246.061 271 246.061 270 246.061C270 243.731 270 241.391 270 239.061Z" fill="#F5FABE"/>
<path fill-rule="evenodd" clip-rule="evenodd" d="M163 241.062C164.53 241.082 165.03 241.742 164.5 243.062C162.65 246.642 159.98 247.642 156.5 246.062C156.01 244.772 155.84 243.432 156 242.062C158.56 242.362 160.89 242.032 163 241.062Z" fill="#F5F9BD"/>
<path fill-rule="evenodd" clip-rule="evenodd" d="M348 249.062C346.37 250.372 344.7 250.372 343 249.062C341.88 250.192 340.54 250.862 339 251.062C336.52 249.872 335.52 247.872 336 245.062C334.68 245.232 333.51 244.902 332.5 244.062C332.36 241.522 331.69 239.182 330.5 237.062C328.84 226.392 333.34 222.222 344 224.562C346.61 229.472 349.28 234.302 352 239.062C349.9 242.022 348.57 245.352 348 249.062Z" fill="#48B368"/>
<path fill-rule="evenodd" clip-rule="evenodd" d="M346 236.062C350.46 236.612 350.96 238.272 347.5 241.062C347 243.032 346.84 245.032 347 247.062C345.68 247.232 344.51 246.902 343.5 246.062C343.17 244.392 342.83 242.732 342.5 241.062C342.17 243.392 341.83 245.732 341.5 248.062C340.78 249.012 339.95 249.182 339 248.562C338.08 246.522 337.74 244.352 338 242.062C336.67 242.062 335.33 242.062 334 242.062C334 241.062 334 240.062 334 239.062C338.4 239.252 342.4 238.252 346 236.062Z" fill="#F8FABF"/>
<path fill-rule="evenodd" clip-rule="evenodd" d="M337 225.062C345.46 225.832 347.13 229.662 342 236.562C333.2 240.402 330.03 237.902 332.5 229.062C333.9 227.492 335.4 226.162 337 225.062Z" fill="#E8F3B5"/>
<path fill-rule="evenodd" clip-rule="evenodd" d="M313 226.061C322.41 225.801 325.74 230.131 323 239.061C325.42 239.631 327.58 240.631 329.5 242.061C330.21 243.931 329.71 245.431 328 246.561C325.76 247.541 323.43 248.041 321 248.061C321.36 254.561 318.86 256.231 313.5 253.061C313.01 251.771 312.84 250.431 313 249.061C304.52 249.311 303.19 246.651 309 241.061C307.91 237.451 307.74 233.791 308.5 230.061C309.9 228.491 311.4 227.161 313 226.061Z" fill="#45B266"/>
<path fill-rule="evenodd" clip-rule="evenodd" d="M322 241.061C328.67 240.871 329.33 242.371 324 245.561C322.37 246.051 320.7 246.221 319 246.061C319 248.061 319 250.061 319 252.061C315.59 252.181 314.26 250.511 315 247.061C312.67 247.061 310.33 247.061 308 247.061C307.83 245.741 308.16 244.571 309 243.561C313.44 242.591 317.77 241.761 322 241.061Z" fill="#F9FBBF"/>
<path fill-rule="evenodd" clip-rule="evenodd" d="M313 228.061C318.53 226.631 321.86 228.631 323 234.061C320.78 239.421 316.95 241.081 311.5 239.061C309.35 234.971 309.85 231.301 313 228.061Z" fill="#E7F3B5"/>
<path fill-rule="evenodd" clip-rule="evenodd" d="M283 262.062C282 262.062 281 262.062 280 262.062C275.86 258.992 272.19 259.492 269 263.562C264.02 264.332 262.86 262.502 265.5 258.062C269.03 255.972 272.36 253.632 275.5 251.062C278 251.892 278.5 253.392 277 255.562C279.16 256.472 281.33 257.312 283.5 258.062C284.08 259.492 283.91 260.822 283 262.062Z" fill="#30AC5F"/>
<path fill-rule="evenodd" clip-rule="evenodd" d="M313 302.062C300.47 289.212 285.13 283.212 267 284.062C247.84 282.762 229.51 285.932 212 293.562C206.52 296.882 201.85 301.052 198 306.062C183.33 306.232 168.66 306.062 154 305.562C145.92 304.482 137.92 303.142 130 301.562C129.07 295.582 128.07 289.582 127 283.562C127.93 277.752 127.93 271.922 127 266.062C143.67 265.802 160.01 267.972 176 272.562C184.67 273.762 193.34 274.932 202 276.062C227.66 275.232 253.33 274.392 279 273.562C298.89 269.922 318.89 266.922 339 264.562C346.04 261.992 353.2 259.832 360.5 258.062C364.89 260.102 367.72 258.762 369 254.062C370.61 255.112 371.61 256.612 372 258.562C372.79 267.902 372.79 277.402 372 287.062C360.58 290.792 349.25 294.622 338 298.562C329.63 299.672 321.3 300.842 313 302.062Z" fill="#FEFBBF"/>
<path fill-rule="evenodd" clip-rule="evenodd" d="M313 302.061C315.1 305.281 317.44 308.281 320 311.061C322.19 314.111 323.86 317.441 325 321.061C319.55 318.121 314.22 314.951 309 311.561C302.96 310.111 296.96 308.441 291 306.561C278.17 305.361 270.34 311.191 267.5 324.061C265.37 345.261 274.87 354.091 296 350.561C299.28 349.001 302.12 346.831 304.5 344.061C308.48 337.281 310.98 329.951 312 322.061C316.38 324.981 321.04 326.321 326 326.061C327.9 338.171 325.4 349.171 318.5 359.061C309.32 370.231 297.82 377.731 284 381.561C264.86 381.681 245.86 380.011 227 376.561C209.73 371.621 197.9 360.791 191.5 344.061C190.38 339.461 189.88 334.791 190 330.061C192.15 330.191 194.15 329.691 196 328.561C197.85 326.541 199.85 324.711 202 323.061C201.15 330.391 202.65 337.391 206.5 344.061C215.33 353.231 225.16 354.391 236 347.561C239.77 343.841 242.94 339.681 245.5 335.061C246.17 331.731 246.17 328.391 245.5 325.061C243.25 321.231 241.58 317.231 240.5 313.061C236.21 309.021 231.04 306.851 225 306.561C213.82 306.011 203.82 309.181 195 316.061C195.42 312.551 196.42 309.221 198 306.061C201.85 301.051 206.52 296.881 212 293.561C229.51 285.931 247.84 282.761 267 284.061C285.13 283.211 300.47 289.211 313 302.061Z" fill="#FAFAFA"/>
<path fill-rule="evenodd" clip-rule="evenodd" d="M193 318.062C189.06 321.292 188.06 325.292 190 330.062C189.88 334.792 190.38 339.462 191.5 344.062C197.9 360.792 209.73 371.622 227 376.562C245.86 380.012 264.86 381.682 284 381.562C297.82 377.732 309.32 370.232 318.5 359.062C325.4 349.172 327.9 338.172 326 326.062C326.13 324.272 325.8 322.602 325 321.062C323.86 317.442 322.19 314.112 320 311.062C334.61 311.352 348.11 307.692 360.5 300.062C348.99 335.242 335.49 369.742 320 403.562C315.78 405.502 311.44 407.172 307 408.562C277.8 412.682 248.47 414.682 219 414.562C208.39 412.932 197.73 412.092 187 412.062C174.25 384.562 160.42 357.562 145.5 331.062C142.55 325.382 140.72 319.382 140 313.062C157.04 313.302 174.04 314.132 191 315.562C192.26 315.982 192.92 316.812 193 318.062Z" fill="#FEFBBF"/>
<path fill-rule="evenodd" clip-rule="evenodd" d="M190 330.061C188.06 325.291 189.06 321.291 193 318.061C194 317.731 194.67 317.061 195 316.061C203.82 309.181 213.82 306.011 225 306.561C231.04 306.851 236.21 309.021 240.5 313.061C241.58 317.231 243.25 321.231 245.5 325.061C246.17 328.391 246.17 331.731 245.5 335.061C242.94 339.681 239.77 343.841 236 347.561C225.16 354.391 215.33 353.231 206.5 344.061C202.65 337.391 201.15 330.391 202 323.061C199.85 324.711 197.85 326.541 196 328.561C194.15 329.691 192.15 330.191 190 330.061Z" fill="#050505"/>
<path fill-rule="evenodd" clip-rule="evenodd" d="M325 321.061C325.8 322.601 326.13 324.271 326 326.061C321.04 326.321 316.38 324.981 312 322.061C310.98 329.951 308.48 337.281 304.5 344.061C302.12 346.831 299.28 349.001 296 350.561C274.87 354.091 265.37 345.261 267.5 324.061C270.34 311.191 278.17 305.361 291 306.561C296.96 308.441 302.96 310.111 309 311.561C314.22 314.951 319.55 318.121 325 321.061Z" fill="#060606"/>
<path fill-rule="evenodd" clip-rule="evenodd" d="M280 312.062C285.16 310.892 288.16 312.892 289 318.062C287.73 320.932 286.89 323.932 286.5 327.062C279.16 330.982 274.66 328.812 273 320.562C273.17 319.732 273.33 318.892 273.5 318.062C275.84 316.162 278 314.162 280 312.062Z" fill="#F2F2F2"/>
<path fill-rule="evenodd" clip-rule="evenodd" d="M228 314.061C233.75 313.311 237.08 315.811 238 321.561C236.97 326.821 233.97 330.321 229 332.061C225.07 330.621 222.74 327.791 222 323.561C223.11 319.841 225.11 316.671 228 314.061Z" fill="#F1F1F1"/>
<path fill-rule="evenodd" clip-rule="evenodd" d="M268 354.062C270.78 353.582 272.78 354.582 274 357.062C271.81 361.292 268.81 364.792 265 367.562C263.67 368.232 262.33 368.232 261 367.562C257.21 365.582 253.38 363.752 249.5 362.062C248.84 359.212 250.01 357.542 253 357.062C256.57 358.862 260.23 360.032 264 360.562C265.56 358.512 266.89 356.342 268 354.062Z" fill="#101010"/>
</svg>
