<svg width="500" height="500" viewBox="0 0 500 500" fill="none" xmlns="http://www.w3.org/2000/svg">
<path fill-rule="evenodd" clip-rule="evenodd" d="M210 54.0615C251.19 54.1595 291.85 58.6595 332 67.5615C346.49 72.2215 360.32 78.3875 373.5 86.0615C377.27 92.5895 379.6 99.5895 380.5 107.062C383.87 137.301 386.21 167.635 387.5 198.062C391.59 215.834 393.75 233.834 394 252.062C395.37 252.219 396.71 252.052 398 251.562C408.24 242.716 418.08 233.549 427.5 224.062C429.33 221.062 431.17 218.062 433 215.062C428.61 212.782 424.45 210.115 420.5 207.062C417.48 203.288 417.31 199.455 420 195.562C421.67 194.895 423.33 194.895 425 195.562C433.84 200.246 443.01 201.412 452.5 199.062C463.82 200.509 464.99 205.009 456 212.562C452.25 214.551 448.25 215.384 444 215.062C444.16 216.761 443.99 218.428 443.5 220.062C440.54 226.281 437.21 232.281 433.5 238.062C424.57 248.33 414.4 257.163 403 264.562C400.82 265.764 398.49 266.264 396 266.062C397.18 290.547 394.35 314.547 387.5 338.062C385.16 346.403 379.99 352.236 372 355.562C364.58 357.311 357.25 359.311 350 361.562C337.08 369.079 323.25 373.579 308.5 375.062C306.78 391.37 306.61 407.704 308 424.062C315.2 422.565 322.2 423.232 329 426.062C332.31 429.406 332.65 432.906 330 436.562C299.06 447.636 286.23 436.802 291.5 404.062C291.23 399.931 289.89 396.264 287.5 393.062C287.08 387.047 286.58 381.047 286 375.062C261.65 376.044 237.32 376.378 213 376.062C214.47 378.87 215.3 381.87 215.5 385.062C215.94 400.767 215.27 416.434 213.5 432.062C212.07 435.811 210.24 439.311 208 442.562C197.21 445.75 186.21 447.084 175 446.562C170.67 441.518 171.34 437.184 177 433.562C183.66 430.496 190.66 429.33 198 430.062C195.8 411.471 194.47 392.804 194 374.062C173.29 373.27 153.29 369.104 134 361.562C125.2 355.495 115.86 350.495 106 346.562C100.83 341.388 97.3303 335.221 95.5003 328.062C94.3703 323.01 93.0403 318.01 91.5003 313.062C91.3303 307.698 90.8303 302.364 90.0003 297.062C81.7603 304.709 75.0903 313.543 70.0003 323.562C72.4303 327.666 75.2703 331.499 78.5003 335.062C79.1703 343.06 75.6703 345.894 68.0003 343.562C60.4703 335.954 51.4703 332.62 41.0003 333.562C38.9803 332.534 37.9803 330.867 38.0003 328.562C41.7703 319.331 48.7703 315.165 59.0003 316.062C67.1203 301.117 77.2903 287.783 89.5003 276.062C89.3903 259.65 88.0603 243.316 85.5003 227.062C80.5603 209.965 76.5603 192.632 73.5003 175.062C73.1803 166.05 72.6803 157.05 72.0003 148.062C72.1103 144.235 72.9403 140.569 74.5003 137.062C89.4003 122.835 103.56 108.001 117 92.5615C128.72 85.5375 141.05 79.8705 154 75.5615C159.68 71.7205 165.68 68.3875 172 65.5615C184.74 61.6565 197.4 57.8225 210 54.0615Z" fill="#020202"/>
<path fill-rule="evenodd" clip-rule="evenodd" d="M242 67.0618C257.15 66.5388 272.15 67.7058 287 70.5618C301.92 74.4798 316.92 78.1468 332 81.5618C348.57 86.1358 359.07 96.6358 363.5 113.062C363.89 120.549 362.23 127.549 358.5 134.062C347.12 150.011 331.62 159.177 312 161.562C295.04 163.187 278.04 164.187 261 164.562C224.26 171.363 187.26 174.029 150 172.562C143.13 170.672 136.47 168.338 130 165.562C118.32 167.757 108.82 164.257 101.5 155.062C97.8898 146.546 98.2298 138.213 102.5 130.062C111.63 116.271 123.79 106.105 139 99.5618C151.47 94.3258 164.14 89.6598 177 85.5618C181 83.5618 185 81.5618 189 79.5618C206.63 74.5418 224.3 70.3748 242 67.0618Z" fill="#FCFCFC"/>
<path fill-rule="evenodd" clip-rule="evenodd" d="M282 98.0618C297.85 109.178 297.85 120.345 282 131.562C272.72 135.723 263.05 138.723 253 140.562C237.98 141.222 222.98 142.055 208 143.062C201.53 140.112 199.37 135.112 201.5 128.062C203.53 112.967 211.53 102.633 225.5 97.0618C231.1 97.6388 232.94 100.473 231 105.562C222.98 105.993 217.15 109.826 213.5 117.062C210.78 122.728 209.62 128.562 210 134.562C211.37 135.437 212.87 135.937 214.5 136.062C223.66 133.648 231.99 129.648 239.5 124.062C239.58 119.375 240.41 114.875 242 110.562C236.49 106.052 235.82 101.052 240 95.5618C247.33 94.8948 254.67 94.8948 262 95.5618C268.61 96.7758 275.27 97.6088 282 98.0618Z" fill="#926555"/>
<path fill-rule="evenodd" clip-rule="evenodd" d="M282 98.0612C275.27 97.6082 268.61 96.7752 262 95.5612C254.67 94.8942 247.33 94.8942 240 95.5612C235.82 101.051 236.49 106.051 242 110.561C240.41 114.874 239.58 119.374 239.5 124.061C231.99 129.647 223.66 133.647 214.5 136.061C212.87 135.936 211.37 135.436 210 134.561C209.62 128.561 210.78 122.727 213.5 117.061C217.15 109.825 222.98 105.992 231 105.561C232.94 100.472 231.1 97.6382 225.5 97.0612C211.53 102.632 203.53 112.966 201.5 128.061C199.37 135.111 201.53 140.111 208 143.061C202.54 145.535 196.87 145.702 191 143.561C187.58 140.302 183.58 137.969 179 136.561C174.87 132.308 174.04 127.474 176.5 122.061C182.85 114.05 190.68 107.883 200 103.561C206.9 100.61 213.9 97.9442 221 95.5612C238.64 94.1122 256.31 93.7782 274 94.5612C276.98 95.2662 279.64 96.4322 282 98.0612Z" fill="#A37160"/>
<path fill-rule="evenodd" clip-rule="evenodd" d="M255 102.062C258.81 102.722 262.48 103.888 266 105.562C272.37 105.873 278.71 106.539 285 107.562C287.31 108.203 288.98 109.536 290 111.562C288.13 122.578 281.47 128.078 270 128.062C263.35 127.532 257.01 125.866 251 123.062C249.95 115.667 251.28 108.667 255 102.062Z" fill="#B07966"/>
<path fill-rule="evenodd" clip-rule="evenodd" d="M269 205.062C277.05 204.705 284.71 206.205 292 209.562C312.09 208.519 330.42 213.519 347 224.562C363.3 238.316 368.8 255.483 363.5 276.062C359.66 286.594 354.16 296.094 347 304.562C335.07 314.196 321.73 321.196 307 325.562C274.3 331.719 241.3 334.052 208 332.562C185.54 331.2 166.71 322.366 151.5 306.062C144.13 296.996 141.13 286.663 142.5 275.062C145.03 268.272 146.7 261.272 147.5 254.062C149.91 249.646 153.08 245.813 157 242.562C174.02 230.892 192.02 220.892 211 212.562C230.1 207.099 249.43 204.599 269 205.062Z" fill="#FBFBFB"/>
<path fill-rule="evenodd" clip-rule="evenodd" d="M286 225.062C292.01 224.896 298.01 225.063 304 225.562C312.27 227.283 320.6 228.616 329 229.562C337.83 233.729 346.67 237.895 355.5 242.062C356.84 246.394 355.34 249.061 351 250.062C344.28 250.143 338.28 248.143 333 244.062C334.35 258.043 331.51 271.376 324.5 284.062C311.06 296.897 295.89 298.73 279 289.562C272.64 283.015 268.81 275.181 267.5 266.062C265.63 254.465 267.97 243.798 274.5 234.062C278.23 230.817 282.07 227.817 286 225.062Z" fill="#050505"/>
<path fill-rule="evenodd" clip-rule="evenodd" d="M285 235.061C290.24 234.099 294.41 235.766 297.5 240.061C297.63 245.729 297.3 251.396 296.5 257.061C292.41 260.866 287.58 262.033 282 260.561C280.13 257.733 277.97 255.233 275.5 253.061C274.68 249.597 275.02 246.263 276.5 243.061C279.83 240.894 282.67 238.227 285 235.061Z" fill="#F6F6F6"/>
<path fill-rule="evenodd" clip-rule="evenodd" d="M191.999 237.062C202.579 235.991 212.579 237.824 221.999 242.562C226.409 250.339 230.909 258.172 235.499 266.062C236.169 270.062 236.169 274.062 235.499 278.062C232.729 284.699 229.399 291.033 225.499 297.062C208.369 313.12 191.699 312.787 175.499 296.062C173.879 291.852 171.879 287.852 169.499 284.062C168.139 278.334 167.639 272.667 167.999 267.062C164.179 271.38 160.179 275.547 155.999 279.562C149.509 281.744 146.509 279.411 146.999 272.562C151.059 261.831 158.059 253.498 167.999 247.562C175.759 243.172 183.759 239.672 191.999 237.062Z" fill="#040404"/>
<path fill-rule="evenodd" clip-rule="evenodd" d="M207 248.061C215.46 247.357 220.13 251.191 221 259.561C220.83 268.016 216.83 273.516 209 276.061C202.35 274.579 198.69 270.412 198 263.561C198.58 256.88 201.58 251.713 207 248.061Z" fill="#F5F5F5"/>
<path fill-rule="evenodd" clip-rule="evenodd" d="M275.001 301.062C282.121 301.719 283.961 305.386 280.501 312.062C278.051 316.177 275.221 320.01 272.001 323.562C268.331 324.229 264.671 324.229 261.001 323.562C256.711 321.326 252.211 319.826 247.501 319.062C244.761 311.132 247.591 308.299 256.001 310.562C258.441 311.415 260.771 312.415 263.001 313.562C264.331 314.229 265.671 314.229 267.001 313.562C269.551 309.282 272.221 305.116 275.001 301.062Z" fill="#0B0B0B"/>
</svg>
