<svg width="500" height="500" viewBox="0 0 500 500" fill="none" xmlns="http://www.w3.org/2000/svg">
<path fill-rule="evenodd" clip-rule="evenodd" d="M289 124.062C283.73 127.032 278.4 130.032 273 133.062C270.25 127.222 266.75 121.892 262.5 117.062C262.02 116.112 261.85 115.112 262 114.062C265.6 102.262 269.6 90.5915 274 79.0615C261.85 76.7315 250.35 72.7315 239.5 67.0615C237.5 63.0615 237.5 59.0615 239.5 55.0615C242.17 51.0615 244.83 47.0615 247.5 43.0615C249.22 41.1215 251.39 40.1215 254 40.0615C270.01 48.4015 286.34 56.2315 303 63.5615C317.44 66.5915 331.11 71.5915 344 78.5615C348.79 82.4515 349.29 86.9515 345.5 92.0615C342.67 95.5615 339.83 99.0615 337 102.562C333.91 103.212 330.91 102.882 328 101.562C319.28 96.5315 310.28 92.0315 301 88.0615C299.58 89.9015 298.41 91.9015 297.5 94.0615C294.15 103.942 291.32 113.942 289 124.062Z" fill="#5FA680"/>
<path fill-rule="evenodd" clip-rule="evenodd" d="M262 114.062C261.85 115.112 262.02 116.112 262.5 117.062C266.75 121.892 270.25 127.222 273 133.062C278.4 130.032 283.73 127.032 289 124.062C325.78 114.712 352.95 126.712 370.5 160.062C376.38 174.422 376.38 188.762 370.5 203.062C369.7 204.822 369.87 206.492 371 208.062C394.18 219.242 407.84 237.582 412 263.062C411.21 293.472 396.54 313.972 368 324.562C362.95 324.462 358.28 325.632 354 328.062C347.57 349.102 336.9 367.602 322 383.562C310.01 390.562 297.01 393.732 283 393.062C281.67 406.192 278.51 418.862 273.5 431.062C269.35 437.202 264.52 442.702 259 447.562C232.04 463.942 205.04 463.942 178 447.562C165.3 438.682 157.8 426.512 155.5 411.062C154.55 399.152 155.05 387.322 157 375.562C153.49 372.112 149.49 369.112 145 366.562C142.83 364.392 140.67 362.232 138.5 360.062C135.36 353.102 131.69 346.442 127.5 340.062C124.8 331.092 123.63 321.922 124 312.562C123.96 303.252 124.8 294.082 126.5 285.062C110.19 278.092 98.5299 266.422 91.4999 250.062C82.9099 214.532 95.0699 188.702 128 172.562C132.74 171.092 137.41 169.422 142 167.562C147.24 166.222 152.57 165.722 158 166.062C156.2 129.792 172.54 106.292 207 95.5617C222.17 93.8717 236.51 96.5417 250 103.562C253.92 107.322 257.92 110.822 262 114.062Z" fill="#6E1B6A"/>
<path fill-rule="evenodd" clip-rule="evenodd" d="M211 109.062C228.56 108.302 243.39 114.302 255.5 127.062C257.75 130.572 259.75 134.232 261.5 138.062C262.64 151.232 261.64 164.232 258.5 177.062C234.25 173.622 212.42 179.292 193 194.062C185.25 190.142 179.75 184.142 176.5 176.062C166.49 152.252 171.66 132.422 192 116.562C198.4 113.932 204.74 111.432 211 109.062Z" fill="#A529A1"/>
<path fill-rule="evenodd" clip-rule="evenodd" d="M205 115.062C207.62 115.342 210.12 116.012 212.5 117.062C212.76 122.062 210.26 124.562 205 124.562C203.11 126.752 200.94 128.582 198.5 130.062C193.7 136.822 189.54 143.982 186 151.562C179.65 151.512 177.48 148.352 179.5 142.062C183.82 128.912 192.32 119.912 205 115.062Z" fill="#BB45D3"/>
<path fill-rule="evenodd" clip-rule="evenodd" d="M311 136.062C332.6 136.412 348.43 146.082 358.5 165.062C362.37 178.042 361.54 190.712 356 203.062C344.47 204.612 333.13 207.112 322 210.562C315.58 214.482 309.58 218.982 304 224.062C300.11 217.292 295.94 210.632 291.5 204.062C285.32 197.212 279.15 190.382 273 183.562C278.27 171.962 280.77 159.802 280.5 147.062C283.75 145.022 286.92 142.852 290 140.562C297.17 139.232 304.17 137.732 311 136.062Z" fill="#A529A1"/>
<path fill-rule="evenodd" clip-rule="evenodd" d="M303 142.062C308.66 143.222 314.33 143.392 320 142.562C322.88 143.602 323.55 145.432 322 148.062C316.96 149.792 311.96 151.632 307 153.562C302.67 156.562 298.33 159.562 294 162.562C286.1 165.022 283.6 162.182 286.5 154.062C291.13 148.682 296.63 144.682 303 142.062Z" fill="#BC46D3"/>
<path fill-rule="evenodd" clip-rule="evenodd" d="M156 182.062C162.23 181.722 166.06 184.722 167.5 191.062C172.91 196.972 178.74 202.312 185 207.062C176.48 225.232 174.15 244.232 178 264.062C170.61 266.252 163.27 268.752 156 271.562C143.66 274.562 132 272.892 121 266.562C106.52 253.692 100.69 237.522 103.5 218.062C110.72 200.502 123.55 189.002 142 183.562C146.85 183.392 151.52 182.892 156 182.062Z" fill="#A629A2"/>
<path fill-rule="evenodd" clip-rule="evenodd" d="M287.999 261.061C286.419 262.701 285.749 264.701 285.999 267.061C281.579 273.331 276.909 279.491 271.999 285.561C244.339 301.471 219.839 297.631 198.499 274.061C196.559 270.371 194.719 266.701 192.999 263.061C193.269 261.181 192.599 259.851 190.999 259.061C189.389 246.311 189.889 233.651 192.499 221.061C202.779 201.631 218.939 191.961 240.999 192.061C258.059 194.571 272.229 202.231 283.499 215.061C291.269 229.781 292.769 245.111 287.999 261.061Z" fill="#A529A1"/>
<path fill-rule="evenodd" clip-rule="evenodd" d="M133 196.062C135.03 195.902 137.03 196.062 139 196.562C140.05 197.952 140.22 199.452 139.5 201.062C126.38 211.892 120.05 225.892 120.5 243.062C116.13 245.042 113.13 243.712 111.5 239.062C110.62 232.312 110.96 225.642 112.5 219.062C117.49 209.582 124.32 201.912 133 196.062Z" fill="#BC46D4"/>
<path fill-rule="evenodd" clip-rule="evenodd" d="M222 201.061C226.68 200.891 231.35 201.061 236 201.561C237.02 202.611 237.18 203.781 236.5 205.061C233.06 206.841 229.89 209.001 227 211.561C221.64 217.911 215.98 223.911 210 229.561C207.37 230.551 204.71 230.891 202 230.561C201.48 230.001 201.14 229.331 201 228.561C201.54 224.311 202.38 220.151 203.5 216.061C209.28 210.441 215.44 205.441 222 201.061Z" fill="#BC46D4"/>
<path fill-rule="evenodd" clip-rule="evenodd" d="M335 220.062C352.12 217.502 367.78 221.002 382 230.562C396.74 245.432 401.24 262.932 395.5 283.062C381.34 307.892 360.84 315.392 334 305.562C320.46 297.702 310.96 286.532 305.5 272.062C303.72 260.182 305.38 248.852 310.5 238.062C317.79 230.682 325.96 224.682 335 220.062Z" fill="#A629A2"/>
<path fill-rule="evenodd" clip-rule="evenodd" d="M271 248.062C266.59 246.832 262.09 245.832 257.5 245.062C251.98 245.572 248.65 248.572 247.5 254.062C245.9 266.022 251.07 270.862 263 268.562C267.88 264.982 270.88 260.152 272 254.062C273.02 254.752 274.02 255.422 275 256.062C276.03 263.012 274.36 269.172 270 274.562C262.51 280.392 254.01 283.222 244.5 283.062C233.66 284.022 223.83 281.522 215 275.562C209.19 270.772 206.52 264.602 207 257.062C208.46 256.102 209.79 254.942 211 253.562C211.67 252.892 212.33 252.892 213 253.562C211.12 264.682 215.79 269.682 227 268.562C236.54 263.862 238.38 257.022 232.5 248.062C229.14 245.552 225.31 244.212 221 244.062C217.15 245.012 213.48 246.342 210 248.062C213.46 244.102 217.13 240.262 221 236.562C234.39 233.252 247.72 233.592 261 237.562C265.91 239.632 269.24 243.132 271 248.062Z" fill="#F7F5F7"/>
<path fill-rule="evenodd" clip-rule="evenodd" d="M207 257.062C205.85 256.772 205.18 255.942 205 254.562C205.71 251.682 207.38 249.512 210 248.062C213.48 246.342 217.15 245.012 221 244.062C225.31 244.212 229.14 245.552 232.5 248.062C238.38 257.022 236.54 263.862 227 268.562C215.79 269.682 211.12 264.682 213 253.562C212.33 252.892 211.67 252.892 211 253.562C209.79 254.942 208.46 256.102 207 257.062Z" fill="#0A0909"/>
<path fill-rule="evenodd" clip-rule="evenodd" d="M271 248.062C273.13 249.962 275.46 251.632 278 253.062C278.89 253.882 279.22 254.882 279 256.062C277.67 256.062 276.33 256.062 275 256.062C274.02 255.422 273.02 254.752 272 254.062C270.88 260.152 267.88 264.982 263 268.562C251.07 270.862 245.9 266.022 247.5 254.062C248.65 248.572 251.98 245.572 257.5 245.062C262.09 245.832 266.59 246.832 271 248.062Z" fill="#090809"/>
<path fill-rule="evenodd" clip-rule="evenodd" d="M225 249.062C231.35 249.172 232.69 252.002 229 257.562C222.73 257.422 221.4 254.592 225 249.062Z" fill="#F3F3F3"/>
<path fill-rule="evenodd" clip-rule="evenodd" d="M254 248.062C256.76 247.472 258.43 248.472 259 251.062C257.48 258.192 254.48 258.862 250 253.062C250.66 250.752 251.99 249.082 254 248.062Z" fill="#EEEEEE"/>
<path fill-rule="evenodd" clip-rule="evenodd" d="M191.001 259.062C192.601 259.852 193.271 261.182 193.001 263.062C193.051 274.252 193.721 285.252 195.001 296.062C199.151 298.352 200.481 301.682 199.001 306.062C197.951 306.212 196.951 306.042 196.001 305.562C194.771 303.932 193.441 302.432 192.001 301.062C190.481 303.912 188.311 304.912 185.501 304.062C184.831 303.062 184.831 302.062 185.501 301.062C188.601 299.972 190.101 297.802 190.001 294.562C189.561 289.882 188.891 285.382 188.001 281.062C187.831 276.052 188.001 271.052 188.501 266.062C188.891 263.462 189.721 261.122 191.001 259.062Z" fill="#222522"/>
<path fill-rule="evenodd" clip-rule="evenodd" d="M288 261.062C289 260.972 289.83 261.312 290.5 262.062C291.5 269.032 292 276.032 292 283.062C292.18 286.782 291.85 290.442 291 294.062C292.72 297.472 293.39 301.142 293 305.062C291.52 305.322 290.19 304.992 289 304.062C286.84 300.272 284.5 300.272 282 304.062C280.22 303.212 279.72 301.882 280.5 300.062C281.85 298.542 283.35 297.212 285 296.062C285.97 294.162 286.3 292.162 286 290.062C287 282.232 287 274.562 286 267.062C285.75 264.702 286.42 262.702 288 261.062Z" fill="#242524"/>
<path fill-rule="evenodd" clip-rule="evenodd" d="M247 271.062C248 271.062 249 271.062 250 271.062C249.63 274.792 247.63 277.122 244 278.062C241.41 277.092 239.08 275.762 237 274.062C237.39 272.842 238.22 272.172 239.5 272.062C242.6 274.992 245.1 274.662 247 271.062Z" fill="#171717"/>
<path fill-rule="evenodd" clip-rule="evenodd" d="M188 281.062C188.89 285.382 189.56 289.882 190 294.562C190.1 297.802 188.6 299.972 185.5 301.062C184.83 302.062 184.83 303.062 185.5 304.062C188.31 304.912 190.48 303.912 192 301.062C193.44 302.432 194.77 303.932 196 305.562C196.95 306.042 197.95 306.212 199 306.062C200.48 301.682 199.15 298.352 195 296.062C194.84 293.702 195 291.372 195.5 289.062C201.67 295.412 208.5 300.742 216 305.062C216.55 309.982 217.55 314.812 219 319.562C217.13 321.642 215.8 323.972 215 326.562C215.17 328.732 216.34 329.892 218.5 330.062C220.62 328.532 222.28 326.532 223.5 324.062C223.67 322.892 223.83 321.732 224 320.562C222.6 315.462 221.6 310.302 221 305.062C223.51 306.312 226.17 306.982 229 307.062C228.6 319.912 224.77 331.582 217.5 342.062C213.74 345.432 210.57 349.272 208 353.562C174.65 369.642 151.82 360.142 139.5 325.062C138.96 312.992 140.79 301.332 145 290.062C158.94 289.372 171.77 285.372 183.5 278.062C185.39 278.572 186.89 279.572 188 281.062Z" fill="#A529A1"/>
<path fill-rule="evenodd" clip-rule="evenodd" d="M292 283.062C301.5 297.142 313.16 309.312 327 319.562C330.91 321.642 334.91 323.482 339 325.062C339.89 329.812 339.39 334.472 337.5 339.062C331.8 353.772 322.63 365.942 310 375.562C304.07 377.842 297.9 379.002 291.5 379.062C283.32 378.062 275.15 376.892 267 375.562C253.5 368.732 243.33 358.562 236.5 345.062C236 342.562 235.5 340.062 235 337.562C238.58 327.972 242.25 318.472 246 309.062C249.22 309.362 252.22 308.692 255 307.062C255.8 307.522 256.13 308.182 256 309.062C255.8 314.482 255.3 319.812 254.5 325.062C256.52 328.272 259.35 329.942 263 330.062C263.16 328.032 263 326.032 262.5 324.062C261.28 322.792 260.45 321.292 260 319.562C260.82 317.132 261.16 314.632 261 312.062C261.97 309.952 262.3 307.622 262 305.062C266.94 303.652 271.61 301.482 276 298.562C278.93 295.122 282.27 292.282 286 290.062C286.3 292.162 285.97 294.162 285 296.062C283.35 297.212 281.85 298.542 280.5 300.062C279.72 301.882 280.22 303.212 282 304.062C284.5 300.272 286.84 300.272 289 304.062C290.19 304.992 291.52 305.322 293 305.062C293.39 301.142 292.72 297.472 291 294.062C291.85 290.442 292.18 286.782 292 283.062Z" fill="#A529A1"/>
<path fill-rule="evenodd" clip-rule="evenodd" d="M150 292.061C152.77 291.981 155.44 292.481 158 293.561C158.52 294.121 158.86 294.791 159 295.561C156.47 304.521 155.31 313.691 155.5 323.061C151.94 329.771 148.6 329.431 145.5 322.061C142.41 311.281 143.91 301.281 150 292.061Z" fill="#BB45D3"/>
<path fill-rule="evenodd" clip-rule="evenodd" d="M221 305.062C221.6 310.302 222.6 315.462 224 320.562C223.83 321.732 223.67 322.892 223.5 324.062C222.28 326.532 220.62 328.532 218.5 330.062C216.34 329.892 215.17 328.732 215 326.562C215.8 323.972 217.13 321.642 219 319.562C217.55 314.812 216.55 309.982 216 305.062C215.87 304.182 216.2 303.522 217 303.062C218.36 303.742 219.69 304.412 221 305.062Z" fill="#232522"/>
<path fill-rule="evenodd" clip-rule="evenodd" d="M261 312.062C261.16 314.632 260.82 317.132 260 319.562C260.45 321.292 261.28 322.792 262.5 324.062C263 326.032 263.16 328.032 263 330.062C259.35 329.942 256.52 328.272 254.5 325.062C255.3 319.812 255.8 314.482 256 309.062C256.89 308.302 257.56 307.302 258 306.062C258.82 305.172 259.82 304.842 261 305.062C261 307.392 261 309.732 261 312.062Z" fill="#242523"/>
<path fill-rule="evenodd" clip-rule="evenodd" d="M222 358.062C223.27 358.652 224.6 359.152 226 359.562C238.78 372.022 252.95 382.522 268.5 391.062C270.58 411.062 263.74 427.232 248 439.562C240.31 443.792 232.14 446.622 223.5 448.062C213.16 447.022 202.99 444.852 193 441.562C185.29 438.962 179.46 434.132 175.5 427.062C167.27 411.922 165.27 395.922 169.5 379.062C170 378.562 170.5 378.062 171 377.562C190.84 378.012 207.84 371.512 222 358.062Z" fill="#A529A1"/>
<path fill-rule="evenodd" clip-rule="evenodd" d="M178 384.062C180.35 384.402 182.69 384.902 185 385.562C185.52 386.122 185.86 386.792 186 387.562C185.42 390.022 185.09 392.522 185 395.062C186.03 402.562 187.03 410.062 188 417.562C187.5 419.392 186.33 420.562 184.5 421.062C182.56 420.122 180.89 418.792 179.5 417.062C177.83 413.392 176.17 409.732 174.5 406.062C173.08 398.212 174.24 390.882 178 384.062Z" fill="#BB45D3"/>
</svg>
