<svg width="500" height="500" viewBox="0 0 500 500" fill="none" xmlns="http://www.w3.org/2000/svg">
<path fill-rule="evenodd" clip-rule="evenodd" d="M195 116.061C192.47 118.291 191.14 121.121 191 124.561C192.41 128.481 194.08 132.311 196 136.061C193.87 140.741 192.37 145.741 191.5 151.061C188.68 154.981 185.68 154.981 182.5 151.061C181.75 146.081 181.25 141.081 181 136.061C179.3 135.591 177.8 135.591 176.5 136.061C165.78 151.121 155.44 166.451 145.5 182.061C142.74 185.911 139.74 189.581 136.5 193.061C135.49 194.581 134.99 196.251 135 198.061C134 198.061 133 198.061 132 198.061C142.96 174.801 154.46 151.801 166.5 129.061C169.33 127.561 171.5 125.391 173 122.561C177.55 122.121 181.22 120.121 184 116.561C187.62 114.841 191.29 114.681 195 116.061Z" fill="#C6E4F7"/>
<path fill-rule="evenodd" clip-rule="evenodd" d="M268 174.062C268.15 175.112 267.98 176.112 267.5 177.062C261.85 183.062 256.68 189.392 252 196.062C249.4 201.322 245.73 205.662 241 209.062C238.9 210.672 236.57 211.172 234 210.562C231.14 208.872 228.81 206.702 227 204.062C227.1 196.072 225.6 188.412 222.5 181.062C220.59 182.752 218.42 183.252 216 182.562C213.54 181.102 211.37 179.272 209.5 177.062C206.85 168.832 204.52 160.502 202.5 152.062C200.59 146.592 198.43 141.252 196 136.062C194.08 132.312 192.41 128.482 191 124.562C191.14 121.122 192.47 118.292 195 116.062C199.85 114.752 204.85 114.752 210 116.062C217.08 124.302 223.58 132.972 229.5 142.062C230.4 143.262 231.57 144.092 233 144.562C238.18 144.692 243.18 145.692 248 147.562C256.44 155.162 263.11 163.992 268 174.062Z" fill="#8CC2EA"/>
<path fill-rule="evenodd" clip-rule="evenodd" d="M196 136.061C198.43 141.251 200.59 146.591 202.5 152.061C204.52 160.501 206.85 168.831 209.5 177.061C211.37 179.271 213.54 181.101 216 182.561C218.42 183.251 220.59 182.751 222.5 181.061C225.6 188.411 227.1 196.071 227 204.061C224.22 208.331 220.39 211.331 215.5 213.061C213.35 212.921 211.68 211.921 210.5 210.061C207.42 206.241 204.59 202.241 202 198.061C196.52 201.541 191.02 204.881 185.5 208.061C181.35 207.081 178.18 204.741 176 201.061C175.29 198.811 174.79 196.481 174.5 194.061C173.7 192.761 172.53 192.091 171 192.061C167.9 193.081 164.9 194.251 162 195.561C152.95 196.021 143.95 196.851 135 198.061C134.99 196.251 135.49 194.581 136.5 193.061C139.74 189.581 142.74 185.911 145.5 182.061C155.44 166.451 165.78 151.121 176.5 136.061C177.8 135.591 179.3 135.591 181 136.061C181.25 141.081 181.75 146.081 182.5 151.061C185.68 154.981 188.68 154.981 191.5 151.061C192.37 145.741 193.87 140.741 196 136.061Z" fill="#FBFBFB"/>
<path fill-rule="evenodd" clip-rule="evenodd" d="M312 152.061C305.54 151.871 301.87 154.871 301 161.061C301 160.061 301 159.061 301 158.061C299.67 158.061 298.33 158.061 297 158.061C291.95 163.991 287.79 170.661 284.5 178.061C281.83 181.401 278.33 183.231 274 183.561C269.12 188.771 264.62 194.271 260.5 200.061C260 202.031 259.84 204.031 260 206.061C256.85 203.091 254.19 199.761 252 196.061C256.68 189.391 261.85 183.061 267.5 177.061C267.98 176.111 268.15 175.111 268 174.061C269 174.151 269.83 173.811 270.5 173.061C275.52 164.371 281.69 156.531 289 149.561C294.3 147.301 299.13 148.141 303.5 152.061C306.44 150.741 309.27 150.741 312 152.061Z" fill="#C6E3F7"/>
<path fill-rule="evenodd" clip-rule="evenodd" d="M358 202.061C357.19 203.401 356.02 204.401 354.5 205.061C353.82 206.341 353.98 207.511 355 208.561C352.2 209.311 349.53 208.981 347 207.561C345.11 205.261 343.11 203.091 341 201.061C339.83 205.391 337 207.731 332.5 208.061C328.75 207.181 325.41 205.521 322.5 203.061C320.11 204.831 318.44 207.171 317.5 210.061C313.09 215.391 309.26 214.891 306 208.561C304.37 208.071 302.7 207.901 301 208.061C301 192.391 301 176.731 301 161.061C301.87 154.871 305.54 151.871 312 152.061C319.2 149.911 325.04 151.911 329.5 158.061C339.62 172.341 349.12 187.011 358 202.061Z" fill="#8BC1E9"/>
<path fill-rule="evenodd" clip-rule="evenodd" d="M301 161.062C301 176.732 301 192.392 301 208.062C300.33 208.062 300 208.392 300 209.062C299 209.152 298.17 208.812 297.5 208.062C293.09 212.742 288.09 216.412 282.5 219.062C281.06 219.002 279.73 218.672 278.5 218.062C278.17 214.732 277.83 211.392 277.5 208.062C275.59 209.492 273.43 210.162 271 210.062C267.35 208.772 263.69 207.442 260 206.062C259.84 204.032 260 202.032 260.5 200.062C264.62 194.272 269.12 188.772 274 183.562C278.33 183.232 281.83 181.402 284.5 178.062C287.79 170.662 291.95 163.992 297 158.062C298.33 158.062 299.67 158.062 301 158.062C301 159.062 301 160.062 301 161.062Z" fill="#FAFBFB"/>
<path fill-rule="evenodd" clip-rule="evenodd" d="M176 201.062C175.25 212.582 174.58 224.242 174 236.062C176.69 235.902 179.35 236.062 182 236.562C182.81 236.872 183.47 237.372 184 238.062C186.09 243.742 187.43 249.572 188 255.562C179.95 272.682 171.95 289.852 164 307.062C160.91 307.192 159.07 308.852 158.5 312.062C155.51 318.032 153.51 324.362 152.5 331.062C149.84 321.752 147.18 312.422 144.5 303.062C142.61 294.912 139.61 294.242 135.5 301.062C133.13 310.212 130.3 319.212 127 328.062C113.5 325.642 99.83 323.472 86 321.562C84 320.372 82.34 318.872 81 317.062C84.85 306.692 89.02 296.362 93.5 286.062C93.83 283.062 94.17 280.062 94.5 277.062C101.08 257.682 108.42 238.682 116.5 220.062C121.92 212.822 127.09 205.492 132 198.062C133 198.062 134 198.062 135 198.062C143.95 196.852 152.95 196.022 162 195.562C164.9 194.252 167.9 193.082 171 192.062C172.53 192.092 173.7 192.762 174.5 194.062C174.79 196.482 175.29 198.812 176 201.062Z" fill="#C0C0BF"/>
<path fill-rule="evenodd" clip-rule="evenodd" d="M252 196.062C254.19 199.762 256.85 203.092 260 206.062C263.69 207.442 267.35 208.772 271 210.062C273.43 210.162 275.59 209.492 277.5 208.062C277.83 211.392 278.17 214.732 278.5 218.062C279.73 218.672 281.06 219.002 282.5 219.062C288.09 216.412 293.09 212.742 297.5 208.062C298.17 208.812 299 209.152 300 209.062C299.98 210.622 299.65 212.122 299 213.562C300.21 215.192 301.05 217.022 301.5 219.062C302.41 227.942 304.24 236.612 307 245.062C285.62 239.792 265.62 242.952 247 254.562C245.15 256.582 243.15 258.412 241 260.062C237.33 266.732 233.67 273.392 230 280.062C230.12 280.672 230.46 281.002 231 281.062C229.27 283.382 228.61 286.052 229 289.062C225.98 306.212 232.32 318.382 248 325.562C256.59 329.342 265.59 331.002 275 330.562C288.39 331.182 301.72 330.682 315 329.062C313.52 335.862 310.52 341.862 306 347.062C289.32 346.872 272.66 347.212 256 348.062C245.74 347.332 235.58 346.002 225.5 344.062C208.68 347.592 191.85 347.922 175 345.062C172.87 337.092 170.87 329.092 169 321.062C177.64 302.782 187.14 284.782 197.5 267.062C200.56 259.282 203.89 251.612 207.5 244.062C213 237.232 218.5 230.392 224 223.562C228.21 221.972 232.38 220.472 236.5 219.062C237.82 215.602 239.32 212.262 241 209.062C245.73 205.662 249.4 201.322 252 196.062Z" fill="#BFC0BF"/>
<path fill-rule="evenodd" clip-rule="evenodd" d="M227 204.062C228.81 206.702 231.14 208.872 234 210.562C236.57 211.172 238.9 210.672 241 209.062C239.32 212.262 237.82 215.602 236.5 219.062C232.38 220.472 228.21 221.972 224 223.562C218.5 230.392 213 237.232 207.5 244.062C203.89 251.612 200.56 259.282 197.5 267.062C187.14 284.782 177.64 302.782 169 321.062C166.96 316.602 165.29 311.942 164 307.062C171.95 289.852 179.95 272.682 188 255.562C187.43 249.572 186.09 243.742 184 238.062C183.47 237.372 182.81 236.872 182 236.562C179.35 236.062 176.69 235.902 174 236.062C174.58 224.242 175.25 212.582 176 201.062C178.18 204.742 181.35 207.082 185.5 208.062C191.02 204.882 196.52 201.542 202 198.062C204.59 202.242 207.42 206.242 210.5 210.062C211.68 211.922 213.35 212.922 215.5 213.062C220.39 211.332 224.22 208.332 227 204.062Z" fill="#9EA2A3"/>
<path fill-rule="evenodd" clip-rule="evenodd" d="M358 202.062C361.64 206.542 365.14 211.212 368.5 216.062C377.4 235.152 386.57 254.152 396 273.062C399.95 274.192 403.28 276.192 406 279.062C403.5 289.352 401 299.682 398.5 310.062C397.32 303.382 393.49 299.712 387 299.062C382.05 286.492 376.05 274.492 369 263.062C364.51 268.382 359.51 273.222 354 277.562C352.71 278.052 351.37 278.222 350 278.062C347.1 267.662 340.77 260.162 331 255.562C322.61 252.722 314.61 249.222 307 245.062C304.24 236.612 302.41 227.942 301.5 219.062C301.05 217.022 300.21 215.192 299 213.562C299.65 212.122 299.98 210.622 300 209.062C300 208.392 300.33 208.062 301 208.062C302.7 207.902 304.37 208.072 306 208.562C309.26 214.892 313.09 215.392 317.5 210.062C318.44 207.172 320.11 204.832 322.5 203.062C325.41 205.522 328.75 207.182 332.5 208.062C337 207.732 339.83 205.392 341 201.062C343.11 203.092 345.11 205.262 347 207.562C349.53 208.982 352.2 209.312 355 208.562C353.98 207.512 353.82 206.342 354.5 205.062C356.02 204.402 357.19 203.402 358 202.062Z" fill="#9FA2A3"/>
<path fill-rule="evenodd" clip-rule="evenodd" d="M307 245.062C314.61 249.222 322.61 252.722 331 255.562C340.77 260.162 347.1 267.662 350 278.062C351.01 278.962 351.01 279.622 350 280.062C345.72 277.582 341.39 275.082 337 272.562C331.95 271.432 326.95 270.102 322 268.562C307.62 266.762 299.95 273.262 299 288.062C300.23 304.102 308.9 310.602 325 307.562C327.77 306.092 330.27 304.262 332.5 302.062C336.24 295.652 338.41 288.982 339 282.062C343.08 284.832 347.41 285.832 352 285.062C355.05 292.992 354.22 300.662 349.5 308.062C343.98 314.762 337.48 320.102 330 324.062C328.09 321.232 325.43 320.392 322 321.562C318.66 323.032 316.33 325.532 315 329.062C301.72 330.682 288.39 331.182 275 330.562C265.59 331.002 256.59 329.342 248 325.562C232.32 318.382 225.98 306.212 229 289.062C233.71 289.372 237.38 287.542 240 283.562C240.67 282.892 241.33 282.892 242 283.562C240.04 293.362 243.04 301.362 251 307.562C265.36 311.232 275.2 306.062 280.5 292.062C281.17 290.062 281.17 288.062 280.5 286.062C278.25 282.232 276.58 278.232 275.5 274.062C273.55 271.672 271.05 270.172 268 269.562C253.25 265.952 240.92 269.782 231 281.062C230.46 281.002 230.12 280.672 230 280.062C233.67 273.392 237.33 266.732 241 260.062C243.15 258.412 245.15 256.582 247 254.562C265.62 242.952 285.62 239.792 307 245.062Z" fill="#F9F9F9"/>
<path fill-rule="evenodd" clip-rule="evenodd" d="M425 318.062C426 324.702 426.16 331.372 425.5 338.062C419.81 342.492 413.31 344.152 406 343.062C406.21 344.702 405.88 346.202 405 347.562C396.47 352.722 387.81 353.222 379 349.062C378.03 346.822 377.69 344.482 378 342.062C381.64 327.942 384.64 313.602 387 299.062C393.49 299.712 397.32 303.382 398.5 310.062C401 299.682 403.5 289.352 406 279.062C407.1 273.732 408.27 268.392 409.5 263.062C411.92 260.882 414.58 260.552 417.5 262.062C420.46 274.582 422.8 287.252 424.5 300.062C425 306.052 425.17 312.052 425 318.062Z" fill="#34632D"/>
<path fill-rule="evenodd" clip-rule="evenodd" d="M387 299.062C384.64 313.602 381.64 327.942 378 342.062C364.09 344.382 350.09 346.052 336 347.062C334.28 339.302 332.28 331.632 330 324.062C337.48 320.102 343.98 314.762 349.5 308.062C354.22 300.662 355.05 292.992 352 285.062C352.13 283.012 351.47 281.342 350 280.062C351.01 279.622 351.01 278.962 350 278.062C351.37 278.222 352.71 278.052 354 277.562C359.51 273.222 364.51 268.382 369 263.062C376.05 274.492 382.05 286.492 387 299.062Z" fill="#BFBFBF"/>
<path fill-rule="evenodd" clip-rule="evenodd" d="M229 289.062C228.61 286.052 229.27 283.382 231 281.062C240.92 269.782 253.25 265.952 268 269.562C271.05 270.172 273.55 271.672 275.5 274.062C276.58 278.232 278.25 282.232 280.5 286.062C281.17 288.062 281.17 290.062 280.5 292.062C275.2 306.062 265.36 311.232 251 307.562C243.04 301.362 240.04 293.362 242 283.562C241.33 282.892 240.67 282.892 240 283.562C237.38 287.542 233.71 289.372 229 289.062Z" fill="#050505"/>
<path fill-rule="evenodd" clip-rule="evenodd" d="M350 280.061C351.47 281.341 352.13 283.011 352 285.061C347.41 285.831 343.08 284.831 339 282.061C338.41 288.981 336.24 295.651 332.5 302.061C330.27 304.261 327.77 306.091 325 307.561C308.9 310.601 300.23 304.101 299 288.061C299.95 273.261 307.62 266.761 322 268.561C326.95 270.101 331.95 271.431 337 272.561C341.39 275.081 345.72 277.581 350 280.061Z" fill="#070707"/>
<path fill-rule="evenodd" clip-rule="evenodd" d="M311 273.062C317.5 272.742 319.66 275.742 317.5 282.062C316.71 287.682 313.54 289.522 308 287.562C303.37 281.502 304.37 276.672 311 273.062Z" fill="#F7F7F7"/>
<path fill-rule="evenodd" clip-rule="evenodd" d="M264 275.061C269.39 273.961 272.39 276.121 273 281.561C272.07 286.291 269.4 289.461 265 291.061C261.36 289.921 259.36 287.421 259 283.561C260.02 280.351 261.69 277.521 264 275.061Z" fill="#F4F4F4"/>
<path fill-rule="evenodd" clip-rule="evenodd" d="M163.999 307.062C165.289 311.942 166.959 316.602 168.999 321.062C170.869 329.092 172.869 337.092 174.999 345.062C175.299 349.662 174.969 354.162 173.999 358.562C166.769 360.152 159.439 360.492 151.999 359.562C149.859 358.592 148.189 357.092 146.999 355.062C147.999 351.052 148.999 347.052 149.999 343.062C142.329 344.392 134.669 344.392 126.999 343.062C125.729 338.052 125.729 333.052 126.999 328.062C130.299 319.212 133.129 310.212 135.499 301.062C139.609 294.242 142.609 294.912 144.499 303.062C147.179 312.422 149.839 321.752 152.499 331.062C153.509 324.362 155.509 318.032 158.499 312.062C159.069 308.852 160.909 307.192 163.999 307.062Z" fill="#33632C"/>
<path fill-rule="evenodd" clip-rule="evenodd" d="M300 311.062C302.45 310.572 304.12 311.402 305 313.562C302.87 319.402 298.87 322.402 293 322.562C289.88 320.922 286.71 319.422 283.5 318.062C282.64 315.082 283.81 313.752 287 314.062C290.12 314.982 293.12 315.812 296 316.562C297.94 315.132 299.27 313.292 300 311.062Z" fill="#0C0C0C"/>
<path fill-rule="evenodd" clip-rule="evenodd" d="M80.9993 317.062C82.3393 318.872 83.9993 320.372 85.9993 321.562C99.8293 323.472 113.499 325.642 126.999 328.062C125.729 333.052 125.729 338.052 126.999 343.062C134.669 344.392 142.329 344.392 149.999 343.062C148.999 347.052 147.999 351.052 146.999 355.062C148.189 357.092 149.859 358.592 151.999 359.562C159.439 360.492 166.769 360.152 173.999 358.562C174.969 354.162 175.299 349.662 174.999 345.062C191.849 347.922 208.679 347.592 225.499 344.062C235.579 346.002 245.739 347.332 255.999 348.062C272.659 347.212 289.319 346.872 305.999 347.062C304.039 349.522 301.869 351.862 299.499 354.062C298.829 355.732 298.829 357.392 299.499 359.062C301.549 360.452 303.709 361.612 305.999 362.562C316.069 363.482 326.069 363.152 335.999 361.562C337.619 360.442 338.619 358.942 338.999 357.062C337.579 353.872 336.579 350.542 335.999 347.062C350.089 346.052 364.089 344.382 377.999 342.062C377.689 344.482 378.029 346.822 378.999 349.062C387.809 353.222 396.469 352.722 404.999 347.562C405.879 346.202 406.209 344.702 405.999 343.062C413.309 344.152 419.809 342.492 425.499 338.062C426.159 331.372 425.999 324.702 424.999 318.062C438.029 321.422 445.359 329.752 446.999 343.062C445.229 349.332 441.229 353.492 434.999 355.562C422.339 361.722 409.339 367.062 395.999 371.562C379.419 374.552 362.749 376.882 345.999 378.562C341.919 379.252 337.919 380.252 333.999 381.562C269.659 386.062 205.329 386.062 140.999 381.562C119.439 375.492 97.7794 369.822 75.9993 364.562C73.9993 363.562 71.9993 362.562 69.9993 361.562C67.2993 358.522 64.2993 355.862 60.9993 353.562C58.5393 350.102 55.6993 346.932 52.4993 344.062C51.4693 339.282 52.4693 334.952 55.4993 331.062C58.6693 327.892 61.8293 324.732 64.9993 321.562C70.3193 319.952 75.6593 318.452 80.9993 317.062Z" fill="#88B154"/>
<path fill-rule="evenodd" clip-rule="evenodd" d="M330.001 324.062C332.281 331.632 334.281 339.302 336.001 347.062C336.581 350.542 337.581 353.872 339.001 357.062C338.621 358.942 337.621 360.442 336.001 361.562C326.071 363.152 316.071 363.482 306.001 362.562C303.711 361.612 301.551 360.452 299.501 359.062C298.831 357.392 298.831 355.732 299.501 354.062C301.871 351.862 304.041 349.522 306.001 347.062C310.521 341.862 313.521 335.862 315.001 329.062C316.331 325.532 318.661 323.032 322.001 321.562C325.431 320.392 328.091 321.232 330.001 324.062Z" fill="#33632C"/>
</svg>
