<svg width="500" height="500" viewBox="0 0 500 500" fill="none" xmlns="http://www.w3.org/2000/svg">
<path fill-rule="evenodd" clip-rule="evenodd" d="M300 364.062C298.68 363.742 297.35 363.412 296 363.062C292.81 364.432 289.48 365.262 286 365.562C267.72 367.752 249.39 368.412 231 367.562C227.3 367.242 223.64 366.742 220 366.062C219.08 366.102 218.42 366.442 218 367.062C199.27 365.862 181.94 360.362 166 350.562C152.28 340.512 139.45 329.352 127.5 317.062C116.36 296.982 108.36 275.642 103.5 253.062C103.27 215.432 104.6 177.762 107.5 140.062C108.87 132.222 110.87 124.562 113.5 117.062C117.35 111.192 121.02 105.192 124.5 99.0621C133.41 91.5221 143.24 85.3521 154 80.5621C161.84 78.1821 169.84 77.5121 178 78.5621C183.55 80.6321 189.22 82.3021 195 83.5621C208.34 88.5721 221.68 93.5721 235 98.5621C249.4 102.012 263.74 101.682 278 97.5621C294.89 92.4921 311.56 86.8221 328 80.5621C336.26 79.4821 344.26 80.4821 352 83.5621C358.96 86.7021 365.62 90.3721 372 94.5621C376.13 100.322 379.63 106.492 382.5 113.062C384.6 124.022 386.6 135.022 388.5 146.062C390.62 177.612 393.12 209.112 396 240.562C396.04 248.102 395.54 255.602 394.5 263.062C391.1 275.592 387.1 287.922 382.5 300.062C376.17 308.392 369.83 316.732 363.5 325.062C356 331.892 348.5 338.732 341 345.562C338.27 347.952 335.27 349.952 332 351.562C321.49 356.232 310.82 360.392 300 364.062Z" fill="#8FD72F"/>
<path fill-rule="evenodd" clip-rule="evenodd" d="M153.001 94.062C171.531 94.092 178.701 103.092 174.501 121.062C169.291 128.672 162.131 131.172 153.001 128.562C149.521 125.412 146.351 121.912 143.501 118.062C142.831 113.062 142.831 108.062 143.501 103.062C145.371 98.572 148.541 95.572 153.001 94.062Z" fill="#FAFBF8"/>
<path fill-rule="evenodd" clip-rule="evenodd" d="M342 97.062C345.68 96.892 349.35 97.062 353 97.562C361.03 103.312 364.2 111.142 362.5 121.062C358.08 129.522 351.24 132.352 342 129.562C332.52 125.412 329.35 118.252 332.5 108.062C334.81 103.582 337.98 99.922 342 97.062Z" fill="#F9FBF7"/>
<path fill-rule="evenodd" clip-rule="evenodd" d="M157 101.062C166 100.892 169.84 105.232 168.5 114.062C163.25 120.342 157.59 120.672 151.5 115.062C149.52 108.642 151.35 103.982 157 101.062Z" fill="#090909"/>
<path fill-rule="evenodd" clip-rule="evenodd" d="M345.001 103.062C354.651 104.492 357.481 109.492 353.501 118.062C348.471 122.342 343.801 122.012 339.501 117.062C338.831 114.392 338.831 111.732 339.501 109.062C341.541 107.192 343.371 105.192 345.001 103.062Z" fill="#080808"/>
<path fill-rule="evenodd" clip-rule="evenodd" d="M240 148.062C245.57 147.312 247.4 149.652 245.5 155.062C241.66 159.392 238.83 158.892 237 153.562C237.36 151.372 238.36 149.532 240 148.062Z" fill="#32612C"/>
<path fill-rule="evenodd" clip-rule="evenodd" d="M270 149.062C274.99 148.892 276.83 151.222 275.5 156.062C271.66 160.392 268.83 159.892 267 154.562C267.36 152.372 268.36 150.532 270 149.062Z" fill="#33632C"/>
<path fill-rule="evenodd" clip-rule="evenodd" d="M358 279.062C356.69 276.092 354.69 273.752 352 272.062C356.48 271.742 357.98 269.402 356.5 265.062C351.51 261.832 346.68 258.492 342 255.062C340.26 247.172 337.92 239.502 335 232.062C333.33 237.422 331.66 242.752 330 248.062C321.32 246.722 312.98 244.382 305 241.062C305.27 233.502 304.43 225.832 302.5 218.062C300.93 214.492 298.6 211.492 295.5 209.062C295.35 219.472 294.51 229.802 293 240.062C290.64 239.902 288.31 240.062 286 240.562C281.28 243.252 276.95 246.412 273 250.062C271.24 238.112 268.41 226.442 264.5 215.062C258.69 209.072 252.19 204.072 245 200.062C238.26 205.512 232.43 211.842 227.5 219.062C226.02 224.642 225.02 230.312 224.5 236.062C217.91 241.442 212.24 240.442 207.5 233.062C204.44 225.872 201.77 218.542 199.5 211.062C196.18 218.362 192.85 225.702 189.5 233.062C184.89 239.762 179.22 240.762 172.5 236.062C170.19 229.482 168.19 222.812 166.5 216.062C161.83 221.392 158.16 227.392 155.5 234.062C151.14 243.782 147.64 253.782 145 264.062C142.34 267.912 141.34 272.242 142 277.062C142 277.732 142 278.392 142 279.062C133.42 285.682 128.42 283.522 127 272.562C127.78 265.102 128.28 257.602 128.5 250.062C132.72 237.382 137.72 225.052 143.5 213.062C148.86 203.362 156.03 195.192 165 188.562C177.4 182.362 190.07 176.692 203 171.562C214.43 170.432 225.93 169.932 237.5 170.062C264.31 167.552 289.47 172.722 313 185.562C325 193.892 337 202.232 349 210.562C356.31 220.012 362.48 230.182 367.5 241.062C368.17 252.732 368.17 264.392 367.5 276.062C365.16 279.892 361.99 280.892 358 279.062Z" fill="#A56133"/>
<path fill-rule="evenodd" clip-rule="evenodd" d="M273 250.062C262.84 266.622 262.34 283.622 271.5 301.062C282.76 310.692 295.59 313.532 310 309.562C314.06 307.452 317.89 304.952 321.5 302.062C326.03 293.662 330.03 285.002 333.5 276.062C333.5 272.062 333.5 268.062 333.5 264.062C338.79 268.752 344.96 271.412 352 272.062C354.69 273.752 356.69 276.092 358 279.062C358.16 281.422 358 283.752 357.5 286.062C349.95 301.272 339.78 314.442 327 325.562C303.97 340.652 278.64 347.152 251 345.062C224.66 342.972 199.33 336.812 175 326.562C166.11 319.012 157.95 310.842 150.5 302.062C147.37 294.502 144.53 286.832 142 279.062C142 278.392 142 277.732 142 277.062C144.61 277.992 147.28 278.162 150 277.562C155.1 274.292 159.77 270.462 164 266.062C164.87 268.032 164.71 270.032 163.5 272.062C162.4 287.842 168.23 300.342 181 309.562C194.74 314.832 207.4 312.832 219 303.562C223.9 297.502 228.07 291.002 231.5 284.062C233.58 274.712 231.58 266.382 225.5 259.062C224.08 249.642 218.58 244.142 209 242.562C197.83 238.932 186.83 239.262 176 243.562C163.61 247.482 153.28 254.312 145 264.062C147.64 253.782 151.14 243.782 155.5 234.062C158.16 227.392 161.83 221.392 166.5 216.062C168.19 222.812 170.19 229.482 172.5 236.062C179.22 240.762 184.89 239.762 189.5 233.062C192.85 225.702 196.18 218.362 199.5 211.062C201.77 218.542 204.44 225.872 207.5 233.062C212.24 240.442 217.91 241.442 224.5 236.062C225.02 230.312 226.02 224.642 227.5 219.062C232.43 211.842 238.26 205.512 245 200.062C252.19 204.072 258.69 209.072 264.5 215.062C268.41 226.442 271.24 238.112 273 250.062Z" fill="#F9F9F9"/>
<path fill-rule="evenodd" clip-rule="evenodd" d="M305 241.062C301 240.732 297 240.392 293 240.062C294.51 229.802 295.35 219.472 295.5 209.062C298.6 211.492 300.93 214.492 302.5 218.062C304.43 225.832 305.27 233.502 305 241.062Z" fill="#F7F5F3"/>
<path fill-rule="evenodd" clip-rule="evenodd" d="M342 255.062C338.26 252.192 334.26 249.862 330 248.062C331.66 242.752 333.33 237.422 335 232.062C337.92 239.502 340.26 247.172 342 255.062Z" fill="#F1EBE7"/>
<path fill-rule="evenodd" clip-rule="evenodd" d="M142 277.062C141.34 272.242 142.34 267.912 145 264.062C153.28 254.312 163.61 247.482 176 243.562C186.83 239.262 197.83 238.932 209 242.562C218.58 244.142 224.08 249.642 225.5 259.062C231.58 266.382 233.58 274.712 231.5 284.062C228.07 291.002 223.9 297.502 219 303.562C207.4 312.832 194.74 314.832 181 309.562C168.23 300.342 162.4 287.842 163.5 272.062C164.71 270.032 164.87 268.032 164 266.062C159.77 270.462 155.1 274.292 150 277.562C147.28 278.162 144.61 277.992 142 277.062Z" fill="#050505"/>
<path fill-rule="evenodd" clip-rule="evenodd" d="M293 240.062C297 240.392 301 240.732 305 241.062C312.98 244.382 321.32 246.722 330 248.062C334.26 249.862 338.26 252.192 342 255.062C346.68 258.492 351.51 261.832 356.5 265.062C357.98 269.402 356.48 271.742 352 272.062C344.96 271.412 338.79 268.752 333.5 264.062C333.5 268.062 333.5 272.062 333.5 276.062C330.03 285.002 326.03 293.662 321.5 302.062C317.89 304.952 314.06 307.452 310 309.562C295.59 313.532 282.76 310.692 271.5 301.062C262.34 283.622 262.84 266.622 273 250.062C276.95 246.412 281.28 243.252 286 240.562C288.31 240.062 290.64 239.902 293 240.062Z" fill="#040404"/>
<path fill-rule="evenodd" clip-rule="evenodd" d="M287 249.062C294.04 248.552 297.7 251.722 298 258.562C296.8 262.962 295.97 267.462 295.5 272.062C290.68 276.522 285.34 277.192 279.5 274.062C277 270.732 275.17 267.062 274 263.062C274.08 261.262 274.58 259.592 275.5 258.062C279.09 254.612 282.93 251.612 287 249.062Z" fill="#F6F6F6"/>
<path fill-rule="evenodd" clip-rule="evenodd" d="M205.001 253.062C213.181 252.242 217.841 255.902 219.001 264.062C218.501 273.372 213.831 279.042 205.001 281.062C197.161 278.062 194.001 272.392 195.501 264.062C197.091 261.892 198.421 259.562 199.501 257.062C201.311 255.582 203.151 254.252 205.001 253.062Z" fill="#F6F6F6"/>
<path fill-rule="evenodd" clip-rule="evenodd" d="M268 315.062C273.49 314.522 275.65 316.852 274.5 322.062C271.77 328.122 267.6 332.962 262 336.562C255.29 336.882 249.29 334.882 244 330.562C238.68 330.752 236.51 328.252 237.5 323.062C238.76 320.972 240.59 319.972 243 320.062C247.07 321.592 251.07 323.422 255 325.562C256.67 326.232 258.33 326.232 260 325.562C262.15 321.592 264.81 318.092 268 315.062Z" fill="#0C0C0C"/>
<path fill-rule="evenodd" clip-rule="evenodd" d="M300 364.062C303.91 368.892 307.58 373.892 311 379.062C315.83 376.812 320.49 374.312 325 371.562C331.84 369.872 334.68 372.372 333.5 379.062C328.87 385.002 322.71 388.002 315 388.062C315.85 393.682 316.19 399.352 316 405.062C308.5 406.122 301.17 407.122 294 408.062C288.72 406.302 283.05 405.302 277 405.062C277.3 402.962 276.97 400.962 276 399.062C274.63 401.322 273.63 403.662 273 406.062C271.85 404.662 270.85 404.832 270 406.562C263.78 407.522 257.78 407.022 252 405.062C252.13 403.272 251.8 401.602 251 400.062C258.17 386.712 254.17 381.212 239 383.562C236.65 384.572 234.99 386.242 234 388.562C236.17 394.242 240.17 397.412 246 398.062C245.43 401.472 244.09 404.472 242 407.062C241.88 405.972 241.21 405.312 240 405.062C233.47 404.982 227.47 403.312 222 400.062C221.85 388.832 220.51 377.832 218 367.062C218.42 366.442 219.08 366.102 220 366.062C223.64 366.742 227.3 367.242 231 367.562C249.39 368.412 267.72 367.752 286 365.562C289.48 365.262 292.81 364.432 296 363.062C297.35 363.412 298.68 363.742 300 364.062Z" fill="#A36032"/>
<path fill-rule="evenodd" clip-rule="evenodd" d="M251 400.062C249.95 398.302 248.28 397.642 246 398.062C240.17 397.412 236.17 394.242 234 388.562C234.99 386.242 236.65 384.572 239 383.562C254.17 381.212 258.17 386.712 251 400.062Z" fill="#D7A38A"/>
<path fill-rule="evenodd" clip-rule="evenodd" d="M222.001 400.062C227.471 403.312 233.471 404.982 240.001 405.062C241.211 405.312 241.881 405.972 242.001 407.062C241.661 409.242 240.661 411.072 239.001 412.562C234.091 414.052 229.091 414.392 224.001 413.562C218.081 409.892 217.421 405.392 222.001 400.062Z" fill="#8ED82F"/>
<path fill-rule="evenodd" clip-rule="evenodd" d="M252 405.062C257.78 407.022 263.78 407.522 270 406.562C270.85 404.832 271.85 404.662 273 406.062C273.01 414.582 268.68 418.912 260 419.062C250.56 418.182 247.9 413.522 252 405.062Z" fill="#8FD731"/>
<path fill-rule="evenodd" clip-rule="evenodd" d="M277 405.062C283.05 405.302 288.72 406.302 294 408.062C290.52 411.112 290.19 414.452 293 418.062C287.03 419.872 281.36 419.372 276 416.562C273.45 412.562 273.78 408.732 277 405.062Z" fill="#6FA629"/>
<path fill-rule="evenodd" clip-rule="evenodd" d="M316 405.062C316.76 415.142 311.93 420.482 301.5 421.062C299.67 420.892 297.83 420.732 296 420.562C294.56 420.182 293.56 419.352 293 418.062C290.19 414.452 290.52 411.112 294 408.062C301.17 407.122 308.5 406.122 316 405.062Z" fill="#8FD730"/>
</svg>
