<svg width="500" height="500" viewBox="0 0 500 500" fill="none" xmlns="http://www.w3.org/2000/svg">
<path fill-rule="evenodd" clip-rule="evenodd" d="M274 129.062C272.37 132.212 272.04 135.542 273 139.062C277.93 140.652 279.93 143.992 279 149.062C276.94 151.612 274.28 153.112 271 153.562C266.3 154.212 261.63 154.042 257 153.062C254.58 152.252 252.25 151.252 250 150.062C247.52 148.872 246.52 146.872 247 144.062C248.06 139.352 251.06 137.352 256 138.062C256 135.732 256 133.392 256 131.062C256 123.062 256 115.062 256 107.062C245.06 105.662 234.06 104.832 223 104.562C211.78 101.282 208.11 94.1115 212 83.0615C213 82.5615 214 82.0615 215 81.5615C252.08 86.9015 289.41 89.9015 327 90.5615C331.47 95.0215 332.31 100.192 329.5 106.062C328.12 108.312 326.62 110.482 325 112.562C308.29 112.632 291.62 111.802 275 110.062C275.09 116.422 274.76 122.762 274 129.062Z" fill="#5D8E17"/>
<path fill-rule="evenodd" clip-rule="evenodd" d="M245 132.062C246.02 134.102 246.02 136.102 245 138.062C237.18 141.802 229.51 145.802 222 150.062C221.16 145.322 220.16 140.652 219 136.062C227.41 133.882 236.07 132.552 245 132.062Z" fill="#B9FE8F"/>
<path fill-rule="evenodd" clip-rule="evenodd" d="M273.999 129.062C275.429 130.102 277.099 130.762 278.999 131.062C281.399 137.522 284.059 143.852 286.999 150.062C292.909 146.282 298.579 142.282 303.999 138.062C307.069 139.412 310.069 140.742 312.999 142.062C310.479 142.322 308.149 143.152 305.999 144.562C300.169 148.232 294.509 152.062 288.999 156.062C293.029 165.312 297.529 174.312 302.499 183.062C310.439 178.672 318.279 174.172 325.999 169.562C321.909 160.882 318.239 152.042 314.999 143.062C318.199 144.492 321.199 146.162 323.999 148.062C323.459 148.122 323.119 148.452 322.999 149.062C325.729 155.522 328.729 161.862 331.999 168.062C335.889 166.292 339.559 164.292 342.999 162.062C345.039 163.742 347.039 165.402 348.999 167.062C344.319 168.732 339.659 170.402 334.999 172.062C337.799 180.322 342.129 187.652 347.999 194.062C353.299 191.402 358.299 188.402 362.999 185.062C364.819 186.682 366.149 188.682 366.999 191.062C361.039 193.042 355.699 196.042 350.999 200.062C356.309 207.202 361.809 214.202 367.499 221.062C370.649 218.582 373.809 216.252 376.999 214.062C378.369 215.812 379.369 217.812 379.999 220.062C376.639 221.242 373.639 223.082 370.999 225.562C375.559 229.962 379.899 234.462 383.999 239.062C385.969 243.762 386.309 248.422 384.999 253.062C385.159 251.692 384.989 250.352 384.499 249.062C377.349 254.542 370.519 260.382 363.999 266.562C368.869 272.262 374.539 277.092 380.999 281.062C381.679 280.702 382.349 280.362 382.999 280.062C382.429 285.842 380.759 291.172 377.999 296.062C378.069 295.622 377.899 295.292 377.499 295.062C370.489 301.242 363.659 307.572 356.999 314.062C360.409 317.432 364.409 319.762 368.999 321.062C367.989 323.132 366.989 325.132 365.999 327.062C361.639 324.212 357.139 321.542 352.499 319.062C349.849 320.882 347.349 322.882 344.999 325.062C344.329 323.062 343.669 321.062 342.999 319.062C344.459 318.102 345.789 316.942 346.999 315.562C340.429 311.662 334.429 306.992 328.999 301.562C328.329 300.892 327.669 300.892 326.999 301.562C320.169 308.392 313.329 315.232 306.499 322.062C305.829 323.062 305.829 324.062 306.499 325.062C311.179 330.572 316.009 335.902 320.999 341.062C326.319 336.242 331.489 331.242 336.499 326.062C336.979 325.112 337.149 324.112 336.999 323.062C338.159 325.832 338.819 328.832 338.999 332.062C334.199 336.362 329.539 340.862 324.999 345.562C329.559 350.292 334.229 354.792 338.999 359.062C337.999 360.732 336.669 362.062 334.999 363.062C330.559 359.122 326.229 354.962 321.999 350.562C321.329 349.892 320.669 349.892 319.999 350.562C311.859 359.192 304.189 368.192 296.999 377.562C298.289 379.362 299.959 380.532 301.999 381.062C295.379 384.492 288.379 387.162 280.999 389.062C280.999 388.392 280.999 387.732 280.999 387.062C283.619 384.112 286.279 381.112 288.999 378.062C283.309 371.542 277.809 364.872 272.499 358.062C264.479 368.242 256.309 378.242 247.999 388.062C245.329 387.732 242.669 387.392 239.999 387.062C234.659 380.052 229.329 373.052 223.999 366.062C220.149 371.762 216.809 377.762 213.999 384.062C211.639 383.892 209.309 383.552 206.999 383.062C206.999 382.732 206.999 382.392 206.999 382.062C207.879 382.192 208.539 381.862 208.999 381.062C211.989 374.402 215.489 368.072 219.499 362.062C220.169 360.732 220.169 359.392 219.499 358.062C218.309 355.672 217.139 353.342 215.999 351.062C221.679 351.192 227.349 351.532 232.999 352.062C231.749 354.212 230.249 356.212 228.499 358.062C227.829 359.062 227.829 360.062 228.499 361.062C232.729 368.792 237.899 375.792 243.999 382.062C252.319 372.902 260.489 363.572 268.499 354.062C268.019 352.022 267.179 350.022 265.999 348.062C280.499 343.062 292.339 334.392 301.499 322.062C302.979 319.402 304.139 316.742 304.999 314.062C311.869 309.352 317.869 303.192 322.999 295.562C318.199 288.482 313.039 281.642 307.499 275.062C303.529 278.022 299.869 281.362 296.499 285.062C296.039 285.652 295.869 286.322 295.999 287.062C294.359 285.082 292.699 283.082 290.999 281.062C294.439 278.802 297.769 276.302 300.999 273.562C302.399 272.502 303.399 271.172 303.999 269.562C298.419 261.082 293.089 252.412 287.999 243.562C286.589 243.242 285.259 243.582 283.999 244.562C276.859 250.122 270.189 256.122 263.999 262.562C264.239 263.462 264.579 264.302 264.999 265.062C261.919 264.262 258.919 263.262 255.999 262.062C251.789 251.942 247.289 241.942 242.499 232.062C234.449 238.592 226.789 245.592 219.499 253.062C219.859 255.672 220.359 258.342 220.999 261.062C222.669 261.062 224.329 261.062 225.999 261.062C218.759 261.082 212.089 263.252 205.999 267.562C201.829 268.232 197.829 269.402 193.999 271.062C199.609 264.112 205.609 257.452 211.999 251.062C208.919 240.492 205.249 230.152 200.999 220.062C193.049 226.512 185.549 233.512 178.499 241.062C177.829 242.732 177.829 244.392 178.499 246.062C181.599 255.542 184.769 264.872 187.999 274.062C186.559 275.622 184.889 276.962 182.999 278.062C179.409 267.782 175.909 257.452 172.499 247.062C164.799 254.422 157.469 262.092 150.499 270.062C149.829 271.732 149.829 273.392 150.499 275.062C154.299 285.472 158.299 295.812 162.499 306.062C163.209 305.182 164.039 304.512 164.999 304.062C164.829 305.052 165.159 305.722 165.999 306.062C167.949 312.102 169.119 318.432 169.499 325.062C173.269 334.342 179.769 340.672 188.999 344.062C186.579 346.622 185.419 349.622 185.499 353.062C190.379 360.752 194.539 368.752 197.999 377.062C194.809 375.962 191.809 374.632 188.999 373.062C189.439 373.132 189.769 372.962 189.999 372.562C186.869 367.482 183.869 362.312 180.999 357.062C178.849 359.702 177.509 362.702 176.999 366.062C174.699 365.092 172.699 363.752 170.999 362.062C174.779 358.162 176.619 353.492 176.499 348.062C171.169 338.062 165.829 328.062 160.499 318.062C155.239 324.272 150.739 330.932 146.999 338.062C145.309 336.362 143.969 334.362 142.999 332.062C147.859 324.862 152.859 317.692 157.999 310.562C153.689 299.282 149.189 288.112 144.499 277.062C137.719 284.002 131.549 291.332 125.999 299.062C124.489 297.382 123.489 295.382 122.999 293.062C129.529 285.212 136.199 277.372 142.999 269.562C138.809 257.962 135.309 246.132 132.499 234.062C128.469 239.582 124.299 244.912 119.999 250.062C119.679 245.532 120.019 241.192 120.999 237.062C120.869 237.802 121.039 238.472 121.499 239.062C124.679 234.692 127.849 230.352 130.999 226.062C130.079 220.492 128.749 215.152 126.999 210.062C127.819 206.262 129.489 202.922 131.999 200.062C132.769 207.212 134.269 214.212 136.499 221.062C143.169 213.062 150.499 205.732 158.499 199.062C157.019 191.452 155.349 183.782 153.499 176.062C153.259 174.442 152.429 173.442 150.999 173.062C152.099 170.172 154.099 168.172 156.999 167.062C159.179 175.822 161.679 184.482 164.499 193.062C172.839 185.822 181.009 178.492 188.999 171.062C187.059 163.652 185.389 156.322 183.999 149.062C185.699 147.372 187.699 146.032 189.999 145.062C190.799 152.862 192.299 160.532 194.499 168.062C201.199 163.202 208.029 158.532 214.999 154.062C215.329 152.892 215.669 151.732 215.999 150.562C215.279 146.062 214.609 141.562 213.999 137.062C215.419 136.112 217.089 135.782 218.999 136.062C220.159 140.652 221.159 145.322 221.999 150.062C229.509 145.802 237.179 141.802 244.999 138.062C246.019 136.102 246.019 134.102 244.999 132.062C248.679 131.842 252.349 131.502 255.999 131.062C255.999 133.392 255.999 135.732 255.999 138.062C251.059 137.352 248.059 139.352 246.999 144.062C238.579 147.442 230.579 151.602 222.999 156.562C225.469 166.962 228.639 177.132 232.499 187.062C240.239 181.272 248.079 175.602 255.999 170.062C253.689 163.472 251.689 156.802 249.999 150.062C252.249 151.252 254.579 152.252 256.999 153.062C258.019 157.812 259.349 162.482 260.999 167.062C267.329 162.892 273.669 158.732 279.999 154.562C281.479 152.332 281.149 150.492 278.999 149.062C279.929 143.992 277.929 140.652 272.999 139.062C272.039 135.542 272.369 132.212 273.999 129.062Z" fill="#E8F1AE"/>
<path fill-rule="evenodd" clip-rule="evenodd" d="M279 131.062C287.48 132.932 295.81 135.262 304 138.062C298.58 142.282 292.91 146.282 287 150.062C284.06 143.852 281.4 137.522 279 131.062Z" fill="#B8FE8E"/>
<path fill-rule="evenodd" clip-rule="evenodd" d="M214 137.062C214.61 141.562 215.28 146.062 216 150.562C215.67 151.732 215.33 152.892 215 154.062C208.03 158.532 201.2 163.202 194.5 168.062C192.3 160.532 190.8 152.862 190 145.062C197.26 140.202 205.26 137.532 214 137.062Z" fill="#B8FE8E"/>
<path fill-rule="evenodd" clip-rule="evenodd" d="M313 142.062C313.67 142.392 314.33 142.732 315 143.062C318.24 152.042 321.91 160.882 326 169.562C318.28 174.172 310.44 178.672 302.5 183.062C297.53 174.312 293.03 165.312 289 156.062C294.51 152.062 300.17 148.232 306 144.562C308.15 143.152 310.48 142.322 313 142.062Z" fill="#B8FE8E"/>
<path fill-rule="evenodd" clip-rule="evenodd" d="M247 144.062C246.52 146.872 247.52 148.872 250 150.062C251.69 156.802 253.69 163.472 256 170.062C248.08 175.602 240.24 181.272 232.5 187.062C228.64 177.132 225.47 166.962 223 156.562C230.58 151.602 238.58 147.442 247 144.062Z" fill="#B8FE8E"/>
<path fill-rule="evenodd" clip-rule="evenodd" d="M324 148.062C330.9 151.952 337.23 156.622 343 162.062C339.56 164.292 335.89 166.292 332 168.062C328.73 161.862 325.73 155.522 323 149.062C323.12 148.452 323.46 148.122 324 148.062Z" fill="#B8FE8E"/>
<path fill-rule="evenodd" clip-rule="evenodd" d="M184 149.062C185.39 156.322 187.06 163.652 189 171.062C181.01 178.492 172.84 185.822 164.5 193.062C161.68 184.482 159.18 175.822 157 167.062C165.45 160.282 174.45 154.282 184 149.062Z" fill="#B8FE8E"/>
<path fill-rule="evenodd" clip-rule="evenodd" d="M279 149.062C281.15 150.492 281.48 152.332 280 154.562C273.67 158.732 267.33 162.892 261 167.062C259.35 162.482 258.02 157.812 257 153.062C261.63 154.042 266.3 154.212 271 153.562C274.28 153.112 276.94 151.612 279 149.062Z" fill="#B9FD8F"/>
<path fill-rule="evenodd" clip-rule="evenodd" d="M217 159.062C220.39 169.412 223.72 179.912 227 190.562C220.37 196.222 213.7 201.892 207 207.562C206.05 208.042 205.05 208.212 204 208.062C200.86 196.822 198.36 185.492 196.5 174.062C203.49 169.162 210.32 164.162 217 159.062Z" fill="#B8FE8E"/>
<path fill-rule="evenodd" clip-rule="evenodd" d="M283 159.062C287.84 167.532 292.51 176.202 297 185.062C289.55 190.632 281.88 195.962 274 201.062C269.94 192.092 266.27 182.932 263 173.562C269.27 168.122 275.94 163.282 283 159.062Z" fill="#B8FE8E"/>
<path fill-rule="evenodd" clip-rule="evenodd" d="M349 167.062C354.63 172.342 359.3 178.342 363 185.062C358.3 188.402 353.3 191.402 348 194.062C342.13 187.652 337.8 180.322 335 172.062C339.66 170.402 344.32 168.732 349 167.062Z" fill="#B8FE8E"/>
<path fill-rule="evenodd" clip-rule="evenodd" d="M151 173.062C152.43 173.442 153.26 174.442 153.5 176.062C155.35 183.782 157.02 191.452 158.5 199.062C150.5 205.732 143.17 213.062 136.5 221.062C134.27 214.212 132.77 207.212 132 200.062C136.42 189.652 142.76 180.652 151 173.062Z" fill="#B8FE8E"/>
<path fill-rule="evenodd" clip-rule="evenodd" d="M327 176.062C328.18 175.842 329.18 176.172 330 177.062C333.6 183.992 337.6 190.662 342 197.062C334.66 202.222 327.16 207.222 319.5 212.062C314.54 204.312 309.71 196.482 305 188.562C312.23 184.112 319.57 179.952 327 176.062Z" fill="#B8FE8E"/>
<path fill-rule="evenodd" clip-rule="evenodd" d="M256 177.062C257.91 177.132 259.08 178.132 259.5 180.062C262.28 188.402 265.45 196.572 269 204.562C261.17 210.392 253.33 216.232 245.5 222.062C241.38 212.882 237.55 203.552 234 194.062C241.35 188.372 248.69 182.702 256 177.062Z" fill="#B8FE8E"/>
<path fill-rule="evenodd" clip-rule="evenodd" d="M189 179.062C190.43 179.442 191.26 180.442 191.5 182.062C194.18 192.442 197.01 202.782 200 213.062C191.7 220.022 183.7 227.362 176 235.062C172.36 223.842 169.03 212.512 166 201.062C166.72 198.832 168.05 197.002 170 195.562C176.41 190.042 182.74 184.542 189 179.062Z" fill="#B8FE8E"/>
<path fill-rule="evenodd" clip-rule="evenodd" d="M367 191.062C371.16 198.372 374.49 206.042 377 214.062C373.81 216.252 370.65 218.582 367.5 221.062C361.81 214.202 356.31 207.202 351 200.062C355.7 196.042 361.04 193.042 367 191.062Z" fill="#B8FE8E"/>
<path fill-rule="evenodd" clip-rule="evenodd" d="M299 191.062C304.36 198.592 309.36 206.422 314 214.562C306.49 221.222 298.49 227.392 290 233.062C288.61 231.952 287.44 230.622 286.5 229.062C282.9 221.772 279.4 214.442 276 207.062C283.71 201.672 291.37 196.342 299 191.062Z" fill="#B8FE8E"/>
<path fill-rule="evenodd" clip-rule="evenodd" d="M228 197.062C232.62 206.152 236.62 215.652 240 225.562C232.44 232.702 224.77 239.872 217 247.062C213.27 236.862 209.93 226.532 207 216.062C207.11 215.122 207.44 214.282 208 213.562C214.86 208.202 221.52 202.702 228 197.062Z" fill="#B8FE8E"/>
<path fill-rule="evenodd" clip-rule="evenodd" d="M344 203.062C345.87 203.422 347.37 204.422 348.5 206.062C353.19 211.922 357.69 217.922 362 224.062C354.69 229.542 347.52 235.202 340.5 241.062C334.42 233.242 328.59 225.242 323 217.062C330.04 212.332 337.04 207.672 344 203.062Z" fill="#B8FE8E"/>
<path fill-rule="evenodd" clip-rule="evenodd" d="M160 205.062C164.11 216.462 167.77 228.132 171 240.062C163.35 248.212 155.51 256.212 147.5 264.062C142.76 252.102 139.76 239.762 138.5 227.062C145.9 219.832 153.06 212.502 160 205.062Z" fill="#B8FE8E"/>
<path fill-rule="evenodd" clip-rule="evenodd" d="M270 211.062C270.88 210.932 271.54 211.262 272 212.062C275.61 220.442 279.61 228.612 284 236.562C276.84 243.552 269.17 250.052 261 256.062C256 247.232 251.66 238.062 248 228.562C254.76 222.012 262.09 216.182 270 211.062Z" fill="#B8FE8E"/>
<path fill-rule="evenodd" clip-rule="evenodd" d="M127 210.062C128.75 215.152 130.08 220.492 131 226.062C127.85 230.352 124.68 234.692 121.5 239.062C121.04 238.472 120.87 237.802 121 237.062C120.45 227.452 122.45 218.452 127 210.062Z" fill="#B9FE8F"/>
<path fill-rule="evenodd" clip-rule="evenodd" d="M317 220.062C323.33 227.732 329.33 235.732 335 244.062C326.65 251.742 317.99 259.072 309 266.062C303.08 257.232 297.42 248.232 292 239.062C300.22 232.462 308.56 226.132 317 220.062Z" fill="#B8FE8E"/>
<path fill-rule="evenodd" clip-rule="evenodd" d="M194.001 271.062C192.001 272.062 190.001 273.062 188.001 274.062C184.771 264.872 181.601 255.542 178.501 246.062C177.831 244.392 177.831 242.732 178.501 241.062C185.551 233.512 193.051 226.512 201.001 220.062C205.251 230.152 208.921 240.492 212.001 251.062C205.611 257.452 199.611 264.112 194.001 271.062Z" fill="#B8FE8E"/>
<path fill-rule="evenodd" clip-rule="evenodd" d="M380 220.062C381.84 226.282 383.18 232.612 384 239.062C379.9 234.462 375.56 229.962 371 225.562C373.64 223.082 376.64 221.242 380 220.062Z" fill="#B9FE90"/>
<path fill-rule="evenodd" clip-rule="evenodd" d="M365 229.061C365.74 228.931 366.41 229.101 367 229.561C371.15 234.881 375.82 239.711 381 244.061C373.98 250.411 366.65 256.411 359 262.061C353.84 256.741 348.84 251.241 344 245.561C350.9 239.811 357.9 234.311 365 229.061Z" fill="#B8FE8E"/>
<path fill-rule="evenodd" clip-rule="evenodd" d="M256 262.062C246.04 261.142 236.04 260.802 226 261.062C224.33 261.062 222.67 261.062 221 261.062C220.36 258.342 219.86 255.672 219.5 253.062C226.79 245.592 234.45 238.592 242.5 232.062C247.29 241.942 251.79 251.942 256 262.062Z" fill="#B7FE8D"/>
<path fill-rule="evenodd" clip-rule="evenodd" d="M123 293.062C119.05 279.062 118.05 264.732 120 250.062C124.3 244.912 128.47 239.582 132.5 234.062C135.31 246.132 138.81 257.962 143 269.562C136.2 277.372 129.53 285.212 123 293.062Z" fill="#B8FE8E"/>
<path fill-rule="evenodd" clip-rule="evenodd" d="M291 281.061C282.63 275.211 273.97 269.881 265 265.061C264.58 264.301 264.24 263.461 264 262.561C270.19 256.121 276.86 250.121 284 244.561C285.26 243.581 286.59 243.241 288 243.561C293.09 252.411 298.42 261.081 304 269.561C303.4 271.171 302.4 272.501 301 273.561C297.77 276.301 294.44 278.801 291 281.061Z" fill="#B8FE8E"/>
<path fill-rule="evenodd" clip-rule="evenodd" d="M183.001 278.062C179.911 281.252 177.571 284.912 176.001 289.062C172.401 292.162 168.901 295.492 165.501 299.062C165.011 300.692 164.841 302.362 165.001 304.062C164.041 304.512 163.211 305.182 162.501 306.062C158.301 295.812 154.301 285.472 150.501 275.062C149.831 273.392 149.831 271.732 150.501 270.062C157.471 262.092 164.801 254.422 172.501 247.062C175.911 257.452 179.411 267.782 183.001 278.062Z" fill="#B8FE8E"/>
<path fill-rule="evenodd" clip-rule="evenodd" d="M385 253.062C384.09 262.042 383.42 271.042 383 280.062C382.35 280.362 381.68 280.702 381 281.062C374.54 277.092 368.87 272.262 364 266.562C370.52 260.382 377.35 254.542 384.5 249.062C384.99 250.352 385.16 251.692 385 253.062Z" fill="#B8FE8E"/>
<path fill-rule="evenodd" clip-rule="evenodd" d="M338 249.062C343.94 254.002 349.27 259.672 354 266.062C345.97 275.092 337.3 283.432 328 291.062C322.44 285.002 317.44 278.502 313 271.562C321.17 263.892 329.5 256.392 338 249.062Z" fill="#B8FE8E"/>
<path fill-rule="evenodd" clip-rule="evenodd" d="M226 261.062C236.04 260.802 246.04 261.142 256 262.062C258.92 263.262 261.92 264.262 265 265.062C273.97 269.882 282.63 275.212 291 281.062C292.7 283.082 294.36 285.082 296 287.062C297.96 289.522 300.13 291.862 302.5 294.062C303.29 295.302 303.79 296.642 304 298.062C299.15 294.722 294.15 291.562 289 288.562C282.96 287.112 276.96 285.442 271 283.562C254.53 282.022 246.19 289.692 246 306.562C245.3 321.532 252.46 329.032 267.5 329.062C273.39 329.282 278.39 327.282 282.5 323.062C287.33 315.742 290.16 307.742 291 299.062C294.67 302.332 299.01 304.002 304 304.062C304.71 307.352 305.04 310.682 305 314.062C304.14 316.742 302.98 319.402 301.5 322.062C292.34 334.392 280.5 343.062 266 348.062C255.24 351.242 244.24 352.572 233 352.062C227.35 351.532 221.68 351.192 216 351.062C206.77 349.762 197.77 347.432 189 344.062C179.77 340.672 173.27 334.342 169.5 325.062C169.12 318.432 167.95 312.102 166 306.062C168.03 306.222 170.03 306.062 172 305.562C174.2 303.022 176.7 300.852 179.5 299.062C177.68 309.942 180.85 319.112 189 326.562C205.4 332.452 216.9 327.282 223.5 311.062C224.17 308.062 224.17 305.062 223.5 302.062C220.55 297.782 218.55 293.122 217.5 288.062C208.66 282.612 199.16 281.112 189 283.562C184.65 285.412 180.31 287.242 176 289.062C177.57 284.912 179.91 281.252 183 278.062C184.89 276.962 186.56 275.622 188 274.062C190 273.062 192 272.062 194 271.062C197.83 269.402 201.83 268.232 206 267.562C212.09 263.252 218.76 261.082 226 261.062Z" fill="#F9FAF9"/>
<path fill-rule="evenodd" clip-rule="evenodd" d="M358 271.062C364.82 276.372 371.82 281.542 379 286.562C369.52 294.542 360.19 302.712 351 311.062C343.78 307.172 337.45 302.172 332 296.062C340.66 287.732 349.33 279.402 358 271.062Z" fill="#B8FE8E"/>
<path fill-rule="evenodd" clip-rule="evenodd" d="M305 314.062C305.04 310.682 304.71 307.352 304 304.062C306.67 302.062 306.67 300.062 304 298.062C303.79 296.642 303.29 295.302 302.5 294.062C300.13 291.862 297.96 289.522 296 287.062C295.87 286.322 296.04 285.652 296.5 285.062C299.87 281.362 303.53 278.022 307.5 275.062C313.04 281.642 318.2 288.482 323 295.562C317.87 303.192 311.87 309.352 305 314.062Z" fill="#B8FE8E"/>
<path fill-rule="evenodd" clip-rule="evenodd" d="M143 332.062C139.63 327.622 136.63 322.962 134 318.062C134.9 313.422 135.06 308.752 134.5 304.062C131.84 301.342 129.67 301.672 128 305.062C127.14 303.142 126.47 301.142 126 299.062C131.55 291.332 137.72 284.002 144.5 277.062C149.19 288.112 153.69 299.282 158 310.562C152.86 317.692 147.86 324.862 143 332.062Z" fill="#B7FD8D"/>
<path fill-rule="evenodd" clip-rule="evenodd" d="M166 306.062C165.16 305.722 164.83 305.052 165 304.062C164.84 302.362 165.01 300.692 165.5 299.062C168.9 295.492 172.4 292.162 176 289.062C180.31 287.242 184.65 285.412 189 283.562C199.16 281.112 208.66 282.612 217.5 288.062C218.55 293.122 220.55 297.782 223.5 302.062C224.17 305.062 224.17 308.062 223.5 311.062C216.9 327.282 205.4 332.452 189 326.562C180.85 319.112 177.68 309.942 179.5 299.062C176.7 300.852 174.2 303.022 172 305.562C170.03 306.062 168.03 306.222 166 306.062Z" fill="#050505"/>
<path fill-rule="evenodd" clip-rule="evenodd" d="M304 298.061C306.67 300.061 306.67 302.061 304 304.061C299.01 304.001 294.67 302.331 291 299.061C290.16 307.741 287.33 315.741 282.5 323.061C278.39 327.281 273.39 329.281 267.5 329.061C252.46 329.031 245.3 321.531 246 306.561C246.19 289.691 254.53 282.021 271 283.561C276.96 285.441 282.96 287.111 289 288.561C294.15 291.561 299.15 294.721 304 298.061Z" fill="#060606"/>
<path fill-rule="evenodd" clip-rule="evenodd" d="M259 289.061C264.33 287.731 266.99 289.731 267 295.061C267.65 303.951 263.82 307.281 255.5 305.061C251.81 301.581 251.14 297.581 253.5 293.061C255.67 292.071 257.5 290.741 259 289.061Z" fill="#F7F7F7"/>
<path fill-rule="evenodd" clip-rule="evenodd" d="M207 290.062C215 291.712 217.17 296.382 213.5 304.062C206.66 311.562 202.16 310.392 200 300.562C200.72 295.962 203.05 292.462 207 290.062Z" fill="#F5F5F5"/>
<path fill-rule="evenodd" clip-rule="evenodd" d="M378 296.062C374.8 304.312 371.8 312.652 369 321.062C364.41 319.762 360.41 317.432 357 314.062C363.66 307.572 370.49 301.242 377.5 295.062C377.9 295.292 378.07 295.622 378 296.062Z" fill="#B8FE8E"/>
<path fill-rule="evenodd" clip-rule="evenodd" d="M343 319.062C342.76 314.332 340.43 311.832 336 311.562C335.44 312.282 335.11 313.122 335 314.062C336.09 316.982 336.75 319.982 337 323.062C337.15 324.112 336.98 325.112 336.5 326.062C331.49 331.242 326.32 336.242 321 341.062C316.01 335.902 311.18 330.572 306.5 325.062C305.83 324.062 305.83 323.062 306.5 322.062C313.33 315.232 320.17 308.392 327 301.562C327.67 300.892 328.33 300.892 329 301.562C334.43 306.992 340.43 311.662 347 315.562C345.79 316.942 344.46 318.102 343 319.062Z" fill="#B8FD8E"/>
<path fill-rule="evenodd" clip-rule="evenodd" d="M134.001 318.062C131.421 326.772 130.251 335.772 130.501 345.062C135.941 354.612 133.781 356.442 124.001 350.562C120.741 350.352 117.581 349.852 114.501 349.062C113.831 347.732 113.831 346.392 114.501 345.062C116.421 343.352 118.581 342.022 121.001 341.062C123.771 329.112 126.101 317.112 128.001 305.062C129.671 301.672 131.841 301.342 134.501 304.062C135.061 308.752 134.901 313.422 134.001 318.062Z" fill="#252525"/>
<path fill-rule="evenodd" clip-rule="evenodd" d="M343 319.062C343.67 321.062 344.33 323.062 345 325.062C347.27 332.772 349.27 340.432 351 348.062C351.45 351.722 351.95 355.392 352.5 359.062C354.82 361.712 357.49 364.042 360.5 366.062C361.17 367.062 361.17 368.062 360.5 369.062C356.1 369.252 351.6 369.422 347 369.562C344.73 371.582 342.06 372.422 339 372.062C339.65 367.882 341.81 364.552 345.5 362.062C345.52 359.762 345.35 357.432 345 355.062C344.22 347.062 342.22 339.392 339 332.062C338.82 328.832 338.16 325.832 337 323.062C336.75 319.982 336.09 316.982 335 314.062C335.11 313.122 335.44 312.282 336 311.562C340.43 311.832 342.76 314.332 343 319.062Z" fill="#252525"/>
<path fill-rule="evenodd" clip-rule="evenodd" d="M171 362.062C160.69 356.412 152.69 348.412 147 338.062C150.74 330.932 155.24 324.272 160.5 318.062C165.83 328.062 171.17 338.062 176.5 348.062C176.62 353.492 174.78 358.162 171 362.062Z" fill="#B8FE8E"/>
<path fill-rule="evenodd" clip-rule="evenodd" d="M366 327.062C365.12 329.822 363.95 332.492 362.5 335.062C359.12 339.842 355.29 344.172 351 348.062C349.27 340.432 347.27 332.772 345 325.062C347.35 322.882 349.85 320.882 352.5 319.062C357.14 321.542 361.64 324.212 366 327.062Z" fill="#B8FD8E"/>
<path fill-rule="evenodd" clip-rule="evenodd" d="M300 328.062C301.87 328.422 303.37 329.422 304.5 331.062C308.55 335.992 312.72 340.822 317 345.562C308.44 354.282 300.44 363.452 293 373.062C287.44 366.952 282.11 360.622 277 354.062C284.69 345.372 292.36 336.712 300 328.062Z" fill="#B8FE8E"/>
<path fill-rule="evenodd" clip-rule="evenodd" d="M247 331.062C249.63 330.852 251.29 332.022 252 334.562C249.94 339.022 246.94 342.692 243 345.562C241.67 346.232 240.33 346.232 239 345.562C235.21 343.582 231.38 341.752 227.5 340.062C226.26 336.652 227.43 334.992 231 335.062C234.45 335.702 237.62 337.032 240.5 339.062C243.26 336.812 245.43 334.142 247 331.062Z" fill="#131313"/>
<path fill-rule="evenodd" clip-rule="evenodd" d="M339 332.062C342.22 339.392 344.22 347.062 345 355.062C342.75 355.982 340.75 357.312 339 359.062C334.23 354.792 329.56 350.292 325 345.562C329.54 340.862 334.2 336.362 339 332.062Z" fill="#B5FA8C"/>
<path fill-rule="evenodd" clip-rule="evenodd" d="M189 344.062C197.77 347.432 206.77 349.762 216 351.062C217.14 353.342 218.31 355.672 219.5 358.062C220.17 359.392 220.17 360.732 219.5 362.062C215.49 368.072 211.99 374.402 209 381.062C208.54 381.862 207.88 382.192 207 382.062C204.8 380.142 202.13 378.812 199 378.062C198.33 378.062 198 377.732 198 377.062C194.54 368.752 190.38 360.752 185.5 353.062C185.42 349.622 186.58 346.622 189 344.062Z" fill="#B8FE8E"/>
<path fill-rule="evenodd" clip-rule="evenodd" d="M266 348.062C267.18 350.022 268.02 352.022 268.5 354.062C260.49 363.572 252.32 372.902 244 382.062C237.9 375.792 232.73 368.792 228.5 361.062C227.83 360.062 227.83 359.062 228.5 358.062C230.25 356.212 231.75 354.212 233 352.062C244.24 352.572 255.24 351.242 266 348.062Z" fill="#B8FE8E"/>
<path fill-rule="evenodd" clip-rule="evenodd" d="M335 363.062C332.74 365.212 330.41 367.382 328 369.562C319.6 374.082 310.93 377.912 302 381.062C299.96 380.532 298.29 379.362 297 377.562C304.19 368.192 311.86 359.192 320 350.562C320.67 349.892 321.33 349.892 322 350.562C326.23 354.962 330.56 359.122 335 363.062Z" fill="#B8FE8E"/>
<path fill-rule="evenodd" clip-rule="evenodd" d="M189 373.062C185 370.732 181 368.392 177 366.062C177.51 362.702 178.85 359.702 181 357.062C183.87 362.312 186.87 367.482 190 372.562C189.77 372.962 189.44 373.132 189 373.062Z" fill="#B9FE8F"/>
<path fill-rule="evenodd" clip-rule="evenodd" d="M281 387.062C280.19 385.272 279.69 383.272 279.5 381.062C277.66 379.212 275.66 378.882 273.5 380.062C273 383.042 272.84 386.042 273 389.062C264.64 389.232 256.3 388.892 248 388.062C256.31 378.242 264.48 368.242 272.5 358.062C277.81 364.872 283.31 371.542 289 378.062C286.28 381.112 283.62 384.112 281 387.062Z" fill="#B7FD8D"/>
<path fill-rule="evenodd" clip-rule="evenodd" d="M240 387.062C231.27 386.552 222.6 385.552 214 384.062C216.81 377.762 220.15 371.762 224 366.062C229.33 373.052 234.66 380.052 240 387.062Z" fill="#B8FE8F"/>
<path fill-rule="evenodd" clip-rule="evenodd" d="M199 378.062C202.13 378.812 204.8 380.142 207 382.062C207 382.392 207 382.732 207 383.062C206.65 392.552 207.15 401.882 208.5 411.062C201.84 414.762 194.67 415.932 187 414.562C185.47 411.682 186.14 409.352 189 407.562C191.85 406.272 194.85 405.772 198 406.062C197.69 396.642 198.03 387.312 199 378.062Z" fill="#252525"/>
<path fill-rule="evenodd" clip-rule="evenodd" d="M281 387.062C281 387.732 281 388.392 281 389.062C281.27 396.942 282.11 404.612 283.5 412.062C278.02 417.202 271.52 419.042 264 417.562C260.95 412.882 262.28 409.882 268 408.562C269.29 408.072 270.63 407.902 272 408.062C271.98 401.702 272.31 395.372 273 389.062C272.84 386.042 273 383.042 273.5 380.062C275.66 378.882 277.66 379.212 279.5 381.062C279.69 383.272 280.19 385.272 281 387.062Z" fill="#252525"/>
</svg>
