<svg width="500" height="500" viewBox="0 0 500 500" fill="none" xmlns="http://www.w3.org/2000/svg">
<path d="M250.999 79.0615C257.839 79.4215 264.509 80.5916 270.999 82.5615L273.499 85.0615C274.779 93.6215 275.439 102.292 275.499 111.062C280.589 106.762 286.429 103.932 292.999 102.562C302.649 92.1616 314.149 84.6615 327.499 80.0615C331.759 79.9815 333.419 81.9815 332.499 86.0615C321.649 90.5715 311.819 96.7416 302.999 104.562L310.499 112.062C311.309 116.822 310.979 121.482 309.499 126.062C306.259 128.771 302.759 131.102 298.999 133.062C301.799 133.662 304.129 135.002 305.999 137.062C306.109 139.462 305.109 141.302 302.999 142.562C297.659 143.842 292.659 146.012 287.999 149.062C288.689 150.081 289.359 151.082 289.999 152.062C292.459 156.372 293.459 161.042 292.999 166.062C291.689 166.711 290.359 167.382 288.999 168.062C287.299 166.752 285.629 166.752 283.999 168.062C280.849 167.821 277.849 166.991 274.999 165.562C270.799 161.692 266.969 157.531 263.499 153.062C260.819 156.421 258.649 160.092 256.999 164.062C255.199 166.011 253.199 167.682 250.999 169.062C248.779 169.381 246.939 168.721 245.499 167.062C243.279 162.232 241.779 157.231 240.999 152.062V147.062C233.569 148.422 226.239 150.082 218.999 152.062C214.819 153.791 210.479 154.292 205.999 153.562C203.55 150.812 203.55 147.981 205.999 145.062C209.239 141.242 212.909 137.911 216.999 135.062C222.949 134.202 228.949 133.862 234.999 134.062C236.729 120.702 238.559 107.372 240.499 94.0615C241.839 89.3416 243.669 84.8415 245.999 80.5615C247.529 79.6416 249.199 79.1416 250.999 79.0615ZM287 114.562C286.41 114.102 285.74 113.932 285 114.062C281.7 116.532 278.86 119.532 276.5 123.062C276.3 126.071 276.63 129.072 277.5 132.062C277.89 132.991 278.55 133.652 279.5 134.062C283 133.232 286.5 132.391 290 131.562C286.24 126.382 285.24 120.712 287 114.562ZM297 112.062C295.25 115.822 294.58 119.822 295 124.062C297.52 123.802 299.85 122.971 302 121.562C303.71 116.742 302.04 113.572 297 112.062Z" fill="#279150"/>
<path fill-rule="evenodd" clip-rule="evenodd" d="M401 245.062C396.48 245.692 392.82 244.362 390 241.062C388.07 207.062 374.74 178.562 350 155.562C343.2 149.742 335.37 146.242 326.5 145.062C317.01 146.392 307.85 148.892 299 152.562C295.95 153.192 292.95 153.032 290 152.062C289.36 151.082 288.69 150.082 288 149.062C292.66 146.012 297.66 143.842 303 142.562C305.11 141.302 306.11 139.462 306 137.062C312.31 136.222 318.81 135.552 325.5 135.062C337.58 135.312 348.08 139.472 357 147.562C379.52 167.422 393.02 192.262 397.5 222.062C399.32 229.642 400.49 237.302 401 245.062Z" fill="#E95419"/>
<path fill-rule="evenodd" clip-rule="evenodd" d="M217 135.061C212.91 137.911 209.24 141.241 206 145.061C199.61 147.421 193.61 150.591 188 154.561C165.8 168.451 150.63 187.951 142.5 213.061C135.95 234.221 133.45 255.891 135 278.061C130.68 275.071 126.68 271.741 123 268.061C123.05 247.671 125.88 227.671 131.5 208.061C144.53 171.701 169.36 147.531 206 135.561C209.65 135.061 213.32 134.891 217 135.061Z" fill="#E95519"/>
<path fill-rule="evenodd" clip-rule="evenodd" d="M390 241.062C384.48 241.122 382.64 243.792 384.5 249.062C386.82 251.032 388.65 253.362 390 256.062C388.5 259.062 387 262.062 385.5 265.062C374.23 279.322 363.39 293.822 353 308.562C353.04 310.942 354.21 312.442 356.5 313.062C371.69 302.042 383.85 288.382 393 272.062C392.73 300.362 384.9 326.362 369.5 350.062C356.94 368.292 339.61 377.292 317.5 377.062C311.68 375.732 311.51 373.562 317 370.562C315.98 369.512 315.82 368.342 316.5 367.062C318.56 365.582 319.89 363.582 320.5 361.062C323.3 349.002 324.8 337.002 325 325.062C332.64 315.082 336.31 303.752 336 291.062C338.28 291.952 340.62 292.122 343 291.562C344.33 289.562 344.33 287.562 343 285.562C340.09 283.952 337.43 282.122 335 280.062C332.8 273.992 329.8 268.322 326 263.062C324.32 227.362 313.32 195.032 293 166.062C293.46 161.042 292.46 156.372 290 152.062C292.95 153.032 295.95 153.192 299 152.562C307.85 148.892 317.01 146.392 326.5 145.062C335.37 146.242 343.2 149.742 350 155.562C374.74 178.562 388.07 207.062 390 241.062Z" fill="#EA7217"/>
<path fill-rule="evenodd" clip-rule="evenodd" d="M206 145.062C203.55 147.982 203.55 150.812 206 153.562C210.48 154.292 214.82 153.792 219 152.062C206.06 170.282 196.56 190.282 190.5 212.062C184.69 229.972 180.85 248.302 179 267.062C179.01 268.932 179.34 270.602 180 272.062C176.03 275.202 172.53 278.872 169.5 283.062C168.83 285.732 168.83 288.392 169.5 291.062C171.2 291.972 173.03 292.302 175 292.062C176.21 297.472 177.55 302.812 179 308.062C180.28 320.652 182.78 332.982 186.5 345.062C194.25 355.482 202.75 365.322 212 374.562C178.89 371.502 156.72 354.002 145.5 322.062C142.06 312.962 139.56 303.632 138 294.062C140.41 294.962 142.41 296.462 144 298.562C146.54 298.902 149.04 299.402 151.5 300.062C155.56 297.982 156.06 295.152 153 291.562C150.61 289.702 147.95 288.372 145 287.562C141.8 284.192 138.46 281.022 135 278.062C133.45 255.892 135.95 234.222 142.5 213.062C150.63 187.952 165.8 168.452 188 154.562C193.61 150.592 199.61 147.422 206 145.062Z" fill="#EA7217"/>
<path fill-rule="evenodd" clip-rule="evenodd" d="M241 152.062C239.24 152.202 237.57 151.872 236 151.062C224.27 161.982 215.43 174.982 209.5 190.062C200.71 211.632 194.88 233.972 192 257.062C188.18 261.372 184.85 266.032 182 271.062C181.33 271.392 180.67 271.732 180 272.062C179.34 270.602 179.01 268.932 179 267.062C180.85 248.302 184.69 229.972 190.5 212.062C196.56 190.282 206.06 170.282 219 152.062C226.24 150.082 233.57 148.422 241 147.062C241 148.732 241 150.392 241 152.062Z" fill="#E85318"/>
<path fill-rule="evenodd" clip-rule="evenodd" d="M241 152.062C241.78 157.232 243.28 162.232 245.5 167.062C246.94 168.722 248.78 169.382 251 169.062C249.65 169.752 248.48 170.752 247.5 172.062C247 193.722 246.83 215.392 247 237.062C250.67 237.062 254.33 237.062 258 237.062C258.33 212.552 258 188.222 257 164.062C258.65 160.092 260.82 156.422 263.5 153.062C266.97 157.532 270.8 161.692 275 165.562C277.85 166.992 280.85 167.822 284 168.062C283.89 168.682 283.56 169.182 283 169.562C300.92 194.482 311.25 222.312 314 253.062C302.15 244.142 288.81 238.472 274 236.062C260.39 237.652 246.72 238.482 233 238.562C222.35 240.892 212.01 244.222 202 248.562C198.5 251.232 195.17 254.062 192 257.062C194.88 233.972 200.71 211.632 209.5 190.062C215.43 174.982 224.27 161.982 236 151.062C237.57 151.872 239.24 152.202 241 152.062Z" fill="#EA7317"/>
<path fill-rule="evenodd" clip-rule="evenodd" d="M257 164.062C258 188.222 258.33 212.552 258 237.062C254.33 237.062 250.67 237.062 247 237.062C246.83 215.392 247 193.722 247.5 172.062C248.48 170.752 249.65 169.752 251 169.062C253.2 167.682 255.2 166.012 257 164.062Z" fill="#E95317"/>
<path fill-rule="evenodd" clip-rule="evenodd" d="M293 166.062C313.32 195.032 324.32 227.362 326 263.062C321.68 260.072 317.68 256.742 314 253.062C311.25 222.312 300.92 194.482 283 169.562C283.56 169.182 283.89 168.682 284 168.062C285.63 166.752 287.3 166.752 289 168.062C290.36 167.382 291.69 166.712 293 166.062Z" fill="#E95318"/>
<path fill-rule="evenodd" clip-rule="evenodd" d="M123 268.061C126.68 271.741 130.68 275.071 135 278.061C138.46 281.021 141.8 284.191 145 287.561C147.95 288.371 150.61 289.701 153 291.561C156.06 295.151 155.56 297.981 151.5 300.061C149.04 299.401 146.54 298.901 144 298.561C142.41 296.461 140.41 294.961 138 294.061C134.25 290.011 129.91 286.681 125 284.061C114.6 275.331 105.6 265.331 98.0002 254.061C90.7402 256.291 87.7402 253.791 89.0002 246.561C95.0602 244.851 99.7302 241.181 103 235.561C106.3 234.521 108.47 235.681 109.5 239.061C110.22 242.601 110.05 246.101 109 249.561C109.58 251.371 110.08 253.201 110.5 255.061C113.78 260.321 117.95 264.651 123 268.061Z" fill="#262525"/>
<path fill-rule="evenodd" clip-rule="evenodd" d="M314 253.062C317.68 256.742 321.68 260.072 326 263.062C329.8 268.322 332.8 273.992 335 280.062C331.42 276.992 327.42 274.492 323 272.562C315.56 270.532 308.23 268.202 301 265.562C283.87 262.882 273.37 270.052 269.5 287.062C268.47 295.642 269.47 303.972 272.5 312.062C281.01 321.122 291.51 324.622 304 322.562C308.46 320.582 312.29 317.752 315.5 314.062C321.46 305.692 324.96 296.362 326 286.062C328.9 288.642 332.24 290.312 336 291.062C336.31 303.752 332.64 315.082 325 325.062C321.6 328.472 317.93 331.472 314 334.062C303.32 338.452 292.32 341.952 281 344.562C265 345.232 249 345.232 233 344.562C218.14 342.452 204.8 336.952 193 328.062C186.83 322.372 182.16 315.702 179 308.062C177.55 302.812 176.21 297.472 175 292.062C178.93 289.312 182.77 286.312 186.5 283.062C184.94 292.462 186.28 301.462 190.5 310.062C200.3 321.652 212.13 324.152 226 317.562C237.06 310.222 242.23 300.052 241.5 287.062C238.63 282.332 236.63 277.332 235.5 272.062C233.63 269.852 231.46 268.022 229 266.562C224.36 264.912 219.69 263.572 215 262.562C203.12 262.022 192.12 264.852 182 271.062C184.85 266.032 188.18 261.372 192 257.062C195.17 254.062 198.5 251.232 202 248.562C212.01 244.222 222.35 240.892 233 238.562C246.72 238.482 260.39 237.652 274 236.062C288.81 238.472 302.15 244.142 314 253.062Z" fill="#FAF9F9"/>
<path fill-rule="evenodd" clip-rule="evenodd" d="M390 241.062C392.82 244.362 396.48 245.692 401 245.062C401.24 245.662 401.74 245.992 402.5 246.062C404.72 244.282 407.22 243.782 410 244.562C412.74 247.802 412.41 250.802 409 253.562C406.73 255.582 404.06 256.422 401 256.062C399.71 256.852 398.54 257.852 397.5 259.062C396.09 263.452 394.59 267.792 393 272.062C383.85 288.382 371.69 302.042 356.5 313.062C354.21 312.442 353.04 310.942 353 308.562C363.39 293.822 374.23 279.322 385.5 265.062C387 262.062 388.5 259.062 390 256.062C388.65 253.362 386.82 251.032 384.5 249.062C382.64 243.792 384.48 241.122 390 241.062Z" fill="#262525"/>
<path fill-rule="evenodd" clip-rule="evenodd" d="M401 256.062C407.12 298.522 395.96 335.862 367.5 368.062C358.89 376.452 349.05 382.952 338 387.562C325.64 390.012 313.64 388.842 302 384.062C300.99 381.682 299.15 380.682 296.5 381.062C293.85 380.682 292.01 381.682 291 384.062C290.1 384.772 289.76 385.772 290 387.062C283.33 387.232 276.66 387.062 270 386.562C267.07 385.182 264.24 383.682 261.5 382.062C252.33 385.522 242.83 386.852 233 386.062C231.99 383.512 231.16 380.842 230.5 378.062C225.22 375.142 222.38 376.812 222 383.062C209.87 386.102 197.87 385.602 186 381.562C168.11 374.002 154.27 361.832 144.5 345.062C134.28 325.902 127.78 305.562 125 284.062C129.91 286.682 134.25 290.012 138 294.062C139.56 303.632 142.06 312.962 145.5 322.062C156.72 354.002 178.89 371.502 212 374.562C202.75 365.322 194.25 355.482 186.5 345.062C182.78 332.982 180.28 320.652 179 308.062C182.16 315.702 186.83 322.372 193 328.062C195.21 337.152 199.05 345.482 204.5 353.062C216.38 364.482 230.21 372.152 246 376.062C250.89 375.762 255.22 374.092 259 371.062C255.65 363.012 253.32 354.682 252 346.062C255.67 346.062 259.33 346.062 263 346.062C264.36 354.992 267.02 363.492 271 371.562C281.59 374.652 292.26 374.652 303 371.562C304.37 370.222 305.7 368.892 307 367.562C310.42 356.622 312.76 345.452 314 334.062C317.93 331.472 321.6 328.472 325 325.062C324.8 337.002 323.3 349.002 320.5 361.062C319.89 363.582 318.56 365.582 316.5 367.062C315.82 368.342 315.98 369.512 317 370.562C311.51 373.562 311.68 375.732 317.5 377.062C339.61 377.292 356.94 368.292 369.5 350.062C384.9 326.362 392.73 300.362 393 272.062C394.59 267.792 396.09 263.452 397.5 259.062C398.54 257.852 399.71 256.852 401 256.062Z" fill="#E95419"/>
<path fill-rule="evenodd" clip-rule="evenodd" d="M175 292.061C173.03 292.301 171.2 291.971 169.5 291.061C168.83 288.391 168.83 285.731 169.5 283.061C172.53 278.871 176.03 275.201 180 272.061C180.67 271.731 181.33 271.391 182 271.061C192.12 264.851 203.12 262.021 215 262.561C219.69 263.571 224.36 264.911 229 266.561C231.46 268.021 233.63 269.851 235.5 272.061C236.63 277.331 238.63 282.331 241.5 287.061C242.23 300.051 237.06 310.221 226 317.561C212.13 324.151 200.3 321.651 190.5 310.061C186.28 301.461 184.94 292.461 186.5 283.061C182.77 286.311 178.93 289.311 175 292.061Z" fill="#060505"/>
<path fill-rule="evenodd" clip-rule="evenodd" d="M335 280.062C337.43 282.122 340.09 283.952 343 285.562C344.33 287.562 344.33 289.562 343 291.562C340.62 292.122 338.28 291.952 336 291.062C332.24 290.312 328.9 288.642 326 286.062C324.96 296.362 321.46 305.692 315.5 314.062C312.29 317.752 308.46 320.582 304 322.562C291.51 324.622 281.01 321.122 272.5 312.062C269.47 303.972 268.47 295.642 269.5 287.062C273.37 270.052 283.87 262.882 301 265.562C308.23 268.202 315.56 270.532 323 272.562C327.42 274.492 331.42 276.992 335 280.062Z" fill="#050505"/>
<path fill-rule="evenodd" clip-rule="evenodd" d="M287 272.061C292.75 271.431 296.08 273.931 297 279.561C295.69 282.931 294.85 286.431 294.5 290.061C290.61 294.541 286.11 295.201 281 292.061C276.87 288.001 276.04 283.341 278.5 278.061C281.49 276.161 284.32 274.161 287 272.061Z" fill="#F3F3F3"/>
<path fill-rule="evenodd" clip-rule="evenodd" d="M220 273.062C226.97 272.032 230.64 275.032 231 282.062C230.96 286.362 229.46 290.022 226.5 293.062C218.32 297.892 213.49 295.562 212 286.062C212.9 280.602 215.56 276.262 220 273.062Z" fill="#F7F7F7"/>
<path fill-rule="evenodd" clip-rule="evenodd" d="M270 325.061C274.5 324.721 276.33 326.721 275.5 331.061C273.05 335.841 269.55 339.681 265 342.561C262.59 343.041 260.25 342.711 258 341.561C253.79 339.311 249.62 337.151 245.5 335.061C244.43 331.461 245.76 329.461 249.5 329.061C253.91 331.031 258.41 332.531 263 333.561C265.7 330.971 268.03 328.141 270 325.061Z" fill="#0C0C0C"/>
<path fill-rule="evenodd" clip-rule="evenodd" d="M193 328.062C204.8 336.952 218.14 342.452 233 344.562C249 345.232 265 345.232 281 344.562C292.32 341.952 303.32 338.452 314 334.062C312.76 345.452 310.42 356.622 307 367.562C305.7 368.892 304.37 370.222 303 371.562C292.26 374.652 281.59 374.652 271 371.562C267.02 363.492 264.36 354.992 263 346.062C259.33 346.062 255.67 346.062 252 346.062C253.32 354.682 255.65 363.012 259 371.062C255.22 374.092 250.89 375.762 246 376.062C230.21 372.152 216.38 364.482 204.5 353.062C199.05 345.482 195.21 337.152 193 328.062Z" fill="#EB7318"/>
<path fill-rule="evenodd" clip-rule="evenodd" d="M233 386.061C234.46 396.421 234.3 406.761 232.5 417.061C232 417.561 231.5 418.061 231 418.561C223.31 420.401 215.65 420.401 208 418.561C205.82 413.971 207.15 410.971 212 409.561C215.33 409.231 218.67 408.891 222 408.561C223.02 408.041 223.68 407.211 224 406.061C222.62 398.461 221.95 390.791 222 383.061C222.38 376.811 225.22 375.141 230.5 378.061C231.16 380.841 231.99 383.511 233 386.061Z" fill="#262525"/>
<path fill-rule="evenodd" clip-rule="evenodd" d="M302 384.061C302 392.391 302 400.731 302 409.061C305.65 408.281 309.31 408.111 313 408.561C316.85 412.091 316.52 415.431 312 418.561C306.21 418.681 300.55 419.511 295 421.061C293.47 421.031 292.3 420.361 291.5 419.061C290.74 415.931 290.24 412.771 290 409.561C290.86 401.081 291.19 392.581 291 384.061C292.01 381.681 293.85 380.681 296.5 381.061C299.15 380.681 300.99 381.681 302 384.061Z" fill="#242424"/>
</svg>
