<svg width="500" height="500" viewBox="0 0 500 500" fill="none" xmlns="http://www.w3.org/2000/svg">
<path fill-rule="evenodd" clip-rule="evenodd" d="M330 394.062C328.94 390.282 327.61 386.612 326 383.062C328.77 383.142 331.44 382.642 334 381.562C340.45 377.452 346.61 372.952 352.5 368.062C354.27 363.362 356.43 358.862 359 354.562C364.66 355.232 370.33 354.902 376 353.562C379.5 351.392 382.33 348.562 384.5 345.062C384.74 335.962 384.08 326.962 382.5 318.062C394.72 315.332 399.72 307.662 397.5 295.062C395.73 292.522 394.23 289.852 393 287.062C394.6 284.282 396.44 281.612 398.5 279.062C401.25 275.232 401.59 271.232 399.5 267.062C397.44 264.512 395.6 261.842 394 259.062C398.3 255.592 402.13 251.592 405.5 247.062C407.43 242.422 407.43 237.752 405.5 233.062C403.84 226.552 400.34 221.392 395 217.562C393.48 216.552 391.81 216.052 390 216.062C392.06 211.642 394.89 207.642 398.5 204.062C399.7 198.432 400.03 192.762 399.5 187.062C397.58 183.722 395.08 180.882 392 178.562C386.58 175.772 381.42 172.602 376.5 169.062C380.61 151.122 374.45 138.292 358 130.562C353.22 129.912 348.55 130.412 344 132.062C342.95 131.122 342.28 129.962 342 128.562C342.91 126.772 343.08 124.942 342.5 123.062C336.57 109.812 326.41 104.312 312 106.562C306.42 108.532 300.92 110.702 295.5 113.062C292.48 111.542 290.31 109.202 289 106.062C284.27 102.352 278.94 101.182 273 102.562C268.52 104.892 264.02 107.052 259.5 109.062C257.79 109.122 256.46 108.452 255.5 107.062C253.05 100.272 248.38 95.9418 241.5 94.0618C237.31 95.2418 233.48 97.0718 230 99.5618C227.46 102.272 224.79 104.772 222 107.062C201.09 95.6918 185.76 100.692 176 122.062C171.49 120.182 166.83 119.682 162 120.562C157.74 122.492 153.74 124.832 150 127.562C148.46 129.142 147.29 130.972 146.5 133.062C146.35 136.132 145.52 138.962 144 141.562C140.12 140.952 136.12 140.452 132 140.062C121.95 141.932 115.45 147.932 112.5 158.062C112 160.062 111.5 162.062 111 164.062C111.57 169.512 112.57 174.852 114 180.062C110.63 180.232 107.29 180.732 104 181.562C94.3497 192.242 91.1897 204.742 94.4997 219.062C97.1797 221.462 99.6797 223.962 102 226.562C94.3497 233.802 91.8497 242.632 94.4997 253.062C95.0697 258.702 97.5697 263.202 102 266.562C102.95 267.042 103.95 267.212 105 267.062C103.38 270.962 101.21 274.622 98.4997 278.062C96.5197 285.162 96.6797 292.162 98.9997 299.062C101.96 302.372 105.63 304.372 110 305.062C109.58 310.982 108.58 316.822 107 322.562C108.03 326.162 109.37 329.662 111 333.062C117.21 337.532 124.21 339.702 132 339.562C131.43 349.202 134.77 357.202 142 363.562C149.82 364.012 157.48 363.352 165 361.562C168.98 369.972 175.48 375.472 184.5 378.062C183.25 374.872 181.92 371.532 180.5 368.062C179.63 365.182 179.96 362.512 181.5 360.062C184.31 364.532 187.48 368.702 191 372.562C195.27 373.022 199.1 371.852 202.5 369.062C206.83 375.652 212.66 377.822 220 375.562C225.45 370.382 227.95 371.542 227.5 379.062C225.72 380.852 223.89 382.522 222 384.062C226.1 396.042 234.1 399.542 246 394.562C251.45 391.092 256.62 387.252 261.5 383.062C265.96 386.852 270.46 390.682 275 394.562C277.2 395.932 279.53 396.272 282 395.562C287.47 394.242 292.3 391.742 296.5 388.062C297 386.092 297.16 384.092 297 382.062C290.12 381.402 288.62 378.402 292.5 373.062C297.66 374.352 302.82 374.192 308 372.562C311.62 369.932 315.45 367.762 319.5 366.062C322.64 366.542 324.48 368.372 325 371.562C327.4 372.372 329.74 372.212 332 371.062C334.12 366.822 336.96 366.152 340.5 369.062C341.17 370.732 341.17 372.392 340.5 374.062C339.15 375.252 337.98 376.582 337 378.062C332.7 379.162 328.7 380.492 325 382.062C320.33 376.872 315.33 376.372 310 380.562C306.08 381.722 302.08 382.222 298 382.062C297.39 388.072 298.39 393.742 301 399.062C293.02 405.112 284.02 407.612 274 406.562C269.6 404.652 265.6 402.152 262 399.062C253.5 403.032 244.5 405.362 235 406.062C231.05 405.802 227.38 404.632 224 402.562C219.89 398.832 215.89 395.002 212 391.062C212 389.062 212 387.062 212 385.062C207.5 383.412 203.33 381.082 199.5 378.062C196.36 379.162 193.2 380.162 190 381.062C188.44 380.842 187.11 380.172 186 379.062C184.57 381.892 183.9 384.892 184 388.062C173.78 387.452 165.78 382.952 160 374.562C154.34 374.662 148.67 375.162 143 376.062C140.47 375.802 138.14 374.962 136 373.562C129.69 367.422 125.02 360.262 122 352.062C117.73 350.562 113.39 349.062 109 347.562C106.39 344.272 103.22 341.772 99.4997 340.062C95.8897 335.232 95.3897 330.232 97.9997 325.062C95.8597 321.252 95.5297 317.252 96.9997 313.062C93.2597 309.492 90.0997 305.492 87.4997 301.062C84.9297 290.282 85.7597 279.782 89.9997 269.562C87.5197 266.442 85.6897 262.942 84.4997 259.062C81.7597 247.762 82.5997 236.762 86.9997 226.062C80.3697 205.712 84.3697 187.882 98.9997 172.562C100.92 172.202 102.59 171.372 104 170.062C101.14 153.942 106.81 141.782 121 133.562C125.58 132.422 130.25 131.752 135 131.562C140.71 114.362 152.71 106.692 171 108.562C175.38 102.522 180.71 97.5218 187 93.5618C191.6 93.1018 195.93 91.7618 200 89.5618C205.99 88.6418 211.82 89.1418 217.5 91.0618C219.83 90.9818 221.67 89.9818 223 88.0618C223.98 88.5418 224.81 89.2018 225.5 90.0618C233.8 82.2118 242.97 81.0518 253 86.5618C255.85 89.5818 258.85 92.4118 262 95.0618C275.8 87.2218 288.3 88.8918 299.5 100.062C316.29 90.5818 331.62 92.5818 345.5 106.062C348.71 110.752 351.21 115.752 353 121.062C362.92 119.422 371.42 122.092 378.5 129.062C386.49 139.372 390.16 151.042 389.5 164.062C411.31 173.842 416.81 189.342 406 210.562C415.21 221.512 418.71 234.012 416.5 248.062C414.12 252.332 411.62 256.492 409 260.562C413.81 271.152 412.47 280.992 405 290.062C411.5 304.722 408.34 316.722 395.5 326.062C396.01 333.022 396.01 340.022 395.5 347.062C388.77 359.672 378.27 366.012 364 366.062C364.02 371.182 362.02 375.352 358 378.562C353 382.232 348 385.892 343 389.562C339.03 392.162 334.69 393.662 330 394.062Z" fill="#CCCCCB"/>
<path fill-rule="evenodd" clip-rule="evenodd" d="M326 383.062C325.33 383.062 325 382.732 325 382.062C328.7 380.492 332.7 379.162 337 378.062C337.98 376.582 339.15 375.252 340.5 374.062C341.17 372.392 341.17 370.732 340.5 369.062C336.96 366.152 334.12 366.822 332 371.062C329.74 372.212 327.4 372.372 325 371.562C324.48 368.372 322.64 366.542 319.5 366.062C315.45 367.762 311.62 369.932 308 372.562C302.82 374.192 297.66 374.352 292.5 373.062C288.62 378.402 290.12 381.402 297 382.062C297.16 384.092 297 386.092 296.5 388.062C292.3 391.742 287.47 394.242 282 395.562C279.53 396.272 277.2 395.932 275 394.562C270.46 390.682 265.96 386.852 261.5 383.062C256.62 387.252 251.45 391.092 246 394.562C234.1 399.542 226.1 396.042 222 384.062C223.89 382.522 225.72 380.852 227.5 379.062C227.95 371.542 225.45 370.382 220 375.562C212.66 377.822 206.83 375.652 202.5 369.062C199.1 371.852 195.27 373.022 191 372.562C187.48 368.702 184.31 364.532 181.5 360.062C179.96 362.512 179.63 365.182 180.5 368.062C181.92 371.532 183.25 374.872 184.5 378.062C175.48 375.472 168.98 369.972 165 361.562C157.48 363.352 149.82 364.012 142 363.562C134.77 357.202 131.43 349.202 132 339.562C124.21 339.702 117.21 337.532 111 333.062C109.37 329.662 108.03 326.162 107 322.562C108.58 316.822 109.58 310.982 110 305.062C105.63 304.372 101.96 302.372 99.0002 299.062C96.6802 292.162 96.5202 285.162 98.5002 278.062C101.21 274.622 103.38 270.962 105 267.062C103.95 267.212 102.95 267.042 102 266.562C97.5702 263.202 95.0702 258.702 94.5002 253.062C91.8502 242.632 94.3502 233.802 102 226.562C99.6802 223.962 97.1802 221.462 94.5002 219.062C91.1902 204.742 94.3502 192.242 104 181.562C107.29 180.732 110.63 180.232 114 180.062C112.57 174.852 111.57 169.512 111 164.062C111.5 162.062 112 160.062 112.5 158.062C115.45 147.932 121.95 141.932 132 140.062C136.12 140.452 140.12 140.952 144 141.562C145.52 138.962 146.35 136.132 146.5 133.062C147.29 130.972 148.46 129.142 150 127.562C153.74 124.832 157.74 122.492 162 120.562C166.83 119.682 171.49 120.182 176 122.062C185.76 100.692 201.09 95.692 222 107.062C224.79 104.772 227.46 102.272 230 99.562C233.48 97.072 237.31 95.242 241.5 94.062C248.38 95.942 253.05 100.272 255.5 107.062C256.46 108.452 257.79 109.122 259.5 109.062C264.02 107.052 268.52 104.892 273 102.562C278.94 101.182 284.27 102.352 289 106.062C290.31 109.202 292.48 111.542 295.5 113.062C300.92 110.702 306.42 108.532 312 106.562C326.41 104.312 336.57 109.812 342.5 123.062C343.08 124.942 342.91 126.772 342 128.562C342.28 129.962 342.95 131.122 344 132.062C348.55 130.412 353.22 129.912 358 130.562C374.45 138.292 380.61 151.122 376.5 169.062C381.42 172.602 386.58 175.772 392 178.562C395.08 180.882 397.58 183.722 399.5 187.062C400.03 192.762 399.7 198.432 398.5 204.062C394.89 207.642 392.06 211.642 390 216.062C391.81 216.052 393.48 216.552 395 217.562C400.34 221.392 403.84 226.552 405.5 233.062C407.43 237.752 407.43 242.422 405.5 247.062C402.13 251.592 398.3 255.592 394 259.062C395.6 261.842 397.44 264.512 399.5 267.062C401.59 271.232 401.25 275.232 398.5 279.062C396.44 281.612 394.6 284.282 393 287.062C394.23 289.852 395.73 292.522 397.5 295.062C399.72 307.662 394.72 315.332 382.5 318.062C384.08 326.962 384.74 335.962 384.5 345.062C382.33 348.562 379.5 351.392 376 353.562C370.33 354.902 364.66 355.232 359 354.562C356.43 358.862 354.27 363.362 352.5 368.062C346.61 372.952 340.45 377.452 334 381.562C331.44 382.642 328.77 383.142 326 383.062Z" fill="#FBFBFB"/>
<path fill-rule="evenodd" clip-rule="evenodd" d="M287 131.062C292.74 130.772 298.41 131.272 304 132.562C309.11 135.672 313.61 139.502 317.5 144.062C324.63 139.022 331.8 138.852 339 143.562C345.96 149.512 351.79 156.342 356.5 164.062C359.33 168.902 359.67 173.902 357.5 179.062C354.8 181.602 351.8 182.272 348.5 181.062C348.36 176.942 347.69 172.942 346.5 169.062C342.08 162.632 336.91 156.802 331 151.562C324.78 152.832 319.12 155.502 314 159.562C312.67 160.232 311.33 160.232 310 159.562C308.47 156.252 307.3 152.752 306.5 149.062C296.73 139.582 287.23 140.082 278 150.562C271.67 151.232 269.17 148.392 270.5 142.062C275.15 136.992 280.65 133.332 287 131.062Z" fill="#CCCCCC"/>
<path fill-rule="evenodd" clip-rule="evenodd" d="M177 160.062C182.68 159.892 188.34 160.062 194 160.562C198.89 162.272 200.06 165.442 197.5 170.062C196.75 170.692 195.92 171.192 195 171.562C190.04 171.142 185.04 171.142 180 171.562C176.48 172.062 173.98 173.902 172.5 177.062C172 182.052 171.83 187.052 172 192.062C163.82 190.572 158.98 193.902 157.5 202.062C156.54 206.682 155.88 211.352 155.5 216.062C152.66 219.592 149.49 219.932 146 217.062C143.12 202.192 147.96 190.522 160.5 182.062C160.96 170.752 166.46 163.422 177 160.062Z" fill="#CCCCCC"/>
<path fill-rule="evenodd" clip-rule="evenodd" d="M314 220.062C312.52 224.512 310.85 228.852 309 233.062C306.68 231.982 304.34 232.142 302 233.562C290.77 236.522 282.27 233.022 276.5 223.062C267.61 236.362 255.77 240.192 241 234.562C239.15 232.542 237.15 230.712 235 229.062C224.97 234.672 214.8 235.342 204.5 231.062C203.6 231.302 202.76 231.642 202 232.062C202.18 230.872 202.51 229.702 203 228.562C200.27 224.272 198.27 219.772 197 215.062C194.57 204.582 198.41 197.582 208.5 194.062C210.16 193.952 211.33 194.612 212 196.062C208.28 202.602 207.11 209.602 208.5 217.062C216.7 225.012 224.53 224.512 232 215.562C234.33 214.892 236.67 214.892 239 215.562C246.4 228.142 255.24 229.312 265.5 219.062C265.89 211.682 269.56 207.012 276.5 205.062C280.55 206.122 282.89 208.782 283.5 213.062C285.64 216.502 288.14 219.672 291 222.562C298.29 226.112 302.79 223.942 304.5 216.062C305 212.072 305.17 208.072 305 204.062C312.61 206.592 315.61 211.932 314 220.062Z" fill="#CCCCCC"/>
<path fill-rule="evenodd" clip-rule="evenodd" d="M197 215.062C198.27 219.772 200.27 224.272 203 228.562C202.51 229.702 202.18 230.872 202 232.062C200.31 233.092 198.97 234.422 198 236.062C187.28 240.412 176.28 244.242 165 247.562C161.82 250.112 159.82 253.282 159 257.062C155.95 255.502 154.28 253.002 154 249.562C154.66 241.892 158.33 236.232 165 232.562C177.04 229.042 187.71 223.212 197 215.062Z" fill="#808080"/>
<path fill-rule="evenodd" clip-rule="evenodd" d="M314 220.062C318.68 222.232 322.68 225.392 326 229.562C335.85 235.432 345.69 241.262 355.5 247.062C356.24 255.252 352.74 260.592 345 263.062C347.55 259.452 347.22 256.282 344 253.562C332.28 249.872 321.61 244.372 312 237.062C311.47 235.332 310.47 234.002 309 233.062C310.85 228.852 312.52 224.512 314 220.062Z" fill="#808080"/>
<path fill-rule="evenodd" clip-rule="evenodd" d="M198 236.062C197.55 238.702 196.38 241.032 194.5 243.062C190.3 247.592 185.8 251.762 181 255.562C176.35 257.552 171.52 258.722 166.5 259.062C163.63 259.262 161.13 258.592 159 257.062C159.82 253.282 161.82 250.112 165 247.562C176.28 244.242 187.28 240.412 198 236.062Z" fill="#FCC8C8"/>
<path fill-rule="evenodd" clip-rule="evenodd" d="M312 237.062C321.61 244.372 332.28 249.872 344 253.562C347.22 256.282 347.55 259.452 345 263.062C343.93 263.992 342.6 264.332 341 264.062C336.33 262.892 332 260.892 328 258.062C326.33 255.562 324.16 253.562 321.5 252.062C318.12 247.142 314.62 242.302 311 237.562C311.23 237.162 311.56 236.992 312 237.062Z" fill="#FCC8C8"/>
<path fill-rule="evenodd" clip-rule="evenodd" d="M187 268.062C183.68 271.842 179.68 272.842 175 271.062C174.75 268.242 175.25 265.572 176.5 263.062C192.89 245.262 212.06 241.432 234 251.562C235.94 257.252 238.44 262.752 241.5 268.062C242.39 278.232 238.89 286.732 231 293.562C211.95 304.352 198.78 299.522 191.5 279.062C191.01 274.012 191.01 269.012 191.5 264.062C189.83 265.292 188.33 266.632 187 268.062Z" fill="#050505"/>
<path fill-rule="evenodd" clip-rule="evenodd" d="M329 264.062C330.49 265.362 332.15 266.532 334 267.562C335.81 271.592 334.48 273.762 330 274.062C325.41 272.672 321.24 270.342 317.5 267.062C317.17 270.392 316.83 273.732 316.5 277.062C309.41 300.692 294.91 306.852 273 295.562C270.04 292.692 268.2 289.192 267.5 285.062C265.55 274.692 267.21 265.022 272.5 256.062C280.55 247.442 290.05 245.612 301 250.562C306.5 253.022 312.16 255.022 318 256.562C321.72 259.082 325.39 261.582 329 264.062Z" fill="#050505"/>
<path fill-rule="evenodd" clip-rule="evenodd" d="M222 255.062C228.27 254.502 231.6 257.332 232 263.562C231.62 270.172 228.29 274.342 222 276.062C215.63 273.992 213.47 269.662 215.5 263.062C216.98 259.732 219.15 257.072 222 255.062Z" fill="#F7F7F7"/>
<path fill-rule="evenodd" clip-rule="evenodd" d="M282 255.062C287.33 254.232 290.66 256.402 292 261.562C290.69 264.932 289.85 268.432 289.5 272.062C281.26 277.192 276.09 275.022 274 265.562C274.04 263.592 274.54 261.762 275.5 260.062C278.06 258.832 280.23 257.172 282 255.062Z" fill="#F3F3F3"/>
<path fill-rule="evenodd" clip-rule="evenodd" d="M328 258.062C332 260.892 336.33 262.892 341 264.062C342.25 287.162 334.91 306.992 319 323.562C312.78 326.502 306.45 329.172 300 331.562C288.88 333.452 277.71 334.952 266.5 336.062C244.75 336.502 223.58 333.332 203 326.562C190.14 319.692 181.64 309.192 177.5 295.062C176.06 287.122 175.22 279.122 175 271.062C179.68 272.842 183.68 271.842 187 268.062C185.97 280.682 188.14 292.682 193.5 304.062C196.71 308.942 200.88 312.772 206 315.562C224.39 322.152 243.39 325.322 263 325.062C273.38 324.282 283.71 323.122 294 321.562C303.31 319.152 311.15 314.322 317.5 307.062C323.93 296.942 328.1 285.942 330 274.062C334.48 273.762 335.81 271.592 334 267.562C332.15 266.532 330.49 265.362 329 264.062C329.54 264.002 329.88 263.672 330 263.062C329.04 261.482 328.38 259.822 328 258.062Z" fill="#CCCCCC"/>
<path fill-rule="evenodd" clip-rule="evenodd" d="M267 303.062C271.71 303.032 273.21 305.362 271.5 310.062C269.22 313.462 266.39 316.302 263 318.562C256.25 318.282 250.08 316.112 244.5 312.062C243.36 308.702 244.53 306.702 248 306.062C252.23 308.192 256.56 309.692 261 310.562C263.13 308.122 265.13 305.622 267 303.062Z" fill="#101010"/>
<path fill-rule="evenodd" clip-rule="evenodd" d="M325 382.062C325 382.732 325.33 383.062 326 383.062C327.61 386.612 328.94 390.282 330 394.062C334.39 410.832 328.06 418.002 311 415.562C307.27 410.252 303.93 404.752 301 399.062C298.39 393.742 297.39 388.072 298 382.062C302.08 382.222 306.08 381.722 310 380.562C315.33 376.372 320.33 376.872 325 382.062Z" fill="#808080"/>
<path fill-rule="evenodd" clip-rule="evenodd" d="M212 391.062C210.38 397.322 207.88 403.322 204.5 409.062C196.09 415.272 189.09 413.942 183.5 405.062C182.81 399.362 182.98 393.692 184 388.062C183.9 384.892 184.57 381.892 186 379.062C187.11 380.172 188.44 380.842 190 381.062C193.2 380.162 196.36 379.162 199.5 378.062C203.33 381.082 207.5 383.412 212 385.062C212 387.062 212 389.062 212 391.062Z" fill="#808080"/>
</svg>
