<svg width="500" height="500" viewBox="0 0 500 500" fill="none" xmlns="http://www.w3.org/2000/svg">
<path fill-rule="evenodd" clip-rule="evenodd" d="M370 240.061C367.011 241.731 364.678 241.061 363 238.061C359.29 236.801 355.623 236.801 352 238.061C344.788 238.051 337.788 236.891 331 234.561C325.343 234.061 319.676 233.891 314 234.061C313.333 234.061 312.667 234.061 312 234.061C309.109 233.161 306.109 232.821 303 233.061C273.383 229.081 243.717 229.081 214 233.061C213.008 232.891 212.342 233.221 212 234.061C209.092 232.991 206.092 232.821 203 233.561C200.891 235.211 198.557 236.371 196 237.061C194.932 236.131 193.599 235.791 192 236.061C176.619 238.161 161.286 240.161 146 242.061C140.667 240.731 135.333 240.731 130 242.061C126.55 240.571 123.717 238.241 121.5 235.061C116.158 217.431 119.991 202.261 133 189.561C134.933 189.311 136.766 188.811 138.5 188.061C140.388 182.621 143.055 177.621 146.5 173.061C155.449 160.441 164.783 148.111 174.5 136.061C188.691 122.871 202.525 109.371 216 95.5611C226.642 86.9011 237.975 79.2411 250 72.5611C266.475 71.0211 281.308 75.5211 294.5 86.0611C306.539 99.1011 318.206 112.431 329.5 126.061C338.219 137.831 344.553 150.831 348.5 165.061C353.457 174.651 358.623 183.991 364 193.061C367.152 192.521 369.652 193.521 371.5 196.061C374.698 201.701 377.032 207.701 378.5 214.061C381.572 224.931 378.739 233.601 370 240.061Z" fill="#821C06"/>
<path fill-rule="evenodd" clip-rule="evenodd" d="M253.999 82.0609C258.731 81.9409 263.397 82.4409 267.999 83.5609C272.222 85.5009 276.555 87.1709 280.999 88.5609C298.971 105.531 315.138 124.031 329.499 144.061C332.809 151.981 335.809 159.981 338.499 168.061C341.985 174.361 345.485 180.691 348.999 187.061C348.332 187.391 347.666 187.731 346.999 188.061C330.808 184.271 314.474 181.441 297.999 179.561C275.666 178.891 253.332 178.891 230.999 179.561C205.199 181.881 179.532 184.041 153.999 186.061C152.858 184.141 152.691 182.141 153.499 180.061C177.565 146.661 205.732 117.161 237.999 91.5609C242.999 89.0609 247.999 86.5609 252.999 84.0609C253.797 83.6009 254.13 82.9409 253.999 82.0609Z" fill="#F74000"/>
<path fill-rule="evenodd" clip-rule="evenodd" d="M257.001 188.061C284.575 188.051 311.909 190.551 339.001 195.561C342.697 197.531 346.697 198.531 351.001 198.561C352.86 200.541 355.193 201.541 358.001 201.561C359.874 203.771 362.041 205.601 364.501 207.061C366.781 213.181 367.948 219.521 368.001 226.061C358.02 227.061 348.02 227.231 338.001 226.561C336.457 226.271 335.124 225.601 334.001 224.561C313.176 221.991 292.176 220.151 271.001 219.061C237.195 220.251 203.528 222.751 170.001 226.561C157.005 227.061 144.005 227.231 131.001 227.061C128.13 217.321 129.963 208.651 136.501 201.061C138.301 199.241 140.467 198.081 143.001 197.561C157.567 195.451 172.233 194.451 187.001 194.561C189.463 193.341 192.13 192.681 195.001 192.561C215.792 190.581 236.458 189.081 257.001 188.061Z" fill="#F64001"/>
<path fill-rule="evenodd" clip-rule="evenodd" d="M237.001 192.061C247.399 191.661 257.733 192.161 268.001 193.561C272.082 195.031 276.082 196.701 280.001 198.561C281.103 200.961 281.27 203.461 280.501 206.061C277.243 208.441 274.077 210.941 271.001 213.561C257.39 216.271 243.723 216.941 230.001 215.561C223.391 213.351 221.225 208.851 223.501 202.061C227.642 198.061 232.142 194.731 237.001 192.061Z" fill="#F3F159"/>
<path fill-rule="evenodd" clip-rule="evenodd" d="M263 198.061C261.32 200.291 261.653 201.951 264 203.061C261.125 205.881 259.125 205.221 258 201.061C258.573 198.471 260.239 197.471 263 198.061Z" fill="#E3EFEC"/>
<path fill-rule="evenodd" clip-rule="evenodd" d="M238 198.061C242.476 198.381 243.976 200.721 242.5 205.061C240.602 207.241 238.436 207.581 236 206.061C236 205.731 236 205.391 236 205.061C237.685 204.381 238.685 203.041 239 201.061C238.175 200.171 237.175 199.841 236 200.061C236.333 199.061 237 198.391 238 198.061Z" fill="#DEEAE7"/>
<path fill-rule="evenodd" clip-rule="evenodd" d="M263 198.061C263.667 198.061 264.333 198.061 265 198.061C265.667 198.061 266 198.391 266 199.061C266.271 200.941 265.604 202.271 264 203.061C261.653 201.951 261.32 200.291 263 198.061Z" fill="#111234"/>
<path fill-rule="evenodd" clip-rule="evenodd" d="M265 198.061C264.333 198.061 263.667 198.061 263 198.061C260.239 197.471 258.573 198.471 258 201.061C259.125 205.221 261.125 205.881 264 203.061C265.604 202.271 266.271 200.941 266 199.061C267.41 203.241 267.076 207.411 265 211.561C255.671 212.671 246.337 213.341 237 213.561C236.065 211.181 235.732 208.681 236 206.061C238.436 207.581 240.602 207.241 242.5 205.061C243.976 200.721 242.476 198.381 238 198.061C238.774 197.411 239.774 197.081 241 197.061C247.717 200.101 254.051 199.431 260 195.061C261.945 195.691 263.612 196.691 265 198.061Z" fill="#138850"/>
<path fill-rule="evenodd" clip-rule="evenodd" d="M236 200.061C237.175 199.841 238.175 200.171 239 201.061C238.685 203.041 237.685 204.381 236 205.061C234.248 205.141 233.248 204.311 233 202.561C233.248 200.811 234.248 199.981 236 200.061Z" fill="#0C0C32"/>
<path fill-rule="evenodd" clip-rule="evenodd" d="M303 233.061C301.235 234.021 299.235 234.351 297 234.061C282.534 233.651 280.201 238.821 290 249.561C292.707 249.961 295.373 250.461 298 251.061C301.734 251.241 305.401 250.901 309 250.061C314.6 250.501 319.434 248.841 323.5 245.061C324.167 243.391 324.167 241.731 323.5 240.061C321.535 238.011 319.368 236.341 317 235.061C328.29 236.671 339.623 238.011 351 239.061C351.52 241.751 353.02 243.751 355.5 245.061C358.66 253.481 361.327 262.151 363.5 271.061C363.833 275.391 364.167 279.731 364.5 284.061C366.207 285.601 367.707 287.261 369 289.061C368.251 298.031 367.751 307.031 367.5 316.061C366.236 327.091 361.403 336.251 353 343.561C347 347.561 341 351.561 335 355.561C328.177 358.111 321.51 360.941 315 364.061C326.086 365.191 337.086 366.861 348 369.061C352.359 369.021 356.026 367.521 359 364.561C360.667 363.891 362.333 363.891 364 364.561C365.905 366.431 368.072 367.931 370.5 369.061C371.754 374.641 369.587 377.971 364 379.061C364.415 381.311 365.082 383.471 366 385.561C365.629 395.951 360.962 398.611 352 393.561C349.69 391.921 348.19 389.761 347.5 387.061C346.081 386.101 344.581 385.271 343 384.561C332.65 383.381 322.317 382.051 312 380.561C311.415 379.261 310.749 378.091 310 377.061C310.165 373.381 309.999 369.711 309.5 366.061C308.269 365.451 306.936 365.121 305.5 365.061C269.543 370.011 233.377 371.851 197 370.561C193.629 369.491 190.296 368.331 187 367.061C186.009 371.011 185.676 375.011 186 379.061C177.277 383.171 169.11 388.171 161.5 394.061C161.403 399.991 158.903 404.491 154 407.561C150.24 408.741 147.407 407.571 145.5 404.061C144.893 400.021 145.06 396.021 146 392.061C141.238 391.861 137.072 390.201 133.5 387.061C132.541 380.351 135.541 377.011 142.5 377.061C146.657 377.851 150.823 378.021 155 377.561C163.109 372.171 171.776 367.841 181 364.561C174.718 362.241 168.385 359.911 162 357.561C155.425 351.641 148.925 345.811 142.5 340.061C138.02 332.101 134.354 323.771 131.5 315.061C130.511 305.081 130.011 295.081 130 285.061C130.637 281.301 132.137 277.971 134.5 275.061C134.898 266.801 136.565 258.801 139.5 251.061C141.111 247.621 143.277 244.621 146 242.061C161.286 240.161 176.619 238.161 192 236.061C187.46 238.431 183.294 241.431 179.5 245.061C178.538 249.791 180.038 253.631 184 256.561C197.349 257.311 209.515 253.811 220.5 246.061C224.069 238.611 221.902 234.281 214 233.061C243.717 229.081 273.383 229.081 303 233.061Z" fill="#E8E798"/>
<path fill-rule="evenodd" clip-rule="evenodd" d="M303 233.061C306.109 232.821 309.109 233.161 312 234.061C313.932 236.741 314.432 239.741 313.5 243.061C311.989 245.421 310.489 247.751 309 250.061C305.401 250.901 301.734 251.241 298 251.061C295.386 248.621 293.386 245.791 292 242.561C292.637 239.101 294.303 236.261 297 234.061C299.235 234.351 301.235 234.021 303 233.061Z" fill="#070606"/>
<path fill-rule="evenodd" clip-rule="evenodd" d="M212.001 234.061C213.009 235.901 214.509 237.231 216.501 238.061C218.037 243.921 215.87 248.091 210.001 250.561C205.214 251.441 200.548 251.111 196.001 249.561C190.9 245.441 190.9 241.271 196.001 237.061C198.558 236.371 200.892 235.211 203.001 233.561C206.093 232.821 209.093 232.991 212.001 234.061Z" fill="#090808"/>
<path fill-rule="evenodd" clip-rule="evenodd" d="M296.999 234.061C294.302 236.261 292.636 239.101 291.999 242.561C293.385 245.791 295.385 248.621 297.999 251.061C295.372 250.461 292.706 249.961 289.999 249.561C280.2 238.821 282.533 233.651 296.999 234.061Z" fill="#F5F5F3"/>
<path fill-rule="evenodd" clip-rule="evenodd" d="M312 234.061C312.667 234.061 313.333 234.061 314 234.061C314.709 234.961 315.709 235.301 317 235.061C319.368 236.341 321.535 238.011 323.5 240.061C324.167 241.731 324.167 243.391 323.5 245.061C319.434 248.841 314.6 250.501 309 250.061C310.489 247.751 311.989 245.421 313.5 243.061C314.432 239.741 313.932 236.741 312 234.061Z" fill="#FAFAF7"/>
<path fill-rule="evenodd" clip-rule="evenodd" d="M252.001 236.061C258.562 235.491 264.396 237.161 269.501 241.061C270.751 243.641 271.085 246.301 270.501 249.061C267.558 250.941 264.391 252.441 261.001 253.561C255.001 254.231 249.001 254.231 243.001 253.561C235.963 249.371 235.296 244.371 241.001 238.561C242.246 237.771 243.579 237.271 245.001 237.061C246.048 237.641 245.881 238.301 244.501 239.061C243.229 242.791 244.562 244.461 248.501 244.061C254.176 243.361 255.342 240.691 252.001 236.061Z" fill="#090805"/>
<path fill-rule="evenodd" clip-rule="evenodd" d="M314 234.061C319.676 233.891 325.343 234.061 331 234.561C337.788 236.891 344.788 238.051 352 238.061C352 238.731 351.667 239.061 351 239.061C339.623 238.011 328.29 236.671 317 235.061C315.709 235.301 314.709 234.961 314 234.061Z" fill="#E57635"/>
<path fill-rule="evenodd" clip-rule="evenodd" d="M214 233.061C221.902 234.281 224.069 238.611 220.5 246.061C209.515 253.811 197.349 257.311 184 256.561C180.038 253.631 178.538 249.791 179.5 245.061C183.294 241.431 187.46 238.431 192 236.061C193.599 235.791 194.932 236.131 196 237.061C190.899 241.271 190.899 245.441 196 249.561C200.547 251.111 205.213 251.441 210 250.561C215.869 248.091 218.036 243.921 216.5 238.061C214.508 237.231 213.008 235.901 212 234.061C212.342 233.221 213.008 232.891 214 233.061Z" fill="#F9F9F5"/>
<path fill-rule="evenodd" clip-rule="evenodd" d="M370 240.061C371.838 242.731 373.005 245.731 373.5 249.061C377.814 252.211 381.648 255.871 385 260.061C391.852 261.821 398.186 264.651 404 268.561C410.143 275.161 410.643 282.321 405.5 290.061C392.992 298.351 380.825 298.021 369 289.061C367.707 287.261 366.207 285.601 364.5 284.061C364.167 279.731 363.833 275.391 363.5 271.061C361.327 262.151 358.66 253.481 355.5 245.061C353.02 243.751 351.52 241.751 351 239.061C351.667 239.061 352 238.731 352 238.061C355.623 236.801 359.29 236.801 363 238.061C364.678 241.061 367.011 241.731 370 240.061Z" fill="#040403"/>
<path fill-rule="evenodd" clip-rule="evenodd" d="M145.999 242.061C143.276 244.621 141.11 247.621 139.499 251.061C136.564 258.801 134.897 266.801 134.499 275.061C132.136 277.971 130.636 281.301 129.999 285.061C125.234 291.661 119.568 297.491 112.999 302.561C105.671 305.461 99.1715 304.291 93.499 299.061C88.1157 282.421 93.6157 270.921 109.999 264.561C113.332 261.891 116.666 259.231 119.999 256.561C124.11 252.161 127.444 247.331 129.999 242.061C135.332 240.731 140.666 240.731 145.999 242.061Z" fill="#040403"/>
<path fill-rule="evenodd" clip-rule="evenodd" d="M244.999 237.061C247.106 236.091 249.44 235.761 251.999 236.061C255.34 240.691 254.174 243.361 248.499 244.061C244.56 244.461 243.227 242.791 244.499 239.061C245.879 238.301 246.046 237.641 244.999 237.061Z" fill="#5F5A45"/>
<path fill-rule="evenodd" clip-rule="evenodd" d="M276 255.061C278.027 254.901 280.027 255.061 282 255.561C283.333 256.561 283.333 257.561 282 258.561C278.626 259.081 275.626 260.411 273 262.561C258.722 265.421 244.389 265.751 230 263.561C228.5 261.391 229 259.891 231.5 259.061C245.033 261.851 258.533 261.681 272 258.561C273.231 257.161 274.564 255.991 276 255.061Z" fill="#0C0C07"/>
<path fill-rule="evenodd" clip-rule="evenodd" d="M315 288.061C306.52 285.091 297.853 282.251 289 279.561C269.484 277.231 259.817 286.071 260 306.061C258.924 318.411 264.257 326.251 276 329.561C292.176 333.051 302.676 326.881 307.5 311.061C309.152 306.521 310.318 301.851 311 297.061C314.807 300.091 319.141 301.761 324 302.061C327.361 320.181 320.695 332.681 304 339.561C289.632 344.011 274.965 346.841 260 348.061C262.738 344.651 265.071 340.991 267 337.061C266.725 334.951 265.558 333.621 263.5 333.061C259.896 335.601 256.729 338.601 254 342.061C250.527 339.911 246.861 338.241 243 337.061C238.665 338.571 237.998 341.071 241 344.561C244.099 344.951 246.766 346.111 249 348.061C229.053 349.921 209.72 347.421 191 340.561C179.33 329.741 175.997 316.911 181 302.061C182.1 299.541 183.767 298.541 186 299.061C184.247 306.351 185.08 313.351 188.5 320.061C191 323.891 194.167 327.061 198 329.561C216.164 334.061 228.664 327.561 235.5 310.061C236.167 307.391 236.167 304.731 235.5 302.061C232.603 296.941 230.269 291.601 228.5 286.061C223.233 281.471 217.067 279.141 210 279.061C210.077 277.811 210.744 276.981 212 276.561C217.733 274.711 223.399 272.711 229 270.561C242.302 269.091 255.636 268.751 269 269.561C280.797 272.431 292.464 275.431 304 278.561C307.859 281.591 311.526 284.761 315 288.061Z" fill="#F9F9F8"/>
<path fill-rule="evenodd" clip-rule="evenodd" d="M209.999 279.061C217.066 279.141 223.232 281.471 228.499 286.061C230.268 291.601 232.602 296.941 235.499 302.061C236.166 304.731 236.166 307.391 235.499 310.061C228.663 327.561 216.163 334.061 197.999 329.561C194.166 327.061 190.999 323.891 188.499 320.061C185.079 313.351 184.246 306.351 185.999 299.061C183.766 298.541 182.099 299.541 180.999 302.061C179.361 303.221 177.695 304.381 175.999 305.561C169.422 307.151 167.255 304.651 169.499 298.061C179.971 285.411 193.471 279.081 209.999 279.061Z" fill="#060606"/>
<path fill-rule="evenodd" clip-rule="evenodd" d="M315.001 288.061C318.156 291.571 321.99 294.231 326.501 296.061C327.168 297.731 327.168 299.391 326.501 301.061C325.83 301.811 324.997 302.151 324.001 302.061C319.142 301.761 314.808 300.091 311.001 297.061C310.319 301.851 309.153 306.521 307.501 311.061C302.677 326.881 292.177 333.051 276.001 329.561C264.258 326.251 258.925 318.411 260.001 306.061C259.818 286.071 269.485 277.231 289.001 279.561C297.854 282.251 306.521 285.091 315.001 288.061Z" fill="#040404"/>
<path fill-rule="evenodd" clip-rule="evenodd" d="M275 285.061C280.58 284.331 283.58 286.661 284 292.061C283.694 295.091 283.194 298.091 282.5 301.061C279.467 305.331 275.633 306.171 271 303.561C268.878 301.121 267.211 298.451 266 295.561C266.125 293.931 266.625 292.431 267.5 291.061C270.151 289.141 272.651 287.141 275 285.061Z" fill="#F1F1F1"/>
<path fill-rule="evenodd" clip-rule="evenodd" d="M214 288.061C223.611 287.241 227.111 291.571 224.5 301.061C221.572 307.451 217.072 309.121 211 306.061C209.179 304.081 208.179 301.751 208 299.061C209.211 294.971 211.211 291.301 214 288.061Z" fill="#F7F7F7"/>
<path fill-rule="evenodd" clip-rule="evenodd" d="M259.999 348.061C256.332 349.391 252.666 349.391 248.999 348.061C246.765 346.111 244.098 344.951 240.999 344.561C237.997 341.071 238.664 338.571 242.999 337.061C246.86 338.241 250.526 339.911 253.999 342.061C256.728 338.601 259.895 335.601 263.499 333.061C265.557 333.621 266.724 334.951 266.999 337.061C265.07 340.991 262.737 344.651 259.999 348.061Z" fill="#0F0F0F"/>
<path fill-rule="evenodd" clip-rule="evenodd" d="M310 377.061C310 378.061 310 379.061 310 380.061C308.627 379.901 307.293 380.071 306 380.561C304.622 382.271 302.955 383.611 301 384.561C292.821 385.921 284.821 387.921 277 390.561C267.303 391.561 257.636 392.731 248 394.061C242.661 393.631 237.327 393.131 232 392.561C218.256 387.941 204.256 384.441 190 382.061C189.058 382.171 188.225 382.501 187.5 383.061C187.29 384.621 186.79 385.951 186 387.061C186 384.391 186 381.731 186 379.061C185.676 375.011 186.009 371.011 187 367.061C190.296 368.331 193.629 369.491 197 370.561C233.377 371.851 269.543 370.011 305.5 365.061C306.936 365.121 308.269 365.451 309.5 366.061C309.999 369.711 310.165 373.381 310 377.061Z" fill="#615898"/>
<path fill-rule="evenodd" clip-rule="evenodd" d="M310.001 380.061C311.231 381.861 311.897 383.861 312.001 386.061C313.142 388.111 313.142 390.111 312.001 392.061C309.155 392.111 306.821 393.111 305.001 395.061C299.981 394.601 295.314 395.601 291.001 398.061C285.308 399.401 279.641 400.741 274.001 402.061C270.886 402.171 268.22 401.171 266.001 399.061C258.172 400.921 250.172 401.591 242.001 401.061C239.756 402.921 237.089 403.921 234.001 404.061C229.81 402.141 225.476 400.641 221.001 399.561C217.684 399.061 214.351 398.891 211.001 399.061C207.562 399.311 204.229 398.971 201.001 398.061C200.334 398.061 199.668 398.061 199.001 398.061C197.066 397.411 195.066 397.081 193.001 397.061C192.659 396.221 191.993 395.891 191.001 396.061C189.892 395.271 188.559 394.771 187.001 394.561C186.249 393.891 185.915 393.061 186.001 392.061C187.063 390.461 187.063 388.791 186.001 387.061C186.791 385.951 187.291 384.621 187.501 383.061C188.226 382.501 189.059 382.171 190.001 382.061C204.257 384.441 218.257 387.941 232.001 392.561C237.328 393.131 242.662 393.631 248.001 394.061C257.637 392.731 267.304 391.561 277.001 390.561C284.822 387.921 292.822 385.921 301.001 384.561C302.956 383.611 304.623 382.271 306.001 380.561C307.294 380.071 308.628 379.901 310.001 380.061Z" fill="#09093E"/>
<path fill-rule="evenodd" clip-rule="evenodd" d="M186 392.061C185.914 393.061 186.248 393.891 187 394.561C188.558 394.771 189.891 395.271 191 396.061C189.627 395.901 188.293 396.071 187 396.561C183.112 400.201 180.112 404.371 178 409.061C178.482 411.481 179.815 413.311 182 414.561C185.317 415.061 188.65 415.231 192 415.061C189.213 416.041 186.213 416.371 183 416.061C182.883 418.041 183.55 419.711 185 421.061C197.646 418.701 210.312 416.201 223 413.561C226.939 411.771 230.272 409.271 233 406.061C233.838 405.721 234.172 405.051 234 404.061C237.088 403.921 239.755 402.921 242 401.061C239.705 408.531 235.038 414.031 228 417.561C213.376 421.741 198.542 424.911 183.5 427.061C181.789 427.121 180.456 426.451 179.5 425.061C179.188 420.441 177.188 416.781 173.5 414.061C171.97 407.941 173.303 402.611 177.5 398.061C179.707 395.001 182.541 393.001 186 392.061Z" fill="#7F1F0D"/>
<path fill-rule="evenodd" clip-rule="evenodd" d="M291 398.061C295.313 395.601 299.98 394.601 305 395.061C305.06 395.601 305.393 395.941 306 396.061C308.993 392.971 312.326 392.471 316 394.561C318.388 396.611 320.388 398.941 322 401.561C321.766 403.291 320.766 404.131 319 404.061C316.111 403.171 313.778 401.501 312 399.061C309.778 401.781 306.945 403.451 303.5 404.061C300.952 403.961 299.452 402.631 299 400.061C295.191 403.231 292.524 402.561 291 398.061Z" fill="#FAF2EF"/>
<path fill-rule="evenodd" clip-rule="evenodd" d="M191 396.061C191.992 395.891 192.658 396.221 193 397.061C192.835 400.411 193.002 403.741 193.5 407.061C195.167 408.391 196.833 408.391 198.5 407.061C198.998 404.081 199.165 401.081 199 398.061C199.667 398.061 200.333 398.061 201 398.061C203.865 404.021 207.199 404.361 211 399.061C214.35 398.891 217.683 399.061 221 399.561C225.475 400.641 229.809 402.141 234 404.061C234.172 405.051 233.838 405.721 233 406.061C219.512 409.851 205.846 412.851 192 415.061C188.65 415.231 185.317 415.061 182 414.561C179.815 413.311 178.482 411.481 178 409.061C180.112 404.371 183.112 400.201 187 396.561C188.293 396.071 189.627 395.901 191 396.061Z" fill="#F43F04"/>
<path fill-rule="evenodd" clip-rule="evenodd" d="M193.001 397.061C195.066 397.081 197.066 397.411 199.001 398.061C199.166 401.081 198.999 404.081 198.501 407.061C196.834 408.391 195.168 408.391 193.501 407.061C193.003 403.741 192.836 400.411 193.001 397.061Z" fill="#F9ECE6"/>
<path fill-rule="evenodd" clip-rule="evenodd" d="M201 398.061C204.228 398.971 207.561 399.311 211 399.061C207.199 404.361 203.865 404.021 201 398.061Z" fill="#FBF2ED"/>
<path fill-rule="evenodd" clip-rule="evenodd" d="M312 392.061C319.559 392.471 324.892 396.141 328 403.061C326.814 405.901 324.814 408.071 322 409.561C308 410.231 294 410.231 280 409.561C277.264 407.711 274.264 406.551 271 406.061C271 405.061 271 404.061 271 403.061C272.291 403.301 273.291 402.961 274 402.061C279.64 400.741 285.307 399.401 291 398.061C292.524 402.561 295.191 403.231 299 400.061C299.452 402.631 300.952 403.961 303.5 404.061C306.945 403.451 309.778 401.781 312 399.061C313.778 401.501 316.111 403.171 319 404.061C320.766 404.131 321.766 403.291 322 401.561C320.388 398.941 318.388 396.611 316 394.561C312.326 392.471 308.993 392.971 306 396.061C305.393 395.941 305.06 395.601 305 395.061C306.82 393.111 309.154 392.111 312 392.061Z" fill="#F1420B"/>
<path fill-rule="evenodd" clip-rule="evenodd" d="M233 406.061C230.272 409.271 226.939 411.771 223 413.561C210.312 416.201 197.646 418.701 185 421.061C183.55 419.711 182.883 418.041 183 416.061C186.213 416.371 189.213 416.041 192 415.061C205.846 412.851 219.512 409.851 233 406.061Z" fill="#FAEDE7"/>
<path fill-rule="evenodd" clip-rule="evenodd" d="M312 386.061C328.902 388.241 335.735 397.571 332.5 414.061C329.907 417.101 326.74 419.271 323 420.561C308.733 419.561 294.4 418.561 280 417.561C274.604 415.441 269.437 412.941 264.5 410.061C265.408 406.591 265.908 402.921 266 399.061C268.219 401.171 270.885 402.171 274 402.061C273.291 402.961 272.291 403.301 271 403.061C271 404.061 271 405.061 271 406.061C271.077 407.311 271.744 408.141 273 408.561C278.522 410.951 284.188 412.611 290 413.561C299.85 413.821 309.684 414.321 319.5 415.061C327.074 414.031 329.907 410.031 328 403.061C324.892 396.141 319.559 392.471 312 392.061C313.141 390.111 313.141 388.111 312 386.061Z" fill="#7D1A09"/>
<path fill-rule="evenodd" clip-rule="evenodd" d="M328 403.061C329.907 410.031 327.074 414.031 319.5 415.061C309.684 414.321 299.85 413.821 290 413.561C284.188 412.611 278.522 410.951 273 408.561C271.744 408.141 271.077 407.311 271 406.061C274.264 406.551 277.264 407.711 280 409.561C294 410.231 308 410.231 322 409.561C324.814 408.071 326.814 405.901 328 403.061Z" fill="#F4E5E0"/>
</svg>
