<svg width="500" height="500" viewBox="0 0 500 500" fill="none" xmlns="http://www.w3.org/2000/svg">
<path fill-rule="evenodd" clip-rule="evenodd" d="M382 90.061C380.981 91.661 379.481 92.661 377.5 93.061C371.377 88.251 364.544 86.921 357 89.061C355.641 90.871 355.975 92.371 358 93.561C362.465 94.131 366.465 95.791 370 98.561C368.525 100.871 366.858 103.041 365 105.061C359.686 100.571 353.686 97.401 347 95.561C330.395 94.391 321.729 102.221 321 119.061C321.092 120.821 321.425 122.481 322 124.061C315.484 120.501 308.484 118.001 301 116.561C293.97 116.431 286.97 116.931 280 118.061C278.15 104.401 281.816 92.561 291 82.561C296.586 78.031 302.919 76.361 310 77.561C322.975 78.461 333.475 83.961 341.5 94.061C352.588 84.611 365.088 82.451 379 87.561C380.442 87.941 381.442 88.771 382 90.061Z" fill="#E0E5FD"/>
<path fill-rule="evenodd" clip-rule="evenodd" d="M420 192.061C418.18 183.271 413.846 175.771 407 169.561C397.808 162.871 388.474 156.371 379 150.061C379 147.061 379 144.061 379 141.061C383.981 141.891 388.981 142.061 394 141.561C397.23 139.841 397.564 137.841 395 135.561C391 135.561 387 135.561 383 135.561C398.316 120.611 398.65 105.441 384 90.0612C400.591 84.2612 413.091 89.2612 421.5 105.061C423.155 119.581 418.322 131.411 407 140.561C403.542 142.351 399.876 143.681 396 144.561C412.663 144.901 424.163 152.731 430.5 168.061C431.953 178.191 428.453 186.191 420 192.061Z" fill="#E1E6FD"/>
<path fill-rule="evenodd" clip-rule="evenodd" d="M382 90.0608C382.667 90.0608 383.333 90.0608 384 90.0608C398.65 105.441 398.316 120.611 383 135.561C387 135.561 391 135.561 395 135.561C397.564 137.841 397.23 139.841 394 141.561C388.981 142.061 383.981 141.891 379 141.061C379 144.061 379 147.061 379 150.061C374.367 148.081 370.034 145.581 366 142.561C361.455 141.851 357.122 140.521 353 138.561C348.858 138.501 344.691 138.671 340.5 139.061C336.218 139.531 332.385 138.531 329 136.061C328.414 136.271 327.914 136.601 327.5 137.061C325.192 132.981 323.359 128.651 322 124.061C321.425 122.481 321.092 120.821 321 119.061C321.729 102.221 330.395 94.3908 347 95.5608C353.686 97.4008 359.686 100.571 365 105.061C366.858 103.041 368.525 100.871 370 98.5608C366.465 95.7908 362.465 94.1308 358 93.5608C355.975 92.3708 355.641 90.8708 357 89.0608C364.544 86.9208 371.377 88.2508 377.5 93.0608C379.481 92.6608 380.981 91.6608 382 90.0608Z" fill="#F3F4FC"/>
<path fill-rule="evenodd" clip-rule="evenodd" d="M280 119.061C281 122.391 282 125.731 283 129.061C281.677 131.251 279.677 132.751 277 133.561C265.718 135.431 255.051 139.101 245 144.561C232.451 148.511 220.451 153.511 209 159.561C192.737 163.541 177.071 169.211 162 176.561C159.333 177.231 156.667 177.891 154 178.561C148.23 184.271 141.23 187.271 133 187.561C127.061 191.361 120.727 194.361 114 196.561C109.701 199.951 105.534 203.451 101.5 207.061C89.3352 226.221 82.3352 247.221 80.5002 270.061C79.8332 285.391 79.8332 300.731 80.5002 316.061C84.0802 326.731 90.2472 335.561 99.0002 342.561C104.896 347.301 110.896 351.801 117 356.061C115.06 360.551 113.727 365.211 113 370.061C101.115 361.351 89.9482 351.681 79.5002 341.061C76.1032 332.871 73.1032 324.531 70.5002 316.061C69.8332 297.061 69.8332 278.061 70.5002 259.061C72.8202 245.771 76.1532 232.771 80.5002 220.061C84.8333 212.391 89.1672 204.731 93.5002 197.061C100.242 191.441 107.075 185.941 114 180.561C131.7 173.491 149.033 165.821 166 157.561C186.833 151.281 207.5 144.621 228 137.561C244.543 129.321 261.876 123.161 280 119.061Z" fill="#FD8FBB"/>
<path fill-rule="evenodd" clip-rule="evenodd" d="M283 129.061C289.585 141.461 299.919 145.961 314 142.561C317.868 141.551 321.534 140.051 325 138.061C325.798 138.521 326.131 139.181 326 140.061C326.887 162.771 338.553 171.941 361 167.561C364.691 166.721 368.024 165.221 371 163.061C372.264 161.291 373.764 159.621 375.5 158.061C375.622 159.841 375.122 161.511 374 163.061C371.993 172.981 373.16 182.651 377.5 192.061C382.004 197.561 387.837 200.231 395 200.061C399.548 199.421 403.881 198.421 408 197.061C408.333 197.061 408.667 197.061 409 197.061C409.914 214.051 410.081 231.051 409.5 248.061C407.504 258.951 406.504 269.951 406.5 281.061C404.501 289.391 400.668 296.731 395 303.061C377.467 314.421 359.8 325.591 342 336.561C332.825 342.651 323.825 348.981 315 355.561C293.807 364.821 273.14 375.161 253 386.561C251.064 387.371 249.064 387.871 247 388.061C254.415 371.201 250.415 358.031 235 348.561C225.7 345.411 217.366 346.911 210 353.061C208.851 343.891 204.184 337.391 196 333.561C187.806 333.051 179.806 333.391 172 334.561C168.938 335.621 166.438 337.451 164.5 340.061C162.833 343.731 161.167 347.391 159.5 351.061C151.395 345.751 142.561 342.911 133 342.561C131.413 343.421 129.746 344.091 128 344.561C124.13 348.261 120.463 352.101 117 356.061C110.896 351.801 104.896 347.301 99.0002 342.561C90.2472 335.561 84.0802 326.731 80.5002 316.061C79.8332 300.731 79.8332 285.391 80.5002 270.061C82.3353 247.221 89.3352 226.221 101.5 207.061C105.534 203.451 109.701 199.951 114 196.561C120.727 194.361 127.061 191.361 133 187.561C141.23 187.271 148.23 184.271 154 178.561C156.667 177.891 159.333 177.231 162 176.561C177.071 169.211 192.737 163.541 209 159.561C220.451 153.511 232.451 148.511 245 144.561C255.051 139.101 265.718 135.431 277 133.561C279.677 132.751 281.677 131.251 283 129.061Z" fill="#FEACCC"/>
<path fill-rule="evenodd" clip-rule="evenodd" d="M322 124.061C323.359 128.651 325.192 132.981 327.5 137.061C327.914 136.601 328.414 136.271 329 136.061C332.385 138.531 336.218 139.531 340.5 139.061C344.691 138.671 348.858 138.501 353 138.561C357.122 140.521 361.455 141.851 366 142.561C370.034 145.581 374.367 148.081 379 150.061C388.474 156.371 397.808 162.871 407 169.561C413.846 175.771 418.18 183.271 420 192.061C420 192.391 420 192.731 420 193.061C416.187 194.001 412.521 195.331 409 197.061C408.667 197.061 408.333 197.061 408 197.061C407.964 192.581 407.131 188.251 405.5 184.061C394.713 177.421 384.213 170.421 374 163.061C375.122 161.511 375.622 159.841 375.5 158.061C373.764 159.621 372.264 161.291 371 163.061C370.21 161.771 369.21 160.601 368 159.561C354.1 152.821 340.1 146.321 326 140.061C326.131 139.181 325.798 138.521 325 138.061C321.534 140.051 317.868 141.551 314 142.561C299.919 145.961 289.585 141.461 283 129.061C282 125.731 281 122.391 280 119.061C280 118.731 280 118.391 280 118.061C286.97 116.931 293.97 116.431 301 116.561C308.484 118.001 315.484 120.501 322 124.061Z" fill="#FDC5DB"/>
<path fill-rule="evenodd" clip-rule="evenodd" d="M287 122.061C291.09 125.351 295.09 128.851 299 132.561C302.333 133.561 305.667 134.561 309 135.561C310.054 136.951 310.22 138.451 309.5 140.061C307.217 141.281 304.884 141.281 302.5 140.061C295.822 137.391 290.489 133.051 286.5 127.061C285.86 125.291 286.027 123.631 287 122.061Z" fill="#FCFAFB"/>
<path fill-rule="evenodd" clip-rule="evenodd" d="M326 140.061C340.1 146.321 354.1 152.821 368 159.561C369.21 160.601 370.21 161.771 371 163.061C368.024 165.221 364.691 166.721 361 167.561C338.553 171.941 326.887 162.771 326 140.061Z" fill="#FDD9E7"/>
<path fill-rule="evenodd" clip-rule="evenodd" d="M309 157.061C321.839 162.581 330.173 172.251 334 186.061C329.924 197.311 323.258 206.811 314 214.561C298.641 224.291 283.641 234.291 269 244.561C260.959 248.251 252.959 251.921 245 255.561C228.594 257.411 212.594 255.741 197 250.561C193.819 248.471 190.819 246.131 188 243.561C198.36 245.421 208.86 246.921 219.5 248.061C226.787 247.601 233.953 246.431 241 244.561C248.497 242.191 255.83 239.521 263 236.561C273.584 227.321 285.251 219.651 298 213.561C305.167 207.731 312.333 201.891 319.5 196.061C321.908 192.511 323.741 188.671 325 184.561C323.846 181.771 322.679 178.941 321.5 176.061C317.5 171.391 313.5 166.731 309.5 162.061C309.006 160.431 308.84 158.761 309 157.061Z" fill="#FE8EBA"/>
<path fill-rule="evenodd" clip-rule="evenodd" d="M284 159.061C286.027 158.901 288.027 159.061 290 159.561C291.167 161.391 292.333 163.231 293.5 165.061C294.522 171.241 294.022 177.241 292 183.061C294.555 187.571 294.555 191.901 292 196.061C286.357 188.581 280.524 181.251 274.5 174.061C273.833 172.061 273.833 170.061 274.5 168.061C278.167 165.561 281.334 162.561 284 159.061Z" fill="#FE90BB"/>
<path fill-rule="evenodd" clip-rule="evenodd" d="M374 163.061C384.213 170.421 394.713 177.421 405.5 184.061C407.131 188.251 407.964 192.581 408 197.061C403.881 198.421 399.548 199.421 395 200.061C387.837 200.231 382.004 197.561 377.5 192.061C373.16 182.651 371.993 172.981 374 163.061Z" fill="#FDD6E6"/>
<path fill-rule="evenodd" clip-rule="evenodd" d="M218 170.061C219.333 170.061 220.667 170.061 222 170.061C222.396 172.601 221.729 174.771 220 176.561C212.249 178.601 204.582 180.931 197 183.561C182.49 191.321 167.823 198.821 153 206.061C152.414 205.851 151.914 205.521 151.5 205.061C150.833 203.061 150.833 201.061 151.5 199.061C153.333 197.231 155.167 195.391 157 193.561C174.584 184.701 192.917 178.031 212 173.561C214.118 172.481 216.118 171.311 218 170.061Z" fill="#FE8FBA"/>
<path fill-rule="evenodd" clip-rule="evenodd" d="M257 172.061C260.692 171.531 263.858 172.531 266.5 175.061C273.226 182.611 277.226 191.281 278.5 201.061C277.721 202.291 276.721 203.291 275.5 204.061C272.727 201.961 270.727 199.291 269.5 196.061C268.663 194.551 267.496 194.051 266 194.561C264.833 195.731 263.667 196.891 262.5 198.061C262.399 201.631 262.899 205.131 264 208.561C263.833 210.061 263.667 211.561 263.5 213.061C262.547 215.151 261.214 215.491 259.5 214.061C256.691 203.471 254.191 192.801 252 182.061C252.917 178.281 254.584 174.951 257 172.061Z" fill="#FE90BB"/>
<path fill-rule="evenodd" clip-rule="evenodd" d="M229.999 185.061C238.247 184.101 244.08 187.441 247.499 195.061C252.283 202.821 252.117 210.321 246.999 217.561C243.546 218.041 240.213 217.541 236.999 216.061C232.443 211.291 228.609 205.961 225.499 200.061C224.804 194.341 226.304 189.341 229.999 185.061Z" fill="#FE93BD"/>
<path fill-rule="evenodd" clip-rule="evenodd" d="M420 193.061C422.849 215.551 422.349 237.881 418.5 260.061C418.055 270.081 417.388 280.081 416.5 290.061C415.813 294.141 414.813 298.141 413.5 302.061C409.367 307.191 404.867 312.031 400 316.561C394.711 320.181 389.711 324.181 385 328.561C376.932 332.921 369.265 337.751 362 343.061C360.432 342.091 358.765 341.921 357 342.561C355 343.891 353 345.231 351 346.561C349.677 347.381 349.011 348.541 349 350.061C334.35 358.371 319.684 366.701 305 375.061C300.259 376.601 295.925 378.931 292 382.061C274.276 391.581 255.776 399.251 236.5 405.061C235.829 404.311 234.996 403.971 234 404.061C239.885 400.171 243.885 394.841 246 388.061C246.333 388.061 246.667 388.061 247 388.061C249.064 387.871 251.064 387.371 253 386.561C273.14 375.161 293.807 364.821 315 355.561C323.825 348.981 332.825 342.651 342 336.561C359.8 325.591 377.467 314.421 395 303.061C400.668 296.731 404.501 289.391 406.5 281.061C406.504 269.951 407.504 258.951 409.5 248.061C410.081 231.051 409.914 214.051 409 197.061C412.521 195.331 416.187 194.001 420 193.061Z" fill="#FE8EBA"/>
<path fill-rule="evenodd" clip-rule="evenodd" d="M206.999 199.061C209.686 198.901 212.353 199.061 214.999 199.561C215.943 202.281 216.276 205.111 215.999 208.061C213.68 207.391 211.346 207.231 208.999 207.561C207.945 208.951 207.779 210.451 208.499 212.061C217.261 211.401 223.928 214.731 228.499 222.061C229.166 225.731 229.166 229.391 228.499 233.061C223.037 236.571 217.37 236.911 211.499 234.061C210.528 231.261 211.361 229.261 213.999 228.061C216.614 228.831 219.28 229.161 221.999 229.061C222.525 225.751 221.192 223.591 217.999 222.561C214.332 222.231 210.666 221.891 206.999 221.561C199.034 213.991 199.034 206.491 206.999 199.061Z" fill="#FE8FBA"/>
<path fill-rule="evenodd" clip-rule="evenodd" d="M359 223.061C360.333 223.061 361.667 223.061 363 223.061C363.059 227.111 361.392 230.271 358 232.561C319.433 249.251 283.1 270.081 249 295.061C247.932 293.371 248.099 291.711 249.5 290.061C252.591 285.551 255.925 281.211 259.5 277.061C264.91 272.771 270.41 268.611 276 264.561C303.232 249.611 330.899 235.781 359 223.061Z" fill="#FE8FBA"/>
<path fill-rule="evenodd" clip-rule="evenodd" d="M127.001 252.061C144.053 256.091 159.386 263.591 173.001 274.561C176.445 274.671 178.778 276.341 180.001 279.561C191.936 286.831 201.102 296.661 207.501 309.061C210.662 317.451 211.662 326.121 210.501 335.061C210.087 335.521 209.587 335.851 209.001 336.061C207.311 333.541 205.144 331.541 202.501 330.061C200.695 322.191 198.361 314.521 195.501 307.061C178.638 282.551 156.138 265.051 128.001 254.561C127.249 253.891 126.915 253.061 127.001 252.061Z" fill="#FE8FBA"/>
<path fill-rule="evenodd" clip-rule="evenodd" d="M359 266.061C350.852 266.251 342.852 267.411 335 269.561C325.74 273.841 322.24 281.011 324.5 291.061C329.774 308.451 340.274 312.611 356 303.561C361.658 296.731 363.491 288.901 361.5 280.061C360.964 277.691 359.797 275.691 358 274.061C360.586 273.081 363.253 272.751 366 273.061C370.126 285.301 369.293 297.301 363.5 309.061C346.722 328.211 326.222 342.051 302 350.561C282.429 353.451 269.429 345.611 263 327.061C263.124 326.451 263.457 326.121 264 326.061C266.338 328.701 268.505 328.371 270.5 325.061C271.303 322.321 272.303 319.651 273.5 317.061C276.983 330.201 285.483 335.701 299 333.561C309.19 327.681 313.357 318.841 311.5 307.061C310.5 305.391 309.5 303.731 308.5 302.061C304.879 300.161 301.712 297.661 299 294.561C292.321 293.411 285.988 294.411 280 297.561C274.43 301.631 269.763 306.461 266 312.061C270.604 301.691 276.604 292.191 284 283.561C294.487 274.481 306.153 267.141 319 261.561C331.687 256.991 344.354 256.991 357 261.561C358.849 262.651 360.516 263.991 362 265.561C361.052 266.041 360.052 266.211 359 266.061Z" fill="#F9F9F9"/>
<path fill-rule="evenodd" clip-rule="evenodd" d="M358.999 266.061C362.476 266.881 366.143 267.381 369.999 267.561C371.016 268.611 371.183 269.781 370.499 271.061C368.877 271.661 367.377 272.331 365.999 273.061C363.252 272.751 360.585 273.081 357.999 274.061C359.796 275.691 360.963 277.691 361.499 280.061C363.49 288.901 361.657 296.731 355.999 303.561C340.273 312.611 329.773 308.451 324.499 291.061C322.239 281.011 325.739 273.841 334.999 269.561C342.851 267.411 350.851 266.251 358.999 266.061Z" fill="#080808"/>
<path fill-rule="evenodd" clip-rule="evenodd" d="M332 276.061C334.436 275.881 336.603 276.541 338.5 278.061C343.191 284.641 341.858 289.311 334.5 292.061C332.87 290.851 331.036 290.011 329 289.561C327.927 288.251 327.26 286.751 327 285.061C328.409 281.911 330.075 278.911 332 276.061Z" fill="#EEEEEE"/>
<path fill-rule="evenodd" clip-rule="evenodd" d="M264 326.061C263.34 321.321 264.007 316.651 266 312.061C269.763 306.461 274.43 301.631 280 297.561C285.988 294.411 292.321 293.411 299 294.561C301.712 297.661 304.879 300.161 308.5 302.061C309.5 303.731 310.5 305.391 311.5 307.061C313.357 318.841 309.19 327.681 299 333.561C285.483 335.701 276.983 330.201 273.5 317.061C272.303 319.651 271.303 322.321 270.5 325.061C268.505 328.371 266.338 328.701 264 326.061Z" fill="#070707"/>
<path fill-rule="evenodd" clip-rule="evenodd" d="M291.999 299.061C300.318 298.901 303.151 302.901 300.499 311.061C300.125 311.981 299.625 312.811 298.999 313.561C290.162 314.711 286.995 310.881 289.499 302.061C290.544 301.191 291.377 300.191 291.999 299.061Z" fill="#F6F6F6"/>
<path fill-rule="evenodd" clip-rule="evenodd" d="M339 314.061C342.234 313.801 343.568 315.301 343 318.561C342.836 322.391 341.503 325.721 339 328.561C334.345 329.061 329.679 329.231 325 329.061C324.786 327.421 325.12 325.921 326 324.561C329.471 323.521 332.971 322.691 336.5 322.061C336.597 319.081 337.43 316.411 339 314.061Z" fill="#141414"/>
<path fill-rule="evenodd" clip-rule="evenodd" d="M349 350.061C349.011 348.541 349.677 347.381 351 346.561C353 345.231 355 343.891 357 342.561C358.765 341.921 360.432 342.091 362 343.061C366.274 344.431 370.441 346.101 374.5 348.061C377.462 345.771 379.629 342.941 381 339.561C387.501 338.751 389.668 341.581 387.5 348.061C386.254 352.131 384.088 355.631 381 358.561C376.296 358.721 371.963 357.391 368 354.561C361.493 353.301 355.159 351.801 349 350.061Z" fill="#262626"/>
<path fill-rule="evenodd" clip-rule="evenodd" d="M247 388.061C246.667 388.061 246.333 388.061 246 388.061C240.541 390.211 234.874 391.541 229 392.061C227 391.891 225 391.731 223 391.561C221.225 390.121 219.225 389.121 217 388.561C215.799 387.661 214.965 386.491 214.5 385.061C214.167 376.731 213.833 368.391 213.5 360.061C211.496 366.221 209.996 372.551 209 379.061C207.863 375.941 206.529 372.771 205 369.561C207.52 364.651 208.686 359.491 208.5 354.061C205.284 357.171 203.117 360.831 202 365.061C193.674 361.561 185.174 361.231 176.5 364.061C173.005 361.781 169.172 360.281 165 359.561C161.479 351.091 159.146 351.261 158 360.061C155.4 355.961 152.233 352.291 148.5 349.061C147.066 349.491 145.899 350.321 145 351.561C148.266 354.001 150.599 357.171 152 361.061C146.3 365.591 141.466 370.931 137.5 377.061C136.355 379.991 135.522 382.991 135 386.061C127.649 381.031 120.315 376.031 113 371.061C113 370.731 113 370.391 113 370.061C113.727 365.211 115.06 360.551 117 356.061C120.463 352.101 124.13 348.261 128 344.561C129.746 344.091 131.413 343.421 133 342.561C142.561 342.911 151.395 345.751 159.5 351.061C161.167 347.391 162.833 343.731 164.5 340.061C166.438 337.451 168.938 335.621 172 334.561C179.806 333.391 187.806 333.051 196 333.561C204.184 337.391 208.851 343.891 210 353.061C217.366 346.911 225.7 345.411 235 348.561C250.415 358.031 254.415 371.201 247 388.061Z" fill="#FDD3E4"/>
<path fill-rule="evenodd" clip-rule="evenodd" d="M184 337.061C190.201 335.841 195.368 337.511 199.5 342.061C201.015 344.241 202.515 346.401 204 348.561C203.437 351.291 202.77 353.951 202 356.561C201.051 357.181 200.218 357.011 199.5 356.061C198.319 352.201 196.486 348.701 194 345.561C189.189 343.601 184.355 341.771 179.5 340.061C179.333 339.731 179.167 339.391 179 339.061C180.791 338.391 182.458 337.721 184 337.061Z" fill="#FCFAFB"/>
<path fill-rule="evenodd" clip-rule="evenodd" d="M232 354.061C234.463 354.341 236.63 355.341 238.5 357.061C242.73 363.161 244.23 369.831 243 377.061C242.333 377.391 241.667 377.731 241 378.061C239.202 374.231 237.702 370.231 236.5 366.061C235.57 363.201 233.903 360.871 231.5 359.061C230.86 357.291 231.027 355.631 232 354.061Z" fill="#FCFAFB"/>
<path fill-rule="evenodd" clip-rule="evenodd" d="M209 379.061C209.166 383.411 208.999 387.741 208.5 392.061C208.301 398.521 206.801 399.191 204 394.061C196.045 393.731 188.045 392.731 180 391.061C176.272 393.791 173.272 397.121 171 401.061C158.253 397.681 146.253 392.681 135 386.061C135.522 382.991 136.355 379.991 137.5 377.061C141.466 370.931 146.3 365.591 152 361.061C150.599 357.171 148.266 354.001 145 351.561C145.899 350.321 147.066 349.491 148.5 349.061C152.233 352.291 155.4 355.961 158 360.061C159.146 351.261 161.479 351.091 165 359.561C169.172 360.281 173.005 361.781 176.5 364.061C185.174 361.231 193.674 361.561 202 365.061C203.117 360.831 205.284 357.171 208.5 354.061C208.686 359.491 207.52 364.651 205 369.561C206.529 372.771 207.863 375.941 209 379.061Z" fill="#FCE8F0"/>
<path fill-rule="evenodd" clip-rule="evenodd" d="M292 382.061C295.925 378.931 300.259 376.601 305 375.061C311.487 376.211 318.154 376.381 325 375.561C325.781 368.761 329.448 365.761 336 366.561C338.476 372.871 338.143 379.211 335 385.561C329.42 387.081 323.753 387.411 318 386.561C310.685 385.691 303.352 385.021 296 384.561C294.18 384.361 292.847 383.531 292 382.061Z" fill="#262626"/>
<path fill-rule="evenodd" clip-rule="evenodd" d="M246 388.061C243.885 394.841 239.885 400.171 234 404.061C223.75 405.741 213.417 406.411 203 406.061C192 406.251 181.333 404.581 171 401.061C173.272 397.121 176.272 393.791 180 391.061C188.045 392.731 196.045 393.731 204 394.061C206.801 399.191 208.301 398.521 208.5 392.061C208.999 387.741 209.166 383.411 209 379.061C209.996 372.551 211.496 366.221 213.5 360.061C213.833 368.391 214.167 376.731 214.5 385.061C214.965 386.491 215.799 387.661 217 388.561C219.225 389.121 221.225 390.121 223 391.561C225 391.731 227 391.891 229 392.061C234.874 391.541 240.541 390.211 246 388.061Z" fill="#FDC5DB"/>
<path fill-rule="evenodd" clip-rule="evenodd" d="M113 371.061C120.315 376.031 127.649 381.031 135 386.061C146.253 392.681 158.253 397.681 171 401.061C181.333 404.581 192 406.251 203 406.061C194.259 419.191 181.926 424.361 166 421.561C161.81 418.871 158.476 415.371 156 411.061C148.99 411.471 143.49 408.801 139.5 403.061C127.697 404.661 119.363 399.991 114.5 389.061C113.196 383.141 112.696 377.141 113 371.061Z" fill="#E3E8FD"/>
</svg>
