<svg width="500" height="500" viewBox="0 0 500 500" fill="none" xmlns="http://www.w3.org/2000/svg">
<path fill-rule="evenodd" clip-rule="evenodd" d="M383 264.062C378.81 266.742 374.48 269.242 370 271.562C366.35 272.062 362.68 272.232 359 272.062C351.09 264.282 343.43 256.282 336 248.062C330.9 241.782 325.57 235.622 320 229.562C315.95 227.622 311.95 227.792 308 230.062C303.43 234.632 300.09 239.962 298 246.062C294.17 256.812 290.84 267.812 288 279.062C282.13 291.772 272.13 296.602 258 293.562C254.08 291.452 250.08 289.622 246 288.062C242.69 284.132 239.86 279.792 237.5 275.062C232.56 259.582 227.23 244.242 221.5 229.062C218.39 227.252 215.22 225.592 212 224.062C204.83 220.672 197.5 217.672 190 215.062C186.71 213.662 183.37 213.332 180 214.062C173.29 222.772 165.62 230.442 157 237.062C150.72 241.212 144.39 245.372 138 249.562C135.35 250.062 132.69 250.222 130 250.062C125.93 248.192 121.93 246.022 118 243.562C115.27 240.932 113.44 237.772 112.5 234.062C112.5 226.032 113.17 218.032 114.5 210.062C121.33 196.402 129.66 183.732 139.5 172.062C144.67 168.232 149.17 163.732 153 158.562C157.47 154.162 162.47 150.492 168 147.562C187.75 138.772 208.41 135.272 230 137.062C230.63 133.782 230.96 130.452 231 127.062C229.47 114.092 228.97 101.092 229.5 88.0615C229.71 84.3215 231.54 81.9915 235 81.0615C238.31 81.7215 241.64 82.2215 245 82.5615C253.37 85.5015 261.2 89.3315 268.5 94.0615C279.23 92.0315 290.06 91.5315 301 92.5615C309.18 94.1615 317.34 95.6615 325.5 97.0615C327.33 96.8915 329.17 96.7315 331 96.5615C340.59 86.2615 352.25 80.6015 366 79.5615C368.17 81.7315 370.33 83.8915 372.5 86.0615C372.67 89.0615 372.83 92.0615 373 95.0615C372.09 106.872 370.42 118.542 368 130.062C367.97 135.232 368.81 140.232 370.5 145.062C373.21 159.332 370.71 172.502 363 184.562C373.72 201.842 381.89 220.342 387.5 240.062C388.17 244.062 388.17 248.062 387.5 252.062C385.88 256.092 384.38 260.092 383 264.062Z" fill="#A09D8C"/>
<path fill-rule="evenodd" clip-rule="evenodd" d="M356 90.0616C361.86 88.5116 365.2 90.6816 366 96.5616C363.94 104.192 361.44 111.692 358.5 119.062C357.61 121.992 357.11 124.992 357 128.062C357.51 134.402 359.17 140.402 362 146.062C361.93 147.332 361.6 148.502 361 149.562C356.33 151.892 351.67 154.232 347 156.562C346.12 157.922 345.79 159.422 346 161.062C351.03 161.062 356.03 160.722 361 160.062C361.03 162.762 360.37 165.262 359 167.562C352.76 167.342 346.59 167.512 340.5 168.062C339.78 169.672 339.95 171.172 341 172.562C345.89 174.132 350.89 175.302 356 176.062C352.47 181.762 347.8 186.262 342 189.562C334.86 191.492 327.86 193.832 321 196.562C308.33 197.232 295.67 197.232 283 196.562C272.21 194.662 262.54 190.332 254 183.562C256.5 180.392 259 177.232 261.5 174.062C261.99 168.572 259.49 166.732 254 168.562C251.5 170.312 248.83 171.812 246 173.062C242.57 171.302 242.24 169.132 245 166.562C248.08 164.602 251.25 162.772 254.5 161.062C255.57 157.962 254.57 155.962 251.5 155.062C247.42 156.522 243.25 157.522 239 158.062C239.09 148.742 240.09 139.582 242 130.562C239.98 129.432 239.64 127.762 241 125.562C239.42 118.892 238.26 112.052 237.5 105.062C234.89 93.9616 238.72 90.7916 249 95.5616C253.86 97.8216 258.19 100.822 262 104.562C263.64 105.162 265.3 105.662 267 106.062C270.59 104.912 274.26 104.252 278 104.062C277.83 108.412 278 112.742 278.5 117.062C280.22 120.292 282.22 120.622 284.5 118.062C284.79 112.562 286.46 107.562 289.5 103.062C291.52 107.232 294.35 110.562 298 113.062C302.18 111.392 305.68 108.722 308.5 105.062C310.37 109.882 311.37 114.882 311.5 120.062C313.44 121.422 315.1 121.092 316.5 119.062C318.63 115.352 319.47 111.352 319 107.062C323.94 108.202 328.94 108.702 334 108.562C340.33 101.052 347.66 94.8916 356 90.0616Z" fill="#C6BFB3"/>
<path fill-rule="evenodd" clip-rule="evenodd" d="M276.999 128.062C285.559 128.972 289.889 133.802 289.999 142.562C289.019 154.792 282.689 158.792 270.999 154.562C258.689 142.122 260.689 133.282 276.999 128.062Z" fill="#242424"/>
<path fill-rule="evenodd" clip-rule="evenodd" d="M342 132.062C343.57 132.502 344.74 133.502 345.5 135.062C346.58 150.292 339.75 155.462 325 150.562C319.01 142.802 319.68 135.802 327 129.562C331 128.892 335 128.892 339 129.562C340.44 129.942 341.44 130.772 342 132.062Z" fill="#232323"/>
<path fill-rule="evenodd" clip-rule="evenodd" d="M342 132.062C345.01 138.902 342.68 141.402 335 139.562C331.74 132.322 334.07 129.822 342 132.062Z" fill="#F0F0F0"/>
<path fill-rule="evenodd" clip-rule="evenodd" d="M278 133.062C285.36 133.212 287.36 136.382 284 142.562C274.71 143.792 272.71 140.622 278 133.062Z" fill="#EFEFEF"/>
<path fill-rule="evenodd" clip-rule="evenodd" d="M376 239.061C373.03 240.881 370.03 242.721 367 244.561C363.22 245.151 359.56 246.151 356 247.561C354.44 248.321 353.44 249.491 353 251.061C347.12 243.001 340.62 235.331 333.5 228.061C320.19 216.221 306.86 216.221 293.5 228.061C289.53 233.941 286.53 240.271 284.5 247.061C283.26 255.951 281.43 264.621 279 273.061C279 271.731 279 270.391 279 269.061C268.33 267.731 257.67 267.731 247 269.061C241.79 258.581 237.96 247.581 235.5 236.061C233.48 228.511 228.98 223.011 222 219.561C210.3 212.541 197.96 206.871 185 202.561C182.32 201.821 179.66 201.491 177 201.561C172.11 204.121 168.61 207.951 166.5 213.061C161.16 219.231 155.66 225.231 150 231.061C149.95 228.461 148.95 226.291 147 224.561C141.54 221.741 136.21 218.741 131 215.561C129.03 215.061 127.03 214.901 125 215.061C125.04 208.851 127.54 203.851 132.5 200.061C134.17 196.731 135.83 193.391 137.5 190.061C145.19 181.371 153.19 173.041 161.5 165.061C161.83 170.061 162.17 175.061 162.5 180.061C166.44 181.811 168.78 180.481 169.5 176.061C170.19 167.981 172.86 160.651 177.5 154.061C182.22 151.931 187.06 150.431 192 149.561C188.95 152.781 187.12 156.611 186.5 161.061C185.83 166.061 185.83 171.061 186.5 176.061C189.52 180.381 191.85 180.051 193.5 175.061C193.88 170.891 194.88 166.891 196.5 163.061C200.17 158.731 203.83 154.391 207.5 150.061C207.98 149.111 208.15 148.111 208 147.061C211.48 146.741 214.81 147.241 218 148.561C211.7 155.121 207.86 162.951 206.5 172.061C205.83 177.061 205.83 182.061 206.5 187.061C208.5 189.731 210.5 189.731 212.5 187.061C213.38 182.551 214.71 178.221 216.5 174.061C220.87 167.861 225.04 161.521 229 155.061C230.85 170.271 237.52 182.771 249 192.561C269.86 206.801 292.86 211.471 318 206.561C329.92 203.341 341.59 200.001 353 196.561C364.33 208.681 371.99 222.841 376 239.061Z" fill="#C4BEB1"/>
<path fill-rule="evenodd" clip-rule="evenodd" d="M315 171.062C312.4 171.832 309.74 172.162 307 172.062C305.36 170.082 303.69 168.082 302 166.062C302.81 164.752 303.81 163.582 305 162.562C309 161.892 313 161.892 317 162.562C318.07 163.302 318.74 164.302 319 165.562C317.85 167.542 316.52 169.372 315 171.062Z" fill="#BC7876"/>
<path fill-rule="evenodd" clip-rule="evenodd" d="M314.999 171.062C316.829 173.452 319.329 174.452 322.499 174.062C325.539 173.902 328.379 173.402 330.999 172.562C331.879 173.922 332.209 175.422 331.999 177.062C325.019 179.962 318.189 179.622 311.499 176.062C308.099 177.672 304.599 179.172 300.999 180.562C297.999 181.232 294.999 181.232 291.999 180.562C290.669 179.232 290.669 177.892 291.999 176.562C297.579 176.752 302.579 175.252 306.999 172.062C309.739 172.162 312.399 171.832 314.999 171.062Z" fill="#242424"/>
<path fill-rule="evenodd" clip-rule="evenodd" d="M125 215.062C127.03 214.902 129.03 215.062 131 215.562C136.21 218.742 141.54 221.742 147 224.562C148.95 226.292 149.95 228.462 150 231.062C146.27 234.132 142.27 236.802 138 239.062C122.66 237.052 118.33 229.052 125 215.062Z" fill="#FAFAF9"/>
<path fill-rule="evenodd" clip-rule="evenodd" d="M189.999 215.062C188.539 222.622 186.539 230.122 183.999 237.562C185.929 240.802 186.429 244.302 185.499 248.062C183.339 256.052 180.339 263.722 176.499 271.062C174.319 290.582 175.319 309.912 179.499 329.062C182.039 337.012 184.369 345.012 186.499 353.062C188.069 356.962 190.069 360.632 192.499 364.062C193.849 369.412 195.179 374.742 196.499 380.062C201.349 390.192 198.189 395.352 186.999 395.562C181.399 389.972 176.569 383.802 172.499 377.062C168.499 365.702 164.499 354.372 160.499 343.062C158.599 336.182 157.259 329.182 156.499 322.062C145.159 302.592 144.159 282.592 153.499 262.062C154.679 253.672 155.839 245.342 156.999 237.062C165.619 230.442 173.289 222.772 179.999 214.062C183.369 213.332 186.709 213.662 189.999 215.062Z" fill="#0E633F"/>
<path fill-rule="evenodd" clip-rule="evenodd" d="M190.001 215.062C197.501 217.672 204.831 220.672 212.001 224.062C210.521 236.182 212.191 247.852 217.001 259.062C214.551 264.372 213.391 270.042 213.501 276.062C210.391 280.732 208.891 285.902 209.001 291.562C209.771 302.152 211.111 312.652 213.001 323.062C212.091 326.292 211.751 329.622 212.001 333.062C214.001 333.062 216.001 333.062 218.001 333.062C218.271 345.892 218.431 358.892 218.501 372.062C221.011 377.122 222.681 382.462 223.501 388.062C225.641 390.052 228.141 391.382 231.001 392.062C232.961 398.462 235.121 404.802 237.501 411.062C240.271 414.942 243.931 417.272 248.501 418.062C253.611 417.622 256.941 414.952 258.501 410.062C259.201 403.492 258.201 397.152 255.501 391.062C250.091 383.572 246.921 375.232 246.001 366.062C257.051 371.402 268.711 374.402 281.001 375.062C278.751 382.552 277.581 390.222 277.501 398.062C281.391 404.522 286.561 405.682 293.001 401.562C294.401 398.162 296.571 395.322 299.501 393.062C300.621 387.092 301.451 381.092 302.001 375.062C311.361 374.562 320.021 371.892 328.001 367.062C326.261 373.292 324.921 379.632 324.001 386.062C323.941 390.272 325.271 393.932 328.001 397.062C300.521 414.262 270.521 421.762 238.001 419.562C202.781 410.542 172.281 393.372 146.501 368.062C140.841 360.112 136.511 351.452 133.501 342.062C130.351 328.472 127.681 314.802 125.501 301.062C124.831 289.392 124.831 277.732 125.501 266.062C126.261 260.472 127.761 255.142 130.001 250.062C132.691 250.222 135.351 250.062 138.001 249.562C144.391 245.372 150.721 241.212 157.001 237.062C155.841 245.342 154.681 253.672 153.501 262.062C144.161 282.592 145.161 302.592 156.501 322.062C157.261 329.182 158.601 336.182 160.501 343.062C164.501 354.372 168.501 365.702 172.501 377.062C176.571 383.802 181.401 389.972 187.001 395.562C198.191 395.352 201.351 390.192 196.501 380.062C195.181 374.742 193.851 369.412 192.501 364.062C190.071 360.632 188.071 356.962 186.501 353.062C184.371 345.012 182.041 337.012 179.501 329.062C175.321 309.912 174.321 290.582 176.501 271.062C180.341 263.722 183.341 256.052 185.501 248.062C186.431 244.302 185.931 240.802 184.001 237.562C186.541 230.122 188.541 222.622 190.001 215.062Z" fill="#24904F"/>
<path fill-rule="evenodd" clip-rule="evenodd" d="M212 224.062C215.22 225.592 218.39 227.252 221.5 229.062C227.23 244.242 232.56 259.582 237.5 275.062C239.86 279.792 242.69 284.132 246 288.062C236.02 293.372 228.35 301.042 223 311.062C223.12 311.672 223.46 312.002 224 312.062C219.33 314.732 215.67 318.392 213 323.062C211.11 312.652 209.77 302.152 209 291.562C208.89 285.902 210.39 280.732 213.5 276.062C213.39 270.042 214.55 264.372 217 259.062C212.19 247.852 210.52 236.182 212 224.062Z" fill="#10643F"/>
<path fill-rule="evenodd" clip-rule="evenodd" d="M336 248.061C337.57 252.061 338.57 256.221 339 260.561C337.46 268.341 336.46 276.171 336 284.061C323.06 279.571 309.73 277.901 296 279.061C298.45 278.091 301.11 277.751 304 278.061C304.36 270.181 302.53 262.851 298.5 256.061C298 252.741 297.83 249.411 298 246.061C300.09 239.961 303.43 234.631 308 230.061C311.95 227.791 315.95 227.621 320 229.561C325.57 235.621 330.9 241.781 336 248.061Z" fill="#269150"/>
<path fill-rule="evenodd" clip-rule="evenodd" d="M376 239.062C379.54 246.372 378.54 252.872 373 258.562C369.13 260.082 365.13 260.412 361 259.562C358.13 256.862 355.46 254.022 353 251.062C353.44 249.492 354.44 248.322 356 247.562C359.56 246.152 363.22 245.152 367 244.562C370.03 242.722 373.03 240.882 376 239.062Z" fill="#F9F9F9"/>
<path fill-rule="evenodd" clip-rule="evenodd" d="M336 248.062C343.43 256.282 351.09 264.282 359 272.062C359.71 272.962 360.71 273.302 362 273.062C361.13 283.752 361.13 294.412 362 305.062C358.36 304.302 355.03 302.962 352 301.062C352.44 301.132 352.77 300.962 353 300.562C348.76 293.492 343.09 287.992 336 284.062C336.46 276.172 337.46 268.342 339 260.562C338.57 256.222 337.57 252.062 336 248.062Z" fill="#0F633F"/>
<path fill-rule="evenodd" clip-rule="evenodd" d="M298 246.062C297.83 249.412 298 252.742 298.5 256.062C302.53 262.852 304.36 270.182 304 278.062C301.11 277.752 298.45 278.092 296 279.062C293.33 279.062 290.67 279.062 288 279.062C290.84 267.812 294.17 256.812 298 246.062Z" fill="#12643F"/>
<path fill-rule="evenodd" clip-rule="evenodd" d="M383 264.062C383.76 281.422 383.93 298.762 383.5 316.062C379.28 330.492 373.95 344.492 367.5 358.062C361.84 365.552 355.67 372.552 349 379.062C350.16 373.742 351.33 368.412 352.5 363.062C357.51 349.712 362.51 336.372 367.5 323.062C368.71 316.872 367.21 311.532 363 307.062C362.67 306.392 362.33 305.732 362 305.062C361.13 294.412 361.13 283.752 362 273.062C360.71 273.302 359.71 272.962 359 272.062C362.68 272.232 366.35 272.062 370 271.562C374.48 269.242 378.81 266.742 383 264.062Z" fill="#259050"/>
<path fill-rule="evenodd" clip-rule="evenodd" d="M279 273.061C277.4 282.161 272.07 286.001 263 284.561C254.54 282.601 249.21 277.431 247 269.061C257.67 267.731 268.33 267.731 279 269.061C279 270.391 279 271.731 279 273.061Z" fill="#FBFAFA"/>
<path fill-rule="evenodd" clip-rule="evenodd" d="M288.001 279.061C290.671 279.061 293.331 279.061 296.001 279.061C309.731 277.901 323.061 279.571 336.001 284.061C343.091 287.991 348.761 293.491 353.001 300.561C352.771 300.961 352.441 301.131 352.001 301.061C349.481 299.631 346.811 298.471 344.001 297.561C338.491 297.361 333.161 296.361 328.001 294.561C317.731 291.791 309.231 294.291 302.501 302.061C297.321 314.391 297.991 326.391 304.501 338.061C314.721 345.291 325.221 345.791 336.001 339.561C341.051 334.441 344.221 328.271 345.501 321.061C346.861 316.701 347.361 312.371 347.001 308.061C349.731 309.931 352.731 310.931 356.001 311.061C356.721 334.941 347.391 353.611 328.001 367.061C320.021 371.891 311.361 374.561 302.001 375.061C295.001 375.061 288.001 375.061 281.001 375.061C268.711 374.401 257.051 371.401 246.001 366.061C235.301 360.521 227.471 352.191 222.501 341.061C220.771 337.941 219.941 334.611 220.001 331.061C221.981 328.751 223.981 326.411 226.001 324.061C226.831 327.681 227.331 331.351 227.501 335.061C235.801 355.631 248.971 359.461 267.001 346.561C272.571 339.611 275.411 331.781 275.501 323.061C273.661 319.381 271.331 316.041 268.501 313.061C267.371 307.931 264.201 304.761 259.001 303.561C252.671 302.891 246.331 302.891 240.001 303.561C234.201 305.631 228.861 308.461 224.001 312.061C223.461 312.001 223.121 311.671 223.001 311.061C228.351 301.041 236.021 293.371 246.001 288.061C250.081 289.621 254.081 291.451 258.001 293.561C272.131 296.601 282.131 291.771 288.001 279.061Z" fill="#F7F8F8"/>
<path fill-rule="evenodd" clip-rule="evenodd" d="M352 301.062C355.03 302.962 358.36 304.302 362 305.062C362.33 305.732 362.67 306.392 363 307.062C363.17 308.382 362.84 309.552 362 310.562C360.03 311.062 358.03 311.222 356 311.062C352.73 310.932 349.73 309.932 347 308.062C347.36 312.372 346.86 316.702 345.5 321.062C344.22 328.272 341.05 334.442 336 339.562C325.22 345.792 314.72 345.292 304.5 338.062C297.99 326.392 297.32 314.392 302.5 302.062C309.23 294.292 317.73 291.792 328 294.562C333.16 296.362 338.49 297.362 344 297.562C346.81 298.472 349.48 299.632 352 301.062Z" fill="#040404"/>
<path fill-rule="evenodd" clip-rule="evenodd" d="M311.001 301.061C315.181 300.261 318.351 301.601 320.501 305.061C320.641 309.061 320.311 313.061 319.501 317.061C316.591 319.951 313.091 320.791 309.001 319.561C307.881 317.441 306.381 315.601 304.501 314.061C303.831 312.061 303.831 310.061 304.501 308.061C306.761 305.841 308.921 303.511 311.001 301.061Z" fill="#F1F1F1"/>
<path fill-rule="evenodd" clip-rule="evenodd" d="M220 331.062C219 331.392 218.33 332.062 218 333.062C216 333.062 214 333.062 212 333.062C211.75 329.622 212.09 326.292 213 323.062C215.67 318.392 219.33 314.732 224 312.062C228.86 308.462 234.2 305.632 240 303.562C246.33 302.892 252.67 302.892 259 303.562C264.2 304.762 267.37 307.932 268.5 313.062C271.33 316.042 273.66 319.382 275.5 323.062C275.41 331.782 272.57 339.612 267 346.562C248.97 359.462 235.8 355.632 227.5 335.062C227.33 331.352 226.83 327.682 226 324.062C223.98 326.412 221.98 328.752 220 331.062Z" fill="#040404"/>
<path fill-rule="evenodd" clip-rule="evenodd" d="M255 310.062C261.27 309.502 264.6 312.332 265 318.562C264.87 324.672 262.04 328.842 256.5 331.062C248.34 327.582 246.34 321.912 250.5 314.062C251.9 312.492 253.4 311.162 255 310.062Z" fill="#F1F1F1"/>
<path fill-rule="evenodd" clip-rule="evenodd" d="M363 307.062C367.21 311.532 368.71 316.872 367.5 323.062C362.51 336.372 357.51 349.712 352.5 363.062C351.33 368.412 350.16 373.742 349 379.062C343.15 386.592 336.15 392.592 328 397.062C325.27 393.932 323.94 390.272 324 386.062C324.92 379.632 326.26 373.292 328 367.062C347.39 353.612 356.72 334.942 356 311.062C358.03 311.222 360.03 311.062 362 310.562C362.84 309.552 363.17 308.382 363 307.062Z" fill="#0F623E"/>
<path fill-rule="evenodd" clip-rule="evenodd" d="M220 331.062C219.94 334.612 220.77 337.942 222.5 341.062C227.47 352.192 235.3 360.522 246 366.062C246.92 375.232 250.09 383.572 255.5 391.062C258.2 397.152 259.2 403.492 258.5 410.062C256.94 414.952 253.61 417.622 248.5 418.062C243.93 417.272 240.27 414.942 237.5 411.062C235.12 404.802 232.96 398.462 231 392.062C228.14 391.382 225.64 390.052 223.5 388.062C222.68 382.462 221.01 377.122 218.5 372.062C218.43 358.892 218.27 345.892 218 333.062C218.33 332.062 219 331.392 220 331.062Z" fill="#0E633F"/>
<path fill-rule="evenodd" clip-rule="evenodd" d="M303.999 349.061C307.089 348.391 308.759 349.561 308.999 352.561C308.039 356.811 306.039 360.471 302.999 363.561C300.129 365.021 297.129 365.351 293.999 364.561C290.339 363.281 286.839 361.781 283.499 360.061C282.669 356.751 283.999 355.081 287.499 355.061C291.009 355.451 294.349 356.451 297.499 358.061C300.159 355.411 302.319 352.411 303.999 349.061Z" fill="#0D0D0D"/>
<path fill-rule="evenodd" clip-rule="evenodd" d="M281 375.062C288 375.062 295 375.062 302 375.062C301.45 381.092 300.62 387.092 299.5 393.062C296.57 395.322 294.4 398.162 293 401.562C286.56 405.682 281.39 404.522 277.5 398.062C277.58 390.222 278.75 382.552 281 375.062Z" fill="#126440"/>
</svg>
