<svg width="500" height="500" viewBox="0 0 500 500" fill="none" xmlns="http://www.w3.org/2000/svg">
<path fill-rule="evenodd" clip-rule="evenodd" d="M258 149.062C286.67 149.232 315.34 149.732 344 150.562C370.04 151.912 394.04 159.242 416 172.562C425.05 180.822 430.88 190.982 433.5 203.062C437.52 219.152 438.85 235.492 437.5 252.062C433.14 271.622 421.97 285.792 404 294.562C390.01 299.732 375.67 303.562 361 306.062C362.05 292.342 360.55 279.012 356.5 266.062C352.45 260.602 349.28 260.932 347 267.062C348.66 280.002 349.33 293.002 349 306.062C339.66 305.372 330.66 306.532 322 309.562C315.68 310.062 309.34 310.232 303 310.062C302.38 309.952 301.88 309.622 301.5 309.062C298.23 309.692 295.06 310.362 292 311.062C280 311.062 268 311.062 256 311.062C259.68 306.022 262.02 300.352 263 294.062C276.04 294.412 289.04 293.912 302 292.562C325.06 284.662 336.73 268.492 337 244.062C340.93 245.632 342.77 244.292 342.5 240.062C339 238.072 335.83 235.742 333 233.062C331.02 225.602 327.36 219.102 322 213.562C305.89 204.242 288.56 199.742 270 200.062C269.16 193.122 268.49 186.122 268 179.062C294.68 178.702 321.35 179.202 348 180.562C352.92 177.532 353.25 173.862 349 169.562C346 168.562 343 167.562 340 166.562C314.6 166.162 289.27 164.992 264 163.062C264 162.392 263.67 162.062 263 162.062C262.18 157.422 260.51 153.082 258 149.062Z" fill="#FE3736"/>
<path fill-rule="evenodd" clip-rule="evenodd" d="M258 149.062C260.51 153.082 262.18 157.422 263 162.062C243.97 161.922 224.64 162.092 205 162.562C191.63 163.502 178.29 164.832 165 166.562C158.79 171.592 158.45 176.922 164 182.562C165.37 183.432 166.87 183.932 168.5 184.062C182.42 180.622 196.59 178.952 211 179.062C229.97 179.302 248.97 179.302 268 179.062C268.49 186.122 269.16 193.122 270 200.062C244.41 198.202 223.75 207.202 208 227.062C203.04 230.182 198.88 234.182 195.5 239.062C194.83 241.062 194.83 243.062 195.5 245.062C196.51 245.902 197.68 246.232 199 246.062C196.73 259.832 200.4 271.662 210 281.562C217.98 286.052 226.31 289.722 235 292.562C244.29 293.792 253.63 294.292 263 294.062C262.02 300.352 259.68 306.022 256 311.062C245.18 312.052 234.18 312.392 223 312.062C218.23 310.762 213.57 310.762 209 312.062C198.99 312.112 188.99 312.452 179 313.062C178.38 312.952 177.88 312.622 177.5 312.062C176.97 302.142 175.8 292.312 174 282.562C173.83 279.152 174.5 275.982 176 273.062C175.06 269.462 172.73 267.792 169 268.062C167.4 268.112 165.9 268.442 164.5 269.062C161.8 284.062 162.96 298.732 168 313.062C143.04 314.242 119.37 309.402 97.0005 298.562C68.1705 275.742 57.3405 246.242 64.5005 210.062C74.2805 182.952 93.1105 165.452 121 157.562C132.7 155.672 144.37 153.672 156 151.562C190.01 150.662 224.01 149.832 258 149.062Z" fill="#F6EA05"/>
<path fill-rule="evenodd" clip-rule="evenodd" d="M263 162.062C263.67 162.062 264 162.392 264 163.062C265.95 168.232 267.28 173.572 268 179.062C248.97 179.302 229.97 179.302 211 179.062C196.59 178.952 182.42 180.622 168.5 184.062C166.87 183.932 165.37 183.432 164 182.562C158.45 176.922 158.79 171.592 165 166.562C178.29 164.832 191.63 163.502 205 162.562C224.64 162.092 243.97 161.922 263 162.062Z" fill="#F9F166"/>
<path fill-rule="evenodd" clip-rule="evenodd" d="M264 163.062C289.27 164.992 314.6 166.162 340 166.562C343 167.562 346 168.562 349 169.562C353.25 173.862 352.92 177.532 348 180.562C321.35 179.202 294.68 178.702 268 179.062C267.28 173.572 265.95 168.232 264 163.062Z" fill="#FE8686"/>
<path fill-rule="evenodd" clip-rule="evenodd" d="M373 171.061C397.59 169.811 414.09 180.811 422.5 204.061C423.17 209.731 423.17 215.391 422.5 221.061C418.97 228.041 414.63 228.711 409.5 223.061C400.5 206.381 388.83 191.711 374.5 179.061C373.25 176.551 372.75 173.881 373 171.061Z" fill="#FE8686"/>
<path fill-rule="evenodd" clip-rule="evenodd" d="M270 200.062C288.56 199.742 305.89 204.242 322 213.562C327.36 219.102 331.02 225.602 333 233.062C330.48 231.392 327.81 229.892 325 228.562C318.69 227.352 312.69 225.352 307 222.562C298.69 220.482 291.52 222.312 285.5 228.062C278.03 238.802 277.03 250.142 282.5 262.062C293.11 272.392 304.61 273.552 317 265.562C322.93 257.772 326.1 248.942 326.5 239.062C329.57 241.682 333.07 243.342 337 244.062C336.73 268.492 325.06 284.662 302 292.562C289.04 293.912 276.04 294.412 263 294.062C253.63 294.292 244.29 293.792 235 292.562C226.31 289.722 217.98 286.052 210 281.562C200.4 271.662 196.73 259.832 199 246.062C200.42 245.852 201.76 245.352 203 244.562C205.18 242.212 207.52 240.042 210 238.062C210.91 239.352 210.74 240.682 209.5 242.062C208.37 254.362 213.2 263.532 224 269.562C239.62 271.832 250.45 265.672 256.5 251.062C257.17 248.062 257.17 245.062 256.5 242.062C254.25 238.232 252.58 234.232 251.5 230.062C249.94 226.832 247.44 224.662 244 223.562C237.12 221.512 230.12 220.842 223 221.562C217.87 223.102 212.87 224.942 208 227.062C223.75 207.202 244.41 198.202 270 200.062Z" fill="#FAF9F9"/>
<path fill-rule="evenodd" clip-rule="evenodd" d="M199.001 246.062C197.681 246.232 196.511 245.902 195.501 245.062C194.831 243.062 194.831 241.062 195.501 239.062C198.881 234.182 203.041 230.182 208.001 227.062C212.871 224.942 217.871 223.102 223.001 221.562C230.121 220.842 237.121 221.512 244.001 223.562C247.441 224.662 249.941 226.832 251.501 230.062C252.581 234.232 254.251 238.232 256.501 242.062C257.171 245.062 257.171 248.062 256.501 251.062C250.451 265.672 239.621 271.832 224.001 269.562C213.201 263.532 208.371 254.362 209.501 242.062C210.741 240.682 210.911 239.352 210.001 238.062C207.521 240.042 205.181 242.212 203.001 244.562C201.761 245.352 200.421 245.852 199.001 246.062Z" fill="#060606"/>
<path fill-rule="evenodd" clip-rule="evenodd" d="M333 233.062C335.83 235.742 339 238.072 342.5 240.062C342.77 244.292 340.93 245.632 337 244.062C333.07 243.342 329.57 241.682 326.5 239.062C326.1 248.942 322.93 257.772 317 265.562C304.61 273.552 293.11 272.392 282.5 262.062C277.03 250.142 278.03 238.802 285.5 228.062C291.52 222.312 298.69 220.482 307 222.562C312.69 225.352 318.69 227.352 325 228.562C327.81 229.892 330.48 231.392 333 233.062Z" fill="#080707"/>
<path fill-rule="evenodd" clip-rule="evenodd" d="M294.001 228.062C298.931 227.502 301.601 229.662 302.001 234.562C303.141 244.562 298.971 248.062 289.501 245.062C286.301 242.042 285.301 238.372 286.501 234.062C289.151 232.142 291.651 230.142 294.001 228.062Z" fill="#F4F4F4"/>
<path fill-rule="evenodd" clip-rule="evenodd" d="M237 230.062C247.22 230.162 250.05 234.822 245.5 244.062C238.03 251.652 233.19 250.152 231 239.562C232.11 235.842 234.11 232.672 237 230.062Z" fill="#F3F3F3"/>
<path fill-rule="evenodd" clip-rule="evenodd" d="M361.001 306.062C360.511 310.092 362.011 313.092 365.501 315.062C366.541 318.202 365.711 320.702 363.001 322.562C357.201 321.492 351.201 320.832 345.001 320.562C341.521 315.422 342.861 312.592 349.001 312.062C349.001 310.062 349.001 308.062 349.001 306.062C349.331 293.002 348.661 280.002 347.001 267.062C349.281 260.932 352.451 260.602 356.501 266.062C360.551 279.012 362.051 292.342 361.001 306.062Z" fill="#282525"/>
<path fill-rule="evenodd" clip-rule="evenodd" d="M179.001 313.061C182.341 314.161 185.181 316.161 187.501 319.061C188.221 323.021 186.551 325.351 182.501 326.061C180.191 325.111 177.861 324.111 175.501 323.061C173.331 325.071 170.831 326.401 168.001 327.061C164.431 326.991 162.761 325.151 163.001 321.561C163.171 320.391 163.331 319.231 163.501 318.061C165.211 316.521 166.711 314.861 168.001 313.061C162.961 298.731 161.801 284.061 164.501 269.061C165.901 268.441 167.401 268.111 169.001 268.061C172.731 267.791 175.061 269.461 176.001 273.061C174.501 275.981 173.831 279.151 174.001 282.561C175.801 292.311 176.971 302.141 177.501 312.061C177.881 312.621 178.381 312.951 179.001 313.061Z" fill="#242425"/>
<path fill-rule="evenodd" clip-rule="evenodd" d="M280 273.062C283.07 272.482 285.07 273.652 286 276.562C283.77 280.802 280.77 284.462 277 287.562C275.33 288.232 273.67 288.232 272 287.562C268.21 285.582 264.38 283.752 260.5 282.062C258.92 277.462 260.42 275.632 265 276.562C271.7 282.142 276.7 280.972 280 273.062Z" fill="#111111"/>
<path fill-rule="evenodd" clip-rule="evenodd" d="M303.001 310.062C304.491 316.962 305.161 323.962 305.001 331.062C308.021 330.902 311.021 331.062 314.001 331.562C318.001 334.892 318.001 338.232 314.001 341.562C308.141 343.542 302.141 344.202 296.001 343.562C295.501 343.062 295.001 342.562 294.501 342.062C292.491 331.842 291.651 321.512 292.001 311.062C295.061 310.362 298.231 309.692 301.501 309.062C301.881 309.622 302.381 309.952 303.001 310.062Z" fill="#262626"/>
<path fill-rule="evenodd" clip-rule="evenodd" d="M223 312.061C223 320.391 223 328.731 223 337.061C234.89 336.081 237.89 340.581 232 350.561C224.01 351.981 217.17 349.811 211.5 344.061C211.4 333.221 210.57 322.551 209 312.061C213.57 310.761 218.23 310.761 223 312.061Z" fill="#252526"/>
</svg>
