<svg width="500" height="500" viewBox="0 0 500 500" fill="none" xmlns="http://www.w3.org/2000/svg">
<path fill-rule="evenodd" clip-rule="evenodd" d="M150 318.062C146.36 317.912 143.69 316.242 142 313.062C139.2 307.992 138.53 302.662 140 297.062C130.26 292.482 122.59 285.652 117 276.562C120.61 265.502 125.45 255.002 131.5 245.062C134.17 241.732 136.83 238.392 139.5 235.062C140.71 213.512 147.71 194.182 160.5 177.062C205.26 130.652 256.76 121.822 315 150.562C346.85 173.772 362.69 205.272 362.5 245.062C370.26 253.492 377.26 262.492 383.5 272.062C384.32 276.302 383.66 280.302 381.5 284.062C373.43 292.802 364.77 300.802 355.5 308.062C353.95 315.512 349.79 320.852 343 324.062C339.05 322.752 335.39 320.922 332 318.562C330.19 315.582 327.86 313.082 325 311.062C318.08 315.772 310.92 320.102 303.5 324.062C303.69 329.362 303.86 334.692 304 340.062C316.84 341.052 321.67 347.722 318.5 360.062C315.51 363.052 312.01 365.222 308 366.562C300.31 367.052 292.64 366.712 285 365.562C278.51 363.442 274.67 358.942 273.5 352.062C273.65 343.492 273.49 334.992 273 326.562C262.32 327.222 251.66 327.052 241 326.062C241.17 333.732 241 341.402 240.5 349.062C239.21 355.492 236.04 360.662 231 364.562C220.81 367.172 210.98 366.342 201.5 362.062C195.57 356.872 194.57 350.872 198.5 344.062C200.86 340.202 204.02 337.202 208 335.062C208.99 329.772 209.33 324.432 209 319.062C195.5 315.812 183.17 310.142 172 302.062C167.72 311.682 160.39 317.022 150 318.062Z" fill="#D7FEC1"/>
<path fill-rule="evenodd" clip-rule="evenodd" d="M351 225.061C351.8 226.601 352.13 228.271 352 230.061C350.64 231.251 349.14 232.251 347.5 233.061C340.97 231.881 335.14 229.211 330 225.061C328.88 227.701 328.88 230.361 330 233.061C326.99 242.071 323.16 250.741 318.5 259.061C310.08 267.691 299.92 270.521 288 267.561C281.86 265.911 276.36 263.071 271.5 259.061C263.88 243.181 264.22 227.511 272.5 212.061C276.57 207.451 281.41 203.951 287 201.561C292.34 201.371 297.67 201.711 303 202.561C311.24 205.511 319.57 208.181 328 210.561C335.55 215.621 343.22 220.451 351 225.061Z" fill="#040404"/>
<path fill-rule="evenodd" clip-rule="evenodd" d="M151 234.062C150.34 229.242 151.34 224.912 154 221.062C169.48 205.292 188.15 198.792 210 201.562C216.41 202.682 221.91 205.522 226.5 210.062C227.59 212.602 228.26 215.272 228.5 218.062C230.75 221.572 232.75 225.232 234.5 229.062C235.17 233.062 235.17 237.062 234.5 241.062C226.13 261.992 210.96 270.492 189 266.562C184.83 263.062 180.67 259.562 176.5 256.062C174 250.912 172 245.582 170.5 240.062C169.92 234.602 170.25 229.272 171.5 224.062C167.29 227.942 162.79 231.442 158 234.562C155.62 235.122 153.28 234.952 151 234.062Z" fill="#050505"/>
<path fill-rule="evenodd" clip-rule="evenodd" d="M210 212.062C220.7 212.742 224.53 218.402 221.5 229.062C219.77 230.792 218.43 232.792 217.5 235.062C207.59 241.082 201.75 238.082 200 226.062C201.4 219.892 204.73 215.232 210 212.062Z" fill="#F5F5F5"/>
<path fill-rule="evenodd" clip-rule="evenodd" d="M351 225.061C343.22 220.451 335.55 215.621 328 210.561C319.57 208.181 311.24 205.511 303 202.561C297.67 201.711 292.34 201.371 287 201.561C281.41 203.951 276.57 207.451 272.5 212.061C264.22 227.511 263.88 243.181 271.5 259.061C276.36 263.071 281.86 265.911 288 267.561C299.92 270.521 310.08 267.691 318.5 259.061C323.16 250.741 326.99 242.071 330 233.061C328.88 230.361 328.88 227.701 330 225.061C335.14 229.211 340.97 231.881 347.5 233.061C349.14 232.251 350.64 231.251 352 230.061C352.68 237.041 353.18 244.041 353.5 251.061C359.12 259.011 365.12 266.681 371.5 274.061C372.37 278.231 370.87 281.401 367 283.561C359.28 287.301 352.11 291.801 345.5 297.061C345.27 301.111 344.77 305.111 344 309.061C340.15 310.401 336.98 309.401 334.5 306.061C333.1 302.491 332.76 298.821 333.5 295.061C336.33 292.231 339.17 289.391 342 286.561C347.61 284.601 352.27 281.441 356 277.061C354.64 274.331 352.81 272.001 350.5 270.061C341.9 278.851 332.9 287.191 323.5 295.061C322.44 298.121 320.61 300.621 318 302.561C311.08 307.941 303.58 312.441 295.5 316.061C294.61 325.461 294.95 334.791 296.5 344.061C299.77 345.661 303.27 346.491 307 346.561C314.75 351.481 314.42 355.141 306 357.561C300.02 357.491 294.02 357.151 288 356.561C287.47 355.871 286.81 355.371 286 355.061C285.13 352.021 284.13 349.021 283 346.061C284.13 338.111 284.3 330.111 283.5 322.061C282.08 318.251 279.25 316.251 275 316.061C262 317.111 249 317.271 236 316.561C233.39 317.941 231.89 320.111 231.5 323.061C231.31 333.111 230.81 343.111 230 353.061C228.59 354.371 226.92 355.201 225 355.561C219.33 356.231 213.67 356.231 208 355.561C205.51 352.591 205.34 349.421 207.5 346.061C211.17 344.391 214.83 342.731 218.5 341.061C219.17 334.061 219.17 327.061 218.5 320.061C217.83 316.061 215.67 313.231 212 311.561C198.52 306.911 186.35 300.071 175.5 291.061C174.68 286.211 172.85 281.711 170 277.561C167.29 275.651 164.29 274.821 161 275.061C158.67 270.531 156.5 265.871 154.5 261.061C152.23 259.631 150.23 259.961 148.5 262.061C147.05 265.471 145.21 268.641 143 271.561C145.1 274.331 147.77 276.331 151 277.561C165.88 278.151 169.71 284.981 162.5 298.061C159.39 301.011 155.89 303.351 152 305.061C150.55 304.391 149.89 303.221 150 301.561C150.42 298.641 151.42 295.971 153 293.561C147.2 288.821 140.87 284.821 134 281.561C130.37 279.311 129.21 276.141 130.5 272.061C135.08 261.871 140.74 252.541 147.5 244.061C148.48 240.631 149.65 237.301 151 234.061C153.28 234.951 155.62 235.121 158 234.561C162.79 231.441 167.29 227.941 171.5 224.061C170.25 229.271 169.92 234.601 170.5 240.061C172 245.581 174 250.911 176.5 256.061C180.67 259.561 184.83 263.061 189 266.561C210.96 270.491 226.13 261.991 234.5 241.061C235.17 237.061 235.17 233.061 234.5 229.061C232.75 225.231 230.75 221.571 228.5 218.061C228.26 215.271 227.59 212.601 226.5 210.061C221.91 205.521 216.41 202.681 210 201.561C188.15 198.791 169.48 205.291 154 221.061C156.53 212.641 159.36 204.311 162.5 196.061C170.64 184.581 180.14 174.421 191 165.561C200.36 160.881 209.7 156.211 219 151.561C238.04 146.021 257.37 144.691 277 147.561C290.81 152.801 304.14 159.131 317 166.561C326.6 174.291 334.43 183.461 340.5 194.061C346.3 203.631 349.8 213.961 351 225.061Z" fill="#FBFBFA"/>
<path fill-rule="evenodd" clip-rule="evenodd" d="M266 272.062C271.49 270.742 273.99 272.742 273.5 278.062C270.57 283.772 266.41 288.272 261 291.562C258.24 292.142 255.58 291.812 253 290.562C249.38 287.922 245.38 286.082 241 285.062C239.16 283.032 238.66 280.702 239.5 278.062C240.63 276.622 242.13 275.952 244 276.062C248.91 277.512 253.58 279.512 258 282.062C261.63 279.472 264.29 276.132 266 272.062Z" fill="#0C0C0C"/>
<path fill-rule="evenodd" clip-rule="evenodd" d="M286 210.062C292.36 209.562 296.03 212.392 297 218.562C295.71 222.612 294.87 226.782 294.5 231.062C289.89 235.532 284.72 236.202 279 233.062C276.78 229.962 275.12 226.632 274 223.062C274.12 220.772 274.96 218.772 276.5 217.062C279.92 214.992 283.08 212.662 286 210.062Z" fill="#F4F4F4"/>
</svg>
