<svg width="500" height="500" viewBox="0 0 500 500" fill="none" xmlns="http://www.w3.org/2000/svg">
<path fill-rule="evenodd" clip-rule="evenodd" d="M243 145.061C269.87 142.681 294.54 148.841 317 163.561C324.11 170.521 331.28 177.351 338.5 184.061C345.58 193.211 351.91 202.881 357.5 213.061C362.44 209.961 366.94 206.291 371 202.061C365.89 192.411 368.22 184.911 378 179.561C380.67 178.891 383.33 178.891 386 179.561C388.84 181.571 391.5 183.731 394 186.061C399.57 184.381 404.9 184.881 410 187.561C413.83 192.531 413.99 197.701 410.5 203.061C407.49 207.571 403.32 210.241 398 211.061C394.26 216.691 389.93 221.861 385 226.561C377.87 232.021 371.04 237.851 364.5 244.061C358.93 272.551 343.93 294.551 319.5 310.061C319.87 312.481 321.2 314.481 323.5 316.061C331.89 308.551 340.56 308.211 349.5 315.061C350.83 321.811 349.83 328.141 346.5 334.061C341.33 341.891 334.83 348.391 327 353.561C324.67 354.231 322.33 354.231 320 353.561C317.83 351.971 315.5 350.641 313 349.561C305.16 340.221 297.16 331.051 289 322.061C286.39 322.791 283.72 323.291 281 323.561C264.65 324.241 248.32 323.901 232 322.561C225.92 321.381 219.92 319.881 214 318.061C208.76 325.541 204.26 333.541 200.5 342.061C196.63 346.261 192.47 350.091 188 353.561C181.53 355.751 175.53 354.751 170 350.561C167.44 348.031 164.6 345.861 161.5 344.061C152.28 334.231 151.78 324.071 160 313.561C167.58 310.531 174.08 312.031 179.5 318.061C182.58 313.341 184.08 308.341 184 303.061C178.44 300.001 173.6 296.001 169.5 291.061C163.45 284.011 157.78 276.681 152.5 269.061C147.63 259.581 144.3 249.581 142.5 239.061C128.4 230.921 115.9 220.751 105 208.561C93.1703 206.081 87.3403 198.921 87.5003 187.061C91.7303 180.211 97.7303 178.211 105.5 181.061C107.68 178.541 110.18 176.381 113 174.561C120.72 172.591 125.88 175.421 128.5 183.061C128.86 187.431 128.86 191.761 128.5 196.061C134.78 202.361 141.78 207.701 149.5 212.061C164.48 179.081 189.31 157.581 224 147.561C230.51 146.981 236.85 146.151 243 145.061Z" fill="#FEE2ED"/>
<path fill-rule="evenodd" clip-rule="evenodd" d="M235 156.061C247.7 155.771 260.37 156.271 273 157.561C284.28 160.431 295.28 164.101 306 168.561C324.83 183.221 339.83 201.051 351 222.061C352.33 223.061 353.67 224.061 355 225.061C364.23 219.001 372.73 212.001 380.5 204.061C380.31 200.311 379.48 196.641 378 193.061C378.33 189.231 380.33 187.391 384 187.561C386.47 189.361 388.14 191.691 389 194.561C392.2 194.561 395.36 194.061 398.5 193.061C401.17 192.731 403.17 193.731 404.5 196.061C405.21 197.931 404.71 199.431 403 200.561C398.66 203.731 393.99 206.401 389 208.561C378.36 220.551 366.52 231.051 353.5 240.061C352.64 251.521 349.3 262.191 343.5 272.061C333.98 285.411 322.15 296.081 308 304.061C306.62 307.141 306.79 310.141 308.5 313.061C313 318.231 317.5 323.391 322 328.561C323.14 329.311 324.14 329.141 325 328.061C328.94 322.221 334.28 319.381 341 319.561C342.9 321.371 343.4 323.531 342.5 326.061C338.38 333.841 332.55 340.011 325 344.561C323.67 345.231 322.33 345.231 321 344.561C312.65 335.361 305.15 325.521 298.5 315.061C296.78 313.711 294.95 312.541 293 311.561C280.06 312.561 267.06 313.391 254 314.061C246.34 313.251 238.67 312.421 231 311.561C225.4 309.751 219.74 308.251 214 307.061C210.71 306.841 208.21 308.171 206.5 311.061C202.08 321.741 196.25 331.571 189 340.561C184.09 343.891 179.09 344.221 174 341.561C170.19 338.081 166.69 334.241 163.5 330.061C159.94 322.791 162.1 319.621 170 320.561C173.63 323.191 176.97 326.191 180 329.561C181.67 330.231 183.33 330.231 185 329.561C188.71 321.651 192.54 313.821 196.5 306.061C197.49 304.111 197.82 302.111 197.5 300.061C172.99 286.041 158.49 265.041 154 237.061C136.48 228.721 122.15 216.551 111 200.561C104.91 201.151 99.74 199.321 95.5 195.061C94.78 193.451 94.95 191.951 96 190.561C101.67 190.891 107.33 191.231 113 191.561C113.06 187.541 114.89 184.701 118.5 183.061C120.23 184.031 121.07 185.531 121 187.561C120.21 191.221 119.37 194.721 118.5 198.061C127.51 207.751 137.68 215.911 149 222.561C151.73 223.381 154.39 223.211 157 222.061C166.3 200.291 180.3 182.121 199 167.561C210.48 161.651 222.48 157.811 235 156.061Z" fill="#FBFAFA"/>
<path fill-rule="evenodd" clip-rule="evenodd" d="M180 247.061C184.09 264.471 195.09 272.131 213 270.061C213.83 274.811 211.99 278.481 207.5 281.061C207.01 282.351 206.84 283.691 207 285.061C200.04 286.111 193.04 286.281 186 285.561C183.39 284.921 181.05 283.751 179 282.061C171.42 274.551 168.75 265.551 171 255.061C173.89 252.141 176.89 249.471 180 247.061Z" fill="#FBE1EC"/>
<path fill-rule="evenodd" clip-rule="evenodd" d="M326 256.061C323.19 260.331 320.36 264.661 317.5 269.061C311.08 273.921 303.91 276.261 296 276.061C286.29 274.961 278.45 270.621 272.5 263.061C266.05 245.481 269.22 229.981 282 216.561C289.39 211.551 297.39 210.551 306 213.561C315.14 217.691 324.47 221.351 334 224.561C338.77 229.331 344.1 233.331 350 236.561C351.09 238.621 351.26 240.791 350.5 243.061C342.9 243.851 336.24 241.521 330.5 236.061C330.17 239.731 329.83 243.391 329.5 247.061C328.23 250.041 327.06 253.041 326 256.061Z" fill="#040404"/>
<path fill-rule="evenodd" clip-rule="evenodd" d="M289 220.061C295.73 219.081 299.39 221.911 300 228.561C298.45 232.631 297.12 236.791 296 241.061C292 244.681 287.66 245.011 283 242.061C280.47 239.191 278.8 235.851 278 232.061C278.12 229.771 278.96 227.771 280.5 226.061C283.62 224.321 286.45 222.321 289 220.061Z" fill="#F4F4F4"/>
<path fill-rule="evenodd" clip-rule="evenodd" d="M213.001 270.061C195.091 272.131 184.091 264.471 180.001 247.061C178.861 240.541 178.861 234.201 180.001 228.061C176.141 231.091 172.141 233.921 168.001 236.561C165.731 237.321 163.561 237.151 161.501 236.061C160.831 233.061 160.831 230.061 161.501 227.061C180.751 206.621 203.251 201.791 229.001 212.561C233.711 215.821 235.881 220.321 235.501 226.061C239.721 232.441 241.051 239.441 239.501 247.061C234.201 258.861 225.371 266.531 213.001 270.061Z" fill="#040404"/>
<path fill-rule="evenodd" clip-rule="evenodd" d="M217 218.061C226.22 218.131 230.06 222.801 228.5 232.061C226.44 238.231 222.27 241.901 216 243.061C210.54 241.351 207.88 237.521 208 231.561C209.11 225.841 212.11 221.341 217 218.061Z" fill="#F7F7F7"/>
<path fill-rule="evenodd" clip-rule="evenodd" d="M296 276.061C303.91 276.261 311.08 273.921 317.5 269.061C320.36 264.661 323.19 260.331 326 256.061C326.65 255.761 327.32 255.421 328 255.061C330.12 256.511 332.45 257.171 335 257.061C334.76 259.791 335.6 262.121 337.5 264.061C338.17 268.391 338.17 272.731 337.5 277.061C331.62 282.931 325.12 288.091 318 292.561C307.39 295.531 300.22 292.031 296.5 282.061C296 280.091 295.84 278.091 296 276.061Z" fill="#FDE3EE"/>
<path fill-rule="evenodd" clip-rule="evenodd" d="M269 277.061C273.99 276.891 275.83 279.221 274.5 284.061C271.89 289.131 268.05 292.961 263 295.561C261 296.231 259 296.231 257 295.561C251.84 292.571 246.67 289.731 241.5 287.061C240.72 283.331 242.22 281.001 246 280.061C250.94 281.861 255.61 284.201 260 287.061C263.47 284.111 266.47 280.781 269 277.061Z" fill="#0D0D0D"/>
</svg>
