<svg width="500" height="500" viewBox="0 0 500 500" fill="none" xmlns="http://www.w3.org/2000/svg">
<path fill-rule="evenodd" clip-rule="evenodd" d="M202 87.0616C221.04 86.3616 238.54 91.0316 254.5 101.062C268.95 97.7216 283.11 98.5516 297 103.562C319.7 114.322 336.86 130.822 348.5 153.062C354.39 167.182 362.06 180.182 371.5 192.062C381.87 216.362 374.04 230.862 348 235.562C347.21 236.652 346.54 237.812 346 239.062C351.12 239.492 355.95 240.832 360.5 243.062C361.5 245.062 362.5 247.062 363.5 249.062C363.31 252.452 363.48 255.782 364 259.062C367.93 262.282 371.76 265.612 375.5 269.062C383.08 279.892 390.41 290.892 397.5 302.062C403.27 315.812 404.27 329.812 400.5 344.062C408.52 340.492 412.69 343.162 413 352.062C421.5 352.762 424 357.092 420.5 365.062C418.6 369.132 415.43 371.472 411 372.062C406.23 378.452 400.9 384.282 395 389.562C388.53 391.932 381.87 392.592 375 391.562C372.17 390.062 370 387.892 368.5 385.062C345.23 394.292 321.06 398.122 296 396.562C293.07 395.512 290.23 394.342 287.5 393.062C273.99 402.402 259.15 408.902 243 412.562C234.63 413.222 226.97 411.222 220 406.562C214.25 406.412 208.58 405.752 203 404.562C195.67 401.232 188.67 397.402 182 393.062C153.85 400.132 127.85 395.632 104 379.562C86.3403 361.452 77.3403 339.622 77.0003 314.062C76.8503 298.632 80.6803 284.302 88.5003 271.062C93.7903 265.582 98.6303 266.082 103 272.562C113.52 274.732 117.69 281.232 115.5 292.062C120.59 294.152 123.93 297.822 125.5 303.062C126 305.032 126.16 307.032 126 309.062C128.16 309.442 129.83 308.782 131 307.062C125.45 297.962 125.79 289.302 132 281.062C121.65 272.872 112.48 263.542 104.5 253.062C101.13 241.812 105.3 235.472 117 234.062C108.68 224.092 100.85 213.752 93.5003 203.062C92.8303 201.062 92.8303 199.062 93.5003 197.062C98.0003 192.222 103.5 189.062 110 187.562C119.88 185.362 129.88 184.022 140 183.562C127.94 169.362 122.27 153.032 123 134.562C133.18 128.492 144.18 126.492 156 128.562C163.99 130.842 171.99 133.002 180 135.062C179.52 122.852 181.69 111.182 186.5 100.062C190.32 94.0716 195.48 89.7416 202 87.0616Z" fill="#242424"/>
<path fill-rule="evenodd" clip-rule="evenodd" d="M116.001 240.061C127.511 239.371 138.511 241.371 149.001 246.061C149.331 246.891 149.671 247.731 150.001 248.561C149.261 258.391 148.591 268.221 148.001 278.061C144.191 278.401 140.531 277.901 137.001 276.561C126.241 269.141 116.741 260.311 108.501 250.061C107.831 248.061 107.831 246.061 108.501 244.061C110.701 242.061 113.201 240.731 116.001 240.061Z" fill="#FBCA30"/>
<path fill-rule="evenodd" clip-rule="evenodd" d="M305 239.062C306.31 239.712 307.31 240.712 308 242.062C303.44 243.572 302.44 242.572 305 239.062Z" fill="#BD3333"/>
<path fill-rule="evenodd" clip-rule="evenodd" d="M323 235.062C326.67 236.122 330.33 237.282 334 238.562C336.92 240.632 336.58 241.962 333 242.562C328 243.232 323 243.232 318 242.562C320.3 240.462 321.96 237.962 323 235.062Z" fill="#F23636"/>
<path fill-rule="evenodd" clip-rule="evenodd" d="M284 234.062C285 234.062 286 234.062 287 234.062C287.09 236.242 287.75 238.242 289 240.062C285.72 241.222 282.38 241.382 279 240.562C278.14 239.872 277.48 239.042 277 238.062C279.14 236.352 281.48 235.022 284 234.062Z" fill="#F33636"/>
<path fill-rule="evenodd" clip-rule="evenodd" d="M308 229.062C311.67 229.062 315.33 229.062 319 229.062C318.19 241.282 313.86 242.952 306 234.062C303.85 235.712 301.85 237.542 300 239.562C294.13 240.102 291.13 237.262 291 231.062C296.84 230.662 302.51 229.992 308 229.062Z" fill="#F5F5F5"/>
<path fill-rule="evenodd" clip-rule="evenodd" d="M361 192.061C362.32 191.891 363.49 192.221 364.5 193.061C369.31 198.721 370.14 204.891 367 211.561C356.89 212.771 353.06 208.271 355.5 198.061C357.54 196.191 359.37 194.191 361 192.061Z" fill="#FCCD30"/>
<path fill-rule="evenodd" clip-rule="evenodd" d="M122 190.061C134.34 189.891 146.67 190.061 159 190.561C154.98 206.501 151.98 222.671 150 239.061C141.29 239.881 133.29 237.721 126 232.561C116.52 223.741 108.36 213.911 101.5 203.061C100.76 201.121 100.92 199.291 102 197.561C108.58 194.501 115.25 192.001 122 190.061Z" fill="#FCCA30"/>
<path fill-rule="evenodd" clip-rule="evenodd" d="M139 133.062C150.84 132.652 162.18 134.822 173 139.562C175.71 140.582 178.04 142.082 180 144.062C171.5 156.392 165.17 169.722 161 184.062C156.65 184.232 152.32 184.062 148 183.562C137.58 171.042 130.91 156.712 128 140.562C128.94 138.622 130.27 136.952 132 135.562C134.6 135.172 136.94 134.342 139 133.062Z" fill="#FCCA30"/>
<path fill-rule="evenodd" clip-rule="evenodd" d="M260 106.061C268.34 105.891 276.67 106.061 285 106.561C306.37 113.491 323.2 126.321 335.5 145.061C342.37 158.961 349.87 172.461 358 185.561C349.38 193.281 347.21 202.441 351.5 213.061C355.39 217.181 360.22 219.351 366 219.561C362.92 223.431 358.92 225.771 354 226.561C344.49 226.991 335.16 225.991 326 223.561C307.75 222.941 290.08 225.941 273 232.561C269.32 232.981 265.66 233.481 262 234.061C258.32 233.221 254.65 232.721 251 232.561C252.71 234.601 254.71 236.271 257 237.561C263.49 240.811 270.16 243.481 277 245.561C302.38 249.031 327.71 248.861 353 245.061C357.72 246.261 358.89 248.931 356.5 253.061C348.83 260.291 339.66 264.451 329 265.561C321.33 266.231 313.67 266.231 306 265.561C298.06 264.091 290.06 263.091 282 262.561C273.31 260.981 264.98 258.641 257 255.561C256.05 256.281 255.88 257.111 256.5 258.061C259.86 260.921 263.36 263.591 267 266.061C257.57 278.761 252.9 293.091 253 309.061C248.15 309.321 243.81 310.981 240 314.061C239.05 315.611 238.71 317.271 239 319.061C246.89 317.231 254.89 316.731 263 317.561C270.02 319.911 275.19 324.411 278.5 331.061C279.31 333.141 279.14 335.141 278 337.061C276.17 337.811 274.5 338.811 273 340.061C270.15 336.001 266.15 334.001 261 334.061C252.41 337.311 247.07 343.311 245 352.061C239.43 352.961 234.1 354.791 229 357.561C225.17 361.391 221.33 365.231 217.5 369.061C210.45 378.371 209.28 388.371 214 399.061C213.67 399.391 213.33 399.731 213 400.061C198.75 397.641 187.08 390.811 178 379.561C177.05 379.081 176.05 378.911 175 379.061C175.21 382.031 176.21 384.701 178 387.061C162.38 390.891 146.72 391.061 131 387.561C102.31 376.181 86.4798 355.011 83.4998 324.061C81.5398 306.451 84.5398 289.791 92.4998 274.061C95.5198 272.861 97.6798 273.861 98.9998 277.061C101.66 288.201 104.82 299.201 108.5 310.061C114.42 323.841 124.92 329.341 140 326.561C142.75 325.441 145.25 323.941 147.5 322.061C149.78 317.301 152.61 312.971 156 309.061C157.2 312.491 158.86 315.661 161 318.561C163.67 319.231 166.33 319.231 169 318.561C171.15 317.151 173.48 316.321 176 316.061C176.51 325.071 181.18 328.571 190 326.561C199.06 323.831 205.23 318.001 208.5 309.061C213.83 302.391 219.17 295.731 224.5 289.061C229.73 277.821 228.73 267.151 221.5 257.061C216.16 252.381 210 249.551 203 248.561C184.11 247.281 168.45 253.781 156 268.061C153.9 230.201 161.06 194.201 177.5 160.061C196.6 129.101 224.1 111.101 260 106.061Z" fill="#85D856"/>
<path fill-rule="evenodd" clip-rule="evenodd" d="M205 199.061C217.56 197.191 228.06 200.861 236.5 210.061C241 222.551 237.17 231.391 225 236.561C210.76 240.541 197.93 238.041 186.5 229.061C183.55 222.421 184.21 216.091 188.5 210.061C192.81 204.501 198.31 200.831 205 199.061Z" fill="#242325"/>
<path fill-rule="evenodd" clip-rule="evenodd" d="M205 204.062C213.53 202.992 221.53 204.492 229 208.562C235.6 215.302 235.6 221.972 229 228.562C217.84 234.182 206.5 234.512 195 229.562C190.7 226.842 188.87 223.012 189.5 218.062C192.99 211.392 198.16 206.732 205 204.062Z" fill="#FCCA30"/>
<path fill-rule="evenodd" clip-rule="evenodd" d="M316.999 144.062C323.129 144.382 328.629 146.382 333.499 150.062C340.869 158.462 345.869 168.132 348.499 179.062C349.979 189.132 347.979 198.462 342.499 207.062C336.369 214.782 328.869 216.952 319.999 213.562C312.109 205.272 307.269 195.442 305.499 184.062C304.069 172.672 305.409 161.672 309.499 151.062C311.899 148.492 314.399 146.162 316.999 144.062Z" fill="#232323"/>
<path fill-rule="evenodd" clip-rule="evenodd" d="M311 166.062C312.64 165.852 314.14 166.182 315.5 167.062C317.08 171.972 317.75 176.972 317.5 182.062C315.5 186.062 313.5 186.062 311.5 182.062C308.96 176.612 308.79 171.282 311 166.062Z" fill="#EEEEEE"/>
<path fill-rule="evenodd" clip-rule="evenodd" d="M318 150.062C323.69 149.452 328.19 151.452 331.5 156.062C336.22 162.842 339.89 170.172 342.5 178.062C345.53 190.642 342.03 200.812 332 208.562C329.33 209.232 326.67 209.232 324 208.562C321.48 206.212 319.15 203.712 317 201.062C324.45 198.692 327.45 193.522 326 185.562C326.13 177.582 324.3 170.082 320.5 163.062C318.07 160.932 315.23 159.602 312 159.062C313.28 155.482 315.28 152.482 318 150.062Z" fill="#F8F8F8"/>
<path fill-rule="evenodd" clip-rule="evenodd" d="M275.001 143.062C280.851 143.232 286.021 145.232 290.501 149.062C298.591 165.942 300.921 183.612 297.501 202.062C295.591 213.762 288.761 220.092 277.001 221.062C256.021 220.742 246.681 210.072 249.001 189.062C248.551 172.912 253.551 158.742 264.001 146.562C267.661 144.972 271.331 143.802 275.001 143.062Z" fill="#232323"/>
<path fill-rule="evenodd" clip-rule="evenodd" d="M288 167.062C289 167.062 290 167.062 291 167.062C291.62 171.552 292.29 176.052 293 180.562C292.66 183.742 291.16 186.242 288.5 188.062C284.02 181.222 283.85 174.222 288 167.062Z" fill="#F1F1F1"/>
<path fill-rule="evenodd" clip-rule="evenodd" d="M272.999 148.062C282.449 148.182 287.779 152.852 288.999 162.062C284.619 162.582 281.459 164.922 279.499 169.062C277.789 175.632 276.629 182.292 275.999 189.062C276.309 195.162 278.639 200.332 282.999 204.562C285.739 204.982 288.399 204.982 290.999 204.562C287.929 210.612 282.929 213.942 275.999 214.562C263.499 215.402 256.329 209.572 254.499 197.062C253.059 184.022 255.399 171.682 261.499 160.062C264.859 155.532 268.699 151.532 272.999 148.062Z" fill="#F9F9F9"/>
<path fill-rule="evenodd" clip-rule="evenodd" d="M203 92.0615C214.3 92.6215 225.3 94.7915 236 98.5615C238.68 99.3415 241.02 100.672 243 102.562C232.33 106.062 222 110.392 212 115.562C203.26 121.462 195.26 128.292 188 136.062C186.55 133.612 185.89 130.952 186 128.062C186.67 117.382 189.5 107.382 194.5 98.0615C197.24 95.8115 200.07 93.8115 203 92.0615Z" fill="#FBCA30"/>
<path fill-rule="evenodd" clip-rule="evenodd" d="M190 254.061C200.28 252.441 209.61 254.611 218 260.561C223.11 269.561 223.28 278.721 218.5 288.061C214.71 293.521 210.55 298.681 206 303.561C201.67 303.481 197.51 302.641 193.5 301.061C190.21 301.171 187.04 301.841 184 303.061C177.79 297.461 170.45 294.291 162 293.561C159.84 290.561 157.01 288.391 153.5 287.061C153.63 282.761 154.97 278.761 157.5 275.061C166.42 264.951 177.25 257.951 190 254.061Z" fill="#FC8FB9"/>
<path fill-rule="evenodd" clip-rule="evenodd" d="M355 263.062C360.2 265.412 365.03 268.412 369.5 272.062C381.27 285.602 389.94 300.932 395.5 318.062C396.17 324.062 396.17 330.062 395.5 336.062C387.72 354.512 375.55 369.342 359 380.562C344.33 386.092 329.16 389.592 313.5 391.062C306.09 390.652 298.92 389.152 292 386.562C294 382.892 296 379.232 298 375.562C317.28 375.752 336.28 373.752 355 369.562C388.34 354.062 394.84 330.892 374.5 300.062C372.28 297.542 369.78 295.372 367 293.562C342.67 284.702 318.67 285.702 295 296.562C287.23 301.692 280.4 307.862 274.5 315.062C270.77 312.202 266.61 310.202 262 309.062C260.49 294.432 263.99 281.102 272.5 269.062C273.24 267.992 274.24 267.322 275.5 267.062C298.25 272.702 321.08 273.202 344 268.562C347.76 266.682 351.43 264.852 355 263.062Z" fill="#F9F9F9"/>
<path fill-rule="evenodd" clip-rule="evenodd" d="M107 278.062C108.91 278.132 110.08 279.132 110.5 281.062C111.44 284.352 110.94 287.352 109 290.062C107.68 286.172 107.02 282.172 107 278.062Z" fill="#E6C230"/>
<path fill-rule="evenodd" clip-rule="evenodd" d="M143 283.062C144.67 283.062 146.33 283.062 148 283.062C145.83 287.922 144.49 293.092 144 298.562C144.04 302.862 145.38 306.702 148 310.062C147.36 311.212 146.52 312.212 145.5 313.062C138.41 308.142 133.91 301.472 132 293.062C132.26 290.292 133.59 288.122 136 286.562C138.43 285.352 140.76 284.182 143 283.062Z" fill="#F6C930"/>
<path fill-rule="evenodd" clip-rule="evenodd" d="M149.999 291.062C160.739 294.552 161.399 299.222 151.999 305.062C147.449 301.102 146.789 296.442 149.999 291.062Z" fill="#EAEAEA"/>
<path fill-rule="evenodd" clip-rule="evenodd" d="M371 308.061C363.67 306.041 356.17 304.701 348.5 304.061C338.83 305.921 334 311.921 334 322.061C335.07 338.261 343.4 344.091 359 339.561C361.46 338.101 363.63 336.271 365.5 334.061C366.64 330.321 367.97 326.651 369.5 323.061C369.63 320.051 369.63 317.051 369.5 314.061C371.99 316.061 374.82 317.061 378 317.061C384.17 337.871 377.51 352.701 358 361.561C341.19 369.091 323.85 371.261 306 368.061C309.01 360.821 309.68 353.481 308 346.061C314.69 340.161 317.52 332.831 316.5 324.061C313.95 321.521 312.29 318.521 311.5 315.061C302.36 309.761 293.19 309.761 284 315.061C284.36 313.191 285.36 311.691 287 310.561C310.94 292.771 336.94 289.101 365 299.561C368.38 301.991 370.38 304.831 371 308.061Z" fill="#F9F9F9"/>
<path fill-rule="evenodd" clip-rule="evenodd" d="M112 298.062C115.53 297.912 118.36 299.242 120.5 302.062C121.62 307.072 120.96 311.742 118.5 316.062C113.59 311.102 111.42 305.102 112 298.062Z" fill="#F4C930"/>
<path fill-rule="evenodd" clip-rule="evenodd" d="M165 299.061C170.95 298.301 175.28 300.471 178 305.561C174.45 311.561 169.28 314.061 162.5 313.061C161.41 308.001 162.24 303.341 165 299.061Z" fill="#F6F6F6"/>
<path fill-rule="evenodd" clip-rule="evenodd" d="M371 308.062C373.69 309.832 376.52 311.492 379.5 313.062C381.72 315.352 381.22 316.692 378 317.062C374.82 317.062 371.99 316.062 369.5 314.062C369.63 317.052 369.63 320.052 369.5 323.062C367.97 326.652 366.64 330.322 365.5 334.062C363.63 336.272 361.46 338.102 359 339.562C343.4 344.092 335.07 338.262 334 322.062C334 311.922 338.83 305.922 348.5 304.062C356.17 304.702 363.67 306.042 371 308.062Z" fill="#080808"/>
<path fill-rule="evenodd" clip-rule="evenodd" d="M188 306.061C192.08 305.901 196.08 306.401 200 307.561C201.9 309.371 202.4 311.531 201.5 314.061C197.13 318.741 191.79 321.741 185.5 323.061C182.14 321.021 181.14 318.021 182.5 314.061C183.74 310.981 185.58 308.321 188 306.061Z" fill="#F4F4F4"/>
<path fill-rule="evenodd" clip-rule="evenodd" d="M344.001 309.061C347.911 308.801 350.251 310.631 351.001 314.561C349.641 323.941 345.481 325.441 338.501 319.061C337.831 317.731 337.831 316.391 338.501 315.061C340.541 313.191 342.371 311.191 344.001 309.061Z" fill="#F2F2F2"/>
<path fill-rule="evenodd" clip-rule="evenodd" d="M308 346.061C307.23 344.901 306.23 343.901 305 343.061C300.63 343.391 296.63 344.731 293 347.061C292.02 346.581 291.19 345.921 290.5 345.061C289.28 342.001 287.45 339.341 285 337.061C286.07 334.121 286.24 331.121 285.5 328.061C283.61 325.451 282.11 322.621 281 319.561C281.46 317.621 282.46 316.121 284 315.061C293.19 309.761 302.36 309.761 311.5 315.061C312.29 318.521 313.95 321.521 316.5 324.061C317.52 332.831 314.69 340.161 308 346.061Z" fill="#040404"/>
<path fill-rule="evenodd" clip-rule="evenodd" d="M128 313.061C134.97 311.731 139.3 314.391 141 321.061C135.33 321.061 129.67 321.061 124 321.061C124.28 317.841 125.61 315.171 128 313.061Z" fill="#F3C830"/>
<path fill-rule="evenodd" clip-rule="evenodd" d="M302 316.062C309.82 317.722 311.66 322.052 307.5 329.062C302.12 332.392 298.62 330.892 297 324.562C297.65 321.092 299.32 318.262 302 316.062Z" fill="#F0F0F0"/>
<path fill-rule="evenodd" clip-rule="evenodd" d="M262 340.061C263.32 339.891 264.49 340.221 265.5 341.061C266.79 346.231 265.63 350.731 262 354.561C256.32 355.211 253.48 352.711 253.5 347.061C255.94 344.111 258.77 341.771 262 340.061Z" fill="#F4F4F4"/>
<path fill-rule="evenodd" clip-rule="evenodd" d="M280 342.062C283.08 341.982 284.75 343.482 285 346.562C284.14 350.942 282.48 354.942 280 358.562C275.35 360.042 271.69 358.872 269 355.062C271.62 349.782 275.29 345.442 280 342.062Z" fill="#F3F3F3"/>
<path fill-rule="evenodd" clip-rule="evenodd" d="M338 345.062C339.33 345.062 340.67 345.062 342 345.062C341.81 350.782 339.15 354.782 334 357.062C330.71 355.802 327.38 354.632 324 353.562C322.38 350.762 323.22 349.262 326.5 349.062C328.71 349.582 330.88 350.252 333 351.062C335.13 349.482 336.8 347.482 338 345.062Z" fill="#101010"/>
<path fill-rule="evenodd" clip-rule="evenodd" d="M298 349.061C302.99 348.051 304.99 350.051 304 355.061C304.33 360.431 302.16 364.101 297.5 366.061C290.64 365.571 288.3 362.241 290.5 356.061C292.9 353.491 295.4 351.161 298 349.061Z" fill="#F9F9F9"/>
<path fill-rule="evenodd" clip-rule="evenodd" d="M402 349.062C405.73 349.342 406.89 351.342 405.5 355.062C402.79 356.692 399.79 357.692 396.5 358.062C395.07 357.632 393.9 356.802 393 355.562C395.41 352.402 398.41 350.232 402 349.062Z" fill="#F4F3F3"/>
<path fill-rule="evenodd" clip-rule="evenodd" d="M413 357.062C414.15 357.352 414.82 358.182 415 359.562C414.99 363.062 413.32 364.392 410 363.562C409.44 362.842 409.11 362.002 409 361.062C409.94 359.272 411.27 357.942 413 357.062Z" fill="#E5E5E5"/>
<path fill-rule="evenodd" clip-rule="evenodd" d="M244 357.062C248.04 357.082 251.71 358.252 255 360.562C258.06 361.302 261.06 361.132 264 360.062C270.21 364.962 276.88 365.962 284 363.062C286.05 367.112 289.05 370.112 293 372.062C277.93 396.262 256.26 407.102 228 404.562C217.95 398.292 215.12 389.452 219.5 378.062C221.57 373.092 224.74 368.922 229 365.562C233.77 362.182 238.77 359.352 244 357.062Z" fill="#FC8EB9"/>
<path fill-rule="evenodd" clip-rule="evenodd" d="M388 361.062C389.7 361.252 391.03 362.082 392 363.562C394.93 364.342 397.76 364.172 400.5 363.062C404.07 365.082 404.73 367.752 402.5 371.062C396.44 381.342 387.61 385.512 376 383.562C375.18 380.642 375.68 377.802 377.5 375.062C381.26 370.512 384.76 365.852 388 361.062Z" fill="#FA8FB9"/>
</svg>
