<svg width="500" height="500" viewBox="0 0 500 500" fill="none" xmlns="http://www.w3.org/2000/svg">
<path fill-rule="evenodd" clip-rule="evenodd" d="M330.001 303.062C324.881 304.792 319.881 306.792 315.001 309.062C303.911 310.702 292.911 312.032 282.001 313.062C278.461 312.752 275.121 313.082 272.001 314.062C268.001 314.062 264.001 314.062 260.001 314.062C255.001 314.062 250.001 314.062 245.001 314.062C237.331 314.062 229.671 314.062 222.001 314.062C217.621 314.192 213.291 313.852 209.001 313.062C200.251 312.442 191.581 310.782 183.001 308.062C180.011 307.402 177.011 306.732 174.001 306.062C172.471 306.202 171.471 306.872 171.001 308.062C158.511 299.392 150.011 287.722 145.501 273.062C144.831 268.392 144.831 263.732 145.501 259.062C147.521 252.822 150.021 246.822 153.001 241.062C145.821 225.712 145.661 210.372 152.501 195.062C156.471 189.262 160.971 183.932 166.001 179.062C155.871 161.312 157.031 144.312 169.501 128.062C179.931 117.262 192.101 109.102 206.001 103.562C210.111 99.4515 214.781 96.1215 220.001 93.5615C230.161 83.3915 238.991 72.2315 246.501 60.0615C249.631 56.2515 253.301 53.2515 257.501 51.0615C258.331 51.2315 259.171 51.3915 260.001 51.5615C261.351 53.2815 262.521 55.1115 263.501 57.0615C263.461 68.7915 265.461 80.1315 269.501 91.0615C273.291 97.1815 278.121 102.352 284.001 106.562C295.751 111.702 307.421 117.032 319.001 122.562C322.871 126.762 327.031 130.592 331.501 134.062C334.111 139.002 337.111 143.662 340.501 148.062C341.171 153.392 341.171 158.732 340.501 164.062C338.391 167.942 336.561 171.942 335.001 176.062C343.021 182.422 348.851 190.422 352.501 200.062C354.081 210.442 352.581 220.272 348.001 229.562C358.021 249.452 356.521 268.622 343.501 287.062C338.411 291.972 333.911 297.312 330.001 303.062Z" fill="#F1E2C1"/>
<path fill-rule="evenodd" clip-rule="evenodd" d="M282 185.062C274.29 181.992 266.62 178.822 259 175.562C241.51 170.872 225.18 173.202 210 182.562C208.71 183.052 207.37 183.222 206 183.062C196.17 182.292 186.5 180.622 177 178.062C174.19 172.562 171.69 166.892 169.5 161.062C167.93 150.522 170.76 141.362 178 133.562C181.63 130.932 184.97 127.932 188 124.562C207.38 115.612 224.22 103.112 238.5 87.0615C242.79 81.1015 247.46 75.4415 252.5 70.0615C252.34 83.2515 256.34 94.9115 264.5 105.062C268.99 108.552 273.16 112.392 277 116.562C287.37 121.812 298.03 126.142 309 129.562C312.64 133.052 316.64 136.052 321 138.562C328.52 144.762 331.69 152.592 330.5 162.062C327.67 165.562 324.83 169.062 322 172.562C308.79 177.472 295.46 181.642 282 185.062Z" fill="#FEF7F2"/>
<path fill-rule="evenodd" clip-rule="evenodd" d="M282 185.062C286.15 187.012 289.81 189.682 293 193.062C297.42 196.712 301.59 200.712 305.5 205.062C310.21 214.562 313.04 224.562 314 235.062C313.56 238.712 313.22 242.382 313 246.062C311.96 254.652 307.96 261.482 301 266.562C279.06 279.512 255.39 284.512 230 281.562C215.94 278.212 202.94 272.552 191 264.562C187.5 259.892 183.5 255.722 179 252.062C176.83 248.722 175.5 245.062 175 241.062C173.95 237.142 173.28 233.142 173 229.062C173.47 224.172 174.64 219.502 176.5 215.062C180.75 209.572 184.75 203.902 188.5 198.062C191.5 196.232 194 193.892 196 191.062C199.65 188.742 202.98 186.082 206 183.062C207.37 183.222 208.71 183.052 210 182.562C225.18 173.202 241.51 170.872 259 175.562C266.62 178.822 274.29 181.992 282 185.062Z" fill="#DFDFDF"/>
<path fill-rule="evenodd" clip-rule="evenodd" d="M304 221.062C293.24 213.972 281.41 209.302 268.5 207.062C267 207.232 265.5 207.392 264 207.562C250.89 216.582 247.72 228.412 254.5 243.062C261.1 249.342 268.94 251.502 278 249.562C280.77 248.092 283.27 246.262 285.5 244.062C288.11 239.182 290.44 234.182 292.5 229.062C293.24 227.122 293.08 225.292 292 223.562C295.4 225.152 299.06 226.322 303 227.062C304.07 227.992 305.4 228.332 307 228.062C306.95 234.762 306.45 241.422 305.5 248.062C304.23 252.432 302.07 256.262 299 259.562C276.43 273.212 252.1 277.882 226 273.562C215.28 268.222 204.62 262.892 194 257.562C190.17 253.062 186.33 248.562 182.5 244.062C181.47 239.792 180.8 235.452 180.5 231.062C179.75 230.432 178.92 229.932 178 229.562C178.23 229.162 178.56 228.992 179 229.062C180.81 229.072 182.48 228.572 184 227.562C185.87 225.352 188.04 223.522 190.5 222.062C188.39 234.442 192.89 243.612 204 249.562C216.08 250.842 224.91 246.012 230.5 235.062C231.98 231.862 232.32 228.522 231.5 225.062C228.63 220.372 226.13 215.532 224 210.562C212.05 205.502 200.39 206.002 189 212.062C188.46 212.002 188.12 211.672 188 211.062C205.97 185.902 229.97 176.732 260 183.562C269.07 186.802 277.74 190.802 286 195.562C289.83 200.062 294 204.232 298.5 208.062C300.45 211.622 302.11 215.282 303.5 219.062C306.16 220.032 306.33 220.702 304 221.062Z" fill="#FBFBFB"/>
<path fill-rule="evenodd" clip-rule="evenodd" d="M314 235.062C313.04 224.562 310.21 214.562 305.5 205.062C301.59 200.712 297.42 196.712 293 193.062C303.17 190.312 313.17 186.982 323 183.062C333.37 185.932 339.87 192.592 342.5 203.062C343.17 207.392 343.17 211.732 342.5 216.062C338.33 220.232 334.17 224.392 330 228.562C324.97 231.582 319.64 233.742 314 235.062Z" fill="#FEF6F2"/>
<path fill-rule="evenodd" clip-rule="evenodd" d="M196 191.062C194 193.892 191.5 196.232 188.5 198.062C184.75 203.902 180.75 209.572 176.5 215.062C174.64 219.502 173.47 224.172 173 229.062C173.28 233.142 173.95 237.142 175 241.062C170.26 240.842 166.59 238.672 164 234.562C162.71 234.072 161.37 233.902 160 234.062C152.87 215.702 156.87 200.362 172 188.062C179.95 189.502 187.95 190.502 196 191.062Z" fill="#FEF6F1"/>
<path fill-rule="evenodd" clip-rule="evenodd" d="M179 229.062C177.94 226.492 177.78 223.822 178.5 221.062C181.6 217.452 185.1 214.452 189 212.062C200.39 206.002 212.05 205.502 224 210.562C226.13 215.532 228.63 220.372 231.5 225.062C232.32 228.522 231.98 231.862 230.5 235.062C224.91 246.012 216.08 250.842 204 249.562C192.89 243.612 188.39 234.442 190.5 222.062C188.04 223.522 185.87 225.352 184 227.562C182.48 228.572 180.81 229.072 179 229.062Z" fill="#070707"/>
<path fill-rule="evenodd" clip-rule="evenodd" d="M304.001 221.062C308.261 223.922 307.931 225.922 303.001 227.062C299.061 226.322 295.401 225.152 292.001 223.562C293.081 225.292 293.241 227.122 292.501 229.062C290.441 234.182 288.111 239.182 285.501 244.062C283.271 246.262 280.771 248.092 278.001 249.562C268.941 251.502 261.101 249.342 254.501 243.062C247.721 228.412 250.891 216.582 264.001 207.562C265.501 207.392 267.001 207.232 268.501 207.062C281.411 209.302 293.241 213.972 304.001 221.062Z" fill="#080808"/>
<path fill-rule="evenodd" clip-rule="evenodd" d="M264 213.062C268.46 212.362 271.13 214.202 272 218.562C270.67 221.192 269.84 224.022 269.5 227.062C262.8 230.972 258.63 229.142 257 221.562C257.13 219.932 257.63 218.432 258.5 217.062C260.48 215.812 262.31 214.482 264 213.062Z" fill="#F0F0F0"/>
<path fill-rule="evenodd" clip-rule="evenodd" d="M215 214.062C224.04 215.492 226.04 220.152 221 228.062C214.67 232.972 210.67 231.472 209 223.562C210.14 219.762 212.14 216.602 215 214.062Z" fill="#F1F1F1"/>
<path fill-rule="evenodd" clip-rule="evenodd" d="M178.999 252.062C183.499 255.722 187.499 259.892 190.999 264.562C202.939 272.552 215.939 278.212 229.999 281.562C255.389 284.512 279.059 279.512 300.999 266.562C307.959 261.482 311.959 254.652 312.999 246.062C321.529 243.712 329.699 240.382 337.499 236.062C338.759 236.322 339.759 236.992 340.499 238.062C346.819 253.192 345.149 267.522 335.499 281.062C330.969 285.262 326.799 289.762 322.999 294.562C319.369 296.222 315.699 297.892 311.999 299.562C272.339 304.992 232.669 305.332 192.999 300.562C184.779 298.612 176.779 296.272 168.999 293.562C158.519 284.772 154.019 273.602 155.499 260.062C156.819 255.262 158.979 250.932 161.999 247.062C167.439 249.472 173.099 251.132 178.999 252.062Z" fill="#FEF6F2"/>
<path fill-rule="evenodd" clip-rule="evenodd" d="M252 252.062C254.41 251.802 256.08 252.802 257 255.062C255.38 259.142 252.72 262.312 249 264.562C243.83 264.402 239 262.902 234.5 260.062C233.34 256.992 234.34 255.332 237.5 255.062C240.75 255.852 243.75 257.192 246.5 259.062C248.9 257.162 250.74 254.822 252 252.062Z" fill="#101010"/>
<path fill-rule="evenodd" clip-rule="evenodd" d="M330 303.062C321.22 323.902 312.72 344.902 304.5 366.062C291.56 391.602 278.89 417.272 266.5 443.062C258.48 450.372 249.98 450.872 241 444.562C238.17 441.062 235.33 437.562 232.5 434.062C213.7 396.652 195.03 359.312 176.5 322.062C174.76 317.332 172.92 312.662 171 308.062C171.47 306.872 172.47 306.202 174 306.062C177.01 306.732 180.01 307.402 183 308.062C189.05 319.842 194.89 331.842 200.5 344.062C202.97 336.322 205.64 328.652 208.5 321.062C209.28 318.302 208.78 315.802 207 313.562C207.59 313.102 208.26 312.932 209 313.062C213.29 313.852 217.62 314.192 222 314.062C221.96 315.142 221.63 316.142 221 317.062C225.24 325.882 229.74 334.552 234.5 343.062C237.59 337.212 240.43 331.212 243 325.062C241.6 321.942 239.94 318.942 238 316.062C240.47 315.392 242.8 314.732 245 314.062C250 314.062 255 314.062 260 314.062C258.35 317.372 256.68 320.702 255 324.062C258.97 330.532 263.14 336.862 267.5 343.062C270.8 335.952 273.97 328.792 277 321.562C275.91 318.642 274.24 316.142 272 314.062C275.12 313.082 278.46 312.752 282 313.062C285.4 312.742 288.73 313.072 292 314.062C290.29 316.202 289.46 318.542 289.5 321.062C293.42 327.892 297.58 334.562 302 341.062C304.87 333.382 308.37 326.042 312.5 319.062C313.65 315.792 314.48 312.462 315 309.062C319.88 306.792 324.88 304.792 330 303.062Z" fill="#F5A852"/>
<path fill-rule="evenodd" clip-rule="evenodd" d="M183 308.062C191.58 310.782 200.25 312.442 209 313.062C208.26 312.932 207.59 313.102 207 313.562C208.78 315.802 209.28 318.302 208.5 321.062C205.64 328.652 202.97 336.322 200.5 344.062C194.89 331.842 189.05 319.842 183 308.062Z" fill="#FCC978"/>
<path fill-rule="evenodd" clip-rule="evenodd" d="M315 309.062C314.48 312.462 313.65 315.792 312.5 319.062C308.37 326.042 304.87 333.382 302 341.062C297.58 334.562 293.42 327.892 289.5 321.062C289.46 318.542 290.29 316.202 292 314.062C288.73 313.072 285.4 312.742 282 313.062C292.91 312.032 303.91 310.702 315 309.062Z" fill="#FCC978"/>
<path fill-rule="evenodd" clip-rule="evenodd" d="M222 314.062C229.67 314.062 237.33 314.062 245 314.062C242.8 314.732 240.47 315.392 238 316.062C239.94 318.942 241.6 321.942 243 325.062C240.43 331.212 237.59 337.212 234.5 343.062C229.74 334.552 225.24 325.882 221 317.062C221.63 316.142 221.96 315.142 222 314.062Z" fill="#FCC979"/>
<path fill-rule="evenodd" clip-rule="evenodd" d="M260 314.062C264 314.062 268 314.062 272 314.062C274.24 316.142 275.91 318.642 277 321.562C273.97 328.792 270.8 335.952 267.5 343.062C263.14 336.862 258.97 330.532 255 324.062C256.68 320.702 258.35 317.372 260 314.062Z" fill="#FCCA79"/>
<path fill-rule="evenodd" clip-rule="evenodd" d="M215 330.062C220.51 337.892 225.17 346.392 229 355.562C225.43 364.922 222.27 374.422 219.5 384.062C215.65 375.362 211.48 366.692 207 358.062C207.64 356.912 208.48 355.912 209.5 355.062C210.25 346.472 212.08 338.132 215 330.062Z" fill="#FCC978"/>
<path fill-rule="evenodd" clip-rule="evenodd" d="M283 332.062C284 331.972 284.83 332.312 285.5 333.062C289.17 339.552 293 345.882 297 352.062C294.52 359.032 291.02 365.362 286.5 371.062C285.24 370.802 284.24 370.132 283.5 369.062C280.59 363.562 277.42 358.232 274 353.062C277.29 346.152 280.29 339.152 283 332.062Z" fill="#FCC978"/>
<path fill-rule="evenodd" clip-rule="evenodd" d="M249 335.062C254 341.182 258.66 347.682 263 354.562C259.17 362.732 255.33 370.892 251.5 379.062C247.51 371.262 243.68 363.422 240 355.562C243.31 348.792 246.31 341.962 249 335.062Z" fill="#FCC978"/>
<path fill-rule="evenodd" clip-rule="evenodd" d="M269 365.062C273.11 371.092 277.11 377.262 281 383.562C276.96 392.682 273.13 401.852 269.5 411.062C264.14 405.692 260.31 399.352 258 392.062C261.4 382.932 265.07 373.932 269 365.062Z" fill="#FCC978"/>
<path fill-rule="evenodd" clip-rule="evenodd" d="M235 369.062C239.5 376.722 243.5 384.722 247 393.062C244.32 400.932 241.15 408.602 237.5 416.062C232.41 409.882 228.91 402.882 227 395.062C229.05 386.172 231.72 377.502 235 369.062Z" fill="#FCC978"/>
<path fill-rule="evenodd" clip-rule="evenodd" d="M252 406.062C255.68 411.252 260.01 416.082 265 420.562C263.22 425.252 261.05 429.752 258.5 434.062C255.81 438.752 252.81 439.092 249.5 435.062C247.65 432.022 245.82 429.022 244 426.062C247.25 419.642 249.92 412.972 252 406.062Z" fill="#FCC978"/>
</svg>
