<svg width="500" height="500" viewBox="0 0 500 500" fill="none" xmlns="http://www.w3.org/2000/svg">
<path fill-rule="evenodd" clip-rule="evenodd" d="M168 88.0615C171.59 89.0215 175.26 89.6815 179 90.0615C182.35 89.5515 185.68 89.3915 189 89.5615C190.72 92.9715 189.72 95.3015 186 96.5615C178.73 98.0815 172.07 96.9115 166 93.0615C165.62 90.8615 166.29 89.2015 168 88.0615Z" fill="#D4AEA1"/>
<path fill-rule="evenodd" clip-rule="evenodd" d="M286 125.061C286.18 134.821 286.18 144.481 286 154.061C286.4 160.631 289.9 163.961 296.5 164.061C302.91 163.911 309.08 162.741 315 160.561C315.83 159.731 316.67 158.891 317.5 158.061C318.03 153.701 317.87 149.371 317 145.061C318.69 146.581 320.52 147.911 322.5 149.061C332.79 139.441 344.96 135.941 359 138.561C362.61 140.501 365.94 142.841 369 145.561C375.33 152.561 381.67 159.561 388 166.561C394.88 169.961 401.88 172.961 409 175.561C409.88 176.271 410.55 177.101 411 178.061C402.5 176.441 393.83 175.271 385 174.561C379.13 173.161 373.47 171.161 368 168.561C360.02 167.461 352.02 167.131 344 167.561C340.54 169.841 339.21 172.841 340 176.561C348.73 181.931 356.73 188.261 364 195.561C367.99 196.061 371.99 196.231 376 196.061C372.86 196.881 369.53 197.381 366 197.561C375.61 210.061 379.78 224.231 378.5 240.061C379.17 247.731 379.17 255.391 378.5 263.061C376 275.741 373.5 288.401 371 301.061C369.7 302.551 368.53 304.211 367.5 306.061C366.45 309.831 365.12 313.491 363.5 317.061C360.12 320.781 357.12 324.781 354.5 329.061C345.11 337.621 335.94 346.291 327 355.061C322.97 358.411 318.3 360.411 313 361.061C313.48 374.011 314.14 387.011 315 400.061C314.08 399.581 313.08 399.251 312 399.061C301.22 400.001 290.56 400.661 280 401.061C280.33 392.041 280 383.041 279 374.061C272.77 376.531 266.27 377.531 259.5 377.061C247.2 376.861 235.03 375.531 223 373.061C223 380.731 223 388.391 223 396.061C215.49 394.421 207.82 393.581 200 393.561C198.18 391.421 195.85 390.591 193 391.061C191.93 381.801 191.1 372.471 190.5 363.061C129.4 331.831 107.73 282.831 125.5 216.061C128.97 209.801 132.47 203.471 136 197.061C134.81 196.131 133.48 195.801 132 196.061C134.1 194.631 136.43 193.461 139 192.561C146.87 183.181 155.2 174.181 164 165.561C160.26 165.741 156.6 166.581 153 168.061C151.56 167.501 150.06 167.161 148.5 167.061C143.8 168.471 138.96 169.311 134 169.561C121.22 176.481 107.56 179.651 93 179.061C113.63 169.611 131.3 156.111 146 138.561C150.55 135.551 155.55 134.391 161 135.061C161 135.731 161 136.391 161 137.061C161 138.731 161 140.391 161 142.061C160.53 156.751 167.53 162.591 182 159.561C189.84 158.571 195.68 154.741 199.5 148.061C199.95 144.371 199.78 140.711 199 137.061C204.26 134.761 209.26 131.931 214 128.561C212.18 125.401 210.35 122.241 208.5 119.061C207.32 115.291 208.15 112.121 211 109.561C215.38 109.571 219.72 110.231 224 111.561C225.83 112.731 227.67 113.891 229.5 115.061C228.34 109.731 226.84 104.391 225 99.0614C227 92.0614 231.33 89.8914 238 92.5614C244.5 99.0614 251 105.561 257.5 112.061C258.1 108.151 259.93 104.991 263 102.561C269.38 101.591 272.88 104.431 273.5 111.061C277.5 115.901 281.67 120.561 286 125.061Z" fill="#FDFDFD"/>
<path fill-rule="evenodd" clip-rule="evenodd" d="M199.001 137.062C199.781 140.712 199.951 144.372 199.501 148.062C195.681 154.742 189.841 158.572 182.001 159.562C167.531 162.592 160.531 156.752 161.001 142.062C171.881 145.072 182.551 144.232 193.001 139.562C194.081 137.832 194.241 136.002 193.501 134.062C192.611 133.482 191.611 133.152 190.501 133.062C186.461 134.632 182.291 135.802 178.001 136.562C172.241 136.682 166.571 136.842 161.001 137.062C161.001 136.392 161.001 135.732 161.001 135.062C161.991 129.252 162.321 123.252 162.001 117.062C170.401 121.722 179.071 122.222 188.001 118.562C189.331 116.562 189.331 114.562 188.001 112.562C184.331 112.702 180.661 113.202 177.001 114.062C172.251 113.042 167.581 111.712 163.001 110.062C164.131 104.422 165.131 98.7515 166.001 93.0615C172.071 96.9115 178.731 98.0815 186.001 96.5615C189.721 95.3015 190.721 92.9715 189.001 89.5615C185.681 89.3915 182.351 89.5515 179.001 90.0615C175.261 89.6815 171.591 89.0215 168.001 88.0615C171.681 85.7315 174.181 82.4015 175.501 78.0615C176.711 76.5115 178.211 75.3415 180.001 74.5615C183.161 73.4115 186.321 72.2415 189.501 71.0615C192.001 71.5515 194.001 72.8815 195.501 75.0615C195.541 81.5015 194.701 87.8415 193.001 94.0615C192.831 108.872 194.831 123.202 199.001 137.062Z" fill="#F2DCAA"/>
<path fill-rule="evenodd" clip-rule="evenodd" d="M316 103.062C316 104.392 316 105.732 316 107.062C314.82 108.062 313.48 108.902 312 109.562C307.67 110.232 303.33 110.232 299 109.562C295.42 107.712 294.42 105.042 296 101.562C296.83 101.392 297.67 101.232 298.5 101.062C300.76 102.412 303.26 103.082 306 103.062C309.41 102.102 312.75 102.102 316 103.062Z" fill="#D4AEA1"/>
<path fill-rule="evenodd" clip-rule="evenodd" d="M163 110.062C167.58 111.712 172.25 113.042 177 114.062C180.66 113.202 184.33 112.702 188 112.562C189.33 114.562 189.33 116.562 188 118.562C179.07 122.222 170.4 121.722 162 117.062C160.56 114.482 160.9 112.142 163 110.062Z" fill="#D4AEA1"/>
<path fill-rule="evenodd" clip-rule="evenodd" d="M316 103.061C312.75 102.101 309.41 102.101 306 103.061C303.26 103.081 300.76 102.411 298.5 101.061C297.67 101.231 296.83 101.391 296 101.561C294.42 105.041 295.42 107.711 299 109.561C303.33 110.231 307.67 110.231 312 109.561C313.48 108.901 314.82 108.061 316 107.061C315.79 119.751 316.13 132.421 317 145.061C317.87 149.371 318.03 153.701 317.5 158.061C316.67 158.891 315.83 159.731 315 160.561C309.08 162.741 302.91 163.911 296.5 164.061C289.9 163.961 286.4 160.631 286 154.061C286.18 144.481 286.18 134.821 286 125.061C288.84 112.721 293 100.721 298.5 89.0614C301.89 84.3014 306.39 82.4714 312 83.5614C312.92 83.9314 313.75 84.4314 314.5 85.0614C315.91 90.9414 316.41 96.9414 316 103.061Z" fill="#F2DCAA"/>
<path fill-rule="evenodd" clip-rule="evenodd" d="M291 119.062C294.99 119.722 298.99 120.392 303 121.062C306.03 120.622 309.03 120.462 312 120.562C313.08 122.292 313.24 124.122 312.5 126.062C310.52 127.462 308.36 128.462 306 129.062C302.69 128.402 299.36 127.902 296 127.562C290.99 126.442 289.33 123.602 291 119.062Z" fill="#D4AFA1"/>
<path fill-rule="evenodd" clip-rule="evenodd" d="M161 142.062C161 140.392 161 138.732 161 137.062C166.57 136.842 172.24 136.682 178 136.562C182.29 135.802 186.46 134.632 190.5 133.062C191.61 133.152 192.61 133.482 193.5 134.062C194.24 136.002 194.08 137.832 193 139.562C182.55 144.232 171.88 145.072 161 142.062Z" fill="#D4AEA1"/>
<path fill-rule="evenodd" clip-rule="evenodd" d="M311 138.062C314.75 139.392 315.92 142.052 314.5 146.062C313 147.562 311.5 149.062 310 150.562C303.09 151.372 296.25 151.202 289.5 150.062C288.6 147.532 289.1 145.372 291 143.562C296.36 143.202 301.69 143.202 307 143.562C307.99 141.392 309.32 139.562 311 138.062Z" fill="#D4AFA1"/>
<path fill-rule="evenodd" clip-rule="evenodd" d="M195 159.062C206.9 159.872 210.4 165.872 205.5 177.062C198.19 183.262 192.52 181.932 188.5 173.062C187.17 166.722 189.34 162.062 195 159.062Z" fill="#282828"/>
<path fill-rule="evenodd" clip-rule="evenodd" d="M193.999 161.061C201.989 160.561 203.989 163.721 199.999 170.561C191.409 171.171 189.409 168.011 193.999 161.061Z" fill="#F2F2F2"/>
<path fill-rule="evenodd" clip-rule="evenodd" d="M274 164.062C279.8 162.572 283.64 164.572 285.5 170.062C286.27 174.152 285.93 178.152 284.5 182.062C277.1 187.832 271.1 186.492 266.5 178.062C265.75 175.262 266.08 172.592 267.5 170.062C269.56 167.832 271.73 165.832 274 164.062Z" fill="#272727"/>
<path fill-rule="evenodd" clip-rule="evenodd" d="M132 196.062C119.97 196.272 107.97 195.772 96.0004 194.562C92.7404 193.352 89.9104 191.522 87.5004 189.062C86.1204 183.942 87.9604 180.612 93.0004 179.062C107.56 179.652 121.22 176.482 134 169.562C138.96 169.312 143.8 168.472 148.5 167.062C150.06 167.162 151.56 167.502 153 168.062C156.6 166.582 160.26 165.742 164 165.562C155.2 174.182 146.87 183.182 139 192.562C136.43 193.462 134.1 194.632 132 196.062Z" fill="#F5BBCD"/>
<path fill-rule="evenodd" clip-rule="evenodd" d="M411 178.062C414.92 181.902 414.92 185.732 411 189.562C407.88 190.712 404.88 192.042 402 193.562C393.35 194.632 384.68 195.462 376 196.062C371.99 196.232 367.99 196.062 364 195.562C356.73 188.262 348.73 181.932 340 176.562C339.21 172.842 340.54 169.842 344 167.562C352.02 167.132 360.02 167.462 368 168.562C373.47 171.162 379.13 173.162 385 174.562C393.83 175.272 402.5 176.442 411 178.062Z" fill="#F5BBCD"/>
<path fill-rule="evenodd" clip-rule="evenodd" d="M272 167.062C279.07 167.972 280.74 171.472 277 177.562C267.36 177.772 265.7 174.272 272 167.062Z" fill="#F0F0F0"/>
<path fill-rule="evenodd" clip-rule="evenodd" d="M248.999 177.062C252.719 177.102 254.059 178.762 252.999 182.062C249.609 184.422 245.949 186.252 241.999 187.562C241.289 190.362 240.619 193.192 239.999 196.062C238.449 197.012 236.789 197.352 234.999 197.062C234.999 193.732 234.999 190.392 234.999 187.062C230.609 186.552 226.279 185.722 221.999 184.562C220.669 182.892 220.669 181.232 221.999 179.562C227.909 179.572 233.739 180.412 239.499 182.062C243.239 181.282 246.399 179.612 248.999 177.062Z" fill="#272727"/>
<path fill-rule="evenodd" clip-rule="evenodd" d="M307 195.061C308 195.031 308.66 195.531 309 196.561C308.51 199.701 307.34 202.541 305.5 205.061C296.07 212.491 287.23 220.661 279 229.561C275.6 233.041 272.43 232.881 269.5 229.061C266.65 234.901 262.15 237.071 256 235.561C255 237.231 254 238.891 253 240.561C250.38 240.481 247.71 240.311 245 240.061C244.89 232.691 243.72 233.021 241.5 241.061C239.5 244.451 236.67 245.951 233 245.561C228.11 242.611 223.78 238.941 220 234.561C217.67 233.391 215.33 232.231 213 231.061C211.07 232.081 209.07 232.251 207 231.561C204.33 229.891 201.67 228.231 199 226.561C193.15 222.131 187.48 217.471 182 212.561C178.7 211.931 176.87 210.101 176.5 207.061C183.57 208.531 190.74 209.701 198 210.561C199.24 211.711 200.24 213.051 201 214.561C210.95 215.171 219.12 219.331 225.5 227.061C225.77 221.451 228.6 219.291 234 220.561C236.12 222.291 237.62 224.461 238.5 227.061C241.33 224.231 244.17 221.391 247 218.561C250.46 217.441 253.29 218.271 255.5 221.061C258.22 216.841 261.72 213.511 266 211.061C268.24 211.631 269.91 212.961 271 215.061C274.94 210.081 279.94 207.911 286 208.561C292.73 203.541 299.73 199.041 307 195.061Z" fill="#E1D0CA"/>
<path fill-rule="evenodd" clip-rule="evenodd" d="M236 249.062C255.33 248.372 274 251.542 292 258.562C296.31 262.382 300.98 265.722 306 268.562C310.48 274.342 315.31 279.842 320.5 285.062C324.68 292.172 326.35 299.832 325.5 308.062C323.1 313.922 321.1 319.922 319.5 326.062C317.83 328.392 316.17 330.732 314.5 333.062C310.63 335.902 307.13 339.062 304 342.562C292.84 347.372 281.17 350.372 269 351.562C249.54 354.042 230.21 353.382 211 349.562C198.1 344.782 185.44 339.442 173 333.562C168.5 329.732 164 325.892 159.5 322.062C150.05 302.332 153.55 285.172 170 270.562C175.53 266.962 181.2 263.632 187 260.562C202.72 253.702 219.05 249.872 236 249.062Z" fill="#CCCCCC"/>
<path fill-rule="evenodd" clip-rule="evenodd" d="M307 287.061C304.36 284.741 301.36 282.901 298 281.561C291.57 279.851 285.24 277.851 279 275.561C266.85 273.021 258.35 277.521 253.5 289.061C247.11 313.981 256.61 325.481 282 323.561C285.43 321.761 288.59 319.601 291.5 317.061C296.29 309.181 299.13 300.841 300 292.061C304.21 295.171 308.88 297.171 314 298.061C314.96 299.841 315.62 301.841 316 304.061C313.5 311.061 311 318.061 308.5 325.061C303.76 329.011 298.92 332.851 294 336.561C284.15 339.821 274.15 342.481 264 344.561C229.12 348.901 197.46 340.571 169 319.561C167.8 318.661 166.97 317.491 166.5 316.061C166.03 312.061 165.2 308.231 164 304.561C163.84 302.021 164.5 299.851 166 298.061C167.9 299.071 169.9 299.241 172 298.561C175.15 296.251 178.15 293.751 181 291.061C181.33 291.561 181.67 292.061 182 292.561C180.19 295.871 179.69 299.371 180.5 303.061C185.5 321.811 197 327.651 215 320.561C221.03 316.331 225.53 310.831 228.5 304.061C229.17 301.061 229.17 298.061 228.5 295.061C225.55 290.781 223.55 286.121 222.5 281.061C217.86 276.851 212.36 274.691 206 274.561C194.3 273.581 183.63 276.421 174 283.061C173.56 283.131 173.23 282.961 173 282.561C181.41 274.021 191.41 268.021 203 264.561C229.42 256.931 255.75 257.261 282 265.561C285.16 266.971 288.16 268.641 291 270.561C295.38 274.611 300.05 278.271 305 281.561C306.71 282.941 308.05 284.601 309 286.561C308.41 287.021 307.74 287.191 307 287.061Z" fill="#FAFAFA"/>
<path fill-rule="evenodd" clip-rule="evenodd" d="M166 298.062C165.75 295.242 166.25 292.572 167.5 290.062C169.87 287.862 172.04 285.522 174 283.062C183.63 276.422 194.3 273.582 206 274.562C212.36 274.692 217.86 276.852 222.5 281.062C223.55 286.122 225.55 290.782 228.5 295.062C229.17 298.062 229.17 301.062 228.5 304.062C225.53 310.832 221.03 316.332 215 320.562C197 327.652 185.5 321.812 180.5 303.062C179.69 299.372 180.19 295.872 182 292.562C181.67 292.062 181.33 291.562 181 291.062C178.15 293.752 175.15 296.252 172 298.562C169.9 299.242 167.9 299.072 166 298.062Z" fill="#060606"/>
<path fill-rule="evenodd" clip-rule="evenodd" d="M306.999 287.061C309.929 288.811 312.759 290.811 315.499 293.061C316.109 295.061 315.609 296.721 313.999 298.061C308.879 297.171 304.209 295.171 299.999 292.061C299.129 300.841 296.289 309.181 291.499 317.061C288.589 319.601 285.429 321.761 281.999 323.561C256.609 325.481 247.109 313.981 253.499 289.061C258.349 277.521 266.849 273.021 278.999 275.561C285.239 277.851 291.569 279.851 297.999 281.561C301.359 282.901 304.359 284.741 306.999 287.061Z" fill="#040404"/>
<path fill-rule="evenodd" clip-rule="evenodd" d="M266.001 281.061C271.281 280.341 274.281 282.511 275.001 287.561C273.801 290.561 272.961 293.721 272.501 297.061C269.531 300.481 266.031 300.981 262.001 298.561C257.561 294.401 257.061 289.901 260.501 285.061C262.961 284.531 264.801 283.191 266.001 281.061Z" fill="#F3F3F3"/>
<path fill-rule="evenodd" clip-rule="evenodd" d="M210 282.061C215.94 282.001 218.94 285.001 219 291.061C218.58 296.811 215.58 300.481 210 302.061C202.52 298.671 201.02 293.341 205.5 286.061C206.9 284.491 208.4 283.161 210 282.061Z" fill="#F4F4F4"/>
<path fill-rule="evenodd" clip-rule="evenodd" d="M327 355.062C335.94 346.292 345.11 337.622 354.5 329.062C357.12 324.782 360.12 320.782 363.5 317.062C365.12 313.492 366.45 309.832 367.5 306.062C368.53 304.212 369.7 302.552 371 301.062C371.06 301.602 371.39 301.942 372 302.062C376.87 300.712 381.37 298.712 385.5 296.062C389.81 297.042 392.48 299.702 393.5 304.062C394.17 306.062 394.17 308.062 393.5 310.062C390.3 312.982 390.3 315.982 393.5 319.062C394.17 321.732 394.17 324.392 393.5 327.062C391.35 332.022 388.69 336.692 385.5 341.062C378.09 345.522 370.25 349.022 362 351.562C350.25 352.472 338.59 353.642 327 355.062Z" fill="#E0D0C9"/>
<path fill-rule="evenodd" clip-rule="evenodd" d="M253 326.062C255.85 325.912 257.52 327.252 258 330.062C256.2 334.152 253.53 337.652 250 340.562C246.91 341.212 243.91 340.882 241 339.562C238.45 338.122 235.78 336.952 233 336.062C230.23 332.462 231.23 330.462 236 330.062C239.27 331.092 242.43 332.432 245.5 334.062C248.68 332.042 251.18 329.372 253 326.062Z" fill="#0D0D0D"/>
<path fill-rule="evenodd" clip-rule="evenodd" d="M193 391.061C195.85 390.591 198.18 391.421 200 393.561C207.82 393.581 215.49 394.421 223 396.061C224.33 402.221 224.67 408.391 224 414.561C210.55 420.971 196.88 421.641 183 416.561C181.78 415.121 181.11 413.461 181 411.561C183.63 405.461 186.13 399.301 188.5 393.061C189.61 391.521 191.11 390.861 193 391.061Z" fill="#BE9D91"/>
<path fill-rule="evenodd" clip-rule="evenodd" d="M315.001 400.062C319.221 406.562 321.561 413.732 322.001 421.562C321.611 424.022 320.281 425.692 318.001 426.562C306.001 428.482 294.001 428.482 282.001 426.562C280.211 425.782 278.711 424.612 277.501 423.062C276.831 417.062 276.831 411.062 277.501 405.062C278.161 403.582 279.001 402.242 280.001 401.062C290.561 400.662 301.221 400.002 312.001 399.062C313.081 399.252 314.081 399.582 315.001 400.062Z" fill="#BF9D91"/>
</svg>
