<svg width="500" height="500" viewBox="0 0 500 500" fill="none" xmlns="http://www.w3.org/2000/svg">
<path fill-rule="evenodd" clip-rule="evenodd" d="M342.999 325.062C342.249 321.512 341.419 317.842 340.499 314.062C339.389 313.252 338.219 312.592 336.999 312.062C346.389 297.952 354.219 282.952 360.499 267.062C361.119 262.952 362.119 258.952 363.499 255.062C364.219 239.042 363.889 223.042 362.499 207.062C360.109 199.952 357.439 192.952 354.499 186.062C348.499 176.062 342.499 166.062 336.499 156.062C330.689 149.922 324.519 144.082 317.999 138.562C296.549 127.842 273.879 121.172 249.999 118.562C231.859 117.142 214.529 120.472 197.999 128.562C186.529 134.802 175.529 141.802 164.999 149.562C136.489 180.452 126.659 216.622 135.499 258.062C139.849 270.422 145.509 282.092 152.499 293.062C159.829 301.732 167.169 310.392 174.499 319.062C175.899 325.582 177.899 331.922 180.499 338.062C180.919 339.322 181.749 339.982 182.999 340.062C180.039 341.322 176.869 342.322 173.499 343.062C171.789 343.122 170.459 342.452 169.499 341.062C168.539 332.382 167.539 323.722 166.499 315.062C165.079 313.222 163.909 311.222 162.999 309.062C160.399 307.712 158.069 308.052 155.999 310.062C153.109 307.282 150.439 304.282 147.999 301.062C138.649 306.732 129.649 312.902 120.999 319.562C111.329 319.762 101.659 319.762 91.9993 319.562C81.1293 322.562 79.2993 328.402 86.4993 337.062C93.4493 342.282 101.279 344.782 109.999 344.562C111.709 345.692 112.209 347.192 111.499 349.062C110.499 350.392 109.499 351.732 108.499 353.062C106.499 361.392 108.329 368.552 113.999 374.562C122.189 378.102 128.349 375.932 132.499 368.062C133.169 366.732 133.829 365.392 134.499 364.062C134.829 358.062 135.169 352.062 135.499 346.062C141.939 340.932 148.439 335.932 154.999 331.062C156.489 333.502 157.489 336.172 157.999 339.062C153.089 341.962 148.419 345.292 143.999 349.062C145.189 364.522 139.189 376.022 125.999 383.562C113.449 385.352 105.289 380.182 101.499 368.062C100.079 362.462 99.9093 356.802 100.999 351.062C89.2693 349.622 80.7693 343.622 75.4993 333.062C74.0693 323.752 77.5693 316.922 85.9993 312.562C96.9993 312.232 107.999 311.892 118.999 311.562C123.819 307.402 129.159 304.072 134.999 301.562C138.419 299.182 141.419 296.352 143.999 293.062C133.389 277.022 126.889 259.352 124.499 240.062C123.609 220.572 126.109 201.572 131.999 183.062C124.589 175.822 116.419 169.492 107.499 164.062C99.1293 167.222 90.6293 167.722 81.9993 165.562C71.1193 159.232 67.9593 150.062 72.4993 138.062C78.5393 130.552 86.3693 127.212 95.9993 128.062C94.0793 115.962 97.7493 106.132 106.999 98.5618C121.759 95.6418 131.259 101.472 135.499 116.062C136.089 122.352 135.589 128.512 133.999 134.562C140.279 140.172 147.109 145.002 154.499 149.062C175.039 131.212 198.539 118.712 224.999 111.562C238.329 110.892 251.669 110.892 264.999 111.562C286.589 115.652 306.929 123.322 325.999 134.562C332.509 141.902 339.179 149.072 345.999 156.062C353.309 151.092 360.649 146.092 367.999 141.062C369.009 135.362 370.169 129.702 371.499 124.062C378.609 110.802 389.109 107.302 402.999 113.562C405.229 116.122 407.059 118.962 408.499 122.062C409.409 128.032 410.069 134.032 410.499 140.062C425.069 142.202 431.069 150.532 428.499 165.062C426.169 170.722 421.999 174.222 415.999 175.562C406.999 175.892 397.999 176.232 388.999 176.562C382.169 182.062 375.329 187.562 368.499 193.062C372.409 214.522 373.069 236.192 370.499 258.062C367.549 267.952 364.049 277.622 359.999 287.062C360.499 288.062 360.999 289.062 361.499 290.062C367.049 295.912 372.879 301.412 378.999 306.562C386.669 306.892 394.329 307.232 401.999 307.562C418.719 314.132 422.379 324.972 412.999 340.062C406.289 346.512 398.289 348.842 388.999 347.062C388.609 359.042 382.939 367.202 371.999 371.562C361.149 374.052 354.309 369.882 351.499 359.062C350.829 353.062 350.829 347.062 351.499 341.062C352.059 338.952 352.889 336.952 353.999 335.062C350.639 330.672 346.979 327.332 342.999 325.062Z" fill="#4C4C4C"/>
<path fill-rule="evenodd" clip-rule="evenodd" d="M112 104.062C123.1 105.502 128.44 111.832 128 123.062C127.49 128.122 126.99 133.122 126.5 138.062C133.6 144.332 141.1 150.002 149 155.062C143.84 161.382 139.17 168.042 135 175.062C127.14 168.702 119.14 162.542 111 156.562C104.76 157.162 98.5905 158.332 92.5005 160.062C80.1805 158.932 76.0105 152.432 80.0005 140.562C82.1005 138.792 84.4305 137.462 87.0005 136.562C92.5805 135.582 98.0805 134.412 103.5 133.062C101.86 124.702 102.86 116.702 106.5 109.062C108.31 107.262 110.15 105.592 112 104.062Z" fill="#E5E5E5"/>
<path fill-rule="evenodd" clip-rule="evenodd" d="M337 312.062C334 314.392 331.33 317.062 329 320.062C326.33 321.902 324.17 324.232 322.5 327.062C319.63 337.252 316.46 347.252 313 357.062C313 357.392 313 357.732 313 358.062C310.75 360.382 309.42 363.212 309 366.562C303.12 368.782 297.45 368.452 292 365.562C291.21 362.482 290.71 359.322 290.5 356.062C288.69 354.162 286.53 353.662 284 354.562C283.36 359.012 282.69 363.512 282 368.062C274.37 372.972 266.54 373.302 258.5 369.062C258.17 364.392 257.83 359.732 257.5 355.062C255.67 351.522 253.34 351.192 250.5 354.062C250.17 358.392 249.83 362.732 249.5 367.062C246.33 369.812 242.66 371.482 238.5 372.062C233.11 371.532 228.11 369.862 223.5 367.062C222.49 362.222 221.65 357.392 221 352.562C218.47 351.662 216.31 352.162 214.5 354.062C214.3 358.312 213.8 362.482 213 366.562C207.18 368.762 201.51 368.422 196 365.562C191.22 361.982 187.89 357.482 186 352.062C193.61 348.262 201.27 344.422 209 340.562C216.76 341.262 223.26 338.762 228.5 333.062C229.14 331.292 228.97 329.632 228 328.062C228.92 327.582 229.92 327.252 231 327.062C251.58 330.252 271.91 329.082 292 323.562C303.05 320.122 311.22 313.292 316.5 303.062C320.03 294.622 321.53 285.952 321 277.062C323.63 277.272 325.29 276.102 326 273.562C324.6 271.032 322.6 269.202 320 268.062C320.44 268.132 320.77 267.962 321 267.562C316.01 261.272 311.01 254.932 306 248.562C292.68 241.312 278.35 237.312 263 236.562C245.88 235.542 228.88 236.542 212 239.562C204.5 244.812 196.84 249.812 189 254.562C189.59 255.022 190.26 255.192 191 255.062C184.54 258.002 179.04 262.342 174.5 268.062C173.69 270.462 173.85 272.802 175 275.062C176.24 275.812 177.57 276.142 179 276.062C178.83 282.072 179 288.072 179.5 294.062C185.91 305.142 194.41 314.302 205 321.562C204.33 321.892 203.67 322.232 203 322.562C204.56 322.772 205.89 323.272 207 324.062C205.36 323.852 203.86 324.182 202.5 325.062C201.77 327.792 201.94 330.462 203 333.062C196.5 335.892 189.83 338.232 183 340.062C181.75 339.982 180.92 339.322 180.5 338.062C177.9 331.922 175.9 325.582 174.5 319.062C167.17 310.392 159.83 301.732 152.5 293.062C145.51 282.092 139.85 270.422 135.5 258.062C126.66 216.622 136.49 180.452 165 149.562C175.53 141.802 186.53 134.802 198 128.562C214.53 120.472 231.86 117.142 250 118.562C273.88 121.172 296.55 127.842 318 138.562C324.52 144.082 330.69 149.922 336.5 156.062C342.5 166.062 348.5 176.062 354.5 186.062C357.44 192.952 360.11 199.952 362.5 207.062C363.89 223.042 364.22 239.042 363.5 255.062C362.12 258.952 361.12 262.952 360.5 267.062C354.22 282.952 346.39 297.952 337 312.062Z" fill="#E5E5E5"/>
<path fill-rule="evenodd" clip-rule="evenodd" d="M387 118.062C393.4 116.612 398.23 118.612 401.5 124.062C401.83 130.732 402.17 137.392 402.5 144.062C406.85 147.032 411.68 148.862 417 149.562C421.58 153.002 423.08 157.502 421.5 163.062C419.54 165.702 417.04 167.532 414 168.562C404.67 168.892 395.33 169.232 386 169.562C378.83 175.392 371.67 181.232 364.5 187.062C359.07 179.452 354.24 171.452 350 163.062C357.98 157.432 365.98 151.762 374 146.062C375.84 138.382 378.01 130.712 380.5 123.062C382.83 121.492 384.99 119.832 387 118.062Z" fill="#E5E5E5"/>
<path fill-rule="evenodd" clip-rule="evenodd" d="M210 152.062C228.18 150.072 236.68 158.072 235.5 176.062C229.85 189.052 220.35 197.882 207 202.562C203.33 203.232 199.67 203.232 196 202.562C185.49 198.722 181.33 191.222 183.5 180.062C190.15 168.582 198.98 159.252 210 152.062Z" fill="#4C4C4C"/>
<path fill-rule="evenodd" clip-rule="evenodd" d="M285 155.062C290.55 154.652 295.88 155.482 301 157.562C308.59 163.152 314.76 169.982 319.5 178.062C324.58 196.602 317.75 206.432 299 207.562C281.68 198.592 273.18 184.432 273.5 165.062C275.71 159.672 279.54 156.342 285 155.062Z" fill="#4C4C4C"/>
<path fill-rule="evenodd" clip-rule="evenodd" d="M246 199.062C250.63 198.682 254.96 199.512 259 201.562C262.21 204.772 263.38 208.602 262.5 213.062C257.94 217.382 254.1 216.722 251 211.062C249.14 212.752 247.14 214.252 245 215.562C239 216.552 236.83 214.052 238.5 208.062C240.14 204.262 242.64 201.262 246 199.062Z" fill="#4C4C4C"/>
<path fill-rule="evenodd" clip-rule="evenodd" d="M319.999 268.062C316.039 264.742 311.699 261.912 306.999 259.562C300.489 258.172 294.159 256.172 287.999 253.562C275.479 251.242 266.979 256.072 262.499 268.062C256.109 292.992 265.609 304.492 290.999 302.562C294.429 300.762 297.589 298.602 300.499 296.062C302.829 291.392 305.169 286.732 307.499 282.062C308.799 278.412 309.299 274.752 308.999 271.062C312.789 273.622 316.789 275.622 320.999 277.062C321.529 285.952 320.029 294.622 316.499 303.062C311.219 313.292 303.049 320.122 291.999 323.562C271.909 329.082 251.579 330.252 230.999 327.062C229.919 327.252 228.919 327.582 227.999 328.062C225.769 328.182 223.599 327.852 221.499 327.062C220.169 327.732 218.829 328.392 217.499 329.062C213.599 328.062 210.099 326.392 206.999 324.062C205.889 323.272 204.559 322.772 202.999 322.562C203.669 322.232 204.329 321.892 204.999 321.562C194.409 314.302 185.909 305.142 179.499 294.062C178.999 288.072 178.829 282.072 178.999 276.062C182.619 273.612 186.119 270.942 189.499 268.062C188.079 276.472 189.409 284.472 193.499 292.062C202.149 301.762 212.319 303.602 223.999 297.562C230.299 293.122 234.799 287.292 237.499 280.062C238.169 277.732 238.169 275.392 237.499 273.062C234.989 269.032 233.319 264.702 232.499 260.062C229.029 255.072 224.199 252.242 217.999 251.562C208.609 250.142 199.609 251.302 190.999 255.062C190.259 255.192 189.589 255.022 188.999 254.562C196.839 249.812 204.499 244.812 211.999 239.562C228.879 236.542 245.879 235.542 262.999 236.562C278.349 237.312 292.679 241.312 305.999 248.562C311.009 254.932 316.009 261.272 320.999 267.562C320.769 267.962 320.439 268.132 319.999 268.062Z" fill="#FBFBFB"/>
<path fill-rule="evenodd" clip-rule="evenodd" d="M179 276.062C177.57 276.142 176.24 275.812 175 275.062C173.85 272.802 173.69 270.462 174.5 268.062C179.04 262.342 184.54 258.002 191 255.062C199.61 251.302 208.61 250.142 218 251.562C224.2 252.242 229.03 255.072 232.5 260.062C233.32 264.702 234.99 269.032 237.5 273.062C238.17 275.392 238.17 277.732 237.5 280.062C234.8 287.292 230.3 293.122 224 297.562C212.32 303.602 202.15 301.762 193.5 292.062C189.41 284.472 188.08 276.472 189.5 268.062C186.12 270.942 182.62 273.612 179 276.062Z" fill="#060606"/>
<path fill-rule="evenodd" clip-rule="evenodd" d="M319.999 268.062C322.599 269.202 324.599 271.032 325.999 273.562C325.289 276.102 323.629 277.272 320.999 277.062C316.789 275.622 312.789 273.622 308.999 271.062C309.299 274.752 308.799 278.412 307.499 282.062C305.169 286.732 302.829 291.392 300.499 296.062C297.589 298.602 294.429 300.762 290.999 302.562C265.609 304.492 256.109 292.992 262.499 268.062C266.979 256.072 275.479 251.242 287.999 253.562C294.159 256.172 300.489 258.172 306.999 259.562C311.699 261.912 316.039 264.742 319.999 268.062Z" fill="#060606"/>
<path fill-rule="evenodd" clip-rule="evenodd" d="M217 260.062C223.84 258.172 227.51 260.672 228 267.562C227.76 273.892 224.6 277.722 218.5 279.062C214.26 277.822 211.76 274.982 211 270.562C212.35 266.692 214.35 263.192 217 260.062Z" fill="#F4F4F4"/>
<path fill-rule="evenodd" clip-rule="evenodd" d="M276 259.062C281.17 258.572 283.84 260.902 284 266.062C284.74 276.172 280.41 279.672 271 276.562C269.86 273.932 268.53 271.432 267 269.062C267.22 267.622 267.72 266.292 268.5 265.062C271.15 263.142 273.65 261.142 276 259.062Z" fill="#F3F3F3"/>
<path fill-rule="evenodd" clip-rule="evenodd" d="M355 295.062C361.75 300.632 368.42 306.472 375 312.562C383.27 313.762 391.61 314.432 400 314.562C403.88 316.242 407.05 318.742 409.5 322.062C412.02 329.832 409.52 335.332 402 338.562C395.68 339.062 389.34 339.232 383 339.062C382.93 346.772 380.93 353.942 377 360.562C365.06 368.592 358.73 365.432 358 351.062C358.89 344.262 360.06 337.592 361.5 331.062C355.79 325.182 349.96 319.522 344 314.062C348.15 307.932 351.82 301.602 355 295.062Z" fill="#E5E5E5"/>
<path fill-rule="evenodd" clip-rule="evenodd" d="M156 310.062C156.32 317.252 155.99 324.252 155 331.062C148.44 335.932 141.94 340.932 135.5 346.062C135.17 352.062 134.83 358.062 134.5 364.062C133.83 365.392 133.17 366.732 132.5 368.062C128.35 375.932 122.19 378.102 114 374.562C108.33 368.552 106.5 361.392 108.5 353.062C109.5 351.732 110.5 350.392 111.5 349.062C112.21 347.192 111.71 345.692 110 344.562C101.28 344.782 93.4503 342.282 86.5003 337.062C79.3003 328.402 81.1303 322.562 92.0003 319.562C101.66 319.762 111.33 319.762 121 319.562C129.65 312.902 138.65 306.732 148 301.062C150.44 304.282 153.11 307.282 156 310.062Z" fill="#E5E5E5"/>
<path fill-rule="evenodd" clip-rule="evenodd" d="M261 305.062C263.78 304.582 265.78 305.582 267 308.062C264.71 312.822 261.38 316.652 257 319.562C254.59 320.042 252.25 319.712 250 318.562C246.88 316.592 243.72 314.752 240.5 313.062C239.26 309.652 240.43 307.992 244 308.062C246.73 308.922 249.4 310.092 252 311.562C253.33 312.232 254.67 312.232 256 311.562C257.55 309.272 259.22 307.112 261 305.062Z" fill="#0C0C0C"/>
<path fill-rule="evenodd" clip-rule="evenodd" d="M183 340.062C189.83 338.232 196.5 335.892 203 333.062C201.94 330.462 201.77 327.792 202.5 325.062C203.86 324.182 205.36 323.852 207 324.062C210.1 326.392 213.6 328.062 217.5 329.062C218.83 328.392 220.17 327.732 221.5 327.062C223.6 327.852 225.77 328.182 228 328.062C228.97 329.632 229.14 331.292 228.5 333.062C223.26 338.762 216.76 341.262 209 340.562C201.27 344.422 193.61 348.262 186 352.062C183.33 352.392 180.67 352.732 178 353.062C166.66 354.742 159.99 350.082 158 339.062C157.49 336.172 156.49 333.502 155 331.062C155.99 324.252 156.32 317.252 156 310.062C158.07 308.052 160.4 307.712 163 309.062C163.91 311.222 165.08 313.222 166.5 315.062C167.54 323.722 168.54 332.382 169.5 341.062C170.46 342.452 171.79 343.122 173.5 343.062C176.87 342.322 180.04 341.322 183 340.062Z" fill="#242424"/>
<path fill-rule="evenodd" clip-rule="evenodd" d="M337 312.062C338.22 312.592 339.39 313.252 340.5 314.062C341.42 317.842 342.25 321.512 343 325.062C346.27 331.692 347.77 338.692 347.5 346.062C342.05 351.712 335.55 355.712 328 358.062C335.34 358.992 336.68 362.162 332 367.562C327.53 369.622 323.19 369.452 319 367.062C316.75 364.232 314.75 361.232 313 358.062C313 357.732 313 357.392 313 357.062C315.37 354.682 318.04 352.522 321 350.562C325.88 348.542 330.71 346.372 335.5 344.062C333.96 335.882 331.79 327.882 329 320.062C331.33 317.062 334 314.392 337 312.062Z" fill="#252525"/>
<path fill-rule="evenodd" clip-rule="evenodd" d="M329 320.062C331.79 327.882 333.96 335.882 335.5 344.062C330.71 346.372 325.88 348.542 321 350.562C318.04 352.522 315.37 354.682 313 357.062C316.46 347.252 319.63 337.252 322.5 327.062C324.17 324.232 326.33 321.902 329 320.062Z" fill="#585858"/>
<path fill-rule="evenodd" clip-rule="evenodd" d="M186 352.062C187.89 357.482 191.22 361.982 196 365.562C201.51 368.422 207.18 368.762 213 366.562C213.8 362.482 214.3 358.312 214.5 354.062C216.31 352.162 218.47 351.662 221 352.562C221.65 357.392 222.49 362.222 223.5 367.062C228.11 369.862 233.11 371.532 238.5 372.062C242.66 371.482 246.33 369.812 249.5 367.062C249.83 362.732 250.17 358.392 250.5 354.062C253.34 351.192 255.67 351.522 257.5 355.062C257.83 359.732 258.17 364.392 258.5 369.062C266.54 373.302 274.37 372.972 282 368.062C282.69 363.512 283.36 359.012 284 354.562C286.53 353.662 288.69 354.162 290.5 356.062C290.71 359.322 291.21 362.482 292 365.562C297.45 368.452 303.12 368.782 309 366.562C309.42 363.212 310.75 360.382 313 358.062C314.75 361.232 316.75 364.232 319 367.062C317.72 369.432 316.05 371.592 314 373.562C307.33 375.062 300.66 375.232 294 374.062C292.69 379.552 292.69 384.882 294 390.062C293.94 390.602 293.61 390.942 293 391.062C292.17 384.752 291.67 378.422 291.5 372.062C289.04 376.052 285.54 378.712 281 380.062C270.74 381.302 261.07 379.632 252 375.062C248.97 375.922 246.31 377.422 244 379.562C241.85 380.142 239.68 380.642 237.5 381.062C231.96 379.892 226.79 377.892 222 375.062C220.23 374.302 218.4 373.642 216.5 373.062C214.18 374.432 211.68 375.102 209 375.062C209.3 377.622 208.97 379.952 208 382.062C208 379.732 208 377.392 208 375.062C197.32 375.892 188.49 372.232 181.5 364.062C180.48 360.322 179.32 356.652 178 353.062C180.67 352.732 183.33 352.392 186 352.062Z" fill="#4D4D4D"/>
<path fill-rule="evenodd" clip-rule="evenodd" d="M222 375.062C221.3 381.772 221.13 388.432 221.5 395.062C219.67 396.892 217.83 398.732 216 400.562C210.36 401.632 204.69 401.972 199 401.562C193.39 399.702 192.06 396.372 195 391.562C199.32 391.062 203.65 390.892 208 391.062C208 388.062 208 385.062 208 382.062C208.97 379.952 209.3 377.622 209 375.062C211.68 375.102 214.18 374.432 216.5 373.062C218.4 373.642 220.23 374.302 222 375.062Z" fill="#242424"/>
<path fill-rule="evenodd" clip-rule="evenodd" d="M294.001 390.062C302.821 388.052 306.651 391.392 305.501 400.062C304.751 400.692 303.921 401.192 303.001 401.562C297.331 402.232 291.671 402.232 286.001 401.562C284.831 400.392 283.671 399.232 282.501 398.062C281.431 392.112 280.931 386.112 281.001 380.062C285.541 378.712 289.041 376.052 291.501 372.062C291.671 378.422 292.171 384.752 293.001 391.062C293.611 390.942 293.941 390.602 294.001 390.062Z" fill="#242424"/>
</svg>
