<svg width="500" height="500" viewBox="0 0 500 500" fill="none" xmlns="http://www.w3.org/2000/svg">
<path fill-rule="evenodd" clip-rule="evenodd" d="M328 327.062C330.21 323.272 331.71 319.272 332.5 315.062C326.91 318.612 321.07 321.772 315 324.562C313.56 325.342 312.22 325.172 311 324.062C321.08 307.902 328.41 290.572 333 272.062C336.5 272.642 339.83 273.642 343 275.062C340.63 284.002 337.8 292.662 334.5 301.062C351.87 284.982 361.2 264.982 362.5 241.062C363.29 228.312 362.96 215.642 361.5 203.062C365.26 209.262 367.93 215.922 369.5 223.062C374.14 253.462 367.14 280.792 348.5 305.062C346.4 312.682 343.9 320.182 341 327.562C341.35 328.822 342.02 329.152 343 328.562C365.16 310.752 377.16 287.582 379 259.062C381.73 264.622 384.23 270.292 386.5 276.062C391.44 258.342 391.11 240.682 385.5 223.062C379.83 204.032 373.83 185.032 367.5 166.062C357.53 142.432 341.03 124.932 318 113.562C299.38 105.172 279.88 100.342 259.5 99.0615C248.65 99.7115 237.82 100.542 227 101.562C207.43 103.322 189.1 108.982 172 118.562C169.17 120.812 166.17 122.812 163 124.562C163.23 124.962 163.56 125.132 164 125.062C152.04 130.012 144.38 138.682 141 151.062C118.89 183.152 108.72 218.822 110.5 258.062C111.72 264.022 112.72 270.022 113.5 276.062C114.83 269.422 116.17 262.762 117.5 256.062C118.24 254.342 119.07 252.672 120 251.062C121.9 262.822 124.4 274.492 127.5 286.062C133.22 302.122 142.55 315.792 155.5 327.062C152.21 314.292 149.55 301.292 147.5 288.062C129.06 261.752 124.39 233.082 133.5 202.062C133.94 199.282 135.44 198.112 138 198.562C134.75 225.442 139.75 250.612 153 274.062C153.37 276.512 154.87 277.512 157.5 277.062C160.94 276.922 163.77 275.592 166 273.062C170.01 288.422 175.01 303.422 181 318.062C175.56 317.092 171.06 314.422 167.5 310.062C167.1 315.782 168.26 321.112 171 326.062C170.4 326.302 170.07 326.802 170 327.562C171.33 332.572 172.67 337.572 174 342.562C173.36 345.852 171.36 346.852 168 345.562C146.58 335.642 130.58 320.142 120 299.062C119.32 302.442 117.65 305.102 115 307.062C111.99 304.202 109.49 300.872 107.5 297.062C99.5599 277.502 95.8999 257.172 96.4999 236.062C100.31 207.282 108.98 179.952 122.5 154.062C140.89 120.762 168.72 99.9315 206 91.5615C238.5 84.9715 270.83 85.6415 303 93.5615C338.53 105.412 365.03 127.912 382.5 161.062C397.23 192.922 404.06 226.422 403 261.562C402.79 278.732 398.29 294.562 389.5 309.062C388.24 311.172 386.4 312.172 384 312.062C384.32 308.332 383.99 304.672 383 301.062C375.7 313.212 367.03 324.372 357 334.562C345.31 343.412 332.31 349.572 318 353.062C317.84 351.692 318.01 350.352 318.5 349.062C322 341.882 325.5 334.712 329 327.562C328.77 327.162 328.44 326.992 328 327.062Z" fill="#8186C1"/>
<path fill-rule="evenodd" clip-rule="evenodd" d="M343 275.062C347.48 274.742 348.98 272.402 347.5 268.062C347.12 267.502 346.62 267.172 346 267.062C347.77 251.772 348.27 236.442 347.5 221.062C343.53 202.192 338.03 184.192 331 167.062C335.66 169.732 339.99 172.902 344 176.562C348.77 177.922 352.27 176.422 354.5 172.062C356.44 158.242 352.61 146.082 343 135.562C332.36 126.472 320.69 124.812 308 130.562C306.54 133.022 304.71 135.192 302.5 137.062C300.5 140.062 300.5 143.062 302.5 146.062C306.75 149.272 311.25 152.102 316 154.562C318.91 157.982 322.25 160.812 326 163.062C327.44 179.072 327.27 195.072 325.5 211.062C322.7 222.322 317.53 232.322 310 241.062C307.31 226.632 304.14 212.292 300.5 198.062C298.57 193.802 296.23 189.802 293.5 186.062C292.85 158.732 289.85 158.402 284.5 185.062C278.98 199.782 271.64 213.442 262.5 226.062C258.74 230.492 254.41 234.162 249.5 237.062C245.6 235.172 242.27 232.502 239.5 229.062C233.5 221.732 227.5 214.392 221.5 207.062C213.87 193.512 208.21 179.182 204.5 164.062C203.79 162.592 202.62 161.922 201 162.062C201.17 171.402 201 180.732 200.5 190.062C192.77 203.642 188.77 218.302 188.5 234.062C177.78 212.312 171.28 189.312 169 165.062C176.91 157.762 185.91 151.922 196 147.562C199.76 143.532 199.92 139.362 196.5 135.062C187.25 126.692 176.42 123.362 164 125.062C163.56 125.132 163.23 124.962 163 124.562C166.17 122.812 169.17 120.812 172 118.562C189.1 108.982 207.43 103.322 227 101.562C237.82 100.542 248.65 99.7115 259.5 99.0615C279.88 100.342 299.38 105.172 318 113.562C341.03 124.932 357.53 142.432 367.5 166.062C373.83 185.032 379.83 204.032 385.5 223.062C391.11 240.682 391.44 258.342 386.5 276.062C384.23 270.292 381.73 264.622 379 259.062C377.16 287.582 365.16 310.752 343 328.562C342.02 329.152 341.35 328.822 341 327.562C343.9 320.182 346.4 312.682 348.5 305.062C367.14 280.792 374.14 253.462 369.5 223.062C367.93 215.922 365.26 209.262 361.5 203.062C362.96 215.642 363.29 228.312 362.5 241.062C361.2 264.982 351.87 284.982 334.5 301.062C337.8 292.662 340.63 284.002 343 275.062Z" fill="#AFB5E7"/>
<path fill-rule="evenodd" clip-rule="evenodd" d="M164 125.062C176.42 123.362 187.25 126.692 196.5 135.062C199.92 139.362 199.76 143.532 196 147.562C185.91 151.922 176.91 157.762 169 165.062C165.63 167.742 162.29 170.402 159 173.062C147.4 183.202 141.23 180.542 140.5 165.062C139.85 160.362 140.02 155.692 141 151.062C144.38 138.682 152.04 130.012 164 125.062Z" fill="#272728"/>
<path fill-rule="evenodd" clip-rule="evenodd" d="M331 167.062C329.56 165.502 327.89 164.162 326 163.062C322.25 160.812 318.91 157.982 316 154.562C311.25 152.102 306.75 149.272 302.5 146.062C300.5 143.062 300.5 140.062 302.5 137.062C304.71 135.192 306.54 133.022 308 130.562C320.69 124.812 332.36 126.472 343 135.562C352.61 146.082 356.44 158.242 354.5 172.062C352.27 176.422 348.77 177.922 344 176.562C339.99 172.902 335.66 169.732 331 167.062Z" fill="#292929"/>
<path fill-rule="evenodd" clip-rule="evenodd" d="M170.999 131.062C178.809 131.482 185.149 134.652 189.999 140.562C180.609 147.092 171.269 153.932 161.999 161.062C160.669 158.732 160.669 156.392 161.999 154.062C165.309 151.922 168.469 149.592 171.499 147.062C172.179 141.692 172.009 136.362 170.999 131.062Z" fill="#F4F4F4"/>
<path fill-rule="evenodd" clip-rule="evenodd" d="M163 133.062C164.28 134.252 164.94 135.922 165 138.062C164.83 139.732 164.67 141.392 164.5 143.062C161.42 145.522 158.26 147.852 155 150.062C153.71 155.372 153.71 160.712 155 166.062C153.67 168.222 151.83 169.892 149.5 171.062C143.53 154.302 148.03 141.632 163 133.062Z" fill="#F1F1F1"/>
<path fill-rule="evenodd" clip-rule="evenodd" d="M319 133.062C321.09 132.882 323.09 133.212 325 134.062C324.95 138.672 325.29 143.342 326 148.062C328.44 149.362 330.6 151.032 332.5 153.062C333.3 154.822 333.13 156.492 332 158.062C323.65 152.882 315.65 147.222 308 141.062C310.85 137.152 314.51 134.482 319 133.062Z" fill="#F3F3F3"/>
<path fill-rule="evenodd" clip-rule="evenodd" d="M333 137.062C345.24 143.892 349.57 154.222 346 168.062C343.92 166.272 341.76 164.612 339.5 163.062C339.25 158.712 339.25 154.372 339.5 150.062C337.67 148.482 335.67 147.152 333.5 146.062C333 143.082 332.84 140.082 333 137.062Z" fill="#F2F2F3"/>
<path fill-rule="evenodd" clip-rule="evenodd" d="M141 151.062C140.02 155.692 139.85 160.362 140.5 165.062C141.23 180.542 147.4 183.202 159 173.062C160.16 180.552 160.32 188.222 159.5 196.062C152.26 218.782 150.76 241.782 155 265.062C153.37 267.812 152.71 270.812 153 274.062C139.75 250.612 134.75 225.442 138 198.562C135.44 198.112 133.94 199.282 133.5 202.062C124.39 233.082 129.06 261.752 147.5 288.062C149.55 301.292 152.21 314.292 155.5 327.062C142.55 315.792 133.22 302.122 127.5 286.062C124.4 274.492 121.9 262.822 120 251.062C119.07 252.672 118.24 254.342 117.5 256.062C116.17 262.762 114.83 269.422 113.5 276.062C112.72 270.022 111.72 264.022 110.5 258.062C108.72 218.822 118.89 183.152 141 151.062Z" fill="#AFB5E7"/>
<path fill-rule="evenodd" clip-rule="evenodd" d="M325.999 163.062C327.889 164.162 329.559 165.502 330.999 167.062C338.029 184.192 343.529 202.192 347.499 221.062C348.269 236.442 347.769 251.772 345.999 267.062C342.279 265.212 338.949 262.872 335.999 260.062C337.849 249.802 338.349 239.472 337.499 229.062C337.399 226.942 336.569 225.272 334.999 224.062C329.809 233.782 324.149 243.122 317.999 252.062C310.379 249.242 302.709 246.912 294.999 245.062C295.999 245.062 296.999 245.062 297.999 245.062C297.139 232.572 294.299 220.572 289.499 209.062C281.599 223.962 271.769 237.462 259.999 249.562C257.409 251.772 254.569 253.612 251.499 255.062C242.039 250.282 233.709 243.942 226.499 236.062C219.449 227.342 212.779 218.342 206.499 209.062C204.409 212.412 203.079 216.072 202.499 220.062C201.119 228.012 200.289 236.012 199.999 244.062C193.189 243.372 186.859 244.702 180.999 248.062C175.669 239.402 170.829 230.402 166.499 221.062C164.229 232.602 163.399 244.272 163.999 256.062C161.359 259.372 158.359 262.372 154.999 265.062C150.759 241.782 152.259 218.782 159.499 196.062C160.319 188.222 160.159 180.552 158.999 173.062C162.289 170.402 165.629 167.742 168.999 165.062C171.279 189.312 177.779 212.312 188.499 234.062C188.769 218.302 192.769 203.642 200.499 190.062C200.999 180.732 201.169 171.402 200.999 162.062C202.619 161.922 203.789 162.592 204.499 164.062C208.209 179.182 213.869 193.512 221.499 207.062C227.499 214.392 233.499 221.732 239.499 229.062C242.269 232.502 245.599 235.172 249.499 237.062C254.409 234.162 258.739 230.492 262.499 226.062C271.639 213.442 278.979 199.782 284.499 185.062C289.849 158.402 292.849 158.732 293.499 186.062C296.229 189.802 298.569 193.802 300.499 198.062C304.139 212.292 307.309 226.632 309.999 241.062C317.529 232.322 322.699 222.322 325.499 211.062C327.269 195.072 327.439 179.072 325.999 163.062Z" fill="#8287C2"/>
<path fill-rule="evenodd" clip-rule="evenodd" d="M295 245.062C290.99 244.892 286.99 245.062 283 245.562C277.82 248.242 273.82 252.082 271 257.062C262.2 271.552 262.03 286.222 270.5 301.062C282.29 310.772 295.12 312.612 309 306.562C311.8 304.772 314.3 302.602 316.5 300.062C319.9 293.932 322.73 287.602 325 281.062C326.13 279.502 326.8 277.672 327 275.562C324.9 266.922 326.9 265.752 333 272.062C328.41 290.572 321.08 307.902 311 324.062C312.22 325.172 313.56 325.342 315 324.562C321.07 321.772 326.91 318.612 332.5 315.062C331.71 319.272 330.21 323.272 328 327.062C320.82 329.992 313.82 333.492 307 337.562C299 339.232 291 340.892 283 342.562C281.38 342.802 280.38 343.632 280 345.062C275.47 344.672 270.81 344.672 266 345.062C255.33 345.062 244.67 345.062 234 345.062C231.24 343.512 228.74 343.852 226.5 346.062C226.13 345.142 225.63 344.312 225 343.562C223.03 343.062 221.03 342.902 219 343.062C210.47 342.642 202.14 341.142 194 338.562C185.99 334.892 178.32 330.722 171 326.062C168.26 321.112 167.1 315.782 167.5 310.062C171.06 314.422 175.56 317.092 181 318.062C175.01 303.422 170.01 288.422 166 273.062C167.74 271.012 169.74 269.182 172 267.562C173.32 267.032 173.98 267.532 174 269.062C169.27 286.182 174.61 299.352 190 308.562C204.53 311.942 216.7 308.102 226.5 297.062C228.8 292.442 231.47 288.112 234.5 284.062C235.17 280.062 235.17 276.062 234.5 272.062C232.03 267.452 229.86 262.782 228 258.062C227.26 253.772 224.93 250.602 221 248.562C214.26 245.812 207.26 244.312 200 244.062C200.29 236.012 201.12 228.012 202.5 220.062C203.08 216.072 204.41 212.412 206.5 209.062C212.78 218.342 219.45 227.342 226.5 236.062C233.71 243.942 242.04 250.282 251.5 255.062C254.57 253.612 257.41 251.772 260 249.562C271.77 237.462 281.6 223.962 289.5 209.062C294.3 220.572 297.14 232.572 298 245.062C297 245.062 296 245.062 295 245.062Z" fill="#FBFAFB"/>
<path fill-rule="evenodd" clip-rule="evenodd" d="M181 248.062C174.95 249.922 169.28 252.592 164 256.062C163.4 244.272 164.23 232.602 166.5 221.062C170.83 230.402 175.67 239.402 181 248.062Z" fill="#F7F8FA"/>
<path fill-rule="evenodd" clip-rule="evenodd" d="M336 260.062C330.75 255.772 324.75 253.102 318 252.062C324.15 243.122 329.81 233.782 335 224.062C336.57 225.272 337.4 226.942 337.5 229.062C338.35 239.472 337.85 249.802 336 260.062Z" fill="#F9F9FA"/>
<path fill-rule="evenodd" clip-rule="evenodd" d="M200 244.061C207.26 244.311 214.26 245.811 221 248.561C224.93 250.601 227.26 253.771 228 258.061C211.5 251.831 195.5 252.991 180 261.561C177.35 263.691 175.35 266.191 174 269.061C173.98 267.531 173.32 267.031 172 267.561C169.74 269.181 167.74 271.011 166 273.061C163.77 275.591 160.94 276.921 157.5 277.061C154.87 277.511 153.37 276.511 153 274.061C152.71 270.811 153.37 267.811 155 265.061C158.36 262.371 161.36 259.371 164 256.061C169.28 252.591 174.95 249.921 181 248.061C186.86 244.701 193.19 243.371 200 244.061Z" fill="#060505"/>
<path fill-rule="evenodd" clip-rule="evenodd" d="M295 245.061C302.71 246.911 310.38 249.241 318 252.061C324.75 253.101 330.75 255.771 336 260.061C338.95 262.871 342.28 265.211 346 267.061C346.62 267.171 347.12 267.501 347.5 268.061C348.98 272.401 347.48 274.741 343 275.061C339.83 273.641 336.5 272.641 333 272.061C326.9 265.751 324.9 266.921 327 275.561C326.8 277.671 326.13 279.501 325 281.061C325.33 276.021 324.99 271.021 324 266.061C312.83 259.471 300.83 255.141 288 253.061C286.13 253.071 284.46 253.401 283 254.061C278.69 253.891 274.69 254.891 271 257.061C273.82 252.081 277.82 248.241 283 245.561C286.99 245.061 290.99 244.891 295 245.061Z" fill="#080606"/>
<path fill-rule="evenodd" clip-rule="evenodd" d="M228.001 258.062C229.861 262.782 232.031 267.452 234.501 272.062C235.171 276.062 235.171 280.062 234.501 284.062C231.471 288.112 228.801 292.442 226.501 297.062C216.701 308.102 204.531 311.942 190.001 308.562C174.611 299.352 169.271 286.182 174.001 269.062C175.351 266.192 177.351 263.692 180.001 261.562C195.501 252.992 211.501 251.832 228.001 258.062Z" fill="#5F1615"/>
<path fill-rule="evenodd" clip-rule="evenodd" d="M325 281.062C322.73 287.602 319.9 293.932 316.5 300.062C314.3 302.602 311.8 304.772 309 306.562C295.12 312.612 282.29 310.772 270.5 301.062C262.03 286.222 262.2 271.552 271 257.062C274.69 254.892 278.69 253.892 283 254.062C284.46 253.402 286.13 253.072 288 253.062C300.83 255.142 312.83 259.472 324 266.062C324.99 271.022 325.33 276.022 325 281.062Z" fill="#5F1615"/>
<path fill-rule="evenodd" clip-rule="evenodd" d="M283 254.062C289.57 252.832 293.57 255.332 295 261.562C293.71 265.612 292.87 269.782 292.5 274.062C285.44 279.632 279.44 278.632 274.5 271.062C272.5 267.732 272.5 264.392 274.5 261.062C277.24 258.462 280.07 256.132 283 254.062Z" fill="#F8F4F4"/>
<path fill-rule="evenodd" clip-rule="evenodd" d="M210 255.062C221.37 256.112 224.87 262.112 220.5 273.062C210.56 285.042 204.06 283.372 201 268.062C202.38 262.592 205.38 258.252 210 255.062Z" fill="#FAF4F4"/>
<path fill-rule="evenodd" clip-rule="evenodd" d="M266 313.062C270.85 312.522 273.02 314.522 272.5 319.062C269.32 324.572 265.16 329.072 260 332.562C257.59 333.042 255.25 332.712 253 331.562C248.02 329.152 243.18 326.652 238.5 324.062C237.72 320.332 239.22 318.002 243 317.062C247.88 318.622 252.55 320.622 257 323.062C260.46 320.152 263.46 316.822 266 313.062Z" fill="#0E0E0E"/>
<path fill-rule="evenodd" clip-rule="evenodd" d="M219 343.062C221.03 342.902 223.03 343.062 225 343.562C225.63 344.312 226.13 345.142 226.5 346.062C228.74 343.852 231.24 343.512 234 345.062C233.87 346.782 233.54 348.442 233 350.062C231.11 354.252 228.45 354.922 225 352.062C223.45 353.242 221.79 354.242 220 355.062C222.36 357.252 224.86 359.252 227.5 361.062C227.91 366.082 228.41 371.082 229 376.062C229 377.732 229 379.392 229 381.062C230.64 383.042 232.31 385.042 234 387.062C232.85 388.292 231.68 388.292 230.5 387.062C229.72 389.472 230.55 391.132 233 392.062C230.25 394.632 230.41 396.962 233.5 399.062C237.67 395.952 241.17 396.452 244 400.562C244.95 401.042 245.95 401.212 247 401.062C248.89 391.892 249.56 382.732 249 373.562C250.87 372.852 252.37 373.352 253.5 375.062C253.81 378.152 253.31 381.152 252 384.062C253.23 390.642 255.23 396.972 258 403.062C262.87 399.102 267.7 399.102 272.5 403.062C273.56 400.642 274.4 398.142 275 395.562C273.19 395.342 271.53 394.502 270 393.062C272.15 392.002 273.81 390.502 275 388.562C274.83 388.062 274.67 387.562 274.5 387.062C267.52 390.712 267.19 389.712 273.5 384.062C273.98 383.112 274.15 382.112 274 381.062C274.96 378.922 274.63 376.922 273 375.062C272.83 371.052 273 367.052 273.5 363.062C276.75 361.642 279.58 359.642 282 357.062C277.9 356.092 273.9 354.932 270 353.562C268.68 352.742 268.01 351.582 268 350.062C267.06 348.512 266.39 346.842 266 345.062C270.81 344.672 275.47 344.672 280 345.062C281.18 344.842 282.18 345.172 283 346.062C288.27 353.612 292.77 361.612 296.5 370.062C298.54 378.142 296.04 384.302 289 388.562C284.58 389.522 281.25 388.022 279 384.062C278.19 390.402 277.36 396.732 276.5 403.062C273.94 410.622 268.77 413.452 261 411.562C255.56 406.602 252.4 400.442 251.5 393.062C250.48 397.832 249.14 402.492 247.5 407.062C243.1 411.592 238.1 412.252 232.5 409.062C229.08 400.732 226.92 392.062 226 383.062C220.89 387.392 215.39 388.052 209.5 385.062C206.53 378.592 206.2 371.922 208.5 365.062C211.23 357.272 214.73 349.942 219 343.062Z" fill="#29292B"/>
<path fill-rule="evenodd" clip-rule="evenodd" d="M211 368.062C212.96 370.912 213.63 373.912 213 377.062C212.21 375.792 211.21 374.792 210 374.062C209.71 371.822 210.04 369.822 211 368.062Z" fill="#FA6A41"/>
<path fill-rule="evenodd" clip-rule="evenodd" d="M293 372.061C289.5 373.701 288.34 376.041 289.5 379.061C291.14 378.251 292.64 377.251 294 376.061C293.64 382.591 290.31 385.761 284 385.561C282.86 383.591 281.53 381.751 280 380.061C281.67 377.731 283.67 375.731 286 374.061C286.93 371.041 288.26 368.201 290 365.561C291.24 365.101 292.08 365.601 292.5 367.061C292.99 368.691 293.16 370.361 293 372.061Z" fill="#F1EEED"/>
<path fill-rule="evenodd" clip-rule="evenodd" d="M210 374.061C211.21 374.791 212.21 375.791 213 377.061C213.63 373.911 212.96 370.911 211 368.061C210.84 366.691 211.01 365.351 211.5 364.061C212.22 363.111 213.05 362.941 214 363.561C216.1 365.601 217.27 368.101 217.5 371.061C220.47 373.621 223.3 376.291 226 379.061C221.56 385.061 216.39 386.061 210.5 382.061C210 379.411 209.84 376.751 210 374.061Z" fill="#F2F1F0"/>
<path fill-rule="evenodd" clip-rule="evenodd" d="M286.001 357.062C287.461 357.972 288.461 359.302 289.001 361.062C286.641 364.452 284.811 368.112 283.501 372.062C281.211 373.352 279.211 375.022 277.501 377.062C275.901 372.912 275.571 368.582 276.501 364.062C280.671 363.052 283.841 360.722 286.001 357.062Z" fill="#52548C"/>
<path fill-rule="evenodd" clip-rule="evenodd" d="M215 356.062C218.2 358.942 221.87 360.942 226 362.062C226.17 365.742 226 369.412 225.5 373.062C221.3 368.472 217.46 363.632 214 358.562C214.24 357.662 214.58 356.822 215 356.062Z" fill="#51538B"/>
<path fill-rule="evenodd" clip-rule="evenodd" d="M243 350.061C242.58 355.931 245.25 358.601 251 358.061C253 357.731 255 357.391 257 357.061C256.71 354.871 256.71 352.871 257 351.061C258.07 350.131 259.4 349.791 261 350.061C261.9 350.721 262.9 351.381 264 352.061C261.53 354.671 259.86 357.671 259 361.061C254.02 360.471 249.02 359.971 244 359.561C242.7 356.431 240.36 354.591 237 354.061C236.11 353.241 235.78 352.241 236 351.061C237.29 351.301 238.29 350.961 239 350.061C240.33 348.731 241.67 348.731 243 350.061Z" fill="#2D2C2C"/>
<path fill-rule="evenodd" clip-rule="evenodd" d="M233 350.062C235 350.062 237 350.062 239 350.062C238.29 350.962 237.29 351.302 236 351.062C235.78 352.242 236.11 353.242 237 354.062C240.36 354.592 242.7 356.432 244 359.562C249.02 359.972 254.02 360.472 259 361.062C259.86 357.672 261.53 354.672 264 352.062C262.9 351.382 261.9 350.722 261 350.062C263.33 350.062 265.67 350.062 268 350.062C268.01 351.582 268.68 352.742 270 353.562C273.9 354.932 277.9 356.092 282 357.062C279.58 359.642 276.75 361.642 273.5 363.062C273 367.052 272.83 371.052 273 375.062C273.03 376.062 272.53 376.722 271.5 377.062C266.39 377.342 262.89 379.672 261 384.062C265.59 384.082 269.92 383.082 274 381.062C274.15 382.112 273.98 383.112 273.5 384.062C267.19 389.712 267.52 390.712 274.5 387.062C274.67 387.562 274.83 388.062 275 388.562C273.81 390.502 272.15 392.002 270 393.062C271.53 394.502 273.19 395.342 275 395.562C274.4 398.142 273.56 400.642 272.5 403.062C267.7 399.102 262.87 399.102 258 403.062C255.23 396.972 253.23 390.642 252 384.062C253.31 381.152 253.81 378.152 253.5 375.062C252.37 373.352 250.87 372.852 249 373.562C249.56 382.732 248.89 391.892 247 401.062C245.95 401.212 244.95 401.042 244 400.562C241.17 396.452 237.67 395.952 233.5 399.062C230.41 396.962 230.25 394.632 233 392.062C230.55 391.132 229.72 389.472 230.5 387.062C231.68 388.292 232.85 388.292 234 387.062C232.31 385.042 230.64 383.042 229 381.062C232.18 381.952 235.35 382.952 238.5 384.062C240 383.892 240.83 383.062 241 381.562C237.64 378.382 233.64 376.552 229 376.062C228.41 371.082 227.91 366.082 227.5 361.062C224.86 359.252 222.36 357.252 220 355.062C221.79 354.242 223.45 353.242 225 352.062C228.45 354.922 231.11 354.252 233 350.062Z" fill="#F6F6F6"/>
<path fill-rule="evenodd" clip-rule="evenodd" d="M253 364.062C256.97 364.642 257.97 366.802 256 370.562C254.72 371.242 253.55 371.082 252.5 370.062C251.82 367.962 251.99 365.962 253 364.062Z" fill="#444444"/>
<path fill-rule="evenodd" clip-rule="evenodd" d="M244.001 364.062C248.831 363.952 250.161 366.112 248.001 370.562C246.861 371.312 245.861 371.142 245.001 370.062C244.151 368.152 243.821 366.152 244.001 364.062Z" fill="#3F3F3F"/>
<path fill-rule="evenodd" clip-rule="evenodd" d="M243 350.062C245.35 352.242 247.85 354.242 250.5 356.062C252.82 354.572 254.98 352.912 257 351.062C256.71 352.872 256.71 354.872 257 357.062C255 357.392 253 357.732 251 358.062C245.25 358.602 242.58 355.932 243 350.062Z" fill="#E2DFDF"/>
<path fill-rule="evenodd" clip-rule="evenodd" d="M269 346.062C272.44 346.602 273.61 348.602 272.5 352.062C270.55 350.502 269.39 348.502 269 346.062Z" fill="#D75530"/>
<path fill-rule="evenodd" clip-rule="evenodd" d="M229 346.062C230 346.062 231 346.062 232 346.062C231.92 348.492 230.92 350.492 229 352.062C227.81 350.042 227.81 348.042 229 346.062Z" fill="#DA5530"/>
<path fill-rule="evenodd" clip-rule="evenodd" d="M234 345.062C244.67 345.062 255.33 345.062 266 345.062C266.39 346.842 267.06 348.512 268 350.062C265.67 350.062 263.33 350.062 261 350.062C259.4 349.792 258.07 350.132 257 351.062C254.98 352.912 252.82 354.572 250.5 356.062C247.85 354.242 245.35 352.242 243 350.062C241.67 348.732 240.33 348.732 239 350.062C237 350.062 235 350.062 233 350.062C233.54 348.442 233.87 346.782 234 345.062Z" fill="#A1353C"/>
<path fill-rule="evenodd" clip-rule="evenodd" d="M293 372.062C293.93 373.132 294.27 374.462 294 376.062C292.64 377.252 291.14 378.252 289.5 379.062C288.34 376.042 289.5 373.702 293 372.062Z" fill="#FA663D"/>
<path fill-rule="evenodd" clip-rule="evenodd" d="M229 376.062C233.64 376.552 237.64 378.382 241 381.562C240.83 383.062 240 383.892 238.5 384.062C235.35 382.952 232.18 381.952 229 381.062C229 379.392 229 377.732 229 376.062Z" fill="#618182"/>
<path fill-rule="evenodd" clip-rule="evenodd" d="M273 375.062C274.63 376.922 274.96 378.922 274 381.062C269.92 383.082 265.59 384.082 261 384.062C262.89 379.672 266.39 377.342 271.5 377.062C272.53 376.722 273.03 376.062 273 375.062Z" fill="#5E7F80"/>
<path fill-rule="evenodd" clip-rule="evenodd" d="M236 401.062C239.82 400.352 242.82 401.522 245 404.562C244.74 405.822 244.07 406.822 243 407.562C238.66 408.982 235.33 407.812 233 404.062C234.27 403.272 235.27 402.272 236 401.062Z" fill="#EFEFEF"/>
<path fill-rule="evenodd" clip-rule="evenodd" d="M262 403.061C265.72 402.561 269.05 403.401 272 405.561C267.85 410.031 263.52 410.201 259 406.061C260.27 405.271 261.27 404.271 262 403.061Z" fill="#E6E6E6"/>
</svg>
