<svg width="500" height="500" viewBox="0 0 500 500" fill="none" xmlns="http://www.w3.org/2000/svg">
<path fill-rule="evenodd" clip-rule="evenodd" d="M197.999 83.0614C201.479 82.7414 204.809 83.2414 207.999 84.5614C211.649 90.0414 215.649 95.2014 219.999 100.061C225.669 95.5614 231.329 91.0614 236.999 86.5614C239.629 85.5714 242.289 85.2314 244.999 85.5614C251.749 91.2314 256.909 98.0614 260.499 106.061C268.139 100.141 275.309 93.6414 281.999 86.5614C286.499 84.1914 290.329 85.0314 293.499 89.0614C305.169 105.401 314.499 123.061 321.499 142.061C325.629 165.071 325.459 188.071 320.999 211.061C332.109 225.831 328.449 232.831 309.999 232.061C310.149 233.111 309.979 234.111 309.499 235.061C307.569 236.441 305.739 237.941 303.999 239.561C310.859 241.841 317.529 244.511 323.999 247.561C330.679 247.031 337.339 246.031 343.999 244.561C355.449 241.931 359.949 246.431 357.499 258.061C356.799 262.191 354.959 265.691 351.999 268.561C345.829 272.481 339.499 276.151 332.999 279.561C330.809 282.251 328.809 285.091 326.999 288.061C333.119 305.511 333.619 323.171 328.499 341.061C322.349 352.531 314.849 363.031 305.999 372.561C300.219 376.271 294.219 379.601 287.999 382.561C284.779 383.911 281.449 384.751 277.999 385.061C277.999 390.391 277.999 395.731 277.999 401.061C282.009 400.891 286.009 401.061 289.999 401.561C293.529 404.951 293.869 408.621 290.999 412.561C269.199 418.911 260.199 411.081 263.999 389.061C248.629 390.471 233.299 390.141 217.999 388.061C217.999 391.731 217.999 395.391 217.999 399.061C221.749 398.951 225.409 399.451 228.999 400.561C232.919 403.391 233.749 406.891 231.499 411.061C225.759 412.411 220.099 414.081 214.499 416.061C211.229 414.781 208.559 412.781 206.499 410.061C206.169 402.061 205.829 394.061 205.499 386.061C184.149 379.221 167.149 366.551 154.499 348.061C150.789 342.971 148.459 337.311 147.499 331.061C146.529 324.431 145.859 317.761 145.499 311.061C141.439 300.091 140.109 288.751 141.499 277.061C141.599 274.111 142.429 271.441 143.999 269.061C141.339 263.681 141.499 258.341 144.499 253.061C148.629 245.601 154.129 239.431 160.999 234.561C164.949 233.351 168.949 232.351 172.999 231.561C149.729 201.291 145.559 168.461 160.499 133.061C170.199 114.211 182.699 97.5414 197.999 83.0614Z" fill="#262626"/>
<path fill-rule="evenodd" clip-rule="evenodd" d="M199 94.0614C200.32 93.8914 201.49 94.2214 202.5 95.0614C205.84 101.131 209.18 107.131 212.5 113.061C213.22 113.621 214.06 113.951 215 114.061C218.46 112.501 221.79 110.661 225 108.561C229.9 103.821 235.24 99.6514 241 96.0614C246.39 102.781 251.39 109.781 256 117.061C259.66 118.561 262.99 118.061 266 115.561C271.74 109.151 278.07 103.491 285 98.5614C286.87 97.8514 288.37 98.3514 289.5 100.061C299.22 114.581 306.22 130.251 310.5 147.061C308.69 142.091 305.19 139.091 300 138.061C264.04 140.071 228.04 141.571 192 142.561C188.67 143.231 185.33 143.891 182 144.561C179.26 146.961 177.93 149.961 178 153.561C178.5 168.071 183.5 180.741 193 191.561C205.58 198.831 218.91 200.501 233 196.561C238.87 192.021 244.7 187.521 250.5 183.061C257.81 188.341 265.64 192.841 274 196.561C287.46 200.401 297.96 196.571 305.5 185.061C309.91 179.501 312.58 173.171 313.5 166.061C314.16 168.361 314.66 170.691 315 173.061C314.29 179.371 313.79 185.711 313.5 192.061C312.92 195.461 311.76 198.631 310 201.561C297.63 202.401 285.3 202.071 273 200.561C265.19 198.401 257.69 195.571 250.5 192.061C245.37 195.851 240.2 199.681 235 203.561C228.58 206.311 222.25 209.141 216 212.061C214.38 214.191 213.88 216.521 214.5 219.061C219.49 225.391 225.66 230.221 233 233.561C251.97 234.801 270.97 235.471 290 235.561C268.61 247.931 245.61 251.931 221 247.561C185.69 238.251 166.19 215.411 162.5 179.061C161.79 171.351 162.13 163.681 163.5 156.061C168.83 144.061 174.17 132.061 179.5 120.061C185.28 110.831 191.78 102.161 199 94.0614Z" fill="#7C7C7C"/>
<path fill-rule="evenodd" clip-rule="evenodd" d="M275 115.062C282.18 116.782 289.18 119.282 296 122.562C297.65 124.032 298.65 125.862 299 128.062C297.85 129.892 297.18 131.892 297 134.062C295.95 134.212 294.95 134.042 294 133.562C291.37 130.242 288.03 127.912 284 126.562C279.33 124.892 274.67 123.232 270 121.562C268.49 120.722 267.99 119.562 268.5 118.062C270.55 116.632 272.71 115.632 275 115.062Z" fill="#262626"/>
<path fill-rule="evenodd" clip-rule="evenodd" d="M203 123.062C208.04 123.152 213.04 123.652 218 124.562C220.67 126.562 220.67 128.562 218 130.562C211.73 131.722 205.4 132.722 199 133.562C194.4 136.432 189.4 137.592 184 137.062C183.6 134.522 184.27 132.352 186 130.562C191.37 127.172 197.04 124.672 203 123.062Z" fill="#262626"/>
<path fill-rule="evenodd" clip-rule="evenodd" d="M260 151.062C260.57 155.032 261.91 158.702 264 162.062C263.4 163.352 262.9 164.692 262.5 166.062C262.09 165.602 261.59 165.272 261 165.062C259.98 167.402 258.32 169.062 256 170.062C255.25 169.182 254.75 168.182 254.5 167.062C253.38 168.592 252.55 170.262 252 172.062C244.91 173.952 238.91 177.782 234 183.562C232.76 184.352 231.42 184.852 230 185.062C234.4 174.192 238.4 163.192 242 152.062C247.98 151.402 253.98 151.062 260 151.062Z" fill="#549A73"/>
<path fill-rule="evenodd" clip-rule="evenodd" d="M284 151.062C286.67 151.062 289.33 151.062 292 151.062C288.36 162.572 285.36 174.242 283 186.062C280.11 186.372 277.45 186.032 275 185.062C277.19 173.502 280.19 162.172 284 151.062Z" fill="#F9F7F5"/>
<path fill-rule="evenodd" clip-rule="evenodd" d="M295 151.062C296.33 151.062 297.67 151.062 299 151.062C296.04 161.592 293.7 172.252 292 183.062C290.67 183.732 289.33 184.392 288 185.062C287.46 185.002 287.12 184.672 287 184.062C289.67 173.042 292.34 162.042 295 151.062Z" fill="#F6F1F3"/>
<path fill-rule="evenodd" clip-rule="evenodd" d="M222 152.062C225 152.062 228 152.062 231 152.062C231 152.732 231 153.392 231 154.062C226.04 164.952 221.71 175.952 218 187.062C214.79 187.372 211.79 187.042 209 186.062C212.94 174.572 217.27 163.242 222 152.062Z" fill="#F8F7FA"/>
<path fill-rule="evenodd" clip-rule="evenodd" d="M268 151.062C273.33 151.062 278.67 151.062 284 151.062C280.19 162.172 277.19 173.502 275 185.062C268.91 183.852 263.91 180.852 260 176.062C261.11 170.932 261.78 170.932 262 176.062C263.32 176.232 264.49 175.902 265.5 175.062C265.71 172.782 266.55 170.782 268 169.062C267.33 168.392 266.67 167.732 266 167.062C268.75 164.492 269.42 161.492 268 158.062C268.22 156.502 268.89 155.172 270 154.062C268.89 153.292 268.22 152.292 268 151.062Z" fill="#B28850"/>
<path fill-rule="evenodd" clip-rule="evenodd" d="M299 151.062C300.67 151.062 302.33 151.062 304 151.062C302.96 160.222 301.13 169.222 298.5 178.062C296.74 180.332 294.58 181.992 292 183.062C293.7 172.252 296.04 161.592 299 151.062Z" fill="#9050B8"/>
<path fill-rule="evenodd" clip-rule="evenodd" d="M212 152.062C212 152.392 212 152.732 212 153.062C209.31 152.902 206.65 153.062 204 153.562C204.93 153.952 205.59 154.612 206 155.562C205.58 158.622 205.58 161.792 206 165.062C205 165.062 204 165.062 203 165.062C202.65 169.122 201.99 173.122 201 177.062C199.3 177.092 197.97 177.752 197 179.062C190.6 172.402 188.1 164.402 189.5 155.062C190 154.562 190.5 154.062 191 153.562C197.96 152.472 204.96 151.972 212 152.062Z" fill="#5A5161"/>
<path fill-rule="evenodd" clip-rule="evenodd" d="M237 152.062C238.67 152.062 240.33 152.062 242 152.062C238.4 163.192 234.4 174.192 230 185.062C227.9 186.172 225.57 186.842 223 187.062C225.94 180.182 228.6 173.182 231 166.062C233.52 161.682 235.52 157.022 237 152.062Z" fill="#F6F6F8"/>
<path fill-rule="evenodd" clip-rule="evenodd" d="M292 151.062C293 151.062 294 151.062 295 151.062C292.34 162.042 289.67 173.042 287 184.062C287.12 184.672 287.46 185.002 288 185.062C286.58 186.012 284.91 186.342 283 186.062C285.36 174.242 288.36 162.572 292 151.062Z" fill="#AB7A6D"/>
<path fill-rule="evenodd" clip-rule="evenodd" d="M231 152.062C233 152.062 235 152.062 237 152.062C235.52 157.022 233.52 161.682 231 166.062C230.46 166.002 230.12 165.672 230 165.062C230.59 162.712 231.59 160.542 233 158.562C232.6 156.832 231.93 155.332 231 154.062C231 153.392 231 152.732 231 152.062Z" fill="#7075A3"/>
<path fill-rule="evenodd" clip-rule="evenodd" d="M260 151.062C262.67 151.062 265.33 151.062 268 151.062C268.22 152.292 268.89 153.292 270 154.062C268.89 155.172 268.22 156.502 268 158.062C269.42 161.492 268.75 164.492 266 167.062C266.67 167.732 267.33 168.392 268 169.062C266.55 170.782 265.71 172.782 265.5 175.062C264.49 175.902 263.32 176.232 262 176.062C261.78 170.932 261.11 170.932 260 176.062C257.33 174.732 254.67 173.392 252 172.062C252.55 170.262 253.38 168.592 254.5 167.062C254.75 168.182 255.25 169.182 256 170.062C258.32 169.062 259.98 167.402 261 165.062C261.59 165.272 262.09 165.602 262.5 166.062C262.9 164.692 263.4 163.352 264 162.062C261.91 158.702 260.57 155.032 260 151.062Z" fill="#7D9060"/>
<path fill-rule="evenodd" clip-rule="evenodd" d="M231 154.062C231.93 155.332 232.6 156.832 233 158.562C231.59 160.542 230.59 162.712 230 165.062C230.12 165.672 230.46 166.002 231 166.062C228.6 173.182 225.94 180.182 223 187.062C221.33 188.392 219.67 188.392 218 187.062C221.71 175.952 226.04 164.952 231 154.062Z" fill="#7D5BBD"/>
<path fill-rule="evenodd" clip-rule="evenodd" d="M212 152.062C215.33 152.062 218.67 152.062 222 152.062C217.27 163.242 212.94 174.572 209 186.062C205.96 186.022 203.3 185.022 201 183.062C202.25 181.422 203.92 180.262 206 179.562C205.05 179.082 204.05 178.912 203 179.062C202.53 174.772 203.37 170.772 205.5 167.062C207.87 167.152 210.37 166.822 213 166.062C217.16 161.352 216.82 157.022 212 153.062C212 152.732 212 152.392 212 152.062Z" fill="#7A46AD"/>
<path fill-rule="evenodd" clip-rule="evenodd" d="M212 153.062C216.82 157.022 217.16 161.352 213 166.062C210.37 166.822 207.87 167.152 205.5 167.062C203.37 170.772 202.53 174.772 203 179.062C204.05 178.912 205.05 179.082 206 179.562C203.92 180.262 202.25 181.422 201 183.062C199.16 182.162 197.83 180.822 197 179.062C197.97 177.752 199.3 177.092 201 177.062C201.99 173.122 202.65 169.122 203 165.062C204 165.062 205 165.062 206 165.062C205.58 161.792 205.58 158.622 206 155.562C205.59 154.612 204.93 153.952 204 153.562C206.65 153.062 209.31 152.902 212 153.062Z" fill="#6E4A90"/>
<path fill-rule="evenodd" clip-rule="evenodd" d="M252 202.062C268.36 208.282 285.36 211.112 303 210.562C308.72 212.782 313.06 216.612 316 222.062C289.35 223.792 262.69 224.622 236 224.562C232.81 222.872 230.47 220.372 229 217.062C237.24 212.782 244.91 207.782 252 202.062Z" fill="#CFCFCF"/>
<path fill-rule="evenodd" clip-rule="evenodd" d="M167 242.061C170.51 241.551 173.67 242.221 176.5 244.061C178.18 253.631 176.68 262.631 172 271.061C167.49 268.311 162.83 265.811 158 263.561C156.27 262.171 154.94 260.501 154 258.561C156.69 251.711 161.02 246.211 167 242.061Z" fill="#DDBDFA"/>
<path fill-rule="evenodd" clip-rule="evenodd" d="M186 245.062C190.55 246.672 194.88 248.832 199 251.562C223.52 259.912 248.52 261.412 274 256.062C279.95 254.692 285.62 252.852 291 250.562C303.82 264.732 313.32 280.892 319.5 299.062C319.88 303.972 320.72 308.812 322 313.562C319.57 324.842 316.74 336.002 313.5 347.062C302.06 363.872 286.23 373.702 266 376.562C255.56 378.272 245.06 379.432 234.5 380.062C205.32 378.472 181.99 366.142 164.5 343.062C162.83 337.212 160.66 331.542 158 326.062C161.69 325.772 164.86 324.432 167.5 322.062C169.97 315.652 172.64 309.312 175.5 303.062C178.31 289.622 181.65 276.282 185.5 263.062C186 257.072 186.17 251.072 186 245.062Z" fill="#DEBEFC"/>
<path fill-rule="evenodd" clip-rule="evenodd" d="M343 252.062C345.67 252.062 348.33 252.062 351 252.062C351.2 254.552 350.7 256.882 349.5 259.062C344.43 263.972 338.93 268.302 333 272.062C332.29 266.372 331.63 260.712 331 255.062C335.21 254.382 339.21 253.382 343 252.062Z" fill="#7A7A7A"/>
<path fill-rule="evenodd" clip-rule="evenodd" d="M306 251.062C306.06 250.522 306.39 250.182 307 250.062C310.58 251.382 314.25 252.382 318 253.062C319.8 257.622 321.3 262.292 322.5 267.062C323.41 270.922 323.08 274.592 321.5 278.062C317.33 268.382 312.16 259.382 306 251.062Z" fill="#D8B9F1"/>
<path fill-rule="evenodd" clip-rule="evenodd" d="M245 265.062C247.03 264.902 249.03 265.062 251 265.562C251.46 265.972 251.79 266.472 252 267.062C246.95 278.842 250.12 281.842 261.5 276.062C262.27 276.202 262.94 276.542 263.5 277.062C264.17 286.212 260.34 292.712 252 296.562C236.83 297.372 230.99 290.202 234.5 275.062C237.26 270.792 240.76 267.462 245 265.062Z" fill="#262627"/>
<path fill-rule="evenodd" clip-rule="evenodd" d="M152 273.062C157.22 274.812 162.22 277.142 167 280.062C167.3 289.502 166.13 298.832 163.5 308.062C162.14 310.922 159.97 312.922 157 314.062C154.63 309.982 152.79 305.642 151.5 301.062C150.75 291.692 150.92 282.362 152 273.062Z" fill="#7C7C7C"/>
<path fill-rule="evenodd" clip-rule="evenodd" d="M243 271.062C243.65 275.642 244.98 280.142 247 284.562C251.16 286.662 255 286.162 258.5 283.062C257.42 288.632 253.92 291.632 248 292.062C245.53 291.772 243.36 290.772 241.5 289.062C236.71 282.602 237.21 276.602 243 271.062Z" fill="#F0EFF0"/>
<path fill-rule="evenodd" clip-rule="evenodd" d="M297 319.062C289.76 316.982 282.43 315.322 275 314.062C267.97 314.412 263.3 317.912 261 324.562C256.46 344.572 264.12 352.912 284 349.562C289.67 345.952 293.17 340.782 294.5 334.062C294.83 331.392 295.17 328.732 295.5 326.062C298.01 327.562 300.51 328.902 303 330.062C303.49 340.112 299.82 348.282 292 354.562C283.02 359.602 273.69 363.772 264 367.062C251.39 367.042 238.73 366.882 226 366.562C220.44 365.932 215.44 363.932 211 360.562C206.48 356.352 202.32 351.852 198.5 347.062C196.1 343.252 195.6 339.252 197 335.062C198.05 335.212 199.05 335.042 200 334.562C201.85 332.542 203.85 330.712 206 329.062C205.15 338.622 208.81 346.122 217 351.562C230.85 353.552 239.52 347.722 243 334.062C240.88 328.782 238.55 323.622 236 318.562C227.92 314.462 219.58 313.962 211 317.062C213.94 313.642 217.61 311.142 222 309.562C240.72 303.472 259.72 302.472 279 306.562C286.84 308.262 292.84 312.432 297 319.062Z" fill="#F8F8F8"/>
<path fill-rule="evenodd" clip-rule="evenodd" d="M297 319.062C300 321.992 303.5 324.322 307.5 326.062C308.14 329.492 306.64 330.822 303 330.062C300.51 328.902 298.01 327.562 295.5 326.062C295.17 328.732 294.83 331.392 294.5 334.062C293.17 340.782 289.67 345.952 284 349.562C264.12 352.912 256.46 344.572 261 324.562C263.3 317.912 267.97 314.412 275 314.062C282.43 315.322 289.76 316.982 297 319.062Z" fill="#070708"/>
<path fill-rule="evenodd" clip-rule="evenodd" d="M197 335.062C195.06 333.552 194.56 331.552 195.5 329.062C199.71 323.672 204.88 319.672 211 317.062C219.58 313.962 227.92 314.462 236 318.562C238.55 323.622 240.88 328.782 243 334.062C239.52 347.722 230.85 353.552 217 351.562C208.81 346.122 205.15 338.622 206 329.062C203.85 330.712 201.85 332.542 200 334.562C199.05 335.042 198.05 335.212 197 335.062Z" fill="#080808"/>
<path fill-rule="evenodd" clip-rule="evenodd" d="M270 319.061C275.5 318.391 277.67 320.721 276.5 326.061C275.66 331.851 272.49 333.521 267 331.061C264.48 329.301 263.65 326.971 264.5 324.061C266.31 322.261 268.15 320.591 270 319.061Z" fill="#F5F5F5"/>
<path fill-rule="evenodd" clip-rule="evenodd" d="M228 321.062C232.42 320.982 234.75 323.152 235 327.562C234.34 334.802 230.84 336.962 224.5 334.062C222.17 328.742 223.33 324.412 228 321.062Z" fill="#F3F3F3"/>
<path fill-rule="evenodd" clip-rule="evenodd" d="M261 353.062C263.13 352.712 264.47 353.542 265 355.562C263.59 362.332 259.59 365.002 253 363.562C250.85 362.152 248.52 361.322 246 361.062C246 359.392 246 357.732 246 356.062C249.67 355.892 253 356.892 256 359.062C258.14 357.442 259.81 355.442 261 353.062Z" fill="#101010"/>
</svg>
