<svg width="500" height="500" viewBox="0 0 500 500" fill="none" xmlns="http://www.w3.org/2000/svg">
<path fill-rule="evenodd" clip-rule="evenodd" d="M285 395.062C281.81 395.422 278.81 396.092 276 397.062C262.82 397.992 249.82 398.322 237 398.062C233.47 398.252 230.13 397.582 227 396.062C201.47 391.052 180.3 378.722 163.5 359.062C155.46 345.322 148.79 330.982 143.5 316.062C142.4 301.442 137.56 288.282 129 276.562C126.83 274.972 124.5 273.642 122 272.562C112.13 270.262 102.13 268.932 91.9996 268.562C91.0796 268.192 90.2496 267.692 89.4996 267.062C88.8296 263.062 88.8296 259.062 89.4996 255.062C101.63 225.472 123.8 211.472 156 213.062C155.04 208.122 154.37 203.122 154 198.062C155.6 176.432 156.43 154.762 156.5 133.062C153.82 113.122 160.99 97.9515 178 87.5615C189.15 83.9715 200.15 84.3015 211 88.5615C212.52 90.2515 214.18 91.7515 216 93.0615C217.7 86.8315 221.03 81.6615 226 77.5615C233.67 71.7215 242.34 68.5615 252 68.0615C253.67 68.2315 255.33 68.3915 257 68.5615C262.33 71.8915 267.67 75.2315 273 78.5615C275.21 80.4315 277.04 82.6015 278.5 85.0615C280.06 89.6115 282.06 93.9415 284.5 98.0615C291.51 90.8515 300.01 88.3515 310 90.5615C319.87 94.0915 327.7 100.262 333.5 109.062C335.83 117.062 337.83 125.062 339.5 133.062C341.54 159.022 342.37 185.022 342 211.062C346.54 211.242 351.04 210.902 355.5 210.062C375.22 213.922 391.89 223.252 405.5 238.062C411.54 246.922 413.2 256.592 410.5 267.062C408.92 268.602 407.09 269.772 405 270.562C377.73 265.832 364.9 277.332 366.5 305.062C364.78 319.632 360.45 333.292 353.5 346.062C345.78 356.792 336.94 366.622 327 375.562C318.86 380.472 310.53 385.132 302 389.562C296.23 391.542 290.56 393.372 285 395.062Z" fill="#FE78F9"/>
<path fill-rule="evenodd" clip-rule="evenodd" d="M245 81.0614C253.75 81.0214 260.91 84.3514 266.5 91.0614C267.78 93.2814 268.78 95.6114 269.5 98.0614C270.36 106.121 270.03 114.121 268.5 122.061C263.72 137.291 257.55 151.961 250 166.061C248.36 163.261 246.53 160.591 244.5 158.061C238.41 145.541 232.07 133.211 225.5 121.061C224.28 112.751 223.95 104.421 224.5 96.0614C226.24 92.3214 228.74 89.1514 232 86.5614C236.68 85.2114 241.02 83.3814 245 81.0614Z" fill="#FBF9FB"/>
<path fill-rule="evenodd" clip-rule="evenodd" d="M236 93.0616C242.28 93.0116 246.28 96.0117 248 102.062C249.79 99.7717 251.79 97.6016 254 95.5616C256.33 94.8916 258.67 94.8916 261 95.5616C262.92 98.9916 264.26 102.662 265 106.562C260.21 119.252 256.05 132.092 252.5 145.062C251.76 146.132 250.76 146.802 249.5 147.062C247.18 146.072 245.51 144.412 244.5 142.062C239.83 131.362 235.16 120.692 230.5 110.062C229.83 106.732 229.83 103.392 230.5 100.062C232.17 97.5616 234 95.2316 236 93.0616Z" fill="#98C9FE"/>
<path fill-rule="evenodd" clip-rule="evenodd" d="M206 104.062C206.63 107.532 205.63 110.362 203 112.562C193.96 115.172 185.46 114.012 177.5 109.062C176.98 107.272 177.31 105.602 178.5 104.062C180.21 102.522 181.71 100.862 183 99.0615C183.42 98.3415 184.08 97.8415 185 97.5615C188.7 97.2415 192.36 96.7415 196 96.0615C198.78 97.0215 201.45 98.1815 204 99.5615C205.08 100.892 205.75 102.392 206 104.062Z" fill="#9CC9FD"/>
<path fill-rule="evenodd" clip-rule="evenodd" d="M321 114.061C318.89 115.001 316.89 116.171 315 117.561C309 118.231 303 118.231 297 117.561C294.75 116.211 293.08 114.381 292 112.061C294.3 104.631 299.47 101.301 307.5 102.061C314.17 102.641 319.33 105.641 323 111.061C322.31 112.081 321.64 113.081 321 114.061Z" fill="#9CC9FC"/>
<path fill-rule="evenodd" clip-rule="evenodd" d="M183 99.0615C181.71 100.862 180.21 102.522 178.5 104.062C177.31 105.602 176.98 107.272 177.5 109.062C185.46 114.012 193.96 115.172 203 112.562C205.63 110.362 206.63 107.532 206 104.062C210.7 113.302 208.04 119.472 198 122.562C191.58 122.932 185.25 122.262 179 120.562C176.03 118.292 174.7 115.292 175 111.562C174.15 104.972 176.82 100.812 183 99.0615Z" fill="#FBF3F8"/>
<path fill-rule="evenodd" clip-rule="evenodd" d="M292 112.062C293.08 114.382 294.75 116.212 297 117.562C303 118.232 309 118.232 315 117.562C316.89 116.172 318.89 115.002 321 114.062C325.31 117.972 324.98 121.472 320 124.562C313.92 127.032 307.58 127.702 301 126.562C297.7 124.812 294.2 123.652 290.5 123.062C289.74 119.202 290.24 115.532 292 112.062Z" fill="#FAF8FB"/>
<path fill-rule="evenodd" clip-rule="evenodd" d="M210 128.062C211.83 151.712 212.66 175.712 212.5 200.062C212.87 208.602 217.04 211.262 225 208.062C225.65 190.392 226.48 172.722 227.5 155.062C233.41 163.222 239.08 171.552 244.5 180.062C246.59 182.662 249.09 184.662 252 186.062C252.94 185.952 253.78 185.622 254.5 185.062C259.83 173.062 265.17 161.062 270.5 149.062C271.71 168.372 272.38 187.702 272.5 207.062C277.15 213.772 280.82 213.442 283.5 206.062C283.83 186.392 284.17 166.732 284.5 147.062C284.67 142.692 285.17 138.362 286 134.062C299.15 138.502 312.48 139.162 326 136.062C326.38 159.062 326.88 182.062 327.5 205.062C327.58 209.752 328.41 214.252 330 218.562C318.46 230.612 314.62 244.772 318.5 261.062C314.5 263.732 311.17 267.062 308.5 271.062C304.33 265.562 299.5 260.732 294 256.562C298.03 248.292 301.37 239.792 304 231.062C302.89 224.772 299.22 221.602 293 221.562C292 222.392 291 223.232 290 224.062C286.39 232.882 283.39 241.882 281 251.062C273.61 250.432 266.28 249.432 259 248.062C258.37 233.742 257.87 219.402 257.5 205.062C252.89 200.092 247.89 199.752 242.5 204.062C241.57 206.472 241.07 208.972 241 211.562C241.59 223.432 242.26 235.262 243 247.062C236.54 247.302 230.54 248.962 225 252.062C220.76 241.922 216.26 231.922 211.5 222.062C209.07 219.812 206.24 218.972 203 219.562C200.29 220.692 197.79 222.192 195.5 224.062C194.83 226.392 194.83 228.732 195.5 231.062C199.48 240.502 204.32 249.502 210 258.062C204 260.552 199 264.392 195 269.562C193.33 270.232 191.67 270.232 190 269.562C186.23 266.462 183.23 262.802 181 258.562C182.25 245.532 179.42 233.362 172.5 222.062C170.21 191.782 169.38 161.442 170 131.062C177.13 132.252 184.3 133.252 191.5 134.062C193.67 133.892 195.83 133.732 198 133.562C202.24 132.022 206.24 130.192 210 128.062Z" fill="#FFADCC"/>
<path fill-rule="evenodd" clip-rule="evenodd" d="M187 157.062C188.89 156.862 190.39 157.522 191.5 159.062C192.6 168.092 196.43 175.592 203 181.562C200.52 184.042 198.02 186.542 195.5 189.062C193.23 195.032 191.07 201.032 189 207.062C188.41 206.852 187.91 206.522 187.5 206.062C186.67 199.602 185.34 193.272 183.5 187.062C182.08 184.262 179.91 182.262 177 181.062C183.25 174.332 186.58 166.332 187 157.062Z" fill="#FCFAFB"/>
<path fill-rule="evenodd" clip-rule="evenodd" d="M304 161.062C305.33 161.062 306.67 161.062 308 161.062C308.24 166.742 308.74 172.412 309.5 178.062C311.79 181.022 314.62 183.192 318 184.562C314.49 187.212 311.66 190.372 309.5 194.062C307.07 199.832 305.57 205.832 305 212.062C302.86 211.092 301.7 209.422 301.5 207.062C300.59 200.962 299.26 194.962 297.5 189.062C295.23 187.802 293.07 186.472 291 185.062C294.02 181.872 296.85 178.542 299.5 175.062C301.23 170.432 302.73 165.772 304 161.062Z" fill="#FCFAFB"/>
<path fill-rule="evenodd" clip-rule="evenodd" d="M355 251.062C355.41 256.612 358.41 258.782 364 257.562C364.54 256.842 365.21 256.342 366 256.062C368.7 262.762 366.7 267.932 360 271.562C348.11 275.032 339.27 271.202 333.5 260.062C326.03 239.342 333.2 227.342 355 224.062C376.04 225.562 390.7 235.892 399 255.062C392.02 255.992 385.02 256.662 378 257.062C376.22 250.102 372.56 244.272 367 239.562C358.61 237.212 351.77 239.372 346.5 246.062C345.5 249.552 346 252.722 348 255.562C351.78 256.282 354.11 254.782 355 251.062Z" fill="#FFADCC"/>
<path fill-rule="evenodd" clip-rule="evenodd" d="M133 252.061C134.24 260.291 138.58 262.291 146 258.061C148.63 260.711 151.3 260.711 154 258.061C157.34 244.891 152.17 238.221 138.5 238.061C127.14 239.711 120.97 246.381 120 258.061C114.33 258.061 108.67 258.061 103 258.061C103.53 252.621 105.7 247.961 109.5 244.061C114.41 238.481 119.91 233.651 126 229.561C132.8 227.571 139.63 225.731 146.5 224.061C154.41 224.021 160.74 227.021 165.5 233.061C174.92 251.151 170.75 265.321 153 275.561C149.24 276.301 145.57 275.961 142 274.561C138.93 271.611 135.76 268.781 132.5 266.061C130.97 261.851 130.63 257.521 131.5 253.061C131.88 252.501 132.38 252.171 133 252.061Z" fill="#FFADCC"/>
<path fill-rule="evenodd" clip-rule="evenodd" d="M146 258.062C138.58 262.292 134.24 260.292 133 252.062C135.41 247.042 139.08 245.872 144 248.562C146.66 251.372 147.33 254.542 146 258.062Z" fill="#FCF9FB"/>
<path fill-rule="evenodd" clip-rule="evenodd" d="M366 256.061C365.21 256.341 364.54 256.841 364 257.561C358.41 258.781 355.41 256.611 355 251.061C362 244.741 365.67 246.411 366 256.061Z" fill="#FCF7FA"/>
<path fill-rule="evenodd" clip-rule="evenodd" d="M307 287.061C298.17 284.121 289.17 281.781 280 280.061C270.22 282.011 264.72 288.011 263.5 298.061C260.8 320.031 270.3 328.861 292 324.561C295.06 323.501 297.56 321.671 299.5 319.061C302.11 314.181 304.44 309.181 306.5 304.061C307.26 301.791 307.09 299.621 306 297.561C308.89 298.311 311.89 299.151 315 300.061C316.54 309.211 315.04 317.881 310.5 326.061C306.97 329.961 303.8 334.121 301 338.561C270.14 356.751 239.48 356.421 209 337.561C201.63 330.861 195.79 323.021 191.5 314.061C191 310.071 190.83 306.071 191 302.061C193 299.961 195.16 297.961 197.5 296.061C196.05 307.101 199.55 316.271 208 323.561C223.96 328.171 235.12 322.671 241.5 307.061C242.17 304.731 242.17 302.391 241.5 300.061C239 296.071 237.34 291.731 236.5 287.061C233.25 283.191 229.08 281.031 224 280.561C213.54 278.641 203.87 280.481 195 286.061C197.17 281.901 200.17 278.401 204 275.561C218.64 265.391 234.98 260.561 253 261.061C272.94 260.201 289.77 266.871 303.5 281.061C304.89 282.951 306.06 284.951 307 287.061Z" fill="#FAF9F9"/>
<path fill-rule="evenodd" clip-rule="evenodd" d="M326 274.062C331.49 278.042 337.16 281.872 343 285.562C347.37 286.482 351.7 287.482 356 288.562C353.15 298.842 351.32 309.342 350.5 320.062C344.73 336.772 335.57 351.272 323 363.562C316.37 367.212 309.7 370.882 303 374.562C288.64 380.682 273.64 384.012 258 384.562C224.05 388.002 195.88 376.832 173.5 351.062C165.38 336.162 158.38 320.832 152.5 305.062C150.55 299.222 149.72 293.222 150 287.062C158.58 285.852 165.74 281.852 171.5 275.062C176.53 277.942 180.7 281.612 184 286.062C181.07 297.532 180.24 309.202 181.5 321.062C194.4 342.262 212.9 355.762 237 361.562C265.05 366.672 290.05 360.342 312 342.562C321.49 332.242 326.49 320.072 327 306.062C326.31 297.322 323.31 289.322 318 282.062C320.7 279.392 323.37 276.722 326 274.062Z" fill="#FEADCC"/>
<path fill-rule="evenodd" clip-rule="evenodd" d="M191 302.061C184.89 304.451 182.72 302.451 184.5 296.061C187.21 291.851 190.71 288.511 195 286.061C203.87 280.481 213.54 278.641 224 280.561C229.08 281.031 233.25 283.191 236.5 287.061C237.34 291.731 239 296.071 241.5 300.061C242.17 302.391 242.17 304.731 241.5 307.061C235.12 322.671 223.96 328.171 208 323.561C199.55 316.271 196.05 307.101 197.5 296.061C195.16 297.961 193 299.961 191 302.061Z" fill="#060606"/>
<path fill-rule="evenodd" clip-rule="evenodd" d="M307 287.062C311.4 290.952 316.24 294.292 321.5 297.062C321.32 302.182 319.16 303.182 315 300.062C311.89 299.152 308.89 298.312 306 297.562C307.09 299.622 307.26 301.792 306.5 304.062C304.44 309.182 302.11 314.182 299.5 319.062C297.56 321.672 295.06 323.502 292 324.562C270.3 328.862 260.8 320.032 263.5 298.062C264.72 288.012 270.22 282.012 280 280.062C289.17 281.782 298.17 284.122 307 287.062Z" fill="#060606"/>
<path fill-rule="evenodd" clip-rule="evenodd" d="M277 286.062C281.42 285.982 283.75 288.152 284 292.562C284.81 301.562 280.98 304.722 272.5 302.062C270.63 300.042 269.47 297.712 269 295.062C269.17 294.062 269.33 293.062 269.5 292.062C271.98 289.922 274.48 287.922 277 286.062Z" fill="#F6F6F6"/>
<path fill-rule="evenodd" clip-rule="evenodd" d="M223 288.061C229.13 286.541 232.47 288.871 233 295.061C232.08 300.251 229.24 303.921 224.5 306.061C218.8 304.001 216.8 300.001 218.5 294.061C219.83 291.901 221.33 289.901 223 288.061Z" fill="#F7F7F7"/>
<path fill-rule="evenodd" clip-rule="evenodd" d="M169 292.062C173.61 292.002 175.94 294.342 176 299.062C175.03 303.812 173.2 308.142 170.5 312.062C168.71 314.922 166.38 315.592 163.5 314.062C160.05 308.992 157.55 303.492 156 297.562C156.66 293.482 158.99 292.142 163 293.562C165.66 296.802 167.66 296.302 169 292.062Z" fill="#99CAFD"/>
<path fill-rule="evenodd" clip-rule="evenodd" d="M332 296.062C333.37 295.902 334.71 296.072 336 296.562C337.23 298.192 338.56 299.692 340 301.062C346.89 295.082 349.72 296.752 348.5 306.062C347.21 311.482 344.71 316.312 341 320.562C339.39 321.282 337.89 321.112 336.5 320.062C331.87 313.812 329.87 306.812 330.5 299.062C331.01 298.032 331.51 297.032 332 296.062Z" fill="#99CAFD"/>
<path fill-rule="evenodd" clip-rule="evenodd" d="M264 328.062C266.63 327.852 268.29 329.022 269 331.562C267.06 335.422 264.39 338.762 261 341.562C254.91 341.602 249.41 339.772 244.5 336.062C243.78 333.442 244.78 331.772 247.5 331.062C250.29 331.652 252.79 332.822 255 334.562C256.33 335.232 257.67 335.232 259 334.562C260.5 332.232 262.17 330.072 264 328.062Z" fill="#101010"/>
<path fill-rule="evenodd" clip-rule="evenodd" d="M176 332.061C178.82 331.641 180.99 332.641 182.5 335.061C183.28 338.321 183.12 341.491 182 344.561C174.67 346.231 171.5 343.391 172.5 336.061C173.88 334.851 175.04 333.521 176 332.061Z" fill="#97CAFD"/>
<path fill-rule="evenodd" clip-rule="evenodd" d="M324 333.062C330.4 332.302 333.23 334.962 332.5 341.062C328.72 345.762 324.72 346.092 320.5 342.062C319.83 340.392 319.83 338.732 320.5 337.062C321.88 335.852 323.04 334.522 324 333.062Z" fill="#99C9FD"/>
<path fill-rule="evenodd" clip-rule="evenodd" d="M200 355.062C208.01 353.902 210.84 357.242 208.5 365.062C200.13 369.042 196.47 366.372 197.5 357.062C198.49 356.492 199.33 355.832 200 355.062Z" fill="#FAFAFB"/>
<path fill-rule="evenodd" clip-rule="evenodd" d="M300 355.062C305.97 353.702 309.64 355.872 311 361.562C310.86 363.712 309.86 365.382 308 366.562C303.75 367.362 299.58 367.192 295.5 366.062C294.83 364.062 294.83 362.062 295.5 360.062C297.21 358.522 298.71 356.862 300 355.062Z" fill="#F9F9FB"/>
<path fill-rule="evenodd" clip-rule="evenodd" d="M235 367.062C238.34 367.222 241.17 368.552 243.5 371.062C244.42 373.872 243.59 376.032 241 377.562C233.53 380.072 230.36 377.572 231.5 370.062C232.65 368.922 233.81 367.922 235 367.062Z" fill="#9AC9FD"/>
<path fill-rule="evenodd" clip-rule="evenodd" d="M265 370.062C267.82 369.812 270.49 370.312 273 371.562C274.19 377.042 271.85 379.372 266 378.562C262.49 376.032 262.15 373.202 265 370.062Z" fill="#9BC9FC"/>
<path fill-rule="evenodd" clip-rule="evenodd" d="M285 395.062C286.38 403.292 287.04 411.622 287 420.062C291.93 419.762 296.76 420.092 301.5 421.062C302.96 426.612 300.79 429.782 295 430.562C289.67 431.232 284.33 431.232 279 430.562C278.5 430.062 278 429.562 277.5 429.062C276.52 418.412 276.02 407.752 276 397.062C278.81 396.092 281.81 395.422 285 395.062Z" fill="#252424"/>
<path fill-rule="evenodd" clip-rule="evenodd" d="M227 396.062C230.13 397.582 233.47 398.252 237 398.062C237.67 402.382 238 406.882 238 411.562C238.09 417.142 237.59 422.642 236.5 428.062C234.52 430.172 232.02 431.342 229 431.562C224.67 432.232 220.33 432.232 216 431.562C214.1 429.752 213.6 427.592 214.5 425.062C218.29 422.302 222.45 420.632 227 420.062C226.81 411.962 226.81 403.962 227 396.062Z" fill="#252425"/>
</svg>
