<svg width="500" height="500" viewBox="0 0 500 500" fill="none" xmlns="http://www.w3.org/2000/svg">
<path fill-rule="evenodd" clip-rule="evenodd" d="M311.259 373.338C310.809 364.173 306.469 361.173 298.259 364.338C297.069 363.474 295.909 362.474 294.759 361.338C289.279 382.639 281.279 402.972 270.759 422.338C267.749 426.358 263.919 429.191 259.259 430.838C249.129 432.031 239.459 430.531 230.259 426.338C220.759 427.835 213.929 424.169 209.759 415.338C206.879 410.239 204.539 404.905 202.759 399.338C200.329 397.416 198.499 395.083 197.259 392.338C197.429 382.332 197.259 372.332 196.759 362.338C193.709 360.408 191.209 357.908 189.259 354.838C183.209 353.719 179.879 356.219 179.259 362.338C160.159 366.659 140.829 368.826 121.259 368.838C101.769 364.688 90.6091 352.855 87.7591 333.338C84.8491 319.197 87.8491 306.53 96.7591 295.338C100.929 291.171 105.089 287.005 109.259 282.838C117.099 278.087 124.759 273.087 132.259 267.838C128.179 267.607 124.179 266.94 120.259 265.838C108.569 259.471 96.9091 253.138 85.2591 246.838C77.6691 240.456 70.1691 233.956 62.7591 227.338C46.8791 203.035 50.3791 182.202 73.2591 164.838C90.7291 152.474 110.059 148.308 131.259 152.338C124.279 137.375 118.119 122.042 112.759 106.338C111.319 99.3823 110.649 92.3823 110.759 85.3383C113.469 77.4658 118.969 73.1325 127.259 72.3383C132.549 62.8963 140.549 57.0629 151.259 54.8383C162.749 53.3643 173.749 55.031 184.259 59.8383C198.409 65.9887 210.909 74.4887 221.759 85.3383C224.209 78.4347 227.209 71.768 230.759 65.3383C238.889 24.2166 261.729 13.05 299.259 31.8383C311.769 42.3532 318.939 55.8532 320.759 72.3383C320.929 78.0341 321.429 83.7007 322.259 89.3383C336.759 80.5567 352.429 76.39 369.259 76.8383C372.919 78.3353 376.259 80.3353 379.259 82.8383C390.719 92.9574 399.889 104.79 406.759 118.338C413.519 142.781 409.019 164.781 393.259 184.338C411.359 190.802 426.859 201.136 439.759 215.338C448.639 226.232 449.639 237.898 442.759 250.338C439.849 257.657 435.349 263.824 429.259 268.838C421.569 273.35 413.569 277.35 405.259 280.838C396.339 282.578 387.339 283.411 378.259 283.338C382.529 293.219 387.369 302.886 392.759 312.338C397.719 326.132 397.379 339.799 391.759 353.338C386.429 363.67 379.259 372.503 370.259 379.838C358.399 385.268 346.059 386.601 333.259 383.838C325.499 381.126 318.169 377.626 311.259 373.338Z" fill="#FEC10A"/>
<path fill-rule="evenodd" clip-rule="evenodd" d="M260.26 101.338C270.86 100.046 280.86 101.88 290.26 106.838C302.72 112.48 313.89 119.98 323.76 129.338C336.71 146.625 350.05 163.625 363.76 180.338C372.35 193.176 377.85 207.176 380.26 222.338C378.69 232.918 377.86 243.584 377.76 254.338C376.29 262.27 372.96 269.27 367.76 275.338C355.59 286.171 343.43 297.005 331.26 307.838C326.43 311.419 321.43 314.753 316.26 317.838C308.48 325.552 300.15 332.552 291.26 338.838C280.5 344.568 269 347.068 256.76 346.338C243.19 346.547 230.36 343.714 218.26 337.838C202.84 329.421 189.51 318.421 178.26 304.838C163.85 295.087 153.01 282.254 145.76 266.338C132.47 235.42 136.14 206.754 156.76 180.338C161.01 170.826 166.51 162.159 173.26 154.338C183.9 145.203 195.23 137.036 207.26 129.838C222.69 116.125 240.35 106.625 260.26 101.338Z" fill="#B17A67"/>
<path fill-rule="evenodd" clip-rule="evenodd" d="M285.26 161.338C301.38 161.413 317.38 162.913 333.26 165.838C348.49 175.746 359.33 189.246 365.76 206.338C366.74 209.079 367.24 211.913 367.26 214.838C365.62 230.101 362.12 244.934 356.76 259.338C348.03 273.406 336.2 283.906 321.26 290.838C287.73 295.347 254.06 296.347 220.26 293.838C207.55 288.781 195.55 282.447 184.26 274.838C181.11 269.436 177.61 264.269 173.76 259.338C170.76 252.005 167.76 244.671 164.76 237.338C160.42 214.864 167.92 197.697 187.26 185.838C205.17 176.534 223.84 169.201 243.26 163.838C257.45 163.547 271.45 162.714 285.26 161.338Z" fill="#FCFCFC"/>
<path fill-rule="evenodd" clip-rule="evenodd" d="M306.26 190.337C315.34 190.264 324.34 191.097 333.26 192.837C339.42 195.091 345.42 197.758 351.26 200.837C354.09 203.67 356.93 206.504 359.76 209.337C361.22 213.273 360.05 215.773 356.26 216.837C352.03 217.318 348.53 215.818 345.76 212.337C347.27 216.425 348.11 220.759 348.26 225.337C346.31 245.291 335.31 256.291 315.26 258.337C302.34 256.637 293.84 249.637 289.76 237.337C287.87 229.325 287.87 221.325 289.76 213.337C290.93 210.334 292.59 207.667 294.76 205.337C295.09 203.337 295.43 201.337 295.76 199.337C298.86 195.723 302.36 192.723 306.26 190.337Z" fill="#050505"/>
<path fill-rule="evenodd" clip-rule="evenodd" d="M221.26 196.338C233.37 194.423 242.87 198.423 249.76 208.338C250.45 210.406 250.28 212.406 249.26 214.338C250.29 215.538 251.12 216.872 251.76 218.338C259.59 250.496 247.09 265.663 214.26 263.838C198.45 258.743 191.95 247.91 194.76 231.338C195.45 228.43 196.62 225.763 198.26 223.338C197.93 223.005 197.59 222.671 197.26 222.338C193.45 224.98 189.78 227.813 186.26 230.838C182.5 232.06 179.84 230.893 178.26 227.338C183.36 220.067 189.03 213.234 195.26 206.838C203.66 202.433 212.33 198.933 221.26 196.338Z" fill="#040404"/>
<path fill-rule="evenodd" clip-rule="evenodd" d="M302.259 212.338C307.919 211.511 312.919 212.845 317.259 216.338C321.559 221.619 320.559 225.786 314.259 228.838C303.299 232.525 298.129 228.692 298.759 217.338C299.759 215.515 300.919 213.848 302.259 212.338Z" fill="#F5F5F5"/>
<path fill-rule="evenodd" clip-rule="evenodd" d="M225.259 217.338C238.199 215.43 242.369 220.43 237.759 232.338C233.529 238.389 228.029 240.222 221.259 237.838C217.779 234.153 217.279 229.987 219.759 225.338C221.029 222.241 222.869 219.574 225.259 217.338Z" fill="#F3F3F3"/>
<path fill-rule="evenodd" clip-rule="evenodd" d="M286.259 262.338C291.759 261.669 293.929 264.003 292.759 269.338C289.949 274.14 286.449 278.307 282.259 281.838C280.259 282.505 278.259 282.505 276.259 281.838C271.929 278.838 267.589 275.838 263.259 272.838C258.349 266.736 259.679 263.736 267.259 263.838C270.679 266.966 274.519 269.466 278.759 271.338C281.259 268.339 283.759 265.339 286.259 262.338Z" fill="#0C0C0C"/>
<path fill-rule="evenodd" clip-rule="evenodd" d="M197.261 392.338C196.601 393.46 196.271 394.793 196.261 396.338C198.411 417.283 199.411 438.283 199.261 459.338C206.941 459.074 214.611 458.907 222.261 458.838C226.251 464.612 225.251 469.612 219.261 473.838C208.691 474.969 198.191 475.803 187.761 476.338C185.261 475.848 183.261 474.515 181.761 472.338C182.201 449.013 182.201 425.679 181.761 402.338C179.711 389.097 178.871 375.763 179.261 362.338C179.881 356.219 183.211 353.719 189.261 354.838C191.211 357.908 193.711 360.408 196.761 362.338C197.261 372.332 197.431 382.332 197.261 392.338Z" fill="#4FB052"/>
<path fill-rule="evenodd" clip-rule="evenodd" d="M311.261 373.338C313.211 402.305 314.881 431.305 316.261 460.338C322.631 456.629 329.301 455.795 336.261 457.838C339.231 462.688 338.571 467.021 334.261 470.838C327.601 471.296 321.101 472.462 314.761 474.338C310.331 472.082 305.501 470.915 300.261 470.838C298.871 469.667 298.031 468.167 297.761 466.338C297.431 458.759 296.601 451.259 295.261 443.838C297.031 427.374 297.531 410.874 296.761 394.338C293.051 384.028 293.551 374.028 298.261 364.338C306.471 361.173 310.811 364.173 311.261 373.338Z" fill="#4FB052"/>
</svg>
