<svg width="500" height="500" viewBox="0 0 500 500" fill="none" xmlns="http://www.w3.org/2000/svg">
<path fill-rule="evenodd" clip-rule="evenodd" d="M112 357.062C101.56 354.372 90.89 353.372 80 354.062C84.18 353.396 88.52 352.729 93 352.062C90.65 348.367 89.15 344.367 88.5 340.062C87.95 322.121 89.95 304.454 94.5 287.062C97.27 281.097 99.43 274.93 101 268.562C96.02 260.306 92.19 251.473 89.5 242.062C88.83 236.395 88.83 230.729 89.5 225.062C98.61 200.846 108.27 176.846 118.5 153.062C132.75 121.144 155.92 98.3099 188 84.5619C201.62 78.4159 215.62 73.4159 230 69.5619C246.32 68.4389 262.66 68.1059 279 68.5619C295.3 71.7679 309.97 78.4349 323 88.5619C334.5 92.3989 345.5 97.3989 356 103.562C368.21 111.836 379.87 120.836 391 130.562C401.75 143.042 407.92 157.542 409.5 174.062C411.18 196.637 409.68 218.971 405 241.062C406.33 248 407.16 255 407.5 262.062C415.45 272.947 422.11 284.613 427.5 297.062C430.8 310.164 430.47 323.164 426.5 336.062C424.96 337.94 423.12 339.44 421 340.562C416.67 341.229 412.33 341.229 408 340.562C399.66 336.866 392.49 331.699 386.5 325.062C366.11 350.45 341.28 370.284 312 384.562C311.05 385.28 310.88 386.113 311.5 387.062C318.28 395.178 324.28 403.844 329.5 413.062C330.34 416.857 330 420.523 328.5 424.062C326.65 426.154 324.31 427.154 321.5 427.062C316.46 426.695 311.62 425.528 307 423.562C294.59 416.943 282.76 409.443 271.5 401.062C268.26 403.099 265.1 405.266 262 407.562C252.73 419.178 241.07 427.178 227 431.562C213.89 433.114 208.05 427.281 209.5 414.062C212.87 407.691 217.37 402.191 223 397.562C228.7 393.716 234.37 389.882 240 386.062C212.12 373.837 183.79 362.671 155 352.562C145.72 348.437 137.38 342.937 130 336.062C124.24 343.239 118.24 350.239 112 357.062Z" fill="#9E9E9E"/>
<path fill-rule="evenodd" clip-rule="evenodd" d="M273 89.0615C281.73 89.1865 285.23 93.5195 283.5 102.062C275.95 106.908 271.45 104.742 270 95.5615C269.89 92.8495 270.89 90.6835 273 89.0615Z" fill="#050505"/>
<path fill-rule="evenodd" clip-rule="evenodd" d="M213 100.062C221.43 101.274 224.6 105.941 222.5 114.062C221.6 115.263 220.43 116.097 219 116.562C209.75 119.623 205.58 116.456 206.5 107.062C208.19 104.204 210.36 101.871 213 100.062Z" fill="#060606"/>
<path fill-rule="evenodd" clip-rule="evenodd" d="M306.001 100.062C312.541 100.74 314.701 104.073 312.501 110.062C307.881 116.006 302.041 117.839 295.001 115.562C291.301 108.907 293.301 105.24 301.001 104.562C302.561 102.826 304.231 101.326 306.001 100.062Z" fill="#D0AAAA"/>
<path fill-rule="evenodd" clip-rule="evenodd" d="M193 118.062C200.64 117.705 203.14 121.038 200.5 128.062C197.67 130.229 194.83 132.395 192 134.562C186.14 137.336 180.98 136.502 176.5 132.062C175.12 128.087 176.29 125.253 180 123.562C185.52 124.195 189.85 122.361 193 118.062Z" fill="#D0AAAA"/>
<path fill-rule="evenodd" clip-rule="evenodd" d="M293 121.062C299.78 120.678 304.28 123.678 306.5 130.062C309.85 138.752 308.02 145.919 301 151.562C294.94 152.086 288.94 152.92 283 154.062C271.74 152.183 260.41 151.35 249 151.562C241.36 158.377 233.36 164.71 225 170.562C217.04 174.149 209.37 173.816 202 169.562C195.59 161.614 195.42 153.447 201.5 145.062C208.95 137.915 217.79 134.082 228 133.562C230.67 136.229 230.67 138.895 228 141.562C220.69 143.634 214.19 147.134 208.5 152.062C207.04 154.928 206.71 157.928 207.5 161.062C213.16 163.88 218.66 163.38 224 159.562C229.96 155.273 235.62 150.606 241 145.562C243.1 143.796 245.43 142.463 248 141.562C259.49 142.085 270.99 142.918 282.5 144.062C286.99 143.463 291.49 142.963 296 142.562C297.18 141.382 297.85 139.882 298 138.062C297.75 135.704 297.41 133.37 297 131.062C290.83 129.746 289.5 126.413 293 121.062Z" fill="#707070"/>
<path fill-rule="evenodd" clip-rule="evenodd" d="M364 226.062C359.89 224.174 355.89 222.008 352 219.562C340.99 217.635 329.99 215.635 319 213.562C312.91 212.701 306.91 213.035 301 214.562C286.69 225.129 281.19 239.296 284.5 257.062C286.01 265.247 289.51 272.414 295 278.562C306.11 283.706 317.78 285.373 330 283.562C335.88 279.352 340.71 274.185 344.5 268.062C347.5 259.889 350 251.556 352 243.062C350.65 239.72 350.32 236.387 351 233.062C355.88 236.172 361.22 237.839 367 238.062C368.03 238.811 369.2 239.477 370.5 240.062C372.33 249.017 373.83 258.017 375 267.062C372.42 294.482 358.08 312.649 332 321.562C315.02 323.358 298.35 326.691 282 331.562C261.46 335.601 240.8 336.601 220 334.562C186.53 325.928 168.53 304.428 166 270.062C167.29 270.299 168.29 269.966 169 269.062C170.42 268.853 171.76 268.353 173 267.562C176.13 263.429 179.63 259.596 183.5 256.062C182.55 269.995 187.05 281.828 197 291.562C208.42 299.472 220.42 300.139 233 293.562C244.12 285.489 250.79 274.656 253 261.062C251.65 253.029 248.15 246.029 242.5 240.062C240.38 231.716 234.88 227.216 226 226.562C217.6 225.692 209.27 226.025 201 227.562C188.81 232.149 178.14 238.982 169 248.062C170.64 242.658 173.14 237.658 176.5 233.062C182.87 226.636 189.7 220.803 197 215.562C231.68 197.092 268.68 188.426 308 189.562C333.71 191.235 352.71 203.235 365 225.562C364.77 225.961 364.44 226.127 364 226.062Z" fill="#FCFCFC"/>
<path fill-rule="evenodd" clip-rule="evenodd" d="M364.001 226.061C367.181 227.571 370.351 229.238 373.501 231.061C374.671 236.396 372.501 238.73 367.001 238.061C361.221 237.838 355.881 236.171 351.001 233.061C350.321 236.386 350.651 239.719 352.001 243.061C350.001 251.555 347.501 259.888 344.501 268.061C340.711 274.184 335.881 279.351 330.001 283.561C317.781 285.372 306.111 283.705 295.001 278.561C289.511 272.413 286.011 265.246 284.501 257.061C281.191 239.295 286.691 225.128 301.001 214.561C306.911 213.034 312.911 212.7 319.001 213.561C329.991 215.634 340.991 217.634 352.001 219.561C355.891 222.007 359.891 224.173 364.001 226.061Z" fill="#030303"/>
<path fill-rule="evenodd" clip-rule="evenodd" d="M303 223.061C308.31 222.301 312.15 224.301 314.5 229.061C314.69 234.401 314.35 239.735 313.5 245.061C309.8 249.833 304.97 251.333 299 249.561C296.1 246.699 293.6 243.532 291.5 240.061C290.76 236.778 291.42 233.778 293.5 231.061C297.18 228.876 300.34 226.209 303 223.061Z" fill="#F4F4F4"/>
<path fill-rule="evenodd" clip-rule="evenodd" d="M169 269.062C163.76 269.983 161.76 267.816 163 262.562C163.17 260.729 163.33 258.895 163.5 257.062C165.86 254.34 167.69 251.34 169 248.062C178.14 238.982 188.81 232.149 201 227.562C209.27 226.025 217.6 225.692 226 226.562C234.88 227.216 240.38 231.716 242.5 240.062C248.15 246.029 251.65 253.029 253 261.062C250.79 274.656 244.12 285.489 233 293.562C220.42 300.139 208.42 299.472 197 291.562C187.05 281.828 182.55 269.995 183.5 256.062C179.63 259.596 176.13 263.429 173 267.562C171.76 268.353 170.42 268.853 169 269.062Z" fill="#040404"/>
<path fill-rule="evenodd" clip-rule="evenodd" d="M224 236.062C232.09 236.318 236.42 240.484 237 248.562C236.83 252.731 235.67 256.565 233.5 260.062C227.76 266.651 222.09 266.651 216.5 260.062C214.8 257.662 213.97 254.995 214 252.062C214.83 245.044 218.17 239.71 224 236.062Z" fill="#F5F5F5"/>
<path fill-rule="evenodd" clip-rule="evenodd" d="M290.999 291.062C295.659 289.902 298.319 291.569 298.999 296.062C297.439 302.357 294.439 307.857 289.999 312.562C286.129 314.082 282.129 314.416 277.999 313.562C273.089 311.706 268.259 309.873 263.499 308.062C261.379 300.848 264.209 298.014 271.999 299.562C275.989 302.398 280.319 303.231 284.999 302.062C287.029 298.378 289.029 294.712 290.999 291.062Z" fill="#0E0E0E"/>
<path fill-rule="evenodd" clip-rule="evenodd" d="M79.9996 354.061C90.8896 353.371 101.56 354.371 112 357.061C116.01 357.655 120.01 358.321 124 359.061C128.69 355.218 134.03 353.718 140 354.561C142.79 356.771 143.62 359.605 142.5 363.061C140.25 364.938 137.75 366.438 135 367.561C133.6 368.623 132.6 369.956 132 371.561C134.57 376.365 136.57 381.365 138 386.561C138.03 390.032 136.36 392.199 133 393.061C125.35 391.083 119.35 386.75 115 380.061C110.41 382.145 105.58 383.145 100.5 383.061C91.9696 381.918 83.4696 380.751 74.9996 379.561C69.3996 373.371 68.2396 366.538 71.4996 359.061C73.8096 356.489 76.6496 354.822 79.9996 354.061Z" fill="#617E8B"/>
<path fill-rule="evenodd" clip-rule="evenodd" d="M86.0006 359.062C94.4806 359.802 96.1506 363.635 91.0006 370.562C82.4406 370.085 80.7806 366.252 86.0006 359.062Z" fill="#080B0C"/>
</svg>
