<svg width="500" height="500" viewBox="0 0 500 500" fill="none" xmlns="http://www.w3.org/2000/svg">
<path fill-rule="evenodd" clip-rule="evenodd" d="M313 203.061C303.14 206.131 293.14 207.791 283 208.061C271.69 209.291 260.36 209.291 249 208.061C249 207.061 249 206.061 249 205.061C249.97 202.611 250.31 199.951 250 197.061C268.49 197.181 286.83 195.841 305 193.061C307.56 183.561 310.22 174.061 313 164.561C312.76 163.661 312.42 162.821 312 162.061C314.68 160.521 315.52 158.191 314.5 155.061C313.1 154.441 311.6 154.111 310 154.061C251.86 161.281 193.86 160.621 136 152.061C135.84 153.761 136.01 155.431 136.5 157.061C137.17 157.811 138 158.151 139 158.061C138.89 158.681 138.56 159.181 138 159.561C142.37 168.361 146.54 177.191 150.5 186.061C165.87 191.051 181.71 194.391 198 196.061C199.47 199.591 200.81 203.251 202 207.061C187.2 206.301 172.53 204.641 158 202.061C154.09 199.421 149.75 197.751 145 197.061C142.91 195.001 141.07 192.671 139.5 190.061C135.18 180.091 130.85 170.091 126.5 160.061C121.2 149.651 123.7 142.151 134 137.561C141.33 134.891 148.67 132.231 156 129.561C170.71 116.701 187.38 107.201 206 101.061C204.84 95.1714 206.51 90.3414 211 86.5615C220.99 78.8014 230.49 79.3014 239.5 88.0615C241.18 91.8614 242.68 95.6914 244 99.5614C261.26 105.361 277.59 113.021 293 122.561C297.21 126.941 301.54 131.101 306 135.061C312.61 137.951 318.44 141.951 323.5 147.061C325.3 155.381 325.3 163.711 323.5 172.061C319.26 182.281 315.76 192.611 313 203.061Z" fill="#383363"/>
<path fill-rule="evenodd" clip-rule="evenodd" d="M218 92.0615C221.68 91.8915 225.35 92.0615 229 92.5615C234.28 97.0715 234.28 101.401 229 105.561C222.81 107.201 218.81 105.031 217 99.0615C217.5 96.7415 217.83 94.4115 218 92.0615Z" fill="#C4204E"/>
<path fill-rule="evenodd" clip-rule="evenodd" d="M238 110.062C257.04 111.332 272.54 119.332 284.5 134.062C286.86 137.452 288.69 141.112 290 145.062C287.67 146.392 285.33 146.392 283 145.062C275.96 131.362 264.96 122.362 250 118.062C248.98 118.562 248.81 119.232 249.5 120.062C256.71 128.142 261.54 137.472 264 148.062C261.58 148.372 259.24 148.032 257 147.062C254.56 139.512 251.06 132.512 246.5 126.062C243.81 121.872 240.31 118.542 236 116.062C238.54 127.102 240.88 138.442 243 150.062C240.67 150.062 238.33 150.062 236 150.062C234.74 138.702 232.08 127.702 228 117.062C224.72 127.092 223.05 137.422 223 148.062C221 148.062 219 148.062 217 148.062C217.77 137.002 219.1 126.002 221 115.062C226.24 115.542 231.24 114.702 236 112.562C236.88 111.852 237.55 111.022 238 110.062Z" fill="#C2214E"/>
<path fill-rule="evenodd" clip-rule="evenodd" d="M205 111.061C210.06 110.231 214.39 111.561 218 115.061C209.01 124.021 202.85 134.691 199.5 147.061C197.46 147.981 195.29 148.321 193 148.061C195.41 134.731 201.41 123.231 211 113.561C204.6 113.921 198.93 116.261 194 120.561C185.44 127.291 178.11 135.121 172 144.061C169.76 145.031 167.42 145.371 165 145.061C167.88 137.991 172.21 131.821 178 126.561C186.77 120.851 195.77 115.681 205 111.061Z" fill="#C2214E"/>
<path fill-rule="evenodd" clip-rule="evenodd" d="M312 162.062C257.64 165.982 203.31 165.482 149 160.562C145.88 158.952 142.55 158.122 139 158.062C138 158.152 137.17 157.812 136.5 157.062C136.01 155.432 135.84 153.762 136 152.062C193.86 160.622 251.86 161.282 310 154.062C311.6 154.112 313.1 154.442 314.5 155.062C315.52 158.192 314.68 160.522 312 162.062Z" fill="#EFC216"/>
<path fill-rule="evenodd" clip-rule="evenodd" d="M139 158.062C142.55 158.122 145.88 158.952 149 160.562C203.31 165.482 257.64 165.982 312 162.062C312.42 162.822 312.76 163.662 313 164.562C310.22 174.062 307.56 183.562 305 193.062C286.83 195.842 268.49 197.182 250 197.062C250.31 199.952 249.97 202.612 249 205.062C249.71 194.752 248.54 184.752 245.5 175.062C242.32 171.502 238.49 170.502 234 172.062C221.73 170.192 209.39 169.362 197 169.562C194.5 171.382 193.17 173.882 193 177.062C193.67 183.732 195.34 190.062 198 196.062C181.71 194.392 165.87 191.052 150.5 186.062C146.54 177.192 142.37 168.362 138 159.562C138.56 159.182 138.89 158.682 139 158.062Z" fill="#42426F"/>
<path fill-rule="evenodd" clip-rule="evenodd" d="M249 205.061C249 206.061 249 207.061 249 208.061C249 211.061 249 214.061 249 217.061C249 219.391 249 221.731 249 224.061C247.33 230.601 245.66 237.261 244 244.061C243.29 249.671 241.46 255.011 238.5 260.061C237.09 261.341 235.59 262.341 234 263.061C221.65 263.701 209.65 262.371 198 259.061C195.14 254.861 194.31 250.191 195.5 245.061C199.46 238.611 200.96 231.611 200 224.061C201.71 218.551 202.38 212.881 202 207.061C200.81 203.251 199.47 199.591 198 196.061C195.34 190.061 193.67 183.731 193 177.061C193.17 173.881 194.5 171.381 197 169.561C209.39 169.361 221.73 170.191 234 172.061C238.49 170.501 242.32 171.501 245.5 175.061C248.54 184.751 249.71 194.751 249 205.061Z" fill="#EAB00C"/>
<path fill-rule="evenodd" clip-rule="evenodd" d="M219 251.062C220.26 247.062 220.26 243.062 219 239.062C221.09 236.642 223.59 235.972 226.5 237.062C227.15 241.762 226.98 246.432 226 251.062C227.33 251.062 228.67 251.062 230 251.062C231.27 245.732 231.27 240.402 230 235.062C231.34 233.242 231.84 231.242 231.5 229.062C228.09 228.272 224.59 227.772 221 227.562C225.59 225.702 230.26 224.032 235 222.562C235.84 221.552 236.17 220.382 236 219.062C231.89 220.152 227.72 221.152 223.5 222.062C220.36 221.722 217.53 220.722 215 219.062C214.75 221.392 215.41 223.392 217 225.062C212.4 231.012 214.07 233.512 222 232.562C218.67 234.232 215.33 235.892 212 237.562C211.16 238.572 210.83 239.742 211 241.062C214.12 240.492 216.12 241.652 217 244.562C216.54 247.142 215.54 249.482 214 251.562C214.07 252.322 214.4 252.822 215 253.062C211.94 254.382 208.77 254.382 205.5 253.062C206.39 238.942 208.23 224.942 211 211.062C209.66 204.072 207.5 197.402 204.5 191.062C203.97 186.322 203.14 181.652 202 177.062C213.73 177.232 225.4 178.062 237 179.562C238.39 181.612 239.55 183.772 240.5 186.062C241.17 199.062 241.17 212.062 240.5 225.062C238.61 235.302 236.11 245.302 233 255.062C228.32 254.892 223.65 254.562 219 254.062C219 253.062 219 252.062 219 251.062Z" fill="#F8C506"/>
<path fill-rule="evenodd" clip-rule="evenodd" d="M145 197.062C149.75 197.752 154.09 199.422 158 202.062C156.85 205.102 155.35 208.102 153.5 211.062C150.06 213.992 147.22 217.332 145 221.062C141.98 224.082 138.65 226.742 135 229.062C134.33 229.062 133.67 229.062 133 229.062C131.11 227.792 130.11 225.962 130 223.562C132.48 219.432 133.98 214.932 134.5 210.062C137.52 205.222 141.02 200.892 145 197.062Z" fill="#936176"/>
<path fill-rule="evenodd" clip-rule="evenodd" d="M158 202.062C172.53 204.642 187.2 206.302 202 207.062C202.38 212.882 201.71 218.552 200 224.062C197.8 220.702 194.8 218.202 191 216.562C174.89 210.752 159.56 212.252 145 221.062C147.22 217.332 150.06 213.992 153.5 211.062C155.35 208.102 156.85 205.102 158 202.062Z" fill="#F4F3F3"/>
<path fill-rule="evenodd" clip-rule="evenodd" d="M313 203.062C314.25 203.142 315.08 203.802 315.5 205.062C318.24 213.942 320.57 222.942 322.5 232.062C323.68 238.322 322.51 243.982 319 249.062C315.34 250.762 312.5 249.762 310.5 246.062C308.77 236.262 305.1 227.262 299.5 219.062C297.83 215.542 296.66 211.872 296 208.062C291.67 208.062 287.33 208.062 283 208.062C293.14 207.792 303.14 206.132 313 203.062Z" fill="#936076"/>
<path fill-rule="evenodd" clip-rule="evenodd" d="M210 182.062C212.58 182.132 214.58 183.302 216 185.562C220.99 186.062 225.99 186.232 231 186.062C231.22 187.242 230.89 188.242 230 189.062C217.94 193.362 218.61 195.202 232 194.562C233.71 195.692 234.21 197.192 233.5 199.062C230.53 201.282 227.7 203.622 225 206.062C226.93 208.152 229.26 209.652 232 210.562C232.84 211.572 233.17 212.742 233 214.062C229.91 214.182 227.25 213.182 225 211.062C223.49 212.552 222.49 214.382 222 216.562C221.05 217.182 220.22 217.012 219.5 216.062C218.66 213.422 219.16 211.092 221 209.062C219.01 206.902 216.84 204.902 214.5 203.062C213.72 201.242 214.22 199.912 216 199.062C217.67 200.392 219.33 201.732 221 203.062C223.83 201.812 226.5 200.312 229 198.562C223 198.232 217 197.892 211 197.562C209.77 196.382 209.77 195.212 211 194.062C213.13 193.092 215.13 191.932 217 190.562C213.32 188.722 210.99 185.892 210 182.062Z" fill="#C22745"/>
<path fill-rule="evenodd" clip-rule="evenodd" d="M249 208.062C260.36 209.292 271.69 209.292 283 208.062C287.33 208.062 291.67 208.062 296 208.062C296.66 211.872 297.83 215.542 299.5 219.062C305.1 227.262 308.77 236.262 310.5 246.062C312.5 249.762 315.34 250.762 319 249.062C319.98 252.862 320.32 256.862 320 261.062C319.63 264.132 318.96 267.132 318 270.062C316.12 273.152 314.79 276.492 314 280.062C312.9 280.742 311.9 281.402 311 282.062C286.41 286.462 262.08 291.962 238 298.562C222.8 302.372 207.8 301.702 193 296.562C180.34 292.732 168 288.062 156 282.562C153.07 281.612 150.07 281.112 147 281.062C144.94 280.342 142.78 279.682 140.5 279.062C132.89 265.412 129.56 250.752 130.5 235.062C131.07 232.842 131.9 230.842 133 229.062C133.67 229.062 134.33 229.062 135 229.062C132.95 232.512 132.61 236.172 134 240.062C137.33 241.562 140.33 241.062 143 238.562C145.2 236.022 147.7 233.852 150.5 232.062C148.88 242.232 150.38 251.902 155 261.062C149.3 257.582 146.63 259.252 147 266.062C148 266.062 149 266.062 150 266.062C149.85 267.112 150.02 268.112 150.5 269.062C153.94 269.662 155.77 271.662 156 275.062C158.9 275.812 161.57 277.152 164 279.062C168.39 279.992 172.72 279.992 177 279.062C177.75 278.182 178.25 277.182 178.5 276.062C182.62 277.972 185.45 276.812 187 272.562C186.52 271.262 185.86 270.092 185 269.062C185 268.732 185 268.392 185 268.062C190.25 266.282 194.58 263.282 198 259.062C209.65 262.372 221.65 263.702 234 263.062C238.74 268.442 244.74 271.772 252 273.062C253.42 274.012 255.09 274.342 257 274.062C257 276.392 257.83 278.392 259.5 280.062C263.51 280.302 267.67 279.962 272 279.062C271.78 277.882 272.11 276.882 273 276.062C274.39 277.202 275.72 277.202 277 276.062C278.26 273.592 279.76 271.262 281.5 269.062C280.85 266.452 280.02 263.782 279 261.062C283.26 253.952 285.93 246.282 287 238.062C291.06 241.912 295.89 244.252 301.5 245.062C304.57 244.112 305.57 242.112 304.5 239.062C298.07 234.932 291.9 230.432 286 225.562C276.48 222.162 266.81 219.162 257 216.562C254.24 215.842 251.57 216.002 249 217.062C249 214.062 249 211.062 249 208.062Z" fill="#F7F7F9"/>
<path fill-rule="evenodd" clip-rule="evenodd" d="M200 224.061C200.96 231.611 199.46 238.611 195.5 245.061C194.31 250.191 195.14 254.861 198 259.061C194.58 263.281 190.25 266.281 185 268.061C184.02 267.421 183.02 266.751 182 266.061C174.9 266.771 167.9 266.771 161 266.061C159.41 263.931 157.41 262.261 155 261.061C150.38 251.901 148.88 242.231 150.5 232.061C147.7 233.851 145.2 236.021 143 238.561C140.33 241.061 137.33 241.561 134 240.061C132.61 236.171 132.95 232.511 135 229.061C138.65 226.741 141.98 224.081 145 221.061C159.56 212.251 174.89 210.751 191 216.561C194.8 218.201 197.8 220.701 200 224.061Z" fill="#050505"/>
<path fill-rule="evenodd" clip-rule="evenodd" d="M279 261.062C278.33 261.062 278 261.392 278 262.062C274.67 261.822 271.67 262.662 269 264.562C265.1 267.552 261.1 270.382 257 273.062C255.33 273.062 253.67 273.062 252 273.062C244.74 271.772 238.74 268.442 234 263.062C235.59 262.342 237.09 261.342 238.5 260.062C241.46 255.012 243.29 249.672 244 244.062C252.22 246.702 256.72 243.702 257.5 235.062C259.66 227.392 256.82 223.732 249 224.062C249 221.732 249 219.392 249 217.062C251.57 216.002 254.24 215.842 257 216.562C266.81 219.162 276.48 222.162 286 225.562C291.9 230.432 298.07 234.932 304.5 239.062C305.57 242.112 304.57 244.112 301.5 245.062C295.89 244.252 291.06 241.912 287 238.062C285.93 246.282 283.26 253.952 279 261.062Z" fill="#050505"/>
<path fill-rule="evenodd" clip-rule="evenodd" d="M219 251.062C217.9 252.162 216.56 252.832 215 253.062C214.4 252.822 214.07 252.322 214 251.562C215.54 249.482 216.54 247.142 217 244.562C216.12 241.652 214.12 240.492 211 241.062C210.83 239.742 211.16 238.572 212 237.562C215.33 235.892 218.67 234.232 222 232.562C214.07 233.512 212.4 231.012 217 225.062C215.41 223.392 214.75 221.392 215 219.062C217.53 220.722 220.36 221.722 223.5 222.062C227.72 221.152 231.89 220.152 236 219.062C236.17 220.382 235.84 221.552 235 222.562C230.26 224.032 225.59 225.702 221 227.562C224.59 227.772 228.09 228.272 231.5 229.062C231.84 231.242 231.34 233.242 230 235.062C231.27 240.402 231.27 245.732 230 251.062C228.67 251.062 227.33 251.062 226 251.062C226.98 246.432 227.15 241.762 226.5 237.062C223.59 235.972 221.09 236.642 219 239.062C220.26 243.062 220.26 247.062 219 251.062Z" fill="#C22645"/>
<path fill-rule="evenodd" clip-rule="evenodd" d="M184 223.062C192.8 223.622 195.97 228.292 193.5 237.062C185.78 249.712 179.61 249.042 175 235.062C176.57 229.902 179.57 225.902 184 223.062Z" fill="#F5F5F5"/>
<path fill-rule="evenodd" clip-rule="evenodd" d="M249 224.061C256.82 223.731 259.66 227.391 257.5 235.061C256.72 243.701 252.22 246.701 244 244.061C245.66 237.261 247.33 230.601 249 224.061Z" fill="#F9F8F4"/>
<path fill-rule="evenodd" clip-rule="evenodd" d="M318 270.062C318.96 267.132 319.63 264.132 320 261.062C320.82 257.252 321.32 253.252 321.5 249.062C322.33 250.732 323.17 252.392 324 254.062C330.21 253.792 333.88 256.622 335 262.562C343.53 261.752 348.7 265.582 350.5 274.062C352.39 274.692 354.06 275.692 355.5 277.062C356 280.042 356.16 283.042 356 286.062C362.3 285.852 364.63 288.682 363 294.562C364.85 293.782 366.85 293.442 369 293.562C372.48 296.992 374.65 301.162 375.5 306.062C380.3 308.192 381.96 311.862 380.5 317.062C380.22 320.772 378.72 323.772 376 326.062C375.02 325.582 374.19 324.922 373.5 324.062C374.34 318.522 372.34 314.522 367.5 312.062C367.02 311.112 366.85 310.112 367 309.062C363.98 309.222 360.98 309.062 358 308.562C356.51 306.462 355.51 304.132 355 301.562C349.99 302.142 346.15 300.302 343.5 296.062C342.6 293.532 343.1 291.372 345 289.562C337.68 288.972 335.68 285.642 339 279.562C331.36 280.742 327.69 277.582 328 270.062C324.67 270.062 321.33 270.062 318 270.062Z" fill="#936076"/>
<path fill-rule="evenodd" clip-rule="evenodd" d="M155 261.061C157.41 262.261 159.41 263.931 161 266.061C163.04 268.391 165.71 269.561 169 269.561C174.37 270.241 179.7 270.071 185 269.061C185.86 270.091 186.52 271.261 187 272.561C185.45 276.811 182.62 277.971 178.5 276.061C178.25 277.181 177.75 278.181 177 279.061C172.72 279.991 168.39 279.991 164 279.061C161.57 277.151 158.9 275.811 156 275.061C155.77 271.661 153.94 269.661 150.5 269.061C150.02 268.111 149.85 267.111 150 266.061C149 266.061 148 266.061 147 266.061C146.63 259.251 149.3 257.581 155 261.061Z" fill="#CAD3F9"/>
<path fill-rule="evenodd" clip-rule="evenodd" d="M185 268.062C185 268.392 185 268.732 185 269.062C179.7 270.072 174.37 270.242 169 269.562C165.71 269.562 163.04 268.392 161 266.062C167.9 266.772 174.9 266.772 182 266.062C183.02 266.752 184.02 267.422 185 268.062Z" fill="#071239"/>
<path fill-rule="evenodd" clip-rule="evenodd" d="M278 262.062C273.32 270.072 266.32 273.742 257 273.062C261.1 270.382 265.1 267.552 269 264.562C271.67 262.662 274.67 261.822 278 262.062Z" fill="#031252"/>
<path fill-rule="evenodd" clip-rule="evenodd" d="M232 275.062C236.48 275.382 237.98 277.722 236.5 282.062C234 285.892 230.83 289.062 227 291.562C224.67 292.232 222.33 292.232 220 291.562C215.81 289.362 211.65 287.192 207.5 285.062C206.02 281.012 207.35 279.012 211.5 279.062C215.89 281.012 220.39 282.512 225 283.562C227.2 280.542 229.53 277.702 232 275.062Z" fill="#0B0B0B"/>
<path fill-rule="evenodd" clip-rule="evenodd" d="M279 261.062C280.02 263.782 280.85 266.452 281.5 269.062C279.76 271.262 278.26 273.592 277 276.062C275.72 277.202 274.39 277.202 273 276.062C272.11 276.882 271.78 277.882 272 279.062C267.67 279.962 263.51 280.302 259.5 280.062C257.83 278.392 257 276.392 257 274.062C255.09 274.342 253.42 274.012 252 273.062C253.67 273.062 255.33 273.062 257 273.062C266.32 273.742 273.32 270.072 278 262.062C278 261.392 278.33 261.062 279 261.062Z" fill="#BCC6F7"/>
<path fill-rule="evenodd" clip-rule="evenodd" d="M147 281.062C150.07 281.112 153.07 281.612 156 282.562C168 288.062 180.34 292.732 193 296.562C207.8 301.702 222.8 302.372 238 298.562C262.08 291.962 286.41 286.462 311 282.062C312.7 281.902 314.37 282.072 316 282.562C317.07 285.222 318.74 287.382 321 289.062C326.97 304.802 333.8 320.142 341.5 335.062C344.67 340.772 344.34 346.102 340.5 351.062C334.3 357.592 327.8 363.762 321 369.562C312.09 372.642 303.42 376.312 295 380.562C294.31 381.632 293.81 382.792 293.5 384.062C288 388.892 282.5 393.732 277 398.562C271.33 401.332 265.33 402.492 259 402.062C252.6 396.322 247.27 389.652 243 382.062C242.2 382.522 241.87 383.182 242 384.062C231.33 384.062 220.67 384.062 210 384.062C209.7 383.412 209.36 382.742 209 382.062C204.95 380.802 200.95 380.802 197 382.062C191.34 381.592 185.67 381.092 180 380.562C177.89 380.002 175.89 379.172 174 378.062C171.48 379.752 169.48 381.922 168 384.562C164.39 386.502 161.06 388.842 158 391.562C154.91 392.212 151.91 391.882 149 390.562C132.9 376.872 122.57 359.702 118 339.062C118.44 333.322 119.27 327.652 120.5 322.062C127.79 308.642 134.62 295.142 141 281.562C142.97 281.062 144.97 280.902 147 281.062Z" fill="#332F60"/>
<path fill-rule="evenodd" clip-rule="evenodd" d="M164 358.062C157.64 362.432 151.64 367.102 146 372.062C144.48 372.052 143.32 371.382 142.5 370.062C140.39 363.632 137.06 357.972 132.5 353.062C128.68 344.652 127.68 335.982 129.5 327.062C131.19 320.962 133.19 314.962 135.5 309.062C138.97 302.942 142.81 297.102 147 291.562C148.33 290.892 149.67 290.892 151 291.562C154.27 296.782 155.93 302.612 156 309.062C154.27 314.962 153.77 320.962 154.5 327.062C156.92 337.772 160.09 348.112 164 358.062Z" fill="#424270"/>
<path fill-rule="evenodd" clip-rule="evenodd" d="M326 340.062C316.78 344.342 307.78 349.172 299 354.562C294.93 354.672 291.26 355.842 288 358.062C285.69 355.462 283.86 352.462 282.5 349.062C282.17 335.062 281.83 321.062 281.5 307.062C278.69 303.142 276.19 303.472 274 308.062C272.11 321.672 271.61 335.342 272.5 349.062C275 354.732 277.5 360.392 280 366.062C281.1 366.742 282.1 367.402 283 368.062C281.3 367.902 279.63 368.072 278 368.562C272.63 373.242 266.63 376.912 260 379.562C257.58 381.072 256.58 383.242 257 386.062C254.51 381.022 251.67 376.022 248.5 371.062C245.04 356.242 246.7 341.902 253.5 328.062C252.55 319.562 254.71 312.062 260 305.562C277.08 302.442 293.75 297.942 310 292.062C317.07 306.192 323.57 320.522 329.5 335.062C329.99 336.352 330.16 337.692 330 339.062C328.4 338.792 327.07 339.132 326 340.062Z" fill="#424270"/>
<path fill-rule="evenodd" clip-rule="evenodd" d="M166 297.062C173.61 301.222 181.61 304.722 190 307.562C194.33 308.562 198.67 309.562 203 310.562C205.32 313.042 204.98 315.372 202 317.562C195.65 320.652 188.98 321.652 182 320.562C175.4 315.972 170.24 310.132 166.5 303.062C166 301.092 165.84 299.092 166 297.062Z" fill="#436FB5"/>
<path fill-rule="evenodd" clip-rule="evenodd" d="M242 308.062C243.33 308.062 244.67 308.062 246 308.062C245.46 313.412 244.8 318.742 244 324.062C238.25 323.372 232.58 322.212 227 320.562C223.61 319.342 220.94 317.172 219 314.062C226.67 311.562 234.33 309.562 242 308.062Z" fill="#436EB4"/>
<path fill-rule="evenodd" clip-rule="evenodd" d="M187 332.062C186.03 339.592 187.03 346.932 190 354.062C191.33 354.062 192.67 354.062 194 354.062C192.86 349.322 191.53 344.652 190 340.062C190 338.062 190 336.062 190 334.062C200.85 334.392 211.51 334.052 222 333.062C224.67 333.062 227.33 333.062 230 333.062C229.86 342.392 231.86 351.062 236 359.062C236.27 360.662 235.93 361.992 235 363.062C219.08 363.402 203.24 362.402 187.5 360.062C184.38 359.672 181.88 360.672 180 363.062C177.3 356.672 173.8 350.672 169.5 345.062C166.46 337.412 165.12 329.412 165.5 321.062C164.13 319.972 163.8 318.632 164.5 317.062C169.99 325.042 177.49 330.042 187 332.062Z" fill="#42416F"/>
<path fill-rule="evenodd" clip-rule="evenodd" d="M236 359.061C231.86 351.061 229.86 342.391 230 333.061C227.33 333.061 224.67 333.061 222 333.061C211 333.061 200 333.061 189 333.061C188.7 335.621 189.03 337.951 190 340.061C191.53 344.651 192.86 349.321 194 354.061C192.67 354.061 191.33 354.061 190 354.061C187.03 346.931 186.03 339.591 187 332.061C193.76 330.761 200.76 330.101 208 330.061C216.38 329.981 224.72 330.481 233 331.561C234.07 339.501 235.74 347.331 238 355.061C238.16 356.911 237.49 358.251 236 359.061Z" fill="#F0C617"/>
<path fill-rule="evenodd" clip-rule="evenodd" d="M222 333.062C211.51 334.052 200.85 334.392 190 334.062C190 336.062 190 338.062 190 340.062C189.03 337.952 188.7 335.622 189 333.062C200 333.062 211 333.062 222 333.062Z" fill="#9B8235"/>
<path fill-rule="evenodd" clip-rule="evenodd" d="M326 340.062C331.67 338.752 334.01 340.752 333 346.062C326.33 353.902 318 359.062 308 361.562C305.49 362.982 303.16 364.652 301 366.562C298.62 367.172 296.29 367.512 294 367.562C291.85 364.422 289.85 361.252 288 358.062C291.26 355.842 294.93 354.672 299 354.562C307.78 349.172 316.78 344.342 326 340.062Z" fill="#C3204E"/>
<path fill-rule="evenodd" clip-rule="evenodd" d="M210 348.062C211 348.062 212 348.062 213 348.062C211.5 348.872 209.84 349.532 208 350.062C207.11 350.882 206.78 351.882 207 353.062C215.13 351.512 215.63 352.172 208.5 355.062C207.36 354.572 206.19 354.242 205 354.062C205.73 352.852 206.07 351.522 206 350.062C203.44 350.362 201.11 350.032 199 349.062C202.73 349.242 206.4 348.902 210 348.062Z" fill="#685A4A"/>
<path fill-rule="evenodd" clip-rule="evenodd" d="M205 354.062C206.19 354.242 207.36 354.572 208.5 355.062C215.63 352.172 215.13 351.512 207 353.062C206.78 351.882 207.11 350.882 208 350.062C209.84 349.532 211.5 348.872 213 348.062C215 346.582 216.67 344.752 218 342.562C215.35 342.062 212.69 341.902 210 342.062C210 344.062 210 346.062 210 348.062C206.4 348.902 202.73 349.242 199 349.062C197.48 348.372 196.48 347.202 196 345.562C197.96 343.062 198.62 340.392 198 337.562C201.6 336.602 204.93 337.102 208 339.062C213.24 337.742 218.57 337.072 224 337.062C223.43 341.672 221.43 345.672 218 349.062C220.17 349.242 222.5 349.402 225 349.562C228.38 350.592 229.54 352.762 228.5 356.062C225.03 357.912 223.2 356.912 223 353.062C218.02 355.032 213.02 357.032 208 359.062C204.66 358.452 203.66 356.782 205 354.062Z" fill="#ECC21B"/>
<path fill-rule="evenodd" clip-rule="evenodd" d="M201 342.062C202.33 342.062 203.67 342.062 205 342.062C205 343.062 205 344.062 205 345.062C203.67 345.062 202.33 345.062 201 345.062C201 344.062 201 343.062 201 342.062Z" fill="#423B65"/>
<path fill-rule="evenodd" clip-rule="evenodd" d="M213 348.062C212 348.062 211 348.062 210 348.062C210 346.062 210 344.062 210 342.062C212.69 341.902 215.35 342.062 218 342.562C216.67 344.752 215 346.582 213 348.062Z" fill="#403D65"/>
<path fill-rule="evenodd" clip-rule="evenodd" d="M164 358.062C166.51 361.562 168.84 365.222 171 369.062C165.86 373.032 160.86 377.202 156 381.562C155 382.232 154 382.232 153 381.562C149.61 379.032 147.28 375.862 146 372.062C151.64 367.102 157.64 362.432 164 358.062Z" fill="#F1C411"/>
<path fill-rule="evenodd" clip-rule="evenodd" d="M235 363.062C234.83 367.232 235.5 371.232 237 375.062C217.98 375.782 199.31 373.612 181 368.562C180.09 366.862 179.76 365.032 180 363.062C181.88 360.672 184.38 359.672 187.5 360.062C203.24 362.402 219.08 363.402 235 363.062Z" fill="#BF224E"/>
<path fill-rule="evenodd" clip-rule="evenodd" d="M283 368.062C283.62 368.172 284.12 368.502 284.5 369.062C285.17 371.392 285.17 373.732 284.5 376.062C278.05 384.192 269.89 389.022 260 390.562C259.11 388.952 258.11 387.452 257 386.062C256.58 383.242 257.58 381.072 260 379.562C266.63 376.912 272.63 373.242 278 368.562C279.63 368.072 281.3 367.902 283 368.062Z" fill="#F2C410"/>
<path fill-rule="evenodd" clip-rule="evenodd" d="M210 384.062C211.23 387.522 212.73 390.852 214.5 394.062C215.48 400.262 214.82 406.262 212.5 412.062C209.35 416.222 205.35 417.552 200.5 416.062C199.83 413.392 199.83 410.732 200.5 408.062C202.8 406.432 204.3 404.272 205 401.562C201.63 395.332 198.97 388.832 197 382.062C200.95 380.802 204.95 380.802 209 382.062C209.36 382.742 209.7 383.412 210 384.062Z" fill="#242425"/>
<path fill-rule="evenodd" clip-rule="evenodd" d="M259 402.062C258.99 409.252 255.99 414.752 250 418.562C244.51 419.052 242.67 416.552 244.5 411.062C245.8 408.272 247.3 405.602 249 403.062C245.3 397.232 242.97 390.902 242 384.062C241.87 383.182 242.2 382.522 243 382.062C247.27 389.652 252.6 396.322 259 402.062Z" fill="#242425"/>
</svg>
