<svg width="500" height="500" viewBox="0 0 500 500" fill="none" xmlns="http://www.w3.org/2000/svg">
<path fill-rule="evenodd" clip-rule="evenodd" d="M347 376.062C348.681 372.982 349.348 369.642 349 366.062C352.581 365.302 356.248 364.802 360 364.562C364.645 361.482 369.645 359.152 375 357.562C376.391 355.172 378.391 353.502 381 352.562C382.243 351.412 383.243 350.072 384 348.562C378.992 348.062 373.992 347.562 369 347.062C369.03 346.062 368.53 345.402 367.5 345.062C364.639 344.512 361.973 343.512 359.5 342.062C358.829 342.812 357.996 343.152 357 343.062C357.111 342.442 357.444 341.942 358 341.562C354.618 339.692 354.284 337.522 357 335.062C358.501 333.812 360.168 332.812 362 332.062C364.893 335.992 368.893 338.162 374 338.562C379 340.562 384 340.562 389 338.562C391.585 336.302 394.418 334.472 397.5 333.062C399.604 328.422 401.104 323.582 402 318.562C400.069 297.972 394.735 278.312 386 259.562C387.58 256.292 388.58 252.792 389 249.062C384.743 221.122 376.743 194.292 365 168.562C368.823 163.792 372.323 158.622 375.5 153.062C378.301 142.412 374.801 134.912 365 130.562C360.347 128.952 355.681 127.452 351 126.062C349.201 126.142 347.534 126.642 346 127.562C343.009 130.552 340.843 134.052 339.5 138.062C338.696 139.362 337.529 140.032 336 140.062C322.737 135.472 309.404 130.972 296 126.562C268.039 121.052 240.039 120.712 212 125.562C207.609 126.742 203.276 128.072 199 129.562C195.296 131.742 191.629 133.912 188 136.062C186.471 136.032 185.304 135.362 184.5 134.062C183.097 125.832 178.597 120.172 171 117.062C157.26 118.972 147.76 126.312 142.5 139.062C142.578 147.212 146.244 153.212 153.5 157.062C154.167 159.062 154.167 161.062 153.5 163.062C148.479 169.092 143.812 175.422 139.5 182.062C129.343 199.692 122.01 218.362 117.5 238.062C116.379 246.352 115.713 254.682 115.5 263.062C113.527 269.012 110.527 274.342 106.5 279.062C100.237 293.902 98.5708 309.232 101.5 325.062C103 327.232 104.5 329.392 106 331.562C113.041 332.222 120.041 331.892 127 330.562C131.168 328.472 135.502 326.972 140 326.062C140.992 325.892 141.658 326.222 142 327.062C141.575 329.682 140.575 332.012 139 334.062C131.391 339.002 123.058 341.162 114 340.562C112.289 341.692 111.789 343.192 112.5 345.062C122.022 351.602 132.189 356.772 143 360.562C144.77 364.082 147.436 364.922 151 363.062C152.037 364.492 152.704 366.162 153 368.062C153.863 369.982 154.529 371.982 155 374.062C135.215 369.922 118.049 360.922 103.5 347.062C98.6766 339.082 94.6766 330.752 91.4998 322.062C89.6946 300.672 94.6946 281.002 106.5 263.062C106.997 245.912 109.997 229.242 115.5 213.062C123.378 194.972 132.545 177.632 143 161.062C140.25 157.232 137.75 153.232 135.5 149.062C134.043 144.822 133.709 140.492 134.5 136.062C141.5 119.732 153.833 110.732 171.5 109.062C174.13 109.022 176.63 109.522 179 110.562C183.975 114.532 187.809 119.362 190.5 125.062C194.384 122.712 198.551 120.872 203 119.562C210.859 117.122 218.859 115.452 227 114.562C251.184 112.992 275.184 114.322 299 118.562C310.559 123.082 322.225 126.752 334 129.562C338.415 120.162 345.748 116.492 356 118.562C365.962 120.952 374.462 125.792 381.5 133.062C383.946 139.852 384.613 146.852 383.5 154.062C381.176 160.042 378.342 165.712 375 171.062C386.204 196.002 393.538 222.002 397 249.062C397.082 252.322 396.082 255.152 394 257.562C404.357 278.872 409.191 301.372 408.5 325.062C406.767 331.932 404.433 338.592 401.5 345.062C396.333 350.232 391.167 355.392 386 360.562C380.169 363.642 374.502 366.972 369 370.562C361.569 372.082 354.235 373.922 347 376.062Z" fill="#B25D3E"/>
<path fill-rule="evenodd" clip-rule="evenodd" d="M362.001 332.062C362.928 325.752 363.095 319.422 362.501 313.062C360.088 310.502 358.421 307.502 357.501 304.062C357.615 300.872 357.448 297.872 357.001 295.062C362.32 291.072 362.32 286.902 357.001 282.562C355.476 281.552 353.809 281.052 352.001 281.062C352.001 280.062 352.001 279.062 352.001 278.062C361.75 250.502 359.583 223.842 345.501 198.062C335.528 188.422 324.695 179.922 313.001 172.562C276.637 158.492 239.637 156.492 202.001 166.562C196.967 168.572 191.967 170.912 187.001 173.562C164.003 188.622 149.503 209.782 143.501 237.062C140.416 254.302 142.25 270.962 149.001 287.062C149.001 289.062 149.001 291.062 149.001 293.062C147.128 294.422 145.462 296.092 144.001 298.062C142.656 297.212 141.656 296.052 141.001 294.562C140.334 293.892 139.668 293.892 139.001 294.562C137.797 297.682 136.13 300.522 134.001 303.062C136.746 310.532 138.746 318.202 140.001 326.062C135.503 326.972 131.169 328.472 127.001 330.562C120.042 331.892 113.042 332.222 106.001 331.562C104.501 329.392 103.001 327.232 101.501 325.062C98.5717 309.232 100.238 293.902 106.501 279.062C110.528 274.342 113.528 269.012 115.501 263.062C115.714 254.682 116.38 246.352 117.501 238.062C122.011 218.362 129.344 199.692 139.501 182.062C143.813 175.422 148.48 169.092 153.501 163.062C154.168 161.062 154.168 159.062 153.501 157.062C146.245 153.212 142.579 147.212 142.501 139.062C147.761 126.312 157.261 118.972 171.001 117.062C178.598 120.172 183.098 125.832 184.501 134.062C185.305 135.362 186.472 136.032 188.001 136.062C191.63 133.912 195.297 131.742 199.001 129.562C203.277 128.072 207.61 126.742 212.001 125.562C240.04 120.712 268.04 121.052 296.001 126.562C309.405 130.972 322.738 135.472 336.001 140.062C337.53 140.032 338.697 139.362 339.501 138.062C340.844 134.052 343.01 130.552 346.001 127.562C347.535 126.642 349.202 126.142 351.001 126.062C355.682 127.452 360.348 128.952 365.001 130.562C374.802 134.912 378.302 142.412 375.501 153.062C372.324 158.622 368.824 163.792 365.001 168.562C376.744 194.292 384.744 221.122 389.001 249.062C388.581 252.792 387.581 256.292 386.001 259.562C394.736 278.312 400.07 297.972 402.001 318.562C401.105 323.582 399.605 328.422 397.501 333.062C394.419 334.472 391.586 336.302 389.001 338.562C384.001 340.562 379.001 340.562 374.001 338.562C368.894 338.162 364.894 335.992 362.001 332.062Z" fill="#F18758"/>
<path fill-rule="evenodd" clip-rule="evenodd" d="M161.999 126.062C166.566 126.082 170.4 127.752 173.499 131.062C174.166 132.732 174.166 134.392 173.499 136.062C168.604 138.752 164.437 142.252 160.999 146.562C153.39 147.282 150.224 143.782 151.499 136.062C154.183 131.882 157.683 128.542 161.999 126.062Z" fill="#FCF8F7"/>
<path fill-rule="evenodd" clip-rule="evenodd" d="M242 129.062C243 129.062 244 129.062 245 129.062C243.517 133.202 240.517 135.532 236 136.062C235.851 135.012 236.017 134.012 236.5 133.062C238.515 131.862 240.349 130.532 242 129.062Z" fill="#222324"/>
<path fill-rule="evenodd" clip-rule="evenodd" d="M248.999 132.062C252.349 131.892 255.682 132.062 258.999 132.562C260.994 135.232 263.661 136.892 266.999 137.562C271.971 141.092 273.137 145.592 270.499 151.062C264.618 153.282 259.784 151.952 255.999 147.062C254.183 148.372 252.516 149.872 250.999 151.562C243.499 153.392 240.666 150.562 242.499 143.062C244.125 140.432 246.125 138.102 248.499 136.062C248.989 134.772 249.156 133.432 248.999 132.062Z" fill="#282726"/>
<path fill-rule="evenodd" clip-rule="evenodd" d="M264 129.062C267.294 128.822 270.294 129.652 273 131.562C273.837 132.572 274.17 133.742 274 135.062C271.451 134.052 268.785 133.222 266 132.562C264.677 131.742 264.011 130.582 264 129.062Z" fill="#262525"/>
<path fill-rule="evenodd" clip-rule="evenodd" d="M350.999 138.062C360.639 135.862 365.973 139.522 366.999 149.062C367.753 155.472 365.086 158.302 358.999 157.562C355.785 152.682 351.618 148.852 346.499 146.062C346.032 142.352 347.532 139.682 350.999 138.062Z" fill="#FCF7F5"/>
<path fill-rule="evenodd" clip-rule="evenodd" d="M251 139.062C252.495 138.972 253.495 139.642 254 141.062C253.148 145.582 250.481 147.922 246 148.062C246.378 144.302 248.044 141.302 251 139.062Z" fill="#EFEFEF"/>
<path fill-rule="evenodd" clip-rule="evenodd" d="M260 140.062C265 140.392 267.667 143.062 268 148.062C261.703 148.722 259.036 146.052 260 140.062Z" fill="#F9F9F9"/>
<path fill-rule="evenodd" clip-rule="evenodd" d="M352 278.062C352.166 263.042 351.666 248.042 350.5 233.062C344.904 208.462 330.738 190.632 308 179.562C300.655 178.232 293.655 175.892 287 172.562C274.662 169.882 262.162 168.382 249.5 168.062C226.616 167.152 205.449 172.652 186 184.562C167.573 198.552 156.073 217.052 151.5 240.062C150.709 255.892 149.876 271.552 149 287.062C142.249 270.962 140.415 254.302 143.5 237.062C149.502 209.782 164.002 188.622 187 173.562C191.966 170.912 196.966 168.572 202 166.562C239.636 156.492 276.636 158.492 313 172.562C324.694 179.922 335.527 188.422 345.5 198.062C359.582 223.842 361.749 250.502 352 278.062Z" fill="#B25D3E"/>
<path fill-rule="evenodd" clip-rule="evenodd" d="M352 278.062C352 279.062 352 280.062 352 281.062C348 281.732 345.667 284.062 345 288.062C341.77 295.452 336.104 298.952 328 298.562C323.806 301.422 320.306 304.922 317.5 309.062C316.421 311.622 315.921 314.292 316 317.062C317.291 316.822 318.291 317.162 319 318.062C311.948 316.782 308.781 319.782 309.5 327.062C308.324 328.762 307.157 330.422 306 332.062C304.174 330.102 303.674 327.772 304.5 325.062C305.843 321.702 307.676 318.702 310 316.062C311.663 311.462 313.329 306.802 315 302.062C318.928 297.142 321.428 291.482 322.5 285.062C322.866 277.932 324.033 270.932 326 264.062C325.138 260.112 324.805 256.112 325 252.062C323.991 249.032 323.991 246.032 325 243.062C330.032 247.152 335.699 249.322 342 249.562C344.765 246.592 344.432 243.932 341 241.562C335.072 237.442 329.072 233.612 323 230.062C323.664 227.752 323.997 225.252 324 222.562C323.551 215.722 323.051 208.892 322.5 202.062C321.608 198.612 319.942 195.612 317.5 193.062C317.934 197.012 317.934 201.012 317.5 205.062C315.763 209.222 314.763 213.552 314.5 218.062C313.57 220.502 312.403 222.832 311 225.062C311.363 225.742 311.696 226.412 312 227.062C307.609 225.882 303.276 224.552 299 223.062C297.607 218.382 296.107 213.712 294.5 209.062C289.973 201.342 285.973 193.342 282.5 185.062C283.499 195.082 283.166 205.082 281.5 215.062C278.717 219.512 275.55 223.682 272 227.562C270.667 228.232 269.333 228.232 268 227.562C265.797 223.512 263.797 219.352 262 215.062C257.414 224.032 252.747 232.862 248 241.562C246 242.232 244 242.232 242 241.562C239.29 238.932 236.956 236.102 235 233.062C233.9 231.962 233.233 230.622 233 229.062C229.033 216.192 225.533 203.192 222.5 190.062C219.422 196.552 216.088 202.882 212.5 209.062C207.167 212.562 202.667 216.892 199 222.062C196.333 223.062 193.667 224.062 191 225.062C189.631 223.592 188.464 221.932 187.5 220.062C186.136 211.002 184.469 202.002 182.5 193.062C180.802 194.832 179.469 196.832 178.5 199.062C177.56 210.442 176.393 221.772 175 233.062C172.752 236.812 169.919 240.152 166.5 243.062C164.889 251.302 167.723 253.632 175 250.062C174.834 257.072 175 264.072 175.5 271.062C177.41 278.092 178.91 285.092 180 292.062C179.94 292.602 179.607 292.942 179 293.062C178.071 291.872 177.738 290.542 178 289.062C175.237 289.302 173.071 290.642 171.5 293.062C167.701 288.822 164.867 289.492 163 295.062C159.423 292.092 156.256 292.422 153.5 296.062C152.229 294.682 150.729 293.682 149 293.062C149 291.062 149 289.062 149 287.062C149.876 271.552 150.709 255.892 151.5 240.062C156.073 217.052 167.573 198.552 186 184.562C205.449 172.652 226.616 167.152 249.5 168.062C262.162 168.382 274.662 169.882 287 172.562C293.655 175.892 300.655 178.232 308 179.562C330.738 190.632 344.904 208.462 350.5 233.062C351.666 248.042 352.166 263.042 352 278.062Z" fill="#FACCAA"/>
<path fill-rule="evenodd" clip-rule="evenodd" d="M299.001 223.062C284.479 221.242 274.645 227.242 269.501 241.062C262.978 270.202 274.478 283.362 304.001 280.562C308.457 278.582 312.291 275.752 315.501 272.062C318.988 265.422 322.155 258.762 325.001 252.062C324.806 256.112 325.139 260.112 326.001 264.062C324.034 270.932 322.867 277.932 322.501 285.062C321.429 291.482 318.929 297.142 315.001 302.062C311.64 303.242 308.64 305.082 306.001 307.562C285.922 314.462 265.256 317.132 244.001 315.562C227.868 310.102 211.535 305.602 195.001 302.062C193.107 297.992 191.44 293.832 190.001 289.562C188.366 289.022 187.033 289.522 186.001 291.062C183.64 289.592 181.64 289.922 180.001 292.062C178.911 285.092 177.411 278.092 175.501 271.062C175.001 264.072 174.835 257.072 175.001 250.062C178.002 247.232 181.168 244.562 184.501 242.062C182.944 251.462 184.277 260.462 188.501 269.062C199.903 282.992 213.07 284.822 228.001 274.562C233.027 269.342 237.193 263.512 240.501 257.062C242.075 249.872 240.409 243.542 235.501 238.062C235.007 236.432 234.841 234.762 235.001 233.062C236.957 236.102 239.291 238.932 242.001 241.562C244.001 242.232 246.001 242.232 248.001 241.562C252.748 232.862 257.415 224.032 262.001 215.062C263.798 219.352 265.798 223.512 268.001 227.562C269.334 228.232 270.668 228.232 272.001 227.562C275.551 223.682 278.718 219.512 281.501 215.062C283.167 205.082 283.5 195.082 282.501 185.062C285.974 193.342 289.974 201.342 294.501 209.062C296.108 213.712 297.608 218.382 299.001 223.062Z" fill="#FAF9F9"/>
<path fill-rule="evenodd" clip-rule="evenodd" d="M233 229.062C222.643 222.392 211.31 220.052 199 222.062C202.667 216.892 207.167 212.562 212.5 209.062C216.088 202.882 219.422 196.552 222.5 190.062C225.533 203.192 229.033 216.192 233 229.062Z" fill="#FAFAF9"/>
<path fill-rule="evenodd" clip-rule="evenodd" d="M191 225.062C185.441 227.292 180.108 229.952 175 233.062C176.393 221.772 177.56 210.442 178.5 199.062C179.469 196.832 180.802 194.832 182.5 193.062C184.469 202.002 186.136 211.002 187.5 220.062C188.464 221.932 189.631 223.592 191 225.062Z" fill="#FAF9F8"/>
<path fill-rule="evenodd" clip-rule="evenodd" d="M323 230.062C319.093 229.832 315.426 228.832 312 227.062C311.696 226.412 311.363 225.742 311 225.062C312.403 222.832 313.57 220.502 314.5 218.062C314.763 213.552 315.763 209.222 317.5 205.062C317.934 201.012 317.934 197.012 317.5 193.062C319.942 195.612 321.608 198.612 322.5 202.062C323.051 208.892 323.551 215.722 324 222.562C323.997 225.252 323.664 227.752 323 230.062Z" fill="#FAF9F8"/>
<path fill-rule="evenodd" clip-rule="evenodd" d="M232.999 229.062C233.232 230.622 233.899 231.962 234.999 233.062C234.839 234.762 235.005 236.432 235.499 238.062C240.407 243.542 242.073 249.872 240.499 257.062C237.191 263.512 233.025 269.342 227.999 274.562C213.068 284.822 199.901 282.992 188.499 269.062C184.275 260.462 182.942 251.462 184.499 242.062C181.166 244.562 178 247.232 174.999 250.062C167.722 253.632 164.888 251.302 166.499 243.062C169.918 240.152 172.751 236.812 174.999 233.062C180.107 229.952 185.44 227.292 190.999 225.062C193.666 224.062 196.332 223.062 198.999 222.062C211.309 220.052 222.642 222.392 232.999 229.062Z" fill="#050505"/>
<path fill-rule="evenodd" clip-rule="evenodd" d="M298.999 223.062C303.275 224.552 307.608 225.882 311.999 227.062C315.425 228.832 319.092 229.832 322.999 230.062C329.071 233.612 335.071 237.442 340.999 241.562C344.431 243.932 344.764 246.592 341.999 249.562C335.698 249.322 330.031 247.152 324.999 243.062C323.99 246.032 323.99 249.032 324.999 252.062C322.153 258.762 318.986 265.422 315.499 272.062C312.289 275.752 308.455 278.582 303.999 280.562C274.476 283.362 262.976 270.202 269.499 241.062C274.643 227.242 284.477 221.242 298.999 223.062Z" fill="#040403"/>
<path fill-rule="evenodd" clip-rule="evenodd" d="M285.001 230.062C289.781 229.202 293.281 230.872 295.501 235.062C295.493 239.442 294.827 243.782 293.501 248.062C290.546 251.842 286.713 253.002 282.001 251.562C279.823 249.762 277.99 247.592 276.501 245.062C275.711 241.932 276.044 238.932 277.501 236.062C280.345 234.402 282.845 232.402 285.001 230.062Z" fill="#F4F4F4"/>
<path fill-rule="evenodd" clip-rule="evenodd" d="M218 232.062C228.29 232.192 231.79 237.192 228.5 247.062C220.202 258.612 214.036 257.612 210 244.062C211.183 239.012 213.85 235.012 218 232.062Z" fill="#F8F8F8"/>
<path fill-rule="evenodd" clip-rule="evenodd" d="M352 281.062C353.808 281.052 355.475 281.552 357 282.562C362.319 286.902 362.319 291.072 357 295.062C351.104 295.602 347.104 293.262 345 288.062C345.667 284.062 348 281.732 352 281.062Z" fill="#FE3836"/>
<path fill-rule="evenodd" clip-rule="evenodd" d="M263 295.062C260.36 294.612 258.027 293.442 256 291.562C249.572 290.542 243.405 291.372 237.5 294.062C236.735 293.992 236.235 293.662 236 293.062C235.494 289.552 236.16 286.392 238 283.562C244 282.892 250 282.892 256 283.562C265.784 283.322 268.117 287.152 263 295.062Z" fill="#F58997"/>
<path fill-rule="evenodd" clip-rule="evenodd" d="M180 292.062C181.639 289.922 183.639 289.592 186 291.062C187.032 289.522 188.365 289.022 190 289.562C191.439 293.832 193.106 297.992 195 302.062C195.799 304.992 196.132 307.992 196 311.062C196.002 317.082 196.335 323.082 197 329.062C197.065 329.502 196.899 329.832 196.5 330.062C196.092 328.152 194.925 327.152 193 327.062C183.955 329.722 174.955 332.062 166 334.062C157.982 331.722 149.982 329.392 142 327.062C141.658 326.222 140.992 325.892 140 326.062C138.745 318.202 136.745 310.532 134 303.062C136.129 300.522 137.796 297.682 139 294.562C139.667 293.892 140.333 293.892 141 294.562C141.655 296.052 142.655 297.212 144 298.062C145.461 296.092 147.127 294.422 149 293.062C150.729 293.682 152.229 294.682 153.5 296.062C156.256 292.422 159.423 292.092 163 295.062C164.867 289.492 167.701 288.822 171.5 293.062C173.071 290.642 175.237 289.302 178 289.062C177.738 290.542 178.071 291.872 179 293.062C179.607 292.942 179.94 292.602 180 292.062Z" fill="#91EA5E"/>
<path fill-rule="evenodd" clip-rule="evenodd" d="M344.999 288.062C347.103 293.262 351.103 295.602 356.999 295.062C357.446 297.872 357.613 300.872 357.499 304.062C358.419 307.502 360.086 310.502 362.499 313.062C363.093 319.422 362.926 325.752 361.999 332.062C360.167 332.812 358.5 333.812 356.999 335.062C356.526 333.652 355.526 332.992 353.999 333.062C359.258 324.772 359.258 316.432 353.999 308.062C349.288 307.732 344.954 306.402 340.999 304.062C336.858 308.492 332.024 311.822 326.499 314.062C325.727 313.922 325.06 313.582 324.499 313.062C323.18 314.852 322.347 316.852 321.999 319.062C321.108 318.452 320.108 318.122 318.999 318.062C318.29 317.162 317.29 316.822 315.999 317.062C315.92 314.292 316.42 311.622 317.499 309.062C320.305 304.922 323.805 301.422 327.999 298.562C336.103 298.952 341.769 295.452 344.999 288.062Z" fill="#CFCBC9"/>
<path fill-rule="evenodd" clip-rule="evenodd" d="M263 295.062C257.599 305.862 249.599 308.032 239 301.562C235.738 299.262 234.738 296.432 236 293.062C236.235 293.662 236.735 293.992 237.5 294.062C243.405 291.372 249.572 290.542 256 291.562C258.027 293.442 260.36 294.612 263 295.062Z" fill="#F5A4A7"/>
<path fill-rule="evenodd" clip-rule="evenodd" d="M185 296.062C187.152 296.642 187.485 297.802 186 299.562C170.341 300.592 154.841 302.752 139.5 306.062C137.259 305.882 136.759 305.052 138 303.562C153.691 300.322 169.358 297.822 185 296.062Z" fill="#3AD071"/>
<path fill-rule="evenodd" clip-rule="evenodd" d="M195 302.062C211.534 305.602 227.867 310.102 244 315.562C265.255 317.132 285.921 314.462 306 307.562C308.639 305.082 311.639 303.242 315 302.062C313.329 306.802 311.663 311.462 310 316.062C300.781 318.522 291.447 320.682 282 322.562C269.715 324.112 257.382 325.112 245 325.562C242.754 326.602 240.587 327.772 238.5 329.062C237.282 334.552 238.449 339.392 242 343.562C246.211 344.912 250.377 346.412 254.5 348.062C260.899 348.072 267.399 347.902 274 347.562C282.913 345.282 291.913 343.442 301 342.062C301.057 343.172 301.39 344.172 302 345.062C299.667 345.392 298.333 346.732 298 349.062C297.28 351.622 295.613 353.452 293 354.562C291 353.772 289 353.932 287 355.062C282.137 354.742 277.47 355.072 273 356.062C258.625 357.422 245.125 354.752 232.5 348.062C228.039 348.902 223.539 349.242 219 349.062C216.333 349.062 213.667 349.062 211 349.062C207.563 347.622 203.897 346.622 200 346.062C199.097 343.172 198.764 340.172 199 337.062C209.319 337.742 219.653 338.082 230 338.062C229.834 334.052 230.001 330.052 230.5 326.062C232.185 324.542 233.685 322.882 235 321.062C222.068 317.212 209.068 313.882 196 311.062C196.132 307.992 195.799 304.992 195 302.062Z" fill="#B35E3F"/>
<path fill-rule="evenodd" clip-rule="evenodd" d="M354 333.062C345.347 330.342 336.68 327.512 328 324.562C326.104 322.492 324.104 320.662 322 319.062C322.348 316.852 323.181 314.852 324.5 313.062C325.061 313.582 325.728 313.922 326.5 314.062C332.025 311.822 336.859 308.492 341 304.062C344.955 306.402 349.289 307.732 354 308.062C359.259 316.432 359.259 324.772 354 333.062Z" fill="#844210"/>
<path fill-rule="evenodd" clip-rule="evenodd" d="M172 307.062C173.784 308.132 174.951 309.802 175.5 312.062C177.086 312.942 178.586 313.942 180 315.062C181.333 316.062 181.333 317.062 180 318.062C175.666 316.572 172.666 313.742 171 309.562C171.243 308.662 171.577 307.822 172 307.062Z" fill="#F66159"/>
<path fill-rule="evenodd" clip-rule="evenodd" d="M180 307.062C183.643 307.682 184.643 309.682 183 313.062C181.249 311.502 180.249 309.502 180 307.062Z" fill="#F75E59"/>
<path fill-rule="evenodd" clip-rule="evenodd" d="M196 311.062C209.068 313.882 222.068 317.212 235 321.062C233.685 322.882 232.185 324.542 230.5 326.062C230.001 330.052 229.834 334.052 230 338.062C219.653 338.082 209.319 337.742 199 337.062C198.698 334.192 198.031 331.522 197 329.062C196.335 323.082 196.002 317.082 196 311.062Z" fill="#F18758"/>
<path fill-rule="evenodd" clip-rule="evenodd" d="M160 311.062C161.617 312.152 162.45 313.822 162.5 316.062C163.314 318.462 163.147 320.802 162 323.062C161.414 322.852 160.914 322.522 160.5 322.062C159.179 318.362 159.013 314.692 160 311.062Z" fill="#F56359"/>
<path fill-rule="evenodd" clip-rule="evenodd" d="M310.001 316.062C307.677 318.702 305.844 321.702 304.501 325.062C303.675 327.772 304.175 330.102 306.001 332.062C303.253 334.892 301.586 338.222 301.001 342.062C291.914 343.442 282.914 345.282 274.001 347.562C267.4 347.902 260.9 348.072 254.501 348.062C250.378 346.412 246.212 344.912 242.001 343.562C238.45 339.392 237.283 334.552 238.501 329.062C240.588 327.772 242.755 326.602 245.001 325.562C257.383 325.112 269.716 324.112 282.001 322.562C291.448 320.682 300.782 318.522 310.001 316.062Z" fill="#EC8456"/>
<path fill-rule="evenodd" clip-rule="evenodd" d="M319 318.062C320.109 318.122 321.109 318.452 322 319.062C324.104 320.662 326.104 322.492 328 324.562C336.68 327.512 345.347 330.342 354 333.062C355.527 332.992 356.527 333.652 357 335.062C354.284 337.522 354.618 339.692 358 341.562C357.444 341.942 357.111 342.442 357 343.062C355.116 343.272 353.783 344.272 353 346.062C343.677 348.242 334.344 348.072 325 345.562C324.294 341.182 321.794 338.352 317.5 337.062C316.239 337.322 315.239 337.992 314.5 339.062C313.947 341.922 314.114 344.752 315 347.562C314.975 349.442 314.309 350.942 313 352.062C310.716 351.582 308.716 350.582 307 349.062C305.358 347.762 303.691 346.422 302 345.062C301.39 344.172 301.057 343.172 301 342.062C301.585 338.222 303.252 334.892 306 332.062C307.157 330.422 308.324 328.762 309.5 327.062C308.781 319.782 311.948 316.782 319 318.062Z" fill="#FE3836"/>
<path fill-rule="evenodd" clip-rule="evenodd" d="M147 314.062C147.996 313.972 148.829 314.312 149.5 315.062C150.016 317.592 151.183 319.762 153 321.562C155.119 321.662 156.786 322.492 158 324.062C150.712 325.122 147.045 321.792 147 314.062Z" fill="#F75E59"/>
<path fill-rule="evenodd" clip-rule="evenodd" d="M169 319.062C171.963 318.712 174.296 319.712 176 322.062C173.331 322.802 170.664 322.472 168 321.062C168.363 320.382 168.696 319.712 169 319.062Z" fill="#F36659"/>
<path fill-rule="evenodd" clip-rule="evenodd" d="M142 327.062C149.982 329.392 157.982 331.722 166 334.062C172.745 337.262 179.079 336.422 185 331.562C189.008 330.142 191.341 331.482 192 335.562C191.299 337.942 190.133 340.112 188.5 342.062C187.84 344.612 188.007 347.112 189 349.562C187.907 353.772 185.24 355.102 181 353.562C179.419 351.732 178.085 349.732 177 347.562C166.332 346.862 155.998 344.692 146 341.062C142.005 340.262 139.671 337.922 139 334.062C140.575 332.012 141.575 329.682 142 327.062Z" fill="#FBFBF8"/>
<path fill-rule="evenodd" clip-rule="evenodd" d="M197 329.062C198.031 331.522 198.698 334.192 199 337.062C198.764 340.172 199.097 343.172 200 346.062C200.667 348.062 201.333 350.062 202 352.062C186.104 358.782 169.771 364.122 153 368.062C152.704 366.162 152.037 364.492 151 363.062C148.919 355.822 147.253 348.492 146 341.062C155.998 344.692 166.332 346.862 177 347.562C178.085 349.732 179.419 351.732 181 353.562C185.24 355.102 187.907 353.772 189 349.562C188.007 347.112 187.84 344.612 188.5 342.062C190.133 340.112 191.299 337.942 192 335.562C191.341 331.482 189.008 330.142 185 331.562C179.079 336.422 172.745 337.262 166 334.062C174.955 332.062 183.955 329.722 193 327.062C194.925 327.152 196.092 328.152 196.5 330.062C196.899 329.832 197.065 329.502 197 329.062Z" fill="#F5EA0F"/>
<path fill-rule="evenodd" clip-rule="evenodd" d="M139 334.062C139.671 337.922 142.005 340.262 146 341.062C147.253 348.492 148.919 355.822 151 363.062C147.436 364.922 144.77 364.082 143 360.562C132.189 356.772 122.022 351.602 112.5 345.062C111.789 343.192 112.289 341.692 114 340.562C123.058 341.162 131.391 339.002 139 334.062Z" fill="#DA7B50"/>
<path fill-rule="evenodd" clip-rule="evenodd" d="M357 343.062C357.996 343.152 358.829 342.812 359.5 342.062C361.973 343.512 364.639 344.512 367.5 345.062C368.53 345.402 369.03 346.062 369 347.062C363.968 353.582 357.301 357.582 349 359.062C348.667 359.062 348.333 359.062 348 359.062C339.756 359.712 331.756 358.712 324 356.062C323.084 356.102 322.417 356.442 322 357.062C319.834 362.732 316.668 363.392 312.5 359.062C311.797 356.632 311.963 354.302 313 352.062C314.309 350.942 314.975 349.442 315 347.562C314.114 344.752 313.947 341.922 314.5 339.062C315.239 337.992 316.239 337.322 317.5 337.062C321.794 338.352 324.294 341.182 325 345.562C334.344 348.072 343.677 348.242 353 346.062C353.783 344.272 355.116 343.272 357 343.062Z" fill="#FBF8F8"/>
<path fill-rule="evenodd" clip-rule="evenodd" d="M302 345.062C303.691 346.422 305.358 347.762 307 349.062C300.629 364.482 305.629 374.322 322 378.562C334.787 381.282 341.787 376.112 343 363.062C345.704 362.892 347.371 361.562 348 359.062C348.333 359.062 348.667 359.062 349 359.062C349 361.392 349 363.732 349 366.062C349.348 369.642 348.681 372.982 347 376.062C341.989 382.572 335.322 385.902 327 386.062C320.633 384.892 314.299 383.392 308 381.562C306.463 379.852 304.796 378.352 303 377.062C301 377.062 300 376.062 300 374.062C298.988 370.042 297.988 366.042 297 362.062C297.239 357.722 297.573 353.382 298 349.062C298.333 346.732 299.667 345.392 302 345.062Z" fill="#CCC9C8"/>
<path fill-rule="evenodd" clip-rule="evenodd" d="M369 347.062C373.992 347.562 378.992 348.062 384 348.562C383.243 350.072 382.243 351.412 381 352.562C378.391 353.502 376.391 355.172 375 357.562C369.645 359.152 364.645 361.482 360 364.562C356.248 364.802 352.581 365.302 349 366.062C349 363.732 349 361.392 349 359.062C357.301 357.582 363.968 353.582 369 347.062Z" fill="#D97A4F"/>
<path fill-rule="evenodd" clip-rule="evenodd" d="M200 346.062C203.897 346.622 207.563 347.622 211 349.062C210.46 353.202 209.794 357.202 209 361.062C209.164 358.372 208.997 355.712 208.5 353.062C206.685 354.962 204.685 356.632 202.5 358.062C202.017 359.012 201.851 360.012 202 361.062C201.132 358.232 201.132 355.232 202 352.062C201.333 350.062 200.667 348.062 200 346.062Z" fill="#F4C7A3"/>
<path fill-rule="evenodd" clip-rule="evenodd" d="M211 349.062C213.667 349.062 216.333 349.062 219 349.062C220.765 350.022 222.765 350.352 225 350.062C225 355.732 225 361.392 225 367.062C224.086 370.292 223.753 373.622 224 377.062C223.96 380.552 223.293 383.882 222 387.062C213.119 389.032 204.119 389.532 195 388.562C191.559 387.242 190.225 384.742 191 381.062C191.52 377.022 193.52 373.862 197 371.562C200.417 368.962 204.251 367.462 208.5 367.062C208.995 365.092 209.162 363.092 209 361.062C209.794 357.202 210.46 353.202 211 349.062Z" fill="#FBFAFA"/>
<path fill-rule="evenodd" clip-rule="evenodd" d="M273 356.062C273 359.062 273 362.062 273 365.062C271.494 369.412 268.494 371.582 264 371.562C261.872 368.432 259.372 365.602 256.5 363.062C255.378 365.642 254.378 368.302 253.5 371.062C249.057 371.862 244.557 371.702 240 370.562C236.454 368.012 233.621 364.852 231.5 361.062C229.463 363.272 227.297 365.272 225 367.062C225 361.392 225 355.732 225 350.062C222.765 350.352 220.765 350.022 219 349.062C223.539 349.242 228.039 348.902 232.5 348.062C245.125 354.752 258.625 357.422 273 356.062Z" fill="#FACCAA"/>
<path fill-rule="evenodd" clip-rule="evenodd" d="M307 349.062C308.716 350.582 310.716 351.582 313 352.062C311.963 354.302 311.797 356.632 312.5 359.062C316.668 363.392 319.834 362.732 322 357.062C329.004 359.062 336.004 361.062 343 363.062C341.787 376.112 334.787 381.282 322 378.562C305.629 374.322 300.629 364.482 307 349.062Z" fill="#83400E"/>
<path fill-rule="evenodd" clip-rule="evenodd" d="M298 349.062C297.573 353.382 297.239 357.722 297 362.062C294.24 364.822 290.907 366.152 287 366.062C287 362.392 287 358.732 287 355.062C289 353.932 291 353.772 293 354.562C295.613 353.452 297.28 351.622 298 349.062Z" fill="#F9CBAA"/>
<path fill-rule="evenodd" clip-rule="evenodd" d="M209 361.062C209.162 363.092 208.995 365.092 208.5 367.062C204.251 367.462 200.417 368.962 197 371.562C193.52 373.862 191.52 377.022 191 381.062C186.08 380.112 181.08 379.442 176 379.062C176.128 377.472 176.795 376.142 178 375.062C179.571 375.872 181.238 376.202 183 376.062C182.84 374.362 183.006 372.692 183.5 371.062C185.397 372.582 187.564 373.242 190 373.062C189.715 371.272 190.048 369.612 191 368.062C194.299 372.252 195.965 371.582 196 366.062C197.208 365.332 198.541 364.992 200 365.062C201.676 364.382 202.343 363.042 202 361.062C201.851 360.012 202.017 359.012 202.5 358.062C204.685 356.632 206.685 354.962 208.5 353.062C208.997 355.712 209.164 358.372 209 361.062Z" fill="#CE764D"/>
<path fill-rule="evenodd" clip-rule="evenodd" d="M287 355.062C287 358.732 287 362.392 287 366.062C287 367.732 287 369.392 287 371.062C291.735 370.522 296.069 371.522 300 374.062C300 376.062 301 377.062 303 377.062C305.093 382.712 303.426 386.882 298 389.562C290.531 391.702 283.198 391.532 276 389.062C275.001 385.732 274.001 382.402 273 379.062C273 374.392 273 369.732 273 365.062C273 362.062 273 359.062 273 356.062C277.47 355.072 282.137 354.742 287 355.062Z" fill="#FBFAF9"/>
<path fill-rule="evenodd" clip-rule="evenodd" d="M202 352.062C201.132 355.232 201.132 358.232 202 361.062C202.343 363.042 201.676 364.382 200 365.062C200.039 363.802 199.539 362.802 198.5 362.062C193.374 362.862 188.208 363.692 183 364.562C175.769 366.972 168.436 368.972 161 370.562C159.769 371.742 159.769 372.912 161 374.062C172.386 370.122 184.053 367.452 196 366.062C195.965 371.582 194.299 372.252 191 368.062C190.048 369.612 189.715 371.272 190 373.062C187.564 373.242 185.397 372.582 183.5 371.062C183.006 372.692 182.84 374.362 183 376.062C181.238 376.202 179.571 375.872 178 375.062C176.795 376.142 176.128 377.472 176 379.062C173.333 378.392 170.667 377.732 168 377.062C168.49 379.512 167.657 381.182 165.5 382.062C160.928 380.642 157.428 377.972 155 374.062C154.529 371.982 153.863 369.982 153 368.062C169.771 364.122 186.104 358.782 202 352.062Z" fill="#92EA5D"/>
<path fill-rule="evenodd" clip-rule="evenodd" d="M322 357.062C322.417 356.442 323.084 356.102 324 356.062C331.756 358.712 339.756 359.712 348 359.062C347.371 361.562 345.704 362.892 343 363.062C336.004 361.062 329.004 359.062 322 357.062Z" fill="#F83B38"/>
<path fill-rule="evenodd" clip-rule="evenodd" d="M272.999 365.062C272.999 369.732 272.999 374.392 272.999 379.062C256.628 379.182 240.295 378.522 223.999 377.062C223.752 373.622 224.085 370.292 224.999 367.062C227.296 365.272 229.462 363.272 231.499 361.062C233.62 364.852 236.453 368.012 239.999 370.562C244.556 371.702 249.056 371.862 253.499 371.062C254.377 368.302 255.377 365.642 256.499 363.062C259.371 365.602 261.871 368.432 263.999 371.562C268.493 371.582 271.493 369.412 272.999 365.062Z" fill="#DA7B50"/>
<path fill-rule="evenodd" clip-rule="evenodd" d="M297 362.062C297.988 366.042 298.988 370.042 300 374.062C296.069 371.522 291.735 370.522 287 371.062C287 369.392 287 367.732 287 366.062C290.907 366.152 294.24 364.822 297 362.062Z" fill="#DA7B50"/>
<path fill-rule="evenodd" clip-rule="evenodd" d="M200 365.062C198.541 364.992 197.208 365.332 196 366.062C184.053 367.452 172.386 370.122 161 374.062C159.769 372.912 159.769 371.742 161 370.562C168.436 368.972 175.769 366.972 183 364.562C188.208 363.692 193.374 362.862 198.5 362.062C199.539 362.802 200.039 363.802 200 365.062Z" fill="#3DD070"/>
<path fill-rule="evenodd" clip-rule="evenodd" d="M224 377.062C240.296 378.522 256.629 379.182 273 379.062C274.001 382.402 275.001 385.732 276 389.062C257.991 388.622 239.991 387.952 222 387.062C223.293 383.882 223.96 380.552 224 377.062Z" fill="#B35E3E"/>
</svg>
