<svg width="500" height="500" viewBox="0 0 500 500" fill="none" xmlns="http://www.w3.org/2000/svg">
<path fill-rule="evenodd" clip-rule="evenodd" d="M418 121.061C414.722 119.551 411.722 119.891 409 122.061C398.414 123.791 388.081 126.291 378 129.561C361.798 134.851 345.798 140.351 330 146.061C326.712 146.541 324.045 145.541 322 143.061C313.894 138.501 305.894 133.671 298 128.561C286.357 126.121 274.69 123.791 263 121.561C247.634 120.701 232.301 121.031 217 122.561C215.108 123.531 213.108 124.201 211 124.561C209.437 126.301 207.77 127.801 206 129.061C203.128 131.591 199.795 133.251 196 134.061C195.383 133.951 194.883 133.621 194.5 133.061C193.41 127.451 195.244 122.951 200 119.561C212.484 110.821 226.151 104.491 241 100.561C267.492 96.6411 293.825 91.9811 320 86.5611C353.894 84.4011 385.561 91.7311 415 108.561C417.388 110.611 419.388 112.941 421 115.561C420.36 117.681 419.36 119.511 418 121.061Z" fill="#252424"/>
<path fill-rule="evenodd" clip-rule="evenodd" d="M322 143.061C320.53 144.721 319.863 146.721 320 149.061C321.408 160.081 321.241 171.081 319.5 182.061C306.685 174.581 292.852 169.751 278 167.561C260.015 165.041 242.015 162.381 224 159.561C218.009 159.061 212.009 158.891 206 159.061C206 149.061 206 139.061 206 129.061C207.77 127.801 209.437 126.301 211 124.561C213.108 124.201 215.108 123.531 217 122.561C232.301 121.031 247.634 120.701 263 121.561C274.69 123.791 286.357 126.121 298 128.561C305.894 133.671 313.894 138.501 322 143.061Z" fill="#07B0E4"/>
<path fill-rule="evenodd" clip-rule="evenodd" d="M418.001 121.061C419.01 123.611 419.843 126.281 420.501 129.061C420.834 135.391 421.168 141.731 421.501 148.061C421.821 181.911 421.988 215.741 422.001 249.561C421.904 252.991 421.238 256.161 420.001 259.061C419.351 258.761 418.684 258.421 418.001 258.061C416.291 259.451 414.624 260.781 413.001 262.061C402.473 266.661 392.14 271.821 382.001 277.561C348.32 289.671 315.32 303.341 283.001 318.561C272.481 325.321 261.481 331.321 250.001 336.561C244.159 340.311 238.492 344.311 233.001 348.561C228.888 349.751 225.221 351.581 222.001 354.061C220.668 354.061 219.334 354.061 218.001 354.061C202.007 352.881 186.007 351.711 170.001 350.561C169.249 349.891 168.915 349.061 169.001 348.061C174.054 346.551 179.054 344.881 184.001 343.061C194.027 342.801 204.027 343.141 214.001 344.061C222.355 340.041 230.355 335.211 238.001 329.561C229.007 329.061 220.007 328.891 211.001 329.061C214.001 325.731 217.001 322.391 220.001 319.061C228.668 319.061 237.334 319.061 246.001 319.061C245.51 287.381 244.51 255.721 243.001 224.061C235.272 222.671 227.605 221.001 220.001 219.061C218.826 219.281 217.826 218.951 217.001 218.061C214.175 215.031 211.508 212.031 209.001 209.061C210.486 210.491 211.819 210.331 213.001 208.561C223.748 209.071 234.415 210.571 245.001 213.061C249.125 211.831 252.792 209.831 256.001 207.061C257.001 207.061 258.001 207.061 259.001 207.061C259.001 205.731 259.001 204.391 259.001 203.061C259.769 203.821 260.269 204.821 260.501 206.061C265.781 203.181 271.281 200.681 277.001 198.561C277.882 197.851 278.548 197.021 279.001 196.061C280.563 195.831 281.896 195.161 283.001 194.061C284.447 195.171 286.114 195.341 288.001 194.561C292.913 191.141 298.247 188.471 304.001 186.561C291.018 181.571 277.685 178.241 264.001 176.561C259.745 174.931 255.411 173.601 251.001 172.561C240.588 171.501 230.255 170.171 220.001 168.561C212.334 167.891 204.668 167.891 197.001 168.561C194.817 169.921 192.817 171.421 191.001 173.061C191.001 173.731 190.668 174.061 190.001 174.061C186.763 175.301 183.763 176.961 181.001 179.061C180.34 175.401 180.007 171.731 180.001 168.061C180.744 167.381 181.41 166.711 182.001 166.061C185.774 164.341 189.44 162.341 193.001 160.061C194.264 151.411 195.264 142.751 196.001 134.061C199.796 133.251 203.129 131.591 206.001 129.061C206.001 139.061 206.001 149.061 206.001 159.061C212.01 158.891 218.01 159.061 224.001 159.561C242.016 162.381 260.016 165.041 278.001 167.561C292.853 169.751 306.686 174.581 319.501 182.061C321.242 171.081 321.409 160.081 320.001 149.061C319.864 146.721 320.531 144.721 322.001 143.061C324.046 145.541 326.713 146.541 330.001 146.061C331.258 160.321 331.758 174.651 331.501 189.061C304.21 197.701 278.21 209.371 253.501 224.061C255.261 256.061 256.594 288.061 257.501 320.061C263.086 316.181 268.919 312.681 275.001 309.561C313.205 293.291 351.539 277.291 390.001 261.561C395.96 257.921 402.126 254.751 408.501 252.061C408.947 228.891 409.447 205.731 410.001 182.561C409.265 162.211 408.932 142.041 409.001 122.061C411.723 119.891 414.723 119.551 418.001 121.061Z" fill="#2166B8"/>
<path fill-rule="evenodd" clip-rule="evenodd" d="M409 122.061C408.931 142.041 409.264 162.211 410 182.561C409.446 205.731 408.946 228.891 408.5 252.061C402.125 254.751 395.959 257.921 390 261.561C351.538 277.291 313.204 293.291 275 309.561C268.918 312.681 263.085 316.181 257.5 320.061C256.593 288.061 255.26 256.061 253.5 224.061C278.209 209.371 304.209 197.701 331.5 189.061C331.757 174.651 331.257 160.321 330 146.061C345.798 140.351 361.798 134.851 378 129.561C388.081 126.291 398.414 123.791 409 122.061Z" fill="#15B0E4"/>
<path fill-rule="evenodd" clip-rule="evenodd" d="M216.999 132.061C224.686 130.561 231.186 132.561 236.499 138.061C236.342 155.481 228.342 160.481 212.499 153.061C208.243 144.711 209.743 137.711 216.999 132.061Z" fill="#F0EA24"/>
<path fill-rule="evenodd" clip-rule="evenodd" d="M391 133.061C394.018 132.901 397.018 133.061 400 133.561C400.833 134.391 401.667 135.231 402.5 136.061C403.42 145.801 403.087 155.471 401.5 165.061C387.358 171.221 372.858 176.391 358 180.561C354 181.231 350 181.231 346 180.561C345.167 179.731 344.333 178.891 343.5 178.061C343.043 169.361 342.71 160.691 342.5 152.061C344.333 150.891 345.833 149.391 347 147.561C361.893 143.011 376.56 138.181 391 133.061Z" fill="#F0E811"/>
<path fill-rule="evenodd" clip-rule="evenodd" d="M220 138.061C231.515 136.291 234.181 140.451 228 150.561C220.73 154.151 216.396 151.981 215 144.061C215.965 141.431 217.632 139.431 220 138.061Z" fill="#FCFCF9"/>
<path fill-rule="evenodd" clip-rule="evenodd" d="M288 141.061C305.088 139.741 310.255 147.081 303.5 163.061C302.245 163.771 301.079 164.601 300 165.561C285.679 169.161 278.845 163.661 279.5 149.061C281.598 145.461 284.432 142.791 288 141.061Z" fill="#F4EB17"/>
<path fill-rule="evenodd" clip-rule="evenodd" d="M390 141.061C391.667 141.061 393.333 141.061 395 141.061C395.33 147.431 394.996 153.761 394 160.061C380.712 163.671 367.546 167.671 354.5 172.061C353.728 171.921 353.061 171.581 352.5 171.061C352.29 165.781 351.456 160.621 350 155.561C350.333 155.061 350.667 154.561 351 154.061C359.65 150.501 368.65 148.001 378 146.561C382.144 144.801 386.144 142.971 390 141.061Z" fill="#242325"/>
<path fill-rule="evenodd" clip-rule="evenodd" d="M181.999 166.061C181.408 166.711 180.742 167.381 179.999 168.061C180.005 171.731 180.338 175.401 180.999 179.061C180.697 181.621 181.031 183.951 181.999 186.061C180.666 187.731 180.666 189.391 181.999 191.061C180.708 192.101 180.708 193.271 181.999 194.561C185.059 195.411 188.059 196.411 190.999 197.561C197.421 200.831 203.421 204.661 208.999 209.061C211.506 212.031 214.173 215.031 216.999 218.061C217.824 218.951 218.824 219.281 219.999 219.061C224.86 226.121 228.693 233.781 231.499 242.061C232.647 253.551 233.814 265.051 234.999 276.561C234.499 282.061 233.999 287.561 233.499 293.061C228.739 301.641 224.239 310.301 219.999 319.061C216.999 322.391 213.999 325.731 210.999 329.061C202.09 334.011 193.09 338.681 183.999 343.061C179.052 344.881 174.052 346.551 168.999 348.061C159.046 349.181 149.046 349.341 138.999 348.561C133.353 345.821 127.353 343.821 120.999 342.561C117.759 340.471 114.425 338.641 110.999 337.061C105.305 332.031 99.9724 326.701 94.9994 321.061C89.7444 312.891 85.2444 304.221 81.4994 295.061C73.2664 258.731 84.0994 229.891 113.999 208.561C121.292 203.691 128.792 199.191 136.499 195.061C138.624 182.811 139.624 170.481 139.499 158.061C136.002 155.421 135.169 152.091 136.999 148.061C140.288 145.571 143.955 143.731 147.999 142.561C158.922 141.211 169.589 142.211 179.999 145.561C185.504 148.431 186.337 152.261 182.499 157.061C182.001 160.041 181.834 163.041 181.999 166.061Z" fill="#252424"/>
<path fill-rule="evenodd" clip-rule="evenodd" d="M291 145.061C298.569 146.221 301.069 150.561 298.5 158.061C291.325 164.481 286.825 162.981 285 153.561C285.167 152.391 285.333 151.231 285.5 150.061C287.828 148.901 289.662 147.231 291 145.061Z" fill="#FCFBF5"/>
<path fill-rule="evenodd" clip-rule="evenodd" d="M283 194.061C283.086 193.061 282.752 192.231 282 191.561C274.063 187.491 265.73 184.491 257 182.561C246.539 181.201 236.206 179.201 226 176.561C214.333 175.141 202.667 173.981 191 173.061C192.816 171.421 194.816 169.921 197 168.561C204.667 167.891 212.333 167.891 220 168.561C230.254 170.171 240.587 171.501 251 172.561C255.41 173.601 259.744 174.931 264 176.561C277.684 178.241 291.017 181.571 304 186.561C298.246 188.471 292.912 191.141 288 194.561C286.113 195.341 284.446 195.171 283 194.061Z" fill="#1EAEE2"/>
<path fill-rule="evenodd" clip-rule="evenodd" d="M191 173.061C202.667 173.981 214.333 175.141 226 176.561C236.206 179.201 246.539 181.201 257 182.561C265.73 184.491 274.063 187.491 282 191.561C282.752 192.231 283.086 193.061 283 194.061C281.895 195.161 280.562 195.831 279 196.061C270.023 191.981 260.69 188.811 251 186.561C242.159 185.791 233.492 184.131 225 181.561C213.681 180.401 202.348 179.401 191 178.561C190.12 177.201 189.786 175.701 190 174.061C190.667 174.061 191 173.731 191 173.061Z" fill="#F83734"/>
<path fill-rule="evenodd" clip-rule="evenodd" d="M190 174.061C189.786 175.701 190.12 177.201 191 178.561C202.348 179.401 213.681 180.401 225 181.561C233.492 184.131 242.159 185.791 251 186.561C260.69 188.811 270.023 191.981 279 196.061C278.547 197.021 277.881 197.851 277 198.561C271.28 200.681 265.78 203.181 260.5 206.061C260.268 204.821 259.768 203.821 259 203.061C253.333 200.301 247.333 198.131 241 196.561C224.783 193.781 208.783 190.121 193 185.561C189.245 184.801 185.578 184.971 182 186.061C181.032 183.951 180.698 181.621 181 179.061C183.762 176.961 186.762 175.301 190 174.061Z" fill="#21AFE2"/>
<path fill-rule="evenodd" clip-rule="evenodd" d="M398 180.061C400.082 180.031 401.916 180.701 403.5 182.061C403.833 184.731 404.167 187.391 404.5 190.061C403.347 207.051 403.014 224.051 403.5 241.061C402.691 245.191 400.524 248.351 397 250.561C390.114 254.091 382.947 256.921 375.5 259.061C374.728 258.921 374.061 258.581 373.5 258.061C373.284 256.181 372.617 254.511 371.5 253.061C370.833 233.061 370.833 213.061 371.5 193.061C373.438 190.451 375.938 188.621 379 187.561C384.513 186.471 389.846 184.801 395 182.561C396.442 182.181 397.442 181.351 398 180.061Z" fill="#FB3533"/>
<path fill-rule="evenodd" clip-rule="evenodd" d="M259 203.061C259 204.391 259 205.731 259 207.061C258 207.061 257 207.061 256 207.061C243.111 202.181 229.778 199.011 216 197.561C205.102 193.151 193.769 190.981 182 191.061C180.667 189.391 180.667 187.731 182 186.061C185.578 184.971 189.245 184.801 193 185.561C208.783 190.121 224.783 193.781 241 196.561C247.333 198.131 253.333 200.301 259 203.061Z" fill="#F83734"/>
<path fill-rule="evenodd" clip-rule="evenodd" d="M393 190.061C394 190.061 395 190.061 396 190.061C396.412 200.051 396.745 210.051 397 220.061C397.068 227.451 396.568 234.781 395.5 242.061C390.208 245.461 384.708 248.461 379 251.061C376.879 233.101 376.546 215.101 378 197.061C383.017 194.511 388.017 192.181 393 190.061Z" fill="#27AEE1"/>
<path fill-rule="evenodd" clip-rule="evenodd" d="M182 191.061C193.769 190.981 205.102 193.151 216 197.561C229.778 199.011 243.111 202.181 256 207.061C252.791 209.831 249.124 211.831 245 213.061C234.414 210.571 223.747 209.071 213 208.561C211.818 210.331 210.485 210.491 209 209.061C203.422 204.661 197.422 200.831 191 197.561C188.06 196.411 185.06 195.411 182 194.561C180.709 193.271 180.709 192.101 182 191.061Z" fill="#10AFE3"/>
<path fill-rule="evenodd" clip-rule="evenodd" d="M343 196.061C347.346 195.891 351.679 196.061 356 196.561C356.5 197.061 357 197.561 357.5 198.061C359.295 216.671 360.461 235.341 361 254.061C361.247 258.301 360.413 262.301 358.5 266.061C349.906 269.271 341.739 273.441 334 278.561C328.579 280.921 323.079 283.091 317.5 285.061C316.239 284.801 315.239 284.131 314.5 283.061C313.333 274.731 312.167 266.391 311 258.061C303.914 259.921 296.914 262.091 290 264.561C286.333 265.231 282.667 265.231 279 264.561C278.5 264.061 278 263.561 277.5 263.061C275.681 249.111 275.014 235.111 275.5 221.061C281.946 217.261 288.78 214.091 296 211.561C311.862 206.521 327.528 201.361 343 196.061Z" fill="#FA3634"/>
<path fill-rule="evenodd" clip-rule="evenodd" d="M346.999 202.061C348.332 202.061 349.666 202.061 350.999 202.061C350.795 219.801 351.795 237.471 353.999 255.061C353.666 257.061 353.332 259.061 352.999 261.061C343.71 266.041 334.044 269.881 323.999 272.561C323.145 273.581 322.145 274.421 320.999 275.061C320.307 269.031 319.474 263.031 318.499 257.061C317.693 252.071 314.86 250.241 309.999 251.561C301.479 253.501 293.146 256.001 284.999 259.061C282.924 247.111 282.591 235.111 283.999 223.061C302.628 216.131 321.628 210.301 340.999 205.561C343.226 204.621 345.226 203.451 346.999 202.061Z" fill="#1BB0E3"/>
<path fill-rule="evenodd" clip-rule="evenodd" d="M206.001 263.061C204.036 261.071 201.703 259.571 199.001 258.561C193.474 257.501 188.141 255.831 183.001 253.561C167.092 251.631 159.092 258.791 159.001 275.061C158.26 285.111 162.593 291.611 172.001 294.561C185.162 297.311 193.828 292.311 198.001 279.561C199.388 275.851 200.222 272.021 200.501 268.061C202.242 269.321 204.075 270.321 206.001 271.061C206.483 271.981 206.816 272.981 207.001 274.061C205.059 284.961 201.559 295.301 196.501 305.061C189.668 311.231 182.834 317.391 176.001 323.561C168.841 327.561 161.174 329.391 153.001 329.061C121.146 329.731 101.646 314.391 94.5007 283.061C93.3927 279.471 92.8927 275.811 93.0007 272.061C98.8087 265.031 100.143 265.861 97.0007 274.561C100.129 292.401 110.129 298.401 127.001 292.561C132.387 288.951 136.22 284.121 138.501 278.061C139.168 275.391 139.168 272.731 138.501 270.061C136.276 266.281 134.61 262.281 133.501 258.061C121.019 250.161 108.519 250.161 96.0007 258.061C96.3917 246.771 101.059 237.271 110.001 229.561C117.826 223.481 126.159 218.141 135.001 213.561C144.722 213.191 154.389 213.851 164.001 215.561C186.747 222.811 201.08 237.971 207.001 261.061C206.958 261.981 206.625 262.641 206.001 263.061Z" fill="#CBCBCB"/>
<path fill-rule="evenodd" clip-rule="evenodd" d="M220 219.061C227.604 221.001 235.271 222.671 243 224.061C244.509 255.721 245.509 287.381 246 319.061C237.333 319.061 228.667 319.061 220 319.061C224.24 310.301 228.74 301.641 233.5 293.061C234 287.561 234.5 282.061 235 276.561C233.815 265.051 232.648 253.551 231.5 242.061C228.694 233.781 224.861 226.121 220 219.061Z" fill="#02B0E4"/>
<path fill-rule="evenodd" clip-rule="evenodd" d="M335.001 218.061C337.267 217.701 339.1 218.371 340.501 220.061C341.709 227.341 342.542 234.671 343.001 242.061C344.645 241.851 346.145 242.181 347.501 243.061C351.567 249.731 349.734 254.231 342.001 256.561C338.069 258.211 334.069 259.211 330.001 259.561C327.861 255.701 327.195 251.701 328.001 247.561C329.439 247.341 330.772 246.841 332.001 246.061C331.108 243.481 330.775 240.811 331.001 238.061C320.722 239.521 318.555 235.851 324.501 227.061C327.627 223.421 331.127 220.421 335.001 218.061Z" fill="#FA3E33"/>
<path fill-rule="evenodd" clip-rule="evenodd" d="M334 222.061C336.888 221.781 338.388 223.111 338.5 226.061C338.944 233.111 339.777 240.111 341 247.061C342.342 245.561 344.008 244.891 346 245.061C346.445 247.921 345.778 250.421 344 252.561C339.901 254.651 335.567 255.821 331 256.061C330.444 252.371 331.778 249.701 335 248.061C334.291 242.681 333.291 237.351 332 232.061C329.641 235.541 326.974 235.871 324 233.061C327.355 229.371 330.689 225.711 334 222.061Z" fill="#F7EC01"/>
<path fill-rule="evenodd" clip-rule="evenodd" d="M93.001 272.061C87.409 275.741 84.909 274.401 85.501 268.061C88.239 263.821 91.739 260.491 96.001 258.061C108.519 250.161 121.019 250.161 133.501 258.061C134.61 262.281 136.276 266.281 138.501 270.061C139.168 272.731 139.168 275.391 138.501 278.061C136.22 284.121 132.387 288.951 127.001 292.561C110.129 298.401 100.129 292.401 97.001 274.561C100.143 265.861 98.809 265.031 93.001 272.061Z" fill="#060606"/>
<path fill-rule="evenodd" clip-rule="evenodd" d="M206.001 263.061C208.177 265.081 210.677 266.741 213.501 268.061C213.991 269.351 214.158 270.691 214.001 272.061C211.295 271.981 208.628 271.651 206.001 271.061C204.075 270.321 202.242 269.321 200.501 268.061C200.222 272.021 199.388 275.851 198.001 279.561C193.828 292.311 185.162 297.311 172.001 294.561C162.593 291.611 158.26 285.111 159.001 275.061C159.092 258.791 167.092 251.631 183.001 253.561C188.141 255.831 193.474 257.501 199.001 258.561C201.703 259.571 204.036 261.071 206.001 263.061Z" fill="#040404"/>
<path fill-rule="evenodd" clip-rule="evenodd" d="M172 258.061C176.183 257.911 178.516 259.911 179 264.061C179.734 272.361 176.068 275.521 168 273.561C166.432 271.501 165.098 269.341 164 267.061C164.219 265.621 164.719 264.291 165.5 263.061C167.826 261.491 169.992 259.831 172 258.061Z" fill="#EFEFEF"/>
<path fill-rule="evenodd" clip-rule="evenodd" d="M121 260.061C129.945 259.601 132.778 263.601 129.5 272.061C123.365 278.201 119.199 277.201 117 269.061C117.53 265.671 118.863 262.671 121 260.061Z" fill="#F6F6F6"/>
<path fill-rule="evenodd" clip-rule="evenodd" d="M420 259.061C420.16 260.761 419.994 262.431 419.5 264.061C417.17 267.881 414.67 271.551 412 275.061C408 278.731 404 282.391 400 286.061C390.216 290.951 380.216 295.291 370 299.061C364.136 301.821 358.136 304.321 352 306.561C350.267 307.751 348.6 308.921 347 310.061C337.526 312.771 328.526 316.431 320 321.061C316.581 321.931 313.248 323.101 310 324.561C296.242 332.441 282.242 339.771 268 346.561C265.128 349.101 262.628 351.931 260.5 355.061C256.63 362.131 253.296 369.471 250.5 377.061C244.605 383.541 237.272 387.211 228.5 388.061C209.459 385.691 190.626 382.521 172 378.561C153.243 376.851 134.576 374.681 116 372.061C109.602 370.061 102.936 368.561 95.9996 367.561C90.0116 362.161 87.1786 355.321 87.4996 347.061C86.6836 341.881 86.8496 336.881 87.9996 332.061C90.4466 332.181 92.4466 333.181 93.9996 335.061C94.4296 344.241 95.9296 353.241 98.4996 362.061C98.9136 361.601 99.4136 361.271 99.9996 361.061C115.281 363.561 130.614 365.721 146 367.561C155.278 369.721 164.611 371.551 174 373.061C175.833 372.971 177.166 372.311 178 371.061C181.687 372.901 185.687 373.571 190 373.061C187.869 373.871 185.536 374.371 183 374.561C195.324 375.211 207.491 376.711 219.5 379.061C220.585 370.461 220.085 362.131 218 354.061C219.333 354.061 220.667 354.061 222 354.061C223.322 353.891 224.489 354.221 225.5 355.061C225.833 362.391 226.167 369.731 226.5 377.061C227.277 378.771 228.61 379.771 230.5 380.061C233.651 379.471 236.818 378.971 240 378.561C241.5 376.391 243.333 374.561 245.5 373.061C246.622 368.611 248.622 364.611 251.5 361.061C252.42 358.461 253.087 355.791 253.5 353.061C256.12 349.981 258.62 346.821 261 343.561C265.507 342.051 269.173 339.391 272 335.561C294.045 325.991 315.712 315.661 337 304.561C347.258 301.451 356.925 297.121 366 291.561C377.86 287.351 389.526 282.681 401 277.561C405.977 272.911 410.644 267.911 415 262.561C414.406 262.101 413.739 261.931 413 262.061C414.623 260.781 416.29 259.451 418 258.061C418.683 258.421 419.35 258.761 420 259.061Z" fill="#B72726"/>
<path fill-rule="evenodd" clip-rule="evenodd" d="M413 262.061C413.739 261.931 414.406 262.101 415 262.561C410.644 267.911 405.977 272.911 401 277.561C389.526 282.681 377.86 287.351 366 291.561C356.925 297.121 347.258 301.451 337 304.561C315.712 315.661 294.045 325.991 272 335.561C269.173 339.391 265.507 342.051 261 343.561C258.62 346.821 256.12 349.981 253.5 353.061C253.087 355.791 252.42 358.461 251.5 361.061C248.622 364.611 246.622 368.611 245.5 373.061C243.333 374.561 241.5 376.391 240 378.561C236.818 378.971 233.651 379.471 230.5 380.061C228.61 379.771 227.277 378.771 226.5 377.061C226.167 369.731 225.833 362.391 225.5 355.061C224.489 354.221 223.322 353.891 222 354.061C225.22 351.581 228.887 349.751 233 348.561C238.491 344.311 244.158 340.311 250 336.561C261.48 331.321 272.48 325.321 283 318.561C315.319 303.341 348.319 289.671 382 277.561C392.139 271.821 402.472 266.661 413 262.061Z" fill="#FC3535"/>
<path fill-rule="evenodd" clip-rule="evenodd" d="M293 268.061C298.003 267.651 302.17 269.311 305.5 273.061C307.381 278.141 308.881 283.311 310 288.561C301.687 291.111 293.687 294.441 286 298.561C281.093 300.531 276.093 301.871 271 302.561C269.927 301.251 269.26 299.751 269 298.061C269.512 294.301 270.345 290.631 271.5 287.061C275.217 282.801 279.05 278.631 283 274.561C286.569 272.621 289.902 270.451 293 268.061Z" fill="#FB3533"/>
<path fill-rule="evenodd" clip-rule="evenodd" d="M293.999 275.061C299.014 276.391 301.681 279.721 301.999 285.061C294.238 289.451 286.238 292.951 277.999 295.561C276.557 292.431 277.057 289.601 279.499 287.061C284.126 282.681 288.96 278.681 293.999 275.061Z" fill="#26AFE3"/>
<path fill-rule="evenodd" clip-rule="evenodd" d="M412 275.061C413.663 277.051 414.83 279.391 415.5 282.061C417.14 294.171 415.807 305.841 411.5 317.061C406.709 322.551 401.543 327.721 396 332.561C374.807 343.991 353.807 355.651 333 367.561C308.805 384.401 283.139 398.731 256 410.561C248.443 412.421 240.777 413.591 233 414.061C208.717 411.371 184.717 407.201 161 401.561C144.504 402.941 131.671 396.771 122.5 383.061C119.75 379.691 117.583 376.021 116 372.061C134.576 374.681 153.243 376.851 172 378.561C190.626 382.521 209.459 385.691 228.5 388.061C237.272 387.211 244.605 383.541 250.5 377.061C253.296 369.471 256.63 362.131 260.5 355.061C262.628 351.931 265.128 349.101 268 346.561C282.242 339.771 296.242 332.441 310 324.561C313.248 323.101 316.581 321.931 320 321.061C315.986 334.171 319.653 344.331 331 351.561C342.796 355.301 351.63 351.801 357.5 341.061C363.872 327.111 360.372 316.771 347 310.061C348.6 308.921 350.267 307.751 352 306.561C358.136 304.321 364.136 301.821 370 299.061C366.744 310.131 369.744 318.961 379 325.561C390.891 326.861 399.391 322.031 404.5 311.061C405.167 305.061 405.167 299.061 404.5 293.061C403.488 290.361 401.988 288.021 400 286.061C404 282.391 408 278.731 412 275.061Z" fill="#252424"/>
<path fill-rule="evenodd" clip-rule="evenodd" d="M400 286.061C401.988 288.021 403.488 290.361 404.5 293.061C405.167 299.061 405.167 305.061 404.5 311.061C399.391 322.031 390.891 326.861 379 325.561C369.744 318.961 366.744 310.131 370 299.061C380.216 295.291 390.216 290.951 400 286.061Z" fill="#0EB0E3"/>
<path fill-rule="evenodd" clip-rule="evenodd" d="M160 297.061C162.743 296.641 164.076 297.801 164 300.561C162.16 308.081 157.494 311.081 150 309.561C147.742 307.631 145.242 306.131 142.5 305.061C141.333 300.891 142.833 299.391 147 300.561C148.943 302.121 151.11 303.281 153.5 304.061C156.116 302.181 158.282 299.841 160 297.061Z" fill="#101010"/>
<path fill-rule="evenodd" clip-rule="evenodd" d="M385.001 298.061C393.6 298.861 396.267 303.361 393.001 311.561C384.69 315.341 380.857 312.841 381.501 304.061C382.065 301.671 383.231 299.671 385.001 298.061Z" fill="#CDCCCB"/>
<path fill-rule="evenodd" clip-rule="evenodd" d="M347.001 310.061C360.373 316.771 363.873 327.111 357.501 341.061C351.631 351.801 342.797 355.301 331.001 351.561C319.654 344.331 315.987 334.171 320.001 321.061C328.527 316.431 337.527 312.771 347.001 310.061Z" fill="#0BB0E3"/>
<path fill-rule="evenodd" clip-rule="evenodd" d="M337 323.061C348.118 325.311 349.784 330.471 342 338.561C335.218 340.441 332.052 337.941 332.5 331.061C333.759 328.201 335.259 325.541 337 323.061Z" fill="#CFCCCB"/>
<path fill-rule="evenodd" clip-rule="evenodd" d="M95 321.061C99.973 326.701 105.306 332.031 111 337.061C105.269 336.881 99.602 336.211 94 335.061C92.447 333.181 90.447 332.181 88 332.061C88.313 327.091 90.646 323.421 95 321.061Z" fill="#2A66B6"/>
<path fill-rule="evenodd" clip-rule="evenodd" d="M211 329.061C220.006 328.891 229.006 329.061 238 329.561C230.354 335.211 222.354 340.041 214 344.061C204.026 343.141 194.026 342.801 184 343.061C193.091 338.681 202.091 334.011 211 329.061Z" fill="#02B0E4"/>
<path fill-rule="evenodd" clip-rule="evenodd" d="M94 335.061C99.602 336.211 105.269 336.881 111 337.061C114.426 338.641 117.76 340.471 121 342.561C127.354 343.821 133.354 345.821 139 348.561C149.047 349.341 159.047 349.181 169 348.061C168.914 349.061 169.248 349.891 170 350.561C186.006 351.711 202.006 352.881 218 354.061C220.085 362.131 220.585 370.461 219.5 379.061C207.491 376.711 195.324 375.211 183 374.561C185.536 374.371 187.869 373.871 190 373.061C196.151 371.061 197.651 367.061 194.5 361.061C189.719 358.201 184.552 357.361 179 358.561C174.011 362.341 173.678 366.511 178 371.061C177.166 372.311 175.833 372.971 174 373.061C164.611 371.551 155.278 369.721 146 367.561C130.614 365.721 115.281 363.561 100 361.061C99.414 361.271 98.914 361.601 98.5 362.061C95.93 353.241 94.43 344.241 94 335.061Z" fill="#F83635"/>
<path fill-rule="evenodd" clip-rule="evenodd" d="M289 338.061C295.343 337.781 300.677 339.951 305 344.561C313.447 352.871 314.28 362.041 307.5 372.061C300.401 381.531 291.235 385.031 280 382.561C272.252 379.071 268.919 373.071 270 364.561C268.928 358.041 270.928 352.711 276 348.561C280.232 344.821 284.565 341.321 289 338.061Z" fill="#0BB0E3"/>
<path fill-rule="evenodd" clip-rule="evenodd" d="M108.999 344.061C116.27 343.601 119.103 346.931 117.499 354.061C114.149 358.641 109.649 360.141 103.999 358.561C98.9031 351.401 100.57 346.571 108.999 344.061Z" fill="#252525"/>
<path fill-rule="evenodd" clip-rule="evenodd" d="M132.001 353.061C141.007 352.891 150.007 353.061 159.001 353.561C160.384 356.251 160.884 359.091 160.501 362.061C151.24 363.851 142.24 363.181 133.501 360.061C131.198 358.011 130.698 355.681 132.001 353.061Z" fill="#222524"/>
<path fill-rule="evenodd" clip-rule="evenodd" d="M287 355.061C296.331 353.891 299.831 357.891 297.5 367.061C293.689 372.591 289.189 373.261 284 369.061C281.965 363.621 282.965 358.951 287 355.061Z" fill="#CFCCCB"/>
<path fill-rule="evenodd" clip-rule="evenodd" d="M190 373.061C185.687 373.571 181.687 372.901 178 371.061C173.678 366.511 174.011 362.341 179 358.561C184.552 357.361 189.719 358.201 194.5 361.061C197.651 367.061 196.151 371.061 190 373.061Z" fill="#232524"/>
</svg>
