<svg width="500" height="500" viewBox="0 0 500 500" fill="none" xmlns="http://www.w3.org/2000/svg">
<path fill-rule="evenodd" clip-rule="evenodd" d="M316 106.061C320.67 104.731 325.33 104.731 330 106.061C330.96 112.261 328.46 116.261 322.5 118.061C320.79 118.121 319.46 117.451 318.5 116.061C317.5 112.651 316.67 109.321 316 106.061Z" fill="#F1C30C"/>
<path fill-rule="evenodd" clip-rule="evenodd" d="M304.001 106.061C305.021 112.041 302.691 116.041 297.001 118.061C291.931 116.221 289.591 112.551 290.001 107.061C294.471 106.071 299.141 105.741 304.001 106.061Z" fill="#F1C307"/>
<path fill-rule="evenodd" clip-rule="evenodd" d="M191.001 108.061C191.381 114.191 188.541 117.851 182.501 119.061C177.281 117.291 175.111 113.621 176.001 108.061C176.111 107.441 176.441 106.941 177.001 106.561C181.861 105.681 186.521 106.181 191.001 108.061Z" fill="#F0C317"/>
<path fill-rule="evenodd" clip-rule="evenodd" d="M243.999 107.061C246.029 117.861 241.869 121.861 231.499 119.061C230.749 117.231 229.749 115.561 228.499 114.061C227.999 112.091 227.839 110.091 227.999 108.061C233.139 107.071 238.469 106.741 243.999 107.061Z" fill="#EFC205"/>
<path fill-rule="evenodd" clip-rule="evenodd" d="M278 107.061C277.95 110.491 276.79 113.491 274.5 116.061C265.53 120.301 261.03 117.301 261 107.061C266.67 105.731 272.33 105.731 278 107.061Z" fill="#F3C30F"/>
<path fill-rule="evenodd" clip-rule="evenodd" d="M354 109.061C354.16 111.091 354 113.091 353.5 115.061C351.88 115.661 350.38 116.331 349 117.061C347.46 117.861 345.79 118.191 344 118.061C341.02 115.161 339.35 111.491 339 107.061C341.96 106.451 345.13 106.451 348.5 107.061C350.8 107.111 352.63 107.771 354 109.061Z" fill="#F0C30C"/>
<path fill-rule="evenodd" clip-rule="evenodd" d="M167 108.061C166.63 113.141 164.46 117.141 160.5 120.061C154.59 118.661 151.42 114.991 151 109.061C155.4 108.881 159.73 108.211 164 107.061C165.23 107.081 166.23 107.411 167 108.061Z" fill="#F2C30D"/>
<path fill-rule="evenodd" clip-rule="evenodd" d="M215 108.061C215.09 111.621 214.26 114.951 212.5 118.061C204.79 119.521 201.29 116.191 202 108.061C206.33 106.731 210.67 106.731 215 108.061Z" fill="#F3C308"/>
<path fill-rule="evenodd" clip-rule="evenodd" d="M380 223.061C382.22 222.741 384.06 223.401 385.5 225.061C392.72 234.361 399.56 243.861 406 253.561C405.58 255.741 405.08 257.911 404.5 260.061C399.17 265.891 393.33 271.221 387 276.061C388.89 277.601 390.72 279.271 392.5 281.061C395.54 286.441 394.04 289.441 388 290.061C384.61 289.491 381.61 288.161 379 286.061C377.52 283.271 376.19 280.441 375 277.561C376.48 274.521 377.48 271.361 378 268.061C383.91 264.161 389.58 259.821 395 255.061C391.06 248.461 386.06 242.791 380 238.061C378.96 235.371 377.96 232.711 377 230.061C377.53 227.531 378.53 225.201 380 223.061Z" fill="#242424"/>
<path fill-rule="evenodd" clip-rule="evenodd" d="M128 225.061C130.23 228.861 130.23 232.531 128 236.061C120.31 243.421 113.31 251.421 107 260.061C108.28 261.711 109.95 262.871 112 263.561C117.29 265.051 122.62 266.221 128 267.061C129.82 268.051 131.16 269.551 132 271.561C131.31 275.181 130.31 278.681 129 282.061C126.2 284.361 123.54 286.861 121 289.561C116.81 292.101 113.81 291.101 112 286.561C113.26 282.791 115.26 279.461 118 276.561C111.59 273.851 105.25 270.851 99 267.561C96.5 265.741 94.83 263.411 94 260.561C101.28 247.041 110.95 235.371 123 225.561C124.63 225.071 126.3 224.901 128 225.061Z" fill="#232323"/>
<path fill-rule="evenodd" clip-rule="evenodd" d="M304 106.061C308 106.061 312 106.061 316 106.061C316.67 109.321 317.5 112.651 318.5 116.061C319.46 117.451 320.79 118.121 322.5 118.061C328.46 116.261 330.96 112.261 330 106.061C332.89 106.961 335.89 107.301 339 107.061C339.35 111.491 341.02 115.161 344 118.061C342.35 119.041 341.02 120.371 340 122.061C317.65 122.321 295.32 122.821 273 123.561C272.5 124.061 272 124.561 271.5 125.061C271 128.041 270.84 131.041 271 134.061C263.45 133.971 256.12 134.631 249 136.061C247.42 133.841 246.42 131.181 246 128.061C245.02 130.651 244.69 133.311 245 136.061C239.67 136.731 239.67 137.391 245 138.061C244.9 140.801 245.23 143.461 246 146.061C244.21 145.771 242.55 146.111 241 147.061C240.08 150.321 239.75 153.651 240 157.061C239.67 158.061 239 158.731 238 159.061C233 159.061 228 159.061 223 159.061C219.87 154.071 216.2 153.741 212 158.061C210.33 158.061 208.67 158.061 207 158.061C206.48 154.081 206.15 150.081 206 146.061C206 145.061 206 144.061 206 143.061C210.54 142.521 214.37 143.851 217.5 147.061C218.19 146.531 218.69 145.871 219 145.061C217.89 143.671 216.56 142.501 215 141.561C216.29 141.071 217.63 140.901 219 141.061C219.05 138.271 217.71 136.431 215 135.561C211.68 135.061 208.35 134.891 205 135.061C205.63 131.591 204.63 128.761 202 126.561C196.53 126.411 191.19 125.581 186 124.061C173.96 124.811 161.96 125.981 150 127.561C149.37 128.311 148.87 129.141 148.5 130.061C148 143.061 147.83 156.061 148 169.061C144.77 169.121 142.94 170.791 142.5 174.061C142.99 183.111 147.32 185.451 155.5 181.061C157.92 176.511 157.26 172.511 153.5 169.061C153 162.401 152.83 155.731 153 149.061C153.62 148.951 154.12 148.621 154.5 148.061C155.12 144.341 155.95 140.671 157 137.061C158.83 140.061 160.67 143.061 162.5 146.061C163.17 146.811 164 147.151 165 147.061C164.38 162.051 163.88 177.051 163.5 192.061C159.92 193.311 158.42 195.811 159 199.561C158.64 204.201 160.8 206.701 165.5 207.061C167.65 206.921 169.32 205.921 170.5 204.061C169.54 194.671 169.04 185.171 169 175.561C169.15 167.051 169.49 158.551 170 150.061C175.33 150.061 180.67 150.061 186 150.061C186.49 155.461 187.16 160.791 188 166.061C184.48 171.411 182.48 177.411 182 184.061C180.03 186.571 179.7 189.241 181 192.061C181.07 198.091 180.74 204.091 180 210.061C178.9 211.161 178.23 212.501 178 214.061C169.61 214.361 161.28 214.031 153 213.061C150.86 214.161 148.69 215.161 146.5 216.061C147.61 256.031 148.28 296.031 148.5 336.061C154.4 337.421 160.4 338.421 166.5 339.061C168.63 340.101 170.46 341.601 172 343.561C180.89 345.341 184.39 341.841 182.5 333.061C177.21 327.901 171.71 327.731 166 332.561C161.64 333.091 157.31 332.931 153 332.061C153.13 294.391 152.8 256.721 152 219.061C160.67 219.061 169.33 219.061 178 219.061C179 219.391 179.67 220.061 180 221.061C180 226.391 180 231.731 180 237.061C178.7 238.051 177.37 239.051 176 240.061C171.65 239.791 167.48 240.461 163.5 242.061C162.78 268.391 162.45 294.731 162.5 321.061C163 321.561 163.5 322.061 164 322.561C175.59 324.391 187.26 325.391 199 325.561C203.11 328.631 207.28 328.461 211.5 325.061C212.22 316.121 208.06 312.291 199 313.561C195.81 314.591 194.47 316.751 195 320.061C185.42 320.471 176.08 319.471 167 317.061C167.67 293.071 168 269.071 168 245.061C171 245.061 174 245.061 177 245.061C178 245.731 179 246.391 180 247.061C180 252.061 180 257.061 180 262.061C177.16 266.001 177.49 269.671 181 273.061C180.63 281.461 181.13 289.801 182.5 298.061C183.75 298.771 184.92 299.601 186 300.561C201.66 301.261 217.33 301.761 233 302.061C234.54 302.861 236.21 303.191 238 303.061C239 303.061 240 303.061 241 303.061C239.69 309.231 239.69 315.391 241 321.561C252.67 321.891 264.33 322.231 276 322.561C280.73 329.051 285.9 329.551 291.5 324.061C294.18 315.071 291.01 311.571 282 313.561C280.48 314.911 279.15 316.411 278 318.061C267.05 317.081 256.05 316.751 245 317.061C245.27 312.301 244.94 307.631 244 303.061C264.68 302.921 285.34 303.251 306 304.061C306.76 304.831 307.76 305.331 309 305.561C307.24 314.931 306.58 324.431 307 334.061C291.99 334.391 276.99 334.061 262 333.061C259.43 330.941 256.43 329.611 253 329.061C250.59 328.971 248.76 329.971 247.5 332.061C246.83 334.731 246.83 337.391 247.5 340.061C251.46 342.821 255.3 342.651 259 339.561C261.67 339.391 264.33 339.231 267 339.061C281.66 340.081 296.32 340.241 311 339.561C311.69 338.491 312.19 337.331 312.5 336.061C312.69 326.351 313.19 316.681 314 307.061C313.64 306.381 313.3 305.711 313 305.061C317.24 302.841 321.24 300.171 325 297.061C325.98 294.131 326.32 291.131 326 288.061C326.98 285.271 327.31 282.271 327 279.061C329.67 279.061 332.33 279.061 335 279.061C335.33 289.751 335 300.411 334 311.061C328.77 314.631 327.77 319.131 331 324.561C341.22 328.201 345.38 324.701 343.5 314.061C342.5 313.061 341.5 312.061 340.5 311.061C340.74 299.071 340.74 287.071 340.5 275.061C336.04 274.301 331.54 273.641 327 273.061C329.7 270.111 329.36 267.441 326 265.061C326 262.731 326 260.391 326 258.061C334.72 257.761 343.39 258.091 352 259.061C352.79 281.061 353.45 303.061 354 325.061C347.23 326.241 344.73 330.241 346.5 337.061C349.45 340.841 353.29 342.001 358 340.561C359.2 339.661 360.03 338.491 360.5 337.061C359.6 329.551 358.94 321.891 358.5 314.061C358.17 294.731 357.83 275.391 357.5 256.061C356.01 254.561 354.18 253.721 352 253.561C343.28 253.101 334.94 251.931 327 250.061C328.67 248.081 329.33 245.751 329 243.061C339.58 243.381 350.08 243.051 360.5 242.061C360.8 239.061 360.64 236.061 360 233.061C360.1 230.941 360.93 229.271 362.5 228.061C365.56 218.811 362.39 214.641 353 215.561C347.5 221.111 348 226.281 354.5 231.061C355 233.371 355.16 235.701 355 238.061C345.67 238.061 336.33 238.061 327 238.061C327 234.731 327 231.391 327 228.061C328 228.151 328.83 227.811 329.5 227.061C330.46 223.411 329.96 220.081 328 217.061C328 213.391 328 209.731 328 206.061C329.84 204.801 331.18 203.141 332 201.061C331.75 199.141 330.75 197.811 329 197.061C329.17 190.721 329 184.381 328.5 178.061C326.39 174.281 323.89 170.781 321 167.561C318.4 167.171 316.06 166.341 314 165.061C314.67 164.291 315.51 163.631 316.5 163.061C317 159.411 317.17 155.741 317 152.061C323.59 151.751 330.09 152.081 336.5 153.061C337.28 172.081 336.95 191.081 335.5 210.061C332.19 213.771 331.19 218.111 332.5 223.061C337.58 226.381 341.58 225.381 344.5 220.061C345.34 216.401 344.67 213.071 342.5 210.061C342.17 190.061 341.83 170.061 341.5 150.061C340.6 148.861 339.43 148.031 338 147.561C330.67 146.891 323.33 146.891 316 147.561C314.92 148.521 313.75 149.351 312.5 150.061C312 154.711 311.83 159.381 312 164.061C307.76 161.471 303.09 160.471 298 161.061C295.35 158.781 292.35 158.451 289 160.061C283 160.061 277 160.061 271 160.061C270.31 158.541 269.14 157.541 267.5 157.061C265.74 158.191 263.9 159.191 262 160.061C256.67 160.061 251.33 160.061 246 160.061C245.67 159.391 245.33 158.731 245 158.061C245 155.731 245 153.391 245 151.061C265.71 150.741 286.38 151.071 307 152.061C308.67 151.731 309.67 150.731 310 149.061C308.84 146.501 308.84 144.001 310 141.561C316.67 141.111 323.34 140.611 330 140.061C338.28 141.441 346.61 142.111 355 142.061C354.24 157.381 353.9 172.711 354 188.061C350.86 188.361 348.69 190.031 347.5 193.061C346.26 203.181 350.26 206.511 359.5 203.061C361.43 199.331 361.43 195.661 359.5 192.061C358.61 174.501 359.11 157.001 361 139.561C360.86 138.791 360.52 138.121 360 137.561C342.06 134.851 324.06 134.521 306 136.561C304.16 139.391 303.49 142.551 304 146.061C302.33 146.061 300.67 146.061 299 146.061C300.44 144.741 301.11 143.071 301 141.061C298.91 141.121 297.41 142.121 296.5 144.061C295.15 141.971 294.65 139.631 295 137.061C296.93 137.331 298.6 136.831 300 135.561C298.94 134.371 297.6 133.871 296 134.061C296 132.391 296 130.731 296 129.061C295 129.061 294 129.061 293 129.061C293 130.731 293 132.391 293 134.061C292 134.061 291 134.061 290 134.061C290 135.061 290 136.061 290 137.061C291 137.061 292 137.061 293 137.061C292.76 140.171 293.1 143.171 294 146.061C292 146.061 290 146.061 288 146.061C288.2 144.171 287.54 142.671 286 141.561C288.67 139.231 288.67 136.891 286 134.561C282.68 134.061 279.35 133.891 276 134.061C276 132.061 276 130.061 276 128.061C297.65 127.421 319.31 127.591 341 128.561C349.39 133.181 353.55 130.681 353.5 121.061C352.19 119.371 350.69 118.031 349 117.061C350.38 116.331 351.88 115.661 353.5 115.061C354 113.091 354.16 111.091 354 109.061C367.08 109.291 375.92 115.621 380.5 128.061C380.99 159.731 380.83 191.401 380 223.061C378.53 225.201 377.53 227.531 377 230.061C377.96 232.711 378.96 235.371 380 238.061C379.58 248.101 378.91 258.101 378 268.061C377.48 271.361 376.48 274.521 375 277.561C376.19 280.441 377.52 283.271 379 286.061C379.17 304.061 379 322.061 378.5 340.061C374.84 347.971 368.67 351.971 360 352.061C358.89 343.451 354.73 341.781 347.5 347.061C346.69 349.001 346.19 351.001 346 353.061C342.38 353.801 338.71 354.141 335 354.061C329.46 341.791 324.8 342.131 321 355.061C316.67 355.061 312.33 355.061 308 355.061C307.29 347.501 303.29 344.331 296 345.561C292.9 347.591 291.24 350.421 291 354.061C290.67 354.061 290.33 354.061 290 354.061C289.54 352.681 288.54 352.011 287 352.061C285.32 352.751 283.66 353.411 282 354.061C281.15 351.341 279.98 348.671 278.5 346.061C270.65 343.091 266.82 345.751 267 354.061C259.33 354.061 251.67 354.061 244 354.061C242.58 346.271 238.41 343.941 231.5 347.061C230.51 349.371 229.68 351.701 229 354.061C227.01 353.081 225.01 352.081 223 351.061C220.98 351.081 219.98 352.081 220 354.061C219.33 354.061 218.67 354.061 218 354.061C219.11 348.271 216.78 344.941 211 344.061C205.57 345.201 203.57 348.531 205 354.061C201.33 354.061 197.67 354.061 194 354.061C194.03 346.731 190.36 343.561 183 344.561C179.98 346.741 177.98 349.571 177 353.061C173.67 353.061 170.33 353.061 167 353.061C166.25 342.461 161.75 340.461 153.5 347.061C152.49 348.581 151.99 350.251 152 352.061C147.8 352.181 143.8 351.341 140 349.561C137.96 346.311 135.79 343.141 133.5 340.061C130.31 320.891 128.81 301.551 129 282.061C130.31 278.681 131.31 275.181 132 271.561C131.16 269.551 129.82 268.051 128 267.061C128 256.731 128 246.391 128 236.061C130.23 232.531 130.23 228.861 128 225.061C128.17 192.301 130 159.631 133.5 127.061C136.15 117.911 141.99 111.911 151 109.061C151.42 114.991 154.59 118.661 160.5 120.061C164.46 117.141 166.63 113.141 167 108.061C170 108.061 173 108.061 176 108.061C175.11 113.621 177.28 117.291 182.5 119.061C188.54 117.851 191.38 114.191 191 108.061C194.67 108.061 198.33 108.061 202 108.061C201.29 116.191 204.79 119.521 212.5 118.061C214.26 114.951 215.09 111.621 215 108.061C219.33 108.061 223.67 108.061 228 108.061C227.84 110.091 228 112.091 228.5 114.061C229.75 115.561 230.75 117.231 231.5 119.061C241.87 121.861 246.03 117.861 244 107.061C249.67 107.061 255.33 107.061 261 107.061C261.03 117.301 265.53 120.301 274.5 116.061C276.79 113.491 277.95 110.491 278 107.061C282 107.061 286 107.061 290 107.061C289.59 112.551 291.93 116.221 297 118.061C302.69 116.041 305.02 112.041 304 106.061Z" fill="#169744"/>
<path fill-rule="evenodd" clip-rule="evenodd" d="M327 250.061C334.94 251.931 343.28 253.101 352 253.561C354.18 253.721 356.01 254.561 357.5 256.061C357.83 275.391 358.17 294.731 358.5 314.061C358.94 321.891 359.6 329.551 360.5 337.061C360.03 338.491 359.2 339.661 358 340.561C353.29 342.001 349.45 340.841 346.5 337.061C344.73 330.241 347.23 326.241 354 325.061C353.45 303.061 352.79 281.061 352 259.061C343.39 258.091 334.72 257.761 326 258.061C324.88 255.871 324.88 253.541 326 251.061C326 250.391 326.33 250.061 327 250.061Z" fill="#3E8935"/>
<path fill-rule="evenodd" clip-rule="evenodd" d="M325 240.061C326.9 240.301 328.24 241.301 329 243.061C329.33 245.751 328.67 248.081 327 250.061C326.33 250.061 326 250.391 326 251.061C322.83 252.351 319.67 252.351 316.5 251.061C316 247.071 315.83 243.071 316 239.061C318.98 239.521 321.98 239.861 325 240.061Z" fill="#F4F5F4"/>
<path fill-rule="evenodd" clip-rule="evenodd" d="M175.999 240.061C175.869 241.851 176.199 243.521 176.999 245.061C173.999 245.061 170.999 245.061 167.999 245.061C167.999 269.071 167.669 293.071 166.999 317.061C176.079 319.471 185.419 320.471 194.999 320.061C194.469 316.751 195.809 314.591 198.999 313.561C208.059 312.291 212.219 316.121 211.499 325.061C207.279 328.461 203.109 328.631 198.999 325.561C187.259 325.391 175.589 324.391 163.999 322.561C163.499 322.061 162.999 321.561 162.499 321.061C162.449 294.731 162.779 268.391 163.499 242.061C167.479 240.461 171.649 239.791 175.999 240.061Z" fill="#3F8935"/>
<path fill-rule="evenodd" clip-rule="evenodd" d="M180 247.061C179 246.391 178 245.731 177 245.061C176.2 243.521 175.87 241.851 176 240.061C177.37 239.051 178.7 238.051 180 237.061C183.98 236.231 187.98 236.061 192 236.561C192.96 240.291 193.29 244.121 193 248.061C188.6 248.271 184.27 247.931 180 247.061Z" fill="#F5F6F5"/>
<path fill-rule="evenodd" clip-rule="evenodd" d="M328 217.061C329.96 220.081 330.46 223.411 329.5 227.061C328.83 227.811 328 228.151 327 228.061C323.44 228.981 319.77 229.321 316 229.061C315.83 225.381 316 221.711 316.5 218.061C320.23 217.101 324.06 216.771 328 217.061Z" fill="#F6F8F7"/>
<path fill-rule="evenodd" clip-rule="evenodd" d="M329 243.061C328.24 241.301 326.9 240.301 325 240.061C325 238.731 325.67 238.061 327 238.061C336.33 238.061 345.67 238.061 355 238.061C355.16 235.701 355 233.371 354.5 231.061C348 226.281 347.5 221.111 353 215.561C362.39 214.641 365.56 218.811 362.5 228.061C360.93 229.271 360.1 230.941 360 233.061C360.64 236.061 360.8 239.061 360.5 242.061C350.08 243.051 339.58 243.381 329 243.061Z" fill="#3F8935"/>
<path fill-rule="evenodd" clip-rule="evenodd" d="M178 214.061C178 215.731 178 217.391 178 219.061C169.33 219.061 160.67 219.061 152 219.061C152.8 256.721 153.13 294.391 153 332.061C157.31 332.931 161.64 333.091 166 332.561C171.71 327.731 177.21 327.901 182.5 333.061C184.39 341.841 180.89 345.341 172 343.561C170.46 341.601 168.63 340.101 166.5 339.061C160.4 338.421 154.4 337.421 148.5 336.061C148.28 296.031 147.61 256.031 146.5 216.061C148.69 215.161 150.86 214.161 153 213.061C161.28 214.031 169.61 214.361 178 214.061Z" fill="#3F8935"/>
<path fill-rule="evenodd" clip-rule="evenodd" d="M180 210.061C183.68 209.891 187.35 210.061 191 210.561C192.3 214.681 192.3 218.841 191 223.061C187.3 222.391 183.64 221.731 180 221.061C179.67 220.061 179 219.391 178 219.061C178 217.391 178 215.731 178 214.061C178.23 212.501 178.9 211.161 180 210.061Z" fill="#F2F3F2"/>
<path fill-rule="evenodd" clip-rule="evenodd" d="M319 195.061C322.49 195.101 325.82 195.771 329 197.061C330.75 197.811 331.75 199.141 332 201.061C331.18 203.141 329.84 204.801 328 206.061C324.44 206.981 320.77 207.321 317 207.061C316.41 202.591 317.08 198.591 319 195.061Z" fill="#F5F7F6"/>
<path fill-rule="evenodd" clip-rule="evenodd" d="M181.001 192.061C179.701 189.241 180.031 186.571 182.001 184.061C185.621 182.901 189.281 182.901 193.001 184.061C193.001 188.061 193.001 192.061 193.001 196.061C188.401 196.421 184.401 195.091 181.001 192.061Z" fill="#F6F8F7"/>
<path fill-rule="evenodd" clip-rule="evenodd" d="M207 158.061C208.67 158.061 210.33 158.061 212 158.061C206.44 170.161 210.1 173.831 223 169.061C224.33 165.701 224.33 162.361 223 159.061C228 159.061 233 159.061 238 159.061C231.04 169.771 233.87 173.431 246.5 170.061C248.51 166.611 248.34 163.281 246 160.061C251.33 160.061 256.67 160.061 262 160.061C261.01 162.711 260.01 165.381 259 168.061C259.47 170.861 261.14 172.201 264 172.061C266.89 171.321 269.72 170.991 272.5 171.061C273.38 167.131 272.88 163.461 271 160.061C277 160.061 283 160.061 289 160.061C286.39 163.571 285.39 167.571 286 172.061C290.33 172.061 294.67 172.061 299 172.061C299.79 170.951 300.29 169.621 300.5 168.061C300.61 172.881 303.11 175.051 308 174.561C315.7 179.151 319.37 185.981 319 195.061C317.08 198.591 316.41 202.591 317 207.061C320.77 207.321 324.44 206.981 328 206.061C328 209.731 328 213.391 328 217.061C324.06 216.771 320.23 217.101 316.5 218.061C316 221.711 315.83 225.381 316 229.061C319.77 229.321 323.44 228.981 327 228.061C327 231.391 327 234.731 327 238.061C325.67 238.061 325 238.731 325 240.061C321.98 239.861 318.98 239.521 316 239.061C315.83 243.071 316 247.071 316.5 251.061C319.67 252.351 322.83 252.351 326 251.061C324.88 253.541 324.88 255.871 326 258.061C326 260.391 326 262.731 326 265.061C322.44 264.141 318.77 263.801 315 264.061C313.86 268.211 313.86 272.211 315 276.061C315.05 284.861 310.72 290.361 302 292.561C299.35 293.061 296.69 293.221 294 293.061C294 292.061 294 291.061 294 290.061C289.14 289.741 284.47 290.071 280 291.061C280 291.731 280 292.391 280 293.061C276.67 293.061 273.33 293.061 270 293.061C270.27 294.661 269.93 295.991 269 297.061C269 295.061 269 293.061 269 291.061C264.93 291.331 260.93 290.991 257 290.061C256.03 291.961 255.7 293.961 256 296.061C254.98 295.271 254.65 293.601 255 291.061C252.33 291.061 249.67 291.061 247 291.061C247.24 292.351 246.9 293.351 246 294.061C246 292.391 246 290.731 246 289.061C240.23 288.451 234.9 289.111 230 291.061C227 291.061 224 291.061 221 291.061C221.28 292.971 220.95 294.641 220 296.061C220 293.391 220 290.731 220 288.061C215.33 288.061 210.67 288.061 206 288.061C205.28 288.481 204.78 289.141 204.5 290.061C199.95 289.741 195.95 288.081 192.5 285.061C191.52 280.741 192.02 276.741 194 273.061C194.3 268.461 193.97 263.961 193 259.561C190.67 258.891 188.33 258.891 186 259.561C184.09 260.681 182.09 261.521 180 262.061C180 257.061 180 252.061 180 247.061C184.27 247.931 188.6 248.271 193 248.061C193.29 244.121 192.96 240.291 192 236.561C187.98 236.061 183.98 236.231 180 237.061C180 231.731 180 226.391 180 221.061C183.64 221.731 187.3 222.391 191 223.061C192.3 218.841 192.3 214.681 191 210.561C187.35 210.061 183.68 209.891 180 210.061C180.74 204.091 181.07 198.091 181 192.061C184.4 195.091 188.4 196.421 193 196.061C193 192.061 193 188.061 193 184.061C189.28 182.901 185.62 182.901 182 184.061C182.48 177.411 184.48 171.411 188 166.061C189.05 166.211 190.05 166.041 191 165.561C192.81 163.181 195.14 161.511 198 160.561C201.49 160.631 204.49 159.801 207 158.061Z" fill="#6A6A6A"/>
<path fill-rule="evenodd" clip-rule="evenodd" d="M302.001 219.061C306.521 222.151 310.861 225.491 315.001 229.061C315.071 230.831 314.231 231.831 312.501 232.061C310.731 231.331 308.901 230.991 307.001 231.061C305.351 229.591 303.521 228.261 301.501 227.061C301.581 234.161 299.581 240.831 295.501 247.061C289.831 252.771 283.001 254.601 275.001 252.561C269.121 251.221 265.281 247.721 263.501 242.061C260.171 229.911 263.671 220.411 274.001 213.561C275.501 213.391 277.001 213.231 278.501 213.061C286.471 214.551 294.301 216.551 302.001 219.061Z" fill="#060606"/>
<path fill-rule="evenodd" clip-rule="evenodd" d="M275 218.061C278.95 217.841 281.28 219.681 282 223.561C280.82 226.281 279.82 229.111 279 232.061C273.21 234.251 269.54 232.421 268 226.561C268.13 224.931 268.63 223.431 269.5 222.061C271.67 221.071 273.5 219.741 275 218.061Z" fill="#F2F2F2"/>
<path fill-rule="evenodd" clip-rule="evenodd" d="M202 230.061C199.5 232.431 196.5 233.431 193 233.061C192.44 227.691 194.44 223.521 199 220.561C202.27 218.431 205.6 216.601 209 215.061C218.52 210.911 227.86 211.411 237 216.561C239.09 220.741 241.26 224.901 243.5 229.061C244.17 232.061 244.17 235.061 243.5 238.061C237.88 249.621 228.72 254.451 216 252.561C209.86 249.091 206.03 243.921 204.5 237.061C203.76 233.691 204.26 230.521 206 227.561C204.09 227.281 202.75 228.111 202 230.061Z" fill="#070707"/>
<path fill-rule="evenodd" clip-rule="evenodd" d="M229.001 219.061C233.901 219.121 236.231 221.621 236.001 226.561C235.691 231.371 233.191 234.201 228.501 235.061C223.361 233.651 221.691 230.321 223.501 225.061C224.861 222.541 226.691 220.541 229.001 219.061Z" fill="#F5F5F5"/>
<path fill-rule="evenodd" clip-rule="evenodd" d="M301.999 219.061C294.299 216.551 286.469 214.551 278.499 213.061C276.999 213.231 275.499 213.391 273.999 213.561C263.669 220.411 260.169 229.911 263.499 242.061C265.279 247.721 269.119 251.221 274.999 252.561C282.999 254.601 289.829 252.771 295.499 247.061C299.579 240.831 301.579 234.161 301.499 227.061C303.519 228.261 305.349 229.591 306.999 231.061C307.879 251.351 298.879 265.181 279.999 272.561C272.339 273.561 264.679 274.391 256.999 275.061C245.539 274.111 234.199 272.281 222.999 269.561C206.149 261.561 199.149 248.401 201.999 230.061C202.749 228.111 204.089 227.281 205.999 227.561C204.259 230.521 203.759 233.691 204.499 237.061C206.029 243.921 209.859 249.091 215.999 252.561C228.719 254.451 237.879 249.621 243.499 238.061C244.169 235.061 244.169 232.061 243.499 229.061C241.259 224.901 239.089 220.741 236.999 216.561C227.859 211.411 218.519 210.911 208.999 215.061C208.869 212.791 209.869 210.621 211.999 208.561C219.189 203.791 226.859 199.791 234.999 196.561C251.599 193.781 267.929 194.781 283.999 199.561C293.629 203.331 299.629 209.831 301.999 219.061Z" fill="#F8F8F8"/>
<path fill-rule="evenodd" clip-rule="evenodd" d="M264 255.061C266.1 255.321 267.43 256.491 268 258.561C266.26 262.381 263.59 265.381 260 267.561C255.17 266.731 250.67 264.901 246.5 262.061C245.56 259.331 246.56 258.001 249.5 258.061C252.35 259.231 255.18 260.571 258 262.061C259.99 259.731 261.99 257.401 264 255.061Z" fill="#111111"/>
<path fill-rule="evenodd" clip-rule="evenodd" d="M298 161.061C303.09 160.471 307.76 161.471 312 164.061C312.34 164.901 313.01 165.231 314 165.061C316.06 166.341 318.4 167.171 321 167.561C323.89 170.781 326.39 174.281 328.5 178.061C329 184.381 329.17 190.721 329 197.061C325.82 195.771 322.49 195.101 319 195.061C319.37 185.981 315.7 179.151 308 174.561C303.11 175.051 300.61 172.881 300.5 168.061C300.29 169.621 299.79 170.951 299 172.061C298.56 168.411 298.22 164.741 298 161.061Z" fill="#818080"/>
<path fill-rule="evenodd" clip-rule="evenodd" d="M298 161.061C298.22 164.741 298.56 168.411 299 172.061C294.67 172.061 290.33 172.061 286 172.061C285.39 167.571 286.39 163.571 289 160.061C292.35 158.451 295.35 158.781 298 161.061Z" fill="#FBFBFB"/>
<path fill-rule="evenodd" clip-rule="evenodd" d="M271 160.061C272.88 163.461 273.38 167.131 272.5 171.061C269.72 170.991 266.89 171.321 264 172.061C261.14 172.201 259.47 170.861 259 168.061C260.01 165.381 261.01 162.711 262 160.061C263.9 159.191 265.74 158.191 267.5 157.061C269.14 157.541 270.31 158.541 271 160.061Z" fill="#F3F5F4"/>
<path fill-rule="evenodd" clip-rule="evenodd" d="M240.001 157.061C241.791 156.931 243.461 157.261 245.001 158.061C245.331 158.731 245.671 159.391 246.001 160.061C248.341 163.281 248.511 166.611 246.501 170.061C233.871 173.431 231.041 169.771 238.001 159.061C239.001 158.731 239.671 158.061 240.001 157.061Z" fill="#F4F5F4"/>
<path fill-rule="evenodd" clip-rule="evenodd" d="M222.999 159.061C224.329 162.361 224.329 165.701 222.999 169.061C210.099 173.831 206.439 170.161 211.999 158.061C216.199 153.741 219.869 154.071 222.999 159.061Z" fill="#F3F4F3"/>
<path fill-rule="evenodd" clip-rule="evenodd" d="M314 165.061C313.01 165.231 312.34 164.901 312 164.061C311.83 159.381 312 154.711 312.5 150.061C313.75 149.351 314.92 148.521 316 147.561C323.33 146.891 330.67 146.891 338 147.561C339.43 148.031 340.6 148.861 341.5 150.061C341.83 170.061 342.17 190.061 342.5 210.061C344.67 213.071 345.34 216.401 344.5 220.061C341.58 225.381 337.58 226.381 332.5 223.061C331.19 218.111 332.19 213.771 335.5 210.061C336.95 191.081 337.28 172.081 336.5 153.061C330.09 152.081 323.59 151.751 317 152.061C317.17 155.741 317 159.411 316.5 163.061C315.51 163.631 314.67 164.291 314 165.061Z" fill="#3F8935"/>
<path fill-rule="evenodd" clip-rule="evenodd" d="M222.999 136.061C227.669 136.061 232.329 136.061 236.999 136.061C238.679 142.421 236.339 145.421 229.999 145.061C227.739 145.031 225.569 144.691 223.499 144.061C222.999 141.411 222.839 138.751 222.999 136.061Z" fill="#EFF6F0"/>
<path fill-rule="evenodd" clip-rule="evenodd" d="M226 138.061C228.67 138.061 231.33 138.061 234 138.061C234 139.391 234 140.731 234 142.061C231.36 142.821 228.69 142.991 226 142.561C224.77 141.071 224.77 139.571 226 138.061Z" fill="#30913E"/>
<path fill-rule="evenodd" clip-rule="evenodd" d="M205 135.061C208.35 134.891 211.68 135.061 215 135.561C217.71 136.431 219.05 138.271 219 141.061C217.63 140.901 216.29 141.071 215 141.561C216.56 142.501 217.89 143.671 219 145.061C218.69 145.871 218.19 146.531 217.5 147.061C214.37 143.851 210.54 142.521 206 143.061C206 144.061 206 145.061 206 146.061C203.87 143.331 202.54 140.171 202 136.561C202.74 135.521 203.74 135.021 205 135.061Z" fill="#EBF3EB"/>
<path fill-rule="evenodd" clip-rule="evenodd" d="M206 138.061C209.02 137.901 212.02 138.061 215 138.561C211.62 140.631 208.62 140.471 206 138.061Z" fill="#27923E"/>
<path fill-rule="evenodd" clip-rule="evenodd" d="M349 117.061C350.69 118.031 352.19 119.371 353.5 121.061C353.55 130.681 349.39 133.181 341 128.561C319.31 127.591 297.65 127.421 276 128.061C276 130.061 276 132.061 276 134.061C274.03 137.581 273.03 141.581 273 146.061C274 146.061 275 146.061 276 146.061C275.58 143.321 276.74 141.981 279.5 142.061C282.69 142.781 285.52 144.111 288 146.061C290 146.061 292 146.061 294 146.061C295.67 146.061 297.33 146.061 299 146.061C300.67 146.061 302.33 146.061 304 146.061C303.49 142.551 304.16 139.391 306 136.561C324.06 134.521 342.06 134.851 360 137.561C360.52 138.121 360.86 138.791 361 139.561C359.11 157.001 358.61 174.501 359.5 192.061C361.43 195.661 361.43 199.331 359.5 203.061C350.26 206.511 346.26 203.181 347.5 193.061C348.69 190.031 350.86 188.361 354 188.061C353.9 172.711 354.24 157.381 355 142.061C346.61 142.111 338.28 141.441 330 140.061C323.34 140.611 316.67 141.111 310 141.561C308.84 144.001 308.84 146.501 310 149.061C309.67 150.731 308.67 151.731 307 152.061C286.38 151.071 265.71 150.741 245 151.061C245 153.391 245 155.731 245 158.061C243.46 157.261 241.79 156.931 240 157.061C239.75 153.651 240.08 150.321 241 147.061C242.55 146.111 244.21 145.771 246 146.061C253.84 146.301 254.5 144.971 248 142.061C247.25 140.821 246.92 139.491 247 138.061C249.1 138.361 251.1 138.031 253 137.061C251.81 136.131 250.48 135.801 249 136.061C256.12 134.631 263.45 133.971 271 134.061C270.84 131.041 271 128.041 271.5 125.061C272 124.561 272.5 124.061 273 123.561C295.32 122.821 317.65 122.321 340 122.061C341.02 120.371 342.35 119.041 344 118.061C345.79 118.191 347.46 117.861 349 117.061Z" fill="#3E8936"/>
<path fill-rule="evenodd" clip-rule="evenodd" d="M257 136.061C260.68 135.891 264.35 136.061 268 136.561C269.12 139.631 269.28 142.801 268.5 146.061C264.76 147.191 260.92 147.351 257 146.561C255.67 144.231 255.67 141.891 257 139.561C260 139.231 263 138.891 266 138.561C262.51 138.631 259.51 137.801 257 136.061Z" fill="#E3EFE4"/>
<path fill-rule="evenodd" clip-rule="evenodd" d="M259 142.061C261.42 141.751 263.76 142.091 266 143.061C264.83 143.391 263.67 143.731 262.5 144.061C260.82 143.951 259.65 143.291 259 142.061Z" fill="#108F36"/>
<path fill-rule="evenodd" clip-rule="evenodd" d="M299 146.061C297.33 146.061 295.67 146.061 294 146.061C293.1 143.171 292.76 140.171 293 137.061C292 137.061 291 137.061 290 137.061C290 136.061 290 135.061 290 134.061C291 134.061 292 134.061 293 134.061C293 132.391 293 130.731 293 129.061C294 129.061 295 129.061 296 129.061C296 130.731 296 132.391 296 134.061C297.6 133.871 298.94 134.371 300 135.561C298.6 136.831 296.93 137.331 295 137.061C294.65 139.631 295.15 141.971 296.5 144.061C297.41 142.121 298.91 141.121 301 141.061C301.11 143.071 300.44 144.741 299 146.061Z" fill="#EDF6F0"/>
<path fill-rule="evenodd" clip-rule="evenodd" d="M276 134.061C279.35 133.891 282.68 134.061 286 134.561C288.67 136.891 288.67 139.231 286 141.561C287.54 142.671 288.2 144.171 288 146.061C285.52 144.111 282.69 142.781 279.5 142.061C276.74 141.981 275.58 143.321 276 146.061C275 146.061 274 146.061 273 146.061C273.03 141.581 274.03 137.581 276 134.061Z" fill="#E8F4EC"/>
<path fill-rule="evenodd" clip-rule="evenodd" d="M276 137.061C279.07 136.741 282.07 137.081 285 138.061C283.5 138.391 282 138.731 280.5 139.061C278.51 138.991 277.01 138.321 276 137.061Z" fill="#48A45E"/>
<path fill-rule="evenodd" clip-rule="evenodd" d="M249 136.061C250.48 135.801 251.81 136.131 253 137.061C251.1 138.031 249.1 138.361 247 138.061C246.92 139.491 247.25 140.821 248 142.061C254.5 144.971 253.84 146.301 246 146.061C245.23 143.461 244.9 140.801 245 138.061C239.67 137.391 239.67 136.731 245 136.061C244.69 133.311 245.02 130.651 246 128.061C246.42 131.181 247.42 133.841 249 136.061Z" fill="#F0F7F2"/>
<path fill-rule="evenodd" clip-rule="evenodd" d="M205 135.061C203.74 135.021 202.74 135.521 202 136.561C202.54 140.171 203.87 143.331 206 146.061C206.15 150.081 206.48 154.081 207 158.061C204.49 159.801 201.49 160.631 198 160.561C195.14 161.511 192.81 163.181 191 165.561C190.05 166.041 189.05 166.211 188 166.061C187.16 160.791 186.49 155.461 186 150.061C180.67 150.061 175.33 150.061 170 150.061C169.49 158.551 169.15 167.051 169 175.561C169.04 185.171 169.54 194.671 170.5 204.061C169.32 205.921 167.65 206.921 165.5 207.061C160.8 206.701 158.64 204.201 159 199.561C158.42 195.811 159.92 193.311 163.5 192.061C163.88 177.051 164.38 162.051 165 147.061C167.06 143.951 168.89 140.621 170.5 137.061C172.03 139.981 173.36 142.981 174.5 146.061C175.51 146.901 176.68 147.231 178 147.061C177.03 140.811 174.7 135.151 171 130.061C168.61 133.831 166.44 137.831 164.5 142.061C162.08 138.221 159.41 134.551 156.5 131.061C155.83 131.731 155.17 132.391 154.5 133.061C153.52 137.941 152.35 142.771 151 147.561C151.34 148.591 152 149.091 153 149.061C152.83 155.731 153 162.401 153.5 169.061C157.26 172.511 157.92 176.511 155.5 181.061C147.32 185.451 142.99 183.111 142.5 174.061C142.94 170.791 144.77 169.121 148 169.061C147.83 156.061 148 143.061 148.5 130.061C148.87 129.141 149.37 128.311 150 127.561C161.96 125.981 173.96 124.811 186 124.061C191.19 125.581 196.53 126.411 202 126.561C204.63 128.761 205.63 131.591 205 135.061Z" fill="#388C39"/>
<path fill-rule="evenodd" clip-rule="evenodd" d="M181.001 137.061C182.841 139.191 183.841 141.861 184.001 145.061C183.941 146.301 183.441 147.301 182.501 148.061C181.081 144.601 180.581 140.941 181.001 137.061Z" fill="#F2F8F4"/>
<path fill-rule="evenodd" clip-rule="evenodd" d="M188.001 137.061C192.001 137.061 196.001 137.061 200.001 137.061C200.001 138.061 200.001 139.061 200.001 140.061C197.001 140.061 194.001 140.061 191.001 140.061C191.001 141.391 191.001 142.731 191.001 144.061C194.071 143.741 197.071 144.081 200.001 145.061C199.791 145.651 199.461 146.151 199.001 146.561C195.331 147.231 191.671 147.231 188.001 146.561C186.711 143.391 186.711 140.231 188.001 137.061Z" fill="#E0F0E5"/>
<path fill-rule="evenodd" clip-rule="evenodd" d="M165 147.061C164 147.151 163.17 146.811 162.5 146.061C160.67 143.061 158.83 140.061 157 137.061C155.95 140.671 155.12 144.341 154.5 148.061C154.12 148.621 153.62 148.951 153 149.061C152 149.091 151.34 148.591 151 147.561C152.35 142.771 153.52 137.941 154.5 133.061C155.17 132.391 155.83 131.731 156.5 131.061C159.41 134.551 162.08 138.221 164.5 142.061C166.44 137.831 168.61 133.831 171 130.061C174.7 135.151 177.03 140.811 178 147.061C176.68 147.231 175.51 146.901 174.5 146.061C173.36 142.981 172.03 139.981 170.5 137.061C168.89 140.621 167.06 143.951 165 147.061Z" fill="#ECF5EE"/>
<path fill-rule="evenodd" clip-rule="evenodd" d="M193.999 273.061C189.589 273.861 185.259 273.861 180.999 273.061C177.489 269.671 177.159 266.001 179.999 262.061C182.089 261.521 184.089 260.681 185.999 259.561C188.329 258.891 190.669 258.891 192.999 259.561C193.969 263.961 194.299 268.461 193.999 273.061Z" fill="#F2F4F3"/>
<path fill-rule="evenodd" clip-rule="evenodd" d="M326.001 265.061C329.361 267.441 329.701 270.111 327.001 273.061C326.191 274.291 325.191 275.291 324.001 276.061C321.001 276.061 318.001 276.061 315.001 276.061C313.861 272.211 313.861 268.211 315.001 264.061C318.771 263.801 322.441 264.141 326.001 265.061Z" fill="#F5F7F6"/>
<path fill-rule="evenodd" clip-rule="evenodd" d="M180.999 273.061C185.259 273.861 189.589 273.861 193.999 273.061C192.019 276.741 191.519 280.741 192.499 285.061C195.949 288.081 199.949 289.741 204.499 290.061C204.779 289.141 205.279 288.481 205.999 288.061C205.339 300.691 209.999 303.361 219.999 296.061C220.949 294.641 221.279 292.971 220.999 291.061C223.999 291.061 226.999 291.061 229.999 291.061C230.129 295.051 231.129 298.711 232.999 302.061C217.329 301.761 201.659 301.261 185.999 300.561C184.919 299.601 183.749 298.771 182.499 298.061C181.129 289.801 180.629 281.461 180.999 273.061Z" fill="#807F80"/>
<path fill-rule="evenodd" clip-rule="evenodd" d="M327 273.061C331.54 273.641 336.04 274.301 340.5 275.061C340.74 287.071 340.74 299.071 340.5 311.061C341.5 312.061 342.5 313.061 343.5 314.061C345.38 324.701 341.22 328.201 331 324.561C327.77 319.131 328.77 314.631 334 311.061C335 300.411 335.33 289.751 335 279.061C332.33 279.061 329.67 279.061 327 279.061C327.31 282.271 326.98 285.271 326 288.061C326.51 283.751 325.84 279.751 324 276.061C325.19 275.291 326.19 274.291 327 273.061Z" fill="#3E8936"/>
<path fill-rule="evenodd" clip-rule="evenodd" d="M315 276.061C318 276.061 321 276.061 324 276.061C325.84 279.751 326.51 283.751 326 288.061C326.32 291.131 325.98 294.131 325 297.061C321.24 300.171 317.24 302.841 313 305.061C310.89 304.091 308.56 303.761 306 304.061C285.34 303.251 264.68 302.921 244 303.061C243 303.061 242 303.061 241 303.061C240 303.061 239 303.061 238 303.061C241.38 300.681 244.05 297.681 246 294.061C246.9 293.351 247.24 292.351 247 291.061C249.67 291.061 252.33 291.061 255 291.061C254.65 293.601 254.98 295.271 256 296.061C256.76 301.291 259.76 303.131 265 301.561C266.57 300.161 267.9 298.661 269 297.061C269.93 295.991 270.27 294.661 270 293.061C273.33 293.061 276.67 293.061 280 293.061C280.41 300.491 284.08 303.161 291 301.061C292.68 297.951 293.35 294.611 293 291.061C288.67 291.061 284.33 291.061 280 291.061C284.47 290.071 289.14 289.741 294 290.061C294 291.061 294 292.061 294 293.061C296.69 293.221 299.35 293.061 302 292.561C310.72 290.361 315.05 284.861 315 276.061Z" fill="#807F7F"/>
<path fill-rule="evenodd" clip-rule="evenodd" d="M206.001 288.061C210.671 288.061 215.331 288.061 220.001 288.061C220.001 290.731 220.001 293.391 220.001 296.061C210.001 303.361 205.341 300.691 206.001 288.061Z" fill="#F7F7F7"/>
<path fill-rule="evenodd" clip-rule="evenodd" d="M246 294.061C244.05 297.681 241.38 300.681 238 303.061C236.21 303.191 234.54 302.861 233 302.061C231.13 298.711 230.13 295.051 230 291.061C234.9 289.111 240.23 288.451 246 289.061C246 290.731 246 292.391 246 294.061Z" fill="#F5F5F5"/>
<path fill-rule="evenodd" clip-rule="evenodd" d="M269.001 297.061C267.901 298.661 266.571 300.161 265.001 301.561C259.761 303.131 256.761 301.291 256.001 296.061C255.701 293.961 256.031 291.961 257.001 290.061C260.931 290.991 264.931 291.331 269.001 291.061C269.001 293.061 269.001 295.061 269.001 297.061Z" fill="#F6F6F6"/>
<path fill-rule="evenodd" clip-rule="evenodd" d="M280 291.061C284.33 291.061 288.67 291.061 293 291.061C293.35 294.611 292.68 297.951 291 301.061C284.08 303.161 280.41 300.491 280 293.061C280 292.391 280 291.731 280 291.061Z" fill="#F8F8F8"/>
<path fill-rule="evenodd" clip-rule="evenodd" d="M241 303.061C242 303.061 243 303.061 244 303.061C244.94 307.631 245.27 312.301 245 317.061C256.05 316.751 267.05 317.081 278 318.061C279.15 316.411 280.48 314.911 282 313.561C291.01 311.571 294.18 315.071 291.5 324.061C285.9 329.551 280.73 329.051 276 322.561C264.33 322.231 252.67 321.891 241 321.561C239.69 315.391 239.69 309.231 241 303.061Z" fill="#3F8935"/>
<path fill-rule="evenodd" clip-rule="evenodd" d="M226 304.061C228.16 303.681 229.83 304.341 231 306.061C229.39 316.641 228.56 327.301 228.5 338.061C227.31 339.121 226.81 340.461 227 342.061C220.66 341.891 214.32 342.061 208 342.561C204.37 347.891 200.21 348.391 195.5 344.061C191.34 334.221 194.51 330.381 205 332.561C206.19 333.581 207.19 334.751 208 336.061C213.29 337.051 218.63 337.391 224 337.061C223.55 325.931 224.22 314.931 226 304.061Z" fill="#3F8935"/>
<path fill-rule="evenodd" clip-rule="evenodd" d="M306 304.061C308.56 303.761 310.89 304.091 313 305.061C313.3 305.711 313.64 306.381 314 307.061C313.19 316.681 312.69 326.351 312.5 336.061C312.19 337.331 311.69 338.491 311 339.561C296.32 340.241 281.66 340.081 267 339.061C264.33 339.231 261.67 339.391 259 339.561C255.3 342.651 251.46 342.821 247.5 340.061C246.83 337.391 246.83 334.731 247.5 332.061C248.76 329.971 250.59 328.971 253 329.061C256.43 329.611 259.43 330.941 262 333.061C276.99 334.061 291.99 334.391 307 334.061C306.58 324.431 307.24 314.931 309 305.561C307.76 305.331 306.76 304.831 306 304.061Z" fill="#3E8936"/>
<path fill-rule="evenodd" clip-rule="evenodd" d="M167 353.061C161.81 353.381 156.81 353.051 152 352.061C151.99 350.251 152.49 348.581 153.5 347.061C161.75 340.461 166.25 342.461 167 353.061Z" fill="#F1C41A"/>
<path fill-rule="evenodd" clip-rule="evenodd" d="M360 352.061C355.4 352.941 350.73 353.281 346 353.061C346.19 351.001 346.69 349.001 347.5 347.061C354.73 341.781 358.89 343.451 360 352.061Z" fill="#F2C308"/>
<path fill-rule="evenodd" clip-rule="evenodd" d="M194 354.061C192.03 354.721 189.86 355.061 187.5 355.061C183.72 355.181 180.22 354.511 177 353.061C177.98 349.571 179.98 346.741 183 344.561C190.36 343.561 194.03 346.731 194 354.061Z" fill="#F2C30F"/>
<path fill-rule="evenodd" clip-rule="evenodd" d="M218 354.061C216.28 355.361 214.11 356.031 211.5 356.061C208.89 356.031 206.72 355.361 205 354.061C203.57 348.531 205.57 345.201 211 344.061C216.78 344.941 219.11 348.271 218 354.061Z" fill="#F2C307"/>
<path fill-rule="evenodd" clip-rule="evenodd" d="M244 354.061C239.19 355.051 234.19 355.381 229 355.061C229 354.731 229 354.391 229 354.061C229.68 351.701 230.51 349.371 231.5 347.061C238.41 343.941 242.58 346.271 244 354.061Z" fill="#F1C305"/>
<path fill-rule="evenodd" clip-rule="evenodd" d="M308 355.061C302.14 355.381 296.48 355.051 291 354.061C291.24 350.421 292.9 347.591 296 345.561C303.29 344.331 307.29 347.501 308 355.061Z" fill="#F1C206"/>
<path fill-rule="evenodd" clip-rule="evenodd" d="M282 354.061C277 354.061 272 354.061 267 354.061C266.82 345.751 270.65 343.091 278.5 346.061C279.98 348.671 281.15 351.341 282 354.061Z" fill="#F2C305"/>
<path fill-rule="evenodd" clip-rule="evenodd" d="M335 354.061C331.16 354.851 327.16 355.521 323 356.061C322.08 356.021 321.42 355.681 321 355.061C324.8 342.131 329.46 341.791 335 354.061Z" fill="#F2C30D"/>
<path fill-rule="evenodd" clip-rule="evenodd" d="M228.999 354.061C228.999 354.391 228.999 354.731 228.999 355.061C229.169 363.401 228.999 371.731 228.499 380.061C228.319 383.521 227.649 386.851 226.499 390.061C221.179 393.681 215.349 394.841 208.999 393.561C205.369 391.351 204.209 388.191 205.499 384.061C206.399 382.861 207.569 382.031 208.999 381.561C212.669 381.011 216.339 380.511 219.999 380.061C219.999 371.391 219.999 362.731 219.999 354.061C219.979 352.081 220.979 351.081 222.999 351.061C225.009 352.081 227.009 353.081 228.999 354.061Z" fill="#232323"/>
<path fill-rule="evenodd" clip-rule="evenodd" d="M290 354.061C290.07 363.771 290.74 373.441 292 383.061C295.02 382.901 298.02 383.061 301 383.561C304.79 385.611 305.96 388.781 304.5 393.061C304 393.561 303.5 394.061 303 394.561C297 395.231 291 395.231 285 394.561C281.64 392.531 281.31 390.191 284 387.561C283.5 387.061 283 386.561 282.5 386.061C281.81 377.881 280.98 369.711 280 361.561C279.91 358.821 280.58 356.321 282 354.061C283.66 353.411 285.32 352.751 287 352.061C288.54 352.011 289.54 352.681 290 354.061Z" fill="#242424"/>
</svg>
