<svg width="500" height="500" viewBox="0 0 500 500" fill="none" xmlns="http://www.w3.org/2000/svg">
<path fill-rule="evenodd" clip-rule="evenodd" d="M335 142.062C365.7 147.572 396.36 153.402 427 159.562C428.79 160.342 430.29 161.512 431.5 163.062C431.98 184.782 432.98 206.442 434.5 228.062C435.17 257.062 435.17 286.062 434.5 315.062C433.98 323.302 429.82 328.472 422 330.562C394.77 331.972 367.61 334.142 340.5 337.062C331.39 335.272 322.23 333.942 313 333.062C312.35 340.182 310.01 346.682 306 352.562C302.14 354.292 298.14 355.632 294 356.562C260.54 358.062 227.21 356.722 194 352.562C191.69 351.452 190.19 349.622 189.5 347.062C188.5 342.072 187.67 337.072 187 332.062C163.97 337.282 140.97 337.112 118 331.562C105.66 331.102 93.32 330.442 81 329.562C74.96 327.172 71.46 322.672 70.5 316.062C69.51 307.262 69.01 298.422 69 289.562C69.44 248.012 70.94 206.512 73.5 165.062C74.71 163.512 76.21 162.342 78 161.562C106.76 155.682 135.6 150.182 164.5 145.062C184.71 150.792 204.21 158.292 223 167.562C224.15 169.712 225.65 171.542 227.5 173.062C227.81 190.072 228.31 207.072 229 224.062C244 224.312 259 224.642 274 225.062C274.24 221.982 273.91 218.982 273 216.062C273.82 201.102 274.32 186.102 274.5 171.062C278.41 165.632 283.58 161.792 290 159.562C305.09 153.672 320.09 147.842 335 142.062Z" fill="#262626"/>
<path fill-rule="evenodd" clip-rule="evenodd" d="M331.999 153.062C334.289 152.802 336.459 153.142 338.499 154.062C338.589 192.402 338.749 230.732 338.999 269.062C337.399 288.692 336.729 308.352 336.999 328.062C329.469 326.762 321.969 325.432 314.499 324.062C314.869 307.742 315.369 291.402 315.999 275.062C315.919 264.042 315.419 253.042 314.499 242.062C312.509 236.082 309.009 231.252 303.999 227.562C296.719 226.232 289.379 225.402 281.999 225.062C281.469 206.982 282.129 188.982 283.999 171.062C300.239 165.652 316.239 159.652 331.999 153.062Z" fill="#656565"/>
<path fill-rule="evenodd" clip-rule="evenodd" d="M347 153.062C372.76 157.602 398.42 162.602 424 168.062C424.31 189.082 425.14 210.082 426.5 231.062C427.17 260.062 427.17 289.062 426.5 318.062C425.67 320.232 424.17 321.732 422 322.562C396.35 325.062 370.68 327.222 345 329.062C346.87 270.432 347.54 211.762 347 153.062Z" fill="#646464"/>
<path fill-rule="evenodd" clip-rule="evenodd" d="M165 155.062C178.18 158.652 191.18 162.822 204 167.562C209.14 169.162 213.97 171.322 218.5 174.062C219.91 191.022 220.41 208.022 220 225.062C211.62 225.382 203.29 226.212 195 227.562C191.17 230.062 188 233.232 185.5 237.062C182.93 266.032 182.76 295.032 185 324.062C178.81 325.712 172.47 326.712 166 327.062C165.34 281.732 164.68 236.392 164 191.062C164.02 179.022 164.35 167.022 165 155.062Z" fill="#656565"/>
<path fill-rule="evenodd" clip-rule="evenodd" d="M152 155.062C153.67 155.062 155.33 155.062 157 155.062C156.75 212.732 157.09 270.402 158 328.062C132.25 326.642 106.58 324.472 80.9999 321.562C79.7999 320.662 78.9699 319.492 78.4999 318.062C78.1699 313.732 77.8299 309.392 77.4999 305.062C77.1499 260.502 78.3199 216.002 80.9999 171.562C81.4099 170.612 82.0699 169.952 82.9999 169.562C85.3799 169.052 87.7099 168.382 89.9999 167.562C110.89 163.922 131.56 159.752 152 155.062Z" fill="#636363"/>
<path fill-rule="evenodd" clip-rule="evenodd" d="M379.001 169.062C393.251 167.462 402.751 173.462 407.501 187.062C409.681 205.542 401.521 215.042 383.001 215.562C365.361 207.432 360.861 194.602 369.501 177.062C372.861 174.532 376.021 171.862 379.001 169.062Z" fill="#272727"/>
<path fill-rule="evenodd" clip-rule="evenodd" d="M380.001 173.062C390.381 171.122 397.881 174.782 402.501 184.062C406.221 194.182 404.061 202.682 396.001 209.562C384.501 213.732 376.001 210.232 370.501 199.062C368.031 188.292 371.201 179.632 380.001 173.062Z" fill="#BBBBBB"/>
<path fill-rule="evenodd" clip-rule="evenodd" d="M113 171.061C127.12 170.331 135.62 177.001 138.5 191.061C139.01 203.871 133.18 212.371 121 216.561C108.98 217.541 100.81 212.381 96.4998 201.061C94.9298 187.141 100.43 177.141 113 171.061Z" fill="#272727"/>
<path fill-rule="evenodd" clip-rule="evenodd" d="M113.999 174.062C126.689 174.252 133.359 180.752 133.999 193.562C133.079 204.652 127.079 211.152 115.999 213.062C99.5889 208.412 95.4289 198.412 103.499 183.062C105.969 178.762 109.469 175.762 113.999 174.062Z" fill="#BABABA"/>
<path fill-rule="evenodd" clip-rule="evenodd" d="M115.001 181.062C127.091 182.582 130.921 188.912 126.501 200.062C119.321 206.982 112.651 206.642 106.501 199.062C105.831 195.392 105.831 191.732 106.501 188.062C108.961 185.082 111.801 182.752 115.001 181.062Z" fill="#3C3C3C"/>
<path fill-rule="evenodd" clip-rule="evenodd" d="M383.999 179.062C394.969 180.192 399.799 186.192 398.499 197.062C391.119 206.382 383.779 206.382 376.499 197.062C373.239 188.592 375.739 182.592 383.999 179.062Z" fill="#2F2F2F"/>
<path fill-rule="evenodd" clip-rule="evenodd" d="M112.001 186.062C116.671 186.062 119.001 188.392 119.001 193.062C110.991 195.382 108.651 193.052 112.001 186.062Z" fill="#C1C1C1"/>
<path fill-rule="evenodd" clip-rule="evenodd" d="M385.999 184.062C388.919 183.712 391.249 184.712 392.999 187.062C394.329 188.732 394.329 190.392 392.999 192.062C391.329 192.732 389.669 193.392 387.999 194.062C383.609 191.422 382.939 188.092 385.999 184.062Z" fill="#9B9B9B"/>
<path fill-rule="evenodd" clip-rule="evenodd" d="M461 201.062C464.26 202.492 466.76 204.822 468.5 208.062C472.11 214.942 475.44 221.942 478.5 229.062C479.17 236.062 479.17 243.062 478.5 250.062C477.19 252.222 475.52 252.552 473.5 251.062C473.7 235.132 469.03 220.792 459.5 208.062C458.67 205.392 459.17 203.062 461 201.062Z" fill="#3B97FE"/>
<path fill-rule="evenodd" clip-rule="evenodd" d="M46.9999 203.062C52.1799 202.072 54.0099 204.072 52.4999 209.062C35.5099 223.202 27.0099 241.372 26.9999 263.562C24.7999 264.382 22.9699 263.882 21.4999 262.062C19.0799 237.582 27.5799 217.922 46.9999 203.062Z" fill="#3796FE"/>
<path fill-rule="evenodd" clip-rule="evenodd" d="M452.999 216.062C454.639 215.852 456.139 216.182 457.499 217.062C461.459 223.272 464.459 229.942 466.499 237.062C467.289 240.652 467.119 244.152 465.999 247.562C464.129 248.272 462.629 247.772 461.499 246.062C460.739 236.882 457.739 228.552 452.499 221.062C451.859 219.292 452.029 217.632 452.999 216.062Z" fill="#3F98FE"/>
<path fill-rule="evenodd" clip-rule="evenodd" d="M53.999 217.062C57.069 216.482 59.069 217.652 59.999 220.562C50.389 231.482 45.889 244.312 46.499 259.062C44.469 262.422 42.129 262.752 39.499 260.062C37.539 248.742 39.209 238.082 44.499 228.062C47.499 224.232 50.669 220.562 53.999 217.062Z" fill="#3696FE"/>
<path fill-rule="evenodd" clip-rule="evenodd" d="M379.999 226.062C403.099 226.652 416.929 238.322 421.499 261.062C424.079 278.972 419.249 294.472 406.999 307.562C383.849 320.232 366.349 314.732 354.499 291.062C347.709 272.712 349.049 255.042 358.499 238.062C364.529 231.892 371.699 227.892 379.999 226.062Z" fill="#272727"/>
<path fill-rule="evenodd" clip-rule="evenodd" d="M112.999 227.061C124.989 226.671 135.489 230.331 144.499 238.061C150.369 247.691 153.199 258.191 152.999 269.561C153.179 282.691 149.009 294.191 140.499 304.061C127.339 315.961 113.179 317.121 97.9993 307.561C84.2593 293.471 79.4293 276.631 83.4993 257.061C88.6893 242.251 98.5193 232.251 112.999 227.061Z" fill="#262626"/>
<path fill-rule="evenodd" clip-rule="evenodd" d="M445 229.061C446.79 228.771 448.45 229.111 450 230.061C452.83 233.951 453.66 238.281 452.5 243.061C452.09 243.521 451.59 243.851 451 244.061C448.7 241.031 446.87 237.701 445.5 234.061C445.01 232.431 444.84 230.761 445 229.061Z" fill="#3D98FE"/>
<path fill-rule="evenodd" clip-rule="evenodd" d="M221 233.062C247.34 233.212 273.67 233.712 300 234.562C302.12 235.682 303.96 237.182 305.5 239.062C307.32 248.982 308.15 258.982 308 269.062C307.03 288.722 306.2 308.392 305.5 328.062C305.42 334.522 303.58 340.352 300 345.562C296.54 347.302 292.88 348.302 289 348.562C259.24 349.662 229.57 348.662 200 345.562C196.66 342.892 194.83 339.392 194.5 335.062C193.8 321.392 193.13 307.732 192.5 294.062C191.59 276.692 191.92 259.352 193.5 242.062C194.29 239.662 195.46 237.492 197 235.562C205.15 234.722 213.15 233.892 221 233.062Z" fill="#656565"/>
<path fill-rule="evenodd" clip-rule="evenodd" d="M59.9991 232.062C63.4291 231.322 65.0991 232.652 64.9991 236.062C62.9991 240.892 61.4991 245.892 60.4991 251.062C58.8991 254.482 56.8991 254.822 54.4991 252.062C53.3991 244.532 55.2291 237.872 59.9991 232.062Z" fill="#3996FE"/>
<path fill-rule="evenodd" clip-rule="evenodd" d="M232.999 240.061C246.479 239.501 259.819 240.671 272.999 243.561C300.949 252.971 310.119 271.801 300.499 300.061C293.549 310.991 283.709 318.161 270.999 321.561C253.759 324.231 236.759 323.231 219.999 318.561C217.329 317.231 214.669 315.891 211.999 314.561C197.329 300.721 193.169 284.221 199.499 265.061C207.079 251.981 218.249 243.651 232.999 240.061Z" fill="#262626"/>
<path fill-rule="evenodd" clip-rule="evenodd" d="M114 232.061C133.95 231.511 145.12 241.171 147.5 261.061C149.58 277.701 144.75 291.871 133 303.561C122.4 309.531 111.73 309.531 101 303.561C84.3305 284.231 82.8305 263.731 96.5005 242.061C101.45 237.011 107.28 233.681 114 232.061Z" fill="#C3C3C3"/>
<path fill-rule="evenodd" clip-rule="evenodd" d="M114 241.062C132.63 241.192 141.63 250.692 141 269.562C141.14 284.042 134.81 294.372 122 300.562C107.5 301.432 98.6696 294.592 95.4996 280.062C93.3596 268.632 95.3596 257.962 101.5 248.062C105.24 244.782 109.41 242.452 114 241.062Z" fill="#272727"/>
<path fill-rule="evenodd" clip-rule="evenodd" d="M376.999 232.062C396.689 229.272 409.519 237.272 415.499 256.062C418.459 270.932 416.129 284.932 408.499 298.062C398.609 309.652 386.769 312.152 372.999 305.562C360.349 295.082 354.679 281.582 355.999 265.062C355.239 248.872 362.239 237.872 376.999 232.062Z" fill="#C1C1C1"/>
<path fill-rule="evenodd" clip-rule="evenodd" d="M380.001 240.062C397.301 239.522 407.131 247.852 409.501 265.062C410.861 278.312 406.691 289.482 397.001 298.562C379.581 303.422 368.411 296.922 363.501 279.062C362.451 269.922 363.121 260.922 365.501 252.062C369.071 246.302 373.901 242.302 380.001 240.062Z" fill="#262626"/>
<path fill-rule="evenodd" clip-rule="evenodd" d="M383.999 259.062C380.799 259.072 379.139 260.742 378.999 264.062C379.499 266.062 379.999 268.062 380.499 270.062C380.749 268.942 381.249 267.942 381.999 267.062C383.249 268.572 383.249 270.072 381.999 271.562C383.169 272.062 383.999 272.892 384.499 274.062C384.959 270.482 386.459 267.482 388.999 265.062C388.249 263.822 387.919 262.492 387.999 261.062C390.609 262.602 391.939 264.932 391.999 268.062C391.419 271.722 390.919 275.382 390.499 279.062C386.459 286.232 381.459 286.902 375.499 281.062C369.219 270.802 371.389 263.142 381.999 258.062C382.919 258.102 383.579 258.442 383.999 259.062Z" fill="#4C4C4C"/>
<path fill-rule="evenodd" clip-rule="evenodd" d="M114 263.061C115 262.731 115.67 262.061 116 261.061C123.55 258.451 125.72 260.781 122.5 268.061C122.17 267.731 121.83 267.391 121.5 267.061C117.42 269.441 114.92 268.101 114 263.061Z" fill="#D8D8D8"/>
<path fill-rule="evenodd" clip-rule="evenodd" d="M114 263.061C114.92 268.101 117.42 269.441 121.5 267.061C121.83 267.391 122.17 267.731 122.5 268.061C125.72 260.781 123.55 258.451 116 261.061C121.9 257.751 126.73 259.091 130.5 265.061C131.67 270.781 130.83 276.111 128 281.061C122.11 286.911 117.28 286.241 113.5 279.061C113.08 275.381 112.58 271.721 112 268.061C111.94 266.001 112.6 264.341 114 263.061Z" fill="#505050"/>
<path fill-rule="evenodd" clip-rule="evenodd" d="M384 259.062C385.65 259.222 386.99 259.892 388 261.062C387.92 262.492 388.25 263.822 389 265.062C386.46 267.482 384.96 270.482 384.5 274.062C384 272.892 383.17 272.062 382 271.562C383.25 270.072 383.25 268.572 382 267.062C381.25 267.942 380.75 268.942 380.5 270.062C380 268.062 379.5 266.062 379 264.062C379.14 260.742 380.8 259.072 384 259.062Z" fill="#B6B6B6"/>
<path fill-rule="evenodd" clip-rule="evenodd" d="M116 246.062C127.27 245.492 133.43 250.832 134.5 262.062C130.24 255.022 124.08 252.522 116 254.562C108.34 260.972 105.84 269.142 108.5 279.062C111.29 288.862 117.46 292.022 127 288.562C128.86 287.002 130.36 285.172 131.5 283.062C131.67 283.392 131.83 283.732 132 284.062C124.55 298.302 115.38 299.642 104.5 288.062C97.7796 274.782 98.9396 262.282 108 250.562C110.6 248.762 113.27 247.262 116 246.062Z" fill="#919191"/>
<path fill-rule="evenodd" clip-rule="evenodd" d="M378 246.061C392.76 244.641 401.26 251.311 403.5 266.061C404.68 276.531 401.84 285.691 395 293.561C390.16 296.391 385.16 296.731 380 294.561C376.24 291.471 373.24 287.811 371 283.561C373.52 285.371 376.19 287.371 379 289.561C388.97 291.321 394.47 287.151 395.5 277.061C398.72 266.451 395.56 258.611 386 253.561C378.7 252.131 373.2 254.631 369.5 261.061C370.26 254.881 373.09 249.881 378 246.061Z" fill="#919191"/>
<path fill-rule="evenodd" clip-rule="evenodd" d="M239 245.062C249.13 245.242 259.13 246.402 269 248.562C276.23 250.402 282.73 253.572 288.5 258.062C300.11 272.612 300.94 287.782 291 303.562C284.11 309.672 276.11 313.672 267 315.562C250.4 319.032 234.4 317.372 219 310.562C198.54 292.302 197.88 273.302 217 253.562C223.9 249.272 231.23 246.432 239 245.062Z" fill="#BBBBBB"/>
<path fill-rule="evenodd" clip-rule="evenodd" d="M287 270.062C290.3 272.722 293.64 275.382 297 278.062C296.61 279.282 295.78 279.952 294.5 280.062C293.36 279.572 292.19 279.242 291 279.062C289.78 278.532 288.61 277.872 287.5 277.062C286.83 282.082 285.16 286.752 282.5 291.062C274.83 297.732 267.17 297.732 259.5 291.062C254.9 281.382 256.74 273.212 265 266.562C266.67 266.392 268.33 266.232 270 266.062C275.77 266.982 281.43 268.322 287 270.062Z" fill="#090909"/>
<path fill-rule="evenodd" clip-rule="evenodd" d="M266 270.062C267.7 269.902 269.37 270.072 271 270.562C272.18 273.402 272.01 276.232 270.5 279.062C265.79 282.382 262.62 281.212 261 275.562C262.18 273.222 263.85 271.382 266 270.062Z" fill="#EFEFEF"/>
<path fill-rule="evenodd" clip-rule="evenodd" d="M208.999 279.062C207.789 279.792 206.459 280.132 204.999 280.062C204.839 278.032 204.999 276.032 205.499 274.062C208.649 270.252 212.479 267.582 216.999 266.062C224.199 263.172 231.199 263.672 237.999 267.562C246.239 278.892 244.239 287.892 231.999 294.562C223.579 296.932 217.739 294.102 214.499 286.062C212.839 282.452 212.509 278.782 213.499 275.062C212.129 276.602 210.629 277.932 208.999 279.062Z" fill="#090909"/>
<path fill-rule="evenodd" clip-rule="evenodd" d="M231 270.061C235.07 269.071 237.07 270.571 237 274.561C237.22 278.621 235.39 281.121 231.5 282.061C228.89 281.121 227.39 279.281 227 276.561C227.71 274.021 229.04 271.851 231 270.061Z" fill="#F0F0F0"/>
<path fill-rule="evenodd" clip-rule="evenodd" d="M287.001 270.061C281.431 268.321 275.771 266.981 270.001 266.061C268.331 266.231 266.671 266.391 265.001 266.561C256.741 273.211 254.901 281.381 259.501 291.061C267.171 297.731 274.831 297.731 282.501 291.061C285.161 286.751 286.831 282.081 287.501 277.061C288.611 277.871 289.781 278.531 291.001 279.061C290.801 287.491 288.131 294.991 283.001 301.561C267.441 310.711 250.771 313.381 233.001 309.561C222.741 306.301 215.241 299.801 210.501 290.061C209.391 286.471 208.891 282.811 209.001 279.061C210.631 277.931 212.131 276.601 213.501 275.061C212.511 278.781 212.841 282.451 214.501 286.061C217.741 294.101 223.581 296.931 232.001 294.561C244.241 287.891 246.241 278.891 238.001 267.561C231.201 263.671 224.201 263.171 217.001 266.061C216.561 266.131 216.231 265.961 216.001 265.561C226.181 252.981 239.181 248.651 255.001 252.561C269.021 252.741 280.021 258.401 288.001 269.561C287.771 269.961 287.441 270.131 287.001 270.061Z" fill="#F8F8F8"/>
<path fill-rule="evenodd" clip-rule="evenodd" d="M257 298.062C258.33 298.062 259.67 298.062 261 298.062C258.71 307.202 253.71 309.042 246 303.562C244.57 301.682 244.9 300.182 247 299.062C249.11 300.202 251.27 301.202 253.5 302.062C254.9 300.922 256.07 299.582 257 298.062Z" fill="#151515"/>
<path fill-rule="evenodd" clip-rule="evenodd" d="M207.001 321.062C217.541 319.452 222.381 323.782 221.501 334.062C218.211 339.622 213.381 341.792 207.001 340.562C201.391 337.282 199.561 332.452 201.501 326.062C203.201 324.192 205.041 322.522 207.001 321.062Z" fill="#2C2C2C"/>
<path fill-rule="evenodd" clip-rule="evenodd" d="M280.999 325.062C284.749 324.952 288.409 325.452 291.999 326.562C293.829 327.062 294.999 328.232 295.499 330.062C296.859 336.842 294.359 341.672 287.999 344.562C277.749 345.302 273.579 340.472 275.499 330.062C277.229 328.162 279.059 326.492 280.999 325.062Z" fill="#2F2F2F"/>
<path fill-rule="evenodd" clip-rule="evenodd" d="M207 325.062C209.1 324.762 211.1 325.092 213 326.062C209.17 334.062 210.34 334.732 216.5 328.062C217.64 335.572 214.47 338.072 207 335.562C204.38 332.062 204.38 328.562 207 325.062Z" fill="#B8B8B8"/>
<path fill-rule="evenodd" clip-rule="evenodd" d="M282.001 330.062C283.811 331.482 284.471 333.482 284.001 336.062C285.321 336.232 286.491 335.902 287.501 335.062C287.701 333.302 288.201 331.642 289.001 330.062C289.591 330.272 290.091 330.602 290.501 331.062C292.181 339.052 289.181 341.722 281.501 339.062C280.761 335.972 280.931 332.972 282.001 330.062Z" fill="#BEBEBE"/>
<path fill-rule="evenodd" clip-rule="evenodd" d="M230.001 331.062C242.011 331.362 254.011 331.862 266.001 332.562C268.671 334.892 268.671 337.232 266.001 339.562C254.311 340.112 242.651 339.782 231.001 338.562C227.531 336.372 227.201 333.872 230.001 331.062Z" fill="#272727"/>
</svg>
