<svg width="500" height="500" viewBox="0 0 500 500" fill="none" xmlns="http://www.w3.org/2000/svg">
<path fill-rule="evenodd" clip-rule="evenodd" d="M297 182.062C293.82 182.652 291.49 181.652 290 179.062C290.1 176.292 291.43 174.292 294 173.062C303.05 152.732 310.22 131.732 315.5 110.062C317.49 101.222 315.66 93.3915 310 86.5615C299.21 83.6015 290.71 86.7715 284.5 96.0615C280.5 103.392 276.5 110.732 272.5 118.062C270.01 128.342 267.68 138.682 265.5 149.062C265.43 157.812 265.26 166.482 265 175.062C262.87 176.532 260.87 176.362 259 174.562C254.33 173.892 249.67 173.892 245 174.562C242.49 177.692 239.82 177.862 237 175.062C237.41 171.572 238.41 168.242 240 165.062C235.21 148.512 229.71 132.182 223.5 116.062C218.17 101.572 208.34 91.5715 194 86.0615C190.81 86.4215 188.64 88.0915 187.5 91.0615C185.07 101.232 184.4 111.572 185.5 122.062C188.83 136.402 193.17 150.402 198.5 164.062C200.5 167.392 202.5 170.732 204.5 174.062C204.99 175.352 205.16 176.692 205 178.062C203.68 179.502 202.01 180.172 200 180.062C196.34 175.872 193.17 171.202 190.5 166.062C188.43 158.182 185.76 150.512 182.5 143.062C181.95 137.202 180.62 131.532 178.5 126.062C177.46 116.412 177.12 106.742 177.5 97.0615C178.68 88.1815 183.18 81.6815 191 77.5615C210.04 82.1915 223.21 93.6915 230.5 112.062C234.08 123.372 238.41 134.372 243.5 145.062C244.63 149.702 245.63 154.372 246.5 159.062C247.06 159.582 247.73 159.922 248.5 160.062C251.14 158.572 253.97 157.902 257 158.062C258.34 144.192 260.84 130.522 264.5 117.062C269.93 106.532 275.59 96.2015 281.5 86.0615C291.13 77.8215 301.96 75.6515 314 79.5615C323.11 88.1515 326.28 98.6515 323.5 111.062C319.96 124.442 316.29 137.782 312.5 151.062C309.88 156.622 307.55 162.292 305.5 168.062C303.41 173.252 300.58 177.922 297 182.062Z" fill="#D43837"/>
<path fill-rule="evenodd" clip-rule="evenodd" d="M236.999 175.062C226.299 175.902 215.639 176.902 204.999 178.062C205.159 176.692 204.989 175.352 204.499 174.062C202.499 170.732 200.499 167.392 198.499 164.062C193.169 150.402 188.829 136.402 185.499 122.062C184.399 111.572 185.069 101.232 187.499 91.0615C188.639 88.0915 190.809 86.4215 193.999 86.0615C208.339 91.5715 218.169 101.572 223.499 116.062C229.709 132.182 235.209 148.512 239.999 165.062C238.409 168.242 237.409 171.572 236.999 175.062Z" fill="#F45841"/>
<path fill-rule="evenodd" clip-rule="evenodd" d="M290 179.061C282.01 176.021 273.68 174.681 265 175.061C265.26 166.481 265.43 157.811 265.5 149.061C267.68 138.681 270.01 128.341 272.5 118.061C276.5 110.731 280.5 103.391 284.5 96.0614C290.71 86.7714 299.21 83.6014 310 86.5614C315.66 93.3914 317.49 101.221 315.5 110.061C310.22 131.731 303.05 152.731 294 173.061C291.43 174.291 290.1 176.291 290 179.061Z" fill="#F45841"/>
<path fill-rule="evenodd" clip-rule="evenodd" d="M265 175.062C273.68 174.682 282.01 176.022 290 179.062C291.49 181.652 293.82 182.652 297 182.062C300.65 183.552 304.31 185.052 308 186.562C313.38 191.602 319.04 196.272 325 200.562C333.68 210.572 340.51 221.742 345.5 234.062C348.94 242.712 351.77 251.542 354 260.562C353.26 266.952 349.59 270.122 343 270.062C337.95 269.902 332.95 270.232 328 271.062C323.21 268.292 318.21 266.292 313 265.062C323.59 263.482 334.25 262.482 345 262.062C342.88 255.562 341.38 248.902 340.5 242.062C335.27 229.832 328.77 218.332 321 207.562C315.04 203.272 309.38 198.602 304 193.562C297.12 190.282 290.12 187.282 283 184.562C256.91 181.312 230.91 181.982 205 186.562C195.03 191.962 186.53 199.132 179.5 208.062C175.09 217.222 170.42 226.222 165.5 235.062C163.93 240.472 162.26 245.812 160.5 251.062C160 253.712 159.84 256.372 160 259.062C172.09 258.892 184.09 257.892 196 256.062C199.86 244.302 204.03 232.642 208.5 221.062C210.57 218.912 212.91 218.582 215.5 220.062C215.38 232.972 216.21 245.642 218 258.062C214.67 257.732 211.33 257.392 208 257.062C208.92 245.202 207.92 245.202 205 257.062C194.1 257.802 184.1 261.142 175 267.062C172 267.062 169 267.062 166 267.062C161.32 267.232 156.65 267.062 152 266.562C151.5 266.062 151 265.562 150.5 265.062C151.49 260.252 152.15 255.252 152.5 250.062C157.96 232.822 165.29 216.482 174.5 201.062C181.76 192.282 190.26 185.282 200 180.062C202.01 180.172 203.68 179.502 205 178.062C215.64 176.902 226.3 175.902 237 175.062C239.82 177.862 242.49 177.692 245 174.562C249.67 173.892 254.33 173.892 259 174.562C260.87 176.362 262.87 176.532 265 175.062Z" fill="#D35A1A"/>
<path fill-rule="evenodd" clip-rule="evenodd" d="M312.999 265.062C311.889 265.002 310.889 264.672 309.999 264.062C305.909 249.722 299.579 236.552 290.999 224.562C286.689 223.022 284.029 224.352 282.999 228.562C285.729 238.522 287.069 248.682 286.999 259.062C283.469 259.932 280.129 261.272 276.999 263.062C272.389 263.422 267.889 263.422 263.499 263.062C260.909 254.232 259.239 245.232 258.499 236.062C256.319 232.492 253.659 232.162 250.499 235.062C247.319 244.742 244.149 254.412 240.999 264.062C237.319 263.842 233.649 263.502 229.999 263.062C226.079 260.982 222.079 259.322 217.999 258.062C216.209 245.642 215.379 232.972 215.499 220.062C212.909 218.582 210.569 218.912 208.499 221.062C204.029 232.642 199.859 244.302 195.999 256.062C184.089 257.892 172.089 258.892 159.999 259.062C159.839 256.372 159.999 253.712 160.499 251.062C162.259 245.812 163.929 240.472 165.499 235.062C170.419 226.222 175.089 217.222 179.499 208.062C186.529 199.132 195.029 191.962 204.999 186.562C230.909 181.982 256.909 181.312 282.999 184.562C290.119 187.282 297.119 190.282 303.999 193.562C309.379 198.602 315.039 203.272 320.999 207.562C328.769 218.332 335.269 229.832 340.499 242.062C341.379 248.902 342.879 255.562 344.999 262.062C334.249 262.482 323.589 263.482 312.999 265.062Z" fill="#FD942E"/>
<path fill-rule="evenodd" clip-rule="evenodd" d="M310 264.061C306.19 262.871 302.53 261.531 299 260.061C298.91 255.271 297.41 250.601 294.5 246.061C294.58 250.361 294.74 254.701 295 259.061C292.33 259.061 289.67 259.061 287 259.061C287.07 248.681 285.73 238.521 283 228.561C284.03 224.351 286.69 223.021 291 224.561C299.58 236.551 305.91 249.721 310 264.061Z" fill="#D35B1A"/>
<path fill-rule="evenodd" clip-rule="evenodd" d="M277 263.062C276.67 263.732 276.33 264.392 276 265.062C273.61 266.452 271.94 268.452 271 271.062C266.65 271.232 262.32 271.062 258 270.562C255.95 265.212 254.12 259.712 252.5 254.062C250.84 259.862 248.67 265.532 246 271.062C242.05 272.052 238.05 272.382 234 272.062C234.27 270.462 233.93 269.132 233 268.062C232.25 266.232 231.25 264.562 230 263.062C233.65 263.502 237.32 263.842 241 264.062C244.15 254.412 247.32 244.742 250.5 235.062C253.66 232.162 256.32 232.492 258.5 236.062C259.24 245.232 260.91 254.232 263.5 263.062C267.89 263.422 272.39 263.422 277 263.062Z" fill="#D35A19"/>
<path fill-rule="evenodd" clip-rule="evenodd" d="M299 260.062C297.4 260.332 296.07 259.992 295 259.062C294.74 254.702 294.58 250.362 294.5 246.062C297.41 250.602 298.91 255.272 299 260.062Z" fill="#F7EDE8"/>
<path fill-rule="evenodd" clip-rule="evenodd" d="M208 257.062C207 257.062 206 257.062 205 257.062C207.92 245.202 208.92 245.202 208 257.062Z" fill="#E6AA8C"/>
<path fill-rule="evenodd" clip-rule="evenodd" d="M271 271.062C264.53 283.572 264.36 296.242 270.5 309.062C279.22 316.782 289.39 319.622 301 317.562C305.29 316.142 309.13 313.972 312.5 311.062C315.97 305.272 318.97 299.272 321.5 293.062C322 288.742 322.17 284.412 322 280.062C324.94 281.872 327.94 283.702 331 285.562C334.52 287.022 338.02 287.182 341.5 286.062C342.17 284.392 342.17 282.732 341.5 281.062C336.31 278.562 331.81 275.232 328 271.062C332.95 270.232 337.95 269.902 343 270.062C344.14 271.032 345.14 272.202 346 273.562C343.9 275.292 343.57 277.292 345 279.562C344.15 288.332 342.15 296.832 339 305.062C336.76 308.432 335.09 312.102 334 316.062C329.94 321.152 326.11 326.482 322.5 332.062C320.46 334.272 318.29 336.272 316 338.062C321.32 342.062 326.99 345.562 333 348.562C334.83 350.392 336.67 352.232 338.5 354.062C338.61 357.912 337.78 361.572 336 365.062C335.85 366.112 336.02 367.112 336.5 368.062C338.49 368.892 339.99 370.222 341 372.062C341.97 373.632 342.14 375.292 341.5 377.062C339.73 377.862 338.23 379.032 337 380.562C333.67 380.132 330.33 379.302 327 378.062C319.86 374.462 318.2 369.132 322 362.062C326.15 358.392 325.81 355.392 321 353.062C318.33 351.392 315.67 349.732 313 348.062C311.07 346.752 309.07 345.422 307 344.062C301.42 347.302 295.42 349.632 289 351.062C278.05 352.432 267.05 353.102 256 353.062C232.15 353.362 209.48 348.692 188 339.062C187.41 336.642 185.91 334.972 183.5 334.062C182.31 336.062 180.81 337.722 179 339.062C175.45 340.672 172.45 343.002 170 346.062C171.86 349.812 174.2 353.142 177 356.062C177.2 358.552 176.7 360.882 175.5 363.062C172.35 366.072 168.85 368.402 165 370.062C160.96 371.462 156.96 371.292 153 369.562C151.75 367.732 151.75 365.902 153 364.062C154.96 362.742 156.96 361.412 159 360.062C161.44 359.342 163.77 358.342 166 357.062C160.39 353.002 157.22 347.662 156.5 341.062C163.76 336.302 170.6 330.972 177 325.062C174.97 321.662 172.97 318.332 171 315.062C170.49 312.542 169.49 310.212 168 308.062C162.9 295.312 160.57 281.982 161 268.062C162.91 268.342 164.58 268.012 166 267.062C169 267.062 172 267.062 175 267.062C172.04 270.522 168.87 273.862 165.5 277.062C164.83 279.732 164.83 282.392 165.5 285.062C167.56 286.152 169.73 286.322 172 285.562C175.7 283.372 179.03 280.712 182 277.562C183.32 277.032 183.98 277.532 184 279.062C182.47 281.192 181.8 283.692 182 286.562C182.01 288.592 182.34 290.432 183 292.062C183.39 296.642 184.55 300.982 186.5 305.062C195.43 315.752 206.59 318.922 220 314.562C226.83 311.732 231.67 306.892 234.5 300.062C235.5 299.392 236.5 298.732 237.5 298.062C240.29 288.782 239.12 280.122 234 272.062C238.05 272.382 242.05 272.052 246 271.062C248.67 265.532 250.84 259.862 252.5 254.062C254.12 259.712 255.95 265.212 258 270.562C262.32 271.062 266.65 271.232 271 271.062Z" fill="#FBF9F9"/>
<path fill-rule="evenodd" clip-rule="evenodd" d="M205.001 257.062C206.001 257.062 207.001 257.062 208.001 257.062C211.331 257.392 214.671 257.732 218.001 258.062C222.081 259.322 226.081 260.982 230.001 263.062C231.251 264.562 232.251 266.232 233.001 268.062C233.151 269.112 232.981 270.112 232.501 271.062C230.051 268.092 226.891 266.592 223.001 266.562C210.971 265.022 199.631 267.022 189.001 272.562C187.431 274.892 185.771 277.052 184.001 279.062C183.981 277.532 183.321 277.032 182.001 277.562C179.031 280.712 175.701 283.372 172.001 285.562C169.731 286.322 167.561 286.152 165.501 285.062C164.831 282.392 164.831 279.732 165.501 277.062C168.871 273.862 172.041 270.522 175.001 267.062C184.101 261.142 194.101 257.802 205.001 257.062Z" fill="#070404"/>
<path fill-rule="evenodd" clip-rule="evenodd" d="M287 259.062C289.67 259.062 292.33 259.062 295 259.062C296.07 259.992 297.4 260.332 299 260.062C302.53 261.532 306.19 262.872 310 264.062C310.89 264.672 311.89 265.002 313 265.062C318.21 266.292 323.21 268.292 328 271.062C331.81 275.232 336.31 278.562 341.5 281.062C342.17 282.732 342.17 284.392 341.5 286.062C338.02 287.182 334.52 287.022 331 285.562C327.94 283.702 324.94 281.872 322 280.062C321.56 278.492 320.56 277.322 319 276.562C309.74 273.192 300.41 270.362 291 268.062C289.46 267.262 287.79 266.932 286 267.062C282.67 266.392 279.33 265.732 276 265.062C276.33 264.392 276.67 263.732 277 263.062C280.13 261.272 283.47 259.932 287 259.062Z" fill="#0B0707"/>
<path fill-rule="evenodd" clip-rule="evenodd" d="M286.001 267.062C287.791 266.932 289.461 267.262 291.001 268.062C292.811 270.012 293.811 272.342 294.001 275.062C292.641 278.192 291.811 281.532 291.501 285.062C288.241 287.992 284.411 288.822 280.001 287.562C278.211 285.092 276.371 282.592 274.501 280.062C273.791 277.092 274.621 274.592 277.001 272.562C280.681 271.692 283.681 269.852 286.001 267.062Z" fill="#FBF7F8"/>
<path fill-rule="evenodd" clip-rule="evenodd" d="M233 268.062C233.93 269.132 234.27 270.462 234 272.062C239.12 280.122 240.29 288.782 237.5 298.062C236.5 298.732 235.5 299.392 234.5 300.062C231.67 306.892 226.83 311.732 220 314.562C206.59 318.922 195.43 315.752 186.5 305.062C184.55 300.982 183.39 296.642 183 292.062C183.09 287.702 183.42 283.372 184 279.062C185.77 277.052 187.43 274.892 189 272.562C199.63 267.022 210.97 265.022 223 266.562C226.89 266.592 230.05 268.092 232.5 271.062C232.98 270.112 233.15 269.112 233 268.062Z" fill="#9D264D"/>
<path fill-rule="evenodd" clip-rule="evenodd" d="M215 269.061C225.25 267.531 229.09 271.861 226.5 282.061C222.6 290.381 217.27 291.721 210.5 286.061C209.63 283.981 209.13 281.811 209 279.561C210.36 275.681 212.36 272.181 215 269.061Z" fill="#FDFBFC"/>
<path fill-rule="evenodd" clip-rule="evenodd" d="M276 265.062C279.33 265.732 282.67 266.392 286 267.062C283.68 269.852 280.68 271.692 277 272.562C274.62 274.592 273.79 277.092 274.5 280.062C276.37 282.592 278.21 285.092 280 287.562C284.41 288.822 288.24 287.992 291.5 285.062C291.81 281.532 292.64 278.192 294 275.062C293.81 272.342 292.81 270.012 291 268.062C300.41 270.362 309.74 273.192 319 276.562C320.56 277.322 321.56 278.492 322 280.062C322.17 284.412 322 288.742 321.5 293.062C318.97 299.272 315.97 305.272 312.5 311.062C309.13 313.972 305.29 316.142 301 317.562C289.39 319.622 279.22 316.782 270.5 309.062C264.36 296.242 264.53 283.572 271 271.062C271.94 268.452 273.61 266.452 276 265.062Z" fill="#9D254C"/>
<path fill-rule="evenodd" clip-rule="evenodd" d="M184.001 279.062C183.421 283.372 183.091 287.702 183.001 292.062C182.341 290.432 182.011 288.592 182.001 286.562C181.801 283.692 182.471 281.192 184.001 279.062Z" fill="#3A2C2F"/>
<path fill-rule="evenodd" clip-rule="evenodd" d="M339 305.062C343.51 319.412 350.68 332.412 360.5 344.062C364.64 345.702 367.14 348.702 368 353.062C362.79 358.352 357.12 363.182 351 367.562C347.76 369.352 344.43 370.852 341 372.062C339.99 370.222 338.49 368.892 336.5 368.062C336.02 367.112 335.85 366.112 336 365.062C344.29 362.772 351.29 358.442 357 352.062C347.3 341.322 339.63 329.322 334 316.062C335.09 312.102 336.76 308.432 339 305.062Z" fill="#D45B1B"/>
<path fill-rule="evenodd" clip-rule="evenodd" d="M168.001 308.062C169.491 310.212 170.491 312.542 171.001 315.062C165.651 324.252 159.321 332.752 152.001 340.562C148.801 342.322 145.801 344.322 143.001 346.562C148.191 351.312 153.521 355.812 159.001 360.062C156.961 361.412 154.961 362.742 153.001 364.062C146.871 361.122 141.371 357.122 136.501 352.062C135.751 350.232 134.751 348.562 133.501 347.062C132.831 345.062 132.831 343.062 133.501 341.062C138.501 338.982 143.331 336.482 148.001 333.562C154.081 327.162 158.911 320.002 162.501 312.062C163.931 310.122 165.771 308.792 168.001 308.062Z" fill="#D35B1B"/>
<path fill-rule="evenodd" clip-rule="evenodd" d="M334 316.062C339.63 329.322 347.3 341.322 357 352.062C351.29 358.442 344.29 362.772 336 365.062C337.78 361.572 338.61 357.912 338.5 354.062C336.67 352.232 334.83 350.392 333 348.562C326.99 345.562 321.32 342.062 316 338.062C318.29 336.272 320.46 334.272 322.5 332.062C326.11 326.482 329.94 321.152 334 316.062Z" fill="#FD942F"/>
<path fill-rule="evenodd" clip-rule="evenodd" d="M267 320.061C271.5 319.721 273.33 321.721 272.5 326.061C270.05 330.841 266.55 334.681 262 337.561C259.24 338.141 256.58 337.811 254 336.561C250.22 334.251 246.38 332.091 242.5 330.061C241.02 326.011 242.35 324.011 246.5 324.061C250.89 326.011 255.39 327.511 260 328.561C262.22 325.601 264.56 322.771 267 320.061Z" fill="#0D0D0D"/>
<path fill-rule="evenodd" clip-rule="evenodd" d="M188 339.062C187.17 344.012 186.84 349.012 187 354.062C184.76 358.202 182.76 362.542 181 367.062C180.26 368.862 179.26 370.532 178 372.062C183.94 376.042 190.28 379.542 197 382.562C202.41 383.582 207.75 384.912 213 386.562C227.38 387.672 241.71 389.172 256 391.062C269.71 388.712 283.38 386.212 297 383.562C304.63 382.522 311.63 380.022 318 376.062C317.42 372.562 316.42 369.232 315 366.062C313.49 361.532 312.49 356.862 312 352.062C311.73 350.462 312.07 349.132 313 348.062C315.67 349.732 318.33 351.392 321 353.062C320.76 356.172 321.1 359.172 322 362.062C318.2 369.132 319.86 374.462 327 378.062C326.45 379.952 325.45 381.622 324 383.062C313.26 388.502 301.92 391.832 290 393.062C285.14 393.242 280.47 394.242 276 396.062C269.13 396.772 262.3 397.772 255.5 399.062C244.37 397.522 233.21 396.522 222 396.062C217.51 395.142 212.84 394.472 208 394.062C195.67 390.902 184.01 386.072 173 379.562C172.58 374.322 169.91 371.152 165 370.062C168.85 368.402 172.35 366.072 175.5 363.062C176.7 360.882 177.2 358.552 177 356.062C178.85 350.612 179.51 344.952 179 339.062C180.81 337.722 182.31 336.062 183.5 334.062C185.91 334.972 187.41 336.642 188 339.062Z" fill="#E63770"/>
<path fill-rule="evenodd" clip-rule="evenodd" d="M171 315.062C172.97 318.332 174.97 321.662 177 325.062C170.6 330.972 163.76 336.302 156.5 341.062C157.22 347.662 160.39 353.002 166 357.062C163.77 358.342 161.44 359.342 159 360.062C153.52 355.812 148.19 351.312 143 346.562C145.8 344.322 148.8 342.322 152 340.562C159.32 332.752 165.65 324.252 171 315.062Z" fill="#FD9530"/>
<path fill-rule="evenodd" clip-rule="evenodd" d="M188 339.062C209.48 348.692 232.15 353.362 256 353.062C264.49 354.222 273.16 354.382 282 353.562C284.43 352.662 286.76 351.822 289 351.062C295.42 349.632 301.42 347.302 307 344.062C309.07 345.422 311.07 346.752 313 348.062C312.07 349.132 311.73 350.462 312 352.062C291.07 366.202 268.07 370.702 243 365.562C224.06 362.882 205.39 359.052 187 354.062C186.84 349.012 187.17 344.012 188 339.062Z" fill="#EF7BA3"/>
<path fill-rule="evenodd" clip-rule="evenodd" d="M179 339.062C179.51 344.952 178.85 350.612 177 356.062C174.2 353.142 171.86 349.812 170 346.062C172.45 343.002 175.45 340.672 179 339.062Z" fill="#FD9232"/>
<path fill-rule="evenodd" clip-rule="evenodd" d="M289 351.062C286.76 351.822 284.43 352.662 282 353.562C273.16 354.382 264.49 354.222 256 353.062C267.05 353.102 278.05 352.432 289 351.062Z" fill="#F98D6D"/>
<path fill-rule="evenodd" clip-rule="evenodd" d="M312 352.062C312.49 356.862 313.49 361.532 315 366.062C296.1 374.772 276.26 379.432 255.5 380.062C241.52 380.112 227.68 378.952 214 376.562C203.12 372.882 192.12 369.712 181 367.062C182.76 362.542 184.76 358.202 187 354.062C205.39 359.052 224.06 362.882 243 365.562C268.07 370.702 291.07 366.202 312 352.062Z" fill="#262525"/>
<path fill-rule="evenodd" clip-rule="evenodd" d="M321 353.062C325.81 355.392 326.15 358.392 322 362.062C321.1 359.172 320.76 356.172 321 353.062Z" fill="#FE9632"/>
<path fill-rule="evenodd" clip-rule="evenodd" d="M315 366.062C316.42 369.232 317.42 372.562 318 376.062C311.63 380.022 304.63 382.522 297 383.562C283.38 386.212 269.71 388.712 256 391.062C241.71 389.172 227.38 387.672 213 386.562C207.75 384.912 202.41 383.582 197 382.562C190.28 379.542 183.94 376.042 178 372.062C179.26 370.532 180.26 368.862 181 367.062C192.12 369.712 203.12 372.882 214 376.562C227.68 378.952 241.52 380.112 255.5 380.062C276.26 379.432 296.1 374.772 315 366.062Z" fill="#F17BA5"/>
<path fill-rule="evenodd" clip-rule="evenodd" d="M290.001 393.062C289.491 396.592 290.161 399.762 292.001 402.562C291.441 402.942 291.111 403.442 291.001 404.062C290.031 405.812 288.691 407.312 287.001 408.562C283.581 408.812 280.251 409.312 277.001 410.062C276.121 405.462 275.781 400.792 276.001 396.062C280.471 394.242 285.141 393.242 290.001 393.062Z" fill="#FAF7F8"/>
<path fill-rule="evenodd" clip-rule="evenodd" d="M208 394.062C212.84 394.472 217.51 395.142 222 396.062C222.17 399.742 222 403.412 221.5 407.062C220.65 408.132 219.81 409.132 219 410.062C216.42 409.332 213.75 408.832 211 408.562C210.28 406.542 209.28 404.712 208 403.062C208 400.062 208 397.062 208 394.062Z" fill="#FBFBFB"/>
<path fill-rule="evenodd" clip-rule="evenodd" d="M208 403.061C209.28 404.711 210.28 406.541 211 408.561C213.75 408.831 216.42 409.331 219 410.061C221.16 415.101 219.5 418.261 214 419.561C207.53 420.281 201.19 419.611 195 417.561C191.22 414.611 190.06 410.771 191.5 406.061C192.92 405.101 194.42 404.271 196 403.561C199.99 403.061 203.99 402.891 208 403.061Z" fill="#272727"/>
<path fill-rule="evenodd" clip-rule="evenodd" d="M290.999 404.061C294.679 403.891 298.349 404.061 301.999 404.561C305.829 407.821 306.989 411.991 305.499 417.061C295.679 424.071 286.349 423.731 277.499 416.061C276.999 414.091 276.839 412.091 276.999 410.061C280.249 409.311 283.579 408.811 286.999 408.561C288.689 407.311 290.029 405.811 290.999 404.061Z" fill="#272626"/>
<path fill-rule="evenodd" clip-rule="evenodd" d="M200.999 406.061C204.909 405.801 207.249 407.631 207.999 411.561C205.359 416.251 202.859 416.091 200.499 411.061C199.859 409.291 200.029 407.631 200.999 406.061Z" fill="#E4E4E4"/>
<path fill-rule="evenodd" clip-rule="evenodd" d="M295 408.061C301.52 407.801 302.52 409.961 298 414.561C296.37 415.051 294.7 415.221 293 415.061C292.9 412.451 293.57 410.121 295 408.061Z" fill="#F1F1F1"/>
</svg>
