<svg width="500" height="500" viewBox="0 0 500 500" fill="none" xmlns="http://www.w3.org/2000/svg">
<path fill-rule="evenodd" clip-rule="evenodd" d="M203.001 124.061C202.071 127.921 200.571 131.591 198.501 135.061C194.941 137.421 191.111 139.091 187.001 140.061C187.211 143.011 186.551 145.681 185.001 148.061C182.671 151.061 180.001 153.731 177.001 156.061C173.191 157.431 169.531 157.101 166.001 155.061C162.361 152.251 159.201 148.921 156.501 145.061C154.221 136.291 156.381 128.951 163.001 123.061C165.451 123.241 167.621 122.571 169.501 121.061C172.221 122.401 173.391 121.401 173.001 118.061C180.961 107.101 190.131 105.761 200.501 114.061C202.511 117.101 203.341 120.431 203.001 124.061Z" fill="#3181DA"/>
<path fill-rule="evenodd" clip-rule="evenodd" d="M322 118.061C323.14 120.561 323.81 123.231 324 126.061C325.79 125.931 327.46 126.261 329 127.061C332.19 129.251 335.35 131.581 338.5 134.061C340.08 142.171 338.24 149.511 333 156.061C330.1 159.341 326.43 160.671 322 160.061C312.57 158.961 308.24 153.621 309 144.061C306.64 144.221 304.31 144.061 302 143.561C300.26 142.041 298.59 140.541 297 139.061C293.41 135.871 291.41 131.871 291 127.061C293.16 113.971 300.83 108.801 314 111.561C317.33 113.041 319.99 115.211 322 118.061Z" fill="#3181DA"/>
<path fill-rule="evenodd" clip-rule="evenodd" d="M173.001 118.061C173.391 121.401 172.221 122.401 169.501 121.061C167.621 122.571 165.451 123.241 163.001 123.061C137.371 114.021 123.371 122.861 121.001 149.561C121.671 155.561 122.331 161.561 123.001 167.561C122.931 170.151 122.431 172.651 121.501 175.061C116.341 181.631 109.511 185.301 101.001 186.061C101.061 188.151 102.061 189.651 104.001 190.561C106.451 191.281 108.781 192.281 111.001 193.561C119.001 194.371 127.001 194.701 135.001 194.561C137.091 193.771 138.921 192.601 140.501 191.061C147.301 177.761 155.801 165.761 166.001 155.061C169.531 157.101 173.191 157.431 177.001 156.061C160.071 171.921 149.401 191.251 145.001 214.061C149.321 213.631 153.661 213.301 158.001 213.061C156.041 215.521 153.871 217.861 151.501 220.061C151.001 222.031 150.841 224.031 151.001 226.061C149.471 225.991 148.471 226.651 148.001 228.061C143.431 231.151 139.431 230.481 136.001 226.061C134.901 219.091 134.901 212.091 136.001 205.061C118.741 208.841 103.581 204.841 90.5012 193.061C88.0512 189.371 87.0512 185.371 87.5012 181.061C94.9012 177.371 102.401 173.871 110.001 170.561C111.291 169.151 112.451 167.651 113.501 166.061C112.441 160.741 111.611 155.241 111.001 149.561C111.431 142.571 112.591 135.741 114.501 129.061C116.301 125.631 118.461 122.471 121.001 119.561C138.111 107.551 155.441 107.051 173.001 118.061Z" fill="#DB963B"/>
<path fill-rule="evenodd" clip-rule="evenodd" d="M363 237.062C357.58 236.912 352.58 235.582 348 233.062C348.16 231.362 347.99 229.692 347.5 228.062C340.46 224.472 334.29 219.802 329 214.062C334.74 215.742 340.41 217.582 346 219.562C348.65 220.062 351.31 220.222 354 220.062C353.98 214.492 352.81 209.162 350.5 204.062C347.5 198.062 344.5 192.062 341.5 186.062C334.76 177.502 328.26 168.832 322 160.062C326.43 160.672 330.1 159.342 333 156.062C341.98 170.672 350.98 185.342 360 200.062C375.31 201.742 388.31 197.072 399 186.062C385.38 183.272 376.88 174.942 373.5 161.062C372.28 154.842 372.12 148.672 373 142.562C365.34 125.232 352.34 118.902 334 123.562C331.92 124.262 330.25 125.422 329 127.062C327.46 126.262 325.79 125.932 324 126.062C323.81 123.232 323.14 120.562 322 118.062C338.01 108.282 353.68 108.782 369 119.562C375.88 125.132 380.38 132.302 382.5 141.062C382.84 148.092 383.5 155.092 384.5 162.062C387.41 167.932 391.91 172.102 398 174.562C401.15 176.162 404.48 177.162 408 177.562C413.04 182.212 413.2 187.042 408.5 192.062C396.86 203.962 382.69 210.632 366 212.062C369.88 219.412 370.72 227.082 368.5 235.062C366.92 236.422 365.08 237.092 363 237.062Z" fill="#DA9539"/>
<path fill-rule="evenodd" clip-rule="evenodd" d="M163 123.062C156.38 128.952 154.22 136.292 156.5 145.062C159.2 148.922 162.36 152.252 166 155.062C155.8 165.762 147.3 177.762 140.5 191.062C138.92 192.602 137.09 193.772 135 194.562C127 194.702 119 194.372 111 193.562C108.78 192.282 106.45 191.282 104 190.562C102.06 189.652 101.06 188.152 101 186.062C109.51 185.302 116.34 181.632 121.5 175.062C122.43 172.652 122.93 170.152 123 167.562C122.33 161.562 121.67 155.562 121 149.562C123.37 122.862 137.37 114.022 163 123.062Z" fill="#FED03E"/>
<path fill-rule="evenodd" clip-rule="evenodd" d="M291 127.062C291.41 131.872 293.41 135.872 297 139.062C273.99 130.892 250.33 127.722 226 129.562C210.37 131.362 196.7 137.522 185 148.062C186.55 145.682 187.21 143.012 187 140.062C191.11 139.092 194.94 137.422 198.5 135.062C200.57 131.592 202.07 127.922 203 124.062C213.51 120.742 224.35 119.072 235.5 119.062C254.32 119.672 272.82 122.342 291 127.062Z" fill="#DB9539"/>
<path fill-rule="evenodd" clip-rule="evenodd" d="M333 156.061C338.24 149.511 340.08 142.171 338.5 134.061C335.35 131.581 332.19 129.251 329 127.061C330.25 125.421 331.92 124.261 334 123.561C352.34 118.901 365.34 125.231 373 142.561C372.12 148.671 372.28 154.841 373.5 161.061C376.88 174.941 385.38 183.271 399 186.061C388.31 197.071 375.31 201.741 360 200.061C350.98 185.341 341.98 170.671 333 156.061Z" fill="#FED03E"/>
<path fill-rule="evenodd" clip-rule="evenodd" d="M297 139.062C298.59 140.542 300.26 142.042 302 143.562C304.31 144.062 306.64 144.222 309 144.062C308.24 153.622 312.57 158.962 322 160.062C328.26 168.832 334.76 177.502 341.5 186.062C344.5 192.062 347.5 198.062 350.5 204.062C352.81 209.162 353.98 214.492 354 220.062C351.31 220.222 348.65 220.062 346 219.562C340.41 217.582 334.74 215.742 329 214.062C323.26 212.922 317.93 210.922 313 208.062C303.52 200.762 293.85 193.592 284 186.562C275.13 177.522 266.13 168.682 257 160.062C254.8 160.462 252.47 160.632 250 160.562C235.74 176.022 219.4 188.522 201 198.062C184.9 198.092 170.56 203.092 158 213.062C153.66 213.302 149.32 213.632 145 214.062C149.4 191.252 160.07 171.922 177 156.062C180 153.732 182.67 151.062 185 148.062C196.7 137.522 210.37 131.362 226 129.562C250.33 127.722 273.99 130.892 297 139.062Z" fill="#FED03E"/>
<path fill-rule="evenodd" clip-rule="evenodd" d="M313 208.062C304.02 204.672 294.69 203.012 285 203.062C287.25 201.602 286.92 200.102 284 198.562C278.11 193.672 271.95 189.172 265.5 185.062C261.34 180.072 257.67 174.742 254.5 169.062C248.93 177.022 242.76 184.522 236 191.562C230.25 196.102 223.92 199.602 217 202.062C211.5 201.102 206.17 199.762 201 198.062C219.4 188.522 235.74 176.022 250 160.562C252.47 160.632 254.8 160.462 257 160.062C266.13 168.682 275.13 177.522 284 186.562C293.85 193.592 303.52 200.762 313 208.062Z" fill="#D9943A"/>
<path fill-rule="evenodd" clip-rule="evenodd" d="M285 203.062C283.95 202.912 282.95 203.082 282 203.562C279.6 205.412 277.26 207.252 275 209.062C273.92 209.102 272.92 209.432 272 210.062C261.7 224.862 260.2 240.522 267.5 257.062C277.21 267.402 289.04 270.902 303 267.562C305.31 265.692 307.97 264.692 311 264.562C316.32 257.912 320.82 250.742 324.5 243.062C325.33 240.392 326.17 237.722 327 235.062C326.11 232.482 325.77 229.812 326 227.062C330.45 230.622 335.45 233.122 341 234.562C343.67 235.392 346 234.892 348 233.062C352.58 235.582 357.58 236.912 363 237.062C362.29 237.962 361.29 238.302 360 238.062C357.8 254.952 350.47 269.122 338 280.562C334.93 282.422 331.93 284.252 329 286.062C337.59 295.732 345.59 305.902 353 316.562C357.62 319.262 362.62 320.602 368 320.562C369.22 322.302 370.88 323.302 373 323.562C374.3 324.362 374.97 325.532 375 327.062C374.23 329.662 372.56 331.502 370 332.562C364.29 333.142 358.63 333.972 353 335.062C351.04 341.692 346.71 343.862 340 341.562C338.27 339.772 337.6 337.602 338 335.062C337.85 327.142 336.35 319.472 333.5 312.062C329.5 306.732 325.5 301.392 321.5 296.062C321.02 295.112 320.85 294.112 321 293.062C320.63 291.872 319.8 291.202 318.5 291.062C293.84 301.942 268.01 306.442 241 304.562C218.92 299.112 197.58 291.612 177 282.062C176.35 281.762 175.68 281.422 175 281.062C173.72 285.612 171.89 289.952 169.5 294.062C166.15 298.112 163.31 302.442 161 307.062C157.03 311.202 153.2 315.532 149.5 320.062C148.99 324.602 147.49 328.762 145 332.562C139.67 334.382 137 332.552 137 327.062C130.88 327.452 125.22 326.112 120 323.062C118.85 320.112 118.68 317.112 119.5 314.062C127.02 312.812 134.52 311.312 142 309.562C150.91 298.502 159.91 287.672 169 277.062C155.7 263.462 148.7 247.132 148 228.062C148.47 226.652 149.47 225.992 151 226.062C150.83 227.382 151.16 228.552 152 229.562C154.33 230.232 156.67 230.232 159 229.562C163.23 226.482 167.57 223.642 172 221.062C168.68 232.302 169.85 242.962 175.5 253.062C179 256.562 182.5 260.062 186 263.562C199 267.362 210.66 265.032 221 256.562C234.71 244.532 236.71 230.702 227 215.062C227.04 212.142 226.21 209.472 224.5 207.062C222.02 205.252 219.52 203.582 217 202.062C223.92 199.602 230.25 196.102 236 191.562C242.76 184.522 248.93 177.022 254.5 169.062C257.67 174.742 261.34 180.072 265.5 185.062C271.95 189.172 278.11 193.672 284 198.562C286.92 200.102 287.25 201.602 285 203.062Z" fill="#FAFAFB"/>
<path fill-rule="evenodd" clip-rule="evenodd" d="M200.999 198.062C206.169 199.762 211.499 201.102 216.999 202.062C219.519 203.582 222.019 205.252 224.499 207.062C226.209 209.472 227.039 212.142 226.999 215.062C218.869 209.602 209.869 207.772 199.999 209.562C192.169 210.952 184.509 212.952 176.999 215.562C174.749 216.912 173.079 218.742 171.999 221.062C167.569 223.642 163.229 226.482 158.999 229.562C156.669 230.232 154.329 230.232 151.999 229.562C151.159 228.552 150.829 227.382 150.999 226.062C150.839 224.032 150.999 222.032 151.499 220.062C153.869 217.862 156.039 215.522 157.999 213.062C170.559 203.092 184.899 198.092 200.999 198.062Z" fill="#080705"/>
<path fill-rule="evenodd" clip-rule="evenodd" d="M285 203.062C294.69 203.012 304.02 204.672 313 208.062C317.93 210.922 323.26 212.922 329 214.062C334.29 219.802 340.46 224.472 347.5 228.062C347.99 229.692 348.16 231.362 348 233.062C346 234.892 343.67 235.392 341 234.562C335.45 233.122 330.45 230.622 326 227.062C316.4 219.762 305.73 214.262 294 210.562C287.76 209.192 281.43 208.692 275 209.062C277.26 207.252 279.6 205.412 282 203.562C282.95 203.082 283.95 202.912 285 203.062Z" fill="#060606"/>
<path fill-rule="evenodd" clip-rule="evenodd" d="M227 215.062C236.71 230.702 234.71 244.532 221 256.562C210.66 265.032 199 267.362 186 263.562C182.5 260.062 179 256.562 175.5 253.062C169.85 242.962 168.68 232.302 172 221.062C173.08 218.742 174.75 216.912 177 215.562C184.51 212.952 192.17 210.952 200 209.562C209.87 207.772 218.87 209.602 227 215.062Z" fill="#2767AE"/>
<path fill-rule="evenodd" clip-rule="evenodd" d="M275.001 209.061C281.431 208.691 287.761 209.191 294.001 210.561C305.731 214.261 316.401 219.761 326.001 227.061C325.771 229.811 326.111 232.481 327.001 235.061C326.171 237.721 325.331 240.391 324.501 243.061C320.821 250.741 316.321 257.911 311.001 264.561C307.971 264.691 305.311 265.691 303.001 267.561C289.041 270.901 277.211 267.401 267.501 257.061C260.201 240.521 261.701 224.861 272.001 210.061C272.921 209.431 273.921 209.101 275.001 209.061Z" fill="#2666AC"/>
<path fill-rule="evenodd" clip-rule="evenodd" d="M208 211.061C216.49 209.801 220.82 213.471 221 222.061C219.81 229.481 215.64 234.141 208.5 236.061C206.09 235.861 204.09 234.861 202.5 233.061C200.84 230.251 199.67 227.251 199 224.061C201.63 219.431 204.63 215.101 208 211.061Z" fill="#F8F9FA"/>
<path fill-rule="evenodd" clip-rule="evenodd" d="M284 212.062C290.62 210.682 293.95 213.352 294 220.062C292.88 223.972 292.05 227.972 291.5 232.062C286.94 235.652 282.11 235.982 277 233.062C274.66 230.232 273 227.062 272 223.562C272.68 221.042 274.01 218.872 276 217.062C279.39 216.322 282.06 214.662 284 212.062Z" fill="#F8F9FA"/>
<path fill-rule="evenodd" clip-rule="evenodd" d="M263.001 270.061C268.501 269.391 270.671 271.721 269.501 277.061C266.671 282.561 262.501 286.731 257.001 289.561C254.591 290.041 252.251 289.711 250.001 288.561C245.051 285.841 240.221 283.011 235.501 280.061C234.501 276.221 236.001 274.221 240.001 274.061C245.291 276.211 250.621 278.051 256.001 279.561C258.551 276.521 260.881 273.351 263.001 270.061Z" fill="#0D0D0D"/>
<path fill-rule="evenodd" clip-rule="evenodd" d="M177 282.062C197.58 291.612 218.92 299.112 241 304.562C268.01 306.442 293.84 301.942 318.5 291.062C319.8 291.202 320.63 291.872 321 293.062C320.02 293.372 319.36 294.042 319 295.062C320.05 298.322 320.72 301.652 321 305.062C303.67 311.952 285.67 316.782 267 319.562C243.55 320.092 220.55 317.092 198 310.562C190.28 307.032 182.61 303.532 175 300.062C174.89 299.442 174.56 298.942 174 298.562C176.85 293.332 177.85 287.832 177 282.062Z" fill="#84B3EB"/>
<path fill-rule="evenodd" clip-rule="evenodd" d="M177 282.062C177.85 287.832 176.85 293.332 174 298.562C174.56 298.942 174.89 299.442 175 300.062C174.38 300.172 173.88 300.502 173.5 301.062C172.76 305.432 171.93 309.762 171 314.062C168.43 318.262 167.43 322.762 168 327.562C188.8 338.162 210.8 344.492 234 346.562C248 347.232 262 347.232 276 346.562C285.87 344.112 295.87 342.442 306 341.562C313.02 339.342 319.52 336.172 325.5 332.062C326.06 327.492 325.56 323.162 324 319.062C323.84 314.092 322.84 309.422 321 305.062C320.72 301.652 320.05 298.322 319 295.062C319.36 294.042 320.02 293.372 321 293.062C320.85 294.112 321.02 295.112 321.5 296.062C325.5 301.392 329.5 306.732 333.5 312.062C336.35 319.472 337.85 327.142 338 335.062C335.4 339.152 331.73 341.982 327 343.562C316.98 347.072 306.98 350.232 297 353.062C293 353.732 289 354.392 285 355.062C279.89 356.102 274.73 356.772 269.5 357.062C251.66 356.422 233.82 355.752 216 355.062C209.33 353.562 202.66 351.892 196 350.062C183.33 346.972 171 342.812 159 337.562C157.83 336.392 156.67 335.232 155.5 334.062C155.63 324.732 157.46 315.732 161 307.062C163.31 302.442 166.15 298.112 169.5 294.062C171.89 289.952 173.72 285.612 175 281.062C175.68 281.422 176.35 281.762 177 282.062Z" fill="#5F9AD5"/>
<path fill-rule="evenodd" clip-rule="evenodd" d="M175 300.062C182.61 303.532 190.28 307.032 198 310.562C220.55 317.092 243.55 320.092 267 319.562C285.67 316.782 303.67 311.952 321 305.062C322.84 309.422 323.84 314.092 324 319.062C305.46 325.382 286.46 330.212 267 333.562C241.95 333.182 217.29 329.852 193 323.562C185.76 320.112 178.43 316.942 171 314.062C171.93 309.762 172.76 305.432 173.5 301.062C173.88 300.502 174.38 300.172 175 300.062Z" fill="#262626"/>
<path fill-rule="evenodd" clip-rule="evenodd" d="M171.001 314.062C178.431 316.942 185.761 320.112 193.001 323.562C217.291 329.852 241.951 333.182 267.001 333.562C286.461 330.212 305.461 325.382 324.001 319.062C325.561 323.162 326.061 327.492 325.501 332.062C319.521 336.172 313.021 339.342 306.001 341.562C295.871 342.442 285.871 344.112 276.001 346.562C262.001 347.232 248.001 347.232 234.001 346.562C210.801 344.492 188.801 338.162 168.001 327.562C167.431 322.762 168.431 318.262 171.001 314.062Z" fill="#84B3EB"/>
<path fill-rule="evenodd" clip-rule="evenodd" d="M196 350.062C202.66 351.892 209.33 353.562 216 355.062C210.62 362.802 205.45 370.802 200.5 379.062C200.27 377.822 199.77 376.822 199 376.062C195.97 372.372 192.64 369.032 189 366.062C191.33 360.732 193.67 355.392 196 350.062Z" fill="#F9FAFA"/>
<path fill-rule="evenodd" clip-rule="evenodd" d="M297 353.061C298.48 352.801 299.81 353.131 301 354.061C303.18 358.951 304.84 363.621 306 368.061C300.23 369.321 294.23 369.321 288 368.061C288.03 363.471 287.03 359.141 285 355.061C289 354.391 293 353.731 297 353.061Z" fill="#F8F9FA"/>
<path fill-rule="evenodd" clip-rule="evenodd" d="M189.001 366.062C192.641 369.032 195.971 372.372 199.001 376.062C199.511 381.412 197.011 383.752 191.501 383.062C183.011 382.142 175.671 378.812 169.501 373.062C165.871 362.802 169.371 358.642 180.001 360.562C183.741 361.422 186.741 363.252 189.001 366.062Z" fill="#262626"/>
<path fill-rule="evenodd" clip-rule="evenodd" d="M178.001 365.062C184.191 365.172 186.861 368.172 186.001 374.062C182.711 375.502 179.881 374.832 177.501 372.062C175.401 369.432 175.561 367.102 178.001 365.062Z" fill="#EEEEEE"/>
<path fill-rule="evenodd" clip-rule="evenodd" d="M306 368.062C306.71 368.962 307.71 369.302 309 369.062C309.44 375.002 307.44 379.832 303 383.562C297.54 387.462 291.54 389.962 285 391.062C279.4 391.412 275.73 389.082 274 384.062C274.12 381.772 274.96 379.772 276.5 378.062C279.91 374.142 283.74 370.812 288 368.062C294.23 369.322 300.23 369.322 306 368.062Z" fill="#272727"/>
<path fill-rule="evenodd" clip-rule="evenodd" d="M287 373.062C288.89 372.862 290.39 373.522 291.5 375.062C295.19 373.752 296.86 375.082 296.5 379.062C293.14 381.072 289.64 382.232 286 382.562C284.51 379.162 284.84 376.002 287 373.062Z" fill="#EEEEEE"/>
</svg>
