<svg width="500" height="500" viewBox="0 0 500 500" fill="none" xmlns="http://www.w3.org/2000/svg">
<path fill-rule="evenodd" clip-rule="evenodd" d="M324 286.062C322.21 285.932 320.54 286.262 319 287.062C318.33 287.062 317.67 287.062 317 287.062C319.64 284.592 322.48 282.262 325.5 280.062C328.8 274.752 332.14 269.412 335.5 264.062C337.19 254.652 339.19 245.312 341.5 236.062C342.17 229.392 342.17 222.732 341.5 216.062C323.98 209.892 306.14 204.722 288 200.562C281.96 200.092 275.96 200.092 270 200.562C268.71 199.152 267.55 197.652 266.5 196.062C261.17 183.392 255.83 170.732 250.5 158.062C246.47 171.652 241.97 184.992 237 198.062C208.48 197.822 180.65 201.822 153.5 210.062C152.19 220.972 153.19 231.642 156.5 242.062C158.65 248.352 160.65 254.682 162.5 261.062C166.18 267.552 170.01 273.882 174 280.062C172.43 281.982 170.43 282.982 168 283.062C159.8 279.282 152.13 274.452 145 268.562C138.1 261.832 131.43 254.992 125 248.062C120.91 242.792 117.41 237.122 114.5 231.062C106.59 212.542 103.42 193.202 105 173.062C112.65 175.442 120.32 177.942 128 180.562C134.69 183.372 140.52 182.202 145.5 177.062C151.25 167.232 157.25 157.562 163.5 148.062C169.7 141.532 176.2 135.362 183 129.562C196.11 123.342 209.45 117.672 223 112.562C237.65 111.272 252.32 110.942 267 111.562C281.83 115.142 296.16 120.142 310 126.562C318.53 134.762 326.7 143.262 334.5 152.062C340.87 161.462 346.2 171.462 350.5 182.062C354.64 190.212 361.14 193.052 370 190.562C376.97 188.232 384.14 186.402 391.5 185.062C392.27 185.202 392.94 185.542 393.5 186.062C394.16 188.362 394.66 190.692 395 193.062C389.95 216.822 380.78 238.822 367.5 259.062C360.96 265.272 354.13 271.102 347 276.562C339.53 280.302 331.86 283.472 324 286.062Z" fill="#242424"/>
<path fill-rule="evenodd" clip-rule="evenodd" d="M317.001 287.062C315.831 287.902 314.501 288.572 313.001 289.062C276.431 299.252 239.431 300.752 202.001 293.562C195.491 290.502 188.821 288.002 182.001 286.062C180.071 289.022 177.731 291.852 175.001 294.562C169.191 297.372 165.191 301.702 163.001 307.562C164.801 310.822 165.301 314.322 164.501 318.062C162.131 320.262 159.961 322.602 158.001 325.062C153.481 326.712 148.811 327.212 144.001 326.562C141.521 324.282 141.351 321.782 143.501 319.062C145.881 316.292 148.721 314.122 152.001 312.562C149.771 310.442 148.101 307.942 147.001 305.062C147.561 302.742 148.061 300.412 148.501 298.062C155.341 293.402 161.841 288.402 168.001 283.062C170.431 282.982 172.431 281.982 174.001 280.062C170.011 273.882 166.181 267.552 162.501 261.062C160.651 254.682 158.651 248.352 156.501 242.062C153.191 231.642 152.191 220.972 153.501 210.062C180.651 201.822 208.481 197.822 237.001 198.062C241.971 184.992 246.471 171.652 250.501 158.062C255.831 170.732 261.171 183.392 266.501 196.062C267.551 197.652 268.711 199.152 270.001 200.562C275.961 200.092 281.961 200.092 288.001 200.562C306.141 204.722 323.981 209.892 341.501 216.062C342.171 222.732 342.171 229.392 341.501 236.062C339.191 245.312 337.191 254.652 335.501 264.062C332.141 269.412 328.801 274.752 325.501 280.062C322.481 282.262 319.641 284.592 317.001 287.062Z" fill="#F8F9F8"/>
<path fill-rule="evenodd" clip-rule="evenodd" d="M225 217.062C220.73 214.652 216.07 213.652 211 214.062C203.99 214.482 196.99 214.982 190 215.562C184 217.222 179 220.392 175 225.062C171.6 226.952 168.6 229.452 166 232.562C156.1 237.322 153.27 234.492 157.5 224.062C174.34 205.562 194.51 200.402 218 208.562C221.64 210.362 223.98 213.202 225 217.062Z" fill="#080807"/>
<path fill-rule="evenodd" clip-rule="evenodd" d="M315 226.062C301.24 218.242 286.41 213.242 270.5 211.062C269.09 211.972 267.59 212.642 266 213.062C269.09 210.342 272.42 207.842 276 205.562C281.04 205.012 286.04 205.342 291 206.562C298.56 209.302 306.23 211.642 314 213.562C320.92 217.942 327.75 222.442 334.5 227.062C335.64 230.422 334.47 232.422 331 233.062C328.13 231.792 325.13 230.952 322 230.562C319.78 228.842 317.45 227.342 315 226.062Z" fill="#080907"/>
<path fill-rule="evenodd" clip-rule="evenodd" d="M224.999 217.062C225.989 221.372 227.819 225.372 230.499 229.062C231.389 232.712 231.719 236.382 231.499 240.062C227.189 250.042 220.349 257.882 210.999 263.562C184.159 267.722 171.659 256.222 173.499 229.062C174.289 227.822 174.789 226.482 174.999 225.062C178.999 220.392 183.999 217.222 189.999 215.562C196.989 214.982 203.989 214.482 210.999 214.062C216.069 213.652 220.729 214.652 224.999 217.062Z" fill="#477823"/>
<path fill-rule="evenodd" clip-rule="evenodd" d="M315.001 226.062C315.171 230.412 315.001 234.742 314.501 239.062C311.561 244.612 308.891 250.272 306.501 256.062C298.941 263.922 289.771 266.752 279.001 264.562C273.861 263.662 269.201 261.662 265.001 258.562C261.101 253.822 258.931 248.322 258.501 242.062C256.501 231.072 259.001 221.402 266.001 213.062C267.591 212.642 269.091 211.972 270.501 211.062C286.411 213.242 301.241 218.242 315.001 226.062Z" fill="#467723"/>
<path fill-rule="evenodd" clip-rule="evenodd" d="M278.001 214.062C281.121 214.202 283.621 215.542 285.501 218.062C285.491 222.772 284.831 227.442 283.501 232.062C281.911 233.862 279.911 234.862 277.501 235.062C275.041 234.402 272.541 234.072 270.001 234.062C269.931 231.482 268.761 229.482 266.501 228.062C265.301 223.772 266.471 220.272 270.001 217.562C272.871 216.622 275.541 215.452 278.001 214.062Z" fill="#F8FAF7"/>
<path fill-rule="evenodd" clip-rule="evenodd" d="M209 216.062C217.71 216.282 220.88 220.612 218.5 229.062C216.88 234.282 213.38 237.282 208 238.062C202.99 236.762 200.33 233.432 200 228.062C201.5 222.902 204.5 218.902 209 216.062Z" fill="#F9FAF8"/>
<path fill-rule="evenodd" clip-rule="evenodd" d="M260.001 267.062C262.981 267.202 264.981 268.702 266.001 271.562C263.641 276.602 260.311 280.932 256.001 284.562C253.331 285.232 250.671 285.232 248.001 284.562C244.221 282.342 240.221 280.672 236.001 279.562C232.851 275.672 233.511 272.842 238.001 271.062C241.711 271.752 245.051 273.252 248.001 275.562C249.671 276.232 251.331 276.232 253.001 275.562C255.221 272.602 257.561 269.772 260.001 267.062Z" fill="#0F0F0F"/>
<path fill-rule="evenodd" clip-rule="evenodd" d="M324 286.062C331.9 299.532 339.07 313.532 345.5 328.062C350.08 328.772 354.58 329.932 359 331.562C361.56 332.622 363.23 334.462 364 337.062C363.97 338.592 363.3 339.762 362 340.562C356 340.892 350 341.232 344 341.562C338.69 347.972 334.36 347.472 331 340.062C331 338.732 331 337.392 331 336.062C332.28 334.442 333.61 332.772 335 331.062C333.75 326.882 331.75 323.222 329 320.062C325.41 311.042 321.41 302.212 317 293.562C317.77 291.412 318.44 289.242 319 287.062C320.54 286.262 322.21 285.932 324 286.062Z" fill="#F9FBF9"/>
<path fill-rule="evenodd" clip-rule="evenodd" d="M182 286.062C188.82 288.002 195.49 290.502 202 293.562C239.43 300.752 276.43 299.252 313 289.062C313 294.092 313.34 299.092 314 304.062C307 307.062 299.66 308.902 292 309.562C275.85 310.862 259.68 312.022 243.5 313.062C228.68 312.002 213.85 311.162 199 310.562C191.55 309.532 184.21 308.032 177 306.062C179.29 299.552 180.96 292.882 182 286.062Z" fill="#84C976"/>
<path fill-rule="evenodd" clip-rule="evenodd" d="M182 286.062C180.96 292.882 179.29 299.552 177 306.062C174.74 310.852 173.07 315.852 172 321.062C171.37 323.462 170.37 325.802 169 328.062C192.58 334.932 216.58 339.772 241 342.562C254 343.232 267 343.232 280 342.562C290.25 340.712 300.58 339.712 311 339.562C313.52 338.222 316.19 337.392 319 337.062C319.28 331.972 318.95 326.972 318 322.062C317.3 315.802 315.96 309.802 314 304.062C313.34 299.092 313 294.092 313 289.062C314.5 288.572 315.83 287.902 317 287.062C317.67 287.062 318.33 287.062 319 287.062C318.44 289.242 317.77 291.412 317 293.562C321.41 302.212 325.41 311.042 329 320.062C329.99 325.352 330.65 330.682 331 336.062C331 337.392 331 338.732 331 340.062C328.54 341.352 326.54 343.182 325 345.562C313.03 349.772 300.69 352.272 288 353.062C283.69 352.552 279.69 353.222 276 355.062C256.28 354.762 236.62 353.762 217 352.062C212.37 351.232 207.7 350.562 203 350.062C197.08 348.242 191.08 346.742 185 345.562C179.19 342.752 173.19 340.422 167 338.562C163.83 336.062 160.67 333.562 157.5 331.062C157.01 329.012 157.18 327.012 158 325.062C159.96 322.602 162.13 320.262 164.5 318.062C165.3 314.322 164.8 310.822 163 307.562C165.19 301.702 169.19 297.372 175 294.562C177.73 291.852 180.07 289.022 182 286.062Z" fill="#50B155"/>
<path fill-rule="evenodd" clip-rule="evenodd" d="M314 304.062C315.96 309.802 317.3 315.802 318 322.062C297.16 325.432 276.16 327.102 255 327.062C227.22 326.342 199.55 324.342 172 321.062C173.07 315.852 174.74 310.852 177 306.062C184.21 308.032 191.55 309.532 199 310.562C213.85 311.162 228.68 312.002 243.5 313.062C259.68 312.022 275.85 310.862 292 309.562C299.66 308.902 307 307.062 314 304.062Z" fill="#252625"/>
<path fill-rule="evenodd" clip-rule="evenodd" d="M172 321.062C199.55 324.342 227.22 326.342 255 327.062C276.16 327.102 297.16 325.432 318 322.062C318.95 326.972 319.28 331.972 319 337.062C316.19 337.392 313.52 338.222 311 339.562C300.58 339.712 290.25 340.712 280 342.562C267 343.232 254 343.232 241 342.562C216.58 339.772 192.58 334.932 169 328.062C170.37 325.802 171.37 323.462 172 321.062Z" fill="#84C976"/>
<path fill-rule="evenodd" clip-rule="evenodd" d="M329 320.062C331.75 323.222 333.75 326.882 335 331.062C333.61 332.772 332.28 334.442 331 336.062C330.65 330.682 329.99 325.352 329 320.062Z" fill="#C4E9AE"/>
<path fill-rule="evenodd" clip-rule="evenodd" d="M203 350.062C207.7 350.562 212.37 351.232 217 352.062C217.26 359.452 216.93 366.782 216 374.062C211.09 372.482 206.09 371.152 201 370.062C201.67 363.392 202.33 356.732 203 350.062Z" fill="#F7F8F7"/>
<path fill-rule="evenodd" clip-rule="evenodd" d="M288 353.062C288.28 353.852 288.78 354.522 289.5 355.062C290 361.052 290.17 367.052 290 373.062C286.33 374.392 282.66 375.732 279 377.062C277.35 369.952 276.35 362.622 276 355.062C279.69 353.222 283.69 352.552 288 353.062Z" fill="#FAFBF9"/>
<path fill-rule="evenodd" clip-rule="evenodd" d="M201 370.062C206.09 371.152 211.09 372.482 216 374.062C216.43 377.422 215.43 380.262 213 382.562C206.02 384.502 199.02 386.332 192 388.062C183.96 384.272 182.96 379.102 189 372.562C193.25 372.492 197.25 371.652 201 370.062Z" fill="#232323"/>
<path fill-rule="evenodd" clip-rule="evenodd" d="M195.001 373.062C199.131 372.272 202.461 373.442 205.001 376.562C204.571 380.162 202.571 381.662 199.001 381.062C191.651 380.952 190.311 378.292 195.001 373.062Z" fill="#EBEBEB"/>
<path fill-rule="evenodd" clip-rule="evenodd" d="M290 373.062C296.83 371.612 302.33 373.612 306.5 379.062C307.36 382.522 306.19 385.022 303 386.562C297.03 387.722 291.03 388.222 285 388.062C280.69 387.252 278.03 384.752 277 380.562C277.48 379.262 278.14 378.092 279 377.062C282.66 375.732 286.33 374.392 290 373.062Z" fill="#222223"/>
<path fill-rule="evenodd" clip-rule="evenodd" d="M294 376.062C297.11 375.912 300.11 376.412 303 377.562C304.08 379.752 303.42 381.422 301 382.562C297.35 383.062 293.68 383.232 290 383.062C289.84 381.692 290.01 380.352 290.5 379.062C292.02 378.402 293.19 377.402 294 376.062Z" fill="#EEEEEE"/>
</svg>
