<svg width="500" height="500" viewBox="0 0 500 500" fill="none" xmlns="http://www.w3.org/2000/svg">
<path fill-rule="evenodd" clip-rule="evenodd" d="M231 110.061C249.34 109.891 267.67 110.061 286 110.561C295.99 112.691 299.83 118.861 297.5 129.061C287.47 138.761 277.13 148.101 266.5 157.061C266.74 160.671 266.91 164.341 267 168.061C272.72 168.481 278.39 169.321 284 170.561C295.17 175.621 306.51 180.281 318 184.561C328.51 192.571 337.84 201.741 346 212.061C351.44 206.031 356.77 199.861 362 193.561C376.93 184.451 386.09 188.281 389.5 205.061C393.63 224.111 392.29 242.781 385.5 261.061C382.29 271.981 377.12 281.821 370 290.561C365.09 293.151 360.92 292.311 357.5 288.061C353.43 304.011 344.93 317.181 332 327.561C322.17 332.051 312.5 336.721 303 341.561C307.96 348.981 312.3 356.821 316 365.061C320.81 361.471 326.14 360.301 332 361.561C335.37 365.321 335.87 369.491 333.5 374.061C328.38 380.711 321.88 385.541 314 388.561C310.94 389.301 307.94 389.131 305 388.061C297.56 374.681 290.23 361.181 283 347.561C270.65 346.731 258.32 346.891 246 348.061C248.43 355.191 249.43 362.521 249 370.061C253.2 369.641 257.36 368.971 261.5 368.061C267.41 368.301 270.07 371.301 269.5 377.061C266.32 384.231 260.82 388.401 253 389.561C245.23 390.491 237.56 390.161 230 388.561C227.36 374.581 225.02 360.411 223 346.061C208.54 345.671 195.21 341.511 183 333.561C162.68 319.141 149.68 299.641 144 275.061C131.09 276.201 122.25 270.861 117.5 259.061C109.85 240.791 106.51 221.791 107.5 202.061C108.99 190.261 114.82 181.431 125 175.561C132.58 175.291 139.92 176.621 147 179.561C157.56 183.951 167.4 189.451 176.5 196.061C181.42 193.511 185.92 190.351 190 186.561C198 182.891 206 179.231 214 175.561C223.59 173.311 233.26 171.481 243 170.061C243.33 165.681 242.99 161.341 242 157.061C232.35 148.581 222.85 139.911 213.5 131.061C212.83 129.061 212.83 127.061 213.5 125.061C216.78 116.941 222.62 111.941 231 110.061Z" fill="#7505EB"/>
<path fill-rule="evenodd" clip-rule="evenodd" d="M261 126.061C265.01 125.891 269.01 126.061 273 126.561C267.43 132.301 261.77 137.801 256 143.061C251.62 139.691 247.96 135.691 245 131.061C245.21 130.471 245.54 129.971 246 129.561C251.37 129.441 256.37 128.281 261 126.061Z" fill="#F9F5FC"/>
<path fill-rule="evenodd" clip-rule="evenodd" d="M129 192.061C147.97 193.201 158.13 203.201 159.5 222.061C156.66 233.101 153.66 244.101 150.5 255.061C144.42 261.141 137.92 261.471 131 256.061C121.17 236.511 119.34 216.181 125.5 195.061C126.65 193.921 127.81 192.921 129 192.061Z" fill="#FEECDD"/>
<path fill-rule="evenodd" clip-rule="evenodd" d="M333 239.061C329.69 236.401 326.02 234.231 322 232.561C315.56 231.371 309.22 229.701 303 227.561C293.74 225.001 286.24 227.501 280.5 235.061C274.54 247.031 274.54 259.031 280.5 271.061C303.33 284.321 318 277.991 324.5 252.061C324.3 249.331 324.47 246.661 325 244.061C328.36 247.201 332.36 248.871 337 249.061C342.7 272.161 334.37 287.661 312 295.561C278.61 308.271 245.94 306.601 214 290.561C206.29 286.521 201.12 280.351 198.5 272.061C198.38 266.121 197.22 260.451 195 255.061C197 252.231 199.5 249.891 202.5 248.061C202.07 252.011 202.07 256.011 202.5 260.061C209.64 280.221 222.47 285.051 241 274.561C248.38 267.911 251.88 259.741 251.5 250.061C248.36 245.441 246.02 240.441 244.5 235.061C240.71 231.651 236.21 229.811 231 229.561C224.61 228.801 218.28 229.141 212 230.561C206.69 232.551 201.69 235.051 197 238.061C198.1 233.201 200.26 228.871 203.5 225.061C220.28 208.591 240.44 199.591 264 198.061C271.18 198.111 278.18 199.271 285 201.561C307.7 205.721 323.7 218.221 333 239.061Z" fill="#FCEBDD"/>
<path fill-rule="evenodd" clip-rule="evenodd" d="M372 203.061C375.21 203.591 377.71 205.251 379.5 208.061C383.33 224.971 382.67 241.641 377.5 258.061C375.71 261.551 374.38 265.221 373.5 269.061C371.96 272.181 369.96 274.851 367.5 277.061C364.65 275.881 363.15 273.721 363 270.561C363.35 256.421 363.52 242.251 363.5 228.061C364.66 219.061 367.5 210.731 372 203.061Z" fill="#FDEBDE"/>
<path fill-rule="evenodd" clip-rule="evenodd" d="M332.999 239.061C336.549 240.671 339.549 243.001 341.999 246.061C341.079 248.321 339.409 249.321 336.999 249.061C332.359 248.871 328.359 247.201 324.999 244.061C324.469 246.661 324.299 249.331 324.499 252.061C317.999 277.991 303.329 284.321 280.499 271.061C274.539 259.031 274.539 247.031 280.499 235.061C286.239 227.501 293.739 225.001 302.999 227.561C309.219 229.701 315.559 231.371 321.999 232.561C326.019 234.231 329.689 236.401 332.999 239.061Z" fill="#050505"/>
<path fill-rule="evenodd" clip-rule="evenodd" d="M195 255.061C187.88 257.781 185.38 255.451 187.5 248.061C190.45 244.461 193.62 241.131 197 238.061C201.69 235.051 206.69 232.551 212 230.561C218.28 229.141 224.61 228.801 231 229.561C236.21 229.811 240.71 231.651 244.5 235.061C246.02 240.441 248.36 245.441 251.5 250.061C251.88 259.741 248.38 267.911 241 274.561C222.47 285.051 209.64 280.221 202.5 260.061C202.07 256.011 202.07 252.011 202.5 248.061C199.5 249.891 197 252.231 195 255.061Z" fill="#050405"/>
<path fill-rule="evenodd" clip-rule="evenodd" d="M290 234.061C295.44 233.011 298.44 235.181 299 240.561C298.55 243.741 298.05 246.901 297.5 250.061C289.62 255.201 284.45 253.201 282 244.061C282.08 242.261 282.58 240.591 283.5 239.061C285.83 237.491 287.99 235.831 290 234.061Z" fill="#F5F5F5"/>
<path fill-rule="evenodd" clip-rule="evenodd" d="M232 237.061C238.27 236.501 241.6 239.331 242 245.561C241.29 251.511 238.12 255.351 232.5 257.061C227.68 256.131 225.18 253.131 225 248.061C226.09 243.531 228.42 239.871 232 237.061Z" fill="#F6F6F6"/>
<path fill-rule="evenodd" clip-rule="evenodd" d="M277.001 281.061C278.701 280.901 280.371 281.071 282.001 281.561C283.211 284.591 282.711 287.421 280.501 290.061C278.331 292.231 276.171 294.391 274.001 296.561C267.641 295.971 261.811 293.801 256.501 290.061C255.911 286.971 257.251 285.311 260.501 285.061C264.281 286.721 268.111 287.881 272.001 288.561C273.911 286.161 275.581 283.661 277.001 281.061Z" fill="#0C0C0B"/>
<path fill-rule="evenodd" clip-rule="evenodd" d="M276 316.061C281.68 315.891 287.34 316.061 293 316.561C295.81 321.731 295.48 326.731 292 331.561C278.76 333.901 265.43 334.571 252 333.561C248.74 328.401 248.4 323.061 251 317.561C259.51 317.391 267.84 316.891 276 316.061Z" fill="#B3B3B2"/>
</svg>
