<svg width="500" height="500" viewBox="0 0 500 500" fill="none" xmlns="http://www.w3.org/2000/svg">
<path fill-rule="evenodd" clip-rule="evenodd" d="M328 186.061C328.56 189.958 329.56 193.624 331 197.061C333.52 207.077 336.85 216.743 341 226.061C364.13 229.149 383.96 238.816 400.5 255.061C411.23 270.861 415.06 288.194 412 307.061C412.81 319.316 416.31 330.649 422.5 341.061C424.28 348.325 422.45 354.492 417 359.561C400.21 366.121 383.55 372.955 367 380.061C362.52 381.965 357.85 383.298 353 384.061C341.14 386.846 329.48 390.346 318 394.561C312.33 395.228 306.67 395.228 301 394.561C298.14 393.148 295.47 391.648 293 390.061C291.07 388.448 288.74 387.448 286 387.061C285.31 387.586 284.81 388.253 284.5 389.061C284.13 388.145 283.63 387.311 283 386.561C280.94 386.25 278.94 385.75 277 385.061C276.07 386.25 275.74 387.583 276 389.061C260.87 389.037 248.54 383.203 239 371.561C215.59 362.856 193.59 351.523 173 337.561C168.42 333.487 164.42 328.987 161 324.061C163.19 316.638 165.69 309.305 168.5 302.061C169.15 300.326 168.98 298.659 168 297.061C170.65 294.969 171.49 292.303 170.5 289.061C169.37 287.35 167.87 286.85 166 287.561C158.54 294.971 153.54 303.804 151 314.061C121.64 292.51 101.8 264.176 91.5 229.061C87.57 214.602 83.24 200.268 78.5 186.061C76.93 178.476 76.09 170.809 76 163.061C76.57 151.397 77.07 139.731 77.5 128.061C79.23 122.264 82.23 117.264 86.5 113.061C87.12 93.1952 89.12 73.5282 92.5 54.0612C97.14 44.8192 104.64 39.6532 115 38.5612C124.86 37.6842 134.52 38.6842 144 41.5612C150.57 48.0122 158.23 52.6782 167 55.5612C173.15 56.2922 179.31 56.7922 185.5 57.0612C201.89 54.4542 217.73 56.2882 233 62.5612C241.31 68.5342 247.81 76.0342 252.5 85.0612C252.74 93.2712 254.74 100.937 258.5 108.061C261.42 116.258 264.09 124.591 266.5 133.061C267 138.05 267.17 143.05 267 148.061C294.62 144.282 313.46 155.282 323.5 181.061C325.89 181.951 327.39 183.618 328 186.061Z" fill="#4CAF50"/>
<path fill-rule="evenodd" clip-rule="evenodd" d="M365 333.062C346.38 336.457 328.05 335.29 310 329.562C289.12 320.266 279.78 304.433 282 282.062C270.69 285.611 260.02 284.111 250 277.562C225.02 262.248 206.85 241.082 195.5 214.062C193.24 207.642 193.74 201.475 197 195.562C177.9 200.262 164.73 193.428 157.5 175.062C156.57 166.87 153.24 159.87 147.5 154.062C144.33 146.338 143.33 138.338 144.5 130.062C150.13 119.082 155.8 108.082 161.5 97.0616C165.24 91.8236 169.74 87.4906 175 84.0616C182.6 80.5716 190.6 78.4056 199 77.5616C205.71 76.3136 212.05 77.3136 218 80.5616C224.17 86.0616 230.33 91.5616 236.5 97.0616C244.64 109.172 247.31 122.506 244.5 137.062C242.56 148.112 238.06 157.945 231 166.562C245.31 166.987 259.64 166.653 274 165.562C290.1 170.529 301.6 180.696 308.5 196.062C313.72 206.258 315.38 216.924 313.5 228.062C308.99 234.018 307.83 240.685 310 248.062C319.93 240.997 330.93 238.497 343 240.562C368.62 243.861 386.46 257.361 396.5 281.062C399.44 306.881 388.94 324.214 365 333.062Z" fill="#8AC24A"/>
<path fill-rule="evenodd" clip-rule="evenodd" d="M175.001 84.0611C169.741 87.4901 165.241 91.8231 161.501 97.0611C155.801 108.081 150.131 119.081 144.501 130.061C143.331 138.337 144.331 146.337 147.501 154.061C153.241 159.869 156.571 166.869 157.501 175.061C164.731 193.427 177.901 200.261 197.001 195.561C193.741 201.474 193.241 207.641 195.501 214.061C206.851 241.081 225.021 262.247 250.001 277.561C260.021 284.11 270.691 285.61 282.001 282.061C279.781 304.432 289.121 320.265 310.001 329.561C328.051 335.289 346.381 336.456 365.001 333.061C365.541 333.121 365.881 333.454 366.001 334.061C362.661 339.225 357.991 342.725 352.001 344.561C327.871 347.445 306.201 341.445 287.001 326.561C279.271 318.158 270.931 310.491 262.001 303.561C231.481 272.309 200.651 241.475 169.501 211.061C158.171 195.742 147.841 179.742 138.501 163.061C136.141 156.278 133.471 149.611 130.501 143.061C129.091 134.769 128.761 126.436 129.501 118.061C131.741 113.813 134.741 110.147 138.501 107.061C139.291 92.9351 146.791 85.4351 161.001 84.5611C165.651 84.0621 170.321 83.8951 175.001 84.0611Z" fill="#3D8B3F"/>
<path fill-rule="evenodd" clip-rule="evenodd" d="M218 97.0617C212.71 99.1337 207.88 102.134 203.5 106.062C202.08 114.378 205.24 120.212 213 123.562C220.13 123.602 224.47 120.102 226 113.062C225.03 108.649 223.03 104.816 220 101.562C221.75 101.21 223.41 100.71 225 100.062C233.38 105.52 236.22 113.187 233.5 123.062C227.34 141.472 214.67 152.139 195.5 155.062C187.21 155.374 181.04 152.041 177 145.062C178.59 143.451 179.76 141.451 180.5 139.062C184.7 145.033 190.2 146.533 197 143.562C201.27 138.681 202.1 133.181 199.5 127.062C192.8 120.497 186.13 120.497 179.5 127.062C176.92 130.288 175.42 133.955 175 138.062C172.76 132.857 172.93 127.524 175.5 122.062C180.64 107.06 191.14 98.5597 207 96.5617C210.76 95.8067 214.42 95.9727 218 97.0617Z" fill="#FAFBF9"/>
<path fill-rule="evenodd" clip-rule="evenodd" d="M225 100.062C223.41 100.71 221.75 101.21 220 101.562C223.03 104.816 225.03 108.649 226 113.062C224.47 120.102 220.13 123.602 213 123.562C205.24 120.212 202.08 114.378 203.5 106.062C207.88 102.134 212.71 99.1335 218 97.0615C220.62 97.3295 223.12 96.9965 225.5 96.0615C227.52 97.6855 227.35 99.0185 225 100.062Z" fill="#070707"/>
<path fill-rule="evenodd" clip-rule="evenodd" d="M207 106.062C210.29 106.682 212.29 108.682 213 112.062C210.9 115.546 208.4 115.88 205.5 113.062C205.26 110.603 205.76 108.269 207 106.062Z" fill="#F4F4F4"/>
<path fill-rule="evenodd" clip-rule="evenodd" d="M177 145.061C176.38 144.95 175.88 144.617 175.5 144.061C175 142.088 174.84 140.088 175 138.061C175.42 133.954 176.92 130.287 179.5 127.061C186.13 120.496 192.8 120.496 199.5 127.061C202.1 133.18 201.27 138.68 197 143.561C190.2 146.532 184.7 145.032 180.5 139.061C179.76 141.45 178.59 143.45 177 145.061Z" fill="#060606"/>
<path fill-rule="evenodd" clip-rule="evenodd" d="M187 125.062C193.99 124.893 195.65 127.726 192 133.562C188.35 133.751 186.35 131.918 186 128.062C186.63 127.145 186.96 126.145 187 125.062Z" fill="#EEEEEE"/>
<path fill-rule="evenodd" clip-rule="evenodd" d="M216 127.061C217 126.975 217.83 127.309 218.5 128.061C219.17 130.394 219.17 132.728 218.5 135.061C216.17 136.061 213.83 137.061 211.5 138.061C210.81 137.536 210.31 136.869 210 136.061C211.44 134.008 213.44 133.008 216 133.061C215.22 130.949 215.22 128.949 216 127.061Z" fill="#101010"/>
<path fill-rule="evenodd" clip-rule="evenodd" d="M331 197.062C329.56 193.625 328.56 189.959 328 186.062C338.91 179.317 348.08 170.651 355.5 160.062C356.17 159.062 356.17 158.062 355.5 157.062C350.56 154.837 348.23 151.171 348.5 146.062C349.08 142.136 351.25 140.636 355 141.562C357 143.895 359 146.229 361 148.562C367.31 148.583 372.98 146.583 378 142.562C386.06 141.189 388.23 144.356 384.5 152.062C380.78 157.608 375.62 160.941 369 162.062C364.34 171.221 358.68 179.721 352 187.562C348.84 190.644 345.17 192.978 341 194.562C338.93 195.249 336.93 195.082 335 194.062C333.6 195.083 332.27 196.083 331 197.062Z" fill="#060606"/>
<path fill-rule="evenodd" clip-rule="evenodd" d="M293 186.062C289.2 186.381 289.03 187.381 292.5 189.062C295.99 194.793 296.65 200.793 294.5 207.062C284.44 216.05 276.44 214.383 270.5 202.062C268.78 196.405 270.28 191.905 275 188.562C278.2 186.463 281.53 184.629 285 183.062C288.37 182.317 291.71 181.317 295 180.062C296.22 180.449 296.89 181.282 297 182.562C295.86 183.964 294.52 185.131 293 186.062Z" fill="#080807"/>
<path fill-rule="evenodd" clip-rule="evenodd" d="M284.999 183.062C281.529 184.629 278.199 186.463 274.999 188.562C270.279 191.905 268.779 196.405 270.499 202.062C276.439 214.383 284.439 216.05 294.499 207.062C296.649 200.793 295.989 194.793 292.499 189.062C289.029 187.381 289.199 186.381 292.999 186.062C298.499 192.531 301.839 200.031 302.999 208.562C302.359 214.669 300.199 220.169 296.499 225.062C285.909 238.588 272.079 244.754 254.999 243.562C251.129 242.131 247.789 239.965 244.999 237.062C244.839 235.363 245.009 233.696 245.499 232.062C250.249 240.19 256.749 242.023 264.999 237.562C270.119 231.588 270.949 225.088 267.499 218.062C256.009 209.531 247.169 211.865 240.999 225.062C240.029 219.017 240.859 213.017 243.499 207.062C245.989 202.632 247.989 197.965 249.499 193.062C250.999 191.562 252.499 190.062 253.999 188.562C260.369 186.688 266.699 184.688 272.999 182.562C277.189 181.75 281.189 181.917 284.999 183.062Z" fill="#FAFBF9"/>
<path fill-rule="evenodd" clip-rule="evenodd" d="M275 193.062C280 194.544 281.67 197.711 280 202.562C271.48 203.211 269.82 200.044 275 193.062Z" fill="#F2F2F2"/>
<path fill-rule="evenodd" clip-rule="evenodd" d="M245.001 237.061C243.731 241.631 241.901 241.965 239.501 238.061C238.921 233.606 239.421 229.273 241.001 225.061C247.171 211.864 256.011 209.53 267.501 218.061C270.951 225.087 270.121 231.587 265.001 237.561C256.751 242.022 250.251 240.189 245.501 232.061C245.011 233.695 244.841 235.362 245.001 237.061Z" fill="#080807"/>
<path fill-rule="evenodd" clip-rule="evenodd" d="M254 216.062C259.73 216.521 261.73 219.521 260 225.062C255.38 226.798 252.71 225.132 252 220.062C252.25 218.489 252.92 217.156 254 216.062Z" fill="#F6F6F6"/>
<path fill-rule="evenodd" clip-rule="evenodd" d="M287 216.062C287.96 216.515 288.79 217.181 289.5 218.062C290.94 225.47 287.77 229.137 280 229.062C279.74 227.584 280.07 226.251 281 225.062C282.56 224.488 284.06 223.822 285.5 223.062C285.79 220.642 286.29 218.308 287 216.062Z" fill="#0F0F0F"/>
<path fill-rule="evenodd" clip-rule="evenodd" d="M365 263.061C366.28 265.613 367.78 268.613 369.5 272.061C370.03 280.864 365.86 285.031 357 284.561C349.2 281.452 346.36 275.952 348.5 268.061C351.44 264.524 354.94 261.858 359 260.061C362.6 258.537 366.27 258.204 370 259.061C368.49 260.643 366.82 261.977 365 263.061Z" fill="#070707"/>
<path fill-rule="evenodd" clip-rule="evenodd" d="M359.001 260.061C354.941 261.858 351.441 264.524 348.501 268.061C346.361 275.952 349.201 281.452 357.001 284.561C365.861 285.031 370.031 280.864 369.501 272.061C367.781 268.613 366.281 265.613 365.001 263.061C376.991 267.152 381.821 275.486 379.501 288.061C371.281 305.019 357.611 313.352 338.501 313.061C334.381 313.081 330.551 312.081 327.001 310.061C327.711 307.815 328.211 305.481 328.501 303.061C333.411 309.157 339.071 310.157 345.501 306.061C348.471 300.992 348.801 295.659 346.501 290.061C337.921 283.656 330.921 284.989 325.501 294.061C324.151 297.281 323.311 300.614 323.001 304.061C321.531 303.214 320.701 301.881 320.501 300.061C319.831 296.394 319.831 292.728 320.501 289.061C325.921 274.913 335.751 265.08 350.001 259.561C353.091 258.825 356.091 258.992 359.001 260.061Z" fill="#FAFBF9"/>
<path fill-rule="evenodd" clip-rule="evenodd" d="M351.001 269.062C355.781 269.653 357.451 272.153 356.001 276.562C350.091 277.308 348.431 274.808 351.001 269.062Z" fill="#F7F7F7"/>
<path fill-rule="evenodd" clip-rule="evenodd" d="M326.999 310.062C324.209 309.17 322.869 307.17 322.999 304.062C323.309 300.615 324.149 297.282 325.499 294.062C330.919 284.99 337.919 283.657 346.499 290.062C348.799 295.66 348.469 300.993 345.499 306.062C339.069 310.158 333.409 309.158 328.499 303.062C328.209 305.482 327.709 307.816 326.999 310.062Z" fill="#070707"/>
<path fill-rule="evenodd" clip-rule="evenodd" d="M161 324.061C156.98 331.109 154.65 338.776 154 347.061C158.46 347.491 162.62 348.825 166.5 351.061C169.55 354.092 169.72 357.259 167 360.561C161.1 359.439 155.1 359.106 149 359.561C145.35 360.693 143.51 363.193 143.5 367.061C141.17 369.728 138.83 369.728 136.5 367.061C136.21 364.67 135.71 362.337 135 360.061C138.85 355.029 141.02 349.362 141.5 343.061C144.68 333.369 147.85 323.702 151 314.061C153.54 303.804 158.54 294.971 166 287.561C167.87 286.85 169.37 287.35 170.5 289.061C171.49 292.303 170.65 294.969 168 297.061C168.98 298.659 169.15 300.326 168.5 302.061C165.69 309.305 163.19 316.638 161 324.061Z" fill="#060706"/>
<path fill-rule="evenodd" clip-rule="evenodd" d="M335 288.062C340.32 288.864 341.99 291.697 340 296.562C336.3 297.385 333.97 295.885 333 292.062C333.68 290.702 334.35 289.369 335 288.062Z" fill="#EFEFEF"/>
<path fill-rule="evenodd" clip-rule="evenodd" d="M362 288.062C363 287.976 363.83 288.31 364.5 289.062C366.65 295.454 364.15 298.787 357 299.062C356.91 296.021 358.41 294.355 361.5 294.062C362 292.089 362.16 290.089 362 288.062Z" fill="#131313"/>
<path fill-rule="evenodd" clip-rule="evenodd" d="M367.001 380.062C368.471 397.3 367.811 414.467 365.001 431.562C365.331 432.729 365.671 433.895 366.001 435.062C373.041 437.331 379.211 440.997 384.501 446.062C386.041 450.682 384.541 453.849 380.001 455.562C377.671 456.229 375.331 456.229 373.001 455.562C367.201 451.753 361.031 448.919 354.501 447.062C353.071 426.102 352.571 405.102 353.001 384.062C357.851 383.299 362.521 381.966 367.001 380.062Z" fill="#060606"/>
<path fill-rule="evenodd" clip-rule="evenodd" d="M293 390.062C294.1 395.329 294.77 400.663 295 406.062C295.03 418.056 294.69 430.056 294 442.062C300.53 443.988 306.86 446.488 313 449.562C315.12 451.78 315.45 454.28 314 457.062C308.46 460.444 302.46 461.611 296 460.562C292.54 458.819 288.88 457.819 285 457.562C281.48 456.078 279.65 453.578 279.5 450.062C280.4 448.861 281.57 448.027 283 447.562C281.77 434.791 280.6 421.958 279.5 409.062C278.98 402.226 277.81 395.559 276 389.062C275.74 387.584 276.07 386.251 277 385.062C278.94 385.751 280.94 386.251 283 386.562C283.63 387.312 284.13 388.146 284.5 389.062C284.81 388.254 285.31 387.587 286 387.062C288.74 387.449 291.07 388.449 293 390.062Z" fill="#060706"/>
</svg>
