<svg width="500" height="500" viewBox="0 0 500 500" fill="none" xmlns="http://www.w3.org/2000/svg">
<path fill-rule="evenodd" clip-rule="evenodd" d="M232 99.0616C235.02 98.9016 238.02 99.0616 241 99.5616C243.93 101.942 246.76 104.442 249.5 107.062C249.14 111.362 249.14 115.692 249.5 120.062C251.89 133.112 254.56 146.112 257.5 159.062C258.48 164.352 258.98 169.692 259 175.062C296.05 172.912 324.05 187.582 343 219.062C344.52 216.702 346.52 214.872 349 213.562C357.16 208.802 365.83 205.802 375 204.562C376.33 205.232 377.67 205.892 379 206.562C383.63 213.982 388.13 221.482 392.5 229.062C394.09 238.652 394.42 248.322 393.5 258.062C389.59 269.112 386.93 280.452 385.5 292.062C382.99 300.932 379.32 309.262 374.5 317.062C369.89 321.802 364.22 323.802 357.5 323.062C350.03 323.402 343.53 321.072 338 316.062C326.92 332.632 311.92 344.132 293 350.562C291.6 363.632 290.77 376.802 290.5 390.062C287.13 393.492 282.96 395.322 278 395.562C275.67 397.732 273 399.392 270 400.562C263.34 401.442 256.67 401.772 250 401.562C248.83 400.392 247.67 399.232 246.5 398.062C243.92 384.142 249.75 377.472 264 378.062C264 370.392 264 362.732 264 355.062C250.53 355.562 237.2 354.562 224 352.062C224.17 356.072 224 360.072 223.5 364.062C220.58 374.212 217.42 384.212 214 394.062C208.36 394.122 202.7 394.452 197 395.062C189.95 393.642 182.95 391.812 176 389.562C170.17 384.552 169.34 378.722 173.5 372.062C175.04 370.182 176.88 368.682 179 367.562C184.95 367.252 190.78 367.082 196.5 367.062C197.33 359.372 197.16 351.712 196 344.062C189.67 342.392 183.67 339.892 178 336.562C174.19 332.822 169.86 329.822 165 327.562C158.67 321.712 153.17 315.212 148.5 308.062C143.86 309.782 139.02 310.942 134 311.562C127.55 313.742 123.38 311.572 121.5 305.062C115.74 292.542 111.41 279.542 108.5 266.062C102.24 240.672 108.4 219.172 127 201.562C136.74 197.152 145.41 198.652 153 206.062C160.22 201.282 166.89 195.782 173 189.562C177.17 186.972 181.51 184.642 186 182.562C196.92 179.252 207.92 176.412 219 174.062C221.93 156.842 224.09 139.502 225.5 122.062C225.75 119.382 226.75 117.052 228.5 115.062C228.83 110.732 229.17 106.392 229.5 102.062C230.54 101.192 231.38 100.192 232 99.0616Z" fill="#9CF663"/>
<path fill-rule="evenodd" clip-rule="evenodd" d="M314 247.062C309.72 244.252 305.39 241.412 301 238.562C294.31 236.442 287.65 234.112 281 231.562C265.77 228.612 255.94 234.782 251.5 250.062C247.56 274.852 258.06 285.682 283 282.562C287.29 281.162 290.79 278.662 293.5 275.062C298.89 267.572 301.89 259.232 302.5 250.062C306.69 253.812 311.53 256.142 317 257.062C318 258.242 318.84 259.582 319.5 261.062C323.04 271.442 321.37 280.772 314.5 289.062C304.85 299.302 293.02 305.472 279 307.562C262.67 308.152 246.34 308.652 230 309.062C214.16 310.032 198.82 307.872 184 302.562C175.87 296.772 168.71 289.932 162.5 282.062C160.5 274.882 159.33 267.552 159 260.062C159.19 257.342 160.19 255.012 162 253.062C163.37 253.222 164.71 253.052 166 252.562C169.19 249.872 172.53 247.372 176 245.062C176.91 246.352 176.74 247.682 175.5 249.062C173.46 262.952 178.62 273.122 191 279.562C210.31 282.062 221.98 273.892 226 255.062C225.83 253.062 225.67 251.062 225.5 249.062C222.44 243.752 219.94 238.252 218 232.562C205.65 226.372 192.98 225.532 180 230.062C181.72 226.832 184.05 224.002 187 221.562C201.92 211.702 218.25 206.702 236 206.562C245.83 208.912 255.83 210.252 266 210.562C273.11 212.112 279.77 214.782 286 218.562C288.12 220.972 290.12 223.472 292 226.062C302.62 229.682 309.95 236.682 314 247.062Z" fill="#E3C488"/>
<path fill-rule="evenodd" clip-rule="evenodd" d="M124 213.062C132.93 213.322 137.59 217.992 138 227.062C132.76 246.022 130.59 265.362 131.5 285.062C128.82 288.392 125.65 288.892 122 286.562C120.12 284.312 118.62 281.812 117.5 279.062C114.26 269.102 112.1 258.932 111 248.562C108.54 233.982 112.87 222.152 124 213.062Z" fill="#E4C488"/>
<path fill-rule="evenodd" clip-rule="evenodd" d="M366 225.062C376.56 223.792 382.06 228.462 382.5 239.062C382.24 255.972 378.9 272.302 372.5 288.062C361.84 308.352 352.17 308.022 343.5 287.062C342.34 275.532 343.84 264.362 348 253.562C346.01 243.212 349.01 234.552 357 227.562C359.67 227.232 362.33 226.892 365 226.562C365.56 226.182 365.89 225.682 366 225.062Z" fill="#E4C588"/>
<path fill-rule="evenodd" clip-rule="evenodd" d="M162 253.061C159.52 250.031 159.35 246.701 161.5 243.061C166.72 237.341 172.88 233.011 180 230.061C192.98 225.531 205.65 226.371 218 232.561C219.94 238.251 222.44 243.751 225.5 249.061C225.67 251.061 225.83 253.061 226 255.061C221.98 273.891 210.31 282.061 191 279.561C178.62 273.121 173.46 262.951 175.5 249.061C176.74 247.681 176.91 246.351 176 245.061C172.53 247.371 169.19 249.871 166 252.561C164.71 253.051 163.37 253.221 162 253.061Z" fill="#040403"/>
<path fill-rule="evenodd" clip-rule="evenodd" d="M314 247.061C316.66 248.571 318.66 250.741 320 253.561C319.43 255.161 318.43 256.331 317 257.061C311.53 256.141 306.69 253.811 302.5 250.061C301.89 259.231 298.89 267.571 293.5 275.061C290.79 278.661 287.29 281.161 283 282.561C258.06 285.681 247.56 274.851 251.5 250.061C255.94 234.781 265.77 228.611 281 231.561C287.65 234.111 294.31 236.441 301 238.561C305.39 241.411 309.72 244.251 314 247.061Z" fill="#050404"/>
<path fill-rule="evenodd" clip-rule="evenodd" d="M205 237.062C211.99 235.402 215.99 238.062 217 245.062C216.05 251.672 212.38 255.672 206 257.062C199.07 254.622 197.24 249.952 200.5 243.062C201.83 240.902 203.33 238.902 205 237.062Z" fill="#F6F6F6"/>
<path fill-rule="evenodd" clip-rule="evenodd" d="M267 237.062C272.58 236.332 275.58 238.662 276 244.062C274.98 247.292 274.15 250.622 273.5 254.062C270.13 257.452 266.29 257.952 262 255.562C260.64 252.882 259.3 250.212 258 247.562C258.13 245.932 258.63 244.432 259.5 243.062C262.15 241.142 264.65 239.142 267 237.062Z" fill="#F5F5F5"/>
<path fill-rule="evenodd" clip-rule="evenodd" d="M251.001 285.062C255.571 284.642 257.071 286.642 255.501 291.062C253.001 294.892 249.831 298.062 246.001 300.562C243.591 301.042 241.251 300.712 239.001 299.562C236.281 297.532 233.281 296.032 230.001 295.062C227.011 291.682 227.681 289.352 232.001 288.062C235.921 289.462 239.751 291.132 243.501 293.062C246.221 290.652 248.721 287.992 251.001 285.062Z" fill="#0A0908"/>
<path fill-rule="evenodd" clip-rule="evenodd" d="M223 318.061C235.34 317.891 247.67 318.061 260 318.561C261.81 323.861 262.47 329.361 262 335.061C250.4 336.881 238.73 337.381 227 336.561C225 335.891 223 335.231 221 334.561C220.33 330.231 219.67 325.891 219 321.561C220.23 320.161 221.56 318.991 223 318.061Z" fill="#B3B2B3"/>
</svg>
