<svg width="500" height="500" viewBox="0 0 500 500" fill="none" xmlns="http://www.w3.org/2000/svg">
<path fill-rule="evenodd" clip-rule="evenodd" d="M262.001 102.062C265.461 101.712 267.961 103.042 269.501 106.062C271.221 112.922 272.221 119.922 272.501 127.062C273.501 129.392 274.501 131.732 275.501 134.062C275.611 144.062 275.281 154.062 274.501 164.062C272.801 170.762 268.631 175.262 262.001 177.562C260.031 178.062 258.031 178.222 256.001 178.062C256.001 179.732 256.001 181.392 256.001 183.062C273.961 182.322 289.631 187.822 303.001 199.562C307.211 201.182 311.211 203.182 315.001 205.562C320.191 211.412 325.361 217.252 330.501 223.062C333.231 221.112 336.061 219.272 339.001 217.562C342.111 215.842 345.441 215.002 349.001 215.062C358.701 215.562 367.861 217.902 376.501 222.062C378.441 225.672 380.781 229.002 383.501 232.062C385.421 235.102 386.261 238.442 386.001 242.062C386.171 255.392 383.331 268.062 377.501 280.062C377.031 288.582 374.701 296.582 370.501 304.062C366.771 312.452 360.941 318.952 353.001 323.562C348.001 324.232 343.001 324.232 338.001 323.562C334.491 321.722 330.821 320.722 327.001 320.562C321.391 326.172 315.721 331.842 310.001 337.562C303.361 342.032 296.361 345.862 289.001 349.062C288.671 351.062 288.331 353.062 288.001 355.062C289.491 363.982 290.491 372.982 291.001 382.062C291.181 385.142 290.511 387.972 289.001 390.562C279.451 396.432 269.121 398.762 258.001 397.562C252.911 392.342 252.741 386.842 257.501 381.062C260.371 378.292 263.701 376.292 267.501 375.062C268.161 367.962 267.661 360.962 266.001 354.062C250.651 354.732 235.321 355.732 220.001 357.062C212.631 367.572 205.961 378.402 200.001 389.562C195.341 392.042 190.341 392.702 185.001 391.562C176.861 387.082 170.361 380.912 165.501 373.062C164.011 368.032 165.171 363.872 169.001 360.562C177.001 358.522 183.831 360.352 189.501 366.062C193.331 360.392 197.171 354.732 201.001 349.062C195.771 347.282 191.431 344.282 188.001 340.062C177.261 335.152 167.761 328.492 159.501 320.062C157.921 313.892 154.581 308.892 149.501 305.062C147.141 308.762 143.811 310.762 139.501 311.062C134.921 310.192 130.761 308.352 127.001 305.562C119.571 296.032 115.401 285.202 114.501 273.062C113.831 261.062 113.831 249.062 114.501 237.062C116.801 229.882 118.471 222.542 119.501 215.062C123.791 205.202 130.961 202.362 141.001 206.562C146.681 209.732 152.011 213.402 157.001 217.562C158.501 218.062 160.001 218.562 161.501 219.062C180.151 197.992 203.651 186.322 232.001 184.062C228.881 172.252 227.711 160.252 228.501 148.062C229.541 145.812 230.711 143.652 232.001 141.562C236.021 140.432 239.861 138.932 243.501 137.062C246.131 137.492 248.631 138.332 251.001 139.562C253.171 143.062 255.331 146.562 257.501 150.062C257.251 137.012 256.591 124.012 255.501 111.062C257.111 107.622 259.281 104.622 262.001 102.062Z" fill="#FECB31"/>
<path fill-rule="evenodd" clip-rule="evenodd" d="M308.001 247.062C304.421 243.992 300.421 241.492 296.001 239.562C288.381 237.352 280.721 235.352 273.001 233.562C264.351 232.972 257.851 236.472 253.501 244.062C248.561 254.902 248.901 265.572 254.501 276.062C262.441 281.752 271.271 283.582 281.001 281.562C284.261 280.352 287.091 278.522 289.501 276.062C292.441 270.512 295.111 264.852 297.501 259.062C297.191 256.012 297.351 253.012 298.001 250.062C301.491 253.882 305.821 255.882 311.001 256.062C311.661 258.722 312.321 261.382 313.001 264.062C313.181 275.702 308.851 285.202 300.001 292.562C294.701 295.212 289.361 297.882 284.001 300.562C262.391 303.092 240.721 304.422 219.001 304.562C201.711 301.172 186.551 293.672 173.501 282.062C172.061 278.052 170.061 274.382 167.501 271.062C166.771 266.582 167.271 262.242 169.001 258.062C172.601 255.802 175.941 253.132 179.001 250.062C177.841 258.912 179.671 267.252 184.501 275.062C193.341 283.092 203.181 284.262 214.001 278.562C222.901 272.272 227.061 263.772 226.501 253.062C223.521 248.072 221.021 242.902 219.001 237.562C206.861 231.082 194.521 230.582 182.001 236.062C194.061 228.372 207.061 222.202 221.001 217.562C254.061 211.442 282.561 219.942 306.501 243.062C307.291 244.302 307.791 245.642 308.001 247.062Z" fill="#FCEBDD"/>
<path fill-rule="evenodd" clip-rule="evenodd" d="M129 220.062C131.03 219.902 133.03 220.062 135 220.562C137.71 222.902 140.54 225.072 143.5 227.062C145.88 234.882 146.55 242.882 145.5 251.062C143.91 262.032 142.58 273.032 141.5 284.062C139.76 285.282 138.76 286.942 138.5 289.062C135.79 292.542 132.79 292.872 129.5 290.062C127.75 288.072 126.75 285.742 126.5 283.062C124.74 268.252 123.24 253.422 122 238.562C122.63 233.862 123.8 229.362 125.5 225.062C126.68 223.362 127.84 221.702 129 220.062Z" fill="#FFECDE"/>
<path fill-rule="evenodd" clip-rule="evenodd" d="M169.001 258.062C167.361 258.272 165.861 257.942 164.501 257.062C163.831 254.732 163.831 252.392 164.501 250.062C169.321 244.072 175.151 239.402 182.001 236.062C194.521 230.582 206.861 231.082 219.001 237.562C221.021 242.902 223.521 248.072 226.501 253.062C227.061 263.772 222.901 272.272 214.001 278.562C203.181 284.262 193.341 283.092 184.501 275.062C179.671 267.252 177.841 258.912 179.001 250.062C175.941 253.132 172.601 255.802 169.001 258.062Z" fill="#050504"/>
<path fill-rule="evenodd" clip-rule="evenodd" d="M308 247.061C310.9 248.351 313.23 250.351 315 253.061C314.22 254.851 312.88 255.851 311 256.061C305.82 255.881 301.49 253.881 298 250.061C297.35 253.011 297.19 256.011 297.5 259.061C295.11 264.851 292.44 270.511 289.5 276.061C287.09 278.521 284.26 280.351 281 281.561C271.27 283.581 262.44 281.751 254.5 276.061C248.9 265.571 248.56 254.901 253.5 244.061C257.85 236.471 264.35 232.971 273 233.561C280.72 235.351 288.38 237.351 296 239.561C300.42 241.491 304.42 243.991 308 247.061Z" fill="#050505"/>
<path fill-rule="evenodd" clip-rule="evenodd" d="M356.001 232.062C360.341 231.412 364.171 232.412 367.501 235.062C370.251 240.062 372.081 245.392 373.001 251.062C368.941 267.082 364.771 283.082 360.501 299.062C357.411 305.692 352.241 308.192 345.001 306.562C340.421 302.242 337.261 297.072 335.501 291.062C334.831 282.392 334.831 273.732 335.501 265.062C337.801 258.532 339.471 251.862 340.501 245.062C344.351 239.042 349.511 234.712 356.001 232.062Z" fill="#FFEBDD"/>
<path fill-rule="evenodd" clip-rule="evenodd" d="M264 240.061C267.19 239.581 270.02 240.251 272.5 242.061C273.61 247.841 272.45 253.011 269 257.561C262.82 259.221 258.66 257.051 256.5 251.061C255.76 248.351 256.43 246.011 258.5 244.061C260.67 243.071 262.5 241.741 264 240.061Z" fill="#F4F4F4"/>
<path fill-rule="evenodd" clip-rule="evenodd" d="M208 241.062C214.22 240.452 217.56 243.282 218 249.562C216.39 254.972 213.06 258.812 208 261.062C200.67 257.472 199.17 252.142 203.5 245.062C204.9 243.492 206.4 242.162 208 241.062Z" fill="#F4F4F4"/>
<path fill-rule="evenodd" clip-rule="evenodd" d="M251 285.062C255.57 284.642 257.07 286.642 255.5 291.062C253.37 294.192 250.87 297.022 248 299.562C246 300.232 244 300.232 242 299.562C238.21 297.582 234.38 295.752 230.5 294.062C229.43 291.012 230.43 289.012 233.5 288.062C237.09 289.472 240.59 291.142 244 293.062C246.8 290.782 249.14 288.112 251 285.062Z" fill="#0D0D0C"/>
<path fill-rule="evenodd" clip-rule="evenodd" d="M256.001 319.062C260.101 318.332 263.601 319.332 266.501 322.062C266.021 326.642 265.351 331.302 264.501 336.062C263.331 337.232 262.171 338.392 261.001 339.562C249.511 342.662 237.841 343.662 226.001 342.562C225.081 342.192 224.251 341.692 223.501 341.062C221.161 336.002 220.491 330.672 221.501 325.062C222.001 324.562 222.501 324.062 223.001 323.562C234.211 322.522 245.211 321.022 256.001 319.062Z" fill="#B2B2B3"/>
</svg>
