<svg width="500" height="500" viewBox="0 0 500 500" fill="none" xmlns="http://www.w3.org/2000/svg">
<path fill-rule="evenodd" clip-rule="evenodd" d="M351.001 320.062C342.971 318.782 340.301 322.112 343.001 330.062C337.391 333.872 331.721 337.712 326.001 341.562C319.431 344.362 312.761 346.862 306.001 349.062C302.091 347.102 299.421 348.102 298.001 352.062C281.761 357.432 265.101 359.432 248.001 358.062C247.051 356.642 246.721 354.972 247.001 353.062C243.931 353.112 240.931 353.612 238.001 354.562C237.251 355.232 236.911 356.062 237.001 357.062C225.651 357.512 214.991 355.172 205.001 350.062C203.501 348.072 202.671 345.742 202.501 343.062C201.751 337.032 201.921 331.032 203.001 325.062C201.761 320.972 199.091 319.132 195.001 319.562C194.371 320.312 193.871 321.142 193.501 322.062C193.001 329.722 192.831 337.392 193.001 345.062C173.011 335.582 156.841 321.582 144.501 303.062C139.761 293.242 134.761 283.572 129.501 274.062C125.501 262.732 121.501 251.392 117.501 240.062C116.831 229.392 116.831 218.732 117.501 208.062C122.231 192.672 129.571 178.672 139.501 166.062C151.871 152.682 165.711 141.182 181.001 131.562C191.451 127.172 201.791 122.502 212.001 117.562C236.301 110.242 261.131 106.072 286.501 105.062C317.601 105.742 343.601 117.412 364.501 140.062C372.721 153.842 378.721 168.502 382.501 184.062C387.691 229.032 379.361 271.362 357.501 311.062C355.321 314.092 353.161 317.092 351.001 320.062Z" fill="#9A4301"/>
<path fill-rule="evenodd" clip-rule="evenodd" d="M274 113.061C295.92 112.621 316.92 116.791 337 125.561C347.58 132.541 354.91 142.041 359 154.061C357.64 158.681 356.48 163.341 355.5 168.061C344.79 178.641 333.29 188.141 321 196.561C313.99 201.071 306.65 205.071 299 208.561C274.68 217.811 250.02 226.141 225 233.561C201.09 239.161 177.09 239.491 153 234.561C146.09 230.851 139.25 227.021 132.5 223.061C129.12 218.651 128.12 213.651 129.5 208.061C133.03 195.001 138.7 183.001 146.5 172.061C171.5 144.301 202.33 126.471 239 118.561C250.94 117.571 262.61 115.741 274 113.061Z" fill="#B1E45D"/>
<path fill-rule="evenodd" clip-rule="evenodd" d="M246 131.062C247.23 132.542 248.23 134.202 249 136.062C247.64 139.612 245.64 142.782 243 145.562C239.01 146.742 237.34 145.242 238 141.062C237.85 136.292 239.69 132.622 243.5 130.062C244.4 130.302 245.24 130.642 246 131.062Z" fill="#262726"/>
<path fill-rule="evenodd" clip-rule="evenodd" d="M215 146.062C215.42 146.822 215.76 147.662 216 148.562C215.18 150.362 214.51 152.192 214 154.062C211.26 155.592 209.26 154.922 208 152.062C207.67 151.392 207.33 150.732 207 150.062C207 147.062 207 144.062 207 141.062C210.68 141.232 213.35 142.892 215 146.062Z" fill="#232224"/>
<path fill-rule="evenodd" clip-rule="evenodd" d="M297.001 161.061C301.271 160.761 305.431 161.101 309.501 162.061C310.171 163.061 310.171 164.061 309.501 165.061C307.021 166.871 304.521 168.541 302.001 170.061C297.421 170.481 293.251 169.481 289.501 167.061C288.831 166.391 288.831 165.731 289.501 165.061C290.991 164.401 292.151 163.401 293.001 162.061C294.191 161.131 295.521 160.801 297.001 161.061Z" fill="#2A2B27"/>
<path fill-rule="evenodd" clip-rule="evenodd" d="M284.999 141.062C284.099 140.352 283.759 139.352 283.999 138.062C276.669 137.872 272.009 141.372 269.999 148.562C269.759 150.822 270.759 151.992 272.999 152.062C277.089 151.292 280.429 149.292 282.999 146.062C286.549 145.712 289.889 146.382 292.999 148.062C308.539 142.722 324.379 139.722 340.499 139.062C341.119 141.022 340.619 142.692 338.999 144.062C324.469 148.672 310.469 154.332 296.999 161.062C295.519 160.802 294.189 161.132 292.999 162.062C292.149 163.402 290.989 164.402 289.499 165.062C288.829 165.732 288.829 166.392 289.499 167.062C293.249 169.482 297.419 170.482 301.999 170.062C305.929 173.862 310.599 176.362 315.999 177.562C318.419 179.562 319.259 182.062 318.499 185.062C314.899 184.832 311.229 185.162 307.499 186.062C303.569 185.512 299.729 184.512 295.999 183.062C295.079 183.102 294.419 183.442 293.999 184.062C288.709 179.342 282.709 178.002 275.999 180.062C275.159 181.202 274.489 182.532 273.999 184.062C276.519 191.792 281.349 197.462 288.499 201.062C289.239 203.002 289.079 204.832 287.999 206.562C277.189 204.312 267.529 199.482 258.999 192.062C256.379 193.642 255.039 195.972 254.999 199.062C254.269 200.272 253.929 201.602 253.999 203.062C253.179 206.202 252.679 209.532 252.499 213.062C251.429 214.842 249.929 215.342 247.999 214.562C244.099 210.752 240.429 206.752 236.999 202.562C233.569 201.862 230.239 202.192 226.999 203.562C223.789 207.812 220.959 212.312 218.499 217.062C216.749 219.812 215.749 222.812 215.499 226.062C213.769 228.162 211.769 228.492 209.499 227.062C208.969 221.052 208.299 215.052 207.499 209.062C207.079 207.802 206.249 207.142 204.999 207.062C203.759 206.152 202.429 205.982 200.999 206.562C198.679 208.732 197.009 211.232 195.999 214.062C192.429 217.402 190.259 222.072 189.499 228.062C187.319 229.982 184.819 230.142 181.999 228.562C181.439 227.842 181.109 227.002 180.999 226.062C182.149 219.182 183.489 212.342 184.999 205.562C182.279 203.862 179.939 201.692 177.999 199.062C177.389 199.182 177.059 199.522 176.999 200.062C171.299 198.052 166.469 199.382 162.499 204.062C161.489 205.582 160.989 207.252 160.999 209.062C160.279 208.642 159.779 207.982 159.499 207.062C154.779 208.502 149.949 209.002 144.999 208.562C143.979 207.512 143.819 206.342 144.499 205.062C153.749 199.692 162.919 194.192 171.999 188.562C173.099 185.952 174.429 183.452 175.999 181.062C171.589 179.152 166.929 177.992 161.999 177.562C158.169 173.332 158.499 169.332 162.999 165.562C167.989 165.062 172.989 164.892 177.999 165.062C177.029 166.632 176.859 168.292 177.499 170.062C182.729 175.202 187.899 175.372 192.999 170.562C192.739 169.302 192.069 168.302 190.999 167.562C188.889 166.722 186.889 165.882 184.999 165.062C188.189 164.392 191.519 163.732 194.999 163.062C190.559 160.092 186.389 156.752 182.499 153.062C180.209 150.112 180.709 147.772 183.999 146.062C186.259 144.912 188.599 144.752 190.999 145.562C196.389 147.202 201.729 148.702 206.999 150.062C207.329 150.732 207.669 151.392 207.999 152.062C208.279 154.852 207.609 157.352 205.999 159.562C208.309 162.352 209.979 165.512 210.999 169.062C209.779 170.172 208.439 170.342 206.999 169.562C204.879 167.002 202.379 166.172 199.499 167.062C198.459 170.202 199.289 172.702 201.999 174.562C199.699 174.582 197.369 174.412 194.999 174.062C195.219 176.992 194.549 179.662 192.999 182.062C193.029 183.592 193.699 184.762 194.999 185.562C190.419 184.952 188.579 186.782 189.499 191.062C193.619 193.722 197.619 193.382 201.499 190.062C201.039 192.092 200.199 194.092 198.999 196.062C199.329 198.392 200.669 199.732 202.999 200.062C207.919 197.802 211.919 194.472 214.999 190.062C215.329 190.392 215.669 190.732 215.999 191.062C214.209 195.602 213.379 200.272 213.499 205.062C214.059 205.582 214.729 205.922 215.499 206.062C217.439 204.872 218.939 203.212 219.999 201.062C221.349 202.742 223.019 203.242 224.999 202.562C227.999 198.892 230.999 195.232 233.999 191.562C239.639 190.552 243.979 192.552 246.999 197.562C247.999 198.232 248.999 198.232 249.999 197.562C250.719 192.952 251.719 188.452 252.999 184.062C258.229 185.002 263.399 185.002 268.499 184.062C271.109 179.902 269.949 177.742 264.999 177.562C264.209 176.472 263.539 175.312 262.999 174.062C266.689 173.312 270.359 172.472 273.999 171.562C274.809 169.452 275.809 167.452 276.999 165.562C276.859 164.792 276.519 164.122 275.999 163.562C271.609 163.652 267.279 163.482 262.999 163.062C264.789 161.102 266.959 159.772 269.499 159.062C270.739 155.652 269.569 153.992 265.999 154.062C262.789 155.502 259.459 156.002 255.999 155.562C255.229 153.152 254.729 150.652 254.499 148.062C253.809 147.202 252.979 146.542 251.999 146.062C245.489 152.232 237.829 155.892 228.999 157.062C228.819 154.342 228.319 151.682 227.499 149.062C226.139 148.182 224.639 147.852 222.999 148.062C224.009 154.112 222.339 159.112 217.999 163.062C214.289 162.192 211.629 160.022 209.999 156.562C211.939 156.442 213.269 155.612 213.999 154.062C214.509 152.192 215.179 150.362 215.999 148.562C215.759 147.662 215.419 146.822 214.999 146.062C216.639 141.682 217.469 137.022 217.499 132.062C218.219 131.502 219.059 131.172 219.999 131.062C222.279 132.162 224.439 133.492 226.499 135.062C227.889 142.352 231.719 144.352 237.999 141.062C237.339 145.242 239.009 146.742 242.999 145.562C245.639 142.782 247.639 139.612 248.999 136.062C248.229 134.202 247.229 132.542 245.999 131.062C247.799 129.092 249.799 127.262 251.999 125.562C254.739 124.482 256.399 125.312 256.999 128.062C256.409 131.762 255.749 135.422 254.999 139.062C257.999 139.812 260.999 140.472 263.999 141.062C273.569 132.952 284.239 126.952 295.999 123.062C296.289 124.852 295.949 126.512 294.999 128.062C290.109 131.272 286.779 135.612 284.999 141.062Z" fill="#86D857"/>
<path fill-rule="evenodd" clip-rule="evenodd" d="M178 165.062C180.33 165.062 182.67 165.062 185 165.062C186.89 165.882 188.89 166.722 191 167.562C192.07 168.302 192.74 169.302 193 170.562C187.9 175.372 182.73 175.202 177.5 170.062C176.86 168.292 177.03 166.632 178 165.062Z" fill="#232224"/>
<path fill-rule="evenodd" clip-rule="evenodd" d="M208 152.062C209.26 154.922 211.26 155.592 214 154.062C213.27 155.612 211.94 156.442 210 156.562C211.63 160.022 214.29 162.192 218 163.062C222.34 159.112 224.01 154.112 223 148.062C224.64 147.852 226.14 148.182 227.5 149.062C228.32 151.682 228.82 154.342 229 157.062C237.83 155.892 245.49 152.232 252 146.062C252.98 146.542 253.81 147.202 254.5 148.062C254.73 150.652 255.23 153.152 256 155.562C259.46 156.002 262.79 155.502 266 154.062C269.57 153.992 270.74 155.652 269.5 159.062C266.96 159.772 264.79 161.102 263 163.062C267.28 163.482 271.61 163.652 276 163.562C276.52 164.122 276.86 164.792 277 165.562C275.81 167.452 274.81 169.452 274 171.562C270.36 172.472 266.69 173.312 263 174.062C263.54 175.312 264.21 176.472 265 177.562C269.95 177.742 271.11 179.902 268.5 184.062C263.4 185.002 258.23 185.002 253 184.062C251.72 188.452 250.72 192.952 250 197.562C249 198.232 248 198.232 247 197.562C243.98 192.552 239.64 190.552 234 191.562C231 195.232 228 198.892 225 202.562C223.02 203.242 221.35 202.742 220 201.062C218.94 203.212 217.44 204.872 215.5 206.062C214.73 205.922 214.06 205.582 213.5 205.062C213.38 200.272 214.21 195.602 216 191.062C215.67 190.732 215.33 190.392 215 190.062C211.92 194.472 207.92 197.802 203 200.062C200.67 199.732 199.33 198.392 199 196.062C200.2 194.092 201.04 192.092 201.5 190.062C197.62 193.382 193.62 193.722 189.5 191.062C188.58 186.782 190.42 184.952 195 185.562C193.7 184.762 193.03 183.592 193 182.062C194.55 179.662 195.22 176.992 195 174.062C197.37 174.412 199.7 174.582 202 174.562C199.29 172.702 198.46 170.202 199.5 167.062C202.38 166.172 204.88 167.002 207 169.562C208.44 170.342 209.78 170.172 211 169.062C209.98 165.512 208.31 162.352 206 159.562C207.61 157.352 208.28 154.852 208 152.062Z" fill="#6CC54F"/>
<path fill-rule="evenodd" clip-rule="evenodd" d="M242 158.062C246.22 159.862 250.55 160.702 255 160.562C255.32 162.602 255.48 164.772 255.5 167.062C257.01 167.652 258.51 168.322 260 169.062C256.14 171.082 254.14 174.252 254 178.562C249.16 178.072 245.82 180.072 244 184.562C239.73 185.592 235.39 186.262 231 186.562C229.71 187.972 228.55 189.472 227.5 191.062C224.64 188.672 221.47 186.832 218 185.562C214.48 185.042 211.15 185.372 208 186.562C207.33 184.562 206.67 182.562 206 180.562C208.26 178.872 210.76 177.702 213.5 177.062C215.44 174.752 216.27 172.092 216 169.062C218.03 169.222 220.03 169.062 222 168.562C228.48 164.642 235.14 161.142 242 158.062Z" fill="#F0F799"/>
<path fill-rule="evenodd" clip-rule="evenodd" d="M285 141.062C285.11 143.072 284.44 144.742 283 146.062C280.43 149.292 277.09 151.292 273 152.062C270.76 151.992 269.76 150.822 270 148.562C272.01 141.372 276.67 137.872 284 138.062C283.76 139.352 284.1 140.352 285 141.062Z" fill="#232124"/>
<path fill-rule="evenodd" clip-rule="evenodd" d="M294 184.062C295.23 185.572 295.23 187.072 294 188.562C292 189.232 290 189.232 288 188.562C284.57 186.132 280.9 184.132 277 182.562C276.25 181.892 275.91 181.062 276 180.062C282.71 178.002 288.71 179.342 294 184.062Z" fill="#242425"/>
<path fill-rule="evenodd" clip-rule="evenodd" d="M177 200.062C177.15 201.112 176.98 202.112 176.5 203.062C172.63 206.262 168.3 208.592 163.5 210.062C162.43 210.032 161.6 209.702 161 209.062C160.99 207.252 161.49 205.582 162.5 204.062C166.47 199.382 171.3 198.052 177 200.062Z" fill="#232224"/>
<path fill-rule="evenodd" clip-rule="evenodd" d="M255 199.062C259.08 198.962 261.58 200.962 262.5 205.062C263.17 207.392 263.17 209.732 262.5 212.062C261.01 213.312 259.51 213.312 258 212.062C256.93 208.922 255.59 205.922 254 203.062C253.93 201.602 254.27 200.272 255 199.062Z" fill="#252425"/>
<path fill-rule="evenodd" clip-rule="evenodd" d="M205 207.062C205.22 212.562 203.56 217.392 200 221.562C198.71 222.052 197.37 222.222 196 222.062C196 219.392 196 216.732 196 214.062C197.01 211.232 198.68 208.732 201 206.562C202.43 205.982 203.76 206.152 205 207.062Z" fill="#232324"/>
<path fill-rule="evenodd" clip-rule="evenodd" d="M229 207.062C230.67 207.062 232.33 207.062 234 207.062C234.17 210.742 234 214.412 233.5 218.062C233.24 220.212 232.24 221.882 230.5 223.062C229.73 222.922 229.06 222.582 228.5 222.062C227.95 218.902 227.45 215.742 227 212.562C226.89 210.382 227.56 208.552 229 207.062Z" fill="#222124"/>
<path fill-rule="evenodd" clip-rule="evenodd" d="M277.001 252.062C286.801 251.532 296.471 252.372 306.001 254.562C317.931 257.642 328.931 262.642 339.001 269.562C341.491 272.542 343.161 275.872 344.001 279.562C344.671 296.842 337.671 309.842 323.001 318.562C300.981 329.802 277.641 333.802 253.001 330.562C245.271 329.532 237.601 328.192 230.001 326.562C221.121 320.682 213.951 313.182 208.501 304.062C207.831 299.732 207.831 295.392 208.501 291.062C213.871 279.692 222.031 270.862 233.001 264.562C247.381 258.932 262.041 254.762 277.001 252.062Z" fill="#F8F8F7"/>
<path fill-rule="evenodd" clip-rule="evenodd" d="M297 266.062C306.47 266.122 315.8 267.292 325 269.562C329.87 272.592 334.87 275.432 340 278.062C341.59 280.702 340.93 282.372 338 283.062C334.04 282.782 330.54 281.442 327.5 279.062C327.13 286.832 325.13 294.172 321.5 301.062C313.5 308.652 304.34 310.152 294 305.562C284.74 295.372 283.57 284.202 290.5 272.062C292.84 270.162 295 268.162 297 266.062Z" fill="#060606"/>
<path fill-rule="evenodd" clip-rule="evenodd" d="M237 269.061C244.32 268.421 251.32 269.591 258 272.561C260.76 277.351 263.59 282.181 266.5 287.061C266.05 297.121 261.55 304.951 253 310.561C239 314.891 229.83 310.061 225.5 296.061C225.15 292.461 224.98 289.131 225 286.061C222.48 288.421 219.81 290.581 217 292.561C212.42 293.491 210.92 291.661 212.5 287.061C218.61 278.261 226.77 272.261 237 269.061Z" fill="#070707"/>
<path fill-rule="evenodd" clip-rule="evenodd" d="M298 271.062C301.46 270.712 303.96 272.042 305.5 275.062C307.74 284.372 304.24 288.212 295 286.562C294.2 284.792 293.03 283.292 291.5 282.062C290.87 279.922 291.2 277.922 292.5 276.062C294.69 274.732 296.52 273.062 298 271.062Z" fill="#F0F0F0"/>
<path fill-rule="evenodd" clip-rule="evenodd" d="M249 276.062C258.27 277.132 260.43 281.802 255.5 290.062C249.29 294.882 245.46 293.382 244 285.562C244.24 281.572 245.91 278.402 249 276.062Z" fill="#F4F4F4"/>
<path fill-rule="evenodd" clip-rule="evenodd" d="M289 311.062C291.74 310.642 293.08 311.802 293 314.562C291.87 317.822 290.2 320.822 288 323.562C285.8 324.932 283.47 325.272 281 324.562C277.88 322.922 274.71 321.422 271.5 320.062C270.73 317.602 271.56 315.942 274 315.062C276.11 315.612 278.11 316.452 280 317.562C281.67 318.232 283.33 318.232 285 317.562C286.22 315.282 287.55 313.122 289 311.062Z" fill="#131313"/>
<path fill-rule="evenodd" clip-rule="evenodd" d="M205 350.062C203.86 353.202 203.69 356.532 204.5 360.062C208.4 363.192 210.07 367.192 209.5 372.062C208.45 373.082 207.28 373.242 206 372.562C203.31 368.462 200.31 368.132 197 371.562C193.91 372.152 192.25 370.812 192 367.562C192.92 364.882 194.26 362.382 196 360.062C194.91 354.952 193.91 349.952 193 345.062C192.83 337.392 193 329.722 193.5 322.062C193.87 321.142 194.37 320.312 195 319.562C199.09 319.132 201.76 320.972 203 325.062C201.92 331.032 201.75 337.032 202.5 343.062C202.67 345.742 203.5 348.072 205 350.062Z" fill="#252525"/>
<path fill-rule="evenodd" clip-rule="evenodd" d="M350.999 320.061C353.109 333.971 354.449 347.971 354.999 362.061C359.109 365.431 358.949 368.431 354.499 371.061C352.169 369.391 349.829 367.731 347.499 366.061C345.239 366.941 343.069 367.941 340.999 369.061C340.059 368.951 339.219 368.621 338.499 368.061C337.989 364.091 339.489 361.091 342.999 359.061C344.319 349.231 344.319 339.571 342.999 330.061C340.299 322.111 342.969 318.781 350.999 320.061Z" fill="#252525"/>
<path fill-rule="evenodd" clip-rule="evenodd" d="M306 349.062C306.88 360.032 307.21 371.032 307 382.062C310.91 381.822 314.58 382.662 318 384.562C320.69 387.192 320.36 389.532 317 391.562C311.1 394.812 305.26 394.652 299.5 391.062C298.18 378.312 297.68 365.312 298 352.062C299.42 348.102 302.09 347.102 306 349.062Z" fill="#262626"/>
<path fill-rule="evenodd" clip-rule="evenodd" d="M247.999 358.062C247.999 367.392 247.999 376.732 247.999 386.062C251.019 385.902 254.019 386.062 256.999 386.562C260.569 388.362 261.569 391.032 259.999 394.562C254.329 395.232 248.669 395.232 242.999 394.562C241.609 393.542 240.109 392.712 238.499 392.062C237.109 380.452 236.609 368.782 236.999 357.062C236.909 356.062 237.249 355.232 237.999 354.562C240.929 353.612 243.929 353.112 246.999 353.062C246.719 354.972 247.049 356.642 247.999 358.062Z" fill="#252525"/>
</svg>
