<svg width="500" height="500" viewBox="0 0 500 500" fill="none" xmlns="http://www.w3.org/2000/svg">
<path fill-rule="evenodd" clip-rule="evenodd" d="M335 98.0619C333.49 103.072 330.15 106.242 325 107.562C302.8 111.082 280.46 113.242 258 114.062C235.59 113.032 213.26 111.192 191 108.562C182.97 107.372 178.63 102.872 178 95.0619C182.5 90.1519 188.16 87.3119 195 86.5619C224.05 80.0619 253.38 78.4019 283 81.5619C292.95 83.2919 302.95 84.6219 313 85.5619C320.11 87.1119 326.77 89.7819 333 93.5619C334.54 94.6719 335.2 96.1719 335 98.0619Z" fill="#B5B5B5"/>
<path fill-rule="evenodd" clip-rule="evenodd" d="M218 90.062C229.34 89.892 240.67 90.062 252 90.562C248.8 90.962 245.8 91.792 243 93.062C242.84 94.762 243.01 96.432 243.5 98.062C245.75 99.942 248.25 101.442 251 102.562C264.76 103.612 278.43 102.952 292 100.562C294.25 98.562 295.25 96.062 295 93.062C306 95.162 317 97.332 328 99.562C326.78 101.302 325.12 102.302 323 102.562C295.18 107.552 267.18 109.212 239 107.562C241.97 106.342 242.64 104.342 241 101.562C235.52 100.902 230.19 99.732 225 98.062C225.36 95.652 224.36 94.152 222 93.562C212.5 92.512 203.66 94.352 195.5 99.062C195.35 101.492 196.02 103.492 197.5 105.062C192.61 104.212 188.11 102.372 184 99.562C188.17 97.382 192.5 95.382 197 93.562C204.22 92.892 211.22 91.722 218 90.062Z" fill="#CBCBCB"/>
<path fill-rule="evenodd" clip-rule="evenodd" d="M178 95.062C178.63 102.872 182.97 107.372 191 108.562C213.26 111.192 235.59 113.032 258 114.062C280.46 113.242 302.8 111.082 325 107.562C330.15 106.242 333.49 103.072 335 98.062C336.14 101.202 336.31 104.532 335.5 108.062C334.8 109.252 333.97 110.252 333 111.062C331.75 112.702 330.08 113.862 328 114.562C306.74 120.422 285.07 122.592 263 121.062C236.65 122.022 210.65 119.522 185 113.562C182.21 112.272 179.54 110.772 177 109.062C172.81 104.062 173.14 99.392 178 95.062Z" fill="#CCCCCC"/>
<path fill-rule="evenodd" clip-rule="evenodd" d="M177 109.062C179.54 110.772 182.21 112.272 185 113.562C210.65 119.522 236.65 122.022 263 121.062C285.07 122.592 306.74 120.422 328 114.562C330.08 113.862 331.75 112.702 333 111.062C344 117.232 352.5 125.902 358.5 137.062C357.87 191.722 357.04 246.392 356 301.062C354.63 298.692 352.63 297.022 350 296.062C347.89 296.342 346.56 297.502 346 299.562C348.88 304.492 351.88 309.322 355 314.062C355.3 321.152 354.96 328.152 354 335.062C348.63 339.102 345.29 344.442 344 351.062C344.12 352.482 344.46 353.822 345 355.062C341.2 357.632 337.2 359.632 333 361.062C321.35 363.722 309.68 366.562 298 369.562C271.33 372.882 244.67 372.882 218 369.562C203.55 367.202 189.21 364.362 175 361.062C165.93 358.992 159.59 353.652 156 345.062C155.88 342.832 156.21 340.662 157 338.562C155.71 336.532 154.71 334.362 154 332.062C154.68 322.742 155.02 313.412 155 304.062C157.1 302.212 158.43 299.872 159 297.062C157.92 294.982 156.25 293.652 154 293.062C153.48 266.062 152.82 239.062 152 212.062C151.96 208.302 152.46 204.642 153.5 201.062C153.83 179.732 154.17 158.392 154.5 137.062C155.62 133.492 157.29 130.162 159.5 127.062C163.31 123.432 166.64 119.432 169.5 115.062C172.23 113.142 174.73 111.142 177 109.062Z" fill="#C92139"/>
<path fill-rule="evenodd" clip-rule="evenodd" d="M232 156.062C241.3 155.242 250.3 156.412 259 159.562C261.77 161.322 263.27 163.822 263.5 167.062C266.47 177.442 263.64 185.612 255 191.562C248.67 193.892 242.33 196.232 236 198.562C231.35 199.062 226.68 199.232 222 199.062C221.77 196.842 222.61 195.182 224.5 194.062C225.07 184.702 224.73 175.372 223.5 166.062C221.96 164.182 220.12 162.682 218 161.562C222.48 159.012 227.15 157.182 232 156.062Z" fill="#FBF5F6"/>
<path fill-rule="evenodd" clip-rule="evenodd" d="M276 158.062C278.43 158.142 280.43 159.142 282 161.062C286.2 159.332 290.53 158.832 295 159.562C297.85 162.122 298.68 165.292 297.5 169.062C295.69 170.962 293.53 171.462 291 170.562C289.6 165.122 287.1 164.622 283.5 169.062C283.33 171.392 283.17 173.732 283 176.062C282.74 180.472 283.58 184.472 285.5 188.062C280.97 189.602 276.3 190.602 271.5 191.062C269.57 188.882 270.07 187.212 273 186.062C272.22 181.112 271.72 176.112 271.5 171.062C271.31 168.982 270.81 166.982 270 165.062C268.67 164.392 267.67 163.392 267 162.062C269.71 159.992 272.71 158.662 276 158.062Z" fill="#FBF7F7"/>
<path fill-rule="evenodd" clip-rule="evenodd" d="M240.999 162.062C245.079 161.902 249.079 162.402 252.999 163.562C254.619 165.932 255.619 168.602 255.999 171.562C255.079 175.932 253.419 179.932 250.999 183.562C246.939 186.142 242.609 187.972 237.999 189.062C237.829 180.722 237.999 172.392 238.499 164.062C239.489 163.492 240.329 162.832 240.999 162.062Z" fill="#C81F37"/>
<path fill-rule="evenodd" clip-rule="evenodd" d="M184 169.062C190.67 168.892 197.34 169.062 204 169.562C215.42 174.482 219.59 182.982 216.5 195.062C209.29 205.072 199.79 211.742 188 215.062C189.16 223.702 189.66 232.372 189.5 241.062C185.42 243.692 181.25 246.192 177 248.562C175.72 249.242 174.55 249.082 173.5 248.062C174.71 243.042 175.55 237.872 176 232.562C175.1 218.722 174.6 204.892 174.5 191.062C177.33 187.902 180.83 186.732 185 187.562C185.63 188.312 186.13 189.142 186.5 190.062C186.67 196.422 187.17 202.752 188 209.062C198.25 204.202 203.09 196.202 202.5 185.062C201.81 182.362 200.31 180.202 198 178.562C177.78 176.742 164.94 185.572 159.5 205.062C158.55 212.672 159.55 220.002 162.5 227.062C164.53 230.272 166.37 233.602 168 237.062C165.59 238.282 163.76 237.622 162.5 235.062C150.7 214.402 152.53 195.242 168 177.562C173.27 174.432 178.6 171.592 184 169.062Z" fill="#FBF6F6"/>
<path fill-rule="evenodd" clip-rule="evenodd" d="M335 176.062C342.57 175.822 345.4 179.492 343.5 187.062C342.03 188.882 340.2 189.382 338 188.562C336.3 180.142 333.8 179.972 330.5 188.062C330.33 190.232 330.17 192.392 330 194.562C330.18 198.162 331.01 201.332 332.5 204.062C328.44 207.012 323.94 208.682 319 209.062C318.72 207.212 319.39 205.882 321 205.062C322 198.762 322.33 192.432 322 186.062C318.34 186.212 317.34 184.712 319 181.562C322.16 179.432 325.16 179.602 328 182.062C330.38 180.012 332.71 178.012 335 176.062Z" fill="#FBF3F4"/>
<path fill-rule="evenodd" clip-rule="evenodd" d="M303 185.062C307.01 184.892 311.01 185.062 315 185.562C318.02 190.442 317.35 194.772 313 198.562C309.6 200.482 305.93 201.482 302 201.562C300.53 202.272 299.86 203.442 300 205.062C305.01 204.892 310.01 205.062 315 205.562C316.33 207.232 316.33 208.892 315 210.562C298.18 217.752 291.35 212.252 294.5 194.062C296.21 189.852 299.05 186.852 303 185.062Z" fill="#FAF0F1"/>
<path fill-rule="evenodd" clip-rule="evenodd" d="M306 189.062C308 189.062 310 189.062 312 189.062C312.17 190.382 311.84 191.552 311 192.562C308.19 194.302 305.19 195.472 302 196.062C302.46 193.262 303.79 190.922 306 189.062Z" fill="#C71E32"/>
<path fill-rule="evenodd" clip-rule="evenodd" d="M270 194.062C278.31 192.022 284.47 194.692 288.5 202.062C290.56 210.102 287.73 215.602 280 218.562C278.06 219.372 276.06 219.872 274 220.062C273.68 225.822 274.52 231.162 276.5 236.062C271.63 238.372 266.63 239.372 261.5 239.062C262.06 226.762 262.06 214.432 261.5 202.062C259.62 200.912 258.78 199.242 259 197.062C262.74 195.952 266.4 194.952 270 194.062Z" fill="#FBF2F3"/>
<path fill-rule="evenodd" clip-rule="evenodd" d="M272 200.062C275.28 199.782 278.44 200.112 281.5 201.062C283.23 207.692 280.89 212.352 274.5 215.062C274.34 210.262 273.18 205.762 271 201.562C271.56 201.182 271.89 200.682 272 200.062Z" fill="#C82035"/>
<path fill-rule="evenodd" clip-rule="evenodd" d="M237 206.062C243.57 205.352 248.57 207.682 252 213.062C250.91 215.652 249.24 217.822 247 219.562C243.32 221.402 239.66 223.232 236 225.062C237.92 226.202 239.92 226.372 242 225.562C246.05 224.122 249.88 222.292 253.5 220.062C255 220.232 255.83 221.062 256 222.562C251.6 227.962 246.26 232.292 240 235.562C234.82 237.092 230.82 235.592 228 231.062C221.53 238.462 213.53 240.962 204 238.562C200.77 237.002 198.6 234.502 197.5 231.062C194.45 221.912 197.28 215.742 206 212.562C210.33 211.892 214.67 211.892 219 212.562C223.65 217.982 222.98 222.642 217 226.562C213.88 227.712 210.88 229.042 208 230.562C214.28 229.742 220.62 228.902 227 228.062C226.69 223.292 227.19 218.632 228.5 214.062C231.18 211.222 234.01 208.552 237 206.062Z" fill="#FBF4F5"/>
<path fill-rule="evenodd" clip-rule="evenodd" d="M238 212.062C244.78 210.952 246.11 212.792 242 217.562C239.39 219.042 236.72 220.212 234 221.062C233.84 219.692 234.01 218.352 234.5 217.062C236.17 215.712 237.34 214.052 238 212.062Z" fill="#C92538"/>
<path fill-rule="evenodd" clip-rule="evenodd" d="M208.001 216.062C212.571 215.642 214.071 217.642 212.501 222.062C210.211 224.432 207.371 225.762 204.001 226.062C202.891 224.842 202.721 223.502 203.501 222.062C205.271 220.142 206.771 218.142 208.001 216.062Z" fill="#C92939"/>
<path fill-rule="evenodd" clip-rule="evenodd" d="M325 150.062C325.06 149.522 325.39 149.182 326 149.062C337.96 152.522 345.79 160.182 349.5 172.062C352.96 184.222 352.63 196.222 348.5 208.062C346.31 211.112 344.64 214.452 343.5 218.062C333.43 229.462 321.6 238.632 308 245.562C282.03 255.122 255.2 258.952 227.5 257.062C218.67 256.892 209.83 256.732 201 256.562C198.88 256.462 197.21 255.632 196 254.062C220 253.162 244 252.332 268 251.562C293.17 249.412 314.67 239.572 332.5 222.062C336.9 215.992 340.9 209.662 344.5 203.062C350.33 184.492 346.49 168.322 333 154.562C330.14 153.302 327.48 151.802 325 150.062Z" fill="#FAEFF1"/>
<path fill-rule="evenodd" clip-rule="evenodd" d="M319 297.062C317.01 296.402 315.35 295.232 314 293.562C307.13 291.792 300.46 289.462 294 286.562C280.92 284.012 272.75 289.182 269.5 302.062C265.57 322.122 273.73 331.622 294 330.562C298.01 329.222 301.51 327.052 304.5 324.062C308.87 317.322 311.54 309.982 312.5 302.062C315.31 305.142 318.81 306.812 323 307.062C323.16 309.422 323 311.752 322.5 314.062C320.15 319.422 317.82 324.762 315.5 330.062C310.36 337.192 303.53 342.022 295 344.562C280.52 346.282 266.02 347.782 251.5 349.062C240.29 348.322 229.12 347.162 218 345.562C211.05 342.752 204.39 339.422 198 335.562C196.78 332.622 194.94 330.122 192.5 328.062C187.16 318.902 186.66 309.572 191 300.062C191 302.062 191 304.062 191 306.062C193.03 306.222 195.03 306.062 197 305.562C199.48 303.922 201.81 302.082 204 300.062C202.53 312.112 206.86 321.612 217 328.562C235.62 330.592 245.78 322.432 247.5 304.062C245 300.072 243.34 295.732 242.5 291.062C236.85 286.142 230.18 283.812 222.5 284.062C211.51 284.662 202.01 288.662 194 296.062C195.5 292.212 197.84 288.882 201 286.062C215.49 277.702 231.16 273.702 248 274.062C265.44 274.832 282.78 276.662 300 279.562C308.46 283.192 314.79 289.022 319 297.062Z" fill="#F9F7F7"/>
<path fill-rule="evenodd" clip-rule="evenodd" d="M191 300.062C191.53 298.332 192.53 297.002 194 296.062C202.01 288.662 211.51 284.662 222.5 284.062C230.18 283.812 236.85 286.142 242.5 291.062C243.34 295.732 245 300.072 247.5 304.062C245.78 322.432 235.62 330.592 217 328.562C206.86 321.612 202.53 312.112 204 300.062C201.81 302.082 199.48 303.922 197 305.562C195.03 306.062 193.03 306.222 191 306.062C191 304.062 191 302.062 191 300.062Z" fill="#060606"/>
<path fill-rule="evenodd" clip-rule="evenodd" d="M319 297.062C321.31 299.202 323.81 301.202 326.5 303.062C327.35 306.052 326.18 307.382 323 307.062C318.81 306.812 315.31 305.142 312.5 302.062C311.54 309.982 308.87 317.322 304.5 324.062C301.51 327.052 298.01 329.222 294 330.562C273.73 331.622 265.57 322.122 269.5 302.062C272.75 289.182 280.92 284.012 294 286.562C300.46 289.462 307.13 291.792 314 293.562C315.35 295.232 317.01 296.402 319 297.062Z" fill="#060606"/>
<path fill-rule="evenodd" clip-rule="evenodd" d="M230 292.062C238.96 292.322 241.46 296.662 237.5 305.062C230.99 312.342 226.49 311.172 224 301.562C225.11 297.842 227.11 294.672 230 292.062Z" fill="#F5F5F5"/>
<path fill-rule="evenodd" clip-rule="evenodd" d="M283 291.062C287.42 290.982 289.75 293.142 290 297.562C288.67 300.192 287.84 303.022 287.5 306.062C280.48 310.082 276.31 308.082 275 300.062C275.17 299.062 275.33 298.062 275.5 297.062C277.98 294.922 280.48 292.922 283 291.062Z" fill="#F5F5F5"/>
<path fill-rule="evenodd" clip-rule="evenodd" d="M154 293.062C156.25 293.652 157.92 294.982 159 297.062C158.43 299.872 157.1 302.212 155 304.062C150.1 310.972 144.77 317.642 139 324.062C144.03 326.782 149.03 329.452 154 332.062C154.71 334.362 155.71 336.532 157 338.562C156.21 340.662 155.88 342.832 156 345.062C152.42 348.732 148.09 349.892 143 348.562C141.92 346.832 141.76 345.002 142.5 343.062C144.03 341.832 145.2 340.332 146 338.562C141.11 336.672 136.44 334.332 132 331.562C128.38 327.492 128.21 323.322 131.5 319.062C139.61 310.792 147.11 302.122 154 293.062Z" fill="#232323"/>
<path fill-rule="evenodd" clip-rule="evenodd" d="M356 301.062C359.22 307.122 363.05 312.792 367.5 318.062C368.94 320.612 370.11 323.282 371 326.062C366.98 335.592 360.31 342.752 351 347.562C353.01 350.582 355.01 353.582 357 356.562C356.18 358.052 355.35 359.552 354.5 361.062C353.11 362.112 351.61 362.282 350 361.562C347.96 359.632 346.29 357.472 345 355.062C344.46 353.822 344.12 352.482 344 351.062C345.29 344.442 348.63 339.102 354 335.062C357.58 333.152 360.58 330.492 363 327.062C360.27 322.692 357.61 318.352 355 314.062C351.88 309.322 348.88 304.492 346 299.562C346.56 297.502 347.89 296.342 350 296.062C352.63 297.022 354.63 298.692 356 301.062Z" fill="#232423"/>
<path fill-rule="evenodd" clip-rule="evenodd" d="M268 333.062C269.7 332.902 271.37 333.072 273 333.562C273.52 334.122 273.86 334.792 274 335.562C272.11 339.462 269.44 342.792 266 345.562C260.16 345.732 254.99 343.902 250.5 340.062C249.33 335.892 250.83 334.392 255 335.562C260.74 341.022 265.08 340.192 268 333.062Z" fill="#0E0E0E"/>
<path fill-rule="evenodd" clip-rule="evenodd" d="M175 361.062C189.21 364.362 203.55 367.202 218 369.562C244.67 372.882 271.33 372.882 298 369.562C309.68 366.562 321.35 363.722 333 361.062C332.76 363.822 331.42 365.992 329 367.562C316.93 372.492 304.6 376.322 292 379.062C289.33 379.062 286.67 379.062 284 379.062C284.28 380.972 283.95 382.642 283 384.062C283 382.732 283 381.392 283 380.062C266.49 379.732 250.16 380.062 234 381.062C229.76 380.032 225.43 379.362 221 379.062C210.5 376.392 199.83 373.892 189 371.562C186.67 370.562 184.33 369.562 182 368.562C178.76 366.822 176.43 364.322 175 361.062Z" fill="#CBCDCC"/>
<path fill-rule="evenodd" clip-rule="evenodd" d="M221 379.062C225.43 379.362 229.76 380.032 234 381.062C233.42 392.182 232.92 403.182 232.5 414.062C232 414.562 231.5 415.062 231 415.562C223.42 417.412 215.75 418.082 208 417.562C206.1 415.752 205.6 413.592 206.5 411.062C210.28 407.252 214.78 405.252 220 405.062C220.88 396.432 221.21 387.762 221 379.062Z" fill="#232323"/>
<path fill-rule="evenodd" clip-rule="evenodd" d="M292 379.062C292.93 380.592 293.6 382.262 294 384.062C293.07 391.692 292.73 399.362 293 407.062C296.68 406.892 300.35 407.062 304 407.562C307.86 410.032 308.86 413.362 307 417.562C300.85 419.822 294.52 420.492 288 419.562C285.83 418.732 284.33 417.232 283.5 415.062C283.73 404.762 283.57 394.432 283 384.062C283.95 382.642 284.28 380.972 284 379.062C286.67 379.062 289.33 379.062 292 379.062Z" fill="#232323"/>
</svg>
