<svg width="500" height="500" viewBox="0 0 500 500" fill="none" xmlns="http://www.w3.org/2000/svg">
<path fill-rule="evenodd" clip-rule="evenodd" d="M179 142.061C178.61 145.281 176.78 146.941 173.5 147.061C169.27 145.861 165.11 144.531 161 143.061C160.21 141.771 159.21 140.601 158 139.561C152.69 139.321 147.69 137.981 143 135.561C138.3 134.731 133.63 134.901 129 136.061C128.03 144.671 127.7 153.341 128 162.061C128.5 166.731 128.67 171.401 128.5 176.061C127.83 176.811 127 177.151 126 177.061C118.46 158.391 115.96 139.061 118.5 119.061C120.22 115.641 123.05 113.971 127 114.061C132.36 115.121 137.7 116.291 143 117.561C152.07 123.621 161.4 129.291 171 134.561C173.56 137.291 176.23 139.791 179 142.061Z" fill="#40403F"/>
<path fill-rule="evenodd" clip-rule="evenodd" d="M317 191.061C315.28 190.341 313.45 189.671 311.5 189.061C311 186.411 310.84 183.751 311 181.061C311.28 180.271 311.78 179.601 312.5 179.061C313.78 169.091 314.11 159.091 313.5 149.061C312.7 146.341 311.54 143.841 310 141.561C306.82 140.991 303.82 140.331 301 139.561C296.33 142.561 291.67 145.561 287 148.561C284.73 150.321 283.07 152.481 282 155.061C278.8 156.241 275.63 157.581 272.5 159.061C269.96 158.351 268.79 156.691 269 154.061C272.71 148.171 277.05 142.671 282 137.561C287.67 134.731 293 131.391 298 127.561C301.34 125.641 304.84 124.141 308.5 123.061C311.04 123.751 313.54 124.581 316 125.561C321.07 136.431 324.07 147.931 325 160.061C324.03 167.751 322.86 175.421 321.5 183.061C320.64 186.191 319.14 188.861 317 191.061Z" fill="#403F3F"/>
<path fill-rule="evenodd" clip-rule="evenodd" d="M161 143.061C160.34 146.211 158.34 147.711 155 147.561C156.36 149.501 156.03 151.161 154 152.561C152 152.891 150 153.231 148 153.561C147.45 158.271 144.79 160.771 140 161.061C139.07 166.841 136.07 168.341 131 165.561C129.86 164.411 128.86 163.251 128 162.061C127.7 153.341 128.03 144.671 129 136.061C133.63 134.901 138.3 134.731 143 135.561C147.69 137.981 152.69 139.321 158 139.561C159.21 140.601 160.21 141.771 161 143.061Z" fill="#F9F8F8"/>
<path fill-rule="evenodd" clip-rule="evenodd" d="M311 181.061C306.51 181.421 304.85 179.591 306 175.561C304.4 175.291 302.9 174.791 301.5 174.061C301.17 172.061 300.83 170.061 300.5 168.061C297.16 172.201 294.33 171.701 292 166.561C290.67 166.231 289.33 165.891 288 165.561C286.67 162.981 284.83 160.811 282.5 159.061C282.01 157.771 281.84 156.431 282 155.061C283.07 152.481 284.73 150.321 287 148.561C291.67 145.561 296.33 142.561 301 139.561C303.82 140.331 306.82 140.991 310 141.561C311.54 143.841 312.7 146.341 313.5 149.061C314.11 159.091 313.78 169.091 312.5 179.061C311.78 179.601 311.28 180.271 311 181.061Z" fill="#FAF9F8"/>
<path fill-rule="evenodd" clip-rule="evenodd" d="M179 142.061C181.64 143.381 184.31 144.711 187 146.061C197.69 145.481 208.35 144.481 219 143.061C235.91 145.791 252.58 149.461 269 154.061C268.79 156.691 269.96 158.351 272.5 159.061C275.63 157.581 278.8 156.241 282 155.061C281.84 156.431 282.01 157.771 282.5 159.061C284.83 160.811 286.67 162.981 288 165.561C289.33 165.891 290.67 166.231 292 166.561C294.33 171.701 297.16 172.201 300.5 168.061C300.83 170.061 301.17 172.061 301.5 174.061C302.9 174.791 304.4 175.291 306 175.561C304.85 179.591 306.51 181.421 311 181.061C310.84 183.751 311 186.411 311.5 189.061C313.45 189.671 315.28 190.341 317 191.061C316.21 192.481 315.54 193.981 315 195.561C319.15 207.341 323.32 219.171 327.5 231.061C328.29 240.771 327.95 250.431 326.5 260.061C324.36 267.331 322.52 274.661 321 282.061C321.33 282.391 321.67 282.731 322 283.061C330.36 279.721 339.03 278.051 348 278.061C346.81 282.521 348.48 285.681 353 287.561C343.18 293.411 343.84 297.411 355 299.561C347.92 305.841 348.59 310.511 357 313.561C355.15 316.141 354.65 318.971 355.5 322.061C356.32 323.381 357.48 324.051 359 324.061C357.75 325.701 356.08 326.861 354 327.561C347.04 330.261 339.87 332.091 332.5 333.061C324.47 331.721 316.63 329.551 309 326.561C305.24 324.641 301.91 322.141 299 319.061C293.53 322.701 288.19 326.531 283 330.561C272.94 333.641 262.94 336.801 253 340.061C253.07 339.621 252.9 339.291 252.5 339.061C247.37 341.131 242.2 342.801 237 344.061C222.35 344.671 207.69 344.671 193 344.061C186.02 343.281 179.02 341.951 172 340.061C158.35 336.241 145.35 330.741 133 323.561C122.41 311.231 114.25 297.391 108.5 282.061C104.13 258.031 104.13 234.031 108.5 210.061C113.44 201.461 118.77 193.131 124.5 185.061C125.75 182.551 126.25 179.881 126 177.061C127 177.151 127.83 176.811 128.5 176.061C128.67 171.401 128.5 166.731 128 162.061C128.86 163.251 129.86 164.411 131 165.561C136.07 168.341 139.07 166.841 140 161.061C144.79 160.771 147.45 158.271 148 153.561C150 153.231 152 152.891 154 152.561C156.03 151.161 156.36 149.501 155 147.561C158.34 147.711 160.34 146.211 161 143.061C165.11 144.531 169.27 145.861 173.5 147.061C176.78 146.941 178.61 145.281 179 142.061Z" fill="#FE7D1A"/>
<path fill-rule="evenodd" clip-rule="evenodd" d="M202 154.061C207.84 153.081 210.67 155.411 210.5 161.061C205.41 165.571 201.91 164.401 200 157.561C200.48 156.261 201.14 155.091 202 154.061Z" fill="#FCF9F6"/>
<path fill-rule="evenodd" clip-rule="evenodd" d="M235 156.061C237.36 155.901 239.69 156.061 242 156.561C243.2 162.031 240.87 164.361 235 163.561C232.41 161.071 232.41 158.571 235 156.061Z" fill="#FCF9F6"/>
<path fill-rule="evenodd" clip-rule="evenodd" d="M195 169.061C198.15 173.921 196.82 176.091 191 175.561C190.12 174.851 189.45 174.021 189 173.061C189.62 169.781 191.62 168.451 195 169.061Z" fill="#F0EEEC"/>
<path fill-rule="evenodd" clip-rule="evenodd" d="M195 169.061C197.08 169.031 198.92 169.701 200.5 171.061C201.76 175.941 200.92 180.281 198 184.061C195.31 184.221 192.65 184.061 190 183.561C187.89 182.301 186.89 180.461 187 178.061C186.62 175.861 187.29 174.201 189 173.061C189.45 174.021 190.12 174.851 191 175.561C196.82 176.091 198.15 173.921 195 169.061Z" fill="#252525"/>
<path fill-rule="evenodd" clip-rule="evenodd" d="M243 173.061C244.95 176.901 243.79 179.231 239.5 180.061C238.2 179.581 237.03 178.921 236 178.061C236.21 173.161 238.54 171.501 243 173.061Z" fill="#F1ECE9"/>
<path fill-rule="evenodd" clip-rule="evenodd" d="M187 178.061C186.89 180.461 187.89 182.301 190 183.561C192.65 184.061 195.31 184.221 198 184.061C202.33 187.731 206.33 191.731 210 196.061C209.18 201.301 210.85 205.801 215 209.561C218.01 209.761 221.01 209.431 224 208.561C225.81 206.081 227.48 203.581 229 201.061C232.34 197.021 235.68 193.021 239 189.061C243.23 189.161 246.56 187.491 249 184.061C256.9 182.231 264.9 181.731 273 182.561C278.15 187.171 278.32 192.001 273.5 197.061C267.32 203.891 260.16 209.391 252 213.561C242.67 215.731 233.34 217.891 224 220.061C214.22 219.131 204.56 217.631 195 215.561C186.57 211.261 178.73 206.101 171.5 200.061C168.14 194.711 164.8 189.371 161.5 184.061C160.79 181.591 161.13 179.261 162.5 177.061C166.38 175.461 170.38 174.121 174.5 173.061C178.96 174.041 183.13 175.711 187 178.061Z" fill="#FBFAF9"/>
<path fill-rule="evenodd" clip-rule="evenodd" d="M243 173.061C249.53 174.061 251.53 177.731 249 184.061C246.56 187.491 243.23 189.161 239 189.061C235.16 186.151 234.16 182.491 236 178.061C237.03 178.921 238.2 179.581 239.5 180.061C243.79 179.231 244.95 176.901 243 173.061Z" fill="#242323"/>
<path fill-rule="evenodd" clip-rule="evenodd" d="M229 201.061C227.48 203.581 225.81 206.081 224 208.561C221.01 209.431 218.01 209.761 215 209.561C210.85 205.801 209.18 201.301 210 196.061C215.56 195.931 221.22 195.761 227 195.561C228.66 197.001 229.32 198.841 229 201.061Z" fill="#242424"/>
<path fill-rule="evenodd" clip-rule="evenodd" d="M266 252.061C257.42 248.811 248.59 246.481 239.5 245.061C237.67 245.231 235.83 245.391 234 245.561C219.32 256.101 216.16 269.601 224.5 286.061C242.4 298.421 255.73 294.751 264.5 275.061C265.19 272.841 266.03 270.671 267 268.561C265.85 266.361 265.85 264.191 267 262.061C268.9 264.181 271.23 265.511 274 266.061C278.68 288.541 270.34 304.041 249 312.561C231.51 316.301 213.84 317.961 196 317.561C178.65 315.901 164.48 308.401 153.5 295.061C146.32 285.081 144.82 274.421 149 263.061C149.96 261.601 151.12 260.271 152.5 259.061C151.42 266.181 152.09 273.181 154.5 280.061C162.62 291.831 173.12 294.331 186 287.561C190.55 284.311 194.05 280.141 196.5 275.061C198.02 271.191 198.35 267.191 197.5 263.061C194.52 258.071 192.02 252.901 190 247.561C179.95 242.831 169.62 241.991 159 245.061C162.81 241.431 166.81 237.931 171 234.561C188.22 227.621 205.88 225.961 224 229.561C240.94 231.691 254.94 239.191 266 252.061Z" fill="#FAF9F8"/>
<path fill-rule="evenodd" clip-rule="evenodd" d="M149 263.061C146.9 263.971 144.9 265.141 143 266.561C141.67 267.231 140.33 267.231 139 266.561C137.9 264.161 137.73 261.661 138.5 259.061C143.75 252.021 150.58 247.361 159 245.061C169.62 241.991 179.95 242.831 190 247.561C192.02 252.901 194.52 258.071 197.5 263.061C198.35 267.191 198.02 271.191 196.5 275.061C194.05 280.141 190.55 284.311 186 287.561C173.12 294.331 162.62 291.831 154.5 280.061C152.09 273.181 151.42 266.181 152.5 259.061C151.12 260.271 149.96 261.601 149 263.061Z" fill="#040404"/>
<path fill-rule="evenodd" clip-rule="evenodd" d="M266 252.061C271.35 255.901 276.85 259.561 282.5 263.061C283.21 264.931 282.71 266.431 281 267.561C278.58 267.701 276.25 267.201 274 266.061C271.23 265.511 268.9 264.181 267 262.061C265.85 264.191 265.85 266.361 267 268.561C266.03 270.671 265.19 272.841 264.5 275.061C255.73 294.751 242.4 298.421 224.5 286.061C216.16 269.601 219.32 256.101 234 245.561C235.83 245.391 237.67 245.231 239.5 245.061C248.59 246.481 257.42 248.811 266 252.061Z" fill="#050505"/>
<path fill-rule="evenodd" clip-rule="evenodd" d="M181 251.061C186.18 251.411 188.85 254.241 189 259.561C188.43 265.231 185.43 268.731 180 270.061C175.71 269.031 173.37 266.201 173 261.561C174.13 256.771 176.79 253.271 181 251.061Z" fill="#F6F6F6"/>
<path fill-rule="evenodd" clip-rule="evenodd" d="M235 251.061C239.93 250.501 242.6 252.661 243 257.561C243.69 266.711 239.69 270.211 231 268.061C229.18 265.591 227.85 262.921 227 260.061C227.17 259.061 227.33 258.061 227.5 257.061C229.98 254.921 232.48 252.921 235 251.061Z" fill="#F4F4F4"/>
<path fill-rule="evenodd" clip-rule="evenodd" d="M359 324.061C357.48 324.051 356.32 323.381 355.5 322.061C354.65 318.971 355.15 316.141 357 313.561C348.59 310.511 347.92 305.841 355 299.561C343.84 297.411 343.18 293.411 353 287.561C348.48 285.681 346.81 282.521 348 278.061C356.29 277.331 364.62 276.491 373 275.561C379.33 272.391 385.67 269.231 392 266.061C392.98 266.541 393.81 267.201 394.5 268.061C394.02 276.051 392.02 283.721 388.5 291.061C382.89 299.671 376.89 308.011 370.5 316.061C367.35 319.871 363.51 322.541 359 324.061Z" fill="#40403F"/>
<path fill-rule="evenodd" clip-rule="evenodd" d="M220 295.061C226.53 295.111 227.69 297.771 223.5 303.061C221.67 304.891 219.83 306.731 218 308.561C212.21 308.681 206.87 307.011 202 303.561C199.01 300.371 199.67 298.541 204 298.061C207.54 298.831 210.87 300.161 214 302.061C216.77 300.301 218.77 297.971 220 295.061Z" fill="#0C0C0C"/>
<path fill-rule="evenodd" clip-rule="evenodd" d="M253 340.061C259.77 350.161 262.61 361.161 261.5 373.061C254.76 382.511 245.59 386.681 234 385.561C225.11 380.761 224.77 375.431 233 369.561C235.93 368.421 238.93 367.581 242 367.061C239.93 360.281 237.93 353.451 236 346.561C236.24 345.661 236.58 344.821 237 344.061C242.2 342.801 247.37 341.131 252.5 339.061C252.9 339.291 253.07 339.621 253 340.061Z" fill="#3F3F3F"/>
<path fill-rule="evenodd" clip-rule="evenodd" d="M172 340.061C179.02 341.951 186.02 343.281 193 344.061C190.19 356.261 186.69 368.261 182.5 380.061C169.83 384.171 159.16 381.171 150.5 371.061C149.08 368.531 148.75 365.861 149.5 363.061C151.94 360.941 154.61 359.271 157.5 358.061C160.68 359.071 163.52 360.741 166 363.061C168.78 355.611 170.78 347.941 172 340.061Z" fill="#3F3F40"/>
</svg>
