<svg width="500" height="500" viewBox="0 0 500 500" fill="none" xmlns="http://www.w3.org/2000/svg">
<path fill-rule="evenodd" clip-rule="evenodd" d="M273 110.061C298.67 109.891 324.34 110.061 350 110.561C354.51 111.061 358.35 112.891 361.5 116.061C364.84 124.521 365.67 133.191 364 142.061C364.64 143.211 365.48 144.211 366.5 145.061C369.39 177.001 371.55 209.001 373 241.061C372.42 256.071 371.59 271.071 370.5 286.061C366.78 297.171 362.78 308.171 358.5 319.061C345.91 340.771 328.08 356.611 305 366.561C291.22 370.761 277.56 375.431 264 380.561C250.22 383.161 236.55 386.161 223 389.561C204.99 391.181 186.99 391.181 169 389.561C158.19 388.851 149.02 384.681 141.5 377.061C136.59 368.661 132.26 359.991 128.5 351.061C127.03 339.091 126.69 327.091 127.5 315.061C131.4 304.101 137.23 294.261 145 285.561C150.52 282.971 155.52 279.641 160 275.561C181.05 268.341 200.88 258.841 219.5 247.061C220.33 227.671 219.66 208.341 217.5 189.061C215.01 175.201 212.68 161.201 210.5 147.061C209.59 137.981 209.92 128.981 211.5 120.061C213 118.561 214.5 117.061 216 115.561C220.03 115.081 224.03 114.411 228 113.561C243.16 112.531 258.16 111.361 273 110.061Z" fill="#3595FE"/>
<path fill-rule="evenodd" clip-rule="evenodd" d="M313 118.061C315.67 118.061 318.33 118.061 321 118.061C322.61 126.011 323.95 134.011 325 142.061C322 142.061 319 142.061 316 142.061C314.74 134.111 313.74 126.111 313 118.061Z" fill="#72B6FF"/>
<path fill-rule="evenodd" clip-rule="evenodd" d="M329 119.061C332.12 118.081 335.46 117.751 339 118.061C339.71 125.381 340.38 132.721 341 140.061C338.33 140.061 335.67 140.061 333 140.061C331.33 133.001 329.99 126.001 329 119.061Z" fill="#73B6FF"/>
<path fill-rule="evenodd" clip-rule="evenodd" d="M265 119.061C268 119.061 271 119.061 274 119.061C275.43 127.721 276.76 136.391 278 145.061C274.73 146.051 271.4 146.381 268 146.061C266.89 137.081 265.89 128.081 265 119.061Z" fill="#72B6FF"/>
<path fill-rule="evenodd" clip-rule="evenodd" d="M296 118.061C299 118.061 302 118.061 305 118.061C306.17 126.381 307.17 134.721 308 143.061C305.67 143.061 303.33 143.061 301 143.061C301.17 139.711 301 136.381 300.5 133.061C299.09 128.001 297.59 123.001 296 118.061Z" fill="#72B6FF"/>
<path fill-rule="evenodd" clip-rule="evenodd" d="M282 118.061C284.33 118.061 286.67 118.061 289 118.061C291.45 126.861 293.11 135.861 294 145.061C291.33 145.061 288.67 145.061 286 145.061C284.59 136.071 283.25 127.071 282 118.061Z" fill="#71B6FF"/>
<path fill-rule="evenodd" clip-rule="evenodd" d="M347 118.061C352.77 118.771 355.94 122.111 356.5 128.061C357 131.711 357.17 135.381 357 139.061C354.64 139.221 352.31 139.061 350 138.561C349.37 137.811 348.87 136.981 348.5 136.061C347.26 130.131 346.76 124.131 347 118.061Z" fill="#72B6FF"/>
<path fill-rule="evenodd" clip-rule="evenodd" d="M252 122.061C253.42 121.111 255.09 120.781 257 121.061C258.24 129.741 259.57 138.411 261 147.061C258.33 147.061 255.67 147.061 253 147.061C253.33 138.541 252.99 130.211 252 122.061Z" fill="#72B6FF"/>
<path fill-rule="evenodd" clip-rule="evenodd" d="M237 121.061C239.89 120.601 242.39 121.271 244.5 123.061C244.7 131.111 245.2 139.111 246 147.061C243.41 148.041 240.75 148.371 238 148.061C237.19 139.081 236.86 130.081 237 121.061Z" fill="#73B6FF"/>
<path fill-rule="evenodd" clip-rule="evenodd" d="M223 122.061C225 122.061 227 122.061 229 122.061C228.8 130.431 229.13 138.761 230 147.061C226.98 147.221 223.98 147.061 221 146.561C220.07 146.171 219.41 145.511 219 144.561C218.05 137.441 217.72 130.271 218 123.061C219.91 123.341 221.58 123.011 223 122.061Z" fill="#72B6FF"/>
<path fill-rule="evenodd" clip-rule="evenodd" d="M341 147.061C347 147.061 353 147.061 359 147.061C361.3 174.351 363.13 201.681 364.5 229.061C365.12 240.071 364.95 251.071 364 262.061C336.45 265.121 313.62 277.121 295.5 298.061C292.27 303.961 288.27 309.291 283.5 314.061C274.56 331.321 271.39 349.491 274 368.561C271.67 369.561 269.33 370.561 267 371.561C252.68 375.001 238.35 378.331 224 381.561C213.7 382.791 203.37 383.291 193 383.061C181.35 350.771 170.68 318.111 161 285.061C162 284.231 163 283.391 164 282.561C184.55 274.951 204.22 265.781 223 255.061C224.69 253.201 226.19 251.201 227.5 249.061C228.27 217.471 225.77 186.141 220 155.061C244.03 155.161 268.03 154.331 292 152.561C308.56 151.751 324.9 149.921 341 147.061Z" fill="#FAFAFA"/>
<path fill-rule="evenodd" clip-rule="evenodd" d="M342 196.061C344.67 196.491 345.83 195.491 345.5 193.061C341.02 190.571 336.52 188.241 332 186.061C332.74 186.191 333.41 186.021 334 185.561C329.86 184.421 326.53 182.091 324 178.561C299.54 169.111 277.54 173.111 258 190.561C258.23 190.961 258.56 191.131 259 191.061C252.45 193.831 246.79 197.831 242 203.061C241.7 202.411 241.36 201.741 241 201.061C243.6 193.961 247.93 188.121 254 183.561C263.11 176.671 273.11 171.341 284 167.561C296.06 165.501 308.06 165.841 320 168.561C329.3 173.191 337.47 179.361 344.5 187.061C355.27 206.141 353.27 223.811 338.5 240.061C336.67 238.231 334.83 236.391 333 234.561C338.95 229.061 342.45 222.231 343.5 214.061C344.41 208.901 343.91 203.901 342 199.061C342.88 198.311 343.88 197.811 345 197.561C343.76 197.331 342.76 196.831 342 196.061Z" fill="#E5E5E5"/>
<path fill-rule="evenodd" clip-rule="evenodd" d="M332 186.061C336.52 188.241 341.02 190.571 345.5 193.061C345.83 195.491 344.67 196.491 342 196.061C339.34 196.401 337.01 195.731 335 194.061C334.36 200.851 332.52 207.521 329.5 214.061C322.62 219.711 315.12 220.541 307 216.561C300.4 208.541 299.24 199.701 303.5 190.061C305.37 187.851 307.54 186.021 310 184.561C317.43 183.961 324.76 184.461 332 186.061Z" fill="#090909"/>
<path fill-rule="evenodd" clip-rule="evenodd" d="M310 189.061C312.22 188.741 314.06 189.401 315.5 191.061C316.52 194.881 316.02 198.381 314 201.561C307.17 202.731 304.33 199.891 305.5 193.061C307.49 192.231 308.99 190.901 310 189.061Z" fill="#F7F7F7"/>
<path fill-rule="evenodd" clip-rule="evenodd" d="M242 203.061C246.79 197.831 252.45 193.831 259 191.061C266.64 188.771 273.47 190.101 279.5 195.061C281.83 199.041 283.66 203.211 285 207.561C282.46 221.981 274.12 227.651 260 224.561C253.17 219.741 250.01 213.241 250.5 205.061C248.33 207.231 246.17 209.391 244 211.561C242.72 212.241 241.55 212.081 240.5 211.061C239.78 208.151 240.28 205.491 242 203.061Z" fill="#080808"/>
<path fill-rule="evenodd" clip-rule="evenodd" d="M269 196.061C276.7 196.111 278.87 199.781 275.5 207.061C270.67 211.561 267.51 210.561 266 204.061C266.23 201.041 267.23 198.381 269 196.061Z" fill="#F4F4F4"/>
<path fill-rule="evenodd" clip-rule="evenodd" d="M304 223.061C305.33 223.061 306.67 223.061 308 223.061C306.69 234.301 301.03 237.131 291 231.561C289.38 228.761 290.22 227.261 293.5 227.061C295.97 228.061 298.47 228.561 301 228.561C302.14 226.781 303.14 224.951 304 223.061Z" fill="#0E0E0E"/>
<path fill-rule="evenodd" clip-rule="evenodd" d="M324 226.061C325.97 225.821 327.8 226.151 329.5 227.061C329.87 229.461 329.87 231.791 329.5 234.061C334.83 238.391 339.83 243.051 344.5 248.061C348.44 243.851 350.44 238.851 350.5 233.061C352.83 230.391 355.17 230.391 357.5 233.061C357.38 242.131 353.88 249.631 347 255.561C343.57 256.021 340.57 255.021 338 252.561C333.67 248.231 329.33 243.891 325 239.561C323.55 239.441 322.05 239.611 320.5 240.061C316.76 239.661 315.43 237.661 316.5 234.061C319.88 232.181 322.38 229.511 324 226.061Z" fill="#242424"/>
<path fill-rule="evenodd" clip-rule="evenodd" d="M267 230.061C270.95 229.131 273.61 230.471 275 234.061C280.87 235.041 282.2 237.871 279 242.561C276.64 242.771 274.47 242.931 272.5 243.061C268.91 251.771 263.75 259.271 257 265.561C250.02 267.261 244.52 265.101 240.5 259.061C237.76 254.381 238.93 251.881 244 251.561C246.33 253.891 248.67 256.231 251 258.561C254.52 258.411 257.02 256.581 258.5 253.061C261.06 247.601 263.9 242.271 267 237.061C264.35 234.691 264.35 232.361 267 230.061Z" fill="#232323"/>
<path fill-rule="evenodd" clip-rule="evenodd" d="M356 271.061C358.33 271.061 360.67 271.061 363 271.061C363.56 278.261 362.72 285.261 360.5 292.061C356.67 300.501 353.34 309.171 350.5 318.061C343.39 328.171 335.22 337.341 326 345.561C318.45 349.431 311.11 353.761 304 358.561C297.17 361.521 290.17 364.021 283 366.061C277.98 344.661 282.81 325.991 297.5 310.061C308.37 293.871 322.87 282.041 341 274.561C346.21 273.711 351.21 272.541 356 271.061Z" fill="#73B7FF"/>
<path fill-rule="evenodd" clip-rule="evenodd" d="M153 290.061C154.06 291.161 154.89 292.491 155.5 294.061C164.43 323.681 174.26 353.021 185 382.061C181.04 383.221 177.04 383.391 173 382.561C168.16 380.611 163.16 379.281 158 378.561C154.84 377.151 151.84 375.481 149 373.561C134.99 354.651 131.15 333.821 137.5 311.061C140.99 302.751 146.16 295.751 153 290.061Z" fill="#72B6FF"/>
</svg>
