<svg width="500" height="500" viewBox="0 0 500 500" fill="none" xmlns="http://www.w3.org/2000/svg">
<path fill-rule="evenodd" clip-rule="evenodd" d="M299 111.062C297.02 112.212 295.52 113.872 294.5 116.062C294 122.382 293.83 128.722 294 135.062C293.11 134.452 292.11 134.122 291 134.062C282.99 130.482 278.16 133.152 276.5 142.062C275.47 147.682 274.97 153.352 275 159.062C273.71 159.622 272.88 160.622 272.5 162.062C272.22 161.142 271.72 160.482 271 160.062C271.96 154.152 272.29 148.152 272 142.062C272.46 134.982 274.63 128.312 278.5 122.062C284.79 113.632 290.96 105.132 297 96.5617C296.33 94.1717 294.99 93.6717 293 95.0617C287.31 102.252 281.81 109.592 276.5 117.062C276.17 99.3917 275.83 81.7317 275.5 64.0617C275.17 62.0617 274.83 60.0617 274.5 58.0617C271.01 55.1117 268.84 55.9517 268 60.5617C269.34 73.4017 269.17 86.2417 267.5 99.0617C265.09 94.6417 261.92 90.8117 258 87.5617C256.71 87.0717 255.37 86.9017 254 87.0617C253.85 88.1117 254.02 89.1117 254.5 90.0617C257.83 93.4017 260.66 97.0617 263 101.062C258.66 98.4817 254.33 98.4817 250 101.062C248.27 95.3717 246.44 89.7017 244.5 84.0617C243.14 81.5417 241.31 79.5417 239 78.0617C240.43 76.7317 241.77 75.2317 243 73.5617C247.98 73.2017 252.65 74.3717 257 77.0617C257.47 66.5417 258.97 56.2117 261.5 46.0617C265.33 38.0217 271.5 35.5217 280 38.5617C283.38 42.8317 285.55 47.6617 286.5 53.0617C286.67 63.0817 287.17 73.0817 288 83.0617C292.79 78.4417 298.46 76.9417 305 78.5617C310.23 82.7017 311.4 87.8717 308.5 94.0617C306.61 100.612 303.11 106.112 298 110.562C298.23 110.962 298.56 111.132 299 111.062Z" fill="#73B74A"/>
<path fill-rule="evenodd" clip-rule="evenodd" d="M272 142.062C269.74 138.992 267.74 135.822 266 132.562C267.05 124.752 267.22 116.912 266.5 109.062C265.59 106.252 264.43 103.582 263 101.062C260.66 97.0617 257.83 93.4017 254.5 90.0617C254.02 89.1117 253.85 88.1117 254 87.0617C255.37 86.9017 256.71 87.0717 258 87.5617C261.92 90.8117 265.09 94.6417 267.5 99.0617C269.17 86.2417 269.34 73.4017 268 60.5617C268.84 55.9517 271.01 55.1117 274.5 58.0617C274.83 60.0617 275.17 62.0617 275.5 64.0617C275.83 81.7317 276.17 99.3917 276.5 117.062C281.81 109.592 287.31 102.252 293 95.0617C294.99 93.6717 296.33 94.1717 297 96.5617C290.96 105.132 284.79 113.632 278.5 122.062C274.63 128.312 272.46 134.982 272 142.062Z" fill="#B62652"/>
<path fill-rule="evenodd" clip-rule="evenodd" d="M239 78.0614C241.31 79.5414 243.14 81.5414 244.5 84.0614C246.44 89.7014 248.27 95.3714 250 101.061C254.33 98.4814 258.66 98.4814 263 101.061C264.43 103.581 265.59 106.251 266.5 109.061C267.22 116.911 267.05 124.751 266 132.561C267.74 135.821 269.74 138.991 272 142.061C272.29 148.151 271.96 154.151 271 160.061C269.76 166.291 267.26 171.961 263.5 177.061C263 180.711 262.83 184.381 263 188.061C261.89 188.001 260.89 187.671 260 187.061C259.06 181.151 257.73 175.321 256 169.561C259.06 162.111 262.39 154.771 266 147.561C265.17 145.061 263.67 144.561 261.5 146.061C259.17 150.731 256.83 155.391 254.5 160.061C252.25 152.571 250.09 145.071 248 137.561C250.45 128.371 253.28 119.201 256.5 110.061C257.75 106.161 256.58 104.831 253 106.061C249.6 113.081 247.1 120.411 245.5 128.061C242.77 116.881 239.44 105.881 235.5 95.0614C233.5 93.7314 231.5 93.7314 229.5 95.0614C229.36 99.0614 229.69 103.061 230.5 107.061C234.01 115.571 236.67 124.241 238.5 133.061C233.38 128.911 228.55 124.411 224 119.561C221.89 118.711 220.56 119.371 220 121.561C227.1 128.661 234.27 135.831 241.5 143.061C244.21 151.921 245.87 160.921 246.5 170.061C241.29 163.191 235.13 157.351 228 152.561C224.57 151.921 223.24 153.421 224 157.061C225.81 157.051 227.48 157.551 229 158.561C236.9 165.891 243.74 174.061 249.5 183.061C250 185.371 250.16 187.701 250 190.061C249 190.061 248 190.061 247 190.061C247 194.091 246.66 198.091 246 202.061C239.7 193.571 233.53 184.911 227.5 176.061C220.36 171.091 214.86 164.751 211 157.061C210.09 148.141 214.09 143.971 223 144.561C220.1 141.831 217.43 139.001 215 136.061C210.03 130.451 206.36 124.121 204 117.061C205.23 108.111 209.9 105.451 218 109.061C218.33 108.391 218.67 107.731 219 107.061C216.99 99.5014 216.16 91.8314 216.5 84.0614C218.61 79.6114 221.78 76.1114 226 73.5614C231.23 72.5814 235.57 74.0814 239 78.0614Z" fill="#85D656"/>
<path fill-rule="evenodd" clip-rule="evenodd" d="M260 187.061C260.73 189.741 261.56 192.411 262.5 195.061C263 192.751 263.16 190.421 263 188.061C262.83 184.381 263 180.711 263.5 177.061C267.26 171.961 269.76 166.291 271 160.061C271.72 160.481 272.22 161.141 272.5 162.061C272.88 160.621 273.71 159.621 275 159.061C275.7 163.711 274.7 167.881 272 171.561C272.92 176.341 273.25 181.171 273 186.061C272.83 192.401 273 198.741 273.5 205.061C275.62 200.481 277.46 195.821 279 191.061C282.7 185.301 285.03 178.971 286 172.061C284.96 164.551 283.29 157.221 281 150.061C282.64 149.851 284.14 150.181 285.5 151.061C287.57 155.921 289.23 160.921 290.5 166.061C293.91 159.561 297.58 153.231 301.5 147.061C302.08 139.961 301.75 132.961 300.5 126.061C301.83 124.731 303.17 124.731 304.5 126.061C305.66 129.681 306.66 133.351 307.5 137.061C309.79 133.981 311.96 130.811 314 127.561C315.67 126.891 317.33 126.891 319 127.561C319.56 128.281 319.89 129.121 320 130.061C315.88 139.641 311.21 148.971 306 158.061C306.33 158.391 306.67 158.731 307 159.061C310.67 157.721 314.34 156.391 318 155.061C320.58 155.311 321.41 156.641 320.5 159.061C313.89 161.151 307.55 163.821 301.5 167.061C294.94 178.511 289.77 190.511 286 203.061C284.41 208.131 282.74 213.301 281 218.561C281.33 219.061 281.67 219.561 282 220.061C284.01 217.361 286.01 214.701 288 212.061C294.16 205.901 298.16 198.571 300 190.061C300.98 189.581 301.81 188.921 302.5 188.061C302.75 189.181 303.25 190.181 304 191.061C308.86 184.301 315.19 179.461 323 176.561C325.79 174.841 328.12 172.671 330 170.061C331.07 170.811 331.24 171.811 330.5 173.061C328.3 175.681 326.47 178.511 325 181.561C328.66 180.731 332.33 179.561 336 178.061C338.2 178.091 339.04 179.091 338.5 181.061C332.66 184.221 326.5 186.721 320 188.561C315.95 192.941 312.29 197.611 309 202.561C314.03 201.891 319.03 200.721 324 199.061C326.58 199.311 327.41 200.641 326.5 203.061C319.22 205.711 311.72 207.541 304 208.561C301.54 211.671 299.2 214.831 297 218.061C293.03 223.711 289.03 229.381 285 235.061C331.72 249.461 357.05 281.131 361 330.061C354.47 336.081 347.47 341.581 340 346.561C338.33 346.891 336.67 347.231 335 347.561C332.7 349.861 330.7 352.361 329 355.061C329.11 356.001 329.44 356.841 330 357.561C332 358.231 334 358.231 336 357.561C343.75 353.631 351.08 349.131 358 344.061C353.91 358.581 347.41 371.911 338.5 384.061C335.25 387.981 331.42 391.151 327 393.561C316.48 397.781 306.15 402.281 296 407.061C292.7 407.711 290.03 409.381 288 412.061C278.29 417.931 269.96 425.431 263 434.561C261.04 435.511 259.38 436.851 258 438.561C255.47 439.981 252.8 440.311 250 439.561C243.48 433.711 237.65 427.211 232.5 420.061C227.74 414.791 222.57 410.131 217 406.061C215.48 402.621 212.81 400.621 209 400.061C191.22 390.451 176.39 377.451 164.5 361.061C161.27 355.781 159.1 350.111 158 344.061C157.72 339.121 156.72 334.461 155 330.061C154.24 279.381 178.24 247.541 227 234.561C233.32 234.061 239.66 233.891 246 234.061C243.28 226.281 239.28 219.281 234 213.061C231.66 206.891 228.66 201.061 225 195.561C219.14 193.771 213.14 192.771 207 192.561C206.16 191.551 205.83 190.381 206 189.061C211.01 189.231 216.01 189.061 221 188.561C217.62 183.311 214.12 178.141 210.5 173.061C209.33 171.671 207.83 170.831 206 170.561C200.34 170.061 194.68 169.891 189 170.061C188.79 168.421 189.12 166.921 190 165.561C194.67 165.231 199.33 164.891 204 164.561C201.09 160.991 199.09 156.991 198 152.561C198.14 151.791 198.48 151.121 199 150.561C200.67 149.891 202.33 149.891 204 150.561C206.2 152.931 208.54 155.101 211 157.061C214.86 164.751 220.36 171.091 227.5 176.061C233.53 184.911 239.7 193.571 246 202.061C247.3 205.981 249.13 209.651 251.5 213.061C251.9 205.341 251.4 197.681 250 190.061C250.16 187.701 250 185.371 249.5 183.061C243.74 174.061 236.9 165.891 229 158.561C227.48 157.551 225.81 157.051 224 157.061C223.24 153.421 224.57 151.921 228 152.561C235.13 157.351 241.29 163.191 246.5 170.061C245.87 160.921 244.21 151.921 241.5 143.061C234.27 135.831 227.1 128.661 220 121.561C220.56 119.371 221.89 118.711 224 119.561C228.55 124.411 233.38 128.911 238.5 133.061C236.67 124.241 234.01 115.571 230.5 107.061C229.69 103.061 229.36 99.0615 229.5 95.0615C231.5 93.7315 233.5 93.7315 235.5 95.0615C239.44 105.881 242.77 116.881 245.5 128.061C247.1 120.411 249.6 113.081 253 106.061C256.58 104.831 257.75 106.161 256.5 110.061C253.28 119.201 250.45 128.371 248 137.561C250.09 145.071 252.25 152.571 254.5 160.061C256.83 155.391 259.17 150.731 261.5 146.061C263.67 144.561 265.17 145.061 266 147.561C262.39 154.771 259.06 162.111 256 169.561C257.73 175.321 259.06 181.151 260 187.061Z" fill="#B62253"/>
<path fill-rule="evenodd" clip-rule="evenodd" d="M330 153.062C333.95 158.662 333.95 164.332 330 170.062C328.12 172.672 325.79 174.842 323 176.562C315.19 179.462 308.86 184.302 304 191.062C303.25 190.182 302.75 189.182 302.5 188.062C301.81 188.922 300.98 189.582 300 190.062C298.16 198.572 294.16 205.902 288 212.062C287.38 211.952 286.88 211.622 286.5 211.062C286 208.412 285.84 205.752 286 203.062C289.77 190.512 294.94 178.512 301.5 167.062C307.55 163.822 313.89 161.152 320.5 159.062C321.41 156.642 320.58 155.312 318 155.062C314.34 156.392 310.67 157.722 307 159.062C306.67 158.732 306.33 158.392 306 158.062C311.21 148.972 315.88 139.642 320 130.062C319.89 129.122 319.56 128.282 319 127.562C317.33 126.892 315.67 126.892 314 127.562C311.96 130.812 309.79 133.982 307.5 137.062C306.66 133.352 305.66 129.682 304.5 126.062C303.17 124.732 301.83 124.732 300.5 126.062C301.75 132.962 302.08 139.962 301.5 147.062C297.58 153.232 293.91 159.562 290.5 166.062C289.23 160.922 287.57 155.922 285.5 151.062C284.14 150.182 282.64 149.852 281 150.062C283.29 157.222 284.96 164.552 286 172.062C285.03 178.972 282.7 185.302 279 191.062C278.34 189.192 277.67 187.192 277 185.062C275.76 185.812 274.43 186.142 273 186.062C273.25 181.172 272.92 176.342 272 171.562C274.7 167.882 275.7 163.712 275 159.062C274.97 153.352 275.47 147.682 276.5 142.062C278.16 133.152 282.99 130.482 291 134.062C291.88 137.072 292.88 137.402 294 135.062C293.83 128.722 294 122.382 294.5 116.062C295.52 113.872 297.02 112.212 299 111.062C301.57 110.002 304.24 109.842 307 110.562C309.53 112.592 312.2 114.422 315 116.062C318.44 112.702 321.77 109.202 325 105.562C333.89 104.462 337.06 108.302 334.5 117.062C333.86 119.322 333.02 121.492 332 123.562C334.92 125.092 337.92 126.422 341 127.562C344.82 132.192 344.99 137.032 341.5 142.062C337.43 145.682 333.26 149.182 329 152.562C329.23 152.962 329.56 153.132 330 153.062Z" fill="#85D656"/>
<path fill-rule="evenodd" clip-rule="evenodd" d="M215 136.062C217.43 139.002 220.1 141.832 223 144.562C214.09 143.972 210.09 148.142 211 157.062C208.54 155.102 206.2 152.932 204 150.562C202.33 149.892 200.67 149.892 199 150.562C198.48 151.122 198.14 151.792 198 152.562C199.09 156.992 201.09 160.992 204 164.562C199.33 164.892 194.67 165.232 190 165.562C189.12 166.922 188.79 168.422 189 170.062C194.68 169.892 200.34 170.062 206 170.562C207.83 170.832 209.33 171.672 210.5 173.062C214.12 178.142 217.62 183.312 221 188.562C216.01 189.062 211.01 189.232 206 189.062C205.83 190.382 206.16 191.552 207 192.562C213.14 192.772 219.14 193.772 225 195.562C228.66 201.062 231.66 206.892 234 213.062C224.63 213.292 215.29 212.792 206 211.562C200.57 211.172 195.74 209.332 191.5 206.062C189.37 197.492 191.87 190.652 199 185.562C195.53 182.992 191.87 180.652 188 178.562C180.92 173.652 179.09 167.152 182.5 159.062C184.34 156.382 186.84 154.712 190 154.062C187.63 149.512 185.46 144.852 183.5 140.062C181.67 132.912 183.83 127.412 190 123.562C191.67 122.892 193.33 122.892 195 123.562C202.22 127.782 207.72 133.612 211.5 141.062C212.68 139.362 213.84 137.702 215 136.062Z" fill="#73B84A"/>
<path fill-rule="evenodd" clip-rule="evenodd" d="M291 134.062C292.11 134.122 293.11 134.452 294 135.062C292.88 137.402 291.88 137.072 291 134.062Z" fill="#AB4152"/>
<path fill-rule="evenodd" clip-rule="evenodd" d="M297 218.062C299.2 214.832 301.54 211.672 304 208.562C311.72 207.542 319.22 205.712 326.5 203.062C327.41 200.642 326.58 199.312 324 199.062C319.03 200.722 314.03 201.892 309 202.562C312.29 197.612 315.95 192.942 320 188.562C326.5 186.722 332.66 184.222 338.5 181.062C339.04 179.092 338.2 178.092 336 178.062C332.33 179.562 328.66 180.732 325 181.562C326.47 178.512 328.3 175.682 330.5 173.062C331.24 171.812 331.07 170.812 330 170.062C333.95 164.332 333.95 158.662 330 153.062C332.81 150.752 335.98 149.092 339.5 148.062C341.91 148.262 343.91 149.262 345.5 151.062C345.37 158.122 342.87 164.292 338 169.562C340.54 170.652 343.21 171.322 346 171.562C351.15 174.892 352.31 179.392 349.5 185.062C345.37 189.342 340.54 192.682 335 195.062C336.11 196.172 336.78 197.502 337 199.062C335.97 202.262 334.3 205.092 332 207.562C321.25 214.202 309.59 217.702 297 218.062Z" fill="#74B84B"/>
<path fill-rule="evenodd" clip-rule="evenodd" d="M279 191.062C277.46 195.822 275.62 200.482 273.5 205.062C273 198.742 272.83 192.402 273 186.062C274.43 186.142 275.76 185.812 277 185.062C277.67 187.192 278.34 189.192 279 191.062Z" fill="#F8F2F3"/>
<path fill-rule="evenodd" clip-rule="evenodd" d="M260 187.062C260.89 187.672 261.89 188.002 263 188.062C263.16 190.422 263 192.752 262.5 195.062C261.56 192.412 260.73 189.742 260 187.062Z" fill="#F5E4E9"/>
<path fill-rule="evenodd" clip-rule="evenodd" d="M250 190.062C251.4 197.682 251.9 205.342 251.5 213.062C249.13 209.652 247.3 205.982 246 202.062C246.66 198.092 247 194.092 247 190.062C248 190.062 249 190.062 250 190.062Z" fill="#F5F0EE"/>
<path fill-rule="evenodd" clip-rule="evenodd" d="M286 203.062C285.84 205.752 286 208.412 286.5 211.062C286.88 211.622 287.38 211.952 288 212.062C286.01 214.702 284.01 217.362 282 220.062C281.67 219.562 281.33 219.062 281 218.562C282.74 213.302 284.41 208.132 286 203.062Z" fill="#F4E5E8"/>
<path fill-rule="evenodd" clip-rule="evenodd" d="M311 320.062C307.58 318.152 304.58 315.652 302 312.562C293.98 308.772 285.64 305.772 277 303.562C274.33 302.892 271.67 302.892 269 303.562C254.96 312.692 251.13 325.192 257.5 341.062C264.31 347.812 272.48 350.312 282 348.562C285.77 347.262 288.94 345.092 291.5 342.062C296.14 335.792 298.81 328.792 299.5 321.062C304.09 324.992 309.26 326.662 315 326.062C317.55 340.912 313.55 353.742 303 364.562C288.85 369.962 274.19 372.462 259 372.062C242.46 371.742 226.13 369.902 210 366.562C186.44 358.892 177.11 343.052 182 319.062C184.64 316.592 187.48 314.262 190.5 312.062C186.93 324.252 190.09 334.412 200 342.562C218.02 346.692 229.35 339.862 234 322.062C232.38 317.042 230.88 312.042 229.5 307.062C225.69 301.992 220.53 299.162 214 298.562C210.35 298.062 206.68 297.892 203 298.062C220.57 288.242 239.23 285.742 259 290.562C270.57 294.302 281.9 298.642 293 303.562C297.28 306.182 301.28 309.182 305 312.562C307.62 314.672 309.62 317.172 311 320.062Z" fill="#F9F7F8"/>
<path fill-rule="evenodd" clip-rule="evenodd" d="M155 330.061C156.72 334.461 157.72 339.121 158 344.061C142.61 335.171 129.95 323.341 120 308.561C115.97 307.521 112.14 306.021 108.5 304.061C107.68 301.861 108.18 300.031 110 298.561C113.67 298.281 117.34 298.451 121 299.061C120.64 292.561 123.14 290.891 128.5 294.061C128.64 298.181 129.31 302.181 130.5 306.061C137.21 315.601 145.38 323.601 155 330.061Z" fill="#262626"/>
<path fill-rule="evenodd" clip-rule="evenodd" d="M203 298.061C206.68 297.891 210.35 298.061 214 298.561C220.53 299.161 225.69 301.991 229.5 307.061C230.88 312.041 232.38 317.041 234 322.061C229.35 339.861 218.02 346.691 200 342.561C190.09 334.411 186.93 324.251 190.5 312.061C187.48 314.261 184.64 316.591 182 319.061C180 319.061 178 319.061 176 319.061C175.84 316.701 176 314.371 176.5 312.061C183.64 304.281 192.48 299.621 203 298.061Z" fill="#060505"/>
<path fill-rule="evenodd" clip-rule="evenodd" d="M311 320.062C313.54 321.272 314.88 323.272 315 326.062C309.26 326.662 304.09 324.992 299.5 321.062C298.81 328.792 296.14 335.792 291.5 342.062C288.94 345.092 285.77 347.262 282 348.562C272.48 350.312 264.31 347.812 257.5 341.062C251.13 325.192 254.96 312.692 269 303.562C271.67 302.892 274.33 302.892 277 303.562C285.64 305.772 293.98 308.772 302 312.562C304.58 315.652 307.58 318.152 311 320.062Z" fill="#050505"/>
<path fill-rule="evenodd" clip-rule="evenodd" d="M358 344.062C351.08 349.132 343.75 353.632 336 357.562C334 358.232 332 358.232 330 357.562C329.44 356.842 329.11 356.002 329 355.062C330.7 352.362 332.7 349.862 335 347.562C336.67 347.232 338.33 346.892 340 346.562C347.47 341.582 354.47 336.082 361 330.062C364.25 328.322 367.08 325.982 369.5 323.062C370.95 319.652 372.79 316.482 375 313.562C371.63 310.432 371.3 307.092 374 303.562C375.33 302.892 376.67 302.892 378 303.562C379.42 305.662 380.76 307.832 382 310.062C384.46 308.342 387.12 307.842 390 308.562C391.07 309.302 391.74 310.302 392 311.562C389.63 315.922 385.97 318.592 381 319.562C374.9 329.162 367.24 337.332 358 344.062Z" fill="#262626"/>
<path fill-rule="evenodd" clip-rule="evenodd" d="M215 307.061C224.77 306.581 227.61 310.911 223.5 320.061C216.73 326.361 212.23 325.201 210 316.561C210.74 312.921 212.4 309.761 215 307.061Z" fill="#F7F7F7"/>
<path fill-rule="evenodd" clip-rule="evenodd" d="M269 309.061C273.7 308.431 276.36 310.431 277 315.061C275.73 317.871 274.9 320.871 274.5 324.061C271.1 326.641 267.76 326.641 264.5 324.061C262.87 322.111 261.7 319.941 261 317.561C261.17 316.731 261.33 315.891 261.5 315.061C263.66 312.441 266.16 310.441 269 309.061Z" fill="#F5F5F5"/>
<path fill-rule="evenodd" clip-rule="evenodd" d="M254 350.062C256.63 349.852 258.29 351.022 259 353.562C256.72 356.852 254.05 359.852 251 362.562C248.67 363.232 246.33 363.232 244 362.562C240.88 360.592 237.72 358.752 234.5 357.062C233.34 353.992 234.34 352.332 237.5 352.062C241 353.062 244.17 354.722 247 357.062C249.69 355.042 252.02 352.712 254 350.062Z" fill="#0B0B0B"/>
<path fill-rule="evenodd" clip-rule="evenodd" d="M209 400.062C212.81 400.622 215.48 402.622 217 406.062C214.51 411.712 212.01 417.372 209.5 423.062C208.65 429.832 207.32 436.502 205.5 443.062C203.99 445.442 201.82 446.442 199 446.062C193.82 444.812 188.82 442.972 184 440.562C180.45 436.832 180.12 432.832 183 428.562C185 427.892 187 427.892 189 428.562C190.99 430.562 193.33 432.062 196 433.062C199.52 421.702 203.85 410.702 209 400.062Z" fill="#262626"/>
<path fill-rule="evenodd" clip-rule="evenodd" d="M296 407.062C297.64 412.532 298.8 418.202 299.5 424.062C303.38 432.102 306.21 440.432 308 449.062C307.28 451.292 305.95 453.122 304 454.562C301.33 456.562 298.67 458.562 296 460.562C290.14 463.552 286.14 462.052 284 456.062C284.91 451.652 287.57 449.152 292 448.562C293.62 447.262 294.96 445.762 296 444.062C292.3 433.632 289.63 422.962 288 412.062C290.03 409.382 292.7 407.712 296 407.062Z" fill="#262626"/>
</svg>
