<svg width="500" height="500" viewBox="0 0 500 500" fill="none" xmlns="http://www.w3.org/2000/svg">
<path fill-rule="evenodd" clip-rule="evenodd" d="M399 204.062C397.53 206.916 395.36 209.25 392.5 211.062C392.19 214.595 391.36 217.929 390 221.062C389.67 224.062 391 225.395 394 225.062C396.81 224.588 399.14 223.255 401 221.062C403.39 246.009 404.23 271.009 403.5 296.062C401.69 315.171 395.69 332.838 385.5 349.062C376.57 361.272 367.4 373.272 358 385.062C351 385.485 344 385.985 337 386.562C335.1 388.37 334.6 390.537 335.5 393.062C338.06 395.186 340.9 396.52 344 397.062C336.38 402.168 328.38 406.668 320 410.562C312.71 423.852 302.71 434.518 290 442.562C278.45 446.325 267.45 444.991 257 438.562C250.98 433.539 245.31 428.206 240 422.562C228.63 421.662 218.3 417.995 209 411.562C206.77 409.499 204.77 407.333 203 405.062C202.35 403.421 201.35 402.088 200 401.062C196.9 398.67 193.57 396.504 190 394.562C180.93 385.946 171.76 377.446 162.5 369.062C155.75 357.893 148.75 346.893 141.5 336.062C136.35 315.8 131.35 295.467 126.5 275.062C125.63 262.074 125.13 249.074 125 236.062C126.54 235.002 127.54 233.502 128 231.562C127.18 229.762 126.51 227.928 126 226.062C126.46 220.259 127.63 214.592 129.5 209.062C137.01 191.705 143.68 174.039 149.5 156.062C153.05 149.18 157.39 142.846 162.5 137.062C164.5 133.062 166.5 129.062 168.5 125.062C179.26 115.339 191.26 107.339 204.5 101.062C210.69 92.2118 215.02 82.5458 217.5 72.0618C223.36 60.5368 232.19 52.0368 244 46.5618C253.74 43.7588 262.41 45.7588 270 52.5618C277.75 64.0708 285.75 75.4038 294 86.5618C300.24 88.0138 305.57 91.0138 310 95.5618C322.69 99.9188 333.52 107.086 342.5 117.062C350.88 126.437 358.88 136.104 366.5 146.062C371.2 151.096 376.2 155.762 381.5 160.062C386.33 166.388 390.66 173.054 394.5 180.062C396.96 187.892 398.46 195.892 399 204.062Z" fill="#8BC34A"/>
<path fill-rule="evenodd" clip-rule="evenodd" d="M401 221.061C399.14 223.254 396.81 224.587 394 225.061C391 225.394 389.67 224.061 390 221.061C391.36 217.928 392.19 214.594 392.5 211.061C395.36 209.249 397.53 206.915 399 204.061C400.81 202.654 402.81 201.487 405 200.561C414.73 190.839 422.9 180.006 429.5 168.061C430.25 166.926 430.08 165.926 429 165.061C425.89 163.086 423.06 160.753 420.5 158.061C419.86 153.412 420.7 149.079 423 145.061C427.41 144.208 431.08 145.708 434 149.561C436.44 150.864 438.94 152.031 441.5 153.061C446.04 151.708 450.2 149.708 454 147.061C456.45 147.675 458.11 149.175 459 151.561C457.04 159.189 452.21 163.689 444.5 165.061C438.97 179.132 431.63 192.132 422.5 204.061C415.46 209.942 408.29 215.608 401 221.061Z" fill="#060606"/>
<path fill-rule="evenodd" clip-rule="evenodd" d="M126 226.062C126.51 227.928 127.18 229.762 128 231.562C127.54 233.502 126.54 235.002 125 236.062C121.52 237.82 117.86 238.32 114 237.562C105.54 235.333 97.54 231.999 90 227.562C78.99 217.218 68.66 206.218 59 194.562C54.18 193.82 49.51 192.487 45 190.562C40.72 187.823 40.05 184.489 43 180.562C49.11 182.081 54.78 181.081 60 177.562C64.14 173.6 67.81 169.266 71 164.562C73.99 163.694 76.99 163.361 80 163.562C81.72 164.337 82.72 165.67 83 167.562C80.12 173.144 76.62 178.311 72.5 183.062C71.83 184.062 71.83 185.062 72.5 186.062C79.25 191.555 84.59 198.221 88.5 206.062C90.72 208.583 93.22 210.75 96 212.562C106.08 216.974 116.08 221.474 126 226.062Z" fill="#050505"/>
<path fill-rule="evenodd" clip-rule="evenodd" d="M365 209.062C357.34 206.236 350.01 202.736 343 198.562C331.62 196.201 320.12 194.367 308.5 193.062C304.95 193.203 301.45 193.703 298 194.562C285.94 201.505 280.28 212.005 281 226.062C280.48 237.835 284.14 248.002 292 256.562C295.45 258.489 299.11 259.823 303 260.562C310.36 261.093 317.69 261.427 325 261.562C327.21 258.777 329.88 256.444 333 254.562C336.03 252.003 338.2 248.836 339.5 245.062C342.37 237.605 344.54 229.938 346 222.062C345.17 219.083 344.5 216.083 344 213.062C349.61 215.854 355.61 217.521 362 218.062C363.8 217.66 365.47 216.993 367 216.062C368.91 233.23 365.41 249.23 356.5 264.062C349.45 279.783 338.28 291.617 323 299.562C292.9 310.717 261.9 314.717 230 311.562C209.25 305.473 193.08 293.306 181.5 275.062C172.22 268.504 167.05 259.504 166 248.062C168.49 248.264 170.82 247.764 173 246.562C177.2 242.695 181.03 238.529 184.5 234.062C183.58 239.776 183.92 245.442 185.5 251.062C188.1 255.268 190.44 259.601 192.5 264.062C205.3 277.111 219.46 278.611 235 268.562C242.6 261.535 247.76 253.035 250.5 243.062C251.14 234.004 248.14 226.338 241.5 220.062C239.88 212.302 235.05 207.802 227 206.562C212.21 203.846 198.54 206.512 186 214.562C180.84 218.228 175.84 222.061 171 226.062C173.81 206.314 183.81 191.147 201 180.562C208.59 176.697 216.59 174.03 225 172.562C239.08 171.549 253.08 169.883 267 167.562C285.83 166.728 304.5 168.062 323 171.562C343.19 177.255 357.19 189.755 365 209.062Z" fill="#FCFDFC"/>
<path fill-rule="evenodd" clip-rule="evenodd" d="M365 209.062C365.62 209.173 366.12 209.506 366.5 210.062C367 212.035 367.16 214.035 367 216.062C365.47 216.993 363.8 217.66 362 218.062C355.61 217.521 349.61 215.854 344 213.062C344.5 216.083 345.17 219.083 346 222.062C344.54 229.938 342.37 237.605 339.5 245.062C338.2 248.836 336.03 252.003 333 254.562C329.88 256.444 327.21 258.777 325 261.562C317.69 261.427 310.36 261.093 303 260.562C299.11 259.823 295.45 258.489 292 256.562C284.14 248.002 280.48 237.835 281 226.062C280.28 212.005 285.94 201.505 298 194.562C301.45 193.703 304.95 193.203 308.5 193.062C320.12 194.367 331.62 196.201 343 198.562C350.01 202.736 357.34 206.236 365 209.062Z" fill="#040404"/>
<path fill-rule="evenodd" clip-rule="evenodd" d="M299 203.061C304.31 202.301 308.15 204.301 310.5 209.061C310.61 214.061 310.28 219.061 309.5 224.061C305.8 228.833 300.97 230.333 295 228.561C292.87 225.758 290.71 222.925 288.5 220.061C287.7 216.85 288.2 213.85 290 211.061C293.37 208.686 296.37 206.019 299 203.061Z" fill="#F3F3F3"/>
<path fill-rule="evenodd" clip-rule="evenodd" d="M165.999 248.061C164.009 244.702 163.509 241.036 164.499 237.061C166.919 233.49 169.089 229.823 170.999 226.061C175.839 222.06 180.839 218.227 185.999 214.561C198.539 206.511 212.209 203.845 226.999 206.561C235.049 207.801 239.879 212.301 241.499 220.061C248.139 226.337 251.139 234.003 250.499 243.061C247.759 253.034 242.599 261.534 234.999 268.561C219.459 278.61 205.299 277.11 192.499 264.061C190.439 259.6 188.099 255.267 185.499 251.061C183.919 245.441 183.579 239.775 184.499 234.061C181.029 238.528 177.199 242.694 172.999 246.561C170.819 247.763 168.489 248.263 165.999 248.061Z" fill="#040404"/>
<path fill-rule="evenodd" clip-rule="evenodd" d="M223 216.062C233.13 216.633 237.3 221.967 235.5 232.062C233.71 237.788 230.05 241.788 224.5 244.062C217.88 242.276 214.38 237.942 214 231.062C214.25 224.235 217.25 219.235 223 216.062Z" fill="#F6F6F6"/>
<path fill-rule="evenodd" clip-rule="evenodd" d="M288 268.061C292.23 267.303 294.9 268.97 296 273.061C293.66 278.567 290.66 283.734 287 288.561C282.79 290.095 278.46 290.428 274 289.561C269.49 287.548 264.99 285.714 260.5 284.061C259.46 280.925 260.29 278.425 263 276.561C269.04 277.353 275.04 278.353 281 279.561C283.47 275.783 285.8 271.95 288 268.061Z" fill="#0D0D0D"/>
<path fill-rule="evenodd" clip-rule="evenodd" d="M358 385.062C377.62 388.705 394.62 397.372 409 411.062C412.47 404.282 416.81 398.116 422 392.562C426.27 390.44 429.44 391.607 431.5 396.062C433.97 407.971 430.13 417.471 420 424.562C417.6 425.273 415.27 425.106 413 424.062C407.73 429.909 404.4 428.909 403 421.062C401.19 421.071 399.52 420.571 398 419.562C391.05 411.409 382.38 405.743 372 402.562C362.8 399.077 353.47 397.243 344 397.062C340.9 396.52 338.06 395.186 335.5 393.062C334.6 390.537 335.1 388.37 337 386.562C344 385.985 351 385.485 358 385.062Z" fill="#050505"/>
<path fill-rule="evenodd" clip-rule="evenodd" d="M200 401.062C201.35 402.088 202.35 403.421 203 405.062C203.15 406.114 202.98 407.114 202.5 408.062C200.29 409.935 198.46 412.102 197 414.562C182.05 419.535 168.39 426.868 156 436.562C152.61 440.439 148.95 444.106 145 447.562C142.53 449.656 139.86 450.156 137 449.062C134.02 454.765 130.19 455.432 125.5 451.062C121.43 443.974 117.76 436.64 114.5 429.062C113.6 426.537 114.1 424.37 116 422.562C118.59 421.248 121.26 420.581 124 420.562C129.42 425.593 134.26 431.093 138.5 437.062C149.83 421.134 164.67 409.634 183 402.562C188.59 401.273 194.26 400.773 200 401.062Z" fill="#060606"/>
</svg>
