<svg width="500" height="500" viewBox="0 0 500 500" fill="none" xmlns="http://www.w3.org/2000/svg">
<path fill-rule="evenodd" clip-rule="evenodd" d="M301.999 366.062C301.619 361.522 300.449 357.192 298.499 353.062C294.479 351.242 292.309 352.572 291.999 357.062C293.409 361.282 294.079 365.612 293.999 370.062C286.539 371.172 279.209 372.172 271.999 373.062C270.209 372.932 268.539 373.262 266.999 374.062C253.919 375.702 240.919 375.372 227.999 373.062C225.479 372.372 222.979 371.372 220.499 370.062C220.099 370.292 219.929 370.622 219.999 371.062C208.909 369.312 198.569 365.472 188.999 359.562C170.719 348.612 154.219 335.452 139.499 320.062C134.569 311.862 129.899 303.522 125.499 295.062C121.679 280.102 118.009 265.102 114.499 250.062C109.269 221.322 114.939 194.992 131.499 171.062C138.409 162.242 145.079 153.242 151.499 144.062C157.389 137.662 164.219 132.662 171.999 129.062C182.509 119.632 194.509 112.462 207.999 107.562C222.639 104.982 237.139 101.812 251.499 98.0615C273.479 98.1015 294.309 102.932 313.999 112.562C324.399 119.952 335.059 126.952 345.999 133.562C357.609 147.602 368.109 162.442 377.499 178.062C380.189 188.812 383.189 199.482 386.499 210.062C387.539 216.172 388.039 222.342 387.999 228.562C386.629 246.452 384.799 264.292 382.499 282.062C374.859 303.832 362.359 322.332 344.999 337.562C337.249 345.312 328.919 352.312 319.999 358.562C314.089 361.352 308.089 363.852 301.999 366.062Z" fill="#FABD81"/>
<path fill-rule="evenodd" clip-rule="evenodd" d="M209.999 355.062C212.809 354.242 215.809 353.742 218.999 353.562C220.319 352.742 220.989 351.582 220.999 350.062C230.529 350.402 237.859 354.572 242.999 362.562C252.649 365.512 261.649 364.182 269.999 358.562C276.819 353.312 283.819 348.312 290.999 343.562C309.599 345.022 323.099 337.522 331.499 321.062C339.519 312.042 347.859 303.372 356.499 295.062C357.089 284.612 360.089 274.942 365.499 266.062C365.609 258.722 365.609 251.392 365.499 244.062C368.519 240.972 371.189 237.642 373.499 234.062C374.019 230.012 373.679 226.012 372.499 222.062C369.809 213.672 365.809 206.002 360.499 199.062C356.769 190.102 355.099 180.772 355.499 171.062C353.389 166.962 350.559 163.462 346.999 160.562C343.429 159.082 339.759 157.752 335.999 156.562C330.559 149.782 325.059 142.942 319.499 136.062C316.759 133.772 313.919 131.612 310.999 129.562C302.669 129.232 294.329 128.892 285.999 128.562C281.159 125.962 276.829 122.632 272.999 118.562C266.339 114.612 259.339 113.942 251.999 116.562C246.639 118.152 241.639 120.482 236.999 123.562C235.759 124.712 234.759 126.052 233.999 127.562C220.409 129.472 206.749 130.802 192.999 131.562C188.359 132.652 183.689 133.652 178.999 134.562C175.089 136.812 172.249 139.972 170.499 144.062C168.609 153.282 165.939 162.282 162.499 171.062C155.499 178.732 148.499 186.392 141.499 194.062C130.109 210.742 128.109 228.412 135.499 247.062C135.829 254.392 136.169 261.732 136.499 269.062C142.089 284.832 147.089 300.832 151.499 317.062C155.079 319.932 158.909 322.432 162.999 324.562C169.799 325.352 176.459 326.682 182.999 328.562C189.169 334.142 195.829 338.972 202.999 343.062C202.819 345.152 203.149 347.152 203.999 349.062C202.649 350.512 200.979 351.182 198.999 351.062C191.659 346.902 184.999 341.742 178.999 335.562C163.719 335.502 151.219 329.672 141.499 318.062C141.169 314.062 140.829 310.062 140.499 306.062C137.029 295.332 133.369 284.662 129.499 274.062C128.379 265.772 127.709 257.442 127.499 249.062C119.719 228.262 122.049 208.592 134.499 190.062C141.469 182.422 148.469 174.752 155.499 167.062C158.209 159.172 160.539 151.172 162.499 143.062C164.469 137.422 167.629 132.762 171.999 129.062C175.269 127.802 178.609 126.642 181.999 125.562C191.879 123.932 201.709 122.102 211.499 120.062C215.149 121.912 218.979 122.412 222.999 121.562C231.859 116.962 240.859 112.632 249.999 108.562C257.369 106.862 264.709 106.862 271.999 108.562C277.329 112.562 282.669 116.562 287.999 120.562C297.039 120.802 306.039 121.462 314.999 122.562C322.649 128.012 329.319 134.512 334.999 142.062C338.769 143.492 341.099 146.162 341.999 150.062C345.069 151.952 348.399 153.122 351.999 153.562C356.439 157.942 360.269 162.772 363.499 168.062C363.179 177.402 364.509 186.402 367.499 195.062C374.569 204.212 379.239 214.542 381.499 226.062C382.169 229.392 382.169 232.732 381.499 236.062C378.469 239.832 375.799 243.832 373.499 248.062C375.659 259.512 373.659 270.182 367.499 280.062C366.859 288.632 364.519 296.632 360.499 304.062C350.399 311.832 342.059 321.162 335.499 332.062C324.679 345.722 310.509 352.222 292.999 351.562C283.519 359.472 273.179 366.142 261.999 371.562C248.689 375.232 238.029 371.562 229.999 360.562C223.309 358.772 216.639 356.942 209.999 355.062Z" fill="#FEADCC"/>
<path fill-rule="evenodd" clip-rule="evenodd" d="M220.999 350.062C218.879 347.002 215.879 345.502 211.999 345.562C209.679 342.132 206.679 341.302 202.999 343.062C195.829 338.972 189.169 334.142 182.999 328.562C176.459 326.682 169.799 325.352 162.999 324.562C158.909 322.432 155.079 319.932 151.499 317.062C147.089 300.832 142.089 284.832 136.499 269.062C136.169 261.732 135.829 254.392 135.499 247.062C128.109 228.412 130.109 210.742 141.499 194.062C148.499 186.392 155.499 178.732 162.499 171.062C165.939 162.282 168.609 153.282 170.499 144.062C172.249 139.972 175.089 136.812 178.999 134.562C183.689 133.652 188.359 132.652 192.999 131.562C206.749 130.802 220.409 129.472 233.999 127.562C234.759 126.052 235.759 124.712 236.999 123.562C241.639 120.482 246.639 118.152 251.999 116.562C259.339 113.942 266.339 114.612 272.999 118.562C276.829 122.632 281.159 125.962 285.999 128.562C294.329 128.892 302.669 129.232 310.999 129.562C313.919 131.612 316.759 133.772 319.499 136.062C325.059 142.942 330.559 149.782 335.999 156.562C339.759 157.752 343.429 159.082 346.999 160.562C350.559 163.462 353.389 166.962 355.499 171.062C355.099 180.772 356.769 190.102 360.499 199.062C365.809 206.002 369.809 213.672 372.499 222.062C373.679 226.012 374.019 230.012 373.499 234.062C371.189 237.642 368.519 240.972 365.499 244.062C365.609 251.392 365.609 258.722 365.499 266.062C360.089 274.942 357.089 284.612 356.499 295.062C347.859 303.372 339.519 312.042 331.499 321.062C323.099 337.522 309.599 345.022 290.999 343.562C283.819 348.312 276.819 353.312 269.999 358.562C261.649 364.182 252.649 365.512 242.999 362.562C237.859 354.572 230.529 350.402 220.999 350.062Z" fill="#FEC6E0"/>
<path fill-rule="evenodd" clip-rule="evenodd" d="M273.999 128.062C279.069 128.142 281.399 130.812 280.999 136.062C280.409 140.032 278.239 141.032 274.499 139.062C271.579 135.382 271.409 131.712 273.999 128.062Z" fill="#92EA5F"/>
<path fill-rule="evenodd" clip-rule="evenodd" d="M233.999 133.062C235.429 132.982 236.759 133.312 237.999 134.062C240.639 137.872 243.479 141.542 246.499 145.062C247.119 150.272 244.959 151.932 239.999 150.062C236.379 146.322 233.379 142.152 230.999 137.562C231.459 135.622 232.459 134.122 233.999 133.062Z" fill="#F7E91F"/>
<path fill-rule="evenodd" clip-rule="evenodd" d="M306.999 137.061C311.999 136.231 314.169 138.231 313.499 143.061C311.089 147.481 307.919 151.311 303.999 154.561C298.999 155.891 296.839 154.061 297.499 149.061C301.669 145.741 304.839 141.741 306.999 137.061Z" fill="#F7E91C"/>
<path fill-rule="evenodd" clip-rule="evenodd" d="M184.999 139.062C186.699 138.902 188.369 139.072 189.999 139.562C190.579 140.452 190.909 141.452 190.999 142.562C190.309 145.102 189.479 147.602 188.499 150.062C184.999 152.902 182.499 152.062 180.999 147.562C181.679 144.372 183.009 141.532 184.999 139.062Z" fill="#FCFAFB"/>
<path fill-rule="evenodd" clip-rule="evenodd" d="M263.999 142.061C266.489 141.891 268.329 142.891 269.499 145.061C270.289 148.651 270.119 152.151 268.999 155.561C266.469 156.461 264.309 155.961 262.499 154.061C261.489 149.761 261.989 145.761 263.999 142.061Z" fill="#FF817D"/>
<path fill-rule="evenodd" clip-rule="evenodd" d="M196.999 156.062C199.289 155.802 201.459 156.142 203.499 157.062C204.169 160.732 204.169 164.392 203.499 168.062C201.169 170.732 198.829 170.732 196.499 168.062C195.739 163.972 195.899 159.972 196.999 156.062Z" fill="#FF817D"/>
<path fill-rule="evenodd" clip-rule="evenodd" d="M232.999 160.062C234.699 159.902 236.369 160.072 237.999 160.562C240.499 163.062 242.999 165.562 245.499 168.062C246.329 172.562 244.499 174.392 239.999 173.562C237.499 171.062 234.999 168.562 232.499 166.062C231.819 163.962 231.989 161.962 232.999 160.062Z" fill="#FCFAFB"/>
<path fill-rule="evenodd" clip-rule="evenodd" d="M335.999 161.062C337.699 160.902 339.369 161.072 340.999 161.562C342.779 165.002 344.939 168.172 347.499 171.062C348.329 175.562 346.499 177.392 341.999 176.562C339.499 173.392 336.999 170.232 334.499 167.062C333.749 164.722 334.249 162.722 335.999 161.062Z" fill="#FCF9FA"/>
<path fill-rule="evenodd" clip-rule="evenodd" d="M168.999 166.061C176.789 165.851 179.789 169.511 177.999 177.061C176.329 178.391 174.669 178.391 172.999 177.061C171.959 174.971 170.459 173.311 168.499 172.061C167.819 169.961 167.989 167.961 168.999 166.061Z" fill="#B56CFE"/>
<path fill-rule="evenodd" clip-rule="evenodd" d="M318.999 171.062C321.689 170.902 324.349 171.062 326.999 171.562C328.709 172.692 329.209 174.192 328.499 176.062C325.429 177.632 322.259 179.132 318.999 180.562C314.519 180.722 313.019 178.562 314.499 174.062C316.149 173.162 317.649 172.162 318.999 171.062Z" fill="#FF817D"/>
<path fill-rule="evenodd" clip-rule="evenodd" d="M286.999 174.062C289.689 173.902 292.349 174.062 294.999 174.562C297.579 176.682 297.579 178.852 294.999 181.062C290.189 182.162 285.359 183.162 280.499 184.062C275.559 184.792 273.899 182.792 275.499 178.062C275.999 177.562 276.499 177.062 276.999 176.562C280.539 176.032 283.869 175.192 286.999 174.062Z" fill="#3B96FD"/>
<path fill-rule="evenodd" clip-rule="evenodd" d="M218.999 180.061C222.559 179.971 225.889 180.801 228.999 182.561C230.969 186.301 229.969 188.471 225.999 189.061C219.359 189.111 217.029 186.111 218.999 180.061Z" fill="#B46AFE"/>
<path fill-rule="evenodd" clip-rule="evenodd" d="M335.998 186.061C340.498 185.721 342.328 187.721 341.498 192.061C337.678 194.221 333.848 196.391 329.998 198.561C324.828 200.061 322.998 198.231 324.498 193.061C328.008 190.061 331.848 187.731 335.998 186.061Z" fill="#91EA5E"/>
<path fill-rule="evenodd" clip-rule="evenodd" d="M238.999 192.062C259.109 190.812 275.949 197.482 289.499 212.062C292.349 219.022 295.679 225.682 299.499 232.062C300.649 237.362 300.979 242.692 300.499 248.062C296.529 272.712 282.199 285.042 257.499 285.062C236.629 287.292 220.629 279.622 209.499 262.062C203.109 242.452 205.279 223.952 215.999 206.562C223.079 200.622 230.749 195.782 238.999 192.062Z" fill="#FEADCC"/>
<path fill-rule="evenodd" clip-rule="evenodd" d="M155.999 196.062C160.229 195.122 162.729 196.792 163.499 201.062C165.539 204.462 165.369 207.622 162.999 210.562C160.799 211.382 158.969 210.882 157.499 209.062C155.239 204.852 154.739 200.522 155.999 196.062Z" fill="#93EA60"/>
<path fill-rule="evenodd" clip-rule="evenodd" d="M185.999 197.062C187.369 196.902 188.709 197.072 189.999 197.562C193.319 200.482 195.149 203.982 195.499 208.062C194.029 209.882 192.199 210.382 189.999 209.562C186.989 207.392 184.989 204.562 183.999 201.062C184.249 199.492 184.919 198.152 185.999 197.062Z" fill="#F7E91C"/>
<path fill-rule="evenodd" clip-rule="evenodd" d="M240.999 200.061C257.239 199.201 271.079 204.531 282.499 216.061C285.209 222.281 288.209 228.281 291.499 234.061C294.039 247.421 290.869 259.251 281.999 269.561C278.239 272.321 274.239 274.661 269.999 276.561C255.789 279.131 242.119 277.471 228.999 271.561C223.369 266.931 218.869 261.431 215.499 255.061C211.449 238.791 214.279 223.951 223.999 210.561C229.129 206.011 234.789 202.511 240.999 200.061Z" fill="#FBBE82"/>
<path fill-rule="evenodd" clip-rule="evenodd" d="M246.999 205.061C252.679 204.891 258.339 205.061 263.999 205.561C268.379 209.611 273.049 213.271 277.999 216.561C283.739 225.221 287.409 234.721 288.999 245.061C287.479 253.431 284.309 261.091 279.499 268.061C271.419 274.421 262.249 276.921 251.999 275.561C218.199 270.781 208.359 252.951 222.499 222.061C225.629 217.931 229.129 214.091 232.999 210.561C237.659 208.401 242.329 206.571 246.999 205.061Z" fill="#FCFBFB"/>
<path fill-rule="evenodd" clip-rule="evenodd" d="M349 219.062C347.89 219.002 346.89 218.672 346 218.062C343.08 217.372 340.08 216.532 337 215.562C334.9 211.172 336.24 208.672 341 208.062C346.63 207.872 350.63 210.202 353 215.062C352.65 217.412 351.32 218.742 349 219.062Z" fill="#F7E922"/>
<path fill-rule="evenodd" clip-rule="evenodd" d="M345.999 218.062C346.889 218.672 347.889 219.002 348.999 219.062C350.749 220.722 351.249 222.722 350.499 225.062C347.299 229.252 343.129 231.082 337.999 230.562C336.289 229.432 335.789 227.932 336.499 226.062C339.859 223.532 343.019 220.862 345.999 218.062Z" fill="#FCF9FB"/>
<path fill-rule="evenodd" clip-rule="evenodd" d="M318.999 219.062C320.049 218.912 321.049 219.082 321.999 219.562C324.649 222.222 327.649 224.382 330.999 226.062C334.049 229.752 333.209 232.092 328.499 233.062C322.959 231.712 318.789 228.542 315.999 223.562C316.459 221.622 317.459 220.122 318.999 219.062Z" fill="#3C96FD"/>
<path fill-rule="evenodd" clip-rule="evenodd" d="M159.999 223.062C162.149 222.932 164.149 223.432 165.999 224.562C167.479 227.002 169.309 229.172 171.499 231.062C172.329 235.562 170.499 237.392 165.999 236.562C163.499 234.062 160.999 231.562 158.499 229.062C157.749 226.722 158.249 224.722 159.999 223.062Z" fill="#FF817E"/>
<path fill-rule="evenodd" clip-rule="evenodd" d="M176.999 237.061C181.999 236.231 184.169 238.231 183.499 243.061C180.449 247.321 177.289 251.481 173.999 255.561C169.499 256.391 167.669 254.561 168.499 250.061C171.559 245.841 174.389 241.511 176.999 237.061Z" fill="#FCFAFB"/>
<path fill-rule="evenodd" clip-rule="evenodd" d="M190.999 245.062C193.219 244.742 195.059 245.402 196.499 247.062C196.919 250.742 197.419 254.402 197.999 258.062C197.669 262.552 195.329 264.052 190.999 262.562C190.369 261.812 189.869 260.982 189.499 260.062C188.449 254.772 188.949 249.772 190.999 245.062Z" fill="#4197FD"/>
<path fill-rule="evenodd" clip-rule="evenodd" d="M334 251.062C338.38 250.912 342.21 252.242 345.5 255.062C346.64 258.422 345.47 260.422 342 261.062C339.56 259.672 336.89 258.832 334 258.562C331.41 256.072 331.41 253.572 334 251.062Z" fill="#FF827E"/>
<path fill-rule="evenodd" clip-rule="evenodd" d="M309.999 252.061C314.819 251.881 316.819 254.211 315.999 259.061C316.199 262.351 315.369 265.351 313.499 268.061C310.069 269.851 307.569 269.011 305.999 265.561C307.209 260.931 308.539 256.431 309.999 252.061Z" fill="#93EA60"/>
<path fill-rule="evenodd" clip-rule="evenodd" d="M145.999 257.061C152.839 256.231 158.339 258.561 162.499 264.061C163.639 267.421 162.469 269.421 158.999 270.061C156.029 269.571 153.689 268.071 151.999 265.561C145.799 265.541 143.799 262.711 145.999 257.061Z" fill="#93EA60"/>
<path fill-rule="evenodd" clip-rule="evenodd" d="M175.999 275.062C179.819 275.382 181.659 277.382 181.499 281.062C179.669 282.892 177.829 284.732 175.999 286.562C170.639 289.452 168.139 287.952 168.499 282.062C171.449 280.092 173.949 277.752 175.999 275.062Z" fill="#F7E921"/>
<path fill-rule="evenodd" clip-rule="evenodd" d="M330 275.062C333.02 274.902 336.02 275.062 339 275.562C341.67 277.892 341.67 280.232 339 282.562C333.63 283.462 328.3 284.122 323 284.562C320.92 282.682 320.59 280.512 322 278.062C324.59 276.642 327.26 275.642 330 275.062Z" fill="#B56BFE"/>
<path fill-rule="evenodd" clip-rule="evenodd" d="M219.999 295.062C219.999 295.392 219.999 295.732 219.999 296.062C217.329 296.392 214.669 296.732 211.999 297.062C207.789 294.182 207.119 290.682 209.999 286.562C211.329 285.892 212.669 285.892 213.999 286.562C215.409 289.812 217.409 292.642 219.999 295.062Z" fill="#B66DFB"/>
<path fill-rule="evenodd" clip-rule="evenodd" d="M293.999 308.061C285.709 302.911 276.709 300.081 266.999 299.561C256.519 306.001 253.349 315.171 257.499 327.061C259.669 330.571 262.839 332.741 266.999 333.561C278.009 335.971 285.179 331.811 288.499 321.061C289.419 318.461 290.089 315.791 290.499 313.061C292.659 315.061 295.159 316.391 297.999 317.061C298.379 328.131 293.709 336.301 283.999 341.561C268.059 346.721 251.729 348.381 234.999 346.561C222.929 347.431 212.429 343.931 203.499 336.061C199.789 328.431 198.949 320.431 200.999 312.061C202.459 311.101 203.789 309.941 204.999 308.561C205.829 307.871 206.499 308.041 206.999 309.061C204.239 325.131 210.909 332.301 226.999 330.561C235.629 326.771 239.799 320.271 239.499 311.061C237.939 308.601 236.939 305.941 236.499 303.061C232.029 298.511 226.529 296.181 219.999 296.061C219.999 295.731 219.999 295.391 219.999 295.061C243.419 288.111 266.089 290.271 287.999 301.561C290.399 303.541 292.399 305.711 293.999 308.061Z" fill="#F8F8F8"/>
<path fill-rule="evenodd" clip-rule="evenodd" d="M302.999 290.061C306.929 289.611 310.089 290.941 312.499 294.061C314.529 296.791 316.029 299.791 316.999 303.061C316.359 306.531 314.359 307.701 310.999 306.561C308.429 302.271 305.259 298.431 301.499 295.061C300.889 293.061 301.389 291.401 302.999 290.061Z" fill="#F7EA18"/>
<path fill-rule="evenodd" clip-rule="evenodd" d="M165.999 292.062C171.189 291.832 176.189 292.672 180.999 294.562C183.249 299.352 181.749 301.512 176.499 301.062C172.979 300.722 169.479 300.222 165.999 299.562C163.409 297.072 163.409 294.572 165.999 292.062Z" fill="#FCFAFB"/>
<path fill-rule="evenodd" clip-rule="evenodd" d="M219.999 296.062C226.529 296.182 232.029 298.512 236.499 303.062C236.939 305.942 237.939 308.602 239.499 311.062C239.799 320.272 235.629 326.772 226.999 330.562C210.909 332.302 204.239 325.132 206.999 309.062C206.499 308.042 205.829 307.872 204.999 308.562C203.789 309.942 202.459 311.102 200.999 312.062C199.459 312.862 197.789 313.192 195.999 313.062C195.519 308.022 197.519 304.182 201.999 301.562C205.519 300.152 208.849 298.652 211.999 297.062C214.669 296.732 217.329 296.392 219.999 296.062Z" fill="#080808"/>
<path fill-rule="evenodd" clip-rule="evenodd" d="M293.999 308.062C296.649 310.372 299.309 312.702 301.999 315.062C301.179 316.672 299.849 317.342 297.999 317.062C295.159 316.392 292.659 315.062 290.499 313.062C290.089 315.792 289.419 318.462 288.499 321.062C285.179 331.812 278.009 335.972 266.999 333.562C262.839 332.742 259.669 330.572 257.499 327.062C253.349 315.172 256.519 306.002 266.999 299.562C276.709 300.082 285.709 302.912 293.999 308.062Z" fill="#070707"/>
<path fill-rule="evenodd" clip-rule="evenodd" d="M225.999 303.061C230.579 302.151 232.919 303.991 232.999 308.561C232.059 315.611 228.559 317.451 222.499 314.061C221.159 309.481 222.329 305.811 225.999 303.061Z" fill="#F7F7F7"/>
<path fill-rule="evenodd" clip-rule="evenodd" d="M265.999 304.062C270.029 303.142 272.359 304.642 272.999 308.562C272.579 310.742 272.079 312.912 271.499 315.062C264.389 318.302 261.059 315.962 261.499 308.062C263.169 306.832 264.669 305.492 265.999 304.062Z" fill="#F1F1F1"/>
<path fill-rule="evenodd" clip-rule="evenodd" d="M171.999 307.062C177.919 306.442 182.749 308.442 186.499 313.062C187.639 316.422 186.469 318.422 182.999 319.062C179.789 317.362 176.449 315.862 172.999 314.562C170.789 312.322 170.449 309.822 171.999 307.062Z" fill="#3D97FD"/>
<path fill-rule="evenodd" clip-rule="evenodd" d="M255.999 335.062C258.739 335.632 259.579 337.302 258.499 340.062C256.449 342.452 254.119 344.452 251.499 346.062C248.119 345.022 244.959 343.522 241.999 341.562C241.119 340.202 240.789 338.702 240.999 337.062C244.369 337.332 247.539 338.332 250.499 340.062C252.819 338.912 254.649 337.242 255.999 335.062Z" fill="#111111"/>
<path fill-rule="evenodd" clip-rule="evenodd" d="M198.999 351.062C200.979 351.182 202.649 350.512 203.999 349.062C203.149 347.152 202.819 345.152 202.999 343.062C206.679 341.302 209.679 342.132 211.999 345.562C215.879 345.502 218.879 347.002 220.999 350.062C220.989 351.582 220.319 352.742 218.999 353.562C215.809 353.742 212.809 354.242 209.999 355.062C204.119 358.582 197.789 359.752 190.999 358.562C186.209 355.442 181.709 351.942 177.499 348.062C176.779 342.502 178.949 341.002 183.999 343.562C186.699 346.602 189.699 349.262 192.999 351.562C195.209 352.352 197.209 352.182 198.999 351.062Z" fill="#242424"/>
<path fill-rule="evenodd" clip-rule="evenodd" d="M301.999 366.061C302.939 370.631 303.269 375.301 302.999 380.061C308.479 380.041 310.149 382.541 307.999 387.561C303.919 387.601 300.089 388.431 296.499 390.061C293.289 388.761 292.289 386.431 293.499 383.061C295.359 381.911 296.189 380.251 295.999 378.061C295.699 375.171 295.029 372.511 293.999 370.061C294.079 365.611 293.409 361.281 291.999 357.061C292.309 352.571 294.479 351.241 298.499 353.061C300.449 357.191 301.619 361.521 301.999 366.061Z" fill="#262525"/>
<path fill-rule="evenodd" clip-rule="evenodd" d="M227.999 373.062C228.149 380.542 227.319 387.872 225.499 395.062C219.739 398.012 213.739 398.672 207.499 397.062C207.809 389.272 211.979 385.932 219.999 387.062C219.999 381.732 219.999 376.392 219.999 371.062C219.929 370.622 220.099 370.292 220.499 370.062C222.979 371.372 225.479 372.372 227.999 373.062Z" fill="#272727"/>
<path fill-rule="evenodd" clip-rule="evenodd" d="M271.999 373.062C272.999 373.062 273.999 373.062 274.999 373.062C274.999 379.062 274.999 385.062 274.999 391.062C281.989 389.562 284.829 392.222 283.499 399.062C282.059 400.282 280.399 400.952 278.499 401.062C275.089 400.572 271.759 399.912 268.499 399.062C267.619 390.752 267.119 382.412 266.999 374.062C268.539 373.262 270.209 372.932 271.999 373.062Z" fill="#242424"/>
</svg>
