<svg width="500" height="500" viewBox="0 0 500 500" fill="none" xmlns="http://www.w3.org/2000/svg">
<path fill-rule="evenodd" clip-rule="evenodd" d="M192 136.062C185.323 139.462 178.656 142.962 172 146.562C171.163 147.572 170.83 148.742 171 150.062C169.68 151.502 168.014 152.172 166 152.062C153.99 141.342 151.823 128.682 159.5 114.062C161.64 111.922 163.806 109.752 166 107.562C167.612 106.842 169.112 107.012 170.5 108.062C171.577 121.132 178.411 129.302 191 132.562C191.837 133.572 192.17 134.742 192 136.062Z" fill="#FCEDBE"/>
<path fill-rule="evenodd" clip-rule="evenodd" d="M315 153.062C309.597 149.312 303.597 146.812 297 145.562C295.657 143.332 293.99 141.492 292 140.062C293.35 136.542 296.016 134.702 300 134.562C305.538 129.752 306.372 124.252 302.5 118.062C301.514 115.642 302.181 113.972 304.5 113.062C319.918 117.212 325.585 127.212 321.5 143.062C320.167 145.732 318.833 148.392 317.5 151.062C316.505 151.632 315.672 152.292 315 153.062Z" fill="#FDEDBE"/>
<path fill-rule="evenodd" clip-rule="evenodd" d="M273 132.062C262.094 133.132 255.928 139.132 254.5 150.062C250.275 153.172 246.275 156.502 242.5 160.062C239.798 165.382 240.965 169.552 246 172.562C262.73 172.812 279.397 172.142 296 170.562C297.545 168.742 298.212 166.572 298 164.062C297.824 160.682 297.324 157.342 296.5 154.062C293.301 147.652 289.134 141.992 284 137.062C286.667 138.062 289.333 139.062 292 140.062C293.99 141.492 295.657 143.332 297 145.562C303.597 146.812 309.597 149.312 315 153.062C316.414 154.612 318.081 155.952 320 157.062C326.533 152.822 333.533 151.992 341 154.562C347.567 159.972 354.233 165.142 361 170.062C351.56 169.612 342.226 170.112 333 171.562C336.934 178.282 340.934 184.782 345 191.062C347.067 196.262 348.733 201.592 350 207.062C346.481 204.282 342.481 203.452 338 204.562C331.404 209.152 326.238 214.992 322.5 222.062C321.69 226.822 322.024 231.482 323.5 236.062C327.072 239.972 330.905 243.472 335 246.562C333.047 249.972 331.213 253.472 329.5 257.062C327.366 266.752 331.199 272.082 341 273.062C344.249 271.802 347.249 270.142 350 268.062C345.664 285.912 338.33 302.412 328 317.562C335.301 325.602 344.301 328.272 355 325.562C358.22 324.212 361.553 323.372 365 323.062C366.039 325.092 367.705 326.422 370 327.062C367.7 329.882 364.7 331.722 361 332.562C349.641 335.862 338.308 335.862 327 332.562C324.239 330.342 321.239 329.012 318 328.562C310.358 335.392 302.358 341.562 294 347.062C295.703 355.962 296.703 364.962 297 374.062C287.692 375.062 278.359 375.722 269 376.062C268.365 368.782 267.699 361.452 267 354.062C246.155 357.252 225.489 356.252 205 351.062C204.236 358.772 203.236 366.442 202 374.062C192.601 373.442 183.601 371.442 175 368.062C174.545 358.752 175.212 349.592 177 340.562C168.407 337.102 161.073 331.942 155 325.062C158.731 326.762 161.564 325.762 163.5 322.062C164.29 318.932 163.957 315.932 162.5 313.062C159.558 310.342 156.225 308.342 152.5 307.062C151.836 301.242 149.669 296.072 146 291.562C141.138 288.782 136.138 288.612 131 291.062C122.046 264.382 120.879 237.382 127.5 210.062C130.266 203.362 133.433 196.862 137 190.562C136.052 190.082 135.052 189.912 134 190.062C139.971 185.732 144.638 180.062 148 173.062C146.077 172.252 144.077 171.752 142 171.562C133.006 171.062 124.006 170.892 115 171.062C122.963 162.942 131.963 156.112 142 150.562C146.333 149.892 150.667 149.892 155 150.562C157.177 152.072 159.344 153.572 161.5 155.062C163.166 154.212 164.666 153.212 166 152.062C168.014 152.172 169.68 151.502 171 150.062C176.131 163.492 185.131 166.822 198 160.062C198.67 161.852 199.337 163.522 200 165.062C201.384 172.972 205.717 175.142 213 171.562C215.185 167.372 215.519 163.042 214 158.562C211.185 156.842 208.185 156.172 205 156.562C210.306 159.562 210.306 162.392 205 165.062C201.706 164.422 200.373 162.422 201 159.062C202.361 151.772 207.028 147.272 215 145.562C218.167 143.062 221.333 140.562 224.5 138.062C226.628 134.542 226.461 131.202 224 128.062C240.623 125.832 256.956 127.162 273 132.062Z" fill="#FBFBFA"/>
<path fill-rule="evenodd" clip-rule="evenodd" d="M224 128.061C226.461 131.201 226.628 134.541 224.5 138.061C221.333 140.561 218.167 143.061 215 145.561C207.028 147.271 202.361 151.771 201 159.061C200.039 160.821 199.705 162.821 200 165.061C199.337 163.521 198.67 161.851 198 160.061C185.131 166.821 176.131 163.491 171 150.061C170.83 148.741 171.163 147.571 172 146.561C178.656 142.961 185.323 139.461 192 136.061C198.759 133.861 205.426 131.361 212 128.561C215.986 128.061 219.986 127.891 224 128.061Z" fill="#676766"/>
<path fill-rule="evenodd" clip-rule="evenodd" d="M273 132.062C276.813 133.472 280.48 135.132 284 137.062C289.134 141.992 293.301 147.652 296.5 154.062C297.324 157.342 297.824 160.682 298 164.062C298.212 166.572 297.545 168.742 296 170.562C279.397 172.142 262.73 172.812 246 172.562C240.965 169.552 239.798 165.382 242.5 160.062C246.275 156.502 250.275 153.172 254.5 150.062C255.928 139.132 262.094 133.132 273 132.062Z" fill="#666666"/>
<path fill-rule="evenodd" clip-rule="evenodd" d="M265 156.062C269.197 159.642 268.697 162.642 263.5 165.062C261.858 164.582 260.691 163.582 260 162.062C259.519 158.212 261.186 156.212 265 156.062Z" fill="#F2F2F2"/>
<path fill-rule="evenodd" clip-rule="evenodd" d="M199.999 165.061C199.704 162.821 200.038 160.821 200.999 159.061C200.372 162.421 201.705 164.421 204.999 165.061C210.305 162.391 210.305 159.561 204.999 156.561C208.184 156.171 211.184 156.841 213.999 158.561C215.518 163.041 215.184 167.371 212.999 171.561C205.716 175.141 201.383 172.971 199.999 165.061Z" fill="#272727"/>
<path fill-rule="evenodd" clip-rule="evenodd" d="M265.001 156.061C267.892 155.311 270.392 156.311 272.501 159.061C274.978 163.341 274.145 166.841 270.001 169.561C264.385 172.171 260.219 170.671 257.501 165.061C256.866 162.921 257.2 160.921 258.501 159.061C258.733 160.301 259.233 161.301 260.001 162.061C260.692 163.581 261.859 164.581 263.501 165.061C268.698 162.641 269.198 159.641 265.001 156.061Z" fill="#272727"/>
<path fill-rule="evenodd" clip-rule="evenodd" d="M361 170.062C365.487 172.372 368.654 175.712 370.5 180.062C362.519 184.972 354.019 188.632 345 191.062C340.934 184.782 336.934 178.282 333 171.562C342.226 170.112 351.56 169.612 361 170.062Z" fill="#FEAECD"/>
<path fill-rule="evenodd" clip-rule="evenodd" d="M114.999 171.061C124.005 170.891 133.005 171.061 141.999 171.561C144.076 171.751 146.076 172.251 147.999 173.061C144.637 180.061 139.97 185.731 133.999 190.061C124.472 191.071 115.472 189.411 106.999 185.061C105.836 183.011 106.003 181.011 107.499 179.061C110.232 176.501 112.732 173.831 114.999 171.061Z" fill="#FEAECD"/>
<path fill-rule="evenodd" clip-rule="evenodd" d="M229 174.062C240.03 173.172 250.697 174.672 261 178.562C270.436 183.582 273.603 191.082 270.5 201.062C264.75 205.282 258.25 207.442 251 207.562C236.82 208.772 222.82 207.772 209 204.562C206.93 203.612 205.43 202.112 204.5 200.062C203.833 196.392 203.833 192.732 204.5 189.062C210.596 180.602 218.763 175.602 229 174.062Z" fill="#FFADCD"/>
<path fill-rule="evenodd" clip-rule="evenodd" d="M248 184.061C249.644 183.851 251.144 184.181 252.5 185.061C254.169 189.551 254.335 194.051 253 198.561C251.388 199.281 249.888 199.111 248.5 198.061C248.23 194.191 247.73 190.351 247 186.561C247.243 185.661 247.577 184.821 248 184.061Z" fill="#FF72A8"/>
<path fill-rule="evenodd" clip-rule="evenodd" d="M222 184.062C224.411 183.702 225.911 184.702 226.5 187.062C227.167 190.392 227.167 193.732 226.5 197.062C225.167 198.392 223.833 198.392 222.5 197.062C221.036 192.702 220.87 188.372 222 184.062Z" fill="#FF71A7"/>
<path fill-rule="evenodd" clip-rule="evenodd" d="M350 207.061C352.164 210.041 353.664 213.371 354.5 217.061C356.493 228.331 357.16 239.661 356.5 251.061C354.799 257.011 352.632 262.681 350 268.061C347.249 270.141 344.249 271.801 341 273.061C331.199 272.081 327.366 266.751 329.5 257.061C331.213 253.471 333.047 249.971 335 246.561C330.905 243.471 327.072 239.971 323.5 236.061C322.024 231.481 321.69 226.821 322.5 222.061C326.238 214.991 331.404 209.151 338 204.561C342.481 203.451 346.481 204.281 350 207.061Z" fill="#676767"/>
<path fill-rule="evenodd" clip-rule="evenodd" d="M139 205.062C144.934 204.452 150.6 205.282 156 207.562C158.019 210.622 159.852 213.782 161.5 217.062C177.38 220.172 180.213 228.002 170 240.562C161.751 242.792 154.417 246.792 148 252.562C142.307 254.512 136.64 254.512 131 252.562C128.184 250.432 126.851 247.592 127 244.062C128.175 239.032 129.509 234.032 131 229.062C128.068 218.982 130.734 210.982 139 205.062Z" fill="#666666"/>
<path fill-rule="evenodd" clip-rule="evenodd" d="M303 263.062C298.395 261.092 294.062 258.592 290 255.562C287.121 255.012 284.454 254.182 282 253.062C283.855 253.292 284.688 252.622 284.5 251.062C282.42 249.442 280.254 247.942 278 246.562C254.223 237.502 229.89 235.832 205 241.562C198.224 244.242 192.224 247.072 187 250.062C181.297 252.072 175.63 254.402 170 257.062C170.672 254.222 172.006 251.722 174 249.562C190.699 236.962 209.532 230.462 230.5 230.062C248.241 228.762 265.074 231.932 281 239.562C287.167 244.392 293.333 249.232 299.5 254.062C301.241 256.872 302.408 259.872 303 263.062Z" fill="#CCCCCC"/>
<path fill-rule="evenodd" clip-rule="evenodd" d="M282 253.062C255.458 243.432 242.958 252.762 244.5 281.062C246.306 289.532 251.473 294.702 260 296.562C269.568 299.172 277.402 296.672 283.5 289.062C288.039 281.772 290.373 273.772 290.5 265.062C292.472 266.792 294.639 268.132 297 269.062C298.636 270.312 299.803 271.982 300.5 274.062C300.732 278.112 301.232 282.112 302 286.062C301.204 292.132 298.871 297.472 295 302.062C291.481 304.662 288.148 307.492 285 310.562C280.333 312.562 275.667 314.562 271 316.562C260.681 318.772 250.181 320.272 239.5 321.062C221.868 319.732 204.368 317.562 187 314.562C171.631 306.652 165.797 294.152 169.5 277.062C170.313 275.122 170.813 273.122 171 271.062C172.062 268.802 173.728 267.642 176 267.562C175.028 269.782 174.361 272.112 174 274.562C174.914 284.412 179.58 291.742 188 296.562C205.876 299.792 217.21 292.622 222 275.062C221.808 270.012 219.975 265.682 216.5 262.062C216.568 256.692 214.068 253.192 209 251.562C201.74 249.272 194.407 248.772 187 250.062C192.224 247.072 198.224 244.242 205 241.562C229.89 235.832 254.223 237.502 278 246.562C280.254 247.942 282.42 249.442 284.5 251.062C284.688 252.622 283.855 253.292 282 253.062Z" fill="#F9F9F9"/>
<path fill-rule="evenodd" clip-rule="evenodd" d="M282 253.062C284.454 254.182 287.121 255.012 290 255.562C294.062 258.592 298.395 261.092 303 263.062C306.416 264.452 307.416 266.782 306 270.062C305.235 270.482 304.402 270.822 303.5 271.062C301.453 269.952 299.287 269.282 297 269.062C294.639 268.132 292.472 266.792 290.5 265.062C290.373 273.772 288.039 281.772 283.5 289.062C277.402 296.672 269.568 299.172 260 296.562C251.473 294.702 246.306 289.532 244.5 281.062C242.958 252.762 255.458 243.432 282 253.062Z" fill="#060606"/>
<path fill-rule="evenodd" clip-rule="evenodd" d="M171 271.062C168.535 272.872 165.868 274.212 163 275.062C160.317 273.522 159.484 271.192 160.5 268.062C163.502 264.232 166.669 260.562 170 257.062C175.63 254.402 181.297 252.072 187 250.062C194.407 248.772 201.74 249.272 209 251.562C214.068 253.192 216.568 256.692 216.5 262.062C219.975 265.682 221.808 270.012 222 275.062C217.21 292.622 205.876 299.792 188 296.562C179.58 291.742 174.914 284.412 174 274.562C174.361 272.112 175.028 269.782 176 267.562C173.728 267.642 172.062 268.802 171 271.062Z" fill="#070707"/>
<path fill-rule="evenodd" clip-rule="evenodd" d="M258 255.061C262.934 254.501 265.6 256.661 266 261.561C267.124 270.381 263.457 274.051 255 272.561C252.878 270.121 251.211 267.451 250 264.561C250.125 262.931 250.625 261.431 251.5 260.061C254.062 258.831 256.228 257.171 258 255.061Z" fill="#F6F6F6"/>
<path fill-rule="evenodd" clip-rule="evenodd" d="M202 258.061C208.375 256.611 211.708 259.111 212 265.561C211.258 271.231 208.258 275.071 203 277.061C195.383 272.811 194.216 267.141 199.5 260.061C200.495 259.491 201.328 258.831 202 258.061Z" fill="#F6F6F6"/>
<path fill-rule="evenodd" clip-rule="evenodd" d="M296.999 269.062C299.286 269.282 301.452 269.952 303.499 271.062C304.401 270.822 305.234 270.482 305.999 270.062C307.289 270.622 308.122 271.622 308.499 273.062C309.25 279.442 309.083 285.782 307.999 292.062C305.707 301.452 300.707 309.282 292.999 315.562C285.677 319.372 278.344 322.872 270.999 326.062C270.349 325.762 269.682 325.422 268.999 325.062C255.795 327.682 242.462 328.512 228.999 327.562C219.369 326.442 209.703 325.772 199.999 325.562C194.91 323.382 189.577 322.042 183.999 321.562C173.833 317.402 166.667 310.232 162.499 300.062C161.698 291.652 161.865 283.312 162.999 275.062C165.867 274.212 168.534 272.872 170.999 271.062C170.812 273.122 170.312 275.122 169.499 277.062C165.796 294.152 171.63 306.652 186.999 314.562C204.367 317.562 221.867 319.732 239.499 321.062C250.18 320.272 260.68 318.772 270.999 316.562C275.666 314.562 280.332 312.562 284.999 310.562C288.147 307.492 291.48 304.662 294.999 302.062C298.87 297.472 301.203 292.132 301.999 286.062C301.231 282.112 300.731 278.112 300.499 274.062C299.802 271.982 298.635 270.312 296.999 269.062Z" fill="#CCCCCC"/>
<path fill-rule="evenodd" clip-rule="evenodd" d="M155 325.061C146.043 319.271 138.543 311.941 132.5 303.061C131.146 299.201 130.646 295.201 131 291.061C136.138 288.611 141.138 288.781 146 291.561C149.669 296.071 151.836 301.241 152.5 307.061C156.225 308.341 159.558 310.341 162.5 313.061C163.957 315.931 164.29 318.931 163.5 322.061C161.564 325.761 158.731 326.761 155 325.061Z" fill="#666766"/>
<path fill-rule="evenodd" clip-rule="evenodd" d="M308 292.061C309.89 291.861 311.39 292.521 312.5 294.061C317.216 315.631 308.716 328.301 287 332.061C280.922 331.811 275.588 329.811 271 326.061C278.345 322.871 285.678 319.371 293 315.561C300.708 309.281 305.708 301.451 308 292.061Z" fill="#676767"/>
<path fill-rule="evenodd" clip-rule="evenodd" d="M245 300.061C247.778 299.581 249.778 300.581 251 303.061C249.183 307.191 246.516 310.691 243 313.561C240.333 314.231 237.667 314.231 235 313.561C232.141 311.381 228.974 309.881 225.5 309.061C224.667 304.561 226.5 302.731 231 303.561C233.44 304.861 235.94 306.031 238.5 307.061C241.538 305.521 243.705 303.191 245 300.061Z" fill="#0F0F0F"/>
<path fill-rule="evenodd" clip-rule="evenodd" d="M370 327.062C367.705 326.422 366.039 325.092 365 323.062C366.635 311.322 373.135 307.652 384.5 312.062C387.231 310.942 390.065 310.282 393 310.062C393.157 311.432 392.99 312.772 392.5 314.062C389.45 317.652 386.284 321.152 383 324.562C378.914 326.612 374.58 327.452 370 327.062Z" fill="#252525"/>
<path fill-rule="evenodd" clip-rule="evenodd" d="M175 368.062C183.601 371.442 192.601 373.442 202 374.062C203.075 379.322 201.741 383.992 198 388.062C193.655 389.982 190.155 388.982 187.5 385.062C185.692 386.962 183.525 387.462 181 386.562C175.545 381.642 173.545 375.472 175 368.062Z" fill="#252525"/>
<path fill-rule="evenodd" clip-rule="evenodd" d="M297 374.062C297.671 380.242 296.671 386.072 294 391.562C290.32 392.592 287.153 391.752 284.5 389.062C279.285 393.582 274.951 392.912 271.5 387.062C270.763 383.352 269.929 379.692 269 376.062C278.359 375.722 287.692 375.062 297 374.062Z" fill="#262726"/>
</svg>
