<svg width="500" height="500" viewBox="0 0 500 500" fill="none" xmlns="http://www.w3.org/2000/svg">
<path fill-rule="evenodd" clip-rule="evenodd" d="M318.999 146.061C313.926 147.611 309.759 150.611 306.499 155.061C304.348 151.911 301.848 149.081 298.999 146.561C300.105 140.361 297.605 138.521 291.499 141.061C290.848 142.801 291.014 144.461 291.999 146.061C287.988 146.191 284.988 147.851 282.999 151.061C282.235 148.821 281.401 146.491 280.499 144.061C279.749 143.431 278.915 142.931 277.999 142.561C273.317 143.021 268.65 142.861 263.999 142.061C260.885 136.071 256.718 135.411 251.499 140.061C242.96 133.901 235.793 135.231 229.999 144.061C221.441 142.421 216.607 146.091 215.499 155.061C211.773 155.921 208.44 157.591 205.499 160.061C204.657 165.071 206.824 168.071 211.999 169.061C213.332 169.731 214.666 170.391 215.999 171.061C221.202 173.361 226.535 175.361 231.999 177.061C233.835 179.151 236.168 180.481 238.999 181.061C239.452 182.021 240.118 182.851 240.999 183.561C245.333 184.951 249.667 186.451 253.999 188.061C254.341 188.901 255.007 189.231 255.999 189.061C258.106 190.031 260.44 190.361 262.999 190.061C264.279 191.491 265.946 192.161 267.999 192.061C269.925 193.851 272.258 194.851 274.999 195.061C274.999 196.061 274.999 197.061 274.999 198.061C281.093 198.331 286.76 200.001 291.999 203.061C298.501 207.131 305.501 210.471 312.999 213.061C316.09 215.801 319.423 216.301 322.999 214.561C333.409 206.141 344.076 198.141 354.999 190.561C357.107 190.201 359.107 189.531 360.999 188.561C364.712 186.161 368.379 183.821 371.999 181.561C373.303 180.761 373.97 179.591 373.999 178.061C372.704 175.751 371.37 173.421 369.999 171.061C366.73 169.631 364.397 170.631 362.999 174.061C362.123 174.191 361.456 173.861 360.999 173.061C359.494 167.701 356.328 163.701 351.499 161.061C350.807 160.121 350.974 159.461 351.999 159.061C366.7 164.241 381.2 169.901 395.499 176.061C395.989 177.351 396.156 178.691 395.999 180.061C378.287 194.101 360.287 207.941 341.999 221.561C314.727 239.171 287.727 257.171 260.999 275.561C258.08 276.701 255.08 277.531 251.999 278.061C225.855 267.781 200.189 256.281 174.999 243.561C149.018 235.571 125.352 223.401 103.999 207.061C103.837 205.031 104.004 203.031 104.499 201.061C107.911 198.441 111.411 195.941 114.999 193.561C137.031 181.551 159.031 169.551 180.999 157.561C200.357 145.541 220.357 134.541 240.999 124.561C248.844 123.991 256.511 124.991 263.999 127.561C282.324 133.891 300.658 140.051 318.999 146.061Z" fill="#FB3635"/>
<path fill-rule="evenodd" clip-rule="evenodd" d="M282.999 151.062C281.649 154.132 280.316 157.132 278.999 160.062C275.015 153.302 269.182 151.302 261.499 154.062C255.894 148.002 249.061 145.502 240.999 146.562C230.44 151.122 220.94 157.292 212.499 165.062C212.009 166.352 211.842 167.692 211.999 169.062C206.824 168.072 204.657 165.072 205.499 160.062C208.44 157.592 211.773 155.922 215.499 155.062C216.607 146.092 221.441 142.422 229.999 144.062C235.793 135.232 242.96 133.902 251.499 140.062C256.718 135.412 260.885 136.072 263.999 142.062C268.65 142.862 273.317 143.022 277.999 142.562C278.915 142.932 279.749 143.432 280.499 144.062C281.401 146.492 282.235 148.822 282.999 151.062Z" fill="#31AF5E"/>
<path fill-rule="evenodd" clip-rule="evenodd" d="M319 146.062C318.472 144.712 318.305 143.382 318.5 142.062C324.374 138.342 327.041 140.002 326.5 147.062C328 149.032 329.833 150.362 332 151.062C331.562 150.992 331.228 151.162 331 151.562C333.132 155.322 335.132 159.162 337 163.062C338.987 161.232 341.321 160.232 344 160.062C343.933 158.602 344.266 157.272 345 156.062C348.136 155.542 350.47 156.542 352 159.062C350.975 159.462 350.808 160.122 351.5 161.062C356.329 163.702 359.495 167.702 361 173.062C361.457 173.862 362.124 174.192 363 174.062C361.581 175.012 359.915 175.342 358 175.062C356.439 168.172 352.106 164.502 345 164.062C343.946 164.242 342.946 164.572 342 165.062C336.4 172.762 333.234 181.432 332.5 191.062C332.035 192.492 331.201 193.662 330 194.562C331.21 195.602 332.21 196.772 333 198.062C330.597 198.112 328.264 197.782 326 197.062C323.937 188.452 322.103 179.792 320.5 171.062C319.667 170.232 318.833 169.392 318 168.562C314.333 167.892 310.667 167.892 307 168.562C301.895 176.472 298.061 184.972 295.5 194.062C293.482 195.912 291.649 197.912 290 200.062C291.112 200.832 291.779 201.832 292 203.062C286.761 200.002 281.094 198.332 275 198.062C275 197.062 275 196.062 275 195.062C272.259 194.852 269.926 193.852 268 192.062C272.846 192.332 277.179 191.002 281 188.062C282.309 191.222 283.976 194.222 286 197.062C287.983 195.582 289.816 193.912 291.5 192.062C295.691 181.692 299.858 171.352 304 161.062C302.144 151.712 296.644 148.712 287.5 152.062C283.391 160.382 280.058 169.052 277.5 178.062C273.351 183.062 268.517 187.062 263 190.062C260.441 190.362 258.107 190.032 256 189.062C261.683 185.792 267.183 182.132 272.5 178.062C274.924 172.202 277.09 166.202 279 160.062C280.317 157.132 281.65 154.132 283 151.062C284.989 147.852 287.989 146.192 292 146.062C291.015 144.462 290.849 142.802 291.5 141.062C297.606 138.522 300.106 140.362 299 146.562C301.849 149.082 304.349 151.912 306.5 155.062C309.76 150.612 313.927 147.612 319 146.062Z" fill="#EA7939"/>
<path fill-rule="evenodd" clip-rule="evenodd" d="M278.999 160.061C277.089 166.201 274.923 172.201 272.499 178.061C267.182 182.131 261.682 185.791 255.999 189.061C255.007 189.231 254.341 188.901 253.999 188.061C259.611 182.621 265.444 177.291 271.499 172.061C276.164 162.411 273.33 158.571 262.999 160.561C254.219 166.511 246.219 173.341 238.999 181.061C236.168 180.481 233.835 179.151 231.999 177.061C239.883 171.521 247.217 165.191 253.999 158.061C250.83 153.441 246.497 151.941 240.999 153.561C231.899 158.431 223.566 164.261 215.999 171.061C214.666 170.391 213.332 169.731 211.999 169.061C211.842 167.691 212.009 166.351 212.499 165.061C220.94 157.291 230.44 151.121 240.999 146.561C249.061 145.501 255.894 148.001 261.499 154.061C269.182 151.301 275.015 153.301 278.999 160.061Z" fill="#FCCB30"/>
<path fill-rule="evenodd" clip-rule="evenodd" d="M268 192.061C265.947 192.161 264.28 191.491 263 190.061C268.517 187.061 273.351 183.061 277.5 178.061C280.058 169.051 283.391 160.381 287.5 152.061C296.644 148.711 302.144 151.711 304 161.061C299.858 171.351 295.691 181.691 291.5 192.061C289.816 193.911 287.983 195.581 286 197.061C283.976 194.221 282.309 191.221 281 188.061C277.179 191.001 272.846 192.331 268 192.061Z" fill="#FDA354"/>
<path fill-rule="evenodd" clip-rule="evenodd" d="M326 172.062C326.343 170.082 325.676 168.742 324 168.062C319.796 166.842 317.462 164.172 317 160.062C314.052 160.242 311.386 160.242 309 160.062C314.142 148.552 320.975 147.212 329.5 156.062C331.295 159.612 332.795 163.282 334 167.062C332.096 173.852 329.929 180.522 327.5 187.062C326.752 182.082 326.252 177.082 326 172.062Z" fill="#FDA456"/>
<path fill-rule="evenodd" clip-rule="evenodd" d="M232 177.062C226.536 175.362 221.203 173.362 216 171.062C223.567 164.262 231.9 158.432 241 153.562C246.498 151.942 250.831 153.442 254 158.062C247.218 165.192 239.884 171.522 232 177.062Z" fill="#F7EA02"/>
<path fill-rule="evenodd" clip-rule="evenodd" d="M332 151.062C336.417 152.532 340.75 154.202 345 156.062C344.266 157.272 343.933 158.602 344 160.062C341.321 160.232 338.987 161.232 337 163.062C335.132 159.162 333.132 155.322 331 151.562C331.228 151.162 331.562 150.992 332 151.062Z" fill="#FE3835"/>
<path fill-rule="evenodd" clip-rule="evenodd" d="M254 188.061C249.668 186.451 245.334 184.951 241 183.561C240.119 182.851 239.453 182.021 239 181.061C246.22 173.341 254.22 166.511 263 160.561C273.331 158.571 276.165 162.411 271.5 172.061C265.445 177.291 259.612 182.621 254 188.061Z" fill="#F7EB02"/>
<path fill-rule="evenodd" clip-rule="evenodd" d="M326 197.062C317.172 198.882 312.839 204.212 313 213.062C305.502 210.472 298.502 207.132 292 203.062C291.779 201.832 291.112 200.832 290 200.062C291.649 197.912 293.482 195.912 295.5 194.062C298.061 184.972 301.895 176.472 307 168.562C310.667 167.892 314.333 167.892 318 168.562C318.833 169.392 319.667 170.232 320.5 171.062C322.103 179.792 323.937 188.452 326 197.062Z" fill="#FA9F52"/>
<path fill-rule="evenodd" clip-rule="evenodd" d="M283 169.062C284.086 169.182 284.753 169.852 285 171.062C284.196 173.522 283.196 173.522 282 171.062C282.363 170.382 282.696 169.712 283 169.062Z" fill="#292626"/>
<path fill-rule="evenodd" clip-rule="evenodd" d="M324 168.062C325.676 168.742 326.343 170.082 326 172.062C324.324 171.382 323.657 170.042 324 168.062Z" fill="#181D22"/>
<path fill-rule="evenodd" clip-rule="evenodd" d="M297 235.062C294.988 234.042 293.322 232.542 292 230.562C290.027 230.062 288.027 229.902 286 230.062C286.219 228.882 285.886 227.882 285 227.062C281.057 226.722 277.557 225.392 274.5 223.062C271.355 224.792 269.188 223.962 268 220.562C266.456 220.272 265.123 219.602 264 218.562C262.059 217.822 260.226 217.982 258.5 219.062C257.215 213.912 254.548 212.912 250.5 216.062C249.661 210.212 246.494 208.542 241 211.062C241.273 209.112 240.607 207.612 239 206.562C236.343 206.392 233.676 206.552 231 207.062C231.214 205.422 230.88 203.922 230 202.562C226.74 201.782 223.573 201.942 220.5 203.062C220.337 200.882 219.504 199.052 218 197.562C212.743 196.492 207.743 194.662 203 192.062C202.435 190.022 201.435 188.352 200 187.062C197.774 185.802 195.441 185.802 193 187.062C192.547 186.102 191.881 185.272 191 184.562C187.531 184.552 184.197 184.392 181 184.062C178.004 184.872 175.337 186.372 173 188.562C167.803 187.742 164.47 189.742 163 194.562C158.842 196.372 154.509 197.702 150 198.562C147.295 201.352 143.962 202.692 140 202.562C137.086 205.302 136.419 208.472 138 212.062C132.268 210.692 127.268 208.032 123 204.062C123.813 202.752 124.813 201.582 126 200.562C143.873 190.022 162.206 180.352 181 171.562C183.333 170.892 185.667 170.892 188 171.562C228.162 190.972 268.828 209.312 310 226.562C305.638 229.402 301.305 232.242 297 235.062Z" fill="#B8110E"/>
<path fill-rule="evenodd" clip-rule="evenodd" d="M290 169.062C291.086 169.182 291.753 169.852 292 171.062C291.667 171.732 291.333 172.392 291 173.062C290.071 171.872 289.738 170.542 290 169.062Z" fill="#11171F"/>
<path fill-rule="evenodd" clip-rule="evenodd" d="M358 175.062C356.652 176.162 355.152 177.162 353.5 178.062C352.663 180.402 351.329 182.402 349.5 184.062C349.01 185.352 348.843 186.692 349 188.062C345.589 188.922 342.256 190.092 339 191.562C337.502 194.222 335.502 196.392 333 198.062C332.21 196.772 331.21 195.602 330 194.562C331.201 193.662 332.035 192.492 332.5 191.062C333.234 181.432 336.4 172.762 342 165.062C342.946 164.572 343.946 164.242 345 164.062C352.106 164.502 356.439 168.172 358 175.062Z" fill="#FCA75A"/>
<path fill-rule="evenodd" clip-rule="evenodd" d="M348.999 176.062C350.148 176.352 350.815 177.182 350.999 178.562C351.111 180.222 350.445 181.392 348.999 182.062C347.805 180.042 347.805 178.042 348.999 176.062Z" fill="#292626"/>
<path fill-rule="evenodd" clip-rule="evenodd" d="M341.001 177.062C342.001 177.062 343.001 177.062 344.001 177.062C344.3 179.162 343.967 181.162 343.001 183.062C341.218 181.542 340.552 179.542 341.001 177.062Z" fill="#2B2726"/>
<path fill-rule="evenodd" clip-rule="evenodd" d="M396.001 180.062C395.759 185.772 396.093 191.432 397.001 197.062C395.795 218.362 394.961 239.702 394.501 261.062C393.834 267.062 393.168 273.062 392.501 279.062C390.915 281.232 389.581 283.562 388.501 286.062C378.269 294.262 367.769 302.092 357.001 309.562C332.15 325.152 307.817 341.482 284.001 358.562C272.347 365.222 260.347 371.052 248.001 376.062C230.585 372.152 214.585 365.152 200.001 355.062C193.612 362.282 186.779 368.952 179.501 375.062C170.803 372.002 167.637 366.002 170.001 357.062C172.368 355.162 175.035 354.662 178.001 355.562C178.98 357.702 180.313 359.532 182.001 361.062C185.124 357.442 188.457 353.942 192.001 350.562C180.56 343.092 168.727 336.252 156.501 330.062C151.324 334.902 146.49 340.072 142.001 345.562C133.428 347.652 128.761 344.322 128.001 335.562C127.928 331.842 128.928 328.512 131.001 325.562C132.668 324.892 134.334 324.892 136.001 325.562C137.807 328.132 139.141 330.972 140.001 334.062C142.093 330.882 144.426 327.882 147.001 325.062C138.001 319.562 129.001 314.062 120.001 308.562C116.63 305.322 114.13 301.492 112.501 297.062C110.605 272.312 107.938 247.642 104.501 223.062C104.002 217.742 103.835 212.402 104.001 207.062C125.354 223.402 149.02 235.572 175.001 243.562C200.191 256.282 225.857 267.782 252.001 278.062C255.082 277.532 258.082 276.702 261.001 275.562C287.729 257.172 314.729 239.172 342.001 221.562C360.289 207.942 378.289 194.102 396.001 180.062Z" fill="#252525"/>
<path fill-rule="evenodd" clip-rule="evenodd" d="M193 187.062C192.039 188.822 191.705 190.822 192 193.062C193 193.062 194 193.062 195 193.062C195 191.062 195 189.062 195 187.062C196.667 187.062 198.333 187.062 200 187.062C201.435 188.352 202.435 190.022 203 192.062C207.743 194.662 212.743 196.492 218 197.562C219.504 199.052 220.337 200.882 220.5 203.062C223.573 201.942 226.74 201.782 230 202.562C230.88 203.922 231.214 205.422 231 207.062C233.676 206.552 236.343 206.392 239 206.562C240.607 207.612 241.273 209.112 241 211.062C246.494 208.542 249.661 210.212 250.5 216.062C254.548 212.912 257.215 213.912 258.5 219.062C260.226 217.982 262.059 217.822 264 218.562C265.123 219.602 266.456 220.272 268 220.562C269.188 223.962 271.355 224.792 274.5 223.062C277.557 225.392 281.057 226.722 285 227.062C285.886 227.882 286.219 228.882 286 230.062C288.027 229.902 290.027 230.062 292 230.562C293.322 232.542 294.988 234.042 297 235.062C281.408 243.162 266.742 252.662 253 263.562C250.667 264.232 248.333 264.232 246 263.562C235.823 257.972 225.49 252.642 215 247.562C188.963 236.202 163.296 224.372 138 212.062C136.419 208.472 137.086 205.302 140 202.562C143.962 202.692 147.295 201.352 150 198.562C154.509 197.702 158.842 196.372 163 194.562C164.47 189.742 167.803 187.742 173 188.562C175.337 186.372 178.004 184.872 181 184.062C184.197 184.392 187.531 184.552 191 184.562C191.881 185.272 192.547 186.102 193 187.062Z" fill="#FAF8F8"/>
<path fill-rule="evenodd" clip-rule="evenodd" d="M199.999 187.061C198.332 187.061 196.666 187.061 194.999 187.061C194.999 189.061 194.999 191.061 194.999 193.061C193.999 193.061 192.999 193.061 191.999 193.061C191.704 190.821 192.038 188.821 192.999 187.061C195.44 185.801 197.773 185.801 199.999 187.061Z" fill="#817373"/>
<path fill-rule="evenodd" clip-rule="evenodd" d="M305.001 186.062C306.087 186.182 306.754 186.852 307.001 188.062C307.81 189.552 307.81 190.882 307.001 192.062C305.218 190.542 304.552 188.542 305.001 186.062Z" fill="#171C22"/>
<path fill-rule="evenodd" clip-rule="evenodd" d="M312.999 213.061C312.838 204.211 317.171 198.881 325.999 197.061C328.263 197.781 330.596 198.111 332.999 198.061C335.501 196.391 337.501 194.221 338.999 191.561C342.255 190.091 345.588 188.921 348.999 188.061C348.842 186.691 349.009 185.351 349.499 184.061C351.328 182.401 352.662 180.401 353.499 178.061C355.151 177.161 356.651 176.161 357.999 175.061C359.914 175.341 361.58 175.011 362.999 174.061C364.397 170.631 366.73 169.631 369.999 171.061C371.37 173.421 372.704 175.751 373.999 178.061C373.97 179.591 373.303 180.761 371.999 181.561C368.379 183.821 364.712 186.161 360.999 188.561C359.107 189.531 357.107 190.201 354.999 190.561C344.076 198.141 333.409 206.141 322.999 214.561C319.423 216.301 316.09 215.801 312.999 213.061Z" fill="#33AF5E"/>
<path fill-rule="evenodd" clip-rule="evenodd" d="M312 189.062C313.086 189.182 313.753 189.852 314 191.062C313.667 191.732 313.333 192.392 313 193.062C312.071 191.872 311.738 190.542 312 189.062Z" fill="#151A21"/>
<path fill-rule="evenodd" clip-rule="evenodd" d="M178 202.062C179.333 202.062 180.667 202.062 182 202.062C182.285 203.852 181.952 205.512 181 207.062C178.744 206.142 177.744 204.472 178 202.062Z" fill="#747474"/>
<path fill-rule="evenodd" clip-rule="evenodd" d="M163 205.061C165.104 204.761 167.104 205.091 169 206.061C168.152 207.551 166.819 208.221 165 208.061C162.261 208.011 161.595 207.011 163 205.061Z" fill="#6F6F6F"/>
<path fill-rule="evenodd" clip-rule="evenodd" d="M200.999 206.061C211.734 205.141 220.9 208.471 228.499 216.061C229.205 219.921 230.038 223.761 230.999 227.561C230.421 229.371 229.921 231.201 229.499 233.061C224.89 235.071 220.057 235.571 214.999 234.561C209.757 232.681 204.424 231.021 198.999 229.561C183.776 220.111 184.442 212.271 200.999 206.061Z" fill="#F27773"/>
<path fill-rule="evenodd" clip-rule="evenodd" d="M174 219.061C176.104 218.761 178.104 219.091 180 220.061C178.477 221.841 176.477 222.511 174 222.061C174 221.061 174 220.061 174 219.061Z" fill="#6A6A6A"/>
<path fill-rule="evenodd" clip-rule="evenodd" d="M242 218.062C243.225 218.712 243.892 219.882 244 221.562C244.191 223.532 243.524 225.032 242 226.062C240.78 225.672 240.113 224.842 240 223.562C240.577 221.662 241.244 219.832 242 218.062Z" fill="#737373"/>
<path fill-rule="evenodd" clip-rule="evenodd" d="M253 230.062C254 230.062 255 230.062 256 230.062C255.826 232.422 255.493 234.752 255 237.062C254 237.062 253 237.062 252 237.062C251.948 234.662 252.281 232.322 253 230.062Z" fill="#6C6C6C"/>
<path fill-rule="evenodd" clip-rule="evenodd" d="M275 232.062C276 232.062 277 232.062 278 232.062C277.764 234.532 276.431 236.202 274 237.062C273 236.732 272.333 236.062 272 235.062C272.84 233.832 273.84 232.832 275 232.062Z" fill="#707070"/>
<path fill-rule="evenodd" clip-rule="evenodd" d="M218.999 237.062C222.724 237.342 223.891 239.342 222.499 243.062C221.499 244.392 220.499 244.392 219.499 243.062C219.004 241.092 218.837 239.092 218.999 237.062Z" fill="#767676"/>
<path fill-rule="evenodd" clip-rule="evenodd" d="M235 245.062C237.797 245.532 239.131 247.192 239 250.062C235.59 250.182 234.256 248.512 235 245.062Z" fill="#6A6A6A"/>
<path fill-rule="evenodd" clip-rule="evenodd" d="M140.001 262.061C148.904 261.481 157.57 262.651 166.001 265.561C179.921 269.361 192.921 275.031 205.001 282.561C212.642 289.861 219.142 298.031 224.501 307.061C227.533 318.171 224.033 326.671 214.001 332.561C208.597 333.331 203.263 333.001 198.001 331.561C176.04 323.921 155.707 313.251 137.001 299.561C134.375 295.481 131.875 291.311 129.501 287.061C125.975 275.471 129.475 267.141 140.001 262.061Z" fill="#F5F5F5"/>
<path fill-rule="evenodd" clip-rule="evenodd" d="M139.999 265.061C149.414 263.751 158.08 265.591 165.999 270.561C167.724 272.511 169.057 274.681 169.999 277.061C170.382 281.371 169.882 285.701 168.499 290.061C160.865 297.871 152.365 299.041 142.999 293.561C137.986 286.761 137.986 279.931 142.999 273.061C142.499 272.731 141.999 272.391 141.499 272.061C139.715 272.871 137.882 273.541 135.999 274.061C132.368 272.801 132.035 270.801 134.999 268.061C137.097 267.601 138.763 266.601 139.999 265.061Z" fill="#080808"/>
<path fill-rule="evenodd" clip-rule="evenodd" d="M159.001 274.061C165.876 273.871 167.71 276.871 164.501 283.061C157.695 288.111 154.695 286.451 155.501 278.061C156.877 276.851 158.043 275.521 159.001 274.061Z" fill="#EFEFEF"/>
<path fill-rule="evenodd" clip-rule="evenodd" d="M192 284.061C196.877 283.371 201.21 284.541 205 287.561C208.739 291.181 212.572 294.681 216.5 298.061C218.72 301.101 220.22 304.431 221 308.061C216.989 307.741 213.989 305.741 212 302.061C208.673 309.891 202.839 314.561 194.5 316.061C179.601 311.831 176.267 303.161 184.5 290.061C186.978 287.921 189.478 285.921 192 284.061Z" fill="#090909"/>
<path fill-rule="evenodd" clip-rule="evenodd" d="M189.999 288.062C192.947 287.782 195.78 288.122 198.499 289.062C199.119 293.642 197.286 296.972 192.999 299.062C188.109 296.402 187.109 292.732 189.999 288.062Z" fill="#F5F5F5"/>
<path fill-rule="evenodd" clip-rule="evenodd" d="M162 308.061C163.373 307.901 164.707 308.071 166 308.561C167.517 310.251 169.184 311.751 171 313.061C172.559 312.111 174.226 311.451 176 311.061C177.5 311.011 178.5 311.681 179 313.061C176.598 315.351 173.765 317.021 170.5 318.061C167.227 316.461 164.561 314.121 162.5 311.061C162.017 310.111 161.851 309.111 162 308.061Z" fill="#0F0F0F"/>
</svg>
