<svg width="500" height="500" viewBox="0 0 500 500" fill="none" xmlns="http://www.w3.org/2000/svg">
<path fill-rule="evenodd" clip-rule="evenodd" d="M274.999 153.062C277.289 157.182 280.449 160.522 284.499 163.062C287.079 169.222 290.409 174.892 294.499 180.062C295.169 185.062 295.169 190.062 294.499 195.062C292.499 198.452 289.669 199.952 285.999 199.562C278.619 193.202 270.289 188.372 260.999 185.062C261.129 189.442 260.789 193.772 259.999 198.062C259.329 198.062 258.999 198.392 258.999 199.062C257.339 204.212 254.339 208.382 249.999 211.562C247.669 212.232 245.329 212.232 242.999 211.562C241.099 209.832 239.429 208.002 237.999 206.062C237.569 202.282 236.229 198.952 233.999 196.062C232.729 191.912 231.059 187.912 228.999 184.062C219.029 191.702 209.689 200.042 200.999 209.062C198.329 209.062 195.669 209.062 192.999 209.062C187.409 200.652 186.079 191.652 188.999 182.062C188.499 181.732 187.999 181.392 187.499 181.062C181.219 184.152 174.719 186.652 167.999 188.562C163.999 189.232 159.999 189.232 155.999 188.562C152.619 187.532 151.459 185.362 152.499 182.062C159.369 170.642 167.869 160.642 177.999 152.062C190.539 145.442 203.869 141.442 217.999 140.062C216.769 133.602 215.769 127.102 214.999 120.562C215.259 119.302 215.929 118.302 216.999 117.562C222.249 116.762 227.419 116.922 232.499 118.062C233.119 125.082 232.959 132.082 231.999 139.062C241.169 142.062 250.499 144.562 259.999 146.562C265.289 148.212 270.289 150.372 274.999 153.062Z" fill="#68B131"/>
<path fill-rule="evenodd" clip-rule="evenodd" d="M375 342.062C370.35 345.792 365.01 348.292 359 349.562C346.5 352.442 333.84 354.102 321 354.562C308.93 364.772 295.26 372.102 280 376.562C261.37 378.972 242.7 380.972 224 382.562C214.96 383.282 205.96 382.942 197 381.562C184.97 379.082 172.97 376.412 161 373.562C129.38 363.602 109.88 342.442 102.5 310.062C95.5202 283.832 95.1802 257.502 101.5 231.062C103.39 225.612 105.56 220.272 108 215.062C101.91 193.792 98.7502 172.132 98.5002 150.062C101.22 143.772 105.06 138.272 110 133.562C114.76 131.292 119.76 129.792 125 129.062C131.72 130.242 138.39 131.742 145 133.562C156.71 138.742 167.71 144.912 178 152.062C167.87 160.642 159.37 170.642 152.5 182.062C151.46 185.362 152.62 187.532 156 188.562C160 189.232 164 189.232 168 188.562C174.72 186.652 181.22 184.152 187.5 181.062C188 181.392 188.5 181.732 189 182.062C186.08 191.652 187.41 200.652 193 209.062C193.63 212.512 195.63 213.682 199 212.562C200.32 211.742 200.99 210.582 201 209.062C209.69 200.042 219.03 191.702 229 184.062C231.06 187.912 232.73 191.912 234 196.062C232.11 195.862 230.61 196.522 229.5 198.062C227.74 203.892 229.41 208.222 234.5 211.062C237.04 210.352 238.21 208.692 238 206.062C239.43 208.002 241.1 209.832 243 211.562C245.33 212.232 247.67 212.232 250 211.562C254.34 208.382 257.34 204.212 259 199.062C260.96 201.742 262.46 204.742 263.5 208.062C267.26 210.872 269.76 209.872 271 205.062C269.85 202.762 268.68 200.432 267.5 198.062C265.01 195.472 262.51 195.472 260 198.062C260.79 193.772 261.13 189.442 261 185.062C270.29 188.372 278.62 193.202 286 199.562C289.67 199.952 292.5 198.452 294.5 195.062C295.17 190.062 295.17 185.062 294.5 180.062C290.41 174.892 287.08 169.222 284.5 163.062C280.45 160.522 277.29 157.182 275 153.062C278.94 149.092 283.27 145.592 288 142.562C297.75 138.092 307.42 133.422 317 128.562C325.74 125.472 333.24 127.312 339.5 134.062C341.12 138.272 343.12 142.272 345.5 146.062C346.65 169.632 344.82 192.962 340 216.062C342.47 221.682 344.97 227.342 347.5 233.062C348.21 239.022 349.88 244.692 352.5 250.062C353.61 257.202 354.44 264.362 355 271.562C355.46 291.892 350.46 310.732 340 328.062C340.33 328.392 340.67 328.732 341 329.062C346.18 326.642 351.51 324.472 357 322.562C364.97 315.592 372.64 308.262 380 300.562C388.36 294.162 396.2 294.662 403.5 302.062C404.57 307.332 403.9 312.332 401.5 317.062C396.71 323.522 391.54 329.692 386 335.562C382.61 338.252 378.94 340.422 375 342.062Z" fill="#FE3736"/>
<path fill-rule="evenodd" clip-rule="evenodd" d="M322.999 144.062C327.179 144.402 330.349 146.402 332.499 150.062C333.199 163.082 332.869 176.082 331.499 189.062C329.679 192.552 326.849 193.722 322.999 192.562C320.609 188.512 317.279 185.512 312.999 183.562C308.499 177.732 303.329 172.562 297.499 168.062C296.209 163.982 297.369 160.812 300.999 158.562C307.989 153.052 315.319 148.212 322.999 144.062Z" fill="#FFC8C8"/>
<path fill-rule="evenodd" clip-rule="evenodd" d="M119 146.062C129.99 148.672 139.49 154.012 147.5 162.062C153.42 169.492 151.92 174.662 143 177.562C138.08 181.572 134.25 186.412 131.5 192.062C127.22 199.122 122.22 199.792 116.5 194.062C113.18 180.242 111.18 166.242 110.5 152.062C112.73 148.962 115.57 146.962 119 146.062Z" fill="#FFC8C8"/>
<path fill-rule="evenodd" clip-rule="evenodd" d="M159.001 194.062C163.501 193.722 165.331 195.722 164.501 200.062C162.721 203.502 160.561 206.672 158.001 209.562C156.671 210.232 155.331 210.232 154.001 209.562C152.581 203.332 154.241 198.172 159.001 194.062Z" fill="#FFC930"/>
<path fill-rule="evenodd" clip-rule="evenodd" d="M298.001 195.062C299.791 194.772 301.451 195.112 303.001 196.062C304.931 198.912 307.091 201.582 309.501 204.062C310.331 208.562 308.501 210.392 304.001 209.562C300.871 207.432 298.041 204.932 295.501 202.062C294.831 200.732 294.831 199.392 295.501 198.062C296.541 197.192 297.381 196.192 298.001 195.062Z" fill="#FFCA30"/>
<path fill-rule="evenodd" clip-rule="evenodd" d="M234 196.062C236.23 198.952 237.57 202.282 238 206.062C238.21 208.692 237.04 210.352 234.5 211.062C229.41 208.222 227.74 203.892 229.5 198.062C230.61 196.522 232.11 195.862 234 196.062Z" fill="#FCCA30"/>
<path fill-rule="evenodd" clip-rule="evenodd" d="M259 199.062C259 198.392 259.33 198.062 260 198.062C262.51 195.472 265.01 195.472 267.5 198.062C268.68 200.432 269.85 202.762 271 205.062C269.76 209.872 267.26 210.872 263.5 208.062C262.46 204.742 260.96 201.742 259 199.062Z" fill="#FFC830"/>
<path fill-rule="evenodd" clip-rule="evenodd" d="M193 209.062C195.67 209.062 198.33 209.062 201 209.062C200.99 210.582 200.32 211.742 199 212.562C195.63 213.682 193.63 212.512 193 209.062Z" fill="#F7C730"/>
<path fill-rule="evenodd" clip-rule="evenodd" d="M119 231.062C121.85 230.912 123.52 232.252 124 235.062C123.36 238.032 122.86 241.032 122.5 244.062C120.43 246.212 118.09 246.542 115.5 245.062C114.79 239.892 115.96 235.222 119 231.062Z" fill="#FFCB30"/>
<path fill-rule="evenodd" clip-rule="evenodd" d="M172 243.062C170.2 245.462 167.87 247.132 165 248.062C163.89 243.482 163.73 238.812 164.5 234.062C166.83 231.392 169.17 231.392 171.5 234.062C172 237.042 172.16 240.042 172 243.062Z" fill="#FFCB31"/>
<path fill-rule="evenodd" clip-rule="evenodd" d="M294.001 232.062C297.881 231.432 299.711 233.102 299.501 237.062C300.171 239.732 300.171 242.392 299.501 245.062C296.871 247.752 294.531 247.422 292.501 244.062C291.491 239.762 291.991 235.762 294.001 232.062Z" fill="#FFC830"/>
<path fill-rule="evenodd" clip-rule="evenodd" d="M256 237.062C258.01 238.482 260.35 239.152 263 239.062C270.64 242.112 278.31 245.282 286 248.562C292.02 253.802 296.69 259.972 300 267.062C290.05 263.802 280.05 260.632 270 257.562C253.62 254.672 242.78 261.172 237.5 277.062C232.31 307.202 244.81 320.372 275 316.562C278.78 314.452 282.28 311.952 285.5 309.062C288.44 303.512 291.11 297.852 293.5 292.062C294.93 287.022 295.43 282.022 295 277.062C298.56 280.172 302.56 282.172 307 283.062C308.85 290.282 309.35 297.622 308.5 305.062C306.68 310.012 305.18 315.012 304 320.062C301 322.392 298.33 325.062 296 328.062C266.74 349.522 234.07 357.022 198 350.562C184.09 346.772 171.09 341.102 159 333.562C149.24 326.182 141.74 317.012 136.5 306.062C135.72 300.312 135.88 294.642 137 289.062C141.29 285.942 145.46 282.612 149.5 279.062C147.86 288.532 149.2 297.532 153.5 306.062C165.79 321.342 179.95 323.172 196 311.562C204.77 303.542 208.6 293.712 207.5 282.062C206.33 279.062 204.67 276.392 202.5 274.062C201.96 266.182 197.79 261.352 190 259.562C182.11 257.472 174.11 256.802 166 257.562C160.25 259.642 154.58 261.812 149 264.062C149.49 263.092 149.99 262.092 150.5 261.062C155.5 256.832 160.33 252.492 165 248.062C167.87 247.132 170.2 245.462 172 243.062C191.85 235.162 212.52 232.332 234 234.562C241.23 236.232 248.56 237.072 256 237.062Z" fill="#FAF8F8"/>
<path fill-rule="evenodd" clip-rule="evenodd" d="M263 239.062C260.35 239.152 258.01 238.482 256 237.062C259.57 232.802 261.9 233.472 263 239.062Z" fill="#FFCB38"/>
<path fill-rule="evenodd" clip-rule="evenodd" d="M335 234.062C338.8 234.202 340.47 236.202 340 240.062C339.82 242.792 339.32 245.452 338.5 248.062C334.66 252.392 331.83 251.892 330 246.562C330.41 241.802 332.08 237.642 335 234.062Z" fill="#FFC930"/>
<path fill-rule="evenodd" clip-rule="evenodd" d="M137.001 289.062C135.031 289.302 133.201 288.972 131.501 288.062C130.831 285.392 130.831 282.732 131.501 280.062C135.601 272.792 141.441 267.462 149.001 264.062C154.581 261.812 160.251 259.642 166.001 257.562C174.111 256.802 182.111 257.472 190.001 259.562C197.791 261.352 201.961 266.182 202.501 274.062C204.671 276.392 206.331 279.062 207.501 282.062C208.601 293.712 204.771 303.542 196.001 311.562C179.951 323.172 165.791 321.342 153.501 306.062C149.201 297.532 147.861 288.532 149.501 279.062C145.461 282.612 141.291 285.942 137.001 289.062Z" fill="#050404"/>
<path fill-rule="evenodd" clip-rule="evenodd" d="M299.999 267.062C301.339 267.872 302.339 269.042 302.999 270.562C307.249 272.932 311.419 275.432 315.499 278.062C316.319 280.262 315.819 282.092 313.999 283.562C311.619 284.122 309.279 283.952 306.999 283.062C302.559 282.172 298.559 280.172 294.999 277.062C295.429 282.022 294.929 287.022 293.499 292.062C291.109 297.852 288.439 303.512 285.499 309.062C282.279 311.952 278.779 314.452 274.999 316.562C244.809 320.372 232.309 307.202 237.499 277.062C242.779 261.172 253.619 254.672 269.999 257.562C280.049 260.632 290.049 263.802 299.999 267.062Z" fill="#050505"/>
<path fill-rule="evenodd" clip-rule="evenodd" d="M254 265.062C256.36 264.902 258.69 265.062 261 265.562C262.83 266.062 264 267.232 264.5 269.062C264.79 274.162 264.12 279.162 262.5 284.062C254.51 289.362 248.51 287.702 244.5 279.062C243.79 276.592 244.13 274.262 245.5 272.062C248.21 269.462 251.04 267.132 254 265.062Z" fill="#F7F7F7"/>
<path fill-rule="evenodd" clip-rule="evenodd" d="M185 267.062C192.09 266.982 195.75 270.482 196 277.562C195.81 285.142 192.14 289.972 185 292.062C179.12 290.322 176.12 286.322 176 280.062C177.28 274.492 180.28 270.162 185 267.062Z" fill="#F5F5F5"/>
<path fill-rule="evenodd" clip-rule="evenodd" d="M106.001 277.062C112.091 277.702 114.761 281.202 114.001 287.562C113.361 290.852 111.361 291.852 108.001 290.562C104.301 286.332 103.631 281.832 106.001 277.062Z" fill="#FFC930"/>
<path fill-rule="evenodd" clip-rule="evenodd" d="M320 281.062C323.33 280.392 325.33 281.732 326 285.062C325.07 287.362 324.23 289.692 323.5 292.062C319.62 298.862 316.45 298.692 314 291.562C314.85 287.362 316.85 283.862 320 281.062Z" fill="#FFC630"/>
<path fill-rule="evenodd" clip-rule="evenodd" d="M392 308.062C398.13 307.812 399.63 310.472 396.5 316.062C392.68 319.062 390.52 318.062 390 313.062C389.94 311.052 390.6 309.382 392 308.062Z" fill="#FFC930"/>
<path fill-rule="evenodd" clip-rule="evenodd" d="M374 311.062C377.63 310.722 379.3 312.382 379 316.062C379.01 321.552 376.51 323.222 371.5 321.062C370.36 317.142 371.19 313.812 374 311.062Z" fill="#FFC930"/>
<path fill-rule="evenodd" clip-rule="evenodd" d="M127 317.062C134.14 318.032 137.98 322.032 138.5 329.062C135.38 331.382 132.38 331.052 129.5 328.062C126.29 324.852 125.46 321.182 127 317.062Z" fill="#FFCB30"/>
<path fill-rule="evenodd" clip-rule="evenodd" d="M329.001 318.062C332.991 317.382 334.661 319.052 334.001 323.062C334.141 327.132 332.471 330.132 329.001 332.062C326.161 331.562 324.831 329.892 325.001 327.062C325.531 323.672 326.861 320.672 329.001 318.062Z" fill="#FFCA30"/>
<path fill-rule="evenodd" clip-rule="evenodd" d="M238.001 321.062C243.001 320.232 245.171 322.232 244.501 327.062C241.711 332.182 237.881 336.352 233.001 339.562C230.591 340.042 228.251 339.712 226.001 338.562C222.221 336.342 218.221 334.672 214.001 333.562C210.741 329.012 211.911 326.512 217.501 326.062C220.911 326.512 224.081 327.682 227.001 329.562C228.671 330.232 230.331 330.232 232.001 329.562C234.221 326.852 236.221 324.012 238.001 321.062Z" fill="#0D0D0D"/>
<path fill-rule="evenodd" clip-rule="evenodd" d="M303.999 320.062C305.319 325.492 304.819 330.822 302.499 336.062C300.499 337.392 298.499 337.392 296.499 336.062C295.999 333.412 295.839 330.752 295.999 328.062C298.329 325.062 300.999 322.392 303.999 320.062Z" fill="#FFC930"/>
<path fill-rule="evenodd" clip-rule="evenodd" d="M347 328.062C353.45 328.822 354.62 331.822 350.5 337.062C346.68 340.062 344.52 339.062 344 334.062C344.13 331.612 345.13 329.612 347 328.062Z" fill="#FFC730"/>
<path fill-rule="evenodd" clip-rule="evenodd" d="M375 342.062C373.02 342.722 371.02 343.382 369 344.062C366.89 343.782 365.56 342.622 365 340.562C367.21 335.022 371.21 333.022 377 334.562C377.58 335.452 377.91 336.452 378 337.562C377.49 339.452 376.49 340.952 375 342.062Z" fill="#FFCB2F"/>
<path fill-rule="evenodd" clip-rule="evenodd" d="M165 354.062C167.29 353.802 169.46 354.142 171.5 355.062C172.01 358.052 173.18 360.722 175 363.062C173.45 367.572 170.79 368.242 167 365.062C162.93 361.822 162.26 358.162 165 354.062Z" fill="#FFC930"/>
<path fill-rule="evenodd" clip-rule="evenodd" d="M279.999 354.062C283.839 353.572 285.839 355.232 285.999 359.062C285.209 365.052 282.039 367.712 276.499 367.062C275.889 362.282 277.049 357.942 279.999 354.062Z" fill="#FFCA30"/>
<path fill-rule="evenodd" clip-rule="evenodd" d="M203 356.062C207.63 356.862 209.96 359.702 210 364.562C209.6 368.302 207.6 369.632 204 368.562C200.8 364.462 200.47 360.302 203 356.062Z" fill="#FFCA30"/>
<path fill-rule="evenodd" clip-rule="evenodd" d="M236.999 357.062C239.539 356.662 241.709 357.332 243.499 359.062C244.169 362.392 244.169 365.732 243.499 369.062C242.079 370.922 240.249 371.422 237.999 370.562C235.859 366.172 235.529 361.672 236.999 357.062Z" fill="#FFCA30"/>
</svg>
