<svg width="500" height="500" viewBox="0 0 500 500" fill="none" xmlns="http://www.w3.org/2000/svg">
<path fill-rule="evenodd" clip-rule="evenodd" d="M366 227.062C362.3 221.702 358.63 216.372 355 211.062C352.34 205.752 349.18 200.752 345.5 196.062C338.33 188.232 331.17 180.392 324 172.562C317.35 168.962 310.68 165.462 304 162.062C278.75 149.922 252.58 140.252 225.5 133.062C225.12 133.622 224.62 133.952 224 134.062C218.44 132.642 212.78 131.142 207 129.562C188.13 128.692 169.29 129.192 150.5 131.062C146.95 130.982 143.45 130.652 140 130.062C130.51 119.492 128.35 107.492 133.5 94.0622C140 84.0522 149.17 77.8822 161 75.5622C226.62 70.5522 287.62 84.8822 344 118.562C368.02 134.582 387.19 155.082 401.5 180.062C405.53 195.072 404.53 209.742 398.5 224.062C391.42 231.622 382.92 233.792 373 230.562C370.61 229.372 368.28 228.202 366 227.062Z" fill="#E47607"/>
<path fill-rule="evenodd" clip-rule="evenodd" d="M224.001 134.062C221.701 139.682 221.861 145.342 224.501 151.062C228.491 157.692 232.491 164.362 236.501 171.062C255.791 184.802 275.631 185.632 296.001 173.562C300.081 170.662 302.751 166.822 304.001 162.062C310.681 165.462 317.351 168.962 324.001 172.562C331.171 180.392 338.331 188.232 345.501 196.062C349.181 200.752 352.341 205.752 355.001 211.062C347.701 218.192 340.201 225.192 332.501 232.062C327.681 237.712 323.341 243.712 319.501 250.062C316.561 256.022 316.391 262.022 319.001 268.062C319.821 268.952 320.821 269.282 322.001 269.062C320.291 274.102 319.461 279.442 319.501 285.062C315.341 296.722 308.171 299.062 298.001 292.062C296.361 281.502 295.521 270.832 295.501 260.062C294.831 259.392 294.171 258.732 293.501 258.062C288.381 265.512 282.881 272.682 277.001 279.562C273.441 282.452 269.441 284.452 265.001 285.562C262.191 287.542 259.521 289.702 257.001 292.062C253.951 298.152 250.951 304.152 248.001 310.062C247.841 308.032 248.001 306.032 248.501 304.062C253.031 295.482 257.361 286.812 261.501 278.062C262.971 272.992 261.301 269.662 256.501 268.062C254.791 268.002 253.461 268.672 252.501 270.062C250.791 280.522 247.131 290.182 241.501 299.062C240.091 299.972 238.591 299.972 237.001 299.062C242.741 291.802 242.081 284.972 235.001 278.562C232.621 277.842 230.621 276.682 229.001 275.062C235.531 274.132 240.861 271.132 245.001 266.062C248.081 264.772 250.911 263.102 253.501 261.062C255.081 256.292 257.421 251.962 260.501 248.062C261.661 244.142 262.161 240.142 262.001 236.062C266.481 238.172 268.311 236.832 267.501 232.062C262.511 228.562 257.671 224.892 253.001 221.062C230.781 196.922 203.781 189.752 172.001 199.562C166.541 200.792 161.871 203.292 158.001 207.062C150.661 208.232 144.331 211.392 139.001 216.562C137.321 219.122 136.651 221.962 137.001 225.062C141.431 225.672 145.101 224.342 148.001 221.062C141.561 247.342 151.231 264.842 177.001 273.562C185.001 275.832 193.001 277.332 201.001 278.062C198.721 280.282 197.891 282.952 198.501 286.062C200.971 290.192 203.811 294.032 207.001 297.562C207.601 301.022 207.771 304.522 207.501 308.062C211.811 312.382 216.981 313.882 223.001 312.562C224.301 309.072 225.971 305.742 228.001 302.562C229.271 302.252 230.431 301.752 231.501 301.062C231.781 301.982 232.281 302.642 233.001 303.062C234.501 304.742 236.331 306.072 238.501 307.062C239.461 309.542 240.291 312.042 241.001 314.562C243.341 315.312 245.341 314.812 247.001 313.062C244.061 318.102 240.721 322.932 237.001 327.562C232.661 329.602 228.161 331.102 223.501 332.062C224.511 339.192 222.351 345.022 217.001 349.562C215.001 350.232 213.001 350.232 211.001 349.562C208.431 346.992 205.931 344.492 203.501 342.062C197.201 352.312 189.701 361.652 181.001 370.062C179.781 382.912 180.111 395.582 182.001 408.062C182.491 413.262 181.821 418.262 180.001 423.062C171.681 428.372 165.341 426.702 161.001 418.062C161.131 415.912 160.631 413.912 159.501 412.062C159.311 403.812 159.141 395.642 159.001 387.562C158.001 386.892 157.001 386.892 156.001 387.562C153.781 389.862 152.121 392.532 151.001 395.562C143.301 398.812 135.301 399.812 127.001 398.562C125.521 397.902 124.181 397.062 123.001 396.062C120.001 393.892 117.501 391.232 115.501 388.062C112.871 381.862 110.701 375.532 109.001 369.062C113.721 370.012 117.561 368.672 120.501 365.062C124.151 353.342 121.651 343.172 113.001 334.562C107.981 332.272 103.311 332.772 99.0008 336.062C95.1408 299.802 96.6408 263.802 103.501 228.062C105.131 218.372 107.631 209.042 111.001 200.062C114.261 208.192 120.261 211.362 129.001 209.562C140.011 205.882 146.851 198.382 149.501 187.062C150.171 180.732 150.171 174.392 149.501 168.062C145.511 158.592 138.341 154.252 128.001 155.062C131.751 146.572 135.751 138.242 140.001 130.062C143.451 130.652 146.951 130.982 150.501 131.062C169.291 129.192 188.131 128.692 207.001 129.562C212.781 131.142 218.441 132.642 224.001 134.062Z" fill="#FED457"/>
<path fill-rule="evenodd" clip-rule="evenodd" d="M303.999 162.062C302.749 166.822 300.079 170.662 295.999 173.562C275.629 185.632 255.789 184.802 236.499 171.062C232.489 164.362 228.489 157.692 224.499 151.062C221.859 145.342 221.699 139.682 223.999 134.062C224.619 133.952 225.119 133.622 225.499 133.062C252.579 140.252 278.749 149.922 303.999 162.062Z" fill="#D51511"/>
<path fill-rule="evenodd" clip-rule="evenodd" d="M180 148.062C178.56 149.382 177.89 151.052 178 153.062C172.17 154.712 168.01 158.382 165.5 164.062C161.55 169.922 156.89 170.582 151.5 166.062C152.71 154.842 158.55 147.012 169 142.562C174.68 140.732 178.34 142.562 180 148.062Z" fill="#69B231"/>
<path fill-rule="evenodd" clip-rule="evenodd" d="M178 153.062C177.89 151.052 178.56 149.382 180 148.062C184.28 145.302 188.94 144.472 194 145.562C195.41 148.002 196.74 150.502 198 153.062C203.83 150.892 208.66 152.222 212.5 157.062C212.92 169.332 207.09 177.162 195 180.562C184.2 182.272 178.7 177.772 178.5 167.062C179.47 165.262 180.64 163.592 182 162.062C180.64 159.052 179.31 156.052 178 153.062Z" fill="#D9967A"/>
<path fill-rule="evenodd" clip-rule="evenodd" d="M128 155.062C138.34 154.252 145.51 158.592 149.5 168.062C150.17 174.392 150.17 180.732 149.5 187.062C146.85 198.382 140.01 205.882 129 209.562C120.26 211.362 114.26 208.192 111 200.062C102.42 179.572 108.09 164.572 128 155.062Z" fill="#D51411"/>
<path fill-rule="evenodd" clip-rule="evenodd" d="M295 214.062C291.28 212.982 287.61 211.642 284 210.062C278.1 197.682 281.43 188.512 294 182.562C305.68 179.562 315.51 182.392 323.5 191.062C325.72 195.152 326.39 199.492 325.5 204.062C322.52 206.592 319.35 208.762 316 210.562C317.81 213.872 318.31 217.372 317.5 221.062C311.85 223.052 306.02 223.552 300 222.562C298.17 219.632 296.5 216.802 295 214.062Z" fill="#D9967A"/>
<path fill-rule="evenodd" clip-rule="evenodd" d="M252.999 221.062C247.919 219.162 242.919 216.992 237.999 214.562C222.739 211.122 213.899 217.292 211.499 233.062C209.349 245.272 214.179 253.102 225.999 256.562C233.509 258.172 240.009 256.332 245.499 251.062C250.259 245.212 253.089 238.552 253.999 231.062C256.429 233.272 259.089 234.932 261.999 236.062C262.159 240.142 261.659 244.142 260.499 248.062C257.419 251.962 255.079 256.292 253.499 261.062C250.909 263.102 248.079 264.772 244.999 266.062C240.859 271.132 235.529 274.132 228.999 275.062C219.849 277.242 210.509 278.242 200.999 278.062C192.999 277.332 184.999 275.832 176.999 273.562C151.229 264.842 141.559 247.342 147.999 221.062C148.959 220.612 149.789 219.942 150.499 219.062C150.669 219.562 150.829 220.062 150.999 220.562C147.379 232.092 150.379 241.432 159.999 248.562C172.579 251.862 182.409 248.022 189.499 237.062C191.029 232.852 191.369 228.522 190.499 224.062C188.649 220.992 187.649 217.662 187.499 214.062C178.919 206.712 169.089 204.372 157.999 207.062C161.869 203.292 166.539 200.792 171.999 199.562C203.779 189.752 230.779 196.922 252.999 221.062Z" fill="#F9F8F8"/>
<path fill-rule="evenodd" clip-rule="evenodd" d="M148 221.062C145.1 224.342 141.43 225.672 137 225.062C136.65 221.962 137.32 219.122 139 216.562C144.33 211.392 150.66 208.232 158 207.062C169.09 204.372 178.92 206.712 187.5 214.062C187.65 217.662 188.65 220.992 190.5 224.062C191.37 228.522 191.03 232.852 189.5 237.062C182.41 248.022 172.58 251.862 160 248.562C150.38 241.432 147.38 232.092 151 220.562C150.83 220.062 150.67 219.562 150.5 219.062C149.79 219.942 148.96 220.612 148 221.062Z" fill="#040404"/>
<path fill-rule="evenodd" clip-rule="evenodd" d="M284.001 210.062C287.611 211.642 291.281 212.982 295.001 214.062C296.221 223.402 294.381 232.072 289.501 240.062C286.761 241.172 283.931 241.342 281.001 240.562C279.451 238.742 278.791 236.572 279.001 234.062C281.101 226.112 282.761 218.112 284.001 210.062Z" fill="#69B231"/>
<path fill-rule="evenodd" clip-rule="evenodd" d="M355.001 211.062C358.631 216.372 362.301 221.702 366.001 227.062C362.271 232.952 357.271 237.782 351.001 241.562C341.771 251.302 332.101 260.462 322.001 269.062C320.821 269.282 319.821 268.952 319.001 268.062C316.391 262.022 316.561 256.022 319.501 250.062C323.341 243.712 327.681 237.712 332.501 232.062C340.201 225.192 347.701 218.192 355.001 211.062Z" fill="#FEBD0A"/>
<path fill-rule="evenodd" clip-rule="evenodd" d="M253.001 221.062C257.671 224.892 262.511 228.562 267.501 232.062C268.311 236.832 266.481 238.172 262.001 236.062C259.091 234.932 256.431 233.272 254.001 231.062C253.091 238.552 250.261 245.212 245.501 251.062C240.011 256.332 233.511 258.172 226.001 256.562C214.181 253.102 209.351 245.272 211.501 233.062C213.901 217.292 222.741 211.122 238.001 214.562C242.921 216.992 247.921 219.162 253.001 221.062Z" fill="#050505"/>
<path fill-rule="evenodd" clip-rule="evenodd" d="M176 214.062C184.39 215.862 186.22 220.532 181.5 228.062C175.15 233.812 170.99 232.482 169 224.062C170.35 220.012 172.69 216.682 176 214.062Z" fill="#F2F2F2"/>
<path fill-rule="evenodd" clip-rule="evenodd" d="M225.999 218.062C230.179 217.912 232.519 219.912 232.999 224.062C231.979 226.622 231.139 229.282 230.499 232.062C227.569 235.682 224.239 236.012 220.499 233.062C217.809 229.602 217.469 225.932 219.499 222.062C221.939 220.992 224.099 219.662 225.999 218.062Z" fill="#F1F1F1"/>
<path fill-rule="evenodd" clip-rule="evenodd" d="M130.001 243.062C129.061 251.002 128.731 259.002 129.001 267.062C127.671 266.392 126.331 265.732 125.001 265.062C121.991 259.092 119.831 252.752 118.501 246.062C116.781 238.782 119.611 235.612 127.001 236.562C128.291 238.612 129.291 240.782 130.001 243.062Z" fill="#67AD31"/>
<path fill-rule="evenodd" clip-rule="evenodd" d="M141 284.062C140.76 283.462 140.26 283.132 139.5 283.062C127.24 290.312 124.41 287.812 131 275.562C130.09 272.772 129.43 269.942 129 267.062C128.73 259.002 129.06 251.002 130 243.062C132.17 241.792 134.34 241.792 136.5 243.062C136.39 254.242 137.55 265.242 140 276.062C145.08 276.392 146.74 278.892 145 283.562C143.71 284.052 142.37 284.222 141 284.062Z" fill="#252425"/>
<path fill-rule="evenodd" clip-rule="evenodd" d="M209 257.062C211.76 256.472 213.43 257.472 214 260.062C211.39 266.542 206.73 269.372 200 268.562C197.42 266.352 194.59 264.522 191.5 263.062C190.33 258.892 191.83 257.392 196 258.562C198.43 260.192 200.93 261.692 203.5 263.062C206.02 261.702 207.85 259.702 209 257.062Z" fill="#0B0B0B"/>
<path fill-rule="evenodd" clip-rule="evenodd" d="M297.999 292.062C261.849 320.372 228.349 351.702 197.499 386.062C192.569 393.602 187.399 400.932 181.999 408.062C180.109 395.582 179.779 382.912 180.999 370.062C189.699 361.652 197.199 352.312 203.499 342.062C205.929 344.492 208.429 346.992 210.999 349.562C212.999 350.232 214.999 350.232 216.999 349.562C222.349 345.022 224.509 339.192 223.499 332.062C228.159 331.102 232.659 329.602 236.999 327.562C240.719 322.932 244.059 318.102 246.999 313.062C247.059 311.952 247.389 310.952 247.999 310.062C250.949 304.152 253.949 298.152 256.999 292.062C259.519 289.702 262.189 287.542 264.999 285.562C269.439 284.452 273.439 282.452 276.999 279.562C282.879 272.682 288.379 265.512 293.499 258.062C294.169 258.732 294.829 259.392 295.499 260.062C295.519 270.832 296.359 281.502 297.999 292.062Z" fill="#FEBD0A"/>
<path fill-rule="evenodd" clip-rule="evenodd" d="M248 310.062C247.39 310.952 247.06 311.952 247 313.062C245.34 314.812 243.34 315.312 241 314.562C240.29 312.042 239.46 309.542 238.5 307.062C236.33 306.072 234.5 304.742 233 303.062C232.67 300.062 234 298.732 237 299.062C238.59 299.972 240.09 299.972 241.5 299.062C247.13 290.182 250.79 280.522 252.5 270.062C253.46 268.672 254.79 268.002 256.5 268.062C261.3 269.662 262.97 272.992 261.5 278.062C257.36 286.812 253.03 295.482 248.5 304.062C248 306.032 247.84 308.032 248 310.062Z" fill="#262525"/>
<path fill-rule="evenodd" clip-rule="evenodd" d="M229 275.062C230.62 276.682 232.62 277.842 235 278.562C242.08 284.972 242.74 291.802 237 299.062C234 298.732 232.67 300.062 233 303.062C232.28 302.642 231.78 301.982 231.5 301.062C230.43 301.752 229.27 302.252 228 302.562C225.97 305.742 224.3 309.072 223 312.562C216.98 313.882 211.81 312.382 207.5 308.062C207.77 304.522 207.6 301.022 207 297.562C203.81 294.032 200.97 290.192 198.5 286.062C197.89 282.952 198.72 280.282 201 278.062C210.51 278.242 219.85 277.242 229 275.062Z" fill="#D9967A"/>
<path fill-rule="evenodd" clip-rule="evenodd" d="M159.001 282.062C168.941 281.212 177.941 283.712 186.001 289.562C193.581 298.342 196.081 308.512 193.501 320.062C185.461 342.492 170.301 349.332 148.001 340.562C136.851 326.992 135.021 312.162 142.501 296.062C146.701 289.682 152.201 285.022 159.001 282.062Z" fill="#D51511"/>
<path fill-rule="evenodd" clip-rule="evenodd" d="M125 265.062C126.33 265.732 127.67 266.392 129 267.062C129.43 269.942 130.09 272.772 131 275.562C124.41 287.812 127.24 290.312 139.5 283.062C140.26 283.132 140.76 283.462 141 284.062C139.43 286.982 137.43 289.822 135 292.562C132.82 293.762 130.49 294.262 128 294.062C128.28 296.832 127.61 299.332 126 301.562C121.67 302.232 117.33 302.232 113 301.562C112.5 301.062 112 300.562 111.5 300.062C111.32 296.682 110.82 293.342 110 290.062C106.68 288.262 105.01 285.422 105 281.562C106.43 269.632 113.09 264.132 125 265.062Z" fill="#D79479"/>
<path fill-rule="evenodd" clip-rule="evenodd" d="M108.999 369.062C98.0289 360.472 94.6989 349.472 98.9989 336.062C103.309 332.772 107.979 332.272 112.999 334.562C121.649 343.172 124.149 353.342 120.499 365.062C117.559 368.672 113.719 370.012 108.999 369.062Z" fill="#D51512"/>
<path fill-rule="evenodd" clip-rule="evenodd" d="M139.001 347.062C141.821 346.812 144.491 347.312 147.001 348.562C150.471 353.672 154.311 358.502 158.501 363.062C159.171 364.732 159.171 366.392 158.501 368.062C156.311 369.952 154.481 372.122 153.001 374.562C150.191 374.642 147.861 373.472 146.001 371.062C141.921 366.472 138.421 361.472 135.501 356.062C134.831 354.392 134.831 352.732 135.501 351.062C136.881 349.852 138.041 348.522 139.001 347.062Z" fill="#69B231"/>
<path fill-rule="evenodd" clip-rule="evenodd" d="M161 418.062C151.61 419.332 142.95 417.162 135 411.562C132.59 409.602 130.09 407.772 127.5 406.062C125.71 402.822 124.21 399.492 123 396.062C124.18 397.062 125.52 397.902 127 398.562C135.3 399.812 143.3 398.812 151 395.562C152.12 392.532 153.78 389.862 156 387.562C157 386.892 158 386.892 159 387.562C159.14 395.642 159.31 403.812 159.5 412.062C160.63 413.912 161.13 415.912 161 418.062Z" fill="#FEBD0D"/>
</svg>
