<svg width="500" height="500" viewBox="0 0 500 500" fill="none" xmlns="http://www.w3.org/2000/svg">
<path fill-rule="evenodd" clip-rule="evenodd" d="M184 323.061C184.3 322.411 184.64 321.741 185 321.061C180.73 315.781 177.9 309.781 176.5 303.061C175.27 300.141 173.77 297.471 172 295.061C173.35 291.001 172.85 287.001 170.5 283.061C165.89 259.571 167.56 236.571 175.5 214.061C181.57 199.571 189.4 186.241 199 174.061C198.5 173.061 198 172.061 197.5 171.061C196.83 159.391 196.83 147.731 197.5 136.061C198.5 132.391 199.5 128.731 200.5 125.061C200.97 123.631 201.8 122.461 203 121.561C207.21 120.031 211.54 119.691 216 120.561C223.94 123.531 231.28 127.531 238 132.561C243.96 134.881 249.8 137.381 255.5 140.061C272.65 134.621 290.149 133.451 307.999 136.561C320.749 138.621 332.919 142.461 344.499 148.061C352.209 144.701 359.709 140.861 366.999 136.561C374.959 132.791 383.289 131.121 391.999 131.561C395.079 132.351 397.249 134.181 398.499 137.061C400.969 154.951 398.799 172.291 391.999 189.061C396.559 199.181 401.389 209.181 406.499 219.061C414.609 236.221 417.279 254.221 414.499 273.061C412.779 283.871 410.449 294.541 407.499 305.061C401.509 315.691 395.509 326.361 389.499 337.061C358.949 373.031 320.11 386.861 273 378.561C242.1 374.031 216.27 360.201 195.5 337.061C192.92 333.561 190.58 329.901 188.5 326.061C186.89 325.171 185.39 324.171 184 323.061Z" fill="#B1ADAE"/>
<path fill-rule="evenodd" clip-rule="evenodd" d="M216 139.061C223.73 139.751 231.06 141.921 238 145.561C240.67 147.891 240.67 150.231 238 152.561C230.45 157.491 223.12 162.661 216 168.061C214.41 167.551 213.25 166.551 212.5 165.061C211.02 157.451 210.69 149.781 211.5 142.061C212.91 140.781 214.41 139.781 216 139.061Z" fill="#564D50"/>
<path fill-rule="evenodd" clip-rule="evenodd" d="M378.999 146.061C386.099 146.841 389.099 150.841 387.999 158.061C387.639 164.651 386.139 170.991 383.499 177.061C381.169 178.391 378.829 178.391 376.499 177.061C373.579 172.141 369.919 167.811 365.499 164.061C363.059 161.521 362.559 158.691 363.999 155.561C369.169 152.531 374.169 149.361 378.999 146.061Z" fill="#564D50"/>
<path fill-rule="evenodd" clip-rule="evenodd" d="M283 190.061C280.83 185.951 277.33 183.951 272.5 184.061C258.27 185.511 246.27 191.511 236.5 202.061C235.83 203.731 235.83 205.391 236.5 207.061C240.92 211.851 246.42 214.351 253 214.561C260.99 215.061 268.99 215.231 277 215.061C276.72 213.151 277.05 211.481 278 210.061C277.83 213.741 278 217.411 278.5 221.061C280.61 223.681 283.11 225.681 286 227.061C270.98 227.071 255.98 226.571 241 225.561C233.86 225.471 226.86 224.471 220 222.561C215.16 219.741 213 215.571 213.5 210.061C214.81 208.791 216.31 207.791 218 207.061C215.39 206.241 212.73 205.741 210 205.561C207.19 204.251 206.36 202.091 207.5 199.061C216.89 191.781 227.05 185.611 238 180.561C248.9 176.881 260.07 174.381 271.5 173.061C274.42 173.361 276.76 174.691 278.5 177.061C279.52 181.441 281.36 185.441 284 189.061C283.88 189.671 283.54 190.001 283 190.061Z" fill="#E7D4D0"/>
<path fill-rule="evenodd" clip-rule="evenodd" d="M308 226.061C310.44 223.191 311.77 219.851 312 216.061C324.47 214.731 336.8 212.571 349 209.561C350.69 207.651 351.19 205.481 350.5 203.061C343.13 193.961 333.63 188.961 322 188.061C321.67 188.061 321.33 188.061 321 188.061C315.96 186.561 310.96 186.891 306 189.061C307.51 177.141 314.18 172.301 326 174.561C339.36 178.241 352.03 183.581 364 190.561C368.04 191.961 372.04 193.301 376 194.561C380.63 199.581 379.63 203.081 373 205.061C376.23 209.711 375.23 213.211 370 215.561C349.75 221.351 329.08 224.851 308 226.061Z" fill="#E7D4D0"/>
<path fill-rule="evenodd" clip-rule="evenodd" d="M283.001 190.061C284.321 192.031 285.661 194.031 287.001 196.061C291.631 197.221 296.301 197.391 301.001 196.561C302.321 193.741 303.981 191.241 306.001 189.061C310.961 186.891 315.961 186.561 321.001 188.061C311.381 189.691 309.381 194.691 315.001 203.061C319.241 204.771 322.741 203.771 325.501 200.061C326.261 198.491 326.101 197.161 325.001 196.061C325.071 194.601 324.731 193.271 324.001 192.061C324.441 192.131 324.771 191.961 325.001 191.561C323.791 190.521 322.791 189.351 322.001 188.061C333.631 188.961 343.131 193.961 350.501 203.061C351.191 205.481 350.691 207.651 349.001 209.561C336.801 212.571 324.471 214.731 312.001 216.061C310.911 210.511 307.911 206.511 303.001 204.061C304.211 202.681 303.871 201.511 302.001 200.561C296.971 198.141 291.631 197.471 286.001 198.561C283.871 200.121 283.531 201.951 285.001 204.061C281.451 204.611 279.111 206.611 278.001 210.061C277.051 211.481 276.721 213.151 277.001 215.061C268.991 215.231 260.991 215.061 253.001 214.561C246.421 214.351 240.921 211.851 236.501 207.061C235.831 205.391 235.831 203.731 236.501 202.061C246.271 191.511 258.271 185.511 272.501 184.061C277.331 183.951 280.831 185.951 283.001 190.061Z" fill="#574E51"/>
<path fill-rule="evenodd" clip-rule="evenodd" d="M272.001 190.061C266.351 191.191 265.681 193.691 270.001 197.561C271.851 198.331 273.191 197.831 274.001 196.061C275.611 199.681 274.271 201.851 270.001 202.561C261.661 203.891 258.501 200.391 260.501 192.061C263.871 187.701 267.711 187.031 272.001 190.061Z" fill="#242424"/>
<path fill-rule="evenodd" clip-rule="evenodd" d="M271.999 190.061C272.979 191.371 273.979 192.711 274.999 194.061C274.639 194.741 274.299 195.411 273.999 196.061C273.189 197.831 271.849 198.331 269.999 197.561C265.679 193.691 266.349 191.191 271.999 190.061Z" fill="#E7E7E7"/>
<path fill-rule="evenodd" clip-rule="evenodd" d="M321.001 188.061C321.331 188.061 321.671 188.061 322.001 188.061C322.791 189.351 323.791 190.521 325.001 191.561C324.771 191.961 324.441 192.131 324.001 192.061C322.331 192.061 320.671 192.061 319.001 192.061C319.001 194.061 319.001 196.061 319.001 198.061C321.511 198.511 323.511 197.841 325.001 196.061C326.101 197.161 326.261 198.491 325.501 200.061C322.741 203.771 319.241 204.771 315.001 203.061C309.381 194.691 311.381 189.691 321.001 188.061Z" fill="#262626"/>
<path fill-rule="evenodd" clip-rule="evenodd" d="M324 192.061C324.73 193.271 325.07 194.601 325 196.061C323.51 197.841 321.51 198.511 319 198.061C319 196.061 319 194.061 319 192.061C320.67 192.061 322.33 192.061 324 192.061Z" fill="#F3F3F3"/>
<path fill-rule="evenodd" clip-rule="evenodd" d="M302.999 204.061C303.149 205.111 302.979 206.111 302.499 207.061C297.719 208.771 296.889 211.601 299.999 215.561C302.259 215.801 304.429 216.301 306.499 217.061C307.119 218.011 306.949 218.841 305.999 219.561C301.049 220.191 297.219 218.361 294.499 214.061C291.889 216.441 289.059 218.441 285.999 220.061C283.579 219.841 282.579 218.511 282.999 216.061C287.049 216.021 289.709 214.021 290.999 210.061C288.649 208.371 286.649 206.371 284.999 204.061C283.529 201.951 283.869 200.121 285.999 198.561C291.629 197.471 296.969 198.141 301.999 200.561C303.869 201.511 304.209 202.681 302.999 204.061Z" fill="#242424"/>
<path fill-rule="evenodd" clip-rule="evenodd" d="M284.999 204.061C286.649 206.371 288.649 208.371 290.999 210.061C289.709 214.021 287.049 216.021 282.999 216.061C282.579 218.511 283.579 219.841 285.999 220.061C289.059 218.441 291.889 216.441 294.499 214.061C297.219 218.361 301.049 220.191 305.999 219.561C306.949 218.841 307.119 218.011 306.499 217.061C304.429 216.301 302.259 215.801 299.999 215.561C296.889 211.601 297.719 208.771 302.499 207.061C302.979 206.111 303.149 205.111 302.999 204.061C307.909 206.511 310.909 210.511 311.999 216.061C311.769 219.851 310.439 223.191 307.999 226.061C300.779 228.331 293.449 228.671 285.999 227.061C283.109 225.681 280.609 223.681 278.499 221.061C277.999 217.411 277.829 213.741 277.999 210.061C279.109 206.611 281.449 204.611 284.999 204.061Z" fill="#F7F7F7"/>
<path fill-rule="evenodd" clip-rule="evenodd" d="M134 256.061C120.15 261.611 107.49 269.111 96.0003 278.561C93.4203 280.021 90.7603 281.181 88.0003 282.061C83.5603 270.291 84.7203 258.951 91.5003 248.061C101.22 239.391 111.39 238.891 122 246.561C126.47 249.211 130.47 252.381 134 256.061Z" fill="#564D50"/>
<path fill-rule="evenodd" clip-rule="evenodd" d="M366 279.061C363.55 277.781 361.22 276.281 359 274.561C349.83 271.311 340.5 268.641 331 266.561C318.73 266.141 310.9 271.971 307.5 284.061C302.53 310.421 313.36 321.921 340 318.561C343.74 316.821 346.91 314.321 349.5 311.061C354.5 302.911 357.33 294.241 358 285.061C361.56 287.841 365.56 289.511 370 290.061C372.66 312.581 364.32 329.411 345 340.561C322.19 348.141 298.86 350.141 275 346.561C262.91 344.791 251.24 341.621 240 337.061C228.68 329.601 222.35 319.101 221 305.561C221.99 301.441 222.66 297.271 223 293.061C225.52 290.861 228.02 288.531 230.5 286.061C228.09 300.371 232.93 311.531 245 319.561C260.79 322.751 272.29 317.251 279.5 303.061C281.84 299.001 282.51 294.671 281.5 290.061C278.59 284.911 276.25 279.571 274.5 274.061C271.64 271.041 268.14 269.211 264 268.561C253.65 265.911 243.65 266.741 234 271.061C236.76 266.761 240.42 262.591 245 258.561C280.18 242.741 315.18 243.401 350 260.561C358.01 265.021 363.34 271.191 366 279.061Z" fill="#F9F9F9"/>
<path fill-rule="evenodd" clip-rule="evenodd" d="M134 256.061C138.07 261.241 141.4 266.911 144 273.061C129.5 282.711 116 293.711 103.5 306.061C103.02 307.011 102.85 308.011 103 309.061C94.67 302.081 89.67 293.081 88 282.061C90.76 281.181 93.42 280.021 96 278.561C107.49 269.111 120.15 261.611 134 256.061Z" fill="#E7D4D0"/>
<path fill-rule="evenodd" clip-rule="evenodd" d="M223 293.061C216.07 296.851 213.24 294.851 214.5 287.061C219.42 279.631 225.92 274.291 234 271.061C243.65 266.741 253.65 265.911 264 268.561C268.14 269.211 271.64 271.041 274.5 274.061C276.25 279.571 278.59 284.911 281.5 290.061C282.51 294.671 281.84 299.001 279.5 303.061C272.29 317.251 260.79 322.751 245 319.561C232.93 311.531 228.09 300.371 230.5 286.061C228.02 288.531 225.52 290.861 223 293.061Z" fill="#060606"/>
<path fill-rule="evenodd" clip-rule="evenodd" d="M366.001 279.061C368.681 281.161 371.511 283.161 374.501 285.061C375.681 289.051 374.181 290.721 370.001 290.061C365.561 289.511 361.561 287.841 358.001 285.061C357.331 294.241 354.501 302.911 349.501 311.061C346.911 314.321 343.741 316.821 340.001 318.561C313.361 321.921 302.531 310.421 307.501 284.061C310.901 271.971 318.731 266.141 331.001 266.561C340.501 268.641 349.831 271.311 359.001 274.561C361.221 276.281 363.551 277.781 366.001 279.061Z" fill="#050505"/>
<path fill-rule="evenodd" clip-rule="evenodd" d="M322 273.061C327.28 272.841 330.28 275.341 331 280.561C331.52 291.871 326.68 295.371 316.5 291.061C312.98 287.491 312.32 283.491 314.5 279.061C317.34 277.401 319.84 275.401 322 273.061Z" fill="#F3F3F3"/>
<path fill-rule="evenodd" clip-rule="evenodd" d="M144 273.061C148.67 278.391 153.67 283.391 159 288.061C146.2 298.531 135.54 310.861 127 325.061C118.66 320.221 110.66 314.891 103 309.061C102.85 308.011 103.02 307.011 103.5 306.061C116 293.711 129.5 282.711 144 273.061Z" fill="#564D50"/>
<path fill-rule="evenodd" clip-rule="evenodd" d="M261.001 276.061C269.641 276.211 272.801 280.551 270.501 289.061C269.021 293.711 265.851 296.371 261.001 297.061C253.591 293.121 252.091 287.451 256.501 280.061C257.901 278.491 259.401 277.161 261.001 276.061Z" fill="#F9F9F9"/>
<path fill-rule="evenodd" clip-rule="evenodd" d="M159 288.061C162.46 289.111 165.13 291.111 167 294.061C165.26 296.541 163.76 299.201 162.5 302.061C161.86 309.631 161.02 317.131 160 324.561C161.29 325.051 162.63 325.221 164 325.061C151.75 327.381 139.41 327.381 127 325.061C135.54 310.861 146.2 298.531 159 288.061Z" fill="#E8D5D1"/>
<path fill-rule="evenodd" clip-rule="evenodd" d="M167 294.061C168.72 294.191 170.38 294.521 172 295.061C173.77 297.471 175.27 300.141 176.5 303.061C177.9 309.781 180.73 315.781 185 321.061C184.64 321.741 184.3 322.411 184 323.061C177.51 324.881 170.85 325.551 164 325.061C162.63 325.221 161.29 325.051 160 324.561C161.02 317.131 161.86 309.631 162.5 302.061C163.76 299.201 165.26 296.541 167 294.061Z" fill="#574E51"/>
<path fill-rule="evenodd" clip-rule="evenodd" d="M308 322.061C311.36 321.431 313.36 322.771 314 326.061C311.59 330.971 308.25 335.141 304 338.561C301.24 339.141 298.58 338.811 296 337.561C292.64 335.361 289.14 333.521 285.5 332.061C284.36 328.701 285.53 326.701 289 326.061C292.98 327.681 296.98 329.351 301 331.061C303.71 328.351 306.04 325.351 308 322.061Z" fill="#141414"/>
</svg>
