<svg width="500" height="500" viewBox="0 0 500 500" fill="none" xmlns="http://www.w3.org/2000/svg">
<path fill-rule="evenodd" clip-rule="evenodd" d="M361 251.062C359.97 251.812 358.8 252.482 357.5 253.062C353.38 248.762 350.55 249.602 349 255.562C351.13 258.672 352.63 262.172 353.5 266.062C355.29 267.792 357.46 268.462 360 268.062C360.17 286.402 360 304.732 359.5 323.062C357.58 326.562 355.42 329.902 353 333.062C346.57 336.412 340.24 339.742 334 343.062C330 341.872 326 341.042 322 340.562C317.97 343.962 318.31 346.802 323 349.062C320.57 349.082 318.24 349.582 316 350.562C303.58 356.442 291.24 362.272 279 368.062C274.48 366.412 269.81 365.912 265 366.562C261.97 368.862 261.31 371.692 263 375.062C251.15 381.152 239.15 386.992 227 392.562C219.91 394.592 212.91 394.252 206 391.562C187.47 382.712 169.3 373.212 151.5 363.062C151.01 364.352 150.84 365.692 151 367.062C150.66 361.932 150.66 356.592 151 351.062C156.16 353.472 161.16 356.142 166 359.062C166.06 359.602 166.39 359.942 167 360.062C168.31 354.912 168.31 349.912 167 345.062C166.55 335.722 165.89 326.382 165 317.062C162.14 315.902 159.47 314.572 157 313.062C157 309.392 157 305.732 157 302.062C159.84 303.582 162.84 304.582 166 305.062C164.57 290.422 163.24 275.752 162 261.062C152.39 256.922 143.05 252.252 134 247.062C133.18 249.672 132.68 252.332 132.5 255.062C131.83 266.062 131.83 277.062 132.5 288.062C136.58 291.282 141.08 293.952 146 296.062C144.28 299.452 143.61 303.122 144 307.062C141.36 305.742 138.69 304.412 136 303.062C135.67 303.562 135.33 304.062 135 304.562C136.1 315.022 136.93 325.522 137.5 336.062C137.83 337.062 138.17 338.062 138.5 339.062C138.7 337.182 139.2 335.512 140 334.062C139.25 341.372 138.92 348.702 139 356.062C123.25 347.682 107.25 339.522 90.9998 331.562C87.1698 327.112 84.6698 321.942 83.4998 316.062C81.8898 266.742 81.5598 217.412 82.4998 168.062C83.7398 163.152 86.2398 158.982 89.9998 155.562C95.3298 152.232 100.67 148.892 106 145.562C132.95 136.072 159.95 126.742 187 117.562C202.43 112.972 218.1 109.472 234 107.062C245.69 109.912 256.69 114.412 267 120.562C289.67 128.732 312.01 137.732 334 147.562C339.27 149.432 344.61 151.102 350 152.562C352.5 153.732 354.33 155.562 355.5 158.062C357.31 189.212 359.15 220.212 361 251.062Z" fill="#262625"/>
<path fill-rule="evenodd" clip-rule="evenodd" d="M230 119.062C236.29 120.082 242.29 121.912 248 124.562C240.34 128.342 232.34 130.672 224 131.562C220.16 129.482 216.5 127.142 213 124.562C218.65 122.302 224.32 120.472 230 119.062Z" fill="#40A76B"/>
<path fill-rule="evenodd" clip-rule="evenodd" d="M200 129.062C204.44 131.452 208.78 134.122 213 137.062C204.06 141.262 194.89 144.922 185.5 148.062C180.59 145.862 176.09 143.022 172 139.562C180.94 134.752 190.27 131.252 200 129.062Z" fill="#F6F6F6"/>
<path fill-rule="evenodd" clip-rule="evenodd" d="M260 129.062C268.66 131.172 276.66 134.842 284 140.062C275.61 143.092 267.61 146.922 260 151.562C259 152.232 258 152.232 257 151.562C251.3 147.382 245.63 143.212 240 139.062C246.41 135.192 253.08 131.852 260 129.062Z" fill="#E32C1F"/>
<path fill-rule="evenodd" clip-rule="evenodd" d="M150 144.062C158.01 146.072 165.34 149.572 172 154.562C159.01 159.002 146.35 164.002 134 169.562C132.33 170.232 130.67 170.232 129 169.562C122.67 166.062 116.33 162.562 110 159.062C114.06 155.802 118.73 154.302 124 154.562C132.78 151.362 141.45 147.862 150 144.062Z" fill="#028BEA"/>
<path fill-rule="evenodd" clip-rule="evenodd" d="M223 144.062C231.92 146.632 239.92 150.972 247 157.062C236.56 161.112 226.23 165.452 216 170.062C209.35 165.412 203.02 160.412 197 155.062C205.72 151.362 214.39 147.702 223 144.062Z" fill="#F7E005"/>
<path fill-rule="evenodd" clip-rule="evenodd" d="M297 146.062C300.02 145.902 303.02 146.062 306 146.562C314.88 150.502 323.55 154.672 332 159.062C331.79 159.652 331.46 160.152 331 160.562C318.42 165.532 305.76 169.862 293 173.562C285.45 168.632 278.12 163.462 271 158.062C279.76 154.012 288.43 150.012 297 146.062Z" fill="#FB6001"/>
<path fill-rule="evenodd" clip-rule="evenodd" d="M183 160.062C184.05 159.912 185.05 160.082 186 160.562C192.18 164.822 198.18 169.322 204 174.062C192.34 179.222 180.5 183.892 168.5 188.062C160.18 185.322 152.35 181.652 145 177.062C157.57 170.992 170.23 165.322 183 160.062Z" fill="#F9F9F9"/>
<path fill-rule="evenodd" clip-rule="evenodd" d="M255 165.062C263.66 168.232 271.66 172.732 279 178.562C268.14 181.992 257.81 186.492 248 192.062C239.76 188.662 232.09 184.322 225 179.062C234.74 173.812 244.74 169.152 255 165.062Z" fill="#028BEA"/>
<path fill-rule="evenodd" clip-rule="evenodd" d="M336 171.062C338.33 171.062 340.67 171.062 343 171.062C344.33 184.062 344.67 197.062 344 210.062C334 214.732 324 219.392 314 224.062C313.17 210.022 312.17 196.022 311 182.062C319.54 178.562 327.88 174.892 336 171.062Z" fill="#F8E004"/>
<path fill-rule="evenodd" clip-rule="evenodd" d="M95.0005 171.062C102.861 174.572 110.691 178.242 118.501 182.062C121.241 197.282 122.741 212.612 123.001 228.062C113.291 225.052 104.291 220.722 96.0005 215.062C95.0005 200.412 94.6705 185.742 95.0005 171.062Z" fill="#F8E004"/>
<path fill-rule="evenodd" clip-rule="evenodd" d="M209 183.062C217.72 186.432 225.72 191.102 233 197.062C224.18 200.392 215.68 204.392 207.5 209.062C198.92 205.492 191.09 200.662 184 194.562C192.19 190.232 200.52 186.392 209 183.062Z" fill="#E32C1F"/>
<path fill-rule="evenodd" clip-rule="evenodd" d="M295 187.061C296.48 186.801 297.81 187.131 299 188.061C299.58 189.561 300.42 190.891 301.5 192.061C302.81 204.351 303.31 216.691 303 229.061C289.23 230.841 275.89 234.511 263 240.061C261.98 227.031 261.15 214.031 260.5 201.061C272.12 196.461 283.62 191.791 295 187.061Z" fill="#FA6001"/>
<path fill-rule="evenodd" clip-rule="evenodd" d="M132.999 190.062C142.019 192.492 150.519 196.152 158.499 201.062C159.799 216.722 160.969 232.392 161.999 248.062C152.859 245.162 144.189 241.162 135.999 236.062C134.439 232.592 133.599 228.922 133.499 225.062C132.999 213.402 132.829 201.732 132.999 190.062Z" fill="#40A86B"/>
<path fill-rule="evenodd" clip-rule="evenodd" d="M360 268.062C357.46 268.462 355.29 267.792 353.5 266.062C352.63 262.172 351.13 258.672 349 255.562C350.55 249.602 353.38 248.762 357.5 253.062C358.8 252.482 359.97 251.812 361 251.062C367.97 244.262 375.14 237.592 382.5 231.062C387.17 224.392 391.83 217.732 396.5 211.062C395.32 208.152 394.48 204.982 394 201.562C393.92 197.302 395.92 195.642 400 196.562C401.28 198.352 402.94 199.512 405 200.062C407.45 198.272 410.12 196.942 413 196.062C417 196.222 418.5 198.222 417.5 202.062C414.11 205.792 410.44 209.122 406.5 212.062C403.14 223.112 397.48 232.782 389.5 241.062C380.37 251.032 370.54 260.032 360 268.062Z" fill="#070707"/>
<path fill-rule="evenodd" clip-rule="evenodd" d="M248 206.062C249.43 206.442 250.26 207.442 250.5 209.062C251.17 221.732 251.17 234.392 250.5 247.062C245.37 251.192 240.53 255.692 236 260.562C228.68 263.892 221.68 267.722 215 272.062C214.32 255.362 213.65 238.692 213 222.062C216.97 219.072 221.3 216.572 226 214.562C233.39 211.602 240.73 208.772 248 206.062Z" fill="#FAFAFA"/>
<path fill-rule="evenodd" clip-rule="evenodd" d="M170 208.062C179.71 212.252 188.54 217.922 196.5 225.062C198.83 239.312 200.33 253.642 201 268.062C197.06 267.802 193.39 266.642 190 264.562C184.75 260.692 179.25 257.192 173.5 254.062C172 238.742 170.83 223.412 170 208.062Z" fill="#028BEB"/>
<path fill-rule="evenodd" clip-rule="evenodd" d="M340 225.062C341.62 225.602 343.28 225.932 345 226.062C345.52 239.902 346.19 253.732 347 267.562C347.58 271.712 345.91 273.882 342 274.062C345.01 260.922 341.34 250.092 331 241.562C327.33 238.722 323.33 236.392 319 234.562C326.03 231.282 333.03 228.112 340 225.062Z" fill="#F0F0F0"/>
<path fill-rule="evenodd" clip-rule="evenodd" d="M96.0005 231.062C105.171 233.152 113.671 236.812 121.501 242.062C122.331 256.072 122.171 270.072 121.001 284.062C112.181 281.032 103.511 277.692 95.0005 274.062C94.6705 259.552 95.0005 245.222 96.0005 231.062Z" fill="#FB6000"/>
<path fill-rule="evenodd" clip-rule="evenodd" d="M329 253.062C317.51 250.032 306.18 250.532 295 254.562C287.17 264.482 287 274.642 294.5 285.062C297.31 289.052 301.15 290.722 306 290.062C320.17 289.382 326.84 281.882 326 267.562C326.09 264.852 325.42 262.352 324 260.062C324.82 259.172 325.82 258.842 327 259.062C329.45 260.032 332.11 260.372 335 260.062C332.62 286.622 318.96 304.782 294 314.562C287.04 316.722 280.04 318.722 273 320.562C259.65 321.882 247.65 318.542 237 310.562C232.39 306.832 230.39 302.002 231 296.062C232.49 293.752 233.99 291.422 235.5 289.062C239.94 307.372 250.44 312.202 267 303.562C272.31 297.382 274.47 290.212 273.5 282.062C270.33 278.232 267.17 274.392 264 270.562C253.82 267.232 244.82 269.062 237 276.062C236.46 276.002 236.12 275.672 236 275.062C251.8 249.712 274.8 237.872 305 239.562C314.6 241.532 322.93 245.862 330 252.562C329.77 252.962 329.44 253.132 329 253.062Z" fill="#F8F8F8"/>
<path fill-rule="evenodd" clip-rule="evenodd" d="M157.001 302.062C157.181 299.242 157.841 296.572 159.001 294.062C159.111 292.192 158.441 290.692 157.001 289.562C149.641 285.062 145.971 287.232 146.001 296.062C141.081 293.952 136.581 291.282 132.501 288.062C131.831 277.062 131.831 266.062 132.501 255.062C132.681 252.332 133.181 249.672 134.001 247.062C143.051 252.252 152.391 256.922 162.001 261.062C163.241 275.752 164.571 290.422 166.001 305.062C162.841 304.582 159.841 303.582 157.001 302.062Z" fill="#E32C1F"/>
<path fill-rule="evenodd" clip-rule="evenodd" d="M329 253.062C331.41 254.332 334.07 254.992 337 255.062C337 256.392 337 257.732 337 259.062C333.67 259.062 330.33 259.062 327 259.062C325.82 258.842 324.82 259.172 324 260.062C325.42 262.352 326.09 264.852 326 267.562C326.84 281.882 320.17 289.382 306 290.062C301.15 290.722 297.31 289.052 294.5 285.062C287 274.642 287.17 264.482 295 254.562C306.18 250.532 317.51 250.032 329 253.062Z" fill="#070707"/>
<path fill-rule="evenodd" clip-rule="evenodd" d="M297.999 258.061C300.869 257.651 303.029 258.651 304.499 261.061C308.229 269.301 305.729 273.131 296.999 272.561C293.369 270.351 292.209 267.191 293.499 263.061C295.209 261.521 296.709 259.861 297.999 258.061Z" fill="#F1F1F1"/>
<path fill-rule="evenodd" clip-rule="evenodd" d="M95.9995 231.062C94.9995 245.222 94.6695 259.552 94.9995 274.062C93.6695 259.552 93.6695 244.892 94.9995 230.062C95.6095 230.182 95.9395 230.522 95.9995 231.062Z" fill="#914314"/>
<path fill-rule="evenodd" clip-rule="evenodd" d="M231 296.062C228.46 298.842 226.63 298.502 225.5 295.062C226.24 286.932 230.07 280.602 237 276.062C244.82 269.062 253.82 267.232 264 270.562C267.17 274.392 270.33 278.232 273.5 282.062C274.47 290.212 272.31 297.382 267 303.562C250.44 312.202 239.94 307.372 235.5 289.062C233.99 291.422 232.49 293.752 231 296.062Z" fill="#070707"/>
<path fill-rule="evenodd" clip-rule="evenodd" d="M174 268.062C182.35 272.322 190.52 276.992 198.5 282.062C198.98 295.362 200.48 308.532 203 321.562C202.67 322.732 202.33 323.892 202 325.062C193.71 320.002 185.21 315.332 176.5 311.062C175.49 296.732 174.66 282.402 174 268.062Z" fill="#40A96C"/>
<path fill-rule="evenodd" clip-rule="evenodd" d="M255 274.061C263.32 273.901 266.15 277.901 263.5 286.061C259.43 290.181 255.76 289.851 252.5 285.061C251.45 280.901 252.28 277.241 255 274.061Z" fill="#F3F3F3"/>
<path fill-rule="evenodd" clip-rule="evenodd" d="M224.001 278.062C224.541 278.122 224.881 278.452 225.001 279.062C221.551 288.082 220.381 297.412 221.501 307.062C222.881 311.322 225.381 314.822 229.001 317.562C225.331 320.062 221.331 321.902 217.001 323.062C215.531 320.262 214.701 317.262 214.501 314.062C213.831 304.062 213.831 294.062 214.501 284.062C217.651 281.912 220.811 279.912 224.001 278.062Z" fill="#E12C1F"/>
<path fill-rule="evenodd" clip-rule="evenodd" d="M157.001 302.062C157.001 305.732 157.001 309.392 157.001 313.062C155.531 313.912 154.701 315.242 154.501 317.062C153.301 328.402 152.131 339.732 151.001 351.062C150.661 356.592 150.661 361.932 151.001 367.062C150.841 369.092 151.001 371.092 151.501 373.062C161.331 383.052 159.501 386.382 146.001 383.062C142.021 384.002 138.021 384.172 134.001 383.562C130.901 377.572 132.901 373.902 140.001 372.562C140.641 367.062 140.301 361.562 139.001 356.062C138.921 348.702 139.251 341.372 140.001 334.062C140.961 324.992 142.301 315.992 144.001 307.062C143.611 303.122 144.281 299.452 146.001 296.062C145.971 287.232 149.641 285.062 157.001 289.562C158.441 290.692 159.111 292.192 159.001 294.062C157.841 296.572 157.181 299.242 157.001 302.062Z" fill="#050403"/>
<path fill-rule="evenodd" clip-rule="evenodd" d="M93.9991 286.062C103.159 289.842 112.489 293.342 121.999 296.562C122.929 296.952 123.589 297.612 123.999 298.562C126.239 310.992 126.909 323.492 125.999 336.062C116.549 330.592 107.049 325.252 97.4991 320.062C95.0191 308.872 93.8491 297.542 93.9991 286.062Z" fill="#40A86B"/>
<path fill-rule="evenodd" clip-rule="evenodd" d="M345.001 287.062C346.701 288.872 347.531 291.202 347.501 294.062C348.771 303.032 349.111 312.032 348.501 321.062C338.571 327.612 328.071 332.942 317.001 337.062C316.581 328.352 316.581 319.692 317.001 311.062C324.221 305.002 330.561 298.172 336.001 290.562C339.221 289.662 342.221 288.492 345.001 287.062Z" fill="#028BEA"/>
<path fill-rule="evenodd" clip-rule="evenodd" d="M299 296.061C301.13 295.711 302.47 296.541 303 298.561C302.42 302.211 301.09 305.541 299 308.561C294.33 309.231 289.67 309.231 285 308.561C283.95 307.171 283.78 305.671 284.5 304.061C288.24 303.421 292.08 303.421 296 304.061C296.22 301.061 297.22 298.391 299 296.061Z" fill="#0F0F0F"/>
<path fill-rule="evenodd" clip-rule="evenodd" d="M144 307.062C142.3 315.992 140.96 324.992 140 334.062C139.2 335.512 138.7 337.182 138.5 339.062C138.17 338.062 137.83 337.062 137.5 336.062C136.93 325.522 136.1 315.022 135 304.562C135.33 304.062 135.67 303.562 136 303.062C138.69 304.412 141.36 305.742 144 307.062Z" fill="#EBD805"/>
<path fill-rule="evenodd" clip-rule="evenodd" d="M157 313.062C159.47 314.572 162.14 315.902 165 317.062C165.89 326.382 166.55 335.722 167 345.062C167.32 349.922 166.99 354.592 166 359.062C161.16 356.142 156.16 353.472 151 351.062C152.13 339.732 153.3 328.402 154.5 317.062C154.7 315.242 155.53 313.912 157 313.062Z" fill="#F3DD04"/>
<path fill-rule="evenodd" clip-rule="evenodd" d="M305 319.062C306.31 321.302 306.98 323.972 307 327.062C306.91 331.772 306.41 336.442 305.5 341.062C293.71 346.542 281.88 351.872 270 357.062C269.18 347.742 268.51 338.412 268 329.062C281.58 329.922 293.92 326.582 305 319.062Z" fill="#E22C1F"/>
<path fill-rule="evenodd" clip-rule="evenodd" d="M176.001 325.062C185.601 329.532 194.931 334.532 204.001 340.062C204.801 341.642 205.301 343.302 205.501 345.062C206.001 355.392 206.171 365.722 206.001 376.062C197.801 373.302 189.801 369.962 182.001 366.062C177.961 352.712 175.961 339.042 176.001 325.062Z" fill="#FA6001"/>
<path fill-rule="evenodd" clip-rule="evenodd" d="M243 326.062C247.96 327.272 252.96 328.272 258 329.062C258.59 340.082 259.09 351.082 259.5 362.062C246.37 368.042 233.53 374.712 221 382.062C219.79 378.502 219.13 374.832 219 371.062C219.08 359.742 219.41 348.402 220 337.062C227.88 333.622 235.55 329.952 243 326.062Z" fill="#FAFAFA"/>
<path fill-rule="evenodd" clip-rule="evenodd" d="M323 349.061C318.31 346.801 317.97 343.961 322 340.561C326 341.041 330 341.871 334 343.061C341.72 344.661 349.56 346.331 357.5 348.061C359.93 344.291 363.1 341.131 367 338.561C372.5 337.391 374.67 339.561 373.5 345.061C372.09 349.961 369.93 354.461 367 358.561C365.63 359.431 364.13 359.931 362.5 360.061C351.34 357.561 340.18 355.061 329 352.561C327.11 351.171 325.11 350.001 323 349.061Z" fill="#080808"/>
<path fill-rule="evenodd" clip-rule="evenodd" d="M167 345.062C168.31 349.912 168.31 354.912 167 360.062C166.39 359.942 166.06 359.602 166 359.062C166.99 354.592 167.32 349.922 167 345.062Z" fill="#887C18"/>
<path fill-rule="evenodd" clip-rule="evenodd" d="M279 368.062C289.09 373.202 299.76 376.542 311 378.062C312.52 370.632 316.85 368.472 324 371.562C324.66 379.592 321.66 386.262 315 391.562C313.77 392.342 312.44 392.842 311 393.062C294.41 388.582 278.41 382.582 263 375.062C261.31 371.692 261.97 368.862 265 366.562C269.81 365.912 274.48 366.412 279 368.062Z" fill="#070707"/>
</svg>
