<svg width="500" height="500" viewBox="0 0 500 500" fill="none" xmlns="http://www.w3.org/2000/svg">
<path fill-rule="evenodd" clip-rule="evenodd" d="M297.999 173.062C289.299 173.762 283.959 178.422 281.999 187.062C274.869 185.842 267.869 184.002 260.999 181.562C252.009 181.062 243.009 180.892 233.999 181.062C236.129 174.332 234.129 169.332 227.999 166.062C227.829 150.422 230.659 135.422 236.499 121.062C236.029 114.182 238.199 108.342 242.999 103.562C246.459 102.442 249.289 103.272 251.499 106.062C252.249 109.982 253.579 113.652 255.499 117.062C257.969 106.162 259.969 95.1616 261.499 84.0616C263.729 77.4816 267.399 76.4816 272.499 81.0616C272.519 83.8716 273.519 86.2016 275.499 88.0616C275.669 94.4216 276.169 100.752 276.999 107.062C278.529 105.372 279.859 103.532 280.999 101.562C285.839 99.8416 289.009 101.342 290.499 106.062C291.829 117.392 293.159 128.722 294.499 140.062C298.169 136.062 301.829 136.062 305.499 140.062C306.399 144.382 306.739 148.712 306.499 153.062C304.339 160.042 301.509 166.712 297.999 173.062Z" fill="#8B3313"/>
<path fill-rule="evenodd" clip-rule="evenodd" d="M228 166.062C234.13 169.332 236.13 174.332 234 181.062C243.01 180.892 252.01 181.062 261 181.562C267.87 184.002 274.87 185.842 282 187.062C283.96 178.422 289.3 173.762 298 173.062C305.81 175.342 308.31 180.342 305.5 188.062C303.15 190.242 300.98 192.582 299 195.062C301.69 198.172 302.69 201.842 302 206.062C298.11 212.602 292.44 214.772 285 212.562C280.24 210.212 278.24 206.372 279 201.062C266.31 200.562 253.65 199.732 241 198.562C239.63 198.162 238.29 197.662 237 197.062C234.63 205.952 228.96 209.792 220 208.562C217.26 206.672 215.59 204.172 215 201.062C215.13 196.292 216.8 192.132 220 188.562C217.29 187.302 215.12 185.472 213.5 183.062C211.42 171.322 216.25 165.652 228 166.062Z" fill="#F9F8F7"/>
<path fill-rule="evenodd" clip-rule="evenodd" d="M302.001 206.062C306.771 207.942 311.431 210.112 316.001 212.562C325.431 218.692 334.601 225.192 343.501 232.062C347.011 236.092 349.181 240.752 350.001 246.062C349.921 249.232 348.591 251.562 346.001 253.062C342.541 253.132 339.211 253.792 336.001 255.062C327.121 252.452 318.121 250.282 309.001 248.562C303.771 246.452 299.101 243.622 295.001 240.062C302.451 240.492 309.781 239.992 317.001 238.562C320.001 234.562 319.331 231.222 315.001 228.562C301.341 228.062 287.671 227.892 274.001 228.062C268.751 224.272 263.081 221.272 257.001 219.062C251.111 221.832 245.451 224.832 240.001 228.062C226.231 226.292 212.571 226.792 199.001 229.562C194.521 232.252 193.861 235.752 197.001 240.062C202.021 240.142 207.021 240.472 212.001 241.062C202.651 243.812 192.991 244.642 183.001 243.562C181.521 241.522 179.521 240.692 177.001 241.062C176.381 239.932 175.541 238.932 174.501 238.062C173.831 236.732 173.831 235.392 174.501 234.062C178.911 228.902 182.581 223.242 185.501 217.062C191.421 213.352 197.251 209.522 203.001 205.562C206.721 203.202 210.721 201.702 215.001 201.062C215.591 204.172 217.261 206.672 220.001 208.562C228.961 209.792 234.631 205.952 237.001 197.062C238.291 197.662 239.631 198.162 241.001 198.562C253.651 199.732 266.311 200.562 279.001 201.062C278.241 206.372 280.241 210.212 285.001 212.562C292.441 214.772 298.111 212.602 302.001 206.062Z" fill="#8A3313"/>
<path fill-rule="evenodd" clip-rule="evenodd" d="M274 228.062C267.1 230.382 259.93 232.042 252.5 233.062C247.59 232.932 243.43 231.272 240 228.062C245.45 224.832 251.11 221.832 257 219.062C263.08 221.272 268.75 224.272 274 228.062Z" fill="#F2F0F0"/>
<path fill-rule="evenodd" clip-rule="evenodd" d="M240 228.061C243.43 231.271 247.59 232.931 252.5 233.061C259.93 232.041 267.1 230.381 274 228.061C287.67 227.891 301.34 228.061 315 228.561C319.33 231.221 320 234.561 317 238.561C309.78 239.991 302.45 240.491 295 240.061C284.64 238.721 274.64 240.221 265 244.561C253.65 245.781 242.65 244.451 232 240.561C225.31 239.901 218.64 240.061 212 241.061C207.02 240.471 202.02 240.141 197 240.061C193.86 235.751 194.52 232.251 199 229.561C212.57 226.791 226.23 226.291 240 228.061Z" fill="#050403"/>
<path fill-rule="evenodd" clip-rule="evenodd" d="M406.001 265.062C403.611 261.032 400.611 260.362 397.001 263.062C393.861 265.912 391.031 265.572 388.501 262.062C388.091 256.372 388.431 250.702 389.501 245.062C392.541 240.582 395.211 235.912 397.501 231.062C398.561 229.662 399.891 228.662 401.501 228.062C407.291 230.872 409.621 235.542 408.501 242.062C410.131 248.622 411.961 255.122 414.001 261.562C412.871 265.972 410.211 267.132 406.001 265.062Z" fill="#CBCCCC"/>
<path fill-rule="evenodd" clip-rule="evenodd" d="M295 240.061C299.1 243.621 303.77 246.451 309 248.561C318.12 250.281 327.12 252.451 336 255.061C339.21 253.791 342.54 253.131 346 253.061C352.75 264.471 357.25 276.801 359.5 290.061C360.22 299.091 360.05 308.091 359 317.061C367.23 318.961 375.56 319.461 384 318.561C386.32 316.571 388.98 315.401 392 315.061C390.87 325.221 389.54 335.221 388 345.061C379.27 339.801 369.6 337.631 359 338.561C356.14 337.721 353.3 336.891 350.5 336.061C350.1 336.291 349.93 336.621 350 337.061C349.01 335.241 347.51 333.901 345.5 333.061C340.44 334.521 335.28 335.351 330 335.561C318.32 335.961 306.66 336.461 295 337.061C294.4 336.421 293.57 336.091 292.5 336.061C291.12 336.241 290.29 336.911 290 338.061C270.63 337.561 251.3 336.561 232 335.061C225.98 332.521 219.64 330.851 213 330.061C207.85 328.821 203.19 326.491 199 323.061C196.05 321.441 193.38 319.441 191 317.061C185.55 312.501 179.89 308.161 174 304.061C171.58 301.651 169.58 298.991 168 296.061C166.69 293.111 164.36 291.781 161 292.061C160.32 273.111 165.65 256.111 177 241.061C179.52 240.691 181.52 241.521 183 243.561C192.99 244.641 202.65 243.811 212 241.061C218.64 240.061 225.31 239.901 232 240.561C242.65 244.451 253.65 245.781 265 244.561C274.64 240.221 284.64 238.721 295 240.061Z" fill="#F9F9F9"/>
<path fill-rule="evenodd" clip-rule="evenodd" d="M205.001 246.062C215.051 245.212 224.721 246.712 234.001 250.562C238.751 253.322 240.911 257.492 240.501 263.062C245.181 269.512 246.181 276.512 243.501 284.062C235.161 299.822 222.321 305.652 205.001 301.562C196.561 296.802 191.731 289.632 190.501 280.062C189.821 274.572 190.151 269.242 191.501 264.062C187.951 267.282 184.111 270.112 180.001 272.562C178.061 273.302 176.231 273.142 174.501 272.062C173.831 269.392 173.831 266.732 174.501 264.062C182.701 254.552 192.861 248.552 205.001 246.062Z" fill="#040404"/>
<path fill-rule="evenodd" clip-rule="evenodd" d="M288 251.061C293.39 250.971 298.72 251.471 304 252.561C311.33 255.231 318.67 257.891 326 260.561C332.45 264.671 338.61 269.171 344.5 274.061C345.57 277.111 344.57 279.111 341.5 280.061C335.64 278.961 330.64 276.301 326.5 272.061C325.79 283.641 321.63 293.811 314 302.561C300.47 310.531 287.64 309.361 275.5 299.061C266.35 279.381 270.51 263.381 288 251.061Z" fill="#050505"/>
<path fill-rule="evenodd" clip-rule="evenodd" d="M224 256.062C230.57 255.792 234.23 258.962 235 265.562C234.09 272.562 230.25 277.062 223.5 279.062C216.72 276.252 214.39 271.252 216.5 264.062C218.53 260.872 221.03 258.202 224 256.062Z" fill="#F4F4F4"/>
<path fill-rule="evenodd" clip-rule="evenodd" d="M289 258.062C294.56 257.292 297.89 259.632 299 265.062C297.87 269.122 296.54 273.122 295 277.062C285.95 281.372 280.62 278.532 279 268.562C279.36 266.532 280.19 264.692 281.5 263.062C284.24 261.662 286.74 259.992 289 258.062Z" fill="#F3F3F3"/>
<path fill-rule="evenodd" clip-rule="evenodd" d="M168 296.061C169.58 298.991 171.58 301.651 174 304.061C173.47 306.101 172.3 307.771 170.5 309.061C170.55 312.171 169.39 314.671 167 316.561C165.72 317.241 164.55 317.081 163.5 316.061C163.86 313.631 164.36 311.131 165 308.561C163.24 304.611 162.74 300.441 163.5 296.061C164.91 295.151 166.41 295.151 168 296.061Z" fill="#77480B"/>
<path fill-rule="evenodd" clip-rule="evenodd" d="M158 300.062C158.31 302.832 159.48 305.172 161.5 307.062C161.65 314.502 162.48 321.842 164 329.062C161.25 334.442 159.25 340.102 158 346.062C159.02 347.412 160.02 348.752 161 350.062C160.89 350.682 160.56 351.182 160 351.562C155.35 352.062 150.68 352.232 146 352.062C146.44 362.132 141.77 366.292 132 364.562C129.21 361.542 126.88 358.372 125 355.062C125.42 345.982 130.08 341.312 139 341.062C139.31 337.612 140.15 334.282 141.5 331.062C145.5 322.442 149.5 313.782 153.5 305.062C154.55 302.942 156.05 301.282 158 300.062Z" fill="#FAFAF9"/>
<path fill-rule="evenodd" clip-rule="evenodd" d="M161 292.062C164.36 291.782 166.69 293.112 168 296.062C166.41 295.152 164.91 295.152 163.5 296.062C162.74 300.442 163.24 304.612 165 308.562C164.36 311.132 163.86 313.632 163.5 316.062C164.55 317.082 165.72 317.242 167 316.562C169.39 314.672 170.55 312.172 170.5 309.062C172.3 307.772 173.47 306.102 174 304.062C179.89 308.162 185.55 312.502 191 317.062C182.33 317.232 177.83 321.562 177.5 330.062C179.08 333.812 181.92 335.812 186 336.062C189 334.732 192 334.732 195 336.062C198.9 335.662 200.9 333.492 201 329.562C200.47 327.332 199.8 325.172 199 323.062C203.19 326.492 207.85 328.822 213 330.062C212.75 331.482 211.92 332.482 210.5 333.062C210.01 334.352 209.84 335.692 210 337.062C212.66 337.402 214.99 336.732 217 335.062C218.73 335.572 220.39 336.242 222 337.062C219.02 340.102 219.35 342.432 223 344.062C229.08 343.902 232.08 340.902 232 335.062C251.3 336.562 270.63 337.562 290 338.062C290.53 341.882 291.86 345.382 294 348.562C299.89 349.332 305.06 347.832 309.5 344.062C310.17 342.732 310.17 341.392 309.5 340.062C305.08 339.582 300.58 339.422 296 339.562C295.25 338.892 294.91 338.062 295 337.062C306.66 336.462 318.32 335.962 330 335.562C335.28 335.352 340.44 334.522 345.5 333.062C347.51 333.902 349.01 335.242 350 337.062C346.93 350.612 344.43 364.282 342.5 378.062C339.81 379.822 336.98 381.162 334 382.062C329.56 380.352 324.9 379.682 320 380.062C324.27 375.662 323.93 371.662 319 368.062C317.61 372.402 315.95 376.572 314 380.562C307.81 381.362 305.31 378.522 306.5 372.062C303.53 379.942 306.36 383.272 315 382.062C312.61 383.582 309.94 384.582 307 385.062C300.47 385.832 293.97 386.832 287.5 388.062C285.09 388.082 282.92 387.412 281 386.062C274.12 385.152 267.45 383.492 261 381.062C253.98 382.412 246.98 383.742 240 385.062C233.75 382.932 228.08 379.772 223 375.562C221.37 375.072 219.7 374.902 218 375.062C210.59 374.962 203.25 375.622 196 377.062C191.25 380.472 185.92 381.972 180 381.562C178.8 380.662 177.97 379.492 177.5 378.062C177.38 372.252 176.55 366.592 175 361.062C177.14 356.402 176.14 352.732 172 350.062C169.33 342.982 166.66 335.982 164 329.062C162.48 321.842 161.65 314.502 161.5 307.062C159.48 305.172 158.31 302.832 158 300.062C157.52 296.772 158.52 294.112 161 292.062Z" fill="#EFC55B"/>
<path fill-rule="evenodd" clip-rule="evenodd" d="M271 309.061C275.5 308.721 277.33 310.721 276.5 315.061C273.67 319.231 270.17 322.731 266 325.561C264 326.231 262 326.231 260 325.561C255.55 322.921 251.05 320.421 246.5 318.061C245.5 314.221 247 312.221 251 312.061C255.23 313.511 259.23 315.511 263 318.061C265.9 315.261 268.57 312.261 271 309.061Z" fill="#0E0E0E"/>
<path fill-rule="evenodd" clip-rule="evenodd" d="M191 317.062C193.38 319.442 196.05 321.442 199 323.062C199.8 325.172 200.47 327.332 201 329.562C200.9 333.492 198.9 335.662 195 336.062C192 334.732 189 334.732 186 336.062C181.92 335.812 179.08 333.812 177.5 330.062C177.83 321.562 182.33 317.232 191 317.062Z" fill="#794A0C"/>
<path fill-rule="evenodd" clip-rule="evenodd" d="M403 319.062C409.4 324.692 410.57 331.352 406.5 339.062C404.86 341.292 402.7 342.632 400 343.062C397.46 343.462 395.29 342.792 393.5 341.062C393.31 335.722 393.65 330.392 394.5 325.062C396.73 321.962 399.57 319.962 403 319.062Z" fill="#F7F8F7"/>
<path fill-rule="evenodd" clip-rule="evenodd" d="M194 323.062C198 325.672 198 328.512 194 331.562C190.07 332.702 186.74 331.862 184 329.062C185.82 327.752 187.48 326.252 189 324.562C190.05 324.072 191.05 324.232 192 325.062C193.02 324.702 193.69 324.042 194 323.062Z" fill="#EDC359"/>
<path fill-rule="evenodd" clip-rule="evenodd" d="M213 330.062C219.64 330.852 225.98 332.522 232 335.062C232.08 340.902 229.08 343.902 223 344.062C219.35 342.432 219.02 340.102 222 337.062C220.39 336.242 218.73 335.572 217 335.062C214.99 336.732 212.66 337.402 210 337.062C209.84 335.692 210.01 334.352 210.5 333.062C211.92 332.482 212.75 331.482 213 330.062Z" fill="#77480B"/>
<path fill-rule="evenodd" clip-rule="evenodd" d="M295 337.062C294.91 338.062 295.25 338.892 296 339.562C300.58 339.422 305.08 339.582 309.5 340.062C310.17 341.392 310.17 342.732 309.5 344.062C305.06 347.832 299.89 349.332 294 348.562C291.86 345.382 290.53 341.882 290 338.062C290.29 336.912 291.12 336.242 292.5 336.062C293.57 336.092 294.4 336.422 295 337.062Z" fill="#794A0E"/>
<path fill-rule="evenodd" clip-rule="evenodd" d="M269 338.062C273.7 337.852 277.53 339.522 280.5 343.062C281.17 343.732 281.17 344.392 280.5 345.062C274.44 348.822 269.94 347.652 267 341.562C267.48 340.262 268.14 339.092 269 338.062Z" fill="#77480A"/>
<path fill-rule="evenodd" clip-rule="evenodd" d="M406 265.062C405.44 283.092 404.44 301.092 403 319.062C399.57 319.962 396.73 321.962 394.5 325.062C393.65 330.392 393.31 335.722 393.5 341.062C395.29 342.792 397.46 343.462 400 343.062C396.41 364.992 393.25 386.992 390.5 409.062C388.17 411.732 385.83 411.732 383.5 409.062C381.55 405.882 380.72 402.382 381 398.562C383.99 389.712 385.82 380.542 386.5 371.062C387.64 362.432 388.14 353.762 388 345.062C389.54 335.222 390.87 325.222 392 315.062C393.03 304.632 394.53 294.292 396.5 284.062C397 277.072 397.17 270.072 397 263.062C400.61 260.362 403.61 261.032 406 265.062Z" fill="#78490E"/>
<path fill-rule="evenodd" clip-rule="evenodd" d="M253 341.062C260.08 339.642 263.08 342.472 262 349.562C262.23 356.512 258.89 360.672 252 362.062C246.71 360.602 243.71 357.102 243 351.562C244.53 346.202 247.86 342.702 253 341.062Z" fill="#78490B"/>
<path fill-rule="evenodd" clip-rule="evenodd" d="M317 343.061C326.76 340.661 330.93 344.331 329.5 354.061C325.09 359.651 319.76 361.311 313.5 359.061C312.51 356.431 312.17 353.771 312.5 351.061C313.55 350.041 314.72 349.881 316 350.561C316.6 352.391 317.27 354.221 318 356.061C320.22 353.861 321.55 351.191 322 348.061C320.45 347.111 318.79 346.771 317 347.061C317 345.731 317 344.391 317 343.061Z" fill="#78490B"/>
<path fill-rule="evenodd" clip-rule="evenodd" d="M199 347.061C202.56 346.251 204.56 347.911 205 352.061C204.85 355.191 203.52 357.691 201 359.561C195.67 359.631 190.34 359.291 185 358.561C181.85 355.371 181.52 352.041 184 348.561C186.98 348.061 189.98 347.901 193 348.061C193.21 349.701 192.88 351.201 192 352.561C198.24 355.141 200.57 353.311 199 347.061Z" fill="#77470A"/>
<path fill-rule="evenodd" clip-rule="evenodd" d="M255 345.062C257.8 345.532 259.13 347.192 259 350.062C255.12 349.432 253.29 351.102 253.5 355.062C252.49 355.902 251.32 356.232 250 356.062C249.84 353.702 250 351.372 250.5 349.062C252.17 347.832 253.67 346.492 255 345.062Z" fill="#EFC65B"/>
<path fill-rule="evenodd" clip-rule="evenodd" d="M219 352.062C223.68 352.432 225.02 354.772 223 359.062C225.06 362.542 227.73 363.042 231 360.562C232.85 352.132 234.52 352.302 236 361.062C236.69 366.192 234.52 369.192 229.5 370.062C224.96 368.662 220.96 366.322 217.5 363.062C216.61 359.162 217.11 355.492 219 352.062Z" fill="#794A0C"/>
<path fill-rule="evenodd" clip-rule="evenodd" d="M161 350.062C164.67 350.062 168.33 350.062 172 350.062C176.14 352.732 177.14 356.402 175 361.062C170.78 363.662 166.11 364.992 161 365.062C159.29 360.382 155.96 358.882 151 360.562C147.31 363.112 145.64 366.612 146 371.062C142.84 371.042 140.17 372.212 138 374.562C128.51 378.262 119.18 382.262 110 386.562C96.37 390.422 88.04 385.592 85 372.062C85.84 363.382 90.51 357.882 99 355.562C107.66 353.982 116.33 353.822 125 355.062C126.88 358.372 129.21 361.542 132 364.562C141.77 366.292 146.44 362.132 146 352.062C150.68 352.232 155.35 352.062 160 351.562C160.56 351.182 160.89 350.682 161 350.062Z" fill="#78480C"/>
<path fill-rule="evenodd" clip-rule="evenodd" d="M277 355.062C278.67 355.062 280.33 355.062 282 355.062C282.25 357.392 281.59 359.392 280 361.062C281.54 363.012 283.54 363.512 286 362.562C289.58 356.312 292.25 356.652 294 363.562C292.79 368.472 289.62 370.302 284.5 369.062C273.86 368.612 271.36 363.942 277 355.062Z" fill="#76470A"/>
<path fill-rule="evenodd" clip-rule="evenodd" d="M161 365.061C160.76 369.481 158.42 372.321 154 373.561C150.68 374.541 148.02 373.701 146 371.061C145.64 366.611 147.31 363.111 151 360.561C155.96 358.881 159.29 360.381 161 365.061Z" fill="#F9F9F8"/>
<path fill-rule="evenodd" clip-rule="evenodd" d="M249.001 368.061C251.441 367.881 253.601 368.541 255.501 370.061C255.881 372.601 256.711 374.931 258.001 377.061C256.731 380.951 254.231 381.951 250.501 380.061C250.171 378.511 250.671 377.181 252.001 376.061C251.671 375.731 251.331 375.391 251.001 375.061C249.161 376.791 247.321 378.461 245.501 380.061C241.371 378.381 240.041 375.381 241.501 371.061C243.881 369.591 246.381 368.591 249.001 368.061Z" fill="#77480B"/>
<path fill-rule="evenodd" clip-rule="evenodd" d="M195.999 377.061C192.519 377.241 189.189 377.901 185.999 379.061C180.509 378.241 179.509 375.411 182.999 370.561C184.529 370.061 186.029 370.231 187.499 371.061C194.069 367.911 196.909 369.911 195.999 377.061Z" fill="#764709"/>
<path fill-rule="evenodd" clip-rule="evenodd" d="M320 380.062C318.45 381.002 316.78 381.672 315 382.062C306.36 383.272 303.53 379.942 306.5 372.062C305.31 378.522 307.81 381.362 314 380.562C315.95 376.572 317.61 372.402 319 368.062C323.93 371.662 324.27 375.662 320 380.062Z" fill="#77470A"/>
<path fill-rule="evenodd" clip-rule="evenodd" d="M218 375.061C219.7 374.901 221.37 375.071 223 375.561C228.08 379.771 233.75 382.931 240 385.061C240.42 395.141 239.92 405.141 238.5 415.061C237.29 416.611 235.79 417.781 234 418.561C225.67 419.231 217.33 419.231 209 418.561C199.98 416.561 196.15 411.061 197.5 402.061C199.65 397.571 203.15 395.071 208 394.561C211.32 394.061 214.65 393.891 218 394.061C218 387.731 218 381.391 218 375.061Z" fill="#FAFBFB"/>
<path fill-rule="evenodd" clip-rule="evenodd" d="M282.999 374.062C286.019 373.902 289.019 374.062 291.999 374.562C293.079 376.292 293.239 378.122 292.499 380.062C291.039 381.312 289.539 381.312 287.999 380.062C285.919 380.892 283.919 381.892 281.999 383.062C279.359 381.862 278.529 379.862 279.499 377.062C281.019 376.402 282.189 375.402 282.999 374.062Z" fill="#794A0B"/>
<path fill-rule="evenodd" clip-rule="evenodd" d="M307 385.062C306.29 385.962 305.29 386.302 304 386.062C303.68 390.112 304.01 394.112 305 398.062C311.49 396.262 317.65 396.932 323.5 400.062C326.08 403.942 326.42 407.942 324.5 412.062C318.43 418.272 310.93 421.272 302 421.062C295.6 421.362 290.1 419.362 285.5 415.062C283.38 405.502 281.88 395.842 281 386.062C282.92 387.412 285.09 388.082 287.5 388.062C293.97 386.832 300.47 385.832 307 385.062Z" fill="#F9FAFA"/>
</svg>
