<svg width="500" height="500" viewBox="0 0 500 500" fill="none" xmlns="http://www.w3.org/2000/svg">
<path fill-rule="evenodd" clip-rule="evenodd" d="M212 82.0615C211.53 80.6605 210.86 79.3275 210 78.0615C207.46 81.2805 204.8 84.4475 202 87.5615C198.17 88.5375 194.84 87.7045 192 85.0615C189.47 77.4285 191.14 70.9285 197 65.5615C191.92 65.3885 186.92 64.7225 182 63.5615C177.84 59.2095 178.17 55.2095 183 51.5615C185.67 50.9945 188.33 50.4945 191 50.0615C187.29 40.8815 190.29 36.8815 200 38.0615C199.24 32.5485 201.58 29.5485 207 29.0615C209.41 28.9675 211.24 29.9675 212.5 32.0615C212.62 36.3465 214.78 38.3465 219 38.0615C220.77 26.3455 226.27 24.0115 235.5 31.0615C239.23 29.4305 243.06 28.0975 247 27.0615C253.15 29.0865 254.65 33.0865 251.5 39.0615C249.17 40.5675 247 42.2345 245 44.0615C245.49 45.0075 245.82 46.0075 246 47.0615C244.31 50.2255 243.81 53.5595 244.5 57.0615C246.21 58.4395 247.55 60.1065 248.5 62.0615C248.69 66.9185 249.69 71.5855 251.5 76.0615C253.74 83.5835 251.24 88.5835 244 91.0615C237.21 88.2735 231.21 84.2735 226 79.0615C222.64 87.0005 217.97 88.0005 212 82.0615Z" fill="#F44637"/>
<path fill-rule="evenodd" clip-rule="evenodd" d="M211 67.0619C207.54 61.2349 208.87 56.9009 215 54.0619C217.04 49.9759 219.04 45.9759 221 42.0619C224.01 35.9169 228.51 34.5829 234.5 38.0619C235.28 39.2909 235.78 40.6239 236 42.0619C234.86 45.4689 233.53 48.8029 232 52.0619C234.04 53.8379 236.2 55.5049 238.5 57.0619C240.88 62.7509 239.05 66.0839 233 67.0619C230.03 66.4939 227.19 65.4939 224.5 64.0619C220.07 66.4439 215.57 67.4439 211 67.0619Z" fill="#FFC817"/>
<path fill-rule="evenodd" clip-rule="evenodd" d="M221 42.0615C219.04 45.9755 217.04 49.9755 215 54.0615C208.87 56.9005 207.54 61.2345 211 67.0615C206.45 70.0494 202.95 69.0494 200.5 64.0615C199.85 59.5345 201.68 56.3675 206 54.5615C200.73 52.3335 198.57 48.4995 199.5 43.0615C202.06 40.2125 205.23 39.3785 209 40.5615C212.72 45.3145 216.72 45.8145 221 42.0615Z" fill="#FEE73A"/>
<path fill-rule="evenodd" clip-rule="evenodd" d="M212.001 82.0615C208.601 84.8525 206.771 88.5195 206.501 93.0615C204.831 101.72 204.671 110.387 206.001 119.062C205.891 119.679 205.561 120.179 205.001 120.562C200.301 122.068 195.631 123.568 191.001 125.062C188.131 114.287 187.301 103.287 188.501 92.0615C189.681 89.7015 190.851 87.3685 192.001 85.0615C194.841 87.7045 198.171 88.5375 202.001 87.5615C204.801 84.4475 207.461 81.2805 210.001 78.0615C210.861 79.3275 211.531 80.6605 212.001 82.0615Z" fill="#B17A67"/>
<path fill-rule="evenodd" clip-rule="evenodd" d="M240 136.062C239.63 140.299 237.63 143.466 234 145.562C221.68 148.224 209.68 151.891 198 156.562C193.67 157.229 189.33 157.229 185 156.562C184.15 154.834 183.15 154.667 182 156.062C179.7 150.327 178.03 144.327 177 138.062C177.12 128.945 181.79 124.612 191 125.062C195.63 123.568 200.3 122.068 205 120.562C205.56 120.179 205.89 119.679 206 119.062C212.73 118.046 219.4 116.713 226 115.062C230.06 115.008 233.22 116.674 235.5 120.062C239.06 124.835 240.56 130.168 240 136.062Z" fill="#9E9E9E"/>
<path fill-rule="evenodd" clip-rule="evenodd" d="M240 136.062C257.66 136.371 274.99 138.871 292 143.562C300.88 148.67 310.21 152.67 320 155.562C352.69 171.444 374.86 196.61 386.5 231.062C393.08 250.19 394.58 269.69 391 289.562C391.33 290.395 391.67 291.229 392 292.062C401.4 285.165 409.23 276.832 415.5 267.062C416.17 265.729 416.17 264.395 415.5 263.062C411.3 259.663 409.63 255.329 410.5 250.062C413.09 247.725 415.93 247.558 419 249.562C420.9 251.377 422.57 253.377 424 255.562C426.33 256.229 428.67 256.229 431 255.562C434.86 251.493 439.52 250.16 445 251.562C449 254.895 449 258.229 445 261.562C440.32 264.179 435.32 265.679 430 266.062C430 270.073 428.83 273.74 426.5 277.062C420.04 285.191 413.21 293.025 406 300.562C399.91 305.025 393.41 308.859 386.5 312.062C382.03 325.803 377.36 339.47 372.5 353.062C365.77 363.468 359.44 374.134 353.5 385.062C343.59 395.431 331.43 401.098 317 402.062C318.21 412.257 320.37 422.257 323.5 432.062C323.83 436.395 324.17 440.729 324.5 445.062C326.01 446.097 327.51 445.93 329 444.562C336.47 443.389 343.3 444.889 349.5 449.062C350.09 450.461 349.93 451.794 349 453.062C341.94 457.412 334.27 460.079 326 461.062C322.14 460.594 318.31 460.261 314.5 460.062C314.05 449.088 312.05 438.422 308.5 428.062C307.01 420.771 305.84 413.437 305 406.062C291.54 409.34 277.87 411.84 264 413.562C253.34 414.615 242.84 413.782 232.5 411.062C232 411.395 231.5 411.729 231 412.062C231.96 420.179 233.46 428.179 235.5 436.062C236.17 444.395 236.17 452.729 235.5 461.062C235.44 464.384 234.27 467.218 232 469.562C228.59 470.789 225.09 471.622 221.5 472.062C215.63 471.206 210.13 469.373 205 466.562C202.33 463.895 202.33 461.229 205 458.562C211.27 457.41 217.6 456.744 224 456.562C220.78 447.411 219.28 437.911 219.5 428.062C217.06 421.59 215.56 414.923 215 408.062C200.46 406.495 187.13 401.662 175 393.562C163.58 385.473 153.41 375.973 144.5 365.062C138.87 353.972 133.37 342.806 128 331.562C123.02 330.455 118.02 329.455 113 328.562C105.34 323.231 97.0004 319.231 88.0004 316.562C84.1604 314.478 80.5004 312.145 77.0004 309.562C69.9204 309.448 62.9204 308.781 56.0004 307.562C50.1504 302.129 50.9904 297.962 58.5004 295.062C59.3704 295.297 60.2104 295.631 61.0004 296.062C65.8704 293.223 69.3704 289.223 71.5004 284.062C74.9004 280.359 79.0604 279.193 84.0004 280.562C84.6004 281.624 84.9304 282.79 85.0004 284.062C84.6504 289.232 83.6504 294.232 82.0004 299.062C92.9504 307.37 104.95 313.87 118 318.562C119.44 319.343 120.78 319.176 122 318.062C105.54 286.369 106.04 255.036 123.5 224.062C132.99 211.747 141.99 199.08 150.5 186.062C161.25 176.14 171.75 166.14 182 156.062C183.15 154.667 184.15 154.834 185 156.562C189.33 157.229 193.67 157.229 198 156.562C209.68 151.891 221.68 148.224 234 145.562C237.63 143.466 239.63 140.299 240 136.062Z" fill="#010101"/>
<path fill-rule="evenodd" clip-rule="evenodd" d="M275 211.062C293.58 211.957 311.25 216.457 328 224.562C338.72 230.884 344.72 240.05 346 252.062C338.29 249.2 330.62 246.367 323 243.562C312.35 242.415 301.68 242.081 291 242.562C285.18 244.361 280.68 247.861 277.5 253.062C271.79 267.932 273.46 281.932 282.5 295.062C292.67 301.115 303.5 302.448 315 299.062C317.02 296.206 319.52 293.873 322.5 292.062C328.76 280.622 330.92 268.622 329 256.062C333.87 258.44 339.04 259.773 344.5 260.062C346.11 259.461 347.44 258.461 348.5 257.062C351.8 265.112 353.96 273.446 355 282.062C355.04 291.113 352.21 299.113 346.5 306.062C337.82 314.646 328.32 322.146 318 328.562C314.38 329.718 310.71 330.718 307 331.562C287.98 334.443 268.98 337.443 250 340.562C244.16 341.089 238.32 340.923 232.5 340.062C198.6 345.834 181.27 331.501 180.5 297.062C184.5 293.557 188 289.557 191 285.062C191.67 290.106 192.5 295.106 193.5 300.062C201.4 316.09 213.9 321.257 231 315.562C243.02 307.697 248.85 296.53 248.5 282.062C246.75 276.892 243.75 272.558 239.5 269.062C238.92 265.471 237.09 262.638 234 260.562C221.58 256.528 209.58 257.528 198 263.562C192.98 266.405 188.31 269.738 184 273.562C180.89 276.622 178.39 280.122 176.5 284.062C170.24 255.414 180.74 235.58 208 224.562C220.35 220.559 233.01 218.226 246 217.562C255.8 215.381 265.47 213.214 275 211.062Z" fill="#FCFCFC"/>
<path fill-rule="evenodd" clip-rule="evenodd" d="M287.999 251.062C290.359 250.899 292.689 251.065 294.999 251.562C296.829 252.062 297.999 253.229 298.499 255.062C299.169 259.729 299.169 264.395 298.499 269.062C295.189 272.889 291.029 274.056 285.999 272.562C281.289 269.643 279.459 265.477 280.499 260.062C282.829 256.897 285.329 253.897 287.999 251.062Z" fill="#F6F6F6"/>
<path fill-rule="evenodd" clip-rule="evenodd" d="M224 266.062C231.33 266.055 234.99 269.722 235 277.062C234.95 285.953 230.61 290.119 222 289.562C213.93 280.997 214.6 273.164 224 266.062Z" fill="#F6F6F6"/>
<path fill-rule="evenodd" clip-rule="evenodd" d="M283 308.062C285.03 307.9 287.03 308.067 289 308.562C289.27 315.406 286.93 321.406 282 326.562C280.77 327.343 279.44 327.843 278 328.062C271.88 327.077 266.05 325.41 260.5 323.062C259.6 320.537 260.1 318.37 262 316.562C267.33 316.895 272.67 317.229 278 317.562C279.77 314.392 281.44 311.225 283 308.062Z" fill="#0E0E0E"/>
</svg>
