<svg width="500" height="500" viewBox="0 0 500 500" fill="none" xmlns="http://www.w3.org/2000/svg">
<path fill-rule="evenodd" clip-rule="evenodd" d="M356 215.061C350.06 217.971 343.73 218.801 337 217.561C333.31 215.381 329.64 213.221 326 211.061C323.18 206.891 319.51 203.891 315 202.061C310.67 202.061 306.33 202.061 302 202.061C296.41 202.621 291.08 204.121 286 206.561C285.22 211.861 283.88 217.021 282 222.061C280.64 225.421 278.31 227.751 275 229.061C269.09 232.751 262.76 233.751 256 232.061C252.47 231.771 249.47 230.441 247 228.061C241.51 219.761 236.01 211.421 230.5 203.061C227.63 199.861 224.46 197.021 221 194.561C219.37 194.071 217.7 193.901 216 194.061C213.29 194.141 210.63 194.471 208 195.061C203.57 195.851 199.57 197.511 196 200.061C193.05 200.871 190.38 202.201 188 204.061C184.49 205.881 181.16 207.881 178 210.061C172.06 214.371 165.73 218.201 159 221.561C155.68 222.061 152.35 222.231 149 222.061C144.62 221.181 142.12 218.511 141.5 214.061C140 207.461 139.67 200.791 140.5 194.061C145.19 182.351 151.19 171.351 158.5 161.061C164.72 155.841 171.22 151.011 178 146.561C191.34 140.391 205.01 135.061 219 130.561C225.63 129.511 232.29 129.011 239 129.061C239.15 124.951 240.48 121.291 243 118.061C240.49 107.981 240.66 97.9809 243.5 88.0609C248.46 81.9509 254.63 80.4509 262 83.5609C267.73 85.8409 272.9 89.0109 277.5 93.0609C285.88 91.0409 294.38 90.5409 303 91.5609C306.07 91.7109 308.9 92.5409 311.5 94.0609C317.84 89.4909 324.67 85.6609 332 82.5609C337.98 81.6409 342.48 83.8009 345.5 89.0609C346.75 106.211 348.91 123.211 352 140.061C352.66 149.741 349.66 158.071 343 165.061C348.03 172.261 352.86 179.591 357.5 187.061C358.51 192.261 359.67 197.431 361 202.561C360.01 207.071 358.34 211.241 356 215.061Z" fill="#262625"/>
<path fill-rule="evenodd" clip-rule="evenodd" d="M338 100.061C336.4 99.271 335.73 97.941 336 96.061C331.01 96.061 327.68 98.391 326 103.061C328.44 106.431 330.78 109.931 333 113.561C337.43 114.521 339.09 112.681 338 108.061C340.19 118.521 341.85 129.191 343 140.061C343.83 146.951 341.83 152.791 337 157.561C316.37 163.471 295.71 163.471 275 157.561C264.78 153.701 256.28 147.541 249.5 139.061C248.81 136.841 247.97 134.671 247 132.561C248 127.711 249.67 123.211 252 119.061C249.81 111.421 249.47 103.751 251 96.061C250.33 92.971 251.5 91.301 254.5 91.061C257.39 91.691 260.22 92.521 263 93.561C267.55 96.961 272.22 100.121 277 103.061C288.91 99.161 300.91 99.161 313 103.061C319.67 98.141 327.01 94.141 335 91.061C337.37 93.511 338.37 96.511 338 100.061Z" fill="#656565"/>
<path fill-rule="evenodd" clip-rule="evenodd" d="M251.001 96.0611C252.241 95.1511 253.571 94.9811 255.001 95.5611C258.381 98.6111 261.381 101.941 264.001 105.561C261.371 108.641 258.201 111.141 254.501 113.061C253.731 112.921 253.061 112.581 252.501 112.061C251.231 106.811 250.731 101.471 251.001 96.0611Z" fill="#DD9494"/>
<path fill-rule="evenodd" clip-rule="evenodd" d="M338 100.061C338 102.731 338 105.391 338 108.061C339.09 112.681 337.43 114.521 333 113.561C330.78 109.931 328.44 106.431 326 103.061C327.68 98.391 331.01 96.061 336 96.061C335.73 97.941 336.4 99.271 338 100.061Z" fill="#DE9494"/>
<path fill-rule="evenodd" clip-rule="evenodd" d="M310 126.061C311.33 126.731 312.33 127.731 313 129.061C318.66 135.271 317.99 140.771 311 145.561C304.37 146.861 297.71 147.201 291 146.561C283.83 143.731 281.33 138.561 283.5 131.061C286.53 127.691 289.87 124.691 293.5 122.061C293.18 119.101 293.18 116.101 293.5 113.061C294.59 109.101 297.09 107.601 301 108.561C302.95 109.541 304.78 110.711 306.5 112.061C306.83 115.061 307.17 118.061 307.5 121.061C307.6 123.211 308.43 124.881 310 126.061Z" fill="#F5F5F5"/>
<path fill-rule="evenodd" clip-rule="evenodd" d="M286 114.061C283.37 113.851 281.71 115.021 281 117.561C282.43 121.331 284.43 121.831 287 119.061C287.77 118.301 288.27 117.301 288.5 116.061C290.96 121.011 289.46 124.511 284 126.561C276.23 127.941 272.39 124.781 272.5 117.061C276.39 112.151 280.89 111.151 286 114.061Z" fill="#252525"/>
<path fill-rule="evenodd" clip-rule="evenodd" d="M286 114.061C286.8 115.601 287.13 117.271 287 119.061C284.43 121.831 282.43 121.331 281 117.561C281.71 115.021 283.37 113.851 286 114.061Z" fill="#ECECEC"/>
<path fill-rule="evenodd" clip-rule="evenodd" d="M321 117.061C316.82 116.401 315.32 118.071 316.5 122.061C318.79 124.691 320.96 124.691 323 122.061C324.19 118.041 325.19 118.211 326 122.561C325.89 124.461 325.22 126.121 324 127.561C320.47 128.901 316.81 129.401 313 129.061C312.33 127.731 311.33 126.731 310 126.061C309.05 121.341 310.39 117.501 314 114.561C316.98 113.721 319.31 114.561 321 117.061Z" fill="#242424"/>
<path fill-rule="evenodd" clip-rule="evenodd" d="M321 117.061C322.71 118.201 323.38 119.861 323 122.061C320.96 124.691 318.79 124.691 316.5 122.061C315.32 118.071 316.82 116.401 321 117.061Z" fill="#EDEDED"/>
<path fill-rule="evenodd" clip-rule="evenodd" d="M304 135.061C302.33 135.061 300.67 135.061 299 135.061C297.9 132.791 296.57 130.621 295 128.561C295.14 127.791 295.48 127.121 296 126.561C300.09 125.331 303.59 126.171 306.5 129.061C307.47 131.901 306.63 133.901 304 135.061Z" fill="#DB9595"/>
<path fill-rule="evenodd" clip-rule="evenodd" d="M299 135.061C300.67 135.061 302.33 135.061 304 135.061C305.36 136.251 306.86 137.251 308.5 138.061C310.38 136.551 312.55 135.881 315 136.061C313.76 141.191 310.43 143.021 305 141.561C303.92 140.601 302.75 139.771 301.5 139.061C298.11 142.091 294.28 142.761 290 141.061C288.36 139.641 287.53 137.981 287.5 136.061C288.06 135.541 288.73 135.201 289.5 135.061C291.34 136.321 293.34 137.321 295.5 138.061C297.14 137.581 298.31 136.581 299 135.061Z" fill="#262626"/>
<path fill-rule="evenodd" clip-rule="evenodd" d="M351 203.061C350.07 201.991 349.73 200.661 350 199.061C344.17 199.471 339.84 202.131 337 207.061C331.36 202.991 326.03 198.491 321 193.561C313 192.891 305 192.891 297 193.561C288.25 194.181 281.42 198.011 276.5 205.061C276.32 208.591 275.82 211.921 275 215.061C274.89 214.441 274.56 213.941 274 213.561C265 212.641 256 211.811 247 211.061C242.53 203.661 237.2 196.831 231 190.561C223.09 184.841 214.42 183.511 205 186.561C191.3 191.581 178.63 198.411 167 207.061C162.05 202.271 156.05 200.271 149 201.061C152.12 184.101 160.46 170.271 174 159.561C192.03 148.441 211.53 141.271 232.5 138.061C234.67 138.231 236.83 138.391 239 138.561C246.38 151.941 257.38 160.941 272 165.561C279.49 167.961 287.15 169.631 295 170.561C308.38 171.111 321.72 170.781 335 169.561C339.89 176.511 344.39 183.671 348.5 191.061C349.86 194.971 350.69 198.971 351 203.061Z" fill="#656565"/>
<path fill-rule="evenodd" clip-rule="evenodd" d="M216 194.061C217.99 198.701 219.99 203.371 222 208.061C228.57 213.161 233.73 219.501 237.5 227.061C240.54 231.561 243.7 231.901 247 228.061C249.47 230.441 252.47 231.771 256 232.061C245.51 241.331 234.51 250.171 223 258.561C218.8 262.601 214.8 266.761 211 271.061C205.38 272.701 200.04 275.201 195 278.561C191.72 281.331 189.06 284.491 187 288.061C176.85 294.471 166.19 299.801 155 304.061C154.93 305.521 155.27 306.851 156 308.061C151.39 305.441 147.05 302.441 143 299.061C137.44 272.801 139.44 247.131 149 222.061C152.35 222.231 155.68 222.061 159 221.561C165.73 218.201 172.06 214.371 178 210.061C186.08 227.551 194.74 244.881 204 262.061C204.5 263.081 205.17 263.251 206 262.561C208.49 260.991 210.49 258.991 212 256.561C203.58 239.221 195.58 221.721 188 204.061C190.38 202.201 193.05 200.871 196 200.061C203.62 217.251 211.62 234.251 220 251.061C223.22 248.341 226.22 245.511 229 242.561C219.67 227.741 212.67 211.911 208 195.061C210.63 194.471 213.29 194.141 216 194.061Z" fill="#FE5959"/>
<path fill-rule="evenodd" clip-rule="evenodd" d="M208 195.061C212.67 211.911 219.67 227.741 229 242.561C226.22 245.511 223.22 248.341 220 251.061C211.62 234.251 203.62 217.251 196 200.061C199.57 197.511 203.57 195.851 208 195.061Z" fill="#FE807C"/>
<path fill-rule="evenodd" clip-rule="evenodd" d="M216 194.061C217.7 193.901 219.37 194.071 221 194.561C224.46 197.021 227.63 199.861 230.5 203.061C236.01 211.421 241.51 219.761 247 228.061C243.7 231.901 240.54 231.561 237.5 227.061C233.73 219.501 228.57 213.161 222 208.061C219.99 203.371 217.99 198.701 216 194.061Z" fill="#FB807C"/>
<path fill-rule="evenodd" clip-rule="evenodd" d="M351 203.061C351.42 206.811 349.75 208.981 346 209.561C342.51 210.431 339.51 209.601 337 207.061C339.84 202.131 344.17 199.471 350 199.061C349.73 200.661 350.07 201.991 351 203.061Z" fill="#F0F0F0"/>
<path fill-rule="evenodd" clip-rule="evenodd" d="M148.999 201.061C156.049 200.271 162.049 202.271 166.999 207.061C164.149 209.061 161.149 210.901 157.999 212.561C152.619 215.601 149.459 214.101 148.499 208.061C147.699 205.521 147.869 203.191 148.999 201.061Z" fill="#F0F0F0"/>
<path fill-rule="evenodd" clip-rule="evenodd" d="M302 202.061C306.33 202.061 310.67 202.061 315 202.061C294.84 223.231 274.17 243.561 253 263.061C247.96 262.971 242.96 263.311 238 264.061C250.01 252.741 262.34 241.071 275 229.061C278.31 227.751 280.64 225.421 282 222.061C289.03 215.701 295.69 209.031 302 202.061Z" fill="#FE5959"/>
<path fill-rule="evenodd" clip-rule="evenodd" d="M315 202.061C319.51 203.891 323.18 206.891 326 211.061C309.2 228.361 292.2 245.531 275 262.561C275.56 262.941 275.89 263.441 276 264.061C268.39 263.131 260.72 262.791 253 263.061C274.17 243.561 294.84 223.231 315 202.061Z" fill="#FE807C"/>
<path fill-rule="evenodd" clip-rule="evenodd" d="M302 202.061C295.69 209.031 289.03 215.701 282 222.061C283.88 217.021 285.22 211.861 286 206.561C291.08 204.121 296.41 202.621 302 202.061Z" fill="#F77F7B"/>
<path fill-rule="evenodd" clip-rule="evenodd" d="M188 204.061C195.58 221.721 203.58 239.221 212 256.561C210.49 258.991 208.49 260.991 206 262.561C205.17 263.251 204.5 263.081 204 262.061C194.74 244.881 186.08 227.551 178 210.061C181.16 207.881 184.49 205.881 188 204.061Z" fill="#FE807C"/>
<path fill-rule="evenodd" clip-rule="evenodd" d="M247 211.061C256 211.811 265 212.641 274 213.561C274.56 213.941 274.89 214.441 275 215.061C274.75 216.731 274.08 218.231 273 219.561C267.25 224.131 260.92 225.131 254 222.561C250.62 219.351 248.29 215.521 247 211.061Z" fill="#F6F6F6"/>
<path fill-rule="evenodd" clip-rule="evenodd" d="M156 225.061C161.74 226.951 167.57 228.621 173.5 230.061C174.61 229.971 175.61 229.641 176.5 229.061C178.07 232.521 179.9 235.861 182 239.061C179.74 240.211 177.4 240.371 175 239.561C168.24 237.871 161.57 235.871 155 233.561C154.48 233.001 154.14 232.331 154 231.561C155.11 229.511 155.78 227.351 156 225.061Z" fill="#FF807C"/>
<path fill-rule="evenodd" clip-rule="evenodd" d="M318 284.061C316.17 283.311 314.5 282.311 313 281.061C314.22 266.701 314.22 252.361 313 238.061C315.69 235.211 318.19 232.211 320.5 229.061C322.38 247.491 321.55 265.831 318 284.061Z" fill="#FE7F7B"/>
<path fill-rule="evenodd" clip-rule="evenodd" d="M275 229.061C262.34 241.071 250.01 252.741 238 264.061C230.43 265.171 223.1 267.171 216 270.061C214.38 270.601 212.72 270.931 211 271.061C214.8 266.761 218.8 262.601 223 258.561C234.51 250.171 245.51 241.331 256 232.061C262.76 233.751 269.09 232.751 275 229.061Z" fill="#FE817D"/>
<path fill-rule="evenodd" clip-rule="evenodd" d="M151 242.061C162.32 246.221 173.99 249.051 186 250.561C189.67 253.081 192 256.581 193 261.061C178.89 262.071 165.22 259.911 152 254.561C150.92 253.891 150.25 252.891 150 251.561C150.76 248.441 151.09 245.271 151 242.061Z" fill="#FF807C"/>
<path fill-rule="evenodd" clip-rule="evenodd" d="M303.999 276.061C300.819 274.311 297.819 272.311 294.999 270.061C294.829 265.381 294.999 260.711 295.499 256.061C298.499 253.061 301.499 250.061 304.499 247.061C305.309 256.801 305.139 266.471 303.999 276.061Z" fill="#FF807C"/>
<path fill-rule="evenodd" clip-rule="evenodd" d="M394 288.061C391.9 290.561 391.56 293.231 393 296.061C392.94 303.211 393.94 310.211 396 317.061C399.15 319.691 400.31 323.021 399.5 327.061C398.15 328.571 396.48 329.571 394.5 330.061C392.22 328.781 390.22 327.121 388.5 325.061C388.38 323.451 388.88 321.951 390 320.561C388.69 317.181 387.85 313.681 387.5 310.061C384.62 314.771 384.12 319.441 386 324.061C386.09 328.221 384.09 330.551 380 331.061C375.61 329.611 373.78 326.611 374.5 322.061C375.84 320.561 377.5 319.561 379.5 319.061C380.65 315.111 381.48 311.111 382 307.061C384.86 299.801 385.53 292.471 384 285.061C383.67 278.911 382.5 272.911 380.5 267.061C380.09 260.711 379.59 254.381 379 248.061C381.55 248.121 383.05 249.451 383.5 252.061C385.23 259.861 387.23 267.531 389.5 275.061C390.96 267.461 393.29 260.121 396.5 253.061C397.17 251.731 397.83 251.731 398.5 253.061C399.17 255.731 399.17 258.391 398.5 261.061C396.11 269.741 393.61 278.411 391 287.061C391.82 287.951 392.82 288.281 394 288.061Z" fill="#FCCA94"/>
<path fill-rule="evenodd" clip-rule="evenodd" d="M148 263.061C162.23 268.111 176.89 271.111 192 272.061C188.54 276.011 184.38 279.011 179.5 281.061C169 277.981 158.5 274.981 148 272.061C148 269.061 148 266.061 148 263.061Z" fill="#FF807C"/>
<path fill-rule="evenodd" clip-rule="evenodd" d="M253 263.061C260.72 262.791 268.39 263.131 276 264.061C282.69 264.981 289.03 266.981 295 270.061C297.82 272.311 300.82 274.311 304 276.061C304.33 276.731 304.67 277.391 305 278.061C278.42 267.281 265.92 276.281 267.5 305.061C268.9 311.461 272.73 315.631 279 317.561C289.22 321.311 297.72 319.141 304.5 311.061C308.71 304.641 311.21 297.641 312 290.061C314.45 291.951 317.12 293.291 320 294.061C321.52 297.191 322.19 300.531 322 304.061C322.05 306.461 321.72 308.801 321 311.061C316.94 318.781 310.94 324.451 303 328.061C297.8 330.671 292.47 332.671 287 334.061C283.96 334.071 280.96 334.401 278 335.061C266.7 335.971 255.36 336.301 244 336.061C241.6 336.111 239.26 335.781 237 335.061C234.28 333.651 231.28 332.981 228 333.061C225.33 332.391 222.67 331.731 220 331.061C215.48 329.231 211.14 326.901 207 324.061C205.27 321.361 202.93 319.361 200 318.061C196.34 314.381 194 310.041 193 305.061C192.13 302.451 191.46 299.781 191 297.061C190.93 295.601 191.27 294.271 192 293.061C195.29 290.941 198.46 288.611 201.5 286.061C198.66 298.561 202.49 308.391 213 315.561C220.85 318.241 228.18 317.241 235 312.561C238.52 309.001 241.69 305.171 244.5 301.061C247.06 294.761 246.06 289.101 241.5 284.061C241.3 277.851 238.13 274.021 232 272.561C226.84 270.601 221.51 269.761 216 270.061C223.1 267.171 230.43 265.171 238 264.061C242.96 263.311 247.96 262.971 253 263.061Z" fill="#F9F8F8"/>
<path fill-rule="evenodd" clip-rule="evenodd" d="M215.999 270.061C221.509 269.761 226.839 270.601 231.999 272.561C238.129 274.021 241.299 277.851 241.499 284.061C246.059 289.101 247.059 294.761 244.499 301.061C241.689 305.171 238.519 309.001 234.999 312.561C228.179 317.241 220.849 318.241 212.999 315.561C202.489 308.391 198.659 298.561 201.499 286.061C198.459 288.611 195.289 290.941 191.999 293.061C187.999 293.731 186.329 292.061 186.999 288.061C189.059 284.491 191.719 281.331 194.999 278.561C200.039 275.201 205.379 272.701 210.999 271.061C212.719 270.931 214.379 270.601 215.999 270.061Z" fill="#060606"/>
<path fill-rule="evenodd" clip-rule="evenodd" d="M305 278.061C307.78 278.761 310.45 279.761 313 281.061C314.5 282.311 316.17 283.311 318 284.061C319.8 286.461 322.13 288.131 325 289.061C326.44 290.381 327.11 292.051 327 294.061C324.67 295.391 322.33 295.391 320 294.061C317.12 293.291 314.45 291.951 312 290.061C311.21 297.641 308.71 304.641 304.5 311.061C297.72 319.141 289.22 321.311 279 317.561C272.73 315.631 268.9 311.461 267.5 305.061C265.92 276.281 278.42 267.281 305 278.061Z" fill="#050505"/>
<path fill-rule="evenodd" clip-rule="evenodd" d="M227 279.061C236.98 279.351 239.48 284.021 234.5 293.061C227.93 299.211 223.76 297.881 222 289.061C222.59 285.211 224.26 281.881 227 279.061Z" fill="#F7F7F7"/>
<path fill-rule="evenodd" clip-rule="evenodd" d="M280 279.061C285.2 277.941 288.2 279.941 289 285.061C287.73 287.871 286.9 290.871 286.5 294.061C283.53 296.191 280.36 296.531 277 295.061C275.41 292.651 274.08 290.151 273 287.561C273.17 286.731 273.33 285.891 273.5 285.061C275.56 282.831 277.73 280.831 280 279.061Z" fill="#F5F5F5"/>
<path fill-rule="evenodd" clip-rule="evenodd" d="M143 299.061C147.05 302.441 151.39 305.441 156 308.061C157.59 310.191 159.59 311.861 162 313.061C164.14 315.621 166.47 317.951 169 320.061C168.61 324.751 166.28 326.081 162 324.061C160.16 321.971 157.83 320.641 155 320.061C152.88 318.161 150.55 316.491 148 315.061C145.93 312.981 143.59 311.311 141 310.061C132.97 301.871 123.97 294.871 114 289.061C109.85 285.911 110.02 283.241 114.5 281.061C118.91 284.151 122.74 283.651 126 279.561C128.85 278.901 130.52 280.071 131 283.061C130.27 284.711 130.11 286.381 130.5 288.061C133.99 292.551 138.16 296.211 143 299.061Z" fill="#252525"/>
<path fill-rule="evenodd" clip-rule="evenodd" d="M149 282.061C155.65 283.891 162.31 285.721 169 287.561C163.61 290.921 157.95 293.751 152 296.061C149.74 291.681 148.74 287.011 149 282.061Z" fill="#FF807C"/>
<path fill-rule="evenodd" clip-rule="evenodd" d="M327 294.061C327.11 292.051 326.44 290.381 325 289.061C326.81 287.641 327.47 285.641 327 283.061C337.14 284.521 347.14 286.691 357 289.561C355.61 293.281 354.61 297.111 354 301.061C344.72 299.751 335.72 297.411 327 294.061Z" fill="#FE807C"/>
<path fill-rule="evenodd" clip-rule="evenodd" d="M394 288.061C398.99 288.561 399.99 290.721 397 294.561C395.76 295.351 394.42 295.851 393 296.061C391.56 293.231 391.9 290.561 394 288.061Z" fill="#282828"/>
<path fill-rule="evenodd" clip-rule="evenodd" d="M187 288.061C186.33 292.061 188 293.731 192 293.061C191.27 294.271 190.93 295.601 191 297.061C183.53 301.301 176.19 305.801 169 310.561C166.85 311.971 164.52 312.801 162 313.061C159.59 311.861 157.59 310.191 156 308.061C155.27 306.851 154.93 305.521 155 304.061C166.19 299.801 176.85 294.471 187 288.061Z" fill="#FD807C"/>
<path fill-rule="evenodd" clip-rule="evenodd" d="M191 297.061C191.46 299.781 192.13 302.451 193 305.061C192.47 307.181 191.14 308.681 189 309.561C182.19 312.881 175.53 316.381 169 320.061C166.47 317.951 164.14 315.621 162 313.061C164.52 312.801 166.85 311.971 169 310.561C176.19 305.801 183.53 301.301 191 297.061Z" fill="#FE5959"/>
<path fill-rule="evenodd" clip-rule="evenodd" d="M384 285.061C385.53 292.471 384.86 299.801 382 307.061C372.16 313.481 362.49 320.151 353 327.061C348.76 330.791 344.1 333.951 339 336.561C336.11 337.711 333.11 338.211 330 338.061C328.94 335.491 328.78 332.821 329.5 330.061C333.44 328.681 336.94 326.681 340 324.061C346.17 320.901 352.17 317.571 358 314.061C367.6 309.331 376.1 303.001 383.5 295.061C382.92 293.221 382.42 291.221 382 289.061C381.84 287.211 382.51 285.871 384 285.061Z" fill="#252525"/>
<path fill-rule="evenodd" clip-rule="evenodd" d="M321 311.061C321.72 308.801 322.05 306.461 322 304.061C323.08 304.021 324.08 303.691 325 303.061C333.61 305.931 342.27 308.601 351 311.061C349.75 312.881 349.09 314.881 349 317.061C340.3 315.431 331.8 313.091 323.5 310.061C322.6 310.301 321.76 310.641 321 311.061Z" fill="#FF7F7B"/>
<path fill-rule="evenodd" clip-rule="evenodd" d="M193 305.061C194 310.041 196.34 314.381 200 318.061C189.37 324.341 178.7 330.671 168 337.061C166 332.711 164 328.371 162 324.061C166.28 326.081 168.61 324.751 169 320.061C175.53 316.381 182.19 312.881 189 309.561C191.14 308.681 192.47 307.181 193 305.061Z" fill="#FE807C"/>
<path fill-rule="evenodd" clip-rule="evenodd" d="M326 211.061C329.64 213.221 333.31 215.381 337 217.561C343.73 218.801 350.06 217.971 356 215.061C356.96 215.511 357.79 216.181 358.5 217.061C364.43 229.031 367.6 241.701 368 255.061C369.3 275.581 365.97 295.251 358 314.061C352.17 317.571 346.17 320.901 340 324.061C333.29 323.221 326.79 321.551 320.5 319.061C320 319.391 319.5 319.731 319 320.061C317.81 322.731 316.98 325.401 316.5 328.061C320.61 332.021 325.11 335.351 330 338.061C333.11 338.211 336.11 337.711 339 336.561C344.1 333.951 348.76 330.791 353 327.061C351.02 332.351 348.52 337.351 345.5 342.061C326.58 360.761 304.74 374.761 280 384.061C277.33 384.391 274.67 384.731 272 385.061C257.67 385.061 243.33 385.061 229 385.061C225.74 384.181 222.41 383.521 219 383.061C205 380.891 192 376.061 180 368.561C173.77 362.161 168.1 355.331 163 348.061C160.49 341.721 157.49 335.721 154 330.061C145.04 336.461 136.54 343.461 128.5 351.061C126.92 353.181 126.75 355.351 128 357.561C136 361.891 144 366.231 152 370.561C160.18 377.481 161.68 385.651 156.5 395.061C150.46 406.781 140.96 413.281 128 414.561C123.7 410.141 121.53 404.981 121.5 399.061C124.77 393.961 128.6 389.291 133 385.061C123.02 381.991 114.19 376.991 106.5 370.061C99.6402 359.941 99.3102 349.611 105.5 339.061C108.55 335.471 111.72 331.971 115 328.561C123.91 322.621 132.58 316.451 141 310.061C143.59 311.311 145.93 312.981 148 315.061C143.23 318.651 138.57 322.481 134 326.561C122.89 331.341 114.72 339.171 109.5 350.061C109.03 360.281 113.53 367.441 123 371.561C129.54 373.751 135.71 376.581 141.5 380.061C142.41 384.011 141.74 387.681 139.5 391.061C136.5 394.061 133.5 397.061 130.5 400.061C130.33 405.101 132.49 406.271 137 403.561C143.3 399.591 147.8 394.091 150.5 387.061C151.43 381.621 149.27 377.791 144 375.561C136.63 371.551 129.3 367.551 122 363.561C118.3 360.161 117.13 356.001 118.5 351.061C121.92 345.641 126.09 340.801 131 336.561C137.88 332.281 144.21 327.281 150 321.561C151.52 320.551 153.19 320.051 155 320.061C157.83 320.641 160.16 321.971 162 324.061C164 328.371 166 332.711 168 337.061C178.7 330.671 189.37 324.341 200 318.061C202.93 319.361 205.27 321.361 207 324.061C205.51 339.551 204.51 355.221 204 371.061C206.81 371.111 209.48 371.771 212 373.061C215.7 366.951 217.87 360.281 218.5 353.061C218.67 345.551 219.17 338.221 220 331.061C222.67 331.731 225.33 332.391 228 333.061C228.41 345.651 227.24 357.991 224.5 370.061C227.2 367.021 230.2 364.361 233.5 362.061C234.08 355.571 234.58 349.071 235 342.561C235.02 339.631 235.69 337.131 237 335.061C239.26 335.781 241.6 336.111 244 336.061C243.83 340.741 244 345.411 244.5 350.061C249.05 346.761 251.55 342.591 252 337.561C257.33 336.891 262.67 336.891 268 337.561C278.21 347.271 288.54 356.771 299 366.061C302.33 364.731 305.33 362.901 308 360.561C297.51 352.571 287.51 344.071 278 335.061C280.96 334.401 283.96 334.071 287 334.061C288.37 333.901 289.71 334.071 291 334.561C299.19 341.581 307.52 348.421 316 355.061C319.47 352.751 322.81 350.251 326 347.561C317.55 341.951 309.89 335.451 303 328.061C310.94 324.451 316.94 318.781 321 311.061C321.76 310.641 322.6 310.301 323.5 310.061C331.8 313.091 340.3 315.431 349 317.061C349.09 314.881 349.75 312.881 351 311.061C342.27 308.601 333.61 305.931 325 303.061C324.08 303.691 323.08 304.021 322 304.061C322.19 300.531 321.52 297.191 320 294.061C322.33 295.391 324.67 295.391 327 294.061C335.72 297.411 344.72 299.751 354 301.061C354.61 297.111 355.61 293.281 357 289.561C347.14 286.691 337.14 284.521 327 283.061C327.47 285.641 326.81 287.641 325 289.061C322.13 288.131 319.8 286.461 318 284.061C321.55 265.831 322.38 247.491 320.5 229.061C318.19 232.211 315.69 235.211 313 238.061C314.22 252.361 314.22 266.701 313 281.061C310.45 279.761 307.78 278.761 305 278.061C304.67 277.391 304.33 276.731 304 276.061C305.14 266.471 305.31 256.801 304.5 247.061C301.5 250.061 298.5 253.061 295.5 256.061C295 260.711 294.83 265.381 295 270.061C289.03 266.981 282.69 264.981 276 264.061C275.89 263.441 275.56 262.941 275 262.561C292.2 245.531 309.2 228.361 326 211.061Z" fill="#FE5A59"/>
<path fill-rule="evenodd" clip-rule="evenodd" d="M330 263.061C339.72 263.591 349.38 264.591 359 266.061C359.44 270.921 358.94 275.591 357.5 280.061C348.4 277.871 339.23 275.871 330 274.061C329.59 270.491 329.59 266.821 330 263.061Z" fill="#FF807C"/>
<path fill-rule="evenodd" clip-rule="evenodd" d="M331 246.061C340.33 246.061 349.67 246.061 359 246.061C359 249.391 359 252.731 359 256.061C349.6 255.621 340.27 254.621 331 253.061C331 250.731 331 248.391 331 246.061Z" fill="#FF817D"/>
<path fill-rule="evenodd" clip-rule="evenodd" d="M343 226.061C351.38 224.181 355.72 227.511 356 236.061C347.61 235.761 339.28 236.091 331 237.061C330.03 234.821 329.69 232.481 330 230.061C334.55 229.101 338.88 227.761 343 226.061Z" fill="#FF807C"/>
<path fill-rule="evenodd" clip-rule="evenodd" d="M148 315.061C150.55 316.491 152.88 318.161 155 320.061C153.19 320.051 151.52 320.551 150 321.561C144.21 327.281 137.88 332.281 131 336.561C126.09 340.801 121.92 345.641 118.5 351.061C117.13 356.001 118.3 360.161 122 363.561C129.3 367.551 136.63 371.551 144 375.561C149.27 377.791 151.43 381.621 150.5 387.061C147.8 394.091 143.3 399.591 137 403.561C132.49 406.271 130.33 405.101 130.5 400.061C133.5 397.061 136.5 394.061 139.5 391.061C141.74 387.681 142.41 384.011 141.5 380.061C135.71 376.581 129.54 373.751 123 371.561C113.53 367.441 109.03 360.281 109.5 350.061C114.72 339.171 122.89 331.341 134 326.561C138.57 322.481 143.23 318.651 148 315.061Z" fill="#FE807C"/>
<path fill-rule="evenodd" clip-rule="evenodd" d="M340 324.061C336.94 326.681 333.44 328.681 329.5 330.061C328.78 332.821 328.94 335.491 330 338.061C325.11 335.351 320.61 332.021 316.5 328.061C316.98 325.401 317.81 322.731 319 320.061C319.5 319.731 320 319.391 320.5 319.061C326.79 321.551 333.29 323.221 340 324.061Z" fill="#FC807C"/>
<path fill-rule="evenodd" clip-rule="evenodd" d="M267 321.061C271.18 320.401 272.68 322.071 271.5 326.061C269.1 330.131 265.77 333.131 261.5 335.061C257.13 333.621 252.96 331.791 249 329.561C246.17 326.701 246.67 324.531 250.5 323.061C254.06 324.591 257.56 326.261 261 328.061C262.99 325.731 264.99 323.401 267 321.061Z" fill="#0F0F0F"/>
<path fill-rule="evenodd" clip-rule="evenodd" d="M207 324.061C211.14 326.901 215.48 329.231 220 331.061C219.17 338.221 218.67 345.551 218.5 353.061C217.87 360.281 215.7 366.951 212 373.061C209.48 371.771 206.81 371.111 204 371.061C204.51 355.221 205.51 339.551 207 324.061Z" fill="#FF807C"/>
<path fill-rule="evenodd" clip-rule="evenodd" d="M303 328.061C309.89 335.451 317.55 341.951 326 347.561C322.81 350.251 319.47 352.751 316 355.061C307.52 348.421 299.19 341.581 291 334.561C289.71 334.071 288.37 333.901 287 334.061C292.47 332.671 297.8 330.671 303 328.061Z" fill="#FF807C"/>
<path fill-rule="evenodd" clip-rule="evenodd" d="M195 331.061C196.16 341.221 196.33 351.551 195.5 362.061C195.28 363.501 194.78 364.831 194 366.061C191.03 365.021 188.36 363.521 186 361.561C186.82 353.141 187.32 344.641 187.5 336.061C189.98 334.251 192.48 332.581 195 331.061Z" fill="#FF807C"/>
<path fill-rule="evenodd" clip-rule="evenodd" d="M228 333.061C231.28 332.981 234.28 333.651 237 335.061C235.69 337.131 235.02 339.631 235 342.561C234.58 349.071 234.08 355.571 233.5 362.061C230.2 364.361 227.2 367.021 224.5 370.061C227.24 357.991 228.41 345.651 228 333.061Z" fill="#FF807C"/>
<path fill-rule="evenodd" clip-rule="evenodd" d="M277.999 335.061C287.509 344.071 297.509 352.571 307.999 360.561C305.329 362.901 302.329 364.731 298.999 366.061C288.539 356.771 278.209 347.271 267.999 337.561C262.669 336.891 257.329 336.891 251.999 337.561C251.549 342.591 249.049 346.761 244.499 350.061C243.999 345.411 243.829 340.741 243.999 336.061C255.359 336.301 266.699 335.971 277.999 335.061Z" fill="#FF827E"/>
<path fill-rule="evenodd" clip-rule="evenodd" d="M260 344.061C262.86 346.031 265.53 348.371 268 351.061C261.94 360.291 254.94 368.791 247 376.561C243.39 376.591 240.06 377.421 237 379.061C234.96 378.521 232.96 377.851 231 377.061C241.36 367.871 250.86 357.871 259.5 347.061C259.98 346.111 260.15 345.111 260 344.061Z" fill="#FF807C"/>
<path fill-rule="evenodd" clip-rule="evenodd" d="M274 357.061C276.43 357.661 278.1 359.161 279 361.561C276.21 366.631 273.05 371.471 269.5 376.061C266.2 377.861 262.7 378.361 259 377.561C262.83 373.061 266.67 368.561 270.5 364.061C272.2 361.981 273.37 359.651 274 357.061Z" fill="#FF807C"/>
<path fill-rule="evenodd" clip-rule="evenodd" d="M219 383.061C222.41 383.521 225.74 384.181 229 385.061C229.4 395.131 228.9 405.131 227.5 415.061C224.74 416.591 221.74 417.251 218.5 417.061C211.54 418.271 209.04 415.611 211 409.061C213.62 406.751 216.62 405.411 220 405.061C220.23 397.681 219.89 390.351 219 383.061Z" fill="#252525"/>
<path fill-rule="evenodd" clip-rule="evenodd" d="M280 384.061C280.44 391.391 280.78 398.721 281 406.061C284.63 405.721 287.96 406.551 291 408.561C292.64 415.081 289.97 417.581 283 416.061C280.67 415.891 278.33 415.731 276 415.561C275.5 415.061 275 414.561 274.5 414.061C272.48 404.501 271.64 394.841 272 385.061C274.67 384.731 277.33 384.391 280 384.061Z" fill="#262626"/>
</svg>
