<svg width="500" height="500" viewBox="0 0 500 500" fill="none" xmlns="http://www.w3.org/2000/svg">
<path fill-rule="evenodd" clip-rule="evenodd" d="M397 34.0622C407.44 33.3622 414.94 37.7022 419.5 47.0622C428.56 31.8022 439.56 30.1422 452.5 42.0622C459.88 51.0322 460.88 60.6922 455.5 71.0622C449.69 84.0322 442.35 96.0322 433.5 107.062C431.05 112.472 428.21 117.632 425 122.562C421.23 123.742 418.06 122.912 415.5 120.062C407.08 104.212 397.41 89.2122 386.5 75.0622C381.45 66.3522 379.78 57.0222 381.5 47.0622C385.37 41.0122 390.54 36.6822 397 34.0622Z" fill="#FBFCFF"/>
<path fill-rule="evenodd" clip-rule="evenodd" d="M64.0005 43.0618C52.6405 50.4218 44.6405 60.4218 40.0005 73.0618C38.3605 71.8118 37.2005 70.1418 36.5005 68.0618C36.2005 63.1118 34.2005 59.1118 30.5005 56.0618C30.0305 51.1318 32.1905 49.8018 37.0005 52.0618C39.5005 49.7318 42.0005 47.3918 44.5005 45.0618C43.9905 42.1818 44.1505 39.3418 45.0005 36.5618C48.8505 35.5718 50.8505 37.0718 51.0005 41.0618C55.5705 40.6118 59.9005 41.2818 64.0005 43.0618Z" fill="#3F721F"/>
<path fill-rule="evenodd" clip-rule="evenodd" d="M75.9996 42.0622C63.1396 54.8422 51.4696 68.5022 40.9996 83.0622C40.0896 79.8322 39.7496 76.5022 39.9996 73.0622C44.6396 60.4222 52.6396 50.4222 63.9996 43.0622C67.9496 42.2922 71.9496 41.9522 75.9996 42.0622Z" fill="#77B255"/>
<path fill-rule="evenodd" clip-rule="evenodd" d="M90.0002 47.0621C86.3102 47.3421 82.6502 47.8421 79.0002 48.5621C78.1202 49.9221 77.7902 51.4221 78.0002 53.0621C79.0502 52.9121 80.0502 53.0821 81.0002 53.5621C91.0902 60.3121 99.9202 68.4821 107.5 78.0621C112.8 85.3021 115.8 93.3021 116.5 102.062C115.01 103.312 113.51 103.312 112 102.062C109.75 93.5721 105.92 85.9021 100.5 79.0621C93.9302 71.8221 86.7602 65.3221 79.0002 59.5621C71.3002 55.8121 67.1302 57.9721 66.5002 66.0621C82.2702 81.0021 98.4302 95.3321 115 109.062C112.53 108.652 111.19 109.652 111 112.062C94.9102 99.4821 79.2502 86.3121 64.0002 72.5621C59.4002 71.1921 56.0702 72.5221 54.0002 76.5621C63.9302 96.4921 79.9302 107.832 102 110.562C103.68 113.352 103.02 115.182 100 116.062C93.1302 115.492 86.4602 113.992 80.0002 111.562C74.3902 108.282 69.0602 104.622 64.0002 100.562C59.1102 94.9221 54.1102 89.4221 49.0002 84.0621C48.0202 84.5421 47.1902 85.2021 46.5002 86.0621C46.0002 89.3821 45.8302 92.7121 46.0002 96.0621C45.1602 94.9221 44.4902 93.5921 44.0002 92.0621C31.5602 91.9321 21.7302 86.9321 14.5002 77.0621C13.3602 73.7021 14.5302 71.7021 18.0002 71.0621C21.7802 73.6721 25.4502 76.5021 29.0002 79.5621C31.6702 80.8921 34.3302 82.2321 37.0002 83.5621C38.5702 84.3221 39.9002 84.1621 41.0002 83.0621C51.4702 68.5021 63.1402 54.8421 76.0002 42.0621C72.1502 35.0321 67.3202 28.7021 61.5002 23.0621C60.7802 21.4521 60.9502 19.9521 62.0002 18.5621C64.0002 17.8921 66.0002 17.8921 68.0002 18.5621C76.2702 25.2621 81.9402 33.7621 85.0002 44.0621C86.6402 45.2621 88.3102 46.2621 90.0002 47.0621Z" fill="#568A35"/>
<path fill-rule="evenodd" clip-rule="evenodd" d="M103 54.0619C100.3 52.3819 97.63 50.7119 95 49.0619C101.6 45.2519 108.6 44.2519 116 46.0619C117.26 47.9119 117.26 49.7519 116 51.5619C111.61 52.3519 107.28 53.1819 103 54.0619Z" fill="#3F7220"/>
<path fill-rule="evenodd" clip-rule="evenodd" d="M435.999 45.062C442.719 46.782 446.719 51.122 447.999 58.062C445.449 64.842 442.609 71.502 439.499 78.062C433.529 87.532 427.359 96.862 420.999 106.062C413.239 92.882 404.739 80.212 395.499 68.062C392.469 62.752 391.469 57.092 392.499 51.062C397.529 44.852 402.859 44.512 408.499 50.062C410.329 53.732 412.169 57.392 413.999 61.062C417.479 64.432 421.139 64.762 424.999 62.062C427.109 58.562 428.949 54.892 430.499 51.062C432.269 48.942 434.099 46.942 435.999 45.062Z" fill="#3496FF"/>
<path fill-rule="evenodd" clip-rule="evenodd" d="M90 47.062C91.78 47.452 93.45 48.122 95 49.062C97.63 50.712 100.3 52.382 103 54.062C107.33 57.732 111.33 61.732 115 66.062C116.35 68.752 117.68 71.422 119 74.062C124.64 85.762 124.31 97.262 118 108.562C117.05 109.042 116.05 109.212 115 109.062C98.43 95.332 82.27 81.002 66.5 66.062C67.13 57.972 71.3 55.812 79 59.562C86.76 65.322 93.93 71.822 100.5 79.062C105.92 85.902 109.75 93.572 112 102.062C113.51 103.312 115.01 103.312 116.5 102.062C115.8 93.302 112.8 85.302 107.5 78.062C99.92 68.482 91.09 60.312 81 53.562C80.05 53.082 79.05 52.912 78 53.062C77.79 51.422 78.12 49.922 79 48.562C82.65 47.842 86.31 47.342 90 47.062Z" fill="#77B155"/>
<path fill-rule="evenodd" clip-rule="evenodd" d="M115 66.062C124.68 66.982 132.85 70.982 139.5 78.062C140.13 81.142 138.96 83.142 136 84.062C132.55 81.792 129.22 79.292 126 76.562C123.65 75.712 121.31 74.882 119 74.062C117.68 71.422 116.35 68.752 115 66.062Z" fill="#3F7221"/>
<path fill-rule="evenodd" clip-rule="evenodd" d="M110.999 112.062C111.419 114.882 110.419 117.052 107.999 118.562C103.319 121.152 98.3195 122.652 92.9995 123.062C86.6595 123.232 80.3195 123.062 73.9995 122.562C72.3095 121.712 70.6395 120.882 68.9995 120.062C64.2995 116.722 59.6395 113.382 54.9995 110.062C53.3795 107.112 51.3795 104.442 48.9995 102.062C47.4795 100.342 46.4795 98.3422 45.9995 96.0622C45.8295 92.7122 45.9995 89.3822 46.4995 86.0622C47.1895 85.2022 48.0195 84.5422 48.9995 84.0622C54.1095 89.4222 59.1095 94.9222 63.9995 100.562C69.0595 104.622 74.3895 108.282 79.9995 111.562C86.4595 113.992 93.1295 115.492 99.9995 116.062C103.019 115.182 103.679 113.352 101.999 110.562C79.9295 107.832 63.9295 96.4922 53.9995 76.5622C56.0695 72.5222 59.3995 71.1922 63.9995 72.5622C79.2495 86.3122 94.9095 99.4822 110.999 112.062Z" fill="#76B154"/>
<path fill-rule="evenodd" clip-rule="evenodd" d="M217 99.0622C208.19 103.362 200.69 109.362 194.5 117.062C177.87 147.942 174.04 180.272 183 214.062C163.79 223.492 146.12 235.162 130 249.062C126.95 251.612 123.62 252.272 120 251.062C114.34 236.592 112.5 221.592 114.5 206.062C114.81 193.322 117.14 180.992 121.5 169.062C127.01 160.722 132.01 152.052 136.5 143.062C141.71 136.192 147.87 130.352 155 125.562C167.11 118.172 179.78 111.842 193 106.562C196.99 97.4022 203.99 93.7322 214 95.5622C215.56 96.2822 216.56 97.4522 217 99.0622Z" fill="#252525"/>
<path fill-rule="evenodd" clip-rule="evenodd" d="M321 123.062C321.73 125.162 321.73 127.162 321 129.062C318.78 125.482 315.78 123.152 312 122.062C312.25 127.082 312.75 132.082 313.5 137.062C314.86 137.942 316.36 138.272 318 138.062C317.84 136.362 318.01 134.692 318.5 133.062C326.25 140.512 328.75 138.842 326 128.062C336.89 138.122 345.72 149.792 352.5 163.062C353.2 166.042 353.7 169.042 354 172.062C341.33 170.812 328.66 170.982 316 172.562C296.35 176.342 276.68 180.002 257 183.562C238.26 191.192 219.6 198.692 201 206.062C194.76 208.182 188.76 210.852 183 214.062C174.04 180.272 177.87 147.942 194.5 117.062C200.69 109.362 208.19 103.362 217 99.0618C250.44 91.2418 281.77 96.4118 311 114.562C314.5 117.232 317.83 120.062 321 123.062Z" fill="#F6F6F7"/>
<path fill-rule="evenodd" clip-rule="evenodd" d="M48.9995 102.062C51.3795 104.442 53.3795 107.112 54.9995 110.062C55.1695 114.412 54.9995 118.742 54.4995 123.062C51.9095 124.542 49.5695 124.212 47.4995 122.062C46.8895 115.312 47.3895 108.642 48.9995 102.062Z" fill="#407227"/>
<path fill-rule="evenodd" clip-rule="evenodd" d="M69 120.062C70.64 120.882 72.31 121.712 74 122.562C80.32 123.062 86.66 123.232 93 123.062C88.82 123.732 84.48 124.392 80 125.062C82.85 129.732 85.85 134.232 89 138.562C88.05 141.632 86.05 142.632 83 141.562C76.18 135.742 71.51 128.572 69 120.062Z" fill="#417528"/>
<path fill-rule="evenodd" clip-rule="evenodd" d="M291 123.062C294.45 122.322 296.12 123.652 296 127.062C294.11 126.862 292.61 127.522 291.5 129.062C291 131.372 290.84 133.702 291 136.062C293.98 135.602 296.98 135.262 300 135.062C299.6 131.372 299.44 127.712 299.5 124.062C301.64 122.792 303.81 122.792 306 124.062C309.47 128.462 311.13 133.462 311 139.062C308 139.392 306.67 138.062 307 135.062C306 135.062 305 135.062 304 135.062C304 136.732 304 138.392 304 140.062C302.11 140.262 300.61 139.602 299.5 138.062C296.03 141.482 292.36 141.812 288.5 139.062C285.86 133.042 286.69 127.712 291 123.062Z" fill="#2B2B2B"/>
<path fill-rule="evenodd" clip-rule="evenodd" d="M321 123.062C323 124.392 324.67 126.062 326 128.062C328.75 138.842 326.25 140.512 318.5 133.062C318.01 134.692 317.84 136.362 318 138.062C316.36 138.272 314.86 137.942 313.5 137.062C312.75 132.082 312.25 127.082 312 122.062C315.78 123.152 318.78 125.482 321 129.062C321.73 127.162 321.73 125.162 321 123.062Z" fill="#2D2D2D"/>
<path fill-rule="evenodd" clip-rule="evenodd" d="M267 128.062C268.67 128.062 270.33 128.062 272 128.062C271.89 130.672 270.73 132.672 268.5 134.062C268 136.372 267.84 138.702 268 141.062C272.06 140.912 272.56 139.912 269.5 138.062C268.82 136.782 268.98 135.612 270 134.562C277.34 133.412 280.01 136.582 278 144.062C276.57 144.142 275.24 143.812 274 143.062C271.08 146.482 267.91 146.822 264.5 144.062C264.01 145.692 263.84 147.362 264 149.062C258.96 149.542 255.12 147.542 252.5 143.062C252.63 146.052 252.63 149.052 252.5 152.062C251.49 152.902 250.32 153.232 249 153.062C247.78 146.752 246.78 140.422 246 134.062C247.37 133.902 248.71 134.072 250 134.562C252.5 137.062 255 139.562 257.5 142.062C257.34 138.392 256.84 134.722 256 131.062C257.48 130.802 258.81 131.132 260 132.062C260.93 134.362 261.77 136.692 262.5 139.062C262.91 134.912 264.41 131.242 267 128.062Z" fill="#2F2F2F"/>
<path fill-rule="evenodd" clip-rule="evenodd" d="M239 137.062C240.32 136.892 241.49 137.222 242.5 138.062C244.14 142.962 245.31 147.962 246 153.062C243.59 153.422 242.09 152.422 241.5 150.062C240.35 145.772 239.51 141.442 239 137.062Z" fill="#292929"/>
<path fill-rule="evenodd" clip-rule="evenodd" d="M232 138.062C235.09 138.192 236.93 139.852 237.5 143.062C238.36 147.842 239.53 152.502 241 157.062C239.63 157.222 238.29 157.052 237 156.562C236.1 154.362 235.1 152.192 234 150.062C233 150.392 232.33 151.062 232 152.062C232.81 153.632 233.14 155.302 233 157.062C231.68 157.232 230.51 156.902 229.5 156.062C228.24 153.102 227.07 150.102 226 147.062C224.3 145.742 222.96 146.072 222 148.062C223.59 152.332 224.92 156.662 226 161.062C224.52 161.322 223.19 160.992 222 160.062C220.93 157.022 219.76 154.022 218.5 151.062C216.38 150.592 214.88 149.432 214 147.562C217.98 143.242 222.98 141.082 229 141.062C228.73 143.742 229.73 145.242 232 145.562C232.64 143.172 232.64 140.672 232 138.062Z" fill="#2B2B2B"/>
<path fill-rule="evenodd" clip-rule="evenodd" d="M314 141.062C315.7 140.902 317.37 141.072 319 141.562C320.33 142.892 320.33 144.232 319 145.562C317.37 146.052 315.7 146.222 314 146.062C314 147.062 314 148.062 314 149.062C320 148.562 322.17 151.232 320.5 157.062C318.29 159.852 315.46 160.682 312 159.562C311.16 158.552 310.83 157.382 311 156.062C313.25 156.382 315.25 155.882 317 154.562C310.53 155.102 308.03 152.262 309.5 146.062C310.52 143.872 312.02 142.212 314 141.062Z" fill="#323232"/>
<path fill-rule="evenodd" clip-rule="evenodd" d="M303 144.062C305.89 143.782 307.39 145.112 307.5 148.062C308 152.382 308.17 156.712 308 161.062C306.68 161.232 305.51 160.902 304.5 160.062C303.93 154.732 303.43 149.392 303 144.062Z" fill="#2D2D2D"/>
<path fill-rule="evenodd" clip-rule="evenodd" d="M297 145.062C298.62 144.922 299.79 145.592 300.5 147.062C301.66 151.992 302.16 156.992 302 162.062C300.68 162.232 299.51 161.902 298.5 161.062C298.3 159.302 297.8 157.642 297 156.062C296.41 156.272 295.91 156.602 295.5 157.062C295 159.372 294.84 161.702 295 164.062C293.68 164.232 292.51 163.902 291.5 163.062C290.97 158.482 289.8 154.152 288 150.062C286.21 150.522 285.21 151.692 285 153.562C286.63 157.612 287.13 161.772 286.5 166.062C284.91 167.292 283.58 166.952 282.5 165.062C282.08 160.612 281.25 156.272 280 152.062C278 152.062 276 152.062 274 152.062C273.83 150.742 274.16 149.572 275 148.562C280.64 146.332 286.31 146.002 292 147.562C292.96 148.982 293.79 150.482 294.5 152.062C295.64 149.852 296.48 147.522 297 145.062Z" fill="#2F2F2F"/>
<path fill-rule="evenodd" clip-rule="evenodd" d="M205 149.062C214.93 148.492 219.09 153.162 217.5 163.062C214.95 167.492 211.62 168.152 207.5 165.062C205.15 159.832 204.32 154.502 205 149.062Z" fill="#2B2B2B"/>
<path fill-rule="evenodd" clip-rule="evenodd" d="M198 152.062C199.32 151.892 200.49 152.222 201.5 153.062C203.48 158.672 205.65 164.172 208 169.562C207.77 171.292 206.77 172.132 205 172.062C200.84 170.732 197.01 168.732 193.5 166.062C194.61 170.252 195.44 174.592 196 179.062C194.68 179.232 193.51 178.902 192.5 178.062C190.18 172.412 188.01 166.742 186 161.062C186.6 158.312 188.26 157.482 191 158.562C193.93 161.782 197.27 163.612 201 164.062C199.58 160.152 198.58 156.152 198 152.062Z" fill="#2E2E2E"/>
<path fill-rule="evenodd" clip-rule="evenodd" d="M209 153.062C214.03 155.182 215.03 158.512 212 163.062C210.08 160.042 209.08 156.712 209 153.062Z" fill="#E4E4E4"/>
<path fill-rule="evenodd" clip-rule="evenodd" d="M254 154.062C258.95 153.192 263.11 154.522 266.5 158.062C267.64 163.112 265.81 166.782 261 169.062C262.56 171.462 262.23 173.462 260 175.062C259.02 174.582 258.19 173.922 257.5 173.062C256.45 169.292 255.12 165.632 253.5 162.062C252.78 159.302 252.94 156.632 254 154.062Z" fill="#292929"/>
<path fill-rule="evenodd" clip-rule="evenodd" d="M257 158.062C260.53 157.452 262.36 158.782 262.5 162.062C261.66 163.572 260.5 164.072 259 163.562C257.64 161.982 256.97 160.142 257 158.062Z" fill="#E0E0E0"/>
<path fill-rule="evenodd" clip-rule="evenodd" d="M242 159.062C249.63 158.572 253.63 162.242 254 170.062C254.1 172.492 253.43 174.652 252 176.562C243.59 178.982 239.26 175.822 239 167.062C238.9 163.942 239.9 161.272 242 159.062Z" fill="#2C2C2C"/>
<path fill-rule="evenodd" clip-rule="evenodd" d="M233 161.062C236.45 160.322 238.12 161.652 238 165.062C236.02 164.942 234.35 165.612 233 167.062C235.28 171.892 236.94 176.892 238 182.062C236.36 182.272 234.86 181.942 233.5 181.062C232.29 176.932 230.79 172.932 229 169.062C226.63 170.662 224.96 170.162 224 167.562C226.88 165.172 229.88 163.002 233 161.062Z" fill="#2F2F2F"/>
<path fill-rule="evenodd" clip-rule="evenodd" d="M243.999 163.062C245.319 162.892 246.489 163.222 247.499 164.062C249.409 166.772 250.239 169.772 249.999 173.062C243.969 172.352 241.969 169.022 243.999 163.062Z" fill="#E7E7E7"/>
<path fill-rule="evenodd" clip-rule="evenodd" d="M215 168.062C217.29 167.802 219.46 168.142 221.5 169.062C222.17 169.732 222.17 170.392 221.5 171.062C220.1 171.792 218.6 172.292 217 172.562C215.57 174.442 215.9 175.942 218 177.062C223.35 175.552 226.01 177.722 226 183.562C225.44 189.112 222.44 191.112 217 189.562C215.46 188.452 214.8 186.952 215 185.062C216.76 184.922 218.43 185.252 220 186.062C222.1 184.942 222.43 183.442 221 181.562C211.51 180.492 209.51 175.992 215 168.062Z" fill="#2A2A2A"/>
<path fill-rule="evenodd" clip-rule="evenodd" d="M354 172.062C363.69 175.412 373.03 179.572 382 184.562C393.15 194.472 394.98 205.972 387.5 219.062C383.12 224.002 377.62 226.332 371 226.062C368.29 225.982 365.63 225.652 363 225.062C355.43 221.932 347.43 220.102 339 219.562C328.47 217.492 318.81 219.492 310 225.562C302.77 230.342 295.44 234.842 288 239.062C284.59 240.742 281.26 242.412 278 244.062C275.76 243.772 273.76 244.102 272 245.062C269.44 244.762 267.11 245.092 265 246.062C241.36 247.652 222.2 239.322 207.5 221.062C204.65 216.352 202.49 211.352 201 206.062C219.6 198.692 238.26 191.192 257 183.562C276.68 180.002 296.35 176.342 316 172.562C328.66 170.982 341.33 170.812 354 172.062Z" fill="#252525"/>
<path fill-rule="evenodd" clip-rule="evenodd" d="M201 206.062C202.49 211.352 204.65 216.352 207.5 221.062C222.2 239.322 241.36 247.652 265 246.062C266.15 248.312 267.81 250.152 270 251.562C264.85 253.692 259.52 254.352 254 253.562C241.45 250.712 229.11 247.042 217 242.562C211.43 238.662 206.93 233.832 203.5 228.062C193.25 234.992 185.92 244.322 181.5 256.062C178.09 251.232 175.75 245.902 174.5 240.062C173.78 239.112 172.95 238.942 172 239.562C162.86 250.332 156.2 262.502 152 276.062C152.12 276.672 152.46 277.002 153 277.062C149.03 281.342 146.36 286.342 145 292.062C140.33 291.392 135.67 290.732 131 290.062C133.31 280.092 137.31 270.762 143 262.062C141.78 260.952 140.44 260.782 139 261.562C132.36 266.472 126.2 271.972 120.5 278.062C123.38 269.922 126.05 261.582 128.5 253.062C128.97 251.632 129.8 250.462 131 249.562C130.77 249.162 130.44 248.992 130 249.062C146.12 235.162 163.79 223.492 183 214.062C188.76 210.852 194.76 208.182 201 206.062Z" fill="#FDE98D"/>
<path fill-rule="evenodd" clip-rule="evenodd" d="M363 225.062C362.59 231.662 363.42 238.332 365.5 245.062C369.91 260.642 376.08 275.472 384 289.562C380.55 287.142 377.22 284.142 374 280.562C372.68 280.032 372.02 280.532 372 282.062C366.15 282.092 360.48 283.092 355 285.062C352.78 284.642 351.45 283.312 351 281.062C349.02 266.612 342.35 254.442 331 244.562C325.83 241.472 320.83 238.142 316 234.562C312.32 235.032 311.15 237.192 312.5 241.062C318.5 248.392 322.33 256.732 324 266.062C321.76 266.352 319.76 266.022 318 265.062C319.7 265.222 321.37 265.052 323 264.562C313.98 252.372 302.32 243.872 288 239.062C295.44 234.842 302.77 230.342 310 225.562C318.81 219.492 328.47 217.492 339 219.562C347.43 220.102 355.43 221.932 363 225.062Z" fill="#FEE98D"/>
<path fill-rule="evenodd" clip-rule="evenodd" d="M363 225.062C365.63 225.652 368.29 225.982 371 226.062C372.7 237.332 375.53 248.332 379.5 259.062C384.82 271.702 390.66 284.042 397 296.062C396.24 298.002 395.24 299.832 394 301.562C389.47 302.512 385.14 302.012 381 300.062C378.61 310.122 376.94 320.292 376 330.562C376.55 338.422 377.05 346.262 377.5 354.062C374.21 356.872 371.21 356.542 368.5 353.062C365.68 362.942 367.02 372.282 372.5 381.062C371.92 387.952 368.09 390.782 361 389.562C354.71 387.112 349.38 383.282 345 378.062C343.7 378.652 342.87 379.652 342.5 381.062C341.63 386.002 339.8 390.502 337 394.562C335 395.232 333 395.232 331 394.562C321.94 390.332 315.94 383.502 313 374.062C312.52 370.222 313.52 366.892 316 364.062C323.56 356.152 329.56 347.152 334 337.062C339.49 333.992 344.16 329.992 348 325.062C346.41 333.272 343.24 341.272 338.5 349.062C333.41 356.242 328.08 363.242 322.5 370.062C321.79 372.532 322.13 374.862 323.5 377.062C325.9 379.962 328.73 382.292 332 384.062C333.98 376.102 337.98 369.442 344 364.062C349.1 368.662 354.1 373.492 359 378.562C359.98 379.152 360.65 378.822 361 377.562C358.64 372.502 357.64 367.162 358 361.562C359.24 350.052 360.58 338.552 362 327.062C363 327.062 364 327.062 365 327.062C364.81 328.662 365.31 330.002 366.5 331.062C368.34 319.032 370.18 307.032 372 295.062C376 290.732 376 286.392 372 282.062C372.02 280.532 372.68 280.032 374 280.562C377.22 284.142 380.55 287.142 384 289.562C376.08 275.472 369.91 260.642 365.5 245.062C363.42 238.332 362.59 231.662 363 225.062Z" fill="#FCDD5F"/>
<path fill-rule="evenodd" clip-rule="evenodd" d="M265 246.062C267.11 245.092 269.44 244.762 272 245.062C276.1 245.442 279.77 246.942 283 249.562C284.51 250.402 285.01 251.562 284.5 253.062C272.19 263.342 258.36 265.842 243 260.562C231.77 257.152 220.77 253.152 210 248.562C207.48 245.882 204.82 243.382 202 241.062C195.1 247.182 191.1 254.852 190 264.062C188.71 263.822 187.71 264.162 187 265.062C183.65 265.232 180.32 265.062 177 264.562C174.1 262.162 171.77 259.332 170 256.062C167.62 260.152 165.79 264.492 164.5 269.062C160.38 271.372 156.54 274.032 153 277.062C152.46 277.002 152.12 276.672 152 276.062C156.2 262.502 162.86 250.332 172 239.562C172.95 238.942 173.78 239.112 174.5 240.062C175.75 245.902 178.09 251.232 181.5 256.062C185.92 244.322 193.25 234.992 203.5 228.062C206.93 233.832 211.43 238.662 217 242.562C229.11 247.042 241.45 250.712 254 253.562C259.52 254.352 264.85 253.692 270 251.562C267.81 250.152 266.15 248.312 265 246.062Z" fill="#FEDD5F"/>
<path fill-rule="evenodd" clip-rule="evenodd" d="M351 281.062C347.83 276.372 343.67 272.712 338.5 270.062C336.69 265.112 334.36 260.452 331.5 256.062C332.4 259.962 333.23 263.962 334 268.062C330.49 267.662 327.16 266.992 324 266.062C322.33 256.732 318.5 248.392 312.5 241.062C311.15 237.192 312.32 235.032 316 234.562C320.83 238.142 325.83 241.472 331 244.562C342.35 254.442 349.02 266.612 351 281.062Z" fill="#FEDE60"/>
<path fill-rule="evenodd" clip-rule="evenodd" d="M288 239.062C302.32 243.872 313.98 252.372 323 264.562C321.37 265.052 319.7 265.222 318 265.062C316 265.062 314 265.062 312 265.062C302.35 255.562 291.01 248.562 278 244.062C281.26 242.412 284.59 240.742 288 239.062Z" fill="#FEDD5E"/>
<path fill-rule="evenodd" clip-rule="evenodd" d="M272 245.062C273.76 244.102 275.76 243.772 278 244.062C291.01 248.562 302.35 255.562 312 265.062C296.64 263.232 282.64 266.732 270 275.562C266.39 278.822 263.23 282.322 260.5 286.062C254.37 285.292 248.2 284.792 242 284.562C236.11 276.792 228.44 271.792 219 269.562C208.59 266.212 197.92 264.712 187 265.062C187.71 264.162 188.71 263.822 190 264.062C191.1 254.852 195.1 247.182 202 241.062C204.82 243.382 207.48 245.882 210 248.562C220.77 253.152 231.77 257.152 243 260.562C258.36 265.842 272.19 263.342 284.5 253.062C285.01 251.562 284.51 250.402 283 249.562C279.77 246.942 276.1 245.442 272 245.062Z" fill="#F4DECF"/>
<path fill-rule="evenodd" clip-rule="evenodd" d="M130 249.062C130.44 248.992 130.77 249.162 131 249.562C129.8 250.462 128.97 251.632 128.5 253.062C126.05 261.582 123.38 269.922 120.5 278.062C126.2 271.972 132.36 266.472 139 261.562C140.44 260.782 141.78 260.952 143 262.062C137.31 270.762 133.31 280.092 131 290.062C129.27 292.382 128.61 295.052 129 298.062C128.83 303.402 129 308.742 129.5 314.062C132.49 326.712 135.49 339.372 138.5 352.062C138.83 357.062 139.17 362.062 139.5 367.062C144.07 362.922 147.41 357.922 149.5 352.062C150.17 350.732 150.83 350.732 151.5 352.062C153.22 362.542 156.55 372.542 161.5 382.062C162.83 386.732 164.17 391.392 165.5 396.062C172.66 385.812 174.99 374.472 172.5 362.062C166.34 351.402 161.51 340.062 158 328.062C158.12 327.452 158.46 327.122 159 327.062C162.05 329.252 165.39 330.922 169 332.062C171.42 340.242 174.92 347.912 179.5 355.062C180.85 358.282 181.69 361.612 182 365.062C182.25 372.452 181.75 379.782 180.5 387.062C176.9 394.322 172.9 401.322 168.5 408.062C165.34 413.152 161.01 414.822 155.5 413.062C157.73 398.652 154.9 385.312 147 373.062C143.18 376.472 139.18 379.632 135 382.562C132.47 383.462 130.31 382.962 128.5 381.062C129.75 371.472 130.09 361.802 129.5 352.062C125.89 339.552 122.89 326.882 120.5 314.062C119.83 307.062 119.83 300.062 120.5 293.062C121.69 291.522 122.02 289.852 121.5 288.062C115.84 292.772 109.34 294.932 102 294.562C100.7 293.762 100.03 292.592 100 291.062C103.32 285.092 107.16 279.422 111.5 274.062C114.64 266.472 117.47 258.802 120 251.062C123.62 252.272 126.95 251.612 130 249.062Z" fill="#FCDD5F"/>
<path fill-rule="evenodd" clip-rule="evenodd" d="M187 265.062C197.92 264.712 208.59 266.212 219 269.562C228.44 271.792 236.11 276.792 242 284.562C248.2 284.792 254.37 285.292 260.5 286.062C263.23 282.322 266.39 278.822 270 275.562C282.64 266.732 296.64 263.232 312 265.062C314 265.062 316 265.062 318 265.062C319.76 266.022 321.76 266.352 324 266.062C327.16 266.992 330.49 267.662 334 268.062C333.23 263.962 332.4 259.962 331.5 256.062C334.36 260.452 336.69 265.112 338.5 270.062C343.67 272.712 347.83 276.372 351 281.062C351.45 283.312 352.78 284.642 355 285.062C360.48 283.092 366.15 282.092 372 282.062C376 286.392 376 290.732 372 295.062C366.67 296.232 361.5 297.892 356.5 300.062C356.54 309.452 353.7 317.782 348 325.062C344.16 329.992 339.49 333.992 334 337.062C328.69 338.392 323.35 339.732 318 341.062C311.67 340.292 305.34 339.622 299 339.062C277.78 334.172 265.45 320.842 262 299.062C256 299.062 250 299.062 244 299.062C243.72 308.462 240.05 316.302 233 322.562C223.32 329.572 212.65 334.072 201 336.062C190.07 336.682 179.4 335.352 169 332.062C165.39 330.922 162.05 329.252 159 327.062C151.03 322.142 145.7 315.142 143 306.062C137.65 304.392 132.98 301.722 129 298.062C128.61 295.052 129.27 292.382 131 290.062C135.67 290.732 140.33 291.392 145 292.062C146.36 286.342 149.03 281.342 153 277.062C156.54 274.032 160.38 271.372 164.5 269.062C165.79 264.492 167.62 260.152 170 256.062C171.77 259.332 174.1 262.162 177 264.562C180.32 265.062 183.65 265.232 187 265.062Z" fill="#F9F9F7"/>
<path fill-rule="evenodd" clip-rule="evenodd" d="M211 278.062C200.77 285.262 199.43 293.762 207 303.562C213.38 304.792 218.21 302.622 221.5 297.062C224.39 292.382 224.56 287.712 222 283.062C222.12 282.452 222.46 282.122 223 282.062C236.21 290.792 237.54 301.292 227 313.562C212.46 324.242 196.46 327.402 179 323.062C174.17 314.382 172 305.042 172.5 295.062C173.9 293.412 174.07 291.752 173 290.062C168.77 294.672 163.77 298.002 158 300.062C156.47 299.922 155.47 299.252 155 298.062C155.59 289.732 159.59 283.562 167 279.562C181.53 274.402 196.19 273.902 211 278.062Z" fill="#141414"/>
<path fill-rule="evenodd" clip-rule="evenodd" d="M345 295.062C345.15 296.112 344.98 297.112 344.5 298.062C339.2 297.132 334.54 294.792 330.5 291.062C330.17 295.392 329.83 299.732 329.5 304.062C326.5 310.392 323.5 316.732 320.5 323.062C317.23 328.512 312.4 330.512 306 329.062C285.05 326.902 273.72 315.232 272 294.062C271.82 291.362 272.48 289.022 274 287.062C275.49 291.702 277.82 296.032 281 300.062C286.53 302.062 291.36 301.062 295.5 297.062C295.83 292.882 296.66 288.882 298 285.062C298.22 281.772 296.89 279.272 294 277.562C294.56 277.182 294.89 276.682 295 276.062C310.05 273.732 324.38 275.902 338 282.562C341.77 285.922 344.1 290.092 345 295.062Z" fill="#141414"/>
<path fill-rule="evenodd" clip-rule="evenodd" d="M295 276.062C294.89 276.682 294.56 277.182 294 277.562C296.89 279.272 298.22 281.772 298 285.062C296.66 288.882 295.83 292.882 295.5 297.062C291.36 301.062 286.53 302.062 281 300.062C277.82 296.032 275.49 291.702 274 287.062C279.95 281.582 286.95 277.922 295 276.062Z" fill="#8E8E8E"/>
<path fill-rule="evenodd" clip-rule="evenodd" d="M211 278.062C215.03 279.622 219.03 280.962 223 282.062C222.46 282.122 222.12 282.452 222 283.062C224.56 287.712 224.39 292.382 221.5 297.062C218.21 302.622 213.38 304.792 207 303.562C199.43 293.762 200.77 285.262 211 278.062Z" fill="#8E8E8E"/>
<path fill-rule="evenodd" clip-rule="evenodd" d="M179 323.062C172.64 322.882 167.31 320.542 163 316.062C161.26 311.182 159.93 306.182 159 301.062C157.33 301.062 155.67 301.062 154 301.062C153.76 299.772 154.1 298.772 155 298.062C155.47 299.252 156.47 299.922 158 300.062C163.77 298.002 168.77 294.672 173 290.062C174.07 291.752 173.9 293.412 172.5 295.062C172 305.042 174.17 314.382 179 323.062Z" fill="#897E78"/>
<path fill-rule="evenodd" clip-rule="evenodd" d="M345 295.062C346.35 299.972 346.18 304.972 344.5 310.062C336.29 325.852 323.45 332.182 306 329.062C312.4 330.512 317.23 328.512 320.5 323.062C323.5 316.732 326.5 310.392 329.5 304.062C329.83 299.732 330.17 295.392 330.5 291.062C334.54 294.792 339.2 297.132 344.5 298.062C344.98 297.112 345.15 296.112 345 295.062Z" fill="#8C8177"/>
<path fill-rule="evenodd" clip-rule="evenodd" d="M372 295.062C370.18 307.032 368.34 319.032 366.5 331.062C365.31 330.002 364.81 328.662 365 327.062C364 327.062 363 327.062 362 327.062C360.58 338.552 359.24 350.052 358 361.562C357.64 367.162 358.64 372.502 361 377.562C360.65 378.822 359.98 379.152 359 378.562C354.1 373.492 349.1 368.662 344 364.062C337.98 369.442 333.98 376.102 332 384.062C328.73 382.292 325.9 379.962 323.5 377.062C322.13 374.862 321.79 372.532 322.5 370.062C328.08 363.242 333.41 356.242 338.5 349.062C343.24 341.272 346.41 333.272 348 325.062C353.7 317.782 356.54 309.452 356.5 300.062C361.5 297.892 366.67 296.232 372 295.062Z" fill="#FFE98E"/>
<path fill-rule="evenodd" clip-rule="evenodd" d="M299 339.062C293.8 347.832 295.47 355.002 304 360.562C307.92 362.022 311.92 363.192 316 364.062C313.52 366.892 312.52 370.222 313 374.062C308.77 375.912 304.44 377.582 300 379.062C299 384.692 298.67 390.352 299 396.062C304.28 395.492 309.28 396.322 314 398.562C319.06 407.462 316.73 413.792 307 417.562C301.99 417.972 296.99 418.472 292 419.062C289.87 419.042 287.87 418.542 286 417.562C283.96 414.312 281.79 411.142 279.5 408.062C278.18 400.122 277.68 392.122 278 384.062C262.18 385.982 246.51 385.312 231 382.062C230.72 391.442 229.88 400.772 228.5 410.062C226.95 416.122 223.11 419.452 217 420.062C211.34 419.182 205.67 418.352 200 417.562C193.09 413.792 191.25 408.292 194.5 401.062C198.49 396.982 203.32 394.982 209 395.062C209.7 389.032 210.2 383.032 210.5 377.062C200.81 374.792 191.98 370.792 184 365.062C200.95 363.082 208.28 353.412 206 336.062C204.33 336.062 202.67 336.062 201 336.062C212.65 334.072 223.32 329.572 233 322.562C240.05 316.302 243.72 308.462 244 299.062C250 299.062 256 299.062 262 299.062C265.45 320.842 277.78 334.172 299 339.062Z" fill="#F2DDCF"/>
<path fill-rule="evenodd" clip-rule="evenodd" d="M128.999 298.062C132.979 301.722 137.649 304.392 142.999 306.062C145.699 315.142 151.029 322.142 158.999 327.062C158.459 327.122 158.119 327.452 157.999 328.062C161.509 340.062 166.339 351.402 172.499 362.062C174.989 374.472 172.659 385.812 165.499 396.062C164.169 391.392 162.829 386.732 161.499 382.062C156.549 372.542 153.219 362.542 151.499 352.062C150.829 350.732 150.169 350.732 149.499 352.062C147.409 357.922 144.069 362.922 139.499 367.062C139.169 362.062 138.829 357.062 138.499 352.062C135.489 339.372 132.489 326.712 129.499 314.062C128.999 308.742 128.829 303.402 128.999 298.062Z" fill="#FFE98D"/>
<path fill-rule="evenodd" clip-rule="evenodd" d="M154 301.062C155.67 301.062 157.33 301.062 159 301.062C159.93 306.182 161.26 311.182 163 316.062C156.7 313.132 153.7 308.132 154 301.062Z" fill="#938347"/>
<path fill-rule="evenodd" clip-rule="evenodd" d="M169 332.062C179.4 335.352 190.07 336.682 201 336.062C202.67 336.062 204.33 336.062 206 336.062C208.28 353.412 200.95 363.082 184 365.062C183.33 365.062 182.67 365.062 182 365.062C181.69 361.612 180.85 358.282 179.5 355.062C174.92 347.912 171.42 340.242 169 332.062Z" fill="#F5CCC4"/>
<path fill-rule="evenodd" clip-rule="evenodd" d="M267 338.062C272.49 336.742 274.99 338.742 274.5 344.062C271.35 349.542 267.18 354.042 262 357.562C259.24 358.142 256.58 357.812 254 356.562C249.51 353.902 245.01 351.402 240.5 349.062C239.01 344.732 240.51 342.392 245 342.062C249.73 343.862 254.4 345.862 259 348.062C262.61 345.512 265.28 342.172 267 338.062Z" fill="#0B0A0A"/>
<path fill-rule="evenodd" clip-rule="evenodd" d="M333.999 337.062C329.559 347.152 323.559 356.152 315.999 364.062C311.919 363.192 307.919 362.022 303.999 360.562C295.469 355.002 293.799 347.832 298.999 339.062C305.339 339.622 311.669 340.292 317.999 341.062C323.349 339.732 328.689 338.392 333.999 337.062Z" fill="#F6CCC3"/>
<path fill-rule="evenodd" clip-rule="evenodd" d="M475.999 408.062C473.999 409.392 472.329 411.062 470.999 413.062C468.039 416.522 464.869 419.862 461.499 423.062C454.109 415.512 447.279 407.512 440.999 399.062C438.539 394.752 437.539 390.082 437.999 385.062C440.399 377.862 445.399 374.692 452.999 375.562C456.419 376.812 459.079 378.982 460.999 382.062C465.539 376.792 471.209 374.962 477.999 376.562C485.449 381.952 486.949 388.782 482.499 397.062C480.079 400.632 477.909 404.302 475.999 408.062Z" fill="#EE5690"/>
<path fill-rule="evenodd" clip-rule="evenodd" d="M445 379.062C448.73 379.342 449.89 381.342 448.5 385.062C446.12 387.272 443.95 389.602 442 392.062C440.94 390.562 440.28 388.892 440 387.062C440.87 383.872 442.53 381.202 445 379.062Z" fill="#F59ABE"/>
<path fill-rule="evenodd" clip-rule="evenodd" d="M64.9996 383.062C81.7096 383.942 88.5496 392.612 85.4996 409.062C92.8796 403.942 100.38 403.772 108 408.562C115.63 416.602 115.96 424.932 109 433.562C104.46 436.082 99.7896 438.412 94.9996 440.562C105.12 449.702 105.45 459.032 95.9996 468.562C90.5596 470.932 84.8896 471.602 78.9996 470.562C74.8496 467.582 71.1896 464.082 67.9996 460.062C64.8096 465.422 60.4796 469.592 54.9996 472.562C41.6896 475.082 34.6896 469.582 33.9996 456.062C34.2496 449.972 36.5896 444.802 40.9996 440.562C33.4396 438.532 27.2796 434.362 22.4996 428.062C19.5396 409.692 27.3696 401.862 45.9996 404.562C47.3696 404.962 48.7096 405.462 49.9996 406.062C49.6996 395.002 54.6996 387.332 64.9996 383.062Z" fill="#FAFCFF"/>
<path fill-rule="evenodd" clip-rule="evenodd" d="M438 385.062C437.54 390.082 438.54 394.752 441 399.062C436.3 399.002 431.63 399.332 427 400.062C422.62 396.692 418.96 392.692 416 388.062C422.99 385.542 430.32 384.542 438 385.062Z" fill="#CDB4DF"/>
<path fill-rule="evenodd" clip-rule="evenodd" d="M416 388.062C418.96 392.692 422.62 396.692 427 400.062C416.85 400.672 407.52 403.672 399 409.062C396.33 409.062 393.67 409.062 391 409.062C395.3 397.442 403.64 390.442 416 388.062Z" fill="#F6BED7"/>
<path fill-rule="evenodd" clip-rule="evenodd" d="M67.0004 394.062C72.4204 393.522 75.9204 395.852 77.5004 401.062C78.6804 406.622 77.5104 411.622 74.0004 416.062C73.1704 412.102 72.6704 408.102 72.5004 404.062C70.6904 402.162 68.5304 401.662 66.0004 402.562C64.5104 406.552 63.5104 410.712 63.0004 415.062C61.0204 410.262 60.5204 405.262 61.5004 400.062C63.5404 398.192 65.3704 396.192 67.0004 394.062Z" fill="#3B97FF"/>
<path fill-rule="evenodd" clip-rule="evenodd" d="M441 399.062C447.28 407.512 454.11 415.512 461.5 423.062C464.87 419.862 468.04 416.522 471 413.062C472.11 414.512 472.28 416.172 471.5 418.062C468.43 427.622 462.6 434.962 454 440.062C451.49 441.482 449.16 443.152 447 445.062C450.38 438.092 451.54 430.762 450.5 423.062C446.48 413.632 439.31 409.132 429 409.562C422.35 412.042 417.02 416.212 413 422.062C409.52 416.342 404.86 412.012 399 409.062C407.52 403.672 416.85 400.672 427 400.062C431.63 399.332 436.3 399.002 441 399.062Z" fill="#3A95FC"/>
<path fill-rule="evenodd" clip-rule="evenodd" d="M391 409.062C393.67 409.062 396.33 409.062 399 409.062C404.86 412.012 409.52 416.342 413 422.062C417.02 416.212 422.35 412.042 429 409.562C439.31 409.132 446.48 413.632 450.5 423.062C451.54 430.762 450.38 438.092 447 445.062C441.49 453.592 435.15 461.592 428 469.062C424.17 472.062 420.84 475.562 418 479.562C415.72 481.752 413.05 482.422 410 481.562C401.12 471.692 392.62 461.522 384.5 451.062C378.4 442.682 376.07 433.342 377.5 423.062C379.54 415.952 384.04 411.282 391 409.062Z" fill="#ED548F"/>
<path fill-rule="evenodd" clip-rule="evenodd" d="M40.9999 414.062C47.7699 413.782 52.7699 416.612 55.9999 422.562C52.5299 421.932 49.0299 421.102 45.4999 420.062C40.0099 420.372 38.8499 422.712 41.9999 427.062C45.3999 429.132 49.0699 430.462 52.9999 431.062C52.7899 431.652 52.4599 432.152 51.9999 432.562C46.3199 433.432 41.1499 432.262 36.4999 429.062C32.2899 422.262 33.7899 417.262 40.9999 414.062Z" fill="#3B97FF"/>
<path fill-rule="evenodd" clip-rule="evenodd" d="M89 415.062C92.35 414.892 95.68 415.062 99 415.562C100.43 416.032 101.6 416.862 102.5 418.062C103.17 421.062 103.17 424.062 102.5 427.062C96.83 433.242 90.33 434.582 83 431.062C87.66 429.772 92.16 428.112 96.5 426.062C97.24 424.122 97.08 422.292 96 420.562C93 419.892 90 419.892 87 420.562C84.91 421.412 82.91 422.082 81 422.562C83.56 419.832 86.23 417.332 89 415.062Z" fill="#3C97FF"/>
<path fill-rule="evenodd" clip-rule="evenodd" d="M389 416.062C394.18 415.072 396.01 417.072 394.5 422.062C392.79 424.102 390.79 425.772 388.5 427.062C386.59 429.772 385.76 432.772 386 436.062C385 436.062 384 436.062 383 436.062C380.18 427.772 382.18 421.102 389 416.062Z" fill="#F59ABE"/>
<path fill-rule="evenodd" clip-rule="evenodd" d="M426.001 416.062C434.061 416.122 435.061 418.962 429.001 424.562C426.321 425.302 423.661 425.632 421.001 425.562C420.611 421.512 422.281 418.352 426.001 416.062Z" fill="#F499BD"/>
<path fill-rule="evenodd" clip-rule="evenodd" d="M476 408.062C478.47 421.612 476.47 434.612 470 447.062C465.12 443.622 459.79 441.292 454 440.062C462.6 434.962 468.43 427.622 471.5 418.062C472.28 416.172 472.11 414.512 471 413.062C472.33 411.062 474 409.392 476 408.062Z" fill="#DBB7DC"/>
<path fill-rule="evenodd" clip-rule="evenodd" d="M80.9999 441.062C84.8699 442.752 88.3699 445.092 91.4999 448.062C92.7199 457.512 88.5499 461.682 78.9999 460.562C74.4999 456.742 72.6699 451.912 73.4999 446.062C75.7899 449.142 77.9599 452.312 79.9999 455.562C82.1999 456.382 84.0299 455.882 85.4999 454.062C86.1699 451.732 86.1699 449.392 85.4999 447.062C83.3699 445.452 81.8699 443.452 80.9999 441.062Z" fill="#3595FF"/>
<path fill-rule="evenodd" clip-rule="evenodd" d="M53.0007 440.062C53.8807 439.932 54.5407 440.262 55.0007 441.062C52.7407 444.132 50.7407 447.302 49.0007 450.562C49.9107 454.192 52.2407 455.522 56.0007 454.562C58.8607 451.672 61.3607 448.502 63.5007 445.062C63.7807 450.432 62.2807 455.272 59.0007 459.562C48.3607 462.562 43.5207 458.732 44.5007 448.062C47.2307 445.162 50.0607 442.492 53.0007 440.062Z" fill="#3795FF"/>
<path fill-rule="evenodd" clip-rule="evenodd" d="M454 440.062C459.79 441.292 465.12 443.622 470 447.062C467.55 452.682 463.55 456.842 458 459.562C448.38 463.962 438.38 467.132 428 469.062C435.15 461.592 441.49 453.592 447 445.062C449.16 443.152 451.49 441.482 454 440.062Z" fill="#A6ADE7"/>
</svg>
