<svg width="500" height="500" viewBox="0 0 500 500" fill="none" xmlns="http://www.w3.org/2000/svg">
<path fill-rule="evenodd" clip-rule="evenodd" d="M315 328.062C311.1 327.132 307.1 326.802 303 327.062C279.67 327.352 256.67 328.352 234 330.062C229.65 328.212 224.98 327.552 220 328.062C185.31 327.602 150.64 328.272 116 330.062C73.8002 330.002 64.6402 312.662 88.5002 278.062C99.5002 265.732 110.5 253.392 121.5 241.062C127.67 208.032 134.01 175.032 140.5 142.062C141.6 138.342 143.77 135.502 147 133.562C205.29 128.682 263.62 128.012 322 131.562C333.04 131.772 343.71 133.772 354 137.562C355.17 138.732 356.33 139.892 357.5 141.062C364.62 173.792 370.29 206.792 374.5 240.062C388.83 257.732 403.17 275.392 417.5 293.062C419.83 297.062 422.17 301.062 424.5 305.062C425.64 310.402 424.98 315.402 422.5 320.062C418.34 322.572 413.84 324.402 409 325.562C382.33 325.892 355.67 326.232 329 326.562C324.15 326.732 319.48 327.232 315 328.062Z" fill="#2D2D2D"/>
<path fill-rule="evenodd" clip-rule="evenodd" d="M339 208.062C334.47 205.722 329.8 203.552 325 201.562C315.76 199.482 306.43 198.812 297 199.562C284.88 209.752 282.72 221.922 290.5 236.062C299.59 244.512 309.42 245.342 320 238.562C326.19 230.282 328.86 221.122 328 211.062C332.49 214.002 337.16 214.672 342 213.062C344.43 216.752 345.43 220.922 345 225.562C343.71 241.152 336.71 253.482 324 262.562C321.19 263.892 318.52 265.392 316 267.062C316.16 264.372 316 261.712 315.5 259.062C314.44 257.662 313.11 256.662 311.5 256.062C307.92 259.862 303.92 263.192 299.5 266.062C299.01 267.352 298.84 268.692 299 270.062C298.24 270.832 297.24 271.332 296 271.562C278.35 274.282 261.02 272.942 244 267.562C229.36 262.422 218.69 252.922 212 239.062C211.67 237.062 211.33 235.062 211 233.062C213.04 234.342 215.04 234.172 217 232.562C219.05 229.972 221.22 227.472 223.5 225.062C222.9 237.372 228.07 246.202 239 251.562C248.4 252.942 255.9 249.782 261.5 242.062C262.98 238.602 264.65 235.272 266.5 232.062C267.17 229.732 267.17 227.392 266.5 225.062C263.26 219.852 260.09 214.682 257 209.562C237.2 204.122 221.53 209.962 210 227.062C209.9 224.322 210.23 221.662 211 219.062C213.59 208.292 219.26 199.462 228 192.562C236.19 184.962 245.86 180.302 257 178.562C267 178.152 277 177.652 287 177.062C300.92 176.692 313.25 180.862 324 189.562C329.82 195.132 335.15 201.132 340 207.562C339.77 207.962 339.44 208.132 339 208.062Z" fill="#FBFBFB"/>
<path fill-rule="evenodd" clip-rule="evenodd" d="M338.999 208.062C339.709 208.962 340.709 209.302 341.999 209.062C341.999 210.392 341.999 211.732 341.999 213.062C337.159 214.672 332.489 214.002 327.999 211.062C328.859 221.122 326.189 230.282 319.999 238.562C309.419 245.342 299.589 244.512 290.499 236.062C282.719 221.922 284.879 209.752 296.999 199.562C306.429 198.812 315.759 199.482 324.999 201.562C329.799 203.552 334.469 205.722 338.999 208.062Z" fill="#040404"/>
<path fill-rule="evenodd" clip-rule="evenodd" d="M298.001 205.062C302.661 204.382 305.321 206.382 306.001 211.062C305.071 223.122 300.231 225.122 291.501 217.062C290.831 215.062 290.831 213.062 291.501 211.062C293.841 209.162 296.001 207.162 298.001 205.062Z" fill="#F2F2F2"/>
<path fill-rule="evenodd" clip-rule="evenodd" d="M211 233.062C210.04 231.302 209.71 229.302 210 227.062C221.53 209.962 237.2 204.122 257 209.562C260.09 214.682 263.26 219.852 266.5 225.062C267.17 227.392 267.17 229.732 266.5 232.062C264.65 235.272 262.98 238.602 261.5 242.062C255.9 249.782 248.4 252.942 239 251.562C228.07 246.202 222.9 237.372 223.5 225.062C221.22 227.472 219.05 229.972 217 232.562C215.04 234.172 213.04 234.342 211 233.062Z" fill="#060606"/>
<path fill-rule="evenodd" clip-rule="evenodd" d="M249 213.062C253.95 213.342 256.61 216.012 257 221.062C256.65 226.142 254.15 229.472 249.5 231.062C242.85 228.442 241.19 223.772 244.5 217.062C245.9 215.492 247.4 214.162 249 213.062Z" fill="#F8F8F8"/>
<path fill-rule="evenodd" clip-rule="evenodd" d="M141 217.062C164.36 216.992 187.69 217.662 211 219.062C210.23 221.662 209.9 224.322 210 227.062C209.71 229.302 210.04 231.302 211 233.062C211.33 235.062 211.67 237.062 212 239.062C186.99 239.212 161.99 238.882 137 238.062C138.08 231.002 139.41 224.002 141 217.062Z" fill="#F1433E"/>
<path fill-rule="evenodd" clip-rule="evenodd" d="M172 228.062C170.56 229.072 169.23 228.742 168 227.062C166.59 229.512 166.92 231.682 169 233.562C167.47 235.192 165.81 235.362 164 234.062C165.04 231.792 165.21 229.462 164.5 227.062C163.39 228.272 162.22 228.272 161 227.062C160.67 227.732 160.33 228.392 160 229.062C161.25 230.892 161.92 232.892 162 235.062C157.18 234.522 152.52 234.522 148 235.062C147.85 231.442 146.68 231.102 144.5 234.062C144 233.732 143.5 233.392 143 233.062C144.33 230.062 144.33 227.062 143 224.062C146.65 222.342 149.65 223.002 152 226.062C151.14 227.762 149.8 228.922 148 229.562C153.95 234.572 155.61 233.072 153 225.062C159.08 224.722 165.08 224.562 171 224.562C171.84 225.572 172.17 226.742 172 228.062Z" fill="#FFDFDD"/>
<path fill-rule="evenodd" clip-rule="evenodd" d="M183 224.062C185.03 223.902 187.03 224.062 189 224.562C191.67 226.562 191.67 228.562 189 230.562C190.19 231.912 191.52 233.082 193 234.062C192.33 234.392 191.67 234.732 191 235.062C189.46 234.312 188.13 233.312 187 232.062C185.79 232.832 185.79 233.672 187 234.562C185.56 235.342 184.22 235.172 183 234.062C184.24 230.732 184.24 227.402 183 224.062Z" fill="#FFF2F1"/>
<path fill-rule="evenodd" clip-rule="evenodd" d="M172 228.062C172.89 227.302 173.56 226.302 174 225.062C175.22 223.952 176.56 223.782 178 224.562C179.81 227.132 181.14 229.962 182 233.062C180.81 233.992 179.48 234.322 178 234.062C178 233.062 178 232.062 178 231.062C175.67 232.392 173.33 233.732 171 235.062C171.49 232.752 171.83 230.422 172 228.062Z" fill="#FFE7E5"/>
<path fill-rule="evenodd" clip-rule="evenodd" d="M194 224.062C197.33 224.062 200.67 224.062 204 224.062C204.29 225.852 203.95 227.512 203 229.062C201.22 226.282 200.22 226.622 200 230.062C199.89 231.932 200.56 233.432 202 234.562C200.15 236.232 198.15 236.402 196 235.062C197.24 232.392 197.24 229.732 196 227.062C194.43 229.402 193.09 229.402 192 227.062C192.69 226.042 193.36 225.042 194 224.062Z" fill="#FFEEED"/>
<path fill-rule="evenodd" clip-rule="evenodd" d="M185.999 226.062C187.959 226.512 188.299 227.512 186.999 229.062C186.109 228.242 185.779 227.242 185.999 226.062Z" fill="#F22A25"/>
<path fill-rule="evenodd" clip-rule="evenodd" d="M137 238.062C161.99 238.882 186.99 239.212 212 239.062C218.69 252.922 229.36 262.422 244 267.562C261.02 272.942 278.35 274.282 296 271.562C297.24 271.332 298.24 270.832 299 270.062C299.77 270.732 300.43 271.572 301 272.562C303.77 273.092 306.44 273.922 309 275.062C313.78 280.952 319.78 285.122 327 287.562C332.89 290.262 338.89 290.592 345 288.562C347.78 285.242 349.61 281.412 350.5 277.062C352.97 267.522 354.31 257.852 354.5 248.062C351.83 244.062 349.17 244.062 346.5 248.062C345.13 258.032 342.3 267.532 338 276.562C330.66 277.192 323.99 275.362 318 271.062C316.79 269.982 316.13 268.652 316 267.062C318.52 265.392 321.19 263.892 324 262.562C336.71 253.482 343.71 241.152 345 225.562C345.43 220.922 344.43 216.752 342 213.062C342 211.732 342 210.392 342 209.062C340.71 209.302 339.71 208.962 339 208.062C339.44 208.132 339.77 207.962 340 207.562C335.15 201.132 329.82 195.132 324 189.562C313.25 180.862 300.92 176.692 287 177.062C277 177.652 267 178.152 257 178.562C245.86 180.302 236.19 184.962 228 192.562C219.26 199.462 213.59 208.292 211 219.062C187.69 217.662 164.36 216.992 141 217.062C144.7 193.862 149.37 170.862 155 148.062C187.07 144.892 219.24 143.562 251.5 144.062C274.68 144.072 297.85 144.572 321 145.562C329.43 145.942 337.6 147.442 345.5 150.062C346.29 153.032 346.96 156.032 347.5 159.062C352.17 187.742 356.84 216.412 361.5 245.062C377.61 266.942 394.44 288.272 412 309.062C411.41 310.362 410.41 311.192 409 311.562C308.82 313.542 208.48 314.542 108 314.562C102.92 313.752 98.09 312.252 93.5 310.062C92.46 305.122 93.13 300.452 95.5 296.062C108.59 279.542 121.93 263.212 135.5 247.062C135.86 244.022 136.36 241.022 137 238.062Z" fill="#464646"/>
<path fill-rule="evenodd" clip-rule="evenodd" d="M291 247.062C293.63 246.852 295.29 248.022 296 250.562C294.47 254.752 292.14 258.422 289 261.562C283.64 261.482 278.48 260.312 273.5 258.062C272.78 256.452 272.95 254.952 274 253.562C278.4 253.482 282.73 253.812 287 254.562C288.47 252.112 289.81 249.612 291 247.062Z" fill="#0F0F0F"/>
<path fill-rule="evenodd" clip-rule="evenodd" d="M299 270.062C298.84 268.692 299.01 267.352 299.5 266.062C303.92 263.192 307.92 259.862 311.5 256.062C313.11 256.662 314.44 257.662 315.5 259.062C316 261.712 316.16 264.372 316 267.062C316.13 268.652 316.79 269.982 318 271.062C323.99 275.362 330.66 277.192 338 276.562C342.3 267.532 345.13 258.032 346.5 248.062C349.17 244.062 351.83 244.062 354.5 248.062C354.31 257.852 352.97 267.522 350.5 277.062C349.61 281.412 347.78 285.242 345 288.562C338.89 290.592 332.89 290.262 327 287.562C319.78 285.122 313.78 280.952 309 275.062C306.44 273.922 303.77 273.092 301 272.562C300.43 271.572 299.77 270.732 299 270.062Z" fill="#020202"/>
<path fill-rule="evenodd" clip-rule="evenodd" d="M196 245.062C198.36 244.902 200.69 245.062 203 245.562C207.35 250.022 206.51 253.522 200.5 256.062C197.76 261.192 194.76 266.192 191.5 271.062C189.04 276.612 186.87 282.282 185 288.062C190.39 290.852 192.56 295.182 191.5 301.062C190.54 302.452 189.21 303.122 187.5 303.062C180.9 299.282 173.73 297.452 166 297.562C164.1 295.752 163.6 293.592 164.5 291.062C167.69 288.302 171.35 286.632 175.5 286.062C179.71 270.972 186.54 257.312 196 245.062Z" fill="#020202"/>
<path fill-rule="evenodd" clip-rule="evenodd" d="M303 327.062C307.1 326.802 311.1 327.132 315 328.062C315 336.062 315 344.062 315 352.062C319.64 352.082 323.81 353.422 327.5 356.062C328.17 357.392 328.17 358.732 327.5 360.062C322.34 365.902 315.84 367.742 308 365.562C306.17 365.062 305 363.892 304.5 362.062C303.3 352.792 302.47 343.452 302 334.062C302.25 331.702 302.59 329.372 303 327.062Z" fill="#040404"/>
<path fill-rule="evenodd" clip-rule="evenodd" d="M220 328.062C224.98 327.552 229.65 328.212 234 330.062C234.75 338.712 235.09 347.372 235 356.062C239.35 355.892 243.68 356.062 248 356.562C250.99 360.122 251.32 363.792 249 367.562C245.34 368.722 241.67 369.892 238 371.062C235.16 369.792 232.32 369.792 229.5 371.062C227.22 369.782 225.22 368.122 223.5 366.062C221.69 353.472 220.52 340.812 220 328.062Z" fill="#080808"/>
</svg>
