<svg width="500" height="500" viewBox="0 0 500 500" fill="none" xmlns="http://www.w3.org/2000/svg">
<path fill-rule="evenodd" clip-rule="evenodd" d="M270 304.062C269.67 304.062 269.33 304.062 269 304.062C259.51 303.072 249.85 302.732 240 303.062C233.73 302.142 227.39 301.812 221 302.062C206.49 301.292 192.15 299.292 178 296.062C175.78 295.192 173.45 294.862 171 295.062C159.35 291.072 148.01 286.232 137 280.562C135.8 279.662 134.97 278.492 134.5 277.062C133.83 268.732 133.83 260.392 134.5 252.062C137.57 235.372 140.9 218.702 144.5 202.062C152.57 177.852 160.24 153.522 167.5 129.062C168.38 126.462 169.88 124.292 172 122.562C175.95 120.282 179.61 117.612 183 114.562C194.55 109.492 206.55 105.822 219 103.562C248.87 100.842 278.2 103.512 307 111.562C315.04 112.992 321.54 116.822 326.5 123.062C347.44 171.882 360.61 222.722 366 275.562C366.68 280.882 364.68 284.882 360 287.562C331.18 299.422 301.18 304.922 270 304.062Z" fill="#DA825E"/>
<path fill-rule="evenodd" clip-rule="evenodd" d="M280 139.062C270.66 125.402 257.66 119.902 241 122.562C230.18 124.952 222.51 131.122 218 141.062C206.5 141.352 195.83 138.522 186 132.562C185.14 131.872 184.48 131.042 184 130.062C187.87 125.962 192.53 123.122 198 121.562C207.31 117.812 216.98 115.812 227 115.562C257.3 112.862 286.64 116.862 315 127.562C315.56 129.132 314.89 130.462 313 131.562C302.46 136.252 291.46 138.752 280 139.062Z" fill="#EFB87A"/>
<path fill-rule="evenodd" clip-rule="evenodd" d="M280 139.062C277.21 140.042 274.21 140.372 271 140.062C264.82 133.162 256.99 129.822 247.5 130.062C238.24 130.512 231.08 134.512 226 142.062C223.11 142.372 220.45 142.032 218 141.062C222.51 131.122 230.18 124.952 241 122.562C257.66 119.902 270.66 125.402 280 139.062Z" fill="#FEDD5D"/>
<path fill-rule="evenodd" clip-rule="evenodd" d="M271 140.062C256.06 141.422 241.06 142.092 226 142.062C231.08 134.512 238.24 130.512 247.5 130.062C256.99 129.822 264.82 133.162 271 140.062Z" fill="#F5ED8D"/>
<path fill-rule="evenodd" clip-rule="evenodd" d="M176 141.062C183.35 145.062 191.01 148.562 199 151.562C211.45 153.212 223.95 154.382 236.5 155.062C255.68 153.702 274.84 152.202 294 150.562C302.9 148.432 311.57 145.592 320 142.062C338.76 185.172 349.59 230.172 352.5 277.062C343.12 281.532 333.28 284.702 323 286.562C308.86 289.942 294.53 291.772 280 292.062C255.32 291.012 230.66 289.842 206 288.562C194.93 286.952 183.93 284.952 173 282.562C163.83 279.392 155 275.562 146.5 271.062C147.47 251.872 150.14 232.872 154.5 214.062C162.17 189.872 169.34 165.542 176 141.062Z" fill="#FECF92"/>
<path fill-rule="evenodd" clip-rule="evenodd" d="M262 260.062C241.92 263.002 221.92 261.842 202 256.562C179.99 248.522 173.49 233.692 182.5 212.062C185.67 207.562 189.5 203.732 194 200.562C207.02 190.712 221.69 185.382 238 184.562C265.79 180.612 291.79 185.612 316 199.562C331.5 210.732 334 224.232 323.5 240.062C305.58 254.202 285.08 260.872 262 260.062Z" fill="#FCFBFB"/>
<path fill-rule="evenodd" clip-rule="evenodd" d="M277 196.062C287.27 196.962 297.27 199.132 307 202.562C311.5 205.642 316.17 208.482 321 211.062C322.13 212.632 322.3 214.302 321.5 216.062C320.94 216.582 320.27 216.922 319.5 217.062C315.5 215.822 311.66 214.162 308 212.062C307.48 218.782 305.65 225.112 302.5 231.062C299.15 239.072 293.15 242.742 284.5 242.062C269.56 242.112 262.39 234.612 263 219.562C263.22 208.932 267.89 201.102 277 196.062Z" fill="#040404"/>
<path fill-rule="evenodd" clip-rule="evenodd" d="M210 198.062C217.99 197.432 225.65 198.592 233 201.562C235.91 206.632 238.74 211.792 241.5 217.062C241.35 233.552 233.02 242.882 216.5 245.062C206.23 242.792 199.9 236.462 197.5 226.062C197.09 222.352 197.09 218.682 197.5 215.062C194.68 218.722 191.18 221.392 187 223.062C186.06 222.952 185.22 222.622 184.5 222.062C183.83 219.732 183.83 217.392 184.5 215.062C186.78 212.652 188.95 210.152 191 207.562C197.15 203.822 203.48 200.652 210 198.062Z" fill="#050505"/>
<path fill-rule="evenodd" clip-rule="evenodd" d="M277 202.062C281.46 202.022 283.8 204.192 284 208.562C283.36 221.052 278.52 223.222 269.5 215.062C268.75 212.262 269.08 209.592 270.5 207.062C272.83 205.492 274.99 203.832 277 202.062Z" fill="#F4F4F4"/>
<path fill-rule="evenodd" clip-rule="evenodd" d="M223 206.062C229.57 204.632 232.91 207.302 233 214.062C232.26 219.242 229.42 222.572 224.5 224.062C218.41 222.272 216.41 218.272 218.5 212.062C219.83 209.902 221.33 207.902 223 206.062Z" fill="#F6F6F6"/>
<path fill-rule="evenodd" clip-rule="evenodd" d="M262 260.062C256.85 259.162 251.85 257.662 247 255.562C244.11 252.392 244.78 250.222 249 249.062C252.22 250.252 255.39 251.592 258.5 253.062C261.01 251.732 262.84 249.732 264 247.062C269.57 245.132 271.07 246.792 268.5 252.062C266.5 254.892 264.33 257.562 262 260.062Z" fill="#0D0D0D"/>
<path fill-rule="evenodd" clip-rule="evenodd" d="M171 295.062C173.45 294.862 175.78 295.192 178 296.062C176.08 297.382 175.91 298.712 177.5 300.062C178.4 305.232 176.4 306.902 171.5 305.062C170.66 302.422 171.16 300.092 173 298.062C172.31 297.042 171.64 296.042 171 295.062Z" fill="#C0BBAE"/>
<path fill-rule="evenodd" clip-rule="evenodd" d="M240 303.062C249.85 302.732 259.51 303.072 269 304.062C265 304.062 261 304.062 257 304.062C257.45 323.392 257.95 342.732 258.5 362.062C260.29 365.882 263.12 368.722 267 370.562C273.28 373.032 279.28 376.032 285 379.562C266.75 385.062 248.08 387.062 229 385.562C223.69 384.652 218.69 382.992 214 380.562C222.92 375.522 231.75 370.352 240.5 365.062C240.34 344.402 240.18 323.732 240 303.062Z" fill="#8D4D33"/>
<path fill-rule="evenodd" clip-rule="evenodd" d="M221 302.062C227.39 301.812 233.73 302.142 240 303.062C240.18 323.732 240.34 344.402 240.5 365.062C231.75 370.352 222.92 375.522 214 380.562C218.69 382.992 223.69 384.652 229 385.562C248.08 387.062 266.75 385.062 285 379.562C279.28 376.032 273.28 373.032 267 370.562C263.12 368.722 260.29 365.882 258.5 362.062C257.95 342.732 257.45 323.392 257 304.062C261 304.062 265 304.062 269 304.062C269.33 304.062 269.67 304.062 270 304.062C269.35 306.002 269.02 308.002 269 310.062C265.71 308.272 264.04 309.272 264 313.062C264.17 314.062 264.33 315.062 264.5 316.062C266.93 317.982 268.76 320.322 270 323.062C269.83 334.072 270 345.072 270.5 356.062C270.72 357.502 271.22 358.832 272 360.062C281.87 363.432 291.21 367.932 300 373.562C301.54 374.932 302.87 376.432 304 378.062C301.33 379.732 301.33 381.392 304 383.062C299.68 386.892 294.68 389.732 289 391.562C268.76 397.702 248.09 399.702 227 397.562C216.54 395.852 206.88 392.192 198 386.562C194.11 382.972 194.11 379.312 198 375.562C207.64 369.162 217.81 363.662 228.5 359.062C228.19 345.752 228.03 332.412 228 319.062C229.52 316.692 230.86 314.192 232 311.562C231.47 309.542 230.13 308.712 228 309.062C227.67 307.062 227.33 305.062 227 303.062C224.76 303.352 222.76 303.022 221 302.062Z" fill="#5E2E1B"/>
<path fill-rule="evenodd" clip-rule="evenodd" d="M172 307.062C176.83 306.952 178.16 309.112 176 313.562C170.24 313.982 168.9 311.812 172 307.062Z" fill="#C2BDB0"/>
<path fill-rule="evenodd" clip-rule="evenodd" d="M228 309.062C230.13 308.712 231.47 309.542 232 311.562C230.86 314.192 229.52 316.692 228 319.062C223.56 325.202 219.9 331.872 217 339.062C217.98 340.662 218.15 342.322 217.5 344.062C214.05 344.742 210.71 345.742 207.5 347.062C205.34 347.072 203.84 346.072 203 344.062C209.65 334.772 215.82 325.102 221.5 315.062C223.54 312.852 225.7 310.852 228 309.062Z" fill="#010101"/>
<path fill-rule="evenodd" clip-rule="evenodd" d="M304 308.062C305.18 307.842 306.18 308.172 307 309.062C306.17 310.732 305.33 312.392 304.5 314.062C303.67 313.232 302.83 312.392 302 311.562C303.32 310.742 303.99 309.582 304 308.062Z" fill="#CACACA"/>
<path fill-rule="evenodd" clip-rule="evenodd" d="M269 310.062C273.97 317.972 280.3 324.632 288 330.062C289.52 328.082 290.52 325.742 291 323.062C292.24 322.312 293.57 321.982 295 322.062C292.83 326.442 291.16 331.102 290 336.062C287.96 337.342 285.96 337.172 284 335.562C279.16 331.562 274.5 327.392 270 323.062C268.76 320.322 266.93 317.982 264.5 316.062C264.33 315.062 264.17 314.062 264 313.062C264.04 309.272 265.71 308.272 269 310.062Z" fill="#030202"/>
<path fill-rule="evenodd" clip-rule="evenodd" d="M308 312.062C309.18 311.842 310.18 312.172 311 313.062C310.33 316.642 308.66 317.472 306 315.562C306.81 314.452 307.47 313.282 308 312.062Z" fill="#CACACA"/>
<path fill-rule="evenodd" clip-rule="evenodd" d="M171 315.062C177.58 315.872 178.58 318.702 174 323.562C176.88 325.232 177.71 327.732 176.5 331.062C172.69 334.152 170.19 333.322 169 328.562C169.14 326.412 170.14 324.742 172 323.562C168.35 321.122 168.02 318.282 171 315.062Z" fill="#C1BCAF"/>
<path fill-rule="evenodd" clip-rule="evenodd" d="M304 383.062C301.33 381.392 301.33 379.732 304 378.062C307.39 378.502 310.39 377.662 313 375.562C317.12 373.142 318.96 369.642 318.5 365.062C312.91 362.732 307.07 360.902 301 359.562C292.4 354.202 288.74 346.362 290 336.062C291.16 331.102 292.83 326.442 295 322.062C295.96 321.612 296.79 320.942 297.5 320.062C298.71 321.612 300.21 322.782 302 323.562C299.15 325.042 296.82 327.042 295 329.562C295.26 330.822 295.93 331.822 297 332.562C293.26 343.412 296.6 351.082 307 355.562C313.51 355.392 319.01 357.552 323.5 362.062C325.53 371.492 322.03 378.322 313 382.562C310.02 383.062 307.02 383.222 304 383.062Z" fill="#494949"/>
</svg>
