<svg width="500" height="500" viewBox="0 0 500 500" fill="none" xmlns="http://www.w3.org/2000/svg">
<path fill-rule="evenodd" clip-rule="evenodd" d="M268 60.0617C273.13 60.0387 276.63 62.3717 278.5 67.0617C280.37 75.4297 282.37 83.7627 284.5 92.0617C285.4 97.5107 285.06 102.844 283.5 108.062C279.97 111.205 275.97 111.872 271.5 110.062C260.35 111.092 249.18 111.592 238 111.562C234.92 108.95 234.26 105.783 236 102.062C237.67 101.062 239 99.7287 240 98.0617C238.06 95.3537 237.56 92.3537 238.5 89.0617C245.6 79.9617 253.43 71.4617 262 63.5617C263.93 62.1027 265.93 60.9367 268 60.0617Z" fill="#FFEB3E"/>
<path fill-rule="evenodd" clip-rule="evenodd" d="M151 77.0615C154.64 77.6415 158.31 78.1415 162 78.5615C163.82 81.6975 165.82 84.6975 168 87.5615C178.69 92.7515 187.36 100.252 194 110.062C193.34 114.889 190.68 118.056 186 119.562C181.82 121.621 177.49 123.288 173 124.562C166.98 129.072 160.31 132.238 153 134.062C145.57 131.856 142.91 126.856 145 119.062C145.59 111.22 146.25 103.387 147 95.5615C146.91 91.5355 146.58 87.5355 146 83.5615C146.15 80.0585 147.81 77.8915 151 77.0615Z" fill="#FFEB3E"/>
<path fill-rule="evenodd" clip-rule="evenodd" d="M360 90.0611C369.25 88.9871 373.91 92.9871 374 102.061C372.98 117.52 369.81 132.52 364.5 147.061C361.96 151.63 358.13 153.13 353 151.561C347.87 145.426 342.37 139.592 336.5 134.061C333.36 126.917 328.7 120.917 322.5 116.061C320.1 112.501 317.93 108.834 316 105.061C316.35 102.864 317.35 101.031 319 99.5611C323.69 99.2701 328.36 99.2701 333 99.5611C341.84 95.4491 350.84 92.2821 360 90.0611Z" fill="#FFEB3E"/>
<path fill-rule="evenodd" clip-rule="evenodd" d="M241 119.061C258.63 118.221 275.96 120.054 293 124.561C303.77 130.372 313.61 137.538 322.5 146.061C327.18 154.099 333.18 161.099 340.5 167.061C343.25 171.569 346.25 175.902 349.5 180.061C356.74 194.879 364.74 209.212 373.5 223.061C384.11 268.818 372.44 307.818 338.5 340.061C333.03 348.162 327.2 355.995 321 363.561C309.42 370.185 297.08 374.852 284 377.561C262.63 388.682 240.29 391.015 217 384.561C198.79 378.954 181.79 370.954 166 360.561C149.12 348.013 136.29 332.18 127.5 313.061C123.52 299.816 119.86 286.482 116.5 273.061C112.53 247.84 114.86 223.173 123.5 199.061C133 184.728 142 170.062 150.5 155.061C157.89 148.446 166.06 142.946 175 138.561C197.18 132.237 219.18 125.737 241 119.061Z" fill="#FEC10B"/>
<path fill-rule="evenodd" clip-rule="evenodd" d="M73.0007 128.061C77.3507 127.895 81.6807 128.062 86.0007 128.561C94.6207 131.101 103.281 133.434 112.001 135.561C117.231 138.585 121.731 142.418 125.501 147.061C126.291 150.195 125.961 153.195 124.501 156.061C118.331 165.561 112.171 175.061 106.001 184.561C104.501 185.061 103.001 185.561 101.501 186.061C93.6607 182.562 87.3307 177.228 82.5007 170.061C77.4207 160.896 72.0907 151.896 66.5007 143.061C64.1707 135.885 66.3407 130.885 73.0007 128.061Z" fill="#FFEB3E"/>
<path fill-rule="evenodd" clip-rule="evenodd" d="M293.001 154.061C299.961 153.792 306.621 154.958 313.001 157.561C315.391 159.867 316.391 162.7 316.001 166.061C316.051 169.253 315.381 172.253 314.001 175.061C311.381 184.742 307.881 194.075 303.501 203.061C296.181 208.419 288.341 209.253 280.001 205.561C270.711 202.602 262.711 197.602 256.001 190.561C246.311 190.813 236.641 191.647 227.001 193.061C219.821 191.509 214.981 194.175 212.501 201.061C202.781 214.671 189.621 220.837 173.001 219.561C168.601 217.944 164.771 215.444 161.501 212.061C158.581 207.895 155.921 203.562 153.501 199.061C148.701 185.5 153.201 177 167.001 173.561C180.241 169.923 193.411 166.09 206.501 162.061C211.501 162.389 215.171 164.723 217.501 169.061C218.791 173.291 219.291 177.625 219.001 182.061C229.031 180.946 239.031 179.613 249.001 178.061C248.841 175.374 249.001 172.707 249.501 170.061C254.761 164.011 261.261 159.845 269.001 157.561C276.851 155.291 284.851 154.124 293.001 154.061Z" fill="#030200"/>
<path fill-rule="evenodd" clip-rule="evenodd" d="M293 154.062C284.85 154.125 276.85 155.292 269 157.562C261.26 159.846 254.76 164.012 249.5 170.062C249 172.708 248.84 175.375 249 178.062C239.03 179.614 229.03 180.947 219 182.062C219.29 177.626 218.79 173.292 217.5 169.062C215.17 164.724 211.5 162.39 206.5 162.062C193.41 166.091 180.24 169.924 167 173.562C153.2 177.001 148.7 185.501 153.5 199.062C155.92 203.563 158.58 207.896 161.5 212.062C164.77 215.445 168.6 217.945 173 219.562C189.62 220.838 202.78 214.672 212.5 201.062C214.98 194.176 219.82 191.51 227 193.062C236.64 191.648 246.31 190.814 256 190.562C262.71 197.603 270.71 202.603 280 205.562C288.34 209.254 296.18 208.42 303.5 203.062C307.88 194.076 311.38 184.743 314 175.062C315 174.976 315.83 175.31 316.5 176.062C322.15 187.024 329.48 196.691 338.5 205.062C351.16 226.011 354.16 248.345 347.5 272.062C341.38 286.305 334.71 300.305 327.5 314.062C326.12 322.872 322.46 330.539 316.5 337.062C308.84 346.063 300.01 353.563 290 359.562C282.77 360.786 275.77 362.786 269 365.562C244.63 371.365 220.97 369.031 198 358.562C190.67 352.398 182.34 348.065 173 345.562C169.24 343.639 165.91 341.139 163 338.062C155.33 326.885 147.83 315.552 140.5 304.062C139.73 295.213 138.06 286.547 135.5 278.062C131.31 251.491 133.64 225.491 142.5 200.062C145.78 192.223 149.45 184.557 153.5 177.062C162.75 167.015 173.91 159.848 187 155.562C198.47 153.496 209.8 150.829 221 147.562C236.67 146.895 252.33 146.895 268 147.562C273.8 149.548 279.8 150.548 286 150.562C288.67 151.232 291.01 152.399 293 154.062Z" fill="#FEEA3B"/>
<path fill-rule="evenodd" clip-rule="evenodd" d="M385.001 176.062C399.581 177.585 414.241 178.751 429.001 179.562C432.941 180.555 436.941 181.222 441.001 181.562C446.041 184.575 447.201 188.742 444.501 194.062C434.151 204.243 423.991 214.576 414.001 225.062C410.801 238.73 404.631 240.397 395.501 230.062C394.831 228.729 394.171 227.395 393.501 226.062C392.741 218.943 391.401 211.943 389.501 205.062C386.621 198.857 382.951 193.19 378.501 188.062C377.831 186.395 377.831 184.729 378.501 183.062C380.871 180.859 383.041 178.525 385.001 176.062Z" fill="#FFEB3E"/>
<path fill-rule="evenodd" clip-rule="evenodd" d="M97.9998 217.062C104.56 216.622 107.89 219.622 108 226.062C106.21 240.732 103.04 255.065 98.4998 269.062C95.4498 272.692 91.6198 273.859 86.9998 272.562C81.9798 269.719 77.3098 266.386 72.9998 262.562C67.0098 260.775 61.1798 258.608 55.4998 256.062C53.0198 251.782 53.8598 248.282 57.9998 245.562C70.9098 235.292 84.2398 225.792 97.9998 217.062Z" fill="#FFEB3E"/>
<path fill-rule="evenodd" clip-rule="evenodd" d="M322 250.062C319.05 248.589 316.05 247.089 313 245.562C299.84 242.368 286.51 240.702 273 240.562C262.52 244.388 256.35 251.888 254.5 263.062C250.64 294.205 264.14 307.372 295 302.562C299.83 299.062 304 294.895 307.5 290.062C310.4 282.435 312.56 274.602 314 266.562C313.54 264.173 312.87 261.839 312 259.562C312.33 259.062 312.67 258.562 313 258.062C317.89 261.187 323.22 262.854 329 263.062C338.29 298.978 324.95 321.812 289 331.562C259.93 337.296 230.59 339.296 201 337.562C175.45 334.677 161.28 320.51 158.5 295.062C157.11 293.174 155.94 291.174 155 289.062C158.33 285.562 161.5 281.896 164.5 278.062C164.83 282.729 165.17 287.395 165.5 292.062C172.01 311.728 185.17 318.895 205 313.562C217.46 306.985 224.46 296.652 226 282.562C225.41 275.636 222.57 269.803 217.5 265.062C215.93 257.824 211.43 253.658 204 252.562C189.82 249.846 176.82 252.513 165 260.562C160.79 263.496 156.79 266.663 153 270.062C158.06 256.505 167.39 247.005 181 241.562C193.86 237.763 206.86 234.43 220 231.562C234.18 230.122 248.34 228.622 262.5 227.062C281.66 226.224 299.16 231.057 315 241.562C317.92 243.978 320.26 246.812 322 250.062Z" fill="#FCFCFB"/>
<path fill-rule="evenodd" clip-rule="evenodd" d="M322 250.062C325.7 252.142 329.53 254.142 333.5 256.062C334.52 260.034 333.02 262.367 329 263.062C323.22 262.854 317.89 261.187 313 258.062C312.67 258.562 312.33 259.062 312 259.562C312.87 261.839 313.54 264.173 314 266.562C312.56 274.602 310.4 282.435 307.5 290.062C304 294.895 299.83 299.062 295 302.562C264.14 307.372 250.64 294.205 254.5 263.062C256.35 251.888 262.52 244.388 273 240.562C286.51 240.702 299.84 242.368 313 245.562C316.05 247.089 319.05 248.589 322 250.062Z" fill="#040404"/>
<path fill-rule="evenodd" clip-rule="evenodd" d="M271 249.062C274.93 248.609 278.09 249.942 280.5 253.062C281.17 258.395 281.17 263.729 280.5 269.062C276.76 272.821 272.26 273.988 267 272.562C265.27 270.287 263.43 268.12 261.5 266.062C260.68 262.598 261.02 259.264 262.5 256.062C265.52 253.864 268.36 251.531 271 249.062Z" fill="#F4F4F4"/>
<path fill-rule="evenodd" clip-rule="evenodd" d="M154.999 289.061C146.419 291.936 143.589 288.936 146.499 280.061C148.499 276.575 150.659 273.242 152.999 270.061C156.789 266.662 160.789 263.495 164.999 260.561C176.819 252.512 189.819 249.845 203.999 252.561C211.429 253.657 215.929 257.823 217.499 265.061C222.569 269.802 225.409 275.635 225.999 282.561C224.459 296.651 217.459 306.984 204.999 313.561C185.169 318.894 172.009 311.727 165.499 292.061C165.169 287.394 164.829 282.728 164.499 278.061C161.499 281.895 158.329 285.561 154.999 289.061Z" fill="#040404"/>
<path fill-rule="evenodd" clip-rule="evenodd" d="M200.001 261.062C207.791 260.522 211.791 264.188 212.001 272.062C211.461 279.148 207.961 284.148 201.501 287.062C191.731 282.742 189.391 275.742 194.501 266.062C196.231 264.16 198.061 262.493 200.001 261.062Z" fill="#F7F7F7"/>
<path fill-rule="evenodd" clip-rule="evenodd" d="M397.999 265.062C401.149 264.773 404.149 265.273 406.999 266.562C409.599 271.757 412.929 276.424 416.999 280.562C420.939 282.172 423.939 284.839 425.999 288.562C429.739 291.294 433.739 293.628 437.999 295.562C440.009 299.903 439.009 303.237 434.999 305.562C419.609 309.683 404.269 314.016 388.999 318.562C381.289 319.184 378.119 315.684 379.499 308.062C381.969 301.783 384.969 295.783 388.499 290.062C389.549 283.24 391.219 276.573 393.499 270.062C394.689 268.065 396.189 266.398 397.999 265.062Z" fill="#FFEB3F"/>
<path fill-rule="evenodd" clip-rule="evenodd" d="M105 307.062C115.25 307.225 119.42 312.225 117.5 322.062C119.5 324.062 121.5 326.062 123.5 328.062C125.73 336.953 130.39 344.286 137.5 350.062C138.27 352.661 138.1 355.161 137 357.562C133.04 358.653 129.04 359.653 125 360.562C116.64 359.563 108.31 359.896 100 361.562C93.7702 365.778 88.9402 364.612 85.5002 358.062C84.2002 356.197 83.8702 354.197 84.5002 352.062C87.0702 346.493 90.0702 341.159 93.5002 336.062C95.6802 328.096 97.6802 320.096 99.5002 312.062C101.23 310.16 103.06 308.493 105 307.062Z" fill="#FFEB3E"/>
<path fill-rule="evenodd" clip-rule="evenodd" d="M261 309.061C264.84 308.568 266.84 310.235 267 314.061C265.77 319.693 263.1 324.527 259 328.561C255.8 330.044 252.46 330.378 249 329.561C244.36 327.907 239.86 326.074 235.5 324.061C234.6 321.536 235.1 319.369 237 317.561C242.71 317.915 248.37 318.582 254 319.561C256.22 315.946 258.55 312.446 261 309.061Z" fill="#0B0B0B"/>
<path fill-rule="evenodd" clip-rule="evenodd" d="M358 339.061C362.3 338.357 365.8 339.691 368.5 343.061C369.7 346.271 371.7 348.938 374.5 351.061C380.7 362.566 384.2 374.899 385 388.061C385.86 392.848 384.19 396.348 380 398.561C375.74 399.924 371.41 400.257 367 399.561C362.1 397.278 357.1 395.278 352 393.561C343.89 391.988 335.89 389.988 328 387.561C324.51 385.74 323.34 382.907 324.5 379.061C326.4 377.031 328.56 375.364 331 374.061C339.29 361.784 348.29 350.117 358 339.061Z" fill="#FFEB3E"/>
<path fill-rule="evenodd" clip-rule="evenodd" d="M166 379.062C173.2 378.822 179.87 380.655 186 384.562C191.01 388.069 196.34 391.069 202 393.562C204.5 396.729 207 399.895 209.5 403.062C210.35 406.15 209.85 408.983 208 411.562C197.39 417.02 187.72 423.687 179 431.562C175.58 432.455 172.42 431.955 169.5 430.062C167.03 420.112 163.69 410.445 159.5 401.062C158.83 396.049 158.5 391.049 158.5 386.062C161.36 384.06 163.86 381.727 166 379.062Z" fill="#FFEB3D"/>
<path fill-rule="evenodd" clip-rule="evenodd" d="M278 395.062C288.43 396.246 291.26 401.58 286.5 411.062C285.4 418.686 284.74 426.353 284.5 434.062C283.16 436.656 280.99 438.156 278 438.562C275.67 439.229 273.33 439.229 271 438.562C265.49 435.307 259.82 432.307 254 429.562C251.29 427.191 248.96 424.525 247 421.562C238.52 419.319 236.85 414.652 242 407.562C253.75 402.464 265.75 398.298 278 395.062Z" fill="#FFEB3E"/>
</svg>
