<svg width="500" height="500" viewBox="0 0 500 500" fill="none" xmlns="http://www.w3.org/2000/svg">
<path fill-rule="evenodd" clip-rule="evenodd" d="M92 335.062C93.5675 322.962 88.2342 317.292 76 318.062C78.4686 317.242 81.1353 316.742 84 316.562C96.4177 309.442 106.584 299.942 114.5 288.062C114.953 270.362 115.953 252.692 117.5 235.062C118.642 219.122 123.975 204.792 133.5 192.062C140.902 183.722 148.402 175.552 156 167.562C186.563 147.812 219.563 142.482 255 151.562C273.558 131.272 284.724 107.442 288.5 80.0618C288.846 77.7118 290.013 75.8818 292 74.5618C295.572 73.1618 299.239 72.8218 303 73.5618C319.39 80.1618 326.724 92.3318 325 110.062C334.822 109.692 344.488 110.692 354 113.062C357.268 104.522 361.102 96.1918 365.5 88.0618C368.133 83.4918 371.967 81.9918 377 83.5618C392.22 92.1718 398.054 105.002 394.5 122.062C392.764 126.532 390.264 130.532 387 134.062C392.553 139.512 397.387 145.512 401.5 152.062C407.973 143.292 414.807 134.792 422 126.562C428.755 122.382 434.255 123.542 438.5 130.062C441.644 139.852 442.644 149.852 441.5 160.062C440.096 167.102 438.596 174.102 437 181.062C439.607 188.592 441.274 196.422 442 204.562C442.414 223.382 435.747 239.052 422 251.562C408.597 261.422 393.597 267.752 377 270.562C367.358 271.722 357.691 272.562 348 273.062C346.288 291.622 340.454 308.622 330.5 324.062C324.071 332.492 316.904 340.332 309 347.562C302.749 351.272 296.583 355.102 290.5 359.062C289.213 367.342 288.713 375.672 289 384.062C304.191 384.412 311.024 392.082 309.5 407.062C305.381 415.182 298.881 420.342 290 422.562C280.04 424.022 270.04 424.362 260 423.562C253.84 422.902 249.007 420.072 245.5 415.062C244.138 402.032 243.638 389.032 244 376.062C235.416 375.892 226.749 375.892 218 376.062C218 380.392 218 384.732 218 389.062C226.695 388.462 233.861 391.462 239.5 398.062C241.864 415.122 234.364 424.292 217 425.562C207.333 426.232 197.667 426.232 188 425.562C182.709 424.932 179.209 422.102 177.5 417.062C176.54 398.382 173.54 380.042 168.5 362.062C146.499 351.392 130.666 334.892 121 312.562C120 311.892 119 311.892 118 312.562C109.116 319.952 100.449 327.452 92 335.062Z" fill="#746A75"/>
<path fill-rule="evenodd" clip-rule="evenodd" d="M307 88.0616C305.426 97.6416 303.926 107.302 302.5 117.062C303.557 118.782 304.39 120.612 305 122.562C308.333 123.232 311.667 123.232 315 122.562C315.752 121.892 316.086 121.062 316 120.062C317.213 121.132 318.713 121.802 320.5 122.062C339.01 118.902 355.844 122.742 371 133.562C379.642 141.032 386.975 149.532 393 159.062C391.007 161.062 388.673 162.562 386 163.562C379.067 174.972 379.567 186.142 387.5 197.062C395.167 205.482 404.667 209.312 416 208.562C421.517 204.712 426.017 199.882 429.5 194.062C434.929 212.112 431.096 227.942 418 241.562C413.172 245.142 408.172 248.472 403 251.562C397.498 253.982 391.832 255.812 386 257.062C372.989 252.142 361.489 244.802 351.5 235.062C349.857 232.582 348.024 230.252 346 228.062C347.414 226.942 348.914 225.942 350.5 225.062C350.994 223.432 351.16 221.762 351 220.062C345.781 222.642 340.448 225.142 335 227.562C334.163 228.572 333.83 229.742 334 231.062C337.018 230.902 340.018 231.062 343 231.562C352.108 243.782 363.774 252.612 378 258.062C376.551 259.722 374.551 260.562 372 260.562C361.687 261.532 351.354 262.192 341 262.562C338.679 276.012 335.179 289.182 330.5 302.062C320.605 324.872 304.271 341.202 281.5 351.062C278.571 363.882 277.571 376.882 278.5 390.062C278.773 391.892 279.607 393.392 281 394.562C288.076 392.512 294.243 394.012 299.5 399.062C299.545 402.812 298.045 405.982 295 408.562C292.314 409.932 289.647 411.262 287 412.562C278 413.232 269 413.232 260 412.562C258.628 412.162 257.295 411.662 256 411.062C255.186 408.792 254.686 406.462 254.5 404.062C254.24 390.372 253.74 376.712 253 363.062C238.08 365.772 223.08 366.432 208 365.062C207.868 375.422 208.368 385.762 209.5 396.062C210.479 397.882 211.979 399.052 214 399.562C218.782 399.682 223.449 400.352 228 401.562C229.915 403.742 230.082 406.242 228.5 409.062C227.391 411.372 225.557 412.872 223 413.562C211.148 416.562 199.314 416.732 187.5 414.062C185.504 400.442 183.838 386.772 182.5 373.062C181.03 366.992 179.364 360.992 177.5 355.062C143.819 339.762 125.985 313.432 124 276.062C124.569 259.642 126.069 243.312 128.5 227.062C133.255 210.882 141.589 196.882 153.5 185.062C157.333 182.562 160.5 179.392 163 175.562C175.9 167.942 189.567 162.272 204 158.562C217.373 156.602 230.707 156.932 244 159.562C248.641 161.302 253.308 162.302 258 162.562C280.744 141.242 294.077 115.072 298 84.0616C301.412 84.6016 304.412 85.9416 307 88.0616Z" fill="#A69CA7"/>
<path fill-rule="evenodd" clip-rule="evenodd" d="M307 88.0616C310.494 90.0616 312.66 93.0616 313.5 97.0616C313.771 104.942 314.605 112.602 316 120.062C316.086 121.062 315.752 121.892 315 122.562C311.667 123.232 308.333 123.232 305 122.562C304.39 120.612 303.557 118.782 302.5 117.062C303.926 107.302 305.426 97.6416 307 88.0616Z" fill="#F69F9B"/>
<path fill-rule="evenodd" clip-rule="evenodd" d="M379 98.0616C377.012 105.742 374.678 113.402 372 121.062C368.434 120.452 365.767 118.622 364 115.562C366.706 108.222 370.206 101.392 374.5 95.0616C376.166 95.9116 377.666 96.9116 379 98.0616Z" fill="#A69BA6"/>
<path fill-rule="evenodd" clip-rule="evenodd" d="M379 98.0616C384.537 103.562 386.37 110.232 384.5 118.062C383.835 121.402 382.169 124.062 379.5 126.062C376.561 124.942 374.061 123.272 372 121.062C374.678 113.402 377.012 105.742 379 98.0616Z" fill="#F39F9B"/>
<path fill-rule="evenodd" clip-rule="evenodd" d="M428 135.062C429.086 135.182 429.753 135.852 430 137.062C433.636 149.162 433.136 161.162 428.5 173.062C424.642 180.942 420.142 188.442 415 195.562C407.276 198.832 400.776 197.002 395.5 190.062C392.275 185.162 391.275 179.832 392.5 174.062C398.782 168.452 405.115 162.782 411.5 157.062C416.832 149.572 422.332 142.232 428 135.062Z" fill="#FBFBFB"/>
<path fill-rule="evenodd" clip-rule="evenodd" d="M320.001 156.062C332.643 155.532 338.143 161.532 336.501 174.062C330.745 180.422 323.912 181.762 316.001 178.062C309.612 169.242 310.945 161.912 320.001 156.062Z" fill="#0A0A0A"/>
<path fill-rule="evenodd" clip-rule="evenodd" d="M317.999 160.062C323.334 159.572 325.834 161.902 325.499 167.062C322.793 170.542 319.793 170.872 316.499 168.062C315.608 165.062 316.108 162.402 317.999 160.062Z" fill="#D3D3D3"/>
<path fill-rule="evenodd" clip-rule="evenodd" d="M395 215.062C396.667 215.062 398.333 215.062 400 215.062C400 216.392 400 217.732 400 219.062C396.982 219.262 393.982 219.602 391 220.062C391 218.732 391 217.392 391 216.062C392.599 216.332 393.932 215.992 395 215.062Z" fill="#100F10"/>
<path fill-rule="evenodd" clip-rule="evenodd" d="M413 219.062C416.265 218.862 418.265 220.362 419 223.562C418.855 224.332 418.522 225.002 418 225.562C414.398 225.102 412.731 222.942 413 219.062Z" fill="#171617"/>
<path fill-rule="evenodd" clip-rule="evenodd" d="M386 257.062C383.501 258.682 380.835 259.022 378 258.062C363.774 252.612 352.108 243.782 343 231.562C340.018 231.062 337.018 230.902 334 231.062C333.83 229.742 334.163 228.572 335 227.562C340.448 225.142 345.781 222.642 351 220.062C351.16 221.762 350.994 223.432 350.5 225.062C348.914 225.942 347.414 226.942 346 228.062C348.024 230.252 349.857 232.582 351.5 235.062C361.489 244.802 372.989 252.142 386 257.062Z" fill="#100F10"/>
<path fill-rule="evenodd" clip-rule="evenodd" d="M304 260.061C301.786 258.691 299.453 257.521 297 256.561C287.442 254.851 277.775 253.681 268 253.061C264.875 252.991 261.875 253.491 259 254.561C251.015 260.341 247.348 268.171 248 278.061C249.09 304.001 261.757 312.501 286 303.561C287.741 301.941 289.575 300.441 291.5 299.061C294.23 292.871 296.563 286.541 298.5 280.061C299.107 276.021 298.94 272.021 298 268.061C302.068 270.131 306.401 271.471 311 272.061C314.341 293.871 308.007 312.371 292 327.561C280.01 335.891 266.677 340.891 252 342.561C237.63 343.431 223.297 343.101 209 341.561C191.765 338.711 178.265 330.211 168.5 316.061C165.122 309.101 163.289 301.761 163 294.061C169.794 282.901 172.627 284.231 171.5 298.061C174.463 306.691 179.963 313.191 188 317.561C205.286 318.941 216.786 311.441 222.5 295.061C223.167 290.731 223.167 286.391 222.5 282.061C217.901 277.041 214.068 271.541 211 265.561C196.773 259.841 183.44 261.341 171 270.061C169.927 269.311 169.76 268.311 170.5 267.061C182.222 243.101 201.388 229.271 228 225.561C250.122 222.081 270.455 226.411 289 238.561C296.105 244.461 301.772 251.461 306 259.561C305.406 260.021 304.739 260.191 304 260.061Z" fill="#FBFBFB"/>
<path fill-rule="evenodd" clip-rule="evenodd" d="M304.001 260.061C307.568 262.431 311.401 264.431 315.501 266.061C317.069 270.481 315.569 272.481 311.001 272.061C306.402 271.471 302.069 270.131 298.001 268.061C298.941 272.021 299.108 276.021 298.501 280.061C296.564 286.541 294.231 292.871 291.501 299.061C289.576 300.441 287.742 301.941 286.001 303.561C261.758 312.501 249.091 304.001 248.001 278.061C247.349 268.171 251.016 260.341 259.001 254.561C261.876 253.491 264.876 252.991 268.001 253.061C277.776 253.681 287.443 254.851 297.001 256.561C299.454 257.521 301.787 258.691 304.001 260.061Z" fill="#070707"/>
<path fill-rule="evenodd" clip-rule="evenodd" d="M261.999 260.062C265.361 259.632 268.194 260.632 270.499 263.062C271.166 267.732 271.166 272.392 270.499 277.062C267.544 280.842 263.711 282.002 258.999 280.562C256.82 278.712 254.986 276.552 253.499 274.062C252.793 271.592 253.126 269.262 254.499 267.062C257.401 265.052 259.901 262.722 261.999 260.062Z" fill="#EFEFEF"/>
<path fill-rule="evenodd" clip-rule="evenodd" d="M163 294.062C160.404 294.832 157.737 295.162 155 295.062C154.663 291.252 155.163 287.592 156.5 284.062C160.568 278.492 165.402 273.822 171 270.062C183.44 261.342 196.773 259.842 211 265.562C214.068 271.542 217.901 277.042 222.5 282.062C223.167 286.392 223.167 290.732 222.5 295.062C216.786 311.442 205.286 318.942 188 317.562C179.963 313.192 174.463 306.692 171.5 298.062C172.627 284.232 169.794 282.902 163 294.062Z" fill="#080808"/>
<path fill-rule="evenodd" clip-rule="evenodd" d="M201 270.062C207.091 270.442 210.758 273.602 212 279.562C211.528 283.002 210.362 286.172 208.5 289.062C200.678 294.392 195.845 292.392 194 283.062C194.548 280.002 195.381 277.002 196.5 274.062C198.167 272.832 199.667 271.492 201 270.062Z" fill="#F0F0F0"/>
<path fill-rule="evenodd" clip-rule="evenodd" d="M253.001 312.061C256.365 311.431 258.365 312.771 259.001 316.061C257.483 321.261 254.817 325.761 251.001 329.561C248.001 330.231 245.001 330.231 242.001 329.561C238.431 328.061 234.931 326.561 231.501 325.061C230.347 321.361 231.68 319.361 235.501 319.061C239.752 320.161 243.919 320.991 248.001 321.561C249.821 318.421 251.487 315.251 253.001 312.061Z" fill="#151515"/>
<path fill-rule="evenodd" clip-rule="evenodd" d="M76 318.061C88.2342 317.291 93.5675 322.961 92 335.061C87.2743 338.091 82.2743 340.591 77 342.561C58.8897 346.811 54.0564 340.981 62.5 325.061C66.1575 321.121 70.6575 318.781 76 318.061Z" fill="#080808"/>
</svg>
