<svg width="500" height="500" viewBox="0 0 500 500" fill="none" xmlns="http://www.w3.org/2000/svg">
<path fill-rule="evenodd" clip-rule="evenodd" d="M355 206.062C353.72 203.452 352.05 201.112 350 199.062C352.01 196.892 353.18 194.232 353.5 191.062C354 185.402 354.17 179.742 354 174.062C349.94 175.582 345.94 177.412 342 179.562C335.94 180.632 334.61 178.632 338 173.562C336.37 168.352 334.54 163.182 332.5 158.062C331.46 155.972 329.96 154.312 328 153.062C321.93 156.622 316.6 161.122 312 166.562C309.26 168.702 306.26 169.702 303 169.562C301.92 159.342 297.59 150.682 290 143.562C287.84 142.652 285.84 141.482 284 140.062C282.24 142.742 280.57 145.582 279 148.562C277.24 149.362 275.57 149.192 274 148.062C271.85 142.422 268.68 137.422 264.5 133.062C258.83 128.062 253.17 123.062 247.5 118.062C240.53 127.172 233.7 136.342 227 145.562C224.6 146.192 222.76 145.362 221.5 143.062C221.35 138.572 220.52 134.242 219 130.062C214.24 135.082 210.9 140.922 209 147.562C197.93 147.302 186.93 146.132 176 144.062C175.12 154.602 178.62 163.272 186.5 170.062C189.05 174.252 187.88 176.582 183 177.062C173.03 175.012 163.03 173.512 153 172.562C150.94 177.742 150.6 182.902 152 188.062C149.69 190.032 147.36 192.032 145 194.062C143.96 187.762 143.79 181.432 144.5 175.062C145.06 171.432 146.56 168.272 149 165.562C157.7 165.972 166.37 166.632 175 167.562C169.36 158.542 167.53 148.712 169.5 138.062C170 137.562 170.5 137.062 171 136.562C181.35 137.592 191.68 139.092 202 141.062C205.97 136.482 209.47 131.482 212.5 126.062C221.59 116.922 226.75 118.922 228 132.062C233.08 125.572 237.91 118.902 242.5 112.062C244.36 109.352 246.86 108.522 250 109.562C254.31 114.202 258.98 118.542 264 122.562C268.76 126.932 272.92 131.762 276.5 137.062C277.89 134.172 280.06 132.172 283 131.062C295.91 136.812 304.41 146.482 308.5 160.062C314.43 153.452 321.43 148.452 329.5 145.062C332.72 145.942 335.05 147.942 336.5 151.062C339.63 157.282 342.46 163.612 345 170.062C348.93 167.362 353.27 166.522 358 167.562C359.2 168.462 360.03 169.632 360.5 171.062C361.17 178.392 361.17 185.732 360.5 193.062C359.32 197.782 357.49 202.112 355 206.062Z" fill="#B9AFB5"/>
<path fill-rule="evenodd" clip-rule="evenodd" d="M349.999 199.062C336.849 187.482 322.519 185.982 306.999 194.562C297.459 200.472 292.129 208.972 290.999 220.062C282.599 222.972 275.759 227.972 270.499 235.062C269.879 237.022 270.379 238.692 271.999 240.062C274.479 240.632 276.819 241.292 278.999 242.062C276.589 248.642 272.759 254.312 267.499 259.062C266.099 255.282 263.599 254.282 259.999 256.062C256.069 261.572 251.909 266.912 247.499 272.062C238.189 265.272 231.689 256.432 227.999 245.562C226.669 244.892 225.329 244.892 223.999 245.562C222.829 247.392 221.669 249.232 220.499 251.062C218.219 246.292 216.719 241.292 215.999 236.062C218.099 235.802 219.429 234.632 219.999 232.562C216.779 225.192 211.109 221.022 202.999 220.062C200.529 204.972 192.529 193.812 178.999 186.562C169.799 184.252 160.799 184.752 151.999 188.062C150.599 182.902 150.939 177.742 152.999 172.562C163.029 173.512 173.029 175.012 182.999 177.062C187.879 176.582 189.049 174.252 186.499 170.062C178.619 163.272 175.119 154.602 175.999 144.062C186.929 146.132 197.929 147.302 208.999 147.562C210.899 140.922 214.239 135.082 218.999 130.062C220.519 134.242 221.349 138.572 221.499 143.062C222.759 145.362 224.599 146.192 226.999 145.562C233.699 136.342 240.529 127.172 247.499 118.062C253.169 123.062 258.829 128.062 264.499 133.062C268.679 137.422 271.849 142.422 273.999 148.062C275.569 149.192 277.239 149.362 278.999 148.562C280.569 145.582 282.239 142.742 283.999 140.062C285.839 141.482 287.839 142.652 289.999 143.562C297.589 150.682 301.919 159.342 302.999 169.562C306.259 169.702 309.259 168.702 311.999 166.562C316.599 161.122 321.929 156.622 327.999 153.062C329.959 154.312 331.459 155.972 332.499 158.062C334.539 163.182 336.369 168.352 337.999 173.562C334.609 178.632 335.939 180.632 341.999 179.562C345.939 177.412 349.939 175.582 353.999 174.062C354.169 179.742 353.999 185.402 353.499 191.062C353.179 194.232 352.009 196.892 349.999 199.062Z" fill="#FAEDEF"/>
<path fill-rule="evenodd" clip-rule="evenodd" d="M216 236.062C213.37 235.472 210.71 235.142 208 235.062C200.71 233.762 193.38 233.262 186 233.562C178.36 236.382 170.69 239.212 163 242.062C145.79 243.532 137.13 235.532 137 218.062C138.34 212.372 139.67 206.712 141 201.062C142.33 198.732 143.67 196.392 145 194.062C147.36 192.032 149.69 190.032 152 188.062C160.8 184.752 169.8 184.252 179 186.562C192.53 193.812 200.53 204.972 203 220.062C211.11 221.022 216.78 225.192 220 232.562C219.43 234.632 218.1 235.802 216 236.062Z" fill="#120D0E"/>
<path fill-rule="evenodd" clip-rule="evenodd" d="M350.001 199.061C352.051 201.111 353.721 203.451 355.001 206.061C355.001 206.731 355.331 207.061 356.001 207.061C356.721 209.321 357.051 211.661 357.001 214.061C356.461 222.141 353.461 229.141 348.001 235.061C345.911 236.141 344.581 237.811 344.001 240.061C337.121 243.321 329.791 244.651 322.001 244.061C310.381 242.591 298.721 241.591 287.001 241.061C284.291 241.141 281.631 241.471 279.001 242.061C276.821 241.291 274.481 240.631 272.001 240.061C270.381 238.691 269.881 237.021 270.501 235.061C275.761 227.971 282.601 222.971 291.001 220.061C292.131 208.971 297.461 200.471 307.001 194.561C322.521 185.981 336.851 187.481 350.001 199.061Z" fill="#130E0F"/>
<path fill-rule="evenodd" clip-rule="evenodd" d="M160 192.061C178.27 190.521 189.77 198.521 194.5 216.061C187.46 210.541 179.46 207.541 170.5 207.061C166.32 207.651 165.15 209.811 167 213.561C178.28 215.031 188.61 219.031 198 225.561C200.54 225.701 202.88 226.371 205 227.561C200.57 227.171 196.07 226.671 191.5 226.061C187.65 226.471 183.82 226.971 180 227.561C173.44 230.671 166.77 233.511 160 236.061C148.86 234.151 143.69 227.481 144.5 216.061C145.34 207.511 148.84 200.341 155 194.561C156.99 194.191 158.66 193.351 160 192.061Z" fill="#352326"/>
<path fill-rule="evenodd" clip-rule="evenodd" d="M320 196.061C333.18 194.571 343.02 199.571 349.5 211.061C350.61 216.171 349.61 220.841 346.5 225.061C343.7 228.861 340.54 232.361 337 235.561C327.28 237.721 317.61 237.391 308 234.561C299 234.231 290 233.891 281 233.561C287.45 229.411 294.45 226.411 302 224.561C305.83 222.811 309.49 220.811 313 218.561C314.73 217.171 316.06 215.501 317 213.561C316.29 210.841 314.62 209.841 312 210.561C307.96 213.741 303.63 216.071 299 217.561C299.94 211.361 302.94 206.361 308 202.561C311.93 200.101 315.93 197.931 320 196.061Z" fill="#352326"/>
<path fill-rule="evenodd" clip-rule="evenodd" d="M141 201.062C139.67 206.712 138.34 212.372 137 218.062C137.13 235.532 145.79 243.532 163 242.062C159.52 242.882 155.86 243.382 152 243.562C144.7 250.212 136.7 255.882 128 260.562C141.66 269.262 156.33 271.262 172 266.562C186.01 261.482 198.51 253.982 209.5 244.062C209.44 241.032 208.94 238.032 208 235.062C210.71 235.142 213.37 235.472 216 236.062C216.72 241.292 218.22 246.292 220.5 251.062C221.67 249.232 222.83 247.392 224 245.562C225.33 244.892 226.67 244.892 228 245.562C231.69 256.432 238.19 265.272 247.5 272.062C251.91 266.912 256.07 261.572 260 256.062C263.6 254.282 266.1 255.282 267.5 259.062C272.76 254.312 276.59 248.642 279 242.062C281.63 241.472 284.29 241.142 287 241.062C286.43 242.592 285.77 244.092 285 245.562C305.87 265.962 330.87 274.632 360 271.562C363.44 270.872 366.77 269.872 370 268.562C359.69 260.422 351.02 250.922 344 240.062C344.58 237.812 345.91 236.142 348 235.062C348.75 237.072 349.92 237.732 351.5 237.062C356.08 230.902 360.41 224.572 364.5 218.062C364.9 216.692 365.4 215.352 366 214.062C363.03 213.052 360.03 213.052 357 214.062C357.05 211.662 356.72 209.322 356 207.062C360.18 206.562 364.35 205.892 368.5 205.062C371.92 205.422 373.42 207.422 373 211.062C372.81 217.782 370.64 223.782 366.5 229.062C362.31 233.622 358.47 238.452 355 243.562C362.56 252.292 370.56 260.452 379 268.062C378.29 271.942 375.96 274.442 372 275.562C362.49 278.262 352.83 280.092 343 281.062C325.77 278.032 309.44 271.862 294 262.562C291.12 260.172 288.12 258.012 285 256.062C284.35 254.752 283.35 253.752 282 253.062C279.73 255.952 277.73 258.952 276 262.062C272.9 263.982 269.9 266.152 267 268.562C264.45 268.912 262.12 268.582 260 267.562C257.46 270.472 255.3 273.632 253.5 277.062C252.38 278.682 250.88 279.682 249 280.062C239.49 275.722 231.99 269.062 226.5 260.062C226.07 263.502 224.24 265.002 221 264.562C216.99 260.722 213.99 256.222 212 251.062C209.98 252.752 207.98 254.422 206 256.062C203.87 257.962 201.54 259.632 199 261.062C198.11 261.882 197.78 262.882 198 264.062C197.28 263.642 196.78 262.982 196.5 262.062C185.41 269.542 173.24 274.042 160 275.562C158.38 275.802 157.38 276.632 157 278.062C154.6 278.112 152.26 277.782 150 277.062C148.58 275.252 146.58 274.592 144 275.062C135.73 273.092 128.06 269.762 121 265.062C119.17 263.062 118.67 260.732 119.5 258.062C128.43 252.842 136.93 247.012 145 240.562C135.71 231.932 127.87 222.102 121.5 211.062C120.51 208.432 120.17 205.772 120.5 203.062C127.29 202.302 134.12 201.632 141 201.062Z" fill="#B9AFB5"/>
<path fill-rule="evenodd" clip-rule="evenodd" d="M348 235.061C353.46 229.141 356.46 222.141 357 214.061C360.03 213.051 363.03 213.051 366 214.061C365.4 215.351 364.9 216.691 364.5 218.061C360.41 224.571 356.08 230.901 351.5 237.061C349.92 237.731 348.75 237.071 348 235.061Z" fill="#F8EDEF"/>
<path fill-rule="evenodd" clip-rule="evenodd" d="M208 235.062C208.94 238.032 209.44 241.032 209.5 244.062C198.51 253.982 186.01 261.482 172 266.562C156.33 271.262 141.66 269.262 128 260.562C136.7 255.882 144.7 250.212 152 243.562C155.86 243.382 159.52 242.882 163 242.062C170.69 239.212 178.36 236.382 186 233.562C193.38 233.262 200.71 233.762 208 235.062Z" fill="#F9EDEF"/>
<path fill-rule="evenodd" clip-rule="evenodd" d="M344 240.062C351.02 250.922 359.69 260.422 370 268.562C366.77 269.872 363.44 270.872 360 271.562C330.87 274.632 305.87 265.962 285 245.562C285.77 244.092 286.43 242.592 287 241.062C298.72 241.592 310.38 242.592 322 244.062C329.79 244.652 337.12 243.322 344 240.062Z" fill="#F9EDEF"/>
<path fill-rule="evenodd" clip-rule="evenodd" d="M276 262.062C276.38 265.602 277.38 268.942 279 272.062C271.57 275.652 266.41 281.322 263.5 289.062C256.81 318.532 268.31 331.202 298 327.062C297.87 327.942 298.2 328.602 299 329.062C300.94 329.752 302.94 330.252 305 330.562C307 332.882 309.33 334.722 312 336.062C303.08 342.532 293.41 348.032 283 352.562C282.37 353.312 281.87 354.142 281.5 355.062C280.83 361.062 280.83 367.062 281.5 373.062C281.81 373.872 282.31 374.532 283 375.062C286.56 373.522 289.9 373.862 293 376.062C294.47 379.352 293.8 382.192 291 384.562C285 385.232 279 385.232 273 384.562C271.22 376.492 269.72 368.332 268.5 360.062C267.06 358.842 265.4 358.172 263.5 358.062C251.69 358.472 239.86 358.642 228 358.562C226.77 366.432 225.27 374.262 223.5 382.062C217.14 383.882 210.64 384.382 204 383.562C200.19 382.162 199.19 379.662 201 376.062C204.7 372.862 209.03 371.192 214 371.062C215 364.432 215.33 357.762 215 351.062C203.87 348.242 194.2 342.902 186 335.062C187.96 331.712 190.96 330.212 195 330.562C196.54 329.452 197.2 327.952 197 326.062C215.47 329.412 228.3 322.412 235.5 305.062C236.91 297.622 235.24 290.952 230.5 285.062C230.46 279.682 227.96 275.842 223 273.562C218.78 272.092 214.44 271.092 210 270.562C207.64 266.012 206.31 261.172 206 256.062C207.98 254.422 209.98 252.752 212 251.062C213.99 256.222 216.99 260.722 221 264.562C224.24 265.002 226.07 263.502 226.5 260.062C231.99 269.062 239.49 275.722 249 280.062C250.88 279.682 252.38 278.682 253.5 277.062C255.3 273.632 257.46 270.472 260 267.562C262.12 268.582 264.45 268.912 267 268.562C269.9 266.152 272.9 263.982 276 262.062Z" fill="#DFD4D4"/>
<path fill-rule="evenodd" clip-rule="evenodd" d="M285 256.062C285.54 261.482 285.54 266.822 285 272.062C283 272.062 281 272.062 279 272.062C277.38 268.942 276.38 265.602 276 262.062C277.73 258.952 279.73 255.952 282 253.062C283.35 253.752 284.35 254.752 285 256.062Z" fill="#352326"/>
<path fill-rule="evenodd" clip-rule="evenodd" d="M120.999 265.062C128.059 269.762 135.729 273.092 143.999 275.062C145.799 276.022 147.799 276.682 149.999 277.062C152.259 277.782 154.599 278.112 156.999 278.062C158.239 287.622 160.239 297.282 162.999 307.062C161.999 307.392 161.329 308.062 160.999 309.062C159.119 309.902 157.119 310.232 154.999 310.062C153.479 310.052 152.319 309.382 151.499 308.062C150.989 305.682 150.319 303.352 149.499 301.062C146.129 302.392 142.969 301.892 139.999 299.562C138.369 296.142 136.369 292.972 133.999 290.062C131.969 291.902 129.639 292.402 126.999 291.562C124.199 288.502 122.199 285.002 120.999 281.062C117.889 282.622 115.049 282.292 112.499 280.062C110.249 275.602 109.249 270.932 109.499 266.062C110.619 264.442 112.119 263.442 113.999 263.062C116.349 263.732 118.679 264.402 120.999 265.062Z" fill="#130D0E"/>
<path fill-rule="evenodd" clip-rule="evenodd" d="M340 312.061C338.62 310.481 337.62 308.651 337 306.561C339.32 298.501 339.65 290.331 338 282.061C339.91 282.341 341.58 282.011 343 281.061C352.83 280.091 362.49 278.261 372 275.561C375.96 274.441 378.29 271.941 379 268.061C383.51 265.201 387.67 265.541 391.5 269.061C391.69 274.391 390.35 279.391 387.5 284.061C385.03 285.351 382.53 285.351 380 284.061C378.43 287.291 376.76 290.461 375 293.561C372.16 295.681 369.5 295.511 367 293.061C364.21 296.471 361.55 299.971 359 303.561C356.41 305.251 353.75 305.411 351 304.061C351.14 312.271 347.48 314.931 340 312.061Z" fill="#120C0C"/>
<path fill-rule="evenodd" clip-rule="evenodd" d="M206.001 256.062C206.311 261.172 207.641 266.012 210.001 270.562C214.441 271.092 218.781 272.092 223.001 273.562C227.961 275.842 230.461 279.682 230.501 285.062C235.241 290.952 236.911 297.622 235.501 305.062C228.301 322.412 215.471 329.412 197.001 326.062C194.851 324.152 192.521 322.482 190.001 321.062C185.311 316.002 182.471 310.002 181.501 303.062C180.831 298.922 181.331 294.922 183.001 291.062C182.501 290.042 181.831 289.872 181.001 290.562C177.371 294.282 173.211 297.122 168.501 299.062C167.391 298.972 166.391 298.642 165.501 298.062C164.991 290.822 167.831 284.992 174.001 280.562C182.001 275.392 190.671 271.892 200.001 270.062C199.901 267.862 199.231 265.862 198.001 264.062C197.781 262.882 198.111 261.882 199.001 261.062C201.541 259.632 203.871 257.962 206.001 256.062Z" fill="#070506"/>
<path fill-rule="evenodd" clip-rule="evenodd" d="M144 275.062C146.58 274.592 148.58 275.252 150 277.062C147.8 276.682 145.8 276.022 144 275.062Z" fill="#AF2E2E"/>
<path fill-rule="evenodd" clip-rule="evenodd" d="M285 256.062C288.12 258.012 291.12 260.172 294 262.562C309.44 271.862 325.77 278.032 343 281.062C341.58 282.012 339.91 282.342 338 282.062C339.65 290.332 339.32 298.502 337 306.562C337.62 308.652 338.62 310.482 340 312.062C338.1 317.552 337.1 323.222 337 329.062C337.64 337.232 338.81 345.232 340.5 353.062C336.75 355.292 332.92 355.462 329 353.562C322.33 350.712 316.66 346.552 312 341.062C303.75 346.442 295.25 351.442 286.5 356.062C286 360.712 285.83 365.382 286 370.062C296.78 369.852 300.28 374.852 296.5 385.062C294.31 387.742 291.47 389.242 288 389.562C281.24 390.272 274.57 389.772 268 388.062C267 379.382 266 370.722 265 362.062C253.68 363.192 242.35 363.192 231 362.062C230.17 368.382 229.34 374.722 228.5 381.062C228.14 382.982 227.31 384.652 226 386.062C218.8 388.162 211.47 388.992 204 388.562C195.4 385.092 193.73 379.422 199 371.562C201.96 369.252 205.29 367.752 209 367.062C210.41 362.842 211.08 358.512 211 354.062C206.05 353.192 201.39 351.522 197 349.062C195.16 346.972 192.83 345.642 190 345.062C187.36 342.592 184.52 340.262 181.5 338.062C174.1 344.512 165.6 348.352 156 349.562C154.61 348.602 153.94 347.272 154 345.562C156.29 333.802 156.63 321.972 155 310.062C157.12 310.232 159.12 309.902 161 309.062C161.68 310.972 162.18 312.972 162.5 315.062C162.83 323.732 163.17 332.392 163.5 341.062C167.41 339.022 171.25 336.852 175 334.562C176.02 333.512 176.18 332.342 175.5 331.062C169.72 323.902 165.56 315.902 163 307.062C160.24 297.282 158.24 287.622 157 278.062C157.38 276.632 158.38 275.802 160 275.562C173.24 274.042 185.41 269.542 196.5 262.062C196.78 262.982 197.28 263.642 198 264.062C199.23 265.862 199.9 267.862 200 270.062C190.67 271.892 182 275.392 174 280.562C167.83 284.992 164.99 290.822 165.5 298.062C166.39 298.642 167.39 298.972 168.5 299.062C173.21 297.122 177.37 294.282 181 290.562C181.83 289.872 182.5 290.042 183 291.062C181.33 294.922 180.83 298.922 181.5 303.062C182.47 310.002 185.31 316.002 190 321.062C186.51 322.402 183.34 324.402 180.5 327.062C180.09 331.172 181.92 333.832 186 335.062C194.2 342.902 203.87 348.242 215 351.062C215.33 357.762 215 364.432 214 371.062C209.03 371.192 204.7 372.862 201 376.062C199.19 379.662 200.19 382.162 204 383.562C210.64 384.382 217.14 383.882 223.5 382.062C225.27 374.262 226.77 366.432 228 358.562C239.86 358.642 251.69 358.472 263.5 358.062C265.4 358.172 267.06 358.842 268.5 360.062C269.72 368.332 271.22 376.492 273 384.562C279 385.232 285 385.232 291 384.562C293.8 382.192 294.47 379.352 293 376.062C289.9 373.862 286.56 373.522 283 375.062C282.31 374.532 281.81 373.872 281.5 373.062C280.83 367.062 280.83 361.062 281.5 355.062C281.87 354.142 282.37 353.312 283 352.562C293.41 348.032 303.08 342.532 312 336.062C313.48 334.082 315.15 332.242 317 330.562C314.12 326.462 310.45 323.292 306 321.062C312.31 312.432 315.81 302.772 316.5 292.062C318.67 293.562 320.83 295.062 323 296.562C325.85 296.832 328.52 297.662 331 299.062C334 298.062 335.17 296.062 334.5 293.062C328 288.562 321.5 284.062 315 279.562C307.61 277.432 300.28 275.102 293 272.562C290.35 272.062 287.69 271.902 285 272.062C285.54 266.822 285.54 261.482 285 256.062Z" fill="#CCC6C7"/>
<path fill-rule="evenodd" clip-rule="evenodd" d="M279.001 272.062C281.001 272.062 283.001 272.062 285.001 272.062C287.691 271.902 290.351 272.062 293.001 272.562C300.281 275.102 307.611 277.432 315.001 279.562C321.501 284.062 328.001 288.562 334.501 293.062C335.171 296.062 334.001 298.062 331.001 299.062C328.521 297.662 325.851 296.832 323.001 296.562C320.831 295.062 318.671 293.562 316.501 292.062C315.811 302.772 312.311 312.432 306.001 321.062C303.301 323.072 300.631 325.072 298.001 327.062C268.311 331.202 256.811 318.532 263.501 289.062C266.411 281.322 271.571 275.652 279.001 272.062Z" fill="#040303"/>
<path fill-rule="evenodd" clip-rule="evenodd" d="M278.001 279.062C282.411 278.182 285.911 279.512 288.501 283.062C288.281 287.742 287.621 292.402 286.501 297.062C283.241 299.992 279.411 300.822 275.001 299.562C273.511 297.072 271.681 294.912 269.501 293.062C268.751 290.262 269.081 287.592 270.501 285.062C273.151 283.142 275.651 281.142 278.001 279.062Z" fill="#FB4E54"/>
<path fill-rule="evenodd" clip-rule="evenodd" d="M214.001 280.062C223.611 279.862 227.111 284.522 224.501 294.062C221.041 302.392 215.701 304.062 208.501 299.062C204.811 293.192 205.481 287.862 210.501 283.062C211.651 281.922 212.811 280.922 214.001 280.062Z" fill="#FA4E54"/>
<path fill-rule="evenodd" clip-rule="evenodd" d="M163 307.062C165.56 315.902 169.72 323.902 175.5 331.062C176.18 332.342 176.02 333.512 175 334.562C171.25 336.852 167.41 339.022 163.5 341.062C163.17 332.392 162.83 323.732 162.5 315.062C162.18 312.972 161.68 310.972 161 309.062C161.33 308.062 162 307.392 163 307.062Z" fill="#F9EDEF"/>
<path fill-rule="evenodd" clip-rule="evenodd" d="M190.001 321.062C192.521 322.482 194.851 324.152 197.001 326.062C197.201 327.952 196.541 329.452 195.001 330.562C190.961 330.212 187.961 331.712 186.001 335.062C181.921 333.832 180.091 331.172 180.501 327.062C183.341 324.402 186.511 322.402 190.001 321.062Z" fill="#342225"/>
<path fill-rule="evenodd" clip-rule="evenodd" d="M306 321.062C310.45 323.292 314.12 326.462 317 330.562C315.15 332.242 313.48 334.082 312 336.062C309.33 334.722 307 332.882 305 330.562C302.94 330.252 300.94 329.752 299 329.062C298.2 328.602 297.87 327.942 298 327.062C300.63 325.072 303.3 323.072 306 321.062Z" fill="#342225"/>
<path fill-rule="evenodd" clip-rule="evenodd" d="M329 323.062C330.16 330.922 330.99 338.922 331.5 347.062C326.34 344.572 321.84 341.232 318 337.062C322.16 332.732 325.82 328.062 329 323.062Z" fill="#FAEEF0"/>
<path fill-rule="evenodd" clip-rule="evenodd" d="M262 331.062C265.39 330.352 267.72 331.522 269 334.562C266.74 340.072 263.08 344.402 258 347.562C255.24 348.142 252.58 347.812 250 346.562C246.22 344.252 242.38 342.092 238.5 340.062C238.07 336.492 239.73 334.832 243.5 335.062C247.45 336.282 251.28 337.952 255 340.062C257.71 337.352 260.04 334.352 262 331.062Z" fill="#0A0A0A"/>
<path fill-rule="evenodd" clip-rule="evenodd" d="M190 345.062C192.83 345.642 195.16 346.972 197 349.062C193.47 350.412 190.3 352.412 187.5 355.062C183.92 359.892 180.59 364.892 177.5 370.062C170.71 377.702 162.21 380.702 152 379.062C152.52 384.722 150.02 388.382 144.5 390.062C141.36 388.132 141.2 385.802 144 383.062C143.67 382.732 143.33 382.392 143 382.062C141.52 383.042 140.19 384.212 139 385.562C134.07 385.472 129.4 384.142 125 381.562C123.6 380.502 122.6 379.172 122 377.562C124.28 374.272 126.95 371.272 130 368.562C131.33 367.892 132.67 367.892 134 368.562C136.08 370.202 138.41 371.372 141 372.062C141.33 371.732 141.67 371.392 142 371.062C137.29 365.392 138.62 363.232 146 364.562C148.74 366.452 150.41 368.952 151 372.062C156.72 372.192 162.39 371.692 168 370.562C172.62 364.482 177.12 358.322 181.5 352.062C183.92 349.142 186.75 346.802 190 345.062Z" fill="#150C0D"/>
</svg>
