<svg width="500" height="500" viewBox="0 0 500 500" fill="none" xmlns="http://www.w3.org/2000/svg">
<path fill-rule="evenodd" clip-rule="evenodd" d="M225 297.062C223 297.062 221 297.062 219 297.062C208.35 296.322 197.68 295.992 187 296.062C184.67 296.062 182.33 296.062 180 296.062C150.33 296.022 120.66 295.522 90.9995 294.562C76.4895 292.722 67.6495 284.552 64.4995 270.062C62.8095 242.202 66.8095 215.202 76.4995 189.062C78.4895 185.072 81.6595 182.572 85.9995 181.562C90.6695 181.132 95.3395 180.632 99.9995 180.062C115.35 180.642 130.68 181.472 146 182.562C211.35 183.092 276.68 184.092 342 185.562C350.58 186.682 356.91 191.012 361 198.562C387.54 210.742 412.37 225.572 435.5 243.062C436.17 246.732 436.17 250.392 435.5 254.062C433.28 256.582 430.78 258.752 428 260.562C404.43 266.752 381.43 274.752 359 284.562C351.55 294.042 341.72 299.202 329.5 300.062C294.68 298.782 259.85 297.782 225 297.062Z" fill="#2044B1"/>
<path fill-rule="evenodd" clip-rule="evenodd" d="M119.999 186.061C109.369 213.461 105.199 241.801 107.499 271.061C109.489 277.371 111.329 283.711 112.999 290.061C109.929 290.381 106.929 290.041 103.999 289.061C102.079 283.221 100.919 277.221 100.499 271.061C97.429 241.881 101.589 213.881 112.999 187.061C115.239 186.091 117.579 185.751 119.999 186.061Z" fill="#204CD0"/>
<path fill-rule="evenodd" clip-rule="evenodd" d="M87.9996 186.061C94.3696 185.731 100.7 186.061 107 187.061C94.1696 219.631 91.1696 253.131 97.9996 287.561C97.7696 289.291 96.7696 290.131 94.9996 290.061C81.9096 289.471 73.7396 282.801 70.4996 270.061C68.3896 242.571 72.2196 215.901 81.9996 190.061C84.0696 188.701 86.0696 187.371 87.9996 186.061Z" fill="#4169E1"/>
<path fill-rule="evenodd" clip-rule="evenodd" d="M120 186.061C124.86 185.741 129.53 186.071 134 187.061C132.66 188.571 131.5 190.241 130.5 192.061C130.06 198.821 130.39 205.481 131.5 212.061C126.76 217.631 124.43 223.961 124.5 231.061C125.6 233.321 126.44 235.651 127 238.061C125.27 242.761 123.6 247.421 122 252.061C122.86 256.241 124.19 260.241 126 264.061C121.41 271.971 122.24 279.311 128.5 286.061C128.99 287.351 129.16 288.691 129 290.061C123.67 290.061 118.33 290.061 113 290.061C111.33 283.711 109.49 277.371 107.5 271.061C105.2 241.801 109.37 213.461 120 186.061Z" fill="#010105"/>
<path fill-rule="evenodd" clip-rule="evenodd" d="M134 187.062C136.24 186.772 138.24 187.102 140 188.062C137.72 190.802 136.38 193.962 136 197.562C137.67 202.622 138.17 207.782 137.5 213.062C134.47 217.792 131.97 222.792 130 228.062C130.93 230.172 132.1 232.172 133.5 234.062C134.17 236.392 134.17 238.732 133.5 241.062C131.65 244.762 129.82 248.432 128 252.062C128.64 254.672 129.8 257.002 131.5 259.062C132.57 264.712 131.74 270.042 129 275.062C130.56 278.522 132.4 281.852 134.5 285.062C134.99 286.692 135.16 288.362 135 290.062C133 290.062 131 290.062 129 290.062C129.16 288.692 128.99 287.352 128.5 286.062C122.24 279.312 121.41 271.972 126 264.062C124.19 260.242 122.86 256.242 122 252.062C123.6 247.422 125.27 242.762 127 238.062C126.44 235.652 125.6 233.322 124.5 231.062C124.43 223.962 126.76 217.632 131.5 212.062C130.39 205.482 130.06 198.822 130.5 192.062C131.5 190.242 132.66 188.572 134 187.062Z" fill="#204CD0"/>
<path fill-rule="evenodd" clip-rule="evenodd" d="M155 190.062C150.34 208.172 146.51 226.512 143.5 245.062C142.16 260.292 143.33 275.292 147 290.062C143 290.062 139 290.062 135 290.062C135.16 288.362 134.99 286.692 134.5 285.062C132.4 281.852 130.56 278.522 129 275.062C131.74 270.042 132.57 264.712 131.5 259.062C129.8 257.002 128.64 254.672 128 252.062C129.82 248.432 131.65 244.762 133.5 241.062C134.17 238.732 134.17 236.392 133.5 234.062C132.1 232.172 130.93 230.172 130 228.062C131.97 222.792 134.47 217.792 137.5 213.062C138.17 207.782 137.67 202.622 136 197.562C136.38 193.962 137.72 190.802 140 188.062C140.62 187.952 141.12 187.622 141.5 187.062C146.2 187.572 150.7 188.572 155 190.062Z" fill="#010104"/>
<path fill-rule="evenodd" clip-rule="evenodd" d="M283 190.062C276.36 200.702 272.53 212.362 271.5 225.062C268.48 242.622 267.48 260.282 268.5 278.062C269.4 282.392 270.23 286.732 271 291.062C268.58 292.372 265.75 293.042 262.5 293.062C223.94 291.912 185.44 290.912 147 290.062C143.33 275.292 142.16 260.292 143.5 245.062C146.51 226.512 150.34 208.172 155 190.062C197.6 189.162 240.26 189.162 283 190.062Z" fill="#204BCF"/>
<path fill-rule="evenodd" clip-rule="evenodd" d="M283 190.062C286.33 190.062 289.67 190.062 293 190.062C293.28 195.242 294.12 200.242 295.5 205.062C292.23 206.672 289.23 208.672 286.5 211.062C285.58 212.592 285.08 214.262 285 216.062C286.2 220.802 288.2 225.132 291 229.062C288.66 233.052 285.83 236.712 282.5 240.062C281.71 243.192 282.04 246.192 283.5 249.062C285.58 250.642 287.08 252.642 288 255.062C286.55 257.382 284.72 259.382 282.5 261.062C280.24 264.682 280.58 268.022 283.5 271.062C286.71 273.422 288.88 276.422 290 280.062C289.52 283.382 287.68 285.722 284.5 287.062C284.01 288.692 283.84 290.362 284 292.062C282.2 292.722 280.2 293.062 278 293.062C275.39 292.922 273.05 292.252 271 291.062C270.23 286.732 269.4 282.392 268.5 278.062C267.48 260.282 268.48 242.622 271.5 225.062C272.53 212.362 276.36 200.702 283 190.062Z" fill="#000103"/>
<path fill-rule="evenodd" clip-rule="evenodd" d="M293 190.062C295.33 190.062 297.67 190.062 300 190.062C299.73 191.662 300.07 192.992 301 194.062C301.45 196.952 302.45 199.622 304 202.062C302.82 207.512 299.49 211.012 294 212.562C293.42 213.452 293.09 214.452 293 215.562C294.73 220.142 296.73 224.642 299 229.062C298.45 231.172 297.61 233.172 296.5 235.062C293.52 237.692 291.02 240.692 289 244.062C294.16 248.372 295.83 253.702 294 260.062C291.58 261.482 289.91 263.482 289 266.062C290.9 269.472 293.4 272.472 296.5 275.062C298.51 281.712 296.67 286.882 291 290.562C291.56 290.942 291.89 291.442 292 292.062C289.44 293.332 286.77 293.332 284 292.062C283.84 290.362 284.01 288.692 284.5 287.062C287.68 285.722 289.52 283.382 290 280.062C288.88 276.422 286.71 273.422 283.5 271.062C280.58 268.022 280.24 264.682 282.5 261.062C284.72 259.382 286.55 257.382 288 255.062C287.08 252.642 285.58 250.642 283.5 249.062C282.04 246.192 281.71 243.192 282.5 240.062C285.83 236.712 288.66 233.052 291 229.062C288.2 225.132 286.2 220.802 285 216.062C285.08 214.262 285.58 212.592 286.5 211.062C289.23 208.672 292.23 206.672 295.5 205.062C294.12 200.242 293.28 195.242 293 190.062Z" fill="#204CCF"/>
<path fill-rule="evenodd" clip-rule="evenodd" d="M317 191.061C306.22 224.391 303.22 258.391 308 293.061C302.57 293.341 297.24 293.011 292 292.061C291.89 291.441 291.56 290.941 291 290.561C296.67 286.881 298.51 281.711 296.5 275.061C293.4 272.471 290.9 269.471 289 266.061C289.91 263.481 291.58 261.481 294 260.061C295.83 253.701 294.16 248.371 289 244.061C291.02 240.691 293.52 237.691 296.5 235.061C297.61 233.171 298.45 231.171 299 229.061C296.73 224.641 294.73 220.141 293 215.561C293.09 214.451 293.42 213.451 294 212.561C299.49 211.011 302.82 207.511 304 202.061C302.45 199.621 301.45 196.951 301 194.061C301 192.731 301 191.391 301 190.061C306.53 189.741 311.86 190.071 317 191.061Z" fill="#010104"/>
<path fill-rule="evenodd" clip-rule="evenodd" d="M307.999 293.061C303.219 258.391 306.219 224.391 316.999 191.061C320.229 190.151 323.559 189.811 326.999 190.061C324.059 206.701 321.229 223.371 318.499 240.061C317.829 254.731 317.829 269.391 318.499 284.061C319.399 287.051 320.229 290.051 320.999 293.061C316.499 293.531 312.169 293.531 307.999 293.061Z" fill="#1F4BCF"/>
<path fill-rule="evenodd" clip-rule="evenodd" d="M334 190.061C340.12 189.841 345.79 191.341 351 194.561C352.85 196.581 354.18 198.921 355 201.561C343.36 228.831 342.02 256.661 351 285.061C344.72 291.541 337.06 294.381 328 293.561C327.17 292.731 326.33 291.891 325.5 291.061C320.52 256.651 323.35 222.981 334 190.061Z" fill="#4068E0"/>
<path fill-rule="evenodd" clip-rule="evenodd" d="M360.001 204.062C384.851 215.402 408.021 229.402 429.501 246.062C430.171 248.062 430.171 250.062 429.501 252.062C426.231 254.272 422.731 256.102 419.001 257.562C397.381 263.382 376.381 270.882 356.001 280.062C350.431 266.992 348.601 253.322 350.501 239.062C351.351 226.712 354.521 215.042 360.001 204.062Z" fill="#4169E1"/>
<path fill-rule="evenodd" clip-rule="evenodd" d="M249 237.062C253.92 251.872 248.76 261.542 233.5 266.062C227.9 268.372 222.07 269.542 216 269.562C206 270.232 196 270.232 186 269.562C175.62 267.462 166.79 262.622 159.5 255.062C157.51 251.312 156.68 247.312 157 243.062C160.7 243.652 163.86 242.322 166.5 239.062C165.84 245.872 168 251.712 173 256.562C183.81 260.242 191.31 256.742 195.5 246.062C196.17 244.062 196.17 242.062 195.5 240.062C193.64 237.672 192.31 235.012 191.5 232.062C186.68 228.292 181.18 226.792 175 227.562C169.35 229.382 164.35 232.212 160 236.062C163.54 230.032 168.54 225.532 175 222.562C194.55 215.642 214.22 215.302 234 221.562C241.24 224.632 246.24 229.802 249 237.062Z" fill="#F9FAFB"/>
<path fill-rule="evenodd" clip-rule="evenodd" d="M249.001 237.061C245.411 239.781 241.911 239.451 238.501 236.061C238.511 242.041 236.851 247.711 233.501 253.061C226.101 258.551 218.931 258.221 212.001 252.061C206.651 229.241 214.981 221.741 237.001 229.561C241.201 231.821 245.201 234.321 249.001 237.061Z" fill="#080808"/>
<path fill-rule="evenodd" clip-rule="evenodd" d="M157 243.061C156.68 240.081 157.68 237.751 160 236.061C164.35 232.211 169.35 229.381 175 227.561C181.18 226.791 186.68 228.291 191.5 232.061C192.31 235.011 193.64 237.671 195.5 240.061C196.17 242.061 196.17 244.061 195.5 246.061C191.31 256.741 183.81 260.241 173 256.561C168 251.711 165.84 245.871 166.5 239.061C163.86 242.321 160.7 243.651 157 243.061Z" fill="#0A0A0A"/>
<path fill-rule="evenodd" clip-rule="evenodd" d="M218 230.062C223.99 231.172 225.49 234.502 222.5 240.062C218 243.072 214.83 241.912 213 236.562C213.78 233.622 215.45 231.462 218 230.062Z" fill="#EAEAEA"/>
<path fill-rule="evenodd" clip-rule="evenodd" d="M183 233.062C190.13 233.662 191.63 237.002 187.5 243.062C183.47 245.752 180.97 244.592 180 239.562C180.34 237.052 181.34 234.882 183 233.062Z" fill="#F7F7F7"/>
<path fill-rule="evenodd" clip-rule="evenodd" d="M210 259.062C211.33 259.062 212.67 259.062 214 259.062C213.76 262.702 212.1 265.532 209 267.562C205.24 267.362 201.57 266.532 198 265.062C197.83 263.742 198.16 262.572 199 261.562C201.41 261.412 203.74 261.912 206 263.062C208.35 262.712 209.68 261.382 210 259.062Z" fill="#0E0E0E"/>
<path fill-rule="evenodd" clip-rule="evenodd" d="M180.001 296.062C182.331 296.062 184.671 296.062 187.001 296.062C187.561 303.062 187.731 310.062 187.501 317.062C183.691 319.652 179.521 320.492 175.001 319.562C172.331 317.562 172.331 315.562 175.001 313.562C176.671 312.732 178.331 311.892 180.001 311.062C180.601 306.112 180.601 301.112 180.001 296.062Z" fill="#040609"/>
<path fill-rule="evenodd" clip-rule="evenodd" d="M219 297.062C221 297.062 223 297.062 225 297.062C225.3 301.662 224.97 306.162 224 310.562C234.18 312.372 234.52 314.872 225 318.062C222.18 318.442 220.01 317.442 218.5 315.062C217.71 308.982 217.88 302.982 219 297.062Z" fill="#0B0F14"/>
</svg>
