<svg width="500" height="500" viewBox="0 0 500 500" fill="none" xmlns="http://www.w3.org/2000/svg">
<path fill-rule="evenodd" clip-rule="evenodd" d="M345 226.061C341.01 224.721 337.67 225.721 335 229.061C335.01 203.811 334.85 178.471 334.5 153.061C335.76 135.441 331.43 119.441 321.5 105.061C316.06 103.321 310.56 101.491 305 99.5612C293.67 98.6612 282.34 97.8312 271 97.0612C246.01 98.4712 221.01 99.6312 196 100.561C188.86 102.131 182.2 104.801 176 108.561C174.38 110.641 172.88 112.811 171.5 115.061C170.42 120.461 169.09 125.791 167.5 131.061C166.83 173.391 166.83 215.731 167.5 258.061C172.8 283.621 181.46 307.961 193.5 331.061C196.9 336.141 199.9 341.471 202.5 347.061C206.97 352.531 211.8 357.691 217 362.561C239.32 363.881 261.65 364.211 284 363.561C287.85 363.231 291.35 362.061 294.5 360.061C300.25 350.891 306.25 341.891 312.5 333.061C317.83 323.731 323.17 314.391 328.5 305.061C331.05 300.631 333.05 295.961 334.5 291.061C335 271.061 335.17 251.061 335 231.061C339.39 235.491 343.05 240.491 346 246.061C346 258.391 346 270.731 346 283.061C343.7 285.861 341.2 288.521 338.5 291.061C336.06 296.461 336.56 301.461 340 306.061C334.86 315.011 329.69 324.011 324.5 333.061C320.14 340.471 315.3 347.471 310 354.061C307.76 358.311 305.1 362.311 302 366.061C299.92 367.641 297.92 369.471 296 371.561C294.41 372.421 292.75 373.091 291 373.561C265.99 374.061 240.99 374.391 216 374.561C212.52 372.571 209.18 370.401 206 368.061C201.91 363.471 198.41 358.471 195.5 353.061C195 361.051 194.83 369.051 195 377.061C194.17 368.901 193.67 360.571 193.5 352.061C183.08 335.891 174.25 318.891 167 301.061C167.55 294.701 165.55 289.371 161 285.061C157.77 271.781 155.77 258.451 155 245.061C158.3 241.281 160.97 237.121 163 232.561C162.1 228.821 159.76 226.651 156 226.061C156.87 194.731 157.04 163.401 156.5 132.061C158.21 121.141 161.54 110.811 166.5 101.061C174.1 94.2912 182.94 89.7912 193 87.5612C219.83 85.6112 246.66 84.4412 273.5 84.0612C289.3 83.6512 304.8 85.4812 320 89.5612C326.81 92.3712 331.64 97.2012 334.5 104.061C340.63 115.261 343.97 127.261 344.5 140.061C345 168.721 345.17 197.391 345 226.061Z" fill="#2D2C2D"/>
<path fill-rule="evenodd" clip-rule="evenodd" d="M335.001 229.062C335.001 229.732 335.001 230.392 335.001 231.062C335.171 251.062 335.001 271.062 334.501 291.062C333.051 295.962 331.051 300.632 328.501 305.062C323.171 314.392 317.831 323.732 312.501 333.062C306.251 341.892 300.251 350.892 294.501 360.062C291.351 362.062 287.851 363.232 284.001 363.562C261.651 364.212 239.321 363.882 217.001 362.562C211.801 357.692 206.971 352.532 202.501 347.062C199.901 341.472 196.901 336.142 193.501 331.062C181.461 307.962 172.801 283.622 167.501 258.062C166.831 215.732 166.831 173.392 167.501 131.062C169.091 125.792 170.421 120.462 171.501 115.062C172.881 112.812 174.381 110.642 176.001 108.562C182.201 104.802 188.861 102.132 196.001 100.562C221.011 99.6316 246.011 98.4716 271.001 97.0616C282.341 97.8316 293.671 98.6616 305.001 99.5616C310.561 101.492 316.061 103.322 321.501 105.062C331.431 119.442 335.761 135.442 334.501 153.062C334.851 178.472 335.011 203.812 335.001 229.062Z" fill="#484848"/>
<path fill-rule="evenodd" clip-rule="evenodd" d="M187.999 112.062C197.829 110.672 202.169 115.002 200.999 125.062C202.889 124.862 204.389 125.522 205.499 127.062C206.239 133.122 205.909 139.122 204.499 145.062C200.199 147.882 195.529 149.882 190.499 151.062C186.449 149.372 182.449 147.372 178.499 145.062C177.999 139.072 177.829 133.072 177.999 127.062C179.319 127.232 180.489 126.902 181.499 126.062C180.829 119.942 182.999 115.282 187.999 112.062Z" fill="#343434"/>
<path fill-rule="evenodd" clip-rule="evenodd" d="M235.999 117.062C239.939 116.772 243.769 117.102 247.499 118.062C248.219 119.672 248.049 121.172 246.999 122.562C244.349 123.062 241.689 123.222 238.999 123.062C238.999 124.732 238.999 126.392 238.999 128.062C241.359 127.902 243.689 128.062 245.999 128.562C247.329 129.892 247.329 131.232 245.999 132.562C243.349 133.062 240.689 133.222 237.999 133.062C237.999 134.732 237.999 136.392 237.999 138.062C241.329 138.062 244.669 138.062 247.999 138.062C247.999 140.062 247.999 142.062 247.999 144.062C243.329 144.062 238.669 144.062 233.999 144.062C232.939 136.432 232.769 128.762 233.499 121.062C234.159 119.582 234.999 118.242 235.999 117.062Z" fill="#2D2D2D"/>
<path fill-rule="evenodd" clip-rule="evenodd" d="M251 117.062C256.34 116.892 261.68 117.062 267 117.562C268.32 121.102 266.98 122.932 263 123.062C263.17 129.732 263 136.402 262.5 143.062C260.77 145.162 258.77 145.492 256.5 144.062C256 137.072 255.83 130.072 256 123.062C250.57 123.982 248.91 121.982 251 117.062Z" fill="#2D2D2D"/>
<path fill-rule="evenodd" clip-rule="evenodd" d="M289.001 116.061C292.631 115.721 295.961 116.551 299.001 118.561C302.451 124.691 300.781 129.021 294.001 131.561C297.151 135.041 299.311 138.871 300.501 143.061C299.451 144.081 298.281 144.241 297.001 143.561C294.951 140.971 292.781 138.471 290.501 136.061C290.001 138.711 289.841 141.371 290.001 144.061C288.111 144.261 286.611 143.601 285.501 142.061C284.831 134.391 284.831 126.731 285.501 119.061C286.651 117.921 287.811 116.921 289.001 116.061Z" fill="#2E2E2E"/>
<path fill-rule="evenodd" clip-rule="evenodd" d="M214 118.062C218.01 117.892 222.01 118.062 226 118.562C231.5 121.732 232.33 125.892 228.5 131.062C226.91 131.942 225.41 132.942 224 134.062C228.47 136.502 230.8 140.172 231 145.062C229.95 145.212 228.95 145.042 228 144.562C225.52 142.152 222.85 139.992 220 138.062C219.03 140.302 218.69 142.642 219 145.062C216.78 145.382 214.94 144.722 213.5 143.062C212.98 134.712 213.15 126.382 214 118.062Z" fill="#2F2F2F"/>
<path fill-rule="evenodd" clip-rule="evenodd" d="M272 117.062C274.62 116.792 277.12 117.122 279.5 118.062C280.67 125.892 281.83 133.732 283 141.562C283.06 144.502 281.73 145.502 279 144.562C277.63 142.262 276.97 139.762 277 137.062C275.33 137.062 273.67 137.062 272 137.062C273.41 142.492 271.41 144.822 266 144.062C266.58 134.732 268.58 125.732 272 117.062Z" fill="#2D2D2D"/>
<path fill-rule="evenodd" clip-rule="evenodd" d="M219 156.062C240.51 156.812 262.01 156.812 283.5 156.062C292.02 156.252 300.52 156.752 309 157.562C314.07 158.972 317.57 162.132 319.5 167.062C321.15 172.942 322.15 178.942 322.5 185.062C323.17 198.732 323.17 212.392 322.5 226.062C322.39 237.172 316.89 243.672 306 245.562C272.51 245.492 239.01 246.322 205.5 248.062C192.22 249.782 184.89 244.112 183.5 231.062C182.66 211.062 182.32 191.062 182.5 171.062C183.08 165.382 185.58 160.882 190 157.562C199.84 157.392 209.51 156.892 219 156.062Z" fill="#2D2D2D"/>
<path fill-rule="evenodd" clip-rule="evenodd" d="M227 175.062C242 175.062 257 175.062 272 175.062C272 176.392 272 177.732 272 179.062C277.67 179.062 283.33 179.062 289 179.062C289 180.062 289 181.062 289 182.062C292.33 182.062 295.67 182.062 299 182.062C298.67 185.062 300 186.392 303 186.062C303 187.062 303 188.062 303 189.062C304.33 189.062 305.67 189.062 307 189.062C307 190.062 307 191.062 307 192.062C308 192.062 309 192.062 310 192.062C310 200.392 310 208.732 310 217.062C309 217.062 308 217.062 307 217.062C307 218.062 307 219.062 307 220.062C305.67 220.062 304.33 220.062 303 220.062C303 221.062 303 222.062 303 223.062C300.67 223.062 298.33 223.062 296 223.062C296 224.392 296 225.732 296 227.062C289 227.062 282 227.062 275 227.062C275 228.062 275 229.062 275 230.062C255.67 230.062 236.33 230.062 217 230.062C217 229.062 217 228.062 217 227.062C213.33 227.062 209.67 227.062 206 227.062C206 225.732 206 224.392 206 223.062C205 223.062 204 223.062 203 223.062C203 222.062 203 221.062 203 220.062C202 220.062 201 220.062 200 220.062C200 219.062 200 218.062 200 217.062C198.67 217.062 197.33 217.062 196 217.062C196 214.732 196 212.392 196 210.062C195 210.062 194 210.062 193 210.062C193 206.392 193 202.732 193 199.062C194 199.062 195 199.062 196 199.062C196 196.732 196 194.392 196 192.062C197.33 192.062 198.67 192.062 200 192.062C200 191.062 200 190.062 200 189.062C201 189.062 202 189.062 203 189.062C203 187.732 203 186.392 203 185.062C205.33 185.062 207.67 185.062 210 185.062C210 184.062 210 183.062 210 182.062C211 182.062 212 182.062 213 182.062C213 181.062 213 180.062 213 179.062C217.67 179.062 222.33 179.062 227 179.062C227 177.732 227 176.392 227 175.062Z" fill="#F9F9F9"/>
<path fill-rule="evenodd" clip-rule="evenodd" d="M268 184.062C274 184.062 280 184.062 286 184.062C286 185.062 286 186.062 286 187.062C290.92 187.232 295.26 188.902 299 192.062C295.57 195.442 291.9 195.772 288 193.062C287.33 193.392 286.67 193.732 286 194.062C286.99 195.032 287.66 196.192 288 197.562C285.94 212.212 277.94 217.382 264 213.062C261.47 210.542 259.47 207.702 258 204.562C258.7 198.692 259.7 192.852 261 187.062C263.5 186.302 265.84 185.302 268 184.062Z" fill="#080808"/>
<path fill-rule="evenodd" clip-rule="evenodd" d="M222 185.062C227.88 184.432 233.21 185.762 238 189.062C241.28 195.652 242.61 202.652 242 210.062C238.48 211.562 235.48 213.902 233 217.062C228.72 218.052 224.38 218.392 220 218.062C220 217.062 220 216.062 220 215.062C218.01 215.232 216.34 214.562 215 213.062C213.92 208.522 212.25 204.182 210 200.062C207.38 203.362 204.05 205.362 200 206.062C200 204.732 200 203.392 200 202.062C201 202.062 202 202.062 203 202.062C203.72 198.322 205.72 195.322 209 193.062C212.95 189.592 217.28 186.932 222 185.062Z" fill="#0B0B0B"/>
<path fill-rule="evenodd" clip-rule="evenodd" d="M265 189.062C266.67 189.062 268.33 189.062 270 189.062C271.01 192.092 271.01 195.092 270 198.062C268.66 199.562 266.99 200.232 265 200.062C264.37 198.102 263.7 196.102 263 194.062C263.49 192.262 264.15 190.592 265 189.062Z" fill="#EBEBEB"/>
<path fill-rule="evenodd" clip-rule="evenodd" d="M227.999 191.062C230.669 191.732 233.329 192.392 235.999 193.062C236.829 200.232 233.829 203.232 226.999 202.062C225.549 198.192 225.889 194.532 227.999 191.062Z" fill="#F1F1F1"/>
<path fill-rule="evenodd" clip-rule="evenodd" d="M259 218.062C260.33 218.062 261.67 218.062 263 218.062C263.34 220.702 262.67 223.042 261 225.062C257.31 227.322 253.31 228.322 249 228.062C248.05 225.822 247.38 223.492 247 221.062C248.33 221.062 249.67 221.062 251 221.062C251 222.062 251 223.062 251 224.062C255.95 224.882 258.61 222.882 259 218.062Z" fill="#101010"/>
<path fill-rule="evenodd" clip-rule="evenodd" d="M345 226.062C354.89 236.822 363.05 248.822 369.5 262.062C371.43 266.752 371.43 271.422 369.5 276.062C363.01 283.512 356.18 290.682 349 297.562C351.88 298.692 354.88 299.352 358 299.562C360.46 303.042 359.8 306.042 356 308.562C350.16 310.862 344.82 310.032 340 306.062C336.56 301.462 336.06 296.462 338.5 291.062C341.2 288.522 343.7 285.862 346 283.062C351.18 278.722 355.84 273.882 360 268.562C355.94 260.592 351.27 253.092 346 246.062C343.05 240.492 339.39 235.492 335 231.062C335 230.392 335 229.732 335 229.062C337.67 225.722 341.01 224.722 345 226.062Z" fill="#050300"/>
<path fill-rule="evenodd" clip-rule="evenodd" d="M156 226.062C159.76 226.652 162.1 228.822 163 232.562C160.97 237.122 158.3 241.282 155 245.062C149.76 253.032 145.43 261.532 142 270.562C142.6 272.172 143.6 273.502 145 274.562C150.49 277.892 155.82 281.392 161 285.062C165.55 289.372 167.55 294.702 167 301.062C163.55 307.292 158.22 310.122 151 309.562C148.29 307.702 147.46 305.202 148.5 302.062C150.64 299.922 152.81 297.752 155 295.562C146.55 290.922 138.72 285.422 131.5 279.062C129.96 277.352 129.12 275.352 129 273.062C130 268.232 131.5 263.572 133.5 259.062C140.53 247.652 148.03 236.652 156 226.062Z" fill="#060300"/>
<path fill-rule="evenodd" clip-rule="evenodd" d="M195.999 257.061C211.689 256.841 227.359 257.341 242.999 258.561C243.499 259.061 243.999 259.561 244.499 260.061C245.169 269.061 245.169 278.061 244.499 287.061C232.989 289.271 221.319 290.271 209.499 290.061C189.449 294.011 181.449 286.011 185.499 266.061C186.799 260.351 190.299 257.351 195.999 257.061Z" fill="#2C2C2C"/>
<path fill-rule="evenodd" clip-rule="evenodd" d="M261.999 258.062C277.999 257.892 293.999 258.062 309.999 258.562C319.339 263.082 322.169 270.252 318.499 280.062C317.529 284.892 314.689 287.732 309.999 288.562C295.369 290.102 280.699 290.432 265.999 289.562C263.829 288.732 262.329 287.232 261.499 285.062C260.999 279.062 260.499 273.062 259.999 267.062C259.849 263.822 260.509 260.822 261.999 258.062Z" fill="#2C2C2C"/>
<path fill-rule="evenodd" clip-rule="evenodd" d="M196.001 263.061C210.681 262.881 225.351 263.211 240.001 264.061C240.311 270.321 239.981 276.481 239.001 282.561C224.361 283.951 209.691 284.281 195.001 283.561C193.731 283.251 192.571 282.751 191.501 282.061C190.831 277.061 190.831 272.061 191.501 267.061C192.701 265.271 194.201 263.941 196.001 263.061Z" fill="#484848"/>
<path fill-rule="evenodd" clip-rule="evenodd" d="M266.001 264.062C280.001 263.892 294.001 264.062 308.001 264.562C313.591 267.012 315.421 271.182 313.501 277.062C313.231 278.892 312.391 280.392 311.001 281.562C308.121 282.692 305.121 283.352 302.001 283.562C290.331 284.232 278.671 284.232 267.001 283.562C266.021 277.152 265.691 270.652 266.001 264.062Z" fill="#484848"/>
<path fill-rule="evenodd" clip-rule="evenodd" d="M206 368.062C205.48 382.512 206.48 396.842 209 411.062C208.97 412.592 208.3 413.762 207 414.562C201.05 415.892 195.05 416.222 189 415.562C185.95 413.112 185.45 410.282 187.5 407.062C190.67 404.952 194.17 403.952 198 404.062C196.67 395.102 195.67 386.102 195 377.062C194.83 369.052 195 361.052 195.5 353.062C198.41 358.472 201.91 363.472 206 368.062Z" fill="#050200"/>
<path fill-rule="evenodd" clip-rule="evenodd" d="M310 354.062C313.32 370.562 315.32 387.222 316 404.062C319.56 403.972 322.89 404.802 326 406.562C329.15 413.282 326.81 416.452 319 416.062C314.81 416.132 310.97 415.132 307.5 413.062C306.18 397.332 304.35 381.662 302 366.062C305.1 362.312 307.76 358.312 310 354.062Z" fill="#070301"/>
</svg>
