<svg width="500" height="500" viewBox="0 0 500 500" fill="none" xmlns="http://www.w3.org/2000/svg">
<path fill-rule="evenodd" clip-rule="evenodd" d="M254 130.061C252.54 128.821 250.87 127.821 249 127.061C242.07 119.031 241.24 110.361 246.5 101.061C255.08 93.9814 264.08 93.3214 273.5 99.0614C282.13 112.351 279.3 122.521 265 129.561C261.35 130.061 257.68 130.231 254 130.061Z" fill="#F9C54D"/>
<path fill-rule="evenodd" clip-rule="evenodd" d="M255 101.061C267.88 98.7715 273.38 104.111 271.5 117.061C263.91 126.261 256.58 126.261 249.5 117.061C248.08 110.501 249.91 105.161 255 101.061Z" fill="#FEDE5D"/>
<path fill-rule="evenodd" clip-rule="evenodd" d="M248.001 150.062C258.131 152.322 267.471 156.322 276.001 162.062C296.661 175.682 307.821 195.012 309.501 220.062C309.981 247.472 302.981 272.812 288.501 296.062C276.831 307.982 262.991 316.482 247.001 321.562C218.131 328.832 189.801 327.332 162.001 317.062C156.451 313.852 151.451 309.852 147.001 305.062C144.941 301.212 143.271 297.212 142.001 293.062C142.071 291.602 141.731 290.272 141.001 289.062C139.581 280.062 138.081 271.062 136.501 262.062C135.761 251.372 135.931 240.702 137.001 230.062C137.821 227.792 138.491 225.452 139.001 223.062C147.801 201.072 161.471 182.572 180.001 167.562C200.851 154.892 223.521 149.062 248.001 150.062Z" fill="#6B2C1B"/>
<path fill-rule="evenodd" clip-rule="evenodd" d="M248.999 127.062C250.869 127.822 252.539 128.822 253.999 130.062C251.249 136.682 251.589 143.182 254.999 149.562C265.219 152.142 275.389 154.972 285.499 158.062C299.059 164.852 311.059 173.852 321.499 185.062C323.199 188.482 325.369 191.482 327.999 194.062C329.249 195.562 330.249 197.232 330.999 199.062C335.329 207.392 338.659 216.052 340.999 225.062C338.999 225.062 336.999 225.062 334.999 225.062C325.809 194.542 306.479 173.212 276.999 161.062C276.389 161.182 276.059 161.522 275.999 162.062C267.469 156.322 258.129 152.322 247.999 150.062C246.269 144.172 245.769 138.172 246.499 132.062C246.869 130.112 247.699 128.442 248.999 127.062Z" fill="#C4C4C3"/>
<path fill-rule="evenodd" clip-rule="evenodd" d="M304.001 231.062C298.331 219.572 289.331 211.732 277.001 207.562C265.741 204.842 254.411 202.512 243.001 200.562C231.671 199.892 220.331 199.892 209.001 200.562C196.801 204.662 185.471 210.332 175.001 217.562C165.981 226.442 159.641 236.942 156.001 249.062C155.851 245.602 155.691 241.942 155.501 238.062C155.231 233.112 152.731 231.282 148.001 232.562C145.051 235.632 143.051 239.132 142.001 243.062C141.851 232.992 144.181 223.662 149.001 215.062C148.831 218.412 149.001 221.742 149.501 225.062C151.311 226.962 153.471 227.462 156.001 226.562C165.101 212.772 175.771 200.112 188.001 188.562C197.111 181.672 207.111 176.342 218.001 172.562C222.231 168.722 221.901 165.382 217.001 162.562C214.021 162.062 211.021 161.902 208.001 162.062C222.731 156.522 238.061 154.682 254.001 156.562C287.541 169.952 304.201 194.792 304.001 231.062Z" fill="#372955"/>
<path fill-rule="evenodd" clip-rule="evenodd" d="M207.999 162.062C211.019 161.902 214.019 162.062 216.999 162.562C221.899 165.382 222.229 168.722 217.999 172.562C207.109 176.342 197.109 181.672 187.999 188.562C175.769 200.112 165.099 212.772 155.999 226.562C153.469 227.462 151.309 226.962 149.499 225.062C148.999 221.742 148.829 218.412 148.999 215.062C154.369 203.502 161.369 193.002 169.999 183.562C177.329 178.232 184.669 172.892 191.999 167.562C197.059 164.862 202.399 163.022 207.999 162.062Z" fill="#645A7C"/>
<path fill-rule="evenodd" clip-rule="evenodd" d="M276 162.062C276.06 161.522 276.39 161.182 277 161.062C306.48 173.212 325.81 194.542 335 225.062C330.74 224.162 328.24 225.822 327.5 230.062C330.94 253.722 326.78 275.892 315 296.562C315.49 298.542 316.49 300.212 318 301.562C322.11 303.762 326.44 305.262 331 306.062C326.84 310.392 322.84 314.892 319 319.562C314.08 323.272 309.24 327.112 304.5 331.062C302.55 326.142 299.88 321.802 296.5 318.062C293.78 318.772 292.78 320.442 293.5 323.062C301.55 337.712 306.72 353.382 309 370.062C306.39 370.932 303.72 371.602 301 372.062C298.07 356.772 293.07 342.272 286 328.562C283.58 327.572 281.91 328.242 281 330.562C282.47 333.672 283.81 336.842 285 340.062C284.68 341.212 284.02 342.042 283 342.562C268.35 348.522 253.35 351.692 238 352.062C242.7 350.292 246.87 347.622 250.5 344.062C253.57 337.542 251.74 333.212 245 331.062C229.46 334.632 213.79 336.462 198 336.562C194.15 337.962 193.15 340.462 195 344.062C181.63 337.872 170.29 329.042 161 317.562C161.23 317.162 161.56 316.992 162 317.062C189.8 327.332 218.13 328.832 247 321.562C262.99 316.482 276.83 307.982 288.5 296.062C302.98 272.812 309.98 247.472 309.5 220.062C307.82 195.012 296.66 175.682 276 162.062Z" fill="#FDFDFD"/>
<path fill-rule="evenodd" clip-rule="evenodd" d="M236 160.061C243.17 159.571 250.17 160.401 257 162.561C259.7 166.091 259.37 169.431 256 172.561C250.1 173.091 244.26 172.591 238.5 171.061C231.45 173.661 228.12 171.321 228.5 164.061C230.76 162.061 233.26 160.731 236 160.061Z" fill="#645A7C"/>
<path fill-rule="evenodd" clip-rule="evenodd" d="M375 247.061C375.07 247.501 374.9 247.831 374.5 248.061C372.31 246.021 369.81 244.691 367 244.061C364.77 231.911 359.94 220.571 352.5 210.061C348.63 205.711 344.13 202.211 339 199.561C336.35 199.061 333.69 198.901 331 199.061C330.25 197.231 329.25 195.561 328 194.061C333.01 192.681 338.01 192.851 343 194.561C354.38 201.621 362.55 211.451 367.5 224.061C370.91 231.441 373.41 239.111 375 247.061Z" fill="#F16640"/>
<path fill-rule="evenodd" clip-rule="evenodd" d="M304.001 231.061C303.061 239.331 301.401 247.331 299.001 255.061C292.241 252.521 285.581 249.681 279.001 246.561C262.681 242.481 252.181 248.651 247.501 265.061C246.231 273.721 247.231 282.051 250.501 290.061C258.151 296.561 266.991 299.561 277.001 299.061C259.751 312.421 240.081 319.591 218.001 320.561C200.241 322.041 183.241 319.211 167.001 312.061C165.691 309.741 164.361 307.411 163.001 305.061C169.381 308.091 175.381 307.591 181.001 303.561C184.381 300.081 185.721 295.911 185.001 291.061C205.001 294.231 217.671 286.061 223.001 266.561C220.691 259.771 218.521 252.931 216.501 246.061C211.831 241.811 206.331 239.311 200.001 238.561C182.801 236.401 168.301 241.571 156.501 254.061C156.011 255.691 155.841 257.361 156.001 259.061C155.051 257.641 154.721 255.971 155.001 254.061C155.001 252.731 155.001 251.391 155.001 250.061C155.671 250.061 156.001 249.731 156.001 249.061C159.641 236.941 165.981 226.441 175.001 217.561C185.471 210.331 196.801 204.661 209.001 200.561C220.331 199.891 231.671 199.891 243.001 200.561C254.411 202.511 265.741 204.841 277.001 207.561C289.331 211.731 298.331 219.571 304.001 231.061Z" fill="#FADBD3"/>
<path fill-rule="evenodd" clip-rule="evenodd" d="M139.001 223.061C138.491 225.451 137.821 227.791 137.001 230.061C135.131 230.421 133.631 231.421 132.501 233.061C131.301 235.651 130.301 238.321 129.501 241.061C128.831 250.391 128.831 259.731 129.501 269.061C129.951 274.321 131.281 279.321 133.501 284.061C135.361 286.761 137.861 288.431 141.001 289.061C141.731 290.271 142.071 291.601 142.001 293.061C141.711 294.211 140.881 294.881 139.501 295.061C131.241 291.801 126.241 285.801 124.501 277.061C121.771 264.791 121.441 252.451 123.501 240.061C124.771 232.651 128.611 227.151 135.001 223.561C136.291 223.071 137.631 222.901 139.001 223.061Z" fill="#2491FB"/>
<path fill-rule="evenodd" clip-rule="evenodd" d="M335 225.061C337 225.061 339 225.061 341 225.061C345.9 225.811 350.73 227.151 355.5 229.061C360.39 236.651 362.22 244.991 361 254.061C361.79 273.221 357.13 290.881 347 307.061C344.41 308.041 341.75 308.371 339 308.061C336.5 307.191 333.83 306.521 331 306.061C326.44 305.261 322.11 303.761 318 301.561C316.49 300.211 315.49 298.541 315 296.561C326.78 275.891 330.94 253.721 327.5 230.061C328.24 225.821 330.74 224.161 335 225.061Z" fill="#2A91FC"/>
<path fill-rule="evenodd" clip-rule="evenodd" d="M137.001 230.062C135.931 240.702 135.761 251.372 136.501 262.062C138.081 271.062 139.581 280.062 141.001 289.062C137.861 288.432 135.361 286.762 133.501 284.062C131.281 279.322 129.951 274.322 129.501 269.062C128.831 259.732 128.831 250.392 129.501 241.062C130.301 238.322 131.301 235.652 132.501 233.062C133.631 231.422 135.131 230.422 137.001 230.062Z" fill="#60A9E6"/>
<path fill-rule="evenodd" clip-rule="evenodd" d="M156 249.061C156 249.731 155.67 250.061 155 250.061C153.72 251.681 152.39 253.351 151 255.061C146.95 256.921 143.95 255.921 142 252.061C142 249.061 142 246.061 142 243.061C143.05 239.131 145.05 235.631 148 232.561C152.73 231.281 155.23 233.111 155.5 238.061C155.69 241.941 155.85 245.601 156 249.061Z" fill="#63597C"/>
<path fill-rule="evenodd" clip-rule="evenodd" d="M333 231.062C339.02 231.702 345.02 232.532 351 233.562C353.15 236.352 354.31 239.522 354.5 243.062C357.18 263.682 353.51 283.012 343.5 301.062C337.62 301.482 331.79 300.652 326 298.562C324.32 298.212 323.32 297.212 323 295.562C333.16 275.162 336.49 253.662 333 231.062Z" fill="#5FA9E8"/>
<path fill-rule="evenodd" clip-rule="evenodd" d="M185 291.061C175.13 285.341 170.47 276.671 171 265.061C171.23 261.591 171.73 258.251 172.5 255.061C169.09 257.681 165.59 260.181 162 262.561C158.28 263.951 156.28 262.791 156 259.061C155.84 257.361 156.01 255.691 156.5 254.061C168.3 241.571 182.8 236.401 200 238.561C206.33 239.311 211.83 241.811 216.5 246.061C218.52 252.931 220.69 259.771 223 266.561C217.67 286.061 205 294.231 185 291.061Z" fill="#371710"/>
<path fill-rule="evenodd" clip-rule="evenodd" d="M367.001 244.062C369.811 244.692 372.311 246.022 374.501 248.062C374.901 247.832 375.071 247.502 375.001 247.062C385.121 255.022 393.291 264.692 399.501 276.062C400.491 279.522 401.331 283.022 402.001 286.562C401.011 288.882 399.351 290.552 397.001 291.562C392.061 292.832 387.061 293.662 382.001 294.062C382.271 295.662 381.931 296.992 381.001 298.062C381.001 296.732 381.001 295.392 381.001 294.062C379.281 293.932 377.621 293.602 376.001 293.062C371.951 292.162 368.121 290.832 364.501 289.062C363.831 274.392 363.831 259.732 364.501 245.062C365.171 244.312 366.001 243.972 367.001 244.062Z" fill="#4A4948"/>
<path fill-rule="evenodd" clip-rule="evenodd" d="M299 255.062C295.77 269.602 289.94 282.932 281.5 295.062C279.83 296.292 278.33 297.632 277 299.062C266.99 299.562 258.15 296.562 250.5 290.062C247.23 282.052 246.23 273.722 247.5 265.062C252.18 248.652 262.68 242.482 279 246.562C285.58 249.682 292.24 252.522 299 255.062Z" fill="#37170F"/>
<path fill-rule="evenodd" clip-rule="evenodd" d="M203 248.062C209.22 247.452 212.56 250.282 213 256.562C212.37 263.192 208.87 267.352 202.5 269.062C195.85 266.462 193.85 261.792 196.5 255.062C198.23 252.232 200.39 249.902 203 248.062Z" fill="#F7D9D1"/>
<path fill-rule="evenodd" clip-rule="evenodd" d="M263.001 252.062C266.791 251.372 269.951 252.372 272.501 255.062C272.791 259.512 272.121 263.842 270.501 268.062C267.591 270.952 264.091 271.792 260.001 270.562C255.681 267.522 254.181 263.362 255.501 258.062C257.661 255.442 260.161 253.442 263.001 252.062Z" fill="#F8D9D1"/>
<path fill-rule="evenodd" clip-rule="evenodd" d="M155 250.062C155 251.392 155 252.732 155 254.062C153.3 268.162 154.46 282.162 158.5 296.062C159.54 299.382 161.04 302.382 163 305.062C164.36 307.412 165.69 309.742 167 312.062C162.69 309.902 158.36 307.742 154 305.562C152.46 303.982 151.29 302.152 150.5 300.062C146.13 284.322 143.3 268.322 142 252.062C143.95 255.922 146.95 256.922 151 255.062C152.39 253.352 153.72 251.682 155 250.062Z" fill="#372855"/>
<path fill-rule="evenodd" clip-rule="evenodd" d="M371 253.062C380.43 259.652 387.93 267.992 393.5 278.062C394.58 280.622 395.08 283.292 395 286.062C386.66 289.052 378.49 288.712 370.5 285.062C370.07 274.392 370.23 263.722 371 253.062Z" fill="#C4C4C4"/>
<path fill-rule="evenodd" clip-rule="evenodd" d="M331 199.062C333.69 198.902 336.35 199.062 339 199.562C344.13 202.212 348.63 205.712 352.5 210.062C359.94 220.572 364.77 231.912 367 244.062C366 243.972 365.17 244.312 364.5 245.062C363.83 259.732 363.83 274.392 364.5 289.062C368.12 290.832 371.95 292.162 376 293.062C374.84 300.362 373.84 307.692 373 315.062C365.51 317.132 357.84 318.472 350 319.062C343.85 318.342 337.85 317.012 332 315.062C333.4 311.662 335.73 309.332 339 308.062C341.75 308.372 344.41 308.042 347 307.062C357.13 290.882 361.79 273.222 361 254.062C362.22 244.992 360.39 236.652 355.5 229.062C350.73 227.152 345.9 225.812 341 225.062C338.66 216.052 335.33 207.392 331 199.062Z" fill="#FC9036"/>
<path fill-rule="evenodd" clip-rule="evenodd" d="M155 254.062C154.72 255.972 155.05 257.642 156 259.062C156.28 262.792 158.28 263.952 162 262.562C165.59 260.182 169.09 257.682 172.5 255.062C171.73 258.252 171.23 261.592 171 265.062C170.47 276.672 175.13 285.342 185 291.062C185.72 295.912 184.38 300.082 181 303.562C175.38 307.592 169.38 308.092 163 305.062C161.04 302.382 159.54 299.382 158.5 296.062C154.46 282.162 153.3 268.162 155 254.062Z" fill="#F9C7BD"/>
<path fill-rule="evenodd" clip-rule="evenodd" d="M133 309.062C132.03 311.172 131.7 313.502 132 316.062C130.82 319.922 129.16 323.582 127 327.062C124.84 328.972 122.51 330.642 120 332.062C104.1 329.342 96.6001 320.012 97.5001 304.062C99.3101 299.912 102.48 297.912 107 298.062C105.93 293.022 107.6 289.182 112 286.562C121.87 283.752 126.37 287.592 125.5 298.062C127.83 301.882 130.33 305.552 133 309.062Z" fill="#2591FC"/>
<path fill-rule="evenodd" clip-rule="evenodd" d="M114 323.062C115.64 323.272 117.14 322.942 118.5 322.062C121.11 317.152 121.44 312.152 119.5 307.062C114.49 304.042 112.49 299.702 113.5 294.062C114.74 291.732 116.41 291.062 118.5 292.062C118.87 298.482 121.2 304.142 125.5 309.062C126.43 314.932 124.93 320.102 121 324.562C118.36 325.152 116.03 324.652 114 323.062Z" fill="#60AAE7"/>
<path fill-rule="evenodd" clip-rule="evenodd" d="M376 293.062C377.62 293.602 379.28 293.932 381 294.062C381 295.392 381 296.732 381 298.062C380.89 303.172 380.22 308.172 379 313.062C376.92 313.532 374.92 314.202 373 315.062C373.84 307.692 374.84 300.362 376 293.062Z" fill="#F26740"/>
<path fill-rule="evenodd" clip-rule="evenodd" d="M246 299.062C249.99 299.212 251.49 301.212 250.5 305.062C248 308.892 244.83 312.062 241 314.562C239.33 315.232 237.67 315.232 236 314.562C231.48 312.032 226.98 309.532 222.5 307.062C221.36 303.702 222.53 301.702 226 301.062C230.22 302.622 234.22 304.622 238 307.062C241.02 304.712 243.69 302.042 246 299.062Z" fill="#381913"/>
<path fill-rule="evenodd" clip-rule="evenodd" d="M113.999 323.061C104.869 319.641 101.869 313.471 104.999 304.561C106.329 303.891 107.669 303.891 108.999 304.561C110.119 306.681 111.619 308.521 113.499 310.061C113.559 314.491 113.719 318.831 113.999 323.061Z" fill="#60AAE7"/>
<path fill-rule="evenodd" clip-rule="evenodd" d="M330.999 306.062C333.829 306.522 336.499 307.192 338.999 308.062C335.729 309.332 333.399 311.662 331.999 315.062C330.349 316.042 329.019 317.372 327.999 319.062C332.779 321.452 337.779 323.282 342.999 324.562C352.459 325.012 361.799 324.352 370.999 322.562C369.669 325.892 368.329 329.232 366.999 332.562C349.949 338.212 333.449 337.042 317.499 329.062C315.829 329.912 314.329 330.912 312.999 332.062C310.849 333.712 308.849 335.542 306.999 337.562C308.939 343.542 310.939 349.372 312.999 355.062C312.999 355.732 312.999 356.392 312.999 357.062C313.799 361.042 314.459 365.042 314.999 369.062C312.879 368.892 310.879 369.222 308.999 370.062C306.719 353.382 301.549 337.712 293.499 323.062C292.779 320.442 293.779 318.772 296.499 318.062C299.879 321.802 302.549 326.142 304.499 331.062C309.239 327.112 314.079 323.272 318.999 319.562C322.839 314.892 326.839 310.392 330.999 306.062Z" fill="#C4C3C3"/>
<path fill-rule="evenodd" clip-rule="evenodd" d="M147 305.062C151.45 309.852 156.45 313.852 162 317.062C161.56 316.992 161.23 317.162 161 317.562C170.29 329.042 181.63 337.872 195 344.062C208.63 350.322 222.96 352.992 238 352.062C253.35 351.692 268.35 348.522 283 342.562C284.02 342.042 284.68 341.212 285 340.062C283.81 336.842 282.47 333.672 281 330.562C281.91 328.242 283.58 327.572 286 328.562C293.07 342.272 298.07 356.772 301 372.062C299.04 373.382 297.04 374.712 295 376.062C293.74 366.012 291.07 356.352 287 347.062C284.37 348.322 281.71 349.492 279 350.562C278.48 351.122 278.14 351.792 278 352.562C279.6 358.112 281.26 363.612 283 369.062C281 367.732 279 367.732 277 369.062C275.19 363.632 273.19 358.302 271 353.062C268.1 354.202 265.1 354.872 262 355.062C262.87 360.752 263.87 366.422 265 372.062C263.29 373.302 261.29 373.972 259 374.062C258.64 368.932 257.64 363.932 256 359.062C242 359.592 228 358.932 214 357.062C213.45 362.932 212.11 368.602 210 374.062C208.84 372.312 207.17 371.312 205 371.062C205.95 365.782 207.28 360.612 209 355.562C205.63 354.492 202.3 353.332 199 352.062C197.19 356.972 195.86 361.972 195 367.062C193.06 366.412 191.06 366.082 189 366.062C190.08 360.322 191.41 354.652 193 349.062C188.7 347.342 184.36 345.512 180 343.562C176.67 340.892 173.33 338.232 170 335.562C162.79 335.732 155.62 336.572 148.5 338.062C138.66 337.052 129.16 335.052 120 332.062C122.51 330.642 124.84 328.972 127 327.062C138.69 332.792 150.69 333.292 163 328.562C161.67 327.232 160.33 325.892 159 324.562C149.04 324.632 140.04 321.802 132 316.062C131.7 313.502 132.03 311.172 133 309.062C138.96 314.062 145.63 316.732 153 317.062C150.46 313.322 148.46 309.322 147 305.062Z" fill="#C3C3C3"/>
<path fill-rule="evenodd" clip-rule="evenodd" d="M379 313.062C377.76 321.292 375.59 329.292 372.5 337.062C371.83 337.812 371 338.152 370 338.062C366.1 339.372 362.1 340.372 358 341.062C354.71 341.772 351.38 342.102 348 342.062C340.59 342.162 333.25 341.502 326 340.062C323.79 338.792 321.45 337.792 319 337.062C317 335.392 315 333.732 313 332.062C314.33 330.912 315.83 329.912 317.5 329.062C333.45 337.042 349.95 338.212 367 332.562C368.33 329.232 369.67 325.892 371 322.562C361.8 324.352 352.46 325.012 343 324.562C337.78 323.282 332.78 321.452 328 319.062C329.02 317.372 330.35 316.042 332 315.062C337.85 317.012 343.85 318.342 350 319.062C357.84 318.472 365.51 317.132 373 315.062C374.92 314.202 376.92 313.532 379 313.062Z" fill="#484848"/>
<path fill-rule="evenodd" clip-rule="evenodd" d="M132 316.062C140.04 321.802 149.04 324.632 159 324.562C160.33 325.892 161.67 327.232 163 328.562C150.69 333.292 138.69 332.792 127 327.062C129.16 323.582 130.82 319.922 132 316.062Z" fill="#FBFCFC"/>
<path fill-rule="evenodd" clip-rule="evenodd" d="M238 352.062C222.96 352.992 208.63 350.322 195 344.062C193.15 340.462 194.15 337.962 198 336.562C213.79 336.462 229.46 334.632 245 331.062C251.74 333.212 253.57 337.542 250.5 344.062C246.87 347.622 242.7 350.292 238 352.062Z" fill="#FE9037"/>
<path fill-rule="evenodd" clip-rule="evenodd" d="M313 332.062C315 333.732 317 335.392 319 337.062C317.33 337.902 316.16 339.242 315.5 341.062C313.53 345.522 312.69 350.192 313 355.062C310.94 349.372 308.94 343.542 307 337.562C308.85 335.542 310.85 333.712 313 332.062Z" fill="#FC3A23"/>
<path fill-rule="evenodd" clip-rule="evenodd" d="M319 337.062C321.45 337.792 323.79 338.792 326 340.062C324.16 349.682 325.16 359.022 329 368.062C328.16 370.332 328.16 372.492 329 374.562C331.85 375.502 334.35 375.002 336.5 373.062C338.89 365.942 342.56 359.612 347.5 354.062C348.94 350.062 349.11 346.062 348 342.062C351.38 342.102 354.71 341.772 358 341.062C358.33 346.162 357.83 351.162 356.5 356.062C350.17 365.392 343.83 374.732 337.5 384.062C335.17 386.732 332.83 386.732 330.5 384.062C329.1 385.752 327.27 386.422 325 386.062C325 384.732 325 383.392 325 382.062C325 379.732 325 377.392 325 375.062C321.38 368.782 317.38 362.782 313 357.062C313 356.392 313 355.732 313 355.062C312.69 350.192 313.53 345.522 315.5 341.062C316.16 339.242 317.33 337.902 319 337.062Z" fill="#FEC64D"/>
<path fill-rule="evenodd" clip-rule="evenodd" d="M370.001 338.062C366.341 352.532 361.171 366.532 354.501 380.062C346.961 388.562 339.131 396.732 331.001 404.562C326.611 405.672 325.281 404.172 327.001 400.062C325.231 398.742 324.901 397.242 326.001 395.562C319.391 396.422 317.391 393.592 320.001 387.062C322.001 385.732 323.671 384.062 325.001 382.062C325.001 383.392 325.001 384.732 325.001 386.062C327.271 386.422 329.101 385.752 330.501 384.062C332.831 386.732 335.171 386.732 337.501 384.062C343.831 374.732 350.171 365.392 356.501 356.062C357.831 351.162 358.331 346.162 358.001 341.062C362.101 340.372 366.101 339.372 370.001 338.062Z" fill="#FB3C25"/>
<path fill-rule="evenodd" clip-rule="evenodd" d="M326 340.062C333.25 341.502 340.59 342.162 348 342.062C349.11 346.062 348.94 350.062 347.5 354.062C342.56 359.612 338.89 365.942 336.5 373.062C334.35 375.002 331.85 375.502 329 374.562C328.16 372.492 328.16 370.332 329 368.062C325.16 359.022 324.16 349.682 326 340.062Z" fill="#F4ED8D"/>
<path fill-rule="evenodd" clip-rule="evenodd" d="M205 371.062C201.75 369.532 198.41 368.202 195 367.062C195.86 361.972 197.19 356.972 199 352.062C202.3 353.332 205.63 354.492 209 355.562C207.28 360.612 205.95 365.782 205 371.062Z" fill="#FBFCFD"/>
<path fill-rule="evenodd" clip-rule="evenodd" d="M277 369.062C273 370.062 269 371.062 265 372.062C263.87 366.422 262.87 360.752 262 355.062C265.1 354.872 268.1 354.202 271 353.062C273.19 358.302 275.19 363.632 277 369.062Z" fill="#FCFCFD"/>
<path fill-rule="evenodd" clip-rule="evenodd" d="M313 357.062C317.38 362.782 321.38 368.782 325 375.062C322.3 372.042 318.97 370.042 315 369.062C314.46 365.042 313.8 361.042 313 357.062Z" fill="#FC3B22"/>
<path fill-rule="evenodd" clip-rule="evenodd" d="M189 366.062C191.06 366.082 193.06 366.412 195 367.062C198.41 368.202 201.75 369.532 205 371.062C207.17 371.312 208.84 372.312 210 374.062C208.81 379.132 207.31 384.132 205.5 389.062C203.05 394.652 198.88 396.482 193 394.562C189.65 392.472 185.99 391.142 182 390.562C177.92 388.772 174.09 386.612 170.5 384.062C169.06 379.352 170.22 375.512 174 372.562C177.85 370.892 181.85 369.722 186 369.062C186.69 367.712 187.69 366.712 189 366.062Z" fill="#2491FC"/>
<path fill-rule="evenodd" clip-rule="evenodd" d="M283.001 369.062C284.941 375.342 285.101 381.682 283.501 388.062C277.141 393.322 269.981 397.162 262.001 399.562C248.841 402.752 244.671 398.252 249.501 386.062C252.951 383.092 256.781 380.752 261.001 379.062C260.331 377.362 259.661 375.702 259.001 374.062C261.291 373.972 263.291 373.302 265.001 372.062C269.001 371.062 273.001 370.062 277.001 369.062C279.001 367.732 281.001 367.732 283.001 369.062Z" fill="#2490FB"/>
<path fill-rule="evenodd" clip-rule="evenodd" d="M315 369.062C318.97 370.042 322.3 372.042 325 375.062C325 377.392 325 379.732 325 382.062C323.67 384.062 322 385.732 320 387.062C313.55 385.982 307.89 387.482 303 391.562C293.66 393.222 290.16 389.392 292.5 380.062C293.16 378.582 294 377.242 295 376.062C297.04 374.712 299.04 373.382 301 372.062C303.72 371.602 306.39 370.932 309 370.062C310.88 369.222 312.88 368.892 315 369.062Z" fill="#2891FB"/>
<path fill-rule="evenodd" clip-rule="evenodd" d="M194 374.062C196.97 375.112 199.97 376.282 203 377.562C201.97 381.152 200.64 384.652 199 388.062C198.33 388.392 197.67 388.732 197 389.062C189.97 386.882 183.14 384.222 176.5 381.062C175.75 379.922 175.92 378.922 177 378.062C178.29 377.462 179.63 376.962 181 376.562C185 376.892 189 377.232 193 377.562C193.84 376.552 194.17 375.382 194 374.062Z" fill="#5FAAE7"/>
<path fill-rule="evenodd" clip-rule="evenodd" d="M311 375.062C314.49 374.802 317.16 376.142 319 379.062C318.79 379.652 318.46 380.152 318 380.562C314.33 380.892 310.67 381.232 307 381.562C304.06 383.372 301.06 384.872 298 386.062C297.77 382.782 299.1 380.282 302 378.562C305.22 377.662 308.22 376.492 311 375.062Z" fill="#60AAE7"/>
<path fill-rule="evenodd" clip-rule="evenodd" d="M277 375.062C277.98 378.522 278.31 382.192 278 386.062C272.36 388.452 266.7 390.952 261 393.562C258.27 394.382 255.61 394.212 253 393.062C255.92 388.252 260.25 385.422 266 384.562C266.61 382.412 267.28 380.252 268 378.062C271.16 377.192 274.16 376.192 277 375.062Z" fill="#60AAE7"/>
</svg>
