<svg width="500" height="500" viewBox="0 0 500 500" fill="none" xmlns="http://www.w3.org/2000/svg">
<path fill-rule="evenodd" clip-rule="evenodd" d="M193 106.062C197.92 110.112 203.59 112.942 210 114.562C217.58 116.382 225.24 117.552 233 118.062C256.5 118.892 280.16 119.392 304 119.562C306.09 119.882 308.09 120.382 310 121.062C318.05 123.592 325.72 126.922 333 131.062C340.36 137.742 345.69 145.742 349 155.062C350.56 159.232 351.23 163.572 351 168.062C354.41 168.292 356.91 169.962 358.5 173.062C365.31 186.612 369.14 200.942 370 216.062C370.2 224.092 369.86 232.092 369 240.062C367.09 243.922 365.26 247.922 363.5 252.062C361.7 254.392 359.53 256.052 357 257.062C356.33 257.062 355.67 257.062 355 257.062C351.5 254.482 347.84 252.142 344 250.062C335.14 235.682 327.31 220.682 320.5 205.062C319.36 202.952 317.86 201.122 316 199.562C282 197.892 248 197.232 214 197.562C202.11 197.072 190.44 195.242 179 192.062C168.22 206.362 158.38 221.362 149.5 237.062C148.46 238.272 147.29 239.272 146 240.062C144.34 241.142 142.51 241.802 140.5 242.062C138.08 240.932 135.58 239.932 133 239.062C129.7 231.342 129.04 223.342 131 215.062C134.4 198.922 141.07 184.252 151 171.062C147.55 166.962 144.55 162.632 142 158.062C139.93 150.872 138.43 143.542 137.5 136.062C136.83 132.392 136.83 128.732 137.5 125.062C141.11 116.622 144.95 108.282 149 100.062C154.95 91.6115 161.79 83.9415 169.5 77.0615C171.27 77.9015 172.6 79.2315 173.5 81.0615C176.7 88.2515 180.7 94.9215 185.5 101.062C187.9 102.972 190.4 104.642 193 106.062Z" fill="#FEC54D"/>
<path fill-rule="evenodd" clip-rule="evenodd" d="M167 95.0616C175.56 109.432 187.89 119.272 204 124.562C212.54 126.852 221.21 128.522 230 129.562C254 129.892 278 130.232 302 130.562C310.75 132.922 319.09 136.252 327 140.562C336.63 150.792 341.13 162.962 340.5 177.062C343.36 178.482 346.36 179.482 349.5 180.062C358.05 198.222 360.71 217.222 357.5 237.062C356.78 239.512 355.78 241.842 354.5 244.062C344.61 229.622 336.28 214.292 329.5 198.062C326.95 193.842 323.45 190.672 319 188.562C285.33 186.982 251.67 186.312 218 186.562C202.83 186.462 188.16 183.792 174 178.562C167.15 171.682 160.65 164.512 154.5 157.062C149.49 146.572 147.82 135.572 149.5 124.062C153.03 118.342 156.03 112.342 158.5 106.062C160.86 102.002 163.69 98.3416 167 95.0616Z" fill="#FFDD5D"/>
<path fill-rule="evenodd" clip-rule="evenodd" d="M158 180.062C161.58 181.972 164.58 184.632 167 188.062C158.25 201.222 149.75 214.562 141.5 228.062C141.83 221.772 142.5 215.442 143.5 209.062C147.82 199.092 152.65 189.422 158 180.062Z" fill="#FFDD5C"/>
<path fill-rule="evenodd" clip-rule="evenodd" d="M344 250.062C340.39 245.952 336.05 242.792 331 240.562C320.18 236.622 309.18 233.292 298 230.562C293.33 229.892 288.67 229.892 284 230.562C279.9 233.032 276.07 235.862 272.5 239.062C260.92 256.022 259.92 273.692 269.5 292.062C276.65 297.832 284.81 301.172 294 302.062C289.53 314.282 293.53 322.452 306 326.562C312.03 327.202 318.03 327.032 324 326.062C287.69 349.852 248.69 355.012 207 341.562C198.86 338.662 191.52 334.492 185 329.062C190.46 328.532 195.79 327.362 201 325.562C211.7 317.642 212.7 308.642 204 298.562C206.26 298.012 207.93 296.842 209 295.062C212.6 292.642 216.1 289.972 219.5 287.062C222.33 281.392 225.67 276.062 229.5 271.062C231.58 261.682 229.58 253.342 223.5 246.062C222.67 236.552 217.5 230.722 208 228.562C183.61 222.782 162.61 228.622 145 246.062C145.02 244.002 145.35 242.002 146 240.062C147.29 239.272 148.46 238.272 149.5 237.062C158.38 221.362 168.22 206.362 179 192.062C190.44 195.242 202.11 197.072 214 197.562C248 197.232 282 197.892 316 199.562C317.86 201.122 319.36 202.952 320.5 205.062C327.31 220.682 335.14 235.682 344 250.062Z" fill="#FDAA77"/>
<path fill-rule="evenodd" clip-rule="evenodd" d="M179 200.061C192.94 199.651 206.11 202.651 218.5 209.061C219.97 215.791 217.31 219.451 210.5 220.061C200.3 218.441 190.47 215.601 181 211.561C176.6 208.311 175.93 204.471 179 200.061Z" fill="#FFC54D"/>
<path fill-rule="evenodd" clip-rule="evenodd" d="M288 206.062C294.01 205.892 300.01 206.062 306 206.562C311.01 209.292 311.34 212.632 307 216.562C297.37 222.222 287.04 224.222 276 222.562C273.29 220.702 272.46 218.202 273.5 215.062C277.88 211.132 282.71 208.132 288 206.062Z" fill="#FFC54D"/>
<path fill-rule="evenodd" clip-rule="evenodd" d="M209.001 295.062C191.471 303.102 177.141 299.432 166.001 284.062C164.811 279.602 163.311 275.272 161.501 271.062C160.501 264.732 161.001 258.562 163.001 252.562C162.671 252.062 162.331 251.562 162.001 251.062C157.861 254.042 153.861 257.202 150.001 260.562C148.151 261.692 146.151 262.192 144.001 262.062C140.601 261.302 139.271 259.132 140.001 255.562C140.171 254.062 140.331 252.562 140.501 251.062C142.211 249.522 143.711 247.862 145.001 246.062C162.611 228.622 183.611 222.782 208.001 228.562C217.501 230.722 222.671 236.552 223.501 246.062C229.581 253.342 231.581 261.682 229.501 271.062C225.671 276.062 222.331 281.392 219.501 287.062C216.101 289.972 212.601 292.642 209.001 295.062Z" fill="#080606"/>
<path fill-rule="evenodd" clip-rule="evenodd" d="M344 250.061C347.84 252.141 351.5 254.481 355 257.061C356.85 261.231 355.52 263.901 351 265.061C343.76 263.941 337.42 260.941 332 256.061C332.55 265.411 330.22 274.081 325 282.061C322.66 286.891 319.66 291.391 316 295.561C312.63 297.561 309.3 299.561 306 301.561C302.01 302.061 298.01 302.231 294 302.061C284.81 301.171 276.65 297.831 269.5 292.061C259.92 273.691 260.92 256.021 272.5 239.061C276.07 235.861 279.9 233.031 284 230.561C288.67 229.891 293.33 229.891 298 230.561C309.18 233.291 320.18 236.621 331 240.561C336.05 242.791 340.39 245.951 344 250.061Z" fill="#0A0A0B"/>
<path fill-rule="evenodd" clip-rule="evenodd" d="M132.999 239.062C135.579 239.932 138.079 240.932 140.499 242.062C142.509 241.802 144.339 241.142 145.999 240.062C145.349 242.002 145.019 244.002 144.999 246.062C143.709 247.862 142.209 249.522 140.499 251.062C140.329 252.562 140.169 254.062 139.999 255.562C139.269 259.132 140.599 261.302 143.999 262.062C145.369 272.942 148.369 283.282 152.999 293.062C160.449 307.842 171.109 319.842 184.999 329.062C191.519 334.492 198.859 338.662 206.999 341.562C248.689 355.012 287.689 349.852 323.999 326.062C327.599 323.582 331.269 321.082 334.999 318.562C338.959 314.442 342.299 309.942 344.999 305.062C354.249 292.762 358.579 278.762 357.999 263.062C357.999 260.862 357.659 258.862 356.999 257.062C359.529 256.052 361.699 254.392 363.499 252.062C365.259 247.922 367.089 243.922 368.999 240.062C369.739 243.682 370.079 247.352 369.999 251.062C370.949 256.302 371.279 261.632 370.999 267.062C369.889 287.942 362.219 305.942 347.999 321.062C343.929 325.132 339.599 328.802 334.999 332.062C332.959 333.412 330.959 334.742 328.999 336.062C327.789 336.492 326.789 337.162 325.999 338.062C317.339 343.552 308.339 348.222 298.999 352.062C295.389 352.822 292.059 354.152 288.999 356.062C278.849 358.852 268.519 360.512 257.999 361.062C251.409 361.372 244.909 361.042 238.499 360.062C238.019 361.012 237.849 362.012 237.999 363.062C237.309 361.712 236.309 360.542 234.999 359.562C226.799 358.892 218.799 357.392 210.999 355.062C208.799 353.992 206.469 353.332 203.999 353.062C192.439 348.282 181.779 341.952 171.999 334.062C170.019 332.422 168.019 330.762 165.999 329.062C165.329 327.732 164.329 326.732 162.999 326.062C153.929 316.262 146.599 305.262 140.999 293.062C134.939 279.782 131.939 265.782 131.999 251.062C131.809 246.992 132.139 242.992 132.999 239.062Z" fill="#F99A5E"/>
<path fill-rule="evenodd" clip-rule="evenodd" d="M217.001 249.061C216.781 257.101 213.111 262.941 206.001 266.561C201.231 267.921 197.731 266.421 195.501 262.061C192.851 257.851 192.521 253.521 194.501 249.061C196.101 246.191 197.931 243.521 200.001 241.061C209.111 236.521 214.781 239.191 217.001 249.061Z" fill="#F7F7F7"/>
<path fill-rule="evenodd" clip-rule="evenodd" d="M292.999 240.061C296.739 243.161 297.909 247.161 296.499 252.061C295.679 263.541 289.849 267.701 278.999 264.561C274.939 260.611 272.939 255.771 272.999 250.061C275.199 245.691 278.529 242.531 282.999 240.561C286.289 238.831 289.619 238.661 292.999 240.061Z" fill="#F6F7F7"/>
<path fill-rule="evenodd" clip-rule="evenodd" d="M200 241.061C197.93 243.521 196.1 246.191 194.5 249.061C192.52 253.521 192.85 257.851 195.5 262.061C197.73 266.421 201.23 267.921 206 266.561C213.11 262.941 216.78 257.101 217 249.061C217.84 249.401 218.17 250.071 218 251.061C225.38 269.131 220.04 281.631 202 288.561C187.39 289.281 177.55 282.781 172.5 269.061C171.29 262.671 172.29 256.671 175.5 251.061C179.16 248.161 182.66 245.161 186 242.061C190.6 241.181 195.27 240.841 200 241.061Z" fill="#233F55"/>
<path fill-rule="evenodd" clip-rule="evenodd" d="M293 240.062C299.42 241.922 305.76 244.092 312 246.562C315.26 249.152 317.76 252.322 319.5 256.062C326.71 289.352 313.87 301.692 281 293.062C273.7 286.972 269.37 279.132 268 269.562C269.77 262.972 271.44 256.472 273 250.062C272.94 255.772 274.94 260.612 279 264.562C289.85 267.702 295.68 263.542 296.5 252.062C297.91 247.162 296.74 243.162 293 240.062Z" fill="#213B51"/>
<path fill-rule="evenodd" clip-rule="evenodd" d="M186 242.062C182.66 245.162 179.16 248.162 175.5 251.062C172.29 256.672 171.29 262.672 172.5 269.062C177.55 282.782 187.39 289.282 202 288.562C220.04 281.632 225.38 269.132 218 251.062C221.12 254.902 222.78 259.402 223 264.562C222.76 267.772 222.26 270.932 221.5 274.062C217.13 282.102 210.96 288.602 203 293.562C181.68 297.302 168.85 288.472 164.5 267.062C162.9 251.162 170.07 242.832 186 242.062Z" fill="#182B3B"/>
<path fill-rule="evenodd" clip-rule="evenodd" d="M166 284.062C161.18 286.312 156.84 289.312 153 293.062C148.37 283.282 145.37 272.942 144 262.062C146.15 262.192 148.15 261.692 150 260.562C153.86 257.202 157.86 254.042 162 251.062C162.33 251.562 162.67 252.062 163 252.562C161 258.562 160.5 264.732 161.5 271.062C163.31 275.272 164.81 279.602 166 284.062Z" fill="#FAA977"/>
<path fill-rule="evenodd" clip-rule="evenodd" d="M355 257.062C355.67 257.062 356.33 257.062 357 257.062C357.66 258.862 358 260.862 358 263.062C358.58 278.762 354.25 292.762 345 305.062C345.47 298.842 343.47 293.512 339 289.062C334.65 285.952 329.98 283.622 325 282.062C330.22 274.082 332.55 265.412 332 256.062C337.42 260.942 343.76 263.942 351 265.062C355.52 263.902 356.85 261.232 355 257.062Z" fill="#FDAA78"/>
<path fill-rule="evenodd" clip-rule="evenodd" d="M325 282.062C329.98 283.622 334.65 285.952 339 289.062C343.47 293.512 345.47 298.842 345 305.062C342.3 309.942 338.96 314.442 335 318.562C331.27 321.082 327.6 323.582 324 326.062C318.03 327.032 312.03 327.202 306 326.562C293.53 322.452 289.53 314.282 294 302.062C298.01 302.232 302.01 302.062 306 301.562C309.3 299.562 312.63 297.562 316 295.562C319.66 291.392 322.66 286.892 325 282.062Z" fill="#FE9D7F"/>
<path fill-rule="evenodd" clip-rule="evenodd" d="M166 284.062C177.14 299.432 191.47 303.102 209 295.062C207.93 296.842 206.26 298.012 204 298.562C212.7 308.642 211.7 317.642 201 325.562C195.79 327.362 190.46 328.532 185 329.062C171.11 319.842 160.45 307.842 153 293.062C156.84 289.312 161.18 286.312 166 284.062Z" fill="#FD9D7E"/>
<path fill-rule="evenodd" clip-rule="evenodd" d="M262.999 305.061C268.999 303.891 271.499 306.231 270.499 312.061C267.129 317.311 262.959 321.811 257.999 325.561C254.569 326.261 251.239 325.931 247.999 324.561C243.019 321.821 238.179 318.991 233.499 316.061C232.079 311.481 233.749 309.151 238.499 309.061C243.079 309.931 247.239 311.771 250.999 314.561C252.329 315.231 253.669 315.231 254.999 314.561C258.249 311.811 260.919 308.651 262.999 305.061Z" fill="#0B0907"/>
<path fill-rule="evenodd" clip-rule="evenodd" d="M162.999 326.062C164.329 326.732 165.329 327.732 165.999 329.062C165.439 332.752 164.769 336.422 163.999 340.062C159.669 345.752 155.669 351.752 151.999 358.062C154.339 367.882 151.009 370.382 141.999 365.562C138.539 361.872 134.709 358.702 130.499 356.062C129.579 353.252 130.409 351.092 132.999 349.562C136.039 349.242 139.039 349.242 141.999 349.562C142.889 347.952 143.889 346.452 144.999 345.062C149.349 340.872 153.179 336.212 156.499 331.062C158.279 328.772 160.439 327.102 162.999 326.062Z" fill="#070605"/>
<path fill-rule="evenodd" clip-rule="evenodd" d="M166.001 329.062C168.021 330.762 170.021 332.422 172.001 334.062C168.771 344.132 167.271 354.462 167.501 365.062C180.031 376.912 194.871 384.412 212.001 387.562C220.241 389.642 228.581 391.142 237.001 392.062C238.241 393.522 239.241 395.192 240.001 397.062C233.181 397.502 226.521 396.832 220.001 395.062C215.641 394.192 211.301 393.192 207.001 392.062C189.511 388.062 174.341 379.732 161.501 367.062C160.831 362.062 160.831 357.062 161.501 352.062C162.661 348.122 163.491 344.122 164.001 340.062C164.771 336.422 165.441 332.752 166.001 329.062Z" fill="#1A256B"/>
<path fill-rule="evenodd" clip-rule="evenodd" d="M335 332.062C341.3 340.472 347.97 348.642 355 356.562C357 356.892 359 357.232 361 357.562C363.82 359.182 364.49 361.352 363 364.062C359.27 366.282 355.94 369.112 353 372.562C348.68 374.022 345.68 372.692 344 368.562C345.49 366.152 346.32 363.652 346.5 361.062C342.8 356.532 338.97 352.202 335 348.062C333.37 345.932 331.54 343.932 329.5 342.062C329 340.092 328.84 338.092 329 336.062C330.96 334.742 332.96 333.412 335 332.062Z" fill="#080706"/>
<path fill-rule="evenodd" clip-rule="evenodd" d="M171.999 334.062C181.779 341.952 192.439 348.282 203.999 353.062C210.039 368.812 220.709 381.152 235.999 390.062C236.839 390.402 237.169 391.072 236.999 392.062C228.579 391.142 220.239 389.642 211.999 387.562C194.869 384.412 180.029 376.912 167.499 365.062C167.269 354.462 168.769 344.132 171.999 334.062Z" fill="#36416C"/>
<path fill-rule="evenodd" clip-rule="evenodd" d="M326 338.062C329.35 348.642 332.02 359.472 334 370.562C333.74 371.822 333.07 372.822 332 373.562C322 379.402 311.33 383.732 300 386.562C285.46 389.452 270.8 391.292 256 392.062C256.33 390.732 256.67 389.392 257 388.062C262.95 384.762 268.62 381.092 274 377.062C279.34 379.942 284.51 379.612 289.5 376.062C291.4 370.652 289.57 368.312 284 369.062C289.82 363.742 295.49 358.242 301 352.562C300.41 352.102 299.74 351.932 299 352.062C308.34 348.222 317.34 343.552 326 338.062Z" fill="#36416B"/>
<path fill-rule="evenodd" clip-rule="evenodd" d="M329 336.062C328.84 338.092 329 340.092 329.5 342.062C331.54 343.932 333.37 345.932 335 348.062C337.31 356.942 338.47 365.942 338.5 375.062C333.09 380.022 326.92 383.852 320 386.562C310.55 389.092 301.22 391.592 292 394.062C286.81 394.302 281.81 394.972 277 396.062C268.69 396.972 260.35 397.642 252 398.062C253.35 396.022 254.68 394.022 256 392.062C270.8 391.292 285.46 389.452 300 386.562C311.33 383.732 322 379.402 332 373.562C333.07 372.822 333.74 371.822 334 370.562C332.02 359.472 329.35 348.642 326 338.062C326.79 337.162 327.79 336.492 329 336.062Z" fill="#1B256B"/>
<path fill-rule="evenodd" clip-rule="evenodd" d="M204 353.062C206.47 353.332 208.8 353.992 211 355.062C216.56 366.832 224.89 376.162 236 383.062C236 385.392 236 387.732 236 390.062C220.71 381.152 210.04 368.812 204 353.062Z" fill="#1A246A"/>
<path fill-rule="evenodd" clip-rule="evenodd" d="M299 352.062C299.74 351.932 300.41 352.102 301 352.562C295.49 358.242 289.82 363.742 284 369.062C283.33 369.062 282.67 369.062 282 369.062C279.97 368.902 277.97 369.062 276 369.562C273.95 371.242 273.61 373.072 275 375.062C274.67 375.732 274.33 376.392 274 377.062C268.62 381.092 262.95 384.762 257 388.062C256.35 386.122 256.02 384.122 256 382.062C267.95 374.592 278.95 365.922 289 356.062C292.06 354.152 295.39 352.822 299 352.062Z" fill="#19246A"/>
<path fill-rule="evenodd" clip-rule="evenodd" d="M211 355.062C218.8 357.392 226.8 358.892 235 359.562C236.31 360.542 237.31 361.712 238 363.062C243.23 370.132 242.57 376.792 236 383.062C224.89 376.162 216.56 366.832 211 355.062Z" fill="#E6E5E5"/>
<path fill-rule="evenodd" clip-rule="evenodd" d="M258 361.062C258.15 362.112 257.98 363.112 257.5 364.062C255.15 366.242 252.98 368.582 251 371.062C252.88 374.742 254.55 378.412 256 382.062C256.02 384.122 256.35 386.122 257 388.062C256.67 389.392 256.33 390.732 256 392.062C254.68 394.022 253.35 396.022 252 398.062C251.67 398.732 251.33 399.392 251 400.062C246.25 403.242 242.58 402.242 240 397.062C239.24 395.192 238.24 393.522 237 392.062C237.17 391.072 236.84 390.402 236 390.062C236 387.732 236 385.392 236 383.062C242.57 376.792 243.23 370.132 238 363.062C237.85 362.012 238.02 361.012 238.5 360.062C244.91 361.042 251.41 361.372 258 361.062Z" fill="#FD3B25"/>
<path fill-rule="evenodd" clip-rule="evenodd" d="M289 356.062C278.95 365.922 267.95 374.592 256 382.062C254.55 378.412 252.88 374.742 251 371.062C252.98 368.582 255.15 366.242 257.5 364.062C257.98 363.112 258.15 362.112 258 361.062C268.52 360.512 278.85 358.852 289 356.062Z" fill="#E7E5E4"/>
<path fill-rule="evenodd" clip-rule="evenodd" d="M282 369.062C282.76 374.472 280.43 376.472 275 375.062C273.61 373.072 273.95 371.242 276 369.562C277.97 369.062 279.97 368.902 282 369.062Z" fill="#6886E5"/>
<path fill-rule="evenodd" clip-rule="evenodd" d="M282 369.061C282.67 369.061 283.33 369.061 284 369.061C289.57 368.311 291.4 370.651 289.5 376.061C284.51 379.611 279.34 379.941 274 377.061C274.33 376.391 274.67 375.731 275 375.061C280.43 376.471 282.76 374.471 282 369.061Z" fill="#F9A091"/>
<path fill-rule="evenodd" clip-rule="evenodd" d="M206.999 392.062C211.299 393.192 215.639 394.192 219.999 395.062C220.599 402.192 219.599 409.022 216.999 415.562C210.919 418.032 204.579 418.702 197.999 417.562C190.909 414.222 190.249 409.882 195.999 404.562C199.649 404.062 203.319 403.892 206.999 404.062C206.999 401.392 206.999 398.732 206.999 396.062C206.999 394.732 206.999 393.392 206.999 392.062Z" fill="#080505"/>
<path fill-rule="evenodd" clip-rule="evenodd" d="M292 394.062C291.75 397.502 292.09 400.832 293 404.062C293 404.732 293 405.392 293 406.062C293.01 409.092 293.34 412.092 294 415.062C294.09 417.472 293.09 419.302 291 420.562C286.68 421.142 282.34 421.642 278 422.062C273.99 422.142 270.32 421.142 267 419.062C265.51 415.192 266.51 412.022 270 409.562C272.93 408.612 275.93 408.112 279 408.062C279.59 403.592 278.92 399.592 277 396.062C281.81 394.972 286.81 394.302 292 394.062Z" fill="#090605"/>
</svg>
