<svg width="500" height="500" viewBox="0 0 500 500" fill="none" xmlns="http://www.w3.org/2000/svg">
<path fill-rule="evenodd" clip-rule="evenodd" d="M316.001 177.061C314.171 179.221 311.831 180.551 309.001 181.061C294.361 179.691 279.691 179.191 265.001 179.561C262.431 181.651 259.761 183.481 257.001 185.061C252.691 186.211 248.361 186.211 244.001 185.061C241.071 182.661 237.731 180.821 234.001 179.561C213.291 178.691 192.631 179.191 172.001 181.061C172.001 182.061 172.001 183.061 172.001 184.061C172.931 197.071 173.931 210.071 175.001 223.061C175.331 225.061 175.671 227.061 176.001 229.061C177.001 239.841 175.501 250.171 171.501 260.061C170.831 260.811 170.001 261.151 169.001 261.061C167.671 261.061 166.331 261.061 165.001 261.061C159.741 260.681 156.241 258.021 154.501 253.061C152.571 245.851 151.401 238.511 151.001 231.061C151.001 228.731 151.001 226.391 151.001 224.061C151.131 210.841 152.801 197.841 156.001 185.061C153.671 183.461 151.001 182.301 148.001 181.561C145.641 179.721 143.301 177.881 141.001 176.061C131.461 164.721 130.631 152.721 138.501 140.061C138.591 125.331 139.591 110.661 141.501 96.0613C143.391 89.2813 147.061 83.6113 152.501 79.0613C152.021 73.5013 153.521 68.6613 157.001 64.5613C164.451 60.6113 170.121 62.4413 174.001 70.0613C183.221 75.4513 191.061 82.4513 197.501 91.0613C203.631 103.111 207.961 115.781 210.501 129.061C211.451 132.591 212.781 135.921 214.501 139.061C226.031 118.661 242.201 113.831 263.001 124.561C266.181 127.581 269.181 130.741 272.001 134.061C271.941 124.131 275.271 115.631 282.001 108.561C297.491 100.281 308.321 104.451 314.501 121.061C320.021 137.361 321.691 154.031 319.501 171.061C318.941 173.451 317.771 175.451 316.001 177.061Z" fill="#060505"/>
<path fill-rule="evenodd" clip-rule="evenodd" d="M163 79.0617C166.02 78.9017 169.02 79.0617 172 79.5617C178.59 84.2717 184.42 89.7717 189.5 96.0617C193.11 104.282 196.44 112.612 199.5 121.062C201.22 130.552 203.55 139.882 206.5 149.062C206.86 153.062 206.69 157.062 206 161.062C205.85 163.812 206.52 166.312 208 168.562C196.99 169.452 185.99 170.452 175 171.562C169.27 171.992 163.77 173.162 158.5 175.062C149.14 172.732 143.64 166.732 142 157.062C144.45 151.162 146.62 145.162 148.5 139.062C148.78 125.372 149.44 111.712 150.5 98.0617C153.37 92.5217 157.03 87.5217 161.5 83.0617C162.29 81.8217 162.79 80.4817 163 79.0617Z" fill="#FCFCFC"/>
<path fill-rule="evenodd" clip-rule="evenodd" d="M292 114.062C296.41 113.182 299.91 114.512 302.5 118.062C310.42 134.942 312.92 152.612 310 171.062C295.69 170.132 281.36 169.462 267 169.062C267.06 165.512 266.23 162.182 264.5 159.062C262 156.562 259.5 154.062 257 151.562C247.36 149.662 237.69 149.662 228 151.562C226.64 153.502 226.97 155.162 229 156.562C234.15 156.672 239.32 156.502 244.5 156.062C248.12 155.982 251.62 156.482 255 157.562C255.33 157.892 255.67 158.232 256 158.562C253.11 159.432 251.94 161.262 252.5 164.062C255.24 164.702 257.74 165.872 260 167.562C261.02 168.612 261.18 169.782 260.5 171.062C258.76 172.522 256.92 173.852 255 175.062C252.87 170.912 249.54 168.912 245 169.062C245.16 170.762 244.99 172.432 244.5 174.062C242.2 172.492 239.7 171.322 237 170.562C231.15 170.232 225.32 169.732 219.5 169.062C214.94 167.972 212.77 164.972 213 160.062C213.56 157.742 214.06 155.412 214.5 153.062C220.61 148.182 225.27 142.182 228.5 135.062C238.32 126.472 248.49 125.972 259 133.562C263.29 139.522 267.96 145.182 273 150.562C275.79 151.862 278.46 153.362 281 155.062C282.77 154.292 283.77 152.962 284 151.062C280.93 141.862 280.77 132.532 283.5 123.062C284.5 121.062 285.5 119.062 286.5 117.062C288.38 115.952 290.21 114.952 292 114.062Z" fill="#FAFAFA"/>
<path fill-rule="evenodd" clip-rule="evenodd" d="M154.999 139.061C158.829 138.811 162.159 139.981 164.999 142.561C166.669 145.701 166.009 148.201 162.999 150.061C160.529 148.761 158.199 147.261 155.999 145.561C153.819 143.661 153.479 141.501 154.999 139.061Z" fill="#0E0E0E"/>
<path fill-rule="evenodd" clip-rule="evenodd" d="M329 339.062C333.33 344.222 338.16 348.892 343.5 353.062C348.56 359.902 348.06 366.072 342 371.562C338.33 372.392 335.33 374.222 333 377.062C336.23 379.662 337.23 382.822 336 386.562C332.38 386.852 329.05 386.022 326 384.062C322.88 380.742 321.88 376.912 323 372.562C324.69 371.712 326.36 370.882 328 370.062C332.23 367.782 335.89 364.782 339 361.062C335.98 357.372 332.65 354.042 329 351.062C325.61 347.682 322.61 344.012 320 340.062C322.42 335.262 325.42 334.932 329 339.062Z" fill="#060506"/>
<path fill-rule="evenodd" clip-rule="evenodd" d="M124 354.062C121.13 356.772 118.8 359.942 117 363.562C118.71 366.912 121.38 369.082 125 370.062C128.71 371.452 131.04 374.122 132 378.062C130.68 380.392 129.34 382.722 128 385.062C125.11 387.912 121.77 388.572 118 387.062C116.5 383.882 117.17 381.222 120 379.062C117.02 375.582 113.85 372.242 110.5 369.062C108.41 364.892 108.75 360.892 111.5 357.062C115.55 352.522 119.38 347.852 123 343.062C126 340.072 128.34 340.402 130 344.062C128.41 347.652 126.41 350.982 124 354.062Z" fill="#070607"/>
<path fill-rule="evenodd" clip-rule="evenodd" d="M141 176.061C143.3 177.881 145.64 179.721 148 181.561C151 182.301 153.67 183.461 156 185.061C147.99 184.891 139.99 185.061 132 185.561C130.4 185.831 128.9 186.331 127.5 187.061C117.97 217.321 108.64 247.661 99.4995 278.061C96.8095 287.961 94.6495 297.961 92.9995 308.061C93.4295 310.331 94.7595 311.831 96.9995 312.561C116.35 312.821 135.68 313.321 155 314.061C153.33 315.901 151.83 317.901 150.5 320.061C150 322.371 149.84 324.701 150 327.061C149.07 325.991 148.73 324.661 149 323.061C142.71 322.191 136.38 321.851 130 322.061C130.5 326.711 130.83 331.381 131 336.061C133.94 336.281 136.77 336.941 139.5 338.061C144.29 337.201 149.13 336.871 154 337.061C153.72 335.151 154.05 333.481 155 332.061C154.82 335.791 155.16 339.461 156 343.061C148.61 343.531 141.28 343.531 134 343.061C133.33 351.031 133.33 359.031 134 367.061C147.34 366.771 160.67 366.271 174 365.561C175.56 365.351 176.89 364.851 178 364.061C184.07 366.411 190.07 368.751 196 371.061C175.63 371.331 155.3 372.331 135 374.061C136.65 379.271 137.65 384.601 138 390.061C197.32 391.031 256.65 391.031 316 390.061C317.44 382.791 318.44 375.461 319 368.061C301.55 367.911 284.21 368.241 267 369.061C271.25 366.821 275.25 364.151 279 361.061C292.18 361.801 305.52 362.471 319 363.061C319 356.391 319 349.731 319 343.061C310.33 342.821 301.66 342.491 293 342.061C292.83 339.941 293.16 337.941 294 336.061C302.34 336.511 310.67 336.681 319 336.561C319.96 332.831 320.29 329.001 320 325.061C311.65 325.081 303.32 324.751 295 324.061C295.31 327.271 294.98 330.271 294 333.061C294 329.391 294 325.731 294 322.061C298.32 320.761 298.99 318.421 296 315.061C315.02 315.281 334.02 314.781 353 313.561C354.44 312.571 355.44 311.241 356 309.561C349.93 268.021 340.59 227.191 328 187.061C304.34 186.131 280.67 185.471 257 185.061C259.76 183.481 262.43 181.651 265 179.561C279.69 179.191 294.36 179.691 309 181.061C311.83 180.551 314.17 179.221 316 177.061C321.68 176.891 327.34 177.061 333 177.561C334.88 179.811 336.38 182.311 337.5 185.061C349.43 223.731 358.43 263.061 364.5 303.061C366.89 311.581 364.39 318.081 357 322.561C348.07 323.941 339.07 324.441 330 324.061C329.25 329.021 328.91 334.021 329 339.061C325.42 334.931 322.42 335.261 320 340.061C322.61 344.011 325.61 347.681 329 351.061C328.39 357.381 328.06 363.711 328 370.061C326.36 370.881 324.69 371.711 323 372.561C321.88 376.911 322.88 380.741 326 384.061C327.6 394.291 323.26 399.461 313 399.561C300.67 400.061 288.34 400.231 276 400.061C272.33 400.061 268.67 400.061 265 400.061C263.2 399.401 261.2 399.061 259 399.061C236.01 399.891 213.01 400.551 190 401.061C186.89 401.301 183.89 400.961 181 400.061C165.66 400.231 150.33 400.061 135 399.561C133.17 399.291 131.67 398.451 130.5 397.061C129.47 393.091 128.64 389.091 128 385.061C129.34 382.721 130.68 380.391 132 378.061C131.04 374.121 128.71 371.451 125 370.061C124.52 364.741 124.19 359.401 124 354.061C126.41 350.981 128.41 347.651 130 344.061C128.34 340.401 126 340.071 123 343.061C122.12 336.741 121.29 330.411 120.5 324.061C112.75 323.241 104.91 322.741 96.9995 322.561C86.3795 320.141 82.2095 313.641 84.4995 303.061C85.5295 294.931 87.1995 286.931 89.4995 279.061C98.5195 248.301 107.86 217.631 117.5 187.061C119.3 183.631 121.46 180.471 124 177.561C129.59 176.271 135.26 175.771 141 176.061Z" fill="#B92A2A"/>
<path fill-rule="evenodd" clip-rule="evenodd" d="M293 342.062C301.66 342.492 310.33 342.822 319 343.062C319 349.732 319 356.392 319 363.062C305.52 362.472 292.18 361.802 279 361.062C285.24 355.832 289.91 349.502 293 342.062Z" fill="#FE3B25"/>
<path fill-rule="evenodd" clip-rule="evenodd" d="M156.001 343.062C160.071 353.462 167.401 360.462 178.001 364.062C176.891 364.852 175.561 365.352 174.001 365.562C160.671 366.272 147.341 366.772 134.001 367.062C133.331 359.032 133.331 351.032 134.001 343.062C141.281 343.532 148.611 343.532 156.001 343.062Z" fill="#FE3C25"/>
<path fill-rule="evenodd" clip-rule="evenodd" d="M294 336.062C294 335.062 294 334.062 294 333.062C294.98 330.272 295.31 327.272 295 324.062C303.32 324.752 311.65 325.082 320 325.062C320.29 329.002 319.96 332.832 319 336.562C310.67 336.682 302.34 336.512 294 336.062Z" fill="#FD3A25"/>
<path fill-rule="evenodd" clip-rule="evenodd" d="M150 327.061C151.42 328.011 153.09 328.341 155 328.061C155 329.391 155 330.731 155 332.061C154.05 333.481 153.72 335.151 154 337.061C149.13 336.871 144.29 337.201 139.5 338.061C136.77 336.941 133.94 336.281 131 336.061C130.83 331.381 130.5 326.711 130 322.061C136.38 321.851 142.71 322.191 149 323.061C148.73 324.661 149.07 325.991 150 327.061Z" fill="#FB3A25"/>
<path fill-rule="evenodd" clip-rule="evenodd" d="M155 328.061C153.09 328.341 151.42 328.011 150 327.061C149.84 324.701 150 322.371 150.5 320.061C151.83 317.901 153.33 315.901 155 314.061C157.98 311.231 161.32 308.901 165 307.061C177.48 299.421 190.14 299.081 203 306.061C204.96 310.961 207.46 315.631 210.5 320.061C211.9 323.631 212.24 327.301 211.5 331.061C205.91 346.431 195.08 352.931 179 350.561C171.18 346.741 166.35 340.571 164.5 332.061C164.07 328.011 164.07 324.011 164.5 320.061C161.17 322.561 158 325.231 155 328.061Z" fill="#050404"/>
<path fill-rule="evenodd" clip-rule="evenodd" d="M192 310.062C198.35 309.082 201.68 311.752 202 318.062C201.42 323.892 198.42 327.892 193 330.062C187.32 327.542 185.15 323.202 186.5 317.062C187.87 314.292 189.7 311.962 192 310.062Z" fill="#F7F7F7"/>
<path fill-rule="evenodd" clip-rule="evenodd" d="M290 312.061C292.02 313.091 294.02 314.091 296 315.061C298.99 318.421 298.32 320.761 294 322.061C289.52 320.851 285.35 318.851 281.5 316.061C281.5 318.731 281.5 321.391 281.5 324.061C276.22 347.611 262.72 354.451 241 344.561C238.04 341.691 236.2 338.191 235.5 334.061C233.57 324.011 235.24 314.681 240.5 306.061C246.17 300.351 253 298.521 261 300.561C267.95 302.761 274.95 304.761 282 306.561C284.87 308.161 287.54 309.991 290 312.061Z" fill="#040404"/>
<path fill-rule="evenodd" clip-rule="evenodd" d="M248.999 306.061C254.129 305.621 256.799 307.951 256.999 313.061C257.939 322.461 253.939 326.131 244.999 324.061C239.849 320.471 239.019 316.141 242.499 311.061C245.189 309.981 247.349 308.311 248.999 306.061Z" fill="#F4F4F4"/>
<path fill-rule="evenodd" clip-rule="evenodd" d="M290 312.062C287.54 309.992 284.87 308.162 282 306.562C274.95 304.762 267.95 302.762 261 300.562C253 298.522 246.17 300.352 240.5 306.062C235.24 314.682 233.57 324.012 235.5 334.062C236.2 338.192 238.04 341.692 241 344.562C262.72 354.452 276.22 347.612 281.5 324.062C281.5 321.392 281.5 318.732 281.5 316.062C285.35 318.852 289.52 320.852 294 322.062C294 325.732 294 329.392 294 333.062C294 334.062 294 335.062 294 336.062C293.16 337.942 292.83 339.942 293 342.062C289.91 349.502 285.24 355.832 279 361.062C275.25 364.152 271.25 366.822 267 369.062C243.51 374.942 219.84 375.602 196 371.062C190.07 368.752 184.07 366.412 178 364.062C167.4 360.462 160.07 353.462 156 343.062C155.16 339.462 154.82 335.792 155 332.062C155 330.732 155 329.392 155 328.062C158 325.232 161.17 322.562 164.5 320.062C164.07 324.012 164.07 328.012 164.5 332.062C166.35 340.572 171.18 346.742 179 350.562C195.08 352.932 205.91 346.432 211.5 331.062C212.24 327.302 211.9 323.632 210.5 320.062C207.46 315.632 204.96 310.962 203 306.062C190.14 299.082 177.48 299.422 165 307.062C178.48 291.892 195.48 284.222 216 284.062C234.51 284.332 252.51 287.502 270 293.562C279.07 297.242 285.74 303.412 290 312.062Z" fill="#FCFBFB"/>
<path fill-rule="evenodd" clip-rule="evenodd" d="M172 184.062C196.03 183.772 220.03 184.102 244 185.062C248.36 186.212 252.69 186.212 257 185.062C280.67 185.472 304.34 186.132 328 187.062C340.59 227.192 349.93 268.022 356 309.562C355.44 311.242 354.44 312.572 353 313.562C334.02 314.782 315.02 315.282 296 315.062C294.02 314.092 292.02 313.092 290 312.062C285.74 303.412 279.07 297.242 270 293.562C252.51 287.502 234.51 284.332 216 284.062C195.48 284.222 178.48 291.892 165 307.062C161.32 308.902 157.98 311.232 155 314.062C135.68 313.322 116.35 312.822 97 312.562C94.76 311.832 93.43 310.332 93 308.062C94.65 297.962 96.81 287.962 99.5 278.062C108.64 247.662 117.97 217.322 127.5 187.062C128.9 186.332 130.4 185.832 132 185.562C139.99 185.062 147.99 184.892 156 185.062C152.8 197.842 151.13 210.842 151 224.062C142.94 224.292 134.94 224.292 127 224.062C123.98 224.942 123.32 226.772 125 229.562C126.37 230.432 127.87 230.932 129.5 231.062C136.72 229.782 143.89 229.782 151 231.062C151.4 238.512 152.57 245.852 154.5 253.062C156.24 258.022 159.74 260.682 165 261.062C146.82 262.052 128.49 262.222 110 261.562C108.67 263.232 108.67 264.892 110 266.562C145.31 268.002 180.64 269.002 216 269.562C220.69 270.062 225.36 270.732 230 271.562C249.68 271.852 269.35 272.522 289 273.562C308.01 274.232 327.01 274.072 346 273.062C346.39 268.072 344.05 266.072 339 267.062C332.85 267.602 326.68 267.942 320.5 268.062C291 267.122 261.5 266.292 232 265.562C212.73 263.502 193.4 262.502 174 262.562C172.12 262.362 170.45 261.862 169 261.062C170 261.152 170.83 260.812 171.5 260.062C175.5 250.172 177 239.842 176 229.062C210.53 228.662 245.03 229.332 279.5 231.062C283.17 230.732 286.83 230.392 290.5 230.062C303.68 231.452 316.84 232.792 330 234.062C333.94 231.792 333.94 229.622 330 227.562C323.65 226.462 317.32 226.292 311 227.062C300.63 224.212 290.13 223.542 279.5 225.062C244.69 223.302 209.86 222.632 175 223.062C173.93 210.072 172.93 197.072 172 184.062Z" fill="#FE3B25"/>
<path fill-rule="evenodd" clip-rule="evenodd" d="M164.999 261.062C166.329 261.062 167.669 261.062 168.999 261.062C170.449 261.862 172.119 262.362 173.999 262.562C193.399 262.502 212.729 263.502 231.999 265.562C261.499 266.292 290.999 267.122 320.499 268.062C326.679 267.942 332.849 267.602 338.999 267.062C344.049 266.072 346.389 268.072 345.999 273.062C327.009 274.072 308.009 274.232 288.999 273.562C269.349 272.522 249.679 271.852 229.999 271.562C225.359 270.732 220.689 270.062 215.999 269.562C180.639 269.002 145.309 268.002 109.999 266.562C108.669 264.892 108.669 263.232 109.999 261.562C128.489 262.222 146.819 262.052 164.999 261.062Z" fill="#BA2929"/>
<path fill-rule="evenodd" clip-rule="evenodd" d="M150.999 224.062C150.999 226.392 150.999 228.732 150.999 231.062C143.889 229.782 136.719 229.782 129.499 231.062C127.869 230.932 126.369 230.432 124.999 229.562C123.319 226.772 123.979 224.942 126.999 224.062C134.939 224.292 142.939 224.292 150.999 224.062Z" fill="#B92929"/>
<path fill-rule="evenodd" clip-rule="evenodd" d="M175 223.062C209.86 222.632 244.69 223.302 279.5 225.062C290.13 223.542 300.63 224.212 311 227.062C317.32 226.292 323.65 226.462 330 227.562C333.94 229.622 333.94 231.792 330 234.062C316.84 232.792 303.68 231.452 290.5 230.062C286.83 230.392 283.17 230.732 279.5 231.062C245.03 229.332 210.53 228.662 176 229.062C175.67 227.062 175.33 225.062 175 223.062Z" fill="#BA2929"/>
<path fill-rule="evenodd" clip-rule="evenodd" d="M244 185.062C220.03 184.102 196.03 183.772 172 184.062C172 183.062 172 182.062 172 181.062C192.63 179.192 213.29 178.692 234 179.562C237.73 180.822 241.07 182.662 244 185.062Z" fill="#B82A2A"/>
<path fill-rule="evenodd" clip-rule="evenodd" d="M237 352.061C239.63 351.851 241.29 353.021 242 355.561C240.17 360.401 237.17 364.401 233 367.561C231.67 368.231 230.33 368.231 229 367.561C224.76 365.861 220.59 364.021 216.5 362.061C215 356.891 216.83 355.061 222 356.561C224.57 359.021 227.57 360.021 231 359.561C233.13 357.121 235.13 354.621 237 352.061Z" fill="#0F0F0F"/>
<path fill-rule="evenodd" clip-rule="evenodd" d="M407 368.061C405.87 368.681 404.87 369.521 404 370.561C402.13 371.271 400.63 370.771 399.5 369.061C399 366.081 398.84 363.081 399 360.061C399.58 357.911 400.74 357.581 402.5 359.061C403 361.031 403.16 363.031 403 365.061C405.47 364.651 406.81 365.651 407 368.061Z" fill="#0E0C06"/>
<path fill-rule="evenodd" clip-rule="evenodd" d="M391 364.062C391.65 366.002 391.98 368.002 392 370.062C390.95 370.212 389.95 370.042 389 369.562C387.47 367.212 385.8 365.042 384 363.062C382.8 361.212 383.47 360.212 386 360.062C388.29 360.692 389.95 362.022 391 364.062Z" fill="#10100D"/>
<path fill-rule="evenodd" clip-rule="evenodd" d="M399 360.062C398.84 363.082 399 366.082 399.5 369.062C400.63 370.772 402.13 371.272 404 370.562C404.87 369.522 405.87 368.682 407 368.062C407.67 368.062 408.33 368.062 409 368.062C402.98 373.992 404.31 377.322 413 378.062C413.13 379.852 412.8 381.522 412 383.062C409.78 382.192 407.45 381.862 405 382.062C404.83 383.382 405.16 384.552 406 385.562C408.67 386.232 411.01 387.402 413 389.062C413.17 390.052 412.84 390.722 412 391.062C410 391.062 408 391.062 406 391.062C405.83 392.382 406.16 393.552 407 394.562C409.7 395.402 412.37 396.232 415 397.062C415 397.392 415 397.732 415 398.062C396.8 394.432 389.63 401.432 393.5 419.062C392.5 420.392 391.5 420.392 390.5 419.062C390.17 416.392 389.83 413.732 389.5 411.062C388.45 410.042 387.28 409.882 386 410.562C384.67 412.892 384.67 415.232 386 417.562C384.47 420.472 383.47 423.632 383 427.062C382.08 427.692 381.08 428.022 380 428.062C379.67 428.062 379.33 428.062 379 428.062C379.16 425.372 379 422.712 378.5 420.062C376.94 418.832 375.77 417.332 375 415.562C377.84 409.722 379.17 403.552 379 397.062C382.72 397.002 386.39 396.502 390 395.562C391.76 394.842 392.59 393.672 392.5 392.062C381.18 396.612 370.68 395.112 361 387.562C361.49 385.582 362.49 383.912 364 382.562C369.73 380.892 375.23 378.722 380.5 376.062C381.43 372.702 380.93 369.702 379 367.062C380.85 365.972 382.52 364.632 384 363.062C385.8 365.042 387.47 367.212 389 369.562C389.95 370.042 390.95 370.212 392 370.062C391.98 368.002 391.65 366.002 391 364.062C393.86 363.222 396.53 361.892 399 360.062Z" fill="#F9DE1E"/>
<path fill-rule="evenodd" clip-rule="evenodd" d="M378.999 367.062C380.929 369.702 381.429 372.702 380.499 376.062C375.229 378.722 369.729 380.892 363.999 382.562C362.489 383.912 361.489 385.582 360.999 387.562C370.679 395.112 381.179 396.612 392.499 392.062C392.589 393.672 391.759 394.842 389.999 395.562C386.389 396.502 382.719 397.002 378.999 397.062C379.169 403.552 377.839 409.722 374.999 415.562C375.769 417.332 376.939 418.832 378.499 420.062C378.999 422.712 379.159 425.372 378.999 428.062C375.599 427.742 372.269 428.072 368.999 429.062C372.929 430.442 376.599 430.112 379.999 428.062C381.079 428.022 382.079 427.692 382.999 427.062C383.469 423.632 384.469 420.472 385.999 417.562C384.669 415.232 384.669 412.892 385.999 410.562C387.279 409.882 388.449 410.042 389.499 411.062C389.829 413.732 390.169 416.392 390.499 419.062C391.499 420.392 392.499 420.392 393.499 419.062C389.629 401.432 396.799 394.432 414.999 398.062C416.229 399.572 416.229 401.072 414.999 402.562C411.859 402.302 408.699 401.802 405.499 401.062C402.409 401.462 399.749 402.802 397.499 405.062C397.529 410.452 397.369 415.782 396.999 421.062C400.959 421.892 404.959 422.392 408.999 422.562C414.149 424.272 416.489 427.602 415.999 432.562C408.559 436.652 402.059 435.482 396.499 429.062C396.959 436.272 393.629 439.272 386.499 438.062C382.609 437.972 378.779 437.472 374.999 436.562C371.679 434.152 368.019 432.482 363.999 431.562C362.669 429.562 362.669 427.562 363.999 425.562C367.639 424.652 371.309 423.812 374.999 423.062C372.229 421.362 370.899 418.862 370.999 415.562C372.459 411.122 373.799 406.622 374.999 402.062C374.859 400.452 374.199 399.122 372.999 398.062C366.879 397.092 361.719 394.422 357.499 390.062C356.879 385.452 358.379 381.622 361.999 378.562C366.599 376.872 371.269 375.372 375.999 374.062C377.079 373.202 377.249 372.202 376.499 371.062C375.059 369.692 373.389 368.692 371.499 368.062C370.879 367.112 371.049 366.282 371.999 365.562C374.569 364.952 376.899 365.452 378.999 367.062Z" fill="#0E0D0A"/>
<path fill-rule="evenodd" clip-rule="evenodd" d="M413 378.062C404.31 377.322 402.98 373.992 409 368.062C410.63 365.412 412.29 365.412 414 368.062C413.37 369.822 412.37 371.322 411 372.562C412.98 373.042 414.31 374.212 415 376.062C414.75 377.272 414.09 377.942 413 378.062Z" fill="#0F100F"/>
<path fill-rule="evenodd" clip-rule="evenodd" d="M196 371.062C219.84 375.602 243.51 374.942 267 369.062C284.21 368.242 301.55 367.912 319 368.062C318.44 375.462 317.44 382.792 316 390.062C256.65 391.032 197.32 391.032 138 390.062C137.65 384.602 136.65 379.272 135 374.062C155.3 372.332 175.63 371.332 196 371.062Z" fill="#FE3B25"/>
<path fill-rule="evenodd" clip-rule="evenodd" d="M377 381.061C378.37 380.901 379.71 381.071 381 381.561C378.48 383.361 375.81 383.861 373 383.061C374.45 382.391 375.78 381.721 377 381.061Z" fill="#191505"/>
<path fill-rule="evenodd" clip-rule="evenodd" d="M412 383.061C416.7 384.761 417.04 386.761 413 389.061C411.01 387.401 408.67 386.231 406 385.561C405.16 384.551 404.83 383.381 405 382.061C407.45 381.861 409.78 382.191 412 383.061Z" fill="#121210"/>
<path fill-rule="evenodd" clip-rule="evenodd" d="M387 383.062C389.8 383.632 392.14 384.962 394 387.062C393.5 388.082 392.83 388.252 392 387.562C389.81 386.492 388.14 384.992 387 383.062Z" fill="#231E0B"/>
<path fill-rule="evenodd" clip-rule="evenodd" d="M412 391.062C413.91 391.772 415.58 392.942 417 394.562C416.86 395.862 416.19 396.692 415 397.062C412.37 396.232 409.7 395.402 407 394.562C406.16 393.552 405.83 392.382 406 391.062C408 391.062 410 391.062 412 391.062Z" fill="#0B0A04"/>
<path fill-rule="evenodd" clip-rule="evenodd" d="M265 400.062C268.67 400.062 272.33 400.062 276 400.062C276.88 406.682 277.21 413.352 277 420.062C283.83 418.732 286.99 421.402 286.5 428.062C286 428.562 285.5 429.062 285 429.562C279.33 430.462 273.83 429.962 268.5 428.062C268.89 418.602 267.72 409.262 265 400.062Z" fill="#07090B"/>
<path fill-rule="evenodd" clip-rule="evenodd" d="M181.001 400.062C183.891 400.962 186.891 401.302 190.001 401.062C189.981 410.802 189.141 420.472 187.501 430.062C180.431 434.042 173.431 434.042 166.501 430.062C165.831 428.392 165.831 426.732 166.501 425.062C170.871 423.552 175.371 422.552 180.001 422.062C180.051 414.712 180.381 407.382 181.001 400.062Z" fill="#030304"/>
<path fill-rule="evenodd" clip-rule="evenodd" d="M400 427.062C404.44 425.292 408.44 426.122 412 429.562C409.8 430.932 407.47 431.272 405 430.562C403.3 429.382 401.64 428.222 400 427.062Z" fill="#EAD720"/>
<path fill-rule="evenodd" clip-rule="evenodd" d="M379 428.061C379.33 428.061 379.67 428.061 380 428.061C376.6 430.111 372.93 430.441 369 429.061C372.27 428.071 375.6 427.741 379 428.061Z" fill="#8B7A1C"/>
<path fill-rule="evenodd" clip-rule="evenodd" d="M388 423.062C391.59 425.372 392.76 428.702 391.5 433.062C387.99 434.332 384.49 434.162 381 432.562C383.16 431.652 385.33 430.812 387.5 430.062C388 427.752 388.16 425.422 388 423.062Z" fill="#ECD920"/>
</svg>
