<svg width="500" height="500" viewBox="0 0 500 500" fill="none" xmlns="http://www.w3.org/2000/svg">
<path fill-rule="evenodd" clip-rule="evenodd" d="M335 126.062C339.69 132.112 343.36 138.782 346 146.062C345.76 147.962 344.76 149.302 343 150.062C337.95 147.192 333.28 143.692 329 139.562C315.2 126.762 301.7 113.592 288.5 100.062C283.59 93.9017 278.92 87.5717 274.5 81.0617C273.89 79.4117 273.39 77.7417 273 76.0617C275.61 74.7617 278.27 74.9217 281 76.5617C302.65 89.0417 320.65 105.542 335 126.062Z" fill="#3CA542"/>
<path fill-rule="evenodd" clip-rule="evenodd" d="M273.001 76.0616C273.391 77.7416 273.891 79.4116 274.501 81.0616C278.921 87.5716 283.591 93.9016 288.501 100.062C301.701 113.592 315.201 126.762 329.001 139.562C333.281 143.692 337.951 147.192 343.001 150.062C340.741 152.442 340.411 155.112 342.001 158.062C337.331 157.062 332.671 156.062 328.001 155.062C322.491 152.552 316.821 150.222 311.001 148.062C307.401 145.582 303.731 143.082 300.001 140.562C296.801 137.192 293.461 134.022 290.001 131.062C284.251 123.982 278.911 116.652 274.001 109.062C269.721 99.8516 268.221 90.1816 269.501 80.0616C270.161 78.2416 271.331 76.9016 273.001 76.0616Z" fill="#3B923E"/>
<path fill-rule="evenodd" clip-rule="evenodd" d="M274 109.062C278.91 116.652 284.25 123.982 290 131.062C288.23 134.802 287.4 138.802 287.5 143.062C293.5 151.062 299.5 159.062 305.5 167.062C304.63 172.232 305.96 176.902 309.5 181.062C310.65 192.532 312.65 203.862 315.5 215.062C317.63 217.362 319.13 220.032 320 223.062C319.79 225.612 319.46 228.112 319 230.562C320.79 233.362 322.96 235.862 325.5 238.062C328.7 243.212 329.53 248.872 328 255.062C326.87 257.902 325.87 260.902 325 264.062C327.83 275.602 331.17 287.272 335 299.062C328.25 300.102 322.25 302.772 317 307.062C319.45 295.492 321.78 283.832 324 272.062C321.7 267.932 319.2 263.932 316.5 260.062C315.01 258.562 313.18 257.722 311 257.562C312.26 246.222 312.76 234.722 312.5 223.062C310.5 219.732 308.5 216.392 306.5 213.062C304.9 206.912 302.9 200.912 300.5 195.062C300.63 192.072 300.63 189.072 300.5 186.062C297.18 179.762 292.68 174.432 287 170.062C285.79 168.842 285.79 167.672 287 166.562C278.55 154.182 269.72 142.012 260.5 130.062C257.3 124.322 254.63 118.322 252.5 112.062C250.22 111.442 248.06 110.782 246 110.062C255.15 109.072 264.49 108.732 274 109.062Z" fill="#FC852A"/>
<path fill-rule="evenodd" clip-rule="evenodd" d="M368.001 151.061C362.541 155.351 357.211 159.851 352.001 164.561C346.481 165.891 343.151 163.721 342.001 158.061C340.411 155.111 340.741 152.441 343.001 150.061C344.761 149.301 345.761 147.961 346.001 146.061C349.051 143.641 351.381 140.641 353.001 137.061C357.051 132.651 360.891 127.981 364.501 123.061C367.051 119.201 370.551 117.701 375.001 118.561C377.671 120.561 380.331 122.561 383.001 124.561C386.051 127.011 386.551 129.841 384.501 133.061C378.481 138.581 372.981 144.581 368.001 151.061Z" fill="#8E4C32"/>
<path fill-rule="evenodd" clip-rule="evenodd" d="M335 126.062C341.64 128.712 347.64 132.382 353 137.062C351.38 140.642 349.05 143.642 346 146.062C343.36 138.782 339.69 132.112 335 126.062Z" fill="#EF5F21"/>
<path fill-rule="evenodd" clip-rule="evenodd" d="M202 127.062C216.11 142.292 233.11 153.452 253 160.562C254.83 162.392 256.67 164.232 258.5 166.062C261.05 183.472 258.89 200.302 252 216.562C252.65 218.002 252.98 219.502 253 221.062C246.09 219.412 239.09 218.412 232 218.062C230.21 217.252 228.21 216.752 226 216.562C229.41 215.292 231.58 212.792 232.5 209.062C233.32 206.452 233.82 203.792 234 201.062C229.46 187.622 224.29 174.282 218.5 161.062C202.53 144.822 186.36 143.992 170 158.562C170.85 160.122 170.18 161.122 168 161.562C168.65 163.172 168.15 164.672 166.5 166.062C165.09 169.622 164.09 173.282 163.5 177.062C160.34 180.722 157.67 184.722 155.5 189.062C151.77 185.812 147.93 182.812 144 180.062C146.24 175.922 148.74 171.922 151.5 168.062C160.67 158.892 169.83 149.732 179 140.562C186.37 135.542 194.03 131.042 202 127.062Z" fill="#FCC558"/>
<path fill-rule="evenodd" clip-rule="evenodd" d="M311 148.062C316.82 150.222 322.49 152.552 328 155.062C328.55 157.832 329.88 160.162 332 162.062C335.15 164.712 338.15 167.542 341 170.562C337.98 184.322 337.64 198.152 340 212.062C337.67 210.062 335.33 208.062 333 206.062C326.07 193.192 317.9 181.192 308.5 170.062C307.92 167.912 307.42 165.742 307 163.562C308.28 158.242 309.61 153.082 311 148.062Z" fill="#FC6925"/>
<path fill-rule="evenodd" clip-rule="evenodd" d="M220 118.062C223.37 119.912 226.87 121.572 230.5 123.062C231.5 122.732 232.5 122.392 233.5 122.062C243.9 126.472 250.9 134.132 254.5 145.062C256.84 149.902 258.67 154.902 260 160.062C267.48 159.942 273.98 162.272 279.5 167.062C282.43 173.012 284.09 179.342 284.5 186.062C286.21 187.442 287.55 189.102 288.5 191.062C289.32 203.182 288.49 215.182 286 227.062C289.76 226.652 293.43 226.652 297 227.062C295.36 231.012 293.03 234.342 290 237.062C281.55 230.002 271.88 225.332 261 223.062C260.89 222.442 260.56 221.942 260 221.562C267.23 202.322 267.9 182.822 262 163.062C259.93 162.432 258.1 161.432 256.5 160.062C254.82 156.702 253.15 153.362 251.5 150.062C245.95 144.512 240.45 139.012 235 133.562C226 128.062 216.33 125.232 206 125.062C210.67 122.732 215.33 120.392 220 118.062Z" fill="#FFAB3D"/>
<path fill-rule="evenodd" clip-rule="evenodd" d="M206 125.062C216.33 125.232 226 128.062 235 133.562C240.45 139.012 245.95 144.512 251.5 150.062C253.15 153.362 254.82 156.702 256.5 160.062C258.1 161.432 259.93 162.432 262 163.062C267.9 182.822 267.23 202.322 260 221.562C260.56 221.942 260.89 222.442 261 223.062C258.33 222.392 255.67 221.732 253 221.062C252.98 219.502 252.65 218.002 252 216.562C258.89 200.302 261.05 183.472 258.5 166.062C256.67 164.232 254.83 162.392 253 160.562C233.11 153.452 216.11 142.292 202 127.062C203.33 126.392 204.67 125.732 206 125.062Z" fill="#FDBA4E"/>
<path fill-rule="evenodd" clip-rule="evenodd" d="M232 218.061C211.58 217.251 192.58 221.911 175 232.061C166.03 225.901 156.36 220.741 146 216.561C141.64 211.221 136.3 208.391 130 208.061C133.63 198.131 138.3 188.801 144 180.061C147.93 182.811 151.77 185.811 155.5 189.061C157.67 184.721 160.34 180.721 163.5 177.061C164.09 173.281 165.09 169.621 166.5 166.061C168.15 164.671 168.65 163.171 168 161.561C170.18 161.121 170.85 160.121 170 158.561C186.36 143.991 202.53 144.821 218.5 161.061C224.29 174.281 229.46 187.621 234 201.061C233.82 203.791 233.32 206.451 232.5 209.061C231.58 212.791 229.41 215.291 226 216.561C228.21 216.751 230.21 217.251 232 218.061Z" fill="#FAD263"/>
<path fill-rule="evenodd" clip-rule="evenodd" d="M290 131.062C293.46 134.022 296.8 137.192 300 140.562C303.73 143.082 307.4 145.582 311 148.062C309.61 153.082 308.28 158.242 307 163.562C307.42 165.742 307.92 167.912 308.5 170.062C317.9 181.192 326.07 193.192 333 206.062C333.76 213.052 333.92 220.052 333.5 227.062C331.17 236.412 329.34 245.752 328 255.062C329.53 248.872 328.7 243.212 325.5 238.062C322.96 235.862 320.79 233.362 319 230.562C319.46 228.112 319.79 225.612 320 223.062C319.13 220.032 317.63 217.362 315.5 215.062C312.65 203.862 310.65 192.532 309.5 181.062C305.96 176.902 304.63 172.232 305.5 167.062C299.5 159.062 293.5 151.062 287.5 143.062C287.4 138.802 288.23 134.802 290 131.062Z" fill="#FE7526"/>
<path fill-rule="evenodd" clip-rule="evenodd" d="M368 151.062C371.68 154.592 374.85 158.592 377.5 163.062C391.91 188.272 397.58 215.272 394.5 244.062C388.89 264.072 381.06 283.072 371 301.062C368.7 299.302 366.03 298.132 363 297.562C356.71 296.452 350.38 295.952 344 296.062C346.91 287.082 350.24 278.252 354 269.562C350.83 267.052 347.99 264.222 345.5 261.062C344.38 254.112 343.71 247.112 343.5 240.062C342.84 234.262 341.67 228.602 340 223.062C341.07 219.412 341.07 215.742 340 212.062C337.64 198.152 337.98 184.322 341 170.562C338.15 167.542 335.15 164.712 332 162.062C329.88 160.162 328.55 157.832 328 155.062C332.67 156.062 337.33 157.062 342 158.062C343.15 163.722 346.48 165.892 352 164.562C357.21 159.852 362.54 155.352 368 151.062Z" fill="#DF541C"/>
<path fill-rule="evenodd" clip-rule="evenodd" d="M246 110.062C248.06 110.782 250.22 111.442 252.5 112.062C254.63 118.322 257.3 124.322 260.5 130.062C269.72 142.012 278.55 154.182 287 166.562C285.79 167.672 285.79 168.842 287 170.062C292.68 174.432 297.18 179.762 300.5 186.062C300.63 189.072 300.63 192.072 300.5 195.062C302.9 200.912 304.9 206.912 306.5 213.062C308.5 216.392 310.5 219.732 312.5 223.062C312.76 234.722 312.26 246.222 311 257.562C313.18 257.722 315.01 258.562 316.5 260.062C319.2 263.932 321.7 267.932 324 272.062C321.78 283.832 319.45 295.492 317 307.062C316.57 312.232 315.9 317.232 315 322.062C314.09 317.882 313.26 313.552 312.5 309.062C311.55 305.452 310.05 302.112 308 299.062C310.45 291.592 311.78 283.922 312 276.062C317.75 278.632 320.25 276.972 319.5 271.062C315.84 268.492 312.34 265.832 309 263.062C307.29 257.972 304.79 253.302 301.5 249.062C297.46 245.192 293.63 241.192 290 237.062C293.03 234.342 295.36 231.012 297 227.062C293.43 226.652 289.76 226.652 286 227.062C288.49 215.182 289.32 203.182 288.5 191.062C287.55 189.102 286.21 187.442 284.5 186.062C284.09 179.342 282.43 173.012 279.5 167.062C273.98 162.272 267.48 159.942 260 160.062C258.67 154.902 256.84 149.902 254.5 145.062C250.9 134.132 243.9 126.472 233.5 122.062C232.5 122.392 231.5 122.732 230.5 123.062C226.87 121.572 223.37 119.912 220 118.062C228.09 113.592 236.76 110.922 246 110.062Z" fill="#FC972F"/>
<path fill-rule="evenodd" clip-rule="evenodd" d="M232 218.062C239.09 218.412 246.09 219.412 253 221.062C255.67 221.732 258.33 222.392 261 223.062C271.88 225.332 281.55 230.002 290 237.062C293.63 241.192 297.46 245.192 301.5 249.062C304.79 253.302 307.29 257.972 309 263.062C306.38 260.412 303.38 258.252 300 256.562C292.46 254.462 285.13 251.792 278 248.562C272.71 247.232 267.37 246.572 262 246.562C252.77 250.132 246.6 256.632 243.5 266.062C236.35 294.982 247.51 308.812 277 307.562C282.46 305.752 286.96 302.582 290.5 298.062C293.94 292.292 296.94 286.292 299.5 280.062C299.68 276.682 300.18 273.342 301 270.062C304.28 273.062 307.94 275.062 312 276.062C311.78 283.922 310.45 291.592 308 299.062C304.54 306.862 299.54 313.532 293 319.062C282.95 325.092 272.28 329.432 261 332.062C260.26 332.192 259.59 332.022 259 331.562C261.08 330.062 262.42 328.062 263 325.562C262.77 323.832 261.77 322.992 260 323.062C257.41 324.302 255.08 325.972 253 328.062C250.8 326.782 248.63 326.782 246.5 328.062C246.11 330.862 247.28 332.862 250 334.062C234.11 337.912 218.11 337.912 202 334.062C202.11 333.442 202.44 332.942 203 332.562C205 332.232 207 331.892 209 331.562C211.02 330.002 211.35 328.172 210 326.062C208.06 325.372 206.06 324.872 204 324.562C201.97 322.332 199.64 320.502 197 319.062C193.35 321.202 193.02 323.862 196 327.062C194.98 328.752 193.65 330.082 192 331.062C177.66 323.902 165.16 314.232 154.5 302.062C152.13 298.652 150.29 294.982 149 291.062C146.81 283.822 146.47 276.492 148 269.062C150.59 266.742 153.26 264.412 156 262.062C157.07 263.752 156.9 265.412 155.5 267.062C153.98 280.182 158.14 291.022 168 299.562C182.26 306.142 194.76 303.642 205.5 292.062C207.44 288.452 209.78 285.122 212.5 282.062C215.31 273.662 213.97 265.992 208.5 259.062C208.43 251.312 204.6 246.482 197 244.562C191.2 243.132 185.37 241.972 179.5 241.062C173.17 241.692 167 243.022 161 245.062C165.07 239.992 169.73 235.662 175 232.062C192.58 221.912 211.58 217.252 232 218.062Z" fill="#FCFCFB"/>
<path fill-rule="evenodd" clip-rule="evenodd" d="M175 232.062C169.73 235.662 165.07 239.992 161 245.062C152.61 248.282 145.44 253.282 139.5 260.062C135.26 270.282 138.09 273.282 148 269.062C146.47 276.492 146.81 283.822 149 291.062C148.28 291.482 147.78 292.142 147.5 293.062C135.68 281.562 125.68 268.562 117.5 254.062C117.26 255.682 116.43 256.682 115 257.062C117.79 240.032 122.79 223.702 130 208.062C136.3 208.392 141.64 211.222 146 216.562C156.36 220.742 166.03 225.902 175 232.062Z" fill="#E5D147"/>
<path fill-rule="evenodd" clip-rule="evenodd" d="M148.001 269.062C138.091 273.282 135.261 270.282 139.501 260.062C145.441 253.282 152.611 248.282 161.001 245.062C167.001 243.022 173.171 241.692 179.501 241.062C185.371 241.972 191.201 243.132 197.001 244.562C204.601 246.482 208.431 251.312 208.501 259.062C213.971 265.992 215.311 273.662 212.501 282.062C209.781 285.122 207.441 288.452 205.501 292.062C194.761 303.642 182.261 306.142 168.001 299.562C158.141 291.022 153.981 280.182 155.501 267.062C156.901 265.412 157.071 263.752 156.001 262.062C153.261 264.412 150.591 266.742 148.001 269.062Z" fill="#040404"/>
<path fill-rule="evenodd" clip-rule="evenodd" d="M309 263.062C312.34 265.832 315.84 268.492 319.5 271.062C320.25 276.972 317.75 278.632 312 276.062C307.94 275.062 304.28 273.062 301 270.062C300.18 273.342 299.68 276.682 299.5 280.062C296.94 286.292 293.94 292.292 290.5 298.062C286.96 302.582 282.46 305.752 277 307.562C247.51 308.812 236.35 294.982 243.5 266.062C246.6 256.632 252.77 250.132 262 246.562C267.37 246.572 272.71 247.232 278 248.562C285.13 251.792 292.46 254.462 300 256.562C303.38 258.252 306.38 260.412 309 263.062Z" fill="#040303"/>
<path fill-rule="evenodd" clip-rule="evenodd" d="M333 206.062C335.33 208.062 337.67 210.062 340 212.062C341.07 215.742 341.07 219.412 340 223.062C341.67 228.602 342.84 234.262 343.5 240.062C343.71 247.112 344.38 254.112 345.5 261.062C347.99 264.222 350.83 267.052 354 269.562C350.24 278.252 346.91 287.082 344 296.062C350.38 295.952 356.71 296.452 363 297.562C366.03 298.132 368.7 299.302 371 301.062C366.08 308.652 360.08 315.312 353 321.062C352.92 318.632 351.92 316.632 350 315.062C346.01 314.422 342.84 312.092 340.5 308.062C338.11 309.162 337.61 308.502 339 306.062C337.57 303.672 336.24 301.332 335 299.062C331.17 287.272 327.83 275.602 325 264.062C325.87 260.902 326.87 257.902 328 255.062C329.34 245.752 331.17 236.412 333.5 227.062C333.92 220.052 333.76 213.052 333 206.062Z" fill="#E4661D"/>
<path fill-rule="evenodd" clip-rule="evenodd" d="M191 253.062C198.64 251.712 202.64 254.872 203 262.562C202.85 266.672 201.35 270.172 198.5 273.062C189.88 279.342 184.72 277.172 183 266.562C183.75 260.892 186.42 256.392 191 253.062Z" fill="#F7F7F7"/>
<path fill-rule="evenodd" clip-rule="evenodd" d="M261 254.062C266.98 253.872 270.31 256.702 271 262.562C270.03 266.012 269.2 269.512 268.5 273.062C263.78 277.932 258.78 278.262 253.5 274.062C252.07 271.482 250.9 268.812 250 266.062C250.08 264.262 250.58 262.592 251.5 261.062C254.65 258.582 257.81 256.252 261 254.062Z" fill="#F4F4F4"/>
<path fill-rule="evenodd" clip-rule="evenodd" d="M149 291.062C150.29 294.982 152.13 298.652 154.5 302.062C165.16 314.232 177.66 323.902 192 331.062C187.22 336.452 181.22 339.792 174 341.062C171.87 341.042 169.87 340.542 168 339.562C165.24 335.382 162.24 331.382 159 327.562C156.31 327.242 154.64 328.412 154 331.062C141.24 316.632 127.24 303.632 112 292.062C112.37 280.192 113.37 268.522 115 257.062C116.43 256.682 117.26 255.682 117.5 254.062C125.68 268.562 135.68 281.562 147.5 293.062C147.78 292.142 148.28 291.482 149 291.062Z" fill="#D9C02B"/>
<path fill-rule="evenodd" clip-rule="evenodd" d="M112 292.062C127.24 303.632 141.24 316.632 154 331.062C154.2 333.252 154.87 335.252 156 337.062C154.82 335.462 153.48 335.132 152 336.062C148.12 334.722 144.12 333.892 140 333.562C128.42 332.332 117.09 331.832 106 332.062C107.1 318.582 109.1 305.242 112 292.062Z" fill="#C3B32B"/>
<path fill-rule="evenodd" clip-rule="evenodd" d="M335 299.062C336.24 301.332 337.57 303.672 339 306.062C337.61 308.502 338.11 309.162 340.5 308.062C342.84 312.092 346.01 314.422 350 315.062C351.92 316.632 352.92 318.632 353 321.062C347.46 329.452 341.29 337.452 334.5 345.062C330.43 349.642 325.93 353.642 321 357.062C320.56 357.132 320.23 356.962 320 356.562C320.67 354.892 321.33 353.232 322 351.562C320.76 347.032 319.43 342.532 318 338.062C318.21 337.472 318.54 336.972 319 336.562C316.1 332.232 314.76 327.402 315 322.062C315.9 317.232 316.57 312.232 317 307.062C322.25 302.772 328.25 300.102 335 299.062Z" fill="#D9761F"/>
<path fill-rule="evenodd" clip-rule="evenodd" d="M239.999 310.062C246.169 308.732 248.339 311.072 246.499 317.062C243.619 321.612 239.779 325.112 234.999 327.562C232.949 327.882 230.949 327.552 228.999 326.562C224.479 324.032 219.979 321.532 215.499 319.062C214.079 315.122 215.419 312.792 219.499 312.062C223.219 313.442 226.719 315.272 229.999 317.562C231.669 318.232 233.329 318.232 234.999 317.562C236.909 315.162 238.579 312.662 239.999 310.062Z" fill="#0D0D0D"/>
<path fill-rule="evenodd" clip-rule="evenodd" d="M308 330.062C307.15 334.112 305.98 338.112 304.5 342.062C302.18 344.632 299.35 346.302 296 347.062C285.51 349.772 275.51 348.432 266 343.062C261.35 340.732 257.02 337.902 253 334.562C252.05 334.082 251.05 333.912 250 334.062C247.28 332.862 246.11 330.862 246.5 328.062C248.63 326.782 250.8 326.782 253 328.062C255.08 325.972 257.41 324.302 260 323.062C261.77 322.992 262.77 323.832 263 325.562C262.42 328.062 261.08 330.062 259 331.562C259.59 332.022 260.26 332.192 261 332.062C272.06 341.082 284.39 343.582 298 339.562C301.18 334.522 302.85 329.022 303 323.062C302.64 318.572 304.47 316.912 308.5 318.062C308.86 322.072 308.69 326.072 308 330.062Z" fill="#0A0703"/>
<path fill-rule="evenodd" clip-rule="evenodd" d="M202 334.062C193.41 339.522 184.41 344.192 175 348.062C171.52 348.382 168.19 347.882 165 346.562C161.77 343.502 158.77 340.332 156 337.062C154.87 335.252 154.2 333.252 154 331.062C154.64 328.412 156.31 327.242 159 327.562C162.24 331.382 165.24 335.382 168 339.562C169.87 340.542 171.87 341.042 174 341.062C181.22 339.792 187.22 336.452 192 331.062C193.65 330.082 194.98 328.752 196 327.062C193.02 323.862 193.35 321.202 197 319.062C199.64 320.502 201.97 322.332 204 324.562C206.06 324.872 208.06 325.372 210 326.062C211.35 328.172 211.02 330.002 209 331.562C207 331.892 205 332.232 203 332.562C202.44 332.942 202.11 333.442 202 334.062Z" fill="#070603"/>
<path fill-rule="evenodd" clip-rule="evenodd" d="M308 299.062C310.05 302.112 311.55 305.452 312.5 309.062C313.26 313.552 314.09 317.882 315 322.062C314.76 327.402 316.1 332.232 319 336.562C318.54 336.972 318.21 337.472 318 338.062C319.43 342.532 320.76 347.032 322 351.562C321.33 353.232 320.67 354.892 320 356.562C320.23 356.962 320.56 357.132 321 357.062C316.72 360.872 312.06 364.212 307 367.062C306.46 367.002 306.12 366.672 306 366.062C309.45 358.662 312.78 351.162 316 343.562C314.27 341.872 312.27 340.532 310 339.562C314.59 335.242 313.92 332.082 308 330.062C308.69 326.072 308.86 322.072 308.5 318.062C304.47 316.912 302.64 318.572 303 323.062C302.28 323.482 301.78 324.142 301.5 325.062C300.53 322.682 299.86 323.022 299.5 326.062C297.08 323.812 294.91 321.482 293 319.062C299.54 313.532 304.54 306.862 308 299.062Z" fill="#D88D23"/>
<path fill-rule="evenodd" clip-rule="evenodd" d="M293 319.062C294.91 321.482 297.08 323.812 299.5 326.062C299.86 323.022 300.53 322.682 301.5 325.062C301.78 324.142 302.28 323.482 303 323.062C302.85 329.022 301.18 334.522 298 339.562C284.39 343.582 272.06 341.082 261 332.062C272.28 329.432 282.95 325.092 293 319.062Z" fill="#D3A228"/>
<path fill-rule="evenodd" clip-rule="evenodd" d="M106 332.061C117.09 331.831 128.42 332.331 140 333.561C144.12 333.891 148.12 334.721 152 336.061C153.48 335.131 154.82 335.461 156 337.061C158.77 340.331 161.77 343.501 165 346.561C168.19 347.881 171.52 348.381 175 348.061C180.05 351.921 185.71 354.751 192 356.561C203.14 357.841 214.14 359.841 225 362.561C229.6 364.441 233.76 366.941 237.5 370.061C239.26 369.621 239.1 369.121 237 368.561C238.52 367.211 239.85 365.711 241 364.061C239.42 363.261 237.76 362.761 236 362.561C238.78 362.491 240.94 361.331 242.5 359.061C244.55 354.781 246.72 350.621 249 346.561C253.7 346.211 258.36 345.711 263 345.061C256.03 349.871 250.19 355.871 245.5 363.061C240.01 371.691 236.51 381.021 235 391.061C222.72 393.201 210.38 393.531 198 392.061C194.84 389.881 191.51 389.211 188 390.061C178.26 386.961 168.26 385.121 158 384.561C148.62 381.371 139.62 377.371 131 372.561C124.68 366.631 118.18 360.801 111.5 355.061C106.68 348.111 104.85 340.441 106 332.061Z" fill="#B0A62A"/>
<path fill-rule="evenodd" clip-rule="evenodd" d="M308 330.062C313.92 332.082 314.59 335.242 310 339.562C312.27 340.532 314.27 341.872 316 343.562C312.78 351.162 309.45 358.662 306 366.062C306.12 366.672 306.46 367.002 307 367.062C302.67 370.232 298 372.902 293 375.062C292.14 371.072 291.8 367.072 292 363.062C293.98 359.632 295.48 355.962 296.5 352.062C297.14 350.292 296.97 348.632 296 347.062C299.35 346.302 302.18 344.632 304.5 342.062C305.98 338.112 307.15 334.112 308 330.062Z" fill="#C69024"/>
<path fill-rule="evenodd" clip-rule="evenodd" d="M202 334.062C218.11 337.912 234.11 337.912 250 334.062C251.05 333.912 252.05 334.082 253 334.562C257.02 337.902 261.35 340.732 266 343.062C265.21 343.962 264.21 344.632 263 345.062C258.36 345.712 253.7 346.212 249 346.562C246.72 350.622 244.55 354.782 242.5 359.062C240.94 361.332 238.78 362.492 236 362.562C237.76 362.762 239.42 363.262 241 364.062C239.85 365.712 238.52 367.212 237 368.562C239.1 369.122 239.26 369.622 237.5 370.062C233.76 366.942 229.6 364.442 225 362.562C214.14 359.842 203.14 357.842 192 356.562C185.71 354.752 180.05 351.922 175 348.062C184.41 344.192 193.41 339.522 202 334.062Z" fill="#C1B329"/>
<path fill-rule="evenodd" clip-rule="evenodd" d="M266 343.062C275.51 348.432 285.51 349.772 296 347.062C296.97 348.632 297.14 350.292 296.5 352.062C295.48 355.962 293.98 359.632 292 363.062C291.8 367.072 292.14 371.072 293 375.062C286 378.392 279 381.732 272 385.062C268.56 383.672 265.56 384.342 263 387.062C253.84 389.562 244.51 390.892 235 391.062C236.51 381.022 240.01 371.692 245.5 363.062C250.19 355.872 256.03 349.872 263 345.062C264.21 344.632 265.21 343.962 266 343.062Z" fill="#BE9E28"/>
<path fill-rule="evenodd" clip-rule="evenodd" d="M271.999 385.061C273.239 396.981 273.739 408.981 273.499 421.061C267.589 424.401 261.429 424.901 254.999 422.561C253.669 420.561 253.669 418.561 254.999 416.561C258.039 414.551 261.369 413.721 264.999 414.061C264.419 405.051 263.749 396.051 262.999 387.061C265.559 384.341 268.559 383.671 271.999 385.061Z" fill="#080808"/>
<path fill-rule="evenodd" clip-rule="evenodd" d="M198.001 392.062C196.921 401.022 196.751 410.022 197.501 419.062C196.601 420.262 195.431 421.092 194.001 421.562C188.671 422.232 183.331 422.232 178.001 421.562C175.331 419.562 175.331 417.562 178.001 415.562C181.041 413.712 184.371 412.542 188.001 412.062C186.871 407.482 186.201 402.812 186.001 398.062C185.791 395.072 186.461 392.412 188.001 390.062C191.511 389.212 194.841 389.882 198.001 392.062Z" fill="#0B0A0A"/>
</svg>
