<svg width="500" height="500" viewBox="0 0 500 500" fill="none" xmlns="http://www.w3.org/2000/svg">
<path fill-rule="evenodd" clip-rule="evenodd" d="M274 129.062C273.1 129.852 272.43 130.852 272 132.062C270.36 134.042 268.7 136.042 267 138.062C264.61 139.922 261.95 141.252 259 142.062C254.38 143.272 249.71 143.272 245 142.062C256.41 142.192 265.08 137.352 271 127.562C264.48 128.292 258.65 130.792 253.5 135.062C250.62 133.772 250.79 132.272 254 130.562C258.7 128.212 263.36 125.882 268 123.562C257.71 123.102 250.54 126.932 246.5 135.062C245.61 124.522 240.11 118.022 230 115.562C234.36 120.122 238.36 124.952 242 130.062C241.5 131.062 241 132.062 240.5 133.062C236.55 127.442 232.21 122.102 227.5 117.062C228.77 123.352 232.1 128.352 237.5 132.062C237.97 133.142 237.8 134.142 237 135.062C235 133.732 233 132.392 231 131.062C230.67 130.062 230 129.392 229 129.062C226.46 124.652 224.46 119.982 223 115.062C223.04 112.972 224.04 111.642 226 111.062C235.98 113.122 243.48 118.452 248.5 127.062C253.57 122.952 259.4 120.612 266 120.062C273.13 119.512 275.8 122.512 274 129.062Z" fill="#397C38"/>
<path fill-rule="evenodd" clip-rule="evenodd" d="M230.999 131.062C232.999 132.392 234.999 133.732 236.999 135.062C238.329 136.062 239.669 137.062 240.999 138.062C234.539 139.042 228.199 140.872 221.999 143.562C219.849 146.142 217.179 147.972 213.999 149.062C211.879 154.692 208.379 159.362 203.499 163.062C202.999 164.062 202.499 165.062 201.999 166.062C202.219 171.552 202.719 177.222 203.499 183.062C204.759 185.922 206.259 188.582 207.999 191.062C206.809 191.432 206.139 192.262 205.999 193.562C208.289 199.652 211.459 205.152 215.499 210.062C216.319 208.742 217.479 208.072 218.999 208.062C220.929 210.032 223.259 211.532 225.999 212.562C235.349 214.342 244.679 214.342 253.999 212.562C254.869 211.522 255.869 210.682 256.999 210.062C258.519 210.732 259.859 211.732 260.999 213.062C261.589 212.852 262.089 212.522 262.499 212.062C264.369 206.642 266.539 201.312 268.999 196.062C270.379 194.992 271.549 193.652 272.499 192.062C273.519 183.992 275.689 176.322 278.999 169.062C273.049 159.472 266.379 150.472 258.999 142.062C261.949 141.252 264.609 139.922 266.999 138.062C273.479 145.672 279.479 153.672 284.999 162.062C286.899 162.792 288.899 162.792 290.999 162.062C291.989 162.232 292.659 161.902 292.999 161.062C297.689 161.122 302.359 160.792 306.999 160.062C313.599 161.422 320.269 162.592 326.999 163.562C334.149 168.712 340.649 174.542 346.499 181.062C351.399 187.602 354.229 194.932 354.999 203.062C353.469 207.262 350.799 210.602 346.999 213.062C346.169 208.242 345.669 203.242 345.499 198.062C342.909 193.892 340.579 189.552 338.499 185.062C333.609 180.212 328.449 175.712 322.999 171.562C319.329 171.232 315.669 170.892 311.999 170.562C310.079 170.202 308.409 169.372 306.999 168.062C302.109 169.442 297.109 170.272 291.999 170.562C289.649 170.912 287.819 172.072 286.499 174.062C283.899 180.872 281.899 187.872 280.499 195.062C277.679 203.542 272.349 209.882 264.499 214.062C264.579 216.682 264.749 219.352 264.999 222.062C263.919 222.102 262.919 222.432 261.999 223.062C260.089 220.902 258.419 218.572 256.999 216.062C254.949 216.642 253.949 217.972 253.999 220.062C250.189 222.052 246.019 223.052 241.499 223.062C237.269 222.702 233.099 222.042 228.999 221.062C231.099 229.262 228.429 235.092 220.999 238.562C216.369 244.192 211.369 249.532 205.999 254.562C203.429 256.852 200.429 258.012 196.999 258.062C196.999 259.732 196.999 261.392 196.999 263.062C196.039 261.302 195.709 259.302 195.999 257.062C194.999 257.062 193.999 257.062 192.999 257.062C192.999 259.392 192.999 261.732 192.999 264.062C186.629 262.672 180.299 263.012 173.999 265.062C167.879 262.652 161.709 260.322 155.499 258.062C154.489 258.622 153.659 259.282 152.999 260.062C153.199 257.982 153.369 255.982 153.499 254.062C151.789 252.982 150.289 253.312 148.999 255.062C145.419 250.982 141.589 246.982 137.499 243.062C135.579 239.662 134.579 235.992 134.499 232.062C133.829 231.312 132.999 230.972 131.999 231.062C133.869 227.822 135.869 224.652 137.999 221.562C137.669 221.062 137.329 220.562 136.999 220.062C134.709 221.032 132.709 222.362 130.999 224.062C129.669 221.062 129.669 218.062 130.999 215.062C130.999 214.732 130.999 214.392 130.999 214.062C130.999 212.392 130.999 210.732 130.999 209.062C130.999 208.392 130.999 207.732 130.999 207.062C133.419 196.632 138.089 187.292 144.999 179.062C145.329 179.062 145.669 179.062 145.999 179.062C148.209 177.692 150.549 176.522 152.999 175.562C156.929 169.922 162.269 166.252 168.999 164.562C175.359 164.402 181.689 164.902 187.999 166.062C189.669 165.732 191.329 165.392 192.999 165.062C195.459 159.092 199.299 154.092 204.499 150.062C205.239 147.662 206.079 145.332 206.999 143.062C207.669 143.062 207.999 142.732 207.999 142.062C208.669 142.062 208.999 141.732 208.999 141.062C211.989 140.752 214.319 139.412 215.999 137.062C218.879 135.452 221.879 134.122 224.999 133.062C226.919 132.202 228.919 131.532 230.999 131.062Z" fill="#BA422A"/>
<path fill-rule="evenodd" clip-rule="evenodd" d="M245 142.062C243.67 140.732 242.33 139.392 241 138.062C239.67 137.062 238.33 136.062 237 135.062C237.8 134.142 237.97 133.142 237.5 132.062C232.1 128.352 228.77 123.352 227.5 117.062C232.21 122.102 236.55 127.442 240.5 133.062C241 132.062 241.5 131.062 242 130.062C238.36 124.952 234.36 120.122 230 115.562C240.11 118.022 245.61 124.522 246.5 135.062C250.54 126.932 257.71 123.102 268 123.562C263.36 125.882 258.7 128.212 254 130.562C250.79 132.272 250.62 133.772 253.5 135.062C258.65 130.792 264.48 128.292 271 127.562C265.08 137.352 256.41 142.192 245 142.062Z" fill="#3A983F"/>
<path fill-rule="evenodd" clip-rule="evenodd" d="M241 138.062C242.33 139.392 243.67 140.732 245 142.062C249.71 143.272 254.38 143.272 259 142.062C266.38 150.472 273.05 159.472 279 169.062C275.69 176.322 273.52 183.992 272.5 192.062C271.55 193.652 270.38 194.992 269 196.062C268.53 192.732 267.37 192.402 265.5 195.062C263.66 200.602 260.49 205.102 256 208.562C256.56 208.942 256.89 209.442 257 210.062C255.87 210.682 254.87 211.522 254 212.562C244.68 214.342 235.35 214.342 226 212.562C223.26 211.532 220.93 210.032 219 208.062C219.45 207.102 220.12 206.272 221 205.562C219.15 204.142 217.15 202.972 215 202.062C212.89 198.162 210.56 194.492 208 191.062C206.26 188.582 204.76 185.922 203.5 183.062C202.72 177.222 202.22 171.552 202 166.062C202.5 165.062 203 164.062 203.5 163.062C208.38 159.362 211.88 154.692 214 149.062C217.18 147.972 219.85 146.142 222 143.562C228.2 140.872 234.54 139.042 241 138.062Z" fill="#97371D"/>
<path fill-rule="evenodd" clip-rule="evenodd" d="M261 174.061C247.51 168.401 241.68 172.731 243.5 187.061C248.09 191.891 252.92 192.221 258 188.061C260.02 185.021 261.19 181.691 261.5 178.061C262.22 178.601 262.72 179.271 263 180.061C262.79 194.621 255.29 201.291 240.5 200.061C230.47 200.831 222.14 197.501 215.5 190.061C213.95 187.251 213.12 184.251 213 181.061C213.28 180.271 213.78 179.601 214.5 179.061C214.14 188.701 218.64 192.531 228 190.561C235.16 185.621 235.82 179.951 230 173.561C225.23 171.481 220.56 171.651 216 174.061C221.52 167.091 228.86 163.761 238 164.061C245.3 163.721 251.97 165.551 258 169.561C258.89 171.171 259.89 172.671 261 174.061Z" fill="#F7F5F4"/>
<path fill-rule="evenodd" clip-rule="evenodd" d="M347 213.062C344.24 213.492 342.91 215.162 343 218.062C342.15 220.782 340.98 223.452 339.5 226.062C333.97 231.262 328.8 236.762 324 242.562C317.23 244.442 310.57 246.612 304 249.062C296.4 246.592 289.07 243.592 282 240.062C281.19 238.272 280.69 236.272 280.5 234.062C279.83 232.732 279.17 232.732 278.5 234.062C278 238.382 277.83 242.712 278 247.062C267.96 242.022 260.63 234.352 256 224.062C256.12 223.452 256.46 223.122 257 223.062C259.3 228.482 262.47 229.142 266.5 225.062C267.08 223.562 266.58 222.562 265 222.062C264.75 219.352 264.58 216.682 264.5 214.062C272.35 209.882 277.68 203.542 280.5 195.062C281.9 187.872 283.9 180.872 286.5 174.062C287.82 172.072 289.65 170.912 292 170.562C297.11 170.272 302.11 169.442 307 168.062C308.41 169.372 310.08 170.202 312 170.562C315.67 170.892 319.33 171.232 323 171.562C328.45 175.712 333.61 180.212 338.5 185.062C340.58 189.552 342.91 193.892 345.5 198.062C345.67 203.242 346.17 208.242 347 213.062Z" fill="#98371E"/>
<path fill-rule="evenodd" clip-rule="evenodd" d="M213 181.061C211.79 181.791 210.46 182.131 209 182.061C209.87 178.191 212.2 175.521 216 174.061C220.56 171.651 225.23 171.481 230 173.561C235.82 179.951 235.16 185.621 228 190.561C218.64 192.531 214.14 188.701 214.5 179.061C213.78 179.601 213.28 180.271 213 181.061Z" fill="#0B0B0B"/>
<path fill-rule="evenodd" clip-rule="evenodd" d="M261 174.061C263.38 175.251 265.38 176.921 267 179.061C265.81 179.991 264.48 180.321 263 180.061C262.72 179.271 262.22 178.601 261.5 178.061C261.19 181.691 260.02 185.021 258 188.061C252.92 192.221 248.09 191.891 243.5 187.061C241.68 172.731 247.51 168.401 261 174.061Z" fill="#0A0A09"/>
<path fill-rule="evenodd" clip-rule="evenodd" d="M220 222.062C219.64 223.432 218.81 224.432 217.5 225.062C216.08 223.992 214.75 223.992 213.5 225.062C213.56 227.002 214.39 228.662 216 230.062C211.62 237.252 205.95 243.412 199 248.562C178.39 259.622 160.22 256.122 144.5 238.062C144.17 235.062 143.83 232.062 143.5 229.062C140.8 226.302 139.3 222.972 139 219.062C138.28 208.282 141.11 198.612 147.5 190.062C154.53 185.472 161.03 180.312 167 174.562C168.5 174.062 170 173.562 171.5 173.062C173.22 174.282 175.05 175.282 177 176.062C178.67 175.392 180.33 174.732 182 174.062C185.28 174.892 188.62 175.222 192 175.062C191.84 176.762 192.01 178.432 192.5 180.062C196.11 187.612 199.44 195.282 202.5 203.062C204.33 205.562 206.17 208.062 208 210.562C211.49 212.142 214.83 213.972 218 216.062C218.67 218.192 219.34 220.192 220 222.062Z" fill="#96371D"/>
<path fill-rule="evenodd" clip-rule="evenodd" d="M248.001 174.062C250.221 174.122 251.221 175.292 251.001 177.562C251.241 179.822 250.241 180.992 248.001 181.062C244.021 178.692 244.021 176.352 248.001 174.062Z" fill="#F6F6F6"/>
<path fill-rule="evenodd" clip-rule="evenodd" d="M226 175.062C231.26 177.392 231.26 180.062 226 183.062C223.44 180.482 223.44 177.812 226 175.062Z" fill="#F3F3F3"/>
<path fill-rule="evenodd" clip-rule="evenodd" d="M208 191.062C210.56 194.492 212.89 198.162 215 202.062C217.15 202.972 219.15 204.142 221 205.562C220.12 206.272 219.45 207.102 219 208.062C217.48 208.072 216.32 208.742 215.5 210.062C211.46 205.152 208.29 199.652 206 193.562C206.14 192.262 206.81 191.432 208 191.062Z" fill="#0E0402"/>
<path fill-rule="evenodd" clip-rule="evenodd" d="M243 192.062C244 192.032 244.66 192.532 245 193.562C242.51 198.992 239.17 199.492 235 195.062C236.64 193.882 238.3 193.882 240 195.062C241.35 194.372 242.35 193.372 243 192.062Z" fill="#0F0F0F"/>
<path fill-rule="evenodd" clip-rule="evenodd" d="M269 196.061C266.54 201.311 264.37 206.641 262.5 212.061C262.09 212.521 261.59 212.851 261 213.061C259.86 211.731 258.52 210.731 257 210.061C256.89 209.441 256.56 208.941 256 208.561C260.49 205.101 263.66 200.601 265.5 195.061C267.37 192.401 268.53 192.731 269 196.061Z" fill="#0E0401"/>
<path fill-rule="evenodd" clip-rule="evenodd" d="M362 194.062C363.26 194.022 364.26 194.522 365 195.562C362.04 200.982 358.71 206.142 355 211.062C351.91 214.942 347.91 217.272 343 218.062C342.91 215.162 344.24 213.492 347 213.062C350.8 210.602 353.47 207.262 355 203.062C357.71 201.282 358.37 198.942 357 196.062C356.78 194.882 357.11 193.882 358 193.062C359.23 194.742 360.56 195.072 362 194.062Z" fill="#0D0706"/>
<path fill-rule="evenodd" clip-rule="evenodd" d="M326 201.061C316.01 199.221 311.84 203.221 313.5 213.061C313.85 215.411 315.01 217.241 317 218.561C327.87 220.191 331.87 215.691 329 205.061C330.5 204.511 332.17 204.511 334 205.061C337.51 212.851 336.17 219.681 330 225.561C319.41 231.541 308.08 234.211 296 233.561C290.68 231.411 287.35 227.581 286 222.061C286.49 221.091 286.99 220.091 287.5 219.061C290 228.471 295.33 230.471 303.5 225.061C307.52 218.781 306.35 213.611 300 209.561C295.18 209.011 290.85 210.181 287 213.061C289.38 207.671 293.38 203.841 299 201.561C307.17 199.161 315.51 198.491 324 199.561C324.92 199.841 325.58 200.341 326 201.061Z" fill="#F7F5F4"/>
<path fill-rule="evenodd" clip-rule="evenodd" d="M326 201.062C329.02 201.262 332.02 201.602 335 202.062C335.24 203.352 334.9 204.352 334 205.062C332.17 204.512 330.5 204.512 329 205.062C331.87 215.692 327.87 220.192 317 218.562C315.01 217.242 313.85 215.412 313.5 213.062C311.84 203.222 316.01 199.222 326 201.062Z" fill="#090808"/>
<path fill-rule="evenodd" clip-rule="evenodd" d="M199 215.062C185.34 207.642 179.17 211.642 180.5 227.062C190.52 234.062 196.52 231.392 198.5 219.062C199.21 219.942 200.04 220.612 201 221.062C201.45 230.452 197.11 236.282 188 238.562C178.87 239.552 169.87 238.892 161 236.562C152.84 233.072 149.17 226.902 150 218.062C150.28 217.272 150.78 216.602 151.5 216.062C150.46 225.692 154.63 229.862 164 228.562C166.72 226.962 168.89 224.802 170.5 222.062C170.44 218.432 169.61 214.932 168 211.562C163.18 209.092 158.18 208.592 153 210.062C155.21 207.702 157.88 205.872 161 204.562C170.88 203.532 180.55 204.532 190 207.562C193.77 209.172 196.77 211.672 199 215.062Z" fill="#F8F6F5"/>
<path fill-rule="evenodd" clip-rule="evenodd" d="M317 204.062C318 203.972 318.83 204.312 319.5 205.062C320 207.032 320.16 209.032 320 211.062C313.67 210.742 312.67 208.412 317 204.062Z" fill="#F5F5F5"/>
<path fill-rule="evenodd" clip-rule="evenodd" d="M150 218.062C148.67 218.062 147.33 218.062 146 218.062C146.9 214.162 149.23 211.492 153 210.062C158.18 208.592 163.18 209.092 168 211.562C169.61 214.932 170.44 218.432 170.5 222.062C168.89 224.802 166.72 226.962 164 228.562C154.63 229.862 150.46 225.692 151.5 216.062C150.78 216.602 150.28 217.272 150 218.062Z" fill="#0C0C0C"/>
<path fill-rule="evenodd" clip-rule="evenodd" d="M286 222.062C284.79 222.792 283.46 223.132 282 223.062C282.61 219.182 284.28 215.842 287 213.062C290.85 210.182 295.18 209.012 300 209.562C306.35 213.612 307.52 218.782 303.5 225.062C295.33 230.472 290 228.472 287.5 219.062C286.99 220.092 286.49 221.092 286 222.062Z" fill="#0E0D0D"/>
<path fill-rule="evenodd" clip-rule="evenodd" d="M199 215.061C201.29 216.681 203.29 218.681 205 221.061C203.8 221.851 202.47 221.851 201 221.061C200.04 220.611 199.21 219.941 198.5 219.061C196.52 231.391 190.52 234.061 180.5 227.061C179.17 211.641 185.34 207.641 199 215.061Z" fill="#0A0A0A"/>
<path fill-rule="evenodd" clip-rule="evenodd" d="M296 212.062C300.83 211.952 302.16 214.112 300 218.562C295.31 218.702 293.98 216.532 296 212.062Z" fill="#EBEBEB"/>
<path fill-rule="evenodd" clip-rule="evenodd" d="M163 213.062C166.94 213.402 167.94 215.402 166 219.062C163.25 222.012 161.58 221.512 161 217.562C161.02 215.732 161.69 214.232 163 213.062Z" fill="#F1F1F1"/>
<path fill-rule="evenodd" clip-rule="evenodd" d="M355 211.062C355.11 215.842 353.78 220.172 351 224.062C349.61 225.462 348.61 227.132 348 229.062C344.68 233.022 341.34 237.022 338 241.062C333.76 240.212 333.09 241.542 336 245.062C332.72 247.712 329.05 249.872 325 251.562C319.82 252.602 314.82 254.102 310 256.062C307.8 251.902 306.47 252.232 306 257.062C297.97 257.222 290.81 254.882 284.5 250.062C284.1 250.292 283.93 250.622 284 251.062C282.6 247.652 281.93 243.982 282 240.062C289.07 243.592 296.4 246.592 304 249.062C310.57 246.612 317.23 244.442 324 242.562C328.8 236.762 333.97 231.262 339.5 226.062C340.98 223.452 342.15 220.782 343 218.062C347.91 217.272 351.91 214.942 355 211.062Z" fill="#B9422A"/>
<path d="M439 348.062C453.99 337.582 458.49 323.582 452.5 306.062C449.15 300.022 445.32 294.352 441 289.062L435.5 283.062C433.96 281.182 432.12 279.682 430 278.562L426 275.062C412.07 264.932 397.07 256.592 381 250.062C381.39 251.842 382.06 253.512 383 255.062C388.52 258.932 391.52 264.262 392 271.062C393.6 271.852 394.27 273.182 394 275.062C401.63 274.872 407.63 277.872 412 284.062C421.8 289.012 429.96 296.012 436.5 305.062C442.35 312.842 443.35 321.172 439.5 330.062C413.73 352.362 383.89 366.192 350 371.562C304.02 373.822 258.02 374.492 212 373.562C193.97 372.442 175.97 370.772 158 368.562C125.35 364.402 95.0197 353.732 66.9997 336.562C59.9097 330.602 56.7397 323.102 57.4997 314.062C64.0697 298.652 74.9097 287.322 89.9997 280.062C92.3597 272.032 97.0197 265.702 104 261.062C104.86 260.032 105.52 258.862 106 257.562C105.93 256.802 105.6 256.302 105 256.062C92.8497 259.472 82.1797 265.472 72.9997 274.062L63.9997 281.062C63.9997 281.062 42.5997 313.312 45.4997 328.062C48.1097 333.162 51.2697 337.822 54.9997 342.062L86.3055 361.628C101.855 368.578 118.55 374.012 135 378.062C137.67 378.732 140.33 379.392 143 380.062H144C168.04 384.942 193.37 388.272 218 388.062H221H277C312.89 387.874 332.758 385.536 368 379.562C368 379.562 393.44 372.462 405 368.562C408.72 366.702 412.39 364.872 416 363.062C425.032 358.393 430.065 355.016 439 348.062Z" fill="#EBE9E8"/>
<path fill-rule="evenodd" clip-rule="evenodd" d="M348 229.062C351.33 232.562 354.5 236.232 357.5 240.062C357.99 241.352 358.16 242.692 358 244.062C359.67 244.062 361.33 244.062 363 244.062C363 246.392 363 248.732 363 251.062C355.37 250.202 349.7 253.042 346 259.562C340.37 263.722 334.03 265.552 327 265.062C325.41 264.642 323.91 263.972 322.5 263.062C321.06 263.712 319.56 264.042 318 264.062C316.16 262.812 314.33 262.812 312.5 264.062C311.36 261.482 310.52 258.812 310 256.062C314.82 254.102 319.82 252.602 325 251.562C329.05 249.872 332.72 247.712 336 245.062C338.03 247.592 340.2 249.922 342.5 252.062C345.95 251.452 347.78 249.452 348 246.062C346.24 245.922 344.57 246.252 343 247.062C340.86 245.442 339.19 243.442 338 241.062C341.34 237.022 344.68 233.022 348 229.062Z" fill="#EE724D"/>
<path fill-rule="evenodd" clip-rule="evenodd" d="M337.999 241.062C339.189 243.442 340.859 245.442 342.999 247.062C344.569 246.252 346.239 245.922 347.999 246.062C347.779 249.452 345.949 251.452 342.499 252.062C340.199 249.922 338.029 247.592 335.999 245.062C333.089 241.542 333.759 240.212 337.999 241.062Z" fill="#0C0402"/>
<path fill-rule="evenodd" clip-rule="evenodd" d="M281.999 240.062C281.929 243.982 282.599 247.652 283.999 251.062C285.159 251.832 286.159 252.832 286.999 254.062C286.789 254.652 286.459 255.152 285.999 255.562C283.169 255.662 280.509 254.992 277.999 253.562C280.209 251.442 280.209 249.282 277.999 247.062C277.829 242.712 277.999 238.382 278.499 234.062C279.169 232.732 279.829 232.732 280.499 234.062C280.689 236.272 281.189 238.272 281.999 240.062Z" fill="#0A0302"/>
<path fill-rule="evenodd" clip-rule="evenodd" d="M171 232.062C172.87 232.572 174.7 233.242 176.5 234.062C177.5 233.392 178.5 232.732 179.5 232.062C180 232.392 180.5 232.732 181 233.062C176.95 238.542 173.62 238.212 171 232.062Z" fill="#151515"/>
<path fill-rule="evenodd" clip-rule="evenodd" d="M317 222.062C319.54 224.002 319.54 226.172 317 228.562C315.03 229.062 313.03 229.222 311 229.062C311 228.062 311 227.062 311 226.062C314.74 226.962 316.74 225.632 317 222.062Z" fill="#181818"/>
<path fill-rule="evenodd" clip-rule="evenodd" d="M254 220.062C255.33 220.732 256.33 221.732 257 223.062C256.46 223.122 256.12 223.452 256 224.062C260.63 234.352 267.96 242.022 278 247.062C280.21 249.282 280.21 251.442 278 253.562C280.51 254.992 283.17 255.662 286 255.562C286.46 255.152 286.79 254.652 287 254.062C286.16 252.832 285.16 251.832 284 251.062C283.93 250.622 284.1 250.292 284.5 250.062C290.81 254.882 297.97 257.222 306 257.062C306 258.062 306 259.062 306 260.062C306.76 264.162 305.43 265.162 302 263.062C267.05 267.992 232.05 268.332 197 264.062C197 263.732 197 263.392 197 263.062C197 261.392 197 259.732 197 258.062C200.43 258.012 203.43 256.852 206 254.562C211.37 249.532 216.37 244.192 221 238.562C228.43 235.092 231.1 229.262 229 221.062C233.1 222.042 237.27 222.702 241.5 223.062C246.02 223.052 250.19 222.052 254 220.062Z" fill="#EF714C"/>
<path fill-rule="evenodd" clip-rule="evenodd" d="M132 231.062C129.54 235.452 127.87 240.122 127 245.062C125.15 244.322 123.48 243.322 122 242.062C120.65 239.532 121.48 237.862 124.5 237.062C126.68 232.702 128.85 228.372 131 224.062C132.71 222.362 134.71 221.032 137 220.062C137.33 220.562 137.67 221.062 138 221.562C135.87 224.652 133.87 227.822 132 231.062Z" fill="#0D0503"/>
<path fill-rule="evenodd" clip-rule="evenodd" d="M265 222.062C266.58 222.562 267.08 223.562 266.5 225.062C262.47 229.142 259.3 228.482 257 223.062C256.33 221.732 255.33 220.732 254 220.062C253.95 217.972 254.95 216.642 257 216.062C258.42 218.572 260.09 220.902 262 223.062C262.92 222.432 263.92 222.102 265 222.062Z" fill="#0F0502"/>
<path fill-rule="evenodd" clip-rule="evenodd" d="M216 230.062C214.39 228.662 213.56 227.002 213.5 225.062C214.75 223.992 216.08 223.992 217.5 225.062C218.81 224.432 219.64 223.432 220 222.062C220.25 218.892 221.92 216.892 225 216.062C226.13 217.632 226.3 219.302 225.5 221.062C223.6 223.692 222.1 226.522 221 229.562C219.37 230.052 217.7 230.222 216 230.062Z" fill="#100502"/>
<path fill-rule="evenodd" clip-rule="evenodd" d="M185 214.062C186.32 213.892 187.49 214.222 188.5 215.062C188.68 217.052 188.51 219.052 188 221.062C181.64 220.692 180.64 218.352 185 214.062Z" fill="#EEEEEE"/>
<path fill-rule="evenodd" clip-rule="evenodd" d="M122 242.062C123.48 243.322 125.15 244.322 127 245.062C127.41 248.302 128.41 251.302 130 254.062C132.08 265.002 133.58 276.002 134.5 287.062C132.41 285.772 130.25 284.602 128 283.562C126.77 281.422 125.11 279.752 123 278.562C126.51 277.002 126.84 274.842 124 272.062C121.02 273.882 118.18 275.882 115.5 278.062C114.16 277.052 112.83 276.052 111.5 275.062C110.83 274.062 110.83 273.062 111.5 272.062C115.84 268.882 119.67 265.222 123 261.062C122.72 259.232 122.06 257.562 121 256.062C117 259.392 113 262.732 109 266.062C108.23 263.752 107.56 261.412 107 259.062C108.69 257.042 110.36 255.042 112 253.062C114.6 250.782 117.6 249.442 121 249.062C120.7 246.502 121.03 244.172 122 242.062Z" fill="#E5935F"/>
<path fill-rule="evenodd" clip-rule="evenodd" d="M104.001 261.062C104.301 263.672 104.971 266.512 106.001 269.562C105.441 269.942 105.111 270.442 105.001 271.062C98.4407 276.912 95.9407 284.252 97.5007 293.062C99.2307 297.512 101.231 301.852 103.501 306.062C113.871 315.292 125.371 322.622 138.001 328.062C141.111 326.102 141.441 323.932 139.001 321.562C132.941 320.872 127.611 318.532 123.001 314.562C113.231 307.152 107.231 297.482 105.001 285.562C105.671 281.722 107.001 278.222 109.001 275.062C109.971 276.752 111.311 278.252 113.001 279.562C114.051 280.052 115.051 279.892 116.001 279.062C117.301 280.892 118.301 282.892 119.001 285.062C123.411 286.922 127.411 289.422 131.001 292.562C132.651 293.172 134.321 293.672 136.001 294.062C138.301 311.882 147.971 324.052 165.001 330.562C178.341 334.982 192.011 337.312 206.001 337.562C197.421 332.412 188.091 330.082 178.001 330.562C166.531 330.342 157.701 325.512 151.501 316.062C148.831 310.212 146.661 304.212 145.001 298.062C147.931 299.472 150.761 301.142 153.501 303.062C153.901 302.832 154.071 302.502 154.001 302.062C155.591 305.172 158.261 306.832 162.001 307.062C162.931 308.252 163.261 309.582 163.001 311.062C166.001 311.062 169.001 311.062 172.001 311.062C170.411 313.992 168.411 316.662 166.001 319.062C168.731 320.922 171.731 321.922 175.001 322.062C174.791 320.422 175.121 318.922 176.001 317.562C189.571 312.932 203.571 310.762 218.001 311.062C243.271 310.282 267.271 315.122 290.001 325.562C302.161 323.742 314.491 322.742 327.001 322.562C328.511 320.112 327.851 318.442 325.001 317.562C312.991 317.272 300.991 317.272 289.001 317.562C286.331 317.232 283.671 316.892 281.001 316.562C262.691 309.402 243.691 305.902 224.001 306.062C224.001 305.732 224.001 305.392 224.001 305.062C234.781 303.912 245.451 302.912 256.001 302.062C261.901 303.072 267.571 302.412 273.001 300.062C282.491 299.012 291.991 298.012 301.501 297.062C313.361 298.222 324.861 296.892 336.001 293.062C340.221 292.382 344.391 291.382 348.501 290.062C349.001 290.232 349.501 290.392 350.001 290.562C349.171 291.472 348.171 292.142 347.001 292.562C347.831 292.732 348.671 292.892 349.501 293.062C355.971 289.992 362.801 287.992 370.001 287.062C356.151 294.842 343.481 304.342 332.001 315.562C333.371 316.802 334.371 318.302 335.001 320.062C337.241 321.032 339.581 321.372 342.001 321.062C341.551 317.132 342.881 313.972 346.001 311.562C354.161 305.652 362.491 299.982 371.001 294.562C381.011 290.222 391.341 286.892 402.001 284.562C400.881 283.522 399.541 282.852 398.001 282.562C394.681 282.062 391.351 281.892 388.001 282.062C389.361 278.312 390.691 274.642 392.001 271.062C393.601 271.852 394.271 273.182 394.001 275.062C401.631 274.872 407.631 277.872 412.001 284.062C414.241 292.732 412.911 300.732 408.001 308.062C404.611 317.292 398.281 323.792 389.001 327.562C372.001 329.562 356.001 334.562 341.001 342.562C328.001 342.892 315.001 343.232 302.001 343.562C291.501 349.782 286.341 346.612 286.501 334.062C276.191 343.282 265.361 344.122 254.001 336.562C240.991 332.182 227.651 331.022 214.001 333.062C214.741 336.692 214.571 340.362 213.501 344.062C212.381 345.682 210.881 346.682 209.001 347.062C197.681 345.012 186.351 343.172 175.001 341.562C165.131 339.312 155.971 335.472 147.501 330.062C144.571 334.772 140.411 336.612 135.001 335.562C125.761 331.602 117.091 326.602 109.001 320.562C103.651 317.072 98.9907 312.902 95.0007 308.062C93.4407 303.932 91.6007 299.932 89.5007 296.062C88.9707 290.712 89.1407 285.372 90.0007 280.062C92.3607 272.032 97.0207 265.702 104.001 261.062Z" fill="#FED282"/>
<path fill-rule="evenodd" clip-rule="evenodd" d="M132 231.062C133 230.972 133.83 231.312 134.5 232.062C134.58 235.992 135.58 239.662 137.5 243.062C141.59 246.982 145.42 250.982 149 255.062C148.29 258.352 147.96 261.682 148 265.062C146.67 265.062 145.33 265.062 144 265.062C143.83 266.382 144.16 267.552 145 268.562C147 269.232 149 269.232 151 268.562C152.21 265.872 152.88 263.042 153 260.062C153.66 259.282 154.49 258.622 155.5 258.062C161.71 260.322 167.88 262.652 174 265.062C180.3 263.012 186.63 262.672 193 264.062C193.35 266.982 192.35 269.312 190 271.062C195.8 272.602 198.13 270.262 197 264.062C232.05 268.332 267.05 267.992 302 263.062C305.43 265.162 306.76 264.162 306 260.062C305.79 266.342 308.79 268.842 315 267.562C316.21 266.522 317.21 265.352 318 264.062C319.56 264.042 321.06 263.712 322.5 263.062C323.91 263.972 325.41 264.642 327 265.062C322.53 269.362 317.86 273.532 313 277.562C298.38 276.402 283.71 276.072 269 276.562C249.53 278.932 230.2 281.932 211 285.562C192.89 288.242 175.22 287.242 158 282.562C156.33 281.732 154.67 280.892 153 280.062C151.79 279.292 151.79 278.452 153 277.562C148.23 277.602 144.06 275.772 140.5 272.062C139.81 267.232 138.14 262.902 135.5 259.062C133.8 257.192 131.96 255.522 130 254.062C128.41 251.302 127.41 248.302 127 245.062C127.87 240.122 129.54 235.452 132 231.062Z" fill="#EA8259"/>
<path fill-rule="evenodd" clip-rule="evenodd" d="M105 271.062C106.84 271.962 108.17 273.302 109 275.062C107 278.222 105.67 281.722 105 285.562C107.23 297.482 113.23 307.152 123 314.562C127.61 318.532 132.94 320.872 139 321.562C141.44 323.932 141.11 326.102 138 328.062C125.37 322.622 113.87 315.292 103.5 306.062C101.23 301.852 99.2303 297.512 97.5003 293.062C95.9403 284.252 98.4403 276.912 105 271.062Z" fill="#FEECAC"/>
<path fill-rule="evenodd" clip-rule="evenodd" d="M351 224.062C352.9 230.872 357.23 235.202 364 237.062C364 239.392 364 241.732 364 244.062C370.09 245.292 375.75 247.292 381 250.062C381.39 251.842 382.06 253.512 383 255.062C383.79 258.112 384.79 261.112 386 264.062C384.7 266.612 383.7 269.282 383 272.062C365.49 274.982 349.82 281.982 336 293.062C324.86 296.892 313.36 298.222 301.5 297.062C291.99 298.012 282.49 299.012 273 300.062C233.51 288.462 193.85 288.132 154 299.062C154 300.062 154 301.062 154 302.062C154.07 302.502 153.9 302.832 153.5 303.062C150.76 301.142 147.93 299.472 145 298.062C142.4 296.422 139.73 294.752 137 293.062C136.39 293.182 136.06 293.522 136 294.062C134.32 293.672 132.65 293.172 131 292.562C127.41 289.422 123.41 286.922 119 285.062C118.3 282.892 117.3 280.892 116 279.062C115.05 279.892 114.05 280.052 113 279.562C111.31 278.252 109.97 276.752 109 275.062C108.17 273.302 106.84 271.962 105 271.062C105.11 270.442 105.44 269.942 106 269.562C104.97 266.512 104.3 263.672 104 261.062C104.86 260.032 105.52 258.862 106 257.562C105.93 256.802 105.6 256.302 105 256.062C107.15 254.822 109.48 253.822 112 253.062C110.36 255.042 108.69 257.042 107 259.062C107.56 261.412 108.23 263.752 109 266.062C113 262.732 117 259.392 121 256.062C122.06 257.562 122.72 259.232 123 261.062C119.67 265.222 115.84 268.882 111.5 272.062C110.83 273.062 110.83 274.062 111.5 275.062C112.83 276.052 114.16 277.052 115.5 278.062C118.18 275.882 121.02 273.882 124 272.062C126.84 274.842 126.51 277.002 123 278.562C125.11 279.752 126.77 281.422 128 283.562C130.25 284.602 132.41 285.772 134.5 287.062C133.58 276.002 132.08 265.002 130 254.062C131.96 255.522 133.8 257.192 135.5 259.062C138.14 262.902 139.81 267.232 140.5 272.062C144.06 275.772 148.23 277.602 153 277.562C151.79 278.452 151.79 279.292 153 280.062C154.67 280.892 156.33 281.732 158 282.562C175.22 287.242 192.89 288.242 211 285.562C230.2 281.932 249.53 278.932 269 276.562C283.71 276.072 298.38 276.402 313 277.562C317.86 273.532 322.53 269.362 327 265.062C334.03 265.552 340.37 263.722 346 259.562C349.7 253.042 355.37 250.202 363 251.062C363 248.732 363 246.392 363 244.062C361.33 244.062 359.67 244.062 358 244.062C358.16 242.692 357.99 241.352 357.5 240.062C354.5 236.232 351.33 232.562 348 229.062C348.61 227.132 349.61 225.462 351 224.062Z" fill="#E59769"/>
<path fill-rule="evenodd" clip-rule="evenodd" d="M358 256.062C359.33 256.062 360.67 256.062 362 256.062C359.2 268.812 351.2 275.482 338 276.062C334.23 275.702 330.56 274.872 327 273.562C337.43 267.692 347.76 261.852 358 256.062Z" fill="#EA8055"/>
<path fill-rule="evenodd" clip-rule="evenodd" d="M197 263.062C197 263.392 197 263.732 197 264.062C198.13 270.262 195.8 272.602 190 271.062C192.35 269.312 193.35 266.982 193 264.062C193 261.732 193 259.392 193 257.062C194 257.062 195 257.062 196 257.062C195.71 259.302 196.04 261.302 197 263.062Z" fill="#0B0503"/>
<path fill-rule="evenodd" clip-rule="evenodd" d="M310.001 256.062C310.521 258.812 311.361 261.482 312.501 264.062C314.331 262.812 316.161 262.812 318.001 264.062C317.211 265.352 316.211 266.522 315.001 267.562C308.791 268.842 305.791 266.342 306.001 260.062C306.001 259.062 306.001 258.062 306.001 257.062C306.471 252.232 307.801 251.902 310.001 256.062Z" fill="#110805"/>
<path fill-rule="evenodd" clip-rule="evenodd" d="M153 260.061C152.88 263.041 152.21 265.871 151 268.561C149 269.231 147 269.231 145 268.561C144.16 267.551 143.83 266.381 144 265.061C145.33 265.061 146.67 265.061 148 265.061C147.96 261.681 148.29 258.351 149 255.061C150.29 253.311 151.79 252.981 153.5 254.061C153.37 255.981 153.2 257.981 153 260.061Z" fill="#110905"/>
<path fill-rule="evenodd" clip-rule="evenodd" d="M383 255.062C388.52 258.932 391.52 264.262 392 271.062C390.69 274.642 389.36 278.312 388 282.062C381.84 283.102 375.84 284.772 370 287.062C362.8 287.992 355.97 289.992 349.5 293.062C348.67 292.892 347.83 292.732 347 292.562C348.17 292.142 349.17 291.472 350 290.562C349.5 290.392 349 290.232 348.5 290.062C344.39 291.382 340.22 292.382 336 293.062C349.82 281.982 365.49 274.982 383 272.062C383.7 269.282 384.7 266.612 386 264.062C384.79 261.112 383.79 258.112 383 255.062Z" fill="#ECA870"/>
<path fill-rule="evenodd" clip-rule="evenodd" d="M89.9999 280.062C89.1399 285.372 88.9699 290.712 89.4999 296.062C91.5999 299.932 93.4399 303.932 94.9999 308.062C93.4399 313.832 94.4399 319.162 97.9999 324.062C107.02 330.572 117.02 335.072 128 337.562C136.31 339.692 144.64 341.692 153 343.562C168.42 345.272 183.75 347.272 199 349.562C243 351.542 287 351.542 331 349.562C345.82 347.392 360.48 344.392 375 340.562C384.56 336.282 394.23 332.282 404 328.562C411.61 322.872 412.94 316.032 408 308.062C412.91 300.732 414.24 292.732 412 284.062C421.8 289.012 429.96 296.012 436.5 305.062C442.35 312.842 443.35 321.172 439.5 330.062C413.73 352.362 383.89 366.192 350 371.562C304.02 373.822 258.02 374.492 212 373.562C193.97 372.442 175.97 370.772 158 368.562C125.35 364.402 95.0199 353.732 66.9999 336.562C59.9099 330.602 56.7399 323.102 57.4999 314.062C64.0699 298.652 74.9099 287.322 89.9999 280.062Z" fill="#FEFEFE"/>
<path fill-rule="evenodd" clip-rule="evenodd" d="M273 300.062C267.57 302.412 261.9 303.072 256 302.062C246.94 299.812 237.61 298.652 228 298.562C216.33 297.892 204.67 297.892 193 298.562C185.5 299.172 178.17 300.502 171 302.562C165.94 305.292 166.61 306.962 173 307.562C179.68 307.432 186.35 306.762 193 305.562C203.33 305.062 213.66 304.892 224 305.062C224 305.392 224 305.732 224 306.062C206.76 308.952 189.42 310.622 172 311.062C169 311.062 166 311.062 163 311.062C163.26 309.582 162.93 308.252 162 307.062C158.26 306.832 155.59 305.172 154 302.062C154 301.062 154 300.062 154 299.062C193.85 288.132 233.51 288.462 273 300.062Z" fill="#E6A77D"/>
<path fill-rule="evenodd" clip-rule="evenodd" d="M401 292.062C402.33 292.062 403.67 292.062 405 292.062C405 293.732 405 295.392 405 297.062C398.91 297.692 392.91 298.852 387 300.562C378.86 304.342 370.52 307.342 362 309.562C373.83 300.982 386.83 295.142 401 292.062Z" fill="#FFECAB"/>
<path fill-rule="evenodd" clip-rule="evenodd" d="M388 282.062C391.35 281.892 394.68 282.062 398 282.562C399.54 282.852 400.88 283.522 402 284.562C391.34 286.892 381.01 290.222 371 294.562C362.49 299.982 354.16 305.652 346 311.562C342.88 313.972 341.55 317.132 342 321.062C339.58 321.372 337.24 321.032 335 320.062C334.37 318.302 333.37 316.802 332 315.562C343.48 304.342 356.15 294.842 370 287.062C375.84 284.772 381.84 283.102 388 282.062Z" fill="#FDEAAB"/>
<path fill-rule="evenodd" clip-rule="evenodd" d="M256.001 302.061C245.451 302.911 234.781 303.911 224.001 305.061C213.661 304.891 203.331 305.061 193.001 305.561C186.351 306.761 179.681 307.431 173.001 307.561C166.611 306.961 165.941 305.291 171.001 302.561C178.171 300.501 185.501 299.171 193.001 298.561C204.671 297.891 216.331 297.891 228.001 298.561C237.611 298.651 246.941 299.811 256.001 302.061Z" fill="#E59460"/>
<path fill-rule="evenodd" clip-rule="evenodd" d="M224 306.062C243.69 305.902 262.69 309.402 281 316.562C283.67 316.892 286.33 317.232 289 317.562C300.99 317.272 312.99 317.272 325 317.562C327.85 318.442 328.51 320.112 327 322.562C314.49 322.742 302.16 323.742 290 325.562C267.27 315.122 243.27 310.282 218 311.062C203.57 310.762 189.57 312.932 176 317.562C175.12 318.922 174.79 320.422 175 322.062C171.73 321.922 168.73 320.922 166 319.062C168.41 316.662 170.41 313.992 172 311.062C189.42 310.622 206.76 308.952 224 306.062Z" fill="#FDE8A9"/>
<path fill-rule="evenodd" clip-rule="evenodd" d="M398 305.062C398.88 304.932 399.54 305.262 400 306.062C397.87 311.832 394.2 316.332 389 319.562C375.95 321.422 363.28 324.762 351 329.562C347.14 331.322 343.47 333.322 340 335.562C327 335.892 314 336.232 301 336.562C299.08 336.922 297.41 337.752 296 339.062C295.03 336.822 294.69 334.482 295 332.062C302.24 332.082 309.41 331.422 316.5 330.062C319.69 330.222 322.85 330.552 326 331.062C333.21 328.992 340.54 327.492 348 326.562C363.91 317.372 380.58 310.202 398 305.062Z" fill="#FFEDAD"/>
<path fill-rule="evenodd" clip-rule="evenodd" d="M95.0001 308.062C98.9901 312.902 103.65 317.072 109 320.562C117.09 326.602 125.76 331.602 135 335.562C140.41 336.612 144.57 334.772 147.5 330.062C155.97 335.472 165.13 339.312 175 341.562C186.35 343.172 197.68 345.012 209 347.062C210.88 346.682 212.38 345.682 213.5 344.062C214.57 340.362 214.74 336.692 214 333.062C227.65 331.022 240.99 332.182 254 336.562C265.36 344.122 276.19 343.282 286.5 334.062C286.34 346.612 291.5 349.782 302 343.562C315 343.232 328 342.892 341 342.562C356 334.562 372 329.562 389 327.562C398.28 323.792 404.61 317.292 408 308.062C412.94 316.032 411.61 322.872 404 328.562C394.23 332.282 384.56 336.282 375 340.562C360.48 344.392 345.82 347.392 331 349.562C287 351.542 243 351.542 199 349.562C183.75 347.272 168.42 345.272 153 343.562C144.64 341.692 136.31 339.692 128 337.562C117.02 335.072 107.02 330.572 98.0001 324.062C94.4401 319.162 93.4401 313.832 95.0001 308.062Z" fill="#EEEDEC"/>
<path fill-rule="evenodd" clip-rule="evenodd" d="M201 318.062C217.73 317.752 234.39 318.592 251 320.562C261.01 322.562 270.68 325.562 280 329.562C275.83 333.822 270.83 335.482 265 334.562C259.72 330.352 253.72 327.692 247 326.562C232.03 325.352 217.03 324.682 202 324.562C199.29 323.542 196.96 322.042 195 320.062C197.13 319.392 199.13 318.722 201 318.062Z" fill="#FFEDAC"/>
<path fill-rule="evenodd" clip-rule="evenodd" d="M145 298.062C146.66 304.212 148.83 310.212 151.5 316.062C157.7 325.512 166.53 330.342 178 330.562C188.09 330.082 197.42 332.412 206 337.562C192.01 337.312 178.34 334.982 165 330.562C147.97 324.052 138.3 311.882 136 294.062C136.06 293.522 136.39 293.182 137 293.062C139.73 294.752 142.4 296.422 145 298.062Z" fill="#FEEAAA"/>
</svg>
