<svg width="500" height="500" viewBox="0 0 500 500" fill="none" xmlns="http://www.w3.org/2000/svg">
<path fill-rule="evenodd" clip-rule="evenodd" d="M301 411.454C299.329 411.615 297.662 411.818 296.001 412.061C295.835 411.971 295.668 411.887 295.498 411.807L301 411.454Z" fill="#DADADA"/>
<path d="M284.748 412.498C285.833 412.379 286.917 412.254 288 412.123L290.001 411.062C292.03 410.799 293.863 411.045 295.498 411.807L301 411.454C305.635 411.007 310.304 410.878 315.001 411.062C327.791 410.752 340.451 409.252 353.001 406.562C354.751 405.272 356.581 404.102 358.501 403.062C359.831 398.162 360.331 393.162 360.001 388.062C360.171 383.052 360.001 378.052 359.501 373.062C358.531 370.922 357.031 369.252 355.001 368.062C354.671 366.392 354.331 364.732 354.001 363.062C355.811 350.392 356.141 337.722 355.001 325.062C355.161 323.362 354.991 321.692 354.501 320.062C350.601 316.882 346.601 313.882 342.501 311.062C340.541 306.892 339.041 302.562 338.001 298.062C340.371 294.782 341.871 291.112 342.501 287.062C343.001 278.732 343.171 270.402 343.001 262.062C341.971 251.812 338.811 242.142 333.501 233.062C327.581 227.362 321.421 222.032 315.001 217.062C306.431 211.832 298.771 205.502 292.001 198.062C289.851 196.512 287.681 194.852 285.501 193.062C283.341 190.752 282.341 188.082 282.501 185.062C286.931 182.602 291.091 179.762 295.001 176.562C301.321 175.312 307.651 174.152 314.001 173.062H315.001C333.611 167.322 339.941 154.992 334.001 136.062C333.331 136.062 333.001 135.732 333.001 135.062C328.681 128.892 322.681 125.222 315.001 124.062C314.011 124.232 313.341 123.902 313.001 123.062C301.491 122.212 290.161 120.382 279.001 117.562C270.911 111.852 261.911 109.012 252.001 109.062C252.071 107.602 251.731 106.272 251.001 105.062C244.261 93.9315 237.261 82.9315 230.001 72.0615C227.141 69.6315 223.801 68.3015 220.001 68.0615C215.341 69.3915 210.671 70.7215 206.001 72.0615C200.701 77.0515 194.701 81.0515 188.001 84.0615C169.591 97.4715 155.591 114.472 146.001 135.062C140.361 151.102 139.191 167.432 142.501 184.062C143.801 190.002 146.631 195.002 151.001 199.062C155.971 204.202 160.801 209.532 165.501 215.062C172.261 226.282 173.921 238.282 170.501 251.062C169.161 255.072 167.331 258.732 165.001 262.062C162.451 267.502 159.611 272.832 156.501 278.062C155.831 280.062 155.831 282.062 156.501 284.062C159.301 287.232 162.471 290.062 166.001 292.562C171.841 296.312 177.841 299.812 184.001 303.062C179.811 311.582 174.141 318.912 167.001 325.062C167.071 333.412 166.741 341.742 166.001 350.062C165.981 354.662 166.651 359.162 168.001 363.562C164.451 371.322 163.111 379.482 164.001 388.062C164.901 394.702 167.571 400.542 172.001 405.562C177.471 407.012 182.811 408.512 188.001 410.062C204.231 412.292 220.561 413.622 237.001 414.062H243.001H251.001C262.331 414.232 273.58 413.716 284.748 412.498Z" fill="#DADADA"/>
<path fill-rule="evenodd" clip-rule="evenodd" d="M217 78.0615C219.86 77.6115 222.36 78.2815 224.5 80.0615C231.04 89.3015 237.21 98.8015 243 108.561C237.39 110.391 231.72 110.891 226 110.061C219.14 101.701 212.48 93.2015 206 84.5615C209.17 81.3815 212.84 79.2115 217 78.0615Z" fill="#FEFEFE"/>
<path fill-rule="evenodd" clip-rule="evenodd" d="M198 89.0616C200.22 89.7616 202.05 91.1016 203.5 93.0616C207.64 99.1616 212.14 105.002 217 110.562C208.03 108.132 199.03 105.462 190 102.562C188.62 100.852 186.96 99.5116 185 98.5616C189.4 95.3716 193.73 92.2116 198 89.0616Z" fill="#FEFEFE"/>
<path fill-rule="evenodd" clip-rule="evenodd" d="M298 303.062C277.71 299.582 257.38 299.252 237 302.062C229 301.342 221 300.502 213 299.562C209.54 298.702 206.21 297.532 203 296.062C208.34 290.882 213.17 285.222 217.5 279.062C223.89 270.872 226.89 261.532 226.5 251.062C228.41 236.582 226.74 222.582 221.5 209.062C216.59 198.902 210.92 189.232 204.5 180.062C199.03 169.692 197.03 158.692 198.5 147.062C199.25 145.232 200.25 143.562 201.5 142.062C205.09 146.152 208.26 145.992 211 141.562C210.64 140.342 210.14 139.172 209.5 138.062C200.39 132.132 195.23 123.802 194 113.062C204.37 115.852 214.7 118.852 225 122.062C227.29 121.942 229.29 121.102 231 119.562C240.97 118.182 250.97 117.852 261 118.562C263.59 119.762 266.26 120.762 269 121.562C271.16 123.472 273.49 125.142 276 126.562C288.25 129.332 300.58 131.662 313 133.562C326.89 137.172 330.56 145.342 324 158.062C322.01 160.062 319.67 161.562 317 162.562C308.99 164.232 300.99 165.892 293 167.562C281.35 177.002 268.01 181.672 253 181.562C249.84 179.892 246.84 178.052 244 176.062C241.67 176.392 240.33 177.732 240 180.062C245.15 189.792 253.15 193.292 264 190.562C267.05 189.882 270.05 189.052 273 188.062C282.92 206.142 297.25 219.642 316 228.562C318.87 231.762 322.04 234.602 325.5 237.062C331.1 247.992 333.94 259.662 334 272.062C332.85 282.142 331.18 292.142 329 302.062C318.69 302.902 308.36 303.232 298 303.062Z" fill="#FEFEFE"/>
<path fill-rule="evenodd" clip-rule="evenodd" d="M179 103.062C181.31 104.542 183.14 106.542 184.5 109.062C184.57 118.862 187.74 127.532 194 135.062C188.49 142.482 186.49 150.812 188 160.062C176.19 157.122 164.53 153.792 153 150.062C154.19 141.992 156.69 134.322 160.5 127.062C165.95 118.492 172.12 110.492 179 103.062Z" fill="#FAFAFA"/>
<path fill-rule="evenodd" clip-rule="evenodd" d="M261 130.062C268.41 131.322 271.24 135.652 269.5 143.062C267.43 147.702 263.93 149.202 259 147.562C253.97 143.662 252.8 138.832 255.5 133.062C257.22 131.692 259.05 130.692 261 130.062Z" fill="#090909"/>
<path fill-rule="evenodd" clip-rule="evenodd" d="M263.001 133.062C266.971 133.642 267.971 135.802 266.001 139.562C260.881 139.382 259.881 137.222 263.001 133.062Z" fill="#F8F8F8"/>
<path fill-rule="evenodd" clip-rule="evenodd" d="M151 159.062C160.27 162.322 169.61 165.482 179 168.562C182.65 169.062 186.32 169.232 190 169.062C190.75 173.242 192.09 177.242 194 181.062C181.52 184.352 168.85 186.352 156 187.062C152.16 178.182 150.49 168.852 151 159.062Z" fill="#FEFEFE"/>
<path fill-rule="evenodd" clip-rule="evenodd" d="M197 189.062C200.68 193.222 204.01 197.722 207 202.562C199.09 206.872 190.75 210.202 182 212.562C180.24 213.362 178.57 213.192 177 212.062C172.51 207.402 168.18 202.572 164 197.562C173.89 195.072 183.89 193.072 194 191.562C195.44 191.182 196.44 190.352 197 189.062Z" fill="#FEFEFE"/>
<path fill-rule="evenodd" clip-rule="evenodd" d="M210 210.062C214.52 216.972 216.86 224.642 217 233.062C205.64 234.182 194.31 235.512 183 237.062C183.09 232.022 182.75 227.022 182 222.062C189.07 220.202 196.07 218.042 203 215.562C206.1 214.622 208.43 212.792 210 210.062Z" fill="#FEFEFE"/>
<path fill-rule="evenodd" clip-rule="evenodd" d="M216 242.062C217.19 242.532 217.86 243.532 218 245.062C217.56 252.192 216.56 259.192 215 266.062C202.85 263.172 190.52 261.502 178 261.062C179.41 256.482 180.41 251.822 181 247.062C192.9 246.222 204.57 244.552 216 242.062Z" fill="#FEFEFE"/>
<path fill-rule="evenodd" clip-rule="evenodd" d="M172 270.062C184.14 271.022 196.14 272.852 208 275.562C204.38 280.302 200.88 285.142 197.5 290.062C196.44 291.462 195.11 292.462 193.5 293.062C183.42 291.102 174.58 286.602 167 279.562C168.81 276.452 170.47 273.282 172 270.062Z" fill="#FEFEFE"/>
<path fill-rule="evenodd" clip-rule="evenodd" d="M219 312.062C212.42 314.632 208.42 319.302 207 326.062C201.86 334.522 201.7 343.182 206.5 352.062C214.62 358.202 223.45 362.872 233 366.062C228.91 368.522 224.74 370.862 220.5 373.062C216.9 368.172 213.06 363.502 209 359.062C207.67 359.732 206.67 360.732 206 362.062C208.11 365.952 210.44 369.622 213 373.062C201.03 371.902 189.69 368.572 179 363.062C176.76 359.422 175.76 355.422 176 351.062C176.6 343.402 177.1 335.732 177.5 328.062C185.1 321.302 190.94 313.302 195 304.062C203.16 307.082 211.16 309.752 219 312.062Z" fill="#FDFDFD"/>
<path fill-rule="evenodd" clip-rule="evenodd" d="M245 310.062C246.73 310.682 248.23 311.682 249.5 313.062C251.45 317.782 252.95 322.612 254 327.562C252.38 338.842 245.88 345.012 234.5 346.062C224.14 344.362 218.64 338.192 218 327.562C218.46 325.362 218.63 323.192 218.5 321.062C216.8 322.932 214.96 324.602 213 326.062C211 327.392 209 327.392 207 326.062C208.42 319.302 212.42 314.632 219 312.062C220.33 311.392 221.67 310.732 223 310.062C230.33 307.532 237.67 307.532 245 310.062Z" fill="#060606"/>
<path fill-rule="evenodd" clip-rule="evenodd" d="M282 309.061C273.01 315.411 269.85 324.071 272.5 335.061C274.08 340.971 277.91 344.471 284 345.561C291.05 347.451 296.88 345.611 301.5 340.061C305.09 334.551 307.26 328.551 308 322.061C309.74 323.601 311.74 324.601 314 325.061C318.48 336.281 315.81 345.441 306 352.561C294.67 357.731 283 359.571 271 358.061C273.24 355.981 274.91 353.481 276 350.561C275.83 349.061 275 348.231 273.5 348.061C271.12 349.801 268.96 351.801 267 354.061C264.72 352.341 262.22 351.001 259.5 350.061C255.82 351.211 255.32 353.051 258 355.561C260.14 356.131 262.14 356.971 264 358.061C258 358.731 252 359.391 246 360.061C244.06 359.301 242.23 358.301 240.5 357.061C238.75 357.311 237.92 358.311 238 360.061C231.55 357.351 224.88 354.851 218 352.561C211.01 344.781 209.35 335.941 213 326.061C214.96 324.601 216.8 322.931 218.5 321.061C218.63 323.191 218.46 325.361 218 327.561C218.64 338.191 224.14 344.361 234.5 346.061C245.88 345.011 252.38 338.841 254 327.561C252.95 322.611 251.45 317.781 249.5 313.061C248.23 311.681 246.73 310.681 245 310.061C245.42 309.341 246.08 308.841 247 308.561C258.84 307.731 270.51 307.901 282 309.061Z" fill="#FBFBFB"/>
<path fill-rule="evenodd" clip-rule="evenodd" d="M282 309.062C285.68 308.892 289.35 309.062 293 309.562C297.68 310.902 302.35 312.242 307 313.562C311.17 316.392 315.33 319.232 319.5 322.062C320.18 323.342 320.02 324.512 319 325.562C317.3 325.942 315.64 325.782 314 325.062C311.74 324.602 309.74 323.602 308 322.062C307.26 328.552 305.09 334.552 301.5 340.062C296.88 345.612 291.05 347.452 284 345.562C277.91 344.472 274.08 340.972 272.5 335.062C269.85 324.072 273.01 315.412 282 309.062Z" fill="#050505"/>
<path fill-rule="evenodd" clip-rule="evenodd" d="M334 377.061C334.11 370.681 333.61 364.351 332.5 358.061C330.47 353.231 328.64 353.061 327 357.561C328.66 363.951 329.33 370.451 329 377.061C328.04 375.301 327.71 373.301 328 371.061C318.69 372.271 309.35 373.441 300 374.561C276.5 375.391 253.16 375.221 230 374.061C233.48 371.811 236.82 369.311 240 366.561C241.97 366.061 243.97 365.901 246 366.061C263.81 368.011 281.47 367.171 299 363.561C320.76 357.531 328.6 343.701 322.5 322.061C319.8 319.191 316.96 316.521 314 314.061C319.79 312.591 325.79 312.091 332 312.561C334.83 318.061 339 322.231 344.5 325.061C345.17 338.731 345.17 352.391 344.5 366.061C341.45 367.171 338.28 367.841 335 368.061C335.31 371.271 334.98 374.271 334 377.061Z" fill="#FDFDFD"/>
<path fill-rule="evenodd" clip-rule="evenodd" d="M283 313.061C286.75 312.981 288.75 314.811 289 318.561C289.34 325.231 286.34 327.891 280 326.561C276.3 324.031 275.47 320.861 277.5 317.061C279.67 316.071 281.5 314.741 283 313.061Z" fill="#F4F4F4"/>
<path fill-rule="evenodd" clip-rule="evenodd" d="M241.001 314.062C244.891 314.452 246.891 316.622 247.001 320.562C245.951 329.022 242.111 330.852 235.501 326.062C234.811 320.912 236.651 316.912 241.001 314.062Z" fill="#F6F6F6"/>
<path fill-rule="evenodd" clip-rule="evenodd" d="M298 303.062C303.99 305.732 309.33 309.392 314 314.062C316.96 316.522 319.8 319.192 322.5 322.062C328.6 343.702 320.76 357.532 299 363.562C281.47 367.172 263.81 368.012 246 366.062C247.33 364.062 247.33 362.062 246 360.062C252 359.392 258 358.732 264 358.062C266.33 359.392 268.67 359.392 271 358.062C283 359.572 294.67 357.732 306 352.562C315.81 345.442 318.48 336.282 314 325.062C315.64 325.782 317.3 325.942 319 325.562C320.02 324.512 320.18 323.342 319.5 322.062C315.33 319.232 311.17 316.392 307 313.562C302.35 312.242 297.68 310.902 293 309.562C289.35 309.062 285.68 308.892 282 309.062C270.51 307.902 258.84 307.732 247 308.562C246.08 308.842 245.42 309.342 245 310.062C237.67 307.532 230.33 307.532 223 310.062C222.91 309.062 223.25 308.232 224 307.562C228.42 305.672 232.76 303.842 237 302.062C257.38 299.252 277.71 299.582 298 303.062Z" fill="#C3C3C3"/>
<path fill-rule="evenodd" clip-rule="evenodd" d="M207 326.062C209 327.392 211 327.392 213 326.062C209.35 335.942 211.01 344.782 218 352.562C224.88 354.852 231.55 357.352 238 360.062C237.18 362.672 235.52 364.672 233 366.062C223.45 362.872 214.62 358.202 206.5 352.062C201.7 343.182 201.86 334.522 207 326.062Z" fill="#C3C3C3"/>
<path fill-rule="evenodd" clip-rule="evenodd" d="M271.001 358.062C268.671 359.392 266.331 359.392 264.001 358.062C262.141 356.972 260.141 356.132 258.001 355.562C255.321 353.052 255.821 351.212 259.501 350.062C262.221 351.002 264.721 352.342 267.001 354.062C268.961 351.802 271.121 349.802 273.501 348.062C275.001 348.232 275.831 349.062 276.001 350.562C274.911 353.482 273.241 355.982 271.001 358.062Z" fill="#0C0C0C"/>
<path fill-rule="evenodd" clip-rule="evenodd" d="M334 377.062C333.16 377.402 332.83 378.072 333 379.062C331.83 383.232 331.83 387.402 333 391.562C333.22 393.532 332.39 394.702 330.5 395.062C328.09 391.772 325.26 388.772 322 386.062C323.28 384.412 324.95 383.252 327 382.562C327.75 381.892 328.09 381.062 328 380.062C328.9 379.352 329.24 378.352 329 377.062C329.33 370.452 328.66 363.952 327 357.562C328.64 353.062 330.47 353.232 332.5 358.062C333.61 364.352 334.11 370.682 334 377.062Z" fill="#0D0D0D"/>
<path fill-rule="evenodd" clip-rule="evenodd" d="M246 360.062C247.33 362.062 247.33 364.062 246 366.062C243.97 365.902 241.97 366.062 240 366.562C236.82 369.312 233.48 371.812 230 374.062C223.92 379.682 218.26 379.342 213 373.062C210.44 369.622 208.11 365.952 206 362.062C206.67 360.732 207.67 359.732 209 359.062C213.06 363.502 216.9 368.172 220.5 373.062C224.74 370.862 228.91 368.522 233 366.062C235.52 364.672 237.18 362.672 238 360.062C237.92 358.312 238.75 357.312 240.5 357.062C242.23 358.302 244.06 359.302 246 360.062Z" fill="#0C0C0C"/>
<path fill-rule="evenodd" clip-rule="evenodd" d="M328.001 380.062C328.091 381.062 327.751 381.892 327.001 382.562C324.951 383.252 323.281 384.412 322.001 386.062C325.261 388.772 328.091 391.772 330.501 395.062C332.391 394.702 333.221 393.532 333.001 391.562C331.831 387.402 331.831 383.232 333.001 379.062C337.721 378.382 342.391 377.382 347.001 376.062C347.941 376.172 348.781 376.502 349.501 377.062C350.171 383.062 350.171 389.062 349.501 395.062C349.131 395.982 348.631 396.812 348.001 397.562C298.481 404.052 248.811 405.392 199.001 401.562C191.861 400.402 184.861 398.732 178.001 396.562C176.401 394.632 175.231 392.462 174.501 390.062C173.831 384.732 173.831 379.392 174.501 374.062C174.911 373.602 175.411 373.272 176.001 373.062C183.021 376.462 190.361 378.962 198.001 380.562C239.951 387.532 281.951 387.862 324.001 381.562C325.561 381.242 326.731 380.412 327.501 379.062C327.901 379.292 328.071 379.622 328.001 380.062Z" fill="#FEFEFE"/>
<path fill-rule="evenodd" clip-rule="evenodd" d="M296 412.062C296 415.392 296 418.732 296 422.062C301.61 420.642 303.78 422.642 302.5 428.062C299.17 429.812 295.67 430.642 292 430.562C290.25 426.272 289.59 421.772 290 417.062C290 415.062 290 413.062 290 411.062C292.24 410.772 294.24 411.102 296 412.062Z" fill="#101010"/>
<path fill-rule="evenodd" clip-rule="evenodd" d="M237 414.062C239 414.062 241 414.062 243 414.062C242.82 417.782 243.15 421.442 244 425.062C243.65 427.262 242.65 429.092 241 430.562C237.33 431.232 233.67 431.232 230 430.562C229.54 430.152 229.21 429.652 229 429.062C230.91 425.552 233.91 424.222 238 425.062C237.78 421.382 237.44 417.712 237 414.062Z" fill="#080908"/>
</svg>
