<svg width="500" height="500" viewBox="0 0 500 500" fill="none" xmlns="http://www.w3.org/2000/svg">
<path fill-rule="evenodd" clip-rule="evenodd" d="M280 84.0611C275.67 84.0611 271.33 84.0611 267 84.0611C268.56 78.4911 269.06 72.8211 268.5 67.0611C263.67 65.5411 258.67 64.8711 253.5 65.0611C246.1 64.0811 239.43 65.7411 233.5 70.0611C232.72 74.8811 233.22 79.5411 235 84.0611C230.6 84.8611 226.27 85.8611 222 87.0611C217.5 75.5211 219.83 65.6911 229 57.5611C232.73 55.4311 236.73 54.0911 241 53.5611C250 52.8911 259 52.8911 268 53.5611C275.84 54.7411 280.34 59.2411 281.5 67.0611C281.82 72.7911 281.32 78.4611 280 84.0611Z" fill="#DB964B"/>
<path fill-rule="evenodd" clip-rule="evenodd" d="M267 84.0611C256.33 84.0611 245.67 84.0611 235 84.0611C233.22 79.5411 232.72 74.8811 233.5 70.0611C239.43 65.7411 246.1 64.0811 253.5 65.0611C258.67 64.8711 263.67 65.5411 268.5 67.0611C269.06 72.8211 268.56 78.4911 267 84.0611Z" fill="#EEB779"/>
<path fill-rule="evenodd" clip-rule="evenodd" d="M235 84.0611C245.67 84.0611 256.33 84.0611 267 84.0611C271.33 84.0611 275.67 84.0611 280 84.0611C297.55 85.1611 302.89 93.8315 296 110.062C307.21 105.122 318.21 99.6215 329 93.5615C364.29 89.8215 386.12 105.322 394.5 140.062C397.78 155.552 394.12 169.212 383.5 181.062C374.43 192.962 362.93 201.632 349 207.062C348.66 209.222 348.66 211.552 349 214.062C344.31 214.102 339.64 214.432 335 215.062C334.42 210.272 333.58 205.612 332.5 201.062C341.91 197.082 351.08 192.582 360 187.562C366.75 181.202 372.92 174.372 378.5 167.062C385.63 155.132 385.63 143.132 378.5 131.062C369.08 109.432 352.91 101.262 330 106.562C319.43 113.152 308.43 118.812 297 123.562C292.33 124.232 287.67 124.232 283 123.562C281.75 121.522 281.08 119.192 281 116.562C281.085 115.477 281.167 114.394 281.25 113.312C281.333 112.229 281.415 111.147 281.5 110.062C283.58 106.832 285.08 103.332 286 99.5615C285.09 95.7815 282.59 93.9515 278.5 94.0615C272.91 95.3815 267.24 96.0515 261.5 96.0615C248.34 95.0815 235.18 94.9115 222 95.5615C218.92 97.2715 217.75 99.7715 218.5 103.062C228.89 118.422 227.06 131.922 213 143.562C198.14 154.432 184.3 166.602 171.5 180.062C167.97 185.782 164.97 191.782 162.5 198.062C161.45 203.012 160.95 208.012 161 213.062C156.67 213.062 152.33 213.062 148 213.062C149.23 204.612 151.07 196.282 153.5 188.062C159.87 174.182 169.04 162.352 181 152.562C189.27 145.422 197.93 138.752 207 132.562C209.41 129.822 211.41 126.822 213 123.562C212.31 120.762 211.81 117.932 211.5 115.062C206.97 109.472 205.3 103.142 206.5 96.0615C209.78 89.8415 214.95 86.8411 222 87.0611C226.27 85.8611 230.6 84.8611 235 84.0611Z" fill="#8E4D33"/>
<path fill-rule="evenodd" clip-rule="evenodd" d="M232 100.062C236.67 100.602 240.84 102.262 244.5 105.062C244.56 111.392 244.22 117.722 243.5 124.062C240.32 129.812 236.32 130.482 231.5 126.062C231.17 121.392 230.83 116.732 230.5 112.062C226.85 107.452 227.35 103.452 232 100.062Z" fill="#B37B57"/>
<path fill-rule="evenodd" clip-rule="evenodd" d="M226.999 138.062C236.189 138.102 238.359 142.102 233.499 150.062C222.549 164.012 210.549 177.012 197.499 189.062C193.759 192.872 190.759 197.202 188.499 202.062C186.259 203.842 183.759 204.342 180.999 203.562C176.049 199.262 174.879 194.092 177.499 188.062C182.879 182.352 187.879 176.352 192.499 170.062C203.919 159.132 215.419 148.462 226.999 138.062Z" fill="#B37C57"/>
<path fill-rule="evenodd" clip-rule="evenodd" d="M148 213.062C152.33 213.062 156.67 213.062 161 213.062C161.11 213.682 161.44 214.181 162 214.561C175.49 215.091 188.82 216.761 202 219.561C234.2 223.271 266.199 222.601 297.999 217.561C310.389 217.091 322.72 216.262 335 215.062C339.64 214.432 344.31 214.102 349 214.062C351.79 216.382 353.63 219.382 354.5 223.062C357.93 241.902 358.93 260.902 357.5 280.062C356.63 294.402 355.8 308.732 355 323.062C354.01 327.872 353.68 332.872 354 338.062C353.22 347.062 352.39 356.062 351.5 365.062C349.17 374.042 346.84 383.042 344.5 392.062C337.62 402.272 328.12 408.442 316 410.562C309.5 411.062 303 411.562 296.5 412.062C289.68 411.372 282.85 411.042 276 411.062C271.14 410.742 266.47 411.072 262 412.062C250.01 412.772 238.01 413.102 226 413.062C221.4 412.182 216.73 411.842 212 412.062C197.97 411.752 183.97 410.922 170 409.562C161.58 406.152 155.42 400.312 151.5 392.062C145.19 374.282 142.02 355.942 142 337.062C140.67 337.062 139.33 337.062 138 337.062C139.07 336.132 140.4 335.792 142 336.062C142.28 330.972 141.95 325.972 141 321.062C139.2 294.762 138.7 268.422 139.5 242.062C140.87 232.892 142.87 223.892 145.5 215.062C146.21 214.182 147.04 213.512 148 213.062Z" fill="#DB954B"/>
<path fill-rule="evenodd" clip-rule="evenodd" d="M154 225.062C159.87 226.762 165.87 227.932 172 228.562C197.54 231.452 223.04 233.292 248.5 234.062C258.33 233.892 268.17 233.732 278 233.562C287.3 232.452 296.63 231.782 306 231.562C310.61 231.262 315.11 230.422 319.5 229.062C322.31 229.592 325.14 229.922 328 230.062C333.34 229.392 338.67 228.722 344 228.062C346.15 264.072 345.65 300.072 342.5 336.062C341.99 350.212 340.32 364.212 337.5 378.062C330.45 393.012 318.62 399.842 302 398.562C277.65 398.832 253.31 399.672 229 401.062C209.83 400.922 190.83 399.092 172 395.562C162.84 388.412 158 378.912 157.5 367.062C152.36 326.232 150.36 285.232 151.5 244.062C153.38 237.952 154.21 231.612 154 225.062Z" fill="#FBC476"/>
<path fill-rule="evenodd" clip-rule="evenodd" d="M172 236.062C174.36 235.902 176.69 236.062 179 236.562C182.2 239.432 185.04 242.602 187.5 246.062C189.67 242.562 192.5 239.732 196 237.562C204.79 235.682 207.95 238.842 205.5 247.062C202.85 250.542 200.02 253.872 197 257.062C200.03 260.922 202.86 264.922 205.5 269.062C207.84 277.722 204.67 281.222 196 279.562C193.45 275.972 190.79 272.472 188 269.062C185.85 271.712 183.52 274.212 181 276.562C174.22 278.442 171.05 275.942 171.5 269.062C174.62 265.782 177.12 262.112 179 258.062C176.68 253.422 173.85 249.092 170.5 245.062C169.57 241.742 170.07 238.742 172 236.062Z" fill="#070503"/>
<path fill-rule="evenodd" clip-rule="evenodd" d="M311 239.062C318.33 237.892 321.49 240.892 320.5 248.062C316.62 251.612 313.12 255.442 310 259.562C314.1 263.662 318.27 267.832 322.5 272.062C323 278.232 320.17 281.062 314 280.562C309.53 277.592 305.19 274.422 301 271.062C297.81 273.412 295.15 276.252 293 279.562C285.23 282.132 282.07 279.302 283.5 271.062C285.8 267.962 287.96 264.802 290 261.562C286.59 258.622 283.76 255.122 281.5 251.062C279.67 243.562 282.5 240.732 290 242.562C293.15 244.872 296.15 247.372 299 250.062C303.07 246.382 307.07 242.712 311 239.062Z" fill="#070502"/>
<path fill-rule="evenodd" clip-rule="evenodd" d="M222 240.062C231.08 241.622 238.42 246.292 244 254.062C248.21 250.672 252.55 247.502 257 244.562C264.99 242.222 268.15 245.052 266.5 253.062C262.2 256.282 258.04 259.622 254 263.062C256.02 264.922 258.19 266.582 260.5 268.062C262.01 271.082 264.01 273.752 266.5 276.062C267.67 282.892 264.83 285.732 258 284.562C252.25 281.312 246.91 277.472 242 273.062C238.23 275.332 234.89 278.162 232 281.562C227.95 283.632 224.12 283.472 220.5 281.062C219.83 278.732 219.83 276.392 220.5 274.062C224.21 270.182 228.04 266.522 232 263.062C224.49 258.352 220.32 251.682 219.5 243.062C220.54 242.192 221.38 241.192 222 240.062Z" fill="#070503"/>
<path fill-rule="evenodd" clip-rule="evenodd" d="M141 321.062C141.95 325.972 142.28 330.972 142 336.062C140.4 335.792 139.07 336.132 138 337.062C125.11 339.502 112.271 342.161 99.5005 345.061C95.8805 344.111 93.5505 341.781 92.5005 338.061C91.8305 335.731 91.8305 333.391 92.5005 331.061C97.5605 316.281 104.221 302.281 112.501 289.061C115.211 285.531 118.711 284.361 123.001 285.561C128.111 286.591 132.611 288.761 136.501 292.061C138.951 296.881 138.111 301.051 134.001 304.561C130.081 304.761 126.251 305.261 122.501 306.061C118.211 313.141 114.041 320.311 110.001 327.561C120.291 325.531 130.62 323.362 141 321.062Z" fill="#050505"/>
<path fill-rule="evenodd" clip-rule="evenodd" d="M354 338.062C353.68 332.872 354.01 327.872 355 323.062C366.81 324.482 378.48 326.321 390 328.561C385.92 321.321 381.25 314.481 376 308.061C372.04 307.231 368.04 306.731 364 306.561C362.17 306.061 361 304.891 360.5 303.061C358.56 295.431 361.4 290.601 369 288.561C373.29 286.391 377.62 286.061 382 287.561C393.43 301.571 402.43 317.071 409 334.061C408.18 337.711 406.51 340.881 404 343.561C387.22 342.831 370.55 340.992 354 338.062Z" fill="#040404"/>
<path fill-rule="evenodd" clip-rule="evenodd" d="M303 314.061C293.57 311.041 283.9 309.041 274 308.061C263.64 308.511 257.14 313.841 254.5 324.061C249.36 350.251 259.86 361.421 286 357.561C291.56 355.001 295.39 350.831 297.5 345.061C299.03 341.471 300.36 337.801 301.5 334.061C301.68 330.611 301.84 327.281 302 324.061C305.17 327.061 308.84 328.731 313 329.061C317.42 354.681 307.09 371.521 282 379.561C258.41 382.451 234.75 383.451 211 382.561C198.75 379.351 188.25 373.191 179.5 364.061C173.89 356.311 171.39 347.641 172 338.061C174.94 335.631 177.77 332.961 180.5 330.061C179.41 341.781 183.24 351.611 192 359.561C212.53 365.281 225.2 357.621 230 336.561C229.83 335.061 229.67 333.561 229.5 332.061C226.36 327.441 224.02 322.441 222.5 317.061C219.87 314.331 216.71 312.501 213 311.561C205.24 309.531 197.58 309.691 190 312.061C195.05 308.201 200.71 305.371 207 303.561C232.58 299.291 258.25 298.961 284 302.561C291.66 304.381 298 308.221 303 314.061Z" fill="#FCFBFB"/>
<path fill-rule="evenodd" clip-rule="evenodd" d="M303 314.061C307.51 318.241 312.67 321.572 318.5 324.062C319.46 328.492 317.62 330.151 313 329.061C308.84 328.731 305.17 327.061 302 324.061C301.84 327.281 301.68 330.611 301.5 334.061C300.36 337.801 299.03 341.471 297.5 345.061C295.39 350.831 291.56 355.001 286 357.561C259.86 361.421 249.36 350.251 254.5 324.061C257.14 313.841 263.64 308.511 274 308.061C283.9 309.041 293.57 311.041 303 314.061Z" fill="#060606"/>
<path fill-rule="evenodd" clip-rule="evenodd" d="M172 338.061C169.67 338.061 167.33 338.062 165 338.062C164.84 335.702 165 333.372 165.5 331.062C171.54 321.962 179.7 315.631 190 312.061C197.58 309.691 205.24 309.531 213 311.561C216.71 312.501 219.87 314.331 222.5 317.061C224.02 322.441 226.36 327.441 229.5 332.061C229.67 333.561 229.83 335.061 230 336.561C225.2 357.621 212.53 365.281 192 359.561C183.24 351.611 179.41 341.781 180.5 330.061C177.77 332.961 174.94 335.631 172 338.061Z" fill="#060606"/>
<path fill-rule="evenodd" clip-rule="evenodd" d="M267 315.062C270.79 314.372 273.95 315.372 276.5 318.062C276.49 322.442 275.83 326.782 274.5 331.062C271.94 333.912 268.77 334.742 265 333.562C263.52 331.122 261.69 328.952 259.5 327.062C258.87 324.922 259.2 322.922 260.5 321.062C262.84 319.162 265 317.162 267 315.062Z" fill="#F3F3F3"/>
<path fill-rule="evenodd" clip-rule="evenodd" d="M209 319.062C215.69 317.912 219.35 320.742 220 327.562C219.31 333.832 215.97 337.662 210 339.062C205.56 337.902 203.22 334.902 203 330.062C203.7 325.652 205.7 321.982 209 319.062Z" fill="#F5F5F5"/>
<path fill-rule="evenodd" clip-rule="evenodd" d="M256 362.061C258.85 361.911 260.52 363.251 261 366.061C258.74 374.521 253.4 378.361 245 377.561C241.64 375.361 238.14 373.521 234.5 372.061C233.91 368.971 235.25 367.311 238.5 367.061C242.1 368.091 245.6 369.431 249 371.061C251.71 368.351 254.04 365.351 256 362.061Z" fill="#0C0C0C"/>
<path fill-rule="evenodd" clip-rule="evenodd" d="M276 411.062C276.33 417.062 276.67 423.061 277 429.061C280.17 428.791 283.33 428.461 286.5 428.061C294.69 428.451 297.36 432.451 294.5 440.061C288.32 442.801 281.82 444.471 275 445.061C272.22 444.761 269.72 443.761 267.5 442.061C263.64 432.461 261.8 422.462 262 412.062C266.47 411.072 271.14 410.742 276 411.062Z" fill="#080808"/>
<path fill-rule="evenodd" clip-rule="evenodd" d="M212 412.062C216.73 411.842 221.4 412.182 226 413.062C224.7 421.392 224.7 429.721 226 438.061C225.64 441.251 223.98 443.411 221 444.561C212.62 448.051 204.62 447.381 197 442.561C194.06 438.541 194.39 434.881 198 431.561C202.2 430.191 206.53 429.691 211 430.061C210.8 424.011 211.14 418.012 212 412.062Z" fill="#050404"/>
<path fill-rule="evenodd" clip-rule="evenodd" d="M335 215.062C322.72 216.262 310.389 217.091 297.999 217.561C266.199 222.601 234.2 223.271 202 219.561C188.82 216.761 175.49 215.091 162 214.561C161.44 214.181 161.11 213.682 161 213.062C160.95 208.012 161.45 203.012 162.5 198.062C164.97 191.782 167.97 185.782 171.5 180.062C184.3 166.602 198.14 154.432 213 143.562C227.06 131.922 228.89 118.422 218.5 103.062C217.75 99.7715 218.92 97.2715 222 95.5615C235.18 94.9115 248.34 95.0815 261.5 96.0615C267.24 96.0515 272.91 95.3815 278.5 94.0615C282.59 93.9515 285.09 95.7815 286 99.5615C285.08 103.332 283.58 106.832 281.5 110.062C281.415 111.147 281.333 112.229 281.25 113.312C281.167 114.394 281.085 115.477 281 116.562C281.08 119.192 281.75 121.522 283 123.562C287.67 124.232 292.33 124.232 297 123.562C308.43 118.812 319.43 113.152 330 106.562C352.91 101.262 369.08 109.432 378.5 131.062C385.63 143.132 385.63 155.132 378.5 167.062C372.92 174.372 366.75 181.202 360 187.562C351.08 192.582 341.91 197.082 332.5 201.062C333.58 205.612 334.42 210.272 335 215.062ZM353.5 153.061C355.98 140.991 351.15 134.991 339 135.061C328.64 138.231 318.64 142.571 309 148.061C316.64 153.871 323.48 160.541 329.5 168.061C337.76 163.471 345.76 158.471 353.5 153.061Z" fill="#A05A2C"/>
</svg>
