<svg width="500" height="500" viewBox="0 0 500 500" fill="none" xmlns="http://www.w3.org/2000/svg">
<path opacity="0.999" d="M246 74.5617C243.12 71.1817 239.45 64.6817 237 61.0617C231.54 56.5017 225.21 53.8417 218 53.0617C215.97 52.9017 213.97 53.0617 212 53.5617C208.43 55.9817 204.76 58.1517 201 60.0617C194.24 59.6817 187.58 60.1817 181 61.5617C175.81 65.1117 172.48 69.9417 171 76.0617C170.33 77.7317 169 81.0617 169 81.0617V83.5617C169 83.5617 167.74 87.7717 168 90.0617C167.29 93.3517 166.96 96.6817 167 100.062C169.7 98.3817 172.37 96.7117 175 95.0617C174.95 86.3217 176.95 77.8217 181 69.5617C182.17 69.1417 183.17 68.4717 184 67.5617C191 67.2317 198 66.8917 205 66.5617C208.17 64.8117 211.17 62.8117 214 60.5617C216.33 59.8917 218.67 59.8917 221 60.5617C230.47 64.8617 237.47 71.6917 242 81.0617C244.98 81.5217 247.98 81.8617 251 82.0617C249.56 79.4417 247.89 76.9417 246 74.5617Z" fill="#8D4C32"/>
<path fill-rule="evenodd" clip-rule="evenodd" d="M242 81.0611C218.25 79.4011 195.91 84.0711 175 95.0611C174.95 86.3211 176.95 77.8211 181 69.5611C182.17 69.1411 183.17 68.4711 184 67.5611C191 67.2311 198 66.8911 205 66.5611C208.17 64.8111 211.17 62.8111 214 60.5611C216.33 59.8911 218.67 59.8911 221 60.5611C230.47 64.8611 237.47 71.6911 242 81.0611Z" fill="#B57751"/>
<path fill-rule="evenodd" clip-rule="evenodd" d="M242 81.0619C244.98 81.5219 247.98 81.8619 251 82.0619C251.33 82.7319 251.67 83.3919 252 84.0619C252.67 86.0619 253.33 88.0619 254 90.0619C222.73 87.2719 193.73 93.9419 167 110.062C165.72 106.832 165.72 103.502 167 100.062C169.7 98.3819 172.37 96.7119 175 95.0619C195.91 84.0719 218.25 79.4019 242 81.0619Z" fill="#494949"/>
<path fill-rule="evenodd" clip-rule="evenodd" d="M254 90.0615C262.25 90.0115 268.58 93.3515 273 100.062C272.86 107.202 269.19 111.202 262 112.062C243.68 99.6215 223.68 96.1215 202 101.562C184.85 108.552 172.52 120.382 165 137.062C163 137.062 161 137.062 159 137.062C157.36 136.092 156.03 134.752 155 133.062C154.76 129.292 155.26 125.622 156.5 122.062C159.79 117.762 163.29 113.762 167 110.062C193.73 93.9415 222.73 87.2715 254 90.0615Z" fill="#8F5135"/>
<path fill-rule="evenodd" clip-rule="evenodd" d="M262 112.062C264.27 113.832 266.44 115.832 268.5 118.062C271.11 122.962 273.94 127.622 277 132.062C277.67 134.392 278.33 136.732 279 139.062C276.64 138.812 274.64 139.482 273 141.062C271.41 137.382 269.41 133.882 267 130.562C267.56 130.182 267.89 129.682 268 129.062C269.33 129.062 270.67 129.062 272 129.062C272.17 127.742 271.84 126.572 271 125.562C265.66 122.212 259.99 120.042 254 119.062C255.37 119.222 256.71 119.052 258 118.562C242.44 107.112 225.1 103.442 206 107.562C188.32 114.072 176.65 126.242 171 144.062C167.44 144.242 164.44 145.582 162 148.062C162.84 144.352 163.84 140.682 165 137.062C172.52 120.382 184.85 108.552 202 101.562C223.68 96.1218 243.68 99.6218 262 112.062Z" fill="#E9E9E9"/>
<path fill-rule="evenodd" clip-rule="evenodd" d="M254 119.061C238.64 115.251 231.14 121.251 231.5 137.061C235.14 149.631 242.98 153.131 255 147.561C256.55 146.351 257.72 144.851 258.5 143.061C260.66 137.761 261.83 132.431 262 127.061C263.82 128.311 265.82 128.971 268 129.061C267.89 129.681 267.56 130.181 267 130.561C269.41 133.881 271.41 137.381 273 141.061C262.39 155.511 251.56 169.851 240.5 184.061C228.33 178.891 216.49 173.061 205 166.561C193.51 159.231 182.18 151.731 171 144.061C176.65 126.241 188.32 114.071 206 107.561C225.1 103.441 242.44 107.111 258 118.561C256.71 119.051 255.37 119.221 254 119.061Z" fill="#FCFBFB"/>
<path fill-rule="evenodd" clip-rule="evenodd" d="M254 119.062C259.99 120.042 265.66 122.212 271 125.562C271.84 126.572 272.17 127.742 272 129.062C270.67 129.062 269.33 129.062 268 129.062C265.82 128.972 263.82 128.312 262 127.062C261.83 132.432 260.66 137.762 258.5 143.062C257.72 144.852 256.55 146.352 255 147.562C242.98 153.132 235.14 149.632 231.5 137.062C231.14 121.252 238.64 115.252 254 119.062Z" fill="#060606"/>
<path fill-rule="evenodd" clip-rule="evenodd" d="M239 123.061C240.97 122.821 242.8 123.151 244.5 124.061C245.52 127.881 245.02 131.381 243 134.561C238.58 135.811 235.91 134.151 235 129.561C235.34 126.731 236.68 124.561 239 123.061Z" fill="#F2F2F2"/>
<path fill-rule="evenodd" clip-rule="evenodd" d="M194 124.062C198.35 123.892 202.68 124.062 207 124.562C208.83 124.832 210.33 125.672 211.5 127.062C213.83 131.042 215.66 135.212 217 139.562C216.04 146.842 212.37 152.172 206 155.562C192.8 157.362 185.97 151.532 185.5 138.062C183.48 141.272 180.65 142.942 177 143.062C176.56 139.672 177.4 136.672 179.5 134.062C183.79 129.842 188.62 126.512 194 124.062Z" fill="#070707"/>
<path fill-rule="evenodd" clip-rule="evenodd" d="M203 129.062C210.02 129.252 211.85 132.582 208.5 139.062C205.95 142.822 203.28 142.822 200.5 139.062C199.52 135.232 200.36 131.902 203 129.062Z" fill="#F6F6F6"/>
<path d="M123 263.062L160.887 157.376C160.938 157.276 160.976 157.172 161 157.062C161.8 154.132 162.13 151.132 162 148.062C164.44 145.582 167.44 144.242 171 144.062C182.18 151.732 193.51 159.232 205 166.562C216.49 173.062 228.33 178.892 240.5 184.062C251.56 169.852 262.39 155.512 273 141.062C274.64 139.482 276.64 138.812 279 139.062C284.64 141.162 289.97 143.832 295 147.062C304.38 142.932 314.05 139.602 324 137.062C325.77 137.652 327.43 138.482 329 139.562C331.9 143.222 334.9 146.722 338 150.062C344.133 159.475 351.111 168.282 358.934 176.493L360 178.562C363.02 181.652 366.02 184.652 369 187.562L372 191.562C373.53 193.912 375.2 196.082 377 198.062C377.65 200.002 377.98 202.002 378 204.062C367.538 223.124 359.321 231.278 338 238.562L334 238.062C331.18 237.902 329.18 236.572 328 234.062C327.96 232.982 327.63 231.982 327 231.062L326 228.062C323.74 223.952 322.07 219.622 321 215.062C313.36 214.062 305.7 213.732 298 214.062L299.008 224.589C299.006 224.746 299.003 224.904 299 225.062L299.052 225.052L301.966 255.484C301.973 255.675 301.984 255.868 302 256.062L302.021 256.061L307 308.062L308 311.062C307.95 313.462 308.28 315.802 309 318.062C309.33 322.732 309.67 327.392 310 332.062V333.062C310.32 344.312 309.99 355.472 309 366.562C310.1 369.692 311.1 372.852 312 376.062C313.894 381.584 315.887 387.067 317.98 392.51L318 392.562L318.015 392.563L319 394.062C319.67 397.882 318.34 400.712 315 402.562C309.34 402.812 304.01 403.982 299 406.062C292.7 406.572 286.7 407.902 281 410.062C279.4 409.792 278.07 410.132 277 411.062C270.33 411.852 263.99 413.522 258 416.062C253.19 417.542 248.52 417.212 244 415.062C243.45 411.372 241.28 409.702 237.5 410.062C231.41 411.512 225.24 412.512 219 413.062C211.43 413.582 204.1 412.582 197 410.062H194C184.22 406.972 174.22 404.142 164 401.562C162.18 400.902 160.84 399.732 160 398.062V394.062V392.062C161 387.392 162 382.722 163 378.062V376.062C168.78 361.092 170.78 345.762 169 330.062V323.062V317.062V312.062L162.732 307.534C162.144 306.543 161.233 305.887 160 305.562L133 281.062C130 277.562 131.21 278.142 128 276.062C124.94 272.272 123.27 267.942 123 263.062Z" fill="#C1997B"/>
<path d="M298 214.062L299.008 224.589C299.05 221.04 298.709 217.528 298 214.062Z" fill="#C1997B"/>
<path fill-rule="evenodd" clip-rule="evenodd" d="M320 145.062C324.16 144.702 327.33 146.372 329.5 150.062C341.25 166.482 353.75 182.312 367 197.562C354.56 206.332 343.73 216.832 334.5 229.062C333.25 227.562 332.25 225.892 331.5 224.062C327.36 210.652 323.03 197.322 318.5 184.062C317.29 180.282 315.12 177.282 312 175.062C303.5 179.072 295.66 184.072 288.5 190.062C293.69 235.952 298.36 281.952 302.5 328.062C303.29 340.922 303.12 353.752 302 366.562C305.38 376.212 308.05 386.042 310 396.062C290.11 399.712 270.44 404.372 251 410.062C250.33 409.732 249.67 409.392 249 409.062C241.73 395.182 235.56 380.852 230.5 366.062C230.33 363.732 230.17 361.392 230 359.062C233.91 328.152 239.25 297.492 246 267.062C244.01 247.612 241.51 228.272 238.5 209.062C248.77 203.842 259.27 199.012 270 194.562C277.33 188.562 285.33 183.562 294 179.562C295.69 177.652 296.19 175.482 295.5 173.062C292.5 169.732 289.5 166.392 286.5 163.062C285.83 162.392 285.83 161.732 286.5 161.062C292.17 158.722 297.34 155.552 302 151.562C308.11 149.382 314.11 147.212 320 145.062Z" fill="#EECDA6"/>
<path fill-rule="evenodd" clip-rule="evenodd" d="M278 146.062C281.89 147.692 285.56 149.692 289 152.062C285.34 153.892 281.68 155.722 278 157.562C276.93 158.302 276.26 159.302 276 160.562C279.46 165.522 283.13 170.362 287 175.062C279.99 178.242 273.66 182.412 268 187.562C259.04 191.492 250.04 195.322 241 199.062C240.67 198.732 240.33 198.392 240 198.062C252.3 180.432 264.97 163.092 278 146.062Z" fill="#EFCEA6"/>
<path fill-rule="evenodd" clip-rule="evenodd" d="M169 151.062C189.99 166.232 212.33 179.402 236 190.562C234.69 193.362 233.03 195.862 231 198.062C215.9 195.912 200.9 193.242 186 190.062C186.17 183.052 186 176.052 185.5 169.062C184.33 167.672 182.83 166.832 181 166.562C175.97 166.392 170.97 165.892 166 165.062C167.61 160.512 168.61 155.842 169 151.062Z" fill="#EECDA5"/>
<path fill-rule="evenodd" clip-rule="evenodd" d="M235 153.062C236.98 153.042 237.98 154.042 238 156.062C235.19 164.722 230.03 166.392 222.5 161.062C221.82 159.782 221.98 158.612 223 157.562C225.67 157.022 228.17 157.522 230.5 159.062C232.24 157.242 233.74 155.242 235 153.062Z" fill="#121212"/>
<path fill-rule="evenodd" clip-rule="evenodd" d="M165 173.062C169.67 173.062 174.33 173.062 179 173.062C178.83 180.072 179 187.072 179.5 194.062C179.81 194.872 180.31 195.532 181 196.062C196.81 199.812 212.81 202.472 229 204.062C233.72 224.812 237.05 245.812 239 267.062C231.94 297.422 226.61 328.092 223 359.062C222.88 364.012 223.54 368.852 225 373.562C228.9 382.772 232.9 391.932 237 401.062C235.59 402.372 233.92 403.202 232 403.562C226.53 404.852 221.03 406.022 215.5 407.062C199.92 403.622 184.42 399.792 169 395.562C167.93 394.822 167.26 393.822 167 392.562C170.38 378.102 173.54 363.602 176.5 349.062C175.17 320.092 174.83 291.092 175.5 262.062C177.83 248.062 180.17 234.062 182.5 220.062C183.17 216.062 183.17 212.062 182.5 208.062C179.72 206.422 177.72 207.092 176.5 210.062C171.35 239.932 167.19 269.932 164 300.062C157.73 295.962 151.9 291.302 146.5 286.062C141.83 280.732 137.17 275.392 132.5 270.062C131.1 267.922 130.26 265.592 130 263.062C130.7 258.602 131.86 254.272 133.5 250.062C141.22 231.612 149.22 213.282 157.5 195.062C160.7 187.952 163.2 180.622 165 173.062Z" fill="#EECDA5"/>
<path fill-rule="evenodd" clip-rule="evenodd" d="M254 221.062C262.07 221.652 264.07 225.492 260 232.562C252.5 234.392 249.67 231.562 251.5 224.062C252.2 222.872 253.03 221.872 254 221.062Z" fill="#444546"/>
<path fill-rule="evenodd" clip-rule="evenodd" d="M256 280.062C263.4 279.622 266.23 282.952 264.5 290.062C261.58 294.792 258.24 295.132 254.5 291.062C252.27 286.992 252.77 283.322 256 280.062Z" fill="#484849"/>
<path fill-rule="evenodd" clip-rule="evenodd" d="M250 335.062C257.59 336.122 259.59 339.962 256 346.562C248.73 349.292 245.56 346.792 246.5 339.062C247.88 337.852 249.04 336.522 250 335.062Z" fill="#454647"/>
<path fill-rule="evenodd" clip-rule="evenodd" d="M197 410.062C204.1 412.582 211.43 413.582 219 413.062C219 413.732 219 414.392 219 415.062C218.71 417.302 219.04 419.302 220 421.062C220 422.392 220 423.732 220 425.062C226.79 424.842 230.45 428.172 231 435.062C229.45 442.522 224.78 446.192 217 446.062C210.83 445.022 204.83 443.352 199 441.062C198.39 440.172 198.06 439.172 198 438.062C198 437.392 198 436.732 198 436.062C198.32 428.872 197.99 421.872 197 415.062C197 413.392 197 411.732 197 410.062Z" fill="#EEEDEC"/>
<path fill-rule="evenodd" clip-rule="evenodd" d="M277 411.062C277.06 412.172 277.39 413.172 278 414.062C278 416.062 278 418.062 278 420.062C282.76 419.532 286.43 421.192 289 425.062C289 426.732 289 428.392 289 430.062C287.07 435.822 283.07 439.322 277 440.562C267.63 443.722 262.3 440.552 261 431.062C259.54 426.182 258.54 421.182 258 416.062C263.99 413.522 270.33 411.852 277 411.062Z" fill="#EEEDED"/>
</svg>
