<svg width="500" height="500" viewBox="0 0 500 500" fill="none" xmlns="http://www.w3.org/2000/svg">
<path fill-rule="evenodd" clip-rule="evenodd" d="M369 358.061C366.27 353.981 363.94 349.651 362 345.061C365.96 335.801 370.46 326.801 375.5 318.061C378.99 309.781 382.32 301.451 385.5 293.061C387.9 284.721 389.4 276.221 390 267.561C388.28 233.171 383.11 199.341 374.5 166.061C369.6 148.511 361.27 132.851 349.5 119.061C341.43 112.111 333.26 105.271 325 98.5611C279.52 75.1411 236.18 78.4811 195 108.561C167.98 133.451 156.15 164.291 159.5 201.061C158.3 204.331 157.3 207.671 156.5 211.061C132.2 239.911 125.86 272.241 137.5 308.061C146.72 330.611 160.56 349.771 179 365.561C182.72 368.091 186.72 370.091 191 371.561C207.95 376.061 224.95 380.061 242 383.561C263.39 385.661 284.73 385.321 306 382.561C316.87 379.131 327.53 375.131 338 370.561C345.11 366.951 350.78 361.781 355 355.061C358.09 358.911 360.43 363.241 362 368.061C356.46 374.091 350.13 379.261 343 383.561C335.43 385.971 328.09 388.971 321 392.561C312.11 395.001 303.11 396.831 294 398.061C287.67 398.061 281.33 398.061 275 398.061C257.19 398.461 239.52 397.131 222 394.061C221.44 392.771 220.44 391.941 219 391.561C214.42 391.511 210.08 390.681 206 389.061C192.63 387.381 180.3 382.881 169 375.561C163.74 369.171 157.9 363.341 151.5 358.061C146.17 350.731 140.83 343.391 135.5 336.061C133.28 333.021 131.78 329.691 131 326.061C131.89 323.951 133.06 321.951 134.5 320.061C135.77 316.391 134.6 313.891 131 312.561C129.03 312.061 127.03 311.901 125 312.061C115.72 285.831 116.22 259.831 126.5 234.061C131.49 223.401 137.49 213.401 144.5 204.061C141.83 162.251 155.66 127.091 186 98.5611C205.3 83.0111 227.3 73.6811 252 70.5611C262.69 68.9211 273.36 68.9211 284 70.5611C296.12 73.4911 308.12 76.8211 320 80.5611C345.17 94.0611 364.67 113.231 378.5 138.061C388.47 163.541 395.14 189.881 398.5 217.061C400.42 238.081 401.75 259.081 402.5 280.061C395.43 307.861 384.26 333.861 369 358.061Z" fill="#C77D48"/>
<path fill-rule="evenodd" clip-rule="evenodd" d="M362 345.062C358.84 341.412 356.17 337.412 354 333.062C359.51 330.062 361.01 325.732 358.5 320.062C355.46 317.652 352.29 317.492 349 319.562C346.83 321.732 344.67 323.892 342.5 326.062C342 328.032 341.84 330.032 342 332.062C340.72 334.102 340.89 336.102 342.5 338.062C348.39 342.452 352.56 348.122 355 355.062C350.78 361.782 345.11 366.952 338 370.562C327.53 375.132 316.87 379.132 306 382.562C284.73 385.322 263.39 385.662 242 383.562C224.95 380.062 207.95 376.062 191 371.562C186.72 370.092 182.72 368.092 179 365.562C160.56 349.772 146.72 330.612 137.5 308.062C125.86 272.242 132.2 239.912 156.5 211.062C157.3 207.672 158.3 204.332 159.5 201.062C156.15 164.292 167.98 133.452 195 108.562C236.18 78.4819 279.52 75.1419 325 98.5619C333.26 105.272 341.43 112.112 349.5 119.062C361.27 132.852 369.6 148.512 374.5 166.062C383.11 199.342 388.28 233.172 390 267.562C389.4 276.222 387.9 284.722 385.5 293.062C382.32 301.452 378.99 309.782 375.5 318.062C370.46 326.802 365.96 335.802 362 345.062Z" fill="#E69A41"/>
<path fill-rule="evenodd" clip-rule="evenodd" d="M321 109.061C323.15 108.931 325.15 109.431 327 110.561C330.97 114.321 332.81 118.821 332.5 124.061C330.68 127.551 327.85 128.721 324 127.561C318.14 123.991 315.97 118.831 317.5 112.061C318.65 110.921 319.81 109.921 321 109.061Z" fill="#C77D48"/>
<path fill-rule="evenodd" clip-rule="evenodd" d="M218 119.062C228.2 119.282 231.2 124.112 227 133.562C219.97 135.912 215.97 133.242 215 125.562C215.34 123.052 216.34 120.882 218 119.062Z" fill="#C77D48"/>
<path fill-rule="evenodd" clip-rule="evenodd" d="M205 131.062C210.51 130.302 213.51 132.642 214 138.062C213.59 141.842 212.76 145.512 211.5 149.062C204.03 152.742 200.2 150.412 200 142.062C199.8 137.462 201.47 133.802 205 131.062Z" fill="#C77D48"/>
<path fill-rule="evenodd" clip-rule="evenodd" d="M299 179.062C304.4 179.762 309.07 182.092 313 186.062C315.03 193.862 312.03 197.032 304 195.562C300.72 194.002 297.88 191.832 295.5 189.062C294.83 187.062 294.83 185.062 295.5 183.062C296.88 181.852 298.04 180.522 299 179.062Z" fill="#C77D48"/>
<path fill-rule="evenodd" clip-rule="evenodd" d="M214 203.062C221.71 202.272 225.21 205.612 224.5 213.062C220.17 218.392 215.83 218.392 211.5 213.062C210.36 209.142 211.19 205.812 214 203.062Z" fill="#C77D48"/>
<path fill-rule="evenodd" clip-rule="evenodd" d="M322 280.061C317.9 277.811 313.9 275.311 310 272.561C301.78 270.821 293.78 268.481 286 265.561C280.55 264.661 275.22 265.001 270 266.561C258.45 275.211 253.95 286.711 256.5 301.061C257.04 311.341 262.21 317.841 272 320.561C283.58 324.501 293.42 322.001 301.5 313.061C306.76 303.941 309.59 294.271 310 284.061C314.91 287.181 320.24 289.181 326 290.061C328.64 306.521 325.14 321.521 315.5 335.061C309.75 341.191 302.91 345.691 295 348.561C263.27 354.771 231.6 354.441 200 347.561C176.43 339.901 163.76 323.731 162 299.061C167.42 297.171 171.92 293.831 175.5 289.061C173.52 303.451 178.35 314.951 190 323.561C203.66 327.981 214.83 324.481 223.5 313.061C225.07 309.161 227.07 305.491 229.5 302.061C230.98 294.361 228.98 287.691 223.5 282.061C223.35 276.241 220.52 272.411 215 270.561C202.22 266.461 189.89 267.461 178 273.561C173.8 275.821 169.8 278.321 166 281.061C169.65 272.241 175.65 265.411 184 260.561C225.86 237.971 267.19 238.971 308 263.561C313.63 268.351 318.29 273.851 322 280.061Z" fill="#FDFCFB"/>
<path fill-rule="evenodd" clip-rule="evenodd" d="M140 262.062C143.79 261.372 146.95 262.372 149.5 265.062C150.17 269.392 150.17 273.732 149.5 278.062C142.77 283.102 138.44 281.432 136.5 273.062C135.38 268.642 136.55 264.972 140 262.062Z" fill="#C77D48"/>
<path fill-rule="evenodd" clip-rule="evenodd" d="M322 280.061C328.15 281.511 329.49 284.841 326 290.061C320.24 289.181 314.91 287.181 310 284.061C309.59 294.271 306.76 303.941 301.5 313.061C293.42 322.001 283.58 324.501 272 320.561C262.21 317.841 257.04 311.341 256.5 301.061C253.95 286.711 258.45 275.211 270 266.561C275.22 265.001 280.55 264.661 286 265.561C293.78 268.481 301.78 270.821 310 272.561C313.9 275.311 317.9 277.811 322 280.061Z" fill="#050505"/>
<path fill-rule="evenodd" clip-rule="evenodd" d="M162 299.062C160.92 299.022 159.92 298.692 159 298.062C157.85 295.452 157.68 292.792 158.5 290.062C161.01 287.032 163.51 284.032 166 281.062C169.8 278.322 173.8 275.822 178 273.562C189.89 267.462 202.22 266.462 215 270.562C220.52 272.412 223.35 276.242 223.5 282.062C228.98 287.692 230.98 294.362 229.5 302.062C227.07 305.492 225.07 309.162 223.5 313.062C214.83 324.482 203.66 327.982 190 323.562C178.35 314.952 173.52 303.452 175.5 289.062C171.92 293.832 167.42 297.172 162 299.062Z" fill="#040404"/>
<path fill-rule="evenodd" clip-rule="evenodd" d="M353 268.062C359.16 268.052 361.99 271.052 361.5 277.062C359.37 280.192 356.87 283.022 354 285.562C345.75 288.642 342.25 285.812 343.5 277.062C346.18 273.482 349.35 270.482 353 268.062Z" fill="#C77D48"/>
<path fill-rule="evenodd" clip-rule="evenodd" d="M271 273.062C275.41 272.182 278.91 273.512 281.5 277.062C281.49 281.772 280.83 286.442 279.5 291.062C276.24 293.992 272.41 294.822 268 293.562C263.42 290.122 261.92 285.622 263.5 280.062C265.98 277.592 268.48 275.262 271 273.062Z" fill="#F5F5F5"/>
<path fill-rule="evenodd" clip-rule="evenodd" d="M208 277.062C214.57 276.792 218.24 279.962 219 286.562C218.5 293.762 214.84 298.262 208 300.062C202.82 298.572 200.16 295.072 200 289.562C201.04 284.302 203.71 280.142 208 277.062Z" fill="#F4F4F4"/>
<path fill-rule="evenodd" clip-rule="evenodd" d="M125 312.062C127.03 311.902 129.03 312.062 131 312.562C134.6 313.892 135.77 316.392 134.5 320.062C133.06 321.952 131.89 323.952 131 326.062C126.54 330.292 123.04 335.292 120.5 341.062C119.7 342.822 119.87 344.492 121 346.062C125.39 350.012 126.06 354.512 123 359.562C119.01 360.892 116.35 359.562 115 355.562C109.42 355.372 103.92 354.872 98.5 354.062C97.31 352.522 96.98 350.852 97.5 349.062C100.88 345.292 105.04 342.962 110 342.062C111.32 330.092 116.32 320.092 125 312.062Z" fill="#060505"/>
<path fill-rule="evenodd" clip-rule="evenodd" d="M354 333.061C350.19 329.641 346.19 329.311 342 332.061C341.84 330.031 342 328.031 342.5 326.061C344.67 323.891 346.83 321.731 349 319.561C352.29 317.491 355.46 317.651 358.5 320.061C361.01 325.731 359.51 330.061 354 333.061Z" fill="#C77D48"/>
<path fill-rule="evenodd" clip-rule="evenodd" d="M258 326.061C259.7 325.901 261.37 326.071 263 326.561C264.46 330.511 263.63 334.011 260.5 337.061C257.58 342.581 253.08 344.421 247 342.561C243.88 340.671 240.55 339.331 237 338.561C232.62 334.371 233.45 331.871 239.5 331.061C243.7 332.431 247.86 333.591 252 334.561C254.22 331.851 256.22 329.011 258 326.061Z" fill="#0C0C0C"/>
<path fill-rule="evenodd" clip-rule="evenodd" d="M354 333.061C356.17 337.411 358.84 341.411 362 345.061C363.94 349.651 366.27 353.981 369 358.061C369.86 360.611 370.86 363.111 372 365.561C375.93 365.621 379.43 366.791 382.5 369.061C384.09 370.981 384.26 372.981 383 375.061C377.11 376.531 371.44 378.691 366 381.561C362.27 382.341 359.94 380.841 359 377.061C359.39 374.611 360.56 372.611 362.5 371.061C363.24 369.811 363.07 368.811 362 368.061C360.43 363.241 358.09 358.911 355 355.061C352.56 348.121 348.39 342.451 342.5 338.061C340.89 336.101 340.72 334.101 342 332.061C346.19 329.311 350.19 329.641 354 333.061Z" fill="#070504"/>
<path fill-rule="evenodd" clip-rule="evenodd" d="M298 362.061C305.27 360.191 308.77 362.861 308.5 370.061C304.16 376.101 298.32 378.931 291 378.561C288.4 376.241 287.57 373.411 288.5 370.061C291.65 367.261 294.81 364.591 298 362.061Z" fill="#C77D48"/>
<path fill-rule="evenodd" clip-rule="evenodd" d="M206 389.062C210.08 390.682 214.42 391.512 219 391.562C220.44 391.942 221.44 392.772 222 394.062C221.35 395.722 220.69 397.382 220 399.062C221.44 409.092 221.28 419.092 219.5 429.062C218.75 429.692 217.92 430.192 217 430.562C210 431.232 203 431.232 196 430.562C191.07 427.902 189.9 424.062 192.5 419.062C196.12 414.242 200.96 412.242 207 413.062C206.14 405.092 205.8 397.092 206 389.062Z" fill="#050404"/>
<path fill-rule="evenodd" clip-rule="evenodd" d="M275 398.062C281.33 398.062 287.67 398.062 294 398.062C293.65 407.992 291.81 417.652 288.5 427.062C288 428.892 286.83 430.062 285 430.562C278.6 431.382 272.26 431.042 266 429.562C261.16 425.872 260.83 421.872 265 417.562C267.94 416.622 270.78 415.452 273.5 414.062C273.97 408.722 274.47 403.382 275 398.062Z" fill="#060505"/>
</svg>
