<svg width="500" height="500" viewBox="0 0 500 500" fill="none" xmlns="http://www.w3.org/2000/svg">
<path fill-rule="evenodd" clip-rule="evenodd" d="M253 40.0617C275.21 39.1217 293.04 47.4547 306.5 65.0617C309.56 75.6927 305.39 80.8597 294 80.5617C278.67 82.1727 263.34 83.6727 248 85.0617C235.49 84.3917 223.49 81.5587 212 76.5617C209.18 73.0997 207.01 69.2667 205.5 65.0617C204.57 61.7117 205.4 58.8787 208 56.5617C216.58 52.0367 225.25 47.7027 234 43.5617C240.53 42.7167 246.86 41.5497 253 40.0617Z" fill="#F7E539"/>
<path fill-rule="evenodd" clip-rule="evenodd" d="M241 49.0612C251.56 48.7812 262.06 49.4472 272.5 51.0612C280.85 50.6972 286.68 54.5312 290 62.5612C288.28 65.9402 285.62 68.2742 282 69.5612C258.98 76.5582 236.65 74.8912 215 64.5612C216.67 61.5612 219 59.2282 222 57.5612C228.32 54.4112 234.65 51.5772 241 49.0612Z" fill="#040300"/>
<path fill-rule="evenodd" clip-rule="evenodd" d="M363 222.061C361.36 223.31 360.2 224.977 359.5 227.061C355.41 237.903 351.91 248.903 349 260.061C346.68 262.186 345.85 264.852 346.5 268.061C353.69 273.629 358.19 280.796 360 289.561C360.24 292.452 359.41 294.952 357.5 297.061C352.83 302.394 348.17 307.728 343.5 313.061C342.66 325.87 348.49 332.703 361 333.561C362.75 326.855 361.08 321.022 356 316.061C358.45 312.8 361.12 309.8 364 307.061C365.27 311.604 367.1 315.937 369.5 320.061C378.1 325.666 385.77 332.333 392.5 340.061C395.76 345.757 395.76 351.423 392.5 357.061C382.9 367.67 372.4 377.17 361 385.561C353.44 389.175 345.77 392.508 338 395.561C326.89 398.414 315.89 401.581 305 405.061C300.75 405.514 296.75 406.514 293 408.061C282.99 408.227 272.99 408.061 263 407.561C254.46 405.27 245.79 403.604 237 402.561C227.71 398.913 218.71 394.747 210 390.061C206.54 387.492 202.87 385.158 199 383.061C183.51 368.24 169.84 351.906 158 334.061C159.49 328.764 160.66 323.43 161.5 318.061C156.8 314.018 151.3 312.018 145 312.061C143.56 308.85 142.4 305.516 141.5 302.061C141.44 295.176 140.27 288.509 138 282.061C138.16 279.704 138 277.371 137.5 275.061C136.79 274.18 135.96 273.514 135 273.061C134.56 269.407 134.22 265.74 134 262.061C133.38 254.229 132.71 246.396 132 238.561C132.04 232.729 133.04 227.063 135 221.561C134.76 220.659 134.42 219.826 134 219.061C139.39 207.937 144.56 196.604 149.5 185.061C157.58 170.564 165.91 156.23 174.5 142.061C177.91 137.309 182.41 134.142 188 132.561C200.3 121.578 214.63 114.578 231 111.561C252.16 107.763 273.16 108.429 294 113.561C306.88 117.245 317.71 124.078 326.5 134.061C335.4 143.628 342.73 154.295 348.5 166.061C351.08 180.129 355.08 193.795 360.5 207.061C361.34 212.204 362.17 217.204 363 222.061Z" fill="#CAFBFE"/>
<path fill-rule="evenodd" clip-rule="evenodd" d="M325 195.062C320.83 192.418 316.5 189.918 312 187.562C304 185.564 296 183.564 288 181.562C275.51 180.041 267.01 185.208 262.5 197.062C254.42 225.966 265.25 239.799 295 238.562C300.1 235.758 304.27 231.925 307.5 227.062C310.2 220.64 312.7 214.14 315 207.562C314.01 205.109 313.84 202.609 314.5 200.062C318.7 203.581 323.54 205.581 329 206.062C332.44 218.663 330.27 230.33 322.5 241.062C316.67 246.895 310.83 252.729 305 258.562C300.1 261.862 294.77 264.195 289 265.562C271.34 267.87 253.68 270.037 236 272.062C217.04 271.915 200.04 266.082 185 254.562C172.84 244.085 165.51 230.918 163 215.062C165.36 215.225 167.69 215.059 170 214.562C172.85 211.546 175.85 208.712 179 206.062C179.04 210.607 179.21 215.274 179.5 220.062C186.96 241.54 200.79 247.04 221 236.562C229.75 228.906 233.92 219.406 233.5 208.062C232.61 204.61 230.94 201.61 228.5 199.062C227.54 191.759 223.37 187.259 216 185.562C196.64 181.627 180.31 186.794 167 201.062C168.7 193.657 171.53 186.657 175.5 180.062C180 175.562 184.5 171.062 189 166.562C195.64 163.244 202.3 159.911 209 156.562C227.67 155.895 246.33 155.895 265 156.562C282.12 157.159 297.79 162.159 312 171.562C319.22 178.201 323.56 186.035 325 195.062Z" fill="#FCFDFD"/>
<path fill-rule="evenodd" clip-rule="evenodd" d="M324.999 195.061C327.519 196.58 330.019 198.247 332.499 200.061C333.619 203.433 332.449 205.433 328.999 206.061C323.539 205.58 318.699 203.58 314.499 200.061C313.839 202.608 314.009 205.108 314.999 207.561C312.699 214.139 310.199 220.639 307.499 227.061C304.269 231.924 300.099 235.757 294.999 238.561C265.249 239.798 254.419 225.965 262.499 197.061C267.009 185.207 275.509 180.04 287.999 181.561C295.999 183.563 303.999 185.563 311.999 187.561C316.499 189.917 320.829 192.417 324.999 195.061Z" fill="#040404"/>
<path fill-rule="evenodd" clip-rule="evenodd" d="M163.001 215.062C161.991 209.563 163.321 204.897 167.001 201.062C180.311 186.794 196.641 181.627 216.001 185.562C223.371 187.259 227.541 191.759 228.501 199.062C230.941 201.61 232.611 204.61 233.501 208.062C233.921 219.406 229.751 228.906 221.001 236.562C200.791 247.04 186.961 241.54 179.501 220.062C179.211 215.274 179.041 210.607 179.001 206.062C175.851 208.712 172.851 211.546 170.001 214.562C167.691 215.059 165.361 215.225 163.001 215.062Z" fill="#040404"/>
<path fill-rule="evenodd" clip-rule="evenodd" d="M276 189.061C280.18 188.265 283.35 189.598 285.5 193.061C285.83 197.751 285.5 202.418 284.5 207.061C277.28 212.038 271.61 210.705 267.5 203.061C266.75 200.258 267.08 197.591 268.5 195.061C271.34 193.402 273.84 191.402 276 189.061Z" fill="#F5F5F5"/>
<path fill-rule="evenodd" clip-rule="evenodd" d="M213 193.062C219.09 193.318 222.42 196.484 223 202.562C222.67 209.642 219.17 214.142 212.5 216.062C207.45 214.511 204.62 211.011 204 205.562C205.45 200.129 208.45 195.963 213 193.062Z" fill="#F4F4F4"/>
<path fill-rule="evenodd" clip-rule="evenodd" d="M133.999 219.062C134.419 219.827 134.759 220.66 134.999 221.562C133.039 227.064 132.039 232.73 131.999 238.562C132.709 246.397 133.379 254.23 133.999 262.062C128.919 265.766 123.249 268.1 116.999 269.062C109.199 268.12 107.199 264.12 110.999 257.062C103.899 256.157 96.8992 256.824 89.9992 259.062C86.2792 258.442 82.6092 257.609 78.9992 256.562C74.4392 253.233 73.9392 249.4 77.4992 245.062C79.2692 244.258 80.7692 243.091 81.9992 241.562C74.3792 240.499 67.5492 237.666 61.4992 233.062C60.1292 227.293 61.9692 222.793 66.9992 219.562C79.6392 213.362 92.9692 211.362 106.999 213.562C116.189 214.567 125.189 216.4 133.999 219.062Z" fill="#FCFCFC"/>
<path fill-rule="evenodd" clip-rule="evenodd" d="M357 264.061C355.54 263.103 354.21 261.937 353 260.561C351.71 260.071 350.37 259.904 349 260.061C351.91 248.903 355.41 237.903 359.5 227.061C360.2 224.977 361.36 223.31 363 222.061C377.98 215.677 393.64 213.177 410 214.561C416.61 215.95 423.28 216.95 430 217.561C438.02 221.578 440.18 227.745 436.5 236.061C430.92 239.753 424.76 241.753 418 242.061C419.33 251.235 415.33 256.069 406 256.561C399.97 256.731 393.97 257.231 388 258.061C386.04 262.521 382.71 265.354 378 266.561C370.71 267.71 363.71 266.876 357 264.061Z" fill="#FBFBFB"/>
<path fill-rule="evenodd" clip-rule="evenodd" d="M262 242.061C265.7 241.241 268.03 242.574 269 246.061C266.78 251.322 263.44 255.822 259 259.561C257 260.228 255 260.228 253 259.561C248.45 257.384 243.95 255.217 239.5 253.061C238.02 249.012 239.35 247.012 243.5 247.061C247.47 247.96 251.3 249.293 255 251.061C258.04 248.652 260.38 245.652 262 242.061Z" fill="#0A0A0A"/>
<path fill-rule="evenodd" clip-rule="evenodd" d="M348.999 260.061C350.369 259.904 351.709 260.071 352.999 260.561C354.209 261.937 355.539 263.103 356.999 264.061C361.669 270.237 366.169 276.571 370.499 283.061C371.419 291.961 369.259 299.961 363.999 307.061C361.119 309.8 358.449 312.8 355.999 316.061C361.079 321.022 362.749 326.855 360.999 333.561C348.489 332.703 342.659 325.87 343.499 313.061C348.169 307.728 352.829 302.394 357.499 297.061C359.409 294.952 360.239 292.452 359.999 289.561C358.189 280.796 353.689 273.629 346.499 268.061C345.849 264.852 346.679 262.186 348.999 260.061Z" fill="#4159DD"/>
<path fill-rule="evenodd" clip-rule="evenodd" d="M135 273.062C135.96 273.515 136.79 274.181 137.5 275.062C138 277.372 138.16 279.705 138 282.062C134.31 289.762 130.31 297.429 126 305.062C127.42 307.28 129.42 308.78 132 309.562C136.12 311.461 140.45 312.294 145 312.062C151.3 312.019 156.8 314.019 161.5 318.062C160.66 323.431 159.49 328.765 158 334.062C154.22 336.971 150.22 339.804 146 342.562C139.69 345.798 136.86 343.964 137.5 337.062C139.44 332.234 141.94 327.734 145 323.562C138.77 321.162 132.44 319.162 126 317.562C116.66 308.482 115.49 298.316 122.5 287.062C126.08 282.909 129.41 278.576 132.5 274.062C133.17 273.31 134 272.976 135 273.062Z" fill="#4057DA"/>
<path fill-rule="evenodd" clip-rule="evenodd" d="M138 282.062C140.27 288.51 141.44 295.177 141.5 302.062C142.4 305.517 143.56 308.851 145 312.062C140.45 312.294 136.12 311.461 132 309.562C129.42 308.78 127.42 307.28 126 305.062C130.31 297.429 134.31 289.762 138 282.062Z" fill="#07090D"/>
<path fill-rule="evenodd" clip-rule="evenodd" d="M198.999 383.062C202.869 385.159 206.539 387.493 209.999 390.062C208.679 405.055 208.679 420.055 209.999 435.062C207.339 447.188 199.669 452.688 186.999 451.562C185.059 449.409 184.559 446.909 185.499 444.062C188.619 439.338 192.959 436.672 198.499 436.062C197.659 427.289 197.159 418.456 196.999 409.562C196.989 400.667 197.659 391.834 198.999 383.062Z" fill="#3E55D9"/>
<path fill-rule="evenodd" clip-rule="evenodd" d="M305 405.062C306.52 411.795 308.35 418.462 310.5 425.062C311.32 434.451 312.49 443.618 314 452.562C313.71 454.452 312.71 455.785 311 456.562C305.08 460.035 298.74 461.368 292 460.562C289.48 457.08 289.65 453.58 292.5 450.062C295.35 446.056 299.18 443.722 304 443.062C300.95 431.233 297.28 419.567 293 408.062C296.75 406.515 300.75 405.515 305 405.062Z" fill="#3E56D9"/>
</svg>
