<svg width="500" height="500" viewBox="0 0 500 500" fill="none" xmlns="http://www.w3.org/2000/svg">
<path fill-rule="evenodd" clip-rule="evenodd" d="M290 112.062C291.75 113.432 293.75 114.432 296 115.062C313.13 122.612 327.13 133.952 338 149.062C339.2 151.472 340.87 153.472 343 155.062C349.47 166.002 354.3 177.672 357.5 190.062C359.3 200.372 359.47 210.702 358 221.062C357.54 223.782 356.87 226.452 356 229.062C354.01 233.622 352.01 238.292 350 243.062C351.37 244.502 352.87 245.832 354.5 247.062C356.12 250.452 357.62 253.792 359 257.062C359 260.062 359 263.062 359 266.062C357.73 271.322 355.07 275.822 351 279.562C346.97 281.242 343.3 283.402 340 286.062C345.27 299.372 350.43 312.702 355.5 326.062C362.08 334.882 368.41 343.882 374.5 353.062C376.86 359.902 375.86 366.242 371.5 372.062C361.71 380.042 351.87 380.042 342 372.062C339.97 369.702 337.97 367.372 336 365.062C331.81 358.012 328.14 350.672 325 343.062C324.45 339.812 323.45 336.812 322 334.062C317.23 320.172 312.73 306.172 308.5 292.062C305.96 290.762 303.46 290.932 301 292.562C303.81 297.362 305.65 302.522 306.5 308.062C307.98 316.012 309.15 324.012 310 332.062C310.41 339.522 309.74 346.862 308 354.062C306.52 358.342 304.52 362.342 302 366.062C300.33 368.392 298.33 370.392 296 372.062C287.76 379.012 279.09 379.682 270 374.062C267.41 369.792 266.41 365.122 267 360.062C269.15 353.082 271.32 346.082 273.5 339.062C274 336.412 274.16 333.752 274 331.062C275.33 326.062 275.33 321.062 274 316.062C273.2 309.992 271.2 304.332 268 299.062C263.86 295.472 259.53 295.472 255 299.062C253.52 305.772 251.85 312.432 250 319.062C246.39 329.122 243.23 339.462 240.5 350.062C239.71 352.272 239.88 354.272 241 356.062C242.27 359.942 244.11 363.612 246.5 367.062C247.66 370.982 248.16 374.982 248 379.062C247.3 381.842 246.3 384.512 245 387.062C236.07 395.382 226.74 395.882 217 388.562C213.68 386.082 211.34 382.912 210 379.062C208.6 375.862 207.6 372.532 207 369.062C202.98 351.442 204.82 334.442 212.5 318.062C214.11 312.762 214.27 307.432 213 302.062C210.08 301.152 207.08 300.822 204 301.062C204.81 318.432 198.81 332.762 186 344.062C183.3 345.792 181.3 348.132 180 351.062C176.02 356.332 172.52 361.992 169.5 368.062C168.11 374.282 166.11 380.282 163.5 386.062C157.45 394.522 149.95 396.182 141 391.062C133.85 384.292 130.85 375.952 132 366.062C132.93 360.772 134.77 355.772 137.5 351.062C146.23 340.592 154.23 329.592 161.5 318.062C164.99 309.852 166.15 301.522 165 293.062C161.74 291.772 158.41 290.442 155 289.062C149.91 287.352 145.25 284.852 141 281.562C131.18 273.372 129.85 264.212 137 254.062C122.27 229.232 119.94 203.232 130 176.062C131.23 174.262 131.9 172.262 132 170.062C137.24 160.582 143.24 151.582 150 143.062C153 140.732 155.67 138.062 158 135.062C166.32 127.072 175.99 121.402 187 118.062C190.33 117.062 193.67 116.062 197 115.062C227.66 104.322 258.66 103.322 290 112.062Z" fill="#F366A9"/>
<path fill-rule="evenodd" clip-rule="evenodd" d="M241 117.062C274.59 115.282 302.76 126.622 325.5 151.062C336.61 165.282 343.94 181.282 347.5 199.062C348.29 206.122 347.95 213.122 346.5 220.062C344.16 226.072 341.83 232.072 339.5 238.062C334.19 243.702 328.52 249.042 322.5 254.062C321.17 260.392 323.67 263.232 330 262.562C334.17 259.062 338.33 255.562 342.5 252.062C347.32 256.932 348.32 262.602 345.5 269.062C340.05 272.042 334.55 274.872 329 277.562C328 278.562 327 279.562 326 280.562C332.36 297.782 338.86 314.942 345.5 332.062C351.17 339.732 356.83 347.392 362.5 355.062C365.55 362.662 363.05 366.492 355 366.562C349.95 363.962 346.11 360.132 343.5 355.062C334.45 334.242 326.78 312.902 320.5 291.062C318.85 287.762 317.18 284.422 315.5 281.062C308.75 279.922 301.91 279.752 295 280.562C290.06 280.672 287.72 283.172 288 288.062C289.46 294.612 291.63 300.942 294.5 307.062C296.94 319.662 298.27 332.322 298.5 345.062C297.11 353.022 293.27 359.522 287 364.562C284.47 365.982 281.8 366.312 279 365.562C278.44 364.842 278.11 364.002 278 363.062C285.39 346.392 287.89 329.052 285.5 311.062C283.41 304.452 280.74 298.112 277.5 292.062C273.5 286.142 268 283.642 261 284.562C246.41 286.812 239.58 295.312 240.5 310.062C236.23 322.542 232.56 335.212 229.5 348.062C227.91 356.712 229.91 364.382 235.5 371.062C236.87 382.302 232.7 384.802 223 378.562C221.12 375.582 219.62 372.422 218.5 369.062C215.52 358.022 215.52 347.022 218.5 336.062C221.41 328.912 223.74 321.582 225.5 314.062C228.66 294.232 220.16 286.062 200 289.562C196.44 291.452 193.94 294.292 192.5 298.062C193.18 308.322 191.18 317.982 186.5 327.062C170.48 340.742 159.82 357.742 154.5 378.062C150.83 383.262 147.5 382.932 144.5 377.062C142.05 369.912 143.05 363.242 147.5 357.062C155.22 347.682 162.55 338.012 169.5 328.062C174.26 318.272 177.09 307.942 178 297.062C177.37 292.332 176.03 287.832 174 283.562C164.36 280.912 155.36 276.912 147 271.562C143.35 268.052 143.35 264.712 147 261.562C151.7 262.302 156.37 262.962 161 263.562C165.24 259.502 164.9 255.832 160 252.562C156.22 250.732 152.22 249.732 148 249.562C140.62 238.392 136.28 226.062 135 212.562C136.73 203.802 137.89 194.972 138.5 186.062C141.89 176.352 146.56 167.352 152.5 159.062C158.97 151.592 165.8 144.422 173 137.562C194.51 126.552 217.18 119.722 241 117.062Z" fill="#FEB1D5"/>
<path fill-rule="evenodd" clip-rule="evenodd" d="M178 147.062C194.67 145.072 200.5 152.072 195.5 168.062C190.54 174.032 184.71 178.862 178 182.562C161.2 187.752 154.7 181.912 158.5 165.062C162.41 156.202 168.91 150.202 178 147.062Z" fill="#F888BE"/>
<path fill-rule="evenodd" clip-rule="evenodd" d="M316 223.061C317.38 218.151 318.38 213.151 319 208.061C318.54 204.671 317.87 201.341 317 198.061C318.01 196.161 318.18 194.161 317.5 192.061C315.21 191.141 313.04 190.141 311 189.061C308.64 184.701 305.31 181.371 301 179.061C301.44 179.131 301.77 178.961 302 178.561C299.38 175.151 296.88 171.651 294.5 168.061C291.15 165.711 288.15 163.041 285.5 160.061C284.48 148.141 289.65 144.311 301 148.561C312.03 154.591 319.86 163.421 324.5 175.061C326.17 182.731 327.83 190.391 329.5 198.061C331.19 207.301 329.03 215.471 323 222.561C320.71 224.221 318.38 224.391 316 223.061Z" fill="#FEC7E1"/>
<path fill-rule="evenodd" clip-rule="evenodd" d="M215 160.062C220.07 159.472 224.74 160.472 229 163.062C231.42 166.062 231.25 169.062 228.5 172.062C223.92 175.592 218.75 177.092 213 176.562C207.72 170.502 208.39 165.002 215 160.062Z" fill="#F888BE"/>
<path fill-rule="evenodd" clip-rule="evenodd" d="M301 179.061C305.31 181.371 308.64 184.701 311 189.061C307.17 186.981 303.17 185.151 299 183.561C291.52 182.461 284.02 181.631 276.5 181.061C265.77 181.111 259.1 186.441 256.5 197.061C254.74 206.711 256.41 215.711 261.5 224.061C272.27 231.851 283.1 232.011 294 224.561C295.55 223.351 296.72 221.851 297.5 220.061C299.84 213.871 301.67 207.541 303 201.061C299.26 194.301 300.6 192.801 307 196.561C310.33 197.171 313.66 197.671 317 198.061C317.87 201.341 318.54 204.671 319 208.061C318.38 213.151 317.38 218.151 316 223.061C313.88 232.691 308.22 239.521 299 243.561C290.58 246.831 281.92 249.161 273 250.561C255.87 252.521 238.7 254.021 221.5 255.061C207.56 254.971 194.4 251.801 182 245.561C173.76 238.691 170.1 229.861 171 219.061C173.71 220.421 176.38 220.261 179 218.561C180.79 215.761 182.96 213.261 185.5 211.061C185.28 218.731 187.28 225.731 191.5 232.061C204.66 243.251 216.99 242.251 228.5 229.061C229.89 225.271 231.56 221.611 233.5 218.061C234.54 210.791 232.2 204.791 226.5 200.061C225.96 194.361 222.79 191.191 217 190.561C199.48 188.651 185.15 194.491 174 208.061C176.53 201.181 180.86 195.681 187 191.561C194.9 185.951 203.56 181.951 213 179.561C236.14 175.321 259.47 173.321 283 173.561C289.32 174.471 295.32 176.311 301 179.061Z" fill="#FCFCFC"/>
<path fill-rule="evenodd" clip-rule="evenodd" d="M311 189.062C313.04 190.142 315.21 191.142 317.5 192.062C318.18 194.162 318.01 196.162 317 198.062C313.66 197.672 310.33 197.172 307 196.562C300.6 192.802 299.26 194.302 303 201.062C301.67 207.542 299.84 213.872 297.5 220.062C296.72 221.852 295.55 223.352 294 224.562C283.1 232.012 272.27 231.852 261.5 224.062C256.41 215.712 254.74 206.712 256.5 197.062C259.1 186.442 265.77 181.112 276.5 181.062C284.02 181.632 291.52 182.462 299 183.562C303.17 185.152 307.17 186.982 311 189.062Z" fill="#040404"/>
<path fill-rule="evenodd" clip-rule="evenodd" d="M268 188.062C271.51 187.442 274.35 188.442 276.5 191.062C277.17 195.062 277.17 199.062 276.5 203.062C273.59 205.952 270.09 206.792 266 205.562C264.83 203.732 263.33 202.232 261.5 201.062C260.83 199.062 260.83 197.062 261.5 195.062C263.76 192.842 265.92 190.512 268 188.062Z" fill="#F7F7F7"/>
<path fill-rule="evenodd" clip-rule="evenodd" d="M171 219.061C170.62 214.991 171.62 211.321 174 208.061C185.15 194.491 199.48 188.651 217 190.561C222.79 191.191 225.96 194.361 226.5 200.061C232.2 204.791 234.54 210.791 233.5 218.061C231.56 221.611 229.89 225.271 228.5 229.061C216.99 242.251 204.66 243.251 191.5 232.061C187.28 225.731 185.28 218.731 185.5 211.061C182.96 213.261 180.79 215.761 179 218.561C176.38 220.261 173.71 220.421 171 219.061Z" fill="#040404"/>
<path fill-rule="evenodd" clip-rule="evenodd" d="M214 197.061C219.75 196.981 222.75 199.811 223 205.561C223 211.681 220.17 215.511 214.5 217.061C206.72 213.781 205.05 208.441 209.5 201.061C210.9 199.491 212.4 198.161 214 197.061Z" fill="#F8F8F8"/>
<path fill-rule="evenodd" clip-rule="evenodd" d="M261 235.061C264.07 234.481 266.07 235.651 267 238.561C265.08 243.061 262.42 247.061 259 250.561C252.76 250.701 246.92 249.201 241.5 246.061C240.91 242.971 242.25 241.311 245.5 241.061C249.04 242.141 252.54 242.971 256 243.561C258.06 240.951 259.72 238.111 261 235.061Z" fill="#080808"/>
</svg>
