<svg width="500" height="500" viewBox="0 0 500 500" fill="none" xmlns="http://www.w3.org/2000/svg">
<path fill-rule="evenodd" clip-rule="evenodd" d="M255 51.0611C251.475 50.3511 248.142 49.3511 245 48.0611C245.277 45.1111 244.944 42.2811 244 39.5611C230.965 37.8511 217.965 38.1811 205 40.5611C203.721 43.0611 203.721 45.5611 205 48.0611C201.238 48.2511 197.571 48.9211 194 50.0611C194.208 45.6811 193.875 41.3511 193 37.0611C193.26 35.3711 193.927 33.8711 195 32.5611C199.65 31.2311 204.317 29.9011 209 28.5611C220.667 27.8911 232.333 27.8911 244 28.5611C248.479 28.7111 251.979 30.5511 254.5 34.0611C254.999 39.7211 255.166 45.3811 255 51.0611Z" fill="#EEB779"/>
<path fill-rule="evenodd" clip-rule="evenodd" d="M244.999 48.0616C231.612 46.8016 218.279 46.8016 204.999 48.0616C203.72 45.5616 203.72 43.0616 204.999 40.5616C217.964 38.1816 230.964 37.8516 243.999 39.5616C244.943 42.2816 245.276 45.1116 244.999 48.0616Z" fill="#FDD6A2"/>
<path fill-rule="evenodd" clip-rule="evenodd" d="M245 48.0612C248.142 49.3512 251.475 50.3512 255 51.0612C259.979 53.1612 262.646 56.9912 263 62.5612C261.351 67.3512 259.851 72.1912 258.5 77.0612C258 84.0512 257.834 91.0512 258 98.0612C258 98.3912 258 98.7312 258 99.0612C256.912 105.901 256.912 112.901 258 120.061C258 123.731 258 127.391 258 131.061C258.264 141.891 261.598 151.561 268 160.061C276.4 170.521 284.567 181.181 292.5 192.061C294.82 197.031 296.987 202.031 299 207.061C299.667 210.061 300.333 213.061 301 216.061C300.732 217.661 301.066 218.991 302 220.061C302 222.061 302 224.061 302 226.061C298.671 227.391 295.338 228.721 292 230.061C291.826 218.671 288.992 208.011 283.5 198.061C276.595 187.821 268.928 178.151 260.5 169.061C255.935 162.601 252.435 155.601 250 148.061C249.643 144.301 248.81 140.631 247.5 137.061C247.165 115.031 246.998 93.0312 247 71.0612C248.635 68.2312 250.302 65.4012 252 62.5612C251.855 61.7912 251.522 61.1212 251 60.5612C241.96 58.5612 232.793 57.7212 223.5 58.0612C217.333 58.2312 211.167 58.3912 205 58.5612C195.537 59.3012 194.703 62.1412 202.5 67.0612C202.872 81.3112 203.372 95.6512 204 110.061C203.937 122.481 202.937 134.821 201 147.061C195.692 160.321 187.859 171.981 177.5 182.061C165.13 196.001 158.963 212.331 159 231.061C155.442 229.451 151.775 228.111 148 227.061C148.381 218.101 150.048 209.431 153 201.061C153.904 200.351 154.237 199.351 154 198.061C162.436 184.211 172.103 171.211 183 159.061C190.129 147.101 193.463 134.101 193 120.061C193 117.391 193 114.731 193 112.061C193.34 98.5212 192.673 85.1912 191 72.0612C183.936 63.7612 184.936 56.4312 194 50.0612C197.571 48.9212 201.238 48.2512 205 48.0612C218.28 46.8012 231.613 46.8012 245 48.0612Z" fill="#12331B"/>
<path fill-rule="evenodd" clip-rule="evenodd" d="M250.001 148.062C238.862 145.532 227.529 144.532 216.001 145.062C217.113 127.422 217.279 109.752 216.501 92.0618C215.167 88.4618 212.667 87.2918 209.001 88.5618C207.607 89.5218 206.94 90.8518 207.001 92.5618C208.298 110.392 208.298 128.232 207.001 146.062C206.334 146.062 206.001 146.392 206.001 147.062C204.334 147.062 202.668 147.062 201.001 147.062C202.938 134.822 203.938 122.482 204.001 110.062C203.373 95.6518 202.873 81.3118 202.501 67.0618C194.704 62.1418 195.538 59.3018 205.001 58.5618C211.168 58.3918 217.334 58.2318 223.501 58.0618C232.794 57.7218 241.961 58.5618 251.001 60.5618C251.523 61.1218 251.856 61.7918 252.001 62.5618C250.303 65.4018 248.636 68.2318 247.001 71.0618C246.999 93.0318 247.166 115.032 247.501 137.062C248.811 140.632 249.644 144.302 250.001 148.062Z" fill="#145331"/>
<path fill-rule="evenodd" clip-rule="evenodd" d="M216 145.061C213.045 145.721 210.045 146.051 207 146.061C208.297 128.231 208.297 110.391 207 92.5614C206.939 90.8514 207.606 89.5214 209 88.5614C212.666 87.2914 215.166 88.4614 216.5 92.0614C217.278 109.751 217.112 127.421 216 145.061Z" fill="#4C7054"/>
<path fill-rule="evenodd" clip-rule="evenodd" d="M216.001 145.062C215.106 150.372 214.272 155.712 213.501 161.062C211.656 165.352 208.989 166.022 205.501 163.062C205.069 157.712 205.235 152.382 206.001 147.062C206.001 146.392 206.334 146.062 207.001 146.062C210.046 146.052 213.046 145.722 216.001 145.062Z" fill="#696154"/>
<path fill-rule="evenodd" clip-rule="evenodd" d="M216 145.062C227.528 144.532 238.861 145.532 250 148.062C252.435 155.602 255.935 162.602 260.5 169.062C268.928 178.152 276.595 187.822 283.5 198.062C288.992 208.012 291.826 218.672 292 230.062C285.187 233.952 277.854 236.782 270 238.562C244.695 240.152 219.362 240.482 194 239.562C183.148 238.512 172.481 236.512 162 233.562C160.929 232.712 159.929 231.872 159 231.062C158.963 212.332 165.13 196.002 177.5 182.062C187.859 171.982 195.692 160.322 201 147.062C202.667 147.062 204.333 147.062 206 147.062C205.234 152.382 205.068 157.712 205.5 163.062C208.988 166.022 211.655 165.352 213.5 161.062C214.271 155.712 215.105 150.372 216 145.062Z" fill="#393B2E"/>
<path fill-rule="evenodd" clip-rule="evenodd" d="M191 177.061C195.994 176.891 197.828 179.221 196.5 184.061C187.225 193.001 179.891 203.341 174.5 215.061C174.167 218.061 173.833 221.061 173.5 224.061C168.001 228.721 164.834 227.381 164 220.061C165.923 210.551 169.756 201.881 175.5 194.061C180.504 188.221 185.671 182.561 191 177.061Z" fill="#675D50"/>
<path fill-rule="evenodd" clip-rule="evenodd" d="M302 226.062C302.333 226.062 302.667 226.062 303 226.062C303 231.732 303 237.392 303 243.062C302.058 250.422 302.058 257.752 303 265.062C303 276.732 303 288.392 303 300.062C303 308.392 303 316.732 303 325.062C303 328.732 303 332.392 303 336.062C296.5 335.062 294 337.732 295.5 344.062C297.872 346.262 300.039 348.602 302 351.062C301.01 357.202 300.677 363.542 301 370.062C300.434 375.782 299.767 381.442 299 387.062C295.35 389.032 291.684 391.032 288 393.062C284.125 394.532 280.125 395.702 276 396.562C240.866 398.162 205.866 396.832 171 392.562C167.648 391.722 164.315 390.892 161 390.062C158.031 389.092 155.698 387.432 154 385.062C155.658 378.692 154.324 373.022 150 368.062C149.486 361.742 149.153 355.412 149 349.062C151.724 345.442 154.057 341.612 156 337.562C155.38 332.772 152.714 330.272 148 330.062C148 329.062 148 328.062 148 327.062C148 326.732 148 326.392 148 326.062C147.931 311.352 147.264 296.682 146 282.062C146 281.062 146 280.062 146 279.062C146.858 271.932 147.525 264.762 148 257.562C147.467 247.422 147.467 237.252 148 227.062C151.775 228.112 155.442 229.452 159 231.062C159.929 231.872 160.929 232.712 162 233.562C172.481 236.512 183.148 238.512 194 239.562C219.362 240.482 244.695 240.152 270 238.562C277.854 236.782 285.187 233.952 292 230.062C295.338 228.722 298.671 227.392 302 226.062Z" fill="#D7D7D7"/>
<path fill-rule="evenodd" clip-rule="evenodd" d="M291 242.062C293.815 288.902 293.148 335.902 289 383.062C284.878 383.262 280.878 384.092 277 385.562C259.823 385.812 242.656 386.312 225.5 387.062C209.39 384.972 193.223 383.472 177 382.562C171.624 381.502 166.291 380.332 161 379.062C159.467 346.242 158.134 313.412 157 280.562C157.697 269.742 158.197 258.902 158.5 248.062C158.719 246.622 159.219 245.292 160 244.062C183.144 249.662 206.644 252.002 230.5 251.062C249.8 252.582 268.633 250.422 287 244.562C288.566 243.952 289.9 243.122 291 242.062Z" fill="#E5E5E6"/>
<path fill-rule="evenodd" clip-rule="evenodd" d="M185 264.062C185.203 265.952 184.537 267.452 183 268.562C180.486 269.812 177.82 270.312 175 270.062C175 271.062 175 272.062 175 273.062C176.175 272.842 177.175 273.172 178 274.062C175.101 275.162 172.435 274.662 170 272.562C174.479 267.902 174.812 263.072 171 258.062C177.262 256.372 181.929 258.372 185 264.062Z" fill="#323C68"/>
<path fill-rule="evenodd" clip-rule="evenodd" d="M175.999 260.062C183.341 262.342 183.675 265.012 176.999 268.062C176.019 265.472 175.686 262.812 175.999 260.062Z" fill="#E3E4E6"/>
<path fill-rule="evenodd" clip-rule="evenodd" d="M230 263.062C234.333 263.062 238.667 263.062 243 263.062C243.16 264.762 242.994 266.432 242.5 268.062C237.936 264.192 233.269 264.192 228.5 268.062C226.209 271.392 226.709 274.232 230 276.562C233 277.232 236 277.232 239 276.562C239.457 276.152 239.791 275.652 240 275.062C238.771 274.282 237.438 273.782 236 273.562C238.849 271.832 241.849 271.672 245 273.062C243.855 278.462 240.521 280.462 235 279.062C226.624 280.502 223.124 277.162 224.5 269.062C225.86 266.542 227.693 264.542 230 263.062Z" fill="#323D69"/>
<path fill-rule="evenodd" clip-rule="evenodd" d="M277 257.062C278.333 257.062 279.667 257.062 281 257.062C281.157 258.432 280.99 259.772 280.5 261.062C278.226 259.702 276.393 260.202 275 262.562C276.452 264.412 278.285 265.912 280.5 267.062C281.542 270.362 280.375 272.532 277 273.562C275.027 274.062 273.027 274.222 271 274.062C270.851 273.012 271.017 272.012 271.5 271.062C274.528 272.512 277.028 271.842 279 269.062C277.732 267.512 276.065 266.512 274 266.062C272.859 264.142 272.692 262.142 273.5 260.062C275.018 259.402 276.185 258.402 277 257.062Z" fill="#2C3764"/>
<path fill-rule="evenodd" clip-rule="evenodd" d="M266 259.061C270.201 259.001 270.701 260.001 267.5 262.061C269.199 274.451 264.032 278.791 252 275.061C251.656 270.591 250.323 266.591 248 263.061C250.333 261.731 252.667 261.731 255 263.061C250.388 273.951 253.555 276.951 264.5 272.061C265.167 269.061 265.167 266.061 264.5 263.061C263.575 262.511 262.742 261.851 262 261.061C263.449 260.391 264.782 259.721 266 259.061Z" fill="#2F3A66"/>
<path fill-rule="evenodd" clip-rule="evenodd" d="M199 262.061C200.699 261.901 202.366 262.071 204 262.561C204.482 263.571 204.648 264.741 204.5 266.061C207.867 269.761 211.534 273.101 215.5 276.061C216.762 271.651 215.928 267.821 213 264.561C215.667 262.561 218.333 262.561 221 264.561C218.116 268.161 217.282 272.321 218.5 277.061C221.881 279.551 221.381 280.881 217 281.061C212.779 277.361 208.279 273.021 203.5 268.061C202.833 271.391 202.833 274.731 203.5 278.061C204 278.561 204.5 279.061 205 279.561C202.598 280.371 200.265 280.211 198 279.061C200.308 273.611 200.642 267.941 199 262.061Z" fill="#323D68"/>
<path fill-rule="evenodd" clip-rule="evenodd" d="M185 264.062C184.647 261.932 185.48 260.592 187.5 260.062C190.354 260.672 193.187 261.342 196 262.062C197.333 263.392 197.333 264.732 196 266.062C195.333 265.392 194.667 264.732 194 264.062C192.924 268.332 192.257 272.672 192 277.062C193.701 276.592 195.201 276.592 196.5 277.062C196.667 277.392 196.833 277.732 197 278.062C192.973 279.232 188.973 279.062 185 277.562C184.543 277.152 184.209 276.652 184 276.062C185.913 275.512 187.913 275.342 190 275.562C189.803 271.542 189.803 267.382 190 263.062C188.284 263.192 186.617 263.522 185 264.062Z" fill="#2C3864"/>
<path fill-rule="evenodd" clip-rule="evenodd" d="M264 317.062C242.545 309.712 232.712 317.382 234.5 340.062C235.415 347.442 239.582 351.612 247 352.562C257.68 354.472 264.846 350.302 268.5 340.062C270.708 336.012 271.208 331.842 270 327.562C272.02 328.012 274.02 328.842 276 330.062C280.794 341.082 278.794 350.912 270 359.562C265.627 362.752 260.96 365.412 256 367.562C245.793 368.612 235.626 369.782 225.5 371.062C214.397 371.142 203.564 369.642 193 366.562C188.584 364.152 184.751 360.982 181.5 357.062C177.812 350.022 174.979 342.692 173 335.062C174.963 333.602 176.796 331.932 178.5 330.062C176.953 340.752 180.786 348.922 190 354.562C204.352 356.052 213.019 349.712 216 335.562C214.577 330.552 212.743 325.722 210.5 321.062C205.652 316.962 199.985 314.962 193.5 315.062C191.313 315.352 189.146 315.682 187 316.062C195.762 311.162 205.262 308.492 215.5 308.062C228.366 308.872 241.199 310.042 254 311.562C258.465 312.132 262.465 313.792 266 316.562C265.406 317.022 264.739 317.192 264 317.062Z" fill="#FBFBFB"/>
<path fill-rule="evenodd" clip-rule="evenodd" d="M264 317.062C267.316 317.912 270.65 319.072 274 320.562C276.733 323.342 279.899 325.512 283.5 327.062C284.184 328.342 284.017 329.512 283 330.562C280.653 330.892 278.319 330.732 276 330.062C274.02 328.842 272.02 328.012 270 327.562C271.208 331.842 270.708 336.012 268.5 340.062C264.846 350.302 257.68 354.472 247 352.562C239.582 351.612 235.415 347.442 234.5 340.062C232.712 317.382 242.545 309.712 264 317.062Z" fill="#050505"/>
<path fill-rule="evenodd" clip-rule="evenodd" d="M173 335.061C171.121 335.901 169.121 336.231 167 336.061C167.044 329.491 170.044 324.651 176 321.561C179.759 319.681 183.425 317.851 187 316.061C189.146 315.681 191.313 315.351 193.5 315.061C199.985 314.961 205.652 316.961 210.5 321.061C212.743 325.721 214.577 330.551 216 335.561C213.019 349.711 204.352 356.051 190 354.561C180.786 348.921 176.953 340.751 178.5 330.061C176.796 331.931 174.963 333.601 173 335.061Z" fill="#060606"/>
<path fill-rule="evenodd" clip-rule="evenodd" d="M244.999 319.062C248.95 318.842 251.283 320.682 251.999 324.562C252.32 329.592 250.153 332.762 245.499 334.062C240.205 332.762 238.205 329.422 239.499 324.062C241.311 322.262 243.144 320.592 244.999 319.062Z" fill="#F2F2F2"/>
<path fill-rule="evenodd" clip-rule="evenodd" d="M200 322.062C207.959 322.642 210.126 326.642 206.5 334.062C200.958 339.562 197.125 338.402 195 330.562C196.041 327.302 197.708 324.472 200 322.062Z" fill="#F5F5F5"/>
<path d="M340.499 312.06C343.331 305.061 348.498 302.39 355.999 304.06C358.464 304.33 360.798 304.99 362.999 306.06C363.666 306.39 364.332 306.73 364.999 307.06C372.092 309.14 375.092 313.81 373.999 321.06C371.878 331.84 366.211 340.17 356.999 346.06C353.709 345.11 350.376 344.94 346.999 345.56C345.055 342.93 342.722 340.76 339.999 339.06C337.618 335.07 336.618 330.74 336.999 326.06C337.44 321.23 338.606 316.57 340.499 312.06ZM345.499 311.061C342.821 314.611 341.321 318.611 340.999 323.061C350.341 322.951 358.674 325.621 365.999 331.061C368.595 328.271 369.762 324.941 369.499 321.061C359.874 321.921 351.874 318.591 345.499 311.061ZM348.999 306.061C347.692 307.361 347.692 308.691 348.999 310.061C353.582 314.421 359.082 316.761 365.499 317.061C367.847 317.301 369.681 316.471 370.999 314.561C364.631 309.211 357.298 306.381 348.999 306.061Z" fill="#E9E9E9"/>
<path fill-rule="evenodd" clip-rule="evenodd" d="M147 330.062C147.333 330.062 147.667 330.062 148 330.062C152.714 330.272 155.38 332.772 156 337.562C154.057 341.612 151.724 345.442 149 349.062C145.589 353.512 141.922 357.842 138 362.062C141.743 364.602 145.743 366.602 150 368.062C154.324 373.022 155.658 378.692 154 385.062C152.874 387.102 151.207 388.432 149 389.062C144.559 392.572 139.559 393.742 134 392.562C130.315 390.652 129.315 387.812 131 384.062C134.638 381.572 138.305 379.072 142 376.562C136.242 373.792 130.742 370.632 125.5 367.062C124.568 363.742 125.068 360.742 127 358.062C131.612 350.782 136.612 343.782 142 337.062C143.434 334.512 145.1 332.182 147 330.062Z" fill="#030302"/>
<path fill-rule="evenodd" clip-rule="evenodd" d="M341 323.062C350.342 322.952 358.675 325.622 366 331.062C363.704 338.542 358.704 341.382 351 339.562C342.739 337.232 339.406 331.732 341 323.062Z" fill="#A95E48"/>
<path fill-rule="evenodd" clip-rule="evenodd" d="M303 336.062C305.168 339.062 307.834 341.562 311 343.562C319.205 346.452 327.539 346.782 336 344.562C336.727 343.162 337.227 341.662 337.5 340.062C338.171 339.312 339.004 338.972 340 339.062C342.723 340.762 345.056 342.932 347 345.562C350.377 344.942 353.71 345.112 357 346.062C359.895 349.312 359.228 351.812 355 353.562C352.354 354.062 349.687 354.222 347 354.062C345.57 354.142 344.236 353.812 343 353.062C339.439 354.322 335.772 355.152 332 355.562C331.444 355.942 331.111 356.442 331 357.062C320.676 357.862 311.01 355.862 302 351.062C300.039 348.602 297.872 346.262 295.5 344.062C294 337.732 296.5 335.062 303 336.062Z" fill="#050504"/>
<path fill-rule="evenodd" clip-rule="evenodd" d="M347.001 354.062C347.087 355.062 346.753 355.892 346.001 356.562C349.257 358.022 351.924 360.192 354.001 363.062C353.646 364.082 352.979 364.752 352.001 365.062C344.616 365.712 337.949 363.882 332.001 359.562C331.249 358.892 330.915 358.062 331.001 357.062C331.112 356.442 331.445 355.942 332.001 355.562C335.773 355.152 339.44 354.322 343.001 353.062C344.237 353.812 345.571 354.142 347.001 354.062Z" fill="#E8E7E7"/>
<path fill-rule="evenodd" clip-rule="evenodd" d="M234.999 356.062C236.332 356.062 237.666 356.062 238.999 356.062C238.885 361.952 236.052 365.952 230.499 368.062C227.057 366.422 223.557 364.922 219.999 363.562C218.381 360.762 219.214 359.262 222.499 359.062C225.156 359.642 227.656 360.642 229.999 362.062C232.14 360.442 233.807 358.442 234.999 356.062Z" fill="#0A0A0A"/>
<path fill-rule="evenodd" clip-rule="evenodd" d="M149 349.062C149.153 355.412 149.486 361.742 150 368.062C145.743 366.602 141.743 364.602 138 362.062C141.922 357.842 145.589 353.512 149 349.062Z" fill="#707264"/>
<path fill-rule="evenodd" clip-rule="evenodd" d="M154 385.062C155.698 387.432 158.031 389.092 161 390.062C160.834 397.072 161 404.072 161.5 411.062C161.809 412.332 162.309 413.492 163 414.562C173.946 419.132 185.279 422.462 197 424.562C226.16 428.172 255.16 427.172 284 421.562C285.201 420.662 286.035 419.492 286.5 418.062C288.941 409.822 289.441 401.492 288 393.062C291.684 391.032 295.35 389.032 299 387.062C299 395.392 299 403.732 299 412.062C299 412.392 299 412.732 299 413.062C298.141 419.622 295.474 425.452 291 430.562C289.755 431.352 288.422 431.852 287 432.062C285.792 432.792 284.459 433.132 283 433.062C274.669 434.132 266.335 435.132 258 436.062C254.129 435.752 250.462 436.082 247 437.062C230.991 437.062 214.991 436.732 199 436.062C199.284 437.972 198.951 439.642 198 441.062C198 438.732 198 436.392 198 434.062C194.899 433.872 191.899 433.202 189 432.062C188.393 432.182 188.06 432.522 188 433.062C184.303 432.552 180.636 431.892 177 431.062C175.891 431.002 174.891 430.672 174 430.062C165.651 428.642 158.485 424.972 152.5 419.062C151.372 417.212 150.872 415.212 151 413.062C150.724 404.882 150.057 396.882 149 389.062C151.207 388.432 152.874 387.102 154 385.062Z" fill="#13341B"/>
<path fill-rule="evenodd" clip-rule="evenodd" d="M161.001 390.062C164.316 390.892 167.649 391.722 171.001 392.562C205.867 396.832 240.867 398.162 276.001 396.562C280.126 395.702 284.126 394.532 288.001 393.062C289.442 401.492 288.942 409.822 286.501 418.062C286.036 419.492 285.202 420.662 284.001 421.562C255.161 427.172 226.161 428.172 197.001 424.562C185.28 422.462 173.947 419.132 163.001 414.562C162.31 413.492 161.81 412.332 161.501 411.062C161.001 404.072 160.835 397.072 161.001 390.062Z" fill="#393B2E"/>
<path fill-rule="evenodd" clip-rule="evenodd" d="M198 441.062C198.264 450.112 197.764 459.112 196.5 468.062C195.329 469.452 193.829 470.292 192 470.562C186.667 471.232 181.333 471.232 176 470.562C173.771 468.012 173.438 465.172 175 462.062C178.362 459.942 182.029 458.612 186 458.062C186.379 449.652 187.045 441.322 188 433.062C188.06 432.522 188.393 432.182 189 432.062C191.899 433.202 194.899 433.872 198 434.062C198 436.392 198 438.732 198 441.062Z" fill="#050404"/>
<path fill-rule="evenodd" clip-rule="evenodd" d="M258 436.062C258.113 443.752 258.613 451.422 259.5 459.062C262.573 457.942 265.74 457.782 269 458.562C273.261 461.092 273.928 464.262 271 468.062C267.431 470.102 263.598 471.102 259.5 471.062C254.771 471.532 251.104 469.862 248.5 466.062C248.226 456.372 247.726 446.702 247 437.062C250.462 436.082 254.129 435.752 258 436.062Z" fill="#080706"/>
</svg>
