<svg width="500" height="500" viewBox="0 0 500 500" fill="none" xmlns="http://www.w3.org/2000/svg">
<path fill-rule="evenodd" clip-rule="evenodd" d="M371.999 343.062C370.079 345.902 368.412 348.902 366.999 352.062C331.538 401.382 284.204 418.552 224.999 403.562C216.553 400.502 208.22 397.172 199.999 393.562C189.666 385.892 179.332 378.232 168.999 370.562C159.432 360.272 152.266 348.442 147.499 335.062C131.306 296.642 132.972 258.982 152.499 222.062C155.367 218.822 157.867 215.322 159.999 211.562C144.758 207.812 130.091 202.482 115.999 195.562C104.072 183.622 98.7382 169.122 99.9992 152.062C103.447 112.622 125.114 92.9519 164.999 93.0619C190.052 91.6619 208.219 101.992 219.499 124.062C220.907 127.622 221.907 131.282 222.499 135.062C223.199 148.142 222.866 161.142 221.499 174.062C241.597 167.352 262.097 165.852 282.999 169.562C288.409 170.412 293.742 171.572 298.999 173.062C299.666 172.732 300.332 172.392 300.999 172.062C287.825 146.902 291.825 124.732 312.999 105.562C344.878 84.8219 375.545 86.4919 404.999 110.562C417.914 120.892 426.414 134.062 430.499 150.062C433.645 171.652 426.812 189.152 409.999 202.562C397.596 211.922 383.596 217.592 367.999 219.562C367.542 219.972 367.208 220.472 366.999 221.062C372.698 232.462 377.865 244.132 382.499 256.062C384.97 265.942 386.803 275.942 387.999 286.062C386.863 306.272 381.53 325.272 371.999 343.062Z" fill="#C3C3C3"/>
<path fill-rule="evenodd" clip-rule="evenodd" d="M349.001 102.062C376.471 102.692 397.971 114.362 413.501 137.062C426.443 167.232 417.943 189.072 388.001 202.562C378.349 205.362 368.683 208.022 359.001 210.562C354.67 214.712 353.837 219.542 356.501 225.062C365.94 241.612 372.273 259.272 375.501 278.062C374.894 335.782 347.394 374.282 293.001 393.562C273.445 399.202 253.778 399.532 234.001 394.562C224.935 391.432 215.935 388.092 207.001 384.562C195.266 376.832 184.099 368.332 173.501 359.062C148.586 324.092 142.253 286.092 154.501 245.062C156.834 239.732 159.168 234.392 161.501 229.062C167.924 222.222 171.591 214.222 172.501 205.062C157.329 199.732 142.162 194.232 127.001 188.562C119.739 184.882 115.239 179.042 113.501 171.062C107.392 149.822 111.892 131.322 127.001 115.562C143.541 104.792 161.541 101.452 181.001 105.562C203.544 111.792 213.877 126.632 212.001 150.062C212.081 161.012 210.414 171.682 207.001 182.062C207.441 184.772 208.775 186.942 211.001 188.562C225.987 183.372 241.487 180.202 257.501 179.062C275.13 180.072 292.63 182.072 310.001 185.062C313.142 183.472 314.809 180.802 315.001 177.062C311.231 168.522 307.731 159.852 304.501 151.062C304.24 131.652 312.74 117.482 330.001 108.562C336.441 106.322 342.775 104.152 349.001 102.062Z" fill="#D8D7D7"/>
<path fill-rule="evenodd" clip-rule="evenodd" d="M154.001 118.061C173.848 117.081 186.681 126.081 192.501 145.061C193.168 157.731 193.168 170.391 192.501 183.061C191.33 184.451 189.83 185.291 188.001 185.561C187.244 187.071 186.244 188.411 185.001 189.561C180.88 188.541 176.546 187.871 172.001 187.561C166.663 184.811 160.996 183.141 155.001 182.561C145.446 179.051 138.28 172.891 133.501 164.061C126.585 148.471 129.752 135.311 143.001 124.561C146.597 122.101 150.264 119.931 154.001 118.061Z" fill="#FECBC4"/>
<path fill-rule="evenodd" clip-rule="evenodd" d="M350 118.062C355.038 118.942 360.038 119.112 365 118.562C398.053 131.052 405.053 152.052 386 181.562C373.047 190.702 358.713 196.532 343 199.062C338.641 198.232 335.141 195.902 332.5 192.062C325.373 180.762 322.706 168.432 324.5 155.062C326.652 146.422 329.652 138.092 333.5 130.062C338.482 125.172 343.982 121.172 350 118.062Z" fill="#FECBC4"/>
<path fill-rule="evenodd" clip-rule="evenodd" d="M215.999 194.061C228.217 192.441 233.717 197.781 232.499 210.061C231.714 211.851 230.548 213.351 228.999 214.561C221.689 217.421 215.189 216.251 209.499 211.061C205.207 202.871 207.374 197.201 215.999 194.061Z" fill="#080808"/>
<path fill-rule="evenodd" clip-rule="evenodd" d="M295.001 195.062C307.821 193.712 313.321 199.382 311.501 212.062C307.882 219.152 302.382 221.322 295.001 218.562C288.104 213.952 285.937 207.792 288.501 200.062C290.466 198.012 292.633 196.342 295.001 195.062Z" fill="#070707"/>
<path fill-rule="evenodd" clip-rule="evenodd" d="M215.999 197.062C221.295 197.172 223.295 199.672 221.999 204.562C214.805 205.882 212.805 203.382 215.999 197.062Z" fill="#EEEEEE"/>
<path fill-rule="evenodd" clip-rule="evenodd" d="M294 199.062C300.986 198.892 302.653 201.722 299 207.562C296.799 208.382 294.966 207.882 293.5 206.062C292.797 203.632 292.963 201.302 294 199.062Z" fill="#F6F6F6"/>
<path fill-rule="evenodd" clip-rule="evenodd" d="M260.001 221.062C257.737 221.782 255.404 222.112 253.001 222.062C250.851 219.092 249.851 215.752 250.001 212.062C254.015 211.892 258.015 212.062 262.001 212.562C262.56 213.282 262.893 214.122 263.001 215.062C261.982 217.072 260.982 219.072 260.001 221.062Z" fill="#F79F9B"/>
<path fill-rule="evenodd" clip-rule="evenodd" d="M253.001 222.062C255.404 222.112 257.737 221.782 260.001 221.062C265.605 225.362 270.938 225.032 276.001 220.062C278.62 222.142 278.62 224.302 276.001 226.562C269.391 229.972 263.058 229.472 257.001 225.062C248.999 230.692 241.332 230.362 234.001 224.062C233.255 222.822 232.922 221.492 233.001 220.062C236.522 220.392 239.522 221.892 242.001 224.562C246.156 225.612 249.823 224.782 253.001 222.062Z" fill="#0E0E0E"/>
<path fill-rule="evenodd" clip-rule="evenodd" d="M337 295.062C332.83 292.422 328.497 289.922 324 287.562C317.29 286.102 310.623 284.442 304 282.562C288.39 279.302 278.223 285.462 273.5 301.062C269.352 329.252 281.185 340.752 309 335.562C312.283 334.002 315.117 331.832 317.5 329.062C322.967 320.132 326.134 310.462 327 300.062C330.692 303.292 335.025 304.962 340 305.062C341.068 305.992 342.401 306.332 344 306.062C343.76 317.572 341.26 328.572 336.5 339.062C332.588 343.642 328.088 347.482 323 350.562C314.784 354.502 306.451 358.172 298 361.562C274.766 365.382 251.432 366.042 228 363.562C220.575 362.282 213.242 360.612 206 358.562C200.169 355.482 194.502 352.152 189 348.562C163.354 315.782 169.354 290.122 207 271.562C237.862 262.782 269.195 260.782 301 265.562C314.523 269.912 326.023 277.412 335.5 288.062C337.054 290.462 337.554 292.792 337 295.062Z" fill="#FCFCFC"/>
<path fill-rule="evenodd" clip-rule="evenodd" d="M337.001 295.062C338.774 296.452 340.774 297.622 343.001 298.562C345.994 302.402 344.994 304.562 340.001 305.062C335.026 304.962 330.693 303.292 327.001 300.062C326.135 310.462 322.968 320.132 317.501 329.062C315.118 331.832 312.284 334.002 309.001 335.562C281.186 340.752 269.353 329.252 273.501 301.062C278.224 285.462 288.391 279.302 304.001 282.562C310.624 284.442 317.291 286.102 324.001 287.562C328.498 289.922 332.831 292.422 337.001 295.062Z" fill="#040404"/>
<path fill-rule="evenodd" clip-rule="evenodd" d="M288 289.062C291.787 288.372 294.954 289.372 297.5 292.062C297.996 296.772 297.662 301.432 296.5 306.062C293.08 310.312 288.913 311.152 284 308.562C280.453 305.082 279.286 300.912 280.5 296.062C282.937 293.602 285.437 291.272 288 289.062Z" fill="#F6F6F6"/>
<path fill-rule="evenodd" clip-rule="evenodd" d="M208 284.062C218.105 283.052 227.771 284.552 237 288.562C239.852 291.082 241.352 294.252 241.5 298.062C246.545 303.862 248.212 310.532 246.5 318.062C238.869 337.132 225.369 343.632 206 337.562C203.167 334.732 200.333 331.892 197.5 329.062C196.32 325.342 194.987 321.682 193.5 318.062C193.107 313.362 193.107 308.692 193.5 304.062C189.979 308.602 185.646 311.932 180.5 314.062C179.393 313.972 178.393 313.642 177.5 313.062C176.833 310.392 176.833 307.732 177.5 305.062C180 301.892 182.5 298.732 185 295.562C192.212 290.622 199.878 286.792 208 284.062Z" fill="#040404"/>
<path fill-rule="evenodd" clip-rule="evenodd" d="M225 293.062C232.017 292.082 235.683 295.082 236 302.062C235.787 309.202 232.287 313.532 225.5 315.062C218.958 312.642 216.624 307.982 218.5 301.062C219.979 297.732 222.145 295.072 225 293.062Z" fill="#F8F8F8"/>
<path fill-rule="evenodd" clip-rule="evenodd" d="M367 352.061C368.413 348.901 370.08 345.901 372 343.061C379.372 343.741 386.705 344.741 394 346.061C405.384 345.841 411.217 340.171 411.5 329.061C409.587 327.371 407.42 326.871 405 327.561C405.631 329.871 405.631 332.371 405 335.061C397.518 339.251 393.184 337.081 392 328.561C394.145 317.151 400.811 313.481 412 317.561C421.434 321.261 424.934 328.091 422.5 338.061C415.579 352.771 404.079 358.271 388 354.561C381.147 352.571 374.147 351.741 367 352.061Z" fill="#FECAC3"/>
<path fill-rule="evenodd" clip-rule="evenodd" d="M103.001 334.062C112.741 333.762 121.241 336.762 128.501 343.062C139.554 355.622 142.554 369.951 137.501 386.062C136.234 390.432 134.068 394.262 131.001 397.562C104.352 414.691 84.1852 409.191 70.5012 381.062C68.2802 373.272 68.6132 365.612 71.5012 358.062C74.4502 348.112 80.6172 340.952 90.0012 336.562C94.6282 336.512 98.9612 335.682 103.001 334.062Z" fill="#C07E5F"/>
<path fill-rule="evenodd" clip-rule="evenodd" d="M275 341.062C278.117 340.492 280.117 341.652 281 344.562C279.503 349.872 276.503 354.212 272 357.562C269.333 358.232 266.667 358.232 264 357.562C260.171 355.562 256.338 353.732 252.5 352.062C251.757 350.122 251.924 348.292 253 346.562C255.333 345.892 257.667 345.892 260 346.562C262.798 348.472 265.798 349.472 269 349.562C271.22 346.852 273.22 344.012 275 341.062Z" fill="#0B0B0B"/>
<path fill-rule="evenodd" clip-rule="evenodd" d="M105.001 341.062C110.364 340.362 112.364 342.362 111.001 347.062C111.164 351.062 113.164 352.562 117.001 351.562C118.501 350.062 120.001 348.562 121.501 347.062C132.494 357.732 135.494 370.402 130.501 385.062C127.875 391.362 123.209 395.022 116.501 396.062C112.152 390.862 107.819 390.862 103.501 396.062C103.011 397.352 102.844 398.692 103.001 400.062C97.0427 400.082 92.0427 397.912 88.0007 393.562C93.7967 388.692 93.2967 385.192 86.5007 383.062C84.4667 382.912 82.7997 383.582 81.5007 385.062C75.5317 377.342 74.5317 369.002 78.5007 360.062C80.1677 356.732 81.8337 353.392 83.5007 350.062C86.1957 347.872 89.0287 345.872 92.0007 344.062C93.0057 344.672 92.8387 345.342 91.5007 346.062C90.5077 352.062 93.0077 354.232 99.0007 352.562C101.56 349.632 101.56 346.632 99.0007 343.562C101.224 342.992 103.224 342.162 105.001 341.062Z" fill="#EEB779"/>
<path fill-rule="evenodd" clip-rule="evenodd" d="M115.999 357.062C124.762 357.852 126.095 361.352 119.999 367.562C114.202 369.092 111.369 366.922 111.499 361.062C112.896 359.492 114.396 358.162 115.999 357.062Z" fill="#C17F60"/>
<path fill-rule="evenodd" clip-rule="evenodd" d="M86 362.062C92.483 363.492 93.483 366.662 89 371.562C85.018 372.982 82.352 371.812 81 368.062C81.965 365.432 83.632 363.432 86 362.062Z" fill="#C28060"/>
<path fill-rule="evenodd" clip-rule="evenodd" d="M98.0002 371.062C101.959 370.632 105.459 371.632 108.5 374.062C108.948 380.942 105.782 383.442 99.0002 381.562C95.4352 378.342 95.1022 374.842 98.0002 371.062Z" fill="#C07E60"/>
<path fill-rule="evenodd" clip-rule="evenodd" d="M123.001 377.061C129.876 376.871 131.71 379.871 128.501 386.061C123.948 389.321 121.448 388.151 121.001 382.561C120.896 380.381 121.562 378.551 123.001 377.061Z" fill="#C07E5F"/>
</svg>
