<svg width="500" height="500" viewBox="0 0 500 500" fill="none" xmlns="http://www.w3.org/2000/svg">
<path d="M108.999 91.5606C133.039 78.0106 158.699 73.6806 185.999 78.5606C203.879 82.9706 221.219 88.9706 237.999 96.5606C240.249 97.9405 242.419 99.4406 244.499 101.061C279.049 81.5506 315.879 75.0506 354.999 81.5606C387.579 91.2506 413.409 110.091 432.499 138.061C439.049 150.71 443.379 164.041 445.499 178.061C446.529 229.06 435.029 277.061 410.999 322.061C422.369 339.07 419.699 353.571 402.999 365.561C389.059 372.32 374.889 372.82 360.499 367.061C350.549 371.941 340.379 376.441 329.999 380.561C319.509 382.961 309.179 385.791 298.999 389.061C299.189 384.991 298.859 380.99 297.999 377.061C306.959 373.421 316.289 370.591 325.999 368.561C332.229 365.611 338.559 362.951 344.999 360.561C320.319 347.891 296.989 333.23 274.999 316.561C272.859 315.161 270.529 314.321 267.999 314.061C250.859 315.591 233.859 315.091 216.999 312.561C199.579 329.11 179.919 342.441 157.999 352.561C153.119 353.631 148.449 355.301 143.999 357.561C152.459 363.13 161.459 367.631 170.999 371.061C171.059 375.64 170.399 379.971 168.999 384.061C154.139 378.631 140.469 371.13 127.999 361.561C112.629 362.291 100.459 356.46 91.499 344.061C87.7591 334.681 87.2591 325.18 89.999 315.561C61.4491 269.771 50.2791 219.93 56.499 166.061C62.309 132.931 79.8091 108.091 108.999 91.5606ZM238.999 292.061C236.349 295.37 233.349 298.371 229.999 301.061C237.609 302.611 245.269 303.111 252.999 302.561C248.449 298.801 243.789 295.301 238.999 292.061ZM357.999 157.561C340.989 150.891 323.319 148.061 304.999 149.061C300.939 150.311 296.939 151.981 292.999 154.061C306.639 181.941 308.639 210.601 298.999 240.061C314.289 251.66 329.619 263.331 344.999 275.061C349.689 271.211 353.849 266.881 357.499 262.061C366.849 248.361 373.179 233.361 376.499 217.061C381.069 193.741 374.899 173.911 357.999 157.561ZM196 152.561C184.22 145.971 171.55 143.141 158 144.061C141.34 150.561 130.84 162.561 126.5 180.061C123.35 207.631 127.68 233.961 139.5 259.061C141.8 263.691 145.13 267.351 149.5 270.061C163.69 262.021 177.19 253.021 190 243.061C188.97 241.861 188.14 240.531 187.5 239.061C176.73 208.901 179.57 180.061 196 152.561Z" fill="#D66E2F"/>
<path fill-rule="evenodd" clip-rule="evenodd" d="M71.0005 228.061C78.4605 234.971 85.6305 234.641 92.5005 227.061C92.6605 204.081 96.5005 181.741 104 160.061C105.29 160.301 106.29 159.961 107 159.061C108.52 159.051 109.68 158.381 110.5 157.061C111.1 154.341 110.93 151.671 110 149.061C122.35 133.361 137.35 121.031 155 112.061C157.3 118.211 161.63 120.711 168 119.561C171.29 117.231 171.79 114.391 169.5 111.061C167.06 108.111 164.23 105.781 161 104.061C159.87 96.4306 155.37 92.4306 147.5 92.0606C133.52 95.8806 120.36 101.551 108 109.061C108 108.731 108 108.391 108 108.061C126.72 93.2206 148.06 87.3806 172 90.5606C199.03 93.4606 224.03 102.131 247 116.561C280.38 143.821 295.21 178.991 291.5 222.061C290.33 226.091 289.16 230.091 288 234.061C284.48 233.631 281.48 232.131 279 229.561C268.92 221.481 261.08 211.651 255.5 200.061C253.55 191.821 250.22 184.151 245.5 177.061C222.72 146.251 192.22 131.421 154 132.561C125.4 144.191 111.73 165.521 113 196.561C113.29 209.141 114.45 221.641 116.5 234.061C119.97 244.131 123.63 254.131 127.5 264.061C130.45 268.681 133.78 273.011 137.5 277.061C138.17 277.731 138.17 278.391 137.5 279.061C128.47 286.411 118.63 292.581 108 297.561C105.07 300.541 101.74 302.541 98.0005 303.561C83.3505 280.451 74.3505 255.291 71.0005 228.061Z" fill="#E48C57"/>
<path fill-rule="evenodd" clip-rule="evenodd" d="M161 104.06C155.64 104.11 153.64 106.77 155 112.06C137.35 121.03 122.35 133.36 110 149.06C108.48 149.05 107.32 148.38 106.5 147.06C103.87 140.4 99.8695 139.4 94.4995 144.06C93.7295 153.13 97.8995 158.13 107 159.06C106.29 159.96 105.29 160.3 104 160.06C96.4995 181.74 92.6595 204.08 92.4995 227.06C85.6295 234.64 78.4595 234.97 70.9995 228.06C69.9095 226.2 69.0695 224.2 68.4995 222.06C67.4895 214.99 66.1595 207.99 64.4995 201.06C63.7795 198.3 63.9395 195.63 64.9995 193.06C69.3795 197.23 74.3795 198.07 79.9995 195.56C82.9795 191.47 82.3095 188.13 77.9995 185.56C74.2395 184.8 70.5795 184.97 66.9995 186.06C67.5695 169.24 71.3995 153.24 78.4995 138.06C83.4395 130.29 89.2795 123.29 95.9995 117.06C97.8895 120.73 100.89 121.9 105 120.56C107.65 117.23 108.65 113.4 108 109.06C120.36 101.55 133.52 95.8805 147.5 92.0605C155.37 92.4305 159.87 96.4305 161 104.06Z" fill="#EAA06A"/>
<path fill-rule="evenodd" clip-rule="evenodd" d="M350 100.06C346.48 100.49 343.48 101.99 341 104.56C336.88 108.63 337.21 112.3 342 115.56C344.82 115.99 347.49 115.49 350 114.06C349.99 115.58 349.32 116.74 348 117.56C346.01 119.31 343.68 120.31 341 120.56C333.67 120.56 326.33 120.56 319 120.56C317 120.89 315 121.23 313 121.56C310.9 123.33 308.57 124.66 306 125.56C301.44 125.67 297.11 126.67 293 128.56C280.82 129.04 275.65 123.21 277.5 111.06C278.96 108.6 280.79 106.43 283 104.56C286.49 102.98 289.83 101.15 293 99.0605C293.67 100.51 294.34 101.84 295 103.06C295.38 109.95 298.71 112.12 305 109.56C307.65 104.33 307.65 99.1605 305 94.0605C318.05 91.2605 331.05 91.4205 344 94.5605C346.5 95.8905 348.5 97.7205 350 100.06Z" fill="#EAA06A"/>
<path fill-rule="evenodd" clip-rule="evenodd" d="M303.999 93.0609C303.999 93.7309 304.329 94.0609 304.999 94.0609C307.649 99.1609 307.649 104.331 304.999 109.561C298.709 112.121 295.379 109.951 294.999 103.061C294.799 100.611 295.129 98.2809 295.999 96.0609C297.889 93.3909 300.559 92.3909 303.999 93.0609Z" fill="#FEF4DF"/>
<path fill-rule="evenodd" clip-rule="evenodd" d="M423 149.06C417.05 149.62 411.89 151.95 407.5 156.06C406.44 161 408.44 163.67 413.5 164.06C418.16 162.82 422.66 161.15 427 159.06C431.08 166.41 433.24 174.41 433.5 183.06C433.22 229.05 422.39 272.39 401 313.06C390.1 305.79 379.1 298.79 368 292.06C373.23 290.67 377.9 288.17 382 284.56C390.58 275.98 398.42 266.82 405.5 257.06C409.98 247.31 413.15 237.15 415 226.56C414.02 218.64 409.52 214.48 401.5 214.06C393.21 215.02 389.21 219.69 389.5 228.06C388.65 229.13 387.81 230.13 387 231.06C388.99 220.48 390.32 209.81 391 199.06C395.68 199.23 400.35 199.06 405 198.56C410.33 194.89 410.33 191.23 405 187.56C399.22 186.31 393.88 187.14 389 190.06C383.78 157.01 364.44 139.51 331 137.56C321 136.89 311 136.89 301 137.56C296.36 138.66 291.86 140.16 287.5 142.06C282.38 136.52 277.71 130.52 273.5 124.06C268.3 118.53 262.8 113.36 257 108.56C269.13 101.68 282.13 97.5104 296 96.0604C295.13 98.2804 294.8 100.61 295 103.06C294.34 101.84 293.67 100.51 293 99.0604C289.83 101.15 286.49 102.98 283 104.56C280.79 106.43 278.96 108.6 277.5 111.06C275.65 123.21 280.82 129.04 293 128.56C297.11 126.67 301.44 125.67 306 125.56C308.57 124.66 310.9 123.33 313 121.56C315 121.23 317 120.89 319 120.56C326.33 120.56 333.67 120.56 341 120.56C343.68 120.31 346.01 119.31 348 117.56C349.32 116.74 349.99 115.58 350 114.06C351.79 112.55 353.79 111.22 356 110.06C358.1 104.25 356.1 100.92 350 100.06C348.5 97.7204 346.5 95.8904 344 94.5604C331.05 91.4204 318.05 91.2604 305 94.0604C304.33 94.0604 304 93.7304 304 93.0604C318.59 90.7104 333.25 90.5404 348 92.5604C362.9 98.1904 377.23 104.85 391 112.56C404.8 122.18 415.47 134.35 423 149.06Z" fill="#E48D57"/>
<path fill-rule="evenodd" clip-rule="evenodd" d="M350 100.06C356.1 100.92 358.1 104.25 356 110.06C353.79 111.22 351.79 112.55 350 114.06C347.49 115.49 344.82 115.99 342 115.56C337.21 112.3 336.88 108.63 341 104.56C343.48 101.99 346.48 100.49 350 100.06Z" fill="#FEF4E0"/>
<path fill-rule="evenodd" clip-rule="evenodd" d="M161 104.06C164.23 105.78 167.06 108.11 169.5 111.06C171.79 114.39 171.29 117.23 168 119.56C161.63 120.71 157.3 118.21 155 112.06C153.64 106.77 155.64 104.11 161 104.06Z" fill="#FEF4E1"/>
<path fill-rule="evenodd" clip-rule="evenodd" d="M108 108.061C108 108.391 108 108.731 108 109.061C108.65 113.401 107.65 117.231 105 120.561C100.89 121.901 97.8899 120.731 95.9999 117.061C93.8399 108.751 96.8399 104.921 105 105.561C105.87 106.601 106.87 107.441 108 108.061Z" fill="#FEF5E2"/>
<path fill-rule="evenodd" clip-rule="evenodd" d="M225.001 110.061C228.281 109.831 230.781 111.161 232.501 114.061C234.571 118.191 235.231 122.521 234.501 127.061C228.781 131.771 224.781 130.431 222.501 123.061C219.911 117.881 220.751 113.541 225.001 110.061Z" fill="#FEF4E1"/>
<path fill-rule="evenodd" clip-rule="evenodd" d="M376.999 121.06C383.869 121.1 386.37 124.43 384.5 131.06C381.57 135.02 377.73 136.52 373 135.56C370.289 133.7 369.46 131.2 370.499 128.06C372.19 125.2 374.359 122.87 376.999 121.06Z" fill="#FEF4E0"/>
<path fill-rule="evenodd" clip-rule="evenodd" d="M110.001 149.06C110.931 151.67 111.101 154.34 110.501 157.06C109.681 158.38 108.521 159.05 107.001 159.06C97.9007 158.13 93.7307 153.13 94.5007 144.06C99.8707 139.4 103.871 140.4 106.501 147.06C107.321 148.38 108.481 149.05 110.001 149.06Z" fill="#FEF5E1"/>
<path fill-rule="evenodd" clip-rule="evenodd" d="M423 149.06C427.9 150.82 429.24 154.16 427 159.06C422.66 161.15 418.16 162.82 413.5 164.06C408.44 163.67 406.44 161 407.5 156.06C411.89 151.95 417.05 149.62 423 149.06Z" fill="#FEF5E1"/>
<path fill-rule="evenodd" clip-rule="evenodd" d="M224.998 173.06C220.548 170.33 216.218 167.33 211.998 164.06C210.348 165.21 208.848 166.54 207.498 168.06C196.168 189.73 196.168 211.4 207.498 233.06C214.078 241.65 221.918 248.81 230.998 254.56C235.908 254.98 238.238 252.65 237.998 247.56C235.548 238.04 232.218 228.87 227.998 220.06C232.078 216.04 231.748 212.38 226.998 209.06C225.158 200.47 225.988 192.13 229.498 184.06C229.878 182.62 230.708 181.62 231.998 181.06C238.128 188.71 242.288 197.38 244.498 207.06C250.728 219.3 259.228 229.8 269.998 238.56C280.358 245.74 291.028 252.41 301.998 258.56C332.888 282.78 364.888 305.45 397.998 326.56C402.848 331.08 405.348 336.58 405.498 343.06C400.918 353.77 392.748 359.11 380.998 359.06C375.478 358.72 370.148 357.56 364.998 355.56C343.258 345.19 322.258 333.52 301.998 320.56C286.268 309.17 270.268 298.17 253.998 287.56C238.028 273.98 222.528 259.81 207.498 245.06C204.498 241.06 201.498 237.06 198.498 233.06C190.138 206.68 193.138 181.68 207.498 158.06C214.408 161.8 220.238 166.8 224.998 173.06Z" fill="#E48D57"/>
<path fill-rule="evenodd" clip-rule="evenodd" d="M255.999 159.06C259.459 158.71 261.959 160.04 263.499 163.06C264.059 165.71 264.559 168.38 264.999 171.06C264.199 176.35 261.199 178.18 255.999 176.56C252.579 172.71 251.409 168.21 252.499 163.06C253.189 161.21 254.359 159.88 255.999 159.06Z" fill="#FEF4E0"/>
<path fill-rule="evenodd" clip-rule="evenodd" d="M224.999 173.06C228.049 175.11 230.379 177.78 231.999 181.06C230.709 181.62 229.879 182.62 229.499 184.06C225.989 192.13 225.159 200.47 226.999 209.06C222.949 209.58 218.949 210.41 214.999 211.56C211.369 213.81 210.209 216.98 211.499 221.06C212.679 222.92 214.349 223.92 216.499 224.06C220.339 222.79 224.169 221.46 227.999 220.06C232.219 228.87 235.549 238.04 237.999 247.56C238.239 252.65 235.909 254.98 230.999 254.56C221.919 248.81 214.079 241.65 207.499 233.06C196.169 211.4 196.169 189.73 207.499 168.06C208.849 166.54 210.349 165.21 211.999 164.06C216.219 167.33 220.549 170.33 224.999 173.06Z" fill="#EBA06B"/>
<path fill-rule="evenodd" clip-rule="evenodd" d="M64.9999 193.06C64.6699 190.37 65.3299 188.04 66.9999 186.06C70.5799 184.97 74.2399 184.8 77.9999 185.56C82.3099 188.13 82.9799 191.47 79.9999 195.56C74.3799 198.07 69.3799 197.23 64.9999 193.06Z" fill="#FEF4DF"/>
<path fill-rule="evenodd" clip-rule="evenodd" d="M391.001 199.06C388.041 196.62 387.381 193.62 389.001 190.06C393.881 187.14 399.221 186.31 405.001 187.56C410.331 191.23 410.331 194.89 405.001 198.56C400.351 199.06 395.681 199.23 391.001 199.06Z" fill="#FEF3DF"/>
<path fill-rule="evenodd" clip-rule="evenodd" d="M226.999 209.06C231.749 212.38 232.079 216.04 227.999 220.06C224.169 221.46 220.339 222.79 216.499 224.06C214.349 223.92 212.679 222.92 211.499 221.06C210.209 216.98 211.369 213.81 214.999 211.56C218.949 210.41 222.949 209.58 226.999 209.06Z" fill="#FEF4DF"/>
<path fill-rule="evenodd" clip-rule="evenodd" d="M368 292.06C363.48 288.97 359.14 285.63 355 282.06C369.45 267.5 380.12 250.5 387 231.06C387.81 230.13 388.65 229.13 389.5 228.06C389.21 219.69 393.21 215.02 401.5 214.06C409.52 214.48 414.02 218.64 415 226.56C413.15 237.15 409.98 247.31 405.5 257.06C398.42 266.82 390.58 275.98 382 284.56C377.9 288.17 373.23 290.67 368 292.06Z" fill="#EAA06A"/>
<path fill-rule="evenodd" clip-rule="evenodd" d="M398 232.06C405.45 232.68 408.62 236.68 407.5 244.06C405.64 246.77 403.14 247.6 400 246.56C398.17 244.73 396.33 242.89 394.5 241.06C393.83 239.39 393.83 237.73 394.5 236.06C395.88 234.85 397.04 233.52 398 232.06Z" fill="#FEF4DF"/>
<path fill-rule="evenodd" clip-rule="evenodd" d="M98.0001 234.061C101.15 233.521 103.65 234.521 105.5 237.061C106.51 242.121 106.01 246.951 104 251.561C99.7201 253.021 96.5501 251.851 94.5001 248.061C93.8301 244.731 93.8301 241.391 94.5001 238.061C95.1901 236.211 96.3601 234.881 98.0001 234.061Z" fill="#FEF5E1"/>
<path fill-rule="evenodd" clip-rule="evenodd" d="M250.999 242.061C256.009 240.891 259.009 242.721 259.999 247.561C258.909 250.571 257.409 253.401 255.499 256.061C245.989 259.881 242.989 256.881 246.499 247.061C247.559 244.901 249.059 243.231 250.999 242.061Z" fill="#FEF4E1"/>
<path fill-rule="evenodd" clip-rule="evenodd" d="M197 254.06C208.01 264.07 219.01 274.07 230 284.06C213.36 300.21 195.69 315.04 177 328.56C169.18 332.3 161.51 336.3 154 340.56C147.37 342.1 141.04 344.44 135 347.56C122.63 351.34 112.13 348.51 103.5 339.06C98.5499 328.64 100.39 319.81 109 312.56C115.07 308.53 121.41 304.86 128 301.56C150.72 285.21 173.72 269.38 197 254.06Z" fill="#E48D57"/>
<path fill-rule="evenodd" clip-rule="evenodd" d="M185 265.061C194.8 263.611 200.8 267.611 203 277.061C176.52 300.971 146.85 320.471 114 335.561C111.02 336.321 109.19 335.151 108.5 332.061C106.91 325.951 108.41 320.791 113 316.561C136.54 298.641 160.54 281.471 185 265.061Z" fill="#EAA16B"/>
<path fill-rule="evenodd" clip-rule="evenodd" d="M298 377.06C297.28 374.48 296.44 371.81 295.5 369.06C293.43 366.91 291.09 366.58 288.5 368.06C287.87 371.11 288.03 374.11 289 377.06C286.53 379.02 283.53 380.19 280 380.56C268.19 382.54 256.36 384.37 244.5 386.06C228.99 384.11 213.49 382.27 198 380.56C192.08 378.42 186.08 376.59 180 375.06C180.8 372.95 181.47 370.79 182 368.56C181.58 364.19 179.25 362.52 175 363.56C173 365.72 171.67 368.22 171 371.06C161.46 367.63 152.46 363.13 144 357.56C148.45 355.3 153.12 353.63 158 352.56C179.92 342.44 199.58 329.11 217 312.56C233.86 315.09 250.86 315.59 268 314.06C270.53 314.32 272.86 315.16 275 316.56C296.99 333.23 320.32 347.89 345 360.56C338.56 362.95 332.23 365.61 326 368.56C316.29 370.59 306.96 373.42 298 377.06Z" fill="#E48D57"/>
<path fill-rule="evenodd" clip-rule="evenodd" d="M280.999 340.06C277.359 338.24 273.689 336.4 269.999 334.56C250.429 328.13 242.929 334.97 247.499 355.06C253.919 361.17 260.589 361.5 267.499 356.06C270.239 351.43 271.909 346.43 272.499 341.06C275.609 343.53 278.439 343.53 280.999 341.06C285.669 352.04 282.999 360.87 272.999 367.56C268.029 369.02 263.029 370.35 257.999 371.56C246.669 372.23 235.329 372.23 223.999 371.56C214.009 370.32 205.839 365.82 199.499 358.06C194.839 348.11 196.669 339.61 204.999 332.56C209.729 330.09 214.729 328.43 219.999 327.56C234.739 326.65 249.399 327.32 263.999 329.56C271.009 331.06 276.669 334.56 280.999 340.06Z" fill="#FAF9F8"/>
<path fill-rule="evenodd" clip-rule="evenodd" d="M280.998 340.061C280.998 340.391 280.998 340.731 280.998 341.061C278.438 343.531 275.608 343.531 272.498 341.061C271.908 346.431 270.238 351.431 267.498 356.061C260.588 361.501 253.918 361.171 247.498 355.061C242.928 334.971 250.428 328.131 269.998 334.561C273.688 336.401 277.358 338.241 280.998 340.061Z" fill="#090909"/>
<path fill-rule="evenodd" clip-rule="evenodd" d="M212.999 334.061C217.419 333.871 221.749 334.371 225.999 335.561C236.059 345.581 235.059 354.251 222.999 361.561C211.179 362.741 205.339 357.241 205.499 345.061C203.609 347.801 201.109 349.471 197.999 350.061C197.799 347.571 198.299 345.241 199.499 343.061C203.379 338.991 207.879 335.991 212.999 334.061Z" fill="#070707"/>
<path fill-rule="evenodd" clip-rule="evenodd" d="M252 336.06C253.97 335.82 255.8 336.15 257.5 337.06C257.88 340.03 257.38 342.87 256 345.56C248.59 345.1 247.25 341.93 252 336.06Z" fill="#F7F7F7"/>
<path fill-rule="evenodd" clip-rule="evenodd" d="M221 339.06C227.02 339.5 228.52 342.5 225.5 348.06C221.71 350.83 219.21 349.83 218 345.06C218.48 342.76 219.48 340.76 221 339.06Z" fill="#F6F6F6"/>
<path fill-rule="evenodd" clip-rule="evenodd" d="M247 362.06C248 362.06 249 362.06 250 362.06C247.69 372.21 242.69 373.71 235 366.56C235.5 365.4 236.33 364.57 237.5 364.06C241.65 367.38 244.82 366.71 247 362.06Z" fill="#161616"/>
<path fill-rule="evenodd" clip-rule="evenodd" d="M179.999 375.06C178.359 378.86 177.689 382.86 177.999 387.06C177.999 388.73 177.999 390.39 177.999 392.06C183.049 391.94 184.879 394.27 183.499 399.06C181.089 399.83 178.589 400.33 175.999 400.56C173.809 403.77 170.809 404.77 166.999 403.56C164.889 398.88 166.229 395.55 170.999 393.56C170.289 390.4 169.629 387.23 168.999 384.06C170.399 379.97 171.059 375.64 170.999 371.06C171.669 368.22 172.999 365.72 174.999 363.56C179.249 362.52 181.579 364.19 181.999 368.56C181.469 370.79 180.799 372.95 179.999 375.06Z" fill="#050304"/>
<path fill-rule="evenodd" clip-rule="evenodd" d="M297.999 377.06C298.859 380.99 299.189 384.99 298.999 389.06C298.539 394.06 299.539 398.72 301.999 403.06C301.789 407.11 299.789 408.61 295.999 407.56C293.379 404.25 290.039 402.08 285.999 401.06C284.619 397.39 285.949 395.06 289.999 394.06C290.889 393.24 291.219 392.24 290.999 391.06C290.439 386.26 289.769 381.59 288.999 377.06C288.029 374.11 287.869 371.11 288.499 368.06C291.089 366.58 293.429 366.91 295.499 369.06C296.439 371.81 297.279 374.48 297.999 377.06Z" fill="#070407"/>
<path fill-rule="evenodd" clip-rule="evenodd" d="M180.001 375.06C186.081 376.59 192.081 378.42 198.001 380.56C213.491 382.27 228.991 384.11 244.501 386.06C256.361 384.37 268.191 382.54 280.001 380.56C283.531 380.19 286.531 379.02 289.001 377.06C289.771 381.59 290.441 386.26 291.001 391.06C283.061 392.78 275.061 394.12 267.001 395.06C263.491 395.46 260.161 396.13 257.001 397.06C244.971 398.34 232.971 398.01 221.001 396.06C217.501 395.16 213.841 394.49 210.001 394.06C198.891 393.8 188.221 391.47 178.001 387.06C177.691 382.86 178.361 378.86 180.001 375.06Z" fill="#D66E2E"/>
<path fill-rule="evenodd" clip-rule="evenodd" d="M209.999 394.06C213.839 394.49 217.499 395.16 220.999 396.06C219.579 403.85 218.739 411.85 218.499 420.06C213.939 423.68 208.769 424.85 202.999 423.56C199.499 421.06 199.159 418.23 201.999 415.06C204.429 413.83 206.929 412.83 209.499 412.06C209.319 406.02 209.489 400.02 209.999 394.06Z" fill="#020204"/>
<path fill-rule="evenodd" clip-rule="evenodd" d="M267 395.06C267.91 400.67 268.24 406.33 268 412.06C274.83 410.73 277.99 413.4 277.5 420.06C277 420.56 276.5 421.06 276 421.56C271 422.23 266 422.23 261 421.56C260.17 420.73 259.33 419.89 258.5 419.06C258.14 411.71 257.64 404.38 257 397.06C260.16 396.13 263.49 395.46 267 395.06Z" fill="#030306"/>
</svg>
