<svg width="500" height="500" viewBox="0 0 500 500" fill="none" xmlns="http://www.w3.org/2000/svg">
<path fill-rule="evenodd" clip-rule="evenodd" d="M417.999 53.0617C423.069 54.2917 427.569 56.6317 431.499 60.0617C436.559 70.4617 434.389 78.9617 424.999 85.5617C414.719 89.8517 407.389 87.0217 402.999 77.0617C401.669 72.3917 401.669 67.7317 402.999 63.0617C405.329 60.3917 407.669 57.7317 409.999 55.0617C410.109 54.4417 410.439 53.9417 410.999 53.5617C413.309 53.0617 415.639 52.9017 417.999 53.0617Z" fill="#CFE9FE"/>
<path fill-rule="evenodd" clip-rule="evenodd" d="M426.001 59.0616C428.591 59.8116 430.421 61.4816 431.501 64.0616C432.171 68.3916 432.171 72.7316 431.501 77.0616C428.581 80.6516 425.081 83.4816 421.001 85.5616C408.221 86.2516 402.551 80.0916 404.001 67.0616C406.281 70.7616 408.951 74.2616 412.001 77.5616C419.661 80.6216 424.821 78.1216 427.501 70.0616C428.391 66.1616 427.891 62.4916 426.001 59.0616Z" fill="#71BEFE"/>
<path fill-rule="evenodd" clip-rule="evenodd" d="M426 59.062C427.89 62.492 428.39 66.162 427.5 70.062C424.82 78.122 419.66 80.622 412 77.562C408.95 74.262 406.28 70.762 404 67.062C405.6 62.812 407.6 58.812 410 55.062C412.76 53.582 415.42 53.752 418 55.562C414.08 56.342 411.08 58.342 409 61.562C409.14 62.332 409.48 63.002 410 63.562C414.38 63.072 418.71 63.072 423 63.562C425.42 60.652 424.75 58.322 421 56.562C423.17 56.312 424.83 57.142 426 59.062Z" fill="#98D0FE"/>
<path fill-rule="evenodd" clip-rule="evenodd" d="M422 114.062C416.83 116.542 411.5 116.712 406 114.562C402.69 111.462 401.02 107.632 401 103.062C402.09 99.0417 404.09 95.5417 407 92.5617C415.19 89.3917 421.02 91.8917 424.5 100.062C425.69 105.192 424.86 109.862 422 114.062Z" fill="#CDE7FE"/>
<path fill-rule="evenodd" clip-rule="evenodd" d="M416.999 95.0614C417.399 94.0314 418.059 93.8714 418.999 94.5614C422.779 99.4214 423.949 104.921 422.499 111.061C417.829 114.641 412.659 115.481 406.999 113.561C402.679 109.451 402.009 104.951 404.999 100.061C408.639 101.081 412.309 101.581 415.999 101.561C419.409 99.6514 419.749 97.4814 416.999 95.0614Z" fill="#8DCCFD"/>
<path fill-rule="evenodd" clip-rule="evenodd" d="M398 124.061C399.04 132.681 395.37 138.011 387 140.061C378.78 138.981 375.45 134.311 377 126.061C378.09 123.801 379.76 121.971 382 120.561C388.36 117.721 393.7 118.881 398 124.061Z" fill="#C6E5FE"/>
<path fill-rule="evenodd" clip-rule="evenodd" d="M382.999 121.061C384.369 120.901 385.709 121.071 386.999 121.561C385.419 122.271 383.919 123.101 382.499 124.061C381.829 125.061 381.829 126.061 382.499 127.061C385.199 127.901 387.869 128.901 390.499 130.061C393.979 129.581 395.649 127.581 395.499 124.061C397.399 128.951 396.229 133.111 391.999 136.561C381.889 139.461 377.719 135.621 379.499 125.061C380.879 123.851 382.039 122.521 382.999 121.061Z" fill="#89C8FE"/>
<path fill-rule="evenodd" clip-rule="evenodd" d="M359 249.062C353.2 264.442 347.2 279.782 341 295.062C339.45 298.332 337.78 301.662 336 305.062C334.67 308.062 333.33 311.062 332 314.062C330.18 315.682 328.85 317.682 328 320.062C325.68 323.362 323.35 326.692 321 330.062C319.67 332.062 318 333.732 316 335.062C313.32 337.772 310.66 340.442 308 343.062C302.57 345.972 297.24 349.142 292 352.562C288.07 354.042 284.07 355.202 280 356.062C255.32 358.782 233.65 351.942 215 335.562C208.26 335.892 201.93 334.562 196 331.562C192.55 328.502 190.88 324.662 191 320.062C191.52 316.682 192.86 313.682 195 311.062C207.9 299.912 222.9 295.412 240 297.562C243.69 298.402 247.02 299.902 250 302.062C251.42 303.482 252.42 305.152 253 307.062C253.27 309.682 252.94 312.182 252 314.562C267.27 323.962 280.27 321.462 291 307.062C294.51 304.202 296.84 300.542 298 296.062C303 288.382 306.67 280.052 309 271.062C312.47 262.312 315.14 253.312 317 244.062C321.31 232.952 323.31 221.282 323 209.062C323 204.732 323 200.392 323 196.062C323.98 178.322 325.82 160.662 328.5 143.062C333.27 138.232 339.11 136.232 346 137.062C352.72 136.872 359.05 138.202 365 141.062C367.22 146.672 368.22 152.512 368 158.562C367.48 185.012 364.48 211.182 359 237.062C360.33 241.072 360.33 245.072 359 249.062Z" fill="#FE8F35"/>
<path fill-rule="evenodd" clip-rule="evenodd" d="M341 144.062C347.36 144.042 353.53 145.042 359.5 147.062C360.87 176.442 358.2 205.442 351.5 234.062C344.39 231.932 337.22 229.932 330 228.062C330.68 205.702 331.85 183.362 333.5 161.062C334.35 157.092 335.02 153.092 335.5 149.062C336.61 146.452 338.44 144.782 341 144.062Z" fill="#FFC64D"/>
<path fill-rule="evenodd" clip-rule="evenodd" d="M272 175.062C266.99 173.792 261.99 173.792 257 175.062C239.99 166.952 221.99 163.452 203 164.562C178.72 165.542 156.38 172.542 136 185.562C128.55 193.012 121.05 200.512 113.5 208.062C111.8 210.142 110.63 212.472 110 215.062C105.36 219.032 101.03 223.372 97 228.062C95.88 226.272 95.71 224.272 96.5 222.062C99.17 217.392 101.83 212.732 104.5 208.062C115.89 192.662 129.73 180.162 146 170.562C180.84 154.952 216.51 152.952 253 164.562C260.01 167.062 266.34 170.562 272 175.062Z" fill="#D9D8D7"/>
<path fill-rule="evenodd" clip-rule="evenodd" d="M257 175.062C225.96 176.512 195.3 180.682 165 187.562C145.25 194.102 126.91 203.272 110 215.062C110.63 212.472 111.8 210.142 113.5 208.062C121.05 200.512 128.55 193.012 136 185.562C156.38 172.542 178.72 165.542 203 164.562C221.99 163.452 239.99 166.952 257 175.062Z" fill="#FCFDFE"/>
<path fill-rule="evenodd" clip-rule="evenodd" d="M272 175.062C273 175.062 274 175.062 275 175.062C282.78 174.852 290.45 175.682 298 177.562C307.34 182.402 315.67 188.572 323 196.062C323 200.392 323 204.732 323 209.062C315.71 198.612 306.38 190.442 295 184.562C252.49 181.162 210.49 184.502 169 194.562C139.85 202.092 115.68 217.262 96.5004 240.062C93.5404 246.972 90.2004 253.642 86.5004 260.062C78.0604 291.002 88.2304 312.842 117 325.562C142.89 333.202 166.56 328.872 188 312.562C190.24 311.582 192.57 311.082 195 311.062C192.86 313.682 191.52 316.682 191 320.062C162.59 340.082 132.93 342.422 102 327.062C99.9704 325.042 97.6404 323.372 95.0004 322.062C81.2604 309.512 75.2604 293.842 77.0004 275.062C77.9304 256.882 84.5904 241.222 97.0004 228.062C101.03 223.372 105.36 219.032 110 215.062C126.91 203.272 145.25 194.102 165 187.562C195.3 180.682 225.96 176.512 257 175.062C261.99 173.792 266.99 173.792 272 175.062Z" fill="#3E55DE"/>
<path fill-rule="evenodd" clip-rule="evenodd" d="M323 209.061C323.31 221.281 321.31 232.951 317 244.061C315.86 219.411 303.19 204.241 279 198.561C258.99 196.741 238.99 197.071 219 199.561C199.84 202.931 180.84 206.931 162 211.561C143.45 217.251 126.95 226.411 112.5 239.061C109.25 243.221 106.25 247.551 103.5 252.061C99.8398 266.891 100.51 281.561 105.5 296.061C114.66 313.211 128.83 319.381 148 314.561C156.4 313.091 164.4 310.431 172 306.561C181.33 300.561 190.67 294.561 200 288.561C203.45 286.631 207.11 285.301 211 284.561C235 284.721 259 284.721 283 284.561C288.06 283.051 293.06 281.381 298 279.561C301.73 276.611 304.9 273.111 307.5 269.061C307.78 269.981 308.28 270.641 309 271.061C306.67 280.051 303 288.381 298 296.061C283.66 302.301 268.83 303.971 253.5 301.061C252.12 301.071 250.95 301.411 250 302.061C247.02 299.901 243.69 298.401 240 297.561C222.9 295.411 207.9 299.911 195 311.061C192.57 311.081 190.24 311.581 188 312.561C166.56 328.871 142.89 333.201 117 325.561C88.2298 312.841 78.0598 291.001 86.4998 260.061C90.1998 253.641 93.5398 246.971 96.4998 240.061C115.68 217.261 139.85 202.091 169 194.561C210.49 184.501 252.49 181.161 295 184.561C306.38 190.441 315.71 198.611 323 209.061Z" fill="#4169E0"/>
<path fill-rule="evenodd" clip-rule="evenodd" d="M316.999 244.062C315.139 253.312 312.469 262.312 308.999 271.062C308.279 270.642 307.779 269.982 307.499 269.062C304.899 273.112 301.729 276.612 297.999 279.562C293.059 281.382 288.059 283.052 282.999 284.562C258.999 284.722 234.999 284.722 210.999 284.562C207.109 285.302 203.449 286.632 199.999 288.562C190.669 294.562 181.329 300.562 171.999 306.562C164.399 310.432 156.399 313.092 147.999 314.562C128.829 319.382 114.659 313.212 105.499 296.062C100.509 281.562 99.8387 266.892 103.499 252.062C106.249 247.552 109.249 243.222 112.499 239.062C126.949 226.412 143.449 217.252 161.999 211.562C180.839 206.932 199.839 202.932 218.999 199.562C238.989 197.072 258.989 196.742 278.999 198.562C303.189 204.242 315.859 219.412 316.999 244.062Z" fill="#3F56DF"/>
<path fill-rule="evenodd" clip-rule="evenodd" d="M270 209.061C268.95 208.911 267.95 209.081 267 209.561C275.25 217.811 284.08 225.311 293.5 232.061C293.9 231.831 294.07 231.501 294 231.061C295.53 233.191 296.2 235.691 296 238.561C294.71 249.511 291.87 260.011 287.5 270.061C286.46 271.271 285.29 272.271 284 273.061C275.84 265.071 267.5 257.231 259 249.561C257.1 248.141 255.1 246.971 253 246.061C255.55 242.611 256.55 238.611 256 234.061C257.84 223.401 253.5 218.901 243 220.561C240.47 223.591 237.47 226.091 234 228.061C231.98 227.031 229.98 226.031 228 225.061C231.81 219.751 236.15 214.911 241 210.561C250.7 208.021 260.37 207.521 270 209.061Z" fill="#A6997C"/>
<path fill-rule="evenodd" clip-rule="evenodd" d="M291 211.062C284 210.392 277 209.732 270 209.062C260.37 207.522 250.7 208.022 241 210.562C236.15 214.912 231.81 219.752 228 225.062C226.23 230.922 225.23 236.922 225 243.062C213.8 233.932 203.13 224.102 193 213.562C193.92 213.282 194.58 212.782 195 212.062C220.7 206.662 246.7 204.492 273 205.562C279.31 206.802 285.31 208.632 291 211.062Z" fill="#FDE9BE"/>
<path fill-rule="evenodd" clip-rule="evenodd" d="M270 209.062C277 209.732 284 210.392 291 211.062C298.52 215.582 303.86 221.912 307 230.062C302.26 228.932 297.6 227.592 293 226.062C293.13 227.782 293.46 229.442 294 231.062C294.07 231.502 293.9 231.832 293.5 232.062C284.08 225.312 275.25 217.812 267 209.562C267.95 209.082 268.95 208.912 270 209.062Z" fill="#675020"/>
<path fill-rule="evenodd" clip-rule="evenodd" d="M195 212.062C194.58 212.782 193.92 213.282 193 213.562C203.13 224.102 213.8 233.932 225 243.062C225 243.392 225 243.732 225 244.062C225.5 255.882 229.16 266.552 236 276.062C233.33 276.062 230.67 276.062 228 276.062C214.53 263.432 200.86 250.932 187 238.562C180.09 232.162 173.76 225.322 168 218.062C176.77 215.142 185.77 213.142 195 212.062Z" fill="#FEF1D4"/>
<path fill-rule="evenodd" clip-rule="evenodd" d="M168 218.062C173.76 225.322 180.09 232.162 187 238.562C200.86 250.932 214.53 263.432 228 276.062C220.64 276.122 213.31 276.622 206 277.562C199.53 280.552 193.2 283.722 187 287.062C188.2 283.472 189.2 279.802 190 276.062C191.06 274.962 191.89 273.632 192.5 272.062C193.31 267.872 193.15 263.872 192 260.062C189.63 253.502 185.8 247.832 180.5 243.062C178.13 235.532 172.96 231.532 165 231.062C157.63 229.952 150.3 230.282 143 232.062C140.94 232.252 138.94 232.752 137 233.562C130.96 236.242 125.29 239.412 120 243.062C125.56 237.602 131.9 233.102 139 229.562C148.46 225.162 158.13 221.332 168 218.062Z" fill="#FCE8BC"/>
<path fill-rule="evenodd" clip-rule="evenodd" d="M253 246.061C248.96 248.081 244.63 248.581 240 247.561C237.2 245.061 234.7 242.221 232.5 239.061C231.74 235.201 232.24 231.541 234 228.061C237.47 226.091 240.47 223.591 243 220.561C253.5 218.901 257.84 223.401 256 234.061C256.55 238.611 255.55 242.611 253 246.061Z" fill="#FCECCA"/>
<path fill-rule="evenodd" clip-rule="evenodd" d="M143 232.062C144.05 231.912 145.05 232.082 146 232.562C149.57 236.622 152.9 240.792 156 245.062C148.35 254.952 149.68 263.452 160 270.562C165.61 271.652 170.11 269.822 173.5 265.062C173.98 264.112 174.15 263.112 174 262.062C179.04 267.102 184.37 271.772 190 276.062C189.2 279.802 188.2 283.472 187 287.062C175.76 296.842 162.76 303.182 148 306.062C135.42 301.982 126.92 293.652 122.5 281.062C121.56 275.752 120.72 270.422 120 265.062C116.56 269.612 112.9 273.942 109 278.062C106.29 264.202 109.96 252.532 120 243.062C125.29 239.412 130.96 236.242 137 233.562C138.94 232.752 140.94 232.252 143 232.062Z" fill="#664F1F"/>
<path fill-rule="evenodd" clip-rule="evenodd" d="M165 231.062C172.96 231.532 178.13 235.532 180.5 243.062C185.8 247.832 189.63 253.502 192 260.062C181.84 251.742 172.18 242.242 163 231.562C163.59 231.102 164.26 230.932 165 231.062Z" fill="#6B5424"/>
<path fill-rule="evenodd" clip-rule="evenodd" d="M228 225.062C229.98 226.032 231.98 227.032 234 228.062C232.24 231.542 231.74 235.202 232.5 239.062C234.7 242.222 237.2 245.062 240 247.562C244.63 248.582 248.96 248.082 253 246.062C255.1 246.972 257.1 248.142 259 249.562C267.5 257.232 275.84 265.072 284 273.062C282.97 274.752 281.64 276.092 280 277.062C277.74 277.782 275.4 278.112 273 278.062C268.85 277.242 264.52 276.742 260 276.562C248.46 265.522 236.8 254.692 225 244.062C225 243.732 225 243.392 225 243.062C225.23 236.922 226.23 230.922 228 225.062Z" fill="#675020"/>
<path fill-rule="evenodd" clip-rule="evenodd" d="M307 230.062C308.84 233.082 309.34 236.412 308.5 240.062C307.63 251.132 303.96 261.132 297.5 270.062C292.36 273.982 286.53 276.312 280 277.062C281.64 276.092 282.97 274.752 284 273.062C285.29 272.272 286.46 271.272 287.5 270.062C291.87 260.012 294.71 249.512 296 238.562C296.2 235.692 295.53 233.192 294 231.062C293.46 229.442 293.13 227.782 293 226.062C297.6 227.592 302.26 228.932 307 230.062Z" fill="#FBEECE"/>
<path fill-rule="evenodd" clip-rule="evenodd" d="M174 262.061C174.15 263.111 173.98 264.111 173.5 265.061C170.11 269.821 165.61 271.651 160 270.561C149.68 263.451 148.35 254.951 156 245.061C163.92 238.841 170.42 240.171 175.5 249.061C176.35 253.591 175.85 257.921 174 262.061Z" fill="#FAE6BB"/>
<path fill-rule="evenodd" clip-rule="evenodd" d="M165 231.061C164.26 230.931 163.59 231.101 163 231.561C172.18 242.241 181.84 251.741 192 260.061C193.15 263.871 193.31 267.871 192.5 272.061C191.89 273.631 191.06 274.961 190 276.061C184.37 271.771 179.04 267.101 174 262.061C175.85 257.921 176.35 253.591 175.5 249.061C170.42 240.171 163.92 238.841 156 245.061C152.9 240.791 149.57 236.621 146 232.561C145.05 232.081 144.05 231.911 143 232.061C150.3 230.281 157.63 229.951 165 231.061Z" fill="#A6997C"/>
<path fill-rule="evenodd" clip-rule="evenodd" d="M225 244.062C236.8 254.692 248.46 265.522 260 276.562C264.52 276.742 268.85 277.242 273 278.062C260.59 278.442 248.26 277.782 236 276.062C229.16 266.552 225.5 255.882 225 244.062Z" fill="#A3967A"/>
<path fill-rule="evenodd" clip-rule="evenodd" d="M148 306.062C124.58 311.682 111.58 302.342 109 278.062C112.9 273.942 116.56 269.612 120 265.062C120.72 270.422 121.56 275.752 122.5 281.062C126.92 293.652 135.42 301.982 148 306.062Z" fill="#F8E4B5"/>
<path fill-rule="evenodd" clip-rule="evenodd" d="M315.001 278.062C321.841 281.122 328.841 283.782 336.001 286.062C329.391 304.462 319.391 320.632 306.001 334.562C285.451 350.832 263.121 353.502 239.001 342.562C228.581 337.612 220.081 330.442 213.501 321.062C212.391 319.162 212.221 317.332 213.001 315.562C220.311 311.722 227.971 309.392 236.001 308.562C246.331 325.052 260.991 331.052 280.001 326.562C288.411 321.482 295.581 314.982 301.501 307.062C306.541 297.642 311.041 287.982 315.001 278.062Z" fill="#FFC64D"/>
<path fill-rule="evenodd" clip-rule="evenodd" d="M316 335.062C318 333.732 319.67 332.062 321 330.062C324.73 333.122 328.73 335.792 333 338.062C345.6 330.282 357.77 321.952 369.5 313.062C371.71 310.422 372.21 307.592 371 304.562C365.29 304.602 359.62 304.932 354 305.562C352.21 303.782 350.54 301.952 349 300.062C347.69 300.872 346.52 301.872 345.5 303.062C346.85 312.682 342.85 319.022 333.5 322.062C331.49 321.802 329.66 321.142 328 320.062C328.85 317.682 330.18 315.682 332 314.062C337.37 312.462 338.71 309.462 336 305.062C337.78 301.662 339.45 298.332 341 295.062C340.93 295.502 341.1 295.832 341.5 296.062C343.64 294.072 346.14 292.742 349 292.062C352.96 293.042 356.29 295.042 359 298.062C366.21 294.772 372.71 295.772 378.5 301.062C380.79 310.192 377.95 317.362 370 322.562C359.33 329.892 348.67 337.232 338 344.562C333.91 345.332 329.91 344.992 326 343.562C322.48 340.862 319.14 338.032 316 335.062Z" fill="#D8D7D7"/>
<path fill-rule="evenodd" clip-rule="evenodd" d="M298 296.062C296.84 300.542 294.51 304.202 291 307.062C279.5 309.872 267.83 310.712 256 309.562C254.81 308.862 253.81 308.032 253 307.062C252.42 305.152 251.42 303.482 250 302.062C250.95 301.412 252.12 301.072 253.5 301.062C268.83 303.972 283.66 302.302 298 296.062Z" fill="#3D54DF"/>
<path fill-rule="evenodd" clip-rule="evenodd" d="M321 330.062C323.35 326.692 325.68 323.362 328 320.062C329.66 321.142 331.49 321.802 333.5 322.062C342.85 319.022 346.85 312.682 345.5 303.062C346.52 301.872 347.69 300.872 349 300.062C350.54 301.952 352.21 303.782 354 305.562C359.62 304.932 365.29 304.602 371 304.562C372.21 307.592 371.71 310.422 369.5 313.062C357.77 321.952 345.6 330.282 333 338.062C328.73 335.792 324.73 333.122 321 330.062Z" fill="#FEFEFD"/>
<path fill-rule="evenodd" clip-rule="evenodd" d="M253 307.062C253.81 308.032 254.81 308.862 256 309.562C267.83 310.712 279.5 309.872 291 307.062C280.27 321.462 267.27 323.962 252 314.562C252.94 312.182 253.27 309.682 253 307.062Z" fill="#FAF8FA"/>
<path fill-rule="evenodd" clip-rule="evenodd" d="M336 305.062C338.71 309.462 337.37 312.462 332 314.062C333.33 311.062 334.67 308.062 336 305.062Z" fill="#409EF8"/>
<path fill-rule="evenodd" clip-rule="evenodd" d="M191 320.062C190.88 324.662 192.55 328.502 196 331.562C201.93 334.562 208.26 335.892 215 335.562C233.65 351.942 255.32 358.782 280 356.062C279.8 362.072 279.47 368.072 279 374.062C278.01 378.872 277.68 383.872 278 389.062C277.21 388.782 276.54 388.282 276 387.562C267.94 387.162 259.94 386.332 252 385.062C252.71 384.162 253.71 383.822 255 384.062C255.56 377.062 255.73 370.062 255.5 363.062C252.16 360.242 248.33 359.412 244 360.562C222.42 366.602 200.42 369.602 178 369.562C174.4 378.952 171.4 388.622 169 398.562C168.66 399.592 168 400.092 167 400.062C162.55 398.672 158.22 397.002 154 395.062C157.62 385.112 159.79 374.772 160.5 364.062C154.8 361.162 148.97 358.322 143 355.562C134.71 349.612 126.71 343.272 119 336.562C116.86 335.932 114.86 336.262 113 337.562C109.43 342.802 106.27 348.302 103.5 354.062C103.55 358.312 103.38 362.482 103 366.562C99.0295 366.232 95.0295 366.232 90.9995 366.562C87.5495 367.792 84.2095 369.292 80.9995 371.062C78.8595 369.962 76.6895 368.962 74.4995 368.062C73.7895 365.592 74.1295 363.262 75.4995 361.062C77.3295 359.232 79.1695 357.392 80.9995 355.562C84.5895 355.002 87.9295 353.832 90.9995 352.062C94.4795 343.612 98.1495 335.282 102 327.062C132.93 342.422 162.59 340.082 191 320.062Z" fill="#FCFCFC"/>
<path fill-rule="evenodd" clip-rule="evenodd" d="M94.9989 322.062C97.6389 323.372 99.9689 325.042 101.999 327.062C98.1489 335.282 94.4789 343.612 90.9989 352.062C87.9289 353.832 84.5889 355.002 80.9989 355.562C79.1689 357.392 77.3289 359.232 75.4989 361.062C74.1289 363.262 73.7889 365.592 74.4989 368.062C76.6889 368.962 78.8589 369.962 80.9989 371.062C84.2089 369.292 87.5489 367.792 90.9989 366.562C95.0289 366.232 99.0289 366.232 102.999 366.562C103.379 362.482 103.549 358.312 103.499 354.062C106.269 348.302 109.429 342.802 112.999 337.562C114.859 336.262 116.859 335.932 118.999 336.562C126.709 343.272 134.709 349.612 142.999 355.562C148.969 358.322 154.799 361.162 160.499 364.062C159.789 374.772 157.619 385.112 153.999 395.062C152.459 394.262 150.789 393.932 148.999 394.062C148.359 393.462 148.029 392.632 147.999 391.562C148.749 388.402 149.419 385.232 149.999 382.062C150.499 378.382 151.169 374.712 151.999 371.062C151.669 370.062 151.329 369.062 150.999 368.062C138.599 362.152 127.429 354.482 117.499 345.062C112.139 350.432 110.299 356.772 111.999 364.062C111.569 368.572 109.569 372.072 105.999 374.562C101.319 374.722 96.6489 374.722 91.9989 374.562C89.3289 375.232 86.9889 376.402 84.9989 378.062C68.6989 378.812 63.3689 371.812 68.9989 357.062C72.9589 351.412 78.2889 347.752 84.9989 346.062C86.7389 341.592 88.7389 337.262 90.9989 333.062C92.3289 329.402 93.6689 325.732 94.9989 322.062Z" fill="#D8D8D7"/>
<path fill-rule="evenodd" clip-rule="evenodd" d="M252 385.061C250.38 384.521 248.72 384.191 247 384.061C248.12 378.481 248.28 372.811 247.5 367.061C236.09 370.571 224.59 373.241 213 375.061C202.97 375.681 192.97 376.681 183 378.061C180.22 385.531 178.22 393.201 177 401.061C176.16 401.401 175.83 402.071 176 403.061C172.84 402.231 169.84 401.231 167 400.061C168 400.091 168.66 399.591 169 398.561C171.4 388.621 174.4 378.951 178 369.561C200.42 369.601 222.42 366.601 244 360.561C248.33 359.411 252.16 360.241 255.5 363.061C255.73 370.061 255.56 377.061 255 384.061C253.71 383.821 252.71 384.161 252 385.061Z" fill="#D9D8D7"/>
<path fill-rule="evenodd" clip-rule="evenodd" d="M247 384.062C248.72 384.192 250.38 384.522 252 385.062C259.94 386.332 267.94 387.162 276 387.562C276.54 388.282 277.21 388.782 278 389.062C279.69 401.512 282.02 413.852 285 426.062C285.24 428.032 284.91 429.862 284 431.562C281.33 432.232 278.67 432.232 276 431.562C273.49 430.222 270.82 429.392 268 429.062C263.87 430.292 260.2 432.292 257 435.062C255.2 434.982 253.53 434.482 252 433.562C248.72 429.402 244.72 427.902 240 429.062C236.88 430.732 234.04 430.402 231.5 428.062C231.5 424.362 232 420.702 233 417.062C234.6 414.012 235.6 410.682 236 407.062C237.65 403.142 239.31 399.142 241 395.062C242.32 392.152 243.48 389.152 244.5 386.062C245.21 385.182 246.04 384.512 247 384.062Z" fill="#3E56DE"/>
<path fill-rule="evenodd" clip-rule="evenodd" d="M250 393.062C256.85 393.922 263.51 394.592 270 395.062C272.55 404.322 274.39 413.652 275.5 423.062C268.43 419.702 262.1 420.702 256.5 426.062C253.27 424.362 250.1 422.532 247 420.562C245.03 420.062 243.03 419.902 241 420.062C243.14 410.782 246.14 401.782 250 393.062Z" fill="#4169E0"/>
<path fill-rule="evenodd" clip-rule="evenodd" d="M149 394.062C150.79 393.932 152.46 394.262 154 395.062C158.22 397.002 162.55 398.672 167 400.062C169.84 401.232 172.84 402.232 176 403.062C176.49 404.032 176.99 405.032 177.5 406.062C178.31 419.472 178.15 432.802 177 446.062C175.1 447.072 173.1 447.242 171 446.562C167.68 444.322 164.18 442.482 160.5 441.062C157.65 441.912 155.15 443.412 153 445.562C151.71 446.052 150.37 446.222 149 446.062C148.33 445.292 147.49 444.632 146.5 444.062C145.87 438.952 143.37 435.122 139 432.562C135.28 432.602 131.61 432.932 128 433.562C125.81 430.872 125.81 428.032 128 425.062C135.42 414.982 142.42 404.642 149 394.062Z" fill="#3E55DE"/>
<path fill-rule="evenodd" clip-rule="evenodd" d="M151 403.062C157.44 404.782 163.77 406.782 170 409.062C170.33 418.082 170 427.082 169 436.062C163.46 432.112 157.96 432.112 152.5 436.062C149.25 430.192 144.41 426.362 138 424.562C143.38 418.022 147.71 410.852 151 403.062Z" fill="#4169E0"/>
</svg>
