<svg width="500" height="500" viewBox="0 0 500 500" fill="none" xmlns="http://www.w3.org/2000/svg">
<path fill-rule="evenodd" clip-rule="evenodd" d="M333.001 315.062C330.831 313.792 328.661 313.792 326.501 315.062C325.441 318.362 324.601 321.692 324.001 325.062C321.691 328.032 319.031 330.702 316.001 333.062C312.611 332.032 309.941 330.032 308.001 327.062C337.541 296.022 366.211 264.192 394.001 231.562C375.851 238.632 357.851 246.302 340.001 254.562C343.911 282.742 333.241 303.402 308.001 316.562C305.351 317.502 302.681 318.332 300.001 319.062C295.951 316.632 295.291 313.632 298.001 310.062C322.961 303.242 334.461 286.572 332.501 260.062C331.651 257.712 330.821 255.372 330.001 253.062C334.741 253.402 336.071 251.402 334.001 247.062C327.801 244.792 322.131 241.792 317.001 238.062C301.491 226.222 283.821 220.562 264.001 221.062C240.101 220.992 217.441 226.152 196.001 236.562C186.591 242.132 179.931 249.962 176.001 260.062C175.091 262.162 173.921 264.162 172.501 266.062C171.831 268.732 171.831 271.392 172.501 274.062C172.881 274.622 173.381 274.952 174.001 275.062C175.221 292.782 184.221 304.622 201.001 310.562C206.321 312.172 211.661 313.672 217.001 315.062C217.961 316.282 217.801 317.612 216.501 319.062C214.111 322.522 211.281 325.522 208.001 328.062C207.951 325.462 206.951 323.292 205.001 321.562C192.271 316.292 181.441 308.452 172.501 298.062C163.931 285.002 162.761 271.332 169.001 257.062C144.111 244.622 119.451 231.622 95.0005 218.062C93.9805 218.562 93.8105 219.232 94.5005 220.062C102.831 229.062 111.171 238.062 119.501 247.062C132.501 264.062 145.501 281.062 158.501 298.062C170.171 311.892 182.001 325.562 194.001 339.062C191.811 341.322 189.151 342.152 186.001 341.562C181.571 336.032 177.901 330.032 175.001 323.562C172.461 321.472 170.121 321.642 168.001 324.062C161.951 317.652 156.121 310.992 150.501 304.062C130.651 276.872 109.321 250.872 86.5005 226.062C83.3305 221.722 80.6605 217.052 78.5005 212.062C77.8305 207.732 77.8305 203.392 78.5005 199.062C85.3505 186.012 93.6905 174.012 103.501 163.062C109.501 153.732 115.501 144.392 121.501 135.062C125.301 130.262 129.471 125.762 134.001 121.562C149.301 113.912 164.641 106.242 180.001 98.5615C184.431 96.4215 189.101 95.0815 194.001 94.5615C203.831 94.0815 213.671 93.5815 223.501 93.0615C248.991 93.8015 274.491 94.3015 300.001 94.5615C307.781 95.4915 315.121 97.8215 322.001 101.562C329.971 105.542 337.971 109.542 346.001 113.562C353.401 118.622 361.071 123.292 369.001 127.562C373.201 131.432 377.031 135.592 380.501 140.062C392.681 161.102 406.351 181.102 421.501 200.062C423.651 205.682 422.981 211.012 419.501 216.062C409.351 227.692 399.691 239.692 390.501 252.062C371.501 273.232 352.331 294.232 333.001 315.062Z" fill="#5FAAE9"/>
<path fill-rule="evenodd" clip-rule="evenodd" d="M214 103.062C239.34 102.892 264.67 103.062 290 103.562C294.99 104.312 299.99 104.982 305 105.562C325.32 113.222 344.32 123.222 362 135.562C351.06 148.502 339.4 160.832 327 172.562C302.93 177.082 278.93 181.912 255 187.062C228.66 181.892 202.33 176.562 176 171.062C163.4 158.112 151.4 144.442 140 130.062C156.73 121.862 173.4 113.362 190 104.562C198.18 104.392 206.18 103.892 214 103.062Z" fill="#B2E4FB"/>
<path fill-rule="evenodd" clip-rule="evenodd" d="M132 138.062C135.96 141.522 139.8 145.192 143.5 149.062C147.96 155.182 152.79 161.022 158 166.562C136.65 174.652 115.48 183.152 94.5 192.062C99.23 183.952 104.9 176.292 111.5 169.062C117.85 158.362 124.68 148.022 132 138.062Z" fill="#E1F5FD"/>
<path fill-rule="evenodd" clip-rule="evenodd" d="M369 143.062C379.53 157.082 389.36 171.752 398.5 187.062C401.73 190.912 404.4 194.912 406.5 199.062C384.35 190.562 362.18 182.062 340 173.562C350.24 163.832 359.9 153.662 369 143.062Z" fill="#0388D1"/>
<path fill-rule="evenodd" clip-rule="evenodd" d="M161 176.062C163.85 176.372 165.35 178.042 165.5 181.062C169.41 200.622 173.58 220.122 178 239.562C177.21 242.632 175.54 245.132 173 247.062C145.23 233.672 117.89 219.512 91 204.562C94.79 202.182 98.79 200.182 103 198.562C122.53 191.282 141.87 183.782 161 176.062Z" fill="#80D3F9"/>
<path fill-rule="evenodd" clip-rule="evenodd" d="M320 183.061C321.79 182.771 323.45 183.111 325 184.061C320.33 197.071 315.66 210.071 311 223.061C299.73 217.171 287.73 214.001 275 213.561C270.67 207.891 266.33 202.231 262 196.561C281.45 192.031 300.78 187.531 320 183.061Z" fill="#E0F4FD"/>
<path fill-rule="evenodd" clip-rule="evenodd" d="M336 183.062C360.34 192.122 384.68 201.292 409 210.562C401.2 214.632 393.54 218.962 386 223.562C368.76 230.582 351.76 238.082 335 246.062C330.4 240.122 325.4 234.462 320 229.062C325.03 213.602 330.36 198.272 336 183.062Z" fill="#81D4FA"/>
<path fill-rule="evenodd" clip-rule="evenodd" d="M250 199.062C253.8 203.032 257.47 207.202 261 211.562C253.64 212.852 246.31 213.852 239 214.562C242.89 209.512 246.55 204.352 250 199.062Z" fill="#B2EBF2"/>
<path fill-rule="evenodd" clip-rule="evenodd" d="M208 328.062C203.93 332.462 199.27 336.132 194 339.062C182 325.562 170.17 311.892 158.5 298.062C145.5 281.062 132.5 264.062 119.5 247.062C111.17 238.062 102.83 229.062 94.4998 220.062C93.8098 219.232 93.9798 218.562 94.9998 218.062C119.45 231.622 144.11 244.622 169 257.062C162.76 271.332 163.93 285.002 172.5 298.062C181.44 308.452 192.27 316.292 205 321.562C206.95 323.292 207.95 325.462 208 328.062Z" fill="#1E87E4"/>
<path fill-rule="evenodd" clip-rule="evenodd" d="M317 238.062C307.62 236.022 298.12 234.682 288.5 234.062C277.97 233.902 270.97 238.902 267.5 249.062C264.62 260.262 265.95 270.932 271.5 281.062C280.31 287.952 290.15 289.792 301 286.562C305.78 284.112 309.62 280.612 312.5 276.062C314.17 270.732 315.83 265.392 317.5 260.062C317.61 256.382 317.61 252.722 317.5 249.062C321.17 251.982 325.34 253.312 330 253.062C330.82 255.372 331.65 257.712 332.5 260.062C334.46 286.572 322.96 303.242 298 310.062C300.7 302.752 298.37 300.092 291 302.062C289.14 304.082 287.48 306.252 286 308.562C283 309.302 280.33 310.462 278 312.062C277.1 312.772 276.76 313.772 277 315.062C264.65 315.522 252.32 316.192 240 317.062C240.2 315.172 239.54 313.672 238 312.562C232.71 314.292 228.37 312.962 225 308.562C218.75 305.962 216.08 308.132 217 315.062C211.66 313.672 206.32 312.172 201 310.562C184.22 304.622 175.22 292.782 174 275.062C176.15 275.192 178.15 274.692 180 273.562C182.46 270.102 185.3 266.932 188.5 264.062C188.07 268.012 188.07 272.012 188.5 276.062C193.87 294.492 205.7 300.992 224 295.562C235.55 288.252 241.05 277.752 240.5 264.062C238.66 260.382 236.33 257.042 233.5 254.062C232.3 247.192 228.13 243.362 221 242.562C203.12 241.172 188.12 247.002 176 260.062C179.93 249.962 186.59 242.132 196 236.562C217.44 226.152 240.1 220.992 264 221.062C283.82 220.562 301.49 226.222 317 238.062Z" fill="#FBFBFC"/>
<path fill-rule="evenodd" clip-rule="evenodd" d="M316.999 238.061C322.129 241.791 327.799 244.791 333.999 247.061C336.069 251.401 334.739 253.401 329.999 253.061C325.339 253.311 321.169 251.981 317.499 249.061C317.609 252.721 317.609 256.381 317.499 260.061C315.829 265.391 314.169 270.731 312.499 276.061C309.619 280.611 305.779 284.111 300.999 286.561C290.149 289.791 280.309 287.951 271.499 281.061C265.949 270.931 264.619 260.261 267.499 249.061C270.969 238.901 277.969 233.901 288.499 234.061C298.119 234.681 307.619 236.021 316.999 238.061Z" fill="#040404"/>
<path fill-rule="evenodd" clip-rule="evenodd" d="M308 327.062C305 324.732 302.33 322.062 300 319.062C302.68 318.332 305.35 317.502 308 316.562C333.24 303.402 343.91 282.742 340 254.562C357.85 246.302 375.85 238.632 394 231.562C366.21 264.192 337.54 296.022 308 327.062Z" fill="#B2E4FB"/>
<path fill-rule="evenodd" clip-rule="evenodd" d="M280.001 241.061C284.091 240.261 287.261 241.601 289.501 245.061C289.741 249.411 289.401 253.741 288.501 258.061C282.491 263.771 277.161 263.111 272.501 256.061C271.831 253.731 271.831 251.391 272.501 249.061C274.891 246.281 277.391 243.621 280.001 241.061Z" fill="#F5F5F5"/>
<path fill-rule="evenodd" clip-rule="evenodd" d="M174.001 275.061C173.381 274.951 172.881 274.621 172.501 274.061C171.831 271.391 171.831 268.731 172.501 266.061C173.921 264.161 175.091 262.161 176.001 260.061C188.121 247.001 203.121 241.171 221.001 242.561C228.131 243.361 232.301 247.191 233.501 254.061C236.331 257.041 238.661 260.381 240.501 264.061C241.051 277.751 235.551 288.251 224.001 295.561C205.701 300.991 193.871 294.491 188.501 276.061C188.071 272.011 188.071 268.011 188.501 264.061C185.301 266.931 182.461 270.101 180.001 273.561C178.151 274.691 176.151 275.191 174.001 275.061Z" fill="#040404"/>
<path fill-rule="evenodd" clip-rule="evenodd" d="M220.001 250.062C226.141 250.532 229.141 253.862 229.001 260.062C229.061 266.582 226.061 270.912 220.001 273.062C211.001 268.892 209.171 262.552 214.501 254.062C216.311 252.582 218.151 251.252 220.001 250.062Z" fill="#F4F4F4"/>
<path fill-rule="evenodd" clip-rule="evenodd" d="M272 293.061C274.85 292.911 276.52 294.251 277 297.061C275.57 301.761 273.24 305.921 270 309.561C267.13 311.021 264.13 311.351 261 310.561C256.72 308.831 252.55 307.001 248.5 305.061C247.79 303.191 248.29 301.691 250 300.561C255.21 300.201 260.21 300.861 265 302.561C266.99 299.061 269.32 295.891 272 293.061Z" fill="#0D0D0D"/>
<path fill-rule="evenodd" clip-rule="evenodd" d="M298 310.061C295.29 313.631 295.95 316.631 300 319.061C302.33 322.061 305 324.731 308 327.061C309.94 330.031 312.61 332.031 316 333.061C317.03 334.411 318.36 334.911 320 334.561C323.46 332.321 324.8 329.151 324 325.061C324.6 321.691 325.44 318.361 326.5 315.061C328.66 313.791 330.83 313.791 333 315.061C334.37 322.281 333.54 329.281 330.5 336.061C324.9 342.981 318.07 344.651 310 341.061C306.74 339.141 303.74 336.811 301 334.061C297.68 329.411 294.01 325.071 290 321.061C289.55 320.101 288.88 319.271 288 318.561C285.33 318.231 282.67 317.891 280 317.561C278.34 316.121 277.68 314.281 278 312.061C280.33 310.461 283 309.301 286 308.561C287.48 306.251 289.14 304.081 291 302.061C298.37 300.091 300.7 302.751 298 310.061Z" fill="#070809"/>
<path fill-rule="evenodd" clip-rule="evenodd" d="M240 317.061C239.55 318.021 238.88 318.851 238 319.561C234.11 321.361 230.11 322.861 226 324.061C225.64 324.741 225.3 325.411 225 326.061C222.61 327.451 220.94 329.451 220 332.061C216.74 333.651 214.07 335.991 212 339.061C208.35 341.381 205.02 344.041 202 347.061C199.45 349.501 196.45 351.171 193 352.061C189.56 352.261 186.23 351.761 183 350.561C174.47 343.661 169.47 334.831 168 324.061C170.12 321.641 172.46 321.471 175 323.561C177.9 330.031 181.57 336.031 186 341.561C189.15 342.151 191.81 341.321 194 339.061C199.27 336.131 203.93 332.461 208 328.061C211.28 325.521 214.11 322.521 216.5 319.061C217.8 317.611 217.96 316.281 217 315.061C216.08 308.131 218.75 305.961 225 308.561C228.37 312.961 232.71 314.291 238 312.561C239.54 313.671 240.2 315.171 240 317.061Z" fill="#040507"/>
<path fill-rule="evenodd" clip-rule="evenodd" d="M278 312.062C277.68 314.282 278.34 316.122 280 317.562C282.67 317.892 285.33 318.232 288 318.562C288.88 319.272 289.55 320.102 290 321.062C288.78 321.592 287.61 322.252 286.5 323.062C279.27 340.442 272.27 357.772 265.5 375.062C278.61 362.462 290.44 348.792 301 334.062C303.74 336.812 306.74 339.142 310 341.062C290.97 361.602 271.97 382.432 253 403.562C245.81 407.772 239.65 406.602 234.5 400.062C220.46 384.192 206.62 368.192 193 352.062C196.45 351.172 199.45 349.502 202 347.062C209.31 355.212 216.48 363.542 223.5 372.062C220.13 360.922 216.3 349.922 212 339.062C214.07 335.992 216.74 333.652 220 332.062C227.18 352.412 234.68 372.742 242.5 393.062C243.39 394.272 244.23 394.272 245 393.062C256.03 370.512 266.36 347.672 276 324.562C263.7 325.422 251.37 326.252 239 327.062C234.31 326.872 229.65 326.542 225 326.062C225.3 325.412 225.64 324.742 226 324.062C230.11 322.862 234.11 321.362 238 319.562C238.88 318.852 239.55 318.022 240 317.062C252.32 316.192 264.65 315.522 277 315.062C276.76 313.772 277.1 312.772 278 312.062Z" fill="#5FAAE7"/>
<path fill-rule="evenodd" clip-rule="evenodd" d="M290 321.062C294.01 325.072 297.68 329.412 301 334.062C290.44 348.792 278.61 362.462 265.5 375.062C272.27 357.772 279.27 340.442 286.5 323.062C287.61 322.252 288.78 321.592 290 321.062Z" fill="#B2E4FA"/>
<path fill-rule="evenodd" clip-rule="evenodd" d="M220 332.062C220.94 329.452 222.61 327.452 225 326.062C229.65 326.542 234.31 326.872 239 327.062C251.37 326.252 263.7 325.422 276 324.562C266.36 347.672 256.03 370.512 245 393.062C244.23 394.272 243.39 394.272 242.5 393.062C234.68 372.742 227.18 352.412 220 332.062Z" fill="#E0F4FD"/>
<path fill-rule="evenodd" clip-rule="evenodd" d="M324 325.062C324.8 329.152 323.46 332.322 320 334.562C318.36 334.912 317.03 334.412 316 333.062C319.03 330.702 321.69 328.032 324 325.062Z" fill="#F3F4F5"/>
<path fill-rule="evenodd" clip-rule="evenodd" d="M212 339.062C216.3 349.922 220.13 360.922 223.5 372.062C216.48 363.542 209.31 355.212 202 347.062C205.02 344.042 208.35 341.382 212 339.062Z" fill="#1F88E5"/>
</svg>
