<svg width="500" height="500" viewBox="0 0 500 500" fill="none" xmlns="http://www.w3.org/2000/svg">
<path fill-rule="evenodd" clip-rule="evenodd" d="M358.999 179.062C352.829 185.322 345.499 189.822 336.999 192.562C334.469 195.922 331.799 199.082 328.999 202.062C324.339 202.722 322.339 205.392 322.999 210.062C322.339 208.842 321.669 207.512 320.999 206.062C315.609 208.572 309.939 209.572 303.999 209.062C302.239 209.202 300.569 208.872 298.999 208.062C290.619 214.072 281.279 216.412 270.999 215.062C266.039 213.832 261.209 212.172 256.499 210.062C253.859 213.542 251.019 216.872 247.999 220.062C242.399 225.112 235.729 227.442 227.999 227.062C224.249 245.102 213.249 253.102 194.999 251.062C194.999 252.062 194.999 253.062 194.999 254.062C193.039 257.102 190.709 259.932 187.999 262.562C190.539 262.752 192.869 263.252 194.999 264.062C183.139 263.672 173.139 267.672 164.999 276.062C164.399 275.422 163.569 275.092 162.499 275.062C160.559 275.512 158.729 276.182 156.999 277.062C157.109 276.442 157.439 275.942 157.999 275.562C151.349 273.822 145.519 270.652 140.499 266.062C139.369 263.182 138.709 260.182 138.499 257.062C137.999 259.032 137.839 261.032 137.999 263.062C137.039 261.302 136.709 259.302 136.999 257.062C134.999 256.732 132.999 256.392 130.999 256.062C126.849 254.492 123.189 252.152 119.999 249.062C115.649 242.492 114.309 235.322 115.999 227.562C111.799 225.032 108.639 221.532 106.499 217.062C105.779 212.042 104.939 207.042 103.999 202.062C92.9787 192.992 88.4787 181.332 90.4987 167.062C91.4387 162.512 93.4387 158.512 96.4987 155.062C96.6287 146.672 97.2987 138.332 98.4987 130.062C101.569 126.852 103.899 123.192 105.499 119.062C109.889 113.332 115.389 109.162 121.999 106.562C125.389 105.812 128.729 105.972 131.999 107.062C140.009 99.0019 149.679 95.1719 160.999 95.5619C163.499 95.9319 165.829 96.7719 167.999 98.0619C184.509 78.7519 204.839 73.2519 228.999 81.5619C232.439 83.3619 235.609 85.5319 238.499 88.0619C253.939 78.7619 269.769 77.9319 285.999 85.5619C290.579 88.3119 293.909 92.1419 295.999 97.0619C305.379 97.1219 314.379 98.9519 322.999 102.562C327.719 105.612 331.379 109.612 333.999 114.562C353.379 118.442 361.539 130.272 358.499 150.062C361.379 153.712 362.879 157.882 362.999 162.562C362.059 168.162 360.719 173.662 358.999 179.062Z" fill="#FEF6E2"/>
<path fill-rule="evenodd" clip-rule="evenodd" d="M210.999 106.062C212.589 106.482 214.089 107.152 215.499 108.062C223.789 104.852 231.619 105.682 238.999 110.562C241.309 112.202 242.809 114.362 243.499 117.062C243.829 116.392 244.169 115.732 244.499 115.062C245.549 116.652 246.709 118.152 247.999 119.562C252.039 120.422 255.709 122.082 258.999 124.562C261.459 124.622 263.959 124.462 266.499 124.062C270.679 126.222 275.179 127.392 279.999 127.562C281.409 132.192 282.749 136.852 283.999 141.562C287.289 142.462 289.629 141.292 290.999 138.062C293.479 136.892 295.979 136.892 298.499 138.062C301.649 137.342 304.819 136.672 307.999 136.062C310.209 134.682 311.709 132.682 312.499 130.062C315.789 124.952 318.789 124.952 321.499 130.062C322.489 132.012 322.819 134.012 322.499 136.062C319.939 135.902 317.269 136.232 314.499 137.062C315.429 141.632 315.759 146.292 315.499 151.062C310.009 159.562 302.509 162.062 292.999 158.562C291.149 162.012 289.149 165.342 286.999 168.562C281.549 168.492 276.219 167.822 270.999 166.562C268.849 168.632 268.519 170.972 269.999 173.562C275.359 176.232 281.019 177.902 286.999 178.562C282.629 179.452 278.469 178.952 274.499 177.062C262.919 195.602 249.919 196.602 235.499 180.062C233.249 177.232 231.249 174.232 229.499 171.062C223.589 174.352 217.589 177.352 211.499 180.062C209.919 182.182 209.749 184.352 210.999 186.562C210.209 189.972 209.709 193.472 209.499 197.062C209.189 197.872 208.689 198.532 207.999 199.062C205.309 191.972 205.809 184.972 209.499 178.062C212.919 177.112 215.089 174.942 215.999 171.562C215.089 169.432 213.419 168.262 210.999 168.062C205.639 169.262 201.969 172.422 199.999 177.562C186.309 180.442 181.479 188.602 185.499 202.062C187.199 205.762 190.029 207.932 193.999 208.562C190.819 209.272 187.819 209.602 184.999 209.562C180.749 216.492 175.419 222.322 168.999 227.062C163.949 229.502 158.619 230.342 152.999 229.562C152.169 228.732 151.329 227.892 150.499 227.062C149.169 223.252 148.009 219.412 146.999 215.562C142.229 214.152 139.899 215.992 139.999 221.062C131.749 216.882 127.249 210.212 126.499 201.062C122.169 198.062 118.499 194.392 115.499 190.062C115.699 191.692 115.699 193.352 115.499 195.062C105.699 187.982 102.029 178.642 104.499 167.062C106.069 165.582 107.409 163.912 108.499 162.062C109.239 164.002 109.079 165.832 107.999 167.562C110.269 170.632 112.439 173.792 114.499 177.062C115.609 175.172 116.449 173.172 116.999 171.062C115.729 167.352 114.059 163.852 111.999 160.562C112.719 155.092 112.719 149.762 111.999 144.562C111.189 144.252 110.529 143.752 109.999 143.062C111.929 133.872 116.429 126.212 123.499 120.062C122.279 123.552 121.119 127.212 119.999 131.062C120.739 134.002 121.239 137.002 121.499 140.062C124.089 141.542 126.429 141.212 128.499 139.062C127.889 129.792 131.389 122.622 138.999 117.562C144.049 117.602 149.049 117.932 153.999 118.562C156.959 115.072 156.289 112.412 151.999 110.562C154.789 109.002 157.789 108.672 160.999 109.562C165.239 113.132 169.909 114.132 174.999 112.562C177.909 109.412 180.569 106.082 182.999 102.562C187.789 101.682 192.449 102.012 196.999 103.562C200.309 106.542 203.309 109.882 205.999 113.562C211.709 113.962 213.379 111.462 210.999 106.062Z" fill="#FFFDFA"/>
<path fill-rule="evenodd" clip-rule="evenodd" d="M220 120.061C227.14 119.471 233.81 120.971 240 124.561C243.26 126.581 244.76 129.421 244.5 133.061C243.54 134.451 242.21 135.121 240.5 135.061C237.78 134.021 235.28 132.521 233 130.561C229.07 129.241 225.07 128.901 221 129.561C218.11 133.241 215.77 137.241 214 141.561C210.69 141.171 207.35 140.341 204 139.061C201.63 141.971 199.63 145.141 198 148.561C192.5 149.121 190.67 146.621 192.5 141.061C193.8 137.291 195.97 134.121 199 131.561C202.71 131.391 206.38 130.891 210 130.061C212.38 125.681 215.72 122.341 220 120.061Z" fill="#FFF6E2"/>
<path d="M358.999 179.062C367.509 179.352 375.509 181.522 382.999 185.562C390.219 194.492 396.049 204.322 400.499 215.062C409.219 242.462 411.889 270.462 408.499 299.062C406.689 307.822 403.689 316.162 399.499 324.062C385.719 340.861 367.889 349.532 345.999 350.062C345.839 352.752 345.999 355.412 346.499 358.062C352.459 371.322 353.799 384.992 350.499 399.062C347.579 401.271 344.409 403.112 340.999 404.562C294.199 421.021 246.199 425.682 196.999 418.562C165.609 417.511 136.109 409.671 108.499 395.062C106.899 387.162 106.569 379.162 107.499 371.062C109.609 364.182 112.269 357.511 115.499 351.062C115.999 344.742 116.169 338.402 115.999 332.062C118.879 335.511 122.219 338.512 125.999 341.062C123.809 341.782 121.649 342.452 119.499 343.062C118.379 347.951 120.38 350.621 125.499 351.062C129.549 350.902 133.049 349.571 135.999 347.062C194.839 377.121 255.509 381.121 317.999 359.062C325.979 362.302 330.979 359.801 332.999 351.562C332.739 350.302 332.069 349.302 330.999 348.562C328.999 348.232 326.999 347.892 324.999 347.562C324.539 347.152 324.209 346.651 323.999 346.062C327.749 340.222 331.249 334.221 334.499 328.062C335.109 324.322 334.779 320.662 333.499 317.062C331.699 315.772 330.529 314.101 329.999 312.062C330.309 310.822 330.809 310.822 331.499 312.062C332.519 275.342 331.689 238.682 328.999 202.062C331.799 199.082 334.469 195.921 336.999 192.562C345.499 189.822 352.829 185.321 358.999 179.062ZM344 225.062C345.62 253.372 346.28 281.702 346 310.062C351.28 309.312 355.44 306.651 358.5 302.062C364.54 279.572 363.87 257.242 356.5 235.062C354.25 229.302 350.08 225.972 344 225.062Z" fill="#C5EEFE"/>
<path fill-rule="evenodd" clip-rule="evenodd" d="M169 227.062C175.42 222.322 180.75 216.492 185 209.562C187.82 209.602 190.82 209.272 194 208.562C190.03 207.932 187.2 205.762 185.5 202.062C181.48 188.602 186.31 180.442 200 177.562C201.97 172.422 205.64 169.262 211 168.062C213.42 168.262 215.09 169.432 216 171.562C215.09 174.942 212.92 177.112 209.5 178.062C205.81 184.972 205.31 191.972 208 199.062C208.69 198.532 209.19 197.872 209.5 197.062C209.71 193.472 210.21 189.972 211 186.562C209.75 184.352 209.92 182.182 211.5 180.062C217.59 177.352 223.59 174.352 229.5 171.062C231.25 174.232 233.25 177.232 235.5 180.062C249.92 196.602 262.92 195.602 274.5 177.062C278.47 178.952 282.63 179.452 287 178.562C281.02 177.902 275.36 176.232 270 173.562C268.52 170.972 268.85 168.632 271 166.562C276.22 167.822 281.55 168.492 287 168.562C289.15 165.342 291.15 162.012 293 158.562C302.51 162.062 310.01 159.562 315.5 151.062C315.76 146.292 315.43 141.632 314.5 137.062C317.27 136.232 319.94 135.902 322.5 136.062C322.82 134.012 322.49 132.012 321.5 130.062C318.79 124.952 315.79 124.952 312.5 130.062C311.71 132.682 310.21 134.682 308 136.062C304.82 136.672 301.65 137.342 298.5 138.062C295.98 136.892 293.48 136.892 291 138.062C289.63 141.292 287.29 142.462 284 141.562C282.75 136.852 281.41 132.192 280 127.562C275.18 127.392 270.68 126.222 266.5 124.062C263.96 124.462 261.46 124.622 259 124.562C255.71 122.082 252.04 120.422 248 119.562C246.71 118.152 245.55 116.652 244.5 115.062C244.17 115.732 243.83 116.392 243.5 117.062C242.81 114.362 241.31 112.202 239 110.562C231.62 105.682 223.79 104.852 215.5 108.062C214.09 107.152 212.59 106.482 211 106.062C207.3 100.512 202.3 96.352 196 93.562C206.32 89.772 216.32 90.432 226 95.562C228.73 97.692 230.73 100.362 232 103.562C235.17 106.192 238.5 106.532 242 104.562C245.93 98.452 251.6 95.122 259 94.562C266.35 93.332 273.35 94.332 280 97.562C283.6 100.932 285.43 105.102 285.5 110.062C286.98 114.232 289.82 115.732 294 114.562C296.43 112.432 299.27 111.262 302.5 111.062C309.33 111.432 315.33 113.762 320.5 118.062C320.19 122.662 321.69 126.492 325 129.562C329 129.562 333 129.562 337 129.562C345.5 133.792 347 139.622 341.5 147.062C340.83 149.392 340.83 151.732 341.5 154.062C343.38 156.512 345.71 158.512 348.5 160.062C349.97 167.562 347.31 172.902 340.5 176.062C341.28 170.062 340.95 164.062 339.5 158.062C335.13 162.162 329.96 163.832 324 163.062C325.69 171.062 323.36 177.562 317 182.562C311.64 184.152 306.64 186.482 302 189.562C292.49 189.692 283.15 189.022 274 187.562C273.74 192.592 271.74 196.752 268 200.062C264.2 198.092 260.54 195.932 257 193.562C254.67 192.892 252.33 192.892 250 193.562C246.41 200.062 242.08 206.062 237 211.562C234.43 213.462 232.1 213.132 230 210.562C230.33 210.232 230.67 209.892 231 209.562C227 208.892 223 208.892 219 209.562C217.05 212.232 215.39 215.072 214 218.062C215.29 224.692 213.62 230.532 209 235.562C205.24 238.432 201.24 238.762 197 236.562C200.76 234.362 203.09 231.532 204 228.062C200.23 230.332 196.89 233.162 194 236.562C192.67 236.892 191.33 237.232 190 237.562C185.44 241.412 181.1 245.412 177 249.562C162.94 254.992 152.44 251.152 145.5 238.062C144.83 236.732 144.83 235.392 145.5 234.062C148.81 237.382 152.81 238.712 157.5 238.062C163.77 238.252 169.43 236.582 174.5 233.062C175.33 228.722 173.5 226.722 169 227.062Z" fill="#FFFAF0"/>
<path fill-rule="evenodd" clip-rule="evenodd" d="M353.999 192.062C361.299 192.282 368.299 193.782 374.999 196.562C386.169 213.372 392.999 231.872 395.499 252.062C396.169 265.732 396.169 279.392 395.499 293.062C394.179 309.222 386.679 321.392 372.999 329.562C364.399 333.242 355.399 335.412 345.999 336.062C345.999 332.062 345.999 328.062 345.999 324.062C351.039 323.752 355.709 322.252 359.999 319.562C363.169 316.392 366.329 313.232 369.499 310.062C374.319 298.232 376.479 285.902 375.999 273.062C376.689 254.142 372.519 236.482 363.499 220.062C357.569 215.012 350.739 212.012 342.999 211.062C342.479 206.332 342.479 201.662 342.999 197.062C346.849 195.562 350.519 193.902 353.999 192.062Z" fill="#F2FBFF"/>
<path fill-rule="evenodd" clip-rule="evenodd" d="M328.999 202.062C331.689 238.682 332.519 275.342 331.499 312.062C330.809 310.822 330.309 310.822 329.999 312.062C327.869 310.472 326.199 308.472 324.999 306.062C325.049 291.392 325.379 276.722 325.999 262.062C325.379 244.692 324.379 227.362 322.999 210.062C322.339 205.392 324.339 202.722 328.999 202.062Z" fill="#F2FBFC"/>
<path fill-rule="evenodd" clip-rule="evenodd" d="M322.999 210.062C324.379 227.362 325.379 244.692 325.999 262.062C325.379 276.722 325.049 291.392 324.999 306.062C322.009 302.262 318.679 298.762 314.999 295.562C308.759 295.472 306.929 298.302 309.499 304.062C315.399 310.952 320.899 318.122 325.999 325.562C323.049 332.302 319.219 338.462 314.499 344.062C313.299 346.242 312.799 348.572 312.999 351.062C310.339 353.062 307.339 354.562 303.999 355.562C279.369 359.982 254.529 362.822 229.499 364.062C213.019 361.422 196.519 358.922 179.999 356.562C166.869 352.332 154.209 347.002 141.999 340.562C139.609 338.612 138.109 336.112 137.499 333.062C136.689 309.682 136.849 286.352 137.999 263.062C137.839 261.032 137.999 259.032 138.499 257.062C138.709 260.182 139.369 263.182 140.499 266.062C145.519 270.652 151.349 273.822 157.999 275.562C157.439 275.942 157.109 276.442 156.999 277.062C152.479 279.442 150.149 283.272 149.999 288.562C150.069 291.152 150.569 293.652 151.499 296.062C153.829 299.882 156.329 303.552 158.999 307.062C157.979 316.542 159.479 325.542 163.499 334.062C171.319 341.252 178.319 340.592 184.499 332.062C185.769 328.412 186.939 324.742 187.999 321.062C196.149 321.602 204.149 322.262 211.999 323.062C210.479 334.762 215.649 342.092 227.499 345.062C237.449 342.212 242.949 335.542 243.999 325.062C252.709 324.832 261.379 324.172 269.999 323.062C269.969 340.242 277.969 346.402 293.999 341.562C297.859 338.312 300.029 334.142 300.499 329.062C301.239 320.402 301.739 311.742 301.999 303.062C302.899 297.792 303.229 292.452 302.999 287.062C305.489 261.472 306.829 235.802 306.999 210.062C305.709 210.302 304.709 209.962 303.999 209.062C309.939 209.572 315.609 208.572 320.999 206.062C321.669 207.512 322.339 208.842 322.999 210.062Z" fill="#F2D36D"/>
<path fill-rule="evenodd" clip-rule="evenodd" d="M303.998 209.062C304.708 209.962 305.708 210.302 306.998 210.062C306.828 235.802 305.488 261.472 302.998 287.062C296.898 272.962 286.568 263.302 271.998 258.062C271.018 243.812 270.678 229.472 270.998 215.062C281.278 216.412 290.618 214.072 298.998 208.062C300.568 208.872 302.238 209.202 303.998 209.062Z" fill="#EEAA61"/>
<path fill-rule="evenodd" clip-rule="evenodd" d="M270.999 215.062C270.679 229.472 271.019 243.812 271.999 258.062C264.639 256.072 257.309 254.402 249.999 253.062C250.169 242.722 249.999 232.392 249.499 222.062C248.779 221.522 248.279 220.852 247.999 220.062C251.019 216.872 253.859 213.542 256.499 210.062C261.209 212.172 266.039 213.832 270.999 215.062Z" fill="#F3D36D"/>
<path fill-rule="evenodd" clip-rule="evenodd" d="M247.999 220.062C248.279 220.852 248.779 221.522 249.499 222.062C249.999 232.392 250.169 242.722 249.999 253.062C231.589 252.742 213.259 253.072 194.999 254.062C194.999 253.062 194.999 252.062 194.999 251.062C213.249 253.102 224.249 245.102 227.999 227.062C235.729 227.442 242.399 225.112 247.999 220.062Z" fill="#EEAC63"/>
<path fill-rule="evenodd" clip-rule="evenodd" d="M119.999 249.062C123.189 252.152 126.849 254.492 130.999 256.062C130.219 267.392 129.559 278.722 128.999 290.062C126.779 289.742 124.939 290.402 123.499 292.062C121.149 297.452 118.309 302.452 114.999 307.062C114.379 287.382 116.049 268.052 119.999 249.062Z" fill="#C5EDFD"/>
<path fill-rule="evenodd" clip-rule="evenodd" d="M249.999 253.061C257.309 254.401 264.639 256.071 271.999 258.061C286.569 263.301 296.899 272.961 302.999 287.061C303.229 292.451 302.899 297.791 301.999 303.061C299.239 307.661 295.569 311.491 290.999 314.561C284.239 318.091 277.239 320.921 269.999 323.061C261.379 324.171 252.709 324.831 243.999 325.061C233.259 325.321 222.599 324.661 211.999 323.061C204.149 322.261 196.149 321.601 187.999 321.061C177.399 318.261 167.729 313.591 158.999 307.061C156.329 303.551 153.829 299.881 151.499 296.061C150.569 293.651 150.069 291.151 149.999 288.561C150.149 283.271 152.479 279.441 156.999 277.061C158.729 276.181 160.559 275.511 162.499 275.061C163.569 275.091 164.399 275.421 164.999 276.061C161.489 278.901 160.489 282.401 161.999 286.561C163.669 287.231 165.329 287.231 166.999 286.561C174.849 277.381 177.349 278.881 174.499 291.061C179.839 306.981 190.009 311.151 204.999 303.561C217.239 292.551 218.239 280.551 207.999 267.561C204.019 265.061 199.679 263.901 194.999 264.061C192.869 263.251 190.539 262.751 187.999 262.561C190.709 259.931 193.039 257.101 194.999 254.061C213.259 253.071 231.589 252.741 249.999 253.061Z" fill="#FCFBFB"/>
<path fill-rule="evenodd" clip-rule="evenodd" d="M130.999 256.062C132.999 256.392 134.999 256.732 136.999 257.062C136.709 259.302 137.039 261.302 137.999 263.062C136.849 286.352 136.689 309.682 137.499 333.062C138.109 336.112 139.609 338.612 141.999 340.562C154.209 347.002 166.869 352.332 179.999 356.562C196.519 358.922 213.019 361.422 229.499 364.062C254.529 362.822 279.369 359.982 303.999 355.562C307.339 354.562 310.339 353.062 312.999 351.062C314.139 353.992 315.809 356.662 317.999 359.062C255.509 381.122 194.839 377.122 135.999 347.062C136.669 344.742 136.829 342.412 136.499 340.062C132.189 335.422 127.519 331.082 122.499 327.062C121.099 325.172 119.929 323.172 118.999 321.062C122.029 311.172 126.029 301.672 130.999 292.562C130.859 291.262 130.189 290.432 128.999 290.062C129.559 278.722 130.219 267.392 130.999 256.062Z" fill="#EFF9FC"/>
<path fill-rule="evenodd" clip-rule="evenodd" d="M245.999 262.062C256.689 261.822 267.019 263.652 276.999 267.562C280.829 270.312 284.829 272.812 288.999 275.062C290.589 277.702 289.929 279.372 286.999 280.062C283.269 279.632 279.939 278.302 276.999 276.062C276.129 285.852 272.459 294.352 265.999 301.562C264.829 301.982 263.829 302.652 262.999 303.562C257.669 304.232 252.329 304.232 246.999 303.562C243.739 302.352 240.909 300.522 238.499 298.062C233.599 287.872 233.929 277.872 239.499 268.062C241.839 266.162 243.999 264.162 245.999 262.062Z" fill="#050505"/>
<path fill-rule="evenodd" clip-rule="evenodd" d="M194.999 264.061C199.679 263.901 204.019 265.061 207.999 267.561C218.239 280.551 217.239 292.551 204.999 303.561C190.009 311.151 179.839 306.981 174.499 291.061C177.349 278.881 174.849 277.381 166.999 286.561C165.329 287.231 163.669 287.231 161.999 286.561C160.489 282.401 161.489 278.901 164.999 276.061C173.139 267.671 183.139 263.671 194.999 264.061Z" fill="#060606"/>
<path fill-rule="evenodd" clip-rule="evenodd" d="M247.999 267.062C250.819 266.642 252.989 267.642 254.499 270.062C255.189 274.592 254.359 278.752 251.999 282.562C249.329 283.232 246.669 283.232 243.999 282.562C243.199 280.792 242.029 279.292 240.499 278.062C239.869 275.922 240.199 273.922 241.499 272.062C243.829 270.492 245.989 268.832 247.999 267.062Z" fill="#EFEFEF"/>
<path fill-rule="evenodd" clip-rule="evenodd" d="M197.999 271.062C203.629 270.032 206.629 272.362 206.999 278.062C206.689 283.372 204.029 286.702 198.999 288.062C193.999 286.062 192.169 282.392 193.499 277.062C194.779 274.812 196.279 272.812 197.999 271.062Z" fill="#F5F5F5"/>
<path fill-rule="evenodd" clip-rule="evenodd" d="M128.999 290.062C130.189 290.432 130.859 291.262 130.999 292.562C126.029 301.672 122.029 311.172 118.999 321.062C119.929 323.172 121.099 325.172 122.499 327.062C127.519 331.082 132.189 335.422 136.499 340.062C136.829 342.412 136.669 344.742 135.999 347.062C133.049 349.572 129.549 350.902 125.499 351.062C120.379 350.622 118.379 347.952 119.499 343.062C121.649 342.452 123.809 341.782 125.999 341.062C122.219 338.512 118.879 335.512 115.999 332.062C113.779 328.292 112.119 324.292 110.999 320.062C111.939 315.582 113.269 311.252 114.999 307.062C118.309 302.452 121.149 297.452 123.499 292.062C124.939 290.402 126.779 289.742 128.999 290.062Z" fill="#090A0A"/>
<path fill-rule="evenodd" clip-rule="evenodd" d="M325 306.062C326.2 308.472 327.87 310.472 330 312.062C330.53 314.102 331.7 315.772 333.5 317.062C334.78 320.662 335.11 324.322 334.5 328.062C331.25 334.222 327.75 340.222 324 346.062C324.21 346.652 324.54 347.152 325 347.562C327 347.892 329 348.232 331 348.562C332.07 349.302 332.74 350.302 333 351.562C330.98 359.802 325.98 362.302 318 359.062C315.81 356.662 314.14 353.992 313 351.062C312.8 348.572 313.3 346.242 314.5 344.062C319.22 338.462 323.05 332.302 326 325.562C320.9 318.122 315.4 310.952 309.5 304.062C306.93 298.302 308.76 295.472 315 295.562C318.68 298.762 322.01 302.262 325 306.062Z" fill="#070605"/>
<path fill-rule="evenodd" clip-rule="evenodd" d="M236 308.061C237.7 307.901 239.37 308.071 241 308.561C241.52 309.121 241.86 309.791 242 310.561C240.05 314.511 237.38 317.841 234 320.561C228.83 320.401 224 318.901 219.5 316.061C218.57 311.481 220.4 309.981 225 311.561C230.55 315.761 234.22 314.591 236 308.061Z" fill="#141414"/>
<path fill-rule="evenodd" clip-rule="evenodd" d="M301.999 303.062C301.739 311.742 301.239 320.402 300.499 329.062C300.029 334.142 297.859 338.312 293.999 341.562C277.969 346.402 269.969 340.242 269.999 323.062C277.239 320.922 284.239 318.092 290.999 314.562C295.569 311.492 299.239 307.662 301.999 303.062Z" fill="#EEAA61"/>
<path fill-rule="evenodd" clip-rule="evenodd" d="M158.999 307.062C167.729 313.592 177.399 318.262 187.999 321.062C186.939 324.742 185.769 328.412 184.499 332.062C178.319 340.592 171.319 341.252 163.499 334.062C159.479 325.542 157.979 316.542 158.999 307.062Z" fill="#EEAA61"/>
<path fill-rule="evenodd" clip-rule="evenodd" d="M211.999 323.062C222.599 324.662 233.259 325.322 243.999 325.062C242.949 335.542 237.449 342.212 227.499 345.062C215.649 342.092 210.479 334.762 211.999 323.062Z" fill="#EEAA61"/>
<path fill-rule="evenodd" clip-rule="evenodd" d="M126.999 359.062C162.099 375.752 199.099 385.092 237.999 387.062C247.669 386.702 257.339 386.202 266.999 385.562C283.029 382.022 299.029 378.352 314.999 374.562C321.559 372.612 327.899 370.112 333.999 367.062C336.139 367.982 337.299 369.652 337.499 372.062C338.419 376.002 338.919 380.002 338.999 384.062C338.929 386.852 338.259 389.352 336.999 391.562C319.319 397.482 301.319 402.152 282.999 405.562C246.569 408.072 210.239 407.072 173.999 402.562C155.279 399.652 137.279 394.322 119.999 386.562C119.249 376.712 121.589 367.552 126.999 359.062Z" fill="#F2FBFF"/>
</svg>
