<svg width="500" height="500" viewBox="0 0 500 500" fill="none" xmlns="http://www.w3.org/2000/svg">
<path fill-rule="evenodd" clip-rule="evenodd" d="M385.001 258.061C405.201 287.771 426.031 317.111 447.501 346.061C447.881 351.381 445.381 354.881 440.001 356.561C377.311 368.091 314.311 377.751 251.001 385.561C222.381 389.801 193.881 394.631 165.501 400.061C162.871 400.101 160.371 399.601 158.001 398.561C132.671 377.891 107.331 357.231 82.0012 336.561C71.7612 326.321 62.2612 315.491 53.5012 304.061C52.7512 296.221 55.7512 290.221 62.5012 286.061C70.5412 276.851 78.3812 267.521 86.0012 258.061C109.631 232.261 133.131 206.261 156.501 180.061C180.161 154.731 205.331 131.231 232.001 109.561C235.611 107.621 238.941 105.281 242.001 102.561C249.681 98.5415 256.511 99.7115 262.501 106.061C272.171 117.731 281.831 129.391 291.501 141.061C306.491 155.431 319.831 171.091 331.501 188.061C347.781 205.971 362.121 225.301 374.501 246.061C377.871 250.251 381.371 254.251 385.001 258.061Z" fill="#F5AA68"/>
<path fill-rule="evenodd" clip-rule="evenodd" d="M403 348.062C401.09 347.352 399.42 346.182 398 344.562C396.63 339.282 394.96 334.122 393 329.062C388.37 327.902 383.7 327.732 379 328.562C371.69 330.062 364.36 331.222 357 332.062C353.64 331.972 350.3 331.642 347 331.062C346.33 331.392 345.67 331.732 345 332.062C347.29 340.272 348.96 348.612 350 357.062C346.64 357.602 343.3 358.272 340 359.062C340.22 350.342 338.56 341.842 335 333.562C318.99 335.402 302.99 337.562 287 340.062C288.24 348.612 290.24 356.942 293 365.062C289.69 365.612 286.36 365.942 283 366.062C281.06 358.772 279.23 351.442 277.5 344.062C276.66 342.942 275.49 342.272 274 342.062C261.3 345.982 248.3 348.152 235 348.562C232.62 349.072 230.29 349.742 228 350.562C231.17 357.742 233.51 365.242 235 373.062C231.62 373.642 228.29 374.302 225 375.062C223.49 367.362 221.82 359.692 220 352.062C206.75 354.152 193.41 355.482 180 356.062C181.68 351.022 183.51 346.022 185.5 341.062C192.48 313.452 199.14 285.782 205.5 258.062C211.78 239.892 218.44 221.892 225.5 204.062C227.88 196.512 229.88 188.842 231.5 181.062C238.7 160.292 246.2 139.622 254 119.062C269.27 138.162 285.43 156.492 302.5 174.062C312.45 187.612 323.12 200.612 334.5 213.062C365.14 256.532 395.97 299.872 427 343.062C419.03 344.912 411.03 346.582 403 348.062Z" fill="#FCC688"/>
<path fill-rule="evenodd" clip-rule="evenodd" d="M234 126.062C234.54 126.122 234.88 126.452 235 127.062C228.8 145.822 222.3 164.492 215.5 183.062C214.79 187.472 213.79 191.802 212.5 196.062C204.71 216.242 197.37 236.582 190.5 257.062C184.51 282.382 178.51 307.712 172.5 333.062C166.88 348.492 162.21 364.162 158.5 380.062C136.67 362.232 114.83 344.392 93 326.562C83.79 318.852 75.45 310.352 68 301.062C104.74 259.422 141.9 218.082 179.5 177.062C197.23 159.492 215.4 142.492 234 126.062Z" fill="#F4B576"/>
<path fill-rule="evenodd" clip-rule="evenodd" d="M317 252.061C312.54 251.441 308.54 252.441 305 255.061C295.2 265.261 293.36 276.921 299.5 290.061C304.59 301.851 313.42 306.021 326 302.561C332.86 301.031 338.03 297.201 341.5 291.061C342.86 284.761 344.03 278.431 345 272.061C344.95 269.241 344.28 266.571 343 264.061C344.29 263.151 345.62 263.321 347 264.561C350.99 265.061 354.99 265.231 359 265.061C369.49 278.921 369.65 292.921 359.5 307.061C355.88 310.681 351.71 313.511 347 315.561C312.02 329.811 275.69 336.141 238 334.561C222.05 330.451 213.05 320.281 211 304.061C213.15 304.191 215.15 303.691 217 302.561C219.46 299.481 221.79 296.321 224 293.061C224.86 305.631 230.86 314.791 242 320.561C254.69 322.561 264.19 318.061 270.5 307.061C271.87 302.161 273.37 297.321 275 292.561C274.01 286.091 270.85 280.921 265.5 277.061C265.11 274.101 263.61 271.941 261 270.561C246.87 266.201 234.2 268.871 223 278.561C219.8 281.931 216.46 285.101 213 288.061C215.85 279.531 221.18 273.031 229 268.561C256.17 253.261 285.17 246.931 316 249.561C317.33 249.891 318.67 250.231 320 250.561C318.76 250.791 317.76 251.291 317 252.061Z" fill="#FBFBFA"/>
<path fill-rule="evenodd" clip-rule="evenodd" d="M316.999 252.062C324.669 251.892 332.339 252.062 339.999 252.562C346.469 255.462 353.139 257.802 359.999 259.562C361.479 261.792 361.149 263.632 358.999 265.062C354.989 265.232 350.989 265.062 346.999 264.562C345.619 263.322 344.289 263.152 342.999 264.062C344.279 266.572 344.949 269.242 344.999 272.062C344.029 278.432 342.859 284.762 341.499 291.062C338.029 297.202 332.859 301.032 325.999 302.562C313.419 306.022 304.589 301.852 299.499 290.062C293.359 276.922 295.199 265.262 304.999 255.062C308.539 252.442 312.539 251.442 316.999 252.062Z" fill="#060505"/>
<path fill-rule="evenodd" clip-rule="evenodd" d="M308 260.062C311.79 259.372 314.95 260.372 317.5 263.062C318.17 267.392 318.17 271.732 317.5 276.062C314.2 279.152 310.37 279.822 306 278.062C302.06 275.852 300.56 272.512 301.5 268.062C303.5 265.232 305.67 262.562 308 260.062Z" fill="#F3F3F3"/>
<path fill-rule="evenodd" clip-rule="evenodd" d="M211 304.062C209.97 302.132 209.3 299.962 209 297.562C210.46 294.472 211.79 291.312 213 288.062C216.46 285.102 219.8 281.932 223 278.562C234.2 268.872 246.87 266.202 261 270.562C263.61 271.942 265.11 274.102 265.5 277.062C270.85 280.922 274.01 286.092 275 292.562C273.37 297.322 271.87 302.162 270.5 307.062C264.19 318.062 254.69 322.562 242 320.562C230.86 314.792 224.86 305.632 224 293.062C221.79 296.322 219.46 299.482 217 302.562C215.15 303.692 213.15 304.192 211 304.062Z" fill="#050505"/>
<path fill-rule="evenodd" clip-rule="evenodd" d="M252.999 275.062C258.949 275.672 262.279 279.012 262.999 285.062C262.809 291.222 259.809 295.222 253.999 297.062C246.009 293.762 243.839 288.092 247.499 280.062C249.229 278.162 251.059 276.492 252.999 275.062Z" fill="#F1F1F1"/>
<path fill-rule="evenodd" clip-rule="evenodd" d="M306.001 310.062C309.091 309.392 310.761 310.562 311.001 313.562C310.081 318.412 308.081 322.742 305.001 326.562C299.291 327.192 293.621 326.862 288.001 325.562C284.641 323.532 284.311 321.192 287.001 318.562C291.701 318.682 296.361 319.022 301.001 319.562C302.391 316.212 304.061 313.042 306.001 310.062Z" fill="#0E0E0E"/>
<path fill-rule="evenodd" clip-rule="evenodd" d="M403 348.061C385.42 351.571 367.75 354.571 350 357.061C348.96 348.611 347.29 340.271 345 332.061C345.67 331.731 346.33 331.391 347 331.061C350.3 331.641 353.64 331.971 357 332.061C364.36 331.221 371.69 330.061 379 328.561C383.7 327.731 388.37 327.901 393 329.061C394.96 334.121 396.63 339.281 398 344.561C399.42 346.181 401.09 347.351 403 348.061Z" fill="#FECF92"/>
<path fill-rule="evenodd" clip-rule="evenodd" d="M340 359.062C324.35 361.222 308.68 363.222 293 365.062C290.24 356.942 288.24 348.612 287 340.062C302.99 337.562 318.99 335.402 335 333.562C338.56 341.842 340.22 350.342 340 359.062Z" fill="#FECF92"/>
<path fill-rule="evenodd" clip-rule="evenodd" d="M283 366.062C267.23 369.122 251.23 371.462 235 373.062C233.51 365.242 231.17 357.742 228 350.562C230.29 349.742 232.62 349.072 235 348.562C248.3 348.152 261.3 345.982 274 342.062C275.49 342.272 276.66 342.942 277.5 344.062C279.23 351.442 281.06 358.772 283 366.062Z" fill="#FECF92"/>
<path fill-rule="evenodd" clip-rule="evenodd" d="M225 375.062C207.82 377.042 190.82 380.042 174 384.062C174.81 374.452 176.81 365.122 180 356.062C193.41 355.482 206.75 354.152 220 352.062C221.82 359.692 223.49 367.362 225 375.062Z" fill="#FECF92"/>
</svg>
