<svg width="500" height="500" viewBox="0 0 500 500" fill="none" xmlns="http://www.w3.org/2000/svg">
<path fill-rule="evenodd" clip-rule="evenodd" d="M201 69.0617C204.31 72.8777 208.31 75.7107 213 77.5617C215.51 80.1107 215.34 82.6107 212.5 85.0617C209.14 88.6667 205.64 92.1667 202 95.5617C194.71 94.4637 187.71 92.1307 181 88.5617C179.77 86.8947 178.43 85.3947 177 84.0617C168.03 74.4897 165.86 63.4897 170.5 51.0617C172.79 45.3107 175.96 40.1437 180 35.5617C181.61 34.8417 183.11 35.0077 184.5 36.0617C181.56 51.4827 187.06 62.4827 201 69.0617Z" fill="#6A1B1B"/>
<path fill-rule="evenodd" clip-rule="evenodd" d="M337 91.0618C331.42 96.4228 324.75 98.9228 317 98.5618C315.11 95.0038 312.27 92.5038 308.5 91.0618C308.21 85.7968 309.04 80.7968 311 76.0618C312.38 74.9878 313.55 73.6548 314.5 72.0618C317.13 66.7478 319.8 61.4148 322.5 56.0618C322.83 53.0618 323.17 50.0618 323.5 47.0618C325.9 45.9598 328.4 45.7928 331 46.5618C341.67 55.3788 344.84 66.5458 340.5 80.0618C339.22 83.7268 338.06 87.3938 337 91.0618Z" fill="#6A1B1B"/>
<path fill-rule="evenodd" clip-rule="evenodd" d="M311 76.0618C309.04 80.7968 308.21 85.7968 308.5 91.0618C312.27 92.5038 315.11 95.0038 317 98.5618C324.75 98.9228 331.42 96.4228 337 91.0618C341.87 93.4208 346.37 96.4208 350.5 100.062C369.82 126.277 376.82 155.61 371.5 188.062C374.11 194.178 375.95 200.511 377 207.062C375.92 208.156 375.25 209.489 375 211.062C376.37 216.524 377.7 221.857 379 227.062C379.33 231.729 379.67 236.395 380 241.062C380 246.729 380 252.395 380 258.062C377.07 271.893 374.4 285.893 372 300.062C370.06 302.759 368.56 305.759 367.5 309.062C367.35 316.497 366.52 323.83 365 331.062C359.93 336.182 356.1 342.182 353.5 349.062C347.03 354.53 340.86 360.363 335 366.562C327 371.895 319 377.229 311 382.562C309.37 383.056 307.7 383.222 306 383.062C305.72 382.273 305.22 381.606 304.5 381.062C300.45 383.024 296.28 384.691 292 386.062C290.34 385.416 288.68 384.749 287 384.062C275.45 385.598 264.12 388.098 253 391.562C243.71 392.907 234.38 393.74 225 394.062C220.99 393.896 216.99 394.063 213 394.562C212.44 394.945 212.11 395.445 212 396.062C185.94 395.714 161.94 388.547 140 374.562C127.37 363.916 114.04 354.25 100 345.562C91.3805 337.952 83.8805 329.452 77.5005 320.062C75.7405 315.101 75.5705 310.101 77.0005 305.062C78.1905 305.24 79.3605 305.573 80.5005 306.062C82.3205 304.958 83.8205 303.458 85.0005 301.562C87.5605 300.483 90.2305 299.983 93.0005 300.062C102.42 300.941 108.59 296.941 111.5 288.062C116.29 274.116 119.29 259.783 120.5 245.062C121.63 240.01 122.96 235.01 124.5 230.062C124.45 223.412 124.28 216.746 124 210.062C128.89 208.172 132.56 204.839 135 200.062C139.55 199.704 140.88 197.538 139 193.562C133.98 192.059 129.65 189.559 126 186.062C126.75 166.989 132.58 149.655 143.5 134.062C145.77 124.254 149.77 115.254 155.5 107.062C160.21 102.019 164.55 96.6848 168.5 91.0618C170.92 88.1388 173.75 85.8048 177 84.0618C178.43 85.3948 179.77 86.8948 181 88.5618C187.71 92.1308 194.71 94.4638 202 95.5618C205.64 92.1668 209.14 88.6668 212.5 85.0618C215.34 82.6108 215.51 80.1108 213 77.5618C208.31 75.7108 204.31 72.8778 201 69.0618C209.9 65.3358 219.23 62.8358 229 61.5618C242.34 61.3498 255.67 61.6828 269 62.5618C283.36 66.1478 297.36 70.6478 311 76.0618Z" fill="#F34336"/>
<path fill-rule="evenodd" clip-rule="evenodd" d="M325 143.062C321.69 143.555 318.52 144.555 315.5 146.062C313.31 145.596 311.15 145.263 309 145.062C307.87 143.488 307.7 141.821 308.5 140.062C310.17 138.829 311.67 137.495 313 136.062C318.78 132.333 324.78 128.833 331 125.562C336.37 125.263 338.53 127.763 337.5 133.062C333.54 136.775 329.37 140.108 325 143.062Z" fill="#6B1C1C"/>
<path fill-rule="evenodd" clip-rule="evenodd" d="M236 135.062C237.79 135.953 239.62 136.953 241.5 138.062C242.24 140.003 242.08 141.836 241 143.562C238 144.229 235 144.229 232 143.562C228.74 142.088 225.41 140.922 222 140.062C217.09 137.488 212.76 134.154 209 130.062C209.48 129.084 210.14 128.251 211 127.562C213.87 127.247 216.7 126.747 219.5 126.062C225.12 128.952 230.62 131.952 236 135.062Z" fill="#6B1B1B"/>
<path fill-rule="evenodd" clip-rule="evenodd" d="M313 136.062C311.67 137.495 310.17 138.829 308.5 140.062C307.7 141.821 307.87 143.488 309 145.062C311.15 145.263 313.31 145.596 315.5 146.062C318.52 144.555 321.69 143.555 325 143.062C332.08 148.808 338.08 155.475 343 163.062C336.41 162.631 330.08 161.131 324 158.562C304.55 152.063 292.05 158.563 286.5 178.062C284.25 189.873 286.41 200.706 293 210.562C302.22 216.074 312.22 218.408 323 217.562C327.26 214.181 331.43 210.681 335.5 207.062C338.45 200.162 341.12 193.162 343.5 186.062C343.31 182.673 343.48 179.34 344 176.062C347.05 179.078 350.71 180.744 355 181.062C359.55 214.811 345.21 235.311 312 242.562C289.3 248.025 266.3 250.692 243 250.562C229.04 248.464 216.04 243.797 204 236.562C190.69 225.782 185.36 211.949 188 195.062C192.19 191.76 196.19 188.093 200 184.062C200.33 184.395 200.67 184.729 201 185.062C199.19 188.898 198.69 192.898 199.5 197.062C204.5 216.974 217 224.808 237 220.562C241.6 218.347 245.77 215.514 249.5 212.062C252.17 207.395 254.83 202.729 257.5 198.062C259.58 189.28 257.58 181.613 251.5 175.062C250.59 169.471 247.42 165.638 242 163.562C223.97 158.073 207.64 161.24 193 173.062C197.34 157.389 207.01 146.389 222 140.062C225.41 140.922 228.74 142.088 232 143.562C235 144.229 238 144.229 241 143.562C242.08 141.836 242.24 140.003 241.5 138.062C239.62 136.953 237.79 135.953 236 135.062C255.44 128.68 275.44 126.846 296 129.562C301.96 131.266 307.63 133.433 313 136.062Z" fill="#FCFBFB"/>
<path fill-rule="evenodd" clip-rule="evenodd" d="M126 186.062C129.65 189.559 133.98 192.059 139 193.562C140.88 197.538 139.55 199.704 135 200.062C132.56 204.839 128.89 208.172 124 210.062C113.57 214.453 104.24 220.619 96 228.562C90.27 230.498 87.94 228.498 89 222.562C89.88 216.393 90.38 210.226 90.5 204.062C83.35 206.668 76.35 209.668 69.5 213.062C68.24 212.803 67.24 212.136 66.5 211.062C65.92 208.305 66.25 205.639 67.5 203.062C70.41 196.904 73.58 190.904 77 185.062C67.68 184.23 58.35 183.73 49 183.562C45.67 183.728 43.67 182.228 43 179.062C43.09 177.137 44.09 175.97 46 175.562C49.92 174.46 53.92 173.793 58 173.562C66.46 169.835 74.79 165.835 83 161.562C86.56 158.826 89.89 155.993 93 153.062C93.94 153.17 94.78 153.503 95.5 154.062C100.79 169.516 110.96 180.183 126 186.062Z" fill="#6A1C1B"/>
<path fill-rule="evenodd" clip-rule="evenodd" d="M343 163.062C349.66 167.532 356.49 171.866 363.5 176.062C363.24 181.621 360.4 183.288 355 181.062C350.71 180.744 347.05 179.078 344 176.062C343.48 179.34 343.31 182.673 343.5 186.062C341.12 193.162 338.45 200.162 335.5 207.062C331.43 210.681 327.26 214.181 323 217.562C312.22 218.408 302.22 216.074 293 210.562C286.41 200.706 284.25 189.873 286.5 178.062C292.05 158.563 304.55 152.063 324 158.562C330.08 161.131 336.41 162.631 343 163.062Z" fill="#050404"/>
<path fill-rule="evenodd" clip-rule="evenodd" d="M188.001 195.062C186.031 195.301 184.201 194.968 182.501 194.062C181.831 190.729 181.831 187.395 182.501 184.062C185.501 179.894 189.001 176.227 193.001 173.062C207.641 161.24 223.971 158.073 242.001 163.562C247.421 165.638 250.591 169.471 251.501 175.062C257.581 181.613 259.581 189.28 257.501 198.062C254.831 202.729 252.171 207.395 249.501 212.062C245.771 215.514 241.601 218.347 237.001 220.562C217.001 224.808 204.501 216.974 199.501 197.062C198.691 192.898 199.191 188.898 201.001 185.062C200.671 184.729 200.331 184.395 200.001 184.062C196.191 188.093 192.191 191.76 188.001 195.062Z" fill="#040404"/>
<path fill-rule="evenodd" clip-rule="evenodd" d="M302 165.061C306.02 164.461 309.52 165.461 312.5 168.061C312.98 173.429 312.65 178.762 311.5 184.061C307.82 186.921 303.65 187.754 299 186.561C297.52 184.179 295.68 182.012 293.5 180.061C292.75 177.258 293.08 174.591 294.5 172.061C297.36 170.059 299.86 167.726 302 165.061Z" fill="#F6F6F6"/>
<path fill-rule="evenodd" clip-rule="evenodd" d="M379 227.062C377.7 221.857 376.37 216.524 375 211.062C375.25 209.489 375.92 208.156 377 207.062C381.96 198.149 386.79 188.816 391.5 179.062C393.98 174.923 396.81 171.09 400 167.562C418.29 168.536 436.62 170.203 455 172.562C457.38 173.073 459.71 173.74 462 174.562C464.77 177.528 464.43 180.195 461 182.562C450.3 187.329 439.8 192.495 429.5 198.062C428.83 199.062 428.83 200.062 429.5 201.062C433.54 205.314 436.71 210.147 439 215.562C437.32 219.688 434.32 221.022 430 219.562C424.17 217.395 418.33 215.229 412.5 213.062C412 213.395 411.5 213.729 411 214.062C414.03 217.923 416.86 221.923 419.5 226.062C420.21 227.929 419.71 229.429 418 230.562C406.72 232.112 395.38 232.445 384 231.562C382.79 229.513 381.12 228.013 379 227.062Z" fill="#6A1B1B"/>
<path fill-rule="evenodd" clip-rule="evenodd" d="M234 171.062C241.95 169.7 245.95 173.033 246 181.062C245.66 188.438 241.99 193.105 235 195.062C229.46 193.521 226.46 189.855 226 184.062C227.2 178.729 229.87 174.395 234 171.062Z" fill="#F6F6F6"/>
<path fill-rule="evenodd" clip-rule="evenodd" d="M290 221.062C293.09 220.929 295.09 222.262 296 225.062C294.02 230.85 290.69 235.684 286 239.562C282.26 240.172 278.6 239.839 275 238.562C272.17 236.939 269.17 235.772 266 235.062C262.75 230.688 263.75 228.021 269 227.062C273.65 228.572 278.32 229.739 283 230.562C284.99 227.061 287.32 223.894 290 221.062Z" fill="#0B0B0B"/>
<path fill-rule="evenodd" clip-rule="evenodd" d="M93.0004 300.062C90.2304 299.983 87.5604 300.483 85.0004 301.562C83.8204 303.458 82.3204 304.958 80.5004 306.062C79.3604 305.573 78.1904 305.24 77.0004 305.062C74.3404 303.065 71.3404 301.565 68.0004 300.562C59.9704 299.645 51.9704 298.645 44.0004 297.562C41.6904 296.453 40.1904 294.619 39.5004 292.062C38.3804 279.798 42.2104 269.298 51.0004 260.562C33.0104 259.57 31.3404 253.57 46.0004 242.562C52.7204 240.353 59.3904 238.019 66.0004 235.562C67.6704 234.895 69.3304 234.895 71.0004 235.562C71.5604 236.287 71.8904 237.12 72.0004 238.062C69.2404 246.384 70.0704 254.384 74.5004 262.062C75.1704 265.062 75.1704 268.062 74.5004 271.062C73.3204 272.919 71.6504 273.919 69.5004 274.062C65.3304 273.566 61.5004 272.233 58.0004 270.062C55.6904 273.537 53.1904 276.87 50.5004 280.062C49.0804 284.952 50.5804 288.452 55.0004 290.562C62.7004 291.316 70.3704 292.316 78.0004 293.562C83.4704 294.878 88.4704 297.044 93.0004 300.062Z" fill="#6B1D1D"/>
<path fill-rule="evenodd" clip-rule="evenodd" d="M380 241.062C380.91 242.581 381.74 244.247 382.5 246.062C385.32 247.879 387.82 250.045 390 252.562C392.61 261.05 395.61 269.383 399 277.562C395.74 290.253 389.07 300.753 379 309.062C380.87 317.285 380.04 325.285 376.5 333.062C372.11 335.883 368.28 335.216 365 331.062C366.52 323.83 367.35 316.497 367.5 309.062C368.56 305.759 370.06 302.759 372 300.062C382.76 292.881 387.92 282.881 387.5 270.062C384.74 266.155 382.24 262.155 380 258.062C380 252.395 380 246.729 380 241.062Z" fill="#090707"/>
<path fill-rule="evenodd" clip-rule="evenodd" d="M164.999 247.062C168.599 246.5 170.599 248 170.999 251.562C170.579 253.747 170.079 255.913 169.499 258.062C165.719 263.285 162.719 268.952 160.499 275.062C159.829 278.729 159.829 282.395 160.499 286.062C166.149 292.051 172.649 296.885 179.999 300.562C182.499 302.38 184.169 304.714 184.999 307.562C184.569 312.591 183.399 317.425 181.499 322.062C178.169 325.979 174.009 327.479 168.999 326.562C166.629 323.624 166.459 320.458 168.499 317.062C171.609 314.329 173.279 310.995 173.499 307.062C167.589 302.022 161.089 297.856 153.999 294.562C146.639 287.185 145.139 278.685 149.499 269.062C154.429 261.524 159.599 254.191 164.999 247.062Z" fill="#070101"/>
<path fill-rule="evenodd" clip-rule="evenodd" d="M380 258.062C382.24 262.155 384.74 266.155 387.5 270.062C387.92 282.881 382.76 292.881 372 300.062C374.4 285.893 377.07 271.893 380 258.062Z" fill="#FAF8F8"/>
<path fill-rule="evenodd" clip-rule="evenodd" d="M306 383.062C305.25 399.575 301.58 415.409 295 430.562C299.8 435.03 304.3 439.863 308.5 445.062C310.91 450.281 310.41 455.115 307 459.562C300.21 459.581 294.71 456.748 290.5 451.062C286.32 444.985 284.99 438.319 286.5 431.062C289.13 416.165 290.96 401.165 292 386.062C296.28 384.691 300.45 383.024 304.5 381.062C305.22 381.606 305.72 382.273 306 383.062Z" fill="#060505"/>
<path fill-rule="evenodd" clip-rule="evenodd" d="M225 394.062C220.58 409.503 216.24 425.003 212 440.562C216.59 445.154 220.42 450.321 223.5 456.062C224.35 459.15 223.85 461.983 222 464.562C221.17 464.729 220.33 464.895 219.5 465.062C208.06 460.278 200.89 451.778 198 439.562C202.75 425.067 207.41 410.567 212 396.062C212.11 395.445 212.44 394.945 213 394.562C216.99 394.063 220.99 393.896 225 394.062Z" fill="#060606"/>
</svg>
