<svg width="500" height="500" viewBox="0 0 500 500" fill="none" xmlns="http://www.w3.org/2000/svg">
<path fill-rule="evenodd" clip-rule="evenodd" d="M379 371.062C379.24 362.352 378.91 353.692 378 345.062C386.44 339.612 392.78 332.282 397 323.062C398.17 299.072 398.33 275.072 397.5 251.062C397.05 240.612 395.72 230.282 393.5 220.062C381.84 227.812 369.34 233.812 356 238.062C356.82 251.052 357.65 264.052 358.5 277.062C363.29 278.182 365.95 281.182 366.5 286.062C366.75 296.242 367.25 306.412 368 316.562C367.93 321.202 365.77 324.362 361.5 326.062C360.67 336.082 360.83 346.082 362 356.062C364.03 355.002 366.03 354.002 368 353.062C369.04 364.752 368.7 376.412 367 388.062C367.17 384.712 367 381.382 366.5 378.062C347.94 387.362 328.44 393.862 308 397.562C306.39 398.612 305.73 400.112 306 402.062C305.21 400.952 304.71 399.622 304.5 398.062C301.39 397.272 298.22 397.432 295 398.562C294.44 398.942 294.11 399.442 294 400.062C280.52 401.132 267.02 401.802 253.5 402.062C243.06 402.142 232.73 401.472 222.5 400.062C222.17 406.732 221.83 413.392 221.5 420.062C221.27 421.302 220.77 422.302 220 423.062C220.87 414.762 221.2 406.432 221 398.062C216.8 397.742 212.8 398.082 209 399.062C195.83 397.832 183.16 394.832 171 390.062C173.74 389.392 176.24 388.062 178.5 386.062C179.4 383.532 178.9 381.372 177 379.562C169.11 378.532 161.78 380.032 155 384.062C154.67 383.732 154.33 383.392 154 383.062C158.61 379.952 162.78 376.282 166.5 372.062C167 369.752 167.16 367.422 167 365.062C211.03 379.432 256.03 382.932 302 375.562C310.28 373.512 318.62 371.682 327 370.062C334.29 367.462 341.62 364.962 349 362.562C349.99 351.812 350.32 340.972 350 330.062C346.53 330.692 343.7 329.692 341.5 327.062C339.64 312.112 338.97 297.112 339.5 282.062C342.06 280.582 344.73 279.252 347.5 278.062C347.3 266.402 346.8 254.732 346 243.062C330.08 246.782 314.08 250.112 298 253.062C254.23 258.762 211.23 255.762 169 244.062C167.8 256.032 167.13 268.032 167 280.062C173.11 280.742 175.78 284.242 175 290.562C174.42 302.412 173.59 314.252 172.5 326.062C170.99 328.482 168.82 329.482 166 329.062C167.24 340.732 167.24 352.402 166 364.062C163.72 363.172 161.38 363.002 159 363.562C154.83 368.902 150.16 373.732 145 378.062C144.4 370.072 144.07 362.072 144 354.062C147.52 355.992 151.19 357.652 155 359.062C156.17 348.082 156.33 337.082 155.5 326.062C152.33 325.702 149.66 324.362 147.5 322.062C146.83 307.732 146.83 293.392 147.5 279.062C150.05 276.372 153.21 275.372 157 276.062C156.92 264.052 157.26 252.052 158 240.062C144.66 237.062 132.32 231.722 121 224.062C120.04 233.882 119.04 243.552 118 253.062C116.52 265.692 115.86 278.532 116 291.562C116 299.902 116.33 308.072 117 316.062C117.86 321.582 118.69 327.242 119.5 333.062C123.21 338.272 127.71 342.602 133 346.062C132.96 355.802 133.63 365.472 135 375.062C120.47 367.042 108.64 356.042 99.5 342.062C94.94 332.062 93.94 321.732 96.5 311.062C100.6 307.002 102.77 302.172 103 296.562C103.39 292.402 101.89 289.232 98.5 287.062C97.69 284.942 96.69 282.942 95.5 281.062C94.4 269.262 95.07 257.602 97.5 246.062C98.76 243.952 100.6 242.952 103 243.062C103.17 232.392 103 221.722 102.5 211.062C97.5 205.732 94.67 199.402 94 192.062C92.41 174.312 92.91 156.652 95.5 139.062C98.93 124.952 106.43 113.452 118 104.562C136.52 90.3018 157.19 80.3018 180 74.5618C245.69 57.8518 309.36 63.1818 371 90.5618C385.67 98.9018 398.17 109.732 408.5 123.062C412.02 128.952 414.35 135.292 415.5 142.062C417.76 158.662 418.42 175.332 417.5 192.062C416.49 197.432 414.16 202.102 410.5 206.062C410.32 216.062 410.66 226.062 411.5 236.062C414.72 237.282 416.39 239.622 416.5 243.062C417.17 253.732 417.17 264.392 416.5 275.062C412.11 282.772 410.78 291.112 412.5 300.062C415.04 303.212 416.21 306.882 416 311.062C414.36 337.682 402.03 357.682 379 371.062Z" fill="#C5C3C3"/>
<path fill-rule="evenodd" clip-rule="evenodd" d="M397 163.062C396.26 158.922 394.43 155.252 391.5 152.062C382.64 143.202 373.14 135.042 363 127.562C351.03 121.072 338.69 115.412 326 110.562C311.64 107.052 297.31 103.392 283 99.562C235.4 96.552 189.73 104.552 146 123.562C140 127.232 134 130.892 128 134.562C122.72 139.352 117.39 143.852 112 148.062C115.81 137.742 122.15 129.242 131 122.562C146.57 111.612 163.57 103.612 182 98.562C210.65 92.012 239.65 89.012 269 89.562C286.35 91.472 303.68 94.132 321 97.562C341.88 102.732 360.88 111.732 378 124.562C387.09 131.602 393.59 140.432 397.5 151.062C398.31 155.252 398.15 159.252 397 163.062Z" fill="#FCE6C2"/>
<path fill-rule="evenodd" clip-rule="evenodd" d="M397 163.062C392.96 173.312 386.62 182.152 378 189.562C352.53 206.342 324.53 216.502 294 220.062C241.6 227.882 191.6 220.382 144 197.562C133.36 191.482 124.19 183.652 116.5 174.062C111.29 165.922 109.79 157.252 112 148.062C117.39 143.852 122.72 139.352 128 134.562C134 130.892 140 127.232 146 123.562C189.73 104.552 235.4 96.5515 283 99.5615C297.31 103.392 311.64 107.052 326 110.562C338.69 115.412 351.03 121.072 363 127.562C373.14 135.042 382.64 143.202 391.5 152.062C394.43 155.252 396.26 158.922 397 163.062Z" fill="#FEF6E3"/>
<path fill-rule="evenodd" clip-rule="evenodd" d="M102 173.061C103.18 172.841 104.18 173.171 105 174.061C109.45 180.011 114.45 185.511 120 190.561C135.44 202.331 152.11 212.001 170 219.561C177.54 222.031 185.21 224.031 193 225.561C199.31 229.581 198.31 231.751 190 232.061C163.25 228.211 139.25 218.041 118 201.561C112.12 194.681 106.62 187.511 101.5 180.061C100.8 177.631 100.96 175.301 102 173.061Z" fill="#E8E5E1"/>
<path fill-rule="evenodd" clip-rule="evenodd" d="M378 345.062C378.54 340.522 377.21 336.692 374 333.562C369.67 332.072 367.33 333.572 367 338.062C367.83 343.032 368.16 348.032 368 353.062C366.03 354.002 364.03 355.002 362 356.062C360.83 346.082 360.67 336.082 361.5 326.062C365.77 324.362 367.93 321.202 368 316.562C367.25 306.412 366.75 296.242 366.5 286.062C365.95 281.182 363.29 278.182 358.5 277.062C357.65 264.052 356.82 251.052 356 238.062C369.34 233.812 381.84 227.812 393.5 220.062C395.72 230.282 397.05 240.612 397.5 251.062C398.33 275.072 398.17 299.072 397 323.062C392.78 332.282 386.44 339.612 378 345.062Z" fill="#FD4E54"/>
<path fill-rule="evenodd" clip-rule="evenodd" d="M144.001 354.062C143.801 347.802 144.461 341.632 146.001 335.562C144.381 329.232 140.881 327.732 135.501 331.062C133.971 335.922 133.141 340.922 133.001 346.062C127.711 342.602 123.211 338.272 119.501 333.062C118.691 327.242 117.861 321.582 117.001 316.062C116.881 295.052 117.211 274.052 118.001 253.062C119.041 243.552 120.041 233.882 121.001 224.062C132.321 231.722 144.661 237.062 158.001 240.062C157.261 252.052 156.921 264.052 157.001 276.062C153.211 275.372 150.051 276.372 147.501 279.062C146.831 293.392 146.831 307.732 147.501 322.062C149.661 324.362 152.331 325.702 155.501 326.062C156.331 337.082 156.171 348.082 155.001 359.062C151.191 357.652 147.521 355.992 144.001 354.062Z" fill="#FE4D52"/>
<path fill-rule="evenodd" clip-rule="evenodd" d="M167 365.062C167 364.392 166.67 364.062 166 364.062C167.24 352.402 167.24 340.732 166 329.062C168.82 329.482 170.99 328.482 172.5 326.062C173.59 314.252 174.42 302.412 175 290.562C175.78 284.242 173.11 280.742 167 280.062C167.13 268.032 167.8 256.032 169 244.062C211.23 255.762 254.23 258.762 298 253.062C314.08 250.112 330.08 246.782 346 243.062C346.8 254.732 347.3 266.402 347.5 278.062C344.73 279.252 342.06 280.582 339.5 282.062C338.97 297.112 339.64 312.112 341.5 327.062C343.7 329.692 346.53 330.692 350 330.062C350.32 340.972 349.99 351.812 349 362.562C341.62 364.962 334.29 367.462 327 370.062C318.62 371.682 310.28 373.512 302 375.562C256.03 382.932 211.03 379.432 167 365.062Z" fill="#FE4E53"/>
<path fill-rule="evenodd" clip-rule="evenodd" d="M118 253.062C117.21 274.052 116.88 295.052 117 316.062C116.33 308.072 116 299.902 116 291.562C115.86 278.532 116.52 265.692 118 253.062Z" fill="#DE8D8F"/>
<path fill-rule="evenodd" clip-rule="evenodd" d="M328.999 298.062C323.809 295.052 318.469 292.222 312.999 289.562C306.569 288.032 300.229 286.192 293.999 284.062C289.369 282.902 284.699 282.732 279.999 283.562C265.949 293.662 262.119 306.822 268.499 323.062C271.419 329.992 276.589 333.822 283.999 334.562C298.309 336.492 307.809 330.662 312.499 317.062C314.139 311.832 315.299 306.502 315.999 301.062C321.089 304.012 326.419 305.012 331.999 304.062C338.389 324.452 331.389 338.622 310.999 346.562C297.309 352.572 282.969 355.572 267.999 355.562C243.539 357.542 219.879 354.212 196.999 345.562C183.809 338.692 177.809 327.852 178.999 313.062C180.699 313.222 182.369 313.052 183.999 312.562C187.149 310.252 190.149 307.752 192.999 305.062C192.129 314.322 194.299 322.992 199.499 331.062C201.999 332.892 204.499 334.732 206.999 336.562C230.329 338.892 241.829 328.392 241.499 305.062C237.929 301.182 235.759 296.682 234.999 291.562C228.679 287.392 221.679 285.562 213.999 286.062C206.569 286.002 199.569 287.672 192.999 291.062C197.619 286.642 202.949 283.142 208.999 280.562C232.989 271.932 257.649 269.602 282.999 273.562C302.819 273.632 318.149 281.802 328.999 298.062Z" fill="#F9F4EE"/>
<path fill-rule="evenodd" clip-rule="evenodd" d="M329 298.061C331.47 299.201 332.469 301.201 331.999 304.061C326.419 305.011 321.09 304.011 316 301.061C315.3 306.501 314.14 311.831 312.5 317.061C307.81 330.661 298.31 336.491 284 334.561C276.59 333.821 271.42 329.991 268.5 323.061C262.119 306.821 265.95 293.661 280 283.561C284.7 282.731 289.37 282.901 294 284.061C300.23 286.191 306.57 288.031 313 289.561C318.47 292.221 323.81 295.051 329 298.061Z" fill="#090909"/>
<path fill-rule="evenodd" clip-rule="evenodd" d="M179.001 313.062C178.381 312.952 177.881 312.622 177.501 312.062C176.831 309.732 176.831 307.392 177.501 305.062C180.371 302.522 182.871 299.692 185.001 296.562C187.551 294.512 190.211 292.672 193.001 291.062C199.571 287.672 206.571 286.002 214.001 286.062C221.681 285.562 228.681 287.392 235.001 291.562C235.761 296.682 237.931 301.182 241.501 305.062C241.831 328.392 230.331 338.892 207.001 336.562C204.501 334.732 202.001 332.892 199.501 331.062C194.301 322.992 192.131 314.322 193.001 305.062C190.151 307.752 187.151 310.252 184.001 312.562C182.371 313.052 180.701 313.222 179.001 313.062Z" fill="#080706"/>
<path fill-rule="evenodd" clip-rule="evenodd" d="M280 290.062C283.69 289.532 286.86 290.532 289.5 293.062C289.92 297.432 289.59 301.762 288.5 306.062C285.24 308.992 281.41 309.822 277 308.562C275.88 306.442 274.38 304.602 272.5 303.062C271.79 300.592 272.13 298.262 273.5 296.062C275.84 294.162 278 292.162 280 290.062Z" fill="#EBEBEB"/>
<path fill-rule="evenodd" clip-rule="evenodd" d="M222 294.062C232.37 295.132 235.21 300.462 230.5 310.062C227.43 313.562 223.76 314.902 219.5 314.062C213.05 306.432 213.88 299.762 222 294.062Z" fill="#E9E9E9"/>
<path fill-rule="evenodd" clip-rule="evenodd" d="M144 354.062C144.07 362.072 144.4 370.072 145 378.062C141.65 379.972 140.15 382.972 140.5 387.062C139.03 389.832 137.2 392.332 135 394.562C131.98 395.212 129.98 394.052 129 391.062C128.84 389.032 129 387.032 129.5 385.062C132.9 382.522 134.73 379.192 135 375.062C133.63 365.472 132.96 355.802 133 346.062C133.14 340.922 133.97 335.922 135.5 331.062C140.88 327.732 144.38 329.232 146 335.562C144.46 341.632 143.8 347.802 144 354.062Z" fill="#0D0909"/>
<path fill-rule="evenodd" clip-rule="evenodd" d="M378 345.062C378.91 353.692 379.24 362.352 379 371.062C378.01 377.362 377.85 383.702 378.5 390.062C381.68 393.822 382.68 398.152 381.5 403.062C377.65 404.752 374.49 403.912 372 400.562C368.67 400.232 365.33 399.892 362 399.562C360.1 397.752 359.6 395.592 360.5 393.062C362.26 390.792 364.42 389.132 367 388.062C368.7 376.412 369.04 364.752 368 353.062C368.16 348.032 367.83 343.032 367 338.062C367.33 333.572 369.67 332.072 374 333.562C377.21 336.692 378.54 340.522 378 345.062Z" fill="#0C0909"/>
<path fill-rule="evenodd" clip-rule="evenodd" d="M268 338.061C271.36 337.431 273.36 338.771 274 342.061C271.96 346.611 268.96 350.441 265 353.561C258.51 353.901 252.67 352.071 247.5 348.061C246.26 344.651 247.43 342.991 251 343.061C253.53 343.321 255.86 344.161 258 345.561C259.67 346.231 261.33 346.231 263 345.561C264.89 343.181 266.56 340.681 268 338.061Z" fill="#131313"/>
<path fill-rule="evenodd" clip-rule="evenodd" d="M166 364.061C166.67 364.061 167 364.391 167 365.061C167.16 367.421 167 369.751 166.5 372.061C162.78 376.281 158.61 379.951 154 383.061C154.33 383.391 154.67 383.731 155 384.061C161.78 380.031 169.11 378.531 177 379.561C178.9 381.371 179.4 383.531 178.5 386.061C176.24 388.061 173.74 389.391 171 390.061C164.55 392.491 157.88 394.151 151 395.061C147.08 396.201 143.08 397.041 139 397.561C137.38 397.801 136.38 398.631 136 400.061C123.62 409.561 112.62 420.401 103 432.561C99.1496 435.461 95.3196 435.631 91.4996 433.061C91.4296 428.421 93.2596 424.591 96.9996 421.561C98.3296 421.231 99.6696 420.891 101 420.561C106.36 414.861 112.03 409.531 118 404.561C116.33 403.891 114.67 403.891 113 404.561C104.83 407.781 96.8296 411.281 88.9996 415.061C79.6696 412.611 78.6696 408.111 85.9996 401.561C89.3296 401.231 92.6696 400.891 95.9996 400.561C107.04 397.221 118.04 394.051 129 391.061C129.98 394.051 131.98 395.211 135 394.561C137.2 392.331 139.03 389.831 140.5 387.061C140.15 382.971 141.65 379.971 145 378.061C150.16 373.731 154.83 368.901 159 363.561C161.38 363.001 163.72 363.171 166 364.061Z" fill="#EEB87C"/>
<path fill-rule="evenodd" clip-rule="evenodd" d="M151 395.062C151.16 396.432 150.99 397.772 150.5 399.062C146.93 402.332 142.76 403.492 138 402.562C137.12 401.852 136.45 401.022 136 400.062C136.38 398.632 137.38 397.802 139 397.562C143.08 397.042 147.08 396.202 151 395.062Z" fill="#121110"/>
<path fill-rule="evenodd" clip-rule="evenodd" d="M306 402.062C305.85 406.852 306.52 411.512 308 416.062C312.07 415.232 316.07 415.732 320 417.562C322.33 422.852 320.67 426.192 315 427.562C310.33 428.232 305.67 428.232 301 427.562C299.87 424.822 298.37 422.322 296.5 420.062C295.67 413.382 294.83 406.722 294 400.062C294.11 399.442 294.44 398.942 295 398.562C298.22 397.432 301.39 397.272 304.5 398.062C304.71 399.622 305.21 400.952 306 402.062Z" fill="#0B0B0B"/>
<path fill-rule="evenodd" clip-rule="evenodd" d="M220 423.062C218.19 425.702 215.86 427.872 213 429.562C208.33 430.232 203.67 430.232 199 429.562C196.15 427.002 195.32 423.832 196.5 420.062C200.09 417.032 204.26 415.702 209 416.062C209 410.392 209 404.732 209 399.062C212.8 398.082 216.8 397.742 221 398.062C221.2 406.432 220.87 414.762 220 423.062Z" fill="#080808"/>
</svg>
