<svg width="500" height="500" viewBox="0 0 500 500" fill="none" xmlns="http://www.w3.org/2000/svg">
<path fill-rule="evenodd" clip-rule="evenodd" d="M285 51.0619C308.59 49.0419 330.26 54.3719 350 67.0619C354.97 71.8619 360.14 76.5319 365.5 81.0619C369.17 86.0619 372.83 91.0619 376.5 96.0619C383.11 107.172 386.94 119.172 388 132.062C402.44 149.282 411.78 168.952 416 191.062C417.9 205.232 417.07 219.232 413.5 233.062C411.03 238.632 408.87 244.302 407 250.062C405.15 247.022 403.82 243.692 403 240.062C413.02 211.782 410.52 184.442 395.5 158.062C393.25 155.232 391.25 152.232 389.5 149.062C389.06 155.762 389.06 162.422 389.5 169.062C386.37 170.262 383.2 170.262 380 169.062C377.77 168.182 375.77 166.852 374 165.062C374.32 162.842 373.66 161.002 372 159.562C364.84 155.812 357.84 151.812 351 147.562C343.27 146.202 335.61 144.532 328 142.562C322.34 142.062 316.68 141.892 311 142.062C299.51 142.792 288.01 143.462 276.5 144.062C257.05 142.802 242.22 133.802 232 117.062C229.64 112.452 229.64 107.952 232 103.562C233.33 102.892 234.67 102.892 236 103.562C238.35 112.242 243.02 119.572 250 125.562C254 128.232 258 130.892 262 133.562C266.18 135.192 270.51 136.022 275 136.062C288.33 135.252 301.66 134.582 315 134.062C322.76 134.082 330.42 134.922 338 136.562C347.59 140.762 357.25 144.762 367 148.562C371.41 152.182 375.91 155.682 380.5 159.062C380.19 146.732 379.53 134.402 378.5 122.062C375.7 111.892 371.03 102.552 364.5 94.0619C358.68 87.2719 352.51 80.7719 346 74.5619C314.18 54.3219 282.18 53.9919 250 73.5619C244.02 77.5419 238.69 82.2119 234 87.5619C206.56 83.0319 185.39 92.5319 170.5 116.062C160.83 137.922 154.99 160.762 153 184.562C153.2 192.412 153.7 200.252 154.5 208.062C157 214.522 159 221.192 160.5 228.062C162.17 231.392 163.83 234.732 165.5 238.062C166.17 238.812 167 239.152 168 239.062C167.23 243.262 165.9 247.262 164 251.062C159.44 244.952 155.6 238.282 152.5 231.062C146.77 214.382 143.94 197.222 144 179.562C147.05 159.642 151.89 140.142 158.5 121.062C167.09 100.972 181.59 87.3019 202 80.0619C208.66 79.0619 215.32 78.0619 222 77.0619C225.04 76.9819 227.87 77.6419 230.5 79.0619C234.03 75.1919 237.87 71.6919 242 68.5619C249.97 64.0819 257.97 59.9119 266 56.0619C272.46 54.5119 278.79 52.8419 285 51.0619Z" fill="#DE302F"/>
<path fill-rule="evenodd" clip-rule="evenodd" d="M232 117.062C216.38 125.182 204.55 137.182 196.5 153.062C194.03 158.632 191.87 164.302 190 170.062C190 170.392 190 170.732 190 171.062C186.9 183.392 185.4 196.062 185.5 209.062C179.39 218.962 173.55 228.962 168 239.062C167 239.152 166.17 238.812 165.5 238.062C163.83 234.732 162.17 231.392 160.5 228.062C159 221.192 157 214.522 154.5 208.062C153.7 200.252 153.2 192.412 153 184.562C154.99 160.762 160.83 137.922 170.5 116.062C185.39 92.5319 206.56 83.0319 234 87.5619C238.69 82.2119 244.02 77.5419 250 73.5619C282.18 53.9919 314.18 54.3219 346 74.5619C352.51 80.7719 358.68 87.2719 364.5 94.0619C371.03 102.552 375.7 111.892 378.5 122.062C379.53 134.402 380.19 146.732 380.5 159.062C375.91 155.682 371.41 152.182 367 148.562C357.25 144.762 347.59 140.762 338 136.562C330.42 134.922 322.76 134.082 315 134.062C301.66 134.582 288.33 135.252 275 136.062C270.51 136.022 266.18 135.192 262 133.562C258 130.892 254 128.232 250 125.562C243.02 119.572 238.35 112.242 236 103.562C234.67 102.892 233.33 102.892 232 103.562C229.64 107.952 229.64 112.452 232 117.062Z" fill="#F3423F"/>
<path fill-rule="evenodd" clip-rule="evenodd" d="M232 117.062C242.22 133.802 257.05 142.802 276.5 144.062C288.01 143.462 299.51 142.792 311 142.062C308.7 144.972 305.86 147.302 302.5 149.062C293.37 163.602 292.71 178.602 300.5 194.062C307.35 200.512 315.52 203.512 325 203.062C326.33 203.062 327.67 203.062 329 203.062C331.68 215.422 339.35 220.252 352 217.562C361.86 215.352 369.03 209.852 373.5 201.062C375.67 193.602 373.51 187.762 367 183.562C361.94 181.222 356.94 179.392 352 178.062C353.83 172.452 354.49 166.792 354 161.062C360.06 166.292 366.73 167.622 374 165.062C375.77 166.852 377.77 168.182 380 169.062C384.24 181.662 386.24 194.662 386 208.062C387.31 208.872 388.48 209.872 389.5 211.062C394.6 220.582 399.1 230.242 403 240.062C403.82 243.692 405.15 247.022 407 250.062C408.27 254.862 409.93 259.522 412 264.062C419.55 266.832 422.05 272.172 419.5 280.062C417.76 282.432 415.42 283.762 412.5 284.062C409.5 282.732 406.5 281.392 403.5 280.062C400.96 280.632 398.46 281.302 396 282.062C388.43 282.302 385.6 278.632 387.5 271.062C390.54 269.202 392.04 266.532 392 263.062C391 259.052 390 255.052 389 251.062C388 248.392 387 245.722 386 243.062C384.04 238.142 381.7 233.482 379 229.062C378.49 226.372 377.49 223.872 376 221.562C344.17 220.392 314.67 228.232 287.5 245.062C265.81 238.022 243.98 232.022 222 227.062C231.14 228.582 238.64 225.912 244.5 219.062C246.06 215.052 246.22 211.052 245 207.062C255.86 202.022 263.03 193.692 266.5 182.062C268.29 173.972 266.29 166.972 260.5 161.062C260.01 156.892 258.17 153.392 255 150.562C238.87 143.802 223.2 144.802 208 153.562C205.17 155.812 202.17 157.812 199 159.562C196.14 163.252 193.14 166.752 190 170.062C191.87 164.302 194.03 158.632 196.5 153.062C204.55 137.182 216.38 125.182 232 117.062Z" fill="#FCFCFC"/>
<path fill-rule="evenodd" clip-rule="evenodd" d="M310.999 142.062C316.679 141.892 322.339 142.062 327.999 142.562C335.609 144.532 343.269 146.202 350.999 147.562C357.839 151.812 364.839 155.812 371.999 159.562C373.659 161.002 374.319 162.842 373.999 165.062C366.729 167.622 360.059 166.292 353.999 161.062C354.489 166.792 353.829 172.452 351.999 178.062C349.279 183.182 346.779 188.522 344.499 194.062C338.899 199.452 332.399 202.452 324.999 203.062C315.519 203.512 307.349 200.512 300.499 194.062C292.709 178.602 293.369 163.602 302.499 149.062C305.859 147.302 308.699 144.972 310.999 142.062Z" fill="#050504"/>
<path fill-rule="evenodd" clip-rule="evenodd" d="M245 207.061C240.83 207.251 236.66 207.581 232.5 208.061C229.04 208.291 225.87 207.461 223 205.561C216.52 201.601 212.19 196.101 210 189.061C209.79 187.641 209.29 186.301 208.5 185.061C208.18 179.601 208.01 174.271 208 169.061C204.84 173.051 201.17 176.551 197 179.561C194.69 180.061 192.36 180.221 190 180.061C190 177.061 190 174.061 190 171.061C190 170.731 190 170.391 190 170.061C193.14 166.751 196.14 163.251 199 159.561C202.17 157.811 205.17 155.811 208 153.561C223.2 144.801 238.87 143.801 255 150.561C258.17 153.391 260.01 156.891 260.5 161.061C266.29 166.971 268.29 173.971 266.5 182.061C263.03 193.691 255.86 202.021 245 207.061Z" fill="#050505"/>
<path fill-rule="evenodd" clip-rule="evenodd" d="M312 150.062C316.41 149.182 319.91 150.512 322.5 154.062C322.75 159.072 322.42 164.072 321.5 169.062C317.71 173.022 313.21 174.022 308 172.062C306.75 169.302 304.91 166.972 302.5 165.062C301.76 161.782 302.42 158.782 304.5 156.062C307.34 154.402 309.84 152.402 312 150.062Z" fill="#F3F3F3"/>
<path fill-rule="evenodd" clip-rule="evenodd" d="M403 240.062C399.1 230.242 394.6 220.582 389.5 211.062C388.48 209.872 387.31 208.872 386 208.062C386.24 194.662 384.24 181.662 380 169.062C383.2 170.262 386.37 170.262 389.5 169.062C389.06 162.422 389.06 155.762 389.5 149.062C391.25 152.232 393.25 155.232 395.5 158.062C410.52 184.442 413.02 211.782 403 240.062Z" fill="#F3433F"/>
<path fill-rule="evenodd" clip-rule="evenodd" d="M242 156.061C249.83 154.891 254.16 158.221 255 166.061C254.52 173.711 250.69 178.711 243.5 181.061C237.74 179.131 234.91 175.131 235 169.061C235.64 163.781 237.98 159.451 242 156.061Z" fill="#F5F5F5"/>
<path fill-rule="evenodd" clip-rule="evenodd" d="M210 189.062C207.47 190.862 204.47 192.022 201 192.562C193.96 196.822 191.46 202.982 193.5 211.062C198.9 220.012 206.73 225.342 217 227.062C208.95 226.372 201.28 227.702 194 231.062C190.71 237.972 187.71 244.972 185 252.062C182.2 257.252 179.87 262.752 178 268.562C181.74 273.572 182.74 279.072 181 285.062C175.99 289.062 170.99 289.062 166 285.062C163.15 287.752 160.15 290.252 157 292.562C150.74 294.302 147.08 291.972 146 285.562C148.49 276.072 153.16 267.912 160 261.062C161.9 258.042 163.23 254.712 164 251.062C165.9 247.262 167.23 243.262 168 239.062C173.55 228.962 179.39 218.962 185.5 209.062C185.4 196.062 186.9 183.392 190 171.062C190 174.062 190 177.062 190 180.062C192.36 180.222 194.69 180.062 197 179.562C201.17 176.552 204.84 173.052 208 169.062C208.01 174.272 208.18 179.602 208.5 185.062C209.29 186.302 209.79 187.642 210 189.062Z" fill="#FCFBFB"/>
<path fill-rule="evenodd" clip-rule="evenodd" d="M352 178.062C356.94 179.392 361.94 181.222 367 183.562C373.51 187.762 375.67 193.602 373.5 201.062C369.03 209.852 361.86 215.352 352 217.562C339.35 220.252 331.68 215.422 329 203.062C327.67 203.062 326.33 203.062 325 203.062C332.4 202.452 338.9 199.452 344.5 194.062C346.78 188.522 349.28 183.182 352 178.062Z" fill="#FDE6E3"/>
<path fill-rule="evenodd" clip-rule="evenodd" d="M210 189.062C212.19 196.102 216.52 201.602 223 205.562C225.87 207.462 229.04 208.292 232.5 208.062C236.66 207.582 240.83 207.252 245 207.062C246.22 211.052 246.06 215.052 244.5 219.062C238.64 225.912 231.14 228.582 222 227.062C220.33 227.062 218.67 227.062 217 227.062C206.73 225.342 198.9 220.012 193.5 211.062C191.46 202.982 193.96 196.822 201 192.562C204.47 192.022 207.47 190.862 210 189.062Z" fill="#FDE6E3"/>
<path fill-rule="evenodd" clip-rule="evenodd" d="M299 207.062C305.03 207.562 306.53 210.562 303.5 216.062C301.36 219.502 298.86 222.672 296 225.562C293.8 226.932 291.47 227.272 289 226.562C283.77 224.382 278.6 222.212 273.5 220.062C272.01 215.732 273.51 213.392 278 213.062C282.65 214.902 287.32 216.402 292 217.562C294.22 213.952 296.55 210.452 299 207.062Z" fill="#0E0E0E"/>
<path fill-rule="evenodd" clip-rule="evenodd" d="M379 229.062C381.7 233.482 384.04 238.142 386 243.062C381.82 245.182 377.48 247.012 373 248.562C350.61 253.662 328.61 259.992 307 267.562C302.55 269.292 298.21 271.292 294 273.562C281.64 275.362 269.31 275.032 257 272.562C243.86 269.692 230.86 266.362 218 262.562C208.34 259.652 199.84 254.822 192.5 248.062C189.7 243.352 190.87 240.182 196 238.562C205.77 236.072 215.77 235.402 226 236.562C245.02 240.682 263.69 246.012 282 252.562C285.67 253.232 289.33 253.232 293 252.562C319.01 235.392 347.68 227.552 379 229.062Z" fill="#43C4A2"/>
<path fill-rule="evenodd" clip-rule="evenodd" d="M379 229.061C347.68 227.551 319.01 235.391 293 252.561C289.33 253.231 285.67 253.231 282 252.561C263.69 246.011 245.02 240.681 226 236.561C215.77 235.401 205.77 236.071 196 238.561C190.87 240.181 189.7 243.351 192.5 248.061C199.84 254.821 208.34 259.651 218 262.561C230.86 266.361 243.86 269.691 257 272.561C269.31 275.031 281.64 275.361 294 273.561C298.21 271.291 302.55 269.291 307 267.561C328.61 259.991 350.61 253.661 373 248.561C377.48 247.011 381.82 245.181 386 243.061C387 245.721 388 248.391 389 251.061C387.78 251.591 386.61 252.251 385.5 253.061C377.66 272.431 371.99 292.431 368.5 313.061C368.6 326.431 369.44 339.761 371 353.061C370.78 355.961 371.45 358.631 373 361.061C386.98 347.731 402.98 344.561 421 351.561C423.5 353.231 425.83 355.061 428 357.061C430.64 359.901 431.48 363.231 430.5 367.061C429.06 368.721 427.22 369.381 425 369.061C421.68 367.941 418.35 368.111 415 369.561C409.33 373.891 403.67 378.231 398 382.561C391.66 385.811 385 388.141 378 389.561C374.19 404.021 367.35 416.861 357.5 428.061C356.71 429.301 356.21 430.641 356 432.061C354.35 436.771 353.51 441.771 353.5 447.061C351.77 448.301 349.94 449.301 348 450.061C335.06 443.541 328.73 432.871 329 418.061C329.53 406.341 333.86 396.341 342 388.061C344.17 386.061 346.5 384.231 349 382.561C337.93 379.541 326.93 376.381 316 373.061C305.06 368.971 294.39 364.301 284 359.061C281.68 356.901 279.01 355.231 276 354.061C267.77 348.211 259.44 342.541 251 337.061C243.36 329.591 235.53 322.261 227.5 315.061C210.93 298.261 198.1 278.931 189 257.061C187.43 255.581 186.1 253.921 185 252.061C187.71 244.971 190.71 237.971 194 231.061C201.28 227.701 208.95 226.371 217 227.061C218.67 227.061 220.33 227.061 222 227.061C243.98 232.021 265.81 238.021 287.5 245.061C314.67 228.231 344.17 220.391 376 221.561C377.49 223.871 378.49 226.371 379 229.061Z" fill="#26865B"/>
<path fill-rule="evenodd" clip-rule="evenodd" d="M389 251.062C390 255.052 391 259.052 392 263.062C392.04 266.532 390.54 269.202 387.5 271.062C385.6 278.632 388.43 282.302 396 282.062C395.37 285.052 395.2 288.052 395.5 291.062C397.33 298.402 399.83 305.402 403 312.062C404.01 316.162 405.01 320.162 406 324.062C406.92 330.742 404.59 336.242 399 340.562C390.41 346.372 381.08 350.542 371 353.062C369.44 339.762 368.6 326.432 368.5 313.062C371.99 292.432 377.66 272.432 385.5 253.062C386.61 252.252 387.78 251.592 389 251.062Z" fill="#ED3F3B"/>
<path fill-rule="evenodd" clip-rule="evenodd" d="M367 281.062C363.53 281.012 360.87 282.512 359 285.562C355.67 286.232 352.33 286.232 349 285.562C347 284.892 345.67 283.562 345 281.562C343.33 280.892 341.67 280.892 340 281.562C337.94 284.072 336.44 286.902 335.5 290.062C334.54 291.452 333.21 292.122 331.5 292.062C327.85 291.092 324.69 289.252 322 286.562C320.67 285.892 319.33 285.892 318 286.562C315 290.232 312 293.892 309 297.562C302.65 300.612 297.65 299.282 294 293.562C292 292.892 290 292.892 288 293.562C285.25 297.492 281.58 299.992 277 301.062C272.68 298.572 268.52 295.902 264.5 293.062C261.1 294.782 257.93 296.952 255 299.562C246.99 301.812 241.83 298.982 239.5 291.062C234.01 287.882 230.18 289.382 228 295.562C226.67 296.232 225.33 296.232 224 295.562C223.03 294.082 221.7 293.252 220 293.062C213.93 284.592 208.1 275.932 202.5 267.062C201.81 266.232 201.98 265.562 203 265.062C204.84 266.482 206.84 267.652 209 268.562C220.32 272.112 231.65 275.442 243 278.562C256.4 281.092 269.9 282.922 283.5 284.062C293.02 283.382 301.86 280.552 310 275.562C318.17 273.482 326.17 270.812 334 267.562C347.11 263.312 360.44 259.812 374 257.062C374.33 257.392 374.67 257.732 375 258.062C371.93 265.592 369.27 273.262 367 281.062Z" fill="#2CA190"/>
<path fill-rule="evenodd" clip-rule="evenodd" d="M185 252.062C186.1 253.922 187.43 255.582 189 257.062C198.1 278.932 210.93 298.262 227.5 315.062C235.53 322.262 243.36 329.592 251 337.062C245.12 337.172 239.46 336.172 234 334.062C228.23 332.342 222.56 330.342 217 328.062C214.06 326.252 211.06 324.422 208 322.562C204.42 318.482 200.42 314.982 196 312.062C192.55 307.962 189.55 303.622 187 299.062C185 294.392 183 289.732 181 285.062C182.74 279.072 181.74 273.572 178 268.562C179.87 262.752 182.2 257.252 185 252.062Z" fill="#E53735"/>
<path fill-rule="evenodd" clip-rule="evenodd" d="M367 281.061C365.81 285.111 364.81 289.111 364 293.061C364.07 292.621 363.9 292.291 363.5 292.061C361.28 294.561 358.45 295.561 355 295.061C351.5 295.161 348.17 294.491 345 293.061C338.08 300.751 330.08 302.081 321 297.061C312.74 308.841 302.41 311.171 290 304.061C284.48 308.681 278.14 310.181 271 308.561C268.54 307.101 266.37 305.271 264.5 303.061C253.96 311.681 244.13 311.021 235 301.061C233.36 302.261 231.69 303.261 230 304.061C226.7 300.421 223.36 296.751 220 293.061C221.7 293.251 223.03 294.081 224 295.561C225.33 296.231 226.67 296.231 228 295.561C230.18 289.381 234.01 287.881 239.5 291.061C241.83 298.981 246.99 301.811 255 299.561C257.93 296.951 261.1 294.781 264.5 293.061C268.52 295.901 272.68 298.571 277 301.061C281.58 299.991 285.25 297.491 288 293.561C290 292.891 292 292.891 294 293.561C297.65 299.281 302.65 300.611 309 297.561C312 293.891 315 290.231 318 286.561C319.33 285.891 320.67 285.891 322 286.561C324.69 289.251 327.85 291.091 331.5 292.061C333.21 292.121 334.54 291.451 335.5 290.061C336.44 286.901 337.94 284.071 340 281.561C341.67 280.891 343.33 280.891 345 281.561C345.67 283.561 347 284.891 349 285.561C352.33 286.231 355.67 286.231 359 285.561C360.87 282.511 363.53 281.011 367 281.061Z" fill="#289578"/>
<path fill-rule="evenodd" clip-rule="evenodd" d="M364 293.062C363 297.722 362 302.392 361 307.062C357.64 308.892 354.14 310.562 350.5 312.062C348.22 310.532 345.72 310.032 343 310.562C339.18 316.472 333.84 319.142 327 318.562C325.35 315.072 322.69 313.742 319 314.562C316.22 317.602 314.05 321.102 312.5 325.062C311.5 325.732 310.5 326.392 309.5 327.062C306.11 324.492 302.94 321.822 300 319.062C299.33 319.232 298.67 319.392 298 319.562C295.7 322.862 293.04 325.862 290 328.562C286.67 329.232 283.33 329.232 280 328.562C277.41 325.462 274.41 322.962 271 321.062C267.74 322.962 264.91 325.292 262.5 328.062C259.32 326.062 255.82 325.062 252 325.062C244.01 318.732 236.67 311.732 230 304.062C231.69 303.262 233.36 302.262 235 301.062C244.13 311.022 253.96 311.682 264.5 303.062C266.37 305.272 268.54 307.102 271 308.562C278.14 310.182 284.48 308.682 290 304.062C302.41 311.172 312.74 308.842 321 297.062C330.08 302.082 338.08 300.752 345 293.062C348.17 294.492 351.5 295.162 355 295.062C358.45 295.562 361.28 294.562 363.5 292.062C363.9 292.292 364.07 292.622 364 293.062Z" fill="#2CA190"/>
<path fill-rule="evenodd" clip-rule="evenodd" d="M361 307.062C360.11 312.002 359.77 317.002 360 322.062C359.34 321.162 358.68 320.162 358 319.062C353.48 320.612 348.82 321.452 344 321.562C338 327.952 331 329.452 323 326.062C320.51 329.392 317.51 332.222 314 334.562C308.51 335.922 303.67 334.752 299.5 331.062C293.87 337.702 286.71 339.872 278 337.562C275.86 336.252 273.86 334.752 272 333.062C270.59 334.412 269.26 335.742 268 337.062C261.81 334.212 256.48 330.212 252 325.062C255.82 325.062 259.32 326.062 262.5 328.062C264.91 325.292 267.74 322.962 271 321.062C274.41 322.962 277.41 325.462 280 328.562C283.33 329.232 286.67 329.232 290 328.562C293.04 325.862 295.7 322.862 298 319.562C298.67 319.392 299.33 319.232 300 319.062C302.94 321.822 306.11 324.492 309.5 327.062C310.5 326.392 311.5 325.732 312.5 325.062C314.05 321.102 316.22 317.602 319 314.562C322.69 313.742 325.35 315.072 327 318.562C333.84 319.142 339.18 316.472 343 310.562C345.72 310.032 348.22 310.532 350.5 312.062C354.14 310.562 357.64 308.892 361 307.062Z" fill="#289578"/>
<path fill-rule="evenodd" clip-rule="evenodd" d="M177 346.062C193.73 356.202 200.9 371.202 198.5 391.062C196.86 396.342 194.69 401.342 192 406.062C185.86 416.362 177.36 424.032 166.5 429.062C165.24 431.922 163.74 434.582 162 437.062C153.8 441.822 146.47 440.652 140 433.562C134.61 432.342 130.11 433.842 126.5 438.062C122.82 438.852 119.32 440.022 116 441.562C112.7 446.712 108.03 448.882 102 448.062C101.33 448.062 100.67 448.062 99.9997 448.062C93.4697 442.032 88.6297 434.702 85.4997 426.062C81.4997 422.732 77.4997 419.392 73.4997 416.062C71.7297 413.652 70.5597 410.982 69.9997 408.062C69.5497 403.332 71.2097 399.502 74.9997 396.562C81.2097 393.172 87.8797 391.342 94.9997 391.062C95.4097 383.432 97.0697 376.102 99.9997 369.062C95.3297 367.852 90.6597 366.682 85.9997 365.562C82.7397 362.112 82.2397 358.282 84.4997 354.062C88.2597 347.822 91.7597 341.492 94.9997 335.062C96.6797 327.882 101.01 323.042 108 320.562C123.71 313.482 137.21 316.312 148.5 329.062C150.66 333.082 150.49 336.912 148 340.562C157.98 340.842 167.65 342.672 177 346.062Z" fill="#53B3CC"/>
<path fill-rule="evenodd" clip-rule="evenodd" d="M360 322.062C360 323.732 360 325.392 360 327.062C360.29 328.852 359.95 330.512 359 332.062C355.72 337.092 352.05 341.922 348 346.562C343.36 348.592 339.36 347.592 336 343.562C333.19 342.642 331.03 343.472 329.5 346.062C330.2 352.032 327.7 354.532 322 353.562C314.49 346.482 309.66 347.982 307.5 358.062C306.83 358.812 306 359.152 305 359.062C291.53 353.502 279.2 346.172 268 337.062C269.26 335.742 270.59 334.412 272 333.062C273.86 334.752 275.86 336.252 278 337.562C286.71 339.872 293.87 337.702 299.5 331.062C303.67 334.752 308.51 335.922 314 334.562C317.51 332.222 320.51 329.392 323 326.062C331 329.452 338 327.952 344 321.562C348.82 321.452 353.48 320.612 358 319.062C358.68 320.162 359.34 321.162 360 322.062Z" fill="#2CA190"/>
<path fill-rule="evenodd" clip-rule="evenodd" d="M123 321.062C136.01 321.692 144.01 328.192 147 340.562C128.22 341.702 113.06 349.532 101.5 364.062C97.7103 363.332 93.8703 362.832 90.0003 362.562C88.1003 360.752 87.6003 358.592 88.5003 356.062C90.3803 351.522 93.0503 347.522 96.5003 344.062C98.2803 338.492 100.62 333.162 103.5 328.062C109.85 325.022 116.35 322.692 123 321.062Z" fill="#41D4FE"/>
<path fill-rule="evenodd" clip-rule="evenodd" d="M194 378.062C190.12 379.582 186.12 380.912 182 382.062C179.56 381.962 177.56 380.962 176 379.062C174.67 379.732 173.67 380.732 173 382.062C175.12 385.572 176.79 389.242 178 393.062C179.82 391.432 181.15 389.432 182 387.062C186.09 385.922 190.09 384.592 194 383.062C192.23 400.672 183.73 414.002 168.5 423.062C168.73 408.592 161.9 403.422 148 407.562C141.95 409.332 136.78 412.502 132.5 417.062C132.32 420.112 131.82 423.112 131 426.062C113.65 419.392 103.31 407.062 99.9999 389.062C99.7899 383.222 101.13 377.892 104 373.062C107.89 385.332 114.22 396.172 123 405.562C128.58 406.822 130.41 404.652 128.5 399.062C119.16 387.372 113.99 374.042 113 359.062C115.69 356.382 118.69 354.042 122 352.062C125.32 362.372 129.48 372.372 134.5 382.062C135.98 385.582 138.48 387.412 142 387.562C143.39 386.602 144.06 385.272 144 383.562C142.1 379.932 140.6 376.092 139.5 372.062C138.47 363.412 137.63 354.742 137 346.062C151.69 343.792 165.69 345.952 179 352.562C187.23 359.192 192.23 367.692 194 378.062Z" fill="#F3ED8C"/>
<path fill-rule="evenodd" clip-rule="evenodd" d="M137 346.062C137.63 354.742 138.47 363.412 139.5 372.062C140.6 376.092 142.1 379.932 144 383.562C144.06 385.272 143.39 386.602 142 387.562C138.48 387.412 135.98 385.582 134.5 382.062C129.48 372.372 125.32 362.372 122 352.062C126.84 349.672 131.84 347.672 137 346.062Z" fill="#46D5FB"/>
<path fill-rule="evenodd" clip-rule="evenodd" d="M397 356.062C404.03 355.362 410.69 356.532 417 359.562C414.12 361.082 411.12 362.412 408 363.562C401.07 370.492 393.07 375.832 384 379.562C378.44 379.082 373.6 380.582 369.5 384.062C367.75 393.962 364.42 403.302 359.5 412.062C351.78 419.162 346.95 427.832 345 438.062C335.76 426.492 334.93 414.162 342.5 401.062C345.3 397.262 348.46 393.762 352 390.562C359.17 386.782 365.83 382.452 372 377.562C377.43 366.962 385.76 359.802 397 356.062Z" fill="#42C4A2"/>
<path fill-rule="evenodd" clip-rule="evenodd" d="M360 327.062C361.21 336.252 362.38 345.592 363.5 355.062C364.33 361.092 364.16 367.092 363 373.062C355.58 374.442 348.24 373.942 341 371.562C332.14 368.362 323.14 365.702 314 363.562C310.91 362.012 307.91 360.512 305 359.062C306 359.152 306.83 358.812 307.5 358.062C309.66 347.982 314.49 346.482 322 353.562C327.7 354.532 330.2 352.032 329.5 346.062C331.03 343.472 333.19 342.642 336 343.562C339.36 347.592 343.36 348.592 348 346.562C352.05 341.922 355.72 337.092 359 332.062C359.95 330.512 360.29 328.852 360 327.062Z" fill="#29997F"/>
<path fill-rule="evenodd" clip-rule="evenodd" d="M113 359.062C113.99 374.042 119.16 387.372 128.5 399.062C130.41 404.652 128.58 406.822 123 405.562C114.22 396.172 107.89 385.332 104 373.062C105.39 367.342 108.39 362.672 113 359.062Z" fill="#44D5FC"/>
<path fill-rule="evenodd" clip-rule="evenodd" d="M170 358.061C171.91 358.131 173.08 359.131 173.5 361.061C175 370.231 171.17 374.061 162 372.561C157.71 368.791 156.88 364.291 159.5 359.061C162.95 356.941 166.45 356.601 170 358.061Z" fill="#454547"/>
<path fill-rule="evenodd" clip-rule="evenodd" d="M169.999 358.062C172.379 363.462 170.709 365.962 164.999 365.562C161.639 363.532 161.309 361.192 163.999 358.562C165.969 358.062 167.969 357.902 169.999 358.062Z" fill="#F4F4F4"/>
<path fill-rule="evenodd" clip-rule="evenodd" d="M163 368.062C164 368.062 165 368.062 166 368.062C166 369.392 166 370.732 166 372.062C162.55 372.292 161.55 370.962 163 368.062Z" fill="#F4F4F4"/>
<path fill-rule="evenodd" clip-rule="evenodd" d="M194 378.062C194 379.732 194 381.392 194 383.062C190.09 384.592 186.09 385.922 182 387.062C181.15 389.432 179.82 391.432 178 393.062C176.79 389.242 175.12 385.572 173 382.062C173.67 380.732 174.67 379.732 176 379.062C177.56 380.962 179.56 381.962 182 382.062C186.12 380.912 190.12 379.582 194 378.062Z" fill="#4A4949"/>
<path fill-rule="evenodd" clip-rule="evenodd" d="M87.0001 396.061C90.1501 395.771 93.1501 396.271 96.0001 397.561C100.97 408.861 108.47 418.031 118.5 425.061C118.41 428.261 117.41 431.261 115.5 434.061C113 437.591 110.17 440.761 107 443.561C102.95 444.121 99.7801 442.621 97.5001 439.061C94.3101 434.011 91.6401 428.671 89.5001 423.061C84.2401 419.811 79.5801 415.811 75.5001 411.061C74.0601 406.351 75.2201 402.511 79.0001 399.561C81.6601 398.081 84.3201 396.921 87.0001 396.061Z" fill="#41D4FE"/>
<path fill-rule="evenodd" clip-rule="evenodd" d="M155.001 410.062C157.601 410.112 159.771 411.112 161.501 413.062C164.541 421.262 163.041 428.432 157.001 434.562C154.331 435.232 151.671 435.232 149.001 434.562C145.831 432.812 142.831 430.812 140.001 428.562C134.351 423.672 134.681 419.342 141.001 415.562C145.661 413.402 150.331 411.572 155.001 410.062Z" fill="#41D4FD"/>
</svg>
