<svg width="500" height="500" viewBox="0 0 500 500" fill="none" xmlns="http://www.w3.org/2000/svg">
<path fill-rule="evenodd" clip-rule="evenodd" d="M345 146.061C343.49 148.811 341.49 151.151 339 153.061C329.85 158.951 319.85 162.781 309 164.561C295.69 166.351 282.36 168.021 269 169.561C244.49 171.141 220.15 169.811 196 165.561C190.69 163.571 185.69 161.071 181 158.061C178.35 156.111 176.68 153.451 176 150.061C176.75 141.461 180.42 134.291 187 128.561C193 124.231 199 119.891 205 115.561C212.72 111.711 220.72 108.541 229 106.061C231.72 73.1714 248.05 63.6714 278 77.5614C288.78 84.6314 292.78 94.4614 290 107.061C308.07 108.531 323.9 115.201 337.5 127.061C342.78 132.291 345.28 138.621 345 146.061Z" fill="#3685CA"/>
<path fill-rule="evenodd" clip-rule="evenodd" d="M253 80.0613C262.91 79.9713 271.41 83.3013 278.5 90.0613C282.31 94.6013 282.98 99.6013 280.5 105.061C272.44 118.301 261.27 122.141 247 116.561C238.89 110.111 236.73 101.951 240.5 92.0613C242.65 85.7413 246.81 81.7413 253 80.0613Z" fill="#0196F5"/>
<path fill-rule="evenodd" clip-rule="evenodd" d="M230 115.061C231.37 114.901 232.71 115.071 234 115.561C244.03 128.571 256.7 131.901 272 125.561C276.97 122.171 281.81 118.671 286.5 115.061C303.58 116.741 318.58 123.081 331.5 134.061C333.64 136.371 335.14 139.031 336 142.061C334.55 144.021 332.88 145.851 331 147.561C324.96 150.681 318.63 153.021 312 154.561C275.52 161.971 238.85 162.971 202 157.561C196.03 156.161 190.53 153.661 185.5 150.061C185.11 146.881 185.78 143.881 187.5 141.061C199.55 128.831 213.71 120.171 230 115.061Z" fill="#0096F5"/>
<path fill-rule="evenodd" clip-rule="evenodd" d="M225 121.062C230.34 120.572 232.84 122.902 232.5 128.062C226.07 132.532 219.24 136.362 212 139.562C207.96 143.882 203.63 147.722 199 151.062C195.15 149.702 193.65 147.032 194.5 143.062C202.87 133.192 213.03 125.852 225 121.062Z" fill="#54B8F8"/>
<path fill-rule="evenodd" clip-rule="evenodd" d="M345 146.061C355.45 151.001 364.279 158.002 371.499 167.062C404.949 162.122 429.619 174.452 445.499 204.062C453.689 236.792 446.189 265.292 422.999 289.562C418.329 292.892 413.669 296.232 408.999 299.562C403.259 302.162 397.259 303.832 390.999 304.562C382.289 317.612 371.789 329.112 359.499 339.062C359.039 339.652 358.869 340.322 358.999 341.062C356.049 342.682 353.379 344.682 350.999 347.062C339.349 355.882 326.349 362.052 311.999 365.562C265.029 378.112 221.029 371.612 179.999 346.062C177.009 344.072 174.009 342.072 170.999 340.062C157.329 328.892 145.159 316.222 134.499 302.062C132.589 297.902 130.419 293.902 127.999 290.062C108.279 286.622 92.4495 276.962 80.4995 261.062C76.5495 253.892 74.2195 246.222 73.4995 238.062C71.7995 222.412 70.4595 206.742 69.4995 191.062C65.8195 181.382 60.4795 172.712 53.4995 165.062C49.7095 159.622 50.2095 154.792 54.9995 150.562C71.5595 147.512 87.5595 149.342 102.999 156.062C107.409 166.562 111.579 177.232 115.499 188.062C120.079 195.972 126.079 202.642 133.499 208.062C140.139 183.062 154.31 163.731 176 150.061C176.68 153.451 178.35 156.111 181 158.061C164.79 166.781 153.289 179.782 146.499 197.062C144.159 203.742 141.829 210.402 139.499 217.062C135.389 218.652 131.559 218.152 127.999 215.562C121.759 209.992 116.259 203.822 111.499 197.062C106.279 185.392 101.439 173.562 96.9995 161.562C84.6695 156.892 71.9995 155.392 58.9995 157.062C58.8395 158.432 59.0095 159.772 59.4995 161.062C68.6695 170.402 75.0095 181.402 78.4995 194.062C78.7395 211.222 80.4095 228.222 83.4995 245.062C88.8495 259.082 98.3495 269.252 111.999 275.562C119.249 277.982 126.579 279.982 133.999 281.562C154.929 320.812 186.929 346.472 229.999 358.562C263.409 365.142 296.069 362.482 327.999 350.562C336.539 346.012 344.539 340.682 351.999 334.562C364.819 323.082 376.149 310.422 385.999 296.562C410.789 292.112 427.289 277.942 435.499 254.062C440.989 238.152 441.329 222.152 436.499 206.062C427.369 188.932 413.199 178.772 393.999 175.562C385.299 175.062 376.639 175.062 367.999 175.562C362.709 169.942 357.049 164.612 350.999 159.562C347.129 157.132 343.13 154.961 339 153.061C341.49 151.151 343.49 148.811 345 146.061Z" fill="#51B4CD"/>
<path fill-rule="evenodd" clip-rule="evenodd" d="M339 153.061C343.13 154.961 347.129 157.132 350.999 159.562C357.049 164.612 362.709 169.942 367.999 175.562C376.639 175.062 385.299 175.062 393.999 175.562C413.199 178.772 427.369 188.932 436.499 206.062C441.329 222.152 440.989 238.152 435.499 254.062C427.289 277.942 410.789 292.112 385.999 296.562C376.149 310.422 364.819 323.082 351.999 334.562C344.539 340.682 336.539 346.012 327.999 350.562C296.069 362.482 263.409 365.142 229.999 358.562C186.929 346.472 154.929 320.812 133.999 281.562C126.579 279.982 119.249 277.982 111.999 275.562C98.3495 269.252 88.8495 259.082 83.4995 245.062C80.4095 228.222 78.7395 211.222 78.4995 194.062C75.0095 181.402 68.6695 170.402 59.4995 161.062C59.0095 159.772 58.8395 158.432 58.9995 157.062C71.9995 155.392 84.6695 156.892 96.9995 161.562C101.439 173.562 106.279 185.392 111.499 197.062C116.259 203.822 121.759 209.992 127.999 215.562C131.559 218.152 135.389 218.652 139.499 217.062C141.829 210.402 144.159 203.742 146.499 197.062C153.289 179.782 164.79 166.781 181 158.061C185.69 161.071 190.69 163.571 196 165.561C220.15 169.811 244.49 171.141 269 169.561C282.36 168.021 295.69 166.351 309 164.561C319.85 162.781 329.85 158.951 339 153.061Z" fill="#A7E5FE"/>
<path fill-rule="evenodd" clip-rule="evenodd" d="M176 165.061C181.57 164.311 183.4 166.651 181.5 172.061C176.53 178.371 171.53 184.701 166.5 191.061C163.23 197.271 160.23 203.611 157.5 210.061C153.62 213.051 150.79 212.211 149 207.561C154.39 190.921 163.39 176.751 176 165.061Z" fill="#C4EEFF"/>
<path fill-rule="evenodd" clip-rule="evenodd" d="M87.0005 199.062C89.2205 198.742 91.0605 199.402 92.5005 201.062C91.2105 223.542 98.7105 242.382 115.001 257.562C120.241 259.762 125.081 262.602 129.501 266.062C129.451 272.412 126.291 274.582 120.001 272.562C99.7006 262.242 87.8605 245.742 84.5005 223.062C83.8305 216.392 83.8305 209.732 84.5005 203.062C85.1605 201.582 86.0005 200.242 87.0005 199.062Z" fill="#C3EDFF"/>
<path fill-rule="evenodd" clip-rule="evenodd" d="M336 241.062C333.17 239.082 330.17 237.252 327 235.562C319 233.232 311 230.892 303 228.562C287.03 225.802 276.86 232.302 272.5 248.062C268.46 276.022 280.29 287.852 308 283.562C312.13 281.422 315.63 278.592 318.5 275.062C321.44 268.842 324.11 262.512 326.5 256.062C326.19 253.012 326.35 250.012 327 247.062C330.96 250.702 335.62 252.702 341 253.062C344.98 277.942 335.65 295.772 313 306.562C304.18 309.122 295.18 310.792 286 311.562C258.73 314.762 231.73 313.422 205 307.562C185.86 298.142 176.86 282.642 178 261.062C176.71 261.302 175.71 260.962 175 260.062C181.12 258.402 186.28 255.072 190.5 250.062C190.11 254.692 190.11 259.362 190.5 264.062C192.31 275.202 198.48 282.702 209 286.562C219.64 288.292 228.81 285.452 236.5 278.062C238.92 273.562 241.58 269.232 244.5 265.062C245.17 260.732 245.17 256.392 244.5 252.062C240.65 246.812 237.82 241.142 236 235.062C221.35 227.222 206.69 227.222 192 235.062C193.21 232.262 195.21 230.102 198 228.562C219.78 214.802 243.45 210.142 269 214.562C283.25 215.482 297.25 217.812 311 221.562C321.24 225.632 329.57 232.132 336 241.062Z" fill="#FCFCFD"/>
<path fill-rule="evenodd" clip-rule="evenodd" d="M336 241.062C338.68 243.162 341.51 245.161 344.5 247.061C345.89 250.781 344.73 252.782 341 253.062C335.62 252.702 330.96 250.702 327 247.062C326.35 250.012 326.19 253.012 326.5 256.062C324.11 262.512 321.44 268.842 318.5 275.062C315.63 278.592 312.13 281.422 308 283.562C280.29 287.852 268.46 276.022 272.5 248.062C276.86 232.302 287.03 225.802 303 228.562C311 230.892 319 233.232 327 235.562C330.17 237.252 333.17 239.082 336 241.062Z" fill="#040404"/>
<path fill-rule="evenodd" clip-rule="evenodd" d="M175 260.062C172.27 256.002 172.43 252.002 175.5 248.062C180.01 242.372 185.51 238.042 192 235.062C206.69 227.222 221.35 227.222 236 235.062C237.82 241.142 240.65 246.812 244.5 252.062C245.17 256.392 245.17 260.732 244.5 265.062C241.58 269.232 238.92 273.562 236.5 278.062C228.81 285.452 219.64 288.292 209 286.562C198.48 282.702 192.31 275.202 190.5 264.062C190.11 259.362 190.11 254.692 190.5 250.062C186.28 255.072 181.12 258.402 175 260.062Z" fill="#040404"/>
<path fill-rule="evenodd" clip-rule="evenodd" d="M289 235.061C294.28 234.841 297.28 237.341 298 242.561C297.5 246.061 297 249.561 296.5 253.061C292.71 257.411 288.38 258.081 283.5 255.061C282.55 253.101 281.21 251.441 279.5 250.061C278.5 246.351 279.17 243.021 281.5 240.061C284.43 238.951 286.93 237.291 289 235.061Z" fill="#F5F5F5"/>
<path fill-rule="evenodd" clip-rule="evenodd" d="M223 239.061C232.46 238.931 235.96 243.601 233.5 253.061C226.17 265.501 220 265.001 215 251.561C216.06 246.251 218.73 242.081 223 239.061Z" fill="#F6F6F6"/>
<path fill-rule="evenodd" clip-rule="evenodd" d="M153 284.061C157.26 283.161 159.76 284.821 160.5 289.061C175.12 306.791 192.95 320.291 214 329.561C222 332.891 230 336.231 238 339.561C242.1 344.551 240.93 347.711 234.5 349.061C224.44 347.121 214.94 343.621 206 338.561C186.13 327.371 168.63 313.201 153.5 296.061C150.54 292.051 150.37 288.051 153 284.061Z" fill="#C3EDFF"/>
<path fill-rule="evenodd" clip-rule="evenodd" d="M274 288.062C277.28 287.872 279.28 289.372 280 292.562C278.08 297.062 275.42 301.062 272 304.562C269.47 305.982 266.8 306.312 264 305.562C259.67 303.732 255.33 301.892 251 300.062C248.62 293.942 250.62 291.772 257 293.562C260 295.062 263 296.562 266 298.062C269.14 295.102 271.81 291.772 274 288.062Z" fill="#0A0A0A"/>
<path fill-rule="evenodd" clip-rule="evenodd" d="M170.999 340.062C174.009 342.072 177.009 344.072 179.999 346.062C178.869 348.532 178.7 351.192 179.5 354.062C182.89 362.122 188.39 368.282 196 372.562C207.27 379.622 219.6 383.952 233 385.562C262.82 390.372 292.15 388.372 321 379.562C331.09 376.452 339.93 371.292 347.5 364.062C350.84 358.642 352.009 352.972 350.999 347.062C353.379 344.682 356.049 342.682 358.999 341.062C362.929 358.712 356.93 371.872 341 380.562C331.38 385.622 321.38 389.452 311 392.062C306.68 391.472 302.68 392.472 299 395.062C288.51 395.762 278.01 396.432 267.5 397.062C256 396.292 244.5 395.632 233 395.062C229.33 393.512 225.5 392.182 221.5 391.062C221.1 391.292 220.93 391.622 221 392.062C204.24 388.762 189.74 381.092 177.5 369.062C171.73 361.322 169.07 352.652 169.5 343.062C169.73 341.822 170.229 340.822 170.999 340.062Z" fill="#3785CA"/>
<path fill-rule="evenodd" clip-rule="evenodd" d="M179.999 346.062C221.029 371.612 265.029 378.112 311.999 365.562C326.349 362.052 339.349 355.882 350.999 347.062C352.009 352.972 350.84 358.642 347.5 364.062C339.93 371.292 331.09 376.452 321 379.562C292.15 388.372 262.82 390.372 233 385.562C219.6 383.952 207.27 379.622 196 372.562C188.39 368.282 182.89 362.122 179.5 354.062C178.7 351.192 178.869 348.532 179.999 346.062Z" fill="#0196F5"/>
<path fill-rule="evenodd" clip-rule="evenodd" d="M311 392.062C311.49 399.132 312.49 406.132 314 413.062C317.68 411.892 321.35 412.062 325 413.562C330.82 419.152 330.15 423.822 323 427.562C319 428.232 315 428.232 311 427.562C307.86 425.752 305.02 423.582 302.5 421.062C300.75 412.462 299.58 403.792 299 395.062C302.68 392.472 306.68 391.472 311 392.062Z" fill="#050505"/>
<path fill-rule="evenodd" clip-rule="evenodd" d="M233 395.062C233.24 404.132 233.24 413.132 233 422.062C231.83 423.142 230.5 423.982 229 424.562C221.23 425.492 213.56 425.162 206 423.562C203.42 419.742 203.75 416.072 207 412.562C211.54 411.182 216.2 410.682 221 411.062C221 404.732 221 398.392 221 392.062C220.93 391.622 221.1 391.292 221.5 391.062C225.5 392.182 229.33 393.512 233 395.062Z" fill="#040404"/>
<path fill-rule="evenodd" clip-rule="evenodd" d="M389 196.062C401.73 197.942 410.57 204.942 415.5 217.062C421.39 231.642 420.72 245.972 413.5 260.062C409.02 265.802 403.35 268.802 396.5 269.062C396.33 245.892 393.5 223.062 388 200.562C388.11 198.972 388.44 197.472 389 196.062ZM398 209.062C402.53 224.352 404.7 240.022 404.5 256.062C407.25 252.562 408.92 248.562 409.5 244.062C412.32 230.042 408.49 218.372 398 209.062Z" fill="#52B4CD"/>
</svg>
