<svg width="500" height="500" viewBox="0 0 500 500" fill="none" xmlns="http://www.w3.org/2000/svg">
<path fill-rule="evenodd" clip-rule="evenodd" d="M451 245.061C448.02 248.321 445.02 251.651 442 255.061C440.13 256.331 438.3 256.331 436.5 255.061C435.76 252.611 435.26 250.111 435 247.561C436.27 242.651 437.94 237.811 440 233.061C441.16 227.421 441.33 221.761 440.5 216.061C430.31 201.701 427.47 186.031 432 169.061C431.5 168.731 431 168.391 430.5 168.061C411.57 179.811 390.9 186.151 368.5 187.061C364.42 187.041 360.42 186.711 356.5 186.061C355.83 184.391 355.83 182.731 356.5 181.061C364.01 177.551 370.34 172.551 375.5 166.061C381.93 156.191 388.1 146.191 394 136.061C393.67 135.391 393.33 134.731 393 134.061C371.29 138.751 349.29 141.251 327 141.561C324.86 142.851 322.52 143.681 320 144.061C314.25 146.491 310.58 144.651 309 138.561C308.94 136.851 309.61 135.521 311 134.561C317.22 132.421 323.56 130.421 330 128.561C338.17 123.641 346.51 118.971 355 114.561C369.3 113.021 383.63 112.691 398 113.561C402.18 114.511 406.18 115.841 410 117.561C413.59 120.141 417.42 122.311 421.5 124.061C424.85 120.381 428.51 117.051 432.5 114.061C435.67 110.231 438.83 106.391 442 102.561C447.56 99.8914 452.56 100.551 457 104.561C461.33 108.441 464.16 112.941 465.5 118.061C463.25 123.561 460.25 128.561 456.5 133.061C452.29 136.941 448.45 141.111 445 145.561C453.6 159.591 460.43 174.421 465.5 190.061C468.9 202.131 468.73 214.131 465 226.061C460.57 232.591 455.9 238.921 451 245.061Z" fill="#3FA543"/>
<path fill-rule="evenodd" clip-rule="evenodd" d="M451 245.062C449.2 249.332 447.37 253.662 445.5 258.062C434.43 271.862 424.1 286.202 414.5 301.062C402.7 311.192 391.2 321.692 380 332.562C377.44 334.342 374.77 335.842 372 337.062C372.07 329.362 371.57 321.692 370.5 314.062C369.19 311.252 367.03 310.422 364 311.562C362.52 312.862 361.85 314.532 362 316.562C364.61 325.692 364.61 334.862 362 344.062C351.02 348.312 339.69 351.312 328 353.062C323.25 352.742 318.91 353.742 315 356.062C298.26 357.892 281.59 360.222 265 363.062C263.28 361.762 261.11 361.092 258.5 361.062C256.14 361.062 253.97 361.402 252 362.062C227.96 360.162 204.29 356.332 181 350.562C136.54 337.462 98.04 314.292 65.5 281.062C57.12 271.682 49.12 262.022 41.5 252.062C39.21 246.662 37.04 241.322 35 236.062C34.53 230.142 33.53 224.302 32 218.562C32.71 216.022 34.04 213.852 36 212.062C38.61 208.132 42.27 206.632 47 207.562C55.21 214.162 63.87 219.992 73 225.062C75.41 227.452 78.08 229.612 81 231.562C85.83 233.982 90.83 235.812 96 237.062C98.95 238.252 101.95 239.252 105 240.062C108.7 241.652 112.7 242.482 117 242.562C127.51 243.392 137.84 243.222 148 242.062C171.65 237.502 194.32 230.002 216 219.562C239.08 204.352 261.08 187.682 282 169.562C295.12 161.592 307.78 153.092 320 144.062C322.52 143.682 324.86 142.852 327 141.562C349.29 141.252 371.29 138.752 393 134.062C393.33 134.732 393.67 135.392 394 136.062C388.1 146.192 381.93 156.192 375.5 166.062C370.34 172.552 364.01 177.552 356.5 181.062C355.83 182.732 355.83 184.392 356.5 186.062C360.42 186.712 364.42 187.042 368.5 187.062C390.9 186.152 411.57 179.812 430.5 168.062C431 168.392 431.5 168.732 432 169.062C427.47 186.032 430.31 201.702 440.5 216.062C441.33 221.762 441.16 227.422 440 233.062C437.94 237.812 436.27 242.652 435 247.562C435.26 250.112 435.76 252.612 436.5 255.062C438.3 256.332 440.13 256.332 442 255.062C445.02 251.652 448.02 248.322 451 245.062Z" fill="#FE401F"/>
<path fill-rule="evenodd" clip-rule="evenodd" d="M350 260.062C342.89 258.192 335.89 256.022 329 253.562C316.16 251.222 308.66 256.382 306.5 269.062C303.69 288.922 312.19 297.422 332 294.562C335.28 293.002 338.12 290.832 340.5 288.062C341.31 285.112 342.64 282.452 344.5 280.062C345.37 275.742 346.2 271.402 347 267.062C349.89 269.442 353.22 270.772 357 271.062C358.41 286.582 352.57 298.582 339.5 307.062C312.7 314.852 285.54 316.022 258 310.562C242.16 304.552 233.83 293.052 233 276.062C235.15 276.192 237.15 275.692 239 274.562C240.52 272.872 242.18 271.372 244 270.062C244.21 272.952 244.38 275.952 244.5 279.062C245.94 286.842 250.11 292.672 257 296.562C261.67 297.232 266.33 297.232 271 296.562C276.88 292.522 281.54 287.352 285 281.062C286.16 277.442 286.33 273.772 285.5 270.062C282.61 266.102 280.11 261.942 278 257.562C271.38 254.422 264.38 253.252 257 254.062C259.17 252.762 261.51 251.592 264 250.562C271.15 249.662 278.15 248.162 285 246.062C292.32 245.092 299.65 244.922 307 245.562C315.72 248.382 324.72 250.382 334 251.562C338.14 253.612 342.48 255.282 347 256.562C348.21 257.602 349.21 258.772 350 260.062Z" fill="#F8F3F3"/>
<path fill-rule="evenodd" clip-rule="evenodd" d="M256.999 254.061C264.379 253.251 271.379 254.421 277.999 257.561C280.109 261.941 282.609 266.101 285.499 270.061C286.329 273.771 286.159 277.441 284.999 281.061C281.539 287.351 276.879 292.521 270.999 296.561C266.329 297.231 261.669 297.231 256.999 296.561C250.109 292.671 245.939 286.841 244.499 279.061C244.379 275.951 244.209 272.951 243.999 270.061C242.179 271.371 240.519 272.871 238.999 274.561C237.149 275.691 235.149 276.191 232.999 276.061C231.869 273.931 231.699 271.601 232.499 269.061C236.099 263.461 240.939 259.291 246.999 256.561C250.269 255.411 253.599 254.581 256.999 254.061Z" fill="#0E0C0B"/>
<path fill-rule="evenodd" clip-rule="evenodd" d="M350 260.061C352.87 262.751 356.04 265.081 359.5 267.061C359.99 268.351 360.16 269.691 360 271.061C359 271.061 358 271.061 357 271.061C353.22 270.771 349.89 269.441 347 267.061C346.2 271.401 345.37 275.741 344.5 280.061C342.64 282.451 341.31 285.111 340.5 288.061C338.12 290.831 335.28 293.001 332 294.561C312.19 297.421 303.69 288.921 306.5 269.061C308.66 256.381 316.16 251.221 329 253.561C335.89 256.021 342.89 258.191 350 260.061Z" fill="#090908"/>
<path fill-rule="evenodd" clip-rule="evenodd" d="M317.001 258.062C321.961 256.882 324.961 258.712 326.001 263.562C324.911 267.012 323.581 270.342 322.001 273.562C319.351 274.062 316.691 274.222 314.001 274.062C314.221 271.882 313.381 270.212 311.501 269.062C310.831 267.062 310.831 265.062 311.501 263.062C313.691 261.732 315.521 260.062 317.001 258.062Z" fill="#E8E8E8"/>
<path fill-rule="evenodd" clip-rule="evenodd" d="M269 260.062C278.76 261.822 280.6 266.822 274.5 275.062C268.15 278.742 264.32 276.912 263 269.562C264.11 265.842 266.11 262.672 269 260.062Z" fill="#E7E7E7"/>
<path fill-rule="evenodd" clip-rule="evenodd" d="M307 298.062C309.76 297.472 311.43 298.472 312 301.062C309.86 304.372 307.53 307.532 305 310.562C302.33 311.232 299.67 311.232 297 310.562C295.28 309.032 293.28 308.032 291 307.562C289.34 306.122 288.68 304.282 289 302.062C293.66 302.902 298.33 303.402 303 303.562C304.16 301.572 305.5 299.732 307 298.062Z" fill="#1C1C1C"/>
<path fill-rule="evenodd" clip-rule="evenodd" d="M217 308.061C218.97 307.821 220.8 308.151 222.5 309.061C221.7 317.021 221.36 325.021 221.5 333.061C222.3 336.781 223.3 340.451 224.5 344.061C228.69 344.691 229.86 346.861 228 350.561C221.97 351.091 215.97 351.421 210 351.561C207.78 346.861 209.12 344.031 214 343.061C212.39 338.921 211.39 334.581 211 330.061C212.68 322.681 214.68 315.351 217 308.061Z" fill="#130501"/>
<path fill-rule="evenodd" clip-rule="evenodd" d="M372 337.062C371.42 341.642 370.42 346.142 369 350.562C371.76 353.542 372.6 357.042 371.5 361.062C367.19 362.672 363.69 361.502 361 357.562C354.93 357.542 352.6 354.712 354 349.062C356.24 348.092 358.58 347.752 361 348.062C360.93 346.602 361.27 345.272 362 344.062C364.61 334.862 364.61 325.692 362 316.562C361.85 314.532 362.52 312.862 364 311.562C367.03 310.422 369.19 311.252 370.5 314.062C371.57 321.692 372.07 329.362 372 337.062Z" fill="#100B09"/>
<path fill-rule="evenodd" clip-rule="evenodd" d="M328 353.061C329.02 363.991 329.02 374.991 328 386.061C331.96 386.181 335.62 387.181 339 389.061C340.49 392.331 339.49 394.491 336 395.561C331.7 396.651 327.37 396.981 323 396.561C319.94 395.501 317.44 393.661 315.5 391.061C315.88 379.371 315.71 367.711 315 356.061C318.91 353.741 323.25 352.741 328 353.061Z" fill="#090706"/>
<path fill-rule="evenodd" clip-rule="evenodd" d="M265 363.062C265 371.392 265 379.732 265 388.062C269.66 387.552 273.99 388.392 278 390.562C280.18 392.982 280.51 395.642 279 398.562C270.17 400.072 262.01 398.572 254.5 394.062C253.07 383.492 252.24 372.822 252 362.062C253.97 361.402 256.14 361.062 258.5 361.062C261.11 361.092 263.28 361.762 265 363.062Z" fill="#090808"/>
</svg>
