<svg width="500" height="500" viewBox="0 0 500 500" fill="none" xmlns="http://www.w3.org/2000/svg">
<path fill-rule="evenodd" clip-rule="evenodd" d="M310 186.062C309.94 186.602 309.61 186.942 309 187.062C305.41 185.432 301.74 184.092 298 183.062C297.5 165.612 288.5 158.282 271 161.062C271.47 156.602 272.47 152.262 274 148.062C273.97 146.532 273.3 145.362 272 144.562C268.83 143.582 266 144.082 263.5 146.062C263 149.712 262.83 153.382 263 157.062C252.27 151.662 242.93 153.322 235 162.062C202.65 154.832 169.98 151.162 137 151.062C147.42 136.472 159.75 123.642 174 112.562C179.9 108.922 186.24 106.262 193 104.562C198.11 104.452 203.11 103.782 208 102.562C216.97 94.5918 225.64 86.2618 234 77.5618C241 72.5618 248.66 68.9018 257 66.5618C273.03 62.6618 288.7 57.3318 304 50.5618C309.71 50.6718 315.04 49.3418 320 46.5618C333.14 45.9818 336.98 51.8218 331.5 64.0618C330.12 66.3118 328.62 68.4818 327 70.5618C303.83 84.0618 294.66 103.892 299.5 130.062C301.53 137.512 303.86 144.842 306.5 152.062C307.72 158.402 306.89 164.402 304 170.062C306.6 175.182 308.6 180.522 310 186.062Z" fill="#65316C"/>
<path fill-rule="evenodd" clip-rule="evenodd" d="M270.999 161.062C267.129 162.462 264.459 161.122 262.999 157.062C262.829 153.382 262.999 149.712 263.499 146.062C265.999 144.082 268.829 143.582 271.999 144.562C273.299 145.362 273.969 146.532 273.999 148.062C272.469 152.262 271.469 156.602 270.999 161.062Z" fill="#3B7C39"/>
<path fill-rule="evenodd" clip-rule="evenodd" d="M137 151.062C169.98 151.162 202.65 154.832 235 162.062C229.42 171.282 229.75 180.282 236 189.062C197.39 184.072 158.72 180.402 120 178.062C123.93 167.842 129.6 158.842 137 151.062Z" fill="#8B6590"/>
<path fill-rule="evenodd" clip-rule="evenodd" d="M263 157.061C264.46 161.121 267.13 162.461 271 161.061C288.5 158.281 297.5 165.611 298 183.061C298.66 192.561 294.32 198.061 285 199.561C283.93 200.411 282.93 201.251 282 202.061C263.76 207.591 248.43 203.251 236 189.061C229.75 180.281 229.42 171.281 235 162.061C242.93 153.321 252.27 151.661 263 157.061Z" fill="#FA7B1A"/>
<path fill-rule="evenodd" clip-rule="evenodd" d="M249.001 166.062C250.671 166.062 252.331 166.062 254.001 166.062C255.851 169.442 256.851 173.112 257.001 177.062C252.051 176.102 247.221 174.762 242.501 173.062C241.831 172.392 241.831 171.732 242.501 171.062C244.851 169.532 247.021 167.862 249.001 166.062Z" fill="#302D2D"/>
<path fill-rule="evenodd" clip-rule="evenodd" d="M279 172.062C281.93 173.152 284.09 175.152 285.5 178.062C286.22 179.672 286.05 181.172 285 182.562C280.65 182.762 276.48 181.922 272.5 180.062C274.31 177.382 276.48 174.712 279 172.062Z" fill="#322E2D"/>
<path fill-rule="evenodd" clip-rule="evenodd" d="M120 178.062C158.72 180.402 197.39 184.072 236 189.062C248.43 203.252 263.76 207.592 282 202.062C292.55 205.012 302.88 208.512 313 212.562C316.32 213.062 319.65 213.232 323 213.062C330.18 217.052 336.68 222.052 342.5 228.062C349.59 238.572 355.92 249.572 361.5 261.062C362.71 268.422 360.55 274.582 355 279.562C348 281.392 341 283.232 334 285.062C330.33 285.062 326.67 285.062 323 285.062C321.91 275.202 319.74 265.532 316.5 256.062C315.89 253.012 314.39 250.512 312 248.562C296.16 240.312 279.49 234.312 262 230.562C248.73 225.362 235.4 220.362 222 215.562C200.39 212.482 178.72 209.822 157 207.562C142.93 206.732 128.93 207.402 115 209.562C109.05 218.632 104.05 228.132 100 238.062C87.9601 233.212 76.6301 227.042 66.0001 219.562C49.0701 205.682 50.0701 193.682 69.0001 183.562C72.7801 182.972 76.4401 181.972 80.0001 180.562C93.3901 180.402 106.72 179.572 120 178.062Z" fill="#65316B"/>
<path fill-rule="evenodd" clip-rule="evenodd" d="M262 179.062C265.85 178.582 267.85 180.252 268 184.062C265.64 184.222 263.31 184.062 261 183.562C259.76 181.742 260.09 180.242 262 179.062Z" fill="#372F2D"/>
<path fill-rule="evenodd" clip-rule="evenodd" d="M298 183.062C301.74 184.092 305.41 185.432 309 187.062C309.61 186.942 309.94 186.602 310 186.062C314.51 194.902 318.84 203.902 323 213.062C319.65 213.232 316.32 213.062 313 212.562C302.88 208.512 292.55 205.012 282 202.062C282.93 201.252 283.93 200.412 285 199.562C294.32 198.062 298.66 192.562 298 183.062Z" fill="#8C6590"/>
<path fill-rule="evenodd" clip-rule="evenodd" d="M240 183.062C242.71 183.142 245.37 183.472 248 184.062C247.95 186.622 248.95 188.622 251 190.062C252.29 188.462 253.79 187.132 255.5 186.062C259.62 187.252 263.79 188.252 268 189.062C269.89 190.492 271.55 192.162 273 194.062C275.43 191.322 278.43 190.482 282 191.562C282.46 191.972 282.79 192.472 283 193.062C278.28 196.652 272.94 197.812 267 196.562C257.49 195.472 248.82 192.142 241 186.562C240.16 185.552 239.83 184.382 240 183.062Z" fill="#332E2D"/>
<path fill-rule="evenodd" clip-rule="evenodd" d="M334 285.061C330.88 286.041 327.54 286.371 324 286.061C324.09 293.101 323.59 300.101 322.5 307.061C320.35 313.661 318.52 320.331 317 327.061C311.19 323.661 306.69 324.991 303.5 331.061C302.62 334.381 301.79 337.711 301 341.061C298.67 342.561 296.33 344.061 294 345.561C288.34 346.061 282.68 346.231 277 346.061C278.79 334.451 280.13 322.791 281 311.061C284.65 310.101 285.81 307.771 284.5 304.061C282.15 302.531 279.98 300.861 278 299.061C279.13 296.591 279.3 293.931 278.5 291.061C276.17 286.391 273.83 281.731 271.5 277.061C267.54 274.331 263.38 272.001 259 270.061C258.42 272.931 257.42 275.601 256 278.061C251.98 279.281 247.98 279.111 244 277.561C231.5 268.811 218.5 260.811 205 253.561C201.18 250.481 197.18 247.651 193 245.061C192.67 246.391 192.33 247.731 192 249.061C193.81 253.851 194.31 258.851 193.5 264.061C193 265.231 192.17 266.061 191 266.561C188.67 267.231 186.33 267.231 184 266.561C175.01 260.061 165.67 254.061 156 248.561C153.12 246.381 150.62 243.881 148.5 241.061C144.67 250.401 140.17 259.401 135 268.061C128.91 271.541 124.08 270.211 120.5 264.061C119.36 260.981 118.03 257.981 116.5 255.061C107.73 266.561 103.06 279.561 102.5 294.061C101.83 298.391 101.83 302.731 102.5 307.061C104.09 313.001 105.42 319.001 106.5 325.061C108.81 330.851 110.98 336.681 113 342.561C110.69 347.671 108.69 352.841 107 358.061C91.0602 331.841 85.5602 303.511 90.5002 273.061C93.5202 261.291 96.6902 249.631 100 238.061C104.05 228.131 109.05 218.631 115 209.561C128.93 207.401 142.93 206.731 157 207.561C178.72 209.821 200.39 212.481 222 215.561C235.4 220.361 248.73 225.361 262 230.561C279.49 234.311 296.16 240.311 312 248.561C314.39 250.511 315.89 253.011 316.5 256.061C319.74 265.531 321.91 275.201 323 285.061C326.67 285.061 330.33 285.061 334 285.061Z" fill="#494949"/>
<path fill-rule="evenodd" clip-rule="evenodd" d="M278 299.062C275.17 296.392 272.17 293.892 269 291.562C260.52 288.152 252.19 284.482 244 280.562C223.43 276.422 211.6 284.922 208.5 306.062C205.15 324.042 212.31 335.042 230 339.062C227.99 359.762 236.99 366.592 257 359.562C271.59 350.382 272.59 340.052 260 328.562C259.05 328.082 258.05 327.912 257 328.062C262.28 320.502 265.61 312.172 267 303.062C270.79 307.292 275.46 309.962 281 311.062C280.13 322.792 278.79 334.452 277 346.062C282.68 346.232 288.34 346.062 294 345.562C296.33 344.062 298.67 342.562 301 341.062C301.79 337.712 302.62 334.382 303.5 331.062C306.69 324.992 311.19 323.662 317 327.062C317.54 328.682 317.87 330.342 318 332.062C322.75 330.622 327.42 330.792 332 332.562C335.99 337.362 335.66 342.032 331 346.562C326.95 349.922 322.28 351.582 317 351.562C311.87 353.102 306.87 354.942 302 357.062C292.11 359.262 282.11 361.432 272 363.562C270.07 368.852 268.07 374.022 266 379.062C263.15 379.892 260.99 381.562 259.5 384.062C259 388.712 258.83 393.382 259 398.062C250.71 398.722 242.71 400.382 235 403.062C234.39 402.172 234.06 401.172 234 400.062C233.53 396.162 232.87 392.332 232 388.562C219.35 388.632 206.68 389.132 194 390.062C193 395.402 192 400.732 191 406.062C183.7 407.252 176.37 408.252 169 409.062C168.05 407.642 167.72 405.972 168 404.062C168.57 398.082 168.91 392.082 169 386.062C164.24 385.472 159.58 384.472 155 383.062C150.37 380.412 145.7 377.742 141 375.062C135.36 369.592 129.53 364.262 123.5 359.062C121.52 365.582 120.85 372.252 121.5 379.062C123.39 381.092 125.55 382.752 128 384.062C124.78 385.212 121.44 386.382 118 387.562C114.97 391.612 111.14 394.442 106.5 396.062C104.79 396.122 103.46 395.452 102.5 394.062C102 391.412 101.84 388.752 102 386.062C103.48 384.472 104.98 382.802 106.5 381.062C107 373.402 107.17 365.732 107 358.062C108.69 352.842 110.69 347.672 113 342.562C110.98 336.682 108.81 330.852 106.5 325.062C105.42 319.002 104.09 313.002 102.5 307.062C101.83 302.732 101.83 298.392 102.5 294.062C103.06 279.562 107.73 266.562 116.5 255.062C118.03 257.982 119.36 260.982 120.5 264.062C124.08 270.212 128.91 271.542 135 268.062C140.17 259.402 144.67 250.402 148.5 241.062C150.62 243.882 153.12 246.382 156 248.562C165.67 254.062 175.01 260.062 184 266.562C186.33 267.232 188.67 267.232 191 266.562C192.17 266.062 193 265.232 193.5 264.062C194.31 258.852 193.81 253.852 192 249.062C192.33 247.732 192.67 246.392 193 245.062C197.18 247.652 201.18 250.482 205 253.562C218.5 260.812 231.5 268.812 244 277.562C247.98 279.112 251.98 279.282 256 278.062C257.42 275.602 258.42 272.932 259 270.062C263.38 272.002 267.54 274.332 271.5 277.062C273.83 281.732 276.17 286.392 278.5 291.062C279.3 293.932 279.13 296.592 278 299.062Z" fill="#A6D480"/>
<path fill-rule="evenodd" clip-rule="evenodd" d="M156.001 331.061C141.541 333.591 131.211 328.251 125.001 315.061C124.061 310.281 123.401 305.441 123.001 300.561C123.141 296.911 123.641 293.411 124.501 290.061C120.921 292.931 117.091 295.431 113.001 297.561C110.731 298.321 108.561 298.151 106.501 297.061C105.831 294.391 105.831 291.731 106.501 289.061C125.721 269.871 147.551 266.031 172.001 277.561C175.311 280.631 176.811 284.461 176.501 289.061C181.621 296.661 182.281 304.661 178.501 313.061C175.211 316.801 172.051 320.631 169.001 324.561C164.851 327.301 160.521 329.471 156.001 331.061Z" fill="#050504"/>
<path fill-rule="evenodd" clip-rule="evenodd" d="M278 299.062C279.98 300.862 282.15 302.532 284.5 304.062C285.81 307.772 284.65 310.102 281 311.062C275.46 309.962 270.79 307.292 267 303.062C265.61 312.172 262.28 320.502 257 328.062C250.24 336.932 241.24 340.602 230 339.062C212.31 335.042 205.15 324.042 208.5 306.062C211.6 284.922 223.43 276.422 244 280.562C252.19 284.482 260.52 288.152 269 291.562C272.17 293.892 275.17 296.392 278 299.062Z" fill="#040503"/>
<path fill-rule="evenodd" clip-rule="evenodd" d="M158.999 282.061C166.349 281.411 170.349 284.741 170.999 292.061C169.459 299.101 165.289 303.771 158.499 306.061C151.039 302.941 148.709 297.611 151.499 290.061C153.529 286.871 156.029 284.201 158.999 282.061Z" fill="#F0F0F0"/>
<path fill-rule="evenodd" clip-rule="evenodd" d="M228 286.062C233.2 286.102 236.53 288.602 238 293.562C236.4 297.252 235.24 301.092 234.5 305.062C230.16 310.002 225.49 310.332 220.5 306.062C218.83 303.412 217.67 300.572 217 297.562C216.88 295.022 217.72 292.852 219.5 291.062C222.69 289.852 225.53 288.182 228 286.062Z" fill="#F2F2F2"/>
<path fill-rule="evenodd" clip-rule="evenodd" d="M125 315.062C131.21 328.252 141.54 333.592 156 331.062C154.89 331.852 153.56 332.352 152 332.562C154.79 341.552 152.12 348.212 144 352.562C124.19 356.072 114.03 347.902 113.5 328.062C115.71 323.462 118.55 319.292 122 315.562C122.95 315.082 123.95 314.912 125 315.062Z" fill="#8BC871"/>
<path fill-rule="evenodd" clip-rule="evenodd" d="M257 328.062C258.05 327.912 259.05 328.082 260 328.562C272.59 340.052 271.59 350.382 257 359.562C236.99 366.592 227.99 359.762 230 339.062C241.24 340.602 250.24 336.932 257 328.062Z" fill="#8BC871"/>
<path fill-rule="evenodd" clip-rule="evenodd" d="M206 340.062C209.7 339.242 212.03 340.572 213 344.062C209.86 348.702 206.2 352.862 202 356.562C198.57 357.262 195.24 356.932 192 355.562C188.72 353.002 185.22 350.842 181.5 349.062C179.67 342.892 181.83 340.732 188 342.562C191.21 344.662 194.54 346.502 198 348.062C198.67 347.892 199.33 347.732 200 347.562C201.83 344.902 203.83 342.402 206 340.062Z" fill="#0C0D0A"/>
<path fill-rule="evenodd" clip-rule="evenodd" d="M346 400.062C347.26 394.262 348.93 388.592 351 383.062C349.89 378.062 348.89 373.062 348 368.062C351.8 363.762 355.8 359.602 360 355.562C376.01 348.842 392.68 344.672 410 343.062C417.44 343.762 424.78 345.102 432 347.062C436.65 349.582 439.15 353.582 439.5 359.062C440.79 361.352 442.46 363.352 444.5 365.062C445.17 367.392 445.17 369.732 444.5 372.062C442.87 375.572 441.7 379.242 441 383.062C442.29 385.972 443.29 388.972 444 392.062C443.13 395.592 441.8 398.922 440 402.062C441.14 407.512 440.64 412.842 438.5 418.062C433.52 422.442 427.69 424.782 421 425.062C414.67 424.472 408.34 423.972 402 423.562C386.72 419.352 371.72 414.352 357 408.562C352.9 406.192 349.24 403.362 346 400.062Z" fill="#F4EA8B"/>
<path fill-rule="evenodd" clip-rule="evenodd" d="M301.999 357.062C300.469 362.462 298.129 367.462 294.999 372.062C290.639 379.602 285.639 386.762 279.999 393.562C275.849 396.402 271.679 396.572 267.499 394.062C266.109 389.192 265.609 384.192 265.999 379.062C268.069 374.022 270.069 368.852 271.999 363.562C282.109 361.432 292.109 359.262 301.999 357.062Z" fill="#4A4A49"/>
<path fill-rule="evenodd" clip-rule="evenodd" d="M141 375.062C139.61 377.572 138.61 380.232 138 383.062C134.77 383.972 131.44 384.312 128 384.062C125.55 382.752 123.39 381.092 121.5 379.062C120.85 372.252 121.52 365.582 123.5 359.062C129.53 364.262 135.36 369.592 141 375.062Z" fill="#494949"/>
<path fill-rule="evenodd" clip-rule="evenodd" d="M343 368.062C343.17 374.402 343 380.742 342.5 387.062C340.51 390.772 339.68 394.772 340 399.062C335.65 401.142 332.32 400.142 330 396.062C330.26 393.242 330.59 390.412 331 387.562C326.73 383.772 327.06 380.602 332 378.062C330.68 376.032 330.68 374.032 332 372.062C331.76 370.092 332.09 368.262 333 366.562C336.46 366.102 339.8 366.602 343 368.062Z" fill="#F4EC8C"/>
<path fill-rule="evenodd" clip-rule="evenodd" d="M348 368.062C348.89 373.062 349.89 378.062 351 383.062C348.93 388.592 347.26 394.262 346 400.062C344.12 399.222 342.12 398.892 340 399.062C339.68 394.772 340.51 390.772 342.5 387.062C343 380.742 343.17 374.402 343 368.062C344.67 366.732 346.33 366.732 348 368.062Z" fill="#EFB97A"/>
<path fill-rule="evenodd" clip-rule="evenodd" d="M294.999 372.062C307.159 372.582 319.489 372.582 331.999 372.062C330.679 374.032 330.679 376.032 331.999 378.062C327.059 380.602 326.729 383.772 330.999 387.562C330.589 390.412 330.259 393.242 329.999 396.062C306.729 397.842 283.729 399.512 260.999 401.062C260.159 400.722 259.829 400.052 259.999 399.062C259.999 398.392 259.669 398.062 258.999 398.062C258.829 393.382 258.999 388.712 259.499 384.062C260.989 381.562 263.149 379.892 265.999 379.062C265.609 384.192 266.109 389.192 267.499 394.062C271.679 396.572 275.849 396.402 279.999 393.562C285.639 386.762 290.639 379.602 294.999 372.062Z" fill="#C18763"/>
<path fill-rule="evenodd" clip-rule="evenodd" d="M141 375.062C145.7 377.742 150.37 380.412 155 383.062C149.12 383.302 143.46 383.302 138 383.062C138.61 380.232 139.61 377.572 141 375.062Z" fill="#F89049"/>
<path fill-rule="evenodd" clip-rule="evenodd" d="M138 383.062C143.46 383.302 149.12 383.302 155 383.062C159.58 384.472 164.24 385.472 169 386.062C168.91 392.082 168.57 398.082 168 404.062C147.54 404.612 127.21 406.442 107 409.562C97.3303 410.232 87.6703 410.232 78.0003 409.562C68.1903 407.732 65.3603 402.232 69.5003 393.062C71.4403 390.452 73.9403 388.622 77.0003 387.562C85.3403 387.132 93.6803 386.632 102 386.062C101.84 388.752 102 391.412 102.5 394.062C103.46 395.452 104.79 396.122 106.5 396.062C111.14 394.442 114.97 391.612 118 387.562C121.44 386.382 124.78 385.212 128 384.062C131.44 384.312 134.77 383.972 138 383.062Z" fill="#C18763"/>
<path fill-rule="evenodd" clip-rule="evenodd" d="M234 400.062C219.97 400.152 205.97 400.812 192 402.062C192 403.392 192 404.732 192 406.062C191.67 406.062 191.33 406.062 191 406.062C192 400.732 193 395.402 194 390.062C206.68 389.132 219.35 388.632 232 388.562C232.87 392.332 233.53 396.162 234 400.062Z" fill="#C08864"/>
<path fill-rule="evenodd" clip-rule="evenodd" d="M259 398.062C259.67 398.062 260 398.392 260 399.062C252.41 401.142 245.08 403.812 238 407.062C236.53 406.122 235.53 404.792 235 403.062C242.71 400.382 250.71 398.722 259 398.062Z" fill="#F2F4ED"/>
<path fill-rule="evenodd" clip-rule="evenodd" d="M260 399.062C259.83 400.052 260.16 400.722 261 401.062C261 401.392 261 401.732 261 402.062C253.95 405.242 246.62 407.912 239 410.062C238.39 409.172 238.06 408.172 238 407.062C245.08 403.812 252.41 401.142 260 399.062Z" fill="#474848"/>
<path fill-rule="evenodd" clip-rule="evenodd" d="M261 402.062C262 402.392 262.67 403.062 263 404.062C256.12 407.672 249.12 411.002 242 414.062C240.53 413.122 239.53 411.792 239 410.062C246.62 407.912 253.95 405.242 261 402.062Z" fill="#ECEBEB"/>
<path fill-rule="evenodd" clip-rule="evenodd" d="M191.001 406.062C191.331 406.062 191.671 406.062 192.001 406.062C192.001 406.732 192.001 407.392 192.001 408.062C184.711 410.062 177.381 412.062 170.001 414.062C169.051 412.642 168.721 410.972 169.001 409.062C176.371 408.252 183.701 407.252 191.001 406.062Z" fill="#F0F1EB"/>
<path fill-rule="evenodd" clip-rule="evenodd" d="M266 407.062C267.9 407.302 269.24 408.302 270 410.062C263.89 413.002 257.89 416.162 252 419.562C250.68 420.382 250.01 421.542 250 423.062C247.67 421.392 245.67 419.392 244 417.062C251.64 414.242 258.97 410.902 266 407.062Z" fill="#F1EFEE"/>
<path fill-rule="evenodd" clip-rule="evenodd" d="M192 408.062C192 409.392 192 410.732 192 412.062C185.06 413.182 178.39 415.182 172 418.062C170.83 417.052 170.16 415.712 170 414.062C177.38 412.062 184.71 410.062 192 408.062Z" fill="#474747"/>
<path fill-rule="evenodd" clip-rule="evenodd" d="M273 413.062C274.12 413.912 274.12 414.912 273 416.062C272.67 416.732 272.33 417.392 272 418.062C267.08 423.192 261.08 426.192 254 427.062C252.81 426.292 251.81 425.292 251 424.062C258.62 420.922 265.95 417.252 273 413.062Z" fill="#F2F1F0"/>
<path fill-rule="evenodd" clip-rule="evenodd" d="M192 412.062C193.33 412.062 194 412.732 194 414.062C186.65 415.402 179.65 417.732 173 421.062C172.1 420.352 171.76 419.352 172 418.062C178.39 415.182 185.06 413.182 192 412.062Z" fill="#E8E6E4"/>
<path fill-rule="evenodd" clip-rule="evenodd" d="M263 404.062C264.33 404.732 265.33 405.732 266 407.062C258.97 410.902 251.64 414.242 244 417.062C243.33 416.062 242.67 415.062 242 414.062C249.12 411.002 256.12 407.672 263 404.062Z" fill="#474849"/>
<path fill-rule="evenodd" clip-rule="evenodd" d="M194 414.062C194 415.062 194 416.062 194 417.062C187.87 419.442 181.53 421.442 175 423.062C174 422.732 173.33 422.062 173 421.062C179.65 417.732 186.65 415.402 194 414.062Z" fill="#474747"/>
<path fill-rule="evenodd" clip-rule="evenodd" d="M270 410.062C271.33 410.732 272.33 411.732 273 413.062C265.95 417.252 258.62 420.922 251 424.062C250.33 424.062 250 423.732 250 423.062C250.01 421.542 250.68 420.382 252 419.562C257.89 416.162 263.89 413.002 270 410.062Z" fill="#4A4A4A"/>
<path fill-rule="evenodd" clip-rule="evenodd" d="M273.001 416.062C277.681 417.772 279.181 421.102 277.501 426.062C274.931 433.302 270.761 439.472 265.001 444.562C254.361 449.842 249.201 446.672 249.501 435.062C250.531 432.322 252.031 429.992 254.001 428.062C254.901 428.772 255.241 429.772 255.001 431.062C256.991 438.212 260.491 438.882 265.501 433.062C266.691 430.672 267.861 428.342 269.001 426.062C270.391 423.552 271.391 420.892 272.001 418.062C272.331 417.392 272.671 416.732 273.001 416.062Z" fill="#FD3D26"/>
<path fill-rule="evenodd" clip-rule="evenodd" d="M194 417.062C195.41 417.532 196.07 418.532 196 420.062C189.68 422.052 183.35 424.052 177 426.062C175.59 425.592 174.93 424.592 175 423.062C181.53 421.442 187.87 419.442 194 417.062Z" fill="#E3E1E0"/>
<path fill-rule="evenodd" clip-rule="evenodd" d="M196 420.062C197.41 420.532 198.07 421.532 198 423.062C191.33 425.282 184.67 427.282 178 429.062C177.39 428.172 177.06 427.172 177 426.062C183.35 424.052 189.68 422.052 196 420.062Z" fill="#484747"/>
<path fill-rule="evenodd" clip-rule="evenodd" d="M198 423.062C199.33 423.062 200 423.732 200 425.062C199.33 425.732 198.67 426.392 198 427.062C193.25 429.182 188.42 431.182 183.5 433.062C181.28 432.462 179.11 431.802 177 431.062C177.33 430.392 177.67 429.732 178 429.062C184.67 427.282 191.33 425.282 198 423.062Z" fill="#ECEBEA"/>
<path fill-rule="evenodd" clip-rule="evenodd" d="M272 418.062C271.39 420.892 270.39 423.552 269 426.062C264.54 428.292 259.88 429.952 255 431.062C255.24 429.772 254.9 428.772 254 428.062C254 427.732 254 427.392 254 427.062C261.08 426.192 267.08 423.192 272 418.062Z" fill="#474747"/>
<path fill-rule="evenodd" clip-rule="evenodd" d="M200 425.062C201.44 426.512 202.11 428.342 202 430.562C200 444.902 192 452.572 178 453.562C166.68 447.132 166.02 439.632 176 431.062C176 432.392 176 433.732 176 435.062C176.49 437.372 176.83 439.702 177 442.062C184.35 441.892 190.01 438.892 194 433.062C196.32 431.762 197.66 429.762 198 427.062C198.67 426.392 199.33 425.732 200 425.062Z" fill="#FE3E26"/>
<path fill-rule="evenodd" clip-rule="evenodd" d="M269 426.062C267.86 428.342 266.69 430.672 265.5 433.062C260.49 438.882 256.99 438.212 255 431.062C259.88 429.952 264.54 428.292 269 426.062Z" fill="#F9EEED"/>
<path fill-rule="evenodd" clip-rule="evenodd" d="M198 427.062C197.66 429.762 196.32 431.762 194 433.062C188.36 437.222 182.36 437.892 176 435.062C176 433.732 176 432.392 176 431.062C176.33 431.062 176.67 431.062 177 431.062C179.11 431.802 181.28 432.462 183.5 433.062C188.42 431.182 193.25 429.182 198 427.062Z" fill="#494A4A"/>
<path fill-rule="evenodd" clip-rule="evenodd" d="M194 433.062C190.01 438.892 184.35 441.892 177 442.062C176.83 439.702 176.49 437.372 176 435.062C182.36 437.892 188.36 437.222 194 433.062Z" fill="#FBF3F1"/>
</svg>
