<svg width="500" height="500" viewBox="0 0 500 500" fill="none" xmlns="http://www.w3.org/2000/svg">
<path fill-rule="evenodd" clip-rule="evenodd" d="M351.999 130.061C352.999 131.391 353.999 132.731 354.999 134.061C359.359 139.421 363.699 144.751 367.999 150.061C373.079 158.121 376.909 166.791 379.499 176.061C380.719 195.511 379.889 214.841 376.999 234.061C374.249 237.901 370.579 238.901 365.999 237.061C361.249 229.991 354.919 225.651 346.999 224.061C349.359 224.221 351.689 224.061 353.999 223.561C355.079 221.831 355.239 220.001 354.499 218.061C350.039 214.671 345.209 211.841 339.999 209.561C338.789 208.521 337.789 207.351 336.999 206.061C337.539 206.001 337.879 205.671 337.999 205.061C335.479 198.661 332.819 192.331 329.999 186.061C324.479 181.461 319.139 176.631 313.999 171.561C306.429 170.261 299.429 167.591 292.999 163.561C282.779 161.291 272.449 160.631 261.999 161.561C259.829 163.731 257.669 165.891 255.499 168.061C253.799 172.311 253.629 176.641 254.999 181.061C257.509 182.341 260.179 183.011 262.999 183.061C267.529 181.411 272.199 180.911 276.999 181.561C278.809 184.041 279.479 186.871 278.999 190.061C283.199 189.741 287.199 190.081 290.999 191.061C285.959 190.731 280.959 191.071 275.999 192.061C273.249 197.441 268.919 200.941 262.999 202.561C261.859 203.711 260.859 204.871 259.999 206.061C251.879 206.111 243.549 205.941 234.999 205.561C232.139 203.011 228.809 201.341 224.999 200.561C219.169 194.061 213.329 187.561 207.499 181.061C204.549 175.391 202.719 169.391 201.999 163.061C194.859 162.741 187.859 163.571 180.999 165.561C177.219 169.341 172.879 172.341 167.999 174.561C157.789 185.991 145.789 194.991 131.999 201.561C130.859 203.531 129.529 205.371 127.999 207.061C128.119 207.671 128.459 208.001 128.999 208.061C126.019 212.211 122.849 216.211 119.499 220.061C118.829 223.731 118.829 227.391 119.499 231.061C121.539 231.981 123.709 232.321 125.999 232.061C123.869 233.191 121.539 233.361 118.999 232.561C118.369 229.431 117.699 226.261 116.999 223.061C114.179 229.131 111.179 235.131 107.999 241.061C104.069 241.701 100.729 240.701 97.9993 238.061C95.3593 227.891 93.6893 217.551 92.9993 207.061C92.7493 196.881 94.7493 187.221 98.9993 178.061C100.699 172.271 102.869 166.601 105.499 161.061C110.749 152.641 116.579 144.641 122.999 137.061C128.699 127.521 136.029 119.351 144.999 112.561C155.199 107.841 165.869 104.341 176.999 102.061C187.189 96.8014 197.189 91.3014 206.999 85.5614C218.779 82.0314 230.779 81.1914 242.999 83.0614C254.129 84.2614 265.129 86.2614 275.999 89.0614C284.949 91.8414 292.779 96.5114 299.499 103.061C299.979 104.011 300.149 105.011 299.999 106.061C304.349 105.891 308.679 106.061 312.999 106.561C318.799 109.351 324.799 111.691 330.999 113.561C338.449 118.511 345.449 124.011 351.999 130.061Z" fill="#2E2E2E"/>
<path fill-rule="evenodd" clip-rule="evenodd" d="M337 206.062C334.55 204.782 332.22 203.282 330 201.562C323.65 200.302 317.65 198.302 312 195.562C305.11 193.482 298.11 191.982 291 191.062C287.2 190.082 283.2 189.742 279 190.062C279.48 186.872 278.81 184.042 277 181.562C272.2 180.912 267.53 181.412 263 183.062C260.18 183.012 257.51 182.342 255 181.062C253.63 176.642 253.8 172.312 255.5 168.062C257.67 165.892 259.83 163.732 262 161.562C272.45 160.632 282.78 161.292 293 163.562C299.43 167.592 306.43 170.262 314 171.562C319.14 176.632 324.48 181.462 330 186.062C332.82 192.332 335.48 198.662 338 205.062C337.88 205.672 337.54 206.002 337 206.062Z" fill="#F5F5F5"/>
<path fill-rule="evenodd" clip-rule="evenodd" d="M260 206.062C250.84 222.562 250.68 239.232 259.5 256.062C260.64 258.172 262.14 260.002 264 261.562C269.34 264.942 275 267.442 281 269.062C286.14 270.052 291.47 270.382 297 270.062C296.34 280.872 301.01 288.042 311 291.562C317.33 292.232 323.67 292.232 330 291.562C332.47 290.262 334.8 288.762 337 287.062C337.89 287.882 338.22 288.882 338 290.062C337.46 291.682 337.13 293.342 337 295.062C333.13 298.642 328.47 300.812 323 301.562C307.08 306.042 291.08 309.542 275 312.062C245 311.972 215 311.642 185 311.062C171.25 308.872 157.58 305.872 144 302.062C144.16 300.692 143.99 299.352 143.5 298.062C140.45 294.522 137.62 290.852 135 287.062C135.42 286.442 136.08 286.102 137 286.062C148.96 291.812 158.96 289.482 167 279.062C167.67 276.252 168.33 273.592 169 271.062C183.14 271.622 195.31 266.962 205.5 257.062C208.91 250.562 212.58 244.232 216.5 238.062C218.89 227.752 216.56 218.752 209.5 211.062C208.28 202.502 203.44 197.002 195 194.562C185.33 190.502 175.33 189.342 165 191.062C157.97 194.462 150.63 196.962 143 198.562C138.13 201.492 133.46 204.662 129 208.062C128.46 208.002 128.12 207.672 128 207.062C129.53 205.372 130.86 203.532 132 201.562C145.79 194.992 157.79 185.992 168 174.562C172.88 172.342 177.22 169.342 181 165.562C187.86 163.572 194.86 162.742 202 163.062C202.72 169.392 204.55 175.392 207.5 181.062C213.33 187.562 219.17 194.062 225 200.562C228.81 201.342 232.14 203.012 235 205.562C243.55 205.942 251.88 206.112 260 206.062Z" fill="#F9F9FA"/>
<path fill-rule="evenodd" clip-rule="evenodd" d="M291.001 191.062C298.111 191.982 305.111 193.482 312.001 195.562C317.651 198.302 323.651 200.302 330.001 201.562C332.221 203.282 334.551 204.782 337.001 206.062C337.791 207.352 338.791 208.522 340.001 209.562C345.211 211.842 350.041 214.672 354.501 218.062C355.241 220.002 355.081 221.832 354.001 223.562C351.691 224.062 349.361 224.222 347.001 224.062C340.631 224.282 335.291 222.122 331.001 217.562C330.051 217.082 329.051 216.912 328.001 217.062C327.701 219.622 328.031 221.952 329.001 224.062C329.161 226.092 329.001 228.092 328.501 230.062C326.551 234.292 324.881 238.632 323.501 243.062C320.991 246.752 318.991 250.752 317.501 255.062C313.251 260.302 308.081 264.472 302.001 267.562C295.071 268.902 288.071 269.402 281.001 269.062C275.001 267.442 269.341 264.942 264.001 261.562C262.141 260.002 260.641 258.172 259.501 256.062C250.681 239.232 250.841 222.562 260.001 206.062C260.861 204.872 261.861 203.712 263.001 202.562C268.921 200.942 273.251 197.442 276.001 192.062C280.961 191.072 285.961 190.732 291.001 191.062Z" fill="#070707"/>
<path fill-rule="evenodd" clip-rule="evenodd" d="M169.001 271.062C161.781 269.062 155.611 265.062 150.501 259.062C149.551 257.102 148.211 255.442 146.501 254.062C145.181 247.912 143.011 242.242 140.001 237.062C139.651 232.062 140.321 227.232 142.001 222.562C141.671 221.732 141.331 220.892 141.001 220.062C135.961 224.112 130.961 228.112 126.001 232.062C123.711 232.322 121.541 231.982 119.501 231.062C118.831 227.392 118.831 223.732 119.501 220.062C122.851 216.212 126.021 212.212 129.001 208.062C133.461 204.662 138.131 201.492 143.001 198.562C150.631 196.962 157.971 194.462 165.001 191.062C175.331 189.342 185.331 190.502 195.001 194.562C203.441 197.002 208.281 202.502 209.501 211.062C216.561 218.752 218.891 227.752 216.501 238.062C212.581 244.232 208.911 250.562 205.501 257.062C195.311 266.962 183.141 271.622 169.001 271.062Z" fill="#070707"/>
<path fill-rule="evenodd" clip-rule="evenodd" d="M275 201.062C280.93 199.902 285.76 201.572 289.5 206.062C289.79 212.482 289.13 218.812 287.5 225.062C282.63 230.022 276.79 231.362 270 229.062C268.79 225.682 266.96 222.682 264.5 220.062C263.27 215.082 264.11 210.582 267 206.562C270.07 205.172 272.73 203.342 275 201.062Z" fill="#F0F0F0"/>
<path fill-rule="evenodd" clip-rule="evenodd" d="M186.001 204.062C189.351 203.892 192.681 204.062 196.001 204.562C201.771 210.092 203.431 216.762 201.001 224.562C198.261 226.302 196.761 228.802 196.501 232.062C192.461 235.862 187.961 236.692 183.001 234.562C181.461 232.682 179.621 231.182 177.501 230.062C173.771 219.502 176.601 210.842 186.001 204.062Z" fill="#ECECEC"/>
<path fill-rule="evenodd" clip-rule="evenodd" d="M347 224.062C354.92 225.652 361.25 229.992 366 237.062C370.58 238.902 374.25 237.902 377 234.062C377.51 239.042 376.85 243.712 375 248.062C369.67 252.392 364.33 256.732 359 261.062C357.23 257.522 356.4 253.522 356.5 249.062C347.87 238.952 337.7 237.282 326 244.062C325.67 243.562 325.33 243.062 325 242.562C326.5 238.732 328 234.892 329.5 231.062C330.3 228.522 330.13 226.192 329 224.062C328.03 221.952 327.7 219.622 328 217.062C329.05 216.912 330.05 217.082 331 217.562C335.29 222.122 340.63 224.282 347 224.062Z" fill="#F7F7F7"/>
<path fill-rule="evenodd" clip-rule="evenodd" d="M140 237.062C140 238.062 140 239.062 140 240.062C132.77 240.522 126.11 242.692 120 246.562C114.57 252.252 112.9 258.912 115 266.562C114.67 267.062 114.33 267.562 114 268.062C112.33 266.472 110.33 265.812 108 266.062C105.33 265.392 102.67 264.732 99.9999 264.062C99.9199 256.702 100.25 247.372 101 240.062C103.56 240.362 105.89 242.032 108 241.062C111.18 235.132 114.18 229.132 117 223.062C117.7 226.262 118.37 229.432 119 232.562C121.54 233.362 123.87 233.192 126 232.062C130.96 228.112 135.96 224.112 141 220.062C141.33 220.892 141.67 221.732 142 222.562C140.32 227.232 139.65 232.062 140 237.062Z" fill="#F5F5F5"/>
<path fill-rule="evenodd" clip-rule="evenodd" d="M140 237.062C143.01 242.242 145.18 247.912 146.5 254.062C148.21 255.442 149.55 257.102 150.5 259.062C155.61 265.062 161.78 269.062 169 271.062C168.33 273.592 167.67 276.252 167 279.062C158.96 289.482 148.96 291.812 137 286.062C136.08 286.102 135.42 286.442 135 287.062C128.54 281.772 122.21 276.272 116 270.562C113.15 269.162 110.48 267.662 108 266.062C110.33 265.812 112.33 266.472 114 268.062C114.33 267.562 114.67 267.062 115 266.562C112.9 258.912 114.57 252.252 120 246.562C126.11 242.692 132.77 240.522 140 240.062C140 239.062 140 238.062 140 237.062Z" fill="#F6DBDC"/>
<path fill-rule="evenodd" clip-rule="evenodd" d="M329 224.062C330.13 226.192 330.3 228.522 329.5 231.062C328 234.892 326.5 238.732 325 242.562C325.33 243.062 325.67 243.562 326 244.062C337.7 237.282 347.87 238.952 356.5 249.062C356.4 253.522 357.23 257.522 359 261.062C350.78 269.932 343.78 279.602 338 290.062C338.22 288.882 337.89 287.882 337 287.062C334.8 288.762 332.47 290.262 330 291.562C323.67 292.232 317.33 292.232 311 291.562C301.01 288.042 296.34 280.872 297 270.062C291.47 270.382 286.14 270.052 281 269.062C288.07 269.402 295.07 268.902 302 267.562C308.08 264.472 313.25 260.302 317.5 255.062C318.99 250.752 320.99 246.752 323.5 243.062C324.88 238.632 326.55 234.292 328.5 230.062C329 228.092 329.16 226.092 329 224.062Z" fill="#F4DADB"/>
<path fill-rule="evenodd" clip-rule="evenodd" d="M375 248.062C390.31 245.672 394.97 251.342 389 265.062C373.41 278.182 356.08 288.182 337 295.062C337.13 293.342 337.46 291.682 338 290.062C343.78 279.602 350.78 269.932 359 261.062C364.33 256.732 369.67 252.392 375 248.062Z" fill="#F34744"/>
<path fill-rule="evenodd" clip-rule="evenodd" d="M90.9994 264.062C93.9994 264.062 96.9994 264.062 99.9994 264.062C102.669 264.732 105.329 265.392 107.999 266.062C110.479 267.662 113.149 269.162 115.999 270.562C122.209 276.272 128.539 281.772 134.999 287.062C137.619 290.852 140.449 294.522 143.499 298.062C143.989 299.352 144.159 300.692 143.999 302.062C130.179 297.592 116.179 293.422 101.999 289.562C96.9694 287.362 92.6394 284.202 88.9994 280.062C88.5494 277.992 87.5494 276.332 85.9994 275.062C84.8894 269.992 86.5494 266.322 90.9994 264.062Z" fill="#F14744"/>
<path fill-rule="evenodd" clip-rule="evenodd" d="M389 265.062C389.59 268.252 390.76 271.252 392.5 274.062C398.45 282.352 404.79 290.352 411.5 298.062C412.54 300.432 413.04 302.932 413 305.562C413.89 310.002 412.22 313.002 408 314.562C400.72 316.062 393.72 318.222 387 321.062C386 321.062 385 321.062 384 321.062C385.59 323.532 387.09 326.202 388.5 329.062C390.01 339.422 385.51 343.592 375 341.562C368.14 337.372 362.64 331.872 358.5 325.062C350.85 334.382 341.68 341.882 331 347.562C323.48 354.822 314.82 360.322 305 364.062C304.67 364.562 304.33 365.062 304 365.562C306.7 372.542 308.7 379.712 310 387.062C310.32 389.772 309.65 392.102 308 394.062C304.79 394.742 301.79 395.912 299 397.562C295.35 398.062 291.68 398.232 288 398.062C287.48 396.252 286.81 394.592 286 393.062C284.87 386.082 283.87 379.082 283 372.062C278.93 371.872 274.93 372.202 271 373.062C264.75 374.422 258.42 375.092 252 375.062C234.63 374.042 217.3 372.702 200 371.062C198.05 375.962 197.39 381.292 198 387.062C197.8 390.082 197.46 393.082 197 396.062C196 396.062 195 396.062 194 396.062C187.67 396.062 181.33 396.062 175 396.062C175 392.392 175 388.732 175 385.062C174.8 378.792 175.46 372.632 177 366.562C176.67 366.062 176.33 365.562 176 365.062C165.16 360.052 154.49 354.552 144 348.562C137.74 344.302 132.07 339.302 127 333.562C126.33 332.892 125.67 332.892 125 333.562C120.2 341.692 113.54 347.692 105 351.562C95.7898 353.922 91.4598 350.422 91.9998 341.062C92.0598 339.952 92.3898 338.952 92.9998 338.062C94.9798 336.752 96.6498 335.082 97.9998 333.062C97.1798 332.172 96.1798 331.842 94.9998 332.062C90.0998 327.602 84.4298 324.102 77.9998 321.562C76.3598 320.432 75.3598 318.932 74.9998 317.062C73.3298 311.102 73.9998 305.442 76.9998 300.062C81.3598 293.682 85.3598 287.012 88.9998 280.062C92.6398 284.202 96.9698 287.362 102 289.562C116.18 293.422 130.18 297.592 144 302.062C157.58 305.872 171.25 308.872 185 311.062C203.98 312.472 223.15 313.142 242.5 313.062C253.51 313.062 264.34 312.732 275 312.062C291.08 309.542 307.08 306.042 323 301.562C328.47 300.812 333.13 298.642 337 295.062C356.08 288.182 373.41 278.182 389 265.062Z" fill="#4869DD"/>
<path fill-rule="evenodd" clip-rule="evenodd" d="M223 287.062C223.14 281.752 225.81 279.582 231 280.562C236.33 283.902 241.99 285.562 248 285.562C249.73 283.592 251.07 281.422 252 279.062C254.19 272.662 257.69 271.662 262.5 276.062C263.34 279.682 262.67 283.012 260.5 286.062C257.37 290.192 253.87 294.032 250 297.562C248.67 297.732 247.33 297.892 246 298.062C242.44 296.642 238.77 295.472 235 294.562C231.29 291.482 227.29 288.982 223 287.062Z" fill="#0E0E0E"/>
<path fill-rule="evenodd" clip-rule="evenodd" d="M251.999 279.061C251.069 281.421 249.729 283.591 247.999 285.561C241.989 285.561 236.329 283.901 230.999 280.561C225.809 279.581 223.139 281.751 222.999 287.061C221.869 280.381 224.869 277.881 231.999 279.561C236.269 281.281 240.429 283.111 244.499 285.061C245.329 284.891 246.169 284.731 246.999 284.561C248.329 282.371 249.999 280.541 251.999 279.061Z" fill="#787878"/>
<path fill-rule="evenodd" clip-rule="evenodd" d="M376 291.062C377.41 294.872 379.07 298.542 381 302.062C377.54 303.952 373.88 305.622 370 307.062C369.67 306.562 369.33 306.062 369 305.562C371.25 300.562 373.58 295.732 376 291.062Z" fill="#E9474B"/>
<path fill-rule="evenodd" clip-rule="evenodd" d="M381 302.062C379.07 298.542 377.41 294.872 376 291.062C374.31 288.702 374.64 287.202 377 286.562C381.27 290.992 384.94 295.822 388 301.062C385.68 302.572 383.35 302.902 381 302.062Z" fill="#8BB8D9"/>
<path fill-rule="evenodd" clip-rule="evenodd" d="M105 296.061C103.64 300.861 102.64 305.861 102 311.061C99.64 310.891 97.31 310.551 95 310.061C95.83 304.121 98.16 298.781 102 294.061C102.82 293.171 103.82 292.841 105 293.061C105 294.061 105 295.061 105 296.061Z" fill="#CBD4E4"/>
<path fill-rule="evenodd" clip-rule="evenodd" d="M105 296.062C107.35 302.592 110.02 308.922 113 315.062C108.69 315.752 105.02 314.412 102 311.062C102.64 305.862 103.64 300.862 105 296.062Z" fill="#E8474C"/>
<path fill-rule="evenodd" clip-rule="evenodd" d="M185 311.062C215 311.642 245 311.972 275 312.062C264.34 312.732 253.51 313.062 242.5 313.062C223.15 313.142 203.98 312.472 185 311.062Z" fill="#8FA4ED"/>
<path fill-rule="evenodd" clip-rule="evenodd" d="M260 320.061C273.35 319.731 286.68 320.061 300 321.061C301.96 326.231 303.29 331.561 304 337.061C304.09 339.471 303.09 341.301 301 342.561C289.37 350.871 277.04 357.871 264 363.561C250.34 367.801 237.34 366.471 225 359.561C220.04 358.071 215.04 356.741 210 355.561C203.56 352.201 197.06 349.031 190.5 346.061C190.11 338.481 191.11 331.151 193.5 324.061C194.33 323.231 195.17 322.391 196 321.561C207.34 320.971 218.67 321.131 230 322.061C240.17 321.671 250.17 321.011 260 320.061Z" fill="#F24B42"/>
<path fill-rule="evenodd" clip-rule="evenodd" d="M387 321.061C388.18 320.841 389.18 321.171 390 322.061C391.96 326.231 393.46 330.561 394.5 335.061C396.43 338.601 398.6 341.931 401 345.061C404.85 353.751 409.01 362.421 413.5 371.061C417.13 375.691 421.13 380.031 425.5 384.061C425.35 387.581 423.52 390.081 420 391.561C416.42 392.601 412.76 393.101 409 393.061C385.37 391.471 361.87 388.801 338.5 385.061C328.98 385.671 319.48 386.341 310 387.061C308.7 379.711 306.7 372.541 304 365.561C304.33 365.061 304.67 364.561 305 364.061C314.82 360.321 323.48 354.821 331 347.561C341.68 341.881 350.85 334.381 358.5 325.061C362.64 331.871 368.14 337.371 375 341.561C385.51 343.591 390.01 339.421 388.5 329.061C387.09 326.201 385.59 323.531 384 321.061C385 321.061 386 321.061 387 321.061Z" fill="#F24341"/>
<path fill-rule="evenodd" clip-rule="evenodd" d="M199 328.062C203.68 327.892 208.35 328.062 213 328.562C208.39 332.182 207.89 336.352 211.5 341.062C213.46 342.392 215.46 343.722 217.5 345.062C228.45 346.632 239.29 345.962 250 343.062C256.92 343.082 258.92 345.912 256 351.562C243.28 352.822 230.78 351.982 218.5 349.062C214.54 350.092 210.71 349.592 207 347.562C203.72 345.912 200.56 344.082 197.5 342.062C196.85 337.252 197.35 332.582 199 328.062Z" fill="#FED45B"/>
<path fill-rule="evenodd" clip-rule="evenodd" d="M284 325.062C287.94 324.772 291.77 325.102 295.5 326.062C297.08 330.292 297.75 334.622 297.5 339.062C291.41 344.192 284.58 347.852 277 350.062C277.83 344.212 275.5 340.382 270 338.562C257 338.462 244 338.462 231 338.562C226.04 337.662 225.04 335.322 228 331.562C239.27 328.832 250.61 328.502 262 330.562C267.57 333.642 273.23 336.472 279 339.062C284.06 335.602 285.73 330.942 284 325.062Z" fill="#FED65B"/>
<path fill-rule="evenodd" clip-rule="evenodd" d="M95 332.061C96.18 331.841 97.18 332.171 98 333.061C96.65 335.081 94.98 336.751 93 338.061C93.1 335.861 93.77 333.861 95 332.061Z" fill="#DF6570"/>
<path fill-rule="evenodd" clip-rule="evenodd" d="M175.001 385.061C159.771 382.821 144.431 381.991 129.001 382.561C114.931 386.571 100.601 389.071 86.0005 390.061C85.1005 389.351 84.7605 388.351 85.0005 387.061C83.6805 387.231 82.5105 386.901 81.5005 386.061C80.8305 382.061 80.8305 378.061 81.5005 374.061C83.9705 366.521 85.9705 358.851 87.5005 351.061C88.3505 347.301 89.8505 343.961 92.0005 341.061C91.4605 350.421 95.7905 353.921 105.001 351.561C113.541 347.691 120.201 341.691 125.001 333.561C125.671 332.891 126.331 332.891 127.001 333.561C132.071 339.301 137.741 344.301 144.001 348.561C154.491 354.551 165.161 360.051 176.001 365.061C176.331 365.561 176.671 366.061 177.001 366.561C175.461 372.631 174.801 378.791 175.001 385.061Z" fill="#F34441"/>
<path fill-rule="evenodd" clip-rule="evenodd" d="M259 356.061C260.7 355.901 262.37 356.071 264 356.561C255.65 361.691 246.98 362.361 238 358.561C245.24 358.511 252.24 357.681 259 356.061Z" fill="#FED35B"/>
<path fill-rule="evenodd" clip-rule="evenodd" d="M200.001 371.062C220.701 374.752 241.701 376.252 263.001 375.562C265.961 375.282 268.621 374.452 271.001 373.062C274.931 372.202 278.931 371.872 283.001 372.062C283.871 379.082 284.871 386.082 286.001 393.062C263.941 396.802 242.271 395.302 221.001 388.562C213.311 388.252 205.641 387.752 198.001 387.062C197.391 381.292 198.051 375.962 200.001 371.062Z" fill="#F24441"/>
<path fill-rule="evenodd" clip-rule="evenodd" d="M200 371.062C217.3 372.702 234.63 374.042 252 375.062C258.42 375.092 264.75 374.422 271 373.062C268.62 374.452 265.96 375.282 263 375.562C241.7 376.252 220.7 374.752 200 371.062Z" fill="#A1558C"/>
<path fill-rule="evenodd" clip-rule="evenodd" d="M308 394.061C314.25 393.541 320.25 394.201 326 396.061C326.81 397.401 327.98 398.401 329.5 399.061C330 401.371 330.16 403.701 330 406.061C329.39 406.951 329.06 407.951 329 409.061C327.49 410.401 325.82 411.561 324 412.561C319.27 413.241 314.6 414.241 310 415.561C306.33 416.231 302.67 416.231 299 415.561C292.52 411.501 288.85 405.671 288 398.061C291.68 398.231 295.35 398.061 299 397.561C301.79 395.911 304.79 394.741 308 394.061Z" fill="#F24543"/>
<path fill-rule="evenodd" clip-rule="evenodd" d="M175 396.062C181.33 396.062 187.67 396.062 194 396.062C195.91 398.722 196.41 401.722 195.5 405.062C193.96 409.102 191.46 412.442 188 415.062C179.19 417.682 170.19 418.512 161 417.562C153.34 411.752 153.01 405.412 160 398.562C165.18 397.962 170.18 397.132 175 396.062Z" fill="#F34441"/>
</svg>
