<svg width="500" height="500" viewBox="0 0 500 500" fill="none" xmlns="http://www.w3.org/2000/svg">
<path fill-rule="evenodd" clip-rule="evenodd" d="M322 106.062C319.02 112.888 314.35 118.388 308 122.562C295.64 129.407 282.98 135.74 270 141.562C260.05 146.999 253.72 155.166 251 166.062C251.23 167.769 251.56 169.436 252 171.062C243.69 172.026 235.36 172.86 227 173.562C211.12 178.129 195.79 183.962 181 191.062C182.85 184.213 181.69 177.879 177.5 172.062C169 166.229 160.5 160.395 152 154.562C145.94 151.883 139.61 150.217 133 149.562C121.4 147.81 109.73 146.976 98 147.062C100.88 141.341 104.38 136.007 108.5 131.062C130.92 106.977 157.42 88.8096 188 76.5616C205.65 71.0346 223.65 69.3686 242 71.5616C268.77 80.1476 294.77 90.4816 320 102.562C320.81 103.675 321.47 104.841 322 106.062Z" fill="#4058DE"/>
<path fill-rule="evenodd" clip-rule="evenodd" d="M322 106.062C337.94 123.832 354.77 140.832 372.5 157.062C376.52 165.093 380.52 173.093 384.5 181.062C385.16 187.719 387.5 193.719 391.5 199.062C392.74 202.622 393.24 206.289 393 210.062C391.27 212.504 389.77 215.171 388.5 218.062C387.98 226.613 388.48 235.113 390 243.562C388.87 255.506 383.2 264.506 373 270.562C367.8 275.427 362.97 280.594 358.5 286.062C356.41 303.015 350.41 318.348 340.5 332.062C333.44 338.302 326.1 338.635 318.5 333.062C314.92 327.567 312.75 321.567 312 315.062C328.44 305.565 342.94 293.565 355.5 279.062C369.48 258.691 370.48 237.691 358.5 216.062C357.45 213.944 355.95 212.278 354 211.062C352.63 210.05 351.3 209.05 350 208.062C342.69 201.98 335.69 195.48 329 188.562C315.99 179.899 301.66 174.899 286 173.562C274.75 171.593 263.42 170.759 252 171.062C251.56 169.436 251.23 167.769 251 166.062C253.72 155.166 260.05 146.999 270 141.562C282.98 135.74 295.64 129.407 308 122.562C314.35 118.388 319.02 112.888 322 106.062Z" fill="#4CAE50"/>
<path fill-rule="evenodd" clip-rule="evenodd" d="M460 139.062C454.89 140.163 451.22 143.163 449 148.062C450.21 149.631 451.88 150.464 454 150.562C454.56 151.287 454.89 152.12 455 153.062C450.94 155.289 447.6 158.456 445 162.562C443.5 163.062 442 163.562 440.5 164.062C439 163.895 438.17 163.062 438 161.562C439.75 159.509 441.75 157.676 444 156.062C443.46 154.814 442.79 153.647 442 152.562C439 151.895 436 151.895 433 152.562C429.76 154.201 426.42 155.201 423 155.562C421.98 154.513 421.82 153.346 422.5 152.062C429.01 147.965 436.18 145.965 444 146.062C444.97 143.932 446.13 141.932 447.5 140.062C449.83 138.898 451.66 137.232 453 135.062C456.88 133.418 459.21 134.751 460 139.062Z" fill="#A2A2A2"/>
<path fill-rule="evenodd" clip-rule="evenodd" d="M453 135.061C451.66 137.231 449.83 138.897 447.5 140.061C446.13 141.931 444.97 143.931 444 146.061C436.18 145.964 429.01 147.964 422.5 152.061C421.82 153.345 421.98 154.512 423 155.561C426.42 155.2 429.76 154.2 433 152.561C436 151.894 439 151.894 442 152.561C442.79 153.646 443.46 154.813 444 156.061C441.75 157.675 439.75 159.508 438 161.561C438.17 163.061 439 163.894 440.5 164.061C442 163.561 443.5 163.061 445 162.561C447.6 158.455 450.94 155.288 455 153.061C454.89 152.119 454.56 151.286 454 150.561C451.88 150.463 450.21 149.63 449 148.061C451.22 143.162 454.89 140.162 460 139.061C464.56 149.492 461.56 157.326 451 162.561C449.96 164.479 448.79 166.312 447.5 168.061C448.61 182.831 445.28 196.498 437.5 209.061C433.66 214.739 430.33 220.739 427.5 227.061C420.78 235.447 414.45 244.114 408.5 253.061C405.67 255.39 402.51 257.057 399 258.061C399.93 250.421 400.59 242.754 401 235.061C408.5 225.397 415 215.064 420.5 204.061C423.74 194.331 427.74 184.998 432.5 176.061C433.54 172.804 434.04 169.471 434 166.061C422.65 164.19 418.15 157.523 420.5 146.061C421.83 142.727 423.66 139.727 426 137.061C419.45 131.515 415.45 124.515 414 116.061C415.65 109.991 419.32 108.491 425 111.561C429.26 115.545 433.43 119.712 437.5 124.061C438.67 118.223 441.5 113.39 446 109.561C452.46 108.506 455.79 111.339 456 118.061C454.36 123.618 453.36 129.284 453 135.061Z" fill="#FAFAFA"/>
<path fill-rule="evenodd" clip-rule="evenodd" d="M97.9999 147.061C109.73 146.975 121.4 147.809 133 149.561C139.61 150.216 145.94 151.882 152 154.561C160.5 160.394 169 166.228 177.5 172.061C181.69 177.878 182.85 184.212 181 191.061C173.4 196.134 165.4 200.634 157 204.561C154.17 206.562 151.5 208.728 149 211.061C139.36 211.796 130.69 214.963 123 220.561C128.84 220.609 134.51 221.442 140 223.061C137.81 228.971 135.81 234.971 134 241.061C128.75 243.972 124.09 247.639 120 252.061C123.33 254.413 127 255.746 131 256.061C130.41 269.22 131.58 282.22 134.5 295.061C141.26 318.821 156.76 333.321 181 338.561C198.6 342.377 216.26 342.877 234 340.061C230.43 345.941 227.93 352.274 226.5 359.061C215.89 380.833 200.06 397.5 179 409.061C172.62 408.727 166.95 406.727 162 403.061C159.28 397.068 157.94 390.735 158 384.061C158.46 376.941 159.62 369.941 161.5 363.061C161.96 349.834 156.13 340.334 144 334.561C139.57 329.795 136.4 324.295 134.5 318.061C134.43 310.622 133.76 303.289 132.5 296.061C131.67 295.228 130.83 294.394 130 293.561C122.24 291.64 114.57 289.307 107 286.561C101.33 286.03 95.6599 285.53 89.9999 285.061C90.2199 282.126 90.8799 279.292 91.9999 276.561C90.9699 272.355 88.3099 271.022 83.9999 272.561C82.0099 276.062 79.6799 279.229 76.9999 282.061C75.7799 281.533 74.6099 280.866 73.4999 280.061C69.7399 263.25 68.4099 246.25 69.4999 229.061C77.1999 202.253 85.1999 175.587 93.4999 149.061C94.5499 147.454 96.0499 146.788 97.9999 147.061Z" fill="#4CAE50"/>
<path fill-rule="evenodd" clip-rule="evenodd" d="M252 171.062C263.42 170.759 274.75 171.593 286 173.562C301.66 174.899 315.99 179.899 329 188.562C335.69 195.48 342.69 201.98 350 208.062C346.63 207.888 343.29 207.388 340 206.562C334.4 203.361 328.4 201.361 322 200.562C309.67 199.895 297.33 199.895 285 200.562C281.2 201.096 277.53 202.096 274 203.562C270.8 207.729 267.3 211.562 263.5 215.062C257.27 233.243 259.6 250.243 270.5 266.062C274.82 271.939 280.65 274.773 288 274.562C297.05 274.883 306.05 274.383 315 273.062C316.79 268.75 319.62 265.083 323.5 262.062C325.09 259.892 326.42 257.558 327.5 255.062C329.26 246.276 330.76 237.443 332 228.562C331.17 224.573 329.84 220.74 328 217.062C328.5 216.729 329 216.395 329.5 216.062C336.41 218.854 343.58 219.688 351 218.562C353.54 216.714 354.54 214.214 354 211.062C355.95 212.278 357.45 213.944 358.5 216.062C370.48 237.691 369.48 258.691 355.5 279.062C342.94 293.565 328.44 305.565 312 315.062C301.46 319.831 290.79 324.331 280 328.562C264.3 331.462 248.97 335.295 234 340.062C216.26 342.878 198.6 342.378 181 338.562C156.76 333.322 141.26 318.822 134.5 295.062C131.58 282.221 130.41 269.221 131 256.062C131.91 251.167 132.91 246.167 134 241.062C135.81 234.972 137.81 228.972 140 223.062C142.51 218.704 145.51 214.704 149 211.062C151.5 208.729 154.17 206.563 157 204.562C165.4 200.635 173.4 196.135 181 191.062C195.79 183.962 211.12 178.129 227 173.562C235.36 172.86 243.69 172.026 252 171.062Z" fill="#FCFDFC"/>
<path fill-rule="evenodd" clip-rule="evenodd" d="M350 208.062C351.3 209.05 352.63 210.05 354 211.062C354.54 214.214 353.54 216.714 351 218.562C343.58 219.688 336.41 218.854 329.5 216.062C329 216.395 328.5 216.729 328 217.062C329.84 220.74 331.17 224.573 332 228.562C330.76 237.443 329.26 246.276 327.5 255.062C326.42 257.558 325.09 259.892 323.5 262.062C319.62 265.083 316.79 268.75 315 273.062C306.05 274.383 297.05 274.883 288 274.562C280.65 274.773 274.82 271.939 270.5 266.062C259.6 250.243 257.27 233.243 263.5 215.062C267.3 211.562 270.8 207.729 274 203.562C277.53 202.096 281.2 201.096 285 200.562C297.33 199.895 309.67 199.895 322 200.562C328.4 201.361 334.4 203.361 340 206.562C343.29 207.388 346.63 207.888 350 208.062Z" fill="#040404"/>
<path fill-rule="evenodd" clip-rule="evenodd" d="M149 211.062C145.51 214.704 142.51 218.704 140 223.062C134.51 221.443 128.84 220.61 123 220.562C130.69 214.964 139.36 211.797 149 211.062Z" fill="#435CDB"/>
<path fill-rule="evenodd" clip-rule="evenodd" d="M278 212.061C283.24 211.099 287.41 212.766 290.5 217.061C291.11 222.747 291.45 228.413 291.5 234.061C288.05 240.105 282.88 242.271 276 240.561C272.63 237.939 269.79 234.772 267.5 231.061C266.71 227.927 267.04 224.927 268.5 222.061C271.92 218.803 275.09 215.469 278 212.061Z" fill="#F5F5F5"/>
<path fill-rule="evenodd" clip-rule="evenodd" d="M393 210.062C396.45 218.192 399.11 226.525 401 235.062C400.59 242.755 399.93 250.422 399 258.062C395.64 273.426 393.14 289.093 391.5 305.062C384.1 325.193 374.1 343.859 361.5 361.062C349.89 373.016 337.39 383.849 324 393.562C310 399.229 296 404.895 282 410.562C270.64 413.235 259.31 415.901 248 418.562C234.98 419.265 221.98 418.931 209 417.562C198.95 414.718 188.95 411.884 179 409.062C200.06 397.501 215.89 380.834 226.5 359.062C227.93 352.275 230.43 345.942 234 340.062C248.97 335.295 264.3 331.462 280 328.562C290.79 324.331 301.46 319.831 312 315.062C312.75 321.567 314.92 327.567 318.5 333.062C326.1 338.635 333.44 338.302 340.5 332.062C350.41 318.348 356.41 303.015 358.5 286.062C362.97 280.594 367.8 275.427 373 270.562C383.2 264.506 388.87 255.506 390 243.562C388.48 235.113 387.98 226.613 388.5 218.062C389.77 215.171 391.27 212.504 393 210.062Z" fill="#4058DD"/>
<path fill-rule="evenodd" clip-rule="evenodd" d="M185 227.061C193.18 226.511 201.18 227.345 209 229.561C213.02 231.429 215.19 234.596 215.5 239.061C225.21 245.488 229.88 254.488 229.5 266.061C227.69 278.848 221.86 289.348 212 297.561C197.76 306.543 183.76 306.21 170 296.561C166.38 291.816 162.88 286.983 159.5 282.061C156.92 276.335 155.59 270.335 155.5 264.061C152.83 268.061 150.17 272.061 147.5 276.061C141.42 283.41 137.09 282.743 134.5 274.061C135.91 262.08 141.41 252.246 151 244.561C157.16 239.981 163.49 235.647 170 231.561C174.91 229.308 179.91 227.808 185 227.061Z" fill="#050505"/>
<path fill-rule="evenodd" clip-rule="evenodd" d="M196.001 237.061C202.771 236.259 207.601 238.926 210.501 245.061C212.611 254.242 210.111 261.742 203.001 267.561C195.031 268.475 189.861 264.975 187.501 257.061C187.211 252.615 187.881 248.282 189.501 244.061C191.361 241.394 193.531 239.061 196.001 237.061Z" fill="#F5F5F5"/>
<path fill-rule="evenodd" clip-rule="evenodd" d="M134 241.062C132.91 246.167 131.91 251.167 131 256.062C127 255.747 123.33 254.414 120 252.062C124.09 247.64 128.75 243.973 134 241.062Z" fill="#4960DA"/>
<path fill-rule="evenodd" clip-rule="evenodd" d="M89.9996 285.062C86.9596 292.516 84.2896 300.182 81.9996 308.062C70.1396 329.493 64.2996 352.493 64.4996 377.062C77.5896 367.256 87.9296 369.59 95.4996 384.062C97.3096 395.279 93.1396 403.446 82.9996 408.562C85.7996 411.065 88.2996 413.899 90.4996 417.062C91.5096 421.728 89.6796 424.061 84.9996 424.062C76.9896 423.895 71.1596 420.229 67.4996 413.062C67.9796 417.679 67.9796 422.345 67.4996 427.062C65.6896 428.958 63.5296 429.458 60.9996 428.562C56.2696 422.606 52.4396 416.106 49.4996 409.062C48.4696 415.805 45.1396 417.471 39.4996 414.062C37.1296 404.518 37.7996 395.184 41.4996 386.062C44.5896 383.006 46.7596 379.506 47.9996 375.562C45.9796 350.157 51.1396 326.324 63.4996 304.062C68.2696 296.84 72.7696 289.507 76.9996 282.062C79.6796 279.23 82.0096 276.063 83.9996 272.562C88.3096 271.023 90.9696 272.356 91.9996 276.562C90.8796 279.293 90.2196 282.127 89.9996 285.062Z" fill="#FAFAFA"/>
<path fill-rule="evenodd" clip-rule="evenodd" d="M90 285.062C95.66 285.531 101.33 286.031 107 286.562C114.57 289.308 122.24 291.641 130 293.562C130.83 294.395 131.67 295.229 132.5 296.062C133.76 303.29 134.43 310.623 134.5 318.062C136.4 324.296 139.57 329.796 144 334.562C156.13 340.335 161.96 349.835 161.5 363.062C159.62 369.942 158.46 376.942 158 384.062C157.94 390.736 159.28 397.069 162 403.062C128.05 388.61 103.88 364.276 89.5 330.062C86.7 322.803 84.2 315.469 82 308.062C84.29 300.182 86.96 292.516 90 285.062Z" fill="#4058DE"/>
<path fill-rule="evenodd" clip-rule="evenodd" d="M276 285.062C280.03 284.284 282.7 285.784 284 289.562C282.34 296.888 279.34 303.555 275 309.562C270.45 311.107 265.79 311.441 261 310.562C257.08 309.46 253.08 308.793 249 308.562C245.49 305.514 245.16 302.181 248 298.562C254.08 297.936 260.08 298.436 266 300.062C267 299.729 268 299.395 269 299.062C270.31 293.776 272.64 289.109 276 285.062Z" fill="#0A0A0A"/>
<path fill-rule="evenodd" clip-rule="evenodd" d="M77.0003 381.062C83.9703 382.187 86.8003 386.187 85.5003 393.062C82.8403 397.977 79.8403 397.977 76.5003 393.062C73.0203 388.697 73.1903 384.697 77.0003 381.062Z" fill="#101010"/>
</svg>
