<svg width="500" height="500" viewBox="0 0 500 500" fill="none" xmlns="http://www.w3.org/2000/svg">
<path fill-rule="evenodd" clip-rule="evenodd" d="M232 103.062C237.12 104.972 241.12 108.302 244 113.062C252.703 114.712 261.37 116.552 270 118.562C276.357 118.912 282.69 119.412 289 120.062C293.222 121.492 297.555 122.992 302 124.562C304.774 127.032 307.94 128.862 311.5 130.062C314.807 128.252 317.974 126.252 321 124.062C334.38 120.202 344.714 124.362 352 136.562C354.677 136.812 357.01 137.812 359 139.562C363.492 144.882 367.492 150.542 371 156.562C376.529 156.642 381.862 157.642 387 159.562C395.062 164.292 402.562 169.792 409.5 176.062C414.031 184.462 418.031 193.122 421.5 202.062C426.778 208.282 430.778 215.282 433.5 223.062C433.085 236.702 433.251 250.362 434 264.062C427.791 247.622 420.958 231.292 413.5 215.062C406.417 203.222 399.083 191.562 391.5 180.062C383.127 171.012 373.627 163.512 363 157.562C348.789 149.792 334.122 143.122 319 137.562C297.595 132.382 275.929 130.882 254 133.062C253.21 131.772 252.21 130.602 251 129.562C247.158 128.842 243.824 127.172 241 124.562C223.499 124.062 209.665 130.892 199.5 145.062C196.833 149.062 194.167 153.062 191.5 157.062C190.372 158.912 189.872 160.912 190 163.062C168.255 181.642 148.755 202.302 131.5 225.062C120.5 240.732 109.5 256.392 98.5002 272.062C98.2218 271.142 97.7218 270.482 97.0002 270.062C96.4788 260.602 99.8121 252.932 107 247.062C107.565 240.592 108.731 234.252 110.5 228.062C112.85 224.912 116.016 223.242 120 223.062C121.88 219.952 124.213 217.282 127 215.062C129.095 212.802 131.595 211.132 134.5 210.062C136.046 201.852 137.379 193.522 138.5 185.062C139.238 181.912 140.738 179.242 143 177.062C144.892 175.862 146.726 174.532 148.5 173.062C151.629 167.632 155.129 162.472 159 157.562C161.525 156.662 163.692 157.162 165.5 159.062C167.747 152.582 169.247 145.922 170 139.062C171.067 135.222 172.734 131.552 175 128.062C178.323 124.282 182.323 123.282 187 125.062C187.822 123.422 188.489 121.752 189 120.062C189.752 116.612 190.752 113.282 192 110.062C192.764 105.142 194.264 100.472 196.5 96.0615C197.938 94.8415 199.605 94.1715 201.5 94.0615C207.608 96.7015 213.774 99.2015 220 101.562C223.918 102.722 227.918 103.222 232 103.062Z" fill="#4FA636"/>
<path fill-rule="evenodd" clip-rule="evenodd" d="M290 116.062C291.675 118.022 291.342 119.352 289 120.062C282.69 119.412 276.357 118.912 270 118.562C261.37 116.552 252.703 114.712 244 113.062C241.12 108.302 237.12 104.972 232 103.062C239.066 96.4915 247.399 94.3215 257 96.5615C266.268 99.4915 274.268 104.492 281 111.562C284.339 112.402 287.339 113.902 290 116.062Z" fill="#CA2302"/>
<path fill-rule="evenodd" clip-rule="evenodd" d="M191.999 110.062C190.751 113.282 189.751 116.612 188.999 120.062C163.011 126.552 140.844 139.552 122.499 159.062C118.578 164.992 113.911 170.322 108.499 175.062C102.919 182.552 97.5858 190.222 92.4989 198.062C86.7552 210.552 80.7552 222.882 74.4989 235.062C72.0245 242.822 69.3578 250.482 66.4989 258.062C65.7031 260.602 65.8698 262.932 66.9989 265.062C64.8773 280.852 66.2107 296.182 70.9989 311.062C71.4875 314.032 72.6541 316.692 74.4989 319.062C76.7497 314.642 78.4164 309.982 79.4989 305.062C86.0425 295.312 91.5425 284.972 95.9989 274.062C96.9334 272.992 97.2667 271.662 96.9989 270.062C97.7205 270.482 98.2205 271.142 98.4989 272.062C109.499 256.392 120.499 240.732 131.499 225.062C148.754 202.302 168.254 181.642 189.999 163.062C202.008 153.722 215.008 145.882 228.999 139.562C237.491 137.572 245.825 135.402 253.999 133.062C275.928 130.882 297.594 132.382 318.999 137.562C334.121 143.122 348.788 149.792 362.999 157.562C373.626 163.512 383.126 171.012 391.499 180.062C399.082 191.562 406.416 203.222 413.499 215.062C420.957 231.292 427.79 247.622 433.999 264.062C433.837 266.092 434.004 268.092 434.499 270.062C444.869 293.372 446.536 317.372 439.499 342.062C436.282 348.002 432.448 353.502 427.999 358.562C424.464 360.272 420.797 361.602 416.999 362.562C402.6 362.952 388.266 363.112 373.999 363.062C352.543 361.562 331.21 359.892 309.999 358.062C305.332 358.062 300.666 358.062 295.999 358.062C270.315 358.692 244.648 359.692 218.999 361.062C214.332 361.062 209.666 361.062 204.999 361.062C200.888 359.852 196.554 359.192 191.999 359.062C163.456 360.572 135.123 358.732 106.999 353.562C100.166 352.322 93.4989 350.322 86.9989 347.562C82.1908 344.252 77.5241 340.752 72.9989 337.062C69.4283 333.592 66.595 329.592 64.4989 325.062C56.5319 302.352 54.1985 279.022 57.4989 255.062C61.2544 247.062 64.2544 238.732 66.4989 230.062C72.7764 217.842 78.7764 205.512 84.4989 193.062C97.1129 174.102 111.613 156.602 127.999 140.562C144.697 126.882 163.363 116.882 183.999 110.562C186.645 110.062 189.312 109.902 191.999 110.062Z" fill="#E08D43"/>
<path fill-rule="evenodd" clip-rule="evenodd" d="M290 116.061C298.94 115.401 307.607 116.571 316 119.561C318.208 120.611 319.874 122.111 321 124.061C317.974 126.251 314.807 128.251 311.5 130.061C307.94 128.861 304.774 127.031 302 124.561C297.555 122.991 293.222 121.491 289 120.061C291.342 119.351 291.675 118.021 290 116.061Z" fill="#581C07"/>
<path fill-rule="evenodd" clip-rule="evenodd" d="M189 120.062C188.489 121.752 187.822 123.422 187 125.062C182.323 123.282 178.323 124.282 175 128.062C172.734 131.552 171.067 135.222 170 139.062C165.581 138.222 161.248 139.062 157 141.562C153.167 145.392 149.333 149.232 145.5 153.062C141.097 159.322 138.93 166.322 139 174.062C130.478 173.322 123.312 175.992 117.5 182.062C114.405 186.152 111.739 190.482 109.5 195.062C109.167 199.732 108.834 204.392 108.5 209.062C103 213.892 97.5003 218.732 92.0003 223.562C85.2435 229.262 80.0769 236.102 76.5003 244.062C76.0009 249.722 75.8342 255.382 76.0003 261.062C72.371 261.042 69.371 262.382 67.0003 265.062C65.8712 262.932 65.7045 260.602 66.5003 258.062C69.3592 250.482 72.0259 242.822 74.5003 235.062C80.7566 222.882 86.7566 210.552 92.5003 198.062C97.5872 190.222 102.921 182.552 108.5 175.062C113.912 170.322 118.579 164.992 122.5 159.062C140.845 139.552 163.012 126.552 189 120.062Z" fill="#FCB00F"/>
<path fill-rule="evenodd" clip-rule="evenodd" d="M254 133.062C245.826 135.402 237.492 137.572 229 139.562C215.009 145.882 202.009 153.722 190 163.062C189.872 160.912 190.372 158.912 191.5 157.062C194.167 153.062 196.833 149.062 199.5 145.062C209.665 130.892 223.499 124.062 241 124.562C243.824 127.172 247.158 128.842 251 129.562C252.21 130.602 253.21 131.772 254 133.062Z" fill="#CA2301"/>
<path fill-rule="evenodd" clip-rule="evenodd" d="M170.001 139.061C169.248 145.921 167.748 152.581 165.501 159.061C163.693 157.161 161.526 156.661 159.001 157.561C155.13 162.471 151.63 167.631 148.501 173.061C146.727 174.531 144.893 175.861 143.001 177.061C141.471 176.351 140.138 175.351 139.001 174.061C138.931 166.321 141.098 159.321 145.501 153.061C149.334 149.231 153.168 145.391 157.001 141.561C161.249 139.061 165.582 138.221 170.001 139.061Z" fill="#CA2500"/>
<path fill-rule="evenodd" clip-rule="evenodd" d="M260 141.062C277.817 140.722 295.484 142.222 313 145.562C331.251 152.522 348.917 160.852 366 170.562C373.431 175.992 380.264 182.152 386.5 189.062C408.704 222.822 424.371 259.482 433.5 299.062C434.232 310.762 433.899 322.422 432.5 334.062C430.12 339.812 426.954 345.152 423 350.062C419.742 351.452 416.408 352.622 413 353.562C383.653 353.372 354.32 352.372 325 350.562C324.333 349.892 323.667 349.232 323 348.562C317.833 348.392 312.667 348.232 307.5 348.062C275.907 349.292 244.241 350.292 212.5 351.062C208 350.892 203.5 350.732 199 350.562C198.237 349.622 197.237 349.122 196 349.062C164.226 351.842 132.893 349.672 102 342.562C93.8739 340.002 86.8739 335.672 81 329.562C84.8316 316.402 90.6649 304.232 98.5 293.062C99.6087 288.842 101.275 284.842 103.5 281.062C115.746 264.242 127.746 247.242 139.5 230.062C147.167 220.732 154.833 211.392 162.5 202.062C173.667 191.562 184.833 181.062 196 170.562C206.999 161.722 218.999 154.392 232 148.562C241.568 146.372 250.901 143.872 260 141.062Z" fill="#FEB110"/>
<path fill-rule="evenodd" clip-rule="evenodd" d="M139 174.062C140.137 175.352 141.47 176.352 143 177.062C140.738 179.242 139.238 181.912 138.5 185.062C137.379 193.522 136.046 201.852 134.5 210.062C131.595 211.132 129.095 212.802 127 215.062C126.249 213.992 125.249 213.822 124 214.562C118.33 217.392 112.997 220.732 108 224.562C96.1166 236.172 88.2833 250.002 84.4996 266.062C83.8329 271.062 83.8329 276.062 84.4996 281.062C84.9165 282.322 85.7498 282.982 86.9996 283.062C84.8907 286.532 83.0573 290.202 81.4996 294.062C80.0585 294.822 78.5585 295.492 76.9996 296.062C76.1721 300.362 75.6721 304.692 75.4996 309.062C74.39 310.602 72.89 311.262 70.9996 311.062C66.2114 296.182 64.878 280.852 66.9996 265.062C69.3703 262.382 72.3703 261.042 75.9996 261.062C75.8335 255.382 76.0002 249.722 76.4996 244.062C80.0762 236.102 85.2428 229.262 91.9996 223.562C97.4996 218.732 103 213.892 108.5 209.062C108.833 204.392 109.166 199.732 109.5 195.062C111.739 190.482 114.405 186.152 117.5 182.062C123.312 175.992 130.478 173.322 139 174.062Z" fill="#571A03"/>
<path fill-rule="evenodd" clip-rule="evenodd" d="M352 255.062C349.478 253.392 346.812 251.892 344 250.562C337.414 249.332 331.081 247.332 325 244.562C302.112 238.752 289.779 247.752 288 271.562C289.187 295.032 301.521 304.362 325 299.562C328.958 297.332 332.458 294.492 335.5 291.062C338.72 284.622 341.387 277.952 343.5 271.062C343.186 268.012 343.353 265.012 344 262.062C347.725 265.422 352.058 267.422 357 268.062C362.946 281.152 362.113 293.822 354.5 306.062C347.9 315.782 338.733 321.622 327 323.562C296 325.562 265 325.562 234 323.562C219.627 319.962 207.794 312.462 198.5 301.062C194.055 292.902 191.555 284.232 191 275.062C193.155 275.192 195.155 274.692 197 273.562C199.849 270.542 202.849 267.712 206 265.062C206.908 266.352 206.741 267.682 205.5 269.062C204.833 272.732 204.833 276.392 205.5 280.062C207.746 283.792 209.413 287.792 210.5 292.062C221.955 305.042 234.788 306.542 249 296.562C257.452 289.172 261.619 280.002 261.5 269.062C258.559 263.862 256.225 258.532 254.5 253.062C248.948 247.322 242.115 244.482 234 244.562C229.667 243.892 225.333 243.892 221 244.562C213.741 247.282 206.741 250.452 200 254.062C223.214 227.402 252.547 216.902 288 222.562C300.446 225.092 312.78 228.092 325 231.562C337.301 235.702 346.301 243.532 352 255.062Z" fill="#FCFBF9"/>
<path fill-rule="evenodd" clip-rule="evenodd" d="M127 215.061C124.213 217.281 121.88 219.951 120 223.061C116.016 223.241 112.85 224.911 110.5 228.061C108.731 234.251 107.564 240.591 107 247.061C99.8119 252.931 96.4786 260.601 97 270.061C97.2678 271.661 96.9345 272.991 96 274.061C94.6266 273.901 93.2932 274.071 92 274.561C89.932 277.201 88.2653 280.041 87 283.061C85.7502 282.981 84.9169 282.321 84.5 281.061C83.8333 276.061 83.8333 271.061 84.5 266.061C88.2837 250.001 96.117 236.171 108 224.561C112.997 220.731 118.33 217.391 124 214.561C125.249 213.821 126.249 213.991 127 215.061Z" fill="#C82200"/>
<path fill-rule="evenodd" clip-rule="evenodd" d="M352 255.062C355.004 257.992 358.504 260.322 362.5 262.062C363.333 266.402 361.5 268.402 357 268.062C352.058 267.422 347.725 265.422 344 262.062C343.353 265.012 343.186 268.012 343.5 271.062C341.387 277.952 338.72 284.622 335.5 291.062C332.458 294.492 328.958 297.332 325 299.562C301.521 304.362 289.187 295.032 288 271.562C289.779 247.752 302.112 238.752 325 244.562C331.081 247.332 337.414 249.332 344 250.562C346.812 251.892 349.478 253.392 352 255.062Z" fill="#050505"/>
<path fill-rule="evenodd" clip-rule="evenodd" d="M191 275.061C190.004 275.151 189.171 274.811 188.5 274.061C187.833 271.391 187.833 268.731 188.5 266.061C191.836 261.561 195.669 257.561 200 254.061C206.741 250.451 213.741 247.281 221 244.561C225.333 243.891 229.667 243.891 234 244.561C242.115 244.481 248.948 247.321 254.5 253.061C256.225 258.531 258.559 263.861 261.5 269.061C261.619 280.001 257.452 289.171 249 296.561C234.788 306.541 221.955 305.041 210.5 292.061C209.413 287.791 207.746 283.791 205.5 280.061C204.833 276.391 204.833 272.731 205.5 269.061C206.741 267.681 206.908 266.351 206 265.061C202.849 267.711 199.849 270.541 197 273.561C195.155 274.691 193.155 275.191 191 275.061Z" fill="#080707"/>
<path fill-rule="evenodd" clip-rule="evenodd" d="M304.999 250.061C309.093 249.261 312.26 250.601 314.499 254.061C314.831 258.751 314.497 263.421 313.499 268.061C310.191 271.891 306.025 273.051 300.999 271.561C299.288 268.971 297.454 266.471 295.499 264.061C294.793 261.591 295.126 259.261 296.499 257.061C299.235 254.461 302.068 252.131 304.999 250.061Z" fill="#EFEFEF"/>
<path fill-rule="evenodd" clip-rule="evenodd" d="M238 254.061C248.473 253.611 252.306 258.611 249.5 269.061C241.173 280.491 235.006 279.491 231 266.061C232.299 261.461 234.632 257.461 238 254.061Z" fill="#F5F5F5"/>
<path fill-rule="evenodd" clip-rule="evenodd" d="M96 274.061C91.5436 284.971 86.0436 295.311 79.5 305.061C78.4175 309.981 76.7508 314.641 74.5 319.061C72.6552 316.691 71.4886 314.031 71 311.061C72.8904 311.261 74.3904 310.601 75.5 309.061C75.6725 304.691 76.1725 300.361 77 296.061C78.5589 295.491 80.0589 294.821 81.5 294.061C83.0577 290.201 84.8911 286.531 87 283.061C88.2653 280.041 89.932 277.201 92 274.561C93.2932 274.071 94.6266 273.901 96 274.061Z" fill="#50A435"/>
<path fill-rule="evenodd" clip-rule="evenodd" d="M290 304.062C293.698 303.242 296.031 304.572 297 308.062C294.88 313.792 291.213 318.292 286 321.562C283.667 322.232 281.333 322.232 279 321.562C274.787 319.312 270.621 317.152 266.5 315.062C265.107 311.362 266.274 309.362 270 309.062C273.202 309.662 276.202 310.832 279 312.562C280.667 313.232 282.333 313.232 284 312.562C286.388 309.932 288.388 307.102 290 304.062Z" fill="#111111"/>
<path fill-rule="evenodd" clip-rule="evenodd" d="M296 358.062C300.667 358.062 305.333 358.062 310 358.062C309.706 369.062 309.372 380.062 309 391.062C316.583 390.492 320.417 393.822 320.5 401.062C314.527 405.512 308.027 406.342 301 403.562C300.167 402.732 299.333 401.892 298.5 401.062C296.795 386.782 295.962 372.452 296 358.062Z" fill="#070707"/>
<path fill-rule="evenodd" clip-rule="evenodd" d="M205 361.062C209.667 361.062 214.333 361.062 219 361.062C217.714 370.732 217.714 380.402 219 390.062C223.356 390.602 227.189 392.262 230.5 395.062C231.436 399.022 230.27 402.182 227 404.562C220.687 406.082 214.354 406.252 208 405.062C207.692 404.252 207.192 403.592 206.5 403.062C206.066 389.052 205.566 375.052 205 361.062Z" fill="#050505"/>
</svg>
