<svg width="500" height="500" viewBox="0 0 500 500" fill="none" xmlns="http://www.w3.org/2000/svg">
<path fill-rule="evenodd" clip-rule="evenodd" d="M180 240.061C149.629 247.991 118.963 254.651 88 260.061C85.692 260.201 83.692 259.531 82 258.061C81.414 258.271 80.914 258.601 80.5 259.061C77.833 246.391 75.167 233.731 72.5 221.061C72.147 218.411 70.98 216.411 69 215.061C69.778 214.401 70.444 213.571 71 212.561C65.929 190.441 61.095 168.281 56.5 146.061C53.963 135.611 57.796 128.771 68 125.561C81.176 123.391 94.176 120.391 107 116.561C118.721 115.681 130.054 113.351 141 109.561C143.757 108.981 146.423 109.311 149 110.561C151.521 112.781 153.688 115.281 155.5 118.061C157.293 124.441 159.293 130.771 161.5 137.061C166.674 161.291 171.341 185.621 175.5 210.061C177.256 217.251 179.089 224.421 181 231.561C180.284 234.351 179.951 237.191 180 240.061Z" fill="#FDFEFD"/>
<path fill-rule="evenodd" clip-rule="evenodd" d="M406.001 202.062C403.803 202.442 401.803 203.102 400.001 204.062C395.987 204.232 391.987 204.062 388.001 203.562C378.667 198.732 369.001 194.732 359.001 191.562C348.7 189.762 338.366 189.602 328.001 191.062C318.466 190.992 309.466 188.822 301.001 184.562C298.143 182.872 295.81 180.702 294.001 178.062C293.334 175.732 292.668 173.392 292.001 171.062C289.535 156.832 294.868 146.662 308.001 140.562C327.495 132.602 346.495 133.772 365.001 144.062C368.565 134.652 374.898 132.482 384.001 137.562C389.764 142.662 390.431 148.332 386.001 154.562C393.961 157.872 401.295 162.212 408.001 167.562C421.758 179.982 421.092 191.482 406.001 202.062Z" fill="#8E2626"/>
<path fill-rule="evenodd" clip-rule="evenodd" d="M327 142.062C343.488 141.612 358.154 146.452 371 156.562C380.594 160.362 389.927 164.692 399 169.562C404.893 173.112 408.893 178.112 411 184.562C409.379 187.302 407.879 190.132 406.5 193.062C403.078 194.812 399.411 195.812 395.5 196.062C383.832 193.622 372.665 189.782 362 184.562C349.034 183.462 336.034 183.122 323 183.562C315.041 183.242 307.875 180.742 301.5 176.062C295.221 163.892 298.055 154.392 310 147.562C315.58 145.092 321.246 143.262 327 142.062Z" fill="#B92929"/>
<path fill-rule="evenodd" clip-rule="evenodd" d="M123 146.061C136.887 144.451 145.387 150.451 148.5 164.061C149.679 170.361 150.013 176.691 149.5 183.061C147.53 189.001 145.03 194.661 142 200.061C143.971 202.371 145.971 204.701 148 207.061C150.599 207.591 153.265 207.761 156 207.561C157.945 215.891 154.611 218.891 146 216.561C144.333 215.391 142.667 214.231 141 213.061C140.153 210.691 138.819 208.691 137 207.061C131.569 212.551 124.903 215.551 117 216.061C117.086 218.241 117.753 220.241 119 222.061C122.976 222.951 126.976 223.611 131 224.061C131.28 226.831 130.613 229.331 129 231.561C121.591 234.851 115.591 233.351 111 227.061C109.467 223.131 108.134 219.131 107 215.061C103.99 214.291 100.99 213.461 98 212.561C95.333 210.561 92.667 208.561 90 206.561C88.242 201.961 85.742 197.791 82.5 194.061C82.127 188.381 81.627 182.711 81 177.061C83.065 170.651 85.565 164.321 88.5 158.061C91.637 155.571 95.137 153.741 99 152.561C108.111 153.451 116.111 151.291 123 146.061Z" fill="#A1E17D"/>
<path fill-rule="evenodd" clip-rule="evenodd" d="M127.001 154.061C131.449 153.711 134.949 155.381 137.501 159.061C140.671 168.621 140.671 178.281 137.501 188.061C134.775 192.621 132.275 197.281 130.001 202.061C126.582 203.271 123.248 204.771 120.001 206.561C113.148 207.521 106.481 206.851 100.001 204.561C91.6921 195.281 88.8591 184.451 91.5011 172.061C93.1891 168.941 95.0231 165.941 97.0011 163.061C101.214 161.101 104.547 161.931 107.001 165.561C109.08 166.371 111.08 166.201 113.001 165.061C115.105 160.111 118.772 157.281 124.001 156.561C125.443 156.181 126.443 155.351 127.001 154.061Z" fill="#F6F3F0"/>
<path fill-rule="evenodd" clip-rule="evenodd" d="M229 169.062C225.826 169.582 222.826 170.582 220 172.062C217.659 171.382 215.326 170.712 213 170.062C213.187 168.002 213.687 166.002 214.5 164.062C217.487 160.072 220.82 156.412 224.5 153.062C225.977 154.002 226.977 155.342 227.5 157.062C228.001 161.072 228.501 165.072 229 169.062Z" fill="#84D55F"/>
<path fill-rule="evenodd" clip-rule="evenodd" d="M229 169.062C229.072 173.252 228.239 177.252 226.5 181.062C225.684 182.382 224.517 183.052 223 183.062C221 182.732 219 182.392 217 182.062C213.971 178.662 212.638 174.662 213 170.062C215.326 170.712 217.659 171.382 220 172.062C222.826 170.582 225.826 169.582 229 169.062Z" fill="#313132"/>
<path fill-rule="evenodd" clip-rule="evenodd" d="M292 171.062C292.667 173.392 293.333 175.732 294 178.062C280.627 182.392 269.46 190.392 260.5 202.062C258.079 205.902 255.912 209.902 254 214.062C254.124 214.672 254.457 215.002 255 215.062C253.656 216.732 252.323 218.392 251 220.062C249.847 222.132 249.847 224.132 251 226.062C249.02 227.412 247.853 229.412 247.5 232.062C246.588 236.352 245.921 240.692 245.5 245.062C243.76 246.282 242.76 247.942 242.5 250.062C239.619 251.592 237.286 250.922 235.5 248.062C230.667 241.892 225.833 235.732 221 229.562C219.628 229.162 218.295 228.662 217 228.062C216.044 229.432 215.378 230.932 215 232.562C222.787 245.012 232.62 255.512 244.5 264.062C250.859 279.752 260.359 293.252 273 304.562C277.859 307.992 283.193 310.322 289 311.562C289.833 312.392 290.667 313.232 291.5 314.062C289.676 324.602 288.176 335.262 287 346.062C281.472 344.632 278.138 346.632 277 352.062C277.029 353.592 277.696 354.762 279 355.562C285.471 357.332 291.971 357.502 298.5 356.062C299.322 353.772 299.989 351.442 300.5 349.062C300.833 340.062 301.167 331.062 301.5 322.062C304.341 320.062 307.507 319.562 311 320.562C320.959 322.412 330.959 324.072 341 325.562C343.388 325.862 345.555 326.702 347.5 328.062C348.443 335.712 347.943 343.212 346 350.562C343.047 352.512 339.881 354.012 336.5 355.062C335.236 359.202 336.57 361.872 340.5 363.062C344.644 362.402 348.811 361.902 353 361.562C354.814 360.642 355.814 359.142 356 357.062C357.628 345.782 358.795 334.442 359.5 323.062C367.651 323.572 373.818 320.232 378 313.062C380.34 314.402 382.673 315.742 385 317.062C386.917 316.812 388.251 315.812 389 314.062C394.546 309.922 399.879 310.252 405 315.062C408.285 315.882 411.618 316.382 415 316.562C419.98 319.452 421.313 323.612 419 329.062C417.63 330.732 416.297 332.402 415 334.062C404.812 337.392 395.978 335.062 388.5 327.062C387.373 324.182 386.706 321.182 386.5 318.062C381.257 324.812 374.424 328.812 366 330.062C364.87 341.392 363.704 352.732 362.5 364.062C357.767 367.532 352.433 369.192 346.5 369.062C333.208 370.772 327.875 365.102 330.5 352.062C333.244 349.442 336.411 347.442 340 346.062C340.993 341.442 341.327 336.772 341 332.062C329.975 330.852 318.975 329.512 308 328.062C308.985 340.092 307.485 351.752 303.5 363.062C295.079 364.212 286.579 364.382 278 363.562C271.833 359.712 269.666 354.212 271.5 347.062C273.653 342.912 276.986 340.242 281.5 339.062C282.382 331.722 283.215 324.392 284 317.062C273.884 314.412 265.384 309.082 258.5 301.062C250.244 290.632 243.41 279.292 238 267.062C234.973 266.202 232.306 264.702 230 262.562C222.393 254.802 215.393 246.632 209 238.062C206.497 237.192 203.83 236.522 201 236.062C191.395 225.892 191.728 216.052 202 206.562C204.24 205.582 206.573 205.082 209 205.062C212.018 207.092 215.018 209.092 218 211.062C224.364 210.562 228.031 213.392 229 219.562C228.297 222.392 228.13 225.222 228.5 228.062C231.857 231.922 235.024 235.922 238 240.062C239.095 232.962 240.595 225.962 242.5 219.062C246.995 210.072 251.995 201.402 257.5 193.062C267.322 183.072 278.822 175.732 292 171.062Z" fill="#E9EAEA"/>
<path fill-rule="evenodd" clip-rule="evenodd" d="M294 178.062C295.809 180.702 298.142 182.872 301 184.562C309.465 188.822 318.465 190.992 328 191.062C338.365 189.602 348.699 189.762 359 191.562C369 194.732 378.666 198.732 388 203.562C391.986 204.062 395.986 204.232 400 204.062C401.373 203.902 402.707 204.072 404 204.562C402.909 206.622 402.742 208.792 403.5 211.062C409.731 225.782 412.065 241.122 410.5 257.062C410.344 259.752 409.511 262.082 408 264.062C403.126 258.162 398.126 252.332 393 246.562C387 242.562 381 238.562 375 234.562C360.123 227.492 348.623 231.322 340.5 246.062C331.082 268.222 338.249 281.552 362 286.062C362.111 286.682 362.444 287.182 363 287.562C357.874 291.732 356.707 296.902 359.5 303.062C363.509 305.832 368.009 307.172 373 307.062C374.32 309.382 375.986 311.382 378 313.062C373.818 320.232 367.651 323.572 359.5 323.062C358.795 334.442 357.628 345.782 356 357.062C355.814 359.142 354.814 360.642 353 361.562C348.811 361.902 344.644 362.402 340.5 363.062C336.57 361.872 335.236 359.202 336.5 355.062C339.881 354.012 343.047 352.512 346 350.562C347.943 343.212 348.443 335.712 347.5 328.062C345.555 326.702 343.388 325.862 341 325.562C330.959 324.072 320.959 322.412 311 320.562C307.507 319.562 304.341 320.062 301.5 322.062C301.167 331.062 300.833 340.062 300.5 349.062C299.989 351.442 299.322 353.772 298.5 356.062C291.971 357.502 285.471 357.332 279 355.562C277.696 354.762 277.029 353.592 277 352.062C278.138 346.632 281.472 344.632 287 346.062C288.176 335.262 289.676 324.602 291.5 314.062C290.667 313.232 289.833 312.392 289 311.562C283.193 310.322 277.859 307.992 273 304.562C260.359 293.252 250.859 279.752 244.5 264.062C232.62 255.512 222.787 245.012 215 232.562C215.378 230.932 216.044 229.432 217 228.062C218.295 228.662 219.628 229.162 221 229.562C225.833 235.732 230.667 241.892 235.5 248.062C237.286 250.922 239.619 251.592 242.5 250.062C242.76 247.942 243.76 246.282 245.5 245.062C245.921 240.692 246.588 236.352 247.5 232.062C247.853 229.412 249.02 227.412 251 226.062C252.902 227.072 254.902 227.242 257 226.562C260.106 224.922 263.273 223.422 266.5 222.062C267 222.392 267.5 222.732 268 223.062C266.107 225.512 264.774 228.182 264 231.062C263.015 235.192 262.682 239.532 263 244.062C256.561 243.982 252.061 246.982 249.5 253.062C248.093 272.662 256.927 280.492 276 276.562C277.431 276.092 278.597 275.262 279.5 274.062C280.543 270.802 281.043 267.472 281 264.062C284.871 264.372 288.538 264.042 292 263.062C300.952 260.612 308.118 255.612 313.5 248.062C315.447 238.652 315.114 229.322 312.5 220.062C297.958 207.742 281.458 204.582 263 210.562C260.468 212.332 257.801 213.832 255 215.062C254.457 215.002 254.124 214.672 254 214.062C255.912 209.902 258.079 205.902 260.5 202.062C269.46 190.392 280.627 182.392 294 178.062Z" fill="#FDFCFC"/>
<path fill-rule="evenodd" clip-rule="evenodd" d="M97.9998 177.061C104.708 176.441 106.041 178.441 102 183.061C100.777 184.171 99.4438 184.341 97.9998 183.561C96.7318 181.401 96.7318 179.231 97.9998 177.061Z" fill="#8B8B8B"/>
<path fill-rule="evenodd" clip-rule="evenodd" d="M217 182.062C219 182.392 221 182.732 223 183.062C222.842 192.672 221.175 202.012 218 211.062C215.018 209.092 212.018 207.092 209 205.062C211.142 198.492 212.975 191.832 214.5 185.062C215.352 183.992 216.185 182.992 217 182.062Z" fill="#ECB87D"/>
<path fill-rule="evenodd" clip-rule="evenodd" d="M131 177.062C132.511 178.062 134.178 178.732 136 179.062C135.453 182.802 133.953 186.142 131.5 189.062C126.752 193.362 121.252 196.032 115 197.062C109.931 196.692 108.265 194.192 110 189.562C113.333 189.232 116.667 188.892 120 188.562C120.837 187.552 121.17 186.382 121 185.062C122.052 185.212 123.052 185.042 124 184.562C125.674 183.052 126.674 181.222 127 179.062C128.88 179.332 130.213 178.662 131 177.062Z" fill="#F9918F"/>
<path fill-rule="evenodd" clip-rule="evenodd" d="M405.999 202.062C408.003 203.232 409.503 204.902 410.499 207.062C416.963 224.512 419.296 242.512 417.499 261.062C414.425 267.452 412.258 274.112 410.999 281.062C399.018 280.292 388.018 283.122 377.999 289.562C373.784 294.582 372.117 300.412 372.999 307.062C368.008 307.172 363.508 305.832 359.499 303.062C356.706 296.902 357.873 291.732 362.999 287.562C362.443 287.182 362.11 286.682 361.999 286.062C366.082 285.212 370.082 284.042 373.999 282.562C382.056 275.912 387.723 267.742 390.999 258.062C394.63 263.732 399.63 266.902 405.999 267.562C407.322 266.742 407.988 265.582 407.999 264.062C409.51 262.082 410.343 259.752 410.499 257.062C412.064 241.122 409.73 225.782 403.499 211.062C402.741 208.792 402.908 206.622 403.999 204.562C402.706 204.072 401.372 203.902 399.999 204.062C401.801 203.102 403.801 202.442 405.999 202.062Z" fill="#EFE9E9"/>
<path fill-rule="evenodd" clip-rule="evenodd" d="M292 263.062C278.55 265.112 269.383 259.782 264.5 247.062C264.001 241.742 263.834 236.402 264 231.062C264.774 228.182 266.107 225.512 268 223.062C267.5 222.732 267 222.392 266.5 222.062C263.273 223.422 260.106 224.922 257 226.562C254.902 227.242 252.902 227.072 251 226.062C249.847 224.132 249.847 222.132 251 220.062C252.323 218.392 253.656 216.732 255 215.062C257.801 213.832 260.468 212.332 263 210.562C281.458 204.582 297.958 207.742 312.5 220.062C315.114 229.322 315.447 238.652 313.5 248.062C308.118 255.612 300.952 260.612 292 263.062Z" fill="#060606"/>
<path fill-rule="evenodd" clip-rule="evenodd" d="M69.0003 215.062C70.9803 216.412 72.1473 218.412 72.5003 221.062C75.1673 233.732 77.8333 246.392 80.5003 259.062C80.9143 258.602 81.4143 258.272 82.0003 258.062C83.6923 259.532 85.6923 260.202 88.0003 260.062C118.963 254.652 149.629 247.992 180 240.062C189.495 238.732 193.995 242.732 193.5 252.062C192.715 253.852 191.549 255.352 190 256.562C185.691 257.892 181.358 259.052 177 260.062C180.918 281.652 184.418 303.322 187.5 325.062C189.406 335.832 191.739 346.502 194.5 357.062C196.976 368.742 192.476 373.742 181 372.062C178.036 367.692 175.536 363.022 173.5 358.062C165.218 328.152 159.051 297.822 155 267.062C141.43 270.202 127.764 272.872 114 275.062C119.924 308.772 125.257 342.612 130 376.562C129.541 381.152 127.541 384.822 124 387.562C119.245 388.412 114.578 389.082 110 389.562C106.029 387.682 103.863 384.512 103.5 380.062C99.9793 347.912 95.4793 315.912 90.0003 284.062C85.6823 283.862 81.5153 283.862 77.5003 284.062C72.4403 308.972 66.4402 333.632 59.5002 358.062C55.2422 367.172 51.5762 376.502 48.5002 386.062C41.3923 392.042 35.3923 391.042 30.5002 383.062C29.8332 379.732 29.8332 376.392 30.5002 373.062C33.2732 361.862 35.2732 350.532 36.5002 339.062C46.4972 300.082 54.8302 260.742 61.5002 221.062C63.6062 218.442 66.1063 216.442 69.0003 215.062Z" fill="#EEB87A"/>
<path fill-rule="evenodd" clip-rule="evenodd" d="M296.999 221.062C308.451 221.712 311.117 227.052 304.999 237.062C294.141 245.712 288.974 243.042 289.499 229.062C292.204 226.522 294.704 223.862 296.999 221.062Z" fill="#F1F1F1"/>
<path fill-rule="evenodd" clip-rule="evenodd" d="M408 264.061C407.989 265.581 407.323 266.741 406 267.561C399.631 266.901 394.631 263.731 391 258.061C387.724 267.741 382.057 275.911 374 282.561C370.083 284.041 366.083 285.211 362 286.061C338.249 281.551 331.082 268.221 340.5 246.061C348.623 231.321 360.123 227.491 375 234.561C381 238.561 387 242.561 393 246.561C398.126 252.331 403.126 258.161 408 264.061Z" fill="#070707"/>
<path fill-rule="evenodd" clip-rule="evenodd" d="M201 236.062C203.83 236.522 206.497 237.192 209 238.062C208.989 239.582 208.323 240.742 207 241.562C205.027 242.062 203.027 242.222 201 242.062C201 240.062 201 238.062 201 236.062Z" fill="#EEB779"/>
<path fill-rule="evenodd" clip-rule="evenodd" d="M357.999 237.061C365.324 236.551 368.157 239.891 366.499 247.061C364.569 249.321 363.069 251.821 361.999 254.561C358.797 256.041 355.463 256.381 351.999 255.561C349.246 251.821 348.08 247.651 348.499 243.061C349.666 241.891 350.832 240.731 351.999 239.561C354.473 239.521 356.473 238.691 357.999 237.061Z" fill="#F5F5F5"/>
<path fill-rule="evenodd" clip-rule="evenodd" d="M263.999 231.062C263.833 236.402 264 241.742 264.499 247.062C269.382 259.782 278.549 265.112 291.999 263.062C288.537 264.042 284.87 264.372 280.999 264.062C281.042 267.472 280.542 270.802 279.499 274.062C278.596 275.262 277.43 276.092 275.999 276.562C256.926 280.492 248.092 272.662 249.499 253.062C252.06 246.982 256.56 243.982 262.999 244.062C262.681 239.532 263.014 235.192 263.999 231.062Z" fill="#FAE2DF"/>
<path fill-rule="evenodd" clip-rule="evenodd" d="M308 279.062C310.027 278.902 312.027 279.062 314 279.562C316.548 282.452 319.382 284.952 322.5 287.062C324.989 285.242 327.489 283.412 330 281.562C334.5 280.732 336.333 282.562 335.5 287.062C331.923 289.932 328.089 292.432 324 294.562C322.667 295.232 321.333 295.232 320 294.562C315.833 291.062 311.667 287.562 307.5 284.062C306.86 282.292 307.027 280.632 308 279.062Z" fill="#0D0D0D"/>
<path fill-rule="evenodd" clip-rule="evenodd" d="M419 329.062C421.313 323.612 419.98 319.452 415 316.562C411.618 316.382 408.285 315.882 405 315.062C399.879 310.252 394.546 309.922 389 314.062C386.914 311.742 384.414 309.742 381.5 308.062C378.654 304.642 378.32 300.972 380.5 297.062C387.346 289.732 395.846 286.392 406 287.062C415.956 289.022 425.956 291.192 436 293.562C445.901 298.102 454.734 304.272 462.5 312.062C463.818 314.972 464.152 317.972 463.5 321.062C461.133 326.672 457.3 330.832 452 333.562C445.715 334.922 439.382 335.252 433 334.562C428.424 332.442 423.757 330.602 419 329.062Z" fill="#EDB77A"/>
<path fill-rule="evenodd" clip-rule="evenodd" d="M410.999 281.062C421.633 283.692 432.3 286.532 442.999 289.562C453.216 294.102 462.049 300.602 469.499 309.062C472.151 323.922 466.651 334.752 452.999 341.562C439.689 342.062 427.022 339.562 414.999 334.062C416.296 332.402 417.629 330.732 418.999 329.062C423.756 330.602 428.423 332.442 432.999 334.562C439.381 335.252 445.714 334.922 451.999 333.562C457.299 330.832 461.132 326.672 463.499 321.062C464.151 317.972 463.817 314.972 462.499 312.062C454.733 304.272 445.9 298.102 435.999 293.562C425.955 291.192 415.955 289.022 405.999 287.062C395.845 286.392 387.345 289.732 380.499 297.062C378.319 300.972 378.653 304.642 381.499 308.062C384.413 309.742 386.913 311.742 388.999 314.062C388.25 315.812 386.916 316.812 384.999 317.062C382.672 315.742 380.339 314.402 377.999 313.062C375.985 311.382 374.319 309.382 372.999 307.062C372.117 300.412 373.784 294.582 377.999 289.562C388.018 283.122 399.018 280.292 410.999 281.062Z" fill="#CE9060"/>
<path fill-rule="evenodd" clip-rule="evenodd" d="M393 293.061C397.339 292.411 401.173 293.411 404.5 296.061C405.444 298.911 404.944 301.411 403 303.561C398.357 304.561 393.69 304.891 389 304.561C387.056 302.411 386.556 299.911 387.5 297.061C389.515 295.861 391.349 294.531 393 293.061Z" fill="#FE4128"/>
<path fill-rule="evenodd" clip-rule="evenodd" d="M413 294.062C420.663 292.602 424.163 295.602 423.5 303.062C416.755 309.142 411.588 308.142 408 300.062C408.965 297.432 410.632 295.432 413 294.062Z" fill="#FEDC5E"/>
<path fill-rule="evenodd" clip-rule="evenodd" d="M431.999 301.061C439.926 299.931 443.093 303.261 441.499 311.061C437.499 315.061 433.499 315.061 429.499 311.061C428.36 307.141 429.194 303.811 431.999 301.061Z" fill="#89D858"/>
<path fill-rule="evenodd" clip-rule="evenodd" d="M444 315.062C447.757 314.632 451.257 315.302 454.5 317.062C454.483 327.242 449.483 331.242 439.5 329.062C438.833 326.392 438.833 323.732 439.5 321.062C440.832 318.902 442.332 316.902 444 315.062Z" fill="#2F91FA"/>
</svg>
