<svg width="500" height="500" viewBox="0 0 500 500" fill="none" xmlns="http://www.w3.org/2000/svg">
<path fill-rule="evenodd" clip-rule="evenodd" d="M251 76.0616C254.67 76.0616 258.33 76.0616 262 76.0616C275.5 77.4016 289.17 78.5616 303 79.5616C326.66 83.7316 347.66 93.2316 366 108.062C368.67 111.392 371.67 114.392 375 117.062C387.99 132.392 396.16 150.052 399.5 170.062C399.67 175.912 400.17 181.572 401 187.062C400.97 192.752 400.63 198.422 400 204.062C398.77 211.082 397.44 218.082 396 225.062C393.61 228.962 390.61 232.462 387 235.562C382.42 237.682 377.76 239.522 373 241.062C373.76 238.422 373.93 235.752 373.5 233.062C369.76 231.932 365.92 231.772 362 232.562C359.83 235.562 357.5 238.392 355 241.062C351.02 240.542 347.02 240.212 343 240.062C342.43 234.842 340.43 230.342 337 226.562C329.88 224.192 326.21 226.692 326 234.062C321.61 233.382 318.61 231.052 317 227.062C318.01 225.162 318.18 223.162 317.5 221.062C312.82 218.652 308.66 215.652 305 212.062C299.84 198.402 294.67 184.742 289.5 171.062C280.21 166.472 270.37 163.312 260 161.562C227.4 158.752 195.4 161.412 164 169.562C156.81 172.652 150.15 176.482 144 181.062C141.4 182.032 139.07 183.362 137 185.062C135.1 186.072 133.1 186.242 131 185.562C127.86 182.282 126.19 178.442 126 174.062C125.49 165.842 126.49 157.842 129 150.062C136.64 128.882 148.98 110.712 166 95.5616C169.51 93.5316 172.84 91.3616 176 89.0616C183.91 85.6016 191.91 82.4416 200 79.5616C205.9 77.9716 211.9 77.1316 218 77.0616C228.95 76.1016 239.95 75.7716 251 76.0616Z" fill="#4169E0"/>
<path fill-rule="evenodd" clip-rule="evenodd" d="M232 92.0619C259.2 91.8219 286.2 93.9819 313 98.5619C351.6 109.162 375.1 133.992 383.5 173.062C384.62 187.172 383.96 201.172 381.5 215.062C380.25 216.562 379.25 218.232 378.5 220.062C375.57 222.262 372.41 224.092 369 225.562C355.47 226.072 342.47 223.742 330 218.562C324.72 213.172 320.55 207.002 317.5 200.062C313.24 186.222 307.9 172.882 301.5 160.062C287.85 151.842 273.02 147.012 257 145.562C231.95 144.502 206.95 145.172 182 147.562C177.67 149.232 173.33 150.892 169 152.562C161.25 153.962 153.58 155.802 146 158.062C145.02 155.062 145.19 152.062 146.5 149.062C153.93 133.282 164.1 119.452 177 107.562C193.88 96.9919 212.21 91.8219 232 92.0619Z" fill="#2490FE"/>
<path fill-rule="evenodd" clip-rule="evenodd" d="M218 98.0614C231.19 96.1914 235.02 101.191 229.5 113.061C222.72 120.331 217.05 119.661 212.5 111.061C211.33 105.411 213.16 101.081 218 98.0614Z" fill="#406AE1"/>
<path fill-rule="evenodd" clip-rule="evenodd" d="M252 100.062C255.02 99.9016 258.02 100.062 261 100.562C268.18 106.222 268.85 112.552 263 119.562C260 120.232 257 120.232 254 119.562C245.48 113.772 244.81 107.272 252 100.062Z" fill="#406AE1"/>
<path fill-rule="evenodd" clip-rule="evenodd" d="M191 119.062C194.49 118.802 197.16 120.142 199 123.062C213.19 127.212 227.69 129.542 242.5 130.062C256.18 129.112 269.68 126.942 283 123.562C285.67 117.922 288.33 117.752 291 123.062C290.25 125.882 289.59 128.712 289 131.562C290.37 134.572 291.04 137.742 291 141.062C288.71 141.322 286.54 140.982 284.5 140.062C283.35 137.172 282.85 134.172 283 131.062C277.69 130.882 272.69 132.052 268 134.562C253.39 136.602 238.73 137.272 224 136.562C216.17 134.042 208.17 132.202 200 131.062C199.7 133.822 198.7 136.322 197 138.562C195.39 139.282 193.89 139.112 192.5 138.062C191.71 134.812 192.21 131.812 194 129.062C193.71 126.992 192.55 125.662 190.5 125.062C189.82 122.962 189.99 120.962 191 119.062Z" fill="#406AE2"/>
<path fill-rule="evenodd" clip-rule="evenodd" d="M305 212.062C302.89 211.122 300.89 209.952 299 208.562C287.57 204.472 275.9 201.302 264 199.062C250.95 201.622 243.45 209.622 241.5 223.062C240.56 230.542 241.22 237.872 243.5 245.062C247.15 252.982 253.32 257.642 262 259.062C262.9 259.722 263.9 260.382 265 261.062C262.53 274.102 267.53 282.932 280 287.562C284.33 288.232 288.67 288.232 293 287.562C302.56 283.872 309.4 277.372 313.5 268.062C316.08 253.202 309.91 244.872 295 243.062C295 241.732 295 240.392 295 239.062C295.94 235.222 297.28 231.562 299 228.062C298.28 225.782 297.94 223.442 298 221.062C299.05 220.912 300.05 221.082 301 221.562C305.45 225.692 310.79 227.532 317 227.062C318.61 231.052 321.61 233.382 326 234.062C328.91 243.302 331.91 252.462 335 261.562C331.93 269.552 329.26 277.722 327 286.062C324.4 288.402 322.4 291.242 321 294.562C321.48 295.862 322.14 297.032 323 298.062C323.11 298.682 323.44 299.182 324 299.562C316.91 304.102 309.58 308.102 302 311.562C300.63 312.902 299.3 314.232 298 315.562C296.7 322.532 296.7 329.372 298 336.062C300.09 344.312 298.09 351.482 292 357.562C288.23 358.612 284.57 359.942 281 361.562C276.33 362.232 271.67 362.232 267 361.562C265.05 360.582 263.22 359.412 261.5 358.062C258.92 346.502 263.42 340.162 275 339.062C275 335.062 275 331.062 275 327.062C274.48 323.082 274.15 319.082 274 315.062C259 315.892 244 316.732 229 317.562C227.16 320.392 226.49 323.552 227 327.062C227.17 335.402 227 343.732 226.5 352.062C216.98 360.422 206.15 362.262 194 357.562C186.3 348.522 187.63 341.182 198 335.562C200.98 335.062 203.98 334.902 207 335.062C207 332.392 207 329.732 207 327.062C206.76 322.982 206.1 318.982 205 315.062C200.27 312.152 195.27 309.822 190 308.062C180.08 301.922 171.08 294.592 163 286.062C164.57 285.002 165.9 285.502 167 287.562C185.75 290.142 195.25 281.972 195.5 263.062C194.92 260.902 194.08 258.902 193 257.062C202.09 252.132 208.59 244.802 212.5 235.062C214.36 227.132 212.7 220.132 207.5 214.062C207.87 207.762 205.04 203.592 199 201.562C178.74 194.552 160.57 198.052 144.5 212.062C142.5 214.732 140.5 217.392 138.5 220.062C136.26 226.652 138.42 229.152 145 227.562C149.09 225.302 152.76 222.472 156 219.062C156.33 219.562 156.67 220.062 157 220.562C155.56 223.372 154.89 226.372 155 229.562C156.93 235.282 158.6 241.122 160 247.062C158.74 250.162 156.57 252.492 153.5 254.062C151.37 257.332 149.54 260.662 148 264.062C146.79 259.332 144.29 255.332 140.5 252.062C140.31 249.522 139.81 247.192 139 245.062C137.19 230.142 136.53 215.142 137 200.062C139.59 193.872 141.92 187.542 144 181.062C150.15 176.482 156.81 172.652 164 169.562C195.4 161.412 227.4 158.752 260 161.562C270.37 163.312 280.21 166.472 289.5 171.062C294.67 184.742 299.84 198.402 305 212.062Z" fill="#FBFBFC"/>
<path fill-rule="evenodd" clip-rule="evenodd" d="M345.001 162.061C354.501 160.981 363.171 163.151 371.001 168.561C377.191 178.611 377.351 188.781 371.501 199.061C363.811 207.591 354.641 209.421 344.001 204.561C331.891 194.681 329.721 182.851 337.501 169.061C339.901 166.491 342.401 164.161 345.001 162.061Z" fill="#F5903D"/>
<path fill-rule="evenodd" clip-rule="evenodd" d="M359 187.061C361.11 188.451 363.11 188.111 365 186.061C366.61 186.881 367.28 188.211 367 190.061C366.73 194.511 364.39 197.341 360 198.561C353.21 200.541 347.87 198.711 344 193.061C344.09 192.061 343.75 191.231 343 190.561C345.24 190.511 346.91 189.681 348 188.061C348.62 187.951 349.12 187.621 349.5 187.061C350 179.731 350.17 172.401 350 165.061C352.29 164.801 354.46 165.141 356.5 166.061C356.68 173.281 357.51 180.281 359 187.061Z" fill="#2D90F9"/>
<path fill-rule="evenodd" clip-rule="evenodd" d="M126 174.062C126.19 178.442 127.86 182.282 131 185.562C133.1 186.242 135.1 186.072 137 185.062C137 190.062 137 195.062 137 200.062C136.53 215.142 137.19 230.142 139 245.062C138.65 249.782 137.99 254.442 137 259.062C133.06 256.162 128.73 255.502 124 257.062C123.83 247.232 125.5 237.732 129 228.562C128.93 227.802 128.6 227.302 128 227.062C127.96 222.832 127.29 218.832 126 215.062C126 214.392 126 213.732 126 213.062C126 200.062 126 187.062 126 174.062Z" fill="#303030"/>
<path fill-rule="evenodd" clip-rule="evenodd" d="M144 181.062C141.92 187.542 139.59 193.872 137 200.062C137 195.062 137 190.062 137 185.062C139.07 183.362 141.4 182.032 144 181.062Z" fill="#D1AF93"/>
<path fill-rule="evenodd" clip-rule="evenodd" d="M192.999 257.061C186.039 258.111 179.039 258.281 171.999 257.561C167.829 254.221 163.829 250.721 159.999 247.061C158.599 241.121 156.929 235.281 154.999 229.561C154.889 226.371 155.559 223.371 156.999 220.561C156.669 220.061 156.329 219.561 155.999 219.061C152.759 222.471 149.089 225.301 144.999 227.561C138.419 229.151 136.259 226.651 138.499 220.061C140.499 217.391 142.499 214.731 144.499 212.061C160.569 198.051 178.739 194.551 198.999 201.561C205.039 203.591 207.869 207.761 207.499 214.061C212.699 220.131 214.359 227.131 212.499 235.061C208.589 244.801 202.089 252.131 192.999 257.061Z" fill="#060606"/>
<path fill-rule="evenodd" clip-rule="evenodd" d="M305 212.062C308.66 215.652 312.82 218.652 317.5 221.062C318.18 223.162 318.01 225.162 317 227.062C310.79 227.532 305.45 225.692 301 221.562C300.05 221.082 299.05 220.912 298 221.062C297.94 223.442 298.28 225.782 299 228.062C297.28 231.562 295.94 235.222 295 239.062C292.61 242.842 290.44 246.842 288.5 251.062C281.26 258.552 272.43 261.222 262 259.062C253.32 257.642 247.15 252.982 243.5 245.062C241.22 237.872 240.56 230.542 241.5 223.062C243.45 209.622 250.95 201.622 264 199.062C275.9 201.302 287.57 204.472 299 208.562C300.89 209.952 302.89 211.122 305 212.062Z" fill="#060606"/>
<path fill-rule="evenodd" clip-rule="evenodd" d="M348 188.062C346.91 189.682 345.24 190.512 343 190.562C343.75 191.232 344.09 192.062 344 193.062C342.71 192.502 341.88 191.502 341.5 190.062C340.17 179.392 339.51 179.392 339.5 190.062C342.33 193.882 345.49 197.382 349 200.562C364.18 203.182 370.85 197.022 369 182.062C368.33 184.872 367.67 187.532 367 190.062C367.28 188.212 366.61 186.882 365 186.062C363.11 188.112 361.11 188.452 359 187.062C360.95 187.332 362.45 186.672 363.5 185.062C363.67 179.702 364.17 174.362 365 169.062C371.75 173.992 374.25 180.662 372.5 189.062C366.27 205.102 356.11 208.262 342 198.562C337.23 192.182 335.73 185.012 337.5 177.062C338.4 174.492 339.73 172.162 341.5 170.062C342.08 175.072 342.75 180.072 343.5 185.062C344.09 187.422 345.59 188.422 348 188.062Z" fill="#5290E4"/>
<path fill-rule="evenodd" clip-rule="evenodd" d="M344 193.061C347.87 198.711 353.21 200.541 360 198.561C364.39 197.341 366.73 194.511 367 190.061C367.67 187.531 368.33 184.871 369 182.061C370.85 197.021 364.18 203.181 349 200.561C345.49 197.381 342.33 193.881 339.5 190.061C339.51 179.391 340.17 179.391 341.5 190.061C341.88 191.501 342.71 192.501 344 193.061Z" fill="#E39050"/>
<path fill-rule="evenodd" clip-rule="evenodd" d="M258 207.061C262.02 206.461 265.52 207.461 268.5 210.061C269.01 215.521 268.34 220.851 266.5 226.061C263.08 230.311 258.91 231.151 254 228.561C253.31 225.861 251.81 223.701 249.5 222.061C248.71 218.931 249.04 215.931 250.5 213.061C253.34 211.401 255.84 209.401 258 207.061Z" fill="#F0F0F0"/>
<path fill-rule="evenodd" clip-rule="evenodd" d="M190.999 208.062C200.449 208.692 203.949 213.692 201.499 223.062C200.169 225.062 198.829 227.062 197.499 229.062C194.159 231.892 190.499 232.562 186.499 231.062C179.599 221.792 181.099 214.122 190.999 208.062Z" fill="#F2F2F2"/>
<path fill-rule="evenodd" clip-rule="evenodd" d="M343 240.061C343.18 244.211 344.51 247.881 347 251.061C350.04 248.021 352.71 244.691 355 241.061C357.5 238.391 359.83 235.561 362 232.561C365.92 231.771 369.76 231.931 373.5 233.061C373.93 235.751 373.76 238.421 373 241.061C370.41 244.991 367.41 248.661 364 252.061C358.6 257.631 352.77 262.631 346.5 267.061C341.91 275.031 338.41 283.361 336 292.061C336.24 293.351 335.9 294.351 335 295.061C335.29 293.271 334.95 291.611 334 290.061C331.52 288.871 329.19 287.541 327 286.061C329.26 277.721 331.93 269.551 335 261.561C331.91 252.461 328.91 243.301 326 234.061C326.21 226.691 329.88 224.191 337 226.561C340.43 230.341 342.43 234.841 343 240.061Z" fill="#2F2F2F"/>
<path fill-rule="evenodd" clip-rule="evenodd" d="M343 240.062C347.02 240.212 351.02 240.542 355 241.062C352.71 244.692 350.04 248.022 347 251.062C344.51 247.882 343.18 244.212 343 240.062Z" fill="#EBECF0"/>
<path fill-rule="evenodd" clip-rule="evenodd" d="M295 239.062C295 240.392 295 241.732 295 243.062C309.91 244.872 316.08 253.202 313.5 268.062C309.4 277.372 302.56 283.872 293 287.562C288.67 288.232 284.33 288.232 280 287.562C267.53 282.932 262.53 274.102 265 261.062C263.9 260.382 262.9 259.722 262 259.062C272.43 261.222 281.26 258.552 288.5 251.062C290.44 246.842 292.61 242.842 295 239.062Z" fill="#FDDFDB"/>
<path fill-rule="evenodd" clip-rule="evenodd" d="M160 247.062C163.83 250.722 167.83 254.222 172 257.562C179.04 258.282 186.04 258.112 193 257.062C194.08 258.902 194.92 260.902 195.5 263.062C195.25 281.972 185.75 290.142 167 287.562C165.9 285.502 164.57 285.002 163 286.062C159.37 282.252 155.87 278.252 152.5 274.062C150.18 271.092 148.68 267.762 148 264.062C149.54 260.662 151.37 257.332 153.5 254.062C156.57 252.492 158.74 250.162 160 247.062Z" fill="#FDDFDB"/>
<path fill-rule="evenodd" clip-rule="evenodd" d="M364 252.062C361.61 260.842 357.44 269.182 351.5 277.062C347.1 282.072 342.6 286.912 338 291.562C337.41 292.022 336.74 292.192 336 292.062C338.41 283.362 341.91 275.032 346.5 267.062C352.77 262.632 358.6 257.632 364 252.062Z" fill="#F3F2F1"/>
<path fill-rule="evenodd" clip-rule="evenodd" d="M137 259.062C137.42 259.822 137.76 260.662 138 261.562C136.88 263.302 135.88 265.132 135 267.062C138.36 269.642 138.7 272.482 136 275.562C131.67 276.232 127.33 276.232 123 275.562C121.7 274.762 121.03 273.592 121 272.062C121.6 269.692 122.6 267.522 124 265.562C121.49 262.612 121.49 259.782 124 257.062C128.73 255.502 133.06 256.162 137 259.062Z" fill="#090807"/>
<path fill-rule="evenodd" clip-rule="evenodd" d="M242.001 262.061C246.991 261.891 248.831 264.221 247.501 269.061C244.801 273.641 241.301 277.471 237.001 280.561C234.241 281.141 231.581 280.811 229.001 279.561C225.221 277.251 221.381 275.091 217.501 273.061C216.301 269.651 217.301 267.311 220.501 266.061C223.991 266.891 227.151 268.391 230.001 270.561C232.001 271.231 234.001 271.231 236.001 270.561C238.221 267.851 240.221 265.011 242.001 262.061Z" fill="#131313"/>
<path fill-rule="evenodd" clip-rule="evenodd" d="M327 286.062C329.19 287.542 331.52 288.872 334 290.062C334.95 291.612 335.29 293.272 335 295.062C334.58 298.962 332.58 301.292 329 302.062C328.78 297.832 326.78 296.492 323 298.062C322.14 297.032 321.48 295.862 321 294.562C322.4 291.242 324.4 288.402 327 286.062Z" fill="#0D0C0C"/>
<path fill-rule="evenodd" clip-rule="evenodd" d="M128.001 318.062C133.011 317.892 138.011 318.062 143.001 318.562C146.571 320.182 150.231 321.512 154.001 322.562C171.551 325.382 189.221 326.882 207.001 327.062C207.001 329.732 207.001 332.392 207.001 335.062C203.981 334.902 200.981 335.062 198.001 335.562C187.631 341.182 186.301 348.522 194.001 357.562C206.151 362.262 216.981 360.422 226.501 352.062C227.001 343.732 227.171 335.402 227.001 327.062C243.001 327.062 259.001 327.062 275.001 327.062C275.001 331.062 275.001 335.062 275.001 339.062C263.421 340.162 258.921 346.502 261.501 358.062C263.221 359.412 265.051 360.582 267.001 361.562C271.671 362.232 276.331 362.232 281.001 361.562C284.571 359.942 288.231 358.612 292.001 357.562C298.091 351.482 300.091 344.312 298.001 336.062C298.001 333.062 298.001 330.062 298.001 327.062C307.471 326.282 316.801 324.782 326.001 322.562C335.671 321.892 345.331 321.892 355.001 322.562C366.981 324.632 377.481 329.802 386.501 338.062C390.661 343.692 392.491 350.032 392.001 357.062C392.001 357.392 392.001 357.732 392.001 358.062C388.551 366.012 382.881 371.842 375.001 375.562C367.211 380.272 358.881 383.602 350.001 385.562C321.291 386.712 292.631 388.382 264.001 390.562C231.321 391.392 198.651 391.062 166.001 389.562C143.851 386.462 123.181 379.292 104.001 368.062C103.331 367.292 102.491 366.632 101.501 366.062C96.9907 356.322 96.9907 346.662 101.501 337.062C108.861 328.332 117.691 322.002 128.001 318.062Z" fill="#494949"/>
<path fill-rule="evenodd" clip-rule="evenodd" d="M392 358.062C393.15 362.552 392.32 366.882 389.5 371.062C385.76 376.302 381.26 380.632 376 384.062C368.39 388.362 360.39 391.862 352 394.562C346.32 395.192 340.65 395.022 335 394.062C332.06 394.132 329.4 394.792 327 396.062C323.62 396.522 320.29 397.192 317 398.062C308.66 398.342 300.33 398.682 292 399.062C252 399.022 212 398.692 172 398.062C171.33 398.062 170.67 398.062 170 398.062C165.08 397.112 160.08 396.442 155 396.062C152.45 395.172 149.78 394.842 147 395.062C134.05 392.432 122.05 387.262 111 379.562C109.13 377.862 107.46 376.022 106 374.062C104.5 372.392 103.16 370.552 102 368.562C102.59 368.102 103.26 367.932 104 368.062C123.18 379.292 143.85 386.462 166 389.562C198.65 391.062 231.32 391.392 264 390.562C292.63 388.382 321.29 386.712 350 385.562C358.88 383.602 367.21 380.272 375 375.562C382.88 371.842 388.55 366.012 392 358.062Z" fill="#F8C34E"/>
<path fill-rule="evenodd" clip-rule="evenodd" d="M147.001 395.061C149.781 394.841 152.451 395.171 155.001 396.061C153.091 400.881 152.591 405.881 153.501 411.061C156.401 415.711 160.561 417.211 166.001 415.561C172.121 410.791 173.451 404.961 170.001 398.061C170.671 398.061 171.331 398.061 172.001 398.061C174.791 399.041 177.791 399.371 181.001 399.061C182.081 407.831 179.411 415.161 173.001 421.061C172.011 420.891 171.341 421.221 171.001 422.061C160.051 427.411 151.721 424.741 146.001 414.061C144.421 407.591 144.751 401.251 147.001 395.061Z" fill="#2E2E2D"/>
<path fill-rule="evenodd" clip-rule="evenodd" d="M155.001 396.062C160.081 396.442 165.081 397.112 170.001 398.062C173.451 404.962 172.121 410.792 166.001 415.562C160.561 417.212 156.401 415.712 153.501 411.062C152.591 405.882 153.091 400.882 155.001 396.062Z" fill="#545454"/>
<path fill-rule="evenodd" clip-rule="evenodd" d="M327 396.062C329.37 411.642 322.7 420.642 307 423.062C296.8 422.522 291.13 417.192 290 407.062C289.94 404.402 290.61 402.072 292 400.062C294.42 399.752 296.76 400.092 299 401.062C297.34 412.892 302.34 417.062 314 413.562C318 409.052 319 403.882 317 398.062C320.29 397.192 323.62 396.522 327 396.062Z" fill="#2E2E2E"/>
<path fill-rule="evenodd" clip-rule="evenodd" d="M317 398.062C319 403.882 318 409.052 314 413.562C302.34 417.062 297.34 412.892 299 401.062C296.76 400.092 294.42 399.752 292 400.062C292 399.732 292 399.392 292 399.062C300.33 398.682 308.66 398.342 317 398.062Z" fill="#555454"/>
</svg>
