<svg width="500" height="500" viewBox="0 0 500 500" fill="none" xmlns="http://www.w3.org/2000/svg">
<path fill-rule="evenodd" clip-rule="evenodd" d="M380 128.061C379.91 129.061 380.25 129.891 381 130.561C380.33 130.731 379.67 130.891 379 131.061C373.58 129.311 368.25 127.481 363 125.561C348.43 123.131 335.93 126.961 325.5 137.061C325.32 134.201 324.82 131.531 324 129.061C324.17 125.051 324 121.051 323.5 117.061C322.78 114.681 321.62 112.681 320 111.061C313.19 100.111 306.35 89.1112 299.5 78.0612C283.61 60.3012 263.77 53.3012 240 57.0612C235.02 57.6512 230.02 58.1512 225 58.5612C222.51 59.5912 220.17 60.7612 218 62.0612C212.3 59.9112 206.3 58.9112 200 59.0612C205.59 54.9612 209.93 49.8012 213 43.5612C216.34 41.5012 219.68 39.3312 223 37.0612C234.02 34.3912 245.02 31.5612 256 28.5612C292.12 25.4812 322.62 36.9812 347.5 63.0612C350.12 67.3412 353.12 71.3412 356.5 75.0612C358.72 80.0112 360.22 85.1812 361 90.5612C362.85 92.0912 364.35 93.9212 365.5 96.0612C367.36 108.281 372.19 118.951 380 128.061Z" fill="#2E2E2D"/>
<path fill-rule="evenodd" clip-rule="evenodd" d="M320 111.062C322.75 120.822 323.75 130.822 323 141.062C315.7 160.702 312.87 181.032 314.5 202.062C317.87 227.152 323.87 251.482 332.5 275.062C333.5 275.732 334.5 276.392 335.5 277.062C336.92 282.422 339.08 287.422 342 292.062C343.76 297.822 346.76 302.822 351 307.062C356.24 313.842 361.74 320.512 367.5 327.062C368.27 328.912 367.77 330.252 366 331.062C364.37 332.192 362.87 333.522 361.5 335.062C358.43 339.812 355.76 344.812 353.5 350.062C348.98 355.252 343.81 359.752 338 363.562C337.25 364.232 336.91 365.062 337 366.062C331.62 368.622 326.62 371.622 322 375.062C305.76 378.462 289.43 381.292 273 383.562C260.67 384.062 248.34 384.232 236 384.062C225.88 382.702 215.88 380.702 206 378.062C203.26 376.512 200.59 374.682 198 372.562C191.56 371.872 185.23 370.702 179 369.062C175.03 366.732 171.37 363.892 168 360.562C166.25 360.092 164.59 359.422 163 358.562C158.47 353.202 153.8 348.032 149 343.062C146.11 338.222 142.61 333.892 138.5 330.062C137.93 327.842 137.1 325.842 136 324.062C133.91 317.282 132.41 310.282 131.5 303.062C130.83 302.392 130.17 301.732 129.5 301.062C129 296.742 128.83 292.412 129 288.062C127.57 281.662 126.9 275.162 127 268.562C127.62 258.072 127.95 247.572 128 237.062C129.55 232.662 130.38 227.992 130.5 223.062C132.63 218.482 134.47 213.822 136 209.062C150.41 199.842 164.75 190.342 179 180.562C183.31 180.122 186.97 178.452 190 175.562C197.24 171.142 204.9 167.472 213 164.562C219.39 160.752 225.73 156.752 232 152.562C240.39 148.722 248.73 145.222 257 142.062C259.31 139.922 261.81 137.922 264.5 136.062C265.17 132.062 265.17 128.062 264.5 124.062C262.55 117.822 260.89 111.492 259.5 105.062C256.41 100.882 254.41 96.2116 253.5 91.0616C252.45 88.9416 250.95 87.2816 249 86.0616C248.47 83.6416 247.64 81.3016 246.5 79.0616C241.88 75.1216 238.05 70.6216 235 65.5616C231.64 64.8316 228.3 64.0016 225 63.0616C225.21 62.4716 225.54 61.9716 226 61.5616C231.02 60.8016 235.69 59.3016 240 57.0616C263.77 53.3016 283.61 60.3016 299.5 78.0616C306.35 89.1116 313.19 100.112 320 111.062Z" fill="#FCCD07"/>
<path fill-rule="evenodd" clip-rule="evenodd" d="M200 59.0615C206.3 58.9115 212.3 59.9115 218 62.0615C231.59 66.0015 241.93 74.0015 249 86.0615C250.95 87.2815 252.45 88.9416 253.5 91.0616C254.41 96.2116 256.41 100.882 259.5 105.062C260.89 111.492 262.55 117.822 264.5 124.062C265.17 128.062 265.17 132.062 264.5 136.062C261.81 137.922 259.31 139.922 257 142.062C248.64 142.532 244.81 138.532 245.5 130.062C241.06 126.272 236.56 122.602 232 119.062C231.28 118.642 230.78 117.982 230.5 117.062C231.11 107.072 228.28 98.4016 222 91.0616C217.48 85.4216 212.48 80.0915 207 75.0615C204.12 74.3515 201.45 73.3515 199 72.0615C196.77 70.1115 194.1 68.9515 191 68.5615C186 68.2315 181 67.8915 176 67.5615C176.56 67.1815 176.89 66.6815 177 66.0615C184.13 62.1715 191.8 59.8415 200 59.0615Z" fill="#81250A"/>
<path fill-rule="evenodd" clip-rule="evenodd" d="M240 57.0615C235.69 59.3015 231.02 60.8015 226 61.5615C225.54 61.9715 225.21 62.4715 225 63.0615C228.3 64.0015 231.64 64.8315 235 65.5615C238.05 70.6215 241.88 75.1215 246.5 79.0615C247.64 81.3015 248.47 83.6415 249 86.0615C241.93 74.0015 231.59 66.0015 218 62.0615C220.17 60.7615 222.51 59.5915 225 58.5615C230.02 58.1515 235.02 57.6515 240 57.0615Z" fill="#D09A0C"/>
<path fill-rule="evenodd" clip-rule="evenodd" d="M199 72.0615C201.45 73.3515 204.12 74.3515 207 75.0615C212.48 80.0915 217.48 85.4215 222 91.0615C220.82 90.8415 219.82 91.1715 219 92.0615C216.42 99.7015 211.42 105.202 204 108.562C201.29 110.932 198.96 113.602 197 116.562C187.17 122.312 177.5 128.312 168 134.562C170.66 134.732 173.32 134.572 176 134.062C171.33 135.332 166.67 136.832 162 138.562C149.26 148.822 136.59 158.992 124 169.062C117.31 176.582 110.81 184.252 104.5 192.062C99.5901 199.982 94.2501 207.652 88.5001 215.062C88.0201 216.012 87.8501 217.012 88.0001 218.062C87.0101 217.892 86.3401 218.222 86.0001 219.062C80.9901 222.682 78.4901 227.682 78.5001 234.062C76.6501 236.602 74.1501 237.602 71.0001 237.062C68.9901 235.232 66.8301 233.562 64.5001 232.062C63.4301 220.072 63.1001 208.072 63.5001 196.062C68.4201 178.292 76.5901 162.292 88.0001 148.062C87.9001 151.582 88.9001 154.752 91.0001 157.562C95.6701 157.732 100.34 157.392 105 156.562C108.96 148.422 113.96 140.922 120 134.062C134.97 119.932 150.63 106.772 167 94.5615C178.34 91.0915 183.34 83.5915 182 72.0615C181 71.2315 180 70.3915 179 69.5615C180.83 69.3915 182.67 69.2315 184.5 69.0615C189.32 70.1715 194.16 71.1715 199 72.0615Z" fill="#FDDC5B"/>
<path fill-rule="evenodd" clip-rule="evenodd" d="M172 70.0613C177.86 72.4513 180.03 76.7813 178.5 83.0613C176.16 88.7313 171.99 92.2313 166 93.5613C149.96 105.601 134.63 118.601 120 132.561C111.69 135.221 107.86 132.391 108.5 124.061C111.16 119.911 113.99 115.911 117 112.061C123.01 103.391 130.01 95.7213 138 89.0613C147.61 82.2913 157.61 76.1313 168 70.5613C169.29 70.0713 170.63 69.9013 172 70.0613Z" fill="#FBECAE"/>
<path fill-rule="evenodd" clip-rule="evenodd" d="M280.001 82.0615C275.811 83.1015 274.311 85.7715 275.501 90.0615C277.561 91.1515 279.731 91.3215 282.001 90.5615C282.661 89.0415 283.661 87.8715 285.001 87.0615C287.301 96.7815 283.301 101.442 273.001 101.062C262.891 100.452 260.391 95.7815 265.501 87.0615C267.381 85.5215 268.881 83.6815 270.001 81.5615C272.081 80.6915 274.251 80.1915 276.501 80.0615C278.181 80.1715 279.351 80.8315 280.001 82.0615Z" fill="#18160E"/>
<path fill-rule="evenodd" clip-rule="evenodd" d="M280 82.0615C283.33 82.0615 285 83.7315 285 87.0615C283.66 87.8715 282.66 89.0415 282 90.5615C279.73 91.3215 277.56 91.1515 275.5 90.0615C274.31 85.7715 275.81 83.1015 280 82.0615Z" fill="#ECE8DD"/>
<path fill-rule="evenodd" clip-rule="evenodd" d="M222 91.061C228.28 98.401 231.11 107.071 230.5 117.061C230.78 117.981 231.28 118.641 232 119.061C232.7 121.281 234.04 123.111 236 124.561C235.33 125.231 234.67 125.891 234 126.561C224.73 129.371 215.4 131.871 206 134.061C203.51 131.701 200.51 130.701 197 131.061C189.86 131.401 182.86 132.401 176 134.061C173.32 134.571 170.66 134.731 168 134.561C177.5 128.311 187.17 122.311 197 116.561C198.96 113.601 201.29 110.931 204 108.561C211.42 105.201 216.42 99.701 219 92.061C219.82 91.171 220.82 90.841 222 91.061Z" fill="#B2E011"/>
<path fill-rule="evenodd" clip-rule="evenodd" d="M138 89.0615C130.01 95.7215 123.01 103.392 117 112.062C110.7 119.692 104.03 127.032 97 134.062C98.67 130.052 100.83 126.382 103.5 123.062C112.61 114.952 120.61 105.952 127.5 96.0615C130.63 93.0915 134.13 90.7515 138 89.0615Z" fill="#96C975"/>
<path fill-rule="evenodd" clip-rule="evenodd" d="M292 108.062C297.34 107.892 302.68 108.062 308 108.562C313.82 114.152 313.15 118.822 306 122.562C301 123.232 296 123.232 291 122.562C289.13 120.452 288.13 117.952 288 115.062C289.27 112.732 290.61 110.402 292 108.062Z" fill="#FFAA41"/>
<path fill-rule="evenodd" clip-rule="evenodd" d="M379.999 128.062C386.979 136.202 394.139 144.202 401.499 152.062C405.849 157.442 409.679 163.112 412.999 169.062C416.459 177.892 419.799 186.552 422.999 195.062C424.819 202.022 427.319 208.692 430.499 215.062C432.209 222.622 433.209 230.282 433.499 238.062C435.769 245.522 436.939 253.192 436.999 261.062C437.189 283.742 436.859 306.402 435.999 329.062C435.969 340.282 434.469 351.282 431.499 362.062C428.509 364.822 425.009 365.662 420.999 364.562C419.459 363.452 418.799 361.952 418.999 360.062C416.359 359.612 414.029 358.442 411.999 356.562C404.309 355.012 397.149 352.182 390.499 348.062C385.629 351.082 383.129 355.412 382.999 361.062C381.759 360.152 380.429 359.982 378.999 360.562C375.089 364.972 370.759 368.812 365.999 372.062C370.299 366.762 375.299 362.092 380.999 358.062C383.269 353.792 385.929 349.792 388.999 346.062C382.379 340.622 375.879 334.952 369.499 329.062C367.879 333.992 365.049 337.992 360.999 341.062C363.039 337.942 364.709 334.602 365.999 331.062C367.769 330.252 368.269 328.912 367.499 327.062C361.739 320.512 356.239 313.842 350.999 307.062C349.289 301.322 346.289 296.322 341.999 292.062C339.079 287.422 336.919 282.422 335.499 277.062C334.499 276.392 333.499 275.732 332.499 275.062C323.869 251.482 317.869 227.152 314.499 202.062C312.869 181.032 315.699 160.702 322.999 141.062C323.979 137.262 324.319 133.262 323.999 129.062C324.819 131.532 325.319 134.202 325.499 137.062C335.929 126.962 348.429 123.132 362.999 125.562C368.249 127.482 373.579 129.312 378.999 131.062C379.669 130.892 380.329 130.732 380.999 130.562C380.249 129.892 379.909 129.062 379.999 128.062Z" fill="#494948"/>
<path fill-rule="evenodd" clip-rule="evenodd" d="M232 119.062C236.56 122.602 241.06 126.272 245.5 130.062C244.81 138.532 248.64 142.532 257 142.062C248.73 145.222 240.39 148.722 232 152.562C225.73 156.752 219.39 160.752 213 164.562C204.9 167.472 197.24 171.142 190 175.562C186.97 178.452 183.31 180.122 179 180.562C164.75 190.342 150.41 199.842 136 209.062C134.47 213.822 132.63 218.482 130.5 223.062C130.38 227.992 129.55 232.662 128 237.062C127.9 228.942 129.57 221.272 133 214.062C130.17 213.992 127.83 215.322 126 218.062C122.82 220.402 119.49 222.562 116 224.562C107.82 228.892 99.48 232.722 91 236.062C86.46 236.942 81.96 238.282 77.5 240.062C75.19 239.232 73.03 238.232 71 237.062C74.15 237.602 76.65 236.602 78.5 234.062C78.49 227.682 80.99 222.682 86 219.062C88.03 219.222 90.03 219.062 92 218.562C97.74 209.822 105.07 202.822 114 197.562C115.47 195.792 116.8 193.952 118 192.062C128.34 184.892 138.68 177.722 149 170.562C158.94 166.592 168.27 161.592 177 155.562C180.5 154.732 184 153.892 187.5 153.062C190.8 150.992 194.3 149.332 198 148.062C200.1 144.782 202.94 142.452 206.5 141.062C207.2 138.632 207.04 136.302 206 134.062C215.4 131.872 224.73 129.372 234 126.562C234.67 125.892 235.33 125.232 236 124.562C234.04 123.112 232.7 121.282 232 119.062Z" fill="#8CA406"/>
<path fill-rule="evenodd" clip-rule="evenodd" d="M177 66.0615C176.89 66.6815 176.56 67.1815 176 67.5615C181 67.8915 186 68.2315 191 68.5615C194.1 68.9515 196.77 70.1115 199 72.0615C194.16 71.1715 189.32 70.1715 184.5 69.0615C182.67 69.2315 180.83 69.3915 179 69.5615C180 70.3915 181 71.2315 182 72.0615C183.34 83.5915 178.34 91.0915 167 94.5615C150.63 106.772 134.97 119.932 120 134.062C113.96 140.922 108.96 148.422 105 156.562C100.34 157.392 95.6697 157.732 90.9997 157.562C88.8997 154.752 87.8997 151.582 87.9997 148.062C87.8397 146.692 88.0097 145.352 88.4997 144.062C91.4197 140.702 94.2597 137.372 96.9997 134.062C104.03 127.032 110.7 119.692 117 112.062C113.99 115.912 111.16 119.912 108.5 124.062C107.86 132.392 111.69 135.222 120 132.562C134.63 118.602 149.96 105.602 166 93.5615C171.99 92.2315 176.16 88.7315 178.5 83.0615C180.03 76.7815 177.86 72.4515 172 70.0615C173.08 67.9715 174.75 66.6415 177 66.0615Z" fill="#FAE48B"/>
<path fill-rule="evenodd" clip-rule="evenodd" d="M206 134.062C207.04 136.302 207.2 138.632 206.5 141.062C202.94 142.452 200.1 144.782 198 148.062C194.3 149.332 190.8 150.992 187.5 153.062C184 153.892 180.5 154.732 177 155.562C168.27 161.592 158.94 166.592 149 170.562C138.68 177.722 128.34 184.892 118 192.062C107.27 198.622 98.2701 207.122 91.0001 217.562C90.0501 218.042 89.0501 218.212 88.0001 218.062C87.8501 217.012 88.0201 216.012 88.5001 215.062C94.2501 207.652 99.5901 199.982 104.5 192.062C110.81 184.252 117.31 176.582 124 169.062C136.59 158.992 149.26 148.822 162 138.562C166.67 136.832 171.33 135.332 176 134.062C182.86 132.402 189.86 131.402 197 131.062C200.51 130.702 203.51 131.702 206 134.062Z" fill="#F99409"/>
<path fill-rule="evenodd" clip-rule="evenodd" d="M320 111.062C321.62 112.682 322.78 114.682 323.5 117.062C324 121.052 324.17 125.052 324 129.062C324.32 133.262 323.98 137.262 323 141.062C323.75 130.822 322.75 120.822 320 111.062Z" fill="#6F6022"/>
<path fill-rule="evenodd" clip-rule="evenodd" d="M118 192.062C116.8 193.952 115.47 195.792 114 197.562C105.07 202.822 97.74 209.822 92 218.562C90.03 219.062 88.03 219.222 86 219.062C86.34 218.222 87.01 217.892 88 218.062C89.05 218.212 90.05 218.042 91 217.562C98.27 207.122 107.27 198.622 118 192.062Z" fill="#C09C06"/>
<path fill-rule="evenodd" clip-rule="evenodd" d="M128 237.061C123.34 252.781 122.84 268.781 126.5 285.061C126.74 286.681 127.57 287.681 129 288.061C128.83 292.411 129 296.741 129.5 301.061C130.17 301.731 130.83 302.391 131.5 303.061C132.41 310.281 133.91 317.281 136 324.061C136.02 326.491 136.52 328.821 137.5 331.061C140.84 335.561 144.67 339.561 149 343.061C153.8 348.031 158.47 353.201 163 358.561C164.59 359.421 166.25 360.091 168 360.561C171.37 363.891 175.03 366.731 179 369.061C182.6 371.211 186.6 372.711 191 373.561C195.33 377.061 200.33 378.561 206 378.061C215.88 380.701 225.88 382.701 236 384.061C236.11 384.681 236.44 385.181 237 385.561C249 386.231 261 386.231 273 385.561C277.49 383.681 282.16 382.341 287 381.561C295.36 381.241 303.7 380.581 312 379.561C315.36 377.951 318.69 376.451 322 375.061C326.62 371.621 331.62 368.621 337 366.061C343.35 361.641 349.18 356.641 354.5 351.061C356.92 347.891 359.09 344.551 361 341.061C365.05 337.991 367.88 333.991 369.5 329.061C375.88 334.951 382.38 340.621 389 346.061C385.93 349.791 383.27 353.791 381 358.061C375.3 362.091 370.3 366.761 366 372.061C360.63 376.291 355.3 380.791 350 385.561C342.23 388.861 334.56 392.031 327 395.061C316.23 399.211 305.23 402.541 294 405.061C294 411.061 294 417.061 294 423.061C293.18 416.841 292.18 410.511 291 404.061C284.46 401.491 281.13 403.661 281 410.561C282.36 415.631 283.03 420.791 283 426.061C280.94 426.081 278.94 426.411 277 427.061C277.81 425.721 278.98 424.721 280.5 424.061C280.52 418.741 280.36 413.411 280 408.061C258.75 407.081 237.41 405.411 216 403.061C216.28 404.971 215.95 406.641 215 408.061C216.17 400.731 213.17 397.571 206 398.561C204.1 402.601 202.76 406.761 202 411.061C202.37 407.441 202.37 403.941 202 400.561C189.71 396.031 178.04 390.361 167 383.561C164.05 378.771 160.05 375.271 155 373.061C152 369.731 149 366.391 146 363.061C142.4 356.291 137.24 350.961 130.5 347.061C124.36 334.491 119.03 321.491 114.5 308.061C113.73 304.411 113.06 300.751 112.5 297.061C109.65 272.351 112.32 248.351 120.5 225.061C122.22 222.521 124.05 220.191 126 218.061C127.83 215.321 130.17 213.991 133 214.061C129.57 221.271 127.9 228.941 128 237.061Z" fill="#30302E"/>
<path fill-rule="evenodd" clip-rule="evenodd" d="M126.001 218.062C124.051 220.192 122.221 222.522 120.501 225.062C112.321 248.352 109.651 272.352 112.501 297.062C113.061 300.752 113.731 304.412 114.501 308.062C119.031 321.492 124.361 334.492 130.501 347.062C137.241 350.962 142.401 356.292 146.001 363.062C144.231 361.692 142.561 360.192 141.001 358.562C136.021 358.782 131.021 358.782 126.001 358.562C123.171 356.562 120.501 354.392 118.001 352.062C116.711 351.502 115.881 350.502 115.501 349.062C111.951 339.202 107.951 329.532 103.501 320.062C99.1509 305.952 94.8109 291.952 90.5009 278.062C88.5609 263.992 88.7309 249.992 91.0009 236.062C99.4809 232.722 107.821 228.892 116.001 224.562C119.491 222.562 122.821 220.402 126.001 218.062Z" fill="#484947"/>
<path fill-rule="evenodd" clip-rule="evenodd" d="M302 276.062C293.26 272.712 284.26 269.872 275 267.562C264.4 264.562 255.9 267.392 249.5 276.062C246.67 279.722 244.51 283.722 243 288.062C241.85 294.552 241.68 301.212 242.5 308.062C242.7 309.882 243.53 311.212 245 312.062C246.75 314.762 248.42 317.592 250 320.562C253.03 321.142 255.7 322.302 258 324.062C262.24 326.472 266.91 327.472 272 327.062C274.67 326.892 277.33 326.732 280 326.562C281.56 325.842 282.56 324.672 283 323.062C289.87 319.352 294.37 313.682 296.5 306.062C299.54 300.472 300.71 294.472 300 288.062C303.31 289.692 306.64 291.352 310 293.062C312 301.702 312.16 310.362 310.5 319.062C305.74 327.412 299.91 334.912 293 341.562C287.39 343.702 282.05 346.372 277 349.562C270.68 351.332 264.35 353.002 258 354.562C237.87 355.152 217.87 353.822 198 350.562C189.02 346.452 179.68 343.122 170 340.562C163.82 334.342 157.98 327.842 152.5 321.062C148.77 312.762 147.6 304.102 149 295.062C150.53 294.492 152.03 293.832 153.5 293.062C153.46 296.962 154.63 300.292 157 303.062C162.53 325.082 175.86 331.922 197 323.562C200.15 320.392 203.65 317.562 207.5 315.062C209.5 311.732 211.5 308.392 213.5 305.062C214.89 300.472 215.23 295.802 214.5 291.062C210.86 285.442 208.19 279.442 206.5 273.062C201.35 270.902 196.18 268.732 191 266.562C182.92 264.542 174.92 264.872 167 267.562C161.89 269.082 157.23 271.252 153 274.062C163.11 265.832 173.78 258.332 185 251.562C221.18 242.432 256.18 245.762 290 261.562C294.99 265.702 298.99 270.542 302 276.062Z" fill="#F9F5EC"/>
<path fill-rule="evenodd" clip-rule="evenodd" d="M127.999 237.062C127.949 247.572 127.619 258.072 126.999 268.562C126.899 275.162 127.569 281.662 128.999 288.062C127.569 287.682 126.739 286.682 126.499 285.062C122.839 268.782 123.339 252.782 127.999 237.062Z" fill="#C09E14"/>
<path fill-rule="evenodd" clip-rule="evenodd" d="M157.001 303.061C156.891 297.691 157.231 292.361 158.001 287.061C156.951 286.911 155.951 287.081 155.001 287.561C152.101 290.631 149.101 293.461 146.001 296.061C139.831 297.391 137.661 295.051 139.501 289.061C139.831 288.061 140.171 287.061 140.501 286.061C144.561 281.831 148.731 277.831 153.001 274.061C157.231 271.251 161.891 269.081 167.001 267.561C174.921 264.871 182.921 264.541 191.001 266.561C196.181 268.731 201.351 270.901 206.501 273.061C208.191 279.441 210.861 285.441 214.501 291.061C215.231 295.801 214.891 300.471 213.501 305.061C211.501 308.391 209.501 311.731 207.501 315.061C203.651 317.561 200.151 320.391 197.001 323.561C175.861 331.921 162.531 325.081 157.001 303.061Z" fill="#0D0D0C"/>
<path fill-rule="evenodd" clip-rule="evenodd" d="M302 276.062C305.17 276.572 307.51 278.242 309 281.062C312.03 284.252 315.53 286.912 319.5 289.062C320.46 293.492 318.62 295.152 314 294.062C312.79 293.332 311.46 292.992 310 293.062C306.64 291.352 303.31 289.692 300 288.062C300.71 294.472 299.54 300.472 296.5 306.062C294.37 313.682 289.87 319.352 283 323.062C281.24 323.632 279.58 324.472 278 325.562C271.22 326.362 264.55 325.862 258 324.062C255.7 322.302 253.03 321.142 250 320.562C248.42 317.592 246.75 314.762 245 312.062C243.41 304.152 242.74 296.152 243 288.062C244.51 283.722 246.67 279.722 249.5 276.062C255.9 267.392 264.4 264.562 275 267.562C284.26 269.872 293.26 272.712 302 276.062Z" fill="#0A0908"/>
<path fill-rule="evenodd" clip-rule="evenodd" d="M269.999 277.061C269.809 282.401 269.479 287.741 268.999 293.061C267.789 293.491 266.789 294.161 265.999 295.061C262.979 295.221 259.979 295.061 256.999 294.561C252.009 289.081 251.669 283.251 255.999 277.061C258.499 275.931 261.159 275.271 263.999 275.061C266.339 274.921 268.339 275.591 269.999 277.061Z" fill="#F7F7F7"/>
<path fill-rule="evenodd" clip-rule="evenodd" d="M190.001 276.061C200.501 275.731 204.661 280.731 202.501 291.061C199.731 296.861 195.231 299.691 189.001 299.561C180.751 291.391 181.081 283.561 190.001 276.061Z" fill="#EBEBEB"/>
<path fill-rule="evenodd" clip-rule="evenodd" d="M309 281.062C313.53 282.242 317.36 284.582 320.5 288.062C322.16 294.572 319.99 296.572 314 294.062C318.62 295.152 320.46 293.492 319.5 289.062C315.53 286.912 312.03 284.252 309 281.062Z" fill="#8C740D"/>
<path fill-rule="evenodd" clip-rule="evenodd" d="M270 277.062C271.53 278.052 272.19 279.552 272 281.562C270.94 285.492 269.94 289.322 269 293.062C269.48 287.742 269.81 282.402 270 277.062Z" fill="#727272"/>
<path fill-rule="evenodd" clip-rule="evenodd" d="M256 277.062C251.67 283.252 252.01 289.082 257 294.562C259.98 295.062 262.98 295.222 266 295.062C265.89 295.682 265.56 296.182 265 296.562C262.33 297.232 259.67 297.232 257 296.562C255.16 294.022 252.99 291.852 250.5 290.062C248.6 283.962 250.44 279.622 256 277.062Z" fill="#B2B2B2"/>
<path fill-rule="evenodd" clip-rule="evenodd" d="M157 303.062C154.63 300.292 153.46 296.962 153.5 293.062C152.03 293.832 150.53 294.492 149 295.062C148.11 295.672 147.11 296.002 146 296.062C149.1 293.462 152.1 290.632 155 287.562C155.95 287.082 156.95 286.912 158 287.062C157.23 292.362 156.89 297.692 157 303.062Z" fill="#B9B5AD"/>
<path fill-rule="evenodd" clip-rule="evenodd" d="M243 288.062C242.74 296.152 243.41 304.152 245 312.062C243.53 311.212 242.7 309.882 242.5 308.062C241.68 301.212 241.85 294.552 243 288.062Z" fill="#999793"/>
<path fill-rule="evenodd" clip-rule="evenodd" d="M342 292.062C346.29 296.322 349.29 301.322 351 307.062C346.76 302.822 343.76 297.822 342 292.062Z" fill="#A78E29"/>
<path fill-rule="evenodd" clip-rule="evenodd" d="M283 323.062C282.56 324.672 281.56 325.842 280 326.562C277.33 326.732 274.67 326.892 272 327.062C266.91 327.472 262.24 326.472 258 324.062C264.55 325.862 271.22 326.362 278 325.562C279.58 324.472 281.24 323.632 283 323.062Z" fill="#5B5A58"/>
<path fill-rule="evenodd" clip-rule="evenodd" d="M246 341.061C247.21 339.011 248.21 336.841 249 334.561C249.24 332.301 248.24 331.131 246 331.061C242.17 332.731 239.5 335.561 238 339.561C235.51 340.501 233.51 340.001 232 338.061C233.64 338.781 235.3 338.941 237 338.561C238.98 332.541 242.98 329.871 249 330.561C251.78 334.901 250.78 338.401 246 341.061Z" fill="#6E6D6A"/>
<path fill-rule="evenodd" clip-rule="evenodd" d="M246 341.062C243.11 347.912 238.11 349.912 231 347.062C228.89 345.822 226.89 344.322 225 342.562C219.36 342.932 217.69 340.602 220 335.562C222.31 335.062 224.64 334.902 227 335.062C228.85 335.802 230.52 336.802 232 338.062C233.51 340.002 235.51 340.502 238 339.562C239.5 335.562 242.17 332.732 246 331.062C248.24 331.132 249.24 332.302 249 334.562C248.21 336.842 247.21 339.012 246 341.062Z" fill="#111111"/>
<path fill-rule="evenodd" clip-rule="evenodd" d="M136 324.062C137.1 325.842 137.93 327.842 138.5 330.062C142.61 333.892 146.11 338.222 149 343.062C144.67 339.562 140.84 335.562 137.5 331.062C136.52 328.822 136.02 326.492 136 324.062Z" fill="#605425"/>
<path fill-rule="evenodd" clip-rule="evenodd" d="M227 335.062C224.64 334.902 222.31 335.062 220 335.562C217.69 340.602 219.36 342.932 225 342.562C226.89 344.322 228.89 345.822 231 347.062C226.42 346.352 222.26 344.692 218.5 342.062C216.93 333.782 219.76 331.442 227 335.062Z" fill="#8E8C89"/>
<path fill-rule="evenodd" clip-rule="evenodd" d="M366 331.062C364.71 334.602 363.04 337.942 361 341.062C359.09 344.552 356.92 347.892 354.5 351.062C349.18 356.642 343.35 361.642 337 366.062C336.91 365.062 337.25 364.232 338 363.562C343.81 359.752 348.98 355.252 353.5 350.062C355.76 344.812 358.43 339.812 361.5 335.062C362.87 333.522 364.37 332.192 366 331.062Z" fill="#957D1C"/>
<path fill-rule="evenodd" clip-rule="evenodd" d="M383 361.062C385.31 362.712 387.31 364.712 389 367.062C389.66 370.722 390.33 374.382 391 378.062C389.55 388.472 383.55 392.472 373 390.062C377.97 403.242 373.64 408.742 360 406.562C357.82 404.212 355.48 402.042 353 400.062C352.24 406.312 349.24 411.152 344 414.562C341 415.232 338 415.232 335 414.562C334.03 413.082 332.7 412.252 331 412.062C329.46 406.452 328.13 400.782 327 395.062C334.56 392.032 342.23 388.862 350 385.562C355.3 380.792 360.63 376.292 366 372.062C370.76 368.812 375.09 364.972 379 360.562C380.43 359.982 381.76 360.152 383 361.062Z" fill="#8B5930"/>
<path fill-rule="evenodd" clip-rule="evenodd" d="M179 369.062C185.23 370.702 191.56 371.872 198 372.562C200.59 374.682 203.26 376.512 206 378.062C200.33 378.562 195.33 377.062 191 373.562C186.6 372.712 182.6 371.212 179 369.062Z" fill="#C3A116"/>
<path fill-rule="evenodd" clip-rule="evenodd" d="M389 367.062C393.7 378.782 400.2 389.442 408.5 399.062C412.86 407.412 417.19 415.742 421.5 424.062C423.04 430.312 423.37 436.642 422.5 443.062C421.33 444.892 420.17 446.732 419 448.562C414.08 449.362 409.25 449.192 404.5 448.062C404.94 453.962 402.44 458.132 397 460.562C390.83 461.732 385 460.902 379.5 458.062C377.27 461.512 375.27 465.172 373.5 469.062C365.44 473.752 358.1 472.752 351.5 466.062C347.53 459.412 343.53 452.752 339.5 446.062C336.74 434.632 333.9 423.292 331 412.062C332.7 412.252 334.03 413.082 335 414.562C338 415.232 341 415.232 344 414.562C349.24 411.152 352.24 406.312 353 400.062C355.48 402.042 357.82 404.212 360 406.562C373.64 408.742 377.97 403.242 373 390.062C383.55 392.472 389.55 388.472 391 378.062C390.33 374.382 389.66 370.722 389 367.062Z" fill="#2D2E2D"/>
<path fill-rule="evenodd" clip-rule="evenodd" d="M322 375.062C318.69 376.452 315.36 377.952 312 379.562C303.7 380.582 295.36 381.242 287 381.562C282.16 382.342 277.49 383.682 273 385.562C261 386.232 249 386.232 237 385.562C236.44 385.182 236.11 384.682 236 384.062C248.34 384.232 260.67 384.062 273 383.562C289.43 381.292 305.76 378.462 322 375.062Z" fill="#6B5D23"/>
<path fill-rule="evenodd" clip-rule="evenodd" d="M214.999 408.062C214.999 413.062 214.999 418.062 214.999 423.062C216.049 422.912 217.049 423.082 217.999 423.562C219.939 426.012 222.269 427.852 224.999 429.062C225.619 429.172 226.119 429.502 226.499 430.062C228.749 438.632 225.589 441.472 216.999 438.562C215.559 438.182 214.559 437.352 213.999 436.062C212.929 435.132 211.599 434.792 209.999 435.062C209.809 441.752 206.479 444.592 199.999 443.562C199.039 440.172 198.709 436.672 198.999 433.062C194.329 433.062 189.669 433.062 184.999 433.062C184.839 430.372 184.999 427.712 185.499 425.062C188.349 422.632 191.179 420.302 193.999 418.062C196.329 418.062 198.669 418.062 200.999 418.062C200.699 415.502 201.029 413.172 201.999 411.062C202.759 406.762 204.099 402.602 205.999 398.562C213.169 397.572 216.169 400.732 214.999 408.062Z" fill="#304D7D"/>
<path fill-rule="evenodd" clip-rule="evenodd" d="M294.001 423.062C298.761 423.722 303.261 425.392 307.501 428.062C310.621 437.762 307.451 441.432 298.001 439.062C297.111 437.782 296.111 437.782 295.001 439.062C293.891 444.672 290.551 446.842 285.001 445.562C283.761 444.412 282.761 443.072 282.001 441.562C278.341 441.672 274.681 441.672 271.001 441.562C269.221 439.422 268.551 436.922 269.001 434.062C270.421 430.342 273.091 428.012 277.001 427.062C278.941 426.412 280.941 426.082 283.001 426.062C283.031 420.792 282.361 415.632 281.001 410.562C281.131 403.662 284.461 401.492 291.001 404.062C292.181 410.512 293.181 416.842 294.001 423.062Z" fill="#304E7D"/>
</svg>
