<svg width="500" height="500" viewBox="0 0 500 500" fill="none" xmlns="http://www.w3.org/2000/svg">
<path fill-rule="evenodd" clip-rule="evenodd" d="M336 99.0607C332.99 99.4507 330.32 98.7907 328 97.0607C330.96 89.9907 335.29 83.8207 341 78.5607C346.99 75.0707 353.32 72.4007 360 70.5607C372.17 68.6807 384.17 66.1807 396 63.0607C395.54 60.0807 395.2 57.0807 395 54.0607C374.83 56.1007 355.5 61.2707 337 69.5607C328.43 73.9607 322.1 80.4607 318 89.0607C315.67 86.8907 313 85.2307 310 84.0607C315.06 74.5007 322.4 67.0007 332 61.5607C338.64 58.9407 345.31 56.2807 352 53.5607C359.71 51.7207 367.38 49.7207 375 47.5607C383.6 45.8307 392.26 45.1707 401 45.5607C403.04 52.1007 404.71 58.7707 406 65.5607C406.15 67.5907 405.48 69.2607 404 70.5607C392.88 72.9707 381.88 75.6307 371 78.5607C367.33 78.8907 363.67 79.2307 360 79.5607C355.79 81.8307 351.45 83.8307 347 85.5607C343.24 90.1907 339.57 94.6907 336 99.0607Z" fill="#C7C3C1"/>
<path fill-rule="evenodd" clip-rule="evenodd" d="M328 97.0605C323.89 95.3405 320.55 92.6705 318 89.0605C322.1 80.4605 328.43 73.9605 337 69.5605C355.5 61.2705 374.83 56.1005 395 54.0605C395.2 57.0805 395.54 60.0805 396 63.0605C384.17 66.1805 372.17 68.6805 360 70.5605C353.32 72.4005 346.99 75.0705 341 78.5605C335.29 83.8205 330.96 89.9905 328 97.0605Z" fill="#E8E8E8"/>
<path fill-rule="evenodd" clip-rule="evenodd" d="M310 84.0607C313 85.2307 315.67 86.8907 318 89.0607C320.55 92.6707 323.89 95.3407 328 97.0607C330.32 98.7907 332.99 99.4507 336 99.0607C338.92 102.841 339.76 107.181 338.5 112.061C334.91 122.101 327.75 126.771 317 126.061C315.06 125.411 313.06 125.081 311 125.061C306.74 123.261 302.74 120.931 299 118.061C297.72 115.451 296.05 113.111 294 111.061C290.22 99.7707 293.22 90.9407 303 84.5607C305.31 84.0607 307.64 83.9007 310 84.0607Z" fill="#FEC64F"/>
<path fill-rule="evenodd" clip-rule="evenodd" d="M306 93.0604C307.48 92.8004 308.81 93.1304 310 94.0604C315.02 100.44 321.36 104.77 329 107.06C329.65 110.91 328.32 113.75 325 115.56C313.38 118.37 305.38 114.37 301 103.56C301.48 99.4404 303.15 95.9404 306 93.0604Z" fill="#FFDD5C"/>
<path fill-rule="evenodd" clip-rule="evenodd" d="M294 111.061C296.05 113.111 297.72 115.451 299 118.061C295.11 124.831 290.94 131.501 286.5 138.061C282.92 149.221 277.76 159.551 271 169.061C267.69 168.271 265.03 166.441 263 163.561C265.89 157.941 268.89 152.441 272 147.061C274.93 141.541 277.59 135.871 280 130.061C253.42 125.301 226.76 124.801 200 128.561C186.25 131.861 173.58 137.361 162 145.061C160.39 147.181 159.89 149.511 160.5 152.061C161.94 155.971 164.11 159.301 167 162.061C174.05 169.591 182.38 175.421 192 179.561C232.83 191.811 273.17 190.811 313 176.561C315.04 176.061 316.38 174.901 317 173.061C320.18 172.531 323.18 171.531 326 170.061C324.17 159.751 318.84 151.751 310 146.061C306.17 150.401 302.84 155.061 300 160.061C296.11 165.491 292.44 171.161 289 177.061C285.46 177.881 282.46 176.881 280 174.061C290.09 157.551 300.42 141.221 311 125.061C313.06 125.081 315.06 125.411 317 126.061C318.11 126.851 319.44 127.351 321 127.561C318.74 130.741 316.74 134.081 315 137.561C325.51 145.731 332.67 156.231 336.5 169.061C336.64 176.111 336.14 183.111 335 190.061C334.02 194.021 332.02 197.361 329 200.061C321.45 210.851 311.11 217.691 298 220.561C256 229.891 215 226.891 175 211.561C162.58 206.031 151.58 198.531 142 189.061C140.93 186.591 139.6 184.261 138 182.061C136.69 180.891 136.02 179.391 136 177.561C137.97 169.331 140.13 161.161 142.5 153.061C145.72 149.511 148.55 145.671 151 141.561C157.51 137.471 163.84 133.141 170 128.561C179.98 125.241 189.98 121.911 200 118.561C212.01 117.881 224.01 117.041 236 116.061C248.66 117.031 261.33 118.191 274 119.561C277.28 120.021 280.45 120.851 283.5 122.061C287 120.101 289.33 117.101 290.5 113.061C291.32 111.741 292.48 111.071 294 111.061Z" fill="#C7C2C0"/>
<path fill-rule="evenodd" clip-rule="evenodd" d="M299 118.061C302.74 120.931 306.74 123.261 311 125.061C300.42 141.221 290.09 157.551 280 174.061C276.64 172.951 273.64 171.281 271 169.061C277.76 159.551 282.92 149.221 286.5 138.061C290.94 131.501 295.11 124.831 299 118.061Z" fill="#E8E8E8"/>
<path fill-rule="evenodd" clip-rule="evenodd" d="M271.999 147.06C249.519 141.65 226.849 140.82 203.999 144.56C194.949 147.74 185.949 151.07 176.999 154.56C173.059 156.35 169.729 158.85 166.999 162.06C164.109 159.3 161.939 155.97 160.499 152.06C159.889 149.51 160.389 147.18 161.999 145.06C173.579 137.36 186.249 131.86 199.999 128.56C226.759 124.8 253.419 125.3 279.999 130.06C277.589 135.87 274.929 141.54 271.999 147.06Z" fill="#8F8F8F"/>
<path fill-rule="evenodd" clip-rule="evenodd" d="M272 147.06C268.89 152.44 265.89 157.94 263 163.56C265.03 166.44 267.69 168.27 271 169.06C273.64 171.28 276.64 172.95 280 174.06C282.46 176.88 285.46 177.88 289 177.06C292.44 171.16 296.11 165.49 300 160.06C306.53 163.25 312.19 167.58 317 173.06C316.38 174.9 315.04 176.06 313 176.56C273.17 190.81 232.83 191.81 192 179.56C182.38 175.42 174.05 169.59 167 162.06C169.73 158.85 173.06 156.35 177 154.56C185.95 151.07 194.95 147.74 204 144.56C226.85 140.82 249.52 141.65 272 147.06Z" fill="#96B04A"/>
<path fill-rule="evenodd" clip-rule="evenodd" d="M317 173.061C312.19 167.581 306.53 163.251 300 160.061C302.84 155.061 306.17 150.401 310 146.061C318.84 151.751 324.17 159.751 326 170.061C323.18 171.531 320.18 172.531 317 173.061Z" fill="#90908F"/>
<path fill-rule="evenodd" clip-rule="evenodd" d="M151.001 157.061C162.641 174.911 178.981 186.411 200.001 191.561C236.281 199.771 272.281 198.771 308.001 188.561C313.541 185.781 319.211 183.611 325.001 182.061C325.111 185.811 324.611 189.471 323.501 193.061C317.461 200.771 309.961 206.601 301.001 210.561C260.011 220.571 219.681 218.241 180.001 203.561C166.721 198.181 155.551 190.011 146.501 179.061C145.831 176.731 145.831 174.391 146.501 172.061C148.501 167.211 150.001 162.211 151.001 157.061Z" fill="#E9E9E9"/>
<path fill-rule="evenodd" clip-rule="evenodd" d="M138 182.061C139.6 184.261 140.93 186.591 142 189.061C137.7 192.531 133.86 196.531 130.5 201.061C102.36 243.051 96.0303 288.051 111.5 336.061C116.24 345.941 121.91 355.271 128.5 364.061C129.5 364.731 130.5 365.391 131.5 366.061C131.69 363.521 132.19 361.191 133 359.061C132.86 366.421 133.2 373.761 134 381.061C129.41 377.971 125.24 374.311 121.5 370.061C118.08 364.221 114.42 358.561 110.5 353.061C95.6603 325.221 90.6603 295.561 95.5003 264.061C99.6103 239.391 108.61 216.721 122.5 196.061C126.61 190.111 131.78 185.441 138 182.061Z" fill="#905035"/>
<path fill-rule="evenodd" clip-rule="evenodd" d="M142.001 189.061C151.581 198.531 162.581 206.031 175.001 211.561C215.001 226.891 256.001 229.891 298.001 220.561C311.111 217.691 321.451 210.851 329.001 200.061C331.091 200.121 332.591 201.121 333.501 203.061C336.061 209.191 339.401 214.851 343.501 220.061C351.051 239.591 356.711 259.591 360.501 280.061C363.271 321.181 349.441 355.511 319.001 383.061C319.091 374.931 317.261 367.261 313.501 360.061C311.961 356.871 309.461 355.701 306.001 356.561C304.561 357.691 303.891 359.191 304.001 361.061C306.921 367.421 308.921 374.081 310.001 381.061C309.461 384.441 308.791 387.771 308.001 391.061C302.691 393.351 297.361 395.691 292.001 398.061C284.741 394.511 278.241 389.841 272.501 384.061C271.801 381.631 271.961 379.301 273.001 377.061C290.141 372.761 300.641 362.091 304.501 345.061C305.251 335.361 305.091 325.691 304.001 316.061C306.641 316.821 309.311 316.991 312.001 316.561C313.821 315.091 314.321 313.261 313.501 311.061C305.541 306.601 297.711 301.931 290.001 297.061C285.011 292.891 279.341 289.731 273.001 287.561C251.171 280.711 228.841 278.041 206.001 279.561C194.961 282.291 183.961 285.131 173.001 288.061C167.111 290.161 162.111 293.501 158.001 298.061C148.611 301.601 141.111 307.601 135.501 316.061C134.191 325.691 137.691 327.691 146.001 322.061C144.471 341.161 150.471 357.331 164.001 370.561C168.361 373.571 173.021 375.741 178.001 377.061C178.161 379.421 178.001 381.751 177.501 384.061C173.221 386.951 169.051 389.951 165.001 393.061C159.871 390.661 155.211 387.491 151.001 383.561C150.051 383.081 149.051 382.911 148.001 383.061C144.451 375.201 142.621 366.871 142.501 358.061C138.741 353.971 135.581 354.301 133.001 359.061C132.191 361.191 131.691 363.521 131.501 366.061C130.501 365.391 129.501 364.731 128.501 364.061C121.911 355.271 116.241 345.941 111.501 336.061C96.0306 288.051 102.361 243.051 130.501 201.061C133.861 196.531 137.701 192.531 142.001 189.061Z" fill="#CB723E"/>
<path fill-rule="evenodd" clip-rule="evenodd" d="M335 190.061C341.06 199.161 346.89 208.491 352.5 218.061C364.36 246.281 370.36 275.621 370.5 306.061C365.26 336.531 352.1 362.871 331 385.061C327.2 389.211 322.87 392.541 318 395.061C318.52 391.081 318.85 387.081 319 383.061C349.44 355.511 363.27 321.181 360.5 280.061C356.71 259.591 351.05 239.591 343.5 220.061C339.4 214.851 336.06 209.191 333.5 203.061C332.59 201.121 331.09 200.121 329 200.061C332.02 197.361 334.02 194.021 335 190.061Z" fill="#904F34"/>
<path fill-rule="evenodd" clip-rule="evenodd" d="M290.001 297.06C282.751 296.14 275.751 294.31 269.001 291.56C251.211 289.33 240.711 297.16 237.501 315.06C234.931 342.83 247.431 354.33 275.001 349.56C278.961 347.33 282.461 344.49 285.501 341.06C290.731 331.71 293.731 321.71 294.501 311.06C297.331 313.39 300.491 315.06 304.001 316.06C305.091 325.69 305.251 335.36 304.501 345.06C300.641 362.09 290.141 372.76 273.001 377.06C272.891 371.79 270.231 369.62 265.001 370.56C262.761 373.05 260.761 375.71 259.001 378.56C255.911 378.82 252.911 379.32 250.001 380.06C233.661 380.11 217.331 380.45 201.001 381.06C200.991 379.54 200.321 378.38 199.001 377.56C196.451 376.9 193.951 377.07 191.501 378.06C189.761 376.88 188.761 375.21 188.501 373.06C185.501 369.06 182.501 369.06 179.501 373.06C179.291 374.62 178.791 375.95 178.001 377.06C173.021 375.74 168.361 373.57 164.001 370.56C150.471 357.33 144.471 341.16 146.001 322.06C147.981 319.41 150.311 317.08 153.001 315.06C154.241 316.52 154.081 317.85 152.501 319.06C151.831 322.73 151.831 326.39 152.501 330.06C154.751 333.79 156.411 337.79 157.501 342.06C171.631 357.51 186.301 357.84 201.501 343.06C203.791 338.17 206.461 333.51 209.501 329.06C211.291 320.97 209.291 313.97 203.501 308.06C203.801 304 202.301 300.83 199.001 298.56C185.341 291.78 171.671 291.61 158.001 298.06C162.111 293.5 167.111 290.16 173.001 288.06C183.961 285.13 194.961 282.29 206.001 279.56C228.841 278.04 251.171 280.71 273.001 287.56C279.341 289.73 285.011 292.89 290.001 297.06Z" fill="#FBF9F9"/>
<path fill-rule="evenodd" clip-rule="evenodd" d="M290.001 297.06C297.711 301.93 305.541 306.6 313.501 311.06C314.321 313.26 313.821 315.09 312.001 316.56C309.311 316.99 306.641 316.82 304.001 316.06C300.491 315.06 297.331 313.39 294.501 311.06C293.731 321.71 290.731 331.71 285.501 341.06C282.461 344.49 278.961 347.33 275.001 349.56C247.431 354.33 234.931 342.83 237.501 315.06C240.711 297.16 251.211 289.33 269.001 291.56C275.751 294.31 282.751 296.14 290.001 297.06Z" fill="#070706"/>
<path fill-rule="evenodd" clip-rule="evenodd" d="M146 322.06C137.69 327.69 134.19 325.69 135.5 316.06C141.11 307.6 148.61 301.6 158 298.06C171.67 291.61 185.34 291.78 199 298.56C202.3 300.83 203.8 304 203.5 308.06C209.29 313.97 211.29 320.97 209.5 329.06C206.46 333.51 203.79 338.17 201.5 343.06C186.3 357.84 171.63 357.51 157.5 342.06C156.41 337.79 154.75 333.79 152.5 330.06C151.83 326.39 151.83 322.73 152.5 319.06C154.08 317.85 154.24 316.52 153 315.06C150.31 317.08 147.98 319.41 146 322.06Z" fill="#070606"/>
<path fill-rule="evenodd" clip-rule="evenodd" d="M253.999 299.061C258.299 298.361 261.799 299.691 264.499 303.061C264.199 308.041 263.529 313.041 262.499 318.061C258.819 320.921 254.649 321.751 249.999 320.561C245.049 316.221 243.879 311.061 246.499 305.061C249.339 303.401 251.839 301.401 253.999 299.061Z" fill="#F3F3F3"/>
<path fill-rule="evenodd" clip-rule="evenodd" d="M186.999 303.061C193.919 302.511 197.589 305.681 197.999 312.561C197.759 319.911 194.259 324.741 187.499 327.061C185.599 326.951 183.939 326.281 182.499 325.061C176.849 316.211 178.349 308.881 186.999 303.061Z" fill="#F5F5F5"/>
<path fill-rule="evenodd" clip-rule="evenodd" d="M239 355.061C241.03 354.901 243.03 355.061 245 355.561C245.58 356.451 245.91 357.451 246 358.561C243.92 364.041 240.58 368.711 236 372.561C233.67 373.231 231.33 373.231 229 372.561C224.54 370.241 220.04 368.081 215.5 366.061C214.01 361.731 215.51 359.391 220 359.061C223.59 360.921 227.25 362.591 231 364.061C232.53 364.031 233.7 363.361 234.5 362.061C236.01 359.701 237.51 357.371 239 355.061Z" fill="#121212"/>
<path fill-rule="evenodd" clip-rule="evenodd" d="M147.999 383.06C149.169 387.55 151.499 391.39 154.999 394.56C157.669 395.23 160.329 395.23 162.999 394.56C163.919 394.28 164.579 393.78 164.999 393.06C169.049 389.95 173.219 386.95 177.499 384.06C177.999 381.75 178.159 379.42 177.999 377.06C178.789 375.95 179.289 374.62 179.499 373.06C182.499 369.06 185.499 369.06 188.499 373.06C188.759 375.21 189.759 376.88 191.499 378.06C193.949 377.07 196.449 376.9 198.999 377.56C200.319 378.38 200.989 379.54 200.999 381.06C201.199 382.95 200.539 384.45 198.999 385.56C195.539 387.3 191.879 388.3 187.999 388.56C184.459 390.83 181.119 393.33 177.999 396.06C173.639 399.57 168.969 402.57 163.999 405.06C150.949 409.54 142.119 405.21 137.499 392.06C136.219 388.39 135.059 384.73 133.999 381.06C133.199 373.76 132.859 366.42 132.999 359.06C135.579 354.3 138.739 353.97 142.499 358.06C142.619 366.87 144.449 375.2 147.999 383.06Z" fill="#080504"/>
<path fill-rule="evenodd" clip-rule="evenodd" d="M318.999 383.06C318.849 387.08 318.519 391.08 317.999 395.06C314.669 407.1 307.009 412.1 294.999 410.06C289.009 408.17 283.339 405.5 277.999 402.06C273.699 398.23 269.359 394.4 264.999 390.56C260.329 390.23 255.669 389.89 250.999 389.56C248.859 386.56 248.529 383.39 249.999 380.06C252.909 379.32 255.909 378.82 258.999 378.56C260.759 375.71 262.759 373.05 264.999 370.56C270.229 369.62 272.889 371.79 272.999 377.06C271.959 379.3 271.799 381.63 272.499 384.06C278.239 389.84 284.739 394.51 291.999 398.06C300.249 402.51 305.589 400.17 307.999 391.06C308.789 387.77 309.459 384.44 309.999 381.06C308.919 374.08 306.919 367.42 303.999 361.06C303.889 359.19 304.559 357.69 305.999 356.56C309.459 355.7 311.959 356.87 313.499 360.06C317.259 367.26 319.089 374.93 318.999 383.06Z" fill="#090504"/>
<path fill-rule="evenodd" clip-rule="evenodd" d="M250 380.061C248.53 383.391 248.86 386.561 251 389.561C255.67 389.891 260.33 390.231 265 390.561C269.36 394.401 273.7 398.231 278 402.061C276.59 404.171 274.59 405.671 272 406.561C244.5 410.271 217.17 409.271 190 403.561C186.48 401.771 182.82 400.271 179 399.061C178.37 398.141 178.04 397.141 178 396.061C181.12 393.331 184.46 390.831 188 388.561C191.88 388.301 195.54 387.301 199 385.561C200.54 384.451 201.2 382.951 201 381.061C217.33 380.451 233.66 380.111 250 380.061Z" fill="#CA713D"/>
<path fill-rule="evenodd" clip-rule="evenodd" d="M148 383.061C149.05 382.911 150.05 383.081 151 383.561C155.21 387.491 159.87 390.661 165 393.061C164.58 393.781 163.92 394.281 163 394.561C160.33 395.231 157.67 395.231 155 394.561C151.5 391.391 149.17 387.551 148 383.061Z" fill="#8C4C32"/>
<path fill-rule="evenodd" clip-rule="evenodd" d="M308 391.061C305.59 400.171 300.25 402.511 292 398.061C297.36 395.691 302.69 393.351 308 391.061Z" fill="#8B4C31"/>
<path fill-rule="evenodd" clip-rule="evenodd" d="M178 396.061C178.04 397.141 178.37 398.141 179 399.061C182.82 400.271 186.48 401.771 190 403.561C217.17 409.271 244.5 410.271 272 406.561C274.59 405.671 276.59 404.171 278 402.061C283.34 405.501 289.01 408.171 295 410.061C285.9 411.211 277.23 413.541 269 417.061C264.62 413.911 261.62 414.911 260 420.061C243.35 418.281 226.35 417.281 209 417.061C207.88 414.481 205.88 412.811 203 412.061C201.46 412.851 200.13 413.851 199 415.061C187.14 412.641 175.47 409.311 164 405.061C168.97 402.571 173.64 399.571 178 396.061Z" fill="#904F34"/>
<path fill-rule="evenodd" clip-rule="evenodd" d="M208.999 417.061C209.849 427.381 210.019 437.721 209.499 448.061C204.289 454.081 197.789 456.251 189.999 454.561C187.029 450.291 187.689 446.621 191.999 443.561C194.309 443.061 196.639 442.901 198.999 443.061C198.619 433.641 198.619 424.311 198.999 415.061C200.129 413.851 201.459 412.851 202.999 412.061C205.879 412.811 207.879 414.481 208.999 417.061Z" fill="#0C0906"/>
<path fill-rule="evenodd" clip-rule="evenodd" d="M268.999 417.061C269.799 424.651 270.299 432.311 270.499 440.061C273.189 441.581 275.859 443.251 278.499 445.061C279.439 447.911 278.939 450.411 276.999 452.561C269.559 454.921 264.059 452.751 260.499 446.061C259.999 437.401 259.829 428.731 259.999 420.061C261.619 414.911 264.619 413.911 268.999 417.061Z" fill="#080604"/>
</svg>
