<svg width="500" height="500" viewBox="0 0 500 500" fill="none" xmlns="http://www.w3.org/2000/svg">
<path fill-rule="evenodd" clip-rule="evenodd" d="M276 83.0622C282.98 84.6722 290.15 86.0022 297.5 87.0622C303.71 89.4622 309.54 92.4622 315 96.0622C320.57 99.5222 326.24 103.022 332 106.562C335.78 110.942 340.11 114.612 345 117.562C347.62 119.672 349.62 122.172 351 125.062C350.93 126.592 351.59 127.592 353 128.062C356.5 136.082 360 144.082 363.5 152.062C368.5 155.732 372.83 160.062 376.5 165.062C379.32 173.662 381.82 182.332 384 191.062C384 192.062 384 193.062 384 194.062C385.23 201.702 386.39 209.372 387.5 217.062C387.59 226.432 386.93 235.762 385.5 245.062C384.5 246.732 383.5 248.392 382.5 250.062C380.86 259.002 378.36 267.672 375 276.062C373.3 279.822 371.97 283.822 371 288.062C368.55 297.432 367.55 307.102 368 317.062C366.41 321.042 364.08 321.712 361 319.062C357.94 312.882 355.28 306.552 353 300.062C351.32 280.442 350.65 260.782 351 241.062C347.48 241.302 344.81 239.972 343 237.062C347.8 239.182 352.8 240.852 358 242.062C363.01 241.392 364.68 238.732 363 234.062C358 230.862 353 227.862 348 225.062C349.31 222.642 349.98 219.812 350 216.562C349.83 213.732 349.67 210.892 349.5 208.062C344.22 204.432 338.39 201.762 332 200.062C331.21 199.322 330.55 198.482 330 197.562C308.94 192.842 287.77 188.672 266.5 185.062C254.31 186.482 242.15 186.312 230 184.562C219.29 180.552 208.62 176.552 198 172.562C192.5 170.462 187.5 167.622 183 164.062C189.27 157.902 191.93 150.232 191 141.062C194.36 139.562 196.19 136.892 196.5 133.062C197.17 130.392 197.17 127.732 196.5 125.062C191.47 117.202 184.31 112.872 175 112.062C176.33 107.062 176.33 102.062 175 97.0622C176.79 94.7622 178.79 92.6022 181 90.5622C199.23 80.0522 218.89 75.7122 240 77.5622C252.11 78.8622 264.11 80.6922 276 83.0622Z" fill="#2E2D2D"/>
<path fill-rule="evenodd" clip-rule="evenodd" d="M117.999 113.062C116.669 113.732 115.329 114.392 113.999 115.062C112.569 118.972 110.239 122.302 106.999 125.062C106.289 126.792 105.289 128.462 103.999 130.062C104.479 131.042 105.139 131.872 105.999 132.562C104.369 133.052 102.699 133.222 100.999 133.062C100.699 137.992 101.029 142.822 101.999 147.562C107.699 149.852 113.699 150.692 119.999 150.062C120.159 152.422 119.999 154.752 119.499 157.062C111.399 161.852 107.569 169.022 107.999 178.562C110.509 179.652 113.009 180.822 115.499 182.062C116.509 181.222 117.679 180.892 118.999 181.062C119.519 189.142 123.349 191.142 130.499 187.062C133.119 179.062 133.619 170.892 131.999 162.562C132.659 161.072 133.659 159.912 134.999 159.062C136.809 165.832 138.809 172.502 140.999 179.062C142.729 182.962 145.059 186.462 147.999 189.562C150.669 190.232 153.329 190.232 155.999 189.562C157.329 187.562 158.669 185.562 159.999 183.562C161.669 183.392 163.329 183.232 164.999 183.062C167.139 183.122 168.809 183.782 169.999 185.062C169.889 185.682 169.559 186.182 168.999 186.562C165.949 186.742 162.949 187.242 159.999 188.062C157.579 192.702 153.919 194.862 148.999 194.562C146.669 191.562 144.329 188.562 141.999 185.562C141.049 185.082 140.049 184.912 138.999 185.062C138.909 191.722 135.909 196.392 129.999 199.062C122.319 201.382 117.319 198.722 114.999 191.062C111.929 191.382 108.929 191.042 105.999 190.062C102.379 183.262 102.209 176.262 105.499 169.062C107.379 164.972 109.549 160.972 111.999 157.062C107.379 156.072 102.709 155.732 97.9995 156.062C95.5395 152.952 93.5395 149.612 91.9995 146.062C91.8295 140.722 91.9995 135.382 92.4995 130.062C93.1595 128.582 93.9995 127.242 94.9995 126.062C99.8895 124.852 102.559 121.852 102.999 117.062C106.719 110.942 111.719 109.612 117.999 113.062Z" fill="#FA77CA"/>
<path fill-rule="evenodd" clip-rule="evenodd" d="M159 89.0629C164.17 91.9029 169.5 94.5729 175 97.0629C176.33 102.063 176.33 107.063 175 112.063C184.31 112.873 191.47 117.203 196.5 125.063C197.17 127.733 197.17 130.393 196.5 133.063C196.19 136.893 194.36 139.563 191 141.063C191.93 150.233 189.27 157.903 183 164.063C181.33 164.313 179.83 164.983 178.5 166.063C179.44 174.183 176.6 180.513 170 185.063C168.81 183.783 167.14 183.123 165 183.063C163.33 183.233 161.67 183.393 160 183.563C158.67 185.563 157.33 187.563 156 189.563C153.33 190.233 150.67 190.233 148 189.563C145.06 186.463 142.73 182.963 141 179.063C145.02 182.863 149.68 183.863 155 182.063C155.1 178.893 154.43 175.893 153 173.063C153.83 172.733 154.67 172.393 155.5 172.063C159.01 173.653 162.68 174.653 166.5 175.063C172.08 175.153 174.41 172.483 173.5 167.063C170.97 164.393 169.14 161.393 168 158.063C172.01 158.233 176.01 158.063 180 157.563C180.92 157.193 181.75 156.693 182.5 156.063C183.25 148.103 179.75 142.603 172 139.563C171.67 138.563 171.33 137.563 171 136.563C175.17 134.473 179.5 132.973 184 132.063C184.42 129.813 185.08 127.653 186 125.563C186.14 123.003 184.97 121.503 182.5 121.063C178.36 120.063 174.2 119.903 170 120.563C164.98 122.513 159.98 124.343 155 126.063C154.19 125.753 153.53 125.253 153 124.563C155.2 122.823 157.53 121.323 160 120.063C163.33 117.573 166.16 114.573 168.5 111.063C169.17 109.063 169.17 107.063 168.5 105.063C166.81 102.803 165.64 100.303 165 97.5629C159.74 97.0129 154.74 98.0129 150 100.563C149.16 101.573 148.83 102.743 149 104.063C145.83 104.163 142.83 103.493 140 102.063C134.25 106.393 130.91 112.223 130 119.563C130.73 121.333 131.07 123.163 131 125.063C129.67 125.063 128.33 125.063 127 125.063C127.17 123.743 126.84 122.573 126 121.563C124.03 121.063 122.03 120.903 120 121.063C120.33 116.733 118.33 114.733 114 115.063C115.33 114.393 116.67 113.733 118 113.063C119.94 113.713 121.94 114.043 124 114.063C123.84 111.043 124 108.043 124.5 105.063C126.14 102.263 127.97 99.5929 130 97.0629C132.8 95.5929 135.8 94.7629 139 94.5629C142 92.8929 145 91.2329 148 89.5629C151.65 89.0629 155.32 88.8929 159 89.0629Z" fill="#FA86CC"/>
<path fill-rule="evenodd" clip-rule="evenodd" d="M130 142.062C129.13 139.872 127.46 138.873 125 139.062C125.11 138.442 125.44 137.942 126 137.562C123.38 136.743 120.72 136.243 118 136.062C118 134.732 118 133.393 118 132.062C116.67 132.062 115.33 132.062 114 132.062C114.18 129.622 113.52 127.462 112 125.562C112.88 124.202 113.21 122.702 113 121.062C116.66 122.332 120.32 123.663 124 125.062C124.19 127.122 124.69 129.122 125.5 131.062C126.51 131.902 127.68 132.233 129 132.062C128.96 135.443 129.29 138.773 130 142.062Z" fill="#FF9B48"/>
<path fill-rule="evenodd" clip-rule="evenodd" d="M114 115.062C118.33 114.732 120.33 116.732 120 121.062C122.03 120.902 124.03 121.062 126 121.562C126.84 122.572 127.17 123.742 127 125.062C128.07 125.992 129.4 126.332 131 126.062C131 127.392 131 128.732 131 130.062C131.6 133.932 133.27 137.262 136 140.062C136.9 143.802 135.57 145.802 132 146.062C130.83 145.052 130.16 143.712 130 142.062C129.29 138.772 128.96 135.442 129 132.062C127.68 132.232 126.51 131.902 125.5 131.062C124.69 129.122 124.19 127.122 124 125.062C120.32 123.662 116.66 122.332 113 121.062C113.21 122.702 112.88 124.202 112 125.562C113.52 127.462 114.18 129.622 114 132.062C115.33 132.062 116.67 132.062 118 132.062C118 133.392 118 134.732 118 136.062C120.72 136.242 123.38 136.742 126 137.562C125.44 137.942 125.11 138.442 125 139.062C124 139.392 123.33 140.062 123 141.062C120 139.312 116.67 138.142 113 137.562C112.08 135.522 111.74 133.352 112 131.062C107.59 131.502 105.93 129.502 107 125.062C110.24 122.302 112.57 118.972 114 115.062Z" fill="#FFC05E"/>
<path fill-rule="evenodd" clip-rule="evenodd" d="M141 179.062C138.81 172.502 136.81 165.832 135 159.062C133.66 159.912 132.66 161.072 132 162.562C133.62 170.892 133.12 179.062 130.5 187.062C123.35 191.142 119.52 189.142 119 181.062C117.68 180.892 116.51 181.222 115.5 182.062C113.01 180.822 110.51 179.652 108 178.562C107.57 169.022 111.4 161.852 119.5 157.062C120 154.752 120.16 152.422 120 150.062C113.7 150.692 107.7 149.852 102 147.562C101.03 142.822 100.7 137.992 101 133.062C102.7 133.222 104.37 133.052 106 132.562C105.14 131.872 104.48 131.042 104 130.062C105.29 128.462 106.29 126.792 107 125.062C105.93 129.502 107.59 131.502 112 131.062C111.74 133.352 112.08 135.522 113 137.562C116.67 138.142 120 139.312 123 141.062C124 141.152 124.83 140.812 125.5 140.062C128.21 144.402 127.05 146.742 122 147.062C121.74 150.802 122.07 154.472 123 158.062C126.91 159.312 130.25 158.312 133 155.062C136.6 156.672 139.93 158.672 143 161.062C143.94 160.952 144.78 160.622 145.5 160.062C145.28 157.972 145.45 155.972 146 154.062C146.93 152.922 147.76 152.922 148.5 154.062C148.67 150.352 149.17 146.682 150 143.062C151.45 141.002 153.45 140.002 156 140.062C156.26 137.772 155.92 135.602 155 133.562C151.68 133.062 148.35 132.892 145 133.062C147 124.892 144 122.052 136 124.562C134.47 126.592 132.8 128.422 131 130.062C131 128.732 131 127.392 131 126.062C129.4 126.332 128.07 125.992 127 125.062C128.33 125.062 129.67 125.062 131 125.062C131.07 123.162 130.73 121.332 130 119.562C130.91 112.222 134.25 106.392 140 102.062C142.83 103.492 145.83 104.162 149 104.062C148.83 102.742 149.16 101.572 150 100.562C154.74 98.0124 159.74 97.0124 165 97.5624C165.64 100.302 166.81 102.802 168.5 105.062C169.17 107.062 169.17 109.062 168.5 111.062C166.16 114.572 163.33 117.572 160 120.062C157.53 121.322 155.2 122.822 153 124.562C153.53 125.252 154.19 125.752 155 126.062C159.98 124.342 164.98 122.512 170 120.562C174.2 119.902 178.36 120.062 182.5 121.062C184.97 121.502 186.14 123.002 186 125.562C185.08 127.652 184.42 129.812 184 132.062C179.5 132.972 175.17 134.472 171 136.562C171.33 137.562 171.67 138.562 172 139.562C179.75 142.602 183.25 148.102 182.5 156.062C181.75 156.692 180.92 157.192 180 157.562C176.01 158.062 172.01 158.232 168 158.062C169.14 161.392 170.97 164.392 173.5 167.062C174.41 172.482 172.08 175.152 166.5 175.062C162.68 174.652 159.01 173.652 155.5 172.062C154.67 172.392 153.83 172.732 153 173.062C154.43 175.892 155.1 178.892 155 182.062C149.68 183.862 145.02 182.862 141 179.062Z" fill="#FE9CC7"/>
<path fill-rule="evenodd" clip-rule="evenodd" d="M123 141.062C123.33 140.062 124 139.392 125 139.062C127.46 138.872 129.13 139.872 130 142.062C130.16 143.712 130.83 145.052 132 146.062C132.02 147.702 131.35 149.042 130 150.062C132.93 151.042 135.93 151.382 139 151.062C139.54 148.982 140.38 146.982 141.5 145.062C143.2 138.582 141.37 136.912 136 140.062C133.27 137.262 131.6 133.932 131 130.062C132.8 128.422 134.47 126.592 136 124.562C144 122.052 147 124.892 145 133.062C148.35 132.892 151.68 133.062 155 133.562C155.92 135.602 156.26 137.772 156 140.062C153.45 140.002 151.45 141.002 150 143.062C149.17 146.682 148.67 150.352 148.5 154.062C147.76 152.922 146.93 152.922 146 154.062C145.45 155.972 145.28 157.972 145.5 160.062C144.78 160.622 143.94 160.952 143 161.062C139.93 158.672 136.6 156.672 133 155.062C130.25 158.312 126.91 159.312 123 158.062C122.07 154.472 121.74 150.802 122 147.062C127.05 146.742 128.21 144.402 125.5 140.062C124.83 140.812 124 141.152 123 141.062Z" fill="#FF7C98"/>
<path fill-rule="evenodd" clip-rule="evenodd" d="M132 146.063C135.57 145.803 136.9 143.803 136 140.063C141.37 136.913 143.2 138.583 141.5 145.063C140.38 146.983 139.54 148.983 139 151.063C135.93 151.383 132.93 151.043 130 150.063C131.35 149.043 132.02 147.703 132 146.063Z" fill="#FF5C48"/>
<path fill-rule="evenodd" clip-rule="evenodd" d="M98 156.063C102.71 155.733 107.38 156.073 112 157.063C109.55 160.973 107.38 164.973 105.5 169.063C102.21 176.263 102.38 183.263 106 190.063C108.93 191.043 111.93 191.383 115 191.063C117.32 198.723 122.32 201.383 130 199.063C127.37 207.663 125.2 216.333 123.5 225.063C122.69 229.583 122.85 233.913 124 238.063C119.69 241.513 117.36 246.013 117 251.563C117.04 253.323 117.38 254.993 118 256.563C120.65 257.063 123.31 257.223 126 257.063C124.54 258.573 122.71 259.573 120.5 260.063C118.96 269.423 117.29 278.753 115.5 288.063C113.92 291.553 112.09 294.883 110 298.063C105.21 301.683 100.54 305.513 96 309.563C91.72 311.023 88.55 309.853 86.5 306.063C85.81 302.543 86.31 299.213 88 296.063C90.5 292.613 91.5 288.613 91 284.063C90.92 271.603 88.92 259.603 85 248.063C82.6 240.113 81.27 231.943 81 223.563C81.57 213.383 82.24 203.213 83 193.063C84.41 184.723 86.75 176.723 90 169.063C90.9 168.273 91.57 167.273 92 166.063C94 162.683 96 159.353 98 156.063Z" fill="#2F2E2E"/>
<path fill-rule="evenodd" clip-rule="evenodd" d="M183 164.062C187.5 167.622 192.5 170.463 198 172.562C208.62 176.553 219.29 180.552 230 184.562C242.15 186.312 254.31 186.482 266.5 185.062C287.77 188.672 308.94 192.843 330 197.562C330.55 198.483 331.21 199.322 332 200.062C338.39 201.763 344.22 204.432 349.5 208.062C349.67 210.892 349.83 213.733 350 216.562C349.98 219.812 349.31 222.642 348 225.062C345.03 222.902 342.03 220.743 339 218.562C326.82 216.023 314.82 212.852 303 209.062C295.35 207.903 287.69 207.733 280 208.562C274.94 211.622 270.44 215.452 266.5 220.062C256.87 238.923 256.54 257.923 265.5 277.062C271.05 284.543 278.55 288.543 288 289.062C288.11 289.683 288.44 290.183 289 290.562C291.98 291.062 294.98 291.222 298 291.062C297.8 297.113 298.14 303.113 299 309.062C300.05 308.912 301.05 309.083 302 309.562C304.12 311.812 306.46 313.812 309 315.562C315.67 316.233 322.33 316.233 329 315.562C331.17 313.972 333.5 312.643 336 311.562C338.16 308.402 340.66 305.572 343.5 303.062C348.86 295.702 350.36 287.542 348 278.562C345.95 276.172 344.29 273.503 343 270.562C340.09 269.192 337.25 267.692 334.5 266.062C333.49 266.902 332.32 267.233 331 267.062C331 266.062 331 265.062 331 264.062C333.11 259.253 334.94 254.253 336.5 249.062C336.89 244.052 336.72 239.052 336 234.062C338.54 234.603 340.87 235.602 343 237.062C344.81 239.973 347.48 241.302 351 241.062C350.65 260.782 351.32 280.442 353 300.062C351.95 299.912 350.95 300.083 350 300.562C346.33 304.892 342.67 309.233 339 313.562C332.53 317.633 326.19 321.972 320 326.562C315.4 327.373 311.73 329.533 309 333.062C304.29 336.453 298.96 337.952 293 337.562C289.45 339.273 285.95 341.112 282.5 343.062C281.2 342.602 279.87 342.272 278.5 342.062C276.45 343.763 274.11 345.092 271.5 346.062C265.88 343.182 260.54 343.523 255.5 347.062C254.24 346.912 253.08 346.582 252 346.062C246.91 344.862 241.74 345.192 236.5 347.062C229.43 345.222 222.43 343.223 215.5 341.062C213.41 341.442 211.41 342.113 209.5 343.062C204.71 342.312 199.87 341.812 195 341.562C187.52 339.072 179.86 337.402 172 336.562C170.48 335.212 169.15 333.712 168 332.062C165.41 331.082 162.75 330.752 160 331.062C160.17 329.742 159.84 328.572 159 327.562C154.04 326.163 149.38 324.162 145 321.562C143.04 320.112 141.7 318.283 141 316.062C147.16 318.973 153.49 321.642 160 324.062C164.7 323.423 169.36 322.592 174 321.562C176.62 318.713 179.45 316.213 182.5 314.062C185.55 309.082 187.72 303.742 189 298.062C183.51 297.392 178.18 296.733 173 296.062C187.13 297.082 198.96 292.413 208.5 282.062C211.8 275.782 215.47 269.782 219.5 264.062C222.27 252.462 219.77 242.123 212 233.062C211.3 230.003 210.47 227.003 209.5 224.062C205.93 220.862 202.1 218.033 198 215.562C173.51 210.512 151.18 215.182 131 229.562C128.08 231.983 125.74 234.812 124 238.062C122.85 233.912 122.69 229.582 123.5 225.062C125.2 216.333 127.37 207.663 130 199.062C135.91 196.392 138.91 191.722 139 185.062C140.05 184.912 141.05 185.083 142 185.562C144.33 188.562 146.67 191.562 149 194.562C153.92 194.863 157.58 192.702 160 188.062C162.95 187.243 165.95 186.743 169 186.562C169.56 186.183 169.89 185.683 170 185.062C176.6 180.512 179.44 174.182 178.5 166.062C179.83 164.982 181.33 164.312 183 164.062Z" fill="#EB9862"/>
<path fill-rule="evenodd" clip-rule="evenodd" d="M348 225.062C353 227.862 358 230.862 363 234.062C364.68 238.732 363.01 241.392 358 242.062C352.8 240.852 347.8 239.182 343 237.062C340.87 235.602 338.54 234.602 336 234.062C336.72 239.052 336.89 244.052 336.5 249.062C334.94 254.252 333.11 259.252 331 264.062C328.72 269.212 326.05 274.212 323 279.062C313.24 288.502 301.58 291.832 288 289.062C278.55 288.542 271.05 284.542 265.5 277.062C256.54 257.922 256.87 238.922 266.5 220.062C270.44 215.452 274.94 211.622 280 208.562C287.69 207.732 295.35 207.902 303 209.062C314.82 212.852 326.82 216.022 339 218.562C342.03 220.742 345.03 222.902 348 225.062Z" fill="#050404"/>
<path fill-rule="evenodd" clip-rule="evenodd" d="M272 243.063C268.88 238.803 268.22 234.143 270 229.063C270.36 227.193 271.36 225.693 273 224.563C276.6 223.253 279.94 221.593 283 219.563C293.49 218.733 297.66 223.563 295.5 234.063C295.25 246.303 289.09 251.133 277 248.563C274.91 247.073 273.24 245.243 272 243.063Z" fill="#F3F3F3"/>
<path fill-rule="evenodd" clip-rule="evenodd" d="M173 296.063C168.63 296.193 164.63 295.033 161 292.563C157.5 289.893 154.17 287.063 151 284.063C147.74 277.463 144.58 270.803 141.5 264.063C140.57 257.243 141.07 250.573 143 244.063C141.95 243.913 140.95 244.083 140 244.563C135.76 249.313 131.09 253.473 126 257.063C123.31 257.223 120.65 257.063 118 256.563C117.38 254.993 117.04 253.323 117 251.563C117.36 246.013 119.69 241.513 124 238.063C125.74 234.813 128.08 231.983 131 229.563C151.18 215.183 173.51 210.513 198 215.563C202.1 218.033 205.93 220.863 209.5 224.063C210.47 227.003 211.3 230.003 212 233.063C219.77 242.123 222.27 252.463 219.5 264.063C215.47 269.783 211.8 275.783 208.5 282.063C198.96 292.413 187.13 297.083 173 296.063Z" fill="#070505"/>
<path fill-rule="evenodd" clip-rule="evenodd" d="M188 226.063C201 225.903 206.17 232.233 203.5 245.063C201.8 248.083 200.13 251.083 198.5 254.063C190.66 261.423 184 260.423 178.5 251.063C176.36 240.553 179.53 232.213 188 226.063Z" fill="#F4F4F4"/>
<path fill-rule="evenodd" clip-rule="evenodd" d="M270.001 229.062C268.221 234.142 268.881 238.802 272.001 243.062C270.091 242.992 268.921 241.992 268.501 240.062C267.831 237.062 267.831 234.062 268.501 231.062C268.781 230.142 269.281 229.482 270.001 229.062Z" fill="#757575"/>
<path fill-rule="evenodd" clip-rule="evenodd" d="M432 261.062C427.39 266.032 422.05 270.032 416 273.062C410.03 269.952 404.7 265.952 400 261.062C399.87 257.992 400.2 254.992 401 252.062C402.7 251.872 404.03 251.042 405 249.562C406.63 249.072 408.3 248.902 410 249.062C410.33 249.062 410.67 249.062 411 249.062C412.18 250.572 413.18 252.242 414 254.062C416.65 251.402 419.65 249.242 423 247.562C435.05 246.102 438.05 250.602 432 261.062Z" fill="#E99862"/>
<path fill-rule="evenodd" clip-rule="evenodd" d="M151 284.063C147.62 282.053 145.28 279.223 144 275.563C141.98 275.713 139.98 276.213 138 277.063C135.96 281.873 134.3 286.873 133 292.063C134.09 298.903 135.76 305.563 138 312.063C134.57 308.283 130.4 306.943 125.5 308.063C125.09 309.463 124.59 310.793 124 312.063C123.35 312.363 122.68 312.703 122 313.063C119.64 316.933 117.47 320.933 115.5 325.063C113.46 327.273 111.3 329.273 109 331.063C105.99 328.553 102.82 326.223 99.5 324.063C98.38 322.153 97.54 320.153 97 318.063C100.64 312.173 104.8 306.513 109.5 301.063C109.98 300.113 110.15 299.113 110 298.063C112.09 294.883 113.92 291.553 115.5 288.063C117.29 278.753 118.96 269.423 120.5 260.063C122.71 259.573 124.54 258.573 126 257.063C131.09 253.473 135.76 249.313 140 244.563C140.95 244.083 141.95 243.913 143 244.063C141.07 250.573 140.57 257.243 141.5 264.063C144.58 270.803 147.74 277.463 151 284.063Z" fill="#EA9762"/>
<path fill-rule="evenodd" clip-rule="evenodd" d="M400 261.062C404.7 265.952 410.03 269.952 416 273.062C416.31 275.812 415.98 278.472 415 281.062C413.24 281.602 411.91 282.602 411 284.062C407.89 284.302 404.89 283.962 402 283.062C398.55 278.272 394.21 274.602 389 272.062C386.22 262.552 389.89 258.882 400 261.062Z" fill="#62A53A"/>
<path fill-rule="evenodd" clip-rule="evenodd" d="M331 264.062C331 265.062 331 266.062 331 267.062C332.32 267.233 333.49 266.902 334.5 266.062C337.25 267.692 340.09 269.192 343 270.562C344.29 273.503 345.95 276.172 348 278.562C350.36 287.542 348.86 295.702 343.5 303.062C340.66 305.572 338.16 308.402 336 311.562C333.5 312.643 331.17 313.972 329 315.562C322.33 316.233 315.67 316.233 309 315.562C306.46 313.812 304.12 311.812 302 309.562C301.05 309.083 300.05 308.912 299 309.062C298.14 303.113 297.8 297.113 298 291.062C294.98 291.222 291.98 291.062 289 290.562C288.44 290.183 288.11 289.683 288 289.062C301.58 291.832 313.24 288.502 323 279.062C326.05 274.213 328.72 269.213 331 264.062Z" fill="#EF865D"/>
<path fill-rule="evenodd" clip-rule="evenodd" d="M389 272.062C394.21 274.602 398.55 278.273 402 283.062C392.32 287.963 381.98 290.623 371 291.062C371 290.062 371 289.062 371 288.062C371.97 283.823 373.3 279.822 375 276.062C379.63 274.602 384.3 273.273 389 272.062Z" fill="#E59561"/>
<path fill-rule="evenodd" clip-rule="evenodd" d="M151 284.062C154.17 287.062 157.5 289.892 161 292.562C164.63 295.033 168.63 296.192 173 296.062C178.18 296.733 183.51 297.392 189 298.062C187.72 303.742 185.55 309.082 182.5 314.062C179.45 316.213 176.62 318.713 174 321.562C169.36 322.592 164.7 323.423 160 324.062C153.49 321.642 147.16 318.973 141 316.062C140 314.732 139 313.393 138 312.062C135.76 305.562 134.09 298.903 133 292.062C134.3 286.872 135.96 281.872 138 277.062C139.98 276.212 141.98 275.713 144 275.562C145.28 279.223 147.62 282.053 151 284.062Z" fill="#F2875E"/>
<path fill-rule="evenodd" clip-rule="evenodd" d="M262 296.063C269.49 294.863 272.32 297.863 270.5 305.063C266.87 312.353 261.54 318.023 254.5 322.063C251.68 321.513 248.84 321.013 246 320.563C241.55 317.343 236.55 315.173 231 314.063C226.8 304.753 229.8 301.253 240 303.563C244.18 307.003 248.84 308.673 254 308.563C257.05 304.623 259.72 300.453 262 296.063Z" fill="#110D0A"/>
<path fill-rule="evenodd" clip-rule="evenodd" d="M353 300.063C355.28 306.553 357.94 312.883 361 319.063C364.08 321.713 366.41 321.043 368 317.063C368.4 314.083 369.4 311.423 371 309.063C371.82 311.373 372.65 313.713 373.5 316.063C377.85 320.753 381.85 325.753 385.5 331.063C386.21 334.003 385.71 336.663 384 339.063C381.21 340.353 378.38 340.353 375.5 339.063C373.29 340.673 370.79 341.343 368 341.063C372.2 352.863 368.2 357.523 356 355.063C356.54 358.213 355.54 360.713 353 362.563C347.62 362.873 342.28 363.533 337 364.563C336.4 368.003 334.4 369.833 331 370.063C331.04 372.653 330.04 374.653 328 376.063C328.16 374.363 327.99 372.693 327.5 371.063C325.93 369.953 324.6 368.613 323.5 367.063C319.4 358.783 316.07 350.113 313.5 341.063C312.76 338.003 312.93 335.003 314 332.063C313.5 331.733 313 331.393 312.5 331.063C311.42 331.993 310.26 332.663 309 333.063C311.73 329.533 315.4 327.373 320 326.563C326.19 321.973 332.53 317.633 339 313.563C342.67 309.233 346.33 304.893 350 300.563C350.95 300.083 351.95 299.913 353 300.063Z" fill="#40923E"/>
<path fill-rule="evenodd" clip-rule="evenodd" d="M311.001 371.063C307.101 371.843 304.761 374.173 304.001 378.063C300.291 378.753 296.961 380.253 294.001 382.563C291.901 383.243 289.901 383.073 288.001 382.063C287.531 380.653 286.531 379.993 285.001 380.063C283.141 372.323 280.971 364.653 278.501 357.063C277.831 354.063 277.831 351.063 278.501 348.063C279.991 346.563 281.821 345.723 284.001 345.563C283.671 345.233 283.331 344.893 283.001 344.563C284.621 343.943 285.951 342.943 287.001 341.563C289.811 341.543 292.141 340.543 294.001 338.563C295.971 338.063 297.971 337.903 300.001 338.063C298.641 342.103 298.801 346.103 300.501 350.063C304.541 356.813 308.041 363.813 311.001 371.063Z" fill="#3B8F3D"/>
<path fill-rule="evenodd" clip-rule="evenodd" d="M328 376.062C325.87 377.192 323.54 377.363 321 376.562C318.2 374.962 315.2 373.793 312 373.062C311.64 372.382 311.3 371.712 311 371.062C308.04 363.812 304.54 356.812 300.5 350.062C298.8 346.102 298.64 342.102 300 338.062C297.97 337.903 295.97 338.062 294 338.562C292.14 340.543 289.81 341.543 287 341.562C285.95 342.942 284.62 343.942 283 344.562C283.33 344.893 283.67 345.232 284 345.562C281.82 345.722 279.99 346.562 278.5 348.062C277.83 351.062 277.83 354.062 278.5 357.062C280.97 364.653 283.14 372.323 285 380.062C284.99 381.582 284.32 382.743 283 383.562C279.59 384.562 276.26 385.392 273 386.062C268.52 373.962 264.19 361.632 260 349.062C259.18 348.173 258.18 347.843 257 348.062C256.83 351.412 257 354.743 257.5 358.062C258.5 362.823 260 367.492 262 372.062C260.74 378.012 259.74 384.012 259 390.062C257.57 390.142 256.24 389.812 255 389.062C254.1 374.943 252.44 360.943 250 347.062C250.46 346.262 251.12 345.933 252 346.062C253.08 346.582 254.24 346.912 255.5 347.062C260.54 343.523 265.88 343.182 271.5 346.062C274.11 345.092 276.45 343.763 278.5 342.062C279.87 342.272 281.2 342.602 282.5 343.062C285.95 341.112 289.45 339.273 293 337.562C298.96 337.952 304.29 336.453 309 333.062C310.26 332.662 311.42 331.993 312.5 331.062C313 331.393 313.5 331.732 314 332.062C312.93 335.003 312.76 338.003 313.5 341.062C316.07 350.113 319.4 358.783 323.5 367.062C324.6 368.612 325.93 369.952 327.5 371.062C327.99 372.692 328.16 374.362 328 376.062Z" fill="#4E9A39"/>
<path fill-rule="evenodd" clip-rule="evenodd" d="M96.9997 318.063C97.5397 320.153 98.3797 322.153 99.4997 324.063C102.82 326.223 105.99 328.553 109 331.063C112.2 340.033 109.2 344.033 99.9997 343.063C95.2197 340.613 91.8797 336.953 89.9997 332.063C88.2397 332.203 86.5697 331.873 84.9997 331.063C84.3497 329.383 83.3497 328.043 81.9997 327.063C80.8097 313.573 85.8097 310.573 96.9997 318.063Z" fill="#61A339"/>
<path fill-rule="evenodd" clip-rule="evenodd" d="M81.9998 327.062C83.3498 328.043 84.3498 329.383 84.9998 331.062C86.5698 331.873 88.2398 332.203 89.9998 332.062C91.8798 336.952 95.2198 340.612 99.9998 343.062C101.48 344.033 101.98 345.372 101.5 347.062C99.6698 349.392 97.8298 351.733 95.9998 354.062C87.7298 356.132 84.0598 352.802 84.9998 344.062C80.6198 344.393 76.2798 344.053 71.9998 343.062C65.7398 340.303 63.7398 335.633 65.9998 329.062C70.7498 327.143 75.5898 325.472 80.4998 324.062C80.7298 325.303 81.2298 326.303 81.9998 327.062Z" fill="#ED9A64"/>
<path fill-rule="evenodd" clip-rule="evenodd" d="M138 312.062C139 313.392 140 314.732 141 316.062C141.7 318.282 143.04 320.112 145 321.562C149.38 324.162 154.04 326.162 159 327.562C159.84 328.572 160.17 329.742 160 331.062C162.75 330.752 165.41 331.082 168 332.062C169.15 333.712 170.48 335.212 172 336.562C179.86 337.402 187.52 339.072 195 341.562C199.87 341.812 204.71 342.312 209.5 343.062C211.41 342.112 213.41 341.442 215.5 341.062C222.43 343.222 229.43 345.222 236.5 347.062C241.74 345.192 246.91 344.862 252 346.062C251.12 345.932 250.46 346.262 250 347.062C252.44 360.942 254.1 374.942 255 389.062C256.24 389.812 257.57 390.142 259 390.062C259.74 384.012 260.74 378.012 262 372.062C260 367.492 258.5 362.822 257.5 358.062C257 354.742 256.83 351.412 257 348.062C258.18 347.842 259.18 348.172 260 349.062C264.19 361.632 268.52 373.962 273 386.062C272.7 386.712 272.36 387.382 272 388.062C266.91 388.732 261.91 389.732 257 391.062C254.23 391.182 252.23 390.012 251 387.562C245.36 386.702 239.69 386.032 234 385.562C232.46 384.452 231.8 382.952 232 381.062C228.31 380.502 225.64 381.842 224 385.062C219.4 386.222 214.73 386.882 210 387.062C209.58 386.442 208.92 386.102 208 386.062C205.21 389.082 201.88 389.752 198 388.062C196.69 385.002 194.36 383.672 191 384.062C184.19 390.212 179.19 388.882 176 380.062C172.78 383.972 168.78 384.972 164 383.062C161.07 380.602 160.4 377.602 162 374.062C159.54 373.232 157.04 372.572 154.5 372.062C152.78 373.642 150.94 375.142 149 376.562C147.33 377.232 145.67 377.232 144 376.562C141.95 373.822 140.12 370.992 138.5 368.062C136.42 369.602 134.08 370.602 131.5 371.062C128.55 369.652 125.38 368.812 122 368.562C119.88 364.282 116.88 360.782 113 358.062C113.95 352.752 114.12 347.412 113.5 342.062C114.46 339.182 115.79 336.522 117.5 334.062C119.66 326.742 121.83 319.412 124 312.062C124.59 310.792 125.09 309.462 125.5 308.062C130.4 306.942 134.57 308.282 138 312.062Z" fill="#41923D"/>
<path fill-rule="evenodd" clip-rule="evenodd" d="M313 409.063C308.41 408.533 304.08 407.203 300 405.063C300.11 404.443 300.44 403.943 301 403.563C302.97 403.063 304.97 402.903 307 403.063C307 402.063 307 401.063 307 400.063C308.67 400.063 310.33 400.063 312 400.063C312 398.063 312 396.063 312 394.063C313.64 394.273 315.14 393.943 316.5 393.063C317.2 390.633 317.04 388.303 316 386.063C316.53 384.843 317.19 383.673 318 382.563C319.88 382.343 321.55 381.683 323 380.563C333.24 378.803 337.41 382.973 335.5 393.063C332.86 396.843 330.36 400.673 328 404.563C322.89 406.143 317.89 407.643 313 409.063Z" fill="#EA9A63"/>
<path fill-rule="evenodd" clip-rule="evenodd" d="M304 378.062C306.38 379.793 308.04 382.122 309 385.062C304.97 389.102 300.63 392.763 296 396.062C295 396.062 294 396.062 293 396.062C291.82 391.372 289.82 387.043 287 383.062C287.12 382.452 287.46 382.122 288 382.062C289.9 383.072 291.9 383.243 294 382.562C296.96 380.253 300.29 378.752 304 378.062Z" fill="#EA9962"/>
<path fill-rule="evenodd" clip-rule="evenodd" d="M191 384.062C194.36 383.672 196.69 385.002 198 388.062C201.88 389.752 205.21 389.082 208 386.062C208.92 386.102 209.58 386.442 210 387.062C211.07 387.992 212.4 388.332 214 388.062C213.76 392.402 213.43 396.742 213 401.062C209.05 400.362 205.05 399.862 201 399.562C198.22 397.842 195.22 396.672 192 396.062C191.85 392.042 191.52 388.042 191 384.062Z" fill="#E59961"/>
<path fill-rule="evenodd" clip-rule="evenodd" d="M309 385.062C311.45 384.862 313.78 385.192 316 386.062C317.04 388.302 317.2 390.632 316.5 393.062C315.14 393.942 313.64 394.272 312 394.062C312 396.062 312 398.062 312 400.062C310.33 400.062 308.67 400.062 307 400.062C307 401.062 307 402.062 307 403.062C304.97 402.902 302.97 403.062 301 403.562C300.44 403.942 300.11 404.442 300 405.062C295.97 405.532 293.97 403.692 294 399.562C294.36 398.132 295.03 396.962 296 396.062C300.63 392.762 304.97 389.102 309 385.062Z" fill="#69AA38"/>
<path fill-rule="evenodd" clip-rule="evenodd" d="M187.001 401.062C186.911 402.062 187.251 402.892 188.001 403.562C189.631 404.053 191.301 404.222 193.001 404.062C192.801 405.952 193.461 407.452 195.001 408.562C197.871 408.572 200.541 408.743 203.001 409.062C205.791 410.043 208.791 410.373 212.001 410.062C212.311 412.483 211.971 414.822 211.001 417.062C208.261 418.403 205.591 419.732 203.001 421.062C199.421 420.882 196.091 421.543 193.001 423.062C186.881 423.832 181.221 422.832 176.001 420.062C175.671 419.392 175.331 418.733 175.001 418.062C171.421 406.873 175.421 401.203 187.001 401.062Z" fill="#EC9963"/>
<path fill-rule="evenodd" clip-rule="evenodd" d="M191.999 396.063C195.219 396.673 198.219 397.843 200.999 399.563C205.049 399.863 209.049 400.363 212.999 401.063C214.279 403.563 214.279 406.063 212.999 408.563C209.679 409.063 206.349 409.233 202.999 409.063C200.539 408.743 197.869 408.573 194.999 408.563C193.459 407.453 192.799 405.953 192.999 404.063C191.299 404.223 189.629 404.053 187.999 403.563C187.249 402.893 186.909 402.063 186.999 401.063C186.329 397.063 187.999 395.393 191.999 396.063Z" fill="#70A837"/>
</svg>
