<svg width="500" height="500" viewBox="0 0 500 500" fill="none" xmlns="http://www.w3.org/2000/svg">
<path fill-rule="evenodd" clip-rule="evenodd" d="M388 278.062C375.86 281.742 363.86 285.412 352 289.062C350.3 289.222 348.63 289.052 347 288.562C350 287.562 353 286.562 356 285.562C358.61 281.822 361.78 278.662 365.5 276.062C369.51 268.132 368.84 260.802 363.5 254.062C359.91 251.852 356.41 249.522 353 247.062C355.49 246.022 355.49 245.192 353 244.562C353.83 243.652 354.83 242.982 356 242.562C355.25 241.892 354.91 241.062 355 240.062C356 238.062 357 236.062 358 234.062C359.68 228.882 360.35 223.552 360 218.062C361.05 217.912 362.05 218.082 363 218.562C367.79 223.972 373.79 226.802 381 227.062C385.68 227.062 387.51 224.732 386.5 220.062C383.08 217.772 379.58 215.602 376 213.562C367.9 204.672 357.9 199.172 346 197.062C346 196.392 345.67 196.062 345 196.062C340.29 194.542 335.63 192.712 331 190.562C323.71 189.152 316.38 188.812 309 189.562C305.82 192.012 302.49 194.182 299 196.062C287.71 207.952 283.38 221.952 286 238.062C287.85 252.242 295.85 260.572 310 263.062C310.71 269.362 311.54 275.692 312.5 282.062C320.29 288.972 329.46 292.142 340 291.562C339.08 291.842 338.42 292.342 338 293.062C332.87 294.662 327.87 296.662 323 299.062C320.63 302.262 317.8 304.932 314.5 307.062C312.18 304.312 309.35 302.152 306 300.562C295.65 299.862 285.32 300.022 275 301.062C257.93 300.482 241.26 297.652 225 292.562C218.33 289.562 211.67 286.562 205 283.562C203.79 282.182 202.46 281.022 201 280.062C205.66 278.152 210.32 275.812 215 273.062C218.11 268.172 219.45 262.842 219 257.062C220.88 257.332 222.21 256.662 223 255.062C226.6 252.922 230.27 250.752 234 248.562C236.59 246.472 238.59 243.972 240 241.062C243.74 237.262 246.74 232.922 249 228.062C251.1 220.912 249.93 214.252 245.5 208.062C244.51 204.122 243.84 200.122 243.5 196.062C240.55 192.332 237.05 189.162 233 186.562C227.27 184.892 221.6 183.222 216 181.562C210.15 180.742 204.48 180.912 199 182.062C197.09 181.782 195.42 182.112 194 183.062C188.9 183.752 183.9 184.922 179 186.562C174.88 189.172 170.55 191.342 166 193.062C171.56 172.102 182.56 154.602 199 140.562C206.84 135.812 214.5 130.812 222 125.562C245.77 114.462 270.77 110.462 297 113.562C298.34 121.382 299.84 129.222 301.5 137.062C305.06 142.732 308.06 148.732 310.5 155.062C323.98 174.312 342.15 181.142 365 175.562C371.45 184.612 380.12 187.612 391 184.562C394.06 183.552 397.06 182.382 400 181.062C403.56 188.302 405.39 195.972 405.5 204.062C407.16 221.352 405.83 238.352 401.5 255.062C399.59 257.782 398.26 260.782 397.5 264.062C393.69 268.372 390.53 273.042 388 278.062Z" fill="#A6D381"/>
<path fill-rule="evenodd" clip-rule="evenodd" d="M349 124.063C351.77 126.333 354.44 128.833 357 131.563C364.67 133.003 371.34 136.333 377 141.563C378.44 143.323 379.44 145.323 380 147.563C391.09 151.153 397.75 158.653 400 170.063C398.67 171.063 397.33 172.063 396 173.063C393.02 173.323 391.19 171.993 390.5 169.063C389.78 168.503 388.94 168.173 388 168.063C381.9 169.453 375.9 169.123 370 167.063C368.37 166.623 366.71 166.293 365 166.063C361.4 167.153 357.74 167.823 354 168.063C353.57 163.533 354.57 159.363 357 155.563C359.67 154.893 362.33 154.893 365 155.563C368.19 157.263 371.19 159.263 374 161.563C386.77 162.133 387.1 160.473 375 156.563C371.49 152.373 368.16 148.043 365 143.563C361.3 143.243 357.64 142.743 354 142.063C353.33 142.393 352.67 142.733 352 143.063C351.9 150.413 349.24 156.583 344 161.563C340.67 162.233 337.33 162.233 334 161.563C331.83 159.363 329.16 158.523 326 159.063C324 157.733 322.33 156.063 321 154.063C327.11 151.143 333.11 151.483 339 155.063C340.56 154.843 341.89 154.173 343 153.063C343.26 147.043 344.93 141.543 348 136.563C345.8 132.633 342.46 130.463 338 130.063C338.71 147.033 331.37 152.033 316 145.063C315.1 144.273 314.43 143.273 314 142.063C314 140.733 314 139.393 314 138.063C318.71 137.913 323.38 138.253 328 139.063C328.17 136.703 328.51 134.373 329 132.063C324.54 130.503 320.2 128.333 316 125.563C313.69 125.063 311.36 124.903 309 125.063C308.19 123.533 307.52 121.873 307 120.063C307 119.063 307 118.063 307 117.063C310.68 116.893 314.35 117.063 318 117.563C325.97 120.573 334.3 121.903 343 121.563C344.91 122.683 346.91 123.523 349 124.063Z" fill="#F78893"/>
<path fill-rule="evenodd" clip-rule="evenodd" d="M309 125.063C311.36 124.903 313.69 125.063 316 125.563C320.2 128.333 324.54 130.503 329 132.063C328.51 134.373 328.17 136.703 328 139.063C323.38 138.253 318.71 137.913 314 138.063C314 139.393 314 140.733 314 142.063C310.75 137.013 309.09 131.343 309 125.063Z" fill="#E1A8AB"/>
<path fill-rule="evenodd" clip-rule="evenodd" d="M303 105.063C304 106.243 304.84 107.583 305.5 109.063C305.68 112.923 306.18 116.583 307 120.063C307.52 121.873 308.19 123.533 309 125.063C309.09 131.343 310.75 137.013 314 142.063C314.43 143.273 315.1 144.273 316 145.063C316.91 148.553 318.58 151.553 321 154.063C322.33 156.063 324 157.733 326 159.063C328.58 161.693 331.58 163.863 335 165.563C341.2 167.453 347.53 168.283 354 168.063C357.74 167.823 361.4 167.153 365 166.063C366.71 166.293 368.37 166.623 370 167.063C374.46 175.663 381.46 178.503 391 175.563C392.81 174.803 394.48 173.973 396 173.063C397.33 172.063 398.67 171.063 400 170.063C404.95 169.833 408.12 172.163 409.5 177.063C413.4 189.053 415.23 201.393 415 214.063C415 219.393 415 224.733 415 230.063C413.87 248.623 407.87 265.293 397 280.063C394.62 276.943 391.62 276.273 388 278.063C390.53 273.043 393.69 268.373 397.5 264.063C398.26 260.783 399.59 257.783 401.5 255.063C405.83 238.353 407.16 221.353 405.5 204.063C405.39 195.973 403.56 188.303 400 181.063C397.06 182.383 394.06 183.553 391 184.563C380.12 187.613 371.45 184.613 365 175.563C342.15 181.143 323.98 174.313 310.5 155.063C308.06 148.733 305.06 142.733 301.5 137.063C299.84 129.223 298.34 121.383 297 113.563C270.77 110.463 245.77 114.463 222 125.563C214.5 130.813 206.84 135.813 199 140.563C182.56 154.603 171.56 172.103 166 193.063C162.78 196.033 159.45 199.033 156 202.063C155.35 201.293 155.02 200.293 155 199.063C155.44 196.383 155.94 193.713 156.5 191.063C159.96 183.573 162.96 175.913 165.5 168.063C169.93 160.903 174.93 154.233 180.5 148.063C184.87 140.853 190.71 135.183 198 131.063C198.72 130.013 199.72 129.343 201 129.063C207.45 125.123 213.78 120.953 220 116.563C222 116.233 224 115.893 226 115.563C234.31 111.493 242.97 108.153 252 105.563C269 105.063 286 104.893 303 105.063Z" fill="#5FA74B"/>
<path fill-rule="evenodd" clip-rule="evenodd" d="M321 154.062C318.58 151.553 316.91 148.553 316 145.062C331.37 152.032 338.71 147.032 338 130.062C342.46 130.463 345.8 132.632 348 136.562C344.93 141.543 343.26 147.043 343 153.062C341.89 154.173 340.56 154.843 339 155.062C333.11 151.483 327.11 151.142 321 154.062Z" fill="#E3A7AC"/>
<path fill-rule="evenodd" clip-rule="evenodd" d="M354 168.062C347.53 168.282 341.2 167.452 335 165.562C331.58 163.862 328.58 161.693 326 159.062C329.16 158.522 331.83 159.362 334 161.562C337.33 162.233 340.67 162.233 344 161.562C349.24 156.582 351.9 150.412 352 143.062C352.67 142.732 353.33 142.393 354 142.062C357.64 142.743 361.3 143.243 365 143.562C368.16 148.043 371.49 152.372 375 156.562C387.1 160.473 386.77 162.132 374 161.562C371.19 159.263 368.19 157.263 365 155.562C362.33 154.892 359.67 154.892 357 155.562C354.57 159.362 353.57 163.532 354 168.062Z" fill="#E3A6AB"/>
<path fill-rule="evenodd" clip-rule="evenodd" d="M227 138.062C228.7 138.192 230.2 138.852 231.5 140.062C232.94 139.413 234.44 139.082 236 139.062C236.05 141.152 235.05 142.483 233 143.062C232.03 145.303 231.69 147.642 232 150.062C229 150.393 227.67 149.062 228 146.062C222.71 146.003 221.04 148.332 223 153.062C218.52 150.592 214.52 151.432 211 155.562C211.81 155.873 212.47 156.373 213 157.062C208.18 157.472 204.18 159.473 201 163.062C199.86 161.783 199.86 160.452 201 159.062C202.69 157.533 204.53 156.202 206.5 155.062C206.45 152.622 206.61 150.293 207 148.062C209.64 151.832 212.48 151.832 215.5 148.062C216 146.092 216.16 144.092 216 142.062C217 142.062 218 142.062 219 142.062C219 143.062 219 144.062 219 145.062C221.67 144.892 224 143.893 226 142.062C226.93 140.872 227.26 139.543 227 138.062Z" fill="#B4AA6B"/>
<path fill-rule="evenodd" clip-rule="evenodd" d="M370 167.062C375.9 169.122 381.9 169.452 388 168.062C388.94 168.172 389.78 168.502 390.5 169.062C391.19 171.993 393.02 173.322 396 173.062C394.48 173.973 392.81 174.803 391 175.562C381.46 178.503 374.46 175.663 370 167.062Z" fill="#E1A6A8"/>
<path fill-rule="evenodd" clip-rule="evenodd" d="M199 182.063C204.48 180.913 210.15 180.743 216 181.563C221.6 183.223 227.27 184.893 233 186.563C237.05 189.163 240.55 192.333 243.5 196.063C243.84 200.123 244.51 204.123 245.5 208.063C249.93 214.253 251.1 220.913 249 228.063C249.16 225.373 249 222.713 248.5 220.063C243.55 230.013 236.05 237.183 226 241.563C217.63 242.243 209.3 241.913 201 240.563C194.01 236.733 189.34 231.063 187 223.563C186.32 217.773 186.49 211.933 187.5 206.063C189.86 202.683 191.69 199.013 193 195.063C195.21 192.513 197.54 190.013 200 187.563C204.74 185.013 209.74 183.353 215 182.563C213.37 182.073 211.7 181.903 210 182.063C206.33 182.063 202.67 182.063 199 182.063Z" fill="#335E53"/>
<path fill-rule="evenodd" clip-rule="evenodd" d="M194 183.062C196.11 183.613 196.94 184.953 196.5 187.062C193.75 188.732 190.92 190.232 188 191.562C187.31 192.633 186.81 193.793 186.5 195.062C185.78 194.113 184.95 193.942 184 194.562C181.94 197.072 180.44 199.902 179.5 203.062C177.98 203.723 176.81 204.722 176 206.062C171.45 209.162 167.11 212.503 163 216.062C160.11 216.962 157.11 217.302 154 217.062C151.52 211.773 152.19 206.773 156 202.062C159.45 199.033 162.78 196.033 166 193.062C170.55 191.342 174.88 189.172 179 186.562C183.9 184.923 188.9 183.752 194 183.062Z" fill="#0B100D"/>
<path fill-rule="evenodd" clip-rule="evenodd" d="M230 196.062C233.6 198.002 235.6 201.002 236 205.062C236.39 208.942 235.72 212.612 234 216.062C231.13 219.432 227.8 222.262 224 224.562C221.67 225.232 219.33 225.232 217 224.562C208.68 217.532 207.85 209.692 214.5 201.062C218.56 195.772 223.73 194.112 230 196.062Z" fill="#F5F9F8"/>
<path fill-rule="evenodd" clip-rule="evenodd" d="M346 197.063C357.9 199.173 367.9 204.673 376 213.563C379.58 215.603 383.08 217.773 386.5 220.063C387.51 224.733 385.68 227.063 381 227.063C373.79 226.803 367.79 223.973 363 218.563C362.05 218.083 361.05 217.913 360 218.063C360.35 223.553 359.68 228.883 358 234.063C356.85 235.413 356.18 235.243 356 233.563C357.77 229.543 358.27 225.373 357.5 221.063C355.67 216.233 353.83 211.393 352 206.563C349.3 203.193 346.3 200.193 343 197.563C343.95 197.083 344.95 196.913 346 197.063Z" fill="#090B0B"/>
<path fill-rule="evenodd" clip-rule="evenodd" d="M176 206.063C176.88 205.933 177.54 206.263 178 207.063C174.11 213.263 173.11 219.933 175 227.063C175.66 231.033 176 235.033 176 239.063C174.68 238.893 173.51 239.223 172.5 240.063C171.05 244.633 169.55 248.973 168 253.063C167.33 252.063 166.67 251.063 166 250.063C163.37 238.933 162.37 227.593 163 216.063C167.11 212.503 171.45 209.163 176 206.063Z" fill="#A2D07E"/>
<path fill-rule="evenodd" clip-rule="evenodd" d="M163 216.062C162.37 227.592 163.37 238.932 166 250.062C162.56 250.312 159.23 249.973 156 249.062C154.35 238.493 153.69 227.823 154 217.062C157.11 217.302 160.11 216.962 163 216.062Z" fill="#5FA74B"/>
<path fill-rule="evenodd" clip-rule="evenodd" d="M345 196.063C343.63 195.903 342.29 196.073 341 196.563C342.17 199.743 344.17 202.243 347 204.063C350.66 212.313 351.82 220.983 350.5 230.063C347.87 235.373 345.21 240.703 342.5 246.063C340.33 248.233 338.17 250.393 336 252.563C321.15 258.713 307.49 256.883 295 247.063C289.82 241.283 286.82 234.613 286 227.063C286.6 224.433 287.1 221.773 287.5 219.063C287.44 225.283 288.44 231.283 290.5 237.063C295.55 238.783 299.38 241.943 302 246.563C313.25 252.403 324.59 252.403 336 246.563C340.22 242.223 344.05 237.723 347.5 233.063C352.11 213.693 344.94 201.193 326 195.563C322.64 195.223 319.31 194.723 316 194.063C314.56 194.283 313.23 194.783 312 195.563C312.33 195.893 312.67 196.233 313 196.563C310.02 197.063 307.02 197.223 304 197.063C303.83 198.383 304.16 199.553 305 200.563C304.08 200.843 303.42 201.343 303 202.063C302.67 202.063 302.33 202.063 302 202.063C299.9 202.363 297.9 202.033 296 201.063C297.45 199.623 298.45 197.953 299 196.063C302.49 194.183 305.82 192.013 309 189.563C316.38 188.813 323.71 189.153 331 190.563C335.63 192.713 340.29 194.543 345 196.063Z" fill="#274840"/>
<path fill-rule="evenodd" clip-rule="evenodd" d="M230.001 196.062C223.731 194.112 218.561 195.773 214.501 201.062C207.851 209.693 208.681 217.532 217.001 224.562C219.331 225.233 221.671 225.233 224.001 224.562C227.801 222.263 231.131 219.432 234.001 216.062C235.721 212.612 236.391 208.943 236.001 205.062C237.291 206.403 238.131 208.072 238.501 210.062C238.831 209.062 239.171 208.062 239.501 207.062C239.741 210.783 240.241 214.453 241.001 218.062C239.631 221.253 238.801 224.592 238.501 228.062C237.381 230.182 235.881 232.023 234.001 233.562C221.411 240.812 208.741 240.812 196.001 233.562C189.001 224.783 187.161 214.953 190.501 204.062C193.981 200.912 197.151 197.412 200.001 193.562C204.261 193.192 208.421 192.352 212.501 191.062C215.801 191.272 218.801 192.273 221.501 194.062C225.101 192.212 227.931 192.882 230.001 196.062Z" fill="#40786A"/>
<path fill-rule="evenodd" clip-rule="evenodd" d="M286 227.062C286 230.733 286 234.392 286 238.062C283.38 221.952 287.71 207.953 299 196.062C298.45 197.952 297.45 199.622 296 201.062C297.9 202.033 299.9 202.363 302 202.062C299.92 204.132 298.25 206.473 297 209.062C295.77 211.743 295.77 214.582 297 217.562C296.31 221.213 295.31 224.713 294 228.062C294.32 232.602 295.82 236.602 298.5 240.062C299.4 241.263 300.57 242.093 302 242.562C307.01 243.522 311.84 245.023 316.5 247.062C329.38 246.303 338.04 239.972 342.5 228.062C344.64 219.523 342.14 212.682 335 207.562C330.61 205.692 326.28 203.862 322 202.062C319.79 199.872 317.13 198.532 314 198.062C310.36 199.352 306.69 200.683 303 202.062C303.42 201.342 304.08 200.843 305 200.562C304.16 199.553 303.83 198.383 304 197.062C307.02 197.222 310.02 197.062 313 196.562C312.67 196.232 312.33 195.893 312 195.562C313.23 194.783 314.56 194.282 316 194.062C319.31 194.723 322.64 195.222 326 195.562C344.94 201.193 352.11 213.692 347.5 233.062C344.05 237.722 340.22 242.222 336 246.562C324.59 252.403 313.25 252.403 302 246.562C299.38 241.943 295.55 238.783 290.5 237.062C288.44 231.282 287.44 225.282 287.5 219.062C287.1 221.773 286.6 224.432 286 227.062Z" fill="#376559"/>
<path fill-rule="evenodd" clip-rule="evenodd" d="M322 202.062C326.28 203.862 330.61 205.692 335 207.562C342.14 212.682 344.64 219.523 342.5 228.062C338.04 239.972 329.38 246.303 316.5 247.062C311.84 245.023 307.01 243.522 302 242.562C300.57 242.093 299.4 241.263 298.5 240.062C295.82 236.602 294.32 232.602 294 228.062C295.31 224.713 296.31 221.213 297 217.562C295.77 214.582 295.77 211.743 297 209.062C296.84 211.092 297 213.092 297.5 215.062C299.45 218.013 300.95 221.182 302 224.562C306.39 226.932 311.06 227.602 316 226.562C318.54 222.233 320.71 217.733 322.5 213.062C323.26 209.303 323.09 205.642 322 202.062Z" fill="#447D6F"/>
<path fill-rule="evenodd" clip-rule="evenodd" d="M322 202.062C323.09 205.642 323.26 209.303 322.5 213.062C320.71 217.733 318.54 222.233 316 226.562C311.06 227.602 306.39 226.932 302 224.562C300.95 221.182 299.45 218.013 297.5 215.062C297 213.092 296.84 211.092 297 209.062C298.25 206.473 299.92 204.132 302 202.062C302.33 202.062 302.67 202.062 303 202.062C306.69 200.683 310.36 199.352 314 198.062C317.13 198.532 319.79 199.872 322 202.062Z" fill="#F6F9F9"/>
<path fill-rule="evenodd" clip-rule="evenodd" d="M210 182.062C211.7 181.902 213.37 182.072 215 182.562C209.74 183.352 204.74 185.012 200 187.562C197.54 190.012 195.21 192.512 193 195.062C191.69 199.012 189.86 202.682 187.5 206.062C186.49 211.932 186.32 217.772 187 223.562C189.34 231.062 194.01 236.732 201 240.562C209.3 241.912 217.63 242.242 226 241.562C236.05 237.182 243.55 230.012 248.5 220.062C249 222.712 249.16 225.372 249 228.062C246.74 232.922 243.74 237.262 240 241.062C240.22 239.882 239.89 238.882 239 238.062C232.22 240.492 225.88 243.662 220 247.562C205.06 251.142 193.22 246.642 184.5 234.062C176.9 217.772 179.74 203.612 193 191.562C196 189.232 199 186.892 202 184.562C204.75 183.622 207.42 182.782 210 182.062Z" fill="#24453E"/>
<path fill-rule="evenodd" clip-rule="evenodd" d="M345 196.062C345.67 196.062 346 196.392 346 197.062C344.95 196.912 343.95 197.082 343 197.562C346.3 200.192 349.3 203.192 352 206.562C353.83 211.392 355.67 216.232 357.5 221.062C358.27 225.372 357.77 229.542 356 233.562C356.18 235.242 356.85 235.412 358 234.062C357 236.062 356 238.062 355 240.062C351.36 245.222 347.86 250.552 344.5 256.062C334.22 263.962 322.72 266.292 310 263.062C295.85 260.572 287.85 252.242 286 238.062C286 234.392 286 230.732 286 227.062C286.82 234.612 289.82 241.282 295 247.062C307.49 256.882 321.15 258.712 336 252.562C338.17 250.392 340.33 248.232 342.5 246.062C345.21 240.702 347.87 235.372 350.5 230.062C351.82 220.982 350.66 212.312 347 204.062C344.17 202.242 342.17 199.742 341 196.562C342.29 196.072 343.63 195.902 345 196.062Z" fill="#162925"/>
<path fill-rule="evenodd" clip-rule="evenodd" d="M355 240.062C354.91 241.062 355.25 241.892 356 242.562C354.83 242.982 353.83 243.652 353 244.562C355.49 245.192 355.49 246.023 353 247.062C356.41 249.523 359.91 251.852 363.5 254.062C368.84 260.802 369.51 268.133 365.5 276.062C361.78 278.662 358.61 281.822 356 285.562C353 286.562 350 287.562 347 288.562C348.63 289.053 350.3 289.222 352 289.062C347.3 290.072 342.63 291.403 338 293.062C338.42 292.342 339.08 291.843 340 291.562C329.46 292.142 320.29 288.972 312.5 282.062C311.54 275.693 310.71 269.363 310 263.062C322.72 266.293 334.22 263.963 344.5 256.062C347.86 250.552 351.36 245.222 355 240.062Z" fill="#8EBA80"/>
<path fill-rule="evenodd" clip-rule="evenodd" d="M193.999 183.062C195.419 182.112 197.089 181.782 198.999 182.062C202.669 182.062 206.329 182.062 209.999 182.062C207.419 182.782 204.749 183.622 201.999 184.562C198.999 186.892 195.999 189.232 192.999 191.562C179.739 203.612 176.899 217.772 184.499 234.062C193.219 246.642 205.059 251.142 219.999 247.562C225.879 243.662 232.219 240.492 238.999 238.062C239.889 238.882 240.219 239.882 239.999 241.062C238.589 243.972 236.589 246.472 233.999 248.562C230.269 250.752 226.599 252.922 222.999 255.062C213.409 257.522 203.739 257.692 193.999 255.562C187.459 250.692 181.959 244.852 177.499 238.062C177.389 234.092 176.559 230.432 174.999 227.062C173.109 219.932 174.109 213.262 177.999 207.062C177.539 206.262 176.879 205.932 175.999 206.062C176.809 204.722 177.979 203.722 179.499 203.062C180.439 199.902 181.939 197.072 183.999 194.562C184.949 193.942 185.779 194.112 186.499 195.062C186.809 193.792 187.309 192.632 187.999 191.562C190.919 190.232 193.749 188.732 196.499 187.062C196.939 184.952 196.109 183.612 193.999 183.062Z" fill="#162823"/>
<path fill-rule="evenodd" clip-rule="evenodd" d="M393 233.062C394 233.062 395 233.062 396 233.062C394.74 236.932 394.07 240.932 394 245.062C392.57 245.142 391.24 244.812 390 244.062C389.14 246.332 389.14 248.662 390 251.062C387.59 251.322 385.92 250.322 385 248.062C384.33 248.393 383.67 248.732 383 249.062C382.33 251.392 381.67 253.733 381 256.062C379.83 255.072 378.67 254.072 377.5 253.062C375.07 254.043 372.57 254.713 370 255.062C370 254.062 370 253.062 370 252.062C372.33 251.903 374.49 251.232 376.5 250.062C376.1 247.402 375.27 244.743 374 242.062C374.82 241.173 375.82 240.843 377 241.062C380.11 248.023 382.45 247.693 384 240.062C385.25 242.043 386.75 242.372 388.5 241.062C388.68 239.072 388.51 237.072 388 235.062C390.28 235.482 391.95 234.822 393 233.062Z" fill="#B5A96B"/>
<path fill-rule="evenodd" clip-rule="evenodd" d="M175 227.062C176.56 230.432 177.39 234.092 177.5 238.062C181.96 244.852 187.46 250.693 194 255.562C203.74 257.693 213.41 257.523 223 255.062C222.21 256.663 220.88 257.333 219 257.062C219.45 262.843 218.11 268.173 215 273.062C210.32 275.812 205.66 278.153 201 280.062C187.89 273.622 176.89 264.623 168 253.062C169.55 248.972 171.05 244.633 172.5 240.062C173.51 239.223 174.68 238.892 176 239.062C176 235.032 175.66 231.033 175 227.062Z" fill="#8DB880"/>
<path fill-rule="evenodd" clip-rule="evenodd" d="M284 266.062C290 265.562 292.17 268.232 290.5 274.062C286.67 279.232 282.17 283.732 277 287.562C274.33 288.232 271.67 288.232 269 287.562C262.43 284.692 256.26 281.192 250.5 277.062C249.16 272.232 251 269.902 256 270.062C261.29 270.872 265.96 273.042 270 276.562C271.67 277.232 273.33 277.232 275 276.562C277.84 272.892 280.84 269.392 284 266.062Z" fill="#0B0B08"/>
<path fill-rule="evenodd" clip-rule="evenodd" d="M156 249.062C159.23 249.972 162.56 250.312 166 250.062C166.67 251.062 167.33 252.062 168 253.062C176.89 264.622 187.89 273.622 201 280.062C202.46 281.022 203.79 282.182 205 283.562C211.67 286.562 218.33 289.562 225 292.562C241.26 297.652 257.93 300.482 275 301.062C285.32 300.022 295.65 299.862 306 300.562C309.35 302.152 312.18 304.312 314.5 307.062C317.8 304.932 320.63 302.262 323 299.062C327.87 296.662 332.87 294.662 338 293.062C342.63 291.402 347.3 290.072 352 289.062C363.86 285.412 375.86 281.742 388 278.062C391.62 276.272 394.62 276.942 397 280.062C402.35 287.892 407.02 296.062 411 304.562C407.48 315.412 400.48 323.082 390 327.562C381.55 333.782 372.55 338.952 363 343.062C363.37 348.512 364.37 353.842 366 359.062C366.76 362.712 365.43 365.042 362 366.062C355.7 367.062 349.37 367.392 343 367.062C339.67 367.062 336.33 367.062 333 367.062C329.74 366.082 326.4 365.412 323 365.062C318.93 364.312 314.93 363.312 311 362.062C308.86 360.772 306.53 359.942 304 359.562C303.44 357.882 302.44 356.552 301 355.562C280.57 355.532 260.24 354.362 240 352.062C236.69 351.512 233.36 351.182 230 351.062C226.59 349.922 223.25 348.592 220 347.062C218.75 345.562 217.75 343.892 217 342.062C213.93 337.692 209.93 336.852 205 339.562C204.03 342.632 202.03 343.632 199 342.562C198.09 340.862 197.76 339.032 198 337.062C179.83 331.562 165 321.222 153.5 306.062C153.48 300.742 153.64 295.412 154 290.062C152.03 289.822 150.2 290.152 148.5 291.062C146.78 301.342 145.45 311.672 144.5 322.062C143.67 322.892 142.83 323.732 142 324.562C133.94 326.662 125.94 326.492 118 324.062C108.13 320.702 98.8 316.202 90 310.562C84.95 307.202 83.95 303.032 87 298.062C86.93 296.162 87.27 294.332 88 292.562C97.13 278.812 105.63 264.642 113.5 250.062C115 247.892 116.83 246.062 119 244.562C131.78 243.402 144.12 244.902 156 249.062Z" fill="#AC8E5A"/>
<path fill-rule="evenodd" clip-rule="evenodd" d="M386 285.062C387.64 284.852 389.14 285.182 390.5 286.062C394.73 292.682 398.56 299.522 402 306.562C392.64 316.752 381.64 324.752 369 330.562C367.17 333.502 364.51 334.672 361 334.062C359.36 328.842 358.86 323.512 359.5 318.062C362.73 316.362 365.89 314.532 369 312.562C375.04 306.852 381.37 301.522 388 296.562C385.95 296.242 383.95 296.572 382 297.562C371.39 302.782 361.23 308.612 351.5 315.062C350.67 321.092 350.84 327.092 352 333.062C353.36 341.832 355.03 350.492 357 359.062C342.56 360.332 328.56 358.492 315 353.562C314.42 352.672 314.09 351.672 314 350.562C315.5 344.802 317 338.972 318.5 333.062C324.41 321.062 331.91 310.232 341 300.562C355.06 295.362 369.4 291.032 384 287.562C385.26 287.142 385.92 286.312 386 285.062Z" fill="#C5B196"/>
<path fill-rule="evenodd" clip-rule="evenodd" d="M125 252.062C130.02 252.312 135.02 252.812 140 253.562C146.8 256.053 153.8 257.712 161 258.562C167.67 265.233 174.33 271.892 181 278.562C188.7 281.402 195.37 285.742 201 291.562C202.67 291.893 204.33 292.232 206 292.562C210.25 295.182 214.58 297.523 219 299.562C231.62 302.882 244.29 305.882 257 308.562C262.67 309.002 268.34 309.502 274 310.062C284 309.113 294 308.613 304 308.562C305.82 312.533 308.15 316.203 311 319.562C311.67 320.233 312.33 320.233 313 319.562C314.19 318.212 315.52 317.043 317 316.062C318.08 316.923 318.25 317.923 317.5 319.062C314.36 324.782 311.03 330.452 307.5 336.062C306.87 339.773 305.7 343.273 304 346.562C284.32 346.523 264.66 345.852 245 344.562C238.96 343.582 232.96 342.423 227 341.062C224.21 336.983 221.54 332.812 219 328.562C217.33 328.392 215.67 328.233 214 328.062C210.61 328.322 207.61 329.322 205 331.062C201.36 330.132 197.69 329.293 194 328.562C188.34 324.062 182.34 320.062 176 316.562C171.83 312.052 167.33 307.892 162.5 304.062C163.72 292.462 164.05 280.792 163.5 269.062C162.17 267.732 160.83 267.732 159.5 269.062C158.02 273.262 157.19 277.593 157 282.062C153.54 281.252 150.04 280.592 146.5 280.062C143.91 280.062 141.91 281.062 140.5 283.062C137.56 294.453 135.39 305.953 134 317.562C128.83 318.293 123.83 317.622 119 315.562C111.15 312.973 103.82 309.302 97 304.562C95.81 303.543 94.81 302.372 94 301.062C103.11 283.802 113.45 267.472 125 252.062Z" fill="#C5B196"/>
<path fill-rule="evenodd" clip-rule="evenodd" d="M217 342.062C217.75 343.893 218.75 345.562 220 347.062C216.62 350.122 213.95 353.793 212 358.062C209.74 359.212 207.4 359.373 205 358.562C202.18 355.993 199.18 353.652 196 351.562C190.52 350.533 188.36 352.702 189.5 358.062C193.19 363.963 197.69 369.133 203 373.562C204.33 374.233 205.67 374.233 207 373.562C215.14 366.582 222.81 359.083 230 351.062C233.36 351.182 236.69 351.512 240 352.062C240.15 353.112 239.98 354.113 239.5 355.062C235.11 359.952 230.28 364.283 225 368.062C221.46 374.653 216.46 379.812 210 383.562C208.03 384.062 206.03 384.222 204 384.062C200.63 381.713 197.3 379.382 194 377.062C188.93 372.492 184.77 367.153 181.5 361.062C178.09 352.712 180.59 346.872 189 343.562C192 342.892 195 342.892 198 343.562C200.6 345.033 203.27 346.202 206 347.062C207 346.892 208 346.733 209 346.562C210.52 344.203 212.52 342.372 215 341.062C215.68 341.423 216.35 341.762 217 342.062Z" fill="#5DA74A"/>
<path fill-rule="evenodd" clip-rule="evenodd" d="M220 347.062C223.25 348.592 226.59 349.923 230 351.062C222.81 359.083 215.14 366.582 207 373.562C205.67 374.233 204.33 374.233 203 373.562C197.69 369.133 193.19 363.963 189.5 358.062C188.36 352.702 190.52 350.533 196 351.562C199.18 353.652 202.18 355.993 205 358.562C207.4 359.373 209.74 359.212 212 358.062C213.95 353.793 216.62 350.122 220 347.062Z" fill="#A2D37E"/>
<path fill-rule="evenodd" clip-rule="evenodd" d="M311 362.062C314.93 363.312 318.93 364.312 323 365.062C323.31 367.812 322.98 370.473 322 373.062C319.05 375.453 315.89 377.452 312.5 379.062C310.87 381.523 310.7 384.023 312 386.562C319.69 387.062 327.03 385.562 334 382.062C335.21 376.972 334.88 371.972 333 367.062C336.33 367.062 339.67 367.062 343 367.062C343.88 373.682 344.21 380.352 344 387.062C335.56 392.262 326.23 394.933 316 395.062C309.59 395.642 305.26 392.972 303 387.062C302.68 383.662 303.01 380.332 304 377.062C307.03 373.703 310.03 370.372 313 367.062C311.95 365.503 311.29 363.842 311 362.062Z" fill="#5DA64A"/>
<path fill-rule="evenodd" clip-rule="evenodd" d="M323 365.062C326.4 365.412 329.74 366.082 333 367.062C334.88 371.972 335.21 376.972 334 382.062C327.03 385.562 319.69 387.062 312 386.562C310.7 384.023 310.87 381.523 312.5 379.062C315.89 377.452 319.05 375.453 322 373.062C322.98 370.473 323.31 367.812 323 365.062Z" fill="#A3D27E"/>
</svg>
