<svg width="500" height="500" viewBox="0 0 500 500" fill="none" xmlns="http://www.w3.org/2000/svg">
<path fill-rule="evenodd" clip-rule="evenodd" d="M285 26.0615C291.09 26.7215 293.76 30.2215 293 36.5615C292.92 41.2315 291.08 45.0615 287.5 48.0615C283.73 56.0815 283.06 64.4115 285.5 73.0615C288.92 78.9015 292.58 84.5615 296.5 90.0615C300.22 104.152 296.89 116.152 286.5 126.062C286.31 128.462 285.81 130.792 285 133.062C282.22 129.512 281.39 125.512 282.5 121.062C288.93 112.382 290.93 102.712 288.5 92.0615C274.39 75.0015 273.39 57.3315 285.5 39.0615C286.13 34.6915 285.96 30.3615 285 26.0615Z" fill="#E7CDC0"/>
<path fill-rule="evenodd" clip-rule="evenodd" d="M332 61.0615C333.94 61.5715 334.94 62.9115 335 65.0615C334.36 67.6715 333.2 70.0015 331.5 72.0615C330.83 74.7315 330.83 77.3915 331.5 80.0615C333.49 85.3515 335.49 90.6815 337.5 96.0615C339.64 107.092 336.64 116.422 328.5 124.062C327.71 132.932 325.88 133.092 323 124.562C323.96 119.482 326.12 114.982 329.5 111.062C332.37 101.812 330.7 93.4715 324.5 86.0615C323.1 82.4915 322.76 78.8215 323.5 75.0615C325.59 69.8715 328.42 65.2015 332 61.0615Z" fill="#E6CDC0"/>
<path fill-rule="evenodd" clip-rule="evenodd" d="M248 59.0615C249.33 59.0615 250.67 59.0615 252 59.0615C252.02 63.0315 250.35 66.0315 247 68.0615C241.89 78.7515 243.39 88.4215 251.5 97.0615C261.23 103.842 262.56 112.182 255.5 122.062C255 125.382 254.83 128.712 255 132.062C253.68 132.232 252.51 131.902 251.5 131.062C249.72 129.272 248.88 127.102 249 124.562C249.8 119.192 250.97 114.032 252.5 109.062C246.41 103.292 241.41 96.6215 237.5 89.0615C234.3 76.4615 237.8 66.4615 248 59.0615Z" fill="#E7CDC0"/>
<path fill-rule="evenodd" clip-rule="evenodd" d="M319 443.061C316.21 440.491 313.55 440.491 311 443.061C296.03 444.341 281.03 445.011 266 445.061C263.33 443.441 260.33 442.781 257 443.061C248.6 441.661 240.26 439.491 232 436.561C211.69 427.731 193.69 415.391 178 399.561C178.56 399.181 178.89 398.681 179 398.061C183.78 395.801 185.61 392.131 184.5 387.061C180.55 383.341 176.72 379.501 173 375.561C176.29 371.921 179.96 368.751 184 366.061C184.26 373.781 185.09 381.451 186.5 389.061C188.06 392.341 190.23 395.181 193 397.561C210.62 413.541 230.96 424.541 254 430.561C301.68 437.191 345.68 427.691 386 402.061C386.8 401.601 387.13 400.941 387 400.061C391.22 402.461 395.56 402.631 400 400.561C401.09 398.501 401.26 396.331 400.5 394.061C398.55 392.811 396.72 391.481 395 390.061C400.06 386.771 404.9 383.101 409.5 379.061C410.17 377.391 410.17 375.731 409.5 374.061C406.5 368.911 403.34 363.911 400 359.061C401.32 356.131 401.99 352.801 402 349.061C403.83 317.071 405.5 285.071 407 253.061C406.45 233.301 405.29 213.631 403.5 194.061C393.44 181.361 380.61 172.521 365 167.561C321.46 153.901 277.46 151.901 233 161.561C211.88 166.371 193.05 175.541 176.5 189.061C176.17 190.061 175.83 191.061 175.5 192.061C175.07 202.731 175.23 213.401 176 224.061C175.83 228.061 175.67 232.061 175.5 236.061C175.13 236.981 174.63 237.811 174 238.561C171.68 239.401 169.35 239.731 167 239.561C157.59 233.521 147.59 228.521 137 224.561C129.41 223.101 122.41 224.441 116 228.561C109.22 234.011 103.05 240.171 97.4998 247.061C86.9898 283.521 97.4898 312.351 129 333.561C145.51 342.421 163.18 346.261 182 345.061C184.18 347.401 185.51 350.071 186 353.061C181.71 356.331 177.38 359.671 173 363.061C173 360.731 173 358.391 173 356.061C160.28 356.751 147.95 354.921 136 350.561C126.27 345.441 116.94 339.771 108 333.561C105.5 329.731 102.33 326.561 98.4998 324.061C95.2798 316.861 91.2798 310.191 86.4998 304.061C81.2898 287.851 79.6198 271.191 81.4998 254.061C83.8398 248.681 86.1698 243.351 88.4998 238.061C94.3698 232.531 99.8698 226.701 105 220.561C109.21 217.961 113.54 215.621 118 213.561C122.65 212.901 127.32 212.401 132 212.061C142.35 213.391 152.35 215.731 162 219.061C161.83 208.721 162 198.391 162.5 188.061C164.38 184.151 166.88 180.651 170 177.561C175.02 174.721 179.69 171.381 184 167.561C225.13 146.771 268.79 139.111 315 144.561C341.26 148.261 366.6 154.921 391 164.561C401.62 171.841 410.12 181.011 416.5 192.061C417.53 214.721 418.37 237.391 419 260.061C417.21 294.401 415.37 328.731 413.5 363.061C412.23 374.871 410.23 386.531 407.5 398.061C402.79 405.111 396.63 410.281 389 413.561C376.32 422.401 362.66 429.401 348 434.561C338.27 437.571 328.61 440.401 319 443.061Z" fill="#C5C4C3"/>
<path fill-rule="evenodd" clip-rule="evenodd" d="M400 359.061C397.88 355.771 395.55 352.602 393 349.562C391.39 348.842 389.89 349.012 388.5 350.062C387.83 352.392 387.83 354.732 388.5 357.062C392.25 362.902 395.75 368.902 399 375.062C394.67 379.222 390.17 383.222 385.5 387.062C384.48 391.692 384.98 396.021 387 400.061C387.13 400.941 386.8 401.601 386 402.061C345.68 427.691 301.68 437.191 254 430.561C230.96 424.541 210.62 413.541 193 397.561C190.23 395.181 188.06 392.341 186.5 389.061C185.09 381.451 184.26 373.781 184 366.061C186.9 363.321 189.24 360.162 191 356.562C190.29 354.022 188.63 352.851 186 353.061C185.51 350.071 184.18 347.401 182 345.061C163.18 346.261 145.51 342.421 129 333.561C97.4898 312.351 86.9898 283.521 97.4998 247.061C103.05 240.171 109.22 234.011 116 228.561C122.41 224.441 129.41 223.101 137 224.561C147.59 228.521 157.59 233.521 167 239.561C169.35 239.731 171.68 239.401 174 238.561C174.63 237.811 175.13 236.981 175.5 236.061C175.67 232.061 175.83 228.061 176 224.061C175.23 213.401 175.07 202.731 175.5 192.061C175.83 191.061 176.17 190.061 176.5 189.061C193.05 175.541 211.88 166.371 233 161.561C277.46 151.901 321.46 153.901 365 167.561C380.61 172.521 393.44 181.361 403.5 194.061C405.29 213.631 406.45 233.301 407 253.061C405.5 285.071 403.83 317.071 402 349.061C401.99 352.801 401.32 356.131 400 359.061Z" fill="#FEFEFE"/>
<path fill-rule="evenodd" clip-rule="evenodd" d="M384 191.062C384.17 194.412 384 197.742 383.5 201.062C382.13 202.602 380.63 203.932 379 205.062C378.41 201.952 376.74 199.452 374 197.562C322.86 178.532 271.2 177.202 219 193.562C214.49 194.982 210.49 197.142 207 200.062C203.18 197.432 201.18 193.772 201 189.062C210.54 183.262 220.88 179.092 232 176.562C279.28 165.702 325.95 168.032 372 183.562C376.57 185.332 380.57 187.832 384 191.062Z" fill="#827673"/>
<path fill-rule="evenodd" clip-rule="evenodd" d="M379 205.062C376.8 206.662 374.47 207.991 372 209.061C369.89 208.171 367.89 207.001 366 205.561C327.39 193.791 288.06 190.791 248 196.561C237.34 199.301 227 202.801 217 207.061C213.11 205.501 209.77 203.162 207 200.062C210.49 197.142 214.49 194.982 219 193.562C271.2 177.202 322.86 178.532 374 197.562C376.74 199.452 378.41 201.952 379 205.062Z" fill="#371C11"/>
<path fill-rule="evenodd" clip-rule="evenodd" d="M201 189.062C201.18 193.772 203.18 197.432 207 200.062C209.77 203.162 213.11 205.501 217 207.061C227.05 213.541 238.049 218.042 249.999 220.562C283.509 228.362 316.839 227.692 349.999 218.562C355.379 216.892 360.709 215.232 365.999 213.562C368.249 212.282 370.25 210.781 372 209.061C374.47 207.991 376.8 206.662 379 205.062C380.63 203.932 382.13 202.602 383.5 201.062C384 197.742 384.17 194.412 384 191.062C391.01 195.722 393.509 202.062 391.499 210.062C386.569 214.992 381.069 219.162 374.999 222.562C328.089 241.032 280.419 243.032 231.999 228.562C217.939 223.162 205.439 215.332 194.499 205.062C192.229 197.732 194.4 192.402 201 189.062Z" fill="#C4C3C3"/>
<path fill-rule="evenodd" clip-rule="evenodd" d="M372 209.061C370.25 210.781 368.249 212.282 365.999 213.562C360.709 215.232 355.379 216.892 349.999 218.562C316.839 227.692 283.509 228.362 249.999 220.562C238.049 218.042 227.05 213.541 217 207.061C227 202.801 237.34 199.301 248 196.561C288.06 190.791 327.39 193.791 366 205.561C367.89 207.001 369.89 208.171 372 209.061Z" fill="#5E2F1C"/>
<path fill-rule="evenodd" clip-rule="evenodd" d="M125 248.061C142.17 245.721 157 250.391 169.5 262.061C172.39 282.941 173.73 303.941 173.5 325.061C172.67 325.891 171.83 326.731 171 327.561C167.33 328.231 163.67 328.231 160 327.561C144.2 323.431 131.03 315.261 120.5 303.061C113.15 291.361 110.15 278.691 111.5 265.061C111.87 261.351 113.21 258.021 115.5 255.061C118.57 252.481 121.73 250.141 125 248.061Z" fill="#C5C4C4"/>
<path fill-rule="evenodd" clip-rule="evenodd" d="M129 259.062C140.45 258.232 150.29 261.562 158.5 269.062C160.77 284.342 161.27 299.672 160 315.062C153.88 311.742 147.54 308.912 141 306.562C133.6 299.842 127.77 292.002 123.5 283.062C122.67 276.332 123 269.662 124.5 263.062C125.99 261.642 127.49 260.312 129 259.062Z" fill="#E4B59A"/>
<path fill-rule="evenodd" clip-rule="evenodd" d="M357.999 328.061C345.579 323.081 332.749 319.411 319.499 317.061C317.199 317.051 315.029 317.551 312.999 318.561C310.589 320.521 308.089 322.351 305.499 324.061C296.269 337.611 295.599 351.611 303.499 366.061C315.339 375.681 327.839 376.511 340.999 368.561C348.039 359.021 352.039 348.521 352.999 337.061C354.669 338.231 356.329 339.391 357.999 340.561C361.019 340.661 363.689 341.491 365.999 343.061C367.939 360.511 361.269 373.841 345.999 383.061C341.869 385.361 337.869 387.861 333.999 390.561C293.479 404.931 255.139 400.601 218.999 377.561C211.239 368.361 208.569 357.861 210.999 346.061C212.979 343.411 215.309 341.081 217.999 339.061C217.059 348.521 218.899 357.521 223.499 366.061C230.699 374.731 239.859 377.561 250.999 374.561C262.959 369.121 269.959 359.951 271.999 347.061C272.119 341.631 270.279 336.961 266.499 333.061C265.839 326.061 261.999 321.891 254.999 320.561C246.779 318.011 238.439 317.511 229.999 319.061C229.259 319.191 228.589 319.021 227.999 318.561C236.269 312.091 245.609 307.761 255.999 305.561C278.899 301.821 301.899 301.151 324.999 303.561C340.059 307.751 352.399 315.911 361.999 328.061C360.799 328.851 359.469 328.851 357.999 328.061Z" fill="#FAFAFA"/>
<path fill-rule="evenodd" clip-rule="evenodd" d="M357.999 328.061C358.789 329.351 359.79 330.522 361 331.562C364.41 333.012 367.58 334.852 370.5 337.062C371.49 340.912 369.989 342.911 365.999 343.061C363.689 341.491 361.019 340.661 357.999 340.561C356.329 339.391 354.669 338.231 352.999 337.061C352.039 348.521 348.039 359.021 340.999 368.561C327.839 376.511 315.339 375.681 303.499 366.061C295.599 351.611 296.269 337.611 305.499 324.061C308.089 322.351 310.589 320.521 312.999 318.561C315.029 317.551 317.199 317.051 319.499 317.061C332.749 319.411 345.579 323.081 357.999 328.061Z" fill="#070707"/>
<path fill-rule="evenodd" clip-rule="evenodd" d="M210.999 346.061C208.279 347.681 205.28 348.352 202 348.062C200.93 345.152 200.76 342.152 201.5 339.062C204.92 336.152 207.75 332.812 210 329.062C216.52 325.152 223.189 321.821 229.999 319.061C238.439 317.511 246.779 318.011 254.999 320.561C261.999 321.891 265.839 326.061 266.499 333.061C270.279 336.961 272.119 341.631 271.999 347.061C269.959 359.951 262.959 369.121 250.999 374.561C239.859 377.561 230.699 374.731 223.499 366.061C218.899 357.521 217.059 348.521 217.999 339.061C215.309 341.081 212.979 343.411 210.999 346.061Z" fill="#070707"/>
<path fill-rule="evenodd" clip-rule="evenodd" d="M314 325.061C322.16 324.381 325.66 328.051 324.5 336.061C323.31 343.911 318.81 347.081 311 345.561C308.37 342.771 306.37 339.601 305 336.061C305.55 333.951 306.39 331.951 307.5 330.061C310.06 328.831 312.23 327.171 314 325.061Z" fill="#EEEEEE"/>
<path fill-rule="evenodd" clip-rule="evenodd" d="M250 328.061C259.96 327.601 263.46 332.261 260.5 342.061C256.56 350.411 251.23 351.741 244.5 346.061C241.58 338.521 243.41 332.521 250 328.061Z" fill="#F4F4F4"/>
<path fill-rule="evenodd" clip-rule="evenodd" d="M202 348.062C205.28 348.352 208.279 347.681 210.999 346.061C208.569 357.861 211.239 368.361 218.999 377.561C255.139 400.601 293.479 404.931 333.999 390.561C337.869 387.861 341.869 385.361 345.999 383.061C361.269 373.841 367.939 360.511 365.999 343.061C369.989 342.911 371.49 340.912 370.5 337.062C367.58 334.852 364.41 333.012 361 331.562C359.79 330.522 358.789 329.351 357.999 328.061C359.469 328.851 360.799 328.851 361.999 328.061C352.399 315.911 340.059 307.751 324.999 303.561C301.899 301.151 278.899 301.821 255.999 305.561C245.609 307.761 236.269 312.091 227.999 318.561C228.589 319.021 229.259 319.191 229.999 319.061C223.189 321.821 216.52 325.152 210 329.062C210.38 325.822 211.55 322.821 213.5 320.061C229.83 304.721 249.33 296.551 272 295.561C289 294.891 306 294.891 323 295.561C342.58 299.601 358.08 309.761 369.5 326.061C379.64 348.691 375.47 368.191 357 384.561C341.84 397.291 324.18 403.951 304 404.561C273.82 409.201 245.82 403.531 220 387.561C206.79 377.781 200.79 364.622 202 348.062Z" fill="#EAEAEA"/>
<path fill-rule="evenodd" clip-rule="evenodd" d="M400 359.061C403.34 363.911 406.5 368.911 409.5 374.061C410.17 375.731 410.17 377.391 409.5 379.061C404.9 383.101 400.06 386.771 395 390.061C396.72 391.481 398.55 392.811 400.5 394.061C401.26 396.331 401.09 398.501 400 400.561C395.56 402.631 391.22 402.461 387 400.061C384.98 396.021 384.48 391.692 385.5 387.062C390.17 383.222 394.67 379.222 399 375.062C395.75 368.902 392.25 362.902 388.5 357.062C387.83 354.732 387.83 352.392 388.5 350.062C389.89 349.012 391.39 348.842 393 349.562C395.55 352.602 397.88 355.771 400 359.061Z" fill="#0B0B0B"/>
<path fill-rule="evenodd" clip-rule="evenodd" d="M186 353.061C188.63 352.851 190.29 354.022 191 356.562C189.24 360.162 186.9 363.321 184 366.061C179.96 368.751 176.29 371.921 173 375.561C176.72 379.501 180.55 383.341 184.5 387.061C185.61 392.131 183.78 395.801 179 398.061C176.83 399.311 174.5 400.311 172 401.061C168.45 399.581 167.28 396.911 168.5 393.061C170.62 391.941 172.46 390.441 174 388.561C169.44 384.501 165.44 380.001 162 375.061C164.98 370.421 168.64 366.421 173 363.061C177.38 359.671 181.71 356.331 186 353.061Z" fill="#0B0909"/>
<path fill-rule="evenodd" clip-rule="evenodd" d="M300 377.061C303.36 376.431 305.36 377.771 306 381.061C304.05 386.521 300.72 391.021 296 394.561C288.69 394.151 282.19 391.651 276.5 387.061C275.23 383.331 276.56 381.661 280.5 382.061C283.91 382.511 287.08 383.681 290 385.561C291.33 386.231 292.67 386.231 294 385.561C296.22 382.851 298.22 380.011 300 377.061Z" fill="#141414"/>
<path fill-rule="evenodd" clip-rule="evenodd" d="M319 443.061C319.17 450.071 319.5 457.071 320 464.061C322.35 464.401 324.69 464.901 327 465.561C329.12 467.081 329.45 468.921 328 471.061C325.79 472.591 323.29 473.261 320.5 473.061C318.41 473.021 316.41 472.691 314.5 472.061C311.89 462.661 310.72 452.991 311 443.061C313.55 440.491 316.21 440.491 319 443.061Z" fill="#0C0808"/>
<path fill-rule="evenodd" clip-rule="evenodd" d="M257 443.061C260.33 442.781 263.33 443.441 266 445.061C266.17 452.731 266 460.402 265.5 468.062C262.13 473.412 257.3 475.242 251 473.562C247.13 470.982 247.13 468.312 251 465.562C253 465.232 255 464.892 257 464.562C257.58 463.672 257.91 462.672 258 461.562C257.11 455.432 256.77 449.261 257 443.061Z" fill="#0E0A08"/>
</svg>
