<svg width="500" height="500" viewBox="0 0 500 500" fill="none" xmlns="http://www.w3.org/2000/svg">
<path fill-rule="evenodd" clip-rule="evenodd" d="M237.501 55.5C243.501 55.5 249.501 55.5 255.501 55.5C255.501 55.8333 255.501 56.1667 255.501 56.5C249.643 56.1778 243.976 56.5111 238.501 57.5C237.663 57.1583 237.329 56.4916 237.501 55.5Z" fill="#CE8971"/>
<path fill-rule="evenodd" clip-rule="evenodd" d="M185.499 60.4999C187.342 63.5636 187.842 66.897 186.999 70.4999C185.21 72.2289 183.043 72.8956 180.499 72.4999C179.166 72.1666 177.832 71.8332 176.499 71.4999C175.485 70.3262 174.152 69.6595 172.499 69.4999C173.894 68.3522 173.727 67.3522 171.999 66.4999C171.002 59.167 174.169 56.3337 181.499 57.9999C182.47 59.4812 183.803 60.3145 185.499 60.4999Z" fill="#4B954B"/>
<path fill-rule="evenodd" clip-rule="evenodd" d="M284.5 57.5C290.502 59.1681 296.502 60.8347 302.5 62.5C303.369 64.717 303.702 67.0504 303.5 69.5C302.833 69.1667 302.167 68.8333 301.5 68.5C296.279 65.0142 292.946 66.3475 291.5 72.5C289.281 68.6204 285.948 66.287 281.5 65.5C281.196 64.8501 280.863 64.1835 280.5 63.5C281.304 60.9672 282.637 58.9672 284.5 57.5Z" fill="#91270E"/>
<path fill-rule="evenodd" clip-rule="evenodd" d="M237.5 55.5C237.328 56.4916 237.662 57.1583 238.5 57.5C239.909 59.3049 240.409 61.3049 240 63.5C233.997 68.3372 228.497 73.6705 223.5 79.5C221.328 79.8368 219.495 80.8368 218 82.5C215.346 81.1793 213.346 79.1793 212 76.5C211.617 77.056 211.117 77.3893 210.5 77.5C210.5 76.5 210.5 75.5 210.5 74.5C203.338 73.8476 202.505 75.8476 208 80.5C208.708 79.6195 209.542 78.9528 210.5 78.5C208.542 81.7915 206.209 84.7915 203.5 87.5C199.268 85.6703 195.601 86.337 192.5 89.5C190.638 86.4589 188.305 83.7922 185.5 81.5C184.234 78.2451 182.568 75.2451 180.5 72.5C183.044 72.8957 185.211 72.229 187 70.5C187.843 66.8971 187.343 63.5637 185.5 60.5C187.571 59.0459 189.738 57.7125 192 56.5C193.406 57.4138 194.906 58.0805 196.5 58.5C196.088 60.9726 197.088 62.3059 199.5 62.5C199.196 63.1499 198.863 63.8165 198.5 64.5C200.253 67.0048 201.753 69.6714 203 72.5C206.231 74.0897 208.897 73.4231 211 70.5C212.467 67.7336 214.3 65.2336 216.5 63C215.944 62.6174 215.611 62.1174 215.5 61.5C218.439 61.082 220.772 59.582 222.5 57C221.207 56.51 219.873 56.3433 218.5 56.5C220.292 55.6909 222.292 55.1909 224.5 55C226.385 52.7776 228.551 50.9443 231 49.5C233.384 51.273 235.551 53.273 237.5 55.5Z" fill="#FBC092"/>
<path fill-rule="evenodd" clip-rule="evenodd" d="M218.5 56.5003C219.873 56.3436 221.207 56.5103 222.5 57.0003C220.772 59.5823 218.439 61.0823 215.5 61.5003C210.105 61.2668 204.772 61.6001 199.5 62.5003C197.088 62.3062 196.088 60.9729 196.5 58.5003C203.752 57.4802 211.085 56.8136 218.5 56.5003Z" fill="#942D17"/>
<path fill-rule="evenodd" clip-rule="evenodd" d="M215.5 61.4999C215.611 62.1173 215.944 62.6173 216.5 62.9999C214.3 65.2335 212.467 67.7335 211 70.4999C208.897 73.423 206.231 74.0896 203 72.4999C201.753 69.6713 200.253 67.0047 198.5 64.4999C198.863 63.8164 199.196 63.1498 199.5 62.4999C204.772 61.5997 210.105 61.2664 215.5 61.4999Z" fill="#FDF9F7"/>
<path fill-rule="evenodd" clip-rule="evenodd" d="M284.5 57.5C282.637 58.9672 281.304 60.9672 280.5 63.5C280.863 64.1835 281.196 64.8501 281.5 65.5C280.5 65.5 279.5 65.5 278.5 65.5C277.241 69.0411 276.241 72.7077 275.5 76.5C273.616 77.3816 272.283 78.8816 271.5 81C269.203 81.0178 266.869 80.8511 264.5 80.5C263.895 78.9743 262.729 77.9743 261 77.5C260.465 74.173 260.965 71.0063 262.5 68C261.906 67.5357 261.239 67.369 260.5 67.5C263.478 64.8989 265.478 61.5656 266.5 57.5C262.893 56.5108 259.226 56.1774 255.5 56.5C255.5 56.1667 255.5 55.8333 255.5 55.5C260.784 55.7584 265.95 55.0917 271 53.5C275.626 54.7679 280.126 56.1012 284.5 57.5Z" fill="#FBC093"/>
<path fill-rule="evenodd" clip-rule="evenodd" d="M322.5 72.4996C321.069 72.8803 320.236 73.8803 320 75.4996C319.501 79.4858 319.334 83.4858 319.5 87.4996C318.789 89.201 317.455 90.201 315.5 90.4996C311.971 88.5768 307.971 87.9102 303.5 88.4996C303.5 86.1663 303.5 83.8329 303.5 81.4996C303.5 77.4996 303.5 73.4996 303.5 69.4996C303.702 67.05 303.369 64.7166 302.5 62.4996C307.796 61.4901 313.129 61.3235 318.5 61.9996C319.902 65.4831 321.236 68.9831 322.5 72.4996Z" fill="#FABE91"/>
<path fill-rule="evenodd" clip-rule="evenodd" d="M281.5 65.5C285.948 66.287 289.281 68.6204 291.5 72.5C291.5 72.8333 291.5 73.1667 291.5 73.5C291.5 76.8333 291.5 80.1667 291.5 83.5C290.294 88.2486 288.794 92.9152 287 97.5C281 106.833 275 116.167 269 125.5C267.632 128.738 267.299 132.072 268 135.5C269.71 137.897 271.544 137.897 273.5 135.5C275.208 137.718 277.208 139.884 279.5 142C280.793 142.49 282.127 142.657 283.5 142.5C278.811 148.792 272.478 151.292 264.5 150C258.795 146.426 255.795 141.259 255.5 134.5C255.5 131.833 255.5 129.167 255.5 126.5C256.769 121.957 258.603 117.624 261 113.5C269.519 103.463 275.685 92.1301 279.5 79.5C278.9 77.5323 277.567 76.5323 275.5 76.5C276.241 72.7077 277.241 69.0411 278.5 65.5C279.5 65.5 280.5 65.5 281.5 65.5Z" fill="#FCF8F6"/>
<path fill-rule="evenodd" clip-rule="evenodd" d="M260.5 67.5003C261.239 67.3693 261.906 67.536 262.5 68.0003C260.965 71.0066 260.465 74.1733 261 77.5003C262.729 77.9746 263.895 78.9746 264.5 80.5003C261.473 82.8608 258.806 85.5274 256.5 88.5003C256.662 86.473 256.495 84.473 256 82.5003C254.644 79.6714 253.144 77.0048 251.5 74.5003C254.233 71.7609 257.233 69.4276 260.5 67.5003Z" fill="#F7F3EE"/>
<path fill-rule="evenodd" clip-rule="evenodd" d="M301.5 68.5004C296.475 67.3061 293.142 68.9728 291.5 73.5004C291.5 73.1671 291.5 72.8337 291.5 72.5004C292.946 66.3479 296.279 65.0146 301.5 68.5004Z" fill="#63692E"/>
<path fill-rule="evenodd" clip-rule="evenodd" d="M255.5 56.4998C259.226 56.1772 262.893 56.5106 266.5 57.4998C265.478 61.5654 263.478 64.8987 260.5 67.4998C257.233 69.4271 254.233 71.7604 251.5 74.4998C241.061 72.6218 238.061 76.6218 242.5 86.4998C239.885 88.3786 237.719 90.7119 236 93.4998C235.51 94.7928 235.343 96.1268 235.5 97.4998C228.698 105.135 221.365 112.301 213.5 119C210.661 120.92 207.661 122.587 204.5 124C202.288 124.789 200.288 124.622 198.5 123.5C200.388 120.101 202.888 117.101 206 114.5C206.49 112.455 206.323 110.455 205.5 108.5C210.161 100.517 215.328 92.8499 221 85.4998C222.122 83.593 222.955 81.593 223.5 79.4998C228.497 73.6703 233.997 68.337 240 63.4998C240.409 61.3047 239.909 59.3047 238.5 57.4998C243.975 56.5109 249.642 56.1776 255.5 56.4998Z" fill="#8F210A"/>
<path fill-rule="evenodd" clip-rule="evenodd" d="M301.5 68.4999C302.167 68.8332 302.833 69.1666 303.5 69.4999C303.5 73.4999 303.5 77.4999 303.5 81.4999C301.319 83.0905 298.986 84.4238 296.5 85.4999C294.7 85.0975 293.033 84.4308 291.5 83.4999C291.5 80.1666 291.5 76.8332 291.5 73.4999C293.142 68.9723 296.475 67.3056 301.5 68.4999Z" fill="#489246"/>
<path fill-rule="evenodd" clip-rule="evenodd" d="M176.5 71.5C177.833 71.8333 179.167 72.1667 180.5 72.5C182.568 75.2451 184.234 78.2451 185.5 81.5C180.632 84.4338 175.632 87.1005 170.5 89.5C166.21 90.1111 161.877 90.7777 157.5 91.5C156.261 94.922 154.927 98.255 153.5 101.5C151.045 102.786 149.045 104.62 147.5 107C146.552 107.483 145.552 107.649 144.5 107.5C151.214 92.1121 161.88 80.1121 176.5 71.5Z" fill="#FAF5F1"/>
<path fill-rule="evenodd" clip-rule="evenodd" d="M322.5 72.5C328.464 76.1523 334.464 79.819 340.5 83.5C339.448 85.256 337.781 85.9227 335.5 85.5C329.871 84.0189 324.537 84.6856 319.5 87.5C319.334 83.4862 319.501 79.4862 320 75.5C320.236 73.8807 321.069 72.8807 322.5 72.5Z" fill="#91250C"/>
<path fill-rule="evenodd" clip-rule="evenodd" d="M210.501 77.5002C210.501 77.8335 210.501 78.1669 210.501 78.5002C209.543 78.953 208.709 79.6197 208.001 80.5002C202.506 75.8478 203.339 73.8478 210.501 74.5002C210.501 75.5002 210.501 76.5002 210.501 77.5002Z" fill="#88230D"/>
<path fill-rule="evenodd" clip-rule="evenodd" d="M223.5 79.5C222.955 81.5932 222.122 83.5932 221 85.5C215.328 92.8501 210.161 100.517 205.5 108.5C201.677 106.756 198.01 104.756 194.5 102.5C194.557 101.391 194.89 100.391 195.5 99.5C205.438 100.856 208.105 96.856 203.5 87.5C206.209 84.7915 208.542 81.7915 210.5 78.5C210.5 78.1667 210.5 77.8333 210.5 77.5C211.117 77.3893 211.617 77.056 212 76.5C213.346 79.1793 215.346 81.1793 218 82.5C219.495 80.8368 221.328 79.8368 223.5 79.5Z" fill="#F9F6F1"/>
<path fill-rule="evenodd" clip-rule="evenodd" d="M251.5 74.4998C253.144 77.0043 254.644 79.6709 256 82.4998C256.495 84.4725 256.662 86.4725 256.5 88.4998C255.833 89.4998 255.167 90.4998 254.5 91.4998C252.598 92.5107 250.598 92.6774 248.5 91.9998C246.584 89.9098 244.584 88.0765 242.5 86.4998C238.061 76.6218 241.061 72.6218 251.5 74.4998Z" fill="#4C954B"/>
<path fill-rule="evenodd" clip-rule="evenodd" d="M340.5 83.5C342.389 84.604 344.055 85.9373 345.5 87.5C342.236 86.6758 338.902 86.3424 335.5 86.5C335.5 86.1667 335.5 85.8333 335.5 85.5C337.781 85.9227 339.448 85.256 340.5 83.5Z" fill="#844E2A"/>
<path fill-rule="evenodd" clip-rule="evenodd" d="M275.5 76.5C277.567 76.5323 278.9 77.5323 279.5 79.5C275.685 92.1301 269.519 103.463 261 113.5C258.603 117.624 256.769 121.957 255.5 126.5C254.784 124.444 254.117 122.277 253.5 120C247.87 118.225 242.204 118.058 236.5 119.5C235.094 119.027 234.427 118.027 234.5 116.5C237.959 113.585 240.959 110.252 243.5 106.5C244.117 106.389 244.617 106.056 245 105.5C248.566 108.699 252.4 111.533 256.5 114C257.332 114.688 257.998 114.521 258.5 113.5C260.305 109.39 261.972 105.223 263.5 101C260.315 97.982 257.315 94.815 254.5 91.5C255.167 90.5 255.833 89.5 256.5 88.5C258.806 85.5271 261.473 82.8605 264.5 80.5C266.869 80.8511 269.203 81.0178 271.5 81C272.283 78.8816 273.616 77.3816 275.5 76.5Z" fill="#90250E"/>
<path fill-rule="evenodd" clip-rule="evenodd" d="M345.5 87.5C347.404 87.7376 348.738 88.7376 349.5 90.5C349.784 92.4147 349.451 94.081 348.5 95.5C348.984 92.2118 347.984 89.5452 345.5 87.5Z" fill="#816237"/>
<path fill-rule="evenodd" clip-rule="evenodd" d="M242.5 86.5C244.584 88.0767 246.584 89.91 248.5 92C250.598 92.6776 252.598 92.5109 254.5 91.5C257.315 94.815 260.315 97.982 263.5 101C261.972 105.223 260.305 109.39 258.5 113.5C257.998 114.521 257.332 114.688 256.5 114C252.4 111.533 248.566 108.699 245 105.5C244.617 106.056 244.117 106.389 243.5 106.5C240.913 103.571 238.246 100.571 235.5 97.5C235.343 96.127 235.51 94.793 236 93.5C237.719 90.7121 239.885 88.3788 242.5 86.5Z" fill="#FBBF92"/>
<path fill-rule="evenodd" clip-rule="evenodd" d="M335.501 86.4999C338.903 86.3423 342.237 86.6757 345.501 87.4999C347.985 89.5451 348.985 92.2117 348.501 95.4999C347.648 97.8929 345.982 99.2259 343.501 99.4999C339.895 99.7889 336.395 99.4559 333.001 98.4999C329.124 93.3542 329.957 89.3542 335.501 86.4999Z" fill="#48964B"/>
<path fill-rule="evenodd" clip-rule="evenodd" d="M203.5 87.4999C208.105 96.8559 205.438 100.856 195.5 99.4999C193.307 96.5819 192.307 93.2484 192.5 89.4999C195.601 86.3369 199.268 85.6702 203.5 87.4999Z" fill="#519751"/>
<path fill-rule="evenodd" clip-rule="evenodd" d="M172.5 69.5C174.153 69.6596 175.486 70.3263 176.5 71.5C161.88 80.1121 151.214 92.1121 144.5 107.5C145.552 107.649 146.552 107.483 147.5 107C149.045 104.62 151.045 102.786 153.5 101.5C154.077 108.093 154.911 114.76 156 121.5C160.035 123.442 164.202 123.775 168.5 122.5C170.978 113.807 172.978 104.974 174.5 96C173.733 93.4173 172.399 91.2507 170.5 89.5C175.632 87.1005 180.632 84.4338 185.5 81.5C188.305 83.7922 190.638 86.4589 192.5 89.5C192.307 93.2485 193.307 96.582 195.5 99.5C194.89 100.391 194.557 101.391 194.5 102.5C190.914 104.58 187.747 107.246 185 110.5C181.699 116.269 178.532 122.103 175.5 128C177.808 130.635 180.475 132.968 183.5 135C185.885 135.556 188.218 135.39 190.5 134.5C191.6 135.558 192.934 136.392 194.5 137C204.397 138.644 213.064 136.144 220.5 129.5C222.397 131.269 223.564 133.602 224 136.5C224.893 137.081 225.893 137.415 227 137.5C235.969 135.44 244.969 133.773 254 132.5C254.278 133.416 254.778 134.082 255.5 134.5C255.795 141.259 258.795 146.426 264.5 150C272.478 151.292 278.811 148.792 283.5 142.5C288.543 142.123 291.21 139.457 291.5 134.5C295.47 129.524 299.47 124.524 303.5 119.5C308.813 120.098 314.146 120.431 319.5 120.5C319.223 115.114 318.556 109.781 317.5 104.5C320.521 101.564 324.021 99.231 328 97.5C330.157 98.385 330.99 100.052 330.5 102.5C330.333 113.172 330.5 123.839 331 134.5C331.667 136.5 332.333 138.5 333 140.5C333.383 139.944 333.883 139.611 334.5 139.5C335.783 141.868 337.45 144.035 339.5 146C351.763 151.14 361.929 148.306 370 137.5C370.808 135.421 370.641 133.421 369.5 131.5C363.51 135.831 356.844 137.664 349.5 137C348.058 136.623 347.058 135.79 346.5 134.5C347.833 134.5 349.167 134.5 350.5 134.5C353.049 134.613 355.382 133.946 357.5 132.5C358.663 125.545 359.33 118.545 359.5 111.5C355.087 111.147 350.754 110.314 346.5 109C345.186 108.015 344.186 106.848 343.5 105.5C343.5 103.5 343.5 101.5 343.5 99.5C345.981 99.226 347.647 97.893 348.5 95.5C349.451 94.081 349.784 92.4147 349.5 90.5C355.896 94.057 361.896 98.223 367.5 103C374.368 110.036 381.368 116.869 388.5 123.5C381.98 131.357 376.313 139.857 371.5 149C376.527 154.051 382.527 156.051 389.5 155C392.212 148.404 395.545 142.237 399.5 136.5C403.237 141.424 406.403 146.758 409 152.5C410.866 162.295 413.199 171.962 416 181.5C416.692 186.891 416.359 192.225 415 197.5C413.214 200.736 411.714 204.07 410.5 207.5C406.298 210.361 401.631 211.194 396.5 210C388.906 206.065 381.573 201.732 374.5 197C369.456 196.123 364.789 197.123 360.5 200C355.219 210.281 347.552 218.281 337.5 224C326.599 227.648 315.932 226.981 305.5 222C293.111 212.612 280.445 203.612 267.5 195C263.082 192.961 258.416 191.794 253.5 191.5C245.289 193.847 237.289 196.681 229.5 200C206.306 200.451 184.64 194.784 164.5 183C160.471 182.697 156.471 182.197 152.5 181.5C151.062 181.719 149.729 182.219 148.5 183C139.816 190.843 129.816 196.343 118.5 199.5C113.797 199.563 109.13 199.229 104.5 198.5C97.978 194.791 93.3118 189.457 90.5 182.5C90.5 182.167 90.5 181.833 90.5 181.5C90.701 175.491 91.0343 169.491 91.5 163.5C92.4108 158.165 94.078 153.165 96.5 148.5C95.061 156.868 98.395 160.368 106.5 159C107.823 158.184 108.489 157.017 108.5 155.5C110.174 148.158 107.174 144.158 99.5 143.5C101.234 139.7 103.234 136.034 105.5 132.5C108.145 130.758 111.145 130.091 114.5 130.5C116.607 131.468 118.941 131.802 121.5 131.5C121.5 124.833 121.5 118.167 121.5 111.5C121.733 109.938 122.4 108.605 123.5 107.5C137.797 92.1874 154.131 79.5208 172.5 69.5Z" fill="#902108"/>
<path fill-rule="evenodd" clip-rule="evenodd" d="M170.5 89.5C172.399 91.2507 173.733 93.4173 174.5 96C172.978 104.974 170.978 113.807 168.5 122.5C164.202 123.775 160.035 123.442 156 121.5C154.911 114.76 154.077 108.093 153.5 101.5C154.927 98.255 156.261 94.922 157.5 91.5C161.877 90.7777 166.21 90.1111 170.5 89.5Z" fill="#F9BB8F"/>
<path fill-rule="evenodd" clip-rule="evenodd" d="M303.501 81.5C303.501 83.8333 303.501 86.1667 303.501 88.5C307.972 87.9106 311.972 88.5772 315.501 90.5C309.274 94.055 303.941 98.722 299.501 104.5C297.322 105.103 295.155 105.77 293.001 106.5C291.954 109.466 291.12 112.466 290.501 115.5C287.602 118.952 284.935 122.618 282.501 126.5C276.168 126.167 273.168 129.167 273.501 135.5C271.545 137.897 269.711 137.897 268.001 135.5C267.3 132.072 267.633 128.738 269.001 125.5C275.001 116.167 281.001 106.833 287.001 97.5C288.795 92.9152 290.295 88.2486 291.501 83.5C293.034 84.4309 294.701 85.0976 296.501 85.5C298.987 84.4239 301.32 83.0906 303.501 81.5Z" fill="#8F220C"/>
<path fill-rule="evenodd" clip-rule="evenodd" d="M123.5 107.5C122.4 108.605 121.733 109.938 121.5 111.5C120.51 117.645 120.177 123.978 120.5 130.5C118.5 130.5 116.5 130.5 114.5 130.5C111.145 130.091 108.145 130.758 105.5 132.5C104.414 123.188 104.414 113.855 105.5 104.5C110.844 104.334 116.177 104.501 121.5 105C122.066 105.995 122.733 106.828 123.5 107.5Z" fill="#FDC194"/>
<path fill-rule="evenodd" clip-rule="evenodd" d="M194.5 102.5C198.01 104.756 201.677 106.756 205.5 108.5C206.323 110.455 206.49 112.455 206 114.5C202.888 117.101 200.388 120.101 198.5 123.5C195.067 126.601 192.4 130.268 190.5 134.5C188.218 135.39 185.885 135.556 183.5 135C180.475 132.968 177.808 130.635 175.5 128C178.532 122.103 181.699 116.269 185 110.5C187.747 107.246 190.914 104.58 194.5 102.5Z" fill="#FCBF92"/>
<path fill-rule="evenodd" clip-rule="evenodd" d="M299.5 104.5C305.29 104.721 311.29 104.721 317.5 104.5C318.556 109.781 319.223 115.114 319.5 120.5C314.146 120.431 308.813 120.098 303.5 119.5C300.359 118.679 297.025 118.179 293.5 118C292.627 116.955 291.627 116.122 290.5 115.5C291.119 112.466 291.953 109.466 293 106.5C295.154 105.77 297.321 105.103 299.5 104.5Z" fill="#FCC094"/>
<path fill-rule="evenodd" clip-rule="evenodd" d="M343.499 105.5C344.185 106.848 345.185 108.015 346.499 109C350.753 110.314 355.086 111.147 359.499 111.5C359.329 118.545 358.662 125.545 357.499 132.5C355.381 133.946 353.048 134.613 350.499 134.5C352.085 131.729 352.585 128.729 351.999 125.5C349.359 123.68 346.526 122.346 343.499 121.5C342.445 116.143 342.445 110.81 343.499 105.5Z" fill="#F9BE90"/>
<path fill-rule="evenodd" clip-rule="evenodd" d="M235.5 97.5C238.246 100.571 240.913 103.571 243.5 106.5C240.959 110.252 237.959 113.585 234.5 116.5C226.218 109.722 221.884 111.722 221.5 122.5C221.702 124.95 221.369 127.283 220.5 129.5C213.064 136.144 204.397 138.644 194.5 137C192.934 136.392 191.6 135.558 190.5 134.5C192.4 130.268 195.067 126.601 198.5 123.5C200.288 124.622 202.288 124.789 204.5 124C207.661 122.587 210.661 120.92 213.5 119C221.365 112.301 228.698 105.135 235.5 97.5Z" fill="#FBF7F5"/>
<path fill-rule="evenodd" clip-rule="evenodd" d="M234.5 116.5C234.427 118.027 235.094 119.027 236.5 119.5C237.875 127.276 234.541 130.109 226.5 128C224.598 126.27 222.931 124.437 221.5 122.5C221.884 111.722 226.218 109.722 234.5 116.5Z" fill="#4D974E"/>
<path fill-rule="evenodd" clip-rule="evenodd" d="M290.5 115.5C291.627 116.122 292.627 116.955 293.5 118C297.025 118.179 300.359 118.679 303.5 119.5C299.47 124.524 295.47 129.524 291.5 134.5C288.353 132.078 285.353 129.411 282.5 126.5C284.934 122.618 287.601 118.952 290.5 115.5Z" fill="#F9F5F1"/>
<path fill-rule="evenodd" clip-rule="evenodd" d="M141.5 123.5C138.575 120.648 135.242 119.982 131.5 121.5C131.559 119.278 132.725 118.278 135 118.5C138.455 118.63 140.622 120.296 141.5 123.5Z" fill="#627036"/>
<path fill-rule="evenodd" clip-rule="evenodd" d="M255.5 126.5C255.5 129.167 255.5 131.833 255.5 134.5C254.778 134.082 254.278 133.416 254 132.5C244.969 133.773 235.969 135.44 227 137.5C225.893 137.415 224.893 137.081 224 136.5C223.564 133.602 222.397 131.269 220.5 129.5C221.369 127.283 221.702 124.95 221.5 122.5C222.931 124.437 224.598 126.27 226.5 128C234.541 130.109 237.875 127.276 236.5 119.5C242.204 118.058 247.87 118.225 253.5 120C254.117 122.277 254.784 124.444 255.5 126.5Z" fill="#F9BD90"/>
<path fill-rule="evenodd" clip-rule="evenodd" d="M141.499 123.5C142.621 125.288 142.788 127.288 141.999 129.5C140.413 131.67 139.079 134.004 137.999 136.5C135.107 138.673 131.94 139.006 128.499 137.5C125.417 131.407 126.417 126.074 131.499 121.5C135.241 119.982 138.574 120.648 141.499 123.5Z" fill="#499246"/>
<path fill-rule="evenodd" clip-rule="evenodd" d="M121.5 111.5C121.5 118.167 121.5 124.833 121.5 131.5C118.941 131.802 116.607 131.468 114.5 130.5C116.5 130.5 118.5 130.5 120.5 130.5C120.177 123.978 120.51 117.645 121.5 111.5Z" fill="#D4845E"/>
<path fill-rule="evenodd" clip-rule="evenodd" d="M282.5 126.5C285.353 129.411 288.353 132.078 291.5 134.5C291.21 139.457 288.543 142.123 283.5 142.5C282.127 142.657 280.793 142.49 279.5 142C277.208 139.884 275.208 137.718 273.5 135.5C273.167 129.167 276.167 126.167 282.5 126.5Z" fill="#4A944C"/>
<path fill-rule="evenodd" clip-rule="evenodd" d="M388.5 123.5C390.467 123.261 392.301 123.594 394 124.5C395.037 128.905 396.871 132.905 399.5 136.5C395.545 142.237 392.212 148.404 389.5 155C382.527 156.051 376.527 154.051 371.5 149C376.313 139.857 381.98 131.357 388.5 123.5Z" fill="#FCBF92"/>
<path fill-rule="evenodd" clip-rule="evenodd" d="M330.5 102.5C331.072 114.785 332.405 127.118 334.5 139.5C333.883 139.611 333.383 139.944 333 140.5C332.333 138.5 331.667 136.5 331 134.5C330.5 123.839 330.333 113.172 330.5 102.5Z" fill="#943620"/>
<path fill-rule="evenodd" clip-rule="evenodd" d="M343.5 121.5C346.527 122.346 349.36 123.68 352 125.5C352.586 128.729 352.086 131.729 350.5 134.5C349.167 134.5 347.833 134.5 346.5 134.5C343.482 134.665 340.482 134.498 337.5 134C332.182 130.049 332.182 126.049 337.5 122C339.473 121.505 341.473 121.338 343.5 121.5Z" fill="#4E984F"/>
<path fill-rule="evenodd" clip-rule="evenodd" d="M335.5 85.5004C335.5 85.8337 335.5 86.1671 335.5 86.5004C329.956 89.3547 329.123 93.3547 333 98.5004C336.394 99.4564 339.894 99.7894 343.5 99.5004C343.5 101.5 343.5 103.5 343.5 105.5C342.446 110.81 342.446 116.143 343.5 121.5C341.473 121.338 339.473 121.505 337.5 122C332.182 126.049 332.182 130.049 337.5 134C340.482 134.498 343.482 134.665 346.5 134.5C347.058 135.79 348.058 136.623 349.5 137C356.844 137.664 363.51 135.831 369.5 131.5C370.641 133.421 370.808 135.421 370 137.5C361.929 148.306 351.763 151.14 339.5 146C337.45 144.035 335.783 141.868 334.5 139.5C332.405 127.118 331.072 114.785 330.5 102.5C330.99 100.052 330.157 98.3854 328 97.5004C324.021 99.2314 320.521 101.564 317.5 104.5C311.29 104.721 305.29 104.721 299.5 104.5C303.94 98.7224 309.273 94.0554 315.5 90.5004C317.455 90.2018 318.789 89.2018 319.5 87.5004C324.537 84.686 329.871 84.0193 335.5 85.5004Z" fill="#F9F5F3"/>
<path fill-rule="evenodd" clip-rule="evenodd" d="M145.5 130.5C148.271 130.421 150.937 130.921 153.5 132C158.5 135.833 163.5 139.667 168.5 143.5C169.485 145.098 169.651 146.765 169 148.5C167.731 152.354 165.731 155.688 163 158.5C153.843 155.755 145.51 151.422 138 145.5C139.401 140.031 141.901 135.031 145.5 130.5Z" fill="#FBBE90"/>
<path fill-rule="evenodd" clip-rule="evenodd" d="M310.5 139.5C314.215 139.423 317.881 139.756 321.5 140.5C321.714 144.406 322.381 148.239 323.5 152C323.167 152.5 322.833 153 322.5 153.5C313.573 154.622 304.739 156.289 296 158.5C293.181 154.575 291.014 150.242 289.5 145.5C296.523 143.236 303.523 141.236 310.5 139.5Z" fill="#FBBD90"/>
<path fill-rule="evenodd" clip-rule="evenodd" d="M99.5009 143.5C107.175 144.158 110.175 148.158 108.501 155.5C108.478 153.073 107.978 150.74 107.001 148.5C106.26 147.359 105.426 147.359 104.501 148.5C103.615 147.675 103.282 146.675 103.501 145.5C101.834 145.5 100.168 145.5 98.5009 145.5C98.3289 144.508 98.6629 143.842 99.5009 143.5Z" fill="#5C7F3C"/>
<path fill-rule="evenodd" clip-rule="evenodd" d="M193.501 146.5C198.417 146.691 203.084 147.691 207.501 149.5C208.834 150.5 208.834 151.5 207.501 152.5C206.55 151.674 205.55 151.508 204.501 152C205.381 153.356 205.715 154.856 205.501 156.5C201.501 156.5 197.501 156.5 193.501 156.5C190.901 153.053 190.901 149.72 193.501 146.5Z" fill="#449647"/>
<path fill-rule="evenodd" clip-rule="evenodd" d="M98.4992 145.5C100.166 145.5 101.832 145.5 103.499 145.5C103.28 146.675 103.613 147.675 104.499 148.5C105.424 147.359 106.258 147.359 106.999 148.5C107.976 150.74 108.476 153.073 108.499 155.5C108.488 157.017 107.822 158.184 106.499 159C98.3942 160.368 95.0602 156.868 96.4992 148.5C96.4262 146.973 97.0932 145.973 98.4992 145.5Z" fill="#479547"/>
<path fill-rule="evenodd" clip-rule="evenodd" d="M203.5 159.5C204.5 159.167 205.167 158.5 205.5 157.5C207.587 156.415 208.92 154.749 209.5 152.5C211.905 151.602 213.905 150.102 215.5 148C217.5 147.333 219.5 147.333 221.5 148C224.325 150.124 226.825 152.624 229 155.5C230.289 157.055 230.956 158.721 231 160.5C223.322 166.847 215.655 173.18 208 179.5C203.626 176.627 200.126 172.961 197.5 168.5C198.74 164.939 200.74 161.939 203.5 159.5Z" fill="#FBBE90"/>
<path fill-rule="evenodd" clip-rule="evenodd" d="M209.5 152.5C208.92 154.749 207.587 156.415 205.5 157.5C202.167 157.5 198.833 157.5 195.5 157.5C194.508 157.672 193.842 157.338 193.5 156.5C197.5 156.5 201.5 156.5 205.5 156.5C205.714 154.856 205.38 153.356 204.5 152C205.549 151.508 206.549 151.674 207.5 152.5C208.833 151.5 208.833 150.5 207.5 149.5C203.083 147.691 198.416 146.691 193.5 146.5C193.611 145.883 193.944 145.383 194.5 145C199.53 144.043 204.197 144.877 208.5 147.5C209.452 149.045 209.785 150.712 209.5 152.5Z" fill="#578942"/>
<path fill-rule="evenodd" clip-rule="evenodd" d="M195.5 157.5C198.833 157.5 202.167 157.5 205.5 157.5C205.167 158.5 204.5 159.167 203.5 159.5C200.833 158.833 198.167 158.167 195.5 157.5Z" fill="#80582D"/>
<path fill-rule="evenodd" clip-rule="evenodd" d="M234.5 164.5C239.121 163.993 243.454 164.826 247.5 167C249.991 169.968 250.157 173.135 248 176.5C243.847 179.108 239.68 178.941 235.5 176C232.036 172.397 231.702 168.563 234.5 164.5Z" fill="#4A9245"/>
<path fill-rule="evenodd" clip-rule="evenodd" d="M375.499 163.5C382.326 162.174 385.493 164.84 384.999 171.5C381.154 177.051 375.988 179.218 369.499 178C367.652 175.421 367.152 172.588 367.999 169.5C370.113 166.879 372.613 164.879 375.499 163.5Z" fill="#499243"/>
<path fill-rule="evenodd" clip-rule="evenodd" d="M324.5 176.5C318.833 176.167 316.167 178.833 316.5 184.5C314.853 181.248 315.52 178.414 318.5 176C320.712 175.211 322.712 175.378 324.5 176.5Z" fill="#686631"/>
<path fill-rule="evenodd" clip-rule="evenodd" d="M91.4997 163.5C91.034 169.491 90.7007 175.491 90.4997 181.5C89.1712 175.434 89.5045 169.434 91.4997 163.5Z" fill="#AE5F42"/>
<path fill-rule="evenodd" clip-rule="evenodd" d="M324.5 176.5C331.037 181.43 332.037 187.263 327.5 194C325.5 194.667 323.5 194.667 321.5 194C319.36 191.08 317.694 187.913 316.5 184.5C316.167 178.833 318.833 176.167 324.5 176.5Z" fill="#479347"/>
<path fill-rule="evenodd" clip-rule="evenodd" d="M410.5 207.5C411.657 216.324 411.824 225.324 411 234.5C409.927 242.49 408.927 250.49 408 258.5C402.942 274.672 397.275 290.672 391 306.5C387.748 311.334 384.748 316.334 382 321.5C377.198 326.427 372.865 331.76 369 337.5C364.717 339.619 361.217 342.619 358.5 346.5C357.185 345.524 355.852 344.524 354.5 343.5C359.813 339.355 364.98 335.021 370 330.5C369.223 320.781 365.056 312.615 357.5 306C352.024 304.974 349.857 307.141 351 312.5C354.565 316.394 357.731 320.56 360.5 325C356.292 329.122 351.626 332.788 346.5 336C343.903 339.088 343.069 342.588 344 346.5C345.802 347.789 346.969 349.456 347.5 351.5C344.896 355.128 341.563 357.795 337.5 359.5C331.526 362.488 325.86 365.988 320.5 370C314.208 372.035 308.208 374.535 302.5 377.5C299.743 378.512 297.076 379.512 294.5 380.5C287.908 382.481 281.241 384.148 274.5 385.5C260.5 385.5 246.5 385.5 232.5 385.5C216.437 383.233 200.77 379.567 185.5 374.5C183.887 372.912 181.887 371.912 179.5 371.5C170.593 368.047 161.926 364.047 153.5 359.5C153.047 358.542 152.381 357.708 151.5 357C145.469 353.984 139.469 350.984 133.5 348C131.21 346.223 129.543 344.056 128.5 341.5C128.665 338.482 128.498 335.482 128 332.5C121.488 328.73 114.988 325.064 108.5 321.5C109.951 317.097 111.951 313.097 114.5 309.5C114.343 310.873 114.51 312.207 115 313.5C116.527 311.779 117.527 309.779 118 307.5C121.71 307.823 125.543 307.823 129.5 307.5C132.258 302.13 134.425 296.463 136 290.5C136.232 291.737 136.732 292.737 137.5 293.5C146.055 318.373 163.388 333.373 189.5 338.5C193.545 340.177 197.878 340.844 202.5 340.5C207.833 340.5 213.167 340.5 218.5 340.5C223.217 342.238 228.217 342.904 233.5 342.5C257.625 346.97 281.625 346.47 305.5 341C325.944 334.051 337.944 319.884 341.5 298.5C342.164 296.19 342.497 293.69 342.5 291C342.696 287.195 342.03 283.695 340.5 280.5C339.414 276.721 338.081 273.054 336.5 269.5C336.624 268.893 336.957 268.56 337.5 268.5C343.893 271.219 346.726 269.219 346 262.5C337.755 256.626 329.255 251.126 320.5 246C315.915 245.604 311.581 244.438 307.5 242.5C304.374 240.01 300.708 238.677 296.5 238.5C296.167 238.5 295.833 238.5 295.5 238.5C295.389 237.883 295.056 237.383 294.5 237C288.951 234.726 283.285 232.893 277.5 231.5C273.639 230.136 273.639 228.469 277.5 226.5C278.641 224.579 278.808 222.579 278 220.5C271.88 216.71 266.047 212.543 260.5 208C259.365 207.251 258.365 207.417 257.5 208.5C254.487 211.349 251.82 214.515 249.5 218C248.552 218.483 247.552 218.649 246.5 218.5C246.5 219.833 246.5 221.167 246.5 222.5C245.209 222.263 244.209 222.596 243.5 223.5C239.19 222.92 234.857 222.586 230.5 222.5C223.011 221.344 215.345 221.178 207.5 222C204.203 222.204 201.203 223.037 198.5 224.5C187.831 226.25 177.498 229.083 167.5 233C161.831 235.317 157.164 238.817 153.5 243.5C143.697 248.295 135.697 255.295 129.5 264.5C128.834 267.358 128.167 270.358 127.5 273.5C122.181 272.275 116.848 272.275 111.5 273.5C111.612 278.438 110.945 283.271 109.5 288C110.077 290.137 110.41 292.304 110.5 294.5C111.552 294.351 112.552 294.517 113.5 295C112.263 295.232 111.263 295.732 110.5 296.5C107.261 299.983 104.261 303.65 101.5 307.5C100.278 304.075 98.7785 300.742 97.0005 297.5C92.6441 281.937 88.8108 266.27 85.5005 250.5C84.708 237.85 84.3747 225.183 84.5005 212.5C86.9246 202.631 88.9246 192.631 90.5005 182.5C93.3123 189.457 97.9785 194.791 104.5 198.5C107.017 199.973 109.85 200.64 113 200.5C115.033 200.494 116.866 200.161 118.5 199.5C129.816 196.343 139.816 190.843 148.5 183C149.729 182.219 151.062 181.719 152.5 181.5C156.471 182.197 160.471 182.697 164.5 183C184.64 194.784 206.306 200.451 229.5 200C237.289 196.681 245.289 193.847 253.5 191.5C258.416 191.794 263.082 192.961 267.5 195C280.445 203.612 293.111 212.612 305.5 222C315.932 226.981 326.599 227.648 337.5 224C347.552 218.281 355.219 210.281 360.5 200C364.789 197.123 369.456 196.123 374.5 197C381.573 201.732 388.906 206.065 396.5 210C401.631 211.194 406.298 210.361 410.5 207.5Z" fill="#FBCA66"/>
<path fill-rule="evenodd" clip-rule="evenodd" d="M104.5 198.5C109.13 199.229 113.797 199.563 118.5 199.5C116.866 200.161 115.033 200.494 113 200.5C109.85 200.64 107.017 199.973 104.5 198.5Z" fill="#CA7335"/>
<path fill-rule="evenodd" clip-rule="evenodd" d="M277.5 231.5C266.051 228.803 254.718 226.136 243.5 223.5C244.209 222.596 245.209 222.263 246.5 222.5C246.5 221.167 246.5 219.833 246.5 218.5C247.552 218.649 248.552 218.483 249.5 218C251.82 214.515 254.487 211.349 257.5 208.5C258.365 207.417 259.365 207.251 260.5 208C266.047 212.543 271.88 216.71 278 220.5C278.808 222.579 278.641 224.579 277.5 226.5C273.639 228.469 273.639 230.136 277.5 231.5Z" fill="#F9BE69"/>
<path fill-rule="evenodd" clip-rule="evenodd" d="M114.5 217.5C118.514 217.334 122.514 217.501 126.5 218C127.416 218.374 128.25 218.874 129 219.5C129.311 221.556 129.811 223.556 130.5 225.5C127.94 234.976 126.607 244.643 126.5 254.5C123.09 254.543 119.757 254.043 116.5 253C111.362 249.449 106.695 245.449 102.5 241C104.61 235.947 107.11 231.114 110 226.5C110.333 224.833 110.667 223.167 111 221.5C113.071 220.897 114.238 219.564 114.5 217.5Z" fill="#F9BE65"/>
<path fill-rule="evenodd" clip-rule="evenodd" d="M230.501 222.5C234.858 222.586 239.191 222.92 243.501 223.5C254.719 226.136 266.052 228.803 277.501 231.5C283.286 232.893 288.952 234.726 294.501 237C295.057 237.383 295.39 237.883 295.501 238.5C288.927 236.887 282.26 236.387 275.501 237C272.004 239.583 268.337 241.916 264.501 244C251.968 260.642 250.135 278.476 259.001 297.5C270.115 308.387 283.282 311.887 298.501 308C303.908 305.584 308.408 302.084 312.001 297.5C316.11 289.718 319.777 281.718 323.001 273.5C322.712 269.793 322.879 266.126 323.501 262.5C327.805 265.66 332.472 267.66 337.501 268.5C336.958 268.56 336.625 268.893 336.501 269.5C338.082 273.054 339.415 276.721 340.501 280.5C341.308 286.464 341.641 292.464 341.501 298.5C337.945 319.884 325.945 334.051 305.501 341C281.626 346.47 257.626 346.97 233.501 342.5C228.732 341.111 223.732 340.444 218.501 340.5C213.168 340.5 207.834 340.5 202.501 340.5C198.434 338.946 194.101 338.28 189.501 338.5C163.389 333.373 146.056 318.373 137.501 293.5C136.681 287.203 136.348 280.869 136.501 274.5C142.059 271.284 147.059 267.284 151.501 262.5C151.834 263 152.168 263.5 152.501 264C149.143 277.602 151.81 289.936 160.501 301C172.222 311.757 185.222 313.424 199.501 306C203.917 303.588 207.75 300.422 211.001 296.5C212.585 292.325 214.919 288.659 218.001 285.5C221.886 274.59 220.219 264.59 213.001 255.5C213.108 251.511 211.942 248.011 209.501 245C206.234 242.87 202.901 241.037 199.501 239.5C196.156 237.783 192.49 237.116 188.501 237.5C183.887 236.45 179.221 236.283 174.501 237C167.321 238.672 160.321 240.838 153.501 243.5C157.165 238.817 161.832 235.317 167.501 233C177.499 229.083 187.832 226.25 198.501 224.5C209.105 222.959 219.771 222.293 230.501 222.5Z" fill="#FCFCFB"/>
<path fill-rule="evenodd" clip-rule="evenodd" d="M230.5 222.5C219.77 222.293 209.104 222.959 198.5 224.5C201.203 223.037 204.203 222.204 207.5 222C215.345 221.178 223.011 221.344 230.5 222.5Z" fill="#FDEECA"/>
<path fill-rule="evenodd" clip-rule="evenodd" d="M84.5008 212.5C84.375 225.183 84.7083 237.85 85.5008 250.5C84.0113 243.056 83.3446 235.389 83.5008 227.5C83.5015 222.322 83.8348 217.322 84.5008 212.5Z" fill="#FED48D"/>
<path fill-rule="evenodd" clip-rule="evenodd" d="M361.5 222.5C362.496 222.414 363.329 222.748 364 223.5C364.797 230.55 364.63 237.55 363.5 244.5C360.134 247.683 356.134 249.516 351.5 250C351.833 250.333 352.167 250.667 352.5 251C350.26 251.977 347.927 252.477 345.5 252.5C345.334 245.492 345.5 238.492 346 231.5C350.67 227.261 355.837 224.261 361.5 222.5Z" fill="#FAC360"/>
<path fill-rule="evenodd" clip-rule="evenodd" d="M188.499 237.5C191.973 238.525 195.639 239.192 199.499 239.5C202.899 241.037 206.232 242.87 209.499 245C211.94 248.011 213.106 251.511 212.999 255.5C220.217 264.59 221.884 274.59 217.999 285.5C214.917 288.659 212.583 292.325 210.999 296.5C207.748 300.422 203.915 303.588 199.499 306C185.22 313.424 172.22 311.757 160.499 301C151.808 289.936 149.141 277.602 152.499 264C152.166 263.5 151.832 263 151.499 262.5C147.057 267.284 142.057 271.284 136.499 274.5C134.207 274.756 132.04 274.423 129.999 273.5C129.501 270.518 129.334 267.518 129.499 264.5C135.696 255.295 143.696 248.295 153.499 243.5C160.319 240.838 167.319 238.672 174.499 237C179.219 236.283 183.885 236.45 188.499 237.5Z" fill="#040404"/>
<path fill-rule="evenodd" clip-rule="evenodd" d="M188.5 237.5C192.489 237.116 196.155 237.783 199.5 239.5C195.64 239.192 191.974 238.525 188.5 237.5Z" fill="#A8A8A8"/>
<path fill-rule="evenodd" clip-rule="evenodd" d="M295.5 238.5C295.833 238.5 296.167 238.5 296.5 238.5C299.939 240.204 303.605 241.538 307.5 242.5C311.581 244.438 315.915 245.604 320.5 246C329.255 251.126 337.755 256.626 346 262.5C346.726 269.219 343.893 271.219 337.5 268.5C332.471 267.66 327.804 265.66 323.5 262.5C322.878 266.126 322.711 269.793 323 273.5C319.776 281.718 316.109 289.718 312 297.5C308.407 302.084 303.907 305.584 298.5 308C283.281 311.887 270.114 308.387 259 297.5C250.134 278.476 251.967 260.642 264.5 244C268.336 241.916 272.003 239.583 275.5 237C282.259 236.387 288.926 236.887 295.5 238.5Z" fill="#050505"/>
<path fill-rule="evenodd" clip-rule="evenodd" d="M296.5 238.5C300.708 238.677 304.374 240.01 307.5 242.5C303.605 241.538 299.939 240.204 296.5 238.5Z" fill="#B49C76"/>
<path fill-rule="evenodd" clip-rule="evenodd" d="M274.499 246.5C284.135 245.713 288.302 250.047 286.999 259.5C286.163 271.679 279.997 275.846 268.499 272C266.877 268.751 265.044 265.584 262.999 262.5C262.241 258.671 263.241 255.338 265.999 252.5C269.338 251.092 272.172 249.092 274.499 246.5Z" fill="#F2F2F2"/>
<path fill-rule="evenodd" clip-rule="evenodd" d="M203.5 252.5C203.427 254.027 204.094 255.027 205.5 255.5C207.577 262.878 205.91 269.378 200.5 275C194.226 280.301 189.06 279.468 185 272.5C181.348 266.06 182.014 260.06 187 254.5C191.93 248.724 197.43 248.057 203.5 252.5Z" fill="#F6F6F6"/>
<path fill-rule="evenodd" clip-rule="evenodd" d="M203.5 252.5C204.906 252.973 205.573 253.973 205.5 255.5C204.094 255.027 203.427 254.027 203.5 252.5Z" fill="#7C7C7C"/>
<path fill-rule="evenodd" clip-rule="evenodd" d="M363.5 261.5C366.272 261.595 368.272 262.929 369.5 265.5C371.996 266.58 374.33 267.914 376.5 269.5C372.215 275.786 367.549 281.786 362.5 287.5C360.696 288.768 358.696 289.435 356.5 289.5C356.579 288.07 356.246 286.736 355.5 285.5C358.785 277.686 361.452 269.686 363.5 261.5Z" fill="#F9BD65"/>
<path fill-rule="evenodd" clip-rule="evenodd" d="M129.5 264.5C129.335 267.518 129.502 270.518 130 273.5C132.041 274.423 134.208 274.756 136.5 274.5C136.347 280.869 136.68 287.203 137.5 293.5C136.732 292.737 136.232 291.737 136 290.5C134.425 296.463 132.258 302.13 129.5 307.5C125.543 307.823 121.71 307.823 118 307.5C117.527 309.779 116.527 311.779 115 313.5C114.51 312.207 114.343 310.873 114.5 309.5C115.349 306.965 116.349 304.465 117.5 302C116.161 298.82 113.827 296.986 110.5 296.5C111.263 295.732 112.263 295.232 113.5 295C112.552 294.517 111.552 294.351 110.5 294.5C110.41 292.304 110.077 290.137 109.5 288C110.945 283.271 111.612 278.438 111.5 273.5C116.848 272.275 122.181 272.275 127.5 273.5C128.167 270.358 128.834 267.358 129.5 264.5Z" fill="#F8C261"/>
<path fill-rule="evenodd" clip-rule="evenodd" d="M340.5 280.5C342.03 283.695 342.696 287.195 342.5 291C342.497 293.69 342.164 296.19 341.5 298.5C341.64 292.464 341.307 286.464 340.5 280.5Z" fill="#FDE3AF"/>
<path fill-rule="evenodd" clip-rule="evenodd" d="M110.5 296.5C113.827 296.986 116.161 298.82 117.5 302C116.349 304.465 115.349 306.965 114.5 309.5C111.951 313.097 109.951 317.097 108.5 321.5C114.988 325.064 121.488 328.73 128 332.5C128.498 335.482 128.665 338.482 128.5 341.5C126.4 343.498 124.4 345.665 122.5 348C118.577 348.793 114.744 348.626 111 347.5C110.333 346.167 110.333 344.833 111 343.5C113.303 341.607 115.47 339.607 117.5 337.5C110.737 334.372 104.57 330.372 99 325.5C98.077 323.966 97.577 322.299 97.5 320.5C98.681 316.108 100.014 311.775 101.5 307.5C104.261 303.65 107.261 299.983 110.5 296.5Z" fill="#0E0A07"/>
<path fill-rule="evenodd" clip-rule="evenodd" d="M358.499 346.5C358.819 352.997 355.819 355.164 349.499 353C348.955 352.283 348.288 351.783 347.499 351.5C346.968 349.456 345.801 347.789 343.999 346.5C343.068 342.588 343.902 339.088 346.499 336C351.625 332.788 356.291 329.122 360.499 325C357.73 320.56 354.564 316.394 350.999 312.5C349.856 307.141 352.023 304.974 357.499 306C365.055 312.615 369.222 320.781 369.999 330.5C364.979 335.021 359.812 339.355 354.499 343.5C355.851 344.524 357.184 345.524 358.499 346.5Z" fill="#0E0905"/>
<path fill-rule="evenodd" clip-rule="evenodd" d="M255.501 313.5C261.353 312.63 263.853 314.963 263.001 320.5C259.49 326.342 254.99 331.175 249.501 335C246.407 335.652 243.407 335.318 240.501 334C235.034 331.491 229.868 328.658 225.001 325.5C224.425 321.07 226.425 318.736 231.001 318.5C235.283 319.887 239.45 321.72 243.501 324C244.834 324.667 246.168 324.667 247.501 324C250.384 320.624 253.05 317.124 255.501 313.5Z" fill="#0E0E0E"/>
<path fill-rule="evenodd" clip-rule="evenodd" d="M189.5 338.5C194.1 338.28 198.433 338.946 202.5 340.5C197.878 340.844 193.545 340.177 189.5 338.5Z" fill="#FBE3B0"/>
<path fill-rule="evenodd" clip-rule="evenodd" d="M218.5 340.5C223.731 340.444 228.731 341.111 233.5 342.5C228.217 342.904 223.217 342.238 218.5 340.5Z" fill="#FDEBC3"/>
<path fill-rule="evenodd" clip-rule="evenodd" d="M153.501 359.5C161.927 364.047 170.594 368.047 179.501 371.5C179.142 373.371 178.142 374.871 176.501 376C154.517 393.729 129.517 399.562 101.501 393.5C100.625 390.201 100.458 386.868 101.001 383.5C104.578 380.627 108.412 378.127 112.501 376C120.805 373.873 129.138 371.873 137.501 370C143.552 367.423 148.885 363.923 153.501 359.5Z" fill="#EE3F39"/>
<path fill-rule="evenodd" clip-rule="evenodd" d="M337.499 359.5C347.069 370.555 358.735 378.722 372.499 384C382.06 384.29 390.726 387.123 398.499 392.5C399.999 399.016 397.999 404.016 392.499 407.5C375.614 410.824 358.614 411.324 341.499 409C326.195 403.05 313.029 393.883 301.999 381.5C301.42 380.072 301.587 378.738 302.499 377.5C308.207 374.535 314.207 372.035 320.499 370C325.859 365.988 331.525 362.488 337.499 359.5Z" fill="#EE3F39"/>
<path fill-rule="evenodd" clip-rule="evenodd" d="M185.5 374.5C200.77 379.567 216.437 383.233 232.5 385.5C246.507 388.034 260.507 388.034 274.5 385.5C281.241 384.148 287.908 382.481 294.5 380.5C295.496 380.414 296.329 380.748 297 381.5C299.161 385.638 301.327 389.638 303.5 393.5C306.194 396.86 309.194 399.86 312.5 402.5C314.607 404.727 316.94 406.727 319.5 408.5C322.78 410.692 326.113 412.692 329.5 414.5C332.594 415.883 335.594 417.55 338.5 419.5C342.299 420.066 345.632 421.733 348.5 424.5C353.595 428.969 353.595 433.635 348.5 438.5C337.139 442.502 324.806 443.335 311.5 441C287.698 432.221 266.698 418.888 248.5 401C246.922 399.906 245.255 399.072 243.5 398.5C241.304 394.687 238.637 394.02 235.5 396.5C224.609 405.553 213.276 414.053 201.5 422C194.167 424.333 186.833 426.667 179.5 429C174.844 429.942 170.177 430.775 165.5 431.5C152.59 430.43 139.923 428.43 127.5 425.5C122.946 423.113 119.612 419.613 117.5 415C117.582 410.425 119.915 408.592 124.5 409.5C128.167 409.5 131.833 409.5 135.5 409.5C137.698 409.125 139.698 408.458 141.5 407.5C145.116 407.101 148.45 406.101 151.5 404.5C153.938 402.733 156.605 401.4 159.5 400.5C162.473 398.853 165.14 396.853 167.5 394.5C168.167 394.167 168.833 393.833 169.5 393.5C171.814 391.523 174.147 389.523 176.5 387.5C179.138 382.871 182.138 378.538 185.5 374.5Z" fill="#EE3E38"/>
<path fill-rule="evenodd" clip-rule="evenodd" d="M232.5 385.5C246.5 385.5 260.5 385.5 274.5 385.5C260.507 388.034 246.507 388.034 232.5 385.5Z" fill="#FBA65A"/>
<path fill-rule="evenodd" clip-rule="evenodd" d="M179.5 371.5C181.887 371.912 183.887 372.912 185.5 374.5C182.138 378.538 179.138 382.871 176.5 387.5C174.147 389.523 171.814 391.523 169.5 393.5C169.343 392.127 169.51 390.793 170 389.5C177.139 385.956 176.639 385.122 168.5 387C166.502 389.439 166.169 391.939 167.5 394.5C165.14 396.853 162.473 398.853 159.5 400.5C159.67 399.178 159.337 398.011 158.5 397C155.833 396.333 153.167 396.333 150.5 397C146.185 400.522 146.518 403.022 151.5 404.5C148.45 406.101 145.116 407.101 141.5 407.5C140.624 402.639 137.624 400.306 132.5 400.5C128.35 400.984 126.35 403.317 126.5 407.5C125.5 407.5 124.5 407.5 123.5 407.5C122.737 406.732 121.737 406.232 120.5 406C122.516 401.156 120.849 398.322 115.5 397.5C112.457 398.472 110.79 400.472 110.5 403.5C106.868 400.861 103.868 397.528 101.5 393.5C129.516 399.562 154.516 393.729 176.5 376C178.141 374.871 179.141 373.371 179.5 371.5Z" fill="#FC7463"/>
<path fill-rule="evenodd" clip-rule="evenodd" d="M169.5 393.5C168.833 393.833 168.167 394.167 167.5 394.5C166.169 391.939 166.502 389.439 168.5 387C176.639 385.122 177.139 385.956 170 389.5C169.51 390.793 169.343 392.127 169.5 393.5Z" fill="#FF9A8B"/>
<path fill-rule="evenodd" clip-rule="evenodd" d="M312.499 402.5C309.193 399.86 306.193 396.86 303.499 393.5C303.469 392.503 303.969 391.836 304.999 391.5C309.77 392.607 312.936 395.44 314.499 400C314.315 401.376 313.648 402.209 312.499 402.5Z" fill="#FD9A87"/>
<path fill-rule="evenodd" clip-rule="evenodd" d="M159.5 400.5C156.605 401.4 153.938 402.733 151.5 404.5C146.518 403.022 146.185 400.522 150.5 397C153.167 396.333 155.833 396.333 158.5 397C159.337 398.011 159.67 399.178 159.5 400.5Z" fill="#FD9380"/>
<path fill-rule="evenodd" clip-rule="evenodd" d="M141.5 407.5C139.567 407.271 137.9 406.438 136.5 405C134.527 404.505 132.527 404.338 130.5 404.5C130.5 405.5 130.5 406.5 130.5 407.5C132.781 407.077 134.448 407.744 135.5 409.5C131.833 409.5 128.167 409.5 124.5 409.5C124.167 408.833 123.833 408.167 123.5 407.5C124.5 407.5 125.5 407.5 126.5 407.5C126.35 403.317 128.35 400.984 132.5 400.5C137.624 400.306 140.624 402.639 141.5 407.5Z" fill="#FE9B8A"/>
<path fill-rule="evenodd" clip-rule="evenodd" d="M123.5 407.5C118.635 407.408 114.301 406.075 110.5 403.5C110.79 400.472 112.457 398.472 115.5 397.5C120.849 398.322 122.516 401.156 120.5 406C121.737 406.232 122.737 406.732 123.5 407.5Z" fill="#FD9786"/>
<path fill-rule="evenodd" clip-rule="evenodd" d="M141.5 407.5C139.698 408.458 137.698 409.125 135.5 409.5C134.448 407.744 132.781 407.077 130.5 407.5C130.5 406.5 130.5 405.5 130.5 404.5C132.527 404.338 134.527 404.505 136.5 405C137.9 406.438 139.567 407.271 141.5 407.5Z" fill="#FB796A"/>
<path fill-rule="evenodd" clip-rule="evenodd" d="M329.5 414.5C326.113 412.692 322.78 410.692 319.5 408.5C323.874 405.721 328.041 406.388 332 410.5C332.49 411.793 332.657 413.127 332.5 414.5C331.5 414.5 330.5 414.5 329.5 414.5Z" fill="#FE9887"/>
<path fill-rule="evenodd" clip-rule="evenodd" d="M302.5 377.5C301.588 378.738 301.421 380.072 302 381.5C313.03 393.883 326.196 403.05 341.5 409C358.615 411.324 375.615 410.824 392.5 407.5C385.968 414.434 377.968 418.768 368.5 420.5C365.399 417.433 361.732 416.767 357.5 418.5C356.614 419.325 356.281 420.325 356.5 421.5C354.473 421.662 352.473 421.495 350.5 421C348.029 416.323 344.362 414.823 339.5 416.5C338.873 417.417 338.539 418.417 338.5 419.5C335.594 417.55 332.594 415.883 329.5 414.5C330.5 414.5 331.5 414.5 332.5 414.5C332.657 413.127 332.49 411.793 332 410.5C328.041 406.388 323.874 405.721 319.5 408.5C316.94 406.727 314.607 404.727 312.5 402.5C313.649 402.209 314.316 401.376 314.5 400C312.937 395.44 309.771 392.607 305 391.5C303.97 391.836 303.47 392.503 303.5 393.5C301.327 389.638 299.161 385.638 297 381.5C296.329 380.748 295.496 380.414 294.5 380.5C297.076 379.512 299.743 378.512 302.5 377.5Z" fill="#FD7463"/>
<path fill-rule="evenodd" clip-rule="evenodd" d="M260.5 423.5C255.748 421.083 252.415 417.417 250.5 412.5C256.631 411.104 260.298 413.604 261.5 420C261.352 421.256 261.018 422.423 260.5 423.5Z" fill="#FD9D8C"/>
<path fill-rule="evenodd" clip-rule="evenodd" d="M223.501 417.5C221.055 422.284 217.388 425.617 212.501 427.5C212.289 419.936 215.956 416.602 223.501 417.5Z" fill="#FD9C8D"/>
<path fill-rule="evenodd" clip-rule="evenodd" d="M368.5 420.5C363.787 423.815 358.62 424.482 353 422.5C351.014 422.569 349.514 423.235 348.5 424.5C345.632 421.733 342.299 420.066 338.5 419.5C338.539 418.417 338.873 417.417 339.5 416.5C344.362 414.823 348.029 416.323 350.5 421C352.473 421.495 354.473 421.662 356.5 421.5C356.281 420.325 356.614 419.325 357.5 418.5C361.732 416.767 365.399 417.433 368.5 420.5Z" fill="#FD9C8C"/>
<path fill-rule="evenodd" clip-rule="evenodd" d="M235.5 396.5C233.361 404.604 229.361 411.604 223.5 417.5C215.955 416.602 212.288 419.936 212.5 427.5C210.589 428.075 208.922 429.075 207.5 430.5C199.492 426.673 194.492 429.006 192.5 437.5C190.901 437.232 189.568 437.566 188.5 438.5C187.5 438.5 186.5 438.5 185.5 438.5C183.425 432.857 180.259 432.19 176 436.5C175.517 437.448 175.351 438.448 175.5 439.5C173.5 439.5 171.5 439.5 169.5 439.5C168.922 436.419 167.089 434.419 164 433.5C160.92 434.006 158.42 435.339 156.5 437.5C154.708 437.634 153.042 437.301 151.5 436.5C149.105 432.218 145.605 430.884 141 432.5C139.594 431.586 138.094 430.92 136.5 430.5C133.008 429.59 130.008 427.924 127.5 425.5C139.923 428.43 152.59 430.43 165.5 431.5C170.177 430.775 174.844 429.942 179.5 429C186.833 426.667 194.167 424.333 201.5 422C213.276 414.053 224.609 405.553 235.5 396.5Z" fill="#FC7464"/>
<path fill-rule="evenodd" clip-rule="evenodd" d="M136.5 430.5C138.094 430.92 139.594 431.586 141 432.5C145.605 430.884 149.105 432.218 151.5 436.5C145.467 436.828 140.467 434.828 136.5 430.5Z" fill="#FCA38E"/>
<path fill-rule="evenodd" clip-rule="evenodd" d="M279.5 437.5C272.916 436.925 268.249 433.591 265.5 427.5C271.02 425.371 275.52 426.704 279 431.5C279.495 433.473 279.662 435.473 279.5 437.5Z" fill="#FD9D8C"/>
<path fill-rule="evenodd" clip-rule="evenodd" d="M207.5 430.5C204.659 433.173 201.659 435.673 198.5 438C195.183 438.498 191.85 438.665 188.5 438.5C189.568 437.566 190.901 437.232 192.5 437.5C194.492 429.006 199.492 426.673 207.5 430.5Z" fill="#FD9D8B"/>
<path fill-rule="evenodd" clip-rule="evenodd" d="M185.5 438.5C183.978 440.333 181.978 441.333 179.5 441.5C174.824 440.239 170.158 440.239 165.5 441.5C163.5 441 161.5 440.5 159.5 440C158.058 439.623 157.058 438.79 156.5 437.5C158.42 435.339 160.92 434.006 164 433.5C167.089 434.419 168.922 436.419 169.5 439.5C171.5 439.5 173.5 439.5 175.5 439.5C175.351 438.448 175.517 437.448 176 436.5C180.259 432.19 183.425 432.857 185.5 438.5Z" fill="#FD9F8D"/>
<path fill-rule="evenodd" clip-rule="evenodd" d="M243.5 398.5C245.255 399.072 246.922 399.906 248.5 401C266.698 418.888 287.698 432.221 311.5 441C324.806 443.335 337.139 442.502 348.5 438.5C348.047 439.458 347.381 440.292 346.5 441C343.505 442.498 340.505 443.998 337.5 445.5C333.083 445.271 329.083 446.271 325.5 448.5C324.5 448.5 323.5 448.5 322.5 448.5C319.97 446.408 316.97 445.074 313.5 444.5C310.397 444.202 308.73 445.535 308.5 448.5C307.5 448.5 306.5 448.5 305.5 448.5C303.283 447.631 300.95 447.298 298.5 447.5C300.511 441.66 298.345 438.66 292 438.5C289.624 438.685 287.791 439.685 286.5 441.5C283.669 440.921 281.336 439.588 279.5 437.5C279.662 435.473 279.495 433.473 279 431.5C275.52 426.704 271.02 425.371 265.5 427.5C263.246 426.876 261.579 425.543 260.5 423.5C261.018 422.423 261.352 421.256 261.5 420C260.298 413.604 256.631 411.104 250.5 412.5C247.653 408.14 245.32 403.473 243.5 398.5Z" fill="#FC7465"/>
<path fill-rule="evenodd" clip-rule="evenodd" d="M298.5 447.5C293.65 447.075 289.65 445.075 286.5 441.5C287.791 439.685 289.624 438.685 292 438.5C298.345 438.66 300.511 441.66 298.5 447.5Z" fill="#FD9F8E"/>
<path fill-rule="evenodd" clip-rule="evenodd" d="M322.5 448.5C319.224 449.283 315.891 450.283 312.5 451.5C309.824 451.061 307.491 450.061 305.5 448.5C306.5 448.5 307.5 448.5 308.5 448.5C308.73 445.535 310.397 444.202 313.5 444.5C316.97 445.074 319.97 446.408 322.5 448.5Z" fill="#FD9E8E"/>
<path fill-rule="evenodd" clip-rule="evenodd" d="M337.5 445.5C337.196 446.15 336.863 446.817 336.5 447.5C332.893 448.489 329.226 448.823 325.5 448.5C329.083 446.271 333.083 445.271 337.5 445.5Z" fill="#FCA18F"/>
</svg>
