<svg width="500" height="500" viewBox="0 0 500 500" fill="none" xmlns="http://www.w3.org/2000/svg">
<path fill-rule="evenodd" clip-rule="evenodd" d="M374.5 353C385.669 345.245 397.336 338.245 409.5 332C420.15 326.024 429.65 318.524 438 309.5C443 302.167 448 294.833 453 287.5C456.021 277.774 459.021 268.107 462 258.5C463.081 253.53 463.414 248.53 463 243.5C461.233 235.972 458.9 228.638 456 221.5C449.834 210.497 443.167 199.83 436 189.5C421.802 169.633 404.135 153.633 383 141.5C380.571 134.637 377.571 127.97 374 121.5C359.721 99.7796 340.221 84.9466 315.5 76.9996C278.106 72.1779 240.773 72.5112 203.5 77.9996C194.833 80.9996 186.167 83.9996 177.5 86.9996C169.025 91.4746 162.525 97.9746 158 106.5C157.333 111.167 157.333 115.833 158 120.5C160.656 125.635 162.823 130.968 164.5 136.5C155.952 140.107 147.619 144.274 139.5 149C134.901 151.329 130.235 151.662 125.5 150C117.1 142.593 108.434 135.593 99.4999 129C88.1527 125.704 76.8193 125.704 65.4999 129C60.5697 133.651 55.7364 138.484 50.9999 143.5C49.984 147.921 48.6507 152.255 46.9999 156.5C45.9174 175.942 46.9174 195.276 49.9999 214.5C52.478 223.662 53.1447 232.995 51.9999 242.5C45.0417 262.045 39.7084 282.045 35.9999 302.5C35.5009 315.363 41.0009 324.863 52.4999 331C61.2492 334.193 70.2492 335.193 79.4999 334C100.909 328.464 119.909 318.464 136.5 304C137.5 303.333 138.5 303.333 139.5 304C145.509 309.862 150.676 316.362 155 323.5C157.908 341.219 165.242 356.885 177 370.5C182.245 374.753 187.745 378.586 193.5 382C201.56 383.746 209.56 385.746 217.5 388C227.482 388.916 237.482 389.416 247.5 389.5C251.842 389.261 256.176 388.927 260.5 388.5C266.564 386.229 272.897 384.395 279.5 383C288.518 379.158 297.185 374.824 305.5 370C309.486 369.501 313.486 369.334 317.5 369.5L318.5 368.5C323.066 367.193 327.733 366.526 332.5 366.5C346.857 363.549 360.857 359.049 374.5 353Z" fill="#D68958"/>
<path fill-rule="evenodd" clip-rule="evenodd" d="M438.5 282.5C431.678 279.559 424.678 277.226 417.5 275.5C416.047 265.848 411.547 263.848 404 269.5C403.726 272.715 402.393 275.381 400 277.5C397.694 283.344 398.027 289.011 401 294.5C403.838 295.675 406.671 295.509 409.5 294C409.833 293 410.167 292 410.5 291C412.218 290.654 413.885 290.154 415.5 289.5C420.49 291.551 425.49 293.217 430.5 294.5C425.699 299.472 421.032 304.638 416.5 310C408.522 315.321 400.855 320.987 393.5 327C386.248 330.124 379.082 333.624 372 337.5C371.536 336.906 371.369 336.239 371.5 335.5C373.771 333.734 375.937 331.734 378 329.5C382.587 321.996 386.92 314.329 391 306.5C391.922 298.91 388.756 296.41 381.5 299C376.602 306.238 372.102 313.738 368 321.5C367.223 323.215 365.89 324.215 364 324.5C358.658 322.245 353.491 319.578 348.5 316.5C347.571 315.311 347.238 313.978 347.5 312.5C371.806 300.462 382.473 280.795 379.5 253.5C379.238 252.022 379.571 250.689 380.5 249.5C382.507 248.829 384.34 247.829 386 246.5C396.762 252.904 407.596 253.071 418.5 247C423.242 242.257 426.242 236.591 427.5 230C426.191 219.881 421.858 211.381 414.5 204.5C399.771 198.217 388.938 202.217 382 216.5C381.301 220.717 380.468 224.884 379.5 229C379.36 232.385 380.36 235.385 382.5 238C381.906 238.464 381.239 238.631 380.5 238.5C374.486 236.165 369.152 232.831 364.5 228.5C362.192 226.529 359.858 224.529 357.5 222.5C356.793 220.866 355.627 219.532 354 218.5C353.333 215.5 353.333 212.5 354 209.5C356.101 202.428 359.101 195.761 363 189.5C364.036 183.43 367.036 178.43 372 174.5C373.031 171.317 372.365 168.651 370 166.5C366.545 165.45 363.045 165.283 359.5 166C357.379 169.123 354.879 171.957 352 174.5C351.054 180.726 348.721 186.393 345 191.5C342.425 198.947 340.925 206.614 340.5 214.5C339.167 214.5 337.833 214.5 336.5 214.5C329.071 212.133 321.738 209.8 314.5 207.5C313.791 206.596 312.791 206.263 311.5 206.5C311.054 199.785 308.054 194.285 302.5 190C304.144 186.063 305.977 182.23 308 178.5C310.901 174.799 314.735 172.799 319.5 172.5C319.665 169.482 319.498 166.482 319 163.5C315.256 162.374 311.423 162.207 307.5 163C303.232 166.354 299.066 169.854 295 173.5C294.421 176.588 293.087 179.255 291 181.5C290.797 186.611 291.464 191.944 293 197.5C294.873 199.709 297.04 201.542 299.5 203C297.866 203.494 296.199 203.66 294.5 203.5C286.833 203.5 279.167 203.5 271.5 203.5C269.563 200.501 269.063 197.167 270 193.5C272.667 192.167 274.667 190.167 276 187.5C276.667 188.833 277.333 188.833 278 187.5C278.824 184.118 278.657 180.784 277.5 177.5C275.568 176.48 273.568 176.313 271.5 177C266.792 178.572 262.459 180.739 258.5 183.5C257.331 191.154 257.331 198.821 258.5 206.5C253.517 207.827 248.517 209.16 243.5 210.5C242.127 210.657 240.793 210.49 239.5 210C240.99 209.255 241.99 208.088 242.5 206.5C241.861 203.525 241.361 200.525 241 197.5C239.257 195.679 237.757 193.679 236.5 191.5C235.62 186.605 234.62 181.771 233.5 177C237.479 173.344 241.812 170.178 246.5 167.5C247.509 164.527 247.509 161.527 246.5 158.5C242.154 158.334 237.821 158.501 233.5 159C230.959 160.848 229.959 163.348 230.5 166.5C226.57 166.047 224.07 167.714 223 171.5C222.333 178.167 222.333 184.833 223 191.5C224.324 195.482 226.158 199.149 228.5 202.5C226.662 204.713 224.829 207.046 223 209.5C222.502 212.482 222.335 215.482 222.5 218.5C220.302 220.098 217.969 221.431 215.5 222.5C213.345 222.628 211.345 222.128 209.5 221C208.113 216.962 205.947 213.462 203 210.5C201.63 206.26 201.464 201.926 202.5 197.5C205.227 196.633 207.227 194.799 208.5 192C209.448 191.517 210.448 191.351 211.5 191.5C211.665 188.15 211.498 184.817 211 181.5C209.087 179.813 206.92 179.313 204.5 180C200.65 181.328 197.483 183.495 195 186.5C190.218 198.229 190.385 209.896 195.5 221.5C192.205 228.085 190.538 235.085 190.5 242.5C186.663 246.343 185.496 251.01 187 256.5C188.699 257.406 190.533 257.739 192.5 257.5C192.5 263.167 192.5 268.833 192.5 274.5C191.127 274.343 189.793 274.51 188.5 275C187.37 277.428 185.87 279.595 184 281.5C180.212 288.587 177.379 296.087 175.5 304C175.861 306.449 176.528 308.782 177.5 311C179.421 311.36 181.088 312.194 182.5 313.5C183.85 312.05 185.516 311.383 187.5 311.5C188.34 303.468 190.507 295.801 194 288.5C194.816 287.177 195.983 286.511 197.5 286.5C204.422 298.918 214.422 308.085 227.5 314C230.919 314.521 234.252 315.355 237.5 316.5C238.172 315.051 238.839 313.718 239.5 312.5C240.006 316.007 239.34 319.174 237.5 322C231.725 326.553 225.391 330.053 218.5 332.5C214.456 331.968 211.289 329.968 209 326.5C206.597 322.365 204.763 318.032 203.5 313.5C196.221 310.645 192.721 312.978 193 320.5C196.7 331.066 203.533 338.899 213.5 344C219.776 345.338 225.443 344.004 230.5 340C236.167 336.333 241.833 332.667 247.5 329C251.167 328.667 254.833 328.333 258.5 328C262.39 326.055 264.057 322.888 263.5 318.5C274.228 318.519 284.895 319.186 295.5 320.5C297.438 322.163 299.772 322.829 302.5 322.5C303.319 326.853 305.652 330.353 309.5 333C312.406 334.318 315.406 334.652 318.5 334C319.167 332.667 319.833 331.333 320.5 330C319.565 327.619 319.232 325.119 319.5 322.5C317.473 322.662 315.473 322.495 313.5 322C318.844 321.529 324.178 321.029 329.5 320.5C329.393 322.903 330.393 324.736 332.5 326C335.833 326.333 339.167 326.667 342.5 327C348.707 331.796 355.707 334.963 363.5 336.5C365.631 337.314 367.964 337.814 370.5 338C353.83 345.08 336.83 351.08 319.5 356C314.522 355.508 309.522 355.174 304.5 355C298.187 357.822 292.187 361.155 286.5 365C284.564 365.813 282.564 366.313 280.5 366.5C279.624 366.631 278.957 366.298 278.5 365.5C280.086 363.33 281.42 360.996 282.5 358.5C280.527 356.719 279.193 354.552 278.5 352C276.833 351.333 275.167 351.333 273.5 352C262.836 356.711 255.169 364.544 250.5 375.5C249.833 375.5 249.167 375.5 248.5 375.5C246.143 375.663 243.81 375.497 241.5 375C242.973 374.29 243.64 373.124 243.5 371.5C245.911 371.863 247.411 370.863 248 368.5C253.287 361.934 252.621 356.267 246 351.5C242.383 352.733 238.883 354.067 235.5 355.5C235.649 356.552 235.483 357.552 235 358.5C230.72 361.394 228.22 365.394 227.5 370.5C227.722 372.055 228.389 373.389 229.5 374.5C229.043 375.298 228.376 375.631 227.5 375.5C224.012 375.46 220.679 374.793 217.5 373.5C216.791 372.596 215.791 372.263 214.5 372.5C215.872 367.431 218.539 363.098 222.5 359.5C223.274 355.208 223.274 350.875 222.5 346.5C219.161 346.89 215.827 347.39 212.5 348C208.803 353.886 204.97 359.719 201 365.5C199.989 366.337 198.822 366.67 197.5 366.5C195.588 365.201 193.588 364.201 191.5 363.5C190.659 361.621 190.325 359.621 190.5 357.5C191.675 357.719 192.675 357.386 193.5 356.5C194.414 354.336 195.581 352.336 197 350.5C198.618 340.763 195.118 337.929 186.5 342C183.973 344.684 182.64 347.851 182.5 351.5C181.167 351.5 179.833 351.5 178.5 351.5C175.088 345.007 171.921 338.341 169 331.5C168.321 323.102 165.654 315.436 161 308.5C156.527 304.027 152.027 299.527 147.5 295C143.636 292.266 139.469 290.1 135 288.5C132.416 289.104 129.916 289.937 127.5 291C116.889 297.945 106.556 305.278 96.5 313C84.1073 319.034 71.4406 319.867 58.5 315.5C55.6755 311.863 53.5088 307.863 52 303.5C51.3333 299.167 51.3333 294.833 52 290.5C57.5542 276.719 62.5542 262.719 67 248.5C68.9086 234.746 68.2419 221.079 65 207.5C62.5874 199.121 60.254 190.788 58 182.5C56.6497 170.899 58.6497 159.899 64 149.5C72.1467 139.992 81.98 137.492 93.5 142C104.113 149.61 114.446 157.61 124.5 166C130.672 166.893 136.672 166.227 142.5 164C154.119 156.195 166.785 150.528 180.5 147C183.669 144.521 184.836 141.354 184 137.5C182.067 133.302 179.401 129.635 176 126.5C175.751 123.823 174.751 121.49 173 119.5C171.98 115.29 172.98 111.623 176 108.5C178.22 105.979 180.72 103.812 183.5 102C190.011 99.8393 196.345 97.1733 202.5 94.0003C206.167 93.6673 209.833 93.3333 213.5 93.0003C221.759 90.6283 230.092 88.6283 238.5 87.0003C265.435 85.2163 292.102 86.8833 318.5 92.0003C331.172 96.4173 342.339 103.251 352 112.5C353.369 117.885 356.369 122.218 361 125.5C364.914 138.833 372.414 149.666 383.5 158C384.833 158.333 386.167 158.667 387.5 159C406.864 175.356 423.697 193.856 438 214.5C445.179 225.866 449.013 238.2 449.5 251.5C447.834 262.508 444.167 272.841 438.5 282.5Z" fill="#EBAA4E"/>
<path fill-rule="evenodd" clip-rule="evenodd" d="M236.501 95.5C241.166 96.039 244.499 98.372 246.501 102.5C252.367 107.169 257.867 112.169 263.001 117.5C267.644 122.594 269.81 128.594 269.501 135.5C266.483 135.665 263.483 135.498 260.501 135C254.879 130.07 250.212 124.403 246.501 118C241.309 114.459 236.476 110.625 232.001 106.5C231.26 103.438 231.426 100.438 232.501 97.5C233.95 96.828 235.283 96.161 236.501 95.5Z" fill="#E4A24F"/>
<path fill-rule="evenodd" clip-rule="evenodd" d="M312.501 100.5C314.061 100.519 315.561 100.852 317.001 101.5C318.195 103.024 319.695 104.19 321.501 105C327.725 111.885 333.891 118.718 340.001 125.5C342.997 130.77 344.163 136.437 343.501 142.5C339.819 142.665 336.153 142.499 332.501 142C331.712 139.733 331.045 137.4 330.501 135C326.876 130.248 323.376 125.414 320.001 120.5C316.035 117.536 312.368 114.203 309.001 110.5C307.751 106.101 308.917 102.767 312.501 100.5Z" fill="#E4A14F"/>
<path fill-rule="evenodd" clip-rule="evenodd" d="M202.501 102.5C203.874 102.343 205.208 102.51 206.501 103C214.33 109.83 221.83 116.996 229.001 124.5C229.668 127.5 229.668 130.5 229.001 133.5C228.087 132.346 227.254 132.513 226.501 134C220.549 135.565 216.549 133.399 214.501 127.5C208.854 123.021 203.354 118.354 198.001 113.5C196.544 110.634 196.211 107.634 197.001 104.5C198.949 103.891 200.783 103.224 202.501 102.5Z" fill="#E4A14F"/>
<path fill-rule="evenodd" clip-rule="evenodd" d="M276.5 103.5C285.13 101.077 290.63 104.077 293 112.5C299.333 117.5 305 123.167 310 129.5C314.024 138.248 311.19 141.748 301.5 140C291.988 131.154 283.155 121.654 275 111.5C274.109 108.502 274.609 105.836 276.5 103.5Z" fill="#E5A14F"/>
<path fill-rule="evenodd" clip-rule="evenodd" d="M243.499 210.5C243.499 210.833 243.499 211.167 243.499 211.5C236.223 212.814 229.223 215.148 222.499 218.5C222.334 215.482 222.501 212.482 222.999 209.5C224.828 207.046 226.661 204.713 228.499 202.5C226.157 199.149 224.323 195.482 222.999 191.5C222.332 184.833 222.332 178.167 222.999 171.5C224.069 167.714 226.569 166.047 230.499 166.5C229.958 163.348 230.958 160.848 233.499 159C237.82 158.501 242.153 158.334 246.499 158.5C247.508 161.527 247.508 164.527 246.499 167.5C241.811 170.178 237.478 173.344 233.499 177C234.619 181.771 235.619 186.605 236.499 191.5C237.756 193.679 239.256 195.679 240.999 197.5C241.36 200.525 241.86 203.525 242.499 206.5C241.989 208.088 240.989 209.255 239.499 210C240.792 210.49 242.126 210.657 243.499 210.5Z" fill="#E4A24F"/>
<path fill-rule="evenodd" clip-rule="evenodd" d="M84.5 160.5C88.1817 160.335 91.8484 160.501 95.5 161C100.324 165.572 105.324 169.905 110.5 174C115.469 177.958 118.803 182.958 120.5 189C120.355 190.226 120.022 191.393 119.5 192.5C116.554 193.655 113.554 193.821 110.5 193C108.167 190.667 105.833 188.333 103.5 186C97.854 182.364 92.1873 178.697 86.5 175C85.9211 171.861 84.9211 168.861 83.5 166C84.4061 164.301 84.7394 162.467 84.5 160.5Z" fill="#E4A14F"/>
<path fill-rule="evenodd" clip-rule="evenodd" d="M314.5 207.5C307.879 206.209 301.213 205.209 294.5 204.5C294.5 204.167 294.5 203.833 294.5 203.5C296.199 203.66 297.866 203.494 299.5 203C297.04 201.542 294.873 199.709 293 197.5C291.464 191.944 290.797 186.611 291 181.5C293.087 179.255 294.421 176.588 295 173.5C299.066 169.854 303.232 166.354 307.5 163C311.423 162.207 315.256 162.374 319 163.5C319.498 166.482 319.665 169.482 319.5 172.5C314.735 172.799 310.901 174.799 308 178.5C305.977 182.23 304.144 186.063 302.5 190C308.054 194.285 311.054 199.785 311.5 206.5C312.791 206.263 313.791 206.596 314.5 207.5Z" fill="#E4A250"/>
<path fill-rule="evenodd" clip-rule="evenodd" d="M357.5 222.5C350.414 219.809 343.414 217.142 336.5 214.5C337.833 214.5 339.167 214.5 340.5 214.5C340.925 206.614 342.425 198.947 345 191.5C348.721 186.393 351.054 180.726 352 174.5C354.879 171.957 357.379 169.123 359.5 166C363.045 165.283 366.545 165.45 370 166.5C372.365 168.651 373.031 171.317 372 174.5C367.036 178.43 364.036 183.43 363 189.5C359.101 195.761 356.101 202.428 354 209.5C353.333 212.5 353.333 215.5 354 218.5C355.627 219.532 356.793 220.866 357.5 222.5Z" fill="#E4A251"/>
<path fill-rule="evenodd" clip-rule="evenodd" d="M271.5 203.5C269.374 204.048 267.374 204.715 265.5 205.5C265.167 205.5 264.833 205.5 264.5 205.5C262.435 205.517 260.435 205.85 258.5 206.5C257.331 198.821 257.331 191.154 258.5 183.5C262.459 180.739 266.792 178.572 271.5 177C273.568 176.313 275.568 176.48 277.5 177.5C278.657 180.784 278.824 184.118 278 187.5C277.333 188.833 276.667 188.833 276 187.5C274.667 190.167 272.667 192.167 270 193.5C269.063 197.167 269.563 200.501 271.5 203.5Z" fill="#E5A250"/>
<path fill-rule="evenodd" clip-rule="evenodd" d="M215.5 222.5C214.027 224.395 212.36 226.061 210.5 227.5C202.683 231.064 196.016 236.064 190.5 242.5C190.538 235.085 192.205 228.085 195.5 221.5C190.385 209.896 190.218 198.229 195 186.5C197.483 183.495 200.65 181.328 204.5 180C206.92 179.313 209.087 179.813 211 181.5C211.498 184.817 211.665 188.15 211.5 191.5C210.448 191.351 209.448 191.517 208.5 192C207.227 194.799 205.227 196.633 202.5 197.5C201.464 201.926 201.63 206.26 203 210.5C205.947 213.462 208.113 216.962 209.5 221C211.345 222.128 213.345 222.628 215.5 222.5Z" fill="#E3A151"/>
<path fill-rule="evenodd" clip-rule="evenodd" d="M173.5 182.5C180.665 181.497 183.498 184.497 182 191.5C176.724 196.031 171.891 201.031 167.5 206.5C168.985 214.42 170.485 222.087 172 229.5C174.662 231.481 176.495 233.981 177.5 237C177.333 237.833 177.167 238.667 177 239.5C172.331 241.84 168.665 245.173 166 249.5C164.71 254.11 164.376 258.777 165 263.5C167.488 265.743 170.154 267.743 173 269.5C173.821 277.332 170.321 280.165 162.5 278C152.925 270.376 149.758 260.543 153 248.5C154.867 246.192 155.867 243.525 156 240.5C157.635 239.274 159.135 237.941 160.5 236.5C155.578 224.857 154.411 212.857 157 200.5C158.497 195.832 161.33 192.166 165.5 189.5C165.977 188.069 166.643 186.736 167.5 185.5C169.919 185.086 171.919 184.086 173.5 182.5Z" fill="#E4A14F"/>
<path fill-rule="evenodd" clip-rule="evenodd" d="M86.5003 198.5C91.8054 199.595 97.1387 200.762 102.5 202C104.601 204.77 107.268 206.77 110.5 208C115.381 212.328 115.548 216.495 111 220.5C102.688 218.048 94.5211 215.215 86.5003 212C81.9035 207.49 81.9035 202.99 86.5003 198.5Z" fill="#E5A250"/>
<path fill-rule="evenodd" clip-rule="evenodd" d="M271.5 203.5C279.167 203.5 286.833 203.5 294.5 203.5C294.5 203.833 294.5 204.167 294.5 204.5C284.815 204.422 275.148 204.755 265.5 205.5C267.374 204.715 269.374 204.048 271.5 203.5Z" fill="#F8E3C4"/>
<path fill-rule="evenodd" clip-rule="evenodd" d="M379.5 253.5C378.715 251.626 378.048 249.626 377.5 247.5C382.501 248.329 384.668 246.329 384 241.5C382.855 240.364 381.688 239.364 380.5 238.5C381.239 238.631 381.906 238.464 382.5 238C380.36 235.385 379.36 232.385 379.5 229C380.468 224.884 381.301 220.717 382 216.5C388.938 202.217 399.771 198.217 414.5 204.5C421.858 211.381 426.191 219.881 427.5 230C426.242 236.591 423.242 242.257 418.5 247C407.596 253.071 396.762 252.904 386 246.5C384.34 247.829 382.507 248.829 380.5 249.5C379.571 250.689 379.238 252.022 379.5 253.5Z" fill="#E4A150"/>
<path fill-rule="evenodd" clip-rule="evenodd" d="M294.5 204.5C301.213 205.209 307.879 206.209 314.5 207.5C321.738 209.8 329.071 212.133 336.5 214.5C343.414 217.142 350.414 219.809 357.5 222.5C359.858 224.529 362.192 226.529 364.5 228.5C355.436 226.151 346.436 223.651 337.5 221C330.882 219.622 324.215 219.289 317.5 220C307.357 225.427 301.524 233.927 300 245.5C298.174 257.4 300.674 268.233 307.5 278C334.64 292.513 352.474 285.013 361 255.5C362.712 250.892 362.879 246.225 361.5 241.5C364.714 242.44 367.714 243.94 370.5 246C372.92 246.29 375.254 246.79 377.5 247.5C378.048 249.626 378.715 251.626 379.5 253.5C382.473 280.795 371.806 300.462 347.5 312.5C345.251 308.748 341.918 307.581 337.5 309C335.413 312.923 332.746 316.423 329.5 319.5C318.187 320.326 306.854 320.66 295.5 320.5C284.895 319.186 274.228 318.519 263.5 318.5C263.047 317.542 262.381 316.708 261.5 316C258.833 315.667 256.167 315.333 253.5 315C249.718 307.536 245.051 306.703 239.5 312.5C238.839 313.718 238.172 315.051 237.5 316.5C234.252 315.355 230.919 314.521 227.5 314C214.422 308.085 204.422 298.918 197.5 286.5C193.987 277.182 192.654 267.516 193.5 257.5C198.082 254.261 202.416 250.595 206.5 246.5C207.408 247.79 207.241 249.123 206 250.5C205.561 259.657 207.561 268.324 212 276.5C222.148 289.209 234.648 292.042 249.5 285C257.441 280.392 263.275 273.892 267 265.5C271.262 255.978 269.928 247.312 263 239.5C262.218 231.707 258.051 226.541 250.5 224C241.209 221.535 231.876 221.202 222.5 223C218.379 224.229 214.379 225.729 210.5 227.5C212.36 226.061 214.027 224.395 215.5 222.5C217.969 221.431 220.302 220.098 222.5 218.5C229.224 215.148 236.224 212.814 243.5 211.5C250.717 209.867 257.717 207.867 264.5 205.5C264.833 205.5 265.167 205.5 265.5 205.5C275.148 204.755 284.815 204.422 294.5 204.5Z" fill="#FCFBFA"/>
<path fill-rule="evenodd" clip-rule="evenodd" d="M264.5 205.5C257.717 207.867 250.717 209.867 243.5 211.5C243.5 211.167 243.5 210.833 243.5 210.5C248.517 209.16 253.517 207.827 258.5 206.5C260.435 205.85 262.435 205.517 264.5 205.5Z" fill="#F8E3C7"/>
<path fill-rule="evenodd" clip-rule="evenodd" d="M403.5 216.5C406.522 216.428 408.688 217.762 410 220.5C411.363 223.59 412.53 226.756 413.5 230C411.704 232.633 409.704 235.133 407.5 237.5C404.494 238.748 401.494 238.748 398.5 237.5C397 235.167 395.5 232.833 394 230.5C394.882 226.438 396.048 222.438 397.5 218.5C399.786 218.405 401.786 217.738 403.5 216.5Z" fill="#ECAB4E"/>
<path fill-rule="evenodd" clip-rule="evenodd" d="M364.5 228.5C369.152 232.831 374.486 236.165 380.5 238.5C381.688 239.364 382.855 240.364 384 241.5C384.668 246.329 382.501 248.329 377.5 247.5C375.254 246.79 372.92 246.29 370.5 246C367.714 243.94 364.714 242.44 361.5 241.5C362.879 246.225 362.712 250.892 361 255.5C352.474 285.013 334.64 292.513 307.5 278C300.674 268.233 298.174 257.4 300 245.5C301.524 233.927 307.357 225.427 317.5 220C324.215 219.289 330.882 219.622 337.5 221C346.436 223.651 355.436 226.151 364.5 228.5Z" fill="#050504"/>
<path fill-rule="evenodd" clip-rule="evenodd" d="M193.5 257.5C193.167 257.5 192.833 257.5 192.5 257.5C190.533 257.739 188.699 257.406 187 256.5C185.496 251.01 186.663 246.343 190.5 242.5C196.016 236.064 202.683 231.064 210.5 227.5C214.379 225.729 218.379 224.229 222.5 223C231.876 221.202 241.209 221.535 250.5 224C258.051 226.541 262.218 231.707 263 239.5C269.928 247.312 271.262 255.978 267 265.5C263.275 273.892 257.441 280.392 249.5 285C234.648 292.042 222.148 289.209 212 276.5C207.561 268.324 205.561 259.657 206 250.5C207.241 249.123 207.408 247.79 206.5 246.5C202.416 250.595 198.082 254.261 193.5 257.5Z" fill="#050505"/>
<path fill-rule="evenodd" clip-rule="evenodd" d="M317.501 228.5C320.519 228.335 323.519 228.502 326.501 229C327.702 229.903 328.536 231.069 329.001 232.5C329.333 237.854 329 243.187 328.001 248.5C324.258 252.259 319.758 253.426 314.501 252C312.745 249.237 310.578 246.737 308.001 244.5C307.211 241.366 307.544 238.366 309.001 235.5C311.997 233.267 314.83 230.934 317.501 228.5Z" fill="#F3F3F3"/>
<path fill-rule="evenodd" clip-rule="evenodd" d="M244.5 232.5C254.362 233.164 258.196 238.497 256 248.5C253.924 254.039 250.091 257.705 244.5 259.5C238.377 257.545 235.043 253.379 234.5 247C235.758 240.624 239.091 235.791 244.5 232.5Z" fill="#F2F2F2"/>
<path fill-rule="evenodd" clip-rule="evenodd" d="M105.5 240.5C112.313 243.106 113.813 247.44 110 253.5C103.552 259.369 96.0518 263.035 87.5003 264.5C83.8591 259.801 83.5257 254.801 86.5003 249.5C92.7118 245.882 99.0451 242.882 105.5 240.5Z" fill="#E4A24F"/>
<path fill-rule="evenodd" clip-rule="evenodd" d="M438.499 282.5C436.158 286.818 433.491 290.818 430.499 294.5C425.489 293.217 420.489 291.551 415.499 289.5C413.884 290.154 412.217 290.654 410.499 291C410.166 292 409.832 293 409.499 294C406.67 295.509 403.837 295.675 400.999 294.5C398.026 289.011 397.693 283.344 399.999 277.5C402.392 275.381 403.725 272.715 403.999 269.5C411.546 263.848 416.046 265.848 417.499 275.5C424.677 277.226 431.677 279.559 438.499 282.5Z" fill="#E4A14F"/>
<path fill-rule="evenodd" clip-rule="evenodd" d="M192.5 257.5C192.833 257.5 193.167 257.5 193.5 257.5C192.654 267.516 193.987 277.182 197.5 286.5C195.983 286.511 194.816 287.177 194 288.5C190.507 295.801 188.34 303.468 187.5 311.5C185.516 311.383 183.85 312.05 182.5 313.5C181.088 312.194 179.421 311.36 177.5 311C176.528 308.782 175.861 306.449 175.5 304C177.379 296.087 180.212 288.587 184 281.5C185.87 279.595 187.37 277.428 188.5 275C189.793 274.51 191.127 274.343 192.5 274.5C192.5 268.833 192.5 263.167 192.5 257.5Z" fill="#E5A352"/>
<path fill-rule="evenodd" clip-rule="evenodd" d="M111.5 272.5C115.207 272.998 117.541 275.164 118.5 279C117.692 281.761 116.692 284.428 115.5 287C107.714 291.154 100.214 295.654 93 300.5C87.9834 302.214 82.8167 302.881 77.5 302.5C77.5179 298.393 78.1846 294.393 79.5 290.5C90.4417 284.869 101.108 278.869 111.5 272.5Z" fill="#E4A14F"/>
<path fill-rule="evenodd" clip-rule="evenodd" d="M302.499 289.5C306.197 288.68 308.53 290.013 309.499 293.5C306.951 299.417 303.284 304.584 298.499 309C295.499 309.667 292.499 309.667 289.499 309C284.514 306.592 279.681 304.092 274.999 301.5C274.155 297.994 275.489 295.661 278.999 294.5C283.101 295.301 286.935 296.801 290.499 299C292.166 299.667 293.832 299.667 295.499 299C297.964 295.893 300.297 292.726 302.499 289.5Z" fill="#0D0D0D"/>
<path fill-rule="evenodd" clip-rule="evenodd" d="M371.5 335.5C368.946 336.388 366.279 336.721 363.5 336.5C355.707 334.963 348.707 331.796 342.5 327C339.167 326.667 335.833 326.333 332.5 326C330.393 324.736 329.393 322.903 329.5 320.5C329.5 320.167 329.5 319.833 329.5 319.5C332.746 316.423 335.413 312.923 337.5 309C341.918 307.581 345.251 308.748 347.5 312.5C347.238 313.978 347.571 315.311 348.5 316.5C353.491 319.578 358.658 322.245 364 324.5C365.89 324.215 367.223 323.215 368 321.5C372.102 313.738 376.602 306.238 381.5 299C388.756 296.41 391.922 298.91 391 306.5C386.92 314.329 382.587 321.996 378 329.5C375.937 331.734 373.771 333.734 371.5 335.5Z" fill="#0A0604"/>
<path fill-rule="evenodd" clip-rule="evenodd" d="M263.5 318.5C264.057 322.888 262.39 326.055 258.5 328C254.833 328.333 251.167 328.667 247.5 329C241.833 332.667 236.167 336.333 230.5 340C225.443 344.004 219.776 345.338 213.5 344C203.533 338.899 196.7 331.066 193 320.5C192.721 312.978 196.221 310.645 203.5 313.5C204.763 318.032 206.597 322.365 209 326.5C211.289 329.968 214.456 331.968 218.5 332.5C225.391 330.053 231.725 326.553 237.5 322C239.34 319.174 240.006 316.007 239.5 312.5C245.051 306.703 249.718 307.536 253.5 315C256.167 315.333 258.833 315.667 261.5 316C262.381 316.708 263.047 317.542 263.5 318.5Z" fill="#090503"/>
<path fill-rule="evenodd" clip-rule="evenodd" d="M329.5 319.5C329.5 319.833 329.5 320.167 329.5 320.5C324.178 321.029 318.844 321.529 313.5 322C315.473 322.495 317.473 322.662 319.5 322.5C319.232 325.119 319.565 327.619 320.5 330C319.833 331.333 319.167 332.667 318.5 334C315.406 334.652 312.406 334.318 309.5 333C305.652 330.353 303.319 326.853 302.5 322.5C299.772 322.829 297.438 322.163 295.5 320.5C306.854 320.66 318.187 320.326 329.5 319.5Z" fill="#E5A453"/>
<path fill-rule="evenodd" clip-rule="evenodd" d="M191.5 363.5C190.078 363.291 188.745 362.791 187.5 362C185.129 359.294 182.463 356.961 179.5 355C178.663 353.989 178.33 352.822 178.5 351.5C179.833 351.5 181.167 351.5 182.5 351.5C182.64 347.851 183.973 344.684 186.5 342C195.118 337.929 198.618 340.763 197 350.5C195.581 352.336 194.414 354.336 193.5 356.5C192.675 357.386 191.675 357.719 190.5 357.5C190.325 359.621 190.659 361.621 191.5 363.5Z" fill="#E4A150"/>
<path fill-rule="evenodd" clip-rule="evenodd" d="M217.5 373.5C210.774 371.157 204.107 368.824 197.5 366.5C198.822 366.67 199.989 366.337 201 365.5C204.97 359.719 208.803 353.886 212.5 348C215.827 347.39 219.161 346.89 222.5 346.5C223.274 350.875 223.274 355.208 222.5 359.5C218.539 363.098 215.872 367.431 214.5 372.5C215.791 372.263 216.791 372.596 217.5 373.5Z" fill="#E4A250"/>
<path fill-rule="evenodd" clip-rule="evenodd" d="M248.5 375.5C241.5 376.833 234.5 376.833 227.5 375.5C228.376 375.631 229.043 375.298 229.5 374.5C228.389 373.389 227.722 372.055 227.5 370.5C228.22 365.394 230.72 361.394 235 358.5C235.483 357.552 235.649 356.552 235.5 355.5C238.883 354.067 242.383 352.733 246 351.5C252.621 356.267 253.287 361.934 248 368.5C247.411 370.863 245.911 371.863 243.5 371.5C243.64 373.124 242.973 374.29 241.5 375C243.81 375.497 246.143 375.663 248.5 375.5Z" fill="#E4A24F"/>
<path fill-rule="evenodd" clip-rule="evenodd" d="M280.5 366.5C271.51 372.269 261.51 375.269 250.5 375.5C255.169 364.544 262.836 356.711 273.5 352C275.167 351.333 276.833 351.333 278.5 352C279.193 354.552 280.527 356.719 282.5 358.5C281.42 360.996 280.086 363.33 278.5 365.5C278.957 366.298 279.624 366.631 280.5 366.5Z" fill="#E4A150"/>
<path fill-rule="evenodd" clip-rule="evenodd" d="M332.5 366.5C332.5 379.833 332.5 393.167 332.5 406.5C340.862 407.02 344.695 411.353 344 419.5C343.167 420.333 342.333 421.167 341.5 422C335.5 422.667 329.5 422.667 323.5 422C321.34 421.004 319.673 419.504 318.5 417.5C318.5 401.167 318.5 384.833 318.5 368.5C323.066 367.193 327.733 366.526 332.5 366.5Z" fill="#040302"/>
<path fill-rule="evenodd" clip-rule="evenodd" d="M260.5 388.5C261.464 395.746 261.797 403.08 261.5 410.5C268.111 410.881 274.111 412.881 279.5 416.5C280.942 419.787 280.275 422.62 277.5 425C270.85 425.999 264.183 426.333 257.5 426C252.41 423.249 249.243 419.083 248 413.5C247.5 405.507 247.334 397.507 247.5 389.5C251.842 389.261 256.176 388.927 260.5 388.5Z" fill="#060405"/>
</svg>
