<svg width="500" height="500" viewBox="0 0 500 500" fill="none" xmlns="http://www.w3.org/2000/svg">
<path fill-rule="evenodd" clip-rule="evenodd" d="M370.5 348.5C361.134 348.721 351.801 348.387 342.5 347.5C338.018 346.387 334.018 344.387 330.5 341.5C330.5 332.5 330.5 323.5 330.5 314.5C331.328 320.319 331.828 326.319 332 332.5C336.674 336.753 342.174 339.253 348.5 340C357.833 340.667 367.167 340.667 376.5 340C384.414 338.15 392.414 336.817 400.5 336C396.89 334.056 393.557 331.723 390.5 329C391.333 328.833 392.167 328.667 393 328.5C409.391 333.729 426.225 336.229 443.5 336C454.834 332.823 462.334 325.656 466 314.5C469.834 300.77 469.334 287.27 464.5 274C465.102 272.437 465.935 272.604 467 274.5C468.473 278.779 470.473 282.779 473 286.5C477.928 261.752 477.595 237.085 472 212.5C466.151 192.934 454.651 177.768 437.5 167C425.034 160.615 412.034 159.282 398.5 163C396.671 163.273 395.171 164.107 394 165.5C388.4 175.624 387.067 186.291 390 197.5C393.927 200.448 397.261 199.782 400 195.5C402.495 189.726 404.495 183.726 406 177.5C407.183 176.269 408.349 176.269 409.5 177.5C407.952 183.928 406.285 190.261 404.5 196.5C404.737 201.232 407.07 203.732 411.5 204C416.066 198.357 418.566 191.857 419 184.5C420.185 182.441 421.352 182.274 422.5 184C419.526 192.545 419.86 200.878 423.5 209C425.678 209.165 427.511 208.332 429 206.5C431.545 201.855 433.045 196.855 433.5 191.5C434.086 191.709 434.586 192.043 435 192.5C435.161 205.88 439.828 207.88 449 198.5C447.698 205.46 443.365 209.46 436 210.5C435.261 212.221 434.427 213.887 433.5 215.5C433.04 222.326 431.873 228.992 430 235.5C420.754 244.973 413.754 255.973 409 268.5C408.116 272.113 407.616 275.78 407.5 279.5C408.031 285.3 408.865 290.967 410 296.5C406.543 292.816 404.21 288.483 403 283.5C401.52 276.138 401.186 268.804 402 261.5C395.5 256.333 389 251.167 382.5 246C378.353 244.379 374.02 243.212 369.5 242.5C358.428 243.399 347.761 245.899 337.5 250C334.931 251.759 332.597 253.593 330.5 255.5C329.626 253.31 327.959 252.31 325.5 252.5C325.152 250.287 324.319 248.287 323 246.5C322.722 247.416 322.222 248.082 321.5 248.5C321.634 246.708 321.301 245.042 320.5 243.5C321.598 242.399 321.765 241.066 321 239.5C314.432 229.6 305.932 221.766 295.5 216C269.313 203.29 241.98 199.956 213.5 206C194.119 213.88 180.119 227.38 171.5 246.5C169.114 246.259 167.114 246.925 165.5 248.5C165.16 246.321 164.16 244.488 162.5 243C146.687 233.496 130.02 231.162 112.5 236C105.656 240.589 98.9897 245.422 92.5 250.5C95.4705 263.804 92.6371 275.804 84 286.5C85.9813 279.943 87.4813 273.11 88.5 266C84.3068 249.78 76.8068 235.28 66 222.5C64.2988 215.02 62.7988 207.52 61.5 200C61.0946 199.055 60.428 198.388 59.5 198C52.949 196.782 49.1157 192.949 48 186.5C50.4123 190.612 53.9123 192.445 58.5 192C59.8003 187.361 61.467 182.861 63.5 178.5C64.0822 184.498 65.7489 190.164 68.5 195.5C69.4383 196.553 70.605 197.22 72 197.5C73.3264 196.201 74.6598 194.868 76 193.5C77.0015 186.349 76.5015 179.349 74.5 172.5C74.8333 171.833 75.1667 171.167 75.5 170.5C77.1214 172.153 78.2881 174.153 79 176.5C79.9095 181.296 81.2429 185.963 83 190.5C85.2838 192.984 87.7838 193.151 90.5 191C92.0284 189.352 92.6951 187.352 92.5 185C91.487 179.103 90.1537 173.27 88.5 167.5C89.8996 165.075 91.0662 165.408 92 168.5C93.2923 173.973 94.959 179.307 97 184.5C104.037 190.874 108.037 189.208 109 179.5C109.667 175.833 109.667 172.167 109 168.5C107.326 163.787 105.66 159.12 104 154.5C100.732 152.474 97.2317 150.974 93.5 150C67.4046 147.462 47.5713 157.295 34 179.5C19.0916 208.979 15.2583 239.979 22.5 272.5C24.7369 268.365 27.2369 264.365 30 260.5C25.0405 277.264 25.7072 293.931 32 310.5C38.3731 319.682 47.2065 324.349 58.5 324.5C73.7461 323.247 88.7461 321.08 103.5 318C99.9695 320.596 96.3029 322.929 92.5 325C99.9961 325.566 107.329 326.9 114.5 329C127.605 331.278 140.605 330.944 153.5 328C156.005 326.247 158.671 324.747 161.5 323.5C162.429 322.311 162.762 320.978 162.5 319.5C163.617 323.295 164.283 327.295 164.5 331.5C154.742 337.465 144.075 339.798 132.5 338.5C127.5 338.333 122.5 338.167 117.5 338C106.94 335.359 96.273 333.359 85.5 332C74.1606 331.801 62.8273 331.801 51.5 332C33.725 328.892 23.225 318.392 20 300.5C19.8295 295.136 19.3295 289.802 18.5 284.5C16.1763 280.029 14.343 275.363 13 270.5C7.89234 238.982 11.559 208.648 24 179.5C29.0177 172.137 34.5177 165.137 40.5 158.5C56.072 144.014 74.4053 138.514 95.5 142C100.62 143.475 105.453 145.642 110 148.5C112.211 153.891 114.544 159.224 117 164.5C117.231 172.195 117.731 179.862 118.5 187.5C117.791 196.707 112.958 202.374 104 204.5C100.232 203.616 96.899 201.95 94 199.5C90.481 201.587 86.8143 201.921 83 200.5C80.2442 203.077 77.0776 205.077 73.5 206.5C72.3414 210.122 72.1747 213.789 73 217.5C79.5059 225.181 85.0059 233.514 89.5 242.5C94.6901 238.142 100.023 233.976 105.5 230C113.311 225.587 121.645 223.92 130.5 225C136.914 225.483 143.248 226.483 149.5 228C155.09 230.38 160.59 232.88 166 235.5C172.723 227.099 179.89 218.933 187.5 211C197.03 204.902 207.03 199.902 217.5 196C246.594 192.359 274.26 196.693 300.5 209C311.575 215.407 320.742 223.907 328 234.5C329.145 237.432 329.978 240.432 330.5 243.5C339.16 239.941 348.16 237.441 357.5 236C368.907 232.941 379.574 234.607 389.5 241C395.167 245.167 400.833 249.333 406.5 253.5C409.738 250.091 411.905 246.091 413 241.5C417.048 237.12 420.715 232.454 424 227.5C424.498 224.518 424.665 221.518 424.5 218.5C420.095 217.606 416.595 215.273 414 211.5C409.854 212.956 405.854 212.622 402 210.5C393.743 217.956 386.743 216.956 381 207.5C379.081 196.528 379.081 185.528 381 174.5C383.901 170.251 385.901 165.584 387 160.5C388.543 158.622 390.376 157.122 392.5 156C406.511 151.374 420.511 151.374 434.5 156C459.707 168.559 475.207 188.726 481 216.5C485.763 241.199 485.43 265.865 480 290.5C476.031 296.854 474.365 303.854 475 311.5C470.317 333.352 456.817 344.352 434.5 344.5C429.601 344.073 424.767 343.406 420 342.5C403.333 343.675 386.833 345.675 370.5 348.5Z" fill="#DAD7CD"/>
<path fill-rule="evenodd" clip-rule="evenodd" d="M330.5 314.5C330.5 309.833 330.5 305.167 330.5 300.5C334.867 302.18 339.2 304.013 343.5 306C357.815 309.235 372.148 309.235 386.5 306C388.002 305.417 389.335 304.584 390.5 303.5C379.218 303.946 367.885 303.446 356.5 302C353.768 301.587 351.101 300.92 348.5 300C342.599 296.882 336.599 294.049 330.5 291.5C330.5 279.5 330.5 267.5 330.5 255.5C332.597 253.593 334.931 251.759 337.5 250C347.761 245.899 358.428 243.399 369.5 242.5C374.02 243.212 378.353 244.379 382.5 246C389 251.167 395.5 256.333 402 261.5C401.186 268.804 401.52 276.138 403 283.5C404.21 288.483 406.543 292.816 410 296.5C408.865 290.967 408.031 285.3 407.5 279.5C407.616 275.78 408.116 272.113 409 268.5C413.754 255.973 420.754 244.973 430 235.5C431.873 228.992 433.04 222.326 433.5 215.5C434.427 213.887 435.261 212.221 436 210.5C443.365 209.46 447.698 205.46 449 198.5C439.828 207.88 435.161 205.88 435 192.5C434.586 192.043 434.086 191.709 433.5 191.5C433.045 196.855 431.545 201.855 429 206.5C427.511 208.332 425.678 209.165 423.5 209C419.86 200.878 419.526 192.545 422.5 184C421.352 182.274 420.185 182.441 419 184.5C418.566 191.857 416.066 198.357 411.5 204C407.07 203.732 404.737 201.232 404.5 196.5C406.285 190.261 407.952 183.928 409.5 177.5C408.349 176.269 407.183 176.269 406 177.5C404.495 183.726 402.495 189.726 400 195.5C397.261 199.782 393.927 200.448 390 197.5C387.067 186.291 388.4 175.624 394 165.5C395.171 164.107 396.671 163.273 398.5 163C412.034 159.282 425.034 160.615 437.5 167C454.651 177.768 466.151 192.934 472 212.5C477.595 237.085 477.928 261.752 473 286.5C470.473 282.779 468.473 278.779 467 274.5C465.935 272.604 465.102 272.437 464.5 274C469.334 287.27 469.834 300.77 466 314.5C462.334 325.656 454.834 332.823 443.5 336C426.225 336.229 409.391 333.729 393 328.5C392.167 328.667 391.333 328.833 390.5 329C393.557 331.723 396.89 334.056 400.5 336C392.414 336.817 384.414 338.15 376.5 340C367.167 340.667 357.833 340.667 348.5 340C342.174 339.253 336.674 336.753 332 332.5C331.828 326.319 331.328 320.319 330.5 314.5Z" fill="#FEFEFE"/>
<path fill-rule="evenodd" clip-rule="evenodd" d="M165.5 248.5C163.6 259.405 162.6 270.405 162.5 281.5C156.086 285.702 149.086 288.869 141.5 291C128.78 292.454 116.113 292.954 103.5 292.5C107.154 294.804 111.154 296.304 115.5 297C131.098 300.152 146.264 298.319 161 291.5C161.171 299.011 161.671 306.345 162.5 313.5C162.5 315.5 162.5 317.5 162.5 319.5C162.762 320.978 162.429 322.311 161.5 323.5C158.671 324.747 156.005 326.247 153.5 328C140.605 330.944 127.605 331.278 114.5 329C107.329 326.9 99.9961 325.566 92.5 325C96.3029 322.929 99.9695 320.596 103.5 318C88.7461 321.08 73.7461 323.247 58.5 324.5C47.2065 324.349 38.3731 319.682 32 310.5C25.7072 293.931 25.0405 277.264 30 260.5C27.2369 264.365 24.7369 268.365 22.5 272.5C15.2583 239.979 19.0916 208.979 34 179.5C47.5713 157.295 67.4046 147.462 93.5 150C97.2317 150.974 100.732 152.474 104 154.5C105.66 159.12 107.326 163.787 109 168.5C109.667 172.167 109.667 175.833 109 179.5C108.037 189.208 104.037 190.874 97 184.5C94.959 179.307 93.2923 173.973 92 168.5C91.0662 165.408 89.8996 165.075 88.5 167.5C90.1537 173.27 91.487 179.103 92.5 185C92.6951 187.352 92.0284 189.352 90.5 191C87.7838 193.151 85.2838 192.984 83 190.5C81.2429 185.963 79.9095 181.296 79 176.5C78.2881 174.153 77.1214 172.153 75.5 170.5C75.1667 171.167 74.8333 171.833 74.5 172.5C76.5015 179.349 77.0015 186.349 76 193.5C74.6598 194.868 73.3264 196.201 72 197.5C70.605 197.22 69.4383 196.553 68.5 195.5C65.7489 190.164 64.0822 184.498 63.5 178.5C61.467 182.861 59.8003 187.361 58.5 192C53.9123 192.445 50.4123 190.612 48 186.5C49.1157 192.949 52.949 196.782 59.5 198C60.428 198.388 61.0946 199.055 61.5 200C62.7988 207.52 64.2988 215.02 66 222.5C76.8068 235.28 84.3068 249.78 88.5 266C87.4813 273.11 85.9813 279.943 84 286.5C92.6371 275.804 95.4705 263.804 92.5 250.5C98.9897 245.422 105.656 240.589 112.5 236C130.02 231.162 146.687 233.496 162.5 243C164.16 244.488 165.16 246.321 165.5 248.5Z" fill="#FEFEFE"/>
<path fill-rule="evenodd" clip-rule="evenodd" d="M320.5 243.5C315.548 241.733 311.215 238.9 307.5 235C297.604 231.131 287.437 228.298 277 226.5C267.721 229.039 262.054 235.039 260 244.5C257.777 253.589 259.277 262.089 264.5 270C269.101 272.969 274.101 274.802 279.5 275.5C274.738 288.743 279.404 294.743 293.5 293.5C275.004 303.588 255.337 306.421 234.5 302C224.309 300.207 214.642 297.041 205.5 292.5C209.592 291.202 213.425 289.202 217 286.5C219.095 282.452 218.928 278.619 216.5 275C217.416 274.722 218.082 274.222 218.5 273.5C226.784 270.383 232.617 264.716 236 256.5C236.826 251.411 236.492 246.411 235 241.5C234.333 240.833 233.667 240.167 233 239.5C232.883 234.098 230.383 230.264 225.5 228C206.693 222.26 190.526 226.76 177 241.5C173.49 247.987 175.323 250.487 182.5 249C185.63 246.872 188.463 244.372 191 241.5C190.229 247.819 190.396 254.153 191.5 260.5C190.85 260.196 190.183 259.863 189.5 259.5C187.78 260.934 185.78 261.767 183.5 262C180.898 262.935 179.398 264.768 179 267.5C178.617 266.944 178.117 266.611 177.5 266.5C175.87 261.4 174.703 256.066 174 250.5C173.338 249.016 172.504 247.683 171.5 246.5C180.119 227.38 194.119 213.88 213.5 206C241.98 199.956 269.313 203.29 295.5 216C305.932 221.766 314.432 229.6 321 239.5C321.765 241.066 321.598 242.399 320.5 243.5Z" fill="#FCFBFB"/>
<path fill-rule="evenodd" clip-rule="evenodd" d="M218.5 273.5C209.689 276.09 202.189 274.09 196 267.5C194.476 265.102 192.976 262.769 191.5 260.5C190.396 254.153 190.229 247.819 191 241.5C188.463 244.372 185.63 246.872 182.5 249C175.323 250.487 173.49 247.987 177 241.5C190.526 226.76 206.693 222.26 225.5 228C230.383 230.264 232.883 234.098 233 239.5C233.667 240.167 234.333 240.833 235 241.5C236.492 246.411 236.826 251.411 236 256.5C232.617 264.716 226.784 270.383 218.5 273.5Z" fill="#050505"/>
<path fill-rule="evenodd" clip-rule="evenodd" d="M320.5 243.5C321.301 245.042 321.634 246.708 321.5 248.5C315.952 249.861 310.952 248.528 306.5 244.5C305.912 250.527 304.245 256.194 301.5 261.5C297.628 271.337 290.295 276.004 279.5 275.5C274.101 274.802 269.101 272.969 264.5 270C259.277 262.089 257.777 253.589 260 244.5C262.054 235.039 267.721 229.039 277 226.5C287.437 228.298 297.604 231.131 307.5 235C311.215 238.9 315.548 241.733 320.5 243.5Z" fill="#050505"/>
<path fill-rule="evenodd" clip-rule="evenodd" d="M273.5 233.5C278.699 232.383 281.699 234.383 282.5 239.5C281.232 242.314 280.399 245.314 280 248.5C277.035 251.918 273.535 252.418 269.5 250C265.467 246.832 264.633 242.999 267 238.5C269.071 236.563 271.238 234.896 273.5 233.5Z" fill="#F3F3F3"/>
<path fill-rule="evenodd" clip-rule="evenodd" d="M218.5 233.5C224.596 233.316 227.93 236.316 228.5 242.5C227.305 244.751 226.305 247.085 225.5 249.5C217.951 255.857 213.285 254.024 211.5 244C212.749 239.638 215.082 236.138 218.5 233.5Z" fill="#F1F1F1"/>
<path fill-rule="evenodd" clip-rule="evenodd" d="M321.5 248.5C322.222 248.082 322.722 247.416 323 246.5C324.319 248.287 325.152 250.287 325.5 252.5C322.339 258.147 318.672 263.48 314.5 268.5C313.326 266.559 311.659 265.059 309.5 264C306.325 264.053 303.658 263.22 301.5 261.5C304.245 256.194 305.912 250.527 306.5 244.5C310.952 248.528 315.952 249.861 321.5 248.5Z" fill="#F8F7F7"/>
<path fill-rule="evenodd" clip-rule="evenodd" d="M162.5 281.5C162.5 292.167 162.5 302.833 162.5 313.5C161.671 306.345 161.171 299.011 161 291.5C146.264 298.319 131.098 300.152 115.5 297C111.154 296.304 107.154 294.804 103.5 292.5C116.113 292.954 128.78 292.454 141.5 291C149.086 288.869 156.086 285.702 162.5 281.5Z" fill="#DBD8CF"/>
<path fill-rule="evenodd" clip-rule="evenodd" d="M330.5 291.5C336.599 294.049 342.599 296.882 348.5 300C351.101 300.92 353.768 301.587 356.5 302C367.885 303.446 379.218 303.946 390.5 303.5C389.335 304.584 388.002 305.417 386.5 306C372.148 309.235 357.815 309.235 343.5 306C339.2 304.013 334.867 302.18 330.5 300.5C330.5 297.5 330.5 294.5 330.5 291.5Z" fill="#DAD8CF"/>
<path fill-rule="evenodd" clip-rule="evenodd" d="M342.5 347.5C351.801 348.387 361.134 348.721 370.5 348.5C362.344 349.657 354.01 349.823 345.5 349C344.263 348.768 343.263 348.268 342.5 347.5Z" fill="#E7C180"/>
<path fill-rule="evenodd" clip-rule="evenodd" d="M171.5 246.5C172.504 247.683 173.338 249.016 174 250.5C174.703 256.066 175.87 261.4 177.5 266.5C180.299 271.902 183.965 276.735 188.5 281C194.195 284.843 199.862 288.677 205.5 292.5C214.642 297.041 224.309 300.207 234.5 302C255.337 306.421 275.004 303.588 293.5 293.5C301.687 286.101 308.687 277.768 314.5 268.5C318.672 263.48 322.339 258.147 325.5 252.5C327.959 252.31 329.626 253.31 330.5 255.5C330.5 267.5 330.5 279.5 330.5 291.5C330.5 294.5 330.5 297.5 330.5 300.5C330.5 305.167 330.5 309.833 330.5 314.5C330.5 323.5 330.5 332.5 330.5 341.5C328.824 346.319 327.324 351.319 326 356.5C324.833 359 323 360.833 320.5 362C309.821 361.966 299.155 361.466 288.5 360.5C285.5 360.5 282.5 360.5 279.5 360.5C277.097 360.552 274.764 360.219 272.5 359.5C269.061 359.253 265.728 359.586 262.5 360.5C252.14 360.296 241.806 360.629 231.5 361.5C227.19 362.08 222.857 362.414 218.5 362.5C217.833 362.5 217.167 362.5 216.5 362.5C213.119 362.54 209.786 362.207 206.5 361.5C195.684 359.629 185.017 357.129 174.5 354C172.833 353 171.167 352 169.5 351C167.78 344.509 166.113 338.009 164.5 331.5C164.283 327.295 163.617 323.295 162.5 319.5C162.5 317.5 162.5 315.5 162.5 313.5C162.5 302.833 162.5 292.167 162.5 281.5C162.6 270.405 163.6 259.405 165.5 248.5C167.114 246.925 169.114 246.259 171.5 246.5Z" fill="#BE4B4A"/>
<path fill-rule="evenodd" clip-rule="evenodd" d="M252.5 312.5C250.052 313.473 247.385 313.806 244.5 313.5C244.5 315.167 244.5 316.833 244.5 318.5C243.1 317.9 242.1 316.9 241.5 315.5C238.518 315.037 235.518 314.704 232.5 314.5C230.372 313.371 228.039 313.204 225.5 314C223.618 314.152 221.951 314.985 220.5 316.5C218.259 317.621 215.925 318.787 213.5 320C212.226 320.977 212.226 321.811 213.5 322.5C215.105 323.918 216.105 325.752 216.5 328C216.164 329.03 215.497 329.53 214.5 329.5C213.504 329.586 212.671 329.252 212 328.5C210.576 321.312 207.409 320.645 202.5 326.5C205.313 329.446 207.646 332.779 209.5 336.5C210.167 334.833 210.833 333.167 211.5 331.5C212.714 333.38 214.048 333.713 215.5 332.5C218.829 332.215 221.829 332.882 224.5 334.5C220.76 337.599 219.593 341.599 221 346.5C224.955 351.461 229.122 351.795 233.5 347.5C233.902 344.523 234.902 341.857 236.5 339.5C236.833 340.5 237.5 341.167 238.5 341.5C238.66 343.199 238.494 344.866 238 346.5C236.982 345.294 236.482 345.627 236.5 347.5C236.608 348.442 236.941 349.275 237.5 350C247.793 351.266 258.126 351.766 268.5 351.5C268.843 349.517 268.176 348.183 266.5 347.5C265.603 343.42 265.269 339.42 265.5 335.5C266.914 334.376 268.414 333.376 270 332.5C270.333 329.833 270.667 327.167 271 324.5C271.333 326.5 271.667 328.5 272 330.5C272.451 328.071 273.285 327.904 274.5 330C273.199 331.616 273.199 333.116 274.5 334.5C276.297 335.73 278.297 336.396 280.5 336.5C279.742 332.267 281.409 329.601 285.5 328.5C286.672 328.919 287.672 329.585 288.5 330.5C288.833 330 289.167 329.5 289.5 329C288.66 327.233 287.327 325.899 285.5 325C282.204 323.489 278.871 322.323 275.5 321.5C274.71 322.609 274.21 323.942 274 325.5C273.331 323.41 272.164 321.743 270.5 320.5C269.127 318.793 267.461 317.46 265.5 316.5C264.081 315.549 262.415 315.216 260.5 315.5C260.5 314.5 260.5 313.5 260.5 312.5C278.965 311.271 294.799 304.271 308 291.5C312.667 285.5 317.333 279.5 322 273.5C322.18 291.544 322.68 309.544 323.5 327.5C322.471 335.931 320.971 344.265 319 352.5C315.725 354.92 312.225 355.087 308.5 353C295.167 352.833 281.833 352.667 268.5 352.5C248.443 352.5 228.443 353 208.5 354C197.748 351.269 187.081 348.436 176.5 345.5C174.021 336.628 172.188 327.628 171 318.5C170.333 303.167 170.333 287.833 171 272.5C173.448 276.615 176.281 280.448 179.5 284C200.386 302.023 224.72 311.523 252.5 312.5Z" fill="#D65E55"/>
<path fill-rule="evenodd" clip-rule="evenodd" d="M224.5 334.5C228.426 334.138 231.092 335.805 232.5 339.5C231.667 339.833 230.833 340.167 230 340.5C228.415 339.755 226.915 339.255 225.5 339C224.565 341.381 224.232 343.881 224.5 346.5C229.22 346.775 229.554 345.941 225.5 344C227.937 342.625 230.603 342.125 233.5 342.5C233.5 344.167 233.5 345.833 233.5 347.5C229.122 351.795 224.955 351.461 221 346.5C219.593 341.599 220.76 337.599 224.5 334.5Z" fill="#E7A39E"/>
<path fill-rule="evenodd" clip-rule="evenodd" d="M275.5 321.5C278.871 322.323 282.204 323.489 285.5 325C287.327 325.899 288.66 327.233 289.5 329C289.167 329.5 288.833 330 288.5 330.5C287.672 329.585 286.672 328.919 285.5 328.5C281.409 329.601 279.742 332.267 280.5 336.5C278.297 336.396 276.297 335.73 274.5 334.5C275.858 331.625 277.858 329.125 280.5 327C279.615 324.843 277.948 324.01 275.5 324.5C275.5 323.5 275.5 322.5 275.5 321.5Z" fill="#E69B95"/>
<path fill-rule="evenodd" clip-rule="evenodd" d="M220.5 316.5C222.028 316.517 222.528 317.184 222 318.5C220.414 319.376 218.914 320.376 217.5 321.5C219.634 321.902 221.634 321.902 223.5 321.5C222.167 322.833 220.833 324.167 219.5 325.5C219.833 325.833 220.167 326.167 220.5 326.5C222.173 324.914 224.173 324.247 226.5 324.5C226.5 325.5 226.5 326.5 226.5 327.5C223.286 328.388 220.286 329.721 217.5 331.5C217.492 328.455 217.159 325.455 216.5 322.5C215.5 322.5 214.5 322.5 213.5 322.5C212.226 321.811 212.226 320.977 213.5 320C215.925 318.787 218.259 317.621 220.5 316.5Z" fill="#E8A29D"/>
<path fill-rule="evenodd" clip-rule="evenodd" d="M265.5 316.5C267.461 317.46 269.127 318.793 270.5 320.5C270.52 322.143 269.853 323.476 268.5 324.5C269.374 326.747 269.708 329.08 269.5 331.5C268.5 331.5 267.5 331.5 266.5 331.5C266.5 329.5 266.5 327.5 266.5 325.5C265.5 325.5 264.5 325.5 263.5 325.5C263.5 326.5 263.5 327.5 263.5 328.5C260.05 329.244 258.384 327.91 258.5 324.5C259.5 324.5 260.5 324.5 261.5 324.5C261.833 321.833 262.167 319.167 262.5 316.5C263.5 316.5 264.5 316.5 265.5 316.5Z" fill="#E69E98"/>
<path fill-rule="evenodd" clip-rule="evenodd" d="M214.5 329.5C214.557 330.609 214.89 331.609 215.5 332.5C214.048 333.713 212.714 333.38 211.5 331.5C210.833 333.167 210.167 334.833 209.5 336.5C207.646 332.779 205.313 329.446 202.5 326.5C207.409 320.645 210.576 321.312 212 328.5C212.671 329.252 213.504 329.586 214.5 329.5Z" fill="#E69C96"/>
<path fill-rule="evenodd" clip-rule="evenodd" d="M252.5 312.5C255.167 312.5 257.833 312.5 260.5 312.5C260.5 313.5 260.5 314.5 260.5 315.5C262.415 315.216 264.081 315.549 265.5 316.5C264.5 316.5 263.5 316.5 262.5 316.5C262.167 319.167 261.833 321.833 261.5 324.5C260.5 324.5 259.5 324.5 258.5 324.5C258.384 327.91 260.05 329.244 263.5 328.5C263.5 327.5 263.5 326.5 263.5 325.5C264.5 325.5 265.5 325.5 266.5 325.5C266.5 327.5 266.5 329.5 266.5 331.5C267.5 331.5 268.5 331.5 269.5 331.5C269.708 329.08 269.374 326.747 268.5 324.5C269.853 323.476 270.52 322.143 270.5 320.5C272.164 321.743 273.331 323.41 274 325.5C274.21 323.942 274.71 322.609 275.5 321.5C275.5 322.5 275.5 323.5 275.5 324.5C277.948 324.01 279.615 324.843 280.5 327C277.858 329.125 275.858 331.625 274.5 334.5C273.199 333.116 273.199 331.616 274.5 330C273.285 327.904 272.451 328.071 272 330.5C271.667 328.5 271.333 326.5 271 324.5C270.667 327.167 270.333 329.833 270 332.5C268.414 333.376 266.914 334.376 265.5 335.5C265.269 339.42 265.603 343.42 266.5 347.5C268.176 348.183 268.843 349.517 268.5 351.5C258.126 351.766 247.793 351.266 237.5 350C236.941 349.275 236.608 348.442 236.5 347.5C236.482 345.627 236.982 345.294 238 346.5C238.494 344.866 238.66 343.199 238.5 341.5C240.574 343.715 240.907 346.215 239.5 349C241.134 349.494 242.801 349.66 244.5 349.5C243.737 346.859 243.57 344.192 244 341.5C245.685 339.983 247.185 338.316 248.5 336.5C247.667 336.167 246.833 335.833 246 335.5C244.145 336.244 242.479 337.244 241 338.5C239.431 335.734 237.264 335.068 234.5 336.5C235.193 337.518 235.859 338.518 236.5 339.5C234.902 341.857 233.902 344.523 233.5 347.5C233.5 345.833 233.5 344.167 233.5 342.5C230.603 342.125 227.937 342.625 225.5 344C229.554 345.941 229.22 346.775 224.5 346.5C224.232 343.881 224.565 341.381 225.5 339C226.915 339.255 228.415 339.755 230 340.5C230.833 340.167 231.667 339.833 232.5 339.5C231.092 335.805 228.426 334.138 224.5 334.5C221.829 332.882 218.829 332.215 215.5 332.5C214.89 331.609 214.557 330.609 214.5 329.5C215.497 329.53 216.164 329.03 216.5 328C216.105 325.752 215.105 323.918 213.5 322.5C214.5 322.5 215.5 322.5 216.5 322.5C217.159 325.455 217.492 328.455 217.5 331.5C220.286 329.721 223.286 328.388 226.5 327.5C226.5 326.5 226.5 325.5 226.5 324.5C224.173 324.247 222.173 324.914 220.5 326.5C220.167 326.167 219.833 325.833 219.5 325.5C220.833 324.167 222.167 322.833 223.5 321.5C221.634 321.902 219.634 321.902 217.5 321.5C218.914 320.376 220.414 319.376 222 318.5C222.528 317.184 222.028 316.517 220.5 316.5C221.951 314.985 223.618 314.152 225.5 314C228.039 313.204 230.372 313.371 232.5 314.5C230.833 314.5 229.167 314.5 227.5 314.5C227.238 315.978 227.571 317.311 228.5 318.5C229.736 317.754 231.07 317.421 232.5 317.5C232.726 320.249 232.393 322.916 231.5 325.5C233.045 326.452 234.712 326.785 236.5 326.5C235.841 323.545 235.508 320.545 235.5 317.5C237.5 317.833 239.5 318.167 241.5 318.5C241.5 317.5 241.5 316.5 241.5 315.5C242.1 316.9 243.1 317.9 244.5 318.5C244.5 316.833 244.5 315.167 244.5 313.5C247.385 313.806 250.052 313.473 252.5 312.5Z" fill="#D7645B"/>
<path fill-rule="evenodd" clip-rule="evenodd" d="M238.5 341.5C237.5 341.167 236.833 340.5 236.5 339.5C235.859 338.518 235.193 337.518 234.5 336.5C237.264 335.068 239.431 335.734 241 338.5C242.479 337.244 244.145 336.244 246 335.5C246.833 335.833 247.667 336.167 248.5 336.5C247.185 338.316 245.685 339.983 244 341.5C243.57 344.192 243.737 346.859 244.5 349.5C242.801 349.66 241.134 349.494 239.5 349C240.907 346.215 240.574 343.715 238.5 341.5Z" fill="#E8A7A2"/>
<path fill-rule="evenodd" clip-rule="evenodd" d="M266.5 347.5C268.137 349.124 267.803 350.124 265.5 350.5C263.397 348.379 260.897 346.713 258 345.5C257.588 349.403 255.421 351.07 251.5 350.5C253.127 345.936 252.794 341.602 250.5 337.5C253.676 336.003 256.342 336.67 258.5 339.5C259.722 337.022 261.722 336.022 264.5 336.5C264.116 340.489 264.783 344.155 266.5 347.5Z" fill="#E69E98"/>
<path fill-rule="evenodd" clip-rule="evenodd" d="M244.5 318.5C245.434 317.432 245.768 316.099 245.5 314.5C247.833 314.5 250.167 314.5 252.5 314.5C252.171 318.896 253.504 322.563 256.5 325.5C254.955 326.452 253.288 326.785 251.5 326.5C251.67 325.178 251.337 324.011 250.5 323C248.105 322.844 245.771 323.344 243.5 324.5C242.5 324.167 241.5 323.833 240.5 323.5C242.082 321.985 243.416 320.319 244.5 318.5Z" fill="#E69C96"/>
<path fill-rule="evenodd" clip-rule="evenodd" d="M232.5 314.5C235.518 314.704 238.518 315.037 241.5 315.5C241.5 316.5 241.5 317.5 241.5 318.5C239.5 318.167 237.5 317.833 235.5 317.5C235.508 320.545 235.841 323.545 236.5 326.5C234.712 326.785 233.045 326.452 231.5 325.5C232.393 322.916 232.726 320.249 232.5 317.5C231.07 317.421 229.736 317.754 228.5 318.5C227.571 317.311 227.238 315.978 227.5 314.5C229.167 314.5 230.833 314.5 232.5 314.5Z" fill="#E79C96"/>
<path fill-rule="evenodd" clip-rule="evenodd" d="M260.5 277.5C263.857 278.121 265.024 280.121 264 283.5C261.777 288.297 258.11 291.297 253 292.5C248.439 290.924 244.105 288.924 240 286.5C239.077 283.722 239.911 281.722 242.5 280.5C246.286 281.893 249.952 283.559 253.5 285.5C255.856 282.814 258.189 280.147 260.5 277.5Z" fill="#0A0A0A"/>
<path fill-rule="evenodd" clip-rule="evenodd" d="M301.5 261.5C303.658 263.22 306.325 264.053 309.5 264C311.659 265.059 313.326 266.559 314.5 268.5C308.687 277.768 301.687 286.101 293.5 293.5C279.404 294.743 274.738 288.743 279.5 275.5C290.295 276.004 297.628 271.337 301.5 261.5Z" fill="#F7DBD5"/>
<path fill-rule="evenodd" clip-rule="evenodd" d="M191.5 260.5C192.976 262.769 194.476 265.102 196 267.5C202.189 274.09 209.689 276.09 218.5 273.5C218.082 274.222 217.416 274.722 216.5 275C218.928 278.619 219.095 282.452 217 286.5C213.425 289.202 209.592 291.202 205.5 292.5C199.862 288.677 194.195 284.843 188.5 281C183.965 276.735 180.299 271.902 177.5 266.5C178.117 266.611 178.617 266.944 179 267.5C179.398 264.768 180.898 262.935 183.5 262C185.78 261.767 187.78 260.934 189.5 259.5C190.183 259.863 190.85 260.196 191.5 260.5Z" fill="#F7DBD5"/>
<path fill-rule="evenodd" clip-rule="evenodd" d="M272.5 359.5C274.764 360.219 277.097 360.552 279.5 360.5C279.083 365.715 280.083 370.549 282.5 375C286.768 375.031 290.768 376.031 294.5 378C297.259 380.574 296.926 382.74 293.5 384.5C287.863 385.663 282.196 385.83 276.5 385C272.891 381.705 270.891 377.538 270.5 372.5C271.024 368.096 271.691 363.763 272.5 359.5Z" fill="#FDFDFC"/>
<path fill-rule="evenodd" clip-rule="evenodd" d="M206.5 361.5C209.786 362.207 213.119 362.54 216.5 362.5C214.78 363.683 214.447 365.517 215.5 368C215.646 370.034 214.98 371.701 213.5 373C208.678 372.778 204.511 374.278 201 377.5C200.32 379.976 201.153 381.809 203.5 383C209.569 383.804 215.569 383.471 221.5 382C222.126 381.25 222.626 380.416 223 379.5C223.499 374.177 223.666 368.844 223.5 363.5C221.585 363.784 219.919 363.451 218.5 362.5C222.857 362.414 227.19 362.08 231.5 361.5C231.83 369.893 231.33 378.227 230 386.5C229.167 387.333 228.333 388.167 227.5 389C221.6 390.676 215.6 391.843 209.5 392.5C201.972 392.519 196.139 389.519 192 383.5C191.193 373.776 195.693 367.776 205.5 365.5C206.429 364.311 206.762 362.978 206.5 361.5Z" fill="#DAD6CC"/>
<path fill-rule="evenodd" clip-rule="evenodd" d="M216.5 362.5C217.167 362.5 217.833 362.5 218.5 362.5C219.919 363.451 221.585 363.784 223.5 363.5C223.666 368.844 223.499 374.177 223 379.5C222.626 380.416 222.126 381.25 221.5 382C215.569 383.471 209.569 383.804 203.5 383C201.153 381.809 200.32 379.976 201 377.5C204.511 374.278 208.678 372.778 213.5 373C214.98 371.701 215.646 370.034 215.5 368C214.447 365.517 214.78 363.683 216.5 362.5Z" fill="#FDFDFC"/>
<path fill-rule="evenodd" clip-rule="evenodd" d="M272.5 359.5C271.691 363.763 271.024 368.096 270.5 372.5C270.891 377.538 272.891 381.705 276.5 385C282.196 385.83 287.863 385.663 293.5 384.5C296.926 382.74 297.259 380.574 294.5 378C290.768 376.031 286.768 375.031 282.5 375C280.083 370.549 279.083 365.715 279.5 360.5C282.5 360.5 285.5 360.5 288.5 360.5C288.5 362.833 288.5 365.167 288.5 367.5C294.559 368.446 299.726 371.113 304 375.5C306.463 380.764 305.629 385.431 301.5 389.5C291.581 395.153 281.248 395.986 270.5 392C263.087 382.681 260.421 372.181 262.5 360.5C265.728 359.586 269.061 359.253 272.5 359.5Z" fill="#DAD7CC"/>
</svg>
