<svg width="500" height="500" viewBox="0 0 500 500" fill="none" xmlns="http://www.w3.org/2000/svg">
<path fill-rule="evenodd" clip-rule="evenodd" d="M351.654 38C352.701 41.0963 354.034 44.0963 355.654 47C354.049 49.8138 353.049 52.8138 352.654 56C355.373 56.1025 358.039 55.7692 360.654 55C364.075 57.5831 366.908 60.5831 369.154 64C369.926 63.8552 370.593 63.5219 371.154 63C371.652 60.0184 371.819 57.0184 371.654 54C373.569 54.2845 375.235 53.9511 376.654 53C379.918 54.4274 382.418 56.7608 384.154 60C387.167 64.3554 389.334 69.0221 390.654 74C389.947 77.2861 389.614 80.6194 389.654 84C386.967 83.8359 384.3 84.0026 381.654 84.5C381.197 84.914 380.863 85.414 380.654 86C382.63 87.8967 384.464 89.8967 386.154 92C386.121 95.5931 386.287 99.0931 386.654 102.5C387.654 103.167 388.654 103.167 389.654 102.5C392.266 100.61 395.099 99.1105 398.154 98C400.394 98.5362 402.227 99.7029 403.654 101.5C405.288 101.993 406.955 102.16 408.654 102C410.221 103.181 411.055 104.847 411.154 107C412.729 113.88 410.063 117.214 403.154 117C401.321 116.833 399.487 116.667 397.654 116.5C391.31 112.996 385.31 108.996 379.654 104.5C378.129 103.491 376.462 102.991 374.654 103C375.423 114.65 375.756 126.317 375.654 138C374.06 138.42 372.56 139.086 371.154 140C368.837 138.515 366.67 136.848 364.654 135C363.602 133.244 361.935 132.577 359.654 133C360.099 135.78 360.099 138.447 359.654 141C360.009 142.022 360.676 142.689 361.654 143C361.654 144.333 361.654 145.667 361.654 147C356.364 147.748 354.364 150.581 355.654 155.5C357.964 155.997 360.297 156.163 362.654 156C362.49 158.687 362.657 161.354 363.154 164C365.15 164.841 366.983 164.508 368.654 163C370.464 159.189 373.464 157.523 377.654 158C378.363 158.904 379.363 159.237 380.654 159C381.096 162.654 381.43 166.321 381.654 170C380.321 170.667 378.987 171.333 377.654 172C375.777 173.159 375.277 174.826 376.154 177C378.746 178.81 381.58 180.144 384.654 181C385.542 183.554 385.875 186.221 385.654 189C376.816 182.7 367.15 177.867 356.654 174.5C349.856 169.101 342.189 165.267 333.654 163C332.856 162.543 332.523 161.876 332.654 161C333.93 160.114 333.93 159.114 332.654 158C331.108 156.816 329.441 155.816 327.654 155C330.477 145.982 327.977 143.982 320.154 149C316.804 147.525 313.304 146.858 309.654 147C309.654 149.667 309.654 152.333 309.654 155C300.166 152.298 290.832 149.298 281.654 146C284.147 141.769 287.147 141.269 290.654 144.5C294.356 145.893 296.356 144.726 296.654 141C296.56 138.811 295.893 136.811 294.654 135C302.246 131.452 302.413 128.118 295.154 125C293.282 125.568 291.449 126.235 289.654 127C287.502 122.59 284.169 120.923 279.654 122C278.688 123.896 278.355 125.896 278.654 128C277.195 127.933 275.862 128.266 274.654 129C272.321 129 269.987 129 267.654 129C267.797 130.762 267.463 132.429 266.654 134C267.009 135.022 267.676 135.689 268.654 136C269.646 135.828 270.312 136.162 270.654 137C272.229 138.614 272.895 140.614 272.654 143C269.987 143 267.321 143 264.654 143C256.697 141.84 248.697 141.007 240.654 140.5C240.11 139.783 239.443 139.283 238.654 139C237.279 136.79 235.446 135.123 233.154 134C232.321 134.333 231.487 134.667 230.654 135C229.793 137.411 228.46 139.411 226.654 141C224.654 141 222.654 141 220.654 141C218.627 141.162 216.627 140.995 214.654 140.5C218.119 138.037 221.285 135.204 224.154 132C229.458 124.688 234.792 117.355 240.154 110C240.825 109.248 241.658 108.914 242.654 109C241.739 111.428 240.572 113.761 239.154 116C237.987 120.167 239.487 121.667 243.654 120.5C248.09 115.382 252.09 115.382 255.654 120.5C257.499 121.628 259.499 122.128 261.654 122C261.488 117.654 261.655 113.321 262.154 109C265.4 107.755 268.567 106.421 271.654 105C271.824 103.678 271.491 102.511 270.654 101.5C267.488 99.9434 264.154 99.1101 260.654 99C260.654 95.6667 260.654 92.3333 260.654 89C271.879 78.7096 283.546 68.8762 295.654 59.5C300.708 54.4459 305.708 49.4459 310.654 44.5C313.482 42.2519 316.482 40.2519 319.654 38.5C326.948 36.5824 334.448 35.4157 342.154 35C345.719 35.0482 348.886 36.0482 351.654 38Z" fill="#2E7AFA"/>
<path fill-rule="evenodd" clip-rule="evenodd" d="M351.654 38C358.375 39.5738 364.708 42.0738 370.654 45.5C373.272 47.6057 375.272 50.1057 376.654 53C375.235 53.9511 373.569 54.2845 371.654 54C371.819 57.0184 371.652 60.0184 371.154 63C370.593 63.5219 369.926 63.8552 369.154 64C366.908 60.5831 364.075 57.5831 360.654 55C358.039 55.7692 355.373 56.1025 352.654 56C353.049 52.8138 354.049 49.8138 355.654 47C354.034 44.0963 352.701 41.0963 351.654 38Z" fill="#EAD399"/>
<path fill-rule="evenodd" clip-rule="evenodd" d="M342.654 69.9996C341.658 69.9138 340.825 70.2472 340.154 70.9996C339.906 74.419 339.406 77.7523 338.654 80.9996C337.124 83.3471 335.124 83.5137 332.654 81.4996C330.943 79.0434 329.61 76.3767 328.654 73.4996C323.985 73.6619 319.319 74.1619 314.654 74.9996C314.428 72.2504 314.761 69.5837 315.654 66.9996C318.493 64.6603 321.159 62.1603 323.654 59.4996C322.75 55.3882 322.417 51.2216 322.654 46.9996C327.701 46.3643 331.368 48.3643 333.654 52.9996C335.767 49.7783 338.767 48.445 342.654 48.9996C342.331 52.7256 342.665 56.3923 343.654 59.9996C349.064 61.3028 350.398 64.1361 347.654 68.4996C346.129 69.5082 344.462 70.0082 342.654 69.9996Z" fill="#EDD69A"/>
<path fill-rule="evenodd" clip-rule="evenodd" d="M342.654 70.0005C341.58 73.9309 340.246 77.5976 338.654 81.0005C339.406 77.7532 339.906 74.4199 340.154 71.0005C340.825 70.2481 341.658 69.9147 342.654 70.0005Z" fill="#5A86D4"/>
<path fill-rule="evenodd" clip-rule="evenodd" d="M390.654 74.0005C391.65 73.9147 392.483 74.2481 393.154 75.0005C397.312 84.6394 402.479 93.6394 408.654 102C406.955 102.161 405.288 101.994 403.654 101.5C402.227 99.7034 400.394 98.5367 398.154 98.0005C395.099 99.111 392.266 100.611 389.654 102.5C388.654 103.167 387.654 103.167 386.654 102.5C386.287 99.0936 386.121 95.5936 386.154 92.0005C384.464 89.8972 382.63 87.8972 380.654 86.0005C380.863 85.4145 381.197 84.9145 381.654 84.5005C384.3 84.0031 386.967 83.8364 389.654 84.0005C389.614 80.6199 389.947 77.2866 390.654 74.0005Z" fill="#E8D299"/>
<path fill-rule="evenodd" clip-rule="evenodd" d="M364.654 71.0003C365.53 70.8694 366.197 71.2028 366.654 72.0003C370.555 79.5011 372.555 87.5011 372.654 96.0003C370.048 99.622 367.382 103.289 364.654 107C363.148 108.247 361.648 108.247 360.154 107C359.923 102.916 359.256 98.9162 358.154 95.0003C356.182 94.1951 354.682 92.8618 353.654 91.0003C352.076 90.2025 350.41 89.7025 348.654 89.5003C347.294 87.5627 347.627 85.896 349.654 84.5003C353.888 83.944 357.888 82.7773 361.654 81.0003C361.737 77.3245 362.737 73.9911 364.654 71.0003Z" fill="#ECD59B"/>
<path fill-rule="evenodd" clip-rule="evenodd" d="M293.655 76.9999C295.417 76.8572 297.084 77.1905 298.655 77.9999C299.629 80.2426 299.963 82.5759 299.655 84.9999C301.028 84.8432 302.362 85.0099 303.655 85.4999C305.143 87.2171 306.976 88.3838 309.155 88.9999C309.822 89.9999 309.822 90.9999 309.155 91.9999C306.845 93.6988 305.012 95.6988 303.655 97.9999C304.747 101.831 306.08 105.498 307.655 109C301.957 107.902 296.79 105.569 292.155 102C290.031 103.122 288.198 104.622 286.655 106.5C285.021 106.994 283.354 107.16 281.655 107C281.363 103.734 282.03 100.734 283.655 97.9999C282.058 94.9 279.892 92.2333 277.155 89.9999C276.488 88.6666 276.488 87.3332 277.155 85.9999C281.351 85.3954 285.518 84.5621 289.655 83.4999C290.389 80.9392 291.722 78.7725 293.655 76.9999Z" fill="#ECD599"/>
<path fill-rule="evenodd" clip-rule="evenodd" d="M258.654 89.9998C258.996 89.1616 259.662 88.8282 260.654 88.9998C260.654 92.3331 260.654 95.6665 260.654 98.9998C259.987 95.9998 259.321 92.9998 258.654 89.9998Z" fill="#97A5C5"/>
<path fill-rule="evenodd" clip-rule="evenodd" d="M258.654 90C259.321 93 259.987 96 260.654 99C264.154 99.1101 267.488 99.9434 270.654 101.5C271.491 102.511 271.824 103.678 271.654 105C268.567 106.421 265.4 107.755 262.154 109C261.655 113.321 261.488 117.654 261.654 122C259.499 122.128 257.499 121.628 255.654 120.5C252.09 115.382 248.09 115.382 243.654 120.5C239.487 121.667 237.987 120.167 239.154 116C240.572 113.761 241.739 111.428 242.654 109C248.054 102.61 253.387 96.277 258.654 90Z" fill="#EBD49A"/>
<path fill-rule="evenodd" clip-rule="evenodd" d="M338.654 111C341.93 111.622 343.263 113.622 342.654 117C353.786 116.557 355.453 120.224 347.654 128C353.926 136.564 352.093 138.897 342.154 135C339.83 136.946 337.496 138.946 335.154 141C334.382 140.855 333.715 140.522 333.154 140C332.656 137.018 332.489 134.018 332.654 131C329.989 129.956 327.322 128.789 324.654 127.5C323.748 125.801 323.415 123.967 323.654 122C327.654 121.333 331.654 120.667 335.654 120C335.078 116.388 336.078 113.388 338.654 111Z" fill="#ECD49B"/>
<path fill-rule="evenodd" clip-rule="evenodd" d="M281.654 146C278.769 146.306 276.102 145.973 273.654 145C273.654 142.333 273.654 139.667 273.654 137C272.654 137 271.654 137 270.654 137C270.312 136.162 269.646 135.828 268.654 136C268.654 134 268.654 132 268.654 130C270.889 130.295 272.889 129.961 274.654 129C275.862 128.266 277.195 127.933 278.654 128C278.355 125.896 278.688 123.896 279.654 122C284.169 120.923 287.502 122.59 289.654 127C291.449 126.235 293.282 125.568 295.154 125C302.413 128.118 302.246 131.452 294.654 135C295.893 136.811 296.56 138.811 296.654 141C296.356 144.726 294.356 145.893 290.654 144.5C287.147 141.269 284.147 141.769 281.654 146Z" fill="#EDD698"/>
<path fill-rule="evenodd" clip-rule="evenodd" d="M274.654 129C272.889 129.961 270.889 130.295 268.654 130C268.654 132 268.654 134 268.654 136C267.676 135.689 267.009 135.022 266.654 134C267.463 132.429 267.797 130.762 267.654 129C269.987 129 272.321 129 274.654 129Z" fill="#B1B8C4"/>
<path fill-rule="evenodd" clip-rule="evenodd" d="M364.654 135C363.446 134.266 362.113 133.933 360.654 134C361.313 136.955 361.646 139.955 361.654 143C360.676 142.689 360.009 142.022 359.654 141C360.099 138.447 360.099 135.78 359.654 133C361.935 132.577 363.602 133.244 364.654 135Z" fill="#93A8CF"/>
<path fill-rule="evenodd" clip-rule="evenodd" d="M238.654 139C237.46 140.277 235.794 140.944 233.654 141C231.077 141.516 228.744 141.516 226.654 141C228.46 139.411 229.793 137.411 230.654 135C231.487 134.667 232.321 134.333 233.154 134C235.446 135.123 237.279 136.79 238.654 139Z" fill="#ECD49E"/>
<path fill-rule="evenodd" clip-rule="evenodd" d="M364.655 135C366.671 136.848 368.838 138.515 371.155 140C372.561 139.086 374.061 138.42 375.655 138C376.421 143.86 377.421 149.694 378.655 155.5C378.627 156.57 378.294 157.403 377.655 158C373.465 157.523 370.465 159.189 368.655 163C366.988 163 365.322 163 363.655 163C363.957 160.441 363.623 158.107 362.655 156C360.298 156.163 357.965 155.997 355.655 155.5C354.365 150.581 356.365 147.748 361.655 147C361.655 145.667 361.655 144.333 361.655 143C361.647 139.955 361.314 136.955 360.655 134C362.114 133.933 363.447 134.266 364.655 135Z" fill="#ECD599"/>
<path fill-rule="evenodd" clip-rule="evenodd" d="M238.654 139C239.443 139.283 240.11 139.783 240.654 140.5C248.697 141.007 256.697 141.84 264.654 143C267.427 144.157 270.427 144.824 273.654 145C276.102 145.973 278.769 146.306 281.654 146C290.832 149.298 300.166 152.298 309.654 155C317.065 156.632 324.232 158.966 331.154 162C331.537 161.444 332.037 161.111 332.654 161C332.523 161.876 332.856 162.543 333.654 163C342.189 165.267 349.856 169.101 356.654 174.5C367.15 177.867 376.816 182.7 385.654 189C389.857 191.199 392.523 194.699 393.654 199.5C394.584 204.95 394.917 210.45 394.654 216C393.654 216 392.654 216 391.654 216C389.505 214.752 387.505 213.252 385.654 211.5C380.469 211.308 376.135 209.308 372.654 205.5C371 204.892 369.333 204.392 367.654 204C366.495 202.25 364.828 201.25 362.654 201C360.218 199.629 357.551 198.629 354.654 198C347.959 194.546 340.959 191.879 333.654 190C333.74 189.004 333.406 188.171 332.654 187.5C330.414 186.523 328.081 186.023 325.654 186C311.838 181.046 297.838 176.713 283.654 173C280.702 171.09 277.368 170.09 273.654 170C268.454 167.294 262.787 165.96 256.654 166C250.001 165.446 243.334 165.112 236.654 165C235.945 164.096 234.945 163.763 233.654 164C220.15 162.931 206.483 162.931 192.654 164C192.654 162.333 192.654 160.667 192.654 159C196.848 152.787 201.848 147.287 207.654 142.5C212.173 142.325 216.507 141.825 220.654 141C222.654 141 224.654 141 226.654 141C228.744 141.516 231.077 141.516 233.654 141C235.794 140.944 237.46 140.277 238.654 139Z" fill="#C09073"/>
<path fill-rule="evenodd" clip-rule="evenodd" d="M270.654 137C271.654 137 272.654 137 273.654 137C273.654 139.667 273.654 142.333 273.654 145C270.427 144.824 267.427 144.157 264.654 143C267.321 143 269.987 143 272.654 143C272.895 140.614 272.229 138.614 270.654 137Z" fill="#768AC9"/>
<path fill-rule="evenodd" clip-rule="evenodd" d="M332.654 161C332.037 161.111 331.537 161.444 331.154 162C324.232 158.966 317.065 156.632 309.654 155C309.654 152.333 309.654 149.667 309.654 147C313.304 146.858 316.804 147.525 320.154 149C327.977 143.982 330.477 145.982 327.654 155C329.441 155.816 331.108 156.816 332.654 158C333.93 159.114 333.93 160.114 332.654 161Z" fill="#ECD59A"/>
<path fill-rule="evenodd" clip-rule="evenodd" d="M362.655 156C363.623 158.107 363.957 160.441 363.655 163C365.322 163 366.988 163 368.655 163C366.984 164.508 365.151 164.841 363.155 164C362.658 161.354 362.491 158.687 362.655 156Z" fill="#BCC0C8"/>
<path fill-rule="evenodd" clip-rule="evenodd" d="M192.655 159C192.655 160.667 192.655 162.333 192.655 164C206.484 162.931 220.151 162.931 233.655 164C225.471 163.674 217.471 164.008 209.655 165C208.655 165 207.655 165 206.655 165C206.939 166.915 206.606 168.581 205.655 170C205.655 168.333 205.655 166.667 205.655 165C200.988 165 196.322 165 191.655 165C191.36 162.765 191.694 160.765 192.655 159Z" fill="#998899"/>
<path fill-rule="evenodd" clip-rule="evenodd" d="M233.654 164C234.945 163.763 235.945 164.096 236.654 165C227.805 164.674 219.138 165.007 210.654 166C209.987 166 209.654 165.667 209.654 165C217.47 164.008 225.47 163.674 233.654 164Z" fill="#7B83BC"/>
<path fill-rule="evenodd" clip-rule="evenodd" d="M191.654 165C196.321 165 200.987 165 205.654 165C205.654 166.667 205.654 168.333 205.654 170C204.72 171.068 204.386 172.401 204.654 174C201.321 174 197.987 174 194.654 174C194.497 175.373 194.664 176.707 195.154 178C197.141 178.718 198.975 179.718 200.654 181C198.921 184.455 198.588 187.955 199.654 191.5C203.59 190.123 207.257 187.956 210.654 185C213.586 188.297 217.253 189.63 221.654 189C221.392 185.809 220.059 183.142 217.654 181C219.013 178.808 220.846 177.141 223.154 176C224.069 173.58 223.236 172.247 220.654 172C218.27 172.512 215.937 173.179 213.654 174C211.602 171.704 210.602 169.037 210.654 166C219.138 165.007 227.805 164.674 236.654 165C243.334 165.112 250.001 165.446 256.654 166C256.721 169.266 255.055 170.766 251.654 170.5C248.317 172.078 247.983 173.912 250.654 176C251.722 176.934 253.055 177.268 254.654 177C254.654 179.333 254.654 181.667 254.654 184C256.253 184.268 257.586 183.934 258.654 183C262.475 178.878 266.142 179.045 269.654 183.5C272.279 184.223 273.946 183.223 274.654 180.5C274.006 179.06 273.673 177.56 273.654 176C275.321 176 276.987 176 278.654 176C279.558 175.291 279.891 174.291 279.654 173C280.987 173 282.321 173 283.654 173C297.838 176.713 311.838 181.046 325.654 186C324.963 187.522 323.796 188.522 322.154 189C318.569 186.958 314.736 185.624 310.654 185C310.492 187.027 310.659 189.027 311.154 191C312.375 192.274 313.208 193.774 313.654 195.5C311.28 197.777 308.78 199.943 306.154 202C305.356 203.759 305.523 205.426 306.654 207C310.933 207.774 315.267 208.274 319.654 208.5C324.503 219.998 327.503 219.498 328.654 207C331.931 207.284 335.097 206.951 338.154 206C339.135 201.296 337.469 197.963 333.154 196C332.664 193.955 332.831 191.955 333.654 190C340.959 191.879 347.959 194.546 354.654 198C354.654 198.667 354.654 199.333 354.654 200C354.057 200.235 353.724 200.735 353.654 201.5C354.654 203.167 355.654 204.833 356.654 206.5C355.043 208.71 354.376 211.21 354.654 214C359.399 211.811 363.233 212.811 366.154 217C368.311 216.115 369.144 214.448 368.654 212C369.654 212 370.654 212 371.654 212C371.811 210.627 371.644 209.293 371.154 208C369.083 207.397 367.916 206.064 367.654 204C369.333 204.392 371 204.892 372.654 205.5C376.135 209.308 380.469 211.308 385.654 211.5C387.505 213.252 389.505 214.752 391.654 216C395.251 217.926 398.251 220.593 400.654 224C397.181 227.205 394.514 231.039 392.654 235.5C391.078 237.495 391.411 238.995 393.654 240C396.398 240.991 399.065 240.657 401.654 239C404.779 238.021 408.112 237.687 411.654 238C417.221 244.744 423.054 251.411 429.154 258C430.978 261.926 431.144 265.926 429.654 270C424.802 273.266 420.802 272.599 417.654 268C416.649 264.302 415.316 260.635 413.654 257C412.821 256.667 411.987 256.333 411.154 256C408.928 256.533 406.761 257.2 404.654 258C400.896 259.627 397.896 258.627 395.654 255C393.624 254.328 391.624 253.662 389.654 253C386.873 252.054 384.873 250.221 383.654 247.5C377.88 245.779 372.214 243.779 366.654 241.5C366.055 239.878 365.388 238.378 364.654 237C365.134 233.815 364.468 230.981 362.654 228.5C357.999 228.664 353.333 228.664 348.654 228.5C346.632 224.966 343.632 223.466 339.654 224C339.654 225.667 339.654 227.333 339.654 229C338.104 228.059 336.438 227.393 334.654 227C323.532 220.201 311.532 215.201 298.654 212C280.015 206.26 261.015 201.76 241.654 198.5C221.015 197.129 200.349 196.629 179.654 197C177.523 196.186 175.19 195.686 172.654 195.5C156.913 195.318 141.247 194.818 125.654 194C125.365 190.394 125.698 186.894 126.654 183.5C135.07 180.063 143.736 177.563 152.654 176C151.704 178.568 151.704 181.068 152.654 183.5C153.654 184.167 154.654 184.167 155.654 183.5C157.872 181.224 160.539 179.724 163.654 179C166.391 180.451 169.224 181.784 172.154 183C173.099 182.595 173.766 181.928 174.154 181C174.651 178.69 174.817 176.357 174.654 174C174.654 173 174.654 172 174.654 171C180.728 169.779 186.394 167.779 191.654 165Z" fill="#2E7AFA"/>
<path fill-rule="evenodd" clip-rule="evenodd" d="M256.654 166C262.787 165.96 268.454 167.294 273.654 170C274.338 171.685 275.671 172.685 277.654 173C278.54 173.825 278.873 174.825 278.654 176C276.987 176 275.321 176 273.654 176C273.673 177.56 274.006 179.06 274.654 180.5C273.946 183.223 272.279 184.223 269.654 183.5C266.142 179.045 262.475 178.878 258.654 183C257.654 183 256.654 183 255.654 183C255.654 180.667 255.654 178.333 255.654 176C253.987 176 252.321 176 250.654 176C247.983 173.912 248.317 172.078 251.654 170.5C255.055 170.766 256.721 169.266 256.654 166Z" fill="#EDD596"/>
<path fill-rule="evenodd" clip-rule="evenodd" d="M209.655 165C209.655 165.667 209.988 166 210.655 166C210.603 169.037 211.603 171.704 213.655 174C215.938 173.179 218.271 172.512 220.655 172C223.237 172.247 224.07 173.58 223.155 176C220.847 177.141 219.014 178.808 217.655 181C220.06 183.142 221.393 185.809 221.655 189C217.254 189.63 213.587 188.297 210.655 185C207.258 187.956 203.591 190.123 199.655 191.5C198.589 187.955 198.922 184.455 200.655 181C198.976 179.718 197.142 178.718 195.155 178C194.665 176.707 194.498 175.373 194.655 174C197.988 174 201.322 174 204.655 174C204.387 172.401 204.721 171.068 205.655 170C206.606 168.581 206.939 166.915 206.655 165C207.655 165 208.655 165 209.655 165Z" fill="#ECD59B"/>
<path fill-rule="evenodd" clip-rule="evenodd" d="M273.654 170C277.368 170.09 280.702 171.09 283.654 173C282.321 173 280.987 173 279.654 173C279.891 174.291 279.558 175.291 278.654 176C278.873 174.825 278.54 173.825 277.654 173C275.671 172.685 274.338 171.685 273.654 170Z" fill="#8892B9"/>
<path fill-rule="evenodd" clip-rule="evenodd" d="M381.654 170C383.498 171.779 384.164 174.112 383.654 177C382.703 175.581 382.37 173.915 382.654 172C380.987 172 379.321 172 377.654 172C378.987 171.333 380.321 170.667 381.654 170Z" fill="#8B8B9D"/>
<path fill-rule="evenodd" clip-rule="evenodd" d="M377.654 172C379.321 172 380.987 172 382.654 172C382.37 173.915 382.703 175.581 383.654 177C384.588 178.068 384.922 179.401 384.654 181C381.58 180.144 378.746 178.81 376.154 177C375.277 174.826 375.777 173.159 377.654 172Z" fill="#EBD69A"/>
<path fill-rule="evenodd" clip-rule="evenodd" d="M174.654 174C174.817 176.357 174.651 178.69 174.154 181C173.766 181.928 173.099 182.595 172.154 183C169.224 181.784 166.391 180.451 163.654 179C160.539 179.724 157.872 181.224 155.654 183.5C154.654 184.167 153.654 184.167 152.654 183.5C151.704 181.068 151.704 178.568 152.654 176C158.815 174.492 165.148 173.159 171.654 172C172.893 172.442 173.893 173.109 174.654 174Z" fill="#E7D19E"/>
<path fill-rule="evenodd" clip-rule="evenodd" d="M250.654 176C252.321 176 253.987 176 255.654 176C255.654 178.333 255.654 180.667 255.654 183C256.654 183 257.654 183 258.654 183C257.586 183.934 256.253 184.268 254.654 184C254.654 181.667 254.654 179.333 254.654 177C253.055 177.268 251.722 176.934 250.654 176Z" fill="#B9BFB2"/>
<path fill-rule="evenodd" clip-rule="evenodd" d="M325.654 186C328.081 186.023 330.414 186.523 332.654 187.5C333.406 188.171 333.74 189.004 333.654 190C332.831 191.955 332.664 193.955 333.154 196C337.469 197.963 339.135 201.296 338.154 206C335.097 206.951 331.931 207.284 328.654 207C327.503 219.498 324.503 219.998 319.654 208.5C315.267 208.274 310.933 207.774 306.654 207C305.523 205.426 305.356 203.759 306.154 202C308.78 199.943 311.28 197.777 313.654 195.5C313.208 193.774 312.375 192.274 311.154 191C310.659 189.027 310.492 187.027 310.654 185C314.736 185.624 318.569 186.958 322.154 189C323.796 188.522 324.963 187.522 325.654 186Z" fill="#EBD49B"/>
<path fill-rule="evenodd" clip-rule="evenodd" d="M125.654 194C141.247 194.818 156.913 195.318 172.654 195.5C175.19 195.686 177.523 196.186 179.654 197C169.938 206.73 162.605 218.064 157.654 231C151.459 227.318 145.959 222.651 141.154 217C137.715 212.441 134.048 208.108 130.154 204C127.946 200.967 126.446 197.634 125.654 194Z" fill="#135CBD"/>
<path fill-rule="evenodd" clip-rule="evenodd" d="M179.654 197C200.349 196.629 221.015 197.129 241.654 198.5C261.015 201.76 280.015 206.26 298.654 212C299.395 214.913 299.895 217.913 300.154 221C301.321 223.5 303.154 225.333 305.654 226.5C315.287 228.299 324.954 228.465 334.654 227C336.438 227.393 338.104 228.059 339.654 229C347.351 233.303 355.351 237.303 363.654 241C364.583 239.811 364.916 238.478 364.654 237C365.388 238.378 366.055 239.878 366.654 241.5C372.214 243.779 377.88 245.779 383.654 247.5C384.873 250.221 386.873 252.054 389.654 253C390.578 262.961 390.912 272.961 390.654 283C388.172 294.959 384.172 306.293 378.654 317C375.515 320.59 372.848 324.59 370.654 329C359.444 339.105 346.444 345.772 331.654 349C324.302 350.67 316.968 352.337 309.654 354C307.955 354.16 306.288 353.994 304.654 353.5C306.172 347.648 306.838 341.648 306.654 335.5C308.789 323.87 304.789 315.204 294.654 309.5C290.28 308.695 286.28 307.028 282.654 304.5C277.987 303.833 273.321 303.833 268.654 304.5C267.781 305.545 266.781 306.378 265.654 307C263.866 307.471 262.032 307.804 260.154 308C255.751 306.608 251.251 305.608 246.654 305C239.691 303.259 233.358 304.593 227.654 309C225.923 307.515 224.923 305.515 224.654 303C231.035 298.944 235.535 293.277 238.154 286C242.507 282.623 244.341 278.123 243.654 272.5C244.008 265.401 241.841 259.234 237.154 254C236.721 247.398 233.887 242.065 228.654 238C217.769 233.39 206.435 231.556 194.654 232.5C188.893 234.531 183.059 236.365 177.154 238C173.624 240.403 169.79 242.236 165.654 243.5C160.675 247.258 156.009 251.425 151.654 256C151.66 251.285 152.16 246.618 153.154 242C155.228 238.525 156.728 234.858 157.654 231C162.605 218.064 169.938 206.73 179.654 197Z" fill="#FBFBFC"/>
<path fill-rule="evenodd" clip-rule="evenodd" d="M354.654 198C357.551 198.629 360.218 199.629 362.654 201C362.237 201.624 361.57 201.957 360.654 202C358.82 200.746 356.82 200.079 354.654 200C354.654 199.333 354.654 198.667 354.654 198Z" fill="#8A8FAF"/>
<path fill-rule="evenodd" clip-rule="evenodd" d="M354.654 200C356.82 200.079 358.82 200.746 360.654 202C361.57 201.957 362.237 201.624 362.654 201C364.828 201.25 366.495 202.25 367.654 204C367.916 206.064 369.083 207.397 371.154 208C371.644 209.293 371.811 210.627 371.654 212C370.654 212 369.654 212 368.654 212C369.144 214.448 368.311 216.115 366.154 217C363.233 212.811 359.399 211.811 354.654 214C354.376 211.21 355.043 208.71 356.654 206.5C355.654 204.833 354.654 203.167 353.654 201.5C353.724 200.735 354.057 200.235 354.654 200Z" fill="#E9D49C"/>
<path fill-rule="evenodd" clip-rule="evenodd" d="M202.655 205C209.996 204.834 217.329 205 224.655 205.5C236.112 213.341 235.112 219.008 221.655 222.5C213.576 223.401 205.576 223.068 197.655 221.5C195.067 217.739 194.234 213.573 195.155 209C197.924 208.034 200.424 206.701 202.655 205Z" fill="#C9CDE0"/>
<path fill-rule="evenodd" clip-rule="evenodd" d="M298.654 212C311.532 215.201 323.532 220.201 334.654 227C324.954 228.465 315.287 228.299 305.654 226.5C303.154 225.333 301.321 223.5 300.154 221C299.895 217.913 299.395 214.913 298.654 212Z" fill="#CFD4E5"/>
<path fill-rule="evenodd" clip-rule="evenodd" d="M98.6545 286C96.7917 282.957 94.125 280.957 90.6545 280C91.0912 272.774 90.0912 265.774 87.6545 259C91.2529 257.114 94.9196 255.114 98.6545 253C100.167 250.965 100.834 248.631 100.654 246C101.338 237.165 97.6718 234.332 89.6545 237.5C88.1177 238.61 87.451 240.11 87.6545 242C94.7397 240.345 96.5731 243.011 93.1545 250C88.7413 251.132 84.2413 251.299 79.6545 250.5C72.4524 236.873 76.1191 227.873 90.6545 223.5C92.9878 222.833 95.3212 222.833 97.6545 223.5C99.8726 225.776 102.539 227.276 105.654 228C109.543 235.869 110.709 244.202 109.154 253C108.029 260.396 105.362 267.062 101.154 273C100.363 277.387 99.5299 281.721 98.6545 286Z" fill="#B27956"/>
<path fill-rule="evenodd" clip-rule="evenodd" d="M400.654 224C405.283 227.932 408.95 232.599 411.654 238C408.112 237.687 404.779 238.021 401.654 239C398.917 238.901 396.25 239.235 393.654 240C391.411 238.995 391.078 237.495 392.654 235.5C394.514 231.039 397.181 227.205 400.654 224Z" fill="#E9D399"/>
<path fill-rule="evenodd" clip-rule="evenodd" d="M364.654 237C364.916 238.478 364.583 239.811 363.654 241C355.351 237.303 347.351 233.303 339.654 229C339.654 227.333 339.654 225.667 339.654 224C343.632 223.466 346.632 224.966 348.654 228.5C353.333 228.664 357.999 228.664 362.654 228.5C364.468 230.981 365.134 233.815 364.654 237Z" fill="#EBD69F"/>
<path fill-rule="evenodd" clip-rule="evenodd" d="M224.654 303C206.534 313.22 190.701 310.554 177.154 295C175.858 291.929 174.692 288.929 173.654 286C171.563 281.859 170.563 277.359 170.654 272.5C170.937 267.906 171.437 263.406 172.154 259C168.117 262.044 164.283 265.377 160.654 269C157.542 270.684 154.208 271.35 150.654 271C149.209 265.805 149.542 260.805 151.654 256C156.009 251.425 160.675 247.258 165.654 243.5C169.79 242.236 173.624 240.403 177.154 238C183.059 236.365 188.893 234.531 194.654 232.5C206.435 231.556 217.769 233.39 228.654 238C233.887 242.065 236.721 247.398 237.154 254C241.841 259.234 244.008 265.401 243.654 272.5C244.341 278.123 242.507 282.623 238.154 286C235.535 293.277 231.035 298.944 224.654 303Z" fill="#060506"/>
<path fill-rule="evenodd" clip-rule="evenodd" d="M345.655 285C343.787 289.406 341.621 293.739 339.155 298C335.994 302.009 332.161 305.009 327.655 307C317.712 310.44 307.712 310.106 297.655 306C287.506 303.52 281.506 297.186 279.655 287C279.468 281.655 279.135 276.322 278.655 271C278.335 267.602 278.668 264.268 279.655 261C282.631 255.915 285.131 250.581 287.155 245C295.693 234.705 306.526 231.372 319.655 235C328.961 238.99 338.628 241.99 348.655 244C351.199 245.519 353.866 246.852 356.655 248C361.872 253.289 367.872 257.622 374.655 261C376.735 265.52 375.402 268.52 370.655 270C363.226 267.969 356.226 264.969 349.655 261C351.449 269.588 350.116 277.588 345.655 285Z" fill="#050505"/>
<path fill-rule="evenodd" clip-rule="evenodd" d="M115.654 231C116.278 239.276 116.278 247.609 115.654 256C113.775 262.814 111.274 269.481 108.154 276C107.66 277.634 107.494 279.301 107.654 281C107.654 282.667 107.654 284.333 107.654 286C104.917 286.551 102.25 287.551 99.654 289C98.7683 288.175 98.435 287.175 98.654 286C99.5294 281.721 100.363 277.387 101.154 273C105.362 267.062 108.028 260.396 109.154 253C110.709 244.202 109.542 235.869 105.654 228C102.539 227.276 99.8721 225.776 97.654 223.5C95.3207 222.833 92.9873 222.833 90.654 223.5C76.1186 227.873 72.4519 236.873 79.654 250.5C84.2408 251.299 88.7408 251.132 93.154 250C96.5726 243.011 94.7392 240.345 87.654 242C87.4505 240.11 88.1172 238.61 89.654 237.5C97.6713 234.332 101.338 237.165 100.654 246C100.833 248.631 100.167 250.965 98.654 253C94.9191 255.114 91.2524 257.114 87.654 259C90.0907 265.774 91.0907 272.774 90.654 280C88.2044 279.798 85.871 280.131 83.654 281C83.8202 274.658 83.6535 268.325 83.154 262C76.6756 258.075 72.3423 252.408 70.154 245C69.6674 238.225 70.334 231.558 72.154 225C75.0603 222.463 78.227 220.296 81.654 218.5C88.2797 217.195 94.9464 216.862 101.654 217.5C108.867 219.364 113.534 223.864 115.654 231Z" fill="#A56358"/>
<path fill-rule="evenodd" clip-rule="evenodd" d="M401.654 239C399.065 240.657 396.398 240.991 393.654 240C396.25 239.235 398.917 238.901 401.654 239Z" fill="#859ED8"/>
<path fill-rule="evenodd" clip-rule="evenodd" d="M305.654 272C302.294 271.884 298.961 271.551 295.654 271C293.398 269.075 291.565 266.741 290.154 264C287.874 259.182 288.374 254.682 291.654 250.5C295.812 247.339 300.312 244.839 305.154 243C308.047 244.211 310.714 245.878 313.154 248C313.321 250 313.487 252 313.654 254C313.122 258.377 312.289 262.71 311.154 267C309.802 269.249 307.969 270.916 305.654 272Z" fill="#F3F3F3"/>
<path fill-rule="evenodd" clip-rule="evenodd" d="M115.654 231C116.68 233.957 117.347 237.124 117.654 240.5C117.174 245.838 116.507 251.005 115.654 256C116.278 247.609 116.278 239.276 115.654 231Z" fill="#7C5068"/>
<path fill-rule="evenodd" clip-rule="evenodd" d="M214.654 246C218.462 245.663 222.128 246.163 225.654 247.5C231.194 255.773 230.694 263.606 224.154 271C217.135 278.096 210.968 277.429 205.654 269C203.375 259.276 206.375 251.609 214.654 246Z" fill="#F6F6F6"/>
<path fill-rule="evenodd" clip-rule="evenodd" d="M417.654 268C412.748 267.079 408.582 264.745 405.154 261C404.671 260.052 404.505 259.052 404.654 258C406.761 257.2 408.928 256.533 411.154 256C411.987 256.333 412.821 256.667 413.654 257C415.316 260.635 416.649 264.302 417.654 268Z" fill="#E2D09F"/>
<path fill-rule="evenodd" clip-rule="evenodd" d="M173.654 286C173.916 287.478 173.583 288.811 172.654 290C166.501 295.669 164.334 302.669 166.154 311C167.895 313.809 169.062 316.809 169.654 320C166.292 315.962 163.292 311.629 160.654 307C159.829 306.114 158.829 305.781 157.654 306C156.507 301.059 154.674 296.392 152.154 292C151.32 285.831 150.487 279.665 149.654 273.5C149.682 272.43 150.015 271.597 150.654 271C154.208 271.35 157.542 270.684 160.654 269C164.283 265.377 168.117 262.044 172.154 259C171.437 263.406 170.937 267.906 170.654 272.5C170.563 277.359 171.563 281.859 173.654 286Z" fill="#F9F9FA"/>
<path fill-rule="evenodd" clip-rule="evenodd" d="M389.654 253C391.624 253.662 393.624 254.328 395.654 255C397.896 258.627 400.896 259.627 404.654 258C404.505 259.052 404.671 260.052 405.154 261C408.582 264.745 412.748 267.079 417.654 268C420.802 272.599 424.802 273.266 429.654 270C429.577 271.25 428.91 272.083 427.654 272.5C415.912 277.821 403.579 281.321 390.654 283C390.912 272.961 390.578 262.961 389.654 253Z" fill="#165DBD"/>
<path fill-rule="evenodd" clip-rule="evenodd" d="M295.654 271C298.961 271.551 302.294 271.884 305.654 272C302.195 273.365 298.862 273.031 295.654 271Z" fill="#696969"/>
<path fill-rule="evenodd" clip-rule="evenodd" d="M90.6543 280C94.1248 280.957 96.7915 282.957 98.6543 286C98.4353 287.175 98.7686 288.175 99.6543 289C102.25 287.551 104.917 286.551 107.654 286C114.713 288.059 117.713 292.725 116.654 300C117.05 302.544 116.383 304.711 114.654 306.5C110.808 308.036 106.808 308.869 102.654 309C106.68 299.35 104.68 297.684 96.6543 304C93.2386 306.058 89.5719 307.392 85.6543 308C84.321 308 82.9876 308 81.6543 308C79.4619 305.795 78.1286 303.129 77.6543 300C78.3538 295.702 78.6871 291.369 78.6543 287C79.8633 284.559 81.53 282.559 83.6543 281C85.8713 280.131 88.2047 279.798 90.6543 280Z" fill="#F8F8FA"/>
<path fill-rule="evenodd" clip-rule="evenodd" d="M278.655 271C279.135 276.322 279.468 281.655 279.655 287C277.844 281.721 277.511 276.388 278.655 271Z" fill="#6E6E6E"/>
<path fill-rule="evenodd" clip-rule="evenodd" d="M123.655 285C122.329 290.079 122.662 295.079 124.655 300C124.655 312.333 124.655 324.667 124.655 337C123.711 343.494 123.044 350.161 122.655 357C112.91 363.481 104.41 362.147 97.1546 353C96.6611 351.366 96.4944 349.699 96.6546 348C97.4684 345.869 97.9684 343.536 98.1546 341C98.6744 345.272 100.174 349.105 102.655 352.5C108.481 354.131 112.648 352.298 115.155 347C117.679 331.246 118.179 315.579 116.655 300C117.714 292.725 114.714 288.059 107.655 286C107.655 284.333 107.655 282.667 107.655 281C113.938 278.937 119.271 280.27 123.655 285Z" fill="#2B78F7"/>
<path fill-rule="evenodd" clip-rule="evenodd" d="M345.654 285C345.733 286.43 345.4 287.764 344.654 289C353.184 289.837 360.184 293.503 365.654 300C368.351 306.713 368.184 313.379 365.154 320C355.747 329.705 344.413 336.039 331.154 339C313.101 338.638 305.934 329.805 309.654 312.5C313.179 312.321 316.513 311.821 319.654 311C323.107 310.963 325.773 309.629 327.654 307C332.16 305.009 335.993 302.009 339.154 298C341.62 293.739 343.786 289.406 345.654 285Z" fill="#FEE7E3"/>
<path fill-rule="evenodd" clip-rule="evenodd" d="M157.654 306C158.829 305.781 159.829 306.114 160.654 307C163.292 311.629 166.292 315.962 169.654 320C176.694 329.531 185.694 336.698 196.654 341.5C200.581 342.224 204.248 343.391 207.654 345C212.684 350.658 217.517 356.658 222.154 363C228.783 377.304 238.45 388.971 251.154 398C252.32 401.003 253.987 403.67 256.154 406C257.248 411.833 259.748 416.833 263.654 421C264.789 422.713 266.456 423.38 268.654 423C268.654 425.667 268.654 428.333 268.654 431C261.987 431 255.321 431 248.654 431C243.791 431.319 239.124 430.986 234.654 430C224.307 427.193 213.641 424.86 202.654 423C192.116 419.483 181.616 415.816 171.154 412C161.184 406.939 151.684 401.273 142.654 395C142.654 394.333 142.321 394 141.654 394C143.541 378.458 146.541 363.124 150.654 348C150.267 346.78 149.434 346.113 148.154 346C143.418 349.079 138.252 351.079 132.654 352C132.996 346.952 133.662 341.952 134.654 337C136.71 329.055 137.043 321.055 135.654 313C135.824 306.533 135.158 300.2 133.654 294C133.714 293.457 134.047 293.124 134.654 293C142.5 297.087 150.166 301.421 157.654 306Z" fill="#2D7AFB"/>
<path fill-rule="evenodd" clip-rule="evenodd" d="M78.6543 287C78.6871 291.369 78.3538 295.702 77.6543 300C77.0072 299.226 76.6738 298.226 76.6543 297C77.0549 293.476 77.7215 290.142 78.6543 287Z" fill="#9799BC"/>
<path fill-rule="evenodd" clip-rule="evenodd" d="M173.654 286C174.692 288.929 175.858 291.929 177.154 295C190.701 310.554 206.534 313.22 224.654 303C224.923 305.515 225.923 307.515 227.654 309C224.603 310.852 221.27 312.186 217.654 313C217.818 315.687 217.651 318.354 217.154 321C215.508 323.109 214.342 325.443 213.654 328C212.091 333.106 210.924 338.439 210.154 344C209.483 344.752 208.65 345.086 207.654 345C204.248 343.391 200.581 342.224 196.654 341.5C185.694 336.698 176.694 329.531 169.654 320C169.062 316.809 167.895 313.809 166.154 311C164.334 302.669 166.501 295.669 172.654 290C173.583 288.811 173.916 287.478 173.654 286Z" fill="#FBE6E3"/>
<path fill-rule="evenodd" clip-rule="evenodd" d="M96.6543 304C96.3394 314.553 94.5061 324.886 91.1543 335C90.0246 351.686 88.6913 368.353 87.1543 385C85.1521 387.003 83.6521 389.336 82.6543 392C81.868 387.681 81.2013 383.347 80.6543 379C80.7108 377.763 81.2108 376.763 82.1543 376C83.1679 364.048 82.6679 352.215 80.6543 340.5C83.1291 329.816 84.7958 318.982 85.6543 308C89.5719 307.392 93.2386 306.058 96.6543 304Z" fill="#B27856"/>
<path fill-rule="evenodd" clip-rule="evenodd" d="M297.654 306C307.711 310.106 317.711 310.44 327.654 307C325.773 309.629 323.107 310.963 319.654 311C315.124 311.097 310.624 310.764 306.154 310C302.895 309.284 300.061 307.951 297.654 306Z" fill="#A8A09D"/>
<path fill-rule="evenodd" clip-rule="evenodd" d="M116.654 300C118.178 315.579 117.678 331.246 115.154 347C112.648 352.298 108.481 354.131 102.654 352.5C100.174 349.105 98.6741 345.272 98.1543 341C97.9681 343.536 97.4681 345.869 96.6543 348C97.8184 334.841 99.8184 321.841 102.654 309C106.808 308.869 110.808 308.036 114.654 306.5C116.383 304.711 117.05 302.544 116.654 300Z" fill="#1B5EBE"/>
<path fill-rule="evenodd" clip-rule="evenodd" d="M124.654 300C127.255 312.331 127.255 324.664 124.654 337C124.654 324.667 124.654 312.333 124.654 300Z" fill="#7295D7"/>
<path fill-rule="evenodd" clip-rule="evenodd" d="M135.654 313C137.043 321.055 136.71 329.055 134.654 337C135.32 329.017 135.653 321.017 135.654 313Z" fill="#A9B8C1"/>
<path fill-rule="evenodd" clip-rule="evenodd" d="M378.654 317C380.346 325.412 382.179 334.078 384.154 343C385.06 351.677 386.06 360.344 387.154 369C389.951 377.346 392.617 385.679 395.154 394C396.353 397.385 396.52 400.718 395.654 404C390.9 406.233 386.234 408.733 381.654 411.5C367.512 416.782 353.179 421.282 338.654 425C335.622 425.005 332.622 425.338 329.654 426C328.124 426.14 327.124 426.807 326.654 428C319.078 428.105 311.745 429.272 304.654 431.5C296.327 432 287.994 432.166 279.654 432C281.047 427.99 282.547 423.99 284.154 420C288.467 400.905 293.967 382.238 300.654 364C302.843 362.276 304.01 359.942 304.154 357C305.738 355.639 307.572 354.972 309.654 355C317.379 354.056 324.713 352.056 331.654 349C346.444 345.772 359.444 339.105 370.654 329C372.848 324.59 375.515 320.59 378.654 317Z" fill="#2D7AFB"/>
<path fill-rule="evenodd" clip-rule="evenodd" d="M123.654 285C125.91 287.905 128.91 289.572 132.654 290C132.386 291.599 132.72 292.932 133.654 294C135.158 300.2 135.824 306.533 135.654 313C135.653 321.017 135.32 329.017 134.654 337C133.662 341.952 132.996 346.952 132.654 352C129.934 354.027 126.934 355.693 123.654 357C124.485 350.369 124.818 343.702 124.654 337C127.255 324.664 127.255 312.331 124.654 300C122.661 295.079 122.328 290.079 123.654 285Z" fill="#EED597"/>
<path fill-rule="evenodd" clip-rule="evenodd" d="M228.654 340.5C226.667 341.819 225.5 343.652 225.154 346C224.945 350.498 224.945 354.832 225.154 359C225.821 360.333 226.487 361.667 227.154 363C228.466 364.285 230.299 364.285 232.654 363C232.392 364.478 232.725 365.811 233.654 367C235.196 365.753 236.696 365.753 238.154 367C239.349 358.517 238.349 350.183 235.154 342C234.983 347.033 234.483 352.033 233.654 357C233.068 356.791 232.568 356.457 232.154 356C230.097 350.485 229.43 344.818 230.154 339L228.654 340.5Z" fill="#CDD1E2"/>
<path fill-rule="evenodd" clip-rule="evenodd" d="M227.654 309C224.603 310.852 221.27 312.186 217.654 313C217.818 315.687 217.651 318.354 217.154 321C215.508 323.109 214.342 325.443 213.654 328C213.48 330.361 213.147 332.694 212.654 335C214.132 335.262 215.465 334.929 216.654 334C218.029 330.953 220.362 329.62 223.654 330C223.373 332.463 222.373 334.63 220.654 336.5C222.566 339.288 225.233 340.621 228.654 340.5L230.154 339C230.604 336.394 232.104 335.061 234.654 335C234.447 332.373 235.614 330.707 238.154 330C242.394 330.38 246.561 330.38 250.654 330C250.008 323.256 253.008 319.923 259.654 320C259.435 321.175 259.768 322.175 260.654 323C265.745 326.256 270.079 330.422 273.654 335.5C277.362 336.868 281.195 337.702 285.154 338C287.645 337.792 289.979 337.125 292.154 336C293.622 337.128 295.289 337.794 297.154 338C298.739 337.255 300.239 336.755 301.654 336.5C302.793 341.916 302.96 347.416 302.154 353C300.798 353.88 299.298 354.214 297.654 354C298.642 357.317 299.642 360.651 300.654 364C302.843 362.276 304.01 359.942 304.154 357C305.738 355.639 307.572 354.972 309.654 355C309.654 354.667 309.654 354.333 309.654 354C307.955 354.16 306.288 353.994 304.654 353.5C306.172 347.648 306.838 341.648 306.654 335.5C308.789 323.87 304.789 315.204 294.654 309.5C290.28 308.695 286.28 307.028 282.654 304.5C277.987 303.833 273.321 303.833 268.654 304.5C267.781 305.545 266.781 306.378 265.654 307C269.466 307.824 273.466 308.324 277.654 308.5C284.115 312.901 291.115 315.901 298.654 317.5C300.098 318.626 300.764 320.126 300.654 322C299.783 326.185 298.45 330.185 296.654 334C293.321 331.497 290.154 328.831 287.154 326C285.018 327.959 282.518 329.293 279.654 330C276.957 329.268 274.29 328.434 271.654 327.5C268.1 323.946 264.6 320.446 261.154 317C260.026 315.155 259.526 313.155 259.654 311C256.339 311.472 254.005 313.305 252.654 316.5C250.035 316.651 247.701 317.485 245.654 319C244.962 318.475 244.462 317.808 244.154 317C241.04 319.976 237.873 322.976 234.654 326C233.676 325.523 232.843 324.857 232.154 324C230.938 326.462 230.272 329.129 230.154 332C229.517 333.803 228.351 335.136 226.654 336C226.321 335.333 225.987 334.667 225.654 334C227.585 330.276 228.585 326.276 228.654 322C226.955 321.84 225.288 322.006 223.654 322.5C221.919 325.382 220.919 325.382 220.654 322.5C222.733 318.583 225.399 315.083 228.654 312C231.205 310.717 233.705 310.384 236.154 311C238.289 310.373 240.456 309.873 242.654 309.5C244.789 308.624 246.123 307.124 246.654 305C239.691 303.259 233.358 304.593 227.654 309Z" fill="#CDD1E2"/>
<path fill-rule="evenodd" clip-rule="evenodd" d="M246.654 305C251.251 305.608 255.751 306.608 260.154 308C262.032 307.804 263.866 307.471 265.654 307C269.466 307.824 273.466 308.324 277.654 308.5C284.115 312.901 291.115 315.901 298.654 317.5C300.098 318.626 300.764 320.126 300.654 322C299.783 326.185 298.45 330.185 296.654 334C293.321 331.497 290.154 328.831 287.154 326C285.018 327.959 282.518 329.293 279.654 330C276.957 329.268 274.29 328.434 271.654 327.5C268.1 323.946 264.6 320.446 261.154 317C260.026 315.155 259.526 313.155 259.654 311C256.339 311.472 254.005 313.305 252.654 316.5C250.035 316.651 247.701 317.485 245.654 319C244.962 318.475 244.462 317.808 244.154 317C241.04 319.976 237.873 322.976 234.654 326C233.676 325.523 232.843 324.857 232.154 324C230.938 326.462 230.272 329.129 230.154 332C229.517 333.803 228.351 335.136 226.654 336C226.321 335.333 225.987 334.667 225.654 334C227.585 330.276 228.585 326.276 228.654 322C226.955 321.84 225.288 322.006 223.654 322.5C221.919 325.382 220.919 325.382 220.654 322.5C222.733 318.583 225.399 315.083 228.654 312C231.205 310.717 233.705 310.384 236.154 311C238.289 310.373 240.456 309.873 242.654 309.5C244.789 308.624 246.123 307.124 246.654 305Z" fill="#DADCE9"/>
<path fill-rule="evenodd" clip-rule="evenodd" d="M331.654 349C324.713 352.056 317.379 354.056 309.654 355C309.654 354.667 309.654 354.333 309.654 354C316.968 352.337 324.302 350.67 331.654 349Z" fill="#5C92F5"/>
<path fill-rule="evenodd" clip-rule="evenodd" d="M124.654 337C124.818 343.702 124.485 350.369 123.654 357C123.321 357 122.987 357 122.654 357C123.043 350.161 123.71 343.494 124.654 337Z" fill="#C1C6BE"/>
<path fill-rule="evenodd" clip-rule="evenodd" d="M300.654 364C293.967 382.238 288.467 400.905 284.154 420C282.547 423.99 281.047 427.99 279.654 432C276.516 433.181 273.516 433.181 270.654 432C269.575 428.365 269.575 424.699 270.654 421C268.321 421 265.987 421 263.654 421C259.748 416.833 257.248 411.833 256.154 406C253.987 403.67 252.32 401.003 251.154 398C238.45 388.971 228.783 377.304 222.154 363C217.517 356.658 212.684 350.658 207.654 345C208.65 345.086 209.483 344.752 210.154 344C210.924 338.439 212.091 333.106 213.654 328C213.48 330.361 213.147 332.694 212.654 335C214.132 335.262 215.465 334.929 216.654 334C218.029 330.953 220.362 329.62 223.654 330C223.373 332.463 222.373 334.63 220.654 336.5C222.566 339.288 225.233 340.621 228.654 340.5C226.667 341.819 225.5 343.652 225.154 346C224.945 350.498 224.945 354.832 225.154 359C225.821 360.333 226.487 361.667 227.154 363C228.466 364.285 230.299 364.285 232.654 363C232.392 364.478 232.725 365.811 233.654 367C235.196 365.753 236.696 365.753 238.154 367C239.349 358.517 238.349 350.183 235.154 342C234.983 347.033 234.483 352.033 233.654 357C233.068 356.791 232.568 356.457 232.154 356C230.097 350.485 229.43 344.818 230.154 339C230.604 336.394 232.104 335.061 234.654 335C234.447 332.373 235.614 330.707 238.154 330C242.394 330.38 246.561 330.38 250.654 330C250.008 323.256 253.008 319.923 259.654 320C259.435 321.175 259.768 322.175 260.654 323C265.745 326.256 270.079 330.422 273.654 335.5C277.362 336.868 281.195 337.702 285.154 338C287.645 337.792 289.979 337.125 292.154 336C293.622 337.128 295.289 337.794 297.154 338C298.739 337.255 300.239 336.755 301.654 336.5C302.793 341.916 302.96 347.416 302.154 353C300.798 353.88 299.298 354.214 297.654 354C298.642 357.317 299.642 360.651 300.654 364Z" fill="#D5D8E7"/>
<path fill-rule="evenodd" clip-rule="evenodd" d="M171.655 365C186.198 368.646 200.865 371.646 215.655 374C216.938 402.65 204.272 412.317 177.655 403C165.346 391.951 163.346 379.284 171.655 365Z" fill="#ECD59A"/>
<path fill-rule="evenodd" clip-rule="evenodd" d="M348.654 377C338.805 377.767 328.805 378.434 318.654 379C319.072 378.278 319.738 377.778 320.654 377.5C329.981 377 339.315 376.834 348.654 377Z" fill="#BAC1BC"/>
<path fill-rule="evenodd" clip-rule="evenodd" d="M173.654 376C185.4 379.415 197.4 381.415 209.654 382C209.733 386.838 208.899 391.504 207.154 396C205.801 397.185 204.634 398.519 203.654 400C195.375 403.507 187.708 402.673 180.654 397.5C177.45 394.631 174.617 391.465 172.154 388C171.345 383.805 171.845 379.805 173.654 376Z" fill="#327BFA"/>
<path fill-rule="evenodd" clip-rule="evenodd" d="M354.654 376C354.77 379.36 355.103 382.693 355.654 386C357.025 399.255 351.359 407.922 338.654 412C329.867 415.213 321.534 414.38 313.654 409.5C307.048 401.44 304.715 392.273 306.654 382C310.244 379.531 314.244 378.531 318.654 379C328.805 378.434 338.805 377.767 348.654 377C350.533 376.159 352.533 375.825 354.654 376Z" fill="#EBD59A"/>
<path fill-rule="evenodd" clip-rule="evenodd" d="M354.654 376C356.314 379.27 356.648 382.603 355.654 386C355.103 382.693 354.77 379.36 354.654 376Z" fill="#87A7D8"/>
<path fill-rule="evenodd" clip-rule="evenodd" d="M348.654 386C348.543 386.617 348.21 387.117 347.654 387.5C341.272 387.747 334.939 388.247 328.654 389C328.765 388.383 329.098 387.883 329.654 387.5C336.021 387.207 342.354 386.707 348.654 386Z" fill="#5C8AD0"/>
<path fill-rule="evenodd" clip-rule="evenodd" d="M348.654 386C350.302 400.371 343.635 407.704 328.654 408C318.769 406.424 313.769 400.424 313.654 390C318.627 389.336 323.627 389.003 328.654 389C334.939 388.247 341.272 387.747 347.654 387.5C348.21 387.117 348.543 386.617 348.654 386Z" fill="#2E7AF9"/>
<path fill-rule="evenodd" clip-rule="evenodd" d="M102.655 309C99.8186 321.841 97.8186 334.841 96.6545 348C95.8241 358.492 95.3241 369.159 95.1545 380C94.38 383.647 93.7133 387.314 93.1545 391C90.4697 397.417 87.6364 403.75 84.6545 410C81.9256 412.385 79.4256 412.052 77.1545 409C76.4103 391.989 76.577 374.989 77.6545 358C74.0859 340.844 75.4192 324.177 81.6545 308C82.9878 308 84.3212 308 85.6545 308C84.796 318.982 83.1293 329.816 80.6545 340.5C82.6681 352.215 83.1681 364.048 82.1545 376C81.211 376.763 80.711 377.763 80.6545 379C81.2015 383.347 81.8682 387.681 82.6545 392C83.6523 389.336 85.1523 387.003 87.1545 385C88.6915 368.353 90.0248 351.686 91.1545 335C94.5063 324.886 96.3396 314.553 96.6545 304C104.681 297.684 106.681 299.35 102.655 309Z" fill="#A5625A"/>
<path fill-rule="evenodd" clip-rule="evenodd" d="M141.654 394C142.321 394 142.654 394.333 142.654 395C142.007 395.774 141.674 396.774 141.654 398C142.04 400.432 142.707 402.766 143.654 405C143.004 404.696 142.337 404.363 141.654 404C140.774 401.389 140.108 398.722 139.654 396C139.901 394.787 140.568 394.12 141.654 394Z" fill="#766B88"/>
<path fill-rule="evenodd" clip-rule="evenodd" d="M142.654 395C151.684 401.273 161.184 406.939 171.154 412C181.616 415.816 192.116 419.483 202.654 423C213.641 424.86 224.307 427.193 234.654 430C231.997 429.662 229.664 430.329 227.654 432C228.967 434.018 228.301 435.185 225.654 435.5C227.212 435.71 228.545 436.21 229.654 437C227.987 437 226.321 437 224.654 437C217.938 435.547 211.272 433.88 204.654 432C202.639 430.576 200.306 429.91 197.654 430C184.092 425.533 170.759 420.366 157.654 414.5C152.017 412.533 147.35 409.367 143.654 405C142.707 402.766 142.04 400.432 141.654 398C141.674 396.774 142.007 395.774 142.654 395Z" fill="#E8D299"/>
<path fill-rule="evenodd" clip-rule="evenodd" d="M338.654 425C334.825 426.238 330.825 427.238 326.654 428C327.124 426.807 328.124 426.14 329.654 426C332.622 425.338 335.622 425.005 338.654 425Z" fill="#A6B4C2"/>
<path fill-rule="evenodd" clip-rule="evenodd" d="M395.654 404C398.117 407.904 398.117 412.07 395.654 416.5C387.91 421.948 379.243 425.282 369.654 426.5C368.296 427.434 366.962 428.268 365.654 429C361.354 429.255 357.354 430.255 353.654 432C347.976 432.585 342.309 433.251 336.654 434C331.704 434.27 327.037 435.27 322.654 437C316.677 437.665 310.677 437.998 304.654 438C296.869 438.278 289.203 439.278 281.654 441C270.655 440.628 259.655 440.294 248.654 440C247.235 439.049 245.569 438.716 243.654 439C238.701 439.377 234.035 438.711 229.654 437C228.545 436.21 227.212 435.71 225.654 435.5C228.301 435.185 228.967 434.018 227.654 432C229.664 430.329 231.997 429.662 234.654 430C239.124 430.986 243.791 431.319 248.654 431C255.802 431.992 263.135 432.325 270.654 432C273.516 433.181 276.516 433.181 279.654 432C287.994 432.166 296.327 432 304.654 431.5C311.745 429.272 319.078 428.105 326.654 428C330.825 427.238 334.825 426.238 338.654 425C353.179 421.282 367.512 416.782 381.654 411.5C386.234 408.733 390.9 406.233 395.654 404Z" fill="#EFD698"/>
<path fill-rule="evenodd" clip-rule="evenodd" d="M197.654 430C200.306 429.91 202.639 430.576 204.654 432C202.002 432.09 199.669 431.424 197.654 430Z" fill="#8F7F8A"/>
<path fill-rule="evenodd" clip-rule="evenodd" d="M263.654 421C265.987 421 268.321 421 270.654 421C269.575 424.699 269.575 428.365 270.654 432C263.135 432.325 255.802 431.992 248.654 431C255.321 431 261.987 431 268.654 431C268.654 428.333 268.654 425.667 268.654 423C266.456 423.38 264.789 422.713 263.654 421Z" fill="#658FD5"/>
<path fill-rule="evenodd" clip-rule="evenodd" d="M365.654 429C365.002 430.225 363.835 430.892 362.154 431C359.337 431.531 356.504 431.864 353.654 432C357.354 430.255 361.354 429.255 365.654 429Z" fill="#726483"/>
<path fill-rule="evenodd" clip-rule="evenodd" d="M336.654 434C332.271 435.73 327.604 436.73 322.654 437C327.037 435.27 331.704 434.27 336.654 434Z" fill="#948689"/>
<path fill-rule="evenodd" clip-rule="evenodd" d="M224.655 437C226.322 437 227.988 437 229.655 437C234.036 438.711 238.702 439.377 243.655 439C243.655 441 243.655 443 243.655 445C242.782 449.268 242.449 453.602 242.655 458C235.91 461.523 228.576 463.523 220.655 464C217.199 463.682 213.866 462.848 210.655 461.5C209.372 458.705 209.372 455.872 210.655 453C214.548 449.379 219.214 447.712 224.655 448C224.655 444.333 224.655 440.667 224.655 437Z" fill="#F8F8FA"/>
<path fill-rule="evenodd" clip-rule="evenodd" d="M322.654 437C323.246 439.627 323.579 442.294 323.654 445C329.413 444.248 334.747 445.248 339.654 448C341.59 450.708 342.09 453.708 341.154 457C338.7 458.794 336.033 460.128 333.154 461C326.674 462.02 320.174 462.186 313.654 461.5C311.833 459.757 309.833 458.257 307.654 457C306.25 450.941 305.25 444.941 304.654 439C304.654 438.667 304.654 438.333 304.654 438C310.677 437.998 316.677 437.665 322.654 437Z" fill="#F8F8F9"/>
<path fill-rule="evenodd" clip-rule="evenodd" d="M304.654 438C304.654 438.333 304.654 438.667 304.654 439C296.961 439.603 289.294 440.603 281.654 442C281.654 441.667 281.654 441.333 281.654 441C289.203 439.278 296.869 438.278 304.654 438Z" fill="#645A7F"/>
<path fill-rule="evenodd" clip-rule="evenodd" d="M248.654 440C259.655 440.294 270.655 440.628 281.654 441C281.654 441.333 281.654 441.667 281.654 442C270.435 442.41 259.435 441.744 248.654 440Z" fill="#C2B399"/>
<path fill-rule="evenodd" clip-rule="evenodd" d="M243.654 439C245.569 438.716 247.235 439.049 248.654 440C247.321 440 245.987 440 244.654 440C244.938 441.915 244.605 443.581 243.654 445C243.654 443 243.654 441 243.654 439Z" fill="#8B8395"/>
</svg>
