<svg width="500" height="500" viewBox="0 0 500 500" fill="none" xmlns="http://www.w3.org/2000/svg">
<path fill-rule="evenodd" clip-rule="evenodd" d="M304.95 124.804L294.951 121.804H297.951C296.951 109.804 302.95 103.804 313.948 100.804C327.946 98.8038 340.944 102.804 352.942 111.804C361.94 120.804 372.938 128.804 383.937 136.804C388.936 139.804 394.935 142.804 401.933 144.804H424.93C411.932 137.804 403.933 127.804 397.934 115.804C396.934 113.804 396.934 111.804 398.934 109.804L409.932 107.804L387.936 94.8038C379.937 87.8038 373.938 79.8038 368.939 71.8038C358.941 62.8038 346.943 55.8038 334.945 49.8038C317.948 45.8038 302.95 47.8038 288.952 55.8038C270.955 71.8038 267.956 89.8038 278.954 110.804L287.953 121.804H274.955C269.616 115.552 265.836 108.123 263.924 100.127C262.012 92.1306 262.023 83.7949 263.957 75.8038C272.955 52.8038 288.952 40.8038 313.948 37.8038C337.944 38.8038 359.941 47.8038 376.938 65.8038C384.936 79.8038 396.934 89.8038 412.932 95.8038L438.927 100.804C440.927 102.804 440.927 104.804 439.927 107.804C431.928 112.804 423.93 115.804 415.931 116.804C413.931 116.804 411.932 117.804 411.932 119.804C418.931 128.804 428.929 136.804 439.927 143.804C442.927 146.804 442.927 148.804 439.927 151.804C417.931 157.804 397.934 155.804 378.937 145.804C364.94 135.804 351.942 124.804 339.944 113.804L325.946 109.804C318.947 107.804 312.948 109.804 308.949 115.804L304.95 124.804Z" fill="#B53D3C"/>
<path fill-rule="evenodd" clip-rule="evenodd" d="M294.951 121.804H287.952L278.953 110.804C267.955 89.8038 270.955 71.8038 288.952 55.8038C302.949 47.8038 317.947 45.8038 334.944 49.8038C346.942 55.8038 358.94 62.8038 368.938 71.8038C373.938 79.8038 379.937 87.8038 387.935 94.8038L409.932 107.804L398.933 109.804C396.934 111.804 396.934 113.804 397.934 115.804C403.933 127.804 411.931 137.804 424.929 144.804H401.933C394.934 142.804 388.935 139.804 383.936 136.804C372.938 128.804 361.94 120.804 352.941 111.804C340.943 102.804 327.945 98.8038 313.948 100.804C302.949 103.804 296.95 109.804 297.95 121.804H294.951Z" fill="#F5443C"/>
<path fill-rule="evenodd" clip-rule="evenodd" d="M274.955 121.804H294.951L304.95 124.804C308.949 125.804 312.948 128.804 314.948 133.804L315.948 150.804C319.947 150.804 323.946 150.804 328.946 152.804C345.943 158.804 361.94 167.804 376.938 179.804C390.935 193.804 399.934 209.804 403.933 229.804C407.932 232.804 411.932 236.804 414.931 241.804L413.931 260.804C423.93 274.804 427.929 290.804 425.929 308.804L420.93 328.804C416.931 331.804 413.931 335.804 410.932 340.804L401.933 335.804L400.934 333.804L408.932 325.804L414.931 314.804C416.931 299.804 414.931 284.804 409.932 271.804C397.934 258.804 387.936 259.804 377.937 273.804C370.939 292.804 372.938 311.804 382.937 329.804C384.936 329.804 385.936 330.804 386.936 332.804C375.938 337.804 364.94 339.804 353.941 338.804C358.941 334.804 363.94 330.804 369.939 328.804V324.804C365.939 317.804 363.94 310.804 363.94 303.804C363.94 300.804 362.94 299.804 361.94 298.804L363.94 291.804L362.94 283.804C364.94 275.804 368.939 268.804 373.938 262.804C348.593 261.691 323.202 262.359 297.951 264.804L280.954 269.804C272.955 272.804 265.956 275.804 259.957 279.804L248.959 276.804C226.963 264.804 204.966 258.804 180.97 257.804L170.972 278.804C169.972 279.804 169.972 280.804 171.972 281.804C169.972 282.804 168.972 283.804 167.972 286.804C165.973 292.804 164.973 298.804 166.973 305.804C163.973 312.804 165.973 318.804 171.972 323.804C182.97 335.804 196.968 346.804 212.965 355.804C226.963 364.804 242.96 371.804 260.957 374.804C280.954 371.804 299.95 365.804 318.947 356.804L336.944 347.804L333.945 359.804C311.948 369.804 289.952 377.804 267.956 382.804L266.956 384.804C267.956 394.804 271.955 403.804 276.954 412.804L278.954 413.804L332.945 393.804L335.944 395.804L337.944 404.804L335.944 402.804L334.945 403.804C333.945 412.804 334.945 422.804 335.944 432.804L333.945 449.804C331.945 454.804 327.946 458.804 321.947 459.804C311.948 461.804 302.95 462.804 293.951 461.804C287.952 457.804 285.953 451.804 287.952 445.804C290.952 439.804 295.951 435.804 300.95 433.804L301.95 416.804C290.99 419.315 279.991 421.649 268.956 423.804L266.956 441.804C264.956 445.804 263.956 449.804 263.956 454.804L259.957 457.804L226.963 458.804C217.964 452.804 215.964 445.804 220.964 436.804C224.963 431.804 229.962 429.804 236.961 429.804L235.961 417.804L220.964 411.804C201.539 399.932 182.842 386.909 164.973 372.804C162.973 366.804 161.973 361.804 158.974 357.804L156.974 358.804L158.974 354.804L153.975 332.804L147.976 330.804L138.977 317.804C134.978 306.804 132.978 296.804 134.978 285.804C140.977 271.804 149.975 260.804 162.973 254.804L159.974 241.804V231.804L170.972 219.804L177.971 198.804C190.969 179.804 205.966 164.804 225.963 152.804C237.961 146.804 251.958 143.804 265.956 144.804C264.956 138.804 265.956 132.804 267.956 127.804L274.955 121.804Z" fill="#99B0C4"/>
<path fill-rule="evenodd" clip-rule="evenodd" d="M286.952 130.804C292.951 129.804 299.95 131.804 305.949 135.804V146.804L302.949 147.804C293.951 144.804 284.952 143.804 275.954 143.804C271.955 132.804 275.954 128.804 286.952 130.804ZM258.957 154.804C298.95 150.804 335.944 160.804 368.938 184.804L377.937 194.804L391.935 217.804H389.935L385.936 212.804L355.941 189.804C324.946 173.804 292.951 162.804 259.957 158.804C232.961 170.804 208.965 186.804 185.969 205.804V202.804C194.967 189.804 205.966 178.804 217.964 168.804L237.96 158.804L258.957 154.804Z" fill="#D3E0EB"/>
<path fill-rule="evenodd" clip-rule="evenodd" d="M264.956 168.804C319.384 175.31 369.363 202.089 404.933 243.804V254.804C397.934 252.804 390.935 252.804 383.936 254.804C352.941 248.804 320.947 248.804 290.952 256.804C279.953 258.804 270.955 262.804 261.956 268.804L258.957 258.804C256.957 227.804 258.957 197.804 264.956 168.804Z" fill="#D4E1EC"/>
<path fill-rule="evenodd" clip-rule="evenodd" d="M252.958 171.804H255.957C252.958 181.804 251.958 191.804 250.958 202.804V265.804L226.962 255.804L201.966 249.804C191.968 248.804 181.969 247.804 172.971 248.804C170.971 243.804 169.971 238.804 170.971 233.804C182.969 217.804 197.967 204.804 214.964 194.804L252.958 171.804Z" fill="#D3E0EB"/>
<path fill-rule="evenodd" clip-rule="evenodd" d="M274.955 180.804C279.954 182.804 283.953 185.804 288.952 189.804C289.952 206.804 289.952 224.804 287.952 242.804L275.954 248.804L272.955 247.804C271.796 225.453 272.465 203.045 274.955 180.804Z" fill="#9BB2C4"/>
<path fill-rule="evenodd" clip-rule="evenodd" d="M237.961 187.804C238.961 186.804 240.96 187.804 242.96 188.804L237.961 216.804V246.804L229.962 245.804L227.962 243.804C223.963 226.804 224.963 209.804 229.962 193.804C231.962 190.804 234.961 188.804 237.961 187.804Z" fill="#9BB2C5"/>
<path fill-rule="evenodd" clip-rule="evenodd" d="M307.949 191.804C312.948 191.804 317.947 194.804 320.947 199.804L321.946 240.804L307.949 242.804C305.949 224.804 305.949 207.804 307.949 191.804Z" fill="#9AB1C4"/>
<path fill-rule="evenodd" clip-rule="evenodd" d="M213.965 201.804H216.964C212.965 214.804 211.965 228.804 213.965 243.804L201.967 241.804L199.967 240.804C198.967 228.804 200.967 217.804 203.966 207.804C206.966 204.804 209.965 202.804 213.965 201.804Z" fill="#9BB2C4"/>
<path fill-rule="evenodd" clip-rule="evenodd" d="M337.944 201.804C342.943 202.804 347.942 204.804 351.941 208.804L353.941 232.804L350.941 236.804L337.944 239.804V201.804Z" fill="#9AB1C4"/>
<path fill-rule="evenodd" clip-rule="evenodd" d="M187.969 220.804H190.968L188.968 242.804L181.97 243.804V227.804L187.969 220.804Z" fill="#9AB1C3"/>
<path fill-rule="evenodd" clip-rule="evenodd" d="M365.939 221.804H368.939C370.938 224.804 374.938 227.804 378.937 229.804L381.936 234.804L377.937 242.804L374.938 244.804C371.938 241.804 367.939 240.804 364.939 241.804C363.939 234.804 364.939 227.804 365.939 221.804Z" fill="#9BB2C5"/>
<path fill-rule="evenodd" clip-rule="evenodd" d="M362.939 283.804C349.941 277.804 336.943 272.804 323.946 269.804C316.947 267.804 310.948 267.804 304.949 268.804L303.949 270.804C294.95 274.804 288.951 281.804 285.952 291.804C282.952 304.804 283.952 317.804 289.951 330.804C295.95 335.804 302.949 339.804 311.948 341.804L317.947 342.804L316.947 350.804C315.947 352.804 316.947 354.804 318.946 356.804C299.95 365.804 280.953 371.804 260.956 374.804C242.959 371.804 226.962 364.804 212.964 355.804C215.964 351.804 217.963 347.804 218.963 342.804L221.963 341.804L238.96 330.804C241.959 323.804 245.959 317.804 249.958 312.804C251.958 302.804 249.958 294.804 242.959 287.804C242.959 280.804 240.959 275.804 234.96 272.804C228.961 270.804 222.962 268.804 216.963 268.804L209.965 267.804C205.965 266.804 202.966 267.804 199.966 269.804C188.968 270.804 179.97 274.804 171.971 281.804C169.971 280.804 169.971 279.804 170.971 278.804L180.969 257.804C204.965 258.804 226.962 264.804 248.958 276.804H258.957C271.383 271.219 285.06 269.214 297.95 264.804L316.947 261.804C335.944 260.804 354.94 260.804 373.937 262.804C368.938 268.804 364.939 275.804 362.939 283.804Z" fill="#F9FAFA"/>
<path fill-rule="evenodd" clip-rule="evenodd" d="M401.933 335.804L393.935 331.804C390.935 330.804 388.935 331.804 386.936 332.804C385.936 330.804 384.936 329.804 382.936 329.804C377.824 321.494 374.712 312.11 373.845 302.392C372.977 292.675 374.378 282.888 377.937 273.804C387.936 259.804 397.934 258.804 409.932 271.804C414.931 284.804 416.931 299.804 414.931 314.804L408.932 325.804L400.933 333.804L401.933 335.804Z" fill="#D5E2EC"/>
<path fill-rule="evenodd" clip-rule="evenodd" d="M165.973 262.804L167.972 263.804C162.973 272.804 159.974 282.804 156.974 293.804C155.974 301.804 156.974 310.804 158.974 318.804C158.974 320.804 157.974 322.804 155.974 323.804C144.976 313.804 140.977 302.804 143.976 288.804C147.976 277.804 155.974 268.804 165.973 262.804Z" fill="#D4E1EB"/>
<path fill-rule="evenodd" clip-rule="evenodd" d="M216.964 268.804C210.965 267.804 204.966 268.804 199.967 269.804C202.966 267.804 205.966 266.804 209.965 267.804L216.964 268.804Z" fill="#686868"/>
<path fill-rule="evenodd" clip-rule="evenodd" d="M323.946 269.803C316.947 268.803 309.948 269.803 303.949 270.803L304.949 268.803C310.948 267.803 316.947 267.803 323.946 269.803Z" fill="#F9FAFA"/>
<path fill-rule="evenodd" clip-rule="evenodd" d="M216.964 268.804C222.963 268.804 228.962 270.804 234.961 272.804C240.96 275.804 242.96 280.804 242.96 287.804C249.959 294.804 251.958 302.804 249.959 312.804C245.959 317.804 241.96 323.804 238.96 330.804L221.963 341.804C211.965 343.804 203.966 341.804 195.968 337.804L185.969 328.804L179.97 312.804C178.97 306.804 179.97 300.804 181.97 295.804L180.97 294.804L166.972 305.804C164.973 298.804 165.973 292.804 167.972 286.804C168.972 283.804 169.972 282.804 171.972 281.804C184.917 272.198 200.891 267.582 216.964 268.804Z" fill="#0B0B0B"/>
<path fill-rule="evenodd" clip-rule="evenodd" d="M323.946 269.804C336.944 272.804 349.942 277.804 362.94 283.804L363.94 291.804L361.94 298.804L354.941 293.804L353.941 305.804C350.265 314.133 346.598 322.466 342.943 330.804L328.946 340.804L311.948 341.804C302.95 339.804 295.951 335.804 289.952 330.804C283.953 317.804 282.953 304.804 285.953 291.804C288.952 281.804 294.951 274.804 303.95 270.804C309.949 269.804 316.948 268.804 323.946 269.804Z" fill="#0A0A0A"/>
<path fill-rule="evenodd" clip-rule="evenodd" d="M311.948 278.804C308.949 277.804 306.949 278.804 304.949 279.804C304.949 277.804 306.949 276.804 308.949 277.804L311.948 278.804Z" fill="#0A0A0A"/>
<path fill-rule="evenodd" clip-rule="evenodd" d="M311.948 278.804C313.948 278.804 315.947 279.804 317.947 282.804C317.947 288.804 317.947 294.804 315.947 300.804C311.948 304.804 306.949 306.804 301.95 304.804L297.95 299.804C292.951 295.804 291.951 291.804 294.951 286.804C297.95 283.804 300.95 280.804 304.949 279.804C306.949 278.804 308.949 277.804 311.948 278.804Z" fill="#F5F5F5"/>
<path fill-rule="evenodd" clip-rule="evenodd" d="M236.96 288.804C236.96 296.804 233.961 303.804 227.962 308.804C222.963 309.804 218.963 309.804 215.964 306.804C210.965 297.804 211.965 290.804 218.963 283.804C225.962 277.804 231.961 279.804 236.96 288.804Z" fill="#F6F6F6"/>
<path fill-rule="evenodd" clip-rule="evenodd" d="M361.94 298.804C362.939 299.804 363.939 300.804 363.939 303.804C363.939 310.804 365.939 317.804 369.938 324.804V328.804C368.938 324.804 366.939 322.804 364.939 320.804C359.94 318.804 354.941 318.804 349.942 318.804L353.941 305.804L354.941 293.804L361.94 298.804Z" fill="#F4F4F4"/>
<path fill-rule="evenodd" clip-rule="evenodd" d="M179.97 312.804L178.971 315.804L171.972 323.804C165.973 318.804 163.973 312.804 166.973 305.804L180.97 294.804L181.97 295.804C179.97 300.804 178.971 306.804 179.97 312.804Z" fill="#F4F5F5"/>
<path fill-rule="evenodd" clip-rule="evenodd" d="M236.96 288.804C238.96 297.804 235.961 303.804 227.962 308.804C233.961 303.804 236.96 296.804 236.96 288.804Z" fill="#3A3A3A"/>
<path fill-rule="evenodd" clip-rule="evenodd" d="M297.951 299.804L301.951 304.804C298.951 303.804 296.951 302.804 297.951 299.804Z" fill="#0A0A0A"/>
<path fill-rule="evenodd" clip-rule="evenodd" d="M124.979 370.804L119.98 374.804L86.9854 320.804L62.9894 309.804C61.9896 319.804 63.9893 329.804 67.9886 339.804L109.982 382.804L106.982 385.804L98.9834 379.804L62.9894 343.804C59.9899 332.804 56.9904 321.804 55.9906 310.804L57.9903 303.804H63.9893L91.9846 315.804C97.9836 321.804 101.983 328.804 103.983 337.804L124.979 370.804Z" fill="#96AEC2"/>
<path fill-rule="evenodd" clip-rule="evenodd" d="M349.942 318.804C354.941 318.804 359.94 318.804 364.939 320.804C366.939 322.804 368.938 324.804 369.938 328.804C363.939 330.804 358.94 334.804 353.941 338.804C348.942 338.804 343.943 339.804 339.943 341.804L336.944 347.804L318.947 356.804C316.947 354.804 315.947 352.804 316.947 350.804L317.947 342.804L311.948 341.804L328.945 340.804L342.943 330.804C343.943 325.804 346.942 321.804 349.942 318.804Z" fill="#FADAD2"/>
<path fill-rule="evenodd" clip-rule="evenodd" d="M119.98 374.804L109.982 382.804L67.9886 339.804C63.9892 329.804 61.9896 319.804 62.9894 309.804L86.9854 320.804L119.98 374.804Z" fill="#D3E0EB"/>
<path fill-rule="evenodd" clip-rule="evenodd" d="M162.973 328.804C185.969 351.804 213.964 369.804 245.959 380.804L256.957 382.804C258.957 393.804 262.956 403.804 266.955 414.804H259.957C248.958 412.804 238.96 409.804 229.962 405.804C211.965 396.804 194.967 385.804 179.97 374.804C174.971 369.804 170.971 362.804 167.972 356.804L162.973 328.804Z" fill="#D4E2EC"/>
<path fill-rule="evenodd" clip-rule="evenodd" d="M401.933 335.804L410.931 340.804L424.929 347.804L427.928 348.804L438.926 349.804C441.926 349.804 443.926 351.804 443.926 355.804C444.925 382.804 436.927 407.804 421.929 430.804C416.93 435.804 410.931 440.804 404.932 443.804L387.935 450.804C381.936 450.804 375.937 449.804 370.938 446.804C361.939 440.804 354.94 433.804 346.942 426.804L341.943 416.804L339.943 410.804L337.943 404.804L335.944 395.804C333.944 383.804 332.944 371.804 333.944 359.804L336.943 347.804L339.943 341.804C343.942 339.804 348.941 338.804 353.941 338.804C364.939 339.804 375.937 337.804 386.935 332.804C388.935 331.804 390.934 330.804 393.934 331.804L401.933 335.804Z" fill="#FDBF4A"/>
<path fill-rule="evenodd" clip-rule="evenodd" d="M179.97 312.804L185.969 328.804L195.967 337.804C203.966 341.804 211.965 343.804 221.963 341.804L218.963 342.804C217.964 347.804 215.964 351.804 212.964 355.804C196.967 346.804 182.969 335.804 171.971 323.804L178.97 315.804L179.97 312.804Z" fill="#F7D8D2"/>
<path fill-rule="evenodd" clip-rule="evenodd" d="M418.93 355.804L433.928 359.804V373.804C431.928 395.804 422.93 413.804 406.932 428.804L382.936 440.804C365.939 431.804 353.941 419.804 346.942 402.804C342.943 388.804 341.943 374.804 342.943 360.804L345.943 351.804C345.943 350.804 346.942 349.804 348.942 349.804L370.938 348.804L390.935 341.804C398.934 347.804 408.932 351.804 418.93 355.804Z" fill="#F6473C"/>
<path fill-rule="evenodd" clip-rule="evenodd" d="M424.929 347.804L438.927 349.804L427.929 348.804L424.929 347.804Z" fill="#7A746D"/>
<path fill-rule="evenodd" clip-rule="evenodd" d="M285.952 345.804C290.951 344.804 293.951 347.804 292.951 353.804C289.952 358.804 284.952 363.804 279.953 367.804C274.954 367.804 270.955 366.804 266.955 364.804L257.957 360.804C252.958 355.804 253.958 352.804 260.956 351.804L277.954 356.804L285.952 345.804Z" fill="#131313"/>
<path fill-rule="evenodd" clip-rule="evenodd" d="M382.936 355.804L400.933 358.804L399.933 362.804C397.934 362.804 396.934 363.804 395.934 365.804L394.934 376.804C401.594 378.166 408.259 379.499 414.931 380.804C411.931 384.804 410.931 388.804 411.931 393.804L403.933 389.804L393.934 387.804L391.935 388.804L389.935 411.804C389.935 415.804 390.935 420.804 393.934 424.804C385.936 424.804 378.937 423.804 372.938 421.804L371.938 419.804L375.937 414.804L382.936 385.804L371.938 384.804C368.938 383.804 365.939 384.804 363.939 386.804V370.804C365.939 369.804 366.939 370.804 368.938 372.804L385.936 374.804L384.936 361.804C382.936 359.804 381.936 357.804 382.936 355.804Z" fill="#FFDA42"/>
<path fill-rule="evenodd" clip-rule="evenodd" d="M164.972 372.804L149.975 387.804L147.975 397.804L141.976 398.804C138.977 396.804 137.977 394.804 137.977 391.804C135.977 388.804 135.977 386.804 135.977 384.804L146.975 373.804V367.804L156.974 358.804L158.973 357.804C161.973 361.804 162.973 366.804 164.972 372.804Z" fill="#F9F9F9"/>
<path fill-rule="evenodd" clip-rule="evenodd" d="M333.944 359.804C332.945 371.804 333.944 383.804 335.944 395.804L332.945 393.804L278.954 413.804L276.954 412.804C271.955 403.804 267.955 394.804 266.956 384.804L267.955 382.804C289.952 377.804 311.948 369.804 333.944 359.804Z" fill="#D5E2EB"/>
<path fill-rule="evenodd" clip-rule="evenodd" d="M137.977 391.804C137.977 394.804 138.977 396.804 141.976 398.804C144.976 399.804 147.975 402.804 150.975 406.804C148.308 408.802 145.641 410.802 142.976 412.804L134.978 404.804C136.977 395.804 133.978 390.804 125.979 388.804C122.98 388.804 120.98 389.804 119.98 391.804C114.981 394.804 110.982 398.804 107.982 402.804L103.983 398.804C102.983 396.804 103.983 395.804 104.983 394.804C114.981 383.804 124.979 373.804 136.977 365.804L142.976 370.804C137.977 374.804 133.978 378.804 131.978 384.804C133.966 387.147 135.966 389.48 137.977 391.804Z" fill="#FFDC43"/>
<path fill-rule="evenodd" clip-rule="evenodd" d="M418.93 355.804L433.928 358.804V373.804V359.804L418.93 355.804Z" fill="#FF8944"/>
<path fill-rule="evenodd" clip-rule="evenodd" d="M146.976 367.804V373.804L135.978 384.804C135.978 386.804 135.978 388.804 137.977 391.804L134.978 390.804L131.978 384.804C133.978 378.804 137.977 374.804 142.976 370.804L136.977 365.804C124.979 373.804 114.981 383.804 104.983 394.804C103.983 395.804 102.983 396.804 103.983 398.804L107.982 402.804C110.982 398.804 114.981 394.804 119.98 391.804L117.981 399.804C114.981 403.804 111.982 406.804 107.982 408.804L98.9837 402.804C97.9838 399.804 96.984 396.804 97.9838 393.804C102.228 390.413 106.236 386.738 109.982 382.804L119.98 374.804L124.979 370.804C127.979 365.804 131.978 362.804 136.977 360.804C140.977 361.804 143.976 364.804 146.976 367.804Z" fill="#FBC04C"/>
<path fill-rule="evenodd" clip-rule="evenodd" d="M134.978 404.804C132.978 404.804 131.978 405.804 132.978 407.804L123.979 405.804L117.98 399.804L119.98 391.804C120.98 389.804 122.98 388.804 125.979 388.804C133.978 390.804 136.977 395.804 134.978 404.804Z" fill="#FAF9F7"/>
<path fill-rule="evenodd" clip-rule="evenodd" d="M147.975 397.804C157.973 404.804 157.973 410.804 146.975 417.804H141.976L132.978 407.804C131.978 405.804 132.978 404.804 134.977 404.804L142.976 412.804H145.975L150.975 406.804C147.975 402.804 144.976 399.804 141.976 398.804L147.975 397.804Z" fill="#F5BC4D"/>
<path fill-rule="evenodd" clip-rule="evenodd" d="M321.946 407.804C322.946 406.804 323.946 407.804 324.946 409.804C325.946 419.804 326.945 429.804 325.946 440.804C325.946 444.804 324.946 448.804 320.946 450.804C312.948 452.804 304.949 453.804 297.95 452.804L296.95 450.804L298.95 446.804L310.948 438.804V412.804L321.946 407.804Z" fill="#D3E1EB"/>
<path fill-rule="evenodd" clip-rule="evenodd" d="M339.943 410.804L341.943 416.804C339.943 414.804 338.943 412.804 339.943 410.804Z" fill="#6E6A6F"/>
<path fill-rule="evenodd" clip-rule="evenodd" d="M245.959 420.804L257.957 423.804C258.957 431.804 257.957 439.804 255.957 448.804L229.962 449.804C227.962 446.804 227.962 443.804 229.962 440.804L244.959 435.804L245.959 420.804Z" fill="#D3E1EB"/>
</svg>
