<svg width="500" height="500" viewBox="0 0 500 500" fill="none" xmlns="http://www.w3.org/2000/svg">
<path fill-rule="evenodd" clip-rule="evenodd" d="M303 104.146C293.53 99.3497 285.53 92.6831 279 84.1457C266.66 92.9729 253.66 100.806 240 107.646C236.68 108.144 233.35 108.311 230 108.146C224.01 104.833 221.84 99.8327 223.5 93.1457C230.19 85.961 236.69 78.6276 243 71.1457C242.79 70.5597 242.46 70.0597 242 69.6457C233.88 70.5301 228.71 67.0301 226.5 59.1457C220.59 55.9237 217.09 51.0903 216 44.6457C215.7 39.9141 217.7 36.5808 222 34.6457C232.33 34.7629 242.66 34.7629 253 34.6457C256.99 25.9409 259.15 16.7742 259.5 7.14574C263.17 0.0957227 268.67 -1.73762 276 1.64574C279.25 3.98759 281.09 7.15424 281.5 11.1457C290.58 16.0699 295.41 23.7365 296 34.1457C300.2 34.2165 304.36 33.8832 308.5 33.1457C313.9 33.2144 317.74 35.7144 320 40.6457C330.34 45.6911 331.68 52.6911 324 61.6457C316.26 65.5133 308.26 68.8466 300 71.6457C304.1 74.1131 307.93 76.9464 311.5 80.1457C314.16 84.4528 316.33 88.9528 318 93.6457C316.73 102.606 311.73 106.106 303 104.146Z" fill="#FEEB3B"/>
<path fill-rule="evenodd" clip-rule="evenodd" d="M303 104.146C305.06 110.172 307.23 116.172 309.5 122.146C324.42 145.666 340.09 168.666 356.5 191.146C360.5 195.146 364.5 199.146 368.5 203.146C369.96 207.427 368.79 210.593 365 212.646C345.72 216.688 326.39 220.188 307 223.146C327.99 229.307 346.99 239.14 364 252.646C371.17 260.479 378.33 268.312 385.5 276.146C387.34 278.327 388.51 280.827 389 283.646C387.67 289.668 385 295.001 381 299.646C371.41 300.901 361.74 301.567 352 301.646C353.71 303.024 355.05 304.691 356 306.646C370.61 313.282 384.61 320.949 398 329.646C404.14 333.771 407.8 339.438 409 346.646C408.77 349.658 407.94 352.491 406.5 355.146C396.84 367.573 384.34 375.906 369 380.146C376.62 385.932 383.45 392.6 389.5 400.146C392.46 411.543 387.96 417.71 376 418.646C372 418.979 368 419.312 364 419.646C361.48 423.993 357.64 426.161 352.5 426.146C347.19 423.855 341.69 422.023 336 420.646C314.62 417.163 293.29 416.329 272 418.146C258.06 420.376 244.06 420.71 230 419.146C205.01 413.784 179.68 410.951 154 410.646C140.33 415.143 126.66 419.477 113 423.646C98.11 424.76 90.44 417.76 90 402.646C90.24 395.924 91.58 389.424 94 383.146C91.1 377.531 91.6 372.197 95.5 367.146C111.71 349.937 128.88 333.77 147 318.646C137.24 323.457 126.91 327.124 116 329.646C105.65 329.617 101.48 324.45 103.5 314.146C104.92 311.637 106.59 309.303 108.5 307.146C109.67 298.81 113 291.477 118.5 285.146C126.36 276.948 134.53 269.115 143 261.646C163.67 246.312 184.33 230.979 205 215.646C188.77 218.855 172.44 222.189 156 225.646C132.25 228.326 127.42 219.826 141.5 200.146C159.87 184.778 176.54 167.778 191.5 149.146C205.27 136.213 218.1 122.547 230 108.146C233.35 108.311 236.68 108.144 240 107.646C253.66 100.806 266.66 92.9727 279 84.1455C285.53 92.6829 293.53 99.3495 303 104.146Z" fill="#4CAE4F"/>
<path fill-rule="evenodd" clip-rule="evenodd" d="M305 159.146C308.46 158.535 311.13 159.702 313 162.646C322.31 162.285 327.14 166.785 327.5 176.146C329.96 186.454 326.8 194.288 318 199.646C313.72 200.611 309.72 199.944 306 197.646C302.17 192.819 298.01 188.319 293.5 184.146C291.34 179.948 291.67 175.948 294.5 172.146C298.01 167.782 301.51 163.449 305 159.146Z" fill="#F24436"/>
<path fill-rule="evenodd" clip-rule="evenodd" d="M330 254.146C334.36 257.698 337.36 262.198 339 267.646C336.91 278.478 332.91 288.478 327 297.646C305.25 307.784 282.59 315.117 259 319.646C243.55 320.767 228.22 320.1 213 317.646C205.48 310.097 198.32 302.264 191.5 294.146C188.08 289.802 185.58 284.969 184 279.646C190.45 264.114 200.12 250.78 213 239.646C223.24 233.666 234.24 229.666 246 227.646C262.01 228.121 278.01 229.121 294 230.646C304.17 233.731 313.5 238.398 322 244.646C325.28 247.412 327.94 250.579 330 254.146Z" fill="#FBFCFB"/>
<path fill-rule="evenodd" clip-rule="evenodd" d="M330.001 254.145C330.631 257.509 329.291 259.509 326.001 260.145C323.111 259.256 320.441 257.923 318.001 256.145C317.251 257.021 316.751 258.021 316.501 259.145C316.161 266.178 315.501 273.178 314.501 280.145C310.391 285.631 304.891 287.797 298.001 286.645C281.491 285.473 273.331 276.64 273.501 260.145C280.821 245.404 292.651 239.571 309.001 242.645C316.931 244.938 323.931 248.772 330.001 254.145Z" fill="#060606"/>
<path fill-rule="evenodd" clip-rule="evenodd" d="M213.001 251.145C221.361 251.092 229.701 251.592 238.001 252.645C248.051 261.344 250.881 272.177 246.501 285.145C243.691 289.307 239.861 292.14 235.001 293.645C228.311 294.098 221.641 293.764 215.001 292.645C211.111 290.423 208.281 287.257 206.501 283.145C205.941 277.735 205.941 272.401 206.501 267.145C204.001 269.645 201.501 272.145 199.001 274.645C193.721 274.325 191.881 271.492 193.501 266.145C198.171 258.633 204.671 253.633 213.001 251.145Z" fill="#050505"/>
<path fill-rule="evenodd" clip-rule="evenodd" d="M284.999 252.146C290.629 251.114 293.629 253.448 293.999 259.146C292.899 266.079 288.899 268.912 281.999 267.646C277.339 264.339 276.839 260.506 280.499 256.146C282.169 254.913 283.669 253.579 284.999 252.146Z" fill="#F4F4F4"/>
<path fill-rule="evenodd" clip-rule="evenodd" d="M229 260.145C231.1 259.846 233.1 260.179 235 261.145C241.74 271.911 238.74 276.744 226 275.645C224.11 272.728 223.61 269.561 224.5 266.145C225.83 263.985 227.33 261.985 229 260.145Z" fill="#F4F4F4"/>
<path fill-rule="evenodd" clip-rule="evenodd" d="M276 294.145C281 293.316 283.17 295.316 282.5 300.145C278.05 302.928 273.88 306.095 270 309.645C267.2 310.4 264.53 310.067 262 308.645C260.17 306.145 258 303.978 255.5 302.145C254.76 300.204 254.92 298.371 256 296.645C258.33 295.978 260.67 295.978 263 296.645C264.23 298.28 265.56 299.78 267 301.145C269.89 298.55 272.89 296.217 276 294.145Z" fill="#0A0A0A"/>
<path fill-rule="evenodd" clip-rule="evenodd" d="M160.001 337.146C165.521 337.404 170.861 338.571 176.001 340.646C184.001 349.476 186.501 359.643 183.501 371.146C181.391 375.793 177.891 378.96 173.001 380.646C159.481 386.133 149.651 382.3 143.501 369.146C140.381 353.702 145.881 343.036 160.001 337.146Z" fill="#F34336"/>
<path fill-rule="evenodd" clip-rule="evenodd" d="M272.001 418.146C272.371 428.833 275.201 438.833 280.501 448.146C282.171 455.794 279.341 460.961 272.001 463.646C259.671 464.313 247.331 464.313 235.001 463.646C231.441 461.754 228.941 458.921 227.501 455.146C226.831 445.146 226.831 435.146 227.501 425.146C228.441 423.158 229.271 421.158 230.001 419.146C244.061 420.71 258.061 420.377 272.001 418.146Z" fill="#B07966"/>
</svg>
