<svg width="500" height="500" viewBox="0 0 500 500" fill="none" xmlns="http://www.w3.org/2000/svg">
<path fill-rule="evenodd" clip-rule="evenodd" d="M314 115.062C313.3 128.628 307.3 139.128 296 146.562C289.54 148.186 283.21 150.186 277 152.562C249.05 154.876 221.05 155.543 193 154.562C181.5 150.399 174.17 142.399 171 130.562C171.44 125.117 171.44 119.617 171 114.062C171.54 105.144 175.54 98.3108 183 93.5618C192.71 90.3938 202.37 87.2278 212 84.0618C215.31 79.5838 218.81 75.2508 222.5 71.0618C225.3 63.6788 226.63 56.0118 226.5 48.0618C230.45 34.1178 239.62 28.2838 254 30.5618C266.6 33.3338 272.6 41.1668 272 54.0618C271.48 60.4678 270.48 66.8008 269 73.0618C269.3 78.8868 271.97 83.3868 277 86.5618C288.15 89.4968 298.48 94.1628 308 100.562C312.05 104.535 314.05 109.368 314 115.062Z" fill="#FEE89B"/>
<path fill-rule="evenodd" clip-rule="evenodd" d="M171 114.062C171.44 119.617 171.44 125.117 171 130.562C174.17 142.399 181.5 150.399 193 154.562C221.05 155.543 249.05 154.876 277 152.562C283.21 150.186 289.54 148.186 296 146.562C307.3 139.128 313.3 128.628 314 115.062C328.15 118.707 338.65 127.041 345.5 140.062C351.29 152.086 356.29 164.419 360.5 177.062C361.31 183.138 360.14 188.805 357 194.062C353.66 198.208 349.32 201.041 344 202.562C330.18 202.423 316.52 203.757 303 206.562C287.96 206.76 272.96 207.26 258 208.062C253.32 207.896 248.65 208.063 244 208.562C242.44 208.772 241.11 209.272 240 210.062C229.32 211.517 218.65 213.017 208 214.562C197.49 214.49 187.16 214.657 177 215.062C172 215.062 167 215.062 162 215.062C154.61 213.597 147.61 210.931 141 207.062C136.21 203.608 132.54 199.275 130 194.062C122.29 159.006 133.95 132.839 165 115.562C166.94 114.749 168.94 114.249 171 114.062Z" fill="#4158DE"/>
<path fill-rule="evenodd" clip-rule="evenodd" d="M130 194.062C132.54 199.275 136.21 203.608 141 207.062C138.96 218.532 136.29 229.865 133 241.062C134.51 261.711 135.84 282.378 137 303.062C136.04 317.061 135.54 331.061 135.5 345.062C139.58 367.337 143.24 389.67 146.5 412.062C151.9 430.466 163.74 442.633 182 448.562C196 450.395 209.34 454.395 222 460.562C225.92 461.875 229.92 462.875 234 463.562C243.67 464.229 253.33 464.229 263 463.562C271.6 462.05 280.27 461.05 289 460.562C299.34 459.144 309.34 456.478 319 452.562C328.77 446.453 338.27 439.953 347.5 433.062C361.07 415.479 367.24 395.479 366 373.062C365.76 363.535 363.76 354.535 360 346.062C361.63 337.931 361.13 329.931 358.5 322.062C353.46 312.097 347.96 302.431 342 293.062C341.83 281.724 342 270.39 342.5 259.062C348.67 249.345 348.5 239.678 342 230.062C340.12 227.828 337.79 226.495 335 226.062C334.67 217.224 330.67 210.724 323 206.562C313.61 206.108 308.28 210.608 307 220.062C307.64 225.567 308.3 231.067 309 236.562C308.72 248.42 307.72 259.92 306 271.062C296.12 268.937 286.12 267.937 276 268.062C275.9 253.351 276.07 238.684 276.5 224.062C274.23 217.164 269.4 213.497 262 213.062C260.64 211.376 259.31 209.71 258 208.062C272.96 207.26 287.96 206.76 303 206.562C316.52 203.757 330.18 202.423 344 202.562C349.32 201.041 353.66 198.208 357 194.062C361.78 212.399 364.28 231.066 364.5 250.062C365.75 257.158 367.42 264.158 369.5 271.062C370.62 279.352 371.29 287.686 371.5 296.062C374.43 312.41 377.43 328.743 380.5 345.062C382.67 364.676 383.34 384.343 382.5 404.062C382 413.732 380 423.065 376.5 432.062C373.27 436.925 369.1 440.758 364 443.562C350.48 449.148 336.82 454.481 323 459.562C316.32 460.899 309.66 462.233 303 463.562C278.6 466.42 254.1 468.254 229.5 469.062C208.76 470.811 190.26 465.311 174 452.562C164.5 443.729 155 434.895 145.5 426.062C134.14 403.012 129.14 378.679 130.5 353.062C127.49 329.661 124.16 306.328 120.5 283.062C120.24 272.665 119.41 262.331 118 252.062C119.99 236.67 122.49 221.336 125.5 206.062C127.11 202.077 128.61 198.077 130 194.062Z" fill="#BAC5F3"/>
<path fill-rule="evenodd" clip-rule="evenodd" d="M342 293.061C332.23 281.937 320.23 274.604 306 271.061C307.72 259.919 308.72 248.419 309 236.561C308.3 231.066 307.64 225.566 307 220.061C308.28 210.607 313.61 206.107 323 206.561C330.67 210.723 334.67 217.223 335 226.061C337.79 226.494 340.12 227.827 342 230.061C348.5 239.677 348.67 249.344 342.5 259.061C342 270.389 341.83 281.723 342 293.061Z" fill="#ADBDE2"/>
<path fill-rule="evenodd" clip-rule="evenodd" d="M141 207.062C147.61 210.931 154.61 213.597 162 215.062C153.95 215.115 149.28 219.115 148 227.062C152.77 239.807 156.1 252.807 158 266.062C158.34 275.747 159 285.414 160 295.062C159.09 334.072 158.93 373.072 159.5 412.062C161.58 415.188 164.58 416.855 168.5 417.062C169.27 416.917 169.94 416.584 170.5 416.062C171.34 417.913 172.17 419.746 173 421.562C174.05 422.054 175.05 421.888 176 421.062C177.15 417.659 177.82 414.159 178 410.562C177.03 406.362 177.03 402.195 178 398.062C180.48 396.665 183.15 395.831 186 395.562C187.25 394.068 187.25 392.568 186 391.062C182.36 388.141 179.19 388.475 176.5 392.062C176.51 385.744 176.68 379.411 177 373.062C182.12 373.665 186.79 372.998 191 371.062C201.1 393.315 218.44 406.149 243 409.562C264 410.777 284.67 408.777 305 403.562C312.28 400.925 318.94 397.258 325 392.562C332.88 384.713 341.05 377.213 349.5 370.062C354.91 362.91 358.41 354.91 360 346.062C363.76 354.535 365.76 363.535 366 373.062C367.24 395.479 361.07 415.479 347.5 433.062C338.27 439.953 328.77 446.453 319 452.562C309.34 456.478 299.34 459.144 289 460.562C280.27 461.05 271.6 462.05 263 463.562C253.33 464.229 243.67 464.229 234 463.562C229.92 462.875 225.92 461.875 222 460.562C209.34 454.395 196 450.395 182 448.562C163.74 442.633 151.9 430.466 146.5 412.062C143.24 389.67 139.58 367.337 135.5 345.062C135.54 331.061 136.04 317.061 137 303.062C135.84 282.378 134.51 261.711 133 241.062C136.29 229.865 138.96 218.532 141 207.062Z" fill="#B0C2EF"/>
<path fill-rule="evenodd" clip-rule="evenodd" d="M258 208.062C259.31 209.71 260.64 211.376 262 213.062C269.4 213.497 274.23 217.164 276.5 224.062C276.07 238.684 275.9 253.351 276 268.062C263.69 268.392 251.69 270.392 240 274.062C240.38 263.722 240.55 253.388 240.5 243.062C237.7 238.383 237.2 233.383 239 228.062C236.18 221.861 236.51 215.861 240 210.062C241.11 209.272 242.44 208.772 244 208.562C248.65 208.063 253.32 207.896 258 208.062Z" fill="#ADBDE2"/>
<path fill-rule="evenodd" clip-rule="evenodd" d="M240 210.062C236.51 215.861 236.18 221.861 239 228.062C237.2 233.383 237.7 238.383 240.5 243.062C240.55 253.388 240.38 263.722 240 274.062C224.45 279.275 212.45 288.942 204 303.062C202.03 277.166 199.53 251.166 196.5 225.062C193.37 215.6 186.87 212.266 177 215.062C187.16 214.657 197.49 214.49 208 214.562C218.65 213.017 229.32 211.517 240 210.062Z" fill="#B0C4F2"/>
<path fill-rule="evenodd" clip-rule="evenodd" d="M162 215.062C167 215.062 172 215.062 177 215.062C186.87 212.266 193.37 215.6 196.5 225.062C199.53 251.166 202.03 277.166 204 303.062C200.11 310.402 197.44 318.068 196 326.062C189.16 324.974 182.16 324.974 175 326.062C175.13 320.359 174.79 314.692 174 309.062C180 308.653 186 308.153 192 307.562C193.51 305.108 192.85 303.441 190 302.562C186.84 302.008 183.68 301.508 180.5 301.062C178.26 301.653 176.09 302.32 174 303.062C173.83 296.387 174 289.72 174.5 283.062C181.72 286.565 189.22 287.065 197 284.562C199.59 283.037 200.42 280.87 199.5 278.062C194.08 277.129 188.58 276.462 183 276.062C179.35 278.01 175.85 278.01 172.5 276.062C172.96 264.747 172.96 253.414 172.5 242.062C165.81 238.728 161.15 240.728 158.5 248.062C158 254.053 157.83 260.053 158 266.062C156.1 252.807 152.77 239.807 148 227.062C149.28 219.115 153.95 215.115 162 215.062Z" fill="#ACBCE1"/>
<path fill-rule="evenodd" clip-rule="evenodd" d="M195.999 326.061C195.789 328.802 194.789 331.135 192.999 333.061C187.159 330.746 181.159 330.412 174.999 332.061C174.999 337.061 174.999 342.061 174.999 347.061C176.329 347.061 177.669 347.061 178.999 347.061C178.389 343.501 179.889 341.501 183.499 341.061C185.329 342.698 187.159 344.364 188.999 346.061C188.999 347.394 188.999 348.728 188.999 350.061C185.009 351.059 181.009 352.059 176.999 353.061C176.009 357.681 175.669 362.347 175.999 367.061C178.539 367.41 180.539 366.577 181.999 364.561C184.309 364.064 186.639 363.898 188.999 364.061C190.069 366.262 190.729 368.596 190.999 371.061C186.789 372.997 182.119 373.664 176.999 373.061C176.679 379.41 176.509 385.743 176.499 392.061C179.189 388.474 182.359 388.14 185.999 391.061C187.249 392.567 187.249 394.067 185.999 395.561C183.149 395.83 180.479 396.664 177.999 398.061C177.029 402.194 177.029 406.361 177.999 410.561C177.819 414.158 177.149 417.658 175.999 421.061C175.049 421.887 174.049 422.053 172.999 421.561C172.169 419.745 171.339 417.912 170.499 416.061C169.939 416.583 169.269 416.916 168.499 417.061C164.579 416.854 161.579 415.187 159.499 412.061C158.929 373.071 159.089 334.071 159.999 295.061C158.999 285.413 158.339 275.746 157.999 266.061C157.829 260.052 157.999 254.052 158.499 248.061C161.149 240.727 165.809 238.727 172.499 242.061C172.959 253.413 172.959 264.746 172.499 276.061C175.849 278.009 179.349 278.009 182.999 276.061C188.579 276.461 194.079 277.128 199.499 278.061C200.419 280.869 199.589 283.036 196.999 284.561C189.219 287.064 181.719 286.564 174.499 283.061C173.999 289.719 173.829 296.386 173.999 303.061C176.089 302.319 178.259 301.652 180.499 301.061C183.679 301.507 186.839 302.007 189.999 302.561C192.849 303.44 193.509 305.107 191.999 307.561C185.999 308.152 179.999 308.652 173.999 309.061C174.789 314.691 175.129 320.358 174.999 326.061C182.159 324.973 189.159 324.973 195.999 326.061Z" fill="#8896B4"/>
<path fill-rule="evenodd" clip-rule="evenodd" d="M276 268.061C286.12 267.936 296.12 268.936 306 271.061C320.23 274.604 332.23 281.937 342 293.061C347.96 302.43 353.46 312.096 358.5 322.061C361.13 329.93 361.63 337.93 360 346.061C358.41 354.909 354.91 362.909 349.5 370.061C341.05 377.212 332.88 384.712 325 392.561C318.94 397.257 312.28 400.924 305 403.561C284.67 408.776 264 410.776 243 409.561C218.44 406.148 201.1 393.314 191 371.061C190.73 368.596 190.07 366.262 189 364.061C189 359.394 189 354.728 189 350.061C189 348.728 189 347.394 189 346.061C190.33 341.732 191.67 337.398 193 333.061C194.79 331.135 195.79 328.802 196 326.061C197.44 318.067 200.11 310.401 204 303.061C212.45 288.941 224.45 279.274 240 274.061C251.69 270.391 263.69 268.391 276 268.061Z" fill="#FDFDFD"/>
<path fill-rule="evenodd" clip-rule="evenodd" d="M301 310.062C320.83 309.195 339.33 313.529 356.5 323.062C357.24 325.003 357.08 326.836 356 328.562C349.81 329.878 344.15 328.711 339 325.062C338.67 325.395 338.33 325.729 338 326.062C339.18 328.425 339.84 330.925 340 333.562C338.77 340.237 336.94 346.737 334.5 353.062C326.35 365.174 315.18 368.674 301 363.562C293.12 359.995 288.62 353.828 287.5 345.062C285.98 335.617 287.32 326.617 291.5 318.062C294.86 315.531 298.02 312.864 301 310.062Z" fill="#040404"/>
<path fill-rule="evenodd" clip-rule="evenodd" d="M301.001 318.061C304.791 317.375 307.951 318.375 310.501 321.061C311.001 325.769 310.661 330.436 309.501 335.061C302.961 341.03 297.631 340.03 293.501 332.061C292.831 329.728 292.831 327.394 293.501 325.061C296.401 323.05 298.901 320.717 301.001 318.061Z" fill="#F6F6F6"/>
<path fill-rule="evenodd" clip-rule="evenodd" d="M223 320.062C229.67 319.896 236.34 320.062 243 320.562C249.09 321.652 252.92 325.152 254.5 331.062C263.69 341.122 264.36 351.788 256.5 363.062C249.19 373.96 239.02 378.127 226 375.562C212.98 368.702 206.82 357.869 207.5 343.062C205.02 346.511 202.19 349.678 199 352.562C192.07 354.973 189.57 352.473 191.5 345.062C195.28 337.614 200.78 331.78 208 327.562C213.09 325.016 218.09 322.516 223 320.062Z" fill="#040404"/>
<path fill-rule="evenodd" clip-rule="evenodd" d="M239.001 328.061C245.571 327.791 249.231 330.957 250.001 337.561C249.891 344.261 246.721 348.761 240.501 351.061C231.671 347.017 229.671 340.684 234.501 332.061C235.901 330.491 237.401 329.157 239.001 328.061Z" fill="#F5F5F5"/>
<path fill-rule="evenodd" clip-rule="evenodd" d="M193 333.062C191.67 337.399 190.33 341.733 189 346.062C187.16 344.365 185.33 342.699 183.5 341.062C179.89 341.502 178.39 343.502 179 347.062C177.67 347.062 176.33 347.062 175 347.062C175 342.062 175 337.062 175 332.062C181.16 330.413 187.16 330.747 193 333.062Z" fill="#ABBBE0"/>
<path fill-rule="evenodd" clip-rule="evenodd" d="M189 350.062C189 354.729 189 359.395 189 364.062C186.64 363.899 184.31 364.065 182 364.562C180.54 366.578 178.54 367.411 176 367.062C175.67 362.348 176.01 357.682 177 353.062C181.01 352.06 185.01 351.06 189 350.062Z" fill="#AEBDE1"/>
<path fill-rule="evenodd" clip-rule="evenodd" d="M292 371.061C295.38 370.449 297.71 371.615 299 374.561C297.25 380.061 294.25 384.727 290 388.561C287.67 389.228 285.33 389.228 283 388.561C278.96 386.618 274.79 385.118 270.5 384.061C269.6 381.536 270.1 379.369 272 377.561C276.95 378.427 281.95 379.093 287 379.561C289.06 376.947 290.72 374.114 292 371.061Z" fill="#0C0C0C"/>
</svg>
