<svg width="500" height="500" viewBox="0 0 500 500" fill="none" xmlns="http://www.w3.org/2000/svg">
<path fill-rule="evenodd" clip-rule="evenodd" d="M252.155 38.589C247.249 38.3052 242.336 38.1265 237.417 38.0531C229.637 38.2844 221.866 38.6417 214.104 39.125C225.923 36.8472 237.892 36.4006 250.011 37.7852C250.846 37.8977 251.56 38.1657 252.155 38.589Z" fill="#A3A1B6"/>
<path fill-rule="evenodd" clip-rule="evenodd" d="M252.155 38.589C258.076 39.5767 263.971 40.7379 269.84 42.0725C277.934 44.7222 286.151 47.0448 294.493 49.0395C299.931 52.1628 305.647 54.6635 311.642 56.5424C320.661 62.7489 329.771 68.8231 338.974 74.7638C347.738 82.629 355.509 91.2933 362.287 100.756C362.546 101.264 362.635 101.8 362.555 102.364C361.819 102.448 361.104 102.359 360.411 102.096C357.196 99.5948 353.98 97.0941 350.765 94.593C346.685 92.9107 342.755 90.9455 338.974 88.6978C330.332 85.2518 321.579 82.0363 312.714 79.0512C303.498 77.4809 294.387 75.5157 285.382 73.156C262.039 70.1929 238.994 71.6222 216.248 77.4434C209.222 79.5475 202.255 81.8696 195.347 84.4104C192.622 86.3076 189.764 87.9154 186.772 89.2338C180.922 93.1133 175.205 97.2217 169.622 101.56C157.79 111.427 146.803 122.235 136.663 133.983C132.244 140.496 127.956 147.107 123.801 153.813C122.69 155.673 121.887 157.638 121.389 159.708C120.6 158.591 119.974 157.341 119.513 155.956C118.597 151.091 117.525 146.267 116.298 141.486C113.035 130.133 109.73 118.789 106.383 107.455C106.873 106.702 107.23 105.898 107.455 105.044C109.569 101.23 111.803 97.4784 114.154 93.7891C129.426 76.9209 147.558 63.9692 168.55 54.9346C171.454 52.411 174.848 50.7137 178.733 49.8434C184.231 48.1622 189.59 46.1975 194.811 43.9482C200.976 41.5331 207.407 39.9253 214.104 39.1249C221.866 38.6416 229.637 38.2843 237.417 38.053C242.336 38.1265 247.249 38.3051 252.155 38.589Z" fill="#ACB3CE"/>
<path fill-rule="evenodd" clip-rule="evenodd" d="M194.811 43.9481C189.59 46.1974 184.231 48.1621 178.733 49.8433C183.821 47.2532 189.18 45.2879 194.811 43.9481Z" fill="#9893A2"/>
<path fill-rule="evenodd" clip-rule="evenodd" d="M362.555 102.364C362.858 103.21 363.394 103.925 364.163 104.508C364.978 108.425 363.37 109.943 359.339 109.063C354.332 105.699 348.793 103.376 342.726 102.096C333.493 97.7384 323.847 94.6123 313.786 92.7173C313.562 92.3303 313.205 92.0624 312.714 91.9134C308.805 91.2403 304.876 90.7933 300.924 90.5736C267.734 88.6143 235.757 93.7055 204.993 105.847C191.332 112.486 178.827 120.704 167.479 130.5C163.976 133.913 160.582 137.397 157.296 140.95C155.307 142.403 153.699 144.19 152.473 146.31C143.017 158.247 135.335 171.288 129.428 185.432C125.904 177.178 123.224 168.604 121.389 159.708C121.886 157.638 122.69 155.673 123.801 153.813C127.956 147.107 132.244 140.496 136.663 133.983C146.803 122.235 157.79 111.427 169.622 101.56C175.205 97.2217 180.922 93.1133 186.772 89.2338C189.764 87.9154 192.622 86.3076 195.347 84.4105C202.255 81.8697 209.222 79.5475 216.248 77.4435C238.994 71.6223 262.039 70.1929 285.382 73.1561C294.387 75.5157 303.498 77.481 312.714 79.0512C321.579 82.0363 330.332 85.2519 338.974 88.6979C342.755 90.9455 346.685 92.9108 350.765 94.593C353.98 97.0942 357.196 99.5948 360.411 102.096C361.104 102.359 361.819 102.448 362.555 102.364Z" fill="#DADEEB"/>
<path fill-rule="evenodd" clip-rule="evenodd" d="M107.455 105.043C107.23 105.898 106.873 106.702 106.383 107.455C109.73 118.789 113.035 130.133 116.298 141.486C117.525 146.267 118.597 151.09 119.513 155.956C119.974 157.341 120.6 158.591 121.389 159.708C123.224 168.603 125.904 177.178 129.428 185.432C129.362 189.072 129.809 192.645 130.768 196.15C135.089 208.942 138.661 221.982 141.486 235.273C143.389 240.322 144.819 245.503 145.774 250.815C146.302 251.712 146.749 252.606 147.114 253.494C149.241 261.499 151.295 269.538 153.277 277.611C153.813 278.504 154.348 279.397 154.884 280.29C160.29 301.398 166.185 322.299 172.57 342.994C173.398 346.728 174.113 350.48 174.714 354.248C177.62 361.942 180.032 369.802 181.949 377.829C182.264 380.62 182.979 383.299 184.092 385.867C184.618 387.433 185.065 389.041 185.432 390.691C185.96 391.395 186.585 391.931 187.308 392.299C186.187 392.201 185.115 392.38 184.092 392.834C183.17 393.849 182.187 394.742 181.145 395.514C179.554 394.668 177.857 394.311 176.053 394.442C176.574 393.96 176.931 393.335 177.125 392.566C176.327 390.025 175.612 387.434 174.982 384.796C167.833 358.88 160.777 332.977 153.813 307.087C150.266 297.473 147.408 287.648 145.238 277.611C138.175 253.01 131.387 228.357 124.873 203.653C123.936 199.95 122.686 196.377 121.121 192.935C112.423 160.044 103.491 127.174 94.325 94.3249C92.6969 92.8763 91.2676 91.2685 90.0376 89.5016C89.9412 88.4362 90.0301 87.3643 90.3056 86.2861C90.8415 86.2861 91.3774 86.2861 91.9134 86.2861C91.796 85.6563 91.9744 85.1204 92.4493 84.6783C95.9414 82.9403 99.4249 82.7618 102.9 84.1424C103.24 84.928 103.687 85.6429 104.24 86.2861C103.111 87.7379 102.218 89.3456 101.56 91.1094C102.756 96.0709 104.363 100.894 106.383 105.579C106.749 105.385 107.107 105.206 107.455 105.043Z" fill="#8C90A4"/>
<path fill-rule="evenodd" clip-rule="evenodd" d="M300.924 90.5735C304.876 90.7933 308.806 91.2402 312.714 91.9134C313.205 92.0623 313.562 92.3303 313.786 92.7172C309.401 92.1722 305.114 91.4573 300.924 90.5735Z" fill="#AFA5A8"/>
<path fill-rule="evenodd" clip-rule="evenodd" d="M378.097 347.817C373.666 350.111 369.379 352.612 365.235 355.32C367.753 357.839 370.433 360.161 373.274 362.287C379.866 368.789 386.565 375.22 393.371 381.58C394.558 384.407 394.29 387.087 392.567 389.619C390.456 394.767 386.883 398.518 381.848 400.873C381.123 401.746 381.302 402.461 382.384 403.017C383.814 404.625 385.242 406.233 386.672 407.84C388.062 409.862 389.58 411.827 391.227 413.736C391.632 415.238 391.453 416.667 390.691 418.023C388.493 420.307 386.617 422.808 385.064 425.526C379.325 431.883 372.179 435.902 363.627 437.584C359.762 439.838 356.368 442.696 353.444 446.159C345.771 450.35 337.554 452.672 328.792 453.126C325.873 454.12 323.194 455.46 320.753 457.145C316.429 458.33 312.32 459.938 308.427 461.969C303.943 462.079 299.477 461.9 295.029 461.433C292.885 461.075 290.741 460.718 288.598 460.361C277.786 460.439 266.889 460.439 255.906 460.361C254.477 460.129 253.049 459.861 251.619 459.557C246.227 455.7 240.332 452.842 233.933 450.982C221.637 452.373 210.829 449.068 201.51 441.068C200.819 439.839 199.925 438.767 198.83 437.852C198.169 435.593 197.365 433.45 196.419 431.421C196.467 430 196.11 428.749 195.347 427.67C196.018 421.859 197.805 416.41 200.706 411.324C200.452 410.462 200.095 410.373 199.634 411.056C198.068 414.253 196.55 417.468 195.079 420.703C194.719 421.106 194.273 421.285 193.739 421.239C193.309 419.235 192.773 417.27 192.131 415.343C190.895 410.377 192.503 406.716 196.955 404.357C199.374 402.098 201.607 399.686 203.654 397.122C204.955 392.411 205.937 387.587 206.601 382.652C211.112 379.591 213.434 380.842 213.568 386.403C212.027 392.946 210.866 399.556 210.085 406.233C208.265 412.224 206.122 418.119 203.654 423.918C202.42 426.874 202.599 429.732 204.19 432.493C212.501 441.994 222.952 445.656 235.541 443.479C238.042 444.194 240.543 444.909 243.044 445.623C246.974 447.945 250.904 450.268 254.834 452.59C258.396 453.142 261.969 453.588 265.553 453.93C276.11 451.697 286.649 451.787 297.172 454.198C300.745 454.555 304.318 454.555 307.891 454.198C313.295 452.121 318.476 449.619 323.433 446.695C328.02 445.66 332.664 444.946 337.367 444.551C341.753 443.029 346.041 441.242 350.229 439.192C354.815 433.535 360.71 430.141 367.914 429.009C372.467 427.089 376.218 424.142 379.169 420.167C379.611 419.692 380.147 419.513 380.776 419.631C381.343 418.112 381.968 416.683 382.652 415.343C380.866 413.2 379.079 411.056 377.293 408.912C373.674 403.282 369.922 397.744 366.039 392.299C363.074 387.621 360.842 382.619 359.34 377.293C360.14 375.377 361.302 375.198 362.823 376.757C366.297 382.892 370.495 388.519 375.417 393.638C377.419 393.965 379.385 393.787 381.312 393.103C383.595 390.669 385.114 387.9 385.868 384.796C380.435 379.899 375.165 374.808 370.058 369.522C366.328 366.686 362.755 363.649 359.34 360.411C358.681 359.993 357.966 359.725 357.196 359.607C343.981 366.858 329.869 370.43 314.858 370.326C309.751 370.546 304.749 371.35 299.852 372.737C288.915 372.736 278.017 373.183 267.161 374.077C263.403 373.898 259.651 373.63 255.906 373.273C247.934 371.557 239.895 370.129 231.79 368.986C223.716 366.326 215.857 363.2 208.209 359.607C204.79 361.688 202.199 364.546 200.438 368.182C195.037 373.581 190.035 379.298 185.432 385.332C185.073 385.735 184.626 385.914 184.092 385.868C182.979 383.299 182.264 380.62 181.949 377.829C188.661 370.49 195.092 362.898 201.242 355.052C196.703 350.602 192.237 346.047 187.844 341.386C183.833 336.486 180.26 331.306 177.125 325.844C174.295 317.751 172.777 309.355 172.57 300.656C171.162 282.896 174.109 265.926 181.413 249.743C181.234 249.564 181.055 249.385 180.877 249.207C173.669 253.382 165.987 256.508 157.832 258.586C155.867 258.943 153.902 258.943 151.937 258.586C150.021 257.15 148.413 255.453 147.114 253.494C146.434 249.95 146.166 246.377 146.31 242.776C149.727 231.66 155.623 222.014 163.995 213.836C176.148 198.063 190.35 184.397 206.601 172.838C214.28 167.568 222.14 162.566 230.182 157.832C237.122 154.509 244.089 151.293 251.083 148.185C259.808 146.792 268.383 144.827 276.807 142.29C298.874 141.643 319.24 147.182 337.903 158.904C345.363 165.179 352.419 171.878 359.072 179.001C373.865 198.222 386.191 218.944 396.05 241.168C398.414 249.588 401.272 257.805 404.625 265.821C405.707 273.57 407.136 281.252 408.912 288.865C409.27 293.689 409.27 298.512 408.912 303.335C405.452 314.9 400.272 325.618 393.371 335.491C388.488 339.933 383.397 344.042 378.097 347.817Z" fill="#050303"/>
<path fill-rule="evenodd" clip-rule="evenodd" d="M157.296 140.95C156.054 143.084 154.447 144.871 152.473 146.31C153.699 144.19 155.307 142.403 157.296 140.95Z" fill="#9F9697"/>
<path fill-rule="evenodd" clip-rule="evenodd" d="M274.663 151.133C284.614 150.807 294.439 151.789 304.139 154.081C309.578 155.956 315.116 157.564 320.753 158.904C327.069 161.259 332.607 164.832 337.366 169.622C341.648 171.756 345.31 174.704 348.353 178.465C355.039 185.685 361.113 193.366 366.574 201.51C374.623 214.93 381.947 228.685 388.547 242.776C391.08 251.13 393.939 259.347 397.122 267.428C400.139 278.489 401.568 289.744 401.409 301.192C398.475 310.991 394.367 320.28 389.083 329.06C384.148 333.46 379.056 337.658 373.809 341.654C364.298 347.05 354.651 352.231 344.869 357.196C337.236 359.998 329.375 361.962 321.289 363.091C318.509 363.432 315.74 363.343 312.982 362.823C308.776 363.463 304.579 364.088 300.388 364.699C289.296 364.806 278.22 365.253 267.16 366.038C246.712 365.737 227.418 361.003 209.281 351.836C202.537 345.272 196.016 338.573 189.719 331.739C184.547 323.745 181.421 314.992 180.341 305.479C177.89 278.834 184.143 254.538 199.098 232.593C202.869 225.597 207.067 218.809 211.692 212.228C216.048 203.697 221.585 196.016 228.306 189.184C229.083 186.298 228.101 185.404 225.358 186.504C220.392 191.201 215.48 196.024 210.62 200.974C204.353 209.569 198.28 218.322 192.399 227.234C191.415 230.809 189.718 234.024 187.308 236.881C181.193 239.935 175.298 243.24 169.622 246.795C164.522 248.758 159.342 250.276 154.08 251.351C153.855 248.665 153.766 245.985 153.813 243.312C157.332 233.596 162.87 225.2 170.426 218.123C181.213 203.592 193.986 191.176 208.745 180.877C209.638 179.269 210.888 178.019 212.496 177.125C222.436 170.815 232.618 164.92 243.044 159.44C246.452 157.695 250.025 156.445 253.762 155.688C260.752 153.988 267.719 152.47 274.663 151.133Z" fill="#2E2C2D"/>
<path fill-rule="evenodd" clip-rule="evenodd" d="M286.454 212.764C284.762 213.265 282.976 213.622 281.094 213.836C281.318 213.449 281.675 213.181 282.166 213.032C283.584 212.766 285.014 212.676 286.454 212.764Z" fill="#8D8B8C"/>
<path fill-rule="evenodd" clip-rule="evenodd" d="M286.454 212.764C293.971 212.297 301.295 213.19 308.427 215.444C308.68 216.197 309.216 216.555 310.034 216.516C312.993 218.303 316.03 220 319.145 221.607C333.786 232.582 347.363 244.819 359.875 258.318C358.922 259.306 357.672 259.663 356.124 259.389C354.516 259.389 352.908 259.389 351.301 259.389C349.814 258.769 348.207 258.412 346.477 258.318C345.905 257.817 345.191 257.638 344.334 257.782C344.11 257.395 343.753 257.127 343.262 256.978C341.844 256.711 340.414 256.622 338.974 256.71C338.796 256.71 338.617 256.71 338.438 256.71C332.111 255.391 325.68 255.301 319.145 256.442C318.847 256.647 318.669 256.915 318.609 257.246C318.431 257.246 318.252 257.246 318.073 257.246C317.053 257.373 316.338 257.909 315.93 258.854C312.945 261.115 310.354 263.795 308.159 266.892C307.188 269.346 306.384 271.848 305.747 274.395C304.984 275.475 304.627 276.726 304.675 278.147C304.143 282.694 303.965 287.338 304.139 292.081C304.154 293.912 304.69 295.519 305.747 296.904C306.588 300.767 308.106 304.34 310.302 307.623C311.36 309.178 312.7 310.429 314.322 311.374C314.575 312.128 315.111 312.485 315.93 312.446C316.616 313.213 317.509 313.57 318.609 313.518C319.528 314.181 320.6 314.539 321.825 314.59C322.182 314.59 322.539 314.59 322.897 314.59C323.977 315.353 325.227 315.71 326.648 315.661C330.042 315.661 333.437 315.661 336.831 315.661C336.67 319.232 337.295 322.626 338.706 325.844C341.602 328.889 344.55 331.837 347.549 334.687C350.129 335.284 352.63 335.909 355.052 336.563C354.516 336.741 354.159 337.098 353.98 337.634C351.753 338.3 349.788 339.372 348.085 340.85C346.033 341.315 344.246 342.207 342.726 343.53C340.711 343.724 338.924 344.438 337.367 345.673C335.747 345.836 334.139 346.104 332.543 346.477C332.245 346.682 332.067 346.95 332.007 347.281C327.437 348.111 322.971 349.183 318.609 350.497C317.738 350.262 316.844 350.083 315.93 349.961C308.367 351.668 300.686 352.65 292.885 352.908C283.597 353.176 274.308 353.266 265.017 353.176C261.048 352.875 257.117 352.34 253.227 351.568C251.452 351.363 249.844 350.827 248.403 349.961C253.171 347.241 256.833 343.311 259.39 338.17C260.487 333.736 260.398 329.36 259.122 325.04C259.252 324.557 259.431 324.11 259.658 323.7C263.597 320.653 267.17 317.259 270.376 313.518C271.046 313.477 271.492 313.119 271.716 312.446C272.41 310.455 273.035 308.49 273.592 306.551C273.592 306.372 273.592 306.193 273.592 306.015C274.345 305.761 274.703 305.225 274.663 304.407C275 303.019 275.625 301.769 276.539 300.656C276.807 297.803 276.896 294.945 276.807 292.081C276.89 290.357 276.354 288.928 275.199 287.793C275.114 286.908 274.757 286.193 274.128 285.65C274.167 284.831 273.809 284.295 273.056 284.042C273.095 283.224 272.737 282.688 271.984 282.434C270.955 280.923 269.795 279.494 268.5 278.147C268.322 276.718 268.143 275.289 267.964 273.859C266.124 271.745 264.069 269.959 261.801 268.5C260.903 267.249 259.653 266.713 258.05 266.892C250.915 265.723 243.769 265.544 236.613 266.356C234.376 266.446 232.411 267.16 230.718 268.5C230.36 268.5 230.003 268.5 229.646 268.5C228.828 268.461 228.292 268.819 228.038 269.572C227.444 269.603 226.908 269.781 226.43 270.108C225.612 270.069 225.076 270.426 224.823 271.18C219.302 273.927 214.121 277.233 209.281 281.094C207.698 282.569 206.448 284.266 205.529 286.186C205.209 286.06 205.031 285.792 204.993 285.382C207.672 279.592 211.066 274.321 215.176 269.572C216.294 268.991 217.009 268.098 217.32 266.892C223.696 259.711 230.663 253.19 238.221 247.331C246.26 239.65 254.298 231.968 262.337 224.286C265.374 221.964 268.411 219.642 271.448 217.319C274.423 215.465 277.638 214.303 281.095 213.836C282.976 213.622 284.762 213.265 286.454 212.764Z" fill="#FDFCFD"/>
<path fill-rule="evenodd" clip-rule="evenodd" d="M308.427 215.444C309.245 215.405 309.781 215.762 310.034 216.516C309.216 216.555 308.68 216.197 308.427 215.444Z" fill="#888687"/>
<path fill-rule="evenodd" clip-rule="evenodd" d="M338.438 256.71C331.789 255.867 325.179 256.046 318.609 257.246C318.669 256.915 318.847 256.647 319.145 256.442C325.68 255.301 332.111 255.391 338.438 256.71Z" fill="#5B5B5B"/>
<path fill-rule="evenodd" clip-rule="evenodd" d="M338.438 256.71C338.617 256.71 338.796 256.71 338.974 256.71C340.65 257.289 342.436 257.646 344.333 257.782C345.19 257.638 345.905 257.817 346.477 258.318C347.908 259.185 349.516 259.542 351.3 259.39C352.908 259.39 354.516 259.39 356.124 259.39C358.388 260.361 360.711 261.254 363.091 262.069C368.665 265.618 374.47 268.833 380.508 271.716C380.933 275.49 379.236 277.276 375.417 277.075C374.56 277.219 373.846 277.04 373.273 276.539C371.045 276.031 368.723 275.673 366.306 275.467C364.296 274.285 362.152 273.391 359.875 272.788C359.875 273.502 359.875 274.217 359.875 274.931C359.827 276.353 360.184 277.603 360.947 278.683C361.413 279.871 361.591 281.121 361.483 282.434C361.125 284.221 360.768 286.007 360.411 287.794C359.648 288.873 359.291 290.124 359.339 291.545C357.699 296.017 356.002 300.483 354.248 304.943C349.857 310.86 344.051 314.433 336.83 315.662C333.436 315.662 330.042 315.662 326.648 315.662C325.568 314.898 324.318 314.541 322.896 314.59C322.539 314.59 322.182 314.59 321.825 314.59C320.966 313.746 319.894 313.389 318.609 313.518C317.509 313.57 316.615 313.213 315.929 312.446C315.676 311.693 315.14 311.335 314.322 311.374C312.699 310.429 311.36 309.178 310.302 307.623C308.106 304.34 306.588 300.767 305.747 296.904C305.645 295.106 305.109 293.498 304.139 292.081C303.964 287.339 304.143 282.694 304.675 278.147C305.438 277.067 305.795 275.817 305.747 274.395C306.384 271.848 307.188 269.347 308.158 266.893C310.354 263.795 312.945 261.115 315.929 258.854C316.95 258.726 317.665 258.19 318.073 257.246C318.252 257.246 318.431 257.246 318.609 257.246C325.179 256.046 331.789 255.867 338.438 256.71Z" fill="#030303"/>
<path fill-rule="evenodd" clip-rule="evenodd" d="M338.974 256.71C340.414 256.622 341.844 256.711 343.262 256.978C343.753 257.127 344.11 257.395 344.334 257.782C342.436 257.646 340.65 257.289 338.974 256.71Z" fill="#9E9E9E"/>
<path fill-rule="evenodd" clip-rule="evenodd" d="M318.073 257.246C317.665 258.19 316.95 258.726 315.929 258.854C316.338 257.909 317.053 257.373 318.073 257.246Z" fill="#696969"/>
<path fill-rule="evenodd" clip-rule="evenodd" d="M346.477 258.318C348.206 258.412 349.814 258.769 351.3 259.389C349.516 259.542 347.909 259.185 346.477 258.318Z" fill="#636363"/>
<path fill-rule="evenodd" clip-rule="evenodd" d="M359.875 258.318C361.516 259.395 362.588 260.645 363.091 262.069C360.711 261.254 358.389 260.361 356.124 259.389C357.672 259.663 358.922 259.306 359.875 258.318Z" fill="#C9C9C9"/>
<path fill-rule="evenodd" clip-rule="evenodd" d="M325.04 264.749C325.754 264.927 326.469 265.106 327.184 265.285C327.541 265.999 328.077 266.535 328.791 266.892C329.319 268.908 329.676 270.962 329.863 273.056C329.443 276.348 329.265 279.653 329.327 282.97C327.898 284.042 326.648 285.292 325.576 286.722C322.341 286.797 319.126 286.618 315.929 286.186C315.648 285.218 315.291 284.325 314.857 283.506C314.449 282.562 313.734 282.026 312.714 281.898C312.535 281.898 312.356 281.898 312.178 281.898C311.82 281.005 311.463 280.112 311.106 279.219C311.066 276.862 311.334 274.54 311.91 272.252C313.181 271.071 314.342 269.82 315.393 268.5C315.817 268.017 316.353 267.66 317.001 267.428C319.168 265.158 321.848 264.264 325.04 264.749Z" fill="#FAFAFA"/>
<path fill-rule="evenodd" clip-rule="evenodd" d="M327.184 265.285C328.256 265.285 328.792 265.821 328.792 266.893C328.077 266.535 327.542 265.999 327.184 265.285Z" fill="#5D5D5D"/>
<path fill-rule="evenodd" clip-rule="evenodd" d="M258.049 266.893C259.126 267.731 260.377 268.267 261.801 268.5C264.069 269.959 266.123 271.745 267.964 273.86C268.143 275.289 268.322 276.718 268.5 278.147C269.794 279.494 270.955 280.924 271.983 282.434C271.944 283.253 272.302 283.789 273.055 284.042C273.016 284.86 273.374 285.396 274.127 285.65C274.756 286.193 275.113 286.908 275.199 287.794C275.536 289.346 276.072 290.775 276.807 292.081C276.896 294.945 276.806 297.803 276.539 300.656C275.625 301.769 275 303.019 274.663 304.407C273.91 304.661 273.552 305.197 273.591 306.015C273.591 306.193 273.591 306.372 273.591 306.551C272.325 308.722 271.253 311.045 270.376 313.518C267.17 317.259 263.597 320.653 259.657 323.7C258.771 323.786 258.057 324.143 257.514 324.772C255.159 325.44 252.837 325.976 250.547 326.38C248.243 326.755 245.921 326.934 243.58 326.916C242.686 326.916 241.793 326.916 240.9 326.916C239.482 325.946 237.875 325.41 236.077 325.308C231.913 323.172 228.251 320.313 225.09 316.733C223.148 312.315 221.093 308.028 218.927 303.871C218.927 303.514 218.927 303.157 218.927 302.799C218.927 302.085 218.927 301.37 218.927 300.656C218.958 297.252 219.136 293.858 219.463 290.473C218.771 290.346 218.235 290.525 217.855 291.009C214.713 294.77 211.318 298.343 207.673 301.728C206.107 302.214 204.499 302.392 202.849 302.264C202.849 301.906 202.671 301.728 202.313 301.728C201.933 301.243 201.398 301.065 200.706 301.192C200.617 298.506 200.706 295.827 200.974 293.153C202.491 290.833 204.01 288.511 205.529 286.186C206.448 284.266 207.698 282.569 209.28 281.095C214.121 277.233 219.302 273.928 224.822 271.18C225.641 271.219 226.176 270.862 226.43 270.108C226.907 269.781 227.443 269.603 228.038 269.572C228.856 269.611 229.392 269.254 229.646 268.5C230.003 268.5 230.36 268.5 230.717 268.5C232.879 268.219 234.844 267.505 236.613 266.357C243.769 265.544 250.914 265.723 258.049 266.893Z" fill="#040303"/>
<path fill-rule="evenodd" clip-rule="evenodd" d="M325.04 264.749C321.848 264.264 319.169 265.158 317.001 267.428C318.017 265.021 319.893 263.95 322.629 264.213C323.543 264.217 324.347 264.396 325.04 264.749Z" fill="#888888"/>
<path fill-rule="evenodd" clip-rule="evenodd" d="M258.05 266.893C259.653 266.714 260.903 267.249 261.801 268.5C260.377 268.267 259.126 267.731 258.05 266.893Z" fill="#B1AFB0"/>
<path fill-rule="evenodd" clip-rule="evenodd" d="M236.613 266.357C234.844 267.505 232.879 268.219 230.718 268.5C232.411 267.16 234.377 266.446 236.613 266.357Z" fill="#383737"/>
<path fill-rule="evenodd" clip-rule="evenodd" d="M217.319 266.892C217.009 268.098 216.294 268.991 215.176 269.572C215.487 268.367 216.201 267.474 217.319 266.892Z" fill="#AFADAE"/>
<path fill-rule="evenodd" clip-rule="evenodd" d="M229.646 268.5C229.392 269.254 228.856 269.611 228.038 269.572C228.292 268.819 228.828 268.461 229.646 268.5Z" fill="#777576"/>
<path fill-rule="evenodd" clip-rule="evenodd" d="M328.792 266.892C329.577 267.346 330.024 268.061 330.132 269.036C330.39 273.786 330.122 278.43 329.328 282.97C329.265 279.653 329.443 276.348 329.864 273.056C329.677 270.962 329.32 268.908 328.792 266.892Z" fill="#A4A4A4"/>
<path fill-rule="evenodd" clip-rule="evenodd" d="M226.43 270.108C226.177 270.862 225.641 271.219 224.823 271.18C225.076 270.426 225.612 270.069 226.43 270.108Z" fill="#6C6A6B"/>
<path fill-rule="evenodd" clip-rule="evenodd" d="M366.306 275.467C366.53 275.854 366.887 276.122 367.378 276.271C369.335 276.539 371.3 276.627 373.273 276.539C373.846 277.04 374.56 277.219 375.417 277.075C377.614 281.695 379.4 286.518 380.776 291.545C380.865 295.301 380.776 299.052 380.508 302.799C379.158 298.404 376.568 294.921 372.737 292.349C368.379 291.592 364.092 291.324 359.875 291.545C360.139 290.309 360.318 289.059 360.411 287.793C360.769 286.007 361.126 284.22 361.483 282.434C361.832 281.926 362.011 281.301 362.019 280.558C362.122 279.482 361.765 278.678 360.947 278.147C360.896 276.922 360.539 275.85 359.875 274.931C359.875 274.217 359.875 273.502 359.875 272.788C362.152 273.391 364.296 274.284 366.306 275.467Z" fill="#FAF9FA"/>
<path fill-rule="evenodd" clip-rule="evenodd" d="M259.658 276.003C256.566 275.222 253.529 275.401 250.547 276.539C253.03 274.231 255.888 273.785 259.122 275.199C259.42 275.405 259.598 275.673 259.658 276.003Z" fill="#8F8F8F"/>
<path fill-rule="evenodd" clip-rule="evenodd" d="M259.658 276.003C260.015 276.718 260.551 277.253 261.265 277.611C261.402 278.933 261.938 280.005 262.873 280.826C263.277 283.486 263.456 286.166 263.409 288.865C263.409 289.044 263.409 289.223 263.409 289.401C262.642 290.087 262.285 290.981 262.337 292.081C261.497 292.714 261.05 293.607 260.997 294.76C259.93 295.204 259.126 295.919 258.586 296.904C256.315 298.292 253.813 298.828 251.083 298.512C248.847 295.996 246.703 293.495 244.652 291.009C244.652 290.652 244.652 290.295 244.652 289.937C244.567 288.114 244.746 286.327 245.188 284.578C246.514 283.942 247.05 282.87 246.795 281.362C247.058 278.959 248.308 277.352 250.547 276.539C253.529 275.401 256.566 275.222 259.658 276.003Z" fill="#FBFBFB"/>
<path fill-rule="evenodd" clip-rule="evenodd" d="M315.394 268.5C314.343 269.82 313.182 271.071 311.91 272.252C311.334 274.54 311.066 276.862 311.107 279.219C310.585 277.907 310.407 276.477 310.571 274.931C310.956 271.867 312.564 269.723 315.394 268.5Z" fill="#9C9C9C"/>
<path fill-rule="evenodd" clip-rule="evenodd" d="M305.747 274.395C305.795 275.817 305.438 277.067 304.675 278.147C304.627 276.726 304.984 275.475 305.747 274.395Z" fill="#444444"/>
<path fill-rule="evenodd" clip-rule="evenodd" d="M366.306 275.467C368.723 275.673 371.046 276.03 373.273 276.539C371.3 276.627 369.335 276.538 367.378 276.271C366.887 276.122 366.53 275.854 366.306 275.467Z" fill="#2E2E2E"/>
<path fill-rule="evenodd" clip-rule="evenodd" d="M359.875 274.931C360.539 275.85 360.896 276.922 360.947 278.147C360.947 278.325 360.947 278.504 360.947 278.683C360.184 277.603 359.827 276.353 359.875 274.931Z" fill="#414141"/>
<path fill-rule="evenodd" clip-rule="evenodd" d="M310.57 274.931C310.406 276.477 310.585 277.907 311.106 279.219C311.463 280.112 311.82 281.005 312.178 281.898C311.45 281.627 310.914 281.091 310.57 280.291C309.87 278.425 309.87 276.639 310.57 274.931Z" fill="#2F2F2F"/>
<path fill-rule="evenodd" clip-rule="evenodd" d="M261.265 277.611C262.592 278.247 263.128 279.319 262.873 280.826C261.938 280.005 261.402 278.933 261.265 277.611Z" fill="#9D9D9D"/>
<path fill-rule="evenodd" clip-rule="evenodd" d="M360.947 278.147C361.765 278.678 362.122 279.482 362.019 280.559C362.011 281.301 361.832 281.926 361.483 282.434C361.591 281.121 361.413 279.871 360.947 278.683C360.947 278.504 360.947 278.325 360.947 278.147Z" fill="#AEAEAE"/>
<path fill-rule="evenodd" clip-rule="evenodd" d="M312.714 281.898C313.735 282.026 314.449 282.562 314.858 283.506C313.837 283.379 313.122 282.843 312.714 281.898Z" fill="#929292"/>
<path fill-rule="evenodd" clip-rule="evenodd" d="M246.796 281.362C247.05 282.87 246.514 283.942 245.188 284.578C245.728 283.482 246.264 282.411 246.796 281.362Z" fill="#A8A8A8"/>
<path fill-rule="evenodd" clip-rule="evenodd" d="M271.984 282.434C272.737 282.688 273.095 283.224 273.055 284.042C272.302 283.789 271.944 283.253 271.984 282.434Z" fill="#5C5C5C"/>
<path fill-rule="evenodd" clip-rule="evenodd" d="M273.055 284.042C273.809 284.295 274.166 284.831 274.127 285.65C273.374 285.396 273.016 284.86 273.055 284.042Z" fill="#666666"/>
<path fill-rule="evenodd" clip-rule="evenodd" d="M262.873 280.826C263.26 281.05 263.528 281.407 263.677 281.898C264.113 284.321 264.024 286.643 263.409 288.865C263.456 286.166 263.277 283.486 262.873 280.826Z" fill="#B9B9B9"/>
<path fill-rule="evenodd" clip-rule="evenodd" d="M329.328 282.97C328.613 284.756 327.362 286.007 325.576 286.722C326.648 285.292 327.898 284.042 329.328 282.97Z" fill="#404040"/>
<path fill-rule="evenodd" clip-rule="evenodd" d="M315.929 286.186C319.126 286.618 322.341 286.797 325.576 286.722C324.338 287.078 322.998 287.256 321.557 287.258C319.517 287.363 317.642 287.006 315.929 286.186Z" fill="#686868"/>
<path fill-rule="evenodd" clip-rule="evenodd" d="M245.188 284.578C244.746 286.327 244.567 288.114 244.652 289.937C244.042 288.434 243.952 286.827 244.384 285.114C244.589 284.816 244.857 284.637 245.188 284.578Z" fill="#848484"/>
<path fill-rule="evenodd" clip-rule="evenodd" d="M275.199 287.793C276.354 288.928 276.89 290.357 276.807 292.081C276.072 290.775 275.537 289.346 275.199 287.793Z" fill="#8B8B8B"/>
<path fill-rule="evenodd" clip-rule="evenodd" d="M360.411 287.793C360.318 289.059 360.14 290.309 359.875 291.545C359.697 291.545 359.518 291.545 359.34 291.545C359.291 290.124 359.648 288.873 360.411 287.793Z" fill="#979797"/>
<path fill-rule="evenodd" clip-rule="evenodd" d="M263.409 289.401C263.613 290.579 263.255 291.473 262.337 292.081C262.285 290.981 262.642 290.087 263.409 289.401Z" fill="#5E5E5E"/>
<path fill-rule="evenodd" clip-rule="evenodd" d="M217.856 291.009C218.471 291.165 218.829 291.611 218.927 292.349C218.69 293.327 218.511 294.309 218.392 295.296C218.037 296.172 217.859 297.154 217.856 298.244C217.781 299.932 218.138 301.45 218.927 302.799C218.927 303.157 218.927 303.514 218.927 303.871C218.867 305.237 219.224 306.488 219.999 307.623C216.008 309.35 212.257 311.494 208.745 314.054C207.575 315.237 206.861 316.666 206.601 318.341C206.191 317.745 205.655 317.388 204.993 317.269C204.636 316.197 204.279 315.126 203.922 314.054C203.97 312.632 203.613 311.382 202.85 310.302C202.492 308.516 202.135 306.729 201.778 304.943C201.551 303.721 201.909 302.827 202.85 302.263C204.5 302.392 206.108 302.214 207.673 301.728C211.318 298.343 214.713 294.77 217.856 291.009Z" fill="#F9F7F8"/>
<path fill-rule="evenodd" clip-rule="evenodd" d="M359.34 291.545C359.518 291.545 359.697 291.545 359.876 291.545C364.092 291.324 368.38 291.592 372.738 292.349C376.568 294.921 379.158 298.404 380.509 302.799C380.777 299.052 380.866 295.301 380.777 291.545C381.397 296.274 381.486 301.097 381.045 306.015C378.866 310.013 376.99 314.122 375.417 318.341C373.482 321.395 371.338 324.342 368.986 327.184C364.385 330.46 359.74 333.586 355.052 336.562C352.63 335.909 350.129 335.284 347.549 334.687C344.55 331.837 341.602 328.889 338.707 325.844C337.295 322.626 336.67 319.232 336.831 315.661C344.051 314.433 349.857 310.86 354.248 304.943C356.002 300.482 357.7 296.017 359.34 291.545Z" fill="#FCD8E2"/>
<path fill-rule="evenodd" clip-rule="evenodd" d="M244.652 291.009C246.703 293.495 248.847 295.996 251.083 298.512C247.699 297.119 245.555 294.617 244.652 291.009Z" fill="#C5C5C5"/>
<path fill-rule="evenodd" clip-rule="evenodd" d="M304.139 292.081C305.109 293.498 305.645 295.106 305.747 296.904C304.69 295.519 304.154 293.912 304.139 292.081Z" fill="#A0A0A0"/>
<path fill-rule="evenodd" clip-rule="evenodd" d="M218.391 295.296C218.224 297.195 218.403 298.981 218.927 300.656C218.927 301.37 218.927 302.085 218.927 302.799C218.138 301.45 217.78 299.932 217.855 298.244C217.859 297.154 218.037 296.172 218.391 295.296Z" fill="#B7B5B5"/>
<path fill-rule="evenodd" clip-rule="evenodd" d="M217.856 291.009C218.236 290.525 218.772 290.346 219.463 290.473C219.137 293.858 218.958 297.252 218.928 300.656C218.403 298.981 218.224 297.195 218.392 295.297C218.511 294.309 218.69 293.327 218.928 292.349C218.829 291.611 218.471 291.165 217.856 291.009Z" fill="#403E3F"/>
<path fill-rule="evenodd" clip-rule="evenodd" d="M258.586 296.904C256.93 298.916 254.787 299.72 252.155 299.316C251.664 299.167 251.307 298.899 251.083 298.512C253.813 298.828 256.314 298.292 258.586 296.904Z" fill="#8D8D8D"/>
<path fill-rule="evenodd" clip-rule="evenodd" d="M202.314 301.727C202.671 301.727 202.849 301.906 202.849 302.263C201.908 302.827 201.551 303.721 201.778 304.943C201.431 304.528 201.252 303.992 201.242 303.335C201.317 302.515 201.674 301.979 202.314 301.727Z" fill="#7C7A7B"/>
<path fill-rule="evenodd" clip-rule="evenodd" d="M274.663 304.407C274.702 305.225 274.345 305.761 273.591 306.015C273.552 305.197 273.91 304.661 274.663 304.407Z" fill="#8C8C8C"/>
<path fill-rule="evenodd" clip-rule="evenodd" d="M314.322 311.374C315.14 311.335 315.676 311.693 315.93 312.446C315.111 312.485 314.575 312.128 314.322 311.374Z" fill="#757575"/>
<path fill-rule="evenodd" clip-rule="evenodd" d="M273.592 306.551C273.035 308.49 272.41 310.455 271.716 312.446C271.492 313.119 271.046 313.477 270.376 313.518C271.253 311.045 272.325 308.722 273.592 306.551Z" fill="#B0B0B0"/>
<path fill-rule="evenodd" clip-rule="evenodd" d="M202.85 310.302C203.613 311.382 203.97 312.632 203.921 314.054C203.158 312.974 202.801 311.724 202.85 310.302Z" fill="#A4A2A3"/>
<path fill-rule="evenodd" clip-rule="evenodd" d="M318.609 313.518C319.894 313.389 320.966 313.746 321.825 314.59C320.6 314.539 319.528 314.181 318.609 313.518Z" fill="#626262"/>
<path fill-rule="evenodd" clip-rule="evenodd" d="M322.896 314.59C324.318 314.542 325.568 314.898 326.648 315.662C325.227 315.71 323.976 315.353 322.896 314.59Z" fill="#7C7C7C"/>
<path fill-rule="evenodd" clip-rule="evenodd" d="M218.927 303.871C221.094 308.028 223.148 312.315 225.091 316.733C228.251 320.313 231.913 323.171 236.077 325.308C237.462 326.365 239.07 326.901 240.9 326.916C241.794 326.916 242.687 326.916 243.58 326.916C244.365 327.27 245.258 327.448 246.26 327.452C247.86 327.515 249.289 327.158 250.547 326.38C252.164 326.468 253.772 326.379 255.37 326.112C256.346 326.005 257.06 325.558 257.514 324.772C258.057 324.143 258.772 323.786 259.658 323.7C259.431 324.11 259.252 324.557 259.122 325.04C260.398 329.36 260.487 333.736 259.39 338.17C256.833 343.311 253.171 347.241 248.403 349.961C241.248 348.753 234.639 346.163 228.574 342.19C221.954 337.717 215.969 332.448 210.621 326.38C208.47 323.507 206.595 320.471 204.993 317.269C205.655 317.388 206.191 317.745 206.601 318.341C206.861 316.666 207.575 315.237 208.745 314.054C212.257 311.494 216.008 309.35 219.999 307.623C219.224 306.488 218.867 305.237 218.927 303.871Z" fill="#FCD8E1"/>
<path fill-rule="evenodd" clip-rule="evenodd" d="M307.355 340.314C306.537 340.275 306.001 340.633 305.747 341.386C304.497 341.386 303.246 341.386 301.996 341.386C300.385 340.434 298.599 339.898 296.636 339.778C296.159 339.451 295.623 339.273 295.029 339.242C294.13 337.991 292.88 337.456 291.277 337.635C287.517 338.158 285.552 336.55 285.382 332.811C285.479 331.432 286.014 330.271 286.99 329.328C289.312 328.97 291.635 328.97 293.957 329.328C296.926 331.173 300.141 332.066 303.603 332.007C305.246 329.876 306.675 327.643 307.891 325.308C308.644 325.055 309.002 324.519 308.963 323.701C308.917 323.167 309.096 322.72 309.499 322.361C314.421 321.216 316.654 323.092 316.198 327.988C314.01 331.829 311.687 335.581 309.231 339.242C308.634 339.674 308.009 340.031 307.355 340.314Z" fill="#0B0B0B"/>
<path fill-rule="evenodd" clip-rule="evenodd" d="M308.962 323.7C309.001 324.519 308.644 325.055 307.89 325.308C307.851 324.49 308.209 323.954 308.962 323.7Z" fill="#606060"/>
<path fill-rule="evenodd" clip-rule="evenodd" d="M236.077 325.308C237.875 325.41 239.483 325.946 240.9 326.916C239.07 326.901 237.462 326.365 236.077 325.308Z" fill="#51494C"/>
<path fill-rule="evenodd" clip-rule="evenodd" d="M257.514 324.772C257.06 325.558 256.346 326.005 255.37 326.112C253.772 326.379 252.164 326.468 250.547 326.38C252.837 325.976 255.159 325.44 257.514 324.772Z" fill="#B9A6AC"/>
<path fill-rule="evenodd" clip-rule="evenodd" d="M250.547 326.38C249.288 327.158 247.859 327.515 246.259 327.452C245.258 327.448 244.364 327.27 243.58 326.916C245.921 326.934 248.243 326.755 250.547 326.38Z" fill="#73676B"/>
<path fill-rule="evenodd" clip-rule="evenodd" d="M375.417 318.341C375.18 319.865 374.644 321.294 373.809 322.629C374.508 323.748 374.24 324.642 373.006 325.308C372.827 324.951 372.648 324.594 372.47 324.236C372.021 325.228 371.574 326.211 371.13 327.184C371.615 328.094 371.794 329.077 371.666 330.132C367.378 330.31 367.378 330.489 371.666 330.667C371.666 332.097 371.666 333.526 371.666 334.955C369.776 334.953 367.9 334.774 366.039 334.419C364.984 334.441 364.001 334.709 363.091 335.223C363.693 335.672 364.051 336.298 364.163 337.099C363.748 339.223 363.57 341.367 363.627 343.53C359.482 343.731 356.445 343.552 354.516 342.994C354.538 341.182 354.359 339.395 353.98 337.634C354.159 337.099 354.516 336.741 355.052 336.563C359.74 333.586 364.385 330.46 368.986 327.184C371.338 324.342 373.481 321.395 375.417 318.341Z" fill="#2F2E2B"/>
<path fill-rule="evenodd" clip-rule="evenodd" d="M177.125 325.844C180.26 331.306 183.833 336.486 187.844 341.386C185.008 339.533 182.596 337.211 180.609 334.419C180.43 333.705 180.251 332.99 180.073 332.275C178.125 330.65 177.142 328.507 177.125 325.844Z" fill="#302D2D"/>
<path fill-rule="evenodd" clip-rule="evenodd" d="M291.277 337.635C292.88 337.456 294.13 337.991 295.029 339.242C293.605 339.009 292.354 338.473 291.277 337.635Z" fill="#494949"/>
<path fill-rule="evenodd" clip-rule="evenodd" d="M296.636 339.778C298.599 339.898 300.385 340.434 301.995 341.386C300.033 341.266 298.247 340.73 296.636 339.778Z" fill="#6B6B6B"/>
<path fill-rule="evenodd" clip-rule="evenodd" d="M307.355 340.314C307.101 341.068 306.565 341.425 305.747 341.386C306.001 340.632 306.536 340.275 307.355 340.314Z" fill="#858585"/>
<path fill-rule="evenodd" clip-rule="evenodd" d="M348.085 340.85C347.027 341.603 345.955 342.407 344.87 343.262C344.177 343.524 343.462 343.614 342.726 343.53C344.246 342.207 346.033 341.315 348.085 340.85Z" fill="#595959"/>
<path fill-rule="evenodd" clip-rule="evenodd" d="M337.367 345.673C335.714 346.473 333.928 347.009 332.007 347.281C332.067 346.95 332.245 346.682 332.543 346.477C334.139 346.104 335.747 345.836 337.367 345.673Z" fill="#7C7A7B"/>
<path fill-rule="evenodd" clip-rule="evenodd" d="M253.226 351.568C257.117 352.34 261.048 352.876 265.017 353.176C265.017 353.355 265.017 353.534 265.017 353.712C260.851 353.912 256.92 353.198 253.226 351.568Z" fill="#C7C6C5"/>
<path fill-rule="evenodd" clip-rule="evenodd" d="M318.609 350.497C300.971 354.147 283.107 355.219 265.017 353.712C265.017 353.534 265.017 353.355 265.017 353.176C274.308 353.266 283.597 353.176 292.885 352.908C300.686 352.65 308.367 351.668 315.93 349.961C316.844 350.083 317.738 350.262 318.609 350.497Z" fill="#D4D3D1"/>
<path fill-rule="evenodd" clip-rule="evenodd" d="M192.131 415.343C191.323 412.189 190.43 408.974 189.452 405.697C189.551 405.116 189.729 404.58 189.987 404.089C192.798 399.369 191.905 395.439 187.308 392.299C186.585 391.931 185.96 391.395 185.432 390.691C185.065 389.041 184.618 387.433 184.092 385.868C184.626 385.914 185.072 385.735 185.432 385.332C190.035 379.298 195.036 373.581 200.438 368.182C202.199 364.546 204.79 361.688 208.209 359.607C215.856 363.2 223.716 366.326 231.789 368.986C239.895 370.129 247.934 371.557 255.906 373.273C259.651 373.63 263.403 373.898 267.16 374.077C278.017 373.183 288.915 372.736 299.852 372.737C304.749 371.35 309.751 370.546 314.858 370.326C329.868 370.43 343.981 366.858 357.196 359.607C357.966 359.725 358.681 359.993 359.339 360.411C362.755 363.649 366.328 366.686 370.058 369.522C375.165 374.808 380.435 379.9 385.868 384.796C385.114 387.9 383.595 390.669 381.312 393.103C379.384 393.787 377.419 393.965 375.417 393.638C370.495 388.519 366.297 382.892 362.823 376.757C361.301 375.198 360.14 375.377 359.339 377.293C360.842 382.619 363.074 387.621 366.038 392.299C369.922 397.744 373.674 403.282 377.293 408.912C379.079 411.056 380.866 413.2 382.652 415.343C381.968 416.683 381.343 418.112 380.776 419.631C380.147 419.513 379.611 419.692 379.169 420.167C376.218 424.142 372.467 427.089 367.914 429.009C360.71 430.141 354.815 433.535 350.229 439.192C346.04 441.242 341.753 443.029 337.366 444.551C332.664 444.946 328.019 445.66 323.432 446.695C318.476 449.619 313.295 452.121 307.891 454.198C304.318 454.555 300.745 454.555 297.172 454.198C286.649 451.787 276.11 451.697 265.553 453.93C261.969 453.589 258.396 453.142 254.834 452.59C250.904 450.268 246.974 447.945 243.044 445.623C240.543 444.909 238.042 444.194 235.541 443.479C222.952 445.656 212.501 441.994 204.189 432.493C202.599 429.732 202.42 426.874 203.654 423.918C206.121 418.119 208.265 412.224 210.085 406.233C210.866 399.556 212.027 392.946 213.568 386.403C213.434 380.842 211.112 379.591 206.601 382.652C205.937 387.587 204.955 392.411 203.654 397.122C201.607 399.686 199.374 402.098 196.954 404.357C192.503 406.716 190.895 410.378 192.131 415.343Z" fill="#2D2B2C"/>
<path fill-rule="evenodd" clip-rule="evenodd" d="M174.982 384.796C175.613 387.435 176.327 390.025 177.125 392.567C176.931 393.335 176.575 393.961 176.054 394.442C174.109 394.934 173.037 396.184 172.838 398.194C172.168 398.235 171.722 398.593 171.498 399.266C170.592 402.143 171.396 404.287 173.91 405.697C173.823 406.783 173.913 407.855 174.178 408.912C175.17 410.895 176.242 412.86 177.393 414.807C179.748 416.899 182.159 418.864 184.628 420.703C185.581 422.313 186.117 424.099 186.236 426.062C186.236 426.776 186.236 427.491 186.236 428.206C183.984 428.268 181.841 427.821 179.805 426.866C175.607 424.097 172.124 420.613 169.355 416.415C167.568 412.128 165.782 407.84 163.995 403.553C163.524 400.988 163.703 398.487 164.531 396.05C166.471 393.216 168.615 390.536 170.962 388.011C172.091 386.608 173.431 385.536 174.982 384.796Z" fill="#060504"/>
<path fill-rule="evenodd" clip-rule="evenodd" d="M392.567 389.619C395.188 390.541 397.064 392.328 398.194 394.978C398.965 397.798 399.143 400.657 398.73 403.553C397.94 404.361 396.957 404.718 395.782 404.625C394.009 404.116 392.223 403.58 390.423 403.017C391.075 406.197 389.825 407.805 386.671 407.84C385.242 406.233 383.813 404.625 382.384 403.017C382.206 402.303 382.027 401.588 381.848 400.873C386.883 398.518 390.456 394.767 392.567 389.619Z" fill="#F6F5F6"/>
<path fill-rule="evenodd" clip-rule="evenodd" d="M187.308 392.299C191.905 395.439 192.798 399.369 189.988 404.089C188.558 404.089 187.129 404.089 185.7 404.089C186.223 407.081 185.508 409.672 183.556 411.86C182.318 412.126 181.068 412.215 179.805 412.128C178.361 411.896 177.199 411.181 176.321 409.984C175.359 408.591 174.556 407.162 173.91 405.697C173.049 403.317 172.691 400.815 172.838 398.194C173.037 396.184 174.109 394.934 176.054 394.442C177.857 394.311 179.554 394.668 181.145 395.514C182.187 394.742 183.17 393.849 184.092 392.834C185.115 392.38 186.187 392.201 187.308 392.299Z" fill="#F9F9F9"/>
<path fill-rule="evenodd" clip-rule="evenodd" d="M381.848 400.873C382.026 401.588 382.205 402.303 382.384 403.017C381.302 402.461 381.123 401.746 381.848 400.873Z" fill="#858383"/>
<path fill-rule="evenodd" clip-rule="evenodd" d="M172.838 398.194C172.691 400.816 173.049 403.317 173.91 405.697C171.396 404.287 170.592 402.143 171.498 399.266C171.722 398.593 172.168 398.235 172.838 398.194Z" fill="#31302C"/>
<path fill-rule="evenodd" clip-rule="evenodd" d="M173.91 405.697C174.556 407.162 175.359 408.591 176.321 409.984C177.199 411.181 178.361 411.896 179.805 412.128C180.751 412.643 181.823 412.822 183.02 412.664C183.642 415.326 184.178 418.006 184.628 420.703C182.159 418.864 179.748 416.899 177.393 414.807C176.242 412.86 175.17 410.895 174.178 408.912C173.912 407.855 173.823 406.783 173.91 405.697Z" fill="#2A2926"/>
<path fill-rule="evenodd" clip-rule="evenodd" d="M189.987 404.089C189.729 404.58 189.551 405.116 189.452 405.697C190.43 408.974 191.323 412.189 192.131 415.343C192.773 417.27 193.309 419.235 193.739 421.239C194.376 423.419 194.912 425.563 195.347 427.67C196.11 428.75 196.467 430 196.419 431.421C198.254 437.814 200.04 444.245 201.778 450.714C205.977 450.623 207.585 452.588 206.601 456.61C204.3 457.223 202.335 458.384 200.706 460.093C194.328 462.729 192.184 460.853 194.275 454.466C192.988 448.422 191.291 442.527 189.184 436.78C188.525 433.36 187.81 429.966 187.04 426.598C186.835 426.3 186.567 426.121 186.236 426.062C186.117 424.099 185.581 422.313 184.628 420.703C184.178 418.006 183.642 415.326 183.02 412.664C181.823 412.822 180.751 412.643 179.805 412.128C181.068 412.215 182.318 412.126 183.556 411.86C185.508 409.672 186.223 407.082 185.7 404.089C187.129 404.089 188.558 404.089 189.987 404.089Z" fill="#8C90A2"/>
</svg>
