<svg width="500" height="500" viewBox="0 0 500 500" fill="none" xmlns="http://www.w3.org/2000/svg">
<path d="M227.499 114.5C241.098 112.778 254.765 112.111 268.499 112.5C307.688 114.952 343.354 127.452 375.499 150L389.999 164.5C393.795 171.425 396.461 178.758 397.999 186.5C398.742 200.521 398.575 214.521 397.499 228.5C395.789 237.615 394.789 246.949 394.499 256.5C392.502 267.494 390.502 278.494 388.499 289.5C414.844 295.68 436.011 309.68 451.999 331.5C462.52 350.775 461.52 369.442 448.999 387.5C435.838 403.341 419.671 415.174 400.499 423C359.16 439.824 316.16 448.657 271.499 449.5C251.819 449.68 232.153 449.347 212.499 448.5C169.679 445.463 129.013 434.63 90.499 416C75.639 407.641 62.8056 396.808 51.999 383.5C39.4749 361.798 40.8083 341.131 55.999 321.5C62.4074 314.587 69.2407 308.254 76.499 302.5C69.7061 294.941 63.8726 286.608 58.999 277.5C56.3874 270.722 54.8873 263.722 54.499 256.5C54.346 246.432 55.0127 236.432 56.499 226.5C59.4205 214.851 65.754 205.351 75.499 198C88.8165 190.131 101.483 191.131 113.499 201C114.634 201.749 115.634 201.583 116.499 200.5C117.981 193.902 119.147 187.235 119.999 180.5C121.523 175.118 123.857 170.118 126.999 165.5C144.423 145.096 165.923 130.596 191.499 122C203.174 117.914 215.174 115.414 227.499 114.5ZM103.499 234C101.526 233.505 99.5262 233.338 97.499 233.5C92.9421 236.293 90.9421 240.459 91.499 246C92.0839 261.835 98.7506 274.502 111.499 284C116.247 282.375 121.247 281.209 126.499 280.5C123.108 267.823 119.608 255.156 115.999 242.5C111.885 239.531 107.719 236.698 103.499 234Z" fill="#DAD7CC"/>
<path fill-rule="evenodd" clip-rule="evenodd" d="M211.499 56.5C215.954 57.2898 218.288 59.9564 218.499 64.5C217.942 69.7284 216.609 74.7284 214.499 79.5C216.552 83.5987 218.219 87.9321 219.499 92.5C218.484 95.1741 217.484 97.8408 216.499 100.5C215.166 100.5 213.832 100.5 212.499 100.5C212.662 98.1432 212.496 95.8098 211.999 93.5C203.762 84.3935 203.428 75.0602 210.999 65.5C211.497 62.5184 211.664 59.5184 211.499 56.5Z" fill="#C4A0A1"/>
<path fill-rule="evenodd" clip-rule="evenodd" d="M251.499 27.5C256.027 28.8557 259.194 31.8557 260.999 36.5C262.475 44.276 260.142 50.6093 253.999 55.5C252.654 61.3162 254.321 65.9829 258.999 69.5C261.239 77.3226 259.239 83.9892 252.999 89.5C251.415 90.8613 249.581 91.528 247.499 91.5C249.335 87.3273 250.668 82.994 251.499 78.5C251.332 76.5 251.166 74.5 250.999 72.5C246.704 68.4529 244.871 63.4529 245.499 57.5C245.666 55.1667 245.832 52.8333 245.999 50.5C253.569 44.2082 255.402 36.5415 251.499 27.5Z" fill="#C5A3A3"/>
<path fill-rule="evenodd" clip-rule="evenodd" d="M295.5 80.5C296.015 83.6744 297.015 86.6744 298.5 89.5C298.297 93.1464 296.964 96.1464 294.5 98.5C292.958 99.3007 291.292 99.634 289.5 99.5C293.88 93.7383 293.213 88.405 287.5 83.5C285.356 76.7946 287.356 71.7946 293.5 68.5C293.833 67.3333 294.167 66.1667 294.5 65C292.952 62.2802 291.619 59.4469 290.5 56.5C304.069 60.9603 305.569 67.9603 295 77.5C294.26 78.7494 294.427 79.7494 295.5 80.5Z" fill="#C6A2A4"/>
<path fill-rule="evenodd" clip-rule="evenodd" d="M295.5 80.5C298.702 82.5764 300.035 85.5764 299.5 89.5C300.135 93.905 298.469 96.905 294.5 98.5C296.964 96.1464 298.297 93.1464 298.5 89.5C297.015 86.6744 296.015 83.6744 295.5 80.5Z" fill="#AC7674"/>
<path fill-rule="evenodd" clip-rule="evenodd" d="M268.5 112.5C254.766 112.111 241.099 112.778 227.5 114.5C230.534 112.982 233.867 112.149 237.5 112C248.008 111.175 258.342 111.341 268.5 112.5Z" fill="#A27871"/>
<path fill-rule="evenodd" clip-rule="evenodd" d="M235.5 121.5C270.677 120.072 304.677 125.572 337.5 138C348.029 143.761 358.363 149.761 368.5 156C373.7 160.865 378.533 166.032 383 171.5C385.285 176.972 385.952 182.638 385 188.5C378.553 205.943 367.387 219.443 351.5 229C323.811 245.258 293.811 253.424 261.5 253.5C247.199 252.148 232.865 251.315 218.5 251C212.529 249.669 206.529 248.335 200.5 247C189.726 242.655 179.059 238.321 168.5 234C156.722 225.89 145.222 217.39 134 208.5C128.68 201.048 127.013 192.715 129 183.5C133.917 173.244 140.417 164.077 148.5 156C159.909 147.632 171.909 140.299 184.5 134C201.237 128.399 218.237 124.232 235.5 121.5Z" fill="#FEFDFD"/>
<path fill-rule="evenodd" clip-rule="evenodd" d="M359.5 196.5C360.116 191.95 358.949 187.95 356 184.5C350.688 178.177 344.521 173.01 337.5 169C324.35 163.949 311.017 159.283 297.5 155C249.004 146.835 204.337 155.835 163.5 182C158.796 186.905 156.463 192.738 156.5 199.5C154.058 196.535 153.058 193.035 153.5 189C152.954 181.829 155.287 175.829 160.5 171C165.795 167.012 171.128 163.012 176.5 159C196.877 149.835 218.211 143.501 240.5 140C259.567 138.976 278.567 139.643 297.5 142C312.118 146.063 326.451 150.563 340.5 155.5C345.283 158.441 349.949 161.608 354.5 165C362.124 171.872 364.957 180.372 363 190.5C362.284 192.879 361.117 194.879 359.5 196.5Z" fill="#ECEADE"/>
<path fill-rule="evenodd" clip-rule="evenodd" d="M86.4999 202.5C89.5183 202.335 92.5183 202.502 95.4999 203C101.866 205.851 108.199 208.685 114.5 211.5C114.5 217.167 114.5 222.833 114.5 228.5C109.642 226.326 104.475 224.993 98.9999 224.5C94.5125 224.66 90.6792 226.327 87.4999 229.5C81.5306 237.473 79.8639 246.473 82.4999 256.5C85.7653 268.269 91.7653 278.436 100.5 287C108.483 293.662 117.15 299.328 126.5 304C129.757 305.043 133.09 305.543 136.5 305.5C137.543 309.494 139.376 313.161 142 316.5C143.205 318.534 143.372 320.534 142.5 322.5C111.861 318.775 87.6946 304.442 69.9999 279.5C68.7234 275.677 67.0567 272.01 64.9999 268.5C63.1433 255.815 63.1433 243.149 64.9999 230.5C67.9051 217.777 75.0718 208.444 86.4999 202.5Z" fill="#FDFDFD"/>
<path fill-rule="evenodd" clip-rule="evenodd" d="M359.5 196.5C357.478 201.031 354.478 204.864 350.5 208C338.779 214.527 326.779 220.527 314.5 226C274.527 237.13 234.527 237.13 194.5 226C185.091 221.794 176.091 216.794 167.5 211C162.955 207.956 159.289 204.123 156.5 199.5C156.463 192.738 158.796 186.905 163.5 182C204.337 155.835 249.004 146.835 297.5 155C311.017 159.283 324.35 163.949 337.5 169C344.521 173.01 350.688 178.177 356 184.5C358.949 187.95 360.116 191.95 359.5 196.5Z" fill="#C2916F"/>
<path fill-rule="evenodd" clip-rule="evenodd" d="M215.5 204.5C228.833 204.5 242.167 204.5 255.5 204.5C260.166 205.987 264.832 207.82 269.5 210C257.339 208.753 245.006 208.253 232.5 208.5C239.321 207.671 246.321 207.171 253.5 207C253.167 206.667 252.833 206.333 252.5 206C239.993 205.831 227.66 205.331 215.5 204.5Z" fill="#DAB9A0"/>
<path fill-rule="evenodd" clip-rule="evenodd" d="M289.5 219.5C287.938 219.733 286.605 220.4 285.5 221.5C286.181 215.483 289.514 212.817 295.5 213.5C295.281 212.325 295.614 211.325 296.5 210.5C299.302 209.288 301.802 207.621 304 205.5C304.49 204.207 304.657 202.873 304.5 201.5C301.447 201.572 298.781 202.572 296.5 204.5C300.723 200.044 305.389 196.044 310.5 192.5C312.518 189.112 313.518 185.446 313.5 181.5C315.807 181.014 317.973 181.014 320 181.5C321.098 186.965 320.098 191.965 317 196.5C315.041 197.748 313.541 199.415 312.5 201.5C308.032 204.137 303.698 206.97 299.5 210C297.671 213.828 294.671 216.161 290.5 217C289.748 217.671 289.414 218.504 289.5 219.5Z" fill="#E9D2C3"/>
<path fill-rule="evenodd" clip-rule="evenodd" d="M283.5 174.5C284.496 174.414 285.329 174.748 286 175.5C286.667 178.167 286.667 180.833 286 183.5C283.938 185.901 282.271 188.567 281 191.5C280.329 192.252 279.496 192.586 278.5 192.5C277.5 192.5 276.5 192.5 275.5 192.5C274.274 195.003 273.274 197.669 272.5 200.5C272.258 203.514 273.258 206.014 275.5 208C277.367 208.711 278.867 208.211 280 206.5C280.333 204.5 280.667 202.5 281 200.5C283.767 198.401 285.767 195.734 287 192.5C288.236 193.399 289.07 194.566 289.5 196C288.593 199.741 286.76 202.908 284 205.5C283.116 207.641 283.616 209.307 285.5 210.5C288.479 208.633 291.479 206.967 294.5 205.5C294.842 204.662 295.508 204.328 296.5 204.5C298.781 202.572 301.447 201.572 304.5 201.5C304.657 202.873 304.49 204.207 304 205.5C301.802 207.621 299.302 209.288 296.5 210.5C295.614 211.325 295.281 212.325 295.5 213.5C289.514 212.817 286.181 215.483 285.5 221.5C284.167 221.5 282.833 221.5 281.5 221.5C279.141 220.663 277.141 219.163 275.5 217C271.45 216.206 267.45 215.206 263.5 214C246.84 214.291 230.173 214.291 213.5 214C209.209 214.208 205.542 212.875 202.5 210C204.81 209.503 207.143 209.337 209.5 209.5C217.352 209.825 225.018 209.492 232.5 208.5C245.006 208.253 257.339 208.753 269.5 210C264.832 207.82 260.166 205.987 255.5 204.5C255.119 203.069 254.119 202.236 252.5 202C266.799 199.07 266.799 197.07 252.5 196C250.651 194.907 248.984 193.574 247.5 192C249.235 191.349 250.902 191.515 252.5 192.5C253.748 191.96 254.915 191.293 256 190.5C258.38 193.275 261.213 193.942 264.5 192.5C264.137 191.817 263.804 191.15 263.5 190.5C263.5 189.5 263.5 188.5 263.5 187.5C266.064 186.134 268.564 184.467 271 182.5C270.709 178.226 270.543 173.893 270.5 169.5C275.281 170.201 279.615 171.868 283.5 174.5Z" fill="#F1E2D8"/>
<path fill-rule="evenodd" clip-rule="evenodd" d="M209.5 171.5C208.286 172.626 207.286 173.959 206.5 175.5C206.833 176.167 207.167 176.833 207.5 177.5C211.288 179.388 214.954 181.555 218.5 184C216.419 184.869 214.253 185.369 212 185.5C208.719 184.035 205.219 183.368 201.5 183.5C201.286 185.144 201.62 186.644 202.5 188C205.789 188.882 209.123 189.548 212.5 190C213.167 190.667 213.833 191.333 214.5 192C223.167 192.333 231.833 192.667 240.5 193C242.949 193.725 245.283 194.725 247.5 196C239.173 196.5 230.84 196.666 222.5 196.5C219.119 196.54 215.786 196.207 212.5 195.5C210.883 194.028 208.883 193.361 206.5 193.5C203.729 193.082 201.729 194.082 200.5 196.5C203.664 202.582 208.664 205.249 215.5 204.5C227.66 205.331 239.993 205.831 252.5 206C252.833 206.333 253.167 206.667 253.5 207C246.321 207.171 239.321 207.671 232.5 208.5C225.018 209.492 217.352 209.825 209.5 209.5C205.847 207.597 201.847 206.597 197.5 206.5C197.393 208.903 198.393 210.736 200.5 212C203.376 214.437 206.71 215.77 210.5 216C225.841 216.671 241.175 216.504 256.5 215.5C259.5 215.667 262.5 215.833 265.5 216C267.491 216.374 269.158 217.207 270.5 218.5C263.883 216.186 257.216 216.019 250.5 218C251.949 219.117 253.616 219.784 255.5 220C241.188 219.797 226.855 219.464 212.5 219C210.212 218.178 207.878 217.511 205.5 217C202.208 213.689 198.208 212.022 193.5 212C194.604 207.068 197.604 204.401 202.5 204C200.519 203.395 200.185 202.395 201.5 201C199.926 199.174 199.093 197.007 199 194.5C198.344 198.002 197.011 198.002 195 194.5C194.517 193.552 194.351 192.552 194.5 191.5C196.144 191.714 197.644 191.38 199 190.5C198.077 183.926 200.91 180.592 207.5 180.5C203.856 178.351 203.523 175.684 206.5 172.5C207.417 171.873 208.417 171.539 209.5 171.5Z" fill="#D1A586"/>
<path fill-rule="evenodd" clip-rule="evenodd" d="M289.5 171.5C292.187 171.336 294.854 171.503 297.5 172C299.609 173.646 301.943 174.812 304.5 175.5C305.233 177.963 306.233 180.297 307.5 182.5C306.936 184.819 306.436 187.153 306 189.5C302.887 192.452 299.387 194.785 295.5 196.5C292.167 200.5 288.5 204.167 284.5 207.5C285 207.833 285.5 208.167 286 208.5C288.476 206.513 291.31 205.513 294.5 205.5C291.479 206.967 288.479 208.633 285.5 210.5C283.616 209.307 283.116 207.641 284 205.5C286.76 202.908 288.593 199.741 289.5 196C289.07 194.566 288.236 193.399 287 192.5C285.767 195.734 283.767 198.401 281 200.5C280.667 202.5 280.333 204.5 280 206.5C278.867 208.211 277.367 208.711 275.5 208C273.258 206.014 272.258 203.514 272.5 200.5C273.274 197.669 274.274 195.003 275.5 192.5C276.5 192.5 277.5 192.5 278.5 192.5C277.969 194.544 276.802 196.211 275 197.5C274.503 200.146 274.336 202.813 274.5 205.5C275.5 205.5 276.5 205.5 277.5 205.5C278.991 197.49 283.158 191.157 290 186.5C290.753 182.609 290.253 178.942 288.5 175.5C288.623 174.075 288.957 172.742 289.5 171.5Z" fill="#EBD6C8"/>
<path fill-rule="evenodd" clip-rule="evenodd" d="M304.5 175.5C307.278 176.968 310.278 177.801 313.5 178C314.667 178.5 315.5 179.333 316 180.5C319.573 179.133 323.24 178.133 327 177.5C332.163 182.64 338.33 186.14 345.5 188C346.462 194.153 344.795 199.486 340.5 204C333.604 204.744 327.271 207.077 321.5 211C316.904 211.464 312.571 212.797 308.5 215C305.574 215.218 302.74 215.718 300 216.5C296.301 216.138 292.801 217.138 289.5 219.5C289.414 218.504 289.748 217.671 290.5 217C294.671 216.161 297.671 213.828 299.5 210C303.698 206.97 308.032 204.137 312.5 201.5C313.541 199.415 315.041 197.748 317 196.5C320.098 191.965 321.098 186.965 320 181.5C317.973 181.014 315.807 181.014 313.5 181.5C313.518 185.446 312.518 189.112 310.5 192.5C305.389 196.044 300.723 200.044 296.5 204.5C295.508 204.328 294.842 204.662 294.5 205.5C291.31 205.513 288.476 206.513 286 208.5C285.5 208.167 285 207.833 284.5 207.5C288.5 204.167 292.167 200.5 295.5 196.5C299.387 194.785 302.887 192.452 306 189.5C306.436 187.153 306.936 184.819 307.5 182.5C306.233 180.297 305.233 177.963 304.5 175.5Z" fill="#CB9C7A"/>
<path fill-rule="evenodd" clip-rule="evenodd" d="M262.5 171.5C262.5 173.833 262.5 176.167 262.5 178.5C260.61 178.297 259.11 178.963 258 180.5C255.223 184.471 255.39 187.971 258.5 191C260.265 191.64 261.932 191.473 263.5 190.5C263.804 191.15 264.137 191.817 264.5 192.5C261.213 193.942 258.38 193.275 256 190.5C254.915 191.293 253.748 191.96 252.5 192.5C250.902 191.515 249.235 191.349 247.5 192C248.984 193.574 250.651 194.907 252.5 196C266.799 197.07 266.799 199.07 252.5 202C254.119 202.236 255.119 203.069 255.5 204.5C242.167 204.5 228.833 204.5 215.5 204.5C208.664 205.249 203.664 202.582 200.5 196.5C201.729 194.082 203.729 193.082 206.5 193.5C208.883 193.361 210.883 194.028 212.5 195.5C208.242 195.382 207.075 197.049 209 200.5C209.692 201.025 210.192 201.692 210.5 202.5C220.852 203.458 231.185 203.125 241.5 201.5C242.381 200.029 243.714 199.196 245.5 199C237.704 198.019 230.038 197.186 222.5 196.5C230.84 196.666 239.173 196.5 247.5 196C245.283 194.725 242.949 193.725 240.5 193C231.833 192.667 223.167 192.333 214.5 192C213.833 191.333 213.167 190.667 212.5 190C209.123 189.548 205.789 188.882 202.5 188C201.62 186.644 201.286 185.144 201.5 183.5C205.219 183.368 208.719 184.035 212 185.5C214.253 185.369 216.419 184.869 218.5 184C214.954 181.555 211.288 179.388 207.5 177.5C207.167 176.833 206.833 176.167 206.5 175.5C207.286 173.959 208.286 172.626 209.5 171.5C209.833 171.5 210.167 171.5 210.5 171.5C216.145 172.134 221.811 172.468 227.5 172.5C225.736 161.763 229.569 159.097 239 164.5C239.833 167.5 240.667 170.5 241.5 173.5C246.393 167.398 252.726 165.231 260.5 167C262.037 168.11 262.703 169.61 262.5 171.5Z" fill="#EDDBCF"/>
<path fill-rule="evenodd" clip-rule="evenodd" d="M212.5 195.5C215.786 196.207 219.119 196.54 222.5 196.5C230.038 197.186 237.704 198.019 245.5 199C243.714 199.196 242.381 200.029 241.5 201.5C231.185 203.125 220.852 203.458 210.5 202.5C210.192 201.692 209.692 201.025 209 200.5C207.075 197.049 208.242 195.382 212.5 195.5Z" fill="#F1E3DA"/>
<path fill-rule="evenodd" clip-rule="evenodd" d="M283.5 174.5C279.615 171.868 275.281 170.201 270.5 169.5C270.543 173.893 270.709 178.226 271 182.5C268.564 184.467 266.064 186.134 263.5 187.5C263.5 188.5 263.5 189.5 263.5 190.5C261.932 191.473 260.265 191.64 258.5 191C255.39 187.971 255.223 184.471 258 180.5C259.11 178.963 260.61 178.297 262.5 178.5C262.5 176.167 262.5 173.833 262.5 171.5C263.649 171.791 264.316 172.624 264.5 174C264.469 177.473 262.969 179.973 260 181.5C259.178 184.117 258.678 186.784 258.5 189.5C259.833 189.5 261.167 189.5 262.5 189.5C264.373 186.434 266.539 183.434 269 180.5C269.499 176.514 269.666 172.514 269.5 168.5C275.436 167.926 280.103 169.926 283.5 174.5Z" fill="#E6CCB9"/>
<path fill-rule="evenodd" clip-rule="evenodd" d="M289.5 171.5C288.957 172.742 288.623 174.075 288.5 175.5C290.253 178.942 290.753 182.609 290 186.5C283.158 191.157 278.991 197.49 277.5 205.5C276.5 205.5 275.5 205.5 274.5 205.5C274.336 202.813 274.503 200.146 275 197.5C276.802 196.211 277.969 194.544 278.5 192.5C279.496 192.586 280.329 192.252 281 191.5C282.271 188.567 283.938 185.901 286 183.5C286.667 180.833 286.667 178.167 286 175.5C285.329 174.748 284.496 174.414 283.5 174.5C280.103 169.926 275.436 167.926 269.5 168.5C269.666 172.514 269.499 176.514 269 180.5C266.539 183.434 264.373 186.434 262.5 189.5C261.167 189.5 259.833 189.5 258.5 189.5C258.678 186.784 259.178 184.117 260 181.5C262.969 179.973 264.469 177.473 264.5 174C264.316 172.624 263.649 171.791 262.5 171.5C262.703 169.61 262.037 168.11 260.5 167C252.726 165.231 246.393 167.398 241.5 173.5C240.667 170.5 239.833 167.5 239 164.5C229.569 159.097 225.736 161.763 227.5 172.5C221.811 172.468 216.145 172.134 210.5 171.5C215.013 170.403 219.679 170.403 224.5 171.5C223.54 165.301 226.04 161.301 232 159.5C236.7 160.034 240.2 162.367 242.5 166.5C243.962 164.9 245.462 163.233 247 161.5C249.425 163.922 252.425 164.922 256 164.5C264.639 163.575 273.139 163.408 281.5 164C285.018 166.186 286.852 169.353 287 173.5C287.417 172.244 288.25 171.577 289.5 171.5Z" fill="#D0A484"/>
<path fill-rule="evenodd" clip-rule="evenodd" d="M386.5 206.5C387.816 209.087 388.483 212.087 388.5 215.5C387.845 239.545 384.678 263.212 379 286.5C371.298 308.205 359.465 327.372 343.5 344C308.009 372.924 267.676 382.59 222.5 373C210.486 368.494 198.819 363.161 187.5 357C181.525 353.019 175.858 348.686 170.5 344C165.289 338.458 160.456 332.625 156 326.5C137.787 294.373 127.287 259.706 124.5 222.5C124.833 219.167 125.167 215.833 125.5 212.5C154.18 241.338 188.847 257.505 229.5 261C269.045 265.898 307.045 260.398 343.5 244.5C350.63 239.763 357.964 235.263 365.5 231C372.015 224.652 378.348 218.152 384.5 211.5C385.456 209.925 386.123 208.258 386.5 206.5Z" fill="#FEFEFE"/>
<path fill-rule="evenodd" clip-rule="evenodd" d="M209.5 209.5C207.143 209.337 204.81 209.503 202.5 210C205.542 212.875 209.209 214.208 213.5 214C230.173 214.291 246.84 214.291 263.5 214C267.45 215.206 271.45 216.206 275.5 217C277.141 219.163 279.141 220.663 281.5 221.5C278 220.025 274.333 219.025 270.5 218.5C269.158 217.207 267.491 216.374 265.5 216C262.5 215.833 259.5 215.667 256.5 215.5C241.175 216.504 225.841 216.671 210.5 216C206.71 215.77 203.376 214.437 200.5 212C198.393 210.736 197.393 208.903 197.5 206.5C201.847 206.597 205.847 207.597 209.5 209.5Z" fill="#E4CBB9"/>
<path fill-rule="evenodd" clip-rule="evenodd" d="M56.4993 226.5C55.013 236.432 54.3463 246.432 54.4993 256.5C52.9509 246.376 53.6176 236.376 56.4993 226.5Z" fill="#A9827F"/>
<path fill-rule="evenodd" clip-rule="evenodd" d="M397.5 228.5C397.666 234.842 397.5 241.175 397 247.5C396.796 250.797 395.963 253.797 394.5 256.5C394.79 246.949 395.79 237.615 397.5 228.5Z" fill="#A87C78"/>
<path fill-rule="evenodd" clip-rule="evenodd" d="M301.5 288.5C277.216 282.398 267.049 291.731 271 316.5C273.592 325.986 279.925 330.652 290 330.5C297.517 330.244 303.183 326.911 307 320.5C309.97 313.643 311.47 306.643 311.5 299.5C314.498 301.668 317.831 302.668 321.5 302.5C326.441 313.745 324.941 324.078 317 333.5C305.06 345.551 290.56 352.384 273.5 354C256.164 356.689 239.164 355.356 222.5 350C215.406 346.706 208.906 342.54 203 337.5C198.876 331.702 197.376 325.368 198.5 318.5C201.931 316.905 204.598 314.405 206.5 311C207.167 310.333 207.833 310.333 208.5 311C206.749 323.054 211.415 331.721 222.5 337C240.818 337.015 249.651 327.848 249 309.5C248.07 306.638 246.403 304.305 244 302.5C243.64 300.392 242.973 298.392 242 296.5C232.661 291.606 223.161 291.272 213.5 295.5C212.624 295.631 211.957 295.298 211.5 294.5C241.801 274.336 273.468 272.169 306.5 288C304.866 288.494 303.199 288.66 301.5 288.5Z" fill="#FCFCFC"/>
<path fill-rule="evenodd" clip-rule="evenodd" d="M301.499 288.5C304.713 289.282 308.047 290.115 311.499 291C315.143 293.656 319.143 295.489 323.499 296.5C324.166 297.5 324.832 298.5 325.499 299.5C325.305 301.912 323.972 302.912 321.499 302.5C317.83 302.668 314.497 301.668 311.499 299.5C311.469 306.643 309.969 313.643 306.999 320.5C303.182 326.911 297.516 330.244 289.999 330.5C279.924 330.652 273.591 325.986 270.999 316.5C267.048 291.731 277.215 282.398 301.499 288.5Z" fill="#060606"/>
<path fill-rule="evenodd" clip-rule="evenodd" d="M198.5 318.5C197.178 318.67 196.011 318.337 195 317.5C194.788 311.745 196.955 306.911 201.5 303C205.407 300.241 209.407 297.741 213.5 295.5C223.161 291.272 232.661 291.606 242 296.5C242.973 298.392 243.64 300.392 244 302.5C246.403 304.305 248.07 306.638 249 309.5C249.651 327.848 240.818 337.015 222.5 337C211.415 331.721 206.749 323.054 208.5 311C207.833 310.333 207.167 310.333 206.5 311C204.598 314.405 201.931 316.905 198.5 318.5Z" fill="#050505"/>
<path fill-rule="evenodd" clip-rule="evenodd" d="M281.5 292.5C285.182 291.725 287.682 293.059 289 296.5C291.244 305.905 287.744 309.738 278.5 308C274.583 305.166 273.749 301.666 276 297.5C278.029 295.967 279.862 294.301 281.5 292.5Z" fill="#F4F4F4"/>
<path fill-rule="evenodd" clip-rule="evenodd" d="M383.499 297.5C408.199 303.349 428.366 316.349 443.999 336.5C452.454 353.607 450.787 369.607 438.999 384.5C435.832 387.667 432.666 390.833 429.499 394C401.306 414.186 369.973 427.186 335.499 433C298.828 440.155 261.828 442.488 224.499 440C200.076 438.586 176.076 434.919 152.499 429C147.345 427.028 142.011 425.695 136.499 425C119.564 419.079 103.23 411.746 87.4993 403C71.9752 393.48 60.8085 380.313 53.9993 363.5C52.4537 353.697 53.787 344.364 57.9993 335.5C62.4555 329.375 67.2888 323.542 72.4993 318C76.7429 314.756 81.2429 311.922 85.9993 309.5C88.8217 311.653 91.6551 313.819 94.4993 316C100.625 318.64 106.625 321.474 112.499 324.5C107.869 327.959 103.369 331.626 98.9993 335.5C90.7857 346.943 90.4523 358.61 97.9993 370.5C108.606 382.42 121.44 391.253 136.499 397C212.554 421.932 289.221 423.932 366.499 403C381.425 398.12 394.592 390.287 405.999 379.5C414.981 366.926 414.648 354.593 404.999 342.5C395.993 333.827 385.66 327.16 373.999 322.5C373.332 321.5 373.332 320.5 373.999 319.5C378.62 312.805 381.787 305.472 383.499 297.5Z" fill="#FEFEFE"/>
<path fill-rule="evenodd" clip-rule="evenodd" d="M323.499 296.5C319.143 295.489 315.143 293.656 311.499 291C308.047 290.115 304.713 289.282 301.499 288.5C303.198 288.66 304.865 288.494 306.499 288C273.467 272.169 241.8 274.336 211.499 294.5C211.956 295.298 212.623 295.631 213.499 295.5C209.406 297.741 205.406 300.241 201.499 303C196.954 306.911 194.787 311.745 194.999 317.5C196.01 318.337 197.177 318.67 198.499 318.5C197.375 325.368 198.875 331.702 202.999 337.5C208.905 342.54 215.405 346.706 222.499 350C239.163 355.356 256.163 356.689 273.499 354C290.559 352.384 305.059 345.551 316.999 333.5C324.94 324.078 326.44 313.745 321.499 302.5C323.972 302.912 325.305 301.912 325.499 299.5C328.33 303.654 329.997 308.321 330.499 313.5C329.486 327.693 323.153 338.86 311.499 347C289.915 359.901 266.582 364.568 241.499 361C224.96 359.478 210.793 352.978 198.999 341.5C190.004 328.561 189.337 315.228 196.999 301.5C210.08 284.871 227.246 275.371 248.499 273C270.303 269.806 290.969 273.139 310.499 283C315.73 286.73 320.064 291.23 323.499 296.5Z" fill="#CACACA"/>
<path fill-rule="evenodd" clip-rule="evenodd" d="M231.5 299.5C237.318 298.731 240.318 301.231 240.5 307C240.312 312.226 237.812 315.726 233 317.5C229.166 316.156 227 313.489 226.5 309.5C227.115 305.603 228.782 302.27 231.5 299.5Z" fill="#F5F5F5"/>
<path fill-rule="evenodd" clip-rule="evenodd" d="M140.5 331.5C141.398 332.158 142.398 332.824 143.5 333.5C140.459 335.883 137.625 338.549 135 341.5C133.794 344.948 132.294 348.281 130.5 351.5C131.23 354.109 131.73 356.776 132 359.5C134.403 361.305 136.07 363.638 137 366.5C146.04 374.191 156.207 380.024 167.5 384C203.188 394.149 239.355 398.649 276 397.5C290.394 394.963 304.894 392.796 319.5 391C330.81 388.06 342.144 385.226 353.5 382.5C364.298 377.536 372.298 369.702 377.5 359C374.468 351.976 369.968 346.143 364 341.5C363.209 340.255 362.709 338.922 362.5 337.5C364.058 333.082 367.058 330.915 371.5 331C379.172 335.167 386.505 339.834 393.5 345C404.032 353.789 405.198 363.622 397 374.5C390.783 380.695 383.617 385.529 375.5 389C347.501 399.613 318.501 405.613 288.5 407C245.182 409.724 202.516 405.724 160.5 395C143.69 389.898 128.023 382.565 113.5 373C109.964 369.799 106.797 366.299 104 362.5C100.183 352.584 102.35 344.417 110.5 338C114.898 334.606 119.565 331.606 124.5 329C129.675 330.322 135.008 331.155 140.5 331.5Z" fill="#FEFEFE"/>
<path fill-rule="evenodd" clip-rule="evenodd" d="M362.5 337.5C362.709 338.922 363.209 340.255 364 341.5C369.968 346.143 374.468 351.976 377.5 359C372.298 369.702 364.298 377.536 353.5 382.5C342.144 385.226 330.81 388.06 319.5 391C304.894 392.796 290.394 394.963 276 397.5C239.355 398.649 203.188 394.149 167.5 384C156.207 380.024 146.04 374.191 137 366.5C136.07 363.638 134.403 361.305 132 359.5C131.73 356.776 131.23 354.109 130.5 351.5C132.294 348.281 133.794 344.948 135 341.5C137.625 338.549 140.459 335.883 143.5 333.5C142.398 332.824 141.398 332.158 140.5 331.5C143.249 331.726 145.916 331.393 148.5 330.5C155.879 343.048 165.546 353.548 177.5 362C185.532 366.348 193.532 370.681 201.5 375C210.321 378.457 219.321 381.457 228.5 384C267.707 388.181 304.041 380.181 337.5 360C346.284 352.951 354.617 345.451 362.5 337.5Z" fill="#F7F6F1"/>
<path fill-rule="evenodd" clip-rule="evenodd" d="M273.5 334.5C275.948 334.01 277.615 334.843 278.5 337C277.172 341.327 274.838 344.994 271.5 348C265.865 348.098 260.698 346.598 256 343.5C255.316 342.216 255.483 341.049 256.5 340C260.896 339.918 265.23 340.251 269.5 341C270.719 338.722 272.052 336.555 273.5 334.5Z" fill="#0C0C0C"/>
<path fill-rule="evenodd" clip-rule="evenodd" d="M212.5 448.5C232.154 449.347 251.82 449.68 271.5 449.5C254.672 450.662 237.672 450.828 220.5 450C217.635 449.817 214.969 449.317 212.5 448.5Z" fill="#B89790"/>
</svg>
