<svg width="500" height="500" viewBox="0 0 500 500" fill="none" xmlns="http://www.w3.org/2000/svg">
<path fill-rule="evenodd" clip-rule="evenodd" d="M302.5 77.4999C316.651 81.5696 327.984 89.5696 336.5 101.5C341.463 110.576 342.797 120.242 340.5 130.5C335.942 129.179 331.275 128.346 326.5 128C325.833 127.333 325.167 126.667 324.5 126C320.514 125.501 316.514 125.334 312.5 125.5C310.627 117.74 305.627 114.073 297.5 114.5C294.174 114.67 291.174 115.67 288.5 117.5C288.084 115.248 286.751 113.748 284.5 113C281.739 112.278 279.073 112.445 276.5 113.5C273.303 110.636 269.636 108.636 265.5 107.5C260.974 107.675 256.974 109.008 253.5 111.5C253.389 110.883 253.056 110.383 252.5 110C249.183 109.502 245.85 109.335 242.5 109.5C241.801 107.005 240.801 104.672 239.5 102.5C246.705 84.4554 260.205 75.4554 280 75.4999C287.523 76.0295 295.023 76.6962 302.5 77.4999Z" fill="#AE6E4E"/>
<path fill-rule="evenodd" clip-rule="evenodd" d="M239.5 102.5C240.801 104.672 241.801 107.005 242.5 109.5C245.85 109.335 249.183 109.502 252.5 110C253.056 110.383 253.389 110.883 253.5 111.5C249.665 117.266 249.665 122.932 253.5 128.5C249.288 128.078 245.288 128.744 241.5 130.5C240.059 129.135 238.726 127.635 237.5 126C233.659 124.31 229.993 122.477 226.5 120.5C226.334 116.154 226.501 111.821 227 107.5C229.378 106.033 231.878 105.033 234.5 104.5C235.167 104.5 235.833 104.5 236.5 104.5C237.492 104.672 238.158 104.338 238.5 103.5C238.5 102.833 238.833 102.5 239.5 102.5Z" fill="#FDB3C6"/>
<path fill-rule="evenodd" clip-rule="evenodd" d="M288.5 117.5C285.102 117.82 281.768 117.487 278.5 116.5C277.807 115.482 277.141 114.482 276.5 113.5C279.073 112.445 281.739 112.278 284.5 113C286.751 113.748 288.084 115.248 288.5 117.5Z" fill="#FCB3C2"/>
<path fill-rule="evenodd" clip-rule="evenodd" d="M276.499 113.5C277.14 114.482 277.806 115.482 278.499 116.5C281.767 117.487 285.101 117.82 288.499 117.5C291.173 115.67 294.173 114.67 297.499 114.5C305.626 114.073 310.626 117.74 312.499 125.5C312.499 129.493 311.499 133.159 309.499 136.5C302.428 137.427 295.928 135.761 289.999 131.5C292.221 137.957 295.054 144.291 298.499 150.5C296.063 151.332 293.896 150.665 291.999 148.5C291.162 150.844 289.828 152.844 287.999 154.5C285.508 146.549 283.008 138.549 280.499 130.5C276.237 137.756 271.237 144.423 265.499 150.5C264.533 148.604 264.2 146.604 264.499 144.5C262.499 144.833 260.499 145.167 258.499 145.5C258.35 144.448 258.516 143.448 258.999 142.5C265.105 139.23 269.605 134.564 272.499 128.5C268.135 128.906 263.802 129.572 259.499 130.5C257.285 130.389 255.285 129.722 253.499 128.5C249.664 122.932 249.664 117.266 253.499 111.5C256.973 109.008 260.973 107.675 265.499 107.5C269.635 108.636 273.302 110.636 276.499 113.5Z" fill="#F68CA4"/>
<path fill-rule="evenodd" clip-rule="evenodd" d="M262.501 113.5C278.361 116.06 279.027 119.893 264.501 125C262.191 125.497 259.858 125.663 257.501 125.5C256.303 120.121 257.97 116.121 262.501 113.5Z" fill="#FEB1C4"/>
<path fill-rule="evenodd" clip-rule="evenodd" d="M210.499 119.5C214.499 119.5 218.499 119.5 222.499 119.5C223.166 119.5 223.832 119.5 224.499 119.5C224.841 120.338 225.507 120.672 226.499 120.5C229.992 122.477 233.658 124.31 237.499 126C238.725 127.635 240.058 129.135 241.499 130.5C245.287 128.744 249.287 128.078 253.499 128.5C255.285 129.722 257.285 130.389 259.499 130.5C263.802 129.572 268.135 128.906 272.499 128.5C269.605 134.564 265.105 139.23 258.999 142.5C258.516 143.448 258.35 144.448 258.499 145.5C260.499 145.167 262.499 144.833 264.499 144.5C264.2 146.604 264.533 148.604 265.499 150.5C271.237 144.423 276.237 137.756 280.499 130.5C283.008 138.549 285.508 146.549 287.999 154.5C289.828 152.844 291.162 150.844 291.999 148.5C293.896 150.665 296.063 151.332 298.499 150.5C295.054 144.291 292.221 137.957 289.999 131.5C295.928 135.761 302.428 137.427 309.499 136.5C319.002 139.579 328.335 143.246 337.499 147.5C343.387 151.046 348.721 155.379 353.499 160.5C355.45 161.716 356.95 163.382 357.999 165.5C362.497 174.495 366.997 183.495 371.499 192.5C371.72 195.067 372.387 197.401 373.499 199.5C373.499 200.167 373.832 200.5 374.499 200.5C374.499 206.833 374.499 213.167 374.499 219.5C374.664 222.85 374.497 226.183 373.999 229.5C372.868 234.463 371.702 239.463 370.499 244.5C369.499 244.5 368.499 244.5 367.499 244.5C357.51 222.646 340.844 208.479 317.499 202C300.166 198.956 282.833 195.956 265.499 193C254.97 187.239 244.636 181.239 234.499 175C228.506 169.534 225.506 162.7 225.499 154.5C214.34 158.831 203.007 162.664 191.499 166C175.244 174.431 161.244 185.597 149.499 199.5C147.283 198.797 145.45 197.464 143.999 195.5C142.237 187.807 142.237 180.141 143.999 172.5C146.118 168.598 147.951 164.598 149.499 160.5C150.499 160.167 151.166 159.5 151.499 158.5C154.091 154.568 157.091 150.901 160.499 147.5C160.832 146.833 161.166 146.167 161.499 145.5C169.098 138.069 177.431 131.569 186.499 126C194.355 122.881 202.355 120.714 210.499 119.5Z" fill="#AE6E4E"/>
<path fill-rule="evenodd" clip-rule="evenodd" d="M292.5 121.5C296.514 121.334 300.514 121.501 304.5 122C307.2 122.949 308.033 124.783 307 127.5C304.839 131.124 301.672 132.291 297.5 131C294.728 129.14 292.395 126.806 290.5 124C291.381 123.292 292.047 122.458 292.5 121.5Z" fill="#FEB3C5"/>
<path fill-rule="evenodd" clip-rule="evenodd" d="M312.5 125.5C316.514 125.334 320.514 125.501 324.5 126C325.167 126.667 325.833 127.333 326.5 128C331.275 128.346 335.942 129.179 340.5 130.5C340.5 133.167 340.5 135.833 340.5 138.5C339.596 139.209 339.263 140.209 339.5 141.5C339.5 141.833 339.5 142.167 339.5 142.5C338.662 142.842 338.328 143.508 338.5 144.5C337.596 145.209 337.263 146.209 337.5 147.5C328.336 143.246 319.003 139.579 309.5 136.5C311.5 133.159 312.5 129.493 312.5 125.5Z" fill="#FDB2C4"/>
<path fill-rule="evenodd" clip-rule="evenodd" d="M367.5 244.5C368.462 251.412 368.795 258.412 368.5 265.5C366.811 277.943 364.478 290.277 361.5 302.5C364.391 303.678 367.391 304.345 370.5 304.5C381.082 306.096 391.749 306.763 402.5 306.5C404.95 305.223 407.283 303.723 409.5 302C411.81 301.503 414.143 301.337 416.5 301.5C418.636 302.653 420.636 303.986 422.5 305.5C422.5 306.167 422.5 306.833 422.5 307.5C421.527 310.135 419.86 312.135 417.5 313.5C415.805 314.011 414.139 314.678 412.5 315.5C415.984 317.599 416.318 320.099 413.5 323C407.758 324.13 402.425 323.296 397.5 320.5C382.297 321.242 367.297 319.909 352.5 316.5C347.919 315.393 343.252 315.227 338.5 316C325.224 320.595 311.558 322.762 297.5 322.5C278.497 322.667 259.497 322.5 240.5 322C237.649 320.711 234.649 320.211 231.5 320.5C212.756 318.138 195.089 312.305 178.5 303C166.329 295.747 153.996 288.747 141.5 282C138.854 281.503 136.187 281.336 133.5 281.5C128.303 279.856 122.97 278.856 117.5 278.5C113.443 276.485 109.109 274.985 104.5 274C101.309 271.574 97.9753 269.407 94.4999 267.5C89.5863 266.546 84.5863 265.38 79.4999 264C74.8205 257.956 76.4872 254.956 84.4999 255C80.965 252.293 79.7983 248.793 80.9999 244.5C82.1095 242.963 83.6095 242.297 85.4999 242.5C91.3445 245.011 96.3445 248.677 100.5 253.5C102.004 255.836 104.004 257.669 106.5 259C115.663 261.866 124.996 264.033 134.5 265.5C133.031 253.812 133.198 242.145 135 230.5C137.985 225.046 140.485 219.379 142.5 213.5C143.773 211.287 144.773 208.954 145.5 206.5C146.674 205.486 147.34 204.153 147.5 202.5C148.401 201.71 149.068 200.71 149.5 199.5C161.245 185.597 175.245 174.431 191.5 166C203.008 162.664 214.341 158.831 225.5 154.5C225.507 162.7 228.507 169.534 234.5 175C244.637 181.239 254.971 187.239 265.5 193C282.834 195.956 300.167 198.956 317.5 202C340.845 208.479 357.511 222.646 367.5 244.5Z" fill="#FDFCFC"/>
<path fill-rule="evenodd" clip-rule="evenodd" d="M200.499 275.5C187.353 277.509 176.853 273.175 168.999 262.5C166.596 257.242 164.763 251.909 163.499 246.5C161.852 240.127 162.518 233.96 165.499 228C165.166 227.5 164.832 227 164.499 226.5C160.243 230.253 155.576 233.42 150.499 236C147.652 236.944 145.152 236.444 142.999 234.5C142.182 231.036 142.516 227.702 143.999 224.5C165.791 202.125 190.958 197.292 219.499 210C225.085 213.671 227.585 218.838 226.999 225.5C232.814 233.989 233.814 242.989 229.999 252.5C225.712 257.575 221.546 262.742 217.499 268C212.216 271.372 206.55 273.872 200.499 275.5Z" fill="#050505"/>
<path fill-rule="evenodd" clip-rule="evenodd" d="M325.5 267.5C319.358 279.074 309.691 284.741 296.5 284.5C269.211 280.988 259.044 265.654 266 238.5C269.652 224.517 278.319 215.517 292 211.5C297.104 212.701 302.27 213.534 307.5 214C316.099 218.46 325.099 222.127 334.5 225C341.714 231.215 349.214 237.049 357 242.5C358.539 246.805 357.206 249.472 353 250.5C349.779 248.647 346.279 247.48 342.5 247C339.688 245.023 337.022 242.856 334.5 240.5C333.673 244.459 333.173 248.459 333 252.5C330.489 257.522 327.989 262.522 325.5 267.5Z" fill="#050505"/>
<path fill-rule="evenodd" clip-rule="evenodd" d="M206.499 216.5C214.776 216.149 219.109 220.149 219.499 228.5C218.54 239.631 212.54 244.798 201.499 244C195.961 239.122 194.461 233.288 196.999 226.5C199.517 222.391 202.683 219.058 206.499 216.5Z" fill="#F5F5F5"/>
<path fill-rule="evenodd" clip-rule="evenodd" d="M287.501 221.5C294.67 220.227 298.67 223.06 299.501 230C298.199 234.78 297.033 239.613 296.001 244.5C290.887 248.134 285.554 248.468 280.001 245.5C278.049 241.868 276.549 238.035 275.501 234C275.385 231.456 276.218 229.289 278.001 227.5C281.308 225.583 284.474 223.583 287.501 221.5Z" fill="#F8F8F8"/>
<path fill-rule="evenodd" clip-rule="evenodd" d="M163.5 246.5C164.764 251.909 166.597 257.242 169 262.5C176.854 273.175 187.354 277.509 200.5 275.5C198.369 276.314 196.036 276.814 193.5 277C194.684 284.051 192.017 289.384 185.5 293C179.833 293.667 174.167 293.667 168.5 293C154.555 287.419 147.388 277.253 147 262.5C150.221 256.106 155.388 252.773 162.5 252.5C163.466 250.604 163.799 248.604 163.5 246.5Z" fill="#FDE4EB"/>
<path fill-rule="evenodd" clip-rule="evenodd" d="M325.5 267.5C325.47 268.497 325.97 269.164 327 269.5C339.796 269.957 346.963 276.457 348.5 289C346.711 294.786 343.377 299.453 338.5 303C327.934 309.142 316.6 311.476 304.5 310C294.779 304.907 291.779 297.074 295.5 286.5C298.925 286.633 299.258 285.967 296.5 284.5C309.691 284.741 319.358 279.074 325.5 267.5Z" fill="#FEE5EB"/>
<path fill-rule="evenodd" clip-rule="evenodd" d="M262.501 285.5C267.87 285.04 270.37 287.373 270.001 292.5C266.479 297.019 262.646 301.185 258.501 305C254.834 305.667 251.168 305.667 247.501 305C242.839 301.757 238.005 298.923 233.001 296.5C232.044 293.621 232.544 291.121 234.501 289C237.595 288.348 240.595 288.682 243.501 290C246.275 292.471 249.441 294.305 253.001 295.5C256.846 292.811 260.012 289.478 262.501 285.5Z" fill="#0D0D0D"/>
<path fill-rule="evenodd" clip-rule="evenodd" d="M133.5 281.5C136.187 281.336 138.854 281.503 141.5 282C153.996 288.747 166.329 295.747 178.5 303C195.089 312.305 212.756 318.138 231.5 320.5C232.952 321.302 234.618 321.802 236.5 322C235.167 323.667 233.833 325.333 232.5 327C233.63 337.772 233.63 348.606 232.5 359.5C235.059 359.198 237.393 359.532 239.5 360.5C237.143 360.337 234.81 360.503 232.5 361C231.845 362.487 230.845 363.653 229.5 364.5C225.833 362 222.167 359.5 218.5 357C214.988 357.05 211.488 357.55 208 358.5C206.833 358.333 205.667 358.167 204.5 358C202.695 355.597 200.362 353.93 197.5 353C193.147 352.755 188.813 352.755 184.5 353C183.356 349.474 181.356 346.474 178.5 344C174.691 343.412 171.024 343.912 167.5 345.5C163.774 343.286 160.441 340.453 157.5 337C153.469 334.989 149.135 333.989 144.5 334C141.73 326.379 136.397 323.212 128.5 324.5C129.114 315.28 124.781 310.78 115.5 311C114.67 308.198 113.837 305.365 113 302.5C112.617 303.056 112.117 303.389 111.5 303.5C112.072 301.745 112.906 300.078 114 298.5C120.397 292.595 126.897 286.929 133.5 281.5Z" fill="#FEB4C7"/>
<path fill-rule="evenodd" clip-rule="evenodd" d="M231.5 320.5C234.649 320.211 237.649 320.711 240.5 322C259.497 322.5 278.497 322.667 297.5 322.5C294.713 323.477 291.713 323.81 288.5 323.5C289.552 330.256 291.052 336.923 293 343.5C296.308 349.285 299.475 355.118 302.5 361C301.906 361.464 301.239 361.631 300.5 361.5C298.167 360.833 295.833 360.167 293.5 359.5C291.052 358.527 288.385 358.194 285.5 358.5C282.717 347.266 280.051 335.932 277.5 324.5C268.107 323.196 262.107 323.196 259.5 324.5C260.761 336.383 260.761 348.216 259.5 360C260.167 361.667 260.833 363.333 261.5 365C261.272 365.399 260.938 365.565 260.5 365.5C259.5 364.833 258.5 364.167 257.5 363.5C257.5 362.5 257.5 361.5 257.5 360.5C256.178 360.67 255.011 360.337 254 359.5C253.294 348.502 252.628 337.502 252 326.5C250.301 325.594 248.467 325.261 246.5 325.5C245.503 336.024 245.503 346.357 246.5 356.5C246.478 359.59 245.812 362.257 244.5 364.5C243.421 362.457 241.754 361.124 239.5 360.5C237.393 359.532 235.059 359.198 232.5 359.5C233.63 348.606 233.63 337.772 232.5 327C233.833 325.333 235.167 323.667 236.5 322C234.618 321.802 232.952 321.302 231.5 320.5Z" fill="#FFB9CB"/>
<path fill-rule="evenodd" clip-rule="evenodd" d="M293.5 359.5C288.558 358.311 285.225 359.977 283.5 364.5C282.707 364.931 281.873 365.265 281 365.5C278.716 362.518 275.716 360.518 272 359.5C268.756 360.876 265.923 362.876 263.5 365.5C262.313 366.653 261.313 366.653 260.5 365.5C260.938 365.565 261.272 365.399 261.5 365C260.833 363.333 260.167 361.667 259.5 360C260.761 348.216 260.761 336.383 259.5 324.5C262.107 323.196 268.107 323.196 277.5 324.5C280.051 335.932 282.717 347.266 285.5 358.5C288.385 358.194 291.052 358.527 293.5 359.5Z" fill="#FEB1C4"/>
<path fill-rule="evenodd" clip-rule="evenodd" d="M352.5 316.5C358.775 321.647 365.775 325.814 373.5 329C376.42 330.946 379.087 333.113 381.5 335.5C382.747 338.867 382.747 342.201 381.5 345.5C381.737 346.791 381.404 347.791 380.5 348.5C380.67 347.178 380.337 346.011 379.5 345C371.826 341.363 367.493 343.696 366.5 352C361.877 351.425 357.211 350.758 352.5 350C349.077 351.307 346.91 353.807 346 357.5C345.275 358.059 344.442 358.392 343.5 358.5C340.9 356.368 337.9 355.035 334.5 354.5C331.18 355.309 328.514 357.143 326.5 360C323.833 360.667 321.167 360.667 318.5 360C317.107 358.637 315.441 357.804 313.5 357.5C310.778 357.954 308.111 358.62 305.5 359.5C304.374 362.203 302.707 362.87 300.5 361.5C301.239 361.631 301.906 361.464 302.5 361C299.475 355.118 296.308 349.285 293 343.5C291.052 336.923 289.552 330.256 288.5 323.5C291.713 323.81 294.713 323.477 297.5 322.5C311.558 322.762 325.224 320.595 338.5 316C343.252 315.227 347.919 315.393 352.5 316.5Z" fill="#FEB4C7"/>
<path fill-rule="evenodd" clip-rule="evenodd" d="M257.5 363.5C254.438 361.879 251.772 362.379 249.5 365C247.613 365.78 245.946 365.613 244.5 364.5C245.812 362.257 246.478 359.59 246.5 356.5C245.503 346.357 245.503 336.024 246.5 325.5C248.467 325.261 250.301 325.594 252 326.5C252.628 337.502 253.294 348.502 254 359.5C255.011 360.337 256.178 360.67 257.5 360.5C257.5 361.5 257.5 362.5 257.5 363.5Z" fill="#FEAEC2"/>
<path fill-rule="evenodd" clip-rule="evenodd" d="M179.499 360.5C178.34 362.25 176.673 363.25 174.499 363.5C172.162 361.334 169.662 359.334 166.999 357.5C166.76 356.212 167.26 355.212 168.499 354.5C170.093 354.08 171.593 353.414 172.999 352.5C174.975 355.311 177.142 357.978 179.499 360.5Z" fill="#FDF7F9"/>
<path fill-rule="evenodd" clip-rule="evenodd" d="M239.5 360.5C241.754 361.124 243.421 362.457 244.5 364.5C245.946 365.613 247.613 365.78 249.5 365C251.772 362.379 254.438 361.879 257.5 363.5C258.5 364.167 259.5 364.833 260.5 365.5C261.313 366.653 262.313 366.653 263.5 365.5C265.923 362.876 268.756 360.876 272 359.5C275.716 360.518 278.716 362.518 281 365.5C281.873 365.265 282.707 364.931 283.5 364.5C285.225 359.977 288.558 358.311 293.5 359.5C295.833 360.167 298.167 360.833 300.5 361.5C302.707 362.87 304.374 362.203 305.5 359.5C308.111 358.62 310.778 357.954 313.5 357.5C315.441 357.804 317.107 358.637 318.5 360C321.167 360.667 323.833 360.667 326.5 360C328.514 357.143 331.18 355.309 334.5 354.5C337.9 355.035 340.9 356.368 343.5 358.5C344.442 358.392 345.275 358.059 346 357.5C346.91 353.807 349.077 351.307 352.5 350C357.211 350.758 361.877 351.425 366.5 352C367.493 343.696 371.826 341.363 379.5 345C380.337 346.011 380.67 347.178 380.5 348.5C378.283 349.369 375.95 349.702 373.5 349.5C374.382 353.909 373.048 357.409 369.5 360C364.649 360.174 359.982 360.674 355.5 361.5C350.048 365.469 344.548 365.469 339 361.5C335.485 364.885 331.652 367.552 327.5 369.5C323.16 369.651 319.16 368.651 315.5 366.5C313.312 366.307 311.645 367.141 310.5 369C307.207 369.826 303.874 370.326 300.5 370.5C298.733 369.744 296.9 369.077 295 368.5C292.941 370.07 290.774 371.403 288.5 372.5C284.008 372.731 279.675 372.064 275.5 370.5C272.72 372.751 269.554 374.417 266 375.5C263.004 374.449 260.17 373.116 257.5 371.5C254.494 373.254 251.327 374.588 248 375.5C244.555 372.92 240.722 370.92 236.5 369.5C234.559 369.804 232.893 370.637 231.5 372C228.5 372.667 225.5 372.667 222.5 372C220.597 369.595 218.264 367.761 215.5 366.5C208.67 369.974 203.003 368.641 198.5 362.5C192.147 361.755 185.814 361.088 179.5 360.5C177.143 357.978 174.976 355.311 173 352.5C171.594 353.414 170.094 354.08 168.5 354.5C165.43 354.632 162.43 354.299 159.5 353.5C157.745 351.239 156.578 348.572 156 345.5C155.329 344.748 154.496 344.414 153.5 344.5C148.329 343.06 142.996 341.727 137.5 340.5C135.338 338.358 134.338 335.691 134.5 332.5C123.423 333.415 117.756 328.415 117.5 317.5C112.952 315.624 110.285 312.29 109.5 307.5C109.585 305.667 110.252 304.334 111.5 303.5C112.117 303.389 112.617 303.056 113 302.5C113.837 305.365 114.67 308.198 115.5 311C124.781 310.78 129.114 315.28 128.5 324.5C136.397 323.212 141.73 326.379 144.5 334C149.135 333.989 153.469 334.989 157.5 337C160.441 340.453 163.774 343.286 167.5 345.5C171.024 343.912 174.691 343.412 178.5 344C181.356 346.474 183.356 349.474 184.5 353C188.813 352.755 193.147 352.755 197.5 353C200.362 353.93 202.695 355.597 204.5 358C205.667 358.167 206.833 358.333 208 358.5C211.488 357.55 214.988 357.05 218.5 357C222.167 359.5 225.833 362 229.5 364.5C230.845 363.653 231.845 362.487 232.5 361C234.81 360.503 237.143 360.337 239.5 360.5Z" fill="#F78DA6"/>
<path fill-rule="evenodd" clip-rule="evenodd" d="M160.5 355.5C160.351 356.552 160.517 357.552 161 358.5C163.428 359.63 165.595 361.13 167.5 363C163.165 363.413 159.165 362.58 155.5 360.5C156.5 358.167 158.167 356.5 160.5 355.5Z" fill="#FCF6F5"/>
<path fill-rule="evenodd" clip-rule="evenodd" d="M159.5 353.5C162.43 354.299 165.43 354.632 168.5 354.5C167.261 355.212 166.761 356.212 167 357.5C169.663 359.334 172.163 361.334 174.5 363.5C172.804 365.525 171.137 367.525 169.5 369.5C166.056 368.028 162.556 366.695 159 365.5C159.827 367.877 160.994 370.211 162.5 372.5C162.011 373.995 161.345 375.329 160.5 376.5C160.631 375.624 160.298 374.957 159.5 374.5C157.371 379.995 153.871 381.329 149 378.5C147.435 379.952 146.102 381.619 145 383.5C143.729 380.518 142.562 377.518 141.5 374.5C142.833 374.5 144.167 374.5 145.5 374.5C145.585 372.071 146.585 370.071 148.5 368.5C149.594 369.868 149.26 371.035 147.5 372C148.449 372.617 149.282 372.451 150 371.5C150.497 368.854 150.664 366.187 150.5 363.5C151.979 362.241 153.646 361.241 155.5 360.5C159.165 362.58 163.165 363.413 167.5 363C165.595 361.13 163.428 359.63 161 358.5C160.517 357.552 160.351 356.552 160.5 355.5C160.167 354.833 159.833 354.167 159.5 353.5Z" fill="#FEBCCB"/>
<path fill-rule="evenodd" clip-rule="evenodd" d="M151.5 365.5C153.812 367.146 155.812 369.146 157.5 371.5C155.674 371.92 153.674 371.92 151.5 371.5C151.5 369.5 151.5 367.5 151.5 365.5Z" fill="#FEF7FA"/>
<path fill-rule="evenodd" clip-rule="evenodd" d="M150.5 363.5C150.664 366.187 150.497 368.854 150 371.5C149.282 372.451 148.449 372.617 147.5 372C149.26 371.035 149.594 369.868 148.5 368.5C146.585 370.071 145.585 372.071 145.5 374.5C144.167 374.5 142.833 374.5 141.5 374.5C142.209 373.596 143.209 373.263 144.5 373.5C144.741 371.102 144.074 369.102 142.5 367.5C143.306 366.272 144.306 365.272 145.5 364.5C146.531 363.645 147.697 362.978 149 362.5C149.765 362.57 150.265 362.903 150.5 363.5Z" fill="#FBAFBF"/>
<path fill-rule="evenodd" clip-rule="evenodd" d="M169.5 369.5C168.167 370.5 166.833 371.5 165.5 372.5C164.5 372.5 163.5 372.5 162.5 372.5C160.994 370.211 159.827 367.877 159 365.5C162.556 366.695 166.056 368.028 169.5 369.5Z" fill="#FBF8F8"/>
<path fill-rule="evenodd" clip-rule="evenodd" d="M300.5 370.5C301.568 371.434 302.901 371.768 304.5 371.5C304.751 375.249 305.417 378.915 306.5 382.5C303.418 384.075 300.751 386.242 298.5 389C297.552 389.483 296.552 389.649 295.5 389.5C292.334 384.169 290.001 378.503 288.5 372.5C290.774 371.403 292.941 370.07 295 368.5C296.9 369.077 298.733 369.744 300.5 370.5Z" fill="#FDFBFB"/>
<path fill-rule="evenodd" clip-rule="evenodd" d="M142.501 367.5C144.075 369.102 144.742 371.102 144.501 373.5C143.21 373.263 142.21 373.596 141.501 374.5C142.563 377.518 143.73 380.518 145.001 383.5C146.103 381.619 147.436 379.952 149.001 378.5C153.872 381.329 157.372 379.995 159.501 374.5C160.299 374.957 160.632 375.624 160.501 376.5C160.014 377.473 159.514 378.473 159.001 379.5C156.157 381.159 153.657 383.159 151.501 385.5C149.567 386.11 147.9 387.11 146.501 388.5C142.514 388.99 138.847 388.324 135.501 386.5C135.673 385.508 135.339 384.842 134.501 384.5C133.577 377.105 136.243 371.438 142.501 367.5Z" fill="#F68DA5"/>
<path fill-rule="evenodd" clip-rule="evenodd" d="M307.5 386.5C309.982 388.503 310.982 391.169 310.5 394.5C307.202 394.984 304.536 393.984 302.5 391.5C304.549 390.118 306.215 388.452 307.5 386.5Z" fill="#FBF7F6"/>
<path fill-rule="evenodd" clip-rule="evenodd" d="M306.5 382.5C307.434 383.568 307.768 384.901 307.5 386.5C306.215 388.452 304.549 390.118 302.5 391.5C304.536 393.984 307.202 394.984 310.5 394.5C311.87 396.25 312.87 398.25 313.5 400.5C312.508 400.328 311.842 400.662 311.5 401.5C308.795 402.853 306.128 404.186 303.5 405.5C302.5 405.5 301.5 405.5 300.5 405.5C300.5 406.5 300.5 407.5 300.5 408.5C299.632 405.545 299.965 402.545 301.5 399.5C303.179 399.108 304.846 398.608 306.5 398C303.721 396.278 300.721 395.111 297.5 394.5C296.058 393.18 295.392 391.514 295.5 389.5C296.552 389.649 297.552 389.483 298.5 389C300.751 386.242 303.418 384.075 306.5 382.5Z" fill="#FDB8C8"/>
<path fill-rule="evenodd" clip-rule="evenodd" d="M297.5 394.5C300.721 395.111 303.721 396.278 306.5 398C304.846 398.608 303.179 399.108 301.5 399.5C300.833 399.5 300.167 399.5 299.5 399.5C298.833 397.833 298.167 396.167 297.5 394.5Z" fill="#FDF9F8"/>
<path fill-rule="evenodd" clip-rule="evenodd" d="M311.5 401.5C311.5 403.167 311.5 404.833 311.5 406.5C310.141 407.007 309.141 408.007 308.5 409.5C307.583 408.873 306.583 408.539 305.5 408.5C304.833 407.5 304.167 406.5 303.5 405.5C306.128 404.186 308.795 402.853 311.5 401.5Z" fill="#FDF3F6"/>
<path fill-rule="evenodd" clip-rule="evenodd" d="M303.5 405.5C304.167 406.5 304.833 407.5 305.5 408.5C304.205 409.488 302.872 410.488 301.5 411.5C300.89 410.609 300.557 409.609 300.5 408.5C300.5 407.5 300.5 406.5 300.5 405.5C301.5 405.5 302.5 405.5 303.5 405.5Z" fill="#F98CA3"/>
<path fill-rule="evenodd" clip-rule="evenodd" d="M305.5 418.5C304.172 416.207 302.839 413.873 301.5 411.5C302.872 410.488 304.205 409.488 305.5 408.5C306.583 408.539 307.583 408.873 308.5 409.5C309.141 408.007 310.141 407.007 311.5 406.5C316.678 406.115 317.678 408.282 314.5 413C318.528 415.699 318.195 416.532 313.5 415.5C312.833 417.167 312.167 418.833 311.5 420.5C309.889 419.68 309.222 418.346 309.5 416.5C307.517 416.157 306.183 416.824 305.5 418.5Z" fill="#FEB4C6"/>
<path fill-rule="evenodd" clip-rule="evenodd" d="M313.5 400.5C314.167 400.833 314.833 401.167 315.5 401.5C319.835 408.155 321.835 415.488 321.5 423.5C319.62 423.229 318.287 423.896 317.5 425.5C316.833 425.5 316.167 425.5 315.5 425.5C311.119 424.804 307.786 422.471 305.5 418.5C306.183 416.824 307.517 416.157 309.5 416.5C309.222 418.346 309.889 419.68 311.5 420.5C312.167 418.833 312.833 417.167 313.5 415.5C318.195 416.532 318.528 415.699 314.5 413C317.678 408.282 316.678 406.115 311.5 406.5C311.5 404.833 311.5 403.167 311.5 401.5C311.842 400.662 312.508 400.328 313.5 400.5Z" fill="#F78FA8"/>
</svg>
