<svg width="500" height="500" viewBox="0 0 500 500" fill="none" xmlns="http://www.w3.org/2000/svg">
<path fill-rule="evenodd" clip-rule="evenodd" d="M441.5 246.5C438.175 246.169 434.841 245.836 431.5 245.5C426.902 244.924 424.068 246.924 423 251.5C422.829 259.011 422.329 266.345 421.5 273.5C421.565 273.062 421.399 272.728 421 272.5C411.751 281.951 401.417 289.951 390 296.5C387.552 292.385 384.719 288.552 381.5 285C379.559 284.257 377.726 284.424 376 285.5C375.91 288.462 377.243 290.796 380 292.5C388.395 307.162 390.728 322.828 387 339.5C382.003 350.417 373.503 355.25 361.5 354C352.689 347.507 346.523 339.007 343 328.5C340.197 321.237 337.697 313.904 335.5 306.5C339.099 307.64 342.766 308.14 346.5 308C348.325 306.534 348.825 304.701 348 302.5C341.862 298.185 336.029 293.519 330.5 288.5C331.043 288.44 331.376 288.107 331.5 287.5C330.122 282.605 329.289 277.605 329 272.5C328.907 269.993 328.074 267.826 326.5 266C315.005 262.337 303.338 259.17 291.5 256.5C288.357 261.899 284.357 266.732 279.5 271C262.131 278.891 244.465 279.557 226.5 273C223.705 271.207 221.205 269.04 219 266.5C215.72 261.578 212.22 256.911 208.5 252.5C198.701 255.242 189.034 258.242 179.5 261.5C178.731 266.512 178.065 271.512 177.5 276.5C167.675 280.17 159.509 286.17 153 294.5C150.26 304.097 153.427 306.93 162.5 303C165.688 300.568 168.688 297.901 171.5 295C172.332 294.312 172.998 294.479 173.5 295.5C172.421 298.872 171.421 302.206 170.5 305.5C170.964 308.887 171.631 312.22 172.5 315.5C168.022 329.814 161.522 343.147 153 355.5C143.866 364.223 134.866 364.223 126 355.5C119.895 344.933 117.895 333.6 120 321.5C121.574 307.994 123.907 294.66 127 281.5C124.46 280.124 122.46 280.79 121 283.5C119.499 288.839 117.999 294.173 116.5 299.5C103.137 289.491 89.8037 279.491 76.5001 269.5C81.5383 248.537 73.8716 240.87 53.5001 246.5C53.804 245.85 54.1374 245.183 54.5001 244.5C52.8972 241.656 52.3972 238.656 53.0001 235.5C58.1341 229.365 63.6341 223.531 69.5001 218C104.38 189.559 143.713 169.559 187.5 158C196.3 141.853 205.133 125.687 214 109.5C220.329 96.5054 229.496 86.0054 241.5 78.0001C252.78 72.2938 263.113 73.6272 272.5 82.0001C297.365 107.885 316.032 137.718 328.5 171.5C364.13 180.748 396.13 196.914 424.5 220C428.034 223.869 431.867 227.369 436 230.5C439.351 235.388 441.184 240.722 441.5 246.5Z" fill="#FEDF89"/>
<path fill-rule="evenodd" clip-rule="evenodd" d="M299.5 102.5C307.268 114.111 314.435 126.111 321 138.5C325.824 147.146 329.824 156.146 333 165.5C340.023 168.049 347.19 170.215 354.5 172C362.859 175.847 371.193 179.681 379.5 183.5C388.125 187.479 396.459 191.979 404.5 197C412.5 203 420.5 209 428.5 215C434.366 220.531 439.866 226.365 445 232.5C446.863 236.649 448.03 240.982 448.5 245.5C446.643 247.845 444.31 248.178 441.5 246.5C441.184 240.722 439.351 235.388 436 230.5C431.867 227.369 428.034 223.869 424.5 220C396.13 196.914 364.13 180.748 328.5 171.5C316.032 137.718 297.365 107.885 272.5 82C263.113 73.6271 252.78 72.2937 241.5 78C229.496 86.0053 220.329 96.5053 214 109.5C205.133 125.687 196.3 141.853 187.5 158C143.713 169.559 104.38 189.559 69.5005 218C63.6345 223.531 58.1345 229.365 53.0005 235.5C52.3976 238.656 52.8976 241.656 54.5005 244.5C54.1378 245.183 53.8044 245.85 53.5005 246.5C51.3797 246.675 49.3797 246.341 47.5005 245.5C45.834 241.666 45.334 237.666 46.0005 233.5C49.6704 228.998 53.5037 224.665 57.5005 220.5C91.667 190.076 130.667 167.91 174.5 154C177.553 153.821 180.553 153.321 183.5 152.5C184.127 151.583 184.461 150.583 184.5 149.5C195.966 128.573 207.966 107.907 220.5 87.5C224.446 84.2209 228.112 80.5542 231.5 76.5C242.835 68.1753 255.169 66.342 268.5 71C280.402 80.0674 290.735 90.5674 299.5 102.5Z" fill="#FCBB34"/>
<path fill-rule="evenodd" clip-rule="evenodd" d="M260.5 89.5C264.493 89.2447 267.326 90.9114 269 94.5C272.622 122.733 274.622 151.066 275 179.5C274.167 180.333 273.333 181.167 272.5 182C261.828 186.02 250.828 187.353 239.5 186C238.069 185.535 236.903 184.701 236 183.5C233.016 154.206 232.682 124.873 235 95.5C235.5 93.6667 236.667 92.5 238.5 92C246.049 91.7764 253.383 90.9431 260.5 89.5Z" fill="#18B3B5"/>
<path fill-rule="evenodd" clip-rule="evenodd" d="M76.4997 269.5C76.4997 272.167 76.4997 274.833 76.4997 277.5C77.0745 299.841 77.5745 322.174 77.9997 344.5C77.4997 345 76.9997 345.5 76.4997 346C73.3415 346.554 70.1748 347.054 66.9997 347.5C56.5832 346.83 46.2498 345.83 35.9997 344.5C34.098 341.663 33.2647 338.496 33.4997 335C34.4288 307.769 36.2622 280.602 38.9997 253.5C40.4529 249.209 43.2862 246.542 47.4997 245.5C49.3789 246.341 51.3789 246.675 53.4997 246.5C73.8712 240.87 81.5379 248.537 76.4997 269.5Z" fill="#14B2B5"/>
<path fill-rule="evenodd" clip-rule="evenodd" d="M441.5 246.5C444.31 248.178 446.643 247.845 448.5 245.5C449.404 246.209 449.737 247.209 449.5 248.5C452.685 248.02 455.519 248.686 458 250.5C458.115 265.365 458.949 280.031 460.5 294.5C461.114 306.688 462.114 318.854 463.5 331C463.536 333.63 463.036 336.13 462 338.5C455.551 340.327 449.051 342.161 442.5 344C436.5 344.667 430.5 344.667 424.5 344C422.094 342.378 420.261 340.211 419 337.5C419.25 319.155 420.084 300.822 421.5 282.5C421.5 279.5 421.5 276.5 421.5 273.5C422.329 266.345 422.829 259.011 423 251.5C424.068 246.924 426.902 244.924 431.5 245.5C434.841 245.836 438.175 246.169 441.5 246.5Z" fill="#14B2B5"/>
<path fill-rule="evenodd" clip-rule="evenodd" d="M221.5 277.5C209.514 272.301 197.181 271.301 184.5 274.5C185.073 271.853 185.74 269.187 186.5 266.5C193.217 263.069 200.217 261.402 207.5 261.5C211.129 267.793 215.796 273.126 221.5 277.5Z" fill="#F8F6F4"/>
<path fill-rule="evenodd" clip-rule="evenodd" d="M324.5 285.5C316.673 283.592 309.007 281.092 301.5 278C295.152 276.605 288.818 276.439 282.5 277.5C287.549 273.78 291.549 269.114 294.5 263.5C303.001 265.406 311.334 267.906 319.5 271C321.356 275.796 323.022 280.629 324.5 285.5Z" fill="#F8F7F5"/>
<path fill-rule="evenodd" clip-rule="evenodd" d="M330.5 288.5C328.181 288.008 326.181 287.008 324.5 285.5C323.022 280.629 321.356 275.796 319.5 271C311.334 267.906 303.001 265.406 294.5 263.5C291.549 269.114 287.549 273.78 282.5 277.5C263.382 284.691 244.049 285.358 224.5 279.5C224.027 278.094 223.027 277.427 221.5 277.5C215.796 273.126 211.129 267.793 207.5 261.5C200.217 261.402 193.217 263.069 186.5 266.5C185.74 269.187 185.073 271.853 184.5 274.5C182.167 275.167 179.833 275.833 177.5 276.5C178.065 271.512 178.731 266.512 179.5 261.5C189.034 258.242 198.701 255.242 208.5 252.5C212.22 256.911 215.72 261.578 219 266.5C221.205 269.04 223.705 271.207 226.5 273C244.465 279.557 262.131 278.891 279.5 271C284.357 266.732 288.357 261.899 291.5 256.5C303.338 259.17 315.005 262.337 326.5 266C328.074 267.826 328.907 269.993 329 272.5C329.289 277.605 330.122 282.605 331.5 287.5C331.376 288.107 331.043 288.44 330.5 288.5Z" fill="#FEBC36"/>
<path fill-rule="evenodd" clip-rule="evenodd" d="M221.5 277.5C221.973 278.906 222.973 279.573 224.5 279.5C227.152 286.983 230.319 294.317 234 301.5C234.667 305.167 234.667 308.833 234 312.5C230.667 317.833 227.333 323.167 224 328.5C219.194 332.481 214.027 335.814 208.5 338.5C201.798 338.664 195.131 338.331 188.5 337.5C184.526 333.862 180.526 330.195 176.5 326.5C175.141 322.747 173.807 319.081 172.5 315.5C171.631 312.22 170.964 308.887 170.5 305.5C171.421 302.206 172.421 298.872 173.5 295.5C172.998 294.479 172.332 294.312 171.5 295C168.688 297.901 165.688 300.568 162.5 303C153.427 306.93 150.26 304.097 153 294.5C159.509 286.17 167.675 280.17 177.5 276.5C179.833 275.833 182.167 275.167 184.5 274.5C197.181 271.301 209.514 272.301 221.5 277.5Z" fill="#050505"/>
<path fill-rule="evenodd" clip-rule="evenodd" d="M324.5 285.5C326.181 287.008 328.181 288.008 330.5 288.5C336.029 293.519 341.862 298.185 348 302.5C348.825 304.701 348.325 306.534 346.5 308C342.766 308.14 339.099 307.64 335.5 306.5C332.55 304.885 329.884 302.885 327.5 300.5C326.235 312.405 322.068 323.405 315 333.5C313.074 335.539 310.907 337.206 308.5 338.5C302.232 341.262 295.565 342.262 288.5 341.5C280.507 340.002 273.673 336.335 268 330.5C262.2 314.756 263.533 299.756 272 285.5C275.299 282.449 278.799 279.782 282.5 277.5C288.818 276.439 295.152 276.605 301.5 278C309.007 281.092 316.673 283.592 324.5 285.5Z" fill="#040404"/>
<path fill-rule="evenodd" clip-rule="evenodd" d="M221.5 277.5C223.027 277.427 224.027 278.094 224.5 279.5C222.973 279.573 221.973 278.906 221.5 277.5Z" fill="#D8D9C0"/>
<path fill-rule="evenodd" clip-rule="evenodd" d="M282.5 277.5C278.799 279.782 275.299 282.449 272 285.5C263.533 299.756 262.2 314.756 268 330.5C273.673 336.335 280.507 340.002 288.5 341.5C291.82 344.648 295.32 347.648 299 350.5C303.79 347.867 306.957 343.867 308.5 338.5C310.907 337.206 313.074 335.539 315 333.5C322.068 323.405 326.235 312.405 327.5 300.5C330.811 316.773 336.478 332.107 344.5 346.5C338.35 351.809 332.017 356.976 325.5 362C315.203 367.982 304.703 373.482 294 378.5C293.607 385.52 293.941 392.52 295 399.5C299.559 400.913 303.893 402.913 308 405.5C308.667 407.833 308.667 410.167 308 412.5C299.955 414.767 291.789 415.1 283.5 413.5C282.226 404.189 281.06 394.855 280 385.5C277.589 384.861 275.089 384.527 272.5 384.5C264.677 385.29 256.843 385.957 249 386.5C241.523 385.419 234.023 384.919 226.5 385C225.333 385.5 224.5 386.333 224 387.5C223.52 396.218 222.02 404.718 219.5 413C211.891 414.174 204.558 413.507 197.5 411C195.424 409.116 195.09 406.949 196.5 404.5C201.081 403.304 205.581 401.97 210 400.5C210.247 394.137 210.747 387.804 211.5 381.5C211.281 380.062 210.781 378.729 210 377.5C192.195 373.403 176.695 365.069 163.5 352.5C167.853 343.795 172.186 335.128 176.5 326.5C180.526 330.195 184.526 333.862 188.5 337.5C190.799 342.774 194.466 346.774 199.5 349.5C201.029 349.471 202.196 348.804 203 347.5C204.662 344.351 206.495 341.351 208.5 338.5C214.027 335.814 219.194 332.481 224 328.5C227.333 323.167 230.667 317.833 234 312.5C234.667 308.833 234.667 305.167 234 301.5C230.319 294.317 227.152 286.983 224.5 279.5C244.049 285.358 263.382 284.691 282.5 277.5Z" fill="#FDFDFD"/>
<path fill-rule="evenodd" clip-rule="evenodd" d="M209.5 284.5C219.404 283.952 223.571 288.619 222 298.5C219.785 304.652 215.618 308.652 209.5 310.5C202.231 307.633 199.398 302.3 201 294.5C203.15 290.497 205.984 287.164 209.5 284.5Z" fill="#F5F5F5"/>
<path fill-rule="evenodd" clip-rule="evenodd" d="M284.5 284.5C290.458 284.135 294.124 286.802 295.5 292.5C293.756 296.662 292.589 300.995 292 305.5C287.315 310.447 282.315 310.78 277 306.5C275.062 303.556 273.562 300.389 272.5 297C272.858 294.968 273.692 293.134 275 291.5C278.415 289.431 281.582 287.098 284.5 284.5Z" fill="#F2F2F3"/>
<path fill-rule="evenodd" clip-rule="evenodd" d="M421.5 273.5C421.5 276.5 421.5 279.5 421.5 282.5C412.888 289.813 403.554 296.146 393.5 301.5C393.167 302.167 392.833 302.833 392.5 303.5C397.203 319.347 396.203 334.68 389.5 349.5C390.779 351.146 392.445 352.313 394.5 353C417.257 358.714 438.591 367.714 458.5 380C480.046 395.357 477.38 402.524 450.5 401.5C443.114 405.382 437.114 410.882 432.5 418C426.652 421.402 420.318 422.402 413.5 421C407.556 417.389 401.889 413.389 396.5 409C395.127 408.125 393.627 407.625 392 407.5C387.518 409.97 383.018 412.47 378.5 415C371.81 416.15 365.476 415.15 359.5 412C354.052 405.605 349.219 398.772 345 391.5C337.931 383.748 330.098 377.081 321.5 371.5C323.22 370.692 324.887 369.692 326.5 368.5C327.552 368.351 328.552 368.517 329.5 369C343.16 378.823 354.16 390.99 362.5 405.5C367.306 409.639 372.64 410.472 378.5 408C382.488 404.173 387.155 401.673 392.5 400.5C401.312 403.471 408.978 408.304 415.5 415C418.833 415.667 422.167 415.667 425.5 415C430.833 408.333 436.833 402.333 443.5 397C449.871 394.381 456.538 393.048 463.5 393C457.533 387.348 450.866 382.682 443.5 379C423.926 369.629 403.759 361.796 383 355.5C375.862 360.243 368.029 362.076 359.5 361C354.713 358.045 350.38 354.545 346.5 350.5C345.833 349.167 345.167 347.833 344.5 346.5C336.478 332.107 330.811 316.773 327.5 300.5C329.884 302.885 332.55 304.885 335.5 306.5C337.697 313.904 340.197 321.237 343 328.5C346.523 339.007 352.689 347.507 361.5 354C373.503 355.25 382.003 350.417 387 339.5C390.728 322.828 388.395 307.162 380 292.5C377.243 290.796 375.91 288.462 376 285.5C377.726 284.424 379.559 284.257 381.5 285C384.719 288.552 387.552 292.385 390 296.5C401.417 289.951 411.751 281.951 421 272.5C421.399 272.728 421.565 273.062 421.5 273.5Z" fill="#FCBB34"/>
<path fill-rule="evenodd" clip-rule="evenodd" d="M188.5 337.5C195.131 338.331 201.798 338.664 208.5 338.5C206.495 341.351 204.662 344.351 203 347.5C202.196 348.804 201.029 349.471 199.5 349.5C194.466 346.774 190.799 342.774 188.5 337.5Z" fill="#7BD1D1"/>
<path fill-rule="evenodd" clip-rule="evenodd" d="M263.5 350.5C254.231 347.626 245.231 348.46 236.5 353C235.934 353.995 235.267 354.828 234.5 355.5C233.577 351.936 233.244 348.269 233.5 344.5C243.479 343.704 253.479 343.371 263.5 343.5C263.5 345.833 263.5 348.167 263.5 350.5Z" fill="#FB6574"/>
<path fill-rule="evenodd" clip-rule="evenodd" d="M308.5 338.5C306.957 343.867 303.79 347.867 299 350.5C295.32 347.648 291.82 344.648 288.5 341.5C295.565 342.262 302.232 341.262 308.5 338.5Z" fill="#79CECD"/>
<path fill-rule="evenodd" clip-rule="evenodd" d="M263.5 350.5C262.948 357.451 259.282 361.618 252.5 363C244.427 365.123 238.427 362.623 234.5 355.5C235.267 354.828 235.934 353.995 236.5 353C245.231 348.46 254.231 347.626 263.5 350.5Z" fill="#FEAFB2"/>
<path fill-rule="evenodd" clip-rule="evenodd" d="M346.5 350.5C350.38 354.545 354.713 358.045 359.5 361C368.029 362.076 375.862 360.243 383 355.5C403.759 361.796 423.926 369.629 443.5 379C450.866 382.682 457.533 387.348 463.5 393C456.538 393.048 449.871 394.381 443.5 397C436.833 402.333 430.833 408.333 425.5 415C422.167 415.667 418.833 415.667 415.5 415C408.978 408.304 401.312 403.471 392.5 400.5C387.155 401.673 382.488 404.173 378.5 408C372.64 410.472 367.306 409.639 362.5 405.5C354.16 390.99 343.16 378.823 329.5 369C328.552 368.517 327.552 368.351 326.5 368.5C334.706 364.298 341.373 358.298 346.5 350.5Z" fill="#FEDF8A"/>
<path fill-rule="evenodd" clip-rule="evenodd" d="M160.5 356.5C163.173 361.173 166.839 364.839 171.5 367.5C165.562 372.936 159.729 378.603 154 384.5C149.601 392.963 144.934 401.296 140 409.5C130.72 415.933 121.22 416.099 111.5 410C107.091 409.195 103.091 410.195 99.5 413C95.5 416.333 91.5 419.667 87.5 423C82.8333 423.667 78.1667 423.667 73.5 423C62.5479 412.691 49.5479 407.691 34.5 408C35.9191 404.414 38.2524 401.581 41.5 399.5C55.508 390.827 69.8414 382.661 84.5 375C96.8488 370.659 108.849 365.493 120.5 359.5C125.022 365.011 130.856 368.011 138 368.5C147.874 368.518 155.374 364.518 160.5 356.5Z" fill="#FEDF89"/>
<path fill-rule="evenodd" clip-rule="evenodd" d="M76.4998 269.5C89.8034 279.491 103.137 289.491 116.5 299.5C117.999 294.173 119.499 288.839 121 283.5C122.46 280.79 124.46 280.124 127 281.5C123.907 294.66 121.574 307.994 120 321.5C117.895 333.6 119.895 344.933 126 355.5C134.866 364.223 143.866 364.223 153 355.5C161.522 343.147 168.022 329.814 172.5 315.5C173.807 319.081 175.141 322.747 176.5 326.5C172.186 335.128 167.853 343.795 163.5 352.5C162.512 353.795 161.512 355.128 160.5 356.5C155.374 364.518 147.874 368.518 138 368.5C130.856 368.011 125.022 365.011 120.5 359.5C108.849 365.493 96.8486 370.659 84.4998 375C69.8412 382.661 55.5078 390.827 41.4998 399.5C38.2522 401.581 35.9189 404.414 34.4998 408C49.5477 407.691 62.5477 412.691 73.4998 423C78.1665 423.667 82.8331 423.667 87.4998 423C91.4998 419.667 95.4998 416.333 99.4998 413C103.091 410.195 107.091 409.195 111.5 410C121.22 416.099 130.72 415.933 140 409.5C144.934 401.296 149.601 392.963 154 384.5C159.729 378.603 165.562 372.936 171.5 367.5C173.853 368.34 175.853 369.674 177.5 371.5C171.266 376.233 165.433 381.567 160 387.5C155.667 395.5 151.333 403.5 147 411.5C142.685 416.346 137.518 419.679 131.5 421.5C128.482 421.665 125.482 421.498 122.5 421C117.807 419.071 112.973 417.571 108 416.5C102.311 419.508 97.1441 423.341 92.4998 428C86.7314 430.228 80.7314 431.061 74.4998 430.5C66.3054 424.863 57.6387 419.696 48.4998 415C43.1425 414.322 37.8091 414.489 32.4998 415.5C27.8162 413.808 26.3162 410.475 27.9998 405.5C35.4433 394.851 45.2766 387.184 57.4998 382.5C64.6433 378.092 71.9766 373.926 79.4998 370C92.6698 365.414 105.337 359.747 117.5 353C116.259 349.876 115.092 346.709 114 343.5C113.286 331.08 113.619 318.747 115 306.5C102.007 297.001 89.173 287.335 76.4998 277.5C76.4998 274.833 76.4998 272.167 76.4998 269.5Z" fill="#FCBA34"/>
<path fill-rule="evenodd" clip-rule="evenodd" d="M344.5 346.5C345.167 347.833 345.833 349.167 346.5 350.5C341.373 358.298 334.706 364.298 326.5 368.5C324.887 369.692 323.22 370.692 321.5 371.5C314.969 375.934 307.969 379.6 300.5 382.5C300.167 383.167 299.833 383.833 299.5 384.5C300.641 387.755 301.474 391.089 302 394.5C303.945 395.863 306.112 396.697 308.5 397C310.333 398.833 312.167 400.667 314 402.5C317.658 411.275 315.158 417.275 306.5 420.5C305.033 420.894 303.533 421.227 302 421.5C294.418 421.016 286.918 420.183 279.5 419C277.996 417.509 277.163 415.676 277 413.5C276.403 406.385 275.236 399.385 273.5 392.5C271.5 392.167 269.5 391.833 267.5 391.5C262.8 391.956 258.133 392.623 253.5 393.5C245.838 392.713 238.171 392.046 230.5 391.5C229.125 398.419 227.958 405.419 227 412.5C226.115 415 224.948 417.333 223.5 419.5C215.481 420.725 207.481 420.558 199.5 419C195.726 417.698 192.559 415.531 190 412.5C187.316 401.338 191.816 396.005 203.5 396.5C203.2 391.901 203.533 387.401 204.5 383C195.032 380.234 186.032 376.401 177.5 371.5C175.853 369.674 173.853 368.34 171.5 367.5C166.839 364.839 163.173 361.173 160.5 356.5C161.512 355.128 162.512 353.795 163.5 352.5C176.695 365.069 192.195 373.403 210 377.5C210.781 378.729 211.281 380.062 211.5 381.5C210.747 387.804 210.247 394.137 210 400.5C205.581 401.97 201.081 403.304 196.5 404.5C195.09 406.949 195.424 409.116 197.5 411C204.558 413.507 211.891 414.174 219.5 413C222.02 404.718 223.52 396.218 224 387.5C224.5 386.333 225.333 385.5 226.5 385C234.023 384.919 241.523 385.419 249 386.5C256.843 385.957 264.677 385.29 272.5 384.5C275.089 384.527 277.589 384.861 280 385.5C281.06 394.855 282.226 404.189 283.5 413.5C291.789 415.1 299.955 414.767 308 412.5C308.667 410.167 308.667 407.833 308 405.5C303.893 402.913 299.559 400.913 295 399.5C293.941 392.52 293.607 385.52 294 378.5C304.703 373.482 315.203 367.982 325.5 362C332.017 356.976 338.35 351.809 344.5 346.5Z" fill="#D4D9E7"/>
</svg>
