<svg width="500" height="500" viewBox="0 0 500 500" fill="none" xmlns="http://www.w3.org/2000/svg">
<path fill-rule="evenodd" clip-rule="evenodd" d="M337.5 183.5C336.262 184.412 334.928 184.579 333.5 184C331.298 179.988 328.631 176.488 325.5 173.5C339.16 160.868 341.994 146.202 334 129.5C329.5 125 325 120.5 320.5 116C313.635 112.116 306.301 110.45 298.5 111C290.452 115.22 283.452 120.72 277.5 127.5C273.904 125.533 270.237 123.866 266.5 122.5C278.308 92.2712 299.308 83.4379 329.5 96.0001C364.171 118.164 369.171 145.664 344.5 178.5C341.961 179.931 339.628 181.597 337.5 183.5Z" fill="#2D2C2D"/>
<path fill-rule="evenodd" clip-rule="evenodd" d="M137.5 123.5C137.536 127.108 135.869 129.441 132.5 130.5C127.237 126.192 121.57 122.358 115.5 119C98.538 112.099 85.0377 116.266 75 131.5C68.5967 143.528 69.2634 155.195 77 166.5C79.9985 168.333 82.4985 170.666 84.5 173.5C82.293 178.382 78.6263 181.382 73.5 182.5C66.728 175.659 60.8947 167.993 56 159.5C48.6614 143.582 50.6614 128.915 62 115.5C80.3634 93.9797 101.53 90.813 125.5 106C129.369 109.534 132.869 113.367 136 117.5C137.128 119.345 137.628 121.345 137.5 123.5Z" fill="#2E2C2D"/>
<path fill-rule="evenodd" clip-rule="evenodd" d="M325.5 173.5C321.606 169.392 317.939 165.059 314.5 160.5C317.502 161.643 320.502 161.643 323.5 160.5C324.404 157.692 323.737 155.192 321.5 153C324.557 152.744 327.557 152.244 330.5 151.5C331.833 149.833 331.833 148.167 330.5 146.5C327.18 143.506 323.513 141.006 319.5 139C322.971 136.928 326.638 135.428 330.5 134.5C330.714 132.856 330.38 131.356 329.5 130C321.813 126.83 313.813 125.83 305.5 127C300.787 127.219 297.954 129.386 297 133.5C297.561 134.022 298.228 134.355 299 134.5C300.63 133.287 302.464 132.454 304.5 132C310.528 131.17 316.528 131.336 322.5 132.5C318.682 134.242 315.016 136.242 311.5 138.5C315.112 142.315 319.446 145.148 324.5 147C313.405 145.978 311.739 149.311 319.5 157C316.953 156.661 314.453 155.827 312 154.5C311.235 154.57 310.735 154.903 310.5 155.5C300.861 145.693 290.194 137.193 278.5 130C277.748 129.329 277.414 128.496 277.5 127.5C283.452 120.72 290.452 115.22 298.5 111C306.301 110.45 313.635 112.116 320.5 116C325 120.5 329.5 125 334 129.5C341.994 146.202 339.16 160.868 325.5 173.5Z" fill="#FBFAFA"/>
<path fill-rule="evenodd" clip-rule="evenodd" d="M132.5 130.5C126.729 135.77 121.062 141.27 115.5 147C109.336 151.667 103.336 156.5 97.5 161.5C95.628 159.938 93.295 158.938 90.5 158.5C93.246 156.527 96.246 155.027 99.5 154C100.876 151.46 100.21 149.46 97.5 148C96.062 147.781 94.729 147.281 93.5 146.5C96.447 145.679 99.447 145.179 102.5 145C105.123 142.441 104.79 140.108 101.5 138C99.004 136.92 96.67 135.586 94.5 134C101.6 133.567 108.6 134.233 115.5 136C116.113 140.348 117.946 141.181 121 138.5C122.042 135.196 120.875 133.029 117.5 132C107.643 129.582 97.643 128.915 87.5 130C85.7888 131.133 85.2888 132.633 86 134.5C89.4162 136.792 92.916 138.959 96.5 141C92.424 141.476 88.5904 142.642 85 144.5C84.2797 146.112 84.4464 147.612 85.5 149C88.1209 149.939 90.788 150.772 93.5 151.5C87.993 152.812 85.493 156.145 86 161.5C88.5954 163.077 91.429 164.077 94.5 164.5C92.417 168.918 89.0836 171.918 84.5 173.5C82.4985 170.666 79.9985 168.333 77 166.5C69.2634 155.195 68.5967 143.528 75 131.5C85.0377 116.266 98.538 112.099 115.5 119C121.57 122.358 127.237 126.192 132.5 130.5Z" fill="#FCFAFB"/>
<path fill-rule="evenodd" clip-rule="evenodd" d="M257.5 119.5C259.993 125.139 258.16 127.472 252 126.5C242.562 124.206 233.062 122.039 223.5 120C218.511 119.501 213.511 119.334 208.5 119.5C208.5 120.833 208.5 122.167 208.5 123.5C213.931 123.728 219.264 124.561 224.5 126C228.702 129.206 228.369 131.706 223.5 133.5C218.544 132.606 213.544 132.273 208.5 132.5C208.5 134.5 208.5 136.5 208.5 138.5C211.487 138.998 214.487 139.498 217.5 140C218.833 142 218.833 144 217.5 146C214.183 146.498 210.85 146.665 207.5 146.5C207.574 150.158 206.074 152.825 203 154.5C201.739 154.241 200.739 153.574 200 152.5C199.505 150.527 199.338 148.527 199.5 146.5C196.482 146.665 193.482 146.498 190.5 146C188.398 144.267 188.065 142.267 189.5 140C192.393 138.851 195.393 138.351 198.5 138.5C198.5 136.833 198.5 135.167 198.5 133.5C190.826 133.666 183.159 133.5 175.5 133C174.079 128.702 175.746 126.035 180.5 125C186.445 123.838 192.445 123.338 198.5 123.5C198.349 120.15 196.515 118.484 193 118.5C180.593 120.034 168.259 122.034 156 124.5C152.101 124.825 149.935 123.158 149.5 119.5C151.858 117.871 154.524 116.705 157.5 116C172.666 114.666 187.833 113.5 203 112.5C221.554 112.175 239.721 114.508 257.5 119.5Z" fill="#2F2D2C"/>
<path fill-rule="evenodd" clip-rule="evenodd" d="M257.5 119.5C260.406 120.787 263.406 121.787 266.5 122.5C270.237 123.866 273.904 125.533 277.5 127.5C277.414 128.496 277.748 129.329 278.5 130C290.194 137.193 300.861 145.693 310.5 155.5C311.08 157.749 312.413 159.415 314.5 160.5C317.939 165.059 321.606 169.392 325.5 173.5C328.631 176.488 331.298 179.988 333.5 184C334.928 184.579 336.262 184.412 337.5 183.5C339.557 188.614 341.89 193.614 344.5 198.5C335.957 202.372 326.957 204.538 317.5 205C314.313 209.031 315.313 211.365 320.5 212C329.827 212.5 339.161 212.666 348.5 212.5C349.167 214.833 349.833 217.167 350.5 219.5C346.123 219.577 341.79 220.077 337.5 221C334.785 221.878 332.451 223.378 330.5 225.5C331.09 226.799 332.09 227.632 333.5 228C340.128 229.052 346.794 229.552 353.5 229.5C354.291 232.115 354.957 234.782 355.5 237.5C347.324 237.982 339.157 238.649 331 239.5C326.818 239.023 322.651 238.857 318.5 239C317.065 241.267 317.398 243.267 319.5 245C331.741 249.615 344.407 252.115 357.5 252.5C358.473 254.948 358.806 257.615 358.5 260.5C353.156 260.334 347.823 260.501 342.5 261C339.807 263.905 340.14 266.571 343.5 269C348.895 270.742 354.228 272.576 359.5 274.5C359.5 277.167 359.5 279.833 359.5 282.5C348.813 282.52 338.146 283.02 327.5 284C326.253 285.458 326.253 286.958 327.5 288.5C329.028 289.861 330.695 291.028 332.5 292C341.064 293.921 349.73 294.755 358.5 294.5C357.288 307.137 353.288 318.803 346.5 329.5C346.957 330.298 347.624 330.631 348.5 330.5C345.543 339.741 341.543 348.408 336.5 356.5C333.475 356.123 330.475 355.956 327.5 356C306.855 383.336 279.522 400.003 245.5 406C221.47 410.512 197.47 410.512 173.5 406C155.357 400.175 137.69 393.175 120.5 385C105.776 375.609 92.9421 364.109 82.0001 350.5C77.3959 342.234 72.3959 334.234 67.0001 326.5C62.1137 317.342 58.9471 307.675 57.5001 297.5C66.773 299.399 75.773 298.566 84.5001 295C86.0318 292.67 85.6984 290.67 83.5001 289C74.7818 288.592 66.1152 287.758 57.5001 286.5C56.6315 284.283 56.2981 281.95 56.5001 279.5C61.8291 278.401 67.1624 277.234 72.5001 276C75.7903 273.892 76.1236 271.559 73.5001 269C67.8113 268.627 62.1446 268.127 56.5001 267.5C56.5001 264.5 56.5001 261.5 56.5001 258.5C66.1896 258.549 75.1896 256.049 83.5001 251C86.5632 248.939 88.8965 246.273 90.5001 243C90.2661 241.268 89.2665 240.434 87.5001 240.5C77.3326 243.143 66.9993 244.476 56.5001 244.5C55.233 241.939 55.233 239.272 56.5001 236.5C63.196 237.151 69.5294 235.985 75.5001 233C78.487 229.136 77.487 226.969 72.5001 226.5C67.6746 227.68 63.008 227.68 58.5001 226.5C58.7572 222.829 59.7572 219.495 61.5001 216.5C72.1542 219.635 82.4875 218.801 92.5001 214C93.3371 212.989 93.6701 211.822 93.5001 210.5C85.4641 210.598 77.4641 210.098 69.5001 209C67.1888 208.764 65.1888 207.931 63.5001 206.5C66.2929 198.251 69.6262 190.251 73.5001 182.5C78.6264 181.382 82.2931 178.382 84.5001 173.5C89.0837 171.918 92.4171 168.918 94.5001 164.5C95.8331 163.833 96.8331 162.833 97.5001 161.5C103.336 156.5 109.336 151.667 115.5 147C121.062 141.27 126.729 135.77 132.5 130.5C135.869 129.441 137.536 127.108 137.5 123.5C141.541 122.138 145.541 120.805 149.5 119.5C149.935 123.158 152.101 124.825 156 124.5C168.259 122.034 180.593 120.034 193 118.5C196.515 118.484 198.349 120.15 198.5 123.5C192.445 123.338 186.445 123.838 180.5 125C175.746 126.035 174.079 128.702 175.5 133C183.159 133.5 190.826 133.666 198.5 133.5C198.5 135.167 198.5 136.833 198.5 138.5C195.393 138.351 192.393 138.851 189.5 140C188.065 142.267 188.398 144.267 190.5 146C193.482 146.498 196.482 146.665 199.5 146.5C199.338 148.527 199.505 150.527 200 152.5C200.739 153.574 201.739 154.241 203 154.5C206.074 152.825 207.574 150.158 207.5 146.5C210.85 146.665 214.183 146.498 217.5 146C218.833 144 218.833 142 217.5 140C214.487 139.498 211.487 138.998 208.5 138.5C208.5 136.5 208.5 134.5 208.5 132.5C213.544 132.273 218.544 132.606 223.5 133.5C228.369 131.706 228.702 129.206 224.5 126C219.264 124.561 213.931 123.728 208.5 123.5C208.5 122.167 208.5 120.833 208.5 119.5C213.511 119.334 218.511 119.501 223.5 120C233.062 122.039 242.562 124.206 252 126.5C258.16 127.472 259.993 125.139 257.5 119.5Z" fill="#F8831C"/>
<path fill-rule="evenodd" clip-rule="evenodd" d="M314.5 160.5C312.413 159.415 311.08 157.749 310.5 155.5C310.735 154.903 311.235 154.57 312 154.5C314.453 155.827 316.953 156.661 319.5 157C311.739 149.311 313.405 145.978 324.5 147C319.446 145.148 315.112 142.315 311.5 138.5C315.016 136.242 318.682 134.242 322.5 132.5C316.528 131.336 310.528 131.17 304.5 132C302.464 132.454 300.63 133.287 299 134.5C298.228 134.355 297.561 134.022 297 133.5C297.954 129.386 300.787 127.219 305.5 127C313.813 125.83 321.813 126.83 329.5 130C330.38 131.356 330.714 132.856 330.5 134.5C326.638 135.428 322.971 136.928 319.5 139C323.513 141.006 327.18 143.506 330.5 146.5C331.833 148.167 331.833 149.833 330.5 151.5C327.557 152.244 324.557 152.744 321.5 153C323.737 155.192 324.404 157.692 323.5 160.5C320.502 161.643 317.502 161.643 314.5 160.5Z" fill="#DDE0EC"/>
<path fill-rule="evenodd" clip-rule="evenodd" d="M97.5002 161.5C96.8332 162.833 95.8332 163.833 94.5002 164.5C91.4292 164.077 88.5956 163.077 86.0002 161.5C85.4932 156.145 87.9932 152.812 93.5002 151.5C90.7882 150.772 88.1211 149.939 85.5002 149C84.4466 147.612 84.2799 146.112 85.0002 144.5C88.5906 142.642 92.4242 141.476 96.5002 141C92.9162 138.959 89.4164 136.792 86.0002 134.5C85.289 132.633 85.789 131.133 87.5002 130C97.6432 128.915 107.643 129.582 117.5 132C120.875 133.029 122.042 135.196 121 138.5C117.946 141.181 116.113 140.348 115.5 136C108.6 134.233 101.6 133.567 94.5002 134C96.6702 135.586 99.0042 136.92 101.5 138C104.79 140.108 105.123 142.441 102.5 145C99.4472 145.179 96.4472 145.679 93.5002 146.5C94.7292 147.281 96.0622 147.781 97.5002 148C100.21 149.46 100.876 151.46 99.5002 154C96.2462 155.027 93.2462 156.527 90.5002 158.5C93.2952 158.938 95.6282 159.938 97.5002 161.5Z" fill="#DDE0EC"/>
<path fill-rule="evenodd" clip-rule="evenodd" d="M167.5 147.5C163.585 149.198 163.585 151.198 167.5 153.5C168.855 152.812 169.855 151.812 170.5 150.5C170.93 157.338 167.93 159.005 161.5 155.5C158.907 148.789 160.907 146.123 167.5 147.5Z" fill="#120B07"/>
<path fill-rule="evenodd" clip-rule="evenodd" d="M167.5 147.5C168.5 147.5 169.5 147.5 170.5 147.5C170.5 148.5 170.5 149.5 170.5 150.5C169.855 151.812 168.855 152.812 167.5 153.5C163.585 151.198 163.585 149.198 167.5 147.5Z" fill="#ECEBEB"/>
<path fill-rule="evenodd" clip-rule="evenodd" d="M241.5 149.5C239.29 150.455 238.957 151.955 240.5 154C243.262 155.077 244.928 154.244 245.5 151.5C247.999 154.121 247.665 156.621 244.5 159C237.718 160.875 234.552 158.375 235 151.5C236.897 149.095 239.064 148.428 241.5 149.5Z" fill="#18120F"/>
<path fill-rule="evenodd" clip-rule="evenodd" d="M241.5 149.5C243.38 149.229 244.713 149.896 245.5 151.5C244.928 154.244 243.262 155.077 240.5 154C238.957 151.955 239.29 150.455 241.5 149.5Z" fill="#F9F8F8"/>
<path fill-rule="evenodd" clip-rule="evenodd" d="M197.5 160.5C197.943 163.624 199.61 165.957 202.5 167.5C203.598 173.251 201.098 176.251 195 176.5C191.709 176.689 188.876 175.689 186.5 173.5C184.899 170.577 185.232 167.91 187.5 165.5C190.357 162.738 193.691 161.071 197.5 160.5Z" fill="#EBD492"/>
<path fill-rule="evenodd" clip-rule="evenodd" d="M254.5 163.5C259.447 162.628 263.613 163.961 267 167.5C267.667 168.5 267.667 169.5 267 170.5C261.805 175.391 256.305 175.725 250.5 171.5C248.748 167.26 250.081 164.593 254.5 163.5Z" fill="#FEA292"/>
<path fill-rule="evenodd" clip-rule="evenodd" d="M212.5 161.5C218.198 163.876 221.198 168.21 221.5 174.5C215.955 179.092 211.122 178.425 207 172.5C206.202 170.741 206.369 169.074 207.5 167.5C209.938 166.069 211.604 164.069 212.5 161.5Z" fill="#EED493"/>
<path fill-rule="evenodd" clip-rule="evenodd" d="M144.5 158.5C147.85 158.335 151.183 158.502 154.5 159C158.466 161.382 158.466 163.715 154.5 166C150.903 167.277 147.236 167.61 143.5 167C140.665 163.695 140.999 160.862 144.5 158.5Z" fill="#FEA190"/>
<path fill-rule="evenodd" clip-rule="evenodd" d="M212.5 161.5C211.604 164.069 209.938 166.069 207.5 167.5C206.369 169.074 206.202 170.741 207 172.5C211.122 178.425 215.955 179.092 221.5 174.5C219.517 179.492 215.85 181.325 210.5 180C208.359 178.692 206.359 177.192 204.5 175.5C200.974 179.293 196.64 180.46 191.5 179C188.921 177.924 187.254 176.091 186.5 173.5C188.876 175.689 191.709 176.689 195 176.5C201.098 176.251 203.598 173.251 202.5 167.5C199.61 165.957 197.943 163.624 197.5 160.5C201.981 159.352 206.648 159.185 211.5 160C212.056 160.383 212.389 160.883 212.5 161.5Z" fill="#302C2E"/>
<path fill-rule="evenodd" clip-rule="evenodd" d="M344.5 198.5C345.319 201.305 345.819 204.305 346 207.5C347.094 209.078 347.928 210.745 348.5 212.5C339.161 212.666 329.827 212.5 320.5 212C315.313 211.365 314.313 209.031 317.5 205C326.957 204.538 335.957 202.372 344.5 198.5Z" fill="#2F2D2A"/>
<path fill-rule="evenodd" clip-rule="evenodd" d="M178.5 202.5C209.153 200.598 238.82 205.098 267.5 216C285.613 225.113 299.447 238.613 309 256.5C317.752 270.987 322.086 286.654 322 303.5C319.468 317.164 315.802 330.497 311 343.5C302.833 355.667 292.667 365.833 280.5 374C236.81 397.688 191.81 400.688 145.5 383C137.833 378.667 130.167 374.333 122.5 370C93.0105 340.868 85.1769 306.701 99.0005 267.5C101.221 260.172 104.221 253.172 108 246.5C114.429 238.067 121.596 230.234 129.5 223C144.792 213.344 161.125 206.511 178.5 202.5Z" fill="#EFD694"/>
<path fill-rule="evenodd" clip-rule="evenodd" d="M63.5 206.5C65.1887 207.931 67.1887 208.764 69.5 209C77.464 210.098 85.464 210.598 93.5 210.5C93.67 211.822 93.337 212.989 92.5 214C82.4874 218.801 72.1541 219.635 61.5 216.5C61.7526 212.96 62.4192 209.627 63.5 206.5Z" fill="#2E2E2C"/>
<path fill-rule="evenodd" clip-rule="evenodd" d="M350.5 219.5C352.277 222.505 353.277 225.838 353.5 229.5C346.794 229.552 340.128 229.052 333.5 228C332.09 227.632 331.09 226.799 330.5 225.5C332.451 223.378 334.785 221.878 337.5 221C341.79 220.077 346.123 219.577 350.5 219.5Z" fill="#2E2C2B"/>
<path fill-rule="evenodd" clip-rule="evenodd" d="M58.5 226.5C63.0079 227.68 67.6745 227.68 72.5 226.5C77.4869 226.969 78.4869 229.136 75.5 233C69.5293 235.985 63.1959 237.151 56.5 236.5C56.7526 232.96 57.4192 229.627 58.5 226.5Z" fill="#302D2C"/>
<path fill-rule="evenodd" clip-rule="evenodd" d="M290.5 266.5C279.599 264.549 268.932 261.716 258.5 258C238.956 255.188 226.456 263.355 221 282.5C218.901 295.862 220.901 308.529 227 320.5C238.859 329.366 252.026 331.866 266.5 328C272.103 325.45 276.603 321.617 280 316.5C283.562 308.709 286.562 300.709 289 292.5C288.674 288.53 288.674 284.53 289 280.5C293.225 284.031 298.059 286.031 303.5 286.5C310.869 327.615 294.536 353.781 254.5 365C227.05 372.027 199.383 373.027 171.5 368C153.895 363.53 137.895 355.863 123.5 345C110.75 332.92 104.75 318.086 105.5 300.5C109.438 297.065 113.271 293.398 117 289.5C116.529 295.462 116.529 301.462 117 307.5C119.381 311.968 121.381 316.635 123 321.5C134.667 336.612 149.167 339.778 166.5 331C169.667 328.5 172.833 326 176 323.5C178.748 318.334 181.748 313.334 185 308.5C188.451 297.938 186.451 288.604 179 280.5C178.12 271.615 173.287 266.115 164.5 264C153.759 261.078 143.093 261.078 132.5 264C126.812 266.512 121.145 269.012 115.5 271.5C130.001 254.579 148.335 244.413 170.5 241C206.544 233.488 241.211 237.488 274.5 253C280.317 256.989 285.651 261.489 290.5 266.5Z" fill="#FCFCFC"/>
<path fill-rule="evenodd" clip-rule="evenodd" d="M355.5 237.5C356.311 242.467 356.978 247.467 357.5 252.5C344.407 252.115 331.741 249.615 319.5 245C317.398 243.267 317.065 241.267 318.5 239C322.651 238.857 326.818 239.023 331 239.5C339.157 238.649 347.324 237.982 355.5 237.5Z" fill="#2E2C2C"/>
<path fill-rule="evenodd" clip-rule="evenodd" d="M56.5 258.5C56.5 253.833 56.5 249.167 56.5 244.5C66.9992 244.476 77.3325 243.143 87.5 240.5C89.2664 240.434 90.266 241.268 90.5 243C88.8964 246.273 86.5631 248.939 83.5 251C75.1895 256.049 66.1895 258.549 56.5 258.5Z" fill="#2E2C2B"/>
<path fill-rule="evenodd" clip-rule="evenodd" d="M290.5 266.5C297.004 272.014 304.171 276.68 312 280.5C312.678 286.97 309.845 288.97 303.5 286.5C298.059 286.031 293.225 284.031 289 280.5C288.674 284.53 288.674 288.53 289 292.5C286.562 300.709 283.562 308.709 280 316.5C276.603 321.617 272.103 325.45 266.5 328C252.026 331.866 238.859 329.366 227 320.5C220.901 308.529 218.901 295.862 221 282.5C226.456 263.355 238.956 255.188 258.5 258C268.932 261.716 279.599 264.549 290.5 266.5Z" fill="#030303"/>
<path fill-rule="evenodd" clip-rule="evenodd" d="M358.5 260.5C358.998 265.152 359.331 269.819 359.5 274.5C354.228 272.576 348.895 270.742 343.5 269C340.14 266.571 339.807 263.905 342.5 261C347.823 260.501 353.156 260.334 358.5 260.5Z" fill="#332F2B"/>
<path fill-rule="evenodd" clip-rule="evenodd" d="M105.5 300.5C102.687 302.529 99.6873 302.863 96.5003 301.5C95.3413 297.878 95.1753 294.211 96.0003 290.5C101.071 282.594 107.571 276.261 115.5 271.5C121.145 269.012 126.812 266.512 132.5 264C143.093 261.078 153.759 261.078 164.5 264C173.287 266.115 178.12 271.615 179 280.5C186.451 288.604 188.451 297.938 185 308.5C181.748 313.334 178.748 318.334 176 323.5C172.833 326 169.667 328.5 166.5 331C149.167 339.778 134.667 336.612 123 321.5C121.381 316.635 119.381 311.968 117 307.5C116.529 301.462 116.529 295.462 117 289.5C113.271 293.398 109.438 297.065 105.5 300.5Z" fill="#040404"/>
<path fill-rule="evenodd" clip-rule="evenodd" d="M239.5 267.5C244.447 266.628 248.613 267.961 252 271.5C252.464 277.529 252.131 283.529 251 289.5C246.483 294.745 240.983 295.912 234.5 293C233.091 289.918 231.258 287.085 229 284.5C228.159 280.88 228.826 277.546 231 274.5C234.364 272.745 237.198 270.412 239.5 267.5Z" fill="#F5F5F5"/>
<path fill-rule="evenodd" clip-rule="evenodd" d="M56.5 267.5C62.1445 268.127 67.8112 268.627 73.5 269C76.1235 271.559 75.7902 273.892 72.5 276C67.1623 277.234 61.829 278.401 56.5 279.5C56.5 275.5 56.5 271.5 56.5 267.5Z" fill="#2A2B2C"/>
<path fill-rule="evenodd" clip-rule="evenodd" d="M159.5 273.5C168.04 273.557 172.374 277.89 172.5 286.5C171.527 294.784 167.194 300.451 159.5 303.5C147.573 297.818 145.406 289.485 153 278.5C154.965 276.45 157.132 274.783 159.5 273.5Z" fill="#F6F6F6"/>
<path fill-rule="evenodd" clip-rule="evenodd" d="M359.5 282.5C359.693 286.566 359.36 290.566 358.5 294.5C349.73 294.755 341.064 293.921 332.5 292C330.695 291.028 329.028 289.861 327.5 288.5C326.253 286.958 326.253 285.458 327.5 284C338.146 283.02 348.813 282.52 359.5 282.5Z" fill="#302E2C"/>
<path fill-rule="evenodd" clip-rule="evenodd" d="M57.5 286.5C66.1151 287.758 74.7817 288.592 83.5 289C85.6983 290.67 86.0317 292.67 84.5 295C75.7729 298.566 66.7729 299.399 57.5 297.5C57.5 293.833 57.5 290.167 57.5 286.5Z" fill="#302C2B"/>
<path fill-rule="evenodd" clip-rule="evenodd" d="M444.5 322.5C443.45 312.568 439.783 303.735 433.5 296C430.763 294.924 428.096 293.757 425.5 292.5C430.152 288.248 435.486 287.414 441.5 290C444.361 292.894 446.861 296.061 449 299.5C448.972 304.817 448.639 310.15 448 315.5C447.102 318.069 445.935 320.402 444.5 322.5Z" fill="#F7F7F6"/>
<path fill-rule="evenodd" clip-rule="evenodd" d="M425.5 292.5C428.096 293.757 430.763 294.924 433.5 296C439.783 303.735 443.45 312.568 444.5 322.5C443.833 323.833 442.833 324.833 441.5 325.5C439.774 325.815 438.107 325.981 436.5 326C432.584 318.917 426.917 313.751 419.5 310.5C418.113 308.79 416.779 307.123 415.5 305.5C418.099 300.572 421.432 296.239 425.5 292.5Z" fill="#2E2B2D"/>
<path fill-rule="evenodd" clip-rule="evenodd" d="M415.5 305.5C416.779 307.123 418.113 308.79 419.5 310.5C426.917 313.751 432.584 318.917 436.5 326C438.107 325.981 439.774 325.815 441.5 325.5C437.783 331.55 432.783 336.217 426.5 339.5C422.365 329.594 416.031 321.261 407.5 314.5C410.195 311.474 412.862 308.474 415.5 305.5Z" fill="#F5821D"/>
<path fill-rule="evenodd" clip-rule="evenodd" d="M407.5 314.5C416.031 321.261 422.365 329.594 426.5 339.5C424.469 341.522 422.135 343.189 419.5 344.5C412.725 336.725 406.725 328.392 401.5 319.5C403.475 317.863 405.475 316.196 407.5 314.5Z" fill="#302D2C"/>
<path fill-rule="evenodd" clip-rule="evenodd" d="M395.5 323.5C400.308 332.199 402.975 341.533 403.5 351.5C401.574 353.293 399.241 354.293 396.5 354.5C394.033 346.953 390.866 339.62 387 332.5C386.505 330.527 386.338 328.527 386.5 326.5C389.402 325.216 392.402 324.216 395.5 323.5Z" fill="#2E2D2C"/>
<path fill-rule="evenodd" clip-rule="evenodd" d="M374.5 329.5C378.483 338.843 379.483 348.51 377.5 358.5C373.629 358.815 369.962 358.482 366.5 357.5C369.188 348.265 367.855 339.598 362.5 331.5C366.557 331.152 370.557 330.486 374.5 329.5Z" fill="#302D2B"/>
<path fill-rule="evenodd" clip-rule="evenodd" d="M386.5 326.5C386.338 328.527 386.505 330.527 387 332.5C390.866 339.62 394.033 346.953 396.5 354.5C390.602 357.347 384.269 358.681 377.5 358.5C379.483 348.51 378.483 338.843 374.5 329.5C378.5 328.5 382.5 327.5 386.5 326.5Z" fill="#F8831D"/>
<path fill-rule="evenodd" clip-rule="evenodd" d="M401.5 319.5C406.725 328.392 412.725 336.725 419.5 344.5C414.364 347.404 409.031 349.737 403.5 351.5C402.975 341.533 400.308 332.199 395.5 323.5C397.118 321.684 399.118 320.351 401.5 319.5Z" fill="#F7831D"/>
<path fill-rule="evenodd" clip-rule="evenodd" d="M223.5 335.5C225.527 335.338 227.527 335.505 229.5 336C230.894 336.956 231.561 338.289 231.5 340C228.972 346.729 224.972 352.396 219.5 357C215.428 357.658 211.428 357.325 207.5 356C203.167 353.295 198.667 351.128 194 349.5C192.643 344.874 194.309 342.207 199 341.5C204.321 343.076 209.488 345.076 214.5 347.5C217.984 343.866 220.984 339.866 223.5 335.5Z" fill="#090909"/>
<path fill-rule="evenodd" clip-rule="evenodd" d="M357.5 331.5C359.167 331.5 360.833 331.5 362.5 331.5C367.855 339.598 369.188 348.265 366.5 357.5C360.797 357.625 355.13 357.292 349.5 356.5C353.366 348.567 356.033 340.234 357.5 331.5Z" fill="#F5831D"/>
<path fill-rule="evenodd" clip-rule="evenodd" d="M348.5 330.5C351.57 330.368 354.57 330.701 357.5 331.5C356.033 340.234 353.366 348.567 349.5 356.5C345.167 357.833 340.833 357.833 336.5 356.5C341.543 348.408 345.543 339.741 348.5 330.5Z" fill="#2E2D2C"/>
</svg>
