<svg width="500" height="500" viewBox="0 0 500 500" fill="none" xmlns="http://www.w3.org/2000/svg">
<path fill-rule="evenodd" clip-rule="evenodd" d="M264 272.062C249.314 271.852 234.647 272.192 220 273.062C216.002 250.732 212.002 228.402 208 206.062C197.045 207.532 186.045 208.532 175 209.062C153.746 209.812 135.579 202.812 120.5 188.062C103.652 168.522 91.9854 146.182 85.4996 121.062C83.6977 111.122 83.031 101.122 83.4996 91.0616C86.392 85.1716 90.892 81.0016 96.9996 78.5616C110.467 73.5116 124.133 72.8416 138 76.5616C154.197 79.9916 168.864 86.6616 182 96.5616C194.156 105.802 206.489 114.802 219 123.562C226.289 129.842 232.456 137.012 237.5 145.062C242.569 128.242 246.902 111.242 250.5 94.0616C268.737 46.8516 303.237 21.3516 354 17.5616C373.947 15.1616 393.281 17.4916 412 24.5616C416.34 26.9116 418.007 30.5816 417 35.5616C418.211 68.5016 415.044 101.002 407.5 133.062C402.195 148.352 393.862 161.682 382.5 173.062C346.853 210.722 303.353 225.222 252 216.562C254.035 221.192 255.535 226.022 256.5 231.062C259.005 244.762 261.505 258.432 264 272.062Z" fill="#8AC249"/>
<path fill-rule="evenodd" clip-rule="evenodd" d="M384 24.0618C396.622 23.3118 401.122 28.9818 397.5 41.0618C385.028 49.8618 375.028 60.8618 367.5 74.0618C362.135 79.7618 356.469 85.0918 350.5 90.0618C342.657 101.912 333.324 112.582 322.5 122.062C313.465 136.762 301.965 149.262 288 159.562C282.5 165.732 277 171.892 271.5 178.062C265.104 187.462 259.104 197.132 253.5 207.062C247.219 211.272 241.219 210.942 235.5 206.062C231.298 208.582 227.131 208.422 223 205.562C208.949 194.512 194.615 183.842 180 173.562C171.374 168.752 162.374 164.752 153 161.562C147.377 157.612 142.043 153.272 137 148.562C129.754 144.702 122.421 141.032 115 137.562C102.549 127.502 93.3822 115.002 87.5003 100.062C86.9822 92.2318 90.6489 87.5718 98.5003 86.0618C102.344 86.2318 105.344 87.9018 107.5 91.0618C112.157 101.542 118.657 110.712 127 118.562C140.662 123.722 152.662 131.392 163 141.562C172.25 144.982 181.25 148.982 190 153.562C206.398 164.622 222.232 176.462 237.5 189.062C253.194 164.352 272.194 142.352 294.5 123.062C302.445 111.292 311.612 100.622 322 91.0618C326.308 84.9218 330.808 78.9218 335.5 73.0618C346.68 64.5518 355.68 54.2218 362.5 42.0618C368.688 34.6918 375.855 28.6918 384 24.0618Z" fill="#7DBF4A"/>
<path fill-rule="evenodd" clip-rule="evenodd" d="M332.5 304.061C314.628 282.931 291.795 272.261 264 272.061C249.314 271.851 234.647 272.191 220 273.061C216.932 273.111 213.932 273.611 211 274.561C198.666 279.571 187.333 286.231 177 294.561C157.634 309.441 145.468 328.941 140.5 353.061C138.263 362.171 138.596 371.171 141.5 380.061C143.983 385.221 146.483 390.381 149 395.561C147.523 398.891 146.689 402.391 146.5 406.061C145.475 415.021 145.975 423.851 148 432.561C145.208 435.349 142.399 438.16 139.573 440.988L138.5 442.061C137.388 443.951 136.554 445.951 136 448.061C136.273 450.831 137.773 452.501 140.5 453.061C145.774 452.141 150.274 449.811 154 446.061C156.19 448.081 158.523 449.921 161 451.561C163.599 452.331 166.099 452.161 168.5 451.061C169.167 448.061 169.167 445.061 168.5 442.061C165.694 436.741 162.194 432.071 158 428.061C158.593 421.401 159.26 414.731 160 408.061C167.642 414.871 175.975 420.701 185 425.561C193.57 428.371 202.237 430.871 211 433.061C213.588 445.231 214.588 457.561 214 470.061C209.323 470.391 204.656 470.891 200 471.561C193.958 473.171 192.625 476.501 196 481.561C212.506 487.971 223.006 482.811 227.5 466.061C227.422 455.741 227.256 445.411 227 435.061C244.231 437.131 261.064 435.471 277.5 430.061C279.257 442.891 280.257 455.891 280.5 469.061C280.79 471.511 281.456 473.851 282.5 476.061C286.858 481.081 292.358 483.241 299 482.561C302.211 481.411 305.544 480.741 309 480.561C310.083 479.476 311.167 478.394 312.25 477.311C313.333 476.229 314.417 475.146 315.5 474.061C316.159 471.211 314.992 469.541 312 469.061C305.828 469.211 299.495 469.211 293 469.061C294.942 455.801 295.442 442.471 294.5 429.061L293 426.061C303.816 420.571 313.816 413.901 323 406.061C324.204 411.521 325.204 417.021 326 422.561C322.556 425.001 319.389 427.831 316.5 431.061C314.823 436.211 316.656 439.211 322 440.061C326.049 439.201 329.716 437.531 333 435.061C335.37 439.001 338.87 441.331 343.5 442.061C346.571 441.821 348.071 440.161 348 437.061C346.176 432.231 343.51 427.901 340 424.061C338.834 412.741 338.668 401.411 339.5 390.061C343.636 384.351 346.636 378.011 348.5 371.061C353.916 356.901 352.916 343.232 345.5 330.062C342.325 322.542 336.992 310.881 332.5 304.061ZM345.5 330.062C345.5 330.062 343.667 326.561 343.5 327.061C336.732 323.291 330.232 319.121 324 314.561C314.924 312.191 305.924 309.521 297 306.561C292.045 305.341 287.045 305.011 282 305.561C280.333 306.561 278.667 307.561 277 308.561C275.333 309.561 273.667 310.561 272 311.561C262.271 323.541 259.437 337.041 263.5 352.061C265.232 360.121 270.065 365.291 278 367.561C281.57 368.871 285.237 369.701 289 370.061C289.763 370.831 290.763 371.331 292 371.561C284.842 376.051 284.342 381.211 290.5 387.061C291.714 388.611 293.214 389.781 295 390.561C307.069 393.021 315.736 388.861 321 378.061C320.652 375.861 319.652 374.031 318 372.561C313.316 370.731 308.649 369.231 304 368.061C308.16 365.891 311.66 362.891 314.5 359.061C318.262 352.461 321.262 345.461 323.5 338.061C323.313 334.671 323.479 331.341 324 328.061C329.714 332.491 336.047 334.491 343 334.061C344.084 332.891 344.917 331.562 345.5 330.062Z" fill="#FCFCFC"/>
<path d="M343.5 327.061C336.732 323.291 330.232 319.121 324 314.561C314.924 312.191 305.924 309.521 297 306.561C292.045 305.341 287.045 305.011 282 305.561L277 308.561L272 311.561C262.271 323.541 259.437 337.041 263.5 352.061C265.232 360.121 270.065 365.291 278 367.561C281.57 368.871 285.237 369.701 289 370.061C289.763 370.831 290.763 371.331 292 371.561C284.842 376.051 284.342 381.211 290.5 387.061C291.714 388.611 293.214 389.781 295 390.561C307.069 393.021 315.736 388.861 321 378.061C320.652 375.861 319.652 374.031 318 372.561C313.316 370.731 308.649 369.231 304 368.061C308.16 365.891 311.66 362.891 314.5 359.061C318.262 352.461 321.262 345.461 323.5 338.061C323.313 334.671 323.479 331.341 324 328.061C329.714 332.491 336.047 334.491 343 334.061C344.084 332.891 344.917 331.562 345.5 330.062C345.5 330.062 343.667 326.561 343.5 327.061Z" fill="#050505"/>
<path fill-rule="evenodd" clip-rule="evenodd" d="M204.999 371.062C197.59 371.942 190.59 370.772 183.999 367.562C181.796 365.192 179.462 363.022 176.999 361.062C170.996 351.552 168.83 341.212 170.499 330.062C167.034 332.522 163.868 335.362 160.999 338.562C152.308 342.122 149.141 339.282 151.499 330.062C163.064 315.352 178.231 307.352 196.999 306.062C205.936 306.142 214.27 308.312 221.999 312.562C225.211 315.292 226.711 318.792 226.499 323.062C231.155 329.352 233.155 336.352 232.499 344.062C228.086 357.972 218.919 366.972 204.999 371.062Z" fill="#050505"/>
<path fill-rule="evenodd" clip-rule="evenodd" d="M281 314.061C285.78 313.201 289.28 314.871 291.5 319.061C291.791 324.161 291.125 329.161 289.5 334.061C285.379 338.381 280.545 339.211 275 336.561C273.93 333.821 272.43 331.321 270.5 329.061C269.757 325.781 270.424 322.781 272.5 320.061C275.791 318.591 278.625 316.591 281 314.061Z" fill="#F5F5F5"/>
<path fill-rule="evenodd" clip-rule="evenodd" d="M207.999 317.062C215.583 316.482 219.583 319.982 219.999 327.562C219.215 335.332 215.215 340.492 207.999 343.062C200.73 340.192 197.897 334.862 199.499 327.062C200.918 325.222 202.085 323.222 202.999 321.062C204.709 319.672 206.376 318.342 207.999 317.062Z" fill="#F7F7F7"/>
<path fill-rule="evenodd" clip-rule="evenodd" d="M177 361.062C179.463 363.022 181.797 365.192 184 367.562C190.591 370.772 197.591 371.942 205 371.062C202.552 372.032 199.885 372.372 197 372.062C198.163 379.112 195.496 383.952 189 386.562C181.165 387.962 173.831 386.632 167 382.562C163.352 378.772 161.852 374.272 162.5 369.062C166.94 365.542 171.773 362.872 177 361.062Z" fill="#FCE6E6"/>
<path fill-rule="evenodd" clip-rule="evenodd" d="M304 368.062C308.649 369.232 313.316 370.732 318 372.562C319.652 374.032 320.652 375.862 321 378.062C315.736 388.862 307.069 393.022 295 390.562C293.214 389.782 291.714 388.612 290.5 387.062C284.342 381.212 284.842 376.052 292 371.562C290.763 371.332 289.763 370.832 289 370.062C291.693 370.132 294.36 370.462 297 371.062C299.546 370.502 301.879 369.502 304 368.062Z" fill="#FDE7E7"/>
<path fill-rule="evenodd" clip-rule="evenodd" d="M264 373.061C267.723 372.781 270.056 374.451 271 378.061C268.682 383.841 265.015 388.671 260 392.561C257 393.231 254 393.231 251 392.561C246.786 390.291 242.453 388.291 238 386.561C234.913 381.791 236.246 378.951 242 378.061C245.4 379.261 248.734 380.761 252 382.561C253.667 383.231 255.333 383.231 257 382.561C259.465 379.451 261.798 376.291 264 373.061Z" fill="#0D0D0D"/>
</svg>
