<svg width="500" height="500" viewBox="0 0 500 500" fill="none" xmlns="http://www.w3.org/2000/svg">
<path fill-rule="evenodd" clip-rule="evenodd" d="M291 67.3952C293.234 68.5277 295.568 69.4442 298 70.1452C303.297 73.6212 306.379 78.5377 307.25 84.8952C307.583 88.5617 307.583 92.2287 307.25 95.8952C304.723 100.255 301.64 104.172 298 107.645C294.599 109.702 291.099 109.869 287.5 108.145C286.693 107.082 285.693 106.332 284.5 105.895C284.039 103.409 283.956 100.909 284.25 98.3952C285.138 97.1157 285.888 95.7822 286.5 94.3952C289.866 93.0337 290.866 90.7002 289.5 87.3952C289.146 86.9432 288.646 86.7767 288 86.8952C287.648 85.9732 286.982 85.7232 286 86.1452C284.321 86.6612 282.988 87.5777 282 88.8952C281.526 89.6342 280.859 90.1342 280 90.3952C276.926 91.0837 274.092 92.2502 271.5 93.8952C271.575 94.4212 271.492 94.9212 271.25 95.3952C267.933 99.0217 264.85 102.855 262 106.895C260.832 107.647 259.915 108.647 259.25 109.895C257.6 112.885 255.933 115.885 254.25 118.895C253.077 120.739 252.327 122.739 252 124.895C252 125.062 252 125.229 252 125.395C251.533 125.929 251.366 126.596 251.5 127.395C252 127.395 252.5 127.395 253 127.395C255.573 128.866 258.24 129.699 261 129.895C261.333 129.895 261.5 130.062 261.5 130.395C262.896 132.205 264.729 133.289 267 133.645C277.526 141.672 288.193 149.505 299 157.145C304.957 162.832 309.874 169.248 313.75 176.395C317.216 184.576 320.383 192.909 323.25 201.395C325.692 210.575 327.359 219.909 328.25 229.395C328.333 232.479 328.417 235.562 328.5 238.645C328.417 244.969 327.75 251.219 326.5 257.395C325.285 261.376 323.951 265.376 322.5 269.395C322.917 269.562 323.333 269.729 323.75 269.895C331.288 268.75 338.872 268.083 346.5 267.895C351.845 267.806 357.179 267.973 362.5 268.395C372.554 269.88 380.804 274.547 387.25 282.395C389.351 285.611 391.434 288.778 393.5 291.895C396.356 297.878 398.773 304.045 400.75 310.395C402.143 314.277 402.727 318.277 402.5 322.395C402.294 328.057 401.21 333.557 399.25 338.895C397.255 342.302 395.171 345.636 393 348.895C385.188 357.179 375.771 362.845 364.75 365.895C364.417 368.895 364.417 371.895 364.75 374.895C365.758 377.616 366.259 380.449 366.25 383.395C367.95 383.915 369.7 384.248 371.5 384.395C373 385.562 374.334 386.895 375.5 388.395C375.676 390.41 375.342 392.326 374.5 394.145C373.247 395.731 371.997 397.314 370.75 398.895C368.898 399.754 366.98 400.421 365 400.895C362.22 400.28 359.386 399.863 356.5 399.645C355.711 399.098 354.877 398.681 354 398.395C351.701 395.907 350.451 392.907 350.25 389.395C349.402 382.253 348.903 375.087 348.75 367.895C344.369 367.497 339.952 367.497 335.5 367.895C335.583 373.898 335.5 379.898 335.25 385.895C334.161 388.443 333.745 391.109 334 393.895C333.291 394.739 332.624 395.655 332 396.645C330.801 397.407 329.635 398.157 328.5 398.895C326.7 399.455 324.867 400.039 323 400.645C319.808 401.021 316.641 400.937 313.5 400.395C309.198 397.519 308.281 393.685 310.75 388.895C313.263 386.388 316.263 384.722 319.75 383.895C320.29 379.654 320.706 375.404 321 371.145C320.833 369.395 320.667 367.645 320.5 365.895C318.03 364.961 315.53 364.128 313 363.395C312.16 363.503 311.661 363.169 311.5 362.395C310.09 361.273 308.59 360.273 307 359.395C306.294 358.188 305.294 357.355 304 356.895C303.032 355.176 301.782 353.676 300.25 352.395C297.803 354.062 295.219 355.395 292.5 356.395C292 356.395 291.5 356.395 291 356.395C291 357.895 291 359.395 291 360.895C290.502 367.473 290.336 374.14 290.5 380.895C292.166 380.895 293.834 380.895 295.5 380.895C297.724 381.454 299.558 382.621 301 384.395C302.238 386.813 302.321 389.313 301.25 391.895C299.936 393.25 298.52 394.417 297 395.395C290.969 397.601 285.135 397.184 279.5 394.145C278.145 392.831 276.978 391.415 276 389.895C275.996 383.498 275.664 377.165 275 370.895C275 368.395 275 365.895 275 363.395C275 362.895 275 362.395 275 361.895C272.681 361.498 270.347 361.165 268 360.895C267.035 360.915 266.119 361.082 265.25 361.395C264.627 364.54 264.127 367.706 263.75 370.895C263.648 377.926 263.148 384.926 262.25 391.895C261.666 393.145 260.75 394.062 259.5 394.645C255.324 394.504 251.157 394.587 247 394.895C244.125 394.496 241.292 393.996 238.5 393.395C235.385 390.306 234.635 386.64 236.25 382.395C237.924 380.389 240.007 378.973 242.5 378.145C242.94 377.791 243.273 377.374 243.5 376.895C244.834 376.895 246.166 376.895 247.5 376.895C247.778 372.734 247.944 368.567 248 364.395C248.575 361.987 248.658 359.487 248.25 356.895C246.227 356.222 244.311 355.305 242.5 354.145C241.38 353.657 240.214 353.407 239 353.395C237.574 351.715 235.824 350.548 233.75 349.895C225.283 352.474 216.7 353.974 208 354.395C201.498 354.479 194.998 354.395 188.5 354.145C184.437 353.683 180.437 352.933 176.5 351.895C174.695 351.294 172.862 350.794 171 350.395C162.936 349.513 155.269 347.263 148 343.645C146.666 343.362 145.333 343.112 144 342.895C142.12 342.037 140.286 341.037 138.5 339.895C135.5 337.895 132.5 335.895 129.5 333.895C126.375 332.108 123.375 330.108 120.5 327.895C117.171 323.899 113.671 320.066 110 316.395C108.913 314.219 107.58 312.219 106 310.395C103.539 306.677 100.955 303.011 98.25 299.395C96.486 296.198 94.736 293.031 93 289.895C91.971 287.183 90.971 284.516 90 281.895C88.7235 277.54 87.557 273.206 86.5 268.895C86.0655 261.001 85.232 253.167 84 245.395C86.6645 214.427 98.081 187.427 118.25 164.395C125.806 155.733 134.306 148.233 143.75 141.895C144.083 140.729 144.083 139.562 143.75 138.395C143.044 134.233 141.878 130.233 140.25 126.395C140.288 121.622 139.621 116.955 138.25 112.395C136.075 107.38 133.908 102.38 131.75 97.3952C130.807 96.0242 129.557 95.1907 128 94.8952C126.955 93.9502 125.788 93.1167 124.5 92.3952C123.541 92.5222 122.875 93.0222 122.5 93.8952C122.5 94.2287 122.333 94.3952 122 94.3952C121.095 94.4312 120.428 94.8477 120 95.6452C120.558 97.6577 121.308 99.5742 122.25 101.395C122.583 103.229 122.583 105.062 122.25 106.895C120.056 112.106 116.14 114.022 110.5 112.645C105.944 111.423 103.028 108.506 101.75 103.895C101.417 100.062 101.417 96.2287 101.75 92.3952C103.825 85.3117 107.575 79.2282 113 74.1452C118.821 70.2382 124.821 69.9047 131 73.1452C131.834 73.9787 132.666 74.8117 133.5 75.6452C139.583 77.7287 143.667 81.8117 145.75 87.8952C151.091 93.8047 154.508 100.638 156 108.395C156.333 108.395 156.5 108.562 156.5 108.895C156.181 109.194 156.014 109.61 156 110.145C156.254 112.313 156.588 114.396 157 116.395C156.957 119.774 157.623 122.941 159 125.895C159.262 126.798 159.595 127.631 160 128.395C160 128.729 160 129.062 160 129.395C159.85 130.767 160.434 131.601 161.75 131.895C173.323 129.066 184.741 125.899 196 122.395C198.66 122.015 201.326 121.682 204 121.395C213.982 120.302 223.982 120.136 234 120.895C234.625 120.857 235.042 120.523 235.25 119.895C237.007 112.714 240.34 106.38 245.25 100.895C246.822 97.4172 248.655 94.0837 250.75 90.8952C256.181 85.6307 261.431 80.2137 266.5 74.6452C270.357 72.2667 274.357 70.1832 278.5 68.3952C282.582 66.9702 286.749 66.6367 291 67.3952Z" fill="#2B2B2B"/>
<path fill-rule="evenodd" clip-rule="evenodd" d="M128.25 94.75C126.476 94.149 124.643 93.8155 122.75 93.75C123.125 92.877 123.791 92.377 124.75 92.25C126.038 92.9715 127.205 93.805 128.25 94.75Z" fill="#848E5B"/>
<path fill-rule="evenodd" clip-rule="evenodd" d="M128.25 94.75C129.807 95.0455 131.057 95.879 132 97.25C134.158 102.235 136.325 107.235 138.5 112.25C139.871 116.81 140.538 121.477 140.5 126.25C142.128 130.088 143.294 134.088 144 138.25C144.334 139.416 144.334 140.584 144 141.75C134.556 148.088 126.056 155.588 118.5 164.25C98.3311 187.282 86.9146 214.282 84.2501 245.25C85.4821 253.022 86.3156 260.856 86.7501 268.75C86.5836 269.083 86.4166 269.417 86.2501 269.75C85.8661 269.368 85.6161 268.868 85.5001 268.25C84.8331 262.22 84.1666 256.22 83.5001 250.25C83.2131 242.163 83.8796 234.163 85.5001 226.25C92.5706 196.086 107.821 170.586 131.25 149.75C134.842 147.05 138.509 144.467 142.25 142C142.63 141.28 142.963 140.53 143.25 139.75C140.625 130.605 138.625 121.271 137.25 111.75C135.042 107.061 132.876 102.394 130.75 97.75C129.705 96.8765 128.872 95.8765 128.25 94.75Z" fill="#2B2B2B"/>
<path fill-rule="evenodd" clip-rule="evenodd" d="M157.25 116.25C157.584 116.75 157.917 117.25 158.25 117.75C158.25 117.917 158.25 118.083 158.25 118.25C158.529 120.758 158.863 123.258 159.25 125.75C157.873 122.796 157.207 119.629 157.25 116.25Z" fill="#2B2B2B"/>
<path fill-rule="evenodd" clip-rule="evenodd" d="M227.75 135.25C232.324 135.078 234.074 137.244 233 141.75C231.128 143.629 228.878 144.213 226.25 143.5C223.957 140.26 224.457 137.51 227.75 135.25Z" fill="#040303"/>
<path fill-rule="evenodd" clip-rule="evenodd" d="M161.25 144.25C166.006 143.597 167.589 145.597 166 150.25C163.59 153.414 160.923 153.581 158 150.75C157.235 147.617 158.318 145.451 161.25 144.25Z" fill="#030203"/>
<path fill-rule="evenodd" clip-rule="evenodd" d="M245.25 146.25C248.014 146 250.681 146.334 253.25 147.25C254.15 149.263 253.65 150.846 251.75 152C249.584 152.334 247.417 152.334 245.25 152C242.633 150.062 242.633 148.146 245.25 146.25Z" fill="#724D4D"/>
<path fill-rule="evenodd" clip-rule="evenodd" d="M193.75 151.25C198.087 151.167 202.42 151.25 206.75 151.5C208.648 152.032 209.231 153.282 208.5 155.25C207.755 156.002 206.838 156.419 205.75 156.5C201.917 156.667 198.084 156.834 194.25 157C191.917 158.376 189.417 158.876 186.75 158.5C185.757 157.265 185.507 155.849 186 154.25C187.915 153.118 189.999 152.534 192.25 152.5C192.786 152.074 193.286 151.658 193.75 151.25Z" fill="#030203"/>
<path fill-rule="evenodd" clip-rule="evenodd" d="M144.25 156.25C146.468 156.105 148.635 156.355 150.75 157C151.917 159.646 151.084 161.312 148.25 162C145.729 163.183 143.229 163.266 140.75 162.25C139.467 158.67 140.634 156.67 144.25 156.25Z" fill="#754D4E"/>
<path fill-rule="evenodd" clip-rule="evenodd" d="M184.25 205.75C192.089 205.725 199.922 205.892 207.75 206.25C214.043 207.242 220.377 207.908 226.75 208.25C230.364 208.983 233.864 210.066 237.25 211.5C238.573 211.749 239.906 211.832 241.25 211.75C242.217 212.075 243.217 212.242 244.25 212.25C247.72 213.505 251.053 215.005 254.25 216.75C256.051 217.82 257.885 218.904 259.75 220C256.424 219.888 253.091 219.638 249.75 219.25C249.583 219.25 249.417 219.25 249.25 219.25C244.004 218.671 238.67 218.588 233.25 219C232.81 219.354 232.477 219.771 232.25 220.25C231.754 220.164 231.421 220.331 231.25 220.75C229.88 221.22 228.879 222.137 228.25 223.5C226.406 223.598 225.239 224.515 224.75 226.25C222.081 228.914 220.248 232.081 219.25 235.75C217.679 237.394 216.846 239.394 216.75 241.75C216.121 247.824 216.121 253.824 216.75 259.75C216.858 265.245 218.524 270.078 221.75 274.25C222.176 276.18 223.343 277.513 225.25 278.25C227.433 280.101 229.933 281.268 232.75 281.75C234.689 283.007 236.855 283.673 239.25 283.75C243.466 284.407 247.633 284.407 251.75 283.75C256.037 284.271 259.537 282.937 262.25 279.75C262.417 279.75 262.583 279.75 262.75 279.75C264.541 278.94 266.041 277.774 267.25 276.25C267.75 276.084 268.083 275.75 268.25 275.25C271.01 273.316 272.51 270.649 272.75 267.25C274.686 262.107 276.52 256.94 278.25 251.75C279.584 249.084 279.584 246.417 278.25 243.75C278.019 242.259 277.852 240.759 277.75 239.25C278.842 239.352 279.842 239.685 280.75 240.25C282.503 241.234 284.336 242.151 286.25 243C288.454 245.362 289.955 248.112 290.75 251.25C292.921 257.983 293.254 264.817 291.75 271.75C291.583 272.417 291.417 273.084 291.25 273.75C290.388 275.501 289.722 277.334 289.25 279.25C287.549 280.961 286.216 282.961 285.25 285.25C283.346 287.061 281.679 289.061 280.25 291.25C273.505 296.456 266.172 300.623 258.25 303.75C254.68 304.467 251.18 305.551 247.75 307C238.187 308.262 228.604 309.512 219 310.75C217.984 310.747 217.067 310.581 216.25 310.25C216.25 309.917 216.417 309.75 216.75 309.75C220.333 308.168 222.666 305.501 223.75 301.75C226.548 299.2 227.798 296.033 227.5 292.25C227.289 291.287 226.706 290.787 225.75 290.75C225.116 289.807 224.199 289.307 223 289.25C221.769 289.58 220.519 289.747 219.25 289.75C217.483 293.062 215.816 296.395 214.25 299.75C212.922 300.703 211.422 300.953 209.75 300.5C207.077 299.47 204.577 298.22 202.25 296.75C199.862 295.763 197.362 295.596 194.75 296.25C192.38 298.682 192.214 301.182 194.25 303.75C197.737 305.171 201.237 306.671 204.75 308.25C206.026 308.944 207.193 309.86 208.25 311C201.755 310.959 195.255 310.876 188.75 310.75C186.75 310.584 184.75 310.417 182.75 310.25C178.866 309.27 174.866 308.603 170.75 308.25C168.76 307.99 166.76 307.823 164.75 307.75C160.057 306.382 155.224 305.382 150.25 304.75C148.383 303.795 146.384 303.128 144.25 302.75C139.484 301.701 135.317 299.617 131.75 296.5C130.194 296.278 128.862 295.612 127.75 294.5C121.756 288.603 117.09 281.853 113.75 274.25C112.924 270.277 112.257 266.277 111.75 262.25C114.422 260.078 116.755 257.578 118.75 254.75C120.207 254.047 121.457 253.047 122.5 251.75C122.273 256.573 122.273 261.406 122.5 266.25C122.616 266.869 122.866 267.369 123.25 267.75C123.417 267.75 123.583 267.75 123.75 267.75C123.671 268.437 123.755 269.104 124 269.75C125.5 272.194 126.75 274.694 127.75 277.25C128.975 279.942 130.641 282.359 132.75 284.5C135.059 285.975 137.226 287.642 139.25 289.5C140.875 289.86 142.375 290.444 143.75 291.25C147.218 292.282 150.718 292.448 154.25 291.75C154.417 291.75 154.583 291.75 154.75 291.75C157.546 291.134 160.379 290.717 163.25 290.5C163.528 290.309 163.694 290.059 163.75 289.75C164.437 289.829 165.104 289.745 165.75 289.5C167.875 288.028 169.875 286.444 171.75 284.75C172.798 283.797 173.965 282.88 175.25 282C176.219 280.965 177.052 279.881 177.75 278.75C178.25 278.75 178.75 278.75 179.25 278.75C179.82 277.498 180.153 276.165 180.25 274.75C181.605 272.526 182.771 270.193 183.75 267.75C183.714 266.987 184.047 266.487 184.75 266.25C185.395 265.971 185.811 265.471 186 264.75C186.953 260.422 186.953 256.089 186 251.75C185.574 251.215 185.157 250.715 184.75 250.25C182.946 247.114 180.946 244.114 178.75 241.25C177.988 239.361 177.572 237.361 177.5 235.25C177.309 234.972 177.058 234.806 176.75 234.75C176.109 233.566 175.275 232.483 174.25 231.5C172.052 230.237 169.885 228.987 167.75 227.75C164.895 226.68 161.895 226.013 158.75 225.75C152.142 224.401 145.475 224.484 138.75 226C137.969 226.38 137.469 226.963 137.25 227.75C137.083 227.75 136.917 227.75 136.75 227.75C134.576 227.675 132.743 228.342 131.25 229.75C129.342 230.494 127.51 231.327 125.75 232.25C124.986 232.242 124.736 231.908 125 231.25C127.306 228.937 129.723 226.854 132.25 225C133.383 224.121 134.216 223.038 134.75 221.75C138.208 219.442 141.708 217.275 145.25 215.25C148.999 214.402 152.499 213.068 155.75 211.25C160.241 210.472 164.575 209.306 168.75 207.75C173.924 207.039 179.09 206.373 184.25 205.75Z" fill="#F6F6F6"/>
<path fill-rule="evenodd" clip-rule="evenodd" d="M249.25 219.25C244.081 219.167 238.914 219.25 233.75 219.5C233.378 220.019 232.878 220.269 232.25 220.25C232.477 219.771 232.81 219.354 233.25 219C238.67 218.587 244.004 218.67 249.25 219.25Z" fill="#6E6C6D"/>
<path fill-rule="evenodd" clip-rule="evenodd" d="M249.25 219.25C249.416 219.25 249.583 219.25 249.75 219.25C253.092 220.415 256.592 221.165 260.25 221.5C261.76 222.09 263.26 222.673 264.75 223.25C267.963 224.128 271.296 224.711 274.75 225C277.452 226.179 280.202 227.263 283 228.25C283.166 228.084 283.333 227.917 283.5 227.75C284.416 229 285.333 230.25 286.25 231.5C289.767 233.424 293.433 235.091 297.25 236.5C299.659 238.016 300.326 240.099 299.25 242.75C298.518 243.783 297.518 244.283 296.25 244.25C292.533 243.108 288.699 242.358 284.75 242C283.676 240.896 282.343 240.313 280.75 240.25C279.804 238.914 278.471 238.414 276.75 238.75C276.455 241.345 276.955 243.678 278.25 245.75C278.25 247.75 278.25 249.75 278.25 251.75C276.52 256.94 274.686 262.107 272.75 267.25C271.687 270.15 270.187 272.817 268.25 275.25C268.083 275.75 267.75 276.084 267.25 276.25C265.439 277.066 263.939 278.233 262.75 279.75C262.583 279.75 262.416 279.75 262.25 279.75C260.772 279.991 259.605 280.741 258.75 282C256.388 282.747 254.054 283.331 251.75 283.75C247.632 284.407 243.466 284.407 239.25 283.75C237.193 282.859 235.027 282.192 232.75 281.75C229.933 281.268 227.433 280.101 225.25 278.25C224.069 276.904 222.902 275.571 221.75 274.25C221.114 272.826 220.697 271.326 220.5 269.75C218.361 266.714 217.111 263.38 216.75 259.75C216.12 253.824 216.12 247.824 216.75 241.75C218.114 240.016 218.947 238.016 219.25 235.75C220.247 232.081 222.081 228.914 224.75 226.25C225.778 224.976 227.111 224.226 228.75 224C229.527 222.857 230.36 221.773 231.25 220.75C231.421 220.331 231.754 220.164 232.25 220.25C232.878 220.27 233.378 220.02 233.75 219.5C238.914 219.25 244.08 219.167 249.25 219.25Z" fill="#020202"/>
<path fill-rule="evenodd" clip-rule="evenodd" d="M231.25 220.75C230.36 221.773 229.527 222.857 228.75 224C227.111 224.226 225.778 224.975 224.75 226.25C225.239 224.515 226.406 223.597 228.25 223.5C228.879 222.137 229.88 221.22 231.25 220.75Z" fill="#8A8788"/>
<path fill-rule="evenodd" clip-rule="evenodd" d="M152.75 225.75C157.722 226.493 162.722 227.159 167.75 227.75C169.886 228.987 172.052 230.237 174.25 231.5C175.275 232.483 176.109 233.566 176.75 234.75C177.098 236.726 177.348 238.726 177.5 240.75C177.836 241.126 178.252 241.293 178.75 241.25C180.946 244.114 182.946 247.114 184.75 250.25C186.068 255.587 186.068 260.92 184.75 266.25C184.047 266.487 183.714 266.987 183.75 267.75C181.796 269.659 180.629 271.992 180.25 274.75C179.168 275.911 178.335 277.245 177.75 278.75C177.052 279.881 176.219 280.965 175.25 282C173.966 282.88 172.799 283.797 171.75 284.75C168.911 286.168 166.245 287.835 163.75 289.75C160.583 289.932 157.583 290.599 154.75 291.75C154.584 291.75 154.417 291.75 154.25 291.75C150.745 291.666 147.245 291.5 143.75 291.25C142.376 290.444 140.876 289.86 139.25 289.5C137.226 287.642 135.059 285.975 132.75 284.5C130.642 282.359 128.975 279.942 127.75 277.25C127.184 273.708 125.851 270.541 123.75 267.75C123.584 267.75 123.417 267.75 123.25 267.75C122.541 262.059 122.708 256.393 123.75 250.75C121.641 251.525 119.975 252.859 118.75 254.75C116.104 257.229 113.437 259.729 110.75 262.25C108.135 263.077 105.719 262.744 103.5 261.25C103.167 258.584 103.167 255.917 103.5 253.25C108.609 244.389 115.692 237.722 124.75 233.25C124.921 232.831 125.254 232.664 125.75 232.75C129.669 231.559 133.336 229.892 136.75 227.75C136.917 227.75 137.084 227.75 137.25 227.75C142.263 225.772 147.43 225.105 152.75 225.75Z" fill="#020202"/>
<path fill-rule="evenodd" clip-rule="evenodd" d="M152.75 225.75C154.75 225.75 156.75 225.75 158.75 225.75C161.895 226.013 164.895 226.679 167.75 227.75C162.722 227.159 157.722 226.493 152.75 225.75Z" fill="#383838"/>
<path fill-rule="evenodd" clip-rule="evenodd" d="M235.25 227.75C237.371 227.091 239.537 227.174 241.75 228C242.153 228.556 242.486 229.139 242.75 229.75C241.696 229.304 240.696 228.721 239.75 228C238.259 227.751 236.759 227.667 235.25 227.75Z" fill="#535253"/>
<path fill-rule="evenodd" clip-rule="evenodd" d="M235.25 227.75C236.759 227.667 238.259 227.751 239.75 228C240.696 228.721 241.696 229.304 242.75 229.75C244.112 232.029 244.779 234.529 244.75 237.25C244.042 240.693 243.625 244.193 243.5 247.75C242.417 248.833 241.334 249.916 240.25 251C236.774 251.783 233.274 251.783 229.75 251C229.209 249.656 228.376 248.573 227.25 247.75C227.084 247.75 226.917 247.75 226.75 247.75C222.924 243.539 222.757 239.122 226.25 234.5C229.591 232.593 232.591 230.343 235.25 227.75Z" fill="#F6F6F6"/>
<path fill-rule="evenodd" clip-rule="evenodd" d="M170.25 239.25C169.416 238.583 168.584 237.916 167.75 237.25C167.326 236.517 166.66 236.1 165.75 236C164.056 235.67 162.39 235.754 160.75 236.25C160.806 235.941 160.972 235.691 161.25 235.5C165.458 234.157 168.459 235.407 170.25 239.25Z" fill="#393939"/>
<path fill-rule="evenodd" clip-rule="evenodd" d="M167.75 237.25C168.583 237.916 169.416 238.583 170.25 239.25C170.132 240.613 170.548 241.779 171.5 242.75C171.833 244.916 171.833 247.083 171.5 249.25C170.724 252.181 169.724 255.015 168.5 257.75C165.795 260.429 162.545 261.512 158.75 261C158.011 259.98 157.011 259.564 155.75 259.75C155.656 257.665 154.656 256.331 152.75 255.75C151.983 253.317 151.483 250.817 151.25 248.25C151.164 247.754 151.331 247.421 151.75 247.25C152.064 246.169 152.73 245.336 153.75 244.75C154.565 243.987 154.981 242.987 155 241.75C156.934 240.631 158.351 239.048 159.25 237C162.102 236.656 164.935 236.739 167.75 237.25Z" fill="#F7F7F7"/>
<path fill-rule="evenodd" clip-rule="evenodd" d="M176.75 234.75C177.058 234.806 177.309 234.972 177.5 235.25C177.572 237.361 177.988 239.36 178.75 241.25C178.252 241.293 177.836 241.126 177.5 240.75C177.348 238.726 177.098 236.726 176.75 234.75Z" fill="#5B5B5B"/>
<path fill-rule="evenodd" clip-rule="evenodd" d="M235.25 227.75C232.591 230.343 229.591 232.593 226.25 234.5C222.757 239.122 222.924 243.54 226.75 247.75C225.076 247.158 223.993 245.992 223.5 244.25C222.209 238.251 224.292 234 229.75 231.5C231.121 229.541 232.955 228.291 235.25 227.75Z" fill="#676566"/>
<path fill-rule="evenodd" clip-rule="evenodd" d="M167.75 237.25C164.935 236.739 162.102 236.656 159.25 237C158.351 239.048 156.934 240.631 155 241.75C154.981 242.987 154.565 243.987 153.75 244.75C153.759 243.717 153.925 242.717 154.25 241.75C155.51 239.788 157.01 238.038 158.75 236.5C159.396 236.255 160.063 236.171 160.75 236.25C162.39 235.754 164.056 235.67 165.75 236C166.66 236.1 167.326 236.517 167.75 237.25Z" fill="#C9C9C9"/>
<path fill-rule="evenodd" clip-rule="evenodd" d="M219.25 235.75C218.947 238.016 218.114 240.016 216.75 241.75C216.846 239.394 217.679 237.394 219.25 235.75Z" fill="#7C7C7C"/>
<path fill-rule="evenodd" clip-rule="evenodd" d="M280.75 240.25C279.843 239.685 278.843 239.352 277.75 239.25C277.852 240.759 278.019 242.259 278.25 243.75C278.25 244.416 278.25 245.083 278.25 245.75C276.956 243.677 276.456 241.344 276.75 238.75C278.471 238.414 279.805 238.914 280.75 240.25Z" fill="#464646"/>
<path fill-rule="evenodd" clip-rule="evenodd" d="M154.25 241.75C153.925 242.717 153.758 243.717 153.75 244.75C152.73 245.336 152.064 246.169 151.75 247.25C151.671 246.563 151.755 245.896 152 245.25C152.82 244.08 153.57 242.913 154.25 241.75Z" fill="#7B7B7B"/>
<path fill-rule="evenodd" clip-rule="evenodd" d="M278.25 243.75C279.584 246.417 279.584 249.083 278.25 251.75C278.25 249.75 278.25 247.75 278.25 245.75C278.25 245.084 278.25 244.416 278.25 243.75Z" fill="#939393"/>
<path fill-rule="evenodd" clip-rule="evenodd" d="M242.75 229.75C244.003 230.408 244.919 231.408 245.5 232.75C245.605 237.773 245.271 242.773 244.5 247.75C240.419 252.938 235.336 254.188 229.25 251.5C228.44 250.314 227.773 249.064 227.25 247.75C228.375 248.573 229.209 249.656 229.75 251C233.274 251.783 236.774 251.783 240.25 251C241.334 249.916 242.416 248.834 243.5 247.75C243.625 244.194 244.042 240.694 244.75 237.25C244.779 234.53 244.112 232.03 242.75 229.75Z" fill="#838282"/>
<path fill-rule="evenodd" clip-rule="evenodd" d="M170.25 239.25C172.116 241.074 172.949 243.324 172.75 246C172.959 249.307 172.042 252.224 170 254.75C169.833 255.75 169.667 256.75 169.5 257.75C166.655 261.024 163.071 262.441 158.75 262C157.447 261.604 156.447 260.854 155.75 259.75C157.011 259.564 158.011 259.98 158.75 261C162.546 261.512 165.796 260.43 168.5 257.75C169.724 255.015 170.725 252.181 171.5 249.25C171.833 247.083 171.833 244.917 171.5 242.75C170.549 241.78 170.132 240.613 170.25 239.25Z" fill="#A0A0A0"/>
<path fill-rule="evenodd" clip-rule="evenodd" d="M151.25 248.25C151.483 250.817 151.983 253.317 152.75 255.75C154.656 256.331 155.656 257.665 155.75 259.75C154.588 258.339 153.338 257.005 152 255.75C150.872 253.247 150.622 250.747 151.25 248.25Z" fill="#B6B6B6"/>
<path fill-rule="evenodd" clip-rule="evenodd" d="M184.75 250.25C185.157 250.715 185.574 251.215 186 251.75C186.953 256.089 186.953 260.422 186 264.75C185.811 265.471 185.395 265.971 184.75 266.25C186.068 260.92 186.068 255.587 184.75 250.25Z" fill="#989898"/>
<path fill-rule="evenodd" clip-rule="evenodd" d="M216.75 259.75C217.111 263.38 218.362 266.714 220.5 269.75C220.698 271.326 221.114 272.826 221.75 274.25C218.524 270.078 216.858 265.245 216.75 259.75Z" fill="#6A6A6A"/>
<path fill-rule="evenodd" clip-rule="evenodd" d="M111.75 262.25C112.257 266.277 112.924 270.276 113.75 274.25C112.914 273.829 112.33 273.162 112 272.25C111.826 269.493 111.576 266.743 111.25 264C111.257 263.308 111.424 262.725 111.75 262.25Z" fill="#2B2B2B"/>
<path fill-rule="evenodd" clip-rule="evenodd" d="M123.75 267.75C125.85 270.54 127.184 273.707 127.75 277.25C126.75 274.694 125.5 272.194 124 269.75C123.755 269.104 123.671 268.437 123.75 267.75Z" fill="#545153"/>
<path fill-rule="evenodd" clip-rule="evenodd" d="M183.75 267.75C182.771 270.193 181.605 272.526 180.25 274.75C180.629 271.992 181.796 269.658 183.75 267.75Z" fill="#797979"/>
<path fill-rule="evenodd" clip-rule="evenodd" d="M272.75 267.25C272.51 270.649 271.01 273.316 268.25 275.25C270.188 272.817 271.688 270.15 272.75 267.25Z" fill="#898989"/>
<path fill-rule="evenodd" clip-rule="evenodd" d="M221.75 274.25C222.902 275.571 224.069 276.904 225.25 278.25C223.343 277.513 222.176 276.179 221.75 274.25Z" fill="#979797"/>
<path fill-rule="evenodd" clip-rule="evenodd" d="M267.25 276.25C266.041 277.773 264.541 278.94 262.75 279.75C263.939 278.232 265.439 277.066 267.25 276.25Z" fill="#676767"/>
<path fill-rule="evenodd" clip-rule="evenodd" d="M262.25 279.75C259.537 282.937 256.037 284.271 251.75 283.75C254.055 283.331 256.388 282.747 258.75 282C259.605 280.74 260.773 279.991 262.25 279.75Z" fill="#575757"/>
<path fill-rule="evenodd" clip-rule="evenodd" d="M232.75 281.75C235.027 282.192 237.194 282.859 239.25 283.75C236.855 283.673 234.689 283.007 232.75 281.75Z" fill="#6C6C6C"/>
<path fill-rule="evenodd" clip-rule="evenodd" d="M171.75 284.75C169.875 286.444 167.875 288.028 165.75 289.5C165.104 289.745 164.437 289.829 163.75 289.75C166.244 287.834 168.911 286.168 171.75 284.75Z" fill="#686868"/>
<path fill-rule="evenodd" clip-rule="evenodd" d="M163.75 289.75C163.694 290.058 163.528 290.309 163.25 290.5C160.379 290.717 157.546 291.133 154.75 291.75C157.583 290.599 160.583 289.932 163.75 289.75Z" fill="#595959"/>
<path fill-rule="evenodd" clip-rule="evenodd" d="M225.75 290.75C226.744 292.429 226.994 294.262 226.5 296.25C225.57 298.11 224.654 299.943 223.75 301.75C221.961 304.873 219.628 307.54 216.75 309.75C216.417 309.75 216.25 309.916 216.25 310.25C214.917 310.25 213.584 310.25 212.25 310.25C209.697 309.788 207.197 309.121 204.75 308.25C201.237 306.67 197.737 305.17 194.25 303.75C192.872 297.136 195.538 294.802 202.25 296.75C204.577 298.219 207.077 299.469 209.75 300.5C211.422 300.953 212.922 300.703 214.25 299.75C216.266 297.061 218.099 294.228 219.75 291.25C221.689 290.203 223.689 290.037 225.75 290.75Z" fill="#080808"/>
<path fill-rule="evenodd" clip-rule="evenodd" d="M143.75 291.25C147.245 291.5 150.745 291.666 154.25 291.75C150.718 292.448 147.218 292.281 143.75 291.25Z" fill="#585658"/>
<path fill-rule="evenodd" clip-rule="evenodd" d="M144.25 302.75C146.384 303.128 148.383 303.794 150.25 304.75C149.917 304.75 149.583 304.75 149.25 304.75C147.426 304.366 145.759 303.7 144.25 302.75Z" fill="#9F9E9F"/>
<path fill-rule="evenodd" clip-rule="evenodd" d="M149.25 304.75C149.583 304.75 149.917 304.75 150.25 304.75C155.224 305.382 160.057 306.382 164.75 307.75C161.787 307.629 158.871 307.295 156 306.75C155.72 307.011 155.386 307.178 155 307.25C152.895 306.696 150.977 305.862 149.25 304.75Z" fill="#4E4C4D"/>
<path fill-rule="evenodd" clip-rule="evenodd" d="M170.75 308.25C174.866 308.602 178.866 309.27 182.75 310.25C178.598 310.113 174.599 309.447 170.75 308.25Z" fill="#807E7F"/>
<path fill-rule="evenodd" clip-rule="evenodd" d="M204.75 308.25C207.197 309.121 209.697 309.788 212.25 310.25C213.316 310.657 214.482 310.907 215.75 311C214.482 311.093 213.316 311.343 212.25 311.75C204.91 311.806 197.576 311.639 190.25 311.25C189.604 311.369 189.104 311.202 188.75 310.75C195.255 310.875 201.755 310.959 208.25 311C207.193 309.86 206.026 308.943 204.75 308.25Z" fill="#F6F6F6"/>
<path fill-rule="evenodd" clip-rule="evenodd" d="M190.25 311.25C197.576 311.639 204.91 311.806 212.25 311.75C209.254 312.083 206.171 312.25 203 312.25C198.637 312.355 194.387 312.021 190.25 311.25Z" fill="#6E6D6E"/>
<path d="M154.838 107.611C154.884 107.799 155.071 108.385 155.617 109.395C156.051 110.198 156.608 111.479 156.862 112.051C157.132 112.657 157.326 113.187 157.565 114.856C157.712 115.884 157.814 117.015 157.942 117.902C158.056 118.687 158.24 120.156 158.338 120.962C158.448 121.868 158.59 122.985 158.824 124.56C158.98 125.61 159.104 126.351 159.238 127.379C159.362 128.327 159.641 130.135 159.779 131.127C160.021 132.858 160.247 134.056 160.333 134.38C160.353 134.457 160.4 134.524 160.432 134.523C160.464 134.522 160.486 134.449 160.498 134.365C160.51 134.28 160.51 134.187 160.51 134.091" stroke="#2B2B2B" stroke-width="2" stroke-linecap="round"/>
<path d="M156.017 108.456C156.03 108.535 156.078 108.753 156.161 108.946C156.276 109.212 156.438 109.545 156.844 110.585C156.984 110.946 157.12 111.334 157.216 111.65C157.305 111.94 157.428 112.364 157.532 112.746C157.583 112.931 157.711 113.521 157.923 114.43C158.101 115.192 158.199 115.796 158.302 116.334C158.327 116.467 158.34 116.576 158.407 116.939C158.568 117.81 158.665 118.504 158.689 118.721C158.728 119.084 158.837 119.879 158.891 120.379C158.946 120.883 159.088 121.724 159.122 121.954C159.154 122.176 159.17 122.357 159.239 122.899C159.301 123.397 159.403 124.349 159.463 124.861C159.539 125.515 159.554 125.73 159.663 126.531C159.75 127.168 159.884 128.392 159.958 129.063C160.04 129.817 160.076 130.22 160.144 130.725C160.201 131.143 160.308 131.662 160.365 131.947C160.423 132.237 160.516 132.623 160.623 132.871C160.702 133.056 160.916 133.041 160.998 133.033C161.039 133.029 161.074 132.998 161.094 132.935C161.19 132.632 160.954 132.232 160.785 131.853C160.643 131.535 160.476 131.129 160.376 130.774C160.29 130.468 160.107 129.976 159.943 129.458C159.868 129.205 159.814 129.006 159.75 128.659C159.702 128.409 159.624 128.006 159.524 127.491" stroke="#2B2B2B" stroke-width="2" stroke-linecap="round"/>
<path d="M153.074 99.3911C153.074 99.3994 153.096 99.4708 153.249 99.7251C153.366 99.921 153.619 100.218 153.868 100.64C154.118 101.062 154.37 101.591 154.65 102.306C154.929 103.02 155.228 103.904 155.497 104.939C155.766 105.975 155.995 107.134 156.128 107.771C156.279 108.49 156.325 108.668 156.35 108.941C156.419 109.679 156.533 109.936 156.591 110.285C156.723 111.088 156.789 111.305 156.833 111.483C156.855 111.57 156.902 111.825 157.009 112.266C157.066 112.497 157.131 112.743 157.205 112.986C157.28 113.229 157.363 113.463 157.416 113.612C157.47 113.761 157.49 113.82 157.53 113.912" stroke="#2B2B2B" stroke-width="2" stroke-linecap="round"/>
<path d="M151.536 96.6592C151.538 96.7064 151.568 96.811 151.879 97.2266C152.001 97.3881 152.059 97.5058 152.11 97.5929C152.149 97.6615 152.339 97.9787 152.668 98.5685C152.834 98.8662 152.98 99.1707 153.067 99.342C153.154 99.5132 153.174 99.5446 153.295 99.7615C153.64 100.379 153.877 100.819 153.903 100.875C153.934 100.943 153.988 101.062 154.11 101.396C154.201 101.646 154.354 102.058 154.436 102.287C154.518 102.515 154.525 102.547 154.601 102.778C154.676 103.009 154.821 103.438 154.898 103.676C154.976 103.913 154.983 103.944 155.035 104.097C155.087 104.249 155.185 104.522 155.31 104.87" stroke="#2B2B2B" stroke-width="2" stroke-linecap="round"/>
<path d="M150.788 97.0027C150.798 96.9893 150.806 96.9729 150.831 96.909C150.852 96.8543 150.894 96.7556 150.938 96.6216C150.983 96.4875 151.029 96.3214 151.057 96.2287C151.096 96.0958 151.122 96.0662 151.141 96.0265C151.185 95.9366 151.237 95.9118 151.276 95.8918C151.313 95.8723 151.36 95.851 151.388 95.8426C151.403 95.8381 151.42 95.8441 151.434 95.8514C151.471 95.8697 151.491 95.923 151.518 95.9686C151.543 96.0092 151.591 96.0586 151.707 96.1634C151.741 96.1945 151.779 96.2269 151.854 96.2986C151.93 96.3703 152.041 96.4796 152.108 96.5452C152.218 96.6527 152.236 96.6764 152.305 96.7721C152.34 96.8207 152.386 96.8794 152.436 96.9468C152.517 97.0551 152.549 97.1586 152.566 97.2019C152.608 97.3138 152.646 97.4184 152.668 97.4752C152.687 97.5272 152.71 97.5914 152.728 97.6386C152.732 97.6481 152.735 97.6594 152.779 97.7956C152.824 97.9318 152.91 98.1926 152.955 98.3341C153 98.4757 153.002 98.49 153.004 98.5009C153.006 98.5118 153.009 98.5187 153.011 98.5275" stroke="#2B2B2B" stroke-linecap="round"/>
<path d="M120.851 92.0877C121.13 92.1859 122.072 92.4223 123.124 92.5721C123.69 92.6527 124.333 92.65 124.693 92.6717C125.248 92.705 121.962 92.6067 121.934 92.7211C121.823 93.1877 122.968 93.0756 123.677 93.2283C124.068 93.3127 124.361 93.3811 124.613 93.4402C124.872 93.501 125.21 93.5872 125.49 93.7036C125.716 93.7976 126.005 93.9354 126.293 94.0569C126.331 94.0729 126.024 93.939 125.691 93.8382C125.439 93.7621 124.314 93.7286 123.342 93.6672C123.292 93.664 124.499 93.6026 125.713 93.6545C126.927 93.7064 128.203 93.8441 128.927 93.9355C129.786 94.044 130.37 94.2233 131.193 94.4442C132.38 94.7627 132.84 95.1178 132.882 95.1588C132.89 95.1671 132.793 95.1275 132.118 94.747C131.442 94.3666 130.17 93.6408 129.439 93.2389C128.567 92.7597 128.291 92.6666 127.933 92.5152C126.832 92.0504 126.481 92.0948 126.12 92.0626C125.248 91.9848 124.383 92.2822 123.906 92.4079C123.614 92.4851 123.239 92.5938 122.989 92.7399C122.782 92.8613 122.74 93.0991 122.727 93.2275C122.892 93.4336 123.118 93.5391 123.283 93.588C123.361 93.6076 123.426 93.6166 123.507 93.6395" stroke="#2B2B2B" stroke-linecap="round"/>
<path d="M122.659 93.8883C122.744 93.8808 122.987 93.8654 123.153 93.8689C123.214 93.8702 123.335 93.877 123.621 93.8545C123.809 93.8397 124.082 93.7952 124.286 93.7742C124.491 93.7532 124.618 93.7513 124.748 93.7568C124.878 93.7623 125.007 93.7753 125.224 93.7853C125.442 93.7953 125.744 93.8018 125.99 93.8202C126.236 93.8386 126.417 93.8687 126.741 93.9614C127.065 94.0542 127.525 94.2088 127.774 94.2941C128.05 94.3882 128.141 94.4202 128.248 94.4489C128.328 94.4707 128.385 94.4872 128.412 94.4974C128.416 94.499 128.4 94.4946 128.228 94.4733C128.057 94.452 127.73 94.4143 127.218 94.3595C126.706 94.3046 126.019 94.2337 125.142 94.1905C124.264 94.1473 123.218 94.134 122.555 94.1456C121.893 94.1572 121.646 94.1942 121.391 94.2658C121.135 94.3373 120.877 94.4422 120.683 94.5325C120.489 94.6227 120.366 94.6952 120.291 94.7439C120.19 94.8101 120.112 94.9079 120.009 95.0333C119.931 95.1292 119.887 95.1977 119.852 95.2383C119.821 95.2748 119.736 95.391 119.621 95.543C119.54 95.6501 119.502 95.7361 119.471 95.7999C119.464 95.8147 119.46 95.8271 119.465 95.8214C119.47 95.8158 119.484 95.7919 119.676 95.5824C119.867 95.3729 120.235 94.9785 120.678 94.5936C121.12 94.2087 121.626 93.8452 121.926 93.635C122.226 93.4248 122.306 93.3789 122.432 93.3214C122.557 93.264 122.726 93.1964 122.969 93.1373C123.211 93.0783 123.52 93.0297 123.723 93.0035C123.926 92.9773 124.013 92.975 124.481 93.0268C124.949 93.0786 125.795 93.1846 125.785 93.1032C125.775 93.0218 124.883 92.7499 124.428 92.6127C123.972 92.4755 123.982 92.4813 124.48 92.6107C124.978 92.7402 125.965 92.993 126.999 93.2603" stroke="#2B2B2B" stroke-linecap="round"/>
<path d="M128.865 94.1287C128.864 94.15 129.062 94.5583 129.213 94.8086C129.277 94.9151 129.377 94.9853 129.489 95.1189C129.514 95.1483 129.532 95.1645 129.529 95.1679C129.474 95.2253 129.193 94.8982 128.93 94.721C128.832 94.6549 128.732 94.6736 128.707 94.6709C128.592 94.6585 128.95 94.8506 129.093 94.9443C129.377 95.1304 129.459 95.2237 129.464 95.2487C129.487 95.3576 129.235 95.112 129.119 95.0313C129.01 94.9555 128.951 94.9089 128.918 94.8958C128.826 94.8593 128.919 95.1401 128.989 95.2665C129.048 95.3715 129.147 95.4104 129.218 95.4705C129.314 95.5514 129.453 95.6864 129.583 95.8026C129.616 95.832 129.644 95.8635 129.776 96.0253C129.908 96.1872 130.143 96.4791 130.268 96.639C130.394 96.7989 130.403 96.8181 130.408 96.8572" stroke="#2B2B2B" stroke-linecap="round"/>
<path d="M129.471 95.771C129.474 95.8048 129.503 95.9113 129.551 96.0095C129.597 96.1051 129.838 96.2113 130.014 96.3436C130.16 96.4537 130.274 96.5869 130.32 96.64C130.329 96.6497 130.303 96.6274 130.175 96.4601C130.046 96.2927 129.814 95.9816 129.685 95.8033C129.532 95.592 129.51 95.5302 129.508 95.4926C129.508 95.4754 129.533 95.4664 129.751 95.5957C129.968 95.725 130.383 95.994 130.627 96.162C130.87 96.3301 130.929 96.389 131.09 96.5924C131.252 96.7959 131.515 97.1421 131.699 97.3987C131.991 97.8049 132.143 98.094 132.212 98.2689C132.232 98.3197 132.174 98.3062 131.918 98.1439C131.661 97.9815 131.194 97.6741 130.921 97.4871C130.577 97.2509 130.453 97.1297 130.3 96.9845C129.907 96.614 129.781 96.3917 129.702 96.2525C129.672 96.2 129.579 96.1123 129.319 95.8942C129.133 95.7382 128.835 95.4938 128.671 95.358C128.442 95.1669 128.343 95.0722 128.155 94.9365C128.095 94.8933 128.015 94.8586 127.79 94.7583C127.564 94.6581 127.192 94.4983 126.88 94.381C126.568 94.2638 126.327 94.194 126.003 94.1297C125.679 94.0655 125.278 94.0088 125.05 93.9747C124.66 93.921 124.421 93.919 124.28 93.9185C124.221 93.9199 124.187 93.9248 124.124 93.9395" stroke="#2B2B2B" stroke-linecap="round"/>
<path d="M129.897 96.1382C129.901 96.1382 129.924 96.1475 130.061 96.231C130.392 96.4331 130.674 96.6467 130.812 96.7643C130.878 96.8206 130.93 96.878 131.106 97.0993C131.281 97.3205 131.578 97.7059 131.757 97.955C132.003 98.2964 132.107 98.5465 132.211 98.7748C132.311 98.9925 132.373 99.1133 132.419 99.2215C132.431 99.2513 132.443 99.2835 132.724 99.8726C133.004 100.462 133.553 101.607 133.879 102.27C134.204 102.932 134.291 103.077 134.376 103.251C134.542 103.625 134.644 103.878 134.675 103.959C134.687 103.994 134.693 104.016 134.699 104.038" stroke="#2B2B2B" stroke-linecap="round"/>
<path d="M130.523 97.2829C130.519 97.304 130.555 97.3795 130.729 97.5535C130.884 97.7083 131.19 97.9822 131.376 98.1585C131.725 98.4879 131.786 98.5929 131.837 98.6731C131.914 98.7924 132.02 99.0094 132.113 99.2456C132.139 99.3124 132.145 99.3655 132.127 99.3799C131.904 99.5664 131.648 98.9826 131.544 98.9061C131.35 98.7641 131.189 98.4991 131.071 98.3187C130.986 98.1887 130.96 97.8876 130.854 97.5241C130.793 97.3124 130.684 97.2071 130.636 97.1598C130.629 97.1529 130.669 97.2445 130.797 97.4163C130.925 97.588 131.143 97.8535 131.333 98.0636C131.666 98.4317 131.888 98.6303 131.988 98.755C132.239 99.0653 132.333 99.3963 132.36 99.5014C132.372 99.5491 132.383 99.6195 132.353 99.6769C132.231 99.9129 132.022 99.6089 131.994 99.6208C131.882 99.6684 132.106 99.8189 132.17 99.9219C132.283 100.105 132.395 100.375 132.504 100.637C132.742 101.212 132.75 101.375 132.809 101.533C132.832 101.593 132.868 101.649 132.959 101.797C133.158 102.117 133.347 102.42 133.435 102.581C133.515 102.725 133.699 103.018 133.991 103.47C134.17 103.747 134.503 104.285 134.991 105.155C135.479 106.025 136.109 107.213 136.443 107.839C136.776 108.465 136.795 108.494 136.81 108.52C136.836 108.569 136.693 108.406 136.424 108.056C136.301 107.897 136.227 107.763 136.012 107.355C135.798 106.947 135.45 106.265 135.229 105.85C134.937 105.302 134.823 105.141 134.791 105.07C134.761 105.004 134.641 104.821 134.482 104.532C134.361 104.31 134.269 104.199 134.176 104.033C133.962 103.654 133.791 103.386 133.757 103.335C133.658 103.19 133.517 102.913 133.408 102.729C133.35 102.612 133.311 102.517 133.299 102.466C133.293 102.442 133.29 102.42 133.292 102.393" stroke="#2B2B2B" stroke-linecap="round"/>
<path d="M133.861 103.783C133.866 103.799 133.983 104.038 134.202 104.341C134.307 104.485 134.392 104.608 134.493 104.79C134.548 104.889 134.63 105.06 134.679 105.161C134.728 105.262 134.737 105.29 134.981 105.876C135.225 106.462 135.704 107.606 135.97 108.259C136.236 108.911 136.274 109.039 136.31 109.226C136.391 109.653 136.433 110.008 136.5 110.243C136.538 110.377 136.602 110.537 136.791 110.949C136.981 111.361 137.298 112.018 137.604 112.704C137.909 113.39 138.193 114.085 138.365 114.595C138.537 115.105 138.588 115.409 138.614 115.641C138.641 115.874 138.641 116.028 138.621 116.051C138.6 116.075 138.56 115.965 138.518 115.851" stroke="#2B2B2B" stroke-linecap="round"/>
<path d="M137.208 109.564C137.189 109.316 137.124 108.936 137.104 108.792C137.099 108.758 137.086 108.716 137.182 108.997C137.278 109.279 137.483 109.883 137.831 110.641C138.18 111.399 138.665 112.293 138.959 112.857C139.254 113.421 139.344 113.628 139.394 113.754C139.485 113.984 139.465 114.116 139.442 114.179C139.407 114.274 139.098 114.032 138.742 113.76C138.552 113.614 138.366 113.424 138.212 113.25C138.059 113.076 137.95 112.917 137.841 112.724C137.731 112.531 137.625 112.308 137.563 112.123C137.5 111.939 137.485 111.799 137.472 111.56C137.46 111.321 137.452 110.988 137.437 110.711C137.411 110.223 137.368 109.958 137.349 109.86C137.33 109.763 137.308 109.597 137.269 109.411C137.254 109.341 137.253 109.318 137.468 109.959C137.684 110.599 138.116 111.904 138.345 112.626C138.574 113.348 138.587 113.448 138.601 113.557" stroke="#2B2B2B" stroke-linecap="round"/>
<path d="M127.348 72.7016C127.657 72.687 128.438 72.6702 128.933 72.7898C129.526 72.9331 129.916 73.2827 130.303 73.45C130.625 73.5892 131.195 73.8542 131.908 74.1284C132.62 74.4026 133.456 74.6819 134.127 74.9412C134.798 75.2004 135.281 75.4312 135.905 75.789C136.529 76.1469 137.281 76.6249 137.691 76.8914C138.152 77.191 138.246 77.2753 138.666 77.5933C139.037 77.8738 139.72 78.4053 140.095 78.6892C140.609 79.0783 140.807 79.4484 141.18 79.9345C141.7 80.6115 142.176 81.0646 142.389 81.2852C142.496 81.3958 142.586 81.5165 142.967 81.9299C143.348 82.3433 144.013 83.0491 144.421 83.5037C144.829 83.9583 144.96 84.1404 145.079 84.3203C145.197 84.5002 145.299 84.6725 145.661 85.3713C146.022 86.0702 146.639 87.2903 147.044 88.058C147.449 88.8256 147.622 89.1038 147.75 89.3278C147.967 89.7067 148.079 89.9485 148.533 90.8481C148.951 91.6746 149.718 93.2672 150.13 94.1241C150.541 94.981 150.566 95.0577 150.56 95.0743C150.487 95.2959 150.237 94.6067 149.959 94.1764C149.892 94.0723 149.848 94.0185 149.531 93.5694C149.214 93.1203 148.623 92.2785 148.308 91.8242C147.966 91.3317 147.931 91.2359 147.649 90.655C147.39 90.1212 146.871 89.1136 146.593 88.555C146.281 87.925 146.212 87.7358 146.025 87.3187C145.886 87.0091 145.671 86.4953 145.489 86.1128C145.189 85.4831 144.899 85.0925 144.682 84.8306C144.389 84.4759 144.015 84.0755 143.818 83.9121C143.539 83.6809 142.796 83.2765 142.263 83.0016C142.065 82.8995 142.02 82.8622 140.94 81.8544C139.86 80.8466 137.748 78.8667 136.546 77.7563C135.343 76.6459 135.116 76.4651 134.979 76.3494C134.617 76.0438 134.274 75.772 134.105 75.6882C133.849 75.6042 133.651 75.5577 133.397 75.521C133.296 75.5167 133.144 75.5167 132.93 75.5084" stroke="#2B2B2B" stroke-linecap="round"/>
<path d="M267.893 91.6947C267.925 91.6717 268.071 91.6749 268.533 91.8851C268.92 92.0614 269.595 92.4283 270.021 92.6611C270.811 93.0937 270.923 93.2648 271.034 93.3778C271.135 93.4814 271.198 93.6257 271.309 93.7266C271.421 93.8295 271.789 93.7793 272.153 93.7044C272.405 93.6529 272.616 93.5363 272.743 93.4712C272.802 93.4412 272.959 93.3488 273.386 93.0783C273.687 92.8882 274.161 92.5975 274.436 92.437C274.711 92.2765 274.774 92.2567 275.154 92.1016C275.533 91.9466 276.227 91.657 276.609 91.503C277.035 91.3311 277.129 91.3112 277.444 91.2067C277.716 91.1166 278.22 90.9683 278.53 90.8661C279.105 90.677 279.414 90.5495 279.646 90.4708C279.809 90.4154 280.237 90.2445 280.615 90.06C280.838 89.9511 281.298 89.5358 281.546 89.2938C281.704 89.1403 281.882 88.9401 282.012 88.7969C282.161 88.6335 282.258 88.465 282.56 88.0675C282.658 87.939 282.743 87.8532 282.824 87.7514C282.898 87.6583 283.216 87.3643 283.653 86.9753C283.809 86.836 283.833 86.8145 282.614 87.3126C281.395 87.8107 278.932 88.829 277.442 89.4867C275.952 90.1444 275.51 90.4107 275.227 90.5899C274.828 90.843 274.675 90.9875 274.518 91.1676C274.405 91.2975 274.239 91.5177 274.041 91.8071C273.844 92.0965 273.625 92.4515 273.218 92.9607C272.811 93.47 272.223 94.1228 271.894 94.4826C271.565 94.8425 271.512 94.8897 271.354 95.0554C270.929 95.5 270.56 95.9536 270.393 96.2132C270.219 96.4846 270.037 96.8024 269.688 97.2002C269.433 97.4899 268.989 97.9297 268.756 98.1767C268.431 98.52 268.24 98.832 267.841 99.2808C267.605 99.5456 267.252 99.838 266.95 100.081C266.647 100.323 266.394 100.495 266.215 100.608C266.037 100.72 265.942 100.768 265.653 100.963C265.365 101.159 264.884 101.502 264.621 101.695C264.243 101.992 264.108 102.102 264.046 102.152C264.016 102.175 263.988 102.194 263.959 102.227" stroke="#2B2B2B" stroke-linecap="round"/>
<path d="M281.97 88.3968C282.054 88.3165 282.319 88.121 282.997 87.7378C283.54 87.4309 284.618 86.8894 285.205 86.588C285.792 86.2865 285.865 86.2569 286.042 86.2156C286.219 86.1743 286.499 86.1222 286.831 86.0979C287.163 86.0736 287.538 86.0787 287.851 86.1013C288.164 86.1239 288.403 86.1639 288.758 86.2701C289.114 86.3764 289.58 86.5477 289.915 86.6851C290.449 86.9038 290.753 87.105 291.092 87.3953C291.324 87.5945 291.65 87.9318 291.898 88.2021C292.317 88.6584 292.494 88.941 292.557 89.0496C292.585 89.0977 292.598 89.1349 292.513 89.1166C292.427 89.0982 292.241 89.0239 291.426 88.5494C290.612 88.0749 289.175 87.2024 288.378 86.7344C287.582 86.2663 287.469 86.2293 287.325 86.1935C287.01 86.1155 286.67 86.0534 286.325 85.998C286.142 85.9686 285.937 85.9792 285.451 86.0431C284.965 86.1069 284.202 86.2346 283.685 86.3442C283.168 86.4538 282.92 86.5414 282.691 86.6457C282.248 86.847 281.912 87.0901 281.498 87.4264C281.214 87.6566 280.803 88.0336 280.559 88.2596C280.315 88.4857 280.255 88.556 280.215 88.6102C280.175 88.6643 280.158 88.7001 280.469 88.5142C280.781 88.3282 281.422 87.9195 282.127 87.5538C282.833 87.1881 283.582 86.878 284.213 86.6761C284.844 86.4741 285.335 86.3897 285.741 86.3462C286.147 86.3027 286.454 86.3027 286.699 86.3126C287.119 86.3294 287.51 86.4228 287.927 86.5637C288.342 86.7039 288.678 86.9439 289.069 87.2344C289.657 87.6719 290.003 88.0449 290.111 88.1769C290.271 88.3721 290.456 88.6574 290.615 89.0061C290.772 89.3484 290.837 89.6442 290.924 90.0388C290.987 90.327 291.087 90.7944 291.155 91.1376C291.222 91.4807 291.252 91.6856 291.273 91.8052C291.294 91.9247 291.304 91.9527 291.321 91.9882" stroke="#2B2B2B" stroke-linecap="round"/>
<path d="M291.266 91.9354C291.266 91.9311 291.186 91.5913 291.053 91.0606C291.005 90.8666 290.981 90.8289 290.65 90.3925C290.32 89.956 289.681 89.1227 289.337 88.6669C288.957 88.1633 288.892 88.0464 288.787 87.8923C288.631 87.6649 288.469 87.4159 288.27 87.2038C288.041 86.9584 287.72 86.7917 287.307 86.5967C287.047 86.4739 286.666 86.3441 286.266 86.2474C285.866 86.1507 285.454 86.1016 284.947 86.0752C284.44 86.0488 283.851 86.0466 283.525 86.0525C283.199 86.0584 283.155 86.0724 283.151 86.0872C283.147 86.102 283.184 86.1172 283.693 86.2078C284.201 86.2985 285.18 86.4642 285.879 86.6229C286.578 86.7815 286.967 86.9281 287.284 87.075C287.602 87.2219 287.837 87.3647 288.121 87.5776C288.747 88.0476 289.112 88.4146 289.21 88.5419C289.509 88.927 289.726 89.5053 289.805 89.7802C289.856 89.9597 289.948 90.2189 290.024 90.5798C290.113 91.0088 290.128 91.4285 290.118 91.7479C290.105 92.1787 289.994 92.4527 289.846 92.8548C289.752 93.1083 289.64 93.2498 289.419 93.5486C289.251 93.7603 288.934 94.1561 288.789 94.3462C288.645 94.5362 288.682 94.5085 288.721 94.4799" stroke="#2B2B2B" stroke-linecap="round"/>
<path d="M86.6021 268.648C86.5487 268.749 86.4653 269.139 86.528 269.396C86.6109 269.735 86.8811 270.268 87.0735 270.791C87.1903 271.108 87.3329 271.437 87.5522 272.161C87.6677 272.542 87.7856 273.063 88.0544 274.023C88.224 274.628 88.4618 275.475 88.5946 275.962C88.7546 276.549 88.8501 276.966 89.0173 277.635C89.2057 278.388 89.3068 278.858 89.5884 279.676C89.85 280.436 90.3464 281.899 90.6234 282.7C90.993 283.769 91.267 284.412 91.4492 284.871C91.4819 284.953 91.5398 285.054 91.9809 286.145C92.4221 287.237 93.2482 289.313 93.725 290.48C94.2845 291.849 94.4712 292.13 94.6946 292.5C95.1405 293.238 95.4625 293.841 95.6232 294.083C95.8164 294.373 95.9489 294.603 96.1849 294.918C96.7185 295.63 97.136 296.266 97.566 296.876C97.8958 297.343 98.4895 298.105 98.8293 298.543C99.1691 298.98 99.2466 299.063 99.5456 299.415C99.8446 299.766 100.363 300.384 100.654 300.718C100.944 301.052 100.992 301.082 101.065 301.114" stroke="#2B2B2B" stroke-linecap="round"/>
<path d="M85.8014 242.176C85.4637 242.74 85.0588 243.699 85.0159 248.483C85.0023 249.999 85.2375 251.098 85.4844 252.946C85.8625 255.775 86.1696 258.059 86.5972 260.584C87.487 265.838 88.3411 269.791 88.6685 270.883C89.1919 272.629 89.7429 274.365 90.6061 276.49C91.6271 279.003 92.9138 280.703 94.4773 284.773C96.7729 290.748 96.4574 292.36 97.1097 294.385C97.7888 296.493 98.5022 297.787 99.2084 299.178C100.035 300.805 100.912 302.119 101.753 303.349C103.037 305.226 103.72 306.146 104.403 307.129C105.012 308.006 105.975 309.855 107.226 311.848C107.945 312.993 108.778 314.232 110.964 316.244C114.678 319.663 117.532 320.501 119.616 321.985C121.395 323.252 123.929 324.465 125.032 325.2C125.468 325.491 125.832 325.93 127.368 327.311C131.008 330.584 133.901 332.779 134.543 333.138C135.666 333.768 137.292 334.741 139.432 335.72C142.131 336.954 145.89 338.949 149.242 340.881C152.78 342.92 156.563 345.396 158.518 346.016C159.009 346.172 161.149 346.414 164.347 346.883C166.378 347.181 167.377 347.073 169.905 347.261C172.193 347.432 176.524 347.705 181.339 348.223C186.154 348.741 191.321 349.483 196.573 349.845C201.826 350.207 207.007 350.166 212.356 349.793C217.706 349.42 223.069 348.716 225.972 348.336C229.668 347.822 230.627 347.67 231.485 347.561C231.827 347.469 231.977 347.302 232.133 347.13" stroke="#2B2B2B" stroke-width="5" stroke-linecap="round"/>
<path d="M238.338 347.891C238.491 348.2 238.594 348.481 238.73 348.887C238.87 349.308 239.013 349.592 239.431 350.219C239.666 350.571 239.948 351.09 240.135 351.438C240.256 351.664 240.568 351.896 240.908 352.203C241.574 352.807 241.81 353.022 242.41 353.479C242.852 353.816 243.6 354.332 244.399 354.828C245.198 355.324 246.032 355.775 247.18 356.266C248.328 356.756 249.765 357.273 250.653 357.629C252.227 358.419 252.484 358.615 252.645 358.731C252.724 358.794 252.799 358.865 252.935 359.011" stroke="#2B2B2B" stroke-width="5" stroke-linecap="round"/>
<path d="M84.6372 243.432C84.645 243.105 84.7116 242.166 84.7769 241.66C84.8234 241.3 84.9504 240.873 85.0411 240.413C85.1439 239.892 85.2367 239.236 85.247 237.483C85.2546 236.199 85.2507 235.326 85.3505 234.801C85.6447 233.251 86.1151 232.609 86.4377 231.858C86.5299 231.382 86.6647 231.001 86.963 230.358C87.0662 230.144 87.1949 229.883 87.3829 229.522" stroke="#2B2B2B" stroke-width="5" stroke-linecap="round"/>
<path d="M156.579 243.128C156.501 243.021 156.44 242.58 156.418 242.096C156.401 241.698 156.454 241.324 156.504 241.093C156.57 240.79 157.034 240.494 157.48 240.008C157.895 239.556 158.247 239.274 158.341 239.186C158.424 239.108 159.123 238.806 160.439 238.335C161.082 238.106 161.697 237.963 162.434 237.827C163.172 237.691 164.018 237.585 164.483 237.53C165.123 237.455 165.7 237.454 166.082 237.519C166.332 237.562 166.612 237.948 166.945 238.326C167.722 239.211 168.477 239.814 168.695 240.137C168.861 240.382 169.07 240.849 169.57 242.198C170.021 243.415 170.097 244.252 170.115 244.366C170.189 244.857 170.289 245.665 170.34 246.589C170.376 247.233 170.373 248.421 170.363 249.208C170.349 250.346 170.277 250.788 170.228 251.202C170.188 251.535 170.08 252.112 169.949 252.699C169.687 253.87 169.484 254.515 169.373 254.844C169.113 255.619 168.72 256.368 168.477 256.791C168.283 257.13 168.079 257.342 167.638 257.627C167.078 257.989 166.299 258.238 165.739 258.476C165.351 258.64 164.652 259 164.118 259.242C163.994 259.298 163.875 259.305 163.68 259.359C163.295 259.467 162.422 259.718 161.358 259.952C160.245 260.197 159.445 260.087 159.143 260.002C158.791 259.904 158.538 259.417 158.325 259.054C158.078 258.632 157.597 257.988 157.108 257.373C156.722 256.888 156.38 256.353 156.208 255.988C156.057 255.668 155.635 254.91 155.377 254.338C155.269 254.1 155.121 253.636 154.957 253.261C154.86 253.038 154.628 252.664 154.452 252.258C154.365 252.058 154.334 251.845 154.292 251.671C154.256 251.522 154.198 251.112 153.98 249.629C153.812 248.483 153.582 246.534 153.454 245.456C153.271 243.916 153.438 243.374 153.58 243.048C153.842 242.449 154.256 242.166 154.813 241.601C155.161 241.248 156.031 240.478 156.585 240.015C156.971 239.693 157.385 239.505 157.495 239.435C157.845 239.211 156.319 240.798 155.853 241.361C155.703 241.542 155.304 242.026 154.733 242.776C154.177 243.507 153.967 244.006 153.667 244.517C153.383 244.999 153.266 245.45 153.031 246.199C152.958 246.429 152.968 246.945 152.967 247.658C152.966 248.013 153.032 248.46 153.117 249.203C153.26 250.448 153.358 251.083 153.466 251.62C153.552 252.042 153.655 252.52 153.714 252.834C153.76 253.077 154.007 253.872 154.379 254.745C154.522 255.083 154.765 255.321 154.97 255.563C155.282 255.932 155.793 256.248 156.284 256.678C156.395 256.776 156.44 256.834 156.817 257.173C157.195 257.512 157.902 258.132 158.403 258.525C159.179 259.067 159.863 259.35 160.497 259.554C160.729 259.629 160.779 259.646 160.922 259.649" stroke="#F7F7F7" stroke-width="5" stroke-linecap="round"/>
<path d="M174.337 234.599C174.371 234.649 174.756 234.887 175.067 235.084C175.35 235.263 175.545 235.654 176.196 236.76C176.532 237.33 176.849 238.364 177.06 239.012C177.136 239.245 177.246 239.588 177.635 240.786C177.78 241.233 177.89 241.462 178.062 241.784C178.433 242.481 178.765 242.976 178.978 243.362C179.154 243.68 179.491 244.23 179.83 244.884C180.169 245.539 180.506 246.279 180.718 246.734C181.001 247.341 181.181 247.697 181.386 248.128C181.609 248.596 181.84 248.967 182.038 249.365C182.346 249.983 182.584 250.593 182.906 251.168C183.867 252.694 183.981 253.123 183.986 253.398C183.984 253.519 183.969 253.602 183.896 253.758" stroke="#020202" stroke-width="5" stroke-linecap="round"/>
<path d="M182.922 253.651C182.962 253.702 183.185 253.945 183.504 254.198C183.926 254.531 184.045 254.917 184.197 255.294C184.333 255.632 184.355 256.185 184.412 256.738C184.503 257.635 184.56 258.3 184.582 258.434C184.604 258.567 184.662 259.254 184.781 260.468C184.839 261.065 184.844 261.629 184.825 262.112C184.792 262.986 184.676 263.43 184.569 263.812C184.304 264.759 184.142 265.458 184.062 265.652C183.792 266.311 183.648 266.715 183.316 267.302C183.11 267.665 182.686 268.305 182.458 268.676C182.23 269.047 182.194 269.119 181.883 269.683C181.571 270.246 180.985 271.298 180.631 271.912C180.189 272.676 179.99 272.94 179.791 273.242C179.672 273.421 179.495 273.638 179.122 274.043C178.749 274.447 178.181 275.029 177.676 275.547C176.748 276.499 176.264 277.011 176.092 277.226C175.544 277.915 175.192 278.361 174.927 278.702C174.889 278.75 174.859 278.793 174.878 278.794C174.896 278.796 174.966 278.755 174.9 278.775C174.383 278.994 174.222 279.184 174.049 279.363C174.005 279.398 173.959 279.425 173.917 279.386" stroke="#020202" stroke-width="5" stroke-linecap="round"/>
<path d="M183.665 278.189C183.644 278.22 183.532 278.332 183.125 278.561C182.997 278.633 182.737 278.728 182.519 278.807C182.437 278.837 182.351 278.877 182.255 278.905C182.099 278.951 182.032 278.96 181.939 278.978C181.874 278.99 181.805 278.998 181.714 278.987C181.629 278.977 181.584 278.919 181.568 278.899C181.535 278.856 181.451 278.919 181.396 278.946C181.337 278.976 181.277 279.016 181.22 279.056C181.167 279.094 181.098 279.138 180.892 279.306C180.798 279.382 180.706 279.409 180.613 279.457C180.551 279.489 180.507 279.53 180.5 279.535C180.424 279.596 180.739 279.322 180.905 279.155C180.99 279.069 181.053 278.977 181.089 278.952C181.083 279.003 181.068 279.057 181.062 279.075C181.065 279.078 181.079 279.068 181.121 279.04" stroke="#F6F6F6" stroke-width="5" stroke-linecap="round"/>
<path d="M179.838 285.348C179.584 285.45 178.95 285.757 178.24 286.278C177.041 287.157 176.459 287.711 175.732 288.089C175.273 288.328 174.825 288.522 174.317 288.695C173.989 288.807 173.742 288.932 173.302 289.114C172.304 289.528 171.503 289.873 171.008 290.134C170.092 290.619 169.323 291.105 168.813 291.321C167.823 291.742 167.349 291.96 166.062 292.543C165.526 292.786 165.125 292.84 164.381 293.022C163.959 293.124 163.602 293.161 163.3 293.202C163.221 293.213 163.142 293.222 163.112 293.184C163.082 293.146 163.103 293.06 163.158 292.987C163.402 292.66 163.9 292.552 164.243 292.431C164.624 292.296 164.978 292.179 166.042 291.666C166.772 291.314 167.256 290.863 167.562 290.664C167.896 290.448 168.486 290.132 169.351 289.472C169.914 289.042 170.665 288.418 171.514 287.754C171.911 287.444 172.256 287.232 172.598 286.985C172.734 286.888 173.346 286.362 174.203 285.602C174.991 284.903 175.821 284.179 176.658 283.446C178.287 282.018 178.626 281.536 178.976 281.099C179.186 280.836 179.477 280.619 181.006 279.279C181.33 278.988 181.393 278.908 181.458 278.838C181.524 278.768 181.59 278.71 181.766 278.596" stroke="#F6F6F6" stroke-width="5" stroke-linecap="round"/>
<path d="M171.82 286.093C171.727 286.172 171.397 286.589 171.146 286.994C170.871 287.437 170.333 287.871 169.91 288.309C169.533 288.701 168.916 289.201 168.31 289.707C167.366 290.497 167.11 290.641 166.52 291.066C166.001 291.441 165.022 292.118 164.451 292.503C163.443 293.183 162.637 293.54 161.606 293.902C160.189 294.4 159.238 294.533 159.042 294.577C158.917 294.604 158.744 294.664 158.206 294.744C157.669 294.823 156.773 294.926 155.61 294.98C154.448 295.033 153.045 295.033 151.464 295.009C149.884 294.984 148.167 294.936 147.046 294.874C145.926 294.811 145.453 294.737 144.845 294.55C144.237 294.364 143.509 294.069 142.882 293.768C141.731 293.215 140.947 292.647 140.461 292.291C140.01 291.961 138.718 291.347 137.813 290.911C137.087 290.56 136.577 290.486 136.201 290.264C136.072 290.188 135.832 289.941 135.629 289.729C135.462 289.555 136.993 290.197 138.429 290.655C139.32 290.939 139.99 291.273 140.944 291.657C141.393 291.837 142.331 292.229 143.471 292.633C143.958 292.806 144.405 292.988 145.311 293.25C147.233 293.807 147.598 293.718 147.965 293.74C148.099 293.747 148.292 293.771 149.606 293.782C150.921 293.793 153.351 293.793 155.097 293.704C156.844 293.615 157.834 293.436 159 293.125C160.167 292.814 161.48 292.375 162.205 292.124C162.931 291.873 163.028 291.824 163.749 291.608C164.471 291.392 165.814 291.011 166.912 290.588C168.011 290.164 168.824 289.71 169.621 289.166C171.225 288.071 172.021 287.292 172.158 287.156C172.466 286.851 173.623 285.869 174.37 285.197C174.744 284.861 175.154 284.54 175.315 284.374C175.609 284.073 174.42 284.921 173.963 285.149C173.672 285.294 173.453 285.457 173.321 285.571C173.161 285.71 173.889 285.29 175.198 284.466C176.145 283.869 176.438 283.627 177.097 283.076C177.456 282.776 177.664 282.355 177.748 282.155C177.735 282.159 177.689 282.235 177.682 282.302C177.674 282.37 177.706 282.428 177.739 282.487" stroke="#F6F6F6" stroke-width="5" stroke-linecap="round"/>
<path d="M121.257 257.455C121.157 258.136 121.235 260.085 121.343 260.78C121.377 261.003 121.508 261.599 121.757 262.469C121.968 263.206 122.366 264.195 122.731 265.251C122.963 265.925 123.224 266.463 123.469 267.247C123.581 267.603 123.752 268.183 123.987 269.139C124.222 270.095 124.51 271.412 124.715 272.415C124.92 273.417 125.034 274.067 125.247 274.863C125.712 276.602 126.112 277.648 126.246 278.013C126.342 278.275 126.556 278.665 126.933 279.341C127.31 280.016 127.86 280.957 128.477 281.86C129.094 282.762 129.762 283.598 130.125 284.06C130.633 284.708 130.942 285.097 131.566 285.917C131.988 286.471 132.814 287.482 133.546 288.284C134.278 289.087 134.899 289.644 135.409 290.058C136.273 290.76 137.035 291.15 138.096 291.571C138.805 291.852 139.887 292.191 140.51 292.409C141.278 292.677 141.536 292.795 141.91 292.911C143.259 293.335 144.094 293.556 144.615 293.75C144.964 293.871 145.487 294.038 146.071 294.196" stroke="#F6F6F6" stroke-width="5" stroke-linecap="round"/>
<path d="M125.866 258.042C125.826 258.038 125.526 257.83 125.264 257.597C124.955 257.323 124.83 256.78 124.834 256.631C124.841 256.381 124.913 256.262 124.914 255.677C124.914 255.439 124.881 255.319 124.865 255.144C124.828 254.741 124.784 254.436 124.78 254.354C124.776 254.272 124.759 254.177 124.697 253.815C124.645 253.505 124.513 252.944 124.445 252.608C124.359 252.179 124.354 252.045 124.331 251.919C124.243 251.437 124.192 251.186 124.098 250.803C124.022 250.49 123.854 249.946 123.761 249.64C123.653 249.286 123.598 249.195 123.549 249.117C123.512 249.059 123.463 249.019 123.388 249.002C123.268 248.976 123.023 249.178 122.731 249.374C122.613 249.454 122.55 249.485 122.286 249.708C122.021 249.931 121.556 250.341 121.291 250.58C120.862 250.967 120.756 251.157 120.592 251.312C120.408 251.484 120.247 251.647 119.945 251.893C119.697 252.093 119.235 252.412 118.977 252.602C118.582 252.893 118.463 252.994 118.236 253.155C118.064 253.276 117.764 253.462 117.396 253.755C117.027 254.047 116.595 254.437 116.226 254.732C115.856 255.027 115.562 255.215 115.345 255.366C114.987 255.614 114.823 255.782 114.662 255.961C114.331 256.327 114.033 256.601 113.913 256.694C113.754 256.818 113.612 256.93 113.491 257.065C113.362 257.208 113.126 257.636 112.936 257.917C112.754 258.185 112.638 258.399 112.535 258.543C112.443 258.673 112.333 258.765 112.141 258.934C112.099 258.973 112.077 258.997 112.056 259.02C112.036 259.043 112.018 259.063 112 259.089" stroke="#020202" stroke-width="5" stroke-linecap="round"/>
<path d="M114.279 257.863C114.228 257.941 113.925 258.375 113.747 258.605C113.589 258.81 113.187 259.043 112.733 259.196C112.242 259.362 111.923 259.517 111.844 259.559C111.648 259.666 111.054 259.817 110.665 259.967C110.472 260.041 110.193 260.137 109.866 260.271C109.614 260.375 109.185 260.477 108.72 260.536C108.423 260.574 107.993 260.562 107.653 260.54C107.312 260.519 107.072 260.471 106.798 260.431C106.226 260.349 105.868 260.32 105.658 260.218C104.862 259.829 104.801 259.671 104.763 259.623C104.745 259.601 104.739 259.574 104.735 259.304C104.73 259.035 104.73 258.522 104.727 258.231C104.722 257.885 104.702 257.791 104.695 257.551C104.689 257.35 104.694 256.986 104.719 256.643C104.768 255.989 104.846 255.645 104.85 255.582C104.865 255.393 105.03 255.212 105.153 255.038C105.206 254.971 105.29 254.874 105.348 254.815C105.405 254.756 105.432 254.738 105.514 254.695" stroke="#020202" stroke-width="5" stroke-linecap="round"/>
<path d="M125.416 252.567C125.411 252.567 125.381 252.585 125.33 252.641C125.054 252.945 125.255 253.644 125.278 253.796C125.321 254.086 125.32 254.562 125.366 255.183C125.397 255.594 125.415 256.202 125.436 256.574C125.464 257.065 125.496 257.246 125.507 257.373C125.554 257.895 125.555 258.598 125.562 258.87C125.57 259.238 125.631 259.617 125.674 259.895C125.687 259.979 125.698 260.066 125.706 260.127C125.714 260.188 125.72 260.221 126.116 261.464C126.513 262.706 127.3 265.157 127.772 266.569C128.244 267.981 128.375 268.28 128.447 268.452C128.519 268.623 128.528 268.656 128.519 268.659C128.476 268.671 128.194 268.14 127.754 267.314C127.439 266.721 127.363 266.324 127.207 265.906C127.093 265.597 126.928 265.086 126.831 264.786C126.734 264.486 126.716 264.41 126.274 262.897C125.831 261.383 124.965 258.434 124.491 256.797C124.017 255.161 123.963 254.926 123.925 254.784C123.845 254.477 123.733 254.152 123.543 253.613C123.481 253.458 123.412 253.297 122.994 252.605C122.576 251.914 121.811 250.696 121.015 249.413" stroke="#020202" stroke-width="5" stroke-linecap="round"/>
<path d="M127.384 268.038C127.357 268.264 127.46 268.55 127.607 268.831C127.711 269.029 127.969 269.524 128.238 270.167C128.341 270.413 128.361 270.504 128.697 271.355C129.033 272.205 129.68 273.815 130.162 274.9C130.643 275.985 130.94 276.497 131.141 276.822C131.424 277.279 131.775 277.64 132.151 278.025C132.29 278.168 132.332 278.197 132.356 278.18C132.429 278.129 132.355 277.929 132.274 277.742C132.235 277.652 132.192 277.578 131.796 276.597C131.399 275.616 130.648 273.731 130.235 272.71C129.823 271.689 129.773 271.59 129.684 271.383C129.596 271.176 129.471 270.864 129.299 270.55C129.127 270.236 128.913 269.93 128.728 269.685C128.405 269.257 128.126 268.917 127.93 268.617C127.673 268.226 127.48 268.005 127.386 267.888C127.214 267.674 126.922 267.333 126.781 267.195C126.637 267.055 126.569 266.927 126.484 266.773C126.435 266.684 126.285 266.418 125.946 265.648C125.708 265.108 125.411 264.231 125.236 263.722C125.062 263.213 125.036 263.091 124.937 262.709C124.837 262.327 124.664 261.69 124.569 261.325C124.474 260.96 124.463 260.887 124.31 260.309C124.156 259.732 123.862 258.652 123.707 258.079C123.504 257.324 123.424 256.857 123.388 256.572C123.381 256.515 123.384 256.454 123.383 255.984C123.382 255.514 123.38 254.634 123.381 254.165C123.386 253.661 123.402 253.488 123.424 253.262C123.436 253.174 123.446 253.141 123.494 253.061" stroke="#020202" stroke-width="5" stroke-linecap="round"/>
<path d="M175.23 237.575C175.297 237.581 175.495 237.782 175.728 237.984C175.931 238.162 176.212 238.395 176.791 238.654C177.772 239.093 178.538 239.242 178.717 239.296C178.87 239.342 178.911 239.508 179.034 239.703C179.294 240.117 179.765 240.862 180.244 241.72C180.74 242.608 180.877 242.809 181.303 243.594C181.7 244.328 182.45 245.749 182.894 246.57C183.338 247.391 183.45 247.572 183.762 248.398C184.074 249.224 184.583 250.689 184.855 251.491C185.158 252.381 185.214 252.653 185.349 253.417C185.453 254.005 185.564 255.011 185.641 255.569C185.728 256.209 185.767 256.344 185.782 257.273C185.796 258.15 185.8 259.85 185.801 260.758C185.802 261.666 185.793 261.73 185.691 262.197C185.589 262.664 185.394 263.531 185.279 264.011C185.163 264.491 185.133 264.556 184.888 264.859C184.643 265.161 184.184 265.698 183.832 266.123C182.948 267.188 182.789 267.338 182.724 267.385C182.932 267.106 183.258 266.715 183.462 266.417C183.54 266.295 183.566 266.232 183.582 266.102" stroke="#020202" stroke-width="5" stroke-linecap="round"/>
<path d="M179.579 240.774C179.579 240.68 179.489 239.71 179.163 238.558C178.88 237.557 178.248 237.076 178.016 236.773C177.367 235.921 177.093 235.666 176.638 235.257C175.966 234.652 175.395 234.011 175.006 233.704C174.45 233.264 173.644 233.098 172.751 232.812C172.274 232.659 171.796 232.356 171.327 232.132C169.899 231.45 169.368 231.525 169.05 231.505C168.917 231.496 168.25 231.218 167.184 230.831C166.445 230.563 165.74 230.596 165.114 230.575C164.859 230.553 164.733 230.51 164.649 230.473C164.564 230.435 164.524 230.403 164.472 230.394" stroke="#020202" stroke-width="5" stroke-linecap="round"/>
<path d="M170.946 232.464C170.838 232.369 170.423 232.068 169.57 231.774C168.759 231.495 168.149 231.558 168.021 231.51C167.954 231.485 167.882 231.456 167.421 231.155C166.961 230.855 166.113 230.283 165.446 229.854C164.779 229.425 164.318 229.155 163.865 228.925C162.997 228.484 162.411 228.297 162.145 228.238C161.87 228.176 161.65 228.143 161.165 228.088C160.755 228.04 160.013 227.938 159.593 227.878C159.173 227.819 159.097 227.801 158.777 227.762C158.458 227.724 157.897 227.666 156.308 227.693C154.718 227.719 152.116 227.833 150.712 227.9C149.309 227.968 149.183 227.986 148.385 228.025C147.588 228.063 146.124 228.121 145.329 228.159C144.534 228.197 144.453 228.212 143.791 228.274C143.129 228.335 141.889 228.442 140.952 228.557C140.015 228.672 139.419 228.792 139.079 228.865C138.418 229.007 137.995 229.26 137.363 229.578C137.15 229.686 136.759 229.986 136.128 230.477C135.83 230.72 135.577 230.952 135.235 231.214C134.892 231.475 134.467 231.759 133.999 232.103" stroke="#020202" stroke-width="5" stroke-linecap="round"/>
<path d="M140.28 228.533C140.233 228.528 140.042 228.573 139.481 228.735C139.34 228.775 139.246 228.785 138.505 228.998C137.764 229.212 136.376 229.624 135.469 229.906C134.171 230.309 133.684 230.518 133.495 230.607C133.401 230.65 133.307 230.678 132.835 230.891C132.362 231.104 131.512 231.498 130.81 231.887C130.107 232.275 129.577 232.645 129.284 232.855C128.85 233.164 128.372 233.536 127.657 234.043C126.931 234.558 126.388 234.993 126.14 235.147C125.533 235.523 125.044 236.14 124.784 236.354C124.615 236.503 124.507 236.605 124.446 236.689C124.419 236.732 124.399 236.776 124.388 236.842" stroke="#020202" stroke-width="5" stroke-linecap="round"/>
<path d="M166.065 283.691C166.051 283.706 165.993 283.792 165.987 283.9C165.959 284.349 166.915 283.672 167.368 283.492C167.788 283.325 168.261 283.07 168.684 282.857C169.084 282.655 169.426 282.442 169.786 282.169C169.875 282.1 169.96 282.044 170.046 281.99C170.132 281.937 170.217 281.888 170.519 281.666" stroke="#020202" stroke-width="5" stroke-linecap="round"/>
<path d="M163.565 286.842C163.607 286.764 163.901 286.491 165.353 285.973C165.805 285.811 166.455 285.621 167.376 285.334C168.53 284.976 168.986 284.507 169.47 284.198C169.719 284.038 169.932 283.913 170.211 283.702C170.748 283.296 171.645 282.595 172.487 281.852C172.863 281.52 173.399 280.87 174.252 279.936C174.788 279.351 175.237 278.994 175.589 278.598C175.874 278.277 176.319 277.681 176.881 276.893C177.279 276.335 177.709 275.575 178.214 274.788C178.604 274.213 178.872 273.702 179.139 273.138C179.206 272.993 179.249 272.888 179.293 272.75" stroke="#020202" stroke-width="5" stroke-linecap="round"/>
<path d="M164.234 287.248C164.214 287.261 163.925 287.337 163.597 287.404C163.309 287.461 162.935 287.584 162.58 287.664C162.429 287.698 162.333 287.71 162.147 287.751C161.962 287.791 161.689 287.856 161.217 287.926C160.745 287.995 160.082 288.066 159.536 288.103C158.99 288.14 158.583 288.14 158.338 288.143C158.094 288.147 158.025 288.154 157.74 288.159C157.455 288.165 156.957 288.168 156.675 288.175C156.345 288.183 156.254 288.215 156.186 288.249C156.157 288.263 156.151 288.292 156.159 288.32C156.196 288.449 156.491 288.501 156.75 288.561C156.851 288.585 156.931 288.572 157.13 288.578C157.622 288.592 157.984 288.574 158.047 288.566C158.105 288.558 158.163 288.557 158.522 288.503C158.852 288.454 159.485 288.365 159.857 288.309C160.229 288.252 160.322 288.232 160.813 288.083C161.304 287.935 162.191 287.658 162.673 287.511C163.202 287.35 163.286 287.337 163.429 287.3C163.73 287.221 163.955 287.176 164.23 287.098C164.479 287.028 164.952 286.904 165.21 286.832C165.635 286.714 165.937 286.611 166.072 286.558C166.124 286.538 166.422 286.394 166.845 286.186C167.022 286.099 167.237 285.959 167.543 285.776C167.675 285.697 167.938 285.573 168.366 285.342C168.708 285.157 168.857 284.995 168.963 284.891C169.17 284.687 169.468 284.417 169.718 284.159C169.96 283.932 170.078 283.798 170.134 283.727C170.17 283.684 170.222 283.628 170.276 283.569" stroke="#020202" stroke-width="5" stroke-linecap="round"/>
<path d="M238.377 231.822C238.377 231.804 238.862 231.414 239.621 230.813C239.952 230.551 240.043 230.412 240.133 230.293C240.255 230.133 240.605 230.387 240.848 230.511C241.201 230.691 241.351 230.989 241.514 231.15C241.655 231.289 241.768 231.603 241.907 231.858C242.134 232.276 242.288 232.509 242.4 232.696C242.461 232.795 242.509 232.888 242.528 232.917C242.64 233.078 242.269 232.486 242.067 232.199C241.83 231.863 241.676 231.655 241.605 231.545C241.423 231.259 242.623 232.186 243.076 232.557C243.275 232.719 243.301 232.97 243.315 233.184C243.323 233.291 243.299 233.391 243.279 234.307C243.26 235.179 243.232 236.879 243.189 237.988C243.146 239.097 243.092 239.563 243.065 239.909C242.999 240.734 243.023 240.943 243.008 241.217C242.977 241.772 242.954 242.153 242.906 242.574C242.874 242.945 242.837 243.317 242.779 243.655C242.741 243.853 242.686 244.102 242.61 244.394" stroke="#F6F6F6" stroke-width="5" stroke-linecap="round"/>
<path d="M229.599 235.552C229.593 235.529 229.549 235.485 229.45 235.438C229.123 235.281 228.67 235.676 228.074 236.202C227.786 236.456 227.618 236.741 227.481 236.959C227.389 237.104 226.904 237.58 226.162 238.289C225.537 238.887 225.466 239.208 225.304 239.769C225.189 240.167 225.181 240.382 225.049 241.102C224.924 241.781 224.889 242.396 224.898 242.764C224.908 243.199 225.102 243.536 225.409 244.02C225.578 244.286 226.122 244.876 226.546 245.297C226.73 245.48 226.957 245.742 227.213 246.142C227.57 246.7 227.879 247.054 227.947 247.119C228.041 247.209 228.34 247.535 229.101 248.208C229.588 248.638 230.326 249.192 230.754 249.532C231.293 249.959 231.492 250.118 231.694 250.228C231.914 250.347 232.378 250.415 233.566 250.481C234.427 250.529 235.816 250.489 236.667 250.477C237.79 250.46 238.212 250.413 238.513 250.354C239.15 250.231 239.538 250.004 240.003 249.678C240.308 249.463 240.714 249.092 241.027 248.795C241.339 248.499 241.535 248.274 241.73 248.024C241.925 247.775 242.115 247.507 242.348 247.005C242.581 246.503 242.852 245.775 243.038 245.197C243.224 244.619 243.315 244.213 243.419 243.552C243.523 242.891 243.636 241.989 243.694 241.483C243.761 240.898 243.759 240.753 243.77 240.601C243.785 240.391 243.787 240.157 243.811 239.135C243.832 238.223 243.829 236.513 243.82 235.48C243.812 234.447 243.787 234.141 243.746 233.866C243.67 233.352 243.43 232.832 243.12 232.326C242.869 231.917 242.611 231.651 242.338 231.365C241.649 230.646 241.377 230.533 241.022 230.238C240.653 229.932 240.402 229.767 240.04 229.581C239.77 229.441 239.474 229.398 238.982 229.362C238.601 229.333 237.949 229.341 237.475 229.356C236.721 229.379 236.395 229.444 235.973 229.489C235.593 229.529 234.878 229.623 234.35 229.712C233.498 229.855 232.973 230.071 232.571 230.273C232.173 230.474 231.71 230.843 231.231 231.249C230.903 231.526 230.722 231.794 230.526 232.151C230.403 232.375 230.273 232.708 230.08 233.053C229.887 233.397 229.647 233.749 229.06 234.413C228.473 235.077 227.547 236.044 227.055 236.562C226.459 237.187 226.34 237.415 226.224 237.65C226.086 237.929 226.045 238.142 225.928 238.452C225.874 238.616 225.788 238.901 225.738 239.072C225.688 239.244 225.676 239.295 225.647 239.445" stroke="#F6F6F6" stroke-width="5" stroke-linecap="round"/>
<path d="M222.143 233.429C222.108 233.54 221.965 233.865 221.775 234.283C221.591 234.688 221.513 234.871 221.428 235.101C221.393 235.197 221.322 235.338 221.089 235.936C220.857 236.534 220.459 237.583 220.232 238.182C219.886 239.094 219.824 239.339 219.629 239.977C219.47 240.494 219.205 241.039 219.073 241.399C219.014 241.56 219.012 241.75 218.992 242.085C218.939 242.955 219.052 243.277 219.074 243.493C219.09 243.625 219.102 243.763 219.111 243.965C219.117 244.102 219.126 244.31 219.153 244.552" stroke="#020202" stroke-width="5" stroke-linecap="round"/>
<path d="M222.149 234.885C222.165 234.711 222.217 234.437 222.346 234.015C222.424 233.761 222.578 233.489 222.657 233.304C222.732 233.13 222.935 232.762 223.067 232.404C223.163 232.143 223.454 231.644 223.655 231.292C223.698 231.216 223.792 231.12 224.138 230.749C224.483 230.377 225.089 229.742 225.478 229.328C226.215 228.544 226.453 228.288 226.804 227.936C227.063 227.677 227.487 227.279 227.92 226.878C228.139 226.676 228.305 226.489 228.597 226.207C228.971 225.846 229.256 225.591 229.72 225.24C230.115 224.942 230.826 224.395 231.214 224.104C231.602 223.813 231.644 223.792 232.016 223.526C232.388 223.261 233.088 222.752 233.501 222.465C234.139 222.02 234.316 222.013 234.953 221.955C235.529 221.903 236.625 221.856 238.078 221.842C239.531 221.828 241.31 221.862 242.387 221.861C243.784 221.86 244.163 221.789 244.269 221.783C244.326 221.78 244.387 221.765 244.389 221.731C244.395 221.624 244.141 221.54 243.664 221.44C243.319 221.369 242.756 221.309 241.974 221.284C241.192 221.259 240.205 221.284 239.354 221.34C238.503 221.396 237.818 221.48 237.42 221.534C236.93 221.601 236.716 221.644 235.935 221.779C235.273 221.894 234.081 222.134 233.271 222.315C232.46 222.495 232.07 222.617 231.618 222.797C231.166 222.977 230.665 223.212 230.349 223.37C229.91 223.59 229.732 223.714 229.03 224.208C228.387 224.661 227.186 225.558 226.46 226.132C225.734 226.706 225.524 226.94 225.377 227.122C224.897 227.715 224.74 228.317 224.621 228.558C224.303 229.206 224.049 229.656 223.772 230.227C223.631 230.517 223.526 230.776 223.417 230.997C223.377 231.079 223.067 231.577 222.572 232.362C222.265 232.849 222.165 233.095 222.103 233.217C222.028 233.369 221.768 234.025 221.415 234.901C221.228 235.365 221.173 235.707 221.142 235.924C221.136 235.968 221.127 236.015 221.118 236.057C221.109 236.1 221.101 236.138 221.083 236.23" stroke="#020202" stroke-width="5" stroke-linecap="round"/>
<path d="M231.571 222.444C231.772 222.178 232.292 221.64 232.554 221.471C232.643 221.413 232.75 221.337 232.885 221.268C232.991 221.214 233.565 220.963 234.496 220.611C234.887 220.464 235.122 220.399 235.521 220.326C235.921 220.254 236.479 220.181 238.61 220.246C240.74 220.311 244.426 220.516 247.027 220.739C249.628 220.962 251.033 221.196 251.908 221.355C253.091 221.57 253.441 221.686 253.689 221.764C254.265 221.946 254.793 222.1 255.027 222.182C255.157 222.227 255.552 222.339 256.116 222.528C256.396 222.622 256.627 222.745 256.931 222.884C257.153 222.986 257.277 223.062 258.094 223.52C258.869 223.962 260.377 224.829 261.267 225.376C262.156 225.922 262.382 226.121 262.623 226.407" stroke="#020202" stroke-width="5" stroke-linecap="round"/>
<path d="M225.845 229.784C225.747 229.914 225.427 230.41 225.04 231.134C224.415 232.303 223.753 233.571 223.442 234.42C223.091 235.376 222.646 236.477 222.31 237.403C221.546 239.503 221.345 240.307 221.205 241.326C221.117 241.971 221.091 242.98 221.16 244.571C221.201 245.52 221.367 246.75 221.46 247.523C221.552 248.295 221.593 248.572 221.654 248.94C221.714 249.308 221.792 249.759 221.911 250.32" stroke="#020202" stroke-width="5" stroke-linecap="round"/>
<path d="M264.809 272.925C264.801 273.138 264.663 273.923 264.127 274.858C263.459 276.025 262.791 276.157 262.145 276.614C261.588 277.008 260.89 277.689 259.618 278.62C257.17 280.413 256.092 281.257 255.554 281.432C255.232 281.536 254.862 281.655 254.203 281.82C252.988 282.153 251.644 282.434 250.689 282.556C250.312 282.611 250.151 282.652 249.939 282.693" stroke="#020202" stroke-width="5" stroke-linecap="round"/>
<path d="M248.52 282.877C247.693 282.879 245.697 282.976 244.24 283.004C243.712 283.015 243.299 282.983 242.676 282.901C241.7 282.772 240.142 282.683 238.346 282.411C235.939 282.047 234.974 281.495 234.135 281.029C233.59 280.727 233.208 280.412 231.14 278.999C230.369 278.471 228.954 277.84 227.845 277.26C226.911 276.771 225.765 275.556 225.248 274.995C224.763 274.467 224.333 273.763 223.881 273.013C223.607 272.559 223.212 271.965 221.981 269.848C221.566 269.134 221.005 267.868 220.242 266.184C219.597 264.763 219.657 264.206 219.566 263.68C219.485 263.169 219.387 262.804 219.344 262.47C219.329 262.295 219.329 262.11 219.387 261.833" stroke="#020202" stroke-width="5" stroke-linecap="round"/>
<path d="M270.604 263.93C270.636 264.242 270.701 265.08 270.711 266.993C270.717 268.12 270.339 269.055 269.902 269.868C269.594 270.442 268.511 271.8 267.824 272.573C267.558 272.871 267.084 273.399 266.37 274.223C264.754 276.087 263.896 276.513 262.932 277.318C262.464 277.709 261.47 278.412 260.257 279.295C259.682 279.712 258.561 280.062 256.655 280.574C255.728 280.824 254.854 280.933 253.857 281.033C251.763 281.241 250.336 281.302 249.75 281.422C249.145 281.546 248.652 281.683 247.824 281.901C246.09 282.36 244.803 282.538 244.537 282.546C244.27 282.554 243.618 282.585 242.212 282.475C241.322 282.364 240.076 282.143 239.348 281.991C238.62 281.839 238.448 281.763 238.219 281.466" stroke="#020202" stroke-width="5" stroke-linecap="round"/>
<path d="M268.515 266.101C268.817 266.085 269.377 265.704 269.891 265.312C270.404 264.921 270.711 264.511 271.035 264.142C271.138 264.024 271.261 263.852 271.33 263.822C271.61 263.697 271.256 264.729 271.131 265.345C271.036 265.809 270.522 266.515 270.283 266.875C269.759 267.667 271.43 265.505 271.746 264.559C271.99 263.829 271.905 263.351 271.945 262.839C272.028 261.783 272.373 260.241 272.851 258.144C273.023 257.385 273.216 256.617 274.002 254.754C274.585 253.372 275.694 251.173 276.268 249.946C276.916 248.561 276.948 248.266 276.97 247.495C277.026 245.606 276.962 244.198 276.932 243.834C276.822 242.519 276.6 241.145 276.514 240.502C276.452 240.205 276.397 239.962 276.371 239.75C276.359 239.637 276.352 239.51 276.344 239.379" stroke="#020202" stroke-width="5" stroke-linecap="round"/>
<path d="M277.368 234.096C277.831 234.375 278.788 234.878 279.929 235.419C280.51 235.695 280.715 236.063 280.819 236.236C280.873 236.325 280.904 236.426 280.824 236.51C280.605 236.737 280.288 236.808 280.238 236.98C280.124 237.366 280.828 237.55 282.2 238.187C283.233 238.667 284.269 239.128 285.912 239.756C287.312 240.291 288.762 240.452 289.709 240.562C290.695 240.677 291.525 240.847 292.055 240.949C292.559 241.045 293.494 241.28 294.254 241.442C295.589 241.728 296.462 241.827 296.935 241.912C297.184 241.957 297.416 241.921 297.608 241.849C297.816 241.772 297.924 241.545 297.988 241.329C298.053 241.105 297.969 240.837 297.82 240.56C297.46 239.892 296.255 239.262 294.547 238.057C293.52 237.332 292.234 236.279 291.325 235.613C289.975 234.624 288.931 234.174 287.907 233.706C285.976 232.825 284.941 232.337 284.274 232.039C282.819 231.388 280.961 230.69 279.766 230.087C279.102 229.751 278.604 229.527 278.026 229.245C276.952 228.721 275.757 228.247 274.599 227.678C273.915 227.342 273.011 226.954 271.3 226.425C269.589 225.896 267.092 225.249 265.64 224.897C264.188 224.544 263.856 224.505 263.08 224.361C262.303 224.216 261.092 223.968 260.032 223.788C258.107 223.46 257.045 223.34 256.487 223.211C254.658 222.791 253.947 222.889 253.091 222.79C251.759 222.635 250.511 222.31 249.678 222.038C249.467 221.968 249.309 221.88 249.303 221.795C249.287 221.566 250.562 221.471 252.212 221.431C253.94 221.389 254.588 221.866 255.502 222.113C255.839 222.203 256.308 222.278 258.466 222.88C260.624 223.483 264.458 224.598 267.237 225.535C270.016 226.471 271.622 227.195 272.568 227.64C273.514 228.086 273.751 228.232 276.301 229.323C278.851 230.414 283.706 232.445 286.411 233.619C290.091 235.216 290.464 235.663 290.504 235.609C292.113 233.432 287.207 233.321 286.525 233.05C285.82 232.77 284.754 232.419 283.765 232.122C282.161 231.641 280.37 231.21 279.266 230.874C279.047 230.807 278.959 230.746 279.005 230.678C279.68 229.673 282.108 230.854 282.639 231.046C283.26 231.271 284.446 231.655 285.069 231.842C285.732 232.04 287.301 232.533 288.503 233.057C288.841 233.205 289.051 233.342 289.879 233.797C292 234.96 293.501 235.837 293.734 235.943C294.33 236.211 294.817 236.741 295.272 237.224C295.617 237.591 296.341 238.368 296.755 238.995C297.02 239.397 296.954 240.062 296.981 240.826C296.988 240.995 296.998 241.113 296.954 241.116C296.775 241.125 296.336 240.568 295.326 239.843C293.905 238.824 292.729 238.245 292.29 237.941C291.881 237.659 291.419 237.439 290.694 237.015C289.433 236.278 288.293 235.699 287.664 235.23C286.971 234.712 286.054 233.791 284.774 232.564C283.349 231.197 282.481 230.191 281.924 229.809C281.584 229.576 281.079 229.338 280.122 229.007C279.166 228.675 277.761 228.276 276.852 228.019C274.749 227.424 273.568 227.183 272.921 227.055C272.12 226.896 270.547 226.621 269.419 226.329C269.22 226.266 268.985 226.203 267.405 225.713C265.824 225.223 262.905 224.308 259.83 223.412" stroke="#020202" stroke-width="5" stroke-linecap="round"/>
<path d="M220.372 309.003C220.466 308.933 220.837 308.696 220.989 308.593C221.051 308.552 220.624 308.88 220.22 309.18C220.076 309.287 220.062 309.311 219.751 309.415C219.44 309.52 218.834 309.708 218.321 309.882C217.809 310.056 217.41 310.21 217.016 310.331C216.622 310.453 216.246 310.538 216.029 310.59C215.683 310.673 215.538 310.73 215.174 310.834C215.06 310.867 214.94 310.91 214.65 310.973C214.36 311.036 213.905 311.119 213.657 311.162C213.223 311.237 212.777 311.265 212.409 311.248C212.214 311.239 212.005 311.195 211.658 311.106C211.311 311.017 210.832 310.874 210.528 310.787C210.11 310.672 209.882 310.632 209.666 310.611C209.56 310.604 209.461 310.601 209.359 310.593" stroke="#F6F6F6" stroke-width="2" stroke-linecap="round"/>
<path d="M217.519 310.252C217.552 310.215 217.671 310.105 217.841 310.011C218.11 309.863 218.445 309.647 218.669 309.478C218.75 309.418 218.822 309.379 218.976 309.282C219.327 309.062 219.577 308.891 219.765 308.739C220.231 308.362 220.592 308.074 220.674 307.986C220.749 307.905 220.821 307.792 220.862 307.702C220.871 307.68 220.811 307.698 220.549 307.873C220.287 308.047 219.813 308.375 219.479 308.62C219.145 308.866 218.965 309.021 218.803 309.156C218.506 309.404 218.228 309.622 217.977 309.832C217.857 309.932 217.761 310.034 217.931 309.974C218.101 309.914 218.541 309.693 218.834 309.535C219.127 309.376 219.258 309.286 219.424 309.154C220.062 308.647 220.187 308.44 220.292 308.307C220.486 308.063 220.581 307.969 220.672 307.871C220.787 307.747 220.848 307.586 220.863 307.555C220.905 307.464 220.686 307.736 220.512 307.899C220.476 307.932 220.455 307.946 220.446 307.941C220.364 307.888 220.537 307.693 220.614 307.569C220.731 307.38 220.913 307.203 221.101 306.958C221.479 306.465 221.661 306.248 221.847 306.009C221.913 305.924 222.136 305.637 222.616 305.034C222.893 304.685 223.271 304.278 223.484 304.031C223.864 303.592 224.039 303.303 224.191 303.04C224.417 302.648 224.565 302.252 224.635 302.067C224.712 301.867 224.798 301.651 224.901 301.392C224.978 301.199 225.053 301.026 225.153 300.825C225.209 300.711 225.302 300.481 225.448 300.108C225.625 299.657 225.711 299.348 225.784 299.158C225.93 298.778 226.075 298.381 226.202 298.138C226.383 297.791 226.688 297.505 226.785 297.372C226.825 297.316 226.884 297.226 226.991 297.028C227.098 296.831 227.252 296.529 227.403 296.166C227.553 295.803 227.697 295.387 227.778 295.142C227.879 294.839 227.894 294.583 227.902 294.251C227.912 293.821 227.902 293.495 227.928 293.269C227.946 293.121 227.977 292.939 227.991 292.702C227.979 292.187 227.922 291.988 227.888 291.9C227.874 291.862 227.865 291.838 227.855 291.802" stroke="#F6F6F6" stroke-width="2" stroke-linecap="round"/>
<path d="M227.809 295.722C227.789 295.491 227.734 294.955 227.724 294.829C227.713 294.683 227.707 294.52 227.661 294.186C227.646 294.07 227.632 294.005 227.623 293.898C227.607 293.686 227.574 293.196 227.557 292.644C227.549 292.358 227.464 292.151 227.239 291.753C227.088 291.485 226.806 291.119 226.635 290.889C226.407 290.582 226.314 290.483 226.265 290.419C226.202 290.339 225.968 290.061 225.675 289.682C225.552 289.523 225.49 289.48 225.419 289.439C225.361 289.405 225.272 289.393 224.835 289.367C224.451 289.344 223.737 289.349 223.297 289.35C222.857 289.35 222.711 289.358 222.306 289.408C221.901 289.458 221.239 289.55 220.766 289.638C220.022 289.775 219.717 289.907 219.636 289.948C219.467 290.036 219.266 290.235 219.076 290.445C218.715 290.847 218.628 291.252 218.489 291.517C218.447 291.596 218.385 291.724 218.225 292.099C218.065 292.474 217.811 293.093 217.613 293.541C217.416 293.989 217.283 294.246 217.17 294.447C216.882 294.96 216.73 295.181 216.579 295.439C216.376 295.783 216.187 296.04 215.96 296.369C215.763 296.654 215.403 297.18 215.203 297.466C215.004 297.753 214.976 297.785 214.752 298.031C214.529 298.277 214.111 298.736 213.877 298.99C213.547 299.349 213.414 299.428 213.267 299.504C213.191 299.543 212.943 299.599 212.557 299.664C212.379 299.694 212.232 299.686 211.931 299.636C211.63 299.586 211.179 299.485 210.898 299.428C210.618 299.371 210.522 299.361 210.141 299.35C209.761 299.338 209.1 299.326 208.349 299.298" stroke="#F6F6F6" stroke-width="2" stroke-linecap="round"/>
<path d="M188.331 309.807C188.517 309.919 188.87 310.112 189.783 310.539C190.378 310.818 190.83 310.914 191.492 311.044C192.046 311.153 193.057 311.269 194.378 311.339C195.698 311.41 197.301 311.41 198.162 311.414C199.301 311.42 199.691 311.45 200.845 311.473C201.873 311.493 203.8 311.48 204.829 311.484C205.858 311.488 205.93 311.495 206.629 311.512C207.327 311.528 208.65 311.553 209.584 311.579C210.518 311.604 211.023 311.629 212.286 311.663C213.55 311.697 215.556 311.74 217.299 311.671C219.041 311.603 220.459 311.422 221.688 311.232C222.918 311.042 223.915 310.848 226.422 310.109C228.928 309.371 232.913 308.093 235.924 307.189C238.934 306.284 240.85 305.79 242.836 305.282" stroke="#F6F6F6" stroke-width="2" stroke-linecap="round"/>
<path d="M137.811 298.947C137.982 299.074 138.554 299.359 139.571 299.716C140.302 299.973 141.486 300.336 142.189 300.572C142.893 300.808 143.085 300.892 143.238 300.959C143.391 301.026 143.5 301.073 142.517 300.438C141.534 299.804 139.456 298.488 138.346 297.785C137.157 297.033 136.854 296.88 136.482 296.715C136.267 296.62 135.941 296.501 135.426 296.299C134.893 296.09 133.945 295.843 132.898 295.436C132.316 295.209 132.108 295.072 131.984 295.098C131.918 295.111 131.863 295.173 131.828 295.234C131.76 295.352 131.81 295.507 131.883 295.642C132.011 295.878 132.273 295.982 132.534 296.117C132.957 296.334 133.211 296.484 133.606 296.688C133.754 296.765 132.828 296.581 131.299 296.211C130.433 296.002 130.132 295.909 129.741 295.526C129.48 295.272 129.252 294.764 129.143 294.565C128.978 294.264 129.846 295.319 130.563 295.852C131.313 296.41 131.919 296.605 132.125 296.699C132.281 296.771 132.62 296.971 133.397 297.398C133.893 297.67 134.598 298.047 135.13 298.321C135.991 298.765 136.401 298.955 136.543 299.046C136.627 299.099 136.741 299.155 138.303 299.799C139.865 300.443 142.874 301.67 144.486 302.318C146.099 302.966 146.223 302.997 148.792 303.702C151.36 304.406 156.368 305.783 161.978 306.84C167.588 307.896 173.648 308.591 177.666 308.97C181.685 309.348 183.478 309.39 184.782 309.476C186.086 309.561 186.846 309.689 187.789 309.862C188.731 310.035 189.833 310.25 190.555 310.381C191.277 310.511 191.585 310.55 191.957 310.605" stroke="#F6F6F6" stroke-width="2" stroke-linecap="round"/>
<path d="M148.385 304.092C148.417 304.174 148.649 304.446 149.521 304.891C150.01 305.141 150.628 305.228 151.631 305.465C152.304 305.624 153.303 305.901 155.256 306.187C157.209 306.473 160.083 306.77 163.038 307.016C165.993 307.261 168.941 307.446 170.507 307.55C172.073 307.655 172.168 307.673 173.797 308.059C175.427 308.446 178.588 309.199 180.906 309.656C183.225 310.113 184.603 310.251 185.539 310.356C186.476 310.461 186.928 310.529 187.667 310.57C188.406 310.611 189.419 310.623 189.983 310.637C190.547 310.651 190.632 310.666 191.262 310.674C191.892 310.682 193.065 310.682 194.206 310.682" stroke="#F6F6F6" stroke-width="2" stroke-linecap="round"/>
<path d="M150.362 305.345C150.284 305.277 149.452 304.99 147.708 304.624C147.341 304.547 147.139 304.478 146.393 304.338C145.792 304.226 144.735 304.061 143.406 303.663C142.077 303.265 140.507 302.648 139.388 302.181C138.269 301.714 137.647 301.417 136.751 301.074C135.854 300.731 134.702 300.351 133.878 300.037C133.054 299.722 132.593 299.484 132.048 299.17C131.503 298.856 130.888 298.473 129.975 297.865C129.063 297.258 127.87 296.437 127.133 295.894C126.396 295.35 126.15 295.11 125.742 294.501C125.335 293.891 124.773 292.92 124.319 292.189C123.219 290.421 122.969 290.056 122.733 289.631C122.63 289.445 122.544 289.303 122.493 289.268C122.43 289.223 122.575 289.505 122.962 290.044C123.289 290.5 123.936 291.287 124.787 292.18C125.638 293.073 126.687 294.038 127.26 294.555C127.889 295.123 128.17 295.331 128.965 295.908C129.542 296.326 130.522 296.922 131.204 297.363C132.257 298.043 132.818 298.398 133.146 298.569C133.378 298.69 134.002 298.979 134.989 299.357C135.43 299.526 135.76 299.614 136.007 299.697C136.253 299.781 136.408 299.848 139.828 300.83C143.248 301.813 149.929 303.708 153.448 304.69C156.967 305.673 157.122 305.684 157.905 305.827C158.688 305.97 160.095 306.244 161.073 306.458C162.052 306.671 162.56 306.816 163.743 307.031C164.926 307.247 166.767 307.527 168.783 307.866" stroke="#F6F6F6" stroke-width="2" stroke-linecap="round"/>
<path d="M126.474 289.95C126.355 289.889 126.011 289.629 125.469 289.328C125.21 289.184 125.026 289.032 124.787 289.043C124.647 289.049 124.631 289.321 124.46 289.443C123.881 289.855 123.491 289.481 123.265 289.547C122.787 289.688 122.577 288.981 122.167 288.447C121.896 288.094 121.701 287.521 121.593 287.218C121.491 286.931 121.297 286.573 120.965 285.808C120.739 285.286 120.535 285.083 120.411 284.889C120.265 284.66 119.915 284.031 119.475 283.17C119.246 282.723 119.101 282.438 119.027 282.287C118.654 281.527 118.132 280.662 117.966 280.329C117.855 280.106 117.799 279.881 117.758 279.757C117.621 279.34 118.109 280.748 118.38 281.351C118.583 281.803 118.832 282.323 119.127 282.979C119.285 283.332 119.503 283.999 119.699 284.459C119.895 284.92 120.039 285.163 120.225 285.494C120.41 285.825 120.633 286.236 120.889 286.652C121.144 287.069 121.425 287.478 121.751 287.92C122.424 288.836 122.923 289.427 123.122 289.633C123.206 289.716 123.256 289.758 123.595 290.116C123.934 290.475 124.559 291.15 125.288 291.956" stroke="#F6F6F6" stroke-width="2" stroke-linecap="round"/>
<path d="M299.869 351.867C299.93 351.902 300.526 352.173 301.425 352.557C302.587 353.053 302.823 353.315 303.06 353.479C303.194 353.572 303.688 354.04 304.141 354.551C304.228 354.649 303.657 354.55 302.794 354.131C301.93 353.712 300.698 353.009 300.043 352.632C299.246 352.174 299.058 352.028 298.908 351.958C298.832 351.923 299.517 352.486 300.367 353.09C300.741 353.355 300.927 353.447 301.182 353.637C301.542 353.905 301.825 354.221 302.156 354.548C302.376 354.765 302.719 355.068 303.128 355.393C303.536 355.717 304.004 356.05 304.448 356.341C304.891 356.632 305.296 356.872 305.642 357.062C306.254 357.398 306.794 357.652 307.412 357.949C307.775 358.123 308.258 358.304 308.722 358.537C309.185 358.769 309.621 359.039 310.001 359.3C310.381 359.561 310.693 359.806 310.817 359.92C310.893 359.99 310.39 359.788 309.724 359.449C309.334 359.25 308.89 358.824 308.316 358.322C307.626 357.72 306.731 357.257 306.523 357.124C306.484 357.099 306.431 357.101 306.372 357.125C306.236 357.179 306.119 357.302 306.027 357.401C305.986 357.445 305.99 357.501 306.016 357.559C306.148 357.85 306.414 358.009 306.633 358.167C307.013 358.439 307.563 358.615 308.259 358.93C308.646 359.106 308.941 359.421 309.398 359.892C309.63 360.13 309.826 360.364 310.145 360.627C310.464 360.889 310.749 361.141 311.099 361.419C311.219 361.514 311.703 361.938 312.693 362.707C313.226 363.122 313.904 363.479 314.53 363.81C315.155 364.141 315.729 364.408 316.053 364.554C316.377 364.699 316.434 364.716 317.292 365.017C318.149 365.318 319.806 365.904 320.696 366.213C321.657 366.547 321.94 366.593 322.566 366.663C323.618 366.782 324.425 366.718 324.609 366.682C324.654 366.673 324.568 366.608 323.831 366.375C323.093 366.143 321.697 365.727 320.409 365.215C319.12 364.702 317.981 364.106 317.041 363.694C316.1 363.282 315.393 363.073 314.708 362.841C314.023 362.61 313.382 362.363 312.938 362.207C312.493 362.051 312.264 361.994 311.35 361.61C310.435 361.226 308.84 360.517 307.852 360.048C306.863 359.58 306.529 359.374 306.312 359.229C305.996 359.018 305.799 358.823 305.076 358.217C304.469 357.708 303.362 356.805 302.758 356.316C302.154 355.827 302.084 355.783 301.831 355.565C301.137 354.966 300.66 354.524 300.575 354.456C300.301 354.236 300.017 353.871 299.551 353.459C299.184 353.134 298.513 352.621 298.157 352.333C297.766 352.015 297.689 351.933 297.595 351.857C297.551 351.821 297.518 351.787 297.49 351.853C297.18 352.582 297.696 353.574 297.698 353.789C297.7 354.073 296.92 353.973 296.599 354.086C296.223 354.219 295.601 354.483 294.727 354.968C294.546 355.068 294.467 355.106 294.152 355.28C293.837 355.454 293.291 355.765 292.794 356.081C292.297 356.398 291.867 356.71 291.571 356.941C290.882 357.481 290.57 358.129 290.309 358.73C290.113 359.18 290.047 359.831 289.972 360.147C289.946 360.255 289.909 360.351 289.886 360.484C289.873 360.564 289.845 360.666 290.169 359.965C290.494 359.264 291.168 357.757 291.601 356.849C292.168 355.662 292.501 355.278 292.703 355.061C292.82 354.936 293.049 354.874 293.333 354.801C293.504 354.757 294.02 354.743 294.879 354.666C295.643 354.598 296.124 354.496 296.388 354.455C297 354.36 297.44 354.37 298.048 354.361C298.527 354.354 299.355 354.348 299.86 354.367C300.524 354.391 300.788 354.519 300.987 354.595C301.159 354.66 301.913 355.049 302.942 355.637C303.305 355.848 303.343 355.878 304.087 356.324C304.831 356.77 306.28 357.629 307.802 358.546" stroke="#2B2B2B" stroke-width="2" stroke-linecap="round"/>
<path d="M242.108 379.361C242.081 379.361 242.004 379.338 241.928 379.257C241.822 379.145 242.028 378.958 242.108 378.865C242.397 378.53 243.059 378.258 243.31 378.1C243.576 377.932 243.792 377.794 244.086 377.686C244.184 377.649 244.328 377.645 245.029 377.63C245.731 377.615 246.991 377.605 247.681 377.594C248.372 377.583 248.455 377.572 248.449 377.573C248.345 377.586 248.163 377.63 248 377.696C247.918 377.733 247.838 377.775 247.743 377.874" stroke="#2B2B2B" stroke-width="2" stroke-linecap="round"/>
<path d="M138.496 78.4676C138.485 78.3957 138.367 78.1668 138.141 77.9094C138.09 77.8511 138.028 77.8158 137.891 77.7374C137.754 77.6589 137.536 77.5454 137.286 77.4331C137.035 77.3207 136.758 77.213 136.395 77.1019C136.031 76.9908 135.589 76.8796 135.145 76.7788C134.702 76.678 134.272 76.5908 134.031 76.5402C133.791 76.4895 133.754 76.4779 133.722 76.4692C133.689 76.4605 133.662 76.455 133.613 76.4448" stroke="#2B2B2B" stroke-width="2" stroke-linecap="round"/>
<path d="M251.091 122.981C251.018 123.258 251.002 123.56 251.078 124.38C251.14 125.061 251.133 125.301 251.185 125.681C251.221 125.939 251.238 126.199 251.298 126.497C251.385 126.922 251.45 127.164 251.523 127.542C251.646 128.177 251.833 128.42 251.981 128.685C252.108 128.914 252.119 129.09 252.149 129.11C252.406 129.289 252.028 128.5 251.829 128.227C251.789 128.171 251.817 128.108 251.87 128.077C251.922 128.046 252.012 128.041 252.71 128.155C253.408 128.269 254.713 128.502 255.708 128.703C256.703 128.905 257.348 129.068 257.742 129.159C258.59 129.357 259.19 129.506 259.468 129.583C259.613 129.623 260.031 129.741 260.791 130.016C261.735 130.358 262.417 130.723 262.833 130.942C263.743 131.421 263.936 131.683 264.344 132.005C264.493 132.122 264.597 132.193 265.007 132.558C265.375 132.885 266.076 133.491 266.483 133.854C267.157 134.457 267.456 134.786 267.765 135.07C267.996 135.283 268.322 135.718 269.116 136.662C269.572 137.204 270.019 137.855 270.351 138.447C270.43 138.589 270.566 138.855 270.741 139.223C270.808 139.368 270.829 139.43 270.851 139.55" stroke="#2B2B2B" stroke-width="2" stroke-linecap="round"/>
</svg>
