<svg width="500" height="500" viewBox="0 0 500 500" fill="none" xmlns="http://www.w3.org/2000/svg">
<path fill-rule="evenodd" clip-rule="evenodd" d="M326 377.062C322.96 376.552 319.96 375.882 317 375.062C308.46 372.022 300.79 367.522 294 361.562C287 360.482 280.83 357.642 275.5 353.062C267.57 370.292 256.74 385.292 243 398.062C242.38 397.952 241.88 397.622 241.5 397.062C238.27 399.432 236.11 402.432 235 406.062C229.46 411.762 223.46 416.932 217 421.562C205.5 426.772 193.5 429.102 181 428.562C176.19 427.322 172.19 424.822 169 421.062C162.65 413.872 156.48 406.542 150.5 399.062C147.56 390.252 144.23 381.582 140.5 373.062C140.18 350.732 140.34 328.392 141 306.062C121.29 301.392 102.96 293.552 85.9998 282.562C68.9498 265.732 63.4498 245.562 69.4998 222.062C74.5698 212.322 81.7298 204.492 90.9998 198.562C109.56 189.592 128.56 181.592 148 174.562C155.81 173.942 163.14 171.772 170 168.062C170.36 149.072 170.52 130.072 170.5 111.062C171.55 101.252 174.21 91.9215 178.5 83.0615C189.9 68.6615 202.4 55.1615 216 42.5615C225.54 36.7115 235.88 33.7115 247 33.5615C256.65 37.5415 264.15 44.0415 269.5 53.0615C286.64 78.2415 301.31 104.912 313.5 133.062C314.67 134.232 315.83 135.392 317 136.562C326.46 137.642 335.96 138.142 345.5 138.062C361.67 137.472 377.83 137.302 394 137.562C403.49 138.122 412.49 140.462 421 144.562C430.77 153.192 434.6 164.022 432.5 177.062C430.03 189.992 424.37 201.332 415.5 211.062C409.63 222.792 404.3 234.792 399.5 247.062C396.09 254.882 391.93 262.212 387 269.062C395.69 284.972 402.53 301.642 407.5 319.062C419.17 338.462 422.51 359.132 417.5 381.062C413.71 386.712 408.55 390.542 402 392.562C380.81 397.042 360.47 394.702 341 385.562C335.95 382.702 330.95 379.872 326 377.062Z" fill="#FEEA3B"/>
<path fill-rule="evenodd" clip-rule="evenodd" d="M345 196.062C337.6 192.372 329.94 189.202 322 186.562C316.26 185.982 310.59 184.982 305 183.562C287.53 179.372 276.36 185.872 271.5 203.062C269.52 214.812 271.52 225.812 277.5 236.062C279.91 238.522 282.74 240.352 286 241.562C293.96 242.932 301.96 243.602 310 243.562C314.74 239.952 318.9 235.782 322.5 231.062C325.38 223.592 327.54 215.932 329 208.062C328.49 205.682 327.82 203.342 327 201.062C327.33 200.732 327.67 200.392 328 200.062C334.45 204.372 341.12 205.042 348 202.062C352.15 218.162 350.31 233.492 342.5 248.062C337.48 254.422 331.31 259.252 324 262.562C314.91 264.772 306.24 268.102 298 272.562C285.38 275.482 272.72 278.152 260 280.562C242.21 283.012 224.54 282.342 207 278.562C183.21 271.612 170.87 255.772 170 231.062C171.37 231.222 172.71 231.052 174 230.562C177.52 227.212 180.85 223.712 184 220.062C183.97 229.152 186.47 237.482 191.5 245.062C206.93 259.842 221.93 259.172 236.5 243.062C238.84 238.032 241.17 233.032 243.5 228.062C244.27 223.972 243.93 219.972 242.5 216.062C238.45 211.302 235.45 205.972 233.5 200.062C230.63 197.102 227.13 195.262 223 194.562C208.35 191.892 195.02 194.892 183 203.562C179.5 206.232 176.17 209.062 173 212.062C175.59 200.712 180.92 190.882 189 182.562C200.82 174.072 213.16 166.402 226 159.562C245.77 152.062 266.27 148.562 287.5 149.062C300.77 148.712 312.6 152.542 323 160.562C327.21 164.072 331.04 167.902 334.5 172.062C338.82 179.702 342.32 187.702 345 196.062Z" fill="#FDFDFC"/>
<path fill-rule="evenodd" clip-rule="evenodd" d="M345 196.062C347.48 197.252 348.48 199.252 348 202.062C341.12 205.042 334.45 204.372 328 200.062C327.67 200.392 327.33 200.732 327 201.062C327.82 203.342 328.49 205.682 329 208.062C327.54 215.932 325.38 223.592 322.5 231.062C318.9 235.782 314.74 239.952 310 243.562C301.96 243.602 293.96 242.932 286 241.562C282.74 240.352 279.91 238.522 277.5 236.062C271.52 225.812 269.52 214.812 271.5 203.062C276.36 185.872 287.53 179.372 305 183.562C310.59 184.982 316.26 185.982 322 186.562C329.94 189.202 337.6 192.372 345 196.062Z" fill="#040404"/>
<path fill-rule="evenodd" clip-rule="evenodd" d="M288 191.062C291.53 190.912 294.36 192.242 296.5 195.062C297.17 200.062 297.17 205.062 296.5 210.062C292.84 213.932 288.34 215.092 283 213.562C280.37 210.772 278.37 207.602 277 204.062C277.4 202.362 277.9 200.702 278.5 199.062C281.86 196.532 285.02 193.862 288 191.062Z" fill="#F5F5F5"/>
<path fill-rule="evenodd" clip-rule="evenodd" d="M170.001 231.062C169.001 231.152 168.171 230.812 167.501 230.062C166.831 226.732 166.831 223.392 167.501 220.062C169.551 217.512 171.391 214.852 173.001 212.062C176.171 209.062 179.501 206.232 183.001 203.562C195.021 194.892 208.351 191.892 223.001 194.562C227.131 195.262 230.631 197.102 233.501 200.062C235.451 205.972 238.451 211.302 242.501 216.062C243.931 219.972 244.271 223.972 243.501 228.062C241.171 233.032 238.841 238.032 236.501 243.062C221.931 259.172 206.931 259.842 191.501 245.062C186.471 237.482 183.971 229.152 184.001 220.062C180.851 223.712 177.521 227.212 174.001 230.562C172.711 231.052 171.371 231.222 170.001 231.062Z" fill="#040404"/>
<path fill-rule="evenodd" clip-rule="evenodd" d="M217.999 203.062C226.059 201.962 230.399 205.462 230.999 213.562C230.529 217.002 229.359 220.172 227.499 223.062C222.109 228.662 217.109 228.332 212.499 222.062C210.249 214.562 212.079 208.222 217.999 203.062Z" fill="#F7F7F7"/>
<path fill-rule="evenodd" clip-rule="evenodd" d="M278.001 249.061C281.381 248.901 283.381 250.401 284.001 253.561C282.531 259.491 279.531 264.491 275.001 268.561C271.671 269.231 268.331 269.231 265.001 268.561C261.851 266.961 258.521 265.961 255.001 265.561C251.571 263.191 251.231 260.531 254.001 257.561C259.821 257.321 265.491 257.991 271.001 259.561C273.221 255.951 275.551 252.451 278.001 249.061Z" fill="#0C0C0C"/>
<path fill-rule="evenodd" clip-rule="evenodd" d="M355 252.062C359.23 251.122 361.73 252.792 362.5 257.062C363.17 260.062 363.17 263.062 362.5 266.062C361.19 269.292 360.19 272.622 359.5 276.062C353.76 285.862 347.76 295.532 341.5 305.062C339.3 307.602 336.8 309.772 334 311.562C330.68 311.622 327.84 312.792 325.5 315.062C326.13 323.152 323.97 330.322 319 336.562C315.88 336.922 313.38 335.752 311.5 333.062C310.94 328.572 311.27 324.242 312.5 320.062C308.97 317.222 305.31 314.552 301.5 312.062C298.88 307.592 299.71 304.092 304 301.562C306.88 301.862 309.71 301.692 312.5 301.062C316.06 302.612 319.06 304.952 321.5 308.062C336.35 294.352 346.02 277.692 350.5 258.062C351.83 255.902 353.33 253.902 355 252.062Z" fill="#090702"/>
<path fill-rule="evenodd" clip-rule="evenodd" d="M159 280.062C163.08 280.622 167.08 280.782 171 280.562C178.28 290.842 185.95 300.842 194 310.562C200.38 314.752 207.04 318.422 214 321.562C215.76 322.362 217.43 322.192 219 321.062C220.8 317.772 223.13 314.932 226 312.562C232.69 311.412 237.03 314.072 239 320.562C237.03 323.532 234.7 326.202 232 328.562C233.6 331.092 234.93 333.752 236 336.562C243.46 336.332 245.62 339.502 242.5 346.062C230.08 352.192 223.24 348.192 222 334.062C215.51 332.822 209.18 330.992 203 328.562C197.67 325.232 192.33 321.892 187 318.562C176.5 309.392 166.67 299.562 157.5 289.062C157 287.562 156.5 286.062 156 284.562C156.81 282.922 157.81 281.422 159 280.062Z" fill="#070601"/>
<path fill-rule="evenodd" clip-rule="evenodd" d="M317 375.062C319.96 375.882 322.96 376.552 326 377.062C328.37 380.312 329.87 383.982 330.5 388.062C331.64 406.702 333.8 425.202 337 443.562C333.22 447.392 329.89 451.722 327 456.562C321.86 460.372 316.53 460.872 311 458.062C305.81 461.482 303.31 460.152 303.5 454.062C308.4 449.532 313.9 445.862 320 443.062C320.58 435.322 319.74 427.652 317.5 420.062C316.41 404.992 316.24 389.992 317 375.062Z" fill="#050505"/>
<path fill-rule="evenodd" clip-rule="evenodd" d="M243 398.062C245.42 401.242 246.92 404.912 247.5 409.062C248.83 420.422 250.17 431.752 251.5 443.062C258.98 446.372 265.81 450.712 272 456.062C273.38 460.362 271.71 462.362 267 462.062C266.99 465.262 265.32 466.922 262 467.062C255.77 465.862 250.27 463.192 245.5 459.062C242.01 452.092 239.68 444.762 238.5 437.062C237.18 426.722 236.02 416.392 235 406.062C236.11 402.432 238.27 399.432 241.5 397.062C241.88 397.622 242.38 397.952 243 398.062Z" fill="#060606"/>
</svg>
