<svg width="500" height="500" viewBox="0 0 500 500" fill="none" xmlns="http://www.w3.org/2000/svg">
<path fill-rule="evenodd" clip-rule="evenodd" d="M398.999 269.062C398.269 270.272 397.929 271.602 397.999 273.062C393.949 273.822 392.949 276.162 394.999 280.062C389.149 310.742 371.809 331.902 342.999 343.562C329.489 348.562 315.829 353.062 301.999 357.062C297.189 358.282 292.529 359.612 287.999 361.062C264.159 365.182 240.159 366.182 215.999 364.062C212.159 363.182 208.159 362.522 203.999 362.062C187.819 359.522 171.819 355.682 155.999 350.562C136.499 344.062 122.339 331.562 113.499 313.062C109.819 300.652 105.979 288.322 101.999 276.062C109.599 279.722 117.599 280.892 125.999 279.562C128.699 278.612 129.529 276.782 128.499 274.062C117.659 270.952 107.159 266.952 96.9988 262.062C88.9988 241.742 86.4988 220.742 89.4988 199.062C92.8488 179.992 98.5188 161.662 106.499 144.062C113.619 130.612 123.779 120.112 136.999 112.562C147.639 107.572 158.639 103.572 169.999 100.562C182.819 90.6419 196.489 81.9819 210.999 74.5619C222.379 69.9719 234.209 67.8019 246.499 68.0619C269.669 69.3219 292.829 70.4919 315.999 71.5619C338.689 72.6519 356.519 82.4919 369.499 101.062C381.119 119.972 391.459 139.642 400.499 160.062C409.559 177.772 412.559 196.442 409.499 216.062C406.469 233.832 402.969 251.502 398.999 269.062Z" fill="#FEA827"/>
<path fill-rule="evenodd" clip-rule="evenodd" d="M252.001 94.0615C258.531 93.8015 260.701 96.8015 258.501 103.061C257.671 104.731 256.831 106.391 256.001 108.061C258.341 109.461 260.511 111.131 262.501 113.061C262.951 115.971 262.281 118.641 260.501 121.061C259.601 122.261 258.431 123.091 257.001 123.561C253.321 123.671 249.661 123.671 246.001 123.561C239.411 129.691 231.741 133.361 223.001 134.561C220.351 130.901 220.691 127.401 224.001 124.061C219.421 121.521 214.921 118.851 210.501 116.061C209.291 112.791 208.951 109.461 209.501 106.061C210.971 104.551 212.811 103.891 215.001 104.061C219.101 104.651 223.101 105.651 227.001 107.061C227.081 104.231 227.251 101.231 227.501 98.0615C229.651 96.1215 232.151 95.6215 235.001 96.5615C237.411 99.2615 240.241 101.421 243.501 103.061C246.541 100.191 249.371 97.1915 252.001 94.0615Z" fill="#50AE4F"/>
<path fill-rule="evenodd" clip-rule="evenodd" d="M357 225.061C349.4 220.761 341.4 217.261 333 214.561C326.89 214.191 320.89 213.191 315 211.561C296.69 206.791 284.86 213.291 279.5 231.061C276.41 243.401 278.08 255.071 284.5 266.061C287.21 269.661 290.71 272.161 295 273.561C303.6 275.101 312.27 275.441 321 274.561C328.09 270.141 332.92 263.971 335.5 256.061C337.55 250.371 339.05 244.531 340 238.561C340.02 235.561 339.35 232.731 338 230.061C338.5 229.731 339 229.391 339.5 229.061C344.53 232.141 350.03 233.811 356 234.061C357.57 233.811 358.91 233.141 360 232.061C368.7 258.461 361.7 279.621 339 295.561C318.28 308.471 295.94 317.471 272 322.561C253.66 323.041 235.32 322.711 217 321.561C182.66 313.711 163.66 292.211 160 257.061C160.38 248.101 162.88 239.761 167.5 232.061C177.01 220.371 185.01 207.711 191.5 194.061C203.57 181.441 218.41 174.281 236 172.561C243.33 171.891 250.67 171.891 258 172.561C271.56 175.101 285.22 176.761 299 177.561C323.56 179.401 341.73 190.901 353.5 212.061C355.36 216.211 356.53 220.541 357 225.061Z" fill="#FDFDFC"/>
<path fill-rule="evenodd" clip-rule="evenodd" d="M356.999 225.061C360.849 226.121 361.849 228.461 359.999 232.061C358.909 233.141 357.569 233.811 355.999 234.061C350.029 233.811 344.529 232.141 339.499 229.061C338.999 229.391 338.499 229.731 337.999 230.061C339.349 232.731 340.019 235.561 339.999 238.561C339.049 244.531 337.549 250.371 335.499 256.061C332.919 263.971 328.089 270.141 320.999 274.561C312.269 275.441 303.599 275.101 294.999 273.561C290.709 272.161 287.209 269.661 284.499 266.061C278.079 255.071 276.409 243.401 279.499 231.061C284.859 213.291 296.689 206.791 314.999 211.561C320.889 213.191 326.889 214.191 332.999 214.561C341.399 217.261 349.399 220.761 356.999 225.061Z" fill="#040404"/>
<path fill-rule="evenodd" clip-rule="evenodd" d="M96.9999 262.062C107.16 266.952 117.66 270.952 128.5 274.062C129.53 276.782 128.7 278.612 126 279.562C117.6 280.892 109.6 279.722 102 276.062C89.7899 269.952 78.1299 262.782 66.9999 254.562C63.7099 251.152 61.0499 247.322 58.9999 243.062C56.8799 244.452 54.5499 245.122 51.9999 245.062C47.0899 244.622 42.2499 243.952 37.4999 243.062C36.7599 241.122 36.9199 239.292 37.9999 237.562C41.5399 234.392 45.5399 233.392 49.9999 234.562C55.0699 231.422 58.7399 227.092 60.9999 221.562C67.0999 219.142 70.0999 221.312 69.9999 228.062C70.1499 230.812 69.4799 233.312 67.9999 235.562C76.6399 243.872 84.9799 252.542 92.9999 261.562C94.2899 262.052 95.6299 262.222 96.9999 262.062Z" fill="#070605"/>
<path fill-rule="evenodd" clip-rule="evenodd" d="M295.001 220.061C300.311 219.301 304.151 221.301 306.501 226.061C306.541 230.721 306.211 235.381 305.501 240.061C304.331 241.231 303.171 242.391 302.001 243.561C298.331 244.231 294.671 244.231 291.001 243.561C289.331 240.961 287.501 238.461 285.501 236.061C284.751 233.261 285.081 230.591 286.501 228.061C289.831 225.891 292.671 223.231 295.001 220.061Z" fill="#F5F5F5"/>
<path fill-rule="evenodd" clip-rule="evenodd" d="M209 222.062C217.58 221.532 225.92 222.692 234 225.562C237.87 228.082 240.04 231.582 240.5 236.062C247.39 241.832 250.39 249.162 249.5 258.062C246.41 269.092 240.24 277.922 231 284.562C208.42 292.682 193.58 285.182 186.5 262.062C186.14 257.692 186.14 253.362 186.5 249.062C183.03 253.532 179.2 257.692 175 261.562C172.4 262.332 169.9 262.162 167.5 261.062C166.83 258.062 166.83 255.062 167.5 252.062C171.95 242.612 178.78 235.452 188 230.562C194.65 226.632 201.65 223.792 209 222.062Z" fill="#040404"/>
<path fill-rule="evenodd" clip-rule="evenodd" d="M395 280.062C392.95 276.162 393.95 273.822 398 273.062C397.93 271.602 398.27 270.272 399 269.062C407.68 266.782 416.02 263.612 424 259.562C427.59 256.852 431.09 254.012 434.5 251.062C435.17 249.062 435.17 247.062 434.5 245.062C431.46 242.362 428.8 239.362 426.5 236.062C424.59 230.472 426.42 228.302 432 229.562C435.89 232.672 440.22 235.002 445 236.562C449.03 236.432 453.03 236.102 457 235.562C464.6 238.402 464.93 242.072 458 246.562C454.86 248.252 451.52 249.422 448 250.062C446.43 253.522 444.6 256.862 442.5 260.062C433.27 270.602 421.77 277.432 408 280.562C403.61 281.272 399.28 281.102 395 280.062Z" fill="#060606"/>
<path fill-rule="evenodd" clip-rule="evenodd" d="M223 232.061C230.84 231.571 234.84 235.241 235 243.061C235.42 251.201 231.76 256.201 224 258.061C221.91 258.071 220.07 257.411 218.5 256.061C211.9 246.511 213.4 238.511 223 232.061Z" fill="#F6F6F6"/>
<path fill-rule="evenodd" clip-rule="evenodd" d="M285 282.062C287.03 281.902 289.03 282.062 291 282.562C291.73 290.122 289.06 296.462 283 301.562C279.07 303.192 275.07 303.192 271 301.562C267.84 299.982 264.51 298.982 261 298.562C257 295.562 257 292.562 261 289.562C263 288.892 265 288.892 267 289.562C270.79 291.992 274.79 292.822 279 292.062C280.63 288.452 282.63 285.112 285 282.062Z" fill="#0D0D0D"/>
<path fill-rule="evenodd" clip-rule="evenodd" d="M302 357.062C303.65 363.602 304.82 370.262 305.5 377.062C306 388.722 306.17 400.392 306 412.062C314.37 411.032 321.87 413.032 328.5 418.062C329.17 419.392 329.17 420.732 328.5 422.062C323.24 427.732 316.74 429.562 309 427.562C304.9 426.702 300.9 425.532 297 424.062C294.8 402.912 291.8 381.912 288 361.062C292.53 359.612 297.19 358.282 302 357.062Z" fill="#050505"/>
<path fill-rule="evenodd" clip-rule="evenodd" d="M203.999 362.062C208.159 362.522 212.159 363.182 215.999 364.062C215.749 378.742 215.579 393.402 215.499 408.062C216.289 410.152 217.459 411.982 218.999 413.562C223.669 415.892 228.329 418.232 232.999 420.562C236.649 423.192 237.649 426.522 235.999 430.562C229.669 431.232 223.329 431.232 216.999 430.562C211.389 426.282 206.549 421.452 202.499 416.062C201.509 398.002 202.009 380.002 203.999 362.062Z" fill="#040404"/>
</svg>
