<svg width="500" height="500" viewBox="0 0 500 500" fill="none" xmlns="http://www.w3.org/2000/svg">
<path fill-rule="evenodd" clip-rule="evenodd" d="M408.999 116.062C406.969 127.012 401.309 129.842 391.999 124.562C386.399 118.972 381.569 112.802 377.499 106.062C376.449 110.882 374.779 115.542 372.499 120.062C369.569 122.322 367.399 125.162 365.999 128.562C360.369 131.162 356.869 129.322 355.499 123.062C353.609 112.602 354.279 102.262 357.499 92.0616C358.169 89.0616 358.169 86.0616 357.499 83.0616C355.369 86.1916 352.869 89.0216 349.999 91.5616C341.999 97.8916 333.999 104.232 325.999 110.562C317.209 115.262 313.049 112.762 313.499 103.062C315.279 100.292 316.609 97.2916 317.499 94.0616C321.479 90.0916 324.979 85.7616 327.999 81.0616C322.529 80.1516 317.029 79.4816 311.499 79.0616C306.349 79.9516 301.179 80.1216 295.999 79.5616C294.459 78.4516 293.799 76.9516 293.999 75.0616C293.579 72.2416 294.579 70.0716 296.999 68.5616C300.859 66.8016 304.529 64.8016 307.999 62.5616C314.139 61.9916 319.809 59.9916 324.999 56.5616C331.409 55.6516 337.739 54.4916 343.999 53.0616C349.589 54.5216 355.249 55.5216 360.999 56.0616C364.059 47.0516 367.229 38.0516 370.499 29.0616C375.699 25.9916 380.369 26.6616 384.499 31.0616C386.019 34.9316 386.349 38.9316 385.499 43.0616C382.809 49.9416 379.979 56.7716 376.999 63.5616C377.939 65.5016 379.269 67.1716 380.999 68.5616C389.789 73.6816 396.949 80.5116 402.499 89.0616C401.979 95.7316 403.639 101.732 407.499 107.062C408.649 109.952 409.149 112.952 408.999 116.062Z" fill="#4DAE51"/>
<path fill-rule="evenodd" clip-rule="evenodd" d="M294 75.0615C293.8 76.9515 294.46 78.4515 296 79.5615C301.18 80.1215 306.35 79.9515 311.5 79.0615C317.03 79.4815 322.53 80.1515 328 81.0615C324.98 85.7615 321.48 90.0915 317.5 94.0615C316.61 97.2915 315.28 100.292 313.5 103.062C313.05 112.762 317.21 115.262 326 110.562C334 104.232 342 97.8915 350 91.5615C352.87 89.0215 355.37 86.1915 357.5 83.0615C358.17 86.0615 358.17 89.0615 357.5 92.0615C354.28 102.262 353.61 112.602 355.5 123.062C356.87 129.322 360.37 131.162 366 128.562C367.4 125.162 369.57 122.322 372.5 120.062C374.78 115.542 376.45 110.882 377.5 106.062C381.57 112.802 386.4 118.972 392 124.562C401.31 129.842 406.97 127.012 409 116.062C412.54 126.472 414.54 137.312 415 148.562C413.37 171.022 412.53 193.522 412.5 216.062C411.47 226.592 409.47 236.922 406.5 247.062C397.91 272.492 387.58 297.162 375.5 321.062C363.5 335.562 350.33 348.902 336 361.062C336.19 349.582 334.02 338.582 329.5 328.062C325.6 324.052 321.1 323.212 316 325.562C315.44 326.282 315.11 327.122 315 328.062C316.78 342.392 318.45 356.732 320 371.062C315.26 373.762 310.26 375.932 305 377.562C292.65 380.732 280.32 383.892 268 387.062C265.93 385.612 263.76 384.272 261.5 383.062C258.86 383.662 257.7 385.332 258 388.062C255 387.732 253.67 389.062 254 392.062C243.35 394.562 232.68 397.062 222 399.562C214.37 400.632 206.7 401.132 199 401.062C197.73 397.952 195.56 395.622 192.5 394.062C190.1 394.962 188.6 396.632 188 399.062C165.88 397.872 145.88 390.872 128 378.062C127.61 361.992 128.28 345.992 130 330.062C129.83 326.732 129.67 323.392 129.5 320.062C127.64 317.352 125.14 316.522 122 317.562C120.12 319.812 118.62 322.312 117.5 325.062C114.68 338.252 113.52 351.582 114 365.062C106 357.552 98.8399 349.222 92.4999 340.062C89.3999 334.002 87.0699 327.672 85.4999 321.062C83.9599 298.422 83.6299 275.752 84.4999 253.062C85.1199 246.912 87.1199 241.242 90.4999 236.062C107.66 214.082 128.83 197.242 154 185.562C159.65 184.452 165.31 183.452 171 182.562C185.76 181.542 200.42 179.872 215 177.562C230.24 171.652 241.74 161.482 249.5 147.062C260.83 126.392 272.17 105.732 283.5 85.0615C286.23 80.8315 289.73 77.4915 294 75.0615Z" fill="#9C27B0"/>
<path fill-rule="evenodd" clip-rule="evenodd" d="M312 256.061C303.93 251.711 295.26 249.211 286 248.561C277.27 246.801 268.6 246.801 260 248.561C250.4 255.341 245.73 264.671 246 276.561C246.82 302.671 260.15 313.001 286 307.561C291.21 304.011 295.38 299.511 298.5 294.061C301.47 287.141 303.64 279.971 305 272.561C301.3 264.191 302.97 262.521 310 267.561C312.31 268.061 314.64 268.221 317 268.061C326.9 287.191 323.9 304.021 308 318.561C300.72 323.511 293.72 328.841 287 334.561C272.24 340.411 256.91 343.751 241 344.561C201.32 353.811 171.15 341.311 150.5 307.061C148.7 303.491 147.2 299.821 146 296.061C150.91 292.991 155.07 288.991 158.5 284.061C158.83 288.391 159.17 292.731 159.5 297.061C166.86 318.321 181.03 324.821 202 316.561C211.49 309.581 217.16 300.251 219 288.561C218.44 281.601 215.6 275.771 210.5 271.061C208.8 263.371 203.97 259.201 196 258.561C174.41 256.531 157.08 264.031 144 281.061C143.76 267.961 147.26 255.961 154.5 245.061C156.67 242.891 158.83 240.731 161 238.561C173.2 231.291 185.54 224.291 198 217.561C220.76 210.521 242.76 212.521 264 223.561C272.71 223.501 280.71 225.831 288 230.561C296.63 238.681 304.63 247.181 312 256.061Z" fill="#FCFCFD"/>
<path fill-rule="evenodd" clip-rule="evenodd" d="M312.001 256.062C315.701 258.142 319.531 260.142 323.501 262.062C324.601 267.802 322.431 269.802 317.001 268.062C314.641 268.222 312.311 268.062 310.001 267.562C302.971 262.522 301.301 264.192 305.001 272.562C303.641 279.972 301.471 287.142 298.501 294.062C295.381 299.512 291.211 304.012 286.001 307.562C260.151 313.002 246.821 302.672 246.001 276.562C245.731 264.672 250.401 255.342 260.001 248.562C268.601 246.802 277.271 246.802 286.001 248.562C295.261 249.212 303.931 251.712 312.001 256.062Z" fill="#040404"/>
<path fill-rule="evenodd" clip-rule="evenodd" d="M261.001 256.061C265.721 255.111 269.561 256.451 272.501 260.061C272.751 265.071 272.421 270.071 271.501 275.061C268.191 278.891 264.031 280.051 259.001 278.561C257.511 276.071 255.681 273.911 253.501 272.061C252.831 269.391 252.831 266.731 253.501 264.061C256.331 261.721 258.831 259.061 261.001 256.061Z" fill="#F4F4F4"/>
<path fill-rule="evenodd" clip-rule="evenodd" d="M146 296.062C144.36 296.272 142.86 295.942 141.5 295.062C140.31 289.932 141.14 285.262 144 281.062C157.08 264.032 174.41 256.532 196 258.562C203.97 259.202 208.8 263.372 210.5 271.062C215.6 275.772 218.44 281.602 219 288.562C217.16 300.252 211.49 309.582 202 316.562C181.03 324.822 166.86 318.322 159.5 297.062C159.17 292.732 158.83 288.392 158.5 284.062C155.07 288.992 150.91 292.992 146 296.062Z" fill="#040405"/>
<path fill-rule="evenodd" clip-rule="evenodd" d="M193.999 267.062C201.089 266.982 204.749 270.482 204.999 277.562C204.999 286.562 200.659 291.222 191.999 291.562C182.519 282.602 183.189 274.442 193.999 267.062Z" fill="#F5F5F5"/>
<path fill-rule="evenodd" clip-rule="evenodd" d="M253.001 314.061C256.601 313.501 258.601 315.001 259.001 318.561C257.531 324.491 254.531 329.491 250.001 333.561C241.831 334.161 234.331 332.331 227.501 328.061C226.781 324.101 228.451 321.771 232.501 321.061C235.731 322.031 238.901 323.191 242.001 324.561C243.331 325.231 244.671 325.231 246.001 324.561C248.221 320.951 250.551 317.451 253.001 314.061Z" fill="#0B0B0B"/>
<path fill-rule="evenodd" clip-rule="evenodd" d="M128 378.062C125.53 386.202 125.36 394.532 127.5 403.062C130.07 403.572 132.4 404.572 134.5 406.062C135.42 410.112 137.09 413.782 139.5 417.062C140.43 421.642 138.6 423.142 134 421.562C131.47 419.532 128.8 417.702 126 416.062C119.68 418.212 113.35 419.712 107 420.562C105.7 418.022 105.87 415.522 107.5 413.062C110.88 409.462 114.71 406.462 119 404.062C117.53 401.252 116.7 398.252 116.5 395.062C115.28 385.092 114.45 375.092 114 365.062C113.52 351.582 114.68 338.252 117.5 325.062C118.62 322.312 120.12 319.812 122 317.562C125.14 316.522 127.64 317.352 129.5 320.062C129.67 323.392 129.83 326.732 130 330.062C128.28 345.992 127.61 361.992 128 378.062Z" fill="#050306"/>
<path fill-rule="evenodd" clip-rule="evenodd" d="M336 361.061C337.75 377.731 336.75 394.231 333 410.561C335.01 414.411 337.18 418.251 339.5 422.061C340.17 424.061 340.17 426.061 339.5 428.061C338.11 429.111 336.61 429.281 335 428.561C327.81 417.651 317.81 413.981 305 417.561C303.92 415.831 303.76 414.001 304.5 412.061C307.23 407.811 311.07 405.481 316 405.061C318.5 393.911 319.83 382.581 320 371.061C318.45 356.731 316.78 342.391 315 328.061C315.11 327.121 315.44 326.281 316 325.561C321.1 323.211 325.6 324.051 329.5 328.061C334.02 338.581 336.19 349.581 336 361.061Z" fill="#030204"/>
<path fill-rule="evenodd" clip-rule="evenodd" d="M268.001 387.062C267.711 394.122 268.211 401.122 269.501 408.062C270.171 423.732 270.171 439.392 269.501 455.062C266.991 459.402 265.331 464.072 264.501 469.062C261.101 472.762 256.941 473.932 252.001 472.562C247.721 471.612 243.891 469.772 240.501 467.062C238.351 464.022 238.511 461.192 241.001 458.562C247.021 456.662 253.021 454.992 259.001 453.562C258.191 433.022 256.521 412.522 254.001 392.062C253.671 389.062 255.001 387.732 258.001 388.062C257.701 385.332 258.861 383.662 261.501 383.062C263.761 384.272 265.931 385.612 268.001 387.062Z" fill="#050505"/>
<path fill-rule="evenodd" clip-rule="evenodd" d="M199 401.062C199.65 402.652 200.15 404.312 200.5 406.062C201.77 425.712 202.1 445.382 201.5 465.062C195.47 469.702 188.64 471.202 181 469.562C177.62 468.682 174.28 467.682 171 466.562C166.19 463.212 165.86 459.542 170 455.562C176.37 455.272 182.7 454.772 189 454.062C188.85 435.722 188.52 417.392 188 399.062C188.6 396.632 190.1 394.962 192.5 394.062C195.56 395.622 197.73 397.952 199 401.062Z" fill="#080808"/>
</svg>
