<svg width="500" height="500" viewBox="0 0 500 500" fill="none" xmlns="http://www.w3.org/2000/svg">
<path fill-rule="evenodd" clip-rule="evenodd" d="M339 407.061C334.44 400.291 330.11 393.291 326 386.061C333.39 386.231 340.72 385.731 348 384.561C358.43 367.591 353.77 358.091 334 356.061C327.35 356.751 320.68 356.921 314 356.561C310.31 357.121 306.65 357.791 303 358.561C302.44 358.941 302.11 359.441 302 360.061C300.38 360.601 298.72 360.931 297 361.061C287.51 358.011 277.84 354.851 268 351.561C253.46 348.961 244.79 354.801 242 369.061C242.4 376.361 246.07 381.201 253 383.561C259.23 385.531 265.56 387.031 272 388.061C268.56 393.961 264.89 399.631 261 405.061C245.75 402.481 231.09 397.981 217 391.561C194.81 378.711 174.31 363.541 155.5 346.061C145.84 354.721 135.34 362.221 124 368.561C111.65 373.221 99.3103 373.221 87.0003 368.561C71.2303 361.271 56.7303 352.101 43.5003 341.061C35.7703 322.941 41.7703 312.941 61.5003 311.061C65.6003 311.381 69.4303 312.541 73.0003 314.561C79.2403 321.711 85.2403 329.041 91.0003 336.561C96.4703 340.131 102.47 342.301 109 343.061C113.37 342.041 117.37 340.211 121 337.561C126.8 332.761 132.3 327.591 137.5 322.061C135.9 312.171 132.56 302.841 127.5 294.061C125.58 273.061 125.58 252.061 127.5 231.061C129.75 218.811 132.92 206.811 137 195.061C135.31 193.011 134.14 190.671 133.5 188.061C133.26 179.301 132.26 170.631 130.5 162.061C129.83 155.731 129.83 149.391 130.5 143.061C132.57 135.841 135.24 128.841 138.5 122.061C146.44 106.511 154.11 90.8413 161.5 75.0613C167.14 67.0413 174.64 64.8713 184 68.5613C190.58 70.6413 196.91 73.3113 203 76.5613C218.52 88.8213 233.85 101.321 249 114.061C264.11 109.691 279.44 108.861 295 111.561C309.95 113.051 324.29 116.881 338 123.061C349.57 117.341 359.9 109.841 369 100.561C381.81 90.8213 395.81 83.1513 411 77.5613C423.31 73.8013 431.81 77.9613 436.5 90.0613C443.26 108.081 449.26 126.411 454.5 145.061C456.33 157.881 454.83 170.211 450 182.061C452.37 190.871 453.53 199.871 453.5 209.061C454.78 216.471 456.45 223.801 458.5 231.061C460.42 266.741 454.75 301.071 441.5 334.061C434.85 343.631 429.52 353.961 425.5 365.061C416.48 379.511 403.65 389.011 387 393.561C381.71 394.771 376.37 395.771 371 396.561C360.62 401.311 349.95 404.811 339 407.061Z" fill="#607D8B"/>
<path fill-rule="evenodd" clip-rule="evenodd" d="M427 245.061C419.42 239.331 411.42 234.161 403 229.561C392.35 226.231 381.68 222.901 371 219.561C365.37 218.361 359.7 218.031 354 218.561C340.7 224.971 332.53 235.471 329.5 250.061C327.91 262.091 329.24 273.761 333.5 285.061C339.06 291.931 346.22 296.431 355 298.561C361.29 299.081 367.46 300.251 373.5 302.061C378.83 298.381 384.33 294.881 390 291.561C396.93 281.861 402.43 271.361 406.5 260.061C405.89 256.061 406.06 252.061 407 248.061C413 253.551 420 256.891 428 258.061C428.78 274.081 425.28 289.081 417.5 303.061C405.25 316.111 391.08 326.611 375 334.561C362.32 338.231 349.66 341.901 337 345.561C329.19 346.671 321.36 347.501 313.5 348.061C293.97 345.811 274.47 343.311 255 340.561C234.96 331.521 218.13 318.361 204.5 301.061C196.12 287.191 191.95 272.191 192 256.061C194.24 256.351 196.24 256.021 198 255.061C200.09 254.521 202.09 253.681 204 252.561C207.29 248.921 210.96 245.751 215 243.061C215.81 245.511 215.31 247.841 213.5 250.061C211.69 270.341 219.52 285.501 237 295.561C254.94 299.871 269.77 295.041 281.5 281.061C283.38 276.521 286.05 272.521 289.5 269.061C293.98 257.451 292.31 246.781 284.5 237.061C284.65 228.221 280.49 222.391 272 219.561C262.25 216.161 252.25 214.491 242 214.561C228.27 216.741 215.61 221.581 204 229.061C203.56 229.131 203.23 228.961 203 228.561C207.71 223.631 210.87 217.801 212.5 211.061C217.81 199.751 226.31 191.911 238 187.561C270.18 177.201 303.18 172.531 337 173.561C360.04 177.241 381.38 185.241 401 197.561C409.21 204.101 416.37 211.601 422.5 220.061C425.49 228.101 426.99 236.441 427 245.061Z" fill="#FCFCFC"/>
<path fill-rule="evenodd" clip-rule="evenodd" d="M198.001 255.062C195.381 255.332 192.881 255.002 190.501 254.062C189.831 250.732 189.831 247.392 190.501 244.062C194.841 238.892 199.341 233.892 204.001 229.062C215.611 221.582 228.271 216.742 242.001 214.562C252.251 214.492 262.251 216.162 272.001 219.562C280.491 222.392 284.651 228.222 284.501 237.062C292.311 246.782 293.981 257.452 289.501 269.062C286.051 272.522 283.381 276.522 281.501 281.062C269.771 295.042 254.941 299.872 237.001 295.562C219.521 285.502 211.691 270.342 213.501 250.062C215.311 247.842 215.811 245.512 215.001 243.062C210.961 245.752 207.291 248.922 204.001 252.562C202.091 253.682 200.091 254.522 198.001 255.062Z" fill="#040404"/>
<path fill-rule="evenodd" clip-rule="evenodd" d="M426.999 245.061C428.849 246.251 430.689 247.581 432.499 249.061C434.079 253.771 432.579 256.771 427.999 258.061C419.999 256.891 412.999 253.551 406.999 248.061C406.059 252.061 405.889 256.061 406.499 260.061C402.429 271.361 396.929 281.861 389.999 291.561C384.329 294.881 378.829 298.381 373.499 302.061C367.459 300.251 361.289 299.081 354.999 298.561C346.219 296.431 339.059 291.931 333.499 285.061C329.239 273.761 327.909 262.091 329.499 250.061C332.529 235.471 340.699 224.971 353.999 218.561C359.699 218.031 365.369 218.361 370.999 219.561C381.679 222.901 392.349 226.231 402.999 229.561C411.419 234.161 419.419 239.331 426.999 245.061Z" fill="#040404"/>
<path fill-rule="evenodd" clip-rule="evenodd" d="M262 229.062C273.07 229.302 277.9 234.972 276.5 246.062C274.22 256.612 267.72 261.452 257 260.562C248.33 252.202 247.83 243.362 255.5 234.062C257.47 232.012 259.63 230.342 262 229.062Z" fill="#F5F5F5"/>
<path fill-rule="evenodd" clip-rule="evenodd" d="M353 229.062C366.5 229.042 370.34 235.042 364.5 247.062C364.17 249.732 363.83 252.392 363.5 255.062C358.26 259.362 352.43 260.192 346 257.562C344.68 254.132 342.84 250.972 340.5 248.062C339.68 244.602 340.02 241.262 341.5 238.062C345.38 234.972 349.21 231.972 353 229.062Z" fill="#F7F7F7"/>
<path fill-rule="evenodd" clip-rule="evenodd" d="M328.999 303.061C335.849 301.861 338.679 304.521 337.499 311.061C333.649 317.241 328.819 322.401 322.999 326.561C314.999 327.401 307.999 325.071 301.999 319.561C296.039 319.161 293.869 316.001 295.499 310.061C296.679 308.201 298.349 307.201 300.499 307.061C305.569 308.081 310.069 310.251 313.999 313.561C315.949 314.551 317.949 314.881 319.999 314.561C323.209 310.851 326.209 307.021 328.999 303.061Z" fill="#090909"/>
<path fill-rule="evenodd" clip-rule="evenodd" d="M297 361.062C284.6 359.312 276.93 364.482 274 376.562C275.08 386.312 280.41 392.312 290 394.562C293.39 395.222 296.72 395.052 300 394.062C300.09 395.062 299.75 395.892 299 396.562C292.03 399.702 287.36 404.862 285 412.062C279.92 419.982 273.59 426.812 266 432.562C259.84 434.782 256.51 432.442 256 425.562C256.98 418.522 258.64 411.682 261 405.062C264.89 399.632 268.56 393.962 272 388.062C265.56 387.032 259.23 385.532 253 383.562C246.07 381.202 242.4 376.362 242 369.062C244.79 354.802 253.46 348.962 268 351.562C277.84 354.852 287.51 358.012 297 361.062Z" fill="#F24537"/>
<path fill-rule="evenodd" clip-rule="evenodd" d="M339 407.062C340.26 413.582 338.6 419.082 334 423.562C330.87 424.352 327.87 424.022 325 422.562C322.16 418.892 319.16 415.392 316 412.062C311.47 405.652 306.47 399.652 301 394.062C313.66 386.602 317.33 376.102 312 362.562C308.96 360.552 305.63 359.722 302 360.062C302.11 359.442 302.44 358.942 303 358.562C306.65 357.792 310.31 357.122 314 356.562C320.68 356.922 327.35 356.752 334 356.062C353.77 358.092 358.43 367.592 348 384.562C340.72 385.732 333.39 386.232 326 386.062C330.11 393.292 334.44 400.292 339 407.062Z" fill="#F24537"/>
<path fill-rule="evenodd" clip-rule="evenodd" d="M302 360.061C305.63 359.721 308.96 360.551 312 362.561C317.33 376.101 313.66 386.601 301 394.061C300.67 394.061 300.33 394.061 300 394.061C296.72 395.051 293.39 395.221 290 394.561C280.41 392.311 275.08 386.311 274 376.561C276.93 364.481 284.6 359.311 297 361.061C298.72 360.931 300.38 360.601 302 360.061Z" fill="#FEE83B"/>
<path fill-rule="evenodd" clip-rule="evenodd" d="M300 394.062C300.33 394.062 300.67 394.062 301 394.062C306.47 399.652 311.47 405.652 316 412.062C305.61 413.262 295.28 413.262 285 412.062C287.36 404.862 292.03 399.702 299 396.562C299.75 395.892 300.09 395.062 300 394.062Z" fill="#647C8A"/>
</svg>
