<svg width="500" height="500" viewBox="0 0 500 500" fill="none" xmlns="http://www.w3.org/2000/svg">
<path fill-rule="evenodd" clip-rule="evenodd" d="M347 181.062C345.86 181.902 344.53 182.572 343 183.062C341.59 185.512 341.92 187.682 344 189.562C340.17 192.652 340.17 195.652 344 198.562C345.97 199.062 347.97 199.222 350 199.062C348.93 199.992 347.6 200.332 346 200.062C344.89 207.012 344.23 214.012 344 221.062C324.97 232.912 305.3 243.742 285 253.562C265.79 254.322 246.79 255.822 228 258.062C225.97 258.222 223.97 258.062 222 257.562C219.44 255.122 217.11 252.452 215 249.562C210.14 247.492 205.14 245.832 200 244.562C185.66 242.062 171.33 239.392 157 236.562C151.64 236.392 146.3 235.892 141 235.062C139.81 233.302 138.14 232.302 136 232.062C133.41 230.812 130.75 229.812 128 229.062C128.4 218.592 129.73 208.262 132 198.062C134.88 195.812 135.88 192.982 135 189.562C137.65 187.462 138.32 184.962 137 182.062C143.05 162.732 149.22 143.402 155.5 124.062C166.08 101.632 177.41 79.6316 189.5 58.0616C204.52 42.3216 223.02 35.3216 245 37.0616C264.76 39.6916 281.59 48.0216 295.5 62.0616C305.68 76.4216 316.35 90.4216 327.5 104.062C340.42 128.072 346.92 153.742 347 181.062Z" fill="#FEF0C7"/>
<path fill-rule="evenodd" clip-rule="evenodd" d="M137.001 182.061C138.321 184.961 137.651 187.461 135.001 189.561C135.881 192.981 134.881 195.811 132.001 198.061C126.271 194.661 120.941 190.491 116.001 185.561C103.831 179.751 95.9905 170.251 92.5005 157.061C85.5005 148.721 80.3305 139.391 77.0005 129.061C70.6505 129.121 65.4805 126.791 61.5005 122.061C60.9405 116.621 63.1005 115.121 68.0005 117.561C74.7105 119.291 80.2105 117.461 84.5005 112.061C86.2105 109.141 88.0405 106.311 90.0005 103.561C94.7605 100.771 97.9305 101.931 99.5005 107.061C100.931 114.781 98.7605 121.281 93.0005 126.561C97.3705 148.351 108.371 166.011 126.001 179.561C129.671 180.531 133.341 181.371 137.001 182.061Z" fill="#F9F9F9"/>
<path fill-rule="evenodd" clip-rule="evenodd" d="M320 140.061C305.81 135.021 291.14 132.851 276 133.561C267.63 137.771 262.8 144.601 261.5 154.061C260.43 164.051 262.43 173.381 267.5 182.061C271.52 185.951 276.35 188.111 282 188.561C287.33 189.231 292.67 189.231 298 188.561C300.87 185.361 304.04 182.521 307.5 180.061C310.86 172.341 313.36 164.341 315 156.061C314.56 153.801 313.89 151.631 313 149.561C317.35 150.741 321.69 151.911 326 153.061C331.79 174.521 325.79 191.691 308 204.561C301.57 208.111 294.9 211.111 288 213.561C274.01 216.891 260.01 220.221 246 223.561C225.82 226.461 208.49 220.801 194 206.561C181.32 202.381 173.32 193.881 170 181.061C170.12 179.641 170.46 178.301 171 177.061C171.74 177.191 172.41 177.021 173 176.561C175.72 173.301 178.55 170.131 181.5 167.061C181.37 180.641 186.87 191.141 198 198.561C210.51 201.981 221.01 198.811 229.5 189.061C232.31 183.121 234.81 177.121 237 171.061C236.15 164.381 233.31 158.721 228.5 154.061C226.81 147.711 222.64 144.211 216 143.561C198.13 141.461 183.13 146.961 171 160.061C170.53 141.001 178.53 126.501 195 116.561C207.31 112.731 219.64 109.071 232 105.561C243.33 104.891 254.67 104.891 266 105.561C284.53 109.741 300.7 118.241 314.5 131.061C316.86 133.781 318.69 136.781 320 140.061Z" fill="#FDFDFC"/>
<path fill-rule="evenodd" clip-rule="evenodd" d="M349.999 199.061C347.969 199.221 345.969 199.061 343.999 198.561C340.169 195.651 340.169 192.651 343.999 189.561C341.919 187.681 341.589 185.511 342.999 183.061C344.529 182.571 345.859 181.901 346.999 181.061C363.209 176.001 376.539 166.841 386.999 153.561C382.459 146.031 382.129 138.361 385.999 130.561C390.729 129.281 393.229 131.111 393.499 136.061C396.739 140.491 400.909 143.491 405.999 145.061C410.009 143.391 414.009 141.721 417.999 140.061C420.329 140.391 421.669 141.731 421.999 144.061C421.559 146.771 420.229 148.941 417.999 150.561C413.049 153.601 407.719 155.771 401.999 157.061C397.069 165.051 391.069 172.221 383.999 178.561C377.329 183.231 370.669 187.891 363.999 192.561C359.699 195.541 355.039 197.711 349.999 199.061Z" fill="#F9F9F9"/>
<path fill-rule="evenodd" clip-rule="evenodd" d="M320 140.061C323.05 142.921 326.71 144.751 331 145.561C333.79 150.641 332.12 153.141 326 153.061C321.69 151.911 317.35 150.741 313 149.561C313.89 151.631 314.56 153.801 315 156.061C313.36 164.341 310.86 172.341 307.5 180.061C304.04 182.521 300.87 185.361 298 188.561C292.67 189.231 287.33 189.231 282 188.561C276.35 188.111 271.52 185.951 267.5 182.061C262.43 173.381 260.43 164.051 261.5 154.061C262.8 144.601 267.63 137.771 276 133.561C291.14 132.851 305.81 135.021 320 140.061Z" fill="#050504"/>
<path fill-rule="evenodd" clip-rule="evenodd" d="M276 141.061C280.09 140.261 283.26 141.601 285.5 145.061C285.67 149.731 285.33 154.401 284.5 159.061C281.16 161.881 277.33 162.711 273 161.561C271.54 159.101 269.71 156.931 267.5 155.061C266.79 152.591 267.13 150.261 268.5 148.061C270.9 145.491 273.4 143.161 276 141.061Z" fill="#F5F5F5"/>
<path fill-rule="evenodd" clip-rule="evenodd" d="M171 177.062C165.3 177.412 163.46 174.752 165.5 169.062C167.34 166.032 169.18 163.032 171 160.062C183.13 146.962 198.13 141.462 216 143.562C222.64 144.212 226.81 147.712 228.5 154.062C233.31 158.722 236.15 164.382 237 171.062C234.81 177.122 232.31 183.122 229.5 189.062C221.01 198.812 210.51 201.982 198 198.562C186.87 191.142 181.37 180.642 181.5 167.062C178.55 170.132 175.72 173.302 173 176.562C172.41 177.022 171.74 177.192 171 177.062Z" fill="#050505"/>
<path fill-rule="evenodd" clip-rule="evenodd" d="M214 151.062C220.28 151.342 223.61 154.672 224 161.062C224.09 169.472 220.09 173.632 212 173.562C203.83 165.382 204.5 157.882 214 151.062Z" fill="#F7F7F7"/>
<path fill-rule="evenodd" clip-rule="evenodd" d="M268.001 194.062C270.771 194.162 272.771 195.492 274.001 198.062C271.961 202.972 269.301 207.472 266.001 211.562C263.801 212.932 261.471 213.272 259.001 212.562C253.851 211.392 249.011 209.562 244.501 207.062C243.681 204.862 244.181 203.032 246.001 201.562C251.321 202.212 256.651 202.882 262.001 203.562C263.651 200.082 265.651 196.912 268.001 194.062Z" fill="#0C0C0C"/>
<path fill-rule="evenodd" clip-rule="evenodd" d="M431.999 280.061C433.239 285.711 433.239 291.371 431.999 297.061C429.149 298.991 426.479 301.151 423.999 303.561C410.719 305.831 397.379 306.671 383.999 306.061C381.299 305.881 378.959 306.541 376.999 308.061C376.669 308.061 376.329 308.061 375.999 308.061C374.899 306.961 373.569 306.801 371.999 307.561C369.699 308.691 368.359 310.531 367.999 313.061C377.239 337.701 385.409 362.701 392.499 388.061C392.829 394.731 393.169 401.391 393.499 408.061C398.209 414.241 398.039 420.241 392.999 426.061C393.219 422.501 391.889 419.841 388.999 418.061C388.699 413.311 387.859 408.641 386.499 404.061C376.779 371.251 367.279 338.411 357.999 305.561C357.589 304.611 356.929 303.951 355.999 303.561C340.539 302.281 325.209 300.111 309.999 297.061C308.999 297.231 307.999 297.391 306.999 297.561C312.769 308.321 318.929 318.821 325.499 329.061C329.999 337.721 333.659 346.721 336.499 356.061C347.359 375.781 357.689 395.781 367.499 416.061C368.449 417.651 369.619 418.991 370.999 420.061C370.989 421.581 370.319 422.741 368.999 423.561C365.279 425.421 361.609 427.251 357.999 429.061C347.969 408.011 337.139 387.341 325.499 367.061C319.139 347.671 310.139 329.671 298.499 313.061C295.229 306.091 292.069 299.091 288.999 292.061C272.879 286.691 257.219 280.361 241.999 273.061C240.989 281.331 236.319 287.501 227.999 291.561C222.399 292.381 217.059 294.051 211.999 296.561C218.809 299.881 223.639 305.051 226.499 312.061C232.919 318.481 238.589 325.481 243.499 333.061C264.129 356.031 285.129 378.691 306.499 401.061C315.669 408.891 324.829 416.731 333.999 424.561C339.379 428.911 345.049 432.741 350.999 436.061C347.999 440.581 345.159 445.241 342.499 450.061C341.089 454.921 342.259 458.921 345.999 462.061C337.559 462.271 329.229 461.441 320.999 459.561C306.139 455.391 291.139 451.721 275.999 448.561C268.679 445.901 261.339 443.231 253.999 440.561C229.339 427.231 205.339 412.901 181.999 397.561C173.499 387.731 164.999 377.891 156.499 368.061C150.669 358.391 144.829 348.731 138.999 339.061C130.519 346.471 121.849 353.631 112.999 360.561C103.839 367.691 93.8389 369.361 82.9989 365.561C77.7289 362.291 73.8889 357.791 71.4989 352.061C63.5989 346.931 59.9389 339.601 60.4989 330.061C58.0089 294.531 69.1689 264.031 93.9989 238.561C103.699 229.831 115.039 226.661 127.999 229.061C130.749 229.811 133.409 230.811 135.999 232.061C135.809 235.901 134.139 239.061 130.999 241.561C124.579 242.491 118.239 243.821 111.999 245.561C97.6689 253.561 87.1689 265.061 80.4989 280.061C78.8689 300.001 78.5389 320.001 79.4989 340.061C80.3989 344.361 82.2289 348.191 84.9989 351.561C94.8389 351.851 103.839 349.181 111.999 343.561C134.819 325.071 158.489 307.731 182.999 291.561C195.839 286.561 208.839 282.061 221.999 278.061C223.239 276.601 223.079 275.271 221.499 274.061C220.229 267.301 223.059 263.141 229.999 261.561C233.039 258.611 232.379 257.451 227.999 258.061C246.789 255.821 265.789 254.321 284.999 253.561C305.299 243.741 324.969 232.911 343.999 221.061C352.189 215.101 361.189 213.601 370.999 216.561C376.159 218.971 381.159 221.641 385.999 224.561C398.109 238.011 410.949 250.841 424.499 263.061C428.089 268.251 430.589 273.911 431.999 280.061Z" fill="#EFB318"/>
<path fill-rule="evenodd" clip-rule="evenodd" d="M136 232.062C138.14 232.302 139.81 233.302 141 235.062C146.3 235.892 151.64 236.392 157 236.562C171.33 239.392 185.66 242.062 200 244.562C205.14 245.832 210.14 247.492 215 249.562C217.11 252.452 219.44 255.122 222 257.562C223.97 258.062 225.97 258.222 228 258.062C232.38 257.452 233.04 258.612 230 261.562C223.06 263.142 220.23 267.302 221.5 274.062C223.08 275.272 223.24 276.602 222 278.062C208.84 282.062 195.84 286.562 183 291.562C158.49 307.732 134.82 325.072 112 343.562C103.84 349.182 94.8401 351.852 85.0001 351.562C82.2301 348.192 80.4001 344.362 79.5001 340.062C78.5401 320.002 78.8701 300.002 80.5001 280.062C87.1701 265.062 97.6701 253.562 112 245.562C118.24 243.822 124.58 242.492 131 241.562C134.14 239.062 135.81 235.902 136 232.062Z" fill="#FEC107"/>
<path fill-rule="evenodd" clip-rule="evenodd" d="M367 233.061C370.63 232.721 373.96 233.551 377 235.561C384.4 241.881 390.24 249.381 394.5 258.061C404.58 268.131 413.91 278.801 422.5 290.061C422.98 291.011 423.15 292.011 423 293.061C412.21 295.971 401.21 296.801 390 295.561C384.8 293.861 379.47 292.691 374 292.061C371.21 289.801 368.05 288.131 364.5 287.061C362.41 287.441 360.41 288.111 358.5 289.061C341.97 287.181 325.47 285.011 309 282.561C295.98 279.221 283.32 274.891 271 269.561C286.33 267.671 301.33 264.341 316 259.561C325.82 254.741 334.82 248.741 343 241.561C351.12 238.711 359.12 235.881 367 233.061Z" fill="#FEC007"/>
<path fill-rule="evenodd" clip-rule="evenodd" d="M358 429.062C356 431.732 353.67 434.062 351 436.062C345.05 432.742 339.38 428.912 334 424.562C324.83 416.732 315.67 408.892 306.5 401.062C285.13 378.692 264.13 356.032 243.5 333.062C238.59 325.482 232.92 318.482 226.5 312.062C223.64 305.052 218.81 299.882 212 296.562C217.06 294.052 222.4 292.382 228 291.562C236.32 287.502 240.99 281.332 242 273.062C257.22 280.362 272.88 286.692 289 292.062C292.07 299.092 295.23 306.092 298.5 313.062C310.14 329.672 319.14 347.672 325.5 367.062C337.14 387.342 347.97 408.012 358 429.062Z" fill="#FEC007"/>
<path fill-rule="evenodd" clip-rule="evenodd" d="M432 280.062C437.8 284.682 439.97 290.682 438.5 298.062C434.45 303.682 428.95 307.182 422 308.562C406.95 311.982 391.95 311.812 377 308.062C378.96 306.542 381.3 305.882 384 306.062C397.38 306.672 410.72 305.832 424 303.562C426.48 301.152 429.15 298.992 432 297.062C433.24 291.372 433.24 285.712 432 280.062Z" fill="#241913"/>
<path fill-rule="evenodd" clip-rule="evenodd" d="M389 418.062C385.3 418.142 381.63 417.812 378 417.062C375.28 417.252 372.95 418.252 371 420.062C369.62 418.992 368.45 417.652 367.5 416.062C357.69 395.782 347.36 375.782 336.5 356.062C333.66 346.722 330 337.722 325.5 329.062C318.93 318.822 312.77 308.322 307 297.562C308 297.392 309 297.232 310 297.062C325.21 300.112 340.54 302.282 356 303.562C356.93 303.952 357.59 304.612 358 305.562C367.28 338.412 376.78 371.252 386.5 404.062C387.86 408.642 388.7 413.312 389 418.062Z" fill="#FEC007"/>
<path fill-rule="evenodd" clip-rule="evenodd" d="M197 301.062C198.33 301.062 199.67 301.062 201 301.062C201.68 306.922 204.85 310.922 210.5 313.062C211.5 315.062 212.5 317.062 213.5 319.062C221.21 327.772 228.55 336.772 235.5 346.062C259 370.892 282.5 395.732 306 420.562C314.62 426.852 322.96 433.512 331 440.562C319.88 439.472 308.88 437.472 298 434.562C280.07 427.362 262.07 420.362 244 413.562C235.67 409.402 227.67 404.732 220 399.562C210.98 395.192 201.98 390.862 193 386.562C187.58 383.142 182.74 378.972 178.5 374.062C172.57 362.472 166.23 351.142 159.5 340.062C156.82 337.542 154.32 334.882 152 332.062C161.11 324.662 170.45 317.502 180 310.562C185.76 307.352 191.43 304.182 197 301.062Z" fill="#FEC008"/>
<path fill-rule="evenodd" clip-rule="evenodd" d="M376 308.061C375 308.031 374.34 308.531 374 309.561C384.19 342.491 393.69 375.661 402.5 409.061C403.87 426.161 397.7 440.001 384 450.561C377.25 455.471 369.91 459.311 362 462.061C360.92 461.871 359.92 461.541 359 461.061C364.07 457.501 368.73 453.331 373 448.561C381.44 444.781 387.94 438.941 392.5 431.061C392.99 429.431 393.16 427.761 393 426.061C398.04 420.241 398.21 414.241 393.5 408.061C393.17 401.391 392.83 394.731 392.5 388.061C385.41 362.701 377.24 337.701 368 313.061C368.36 310.531 369.7 308.691 372 307.561C373.57 306.801 374.9 306.961 376 308.061Z" fill="#221813"/>
<path fill-rule="evenodd" clip-rule="evenodd" d="M389 418.062C391.89 419.842 393.22 422.502 393 426.062C393.16 427.762 392.99 429.432 392.5 431.062C387.94 438.942 381.44 444.782 373 448.562C368.73 453.332 364.07 457.502 359 461.062C355.68 462.062 352.35 463.062 349 464.062C347.76 463.622 346.76 462.952 346 462.062C342.26 458.922 341.09 454.922 342.5 450.062C345.16 445.242 348 440.582 351 436.062C353.67 434.062 356 431.732 358 429.062C361.61 427.252 365.28 425.422 369 423.562C370.32 422.742 370.99 421.582 371 420.062C372.95 418.252 375.28 417.252 378 417.062C381.63 417.812 385.3 418.142 389 418.062Z" fill="#B07965"/>
</svg>
