<svg width="500" height="500" viewBox="0 0 500 500" fill="none" xmlns="http://www.w3.org/2000/svg">
<path fill-rule="evenodd" clip-rule="evenodd" d="M374 264.062C371.29 265.112 369.62 267.112 369 270.062C370.35 271.972 371.02 274.142 371 276.562C368.63 281.662 369.97 285.162 375 287.062C372.99 303.342 371.15 319.682 369.5 336.062C367.21 349.692 359.71 359.192 347 364.562C342.14 366.632 337.14 368.292 332 369.562C317.5 369.522 303.16 369.682 289 370.062C287.33 370.062 285.67 370.062 284 370.062C274.33 369.892 264.66 370.062 255 370.562C249.12 370.882 243.45 371.712 238 373.062C235.67 371.732 233.33 371.732 231 373.062C212.91 373.682 194.91 372.852 177 370.562C169.05 368.662 161.39 365.992 154 362.562C149.76 357.292 144.76 353.292 139 350.562C135.12 347.302 132.95 343.132 132.5 338.062C132.17 331.392 131.83 324.732 131.5 318.062C129.46 306.392 127.63 294.722 126 283.062C129.96 283.982 132.29 282.482 133 278.562C131.26 273.672 128.26 269.832 124 267.062C123.11 240.802 121.11 214.632 118 188.562C118.42 177.112 119.75 165.782 122 154.562C121.27 150.932 120.11 147.432 118.5 144.062C118.33 141.732 118.17 139.392 118 137.062C120.19 125.332 120.52 113.492 119 101.562C122.6 86.3515 131.27 75.0215 145 67.5615C156.94 61.4115 169.61 57.7415 183 56.5615C200.65 55.3615 218.32 54.5315 236 54.0615C258.57 54.5215 281.07 55.8615 303.5 58.0615C318.47 55.1715 332.64 57.3315 346 64.5615C361.17 76.3915 370 91.8915 372.5 111.062C374.11 136.382 375.11 161.722 375.5 187.062C372.79 201.082 371.63 215.252 372 229.562C371.89 241.262 372.56 252.762 374 264.062Z" fill="#F2D8A6"/>
<path fill-rule="evenodd" clip-rule="evenodd" d="M238 93.0611C237.99 94.5811 237.32 95.7411 236 96.5611C233.67 96.8911 231.33 97.2311 229 97.5611C223.3 100.411 217.63 103.241 212 106.061C207.64 103.721 202.97 102.221 198 101.561C201.73 99.0411 205.4 96.5411 209 94.0611C218.61 93.1111 228.28 92.7811 238 93.0611Z" fill="#FED7D6"/>
<path fill-rule="evenodd" clip-rule="evenodd" d="M331 205.062C327.87 202.432 324.87 199.602 322 196.562C313.4 191.102 304.74 185.942 296 181.062C306.37 173.192 315.21 163.852 322.5 153.062C323.34 149.442 322.67 146.112 320.5 143.062C316.59 141.332 312.76 139.672 309 138.062C307.09 135.232 304.43 134.392 301 135.562C299.34 137.002 298.68 138.842 299 141.062C292.99 141.432 286.99 141.602 281 141.562C292.33 135.232 303.67 128.892 315 122.562C319.08 119.422 319.91 115.592 317.5 111.062C313.43 108.262 308.93 106.422 304 105.562C297.64 104.912 291.3 105.072 285 106.062C287.07 99.6315 284.74 97.1315 278 98.5615C274.28 101.362 273.28 104.862 275 109.062C269.68 110.392 264.35 111.722 259 113.062C257.83 107.052 254.5 102.712 249 100.062C246.3 100.762 244.64 102.422 244 105.062C245.93 108.592 247.6 112.262 249 116.062C234.92 120.612 220.59 124.282 206 127.062C205.67 127.062 205.33 127.062 205 127.062C204.37 125.612 203.2 124.952 201.5 125.062C198.32 125.732 195.49 127.072 193 129.062C191.9 130.162 190.56 130.832 189 131.062C185.66 131.572 182.33 131.732 179 131.562C186.55 125.172 194.21 119.012 202 113.062C199.47 112.432 197.14 111.432 195 110.062C194.16 107.872 193.82 105.872 194 104.062C189.98 107.082 185.98 110.082 182 113.062C180.63 109.312 177.97 108.142 174 109.562C171.21 112.702 170.54 116.202 172 120.062C169.78 123.792 166.94 127.132 163.5 130.062C159.22 136.792 160.72 141.622 168 144.562C173.35 144.992 178.68 144.832 184 144.062C187.03 145.232 189.7 144.562 192 142.062C202.1 140.872 212.1 139.042 222 136.562C241.26 130.752 260.59 125.252 280 120.062C278.33 123.052 279 125.382 282 127.062C285.37 125.332 288.7 123.672 292 122.062C289.38 127.302 285.05 129.472 279 128.562C266.5 136.142 253.5 142.642 240 148.062C240 147.392 239.67 147.062 239 147.062C237.45 144.312 235.11 143.472 232 144.562C229.85 147.702 227.85 150.872 226 154.062C213.98 158.122 201.98 162.292 190 166.562C185.98 168.232 182.31 170.402 179 173.062C171.36 174.822 170.36 178.322 176 183.562C177.85 184.692 179.85 185.192 182 185.062C186.35 185.222 190.68 185.222 195 185.062C182.93 190.802 171.93 198.132 162 207.062C154.9 175.562 155.4 144.222 163.5 113.062C168.12 104.782 174.95 98.9515 184 95.5615C192.27 94.2315 200.61 93.7315 209 94.0615C205.4 96.5415 201.73 99.0415 198 101.562C202.97 102.222 207.64 103.722 212 106.062C217.63 103.242 223.3 100.412 229 97.5615C231.33 97.2315 233.67 96.8915 236 96.5615C237.32 95.7415 237.99 94.5815 238 93.0615C242.14 92.3215 246.31 91.6515 250.5 91.0615C262 91.9515 273.5 92.1215 285 91.5615C291.86 93.4615 298.86 94.7915 306 95.5615C316.69 98.7615 322.86 105.922 324.5 117.062C329.47 146.212 331.63 175.542 331 205.062Z" fill="#FEB4B4"/>
<path fill-rule="evenodd" clip-rule="evenodd" d="M284.999 106.062C282.509 109.832 279.169 110.832 274.999 109.062C273.279 104.862 274.279 101.362 277.999 98.5621C284.739 97.1321 287.069 99.6321 284.999 106.062Z" fill="#FFEA4C"/>
<path fill-rule="evenodd" clip-rule="evenodd" d="M259 113.062C255.93 113.862 252.93 114.862 250 116.062C249.67 116.062 249.33 116.062 249 116.062C247.6 112.262 245.93 108.592 244 105.062C244.64 102.422 246.3 100.762 249 100.062C254.5 102.712 257.83 107.052 259 113.062Z" fill="#4B5CDD"/>
<path fill-rule="evenodd" clip-rule="evenodd" d="M189 131.062C186.73 132.832 184.56 134.832 182.5 137.062C181.67 139.732 182.17 142.062 184 144.062C178.68 144.832 173.35 144.992 168 144.562C160.72 141.622 159.22 136.792 163.5 130.062C166.94 127.132 169.78 123.792 172 120.062C178.6 123.182 181.93 120.852 182 113.062C185.98 110.082 189.98 107.082 194 104.062C193.82 105.872 194.16 107.872 195 110.062C197.14 111.432 199.47 112.432 202 113.062C194.21 119.012 186.55 125.172 179 131.562C182.33 131.732 185.66 131.572 189 131.062Z" fill="#FED6D7"/>
<path fill-rule="evenodd" clip-rule="evenodd" d="M299 141.062C298.76 145.452 299.76 149.452 302 153.062C295.55 152.792 289.21 153.462 283 155.062C284.75 153.402 285.25 151.402 284.5 149.062C282.62 146.332 280.12 144.662 277 144.062C274.14 143.922 272.47 145.262 272 148.062C272.87 151.252 274.53 153.922 277 156.062C265.75 157.812 254.75 160.642 244 164.562C232.78 168.792 221.78 173.292 211 178.062C205.48 179.822 200.14 182.152 195 185.062C190.68 185.222 186.35 185.222 182 185.062C184.75 183.512 185.59 181.172 184.5 178.062C182.8 176.192 180.96 174.522 179 173.062C182.31 170.402 185.98 168.232 190 166.562C201.98 162.292 213.98 158.122 226 154.062C225.83 159.052 228.16 160.892 233 159.562C236.49 156.422 238.82 152.592 240 148.062C253.5 142.642 266.5 136.142 279 128.562C285.05 129.472 289.38 127.302 292 122.062C293.46 120.822 295.13 119.822 297 119.062C298.46 114.992 296.96 112.322 292.5 111.062C287.56 112.852 283.73 115.852 281 120.062C280.67 120.062 280.33 120.062 280 120.062C260.59 125.252 241.26 130.752 222 136.562C212.1 139.042 202.1 140.872 192 142.062C196.18 138.712 200.68 135.712 205.5 133.062C207.11 131.102 207.28 129.102 206 127.062C220.59 124.282 234.92 120.612 249 116.062C249.33 116.062 249.67 116.062 250 116.062C251.55 118.812 253.89 119.652 257 118.562C258.66 117.122 259.32 115.282 259 113.062C264.35 111.722 269.68 110.392 275 109.062C279.17 110.832 282.51 109.832 285 106.062C291.3 105.072 297.64 104.912 304 105.562C308.93 106.422 313.43 108.262 317.5 111.062C319.91 115.592 319.08 119.422 315 122.562C303.67 128.892 292.33 135.232 281 141.562C286.99 141.602 292.99 141.432 299 141.062Z" fill="#FED7D7"/>
<path fill-rule="evenodd" clip-rule="evenodd" d="M211 107.062C213.72 109.742 213.39 112.242 210 114.562C207.29 115.302 204.95 114.632 203 112.562C205.91 110.952 208.57 109.122 211 107.062Z" fill="#F4493C"/>
<path fill-rule="evenodd" clip-rule="evenodd" d="M182 113.062C181.93 120.852 178.6 123.182 172 120.062C170.54 116.202 171.21 112.702 174 109.562C177.97 108.142 180.63 109.312 182 113.062Z" fill="#9DC964"/>
<path fill-rule="evenodd" clip-rule="evenodd" d="M297 119.062C291.68 117.692 286.35 118.032 281 120.062C283.73 115.852 287.56 112.852 292.5 111.062C296.96 112.322 298.46 114.992 297 119.062Z" fill="#FA9B94"/>
<path fill-rule="evenodd" clip-rule="evenodd" d="M259 113.062C259.32 115.282 258.66 117.122 257 118.562C253.89 119.652 251.55 118.812 250 116.062C252.93 114.862 255.93 113.862 259 113.062Z" fill="#9BA5EC"/>
<path fill-rule="evenodd" clip-rule="evenodd" d="M297 119.062C295.13 119.822 293.46 120.822 292 122.062C288.7 123.672 285.37 125.332 282 127.062C279 125.382 278.33 123.052 280 120.062C280.33 120.062 280.67 120.062 281 120.062C286.35 118.032 291.68 117.692 297 119.062Z" fill="#F4483B"/>
<path fill-rule="evenodd" clip-rule="evenodd" d="M205 127.062C201.71 128.362 198.21 129.362 194.5 130.062C193.74 129.992 193.24 129.662 193 129.062C195.49 127.072 198.32 125.732 201.5 125.062C203.2 124.952 204.37 125.612 205 127.062Z" fill="#495CDE"/>
<path fill-rule="evenodd" clip-rule="evenodd" d="M205 127.062C205.33 127.062 205.67 127.062 206 127.062C207.28 129.102 207.11 131.102 205.5 133.062C200.68 135.712 196.18 138.712 192 142.062C189.7 144.562 187.03 145.232 184 144.062C182.17 142.062 181.67 139.732 182.5 137.062C184.56 134.832 186.73 132.832 189 131.062C190.56 130.832 191.9 130.162 193 129.062C193.24 129.662 193.74 129.992 194.5 130.062C198.21 129.362 201.71 128.362 205 127.062Z" fill="#99A4EC"/>
<path fill-rule="evenodd" clip-rule="evenodd" d="M309 138.062C309 139.062 309 140.062 309 141.062C305.67 141.062 302.33 141.062 299 141.062C298.68 138.842 299.34 137.002 301 135.562C304.43 134.392 307.09 135.232 309 138.062Z" fill="#4F5FDE"/>
<path fill-rule="evenodd" clip-rule="evenodd" d="M299 141.062C302.33 141.062 305.67 141.062 309 141.062C309.51 145.372 308.84 149.372 307 153.062C305.33 153.062 303.67 153.062 302 153.062C299.76 149.452 298.76 145.452 299 141.062Z" fill="#9BA6ED"/>
<path fill-rule="evenodd" clip-rule="evenodd" d="M309 138.062C312.76 139.672 316.59 141.332 320.5 143.062C322.67 146.112 323.34 149.442 322.5 153.062C315.21 163.852 306.37 173.192 296 181.062C290.97 179.162 285.97 177.502 281 176.062C282.05 176.212 283.05 176.042 284 175.562C288.33 171.892 292.67 168.232 297 164.562C300.94 161.132 304.27 157.302 307 153.062C308.84 149.372 309.51 145.372 309 141.062C309 140.062 309 139.062 309 138.062Z" fill="#FED6D7"/>
<path fill-rule="evenodd" clip-rule="evenodd" d="M239 147.062C239.13 147.942 238.8 148.602 238 149.062C233.98 150.742 229.98 152.412 226 154.062C227.85 150.872 229.85 147.702 232 144.562C235.11 143.472 237.45 144.312 239 147.062Z" fill="#FFE942"/>
<path fill-rule="evenodd" clip-rule="evenodd" d="M283 155.062C281.12 155.902 279.12 156.232 277 156.062C274.53 153.922 272.87 151.252 272 148.062C272.47 145.262 274.14 143.922 277 144.062C280.12 144.662 282.62 146.332 284.5 149.062C285.25 151.402 284.75 153.402 283 155.062Z" fill="#C1DD9D"/>
<path fill-rule="evenodd" clip-rule="evenodd" d="M239 147.062C239.67 147.062 240 147.392 240 148.062C238.82 152.592 236.49 156.422 233 159.562C228.16 160.892 225.83 159.052 226 154.062C229.98 152.412 233.98 150.742 238 149.062C238.8 148.602 239.13 147.942 239 147.062Z" fill="#FFF396"/>
<path fill-rule="evenodd" clip-rule="evenodd" d="M302 153.062C303.67 153.062 305.33 153.062 307 153.062C304.27 157.302 300.94 161.132 297 164.562C292.67 168.232 288.33 171.892 284 175.562C283.05 176.042 282.05 176.212 281 176.062C257.53 171.622 234.2 172.292 211 178.062C221.78 173.292 232.78 168.792 244 164.562C254.75 160.642 265.75 157.812 277 156.062C279.12 156.232 281.12 155.902 283 155.062C289.21 153.462 295.55 152.792 302 153.062Z" fill="#FEB6B6"/>
<path fill-rule="evenodd" clip-rule="evenodd" d="M281 176.062C285.97 177.502 290.97 179.162 296 181.062C304.74 185.942 313.4 191.102 322 196.562C324.87 199.602 327.87 202.432 331 205.062C351.72 230.732 350.38 255.402 327 279.062C315.96 286.252 304.29 292.422 292 297.562C275.59 301.612 258.92 303.112 242 302.062C235.67 302.062 229.33 302.062 223 302.062C204.71 303.682 188.38 299.012 174 288.062C167.74 281.892 163.24 274.562 160.5 266.062C144.93 250.682 142.93 233.682 154.5 215.062C157.2 212.522 159.7 209.862 162 207.062C171.93 198.132 182.93 190.802 195 185.062C200.14 182.152 205.48 179.822 211 178.062C234.2 172.292 257.53 171.622 281 176.062Z" fill="#FDFDFC"/>
<path fill-rule="evenodd" clip-rule="evenodd" d="M179 173.062C180.96 174.522 182.8 176.192 184.5 178.062C185.59 181.172 184.75 183.512 182 185.062C179.85 185.192 177.85 184.692 176 183.562C170.36 178.322 171.36 174.822 179 173.062Z" fill="#B7D68C"/>
<path fill-rule="evenodd" clip-rule="evenodd" d="M375 287.062C369.97 285.162 368.63 281.662 371 276.562C371.02 274.142 370.35 271.972 369 270.062C369.62 267.112 371.29 265.112 374 264.062C380.62 257.302 387.45 250.642 394.5 244.062C401.12 234.442 408.12 225.112 415.5 216.062C414.03 210.232 412.87 204.232 412 198.062C411.85 194.162 412.85 190.662 415 187.562C417.27 186.802 419.44 186.972 421.5 188.062C423.69 193.182 425.19 198.512 426 204.062C427.44 204.622 428.94 204.962 430.5 205.062C434.98 203.982 439.48 202.982 444 202.062C448.49 202.392 449.99 204.732 448.5 209.062C442.7 216.602 435.03 220.602 425.5 221.062C422.97 224.692 421.31 228.692 420.5 233.062C417.78 236.122 415.44 239.452 413.5 243.062C402.12 256.102 391.12 269.442 380.5 283.062C379.05 285.022 377.22 286.362 375 287.062Z" fill="#060605"/>
<path fill-rule="evenodd" clip-rule="evenodd" d="M124.001 267.062C128.261 269.832 131.261 273.672 133.001 278.562C132.291 282.482 129.961 283.982 126.001 283.062C120.401 282.932 115.401 281.102 111.001 277.562C99.4105 264.872 88.9105 251.372 79.5005 237.062C75.7205 231.202 73.2205 224.872 72.0005 218.062C66.6905 219.002 61.3605 219.172 56.0005 218.562C50.5105 215.622 49.8405 211.952 54.0005 207.562C57.6705 207.232 61.3305 206.892 65.0005 206.562C68.9705 201.592 73.3005 196.932 78.0005 192.562C84.1105 189.312 87.4505 190.982 88.0005 197.562C86.1705 203.322 86.6705 208.822 89.5005 214.062C98.7505 228.892 107.751 243.892 116.501 259.062C118.781 261.992 121.281 264.662 124.001 267.062Z" fill="#050504"/>
<path fill-rule="evenodd" clip-rule="evenodd" d="M277 202.062C290.16 202.162 303.16 203.662 316 206.562C323.58 210.272 331.08 214.102 338.5 218.062C339.57 221.662 338.24 223.662 334.5 224.062C328.49 223.902 322.99 222.232 318 219.062C319.78 231.792 317.12 243.792 310 255.062C306.97 257.762 303.97 260.422 301 263.062C289.77 265.352 279.1 263.852 269 258.562C258.85 244.322 257.35 229.162 264.5 213.062C268.24 208.812 272.41 205.152 277 202.062Z" fill="#040404"/>
<path fill-rule="evenodd" clip-rule="evenodd" d="M276 211.062C280.41 210.182 283.91 211.512 286.5 215.062C286.83 220.412 286.5 225.752 285.5 231.062C284.67 231.892 283.83 232.732 283 233.562C279.67 234.232 276.33 234.232 273 233.562C271.27 231.282 269.43 229.122 267.5 227.062C266.71 223.932 267.04 220.932 268.5 218.062C271.36 216.062 273.86 213.722 276 211.062Z" fill="#F7F7F7"/>
<path fill-rule="evenodd" clip-rule="evenodd" d="M193 213.061C201.62 212.441 209.95 213.601 218 216.561C221.75 218.551 223.58 221.711 223.5 226.061C230.09 231.561 233.09 238.561 232.5 247.061C229.59 260.091 222.09 269.261 210 274.561C193.32 278.541 181.49 272.711 174.5 257.061C172.14 251.201 171.47 245.201 172.5 239.061C168.98 242.281 165.82 245.781 163 249.561C154.42 252.971 151.59 250.131 154.5 241.061C163.53 226.461 176.36 217.131 193 213.061Z" fill="#040404"/>
<path fill-rule="evenodd" clip-rule="evenodd" d="M208 222.062C214.66 222.722 218.33 226.392 219 233.062C218.46 240.152 214.96 245.152 208.5 248.062C198.26 243.132 196.26 235.802 202.5 226.062C204.31 224.582 206.15 223.252 208 222.062Z" fill="#F6F6F6"/>
<path fill-rule="evenodd" clip-rule="evenodd" d="M266.001 270.062C268.031 269.902 270.031 270.062 272.001 270.562C273.301 271.362 273.971 272.532 274.001 274.062C271.801 279.952 268.471 285.122 264.001 289.562C261.001 290.232 258.001 290.232 255.001 289.562C250.491 287.552 245.991 285.712 241.501 284.062C240.461 279.812 242.131 277.482 246.501 277.062C249.731 278.032 252.901 279.192 256.001 280.562C257.331 281.232 258.671 281.232 260.001 280.562C262.401 277.252 264.401 273.752 266.001 270.062Z" fill="#0C0C0C"/>
<path fill-rule="evenodd" clip-rule="evenodd" d="M327 279.062C329.6 296.352 323.6 309.852 309 319.562C303.95 322.752 298.61 325.422 293 327.562C288.61 333.782 282.94 335.612 276 333.062C279.57 328.932 281.74 324.262 282.5 319.062C279.32 317.892 276.82 315.892 275 313.062C266.47 312.202 258.14 313.202 250 316.062C250 315.392 249.67 315.062 249 315.062C248.44 313.772 247.44 312.942 246 312.562C243.69 312.062 241.36 311.902 239 312.062C239.6 308.592 240.6 305.262 242 302.062C258.92 303.112 275.59 301.612 292 297.562C304.29 292.422 315.96 286.252 327 279.062Z" fill="#FEB4B3"/>
<path fill-rule="evenodd" clip-rule="evenodd" d="M174 288.062C188.38 299.012 204.71 303.682 223 302.062C224.42 303.012 226.09 303.342 228 303.062C225.71 309.542 224.05 316.202 223 323.062C223.15 328.882 226.15 332.212 232 333.062C243.21 331.182 254.21 328.512 265 325.062C265.67 325.232 266.33 325.392 267 325.562C264.75 327.562 263.75 330.062 264 333.062C240.36 335.552 217.03 334.052 194 328.562C188.77 325.542 184.27 321.702 180.5 317.062C177.86 307.502 175.69 297.842 174 288.062Z" fill="#FEB5B5"/>
<path fill-rule="evenodd" clip-rule="evenodd" d="M305 296.062C307.03 295.902 309.03 296.062 311 296.562C313.27 300.652 313.11 304.812 310.5 309.062C305.95 313.462 302.78 312.632 301 306.562C301.65 302.772 302.98 299.272 305 296.062Z" fill="#FFE840"/>
<path fill-rule="evenodd" clip-rule="evenodd" d="M223 302.062C229.33 302.062 235.67 302.062 242 302.062C240.6 305.262 239.6 308.592 239 312.062C238.67 312.062 238.33 312.062 238 312.062C230.45 312.622 229.12 315.792 234 321.562C238.67 322.232 243.33 322.232 248 321.562C249.66 320.122 250.32 318.282 250 316.062C258.14 313.202 266.47 312.202 275 313.062C276.82 315.892 279.32 317.892 282.5 319.062C281.74 324.262 279.57 328.932 276 333.062C272 333.062 268 333.062 264 333.062C263.75 330.062 264.75 327.562 267 325.562C266.33 325.392 265.67 325.232 265 325.062C254.21 328.512 243.21 331.182 232 333.062C226.15 332.212 223.15 328.882 223 323.062C224.05 316.202 225.71 309.542 228 303.062C226.09 303.342 224.42 303.012 223 302.062Z" fill="#FED7D7"/>
<path fill-rule="evenodd" clip-rule="evenodd" d="M277 306.062C281.39 307.872 286.06 309.042 291 309.562C294.82 317.082 292.49 320.082 284 318.562C283.29 313.352 280.29 310.852 275 311.062C274.89 309.052 275.56 307.382 277 306.062Z" fill="#F4483B"/>
<path fill-rule="evenodd" clip-rule="evenodd" d="M238 312.062C238.33 312.062 238.67 312.062 239 312.062C241.36 311.902 243.69 312.062 246 312.562C247.44 312.942 248.44 313.772 249 315.062C245.37 318.032 241.03 319.692 236 320.062C236.46 317.342 237.13 314.672 238 312.062Z" fill="#455BDF"/>
<path fill-rule="evenodd" clip-rule="evenodd" d="M203 312.061C208.73 311.961 211.57 314.631 211.5 320.061C207.58 323.971 203.58 323.971 199.5 320.061C198.28 316.271 199.45 313.601 203 312.061Z" fill="#91C250"/>
<path fill-rule="evenodd" clip-rule="evenodd" d="M238.001 312.062C237.131 314.672 236.461 317.342 236.001 320.062C241.031 319.692 245.371 318.032 249.001 315.062C249.671 315.062 250.001 315.392 250.001 316.062C250.321 318.282 249.661 320.122 248.001 321.562C243.331 322.232 238.671 322.232 234.001 321.562C229.121 315.792 230.451 312.622 238.001 312.062Z" fill="#99A4EC"/>
<path fill-rule="evenodd" clip-rule="evenodd" d="M284.001 370.062C285.671 370.062 287.331 370.062 289.001 370.062C294.851 370.242 297.521 373.242 297.001 379.062C295.791 387.052 294.621 395.052 293.501 403.062C292.601 410.812 292.941 418.472 294.501 426.062C301.541 423.152 308.371 423.652 315.001 427.562C316.091 429.622 316.261 431.792 315.501 434.062C310.661 440.122 304.331 443.122 296.501 443.062C293.581 442.412 290.741 442.412 288.001 443.062C286.121 442.682 284.621 441.682 283.501 440.062C282.071 417.412 281.741 394.742 282.501 372.062C283.221 371.522 283.721 370.852 284.001 370.062Z" fill="#040404"/>
<path fill-rule="evenodd" clip-rule="evenodd" d="M238 373.062C239.47 375.652 240.14 378.492 240 381.562C238.71 397.072 238.21 412.572 238.5 428.062C236.5 429.392 234.83 431.062 233.5 433.062C233.37 435.932 232.2 438.262 230 440.062C224.15 442.322 218.15 443.992 212 445.062C203.95 445.502 200.12 441.832 200.5 434.062C208.15 428.152 216.81 424.812 226.5 424.062C226.98 416.972 226.31 409.972 224.5 403.062C223.83 395.062 223.83 387.062 224.5 379.062C225.94 376.122 228.1 374.122 231 373.062C233.33 371.732 235.67 371.732 238 373.062Z" fill="#050505"/>
</svg>
