<svg width="500" height="500" viewBox="0 0 500 500" fill="none" xmlns="http://www.w3.org/2000/svg">
<path fill-rule="evenodd" clip-rule="evenodd" d="M369 62.0613C381.44 60.7113 392.77 63.5413 403 70.5613C409.79 75.6813 416.29 81.1813 422.5 87.0613C431.04 100.811 434.04 115.811 431.5 132.061C429.37 140.151 424.87 146.651 418 151.561C412.61 154.591 407.27 157.591 402 160.561C419.03 192.071 424.87 225.571 419.5 261.061C418.35 277.671 414.68 293.671 408.5 309.061C396.11 324.421 380.28 334.591 361 339.561C355.9 344.441 349.9 347.781 343 349.561C331 352.441 319 355.271 307 358.061C311.48 364.701 316.64 370.701 322.5 376.061C324.41 384.351 322.24 391.511 316 397.561C311.01 399.851 306.34 399.351 302 396.061C301.67 396.391 301.33 396.731 301 397.061C305.4 408.011 304.9 418.671 299.5 429.061C296.06 433.641 291.56 435.141 286 433.561C280.98 428.821 276.15 423.991 271.5 419.061C268.65 423.931 265.98 428.931 263.5 434.061C260.68 438.221 256.85 439.721 252 438.561C249.17 435.731 246.33 432.891 243.5 430.061C239.79 420.291 239.12 410.291 241.5 400.061C242.85 393.951 244.19 387.951 245.5 382.061C240.83 389.211 235.33 395.711 229 401.561C218.93 406.961 214.1 404.121 214.5 393.061C215.44 383.211 218.6 374.211 224 366.061C191.06 358.921 160.72 345.761 133 326.561C112.98 309.871 100.48 288.701 95.5 263.061C95.23 241.391 95.56 219.721 96.5 198.061C97.76 188.941 99.59 179.941 102 171.061C85.02 170.581 73.85 162.251 68.5 146.061C69.39 115.771 82.23 91.9413 107 74.5613C112.45 72.2813 118.12 70.7813 124 70.0613C135.76 70.1413 147.1 72.3113 158 76.5613C163.93 80.4913 168.43 85.6613 171.5 92.0613C225.3 70.5413 278.96 70.8713 332.5 93.0613C336.04 84.4913 341.21 76.9913 348 70.5613C354.65 66.5613 361.65 63.7313 369 62.0613Z" fill="#B17A67"/>
<path fill-rule="evenodd" clip-rule="evenodd" d="M405.001 97.0618C418.971 96.5318 425.301 103.372 424.001 117.562C423.561 121.152 422.731 124.652 421.501 128.062C417.791 135.762 412.631 142.262 406.001 147.562C398.681 151.242 392.181 150.072 386.501 144.062C383.581 138.542 380.911 132.882 378.501 127.062C371.921 123.012 371.251 118.012 376.501 112.062C384.351 103.672 393.851 98.6718 405.001 97.0618Z" fill="#FDBF0C"/>
<path fill-rule="evenodd" clip-rule="evenodd" d="M315.001 99.0615C322.791 99.3815 324.791 103.042 321.001 110.062C316.991 113.472 312.821 113.802 308.501 111.062C307.831 109.392 307.831 107.732 308.501 106.062C310.361 103.392 312.531 101.062 315.001 99.0615Z" fill="#0B0706"/>
<path fill-rule="evenodd" clip-rule="evenodd" d="M252 101.061C261.29 100.301 270.29 101.471 279 104.561C281.8 106.351 284.3 108.521 286.5 111.061C287.29 114.191 286.96 117.191 285.5 120.061C279.02 129.221 270.18 134.721 259 136.561C250.03 137.791 241.7 136.121 234 131.561C229.37 126.451 228.87 120.951 232.5 115.061C234.38 113.521 235.88 111.681 237 109.561C241.9 106.441 246.9 103.611 252 101.061Z" fill="#F7F6F5"/>
<path fill-rule="evenodd" clip-rule="evenodd" d="M259 104.062C265.99 102.562 268.83 105.222 267.5 112.062C262.68 115.182 262.85 118.012 268 120.562C273.46 120.352 275.63 122.852 274.5 128.062C268.43 130.222 263.27 128.892 259 124.062C257.23 127.122 254.89 129.622 252 131.562C246.35 134.612 243.51 133.112 243.5 127.062C248.2 125.192 251.37 121.862 253 117.062C251.69 115.242 250.19 113.582 248.5 112.062C247.58 109.252 248.41 107.092 251 105.562C253.86 105.382 256.53 104.882 259 104.062Z" fill="#0C0C0C"/>
<path fill-rule="evenodd" clip-rule="evenodd" d="M107.999 105.061C121.109 104.381 133.109 107.541 143.999 114.561C150.769 120.211 150.429 125.541 142.999 130.561C132.189 136.041 123.189 143.701 115.999 153.561C103.189 159.401 94.0193 155.901 88.4993 143.061C86.5793 131.981 88.4193 121.641 93.9993 112.061C98.4793 109.151 103.149 106.821 107.999 105.061Z" fill="#FDBF09"/>
<path fill-rule="evenodd" clip-rule="evenodd" d="M192.999 107.062C205.229 107.592 207.229 112.422 198.999 121.562C190.499 123.732 187.329 120.562 189.499 112.062C190.499 110.242 191.659 108.572 192.999 107.062Z" fill="#090605"/>
<path fill-rule="evenodd" clip-rule="evenodd" d="M372 208.062C364.65 204.062 356.99 200.562 349 197.562C336.11 195.022 323.11 193.182 310 192.062C304.6 191.542 299.6 192.712 295 195.562C283.6 204.582 278.26 216.412 279 231.062C278.79 244.072 282.79 255.572 291 265.562C295.91 268.682 301.25 270.682 307 271.562C315 272.232 323 272.232 331 271.562C335.32 267.302 339.82 263.132 344.5 259.062C349.27 248.342 352.77 237.172 355 225.562C354.09 222.092 353.42 218.592 353 215.062C356.39 216.252 359.72 217.752 363 219.562C367.35 220.022 371.68 220.522 376 221.062C377.23 221.712 377.89 222.882 378 224.562C381.07 256.742 368.74 281.082 341 297.562C331.67 302.672 322 307.002 312 310.562C291.08 314.942 270.08 318.942 249 322.562C229.11 324.162 209.78 321.492 191 314.562C170.63 305.532 156.47 290.702 148.5 270.062C146.72 265.562 145.89 260.892 146 256.062C148.92 256.102 151.59 255.272 154 253.562C157.84 248.892 161.84 244.392 166 240.062C166 245.602 166.16 251.272 166.5 257.062C169.42 262.582 172.09 268.242 174.5 274.062C189.94 290.842 207.11 292.672 226 279.562C229.54 276.362 232.7 272.862 235.5 269.062C237.63 262.792 240.3 256.792 243.5 251.062C244.29 239.982 240.62 230.642 232.5 223.062C230.51 213.742 224.68 208.582 215 207.562C204.95 206.702 194.95 207.032 185 208.562C171.67 213.552 160.01 221.052 150 231.062C156.08 215.802 166.08 203.642 180 194.562C221.79 163.962 267.79 155.622 318 169.562C322 171.562 326 173.562 330 175.562C342.86 175.912 353.69 180.742 362.5 190.062C366.23 194.792 369.56 199.792 372.5 205.062C373.24 206.312 373.07 207.312 372 208.062Z" fill="#FCFCFC"/>
<path fill-rule="evenodd" clip-rule="evenodd" d="M372 208.061C374.58 209.101 377.08 210.431 379.5 212.061C380.84 216.171 379.67 219.171 376 221.061C371.68 220.521 367.35 220.021 363 219.561C359.72 217.751 356.39 216.251 353 215.061C353.42 218.591 354.09 222.091 355 225.561C352.77 237.171 349.27 248.341 344.5 259.061C339.82 263.131 335.32 267.301 331 271.561C323 272.231 315 272.231 307 271.561C301.25 270.681 295.91 268.681 291 265.561C282.79 255.571 278.79 244.071 279 231.061C278.26 216.411 283.6 204.581 295 195.561C299.6 192.711 304.6 191.541 310 192.061C323.11 193.181 336.11 195.021 349 197.561C356.99 200.561 364.65 204.061 372 208.061Z" fill="#030303"/>
<path fill-rule="evenodd" clip-rule="evenodd" d="M301.001 203.062C306.581 202.932 310.741 205.262 313.501 210.062C313.701 216.072 313.371 222.072 312.501 228.062C308.411 233.792 302.911 235.622 296.001 233.562C293.081 230.172 290.241 226.672 287.501 223.062C286.851 219.972 287.181 216.972 288.501 214.062C292.831 210.492 297.001 206.832 301.001 203.062Z" fill="#F3F3F3"/>
<path fill-rule="evenodd" clip-rule="evenodd" d="M146 256.061C141.96 251.801 141.12 246.801 143.5 241.061C146.31 238.101 148.48 234.761 150 231.061C160.01 221.051 171.67 213.551 185 208.561C194.95 207.031 204.95 206.701 215 207.561C224.68 208.581 230.51 213.741 232.5 223.061C240.62 230.641 244.29 239.981 243.5 251.061C240.3 256.791 237.63 262.791 235.5 269.061C232.7 272.861 229.54 276.361 226 279.561C207.11 292.671 189.94 290.841 174.5 274.061C172.09 268.241 169.42 262.581 166.5 257.061C166.16 251.271 166 245.601 166 240.061C161.84 244.391 157.84 248.891 154 253.561C151.59 255.271 148.92 256.101 146 256.061Z" fill="#040404"/>
<path fill-rule="evenodd" clip-rule="evenodd" d="M212 218.062C221.23 218.462 225.9 223.292 226 232.562C226.2 242.552 221.53 248.722 212 251.062C204.59 249.092 200.59 244.262 200 236.562C200.49 228.052 204.49 221.892 212 218.062Z" fill="#F4F4F4"/>
<path fill-rule="evenodd" clip-rule="evenodd" d="M287 280.062C289.82 279.812 292.49 280.312 295 281.562C295.05 290.482 291.72 298.142 285 304.562C280.79 306.092 276.46 306.432 272 305.562C266.43 303.272 260.93 301.102 255.5 299.062C253.21 295.732 253.71 292.892 257 290.562C263.02 289.532 268.68 290.532 274 293.562C275.67 294.232 277.33 294.232 279 293.562C281.8 289.112 284.47 284.612 287 280.062Z" fill="#0A0A0A"/>
</svg>
