<svg width="500" height="500" viewBox="0 0 500 500" fill="none" xmlns="http://www.w3.org/2000/svg">
<path fill-rule="evenodd" clip-rule="evenodd" d="M340.999 367.062C335.919 367.682 330.919 368.682 325.999 370.062C300.629 370.162 275.299 369.492 249.999 368.062C248.629 368.222 247.289 368.052 245.999 367.562C241.609 365.042 237.279 362.542 232.999 360.062C226.689 354.742 219.359 351.242 210.999 349.562C186.449 338.972 166.119 323.142 149.999 302.062C145.179 307.692 140.339 313.352 135.499 319.062C128.529 326.462 120.029 331.132 109.999 333.062C101.389 331.962 95.5589 327.302 92.4989 319.062C90.3989 306.802 89.7389 294.472 90.4989 282.062C93.5389 274.322 97.3689 266.982 101.999 260.062C87.7289 258.672 75.2289 253.342 64.4989 244.062C62.0889 241.502 60.4189 238.502 59.4989 235.062C57.6389 224.412 59.3089 214.412 64.4989 205.062C70.6489 198.472 78.1489 196.312 86.9989 198.562C97.7989 200.942 108.639 203.112 119.499 205.062C124.869 204.382 130.039 202.882 134.999 200.562C146.029 163.782 161.859 129.282 182.499 97.0621C190.489 88.4721 199.989 81.9721 210.999 77.5621C233.089 68.2721 256.089 64.2721 279.999 65.5621C298.599 69.6121 317.259 73.2821 335.999 76.5621C348.689 80.7921 361.019 85.7921 372.999 91.5621C381.079 99.6421 389.749 106.982 398.999 113.562C406.859 121.092 414.359 128.922 421.499 137.062C424.099 141.272 426.439 145.602 428.499 150.062C431.259 160.252 434.599 170.252 438.499 180.062C438.759 190.472 439.589 200.802 440.999 211.062C440.339 227.032 436.839 242.362 430.499 257.062C425.169 270.392 419.829 283.732 414.499 297.062C403.159 316.232 389.999 334.062 374.999 350.562C370.309 354.912 365.309 358.912 359.999 362.562C353.589 364.292 347.249 365.792 340.999 367.062Z" fill="#FE7E47"/>
<path fill-rule="evenodd" clip-rule="evenodd" d="M407 181.061C400.13 177.721 393.13 174.551 386 171.561C375.24 169.681 364.4 168.181 353.5 167.061C345.08 166.941 338.41 170.271 333.5 177.061C324.35 194.071 325.02 210.741 335.5 227.061C340.28 230.971 345.78 233.131 352 233.561C358.33 234.231 364.67 234.231 371 233.561C376.55 229.681 381.05 224.851 384.5 219.061C388.73 210.161 390.73 200.831 390.5 191.061C390.1 189.691 389.6 188.351 389 187.061C389.33 186.731 389.67 186.391 390 186.061C396.59 189.921 403.59 191.251 411 190.061C417.26 210.411 414.42 229.411 402.5 247.061C380.24 277.101 350.41 290.101 313 286.061C283.9 287.041 257.56 279.211 234 262.561C230.81 259.681 227.98 256.511 225.5 253.061C220.61 243.961 216.28 234.621 212.5 225.061C211.95 221.401 211.45 217.731 211 214.061C211.01 212.511 211.34 211.181 212 210.061C213.92 182.711 226.25 161.551 249 146.561C253.17 143.971 257.51 141.641 262 139.561C282.51 132.851 303.51 129.511 325 129.561C342.94 132.431 359.94 138.101 376 146.561C388.98 155.681 399.31 167.181 407 181.061Z" fill="#FDFCFC"/>
<path fill-rule="evenodd" clip-rule="evenodd" d="M407 181.062C411.76 182.542 413.1 185.542 411 190.062C403.59 191.252 396.59 189.922 390 186.062C389.67 186.392 389.33 186.732 389 187.062C389.6 188.352 390.1 189.692 390.5 191.062C390.73 200.832 388.73 210.162 384.5 219.062C381.05 224.852 376.55 229.682 371 233.562C364.67 234.232 358.33 234.232 352 233.562C345.78 233.132 340.28 230.972 335.5 227.062C325.02 210.742 324.35 194.072 333.5 177.062C338.41 170.272 345.08 166.942 353.5 167.062C364.4 168.182 375.24 169.682 386 171.562C393.13 174.552 400.13 177.722 407 181.062Z" fill="#040404"/>
<path fill-rule="evenodd" clip-rule="evenodd" d="M344 177.061C348.72 176.111 352.56 177.451 355.5 181.061C356.17 186.391 356.17 191.731 355.5 197.061C351.8 201.831 346.97 203.331 341 201.561C338.87 198.761 336.71 195.921 334.5 193.061C333.76 189.781 334.42 186.781 336.5 184.061C339.5 182.231 342 179.891 344 177.061Z" fill="#F6F6F6"/>
<path fill-rule="evenodd" clip-rule="evenodd" d="M211.999 210.062C223.339 191.792 239.839 181.462 261.499 179.062C269.039 178.982 276.199 180.482 282.999 183.562C286.249 185.902 288.089 189.072 288.499 193.062C291.659 196.722 294.329 200.722 296.499 205.062C297.169 209.392 297.169 213.732 296.499 218.062C290.569 238.322 277.069 248.162 255.999 247.562C250.059 244.342 244.559 240.512 239.499 236.062C237.159 231.032 234.829 226.032 232.499 221.062C232.109 216.362 232.109 211.692 232.499 207.062C228.779 211.322 224.949 215.492 220.999 219.562C218.349 220.062 215.689 220.222 212.999 220.062C212.289 216.772 211.959 213.442 211.999 210.062Z" fill="#040404"/>
<path fill-rule="evenodd" clip-rule="evenodd" d="M270 189.062C278.13 188.862 282.47 192.862 283 201.062C282.71 209.182 278.71 214.182 271 216.062C264.45 214.832 261.11 210.832 261 204.062C261.55 201.002 262.38 198.002 263.5 195.062C265.56 192.832 267.73 190.832 270 189.062Z" fill="#F4F4F4"/>
<path fill-rule="evenodd" clip-rule="evenodd" d="M334 241.062C336.03 240.902 338.03 241.062 340 241.562C341.3 242.362 341.97 243.532 342 245.062C340.06 251.442 336.73 256.942 332 261.562C328.07 263.192 324.07 263.192 320 261.562C316.85 259.962 313.52 258.962 310 258.562C306.52 255.852 306.19 252.852 309 249.562C315.37 249.912 321.7 250.582 328 251.562C329.89 247.952 331.89 244.452 334 241.062Z" fill="#0C0C0C"/>
<path fill-rule="evenodd" clip-rule="evenodd" d="M233 360.062C237.28 362.542 241.61 365.042 246 367.562C247.29 368.052 248.63 368.222 250 368.062C249.67 384.072 250 400.072 251 416.062C258.32 414.232 265.32 415.062 272 418.562C276.42 425.092 274.76 429.762 267 432.562C258.73 434.172 250.4 434.832 242 434.562C238.66 432.212 236.49 429.052 235.5 425.062C235.17 407.062 234.83 389.062 234.5 371.062C233.78 367.412 233.28 363.752 233 360.062Z" fill="#040303"/>
<path fill-rule="evenodd" clip-rule="evenodd" d="M341 367.062C342.45 380.762 344.11 394.422 346 408.062C351.23 406.272 356.23 406.772 361 409.562C364.95 414.022 364.95 418.522 361 423.062C353.04 428.102 344.38 430.602 335 430.562C333.14 427.872 330.81 425.702 328 424.062C327 416.452 326.34 408.782 326 401.062C327.29 390.722 327.29 380.392 326 370.062C330.92 368.682 335.92 367.682 341 367.062Z" fill="#040404"/>
</svg>
