<svg width="500" height="500" viewBox="0 0 500 500" fill="none" xmlns="http://www.w3.org/2000/svg">
<path fill-rule="evenodd" clip-rule="evenodd" d="M329.999 412.062C327.389 405.522 323.719 399.522 318.999 394.062C328.049 393.482 337.049 392.642 345.999 391.562C351.309 384.882 352.149 377.722 348.499 370.062C344.009 365.302 338.509 363.802 331.999 365.562C329.349 366.862 326.689 368.192 323.999 369.562C320.459 372.612 316.789 375.442 312.999 378.062C309.789 366.952 303.449 364.612 293.999 371.062C291.359 371.522 288.699 371.862 285.999 372.062C277.429 371.122 268.929 369.792 260.499 368.062C256.569 367.352 253.569 368.682 251.499 372.062C249.909 378.622 249.579 385.282 250.499 392.062C251.919 396.482 254.919 399.152 259.499 400.062C267.209 397.872 274.539 394.872 281.499 391.062C279.639 395.792 277.469 400.462 274.999 405.062C246.109 403.382 218.109 397.552 190.999 387.562C169.319 376.802 151.819 361.302 138.499 341.062C131.569 351.322 122.739 359.492 111.999 365.562C82.7895 372.992 57.6195 366.162 36.4995 345.062C29.1695 333.732 29.1695 322.392 36.4995 311.062C44.4995 304.582 52.6695 304.412 60.9995 310.562C69.3095 318.542 77.3095 326.872 84.9995 335.562C91.4895 337.962 97.3295 336.792 102.499 332.062C106.579 324.892 110.919 317.892 115.499 311.062C114.999 304.702 113.999 298.372 112.499 292.062C111.829 283.392 111.829 274.732 112.499 266.062C115.169 246.062 117.829 226.062 120.499 206.062C122.729 194.452 125.899 183.122 129.999 172.062C127.999 170.072 126.499 167.732 125.499 165.062C124.269 154.082 123.929 143.082 124.499 132.062C126.939 121.092 129.269 110.092 131.499 99.0619C133.149 95.7619 134.819 92.4219 136.499 89.0619C135.669 77.8919 140.169 69.7219 149.999 64.5619C152.999 63.8919 155.999 63.8919 158.999 64.5619C164.819 66.5019 170.479 68.8319 175.999 71.5619C186.879 79.1719 197.219 87.5119 206.999 96.5619C213.669 100.892 220.329 105.232 226.999 109.562C233.199 111.532 239.529 112.872 245.999 113.562C258.239 114.082 270.409 115.242 282.499 117.062C294.979 115.792 307.479 114.632 319.999 113.562C330.099 109.352 339.759 104.352 348.999 98.5619C356.329 89.8919 364.329 81.8919 372.999 74.5619C378.959 70.8019 385.289 67.8019 391.999 65.5619C403.849 61.2619 413.349 64.0919 420.499 74.0619C422.239 80.3019 423.569 86.6419 424.499 93.0619C435.609 112.622 443.949 133.292 449.499 155.062C450.229 162.052 450.889 169.052 451.499 176.062C458.059 190.262 463.729 204.932 468.499 220.062C469.929 227.682 470.259 235.352 469.499 243.062C467.029 266.932 462.029 290.272 454.499 313.062C444.069 333.612 431.399 352.612 416.499 370.062C392.889 394.622 364.049 408.622 329.999 412.062Z" fill="#FEC10A"/>
<path fill-rule="evenodd" clip-rule="evenodd" d="M415.001 217.062C411.851 216.822 408.851 215.992 406.001 214.562C399.881 210.172 393.211 206.832 386.001 204.562C375.521 203.692 365.191 202.022 355.001 199.562C348.291 198.922 341.631 199.262 335.001 200.562C330.151 204.422 325.651 208.582 321.501 213.062C312.061 232.962 313.061 252.292 324.501 271.062C329.101 275.612 334.601 278.442 341.001 279.562C348.851 279.842 356.681 280.342 364.501 281.062C370.431 277.242 376.101 272.912 381.501 268.062C385.601 258.672 388.931 249.002 391.501 239.062C392.291 233.772 391.791 228.612 390.001 223.562C390.331 223.062 390.671 222.562 391.001 222.062C398.661 226.732 406.991 228.562 416.001 227.562C416.811 226.452 417.471 225.282 418.001 224.062C422.341 232.962 424.341 242.462 424.001 252.562C424.681 264.142 422.181 274.982 416.501 285.062C400.891 310.342 379.051 327.842 351.001 337.562C328.411 341.642 305.741 345.312 283.001 348.562C261.871 350.602 242.211 346.272 224.001 335.562C166.331 297.702 157.491 250.542 197.501 194.062C210.241 179.772 225.741 169.602 244.001 163.562C260.231 160.292 276.231 156.292 292.001 151.562C336.261 150.112 373.421 165.612 403.501 198.062C407.851 204.092 411.681 210.422 415.001 217.062Z" fill="#FDFDFC"/>
<path fill-rule="evenodd" clip-rule="evenodd" d="M414.999 217.061C417.349 218.771 418.349 221.111 417.999 224.061C417.469 225.281 416.809 226.451 415.999 227.561C406.989 228.561 398.66 226.731 390.999 222.061C390.669 222.561 390.329 223.061 389.999 223.561C391.789 228.611 392.289 233.771 391.499 239.061C388.929 249.001 385.599 258.671 381.499 268.061C376.099 272.911 370.429 277.241 364.499 281.061C356.679 280.341 348.849 279.841 340.999 279.561C334.599 278.441 329.099 275.611 324.499 271.061C313.059 252.291 312.059 232.961 321.499 213.061C325.649 208.581 330.149 204.421 334.999 200.561C341.629 199.261 348.289 198.921 354.999 199.561C365.189 202.021 375.519 203.691 385.999 204.561C393.209 206.831 399.879 210.171 405.999 214.561C408.849 215.991 411.849 216.821 414.999 217.061Z" fill="#040404"/>
<path fill-rule="evenodd" clip-rule="evenodd" d="M336 211.061C341.57 209.981 346.07 211.641 349.5 216.061C349.89 223.081 349.56 230.081 348.5 237.061C343.55 242.241 337.72 243.411 331 240.561C328.87 237.761 326.71 234.921 324.5 232.061C323.66 228.271 324 224.601 325.5 221.061C329.5 218.221 333 214.891 336 211.061Z" fill="#F5F5F5"/>
<path fill-rule="evenodd" clip-rule="evenodd" d="M225.001 214.062C232.671 213.892 240.341 214.062 248.001 214.562C254.791 215.492 260.631 218.322 265.501 223.062C266.541 225.272 267.211 227.612 267.501 230.062C276.261 238.242 279.931 248.242 278.501 260.062C275.431 270.702 269.931 279.872 262.001 287.562C241.271 302.492 223.101 299.992 207.501 280.062C205.171 274.392 202.831 268.732 200.501 263.062C200.081 258.022 200.081 253.022 200.501 248.062C196.371 253.192 191.871 258.032 187.001 262.562C183.311 264.722 179.811 264.552 176.501 262.062C175.831 258.392 175.831 254.732 176.501 251.062C183.781 237.782 194.281 227.952 208.001 221.562C213.731 218.942 219.391 216.442 225.001 214.062Z" fill="#040404"/>
<path fill-rule="evenodd" clip-rule="evenodd" d="M246 226.062C259.09 227.022 263.92 234.022 260.5 247.062C258.34 253.722 253.84 257.722 247 259.062C243.87 258.912 241.37 257.582 239.5 255.062C237 251.922 235.5 248.422 235 244.562C235.98 240.742 237.15 236.912 238.5 233.062C240.57 230.152 243.07 227.822 246 226.062Z" fill="#F6F6F6"/>
<path fill-rule="evenodd" clip-rule="evenodd" d="M324 288.062C328.69 287.392 331.69 289.232 333 293.562C330.79 301.332 326.79 307.992 321 313.562C317.46 315.062 313.79 315.402 310 314.562C303.71 312.482 297.54 310.322 291.5 308.062C289.08 299.812 292.24 296.652 301 298.562C305.48 300.842 310.15 302.182 315 302.562C317.89 297.612 320.89 292.782 324 288.062Z" fill="#0D0D0D"/>
<path fill-rule="evenodd" clip-rule="evenodd" d="M330 412.061C331.88 417.041 333.55 422.041 335 427.061C333.71 434.121 329.71 435.961 323 432.561C320.54 431.101 318.37 429.271 316.5 427.061C312.78 421.621 309.62 415.961 307 410.061C306.34 405.751 304.84 401.751 302.5 398.061C300.39 401.291 298.55 404.621 297 408.061C292.86 415.661 288.7 423.331 284.5 431.061C282.45 434.581 279.45 436.581 275.5 437.061C270.46 436.351 268.29 433.351 269 428.061C269.6 420.001 271.6 412.331 275 405.061C277.47 400.461 279.64 395.791 281.5 391.061C274.54 394.871 267.21 397.871 259.5 400.061C254.92 399.151 251.92 396.481 250.5 392.061C249.58 385.281 249.91 378.621 251.5 372.061C253.57 368.681 256.57 367.351 260.5 368.061C268.93 369.791 277.43 371.121 286 372.061C288.7 371.861 291.36 371.521 294 371.061C283.41 388.051 288.08 396.551 308 396.561C311.98 394.911 313.98 391.911 314 387.561C313.24 384.441 312.91 381.271 313 378.061C316.79 375.441 320.46 372.611 324 369.561C326.69 368.191 329.35 366.861 332 365.561C338.51 363.801 344.01 365.301 348.5 370.061C352.15 377.721 351.31 384.881 346 391.561C337.05 392.641 328.05 393.481 319 394.061C323.72 399.521 327.39 405.521 330 412.061Z" fill="#4459DD"/>
<path fill-rule="evenodd" clip-rule="evenodd" d="M313.001 378.061C312.911 381.271 313.241 384.441 314.001 387.561C313.981 391.911 311.981 394.911 308.001 396.561C288.081 396.551 283.411 388.051 294.001 371.061C303.451 364.611 309.791 366.951 313.001 378.061Z" fill="#FC5724"/>
<path fill-rule="evenodd" clip-rule="evenodd" d="M307 410.062C305.21 411.182 303.21 411.352 301 410.562C299.06 410.442 297.73 409.612 297 408.062C298.55 404.622 300.39 401.292 302.5 398.062C304.84 401.752 306.34 405.752 307 410.062Z" fill="#F5BE26"/>
</svg>
