<svg width="500" height="500" viewBox="0 0 500 500" fill="none" xmlns="http://www.w3.org/2000/svg">
<path fill-rule="evenodd" clip-rule="evenodd" d="M292 47.0615C300.87 47.1915 309.2 49.3615 317 53.5615C321.53 58.4315 326.37 62.9315 331.5 67.0615C341.34 82.9115 350.34 99.2415 358.5 116.062C366.5 126.732 374.5 137.392 382.5 148.062C391.44 170.502 399.78 193.172 407.5 216.062C416.03 243.782 416.03 271.442 407.5 299.062C399.08 311.572 391.41 324.572 384.5 338.062C378.24 344.322 371.41 349.822 364 354.562C346.18 363.392 327.84 371.062 309 377.562C301.67 377.892 294.33 378.232 287 378.562C294.27 382.832 301.27 387.502 308 392.562C317.7 403.512 315.37 410.342 301 413.062C298.7 412.832 296.54 412.162 294.5 411.062C292.76 413.012 290.59 414.012 288 414.062C289.02 425.042 289.18 436.042 288.5 447.062C286.93 453.012 283.43 454.852 278 452.562C268.1 445.322 261.27 435.822 257.5 424.062C251.41 434.142 244.58 443.642 237 452.562C233.02 453.942 230.19 452.772 228.5 449.062C228.17 436.392 227.83 423.732 227.5 411.062C222.84 415.052 217.67 418.222 212 420.562C202.06 421.612 197.89 417.112 199.5 407.062C204.12 397.432 209.96 388.602 217 380.562C202.9 381.302 189.23 379.302 176 374.562C162.7 368.582 149.36 362.582 136 356.562C124.58 349.772 113.41 342.602 102.5 335.062C96.81 327.682 92.14 319.682 88.5 311.062C88.15 293.872 87.32 276.702 86 259.562C87.67 240.072 89.17 220.572 90.5 201.062C95.5 175.732 103.5 151.402 114.5 128.062C118.37 116.792 122.03 105.462 125.5 94.0615C128.64 87.1015 132.31 80.4415 136.5 74.0615C142.92 69.2415 149.76 68.7415 157 72.5615C160.84 74.9815 164.51 77.6515 168 80.5615C183.6 96.4815 197.27 113.812 209 132.562C229.32 130.862 249.66 129.032 270 127.062C272.77 105.732 275.6 84.4015 278.5 63.0615C280.36 55.3815 284.86 50.0415 292 47.0615Z" fill="#FDFDFD"/>
<path fill-rule="evenodd" clip-rule="evenodd" d="M298 73.0616C301.02 72.9016 304.02 73.0616 307 73.5616C310.95 76.3716 315.29 78.3716 320 79.5616C321.19 80.9116 322.52 82.0816 324 83.0616C327.4 89.7716 330.9 96.4416 334.5 103.062C337.27 108.952 337.6 114.952 335.5 121.062C328.41 130.762 318.91 134.592 307 132.562C301.75 129.192 297.25 125.022 293.5 120.062C290.33 109.262 289.33 98.2616 290.5 87.0616C290.68 81.0316 293.18 76.3616 298 73.0616Z" fill="#FFE8CE"/>
<path fill-rule="evenodd" clip-rule="evenodd" d="M154.001 94.0615C164.081 94.6315 169.911 99.9715 171.501 110.062C177.451 118.132 181.951 126.962 185.001 136.562C184.541 141.942 182.211 146.282 178.001 149.562C168.241 151.542 158.741 154.382 149.501 158.062C144.051 156.842 139.051 154.512 134.501 151.062C133.831 149.732 133.171 148.392 132.501 147.062C131.831 138.062 131.831 129.062 132.501 120.062C133.391 114.282 135.391 108.942 138.501 104.062C144.011 101.182 149.181 97.8515 154.001 94.0615Z" fill="#FFE8CE"/>
<path fill-rule="evenodd" clip-rule="evenodd" d="M148.999 196.062C153.679 195.892 158.349 196.062 162.999 196.562C178.229 199.312 193.569 201.312 208.999 202.562C217.249 204.632 217.919 207.962 210.999 212.562C191.329 210.992 171.659 208.992 151.999 206.562C145.779 206.532 143.779 203.692 145.999 198.062C147.239 197.622 148.239 196.952 148.999 196.062Z" fill="#090909"/>
<path fill-rule="evenodd" clip-rule="evenodd" d="M342 275.061C337.05 279.681 332.05 284.341 327 289.061C325.1 290.031 323.1 290.361 321 290.061C314.08 289.261 307.08 288.761 300 288.561C289.4 286.861 282.24 281.021 278.5 271.061C271.11 252.411 272.78 234.751 283.5 218.061C285.96 216.601 288.13 214.771 290 212.561C286.56 212.131 285.06 210.301 285.5 207.061C298.36 194.881 312.86 185.051 329 177.561C336.33 173.681 343.83 173.181 351.5 176.061C350.44 178.181 349.27 180.521 348 183.061C331.75 190.151 316.08 198.321 301 207.561C315.81 208.821 330.48 210.821 345 213.561C355.49 218.721 365.99 223.881 376.5 229.061C377.83 234.101 376 236.771 371 237.061C363.32 237.231 356.32 235.231 350 231.061C349.67 231.561 349.33 232.061 349 232.561C350.82 237.941 351.32 243.441 350.5 249.061C347.66 257.761 344.83 266.421 342 275.061Z" fill="#040404"/>
<path fill-rule="evenodd" clip-rule="evenodd" d="M295 220.061C300.4 219.341 304.9 221.011 308.5 225.061C308.89 232.081 308.56 239.081 307.5 246.061C302.55 251.241 296.72 252.411 290 249.561C287.87 246.761 285.71 243.921 283.5 241.061C282.66 237.271 283 233.601 284.5 230.061C288.5 227.221 292 223.891 295 220.061Z" fill="#F5F5F5"/>
<path fill-rule="evenodd" clip-rule="evenodd" d="M193.001 306.061C178.231 303.361 168.231 295.021 163.001 281.061C159.171 273.461 158.011 265.461 159.501 257.061C155.371 262.191 150.871 267.031 146.001 271.561C142.311 273.721 138.811 273.551 135.501 271.061C134.831 267.391 134.831 263.731 135.501 260.061C147.041 241.871 163.201 229.701 184.001 223.561C191.671 222.891 199.331 222.891 207.001 223.561C213.791 224.491 219.631 227.321 224.501 232.061C225.541 234.271 226.211 236.611 226.501 239.061C236.541 248.111 239.871 259.111 236.501 272.061C229.911 293.601 215.411 304.931 193.001 306.061Z" fill="#040404"/>
<path fill-rule="evenodd" clip-rule="evenodd" d="M205 235.062C218.09 236.022 222.92 243.022 219.5 256.062C217.34 262.722 212.84 266.722 206 268.062C202.87 267.912 200.37 266.582 198.5 264.062C196 260.922 194.5 257.422 194 253.562C194.98 249.742 196.15 245.912 197.5 242.062C199.57 239.152 202.07 236.822 205 235.062Z" fill="#F6F6F6"/>
<path fill-rule="evenodd" clip-rule="evenodd" d="M321 290.062C323.1 290.362 325.1 290.032 327 289.062C332.05 284.342 337.05 279.682 342 275.062C353.21 271.592 364.55 268.422 376 265.562C391.82 264.382 399.32 271.552 398.5 287.062C397.5 289.062 396.5 291.062 395.5 293.062C387.18 301.052 378.01 307.882 368 313.562C353.14 319.122 338.81 318.122 325 310.562C317.5 304.902 316.17 298.062 321 290.062Z" fill="#F9AEA9"/>
<path fill-rule="evenodd" clip-rule="evenodd" d="M163.001 281.062C168.231 295.022 178.231 303.362 193.001 306.062C193.321 311.582 191.321 316.082 187.001 319.562C168.791 327.202 149.791 330.202 130.001 328.562C113.741 325.332 107.911 315.832 112.501 300.062C116.501 293.732 122.001 289.232 129.001 286.562C135.051 285.102 141.051 283.432 147.001 281.562C152.571 281.202 157.911 281.032 163.001 281.062Z" fill="#F9AEA9"/>
<path fill-rule="evenodd" clip-rule="evenodd" d="M283 297.062C287.69 296.392 290.69 298.232 292 302.562C289.79 310.332 285.79 316.992 280 322.562C276.46 324.062 272.79 324.402 269 323.562C262.71 321.482 256.54 319.322 250.5 317.062C248.08 308.812 251.24 305.652 260 307.562C264.48 309.842 269.15 311.182 274 311.562C276.89 306.612 279.89 301.782 283 297.062Z" fill="#0D0D0D"/>
</svg>
