<svg width="500" height="500" viewBox="0 0 500 500" fill="none" xmlns="http://www.w3.org/2000/svg">
<path fill-rule="evenodd" clip-rule="evenodd" d="M294 36.0615C303.65 36.2215 312.65 38.7215 321 43.5615C325.2 48.0915 329.7 52.2615 334.5 56.0615C345.19 72.7815 354.86 90.1115 363.5 108.062C371.01 119.082 379.01 129.752 387.5 140.062C402.86 173.462 414.19 208.132 421.5 244.062C424.62 267.892 420.95 290.562 410.5 312.062C408.17 315.062 405.83 318.062 403.5 321.062C398.12 334.342 389.95 345.512 379 354.562C358.02 366.712 336.02 376.712 313 384.562C304.67 384.892 296.33 385.232 288 385.562C295.17 389.982 302.17 394.652 309 399.562C313.07 402.882 315.74 407.052 317 412.062C316.36 416.872 313.69 420.042 309 421.562C304.47 422.512 300.14 422.012 296 420.062C294.1 422.122 291.76 423.462 289 424.062C290.03 434.692 290.53 445.362 290.5 456.062C289.48 464.112 285.31 466.612 278 463.562C268.03 455.812 260.87 445.972 256.5 434.062C251.08 443.232 245.42 452.232 239.5 461.062C233.38 467.012 229.05 466.012 226.5 458.062C225.71 447.032 225.88 436.032 227 425.062C226.6 423.362 226.1 421.702 225.5 420.062C219.01 426.732 211.17 430.232 202 430.562C199.5 429.392 197.67 427.562 196.5 425.062C195.52 419.832 196.19 414.832 198.5 410.062C203.27 402.192 208.77 394.862 215 388.062C205.02 387.232 195.02 386.732 185 386.562C167.12 379.822 149.46 372.492 132 364.562C119.5 356.732 107 348.892 94.5 341.062C87.89 332.852 82.56 323.852 78.5 314.062C77.86 296.402 77.36 278.732 77 261.062C77.83 243.402 78.66 225.742 79.5 208.062C81.13 191.912 84.8 176.252 90.5 161.062C101.35 135.182 111.02 108.842 119.5 82.0615C122.88 74.4615 127.38 67.6215 133 61.5615C142.4 58.8015 150.74 60.8015 158 67.5615C168.51 77.4015 178.34 87.9015 187.5 99.0615C192.26 104.922 196.26 111.252 199.5 118.062C202 121.062 204.5 124.062 207 127.062C228.26 124.292 249.59 122.292 271 121.062C272.95 99.3515 275.45 77.6815 278.5 56.0615C280.22 46.5315 285.39 39.8615 294 36.0615Z" fill="#FDFDFD"/>
<path fill-rule="evenodd" clip-rule="evenodd" d="M301.001 63.0614C304.441 62.8614 307.771 63.3614 311.001 64.5614C315.331 67.4614 320.001 69.7914 325.001 71.5614C331.091 80.9014 336.261 90.7414 340.501 101.061C341.291 105.491 340.961 109.821 339.501 114.061C331.871 124.271 321.701 128.441 309.001 126.561C306.291 123.191 302.961 120.531 299.001 118.561C295.541 113.241 293.381 107.411 292.501 101.061C291.831 92.7314 291.831 84.3914 292.501 76.0614C292.871 69.9614 295.701 65.6314 301.001 63.0614Z" fill="#FFE8CE"/>
<path fill-rule="evenodd" clip-rule="evenodd" d="M148 86.0612C153.92 85.4412 158.75 87.4412 162.5 92.0612C168.13 103.321 173.8 114.651 179.5 126.061C180.64 140.591 173.81 147.751 159 147.561C155.21 148.951 151.55 150.621 148 152.561C144.67 153.231 141.33 153.231 138 152.561C135.27 150.261 132.27 148.431 129 147.061C127 145.071 125.5 142.731 124.5 140.061C122.26 124.591 124.6 109.931 131.5 96.0612C137.27 92.9912 142.77 89.6612 148 86.0612Z" fill="#FFE8CE"/>
<path fill-rule="evenodd" clip-rule="evenodd" d="M359 273.061C364.76 276.351 365.42 280.511 361 285.561C356 286.231 351 286.231 346 285.561C342.76 284.091 339.42 282.921 336 282.061C320.65 276.221 306.65 268.051 294 257.561C291.46 256.471 288.79 255.801 286 255.561C280.74 251.091 279.41 245.761 282 239.561C288.67 235.891 295.33 232.231 302 228.561C318.32 217.061 334.99 206.061 352 195.561C359.18 194.541 363.51 197.711 365 205.061C364.41 206.831 363.58 208.491 362.5 210.061C353.6 215.261 344.44 220.091 335 224.561C330.67 227.561 326.33 230.561 322 233.561C334.69 234.501 347.36 234.831 360 234.561C364.06 237.031 365.06 240.531 363 245.061C361.83 246.141 360.5 246.981 359 247.561C343.35 248.761 327.68 249.761 312 250.561C327.41 258.601 343.08 266.101 359 273.061Z" fill="#050505"/>
<path fill-rule="evenodd" clip-rule="evenodd" d="M183 299.061C178.72 301.541 174.39 304.041 170 306.561C164.32 307.211 161.48 304.711 161.5 299.061C163.91 295.151 167.07 292.151 171 290.061C181.17 282.061 191.51 274.231 202 266.561C188.63 270.821 174.96 274.321 161 277.061C154.45 276.371 152.29 273.041 154.5 267.061C155.4 265.861 156.57 265.031 158 264.561C174.18 259.281 190.51 254.611 207 250.561C192.01 248.231 177.01 245.891 162 243.561C157.4 241.351 153.23 238.511 149.5 235.061C145.86 226.121 148.7 221.951 158 222.561C184.49 231.601 211.49 238.601 239 243.561C241.6 245.881 242.43 248.711 241.5 252.061C239.48 257.081 236.32 261.251 232 264.561C215.21 275.531 198.88 287.031 183 299.061Z" fill="#040404"/>
<path fill-rule="evenodd" clip-rule="evenodd" d="M336 282.062C339.42 282.922 342.76 284.092 346 285.562C351 286.232 356 286.232 361 285.562C365.42 280.512 364.76 276.352 359 273.062C365.41 271.652 371.74 269.822 378 267.562C385.7 266.232 393.03 267.232 400 270.562C407.99 277.652 409.16 285.822 403.5 295.062C394.46 304.102 384.29 311.602 373 317.562C356.43 323.622 340.76 321.952 326 312.562C320.03 306.092 319.53 299.252 324.5 292.062C327.94 288.112 331.77 284.782 336 282.062Z" fill="#F9AEA9"/>
<path fill-rule="evenodd" clip-rule="evenodd" d="M281 278.062C289.25 276.312 293.25 279.652 293 288.062C292.74 290.592 291.9 292.922 290.5 295.062C285.79 301.982 280.96 308.812 276 315.562C273.42 316.812 270.76 317.142 268 316.562C260.22 311.592 252.38 306.762 244.5 302.062C243.74 297.602 244.9 293.772 248 290.562C256.41 288.092 264.74 285.422 273 282.562C275.89 281.292 278.56 279.792 281 278.062Z" fill="#060606"/>
<path fill-rule="evenodd" clip-rule="evenodd" d="M171.001 290.061C167.071 292.151 163.911 295.151 161.501 299.061C161.481 304.711 164.321 307.211 170.001 306.561C174.391 304.041 178.721 301.541 183.001 299.061C188.591 303.381 190.421 309.051 188.501 316.061C186.671 320.561 183.501 323.731 179.001 325.561C164.421 330.511 149.421 333.341 134.001 334.061C125.471 334.391 117.471 332.561 110.001 328.561C101.321 320.571 99.8209 311.401 105.501 301.061C113.551 291.781 123.721 286.281 136.001 284.561C148.561 281.221 160.231 283.061 171.001 290.061Z" fill="#F9AEA9"/>
<path fill-rule="evenodd" clip-rule="evenodd" d="M276 291.061C277.37 290.901 278.71 291.071 280 291.561C278.17 295.571 275.83 299.231 273 302.561C269.6 303.111 266.27 302.771 263 301.561C260.5 301.151 258.5 299.981 257 298.061C263.63 296.301 269.96 293.961 276 291.061Z" fill="#EDEDED"/>
</svg>
