<svg width="500" height="500" viewBox="0 0 500 500" fill="none" xmlns="http://www.w3.org/2000/svg">
<path fill-rule="evenodd" clip-rule="evenodd" d="M370 361.062C367.56 360.812 365.56 359.812 364 358.062C369.77 345.522 375.27 332.852 380.5 320.062C381.94 312.102 379.77 305.272 374 299.562C368.1 296.442 362.1 293.612 356 291.062C355.66 275.012 352.16 259.682 345.5 245.062C334.86 225.792 324.2 206.462 313.5 187.062C311.17 183.392 308.17 180.392 304.5 178.062C299.3 166.502 290.47 161.332 278 162.562C275.54 164.022 273.37 165.852 271.5 168.062C270.44 172.982 269.61 177.982 269 183.062C267.61 184.202 266.28 184.202 265 183.062C253.98 167.842 247.81 150.842 246.5 132.062C241.32 124.112 234.48 122.282 226 126.562C222.39 130.032 219.89 134.202 218.5 139.062C217.4 152.632 215.07 165.962 211.5 179.062C199.73 197.602 188.73 216.602 178.5 236.062C176.13 243.962 174.3 251.962 173 260.062C166.73 267.512 161.9 275.842 158.5 285.062C153.04 303.742 157.04 320.082 170.5 334.062C178.91 355.702 194.74 367.872 218 370.562C230 371.562 242 372.232 254 372.562C258 371.892 262 371.232 266 370.562C273.78 366.972 281.78 363.972 290 361.562C300.36 355.382 310.69 349.222 321 343.062C338.09 334.962 349.09 321.632 354 303.062C361.88 303.942 366.54 308.272 368 316.062C367.66 318.432 367.16 320.762 366.5 323.062C360.24 331.952 354.91 341.292 350.5 351.062C350.93 356.112 351.26 361.112 351.5 366.062C352.99 368.872 355.16 370.872 358 372.062C352.4 376.872 346.06 380.712 339 383.562C326.1 389.242 313.1 394.412 300 399.062C295.82 400.102 291.82 401.432 288 403.062C276.16 406.732 264.16 409.892 252 412.562C235.18 414.502 218.85 412.672 203 407.062C198.33 404.732 193.67 402.392 189 400.062C163.59 386.822 143.09 368.152 127.5 344.062C122.95 335.912 120.12 327.252 119 318.062C124.35 313.882 128.85 308.882 132.5 303.062C133.17 301.392 133.17 299.732 132.5 298.062C130 296.962 127.5 297.132 125 298.562C121.97 300.742 118.97 302.902 116 305.062C113.96 276.962 117.46 249.632 126.5 223.062C136.09 204.212 147.42 186.542 160.5 170.062C164.83 166.062 169.17 162.062 173.5 158.062C178.71 148.192 184.71 138.862 191.5 130.062C196.55 112.962 201.89 95.9616 207.5 79.0616C208.52 71.7616 209.19 64.4316 209.5 57.0616C211.34 53.3816 214.17 51.0516 218 50.0616C217.83 44.3816 218 38.7216 218.5 33.0616C221.74 23.6916 228.24 20.5216 238 23.5616C241.23 25.1216 243.4 27.6216 244.5 31.0616C245.4 53.7816 249.73 75.7816 257.5 97.0616C260.49 100.382 262.99 104.052 265 108.062C266.32 109.832 267.82 110.162 269.5 109.062C270.56 94.1016 277.4 82.6016 290 74.5616C298.09 72.6916 303.92 75.5216 307.5 83.0616C311.78 102.502 317.44 121.502 324.5 140.062C331.62 146.182 337.62 153.182 342.5 161.062C347.94 175.272 353.94 189.272 360.5 203.062C366.17 213.062 371.83 223.062 377.5 233.062C379.56 237.252 381.23 241.582 382.5 246.062C403.14 272.232 406.14 300.232 391.5 330.062C384.82 340.772 377.65 351.102 370 361.062Z" fill="#F24335"/>
<path fill-rule="evenodd" clip-rule="evenodd" d="M356 291.062C351.31 289.102 347.97 290.442 346 295.062C346.17 295.732 346.33 296.392 346.5 297.062C349.19 298.922 351.69 300.922 354 303.062C349.09 321.632 338.09 334.962 321 343.062C329.85 333.362 335.52 322.022 338 309.062C337.28 292.112 330.94 277.612 319 265.562C299.95 252.872 279.61 242.532 258 234.562C241.37 229.242 225.03 229.912 209 236.562C202.18 241.172 194.84 244.842 187 247.562C182.16 251.562 177.5 255.732 173 260.062C174.3 251.962 176.13 243.962 178.5 236.062C188.73 216.602 199.73 197.602 211.5 179.062C215.07 165.962 217.4 152.632 218.5 139.062C219.89 134.202 222.39 130.032 226 126.562C234.48 122.282 241.32 124.112 246.5 132.062C247.81 150.842 253.98 167.842 265 183.062C266.28 184.202 267.61 184.202 269 183.062C269.61 177.982 270.44 172.982 271.5 168.062C273.37 165.852 275.54 164.022 278 162.562C290.47 161.332 299.3 166.502 304.5 178.062C308.17 180.392 311.17 183.392 313.5 187.062C324.2 206.462 334.86 225.792 345.5 245.062C352.16 259.682 355.66 275.012 356 291.062Z" fill="#FEC008"/>
<path fill-rule="evenodd" clip-rule="evenodd" d="M321 343.062C310.69 349.222 300.36 355.382 290 361.562C281.78 363.972 273.78 366.972 266 370.562C262 371.232 258 371.892 254 372.562C242 372.232 230 371.562 218 370.562C194.74 367.872 178.91 355.702 170.5 334.062C157.04 320.082 153.04 303.742 158.5 285.062C161.9 275.842 166.73 267.512 173 260.062C177.5 255.732 182.16 251.562 187 247.562C194.84 244.842 202.18 241.172 209 236.562C225.03 229.912 241.37 229.242 258 234.562C279.61 242.532 299.95 252.872 319 265.562C330.94 277.612 337.28 292.112 338 309.062C335.52 322.022 329.85 333.362 321 343.062Z" fill="#FDFCFC"/>
<path fill-rule="evenodd" clip-rule="evenodd" d="M275 274.062C279.68 273.892 284.35 274.062 289 274.562C297.61 277.102 306.28 279.432 315 281.562C320.41 285.292 326.07 288.632 332 291.562C334.72 294.912 334.05 297.412 330 299.062C324.11 298.862 318.94 296.862 314.5 293.062C314.93 306.722 310.43 318.552 301 328.562C297.84 330.232 294.84 332.072 292 334.062C284.42 333.672 277.09 332.172 270 329.562C263.24 324.892 259.41 318.392 258.5 310.062C256.74 294.582 262.24 282.582 275 274.062Z" fill="#050505"/>
<path fill-rule="evenodd" clip-rule="evenodd" d="M193.001 278.061C202.331 277.781 211.331 279.281 220.001 282.561C223.551 285.151 225.381 288.651 225.501 293.061C230.981 298.691 232.981 305.361 231.501 313.061C227.771 324.121 220.601 331.961 210.001 336.561C197.961 340.091 188.121 336.921 180.501 327.061C178.641 323.141 176.971 319.141 175.501 315.061C175.211 310.271 175.041 305.611 175.001 301.061C171.851 303.711 168.851 306.541 166.001 309.561C163.541 311.191 161.041 311.361 158.501 310.061C157.831 307.061 157.831 304.061 158.501 301.061C161.001 297.891 163.501 294.731 166.001 291.561C174.441 285.811 183.441 281.311 193.001 278.061Z" fill="#040404"/>
<path fill-rule="evenodd" clip-rule="evenodd" d="M275 282.062C278.93 281.612 282.09 282.942 284.5 286.062C284.83 290.752 284.5 295.422 283.5 300.062C280.19 303.892 276.03 305.052 271 303.562C268.37 300.772 266.37 297.602 265 294.062C265.55 291.952 266.39 289.952 267.5 288.062C270.65 286.852 273.15 284.852 275 282.062Z" fill="#F5F5F5"/>
<path fill-rule="evenodd" clip-rule="evenodd" d="M208 288.062C215.64 286.712 219.64 289.872 220 297.562C219.38 306.522 214.71 310.852 206 310.562C198.99 302.422 199.66 294.922 208 288.062Z" fill="#F6F6F6"/>
<path fill-rule="evenodd" clip-rule="evenodd" d="M356 291.061C362.1 293.611 368.1 296.441 374 299.561C379.77 305.271 381.94 312.101 380.5 320.061C375.27 332.851 369.77 345.521 364 358.061C365.56 359.811 367.56 360.811 370 361.061C376.87 365.131 379.7 371.131 378.5 379.061C376.45 382.851 373.28 384.021 369 382.561C364.81 379.531 361.14 376.031 358 372.061C355.16 370.871 352.99 368.871 351.5 366.061C351.26 361.111 350.93 356.111 350.5 351.061C354.91 341.291 360.24 331.951 366.5 323.061C367.16 320.761 367.66 318.431 368 316.061C366.54 308.271 361.88 303.941 354 303.061C351.69 300.921 349.19 298.921 346.5 297.061C346.33 296.391 346.17 295.731 346 295.061C347.97 290.441 351.31 289.101 356 291.061Z" fill="#FEFAFA"/>
<path fill-rule="evenodd" clip-rule="evenodd" d="M119 318.061C114.6 322.521 112.1 327.851 111.5 334.061C112.5 336.061 113.5 338.061 114.5 340.061C118.88 344.771 122.88 349.771 126.5 355.061C132.83 359.731 139.17 364.391 145.5 369.061C143.89 379.691 138.05 387.191 128 391.561C125.07 392.341 122.24 392.171 119.5 391.061C119.28 387.381 119.61 383.711 120.5 380.061C122.63 376.931 125.13 374.101 128 371.561C119.92 366.821 113.09 360.651 107.5 353.061C104.27 348.371 101.6 343.371 99.5 338.061C99.85 324.531 105.35 313.531 116 305.061C118.97 302.901 121.97 300.741 125 298.561C127.5 297.131 130 296.961 132.5 298.061C133.17 299.731 133.17 301.391 132.5 303.061C128.85 308.881 124.35 313.881 119 318.061Z" fill="#F9F8F8"/>
<path fill-rule="evenodd" clip-rule="evenodd" d="M261.001 337.062C264.701 336.242 267.031 337.572 268.001 341.062C266.141 347.282 262.481 352.112 257.001 355.562C254.591 356.042 252.251 355.712 250.001 354.562C246.451 352.772 242.791 351.272 239.001 350.062C235.751 345.722 236.751 343.052 242.001 342.062C245.201 342.662 248.201 343.832 251.001 345.562C252.671 346.232 254.331 346.232 256.001 345.562C258.061 342.952 259.721 340.112 261.001 337.062Z" fill="#0E0E0E"/>
<path fill-rule="evenodd" clip-rule="evenodd" d="M300 399.062C301.36 406.822 303.19 414.492 305.5 422.062C306.29 433.532 307.96 444.862 310.5 456.062C314.73 453.812 319.23 452.982 324 453.562C326.39 455.422 329.05 456.752 332 457.562C333.4 458.622 334.4 459.952 335 461.562C330.62 472.092 322.62 477.092 311 476.562C306.07 474.632 302.91 471.132 301.5 466.062C299.56 461.842 297.89 457.502 296.5 453.062C294.59 441.322 292.25 429.652 289.5 418.062C288.59 413.102 288.09 408.102 288 403.062C291.82 401.432 295.82 400.102 300 399.062Z" fill="#F8F8F8"/>
<path fill-rule="evenodd" clip-rule="evenodd" d="M189 400.062C193.67 402.392 198.33 404.732 203 407.062C201.96 415.572 200.12 423.912 197.5 432.062C196.13 440.682 195.13 449.352 194.5 458.062C193.44 461.182 192.11 464.182 190.5 467.062C181.52 472.352 172.02 473.352 162 470.062C159.9 467.982 159.56 465.642 161 463.062C158.35 460.972 157.51 458.302 158.5 455.062C164.28 450.332 170.78 448.832 178 450.562C181.53 447.692 184.36 444.192 186.5 440.062C187.11 426.712 187.95 413.372 189 400.062Z" fill="#F8F8F8"/>
</svg>
