<svg width="500" height="500" viewBox="0 0 500 500" fill="none" xmlns="http://www.w3.org/2000/svg">
<path fill-rule="evenodd" clip-rule="evenodd" d="M371 340.061C363.79 346.091 356.12 351.591 348 356.561C337.32 360.941 326.98 365.771 317 371.061C281.69 383.301 246.03 384.301 210 374.061C187.29 368.991 165.95 360.491 146 348.561C144.37 348.071 142.7 347.901 141 348.061C141.42 347.341 142.08 346.841 143 346.561C138.33 343.561 133.67 340.561 129 337.561C121.83 329.061 114.67 320.561 107.5 312.061C98.63 321.461 87.79 325.301 75 323.561C65.24 320.211 60.24 313.381 60 303.061C62.42 279.221 72.92 259.881 91.5 245.061C95.16 214.751 105.16 186.751 121.5 161.061C133.3 148.931 143.97 135.931 153.5 122.061C165.68 110.211 179.52 100.711 195 93.5609C208.07 90.5009 221.07 87.1709 234 83.5609C250.86 79.8709 267.52 80.5309 284 85.5609C294.9 89.6809 305.57 94.3409 316 99.5609C333.05 112.271 349.22 126.101 364.5 141.061C369.07 148.301 374.41 154.971 380.5 161.061C389.4 174.861 396.73 189.531 402.5 205.061C404.4 212.621 405.74 220.291 406.5 228.061C419.96 239.501 430.3 253.171 437.5 269.061C444.54 296.341 434.04 309.841 406 309.561C403.35 309.111 400.85 308.271 398.5 307.061C396.08 311.561 393.42 315.891 390.5 320.061C383.8 326.601 377.3 333.261 371 340.061Z" fill="#FEAAB9"/>
<path fill-rule="evenodd" clip-rule="evenodd" d="M348 212.061C343.95 209.711 339.62 207.871 335 206.561C326.6 205.611 318.27 204.281 310 202.561C304 201.891 298 201.891 292 202.561C281.86 207.641 275.7 215.811 273.5 227.061C269.95 261.351 285.12 276.021 319 271.061C322.66 267.571 326.49 264.241 330.5 261.061C337.51 248.371 340.35 235.041 339 221.061C343.34 224.731 348.34 226.401 354 226.061C361.9 253.381 355.23 276.551 334 295.561C329.79 298.161 325.46 300.501 321 302.561C308.35 305.951 296.01 310.281 284 315.561C279.63 316.401 275.3 317.401 271 318.561C256.48 319.471 241.98 320.631 227.5 322.061C206.67 319.391 187.84 311.891 171 299.561C158.42 287.931 153.08 273.761 155 257.061C157.36 257.221 159.69 257.061 162 256.561C166.18 252.551 170.18 248.381 174 244.061C173.64 249.661 174.14 255.331 175.5 261.061C180.22 274.951 189.72 283.291 204 286.061C216.93 285.851 227.1 280.511 234.5 270.061C236.45 264.861 238.79 259.861 241.5 255.061C243.47 244.651 240.47 235.981 232.5 229.061C231.41 221.301 226.91 216.801 219 215.561C209.23 213.321 199.56 213.661 190 216.561C178.5 220.921 168.5 227.421 160 236.061C166.88 223.981 174.05 211.981 181.5 200.061C196.12 183.501 214.28 173.341 236 169.561C265.94 165.171 294.28 169.841 321 183.561C332.91 190.301 341.91 199.801 348 212.061Z" fill="#FDFDFD"/>
<path fill-rule="evenodd" clip-rule="evenodd" d="M347.999 212.061C352.199 214.751 356.699 217.081 361.499 219.061C362.599 225.461 360.099 227.791 353.999 226.061C348.339 226.401 343.339 224.731 338.999 221.061C340.349 235.041 337.509 248.371 330.499 261.061C326.489 264.241 322.659 267.571 318.999 271.061C285.119 276.021 269.949 261.351 273.499 227.061C275.699 215.811 281.859 207.641 291.999 202.561C297.999 201.891 303.999 201.891 309.999 202.561C318.269 204.281 326.599 205.611 334.999 206.561C339.619 207.871 343.949 209.711 347.999 212.061Z" fill="#050405"/>
<path fill-rule="evenodd" clip-rule="evenodd" d="M291 212.062C296.24 211.102 300.41 212.772 303.5 217.062C303.63 222.732 303.3 228.402 302.5 234.062C298.41 237.862 293.58 239.032 288 237.562C286.13 234.732 283.97 232.232 281.5 230.062C280.68 226.602 281.02 223.262 282.5 220.062C285.83 217.892 288.67 215.232 291 212.062Z" fill="#F6F6F6"/>
<path fill-rule="evenodd" clip-rule="evenodd" d="M155 257.062C153.54 253.872 153.04 250.542 153.5 247.062C155.92 243.492 158.09 239.822 160 236.062C168.5 227.422 178.5 220.922 190 216.562C199.56 213.662 209.23 213.322 219 215.562C226.91 216.802 231.41 221.302 232.5 229.062C240.47 235.982 243.47 244.652 241.5 255.062C238.79 259.862 236.45 264.862 234.5 270.062C227.1 280.512 216.93 285.852 204 286.062C189.72 283.292 180.22 274.952 175.5 261.062C174.14 255.332 173.64 249.662 174 244.062C170.18 248.382 166.18 252.552 162 256.562C159.69 257.062 157.36 257.222 155 257.062Z" fill="#040404"/>
<path fill-rule="evenodd" clip-rule="evenodd" d="M213 225.062C221.46 224.362 226.13 228.192 227 236.562C226.83 245.012 222.83 250.512 215 253.062C208.35 251.582 204.69 247.412 204 240.562C204.58 233.882 207.58 228.712 213 225.062Z" fill="#F5F5F5"/>
<path fill-rule="evenodd" clip-rule="evenodd" d="M281 278.062C288.12 278.722 289.96 282.382 286.5 289.062C284.05 293.172 281.22 297.012 278 300.562C274.33 301.232 270.67 301.232 267 300.562C262.71 298.322 258.21 296.822 253.5 296.062C250.76 288.132 253.59 285.302 262 287.562C264.44 288.412 266.77 289.412 269 290.562C270.33 291.232 271.67 291.232 273 290.562C275.92 286.492 278.59 282.322 281 278.062Z" fill="#0B0B0B"/>
<path fill-rule="evenodd" clip-rule="evenodd" d="M371 340.062C391.77 345.002 405.27 357.672 411.5 378.062C414.09 398.452 405.26 407.952 385 406.562C370.02 403.122 355.02 399.792 340 396.562C335.44 393.112 330.44 390.452 325 388.562C318.93 384.262 316.27 378.432 317 371.062C326.98 365.772 337.32 360.942 348 356.562C356.12 351.592 363.79 346.092 371 340.062Z" fill="#FF3A3A"/>
<path fill-rule="evenodd" clip-rule="evenodd" d="M141 348.061C142.7 347.901 144.37 348.071 146 348.561C165.95 360.491 187.29 368.991 210 374.061C212.87 383.981 209.53 390.811 200 394.561C180.67 401.061 161.67 408.391 143 416.561C129.66 419.851 118.16 416.681 108.5 407.061C106.28 402.971 105.61 398.631 106.5 394.061C112.82 382.761 119.15 371.431 125.5 360.061C129.71 354.671 134.88 350.671 141 348.061Z" fill="#FF3A39"/>
</svg>
