<svg width="500" height="500" viewBox="0 0 500 500" fill="none" xmlns="http://www.w3.org/2000/svg">
<path fill-rule="evenodd" clip-rule="evenodd" d="M249 21.0615C253.65 21.8015 255.15 24.4715 253.5 29.0615C246.93 35.5315 242.43 43.2015 240 52.0615C240.34 54.4315 240.84 56.7615 241.5 59.0615C250.96 73.1215 252.63 88.1215 246.5 104.062C243.83 106.732 241.17 106.732 238.5 104.062C239.49 94.7815 239.82 85.4415 239.5 76.0615C228.61 61.5915 228.27 46.9215 238.5 32.0615C241.53 27.8715 245.03 24.2015 249 21.0615Z" fill="#BABABA"/>
<path fill-rule="evenodd" clip-rule="evenodd" d="M179 55.0616C183.26 54.0116 185.92 55.5116 187 59.5616C185.8 63.1216 183.97 66.2916 181.5 69.0616C179.43 72.4916 178.76 76.1616 179.5 80.0616C194.77 90.4016 199.6 104.232 194 121.562C192.06 122.302 190.23 122.142 188.5 121.062C189.53 106.122 183.86 94.4516 171.5 86.0616C169.23 81.6316 168.56 76.9616 169.5 72.0616C172.17 66.0416 175.34 60.3816 179 55.0616Z" fill="#BABABA"/>
<path fill-rule="evenodd" clip-rule="evenodd" d="M292 73.0615C299.82 73.9515 300.98 77.2915 295.5 83.0615C294.04 85.9315 293.71 88.9315 294.5 92.0615C301.54 99.0315 302.87 107.032 298.5 116.062C296.22 119.602 293.55 119.932 290.5 117.062C290.21 112.372 290.21 107.702 290.5 103.062C281.57 92.5315 282.07 82.5315 292 73.0615Z" fill="#BABABA"/>
<path fill-rule="evenodd" clip-rule="evenodd" d="M413 291.062C400.58 297.272 389.25 295.772 379 286.562C375.7 286.102 372.54 285.272 369.5 284.062C365.58 291.472 359.41 295.472 351 296.062C351.83 291.112 352.16 286.112 352 281.062C352.17 278.942 351.84 276.942 351 275.062C349.72 267.502 346.55 260.832 341.5 255.062C322.72 235.272 299.56 225.772 272 226.562C255.88 225.202 240.21 227.202 225 232.562C206.74 239.942 190.57 250.442 176.5 264.062C166.55 277.072 162.39 291.742 164 308.062C148.36 309.412 137.02 303.082 130 289.062C122.92 298.642 113.92 305.802 103 310.562C100.44 311.642 97.7704 312.142 95.0004 312.062C91.0404 312.472 87.3704 311.642 84.0004 309.562C79.6104 304.922 75.1104 300.422 70.5004 296.062C66.3104 290.742 64.9804 284.742 66.5004 278.062C71.5604 269.662 77.4004 261.832 84.0004 254.562C87.1704 252.472 90.5104 250.642 94.0004 249.062C96.4804 225.762 104.31 204.432 117.5 185.062C123.52 177.382 131.02 171.542 140 167.562C161.63 159.412 183.63 152.412 206 146.562C218.58 144.332 231.25 143.672 244 144.562C275.54 147.972 306.87 152.632 338 158.562C356.42 165.002 373.42 174.002 389 185.562C396.8 192.332 401.64 200.832 403.5 211.062C405.98 221.282 407.82 231.622 409 242.062C432.17 245.072 439.34 257.412 430.5 279.062C428.67 280.892 426.83 282.732 425 284.562C420.49 285.982 416.49 288.142 413 291.062Z" fill="#FEC785"/>
<path fill-rule="evenodd" clip-rule="evenodd" d="M267 160.062C273.24 161.082 279.08 163.412 284.5 167.062C286.51 171.312 286.35 175.482 284 179.562C277.98 180.882 272.81 179.382 268.5 175.062C267.59 171.402 266.09 168.062 264 165.062C264.59 163.142 265.59 161.472 267 160.062Z" fill="#B27B67"/>
<path fill-rule="evenodd" clip-rule="evenodd" d="M214 162.062C217.02 161.902 220.02 162.062 223 162.562C224.82 164.032 225.32 165.862 224.5 168.062C221.41 170.142 219.58 172.972 219 176.562C217.33 176.892 215.67 177.232 214 177.562C211.63 180.272 208.96 182.602 206 184.562C200.95 187.202 197.79 185.702 196.5 180.062C195.83 179.062 195.83 178.062 196.5 177.062C201.61 171.102 207.45 166.102 214 162.062Z" fill="#B27B67"/>
<path fill-rule="evenodd" clip-rule="evenodd" d="M244.001 165.061C247.001 164.811 249.501 165.811 251.501 168.061C253.151 177.861 250.321 186.031 243.001 192.561C239.061 194.021 236.561 192.851 235.501 189.061C234.701 179.681 237.531 171.681 244.001 165.061Z" fill="#B27B67"/>
<path fill-rule="evenodd" clip-rule="evenodd" d="M351 275.061C342.89 271.451 334.89 267.621 327 263.561C319.6 262.211 312.27 260.541 305 258.561C292.62 255.841 283.45 260.001 277.5 271.061C271.56 283.381 271.56 295.711 277.5 308.061C282.19 314.831 288.69 318.661 297 319.561C302 320.231 307 320.231 312 319.561C314.31 317.071 316.98 315.071 320 313.561C328.67 302.881 332.51 290.711 331.5 277.061C337.78 282.241 344.61 283.571 352 281.061C352.16 286.111 351.83 291.111 351 296.061C350.44 320.361 340.11 339.191 320 352.561C316.83 354.281 313.49 355.621 310 356.561C279.1 362.811 248.1 363.481 217 358.561C203.01 355.811 190.51 349.981 179.5 341.061C171.92 331.141 166.75 320.141 164 308.061C162.39 291.741 166.55 277.071 176.5 264.061C190.57 250.441 206.74 239.941 225 232.561C240.21 227.201 255.88 225.201 272 226.561C299.56 225.771 322.72 235.271 341.5 255.061C346.55 260.831 349.72 267.501 351 275.061Z" fill="#FDFDFD"/>
<path fill-rule="evenodd" clip-rule="evenodd" d="M351 275.061C351.84 276.941 352.17 278.941 352 281.061C344.61 283.571 337.78 282.241 331.5 277.061C332.51 290.711 328.67 302.881 320 313.561C316.98 315.071 314.31 317.071 312 319.561C307 320.231 302 320.231 297 319.561C288.69 318.661 282.19 314.831 277.5 308.061C271.56 295.711 271.56 283.381 277.5 271.061C283.45 260.001 292.62 255.841 305 258.561C312.27 260.541 319.6 262.211 327 263.561C334.89 267.621 342.89 271.451 351 275.061Z" fill="#050505"/>
<path fill-rule="evenodd" clip-rule="evenodd" d="M204 264.062C214.08 263.122 223.75 264.622 233 268.562C236.55 271.152 238.38 274.652 238.5 279.062C244.43 284.862 246.77 291.862 245.5 300.062C242.07 310.102 235.9 317.942 227 323.562C206.47 330.712 192.97 323.882 186.5 303.062C186.01 298.012 186.01 293.012 186.5 288.062C183.33 291.232 180.17 294.392 177 297.562C168.42 300.972 165.59 298.132 168.5 289.062C173.05 281.512 179.22 275.682 187 271.562C192.76 269.012 198.42 266.512 204 264.062Z" fill="#040404"/>
<path fill-rule="evenodd" clip-rule="evenodd" d="M290 267.062C292.36 266.902 294.69 267.062 297 267.562C298.83 268.062 300 269.232 300.5 271.062C300.75 276.072 300.42 281.072 299.5 286.062C296.1 289.762 291.94 290.932 287 289.562C285.52 287.122 283.69 284.952 281.5 283.062C280.68 279.602 281.02 276.262 282.5 273.062C285.34 271.402 287.84 269.402 290 267.062Z" fill="#F5F5F5"/>
<path fill-rule="evenodd" clip-rule="evenodd" d="M221 274.062C230.96 274.202 234.8 279.202 232.5 289.062C230.61 294.092 227.11 297.422 222 299.062C216.26 297.432 213.26 293.592 213 287.562C213.77 281.832 216.44 277.332 221 274.062Z" fill="#F5F5F5"/>
<path fill-rule="evenodd" clip-rule="evenodd" d="M413 291.062C407.27 304.182 399.77 316.182 390.5 327.062C385.58 336.572 380.91 346.242 376.5 356.062C376 358.032 375.84 360.032 376 362.062C373.1 353.862 370.27 345.532 367.5 337.062C366.38 335.442 364.88 334.442 363 334.062C360.4 334.612 357.73 334.782 355 334.562C354.17 335.392 353.33 336.232 352.5 337.062C352.59 340.302 352.59 343.642 352.5 347.062C354.83 350.062 357.17 353.062 359.5 356.062C362.64 363.652 365.47 371.312 368 379.062C367 378.972 366.17 379.312 365.5 380.062C359.26 392.042 351.43 402.882 342 412.562C336.41 416.182 330.41 417.012 324 415.062C318.11 416.632 312.11 417.292 306 417.062C306.28 418.972 305.95 420.642 305 422.062C305 420.392 305 418.732 305 417.062C300.94 416.712 296.94 416.052 293 415.062C268.51 415.792 244.18 416.132 220 416.062C215.43 415.122 210.76 414.792 206 415.062C195.47 414.372 184.81 413.542 174 412.562C162.07 410.812 152.23 405.312 144.5 396.062C139.39 388.162 134.56 380.162 130 372.062C132.62 361.142 136.12 350.472 140.5 340.062C141.17 337.392 141.17 334.732 140.5 332.062C137.95 331.092 136.45 329.252 136 326.562C134 325.892 132 325.892 130 326.562C124.26 332.882 120.26 340.052 118 348.062C118.15 347.012 117.98 346.012 117.5 345.062C109.78 334.182 102.28 323.182 95 312.062C97.77 312.142 100.44 311.642 103 310.562C113.92 305.802 122.92 298.642 130 289.062C137.02 303.082 148.36 309.412 164 308.062C166.75 320.142 171.92 331.142 179.5 341.062C190.51 349.982 203.01 355.812 217 358.562C248.1 363.482 279.1 362.812 310 356.562C313.49 355.622 316.83 354.282 320 352.562C340.11 339.192 350.44 320.362 351 296.062C359.41 295.472 365.58 291.472 369.5 284.062C372.54 285.272 375.7 286.102 379 286.562C389.25 295.772 400.58 297.272 413 291.062Z" fill="#9E9E9E"/>
<path fill-rule="evenodd" clip-rule="evenodd" d="M278 324.062C283.49 324.062 285.32 326.732 283.5 332.062C281.03 336.532 277.86 340.362 274 343.562C271.67 344.232 269.33 344.232 267 343.562C262.05 341.502 257.22 339.332 252.5 337.062C251.01 332.732 252.51 330.392 257 330.062C261.65 331.902 266.32 333.402 271 334.562C273.22 330.952 275.55 327.452 278 324.062Z" fill="#0D0D0D"/>
<path fill-rule="evenodd" clip-rule="evenodd" d="M130 372.061C127.07 379.061 126.4 386.401 128 394.061C133.69 396.581 136.86 400.921 137.5 407.061C140.57 409.751 140.74 412.581 138 415.561C134.02 416.611 131.02 415.271 129 411.561C128.17 411.391 127.33 411.231 126.5 411.061C120.92 413.271 115.42 415.601 110 418.061C103.91 416.851 102.08 413.521 104.5 408.061C108.71 404.181 112.55 400.011 116 395.561C114.92 390.291 114.26 384.951 114 379.561C114.47 368.931 115.8 358.431 118 348.061C120.26 340.051 124.26 332.881 130 326.561C132 325.891 134 325.891 136 326.561C136.45 329.251 137.95 331.091 140.5 332.061C141.17 334.731 141.17 337.391 140.5 340.061C136.12 350.471 132.62 361.141 130 372.061Z" fill="#050505"/>
<path fill-rule="evenodd" clip-rule="evenodd" d="M376 362.062C379.45 372.202 382.12 382.542 384 393.062C385.81 393.052 387.48 393.552 389 394.562C392.02 397.302 394.85 400.132 397.5 403.062C399.11 408.042 397.61 411.712 393 414.062C391.4 415.042 389.74 415.212 388 414.562C385.78 411.102 383.12 408.102 380 405.562C376.67 404.892 373.33 404.892 370 405.562C362.82 411.402 358.99 409.902 358.5 401.062C359.29 398.662 360.46 396.492 362 394.562C365.83 394.062 368.5 392.062 370 388.562C369.25 385.402 368.58 382.232 368 379.062C365.47 371.312 362.64 363.652 359.5 356.062C357.17 353.062 354.83 350.062 352.5 347.062C352.59 343.642 352.59 340.302 352.5 337.062C353.33 336.232 354.17 335.392 355 334.562C357.73 334.782 360.4 334.612 363 334.062C364.88 334.442 366.38 335.442 367.5 337.062C370.27 345.532 373.1 353.862 376 362.062Z" fill="#060606"/>
<path fill-rule="evenodd" clip-rule="evenodd" d="M206 415.062C210.76 414.792 215.43 415.122 220 416.062C220.69 430.842 222.36 445.502 225 460.062C224.95 462.782 224.62 465.452 224 468.062C222.65 469.512 220.98 470.182 219 470.062C219.23 473.342 217.9 475.842 215 477.562C206.64 479.992 198.31 480.152 190 478.062C185.88 473.342 186.54 469.172 192 465.562C197.84 462.042 204.17 460.212 211 460.062C208.43 445.182 206.77 430.182 206 415.062Z" fill="#050505"/>
<path fill-rule="evenodd" clip-rule="evenodd" d="M293 415.062C296.94 416.052 300.94 416.712 305 417.062C305 418.732 305 420.392 305 422.062C305.75 431.712 306.08 441.372 306 451.062C314.69 448.322 320.35 451.162 323 459.562C317.41 466.702 310.08 471.372 301 473.562C297.15 474.722 294.32 473.552 292.5 470.062C293.4 464.912 293.9 459.572 294 454.062C293.2 441.072 292.87 428.072 293 415.062Z" fill="#070707"/>
</svg>
