<svg width="500" height="500" viewBox="0 0 500 500" fill="none" xmlns="http://www.w3.org/2000/svg">
<path fill-rule="evenodd" clip-rule="evenodd" d="M239.001 100.062C239.171 104.741 239.001 109.407 238.501 114.062C235.521 118.258 231.691 119.091 227.001 116.562C224.171 112.395 220.671 108.895 216.501 106.062C215.841 103.749 215.341 101.416 215.001 99.0615C215.011 88.9325 213.851 78.9326 211.501 69.0615C209.121 67.1347 207.951 64.6347 208.001 61.5615C207.171 53.9064 210.501 49.7397 218.001 49.0615C223.391 49.5683 228.721 50.4017 234.001 51.5615C239.121 53.9015 241.451 57.9015 241.001 63.5615C238.711 75.6753 238.051 87.8419 239.001 100.062Z" fill="#B17B68"/>
<path fill-rule="evenodd" clip-rule="evenodd" d="M374 226.061C374 231.394 374 236.728 374 242.061C374.18 250.898 374.51 259.731 375 268.561C374.99 274.441 374.49 280.274 373.5 286.061C367.84 300.051 362.17 314.051 356.5 328.061C348.14 345.273 336.97 360.439 323 373.561C319.02 376.72 314.68 379.22 310 381.061C309.08 375.268 306.25 373.935 301.5 377.061C300.49 378.586 299.99 380.253 300 382.061C279.22 382.744 260.39 377.077 243.5 365.061C238 371.894 231.83 378.061 225 383.561C218.63 388.851 211.3 391.685 203 392.061C201.35 382.903 196.69 380.903 189 386.061C188.47 387.897 187.81 389.564 187 391.061C181.12 389.789 176.12 386.956 172 382.561C167.51 380.482 163.17 378.149 159 375.561C145.87 360.097 132.37 344.93 118.5 330.061C117.41 328.483 116.57 326.816 116 325.061C119.49 320.473 119.65 315.806 116.5 311.061C110.67 309.951 105.17 307.951 100 305.061C92.33 292.729 86 279.729 81 266.061C85.91 260.65 91.08 255.316 96.5 250.061C99.25 247.06 99.42 244.06 97 241.061C95.73 240.133 94.4 239.966 93 240.561C88.06 245.348 82.73 249.515 77 253.061C73.74 242.855 72.08 232.355 72 221.561C74.66 202.429 77.16 183.262 79.5 164.061C84.59 143.89 92.92 125.223 104.5 108.061C115.07 97.1951 127.9 90.6951 143 88.5611C168.25 84.049 192.25 87.549 215 99.0611C215.34 101.415 215.84 103.748 216.5 106.061C220.67 108.894 224.17 112.394 227 116.561C231.69 119.09 235.52 118.257 238.5 114.061C239 109.406 239.17 104.74 239 100.061C246.1 91.5031 254.44 84.3361 264 78.5611C274.95 73.803 286.28 72.803 298 75.5611C306.65 77.8851 314.65 81.5518 322 86.5611C332.17 95.3941 341.67 104.894 350.5 115.061C369 149.707 376.83 186.707 374 226.061Z" fill="#8BC34A"/>
<path fill-rule="evenodd" clip-rule="evenodd" d="M339 192.061C332.23 189.179 325.57 186.012 319 182.561C307.62 180.2 296.12 178.366 284.5 177.061C280.95 177.202 277.45 177.702 274 178.561C261.94 185.504 256.28 196.004 257 210.061C256.48 221.834 260.14 232.001 268 240.561C271.45 242.488 275.11 243.822 279 244.561C286.36 245.092 293.69 245.426 301 245.561C304.48 241.749 308.32 238.249 312.5 235.061C316.96 225.838 320.13 216.172 322 206.061C321.17 203.082 320.5 200.082 320 197.061C322.97 198.11 325.97 199.277 329 200.561C333.38 201.647 337.71 201.813 342 201.061C343.44 204.111 344.1 207.444 344 211.061C344.12 234.898 335.46 254.731 318 270.561C310.08 276.094 301.41 280.094 292 282.561C262.19 290.575 231.86 293.908 201 292.561C180.3 289.135 163.13 279.635 149.5 264.061C142.17 251.574 138 238.074 137 223.561C137.44 214.251 140.27 205.751 145.5 198.061C152.78 190.322 159.95 182.489 167 174.561C183.19 165.275 199.86 156.941 217 149.561C229.91 146.593 242.91 146.26 256 148.561C274.96 153.718 293.96 158.718 313 163.561C319.63 166.191 325.13 170.358 329.5 176.061C332.1 181.803 335.26 187.137 339 192.061Z" fill="#FCFDFC"/>
<path fill-rule="evenodd" clip-rule="evenodd" d="M374 242.062C374 236.729 374 231.395 374 226.062C383.59 213.96 393.42 201.96 403.5 190.062C408.32 179.297 408.16 168.631 403 158.062C403.32 154.917 404.32 152.084 406 149.562C407.67 148.895 409.33 148.895 411 149.562C413.52 152.94 415.52 156.607 417 160.562C418.67 161.229 420.33 161.229 422 160.562C426.79 158.852 431.63 157.352 436.5 156.062C443.43 157.869 444.6 161.702 440 167.562C435.42 170.309 430.59 172.476 425.5 174.062C423.09 182.873 419.09 190.873 413.5 198.062C401.08 211.14 389.42 224.807 378.5 239.062C377.37 240.703 375.87 241.703 374 242.062Z" fill="#070707"/>
<path fill-rule="evenodd" clip-rule="evenodd" d="M339 192.062C343.04 193.887 344.04 196.887 342 201.062C337.71 201.814 333.38 201.648 329 200.562C325.97 199.278 322.97 198.111 320 197.062C320.5 200.083 321.17 203.083 322 206.062C320.13 216.173 316.96 225.839 312.5 235.062C308.32 238.25 304.48 241.75 301 245.562C293.69 245.427 286.36 245.093 279 244.562C275.11 243.823 271.45 242.489 268 240.562C260.14 232.002 256.48 221.835 257 210.062C256.28 196.005 261.94 185.505 274 178.562C277.45 177.703 280.95 177.203 284.5 177.062C296.12 178.367 307.62 180.201 319 182.562C325.57 186.013 332.23 189.18 339 192.062Z" fill="#040404"/>
<path fill-rule="evenodd" clip-rule="evenodd" d="M275 187.061C280.31 186.301 284.15 188.301 286.5 193.061C286.61 198.061 286.28 203.061 285.5 208.061C281.8 212.833 276.97 214.333 271 212.561C268.87 209.758 266.71 206.925 264.5 204.061C263.7 200.85 264.2 197.85 266 195.061C269.37 192.686 272.37 190.019 275 187.061Z" fill="#F3F3F3"/>
<path fill-rule="evenodd" clip-rule="evenodd" d="M181.001 190.061C188.341 189.895 195.671 190.061 203.001 190.561C211.051 191.801 215.881 196.301 217.501 204.061C224.141 210.337 227.141 218.003 226.501 227.061C223.691 240.517 216.191 250.351 204.001 256.561C197.171 258.883 190.171 259.549 183.001 258.561C169.761 252.153 162.101 241.653 160.001 227.061C160.641 224.058 160.801 221.058 160.501 218.061C157.031 222.528 153.201 226.694 149.001 230.561C146.541 232.192 144.041 232.358 141.501 231.061C140.501 227.76 140.171 224.427 140.501 221.061C145.281 211.281 152.451 203.781 162.001 198.561C168.171 195.14 174.501 192.307 181.001 190.061Z" fill="#040404"/>
<path fill-rule="evenodd" clip-rule="evenodd" d="M199 200.062C209.13 200.633 213.3 205.967 211.5 216.062C209.71 221.788 206.05 225.788 200.5 228.062C193.88 226.276 190.38 221.942 190 215.062C190.25 208.235 193.25 203.235 199 200.062Z" fill="#F6F6F6"/>
<path fill-rule="evenodd" clip-rule="evenodd" d="M80.9998 266.061C73.3698 272.649 69.5398 280.982 69.4998 291.061C70.9998 292.561 72.4998 294.061 73.9998 295.561C82.7298 298.636 91.3998 301.803 99.9998 305.061C105.17 307.951 110.67 309.951 116.5 311.061C119.65 315.806 119.49 320.473 116 325.061C111.78 329.816 108.28 335.149 105.5 341.061C102.91 342.543 100.57 342.209 98.4998 340.061C97.8298 336.728 97.8298 333.394 98.4998 330.061C100.33 326.894 102.17 323.728 104 320.561C86.8298 318.727 71.9998 311.894 59.4998 300.061C58.0998 295.473 57.4398 290.806 57.4998 286.061C60.7598 279.207 63.7598 272.207 66.4998 265.061C69.8398 260.893 73.3398 256.893 76.9998 253.061C82.7298 249.515 88.0598 245.348 92.9998 240.561C94.3998 239.966 95.7298 240.133 96.9998 241.061C99.4198 244.06 99.2498 247.06 96.4998 250.061C91.0798 255.316 85.9098 260.65 80.9998 266.061Z" fill="#050605"/>
<path fill-rule="evenodd" clip-rule="evenodd" d="M264 252.061C268.23 251.303 270.9 252.97 272 257.061C269.66 262.567 266.66 267.734 263 272.561C258.79 274.095 254.46 274.428 250 273.561C245.49 271.548 240.99 269.714 236.5 268.061C235.46 264.925 236.29 262.425 239 260.561C245.04 261.353 251.04 262.353 257 263.561C259.47 259.783 261.8 255.95 264 252.061Z" fill="#0D0D0D"/>
<path fill-rule="evenodd" clip-rule="evenodd" d="M310 381.062C311.18 397.75 312.84 414.416 315 431.062C316.52 429.625 318.35 428.958 320.5 429.062C335.95 430.375 337.12 435.541 324 444.562C319.05 445.657 314.05 446.491 309 447.062C304.9 445.555 302.73 442.555 302.5 438.062C300.34 419.352 299.51 400.685 300 382.062C299.99 380.254 300.49 378.587 301.5 377.062C306.25 373.936 309.08 375.269 310 381.062Z" fill="#040404"/>
<path fill-rule="evenodd" clip-rule="evenodd" d="M203 392.062C204.44 406.415 204.1 420.748 202 435.062C207.73 435.409 213.39 436.243 219 437.562C224.51 438.207 226.51 441.04 225 446.062C216.08 449.897 206.75 451.063 197 449.562C196.17 448.729 195.33 447.895 194.5 447.062C189.78 428.761 187.28 410.095 187 391.062C187.81 389.565 188.47 387.898 189 386.062C196.69 380.904 201.35 382.904 203 392.062Z" fill="#060606"/>
</svg>
