<svg width="500" height="500" viewBox="0 0 500 500" fill="none" xmlns="http://www.w3.org/2000/svg">
<path fill-rule="evenodd" clip-rule="evenodd" d="M368 347.061C352.91 342.471 341.41 346.801 333.5 360.061C330.79 364.821 328.62 369.821 327 375.061C319.89 379.001 312.89 383.171 306 387.561C285.28 388.891 264.62 390.721 244 393.061C228.42 389.311 212.76 385.981 197 383.061C195.59 377.151 191.92 373.311 186 371.561C179.87 370.781 173.87 369.451 168 367.561C159.51 361.071 149.84 357.901 139 358.061C137.73 357.371 137.73 356.541 139 355.561C120.87 342.831 109.04 325.671 103.5 304.061C94.5201 312.961 83.6901 316.801 71.0001 315.561C60.4101 311.201 56.5701 303.371 59.5001 292.061C64.5801 280.911 69.9101 269.911 75.5001 259.061C80.2201 251.341 86.5501 245.341 94.5001 241.061C95.8301 239.061 97.1701 237.061 98.5001 235.061C98.2801 196.401 108.94 161.071 130.5 129.061C167.75 82.9513 214.91 68.4513 272 85.5613C301.25 84.5213 328.58 91.1913 354 105.561C369.21 116.441 382.04 129.601 392.5 145.061C401.66 161.381 408 178.711 411.5 197.061C412.29 210.251 412.12 223.421 411 236.561C416.43 242.991 422.26 249.161 428.5 255.061C433.08 261.221 437.41 267.551 441.5 274.061C443.67 285.221 439.51 292.721 429 296.561C419.47 299.321 410.47 298.151 402 293.061C400.94 307.921 395.94 321.261 387 333.061C380.07 337.021 373.73 341.681 368 347.061Z" fill="#FF5723"/>
<path fill-rule="evenodd" clip-rule="evenodd" d="M344.999 178.061C326.039 165.261 305.039 158.761 281.999 158.561C266.999 157.821 251.999 157.491 236.999 157.561C206.309 160.401 181.649 173.901 162.999 198.061C163.169 193.711 162.999 189.381 162.499 185.061C154.929 163.841 159.099 145.341 174.999 129.561C188.079 120.201 202.739 115.871 218.999 116.561C241.639 110.731 264.639 108.061 287.999 108.561C303.469 113.621 317.469 121.291 329.999 131.561C342.029 144.861 347.029 160.361 344.999 178.061Z" fill="#FFCA8D"/>
<path fill-rule="evenodd" clip-rule="evenodd" d="M345 178.062C354.97 185.642 362.3 195.302 367 207.062C369.76 218.122 369.43 229.122 366 240.062C364.41 244.302 362.41 248.302 360 252.062C349.16 264.672 337.16 276.172 324 286.562C306.29 296.412 287.29 301.742 267 302.562C253.33 303.232 239.67 303.232 226 302.562C211.36 299.782 196.69 297.122 182 294.562C166.96 287.932 156.29 277.092 150 262.062C149.24 256.742 148.57 251.412 148 246.062C148.18 233.192 150.85 220.852 156 209.062C158.57 205.602 160.9 201.932 163 198.062C181.65 173.902 206.31 160.402 237 157.562C252 157.492 267 157.822 282 158.562C305.04 158.762 326.04 165.262 345 178.062Z" fill="#FDFCFC"/>
<path fill-rule="evenodd" clip-rule="evenodd" d="M296 190.062C300.68 189.892 305.35 190.062 310 190.562C319.87 192.822 329.87 194.492 340 195.562C348.28 200.172 356.78 204.332 365.5 208.062C366.77 212.292 365.27 214.962 361 216.062C354 216.062 347.67 214.062 342 210.062C341.13 212.032 341.29 214.032 342.5 216.062C342.12 227.542 339.46 238.542 334.5 249.062C323.54 262.382 309.71 265.882 293 259.562C289.84 258.152 286.84 256.482 284 254.562C272.86 237.702 271.7 220.202 280.5 202.062C284.76 196.602 289.93 192.602 296 190.062Z" fill="#040404"/>
<path fill-rule="evenodd" clip-rule="evenodd" d="M294 200.062C299.05 199.832 302.88 201.832 305.5 206.062C305.91 211.752 305.57 217.422 304.5 223.062C303.33 224.232 302.17 225.392 301 226.562C297 227.232 293 227.232 289 226.562C286.87 223.762 284.71 220.922 282.5 218.062C281.66 214.442 282.33 211.112 284.5 208.062C288.18 205.872 291.34 203.212 294 200.062Z" fill="#F5F5F5"/>
<path fill-rule="evenodd" clip-rule="evenodd" d="M195 203.062C201.67 202.892 208.34 203.062 215 203.562C221.69 204.152 227.19 206.992 231.5 212.062C232.39 217.652 235.06 222.312 239.5 226.062C242.66 231.342 243.66 237.002 242.5 243.062C239.73 253.032 234.57 261.532 227 268.562C209.76 280.332 194.26 278.502 180.5 263.062C178.88 258.852 176.88 254.852 174.5 251.062C173.02 245.032 172.52 239.032 173 233.062C169.51 236.722 166.18 240.552 163 244.562C152.51 249.752 149.01 246.592 152.5 235.062C156.56 226.332 162.73 219.502 171 214.562C178.7 209.882 186.7 206.042 195 203.062Z" fill="#040404"/>
<path fill-rule="evenodd" clip-rule="evenodd" d="M367 207.062C376.23 215.632 383.57 225.632 389 237.062C380.69 233.692 373.02 234.692 366 240.062C369.43 229.122 369.76 218.122 367 207.062Z" fill="#FFC98D"/>
<path fill-rule="evenodd" clip-rule="evenodd" d="M156 209.062C150.85 220.852 148.18 233.192 148 246.062C146.82 245.062 145.48 244.222 144 243.562C138.86 242.562 133.69 241.732 128.5 241.062C127.47 240.722 126.97 240.062 127 239.062C135.29 227.762 144.96 217.762 156 209.062Z" fill="#FFCA8D"/>
<path fill-rule="evenodd" clip-rule="evenodd" d="M213 214.062C224.29 214.202 228.79 219.862 226.5 231.062C224.49 237.072 220.49 241.072 214.5 243.062C207.66 241.212 204.16 236.712 204 229.562C204.16 222.712 207.16 217.542 213 214.062Z" fill="#F6F6F6"/>
<path fill-rule="evenodd" clip-rule="evenodd" d="M389 237.061C393.91 246.131 395.25 255.801 393 266.061C389.19 266.491 385.52 267.321 382 268.561C368.8 270.851 361.46 265.351 360 252.061C362.41 248.301 364.41 244.301 366 240.061C373.02 234.691 380.69 233.691 389 237.061Z" fill="#FDAE7B"/>
<path fill-rule="evenodd" clip-rule="evenodd" d="M127 239.062C126.97 240.062 127.47 240.722 128.5 241.062C133.69 241.732 138.86 242.562 144 243.562C145.48 244.222 146.82 245.062 148 246.062C148.57 251.412 149.24 256.742 150 262.062C146.96 270.262 141.63 276.432 134 280.562C129.76 280.872 125.76 281.042 122 281.062C117.69 268.672 118.19 256.342 123.5 244.062C124.69 242.332 125.86 240.662 127 239.062Z" fill="#FDAF7C"/>
<path fill-rule="evenodd" clip-rule="evenodd" d="M360 252.062C361.46 265.352 368.8 270.852 382 268.562C385.52 267.322 389.19 266.492 393 266.062C391.11 273.832 387.61 280.832 382.5 287.062C371.67 299.232 360.17 310.732 348 321.562C305.43 346.932 259.76 354.592 211 344.562C179.53 336.922 152.7 321.422 130.5 298.062C126.6 292.922 123.76 287.252 122 281.062C125.76 281.042 129.76 280.872 134 280.562C141.63 276.432 146.96 270.262 150 262.062C156.29 277.092 166.96 287.932 182 294.562C196.69 297.122 211.36 299.782 226 302.562C239.67 303.232 253.33 303.232 267 302.562C287.29 301.742 306.29 296.412 324 286.562C337.16 276.172 349.16 264.672 360 252.062Z" fill="#FFCA8D"/>
<path fill-rule="evenodd" clip-rule="evenodd" d="M282 269.062C286.66 267.902 289.32 269.572 290 274.062C287.99 280.902 284.33 286.732 279 291.562C275.67 292.232 272.33 292.232 269 291.562C264.85 289.622 260.52 288.292 256 287.562C252.06 284.052 252.06 280.722 256 277.562C262.4 278.262 268.73 279.262 275 280.562C277.47 276.782 279.8 272.952 282 269.062Z" fill="#0B0B0B"/>
<path fill-rule="evenodd" clip-rule="evenodd" d="M368.001 347.061C383.431 349.641 395.261 357.641 403.501 371.061C410.301 383.021 408.801 393.861 399.001 403.561C393.691 405.471 388.191 406.311 382.501 406.061C367.881 405.071 353.381 403.231 339.001 400.561C333.611 398.961 330.111 395.461 328.501 390.061C327.171 385.161 326.671 380.161 327.001 375.061C328.621 369.821 330.791 364.821 333.501 360.061C341.411 346.801 352.911 342.471 368.001 347.061Z" fill="#FFC10A"/>
<path fill-rule="evenodd" clip-rule="evenodd" d="M139 358.061C149.84 357.901 159.51 361.071 168 367.561C173.87 369.451 179.87 370.781 186 371.561C191.92 373.311 195.59 377.151 197 383.061C196.97 387.691 197.64 392.191 199 396.561C198.37 406.811 193.03 413.141 183 415.561C164.64 420.251 145.97 421.921 127 420.561C117.72 419.931 111.22 415.431 107.5 407.061C106.83 403.391 106.83 399.731 107.5 396.061C112.47 384.951 119.31 375.121 128 366.561C131.85 364.131 135.85 361.971 140 360.061C139.64 359.381 139.3 358.711 139 358.061Z" fill="#FFC10A"/>
</svg>
