<svg width="500" height="500" viewBox="0 0 500 500" fill="none" xmlns="http://www.w3.org/2000/svg">
<path fill-rule="evenodd" clip-rule="evenodd" d="M111 44.0618C106.667 49.0618 102 53.7318 97 58.0618C91.67 51.9018 85.837 46.2318 79.5 41.0618C74.517 35.9118 71.017 29.9118 69 23.0618C71.219 13.7418 76.553 11.5718 85 16.5618C93.505 25.9018 102.172 35.0618 111 44.0618Z" fill="#B17B68"/>
<path fill-rule="evenodd" clip-rule="evenodd" d="M239 141.062C225.321 139.022 212.654 141.522 201 148.562C191.123 155.442 182.956 163.942 176.5 174.062C170.59 186.882 164.424 199.552 158 212.062C138.058 207.912 119.058 201.082 101 191.562C70.0926 170.862 59.2596 142.362 68.4996 106.062C75.2146 88.2815 84.7146 72.2815 96.9996 58.0615C102 53.7315 106.667 49.0615 111 44.0615C118.485 38.3215 126.818 34.1515 136 31.5615C155.295 33.1115 174.629 33.4415 194 32.5615C196.449 33.2815 198.783 34.2815 201 35.5615C208.496 40.8115 216.163 45.8115 224 50.5615C234.35 61.7615 240.516 74.9315 242.5 90.0615C243.78 107.242 242.613 124.242 239 141.062Z" fill="#FE9191"/>
<path fill-rule="evenodd" clip-rule="evenodd" d="M191 68.0613C180.612 69.0313 171.112 72.3613 162.5 78.0613C158.038 89.3513 160.538 98.8513 170 106.561C172.139 107.961 174.472 108.801 177 109.061C182.593 108.141 187.76 106.141 192.5 103.061C196.425 94.8413 196.425 86.5113 192.5 78.0613C191.667 77.2313 190.833 76.3913 190 75.5613C193.324 74.6213 196.657 73.7813 200 73.0613C214.576 85.0513 216.742 99.0513 206.5 115.061C194.372 129.861 179.872 141.691 163 150.561C148.141 156.121 133.808 155.121 120 147.561C116.697 144.101 114.031 140.271 112 136.061C113.517 136.051 114.684 135.381 115.5 134.061C116.378 131.301 117.378 128.641 118.5 126.061C123.3 137.041 131.467 140.881 143 137.561C151.804 131.151 154.637 122.651 151.5 112.061C141.079 98.1013 129.746 97.4313 117.5 110.061C113.263 115.531 110.43 121.531 109 128.061C106.31 116.601 108.143 105.941 114.5 96.0613C121.74 85.0413 130.24 75.2013 140 66.5613C149.299 61.3113 159.299 59.6413 170 61.5613C176.795 64.7713 183.795 66.9413 191 68.0613Z" fill="#FDFCFC"/>
<path fill-rule="evenodd" clip-rule="evenodd" d="M191 68.0616C194.018 67.9016 197.018 68.0616 200 68.5616C201.228 70.0516 201.228 71.5516 200 73.0616C196.657 73.7816 193.324 74.6216 190 75.5616C190.833 76.3916 191.667 77.2316 192.5 78.0616C196.425 86.5116 196.425 94.8416 192.5 103.062C187.76 106.142 182.593 108.142 177 109.062C174.472 108.802 172.139 107.962 170 106.562C160.538 98.8516 158.038 89.3516 162.5 78.0616C171.112 72.3616 180.612 69.0316 191 68.0616Z" fill="#060606"/>
<path fill-rule="evenodd" clip-rule="evenodd" d="M167 80.0613C168.373 79.9013 169.707 80.0713 171 80.5613C173.175 83.0813 174.842 85.9213 176 89.0613C172.796 96.0913 168.629 96.7513 163.5 91.0613C163.337 87.0213 164.504 83.3613 167 80.0613Z" fill="#F1F1F1"/>
<path fill-rule="evenodd" clip-rule="evenodd" d="M111.999 136.062C109.517 134.062 108.517 131.392 108.999 128.062C110.429 121.532 113.262 115.532 117.499 110.062C129.745 97.4318 141.078 98.1018 151.499 112.062C154.636 122.652 151.803 131.152 142.999 137.562C131.466 140.882 123.299 137.042 118.499 126.062C117.377 128.642 116.377 131.302 115.499 134.062C114.683 135.382 113.516 136.052 111.999 136.062Z" fill="#060606"/>
<path fill-rule="evenodd" clip-rule="evenodd" d="M133.001 106.062C138.819 105.292 141.819 107.792 142.001 113.562C142.189 119.372 139.522 121.372 134.001 119.562C130.401 115.322 130.067 110.822 133.001 106.062Z" fill="#F8F8F8"/>
<path fill-rule="evenodd" clip-rule="evenodd" d="M177 115.061C178.644 114.851 180.144 115.181 181.5 116.061C182.11 119.801 181.777 123.461 180.5 127.061C176.205 129.051 171.705 129.891 167 129.561C165.667 128.231 165.667 126.891 167 125.561C169.808 124.571 172.641 123.731 175.5 123.061C175.772 120.311 176.272 117.641 177 115.061Z" fill="#0E0E0E"/>
<path fill-rule="evenodd" clip-rule="evenodd" d="M239 141.062C247.798 143.502 256.465 146.662 265 150.562C268.61 152.502 271.943 154.842 275 157.562C291.27 159.112 304.437 166.282 314.5 179.062C321.5 187.392 328.5 195.732 335.5 204.062C346.698 220.092 350.198 237.762 346 257.062C336.756 255.212 327.423 254.712 318 255.562C307.738 258.422 297.405 261.092 287 263.562C268.411 271.152 255.578 284.322 248.5 303.062C246.005 309.742 243.838 316.412 242 323.062C227.068 320.022 212.735 314.862 199 307.562C190.506 301.142 181.506 295.482 172 290.562C153.125 273.232 146.958 252.072 153.5 227.062C154.851 221.982 156.351 216.982 158 212.062C164.424 199.552 170.59 186.882 176.5 174.062C182.956 163.942 191.123 155.442 201 148.562C212.654 141.522 225.321 139.022 239 141.062Z" fill="#FEFBBF"/>
<path fill-rule="evenodd" clip-rule="evenodd" d="M273.001 184.061C267.151 187.301 261.151 190.471 255.001 193.561C248.059 200.611 247.226 208.441 252.501 217.061C256.362 222.251 261.362 225.921 267.501 228.061C285.903 223.241 290.569 212.241 281.501 195.061C280.091 193.771 278.591 192.611 277.001 191.561C279.771 190.581 282.438 189.411 285.001 188.061C294.679 194.911 298.179 204.241 295.501 216.061C291.99 227.751 285.49 237.421 276.001 245.061C276.166 241.711 275.999 238.381 275.501 235.061C274.434 233.281 272.934 232.781 271.001 233.561C270.384 236.321 270.217 239.151 270.501 242.061C267.685 243.221 264.851 244.391 262.001 245.561C260.438 248.041 261.105 249.541 264.001 250.061C267.352 249.051 270.685 248.051 274.001 247.061C260.025 267.381 241.025 274.881 217.001 269.561C213.906 268.621 211.572 266.791 210.001 264.061C211.593 260.281 212.427 256.281 212.501 252.061C218.645 262.711 227.478 265.881 239.001 261.561C246.858 254.631 249.025 246.131 245.501 236.061C234.883 222.351 223.55 221.681 211.501 234.061C207.831 239.571 205.331 245.571 204.001 252.061C201.087 248.311 199.754 243.981 200.001 239.061C203.693 218.531 214.36 202.701 232.001 191.561C244.918 185.231 258.584 182.731 273.001 184.061Z" fill="#FCFCFB"/>
<path fill-rule="evenodd" clip-rule="evenodd" d="M285 188.062C282.437 189.412 279.77 190.582 277 191.562C278.59 192.612 280.09 193.772 281.5 195.062C290.568 212.242 285.902 223.242 267.5 228.062C261.361 225.922 256.361 222.252 252.5 217.062C247.225 208.442 248.058 200.612 255 193.562C261.15 190.472 267.15 187.302 273 184.062C278.007 183.812 283.007 183.482 288 183.062C288.584 185.852 287.584 187.512 285 188.062Z" fill="#050505"/>
<path fill-rule="evenodd" clip-rule="evenodd" d="M256 199.062C260.487 199.382 263.32 201.712 264.5 206.062C264.79 213.012 261.623 215.182 255 212.562C251.443 207.892 251.776 203.392 256 199.062Z" fill="#F4F4F4"/>
<path fill-rule="evenodd" clip-rule="evenodd" d="M210 264.061C208.11 264.261 206.61 263.601 205.5 262.061C204.184 258.871 203.684 255.541 204 252.061C205.33 245.571 207.83 239.571 211.5 234.061C223.549 221.681 234.882 222.351 245.5 236.061C249.024 246.131 246.857 254.631 239 261.561C227.477 265.881 218.644 262.711 212.5 252.061C212.426 256.281 211.592 260.281 210 264.061Z" fill="#060606"/>
<path fill-rule="evenodd" clip-rule="evenodd" d="M225 230.062C233.634 230.302 236.634 234.632 234 243.062C226.899 245.512 223.232 243.012 223 235.562C223.258 233.552 223.925 231.722 225 230.062Z" fill="#F6F6F6"/>
<path fill-rule="evenodd" clip-rule="evenodd" d="M276 245.062C275 245.392 274.333 246.062 274 247.062C270.684 248.052 267.351 249.052 264 250.062C261.104 249.542 260.437 248.042 262 245.562C264.85 244.392 267.684 243.222 270.5 242.062C270.216 239.152 270.383 236.322 271 233.562C272.933 232.782 274.433 233.282 275.5 235.062C275.998 238.382 276.165 241.712 276 245.062Z" fill="#090909"/>
<path fill-rule="evenodd" clip-rule="evenodd" d="M346 257.062C357.517 259.322 367.517 264.492 376 272.562C380.418 274.372 384.751 276.372 389 278.562C392.167 281.732 395.333 284.892 398.5 288.062C407.38 306.522 412.88 325.862 415 346.062C415.347 359.682 412.18 372.352 405.5 384.062C400.135 390.592 394.302 396.592 388 402.062C384.861 398.092 381.195 394.592 377 391.562C371.456 388.782 366.956 389.952 363.5 395.062C362.172 400.002 361.839 405.002 362.5 410.062C363.497 411.882 364.664 413.552 366 415.062C331.623 430.142 298.29 428.302 266 409.562C247.186 394.762 237.853 375.262 238 351.062C238.374 341.572 239.708 332.242 242 323.062C243.838 316.412 246.005 309.742 248.5 303.062C255.578 284.322 268.411 271.152 287 263.562C297.405 261.092 307.738 258.422 318 255.562C327.423 254.712 336.756 255.212 346 257.062Z" fill="#8BC34B"/>
<path fill-rule="evenodd" clip-rule="evenodd" d="M363 297.062C356.658 298.732 350.325 300.562 344 302.562C334.924 307.572 332.09 315.072 335.5 325.062C342.929 342.432 354.262 345.432 369.5 334.062C373.655 326.272 373.988 318.272 370.5 310.062C369.718 307.482 368.218 305.482 366 304.062C368.586 303.082 371.253 302.752 374 303.062C384.519 311.102 389.352 321.772 388.5 335.062C387.694 338.012 386.361 340.672 384.5 343.062C376.887 350.132 369.387 357.302 362 364.562C351.626 370.912 340.626 375.912 329 379.562C317.59 384.052 306.257 384.052 295 379.562C291.463 376.192 288.129 372.692 285 369.062C286.622 365.582 287.789 361.912 288.5 358.062C294.209 371.172 303.709 375.342 317 370.562C326.365 362.352 328.531 352.522 323.5 341.062C310.281 328.502 297.948 329.502 286.5 344.062C283.702 348.662 281.202 353.332 279 358.062C277.345 350.032 277.845 342.032 280.5 334.062C286.394 321.762 294.56 311.262 305 302.562C316.727 295.262 329.394 290.432 343 288.062C350.761 288.482 357.761 290.982 364 295.562C363.444 295.942 363.111 296.442 363 297.062Z" fill="#FBFCFB"/>
<path fill-rule="evenodd" clip-rule="evenodd" d="M374 303.062C371.253 302.752 368.586 303.082 366 304.062C368.218 305.482 369.718 307.482 370.5 310.062C373.988 318.272 373.655 326.272 369.5 334.062C354.262 345.432 342.929 342.432 335.5 325.062C332.09 315.072 334.924 307.572 344 302.562C350.325 300.562 356.658 298.732 363 297.062C368.022 296.782 373.022 296.612 378 296.562C379.247 298.052 379.247 299.552 378 301.062C376.474 301.552 375.141 302.222 374 303.062Z" fill="#050505"/>
<path fill-rule="evenodd" clip-rule="evenodd" d="M341 310.061C347.637 309.531 350.97 312.691 351 319.561C350.476 322.921 348.476 324.751 345 325.061C338.619 324.511 336.452 321.171 338.5 315.061C339.347 313.371 340.18 311.701 341 310.061Z" fill="#F3F3F3"/>
<path fill-rule="evenodd" clip-rule="evenodd" d="M285 369.061C283.49 370.291 281.99 370.291 280.5 369.061C279.163 365.531 278.663 361.871 279 358.061C281.202 353.331 283.702 348.661 286.5 344.061C297.948 329.501 310.281 328.501 323.5 341.061C328.531 352.521 326.365 362.351 317 370.561C303.709 375.341 294.209 371.171 288.5 358.061C287.789 361.911 286.622 365.581 285 369.061Z" fill="#050505"/>
<path fill-rule="evenodd" clip-rule="evenodd" d="M305 337.062C310.954 336.862 314.288 339.702 315 345.562C314.589 352.662 311.256 354.662 305 351.562C301.047 346.732 301.047 341.902 305 337.062Z" fill="#F3F3F3"/>
<path fill-rule="evenodd" clip-rule="evenodd" d="M352.999 347.061C354.643 346.851 356.143 347.181 357.499 348.061C359.067 359.831 353.901 364.991 341.999 363.561C339.435 361.281 339.769 359.281 342.999 357.561C350.58 358.151 353.913 354.651 352.999 347.061Z" fill="#121212"/>
<path fill-rule="evenodd" clip-rule="evenodd" d="M388.001 402.062C393.324 409.362 398.157 417.032 402.501 425.062C406.801 428.362 410.801 432.022 414.501 436.062C420.008 445.082 426.008 453.742 432.501 462.062C436.168 469.882 435.668 477.382 431.001 484.562C427.849 486.412 424.849 486.082 422.001 483.562C410.254 471.222 400.087 457.722 391.501 443.062C382.084 434.482 373.584 425.152 366.001 415.062C364.665 413.552 363.498 411.882 362.501 410.062C361.84 405.002 362.173 400.002 363.501 395.062C366.957 389.952 371.457 388.782 377.001 391.562C381.196 394.592 384.862 398.092 388.001 402.062Z" fill="#B17B67"/>
</svg>
