<svg width="500" height="500" viewBox="0 0 500 500" fill="none" xmlns="http://www.w3.org/2000/svg">
<path fill-rule="evenodd" clip-rule="evenodd" d="M263.999 88.0616C279.079 93.5316 294.079 99.2016 308.999 105.062C310.749 106.782 312.749 108.282 314.999 109.562C325.329 114.562 335.669 119.562 345.999 124.562C351.389 127.122 357.059 128.622 362.999 129.062C367.139 130.392 370.969 132.392 374.499 135.062C377.009 138.832 377.509 142.832 375.999 147.062C377.649 149.212 379.479 151.212 381.499 153.062C383.379 156.362 383.379 159.692 381.499 163.062C381.329 169.732 381.169 176.392 380.999 183.062C381.739 197.082 381.739 211.082 380.999 225.062C383.189 239.692 383.519 254.362 381.999 269.062C379.539 270.432 378.539 272.602 378.999 275.562C378.269 279.132 379.599 281.302 382.999 282.062C382.779 294.442 382.779 306.772 382.999 319.062C382.219 324.052 381.559 329.052 380.999 334.062C376.119 339.462 371.449 345.132 366.999 351.062C357.959 355.732 348.959 360.402 339.999 365.062C333.709 367.212 327.709 369.882 321.999 373.062C305.249 381.192 288.249 388.522 270.999 395.062C265.699 396.162 260.699 397.822 255.999 400.062C243.269 403.582 230.599 407.412 217.999 411.562C214.139 412.322 210.469 411.822 206.999 410.062C205.119 408.162 203.119 406.332 200.999 404.562C194.229 405.122 187.889 403.622 181.999 400.062C181.669 400.062 181.329 400.062 180.999 400.062C175.609 395.702 169.609 392.362 162.999 390.062C146.149 381.472 129.809 372.142 113.999 362.062C104.679 354.062 94.3387 347.562 82.9987 342.562C80.4887 338.372 76.8187 336.372 71.9987 336.562C69.9487 334.592 68.2787 332.432 66.9987 330.062C61.7487 289.882 60.7487 249.552 63.9987 209.062C65.1787 192.412 67.3387 175.742 70.4987 159.062C72.0387 149.312 76.2087 140.982 82.9987 134.062C84.4987 131.722 86.4987 129.892 88.9987 128.562C101.959 121.082 115.629 115.252 129.999 111.062C136.699 108.892 143.369 106.392 149.999 103.562C159.049 98.3716 168.389 93.7016 177.999 89.5616C187.319 82.2316 197.319 75.8916 207.999 70.5616C213.919 67.7716 219.079 68.6116 223.499 73.0616C223.979 74.0116 224.149 75.0116 223.999 76.0616C237.509 79.4816 250.849 83.4816 263.999 88.0616Z" fill="#B17BF3"/>
<path fill-rule="evenodd" clip-rule="evenodd" d="M212 89.0615C222.6 92.3115 233.26 95.4815 244 98.5615C258.7 105.242 273.36 111.912 288 118.562C295.26 122.162 302.26 126.162 309 130.562C319.79 134.462 330.45 138.622 341 143.062C341.91 143.892 342.58 144.892 343 146.062C339.7 151.232 335.04 154.732 329 156.562C314.67 162.562 300 167.562 285 171.562C260.18 181.982 235.18 191.812 210 201.062C207.18 200.982 204.51 200.322 202 199.062C199.64 199.662 197.48 200.662 195.5 202.062C183.73 192.262 170.9 184.092 157 177.562C149.51 170.812 140.85 166.152 131 163.562C120.59 156.832 109.93 150.502 99 144.562C112.97 138.082 127.3 132.412 142 127.562C152.59 121.102 163.59 115.432 175 110.562C186.74 102.362 199.07 95.1915 212 89.0615Z" fill="#D5B4FE"/>
<path fill-rule="evenodd" clip-rule="evenodd" d="M193 346.062C180.87 340.442 171.37 331.772 164.5 320.062C161.93 315.112 160.1 309.942 159 304.562C155.7 303.562 152.37 303.232 149 303.562C147.28 304.342 146.28 305.672 146 307.562C146.43 311.952 147.6 316.122 149.5 320.062C161.07 337.132 175.9 350.472 194 360.062C194.65 368.712 194.98 377.382 195 386.062C193.95 386.212 192.95 386.042 192 385.562C180.34 377.062 168.34 369.062 156 361.562C138.73 352.592 121.4 343.592 104 334.562C98.77 329.492 93.1 324.992 87 321.062C84.77 287.762 82.77 254.422 81 221.062C81.85 204.622 83.68 188.282 86.5 172.062C90.27 172.752 94.1 172.912 98 172.562C109.48 177.802 120.48 183.802 131 190.562C148.54 206.352 168.21 219.192 190 229.062C190.81 230.982 191.31 232.982 191.5 235.062C192.4 272.082 192.9 309.082 193 346.062Z" fill="#D5B4FE"/>
<path fill-rule="evenodd" clip-rule="evenodd" d="M355 246.062C354.33 245.732 353.67 245.392 353 245.062C346.07 234.912 336.4 228.742 324 226.562C313.33 226.132 302.66 225.632 292 225.062C276.93 225.582 262.6 229.082 249 235.562C238.85 241.662 231.35 250.162 226.5 261.062C223.75 268.562 221.58 276.232 220 284.062C219.24 286.582 218.24 288.912 217 291.062C215.98 272.402 215.81 253.742 216.5 235.062C226.14 224.642 237.64 216.812 251 211.562C285.46 199.352 319.79 186.852 354 174.062C354.8 175.642 355.3 177.302 355.5 179.062C355.76 201.392 355.59 223.732 355 246.062Z" fill="#D5B4FE"/>
<path fill-rule="evenodd" clip-rule="evenodd" d="M383.001 282.062C379.601 281.302 378.271 279.132 379.001 275.562C378.541 272.602 379.541 270.432 382.001 269.062C395.611 262.292 406.941 252.792 416.001 240.562C413.471 235.012 410.311 229.842 406.501 225.062C405.241 221.522 405.081 218.022 406.001 214.562C410.221 213.112 412.721 214.612 413.501 219.062C418.861 224.152 424.361 224.322 430.001 219.562C434.981 218.872 436.651 220.872 435.001 225.562C437.611 228.362 437.611 231.192 435.001 234.062C433.001 234.732 431.001 235.392 429.001 236.062C428.541 240.172 427.041 243.842 424.501 247.062C418.081 256.152 410.921 264.652 403.001 272.562C398.501 274.982 394.171 277.642 390.001 280.562C387.691 281.222 385.351 281.722 383.001 282.062Z" fill="#060606"/>
<path fill-rule="evenodd" clip-rule="evenodd" d="M353 245.062C349.85 244.822 346.85 243.992 344 242.562C335.33 241.892 326.67 241.892 318 242.562C313.78 243.282 309.78 244.612 306 246.562C303.01 249.552 300.84 253.052 299.5 257.062C297.47 268.952 300.14 279.622 307.5 289.062C309.08 290.602 310.91 291.772 313 292.562C320.71 293.272 328.38 292.932 336 291.562C344 283.852 347.67 274.352 347 263.062C347.16 259.382 346.16 256.052 344 253.062C344.33 252.732 344.67 252.392 345 252.062C348.74 253.812 352.41 254.482 356 254.062C356 254.392 356 254.732 356 255.062C357.5 268.062 355.33 280.392 349.5 292.062C325.25 328.492 291.41 342.992 248 335.562C236.3 331.642 227.8 324.142 222.5 313.062C221.15 309.842 220.31 306.512 220 303.062C221.87 302.702 223.37 301.702 224.5 300.062C225.91 296.902 227.58 293.902 229.5 291.062C230.41 300.372 234.57 307.872 242 313.562C264.59 320.522 276.92 312.022 279 288.062C279.2 284.772 278.37 281.772 276.5 279.062C271.92 274.482 267.42 269.982 263 265.562C250.48 263.262 239.48 266.262 230 274.562C226.8 277.932 223.46 281.102 220 284.062C221.58 276.232 223.75 268.562 226.5 261.062C231.35 250.162 238.85 241.662 249 235.562C262.6 229.082 276.93 225.582 292 225.062C302.66 225.632 313.33 226.132 324 226.562C336.4 228.742 346.07 234.912 353 245.062Z" fill="#FCFCFD"/>
<path fill-rule="evenodd" clip-rule="evenodd" d="M352.999 245.061C353.669 245.391 354.329 245.731 354.999 246.061C360.989 246.221 362.319 248.721 358.999 253.561C358.049 254.041 357.049 254.211 355.999 254.061C352.409 254.481 348.739 253.811 344.999 252.061C344.669 252.391 344.329 252.731 343.999 253.061C346.159 256.051 347.159 259.381 346.999 263.061C347.669 274.351 343.999 283.851 335.999 291.561C328.379 292.931 320.709 293.271 312.999 292.561C310.909 291.771 309.079 290.601 307.499 289.061C300.139 279.621 297.469 268.951 299.499 257.061C300.839 253.051 303.009 249.551 305.999 246.561C309.779 244.611 313.779 243.281 317.999 242.561C326.669 241.891 335.329 241.891 343.999 242.561C346.849 243.991 349.849 244.821 352.999 245.061Z" fill="#060606"/>
<path fill-rule="evenodd" clip-rule="evenodd" d="M310.999 251.061C313.999 250.811 316.499 251.811 318.499 254.061C318.879 257.581 319.379 261.081 319.999 264.561C318.959 268.921 316.119 271.091 311.499 271.061C309.579 270.071 307.739 268.901 305.999 267.561C302.669 264.881 302.169 261.711 304.499 258.061C306.229 255.231 308.389 252.901 310.999 251.061Z" fill="#F4F4F4"/>
<path fill-rule="evenodd" clip-rule="evenodd" d="M220 303.061C219.33 303.061 218.67 303.061 218 303.061C214.66 299.341 214.32 295.341 217 291.061C218.24 288.911 219.24 286.581 220 284.061C223.46 281.101 226.8 277.931 230 274.561C239.48 266.261 250.48 263.261 263 265.561C267.42 269.981 271.92 274.481 276.5 279.061C278.37 281.771 279.2 284.771 279 288.061C276.92 312.021 264.59 320.521 242 313.561C234.57 307.871 230.41 300.371 229.5 291.061C227.58 293.901 225.91 296.901 224.5 300.061C223.37 301.701 221.87 302.701 220 303.061Z" fill="#040404"/>
<path fill-rule="evenodd" clip-rule="evenodd" d="M257 271.062C264.52 272.062 267.68 276.402 266.5 284.062C263.19 293.452 258.19 294.452 251.5 287.062C249.34 280.342 251.18 275.012 257 271.062Z" fill="#F2F2F2"/>
<path fill-rule="evenodd" clip-rule="evenodd" d="M356 255.062C358.28 275.272 360.61 295.602 363 316.062C363.67 324.042 361.34 330.872 356 336.562C345.97 342.242 335.97 347.912 326 353.562C315.79 356.662 305.79 360.332 296 364.562C277.7 369.052 259.37 373.382 241 377.562C233.36 378.722 225.69 379.562 218 380.062C218 374.732 218 369.392 218 364.062C225.81 363.232 233.31 361.232 240.5 358.062C243.76 359.262 247.1 360.262 250.5 361.062C255.52 360.882 257.02 358.552 255 354.062C248.17 350.412 243.84 344.912 242 337.562C233.22 336.882 229.22 341.052 230 350.062C226.33 350.062 222.67 350.062 219 350.062C218.42 334.392 218.09 318.722 218 303.062C218.67 303.062 219.33 303.062 220 303.062C220.31 306.512 221.15 309.842 222.5 313.062C227.8 324.142 236.3 331.642 248 335.562C291.41 342.992 325.25 328.492 349.5 292.062C355.33 280.392 357.5 268.062 356 255.062Z" fill="#D5B5FE"/>
<path fill-rule="evenodd" clip-rule="evenodd" d="M311.001 301.061C312.701 300.901 314.371 301.071 316.001 301.561C316.721 317.471 309.391 322.811 294.001 317.561C291.331 315.231 291.331 312.891 294.001 310.561C298.331 310.651 302.661 310.651 307.001 310.561C308.241 307.341 309.571 304.171 311.001 301.061Z" fill="#0D0D0D"/>
<path fill-rule="evenodd" clip-rule="evenodd" d="M193 346.061C193.56 347.351 194.56 348.181 196 348.561C203.72 350.891 211.39 351.391 219 350.061C222.67 350.061 226.33 350.061 230 350.061C229.22 341.051 233.22 336.881 242 337.561C243.84 344.911 248.17 350.411 255 354.061C257.02 358.551 255.52 360.881 250.5 361.061C247.1 360.261 243.76 359.261 240.5 358.061C233.31 361.231 225.81 363.231 218 364.061C209.56 364.971 201.56 363.641 194 360.061C175.9 350.471 161.07 337.131 149.5 320.061C147.6 316.121 146.43 311.951 146 307.561C146.28 305.671 147.28 304.341 149 303.561C152.37 303.231 155.7 303.561 159 304.561C160.1 309.941 161.93 315.111 164.5 320.061C171.37 331.771 180.87 340.441 193 346.061Z" fill="#060407"/>
<path fill-rule="evenodd" clip-rule="evenodd" d="M322 373.061C327.71 369.881 333.71 367.211 340 365.061C355.48 368.731 370.98 372.731 386.5 377.061C388.29 369.611 392.12 363.441 398 358.561C403.39 356.531 407.22 358.361 409.5 364.061C410.19 371.191 407.69 377.021 402 381.561C397.61 385.411 392.94 388.741 388 391.561C369.41 390.841 351.41 387.181 334 380.561C329.8 378.301 325.8 375.801 322 373.061Z" fill="#060506"/>
<path fill-rule="evenodd" clip-rule="evenodd" d="M271 395.062C284.88 404.642 300.05 411.642 316.5 416.062C317.55 410.522 319.22 405.182 321.5 400.062C324.81 396.222 328.14 396.222 331.5 400.062C332.17 404.392 332.17 408.732 331.5 413.062C328.25 418.452 325.75 424.122 324 430.062C319.37 431.222 314.7 431.392 310 430.562C302.2 426.662 294.2 423.332 286 420.562C275.3 414.682 265.3 407.842 256 400.062C260.7 397.822 265.7 396.162 271 395.062Z" fill="#060506"/>
</svg>
