<svg width="500" height="500" viewBox="0 0 500 500" fill="none" xmlns="http://www.w3.org/2000/svg">
<path fill-rule="evenodd" clip-rule="evenodd" d="M357 54.0616C358.46 57.2216 359.63 60.5516 360.5 64.0616C361.56 72.7716 362.73 81.4316 364 90.0616C363.83 92.7316 363.67 95.3916 363.5 98.0616C360.08 106.452 357.42 115.122 355.5 124.062C353.12 126.992 350.62 129.822 348 132.562C342.36 134.832 336.69 136.832 331 138.562C324.42 139.202 317.92 138.702 311.5 137.062C309.01 137.432 306.51 137.772 304 138.062C302.17 137.972 300.83 137.312 300 136.062C311.07 127.122 313.24 116.462 306.5 104.062C294.07 95.2816 280.9 94.1116 267 100.562C258.17 106.892 256.84 114.392 263 123.062C255.06 122.122 247.06 121.792 239 122.062C239.16 119.702 239 117.372 238.5 115.062C234.38 109.322 231.21 103.162 229 96.5616C227.29 95.0216 225.29 94.1816 223 94.0616C218.54 95.6116 213.88 96.4516 209 96.5616C190.35 104.002 185.35 116.832 194 135.062C183.98 143.792 172.31 148.292 159 148.562C143.91 144.552 136.41 134.722 136.5 119.062C131.89 112.652 129.05 105.492 128 97.5616C128.3 94.7116 128.63 91.8816 129 89.0616C129.1 86.8616 129.77 84.8616 131 83.0616C133.85 77.7316 137.01 72.3916 140.5 67.0616C146.89 58.6316 153.89 57.9716 161.5 65.0616C162.36 66.6516 163.03 68.3116 163.5 70.0616C167.98 72.3416 170.48 76.0116 171 81.0616C172.62 80.4116 174.28 79.9116 176 79.5616C181.4 75.5316 187.06 72.0316 193 69.0616C199.36 67.5516 205.69 65.8916 212 64.0616C218.16 63.6516 224.32 63.3116 230.5 63.0616C253.65 64.9816 276.82 66.6516 300 68.0616C307.53 70.7716 315.2 73.1016 323 75.0616C327.93 66.7116 333.27 58.5416 339 50.5616C342.2 49.0816 345.54 48.7416 349 49.5616C351.25 51.8516 353.91 53.3516 357 54.0616Z" fill="#835A4C"/>
<path fill-rule="evenodd" clip-rule="evenodd" d="M357.001 54.0615C362.401 56.9615 366.231 61.2915 368.501 67.0615C370.291 76.3615 371.961 85.6915 373.501 95.0615C379.661 99.7115 384.661 105.372 388.501 112.062C394.901 127.922 400.901 143.922 406.501 160.062C408.741 175.182 411.741 190.182 415.501 205.062C416.001 212.052 416.171 219.052 416.001 226.062C413.681 224.292 411.021 223.292 408.001 223.062C402.631 225.092 397.131 226.762 391.501 228.062C387.741 242.932 384.071 257.932 380.501 273.062C379.351 280.702 379.011 288.372 379.501 296.062C380.741 301.762 384.241 304.762 390.001 305.062C394.001 304.552 397.671 303.222 401.001 301.062C395.451 309.122 388.951 316.452 381.501 323.062C378.231 329.322 374.561 335.322 370.501 341.062C362.691 350.512 354.521 359.682 346.001 368.562C339.161 372.812 332.161 376.812 325.001 380.562C318.451 383.152 311.781 384.652 305.001 385.062C300.781 385.302 296.611 384.962 292.501 384.062C290.921 384.602 289.421 385.272 288.001 386.062C277.451 390.262 266.451 392.592 255.001 393.062C242.201 391.372 229.531 389.042 217.001 386.062C212.271 384.932 207.611 383.602 203.001 382.062C192.611 378.092 182.611 373.262 173.001 367.562C159.671 358.232 146.331 348.892 133.001 339.562C127.701 335.262 122.701 330.592 118.001 325.562C116.331 325.232 114.671 324.892 113.001 324.562C110.601 321.382 107.601 319.212 104.001 318.062C109.851 320.322 114.691 318.992 118.501 314.062C118.981 310.282 120.151 306.782 122.001 303.562C121.261 300.752 120.261 298.092 119.001 295.562C119.831 293.082 120.001 290.582 119.501 288.062C117.881 284.492 116.551 280.832 115.501 277.062C114.231 263.672 112.561 250.332 110.501 237.062C103.691 224.642 95.6912 223.982 86.5012 235.062C78.9512 249.912 77.6112 265.242 82.5012 281.062C86.8312 294.632 93.6612 306.632 103.001 317.062C93.3512 312.242 86.1812 304.912 81.5012 295.062C72.5012 271.692 74.5012 249.352 87.5012 228.062C87.7912 206.342 90.7912 185.012 96.5012 164.062C100.831 148.432 108.501 134.762 119.501 123.062C121.131 111.172 124.301 99.8415 129.001 89.0615C128.631 91.8815 128.301 94.7115 128.001 97.5615C129.051 105.492 131.891 112.652 136.501 119.062C136.411 134.722 143.911 144.552 159.001 148.562C172.311 148.292 183.981 143.792 194.001 135.062C205.561 148.472 218.221 149.472 232.001 138.062C235.341 144.252 238.501 150.592 241.501 157.062C246.041 161.022 250.541 161.022 255.001 157.062C259.371 149.632 263.711 142.302 268.001 135.062C276.701 140.302 286.031 141.472 296.001 138.562C297.481 137.902 298.821 137.062 300.001 136.062C300.831 137.312 302.171 137.972 304.001 138.062C306.511 137.772 309.011 137.432 311.501 137.062C317.921 138.702 324.421 139.202 331.001 138.562C336.691 136.832 342.361 134.832 348.001 132.562C350.621 129.822 353.121 126.992 355.501 124.062C357.421 115.122 360.081 106.452 363.501 98.0615C363.671 95.3915 363.831 92.7315 364.001 90.0615C362.731 81.4315 361.561 72.7715 360.501 64.0615C359.631 60.5515 358.461 57.2215 357.001 54.0615Z" fill="#B17A67"/>
<path fill-rule="evenodd" clip-rule="evenodd" d="M193 69.0619C187.06 72.0319 181.4 75.5319 176 79.5619C174.28 79.9119 172.62 80.4119 171 81.0619C170.48 76.0119 167.98 72.3419 163.5 70.0619C163.03 68.3119 162.36 66.6519 161.5 65.0619C153.89 57.9719 146.89 58.6319 140.5 67.0619C137.01 72.3919 133.85 77.7319 131 83.0619C132.79 77.8119 134.29 72.4819 135.5 67.0619C142.94 60.0719 151.77 56.9019 162 57.5619C168.06 60.8319 171.23 66.0019 171.5 73.0619C172.06 73.5819 172.73 73.9219 173.5 74.0619C179.79 71.5719 186.29 69.9019 193 69.0619Z" fill="#B27D6B"/>
<path fill-rule="evenodd" clip-rule="evenodd" d="M300 68.0614C276.82 66.6514 253.65 64.9814 230.5 63.0614C224.32 63.3114 218.16 63.6514 212 64.0614C236.37 58.1914 261.04 57.6914 286 62.5614C291.11 63.5414 295.78 65.3714 300 68.0614Z" fill="#B07B69"/>
<path fill-rule="evenodd" clip-rule="evenodd" d="M239 122.062C234.54 122.352 231.71 124.682 230.5 129.062C229.9 132.242 230.4 135.242 232 138.062C218.22 149.472 205.56 148.472 194 135.062C185.35 116.832 190.35 104.002 209 96.5615C213.88 96.4515 218.54 95.6115 223 94.0615C225.29 94.1815 227.29 95.0215 229 96.5615C231.21 103.162 234.38 109.322 238.5 115.062C239 117.372 239.16 119.702 239 122.062Z" fill="#FCFBFB"/>
<path fill-rule="evenodd" clip-rule="evenodd" d="M300 136.061C298.82 137.061 297.48 137.901 296 138.561C286.03 141.471 276.7 140.301 268 135.061C269.03 129.791 267.36 125.791 263 123.061C256.84 114.391 258.17 106.891 267 100.561C280.9 94.1113 294.07 95.2813 306.5 104.061C313.24 116.461 311.07 127.121 300 136.061Z" fill="#FBFBFA"/>
<path fill-rule="evenodd" clip-rule="evenodd" d="M209.999 108.062C215.359 108.252 217.529 110.912 216.499 116.062C214.419 119.822 211.919 123.322 208.999 126.562C200.099 127.962 197.599 124.462 201.499 116.062C204.039 113.052 206.869 110.382 209.999 108.062Z" fill="#0D0D0D"/>
<path fill-rule="evenodd" clip-rule="evenodd" d="M291 119.061C295.14 118.711 299.14 119.211 303 120.561C304.78 122.801 305.28 125.301 304.5 128.061C299.96 132.711 294.46 134.211 288 132.561C284.61 129.951 284.11 126.781 286.5 123.061C287.9 121.491 289.4 120.161 291 119.061Z" fill="#0A0A0A"/>
<path fill-rule="evenodd" clip-rule="evenodd" d="M239.001 122.062C247.061 121.792 255.061 122.122 263.001 123.062C267.361 125.792 269.031 129.792 268.001 135.062C263.711 142.302 259.371 149.632 255.001 157.062C250.541 161.022 246.041 161.022 241.501 157.062C238.501 150.592 235.341 144.252 232.001 138.062C230.401 135.242 229.901 132.242 230.501 129.062C231.711 124.682 234.541 122.352 239.001 122.062Z" fill="#FEE93C"/>
<path fill-rule="evenodd" clip-rule="evenodd" d="M350 231.062C345.09 227.352 339.76 224.182 334 221.562C324.25 219.192 314.59 216.522 305 213.562C298.67 212.892 292.33 212.892 286 213.562C275.21 219.282 268.38 228.122 265.5 240.062C263.4 253.422 265.4 266.092 271.5 278.062C277.48 283.842 284.65 287.342 293 288.562C298.68 289.262 304.34 289.592 310 289.562C314.16 286.312 318.49 283.312 323 280.562C332.2 267.792 336.87 253.622 337 238.062C341.64 242.052 346.97 244.382 353 245.062C362.86 272.992 355.86 295.822 332 313.562C321.79 318.832 311.46 323.832 301 328.562C281.21 333.342 261.21 336.842 241 339.062C224.6 338.462 208.6 335.632 193 330.562C182.01 324.252 172.18 316.412 163.5 307.062C158.46 301.682 153.79 296.022 149.5 290.062C143.84 279.792 141.34 268.792 142 257.062C143.76 256.492 145.42 255.652 147 254.562C150.52 250.882 154.18 247.382 158 244.062C159.07 245.752 158.9 247.412 157.5 249.062C156.15 266.002 162.31 279.502 176 289.562C194.12 296.392 209.29 292.232 221.5 277.062C224.94 271.292 227.94 265.292 230.5 259.062C231.28 249.942 228.61 241.942 222.5 235.062C222.45 229.132 219.95 224.632 215 221.562C197.2 213.902 179.53 214.232 162 222.562C156.31 226.072 150.64 229.572 145 233.062C146.95 224.162 150.78 216.162 156.5 209.062C172.67 190.722 192.84 179.222 217 174.562C247.14 168.622 276.81 170.292 306 179.562C325.17 188.062 339 201.892 347.5 221.062C348.85 224.282 349.69 227.612 350 231.062Z" fill="#FDFCFC"/>
<path fill-rule="evenodd" clip-rule="evenodd" d="M350 231.061C353.11 233.121 356.44 234.951 360 236.561C362.91 239.931 362.57 242.931 359 245.561C356.9 246.241 354.9 246.071 353 245.061C346.97 244.381 341.64 242.051 337 238.061C336.87 253.621 332.2 267.791 323 280.561C318.49 283.311 314.16 286.311 310 289.561C304.34 289.591 298.68 289.261 293 288.561C284.65 287.341 277.48 283.841 271.5 278.061C265.4 266.091 263.4 253.421 265.5 240.061C268.38 228.121 275.21 219.281 286 213.561C292.33 212.891 298.67 212.891 305 213.561C314.59 216.521 324.25 219.191 334 221.561C339.76 224.181 345.09 227.351 350 231.061Z" fill="#040404"/>
<path fill-rule="evenodd" clip-rule="evenodd" d="M142.001 257.061C139.461 257.461 137.291 256.791 135.501 255.061C134.831 252.061 134.831 249.061 135.501 246.061C138.501 241.571 141.661 237.231 145.001 233.061C150.641 229.571 156.311 226.071 162.001 222.561C179.531 214.231 197.201 213.901 215.001 221.561C219.951 224.631 222.451 229.131 222.501 235.061C228.611 241.941 231.281 249.941 230.501 259.061C227.941 265.291 224.941 271.291 221.501 277.061C209.291 292.231 194.121 296.391 176.001 289.561C162.311 279.501 156.151 266.001 157.501 249.061C158.901 247.411 159.071 245.751 158.001 244.061C154.181 247.381 150.521 250.881 147.001 254.561C145.421 255.651 143.761 256.491 142.001 257.061Z" fill="#040404"/>
<path fill-rule="evenodd" clip-rule="evenodd" d="M416.001 226.062C416.001 226.392 416.001 226.732 416.001 227.062C415.841 228.762 416.011 230.432 416.501 232.062C422.301 241.562 424.471 251.892 423.001 263.062C422.421 267.982 420.921 272.652 418.501 277.062C413.221 285.502 407.391 293.502 401.001 301.062C397.671 303.222 394.001 304.552 390.001 305.062C384.241 304.762 380.741 301.762 379.501 296.062C379.011 288.372 379.351 280.702 380.501 273.062C384.071 257.932 387.741 242.932 391.501 228.062C397.131 226.762 402.631 225.092 408.001 223.062C411.021 223.292 413.681 224.292 416.001 226.062Z" fill="#835B4C"/>
<path fill-rule="evenodd" clip-rule="evenodd" d="M287 223.061C294.44 222.511 298.44 225.851 299 233.061C297.68 237.551 296.85 242.221 296.5 247.061C292.32 252.301 287.15 253.461 281 250.561C279.7 247.701 277.87 245.201 275.5 243.061C273.3 238.821 273.63 234.821 276.5 231.061C280.16 228.491 283.66 225.831 287 223.061Z" fill="#F6F6F6"/>
<path fill-rule="evenodd" clip-rule="evenodd" d="M103.999 318.061C103.329 318.061 102.999 317.731 102.999 317.061C93.659 306.631 86.829 294.631 82.499 281.061C77.609 265.241 78.949 249.911 86.499 235.061C95.689 223.981 103.689 224.641 110.499 237.061C112.559 250.331 114.229 263.671 115.499 277.061C116.549 280.831 117.879 284.491 119.499 288.061C119.999 290.581 119.829 293.081 118.999 295.561C120.259 298.091 121.259 300.751 121.999 303.561C120.149 306.781 118.979 310.281 118.499 314.061C114.689 318.991 109.849 320.321 103.999 318.061Z" fill="#835B4C"/>
<path fill-rule="evenodd" clip-rule="evenodd" d="M202 228.062C210.28 228.182 214.95 232.352 216 240.562C214.84 249.772 210 255.932 201.5 259.062C194.61 256.962 190.78 252.302 190 245.062C191.82 237.722 195.82 232.062 202 228.062Z" fill="#F4F4F4"/>
<path fill-rule="evenodd" clip-rule="evenodd" d="M416 227.062C418.64 231.222 421.14 235.562 423.5 240.062C424.32 247.902 424.16 255.572 423 263.062C424.47 251.892 422.3 241.562 416.5 232.062C416.01 230.432 415.84 228.762 416 227.062Z" fill="#C1BBB9"/>
<path fill-rule="evenodd" clip-rule="evenodd" d="M267.999 293.061C273.879 292.771 276.379 295.431 275.499 301.061C272.409 307.141 268.239 312.311 262.999 316.561C259.239 317.301 255.569 316.961 251.999 315.561C247.969 313.051 243.639 311.381 238.999 310.561C236.399 308.241 235.569 305.411 236.499 302.061C240.459 299.641 244.619 299.471 248.999 301.561C251.879 303.261 254.879 304.761 257.999 306.061C262.059 302.281 265.389 297.941 267.999 293.061Z" fill="#0A0A0A"/>
<path fill-rule="evenodd" clip-rule="evenodd" d="M203.001 382.062C207.611 383.602 212.271 384.932 217.001 386.062C217.791 393.252 218.791 400.412 220.001 407.562C219.701 410.412 219.371 413.242 219.001 416.062C222.291 415.822 225.291 416.652 228.001 418.562C231.831 421.732 235.671 424.892 239.501 428.062C242.811 431.552 242.641 434.712 239.001 437.562C233.301 438.092 228.471 436.262 224.501 432.062C223.481 436.822 222.141 441.482 220.501 446.062C216.351 450.352 212.681 450.022 209.501 445.062C209.331 441.352 208.831 437.682 208.001 434.062C204.851 436.722 201.351 438.722 197.501 440.062C191.141 437.662 189.471 433.332 192.501 427.062C196.971 422.422 202.141 418.762 208.001 416.062C205.351 404.882 203.691 393.552 203.001 382.062Z" fill="#FFEB41"/>
<path fill-rule="evenodd" clip-rule="evenodd" d="M305 385.062C304.83 394.402 305 403.732 305.5 413.062C310.88 416.002 316.38 418.832 322 421.562C325.21 424.882 327.21 428.882 328 433.562C327.11 435.952 325.45 437.452 323 438.062C318.75 435.822 314.75 433.152 311 430.062C310.4 434.362 310.23 438.692 310.5 443.062C309.05 446.182 306.72 448.182 303.5 449.062C302.39 448.972 301.39 448.642 300.5 448.062C299.74 444.612 298.24 441.612 296 439.062C292.84 443.052 289.17 446.552 285 449.562C281.06 450.982 278.73 449.642 278 445.562C280.93 441.162 282.76 436.322 283.5 431.062C289 425.722 291.17 419.052 290 411.062C290.07 402.652 289.4 394.312 288 386.062C289.42 385.272 290.92 384.602 292.5 384.062C296.61 384.962 300.78 385.302 305 385.062Z" fill="#FEEB3F"/>
</svg>
