<svg width="500" height="500" viewBox="0 0 500 500" fill="none" xmlns="http://www.w3.org/2000/svg">
<path fill-rule="evenodd" clip-rule="evenodd" d="M391.001 325.062C388.421 329.232 386.081 333.562 384.001 338.062C375.531 347.362 366.531 356.192 357.001 364.562C349.321 368.672 341.321 372.012 333.001 374.562C324.401 379.362 315.731 383.862 307.001 388.062C305.141 385.942 302.971 385.612 300.501 387.062C297.941 385.222 295.111 384.722 292.001 385.562C289.671 387.402 289.331 389.572 291.001 392.062C285.661 393.232 280.321 394.392 275.001 395.562C277.971 397.952 280.801 400.452 283.501 403.062C284.481 411.092 280.811 415.092 272.501 415.062C270.791 414.912 269.131 414.582 267.501 414.062C261.521 417.492 256.681 416.332 253.001 410.562C250.331 409.892 247.671 409.892 245.001 410.562C242.901 413.412 240.571 416.082 238.001 418.562C235.001 420.562 232.001 420.562 229.001 418.562C224.401 412.842 218.571 410.672 211.501 412.062C207.221 409.982 202.721 408.482 198.001 407.562C195.151 405.002 194.321 401.832 195.501 398.062C197.681 395.552 200.181 393.382 203.001 391.562C197.131 389.762 191.131 388.262 185.001 387.062C182.431 383.832 179.091 381.832 175.001 381.062C173.651 381.412 172.321 381.742 171.001 382.062C155.271 376.532 140.271 369.362 126.001 360.562C118.181 351.442 110.021 342.612 101.501 334.062C97.7013 327.792 94.2013 321.462 91.0013 315.062C87.5813 302.132 83.5813 289.462 79.0013 277.062C77.0613 256.772 76.8913 236.442 78.5013 216.062C83.1813 192.032 93.6813 171.032 110.001 153.062C118.061 147.512 125.391 141.012 132.001 133.562C140.101 129.852 147.101 124.682 153.001 118.062C160.261 112.422 167.921 107.252 176.001 102.562C192.891 93.9321 210.231 86.2621 228.001 79.5621C233.831 74.3921 239.671 69.2321 245.501 64.0621C248.751 59.2321 251.751 54.2321 254.501 49.0621C259.781 44.8621 264.781 45.1921 269.501 50.0621C273.981 59.0221 278.981 67.6921 284.501 76.0621C285.021 73.5321 286.181 71.3621 288.001 69.5621C291.811 68.7821 295.141 67.1121 298.001 64.5621C303.651 62.8021 307.481 64.6421 309.501 70.0621C309.831 75.3921 310.171 80.7321 310.501 86.0621C321.101 103.992 335.601 117.832 354.001 127.562C355.501 129.062 357.001 130.562 358.501 132.062C360.651 130.122 363.151 129.622 366.001 130.562C375.071 138.882 382.571 148.382 388.501 159.062C391.721 164.832 394.391 170.832 396.501 177.062C397.201 184.942 398.871 192.612 401.501 200.062C403.191 214.552 404.691 229.052 406.001 243.562C405.381 261.272 403.211 278.772 399.501 296.062C397.131 305.892 394.291 315.562 391.001 325.062Z" fill="#FEA520"/>
<path fill-rule="evenodd" clip-rule="evenodd" d="M329 331.062C356.41 316.582 366.74 294.252 360 264.062C362.85 260.602 362.18 257.932 358 256.062C355.92 246.142 351.92 237.142 346 229.062C349.14 221.112 348.3 213.452 343.5 206.062C333.91 202.482 330.41 205.812 333 216.062C308.18 201.432 281.85 197.762 254 205.062C254 191.032 258 178.362 266 167.062C265.15 162.382 262.32 160.052 257.5 160.062C255.52 160.552 253.85 161.552 252.5 163.062C244.97 177.162 240.13 192.162 238 208.062C218.55 210.532 203.05 219.532 191.5 235.062C190.05 237.632 188.88 240.302 188 243.062C185 246.232 182.17 249.562 179.5 253.062C178.57 256.382 179.07 259.382 181 262.062C176.93 269.072 175.26 276.732 176 285.062C177.5 305.232 185.83 322.062 201 335.562C206.84 339.342 213.17 341.842 220 343.062C213.18 347.972 205.85 352.142 198 355.562C193.83 357.652 189.5 359.152 185 360.062C179.79 359.472 175.29 357.472 171.5 354.062C166.78 346.032 162.94 337.692 160 329.062C161.83 327.062 162.33 324.732 161.5 322.062C159.62 321.512 158.12 320.512 157 319.062C146.44 299.982 145.27 280.322 153.5 260.062C162.72 233.752 172.72 207.752 183.5 182.062C194.88 167.682 205.88 153.012 216.5 138.062C219.8 133.252 219.64 128.752 216 124.562C214 123.892 212 123.892 210 124.562C198.71 134.182 189.21 145.352 181.5 158.062C164.11 189.882 148.45 222.552 134.5 256.062C130.01 271.702 130.01 287.372 134.5 303.062C137.58 315.862 141.75 328.192 147 340.062C146.62 344.922 147.28 349.592 149 354.062C141.88 350.742 135.71 346.072 130.5 340.062C118.26 324.252 108.59 306.912 101.5 288.062C99.5002 277.392 97.5002 266.722 95.5002 256.062C95.3102 246.022 95.9802 236.022 97.5002 226.062C101.99 214.392 106.33 202.732 110.5 191.062C120 177.562 129.5 164.062 139 150.562C152.18 140.802 165.18 130.802 178 120.562C185.36 116.882 192.7 113.212 200 109.562C210.01 107.392 220.01 105.232 230 103.062C232.07 104.182 234.24 105.182 236.5 106.062C238.45 105.672 239.95 104.672 241 103.062C244.6 102.022 248.26 101.362 252 101.062C263.91 102.512 275.57 105.012 287 108.562C292.41 113.432 298.75 116.432 306 117.562C308 120.202 310.67 121.702 314 122.062C316.38 126.952 319.72 131.112 324 134.562C339.67 142.572 350.84 154.732 357.5 171.062C369.28 185.282 377.95 201.282 383.5 219.062C386.51 243.592 384.18 267.592 376.5 291.062C368.95 308.502 359.62 324.832 348.5 340.062C340.14 348.482 331.3 356.312 322 363.562C319.09 365.962 316.76 368.802 315 372.062C313 373.312 311 374.142 309 374.562C315.26 359.872 321.93 345.372 329 331.062Z" fill="#F0BD8A"/>
<path fill-rule="evenodd" clip-rule="evenodd" d="M157 319.061C153.28 318.611 151.11 320.281 150.5 324.061C149.77 329.531 148.61 334.861 147 340.061C141.75 328.191 137.58 315.861 134.5 303.061C130.01 287.371 130.01 271.701 134.5 256.061C148.45 222.551 164.11 189.881 181.5 158.061C189.21 145.351 198.71 134.181 210 124.561C212 123.891 214 123.891 216 124.561C219.64 128.751 219.8 133.251 216.5 138.061C205.88 153.011 194.88 167.681 183.5 182.061C172.72 207.751 162.72 233.751 153.5 260.061C145.27 280.321 146.44 299.981 157 319.061Z" fill="#FEA520"/>
<path fill-rule="evenodd" clip-rule="evenodd" d="M153 118.062C147.1 124.682 140.1 129.852 132 133.562C125.39 141.012 118.06 147.512 110 153.062C121.65 138.082 135.98 126.412 153 118.062Z" fill="#C6997E"/>
<path fill-rule="evenodd" clip-rule="evenodd" d="M254 205.062C248.61 205.802 243.28 206.802 238 208.062C240.13 192.162 244.97 177.162 252.5 163.062C253.85 161.552 255.52 160.552 257.5 160.062C262.32 160.052 265.15 162.382 266 167.062C258 178.362 254 191.032 254 205.062Z" fill="#FEA522"/>
<path fill-rule="evenodd" clip-rule="evenodd" d="M333.001 216.062C337.721 220.112 342.051 224.452 346.001 229.062C351.921 237.142 355.921 246.142 358.001 256.062C352.491 252.062 346.821 248.222 341.001 244.562C333.231 242.172 325.561 239.512 318.001 236.562C298.811 232.762 287.311 240.592 283.501 260.062C279.501 282.882 289.001 294.882 312.001 296.062C319.541 300.932 326.041 299.602 331.501 292.062C332.001 290.092 332.161 288.092 332.001 286.062C334.841 280.392 337.671 274.722 340.501 269.062C340.671 265.352 341.171 261.682 342.001 258.062C347.401 262.452 353.401 264.452 360.001 264.062C366.741 294.252 356.411 316.582 329.001 331.062C322.781 334.012 316.441 336.672 310.001 339.062C290.291 343.872 270.291 346.542 250.001 347.062C253.161 345.732 254.321 343.402 253.501 340.062C250.791 337.622 247.631 336.122 244.001 335.562C241.791 332.292 239.961 328.792 238.501 325.062C236.171 321.772 233.331 321.272 230.001 323.562C225.291 328.192 223.791 333.692 225.501 340.062C223.761 341.322 221.931 342.322 220.001 343.062C213.171 341.842 206.841 339.342 201.001 335.562C185.831 322.062 177.501 305.232 176.001 285.062C175.261 276.732 176.931 269.072 181.001 262.062C183.491 262.262 185.821 261.762 188.001 260.562C191.501 257.732 195.001 254.892 198.501 252.062C196.021 261.622 196.851 270.952 201.001 280.062C193.831 282.922 193.161 287.092 199.001 292.562C204.831 294.712 210.501 294.542 216.001 292.062C227.781 294.642 237.941 291.642 246.501 283.062C248.341 279.382 250.671 276.042 253.501 273.062C255.571 268.932 256.231 264.602 255.501 260.062C252.841 253.772 250.511 247.432 248.501 241.062C245.941 238.032 242.771 235.862 239.001 234.562C233.271 232.882 227.431 231.712 221.501 231.062C209.401 232.592 198.231 236.592 188.001 243.062C188.881 240.302 190.051 237.632 191.501 235.062C203.051 219.532 218.551 210.532 238.001 208.062C243.281 206.802 248.611 205.802 254.001 205.062C281.851 197.762 308.181 201.432 333.001 216.062Z" fill="#FDFDFD"/>
<path fill-rule="evenodd" clip-rule="evenodd" d="M346 229.062C342.05 224.452 337.72 220.112 333 216.062C330.41 205.812 333.91 202.482 343.5 206.062C348.3 213.452 349.14 221.112 346 229.062Z" fill="#FEA623"/>
<path fill-rule="evenodd" clip-rule="evenodd" d="M216 292.062C216.24 290.092 215.91 288.262 215 286.562C210.35 284.292 205.68 282.122 201 280.062C196.85 270.952 196.02 261.622 198.5 252.062C195 254.892 191.5 257.732 188 260.562C185.82 261.762 183.49 262.262 181 262.062C179.07 259.382 178.57 256.382 179.5 253.062C182.17 249.562 185 246.232 188 243.062C198.23 236.592 209.4 232.592 221.5 231.062C227.43 231.712 233.27 232.882 239 234.562C242.77 235.862 245.94 238.032 248.5 241.062C250.51 247.432 252.84 253.772 255.5 260.062C256.23 264.602 255.57 268.932 253.5 273.062C250.67 276.042 248.34 279.382 246.5 283.062C237.94 291.642 227.78 294.642 216 292.062Z" fill="#050505"/>
<path fill-rule="evenodd" clip-rule="evenodd" d="M358 256.062C362.18 257.932 362.85 260.602 360 264.062C353.4 264.452 347.4 262.452 342 258.062C341.17 261.682 340.67 265.352 340.5 269.062C337.67 274.722 334.84 280.392 332 286.062C327.68 284.802 323.34 284.972 319 286.562C316.03 289.352 313.7 292.522 312 296.062C289 294.882 279.5 282.882 283.5 260.062C287.31 240.592 298.81 232.762 318 236.562C325.56 239.512 333.23 242.172 341 244.562C346.82 248.222 352.49 252.062 358 256.062Z" fill="#040404"/>
<path fill-rule="evenodd" clip-rule="evenodd" d="M232 243.062C242.1 242.342 245.93 247.002 243.5 257.062C235.21 271.002 228.71 270.342 224 255.062C225.68 250.362 228.35 246.362 232 243.062Z" fill="#F7F7F7"/>
<path fill-rule="evenodd" clip-rule="evenodd" d="M302 243.062C307.79 242.362 311.13 244.862 312 250.562C310.79 254.292 309.96 258.122 309.5 262.062C306.04 266.302 301.88 267.132 297 264.562C294.22 261.662 292.22 258.332 291 254.562C291.13 252.932 291.63 251.432 292.5 250.062C295.43 247.272 298.6 244.942 302 243.062Z" fill="#F5F5F5"/>
<path fill-rule="evenodd" clip-rule="evenodd" d="M201 280.062C205.68 282.122 210.35 284.292 215 286.562C215.91 288.262 216.24 290.092 216 292.062C210.5 294.542 204.83 294.712 199 292.562C193.16 287.092 193.83 282.922 201 280.062Z" fill="#9BD8E8"/>
<path fill-rule="evenodd" clip-rule="evenodd" d="M332 286.062C332.16 288.092 332 290.092 331.5 292.062C326.04 299.602 319.54 300.932 312 296.062C313.7 292.522 316.03 289.352 319 286.562C323.34 284.972 327.68 284.802 332 286.062Z" fill="#96D4E5"/>
<path fill-rule="evenodd" clip-rule="evenodd" d="M283.001 298.062C286.701 297.242 289.031 298.572 290.001 302.062C287.401 307.422 283.731 311.922 279.001 315.562C276.671 316.232 274.331 316.232 272.001 315.562C267.981 313.532 263.981 311.532 260.001 309.562C255.801 305.662 256.471 302.822 262.001 301.062C266.421 302.772 270.751 304.772 275.001 307.062C278.371 304.632 281.041 301.632 283.001 298.062Z" fill="#0C0C0C"/>
<path fill-rule="evenodd" clip-rule="evenodd" d="M79 277.062C83.58 289.462 87.58 302.132 91 315.062C83.93 303.482 79.93 290.812 79 277.062Z" fill="#CB8857"/>
<path fill-rule="evenodd" clip-rule="evenodd" d="M157 319.062C158.12 320.512 159.62 321.512 161.5 322.062C162.33 324.732 161.83 327.062 160 329.062C155.9 342.372 159.23 353.202 170 361.562C175.26 362.372 180.26 361.872 185 360.062C189.5 359.152 193.83 357.652 198 355.562C205.85 352.142 213.18 347.972 220 343.062C221.93 342.322 223.76 341.322 225.5 340.062C223.79 333.692 225.29 328.192 230 323.562C233.33 321.272 236.17 321.772 238.5 325.062C239.96 328.792 241.79 332.292 244 335.562C247.63 336.122 250.79 337.622 253.5 340.062C254.32 343.402 253.16 345.732 250 347.062C245.83 347.372 241.83 346.712 238 345.062C237.2 345.522 236.87 346.182 237 347.062C232.73 349.332 228.73 352.002 225 355.062C215.52 360.632 205.86 365.972 196 371.062C184.13 374.312 172.13 374.812 160 372.562C156.88 371.112 154.38 368.942 152.5 366.062C152.02 361.772 150.85 357.772 149 354.062C147.28 349.592 146.62 344.922 147 340.062C148.61 334.862 149.77 329.532 150.5 324.062C151.11 320.282 153.28 318.612 157 319.062Z" fill="#070503"/>
<path fill-rule="evenodd" clip-rule="evenodd" d="M391 325.062C397.24 337.452 401.91 350.452 405 364.062C412.19 363.912 418.02 366.572 422.5 372.062C423.17 374.392 423.17 376.732 422.5 379.062C421.37 380.502 419.87 381.172 418 381.062C413.24 379.012 408.24 378.182 403 378.562C399.37 381.192 396.03 384.192 393 387.562C386.82 388.752 384.66 386.252 386.5 380.062C388.33 376.392 390.17 372.732 392 369.062C388.52 358.942 385.85 348.612 384 338.062C386.08 333.562 388.42 329.232 391 325.062Z" fill="#060505"/>
<path fill-rule="evenodd" clip-rule="evenodd" d="M159.999 329.062C162.939 337.692 166.779 346.032 171.499 354.062C175.289 357.472 179.789 359.472 184.999 360.062C180.259 361.872 175.259 362.372 169.999 361.562C159.229 353.202 155.899 342.372 159.999 329.062Z" fill="#F49F20"/>
<path fill-rule="evenodd" clip-rule="evenodd" d="M310 339.062C304.81 353.082 296.64 365.082 285.5 375.062C284.81 377.482 285.31 379.652 287 381.562C284.79 382.602 282.45 383.272 280 383.562C266.91 384.522 253.91 384.022 241 382.062C239.52 371.452 238.69 360.792 238.5 350.062C238.27 348.822 237.77 347.822 237 347.062C236.87 346.182 237.2 345.522 238 345.062C241.83 346.712 245.83 347.372 250 347.062C270.29 346.542 290.29 343.872 310 339.062Z" fill="#F1BE8B"/>
<path fill-rule="evenodd" clip-rule="evenodd" d="M225 355.062C224.53 364.192 225.2 373.192 227 382.062C222.3 380.552 217.63 378.722 213 376.562C209 375.892 205 375.232 201 374.562C199.62 372.912 197.95 371.742 196 371.062C205.86 365.972 215.52 360.632 225 355.062Z" fill="#EEBB88"/>
<path fill-rule="evenodd" clip-rule="evenodd" d="M185 387.062C186.46 392.632 187.63 398.292 188.5 404.062C188.72 415.122 189.55 426.122 191 437.062C194.68 436.892 198.35 437.062 202 437.562C205.88 440.132 209.71 442.632 213.5 445.062C214.17 446.732 214.17 448.392 213.5 450.062C210.73 450.702 208.56 452.202 207 454.562C196.16 454.852 186.33 452.022 177.5 446.062C176.52 444.192 176.02 442.192 176 440.062C176.88 427.732 176.71 415.402 175.5 403.062C174.25 397.222 172.42 391.562 170 386.062C170.35 384.712 170.68 383.382 171 382.062C172.32 381.742 173.65 381.412 175 381.062C179.09 381.832 182.43 383.832 185 387.062Z" fill="#080808"/>
<path fill-rule="evenodd" clip-rule="evenodd" d="M306.999 388.061C308.089 391.641 308.259 395.301 307.499 399.061C303.579 415.941 299.249 432.611 294.499 449.061C292.959 450.941 291.119 452.441 288.999 453.561C284.359 454.561 279.689 454.891 274.999 454.561C268.409 450.421 268.409 446.081 274.999 441.561C278.069 439.711 281.399 438.711 284.999 438.561C286.709 437.781 287.709 436.451 287.999 434.561C290.719 420.461 291.719 406.301 290.999 392.061C289.329 389.571 289.669 387.401 291.999 385.561C295.109 384.721 297.939 385.221 300.499 387.061C302.969 385.611 305.139 385.941 306.999 388.061Z" fill="#070706"/>
</svg>
