<svg width="500" height="500" viewBox="0 0 500 500" fill="none" xmlns="http://www.w3.org/2000/svg">
<path fill-rule="evenodd" clip-rule="evenodd" d="M248 74.0616C247.48 80.8169 245.98 87.4835 243.5 94.0616C238.47 100.238 233.14 100.571 227.5 95.0616C225.27 88.4168 223.77 81.7501 223 75.0616C220.81 66.8004 219.31 58.4671 218.5 50.0616C219.28 48.2756 220.45 46.7756 222 45.5616C225.73 43.3222 229.73 41.8222 234 41.0616C237.29 40.8411 239.79 42.1744 241.5 45.0616C246.75 53.9548 248.92 63.6214 248 74.0616Z" fill="#B17B67"/>
<path fill-rule="evenodd" clip-rule="evenodd" d="M248 74.0615C286.84 75.0556 316.68 91.7223 337.5 124.062C342.84 134.432 346.18 145.432 347.5 157.062C347.75 177.733 347.75 198.4 347.5 219.062C356.41 229.88 365.07 240.88 373.5 252.062C381.26 265.753 384.92 280.419 384.5 296.062C382.35 304.969 380.85 313.969 380 323.062C376.07 333.173 371.74 343.173 367 353.062C362.32 360.256 356.65 366.756 350 372.562C336.96 377.91 323.62 382.244 310 385.562C306.18 389.132 301.85 391.632 297 393.062C291.96 393.47 286.96 394.136 282 395.062C276.1 396.458 270.1 397.125 264 397.062C249.33 396.446 234.66 395.78 220 395.062C215.56 393.572 210.89 392.572 206 392.062C184.15 382.64 162.15 373.474 140 364.562C137.8 362.19 135.46 360.023 133 358.062C130.15 344.006 130.65 330.006 134.5 316.062C136.49 310.454 138.32 304.788 140 299.062C138.52 293.488 135.18 291.988 130 294.562C122.49 309.624 118.49 325.457 118 342.062C115.66 339.558 114.16 336.558 113.5 333.062C111.87 322.446 110.71 311.779 110 301.062C111 278.375 117.83 257.708 130.5 239.062C138.15 230.578 145.98 222.244 154 214.062C144.56 194.758 141.39 174.425 144.5 153.062C155.35 111.377 181.52 85.3767 223 75.0615C223.77 81.75 225.27 88.4167 227.5 95.0615C233.14 100.571 238.47 100.238 243.5 94.0615C245.98 87.4834 247.48 80.8168 248 74.0615Z" fill="#8BC34A"/>
<path fill-rule="evenodd" clip-rule="evenodd" d="M245 229.062C259 228.895 273 229.062 287 229.562C298.96 231.294 309.46 236.128 318.5 244.062C320.1 247.21 321.1 250.543 321.5 254.062C354.42 277.681 359.09 306.015 335.5 339.062C328.95 346.942 320.78 352.442 311 355.562C283.11 364.927 254.44 368.594 225 366.562C207.31 363.382 191.31 356.382 177 345.562C160.49 329.199 157.32 310.366 167.5 289.062C173.39 277.162 181.56 266.996 192 258.562C197.67 253.562 203.33 248.562 209 243.562C220.41 237.041 232.41 232.207 245 229.062Z" fill="#FCFDFC"/>
<path fill-rule="evenodd" clip-rule="evenodd" d="M284 269.061C290.67 268.895 297.34 269.061 304 269.561C309.89 271.189 315.89 272.189 322 272.561C329.33 275.894 336.67 279.228 344 282.561C345.89 286.294 344.89 288.794 341 290.061C335.32 289.897 330.16 288.23 325.5 285.061C326.51 296.693 324.18 307.693 318.5 318.061C309.51 328.267 298.34 331.1 285 326.561C276.99 323.385 272.16 317.551 270.5 309.061C266.2 292.463 270.7 279.13 284 269.061Z" fill="#040404"/>
<path fill-rule="evenodd" clip-rule="evenodd" d="M285 277.062C289.09 276.267 292.26 277.6 294.5 281.062C295.17 285.729 295.17 290.395 294.5 295.062C291.51 299.714 287.35 301.214 282 299.562C279.04 296.446 276.71 292.946 275 289.062C277.28 284.117 280.62 280.117 285 277.062Z" fill="#F3F3F3"/>
<path fill-rule="evenodd" clip-rule="evenodd" d="M204.001 279.062C212.611 278.437 220.941 279.604 229.001 282.562C232.561 284.772 234.391 287.939 234.501 292.062C240.511 297.419 243.181 304.086 242.501 312.062C240.161 319.756 236.331 326.59 231.001 332.562C210.461 346.048 195.291 341.548 185.501 319.062C184.591 316.818 184.091 314.485 184.001 312.062C184.511 309.376 184.681 306.709 184.501 304.062C181.701 307.861 178.541 311.361 175.001 314.562C172.541 316.193 170.041 316.359 167.501 315.062C166.831 311.729 166.831 308.395 167.501 305.062C176.621 292.089 188.791 283.422 204.001 279.062Z" fill="#050505"/>
<path fill-rule="evenodd" clip-rule="evenodd" d="M218 288.062C224.95 288.183 228.95 291.683 230 298.562C229.53 302.002 228.36 305.168 226.5 308.062C221.11 313.664 216.11 313.33 211.5 307.062C210.54 305.363 210.04 303.529 210 301.562C210.42 295.667 213.08 291.167 218 288.062Z" fill="#F5F5F5"/>
<path fill-rule="evenodd" clip-rule="evenodd" d="M133.001 358.062C133.391 363.066 133.891 368.066 134.501 373.062C138.171 376.062 141.831 379.062 145.501 382.062C148.071 387.246 146.571 390.579 141.001 392.062C138.061 390.955 135.231 389.622 132.501 388.062C127.951 388.596 124.451 390.762 122.001 394.562C115.501 395.395 112.671 392.562 113.501 386.062C115.251 381.982 117.421 378.149 120.001 374.562C118.321 363.805 117.651 352.972 118.001 342.062C118.491 325.457 122.491 309.624 130.001 294.562C135.181 291.988 138.521 293.488 140.001 299.062C138.321 304.788 136.491 310.454 134.501 316.062C130.651 330.006 130.151 344.006 133.001 358.062Z" fill="#060705"/>
<path fill-rule="evenodd" clip-rule="evenodd" d="M380 323.062C380.66 325.203 381 327.537 381 330.062C379.32 345.46 378.98 360.793 380 376.062C387.86 378.718 391.36 384.051 390.5 392.062C388.88 394.288 386.71 395.622 384 396.062C378.49 394.057 373.33 391.391 368.5 388.062C365.13 389.183 361.96 390.683 359 392.562C351.76 392.976 349.59 389.81 352.5 383.062C357 379.372 361.83 376.372 367 374.062C367 367.062 367 360.062 367 353.062C371.74 343.173 376.07 333.173 380 323.062Z" fill="#070706"/>
<path fill-rule="evenodd" clip-rule="evenodd" d="M275 334.061C279.03 333.139 281.36 334.639 282 338.561C280.24 343.577 277.57 348.077 274 352.061C270.39 353.154 266.73 353.321 263 352.561C259.04 351.182 255.21 349.682 251.5 348.061C250.51 342.059 253.01 339.893 259 341.561C262.56 343.488 266.23 343.988 270 343.061C271.93 340.195 273.6 337.195 275 334.061Z" fill="#0B0B0B"/>
<path fill-rule="evenodd" clip-rule="evenodd" d="M206 392.062C210.89 392.572 215.56 393.572 220 395.062C218.45 409.984 217.78 424.984 218 440.062C224.98 439.163 231.98 438.997 239 439.562C245.65 447.249 244.32 452.916 235 456.562C229.77 457.028 224.6 457.861 219.5 459.062C217.53 459.02 215.7 458.52 214 457.562C211.92 453.483 209.09 449.983 205.5 447.062C203.71 430.431 203.04 413.765 203.5 397.062C204.35 395.369 205.18 393.702 206 392.062Z" fill="#060606"/>
<path fill-rule="evenodd" clip-rule="evenodd" d="M297 393.062C299.55 409.482 300.55 426.149 300 443.062C305.46 442.665 310.79 443.165 316 444.562C318.91 447.936 318.57 450.936 315 453.562C305.83 455.955 296.5 456.621 287 455.562C283.96 453.877 282.79 451.377 283.5 448.062C285.34 445.54 286.51 442.707 287 439.562C284.55 424.843 282.88 410.01 282 395.062C286.96 394.136 291.96 393.47 297 393.062Z" fill="#070707"/>
</svg>
