<svg width="500" height="500" viewBox="0 0 500 500" fill="none" xmlns="http://www.w3.org/2000/svg">
<path fill-rule="evenodd" clip-rule="evenodd" d="M311 35.0616C313.69 34.9016 316.35 35.0616 319 35.5616C327.99 38.5516 334.49 44.3816 338.5 53.0616C339.62 56.5216 338.79 59.3516 336 61.5616C331.67 62.1416 327.33 62.6416 323 63.0616C321.27 79.0116 320.77 95.0116 321.5 111.062C340.91 116.142 356.91 126.482 369.5 142.062C373.03 148.652 375.36 155.652 376.5 163.062C378.86 176.012 380.86 189.012 382.5 202.062C383.83 220.212 382.83 238.212 379.5 256.062C375.7 268.942 372.36 281.942 369.5 295.062C359.5 307.732 349.5 320.392 339.5 333.062C325.86 345.702 312.53 358.702 299.5 372.062C306.6 380.202 312.26 389.542 316.5 400.062C317.22 407.112 314.39 412.272 308 415.562C302.01 417.182 296.01 417.512 290 416.562C291.49 419.862 292.16 423.362 292 427.062C291.16 436.432 289.99 445.772 288.5 455.062C286.01 458.552 283.18 461.722 280 464.562C278 465.232 276 465.232 274 464.562C267 457.232 261.17 449.062 256.5 440.062C252.71 446.812 248.54 453.312 244 459.562C240.24 462.432 236.24 462.762 232 460.562C226.92 456.222 224.08 450.722 223.5 444.062C223.26 435.632 224.1 427.302 226 419.062C214.77 421.982 204.61 419.982 195.5 413.062C193.6 409.422 193.6 405.762 195.5 402.062C199.18 393.072 203.68 384.572 209 376.562C198.3 368.202 187.3 360.202 176 352.562C162.51 341.072 149.68 328.902 137.5 316.062C134.75 310.242 131.75 304.572 128.5 299.062C123.03 281.172 120.03 262.842 119.5 244.062C118.66 240.352 117.66 236.682 116.5 233.062C117.08 220.752 117.75 208.412 118.5 196.062C125.52 178.642 133.85 161.972 143.5 146.062C154.61 133.082 168.11 123.422 184 117.062C184.72 109.692 185.72 102.352 187 95.0616C185.86 86.5716 184.2 78.2316 182 70.0616C174.09 72.5216 167.26 70.8516 161.5 65.0616C158.53 56.5016 161.03 50.0016 169 45.5616C172.28 44.8016 175.28 43.4716 178 41.5616C182.78 40.5316 187.11 41.5316 191 44.5616C194.43 47.6016 197.27 51.1016 199.5 55.0616C201.33 68.8716 203.16 82.7016 205 96.5616C204.33 100.062 204.16 103.562 204.5 107.062C224.54 95.1216 246.04 91.2816 269 95.5616C280.66 98.4616 292.32 101.292 304 104.062C303.15 91.7316 302.99 79.4016 303.5 67.0616C304.39 64.2816 305.56 61.6116 307 59.0616C301.39 53.4216 300.56 47.0816 304.5 40.0616C306.47 38.0116 308.63 36.3416 311 35.0616Z" fill="#8BC34A"/>
<path fill-rule="evenodd" clip-rule="evenodd" d="M297.999 131.062C308.239 128.602 315.739 131.942 320.499 141.062C321.169 151.392 321.169 161.732 320.499 172.062C319.619 178.322 316.789 183.492 311.999 187.562C306.179 190.312 300.509 193.312 294.999 196.562C288.419 198.102 281.749 198.442 274.999 197.562C268.809 187.262 266.639 176.102 268.499 164.062C273.959 149.112 283.789 138.112 297.999 131.062Z" fill="#020201"/>
<path fill-rule="evenodd" clip-rule="evenodd" d="M189 136.061C199.66 135.551 209.66 137.721 219 142.561C233.84 157.411 239.67 175.241 236.5 196.061C234.48 201.971 230.31 204.801 224 204.561C219.67 205.231 215.33 205.231 211 204.561C193.31 196.881 181.15 184.041 174.5 166.061C171.03 152.011 175.86 142.011 189 136.061Z" fill="#020301"/>
<path fill-rule="evenodd" clip-rule="evenodd" d="M307 149.062C313.33 148.232 316.16 150.892 315.5 157.062C311.03 163.382 306.03 163.722 300.5 158.062C299.07 152.342 301.24 149.342 307 149.062Z" fill="#F4F4F4"/>
<path fill-rule="evenodd" clip-rule="evenodd" d="M215 154.062C221.87 154.102 224.37 157.432 222.5 164.062C218.83 168.062 215.17 168.062 211.5 164.062C210.08 159.642 211.25 156.312 215 154.062Z" fill="#F7F7F7"/>
<path fill-rule="evenodd" clip-rule="evenodd" d="M342 265.062C335.4 262.092 329.07 258.592 323 254.562C314.62 252.772 306.29 250.772 298 248.562C284.17 246.372 274.67 251.872 269.5 265.062C262.1 294.972 273.6 309.132 304 307.562C308.63 304.652 312.8 301.152 316.5 297.062C319.03 291.142 321.36 285.142 323.5 279.062C323.75 274.942 323.91 270.942 324 267.062C329.81 271.082 336.15 272.422 343 271.062C342.96 277.182 342.13 283.182 340.5 289.062C336.04 301.152 329.21 311.652 320 320.562C302.04 333.202 282.04 340.202 260 341.562C245.66 341.812 231.33 341.472 217 340.562C197.04 338.342 182.87 328.182 174.5 310.062C170.76 302.442 168.6 294.442 168 286.062C169.7 286.222 171.37 286.052 173 285.562C176.8 282.762 180.3 279.602 183.5 276.062C181.34 292.952 187.84 305.122 203 312.562C220.74 314.162 232.91 306.662 239.5 290.062C242.22 281.202 240.22 273.542 233.5 267.062C233.4 261.282 230.56 257.452 225 255.562C213.52 251.902 202.18 252.242 191 256.562C186.12 258.832 181.45 261.332 177 264.062C179.67 258.872 183.34 254.372 188 250.562C194.76 246.132 201.76 242.132 209 238.562C229.4 233.592 250.06 230.092 271 228.062C281.98 229.352 292.98 230.522 304 231.562C315.98 235.642 326.48 242.142 335.5 251.062C338.48 255.362 340.65 260.022 342 265.062Z" fill="#FCFCFB"/>
<path fill-rule="evenodd" clip-rule="evenodd" d="M342 265.062C344.03 266.812 344.36 268.812 343 271.062C336.15 272.422 329.81 271.082 324 267.062C323.91 270.942 323.75 274.942 323.5 279.062C321.36 285.142 319.03 291.142 316.5 297.062C312.8 301.152 308.63 304.652 304 307.562C273.6 309.132 262.1 294.972 269.5 265.062C274.67 251.872 284.17 246.372 298 248.562C306.29 250.772 314.62 252.772 323 254.562C329.07 258.592 335.4 262.092 342 265.062Z" fill="#040404"/>
<path fill-rule="evenodd" clip-rule="evenodd" d="M168 286.061C166.72 284.871 166.06 283.201 166 281.061C167.57 274.131 171.24 268.461 177 264.061C181.45 261.331 186.12 258.831 191 256.561C202.18 252.241 213.52 251.901 225 255.561C230.56 257.451 233.4 261.281 233.5 267.061C240.22 273.541 242.22 281.201 239.5 290.061C232.91 306.661 220.74 314.161 203 312.561C187.84 305.121 181.34 292.951 183.5 276.061C180.3 279.601 176.8 282.761 173 285.561C171.37 286.051 169.7 286.221 168 286.061Z" fill="#040404"/>
<path fill-rule="evenodd" clip-rule="evenodd" d="M284 256.061C288.14 255.261 291.31 256.601 293.5 260.061C293.91 265.091 293.58 270.091 292.5 275.061C288.82 277.921 284.65 278.751 280 277.561C277.41 274.801 275.41 271.631 274 268.061C274.55 265.951 275.39 263.951 276.5 262.061C279.71 260.881 282.21 258.881 284 256.061Z" fill="#F6F6F6"/>
<path fill-rule="evenodd" clip-rule="evenodd" d="M218 262.062C224.43 262.652 228.09 266.152 229 272.562C228.45 279.932 224.62 284.432 217.5 286.062C212.26 284.312 209.42 280.642 209 275.062C209.8 269.102 212.8 264.772 218 262.062Z" fill="#F5F5F5"/>
<path fill-rule="evenodd" clip-rule="evenodd" d="M270.001 312.062C272.031 311.902 274.031 312.062 276.001 312.562C277.071 313.302 277.741 314.302 278.001 315.562C275.891 321.132 272.551 325.792 268.001 329.562C265.001 330.232 262.001 330.232 259.001 329.562C255.881 327.672 252.551 326.332 249.001 325.562C244.581 321.392 245.251 318.562 251.001 317.062C255.611 318.772 260.281 319.942 265.001 320.562C267.071 317.922 268.731 315.082 270.001 312.062Z" fill="#0C0C0C"/>
</svg>
