<svg width="500" height="500" viewBox="0 0 500 500" fill="none" xmlns="http://www.w3.org/2000/svg">
<path fill-rule="evenodd" clip-rule="evenodd" d="M347.999 372.062C346.809 357.992 342.809 344.652 335.999 332.062C341.069 328.492 345.739 324.332 349.999 319.562C360.719 310.872 373.049 307.042 386.999 308.062C389.669 308.232 392.329 308.392 394.999 308.562C396.869 310.162 398.869 311.162 400.999 311.562C409.839 303.062 418.339 294.222 426.499 285.062C431.149 278.792 433.479 271.792 433.499 264.062C428.979 255.522 424.649 246.852 420.499 238.062C407.399 219.542 396.059 199.872 386.499 179.062C382.889 173.122 378.889 167.452 374.499 162.062C372.309 164.742 369.469 166.242 365.999 166.562C360.539 167.412 355.199 166.912 349.999 165.062C331.929 171.812 324.759 165.812 328.499 147.062C330.799 143.762 333.459 140.762 336.499 138.062C339.139 129.762 343.979 123.092 350.999 118.062C339.319 97.8815 322.979 82.7115 301.999 72.5615C298.999 72.2315 295.999 71.8915 292.999 71.5615C290.529 69.0715 288.199 66.5715 285.999 64.0615C282.369 65.2715 278.709 66.2715 274.999 67.0615C273.729 72.9415 270.889 77.9415 266.499 82.0615C257.619 88.4415 247.619 91.4415 236.499 91.0615C230.619 90.2015 224.779 89.3715 218.999 88.5615C209.019 92.8815 199.359 97.7115 189.999 103.062C195.829 113.022 200.989 123.352 205.499 134.062C212.239 159.272 221.899 183.272 234.499 206.062C236.779 211.402 238.939 216.732 240.999 222.062C250.159 212.842 261.159 209.342 273.999 211.562C282.409 215.912 285.249 222.742 282.499 232.062C278.499 240.742 273.999 249.072 268.999 257.062C267.209 255.682 265.209 254.682 262.999 254.062C260.459 248.162 256.789 242.992 251.999 238.562C242.229 231.352 231.899 225.182 220.999 220.062C214.919 208.242 209.089 196.242 203.499 184.062C198.499 169.062 193.499 154.062 188.499 139.062C183.809 128.802 178.639 118.802 172.999 109.062C167.169 118.732 161.329 128.392 155.499 138.062C156.439 147.712 157.609 157.372 158.999 167.062C157.069 188.812 145.069 199.652 122.999 199.562C120.479 201.062 117.979 202.562 115.499 204.062C112.169 210.062 108.829 216.062 105.499 222.062C101.969 232.862 98.1393 243.522 93.9993 254.062C85.7993 267.342 83.6293 281.672 87.4993 297.062C88.5593 303.442 91.0593 309.102 94.9993 314.062C93.9093 316.992 91.9093 319.152 88.9993 320.562C83.5093 323.552 77.8493 326.052 71.9993 328.062C73.5993 325.242 74.0993 322.242 73.4993 319.062C71.2193 316.582 68.7193 316.412 65.9993 318.562C59.7593 324.562 55.7593 331.722 53.9993 340.062C48.7393 330.682 47.2393 320.682 49.4993 310.062C52.6693 305.722 55.3393 301.052 57.4993 296.062C61.2593 285.782 65.5893 275.782 70.4993 266.062C76.0593 243.612 85.3893 222.952 98.4993 204.062C103.899 191.512 110.229 179.512 117.499 168.062C122.789 153.792 130.119 140.792 139.499 129.062C145.129 115.962 152.629 104.132 161.999 93.5615C174.049 87.6515 186.389 82.3215 198.999 77.5615C220.329 72.2315 241.659 66.8915 262.999 61.5615C272.669 57.3915 282.329 53.2315 291.999 49.0615C301.769 52.2615 311.439 55.7615 320.999 59.5615C349.119 81.0115 369.619 108.172 382.499 141.062C396.229 159.802 407.889 179.802 417.499 201.062C430.889 219.832 442.219 239.832 451.499 261.062C452.079 269.022 450.739 276.682 447.499 284.062C443.949 290.942 439.609 297.282 434.499 303.062C424.639 313.922 414.479 324.422 403.999 334.562C396.999 339.402 389.659 343.732 381.999 347.562C378.969 350.932 375.629 353.932 371.999 356.562C363.769 361.502 355.769 366.672 347.999 372.062Z" fill="#FEC10B"/>
<path fill-rule="evenodd" clip-rule="evenodd" d="M336 332.062C330.82 324.042 326.99 315.372 324.5 306.062C322.33 303.892 320.17 301.732 318 299.562C312 298.572 309.83 301.072 311.5 307.062C313.23 310.852 315.23 314.522 317.5 318.062C320.81 330.302 323.64 342.632 326 355.062C325.59 358.112 324.92 361.112 324 364.062C310 365.232 296 366.062 282 366.562C286.53 364.882 291.03 363.052 295.5 361.062C303.67 339.572 298.5 322.072 280 308.562C277.43 300.192 273.43 292.692 268 286.062C268.3 278.282 267.64 270.622 266 263.062C268.47 261.952 269.47 259.952 269 257.062C274 249.072 278.5 240.742 282.5 232.062C285.25 222.742 282.41 215.912 274 211.562C261.16 209.342 250.16 212.842 241 222.062C238.94 216.732 236.78 211.402 234.5 206.062C221.9 183.272 212.24 159.272 205.5 134.062C200.99 123.352 195.83 113.022 190 103.062C199.36 97.7115 209.02 92.8815 219 88.5615C224.78 89.3715 230.62 90.2015 236.5 91.0615C247.62 91.4415 257.62 88.4415 266.5 82.0615C270.89 77.9415 273.73 72.9415 275 67.0615C278.71 66.2715 282.37 65.2715 286 64.0615C288.2 66.5715 290.53 69.0715 293 71.5615C296 71.8915 299 72.2315 302 72.5615C322.98 82.7115 339.32 97.8815 351 118.062C343.98 123.092 339.14 129.762 336.5 138.062C333.46 140.762 330.8 143.762 328.5 147.062C324.76 165.812 331.93 171.812 350 165.062C355.2 166.912 360.54 167.412 366 166.562C369.47 166.242 372.31 164.742 374.5 162.062C378.89 167.452 382.89 173.122 386.5 179.062C396.06 199.872 407.4 219.542 420.5 238.062C424.65 246.852 428.98 255.522 433.5 264.062C433.48 271.792 431.15 278.792 426.5 285.062C418.34 294.222 409.84 303.062 401 311.562C398.87 311.162 396.87 310.162 395 308.562C392.33 308.392 389.67 308.232 387 308.062C373.05 307.042 360.72 310.872 350 319.562C345.74 324.332 341.07 328.492 336 332.062Z" fill="#FEEA3A"/>
<path fill-rule="evenodd" clip-rule="evenodd" d="M221 220.062C194.28 208.312 168.28 209.812 143 224.562C131.87 225.272 121.87 228.932 113 235.562C106.85 241.872 100.52 248.042 94 254.062C98.14 243.522 101.97 232.862 105.5 222.062C108.83 216.062 112.17 210.062 115.5 204.062C117.98 202.562 120.48 201.062 123 199.562C145.07 199.652 157.07 188.812 159 167.062C157.61 157.372 156.44 147.712 155.5 138.062C161.33 128.392 167.17 118.732 173 109.062C178.64 118.802 183.81 128.802 188.5 139.062C193.5 154.062 198.5 169.062 203.5 184.062C209.09 196.242 214.92 208.242 221 220.062Z" fill="#FFEA3B"/>
<path fill-rule="evenodd" clip-rule="evenodd" d="M258 114.062C267.98 114.722 277.31 117.562 286 122.562C290.7 127.482 292.2 133.322 290.5 140.062C288.82 150.752 282.98 158.252 273 162.562C268.22 163.592 263.89 162.592 260 159.562C251.19 160.012 242.86 158.342 235 154.562C230.13 149.852 228.96 144.352 231.5 138.062C234.83 133.392 238.17 128.732 241.5 124.062C247.45 121.342 252.95 118.012 258 114.062Z" fill="#FFC107"/>
<path fill-rule="evenodd" clip-rule="evenodd" d="M221.001 220.061C231.901 225.181 242.231 231.351 252.001 238.561C256.791 242.991 260.461 248.161 263.001 254.061C256.721 250.421 250.061 247.591 243.001 245.561C237.261 244.981 231.591 243.981 226.001 242.561C208.531 238.371 197.361 244.871 192.501 262.061C190.521 273.811 192.521 284.811 198.501 295.061C200.911 297.521 203.741 299.351 207.001 300.561C214.961 301.931 222.961 302.601 231.001 302.561C235.741 298.951 239.901 294.781 243.501 290.061C246.381 282.591 248.541 274.931 250.001 267.061C249.491 264.681 248.821 262.341 248.001 260.061C248.331 259.731 248.671 259.391 249.001 259.061C254.141 262.541 259.811 263.881 266.001 263.061C267.641 270.621 268.301 278.281 268.001 286.061C265.911 309.801 253.571 325.141 231.001 332.061C217.141 335.691 203.141 338.691 189.001 341.061C179.461 338.901 169.791 337.571 160.001 337.061C159.181 334.251 158.681 331.251 158.501 328.061C154.041 324.141 149.701 324.471 145.501 329.061C144.801 331.561 143.971 333.901 143.001 336.061C127.901 335.041 114.231 330.211 102.001 321.561C99.4307 319.161 97.1007 316.661 95.0007 314.061C91.0607 309.101 88.5607 303.441 87.5007 297.061C83.6307 281.671 85.8007 267.341 94.0007 254.061C100.521 248.041 106.851 241.871 113.001 235.561C121.871 228.931 131.871 225.271 143.001 224.561C168.281 209.811 194.281 208.311 221.001 220.061Z" fill="#FDFCFB"/>
<path fill-rule="evenodd" clip-rule="evenodd" d="M390 223.062C400.75 220.472 408.92 223.802 414.5 233.062C415.17 235.732 415.17 238.392 414.5 241.062C411.17 248.392 407.83 255.732 404.5 263.062C394.86 273.492 383.36 276.662 370 272.562C362.71 262.132 362.21 251.302 368.5 240.062C373.25 231.132 380.41 225.462 390 223.062Z" fill="#FFC107"/>
<path fill-rule="evenodd" clip-rule="evenodd" d="M263 254.062C265.21 254.682 267.21 255.682 269 257.062C269.47 259.952 268.47 261.952 266 263.062C259.81 263.882 254.14 262.542 249 259.062C248.67 259.392 248.33 259.732 248 260.062C248.82 262.342 249.49 264.682 250 267.062C248.54 274.932 246.38 282.592 243.5 290.062C239.9 294.782 235.74 298.952 231 302.562C222.96 302.602 214.96 301.932 207 300.562C203.74 299.352 200.91 297.522 198.5 295.062C192.52 284.812 190.52 273.812 192.5 262.062C197.36 244.872 208.53 238.372 226 242.562C231.59 243.982 237.26 244.982 243 245.562C250.06 247.592 256.72 250.422 263 254.062Z" fill="#040404"/>
<path fill-rule="evenodd" clip-rule="evenodd" d="M209 250.062C212.53 249.912 215.36 251.242 217.5 254.062C218.17 259.062 218.17 264.062 217.5 269.062C213.84 272.932 209.34 274.092 204 272.562C201.37 269.772 199.37 266.602 198 263.062C198.4 261.362 198.9 259.702 199.5 258.062C202.86 255.532 206.02 252.862 209 250.062Z" fill="#F5F5F5"/>
<path fill-rule="evenodd" clip-rule="evenodd" d="M124 253.062C132.85 252.432 141.51 253.272 150 255.562C154.02 257.432 156.19 260.592 156.5 265.062C159.22 268.122 161.56 271.452 163.5 275.062C164.93 278.972 165.27 282.972 164.5 287.062C159.27 306.312 146.77 315.482 127 314.562C112.46 307.342 105.13 295.512 105 279.062C101.85 282.712 98.52 286.212 95 289.562C92.73 290.322 90.56 290.152 88.5 289.062C86.97 282.452 88.64 276.782 93.5 272.062C102.25 263.282 112.41 256.952 124 253.062Z" fill="#040404"/>
<path fill-rule="evenodd" clip-rule="evenodd" d="M139.001 262.062C147.061 260.962 151.401 264.462 152.001 272.562C151.531 276.002 150.361 279.172 148.501 282.062C143.111 287.662 138.111 287.332 133.501 281.062C131.251 273.562 133.081 267.222 139.001 262.062Z" fill="#F7F7F7"/>
<path fill-rule="evenodd" clip-rule="evenodd" d="M268 286.062C273.43 292.692 277.43 300.192 280 308.562C298.5 322.072 303.67 339.572 295.5 361.062C291.03 363.052 286.53 364.882 282 366.562C296 366.062 310 365.232 324 364.062C324.92 361.112 325.59 358.112 326 355.062C329.44 361.702 332.11 368.702 334 376.062C332.26 378.962 329.93 381.462 327 383.562C319.73 384.742 312.4 385.412 305 385.562C298.57 387.252 292.24 388.752 286 390.062C281.24 389.792 276.57 390.122 272 391.062C250.33 392.622 228.66 394.282 207 396.062C202.33 395.732 197.67 395.392 193 395.062C179.22 394.402 166.22 390.902 154 384.562C142.15 381.522 130.48 378.022 119 374.062C126.5 369.812 134.17 365.812 142 362.062C152.55 364.972 162.88 368.802 173 373.562C194.19 378.692 215.52 379.362 237 375.562C248.31 374.592 259.65 373.922 271 373.562C252.3 372.332 239.47 362.172 232.5 343.062C231.39 339.472 230.89 335.812 231 332.062C253.57 325.142 265.91 309.802 268 286.062Z" fill="#FEC109"/>
<path fill-rule="evenodd" clip-rule="evenodd" d="M336 332.062C342.81 344.652 346.81 357.992 348 372.062C347.83 377.072 348 382.072 348.5 387.062C351.79 388.802 355.29 390.302 359 391.562C362.53 394.952 362.87 398.622 360 402.562C354.62 402.872 349.28 403.532 344 404.562C340.3 406.412 336.63 408.242 333 410.062C331.47 410.032 330.3 409.362 329.5 408.062C328.83 404.732 328.83 401.392 329.5 398.062C332.6 395.132 335.43 392.132 338 389.062C336.91 384.532 335.57 380.192 334 376.062C332.11 368.702 329.44 361.702 326 355.062C323.64 342.632 320.81 330.302 317.5 318.062C315.23 314.522 313.23 310.852 311.5 307.062C309.83 301.072 312 298.572 318 299.562C320.17 301.732 322.33 303.892 324.5 306.062C326.99 315.372 330.82 324.042 336 332.062Z" fill="#060503"/>
<path fill-rule="evenodd" clip-rule="evenodd" d="M199.001 308.061C202.381 307.901 204.381 309.401 205.001 312.561C203.531 318.491 200.531 323.491 196.001 327.561C192.671 328.231 189.331 328.231 186.001 327.561C182.851 325.961 179.521 324.961 176.001 324.561C172.571 322.191 172.231 319.531 175.001 316.561C180.821 316.321 186.491 316.991 192.001 318.561C194.221 314.951 196.551 311.451 199.001 308.061Z" fill="#0C0C0C"/>
<path fill-rule="evenodd" clip-rule="evenodd" d="M95 314.062C97.1 316.662 99.43 319.162 102 321.562C114.23 330.212 127.9 335.042 143 336.062C143.35 340.122 144.01 344.122 145 348.062C136.4 350.712 127.74 353.042 119 355.062C104.95 348.992 90.95 342.822 77 336.562C74.8 334.862 72.8 333.032 71 331.062C71.06 329.952 71.39 328.952 72 328.062C77.85 326.052 83.51 323.552 89 320.562C91.91 319.152 93.91 316.992 95 314.062Z" fill="#FEEA3B"/>
<path fill-rule="evenodd" clip-rule="evenodd" d="M72 328.062C71.39 328.952 71.06 329.952 71 331.062C69.47 334.262 68.8 337.762 69 341.562C68.52 345.952 69.52 349.792 72 353.062C74.78 359.482 79.78 362.812 87 363.062C92.66 362.362 98.33 361.532 104 360.562C109.05 358.562 114.05 356.732 119 355.062C127.74 353.042 136.4 350.712 145 348.062C144.01 344.122 143.35 340.122 143 336.062C143.97 333.902 144.8 331.562 145.5 329.062C149.7 324.472 154.04 324.142 158.5 328.062C158.68 331.252 159.18 334.252 160 337.062C159.86 338.682 160.53 339.852 162 340.562C165.33 340.892 168.67 341.232 172 341.562C178.38 348.652 176.72 352.652 167 353.562C162 354.982 157 355.152 152 354.062C148.6 356.752 145.26 359.412 142 362.062C134.17 365.812 126.5 369.812 119 374.062C101.8 379.832 84.8 379.332 68 372.562C63.45 369.682 59.95 365.842 57.5 361.062C55.25 354.242 54.09 347.242 54 340.062C55.76 331.722 59.76 324.562 66 318.562C68.72 316.412 71.22 316.582 73.5 319.062C74.1 322.242 73.6 325.242 72 328.062Z" fill="#060503"/>
<path fill-rule="evenodd" clip-rule="evenodd" d="M231 332.062C230.89 335.812 231.39 339.472 232.5 343.062C239.47 362.172 252.3 372.332 271 373.562C259.65 373.922 248.31 374.592 237 375.562C215.52 379.362 194.19 378.692 173 373.562C162.88 368.802 152.55 364.972 142 362.062C145.26 359.412 148.6 356.752 152 354.062C157 355.152 162 354.982 167 353.562C176.72 352.652 178.38 348.652 172 341.562C168.67 341.232 165.33 340.892 162 340.562C160.53 339.852 159.86 338.682 160 337.062C169.79 337.572 179.46 338.902 189 341.062C203.14 338.692 217.14 335.692 231 332.062Z" fill="#FDE93B"/>
<path fill-rule="evenodd" clip-rule="evenodd" d="M70.9996 331.062C72.7996 333.032 74.7996 334.862 76.9996 336.562C90.9496 342.822 104.95 348.992 119 355.062C114.05 356.732 109.05 358.562 104 360.562C98.3296 361.532 92.6596 362.362 86.9996 363.062C82.1796 359.482 77.1796 356.152 71.9996 353.062C69.5196 349.792 68.5196 345.952 68.9996 341.562C68.7996 337.762 69.4696 334.262 70.9996 331.062Z" fill="#FBC00C"/>
<path fill-rule="evenodd" clip-rule="evenodd" d="M72 353.062C77.18 356.152 82.18 359.482 87 363.062C79.78 362.812 74.78 359.482 72 353.062Z" fill="#F2F1EA"/>
<path fill-rule="evenodd" clip-rule="evenodd" d="M286 390.062C285.88 403.462 286.55 416.792 288 430.062C294.67 429.562 301.34 429.392 308 429.562C316.44 433.092 317.11 437.762 310 443.562C302.02 446.952 293.69 447.952 285 446.562C282.49 446.472 280.33 445.632 278.5 444.062C274.77 426.592 272.61 408.922 272 391.062C276.57 390.122 281.24 389.792 286 390.062Z" fill="#080807"/>
<path fill-rule="evenodd" clip-rule="evenodd" d="M193 395.062C197.67 395.392 202.33 395.732 207 396.062C210.93 408.452 213.6 421.112 215 434.062C215.4 440.832 212.4 445.332 206 447.562C198.24 450.602 190.24 451.932 182 451.562C175.72 448.752 173.22 443.922 174.5 437.062C176.54 434.962 179.04 433.792 182 433.562C186.96 432.652 191.96 432.152 197 432.062C195.59 419.762 194.25 407.432 193 395.062Z" fill="#050404"/>
</svg>
