<svg width="500" height="500" viewBox="0 0 500 500" fill="none" xmlns="http://www.w3.org/2000/svg">
<path fill-rule="evenodd" clip-rule="evenodd" d="M111 82.0617C116.48 81.1617 121.15 82.6617 125 86.5617C131.48 86.3817 136.82 88.7217 141 93.5617C153.73 96.2417 165.4 101.242 176 108.562C180.67 112.892 185.33 117.232 190 121.562C209.33 121.892 228.67 122.232 248 122.562C256.5 123.902 264.67 126.402 272.5 130.062C284.72 120.362 298.22 112.862 313 107.562C325.16 104.412 337.49 103.412 350 104.562C358.53 110.112 363.7 117.942 365.5 128.062C366.17 141.392 366.17 154.732 365.5 168.062C365.36 179.852 364.2 191.522 362 203.062C363.78 206.952 365.28 210.952 366.5 215.062C369.12 230.682 371.46 246.352 373.5 262.062C374.17 271.062 374.17 280.062 373.5 289.062C370.57 299.172 367.24 309.172 363.5 319.062C362.83 320.392 362.83 321.732 363.5 323.062C376.25 332.322 389.75 333.482 404 326.562C401.61 308.332 408.61 295.332 425 287.562C437.18 286.582 444.18 292.082 446 304.062C432.69 356.552 400.36 373.552 349 355.062C332.58 380.952 309.58 398.112 280 406.562C260.44 410.432 240.77 413.772 221 416.562C204.28 418.382 187.95 416.712 172 411.562C126.78 406.862 93.6098 384.362 72.4998 344.062C69.6398 336.002 65.9698 328.332 61.4998 321.062C53.7898 302.932 52.1198 284.262 56.4998 265.062C59.7098 253.782 62.7098 242.452 65.4998 231.062C70.3398 218.722 75.1698 206.392 79.9998 194.062C77.8498 189.762 75.6798 185.432 73.4998 181.062C70.1198 162.432 71.4498 144.092 77.4998 126.062C81.9198 114.892 86.5898 103.892 91.4998 93.0617C94.8498 88.6017 99.3498 86.4417 105 86.5617C106.64 84.4017 108.64 82.9017 111 82.0617Z" fill="#8FE3FE"/>
<path fill-rule="evenodd" clip-rule="evenodd" d="M109 129.061C116.46 128.791 123.79 129.631 131 131.561C163.21 140.941 195.87 148.441 229 154.061C232.42 153.191 235.75 152.021 239 150.561C249.84 150.121 260.67 149.621 271.5 149.061C294.99 149.791 318.49 150.291 342 150.561C344.52 152.431 345.85 154.931 346 158.061C344.39 163.491 342.55 168.831 340.5 174.061C335.92 179.311 330.76 183.811 325 187.561C320.3 191.931 315.97 196.591 312 201.561C308 203.891 304 206.231 300 208.561C296.7 212.541 293.36 216.541 290 220.561C287.33 221.231 284.67 221.231 282 220.561C263.54 205.501 244.54 191.161 225 177.561C223.15 175.881 221.48 174.041 220 172.061C201.81 182.061 183.48 191.891 165 201.561C159.5 199.651 153.84 198.651 148 198.561C144.01 196.571 141.51 193.401 140.5 189.061C126.56 175.141 114.56 159.811 104.5 143.061C102.81 137.171 104.31 132.501 109 129.061Z" fill="#113C8E"/>
<path fill-rule="evenodd" clip-rule="evenodd" d="M191 213.062C202.28 213.342 213.28 215.182 224 218.562C237.4 218.192 250.4 220.192 263 224.562C285.09 231.852 303.25 244.692 317.5 263.062C326.31 274.312 329.47 286.982 327 301.062C334.5 326.562 328.5 348.402 309 366.562C278.35 385.752 245.35 391.082 210 382.562C206.67 381.232 203.33 379.892 200 378.562C173.26 380.492 148.26 374.832 125 361.562C121.17 358.392 117.33 355.232 113.5 352.062C105.93 339.252 98.5904 326.252 91.5004 313.062C86.6004 296.162 88.6004 280.162 97.5004 265.062C105.89 251.342 116.39 239.512 129 229.562C137.17 224.812 145.84 221.142 155 218.562C167.12 216.592 179.12 214.762 191 213.062Z" fill="#FDFDFD"/>
<path fill-rule="evenodd" clip-rule="evenodd" d="M141 251.062C153.66 251.062 165.66 253.892 177 259.562C182.57 263.192 185.07 268.362 184.5 275.062C190.77 283.212 192.44 292.212 189.5 302.062C185.44 307.122 181.78 312.452 178.5 318.062C164.33 331.042 148.5 333.542 131 325.562C128.18 321.782 125.02 318.282 121.5 315.062C116.63 304.822 114.96 294.152 116.5 283.062C118.04 281.082 118.54 279.082 118 277.062C113.35 281.052 108.35 284.552 103 287.562C93.1001 289.302 90.2701 285.472 94.5001 276.062C101.68 266.722 110.85 260.222 122 256.562C128.42 254.582 134.75 252.752 141 251.062Z" fill="#040404"/>
<path fill-rule="evenodd" clip-rule="evenodd" d="M249 261.062C256.82 260.592 264.49 261.432 272 263.562C281.36 267.252 290.7 270.912 300 274.562C307.67 280.232 315.33 285.892 323 291.562C327 294.892 327 298.232 323 301.562C314.62 301.032 307.29 297.872 301 292.062C298.86 307.512 292.53 321.012 282 332.562C276.5 335.142 271.17 337.972 266 341.062C252.42 340.022 240.59 335.022 230.5 326.062C221.45 304.932 224.28 285.602 239 268.062C242.75 266.202 246.08 263.862 249 261.062Z" fill="#040404"/>
<path fill-rule="evenodd" clip-rule="evenodd" d="M164 266.062C174.05 267.292 178.21 272.952 176.5 283.062C174.1 290.942 168.93 295.612 161 297.062C152.58 293.562 149.41 287.222 151.5 278.062C153.9 276.252 155.57 273.922 156.5 271.062C158.67 268.742 161.17 267.072 164 266.062Z" fill="#F6F6F6"/>
<path fill-rule="evenodd" clip-rule="evenodd" d="M250 271.061C257.95 270.031 262.28 273.361 263 281.061C261.18 285.461 260.01 290.121 259.5 295.061C254.32 301.011 248.48 301.671 242 297.061C241.14 294.031 239.64 291.371 237.5 289.061C236.68 285.601 237.02 282.261 238.5 279.061C242 275.751 245.84 273.091 250 271.061Z" fill="#F5F5F5"/>
<path fill-rule="evenodd" clip-rule="evenodd" d="M224 340.062C229.83 339.722 232.33 342.382 231.5 348.062C228 354.232 223.17 359.062 217 362.562C214.67 363.232 212.33 363.232 210 362.562C203.45 358.652 196.95 354.822 190.5 351.062C190.56 343.072 194.39 340.902 202 344.562C205.48 347.382 209.31 349.552 213.5 351.062C217.14 347.592 220.64 343.922 224 340.062Z" fill="#0B0B0B"/>
</svg>
