<svg width="500" height="500" viewBox="0 0 500 500" fill="none" xmlns="http://www.w3.org/2000/svg">
<path fill-rule="evenodd" clip-rule="evenodd" d="M346 87.0618C339.75 85.6418 333.42 84.6418 327 84.0618C321.23 84.6718 317.4 87.6718 315.5 93.0618C310.7 97.6818 305.7 102.022 300.5 106.062C298.37 109.582 298.54 112.922 301 116.062C282.37 115.222 263.7 115.392 245 116.562C219.08 120.602 197.91 132.772 181.5 153.062C177.6 158.192 174.77 163.862 173 170.062C164.34 174.962 157.17 181.632 151.5 190.062C148.31 201.712 152.14 205.382 163 201.062C161.76 218.112 165.26 234.112 173.5 249.062C182.18 264.412 193.68 277.242 208 287.562C215.88 289.632 223.55 292.302 231 295.562C242.96 297.092 254.96 297.432 267 296.562C286.62 293.972 306.29 291.642 326 289.562C335.47 287.072 344.47 283.402 353 278.562C357.2 274.692 361.03 270.532 364.5 266.062C371.8 252.782 377.47 238.782 381.5 224.062C382.28 214.352 382.11 204.682 381 195.062C385.66 195.902 390.33 196.402 395 196.562C398.87 193.142 398.87 189.812 395 186.562C388.06 183.602 382.06 179.442 377 174.062C370.71 154.602 358.04 141.102 339 133.562C331.88 126.342 323.54 121.172 314 118.062C324.53 113.132 334.86 107.632 345 101.562C348.19 97.4518 348.86 92.9518 347 88.0618C355.77 91.1918 364.1 95.3518 372 100.562C376.93 105.612 381.76 110.782 386.5 116.062C388.27 119.872 389.11 123.872 389 128.062C402.55 128.582 412.72 134.582 419.5 146.062C421.01 151.312 421.34 156.642 420.5 162.062C416.61 171.512 412.44 180.842 408 190.062C414.85 198.092 419.85 207.092 423 217.062C416.32 222.742 410.32 229.082 405 236.062C405.93 238.172 407.1 240.172 408.5 242.062C411.34 243.242 414.17 243.072 417 241.562C419.16 240.232 421.16 238.732 423 237.062C421.14 255.632 412.14 269.472 396 278.562C398.98 286.412 398.15 293.912 393.5 301.062C381.64 319.242 365.14 330.912 344 336.062C340.22 347.302 332.56 354.462 321 357.562C306.08 362.252 291.25 362.092 276.5 357.062C273.29 359.932 269.79 362.432 266 364.562C262.92 365.572 259.76 366.072 256.5 366.062C248.65 364.392 240.82 362.562 233 360.562C226.39 358.272 220.56 354.772 215.5 350.062C203.12 357.272 189.95 359.442 176 356.562C173.35 355.262 170.69 353.932 168 352.562C142.45 353.342 129.61 340.842 129.5 315.062C128.25 314.352 127.08 313.522 126 312.562C109.48 310.062 96.65 301.892 87.5 288.062C82.49 276.312 82.99 264.812 89 253.562C80.64 240.662 75.98 226.492 75 211.062C85.94 225.052 99.94 234.882 117 240.562C122.59 242.472 124.76 240.642 123.5 235.062C103.32 221.222 87.82 203.392 77 181.562C77.94 178.842 78.28 176.012 78 173.062C84.13 160.102 93.96 151.102 107.5 146.062C109.14 127.262 117.97 113.092 134 103.562C142.73 92.3718 153.73 84.3718 167 79.5618C172.25 78.1918 177.58 77.3518 183 77.0618C188.03 77.7418 193.03 78.2418 198 78.5618C199.71 76.5218 201.71 74.8518 204 73.5618C213.41 68.7718 223.24 65.2718 233.5 63.0618C237.84 63.3518 242 64.3518 246 66.0618C262.94 55.4218 280.61 54.2518 299 62.5618C309.45 67.6718 318.78 74.3418 327 82.5618C331.64 82.2718 336.31 82.2718 341 82.5618C343.16 83.5618 344.83 85.0618 346 87.0618Z" fill="#9E9E9E"/>
<path fill-rule="evenodd" clip-rule="evenodd" d="M213 76.0616C216.02 75.9016 219.02 76.0616 222 76.5616C230.53 81.9916 239.53 86.6616 249 90.5616C255.81 96.2716 257.64 103.102 254.5 111.062C250.91 113.022 247.07 113.522 243 112.562C231.77 109.042 221.1 104.382 211 98.5616C205.82 94.7316 204.32 89.9016 206.5 84.0616C208.46 81.1016 210.62 78.4316 213 76.0616Z" fill="#7B7B7B"/>
<path fill-rule="evenodd" clip-rule="evenodd" d="M76 164.062C75.14 162.172 74.14 160.342 73 158.562C71.24 157.762 69.57 157.932 68 159.062C66.58 164.282 65.74 169.622 65.5 175.062C63.75 176.912 62.25 178.912 61 181.062C58.66 182.562 56.83 184.562 55.5 187.062C49.83 197.062 44.17 207.062 38.5 217.062C34.78 219.962 30.62 221.462 26 221.562C24.32 219.392 23.32 216.892 23 214.062C24.27 211.192 25.11 208.192 25.5 205.062C27.74 202.912 29.74 200.582 31.5 198.062C35.38 190.302 39.21 182.632 43 175.062C50.18 177.112 55.01 174.452 57.5 167.062C58.76 162.652 57.93 158.822 55 155.562C53.71 155.072 52.37 154.902 51 155.062C51.53 153.842 52.19 152.672 53 151.562C52.67 151.392 52.33 151.232 52 151.062C47.8 151.712 43.64 152.042 39.5 152.062C35.69 152.092 33.86 150.262 34 146.562C34.13 144.312 34.63 142.142 35.5 140.062C40.59 132.222 45.92 124.552 51.5 117.062C61.39 109.842 69.89 101.342 77 91.5616C82.72 86.8416 88.72 82.5116 95 78.5616C98.98 77.1416 101.65 78.3116 103 82.0616C98.05 95.4016 92.22 108.402 85.5 121.062C84.52 123.302 84.02 125.632 84 128.062C88.38 128.572 92.72 129.402 97 130.562C101.04 132.892 101.87 136.062 99.5 140.062C91.44 147.962 83.6 155.962 76 164.062Z" fill="#FEEA3D"/>
<path fill-rule="evenodd" clip-rule="evenodd" d="M346 87.0615C346.67 87.0615 347 87.3915 347 88.0615C348.86 92.9515 348.19 97.4515 345 101.562C334.86 107.632 324.53 113.132 314 118.062C309.71 117.142 305.38 116.472 301 116.062C298.54 112.922 298.37 109.582 300.5 106.062C305.7 102.022 310.7 97.6815 315.5 93.0615C317.4 87.6715 321.23 84.6715 327 84.0615C333.42 84.6415 339.75 85.6415 346 87.0615Z" fill="#7B7B7B"/>
<path fill-rule="evenodd" clip-rule="evenodd" d="M301 116.062C305.38 116.472 309.71 117.142 314 118.062C323.54 121.172 331.88 126.342 339 133.562C358.04 141.102 370.71 154.602 377 174.062C374.69 172.912 372.36 171.742 370 170.562C358.91 167.512 347.91 164.182 337 160.562C330.03 159.312 323.03 158.972 316 159.562C311.59 162.852 307.09 166.022 302.5 169.062C289.61 189.152 288.61 209.812 299.5 231.062C305.97 236.672 313.47 240.172 322 241.562C328.1 241.992 334.1 242.662 340 243.562C346.1 239.422 351.94 234.922 357.5 230.062C362.66 220.752 366.99 211.082 370.5 201.062C370.23 196.692 370.4 192.362 371 188.062C374.37 190.452 377.71 192.782 381 195.062C382.11 204.682 382.28 214.352 381.5 224.062C377.47 238.782 371.8 252.782 364.5 266.062C361.03 270.532 357.2 274.692 353 278.562C344.47 283.402 335.47 287.072 326 289.562C306.29 291.642 286.62 293.972 267 296.562C254.96 297.432 242.96 297.092 231 295.562C223.55 292.302 215.88 289.632 208 287.562C193.68 277.242 182.18 264.412 173.5 249.062C165.26 234.112 161.76 218.112 163 201.062C167.29 197.112 171.62 193.112 176 189.062C176.52 192.072 176.02 195.072 174.5 198.062C174.83 209.412 177.83 220.072 183.5 230.062C188.52 235.422 194.35 239.592 201 242.562C217.28 245.472 231.11 240.972 242.5 229.062C245.93 222.532 249.59 216.202 253.5 210.062C255.41 204.742 255.41 199.402 253.5 194.062C251.44 189.602 249.1 185.272 246.5 181.062C245.84 172.392 241.34 166.552 233 163.562C218.73 158.292 204.4 157.952 190 162.562C184.15 164.782 178.48 167.282 173 170.062C174.77 163.862 177.6 158.192 181.5 153.062C197.91 132.772 219.08 120.602 245 116.562C263.7 115.392 282.37 115.222 301 116.062Z" fill="#FDFDFD"/>
<path fill-rule="evenodd" clip-rule="evenodd" d="M50.9995 155.062C52.3695 154.902 53.7095 155.072 54.9995 155.562C57.9295 158.822 58.7595 162.652 57.4995 167.062C55.0095 174.452 50.1795 177.112 42.9995 175.062C38.7295 168.302 39.0695 161.802 43.9995 155.562C46.3095 155.062 48.6395 154.902 50.9995 155.062Z" fill="#040302"/>
<path fill-rule="evenodd" clip-rule="evenodd" d="M76 164.062C76.67 167.062 77.33 170.062 78 173.062C78.28 176.012 77.94 178.842 77 181.562C87.82 203.392 103.32 221.222 123.5 235.062C124.76 240.642 122.59 242.472 117 240.562C99.94 234.882 85.94 225.052 75 211.062C69.8 201.332 65.13 191.332 61 181.062C62.25 178.912 63.75 176.912 65.5 175.062C65.74 169.622 66.58 164.282 68 159.062C69.57 157.932 71.24 157.762 73 158.562C74.14 160.342 75.14 162.172 76 164.062Z" fill="#030303"/>
<path fill-rule="evenodd" clip-rule="evenodd" d="M162.999 201.062C152.139 205.382 148.309 201.712 151.499 190.062C157.169 181.632 164.339 174.962 172.999 170.062C178.479 167.282 184.149 164.782 189.999 162.562C204.399 157.952 218.729 158.292 232.999 163.562C241.339 166.552 245.839 172.392 246.499 181.062C249.099 185.272 251.439 189.602 253.499 194.062C255.409 199.402 255.409 204.742 253.499 210.062C249.589 216.202 245.929 222.532 242.499 229.062C231.109 240.972 217.279 245.472 200.999 242.562C194.349 239.592 188.519 235.422 183.499 230.062C177.829 220.072 174.829 209.412 174.499 198.062C176.019 195.072 176.519 192.072 175.999 189.062C171.619 193.112 167.289 197.112 162.999 201.062Z" fill="#040404"/>
<path fill-rule="evenodd" clip-rule="evenodd" d="M377 174.062C382.06 179.442 388.06 183.602 395 186.562C398.87 189.812 398.87 193.142 395 196.562C390.33 196.402 385.66 195.902 381 195.062C377.71 192.782 374.37 190.452 371 188.062C370.4 192.362 370.23 196.692 370.5 201.062C366.99 211.082 362.66 220.752 357.5 230.062C351.94 234.922 346.1 239.422 340 243.562C334.1 242.662 328.1 241.992 322 241.562C313.47 240.172 305.97 236.672 299.5 231.062C288.61 209.812 289.61 189.152 302.5 169.062C307.09 166.022 311.59 162.852 316 159.562C323.03 158.972 330.03 159.312 337 160.562C347.91 164.182 358.91 167.512 370 170.562C372.36 171.742 374.69 172.912 377 174.062Z" fill="#030303"/>
<path fill-rule="evenodd" clip-rule="evenodd" d="M423 237.061C421.16 238.731 419.16 240.231 417 241.561C414.17 243.071 411.34 243.241 408.5 242.061C407.1 240.171 405.93 238.171 405 236.061C410.32 229.081 416.32 222.741 423 217.061C434.21 208.021 442.54 196.851 448 183.561C442.82 178.531 439.49 172.531 438 165.561C439.3 162.451 441.63 161.451 445 162.561C448.64 167.041 452.97 170.541 458 173.061C462.02 172.041 466.02 171.041 470 170.061C474.68 169.581 476.85 171.581 476.5 176.061C471.68 183.291 464.85 186.621 456 186.061C451.25 207.251 440.25 224.251 423 237.061Z" fill="#060606"/>
<path fill-rule="evenodd" clip-rule="evenodd" d="M316 170.061C321.84 169.231 326.34 171.231 329.5 176.061C329.97 182.881 329.31 189.551 327.5 196.061C322.2 201.281 316.04 202.441 309 199.561C306.86 196.081 304.7 192.581 302.5 189.061C301.66 185.441 302.33 182.111 304.5 179.061C308.67 176.401 312.51 173.401 316 170.061Z" fill="#F4F4F4"/>
<path fill-rule="evenodd" clip-rule="evenodd" d="M223 174.062C236.35 174.402 241.18 181.072 237.5 194.062C235.74 196.572 234.24 199.242 233 202.062C229.58 204.002 226.08 205.662 222.5 207.062C215.7 204.242 211.87 199.082 211 191.562C212.68 184.012 216.68 178.182 223 174.062Z" fill="#F5F5F5"/>
<path fill-rule="evenodd" clip-rule="evenodd" d="M294.001 246.061C300.371 245.291 303.211 247.961 302.501 254.061C299.061 261.471 293.891 267.301 287.001 271.561C283.631 271.891 280.301 271.561 277.001 270.561C272.381 267.421 267.381 265.081 262.001 263.561C257.271 258.031 258.271 254.201 265.001 252.061C270.651 253.381 275.991 255.551 281.001 258.561C282.331 259.231 283.671 259.231 285.001 258.561C287.891 254.281 290.891 250.111 294.001 246.061Z" fill="#0C0C0C"/>
<path fill-rule="evenodd" clip-rule="evenodd" d="M358 357.061C364.31 356.271 367.14 358.931 366.5 365.061C364.17 371.051 360.67 376.211 356 380.561C346.77 381.651 343.94 377.821 347.5 369.061C348.36 367.471 349.03 365.811 349.5 364.061C352.5 361.831 355.33 359.491 358 357.061Z" fill="#435ADF"/>
<path fill-rule="evenodd" clip-rule="evenodd" d="M155.001 359.062C162.611 359.612 165.111 363.612 162.501 371.062C161.421 376.382 158.921 380.882 155.001 384.562C146.761 386.312 142.931 383.142 143.501 375.062C145.681 368.312 149.511 362.972 155.001 359.062Z" fill="#445ADF"/>
<path fill-rule="evenodd" clip-rule="evenodd" d="M292 378.062C296.48 378.282 300.48 379.782 304 382.562C306.58 387.852 305.58 392.522 301 396.562C297.66 398.572 293.99 399.742 290 400.062C286.82 399.042 284.82 396.872 284 393.562C285.24 387.582 287.91 382.412 292 378.062Z" fill="#455BDF"/>
<path fill-rule="evenodd" clip-rule="evenodd" d="M220 378.061C223.19 377.581 226.02 378.251 228.5 380.061C235.4 393.341 231.74 402.341 217.5 407.061C213.76 406.261 211.93 403.931 212 400.061C214.49 392.581 217.16 385.251 220 378.061Z" fill="#455BDF"/>
<path fill-rule="evenodd" clip-rule="evenodd" d="M176 408.062C184.93 407.582 187.77 411.582 184.5 420.062C182.25 422.892 180.25 425.892 178.5 429.062C173.17 432.312 169.67 430.982 168 425.062C169.33 418.682 172 413.012 176 408.062Z" fill="#445BDF"/>
<path fill-rule="evenodd" clip-rule="evenodd" d="M334 409.061C340.83 408.391 343.66 411.391 342.5 418.061C339.28 422.031 336.62 426.371 334.5 431.061C330.79 435.831 326.79 436.161 322.5 432.061C321.47 428.381 320.8 424.721 320.5 421.061C324.55 416.511 329.05 412.511 334 409.061Z" fill="#445ADF"/>
<path fill-rule="evenodd" clip-rule="evenodd" d="M258 421.061C264.37 420.291 267.21 422.961 266.5 429.061C263.85 434.191 260.35 438.691 256 442.561C247.67 443.201 244.84 439.371 247.5 431.061C248.38 428.461 249.88 426.291 252 424.561C254.41 423.961 256.41 422.791 258 421.061Z" fill="#4259DF"/>
</svg>
