<svg width="500" height="500" viewBox="0 0 500 500" fill="none" xmlns="http://www.w3.org/2000/svg">
<path fill-rule="evenodd" clip-rule="evenodd" d="M380 311.061C379.11 306.731 378.11 302.401 377 298.061C374.2 296.591 371.2 295.761 368 295.561C355.97 295.061 343.97 294.221 332 293.061C307.03 295.601 282.03 296.601 257 296.061C248.94 295.791 240.94 296.121 233 297.061C211.36 297.851 189.69 298.351 168 298.561C154.42 300.801 140.76 301.461 127 300.561C122.54 300.241 118.38 299.071 114.5 297.061C113 297.231 112.17 298.061 112 299.561C114.03 303.381 113.03 305.551 109 306.061C108.67 308.061 108.33 310.061 108 312.061C105.87 328.321 105.54 344.651 107 361.061C111.89 361.751 115.72 364.081 118.5 368.061C118.55 374.321 115.55 376.321 109.5 374.061C107.58 374.501 105.75 375.161 104 376.061C101.67 382.581 97.9998 388.081 92.9998 392.561C89.6198 394.841 86.7898 394.341 84.4998 391.061C82.6098 381.741 84.6098 373.401 90.4998 366.061C90.3098 348.741 89.8098 331.401 88.9998 314.061C89.7498 293.861 91.4198 273.861 93.9998 254.061C95.8398 249.681 94.8398 246.011 90.9998 243.061C88.0498 230.231 85.8798 217.231 84.4998 204.061C83.7398 182.731 83.4098 161.391 83.4998 140.061C86.5698 124.861 91.2298 110.201 97.4998 96.0614C103.4 89.3614 110.57 84.5214 119 81.5614C124.52 76.3014 130.86 72.3014 138 69.5614C157.77 62.5714 178.11 58.0714 199 56.0614C199 57.0614 199 58.0614 199 59.0614C231.93 55.9914 264.93 53.6514 298 52.0614C318.19 51.4014 336.86 56.2414 354 66.5614C357.22 70.1114 360.05 73.9514 362.5 78.0614C372.2 86.1014 380.87 95.1014 388.5 105.061C394.57 118.051 396.57 131.721 394.5 146.061C394.09 149.241 393.59 152.411 393 155.561C397.95 175.471 399.12 195.641 396.5 216.061C395.27 224.941 393.77 233.771 392 242.561C393.18 249.211 392.51 255.711 390 262.061C390.48 266.911 391.64 271.581 393.5 276.061C395.22 299.381 396.39 322.711 397 346.061C405.59 349.281 412.09 354.951 416.5 363.061C417.62 369.941 414.78 372.781 408 371.561C403.55 368.781 399.38 365.611 395.5 362.061C393.01 365.391 389.84 367.731 386 369.061C379.88 367.481 378.04 363.811 380.5 358.061C381.67 356.391 382.83 354.731 384 353.061C383.69 352.251 383.19 351.591 382.5 351.061C382.17 337.671 381.34 324.331 380 311.061Z" fill="#FEEA3C"/>
<path fill-rule="evenodd" clip-rule="evenodd" d="M320.999 81.0621C333.439 79.3321 338.599 84.6621 336.499 97.0621C335.369 101.312 334.709 105.642 334.499 110.062C330.879 113.882 327.049 114.052 322.999 110.562C316.709 110.492 310.709 109.152 304.999 106.562C299.539 101.362 298.699 95.5321 302.499 89.0621C308.989 87.0621 315.159 84.4021 320.999 81.0621Z" fill="#E3E23D"/>
<path fill-rule="evenodd" clip-rule="evenodd" d="M132 93.0618C136.36 92.6718 140.53 93.3418 144.5 95.0618C151.26 92.6718 155.1 95.0018 156 102.062C154.66 109.912 150.66 116.082 144 120.562C139.46 122.532 134.79 124.202 130 125.562C128.11 128.672 125.45 129.672 122 128.562C109.23 125.642 106.4 118.472 113.5 107.062C117.14 104.832 120.97 102.992 125 101.562C126.9 98.2818 129.23 95.4418 132 93.0618Z" fill="#E3E23D"/>
<path fill-rule="evenodd" clip-rule="evenodd" d="M354 186.062C348.62 183.512 343.62 180.352 339 176.562C327.69 173.572 316.36 170.572 305 167.562C298.33 166.892 291.67 166.892 285 167.562C269 178.522 262.5 193.682 265.5 213.062C266.88 230.102 276.05 239.602 293 241.562C299.01 242.232 305.01 242.562 311 242.562C314.64 239.072 318.64 236.072 323 233.562C332.15 220.792 336.82 206.622 337 191.062C342.41 194.982 348.41 197.312 355 198.062C354.9 208.712 353.07 219.052 349.5 229.062C343.61 238.342 337.11 247.172 330 255.562C322.53 260.632 314.53 264.632 306 267.562C286.39 271.472 266.72 275.132 247 278.562C231.53 280.512 216.53 278.852 202 273.562C186.26 272.832 171.59 268.492 158 260.562C150.65 254.872 145.15 247.702 141.5 239.062C137.45 230.852 135.61 222.192 136 213.062C138.91 214.132 141.91 214.302 145 213.562C149.8 209.762 154.3 205.592 158.5 201.062C158.03 207.022 158.03 213.022 158.5 219.062C161.03 224.312 163.36 229.642 165.5 235.062C179.39 250.122 195.23 252.292 213 241.562C221.18 234.722 227.01 226.222 230.5 216.062C232.26 206.012 229.6 197.352 222.5 190.062C222.68 185.252 220.84 181.412 217 178.562C196.86 169.082 177.19 170.082 158 181.562C152.09 185.012 146.76 189.182 142 194.062C143.61 186.952 146.78 180.622 151.5 175.062C166.16 160.472 183 148.972 202 140.562C211.87 136.012 222.21 132.842 233 131.062C251.41 134.032 269.91 134.692 288.5 133.062C300.65 136.392 312.15 141.222 323 147.562C325.85 150.242 328.52 153.082 331 156.062C338.96 160.642 345.13 166.972 349.5 175.062C351.57 178.522 353.07 182.192 354 186.062Z" fill="#FDFDFC"/>
<path fill-rule="evenodd" clip-rule="evenodd" d="M366 140.062C368.43 140.082 370.76 140.582 373 141.562C378.67 147.912 381.17 155.412 380.5 164.062C382.92 166.462 384.42 169.302 385 172.562C384.89 177.342 382.39 179.842 377.5 180.062C372.39 177.292 368.23 173.452 365 168.562C361.73 168.622 359.57 167.122 358.5 164.062C357.57 158.412 357.24 152.742 357.5 147.062C360.13 144.352 362.96 142.022 366 140.062Z" fill="#E3E23D"/>
<path fill-rule="evenodd" clip-rule="evenodd" d="M105.001 163.062C107.031 162.902 109.031 163.062 111.001 163.562C113.801 167.712 116.641 171.872 119.501 176.062C120.171 178.062 120.171 180.062 119.501 182.062C118.221 184.282 117.221 186.612 116.501 189.062C111.171 193.562 107.171 192.562 104.501 186.062C96.4005 182.182 92.7305 175.852 93.5005 167.062C94.3305 166.232 95.1705 165.392 96.0005 164.562C99.1905 164.382 102.191 163.882 105.001 163.062Z" fill="#E3E23D"/>
<path fill-rule="evenodd" clip-rule="evenodd" d="M354 186.061C361.01 187.751 362.68 191.581 359 197.561C357.71 198.051 356.37 198.221 355 198.061C348.41 197.311 342.41 194.981 337 191.061C336.82 206.621 332.15 220.791 323 233.561C318.64 236.071 314.64 239.071 311 242.561C305.01 242.561 299.01 242.231 293 241.561C276.05 239.601 266.88 230.101 265.5 213.061C262.5 193.681 269 178.521 285 167.561C291.67 166.891 298.33 166.891 305 167.561C316.36 170.571 327.69 173.571 339 176.561C343.62 180.351 348.62 183.511 354 186.061Z" fill="#040404"/>
<path fill-rule="evenodd" clip-rule="evenodd" d="M135.999 213.061C135.829 209.381 135.999 205.711 136.499 202.061C138.549 199.511 140.389 196.851 141.999 194.061C146.759 189.181 152.089 185.011 157.999 181.561C177.189 170.081 196.859 169.081 216.999 178.561C220.839 181.411 222.679 185.251 222.499 190.061C229.599 197.351 232.259 206.011 230.499 216.061C227.009 226.221 221.179 234.721 212.999 241.561C195.229 252.291 179.389 250.121 165.499 235.061C163.359 229.641 161.029 224.311 158.499 219.061C158.029 213.021 158.029 207.021 158.499 201.061C154.299 205.591 149.799 209.761 144.999 213.561C141.909 214.301 138.909 214.131 135.999 213.061Z" fill="#040404"/>
<path fill-rule="evenodd" clip-rule="evenodd" d="M285.999 177.061C296.879 176.441 301.039 181.441 298.499 192.061C297.269 194.861 296.599 197.861 296.499 201.061C291.609 205.341 286.109 206.171 279.999 203.561C278.589 200.481 276.759 197.641 274.499 195.061C273.709 191.931 274.039 188.931 275.499 186.061C278.949 182.801 282.449 179.801 285.999 177.061Z" fill="#F6F6F6"/>
<path fill-rule="evenodd" clip-rule="evenodd" d="M202 184.062C210.24 184.132 214.91 188.302 216 196.562C215.32 201.422 213.65 205.922 211 210.062C199.66 217.272 192.99 214.112 191 200.562C192.07 193.222 195.74 187.722 202 184.062Z" fill="#F5F5F5"/>
<path fill-rule="evenodd" clip-rule="evenodd" d="M91 243.062C94.84 246.012 95.84 249.682 94 254.062C92.63 250.602 91.63 246.932 91 243.062Z" fill="#F7F7F2"/>
<path fill-rule="evenodd" clip-rule="evenodd" d="M269 247.062C273.41 246.432 276.41 248.092 278 252.062C275.14 259.612 270.48 265.782 264 270.562C260.6 271.112 257.27 270.772 254 269.562C249.81 267.502 245.48 265.832 241 264.562C237.49 261.512 237.16 258.182 240 254.562C242.67 253.892 245.33 253.892 248 254.562C251.46 256.632 255.13 258.132 259 259.062C263.34 256.042 266.67 252.042 269 247.062Z" fill="#0B0B0B"/>
<path fill-rule="evenodd" clip-rule="evenodd" d="M118 264.062C124.45 266.442 131.11 267.942 138 268.562C141.75 270.232 143.25 273.072 142.5 277.062C140.08 281.432 137.91 285.932 136 290.562C125.26 292.292 116.43 288.792 109.5 280.062C107.5 277.062 107.5 274.062 109.5 271.062C113.16 269.562 115.99 267.222 118 264.062Z" fill="#E3E23D"/>
<path fill-rule="evenodd" clip-rule="evenodd" d="M380 311.062C378.67 313.062 377.33 315.062 376 317.062C350.65 315.552 325.31 315.892 300 318.062C286.1 315.742 272.1 314.742 258 315.062C256.69 314.412 255.69 313.412 255 312.062C258.82 309.762 261.15 306.432 262 302.062C261.08 299.432 259.41 297.432 257 296.062C282.03 296.602 307.03 295.602 332 293.062C343.97 294.222 355.97 295.062 368 295.562C371.2 295.762 374.2 296.592 377 298.062C378.11 302.402 379.11 306.732 380 311.062Z" fill="#FEFDFC"/>
<path fill-rule="evenodd" clip-rule="evenodd" d="M257 296.062C259.41 297.432 261.08 299.432 262 302.062C261.15 306.432 258.82 309.762 255 312.062C255.69 313.412 256.69 314.412 258 315.062C263.67 322.062 266.17 330.062 265.5 339.062C263.15 343.762 260.82 348.422 258.5 353.062C255.85 355.752 252.68 356.592 249 355.562C243.48 349.042 237.64 342.872 231.5 337.062C230.83 334.732 230.83 332.392 231.5 330.062C234.27 325.532 236.77 320.862 239 316.062C239.11 315.442 239.44 314.942 240 314.562C237.41 313.362 234.74 312.362 232 311.562C228.25 309.892 226.75 307.052 227.5 303.062C229.57 301.162 231.4 299.162 233 297.062C240.94 296.122 248.94 295.792 257 296.062Z" fill="#F34437"/>
<path fill-rule="evenodd" clip-rule="evenodd" d="M233 297.062C231.4 299.162 229.57 301.162 227.5 303.062C226.75 307.052 228.25 309.892 232 311.562C234.74 312.362 237.41 313.362 240 314.562C239.44 314.942 239.11 315.442 239 316.062C211.66 315.892 184.33 316.062 157 316.562C150.32 317.472 143.65 318.472 137 319.562C129.76 319.872 122.59 320.042 115.5 320.062C113.16 318.882 111.32 317.212 110 315.062C109.33 314.062 108.67 313.062 108 312.062C108.33 310.062 108.67 308.062 109 306.062C113.03 305.552 114.03 303.382 112 299.562C112.17 298.062 113 297.232 114.5 297.062C118.38 299.072 122.54 300.242 127 300.562C140.76 301.462 154.42 300.802 168 298.562C189.69 298.352 211.36 297.852 233 297.062Z" fill="#FEFDFB"/>
<path fill-rule="evenodd" clip-rule="evenodd" d="M110 315.062C111.32 317.212 113.16 318.882 115.5 320.062C122.59 320.042 129.76 319.872 137 319.562C143.65 318.472 150.32 317.472 157 316.562C184.33 316.062 211.66 315.892 239 316.062C236.77 320.862 234.27 325.532 231.5 330.062C230.83 332.392 230.83 334.732 231.5 337.062C237.64 342.872 243.48 349.042 249 355.562C252.68 356.592 255.85 355.752 258.5 353.062C260.82 348.422 263.15 343.762 265.5 339.062C266.17 330.062 263.67 322.062 258 315.062C272.1 314.742 286.1 315.742 300 318.062C325.31 315.892 350.65 315.552 376 317.062C374.67 332.232 370.5 346.572 363.5 360.062C360.79 363.652 357.95 367.152 355 370.562C342.5 376.612 329.34 380.452 315.5 382.062C310.33 380.772 305.16 380.772 300 382.062C294.33 382.062 288.67 382.062 283 382.062C283.33 390.242 282.99 398.242 282 406.062C282 398.062 282 390.062 282 382.062C259.66 382.042 237.33 381.712 215 381.062C215 382.732 215 384.392 215 386.062C214.05 384.642 213.72 382.972 214 381.062C204.37 381.282 194.87 380.282 185.5 378.062C183.47 378.072 181.63 378.402 180 379.062C163.5 376.432 147.5 371.932 132 365.562C122.65 349.682 115.31 332.842 110 315.062Z" fill="#B07A67"/>
<path fill-rule="evenodd" clip-rule="evenodd" d="M331 325.062C339.49 325.242 347.82 326.412 356 328.562C361.57 332.662 361.23 336.322 355 339.562C348.33 340.232 341.67 340.232 335 339.562C330.02 336.762 327.85 332.592 328.5 327.062C329.49 326.492 330.33 325.832 331 325.062Z" fill="#050302"/>
<path fill-rule="evenodd" clip-rule="evenodd" d="M138 327.062C144.67 326.892 151.34 327.062 158 327.562C161.48 330.272 161.81 333.272 159 336.562C155.28 336.952 151.61 337.622 148 338.562C142.91 339.392 137.91 339.052 133 337.562C131.1 335.752 130.6 333.592 131.5 331.062C133.29 328.932 135.46 327.602 138 327.062Z" fill="#060403"/>
<path fill-rule="evenodd" clip-rule="evenodd" d="M185 327.062C190.5 326.922 195.84 327.762 201 329.562C206.79 334.512 206.12 338.182 199 340.562C191.87 342.732 184.87 342.402 178 339.562C174.3 337.592 173.3 334.762 175 331.062C178.41 329.732 181.74 328.402 185 327.062Z" fill="#080504"/>
<path fill-rule="evenodd" clip-rule="evenodd" d="M283 327.062C291.01 326.892 299.01 327.062 307 327.562C311.45 332.002 310.78 335.332 305 337.562C296.99 339.282 289.16 338.782 281.5 336.062C279.29 332.582 279.79 329.582 283 327.062Z" fill="#060403"/>
<path fill-rule="evenodd" clip-rule="evenodd" d="M180 379.062C181.63 378.402 183.47 378.072 185.5 378.062C194.87 380.282 204.37 381.282 214 381.062C213.72 382.972 214.05 384.642 215 386.062C215 394.062 215 402.062 215 410.062C209.33 409.392 203.67 408.732 198 408.062C197.05 399.042 195.89 390.042 194.5 381.062C189.74 380.172 184.9 379.502 180 379.062Z" fill="#FBE83C"/>
<path fill-rule="evenodd" clip-rule="evenodd" d="M300 382.062C299.04 392.022 298.37 402.022 298 412.062C292.67 412.062 287.33 412.062 282 412.062C282 410.062 282 408.062 282 406.062C282.99 398.242 283.33 390.242 283 382.062C288.67 382.062 294.33 382.062 300 382.062Z" fill="#FBE83D"/>
<path fill-rule="evenodd" clip-rule="evenodd" d="M198 408.062C203.67 408.732 209.33 409.392 215 410.062C215.62 411.192 216.46 412.192 217.5 413.062C217.67 414.392 217.83 415.732 218 417.062C216.83 424.432 215.67 431.762 214.5 439.062C213.29 440.612 211.79 441.782 210 442.562C204.82 444.062 199.82 446.062 195 448.562C180.17 450.392 173 443.892 173.5 429.062C175.7 426.522 178.2 424.352 181 422.562C186 422.232 191 421.892 196 421.562C192.18 418.462 191.18 414.622 193 410.062C194.35 408.612 196.02 407.942 198 408.062Z" fill="#030304"/>
<path fill-rule="evenodd" clip-rule="evenodd" d="M282 412.062C287.33 412.062 292.67 412.062 298 412.062C300.25 412.482 301.75 413.812 302.5 416.062C303.23 418.792 303.06 421.462 302 424.062C306.3 424.892 310.63 425.392 315 425.562C324.35 430.422 326.51 437.592 321.5 447.062C320.75 447.692 319.92 448.192 319 448.562C308.8 449.632 298.8 448.632 289 445.562C282.46 442.992 278.96 438.152 278.5 431.062C277.72 426.062 277.39 421.062 277.5 416.062C278.9 414.492 280.4 413.162 282 412.062Z" fill="#010202"/>
</svg>
