<svg width="500" height="500" viewBox="0 0 500 500" fill="none" xmlns="http://www.w3.org/2000/svg">
<path fill-rule="evenodd" clip-rule="evenodd" d="M429 277.062C426.94 275.002 424.61 273.332 422 272.062C419.33 272.312 417.5 273.642 416.5 276.062C416.48 280.472 415.65 284.642 414 288.562C414.41 289.702 414.74 290.872 415 292.062C414.16 300.422 413.16 308.752 412 317.062C409.73 319.832 407.23 322.502 404.5 325.062C399.28 336.612 392.11 346.782 383 355.562C375.98 361.582 368.64 367.242 361 372.562C356.98 374.792 352.82 376.622 348.5 378.062C347.78 389.422 346.78 400.752 345.5 412.062C345.27 413.302 344.77 414.302 344 415.062C339.99 414.892 335.99 415.062 332 415.562C330.28 418.072 327.94 419.572 325 420.062C323.99 417.242 323.16 414.242 322.5 411.062C322.17 402.372 321.67 393.712 321 385.062C316.32 384.892 311.65 385.062 307 385.562C293.59 388.052 280.09 389.882 266.5 391.062C259.37 389.712 252.21 389.212 245 389.562C247.02 392.742 247.52 396.242 246.5 400.062C244.66 407.102 242.66 414.102 240.5 421.062C240.08 422.322 239.25 422.982 238 423.062C231.32 421.722 224.66 420.392 218 419.062C218 407.732 218 396.392 218 385.062C204.64 382.882 192.31 378.052 181 370.562C157.01 354.982 135.51 336.482 116.5 315.062C113.39 309.722 111.05 304.052 109.5 298.062C99.3897 285.962 90.0597 273.292 81.4997 260.062C75.1097 242.882 69.1097 225.542 63.4997 208.062C61.1597 197.482 61.8297 187.152 65.4997 177.062C69.4197 174.352 73.2597 171.522 76.9997 168.562C87.3497 166.232 97.6797 163.892 108 161.562C94.5797 155.452 83.4197 146.622 74.4997 135.062C69.8497 125.292 71.3497 116.462 78.9997 108.562C80.7497 108.092 82.4097 107.422 83.9997 106.562C89.7297 106.352 95.3997 105.682 101 104.562C110.4 101.032 119.4 96.6921 128 91.5621C134.77 88.7821 141.77 86.7821 149 85.5621C149.46 85.1521 149.79 84.6521 150 84.0621C145.01 74.2821 143.18 63.9521 144.5 53.0621C150.43 43.1721 159.27 38.3321 171 38.5621C189.8 37.3021 208.13 39.6321 226 45.5621C237.88 45.2921 249.54 46.6321 261 49.5621C281.89 56.3421 302.56 63.6821 323 71.5621C336.68 80.4021 350.02 89.7321 363 99.5621C373.82 101.892 382.66 107.392 389.5 116.062C393.56 121.122 397.22 126.452 400.5 132.062C407.29 148.322 415.63 163.652 425.5 178.062C432.92 190.722 436.75 204.392 437 219.062C433.6 238.332 430.94 257.672 429 277.062Z" fill="#4058DE"/>
<path fill-rule="evenodd" clip-rule="evenodd" d="M282 101.062C277.33 101.062 272.67 101.062 268 101.062C261.67 96.6617 256.33 97.6617 252 104.062C244.35 107.552 237.01 111.552 230 116.062C220.45 110.002 213.61 101.672 209.5 91.0617C209.48 80.7617 214.65 76.5917 225 78.5617C226.59 79.4217 228.25 80.0917 230 80.5617C238.33 86.0617 246.67 91.5617 255 97.0617C255.3 88.5117 257.47 80.5117 261.5 73.0617C272.61 64.6017 279.95 67.2717 283.5 81.0617C284.54 87.9317 284.04 94.6017 282 101.062Z" fill="#F9FAFC"/>
<path fill-rule="evenodd" clip-rule="evenodd" d="M271.001 82.0615C279.321 82.5515 280.991 86.0515 276.001 92.5615C267.591 92.3715 265.921 88.8715 271.001 82.0615Z" fill="#1D1D1D"/>
<path fill-rule="evenodd" clip-rule="evenodd" d="M224 86.0618C228.58 84.9018 231.25 86.5718 232 91.0618C230.25 96.2918 227.08 97.2918 222.5 94.0618C221.61 91.0618 222.11 88.4018 224 86.0618Z" fill="#0A0A0A"/>
<path fill-rule="evenodd" clip-rule="evenodd" d="M268.001 101.062C269.221 106.592 268.221 111.752 265.001 116.562C255.651 117.712 251.321 113.552 252.001 104.062C256.331 97.6619 261.671 96.6619 268.001 101.062Z" fill="#090807"/>
<path fill-rule="evenodd" clip-rule="evenodd" d="M268 101.062C272.67 101.062 277.33 101.062 282 101.062C292.72 103.182 296.88 109.512 294.5 120.062C283.99 128.232 272.49 134.732 260 139.562C251.63 142.112 243.63 141.442 236 137.562C232.25 135.142 229.08 131.972 226.5 128.062C225.25 123.302 226.41 119.302 230 116.062C237.01 111.552 244.35 107.552 252 104.062C251.32 113.552 255.65 117.712 265 116.562C268.22 111.752 269.22 106.592 268 101.062Z" fill="#FCEFBE"/>
<path fill-rule="evenodd" clip-rule="evenodd" d="M382 204.062C377.1 200.782 371.77 198.282 366 196.562C357.24 195.872 348.57 194.542 340 192.562C332.59 191.672 325.25 192.002 318 193.562C314.82 197.072 311.32 200.232 307.5 203.062C298.58 220.562 298.92 237.892 308.5 255.062C312.65 260.392 318.15 263.562 325 264.562C333.02 265.122 341.02 265.452 349 265.562C352.81 261.412 356.98 257.582 361.5 254.062C367.5 242.752 370.5 230.752 370.5 218.062C369.29 216.032 369.13 214.032 370 212.062C374.81 215.812 380.15 217.812 386 218.062C389.32 225.192 391.32 232.692 392 240.562C393.64 265.942 384.64 286.612 365 302.562C333.29 328.402 296.95 338.562 256 333.062C258.59 331.572 259.59 329.242 259 326.062C265.44 323.922 271.77 321.582 278 319.062C281.05 313.162 279.22 309.492 272.5 308.062C268.4 308.862 264.57 310.362 261 312.562C258.33 313.232 255.67 313.232 253 312.562C250.2 307.252 245.86 304.092 240 303.062C232.43 304.132 230.26 308.132 233.5 315.062C236.54 318.492 240.04 321.332 244 323.562C241.5 325.232 239.17 327.062 237 329.062C224.97 326.052 213.97 320.882 204 313.562C195.93 304.262 189.76 293.762 185.5 282.062C181.39 271.632 178.23 260.962 176 250.062C178.69 250.222 181.35 250.062 184 249.562C188.53 245.362 192.7 240.862 196.5 236.062C195.47 255.832 203.63 270.332 221 279.562C236.65 282.012 249.49 277.182 259.5 265.062C261.98 259.272 264.65 253.612 267.5 248.062C269.57 237.312 266.57 228.312 258.5 221.062C256.42 211.332 250.25 206.162 240 205.562C229.72 204.192 219.72 205.192 210 208.562C201.83 212.472 194.17 217.142 187 222.562C183.29 226.522 179.95 230.692 177 235.062C180.76 217.382 189.76 202.882 204 191.562C217.71 183.372 231.71 175.702 246 168.562C262.85 162.532 280.18 160.532 298 162.562C315.27 165.052 332.27 168.722 349 173.562C364.76 178.742 375.76 188.912 382 204.062Z" fill="#FCFCFD"/>
<path fill-rule="evenodd" clip-rule="evenodd" d="M381.999 204.062C386.509 205.732 390.679 208.072 394.499 211.062C394.669 216.712 391.839 219.042 385.999 218.062C380.149 217.812 374.809 215.812 369.999 212.062C369.129 214.032 369.289 216.032 370.499 218.062C370.499 230.752 367.499 242.752 361.499 254.062C356.979 257.582 352.809 261.412 348.999 265.562C341.019 265.452 333.019 265.122 324.999 264.562C318.149 263.562 312.649 260.392 308.499 255.062C298.919 237.892 298.579 220.562 307.499 203.062C311.319 200.232 314.819 197.072 317.999 193.562C325.249 192.002 332.589 191.672 339.999 192.562C348.569 194.542 357.239 195.872 365.999 196.562C371.769 198.282 377.099 200.782 381.999 204.062Z" fill="#030304"/>
<path fill-rule="evenodd" clip-rule="evenodd" d="M320.999 202.062C325.849 201.402 329.679 203.072 332.499 207.062C332.769 213.412 332.429 219.742 331.499 226.062C330.289 227.612 328.789 228.782 326.999 229.562C323.329 230.232 319.669 230.232 315.999 229.562C313.869 226.762 311.709 223.922 309.499 221.062C308.799 217.632 309.129 214.302 310.499 211.062C314.189 208.202 317.689 205.202 320.999 202.062Z" fill="#F6F6F6"/>
<path fill-rule="evenodd" clip-rule="evenodd" d="M176 250.062C175.39 247.812 175.06 245.482 175 243.062C174.79 240.032 175.45 237.372 177 235.062C179.95 230.692 183.29 226.522 187 222.562C194.17 217.142 201.83 212.472 210 208.562C219.72 205.192 229.72 204.192 240 205.562C250.25 206.162 256.42 211.332 258.5 221.062C266.57 228.312 269.57 237.312 267.5 248.062C264.65 253.612 261.98 259.272 259.5 265.062C249.49 277.182 236.65 282.012 221 279.562C203.63 270.332 195.47 255.832 196.5 236.062C192.7 240.862 188.53 245.362 184 249.562C181.35 250.062 178.69 250.222 176 250.062Z" fill="#040404"/>
<path fill-rule="evenodd" clip-rule="evenodd" d="M238 216.062C246.94 215.502 251.6 219.662 252 228.562C252.12 237.652 247.95 243.482 239.5 246.062C232.77 244.002 228.94 239.502 228 232.562C228.95 225.542 232.28 220.042 238 216.062Z" fill="#F6F6F6"/>
<path fill-rule="evenodd" clip-rule="evenodd" d="M428.999 277.062C429.169 283.072 428.999 289.072 428.499 295.062C423.849 315.332 419.679 335.662 415.999 356.062C425.009 357.242 430.169 362.242 431.499 371.062C426.729 373.832 421.559 374.662 415.999 373.562C414.209 372.782 412.709 371.612 411.499 370.062C408.399 371.862 405.559 374.032 402.999 376.562C396.059 381.182 392.059 379.512 390.999 371.562C390.759 368.672 391.589 366.172 393.499 364.062C396.229 361.152 399.069 358.492 401.999 356.062C406.439 343.312 409.769 330.312 411.999 317.062C413.159 308.752 414.159 300.422 414.999 292.062C414.739 290.872 414.409 289.702 413.999 288.562C415.649 284.642 416.479 280.472 416.499 276.062C417.499 273.642 419.329 272.312 421.999 272.062C424.609 273.332 426.939 275.002 428.999 277.062Z" fill="#050506"/>
<path fill-rule="evenodd" clip-rule="evenodd" d="M307.999 273.062C310.359 272.902 312.689 273.062 314.999 273.562C316.389 274.522 317.059 275.852 316.999 277.562C315.049 283.802 312.049 289.472 307.999 294.562C303.219 297.492 298.219 297.832 292.999 295.562C288.499 293.512 283.999 291.682 279.499 290.062C278.559 287.212 279.059 284.712 280.999 282.562C286.729 281.462 292.059 282.462 296.999 285.562C298.329 286.232 299.669 286.232 300.999 285.562C303.739 281.582 306.069 277.412 307.999 273.062Z" fill="#080808"/>
<path fill-rule="evenodd" clip-rule="evenodd" d="M256 333.062C240.43 346.182 222.77 355.682 203 361.562C196.35 362.562 189.68 362.892 183 362.562C175.67 357.892 170.51 351.392 167.5 343.062C166.01 337.112 164.85 331.112 164 325.062C164.48 317.762 167.98 316.102 174.5 320.062C175.9 331.622 180.74 341.452 189 349.562C201.09 349.652 212.42 346.652 223 340.562C227.92 336.952 232.59 333.112 237 329.062C239.17 327.062 241.5 325.232 244 323.562C240.04 321.332 236.54 318.492 233.5 315.062C230.26 308.132 232.43 304.132 240 303.062C245.86 304.092 250.2 307.252 253 312.562C255.67 313.232 258.33 313.232 261 312.562C264.57 310.362 268.4 308.862 272.5 308.062C279.22 309.492 281.05 313.162 278 319.062C271.77 321.582 265.44 323.922 259 326.062C259.59 329.242 258.59 331.572 256 333.062Z" fill="#030306"/>
<path fill-rule="evenodd" clip-rule="evenodd" d="M343.999 415.062C359.699 416.162 371.539 423.492 379.499 437.062C380.169 440.062 380.169 443.062 379.499 446.062C378.289 447.612 376.789 448.782 374.999 449.562C369.019 450.542 363.019 451.382 356.999 452.062C347.259 451.562 337.589 450.732 327.999 449.562C322.299 442.402 320.129 434.232 321.499 425.062C322.199 422.982 323.359 421.312 324.999 420.062C327.939 419.572 330.279 418.072 331.999 415.562C335.989 415.062 339.989 414.892 343.999 415.062Z" fill="#F34437"/>
<path fill-rule="evenodd" clip-rule="evenodd" d="M218 419.062C224.66 420.392 231.32 421.722 238 423.062C252.7 425.832 264.2 433.502 272.5 446.062C273.47 451.472 271.3 454.972 266 456.562C253.9 457.582 241.9 459.242 230 461.562C226 462.232 222 462.232 218 461.562C214.37 459.482 212.37 456.312 212 452.062C212.88 447.422 213.55 442.762 214 438.062C212.36 433.592 211.86 428.922 212.5 424.062C213.85 421.812 215.68 420.142 218 419.062Z" fill="#F34437"/>
</svg>
