<svg width="500" height="500" viewBox="0 0 500 500" fill="none" xmlns="http://www.w3.org/2000/svg">
<path fill-rule="evenodd" clip-rule="evenodd" d="M73.0001 291.061C75.2401 292.101 77.5701 292.261 80.0001 291.561C81.8801 290.371 83.8801 289.371 86.0001 288.561C95.6201 281.271 104.96 273.601 114 265.561C138.8 237.761 163.96 210.261 189.5 183.061C203.82 168.981 219.99 157.481 238 148.561C248.98 146.431 259.98 144.431 271 142.561C286.22 137.481 301.56 132.821 317 128.561C319.61 125.401 319.61 122.231 317 119.061C324.37 116.871 331.04 113.371 337 108.561C348.07 98.1612 358.4 87.1612 368 75.5612C384.63 60.8012 403.63 56.8012 425 63.5612C442.75 70.8412 455.92 83.0012 464.5 100.061C467.79 113.651 463.29 123.811 451 130.561C441.23 135.771 430.9 137.441 420 135.561C413.55 147.971 406.71 160.141 399.5 172.061C393.5 182.201 389.67 193.031 388 204.561C391.14 226.721 394.14 248.881 397 271.061C395.8 290.821 390.64 309.481 381.5 327.061C378.57 332.591 374.9 337.591 370.5 342.061C362.57 349.331 354.07 355.831 345 361.561C340.64 364.241 335.97 366.081 331 367.061C332.99 381.661 334.33 396.321 335 411.061C340.36 408.281 346.03 407.451 352 408.561C357.61 411.841 359.44 416.671 357.5 423.061C356.38 425.181 354.88 427.021 353 428.561C343.44 434.361 333.11 437.861 322 439.061C315.2 438.581 310.36 435.241 307.5 429.061C305.6 414.461 304.26 399.791 303.5 385.061C302.97 380.981 302.14 376.981 301 373.061C296.6 372.981 292.27 373.481 288 374.561C280.42 376.531 272.92 378.701 265.5 381.061C262.43 381.111 259.93 379.941 258 377.561C252 377.231 246 376.891 240 376.561C236.07 375.081 232.07 373.921 228 373.061C225.36 384.011 223.02 395.011 221 406.061C228.37 409.841 235.2 414.501 241.5 420.061C244.47 431.781 239.8 437.781 227.5 438.061C218.56 437.551 209.73 436.381 201 434.561C197.17 433.391 194.67 430.891 193.5 427.061C193.97 416.551 193.81 406.051 193 395.561C194.96 382.751 195.29 369.921 194 357.061C175.94 350.511 161.94 339.011 152 322.561C141.66 322.811 131.33 323.481 121 324.561C108.54 326.651 96.0401 328.491 83.5001 330.061C78.2701 328.711 73.1001 328.881 68.0001 330.561C57.0801 331.911 46.4101 330.911 36.0001 327.561C33.5901 323.301 33.9201 319.131 37.0001 315.061C49.7201 308.041 61.7201 300.041 73.0001 291.061Z" fill="#4CAF50"/>
<path fill-rule="evenodd" clip-rule="evenodd" d="M317 119.062C319.61 122.232 319.61 125.402 317 128.562C301.56 132.822 286.22 137.482 271 142.562C259.98 144.432 248.98 146.432 238 148.562C219.99 157.482 203.82 168.982 189.5 183.062C163.96 210.262 138.8 237.762 114 265.562C104.96 273.602 95.62 281.272 86 288.562C83.88 289.372 81.88 290.372 80 291.562C77.57 292.262 75.24 292.102 73 291.062C71.92 289.402 71.26 287.572 71 285.562C72.25 278.782 73.09 271.952 73.5 265.062C73.67 259.382 76.51 256.722 82 257.062C81.55 253.132 82.88 249.972 86 247.562C93.36 243.212 100.7 238.882 108 234.562C106.57 226.242 105.24 217.912 104 209.562C103.66 202.222 107 197.552 114 195.562C119.99 195.062 125.99 194.892 132 195.062C131.83 184.032 132.33 173.032 133.5 162.062C133.62 140.092 143.79 133.262 164 141.562C168.67 143.022 173.17 144.852 177.5 147.062C180.85 135.342 185.19 124.002 190.5 113.062C195.02 104.882 201.85 101.722 211 103.562C222.3 104.712 232.3 108.882 241 116.062C248.07 104.822 257.07 95.3216 268 87.5616C280.85 81.1816 290.01 84.6816 295.5 98.0616C300.5 102.062 305.5 106.062 310.5 110.062C312.79 112.632 313.95 115.632 314 119.062C315 119.062 316 119.062 317 119.062Z" fill="#8BC34A"/>
<path fill-rule="evenodd" clip-rule="evenodd" d="M417 93.0612C425.88 91.7712 429.38 95.4412 427.5 104.061C421.97 113.331 416.64 113.331 411.5 104.061C410.68 99.0412 412.51 95.3812 417 93.0612Z" fill="#020502"/>
<path fill-rule="evenodd" clip-rule="evenodd" d="M349 239.062C337.29 236.552 325.46 234.552 313.5 233.062C306.97 232.682 301.47 234.852 297 239.562C285.39 255.832 285.22 272.332 296.5 289.062C299.87 291.832 303.7 293.662 308 294.562C315.02 295.102 322.02 295.442 329 295.562C333.74 291.952 337.9 287.782 341.5 283.062C343.7 276.792 345.7 270.452 347.5 264.062C348.27 259.722 347.77 255.552 346 251.562C349.2 251.652 352.2 252.652 355 254.562C357.31 255.062 359.64 255.222 362 255.062C367.55 280.882 359.55 301.712 338 317.562C325.83 326.732 312.17 332.402 297 334.562C280.33 335.232 263.67 335.232 247 334.562C225.83 332.662 208.33 323.832 194.5 308.062C189.39 300.512 186.56 292.172 186 283.062C187.42 282.852 188.76 282.352 190 281.562C193.54 278.182 196.88 274.682 200 271.062C200.09 274.942 200.25 278.942 200.5 283.062C203.37 293.582 209.53 301.422 219 306.562C232.97 310.032 244.47 306.202 253.5 295.062C255.84 290.032 258.17 285.032 260.5 280.062C261.29 275.632 260.96 271.302 259.5 267.062C255.45 262.302 252.45 256.972 250.5 251.062C244.16 245.882 236.82 243.552 228.5 244.062C215.58 245.272 204.08 249.942 194 258.062C207.07 237.162 224.74 221.322 247 210.562C287.12 198.922 321.12 208.422 349 239.062Z" fill="#FCFCFC"/>
<path fill-rule="evenodd" clip-rule="evenodd" d="M349 239.062C354.98 242.672 361.15 246.002 367.5 249.062C368.33 253.402 366.5 255.402 362 255.062C359.64 255.222 357.31 255.062 355 254.562C352.2 252.652 349.2 251.652 346 251.562C347.77 255.552 348.27 259.722 347.5 264.062C345.7 270.452 343.7 276.792 341.5 283.062C337.9 287.782 333.74 291.952 329 295.562C322.02 295.442 315.02 295.102 308 294.562C303.7 293.662 299.87 291.832 296.5 289.062C285.22 272.332 285.39 255.832 297 239.562C301.47 234.852 306.97 232.682 313.5 233.062C325.46 234.552 337.29 236.552 349 239.062Z" fill="#040404"/>
<path fill-rule="evenodd" clip-rule="evenodd" d="M305 242.061C309.78 241.201 313.28 242.871 315.5 247.061C315.75 252.071 315.42 257.071 314.5 262.061C311.1 265.761 306.94 266.931 302 265.561C299.04 262.441 296.71 258.941 295 255.061C295.4 253.361 295.9 251.701 296.5 250.061C299.83 247.891 302.67 245.231 305 242.061Z" fill="#F4F4F4"/>
<path fill-rule="evenodd" clip-rule="evenodd" d="M185.999 283.061C184.919 283.021 183.919 282.691 182.999 282.061C181.839 278.781 181.679 275.441 182.499 272.061C185.639 266.771 189.469 262.101 193.999 258.061C204.079 249.941 215.579 245.271 228.499 244.061C236.819 243.551 244.159 245.881 250.499 251.061C252.449 256.971 255.449 262.301 259.499 267.061C260.959 271.301 261.289 275.631 260.499 280.061C258.169 285.031 255.839 290.031 253.499 295.061C244.469 306.201 232.969 310.031 218.999 306.561C209.529 301.421 203.369 293.581 200.499 283.061C200.249 278.941 200.089 274.941 199.999 271.061C196.879 274.681 193.539 278.181 189.999 281.561C188.759 282.351 187.419 282.851 185.999 283.061Z" fill="#050505"/>
<path fill-rule="evenodd" clip-rule="evenodd" d="M235 254.062C242.79 253.522 246.79 257.192 247 265.062C247.08 272.472 243.58 277.142 236.5 279.062C230.88 277.352 227.71 273.512 227 267.562C227.76 261.872 230.43 257.372 235 254.062Z" fill="#F6F6F6"/>
<path fill-rule="evenodd" clip-rule="evenodd" d="M295 302.062C302.07 301.522 303.9 304.522 300.5 311.062C298.7 314.492 296.54 317.652 294 320.562C290.8 322.042 287.46 322.382 284 321.562C279.36 319.912 274.86 318.072 270.5 316.062C269.6 313.532 270.1 311.372 272 309.562C277.61 310.432 283.28 311.092 289 311.562C291.14 308.452 293.14 305.282 295 302.062Z" fill="#0B0B0B"/>
</svg>
