<svg width="500" height="500" viewBox="0 0 500 500" fill="none" xmlns="http://www.w3.org/2000/svg">
<path fill-rule="evenodd" clip-rule="evenodd" d="M399 153.061C398.34 154.861 398 156.861 398 159.061C399.48 198.911 401.15 238.741 403 278.561C403.42 294.501 402.42 310.331 400 326.061C396 331.571 392.16 337.241 388.5 343.061C378.28 353.281 368.11 363.451 358 373.561C346.47 380.631 334.13 385.961 321 389.561C298.91 407.751 273.58 414.751 245 410.561C228.48 407.721 212.14 404.051 196 399.561C172.36 398.861 151.69 391.021 134 376.061C133.49 367.651 132.33 359.321 130.5 351.061C124.72 336.161 118.38 321.491 111.5 307.061C108.04 289.421 104.71 271.751 101.5 254.061C100.51 226.691 99.01 199.361 97 172.061C102.07 164.931 106.9 157.591 111.5 150.061C118.98 140.911 127.48 132.741 137 125.561C162.21 108.041 190.21 98.0409 221 95.5609C238.17 89.3909 255.84 86.7209 274 87.5609C286.98 89.6509 299.98 91.6509 313 93.5609C331 98.8909 347.66 106.891 363 117.561C374.84 129.571 386.84 141.401 399 153.061Z" fill="#B07A67"/>
<path fill-rule="evenodd" clip-rule="evenodd" d="M259 99.0616C266.55 97.7916 271.88 100.622 275 107.562C281.67 107.892 288.33 108.232 295 108.562C301.29 109.802 302.96 113.142 300 118.562C293.09 119.942 286.09 120.442 279 120.062C279.17 126.072 279 132.072 278.5 138.062C277.08 145.152 272.91 147.652 266 145.562C261.31 142.192 258.15 137.692 256.5 132.062C256.09 129.332 255.42 126.662 254.5 124.062C247.4 126.032 240.56 128.692 234 132.062C233.32 138.372 233.15 144.712 233.5 151.062C229.62 155.022 225.95 154.692 222.5 150.062C221.57 148.102 220.74 146.102 220 144.062C217.96 143.012 215.79 142.342 213.5 142.062C207.62 144.082 201.79 146.252 196 148.562C195.49 156.452 194.33 164.282 192.5 172.062C187.13 178.982 182.13 178.642 177.5 171.062C176.43 167.682 175.26 164.352 174 161.062C165.25 166.312 156.92 172.142 149 178.562C139.01 180.902 135.51 177.072 138.5 167.062C141.62 162.272 145.12 157.772 149 153.562C155.93 149.022 163.09 144.862 170.5 141.062C171.6 134.772 172.6 128.442 173.5 122.062C175.37 115.292 179.2 113.622 185 117.062C186.02 122.432 188.02 127.432 191 132.062C197.46 130.672 203.8 128.832 210 126.562C210.92 122.452 211.76 118.292 212.5 114.062C214.72 108.222 218.55 106.722 224 109.562C225.98 113.012 227.81 116.512 229.5 120.062C237.53 116.962 245.7 114.292 254 112.062C253.22 106.642 254.89 102.312 259 99.0616Z" fill="#FDFCFC"/>
<path fill-rule="evenodd" clip-rule="evenodd" d="M399 153.062C404.03 157.422 409.37 161.422 415 165.062C416.31 167.632 417.31 170.302 418 173.062C420.98 190.262 422.65 207.592 423 225.062C421.55 248.062 420.21 271.062 419 294.062C418.7 297.672 417.53 301.002 415.5 304.062C410.86 311.852 405.69 319.182 400 326.062C402.42 310.332 403.42 294.502 403 278.562C401.15 238.742 399.48 198.912 398 159.062C398 156.862 398.34 154.862 399 153.062Z" fill="#FDFCFB"/>
<path fill-rule="evenodd" clip-rule="evenodd" d="M97 172.062C99.01 199.362 100.51 226.692 101.5 254.062C104.71 271.752 108.04 289.422 111.5 307.062C118.38 321.492 124.72 336.162 130.5 351.062C132.33 359.322 133.49 367.652 134 376.062C120.36 366.412 107.03 356.412 94 346.062C88.09 318.132 82.25 290.132 76.5 262.062C74.23 248.482 72.73 234.812 72 221.062C77.27 207.842 83.11 194.842 89.5 182.062C91.78 178.482 94.28 175.152 97 172.062Z" fill="#FDFCFC"/>
<path fill-rule="evenodd" clip-rule="evenodd" d="M418 173.062C423.65 182.342 429.82 191.342 436.5 200.062C440.53 208.982 443.03 218.322 444 228.062C443.32 240.462 440.82 252.462 436.5 264.062C430.98 273.112 425.98 282.442 421.5 292.062C420.79 292.942 419.96 293.612 419 294.062C420.21 271.062 421.55 248.062 423 225.062C422.65 207.592 420.98 190.262 418 173.062Z" fill="#AF7967"/>
<path fill-rule="evenodd" clip-rule="evenodd" d="M248 178.062C264.18 178.962 280.34 178.962 296.5 178.062C314.44 178.632 331.61 182.462 348 189.562C354.63 195.322 360.47 201.822 365.5 209.062C370.17 219.092 374.84 229.092 379.5 239.062C383.52 259.272 380.18 278.272 369.5 296.062C365.38 301.852 360.88 307.352 356 312.562C345.62 321.282 334.95 329.612 324 337.562C301.96 348.332 278.63 352.832 254 351.062C244.64 350.982 235.31 350.482 226 349.562C209.98 346.882 193.98 344.222 178 341.562C176.33 340.562 174.67 339.562 173 338.562C161.22 325.772 151.38 311.612 143.5 296.062C137.5 277.722 137.5 259.392 143.5 241.062C156.09 222.472 171.92 207.302 191 195.562C202.31 189.402 213.98 184.072 226 179.562C233.51 179.392 240.84 178.892 248 178.062Z" fill="#FDFCFC"/>
<path fill-rule="evenodd" clip-rule="evenodd" d="M295 214.062C303.01 213.892 311.01 214.062 319 214.562C328.97 216.892 338.97 218.892 349 220.562C355.78 225.282 363.11 228.952 371 231.562C373.67 234.562 373.67 237.562 371 240.562C365.66 240.752 360.33 240.412 355 239.562C352.68 237.572 350.02 236.402 347 236.062C347.35 239.282 348.02 242.452 349 245.562C347.12 257.212 343.62 268.382 338.5 279.062C335.91 282.322 332.74 284.822 329 286.562C327.29 287.942 325.95 289.602 325 291.562C314.19 291.852 303.52 290.852 293 288.562C285.76 285.282 280.92 279.782 278.5 272.062C273.58 257.622 273.91 243.282 279.5 229.062C283.93 223.132 289.09 218.132 295 214.062Z" fill="#030303"/>
<path fill-rule="evenodd" clip-rule="evenodd" d="M72.0001 221.062C72.7301 234.812 74.2301 248.482 76.5001 262.062C82.2501 290.132 88.0901 318.132 94.0001 346.062C86.1001 341.512 78.4301 336.512 71.0001 331.062C67.0301 321.782 62.5301 312.782 57.5001 304.062C56.1501 284.872 57.4801 265.872 61.5001 247.062C64.7301 238.172 68.2301 229.512 72.0001 221.062Z" fill="#AF7966"/>
<path fill-rule="evenodd" clip-rule="evenodd" d="M295 225.061C301.09 223.701 305.59 225.701 308.5 231.061C308.83 237.081 308.5 243.081 307.5 249.061C303.01 253.821 297.51 255.321 291 253.561C288.5 250.391 286 247.231 283.5 244.061C282.59 240.111 283.26 236.441 285.5 233.061C289.47 231.191 292.63 228.521 295 225.061Z" fill="#F4F4F4"/>
<path fill-rule="evenodd" clip-rule="evenodd" d="M188 228.062C196.34 227.892 204.67 228.062 213 228.562C219.72 229.342 224.88 232.512 228.5 238.062C228.83 239.732 229.17 241.392 229.5 243.062C237.34 250.412 241.01 259.412 240.5 270.062C237.22 277.902 233.55 285.572 229.5 293.062C219.29 303.692 206.79 308.192 192 306.562C184.48 303.052 177.98 298.222 172.5 292.062C170.35 286.612 168.02 281.282 165.5 276.062C165.32 270.652 165.15 265.322 165 260.062C161.12 264.652 157.12 269.152 153 273.562C142.42 277.622 138.92 274.122 142.5 263.062C148.28 252.282 156.45 243.782 167 237.562C173.83 233.812 180.83 230.642 188 228.062Z" fill="#040404"/>
<path fill-rule="evenodd" clip-rule="evenodd" d="M209 239.061C218.28 238.841 223.28 243.341 224 252.561C223.93 255.151 223.43 257.651 222.5 260.061C220.03 265.701 215.86 269.371 210 271.061C207.18 270.421 204.68 269.091 202.5 267.061C200.22 263.561 198.72 259.731 198 255.561C199.09 248.171 202.76 242.671 209 239.061Z" fill="#F3F3F3"/>
<path fill-rule="evenodd" clip-rule="evenodd" d="M283 299.061C287.65 297.981 290.65 299.641 292 304.061C289.64 311.611 285.64 318.111 280 323.561C276 324.231 272 324.231 268 323.561C262.81 321.501 257.65 319.671 252.5 318.061C249.93 310.291 252.76 307.131 261 308.561C265.23 310.361 269.57 311.861 274 313.061C277.5 308.741 280.5 304.071 283 299.061Z" fill="#0C0C0C"/>
</svg>
