<svg width="500" height="500" viewBox="0 0 500 500" fill="none" xmlns="http://www.w3.org/2000/svg">
<path fill-rule="evenodd" clip-rule="evenodd" d="M288 112.062C282.57 116.326 276.57 119.659 270 122.062C266.46 124 262.79 125.667 259 127.062C242.28 135.118 224.94 136.784 207 132.062C203.44 132.278 199.94 131.944 196.5 131.062C194.92 131.606 193.42 132.273 192 133.062C186.78 132.543 181.78 131.21 177 129.062C168.63 124.206 160.63 118.706 153 112.562C146.17 104.395 138.67 96.8949 130.5 90.0619C123.3 75.9574 127.47 68.1241 143 66.5619C158.23 72.9498 172.89 80.4498 187 89.0619C192.72 72.7238 198.56 56.3905 204.5 40.0619C209.5 36.0619 214.5 36.0619 219.5 40.0619C221.54 44.4653 222.54 49.132 222.5 54.0619C225.82 63.8473 229.32 73.514 233 83.0619C240.98 67.1074 249.48 51.4408 258.5 36.0619C262.24 32.3025 266.74 31.1358 272 32.5619C274.83 34.0619 277 36.2286 278.5 39.0619C279.17 46.3952 279.17 53.7286 278.5 61.0619C277.33 66.3907 276.67 71.724 276.5 77.0619C287.07 67.1649 296.9 56.6649 306 45.5619C314.35 41.9059 319.68 44.4059 322 53.0619C321.6 54.7585 321.1 56.4251 320.5 58.0619C311.58 73.5719 301.91 88.5719 291.5 103.062C290.23 106.046 289.06 109.046 288 112.062Z" fill="#4DAF50"/>
<path fill-rule="evenodd" clip-rule="evenodd" d="M310 177.062C306.38 176.318 302.71 175.985 299 176.062C297.28 175.338 295.45 174.671 293.5 174.062C285.5 163.395 277.5 152.729 269.5 142.062C259.62 152.201 250.45 162.868 242 174.062C234.68 176.058 227.35 178.058 220 180.062C221.46 178.099 223.13 176.266 225 174.562C217.1 162.659 208.43 151.326 199 140.562C195.2 139.348 192.86 136.848 192 133.062C193.42 132.273 194.92 131.606 196.5 131.062C199.94 131.944 203.44 132.278 207 132.062C216.79 142.523 225.46 153.856 233 166.062C242.44 154.448 252.44 143.282 263 132.562C261.84 130.57 260.5 128.737 259 127.062C262.79 125.667 266.46 124 270 122.062C270.31 123.04 270.98 123.707 272 124.062C275.74 120.312 280.24 117.978 285.5 117.062C290.52 118.104 292.19 121.104 290.5 126.062C285.81 128.083 281.64 130.916 278 134.562C286.14 145.538 294.48 156.371 303 167.062C306.72 162.539 311.39 159.539 317 158.062C321.57 158.864 323.4 161.53 322.5 166.062C317.55 168.85 313.38 172.516 310 177.062Z" fill="#FEC108"/>
<path fill-rule="evenodd" clip-rule="evenodd" d="M259 127.062C260.5 128.737 261.84 130.57 263 132.562C252.44 143.282 242.44 154.448 233 166.062C225.46 153.856 216.79 142.523 207 132.062C224.94 136.784 242.28 135.118 259 127.062Z" fill="#FDEA3A"/>
<path fill-rule="evenodd" clip-rule="evenodd" d="M177 129.062C181.78 131.21 186.78 132.543 192 133.062C192.86 136.848 195.2 139.348 199 140.562C208.43 151.326 217.1 162.659 225 174.562C223.13 176.266 221.46 178.099 220 180.062C208.75 185.019 198.09 191.019 188 198.062C183.86 188.437 178.69 179.437 172.5 171.062C165.04 164.67 161.38 166.337 161.5 176.062C168.69 185.759 174.86 196.092 180 207.062C174.69 213.212 169.52 219.545 164.5 226.062C161.48 233.077 160.32 240.41 161 248.062C156.69 243.51 152.19 243.177 147.5 247.062C146.79 249.533 147.13 251.867 148.5 254.062C151.86 255.922 154.36 258.589 156 262.062C155.23 263.958 154.23 265.625 153 267.062C146.52 261.302 140.18 255.302 134 249.062C135.03 235.7 135.53 222.367 135.5 209.062C138.01 192.872 143.67 177.872 152.5 164.062C160.89 152.516 169.05 140.849 177 129.062Z" fill="#FEEA3C"/>
<path fill-rule="evenodd" clip-rule="evenodd" d="M299 176.062C286.96 173.922 274.8 172.588 262.5 172.062C255.62 172.36 248.79 173.026 242 174.062C250.45 162.868 259.62 152.201 269.5 142.062C277.5 152.729 285.5 163.395 293.5 174.062C295.45 174.671 297.28 175.338 299 176.062Z" fill="#FFEA3C"/>
<path fill-rule="evenodd" clip-rule="evenodd" d="M382 249.062C378.48 254.639 373.48 256.472 367 254.562C365.35 253.092 364.35 251.259 364 249.062C367 240.072 371.33 231.739 377 224.062C382.41 215.588 387.57 206.922 392.5 198.062C394.57 191.629 396.4 185.129 398 178.562C396.9 176.742 395.4 175.242 393.5 174.062C392.7 171.318 391.7 168.651 390.5 166.062C388.7 158.43 391.53 154.597 399 154.562C401.67 155.895 403.67 157.895 405 160.562C406.63 161.87 408.47 162.704 410.5 163.062C415.15 161.098 419.81 159.098 424.5 157.062C431.72 159.804 432.89 164.304 428 170.562C422.33 173.395 416.67 176.229 411 179.062C409.04 190.512 406.54 201.845 403.5 213.062C398.1 222.144 393.1 231.477 388.5 241.062C386.5 243.893 384.33 246.559 382 249.062Z" fill="#040403"/>
<path fill-rule="evenodd" clip-rule="evenodd" d="M188.001 198.061C185.301 201.087 182.641 204.087 180.001 207.061C174.861 196.091 168.691 185.758 161.501 176.061C161.381 166.336 165.041 164.669 172.501 171.061C178.691 179.436 183.861 188.436 188.001 198.061Z" fill="#FFC109"/>
<path fill-rule="evenodd" clip-rule="evenodd" d="M298.999 176.062C302.709 175.985 306.379 176.318 309.999 177.062C316.129 178.462 321.799 180.962 326.999 184.562C336.719 192.606 344.549 202.106 350.499 213.062C354.349 222.117 355.519 231.45 353.999 241.062C353.049 244.903 351.719 248.57 349.999 252.062C347.529 255.366 344.529 258.2 340.999 260.562C330.569 265.645 319.899 269.811 308.999 273.062C303.369 274.553 297.699 275.886 291.999 277.062C277.129 280.032 262.469 283.365 247.999 287.062C244.299 287.57 240.639 288.236 236.999 289.062C232.389 290.007 227.719 290.674 222.999 291.062C218.329 291.062 213.669 291.062 208.999 291.062C197.289 289.373 186.959 284.706 177.999 277.062C169.349 269.096 163.689 259.43 160.999 248.062C160.319 240.41 161.479 233.077 164.499 226.062C169.519 219.545 174.689 213.212 179.999 207.062C182.639 204.088 185.299 201.088 187.999 198.062C198.089 191.019 208.749 185.019 219.999 180.062C227.349 178.058 234.679 176.058 241.999 174.062C248.789 173.026 255.619 172.36 262.499 172.062C274.799 172.588 286.959 173.922 298.999 176.062Z" fill="#FDFCFC"/>
<path fill-rule="evenodd" clip-rule="evenodd" d="M134 249.062C140.18 255.302 146.52 261.302 153 267.062C152.72 270.281 151.39 272.947 149 275.062C144.64 275.271 140.64 274.271 137 272.062C136.66 271.224 135.99 270.89 135 271.062C129.43 267.001 124.26 262.334 119.5 257.062C107.85 242.427 97.18 227.093 87.5 211.062C83.55 208.852 79.38 207.019 75 205.562C72.73 203.797 71.06 201.63 70 199.062C70.22 197.624 70.72 196.291 71.5 195.062C74.33 193.194 76.83 191.028 79 188.562C82.92 187.603 86.09 188.77 88.5 192.062C91.67 189.562 94.83 187.062 98 184.562C105.83 183.062 109 186.229 107.5 194.062C104.76 197.216 102.26 200.55 100 204.062C111.39 219.104 122.72 234.104 134 249.062Z" fill="#050504"/>
<path fill-rule="evenodd" clip-rule="evenodd" d="M288.001 193.062C300.481 193.925 312.821 195.759 325.001 198.562C330.991 202.142 337.161 205.309 343.501 208.062C344.241 210.003 344.081 211.836 343.001 213.562C336.491 214.926 330.491 213.76 325.001 210.062C325.851 221.674 323.351 232.674 317.501 243.062C313.721 245.878 310.221 249.045 307.001 252.562C299.301 252.56 291.641 251.893 284.001 250.562C277.431 248.324 273.261 243.824 271.501 237.062C268.211 227.381 268.211 217.714 271.501 208.062C272.711 204.803 274.541 201.97 277.001 199.562C280.111 196.344 283.781 194.177 288.001 193.062Z" fill="#040404"/>
<path fill-rule="evenodd" clip-rule="evenodd" d="M284 202.061C288.41 201.179 291.91 202.513 294.5 206.061C294.83 210.751 294.5 215.418 293.5 220.061C290.19 223.888 286.03 225.055 281 223.561C279.17 221.061 277.33 218.561 275.5 216.061C275.02 213.648 275.35 211.315 276.5 209.061C279.36 207.059 281.86 204.726 284 202.061Z" fill="#F6F6F6"/>
<path fill-rule="evenodd" clip-rule="evenodd" d="M202.999 204.062C210.399 203.762 217.729 204.262 224.999 205.562C230.619 206.847 233.789 210.347 234.499 216.062C241.809 222.651 244.149 230.651 241.499 240.062C235.579 257.606 223.409 265.44 204.999 263.562C199.949 261.173 195.449 258.007 191.499 254.062C189.689 249.609 187.689 245.276 185.499 241.062C185.249 236.942 185.089 232.942 184.999 229.062C181.879 232.687 178.539 236.187 174.999 239.562C172.689 240.059 170.359 240.225 167.999 240.062C167.829 236.712 167.999 233.379 168.499 230.062C172.279 222.614 177.779 216.78 184.999 212.562C190.969 209.408 196.969 206.574 202.999 204.062Z" fill="#040404"/>
<path fill-rule="evenodd" clip-rule="evenodd" d="M218 213.061C225.36 212.428 229.36 215.761 230 223.061C230.07 230.237 226.73 234.904 220 237.061C210.31 232.832 208.15 226.166 213.5 217.061C214.9 215.491 216.4 214.157 218 213.061Z" fill="#F4F4F4"/>
<path fill-rule="evenodd" clip-rule="evenodd" d="M354 241.062C358.97 246.874 363.8 252.874 368.5 259.062C369.17 261.062 369.17 263.062 368.5 265.062C356.98 276.583 347.81 289.75 341 304.562C345.89 312.162 351.39 319.328 357.5 326.062C359.74 332.827 357.24 335.66 350 334.562C344.48 328.543 339.15 322.376 334 316.062C324.96 326.975 317.29 338.808 311 351.562C313.11 354.68 315.61 357.514 318.5 360.062C322.06 367.333 319.9 370.5 312 369.562C310.03 367.589 308.03 365.589 306 363.562C305.33 362.895 304.67 362.895 304 363.562C296.55 372.637 289.21 381.804 282 391.062C279 393.729 276 393.729 273 391.062C271.98 389.13 271.81 387.13 272.5 385.062C280.33 374.729 288.17 364.395 296 354.062C288.41 344.637 279.41 336.804 269 330.562C268.33 329.895 267.67 329.895 267 330.562C257.43 344.138 247.09 357.138 236 369.562C241.22 375.78 246.05 382.28 250.5 389.062C252.19 395.905 249.69 398.738 243 397.562C238.2 391.42 233.36 385.253 228.5 379.062C224.72 383.763 220.72 384.096 216.5 380.062C215.37 375.984 216.71 372.984 220.5 371.062C214.75 356.077 207.25 341.91 198 328.562C197.17 327.874 196.5 328.041 196 329.062C193.25 336.054 188.92 341.888 183 346.562C177.16 348.042 174.33 345.875 174.5 340.062C181.28 333.158 185.94 325.158 188.5 316.062C179.44 302.663 170.77 288.996 162.5 275.062C159.92 280.139 156.75 284.806 153 289.062C146.7 290.925 143.86 288.592 144.5 282.062C146.22 279.845 147.72 277.512 149 275.062C151.39 272.947 152.72 270.281 153 267.062C154.23 265.625 155.23 263.958 156 262.062C154.36 258.589 151.86 255.922 148.5 254.062C147.13 251.867 146.79 249.533 147.5 247.062C152.19 243.177 156.69 243.51 161 248.062C163.69 259.43 169.35 269.096 178 277.062C183.14 288.002 189.3 298.335 196.5 308.062C200.88 302.518 205.05 296.851 209 291.062C213.67 291.062 218.33 291.062 223 291.062C216.69 299.71 210.36 308.377 204 317.062C209.08 324.224 213.92 331.557 218.5 339.062C221.39 346.504 225.05 353.504 229.5 360.062C240.05 347.181 250.22 334.014 260 320.562C256.8 317.693 253.96 314.527 251.5 311.062C246.9 303.529 242.07 296.195 237 289.062C240.64 288.236 244.3 287.57 248 287.062C249.52 287.073 250.68 287.739 251.5 289.062C255.45 297.31 260.62 304.643 267 311.062C275.36 299.71 283.69 288.377 292 277.062C297.7 275.886 303.37 274.553 309 273.062C317.55 279.272 325.55 286.272 333 294.062C338.93 282.3 346.59 271.8 356 262.562C353.6 259.251 351.6 255.751 350 252.062C351.72 248.57 353.05 244.903 354 241.062Z" fill="#FEC108"/>
<path fill-rule="evenodd" clip-rule="evenodd" d="M287.999 112.062C297.229 116.084 306.229 120.584 314.999 125.562C323.259 132.946 331.429 140.446 339.499 148.062C347.249 161.229 355.249 174.229 363.499 187.062C369.189 199.084 373.689 211.417 376.999 224.062C371.329 231.739 366.999 240.072 363.999 249.062C364.349 251.259 365.349 253.092 366.999 254.562C373.479 256.472 378.479 254.639 381.999 249.062C383.429 252.465 384.259 256.132 384.499 260.062C385.609 274.717 385.939 289.384 385.499 304.062C381.909 313.752 379.909 323.752 379.499 334.062C378.499 336.729 377.499 339.395 376.499 342.062C361.089 364.013 341.259 380.68 316.999 392.062C309.619 387.984 305.289 389.984 303.999 398.062C293.459 401.533 282.789 404.7 271.999 407.562C265.679 408.062 259.339 408.228 252.999 408.062C251.139 401.36 246.809 398.527 239.999 399.562C238.789 400.601 237.789 401.768 236.999 403.062C221.779 402.045 207.449 397.878 193.999 390.562C186.619 384.18 178.949 378.18 170.999 372.562C160.649 362.889 151.819 352.056 144.499 340.062C139.249 327.954 136.409 315.287 135.999 302.062C135.669 291.881 136.009 281.881 136.999 272.062C140.639 274.271 144.639 275.271 148.999 275.062C147.719 277.512 146.219 279.845 144.499 282.062C143.859 288.592 146.699 290.925 152.999 289.062C156.749 284.806 159.919 280.139 162.499 275.062C170.769 288.996 179.439 302.663 188.499 316.062C185.939 325.158 181.279 333.158 174.499 340.062C174.329 345.875 177.159 348.042 182.999 346.562C188.919 341.888 193.249 336.054 195.999 329.062C196.499 328.041 197.169 327.874 197.999 328.562C207.249 341.91 214.749 356.077 220.499 371.062C216.709 372.984 215.369 375.984 216.499 380.062C220.719 384.096 224.719 383.763 228.499 379.062C233.359 385.253 238.199 391.42 242.999 397.562C249.689 398.738 252.189 395.905 250.499 389.062C246.049 382.28 241.219 375.78 235.999 369.562C247.089 357.138 257.429 344.138 266.999 330.562C267.669 329.895 268.329 329.895 268.999 330.562C279.409 336.804 288.409 344.637 295.999 354.062C288.169 364.395 280.329 374.729 272.499 385.062C271.809 387.13 271.979 389.13 272.999 391.062C275.999 393.729 278.999 393.729 281.999 391.062C289.209 381.804 296.549 372.637 303.999 363.562C304.669 362.895 305.329 362.895 305.999 363.562C308.029 365.589 310.029 367.589 311.999 369.562C319.899 370.5 322.059 367.333 318.499 360.062C315.609 357.514 313.109 354.68 310.999 351.562C317.289 338.808 324.959 326.975 333.999 316.062C339.149 322.376 344.479 328.543 349.999 334.562C357.239 335.66 359.739 332.827 357.499 326.062C351.389 319.328 345.889 312.162 340.999 304.562C347.809 289.75 356.979 276.583 368.499 265.062C369.169 263.062 369.169 261.062 368.499 259.062C363.799 252.874 358.969 246.874 353.999 241.062C355.519 231.45 354.349 222.117 350.499 213.062C344.549 202.106 336.719 192.606 326.999 184.562C321.799 180.962 316.129 178.462 309.999 177.062C313.379 172.516 317.549 168.85 322.499 166.062C323.399 161.53 321.569 158.864 316.999 158.062C311.389 159.539 306.719 162.539 302.999 167.062C294.479 156.371 286.139 145.538 277.999 134.562C281.639 130.916 285.809 128.083 290.499 126.062C292.189 121.104 290.519 118.104 285.499 117.062C280.239 117.978 275.739 120.312 271.999 124.062C270.979 123.707 270.309 123.04 269.999 122.062C276.569 119.659 282.569 116.326 287.999 112.062Z" fill="#FEEA3B"/>
<path fill-rule="evenodd" clip-rule="evenodd" d="M350 252.062C351.6 255.751 353.6 259.251 356 262.562C346.59 271.8 338.93 282.3 333 294.062C325.55 286.272 317.55 279.272 309 273.062C319.9 269.811 330.57 265.645 341 260.562C344.53 258.2 347.53 255.366 350 252.062Z" fill="#FFEA3C"/>
<path fill-rule="evenodd" clip-rule="evenodd" d="M276 258.062C279.36 257.435 281.36 258.768 282 262.062C280.48 269.797 276.15 275.131 269 278.062C262.99 276.339 257.16 274.339 251.5 272.062C250.51 266.06 253.01 263.894 259 265.562C262.24 267.201 265.58 268.201 269 268.562C271.2 264.885 273.53 261.385 276 258.062Z" fill="#0D0D0D"/>
<path fill-rule="evenodd" clip-rule="evenodd" d="M134.999 271.061C135.989 270.889 136.659 271.223 136.999 272.061C136.009 281.88 135.669 291.88 135.999 302.061C135.009 291.908 134.669 281.575 134.999 271.061Z" fill="#FBF4B2"/>
<path fill-rule="evenodd" clip-rule="evenodd" d="M292 277.062C283.69 288.377 275.36 299.71 267 311.062C260.62 304.643 255.45 297.31 251.5 289.062C250.68 287.739 249.52 287.073 248 287.062C262.47 283.365 277.13 280.032 292 277.062Z" fill="#FFEA3D"/>
<path fill-rule="evenodd" clip-rule="evenodd" d="M178 277.062C186.96 284.706 197.29 289.373 209 291.062C205.05 296.851 200.88 302.518 196.5 308.062C189.3 298.335 183.14 288.002 178 277.062Z" fill="#FFEA3C"/>
<path fill-rule="evenodd" clip-rule="evenodd" d="M302 282.062C306.79 285.683 311.46 289.516 316 293.562C320.1 296.989 323.43 300.989 326 305.562C317.88 317.97 309.88 330.47 302 343.062C297.51 339.077 293.18 334.911 289 330.562C283.6 327.992 278.94 324.492 275 320.062C284.03 307.377 293.03 294.711 302 282.062Z" fill="#FFEA3A"/>
<path fill-rule="evenodd" clip-rule="evenodd" d="M237 289.062C242.07 296.195 246.9 303.529 251.5 311.062C253.96 314.527 256.8 317.693 260 320.562C250.22 334.014 240.05 347.181 229.5 360.062C225.05 353.504 221.39 346.504 218.5 339.062C213.92 331.557 209.08 324.224 204 317.062C210.36 308.377 216.69 299.71 223 291.062C227.72 290.674 232.39 290.007 237 289.062Z" fill="#FFEA3A"/>
<path fill-rule="evenodd" clip-rule="evenodd" d="M317 392.062C317.94 394.831 319.1 397.498 320.5 400.062C320 415.412 320.17 430.745 321 446.062C321.33 446.729 321.67 447.395 322 448.062C331.55 443.852 338.55 446.352 343 455.562C342.7 458.485 341.37 460.819 339 462.562C329.45 465.198 320.28 464.365 311.5 460.062C310.54 457.185 309.21 454.518 307.5 452.062C306.53 434.037 305.37 416.037 304 398.062C305.29 389.984 309.62 387.984 317 392.062Z" fill="#070707"/>
<path fill-rule="evenodd" clip-rule="evenodd" d="M253.001 408.061C254.281 426.105 255.451 444.105 256.501 462.061C252.941 465 248.781 466.5 244.001 466.561C236.891 467.485 229.891 467.152 223.001 465.561C219.441 462.542 219.101 459.209 222.001 455.561C226.481 454.935 230.481 453.269 234.001 450.561C235.971 450.066 237.971 449.899 240.001 450.061C239.241 434.374 238.241 418.708 237.001 403.061C237.791 401.767 238.791 400.6 240.001 399.561C246.811 398.526 251.141 401.359 253.001 408.061Z" fill="#060605"/>
</svg>
