<svg width="500" height="500" viewBox="0 0 500 500" fill="none" xmlns="http://www.w3.org/2000/svg">
<path fill-rule="evenodd" clip-rule="evenodd" d="M261.999 71.062C264.029 78.132 266.363 85.132 268.999 92.062C280.767 87.682 286.6 91.682 286.499 104.062C283.491 108.232 279.991 111.902 275.999 115.062C276.812 116.372 277.812 117.542 278.999 118.562C282.382 119.442 285.715 120.442 288.999 121.562C292.999 125.232 292.999 128.892 288.999 132.562C286.424 133.522 283.758 134.022 280.999 134.062C272.013 132.952 263.013 132.452 253.999 132.562C249.156 137.242 243.489 140.412 236.999 142.062C235.561 141.842 234.228 141.342 232.999 140.562C231.55 137.442 229.383 134.942 226.499 133.062C225.143 127.772 226.977 124.102 231.999 122.062C229.066 120.632 226.566 118.632 224.499 116.062C221.814 109.932 223.648 105.762 229.999 103.562C235.934 102.322 241.934 101.822 247.999 102.062C244.945 93.312 241.945 84.652 238.999 76.062C236.405 69.042 233.405 62.212 229.999 55.562C233.925 42.242 242.425 38.082 255.499 43.062C257.645 45.692 258.978 48.692 259.499 52.062C259.578 58.552 260.412 64.882 261.999 71.062Z" fill="#1F7112"/>
<path fill-rule="evenodd" clip-rule="evenodd" d="M262.001 71.0615C274.08 73.2715 285.413 77.4415 296.001 83.5615C299.481 86.2115 302.815 89.0415 306.001 92.0615C315.576 80.5915 327.576 77.0915 342.001 81.5615C356.279 88.2815 369.112 97.1215 380.501 108.062C384.448 115.232 387.614 122.732 390.001 130.562C392.581 132.482 394.414 134.982 395.501 138.062C398.323 149.022 400.99 160.022 403.501 171.062C404.18 201.352 402.014 231.352 397.001 261.062C391.005 267.892 384.505 274.222 377.501 280.062C376.834 281.062 376.834 282.062 377.501 283.062C378.523 283.912 379.356 284.912 380.001 286.062C376.465 287.722 374.965 290.392 375.501 294.062C378.572 295.522 381.405 295.192 384.001 293.062C382.458 297.822 380.625 302.482 378.501 307.062C369.834 323.732 361.168 340.392 352.501 357.062C344.097 369.632 333.597 379.962 321.001 388.062C316.248 389.232 311.582 390.232 307.001 391.062C294.948 391.452 282.948 390.952 271.001 389.562C264.349 387.052 258.349 383.552 253.001 379.062C242.39 385.332 231.057 390.162 219.001 393.562C215.349 394.062 211.683 394.232 208.001 394.062C201.75 393.102 196.083 390.772 191.001 387.062C187.181 384.092 183.181 381.262 179.001 378.562C167.447 365.672 155.28 353.512 142.501 342.062C138.834 337.062 135.168 332.062 131.501 327.062C125.916 318.222 120.582 309.222 115.501 300.062C112.853 286.322 110.019 272.652 107.001 259.062C117.326 268.232 120.492 266.232 116.501 253.062C111.481 246.342 106.981 239.342 103.001 232.062C100.422 205.732 102.256 179.732 108.501 154.062C112.637 143.792 117.304 133.792 122.501 124.062C131.81 108.752 143.31 95.2515 157.001 83.5615C162.383 83.2515 167.716 82.5915 173.001 81.5615C186.906 78.5215 199.239 81.5215 210.001 90.5615C213.466 93.0215 216.632 95.8615 219.501 99.0615C221.98 93.4315 224.98 88.1015 228.501 83.0615C231.629 80.0915 235.129 77.7515 239.001 76.0615C241.947 84.6515 244.947 93.3115 248.001 102.062C241.936 101.822 235.936 102.322 230.001 103.562C223.65 105.762 221.816 109.932 224.501 116.062C226.568 118.632 229.068 120.632 232.001 122.062C226.979 124.102 225.145 127.772 226.501 133.062C229.385 134.942 231.552 137.442 233.001 140.562C234.23 141.342 235.563 141.842 237.001 142.062C243.491 140.412 249.158 137.242 254.001 132.562C263.015 132.452 272.015 132.952 281.001 134.062C283.76 134.022 286.426 133.522 289.001 132.562C293.001 128.892 293.001 125.232 289.001 121.562C285.717 120.442 282.384 119.442 279.001 118.562C277.814 117.542 276.814 116.372 276.001 115.062C279.993 111.902 283.493 108.232 286.501 104.062C286.602 91.6815 280.769 87.6815 269.001 92.0615C266.365 85.1315 264.031 78.1315 262.001 71.0615Z" fill="#4CAF50"/>
<path fill-rule="evenodd" clip-rule="evenodd" d="M103 232.062C106.98 239.342 111.48 246.342 116.5 253.062C120.491 266.232 117.325 268.232 107 259.062C99.378 249.602 91.5444 240.272 83.5 231.062C77.2343 217.432 72.0676 203.432 68 189.062C59.7316 187.922 52.2316 184.922 45.5 180.062C44.8333 179.062 44.8333 178.062 45.5 177.062C48.0511 175.362 50.5511 173.692 53 172.062C58.0751 174.772 63.0751 174.612 68 171.562C69.6227 167.132 71.1227 162.632 72.5 158.062C74.8333 155.392 77.1667 155.392 79.5 158.062C80.1152 159.682 81.1152 161.012 82.5 162.062C83.1654 168.572 82.332 174.912 80 181.062C83.2398 196.222 88.7398 210.552 96.5 224.062C98.446 226.982 100.613 229.652 103 232.062Z" fill="#050505"/>
<path fill-rule="evenodd" clip-rule="evenodd" d="M351 230.061C348.536 227.991 345.869 226.161 343 224.561C334.141 222.511 325.475 219.851 317 216.561C296.398 210.471 282.565 217.641 275.5 238.061C272.586 250.881 273.919 263.211 279.5 275.061C289.958 284.051 302.125 287.891 316 286.561C320.159 283.311 324.492 280.311 329 277.561C337.261 265.941 341.594 253.111 342 239.061C345 240.891 348 242.731 351 244.561C352.293 245.051 353.627 245.221 355 245.061C362.095 269.531 356.095 290.031 337 306.561C315.632 322.401 291.632 331.241 265 333.061C247.285 331.301 229.619 329.141 212 326.561C191.094 321.371 175.261 309.541 164.5 291.061C160.282 279.081 158.448 266.751 159 254.061C163.916 250.491 168.583 246.491 173 242.061C173.333 242.561 173.667 243.061 174 243.561C172.306 247.941 171.806 252.441 172.5 257.061C174.324 268.861 180.157 278.031 190 284.561C207.568 291.041 222.068 286.881 233.5 272.061C236.436 267.191 239.103 262.191 241.5 257.061C242.369 248.451 240.036 240.791 234.5 234.061C233.718 226.271 229.551 221.101 222 218.561C213.489 216.031 204.822 215.031 196 215.561C185.036 218.371 174.703 222.541 165 228.061C170.156 214.071 179.822 204.571 194 199.561C202.103 198.311 209.437 195.311 216 190.561C220 189.231 224 187.891 228 186.561C242.169 185.421 256.335 184.261 270.5 183.061C298.786 181.811 322.453 191.481 341.5 212.061C345.471 217.671 348.638 223.671 351 230.061Z" fill="#FCFDFC"/>
<path fill-rule="evenodd" clip-rule="evenodd" d="M383.999 293.062C381.403 295.192 378.57 295.522 375.499 294.062C374.963 290.392 376.463 287.722 379.999 286.062C379.354 284.912 378.521 283.912 377.499 283.062C376.832 282.062 376.832 281.062 377.499 280.062C384.503 274.222 391.003 267.892 396.999 261.062C408.941 249.212 418.441 235.542 425.499 220.062C427.214 217.802 429.047 215.632 430.999 213.562C419.879 209.162 415.712 200.992 418.499 189.062C420.437 186.582 422.604 186.412 424.999 188.562C427.741 192.692 430.741 196.692 433.999 200.562C439.045 201.412 443.879 200.912 448.499 199.062C450.76 199.002 452.76 199.672 454.499 201.062C456.339 208.212 453.839 213.052 446.999 215.562C444.759 216.542 442.426 217.042 439.999 217.062C439.812 219.122 439.312 221.122 438.499 223.062C435.305 228.112 432.638 233.452 430.499 239.062C424 248.052 418 257.392 412.499 267.062C404.378 277.352 394.878 286.022 383.999 293.062Z" fill="#050605"/>
<path fill-rule="evenodd" clip-rule="evenodd" d="M351 230.062C355.557 232.932 360.057 235.932 364.5 239.062C365.187 241.132 365.02 243.132 364 245.062C361.002 246.202 358.002 246.202 355 245.062C353.627 245.222 352.293 245.052 351 244.562C348 242.732 345 240.892 342 239.062C341.594 253.112 337.261 265.942 329 277.562C324.492 280.312 320.159 283.312 316 286.562C302.125 287.892 289.958 284.052 279.5 275.062C273.919 263.212 272.586 250.882 275.5 238.062C282.565 217.642 296.398 210.472 317 216.562C325.475 219.852 334.141 222.512 343 224.562C345.869 226.162 348.536 227.992 351 230.062Z" fill="#040404"/>
<path fill-rule="evenodd" clip-rule="evenodd" d="M159 254.062C156.456 254.462 154.289 253.792 152.5 252.062C151.833 248.732 151.833 245.392 152.5 242.062C156.561 237.172 160.727 232.512 165 228.062C174.703 222.542 185.036 218.372 196 215.562C204.822 215.032 213.489 216.032 222 218.562C229.551 221.102 233.718 226.272 234.5 234.062C240.036 240.792 242.369 248.452 241.5 257.062C239.103 262.192 236.436 267.192 233.5 272.062C222.068 286.882 207.568 291.042 190 284.562C180.157 278.032 174.324 268.862 172.5 257.062C171.806 252.442 172.306 247.942 174 243.562C173.667 243.062 173.333 242.562 173 242.062C168.583 246.492 163.916 250.492 159 254.062Z" fill="#040404"/>
<path fill-rule="evenodd" clip-rule="evenodd" d="M294.001 224.062C299.402 222.902 303.568 224.572 306.501 229.062C306.794 234.822 306.128 240.492 304.501 246.062C300.013 250.102 294.847 251.102 289.001 249.062C287.371 246.262 285.538 243.602 283.501 241.062C282.711 237.932 283.044 234.932 284.501 232.062C287.822 229.482 290.988 226.812 294.001 224.062Z" fill="#F6F6F6"/>
<path fill-rule="evenodd" clip-rule="evenodd" d="M214 228.061C222.133 227.181 226.8 230.851 228 239.061C227.501 248.371 222.834 254.041 214 256.061C207.502 254.041 204.169 249.541 204 242.561C205.271 236.151 208.604 231.321 214 228.061Z" fill="#F5F5F5"/>
<path fill-rule="evenodd" clip-rule="evenodd" d="M276 290.062C281.493 288.742 283.993 290.742 283.5 296.062C280.729 302.792 276.229 307.962 270 311.562C267.293 311.892 264.626 311.552 262 310.562C257.555 308.002 252.889 306.002 248 304.562C244.529 299.002 246.029 295.842 252.5 295.062C256.782 296.452 260.949 298.282 265 300.562C266 301.232 267 301.232 268 300.562C270.883 297.182 273.549 293.682 276 290.062Z" fill="#0A0A0A"/>
<path fill-rule="evenodd" clip-rule="evenodd" d="M191.001 387.062C196.083 390.772 201.75 393.102 208.001 394.062C205.159 409.442 201.992 424.772 198.501 440.062C195.973 443.692 194.306 447.692 193.501 452.062C189.434 454.842 184.934 456.672 180.001 457.562C172.255 458.462 164.588 458.122 157.001 456.562C150.985 454.292 149.652 450.452 153.001 445.062C161.704 441.512 170.704 439.012 180.001 437.562C181.83 437.292 183.33 436.452 184.501 435.062C186.051 418.942 188.217 402.942 191.001 387.062Z" fill="#050505"/>
<path fill-rule="evenodd" clip-rule="evenodd" d="M321 388.062C323.656 403.972 325.656 419.972 327 436.062C337.945 433.982 347.445 436.652 355.5 444.062C357.038 448.732 355.538 451.902 351 453.562C340.659 455.512 330.326 457.342 320 459.062C318.471 459.032 317.304 458.362 316.5 457.062C314.968 452.132 313.634 447.132 312.5 442.062C310.633 425.022 308.8 408.022 307 391.062C311.581 390.232 316.247 389.232 321 388.062Z" fill="#050505"/>
</svg>
