<svg width="500" height="500" viewBox="0 0 500 500" fill="none" xmlns="http://www.w3.org/2000/svg">
<path fill-rule="evenodd" clip-rule="evenodd" d="M246 76.0613C246.095 81.4513 245.595 86.7813 244.5 92.0613C242.201 97.9113 240.868 103.911 240.5 110.061C248.76 102.671 255.76 103.671 261.5 113.061C262.211 120.321 260.044 126.651 255 132.061C259.317 136.981 258.65 141.151 253 144.561C251 145.231 249 145.231 247 144.561C241 141.231 235 137.891 229 134.561C226 133.891 223 133.891 220 134.561C213.549 137.791 206.882 140.451 200 142.561C192.536 143.441 188.203 140.111 187 132.561C188.392 125.461 189.226 118.291 189.5 111.061C190.764 107.101 193.431 104.771 197.5 104.061C203.557 106.171 209.724 107.841 216 109.061C216.566 102.071 217.066 95.0713 217.5 88.0613C218.886 81.7413 220.052 75.4113 221 69.0613C223.566 62.1313 228.566 59.6313 236 61.5613C238.534 62.0813 240.7 63.2413 242.5 65.0613C244.301 68.5513 245.467 72.2213 246 76.0613Z" fill="#4FAF4F"/>
<path fill-rule="evenodd" clip-rule="evenodd" d="M221 69.0615C220.052 75.4115 218.886 81.7415 217.5 88.0615C217.066 95.0715 216.566 102.072 216 109.062C209.724 107.842 203.557 106.172 197.5 104.062C193.431 104.772 190.764 107.102 189.5 111.062C189.226 118.292 188.392 125.462 187 132.562C188.203 140.112 192.536 143.442 200 142.562C206.882 140.452 213.549 137.792 220 134.562C223 133.892 226 133.892 229 134.562C235 137.892 241 141.232 247 144.562C249 145.232 251 145.232 253 144.562C258.65 141.152 259.317 136.982 255 132.062C260.044 126.652 262.211 120.322 261.5 113.062C255.76 103.672 248.76 102.672 240.5 110.062C240.868 103.912 242.201 97.9115 244.5 92.0615C245.595 86.7815 246.095 81.4515 246 76.0615C256.944 79.8515 266.777 85.5115 275.5 93.0615C280.6 87.9615 285.767 82.7915 291 77.5615C295.172 74.0615 299.838 71.3915 305 69.5615C313.818 71.2715 322.818 72.2715 332 72.5615C339.5 74.7315 344.333 79.5615 346.5 87.0615C352.542 93.4315 358.208 100.102 363.5 107.062C367.067 113.992 369.401 121.332 370.5 129.062C371.167 139.392 371.167 149.732 370.5 160.062C367.943 171.962 364.609 183.622 360.5 195.062C359.244 218.022 356.078 240.682 351 263.062C347.918 266.972 347.251 271.302 349 276.062C347.694 283.422 346.194 290.752 344.5 298.062C339.971 308.652 335.638 319.312 331.5 330.062C328.667 335.732 325.334 341.062 321.5 346.062C317.105 350.622 312.605 354.962 308 359.062C302.628 361.752 297.295 364.412 292 367.062C272.481 376.612 252.147 378.612 231 373.062C221.694 377.202 212.027 378.532 202 377.062C195.801 375.662 189.801 373.662 184 371.062C169.227 361.472 155.727 350.142 143.5 337.062C132.762 325.162 122.262 313.162 112 301.062C113.011 297.452 113.178 293.782 112.5 290.062C110.93 289.202 109.263 288.542 107.5 288.062C106.094 288.972 104.594 289.642 103 290.062C78.1558 254.692 66.3228 215.362 67.4998 172.062C72.3738 147.332 81.3738 124.332 94.4998 103.062C106.238 92.4515 120.071 86.6115 136 85.5615C144.321 84.8215 152.321 86.1615 160 89.5615C167.095 94.1515 173.762 99.3215 180 105.062C183.481 95.0915 188.815 86.2515 196 78.5615C203.229 72.5415 211.562 69.3715 221 69.0615Z" fill="#FEC109"/>
<path fill-rule="evenodd" clip-rule="evenodd" d="M329 234.061C321.578 230.851 314.245 227.351 307 223.561C298.938 222.211 290.938 220.541 283 218.561C278 217.891 273 217.891 268 218.561C255.889 225.121 249.889 235.451 250 249.561C251.244 275.721 264.91 286.381 291 281.561C295.519 278.041 299.685 274.211 303.5 270.061C306.398 263.601 308.731 256.931 310.5 250.061C310.863 245.691 310.863 241.361 310.5 237.061C315.886 241.321 322.053 243.321 329 243.061C331.746 264.361 326.746 283.521 314 300.561C306.777 306.781 298.777 311.781 290 315.561C278.083 318.421 266.416 322.091 255 326.561C232.436 333.701 210.436 332.371 189 322.561C180.906 319.441 173.74 314.941 167.5 309.061C162.5 302.731 157.5 296.391 152.5 290.061C148.042 281.601 145.542 272.601 145 263.061C146.808 263.071 148.475 262.571 150 261.561C153.167 258.391 156.333 255.231 159.5 252.061C158.731 262.741 161.397 272.411 167.5 281.061C180.279 293.291 193.779 294.131 208 283.561C214.15 277.461 218.65 270.301 221.5 262.061C222.25 253.551 219.583 246.211 213.5 240.061C212.831 233.051 208.997 228.891 202 227.561C187.498 224.031 173.831 226.031 161 233.561C157.305 236.071 153.638 238.571 150 241.061C157.179 213.051 174.512 194.551 202 185.561C222.648 183.161 243.315 182.821 264 184.561C284.833 187.561 303 196.061 318.5 210.061C324.456 216.971 327.956 224.971 329 234.061Z" fill="#FDFDFC"/>
<path fill-rule="evenodd" clip-rule="evenodd" d="M348.999 276.061C347.25 271.301 347.917 266.971 350.999 263.061C367.464 257.911 380.631 248.241 390.499 234.061C393.744 227.241 397.244 220.571 400.999 214.061C396.55 210.001 393.217 205.161 390.999 199.561C393.462 193.201 397.795 191.531 403.999 194.561C406.151 196.981 407.484 199.821 407.999 203.061C408.999 203.391 409.999 203.731 410.999 204.061C415.357 202.801 419.523 201.131 423.499 199.061C433.476 199.981 435.309 204.151 428.999 211.561C426.372 213.461 423.538 214.961 420.499 216.061C412.003 227.721 404.003 239.721 396.499 252.061C387.818 261.411 377.985 269.251 366.999 275.561C360.938 278.411 354.938 278.581 348.999 276.061Z" fill="#050505"/>
<path fill-rule="evenodd" clip-rule="evenodd" d="M329.001 234.061C332.977 237.111 332.977 240.111 329.001 243.061C322.054 243.321 315.887 241.321 310.501 237.061C310.864 241.361 310.864 245.691 310.501 250.061C308.732 256.931 306.399 263.601 303.501 270.061C299.686 274.211 295.52 278.041 291.001 281.561C264.911 286.381 251.245 275.721 250.001 249.561C249.89 235.451 255.89 225.121 268.001 218.561C273.001 217.891 278.001 217.891 283.001 218.561C290.939 220.541 298.939 222.211 307.001 223.561C314.246 227.351 321.579 230.851 329.001 234.061Z" fill="#040404"/>
<path fill-rule="evenodd" clip-rule="evenodd" d="M145 263.062C143.678 263.232 142.511 262.902 141.5 262.062C140.833 258.732 140.833 255.392 141.5 252.062C144.58 248.492 147.413 244.832 150 241.062C153.638 238.572 157.305 236.072 161 233.562C173.831 226.032 187.498 224.032 202 227.562C208.997 228.892 212.831 233.052 213.5 240.062C219.583 246.212 222.25 253.552 221.5 262.062C218.65 270.302 214.15 277.462 208 283.562C193.779 294.132 180.279 293.292 167.5 281.062C161.397 272.412 158.731 262.742 159.5 252.062C156.333 255.232 153.167 258.392 150 261.562C148.475 262.572 146.808 263.072 145 263.062Z" fill="#050505"/>
<path fill-rule="evenodd" clip-rule="evenodd" d="M268 227.062C272.78 226.202 276.28 227.872 278.5 232.062C278.612 237.062 278.279 242.062 277.5 247.062C273.757 250.822 269.257 251.992 264 250.562C261.043 247.442 258.71 243.942 257 240.062C257.554 237.952 258.388 235.952 259.5 234.062C262.496 231.832 265.329 229.492 268 227.062Z" fill="#F3F3F3"/>
<path fill-rule="evenodd" clip-rule="evenodd" d="M195.999 236.062C203.554 235.452 207.554 238.952 207.999 246.562C207.802 254.152 204.135 258.992 196.999 261.062C194.906 261.072 193.073 260.412 191.499 259.062C185.068 249.902 186.568 242.232 195.999 236.062Z" fill="#F8F8F8"/>
<path fill-rule="evenodd" clip-rule="evenodd" d="M255.001 287.061C259.026 286.141 261.36 287.641 262.001 291.561C260.535 297.491 257.535 302.491 253.001 306.561C249.412 308.101 245.745 308.101 242.001 306.561C237.907 304.361 233.74 302.531 229.501 301.061C228.689 294.561 231.522 292.391 238.001 294.561C240.882 295.741 243.715 296.911 246.501 298.061C250.272 295.221 253.105 291.551 255.001 287.061Z" fill="#0A0A0A"/>
<path fill-rule="evenodd" clip-rule="evenodd" d="M112 301.062C108.675 309.202 105.842 317.532 103.5 326.062C102.666 335.402 101.833 344.732 101 354.062C110.04 354.262 115.706 358.762 118 367.562C118.061 369.272 117.394 370.602 116 371.562C112.191 372.152 108.524 371.652 105 370.062C97.776 371.932 90.609 373.932 83.5 376.062C79.611 376.012 77.445 374.012 77 370.062C78.763 363.972 82.096 358.972 87 355.062C85.952 333.352 89.452 312.352 97.5 292.062C99.084 290.702 100.918 290.032 103 290.062C104.594 289.642 106.094 288.972 107.5 288.062C109.263 288.542 110.93 289.202 112.5 290.062C113.178 293.782 113.011 297.452 112 301.062Z" fill="#050505"/>
<path fill-rule="evenodd" clip-rule="evenodd" d="M307.999 359.062C310.487 378.072 310.487 397.072 307.999 416.062C308.332 417.392 308.666 418.732 308.999 420.062C317.327 416.432 325.66 416.262 333.999 419.562C338.622 425.892 337.622 431.222 330.999 435.562C322.677 437.992 314.177 439.492 305.499 440.062C299.079 439.642 295.079 436.312 293.499 430.062C292.41 409.072 291.91 388.072 291.999 367.062C297.294 364.412 302.627 361.752 307.999 359.062Z" fill="#070707"/>
<path fill-rule="evenodd" clip-rule="evenodd" d="M184 371.062C189.801 373.662 195.801 375.662 202 377.062C197.01 392.872 190.01 407.702 181 421.562C189.598 419.162 196.765 421.332 202.5 428.062C204.923 432.722 203.756 436.222 199 438.562C196.157 439.012 193.324 439.512 190.5 440.062C185.38 439.732 180.213 439.572 175 439.562C170.836 438.742 167.669 436.572 165.5 433.062C164.094 428.032 163.594 423.032 164 418.062C171.461 402.662 178.128 386.992 184 371.062Z" fill="#060605"/>
</svg>
