<svg width="500" height="500" viewBox="0 0 500 500" fill="none" xmlns="http://www.w3.org/2000/svg">
<path fill-rule="evenodd" clip-rule="evenodd" d="M445.999 87.0619C443.399 94.3819 438.059 97.3819 429.999 96.0619C425.929 96.4219 422.259 95.4219 418.999 93.0619C417.279 90.6319 416.779 87.9719 417.499 85.0619C423.669 79.3819 428.509 72.7219 431.999 65.0619C436.699 57.5219 442.039 50.3519 447.999 43.5619C454.879 42.4419 457.719 45.2819 456.499 52.0619C451.899 63.3619 448.399 75.0219 445.999 87.0619Z" fill="#FBE83B"/>
<path fill-rule="evenodd" clip-rule="evenodd" d="M432 65.0617C428.51 72.7217 423.67 79.3817 417.5 85.0617C416.78 87.9717 417.28 90.6317 419 93.0617C417.63 92.9017 416.29 93.0717 415 93.5617C409.84 99.7217 404.34 105.552 398.5 111.062C393.74 117.572 389.74 124.572 386.5 132.062C384.47 139.822 381.47 147.152 377.5 154.062C370.99 161.222 363.49 162.722 355 158.562C350.75 166.742 345.08 173.742 338 179.562C333.45 181.112 328.79 181.442 324 180.562C322.57 180.092 321.4 179.262 320.5 178.062C314.04 185.222 306.54 186.722 298 182.562C295.69 180.922 294.19 178.762 293.5 176.062C292.85 169.702 293.01 163.362 294 157.062C285.55 156.832 280.88 152.502 280 144.062C280.29 140.692 281.45 137.692 283.5 135.062C285.85 133.532 288.02 131.862 290 130.062C315.06 104.192 345.06 86.5217 380 77.0617C382.69 65.2017 390.02 58.3717 402 56.5617C413.7 53.9417 423.7 56.7717 432 65.0617Z" fill="#9B27AF"/>
<path fill-rule="evenodd" clip-rule="evenodd" d="M445.999 87.0615C455.579 90.2015 464.909 94.0315 473.999 98.5615C478.019 101.572 480.849 105.402 482.499 110.062C483.459 119.722 483.789 129.382 483.499 139.062C480.329 146.232 475.169 151.392 467.999 154.562C451.559 161.212 434.559 165.712 416.999 168.062C417.069 179.742 416.729 191.402 415.999 203.062C421.749 245.632 414.919 285.962 395.499 324.062C386.369 334.862 376.869 345.362 366.999 355.562C350.289 368.262 332.289 378.922 312.999 387.562C312.479 388.122 312.139 388.792 311.999 389.562C314.919 397.562 318.749 405.062 323.499 412.062C329.829 403.862 337.999 398.862 347.999 397.062C360.609 399.182 364.439 406.182 359.499 418.062C352.219 426.792 344.389 434.962 335.999 442.562C326.439 448.242 317.939 447.072 310.499 439.062C303.909 428.222 297.579 417.222 291.499 406.062C290.359 403.132 289.519 400.132 288.999 397.062C271.979 401.032 254.979 401.032 237.999 397.062C237.829 405.072 237.999 413.072 238.499 421.062C247.569 423.682 256.069 427.512 263.999 432.562C270.939 439.932 270.599 446.932 262.999 453.562C260.459 455.402 257.629 456.232 254.499 456.062C243.249 454.502 232.089 452.672 220.999 450.562C215.139 447.382 211.639 442.552 210.499 436.062C210.329 419.022 209.499 402.022 207.999 385.062C187.969 375.012 169.309 363.012 151.999 349.062C150.639 345.962 148.299 344.292 144.999 344.062C145.419 343.342 146.079 342.842 146.999 342.562C141.489 335.042 137.489 326.882 134.999 318.062C134.119 311.002 133.119 304.002 131.999 297.062C131.479 289.072 131.139 281.072 130.999 273.062C130.999 265.732 130.999 258.392 130.999 251.062C130.289 235.292 132.459 219.962 137.499 205.062C139.429 200.802 141.769 196.802 144.499 193.062C162.829 172.312 184.999 157.142 210.999 147.562C236.609 138.302 262.949 132.462 289.999 130.062C288.019 131.862 285.849 133.532 283.499 135.062C281.449 137.692 280.289 140.692 279.999 144.062C280.879 152.502 285.549 156.832 293.999 157.062C293.009 163.362 292.849 169.702 293.499 176.062C294.189 178.762 295.689 180.922 297.999 182.562C306.539 186.722 314.039 185.222 320.499 178.062C321.399 179.262 322.569 180.092 323.999 180.562C328.789 181.442 333.449 181.112 337.999 179.562C345.079 173.742 350.749 166.742 354.999 158.562C363.489 162.722 370.989 161.222 377.499 154.062C381.469 147.152 384.469 139.822 386.499 132.062C389.739 124.572 393.739 117.572 398.499 111.062C404.339 105.552 409.839 99.7215 414.999 93.5615C416.289 93.0715 417.629 92.9015 418.999 93.0615C422.259 95.4215 425.929 96.4215 429.999 96.0615C438.059 97.3815 443.399 94.3815 445.999 87.0615Z" fill="#D4EDFD"/>
<path fill-rule="evenodd" clip-rule="evenodd" d="M435 109.061C442.88 108.111 446.05 111.441 444.5 119.061C442.27 123.421 438.77 124.921 434 123.561C428.49 118.291 428.82 113.461 435 109.061Z" fill="#0A0B0C"/>
<path fill-rule="evenodd" clip-rule="evenodd" d="M369.999 248.061C363.899 245.511 357.899 242.681 351.999 239.561C344.569 238.741 337.239 237.411 329.999 235.561C310.679 230.801 298.509 237.961 293.499 257.061C289.059 290.121 303.229 304.121 335.999 299.061C339.619 295.941 343.119 292.601 346.499 289.061C349.759 281.611 352.429 273.941 354.499 266.061C355.039 262.121 354.539 258.281 352.999 254.561C353.329 254.061 353.669 253.561 353.999 253.061C359.189 256.281 364.859 257.951 370.999 258.061C372.849 258.221 374.189 257.551 374.999 256.061C376.429 259.461 377.259 263.131 377.499 267.061C378.169 275.061 378.169 283.061 377.499 291.061C370.069 310.061 358.569 326.231 342.999 339.561C335.369 345.701 326.709 349.701 316.999 351.561C311.919 352.141 306.919 353.141 301.999 354.561C282.269 355.521 262.599 355.191 242.999 353.561C228.479 345.801 214.809 336.801 201.999 326.561C192.429 317.661 185.259 307.161 180.499 295.061C176.229 283.101 177.889 272.101 185.499 262.061C188.589 249.321 193.929 237.651 201.499 227.061C208.059 220.761 215.889 216.921 224.999 215.561C236.279 207.361 248.949 203.031 262.999 202.561C277.029 201.721 291.029 202.051 304.999 203.561C319.589 208.761 334.259 213.761 348.999 218.561C358.709 222.281 365.879 228.781 370.499 238.061C371.369 240.141 371.869 242.311 371.999 244.561C371.889 246.241 371.229 247.411 369.999 248.061Z" fill="#FDFDFD"/>
<path fill-rule="evenodd" clip-rule="evenodd" d="M370.001 248.061C374.271 249.291 375.941 251.961 375.001 256.061C374.191 257.551 372.851 258.221 371.001 258.061C364.861 257.951 359.191 256.281 354.001 253.061C353.671 253.561 353.331 254.061 353.001 254.561C354.541 258.281 355.041 262.121 354.501 266.061C352.431 273.941 349.761 281.611 346.501 289.061C343.121 292.601 339.621 295.941 336.001 299.061C303.231 304.121 289.061 290.121 293.501 257.061C298.511 237.961 310.681 230.801 330.001 235.561C337.241 237.411 344.571 238.741 352.001 239.561C357.901 242.681 363.901 245.511 370.001 248.061Z" fill="#040404"/>
<path fill-rule="evenodd" clip-rule="evenodd" d="M310.001 244.062C314.301 243.362 317.801 244.692 320.501 248.062C320.911 253.752 320.571 259.422 319.501 265.062C316.191 268.892 312.031 270.052 307.001 268.562C301.131 264.982 298.961 259.812 300.501 253.062C304.071 250.382 307.241 247.382 310.001 244.062Z" fill="#F6F6F6"/>
<path fill-rule="evenodd" clip-rule="evenodd" d="M218 247.062C226.01 246.892 234.01 247.062 242 247.562C249.14 249.002 253.3 253.162 254.5 260.062C261.69 266.112 264.69 273.782 263.5 283.062C260.52 295.532 253.35 304.692 242 310.562C230.5 315.302 220.17 313.642 211 305.562C202.7 296.652 199.2 286.152 200.5 274.062C196.88 277.802 193.38 281.632 190 285.562C186.96 287.712 184.13 287.552 181.5 285.062C180.83 282.062 180.83 279.062 181.5 276.062C186.29 267.612 192.79 260.772 201 255.562C206.76 252.682 212.43 249.852 218 247.062Z" fill="#040404"/>
<path fill-rule="evenodd" clip-rule="evenodd" d="M131 251.062C131 258.392 131 265.732 131 273.062C109.72 283.532 88.06 293.202 66 302.062C75.06 289.822 83.56 277.152 91.5 264.062C95.98 258.912 101.48 255.412 108 253.562C115.84 253.292 123.51 252.462 131 251.062Z" fill="#F14235"/>
<path fill-rule="evenodd" clip-rule="evenodd" d="M238 256.062C245.37 256.272 249.37 260.102 250 267.562C249.54 275.402 245.7 280.562 238.5 283.062C231.93 281.312 228.43 276.982 228 270.062C229.42 267.152 230.58 264.152 231.5 261.062C233.47 259.012 235.63 257.342 238 256.062Z" fill="#F4F4F4"/>
<path fill-rule="evenodd" clip-rule="evenodd" d="M130.999 273.062C131.139 281.072 131.479 289.072 131.999 297.062C113.529 309.392 93.5289 318.562 71.9989 324.562C60.5689 331.942 48.5689 338.282 35.9989 343.562C32.8289 347.902 29.1589 351.732 24.9989 355.062C22.1889 350.122 19.3589 345.122 16.4989 340.062C16.1789 338.012 16.5089 336.012 17.4989 334.062C29.4889 328.812 40.9889 322.652 51.9989 315.562C54.6689 313.562 57.3289 311.562 59.9989 309.562C61.8589 306.872 63.8589 304.372 65.9989 302.062C88.0589 293.202 109.719 283.532 130.999 273.062Z" fill="#F28535"/>
<path fill-rule="evenodd" clip-rule="evenodd" d="M132 297.062C133.12 304.002 134.12 311.002 135 318.062C125.1 325.022 114.77 331.522 104 337.562C84.35 345.472 64.35 352.472 44 358.562C40.72 360.122 37.88 362.292 35.5 365.062C35.02 366.012 34.85 367.012 35 368.062C30.95 364.312 27.62 359.972 25 355.062C29.16 351.732 32.83 347.902 36 343.562C48.57 338.282 60.57 331.942 72 324.562C93.53 318.562 113.53 309.392 132 297.062Z" fill="#FDE93B"/>
<path fill-rule="evenodd" clip-rule="evenodd" d="M300 306.061C303.72 305.781 306.06 307.451 307 311.061C305.15 316.931 302.15 322.091 298 326.561C295.47 327.981 292.8 328.311 290 327.561C284.52 325.981 279.18 324.141 274 322.061C272.14 315.091 274.81 312.591 282 314.561C285.5 316.491 289.16 317.491 293 317.561C295.47 313.781 297.8 309.951 300 306.061Z" fill="#0D0D0D"/>
<path fill-rule="evenodd" clip-rule="evenodd" d="M135 318.062C137.49 326.882 141.49 335.042 147 342.562C146.08 342.842 145.42 343.342 145 344.062C118.88 352.952 93.8801 364.292 70.0001 378.062C59.2901 376.552 48.6301 374.722 38.0001 372.562C36.3601 371.432 35.3601 369.932 35.0001 368.062C34.8501 367.012 35.0201 366.012 35.5001 365.062C37.8801 362.292 40.7201 360.122 44.0001 358.562C64.3501 352.472 84.3501 345.472 104 337.562C114.77 331.522 125.1 325.022 135 318.062Z" fill="#8BC24A"/>
<path fill-rule="evenodd" clip-rule="evenodd" d="M145 344.062C148.3 344.292 150.64 345.962 152 349.062C149.57 353.602 146.9 357.932 144 362.062C131.9 367.872 119.9 373.872 108 380.062C95.12 381.522 82.45 380.862 70 378.062C93.88 364.292 118.88 352.952 145 344.062Z" fill="#4258DA"/>
<path fill-rule="evenodd" clip-rule="evenodd" d="M144 362.062C135.32 374.752 123.32 380.752 108 380.062C119.9 373.872 131.9 367.872 144 362.062Z" fill="#9328AC"/>
</svg>
