<svg width="500" height="500" viewBox="0 0 500 500" fill="none" xmlns="http://www.w3.org/2000/svg">
<path fill-rule="evenodd" clip-rule="evenodd" d="M378 149.062C363.64 136.201 349.64 122.701 336 108.562C329.42 102.812 322.42 97.6515 315 93.0615C314.11 92.2415 313.78 91.2415 314 90.0615C318.63 80.9215 324.97 73.0915 333 66.5615C336 64.8915 339 63.2315 342 61.5615C375.1 52.8615 393.77 65.3615 398 99.0615C395.81 113.451 391.31 127.121 384.5 140.062C382.32 143.091 380.16 146.091 378 149.062Z" fill="#020202"/>
<path fill-rule="evenodd" clip-rule="evenodd" d="M177 91.0611C177 92.3911 177 93.7311 177 95.0611C174.28 95.9111 171.61 97.0811 169 98.5611C161.7 105.211 153.7 110.881 145 115.561C136.81 124.111 130.81 133.941 127 145.061C112.95 143.891 103.11 136.561 97.5004 123.061C89.8904 95.3111 99.3904 75.8111 126 64.5611C139.39 62.0211 151.72 64.6811 163 72.5611C168.05 78.5311 172.72 84.6911 177 91.0611Z" fill="#010202"/>
<path fill-rule="evenodd" clip-rule="evenodd" d="M314 90.0621C313.78 91.2421 314.11 92.2421 315 93.0621C322.42 97.6521 329.42 102.812 336 108.562C349.64 122.702 363.64 136.202 378 149.062C381.62 150.852 384.45 153.512 386.5 157.062C389.82 163.702 393.15 170.362 396.5 177.062C397.51 187.372 398.18 197.702 398.5 208.062C402.47 219.412 404.97 231.082 406 243.062C405.6 258.852 399.1 271.522 386.5 281.062C383.37 294.512 376.54 305.682 366 314.562C356.19 322.632 345.86 329.962 335 336.562C319.74 341.242 304.41 345.072 289 348.062C272.41 351.392 255.57 353.062 238.5 353.062C231.73 350.982 224.9 350.652 218 352.062C198.87 347.782 180.21 341.942 162 334.562C147.31 327.132 134.81 316.962 124.5 304.062C117.17 292.062 109.83 280.062 102.5 268.062C100.87 263.802 99.5403 259.472 98.5003 255.062C97.2803 241.242 98.1103 227.572 101 214.062C99.3103 208.492 98.8103 202.822 99.5003 197.062C108.86 179.862 118.02 162.522 127 145.062C130.81 133.942 136.81 124.112 145 115.562C153.7 110.882 161.7 105.212 169 98.5621C171.61 97.0821 174.28 95.9121 177 95.0621C177 93.7321 177 92.3921 177 91.0621C203.83 77.8721 232.16 73.3721 262 77.5621C271.93 79.6121 281.93 81.2821 292 82.5621C299.53 84.5721 306.87 87.0721 314 90.0621Z" fill="#FDFDFD"/>
<path fill-rule="evenodd" clip-rule="evenodd" d="M204 91.0615C213.23 91.2315 222.23 92.0715 231 93.5615C233.67 95.5615 235 98.2315 235 101.562C234.77 107.302 233.61 112.802 231.5 118.062C218.48 132.322 202.31 140.322 183 142.062C174.06 142.622 169.39 138.452 169 129.562C174.99 111.412 186.66 98.5815 204 91.0615Z" fill="#040404"/>
<path fill-rule="evenodd" clip-rule="evenodd" d="M285 93.0613C290.07 92.9013 295.07 93.4013 300 94.5613C311.53 99.7513 321.7 106.921 330.5 116.061C332.74 123.401 330.57 128.901 324 132.561C309.99 137.871 296.32 137.201 283 130.561C271.49 122.531 268.99 112.371 275.5 100.061C278.03 96.6813 281.2 94.3413 285 93.0613Z" fill="#040404"/>
<path fill-rule="evenodd" clip-rule="evenodd" d="M211 101.062C217.46 101.192 220.46 104.522 220 111.062C219.84 115.062 217.84 116.562 214 115.562C210.26 112.532 208.43 108.702 208.5 104.062C209.54 103.192 210.38 102.192 211 101.062Z" fill="#F4F4F4"/>
<path fill-rule="evenodd" clip-rule="evenodd" d="M292 103.062C298.75 103.192 301.41 106.352 300 112.562C292.37 116.922 288.87 114.762 289.5 106.062C290.54 105.192 291.38 104.192 292 103.062Z" fill="#EFEFEF"/>
<path fill-rule="evenodd" clip-rule="evenodd" d="M256.999 117.062C267.129 117.312 270.629 121.972 267.499 131.062C272.319 136.892 277.979 141.552 284.499 145.062C285.319 148.082 284.159 149.742 280.999 150.062C272.619 147.352 265.959 142.352 260.999 135.062C253.889 140.532 246.049 144.532 237.499 147.062C232.659 146.562 231.829 144.392 234.999 140.562C240.329 137.562 245.669 134.562 250.999 131.562C243.409 132.652 241.249 129.822 244.499 123.062C248.389 120.272 252.559 118.272 256.999 117.062Z" fill="#090909"/>
<path fill-rule="evenodd" clip-rule="evenodd" d="M338 128.062C340.43 128.082 342.76 128.582 345 129.562C347.6 131.432 350.44 132.932 353.5 134.062C355.75 138.232 354.92 141.732 351 144.562C346.71 145.612 342.38 146.442 338 147.062C330.52 145.752 327.69 141.422 329.5 134.062C332.17 131.662 335 129.662 338 128.062Z" fill="#FAACA6"/>
<path fill-rule="evenodd" clip-rule="evenodd" d="M155 137.062C158.07 137.112 161.07 137.612 164 138.562C166.1 140.332 168.43 141.662 171 142.562C176.33 146.562 176.33 150.562 171 154.562C161.65 159.432 154.15 157.602 148.5 149.062C146.81 142.772 148.97 138.772 155 137.062Z" fill="#FAACA6"/>
<path fill-rule="evenodd" clip-rule="evenodd" d="M268 167.061C284.08 167.831 299.75 170.671 315 175.561C323.35 179.931 331.69 184.261 340 188.561C342.68 190.401 344.34 192.901 345 196.061C357.88 205.111 367.71 216.781 374.5 231.061C375.72 236.021 376.05 241.021 375.5 246.061C373.61 254.421 371.61 262.751 369.5 271.061C368.17 273.731 366.83 276.391 365.5 279.061C350.15 296.311 331.32 307.811 309 313.561C293.91 315.731 278.91 318.401 264 321.561C252.37 323.031 240.7 323.361 229 322.561C218.59 320.281 208.25 317.611 198 314.561C187.37 309.671 177.87 303.171 169.5 295.061C163.5 284.381 160.33 272.881 160 260.561C162.27 248.531 163.77 236.371 164.5 224.061C170.25 212.901 176.25 201.901 182.5 191.061C189.37 184.211 197.2 178.711 206 174.561C226.44 169.001 247.11 166.501 268 167.061Z" fill="#9F9F9F"/>
<path fill-rule="evenodd" clip-rule="evenodd" d="M361 231.062C356.09 227.352 350.76 224.182 345 221.562C336.57 219.642 328.24 217.312 320 214.562C304.93 211.012 294.1 216.182 287.5 230.062C282.61 243.182 282.94 256.182 288.5 269.062C291.87 273.752 296.37 276.912 302 278.562C308.52 279.632 315.02 280.802 321.5 282.062C325.9 278.942 330.4 275.942 335 273.062C343.29 262.032 347.45 249.702 347.5 236.062C352.12 240.452 357.62 242.792 364 243.062C362.99 253.142 360.49 262.812 356.5 272.062C346.41 282.492 334.91 290.992 322 297.562C313.98 299.912 305.98 302.242 298 304.562C286.15 305.592 274.48 307.592 263 310.562C242.89 313.182 223.23 311.182 204 304.562C193.12 300.332 183.95 293.832 176.5 285.062C173.91 277.382 172.07 269.552 171 261.562C171.24 258.372 171.58 255.212 172 252.062C173.6 252.332 174.93 251.992 176 251.062C181.19 248.392 185.69 244.722 189.5 240.062C189.04 245.692 189.04 251.362 189.5 257.062C195.84 279.152 210.01 286.982 232 280.562C234.83 278.312 237.83 276.312 241 274.562C244.87 269.652 248.37 264.492 251.5 259.062C255.12 249.172 253.45 240.172 246.5 232.062C245.76 223.902 241.26 219.072 233 217.562C222.64 214.462 212.3 214.462 202 217.562C192.62 220.912 184.28 225.742 177 232.062C175.87 229.932 175.7 227.602 176.5 225.062C181.27 217.292 185.6 209.292 189.5 201.062C194.08 195.492 199.58 190.992 206 187.562C215 183.982 224.33 181.642 234 180.562C256.44 177.962 278.77 178.622 301 182.562C311.8 186.292 322.14 191.132 332 197.062C335.24 203.692 340.24 208.522 347 211.562C352.76 217.322 357.76 223.652 362 230.562C361.77 230.962 361.44 231.132 361 231.062Z" fill="#FCFCFC"/>
<path fill-rule="evenodd" clip-rule="evenodd" d="M360.999 231.062C362.769 232.452 364.769 233.622 366.999 234.562C370.539 236.842 370.869 239.512 367.999 242.562C366.709 243.052 365.369 243.222 363.999 243.062C357.619 242.792 352.119 240.452 347.499 236.062C347.449 249.702 343.289 262.032 334.999 273.062C330.399 275.942 325.899 278.942 321.499 282.062C315.019 280.802 308.519 279.632 301.999 278.562C296.369 276.912 291.869 273.752 288.499 269.062C282.939 256.182 282.609 243.182 287.499 230.062C294.099 216.182 304.929 211.012 319.999 214.562C328.239 217.312 336.569 219.642 344.999 221.562C350.759 224.182 356.089 227.352 360.999 231.062Z" fill="#040404"/>
<path fill-rule="evenodd" clip-rule="evenodd" d="M176 251.061C171.61 252.051 169.28 250.381 169 246.061C170.1 240.531 172.77 235.861 177 232.061C184.28 225.741 192.62 220.911 202 217.561C212.3 214.461 222.64 214.461 233 217.561C241.26 219.071 245.76 223.901 246.5 232.061C253.45 240.171 255.12 249.171 251.5 259.061C248.37 264.491 244.87 269.651 241 274.561C237.83 276.311 234.83 278.311 232 280.561C210.01 286.981 195.84 279.151 189.5 257.061C189.04 251.361 189.04 245.691 189.5 240.061C185.69 244.721 181.19 248.391 176 251.061Z" fill="#040404"/>
<path fill-rule="evenodd" clip-rule="evenodd" d="M302 223.062C304.69 222.902 307.35 223.062 310 223.562C312.17 224.392 313.67 225.892 314.5 228.062C314.49 233.102 313.83 238.102 312.5 243.062C308.75 248.332 303.91 249.502 298 246.562C296.59 243.482 294.76 240.642 292.5 238.062C291.76 234.782 292.42 231.782 294.5 229.062C297.34 227.402 299.84 225.402 302 223.062Z" fill="#F4F4F4"/>
<path fill-rule="evenodd" clip-rule="evenodd" d="M227 227.062C235.08 225.942 239.75 229.442 241 237.562C240.04 245.792 235.7 250.952 228 253.062C225.91 253.072 224.07 252.412 222.5 251.062C220.18 248.092 218.68 244.762 218 241.062C219.51 235.362 222.51 230.692 227 227.062Z" fill="#F5F5F5"/>
<path fill-rule="evenodd" clip-rule="evenodd" d="M287.001 284.062C292.491 284.062 294.321 286.732 292.501 292.062C289.691 296.862 286.191 301.032 282.001 304.562C279.671 305.232 277.331 305.232 275.001 304.562C269.381 302.172 263.881 299.672 258.501 297.062C257.231 292.832 258.731 290.162 263.001 289.062C268.331 291.242 273.671 293.082 279.001 294.562C281.151 290.592 283.811 287.092 287.001 284.062Z" fill="#0C0C0C"/>
<path fill-rule="evenodd" clip-rule="evenodd" d="M289 348.062C297.68 349.482 303.85 354.142 307.5 362.062C315.23 368.612 320.73 376.612 324 386.062C321.74 390.922 318.74 395.262 315 399.062C307.66 397.812 301.16 394.812 295.5 390.062C293.48 390.592 292.65 391.932 293 394.062C280.05 396.992 267.05 399.822 254 402.562C247.67 402.492 241.34 402.492 235 402.562C233.56 402.942 232.56 403.772 232 405.062C231.38 405.172 230.88 405.502 230.5 406.062C229.6 402.982 228.6 399.982 227.5 397.062C219.61 402.862 211.45 403.362 203 398.562C199.3 395.162 198.13 391.002 199.5 386.062C201.93 375.852 206.93 367.192 214.5 360.062C214.87 356.992 216.03 354.332 218 352.062C224.9 350.652 231.73 350.982 238.5 353.062C255.57 353.062 272.41 351.392 289 348.062Z" fill="#030303"/>
<path fill-rule="evenodd" clip-rule="evenodd" d="M363 359.062C357.44 356.182 352.27 356.852 347.5 361.062C344.17 365.732 340.83 370.392 337.5 375.062C334.31 381.642 331.31 388.312 328.5 395.062C319.91 403.882 321.57 409.552 333.5 412.062C334.94 411.412 336.44 411.082 338 411.062C336.83 413.062 335.16 414.562 333 415.562C328.69 415.432 324.36 415.762 320 416.562C311.49 412.672 309.83 406.842 315 399.062C318.74 395.262 321.74 390.922 324 386.062C329.56 380.612 332.72 373.942 333.5 366.062C335.95 360.282 339.79 355.782 345 352.562C349 351.892 353 351.892 357 352.562C360.6 353.322 362.6 355.492 363 359.062Z" fill="#4EAF52"/>
<path fill-rule="evenodd" clip-rule="evenodd" d="M363.001 359.062C364.271 362.632 364.111 366.302 362.501 370.062C360.501 373.552 358.341 376.882 356.001 380.062C352.291 383.092 348.291 385.762 344.001 388.062C343.001 390.562 342.001 393.062 341.001 395.562C341.321 397.892 342.661 399.052 345.001 399.062C343.181 403.362 340.851 407.362 338.001 411.062C336.441 411.082 334.941 411.412 333.501 412.062C321.571 409.552 319.911 403.882 328.501 395.062C331.311 388.312 334.311 381.642 337.501 375.062C340.831 370.392 344.171 365.732 347.501 361.062C352.271 356.852 357.441 356.182 363.001 359.062Z" fill="#8AC24A"/>
<path fill-rule="evenodd" clip-rule="evenodd" d="M345 399.062C342.66 399.052 341.32 397.892 341 395.562C342 393.062 343 390.562 344 388.062C348.29 385.762 352.29 383.092 356 380.062C362.93 376.482 370.26 375.312 378 376.562C380.49 379.532 380.66 382.702 378.5 386.062C375.96 388.932 373.13 391.432 370 393.562C365.13 394.662 360.46 396.332 356 398.562C352.35 399.062 348.68 399.232 345 399.062Z" fill="#4DAF51"/>
<path fill-rule="evenodd" clip-rule="evenodd" d="M293 394.062C296.1 399.162 298.93 404.832 301.5 411.062C303.63 427.942 296.46 434.772 280 431.562C271.65 424.712 266.49 415.882 264.5 405.062C263.16 415.152 261.5 425.152 259.5 435.062C252.73 443.072 245.07 444.072 236.5 438.062C231.82 427.492 230.32 416.492 232 405.062C232.56 403.772 233.56 402.942 235 402.562C241.34 402.492 247.67 402.492 254 402.562C267.05 399.822 280.05 396.992 293 394.062Z" fill="#FDFDFD"/>
</svg>
