<svg width="500" height="500" viewBox="0 0 500 500" fill="none" xmlns="http://www.w3.org/2000/svg">
<path fill-rule="evenodd" clip-rule="evenodd" d="M390 292.062C389.39 298.462 388.39 304.792 387 311.062C382.75 321.052 376.41 329.552 368 336.562C363.45 338.692 358.78 340.522 354 342.062C350.57 351.152 344.9 358.492 337 364.062C330.72 366.672 326.06 371.002 323 377.062C310.17 389.392 294.84 394.222 277 391.562C269.6 390.382 262.26 388.882 255 387.062C248.75 383.482 243.42 378.822 239 373.062C239.09 372.062 238.75 371.232 238 370.562C223.64 371.122 210.3 367.952 198 361.062C207.15 353.422 216.48 345.922 226 338.562C231.53 332.202 237.2 326.032 243 320.062C257.32 318.602 271.65 317.102 286 315.562C298.81 313.492 310.81 309.162 322 302.562C340.98 292.582 356.48 278.742 368.5 261.062C372.93 253.492 374.77 245.322 374 236.562C373.83 232.732 373.67 228.892 373.5 225.062C373.4 222.042 372.57 219.372 371 217.062C365.37 196.592 352.71 182.092 333 173.562C326.23 170.782 319.23 168.782 312 167.562C300.47 166.552 288.97 165.382 277.5 164.062C264.81 164.612 252.64 167.442 241 172.562C229.63 178.912 218.3 185.242 207 191.562C191.14 205.082 180.64 221.912 175.5 242.062C172.88 260.222 178.55 275.222 192.5 287.062C200.65 301.392 212.48 311.392 228 317.062C218.23 327.332 208.23 337.502 198 347.562C193.41 349.372 188.74 350.872 184 352.062C180.97 348.702 177.97 345.372 175 342.062C175.57 335.842 177.07 329.842 179.5 324.062C181.17 318.072 179 315.572 173 316.562C170.86 319.042 168.86 321.542 167 324.062C167.33 318.692 166.99 313.352 166 308.062C155.62 303.162 145.62 297.662 136 291.562C120.95 277.962 115.12 261.132 118.5 241.062C114.06 237.532 110.06 233.532 106.5 229.062C102.28 221.502 97.2795 214.502 91.4995 208.062C82.6695 192.262 81.6695 175.932 88.4995 159.062C94.8095 142.912 104.64 129.412 118 118.562C130.75 110.142 144.75 105.642 160 105.062C161.51 88.702 168.84 75.532 182 65.562C196.13 54.072 211.79 51.072 229 56.562C233.2 58.492 236.86 61.162 240 64.562C245.12 66.152 249.95 68.322 254.5 71.062C265.4 62.842 277.57 57.342 291 54.562C319.49 53.482 337.83 66.652 346 94.062C356.24 94.002 366.57 94.172 377 94.562C386.68 94.972 393.52 99.472 397.5 108.062C413.02 119.052 419.02 134.052 415.5 153.062C414.25 161.482 411.42 169.312 407 176.562C418.46 196.352 418.96 216.512 408.5 237.062C402.16 249.062 394.66 260.222 386 270.562C389.32 277.352 390.66 284.522 390 292.062Z" fill="#C12A60"/>
<path fill-rule="evenodd" clip-rule="evenodd" d="M371 217.062C372.57 219.372 373.4 222.042 373.5 225.062C373.67 228.892 373.83 232.732 374 236.562C374.77 245.322 372.93 253.492 368.5 261.062C356.48 278.742 340.98 292.582 322 302.562C310.81 309.162 298.81 313.492 286 315.562C271.65 317.102 257.32 318.602 243 320.062C245.83 317.062 248.5 313.892 251 310.562C257.63 307.932 263.13 303.762 267.5 298.062C268.28 294.332 266.78 292.002 263 291.062C256.14 293.262 249.14 294.932 242 296.062C238.16 294.262 234.16 293.432 230 293.562C228.06 295.712 227.56 298.212 228.5 301.062C230.36 303.922 232.53 306.422 235 308.562C233.57 312.152 231.24 314.992 228 317.062C212.48 311.392 200.65 301.392 192.5 287.062C178.55 275.222 172.88 260.222 175.5 242.062C180.64 221.912 191.14 205.082 207 191.562C218.3 185.242 229.63 178.912 241 172.562C252.64 167.442 264.81 164.612 277.5 164.062C288.97 165.382 300.47 166.552 312 167.562C319.23 168.782 326.23 170.782 333 173.562C352.71 182.092 365.37 196.592 371 217.062Z" fill="#FDFCFC"/>
<path fill-rule="evenodd" clip-rule="evenodd" d="M371 217.063C371.28 220.783 369.61 223.123 366 224.063C363.03 223.423 360.03 222.923 357 222.563C354.39 221.083 351.72 219.913 349 219.063C350.56 231.883 348.06 243.883 341.5 255.063C337.72 257.883 334.22 261.043 331 264.563C303.74 269.293 289.74 257.963 289 230.563C289.12 217.463 294.78 207.793 306 201.563C321.35 200.423 336.35 202.093 351 206.563C357.44 210.543 364.1 214.043 371 217.063Z" fill="#060606"/>
<path fill-rule="evenodd" clip-rule="evenodd" d="M306 210.063C308.36 209.903 310.69 210.063 313 210.563C314.83 211.063 316 212.233 316.5 214.063C317.17 219.063 317.17 224.063 316.5 229.063C313.16 233.783 308.66 235.283 303 233.563C300.83 230.733 298.67 227.893 296.5 225.063C295.79 222.593 296.13 220.263 297.5 218.063C300.54 215.483 303.38 212.823 306 210.063Z" fill="#F6F6F6"/>
<path fill-rule="evenodd" clip-rule="evenodd" d="M220.001 212.062C228.961 211.332 237.631 212.492 246.001 215.562C250.321 217.692 252.481 221.192 252.501 226.062C259.351 232.272 262.011 239.932 260.501 249.062C256.191 264.382 246.351 273.882 231.001 277.562C221.181 278.072 213.011 274.572 206.501 267.062C204.181 262.422 201.851 257.762 199.501 253.062C199.331 248.692 198.831 244.362 198.001 240.062C194.851 243.712 191.521 247.212 188.001 250.562C185.281 252.712 182.781 252.542 180.501 250.062C179.831 247.062 179.831 244.062 180.501 241.062C186.001 231.232 193.831 223.732 204.001 218.562C209.261 215.872 214.591 213.702 220.001 212.062Z" fill="#050505"/>
<path fill-rule="evenodd" clip-rule="evenodd" d="M234.001 222.062C242.111 221.012 246.441 224.512 247.001 232.562C246.641 240.122 242.981 245.292 236.001 248.062C225.471 243.272 223.311 235.932 229.501 226.062C231.171 224.832 232.671 223.492 234.001 222.062Z" fill="#F5F5F5"/>
<path fill-rule="evenodd" clip-rule="evenodd" d="M296 271.062C302 270.562 304.17 273.232 302.5 279.062C300.37 283.152 297.87 286.982 295 290.562C291.8 292.042 288.46 292.382 285 291.562C280.09 289.702 275.26 287.872 270.5 286.062C269.6 283.532 270.1 281.372 272 279.562C278.09 279.622 284.09 280.282 290 281.562C291.89 277.952 293.89 274.452 296 271.062Z" fill="#0B0B0B"/>
<path fill-rule="evenodd" clip-rule="evenodd" d="M242.999 320.062C237.199 326.032 231.529 332.202 225.999 338.562C216.479 345.922 207.149 353.422 197.999 361.062C191.059 365.202 184.059 369.372 176.999 373.562C172.989 374.662 169.489 373.822 166.499 371.062C164.799 366.932 162.799 362.932 160.499 359.062C159.399 346.742 161.559 335.072 166.999 324.062C168.859 321.542 170.859 319.042 172.999 316.562C178.999 315.572 181.169 318.072 179.499 324.062C177.069 329.842 175.569 335.842 174.999 342.062C173.889 349.192 176.889 352.532 183.999 352.062C188.739 350.872 193.409 349.372 197.999 347.562C208.229 337.502 218.229 327.332 227.999 317.062C231.239 314.992 233.569 312.152 234.999 308.562C232.529 306.422 230.359 303.922 228.499 301.062C227.559 298.212 228.059 295.712 229.999 293.562C234.159 293.432 238.159 294.262 241.999 296.062C249.139 294.932 256.139 293.262 262.999 291.062C266.779 292.002 268.279 294.332 267.499 298.062C263.129 303.762 257.629 307.932 250.999 310.562C248.499 313.892 245.829 317.062 242.999 320.062Z" fill="#060404"/>
<path fill-rule="evenodd" clip-rule="evenodd" d="M390 292.062C392.66 294.802 394.49 298.142 395.5 302.062C398.5 313.402 401.5 324.732 404.5 336.062C405.96 348.072 406.46 360.072 406 372.062C410.76 374.482 414.09 378.152 416 383.062C415.06 386.662 412.73 388.332 409 388.062C402.41 386.682 395.74 385.842 389 385.562C381.31 378.172 382.64 373.342 393 371.062C393.33 367.892 393.67 364.732 394 361.562C391.51 344.772 389.17 327.932 387 311.062C388.39 304.792 389.39 298.462 390 292.062Z" fill="#080707"/>
<path fill-rule="evenodd" clip-rule="evenodd" d="M337 364.062C339.15 381.292 340.82 398.622 342 416.062C350.45 412.782 358.45 413.622 366 418.562C370.18 423.512 369.84 428.182 365 432.562C361.33 433.232 357.67 433.232 354 432.562C347.3 431.602 340.64 430.602 334 429.562C330.9 427.332 330.23 424.492 332 421.062C327.75 406.642 324.75 391.972 323 377.062C326.06 371.002 330.72 366.672 337 364.062Z" fill="#060505"/>
<path fill-rule="evenodd" clip-rule="evenodd" d="M239.001 373.062C243.421 378.822 248.751 383.482 255.001 387.062C255.171 401.402 255.001 415.732 254.501 430.062C254.021 435.182 252.191 439.682 249.001 443.562C240.471 445.802 231.801 446.472 223.001 445.562C220.121 445.122 217.461 444.122 215.001 442.562C213.381 439.352 214.041 436.692 217.001 434.562C223.871 431.832 230.871 429.492 238.001 427.562C239.081 426.892 239.751 425.892 240.001 424.562C242.631 410.812 243.131 396.972 241.501 383.062C240.321 380.692 239.151 378.362 238.001 376.062C238.191 374.982 238.521 373.982 239.001 373.062Z" fill="#060506"/>
</svg>
