<svg width="500" height="500" viewBox="0 0 500 500" fill="none" xmlns="http://www.w3.org/2000/svg">
<path fill-rule="evenodd" clip-rule="evenodd" d="M404 165.061C402.03 168.141 399.7 170.971 397 173.561C389.14 179.321 381.14 184.821 373 190.061C372.18 188.421 371.35 186.751 370.5 185.061C355.64 171.201 341.14 157.031 327 142.561C326.41 142.101 325.74 141.931 325 142.061C321.88 137.101 317.88 132.941 313 129.561C306.97 126.881 301.64 123.211 297 118.561C289.23 114.671 281.23 111.341 273 108.561C250.14 106.281 228.8 110.941 209 122.561C204.67 125.561 200.33 128.561 196 131.561C190.44 138.521 184.78 145.351 179 152.061C174.09 155.461 169.59 159.461 165.5 164.061C159.88 172.281 153.55 179.951 146.5 187.061C140.72 194.621 136.55 202.951 134 212.061C123.63 208.011 114.3 202.341 106 195.061C121.78 166.381 141.78 140.881 166 118.561C185.61 104.241 207.61 96.2413 232 94.5613C296.43 85.1413 350.59 104.311 394.5 152.061C397.69 156.461 400.85 160.791 404 165.061Z" fill="#F34437"/>
<path fill-rule="evenodd" clip-rule="evenodd" d="M325 142.062C327.76 146.162 330.1 150.492 332 155.062C326.35 152.572 320.69 150.072 315 147.562C306.42 145.852 297.75 144.692 289 144.062C285.24 144.022 281.58 144.522 278 145.562C269.92 151.212 265.59 159.042 265 169.062C264.99 177.672 267.15 185.672 271.5 193.062C273.44 195.672 275.94 197.502 279 198.562C286.64 199.892 294.3 200.562 302 200.562C306.5 197.392 310.33 193.562 313.5 189.062C316.07 182.012 318.24 174.842 320 167.562C316.31 160.732 317.64 159.072 324 162.562C327.67 163.112 331.34 163.612 335 164.062C335.07 170.092 334.74 176.092 334 182.062C331.43 191.202 327.76 199.872 323 208.062C319 214.062 314 219.062 308 223.062C296.66 227.122 285.33 231.282 274 235.562C254.03 235.512 234.03 235.682 214 236.062C204.95 234.152 196.62 230.482 189 225.062C181.72 219.192 176.39 211.852 173 203.062C171.49 198.532 170.49 193.862 170 189.062C172.49 189.262 174.82 188.762 177 187.562C179.48 184.252 182.15 181.082 185 178.062C184.42 192.072 190.09 202.912 202 210.562C223.89 213.522 236.55 204.022 240 182.062C239.94 175.602 237.44 170.272 232.5 166.062C231.13 158.692 226.63 154.862 219 154.562C198.35 152.892 182.02 160.392 170 177.062C170.05 167.572 173.05 159.242 179 152.062C184.78 145.352 190.44 138.522 196 131.562C200.33 128.562 204.67 125.562 209 122.562C228.8 110.942 250.14 106.282 273 108.562C281.23 111.342 289.23 114.672 297 118.562C301.64 123.212 306.97 126.882 313 129.562C317.88 132.942 321.88 137.102 325 142.062Z" fill="#FDFCFC"/>
<path fill-rule="evenodd" clip-rule="evenodd" d="M410 178.062C407.19 181.702 403.86 184.862 400 187.562C392.94 191.752 385.94 195.922 379 200.062C375.1 201.592 371.6 200.932 368.5 198.062C368.16 194.422 369.66 191.752 373 190.062C381.14 184.822 389.14 179.322 397 173.562C399.7 170.972 402.03 168.142 404 165.062C409.81 155.332 414.47 145.002 418 134.062C408.13 133.032 402.96 127.702 402.5 118.062C404.33 116.892 405.83 115.392 407 113.562C412.15 113.962 416.48 116.302 420 120.562C421.53 121.482 423.2 121.982 425 122.062C430.23 120.112 435.23 117.612 440 114.562C442.53 113.662 444.69 114.162 446.5 116.062C447.46 127.132 442.3 133.632 431 135.562C431.58 136.452 431.91 137.452 432 138.562C427.12 153.162 419.79 166.332 410 178.062Z" fill="#050404"/>
<path fill-rule="evenodd" clip-rule="evenodd" d="M332 155.062C336.2 156.122 337.7 158.782 336.5 163.062C336.12 163.622 335.62 163.952 335 164.062C331.34 163.612 327.67 163.112 324 162.562C317.64 159.072 316.31 160.732 320 167.562C318.24 174.842 316.07 182.012 313.5 189.062C310.33 193.562 306.5 197.392 302 200.562C294.3 200.562 286.64 199.892 279 198.562C275.94 197.502 273.44 195.672 271.5 193.062C267.15 185.672 264.99 177.672 265 169.062C265.59 159.042 269.92 151.212 278 145.562C281.58 144.522 285.24 144.022 289 144.062C297.75 144.692 306.42 145.852 315 147.562C320.69 150.072 326.35 152.572 332 155.062Z" fill="#050505"/>
<path fill-rule="evenodd" clip-rule="evenodd" d="M280 152.061C284.18 151.261 287.35 152.601 289.5 156.061C289.83 160.751 289.5 165.421 288.5 170.061C285.24 172.991 281.41 173.821 277 172.561C272.56 169.501 271.06 165.331 272.5 160.061C274.89 157.281 277.39 154.621 280 152.061Z" fill="#F8F8F8"/>
<path fill-rule="evenodd" clip-rule="evenodd" d="M170.001 189.062C167.481 185.162 167.481 181.162 170.001 177.062C182.021 160.392 198.351 152.892 219.001 154.562C226.631 154.862 231.131 158.692 232.501 166.062C237.441 170.272 239.941 175.602 240.001 182.062C236.551 204.022 223.891 213.522 202.001 210.562C190.091 202.912 184.421 192.072 185.001 178.062C182.151 181.082 179.481 184.252 177.001 187.562C174.821 188.762 172.491 189.262 170.001 189.062Z" fill="#050505"/>
<path fill-rule="evenodd" clip-rule="evenodd" d="M325 142.062C325.74 141.932 326.41 142.102 327 142.562C341.14 157.032 355.64 171.202 370.5 185.062C371.35 186.752 372.18 188.422 373 190.062C369.66 191.752 368.16 194.422 368.5 198.062C371.6 200.932 375.1 201.592 379 200.062C390.26 216.652 398.76 234.652 404.5 254.062C405.13 259.722 405.63 265.392 406 271.062C397.84 272.562 390.84 276.222 385 282.062C382.7 273.122 379.53 264.452 375.5 256.062C371.37 242.442 367.37 228.772 363.5 215.062C355.97 202.032 346.14 191.032 334 182.062C334.74 176.092 335.07 170.092 335 164.062C335.62 163.952 336.12 163.622 336.5 163.062C337.7 158.782 336.2 156.122 332 155.062C330.1 150.492 327.76 146.162 325 142.062Z" fill="#FE764A"/>
<path fill-rule="evenodd" clip-rule="evenodd" d="M179 152.062C173.05 159.242 170.05 167.572 170 177.062C167.48 181.162 167.48 185.162 170 189.062C170.49 193.862 171.49 198.532 173 203.062C162.93 213.332 155.43 225.332 150.5 239.062C143.87 258.852 140.03 279.182 139 300.062C130.84 304.052 125.34 310.392 122.5 319.062C120.85 318.162 119.35 317.162 118 316.062C118.95 297.842 120.45 279.512 122.5 261.062C124.3 248.232 126.8 235.562 130 223.062C131.97 223.722 133.97 224.392 136 225.062C138.3 223.922 140.47 222.592 142.5 221.062C143.17 219.732 143.17 218.392 142.5 217.062C139.57 215.482 136.73 213.812 134 212.062C136.55 202.952 140.72 194.622 146.5 187.062C153.55 179.952 159.88 172.282 165.5 164.062C169.59 159.462 174.09 155.462 179 152.062Z" fill="#FE764B"/>
<path fill-rule="evenodd" clip-rule="evenodd" d="M105.999 195.061C114.299 202.341 123.629 208.011 133.999 212.061C136.729 213.811 139.569 215.481 142.499 217.061C143.169 218.391 143.169 219.731 142.499 221.061C140.469 222.591 138.299 223.921 135.999 225.061C133.969 224.391 131.969 223.721 129.999 223.061C119.659 220.171 109.659 216.501 99.9994 212.061C90.3294 203.731 80.3294 195.731 69.9994 188.061C65.5194 191.831 60.3494 194.171 54.4994 195.061C50.4194 194.401 49.0794 192.071 50.4994 188.061C54.3794 186.111 57.7094 183.451 60.4994 180.061C60.8294 175.731 61.1694 171.391 61.4994 167.061C64.6294 160.861 68.2994 160.531 72.4994 166.061C73.6794 169.591 74.8394 173.091 75.9994 176.561C80.9894 179.821 86.3194 182.481 91.9994 184.561C96.8294 187.891 101.489 191.391 105.999 195.061Z" fill="#050404"/>
<path fill-rule="evenodd" clip-rule="evenodd" d="M215.999 163.062C223.639 161.712 227.639 164.872 227.999 172.562C227.889 179.262 224.719 183.762 218.499 186.062C211.369 183.472 208.699 178.472 210.499 171.062C211.619 167.802 213.449 165.142 215.999 163.062Z" fill="#F7F7F7"/>
<path fill-rule="evenodd" clip-rule="evenodd" d="M410 178.062C412.62 182.312 414.45 186.982 415.5 192.062C419.47 206.232 422.8 220.572 425.5 235.062C425.95 248.732 425.78 262.402 425 276.062C419.26 272.372 412.93 270.712 406 271.062C405.63 265.392 405.13 259.722 404.5 254.062C398.76 234.652 390.26 216.652 379 200.062C385.94 195.922 392.94 191.752 400 187.562C403.86 184.862 407.19 181.702 410 178.062Z" fill="#F34437"/>
<path fill-rule="evenodd" clip-rule="evenodd" d="M334 182.062C346.14 191.032 355.97 202.032 363.5 215.062C367.37 228.772 371.37 242.442 375.5 256.062C379.53 264.452 382.7 273.122 385 282.062C379.12 278.662 373.12 275.662 367 273.062C360.15 245.912 345.48 224.252 323 208.062C327.76 199.872 331.43 191.202 334 182.062Z" fill="#FEE93B"/>
<path fill-rule="evenodd" clip-rule="evenodd" d="M173 203.062C176.39 211.852 181.72 219.192 189 225.062C180.12 233.442 172.96 243.112 167.5 254.062C164.95 265.292 162.95 276.632 161.5 288.062C161 292.712 160.83 297.382 161 302.062C158.19 301.732 155.52 300.902 153 299.562C148.28 298.842 143.61 299.012 139 300.062C140.03 279.182 143.87 258.852 150.5 239.062C155.43 225.332 162.93 213.332 173 203.062Z" fill="#FEE93B"/>
<path fill-rule="evenodd" clip-rule="evenodd" d="M272.001 206.061C275.361 205.431 277.361 206.771 278.001 210.061C276.481 215.261 273.821 219.761 270.001 223.561C268.771 224.341 267.441 224.841 266.001 225.061C259.881 223.741 254.041 221.741 248.501 219.061C247.681 216.861 248.181 215.031 250.001 213.561C255.421 213.821 260.761 214.491 266.001 215.561C267.651 212.081 269.651 208.911 272.001 206.061Z" fill="#0C0C0C"/>
<path fill-rule="evenodd" clip-rule="evenodd" d="M323 208.062C345.48 224.252 360.15 245.912 367 273.062C360.42 272.192 354.42 273.532 349 277.062C342.2 262.802 334.37 249.132 325.5 236.062C320.44 230.622 314.61 226.292 308 223.062C314 219.062 319 214.062 323 208.062Z" fill="#8CC24B"/>
<path fill-rule="evenodd" clip-rule="evenodd" d="M99.9997 212.062C109.66 216.502 119.66 220.172 130 223.062C126.8 235.562 124.3 248.232 122.5 261.062C120.45 279.512 118.95 297.842 118 316.062C114.03 314.362 109.86 313.362 105.5 313.062C99.7697 314.552 93.9397 315.222 87.9997 315.062C83.3797 279.762 87.3797 245.432 99.9997 212.062Z" fill="#F34437"/>
<path fill-rule="evenodd" clip-rule="evenodd" d="M188.999 225.062C196.619 230.482 204.949 234.152 213.999 236.062C208.329 242.562 202.829 249.232 197.499 256.062C186.139 275.872 181.309 297.212 182.999 320.062C179.049 322.182 175.879 325.182 173.499 329.062C172.829 327.732 172.169 326.392 171.499 325.062C172.689 315.092 169.189 307.432 160.999 302.062C160.829 297.382 160.999 292.712 161.499 288.062C162.949 276.632 164.949 265.292 167.499 254.062C172.959 243.112 180.119 233.442 188.999 225.062Z" fill="#8CC24B"/>
<path fill-rule="evenodd" clip-rule="evenodd" d="M308 223.062C314.61 226.292 320.44 230.622 325.5 236.062C334.37 249.132 342.2 262.802 349 277.062C344.79 282.822 341.62 289.152 339.5 296.062C337.62 294.952 335.79 293.952 334 293.062C325.07 263.292 305.4 245.132 275 238.562C267.42 237.642 260.08 238.642 253 241.562C241.74 245.612 232.57 252.442 225.5 262.062C213.36 277.672 206.2 295.342 204 315.062C197.03 316.972 190.03 318.642 183 320.062C181.31 297.212 186.14 275.872 197.5 256.062C202.83 249.232 208.33 242.562 214 236.062C234.03 235.682 254.03 235.512 274 235.562C285.33 231.282 296.66 227.122 308 223.062Z" fill="#4258DD"/>
<path fill-rule="evenodd" clip-rule="evenodd" d="M334 293.062C323.51 291.282 314.18 293.612 306 300.062C301.62 290.482 295.62 281.982 288 274.562C277.56 266.082 266.56 265.082 255 271.562C249.83 277.392 244.67 283.232 239.5 289.062C238.22 291.282 237.22 293.612 236.5 296.062C235.5 302.382 234.67 308.722 234 315.062C229.47 315.742 225.31 317.402 221.5 320.062C216.3 316.442 210.47 314.772 204 315.062C206.2 295.342 213.36 277.672 225.5 262.062C232.57 252.442 241.74 245.612 253 241.562C260.08 238.642 267.42 237.642 275 238.562C305.4 245.132 325.07 263.292 334 293.062Z" fill="#9B28B0"/>
<path fill-rule="evenodd" clip-rule="evenodd" d="M406.001 271.061C412.931 270.711 419.261 272.371 425.001 276.061C427.451 279.301 429.121 282.961 430.001 287.061C442.021 287.711 449.021 293.881 451.001 305.561C449.321 311.071 447.821 316.571 446.501 322.061C445.231 324.991 443.561 327.661 441.501 330.061C435.691 333.161 429.861 336.161 424.001 339.061C428.611 349.221 429.111 359.551 425.501 370.061C421.031 377.861 414.361 382.531 405.501 384.061C397.531 382.931 392.031 378.601 389.001 371.061C387.841 373.381 386.671 375.721 385.501 378.061C381.831 382.391 378.171 386.731 374.501 391.061C367.831 399.511 359.331 402.341 349.001 399.561C344.951 394.961 340.781 390.461 336.501 386.061C335.661 384.211 334.831 382.381 334.001 380.561C326.611 379.491 319.281 379.161 312.001 379.561C303.121 375.641 299.621 368.801 301.501 359.061C302.911 352.901 305.411 347.241 309.001 342.061C299.281 332.531 296.451 321.201 300.501 308.061C301.771 304.961 303.611 302.301 306.001 300.061C314.181 293.611 323.511 291.281 334.001 293.061C335.791 293.951 337.621 294.951 339.501 296.061C341.621 289.151 344.791 282.821 349.001 277.061C354.421 273.531 360.421 272.191 367.001 273.061C373.121 275.661 379.121 278.661 385.001 282.061C390.841 276.221 397.841 272.561 406.001 271.061Z" fill="#FEFEFE"/>
<path fill-rule="evenodd" clip-rule="evenodd" d="M161 302.062C169.19 307.432 172.69 315.092 171.5 325.062C172.17 326.392 172.83 327.732 173.5 329.062C175.88 325.182 179.05 322.182 183 320.062C190.03 318.642 197.03 316.972 204 315.062C210.47 314.772 216.3 316.442 221.5 320.062C225.31 317.402 229.47 315.742 234 315.062C250.86 317.452 255.7 326.452 248.5 342.062C244.73 346.342 240.56 350.012 236 353.062C236.81 362.162 235.98 371.162 233.5 380.062C227.31 393.402 217.15 397.902 203 393.562C199.6 392.162 196.76 389.992 194.5 387.062C188.83 407.152 176.66 412.982 158 404.562C154.97 401.332 152.3 397.832 150 394.062C136.21 404.752 120.88 407.582 104 402.562C97.39 397.742 94.89 391.242 96.5 383.062C98.33 379.392 100.17 375.732 102 372.062C85.86 370.092 75.36 361.422 70.5 346.062C68.59 331.202 74.42 320.872 88 315.062C93.94 315.222 99.77 314.552 105.5 313.062C109.86 313.362 114.03 314.362 118 316.062C119.35 317.162 120.85 318.162 122.5 319.062C125.34 310.392 130.84 304.052 139 300.062C143.61 299.012 148.28 298.842 153 299.562C155.52 300.902 158.19 301.732 161 302.062Z" fill="#FEFEFE"/>
</svg>
