<svg width="500" height="500" viewBox="0 0 500 500" fill="none" xmlns="http://www.w3.org/2000/svg">
<path fill-rule="evenodd" clip-rule="evenodd" d="M347 275.062C337.65 271.302 328.82 266.642 320.5 261.062C314.91 266.702 309.41 272.532 304 278.562C290.24 290.982 274.91 293.312 258 285.562C245.83 278.642 233.49 271.972 221 265.562C212.97 260.212 205.31 254.382 198 248.062C189.09 261.852 176.43 269.522 160 271.062C142.38 271.092 124.71 271.262 107 271.562C94.34 269.822 84.5 263.652 77.5 253.062C72.89 240.542 67.89 228.212 62.5 216.062C62.75 205.752 62.41 195.412 61.5 185.062C66.71 163.472 77.88 145.632 95 131.562C102.83 127.532 111.16 126.032 120 127.062C115.68 100.852 123.35 79.0218 143 61.5618C156.3 52.9618 169.64 52.9618 183 61.5618C186.91 65.1018 191.08 68.2618 195.5 71.0618C222.68 48.0518 253.85 32.8918 289 25.5618C300.45 25.2818 310.45 28.9518 319 36.5618C332.11 48.3318 342.95 61.8318 351.5 77.0618C382.47 70.2118 405.81 80.5518 421.5 108.062C437.06 135.632 442.4 164.962 437.5 196.062C431.84 205.392 424.01 212.222 414 216.562C424.89 231.622 427.72 248.122 422.5 266.062C418.43 273.802 412.27 278.962 404 281.562C392.76 284.662 381.43 285.332 370 283.562C362.27 280.822 354.6 277.982 347 275.062Z" fill="#4CAF50"/>
<path fill-rule="evenodd" clip-rule="evenodd" d="M331.001 175.061C338.651 170.631 338.991 165.461 332.001 159.561C329.471 158.661 327.311 159.161 325.501 161.061C324.141 160.181 322.641 159.851 321.001 160.061C316.821 150.261 319.491 143.091 329.001 138.561C342.791 134.601 354.291 138.101 363.501 149.061C365.211 151.471 366.041 154.141 366.001 157.061C374.061 155.821 382.061 154.161 390.001 152.061C397.061 153.421 398.901 157.421 395.501 164.061C385.411 174.491 373.911 182.991 361.001 189.561C353.651 192.361 346.991 191.361 341.001 186.561C337.831 182.561 334.501 178.731 331.001 175.061Z" fill="#6BE9D8"/>
<path fill-rule="evenodd" clip-rule="evenodd" d="M341 146.061C346.34 145.571 348.84 147.901 348.5 153.061C343.95 157.461 340.78 156.631 339 150.561C339.02 148.731 339.69 147.231 341 146.061Z" fill="#091110"/>
<path fill-rule="evenodd" clip-rule="evenodd" d="M330.999 175.062C311.899 180.522 308.559 175.522 320.999 160.062C322.639 159.852 324.139 160.182 325.499 161.062C327.309 159.162 329.469 158.662 331.999 159.562C338.989 165.462 338.649 170.632 330.999 175.062Z" fill="#F9EA3D"/>
<path fill-rule="evenodd" clip-rule="evenodd" d="M347 275.062C353.42 307.942 359.09 340.942 364 374.062C358.1 379.802 359.1 383.802 367 386.062C368.3 398.002 370.3 409.842 373 421.562C372.4 426.052 371.9 430.552 371.5 435.062C370.5 437.732 369 440.072 367 442.062C362 445.562 357 449.062 352 452.562C345.29 454.422 338.96 457.082 333 460.562C328.92 460.792 324.92 461.462 321 462.562C313.45 466.172 305.78 469.502 298 472.562C289.61 474.472 281.11 475.302 272.5 475.062C253.7 473.672 234.87 472.842 216 472.562C208.36 471.122 200.69 469.792 193 468.562C183.9 464.802 176.56 458.802 171 450.562C163.13 452.052 157.63 449.212 154.5 442.062C154.42 425.052 154.92 408.052 156 391.062C154.71 391.302 153.71 390.962 153 390.062C160.07 390.042 161.74 387.042 158 381.062C159.48 347.472 162.15 313.972 166 280.562C165.83 279.062 165.67 277.562 165.5 276.062C163.17 274.902 161.34 273.232 160 271.062C176.43 269.522 189.09 261.852 198 248.062C205.31 254.382 212.97 260.212 221 265.562C233.49 271.972 245.83 278.642 258 285.562C274.91 293.312 290.24 290.982 304 278.562C309.41 272.532 314.91 266.702 320.5 261.062C328.82 266.642 337.65 271.302 347 275.062Z" fill="#B17A67"/>
<path fill-rule="evenodd" clip-rule="evenodd" d="M367 386.062C359.1 383.802 358.1 379.802 364 374.062C373.64 363.242 381.97 351.402 389 338.562C382.79 335.722 378.29 331.222 375.5 325.062C373.23 320.312 374.06 316.142 378 312.562C379.67 311.892 381.33 311.892 383 312.562C385.65 316.862 388.32 321.192 391 325.562C393.77 326.422 396.6 326.922 399.5 327.062C404.42 325.812 409.42 324.812 414.5 324.062C420.05 324.622 422.05 327.622 420.5 333.062C419.33 334.232 418.17 335.392 417 336.562C411.14 338.412 405.14 339.582 399 340.062C397.33 346.392 394.83 352.392 391.5 358.062C386.12 364.442 381.12 371.112 376.5 378.062C373.73 381.342 370.57 384.002 367 386.062Z" fill="#060606"/>
<path fill-rule="evenodd" clip-rule="evenodd" d="M182 385.061C183.7 385.221 185.37 385.051 187 384.561C190.46 382.101 193.63 379.261 196.5 376.061C194.28 389.031 198.12 399.871 208 408.561C220.79 413.161 231.62 410.331 240.5 400.061C242.25 396.231 244.25 392.571 246.5 389.061C247.17 386.391 247.17 383.731 246.5 381.061C244.19 376.121 242.19 371.121 240.5 366.061C238.83 362.391 236 360.231 232 359.561C213.66 354.841 197.66 359.011 184 372.061C186.24 363.581 190.07 355.911 195.5 349.061C204 341.231 212.5 333.391 221 325.561C227.04 322.441 233.37 320.101 240 318.561C256.12 317.671 272.12 318.671 288 321.561C316.83 330.391 334.33 349.551 340.5 379.061C341.33 396.591 335.49 411.421 323 423.561C311.61 428.661 299.94 432.991 288 436.561C276.46 436.941 264.96 437.771 253.5 439.061C250.33 438.891 247.17 438.731 244 438.561C235.72 436.461 227.38 434.791 219 433.561C209.74 431.011 202.24 425.841 196.5 418.061C188.4 408.521 183.56 397.521 182 385.061Z" fill="#FCFCFC"/>
<path fill-rule="evenodd" clip-rule="evenodd" d="M158 381.061C161.74 387.041 160.07 390.041 153 390.061C134.24 383.921 119.41 372.591 108.5 356.061C105.59 358.601 102.43 360.761 99 362.561C96.67 363.231 94.33 363.231 92 362.561C90.52 360.121 88.69 357.951 86.5 356.061C85.46 352.921 86.29 350.421 89 348.561C92.79 348.331 96.12 347.001 99 344.561C102.33 339.891 105.67 335.231 109 330.561C114.23 328.841 118.06 330.341 120.5 335.061C121.12 340.871 120.79 346.531 119.5 352.061C128.89 358.441 137.39 365.941 145 374.561C151.14 373.641 155.47 375.811 158 381.061Z" fill="#060606"/>
<path fill-rule="evenodd" clip-rule="evenodd" d="M182 385.061C180.13 382.751 179.63 380.081 180.5 377.061C181.68 375.361 182.84 373.701 184 372.061C197.66 359.011 213.66 354.841 232 359.561C236 360.231 238.83 362.391 240.5 366.061C242.19 371.121 244.19 376.121 246.5 381.061C247.17 383.731 247.17 386.391 246.5 389.061C244.25 392.571 242.25 396.231 240.5 400.061C231.62 410.331 220.79 413.161 208 408.561C198.12 399.871 194.28 389.031 196.5 376.061C193.63 379.261 190.46 382.101 187 384.561C185.37 385.051 183.7 385.221 182 385.061Z" fill="#040404"/>
<path fill-rule="evenodd" clip-rule="evenodd" d="M286.999 357.062C299.399 358.132 311.399 360.972 322.999 365.562C327.149 369.472 331.809 372.642 336.999 375.062C339.989 378.442 339.319 380.772 334.999 382.062C330.109 380.982 325.609 378.982 321.499 376.062C321.249 385.492 318.579 394.162 313.499 402.062C309.499 405.892 305.159 409.222 300.499 412.062C292.649 411.082 285.149 408.922 277.999 405.562C274.129 402.312 271.969 398.142 271.499 393.062C269.349 382.462 271.349 372.792 277.499 364.062C280.649 361.582 283.809 359.252 286.999 357.062Z" fill="#050505"/>
<path fill-rule="evenodd" clip-rule="evenodd" d="M287 364.062C292.2 363.642 294.87 365.982 295 371.062C296.27 381.462 291.94 385.462 282 383.062C279.94 380.522 278.61 377.692 278 374.562C278.17 373.392 278.33 372.232 278.5 371.062C281.13 368.352 283.96 366.022 287 364.062Z" fill="#F6F6F6"/>
<path fill-rule="evenodd" clip-rule="evenodd" d="M228 366.062C233.28 366.672 236.28 369.672 237 375.062C236.12 383.122 231.78 386.952 224 386.562C218.13 381.532 217.63 376.032 222.5 370.062C224 368.092 225.83 366.762 228 366.062Z" fill="#F4F4F4"/>
<path fill-rule="evenodd" clip-rule="evenodd" d="M272 413.061C275.07 412.481 277.07 413.651 278 416.561C276.17 421.401 273.17 425.401 269 428.561C266.33 429.231 263.67 429.231 261 428.561C257.64 426.361 254.14 424.521 250.5 423.061C249.24 417.481 251.41 415.651 257 417.561C259.44 418.861 261.94 420.031 264.5 421.061C267.68 419.041 270.18 416.371 272 413.061Z" fill="#0C0C0C"/>
</svg>
