<svg width="500" height="500" viewBox="0 0 500 500" fill="none" xmlns="http://www.w3.org/2000/svg">
<path fill-rule="evenodd" clip-rule="evenodd" d="M327.999 366.062C317.909 376.262 315.239 388.262 319.999 402.062C309.509 403.062 299.679 401.062 290.499 396.062C290.529 406.602 289.199 416.932 286.499 427.062C281.829 436.152 274.659 439.322 264.999 436.562C260.919 432.902 257.419 428.732 254.499 424.062C253.229 428.552 251.559 432.882 249.499 437.062C240.429 444.462 232.429 443.462 225.499 434.062C221.379 425.542 219.219 416.542 218.999 407.062C213.289 409.612 207.289 410.612 200.999 410.062C201.129 409.182 200.799 408.522 199.999 408.062C195.349 406.892 191.679 404.392 188.999 400.562C188.049 400.082 187.049 399.912 185.999 400.062C186.589 399.412 187.259 398.742 187.999 398.062C186.479 392.882 186.979 387.882 189.499 383.062C194.499 373.732 199.999 364.732 205.999 356.062C179.019 345.412 153.689 331.912 129.999 315.562C116.119 302.642 107.289 286.812 103.499 268.062C100.709 254.452 98.0391 240.782 95.4991 227.062C87.6691 177.422 102.509 136.262 139.999 103.562C149.289 97.9219 158.289 91.9219 166.999 85.5619C173.029 82.2119 179.029 78.8819 184.999 75.5619C201.559 70.3419 217.889 64.6819 233.999 58.5619C255.049 56.6019 276.049 57.2719 296.999 60.5619C311.089 62.6119 323.759 67.9419 334.999 76.5619C340.829 81.7319 346.669 86.8919 352.499 92.0619C355.499 96.0619 358.499 100.062 361.499 104.062C372.199 123.792 382.539 143.792 392.499 164.062C404.209 188.852 408.539 214.852 405.499 242.062C402.469 255.832 397.469 268.832 390.499 281.062C384.169 290.062 377.829 299.062 371.499 308.062C362.569 318.332 352.399 327.162 340.999 334.562C326.569 341.772 311.899 348.442 296.999 354.562C307.679 357.732 318.009 361.562 327.999 366.062Z" fill="#B17A67"/>
<path fill-rule="evenodd" clip-rule="evenodd" d="M282 114.062C276.27 112.272 273.27 114.442 273 120.562C273.31 125.702 275.98 128.042 281 127.562C284.06 125.352 286.06 122.522 287 119.062C302.12 121.542 315.29 127.872 326.5 138.062C333.21 145.102 339.54 152.432 345.5 160.062C350.82 170.202 354.66 180.872 357 192.062C343.56 172.992 325.22 161.492 302 157.562C286.97 156.782 271.97 157.112 257 158.562C253.62 159.442 250.28 160.442 247 161.562C212.91 158.632 182.25 167.302 155 187.562C149.73 192.322 145.06 197.492 141 203.062C140.24 191.162 143.07 180.162 149.5 170.062C154.12 163.172 159.45 156.842 165.5 151.062C171.63 137.762 181.47 128.432 195 123.062C197.11 135.012 202.94 137.012 212.5 129.062C214.89 120.942 211.72 117.612 203 119.062C198.28 111.062 196.78 102.402 198.5 93.0615C200.93 84.6115 206.43 81.1115 215 82.5615C226.38 86.2715 234.22 93.7715 238.5 105.062C238.97 106.142 238.8 107.142 238 108.062C231.5 107.062 229 109.732 230.5 116.062C232.53 117.252 234.03 118.922 235 121.062C232.34 123.552 229.5 125.892 226.5 128.062C224.42 135.962 227.26 138.132 235 134.562C238.84 131.382 242.68 128.212 246.5 125.062C249.32 126.542 252.16 128.042 255 129.562C261.25 132.602 264.42 130.772 264.5 124.062C264.13 123.142 263.63 122.312 263 121.562C259.53 120.912 256.53 119.412 254 117.062C258.11 108.512 255.44 104.512 246 105.062C245.12 105.192 244.46 104.862 244 104.062C247.67 93.2015 254.67 85.3715 265 80.5615C271.77 79.0315 276.93 81.2015 280.5 87.0615C281.88 95.9915 282.38 104.992 282 114.062Z" fill="#F0D6B8"/>
<path fill-rule="evenodd" clip-rule="evenodd" d="M265 86.0621C267.15 85.9321 269.15 86.4321 271 87.5621C272.26 89.9521 274.1 91.7821 276.5 93.0621C277.34 98.7221 274.84 101.392 269 101.062C266.18 101.442 264.01 100.442 262.5 98.0621C261.27 93.5021 262.11 89.5021 265 86.0621Z" fill="#0A0907"/>
<path fill-rule="evenodd" clip-rule="evenodd" d="M214 93.0617C220.37 92.9317 222.87 95.9317 221.5 102.062C220.26 108.632 216.43 110.802 210 108.562C206.69 105.482 206.19 101.982 208.5 98.0617C210.23 96.1617 212.06 94.4917 214 93.0617Z" fill="#0B0A08"/>
<path fill-rule="evenodd" clip-rule="evenodd" d="M246 105.062C255.44 104.512 258.11 108.512 254 117.062C256.53 119.412 259.53 120.912 263 121.562C263.63 122.312 264.13 123.142 264.5 124.062C264.42 130.772 261.25 132.602 255 129.562C252.16 128.042 249.32 126.542 246.5 125.062C242.68 128.212 238.84 131.382 235 134.562C227.26 138.132 224.42 135.962 226.5 128.062C229.5 125.892 232.34 123.552 235 121.062C234.03 118.922 232.53 117.252 230.5 116.062C229 109.732 231.5 107.062 238 108.062C240.76 107.052 243.42 106.052 246 105.062Z" fill="#060504"/>
<path fill-rule="evenodd" clip-rule="evenodd" d="M282 114.061C282 115.391 282 116.731 282 118.061C283.72 118.191 285.38 118.521 287 119.061C286.06 122.521 284.06 125.351 281 127.561C275.98 128.041 273.31 125.701 273 120.561C273.27 114.441 276.27 112.271 282 114.061Z" fill="#F2AC93"/>
<path fill-rule="evenodd" clip-rule="evenodd" d="M203 119.061C211.72 117.611 214.89 120.941 212.5 129.061C202.94 137.011 197.11 135.011 195 123.061C197.94 122.091 200.61 120.761 203 119.061Z" fill="#F2AC93"/>
<path fill-rule="evenodd" clip-rule="evenodd" d="M357 192.062C357.67 194.062 358.33 196.062 359 198.062C352.91 195.522 346.91 192.682 341 189.562C327.62 186.672 314.12 184.512 300.5 183.062C296.6 183.082 292.76 183.582 289 184.562C273.71 195.392 267.54 210.232 270.5 229.062C272.01 238.952 276.17 247.452 283 254.562C286.12 256.452 289.45 257.792 293 258.562C301.95 260.072 310.95 260.412 320 259.562C324.79 255.742 329.29 251.582 333.5 247.062C337.29 238.342 340.29 229.342 342.5 220.062C343.21 214.932 342.71 209.932 341 205.062C344.39 206.252 347.72 207.752 351 209.562C355.35 210.022 359.68 210.522 364 211.062C366.24 236.682 358.24 258.342 340 276.062C314.78 291.282 287.78 302.122 259 308.562C233.66 312.792 208.66 311.622 184 305.062C174.66 301.552 166.49 296.222 159.5 289.062C155.47 281.682 150.47 275.012 144.5 269.062C138.56 260.182 134.56 250.522 132.5 240.062C131.53 226.822 134.36 214.492 141 203.062C145.06 197.492 149.73 192.322 155 187.562C182.25 167.302 212.91 158.632 247 161.562C250.28 160.442 253.62 159.442 257 158.562C271.97 157.112 286.97 156.782 302 157.562C325.22 161.492 343.56 172.992 357 192.062Z" fill="#FDFCFC"/>
<path fill-rule="evenodd" clip-rule="evenodd" d="M358.999 198.062C361.099 199.492 363.429 200.662 365.999 201.562C368.759 205.452 368.089 208.622 363.999 211.062C359.679 210.522 355.349 210.022 350.999 209.562C347.719 207.752 344.389 206.252 340.999 205.062C342.709 209.932 343.209 214.932 342.499 220.062C340.289 229.342 337.289 238.342 333.499 247.062C329.289 251.582 324.789 255.742 319.999 259.562C310.949 260.412 301.949 260.072 292.999 258.562C289.449 257.792 286.119 256.452 282.999 254.562C276.169 247.452 272.009 238.952 270.499 229.062C267.539 210.232 273.709 195.392 288.999 184.562C292.759 183.582 296.599 183.082 300.499 183.062C314.119 184.512 327.619 186.672 340.999 189.562C346.909 192.682 352.909 195.522 358.999 198.062Z" fill="#040404"/>
<path fill-rule="evenodd" clip-rule="evenodd" d="M291.001 194.061C296.851 193.401 301.011 195.731 303.501 201.061C303.631 206.731 303.301 212.401 302.501 218.061C298.091 222.911 292.591 224.411 286.001 222.561C283.501 219.391 281.001 216.231 278.501 213.061C277.661 209.441 278.331 206.111 280.501 203.061C284.191 200.201 287.691 197.201 291.001 194.061Z" fill="#F4F4F4"/>
<path fill-rule="evenodd" clip-rule="evenodd" d="M188.001 197.062C198.711 196.212 209.041 197.712 219.001 201.562C223.121 204.302 225.291 208.132 225.501 213.062C230.371 217.462 233.701 222.792 235.501 229.062C236.171 233.062 236.171 237.062 235.501 241.062C231.061 258.492 220.231 269.662 203.001 274.562C197.671 275.232 192.331 275.232 187.001 274.562C181.561 271.452 176.391 267.952 171.501 264.062C164.261 253.912 160.761 242.572 161.001 230.062C156.791 234.762 152.461 239.262 148.001 243.562C145.071 244.342 142.241 244.172 139.501 243.062C138.831 239.392 138.831 235.732 139.501 232.062C150.791 213.602 166.961 201.932 188.001 197.062Z" fill="#040404"/>
<path fill-rule="evenodd" clip-rule="evenodd" d="M204 209.062C216.3 208.872 221.13 214.872 218.5 227.062C216.91 233.652 212.91 237.982 206.5 240.062C199.31 237.872 195.47 233.042 195 225.562C195.29 218.472 198.29 212.972 204 209.062Z" fill="#F8F8F8"/>
<path fill-rule="evenodd" clip-rule="evenodd" d="M278.999 267.062C283.299 266.702 285.969 268.532 286.999 272.562C284.529 279.032 281.199 285.032 276.999 290.562C274.989 291.822 272.819 292.652 270.499 293.062C263.679 291.232 256.849 289.402 249.999 287.562C246.489 284.512 246.159 281.182 248.999 277.562C251.999 276.892 254.999 276.892 257.999 277.562C262.149 279.972 266.479 280.802 270.999 280.062C273.429 275.532 276.089 271.202 278.999 267.062Z" fill="#0B0B0B"/>
<path fill-rule="evenodd" clip-rule="evenodd" d="M340 276.062C318.82 302.142 292.16 319.982 260 329.562C249.23 330.432 238.57 329.772 228 327.562C212.12 322.232 197.45 314.732 184 305.062C208.66 311.622 233.66 312.792 259 308.562C287.78 302.122 314.78 291.282 340 276.062Z" fill="#F1D7B9"/>
<path fill-rule="evenodd" clip-rule="evenodd" d="M186 400.061C187.05 399.911 188.05 400.081 189 400.561C191.68 404.391 195.35 406.891 200 408.061C200.8 408.521 201.13 409.181 201 410.061C189.98 413.751 178.65 414.911 167 413.561C143.69 405.111 135.86 389.281 143.5 366.061C151.86 352.661 162.2 350.661 174.5 360.061C178.73 365.721 180.06 372.051 178.5 379.061C175.95 384.191 172.11 385.351 167 382.561C165.35 378.621 164.52 374.451 164.5 370.061C163.03 368.241 161.2 367.741 159 368.561C154.25 373.831 152.75 380.001 154.5 387.061C157.91 394.031 163.41 398.531 171 400.561C176.05 401.291 181.05 401.121 186 400.061Z" fill="#8B6132"/>
<path fill-rule="evenodd" clip-rule="evenodd" d="M352 356.062C353.26 361.992 356.93 365.662 363 367.062C350.43 377.862 343.43 391.532 342 408.062C341.63 403.552 339.3 402.052 335 403.562C333.83 404.062 333 404.892 332.5 406.062C331.83 408.732 331.83 411.392 332.5 414.062C334.78 414.682 336.94 415.342 339 416.062C335.8 417.352 332.8 416.852 330 414.562C326.42 410.492 323.09 406.332 320 402.062C315.24 388.262 317.91 376.262 328 366.062C335.27 361.102 343.27 357.762 352 356.062Z" fill="#FEEA3D"/>
<path fill-rule="evenodd" clip-rule="evenodd" d="M352 356.062C352.6 355.422 353.43 355.092 354.5 355.062C360 355.732 363.5 358.732 365 364.062C365.05 365.602 364.38 366.602 363 367.062C356.93 365.662 353.26 361.992 352 356.062Z" fill="#958A27"/>
<path fill-rule="evenodd" clip-rule="evenodd" d="M342.001 408.061C342.481 411.391 341.481 414.061 339.001 416.061C336.941 415.341 334.781 414.681 332.501 414.061C331.831 411.391 331.831 408.731 332.501 406.061C333.001 404.891 333.831 404.061 335.001 403.561C339.301 402.051 341.631 403.551 342.001 408.061Z" fill="#B6A82C"/>
</svg>
