<svg width="500" height="500" viewBox="0 0 500 500" fill="none" xmlns="http://www.w3.org/2000/svg">
<path fill-rule="evenodd" clip-rule="evenodd" d="M366 269.062C367.56 273.222 368.23 277.552 368 282.062C364.92 294.982 357.25 304.152 345 309.562C334.58 312.252 324.24 315.082 314 318.062C313.79 323.232 312.79 328.232 311 333.062C307.35 338.052 303.35 342.712 299 347.062C284.02 357.722 267.36 364.052 249 366.062C244.41 366.082 240.07 365.082 236 363.062C231.22 360.672 227.22 357.342 224 353.062C217.03 347.432 212.03 340.432 209 332.062C199.94 333.912 190.77 335.242 181.5 336.062C169.15 336.382 160.82 330.712 156.5 319.062C152.54 307.862 152.04 296.522 155 285.062C160.68 282.172 161.35 278.342 157 273.562C150.7 271.992 144.37 270.832 138 270.062C136.6 263.682 133.43 258.342 128.5 254.062C121.02 240.332 121.52 226.832 130 213.562C125.37 210.912 120.7 208.242 116 205.562C110.95 199.632 105.78 193.802 100.5 188.062C91.73 161.342 97.9 138.512 119 119.562C130.33 112.492 142.66 109.492 156 110.562C161.03 112.162 165.53 114.662 169.5 118.062C185.29 88.7617 208.46 80.9317 239 94.5617C246.13 99.3517 252.29 105.192 257.5 112.062C268.11 100.342 281.28 93.1717 297 90.5617C310.99 88.7817 322.49 93.2817 331.5 104.062C334.6 109.272 337.44 114.602 340 120.062C355.62 119.002 369.12 123.662 380.5 134.062C383.61 137.952 385.94 142.282 387.5 147.062C390.09 163.882 385.92 178.712 375 191.562C383.73 203.002 387.9 215.832 387.5 230.062C384.24 244.662 375.4 254.162 361 258.562C363.08 261.882 364.75 265.382 366 269.062Z" fill="#180E89"/>
<path fill-rule="evenodd" clip-rule="evenodd" d="M165 229.061C167.24 230.101 169.57 230.261 172 229.561C175.15 226.571 178.15 223.401 181 220.061C181.16 223.281 181.32 226.611 181.5 230.061C188.97 252.231 202.81 257.731 223 246.561C229.44 239.971 233.44 232.141 235 223.061C234.83 221.731 234.67 220.391 234.5 219.061C231.12 212.881 227.62 206.881 224 201.061C214.09 195.631 203.75 194.801 193 198.561C184.91 201.681 177.74 206.181 171.5 212.061C168.67 215.721 166.51 219.721 165 224.061C162.79 214.291 164.29 204.961 169.5 196.061C174.25 188.881 179.25 181.881 184.5 175.061C195.4 163.861 208.56 156.691 224 153.561C241.7 153.301 259.36 153.971 277 155.561C303.96 156.771 321.13 170.271 328.5 196.061C335.28 244.951 314.45 274.111 266 283.561C252.67 284.231 239.33 284.231 226 283.561C219.85 282.941 214.18 280.941 209 277.561C187.42 274.321 173.59 262.161 167.5 241.061C166.47 237.091 165.64 233.091 165 229.061Z" fill="#FCFCFC"/>
<path fill-rule="evenodd" clip-rule="evenodd" d="M277 186.062C287.75 186.912 298.41 188.412 309 190.562C314.77 194.002 320.77 197.002 327 199.562C329.95 203.052 329.11 205.222 324.5 206.062C319.65 205.732 315.15 204.402 311 202.062C311.6 212.562 309.43 222.562 304.5 232.062C295.9 242.352 285.06 244.852 272 239.562C266.77 237.332 263.27 233.502 261.5 228.062C257.06 215.402 258.56 203.562 266 192.562C269.15 189.332 272.81 187.162 277 186.062Z" fill="#050505"/>
<path fill-rule="evenodd" clip-rule="evenodd" d="M274 194.061C277.53 193.911 280.36 195.241 282.5 198.061C282.83 202.751 282.5 207.421 281.5 212.061C278.24 214.991 274.41 215.821 270 214.561C268.88 212.441 267.38 210.601 265.5 209.061C264.75 206.261 265.08 203.591 266.5 201.061C269.22 198.831 271.72 196.501 274 194.061Z" fill="#F6F6F6"/>
<path fill-rule="evenodd" clip-rule="evenodd" d="M165 229.061C165 227.391 165 225.731 165 224.061C166.51 219.721 168.67 215.721 171.5 212.061C177.74 206.181 184.91 201.681 193 198.561C203.75 194.801 214.09 195.631 224 201.061C227.62 206.881 231.12 212.881 234.5 219.061C234.67 220.391 234.83 221.731 235 223.061C233.44 232.141 229.44 239.971 223 246.561C202.81 257.731 188.97 252.231 181.5 230.061C181.32 226.611 181.16 223.281 181 220.061C178.15 223.401 175.15 226.571 172 229.561C169.57 230.261 167.24 230.101 165 229.061Z" fill="#060606"/>
<path fill-rule="evenodd" clip-rule="evenodd" d="M211.999 205.061C218.959 204.041 222.629 207.041 222.999 214.061C222.299 220.491 218.959 224.821 212.999 227.061C204.729 223.131 202.889 217.131 207.499 209.061C208.899 207.491 210.399 206.161 211.999 205.061Z" fill="#F7F7F7"/>
<path fill-rule="evenodd" clip-rule="evenodd" d="M368 282.061C368.23 277.551 367.56 273.221 366 269.061C382.06 264.021 394.73 254.351 404 240.061C394.63 236.451 392.63 230.451 398 222.061C399.93 221.041 401.93 220.871 404 221.561C407.24 229.681 412.91 232.011 421 228.561C423.73 226.531 426.73 225.031 430 224.061C435.17 225.331 436.34 228.331 433.5 233.061C430.65 237.071 426.82 239.401 422 240.061C419.68 249.231 415.02 257.061 408 263.561C396.12 272.661 382.78 278.831 368 282.061Z" fill="#050505"/>
<path fill-rule="evenodd" clip-rule="evenodd" d="M138 270.062C144.37 270.832 150.7 271.992 157 273.562C161.35 278.342 160.68 282.172 155 285.062C148.98 284.892 142.98 284.392 137 283.562C124.81 280.032 113.47 274.692 103 267.562C98.48 264.542 94.81 260.702 92 256.062C85.62 259.032 78.95 260.192 72 259.562C68.44 258.162 66.1 255.662 65 252.062C65.14 250.452 65.8 249.122 67 248.062C71.11 245.782 75.44 243.942 80 242.562C83.9 238.752 87.57 234.752 91 230.562C101.63 228.922 105.46 233.422 102.5 244.062C102.19 245.332 101.69 246.492 101 247.562C109 254.232 117 260.892 125 267.562C129.12 269.462 133.45 270.292 138 270.062Z" fill="#050505"/>
<path fill-rule="evenodd" clip-rule="evenodd" d="M265 247.061C268.36 246.431 270.36 247.771 271 251.061C269.31 255.591 266.97 259.751 264 263.561C261.13 265.021 258.13 265.351 255 264.561C251.85 262.961 248.52 261.961 245 261.561C240.78 257.711 241.45 254.871 247 253.061C250.94 254.771 254.94 255.931 259 256.561C261.14 253.451 263.14 250.281 265 247.061Z" fill="#0D0D0D"/>
<path fill-rule="evenodd" clip-rule="evenodd" d="M311 333.062C310.83 350.422 310.33 367.762 309.5 385.062C316.16 386.362 322.66 388.532 329 391.562C332.63 393.772 333.79 396.932 332.5 401.062C331.18 403.052 329.35 404.212 327 404.562C318.21 406.632 310.71 404.462 304.5 398.062C302.26 400.552 299.92 400.552 297.5 398.062C297.36 381.052 297.86 364.052 299 347.062C303.35 342.712 307.35 338.052 311 333.062Z" fill="#050506"/>
<path fill-rule="evenodd" clip-rule="evenodd" d="M224 353.062C227.22 357.342 231.22 360.672 236 363.062C236.61 372.562 237.28 382.062 238 391.562C234.3 403.892 225.8 410.392 212.5 411.062C204.75 410.672 201.75 406.672 203.5 399.062C204.33 398.232 205.17 397.392 206 396.562C211.95 394.752 217.95 393.252 224 392.062C224.47 379.092 224.47 366.092 224 353.062Z" fill="#040405"/>
</svg>
