<svg width="500" height="500" viewBox="0 0 500 500" fill="none" xmlns="http://www.w3.org/2000/svg">
<path fill-rule="evenodd" clip-rule="evenodd" d="M373 139.062C372.24 139.83 371.24 140.33 370 140.562C372.74 145.093 374.9 149.926 376.5 155.062C379.29 169.356 381.96 183.69 384.5 198.062C385.27 207.146 384.77 216.146 383 225.062C384.33 225.062 385.67 225.062 387 225.062C387 225.729 387.33 226.062 388 226.062C389.42 239.687 390.09 253.354 390 267.062C385.93 261.034 380.26 258.867 373 260.562C360 266.229 347 271.895 334 277.562C326.35 278.465 318.69 279.132 311 279.562C298.05 283.042 284.89 285.209 271.5 286.062C228.56 280.009 185.39 275.842 142 273.562C137.66 272.546 133.33 271.713 129 271.062C130.37 260.127 131.04 249.127 131 238.062C132 238.062 133 238.062 134 238.062C133.79 226.872 133.12 215.705 132 204.562C132.76 195.076 133.09 185.576 133 176.062C135.76 167.195 139.1 158.529 143 150.062C147.98 141.109 152.14 131.776 155.5 122.062C165.91 102.429 182.07 90.4281 204 86.0615C196.83 77.0725 190.67 67.4058 185.5 57.0615C180.93 55.8249 176.43 54.3249 172 52.5615C166.36 45.6762 167.03 39.3429 174 33.5615C177.33 31.5615 180.67 29.5615 184 27.5615C202.45 24.6802 208.45 32.0136 202 49.5615C210.61 59.6107 218.11 70.444 224.5 82.0615C244.82 76.0793 265.32 75.4127 286 80.0615C288.57 70.7792 291.9 61.7792 296 53.0615C286.5 43.5363 286.84 34.3697 297 25.5615C308.34 21.8155 317.17 24.9822 323.5 35.0615C325.12 41.4867 323.12 46.4867 317.5 50.0615C312.77 59.9662 309.1 70.2995 306.5 81.0615C305.69 83.1402 305.86 85.1402 307 87.0615C317.46 91.1765 328.12 94.6765 339 97.5615C349.26 103.768 358.42 111.268 366.5 120.062C368.97 126.308 371.14 132.641 373 139.062Z" fill="#020201"/>
<path fill-rule="evenodd" clip-rule="evenodd" d="M143.001 150.061C139.101 158.528 135.761 167.194 133.001 176.061C132.091 180.239 131.261 184.573 130.501 189.061C129.761 205.412 129.931 221.746 131.001 238.061C122.541 237.076 114.541 234.576 107.001 230.561C102.481 226.004 97.6506 221.838 92.5006 218.061C88.4706 212.202 88.1306 206.202 91.5006 200.061C96.2706 192.304 103.111 187.137 112.001 184.561C101.131 178.963 91.1306 172.13 82.0006 164.061C75.3906 154.059 73.8906 143.392 77.5006 132.061C84.0006 124.492 92.1606 121.992 102.001 124.561C108.411 127.033 114.751 129.699 121.001 132.561C128.211 138.608 135.541 144.441 143.001 150.061Z" fill="#B7C0F2"/>
<path fill-rule="evenodd" clip-rule="evenodd" d="M264 124.061C286.94 123.547 308.28 129.047 328 140.561C331.59 143.611 335.09 146.777 338.5 150.061C345.38 164.841 349.55 180.341 351 196.561C350.58 202.803 349.75 208.97 348.5 215.061C342.67 220.228 336.83 225.394 331 230.561C325.67 233.228 320.33 235.894 315 238.561C292.21 243.27 269.21 246.436 246 248.061C227.84 248.461 210.51 244.961 194 237.561C187.14 230.363 179.97 223.529 172.5 217.061C163.08 202.325 161.41 186.659 167.5 170.061C172.49 156.401 181.66 146.568 195 140.561C212.51 134.351 230.51 130.351 249 128.561C254.27 127.499 259.27 125.999 264 124.061Z" fill="#FBFBFB"/>
<path fill-rule="evenodd" clip-rule="evenodd" d="M388 226.062C387.33 226.062 387 225.729 387 225.062C386.4 208.722 385.56 192.389 384.5 176.062C381.1 163.687 377.6 151.354 374 139.062C380.06 136.532 386.06 133.699 392 130.562C400.25 128.221 408.25 128.888 416 132.562C424.46 139.549 426.29 148.049 421.5 158.062C413.14 165.836 404.64 173.503 396 181.062C405.77 189.426 412.1 199.926 415 212.562C414.33 220.229 410.33 225.229 403 227.562C397.93 227.916 392.93 227.416 388 226.062Z" fill="#B8C1F2"/>
<path fill-rule="evenodd" clip-rule="evenodd" d="M285 154.061C290.34 153.895 295.68 154.062 301 154.561C308.35 156.576 315.69 158.576 323 160.561C328.84 164.985 335.18 168.652 342 171.561C343.79 174.988 342.95 177.488 339.5 179.061C334.16 178.154 329.32 176.154 325 173.061C324.29 183.03 321.45 192.363 316.5 201.061C312.43 204.68 308.26 208.18 304 211.561C277.37 212.932 266.21 200.432 270.5 174.061C271.72 169.851 273.39 165.851 275.5 162.061C278.65 159.257 281.81 156.591 285 154.061Z" fill="#050505"/>
<path fill-rule="evenodd" clip-rule="evenodd" d="M206 155.062C213.09 155.156 220.09 155.99 227 157.562C233.48 159.366 236.98 163.533 237.5 170.062C242.52 175.453 244.52 181.787 243.5 189.062C239.82 200.076 232.65 207.909 222 212.562C209.31 215.794 199.48 211.961 192.5 201.062C191.56 197.569 190.22 194.236 188.5 191.062C188.11 186.361 188.11 181.694 188.5 177.062C186 179.562 183.5 182.062 181 184.562C178.15 185.851 175.15 186.351 172 186.062C171.66 182.254 172.16 178.588 173.5 175.062C182.61 165.433 193.44 158.767 206 155.062Z" fill="#050505"/>
<path fill-rule="evenodd" clip-rule="evenodd" d="M373 139.062C373.33 139.062 373.67 139.062 374 139.062C377.6 151.354 381.1 163.687 384.5 176.062C385.56 192.389 386.4 208.722 387 225.062C385.67 225.062 384.33 225.062 383 225.062C384.77 216.146 385.27 207.146 384.5 198.062C381.96 183.69 379.29 169.356 376.5 155.062C374.9 149.926 372.74 145.093 370 140.562C371.24 140.33 372.24 139.83 373 139.062Z" fill="#212858"/>
<path fill-rule="evenodd" clip-rule="evenodd" d="M287 161.062C292.32 160.892 295.32 163.392 296 168.562C294.62 172.2 293.78 176.034 293.5 180.062C290.11 183.53 286.28 184.03 282 181.562C279.42 179.001 277.75 176.001 277 172.562C277.04 170.595 277.54 168.761 278.5 167.062C281.77 165.617 284.6 163.617 287 161.062Z" fill="#F6F6F6"/>
<path fill-rule="evenodd" clip-rule="evenodd" d="M222 165.062C230.8 165.626 233.97 170.293 231.5 179.062C230.09 183.938 226.92 186.938 222 188.062C216.74 186.801 214.07 183.468 214 178.062C214.43 172.184 217.09 167.851 222 165.062Z" fill="#F7F7F7"/>
<path fill-rule="evenodd" clip-rule="evenodd" d="M133 176.062C133.09 185.576 132.76 195.076 132 204.562C133.12 215.705 133.79 226.872 134 238.062C133 238.062 132 238.062 131 238.062C129.93 221.747 129.76 205.413 130.5 189.062C131.26 184.574 132.09 180.24 133 176.062Z" fill="#192153"/>
<path fill-rule="evenodd" clip-rule="evenodd" d="M272 214.061C276.99 213.89 278.83 216.223 277.5 221.061C275.37 225.494 272.2 228.994 268 231.561C265.79 232.187 263.62 232.02 261.5 231.061C257.11 229.031 252.78 227.031 248.5 225.061C247.76 223.12 247.92 221.287 249 219.561C253.78 218.531 258.11 219.531 262 222.561C263.33 223.228 264.67 223.228 266 222.561C268.22 219.848 270.22 217.015 272 214.061Z" fill="#0A0A0A"/>
<path fill-rule="evenodd" clip-rule="evenodd" d="M390 267.062C390.27 268.874 390.94 270.54 392 272.062C392.59 271.853 393.09 271.519 393.5 271.062C394.66 282.242 393.83 293.242 391 304.062C389.76 304.504 388.76 305.171 388 306.062C376.81 310.822 365.47 315.322 354 319.562C322.39 323.529 290.72 327.196 259 330.562C246.64 331.241 234.31 330.908 222 329.562C192.58 325.72 163.25 321.554 134 317.062C132.19 315.726 130.69 314.059 129.5 312.062C128.04 304.417 126.7 296.75 125.5 289.062C124.67 282.703 124.84 276.369 126 270.062C126.92 270.689 127.92 271.023 129 271.062C133.33 271.713 137.66 272.546 142 273.562C185.39 275.842 228.56 280.009 271.5 286.062C284.89 285.209 298.05 283.042 311 279.562C318.69 279.132 326.35 278.465 334 277.562C347 271.895 360 266.229 373 260.562C380.26 258.867 385.93 261.034 390 267.062Z" fill="#FDE93A"/>
<path fill-rule="evenodd" clip-rule="evenodd" d="M387.999 306.062C387.549 312.088 386.879 318.088 385.999 324.062C381.209 328.297 375.879 331.797 369.999 334.562C361.139 337.961 352.139 340.961 342.999 343.562C338.509 345.641 334.169 347.974 329.999 350.562C308.029 352.499 286.029 353.999 263.999 355.062C254.999 354.395 245.999 353.729 236.999 353.062C226.669 353.911 216.339 354.078 205.999 353.562C195.739 351.655 185.409 350.321 174.999 349.562C161.889 345.174 148.559 341.674 134.999 339.062C134.109 331.771 133.769 324.438 133.999 317.062C163.249 321.554 192.579 325.72 221.999 329.562C234.309 330.908 246.639 331.241 258.999 330.562C290.719 327.196 322.389 323.529 353.999 319.562C365.469 315.322 376.809 310.822 387.999 306.062Z" fill="#030301"/>
<path fill-rule="evenodd" clip-rule="evenodd" d="M386 324.062C386.62 324.479 386.96 325.146 387 326.062C384.64 335.681 382.48 345.347 380.5 355.062C377.66 362.089 373.83 368.422 369 374.062C346.65 380.618 323.98 386.118 301 390.562C270.79 397.031 240.46 397.697 210 392.562C194.92 389.98 179.92 386.98 165 383.562C158.89 379.656 152.22 378.156 145 379.062C140.54 366.118 137.21 352.784 135 339.062C148.56 341.674 161.89 345.174 175 349.562C185.41 350.321 195.74 351.655 206 353.562C216.34 354.078 226.67 353.911 237 353.062C246 353.729 255 354.395 264 355.062C286.03 353.999 308.03 352.499 330 350.562C334.17 347.974 338.51 345.641 343 343.562C352.14 340.961 361.14 337.961 370 334.562C375.88 331.797 381.21 328.297 386 324.062Z" fill="#FCE93A"/>
<path fill-rule="evenodd" clip-rule="evenodd" d="M369 374.062C365.02 379.043 361.02 384.043 357 389.062C349.5 393.647 342.16 398.48 335 403.562C329.51 405.807 324.01 407.974 318.5 410.062C318.71 426.052 319.21 442.052 320 458.062C325.51 458.309 330.84 459.475 336 461.562C340.23 462.961 342.9 465.794 344 470.062C343.62 471.945 342.62 473.445 341 474.562C330.56 476.831 320.39 475.997 310.5 472.062C304.52 454.197 300.69 435.864 299 417.062C284.48 419.375 269.81 420.708 255 421.062C246.43 418.92 237.76 417.753 229 417.562C227.5 429.603 227.83 441.603 230 453.562C229.91 458.822 228.41 463.655 225.5 468.062C223.03 470 220.2 471.166 217 471.562C210 472.229 203 472.229 196 471.562C192.48 464.921 194.48 460.588 202 458.562C206.89 456.591 211.89 455.091 217 454.062C215.64 439.091 212.3 424.758 207 411.062C203.98 411.227 200.98 411.06 198 410.562C191.19 407.933 184.19 405.933 177 404.562C166.44 398.36 156.27 391.527 146.5 384.062C145.49 382.537 144.99 380.87 145 379.062C152.22 378.156 158.89 379.656 165 383.562C179.92 386.98 194.92 389.98 210 392.562C240.46 397.697 270.79 397.031 301 390.562C323.98 386.118 346.65 380.618 369 374.062Z" fill="#050503"/>
</svg>
