<svg width="500" height="500" viewBox="0 0 500 500" fill="none" xmlns="http://www.w3.org/2000/svg">
<path fill-rule="evenodd" clip-rule="evenodd" d="M165 86.0612C169.05 88.5412 173.55 89.8712 178.5 90.0612C185.09 87.3412 191.59 87.5112 198 90.5612C202.63 96.2212 201.46 100.051 194.5 102.061C188.49 99.5512 184.16 101.221 181.5 107.061C179.71 110.301 178.21 113.631 177 117.061C172.29 129.351 168.46 142.021 165.5 155.061C163.01 160.361 159.35 161.361 154.5 158.061C152.8 151.131 151.47 144.131 150.5 137.061C148.18 130.081 143.35 125.911 136 124.561C132.66 124.111 129.33 123.611 126 123.061C123.7 123.161 121.7 123.831 120 125.061C115.08 125.781 112.08 123.781 111 119.061C111.35 116.861 112.35 115.031 114 113.561C123.87 110.691 130.04 104.191 132.5 94.0612C133.46 89.5812 134.29 85.0812 135 80.5612C129.21 72.7012 125.88 63.8712 125 54.0612C128.19 50.3412 130.85 46.1812 133 41.5612C137.28 40.1012 140.45 41.2712 142.5 45.0612C145.03 54.9212 146.7 64.9212 147.5 75.0612C152.7 79.7712 158.54 83.4412 165 86.0612Z" fill="#FEEB3D"/>
<path fill-rule="evenodd" clip-rule="evenodd" d="M339 71.0617C340.81 71.0517 342.48 71.5517 344 72.5617C353.81 82.0417 363.31 91.8717 372.5 102.062C382.89 117.462 392.89 133.132 402.5 149.062C407.22 154.942 411.72 160.942 416 167.062C413.31 166.902 410.65 167.062 408 167.562C401.49 171.312 394.82 174.812 388 178.062C383.15 168.722 377.32 160.052 370.5 152.062C363.71 138.692 358.71 124.692 355.5 110.062C350.52 96.7717 345.02 83.7717 339 71.0617Z" fill="#B6FAFE"/>
<path fill-rule="evenodd" clip-rule="evenodd" d="M339.001 71.0615C345.021 83.7715 350.521 96.7715 355.501 110.062C358.711 124.692 363.711 138.692 370.501 152.062C377.321 160.052 383.151 168.722 388.001 178.062C394.821 174.812 401.491 171.312 408.001 167.562C410.651 167.062 413.311 166.902 416.001 167.062C418.011 170.242 419.341 173.742 420.001 177.562C418.381 182.292 416.381 186.792 414.001 191.062C398.271 198.922 382.271 206.262 366.001 213.062C366.001 208.732 366.001 204.392 366.001 200.062C370.901 202.352 374.231 201.012 376.001 196.062C375.971 194.532 375.301 193.362 374.001 192.562C370.441 191.332 367.111 189.832 364.001 188.062C361.581 177.002 356.251 167.662 348.001 160.062C340.151 137.322 331.981 114.662 323.501 92.0615C319.711 94.6615 315.541 96.4915 311.001 97.5615C295.881 98.3415 281.211 101.342 267.001 106.562C256.331 109.892 245.661 109.892 235.001 106.562C225.261 102.042 215.261 98.2015 205.001 95.0615C204.231 102.212 202.731 109.212 200.501 116.062C199.701 135.942 196.031 155.272 189.501 174.062C185.541 187.092 181.041 199.922 176.001 212.562C176.171 213.062 176.331 213.562 176.501 214.062C178.231 213.102 180.061 212.432 182.001 212.062C181.691 214.952 182.031 217.612 183.001 220.062C183.001 222.732 183.001 225.392 183.001 228.062C188.811 255.542 205.151 273.542 232.001 282.062C242.071 298.312 254.241 312.982 268.501 326.062C273.751 317.892 278.751 309.562 283.501 301.062C288.921 293.872 294.091 286.542 299.001 279.062C305.871 277.172 312.541 274.672 319.001 271.562C325.221 267.172 331.551 263.002 338.001 259.062C331.421 270.822 324.591 282.492 317.501 294.062C306.541 308.482 296.711 323.642 288.001 339.562C290.611 342.542 291.941 346.042 292.001 350.062C290.331 351.392 288.671 352.732 287.001 354.062C281.221 355.702 275.561 356.372 270.001 356.062C248.241 341.142 230.411 322.472 216.501 300.062C210.021 293.832 203.361 287.832 196.501 282.062C188.051 271.502 181.381 259.832 176.501 247.062C175.331 245.892 174.171 244.732 173.001 243.562C168.451 242.352 163.781 241.682 159.001 241.562C155.881 240.502 152.881 239.172 150.001 237.562C139.971 227.862 129.631 218.522 119.001 209.562C111.761 203.942 103.761 199.942 95.0006 197.562C88.5806 192.092 87.4206 185.592 91.5006 178.062C95.3306 174.432 99.8306 173.272 105.001 174.562C122.821 182.892 138.651 194.052 152.501 208.062C165.461 179.022 173.621 148.682 177.001 117.062C178.211 113.632 179.711 110.302 181.501 107.062C184.161 101.222 188.491 99.5515 194.501 102.062C201.461 100.052 202.631 96.2215 198.001 90.5615C191.591 87.5115 185.091 87.3415 178.501 90.0615C173.551 89.8715 169.051 88.5415 165.001 86.0615C171.951 78.3315 180.451 73.0015 190.501 70.0615C207.811 73.2215 225.311 74.5615 243.001 74.0615C251.331 73.8915 259.671 73.7315 268.001 73.5615C280.601 71.5715 293.271 70.0715 306.001 69.0615C313.191 69.9915 320.351 69.9915 327.501 69.0615C331.381 69.5715 335.211 70.2315 339.001 71.0615Z" fill="#A9E8FB"/>
<path fill-rule="evenodd" clip-rule="evenodd" d="M348 160.062C328.67 145.012 306.67 138.852 282 141.562C254.04 144.772 228.37 154.102 205 169.562C191.69 180.682 184.02 194.852 182 212.062C180.06 212.432 178.23 213.102 176.5 214.062C176.33 213.562 176.17 213.062 176 212.562C181.04 199.922 185.54 187.092 189.5 174.062C196.03 155.272 199.7 135.942 200.5 116.062C202.73 109.212 204.23 102.212 205 95.0615C215.26 98.2015 225.26 102.042 235 106.562C245.66 109.892 256.33 109.892 267 106.562C281.21 101.342 295.88 98.3415 311 97.5615C315.54 96.4915 319.71 94.6615 323.5 92.0615C331.98 114.662 340.15 137.322 348 160.062Z" fill="#B6FAFE"/>
<path fill-rule="evenodd" clip-rule="evenodd" d="M177 117.062C173.62 148.682 165.46 179.022 152.5 208.062C138.65 194.052 122.82 182.892 105 174.562C99.83 173.272 95.33 174.432 91.5 178.062C87.42 185.592 88.58 192.092 95 197.562C103.76 199.942 111.76 203.942 119 209.562C129.63 218.522 139.97 227.862 150 237.562C152.88 239.172 155.88 240.502 159 241.562C163.78 241.682 168.45 242.352 173 243.562C174.17 244.732 175.33 245.892 176.5 247.062C181.38 259.832 188.05 271.502 196.5 282.062C203.36 287.832 210.02 293.832 216.5 300.062C230.41 322.472 248.24 341.142 270 356.062C269.52 358.872 267.85 360.212 265 360.062C260.26 359.312 255.59 358.312 251 357.062C243.35 352.822 235.35 349.482 227 347.062C217.19 338.762 207.19 330.592 197 322.562C191.83 317.392 186.67 312.232 181.5 307.062C175.89 298.452 169.89 290.112 163.5 282.062C143.66 263.892 125.66 244.232 109.5 223.062C102.43 216.662 96.09 209.662 90.5 202.062C87.5 199.732 84.5 197.392 81.5 195.062C77.99 189.802 78.32 184.802 82.5 180.062C82.71 176.942 83.37 173.942 84.5 171.062C92.41 160.232 100.08 149.232 107.5 138.062C111.87 133.862 116.04 129.522 120 125.062C121.7 123.832 123.7 123.162 126 123.062C129.33 123.612 132.66 124.112 136 124.562C143.35 125.912 148.18 130.082 150.5 137.062C151.47 144.132 152.8 151.132 154.5 158.062C159.35 161.362 163.01 160.362 165.5 155.062C168.46 142.022 172.29 129.352 177 117.062Z" fill="#B6FAFE"/>
<path fill-rule="evenodd" clip-rule="evenodd" d="M348 160.061C356.25 167.661 361.58 177.001 364 188.061C359.05 185.091 353.72 182.921 348 181.561C341.89 181.191 335.89 180.191 330 178.561C323.33 177.891 316.67 177.891 310 178.561C298.93 185.351 293.27 195.351 293 208.561C293.33 219.561 296.99 229.231 304 237.561C314.23 241.861 324.9 243.191 336 241.561C340.83 238.061 345 233.891 348.5 229.061C350.7 222.791 352.7 216.451 354.5 210.061C355.35 205.561 354.85 201.231 353 197.061C353.5 196.731 354 196.391 354.5 196.061C358.09 198.101 361.92 199.441 366 200.061C366 204.391 366 208.731 366 213.061C361.76 231.541 352.43 246.871 338 259.061C331.55 263.001 325.22 267.171 319 271.561C312.54 274.671 305.87 277.171 299 279.061C281.74 281.391 264.41 283.061 247 284.061C241.87 284.171 236.87 283.501 232 282.061C205.15 273.541 188.81 255.541 183 228.061C186.05 229.451 189.05 229.281 192 227.561C195.85 224.011 199.35 220.181 202.5 216.061C201.04 227.681 204.04 238.011 211.5 247.061C227.5 258.621 242.5 257.291 256.5 243.061C259.03 238.481 261.36 233.811 263.5 229.061C266.71 218.351 264.04 209.351 255.5 202.061C254.41 195.641 250.58 191.801 244 190.561C229.65 187.101 216.32 189.431 204 197.561C194.39 202.661 187.39 210.161 183 220.061C182.03 217.611 181.69 214.951 182 212.061C184.02 194.851 191.69 180.681 205 169.561C228.37 154.101 254.04 144.771 282 141.561C306.67 138.851 328.67 145.011 348 160.061Z" fill="#FDFDFD"/>
<path fill-rule="evenodd" clip-rule="evenodd" d="M364 188.062C367.11 189.832 370.44 191.332 374 192.562C375.3 193.362 375.97 194.532 376 196.062C374.23 201.012 370.9 202.352 366 200.062C361.92 199.442 358.09 198.102 354.5 196.062C354 196.392 353.5 196.732 353 197.062C354.85 201.232 355.35 205.562 354.5 210.062C352.7 216.452 350.7 222.792 348.5 229.062C345 233.892 340.83 238.062 336 241.562C324.9 243.192 314.23 241.862 304 237.562C296.99 229.232 293.33 219.562 293 208.562C293.27 195.352 298.93 185.352 310 178.562C316.67 177.892 323.33 177.892 330 178.562C335.89 180.192 341.89 181.192 348 181.562C353.72 182.922 359.05 185.092 364 188.062Z" fill="#040404"/>
<path fill-rule="evenodd" clip-rule="evenodd" d="M311 187.062C315.78 186.202 319.28 187.872 321.5 192.062C321.75 197.072 321.42 202.072 320.5 207.062C316.84 210.932 312.34 212.092 307 210.562C305.27 208.282 303.43 206.122 301.5 204.062C300.68 200.602 301.02 197.262 302.5 194.062C305.52 191.862 308.36 189.532 311 187.062Z" fill="#F7F7F7"/>
<path fill-rule="evenodd" clip-rule="evenodd" d="M183 228.061C183 225.391 183 222.731 183 220.061C187.39 210.161 194.39 202.661 204 197.561C216.32 189.431 229.65 187.101 244 190.561C250.58 191.801 254.41 195.641 255.5 202.061C264.04 209.351 266.71 218.351 263.5 229.061C261.36 233.811 259.03 238.481 256.5 243.061C242.5 257.291 227.5 258.621 211.5 247.061C204.04 238.011 201.04 227.681 202.5 216.061C199.35 220.181 195.85 224.011 192 227.561C189.05 229.281 186.05 229.451 183 228.061Z" fill="#040404"/>
<path fill-rule="evenodd" clip-rule="evenodd" d="M414 191.062C410.84 203.042 405.68 214.042 398.5 224.062C376.73 252.502 355.73 281.502 335.5 311.062C327.16 320.232 318.66 329.232 310 338.062C304.34 342.562 298.34 346.562 292 350.062C291.94 346.042 290.61 342.542 288 339.562C296.71 323.642 306.54 308.482 317.5 294.062C324.59 282.492 331.42 270.822 338 259.062C352.43 246.872 361.76 231.542 366 213.062C382.27 206.262 398.27 198.922 414 191.062Z" fill="#B6FAFE"/>
<path fill-rule="evenodd" clip-rule="evenodd" d="M238 199.061C245.98 198.371 250.32 202.041 251 210.061C250.71 217.751 247.04 222.751 240 225.061C233.68 223.901 230.35 220.071 230 213.561C230.53 207.421 233.19 202.591 238 199.061Z" fill="#F5F5F5"/>
<path fill-rule="evenodd" clip-rule="evenodd" d="M299.999 249.062C302.029 248.902 304.029 249.062 305.999 249.562C307.299 250.362 307.969 251.532 307.999 253.062C305.649 258.602 302.649 263.772 298.999 268.562C295.799 270.042 292.459 270.382 288.999 269.562C284.599 267.652 280.099 266.152 275.499 265.062C272.789 260.192 274.129 257.192 279.499 256.062C282.729 257.032 285.899 258.192 288.999 259.562C290.669 260.232 292.329 260.232 293.999 259.562C295.889 255.952 297.889 252.452 299.999 249.062Z" fill="#0E0E0E"/>
<path fill-rule="evenodd" clip-rule="evenodd" d="M299 279.062C294.09 286.542 288.92 293.872 283.5 301.062C278.75 309.562 273.75 317.892 268.5 326.062C254.24 312.982 242.07 298.312 232 282.062C236.87 283.502 241.87 284.172 247 284.062C264.41 283.062 281.74 281.392 299 279.062Z" fill="#B6FAFE"/>
<path fill-rule="evenodd" clip-rule="evenodd" d="M310 338.062C319.33 345.232 327.5 353.562 334.5 363.062C338.67 371.592 340.67 380.592 340.5 390.062C339.57 392.922 337.9 395.252 335.5 397.062C334.81 401.142 333.81 405.142 332.5 409.062C328.9 417.432 324.4 425.272 319 432.562C313.51 437.142 307.85 441.472 302 445.562C295.05 448.372 288.39 451.702 282 455.562C243.05 467.242 217.55 453.742 205.5 415.062C201.73 397.122 204.73 380.462 214.5 365.062C218.5 358.902 222.66 352.902 227 347.062C235.35 349.482 243.35 352.822 251 357.062C244.68 365.692 238.85 374.692 233.5 384.062C228.36 402.482 232.53 418.482 246 432.062C252.13 435.832 258.8 437.002 266 435.562C277.31 432.072 287.65 426.742 297 419.562C302.78 411.762 306.78 403.102 309 393.562C308.26 385.262 305.43 377.762 300.5 371.062C299.51 368.142 298.85 365.142 298.5 362.062C295.04 358.762 291.21 356.092 287 354.062C288.67 352.732 290.33 351.392 292 350.062C298.34 346.562 304.34 342.562 310 338.062Z" fill="#FEC10E"/>
</svg>
