<svg width="500" height="500" viewBox="0 0 500 500" fill="none" xmlns="http://www.w3.org/2000/svg">
<path fill-rule="evenodd" clip-rule="evenodd" d="M444 254.061C443.34 252.841 442.67 251.511 442 250.061C440.18 261.671 437.51 273.001 434 284.061C424.94 295.621 414.94 306.461 404 316.561C393.43 325.301 382.77 333.801 372 342.061C367.49 343.401 363.15 345.231 359 347.561C358.12 348.921 357.79 350.421 358 352.061C357.34 350.841 356.67 349.511 356 348.061C329.29 356.191 302.29 357.191 275 351.061C270.71 349.901 266.37 348.901 262 348.061C262.28 349.971 261.95 351.641 261 353.061C261.3 350.961 260.97 348.961 260 347.061C248.54 343.171 238.21 337.501 229 330.061C236.11 322.961 244.11 316.961 253 312.061C257.64 314.281 262.31 314.441 267 312.561C270.87 308.481 270.87 304.481 267 300.561C257.94 299.171 250.61 294.841 245 287.561C234.5 284.731 230.67 288.561 233.5 299.061C234.28 300.851 235.45 302.351 237 303.561C230.07 309.661 222.74 315.161 215 320.061C211 316.731 207.33 313.061 204 309.061C204.53 298.261 206.03 287.591 208.5 277.061C210.13 274.431 212.13 272.101 214.5 270.061C216.39 261.281 212.89 257.781 204 259.561C198.65 263.421 195.15 268.591 193.5 275.061C192.44 281.101 191.27 287.101 190 293.061C183.5 295.381 176.83 295.711 170 294.061C123.02 300.341 78.6898 292.171 36.9998 269.561C26.3598 257.971 28.0298 248.631 41.9998 241.561C61.8298 235.691 81.4898 229.351 101 222.561C119.17 210.981 137.5 199.641 156 188.561C162.6 185.141 169.6 183.141 177 182.561C180.1 170.941 184.93 160.101 191.5 150.061C218.1 117.671 251.93 96.8313 293 87.5613C308.34 87.3813 323.67 87.7113 339 88.5613C344.63 90.0213 350.3 91.3513 356 92.5613C369.05 98.3613 382.05 104.361 395 110.561C402.79 116.351 409.96 122.851 416.5 130.061C420.76 137.591 425.76 144.591 431.5 151.061C443.12 171.881 448.29 194.211 447 218.061C446.88 230.151 445.88 242.151 444 254.061Z" fill="#607D8B"/>
<path fill-rule="evenodd" clip-rule="evenodd" d="M365.999 109.062C379.029 108.582 384.199 114.582 381.499 127.062C377.839 133.632 372.339 135.802 364.999 133.562C357.269 128.702 355.429 122.202 359.499 114.062C361.469 112.012 363.629 110.342 365.999 109.062Z" fill="#F6F7F7"/>
<path fill-rule="evenodd" clip-rule="evenodd" d="M370.001 114.061C375.531 112.631 378.861 114.631 380.001 120.061C378.851 125.651 375.521 127.481 370.001 125.561C366.081 121.731 366.081 117.901 370.001 114.061Z" fill="#0E0E0E"/>
<path fill-rule="evenodd" clip-rule="evenodd" d="M252 126.062C264.89 125.452 270.06 131.452 267.5 144.062C262.08 151.852 254.91 154.012 246 150.562C236.63 139.592 238.63 131.432 252 126.062Z" fill="#F7F8F9"/>
<path fill-rule="evenodd" clip-rule="evenodd" d="M250.001 131.061C255.531 129.631 258.861 131.631 260.001 137.061C258.851 142.651 255.521 144.481 250.001 142.561C246.081 138.731 246.081 134.901 250.001 131.061Z" fill="#0D0D0D"/>
<path fill-rule="evenodd" clip-rule="evenodd" d="M406 213.061C399.52 208.981 392.85 205.151 386 201.561C378.92 199.861 371.92 197.861 365 195.561C346.31 192.661 335.14 200.491 331.5 219.061C330.2 228.021 331.2 236.681 334.5 245.061C338.79 250.961 344.63 254.461 352 255.561C357.31 256.561 362.65 256.891 368 256.561C370.73 254.171 373.73 252.171 377 250.561C385.18 240.391 389.51 228.891 390 216.061C395.17 220.371 401.17 222.371 408 222.061C408.62 222.171 409.12 222.501 409.5 223.061C410.71 234.931 409.71 246.601 406.5 258.061C402.67 265.891 396.83 271.731 389 275.561C381.88 278.711 374.88 282.041 368 285.561C364.99 285.691 361.99 285.691 359 285.561C337.1 297.881 313.76 301.541 289 296.561C250.23 289.971 230.23 267.131 229 228.061C234.46 225.791 239.29 222.461 243.5 218.061C243.08 223.021 243.08 228.021 243.5 233.061C251.09 257.941 266.25 264.101 289 251.561C297.47 243.791 301.97 234.291 302.5 223.061C301.03 218.781 299.03 214.781 296.5 211.061C295.64 204.191 291.81 199.691 285 197.561C271.92 193.481 259.25 194.481 247 200.561C243.78 202.621 240.44 204.461 237 206.061C236.56 206.131 236.23 205.961 236 205.561C249.24 182.661 267.91 165.661 292 154.561C295.95 153.351 299.95 152.351 304 151.561C318.65 150.211 333.31 149.871 348 150.561C361.11 151.141 371.94 156.311 380.5 166.061C392.14 180.011 400.64 195.681 406 213.061Z" fill="#FCFCFC"/>
<path fill-rule="evenodd" clip-rule="evenodd" d="M406 213.061C410.3 215.271 410.97 218.271 408 222.061C401.17 222.371 395.17 220.371 390 216.061C389.51 228.891 385.18 240.391 377 250.561C373.73 252.171 370.73 254.171 368 256.561C362.65 256.891 357.31 256.561 352 255.561C344.63 254.461 338.79 250.961 334.5 245.061C331.2 236.681 330.2 228.021 331.5 219.061C335.14 200.491 346.31 192.661 365 195.561C371.92 197.861 378.92 199.861 386 201.561C392.85 205.151 399.52 208.981 406 213.061Z" fill="#040404"/>
<path fill-rule="evenodd" clip-rule="evenodd" d="M229 228.062C227.92 228.022 226.92 227.692 226 227.062C224.85 224.452 224.68 221.792 225.5 219.062C228.89 214.242 232.72 209.902 237 206.062C240.44 204.462 243.78 202.622 247 200.562C259.25 194.482 271.92 193.482 285 197.562C291.81 199.692 295.64 204.192 296.5 211.062C299.03 214.782 301.03 218.782 302.5 223.062C301.97 234.292 297.47 243.792 289 251.562C266.25 264.102 251.09 257.942 243.5 233.062C243.08 228.022 243.08 223.022 243.5 218.062C239.29 222.462 234.46 225.792 229 228.062Z" fill="#040404"/>
<path fill-rule="evenodd" clip-rule="evenodd" d="M348 203.062C350.36 202.902 352.69 203.062 355 203.562C356.83 204.062 358 205.232 358.5 207.062C358.91 212.092 358.58 217.092 357.5 222.062C350.33 228.042 344.33 227.042 339.5 219.062C338.68 215.602 339.02 212.262 340.5 209.062C343.34 207.402 345.84 205.402 348 203.062Z" fill="#F4F4F4"/>
<path fill-rule="evenodd" clip-rule="evenodd" d="M279 206.062C286.08 205.312 290.08 208.472 291 215.562C290.29 219.812 288.62 223.642 286 227.062C277.1 232.232 271.77 229.572 270 219.062C271.29 213.452 274.29 209.122 279 206.062Z" fill="#F6F6F6"/>
<path fill-rule="evenodd" clip-rule="evenodd" d="M444 254.062C449.5 274.722 453.17 295.722 455 317.062C459.95 316.882 464.45 318.212 468.5 321.062C471.51 331.052 468.01 334.882 458 332.562C454.67 331.892 451.33 331.892 448 332.562C443.3 335.242 438.3 336.242 433 335.562C428.28 333.122 426.78 329.292 428.5 324.062C430.99 321.592 433.49 319.262 436 317.062C435.99 307.122 435.83 297.122 435.5 287.062C435.27 285.822 434.77 284.822 434 284.062C437.51 273.002 440.18 261.672 442 250.062C442.67 251.512 443.34 252.842 444 254.062Z" fill="#9D9E9F"/>
<path fill-rule="evenodd" clip-rule="evenodd" d="M204 309.061C203.34 310.181 203.01 311.511 203 313.061C203.46 316.451 204.13 319.781 205 323.061C208.88 323.541 212.21 322.541 215 320.061C222.74 315.161 230.07 309.661 237 303.561C235.45 302.351 234.28 300.851 233.5 299.061C230.67 288.561 234.5 284.731 245 287.561C250.61 294.841 257.94 299.171 267 300.561C270.87 304.481 270.87 308.481 267 312.561C262.31 314.441 257.64 314.281 253 312.061C244.11 316.961 236.11 322.961 229 330.061C221.02 336.141 212.02 338.971 202 338.561C193.69 334.791 189.19 328.291 188.5 319.061C188.01 310.341 188.51 301.671 190 293.061C191.27 287.101 192.44 281.101 193.5 275.061C195.15 268.591 198.65 263.421 204 259.561C212.89 257.781 216.39 261.281 214.5 270.061C212.13 272.101 210.13 274.431 208.5 277.061C206.03 287.591 204.53 298.261 204 309.061Z" fill="#9D9D9E"/>
<path fill-rule="evenodd" clip-rule="evenodd" d="M332 260.062C338.17 258.732 340.34 261.072 338.5 267.062C335.8 271.642 332.3 275.472 328 278.562C325.24 279.142 322.58 278.812 320 277.562C315.72 275.512 311.56 273.342 307.5 271.062C306.51 265.062 309.01 262.892 315 264.562C317.73 266.592 320.73 268.092 324 269.062C325.53 269.032 326.7 268.362 327.5 267.062C329.01 264.702 330.51 262.372 332 260.062Z" fill="#0C0C0C"/>
<path fill-rule="evenodd" clip-rule="evenodd" d="M372.001 342.062C373.361 348.312 374.031 354.642 374.001 361.062C373.331 371.052 373.001 381.052 373.001 391.062C379.531 389.312 385.871 389.812 392.001 392.562C395.991 398.292 394.661 402.622 388.001 405.562C382.361 406.582 376.861 408.082 371.501 410.062C368.581 409.762 366.241 408.432 364.501 406.062C363.501 402.392 362.501 398.732 361.501 395.062C360.401 380.722 359.231 366.392 358.001 352.062C357.791 350.422 358.121 348.922 359.001 347.562C363.151 345.232 367.491 343.402 372.001 342.062Z" fill="#030406"/>
<path fill-rule="evenodd" clip-rule="evenodd" d="M274.999 351.062C277.599 365.312 278.269 379.652 276.999 394.062C284.659 394.832 292.329 395.662 299.999 396.562C302.809 397.872 303.639 400.032 302.499 403.062C300.849 405.682 299.009 408.182 296.999 410.562C287.439 412.992 278.109 412.322 268.999 408.562C267.499 407.062 265.999 405.562 264.499 404.062C260.139 387.292 258.969 370.292 260.999 353.062C261.949 351.642 262.279 349.972 261.999 348.062C266.369 348.902 270.709 349.902 274.999 351.062Z" fill="#030406"/>
</svg>
