<svg width="500" height="500" viewBox="0 0 500 500" fill="none" xmlns="http://www.w3.org/2000/svg">
<path fill-rule="evenodd" clip-rule="evenodd" d="M246 327.061C241.7 325.001 237.03 324.001 232 324.061C224.21 323.181 221.38 318.851 223.5 311.061C225.88 308.521 228.38 306.181 231 304.061C218.84 297.481 206.84 290.651 195 283.561C186.23 273.851 178.07 263.681 170.5 253.061C167.58 246.881 163.91 241.221 159.5 236.061C152.17 219.391 144.83 202.731 137.5 186.061C132.27 170.681 133.27 155.681 140.5 141.061C146.89 127.271 153.56 113.601 160.5 100.061C179.96 72.9012 206.46 57.4012 240 53.5612C248.39 52.7312 256.72 53.0612 265 54.5612C282.48 59.5012 299.81 64.8312 317 70.5612C326.4 75.2912 333.9 82.1312 339.5 91.0612C347.17 107.061 354.83 123.061 362.5 139.061C365.53 148.521 366.53 158.191 365.5 168.061C363.97 176.511 361.97 184.841 359.5 193.061C354.31 207.001 349.81 221.161 346 235.561C340.75 255.471 329.41 270.801 312 281.561C302.14 293.101 290.8 302.771 278 310.561C274.16 311.271 270.5 312.431 267 314.061C268.83 317.061 270.67 320.061 272.5 323.061C274.79 332.351 271.29 336.181 262 334.561C256.77 331.781 251.43 329.281 246 327.061Z" fill="#F44336"/>
<path fill-rule="evenodd" clip-rule="evenodd" d="M309.999 82.0615C313.689 82.7415 317.019 84.2415 319.999 86.5615C323.829 90.3915 327.669 94.2315 331.499 98.0615C337.729 108.292 344.729 117.952 352.499 127.062C351.959 134.612 348.459 136.442 341.999 132.562C334.549 123.502 327.719 114.002 321.499 104.062C317.669 99.2215 312.999 95.5515 307.499 93.0615C304.929 88.4515 305.759 84.7815 309.999 82.0615Z" fill="#F6786E"/>
<path fill-rule="evenodd" clip-rule="evenodd" d="M336 142.061C329.9 139.791 323.9 137.291 318 134.561C311.96 133.771 305.96 132.771 300 131.561C281.81 129.691 272.47 138.021 272 156.561C272.48 178.841 283.82 187.841 306 183.561C310.88 180.351 314.71 176.181 317.5 171.061C320.89 162.961 322.39 154.621 322 146.061C327.07 149.011 332.4 150.011 338 149.061C341.68 168.981 337.85 187.321 326.5 204.061C321.79 209.001 316.29 212.841 310 215.561C296.3 218.571 282.63 221.741 269 225.061C237.92 224.661 212.42 212.661 192.5 189.061C189.56 184.091 187.73 178.751 187 173.061C191.14 170.481 194.64 167.151 197.5 163.061C197.02 176.951 202.86 187.121 215 193.561C231.28 195.501 242.12 188.661 247.5 173.061C250.23 164.501 248.23 157.171 241.5 151.061C240.37 145.931 237.2 142.761 232 141.561C222.29 139.001 212.95 140.001 204 144.561C198.51 147.891 193.18 151.391 188 155.061C193.11 133.111 206.44 118.611 228 111.561C240.56 106.261 253.56 102.601 267 100.561C291.19 98.2414 311.35 106.081 327.5 124.061C331.68 129.421 334.51 135.421 336 142.061Z" fill="#FDFCFC"/>
<path fill-rule="evenodd" clip-rule="evenodd" d="M336 142.062C338.98 143.662 339.65 145.992 338 149.062C332.4 150.012 327.07 149.012 322 146.062C322.39 154.622 320.89 162.962 317.5 171.062C314.71 176.182 310.88 180.352 306 183.562C283.82 187.842 272.48 178.842 272 156.562C272.47 138.022 281.81 129.692 300 131.562C305.96 132.772 311.96 133.772 318 134.562C323.9 137.292 329.9 139.792 336 142.062Z" fill="#050505"/>
<path fill-rule="evenodd" clip-rule="evenodd" d="M287.001 138.062C290.121 138.202 292.621 139.542 294.501 142.062C294.831 146.752 294.501 151.422 293.501 156.062C293.001 156.562 292.501 157.062 292.001 157.562C288.681 158.062 285.351 158.232 282.001 158.062C281.841 155.742 280.671 154.072 278.501 153.062C277.831 150.732 277.831 148.392 278.501 146.062C281.181 143.222 284.011 140.552 287.001 138.062Z" fill="#F6F6F6"/>
<path fill-rule="evenodd" clip-rule="evenodd" d="M348 138.061C356.06 137.711 358.06 141.041 354 148.061C347.7 149.921 344.86 147.591 345.5 141.061C346.2 139.871 347.03 138.871 348 138.061Z" fill="#F6786E"/>
<path fill-rule="evenodd" clip-rule="evenodd" d="M187 173.061C183.01 173.741 181.34 172.071 182 168.061C182.17 166.731 182.33 165.391 182.5 164.061C184.85 161.371 186.68 158.371 188 155.061C193.18 151.391 198.51 147.891 204 144.561C212.95 140.001 222.29 139.001 232 141.561C237.2 142.761 240.37 145.931 241.5 151.061C248.23 157.171 250.23 164.501 247.5 173.061C242.12 188.661 231.28 195.501 215 193.561C202.86 187.121 197.02 176.951 197.5 163.061C194.64 167.151 191.14 170.481 187 173.061Z" fill="#050505"/>
<path fill-rule="evenodd" clip-rule="evenodd" d="M228 148.062C234.04 148.282 237.04 151.452 237 157.562C237.01 163.712 234.18 167.882 228.5 170.062C219.52 165.772 217.85 159.442 223.5 151.062C225.15 150.162 226.65 149.162 228 148.062Z" fill="#F5F5F5"/>
<path fill-rule="evenodd" clip-rule="evenodd" d="M277 189.062C280.39 188.352 282.72 189.522 284 192.562C282.08 196.812 279.75 200.812 277 204.562C274.13 206.022 271.13 206.352 268 205.562C263.95 204.432 260.11 202.932 256.5 201.062C255.68 198.862 256.18 197.032 258 195.562C262.34 195.332 266.51 196.172 270.5 198.062C273.61 195.872 275.78 192.872 277 189.062Z" fill="#0D0D0D"/>
<path fill-rule="evenodd" clip-rule="evenodd" d="M232 324.062C237.03 324.002 241.7 325.002 246 327.062C229.58 339.572 222.08 356.242 223.5 377.062C226.46 381.032 229.8 384.692 233.5 388.062C244.24 402.322 243.07 415.482 230 427.562C221.6 433.622 212.94 439.292 204 444.562C201.44 445.642 198.77 446.142 196 446.062C196.18 443.622 195.52 441.462 194 439.562C196.15 437.322 198.48 435.322 201 433.562C211.3 428.582 220.47 422.082 228.5 414.062C231.68 409.082 231.68 404.082 228.5 399.062C224.03 393.182 219.37 387.512 214.5 382.062C211.15 365.162 214.15 349.502 223.5 335.062C226.57 331.502 229.41 327.832 232 324.062Z" fill="#9F9F9F"/>
</svg>
