<svg width="500" height="500" viewBox="0 0 500 500" fill="none" xmlns="http://www.w3.org/2000/svg">
<path fill-rule="evenodd" clip-rule="evenodd" d="M173.999 139.062C169.129 142.422 165.969 147.092 164.499 153.062C154.769 150.342 147.929 153.682 143.999 163.062C138.059 162.912 133.059 164.912 128.999 169.062C124.779 161.342 119.279 154.682 112.499 149.062C108.949 145.182 105.779 141.012 102.999 136.562C92.4194 135.922 82.0894 133.922 71.9994 130.562C60.7994 126.062 55.2994 117.892 55.4994 106.062C60.5194 93.5417 69.8594 87.8717 83.4994 89.0617C91.3394 89.6617 99.1794 90.3317 106.999 91.0617C108.179 74.5417 114.839 60.7117 126.999 49.5617C135.249 44.2817 142.419 45.4417 148.499 53.0617C153.149 69.3017 152.649 85.4617 146.999 101.562C152.289 109.632 157.449 117.792 162.499 126.062C166.199 130.592 170.029 134.922 173.999 139.062Z" fill="#FDFDFD"/>
<path fill-rule="evenodd" clip-rule="evenodd" d="M174 139.061C183.82 138.641 191.49 142.471 197 150.561C205.34 155.401 213.34 160.731 221 166.561C238.14 166.361 254.81 169.031 271 174.561C300.24 185.311 329.24 196.641 358 208.561C371.76 212.141 384.76 217.481 397 224.561C409.3 237.191 420.47 250.691 430.5 265.061C445.09 290.161 448.75 316.831 441.5 345.061C435.56 370.111 423.06 391.281 404 408.561C398.16 412.981 391.82 416.651 385 419.561C355.56 449.431 320.23 459.761 279 450.561C253.89 446.091 233.05 434.261 216.5 415.061C201.88 395.511 189.55 374.511 179.5 352.061C176.27 338.591 174.27 324.921 173.5 311.061C166.03 290.651 159.36 269.991 153.5 249.061C147.87 231.431 138.2 216.431 124.5 204.061C120.39 196.181 121.56 189.181 128 183.061C126.57 178.261 126.9 173.591 129 169.061C133.06 164.911 138.06 162.911 144 163.061C147.93 153.681 154.77 150.341 164.5 153.061C165.97 147.091 169.13 142.421 174 139.061Z" fill="#B07966"/>
<path fill-rule="evenodd" clip-rule="evenodd" d="M404 317.061C397.42 314.771 391.09 311.941 385 308.561C372.87 305.341 360.54 304.001 348 304.561C337.73 310.251 332.4 319.081 332 331.061C332.18 340.631 335.18 349.131 341 356.561C366.14 368.101 381.3 360.261 386.5 333.061C386.86 328.691 386.86 324.361 386.5 320.061C390.44 323.281 394.94 324.611 400 324.061C401.03 324.811 402.2 325.481 403.5 326.061C410.57 350.861 403.73 370.691 383 385.561C354.05 397.841 323.88 404.671 292.5 406.061C270.33 407.301 251.66 399.961 236.5 384.061C226.41 364.181 224.41 343.511 230.5 322.061C234.5 312.711 238.5 303.381 242.5 294.061C245 290.231 248.17 287.061 252 284.561C268.04 275.711 285.04 269.381 303 265.561C313.97 264.181 324.97 263.851 336 264.561C355.13 269.961 372.79 278.291 389 289.561C396.72 297.171 401.72 306.341 404 317.061Z" fill="#FDFDFC"/>
<path fill-rule="evenodd" clip-rule="evenodd" d="M404 317.061C406.24 321.651 404.91 323.981 400 324.061C394.94 324.611 390.44 323.281 386.5 320.061C386.86 324.361 386.86 328.691 386.5 333.061C381.3 360.261 366.14 368.101 341 356.561C335.18 349.131 332.18 340.631 332 331.061C332.4 319.081 337.73 310.251 348 304.561C360.54 304.001 372.87 305.341 385 308.561C391.09 311.941 397.42 314.771 404 317.061Z" fill="#040404"/>
<path fill-rule="evenodd" clip-rule="evenodd" d="M348.001 312.062C352.391 311.502 355.561 313.172 357.501 317.062C357.741 321.412 357.401 325.742 356.501 330.062C349.651 336.082 343.981 335.082 339.501 327.062C338.831 324.732 338.831 322.392 339.501 320.062C342.541 317.482 345.381 314.822 348.001 312.062Z" fill="#F4F4F4"/>
<path fill-rule="evenodd" clip-rule="evenodd" d="M271 314.062C278.93 313.692 286.59 314.862 294 317.562C297.09 319.642 298.92 322.472 299.5 326.062C308.22 335.612 309.22 345.942 302.5 357.062C294.86 369.962 283.69 374.802 269 371.562C265.41 369.182 261.91 366.682 258.5 364.062C256.51 360.102 254.51 356.102 252.5 352.062C250.84 347.442 250.5 342.772 251.5 338.062C248.33 342.562 244.5 346.392 240 349.562C235.92 350.482 233.92 348.822 234 344.562C236.23 337.442 240.23 331.442 246 326.562C253.6 320.762 261.93 316.592 271 314.062Z" fill="#050505"/>
<path fill-rule="evenodd" clip-rule="evenodd" d="M283 323.062C290.32 322.382 294.32 325.712 295 333.062C294.32 339.812 290.82 344.142 284.5 346.062C279.7 344.432 276.87 341.092 276 336.062C276.66 330.682 278.99 326.352 283 323.062Z" fill="#F6F6F6"/>
<path fill-rule="evenodd" clip-rule="evenodd" d="M338 367.062C341.7 366.242 344.03 367.572 345 371.062C343.48 376.262 340.82 380.762 337 384.562C334.8 385.932 332.47 386.272 330 385.562C324.96 384.102 320.13 382.272 315.5 380.062C314.68 377.862 315.18 376.032 317 374.562C322.44 374.622 327.77 375.292 333 376.562C334.81 373.452 336.47 370.282 338 367.062Z" fill="#0B0B0B"/>
</svg>
