<svg width="500" height="500" viewBox="0 0 500 500" fill="none" xmlns="http://www.w3.org/2000/svg">
<path fill-rule="evenodd" clip-rule="evenodd" d="M402.001 265.062C399.331 266.912 398.331 269.572 399.001 273.062C398.231 272.302 397.731 271.302 397.501 270.062C383.881 285.862 373.381 303.522 366.001 323.062C365.001 323.392 364.001 323.732 363.001 324.062C348.691 322.092 334.361 320.932 320.001 320.562C318.521 322.132 316.851 323.472 315.001 324.562C310.121 326.742 305.121 328.742 300.001 330.562C287.521 332.122 275.181 334.462 263.001 337.562C245.331 344.732 228.001 352.402 211.001 360.562C186.081 370.022 161.411 380.022 137.001 390.562C131.381 392.612 125.721 393.112 120.001 392.062C113.191 390.762 108.691 386.762 106.501 380.062C104.151 371.812 104.651 363.812 108.001 356.062C98.1105 348.342 88.6105 340.012 79.5005 331.062C72.3305 321.732 67.0005 311.402 63.5005 300.062C57.3205 293.712 52.6605 286.382 49.5005 278.062C46.6905 267.842 44.3605 257.502 42.5005 247.062C41.8305 235.392 41.8305 223.732 42.5005 212.062C48.5505 189.642 56.5505 167.972 66.5005 147.062C71.2105 142.022 75.5505 136.682 79.5005 131.062C91.3605 120.202 102.861 109.032 114.001 97.5616C127.601 87.3216 142.601 79.6616 159.001 74.5616C170.261 71.3616 181.591 68.3616 193.001 65.5616C212.981 64.0816 232.981 63.7416 253.001 64.5616C268.191 67.3116 283.531 68.9716 299.001 69.5616C306.741 72.0316 314.411 74.7016 322.001 77.5616C331.001 83.7316 340.331 89.4016 350.001 94.5616C359.091 102.642 366.251 112.142 371.501 123.062C381.601 142.602 390.601 162.602 398.501 183.062C400.221 193.472 402.221 203.802 404.501 214.062C405.801 230.412 404.631 246.582 401.001 262.562C401.031 263.632 401.361 264.462 402.001 265.062Z" fill="#B17A67"/>
<path fill-rule="evenodd" clip-rule="evenodd" d="M357.999 198.061C348.569 193.851 339.239 189.351 329.999 184.561C320.619 183.661 311.279 182.321 301.999 180.561C295.999 179.891 289.999 179.891 283.999 180.561C271.399 187.561 264.729 198.401 263.999 213.061C264.109 225.521 267.609 236.851 274.499 247.061C279.599 251.091 285.429 253.251 291.999 253.561C298.999 254.231 305.999 254.231 312.999 253.561C318.499 249.391 323.329 244.561 327.499 239.061C330.229 231.521 332.569 223.861 334.499 216.061C335.279 211.251 334.779 206.591 332.999 202.061C333.499 201.731 333.999 201.391 334.499 201.061C341.539 204.801 349.039 206.301 356.999 205.561C358.079 204.231 358.749 202.731 358.999 201.061C360.429 205.201 361.589 209.531 362.499 214.061C366.159 235.101 362.159 254.431 350.499 272.061C347.959 274.931 345.129 277.431 341.999 279.561C332.749 284.091 323.419 288.421 313.999 292.561C292.459 299.001 271.119 306.001 249.999 313.561C216.609 323.101 185.279 318.771 155.999 300.561C147.629 293.861 141.129 285.691 136.499 276.061C134.779 269.181 132.449 262.511 129.499 256.061C122.529 235.861 123.529 216.191 132.499 197.061C141.079 180.081 153.239 166.241 168.999 155.561C198.969 135.611 231.969 127.281 267.999 130.561C289.659 133.561 308.659 142.221 324.999 156.561C335.909 165.471 345.409 175.641 353.499 187.061C355.549 190.491 357.049 194.161 357.999 198.061Z" fill="#FDFDFD"/>
<path fill-rule="evenodd" clip-rule="evenodd" d="M358 198.062C358.61 198.952 358.94 199.952 359 201.062C358.75 202.732 358.08 204.232 357 205.562C349.04 206.302 341.54 204.802 334.5 201.062C334 201.392 333.5 201.732 333 202.062C334.78 206.592 335.28 211.252 334.5 216.062C332.57 223.862 330.23 231.522 327.5 239.062C323.33 244.562 318.5 249.392 313 253.562C306 254.232 299 254.232 292 253.562C285.43 253.252 279.6 251.092 274.5 247.062C267.61 236.852 264.11 225.522 264 213.062C264.73 198.402 271.4 187.562 284 180.562C290 179.892 296 179.892 302 180.562C311.28 182.322 320.62 183.662 330 184.562C339.24 189.352 348.57 193.852 358 198.062Z" fill="#030303"/>
<path fill-rule="evenodd" clip-rule="evenodd" d="M284.999 190.062C292.559 189.652 296.559 193.152 296.999 200.562C296.499 205.062 295.999 209.562 295.499 214.062C291.309 218.962 286.139 220.292 279.999 218.062C278.999 215.312 277.169 213.312 274.499 212.062C271.169 207.732 271.169 203.392 274.499 199.062C278.189 196.202 281.689 193.202 284.999 190.062Z" fill="#F2F2F2"/>
<path fill-rule="evenodd" clip-rule="evenodd" d="M185 193.062C195.39 192.172 205.39 193.672 215 197.562C219.35 200.222 221.51 204.052 221.5 209.062C230.54 216.892 233.54 226.562 230.5 238.062C223.22 260.112 208.06 270.272 185 268.562C173.03 263.922 165.2 255.422 161.5 243.062C160.3 237.142 159.64 231.142 159.5 225.062C155.32 228.942 151.48 233.112 148 237.562C145.08 239.272 142.08 239.442 139 238.062C137.84 234.102 137.67 230.102 138.5 226.062C149.75 208.962 165.25 197.962 185 193.062Z" fill="#040404"/>
<path fill-rule="evenodd" clip-rule="evenodd" d="M202 204.062C213.01 205.062 217.51 211.062 215.5 222.062C214.11 226.352 211.61 229.852 208 232.562C205.13 234.022 202.13 234.352 199 233.562C190.19 226.472 189.02 218.302 195.5 209.062C197.83 207.492 199.99 205.832 202 204.062Z" fill="#F5F5F5"/>
<path fill-rule="evenodd" clip-rule="evenodd" d="M272.999 261.062C281.379 261.852 283.209 265.852 278.499 273.062C276.049 277.172 273.219 281.012 269.999 284.562C265.729 286.252 261.389 286.252 256.999 284.562C252.939 282.372 248.609 280.872 243.999 280.062C240.819 272.392 243.479 269.232 251.999 270.562C255.989 273.232 260.319 274.232 264.999 273.562C267.549 269.282 270.219 265.112 272.999 261.062Z" fill="#0C0C0C"/>
<path fill-rule="evenodd" clip-rule="evenodd" d="M414 276.062C410.19 277.872 406.19 278.372 402 277.562C400.36 276.432 399.36 274.932 399 273.062C398.33 269.572 399.33 266.912 402 265.062C411.88 260.752 416.38 264.082 415.5 275.062C415.12 275.622 414.62 275.952 414 276.062Z" fill="#090808"/>
<path fill-rule="evenodd" clip-rule="evenodd" d="M399 273.062C399.36 274.932 400.36 276.432 402 277.562C406.19 278.372 410.19 277.872 414 276.062C411.13 285.472 407.96 294.812 404.5 304.062C399.69 312.682 395.69 321.682 392.5 331.062C391.83 332.732 391.83 334.392 392.5 336.062C395.04 338.112 397.38 340.452 399.5 343.062C410.08 328.812 421.74 315.482 434.5 303.062C436.39 299.122 438.89 295.622 442 292.562C443.29 292.072 444.63 291.902 446 292.062C443.28 295.882 441.62 300.222 441 305.062C442.01 309.572 444.84 312.232 449.5 313.062C451.48 312.572 453.15 311.572 454.5 310.062C455 306.742 455.17 303.412 455 300.062C457.8 302.762 458.64 306.102 457.5 310.062C451.62 320.602 444.95 330.602 437.5 340.062C432.57 350.252 426.41 359.592 419 368.062C418.42 378.142 413.42 384.972 404 388.562C395.96 400.262 385.3 408.602 372 413.562C337.3 414.712 302.63 416.712 268 419.562C236.5 424.082 205.17 429.412 174 435.562C160.28 437.742 147.28 435.742 135 429.562C121.55 420.482 116.55 407.982 120 392.062C125.72 393.112 131.38 392.612 137 390.562C161.41 380.022 186.08 370.022 211 360.562C228 352.402 245.33 344.732 263 337.562C275.18 334.462 287.52 332.122 300 330.562C305.12 328.742 310.12 326.742 315 324.562C316.85 323.472 318.52 322.132 320 320.562C334.36 320.932 348.69 322.092 363 324.062C364 323.732 365 323.392 366 323.062C373.38 303.522 383.88 285.862 397.5 270.062C397.73 271.302 398.23 272.302 399 273.062Z" fill="#E9E2C2"/>
</svg>
