<svg width="500" height="500" viewBox="0 0 500 500" fill="none" xmlns="http://www.w3.org/2000/svg">
<path fill-rule="evenodd" clip-rule="evenodd" d="M363 285.061C361.05 288.971 359.05 292.971 357 297.061C358.55 298.011 360.21 298.351 362 298.061C362.67 298.061 363.33 298.061 364 298.061C361.27 298.771 358.44 299.431 355.5 300.061C351.33 307.731 346.67 315.071 341.5 322.061C328.53 336.031 315.2 349.701 301.5 363.061C301 365.371 300.84 367.701 301 370.061C300.2 368.611 299.7 366.941 299.5 365.061C294.87 369.441 290.04 373.441 285 377.061C272.23 387.511 257.57 391.341 241 388.561C236.11 387.701 231.61 385.871 227.5 383.061C227 386.041 226.84 389.041 227 392.061C226.02 388.601 225.69 384.931 226 381.061C225.91 377.501 226.74 374.171 228.5 371.061C231.67 368.561 234.83 366.061 238 363.561C249.56 350.501 261.9 338.331 275 327.061C287.8 323.731 300.13 318.901 312 312.561C334.44 297.211 343.1 276.381 338 250.061C338 249.391 338.33 249.061 339 249.061C340 249.151 340.83 248.811 341.5 248.061C347.9 233.741 351.9 218.741 353.5 203.061C355.66 178.311 355 153.651 351.5 129.061C347.63 114.441 343.96 99.7715 340.5 85.0615C338.56 81.4915 336.39 78.1615 334 75.0615C342.26 66.0015 351.6 64.8315 362 71.5615C370.04 75.9315 375.54 82.4315 378.5 91.0615C380.94 104.041 383.27 117.041 385.5 130.061C389.85 141.441 393.18 153.111 395.5 165.061C396.96 180.321 395.62 195.321 391.5 210.061C386.18 227.021 379.52 243.361 371.5 259.061C369.28 267.961 366.44 276.631 363 285.061Z" fill="#C4C4C4"/>
<path fill-rule="evenodd" clip-rule="evenodd" d="M334 75.0615C336.39 78.1615 338.56 81.4915 340.5 85.0615C343.96 99.7715 347.63 114.442 351.5 129.062C355 153.652 355.66 178.312 353.5 203.062C351.9 218.742 347.9 233.742 341.5 248.062C340.83 248.812 340 249.152 339 249.062C339.47 246.202 338.47 244.202 336 243.062C336.6 242.822 336.93 242.322 337 241.562C326.17 216.632 307.17 202.632 280 199.562C256.83 197.062 235.5 202.062 216 214.562C194.27 231.532 185.44 253.692 189.5 281.062C198.65 308.222 217.49 323.392 246 326.562C255.66 327.062 265.33 327.232 275 327.062C261.9 338.332 249.56 350.502 238 363.562C234.83 366.062 231.67 368.562 228.5 371.062C226.74 374.172 225.91 377.502 226 381.062C224.48 381.052 223.32 380.382 222.5 379.062C219.17 374.392 215.83 369.732 212.5 365.062C211.68 363.742 210.52 363.072 209 363.062C198.91 346.132 186.75 330.802 172.5 317.062C169.08 312.492 165.91 307.822 163 303.062C163.82 301.112 163.99 299.112 163.5 297.062C156.8 283.992 150.46 270.652 144.5 257.062C143.9 253.902 144.4 250.902 146 248.062C144.81 247.132 143.48 246.802 142 247.062C144.33 238.532 148.99 231.362 156 225.562C187.33 199.892 218.67 174.232 250 148.562C265.67 136.892 281.33 125.232 297 113.562C309.93 101.132 322.26 88.3015 334 75.0615Z" fill="#9E9E9E"/>
<path fill-rule="evenodd" clip-rule="evenodd" d="M336 243.062C330.16 240.312 324.16 237.812 318 235.562C310.65 234.502 303.31 233.332 296 232.062C285.66 233.232 279.16 238.902 276.5 249.062C271.97 274.522 282.47 285.692 308 282.562C316.53 276.692 321.36 268.522 322.5 258.062C322.71 254.282 322.88 250.612 323 247.062C327.75 249.902 332.75 250.902 338 250.062C343.1 276.382 334.44 297.212 312 312.562C300.13 318.902 287.8 323.732 275 327.062C265.33 327.232 255.66 327.062 246 326.562C217.49 323.392 198.65 308.222 189.5 281.062C185.44 253.692 194.27 231.532 216 214.562C235.5 202.062 256.83 197.062 280 199.562C307.17 202.632 326.17 216.632 337 241.562C336.93 242.322 336.6 242.822 336 243.062Z" fill="#FDFDFD"/>
<path fill-rule="evenodd" clip-rule="evenodd" d="M430 270.062C429.12 269.932 428.46 270.262 428 271.062C426 275.732 424 280.392 422 285.062C422.46 285.862 423.12 286.192 424 286.062C423.1 286.722 422.1 287.382 421 288.062C419.62 291.652 417.62 294.822 415 297.562C413.67 298.232 412.33 298.232 411 297.562C409.37 293.422 406.37 291.582 402 292.062C403.22 291.402 404.55 290.732 406 290.062C410.46 281.802 413.8 273.142 416 264.062C425.48 241.932 436.48 220.432 449 199.562C452.59 199.472 454.76 201.302 455.5 205.062C458.7 220.632 457.03 235.632 450.5 250.062C448.29 251.932 446.46 254.102 445 256.562C441.5 256.842 438.17 257.012 435 257.062C433.65 261.262 431.65 265.092 429 268.562C429.56 268.942 429.89 269.442 430 270.062Z" fill="#9E9E9E"/>
<path fill-rule="evenodd" clip-rule="evenodd" d="M336 243.062C338.47 244.202 339.47 246.202 339 249.062C338.33 249.062 338 249.392 338 250.062C332.75 250.902 327.75 249.902 323 247.062C322.88 250.612 322.71 254.282 322.5 258.062C321.36 268.522 316.53 276.692 308 282.562C282.47 285.692 271.97 274.522 276.5 249.062C279.16 238.902 285.66 233.232 296 232.062C303.31 233.332 310.65 234.502 318 235.562C324.16 237.812 330.16 240.312 336 243.062Z" fill="#050505"/>
<path fill-rule="evenodd" clip-rule="evenodd" d="M288 240.062C291.51 239.442 294.35 240.442 296.5 243.062C297.17 247.062 297.17 251.062 296.5 255.062C293.9 258.772 290.4 259.942 286 258.562C284.88 256.442 283.38 254.602 281.5 253.062C280.83 251.062 280.83 249.062 281.5 247.062C283.76 244.842 285.92 242.512 288 240.062Z" fill="#F6F6F6"/>
<path fill-rule="evenodd" clip-rule="evenodd" d="M218 242.061C224.34 241.891 230.68 242.061 237 242.561C242.2 243.761 245.37 246.931 246.5 252.061C252.51 257.491 254.51 264.151 252.5 272.061C249.68 280.901 244.18 287.401 236 291.561C227.51 294.511 219.84 293.181 213 287.561C206.65 280.671 203.81 272.501 204.5 263.061C202.12 265.991 199.62 268.821 197 271.561C194.88 273.141 192.71 273.311 190.5 272.061C189.83 269.391 189.83 266.731 190.5 264.061C192.17 261.391 193.83 258.731 195.5 256.061C202.17 249.981 209.67 245.311 218 242.061Z" fill="#050505"/>
<path fill-rule="evenodd" clip-rule="evenodd" d="M142 247.061C143.48 246.801 144.81 247.131 146 248.061C144.4 250.901 143.9 253.901 144.5 257.061C150.46 270.651 156.8 283.991 163.5 297.061C163.99 299.111 163.82 301.111 163 303.061C155.3 313.281 148.14 323.941 141.5 335.061C129.57 346.451 117.74 357.951 106 369.561C89.3 382.191 72.64 382.191 56 369.561C52.78 366.011 49.95 362.171 47.5 358.061C46.76 350.871 44.92 344.031 42 337.561C42.32 333.251 43.82 329.421 46.5 326.061C60.17 312.381 75 300.211 91 289.561C101.44 279.511 112.44 270.181 124 261.561C127.33 257.891 130.67 254.231 134 250.561C136.32 248.571 138.98 247.401 142 247.061Z" fill="#010101"/>
<path fill-rule="evenodd" clip-rule="evenodd" d="M233 249.062C239.18 249.082 242.18 252.252 242 258.562C241.7 263.992 239.03 267.822 234 270.062C225.85 266.432 224.01 260.762 228.5 253.062C229.9 251.492 231.4 250.162 233 249.062Z" fill="#F6F6F6"/>
<path fill-rule="evenodd" clip-rule="evenodd" d="M416 264.061C413.8 273.141 410.46 281.801 406 290.061C404.55 290.731 403.22 291.401 402 292.061C389.32 293.931 376.65 295.931 364 298.061C363.33 298.061 362.67 298.061 362 298.061C362.62 293.611 363.62 289.281 365 285.061C370.37 284.551 375.71 283.721 381 282.561C388.26 280.081 395.59 277.911 403 276.061C402.35 273.731 401.68 271.401 401 269.061C402.01 264.371 405.01 262.371 410 263.061C412.09 263.131 414.09 263.471 416 264.061Z" fill="#070707"/>
<path fill-rule="evenodd" clip-rule="evenodd" d="M430 270.062C434.46 271.992 436.63 275.332 436.5 280.062C432.2 281.922 428.03 283.922 424 286.062C423.12 286.192 422.46 285.862 422 285.062C424 280.392 426 275.732 428 271.062C428.46 270.262 429.12 269.932 430 270.062Z" fill="#0D0D0D"/>
<path fill-rule="evenodd" clip-rule="evenodd" d="M281 288.061C284.09 287.391 285.76 288.561 286 291.561C284.69 300.561 279.69 304.561 271 303.561C267.34 302.281 263.84 300.781 260.5 299.061C259.99 295.731 261.49 294.071 265 294.061C268.2 294.911 271.36 295.911 274.5 297.061C277.16 294.411 279.32 291.411 281 288.061Z" fill="#080808"/>
<path fill-rule="evenodd" clip-rule="evenodd" d="M363 285.062C363.67 285.062 364.33 285.062 365 285.062C363.62 289.282 362.62 293.612 362 298.062C360.21 298.352 358.55 298.012 357 297.062C359.05 292.972 361.05 288.972 363 285.062Z" fill="#646464"/>
<path fill-rule="evenodd" clip-rule="evenodd" d="M209 363.062C210.52 363.072 211.68 363.742 212.5 365.062C215.83 369.732 219.17 374.392 222.5 379.062C223.32 380.382 224.48 381.052 226 381.062C225.69 384.932 226.02 388.602 227 392.062C227.17 403.732 227 415.402 226.5 427.062C215.6 432.792 204.44 433.292 193 428.562C189.13 425.142 189.13 421.812 193 418.562C198.63 417.402 204.3 416.572 210 416.062C210.17 402.722 210 389.392 209.5 376.062C208.74 372.872 207.91 369.712 207 366.562C207.31 365.102 207.97 363.932 209 363.062Z" fill="#050505"/>
<path fill-rule="evenodd" clip-rule="evenodd" d="M301 370.062C301 370.392 301 370.732 301 371.062C296.25 376.152 290.91 380.482 285 384.062C285 381.732 285 379.392 285 377.062C290.04 373.442 294.87 369.442 299.5 365.062C299.7 366.942 300.2 368.612 301 370.062Z" fill="#636363"/>
<path fill-rule="evenodd" clip-rule="evenodd" d="M301 371.062C301.87 383.702 302.21 396.372 302 409.062C306.76 409.262 310.93 410.922 314.5 414.062C316.66 417.752 316.49 421.252 314 424.562C306.19 427.002 298.19 427.662 290 426.562C288.83 425.392 287.67 424.232 286.5 423.062C285.23 410.092 284.73 397.092 285 384.062C290.91 380.482 296.25 376.152 301 371.062Z" fill="#060606"/>
</svg>
