<svg width="500" height="500" viewBox="0 0 500 500" fill="none" xmlns="http://www.w3.org/2000/svg">
<path fill-rule="evenodd" clip-rule="evenodd" d="M273 101.061C271.7 110.001 270.87 119.001 270.5 128.061C270.12 136.441 265.96 141.941 258 144.561C232.33 155.031 205.66 160.361 178 160.561C168.78 157.681 163.62 151.521 162.5 142.061C160.8 140.191 158.96 138.521 157 137.061C147.6 120.611 137.44 104.611 126.5 89.061C123.36 81.311 120.03 73.6409 116.5 66.0609C116.39 53.8609 122.22 49.6909 134 53.5609C138.84 59.9009 143.84 66.0609 149 72.0609C149.33 71.2309 149.67 70.3909 150 69.5609C146.3 57.6309 144.46 45.4609 144.5 33.0609C151.25 23.1209 158.91 22.4509 167.5 31.0609C171.64 38.3509 174.97 46.0109 177.5 54.0609C179.33 58.3909 181.66 62.3909 184.5 66.0609C184.45 54.6109 185.45 43.2809 187.5 32.0609C191.68 21.5509 198.84 18.7209 209 23.5609C210.54 25.1409 211.71 26.9709 212.5 29.0609C214.24 41.7109 215.91 54.3809 217.5 67.0609C219.29 54.4609 220.29 41.7909 220.5 29.0609C222.35 17.0609 228.85 13.2309 240 17.5609C242.39 19.5109 243.89 22.0109 244.5 25.0609C245 29.7109 245.17 34.3809 245 39.0609C250.31 38.3009 254.15 40.3009 256.5 45.0609C257.72 38.6409 260.22 32.8109 264 27.5609C274.59 22.7609 280.93 26.0909 283 37.5609C280.7 45.6709 278.53 53.8409 276.5 62.0609C275.28 75.0709 274.11 88.071 273 101.061Z" fill="#8BC34A"/>
<path fill-rule="evenodd" clip-rule="evenodd" d="M273 101.062C281.37 104.082 289.37 107.912 297 112.562C309.95 121.792 321.78 132.292 332.5 144.062C339.54 155.852 344.21 168.522 346.5 182.062C353.96 217.342 357.29 253.002 356.5 289.062C356.86 295.762 357.53 302.432 358.5 309.062C359.22 309.602 359.72 310.272 360 311.062C359.69 322.882 359.69 334.882 360 347.062C360.39 355.182 359.72 363.182 358 371.062C355.57 369.342 352.91 368.842 350 369.562C346.71 374.512 343.05 379.182 339 383.562C327.79 390.902 317.29 399.072 307.5 408.062C306.87 415.512 310.04 417.672 317 414.562C326.72 406.512 336.72 398.842 347 391.562C349.9 388.832 352.57 386.002 355 383.062C353.94 398.642 349.77 413.312 342.5 427.062C339.44 430.292 336.27 433.292 333 436.062C328.98 439.092 324.98 442.092 321 445.062C316.52 446.102 312.18 447.602 308 449.562C305.33 450.232 302.67 450.232 300 449.562C281.46 441.472 264.8 430.632 250 417.062C245.96 413.022 241.63 409.352 237 406.062C224.32 397.042 213.65 386.042 205 373.062C209.09 371.512 213.09 369.682 217 367.562C222.98 362.232 229.65 357.902 237 354.562C241.81 351.912 245.81 348.412 249 344.062C283.59 349.602 311.43 338.602 332.5 311.062C343.77 290.702 343.77 270.362 332.5 250.062C331.74 248.502 330.57 247.502 329 247.062C330.72 246.342 332.55 245.672 334.5 245.062C335.17 243.732 335.17 242.392 334.5 241.062C330.36 239.902 326.2 238.902 322 238.062C316.1 231.602 308.76 227.442 300 225.562C265.56 217.042 235.72 225.212 210.5 250.062C204.99 255.922 200.65 262.582 197.5 270.062C194.3 281.732 196.13 292.402 203 302.062C203.61 302.952 203.94 303.952 204 305.062C206.29 322.672 215.62 334.672 232 341.062C221.82 350.822 209.82 357.492 196 361.062C194.77 361.042 193.77 360.712 193 360.062C193.74 360.192 194.41 360.022 195 359.562C189.1 350.572 183.1 341.742 177 333.062C176.49 327.992 175.66 322.992 174.5 318.062C171.97 316.022 169.14 314.692 166 314.062C161.34 306.742 157.17 299.072 153.5 291.062C148.32 266.692 142.99 242.352 137.5 218.062C124.39 186.172 130.89 159.172 157 137.062C158.96 138.522 160.8 140.192 162.5 142.062C163.62 151.522 168.78 157.682 178 160.562C205.66 160.362 232.33 155.032 258 144.562C265.96 141.942 270.12 136.442 270.5 128.062C270.87 119.002 271.7 110.002 273 101.062Z" fill="#FEA439"/>
<path fill-rule="evenodd" clip-rule="evenodd" d="M318 157.062C323.8 157.372 325.97 160.372 324.5 166.062C314.94 174.262 304.44 181.102 293 186.562C264.58 200.772 235.24 212.772 205 222.562C197.67 225.892 190.33 229.232 183 232.562C176.5 234.062 174 231.562 175.5 225.062C180.59 221.262 186.09 218.092 192 215.562C231.42 202.512 269.42 186.182 306 166.562C309.9 163.152 313.9 159.982 318 157.062Z" fill="#FF9133"/>
<path fill-rule="evenodd" clip-rule="evenodd" d="M322 238.062C311.93 237.332 301.93 238.162 292 240.562C280.31 245.092 275.81 253.592 278.5 266.062C280.39 274.692 284.89 281.522 292 286.562C300.28 287.732 308.28 286.732 316 283.562C318.6 279.962 320.77 276.132 322.5 272.062C323.17 265.392 323.17 258.732 322.5 252.062C321.33 250.392 320.17 248.732 319 247.062C322.15 246.852 325.49 246.852 329 247.062C330.57 247.502 331.74 248.502 332.5 250.062C343.77 270.362 343.77 290.702 332.5 311.062C311.43 338.602 283.59 349.602 249 344.062C252.34 342.342 256.01 340.842 260 339.562C262.3 338.302 263.13 336.462 262.5 334.062C260.7 332.562 258.87 331.062 257 329.562C254.33 329.232 251.67 328.892 249 328.562C245.72 326.342 242.22 324.502 238.5 323.062C236.11 323.952 234.61 325.612 234 328.062C234.8 331.002 236.14 333.672 238 336.062C235.98 337.752 233.98 339.422 232 341.062C215.62 334.672 206.29 322.672 204 305.062C205.57 306.032 207.23 306.202 209 305.562C211.91 302.192 214.08 298.352 215.5 294.062C216.59 297.442 217.92 300.772 219.5 304.062C228.18 316.272 239.01 318.772 252 311.562C260.25 303.852 263.42 294.352 261.5 283.062C260.83 281.732 260.17 280.392 259.5 279.062C255.62 275.882 252.12 272.382 249 268.562C233.98 264.682 221.48 268.842 211.5 281.062C206.03 286.962 203.2 293.962 203 302.062C196.13 292.402 194.3 281.732 197.5 270.062C200.65 262.582 204.99 255.922 210.5 250.062C235.72 225.212 265.56 217.042 300 225.562C308.76 227.442 316.1 231.602 322 238.062Z" fill="#FDFCFC"/>
<path fill-rule="evenodd" clip-rule="evenodd" d="M322 238.062C326.2 238.902 330.36 239.902 334.5 241.062C335.17 242.392 335.17 243.732 334.5 245.062C332.55 245.672 330.72 246.342 329 247.062C325.49 246.852 322.15 246.852 319 247.062C320.17 248.732 321.33 250.392 322.5 252.062C323.17 258.732 323.17 265.392 322.5 272.062C320.77 276.132 318.6 279.962 316 283.562C308.28 286.732 300.28 287.732 292 286.562C284.89 281.522 280.39 274.692 278.5 266.062C275.81 253.592 280.31 245.092 292 240.562C301.93 238.162 311.93 237.332 322 238.062Z" fill="#040404"/>
<path fill-rule="evenodd" clip-rule="evenodd" d="M289 248.062C295.95 249.202 298.95 253.372 298 260.562C297.66 265.132 295.16 267.302 290.5 267.062C284.23 265.812 281.56 262.152 282.5 256.062C284.46 253.102 286.62 250.432 289 248.062Z" fill="#F5F5F5"/>
<path fill-rule="evenodd" clip-rule="evenodd" d="M204 305.061C203.94 303.951 203.61 302.951 203 302.061C203.2 293.961 206.03 286.961 211.5 281.061C221.48 268.841 233.98 264.681 249 268.561C252.12 272.381 255.62 275.881 259.5 279.061C260.17 280.391 260.83 281.731 261.5 283.061C263.42 294.351 260.25 303.851 252 311.561C239.01 318.771 228.18 316.271 219.5 304.061C217.92 300.771 216.59 297.441 215.5 294.061C214.08 298.351 211.91 302.191 209 305.561C207.23 306.201 205.57 306.031 204 305.061Z" fill="#050505"/>
<path fill-rule="evenodd" clip-rule="evenodd" d="M240 272.062C248.87 274.132 251.7 279.462 248.5 288.062C243.89 293.342 239.56 293.012 235.5 287.062C234.83 283.732 234.83 280.392 235.5 277.062C236.52 274.872 238.02 273.212 240 272.062Z" fill="#F5F5F5"/>
<path fill-rule="evenodd" clip-rule="evenodd" d="M293 295.061C294.7 294.901 296.37 295.071 298 295.561C299.84 310.701 293.17 316.371 278 312.561C275.33 309.881 275.66 307.551 279 305.561C282.99 305.061 286.99 304.891 291 305.061C291.04 301.571 291.71 298.241 293 295.061Z" fill="#141414"/>
<path fill-rule="evenodd" clip-rule="evenodd" d="M360 311.062C363.72 319.042 366.55 327.372 368.5 336.062C371.63 351.282 373.97 366.612 375.5 382.062C382.16 387.702 384.66 394.872 383 403.562C381.02 406.562 378.85 406.722 376.5 404.062C375.14 401.182 373.64 398.352 372 395.562C366.43 395.662 361.93 393.502 358.5 389.062C358.1 383.962 360.6 381.632 366 382.062C365.82 369.952 363.82 358.282 360 347.062C359.69 334.882 359.69 322.882 360 311.062Z" fill="#080707"/>
<path fill-rule="evenodd" clip-rule="evenodd" d="M166 314.062C169.14 314.692 171.97 316.022 174.5 318.062C175.66 322.992 176.49 327.992 177 333.062C176.24 340.752 177.4 348.082 180.5 355.062C184.41 357.422 188.57 359.082 193 360.062C193.77 360.712 194.77 361.042 196 361.062C209.82 357.492 221.82 350.822 232 341.062C233.98 339.422 235.98 337.752 238 336.062C236.14 333.672 234.8 331.002 234 328.062C234.61 325.612 236.11 323.952 238.5 323.062C242.22 324.502 245.72 326.342 249 328.562C251.67 328.892 254.33 329.232 257 329.562C258.87 331.062 260.7 332.562 262.5 334.062C263.13 336.462 262.3 338.302 260 339.562C256.01 340.842 252.34 342.342 249 344.062C245.81 348.412 241.81 351.912 237 354.562C229.65 357.902 222.98 362.232 217 367.562C213.09 369.682 209.09 371.512 205 373.062C191.25 378.082 179.75 375.082 170.5 364.062C169.22 361.842 168.22 359.512 167.5 357.062C165.95 345.232 164.45 333.402 163 321.562C163.33 318.732 164.33 316.232 166 314.062Z" fill="#050403"/>
<path fill-rule="evenodd" clip-rule="evenodd" d="M300 344.062C306.5 343.062 309 345.732 307.5 352.062C296.75 365.342 283.25 374.512 267 379.562C261.12 380.282 255.45 381.782 250 384.062C244.71 381.832 243.71 378.332 247 373.562C253.28 370.322 259.94 368.322 267 367.562C279.83 362.222 290.83 354.392 300 344.062Z" fill="#FF9133"/>
<path fill-rule="evenodd" clip-rule="evenodd" d="M358 371.062C357 375.062 356 379.062 355 383.062C352.57 386.002 349.9 388.832 347 391.562C336.72 398.842 326.72 406.512 317 414.562C310.04 417.672 306.87 415.512 307.5 408.062C317.29 399.072 327.79 390.902 339 383.562C343.05 379.182 346.71 374.512 350 369.562C352.91 368.842 355.57 369.342 358 371.062Z" fill="#FF9133"/>
<path fill-rule="evenodd" clip-rule="evenodd" d="M237 406.062C241.63 409.352 245.96 413.022 250 417.062C251.29 429.052 252.63 441.052 254 453.062C253.42 457.382 253.09 461.712 253 466.062C259.09 465.202 264.25 466.872 268.5 471.062C269.62 474.432 271.12 477.602 273 480.562C272.4 482.172 271.4 483.502 270 484.562C261.66 484.402 253.32 483.732 245 482.562C243.17 480.732 241.33 478.892 239.5 477.062C239.3 473.322 240.13 469.822 242 466.562C240.56 446.342 238.89 426.182 237 406.062Z" fill="#070707"/>
<path fill-rule="evenodd" clip-rule="evenodd" d="M333 436.062C333.38 445.582 332.88 454.912 331.5 464.062C333.01 461.682 335.18 460.682 338 461.062C341.83 461.642 345.5 462.812 349 464.562C350.73 469.292 350.07 473.622 347 477.562C340.55 479.532 334.05 481.372 327.5 483.062C325.6 482.952 323.94 482.282 322.5 481.062C323.51 468.992 323.01 456.992 321 445.062C324.98 442.092 328.98 439.092 333 436.062Z" fill="#040404"/>
</svg>
