<svg width="500" height="500" viewBox="0 0 500 500" fill="none" xmlns="http://www.w3.org/2000/svg">
<path fill-rule="evenodd" clip-rule="evenodd" d="M239.148 129.242C263.828 128.596 288.473 129.242 313.087 131.188C344.09 133.678 362.902 149.89 369.513 179.832C408.506 219.319 412.398 262.125 381.188 308.251C351.18 359.809 306.428 379.917 246.931 368.569C224.629 357.782 205.817 342.862 190.504 323.817C185.084 309.084 178.6 294.818 171.047 281.01C169.751 264.149 168.451 247.283 167.155 230.421C156.271 245.205 143.947 258.825 130.186 271.282C121.415 277.707 112.332 278.356 102.946 273.228C98.4432 260.448 97.7934 247.474 101 234.313C115.718 205.329 137.121 182.626 165.21 166.211C189.131 151.657 213.776 139.333 239.148 129.242Z" fill="#050505"/>
<path fill-rule="evenodd" clip-rule="evenodd" d="M305.309 164.264C332.884 163.953 347.154 177.573 348.115 205.125C348.096 240.141 331.234 258.302 297.526 259.606C260.627 224.758 263.222 192.976 305.309 164.264Z" fill="#F5F5F5"/>
</svg>
