<svg width="500" height="500" viewBox="0 0 500 500" fill="none" xmlns="http://www.w3.org/2000/svg">
<path fill-rule="evenodd" clip-rule="evenodd" d="M154.675 121.07C215.56 120.178 275.258 127.815 333.772 143.985C358.609 158.838 384.295 172.033 410.826 183.566C416.299 198.903 411.438 208.623 396.248 212.731C371.72 212.477 349.504 205.535 329.607 191.899C333.943 241.337 323.531 288.555 298.369 333.557C285.037 348.289 270.459 361.484 254.636 373.138C146.986 395.803 91.4495 352.747 88.0341 243.979C87.0054 189.749 109.222 148.781 154.675 121.07Z" fill="#040404"/>
<path fill-rule="evenodd" clip-rule="evenodd" d="M150.095 158.234C169.633 154.272 185.489 159.849 197.668 174.969C198.702 195.946 197.32 216.865 193.531 237.725C179.847 253.736 162.613 258.618 141.822 252.368C135.67 241.971 128.083 232.905 119.069 225.174C116.31 214.016 116.31 202.862 119.069 191.704C130.772 181.927 141.114 170.769 150.095 158.234Z" fill="#F4F4F4"/>
</svg>
