<svg width="500" height="500" viewBox="0 0 500 500" fill="none" xmlns="http://www.w3.org/2000/svg">
<path fill-rule="evenodd" clip-rule="evenodd" d="M321.317 145.041C356.627 144.524 391.25 148.951 425.186 158.326C439.59 166.938 454.487 174.588 469.874 181.274C473.048 190.166 470.229 195.801 461.419 198.183C447.194 198.036 434.309 194.011 422.77 186.105C425.285 214.768 419.246 242.144 404.654 268.234C396.921 276.776 388.467 284.426 379.29 291.182C316.858 304.323 284.649 279.36 282.668 216.3C282.071 184.859 294.956 161.106 321.317 145.041Z" fill="#040404"/>
<path fill-rule="evenodd" clip-rule="evenodd" d="M318.906 166.78C330.314 164.493 339.573 167.713 346.685 176.443C347.289 188.554 346.482 200.632 344.269 212.676C336.278 221.92 326.215 224.739 314.075 221.13C310.483 215.128 306.052 209.893 300.789 205.429C299.178 198.987 299.178 192.547 300.789 186.105C307.623 180.46 313.661 174.017 318.906 166.78Z" fill="#F4F4F4"/>
<path fill-rule="evenodd" clip-rule="evenodd" d="M115.994 171.613C131.313 171.212 146.611 171.613 161.89 172.821C181.134 174.367 192.811 184.43 196.915 203.015C221.119 227.526 223.535 254.097 204.162 282.729C185.535 314.733 157.756 327.214 120.825 320.17C106.981 313.474 95.3046 304.213 85.7993 292.391C82.4345 283.246 78.4101 274.39 73.7215 265.82C72.9172 255.353 72.1104 244.884 71.306 234.418C64.5496 243.594 56.8996 252.049 48.3581 259.781C42.9135 263.769 37.2755 264.172 31.4492 260.989C28.6544 253.056 28.251 245.003 30.2414 236.833C39.3771 218.842 52.6627 204.75 70.0982 194.561C84.9466 185.527 100.244 177.876 115.994 171.613Z" fill="#050505"/>
<path fill-rule="evenodd" clip-rule="evenodd" d="M157.062 193.352C174.178 193.159 183.036 201.613 183.633 218.716C183.621 240.451 173.154 251.724 152.231 252.533C129.326 230.902 130.938 211.174 157.062 193.352Z" fill="#F5F5F5"/>
<path fill-rule="evenodd" clip-rule="evenodd" d="M299.576 306.884C308.269 305.527 313.101 309.15 314.069 317.754C310.528 332.086 303.281 344.164 292.329 353.988C272.596 355.449 254.48 351.019 237.979 340.702C236.245 331.139 240.271 325.503 250.057 323.793C257.859 326.127 265.509 328.946 273.005 332.248C276.225 333.859 279.447 333.859 282.667 332.248C288.029 323.515 293.665 315.061 299.576 306.884Z" fill="#0B0B0B"/>
</svg>
